<svg xmlns="http://www.w3.org/2000/svg" width="76" height="76" viewBox="0 0 76 76">
  <circle cx="38" cy="38" r="38" fill="#1be5b9"/>
  <path d="M206.507,357.068A13.192,13.192,0,0,1,217.248,367.8a2.176,2.176,0,0,0,2.158,1.821,1.917,1.917,0,0,0,.347-.032.019.019,0,0,0,.016,0,2.182,2.182,0,0,0,1.79-2.527,17.543,17.543,0,0,0-14.325-14.308h-.006a2.187,2.187,0,0,0-.721,4.315Z" transform="translate(-169.216 -329.753)" fill="#fff"/>
  <path d="M222.807,386.623c-.33.36-.68.69-1.05,1.05-.08.07-.161.15-.241.23a26.091,26.091,0,0,0-2.129,2.2,4.489,4.489,0,0,1-3.53,1.47c-.141,0-.29-.01-.451-.02a23.058,23.058,0,0,1-8.179-2.46,47.213,47.213,0,0,1-15.75-12.32,43.293,43.293,0,0,1-7.641-12.73,14.94,14.94,0,0,1-1.18-6.46,4.185,4.185,0,0,1,1.3-2.75l3.671-3.68a1.705,1.705,0,0,1,1.149-.56,1.64,1.64,0,0,1,1.1.57c.01,0,.01.01.019.01.641.6,1.25,1.23,1.911,1.9l.019.02c.32.32.681.7,1.051,1.05l2.949,2.95c.861.86.861,1.47,0,2.33-.31.31-.629.62-.939.94l-.22.23c-.821.83-1.6,1.62-2.451,2.38-.01.01-.029.02-.039.03l-.05.06a2.882,2.882,0,0,0-.731,3.2.675.675,0,0,0,.031.08c.01.02.01.04.02.05a24.6,24.6,0,0,0,3.61,5.88.01.01,0,0,0,.01.01,40.455,40.455,0,0,0,9.79,8.91,14.779,14.779,0,0,0,1.39.76c.329.17.7.36,1.01.54a.664.664,0,0,0,.069.04l.01.01c.041.02.07.04.111.06a3.06,3.06,0,0,0,1.389.34,2.939,2.939,0,0,0,2.171-.97l3.69-3.7a1.8,1.8,0,0,1,1.129-.58,1.611,1.611,0,0,1,1.051.58c.01,0,.01,0,.01.01l5.97,5.97C223.447,384.833,223.846,385.533,222.807,386.623Z" transform="translate(-169.216 -329.753)" fill="#fff" stroke="#fff" stroke-linecap="round" stroke-linejoin="round" stroke-width="2"/>
  <path d="M230.846,366.2a28.418,28.418,0,0,0-23.185-23.165,2.185,2.185,0,0,0-.727,4.31,24.057,24.057,0,0,1,19.6,19.591,2.176,2.176,0,0,0,2.158,1.822h.016a1.779,1.779,0,0,0,.331-.032.018.018,0,0,0,.016-.006,2.187,2.187,0,0,0,1.8-2.521Z" transform="translate(-169.216 -329.753)" fill="#fff"/>
</svg>
