<?xml version="1.0" encoding="utf-8"?>
<!-- Generator: Adobe Illustrator 25.0.0, SVG Export Plug-In . SVG Version: 6.00 Build 0)  -->
<svg version="1.2" baseProfile="tiny" id="Calque_1"
	xmlns="http://www.w3.org/2000/svg"
	xmlns:xlink="http://www.w3.org/1999/xlink" x="0px" y="0px" viewBox="0 0 188.9 55.7" overflow="visible" xml:space="preserve">
	<g>
		<path fill="#1028fd" d="M7.1,55.4L0,32.1l5-3.8l20.7,12.9l-4.2,3.3l-4.5-2.9l-7.3,5.6l1.6,5.1L7.1,55.4z M8.2,43l4.9-3.8l-4.4-2.8
		l-4-3L6.7,38L8.2,43z"/>
		<path fill="#1028fd" d="M25.3,41.6L14.6,21.5l9.9-5.3c4.4-2.4,7.4-1.1,8.9,1.8c1.8,3.4-0.7,6.2-3.7,8c5.2-2.5,8.1-1.5,9.6,1.4
		c2,3.8,0,6.7-4.3,9L25.3,41.6z M20.9,23l2.3,4.3l4.5-2.4c1.7-0.9,2.5-2,1.6-3.6c-0.8-1.6-2.3-1.6-4-0.7L20.9,23z M25.1,30.8
		l2.5,4.7l4.8-2.6c2.3-1.2,2.9-2.5,2-4.1c-0.9-1.6-2.4-1.7-4.5-0.6L25.1,30.8z"/>
		<path fill="#1028fd" d="M41,28.4l1.8-4.6c2.4,2.2,5.9,2.3,8.5,1.5c1.9-0.6,3-1.7,2.5-3.2c-0.6-1.7-2.2-1.7-5.2-1.4L46.4,21
		c-3.6,0.5-7.2,0-8.6-4c-1.4-4.2,1.5-7.7,5.8-9.2c4.1-1.4,7.8-0.9,10.5,1l-1.9,4.6c-2.2-1.8-5.1-2.1-7.6-1.3
		c-1.6,0.6-2.6,1.7-2.2,2.9c0.5,1.6,2.1,1.7,4.5,1.4l2.6-0.2c4.3-0.4,7.6,0.3,8.9,4.2c1.4,4.1-1.3,7.5-6,9.1
		C48.4,30.9,44.1,30.8,41,28.4z"/>
		<path fill="#1028fd" d="M65.9,25.5L62.5,7.4l-6.7,1.2L55,4.4L73.2,1L74,5.3l-6.7,1.2l3.4,18.2L65.9,25.5z"/>
		<path fill="#1028fd" d="M77.3,23.5l-1-22.8L93,0l0.2,4.3L81.3,4.8l0.2,4.8l9.9-0.4l0.2,4.3l-9.9,0.4l0.2,5l11.9-0.5l0.2,4.3
		L77.3,23.5z"/>
		<path fill="#1028fd" d="M95,22.7l2.6-22.6l4.7,0.5l6.7,12.7l1.7,3.8l0.3-5.4l1.1-10l4.8,0.5l-2.6,22.6l-4.6-0.5l-6.9-12.9l-1.6-3.6
		l-0.3,5.7l-1.1,9.7L95,22.7z"/>
		<path fill="#1028fd" d="M120.8,26.7l4.9-17.8l-6.6-1.8l1.1-4.2L138,7.8l-1.1,4.2l-6.6-1.8L125.5,28L120.8,26.7z"/>
		<path fill="#1028fd" d="M132.1,30.1l8.1-21.3l4.5,1.7l-8.1,21.3L132.1,30.1z"/>
		<path fill="#1028fd" d="M143.7,21.9c3.1-5.8,9.6-8.1,15.6-4.9c6,3.2,7.7,9.9,4.6,15.7c-3.1,5.8-9.6,8.2-15.6,5
		C142.3,34.5,140.6,27.7,143.7,21.9z M159.4,30.3c1.9-3.6,1.4-7.2-2.3-9.2c-3.7-2-7-0.4-8.9,3.2c-1.9,3.6-1.4,7.2,2.3,9.2
		C154.2,35.5,157.4,33.9,159.4,30.3z"/>
		<path fill="#1028fd" d="M159.5,43.6l14.2-17.8l3.7,3l-1.1,14.4l-0.6,4.1l3.1-4.4l6.3-7.9l3.8,3l-14.2,17.8l-3.6-2.9l1-14.6l0.5-3.9
		l-3.2,4.6l-6.1,7.6L159.5,43.6z"/>
	</g>
	<g>
	</g>
	<g>
	</g>
	<g>
	</g>
	<g>
	</g>
	<g>
	</g>
	<g>
	</g>
</svg>
