<?xml version="1.0" encoding="utf-8"?>
<!-- Generator: Adobe Illustrator 25.0.0, SVG Export Plug-In . SVG Version: 6.00 Build 0)  -->
<svg version="1.2" baseProfile="tiny" id="Calque_1"
	 xmlns="http://www.w3.org/2000/svg" xmlns:xlink="http://www.w3.org/1999/xlink" x="0px" y="0px" viewBox="0 0 189.3 45.5"
	 overflow="visible" xml:space="preserve">
<g>
	<path fill="#0039FF" d="M11.8,44.7L0,38.1L2.4,36l6.1,3.8l3.4,2.5L10,38.5l-2.8-6.6l2.3-2l4.9,12.6L11.8,44.7z"/>
	<path fill="#0039FF" d="M13.7,34.6c-2.1-3-1.7-6.8,1.4-9c3.1-2.2,6.9-1.4,9,1.6c2.1,3,1.7,6.8-1.4,9C19.6,38.5,15.8,37.6,13.7,34.6
		z M21.8,28.9c-1.3-1.8-3.2-2.5-5.1-1.1c-1.9,1.4-1.9,3.4-0.6,5.2c1.3,1.9,3.2,2.5,5.1,1.1C23.1,32.7,23.1,30.7,21.8,28.9z"/>
	<path fill="#0039FF" d="M30.5,31l-5.2-8.9L21.9,24l-1.2-2.1l8.9-5.2l1.2,2.1l-3.3,1.9l5.2,8.9L30.5,31z"/>
	<path fill="#0039FF" d="M36.2,27.6l-5.6-11.4l8.4-4.1l1.1,2.2l-6,2.9l1.2,2.4l5-2.4l1.1,2.2l-5,2.4l1.2,2.5l6-2.9l1.1,2.2
		L36.2,27.6z"/>
	<path fill="#0039FF" d="M43.9,21.1l0.9-2.6c1.4,1.2,3.3,1.2,4.8,0.6c1-0.4,1.6-1,1.3-1.8c-0.4-0.9-1.3-0.9-3-0.6l-1.2,0.2
		c-2,0.3-4,0.2-4.9-2c-0.9-2.3,0.6-4.3,3-5.3c2.2-0.9,4.3-0.7,5.9,0.3l-1,2.6c-1.3-0.9-2.9-1.1-4.3-0.5c-0.9,0.4-1.4,1-1.1,1.7
		c0.3,0.9,1.2,0.9,2.6,0.7l1.5-0.2c2.4-0.4,4.3,0,5.1,2.1c0.9,2.3-0.5,4.2-3.1,5.2C48,22.3,45.6,22.4,43.9,21.1z"/>
	<path fill="#0039FF" d="M58.7,18.2L55.4,5.9l6-1.6c2.7-0.7,4.2,0.4,4.6,2.1c0.6,2.1-1.1,3.3-3,3.9c3.2-0.7,4.6,0.2,5,2
		c0.6,2.3-0.9,3.7-3.5,4.4L58.7,18.2z M58.7,7.6l0.7,2.6l2.8-0.7c1-0.3,1.6-0.8,1.3-1.8c-0.3-1-1-1.1-2.1-0.9L58.7,7.6z M59.9,12.3
		l0.8,2.9l3-0.8c1.4-0.4,1.9-1,1.6-2c-0.3-1-1.1-1.2-2.3-0.9L59.9,12.3z"/>
	<path fill="#0039FF" d="M69.9,15.4L67.7,2.8l2.7-0.5l1.8,10.2l6.3-1.1l0.4,2.4L69.9,15.4z"/>
	<path fill="#0039FF" d="M78.3,13.8L82,0.7l3.5-0.3l5.9,12.3l-3,0.3l-1.2-2.7L82,10.7l-0.8,2.9L78.3,13.8z M82.6,8.3L86.1,8
		l-1.2-2.6l-1-2.6l-0.5,2.8L82.6,8.3z"/>
	<path fill="#0039FF" d="M91.3,12.7L91.3,0L94,0l4.5,6.7l1.1,2l-0.2-3l0-5.6l2.7,0l-0.1,12.7l-2.6,0L94.9,6l-1.1-1.9L94,7.3l0,5.4
		L91.3,12.7z"/>
	<path fill="#0039FF" d="M103.7,6.5c0.4-3.6,3-6.3,7-5.9c2.7,0.3,4.6,1.9,5.3,4.2l-2.5,1.6c-0.2-1.6-1.2-3-3.1-3.2
		c-2.2-0.2-3.5,1.3-3.8,3.6c-0.2,2.3,0.8,4,3,4.3c1.9,0.2,3.1-1,3.7-2.5l2.1,2.1c-1.2,2.1-3.3,3.3-6,3
		C105.4,13.2,103.4,10.1,103.7,6.5z"/>
	<path fill="#0039FF" d="M115.7,11.7l2.2-1.7c0.5,1.7,2.2,2.8,3.7,3.1c1.1,0.2,1.9,0,2.1-0.8c0.2-1-0.6-1.4-2.2-2.1l-1.2-0.5
		c-1.9-0.8-3.5-2-3.1-4.4c0.5-2.4,2.8-3.3,5.4-2.8c2.3,0.5,4.1,1.7,4.8,3.4l-2.2,1.7c-0.6-1.5-1.9-2.5-3.3-2.7
		c-1-0.2-1.7,0.1-1.9,0.8c-0.2,0.9,0.6,1.4,1.8,2l1.4,0.6c2.2,1,3.6,2.3,3.2,4.5c-0.5,2.4-2.7,3.3-5.4,2.7
		C118.5,15,116.5,13.7,115.7,11.7z"/>
	<path fill="#0039FF" d="M130.2,14c0.5-1.4,1.7-2.3,3.9-2.4c-0.5-1.1-0.8-2.2-0.4-3.4c0.5-1.7,2.3-2.6,4.7-1.8
		c2.3,0.7,3.2,2.5,2.6,4.2c-0.5,1.6-2,2.3-3.7,2.3l1.4,3c0.7-0.5,1.2-1.3,1.4-2.7l2.3,0.8c-0.4,1.9-1.6,3.1-2.9,3.7
		c0.3,0.5,0.6,0.8,1,0.9c1,0.3,1.8-0.4,2-0.9l0.1,2.7c-0.7,0.5-1.8,0.7-2.9,0.3c-1.1-0.4-1.8-1.1-2.4-2.1c-1.3,0.5-2.8,0.5-4.4,0
		C130.8,17.7,129.6,16.1,130.2,14z M134.3,16.5c0.7,0.2,1.4,0.3,2.1,0.2l-1.6-3.5c-0.9,0.2-1.6,0.6-1.8,1.3
		C132.7,15.3,133.3,16.1,134.3,16.5z M136.8,11.5c1.3-0.3,1.8-0.8,2-1.5c0.2-0.7-0.1-1.4-0.9-1.7c-0.8-0.3-1.4,0.1-1.6,0.7
		C136,9.7,136.2,10.3,136.8,11.5z"/>
	<path fill="#0039FF" d="M145.6,22.7l5.5-11.5l2.4,1.1l1.2,7.9l0.2,2.3l1.1-2.8l2.4-5.1l2.5,1.2l-5.5,11.5l-2.3-1.1l-1.3-8l-0.2-2.2
		l-1.2,2.9l-2.3,4.9L145.6,22.7z"/>
	<path fill="#0039FF" d="M159.7,23.4l3.7-6.1l2.3,1.4l-3.7,6.1c-1.1,1.9-0.9,3.1,0.7,4c1.6,1,2.7,0.6,3.9-1.3l3.7-6.1l2.3,1.4
		l-3.7,6.1c-2.1,3.4-4.5,4-7.6,2.2C158.3,29.3,157.7,26.8,159.7,23.4z"/>
	<path fill="#0039FF" d="M167.4,34.7l7.5-10.3l2.2,1.6l-6.1,8.3l5.1,3.8l-1.4,1.9L167.4,34.7z"/>
	<path fill="#0039FF" d="M176.2,38.1l2.7-0.4c-0.4,1.8,0.5,3.5,1.7,4.5c0.8,0.7,1.7,1,2.2,0.3c0.6-0.7,0.2-1.5-0.8-2.9l-0.8-1
		c-1.2-1.6-2.1-3.5-0.5-5.3c1.6-1.9,4.1-1.5,6.1,0.2c1.8,1.6,2.7,3.5,2.5,5.4l-2.7,0.4c0.2-1.6-0.4-3.1-1.5-4
		c-0.7-0.6-1.5-0.8-2-0.2c-0.6,0.7-0.2,1.5,0.6,2.6l0.9,1.2c1.4,2,2,3.8,0.5,5.5c-1.6,1.8-4,1.5-6.1-0.3
		C177.1,42.3,175.9,40.2,176.2,38.1z"/>
</g>
<g>
</g>
<g>
</g>
<g>
</g>
<g>
</g>
<g>
</g>
<g>
</g>
</svg>
