<?xml version="1.0" encoding="utf-8"?>
<!-- Generator: Adobe Illustrator 25.0.0, SVG Export Plug-In . SVG Version: 6.00 Build 0)  -->
<svg version="1.2" baseProfile="tiny" id="Calque_1"
	xmlns="http://www.w3.org/2000/svg"
	xmlns:xlink="http://www.w3.org/1999/xlink" x="0px" y="0px" viewBox="0 0 195.9 52.3" overflow="visible" xml:space="preserve">
	<g>
		<path fill="#1028fd" d="M11.9,51.8L0,37.7l3-2.5l9.6,11.5l7.1-5.9l2.3,2.7L11.9,51.8z"/>
		<path fill="#1028fd" d="M22.2,43.2L12,27.8l11.3-7.5l1.9,2.9l-8,5.3l2.2,3.2l6.7-4.5l1.9,2.9l-6.7,4.5l2.3,3.4l8-5.3l1.9,2.9
		L22.2,43.2z"/>
		<path fill="#1028fd" d="M31.9,32.4l0.9-3.9c2.2,1.5,5,1.2,7,0.2c1.4-0.7,2.2-1.7,1.7-2.8c-0.6-1.3-1.9-1.1-4.4-0.5l-1.8,0.5
		c-2.8,0.8-5.8,0.9-7.4-2.2c-1.6-3.2,0.3-6.3,3.6-8c3.1-1.6,6.2-1.7,8.5-0.4l-1,3.9c-2-1.2-4.3-1.1-6.2-0.2
		c-1.3,0.6-1.9,1.6-1.4,2.6c0.6,1.2,1.9,1.1,3.8,0.6l2.1-0.5c3.4-0.8,6.2-0.7,7.7,2.3c1.6,3.1-0.2,6.2-3.7,8
		C38.1,33.5,34.7,34,31.9,32.4z"/>
		<path fill="#1028fd" d="M52.8,26.4L47.2,8.8l12.9-4.1L61.1,8L52,11l1.2,3.7l7.7-2.5l1.1,3.3L54.2,18l1.2,3.9l9.2-2.9l1.1,3.3
		L52.8,26.4z"/>
		<path fill="#1028fd" d="M70.7,21.3L67.8,6.6l-5.4,1.1l-0.7-3.4l14.7-2.9L77,4.7l-5.4,1.1l2.9,14.7L70.7,21.3z"/>
		<path fill="#1028fd" d="M80,19.4L78.5,1l8.5-0.7c4-0.3,7,1.3,7.4,5.2c0.3,3.3-1.8,5.1-4.8,5.7c1.5,0.3,2.3,1.1,3.2,2.3l3.3,4.5
		l-4.5,0.4l-3.5-5c-0.8-1.2-1.7-1.6-3.3-1.4l-1.4,0.1l0.5,6.9L80,19.4z M82.7,4.2L83.1,9l4.5-0.4c1.7-0.1,2.9-0.9,2.7-2.6
		c-0.1-1.8-1.4-2.3-3.1-2.2L82.7,4.2z"/>
		<path fill="#1028fd" d="M94.9,18.1L102.8,0l5.1,0.3l5.9,18.8l-4.3-0.2l-1.2-4.2l-7.4-0.4l-1.7,4L94.9,18.1z M102.2,11l5,0.3l-1.2-4
		l-0.9-4l-1.3,3.8L102.2,11z"/>
		<path fill="#1028fd" d="M113.5,19.1L117,1l3.8,0.7l4.6,10.7l1.1,3.2l0.6-4.3l1.5-8l3.9,0.7L129,22.1l-3.7-0.7l-4.8-10.8l-1.1-3
		l-0.6,4.5l-1.5,7.7L113.5,19.1z"/>
		<path fill="#1028fd" d="M133.2,13.6c1.8-5.2,6.2-7.9,11.9-6c3.7,1.3,5.9,3.9,6.1,7.3l-4,1.3c0.2-2.1-0.9-4.1-3.4-5
		c-3.2-1.1-5.5,0.6-6.6,3.8c-1.2,3.4-0.2,6,2.8,7c2.4,0.8,4.1,0.1,5.4-1.5l-4.8-1.6l1-3l8.4,2.9l-3.2,9.4l-2.5-0.8l1.3-6.7
		c-1.6,4.1-4.6,5.8-8.3,4.5C133.1,23.6,131.1,19.5,133.2,13.6z"/>
		<path fill="#1028fd" d="M148.4,28.9l8.3-16.5l12.1,6.1l-1.6,3.1l-8.6-4.3l-1.7,3.5l7.2,3.6l-1.6,3.1l-7.2-3.6l-1.8,3.6l8.6,4.3
		l-1.6,3.1L148.4,28.9z"/>
		<path fill="#1028fd" d="M161.4,35.4l10.3-15.3l7.1,4.8c3.3,2.2,4.7,5.4,2.5,8.6c-1.8,2.7-4.6,2.9-7.3,1.5c1,1.1,1.1,2.3,1.1,3.8
		l-0.2,5.6l-3.8-2.5l0.3-6.1c0.1-1.4-0.3-2.3-1.7-3.2l-1.2-0.8l-3.8,5.7L161.4,35.4z M173,25.2l-2.7,4.1l3.7,2.5
		c1.4,1,2.8,1.1,3.8-0.4c1-1.5,0.4-2.7-1.1-3.7L173,25.2z"/>
		<path fill="#1028fd" d="M176.9,41.6l3.9-0.6c-0.6,2.6,0.8,5.1,2.4,6.5c1.2,1,2.4,1.4,3.2,0.5c0.9-1.1,0.3-2.2-1.2-4.2l-1.1-1.5
		c-1.8-2.3-3-5-0.7-7.7c2.4-2.7,6-2.1,8.8,0.4c2.6,2.3,3.8,5.1,3.6,7.8l-4,0.5c0.4-2.2-0.6-4.5-2.2-5.8c-1.1-0.9-2.2-1.1-2.9-0.3
		c-0.9,1-0.3,2.2,0.8,3.8l1.3,1.7c2.1,2.9,2.9,5.5,0.7,8c-2.3,2.7-5.8,2.1-8.8-0.5C178.1,47.7,176.4,44.7,176.9,41.6z"/>
	</g>
	<g>
	</g>
	<g>
	</g>
	<g>
	</g>
	<g>
	</g>
	<g>
	</g>
	<g>
	</g>
</svg>
