<?xml version="1.0" encoding="utf-8"?>
<!-- Generator: Adobe Illustrator 25.0.0, SVG Export Plug-In . SVG Version: 6.00 Build 0)  -->
<svg version="1.2" baseProfile="tiny" id="Calque_1"
	xmlns="http://www.w3.org/2000/svg"
	xmlns:xlink="http://www.w3.org/1999/xlink" x="0px" y="0px" viewBox="0 0 191.3 54.2" overflow="visible" xml:space="preserve">
	<g>
		<path fill="#1028fd" d="M13.5,52.8L0,36l3.6-2.9l10.9,13.6l8.4-6.7l2.6,3.2L13.5,52.8z"/>
		<path fill="#1028fd" d="M25.7,43.1L14.5,24.7l13.5-8.2l2.1,3.5l-9.6,5.8l2.3,3.9l8-4.8l2.1,3.5l-8,4.8l2.5,4.1l9.6-5.8l2.1,3.5
		L25.7,43.1z"/>
		<path fill="#1028fd" d="M37.5,31l1.4-4.4c2.4,1.9,5.7,1.8,8.1,0.8c1.7-0.7,2.7-1.8,2.2-3.1c-0.7-1.5-2.2-1.5-5-0.9L42,23.7
		c-3.3,0.7-6.8,0.5-8.4-3.2c-1.6-3.9,0.8-7.3,4.9-9c3.7-1.6,7.3-1.4,10,0.2l-1.5,4.4c-2.2-1.5-5-1.7-7.2-0.7
		c-1.5,0.6-2.3,1.8-1.8,2.9c0.6,1.4,2.1,1.4,4.4,1l2.5-0.4c4.1-0.7,7.2-0.3,8.7,3.3c1.6,3.8-0.7,7.2-5,9
		C44.6,32.9,40.6,33.2,37.5,31z"/>
		<path fill="#1028fd" d="M61.9,25.7L58.1,4.5l6-1.1l4.8,7.3l3.1,5.9l0.9-6.6l2-8.5l6-1.1l3.8,21.2l-4.5,0.8l-1.4-7.9l-0.9-8.6
		l-1.3,7.5L75,19.6l-4.7,0.8l-3.6-5.3l-3.8-6.6L65,17l1.4,7.9L61.9,25.7z"/>
		<path fill="#1028fd" d="M87.5,22L86.7,0.5l4.6-0.2l0.9,21.5L87.5,22z"/>
		<path fill="#1028fd" d="M95,21.4L96.7,0l4.4,0.3l6.7,11.8l1.7,3.5l0.1-5.1l0.7-9.5l4.6,0.4l-1.7,21.5l-4.4-0.3L102,10.6l-1.7-3.3
		l-0.1,5.3l-0.7,9.2L95,21.4z"/>
		<path fill="#1028fd" d="M115.8,23.4l5-20.9l15.4,3.7l-1,4l-10.9-2.6l-1.1,4.4l9.1,2.2l-1,4l-9.1-2.2l-1.1,4.6l10.9,2.6l-1,4
		L115.8,23.4z"/>
		<path fill="#1028fd" d="M135.5,18.5L140,7.4l4.3,1.7l-4.6,11.2c-1.4,3.5-0.7,5.4,2.2,6.6c2.9,1.2,4.7,0.3,6.1-3.2l4.6-11.2l4.3,1.7
		l-4.5,11.2c-2.5,6.2-6.4,7.9-12.1,5.6C134.6,28.7,132.9,24.8,135.5,18.5z"/>
		<path fill="#1028fd" d="M150.8,35.2l11.3-18.3l8.5,5.3c4,2.5,5.7,6.1,3.3,9.9c-2,3.2-5.3,3.5-8.5,2.1c1.2,1.3,1.4,2.7,1.4,4.4
		l0,6.5l-4.5-2.8l0.1-7.1c0.1-1.7-0.5-2.6-2.1-3.6l-1.4-0.9l-4.2,6.9L150.8,35.2z M163.9,22.8l-3,4.8l4.5,2.8c1.7,1,3.3,1.1,4.4-0.6
		c1.1-1.8,0.3-3.2-1.4-4.2L163.9,22.8z"/>
		<path fill="#1028fd" d="M169.1,41.7l4.6-0.7c-0.7,3,0.9,5.9,2.9,7.6c1.4,1.2,2.8,1.6,3.8,0.5c1.1-1.3,0.4-2.6-1.4-4.9l-1.3-1.7
		c-2.1-2.7-3.5-5.9-0.9-9c2.7-3.2,6.9-2.5,10.2,0.3c3.1,2.6,4.5,5.9,4.2,9l-4.6,0.6c0.4-2.6-0.7-5.2-2.6-6.8
		c-1.2-1.1-2.6-1.3-3.4-0.3c-1,1.2-0.3,2.5,1,4.4l1.5,2c2.4,3.3,3.5,6.3,0.9,9.3c-2.7,3.1-6.7,2.5-10.3-0.5
		C170.6,48.9,168.6,45.4,169.1,41.7z"/>
	</g>
	<g>
	</g>
	<g>
	</g>
	<g>
	</g>
	<g>
	</g>
	<g>
	</g>
	<g>
	</g>
</svg>
