<?xml version="1.0" encoding="utf-8"?>
<!-- Generator: Adobe Illustrator 25.0.0, SVG Export Plug-In . SVG Version: 6.00 Build 0)  -->
<svg version="1.2" baseProfile="tiny" id="Calque_1"
	 xmlns="http://www.w3.org/2000/svg" xmlns:xlink="http://www.w3.org/1999/xlink" x="0px" y="0px" viewBox="0 0 185.4 51.4"
	 overflow="visible" xml:space="preserve">
<g>
	<path fill="#0039FF" d="M12.4,51.1L0,35.7l3.2-2.6l12,3.7l3.4,1.3l-3.1-3.5l-5.5-6.9l3.3-2.6l12.4,15.5l-3.1,2.5l-12.2-3.6
		l-3.2-1.2l3.3,3.6l5.3,6.6L12.4,51.1z"/>
	<path fill="#0039FF" d="M21.7,31.1c-2.8-5-1.4-10.9,3.8-13.8c5.2-2.9,10.9-1,13.7,4c2.8,5,1.4,10.9-3.7,13.8S24.5,36.1,21.7,31.1z
		 M35.2,23.6c-1.7-3.1-4.6-4.4-7.8-2.6c-3.2,1.8-3.6,4.9-1.8,8c1.7,3.1,4.6,4.4,7.8,2.6C36.6,29.8,36.9,26.7,35.2,23.6z"/>
	<path fill="#0039FF" d="M45,29.7L38.4,11l3.9-1.4l10.1,7.4l2.7,2.3l-1.8-4.3l-2.9-8.3l4-1.4L61,24.1l-3.8,1.3L46.9,18l-2.7-2.2
		l2,4.5l2.8,8L45,29.7z"/>
	<path fill="#0039FF" d="M73.1,21.7L63.3,3l4.9-0.7l4.9,10.1l2.3,6.1L76,12L77.9,1l4.7-0.7l-4.2,20.6L73.1,21.7z"/>
	<path fill="#0039FF" d="M84.5,10c0.1-5.7,4.2-10.1,10.1-10c5.9,0.1,9.9,4.6,9.8,10.3c-0.1,5.7-4.2,10.1-10.1,10.1
		C88.4,20.3,84.4,15.8,84.5,10z M100,10.3c0.1-3.5-1.7-6.1-5.4-6.2c-3.6-0.1-5.5,2.5-5.6,6c-0.1,3.6,1.8,6.1,5.4,6.2
		C98,16.3,99.9,13.8,100,10.3z"/>
	<path fill="#0039FF" d="M108.6,21.2l2.5-15.9l-5.9-0.9l0.6-3.7l15.9,2.5l-0.6,3.7L115.2,6l-2.5,15.9L108.6,21.2z"/>
	<path fill="#0039FF" d="M115.3,21.9l12.6-17l5.2,1.5l1.7,21.1l-4.5-1.3l-0.3-4.7l-7.7-2.2l-2.8,3.8L115.3,21.9z M124.5,16.2
		l5.2,1.5l-0.3-4.5l0-4.4l-2.3,3.7L124.5,16.2z"/>
	<path fill="#0039FF" d="M134.4,27.5l8.3-18l3.7,1.7l2,12.4l0.3,3.6l1.7-4.4l3.7-8l3.8,1.8l-8.3,18l-3.7-1.7l-2.2-12.5l-0.4-3.4
		l-1.8,4.6l-3.6,7.7L134.4,27.5z"/>
	<path fill="#0039FF" d="M154.6,37.8l8.7-13.5l-5-3.2l2-3.2l13.5,8.7l-2,3.2l-5-3.2l-8.7,13.5L154.6,37.8z"/>
	<path fill="#0039FF" d="M165,39.9l4.2-0.7c-0.6,2.8,0.9,5.5,2.7,7c1.3,1.1,2.6,1.5,3.5,0.5c1-1.2,0.3-2.4-1.3-4.5l-1.2-1.6
		c-1.9-2.5-3.3-5.4-0.8-8.2c2.5-2.9,6.4-2.3,9.5,0.3c2.8,2.4,4.2,5.4,3.9,8.3l-4.3,0.6c0.4-2.4-0.7-4.8-2.4-6.3
		c-1.1-1-2.4-1.2-3.2-0.3c-0.9,1.1-0.3,2.3,0.9,4l1.4,1.9c2.3,3.1,3.2,5.8,0.9,8.5c-2.5,2.9-6.2,2.4-9.5-0.4
		C166.3,46.5,164.5,43.3,165,39.9z"/>
</g>
<g>
</g>
<g>
</g>
<g>
</g>
<g>
</g>
<g>
</g>
<g>
</g>
</svg>
