<?xml version="1.0" encoding="utf-8"?>
<!-- Generator: Adobe Illustrator 25.0.0, SVG Export Plug-In . SVG Version: 6.00 Build 0)  -->
<svg version="1.2" baseProfile="tiny" id="Calque_1"
	 xmlns="http://www.w3.org/2000/svg" xmlns:xlink="http://www.w3.org/1999/xlink" x="0px" y="0px" viewBox="0 0 175.2 41.6"
	 overflow="visible" xml:space="preserve">
<g>
	<path fill="#0039FF" d="M6.7,41.5L0,33.8l1.7-1.4l5.4,6.3l3.9-3.3l1.3,1.5L6.7,41.5z"/>
	<path fill="#0039FF" d="M12.4,36.6l-6.2-8.2l6-4.5l1.2,1.5l-4.3,3.2l1.3,1.7l3.6-2.7l1.2,1.5l-3.6,2.7l1.4,1.8l4.3-3.2l1.2,1.5
		L12.4,36.6z"/>
	<path fill="#0039FF" d="M17.5,30.3l0.3-2.2c1.3,0.7,2.8,0.4,3.9-0.3c0.7-0.5,1.1-1.1,0.7-1.7c-0.4-0.7-1.1-0.5-2.4,0L19,26.5
		c-1.5,0.6-3.1,0.8-4.2-0.8c-1.1-1.7-0.2-3.5,1.5-4.6c1.6-1,3.3-1.3,4.7-0.7l-0.3,2.2c-1.1-0.5-2.5-0.4-3.4,0.3
		c-0.7,0.4-0.9,1-0.6,1.5c0.4,0.6,1.1,0.5,2.1,0.1l1.1-0.4c1.8-0.7,3.4-0.7,4.4,0.8c1.1,1.6,0.3,3.4-1.6,4.6
		C21,30.6,19.1,31,17.5,30.3z"/>
	<path fill="#0039FF" d="M28.7,25.6L24,16.5l1.9-1l5.7,3.1l1.6,1l-1.2-2.1l-2.1-4l1.9-1l4.7,9.1l-1.8,1l-5.8-3.1l-1.5-0.9l1.3,2.2
		l2,3.9L28.7,25.6z"/>
	<path fill="#0039FF" d="M35.2,16.4c-1.1-2.7-0.1-5.7,2.8-6.8c2.8-1.2,5.6,0.2,6.8,2.9c1.1,2.7,0.1,5.7-2.8,6.8
		C39.1,20.5,36.3,19.2,35.2,16.4z M42.6,13.4c-0.7-1.7-2.1-2.6-3.8-1.8c-1.7,0.7-2.1,2.3-1.4,4c0.7,1.7,2.1,2.5,3.8,1.8
		C42.9,16.7,43.3,15.1,42.6,13.4z"/>
	<path fill="#0039FF" d="M46,12.8l-1.7-5.5l2.1-0.7l1.7,5.5c0.5,1.7,1.4,2.2,2.8,1.8c1.4-0.5,1.8-1.3,1.3-3l-1.7-5.5l2.1-0.7
		l1.7,5.5c1,3.1,0.1,4.9-2.7,5.7C48.8,16.8,46.9,15.8,46,12.8z"/>
	<path fill="#0039FF" d="M59.1,13.6l-5.8-9.2l2.5-0.6l3,5l1.5,3l0-3.4l0.5-5.8L63,2.2L61.8,13L59.1,13.6z"/>
	<path fill="#0039FF" d="M65.4,12.2L63.9,2.1L71.3,1l0.3,1.9l-5.3,0.8l0.3,2.1L71,5.1l0.3,1.9l-4.4,0.7l0.3,2.2l5.3-0.8l0.3,1.9
		L65.4,12.2z"/>
	<path fill="#0039FF" d="M72.6,11.1l3-10.5l2.8-0.2l4.6,9.9l-2.4,0.2l-1-2.2l-4.1,0.3l-0.6,2.3L72.6,11.1z M76.1,6.6l2.8-0.2l-1-2.1
		l-0.8-2.1l-0.4,2.2L76.1,6.6z"/>
	<path fill="#0039FF" d="M82.9,5.8l0-5.7l2.2,0l0,5.8c0,1.8,0.7,2.5,2.1,2.5c1.5,0,2.1-0.7,2.1-2.5l0-5.8l2.2,0l0,5.7
		c0,3.2-1.4,4.6-4.3,4.7C84.4,10.4,82.9,9,82.9,5.8z"/>
	<path fill="#0039FF" d="M91.6,10.2l3.9-5l-3-5.2l2.8,0.2l1.9,3.9l2.4-3.5l2.7,0.2l-3.7,4.9l3.1,5.3l-2.8-0.2l-2.1-4l-2.5,3.6
		L91.6,10.2z"/>
	<path fill="#0039FF" d="M104.5,11.4l1.8-10.1l2.2,0.4l-0.7,4l4.3,0.8l0.7-4l2.2,0.4l-1.8,10.1l-2.2-0.4l0.7-4.1l-4.3-0.8l-0.7,4.1
		L104.5,11.4z"/>
	<path fill="#0039FF" d="M113.1,12.9l6.3-8.9l2.7,0.7l1.1,10.9l-2.3-0.6l-0.2-2.4l-4-1.1l-1.4,2L113.1,12.9z M117.8,9.9l2.7,0.7
		l-0.2-2.3l0-2.3l-1.1,1.9L117.8,9.9z"/>
	<path fill="#0039FF" d="M123.2,15.6l3.4-9.7l4.7,1.7c2.1,0.7,2.6,2.1,2.1,3.5c-0.6,1.6-2.2,1.7-3.8,1.2c2.4,0.9,2.9,2.2,2.5,3.6
		c-0.6,1.8-2.2,2.1-4.3,1.3L123.2,15.6z M126.7,12.2l-0.8,2.3l2.3,0.8c1.1,0.4,1.7,0.2,2-0.6c0.3-0.8-0.2-1.3-1.2-1.7L126.7,12.2z
		 M128,8.5l-0.7,2.1l2.2,0.8c0.8,0.3,1.4,0.2,1.7-0.6c0.3-0.8-0.2-1.2-1-1.5L128,8.5z"/>
	<path fill="#0039FF" d="M132.1,18.8l3.9-9.5l2,0.8l-3.9,9.5L132.1,18.8z"/>
	<path fill="#0039FF" d="M137.1,20.9l3.5-7.5l-2.8-1.3l0.8-1.8l7.5,3.5l-0.8,1.8l-2.8-1.3l-3.5,7.5L137.1,20.9z"/>
	<path fill="#0039FF" d="M140.4,22.4l8.3-7.1l2.5,1.3l-1.5,10.8l-2.1-1.1l0.4-2.4l-3.6-2l-1.8,1.6L140.4,22.4z M145.7,20.6l2.5,1.3
		l0.4-2.3l0.5-2.2l-1.6,1.6L145.7,20.6z"/>
	<path fill="#0039FF" d="M149.6,27.4l5.6-8.6l1.8,1.2l0.1,6.5l-0.1,1.9l1.2-2.1l2.5-3.8l1.8,1.2l-5.6,8.6l-1.7-1.1l-0.2-6.6l0.1-1.8
		l-1.3,2.2l-2.4,3.7L149.6,27.4z"/>
	<path fill="#0039FF" d="M159.4,34.1l5-6.6l-2.4-1.9l1.2-1.5l6.6,5l-1.2,1.5l-2.4-1.9l-5,6.6L159.4,34.1z"/>
	<path fill="#0039FF" d="M164.7,35.6l2.2-0.3c-0.3,1.4,0.4,2.8,1.3,3.6c0.7,0.6,1.3,0.8,1.8,0.3c0.5-0.6,0.2-1.2-0.6-2.3l-0.6-0.8
		c-1-1.3-1.6-2.8-0.4-4.3c1.3-1.5,3.3-1.2,4.9,0.2c1.4,1.3,2.1,2.8,2,4.3l-2.2,0.3c0.2-1.2-0.3-2.5-1.2-3.2
		c-0.6-0.5-1.2-0.6-1.6-0.2c-0.5,0.6-0.2,1.2,0.5,2.1l0.7,1c1.1,1.6,1.6,3,0.4,4.4c-1.3,1.5-3.2,1.2-4.9-0.3
		C165.3,39.1,164.4,37.4,164.7,35.6z"/>
</g>
<g>
</g>
<g>
</g>
<g>
</g>
<g>
</g>
<g>
</g>
<g>
</g>
</svg>
