<svg id="Calque_9" data-name="Calque 9" xmlns="http://www.w3.org/2000/svg" viewBox="0 0 495.39 293.1"><defs><style>.cls-1{fill:#e0d3d5;}.cls-2{fill:#5154a1;}.cls-3{fill:#d07878;}.cls-14,.cls-4{fill:#7c373b;}.cls-13,.cls-5{fill:#542429;}.cls-6{fill:#ad4b4c;}.cls-7{fill:#f2f6e4;stroke:#542429;stroke-miterlimit:10;}.cls-8{fill:#165e46;}.cls-9{fill:#0b3022;}.cls-10{fill:#ddddd7;opacity:0.65;}.cls-10,.cls-11,.cls-13,.cls-14{isolation:isolate;}.cls-11,.cls-12{fill:#ec8989;}.cls-11,.cls-13,.cls-14{opacity:0.6;}.cls-15{fill:#fff;}</style></defs><path class="cls-1" d="M468,400.53l-.06-34.3c-1.21-4.66-6.27-4.31-11.88-2.24v38.54A47,47,0,0,1,468,400.53Z" transform="translate(-252.3 -353.45)"/><path class="cls-2" d="M456.1,402.54V364c-8.12,3-17.33,9.6-17.33,9.6v40.65C443.28,407.75,450.16,404.33,456.1,402.54Z" transform="translate(-252.3 -353.45)"/><path class="cls-3" d="M707.27,471.54H299.88V614.65H707.27Z" transform="translate(-252.3 -353.45)"/><path class="cls-4" d="M707.27,533.07H299.88v81.58H707.27Z" transform="translate(-252.3 -353.45)"/><path class="cls-4" d="M717.48,459.62H280.79v11.93H717.48Z" transform="translate(-252.3 -353.45)"/><path class="cls-5" d="M724.87,447.69H273.4v11.93H724.87Z" transform="translate(-252.3 -353.45)"/><path class="cls-6" d="M499.34,414.24l-97.92,57.3H597.26Z" transform="translate(-252.3 -353.45)"/><path class="cls-5" d="M714.72,614.64H285.28v7.26H714.72Z" transform="translate(-252.3 -353.45)"/><path class="cls-4" d="M728.23,621.9H271.77v10.15H728.23Z" transform="translate(-252.3 -353.45)"/><path class="cls-6" d="M747.7,632.05H252.3v14.5H747.7Z" transform="translate(-252.3 -353.45)"/><path class="cls-7" d="M499.34,459.61A15.86,15.86,0,0,0,515,440.7,15.88,15.88,0,1,0,488.14,455a15.91,15.91,0,0,0,11.2,4.66Z" transform="translate(-252.3 -353.45)"/><path class="cls-8" d="M499.21,445.53a2,2,0,0,0,1.09-.33,1.94,1.94,0,0,0,.72-.88,2,2,0,0,0,.12-1.13,2,2,0,0,0-1.54-1.54,1.9,1.9,0,0,0-1.13.11,2,2,0,0,0-1.21,1.81,1.92,1.92,0,0,0,.57,1.38A2,2,0,0,0,499.21,445.53Z" transform="translate(-252.3 -353.45)"/><path class="cls-9" d="M499.21,445a1.52,1.52,0,0,0,.82-.25,1.48,1.48,0,0,0,.54-.65,1.46,1.46,0,0,0,.08-.85,1.35,1.35,0,0,0-.4-.75,1.43,1.43,0,0,0-.75-.41,1.55,1.55,0,0,0-.85.09,1.46,1.46,0,0,0-.66.54,1.38,1.38,0,0,0-.24.81,1.3,1.3,0,0,0,.11.56,1.52,1.52,0,0,0,.31.48,1.75,1.75,0,0,0,.48.32A1.47,1.47,0,0,0,499.21,445Z" transform="translate(-252.3 -353.45)"/><path class="cls-8" d="M499.21,442.11a.53.53,0,0,1-.34-.15.52.52,0,0,1-.14-.33v-5.47a.48.48,0,0,1,.48-.48.47.47,0,0,1,.33.14.48.48,0,0,1,.14.34v5.47a.57.57,0,0,1,0,.18.42.42,0,0,1-.26.26A.39.39,0,0,1,499.21,442.11Z" transform="translate(-252.3 -353.45)"/><path class="cls-8" d="M500.67,443.57a.47.47,0,0,1,.14-.33.53.53,0,0,1,.33-.15h5.46a.47.47,0,0,1,.31.16.48.48,0,0,1,.13.32.46.46,0,0,1-.13.32.47.47,0,0,1-.31.16h-5.46a.47.47,0,0,1-.33-.14A.48.48,0,0,1,500.67,443.57Z" transform="translate(-252.3 -353.45)"/><path class="cls-9" d="M497.73,442.23l-4.2-5.27L498,442Z" transform="translate(-252.3 -353.45)"/><path class="cls-8" d="M499.34,428.78h-.4v3.33h.4Z" transform="translate(-252.3 -353.45)"/><path class="cls-8" d="M499.34,455h-.4v3.33h.4Z" transform="translate(-252.3 -353.45)"/><path class="cls-8" d="M487.83,443.9v-.4H484.5v.4Z" transform="translate(-252.3 -353.45)"/><path class="cls-8" d="M509.52,454.37l.28-.28-2.33-2.37-.29.28Z" transform="translate(-252.3 -353.45)"/><path class="cls-8" d="M491.09,435.7l.28-.28L489,433.05l-.28.28Z" transform="translate(-252.3 -353.45)"/><path class="cls-8" d="M510,433.36l-.29-.29-2.36,2.35.28.28Z" transform="translate(-252.3 -353.45)"/><path class="cls-8" d="M491.36,451.82l-.29-.29-2.36,2.35.28.28Z" transform="translate(-252.3 -353.45)"/><path class="cls-10" d="M515.08,443.88c0,.29,0,.12-.05.4a15.42,15.42,0,0,0-15.76-14.53,15.67,15.67,0,0,0-15.6,15c0-.28-.05-.7-.05-1A15.58,15.58,0,0,1,499.27,428a15.81,15.81,0,0,1,15.81,15.85Z" transform="translate(-252.3 -353.45)"/><path class="cls-4" d="M499.34,515.46c-23.18,0-42,16.26-42,36.32v62.86h83.93V551.78C541.31,531.72,522.52,515.46,499.34,515.46Z" transform="translate(-252.3 -353.45)"/><path class="cls-5" d="M499.34,523.36c-19.37,0-35.07,15-35.07,33.43v57.85h70.14V556.79C534.41,538.33,518.71,523.36,499.34,523.36Z" transform="translate(-252.3 -353.45)"/><path class="cls-5" d="M375.77,475.59h-45v44.95h45Z" transform="translate(-252.3 -353.45)"/><path class="cls-4" d="M370.72,480.63H335.8V515.5h34.92Z" transform="translate(-252.3 -353.45)"/><path class="cls-11" d="M330.76,475.59s16.79,44.95,45,44.95h-45Z" transform="translate(-252.3 -353.45)"/><path class="cls-6" d="M356.62,475.59h-6.71v44.95h6.71Z" transform="translate(-252.3 -353.45)"/><path class="cls-12" d="M376.48,501.41v-6.69H330v6.69Z" transform="translate(-252.3 -353.45)"/><path class="cls-5" d="M375.77,542.57h-45v44.95h45Z" transform="translate(-252.3 -353.45)"/><path class="cls-4" d="M370.72,547.62H335.8v34.87h34.92Z" transform="translate(-252.3 -353.45)"/><path class="cls-11" d="M330.76,542.57s16.79,44.95,45,44.95h-45Z" transform="translate(-252.3 -353.45)"/><path class="cls-6" d="M356.62,542.57h-6.71v44.95h6.71Z" transform="translate(-252.3 -353.45)"/><path class="cls-12" d="M375.77,568.4v-6.69h-45v6.69Z" transform="translate(-252.3 -353.45)"/><path class="cls-5" d="M578,475.59H533v44.95h45Z" transform="translate(-252.3 -353.45)"/><path class="cls-4" d="M572.91,480.63H538V515.5h34.91Z" transform="translate(-252.3 -353.45)"/><path class="cls-11" d="M533,475.59s16.81,44.95,45,44.95H533Z" transform="translate(-252.3 -353.45)"/><path class="cls-6" d="M558.81,475.59h-6.7v44.95h6.7Z" transform="translate(-252.3 -353.45)"/><path class="cls-12" d="M578,501.41v-6.69H533v6.69Z" transform="translate(-252.3 -353.45)"/><path class="cls-5" d="M467.06,475.59H422v44.95h45Z" transform="translate(-252.3 -353.45)"/><path class="cls-4" d="M462,480.63H427.09V515.5H462Z" transform="translate(-252.3 -353.45)"/><path class="cls-11" d="M422,475.59s16.81,44.95,45,44.95H422Z" transform="translate(-252.3 -353.45)"/><path class="cls-6" d="M447.9,475.59h-6.7v44.95h6.7Z" transform="translate(-252.3 -353.45)"/><path class="cls-12" d="M467.06,501.41v-6.69H422v6.69Z" transform="translate(-252.3 -353.45)"/><path class="cls-5" d="M499.34,353.45A1.54,1.54,0,0,0,497.8,355v52.58l1.54-.93,1.54.93V355a1.43,1.43,0,0,0-.12-.58,1.41,1.41,0,0,0-.33-.5,1.5,1.5,0,0,0-.5-.33A1.52,1.52,0,0,0,499.34,353.45Z" transform="translate(-252.3 -353.45)"/><path class="cls-5" d="M499.34,523.36v91.28h35.07V556.79a35.49,35.49,0,0,0-5.28-17.63C524.06,531.1,513.33,523.36,499.34,523.36Z" transform="translate(-252.3 -353.45)"/><path class="cls-4" d="M499.34,414.24l-97.92,57.3-14.31,9.95v-6.88l112.23-68Z" transform="translate(-252.3 -353.45)"/><path class="cls-4" d="M499.34,414.24l97.92,57.3,14.31,9.95v-6.88l-112.23-68Z" transform="translate(-252.3 -353.45)"/><path class="cls-13" d="M422,471.57h-28V614.68h28Z" transform="translate(-252.3 -353.45)"/><path class="cls-13" d="M478.26,471.57h-28V614.68h28Z" transform="translate(-252.3 -353.45)"/><path class="cls-13" d="M534.47,471.57h-28V614.68h28Z" transform="translate(-252.3 -353.45)"/><path class="cls-13" d="M590.69,471.57h-28V614.68h28Z" transform="translate(-252.3 -353.45)"/><path class="cls-6" d="M485.35,471.54h-28V614.65h28Z" transform="translate(-252.3 -353.45)"/><path class="cls-6" d="M541.31,471.54h-28V614.65h28Z" transform="translate(-252.3 -353.45)"/><path class="cls-6" d="M429.4,471.54h-28V614.65h28Z" transform="translate(-252.3 -353.45)"/><path class="cls-5" d="M401.42,471.53s8.7,143.11,28,143.11h-28Z" transform="translate(-252.3 -353.45)"/><path class="cls-5" d="M429.4,614.64s-8.71-143.11-28-143.11h28Z" transform="translate(-252.3 -353.45)"/><path class="cls-5" d="M485.35,614.64s-8.7-143.11-28-143.11h28Z" transform="translate(-252.3 -353.45)"/><path class="cls-5" d="M541.31,614.64s-8.71-143.11-28-143.11h28Z" transform="translate(-252.3 -353.45)"/><path class="cls-5" d="M457.38,471.55s8.7,143.11,28,143.11h-28Z" transform="translate(-252.3 -353.45)"/><path class="cls-5" d="M513.33,471.56s8.7,143.1,28,143.1h-28Z" transform="translate(-252.3 -353.45)"/><path class="cls-4" d="M252.3,632.05l495.39,14.5H252.3Z" transform="translate(-252.3 -353.45)"/><path class="cls-5" d="M271.77,621.9v10.15H728.23Z" transform="translate(-252.3 -353.45)"/><path class="cls-13" d="M707.27,471.22H299.88v15.39H707.27Z" transform="translate(-252.3 -353.45)"/><path class="cls-14" d="M499.34,471.54v-57.3l-97.92,57.3Z" transform="translate(-252.3 -353.45)"/><path class="cls-5" d="M499.34,414.24l-97.92,57.3,9.79.16,88-51,87.32,51,10.74-.16Z" transform="translate(-252.3 -353.45)"/><path class="cls-15" d="M468.45,366.81a4.85,4.85,0,0,0-3,1.61,4.78,4.78,0,0,0-1.19,3.17v36a51,51,0,0,0,13.61-2.12V364.61A48.55,48.55,0,0,1,468.45,366.81Z" transform="translate(-252.3 -353.45)"/><path class="cls-6" d="M493.53,394.11V353.45c-4.08,5.89-10.12,9.24-15.65,11.16v40.83C490.1,401.62,493.53,394.11,493.53,394.11Z" transform="translate(-252.3 -353.45)"/></svg>