<svg id="carte_éléctorale" data-name="carte éléctorale" xmlns="http://www.w3.org/2000/svg" xmlns:xlink="http://www.w3.org/1999/xlink" viewBox="0 0 156.59 221.96"><defs><style>.cls-1,.cls-7{fill:none;}.cls-2{clip-path:url(#clip-path);}.cls-3{fill:#338162;}.cls-4,.cls-6{fill:#46a882;}.cls-5,.cls-8{fill:#fff;}.cls-6,.cls-7{stroke:#46a882;}.cls-6,.cls-7,.cls-8{stroke-miterlimit:10;stroke-width:0.5px;}.cls-8{stroke:#fff;}</style><clipPath id="clip-path" transform="translate(-446.85 -382.79)"><rect class="cls-1" x="447.64" y="383.31" width="155" height="222" transform="translate(-3.54 3.79) rotate(-0.41)"/></clipPath></defs><g class="cls-2"><path class="cls-3" d="M601.88,388.06l1.56,216.69-153.89-3.11L447,389.18Z" transform="translate(-446.85 -382.79)"/><path class="cls-4" d="M597.1,382.79l-150.25,1.08,1.56,217.78,150.26-1.08Z" transform="translate(-446.85 -382.79)"/><path class="cls-5" d="M479.13,431.44v-.28l84.79-.61v.28Z" transform="translate(-446.85 -382.79)"/><path class="cls-5" d="M479.3,440.11a.18.18,0,0,1,.11-.29c.4-.11.46-.4.46-.74,0-1.08,0-2.23,0-3.31v-.57c0-.34-.06-.34-.35-.45s-.17-.06-.17-.34h2.74a1.35,1.35,0,0,1,.92.27,1.4,1.4,0,0,1,.07,2.23,2.71,2.71,0,0,1-.68.4c.4.57.75,1.2,1.15,1.76a6.06,6.06,0,0,0,.64.68,1.66,1.66,0,0,1,.11.34h-1a.86.86,0,0,1-.57-.34c-.29-.34-.52-.68-.81-1.07s-.4-.63-.58-.91a.4.4,0,0,0-.57-.23,13.17,13.17,0,0,0,0,1.54.89.89,0,0,0,.52.68c.11.06.11.06.12.29-.4,0-.75.06-1.15.06Zm1.58-3.15c.74.05,1.2-.06,1.42-.46a1.13,1.13,0,0,0-.12-1.26c-.34-.45-.8-.34-1.32-.33C480.87,435.59,480.87,436.28,480.88,437Z" transform="translate(-446.85 -382.79)"/><path class="cls-5" d="M516.1,440.47c.06.29,0,.35-.23.46a2.53,2.53,0,0,1-1.14.12,5.3,5.3,0,0,1-2.4-.95.69.69,0,0,0-.46-.17,4.48,4.48,0,0,1-1-.05,1.88,1.88,0,0,1-1.56-1.41,3.26,3.26,0,0,1,.16-2.06,2.37,2.37,0,0,1,1.93-1.32,2.67,2.67,0,0,1,1.32.22,2.33,2.33,0,0,1,1.33,2.55,2.47,2.47,0,0,1-1,1.67s0,.05-.11.05l-.06.06a8.06,8.06,0,0,0,2,1,1.22,1.22,0,0,0,.8-.06A1.43,1.43,0,0,0,516.1,440.47Zm-2.82-2.77h0a.7.7,0,0,1-.06-.34,2.06,2.06,0,0,0-.52-1.25,1.48,1.48,0,0,0-1.43-.45,1.25,1.25,0,0,0-1,1.09,2.53,2.53,0,0,0,.41,2.11,1.47,1.47,0,0,0,1.38.62,1.42,1.42,0,0,0,1.13-1C513.23,438.21,513.22,437.93,513.28,437.7Z" transform="translate(-446.85 -382.79)"/><path class="cls-5" d="M501,437.39l.35.17a1.13,1.13,0,0,1,.24,1.93,2.27,2.27,0,0,1-1.88.47c-.23,0-.4-.11-.63-.11a6.35,6.35,0,0,0-.86.12.21.21,0,0,0-.06-.17c.52-.17.57-.29.57-.8,0-.8,0-1.54,0-2.34v-.4c-.06-.51-.12-.62-.58-.85.12,0,.17-.06.23-.06h2.34a1.45,1.45,0,0,1,.69.16.93.93,0,0,1,.18,1.54C501.39,437.1,501.22,437.27,501,437.39Zm-1.37.18c0,.11,0,.23,0,.34,0,.4,0,.86,0,1.26a.3.3,0,0,0,.17.28.8.8,0,0,0,1.19-.69v-.35a.92.92,0,0,0-.92-.84Zm0-.46a2.69,2.69,0,0,0,.69-.06.68.68,0,0,0,.56-.69.71.71,0,0,0-.63-.79,2.21,2.21,0,0,0-.63,0C499.61,436.09,499.62,436.6,499.62,437.11Z" transform="translate(-446.85 -382.79)"/><path class="cls-5" d="M530.89,439.74c-.06-.11-.06-.23.06-.29.28-.11.34-.34.34-.63,0-1,0-2,0-3a.51.51,0,0,0-.34-.57c-.06,0-.06-.05-.12-.11a2.35,2.35,0,0,0,.29-.06l2.22,0a.89.89,0,0,1,.86.51,1.34,1.34,0,0,1-.44,1.72c-.11.05-.23.17-.34.23.23.34.46.74.69,1.08a2.74,2.74,0,0,0,.87,1s0,.17.11.28h-.91a.48.48,0,0,1-.29-.11,2.43,2.43,0,0,1-.75-.91,5,5,0,0,0-.57-.91c-.12-.17-.12-.11-.41-.11,0,.4,0,.8,0,1.14a.59.59,0,0,0,.58.63v.22C532.09,439.73,531.52,439.73,530.89,439.74Zm1.24-2.58h.34c.46-.06.86-.4.85-.75a1,1,0,0,0-.63-1,.66.66,0,0,0-.46,0,.28.28,0,0,0-.23.29A6,6,0,0,1,532.13,437.16Z" transform="translate(-446.85 -382.79)"/><path class="cls-5" d="M529.55,436c0,.52,0,1.09,0,1.66h-.28c-.06-.11-.06-.17-.12-.28a.37.37,0,0,0-.29-.23,8.25,8.25,0,0,0-1.14-.05c0,.23,0,.51,0,.74v.86c0,.4.12.74.58.79v.29a3.77,3.77,0,0,0-2.23,0,.4.4,0,0,0-.06-.28.92.92,0,0,0,.68-1c0-1,0-2.11,0-3.14a1.82,1.82,0,0,0-.24-1c-.11,0-.28-.05-.45-.05a2.81,2.81,0,0,1,0-.29l4,0v1.25h-.28a1,1,0,0,0-.46-.68,1.88,1.88,0,0,0-1.09-.11,2.18,2.18,0,0,0-.45.12c0,.57,0,1.2,0,1.77h1a.48.48,0,0,0,.45-.34C529.26,435.93,529.38,435.87,529.55,436Z" transform="translate(-446.85 -382.79)"/><path class="cls-5" d="M541,436.3c0,.4,0,.86,0,1.26s0,.68,0,1a.91.91,0,0,0,.06.4c.11.34.11.34.46.4v.11c0,.06,0,.06-.06.12a2.61,2.61,0,0,0-1.49,0c-.05-.17-.05-.23.12-.29a.62.62,0,0,0,.39-.52v-.22c0-.92,0-1.77,0-2.68v-.18a.54.54,0,0,0-.4-.56c-.06,0-.12-.06-.17-.12l.05-.05h1.2c.81,1,1.67,2,2.54,3.06a1.43,1.43,0,0,1,.05-.29c0-.62,0-1.25,0-1.88,0-.4-.12-.68-.52-.79l-.06-.06a4.73,4.73,0,0,1,1.54-.07.05.05,0,0,1,0,.06.74.74,0,0,0-.51.69v.34c0,1,0,2.05,0,3.14,0,.11,0,.28,0,.4a.48.48,0,0,1-.63-.23c-.29-.39-.64-.85-.93-1.19C542.07,437.55,541.5,436.93,541,436.3Z" transform="translate(-446.85 -382.79)"/><path class="cls-5" d="M518.08,413.71c-.12.17-.4.23-.46.51.29.12.4-.17.63-.17l-.17.17a11.32,11.32,0,0,0-1.87,1.78.73.73,0,0,1-.63.29l-4.91,0a7.72,7.72,0,0,1,1.14-.24h.86a1.35,1.35,0,0,0,.85-.23c.17-.12.29-.23.52-.17a.48.48,0,0,0,.28-.12,14.69,14.69,0,0,0,1.25-.81l.4-.23a.33.33,0,0,1,.23-.06c.17.06.28-.06.4-.12s.51-.34.74-.51A1.71,1.71,0,0,1,518.08,413.71Z" transform="translate(-446.85 -382.79)"/><path class="cls-5" d="M549.31,435.1c0,.34,0,.63,0,1-.17.06-.29.06-.34-.11a1,1,0,0,0-1.09-.73,1.31,1.31,0,0,0-1.26.69,2.53,2.53,0,0,0,.42,2.79,1.46,1.46,0,0,0,1,.45,1.13,1.13,0,0,0,1.09-.64c.05-.11.11-.28.34-.17l-.17.8a1.21,1.21,0,0,1-.22.29,2.39,2.39,0,0,1-.86.17c-.23,0-.23,0-.29.18.18.11.35.17.41.28a1.08,1.08,0,0,1,.06.4.66.66,0,0,1-.74.52,1.08,1.08,0,0,1-.4-.17c-.06,0,0-.11-.06-.23.23,0,.45-.06.68-.06-.06-.34-.06-.34-.51-.4.05-.17.05-.34.11-.51a2.35,2.35,0,0,1-1.49-.79,2.44,2.44,0,0,1-.48-2.62,2.33,2.33,0,0,1,2.1-1.44A3.53,3.53,0,0,1,549.31,435.1Z" transform="translate(-446.85 -382.79)"/><path class="cls-5" d="M521.38,435.59v1.54a2.3,2.3,0,0,0,.86-.07c.11-.05.28-.11.34-.23s.17-.17.34-.11c0,.4,0,.8,0,1.25h-.29a.51.51,0,0,0-.57-.45h-.69c0,.51,0,1,0,1.48a.21.21,0,0,0,.23.23h.92a.86.86,0,0,0,.68-.63c.23,0,.34.11.28.28s-.11.46-.16.69a.38.38,0,0,1-.4.28,11.77,11.77,0,0,1-1.49-.1,4,4,0,0,0-1.42.07.51.51,0,0,0-.06-.29.21.21,0,0,0,.17-.06c.28-.05.4-.17.39-.45,0-1,0-2.06,0-3a.73.73,0,0,0-.57-.79,14,14,0,0,1,3.25-.08,1.81,1.81,0,0,1-.05,1.14c0-.06-.11-.11-.11-.17a.68.68,0,0,0-.69-.51Z" transform="translate(-446.85 -382.79)"/><path class="cls-5" d="M563.78,436.31a13.45,13.45,0,0,1,0,1.42c-.12-.11-.18-.11-.18-.16a.62.62,0,0,0-.51-.34h-.8v.52c0,.28,0,.51,0,.79s.11.35.4.4h.57c.51,0,.63-.12,1-.7.11.06.17.06.28.12-.17.4-.28.74-.45,1.14a6.64,6.64,0,0,1-1.54-.05,2.88,2.88,0,0,0-1.54.07c-.06-.11-.12-.22,0-.28s.29-.23.29-.46l0-3.25a.53.53,0,0,0-.17-.4c-.06-.06-.17-.11-.23-.17a18.76,18.76,0,0,1,3.26-.08V436c-.11.06-.28.06-.28-.11-.06-.4-.35-.51-.69-.56h-1c0,.52,0,1,0,1.54h.8A1.39,1.39,0,0,0,563.78,436.31Z" transform="translate(-446.85 -382.79)"/><path class="cls-5" d="M484.64,435.45a20.27,20.27,0,0,1,3.26-.08v1.14h-.22c0-.05,0-.17-.06-.22-.06-.23-.18-.4-.41-.4s-.68-.05-1.08-.11v1.54a1.22,1.22,0,0,0,1.37-.52c0,.51.06.91.06,1.37-.11.06-.23.06-.23-.11a.31.31,0,0,0-.34-.23c-.29,0-.57-.05-.92-.05a9.79,9.79,0,0,0,.07,1.71h1a.79.79,0,0,0,.74-.69c.11.06.17.06.29.12-.12.34-.17.62-.28,1,0,.17-.11.23-.29.17a11.86,11.86,0,0,1-1.48-.05,4.06,4.06,0,0,0-1.43.07v-.23c.51-.11.45-.51.51-.86a3.66,3.66,0,0,0,0-.74c0-.45,0-1,0-1.42v-.35C485.16,436.08,485.15,435.62,484.64,435.45Z" transform="translate(-446.85 -382.79)"/><path class="cls-5" d="M554.32,439.63a2.38,2.38,0,0,0-1.78,0c-.11-.11-.11-.23,0-.28.29-.23.17-.52.17-.8,0-.06-.06-.12-.06-.23a.37.37,0,0,0-.4-.28h-1a1.75,1.75,0,0,0-.28.86c0,.17-.05.34.17.4.06,0,.06.17.12.28a1.82,1.82,0,0,0-1.43,0v-.28c.11,0,.17-.06.23-.06a25.68,25.68,0,0,0,1.68-4.35c.46-.06.46-.06.63.34a30.56,30.56,0,0,1,1.28,3.07l.18.51a.7.7,0,0,0,.34.46C554.31,439.34,554.37,439.4,554.32,439.63Zm-2.43-3.46h-.11c-.17.4-.28.85-.45,1.26h1C552.18,437,552,436.62,551.89,436.17Z" transform="translate(-446.85 -382.79)"/><path class="cls-5" d="M496.07,435.31h1.42a.22.22,0,0,1-.05.12.66.66,0,0,0-.34.8c0,.68-.05,1.37,0,2a1.68,1.68,0,0,1-1.58,1.72,5,5,0,0,1-1-.05,1.21,1.21,0,0,1-1-1.13,12.57,12.57,0,0,1-.07-1.37v-1.31a.62.62,0,0,0-.46-.68.06.06,0,0,1-.06-.06v-.06a6.12,6.12,0,0,1,1.83-.07c-.11.12-.17.23-.28.35a.43.43,0,0,0-.11.4c0,.74,0,1.54,0,2.28a.93.93,0,0,0,.06.4.88.88,0,0,0,.92.79,1.24,1.24,0,0,0,1-.46.69.69,0,0,0,.17-.46c0-.91,0-1.82,0-2.74a.52.52,0,0,0-.18-.4c-.05-.05-.17-.11-.23-.16C496.07,435.37,496.07,435.37,496.07,435.31Z" transform="translate(-446.85 -382.79)"/><path class="cls-5" d="M517.77,435.16h1.49l-.23.23a.9.9,0,0,0-.22.68c0,.69,0,1.37,0,2.05a1.63,1.63,0,0,1-1.64,1.73h-.57a1.45,1.45,0,0,1-1.32-1.19,7.92,7.92,0,0,1-.07-1.19c0-.52,0-1,0-1.49a.68.68,0,0,0-.46-.73c-.06,0-.06-.06-.12-.06a7.38,7.38,0,0,1,2-.07c-.11.11-.28.23-.4.34a.54.54,0,0,0-.16.4c0,.8,0,1.54,0,2.34a.66.66,0,0,0,.06.34.85.85,0,0,0,.92.8,1.11,1.11,0,0,0,.8-.3.87.87,0,0,0,.34-.63c0-.91,0-1.82,0-2.73a.5.5,0,0,0-.18-.4c0-.06-.17-.11-.23-.17C517.78,435.21,517.78,435.21,517.77,435.16Z" transform="translate(-446.85 -382.79)"/><path class="cls-5" d="M537.69,439.75v-.29s.17-.06.23-.11a.21.21,0,0,0,.11-.29c-.12-.28-.18-.57-.29-.85h-1.43c-.06.23-.11.45-.17.68s-.17.46.12.63c.06,0,.06.17.06.34-.46-.11-.86-.28-1.31.07,0-.17,0-.34,0-.34.29-.12.28-.41.4-.64.45-1.14.89-2.28,1.29-3.37a.87.87,0,0,1,.22-.4h.46l1.4,3.52a2.22,2.22,0,0,0,.57.91c.06.06.06.17.06.34A1.66,1.66,0,0,0,537.69,439.75Zm-.54-3.54c-.17.46-.34.92-.5,1.32h1C537.5,437.13,537.33,436.73,537.15,436.21Z" transform="translate(-446.85 -382.79)"/><path class="cls-5" d="M488.92,435.42a8.3,8.3,0,0,1,2.63,0,1.15,1.15,0,0,1,.92,1.19,1.09,1.09,0,0,1-.56,1,2.13,2.13,0,0,1-1.25.29c0-.06-.06-.11-.06-.17s-.06-.11-.06-.17a4,4,0,0,0,.4-.12.74.74,0,0,0,.51-.91,1.05,1.05,0,0,0-.75-.85c-.23,0-.35.06-.34.34s0,.8,0,1.2c0,.68,0,1.31,0,2,0,.35.06.57.46.69a.56.56,0,0,1,0,.28,2.4,2.4,0,0,0-1.77,0c-.06-.17-.06-.28.11-.34s.22-.17.28-.34a3,3,0,0,0,.11-1c0-.63,0-1.26,0-1.89a1.49,1.49,0,0,0-.06-.51A.79.79,0,0,0,488.92,435.42Z" transform="translate(-446.85 -382.79)"/><path class="cls-5" d="M559.94,435c0,.34,0,.68,0,1h-.23c0-.06-.06-.17-.06-.23a.78.78,0,0,0-1-.57.65.65,0,0,0-.34,1l.35.34c.4.34.8.63,1.2.91a1,1,0,0,1,.35,1.19,1.06,1.06,0,0,1-.51.63,2.54,2.54,0,0,1-1.94.19.49.49,0,0,1-.4-.45,2.78,2.78,0,0,0-.12-.69c.23-.11.29,0,.4.17a.89.89,0,0,0,1.26.56.63.63,0,0,0,.28-1.08,2.89,2.89,0,0,0-.46-.34c-.23-.17-.52-.28-.8-.51a1.32,1.32,0,0,1-.47-1.54,1.45,1.45,0,0,1,1.25-.92A3,3,0,0,1,559.94,435Z" transform="translate(-446.85 -382.79)"/><path class="cls-5" d="M510.78,423.34c-.06.4-.11.69-.17,1h-.05a2,2,0,0,1-.06-.23.48.48,0,0,0-.41-.39,2.07,2.07,0,0,0-1,0,.41.41,0,0,0-.34.35c-.06.4-.11.85-.22,1.31h1c.12,0,.23-.11.35-.23a.8.8,0,0,0,.17-.23.05.05,0,0,1,.05.06c-.11.4-.16.86-.27,1.26a.21.21,0,0,1-.12-.06c-.12-.45-.17-.51-.63-.51a1.78,1.78,0,0,0-.51.06c-.06,0-.17.12-.23.18a2.38,2.38,0,0,0-.22,1.42.33.33,0,0,0,.35.29h.68a1,1,0,0,0,.74-.52.87.87,0,0,0,.17-.34c.06.11.11.17.11.23a2.63,2.63,0,0,1-.22.63.5.5,0,0,1-.45.28l-2.69,0s-.06,0-.06-.05.06-.06.12-.06a1,1,0,0,0,.51-.63c.22-.86.38-1.77.55-2.63,0-.11.05-.23.05-.34,0-.52,0-.52-.46-.74.17-.17.4-.06.57-.06H510A3.8,3.8,0,0,1,510.78,423.34Z" transform="translate(-446.85 -382.79)"/><path class="cls-5" d="M504.69,435.31a0,0,0,0,1-.05.05c-.52.18-.52.24-.51.75,0,1,0,1.94,0,2.91v.34a4.4,4.4,0,0,0,1.2-.06c.34-.06.51-.35.68-.64.06.12.12.17.12.23a1.41,1.41,0,0,1-.28.92c-.06.11-.17.11-.34.11a15.44,15.44,0,0,1-1.61-.1,3,3,0,0,0-1.19.06c-.06-.17-.06-.22.11-.28a.45.45,0,0,0,.39-.52c0-1,0-2,0-3a.7.7,0,0,0-.57-.8A8.25,8.25,0,0,1,504.69,435.31Z" transform="translate(-446.85 -382.79)"/><path class="cls-5" d="M511.49,427.79a1.14,1.14,0,0,0-.34-.23c.05-.29.4-.4.51-.63a1,1,0,0,1,.62-1.66,8.29,8.29,0,0,1,1.65-.07c0,.17,0,.29,0,.4-.18,0-.29.06-.46.06v.06a1.12,1.12,0,0,1-1.13,1.38c-.23,0-.46-.06-.63.17a1.26,1.26,0,0,0,.57.28l.69.17a.71.71,0,0,1,.46,1.08,1.4,1.4,0,0,1-1,.8,2.78,2.78,0,0,1-1,.07c-.4-.11-.69-.28-.75-.68a.92.92,0,0,1,.45-1A2.66,2.66,0,0,0,511.49,427.79Zm.53,1.7a1.14,1.14,0,0,0,1-.52.44.44,0,0,0-.18-.68l-.63-.28c-.35-.17-.63.06-.86.29a.7.7,0,0,0-.1.8A.71.71,0,0,0,512,429.49Zm1.12-3.43a.46.46,0,0,0-.41-.51.47.47,0,0,0-.56.29.82.82,0,0,0-.12.34.41.41,0,0,0,.18.52.54.54,0,0,0,.57-.06A.58.58,0,0,0,513.14,426.06Z" transform="translate(-446.85 -382.79)"/><path class="cls-5" d="M538.44,424.74a5.33,5.33,0,0,1-.33,1.26c-.06-.52-.46-.51-.81-.57a.55.55,0,0,0-.68.46l-.16,1.2a.43.43,0,0,0,.29.46s.11.05.17.05a4.34,4.34,0,0,1-1.72,0c.46-.29.46-.29.68-.92.06-.23.11-.52.17-.74s.17-.69.22-1,.11-.8.16-1.26a.51.51,0,0,0-.23-.45c-.06,0-.11-.06-.17-.12a12.27,12.27,0,0,1,3-.07,3.29,3.29,0,0,1-.17,1l-.11-.11a.68.68,0,0,0-.58-.57c-.28-.05-.62-.05-.91-.1A7.83,7.83,0,0,0,537,425h.91a.57.57,0,0,0,.4-.23c.06-.06.05-.11.11-.17C538.38,424.74,538.38,424.74,538.44,424.74Z" transform="translate(-446.85 -382.79)"/><path class="cls-5" d="M485.58,423.92a2.49,2.49,0,0,1-.4-.11c.06-.23.29-.17.46-.23s.34,0,.51-.06a7.09,7.09,0,0,1-.1,1.08,7.26,7.26,0,0,1-.22,1,3.18,3.18,0,0,1,.74-.17c.74-.18,1,.05.92.79a2.47,2.47,0,0,1-1,1.77,1.57,1.57,0,0,1-1.43.18c-.11-.05-.22-.11-.17-.28a2.2,2.2,0,0,1,.05-.57c.28-1,.45-2,.67-3C485.47,424.21,485.53,424.09,485.58,423.92Zm1.34,2.27c-.06-.17-.12-.34-.24-.39s-.34,0-.45.06a1,1,0,0,0-.62.86c0,.17-.12.28-.12.45s-.05.35-.11.52.06.34.29.34a.83.83,0,0,0,.8-.41A4.35,4.35,0,0,0,486.92,426.19Z" transform="translate(-446.85 -382.79)"/><path class="cls-5" d="M556.6,439.33v.22a2.57,2.57,0,0,0-1.83,0c-.06-.17-.11-.29.06-.34s.28-.24.28-.46c0-1.09,0-2.23,0-3.31a.44.44,0,0,0-.24-.4c-.05-.06-.17-.11-.23-.17a7.29,7.29,0,0,1,1.89-.07v.06a1,1,0,0,0-.56,1c0,.74,0,1.48,0,2.23v.34C556.08,439,556.2,439.16,556.6,439.33Z" transform="translate(-446.85 -382.79)"/><path class="cls-5" d="M508.58,435.28c-.57.4-.57.4-.57,1.14s0,1.43,0,2.17a1.49,1.49,0,0,0,.06.51c.06.29.18.52.52.57V440a2.68,2.68,0,0,0-1.77,0c-.06-.17-.12-.29.05-.34s.29-.23.29-.46c0-1.09,0-2.23,0-3.31a.44.44,0,0,0-.23-.4,1,1,0,0,0-.23-.17A6.84,6.84,0,0,1,508.58,435.28Z" transform="translate(-446.85 -382.79)"/><path class="cls-5" d="M482,427.2c-.11.29-.23.51-.34.74a.3.3,0,0,1-.28.18l-2.69,0v-.06a.06.06,0,0,1,.06-.06.77.77,0,0,0,.56-.74,15.22,15.22,0,0,0,.44-2.8v-.17c0-.23,0-.52-.29-.57a4.4,4.4,0,0,1,1.77,0c-.51.17-.62.57-.73,1a21.06,21.06,0,0,0-.56,2.57c-.05.45.06.63.52.62a1.28,1.28,0,0,0,1.14-.52C481.72,427.2,481.84,427.09,482,427.2Z" transform="translate(-446.85 -382.79)"/><path class="cls-5" d="M516.24,427.64c-.18.06-.35.17-.57.23a3.26,3.26,0,0,1-.75.12.45.45,0,0,1-.46-.4,2.09,2.09,0,0,1,2.62-2.35s.11.05.22.11a6,6,0,0,0-.38,2.23,2.87,2.87,0,0,1,.4-.06v.17a3.07,3.07,0,0,1-.57.29C516.47,428.09,516.41,428,516.24,427.64Zm-.19-2.17c-.06.06-.23.06-.34.18a2.4,2.4,0,0,0-.68,1.48c0,.17,0,.4.18.52s.34,0,.51-.12c.34-.18.63-.41.57-.86a.79.79,0,0,1,.11-.35,1.87,1.87,0,0,0,.11-.51C516.56,425.58,516.45,425.47,516.05,425.47Z" transform="translate(-446.85 -382.79)"/><path class="cls-5" d="M544.56,425.15a11.86,11.86,0,0,0-.45,2,.41.41,0,0,0,.06.23,2.43,2.43,0,0,0,.57-.12c0,.12,0,.23-.11.29a2.17,2.17,0,0,1-.91.23c0-.11-.06-.22-.06-.34h-.12a3.55,3.55,0,0,1-.74.29,1.49,1.49,0,0,1-.51.06.57.57,0,0,1-.58-.73,2,2,0,0,1,.17-.52,10.44,10.44,0,0,1,.56-1A1.75,1.75,0,0,1,544.56,425.15Zm-.57.29c-.46-.22-.8-.16-1,.12s-.45.86-.68,1.32a1.08,1.08,0,0,0-.05.46c.05.17.17.28.34.22a1.24,1.24,0,0,0,.91-.69C543.71,426.36,543.88,425.9,544,425.44Z" transform="translate(-446.85 -382.79)"/><path class="cls-5" d="M555.83,427.3a1.48,1.48,0,0,1,.51.05c0,.06.06.06,0,.06a1.13,1.13,0,0,1-.91.35c-.17,0-.29-.17-.23-.4,0-.4.16-.74.22-1.14a5.56,5.56,0,0,0,.16-1c-.05,0-.17-.05-.17,0l-.74.34a1.16,1.16,0,0,0-.34.69c-.11.46-.16.86-.27,1.31h-.57c.1-.74.21-1.49.32-2.17,0-.06,0-.12,0-.17a.72.72,0,0,0-.35.06v-.23l1-.18a3.34,3.34,0,0,0,.12.4,3.05,3.05,0,0,1,1.6-.35,2.93,2.93,0,0,1-.11,1.19A4.41,4.41,0,0,1,555.83,427.3Z" transform="translate(-446.85 -382.79)"/><path class="cls-5" d="M526.4,427.39a2.21,2.21,0,0,1-1.31.58.56.56,0,0,1-.63-.62,2.14,2.14,0,0,1,1-2.06,1.19,1.19,0,0,1,1-.18.54.54,0,0,1,.41.74.84.84,0,0,1-.51.57,2.62,2.62,0,0,1-1,.3c-.29,0-.28.06-.34.34s.06.46.35.51a1.34,1.34,0,0,0,.79-.17C526.17,427.28,526.17,427.28,526.4,427.39Zm-1.26-.9a1,1,0,0,0,1-.58.33.33,0,0,0-.06-.4c-.17-.11-.28-.05-.45.06A1.22,1.22,0,0,0,525.14,426.49Z" transform="translate(-446.85 -382.79)"/><path class="cls-5" d="M563.42,427.13a1.78,1.78,0,0,1-1.36.58.63.63,0,0,1-.64-.51,2.13,2.13,0,0,1,1.47-2.29,1.2,1.2,0,0,1,.46,0,.53.53,0,0,1,.41.8.84.84,0,0,1-.46.52,2.75,2.75,0,0,1-1,.29c-.28,0-.34.11-.34.4s.12.4.35.45a1.52,1.52,0,0,0,.68-.17C563.25,427,563.37,427,563.42,427.13Zm-1.2-.85a.82.82,0,0,0,.4-.06,1,1,0,0,0,.68-.63c.06-.12.05-.29-.06-.34a.33.33,0,0,0-.4,0,.51.51,0,0,0-.23.23A1.16,1.16,0,0,0,562.22,426.28Z" transform="translate(-446.85 -382.79)"/><path class="cls-5" d="M519.69,423.34c-.33,1.42-.61,2.79-.94,4.22a1.85,1.85,0,0,0,.57-.06c.06.12.06.23-.11.29a1.59,1.59,0,0,1-.57.17c-.35.06-.52-.11-.46-.45a7.85,7.85,0,0,1,.27-1.14c.11-.69.28-1.32.39-2l.17-.63v-.17c-.12,0-.23-.06-.4-.06.11-.28.34-.23.51-.23S519.46,423.34,519.69,423.34Z" transform="translate(-446.85 -382.79)"/><path class="cls-5" d="M488.75,427v.23c-.05.57.29.62.69.56a2.94,2.94,0,0,0,.57-.23,1.25,1.25,0,0,1-.11.23,1.43,1.43,0,0,1-1.14.46.58.58,0,0,1-.63-.56,2.09,2.09,0,0,1,.73-1.89,1.51,1.51,0,0,1,1-.35c.4,0,.52.17.52.51a1,1,0,0,1-.62.92,1.58,1.58,0,0,1-.51.12Zm.11-.17a.81.81,0,0,0,.4-.06.94.94,0,0,0,.74-.63.29.29,0,0,0-.4-.4,1,1,0,0,0-.4.29A2.47,2.47,0,0,0,488.86,426.81Z" transform="translate(-446.85 -382.79)"/><path class="cls-5" d="M549.48,427.11h0a1.25,1.25,0,0,1-1.36.64.67.67,0,0,1-.46-.57,2.38,2.38,0,0,1,.61-1.83,1.3,1.3,0,0,1,1.26-.4c.28.05.34.16.34.45a.81.81,0,0,1-.51.86,4.47,4.47,0,0,1-.85.23h-.29v.22c0,.57.18.69.75.57C549.2,427.29,549.31,427.17,549.48,427.11Zm-1.2-.73a1.37,1.37,0,0,0,.74-.18,1.58,1.58,0,0,0,.4-.45c.11-.23,0-.4-.24-.46s-.28,0-.34.12A2.34,2.34,0,0,0,548.28,426.38Z" transform="translate(-446.85 -382.79)"/><path class="cls-5" d="M498,427.54a2.07,2.07,0,0,1-1.31.64.53.53,0,0,1-.58-.45,2.35,2.35,0,0,1,.79-2.12,1.21,1.21,0,0,1,1-.29c.46.11.63.45.4.85a.82.82,0,0,1-.62.52,5.31,5.31,0,0,1-1,.23v.17c-.05.52.06.69.75.51.11,0,.17-.11.28-.17S497.89,427.54,498,427.54Zm-1.32-.79a1.38,1.38,0,0,0,1.14-.52.3.3,0,0,0,0-.46.57.57,0,0,0-.52-.11.51.51,0,0,0-.23.23A2.38,2.38,0,0,0,496.69,426.75Z" transform="translate(-446.85 -382.79)"/><path class="cls-5" d="M560.6,424.18c-.05.23-.05.4-.11.63a1.8,1.8,0,0,1,.52.05,1,1,0,0,0,.06.4c-.17,0-.34.06-.57.06-.17.63-.28,1.26-.45,1.95.23,0,.4.05.58.05a1.08,1.08,0,0,1-1.14.35,8,8,0,0,1,.38-2.34c-.12,0-.23-.06-.34-.06v-.11c.05-.06.05-.17.11-.17.34-.06.45-.35.56-.63S560.37,424.07,560.6,424.18Z" transform="translate(-446.85 -382.79)"/><path class="cls-5" d="M523.53,424.45c-.06.23-.06.4-.11.63.17,0,.34.05.51.05v.4a1.49,1.49,0,0,0-.51.06c-.17.63-.28,1.26-.44,1.94.22,0,.4.06.57.06a1.39,1.39,0,0,1-1.08.4,8.2,8.2,0,0,1,.32-2.34c-.11,0-.23,0-.4,0,.06-.12.11-.23.23-.23a.9.9,0,0,0,.56-.63C523.18,424.45,523.3,424.34,523.53,424.45Z" transform="translate(-446.85 -382.79)"/><path class="cls-5" d="M546.17,427.37c.17,0,.35.05.57.05a1.34,1.34,0,0,0-.11.17l-.57.23c-.34.12-.57-.16-.46-.51a9.74,9.74,0,0,0,.39-1.83c-.12-.11-.4-.05-.23-.34a.91.91,0,0,0,.67-.86h.4c-.05.23-.05.46-.1.69a1.27,1.27,0,0,1,.51,0c-.06.11-.06.29-.11.4a2,2,0,0,0-.57.06C546.45,426.05,546.28,426.68,546.17,427.37Z" transform="translate(-446.85 -382.79)"/><path class="cls-5" d="M494.4,425.8c-.12-.06-.35-.06-.23-.29.39-.17.39-.17.68-.86h.4c-.06.23-.17.46-.23.69a1.56,1.56,0,0,1,.52.05v.4a1.49,1.49,0,0,0-.51.06c-.17.63-.28,1.26-.45,1.94a2.35,2.35,0,0,1,.29.06.66.66,0,0,1,.28,0,1.21,1.21,0,0,0-.11.18c-.17.05-.4.17-.57.23-.34.06-.57-.17-.46-.51A14.64,14.64,0,0,0,494.4,425.8Z" transform="translate(-446.85 -382.79)"/><path class="cls-5" d="M491.16,428.05a10.14,10.14,0,0,0,.5-2.17c0-.06-.06-.12-.06-.18-.18-.05-.34.24-.46-.05.28-.12.57-.17.91-.29.12.11.17.23.29.34a1.25,1.25,0,0,1,.4-.23.48.48,0,0,1,.4-.06c.23,0,.28.11.23.34,0,.06-.06.17-.06.23a.52.52,0,0,1-.05.23H493a.19.19,0,0,0-.06-.17c-.06-.29-.29-.4-.46-.17a.92.92,0,0,0-.28.51,11.26,11.26,0,0,0-.27,1.49.2.2,0,0,1-.06.17Z" transform="translate(-446.85 -382.79)"/><path class="cls-5" d="M530.33,425.77a.92.92,0,0,1,.85-.86,1,1,0,0,1,.87.85.93.93,0,0,1-.85.86A.89.89,0,0,1,530.33,425.77Z" transform="translate(-446.85 -382.79)"/><path class="cls-5" d="M503.65,426a.91.91,0,0,1-.85.86.86.86,0,1,1,.85-.86Z" transform="translate(-446.85 -382.79)"/><path class="cls-5" d="M541,425.86c0-.17-.06-.23-.06-.34-.34-.11-.4-.11-.57.12a3.49,3.49,0,0,0-.45,1.09,5.87,5.87,0,0,1-.22,1h-.46c-.06-.8.39-1.54.27-2.4-.11.06-.29.06-.4.12s0-.06-.06-.11a2,2,0,0,1,1-.35c0,.11.06.22.06.4.23-.12.4-.24.63-.35a.62.62,0,0,1,.63.05C541.25,425.69,541.25,425.69,541,425.86Z" transform="translate(-446.85 -382.79)"/><path class="cls-5" d="M551.26,427.61h-.52c.06-.23.17-.46.23-.69a11.05,11.05,0,0,0,.27-1.37.9.9,0,0,0-.11-.34c-.17.06-.29.23-.46.06a3.33,3.33,0,0,1,.91-.41,3.16,3.16,0,0,1,.23.4c.34-.23.63-.57,1.09-.23-.11.51-.17.57-.34.74,0-.06-.06-.11-.06-.17-.06-.29-.23-.34-.46-.17a1.72,1.72,0,0,0-.45.69,10.09,10.09,0,0,0-.28,1.31C551.31,427.5,551.26,427.56,551.26,427.61Z" transform="translate(-446.85 -382.79)"/><path class="cls-5" d="M558.5,424.94c-.06.23-.17.34-.17.46s-.06.4-.11.62-.11.58-.17.8,0,.23-.11.4c.17.17.34.06.51,0,.06.11.06.23-.05.29s-.51.17-.74.23-.29-.06-.29-.23a1.77,1.77,0,0,1,0-.51c.12-.46.23-.86.34-1.31,0-.12,0-.29,0-.46a4,4,0,0,0-.4.12c-.06-.12-.11-.23,0-.29A1.45,1.45,0,0,1,558.5,424.94Z" transform="translate(-446.85 -382.79)"/><path class="cls-5" d="M520.22,425.5c.06-.06.06-.17.11-.23a1.5,1.5,0,0,1,1-.06c-.17.74-.33,1.54-.5,2.34a1.54,1.54,0,0,0,.52-.06c0,.11.06.22-.12.28s-.51.18-.74.24-.28-.06-.28-.23a1.27,1.27,0,0,1,0-.51,9,9,0,0,0,.28-1.26,1.74,1.74,0,0,0,0-.51c-.11.05-.23.05-.34.11C520.28,425.56,520.28,425.56,520.22,425.5Z" transform="translate(-446.85 -382.79)"/><path class="cls-5" d="M483,425.71a.78.78,0,0,1-.34.12c-.06-.29-.06-.29.11-.35s.57-.06.86-.12a1,1,0,0,1,0,.69,9.47,9.47,0,0,0-.28,1.14,2.44,2.44,0,0,0-.05.63,1.78,1.78,0,0,0,.34-.06c.06.11.06.23-.05.28a4.34,4.34,0,0,1-.63.24c-.28.06-.4-.11-.35-.46a5.12,5.12,0,0,0,.33-1.82C483,425.88,483,425.82,483,425.71Z" transform="translate(-446.85 -382.79)"/><path class="cls-5" d="M486.35,435c-.12-.11-.17-.22-.29-.34.17-.28.34-.63.57-1,.28.05.51.05.91.11C487.14,434.24,486.75,434.58,486.35,435Z" transform="translate(-446.85 -382.79)"/><path class="cls-5" d="M509,422.78a8.26,8.26,0,0,0,.74-.86.45.45,0,0,1,.28-.11,2,2,0,0,1,.52.11l-.17.17c-.29.23-.57.46-.91.69C509.29,423,509.29,423,509,422.78Z" transform="translate(-446.85 -382.79)"/><path class="cls-5" d="M498.78,423.88c-.39.35-.68.64-1,.92-.06.06-.23,0-.4,0,.28-.4.57-.69.85-1,0,0,.11,0,.11,0Z" transform="translate(-446.85 -382.79)"/><path class="cls-5" d="M527.23,423.68a14.08,14.08,0,0,1-1.19.92c-.06.06-.11,0-.23,0a.05.05,0,0,0-.06-.05c.29-.29.51-.63.8-.92a.19.19,0,0,1,.17-.06A2,2,0,0,1,527.23,423.68Z" transform="translate(-446.85 -382.79)"/><path class="cls-5" d="M562.89,424.28c.28-.34.57-.63.85-1a5.28,5.28,0,0,0,.57.11c0,.12-.11.18-.17.18-.28.23-.57.46-.91.69C563.12,424.39,563,424.45,562.89,424.28Z" transform="translate(-446.85 -382.79)"/><path class="cls-5" d="M521.18,424.47a.32.32,0,0,1-.34-.4.4.4,0,0,1,.51-.35.3.3,0,0,1,.34.34A.56.56,0,0,1,521.18,424.47Z" transform="translate(-446.85 -382.79)"/><path class="cls-5" d="M558.37,423.46c.23,0,.4.11.4.28a.4.4,0,0,1-.45.4c-.23,0-.4-.11-.4-.28S558.08,423.46,558.37,423.46Z" transform="translate(-446.85 -382.79)"/><path class="cls-5" d="M483.59,424.73c-.23,0-.34-.11-.34-.28s.11-.4.34-.4a.39.39,0,0,1,.4.28C484.05,424.56,483.88,424.73,483.59,424.73Z" transform="translate(-446.85 -382.79)"/><path class="cls-5" d="M517.87,393a2.14,2.14,0,0,1-1.14.23l-25.08.18v-.06l-44.73.33.16,23.15,40.05-.28h.17l14.8-.1a2.2,2.2,0,0,1,.57.05c.12,0,.17,0,.23-.06a1.67,1.67,0,0,1,.74-.34l1.14-.36a.79.79,0,0,1,.69.11c-.29.18-.52.35-.8.52a1.17,1.17,0,0,0,.23.29,1.22,1.22,0,0,1,.8-.18h.91c.17,0,.35,0,.4.17a.35.35,0,0,0,.23.06,1.29,1.29,0,0,0,.63-.12c.23-.12.57-.18.45-.58a4.64,4.64,0,0,1,1.43-.52c.85-.18,1.65-.3,2.51-.42a4.41,4.41,0,0,0,2.33-1c.06-.06.12-.06.18-.12a5.52,5.52,0,0,0,.62-.52,4.5,4.5,0,0,0,.62-1.14.6.6,0,0,0-.63.12,16.29,16.29,0,0,1-1.59,1.26,4.71,4.71,0,0,1-2.91.82.24.24,0,0,1-.17-.05,1.17,1.17,0,0,0,.29-.23c-.12-.12-.18-.29-.29-.4.11-.06.17-.17.28-.17.51-.29,1.08-.58,1.6-.87.11-.06.28-.06.28-.23s.11-.17.17-.23c.28-.12.57-.23.8-.35s.28-.11.22-.4a.42.42,0,0,1,.11-.34c.17-.12.23-.4.46-.46l.06-.06a1.09,1.09,0,0,1,.22-.34v-.06c-.06-.06-.11-.06-.23-.11a6,6,0,0,0,.39-1.37.52.52,0,0,0-.51.06,3.81,3.81,0,0,1-1.65.81,3.34,3.34,0,0,1-1,.12.87.87,0,0,1-.8-.45.31.31,0,0,0-.23-.17,6.9,6.9,0,0,0-1.84-.67,7.29,7.29,0,0,0-1.66-.33.65.65,0,0,1-.4-.11c.12-.06.17-.06.23-.12.23-.06.51-.18.74-.23a6.12,6.12,0,0,1,1.77-.36c.06,0,.17,0,.17-.06a.43.43,0,0,1,.51-.11,6.94,6.94,0,0,1,1.09.27,1.17,1.17,0,0,1,.35.23c.06.11.17.23.23.22l.91.17c.23,0,.29-.17.34-.35a.69.69,0,0,0,.8-.29l.34.17a1,1,0,0,0,.69.11c.23,0,.34-.12.28-.34s-.06-.23-.11-.34l-.81-1.14a.54.54,0,0,1-.18-.4,1.19,1.19,0,0,0-.23-.51.8.8,0,0,1-.29-.57,5.47,5.47,0,0,0-.12-1c-.18-.85-.35-1.7-.53-2.56a2.75,2.75,0,0,1,.21-1.88c.29-.52.51-1,.79-1.49a5.31,5.31,0,0,1,1.25-1.49c.11-.06.11-.18.17-.29a6.48,6.48,0,0,1,.28-.63,3.8,3.8,0,0,1,1.82-1.61,3.59,3.59,0,0,1,.34-.17A.73.73,0,0,0,517.87,393Zm-18.94,19.41h0c-.06-.11,0-.17,0-.23a15.07,15.07,0,0,0,1.29-2.34,1.42,1.42,0,0,1,.4-.41,8.78,8.78,0,0,0,1.7-1.49,12,12,0,0,1,2.5-2.07,1.82,1.82,0,0,1,1.43-.19c.11,0,.17.06.34.17-.11.12-.17.18-.22.18-.23,0-.4.28-.69.17-.05,0-.11.06-.17.06a1.46,1.46,0,0,0-.34.29,3.49,3.49,0,0,0-1.36,1.55,2.1,2.1,0,0,1-.45.57,1.17,1.17,0,0,0-.23.35c-.05.11-.11.17-.17.28s-.17.06-.17,0-.06-.11-.06-.17a2.13,2.13,0,0,0,.06-.28A25.2,25.2,0,0,0,498.93,412.36Zm8.86,1.14-.91.17a.39.39,0,0,1-.23-.05.33.33,0,0,1,.06-.23.4.4,0,0,1,.22-.12c.12,0,.29-.11.4-.17a.33.33,0,0,1,.23-.06,4,4,0,0,0,.57.22C508,413.44,507.91,413.44,507.79,413.5Zm-.65-3.88c.74.22,1.48.45,2.17.73a5.1,5.1,0,0,1,1.49.79c.12.05.18.16.29.28a3.81,3.81,0,0,1-.4.23,8.89,8.89,0,0,1-2.11.64c-.45.12-.91.12-1.37.24-.28.06-.57.18-.85.23a.48.48,0,0,1-.69-.1.4.4,0,0,0-.45-.06,10.45,10.45,0,0,0-1.71.64,4.17,4.17,0,0,0-.69.41c-.22.11-.45.28-.74.46a.37.37,0,0,1-.22.06.22.22,0,0,1-.18-.06V414a3.91,3.91,0,0,1,1.08-1.27c.17-.11.28-.23.45-.34s.23-.18.29-.35a.12.12,0,0,1,.11-.11,1.38,1.38,0,0,0,.51-.63c.06-.12.23-.18.34-.29-.17-.23-.51,0-.69-.17a2.84,2.84,0,0,1,.23-.4c.11-.17.17-.28.4-.29a.76.76,0,0,0,.34-.11c-.34,0-.63.12-1-.05,0-.06.05-.17.05-.23a3.91,3.91,0,0,1,1-1.32.48.48,0,0,1,.46-.12c.06.23-.11.4-.22.57.05,0,.11.06.17.06a2,2,0,0,1,1,.34.39.39,0,0,0,.23,0c.12.06.17.11.29.17A1,1,0,0,1,507.14,409.62Zm1-2.63a10.4,10.4,0,0,1-1.32.29,4,4,0,0,0-.79.24c-.12.06-.23.06-.35.12s0-.06-.05-.06.05-.12.11-.12a2.08,2.08,0,0,1,1-.46,7.48,7.48,0,0,1,1.15-.12h.34A.13.13,0,0,1,508.15,407Z" transform="translate(-446.85 -382.79)"/><path class="cls-5" d="M555.81,392.84l-7,.05-17.6.13a9.09,9.09,0,0,1,.75.79.64.64,0,0,1,.12.69,1,1,0,0,0-.11.4.56.56,0,0,1-.57.46,4.38,4.38,0,0,1-1.2,0,3,3,0,0,0,.57.28,3.2,3.2,0,0,1,1.1.84.44.44,0,0,0,.45.23c.06,0,.18.06.18.11a.33.33,0,0,1-.06.23.3.3,0,0,0-.11.23c.17.06.23,0,.28-.17l.17-.35c.06-.11.17-.11.29-.06a.66.66,0,0,1,.12.92,2.83,2.83,0,0,1-.4.34c-.23.17-.28.29-.11.57a3,3,0,0,1,.17.46.53.53,0,0,0,.06.23,7.07,7.07,0,0,1,.53,1.59,6.07,6.07,0,0,1,.13,2.68,1,1,0,0,0,.12.68c.46.74.93,1.54,1.45,2.22a1.91,1.91,0,0,1,.29.57c.17.45,0,.74-.46.91a3.49,3.49,0,0,0-.45.18c-.29.11-.34.23-.28.51a1.92,1.92,0,0,0,.23.51c.11.23.12.34-.11.52a1.36,1.36,0,0,1-.34.23,1.71,1.71,0,0,1-.29.17c.35.06.46.34.58.57a.44.44,0,0,1-.05.45,1.49,1.49,0,0,1-.35.29.44.44,0,0,0-.11.52,1.26,1.26,0,0,1,.12.45,1.55,1.55,0,0,1-.9,1.49,2.77,2.77,0,0,1-.74.18,3.2,3.2,0,0,1-1.09-.17l-1.66-.33a2.12,2.12,0,0,0-1.82.47,4.7,4.7,0,0,0-1.3,2,.42.42,0,0,1-.06.23l22.51-.16,7-.05,41.48-.3-.17-23.1Z" transform="translate(-446.85 -382.79)"/><path class="cls-5" d="M597.67,446.62,447.42,447.7l.06,8.15,150.25-1.08Z" transform="translate(-446.85 -382.79)"/><path class="cls-6" d="M452.86,449.94H453l0,.85h-.11Zm.57,0h.18l-.06.86h-.05Z" transform="translate(-446.85 -382.79)"/><path class="cls-6" d="M457,450.14a.28.28,0,0,1,.11.23.36.36,0,0,1,0,.22l-1.12,2.75h-.06l-1.17-3.19h.4l1,2.68,1-2.24a.36.36,0,0,0,0-.22C457,450.25,457,450.2,457,450.14Z" transform="translate(-446.85 -382.79)"/><path class="cls-6" d="M457.9,451.79a1.7,1.7,0,0,1,.39-1.26,1.48,1.48,0,0,1,1-.47,1.37,1.37,0,0,1,1,.4,1.62,1.62,0,0,1,.41,1.19,1.7,1.7,0,0,1-.39,1.26,1.44,1.44,0,0,1-1.08.41,1.46,1.46,0,0,1-1-.34,1.29,1.29,0,0,1-.29-.45A1.77,1.77,0,0,1,457.9,451.79Zm1.42-1.67a.82.82,0,0,0-.74.41,2.31,2.31,0,0,0-.28,1.2,2,2,0,0,0,.3,1.14.94.94,0,0,0,.74.33.83.83,0,0,0,.74-.4,2.36,2.36,0,0,0,.28-1.2,2,2,0,0,0-.29-1.14A.93.93,0,0,0,459.32,450.12Z" transform="translate(-446.85 -382.79)"/><path class="cls-6" d="M462.66,453.29h-.4l0-3.13h-.8v-.05l1.95,0v.06h-.8l0,3.13Z" transform="translate(-446.85 -382.79)"/><path class="cls-6" d="M466.23,450.07l-1.42.07v1.37h1.31v.06h-1.31v1.71h1.54v.05l-1.94,0,0-3.2h1.82Z" transform="translate(-446.85 -382.79)"/><path class="cls-6" d="M467.38,450.06c.34,0,.68-.06.91-.06.74,0,1.14.22,1.15.73a1,1,0,0,1-.17.58.82.82,0,0,1-.51.34l.92,1.53h-.4l-.92-1.48h-.57v1.48h-.4Zm.91,0a2,2,0,0,0-.57.06v1.54h.69c.45,0,.62-.29.62-.86a.67.67,0,0,0-.18-.51C468.75,450.11,468.58,450.06,468.29,450.06Z" transform="translate(-446.85 -382.79)"/><path class="cls-6" d="M474.4,450l-1.42.07v1.37h1.32v.06H473v1.71h1.54v.05l-1.94,0,0-3.2h1.82Z" transform="translate(-446.85 -382.79)"/><path class="cls-6" d="M477.2,450.16a2,2,0,0,0-.8-.16.88.88,0,0,0-.57.17.62.62,0,0,0-.22.46.53.53,0,0,0,.34.51l.35.17a2.66,2.66,0,0,0,.4.17l.34.17a.49.49,0,0,1,.23.28,1.08,1.08,0,0,1,.12.46.87.87,0,0,1-.17.51,1,1,0,0,1-.39.29,1.57,1.57,0,0,1-.52.06,1.79,1.79,0,0,1-1-.28v-.05c.11.05.23.17.4.16a1.49,1.49,0,0,0,.51.06,1.11,1.11,0,0,0,.63-.18.6.6,0,0,0,.28-.51.62.62,0,0,0-.34-.57l-.35-.17a2.66,2.66,0,0,0-.4-.17l-.34-.17a.71.71,0,0,1-.35-.62.57.57,0,0,1,.22-.52,1.26,1.26,0,0,1,.69-.23A1.83,1.83,0,0,1,477.2,450.16Z" transform="translate(-446.85 -382.79)"/><path class="cls-6" d="M479.4,453.17H479l0-3.13h-.8V450l1.95,0V450h-.8l0,3.13Z" transform="translate(-446.85 -382.79)"/><path class="cls-6" d="M485.26,449.94h.05l0,1.83a1.59,1.59,0,0,1-.28,1,1,1,0,0,1-.74.35,1.57,1.57,0,0,1-.52-.06l-.4-.17c-.23-.16-.34-.56-.35-1.13V450h.4v1.82c0,.57.07.92.24,1.09a.3.3,0,0,0,.29.16c.11,0,.22.06.34.06a.81.81,0,0,0,.68-.35,1.71,1.71,0,0,0,.28-1Z" transform="translate(-446.85 -382.79)"/><path class="cls-6" d="M486.54,453.12h-.06l0-3.19h.17l1.91,2.95,0-3h.06l0,3.2h-.34l-1.73-2.61Z" transform="translate(-446.85 -382.79)"/><path class="cls-6" d="M492,449.89h.4a1,1,0,0,1,.4.06,1.77,1.77,0,0,1,.46.17.77.77,0,0,1,.34.28,1,1,0,0,1,.23.45,2,2,0,0,1,.12.69,2.45,2.45,0,0,1-.11.74,2.13,2.13,0,0,1-.33.52,1.84,1.84,0,0,1-1.09.35h-.68l0-3.19H492Zm0,3.13h.46a.42.42,0,0,0,.23-.06.46.46,0,0,0,.22-.11c.06-.06.18-.12.23-.18a1.15,1.15,0,0,0,.23-.28,2.23,2.23,0,0,0,.16-1,2.66,2.66,0,0,0-.12-.74,1.61,1.61,0,0,0-.23-.46.76.76,0,0,0-.34-.23,1.22,1.22,0,0,0-.29-.11H492Z" transform="translate(-446.85 -382.79)"/><path class="cls-6" d="M495,449.87c.34,0,.69-.07.91-.07.75,0,1.15.22,1.15.74a1,1,0,0,1-.17.57.82.82,0,0,1-.51.34l.93,1.54h-.4l-.93-1.48h-.57V453H495Zm1,0a2,2,0,0,0-.57.06v1.54h.69c.45,0,.62-.28.62-.86a.69.69,0,0,0-.18-.51A.72.72,0,0,0,495.94,449.86Z" transform="translate(-446.85 -382.79)"/><path class="cls-6" d="M498.07,451.5a1.62,1.62,0,0,1,.39-1.26,1.39,1.39,0,0,1,1-.46,1.31,1.31,0,0,1,1,.39,2.07,2.07,0,0,1,0,2.45,1.59,1.59,0,0,1-2,.07,1.17,1.17,0,0,1-.29-.45A1.5,1.5,0,0,1,498.07,451.5Zm1.41-1.67a.86.86,0,0,0-.74.41,2.22,2.22,0,0,0-.27,1.2,2,2,0,0,0,.29,1.14.91.91,0,0,0,.75.33.82.82,0,0,0,.74-.4,2.37,2.37,0,0,0,.27-1.2,2,2,0,0,0-.29-1.14A.92.92,0,0,0,499.48,449.83Z" transform="translate(-446.85 -382.79)"/><path class="cls-6" d="M502,449.82l.8-.07v.06h-.23l0,3.08h.23V453H502v-.05h.17l0-3.08Z" transform="translate(-446.85 -382.79)"/><path class="cls-6" d="M505,453h-.4l0-3.14h-.8v-.06h1.94v.06h-.8l0,3.14Z" transform="translate(-446.85 -382.79)"/><path class="cls-6" d="M506.65,452.58h.17l-.23.85h0Z" transform="translate(-446.85 -382.79)"/><path class="cls-4" d="M511.16,452.94a1.68,1.68,0,0,1-1.26-.44,1.33,1.33,0,0,1-.23-.46,2,2,0,0,1-.12-.68,2.68,2.68,0,0,1,.11-.74,1.87,1.87,0,0,1,.34-.52,1.73,1.73,0,0,1,1.08-.35.78.78,0,0,1,.34.05,2.35,2.35,0,0,1,.29.06l.06.06V450a3.3,3.3,0,0,0-.69-.11,1.08,1.08,0,0,0-.8.35,1.24,1.24,0,0,0-.33.69,2,2,0,0,0-.06.63,3.35,3.35,0,0,0,.12.68,1.51,1.51,0,0,0,.24.45c.05.12.17.18.34.23a.82.82,0,0,0,.29.11c.11-.11.22-.11.28-.06a1.33,1.33,0,0,1,.4-.06,1.45,1.45,0,0,0,.29-.06l.11-.05v.05A2.54,2.54,0,0,1,511.16,452.94Z" transform="translate(-446.85 -382.79)"/><path class="cls-7" d="M511.16,452.94a1.68,1.68,0,0,1-1.26-.44,1.33,1.33,0,0,1-.23-.46,2,2,0,0,1-.12-.68,2.68,2.68,0,0,1,.11-.74,1.87,1.87,0,0,1,.34-.52,1.73,1.73,0,0,1,1.08-.35.78.78,0,0,1,.34.05,2.35,2.35,0,0,1,.29.06l.06.06V450a3.3,3.3,0,0,0-.69-.11,1.08,1.08,0,0,0-.8.35,1.24,1.24,0,0,0-.33.69,2,2,0,0,0-.06.63,3.35,3.35,0,0,0,.12.68,1.51,1.51,0,0,0,.24.45c.05.12.17.18.34.23a.82.82,0,0,0,.29.11C511,452.89,511.1,452.89,511.16,452.94Zm0,0a1.33,1.33,0,0,1,.4-.06,1.45,1.45,0,0,0,.29-.06l.11-.05v.05A2.54,2.54,0,0,1,511.16,452.94Z" transform="translate(-446.85 -382.79)"/><path class="cls-6" d="M513.25,449.51c.06,0,.11,0,.11.05s.06.06.06.12a4.32,4.32,0,0,1-.22.85h-.06l.11-.62s-.11,0-.11-.06-.06-.06-.06-.11,0-.12.06-.12S513.19,449.51,513.25,449.51Z" transform="translate(-446.85 -382.79)"/><path class="cls-6" d="M516.56,449.71l-1.42.07v1.37h1.31v.05h-1.31v1.71h1.54V453h-1.94l0-3.19h1.83Z" transform="translate(-446.85 -382.79)"/><path class="cls-6" d="M519.37,449.86a2,2,0,0,0-.81-.16.9.9,0,0,0-.57.17.62.62,0,0,0-.22.46.54.54,0,0,0,.35.51l.34.17c.11.05.23.11.4.17l.35.17a.58.58,0,0,1,.23.28,1.14,1.14,0,0,1,.11.45.93.93,0,0,1-.16.52,1.18,1.18,0,0,1-.4.29,1.51,1.51,0,0,1-.52.06,1.79,1.79,0,0,1-1-.28v-.06a.81.81,0,0,0,.4.17,1.3,1.3,0,0,0,.52.05,1.18,1.18,0,0,0,.62-.17.62.62,0,0,0,.29-.52.64.64,0,0,0-.35-.56l-.35-.17a1.92,1.92,0,0,0-.4-.17l-.34-.17a.72.72,0,0,1-.35-.63.57.57,0,0,1,.23-.51,1.15,1.15,0,0,1,.68-.23A1.67,1.67,0,0,1,519.37,449.86Z" transform="translate(-446.85 -382.79)"/><path class="cls-6" d="M521.56,452.87h-.4l0-3.14h-.8v-.06h1.94v.06h-.8l0,3.14Z" transform="translate(-446.85 -382.79)"/><path class="cls-6" d="M525.16,452.84l1.29-3.2h.06l1.16,3.18h-.4l-.35-1h-1.31Zm1.12-2.74-.67,1.66h1.31Z" transform="translate(-446.85 -382.79)"/><path class="cls-6" d="M530.85,449.61h.06v1.82a1.59,1.59,0,0,1-.28,1,.92.92,0,0,1-.74.35,1.87,1.87,0,0,1-.52-.05c-.11-.06-.28-.12-.4-.17a1.46,1.46,0,0,1-.35-1.14v-1.83h.4v1.83c0,.57.07.91.24,1.08a.32.32,0,0,0,.29.17c.11,0,.22.05.34.05a.81.81,0,0,0,.68-.35,1.68,1.68,0,0,0,.28-1Z" transform="translate(-446.85 -382.79)"/><path class="cls-6" d="M533.76,449.76a2.05,2.05,0,0,0-.8-.17.83.83,0,0,0-.57.18.57.57,0,0,0-.22.46.55.55,0,0,0,.34.51l.35.17a2.75,2.75,0,0,0,.4.16l.34.17a.56.56,0,0,1,.23.29,1,1,0,0,1,.12.45.92.92,0,0,1-.17.52.91.91,0,0,1-.4.28,1.49,1.49,0,0,1-.51.06,1.68,1.68,0,0,1-1-.27v-.06a.81.81,0,0,0,.4.17,1.77,1.77,0,0,0,.51.05,1.19,1.19,0,0,0,.63-.17.61.61,0,0,0,.28-.52.63.63,0,0,0-.34-.57l-.35-.17c-.11-.05-.23-.11-.4-.17l-.34-.16a.72.72,0,0,1-.35-.63.54.54,0,0,1,.22-.51,1.26,1.26,0,0,1,.69-.24A1.74,1.74,0,0,1,533.76,449.76Z" transform="translate(-446.85 -382.79)"/><path class="cls-6" d="M536.68,449.74a2,2,0,0,0-.8-.17.81.81,0,0,0-.57.18.56.56,0,0,0,.12,1l.34.16a2.18,2.18,0,0,0,.4.17l.35.17a.63.63,0,0,1,.23.28,1.24,1.24,0,0,1,.11.46.9.9,0,0,1-.16.52,1.15,1.15,0,0,1-.4.28,1.51,1.51,0,0,1-.52.06,1.78,1.78,0,0,1-1-.27v-.06c.12.05.23.17.4.17a1.84,1.84,0,0,0,.52,0,1.08,1.08,0,0,0,.62-.18.59.59,0,0,0,.29-.51.64.64,0,0,0-.35-.57l-.34-.17c-.12,0-.23-.11-.41-.17l-.34-.16a.72.72,0,0,1-.35-.63.55.55,0,0,1,.23-.51,1.18,1.18,0,0,1,.68-.24A1.78,1.78,0,0,1,536.68,449.74Z" transform="translate(-446.85 -382.79)"/><path class="cls-6" d="M537.88,449.56l.79-.07v.06h-.23l0,3.08h.23v.06h-.8v-.05h.23l0-3.08Z" transform="translate(-446.85 -382.79)"/><path class="cls-6" d="M544,449.51h.06v1.83a1.63,1.63,0,0,1-.28,1,.9.9,0,0,1-.74.34,1.27,1.27,0,0,1-.51,0c-.12-.05-.29-.11-.41-.17s-.34-.56-.35-1.14v-1.82h.4v1.82c0,.57.07.91.24,1.08a.31.31,0,0,0,.29.17c.11,0,.23.06.34.06a.8.8,0,0,0,.68-.35,1.71,1.71,0,0,0,.28-1Z" transform="translate(-446.85 -382.79)"/><path class="cls-6" d="M545.21,452.7h-.06l0-3.19h.17l1.91,3,0-3h0l0,3.19h-.34l-1.74-2.61Z" transform="translate(-446.85 -382.79)"/><path class="cls-6" d="M550.73,449.46h.4a1,1,0,0,1,.4.06,2.12,2.12,0,0,1,.46.16.8.8,0,0,1,.34.29,1,1,0,0,1,.23.45,2,2,0,0,1,.12.69,2.45,2.45,0,0,1-.11.74,1.87,1.87,0,0,1-.33.51,1.78,1.78,0,0,1-1.09.35h-.68l0-3.2h.29Zm0,3.14h.46a.42.42,0,0,0,.23-.06.4.4,0,0,0,.22-.12,2,2,0,0,0,.23-.17,1.22,1.22,0,0,0,.23-.29,2.18,2.18,0,0,0,.16-1,2.79,2.79,0,0,0-.12-.74,1.43,1.43,0,0,0-.23-.45.76.76,0,0,0-.34-.23,1.22,1.22,0,0,0-.29-.11h-.57Z" transform="translate(-446.85 -382.79)"/><path class="cls-6" d="M555.53,449.43l-1.43.07v1.37h1.31v.05h-1.31v1.71h1.55v.06h-1.95l0-3.19h1.83Z" transform="translate(-446.85 -382.79)"/><path class="cls-6" d="M558.79,449.41a.29.29,0,0,1,.11.22.37.37,0,0,1,0,.23l-1.13,2.75h-.05l-1.17-3.19h.4l1,2.67,1-2.23a.37.37,0,0,0,0-.23C558.84,449.52,558.79,449.46,558.79,449.41Z" transform="translate(-446.85 -382.79)"/><path class="cls-6" d="M559.71,451.05a1.66,1.66,0,0,1,.39-1.25,1.48,1.48,0,0,1,1-.47,1.37,1.37,0,0,1,1,.4,1.66,1.66,0,0,1,.41,1.19,1.7,1.7,0,0,1-.39,1.26,1.42,1.42,0,0,1-1.09.4,1.38,1.38,0,0,1-1-.33,1.17,1.17,0,0,1-.29-.45A2.8,2.8,0,0,1,559.71,451.05Zm1.42-1.66a.82.82,0,0,0-.74.41,2.3,2.3,0,0,0-.28,1.19,1.93,1.93,0,0,0,.29,1.14.93.93,0,0,0,.75.34.83.83,0,0,0,.74-.4,2.36,2.36,0,0,0,.28-1.2,1.92,1.92,0,0,0-.3-1.14A.84.84,0,0,0,561.13,449.39Z" transform="translate(-446.85 -382.79)"/><path class="cls-6" d="M563.64,449.37l.8-.06v.06h-.23l0,3.08h.23v.05h-.8v-.06h.23l0-3.08Z" transform="translate(-446.85 -382.79)"/><path class="cls-6" d="M565.64,449.36c.34,0,.69-.06.91-.07.75,0,1.15.22,1.15.74a1,1,0,0,1-.16.57.89.89,0,0,1-.52.35l.93,1.53h-.4l-.93-1.48h-.57v1.48h-.4Zm.92,0a2.08,2.08,0,0,0-.58.06l0,1.54h.68c.46,0,.63-.29.62-.86a.7.7,0,0,0-.17-.51A.59.59,0,0,0,566.56,449.35Z" transform="translate(-446.85 -382.79)"/><path class="cls-4" d="M572.35,452.5a1.68,1.68,0,0,1-1.26-.44,1.05,1.05,0,0,1-.23-.46,2,2,0,0,1-.12-.68,2.74,2.74,0,0,1,.11-.74,2.13,2.13,0,0,1,.33-.52,1.78,1.78,0,0,1,1.09-.35.68.68,0,0,1,.34.06,1.41,1.41,0,0,1,.29.05l.05.06v0a3.3,3.3,0,0,0-.69-.11,1.08,1.08,0,0,0-.8.35,1.36,1.36,0,0,0-.34.69,2.44,2.44,0,0,0,0,.63,2.7,2.7,0,0,0,.12.68,1.76,1.76,0,0,0,.23.46.51.51,0,0,0,.35.22.86.86,0,0,0,.28.11c.17-.11.23-.11.29-.06a1.68,1.68,0,0,1,.4-.06,2.5,2.5,0,0,0,.28-.05l.12-.06v.05A2.54,2.54,0,0,1,572.35,452.5Z" transform="translate(-446.85 -382.79)"/><path class="cls-7" d="M572.35,452.5a1.68,1.68,0,0,1-1.26-.44,1.05,1.05,0,0,1-.23-.46,2,2,0,0,1-.12-.68,2.74,2.74,0,0,1,.11-.74,2.13,2.13,0,0,1,.33-.52,1.78,1.78,0,0,1,1.09-.35.68.68,0,0,1,.34.06,1.41,1.41,0,0,1,.29.05l.05.06v0a3.3,3.3,0,0,0-.69-.11,1.08,1.08,0,0,0-.8.35,1.36,1.36,0,0,0-.34.69,2.44,2.44,0,0,0,0,.63,2.7,2.7,0,0,0,.12.68,1.76,1.76,0,0,0,.23.46.51.51,0,0,0,.35.22.86.86,0,0,0,.28.11C572.23,452.45,572.29,452.45,572.35,452.5Zm0,0a1.68,1.68,0,0,1,.4-.06,2.5,2.5,0,0,0,.28-.05l.12-.06v.05A2.54,2.54,0,0,1,572.35,452.5Z" transform="translate(-446.85 -382.79)"/><path class="cls-6" d="M574.21,449.3l.8-.07v.06h-.23l0,3.08H575v.06h-.8v-.05h.23l0-3.07Z" transform="translate(-446.85 -382.79)"/><path class="cls-6" d="M578.38,449.27a.27.27,0,0,1,.12.22c0,.06,0,.18-.06.23l-1.12,2.75h-.06l-1.16-3.19h.4l1,2.67,1-2.23c.06-.05.06-.17.06-.23S578.38,449.32,578.38,449.27Z" transform="translate(-446.85 -382.79)"/><path class="cls-6" d="M579.47,449.26l.8-.06v.05H580l0,3.08h.23v.06h-.8v-.06h.23l0-3.08Z" transform="translate(-446.85 -382.79)"/><path class="cls-6" d="M581.31,450.84a1.56,1.56,0,0,1,.39-1.2,1.39,1.39,0,0,1,1-.46,1.33,1.33,0,0,1,1.44,1.64,1.65,1.65,0,0,1-.33,1.09,1.35,1.35,0,0,1-.86.52,2.08,2.08,0,0,1,.69.39c.12.06.23.17.35.23a2,2,0,0,0,1,.28v.05a4,4,0,0,1-1.32-.16,1.11,1.11,0,0,1-.57-.39c-.06-.06-.12-.12-.12-.17s0-.12-.11-.12-.12-.05-.17-.05a1.75,1.75,0,0,1-.58-.06,1.56,1.56,0,0,1-.45-.22A1.94,1.94,0,0,1,581.31,450.84Zm.34,0c0,1,.35,1.6,1,1.59a.85.85,0,0,0,.74-.4,2.3,2.3,0,0,0,.28-1.15c0-1-.36-1.59-1-1.59a.84.84,0,0,0-.74.41A2,2,0,0,0,581.65,450.84Z" transform="translate(-446.85 -382.79)"/><path class="cls-6" d="M587.35,449.2h.06V451a1.63,1.63,0,0,1-.28,1,.93.93,0,0,1-.74.34,1.48,1.48,0,0,1-.51,0c-.12-.06-.29-.11-.4-.17a1.42,1.42,0,0,1-.35-1.14l0-1.82h.4l0,1.83c0,.57.06.91.23,1.08a.31.31,0,0,0,.29.17c.11,0,.23.06.34.06a.81.81,0,0,0,.68-.35,1.64,1.64,0,0,0,.28-1Z" transform="translate(-446.85 -382.79)"/><path class="cls-6" d="M590.38,449.18l-1.43.07v1.37h1.31v.05H589v1.71h1.55v.06h-1.95l0-3.19h1.83Z" transform="translate(-446.85 -382.79)"/><path class="cls-6" d="M591.58,448.94h.17l0,.86h-.06Zm.57,0h.17l-.05.85h-.06Z" transform="translate(-446.85 -382.79)"/><path class="cls-8" d="M480.34,584.42h-.06l.54-4.4h.23l1.34,4,1.29-4.06h.23l.6,4.39H484l-.49-3.53-1.11,3.54H482l-1.17-3.48Z" transform="translate(-446.85 -382.79)"/><path class="cls-8" d="M485.85,580v0H487v0h-.28l0,4.27H487v.06h-1.14v-.06h.29l0-4.28Z" transform="translate(-446.85 -382.79)"/><path class="cls-8" d="M488.57,584.36h-.06l0-4.39h.23l2.65,4,0-4h.06l0,4.39H491l-2.37-3.63,0,3.65Z" transform="translate(-446.85 -382.79)"/><path class="cls-8" d="M492.82,580v0H494V580h-.28l0,4.27H494v.06h-1.14v-.06h.29l0-4.28Z" transform="translate(-446.85 -382.79)"/><path class="cls-8" d="M497.73,580.19a2.48,2.48,0,0,0-1.08-.22,1.11,1.11,0,0,0-.8.23.73.73,0,0,0,.18,1.25,3.83,3.83,0,0,0,.46.17,1.92,1.92,0,0,1,.51.23,1,1,0,0,1,.46.28,1.1,1.1,0,0,1,.35.39,1.17,1.17,0,0,1,.12.63,1.12,1.12,0,0,1-.23.69,3.56,3.56,0,0,1-.51.4,2.73,2.73,0,0,1-.74.12,2.07,2.07,0,0,1-1.32-.39l.06-.06a4.07,4.07,0,0,0,.52.28,2.68,2.68,0,0,0,.68.11,1.38,1.38,0,0,0,.86-.23.81.81,0,0,0,.34-.69,1,1,0,0,0-.47-.79,2.8,2.8,0,0,0-.46-.23c-.17-.05-.34-.17-.51-.22a1.21,1.21,0,0,1-.46-.29,1,1,0,0,1-.46-.9,1.05,1.05,0,0,1,.28-.75,1.43,1.43,0,0,1,.91-.29,3.29,3.29,0,0,1,1.26.22Z" transform="translate(-446.85 -382.79)"/><path class="cls-8" d="M500.62,584.27h-.51l0-4.34H499v-.06l2.68,0v.06h-1.08Z" transform="translate(-446.85 -382.79)"/><path class="cls-8" d="M505.22,579.85v0l-2,0v1.88h1.83v.05l-1.83,0,0,2.34,2.11,0v.06l-2.63,0,0-4.4Zm-1.78-1.19h.45l.3.91h-.06Z" transform="translate(-446.85 -382.79)"/><path class="cls-8" d="M506.59,579.89a10.41,10.41,0,0,1,1.31-.06c1,0,1.55.33,1.55,1a1.31,1.31,0,0,1-.22.8,1,1,0,0,1-.74.46l1.27,2.11h-.57l-1.27-2h-.8v2.05h-.51Zm1.31,0a3.71,3.71,0,0,0-.74.07l0,2.16h.91c.57,0,.91-.41.91-1.21a1,1,0,0,0-.3-.74A1.14,1.14,0,0,0,507.9,579.88Z" transform="translate(-446.85 -382.79)"/><path class="cls-8" d="M513.5,579.79v.05l-2,0v1.88h1.83v0l-1.82,0v2.34l2.12,0v.06l-2.63,0,0-4.39Z" transform="translate(-446.85 -382.79)"/><path class="cls-8" d="M518,579.75h.57a2.44,2.44,0,0,1,.57,0,2.27,2.27,0,0,1,.57.23,2.94,2.94,0,0,1,.52.39,2.39,2.39,0,0,1,.35.63,4.27,4.27,0,0,1,.12,1,2.68,2.68,0,0,1-.17,1,1.57,1.57,0,0,1-.5.68,2.54,2.54,0,0,1-1.49.47h-.91l0-4.39h.4Zm0,4.34h.63a.74.74,0,0,0,.28-.06c.12-.06.23-.06.34-.12a1.2,1.2,0,0,0,.34-.23,1.06,1.06,0,0,0,.29-.4,3,3,0,0,0,.27-1.37,2.67,2.67,0,0,0-.18-1,2,2,0,0,0-.34-.62,2.89,2.89,0,0,0-.46-.34,2.08,2.08,0,0,0-.4-.11H518l0,4.28Z" transform="translate(-446.85 -382.79)"/><path class="cls-8" d="M524.41,579.71v.06h-2l0,1.88h1.83v.06h-1.83v2.34l2.12,0v.06l-2.63,0,0-4.39Z" transform="translate(-446.85 -382.79)"/><path class="cls-8" d="M530.79,584.05l-2.4,0,0-4.39h.52l0,4.33h1.89Z" transform="translate(-446.85 -382.79)"/><path class="cls-8" d="M532.29,579.37a.25.25,0,0,1,.18,0,.24.24,0,0,1,0,.17c0,.06-.11.46-.27,1.2h-.06l.11-.91a.21.21,0,0,1-.23-.23.24.24,0,0,1,0-.17C532.18,579.37,532.24,579.37,532.29,579.37Z" transform="translate(-446.85 -382.79)"/><path class="cls-8" d="M534.24,579.7v-.06h1.14v.06h-.28l0,4.28h.28V584h-1.14V584h.29l0-4.28Z" transform="translate(-446.85 -382.79)"/><path class="cls-8" d="M537,584h-.06l0-4.39h.23l2.65,4,0-4h.06l0,4.39h-.45L537,580.36l0,3.65Z" transform="translate(-446.85 -382.79)"/><path class="cls-8" d="M542.61,584h-.51l0-4.33H541v-.06l2.69,0v.06h-1.09Z" transform="translate(-446.85 -382.79)"/><path class="cls-8" d="M547.21,579.54v.06l-2,0v1.88h1.83v0l-1.83,0,0,2.33h2.11v.06l-2.62,0,0-4.4Zm-.92-1.19h.45l-.68.92h0Z" transform="translate(-446.85 -382.79)"/><path class="cls-8" d="M548.58,579.59a10.41,10.41,0,0,1,1.31-.06c1,0,1.55.33,1.55,1a1.25,1.25,0,0,1-.22.8,1,1,0,0,1-.74.46l1.27,2.1h-.57l-1.27-2h-.8v2h-.51Zm1.31,0a3.14,3.14,0,0,0-.74.07l0,2.16h.91c.57,0,.91-.41.91-1.21a1,1,0,0,0-.29-.74A1.16,1.16,0,0,0,549.89,579.58Z" transform="translate(-446.85 -382.79)"/><path class="cls-8" d="M552.86,579.56v-.06H554v0h-.29l0,4.27H554v.06H552.9v-.06h.29l0-4.28Z" transform="translate(-446.85 -382.79)"/><path class="cls-8" d="M558,579.47v0l-2,0v1.88h1.83v.06H556l0,2.34,2.11,0v.06l-2.63,0,0-4.39Z" transform="translate(-446.85 -382.79)"/><path class="cls-8" d="M562.29,579.44h.06l0,2.51a2,2,0,0,1-.39,1.42,1.34,1.34,0,0,1-1,.47,2.65,2.65,0,0,1-.68-.05,1.19,1.19,0,0,1-.52-.29,2,2,0,0,1-.53-1.59l0-2.51h.52l0,2.51a2.54,2.54,0,0,0,.35,1.54,1.72,1.72,0,0,0,.35.28,1.41,1.41,0,0,0,1.42-.41,2.22,2.22,0,0,0,.33-1.43v-2.45Z" transform="translate(-446.85 -382.79)"/><path class="cls-8" d="M563.83,579.48a10.64,10.64,0,0,1,1.32-.06c1,0,1.54.33,1.55,1a1.32,1.32,0,0,1-.23.8,1,1,0,0,1-.74.46l1.28,2.1h-.57l-1.28-2h-.8l0,2h-.52Zm1.26,0a3.71,3.71,0,0,0-.74.07v2.16h.92c.57,0,.91-.41.9-1.21a1,1,0,0,0-.29-.74A1.14,1.14,0,0,0,565.09,579.47Z" transform="translate(-446.85 -382.79)"/><path class="cls-5" d="M598.61,593.55l-150.25,1.08.05,7,150.25-1.08Z" transform="translate(-446.85 -382.79)"/><path class="cls-3" d="M495.34,501.43c-3.88,0-6.87-2.06-6.9-6.34,0-3.94,2.87-6.35,6.81-6.38s6.47,2.06,6.84,5.54l-4.57,0a2.06,2.06,0,0,0-2.24-1.58,2.37,2.37,0,0,0,0,4.74c1.26,0,2.11-.59,2.22-1.62l4.57,0C501.84,499.56,499.4,501.4,495.34,501.43Z" transform="translate(-446.85 -382.79)"/><path class="cls-3" d="M510.92,499.26l-4.05,0-.56,1.89-4.69,0,4.2-12.58,6.05,0,4.38,12.52-4.69,0Zm-3.11-3.11,2.18,0-1.12-3.58Z" transform="translate(-446.85 -382.79)"/><path class="cls-3" d="M521.14,497.93l0,3.14-4.4,0-.09-12.54,6.17-.05c4.4,0,6.3,1.78,6.32,4.63a4,4,0,0,1-2,3.9l2.09,4-4.58,0-1.45-3.13h-2.11Zm3.39-4.7c0-.62-.4-1-1.66-1H521.1v2h1.77C524.2,494.2,524.54,493.86,524.53,493.23Z" transform="translate(-446.85 -382.79)"/><path class="cls-3" d="M529.47,488.52l13.2-.09,0,4.1-4.4,0,.06,8.45-4.4,0-.06-8.44-4.4,0Z" transform="translate(-446.85 -382.79)"/><path class="cls-3" d="M543.58,488.42l11-.08,0,3.88-6.57,0v1.14l6.28-.05,0,2.45-6.28.05v1.2l6.57-.05,0,3.88-11,.08Z" transform="translate(-446.85 -382.79)"/><path class="cls-3" d="M459.81,510.18l11-.08,0,3.88-6.52,0v1.14l6.29,0v2.45l-6.28,0v1.2l6.57-.05,0,3.88-11,.08Zm7.71-.68-4.57,0V509l4.16-1.62h.4Z" transform="translate(-446.85 -382.79)"/><path class="cls-3" d="M471.86,510.1l4.46,0,.06,8.5,5.94,0,0,4.05-10.4.08Z" transform="translate(-446.85 -382.79)"/><path class="cls-3" d="M483.06,510l11-.08,0,3.88-6.57,0V515l6.28,0,0,2.45-6.29.05v1.19l6.57,0,0,3.88-11,.08Z" transform="translate(-446.85 -382.79)"/><path class="cls-3" d="M501.78,522.6c-3.89,0-6.87-2.06-6.9-6.34,0-3.93,2.86-6.35,6.81-6.38s6.47,2.07,6.83,5.54l-4.57,0a2,2,0,0,0-2.24-1.58,2.13,2.13,0,0,0-2.26,2.35,2.16,2.16,0,0,0,2.3,2.38c1.26,0,2.11-.59,2.22-1.61l4.57,0C508.22,520.73,505.78,522.57,501.78,522.6Z" transform="translate(-446.85 -382.79)"/><path class="cls-3" d="M508.83,509.83l13.19-.09,0,4.1-4.4,0,.07,8.45-4.4,0-.06-8.44-4.4,0Z" transform="translate(-446.85 -382.79)"/><path class="cls-3" d="M529.45,509.51c4.17,0,7,2.46,7,6.4,0,4.28-2.7,6.46-6.93,6.49-3.88,0-7-2.11-7.07-6.39C522.44,512,525.56,509.54,529.45,509.51Zm.06,8.9a2.25,2.25,0,0,0,2.44-2.47,2.46,2.46,0,1,0-4.91,0A2.28,2.28,0,0,0,529.51,518.41Z" transform="translate(-446.85 -382.79)"/><path class="cls-3" d="M541.74,519l0,3.13-4.4,0-.09-12.54,6.17-.05c4.4,0,6.3,1.78,6.32,4.63a4,4,0,0,1-2,3.9l2.09,4-4.57,0L543.86,519h-.4Zm3.4-4.71c0-.62-.41-1-1.66-.95H541.7l0,2,1.77,0C544.8,515.28,545.14,514.87,545.14,514.3Z" transform="translate(-446.85 -382.79)"/><path class="cls-3" d="M559.47,520.13l-4.06,0-.56,1.89-4.68,0,4.19-12.58,6.06,0L564.79,522l-4.68,0ZM556.36,517l2.17,0-1.11-3.58Z" transform="translate(-446.85 -382.79)"/><path class="cls-3" d="M565.16,509.43l4.4,0,.06,8.5,5.94,0,0,4-10.34.07Z" transform="translate(-446.85 -382.79)"/><path class="cls-3" d="M576.3,509.35l11-.08,0,3.88-6.57,0v1.14l6.29,0,0,2.45-6.29,0V518l6.57,0,0,3.88-11,.08Z" transform="translate(-446.85 -382.79)"/></g></svg>