<svg id="telegrosmonsieur" xmlns="http://www.w3.org/2000/svg" viewBox="0 0 575.33 467.51"><defs><style>.cls-1{fill:#57517d;}.cls-2{fill:#e5e6dc;}.cls-3{fill:#51569e;}.cls-4{fill:#383882;}.cls-5{fill:#6d343d;}.cls-6{fill:#592c33;}.cls-7{fill:#5a58c7;}.cls-8{fill:#faf3ee;}.cls-9{fill:#ac4b4b;}.cls-10{fill:#ec8989;}.cls-11{fill:#f09575;}.cls-12{fill:#ba6a52;}.cls-13{fill:#e5e0dc;}.cls-14{fill:#0b0b38;}.cls-15{fill:#fff;isolation:isolate;opacity:0.65;}</style></defs><path class="cls-1" d="M287.15,594.36a208.93,208.93,0,0,1-53.1-13.28c-28.78-11.48-50-27.91-59.77-46.27s-12.74-47.7,28.81-82.47C238,423.16,271.53,407,308.71,401.47c32.83-4.87,63.34-.75,95.64,3.61,42.59,5.75,86.64,11.7,137.44-4.37,19.07-6,21.83-10,21.78-11.83-.07-2.49-4.86-6.57-27.29-11.91-17.5-4.17-41.63-8.18-67.15-12.43-69.89-11.61-149.11-24.78-157-50.2-2.41-7.72,1.83-16,12.59-24.69,53.53-43.1,93.82-40.22,132.78-37.44,27.8,2,54.06,3.86,84.82-10.34l2.26,3.46c-32.19,14.87-60.47,12.86-87.86,10.9-18.89-1.35-38.43-2.75-59.22,1.43-23.41,4.67-46.08,16-69.31,34.74C318.7,300,315.05,306.81,317,313.07c7.23,23.18,88.34,36.66,153.5,47.52,62.43,10.39,97.79,16.8,98.08,27.93.15,5.38-7.86,10.44-25.24,15.94-52.15,16.49-96.85,10.45-140.14,4.6-62.72-8.46-122-16.47-196.62,46-31.3,26.18-40.87,53.14-27.68,78,9.34,17.57,29.8,33.35,57.59,44.43,26.26,10.46,56.1,15.47,81.86,13.75,30.36-2.05,51.65-13.11,60-31.22,7.39-16,21-28.1,40.56-35.85,28.48-11.32,68.8-13.57,119.82-6.68a539.57,539.57,0,0,1,68.07,13.72l-1.93,3.8a537.79,537.79,0,0,0-67.33-13.56c-62.18-8.4-97.76-1.2-116.65,6.3-18.22,7.24-30.94,18.5-37.83,33.43C373.93,580.92,351,593,318.47,595.19A176.67,176.67,0,0,1,287.15,594.36Z" transform="translate(-168.15 -223.94)"/><path class="cls-2" d="M715.74,344.29l-387.44,44L356,632.64l387.44-44Z" transform="translate(-168.15 -223.94)"/><path class="cls-1" d="M452.18,653.19l202.24-23A18.59,18.59,0,0,1,675,646.61l.44,3.88L436.26,677.63l-.44-3.89a18.57,18.57,0,0,1,16.36-20.55Z" transform="translate(-168.15 -223.94)"/><path class="cls-3" d="M511,605.45l75.3-8.55,4.77,42a6.85,6.85,0,0,1-6,7.58l-62.38,7.08a6.15,6.15,0,0,1-6.8-5.41L511,605.45Z" transform="translate(-168.15 -223.94)"/><path class="cls-3" d="M328.3,388.25,356,632.64l387.44-44L715.74,344.29ZM721.21,559.1,371.09,598.82,348.53,400l350.12-39.72Z" transform="translate(-168.15 -223.94)"/><path class="cls-1" d="M743.47,588.67a2186.48,2186.48,0,0,0-294.85,3.89l-77.51,6.25L739.88,557Z" transform="translate(-168.15 -223.94)"/><path class="cls-1" d="M721.22,559.1a1548,1548,0,0,0-3.11-184l-2.37-30.78L739.88,557Z" transform="translate(-168.15 -223.94)"/><path class="cls-1" d="M356,632.63l-2.15-19s46.89,13.88,177.59-.95Z" transform="translate(-168.15 -223.94)"/><path class="cls-4" d="M715.74,344.29l-313.9,35.62s236.42-24.16,260.61-24.67c30.25-.63,23.46,2.39,54.86,2.88Z" transform="translate(-168.15 -223.94)"/><path class="cls-4" d="M328.3,388.25q64.27,1,128.36-4.26L575,374.26,329.87,402.07Z" transform="translate(-168.15 -223.94)"/><path class="cls-1" d="M348.53,400l-18.66,2.12L356,632.64l18.66-2.12Z" transform="translate(-168.15 -223.94)"/><path class="cls-1" d="M717.31,358.11l-1.57-13.82-387.44,44,1.57,13.82Z" transform="translate(-168.15 -223.94)"/><path class="cls-3" d="M676.94,664.32l-1.57-13.82L436.26,677.63l1.57,13.82Z" transform="translate(-168.15 -223.94)"/><path class="cls-1" d="M518.4,614.15s69.4-4.27,72.53,23.3l-3.52-31.08Z" transform="translate(-168.15 -223.94)"/><path class="cls-1" d="M676.91,664.05l-1.54-13.55s-42.62,18.56-171.7,33.21Z" transform="translate(-168.15 -223.94)"/><path class="cls-1" d="M535.15,230.62l15.29,29.24,27-16.49-18-18.69Z" transform="translate(-168.15 -223.94)"/><path class="cls-1" d="M576.8,234.47l-13.39,6.89,2.5,3.36,13.38-6.9Z" transform="translate(-168.15 -223.94)"/><path class="cls-1" d="M568,223.94l-13.38,6.89,2.49,3.36,13.38-6.9Z" transform="translate(-168.15 -223.94)"/><path class="cls-5" d="M647.67,524.86l-214.13,24.3,4.83,42.56L652.5,567.43Z" transform="translate(-168.15 -223.94)"/><path class="cls-5" d="M655.52,524,427.8,549.81l.92,8.16,227.73-25.83Z" transform="translate(-168.15 -223.94)"/><path class="cls-6" d="M648.59,533,434.47,557.32l.34,3,214.13-24.29Z" transform="translate(-168.15 -223.94)"/><path class="cls-7" d="M500.7,481.93s-46.08,11.23-42.36,44l2.28,20.13,127.43-14.45s2.11-11.93-6.73-26.52c0,0,45.45.93,43.44-29.17,0-.48-3.35-.48-.13-1.45l-25.75-6.17s-33.36,14.26-48.15,7Z" transform="translate(-168.15 -223.94)"/><path class="cls-4" d="M581.38,504.8c-8.13-12.53-22.5-21-22.5-21S575.45,490.31,581.38,504.8Z" transform="translate(-168.15 -223.94)"/><path class="cls-4" d="M591.13,471s9.22,15.43,31,17.65l.84-1.42.16-.89Z" transform="translate(-168.15 -223.94)"/><path class="cls-4" d="M500.7,481.93s17.94,8.34,31.58,6.15l-1.53,10.49S506.87,490.19,500.7,481.93Z" transform="translate(-168.15 -223.94)"/><path class="cls-8" d="M500.7,481.93s18.64,7.45,32.28,5.26l-1.53,10.49S506.87,490.19,500.7,481.93Z" transform="translate(-168.15 -223.94)"/><path class="cls-4" d="M536.34,486.07l3.28,10.16s10.57-10.69,10.32-19.52C549.94,476.72,540.79,484.86,536.34,486.07Z" transform="translate(-168.15 -223.94)"/><path class="cls-8" d="M536.89,485.87l3.63,9.77s10.46-11.55,10.21-20.36C550.74,475.28,546.28,480.79,536.89,485.87Z" transform="translate(-168.15 -223.94)"/><path class="cls-4" d="M488.58,523.34s4.42,14,4.32,13.72,2.84-2.12,2.84-2.12-2-9.52-3-11.79a11.82,11.82,0,0,0-3.15-.77s.57-14.43,10.2-18.55C488.57,507.74,488.58,523.34,488.58,523.34Z" transform="translate(-168.15 -223.94)"/><path class="cls-4" d="M488.58,523.34c-9.61-.52-22.95,1.65-30.2,3l-.16-1.59S481.72,521.4,488.58,523.34Z" transform="translate(-168.15 -223.94)"/><path class="cls-8" d="M456.19,542.37s-3-8.77-3-15c0,0,25.65-5.71,38.93-3.71,0,0,3,10,2.82,14.29Z" transform="translate(-168.15 -223.94)"/><path class="cls-9" d="M533.77,491.87s.7,25.94,0,32,6.5,11.35,7.12,13.32l8.43-.95s3.22-7.74,1.7-13.1-14.63-31.83-14.63-31.83Z" transform="translate(-168.15 -223.94)"/><path class="cls-10" d="M534.23,491.66s.7,25.94,0,32,6.5,11.35,7.12,13.33l8.43-1s3.22-7.74,1.69-13.1-14.62-31.83-14.62-31.83Z" transform="translate(-168.15 -223.94)"/><path class="cls-9" d="M536.74,490.41l-1.36-1.15a.72.72,0,0,0-.27-.15.82.82,0,0,0-.31,0,.69.69,0,0,0-.29.12.61.61,0,0,0-.21.24l-1,1.89a.68.68,0,0,0-.07.54.7.7,0,0,0,.34.43l1.88,1a.75.75,0,0,0,.3.09.81.81,0,0,0,.31-.05.7.7,0,0,0,.26-.19.72.72,0,0,0,.15-.27l.53-1.79a.71.71,0,0,0-.22-.74Z" transform="translate(-168.15 -223.94)"/><path class="cls-10" d="M537,490.3l-1.3-1.11a.87.87,0,0,0-.27-.14.76.76,0,0,0-.3,0,.66.66,0,0,0-.27.12.55.55,0,0,0-.2.23l-1,1.82a.79.79,0,0,0-.08.26.74.74,0,0,0,0,.26.9.9,0,0,0,.12.24.91.91,0,0,0,.21.18l1.8,1a.6.6,0,0,0,.29.08.6.6,0,0,0,.3-.05.74.74,0,0,0,.25-.17.72.72,0,0,0,.15-.27l.5-1.72a.65.65,0,0,0,0-.39A.72.72,0,0,0,537,490.3Z" transform="translate(-168.15 -223.94)"/><path class="cls-11" d="M445.59,547.81s-.33-9.42,9.18-7.5c0,0,4.11-5.18,10.11-2.22,0,0,4.78-5.9,10.15-.93,0,0,5.44-7.59,12.61-.79,0,0,18.61-14.84,22.37,4.13Z" transform="translate(-168.15 -223.94)"/><path class="cls-12" d="M453,547a9.51,9.51,0,0,1,1.74-6.65A6.13,6.13,0,0,0,453,547Z" transform="translate(-168.15 -223.94)"/><path class="cls-12" d="M464.11,545.71c-1.09-5.14.77-7.61.77-7.61S461.9,540.36,464.11,545.71Z" transform="translate(-168.15 -223.94)"/><path class="cls-12" d="M473.37,544.66a14.24,14.24,0,0,1,1.66-7.5A8.44,8.44,0,0,0,473.37,544.66Z" transform="translate(-168.15 -223.94)"/><path class="cls-12" d="M490.5,540.26a10.74,10.74,0,0,0-2.86-3.89A4.67,4.67,0,0,1,490.5,540.26Z" transform="translate(-168.15 -223.94)"/><path class="cls-13" d="M584.51,532s-4.39.3-6.16-2.58l15.37-1.74,1.4,3.11Z" transform="translate(-168.15 -223.94)"/><path class="cls-8" d="M584.51,532s13.56-4.44,18.28-12.82l21.55-2.45s-4.77,11.29-14.14,12.35Z" transform="translate(-168.15 -223.94)"/><path class="cls-13" d="M623.64,474s3.46.58,3.59,1.2l-.27,1.19-5.42-1.85Z" transform="translate(-168.15 -223.94)"/><path class="cls-11" d="M630.07,458.64c7.21-.82,12.84-3.5,12.55-6s-6.36-3.84-13.58-3c-3.61.41-16.58,3.78-18.85,4.86,0,0-13.09.91-15.33,2.4s3.43,2.32,3.33,8.92a9.57,9.57,0,0,1-.83,3.44c-.81,9.37,26.25,9.27,28.15,6.29.23-.35-2.75.06-2.51-.55C624.79,470.39,630.07,458.64,630.07,458.64Z" transform="translate(-168.15 -223.94)"/><path class="cls-12" d="M622.74,466c4.2-.48,7.4-2.77,7.13-5.12s-3.89-3.86-8.1-3.38-7.4,2.76-7.13,5.11S618.53,466.43,622.74,466Z" transform="translate(-168.15 -223.94)"/><path class="cls-12" d="M622.94,470.33c3.48-.4,6.12-2.29,5.9-4.23s-3.22-3.2-6.7-2.8-6.12,2.29-5.9,4.23S619.46,470.72,622.94,470.33Z" transform="translate(-168.15 -223.94)"/><path class="cls-12" d="M620.4,474.93c3.18-.36,5.59-2.09,5.39-3.86s-2.94-2.93-6.12-2.56-5.6,2.09-5.4,3.86S617.22,475.29,620.4,474.93Z" transform="translate(-168.15 -223.94)"/><path class="cls-11" d="M623.63,466.66c4.46-.51,7.85-2.93,7.57-5.43s-4.13-4.09-8.6-3.59-7.85,2.94-7.57,5.43S619.16,467.17,623.63,466.66Z" transform="translate(-168.15 -223.94)"/><path class="cls-11" d="M624.12,471c3.75-.43,6.6-2.47,6.36-4.56s-3.47-3.45-7.22-3-6.6,2.47-6.36,4.56S620.37,471.42,624.12,471Z" transform="translate(-168.15 -223.94)"/><path class="cls-11" d="M621.41,475.46c3.45-.39,6.06-2.27,5.84-4.19s-3.19-3.17-6.63-2.78-6.07,2.27-5.85,4.19S618,475.85,621.41,475.46Z" transform="translate(-168.15 -223.94)"/><path class="cls-12" d="M601.21,465c4.25-.49,7.48-2.8,7.21-5.17s-3.93-3.9-8.18-3.42-7.48,2.8-7.21,5.17S597,465.44,601.21,465Z" transform="translate(-168.15 -223.94)"/><path class="cls-11" d="M600,464.77c4.46-.5,7.85-2.93,7.57-5.42s-4.13-4.1-8.59-3.59-7.86,2.93-7.57,5.42S595.52,465.28,600,464.77Z" transform="translate(-168.15 -223.94)"/><path class="cls-12" d="M623.48,475a10.58,10.58,0,0,1-2.07.43c-2.6.3-4.93-.34-6-1.49C615.39,474,617.83,477.48,623.48,475Z" transform="translate(-168.15 -223.94)"/><path class="cls-12" d="M629.19,464.69a13.05,13.05,0,0,1-11.56,1.24S622.72,469.44,629.19,464.69Z" transform="translate(-168.15 -223.94)"/><path class="cls-12" d="M626.91,470.34a11.67,11.67,0,0,1-2.79.65c-2.87.33-5.43-.38-6.59-1.67C617.53,469.33,620.19,473.44,626.91,470.34Z" transform="translate(-168.15 -223.94)"/><path class="cls-8" d="M598.19,465.8,590,468.22c2.53,11.86,32.29,21,33.75,18.65s3.44-11.7,3.44-11.7L623,475a43.38,43.38,0,0,1-24.81-9.18Z" transform="translate(-168.15 -223.94)"/><path class="cls-11" d="M557.55,464.32a8.46,8.46,0,0,0-2.23-4.82,8.37,8.37,0,0,0-4.65-2.53C545,450.5,534,446.82,521.82,448.2c-12.56,1.43-22.75,7.83-26.53,15.74h-.05a8.42,8.42,0,0,0,.92,16.79,8.06,8.06,0,0,0,1-.06c.16,0,.32,0,.47-.06,5.63,6.5,16.7,10.19,28.89,8.81,13.19-1.5,23.77-8.49,27-16.95a8.44,8.44,0,0,0,4-8.16Z" transform="translate(-168.15 -223.94)"/><path class="cls-12" d="M550.67,457a15.34,15.34,0,0,1,3.84,8.41,14.62,14.62,0,0,1-.12,4.07A12,12,0,0,0,550.67,457Z" transform="translate(-168.15 -223.94)"/><path d="M524.43,462.71h0l-4.5-1.24,0,0,0,0a0,0,0,0,1,0,0s0,0,0,0,0,0,0,0l0,0H520l4.49,1.25h0l0,0v0a0,0,0,0,1,0,0v0l0,0h-.06Z" transform="translate(-168.15 -223.94)"/><path d="M541.23,460.48h-.06a.07.07,0,0,1,0-.05s0,0,0-.06a.1.1,0,0,1,0,0l4.15-2.14h.06l0,0,0,0v.06l0,0,0,0-4.14,2.13,0,0Z" transform="translate(-168.15 -223.94)"/><path class="cls-5" d="M528.26,464.87l10.82-1.23a4.53,4.53,0,0,1,5,4h0l-19.8,2.25a4.52,4.52,0,0,1,4-5Z" transform="translate(-168.15 -223.94)"/><path class="cls-14" d="M545.33,465.22a2.35,2.35,0,1,0-2.59-2.07A2.34,2.34,0,0,0,545.33,465.22Z" transform="translate(-168.15 -223.94)"/><path class="cls-14" d="M521.7,467.9a2.35,2.35,0,1,0-2.59-2.07A2.35,2.35,0,0,0,521.7,467.9Z" transform="translate(-168.15 -223.94)"/><path class="cls-12" d="M491,476.07a6.42,6.42,0,0,1,1.4-8.93,6.29,6.29,0,0,1,3.06-1.2S488.28,468.67,491,476.07Z" transform="translate(-168.15 -223.94)"/><path class="cls-12" d="M495.24,464a8.29,8.29,0,0,1,3.7.41A4.6,4.6,0,0,0,495.24,464Z" transform="translate(-168.15 -223.94)"/><path class="cls-12" d="M542.23,476.68c-1.26,1.23-3.93,2.27-7.1,2.63s-6-.06-7.51-1C527.62,478.33,535.27,480.26,542.23,476.68Z" transform="translate(-168.15 -223.94)"/><path d="M516.45,454l-.12-.11c1.65-1.94,6-3.57,11.13-4.16s9.74,0,11.78,1.57l-.09.12c-2-1.48-6.68-2.09-11.67-1.52S518.05,452.15,516.45,454Z" transform="translate(-168.15 -223.94)"/><path d="M513.6,452.48l-.12-.11c1.65-1.94,6-3.58,11.13-4.16s9.74,0,11.79,1.56l-.1.13c-2-1.48-6.67-2.09-11.67-1.53S515.2,450.59,513.6,452.48Z" transform="translate(-168.15 -223.94)"/><path d="M533.63,448.77c-2-1.49-6.67-2.1-11.67-1.53-4.64.52-8.7,1.93-10.61,3.67l-.11-.12c1.93-1.76,6-3.18,10.7-3.71,5.11-.58,9.74,0,11.79,1.56Z" transform="translate(-168.15 -223.94)"/><path class="cls-13" d="M569.6,557.37s.25,6.43,5.8,8.87l4.19-17.43-4.8.06Z" transform="translate(-168.15 -223.94)"/><path class="cls-8" d="M569.6,557.37s-2-22.14,32.29-22.44l-6.19,14.3S579.48,546.29,569.6,557.37Z" transform="translate(-168.15 -223.94)"/><path class="cls-13" d="M602.54,566s1.39-4.38.42-7.56c0,0,7.51,2.18,11.25.29l2.19,3.78Z" transform="translate(-168.15 -223.94)"/><path class="cls-8" d="M602.54,566s18.2-7.52,22.1-22.5c0,0,8.4,6.94,9,13S602.54,566,602.54,566Z" transform="translate(-168.15 -223.94)"/><path class="cls-15" d="M348.53,400s9.81,97.22,94.25,145.16c58.57,33.26,165.5,26.83,278.44,14L371.1,598.86Z" transform="translate(-168.15 -223.94)"/></svg>