<svg width="50" height="17" viewBox="0 0 50 17" fill="none" xmlns="http://www.w3.org/2000/svg">
<path d="M9.83091 10.962C9.83091 11.1673 9.77225 11.38 9.65491 11.6C9.55225 11.82 9.42025 12.04 9.25891 12.26C9.09758 12.48 8.92158 12.6927 8.73091 12.898C8.54025 13.0887 8.36425 13.2573 8.20291 13.404C7.80691 13.756 7.39625 14.0933 6.97091 14.416C6.56025 14.724 6.12758 15.0027 5.67291 15.252C5.23291 15.5013 4.77091 15.6993 4.28691 15.846C3.80291 15.9927 3.29691 16.066 2.76891 16.066C1.17025 16.066 0.370914 15.2447 0.370914 13.602C0.370914 13.4407 0.436914 13.1253 0.568914 12.656C0.700914 12.1867 0.869581 11.6513 1.07491 11.05C1.28025 10.4487 1.52225 9.818 1.80091 9.158C2.07958 8.498 2.36558 7.89667 2.65891 7.354C2.95225 6.79667 3.23825 6.342 3.51691 5.99C3.81025 5.638 4.08158 5.462 4.33091 5.462C4.49225 5.462 4.60958 5.51333 4.68291 5.616C4.77091 5.71867 4.81491 5.82867 4.81491 5.946C4.80025 6.034 4.69758 6.22467 4.50691 6.518C4.31625 6.79667 4.11825 7.08267 3.91291 7.376C3.88358 7.42 3.83225 7.49333 3.75891 7.596C3.68558 7.69867 3.61225 7.80133 3.53891 7.904C3.45091 8.02133 3.36291 8.146 3.27491 8.278C3.21625 8.38067 3.08425 8.64467 2.87891 9.07C2.68825 9.48067 2.48291 9.96467 2.26291 10.522C2.04291 11.0647 1.84491 11.6367 1.66891 12.238C1.49291 12.8247 1.40491 13.338 1.40491 13.778C1.40491 14.0273 1.45625 14.2253 1.55891 14.372C1.67625 14.5187 1.80825 14.6287 1.95491 14.702C2.11625 14.7753 2.27758 14.8267 2.43891 14.856C2.61491 14.8707 2.76891 14.878 2.90091 14.878C3.44358 14.878 4.01558 14.7607 4.61691 14.526C5.23291 14.2767 5.81958 13.954 6.37691 13.558C6.93425 13.162 7.44758 12.7073 7.91691 12.194C8.38625 11.666 8.75291 11.1233 9.01691 10.566C9.07558 10.4633 9.13425 10.3973 9.19291 10.368C9.26625 10.3387 9.33225 10.324 9.39091 10.324C9.50825 10.324 9.61091 10.4047 9.69891 10.566C9.78691 10.7273 9.83091 10.8593 9.83091 10.962ZM16.9031 9.29C16.9031 9.39267 16.8591 9.48067 16.7711 9.554C16.6831 9.61267 16.5804 9.664 16.4631 9.708C16.3457 9.752 16.2284 9.78867 16.1111 9.818C15.9937 9.83267 15.8984 9.84 15.8251 9.84C15.6051 9.84 15.4584 9.82533 15.3851 9.796C15.3117 9.76667 15.2531 9.752 15.2091 9.752C14.8424 9.752 14.5491 9.78133 14.3291 9.84C14.1091 9.89867 13.9331 9.994 13.8011 10.126C13.6837 10.258 13.6031 10.4267 13.5591 10.632C13.5297 10.8227 13.5151 11.0573 13.5151 11.336C13.5151 11.8053 13.5297 12.1793 13.5591 12.458C13.6031 12.7367 13.6397 12.964 13.6691 13.14C13.7131 13.316 13.7497 13.4553 13.7791 13.558C13.8231 13.646 13.8451 13.734 13.8451 13.822C13.8451 13.9393 13.7791 14.064 13.6471 14.196C13.5297 14.328 13.4197 14.394 13.3171 14.394C13.1411 14.394 12.9797 14.24 12.8331 13.932C12.7011 13.6093 12.5837 13.2353 12.4811 12.81C12.3931 12.37 12.3197 11.9373 12.2611 11.512C12.2024 11.0867 12.1731 10.764 12.1731 10.544C12.1731 10.2947 12.1951 10.06 12.2391 9.84C12.2831 9.60533 12.3417 9.40733 12.4151 9.246C12.4884 9.07 12.5691 8.93067 12.6571 8.828C12.7451 8.72533 12.8331 8.674 12.9211 8.674C12.9944 8.674 13.0531 8.70333 13.0971 8.762C13.1411 8.806 13.1777 8.86467 13.2071 8.938C13.2364 8.99667 13.2657 9.05533 13.2951 9.114C13.3391 9.158 13.3904 9.18 13.4491 9.18C13.5811 9.18 13.7937 9.114 14.0871 8.982C14.3804 8.85 14.7397 8.784 15.1651 8.784C15.5611 8.784 15.8544 8.79867 16.0451 8.828C16.2504 8.84267 16.4484 8.88667 16.6391 8.96C16.6831 8.97467 16.7344 9.01133 16.7931 9.07C16.8664 9.114 16.9031 9.18733 16.9031 9.29ZM24.788 13.69C24.8027 13.7193 24.81 13.7633 24.81 13.822C24.81 13.91 24.744 14.042 24.612 14.218C24.568 14.2767 24.4727 14.372 24.326 14.504C24.1793 14.636 23.9813 14.768 23.732 14.9C23.4827 15.032 23.1747 15.1493 22.808 15.252C22.456 15.3547 22.038 15.406 21.554 15.406C21.2167 15.406 20.8867 15.3327 20.564 15.186C20.2413 15.0247 19.9553 14.7973 19.706 14.504C19.4567 14.196 19.2513 13.822 19.09 13.382C18.9287 12.9273 18.848 12.3993 18.848 11.798C18.848 11.226 18.9213 10.6907 19.068 10.192C19.2147 9.69333 19.398 9.25333 19.618 8.872C19.8527 8.49067 20.1093 8.19 20.388 7.97C20.6667 7.75 20.938 7.64 21.202 7.64C21.4367 7.64 21.6713 7.69133 21.906 7.794C22.1553 7.882 22.3753 7.99933 22.566 8.146C22.7713 8.29267 22.9327 8.46133 23.05 8.652C23.1673 8.828 23.226 9.01133 23.226 9.202C23.226 9.422 23.1233 9.64933 22.918 9.884C22.7273 10.1187 22.4927 10.3387 22.214 10.544C21.9353 10.7347 21.6567 10.896 21.378 11.028C21.0993 11.1453 20.8793 11.204 20.718 11.204C20.63 11.204 20.5493 11.1673 20.476 11.094C20.4173 11.006 20.388 10.9033 20.388 10.786C20.388 10.5807 20.476 10.4193 20.652 10.302C20.8427 10.1847 21.048 10.082 21.268 9.994C21.488 9.89133 21.686 9.774 21.862 9.642C22.0527 9.51 22.148 9.32667 22.148 9.092C22.148 9.06267 22.1113 8.98933 22.038 8.872C21.9647 8.75467 21.7667 8.696 21.444 8.696C21.2973 8.696 21.1287 8.784 20.938 8.96C20.7473 9.12133 20.564 9.34867 20.388 9.642C20.212 9.92067 20.0653 10.258 19.948 10.654C19.8307 11.0353 19.772 11.4533 19.772 11.908C19.772 12.2893 19.838 12.634 19.97 12.942C20.1167 13.25 20.3 13.514 20.52 13.734C20.74 13.9393 20.9967 14.1007 21.29 14.218C21.5833 14.3353 21.884 14.394 22.192 14.394C22.412 14.394 22.6467 14.35 22.896 14.262C23.16 14.1593 23.402 14.0567 23.622 13.954C23.8567 13.8367 24.0547 13.734 24.216 13.646C24.392 13.5433 24.502 13.492 24.546 13.492C24.59 13.492 24.634 13.514 24.678 13.558C24.7367 13.602 24.7733 13.646 24.788 13.69ZM23.534 4.384C23.534 4.50133 23.446 4.67 23.27 4.89C23.094 5.11 22.8813 5.33733 22.632 5.572C22.3973 5.80667 22.148 6.02667 21.884 6.232C21.6347 6.42267 21.4367 6.55467 21.29 6.628C21.1727 6.68667 21.07 6.72333 20.982 6.738C20.894 6.75267 20.8207 6.76 20.762 6.76C20.6447 6.76 20.498 6.694 20.322 6.562C20.146 6.43 20.058 6.30533 20.058 6.188C20.058 6.15867 20.124 6.122 20.256 6.078C20.388 6.01933 20.5347 5.946 20.696 5.858C20.8427 5.77 21.0333 5.63067 21.268 5.44C21.5173 5.23467 21.7593 5.03667 21.994 4.846C22.2433 4.64067 22.4633 4.46467 22.654 4.318C22.8593 4.17133 22.9987 4.098 23.072 4.098C23.1747 4.098 23.2773 4.12733 23.38 4.186C23.4827 4.24467 23.534 4.31067 23.534 4.384ZM32.5679 12.458C32.5679 12.5313 32.5312 12.6047 32.4579 12.678C32.3992 12.7367 32.3626 12.8027 32.3479 12.876C32.3479 13.0373 32.3772 13.1913 32.4359 13.338C32.5092 13.4847 32.5459 13.6607 32.5459 13.866C32.5459 14.0567 32.4872 14.152 32.3699 14.152C32.2232 14.152 32.1132 14.174 32.0399 14.218C31.9812 14.2473 31.8712 14.2767 31.7099 14.306C31.6219 14.306 31.5266 14.2253 31.4239 14.064C31.3652 13.9907 31.3139 13.9027 31.2699 13.8C31.2699 13.7853 31.2259 13.8147 31.1379 13.888C31.0646 13.9613 30.9326 14.0493 30.7419 14.152C30.5659 14.24 30.3166 14.328 29.9939 14.416C29.6859 14.4893 29.2899 14.526 28.8059 14.526C28.3952 14.526 28.0359 14.438 27.7279 14.262C27.4199 14.0713 27.1632 13.8293 26.9579 13.536C26.7672 13.2427 26.6206 12.9127 26.5179 12.546C26.4299 12.1647 26.3859 11.7833 26.3859 11.402C26.3859 11.05 26.4226 10.72 26.4959 10.412C26.5839 10.0893 26.7012 9.81067 26.8479 9.576C26.9946 9.32667 27.1779 9.12867 27.3979 8.982C27.6179 8.83533 27.8746 8.762 28.1679 8.762C28.4466 8.762 28.7252 8.85 29.0039 9.026C29.2826 9.202 29.5319 9.39267 29.7519 9.598C29.9719 9.80333 30.1479 9.994 30.2799 10.17C30.4266 10.3313 30.4999 10.412 30.4999 10.412C30.2946 9.268 30.1112 8.234 29.9499 7.31C29.8766 6.914 29.8032 6.52533 29.7299 6.144C29.6712 5.748 29.6126 5.396 29.5539 5.088C29.4952 4.78 29.4439 4.52333 29.3999 4.318C29.3706 4.098 29.3559 3.966 29.3559 3.922C29.3412 3.834 29.3266 3.68 29.3119 3.46C29.2972 3.22533 29.2826 2.98333 29.2679 2.734C29.2532 2.48467 29.2386 2.25733 29.2239 2.052C29.2092 1.84667 29.1946 1.71467 29.1799 1.656C29.1359 1.50933 29.0772 1.326 29.0039 1.106C28.9452 0.885999 28.9159 0.761333 28.9159 0.732C28.9159 0.658666 28.9526 0.570666 29.0259 0.467999C29.0992 0.350666 29.1946 0.291999 29.3119 0.291999C29.3999 0.291999 29.4806 0.299332 29.5539 0.313999C29.6272 0.328666 29.6932 0.372666 29.7519 0.446C29.8106 0.519333 29.8619 0.636666 29.9059 0.797999C29.9646 0.944666 30.0159 1.15733 30.0599 1.436C30.0746 1.58267 30.1186 1.86133 30.1919 2.272C30.2652 2.68267 30.3386 3.13 30.4119 3.614C30.4852 4.098 30.5586 4.56 30.6319 5C30.7052 5.44 30.7566 5.76267 30.7859 5.968C30.8592 6.52533 30.9546 7.134 31.0719 7.794C31.2039 8.43933 31.3359 9.06267 31.4679 9.664C31.5999 10.2653 31.7319 10.8007 31.8639 11.27C31.9959 11.7247 32.1132 12.0327 32.2159 12.194C32.2452 12.2527 32.3039 12.2967 32.3919 12.326C32.4799 12.3407 32.5386 12.3847 32.5679 12.458ZM30.9399 12.898C30.9252 12.854 30.8299 12.6707 30.6539 12.348C30.4926 12.0107 30.2799 11.6513 30.0159 11.27C29.7666 10.874 29.4806 10.522 29.1579 10.214C28.8499 9.906 28.5492 9.752 28.2559 9.752C28.0066 9.752 27.8012 9.94267 27.6399 10.324C27.4932 10.7053 27.4199 11.1453 27.4199 11.644C27.4199 12.2013 27.5812 12.6487 27.9039 12.986C28.2412 13.3233 28.6152 13.492 29.0259 13.492C29.3779 13.492 29.7446 13.4333 30.1259 13.316C30.5072 13.1987 30.7786 13.0593 30.9399 12.898ZM35.5676 5.88C35.5676 5.90933 35.5163 5.968 35.4136 6.056C35.311 6.144 35.1863 6.23933 35.0396 6.342C34.9076 6.43 34.7683 6.51067 34.6216 6.584C34.475 6.65733 34.3576 6.694 34.2696 6.694C34.211 6.694 34.1303 6.694 34.0276 6.694C33.9396 6.67933 33.8443 6.65 33.7416 6.606C33.6536 6.562 33.573 6.50333 33.4996 6.43C33.4263 6.342 33.3896 6.232 33.3896 6.1C33.3896 5.89467 33.463 5.704 33.6096 5.528C33.7563 5.33733 33.947 5.242 34.1816 5.242C34.2256 5.242 34.321 5.264 34.4676 5.308C34.629 5.33733 34.7903 5.38133 34.9516 5.44C35.113 5.49867 35.2523 5.56467 35.3696 5.638C35.5016 5.71133 35.5676 5.792 35.5676 5.88ZM36.2936 14.108C36.2936 14.2107 36.213 14.2987 36.0516 14.372C35.905 14.4453 35.795 14.482 35.7216 14.482C35.575 14.482 35.443 14.3867 35.3256 14.196C35.2083 14.0053 35.1056 13.7853 35.0176 13.536C34.9296 13.2867 34.8563 13.052 34.7976 12.832C34.739 12.5973 34.695 12.436 34.6656 12.348C34.6216 12.2013 34.563 12.0253 34.4896 11.82C34.4163 11.6147 34.343 11.4167 34.2696 11.226C34.211 11.0353 34.1596 10.8667 34.1156 10.72C34.0716 10.5733 34.0496 10.4927 34.0496 10.478C34.0496 10.2727 34.0863 10.082 34.1596 9.906C34.2476 9.73 34.3503 9.642 34.4676 9.642C34.5996 9.642 34.739 9.74467 34.8856 9.95C35.0323 10.1553 35.1716 10.4193 35.3036 10.742C35.4503 11.05 35.5823 11.3947 35.6996 11.776C35.817 12.1427 35.9196 12.4947 36.0076 12.832C36.0956 13.1547 36.1616 13.4407 36.2056 13.69C36.2643 13.9247 36.2936 14.064 36.2936 14.108ZM43.5157 6.056C43.325 6.276 43.0537 6.496 42.7017 6.716C42.3497 6.92133 41.9977 7.112 41.6457 7.288C41.2937 7.464 40.9857 7.618 40.7217 7.75C40.4577 7.86733 40.3257 7.948 40.3257 7.992C40.3257 8.036 40.355 8.168 40.4137 8.388C40.4723 8.608 40.5383 8.872 40.6117 9.18C40.6997 9.47333 40.7877 9.78133 40.8757 10.104C40.9637 10.4267 41.037 10.7127 41.0957 10.962C41.125 11.1087 41.1617 11.2993 41.2057 11.534C41.2497 11.7687 41.2863 12.0033 41.3157 12.238C41.3597 12.4727 41.3963 12.6853 41.4257 12.876C41.455 13.052 41.4697 13.1473 41.4697 13.162C41.4697 13.382 41.433 13.6093 41.3597 13.844C41.2863 14.0787 41.169 14.196 41.0077 14.196C40.9197 14.196 40.839 14.1593 40.7657 14.086C40.6923 14.0127 40.6263 13.932 40.5677 13.844C40.509 13.7413 40.465 13.646 40.4357 13.558C40.4063 13.47 40.3917 13.404 40.3917 13.36C40.3917 13.3307 40.3917 13.2867 40.3917 13.228C40.4063 13.1693 40.4137 13.1033 40.4137 13.03C40.4137 12.7513 40.3697 12.348 40.2817 11.82C40.2523 11.6587 40.1937 11.4093 40.1057 11.072C40.0177 10.7347 39.9297 10.39 39.8417 10.038C39.739 9.62733 39.6217 9.18 39.4897 8.696C39.431 8.49067 39.3943 8.388 39.3797 8.388C39.277 8.388 39.101 8.454 38.8517 8.586C38.617 8.70333 38.3457 8.85733 38.0377 9.048C37.7297 9.224 37.407 9.422 37.0697 9.642C36.7323 9.84733 36.417 10.0453 36.1237 10.236C35.8303 10.412 35.581 10.566 35.3757 10.698C35.1557 10.8153 35.0237 10.874 34.9797 10.874C34.789 10.874 34.635 10.808 34.5177 10.676C34.4003 10.544 34.3417 10.3973 34.3417 10.236C34.3417 10.148 34.4663 10.0233 34.7157 9.862C34.9503 9.686 35.251 9.49533 35.6177 9.29C35.9697 9.08467 36.3583 8.872 36.7837 8.652C37.1943 8.432 37.5757 8.234 37.9277 8.058C38.2943 7.882 38.595 7.73533 38.8297 7.618C39.079 7.50067 39.2037 7.442 39.2037 7.442C39.0717 6.76733 38.9617 6.166 38.8737 5.638C38.8003 5.18333 38.727 4.76533 38.6537 4.384C38.595 4.00267 38.5657 3.79733 38.5657 3.768C38.5657 3.57733 38.6023 3.438 38.6757 3.35C38.7637 3.24733 38.859 3.196 38.9617 3.196C39.123 3.196 39.2257 3.306 39.2697 3.526C39.431 4.318 39.5777 5.022 39.7097 5.638C39.8563 6.254 39.9957 6.75267 40.1277 7.134C40.2597 7.10467 40.487 7.024 40.8097 6.892C41.1323 6.74533 41.4697 6.59133 41.8217 6.43C42.1737 6.26867 42.489 6.12933 42.7677 6.012C43.061 5.88 43.2297 5.814 43.2737 5.814C43.3617 5.814 43.413 5.84333 43.4277 5.902C43.457 5.96067 43.4863 6.012 43.5157 6.056ZM49.6611 13.096C49.6611 13.3453 49.5731 13.5653 49.3971 13.756C49.2357 13.932 49.0231 14.086 48.7591 14.218C48.5097 14.3353 48.2311 14.4307 47.9231 14.504C47.6151 14.5773 47.3217 14.636 47.0431 14.68C46.7644 14.7093 46.5151 14.7313 46.2951 14.746C46.0897 14.746 45.9577 14.746 45.8991 14.746C45.5764 14.746 45.3271 14.6947 45.1511 14.592C44.9751 14.4893 44.8871 14.306 44.8871 14.042C44.8871 13.954 44.8944 13.8807 44.9091 13.822C44.9237 13.7487 44.9824 13.712 45.0851 13.712C45.1291 13.712 45.2024 13.7267 45.3051 13.756C45.4077 13.7707 45.4884 13.778 45.5471 13.778C45.6057 13.778 45.7891 13.7707 46.0971 13.756C46.4197 13.7267 46.7571 13.6827 47.1091 13.624C47.4757 13.5653 47.7984 13.4847 48.0771 13.382C48.3704 13.2647 48.5171 13.118 48.5171 12.942C48.5171 12.9127 48.3631 12.8247 48.0551 12.678C47.7617 12.5167 47.3144 12.2527 46.7131 11.886C46.2437 11.5927 45.9137 11.2993 45.7231 11.006C45.5324 10.698 45.4371 10.2873 45.4371 9.774C45.4371 9.45133 45.5031 9.18733 45.6351 8.982C45.7817 8.77667 45.9724 8.61533 46.2071 8.498C46.4564 8.38067 46.7351 8.3 47.0431 8.256C47.3657 8.19733 47.7031 8.168 48.0551 8.168C48.0844 8.168 48.1724 8.18267 48.3191 8.212C48.4804 8.24133 48.6491 8.29267 48.8251 8.366C49.0011 8.42467 49.1551 8.50533 49.2871 8.608C49.4337 8.696 49.5071 8.79867 49.5071 8.916C49.5071 8.94533 49.4777 8.98933 49.4191 9.048C49.3751 9.10667 49.2944 9.21667 49.1771 9.378C49.1331 9.36333 49.0524 9.34133 48.9351 9.312C48.8324 9.28267 48.7077 9.25333 48.5611 9.224C48.4291 9.18 48.2897 9.15067 48.1431 9.136C47.9964 9.10667 47.8791 9.092 47.7911 9.092C47.4097 9.092 47.1017 9.16533 46.8671 9.312C46.6324 9.444 46.5151 9.708 46.5151 10.104C46.5151 10.2947 46.5884 10.4707 46.7351 10.632C46.8964 10.7933 47.0944 10.9473 47.3291 11.094C47.5637 11.226 47.8131 11.3653 48.0771 11.512C48.3557 11.644 48.6124 11.7907 48.8471 11.952C49.0817 12.1133 49.2724 12.2893 49.4191 12.48C49.5804 12.656 49.6611 12.8613 49.6611 13.096Z" fill="#656565"/>
</svg>
