<svg width="284" height="141" viewBox="0 0 284 141" fill="none" xmlns="http://www.w3.org/2000/svg">
<path d="M46.6752 3.8H40.1552V18H46.5952C51.3352 18 54.4152 16.06 54.4152 10.84C54.4152 5.9 51.1952 3.8 46.6752 3.8ZM45.1552 13.4V8.4H46.5752C48.3952 8.4 49.2552 8.94 49.2552 10.84C49.2552 12.9 48.3952 13.4 46.5752 13.4H45.1552ZM55.3309 18H67.7309V13.6H60.3309V12.26H67.4109V9.46H60.3309V8.2H67.7309V3.8H55.3309V18ZM72.6477 10.9C72.6477 15.72 76.1477 18.2 80.5677 18.2C82.5077 18.2 84.1877 17.78 85.4877 16.98L86.6277 18.12L87.7677 16.98L86.7277 15.94C87.8277 14.74 88.4477 13.04 88.4477 10.9C88.4477 6.42 85.2477 3.6 80.5677 3.6C76.1477 3.6 72.6477 6.36 72.6477 10.9ZM77.7677 10.9C77.7677 9.24 78.8877 8.14 80.5677 8.14C82.2877 8.14 83.3477 9.26 83.3477 10.9C83.3477 11.44 83.2477 11.9 83.0677 12.3L82.1877 11.42L81.0477 12.56L81.9077 13.4C81.5277 13.58 81.0677 13.66 80.5677 13.66C78.8877 13.66 77.7677 12.62 77.7677 10.9ZM98.7739 3.8V11.66C98.7739 12.92 97.6739 13.6 96.5339 13.6C95.3539 13.6 94.3139 12.92 94.3139 11.66V3.8H89.3139V11.54C89.3139 16.08 92.3739 18.2 96.5139 18.2C100.894 18.2 103.774 16.1 103.774 11.54V3.8H98.7739ZM104.64 10.9C104.64 15.72 108.14 18.2 112.56 18.2C117.34 18.2 120.44 15.72 120.44 10.9C120.44 6.42 117.24 3.6 112.56 3.6C108.14 3.6 104.64 6.36 104.64 10.9ZM109.76 10.9C109.76 9.24 110.88 8.14 112.56 8.14C114.28 8.14 115.34 9.26 115.34 10.9C115.34 12.64 114.3 13.66 112.56 13.66C110.88 13.66 109.76 12.62 109.76 10.9ZM126.366 3.8H121.366V18H126.366V3.8ZM131.28 10.9C131.28 15.72 134.78 18.2 139.2 18.2C143.98 18.2 147.08 15.72 147.08 10.9C147.08 6.42 143.88 3.6 139.2 3.6C134.78 3.6 131.28 6.36 131.28 10.9ZM136.4 10.9C136.4 9.24 137.52 8.14 139.2 8.14C140.92 8.14 141.98 9.26 141.98 10.9C141.98 12.64 140.94 13.66 139.2 13.66C137.52 13.66 136.4 12.62 136.4 10.9ZM157.767 3.8V10.74L153.067 3.8H147.987V18H152.987V10.98L157.887 18H162.827V3.8H157.767ZM175.006 14.44C179.946 14.44 182.106 12.64 182.106 9.08C182.106 5.84 179.946 3.8 175.006 3.8H168.026V18H173.026V14.44H175.006ZM175.006 10.24H173.026V8H175.006C176.486 8 176.906 8.42 176.906 9.1C176.906 9.8 176.526 10.24 175.006 10.24ZM192.062 18H197.362L192.542 3.8H185.722L180.902 18H186.222L186.862 15.84H191.422L192.062 18ZM189.142 8.18L190.362 12.26H187.922L189.142 8.18ZM204.947 14.44C205.087 14.44 205.227 14.44 205.367 14.44L206.967 18H212.107L209.767 13.48C211.327 12.6 212.047 11.14 212.047 9.08C212.047 5.84 209.887 3.8 204.947 3.8H197.967V18H202.967V14.44H204.947ZM204.947 10.24H202.967V8H204.947C206.427 8 206.847 8.42 206.847 9.1C206.847 9.8 206.467 10.24 204.947 10.24ZM213.065 18H224.745V13.4H218.065V3.8H213.065V18ZM225.663 18H238.063V13.6H230.663V12.26H237.743V9.46H230.663V8.2H238.063V3.8H225.663V18ZM249.3 3.66C245.28 3.66 242.88 5.84 243.16 8.78H248.02C247.84 7.68 248.26 7.06 249.26 7.06C250.08 7.06 250.3 7.48 250.3 8.12C250.3 9.86 246.66 9.22 246.66 13.28V14.06H250.42V13.42C250.42 10.84 255.58 11.32 255.58 7.92C255.58 5.26 253.24 3.66 249.3 3.66ZM246.66 15.1V18H250.48V15.1H246.66Z" fill="#57517D"/>
<path d="M27.1529 53H28.8629V44.705L34.2629 53H36.4979V42.5H34.7729V50.795L29.3729 42.5H27.1529V53ZM42.4834 45.14C40.0384 45.14 38.3734 46.985 38.3734 49.22C38.3734 51.455 40.0384 53.3 42.4834 53.3C44.9434 53.3 46.5934 51.455 46.5934 49.22C46.5934 46.985 44.9434 45.14 42.4834 45.14ZM42.4984 51.845C41.0434 51.845 39.9934 50.675 39.9934 49.22C39.9934 47.765 41.0434 46.595 42.4984 46.595C43.9234 46.595 44.9734 47.75 44.9734 49.22C44.9734 50.66 43.9234 51.845 42.4984 51.845ZM48.5716 50.375C48.5716 52.22 49.5016 53.15 51.2716 53.15C51.8566 53.15 52.2766 53.075 52.6366 52.925V51.56C52.3666 51.665 52.0216 51.725 51.5116 51.725C50.6716 51.725 50.1316 51.395 50.1316 50.375V46.835H52.6366V45.44H50.1316V43.55H48.5716V45.44H47.1466V46.835H48.5716V50.375ZM54.179 53H55.724V47.96C56.114 47.315 56.744 46.805 57.704 46.805C58.019 46.805 58.259 46.85 58.499 46.91V45.395C58.304 45.335 58.079 45.29 57.839 45.29C56.909 45.29 56.249 45.71 55.724 46.295V45.44H54.179V53ZM66.329 51.77L65.204 50.87C64.739 51.5 63.974 51.905 63.059 51.905C61.604 51.905 60.599 51.05 60.494 49.4H66.074C66.134 49.175 66.179 48.83 66.179 48.485C66.179 46.565 64.829 45.14 62.744 45.14C60.344 45.14 58.904 46.955 58.904 49.22C58.904 51.425 60.449 53.3 63.059 53.3C64.469 53.3 65.624 52.715 66.329 51.77ZM62.714 46.43C63.929 46.43 64.604 47.3 64.634 48.245H60.569C60.809 47.075 61.589 46.43 62.714 46.43ZM79.5982 49.22C79.5982 47.015 78.1132 45.14 75.7432 45.14C74.6482 45.14 73.8382 45.53 73.1932 46.22V41.75H71.6482V53H73.1932V52.22C73.8382 52.91 74.6482 53.3 75.7432 53.3C78.1132 53.3 79.5982 51.425 79.5982 49.22ZM75.5482 46.595C77.0032 46.595 77.9782 47.735 77.9782 49.22C77.9782 50.705 77.0032 51.845 75.5482 51.845C74.5732 51.845 73.7482 51.395 73.1932 50.57V47.87C73.7182 47.06 74.5582 46.595 75.5482 46.595ZM86.3659 49.76C86.3659 51.065 85.6609 51.845 84.5059 51.845C83.3209 51.845 82.6309 51.065 82.6309 49.76V45.44H81.0709V49.685C81.0709 51.95 82.3759 53.3 84.5059 53.3C86.6209 53.3 87.9259 51.95 87.9259 49.685V45.44H86.3659V49.76ZM90.5119 50.375C90.5119 52.22 91.4419 53.15 93.2119 53.15C93.7969 53.15 94.2169 53.075 94.5769 52.925V51.56C94.3069 51.665 93.9619 51.725 93.4519 51.725C92.6119 51.725 92.0719 51.395 92.0719 50.375V46.835H94.5769V45.44H92.0719V43.55H90.5119V45.44H89.0869V46.835H90.5119V50.375ZM103.402 51.845C101.932 51.845 100.882 50.72 100.882 49.22C100.882 47.735 101.932 46.595 103.387 46.595C104.257 46.595 104.947 47.015 105.367 47.6L106.582 46.67C105.892 45.74 104.767 45.14 103.387 45.14C100.852 45.14 99.2622 47.015 99.2622 49.22C99.2622 51.425 100.852 53.3 103.387 53.3C104.782 53.3 105.892 52.7 106.582 51.77L105.367 50.84C104.947 51.425 104.257 51.845 103.402 51.845ZM109.114 46.655L110.749 42.5H108.994L107.689 46.655H109.114ZM118.172 51.77L117.047 50.87C116.582 51.5 115.817 51.905 114.902 51.905C113.447 51.905 112.442 51.05 112.337 49.4H117.917C117.977 49.175 118.022 48.83 118.022 48.485C118.022 46.565 116.672 45.14 114.587 45.14C112.187 45.14 110.747 46.955 110.747 49.22C110.747 51.425 112.292 53.3 114.902 53.3C116.312 53.3 117.467 52.715 118.172 51.77ZM114.557 46.43C115.772 46.43 116.447 47.3 116.477 48.245H112.412C112.652 47.075 113.432 46.43 114.557 46.43ZM118.91 51.935C119.615 52.79 120.56 53.3 121.835 53.3C123.245 53.3 124.445 52.415 124.46 50.93C124.46 48.335 120.755 48.845 120.755 47.33C120.755 46.82 121.115 46.4 121.835 46.4C122.465 46.4 122.99 46.775 123.395 47.315L124.445 46.4C123.905 45.68 122.93 45.14 121.82 45.14C120.305 45.14 119.255 46.13 119.255 47.375C119.255 50.045 122.96 49.49 122.96 51.02C122.96 51.59 122.555 52.04 121.82 52.04C121.07 52.04 120.47 51.635 119.975 51.005L118.91 51.935ZM126.637 50.375C126.637 52.22 127.567 53.15 129.337 53.15C129.922 53.15 130.342 53.075 130.702 52.925V51.56C130.432 51.665 130.087 51.725 129.577 51.725C128.737 51.725 128.197 51.395 128.197 50.375V46.835H130.702V45.44H128.197V43.55H126.637V45.44H125.212V46.835H126.637V50.375ZM135.387 49.22C135.387 51.425 136.872 53.3 139.257 53.3C140.337 53.3 141.147 52.91 141.777 52.235V53H143.352V41.75H141.777V46.205C141.147 45.53 140.337 45.14 139.257 45.14C136.872 45.14 135.387 47.015 135.387 49.22ZM137.022 49.22C137.022 47.735 137.997 46.595 139.452 46.595C140.397 46.595 141.222 47.03 141.777 47.855V50.585C141.267 51.38 140.427 51.845 139.452 51.845C137.997 51.845 137.022 50.705 137.022 49.22ZM152.37 51.77L151.245 50.87C150.78 51.5 150.015 51.905 149.1 51.905C147.645 51.905 146.64 51.05 146.535 49.4H152.115C152.175 49.175 152.22 48.83 152.22 48.485C152.22 46.565 150.87 45.14 148.785 45.14C146.385 45.14 144.945 46.955 144.945 49.22C144.945 51.425 146.49 53.3 149.1 53.3C150.51 53.3 151.665 52.715 152.37 51.77ZM148.755 46.43C149.97 46.43 150.645 47.3 150.675 48.245H146.61C146.85 47.075 147.63 46.43 148.755 46.43ZM161.23 51.845C159.76 51.845 158.71 50.72 158.71 49.22C158.71 47.735 159.76 46.595 161.215 46.595C162.085 46.595 162.775 47.015 163.195 47.6L164.41 46.67C163.72 45.74 162.595 45.14 161.215 45.14C158.68 45.14 157.09 47.015 157.09 49.22C157.09 51.425 158.68 53.3 161.215 53.3C162.61 53.3 163.72 52.7 164.41 51.77L163.195 50.84C162.775 51.425 162.085 51.845 161.23 51.845ZM165.725 53H167.27V47.96C167.66 47.315 168.29 46.805 169.25 46.805C169.565 46.805 169.805 46.85 170.045 46.91V45.395C169.85 45.335 169.625 45.29 169.385 45.29C168.455 45.29 167.795 45.71 167.27 46.295V45.44H165.725V53ZM175.13 44.24L176.9 41.75H175.19L173.63 44.24H175.13ZM177.875 51.77L176.75 50.87C176.285 51.5 175.52 51.905 174.605 51.905C173.15 51.905 172.145 51.05 172.04 49.4H177.62C177.68 49.175 177.725 48.83 177.725 48.485C177.725 46.565 176.375 45.14 174.29 45.14C171.89 45.14 170.45 46.955 170.45 49.22C170.45 51.425 171.995 53.3 174.605 53.3C176.015 53.3 177.17 52.715 177.875 51.77ZM174.26 46.43C175.475 46.43 176.15 47.3 176.18 48.245H172.115C172.355 47.075 173.135 46.43 174.26 46.43ZM186.232 51.77L185.107 50.87C184.642 51.5 183.877 51.905 182.962 51.905C181.507 51.905 180.502 51.05 180.397 49.4H185.977C186.037 49.175 186.082 48.83 186.082 48.485C186.082 46.565 184.732 45.14 182.647 45.14C180.247 45.14 178.807 46.955 178.807 49.22C178.807 51.425 180.352 53.3 182.962 53.3C184.372 53.3 185.527 52.715 186.232 51.77ZM182.617 46.43C183.832 46.43 184.507 47.3 184.537 48.245H180.472C180.712 47.075 181.492 46.43 182.617 46.43ZM187.808 53H189.353V47.96C189.743 47.315 190.373 46.805 191.333 46.805C191.648 46.805 191.888 46.85 192.128 46.91V45.395C191.933 45.335 191.708 45.29 191.468 45.29C190.538 45.29 189.878 45.71 189.353 46.295V45.44H187.808V53ZM202.401 49.76C202.401 51.065 201.696 51.845 200.541 51.845C199.356 51.845 198.666 51.065 198.666 49.76V45.44H197.106V49.685C197.106 51.95 198.411 53.3 200.541 53.3C202.656 53.3 203.961 51.95 203.961 49.685V45.44H202.401V49.76ZM206.01 53H207.555V47.9C207.945 47.24 208.56 46.595 209.595 46.595C210.675 46.595 211.335 47.315 211.335 48.515V53H212.895V48.455C212.895 46.265 211.62 45.14 209.955 45.14C208.875 45.14 208.125 45.575 207.555 46.175V45.44H206.01V53ZM218.74 53H220.285V47.9C220.645 47.255 221.215 46.595 222.175 46.595C223.165 46.595 223.765 47.255 223.765 48.365V53H225.325V48.305C225.325 48.155 225.325 48.02 225.31 47.885C225.715 47.165 226.3 46.595 227.2 46.595C228.175 46.595 228.79 47.255 228.79 48.365V53H230.35V48.305C230.35 46.22 229.135 45.14 227.56 45.14C226.255 45.14 225.505 45.755 224.92 46.505C224.44 45.605 223.57 45.14 222.535 45.14C221.53 45.14 220.825 45.56 220.285 46.145V45.44H218.74V53ZM235.954 45.14C233.509 45.14 231.844 46.985 231.844 49.22C231.844 51.455 233.509 53.3 235.954 53.3C238.414 53.3 240.064 51.455 240.064 49.22C240.064 46.985 238.414 45.14 235.954 45.14ZM235.969 51.845C234.514 51.845 233.464 50.675 233.464 49.22C233.464 47.765 234.514 46.595 235.969 46.595C237.394 46.595 238.444 47.75 238.444 49.22C238.444 50.66 237.394 51.845 235.969 51.845ZM241.168 49.22C241.168 51.425 242.653 53.3 245.038 53.3C246.118 53.3 246.928 52.91 247.558 52.235V53H249.133V41.75H247.558V46.205C246.928 45.53 246.118 45.14 245.038 45.14C242.653 45.14 241.168 47.015 241.168 49.22ZM242.803 49.22C242.803 47.735 243.778 46.595 245.233 46.595C246.178 46.595 247.003 47.03 247.558 47.855V50.585C247.048 51.38 246.208 51.845 245.233 51.845C243.778 51.845 242.803 50.705 242.803 49.22ZM258.151 51.77L257.026 50.87C256.561 51.5 255.796 51.905 254.881 51.905C253.426 51.905 252.421 51.05 252.316 49.4H257.896C257.956 49.175 258.001 48.83 258.001 48.485C258.001 46.565 256.651 45.14 254.566 45.14C252.166 45.14 250.726 46.955 250.726 49.22C250.726 51.425 252.271 53.3 254.881 53.3C256.291 53.3 257.446 52.715 258.151 51.77ZM254.536 46.43C255.751 46.43 256.426 47.3 256.456 48.245H252.391C252.631 47.075 253.411 46.43 254.536 46.43ZM36.6493 70.22C36.6493 72.425 38.1343 74.3 40.5193 74.3C41.5993 74.3 42.4093 73.91 43.0393 73.235V74H44.6143V62.75H43.0393V67.205C42.4093 66.53 41.5993 66.14 40.5193 66.14C38.1343 66.14 36.6493 68.015 36.6493 70.22ZM38.2843 70.22C38.2843 68.735 39.2593 67.595 40.7143 67.595C41.6593 67.595 42.4843 68.03 43.0393 68.855V71.585C42.5293 72.38 41.6893 72.845 40.7143 72.845C39.2593 72.845 38.2843 71.705 38.2843 70.22ZM48.6055 67.655L50.2405 63.5H48.4855L47.1805 67.655H48.6055ZM58.7139 72.77L57.5889 71.87C57.1239 72.5 56.3589 72.905 55.4439 72.905C53.9889 72.905 52.9839 72.05 52.8789 70.4H58.4589C58.5189 70.175 58.5639 69.83 58.5639 69.485C58.5639 67.565 57.2139 66.14 55.1289 66.14C52.7289 66.14 51.2889 67.955 51.2889 70.22C51.2889 72.425 52.8339 74.3 55.4439 74.3C56.8539 74.3 58.0089 73.715 58.7139 72.77ZM55.0989 67.43C56.3139 67.43 56.9889 68.3 57.0189 69.245H52.9539C53.1939 68.075 53.9739 67.43 55.0989 67.43ZM61.3401 74H62.8851V68.9C63.2451 68.255 63.8151 67.595 64.7751 67.595C65.7651 67.595 66.3651 68.255 66.3651 69.365V74H67.9251V69.305C67.9251 69.155 67.9251 69.02 67.9101 68.885C68.3151 68.165 68.9001 67.595 69.8001 67.595C70.7751 67.595 71.3901 68.255 71.3901 69.365V74H72.9501V69.305C72.9501 67.22 71.7351 66.14 70.1601 66.14C68.8551 66.14 68.1051 66.755 67.5201 67.505C67.0401 66.605 66.1701 66.14 65.1351 66.14C64.1301 66.14 63.4251 66.56 62.8851 67.145V66.44H61.3401V74ZM76.094 77.69H77.639V73.22C78.284 73.91 79.094 74.3 80.189 74.3C82.559 74.3 84.044 72.425 84.044 70.22C84.044 68.015 82.559 66.14 80.189 66.14C79.094 66.14 78.284 66.53 77.639 67.22V66.44H76.094V77.69ZM79.994 67.595C81.449 67.595 82.424 68.735 82.424 70.22C82.424 71.705 81.449 72.845 79.994 72.845C79.019 72.845 78.194 72.395 77.639 71.555V68.885C78.179 68.06 79.004 67.595 79.994 67.595ZM86.717 74H88.262V62.75H86.717V74ZM95.0493 66.14C92.6043 66.14 90.9393 67.985 90.9393 70.22C90.9393 72.455 92.6043 74.3 95.0493 74.3C97.5093 74.3 99.1593 72.455 99.1593 70.22C99.1593 67.985 97.5093 66.14 95.0493 66.14ZM95.0643 72.845C93.6093 72.845 92.5593 71.675 92.5593 70.22C92.5593 68.765 93.6093 67.595 95.0643 67.595C96.4893 67.595 97.5393 68.75 97.5393 70.22C97.5393 71.66 96.4893 72.845 95.0643 72.845ZM102.62 64.76C103.19 64.76 103.67 64.28 103.67 63.71C103.67 63.14 103.19 62.66 102.62 62.66C102.05 62.66 101.57 63.14 101.57 63.71C101.57 64.28 102.05 64.76 102.62 64.76ZM101.84 74H103.385V66.44H101.84V74ZM111.905 71.375C111.905 73.22 112.835 74.15 114.605 74.15C115.19 74.15 115.61 74.075 115.97 73.925V72.56C115.7 72.665 115.355 72.725 114.845 72.725C114.005 72.725 113.465 72.395 113.465 71.375V67.835H115.97V66.44H113.465V64.55H111.905V66.44H110.48V67.835H111.905V71.375ZM125.241 72.77L124.116 71.87C123.651 72.5 122.886 72.905 121.971 72.905C120.516 72.905 119.511 72.05 119.406 70.4H124.986C125.046 70.175 125.091 69.83 125.091 69.485C125.091 67.565 123.741 66.14 121.656 66.14C119.256 66.14 117.816 67.955 117.816 70.22C117.816 72.425 119.361 74.3 121.971 74.3C123.381 74.3 124.536 73.715 125.241 72.77ZM121.626 67.43C122.841 67.43 123.516 68.3 123.546 69.245H119.481C119.721 68.075 120.501 67.43 121.626 67.43ZM132.66 77.69H134.205V73.22C134.85 73.91 135.66 74.3 136.755 74.3C139.125 74.3 140.61 72.425 140.61 70.22C140.61 68.015 139.125 66.14 136.755 66.14C135.66 66.14 134.85 66.53 134.205 67.22V66.44H132.66V77.69ZM136.56 67.595C138.015 67.595 138.99 68.735 138.99 70.22C138.99 71.705 138.015 72.845 136.56 72.845C135.585 72.845 134.76 72.395 134.205 71.555V68.885C134.745 68.06 135.57 67.595 136.56 67.595ZM150.182 72.77L149.057 71.87C148.592 72.5 147.827 72.905 146.912 72.905C145.457 72.905 144.452 72.05 144.347 70.4H149.927C149.987 70.175 150.032 69.83 150.032 69.485C150.032 67.565 148.682 66.14 146.597 66.14C144.197 66.14 142.757 67.955 142.757 70.22C142.757 72.425 144.302 74.3 146.912 74.3C148.322 74.3 149.477 73.715 150.182 72.77ZM146.567 67.43C147.782 67.43 148.457 68.3 148.487 69.245H144.422C144.662 68.075 145.442 67.43 146.567 67.43ZM152.808 74H154.353V68.96C154.743 68.315 155.373 67.805 156.333 67.805C156.648 67.805 156.888 67.85 157.128 67.91V66.395C156.933 66.335 156.708 66.29 156.468 66.29C155.538 66.29 154.878 66.71 154.353 67.295V66.44H152.808V74ZM159.578 74H161.123V68.9C161.483 68.255 162.053 67.595 163.013 67.595C164.003 67.595 164.603 68.255 164.603 69.365V74H166.163V69.305C166.163 69.155 166.163 69.02 166.148 68.885C166.553 68.165 167.138 67.595 168.038 67.595C169.013 67.595 169.628 68.255 169.628 69.365V74H171.188V69.305C171.188 67.22 169.973 66.14 168.398 66.14C167.093 66.14 166.343 66.755 165.758 67.505C165.278 66.605 164.408 66.14 163.373 66.14C162.368 66.14 161.663 66.56 161.123 67.145V66.44H159.578V74ZM181.157 72.77L180.032 71.87C179.567 72.5 178.802 72.905 177.887 72.905C176.432 72.905 175.427 72.05 175.322 70.4H180.902C180.962 70.175 181.007 69.83 181.007 69.485C181.007 67.565 179.657 66.14 177.572 66.14C175.172 66.14 173.732 67.955 173.732 70.22C173.732 72.425 175.277 74.3 177.887 74.3C179.297 74.3 180.452 73.715 181.157 72.77ZM177.542 67.43C178.757 67.43 179.432 68.3 179.462 69.245H175.397C175.637 68.075 176.417 67.43 177.542 67.43ZM184.204 71.375C184.204 73.22 185.134 74.15 186.904 74.15C187.489 74.15 187.909 74.075 188.269 73.925V72.56C187.999 72.665 187.654 72.725 187.144 72.725C186.304 72.725 185.764 72.395 185.764 71.375V67.835H188.269V66.44H185.764V64.55H184.204V66.44H182.779V67.835H184.204V71.375ZM191.399 71.375C191.399 73.22 192.329 74.15 194.099 74.15C194.684 74.15 195.104 74.075 195.464 73.925V72.56C195.194 72.665 194.849 72.725 194.339 72.725C193.499 72.725 192.959 72.395 192.959 71.375V67.835H195.464V66.44H192.959V64.55H191.399V66.44H189.974V67.835H191.399V71.375ZM200.142 74.225C201.072 74.225 202.017 73.805 202.557 73.145V74H204.102V69.005C204.102 67.34 202.977 66.14 200.937 66.14C199.587 66.14 198.507 66.71 197.832 67.61L198.987 68.495C199.422 67.88 200.067 67.505 200.892 67.505C201.867 67.505 202.557 68.075 202.557 69.005V69.395L200.112 69.8C198.507 70.07 197.622 70.895 197.622 72.035C197.622 73.37 198.642 74.225 200.142 74.225ZM199.182 71.975C199.182 71.405 199.572 71 200.517 70.835L202.557 70.49V71.795C202.107 72.515 201.372 72.965 200.427 72.965C199.647 72.965 199.182 72.56 199.182 71.975ZM207.274 74H208.819V68.9C209.209 68.24 209.824 67.595 210.859 67.595C211.939 67.595 212.599 68.315 212.599 69.515V74H214.159V69.455C214.159 67.265 212.884 66.14 211.219 66.14C210.139 66.14 209.389 66.575 208.819 67.175V66.44H207.274V74ZM217.761 71.375C217.761 73.22 218.691 74.15 220.461 74.15C221.046 74.15 221.466 74.075 221.826 73.925V72.56C221.556 72.665 221.211 72.725 220.701 72.725C219.861 72.725 219.321 72.395 219.321 71.375V67.835H221.826V66.44H219.321V64.55H217.761V66.44H216.336V67.835H217.761V71.375ZM228.611 70.22C228.611 72.425 230.096 74.3 232.481 74.3C233.561 74.3 234.371 73.91 235.001 73.235V74H236.576V62.75H235.001V67.205C234.371 66.53 233.561 66.14 232.481 66.14C230.096 66.14 228.611 68.015 228.611 70.22ZM230.246 70.22C230.246 68.735 231.221 67.595 232.676 67.595C233.621 67.595 234.446 68.03 235.001 68.855V71.585C234.491 72.38 233.651 72.845 232.676 72.845C231.221 72.845 230.246 71.705 230.246 70.22ZM246.645 72.77L245.52 71.87C245.055 72.5 244.29 72.905 243.375 72.905C241.92 72.905 240.915 72.05 240.81 70.4H246.39C246.45 70.175 246.495 69.83 246.495 69.485C246.495 67.565 245.145 66.14 243.06 66.14C240.66 66.14 239.22 67.955 239.22 70.22C239.22 72.425 240.765 74.3 243.375 74.3C244.785 74.3 245.94 73.715 246.645 72.77ZM243.03 67.43C244.245 67.43 244.92 68.3 244.95 69.245H240.885C241.125 68.075 241.905 67.43 243.03 67.43ZM35.0509 93.845C33.5809 93.845 32.5309 92.72 32.5309 91.22C32.5309 89.735 33.5809 88.595 35.0359 88.595C35.9059 88.595 36.5959 89.015 37.0159 89.6L38.2309 88.67C37.5409 87.74 36.4159 87.14 35.0359 87.14C32.5009 87.14 30.9109 89.015 30.9109 91.22C30.9109 93.425 32.5009 95.3 35.0359 95.3C36.4309 95.3 37.5409 94.7 38.2309 93.77L37.0159 92.84C36.5959 93.425 35.9059 93.845 35.0509 93.845ZM43.2129 87.14C40.7679 87.14 39.1029 88.985 39.1029 91.22C39.1029 93.455 40.7679 95.3 43.2129 95.3C45.6729 95.3 47.3229 93.455 47.3229 91.22C47.3229 88.985 45.6729 87.14 43.2129 87.14ZM43.2279 93.845C41.7729 93.845 40.7229 92.675 40.7229 91.22C40.7229 89.765 41.7729 88.595 43.2279 88.595C44.6529 88.595 45.7029 89.75 45.7029 91.22C45.7029 92.66 44.6529 93.845 43.2279 93.845ZM49.4037 95H50.9487V89.9C51.3087 89.255 51.8787 88.595 52.8387 88.595C53.8287 88.595 54.4287 89.255 54.4287 90.365V95H55.9887V90.305C55.9887 90.155 55.9887 90.02 55.9737 89.885C56.3787 89.165 56.9637 88.595 57.8637 88.595C58.8387 88.595 59.4537 89.255 59.4537 90.365V95H61.0137V90.305C61.0137 88.22 59.7987 87.14 58.2237 87.14C56.9187 87.14 56.1687 87.755 55.5837 88.505C55.1037 87.605 54.2337 87.14 53.1987 87.14C52.1937 87.14 51.4887 87.56 50.9487 88.145V87.44H49.4037V95ZM63.5576 98.69H65.1026V94.22C65.7476 94.91 66.5576 95.3 67.6526 95.3C70.0226 95.3 71.5076 93.425 71.5076 91.22C71.5076 89.015 70.0226 87.14 67.6526 87.14C66.5576 87.14 65.7476 87.53 65.1026 88.22V87.44H63.5576V98.69ZM67.4576 88.595C68.9126 88.595 69.8876 89.735 69.8876 91.22C69.8876 92.705 68.9126 93.845 67.4576 93.845C66.4826 93.845 65.6576 93.395 65.1026 92.555V89.885C65.6426 89.06 66.4676 88.595 67.4576 88.595ZM73.5806 95H75.1256V89.96C75.5156 89.315 76.1456 88.805 77.1056 88.805C77.4206 88.805 77.6606 88.85 77.9006 88.91V87.395C77.7056 87.335 77.4806 87.29 77.2406 87.29C76.3106 87.29 75.6506 87.71 75.1256 88.295V87.44H73.5806V95ZM86.1806 93.77L85.0556 92.87C84.5906 93.5 83.8256 93.905 82.9106 93.905C81.4556 93.905 80.4506 93.05 80.3456 91.4H85.9256C85.9856 91.175 86.0306 90.83 86.0306 90.485C86.0306 88.565 84.6806 87.14 82.5956 87.14C80.1956 87.14 78.7556 88.955 78.7556 91.22C78.7556 93.425 80.3006 95.3 82.9106 95.3C84.3206 95.3 85.4756 94.715 86.1806 93.77ZM82.5656 88.43C83.7806 88.43 84.4556 89.3 84.4856 90.245H80.4206C80.6606 89.075 81.4406 88.43 82.5656 88.43ZM88.2068 95H89.7518V89.9C90.1418 89.24 90.7568 88.595 91.7918 88.595C92.8718 88.595 93.5318 89.315 93.5318 90.515V95H95.0918V90.455C95.0918 88.265 93.8168 87.14 92.1518 87.14C91.0718 87.14 90.3218 87.575 89.7518 88.175V87.44H88.2068V95ZM97.0439 91.22C97.0439 93.425 98.5289 95.3 100.914 95.3C101.994 95.3 102.804 94.91 103.434 94.235V95H105.009V83.75H103.434V88.205C102.804 87.53 101.994 87.14 100.914 87.14C98.5289 87.14 97.0439 89.015 97.0439 91.22ZM98.6789 91.22C98.6789 89.735 99.6539 88.595 101.109 88.595C102.054 88.595 102.879 89.03 103.434 89.855V92.585C102.924 93.38 102.084 93.845 101.109 93.845C99.6539 93.845 98.6789 92.705 98.6789 91.22ZM107.652 95H109.197V89.96C109.587 89.315 110.217 88.805 111.177 88.805C111.492 88.805 111.732 88.85 111.972 88.91V87.395C111.777 87.335 111.552 87.29 111.312 87.29C110.382 87.29 109.722 87.71 109.197 88.295V87.44H107.652V95ZM120.252 93.77L119.127 92.87C118.662 93.5 117.897 93.905 116.982 93.905C115.527 93.905 114.522 93.05 114.417 91.4H119.997C120.057 91.175 120.102 90.83 120.102 90.485C120.102 88.565 118.752 87.14 116.667 87.14C114.267 87.14 112.827 88.955 112.827 91.22C112.827 93.425 114.372 95.3 116.982 95.3C118.392 95.3 119.547 94.715 120.252 93.77ZM116.637 88.43C117.852 88.43 118.527 89.3 118.557 90.245H114.492C114.732 89.075 115.512 88.43 116.637 88.43ZM125.871 91.22C125.871 93.425 127.356 95.3 129.741 95.3C130.821 95.3 131.631 94.91 132.261 94.235V95H133.836V83.75H132.261V88.205C131.631 87.53 130.821 87.14 129.741 87.14C127.356 87.14 125.871 89.015 125.871 91.22ZM127.506 91.22C127.506 89.735 128.481 88.595 129.936 88.595C130.881 88.595 131.706 89.03 132.261 89.855V92.585C131.751 93.38 130.911 93.845 129.936 93.845C128.481 93.845 127.506 92.705 127.506 91.22ZM143.305 93.77L142.18 92.87C141.715 93.5 140.95 93.905 140.035 93.905C138.58 93.905 137.575 93.05 137.47 91.4H143.05C143.11 91.175 143.155 90.83 143.155 90.485C143.155 88.565 141.805 87.14 139.72 87.14C137.32 87.14 135.88 88.955 135.88 91.22C135.88 93.425 137.425 95.3 140.035 95.3C141.445 95.3 142.6 94.715 143.305 93.77ZM139.69 88.43C140.905 88.43 141.58 89.3 141.61 90.245H137.545C137.785 89.075 138.565 88.43 139.69 88.43ZM148.549 87.44V88.835H149.974V95H151.534V88.835H154.039V87.44H151.534V86.525C151.534 85.67 152.044 85.145 152.809 85.145C153.229 85.145 153.559 85.28 153.814 85.475L154.474 84.17C154.039 83.93 153.469 83.75 152.779 83.75C151.024 83.75 149.974 84.965 149.974 86.57V87.44H148.549ZM157.208 95.225C158.138 95.225 159.083 94.805 159.623 94.145V95H161.168V90.005C161.168 88.34 160.043 87.14 158.003 87.14C156.653 87.14 155.573 87.71 154.898 88.61L156.053 89.495C156.488 88.88 157.133 88.505 157.958 88.505C158.933 88.505 159.623 89.075 159.623 90.005V90.395L157.178 90.8C155.573 91.07 154.688 91.895 154.688 93.035C154.688 94.37 155.708 95.225 157.208 95.225ZM156.248 92.975C156.248 92.405 156.638 92 157.583 91.835L159.623 91.49V92.795C159.173 93.515 158.438 93.965 157.493 93.965C156.713 93.965 156.248 93.56 156.248 92.975ZM167.28 93.845C165.81 93.845 164.76 92.72 164.76 91.22C164.76 89.735 165.81 88.595 167.265 88.595C168.135 88.595 168.825 89.015 169.245 89.6L170.46 88.67C169.77 87.74 168.645 87.14 167.265 87.14C164.73 87.14 163.14 89.015 163.14 91.22C163.14 93.17 164.37 94.85 166.41 95.225L165.06 97.4H166.62L167.94 95.255C169.02 95.09 169.89 94.55 170.46 93.77L169.245 92.84C168.825 93.425 168.135 93.845 167.28 93.845ZM175.442 87.14C172.997 87.14 171.332 88.985 171.332 91.22C171.332 93.455 172.997 95.3 175.442 95.3C177.902 95.3 179.552 93.455 179.552 91.22C179.552 88.985 177.902 87.14 175.442 87.14ZM175.457 93.845C174.002 93.845 172.952 92.675 172.952 91.22C172.952 89.765 174.002 88.595 175.457 88.595C176.882 88.595 177.932 89.75 177.932 91.22C177.932 92.66 176.882 93.845 175.457 93.845ZM181.633 95H183.178V89.9C183.568 89.24 184.183 88.595 185.218 88.595C186.298 88.595 186.958 89.315 186.958 90.515V95H188.518V90.455C188.518 88.265 187.243 87.14 185.578 87.14C184.498 87.14 183.748 87.575 183.178 88.175V87.44H181.633V95ZM195.263 95H196.808V83.75H195.263V95ZM204.615 91.76C204.615 93.065 203.91 93.845 202.755 93.845C201.57 93.845 200.88 93.065 200.88 91.76V87.44H199.32V91.685C199.32 93.95 200.625 95.3 202.755 95.3C204.87 95.3 206.175 93.95 206.175 91.685V87.44H204.615V91.76ZM208.073 91.22C208.073 93.425 209.558 95.3 211.943 95.3C213.023 95.3 213.833 94.91 214.463 94.235V95H216.038V83.75H214.463V88.205C213.833 87.53 213.023 87.14 211.943 87.14C209.558 87.14 208.073 89.015 208.073 91.22ZM209.708 91.22C209.708 89.735 210.683 88.595 212.138 88.595C213.083 88.595 213.908 89.03 214.463 89.855V92.585C213.953 93.38 213.113 93.845 212.138 93.845C210.683 93.845 209.708 92.705 209.708 91.22ZM219.462 85.76C220.032 85.76 220.512 85.28 220.512 84.71C220.512 84.14 220.032 83.66 219.462 83.66C218.892 83.66 218.412 84.14 218.412 84.71C218.412 85.28 218.892 85.76 219.462 85.76ZM218.682 95H220.227V87.44H218.682V95ZM222.304 91.22C222.304 93.425 223.789 95.3 226.159 95.3C227.254 95.3 228.064 94.91 228.694 94.22V98.69H230.269V87.44H228.694V88.22C228.064 87.53 227.254 87.14 226.159 87.14C223.789 87.14 222.304 89.015 222.304 91.22ZM223.924 91.22C223.924 89.735 224.899 88.595 226.354 88.595C227.314 88.595 228.139 89.03 228.694 89.855V92.585C228.184 93.38 227.344 93.845 226.354 93.845C224.899 93.845 223.924 92.705 223.924 91.22ZM238.057 91.76C238.057 93.065 237.352 93.845 236.197 93.845C235.012 93.845 234.322 93.065 234.322 91.76V87.44H232.762V91.685C232.762 93.95 234.067 95.3 236.197 95.3C238.312 95.3 239.617 93.95 239.617 91.685V87.44H238.057V91.76ZM248.94 93.77L247.815 92.87C247.35 93.5 246.585 93.905 245.67 93.905C244.215 93.905 243.21 93.05 243.105 91.4H248.685C248.745 91.175 248.79 90.83 248.79 90.485C248.79 88.565 247.44 87.14 245.355 87.14C242.955 87.14 241.515 88.955 241.515 91.22C241.515 93.425 243.06 95.3 245.67 95.3C247.08 95.3 248.235 94.715 248.94 93.77ZM245.325 88.43C246.54 88.43 247.215 89.3 247.245 90.245H243.18C243.42 89.075 244.2 88.43 245.325 88.43ZM40.9612 114.77L39.8362 113.87C39.3712 114.5 38.6062 114.905 37.6912 114.905C36.2362 114.905 35.2312 114.05 35.1262 112.4H40.7062C40.7662 112.175 40.8112 111.83 40.8112 111.485C40.8112 109.565 39.4612 108.14 37.3762 108.14C34.9762 108.14 33.5362 109.955 33.5362 112.22C33.5362 114.425 35.0812 116.3 37.6912 116.3C39.1012 116.3 40.2562 115.715 40.9612 114.77ZM37.3462 109.43C38.5612 109.43 39.2362 110.3 39.2662 111.245H35.2012C35.4412 110.075 36.2212 109.43 37.3462 109.43ZM43.4081 113.375C43.4081 115.22 44.3381 116.15 46.1081 116.15C46.6931 116.15 47.1131 116.075 47.4731 115.925V114.56C47.2031 114.665 46.8581 114.725 46.3481 114.725C45.5081 114.725 44.9681 114.395 44.9681 113.375V109.835H47.4731V108.44H44.9681V106.55H43.4081V108.44H41.9831V109.835H43.4081V113.375ZM52.7584 114.935C53.4634 115.79 54.4084 116.3 55.6834 116.3C57.0934 116.3 58.2934 115.415 58.3084 113.93C58.3084 111.335 54.6034 111.845 54.6034 110.33C54.6034 109.82 54.9634 109.4 55.6834 109.4C56.3134 109.4 56.8384 109.775 57.2434 110.315L58.2934 109.4C57.7534 108.68 56.7784 108.14 55.6684 108.14C54.1534 108.14 53.1034 109.13 53.1034 110.375C53.1034 113.045 56.8084 112.49 56.8084 114.02C56.8084 114.59 56.4034 115.04 55.6684 115.04C54.9184 115.04 54.3184 114.635 53.8234 114.005L52.7584 114.935ZM60.5767 106.76C61.1467 106.76 61.6267 106.28 61.6267 105.71C61.6267 105.14 61.1467 104.66 60.5767 104.66C60.0067 104.66 59.5267 105.14 59.5267 105.71C59.5267 106.28 60.0067 106.76 60.5767 106.76ZM59.7967 116H61.3417V108.44H59.7967V116ZM63.419 116H64.964V110.9C65.324 110.255 65.894 109.595 66.854 109.595C67.844 109.595 68.444 110.255 68.444 111.365V116H70.004V111.305C70.004 111.155 70.004 111.02 69.989 110.885C70.394 110.165 70.979 109.595 71.879 109.595C72.854 109.595 73.469 110.255 73.469 111.365V116H75.029V111.305C75.029 109.22 73.814 108.14 72.239 108.14C70.934 108.14 70.184 108.755 69.599 109.505C69.119 108.605 68.249 108.14 67.214 108.14C66.209 108.14 65.504 108.56 64.964 109.145V108.44H63.419V116ZM76.9729 119.69H78.5179V115.22C79.1629 115.91 79.9729 116.3 81.0679 116.3C83.4379 116.3 84.9229 114.425 84.9229 112.22C84.9229 110.015 83.4379 108.14 81.0679 108.14C79.9729 108.14 79.1629 108.53 78.5179 109.22V108.44H76.9729V119.69ZM80.8729 109.595C82.3279 109.595 83.3029 110.735 83.3029 112.22C83.3029 113.705 82.3279 114.845 80.8729 114.845C79.8979 114.845 79.0729 114.395 78.5179 113.555V110.885C79.0579 110.06 79.8829 109.595 80.8729 109.595ZM86.3959 116H87.9409V104.75H86.3959V116ZM96.8432 114.77L95.7182 113.87C95.2532 114.5 94.4882 114.905 93.5732 114.905C92.1182 114.905 91.1132 114.05 91.0082 112.4H96.5882C96.6482 112.175 96.6932 111.83 96.6932 111.485C96.6932 109.565 95.3432 108.14 93.2582 108.14C90.8582 108.14 89.4182 109.955 89.4182 112.22C89.4182 114.425 90.9632 116.3 93.5732 116.3C94.9832 116.3 96.1382 115.715 96.8432 114.77ZM93.2282 109.43C94.4432 109.43 95.1182 110.3 95.1482 111.245H91.0832C91.3232 110.075 92.1032 109.43 93.2282 109.43ZM101.862 116H103.407V104.75H101.862V116ZM112.31 114.77L111.185 113.87C110.72 114.5 109.955 114.905 109.04 114.905C107.585 114.905 106.58 114.05 106.475 112.4H112.055C112.115 112.175 112.16 111.83 112.16 111.485C112.16 109.565 110.81 108.14 108.725 108.14C106.325 108.14 104.885 109.955 104.885 112.22C104.885 114.425 106.43 116.3 109.04 116.3C110.45 116.3 111.605 115.715 112.31 114.77ZM108.695 109.43C109.91 109.43 110.585 110.3 110.615 111.245H106.55C106.79 110.075 107.57 109.43 108.695 109.43ZM116.729 112.22C116.729 114.425 118.214 116.3 120.599 116.3C121.679 116.3 122.489 115.91 123.119 115.235V116H124.694V104.75H123.119V109.205C122.489 108.53 121.679 108.14 120.599 108.14C118.214 108.14 116.729 110.015 116.729 112.22ZM118.364 112.22C118.364 110.735 119.339 109.595 120.794 109.595C121.739 109.595 122.564 110.03 123.119 110.855V113.585C122.609 114.38 121.769 114.845 120.794 114.845C119.339 114.845 118.364 113.705 118.364 112.22ZM130.817 107.24L132.587 104.75H130.877L129.317 107.24H130.817ZM133.562 114.77L132.437 113.87C131.972 114.5 131.207 114.905 130.292 114.905C128.837 114.905 127.832 114.05 127.727 112.4H133.307C133.367 112.175 133.412 111.83 133.412 111.485C133.412 109.565 132.062 108.14 129.977 108.14C127.577 108.14 126.137 109.955 126.137 112.22C126.137 114.425 127.682 116.3 130.292 116.3C131.702 116.3 132.857 115.715 133.562 114.77ZM129.947 109.43C131.162 109.43 131.837 110.3 131.867 111.245H127.802C128.042 110.075 128.822 109.43 129.947 109.43ZM134.988 116H136.533V110.96C136.923 110.315 137.553 109.805 138.513 109.805C138.828 109.805 139.068 109.85 139.308 109.91V108.395C139.113 108.335 138.888 108.29 138.648 108.29C137.718 108.29 137.058 108.71 136.533 109.295V108.44H134.988V116ZM143.673 108.14C141.228 108.14 139.563 109.985 139.563 112.22C139.563 114.455 141.228 116.3 143.673 116.3C146.133 116.3 147.783 114.455 147.783 112.22C147.783 109.985 146.133 108.14 143.673 108.14ZM143.688 114.845C142.233 114.845 141.183 113.675 141.183 112.22C141.183 110.765 142.233 109.595 143.688 109.595C145.113 109.595 146.163 110.75 146.163 112.22C146.163 113.66 145.113 114.845 143.688 114.845ZM154.394 112.76C154.394 114.065 153.689 114.845 152.534 114.845C151.349 114.845 150.659 114.065 150.659 112.76V108.44H149.099V112.685C149.099 114.95 150.404 116.3 152.534 116.3C154.649 116.3 155.954 114.95 155.954 112.685V108.44H154.394V112.76ZM157.852 116H159.397V104.75H157.852V116ZM168.299 114.77L167.174 113.87C166.709 114.5 165.944 114.905 165.029 114.905C163.574 114.905 162.569 114.05 162.464 112.4H168.044C168.104 112.175 168.149 111.83 168.149 111.485C168.149 109.565 166.799 108.14 164.714 108.14C162.314 108.14 160.874 109.955 160.874 112.22C160.874 114.425 162.419 116.3 165.029 116.3C166.439 116.3 167.594 115.715 168.299 114.77ZM164.684 109.43C165.899 109.43 166.574 110.3 166.604 111.245H162.539C162.779 110.075 163.559 109.43 164.684 109.43ZM169.726 116H171.271V110.9C171.631 110.255 172.201 109.595 173.161 109.595C174.151 109.595 174.751 110.255 174.751 111.365V116H176.311V111.305C176.311 111.155 176.311 111.02 176.296 110.885C176.701 110.165 177.286 109.595 178.186 109.595C179.161 109.595 179.776 110.255 179.776 111.365V116H181.336V111.305C181.336 109.22 180.121 108.14 178.546 108.14C177.241 108.14 176.491 108.755 175.906 109.505C175.426 108.605 174.556 108.14 173.521 108.14C172.516 108.14 171.811 108.56 171.271 109.145V108.44H169.726V116ZM190.105 114.77L188.98 113.87C188.515 114.5 187.75 114.905 186.835 114.905C185.38 114.905 184.375 114.05 184.27 112.4H189.85C189.91 112.175 189.955 111.83 189.955 111.485C189.955 109.565 188.605 108.14 186.52 108.14C184.12 108.14 182.68 109.955 182.68 112.22C182.68 114.425 184.225 116.3 186.835 116.3C188.245 116.3 189.4 115.715 190.105 114.77ZM186.49 109.43C187.705 109.43 188.38 110.3 188.41 111.245H184.345C184.585 110.075 185.365 109.43 186.49 109.43ZM191.531 116H193.076V110.9C193.466 110.24 194.081 109.595 195.116 109.595C196.196 109.595 196.856 110.315 196.856 111.515V116H198.416V111.455C198.416 109.265 197.141 108.14 195.476 108.14C194.396 108.14 193.646 108.575 193.076 109.175V108.44H191.531V116ZM200.818 113.375C200.818 115.22 201.748 116.15 203.518 116.15C204.103 116.15 204.523 116.075 204.883 115.925V114.56C204.613 114.665 204.268 114.725 203.758 114.725C202.918 114.725 202.378 114.395 202.378 113.375V109.835H204.883V108.44H202.378V106.55H200.818V108.44H199.393V109.835H200.818V113.375ZM209.268 112.22C209.268 114.425 210.753 116.3 213.138 116.3C214.218 116.3 215.028 115.91 215.658 115.235V116H217.233V104.75H215.658V109.205C215.028 108.53 214.218 108.14 213.138 108.14C210.753 108.14 209.268 110.015 209.268 112.22ZM210.903 112.22C210.903 110.735 211.878 109.595 213.333 109.595C214.278 109.595 215.103 110.03 215.658 110.855V113.585C215.148 114.38 214.308 114.845 213.333 114.845C211.878 114.845 210.903 113.705 210.903 112.22ZM220.024 109.655L221.659 105.5H219.904L218.599 109.655H220.024ZM227.794 112.76C227.794 114.065 227.089 114.845 225.934 114.845C224.749 114.845 224.059 114.065 224.059 112.76V108.44H222.499V112.685C222.499 114.95 223.804 116.3 225.934 116.3C228.049 116.3 229.354 114.95 229.354 112.685V108.44H227.794V112.76ZM231.253 116H232.798V110.9C233.188 110.24 233.803 109.595 234.838 109.595C235.918 109.595 236.578 110.315 236.578 111.515V116H238.138V111.455C238.138 109.265 236.863 108.14 235.198 108.14C234.118 108.14 233.368 108.575 232.798 109.175V108.44H231.253V116ZM246.915 114.77L245.79 113.87C245.325 114.5 244.56 114.905 243.645 114.905C242.19 114.905 241.185 114.05 241.08 112.4H246.66C246.72 112.175 246.765 111.83 246.765 111.485C246.765 109.565 245.415 108.14 243.33 108.14C240.93 108.14 239.49 109.955 239.49 112.22C239.49 114.425 241.035 116.3 243.645 116.3C245.055 116.3 246.21 115.715 246.915 114.77ZM243.3 109.43C244.515 109.43 245.19 110.3 245.22 111.245H241.155C241.395 110.075 242.175 109.43 243.3 109.43ZM64.4298 128.24L66.1998 125.75H64.4898L62.9298 128.24H64.4298ZM67.1748 135.77L66.0498 134.87C65.5848 135.5 64.8198 135.905 63.9048 135.905C62.4498 135.905 61.4448 135.05 61.3398 133.4H66.9198C66.9798 133.175 67.0248 132.83 67.0248 132.485C67.0248 130.565 65.6748 129.14 63.5898 129.14C61.1898 129.14 59.7498 130.955 59.7498 133.22C59.7498 135.425 61.2948 137.3 63.9048 137.3C65.3148 137.3 66.4698 136.715 67.1748 135.77ZM63.5598 130.43C64.7748 130.43 65.4498 131.3 65.4798 132.245H61.4148C61.6548 131.075 62.4348 130.43 63.5598 130.43ZM69.051 137H70.596V125.75H69.051V137ZM77.2033 128.24L78.9733 125.75H77.2633L75.7033 128.24H77.2033ZM79.9483 135.77L78.8233 134.87C78.3583 135.5 77.5933 135.905 76.6783 135.905C75.2233 135.905 74.2183 135.05 74.1133 133.4H79.6933C79.7533 133.175 79.7983 132.83 79.7983 132.485C79.7983 130.565 78.4483 129.14 76.3633 129.14C73.9633 129.14 72.5233 130.955 72.5233 133.22C72.5233 135.425 74.0683 137.3 76.6783 137.3C78.0883 137.3 79.2433 136.715 79.9483 135.77ZM76.3333 130.43C77.5483 130.43 78.2233 131.3 78.2533 132.245H74.1883C74.4283 131.075 75.2083 130.43 76.3333 130.43ZM85.3205 135.845C83.8505 135.845 82.8005 134.72 82.8005 133.22C82.8005 131.735 83.8505 130.595 85.3055 130.595C86.1755 130.595 86.8655 131.015 87.2855 131.6L88.5005 130.67C87.8105 129.74 86.6855 129.14 85.3055 129.14C82.7705 129.14 81.1805 131.015 81.1805 133.22C81.1805 135.425 82.7705 137.3 85.3055 137.3C86.7005 137.3 87.8105 136.7 88.5005 135.77L87.2855 134.84C86.8655 135.425 86.1755 135.845 85.3205 135.845ZM90.5801 134.375C90.5801 136.22 91.5101 137.15 93.2801 137.15C93.8651 137.15 94.2851 137.075 94.6451 136.925V135.56C94.3751 135.665 94.0301 135.725 93.5201 135.725C92.6801 135.725 92.1401 135.395 92.1401 134.375V130.835H94.6451V129.44H92.1401V127.55H90.5801V129.44H89.1551V130.835H90.5801V134.375ZM97.2675 127.76C97.8375 127.76 98.3175 127.28 98.3175 126.71C98.3175 126.14 97.8375 125.66 97.2675 125.66C96.6975 125.66 96.2175 126.14 96.2175 126.71C96.2175 127.28 96.6975 127.76 97.2675 127.76ZM96.4875 137H98.0325V129.44H96.4875V137ZM104.07 129.14C101.625 129.14 99.9598 130.985 99.9598 133.22C99.9598 135.455 101.625 137.3 104.07 137.3C106.53 137.3 108.18 135.455 108.18 133.22C108.18 130.985 106.53 129.14 104.07 129.14ZM104.085 135.845C102.63 135.845 101.58 134.675 101.58 133.22C101.58 131.765 102.63 130.595 104.085 130.595C105.51 130.595 106.56 131.75 106.56 133.22C106.56 134.66 105.51 135.845 104.085 135.845ZM110.111 137H111.656V131.9C112.046 131.24 112.661 130.595 113.696 130.595C114.776 130.595 115.436 131.315 115.436 132.515V137H116.996V132.455C116.996 130.265 115.721 129.14 114.056 129.14C112.976 129.14 112.226 129.575 111.656 130.175V129.44H110.111V137ZM123.441 140.69H124.986V136.22C125.631 136.91 126.441 137.3 127.536 137.3C129.906 137.3 131.391 135.425 131.391 133.22C131.391 131.015 129.906 129.14 127.536 129.14C126.441 129.14 125.631 129.53 124.986 130.22V129.44H123.441V140.69ZM127.341 130.595C128.796 130.595 129.771 131.735 129.771 133.22C129.771 134.705 128.796 135.845 127.341 135.845C126.366 135.845 125.541 135.395 124.986 134.555V131.885C125.526 131.06 126.351 130.595 127.341 130.595ZM133.314 137H134.859V131.96C135.249 131.315 135.879 130.805 136.839 130.805C137.154 130.805 137.394 130.85 137.634 130.91V129.395C137.439 129.335 137.214 129.29 136.974 129.29C136.044 129.29 135.384 129.71 134.859 130.295V129.44H133.314V137ZM143.019 128.24L144.789 125.75H143.079L141.519 128.24H143.019ZM145.764 135.77L144.639 134.87C144.174 135.5 143.409 135.905 142.494 135.905C141.039 135.905 140.034 135.05 139.929 133.4H145.509C145.569 133.175 145.614 132.83 145.614 132.485C145.614 130.565 144.264 129.14 142.179 129.14C139.779 129.14 138.339 130.955 138.339 133.22C138.339 135.425 139.884 137.3 142.494 137.3C143.904 137.3 145.059 136.715 145.764 135.77ZM142.149 130.43C143.364 130.43 144.039 131.3 144.069 132.245H140.004C140.244 131.075 141.024 130.43 142.149 130.43ZM146.802 135.935C147.507 136.79 148.452 137.3 149.727 137.3C151.137 137.3 152.337 136.415 152.352 134.93C152.352 132.335 148.647 132.845 148.647 131.33C148.647 130.82 149.007 130.4 149.727 130.4C150.357 130.4 150.882 130.775 151.287 131.315L152.337 130.4C151.797 129.68 150.822 129.14 149.712 129.14C148.197 129.14 147.147 130.13 147.147 131.375C147.147 134.045 150.852 133.49 150.852 135.02C150.852 135.59 150.447 136.04 149.712 136.04C148.962 136.04 148.362 135.635 147.867 135.005L146.802 135.935ZM155.07 127.76C155.64 127.76 156.12 127.28 156.12 126.71C156.12 126.14 155.64 125.66 155.07 125.66C154.5 125.66 154.02 126.14 154.02 126.71C154.02 127.28 154.5 127.76 155.07 127.76ZM154.29 137H155.835V129.44H154.29V137ZM157.763 133.22C157.763 135.425 159.248 137.3 161.633 137.3C162.713 137.3 163.523 136.91 164.153 136.235V137H165.728V125.75H164.153V130.205C163.523 129.53 162.713 129.14 161.633 129.14C159.248 129.14 157.763 131.015 157.763 133.22ZM159.398 133.22C159.398 131.735 160.373 130.595 161.828 130.595C162.773 130.595 163.598 131.03 164.153 131.855V134.585C163.643 135.38 162.803 135.845 161.828 135.845C160.373 135.845 159.398 134.705 159.398 133.22ZM175.046 135.77L173.921 134.87C173.456 135.5 172.691 135.905 171.776 135.905C170.321 135.905 169.316 135.05 169.211 133.4H174.791C174.851 133.175 174.896 132.83 174.896 132.485C174.896 130.565 173.546 129.14 171.461 129.14C169.061 129.14 167.621 130.955 167.621 133.22C167.621 135.425 169.166 137.3 171.776 137.3C173.186 137.3 174.341 136.715 175.046 135.77ZM171.431 130.43C172.646 130.43 173.321 131.3 173.351 132.245H169.286C169.526 131.075 170.306 130.43 171.431 130.43ZM176.922 137H178.467V131.9C178.857 131.24 179.472 130.595 180.507 130.595C181.587 130.595 182.247 131.315 182.247 132.515V137H183.807V132.455C183.807 130.265 182.532 129.14 180.867 129.14C179.787 129.14 179.037 129.575 178.467 130.175V129.44H176.922V137ZM186.659 134.375C186.659 136.22 187.589 137.15 189.359 137.15C189.944 137.15 190.364 137.075 190.724 136.925V135.56C190.454 135.665 190.109 135.725 189.599 135.725C188.759 135.725 188.219 135.395 188.219 134.375V130.835H190.724V129.44H188.219V127.55H186.659V129.44H185.234V130.835H186.659V134.375ZM193.347 127.76C193.917 127.76 194.397 127.28 194.397 126.71C194.397 126.14 193.917 125.66 193.347 125.66C192.777 125.66 192.297 126.14 192.297 126.71C192.297 127.28 192.777 127.76 193.347 127.76ZM192.567 137H194.112V129.44H192.567V137ZM203.464 135.77L202.339 134.87C201.874 135.5 201.109 135.905 200.194 135.905C198.739 135.905 197.734 135.05 197.629 133.4H203.209C203.269 133.175 203.314 132.83 203.314 132.485C203.314 130.565 201.964 129.14 199.879 129.14C197.479 129.14 196.039 130.955 196.039 133.22C196.039 135.425 197.584 137.3 200.194 137.3C201.604 137.3 202.759 136.715 203.464 135.77ZM199.849 130.43C201.064 130.43 201.739 131.3 201.769 132.245H197.704C197.944 131.075 198.724 130.43 199.849 130.43ZM205.34 137H206.885V125.75H205.34V137ZM209.412 137H210.957V125.75H209.412V137ZM220.31 135.77L219.185 134.87C218.72 135.5 217.955 135.905 217.04 135.905C215.585 135.905 214.58 135.05 214.475 133.4H220.055C220.115 133.175 220.16 132.83 220.16 132.485C220.16 130.565 218.81 129.14 216.725 129.14C214.325 129.14 212.885 130.955 212.885 133.22C212.885 135.425 214.43 137.3 217.04 137.3C218.45 137.3 219.605 136.715 220.31 135.77ZM216.695 130.43C217.91 130.43 218.585 131.3 218.615 132.245H214.55C214.79 131.075 215.57 130.43 216.695 130.43ZM222.907 137.18C223.522 137.18 224.017 136.685 224.017 136.07C224.017 135.47 223.522 134.96 222.907 134.96C222.277 134.96 221.782 135.47 221.782 136.07C221.782 136.685 222.277 137.18 222.907 137.18Z" fill="#57517D"/>
</svg>
