<svg width="141" height="161" viewBox="0 0 141 161" fill="none" xmlns="http://www.w3.org/2000/svg">
<path d="M12.6418 120.509C13.9007 122.037 15.2343 123.511 16.6423 124.931C23.9703 132.324 32.9955 137.782 42.918 140.82C52.8405 143.859 63.3537 144.384 73.5257 142.349C83.6978 140.314 93.2144 135.782 101.232 129.155C109.25 122.528 115.521 114.01 119.49 104.356C123.458 94.7031 125.002 84.2124 123.984 73.8142C122.965 63.4159 119.417 53.4314 113.652 44.7456C107.888 36.0598 100.085 28.9411 90.9367 24.0203C81.7882 19.0996 71.5759 16.5289 61.2053 16.5362V1.30928e-05C74.2753 -0.00751754 87.1453 3.23364 98.6747 9.43622C110.204 15.6388 120.037 24.6113 127.301 35.5583C134.565 46.5054 139.037 59.089 140.32 72.1939C141.603 85.2987 139.657 98.5201 134.656 110.686C129.654 122.852 121.751 133.587 111.646 141.94C101.542 150.292 89.5482 156.004 76.7287 158.569C63.9091 161.135 50.6594 160.474 38.1538 156.646C25.6483 152.818 14.2731 145.941 5.0366 136.624C3.26473 134.838 1.58586 132.982 0 131.056L12.6418 120.509Z" fill="#57517D"/>
<path d="M47.6527 122.052C53.6821 124.031 60.0659 124.669 66.3637 123.922C72.6616 123.175 78.7237 121.061 84.132 117.725C89.5403 114.389 94.1661 109.91 97.6904 104.599C101.215 99.2873 103.554 93.2688 104.546 86.9584C105.538 80.648 105.16 74.1958 103.438 68.0468C101.716 61.8978 98.69 56.1984 94.5699 51.3415C90.4499 46.4847 85.3333 42.586 79.5729 39.9143C73.8126 37.2426 67.5457 35.8615 61.2043 35.8662V19.3301C69.9095 19.3373 78.5097 21.245 86.413 24.9219C94.3162 28.5988 101.335 33.9576 106.986 40.6293C112.636 47.3011 116.785 55.1273 119.146 63.5693C121.507 72.0112 122.024 80.8684 120.662 89.5311C119.3 98.1938 116.091 106.456 111.256 113.75C106.421 121.043 100.074 127.194 92.6537 131.78C85.233 136.365 76.9142 139.276 68.2699 140.312C59.6257 141.347 50.8613 140.483 42.5802 137.779L47.6527 122.052Z" fill="white"/>
<path d="M84.1304 89.1813C85.6139 85.4136 86.1593 81.3373 85.7191 77.3084C85.2789 73.2794 83.8664 69.4203 81.605 66.068C79.3436 62.7156 76.3021 59.9721 72.7459 58.0768C69.1898 56.1816 65.2272 55.1923 61.2042 55.1953V38.6592C67.9027 38.6614 74.499 40.3139 80.4184 43.4729C86.3379 46.6319 91.4007 51.2014 95.1659 56.7832C98.931 62.3651 101.284 68.79 102.021 75.4981C102.757 82.2061 101.854 88.9938 99.39 95.2697L84.1304 89.1813Z" fill="#276A50"/>
<path d="M66.6296 79.3437C66.4608 78.0134 65.817 76.7907 64.8185 75.904C63.82 75.0172 62.5352 74.5272 61.2042 74.5254V57.9893C72.3391 57.9893 81.5588 66.4134 82.9128 77.2684L66.6296 79.3437Z" fill="#51587D" fill-opacity="0.5"/>
</svg>
