<svg id="enveloppe_blanche" data-name="enveloppe blanche" xmlns="http://www.w3.org/2000/svg" xmlns:xlink="http://www.w3.org/1999/xlink" viewBox="0 0 413.85 241.9"><defs><style>.cls-1{fill:none;}.cls-2{clip-path:url(#clip-path);}.cls-3{fill:#fff;}.cls-4{fill:#989595;}</style><clipPath id="clip-path" transform="translate(-309.74 -392.34)"><rect class="cls-1" x="395.93" y="305.95" width="241.92" height="413.84" transform="translate(3.02 1028.77) rotate(-89.89)"/></clipPath></defs><g class="cls-2"><path class="cls-3" d="M723.59,393.14l-413.39-.8-.46,241.09,413.38.8Z" transform="translate(-309.74 -392.34)"/><polyline class="cls-4" points="413.85 1.96 413.85 0.8 411.87 0.8 206.93 119.79 43.73 24.16 42.72 25.88 206.42 121.81 206.92 122.11 413.85 1.96"/><path class="cls-4" d="M472.85,559.86l8.88,0L474,582.69l-10.88,0-7.64-22.84h8.78l4.36,15.78Z" transform="translate(-309.74 -392.34)"/><path class="cls-4" d="M493.62,559.63c7.49,0,12.61,4.51,12.59,11.75,0,7.7-5,11.73-12.64,11.71-7,0-12.71-4-12.69-11.75C480.89,564,486.48,559.61,493.62,559.63Zm0,16.13a4.1,4.1,0,0,0,4.49-4.39A4.15,4.15,0,0,0,493.6,567a4.2,4.2,0,0,0-4.49,4.39A4.12,4.12,0,0,0,493.58,575.76Z" transform="translate(-309.74 -392.34)"/><path class="cls-4" d="M506.88,559.93l23.87,0,0,7.43-8,0,0,15.31h-8l0-15.31-8,0v-7.42Z" transform="translate(-309.74 -392.34)"/><path class="cls-4" d="M532.39,560l19.85,0,0,7.06-11.89,0v2l11.34,0v4.49l-11.34,0v2.11l11.89,0,0,7.06-19.84,0Z" transform="translate(-309.74 -392.34)"/><path class="cls-4" d="M562.17,577.18v5.68l-8,0,0-22.82,11.16,0c7.86,0,11.33,3.32,11.32,8.46,0,3.3-1.2,5.68-3.67,7l3.73,7.25-8.23,0-2.55-5.69h-3.75Zm6.24-8.61c0-1.1-.64-1.74-3-1.75h-3.2v3.57h3.2C567.77,570.4,568.41,569.67,568.41,568.57Z" transform="translate(-309.74 -392.34)"/><path class="cls-4" d="M516.66,513.28l206.9-104.92,0-15.22Z" transform="translate(-309.74 -392.34)"/></g></svg>