<svg xmlns="http://www.w3.org/2000/svg" xmlns:xlink="http://www.w3.org/1999/xlink" viewBox="0 0 700.48 504.29"><defs><style>.cls-1{fill:none;}.cls-2{clip-path:url(#clip-path);}.cls-3{fill:#fff;}.cls-4{fill:#989595;}</style><clipPath id="clip-path" transform="translate(-131.61 -285.25)"><rect class="cls-1" x="165.34" y="351.56" width="633.42" height="370.28" transform="translate(-110.24 124.86) rotate(-13.26)"/></clipPath></defs><g id="enveloppe_blanche" data-name="enveloppe blanche"><g class="cls-2"><path class="cls-3" d="M747.46,285.25,131.61,430.37l84.63,359.17L832.09,644.43Z" transform="translate(-131.61 -285.25)"/><polyline class="cls-4" points="616.12 1.13 350.51 253.27 349.95 253.1 72.22 168.19 72.81 166.28 349.98 251.02 613.92 0.46 615.85 0 616.12 1.13"/><path class="cls-4" d="M433.1,622.26l13.22-3.12-3.44,36.71-16.21,3.82-19.46-31.31,13.08-3.08,12.08,21.94Z" transform="translate(-131.61 -285.25)"/><path class="cls-4" d="M463.93,614.56c11.18-2.63,20.38,2.26,22.92,13.05,2.71,11.47-3.23,19.22-14.68,21.91-10.49,2.47-20.32-1.41-23.06-13C446.54,625.58,453.31,617.06,463.93,614.56Zm5.67,24c4.08-1,6.09-4,5.13-8.13s-4.14-6-8.22-5-6.07,4.16-5.13,8.12S465.51,639.56,469.6,638.6Z" transform="translate(-131.61 -285.25)"/><path class="cls-4" d="M483.79,610.31l35.56-8.37L522,613l-11.85,2.79,5.37,22.81-12,2.82-5.37-22.8-11.85,2.79-2.61-11.06Z" transform="translate(-131.61 -285.25)"/><path class="cls-4" d="M521.8,601.36l29.57-7,2.47,10.52-17.71,4.17.71,3,16.89-4,1.58,6.7-16.89,4,.74,3.14,17.71-4.18,2.48,10.52-29.57,7Z" transform="translate(-131.61 -285.25)"/><path class="cls-4" d="M572.23,616.43l2,8.47-12,2.82-8-34,16.62-3.92c11.72-2.76,18,.94,19.85,8.58,1.16,4.92.23,8.89-3,11.8l8.13,9.48-12.26,2.89L577.79,615l-1,.22-4.63,1.09Zm6.24-15c-.38-1.64-1.56-2.37-5.1-1.54L568.6,601l1.25,5.32,4.77-1.12C578.16,604.37,578.86,603.05,578.47,601.41Z" transform="translate(-131.61 -285.25)"/><path class="cls-4" d="M481.85,537.4,752.8,307.92l-5.34-22.67Z" transform="translate(-131.61 -285.25)"/><path class="cls-4" d="M443.4,680.19a.56.56,0,0,1-.15.55,15.19,15.19,0,0,1-1.19,1.06c-.56.47-1.2,1-1.91,1.5s-1.4,1.08-2.16,1.65-1.46,1.09-2.09,1.54-1.18.83-1.64,1.12l-.67.48c-.24,0-.56-.15-1-.61a14.8,14.8,0,0,1-1.27-1.92c-.47-.85-1-1.83-1.46-2.94s-1-2.36-1.53-3.62-.93-2.58-1.36-3.89-.75-2.66-1-3.92a27.94,27.94,0,0,1-.74-4.45,12,12,0,0,1,.11-2.52,2.36,2.36,0,0,1,.48-1.12,1.79,1.79,0,0,1,.3-.3.67.67,0,0,1,.64.17,1.15,1.15,0,0,1,.36.57,1.9,1.9,0,0,1,0,.65,11.54,11.54,0,0,0-.11,1.32c0,.55,0,1.25.11,2.1a28.72,28.72,0,0,0,.55,3c.25,1,.54,2.14.89,3.26s.79,2.2,1.22,3.28.86,2.07,1.3,3,.89,1.76,1.3,2.47a16.35,16.35,0,0,0,1.09,1.69c.3.39.54.57.72.53s.2-.13.52-.35.71-.51,1.19-.83a16.27,16.27,0,0,1,1.56-1.05c.59-.39,1.19-.74,1.79-1.06.27-.16.59-.32.95-.5s.73-.4,1.07-.57l.87-.43.5-.21C443.06,679.77,443.33,679.87,443.4,680.19Zm14.26-4.62a.72.72,0,0,1,.11.26,1.62,1.62,0,0,1-.22.88,4.68,4.68,0,0,1-.44.7,6,6,0,0,1-1,1.06,9.75,9.75,0,0,1-4.11,2,4.81,4.81,0,0,1-2.07,0,5.44,5.44,0,0,1-2-1,8,8,0,0,1-1.75-2,9.71,9.71,0,0,1-1.21-3,11.8,11.8,0,0,1-.3-3.3,12.89,12.89,0,0,1,.49-2.89,7,7,0,0,1,1.13-2.15,2.65,2.65,0,0,1,1.47-1,3.63,3.63,0,0,1,1.47,0,5,5,0,0,1,1.48.4,3.59,3.59,0,0,1,1.19.79,2,2,0,0,1,.61,1,2.17,2.17,0,0,1-.3,1.5,7.85,7.85,0,0,1-1.1,1.64,12.1,12.1,0,0,1-1.45,1.35,4,4,0,0,1-1.23.66.72.72,0,0,1-.54-.11,1.2,1.2,0,0,1,0-1.66,8.84,8.84,0,0,1,1.09-.9,6.76,6.76,0,0,0,1-1,1.29,1.29,0,0,0,.32-1.23,1.31,1.31,0,0,0-.32-.39c-.2-.2-.62-.23-1.27-.08a1.66,1.66,0,0,0-.88.76,5.62,5.62,0,0,0-.79,1.61,8.36,8.36,0,0,0-.41,2.22,8.58,8.58,0,0,0,.23,2.58,5.27,5.27,0,0,0,.86,2,5.88,5.88,0,0,0,1.46,1.33,5,5,0,0,0,1.76.61,4.94,4.94,0,0,0,1.88-.06,4.23,4.23,0,0,0,1.34-.59c.48-.32.92-.64,1.31-1s.76-.63,1-.88a2,2,0,0,1,.59-.46.37.37,0,0,1,.29.07A.59.59,0,0,1,457.66,675.57Zm12.69-4.17a1.92,1.92,0,0,1-.22,1.44,4.35,4.35,0,0,1-1.06,1.21,8.7,8.7,0,0,1-1.53,1c-.59.29-1.14.54-1.68.75s-1,.35-1.46.48l-.79.18a3.09,3.09,0,0,1-1.56,0,1.2,1.2,0,0,1-.78-1,2.07,2.07,0,0,1-.06-.45q0-.22.3-.3a2.09,2.09,0,0,1,.46,0,3.74,3.74,0,0,0,.5-.07c.11,0,.47-.12,1.08-.3s1.28-.44,2-.72a11.39,11.39,0,0,0,1.82-.93c.53-.37.75-.73.67-1.08a3,3,0,0,0-1-.31c-.66-.19-1.67-.51-3-1a6.33,6.33,0,0,1-2.38-1.3,4.68,4.68,0,0,1-1.13-2.32,2.92,2.92,0,0,1,0-1.67,3.14,3.14,0,0,1,.92-1.23,6.22,6.22,0,0,1,1.55-.86,11.19,11.19,0,0,1,2-.64,3.2,3.2,0,0,1,.55,0,5.19,5.19,0,0,1,1.08.08,3.13,3.13,0,0,1,1,.27.78.78,0,0,1,.58.51.57.57,0,0,1-.12.31l-.33.76-.51,0c-.22,0-.48,0-.79,0a3.64,3.64,0,0,0-.87,0,4,4,0,0,0-.72.07,3.56,3.56,0,0,0-1.74.86,1.69,1.69,0,0,0-.34,1.74,1.55,1.55,0,0,0,.68,1,6.49,6.49,0,0,0,1.4.65l1.68.49a11.75,11.75,0,0,1,1.74.53,4.84,4.84,0,0,1,1.38.79A1.77,1.77,0,0,1,470.35,671.4Zm34.38-6.66a.67.67,0,0,1,.1.25,1.66,1.66,0,0,1-.21.88,5.05,5.05,0,0,1-.44.7,6.34,6.34,0,0,1-1,1.06,9.44,9.44,0,0,1-4.11,2,4.86,4.86,0,0,1-2.08,0,5.71,5.71,0,0,1-2-1,7.91,7.91,0,0,1-1.74-2,9.63,9.63,0,0,1-1.21-3,11.44,11.44,0,0,1-.3-3.3,12.53,12.53,0,0,1,.49-2.89,7.13,7.13,0,0,1,1.12-2.15,2.74,2.74,0,0,1,1.47-1,3.51,3.51,0,0,1,1.48,0,5,5,0,0,1,1.47.39,3.53,3.53,0,0,1,1.2.79,2,2,0,0,1,.6,1,2.17,2.17,0,0,1-.3,1.5,8,8,0,0,1-1.1,1.64,13.71,13.71,0,0,1-1.44,1.34,3.78,3.78,0,0,1-1.24.66.7.7,0,0,1-.53-.11,1.17,1.17,0,0,1,0-1.66A8.73,8.73,0,0,1,496,659a6.85,6.85,0,0,0,1-1,1.29,1.29,0,0,0,.31-1.23,1.31,1.31,0,0,0-.32-.39c-.2-.2-.62-.22-1.26-.07a1.65,1.65,0,0,0-.89.75,5.32,5.32,0,0,0-.78,1.62,8.19,8.19,0,0,0-.42,2.22,9,9,0,0,0,.23,2.58,5.2,5.2,0,0,0,.87,2,5.85,5.85,0,0,0,1.46,1.32,5,5,0,0,0,1.76.61,4.9,4.9,0,0,0,1.87-.06,4.38,4.38,0,0,0,1.35-.59c.48-.32.91-.64,1.3-.94s.76-.64,1.05-.89a2.24,2.24,0,0,1,.58-.46.44.44,0,0,1,.3.07A.59.59,0,0,1,504.73,664.74Zm-6.77-18a2,2,0,0,1-.3,1.13,13.36,13.36,0,0,1-1,1.65,14.79,14.79,0,0,1-1.19,1.66,7.69,7.69,0,0,1-1,1.06,2,2,0,0,1-.56.37l-.43.14a1.69,1.69,0,0,1-1-.19c-.41-.19-.64-.39-.7-.63,0-.06.11-.16.35-.31s.49-.39.77-.64a10.19,10.19,0,0,0,.95-1.09l1.18-1.52c.4-.52.76-1,1.07-1.36a2.27,2.27,0,0,1,.73-.63,1.36,1.36,0,0,1,.66,0C497.79,646.51,497.92,646.62,498,646.76ZM514.42,666a.59.59,0,0,1-.14.59,1.15,1.15,0,0,1-.57.32c-.27.06-.6-.13-1-.56a14.41,14.41,0,0,1-1.22-1.7c-.44-.7-.88-1.46-1.31-2.29s-.84-1.63-1.19-2.35-.66-1.38-.89-1.88-.32-.78-.34-.84a5.11,5.11,0,0,0-.38-.88c-.21-.48-.52-1.22-.93-2.24s-.88-2.33-1.47-3.95-1.24-3.71-2-6.14a4.8,4.8,0,0,1-.1-1c0-.43.15-.68.47-.76s.78.11,1.11.62a8.51,8.51,0,0,1,1,1.94,21.92,21.92,0,0,1,.9,2.52c.26.86.52,1.62.76,2.27.33.91.63,1.74.89,2.48s.57,1.47.83,2.21l.93,2.23c.37.78.78,1.64,1.24,2.58Zm14.84-6.92a.53.53,0,0,1,.11.25,1.66,1.66,0,0,1-.21.88,5.05,5.05,0,0,1-.44.7,6,6,0,0,1-1,1.06,9.48,9.48,0,0,1-4.1,2,4.86,4.86,0,0,1-2.08,0,5.63,5.63,0,0,1-2-1,7.91,7.91,0,0,1-1.74-1.95,9.63,9.63,0,0,1-1.21-3.05,11.1,11.1,0,0,1-.3-3.3,12,12,0,0,1,.49-2.89,6.91,6.91,0,0,1,1.12-2.15,2.7,2.7,0,0,1,1.47-1,3.46,3.46,0,0,1,1.47,0,5,5,0,0,1,1.48.39,3.53,3.53,0,0,1,1.2.79,2.07,2.07,0,0,1,.6,1,2.17,2.17,0,0,1-.3,1.5,8,8,0,0,1-1.1,1.64,13.71,13.71,0,0,1-1.44,1.34A3.87,3.87,0,0,1,520,656a.7.7,0,0,1-.53-.11,1.17,1.17,0,0,1,0-1.66,8.05,8.05,0,0,1,1.08-.9,6.76,6.76,0,0,0,1-1,1.29,1.29,0,0,0,.32-1.23,1.31,1.31,0,0,0-.32-.39c-.2-.2-.62-.22-1.26-.07a1.61,1.61,0,0,0-.89.75,5.32,5.32,0,0,0-.78,1.62,8.19,8.19,0,0,0-.42,2.22,8.64,8.64,0,0,0,.23,2.58,5.2,5.2,0,0,0,.87,2,5.85,5.85,0,0,0,1.46,1.32,5,5,0,0,0,1.75.61,4.94,4.94,0,0,0,1.88-.06,4.38,4.38,0,0,0,1.35-.59c.47-.32.91-.64,1.3-.94s.76-.64,1-.89a2.39,2.39,0,0,1,.59-.46.41.41,0,0,1,.29.07A.5.5,0,0,1,529.26,659.09Zm15-7a3.24,3.24,0,0,1,.08.95,7.68,7.68,0,0,1-.09.81c0,.1-.24.47-.62,1.11a15,15,0,0,1-1.43,2,15.56,15.56,0,0,1-2.06,2.09,5.73,5.73,0,0,1-2.39,1.24,4.69,4.69,0,0,1-1.6.09,4.35,4.35,0,0,1-1.59-.51,5.07,5.07,0,0,1-1.44-1.23,5.29,5.29,0,0,1-.89-2.06,10.22,10.22,0,0,1-.18-4,14.59,14.59,0,0,1,.78-3,6.36,6.36,0,0,1,.56-1.15c.28-.43.54-.81.8-1.15a6.88,6.88,0,0,1,.72-.9,1.51,1.51,0,0,1,.55-.41,1.2,1.2,0,0,1,.75.06q.4.13.45.36a.94.94,0,0,1-.07.66,5.31,5.31,0,0,1-.41.65,8.94,8.94,0,0,0-.66.94,7.57,7.57,0,0,0-.74,1.41,11.74,11.74,0,0,0-.89,3.35,8.82,8.82,0,0,0,.13,2.74,2.34,2.34,0,0,0,1.25,1.65,3,3,0,0,0,1.95.24,5.86,5.86,0,0,0,2.77-1.42,10.52,10.52,0,0,0,1.85-2.18,17.89,17.89,0,0,0,1.11-2c.26-.58.48-.9.66-.94S544.1,651.59,544.21,652.09Zm12.41-15.33a6.8,6.8,0,0,1-1.32,1.69c-.6.57-1.22,1.11-1.84,1.63l-1.63,1.34c-.47.36-.7.58-.68.67a5.59,5.59,0,0,0,.36.74c.22.42.47.91.76,1.49s.63,1.12,1,1.72.6,1.14.83,1.61c.13.28.29.64.48,1.09s.38.9.55,1.35l.51,1.23c.14.33.21.52.22.55a4.62,4.62,0,0,1,.09,1.41c0,.5-.22.78-.54.86a.7.7,0,0,1-.53-.11,3.14,3.14,0,0,1-.51-.39,3.86,3.86,0,0,1-.39-.51,1.48,1.48,0,0,1-.18-.37q0-.09-.06-.27a1.46,1.46,0,0,0-.05-.4,16.07,16.07,0,0,0-.82-2.35q-.2-.47-.69-1.41l-1-1.94c-.39-.78-.83-1.61-1.32-2.52-.21-.38-.33-.57-.36-.56a2.87,2.87,0,0,0-1,.64,18.55,18.55,0,0,0-1.41,1.29c-.54.49-1.09,1-1.66,1.63s-1.11,1.1-1.61,1.62-.93.9-1.28,1.26a3,3,0,0,1-.71.53,1.19,1.19,0,0,1-1-.18,1.27,1.27,0,0,1-.55-.8c0-.17.15-.48.57-.91a17,17,0,0,1,1.54-1.56c.6-.57,1.28-1.17,2-1.8s1.38-1.2,2-1.71L548,642l.67-.53c-.58-1.28-1.07-2.43-1.49-3.44s-.69-1.67-1-2.4-.45-1.13-.46-1.19a1.34,1.34,0,0,1,0-.88.78.78,0,0,1,.5-.44c.33-.07.58.1.77.52.68,1.5,1.3,2.84,1.85,4a31.41,31.41,0,0,0,1.52,2.79,10.67,10.67,0,0,0,1.24-.8l1.81-1.38c.63-.49,1.19-.91,1.69-1.27a5.44,5.44,0,0,1,.92-.63c.18,0,.29,0,.35.11A3.2,3.2,0,0,0,556.62,636.76Zm4.89-1.49c0,.06-.06.2-.22.42s-.37.47-.62.74a6.56,6.56,0,0,1-.72.67,1.67,1.67,0,0,1-.65.39l-.48.11a2.68,2.68,0,0,1-.61-.05,1.58,1.58,0,0,1-.57-.24,1,1,0,0,1-.37-.6,1.85,1.85,0,0,1,.18-1.25,1.42,1.42,0,0,1,1-.83,2.78,2.78,0,0,1,.6,0,7,7,0,0,1,1,0,4.56,4.56,0,0,1,.93.21C561.3,635,561.47,635.09,561.51,635.27Zm5.23,16.06c0,.21-.08.42-.36.64a1.64,1.64,0,0,1-.61.37,1,1,0,0,1-.92-.39,6.71,6.71,0,0,1-.92-1.17c-.29-.46-.54-.89-.76-1.3s-.39-.74-.49-.91-.35-.59-.59-1l-.71-1.08-.54-.94a3.7,3.7,0,0,1-.24-.45,3,3,0,0,1-.05-1.19c.1-.39.26-.62.5-.67a1.19,1.19,0,0,1,1,.42,7.91,7.91,0,0,1,1.2,1.39,16.15,16.15,0,0,1,1.26,1.88c.4.68.77,1.33,1.1,2s.59,1.15.79,1.62A7.82,7.82,0,0,1,566.74,651.33Zm9.31-8.14a6.49,6.49,0,0,1,.16,1.9,5.89,5.89,0,0,1-.35,1.7,3.72,3.72,0,0,1-.81,1.29,2.39,2.39,0,0,1-1.19.64,2.66,2.66,0,0,1-2.09-.25,5.19,5.19,0,0,1-1.47-1.37,8.71,8.71,0,0,1-.91-1.73c-.2-.63-.34-1.11-.42-1.43a8.18,8.18,0,0,1-.18-1.8,11.2,11.2,0,0,1,.23-2,7.11,7.11,0,0,1,.64-1.62,1.59,1.59,0,0,1,1-.83,1.36,1.36,0,0,1,.41,0,2.78,2.78,0,0,1,.68.12,1.92,1.92,0,0,1,.62.32,1.34,1.34,0,0,1,.5.53,2.28,2.28,0,0,1,1,.13c.37.13.58.25.64.36a10.73,10.73,0,0,1,1,2.18A17.08,17.08,0,0,1,576.05,643.19Zm-2.16-.34a8,8,0,0,0-.44-1.33,5.25,5.25,0,0,0-.87-1.37.41.41,0,0,1-.21.1.89.89,0,0,1-.32,0h-.18a1.14,1.14,0,0,0-.76.5,1.8,1.8,0,0,0-.32.86,5,5,0,0,0,.05,1c0,.36.12.7.19,1s.17.68.3,1.09a7,7,0,0,0,.42,1,4,4,0,0,0,.65.82.84.84,0,0,0,.79.19.92.92,0,0,0,.64-.61,4.19,4.19,0,0,0,.23-1.21,6.21,6.21,0,0,0,0-1.23A8.34,8.34,0,0,0,573.89,642.85Zm20.69.36a1,1,0,0,1-.05.57,2.4,2.4,0,0,1-.33.58,2.29,2.29,0,0,1-.43.52,1.11,1.11,0,0,1-.45.24,8.15,8.15,0,0,1-2,.14,4.51,4.51,0,0,1-2.09-.63,8.23,8.23,0,0,1-1.72-1.45,22.41,22.41,0,0,1-2-2.78c0,1.36-.11,2.72-.26,4.08a10,10,0,0,1-1.22,3.93.36.36,0,0,1-.24.15,1.05,1.05,0,0,1-.73-.16.88.88,0,0,1-.49-.53c-.05-.2-.19-.67-.41-1.38s-.44-1.58-.71-2.47l-.82-2.77c-.25-1-.45-1.74-.59-2.36-.07-.29-.14-.67-.22-1.15a4.3,4.3,0,0,1,0-1.33A2.11,2.11,0,0,1,580,636a1.05,1.05,0,0,1,.59-.42c.21,0,.36.06.45.32a6.68,6.68,0,0,1,.24.87l1.6,6.92a5,5,0,0,0,.18.61,1.71,1.71,0,0,0,.35.52,16.5,16.5,0,0,0,.31-2.66q.11-1.54.21-2.91a18.21,18.21,0,0,1,.29-2.38c.12-.67.31-1,.57-1.1a1.25,1.25,0,0,1,.75,0,1.31,1.31,0,0,1,.6.6c.34.81.63,1.54.87,2.2s.47,1.18.71,1.68a8.11,8.11,0,0,0,.92,1.36,5,5,0,0,0,1.33,1,4.09,4.09,0,0,0,1.55.53,4.91,4.91,0,0,0,1.42,0,2.74,2.74,0,0,0,.55-.22,1.35,1.35,0,0,1,.41-.24c.12,0,.24.06.38.24A1.32,1.32,0,0,1,594.58,643.21Zm12-3.18a1.91,1.91,0,0,1-.22,1.43,4.55,4.55,0,0,1-1.06,1.22,8.77,8.77,0,0,1-1.54,1c-.58.29-1.13.54-1.67.76l-1.46.47-.79.18a3.09,3.09,0,0,1-1.56,0,1.18,1.18,0,0,1-.78-1,2,2,0,0,1-.06-.44q0-.24.3-.3a1.9,1.9,0,0,1,.46,0,3.33,3.33,0,0,0,.49-.07c.12,0,.48-.12,1.09-.29s1.28-.45,2-.73a10,10,0,0,0,1.82-.93c.53-.36.75-.72.67-1.07a2.84,2.84,0,0,0-1-.32c-.66-.19-1.67-.51-3-1a6.47,6.47,0,0,1-2.38-1.3,4.72,4.72,0,0,1-1.13-2.33,2.92,2.92,0,0,1,0-1.67,3.11,3.11,0,0,1,.92-1.22,5.94,5.94,0,0,1,1.55-.87,12.07,12.07,0,0,1,2-.64l.54,0a5.06,5.06,0,0,1,1.08.07,3.38,3.38,0,0,1,1,.27.77.77,0,0,1,.58.52.55.55,0,0,1-.12.3l-.33.77-.51,0h-.79a4.25,4.25,0,0,0-.87,0,4,4,0,0,0-.72.07,3.57,3.57,0,0,0-1.74.87,1.69,1.69,0,0,0-.34,1.74,1.54,1.54,0,0,0,.68,1,6.91,6.91,0,0,0,1.39.65l1.69.49a11.26,11.26,0,0,1,1.73.52,5,5,0,0,1,1.39.79A1.83,1.83,0,0,1,606.62,640Z" transform="translate(-131.61 -285.25)"/></g></g></svg>