<svg id="Calque_1" data-name="Calque 1" xmlns="http://www.w3.org/2000/svg" xmlns:xlink="http://www.w3.org/1999/xlink" viewBox="0 0 383.49 223.54"><defs><style>.cls-1{fill:none;}.cls-2{clip-path:url(#clip-path);}.cls-3{fill:#adb3d7;}.cls-4{fill:#51569e;}.cls-5{fill:#51587d;}</style><clipPath id="clip-path" transform="translate(-308.04 -388.61)"><rect class="cls-1" x="308.15" y="388.04" width="383.7" height="223.93"/></clipPath></defs><g class="cls-2"><path class="cls-3" d="M691.32,388.61,308,389l.22,223.17,383.28-.37Z" transform="translate(-308.04 -388.61)"/><polyline class="cls-4" points="383.28 1.16 191.75 112.93 191.25 112.64 76.12 46.82 77.11 45.08 191.74 110.62 381.86 0 383.28 0 383.28 1.16"/><path class="cls-5" d="M421.15,550.52h-7.47c-.08-.93-1.27-1.36-3-1.35-2,0-2.8.25-2.8,1s.93.67,3,.84c8.65.59,10.51,2.79,10.52,7.2,0,4.59-3.73,6.8-10.51,6.8s-10.35-2.62-10.61-7.2h7.47c.08.94.93,1.36,3.13,1.36,2.55,0,3-.26,3-1,0-.6-1.19-.68-3-.76-7.8-.59-10.35-2.71-10.35-7,0-4.16,3.89-7,10.17-7C417.58,543.4,421,546.11,421.15,550.52Z" transform="translate(-308.04 -388.61)"/><path class="cls-5" d="M426.57,551.37h-3.73v-7.72h5.51Z" transform="translate(-308.04 -388.61)"/><path class="cls-5" d="M437.36,564.76h-7.47l0-21.13h7.47Z" transform="translate(-308.04 -388.61)"/><path class="cls-5" d="M461.16,543.61l0,21.13h-7.29l-7.3-10.43v10.43h-7.46l0-21.13h7.54l7,10.27V543.62Z" transform="translate(-308.04 -388.61)"/><path class="cls-5" d="M462.94,543.61l17.81,0v6.54H470.33V552h10v5.26h-9.92v7.39H463Z" transform="translate(-308.04 -388.61)"/><path class="cls-5" d="M493.56,543.32c6.95,0,11.7,4.15,11.71,10.85,0,7.13-4.57,10.87-11.69,10.88-6.53,0-11.79-3.64-11.8-10.85C481.77,547.41,487,543.33,493.56,543.32Zm0,14.94a3.81,3.81,0,0,0,4.15-4.08,3.85,3.85,0,0,0-4.16-4.07,3.9,3.9,0,0,0-4.15,4.08A3.85,3.85,0,0,0,493.57,558.26Z" transform="translate(-308.04 -388.61)"/><path class="cls-5" d="M514,559.43v5.26h-7.38l0-21.13H517c7.29,0,10.52,3,10.52,7.79,0,3.06-1.1,5.27-3.38,6.54l3.48,6.7H520l-2.38-5.26H514Zm5.76-8c0-1-.6-1.61-2.8-1.6h-3v3.31h3C519.17,553.14,519.77,552.46,519.77,551.44Z" transform="translate(-308.04 -388.61)"/><path class="cls-5" d="M547.49,543.53h8.22l0,21.13h-7.29v-9.92l-3.81,9.93h-4.24l-3.82-9.92v9.93h-7.3l0-21.12h8.82l4.59,10.77Z" transform="translate(-308.04 -388.61)"/><path class="cls-5" d="M557.58,543.52l18.4,0V550H565v1.87h10.52v4.16H565V558h11v6.53l-18.4,0Z" transform="translate(-308.04 -388.61)"/><path class="cls-5" d="M585.24,559.36v5.26h-7.46l0-21.13H588.1c7.29,0,10.52,3,10.52,7.79,0,3.06-1.09,5.27-3.38,6.54l3.48,6.7h-7.63l-2.38-5.26h-3.48Zm5.75-8c0-1-.59-1.61-2.8-1.61h-3v3.31h3C590.4,553.07,591,552.39,591,551.38Z" transform="translate(-308.04 -388.61)"/><path class="cls-5" d="M499.79,500.38,691.33,402.7V388.61Z" transform="translate(-308.04 -388.61)"/></g></svg>