<svg xmlns="http://www.w3.org/2000/svg" xmlns:xlink="http://www.w3.org/1999/xlink" viewBox="0 0 635.74 435.41"><defs><style>.cls-1{fill:none;}.cls-2{clip-path:url(#clip-path);}.cls-3{fill:#adb3d7;}.cls-4{fill:#51587d;}</style><clipPath id="clip-path" transform="translate(-188.07 -286.4)"><rect class="cls-1" x="334.99" y="209.94" width="342.74" height="587.28" transform="translate(-75.24 917.99) rotate(-80.31)"/></clipPath></defs><g id="enveloppe_bleue" data-name="enveloppe bleue"><g class="cls-2"><path class="cls-3" d="M823.81,385.1,245.54,286.4,188.07,623.1l578.27,98.7Z" transform="translate(-188.07 -286.4)"/><polygon class="cls-4" points="317.68 218.84 160.6 89.37 161.88 87.82 318.06 216.56 633.78 98.37 635.74 98.7 635.55 99.84 317.68 218.84"/><path class="cls-4" d="M374.32,531.37l-11.26-1.92c.12-1.43-1.57-2.38-4.13-2.81-3.07-.53-4.28-.34-4.48.81s1.23,1.27,4.26,2c12.9,3.12,15.14,6.93,14,13.59-1.18,6.91-7.38,9.28-17.62,7.53S340.17,544,341,537l11.26,1.92c-.11,1.43,1.06,2.29,4.38,2.86,3.84.65,4.55.38,4.74-.78.15-.89-1.61-1.33-4.28-1.91-11.62-2.91-14.91-6.76-13.79-13.29,1.07-6.28,7.67-9.5,17.14-7.88C370.78,519.7,375.2,524.67,374.32,531.37Z" transform="translate(-188.07 -286.4)"/><path class="cls-4" d="M382.29,534.05l-5.63-1,2-11.65,8.32,1.42Z" transform="translate(-188.07 -286.4)"/><path class="cls-4" d="M395.09,557.05l-11.26-1.92,5.44-31.88,11.26,1.92Z" transform="translate(-188.07 -286.4)"/><path class="cls-4" d="M436.48,531.31,431,563.19l-11-1.88-8.31-17.63L409,559.43l-11.26-1.92,5.44-31.88,11.39,1.94,7.85,17.29,2.64-15.5Z" transform="translate(-188.07 -286.4)"/><path class="cls-4" d="M439.16,531.77,466,536.35l-1.68,9.86-15.74-2.69-.48,2.82,15.1,2.58-1.36,7.93-15-2.55L445,565.44l-11.26-1.92Z" transform="translate(-188.07 -286.4)"/><path class="cls-4" d="M485.41,539.27c10.49,1.79,16.59,9.28,14.86,19.4-1.83,10.75-9.7,15.2-20.45,13.37-9.85-1.68-16.84-8.54-15-19.42C466.58,542.38,475.56,537.58,485.41,539.27Zm-3.84,22.53c3.84.65,6.66-1.24,7.32-5.08s-1.39-6.56-5.22-7.21a6,6,0,0,0-7.32,5.07C475.69,558.42,477.86,561.16,481.57,561.8Z" transform="translate(-188.07 -286.4)"/><path class="cls-4" d="M512.09,568.85l-1.35,7.94-11.13-1.9L505.05,543l15.61,2.67c11,1.87,15.08,7.31,13.85,14.48-.78,4.61-3,7.66-6.8,9l3.52,11-11.51-2-2.23-8.55-.9-.15-4.47-.77Zm10.76-10.55c.26-1.53-.48-2.58-3.81-3.15l-4.48-.76-.85,5,4.48.76C521.52,560.71,522.59,559.84,522.85,558.3Z" transform="translate(-188.07 -286.4)"/><path class="cls-4" d="M566.72,553.54l12.41,2.12-5.45,31.87-11-1.87,2.56-15-8.32,14-6.39-1.09-3.2-16-2.56,15-11-1.88,5.44-31.88,13.3,2.27,4.14,17.44Z" transform="translate(-188.07 -286.4)"/><path class="cls-4" d="M581.94,556.14l27.76,4.73L608,570.73l-16.63-2.84-.48,2.82,15.86,2.71-1.07,6.27L589.84,577l-.51,2.95L606,582.77l-1.69,9.85-27.76-4.73Z" transform="translate(-188.07 -286.4)"/><path class="cls-4" d="M619.56,587.2l-1.35,7.93L607,593.21l5.44-31.88L628,564c11,1.88,15.07,7.31,13.85,14.48-.79,4.61-3,7.66-6.8,9l3.52,11-11.51-2L624.83,588l-.9-.15-4.35-.74Zm10.75-10.55c.27-1.54-.48-2.59-3.8-3.16l-4.48-.76-.85,5,4.48.77C629,579.05,630.05,578.18,630.31,576.65Z" transform="translate(-188.07 -286.4)"/><path class="cls-4" d="M505.94,504.1l314.24-97.75,3.63-21.25Z" transform="translate(-188.07 -286.4)"/><path class="cls-4" d="M379.41,579.1a.58.58,0,0,1-.35.45,14.71,14.71,0,0,1-1.5.53q-1.05.33-2.34.66c-.83.24-1.7.47-2.62.72s-1.77.46-2.52.64-1.41.32-1.94.41-.78.19-.81.19c-.23,0-.46-.35-.67-.93a13.78,13.78,0,0,1-.45-2.26c-.12-1-.2-2.06-.24-3.28s-.06-2.56-.05-3.93.11-2.73.22-4.11.31-2.75.51-4a29.24,29.24,0,0,1,1-4.4,12.37,12.37,0,0,1,1.06-2.29,2.32,2.32,0,0,1,.87-.86,1.41,1.41,0,0,1,.39-.16.68.68,0,0,1,.53.4,1.14,1.14,0,0,1,.12.66,2,2,0,0,1-.28.59,11.32,11.32,0,0,0-.6,1.18c-.21.51-.44,1.18-.69,2a29.54,29.54,0,0,0-.62,3c-.18,1.07-.31,2.19-.41,3.36s-.11,2.33-.12,3.49,0,2.25.06,3.29.17,2,.28,2.78a18.2,18.2,0,0,0,.36,2c.14.47.29.73.47.76l.61-.13,1.42-.32a18.06,18.06,0,0,1,1.84-.38c.69-.13,1.38-.24,2.06-.31.31,0,.66-.07,1.06-.1l1.21-.12c.37,0,.69-.06,1-.07h.55C379.25,578.57,379.46,578.78,379.41,579.1Zm14.94,1.11a.6.6,0,0,1,0,.27,1.52,1.52,0,0,1-.53.74,5.06,5.06,0,0,1-.67.48,6.19,6.19,0,0,1-1.33.61,9.31,9.31,0,0,1-2,.4,8.87,8.87,0,0,1-2.58-.1,4.78,4.78,0,0,1-1.93-.77,5.46,5.46,0,0,1-1.5-1.66,7.69,7.69,0,0,1-.88-2.46,9.54,9.54,0,0,1,0-3.28,11.62,11.62,0,0,1,1-3.17,12.08,12.08,0,0,1,1.55-2.48,6.73,6.73,0,0,1,1.85-1.57,2.64,2.64,0,0,1,1.75-.4,3.7,3.7,0,0,1,1.37.54,4.8,4.8,0,0,1,1.22.93,3.67,3.67,0,0,1,.81,1.18,1.93,1.93,0,0,1,.17,1.17,2.13,2.13,0,0,1-.84,1.27,7.69,7.69,0,0,1-1.64,1.1,12.49,12.49,0,0,1-1.85.71,3.68,3.68,0,0,1-1.39.13.63.63,0,0,1-.45-.3,1.16,1.16,0,0,1-.08-.65,1.14,1.14,0,0,1,.7-.89,9.11,9.11,0,0,1,1.34-.42,6.47,6.47,0,0,0,1.32-.51,1.31,1.31,0,0,0,.75-1,1.37,1.37,0,0,0-.15-.48c-.11-.26-.49-.44-1.14-.55a1.63,1.63,0,0,0-1.11.37,5.65,5.65,0,0,0-1.33,1.19,8.41,8.41,0,0,0-1.22,1.9,8.79,8.79,0,0,0-.77,2.48,5.5,5.5,0,0,0,.06,2.15,6,6,0,0,0,.85,1.78,5.21,5.21,0,0,0,1.4,1.23,4.93,4.93,0,0,0,1.76.65,4.33,4.33,0,0,0,1.47,0c.56-.12,1.08-.24,1.56-.38s.95-.3,1.3-.43a2.26,2.26,0,0,1,.72-.2.37.37,0,0,1,.24.18A.54.54,0,0,1,394.35,580.21Zm13.33.94a1.89,1.89,0,0,1-.75,1.24,4.24,4.24,0,0,1-1.44.73,9.44,9.44,0,0,1-1.78.3c-.65.05-1.26.07-1.84.07s-1.08-.07-1.53-.12l-.8-.13a3.06,3.06,0,0,1-1.46-.55,1.2,1.2,0,0,1-.35-1.2,2,2,0,0,1,.12-.44c0-.14.18-.2.39-.16a1.84,1.84,0,0,1,.43.16,4.14,4.14,0,0,0,.48.12l1.12.14c.66.05,1.35.07,2.08.07a10.46,10.46,0,0,0,2-.18c.63-.14,1-.38,1-.74,0-.06-.27-.29-.85-.68s-1.35-1.11-2.44-2a6.23,6.23,0,0,1-1.71-2.11,4.66,4.66,0,0,1-.18-2.58,3,3,0,0,1,.66-1.53,3.11,3.11,0,0,1,1.32-.79,5.56,5.56,0,0,1,1.76-.21,10.68,10.68,0,0,1,2.08.15,4.84,4.84,0,0,1,.51.18,5.44,5.44,0,0,1,1,.47,3.27,3.27,0,0,1,.85.64.76.76,0,0,1,.34.7c0,.06-.08.14-.22.24l-.6.58-.46-.21-.73-.3a4.14,4.14,0,0,0-.81-.32,4.69,4.69,0,0,0-.7-.2,3.48,3.48,0,0,0-1.94.14,1.68,1.68,0,0,0-1,1.48,1.6,1.6,0,0,0,.27,1.14,6.4,6.4,0,0,0,1.05,1.13l1.37,1.09a11.67,11.67,0,0,1,1.41,1.14,5,5,0,0,1,1,1.25A1.8,1.8,0,0,1,407.68,581.15Zm37.58-1a4.17,4.17,0,0,1-1,2.12,9.81,9.81,0,0,1-1.88,1.74,20.64,20.64,0,0,1-2.31,1.36c-.82.38-1.58.71-2.26,1l-1.63.78c-.43.2-.66.38-.68.53a13.22,13.22,0,0,0-.14,1.66c0,.7,0,1.47-.05,2.32s0,1.67,0,2.55,0,1.69-.07,2.41c0,0,0,.16,0,.4s0,.53.05.83a4.93,4.93,0,0,1,0,.83,2.91,2.91,0,0,1,0,.5,4.42,4.42,0,0,1-.15.66,1.77,1.77,0,0,1-.25.69,1.29,1.29,0,0,1-.4.53.87.87,0,0,1-.62.13.77.77,0,0,1-.64-.56,1.76,1.76,0,0,1-.09-.84l0-.18a.4.4,0,0,0,.08-.21,24.13,24.13,0,0,0,.07-2.68c0-1.46,0-3.21,0-5.24s.1-4.15.23-6.44a61.56,61.56,0,0,1,.69-6.49,4,4,0,0,1,.13-.49c.06-.2.1-.37.13-.52a5.52,5.52,0,0,0-1.4.18,11.62,11.62,0,0,0-1.83.62,9.14,9.14,0,0,0-1.69.82,1.44,1.44,0,0,0-.78.87l-.31-.05c-.09,0-.18-.09-.28-.23a1.38,1.38,0,0,1-.29-.45c-.09-.17-.17-.34-.24-.5a.82.82,0,0,1-.08-.33,2.21,2.21,0,0,1,1.39-1.55,10.92,10.92,0,0,1,3-1,19.5,19.5,0,0,1,3.86-.42,19.79,19.79,0,0,1,3.84.21,9.21,9.21,0,0,1,2.82.87,6.31,6.31,0,0,1,1.75,1.29,3.44,3.44,0,0,1,.84,1.28A2.13,2.13,0,0,1,445.26,580.1Zm-2.15-.48c.05-.3-.28-.66-1-1.07a6.58,6.58,0,0,0-2.54-.92,16.77,16.77,0,0,0-2-.23,4.64,4.64,0,0,0-.87,0c-.14.47-.27,1-.41,1.67s-.26,1.31-.37,2-.21,1.41-.29,2.1-.08,1.21-.09,1.67l1.86-.79c.82-.36,1.62-.76,2.43-1.2a13.66,13.66,0,0,0,2.11-1.53A3.05,3.05,0,0,0,443.11,579.62Zm15.24,1.88a.71.71,0,0,1-.36.49,3.1,3.1,0,0,1-.67.21,6.46,6.46,0,0,1-.75.11c-.24,0-.43,0-.58,0a3,3,0,0,1-.88-.23.8.8,0,0,0-.34-.15,7,7,0,0,0-1.8-.11,1.93,1.93,0,0,0-1.82,1.34,10,10,0,0,0-.32,1.41c-.15,1-.24,1.71-.28,2.28v1.41c0,.37.06.67.09.88a1.2,1.2,0,0,1,0,.56,1.17,1.17,0,0,1-.52.69,1,1,0,0,1-.73.29c-.36-.06-.63-.42-.83-1.09a16.59,16.59,0,0,1-.34-2.38c0-.92,0-1.82,0-2.7a16,16,0,0,1,.14-2,8.18,8.18,0,0,1,.37-1.4,5.05,5.05,0,0,1,.55-1.14,3.19,3.19,0,0,1,.62-.77.78.78,0,0,1,.59-.22.4.4,0,0,1,.32.24,1,1,0,0,1,.17.39l.12.38a.44.44,0,0,0,.29.19,3.81,3.81,0,0,0,1.35-.19,5.35,5.35,0,0,1,2.24-.05,13,13,0,0,1,1.76.38,4,4,0,0,1,1.16.46.86.86,0,0,1,.28.27A.49.49,0,0,1,458.35,581.5Zm10.87,5.83a6.14,6.14,0,0,1-.57,1.82,5.83,5.83,0,0,1-1,1.44,3.65,3.65,0,0,1-1.24.89,2.35,2.35,0,0,1-1.34.15,2.69,2.69,0,0,1-1.84-1,5.32,5.32,0,0,1-.85-1.82,9.32,9.32,0,0,1-.18-1.95,13.51,13.51,0,0,1,.15-1.48,7.58,7.58,0,0,1,.51-1.74,10.87,10.87,0,0,1,1-1.76,7,7,0,0,1,1.21-1.26,1.54,1.54,0,0,1,1.2-.4,1.67,1.67,0,0,1,.39.16,2.68,2.68,0,0,1,.58.37,2,2,0,0,1,.46.53,1.37,1.37,0,0,1,.25.68,2.17,2.17,0,0,1,.92.51c.29.26.44.45.45.58a10.57,10.57,0,0,1,.07,2.38A16.35,16.35,0,0,1,469.22,587.33Zm-1.86-1.13a7.86,7.86,0,0,0,.09-1.39,5.47,5.47,0,0,0-.29-1.6.58.58,0,0,1-.23,0,.81.81,0,0,1-.3-.1.47.47,0,0,0-.17-.07,1.17,1.17,0,0,0-.9.17,1.77,1.77,0,0,0-.61.68,4.81,4.81,0,0,0-.34,1c-.08.35-.15.69-.21,1s-.1.7-.13,1.12a6.22,6.22,0,0,0,0,1.14,3.66,3.66,0,0,0,.3,1,.8.8,0,0,0,.65.47.91.91,0,0,0,.83-.32,4,4,0,0,0,.66-1,5.61,5.61,0,0,0,.42-1.16A7.4,7.4,0,0,0,467.36,586.2Zm16.45,9.34a.69.69,0,0,1-.46.61.55.55,0,0,0-.44.43,2,2,0,0,0,.1.51,11.18,11.18,0,0,1,.22,1.18c.08.83.14,1.56.19,2.17a14,14,0,0,1,.14,1.71c0,.53,0,1,0,1.56a14.47,14.47,0,0,1-.19,1.7,6.46,6.46,0,0,1-.62,1.86,5.56,5.56,0,0,1-1.17,1.59,5,5,0,0,1-1.62,1,3.9,3.9,0,0,1-2,.18,4.6,4.6,0,0,1-2.51-1.1,4.81,4.81,0,0,1-1.18-1.74,5.08,5.08,0,0,1-.35-1.79,8.34,8.34,0,0,1,0-1.08,7.23,7.23,0,0,1,1.38-3.15,20,20,0,0,1,2.35-2.68c.83-.77,1.57-1.41,2.23-1.91a4.34,4.34,0,0,0,1-.89l-.25-1.54a6.42,6.42,0,0,0-1,1.07,9.2,9.2,0,0,1-.9,1.08,3.87,3.87,0,0,1-1,.79,2.13,2.13,0,0,1-1.3.15,3.11,3.11,0,0,1-1.52-.75,4.61,4.61,0,0,1-1.19-1.69,9.28,9.28,0,0,1-.64-2.52,13.33,13.33,0,0,1,.17-3.26,13.06,13.06,0,0,1,.72-2.48,14,14,0,0,1,1.46-2.82,8.66,8.66,0,0,1,2-2.13A3.29,3.29,0,0,1,480,581a3.53,3.53,0,0,1,1.33.49c.42.25.6.51.56.78a1.16,1.16,0,0,1-.23.55,2.07,2.07,0,0,1-.43.39c-.08-.07-.17-.15-.28-.23a.79.79,0,0,0-.38-.15,2.35,2.35,0,0,0-1.92.6,7.52,7.52,0,0,0-1.64,1.92,15.63,15.63,0,0,0-1.27,2.48,12.84,12.84,0,0,0-.66,2.36,6.58,6.58,0,0,0,.2,3.58c.37.86.84,1.33,1.41,1.42a1.18,1.18,0,0,0,.93-.44,9.65,9.65,0,0,0,1.11-1.19,16.07,16.07,0,0,0,1-1.3c.27-.41.44-.66.48-.74a5.68,5.68,0,0,0,.26-1c.05-.32.09-.68.12-1.07l.21-1.24a8.3,8.3,0,0,1,.49-1.88.87.87,0,0,1,1-.66,1.17,1.17,0,0,1,.95.61,1.55,1.55,0,0,1,.16,1c-.05.27-.12.59-.21,1s-.11.71-.17,1.06a8.59,8.59,0,0,1-.19.89c0,.23-.06.38-.07.44s-.06.45-.09.81a9.23,9.23,0,0,1,0,1c0,.34,0,.65,0,.95s0,.47.05.56,0,.23.06.42a1.93,1.93,0,0,0,.12.43.55.55,0,0,1,.2-.15c.11-.07.19-.14.26-.19a1.21,1.21,0,0,1,.32.6A2,2,0,0,1,483.81,595.54Zm-2.43,5.39c0-.49-.09-1-.16-1.48s-.14-1-.21-1.54c-.6.54-1.19,1.05-1.75,1.54s-1.05,1-1.53,1.53a10.23,10.23,0,0,0-1.17,1.58,6.22,6.22,0,0,0-.63,1.91,3.41,3.41,0,0,0,.39,2.39,2.32,2.32,0,0,0,1.59,1.17,2.93,2.93,0,0,0,2-.45,2.68,2.68,0,0,0,1.29-2c.1-.62.17-1.14.2-1.56a9.33,9.33,0,0,0,.05-1.14,4.64,4.64,0,0,0,0-.91C481.43,601.67,481.41,601.33,481.38,600.93Zm18.17-12.72a.65.65,0,0,1-.35.48,3.1,3.1,0,0,1-.67.21,6.79,6.79,0,0,1-.75.11,4.2,4.2,0,0,1-.59,0,3,3,0,0,1-.87-.23,1,1,0,0,0-.34-.15,7.08,7.08,0,0,0-1.81-.11,2.43,2.43,0,0,0-1.16.4,2.3,2.3,0,0,0-.65,1,9.53,9.53,0,0,0-.32,1.4c-.15.95-.25,1.71-.28,2.28v1.42c0,.37.06.66.08.88a1.16,1.16,0,0,1,.05.55,1.12,1.12,0,0,1-.52.69,1,1,0,0,1-.73.29c-.36-.06-.64-.42-.83-1.09a16.38,16.38,0,0,1-.34-2.38c0-.92,0-1.82,0-2.69a16.16,16.16,0,0,1,.14-2,7.35,7.35,0,0,1,.36-1.4,5,5,0,0,1,.56-1.14,3.12,3.12,0,0,1,.62-.76.74.74,0,0,1,.58-.23.46.46,0,0,1,.33.24,1,1,0,0,1,.17.39l.12.38a.41.41,0,0,0,.28.19,3.85,3.85,0,0,0,1.36-.19,5.34,5.34,0,0,1,2.24,0A13,13,0,0,1,498,587a4.32,4.32,0,0,1,1.16.46,1.13,1.13,0,0,1,.27.27A.48.48,0,0,1,499.55,588.21Zm24,8.32a4.15,4.15,0,0,1-1.08,1.87,10.44,10.44,0,0,1-2.32,2,12.44,12.44,0,0,1-3.2,1.44,8.17,8.17,0,0,1-3.54.2,6.12,6.12,0,0,1-1.65-.54,8.49,8.49,0,0,1-1.61-1,8,8,0,0,1-1.31-1.49,5,5,0,0,1-.7-1.85,6,6,0,0,0-.81.78c-.3.38-.64.77-1,1.16a6.44,6.44,0,0,1-1.16,1,1.73,1.73,0,0,1-1.18.27,1.18,1.18,0,0,1-.88-.74,6.66,6.66,0,0,1-.36-1.43,8.35,8.35,0,0,1-.08-1.47c0-.45,0-.71,0-.77a12,12,0,0,1,.64-1.94,19.12,19.12,0,0,1,1.44-3,12,12,0,0,1,2-2.59,2.9,2.9,0,0,1,2.47-.88.6.6,0,0,1,.55.55,2,2,0,0,1,.05.83l-.22,1.33a2.07,2.07,0,0,0,.4.34,1,1,0,0,1,.42.25.54.54,0,0,1,.26.36,1.54,1.54,0,0,1,0,.73,4,4,0,0,1-.14.57,1.8,1.8,0,0,0-.12.44,14.84,14.84,0,0,0-.19,2.29,5.67,5.67,0,0,0,.39,2.12,4.52,4.52,0,0,0,1.23,1.66,5,5,0,0,0,2.4.93,6.3,6.3,0,0,0,3.42-.26,10.53,10.53,0,0,0,2.56-1.45,15.5,15.5,0,0,0,1.76-1.59c.45-.5.79-.73,1-.69A.51.51,0,0,1,523.52,596.53ZM508.25,592a.61.61,0,0,0,0-.33.79.79,0,0,1,0-.32.6.6,0,0,1,.14-.3.72.72,0,0,0,.15-.34.19.19,0,0,0-.06-.19.27.27,0,0,1-.06-.2,1.68,1.68,0,0,0-1,.62,14.41,14.41,0,0,0-1.05,1.43,12.67,12.67,0,0,0-.88,1.72,7.18,7.18,0,0,0-.46,1.43,4.74,4.74,0,0,0,0,1.05,2.2,2.2,0,0,0,.24,1c.68-1,1.3-1.89,1.87-2.8A7.16,7.16,0,0,0,508.25,592ZM543,604.89a.94.94,0,0,1-.32.58,1.79,1.79,0,0,1-.61.36,3.79,3.79,0,0,1-.7.11,2.06,2.06,0,0,1-.55,0,2,2,0,0,1-1.44-1.24,11,11,0,0,1-.74-2.4,16.32,16.32,0,0,1-.29-2.42c0-.73,0-1.13,0-1.18a7.34,7.34,0,0,0-.85,1.55c-.3.74-.65,1.48-1.05,2.24a8.82,8.82,0,0,1-1.36,1.92,1.73,1.73,0,0,1-1.65.64,1.09,1.09,0,0,1-.76-.67,6,6,0,0,1-.53-1.5c-.15-.6-.28-1.27-.4-2s-.2-1.48-.33-2.2-.2-1.38-.31-2a8.27,8.27,0,0,0-.38-1.56,9.82,9.82,0,0,0-.79,1.74c-.24.75-.48,1.55-.71,2.39s-.43,1.63-.62,2.45-.35,1.54-.45,2.16a1,1,0,0,1-.5.83,1,1,0,0,1-.71.16,1.33,1.33,0,0,1-.87-.78,9.87,9.87,0,0,1-.7-1.85,19.58,19.58,0,0,1-.56-2.46c-.13-.9-.24-1.8-.34-2.7s-.1-1.73-.09-2.52a13.63,13.63,0,0,1,.15-2,9.88,9.88,0,0,1,.22-1.06,5.83,5.83,0,0,0,.16-.74,4.08,4.08,0,0,0,.11-.4.17.17,0,0,0-.06-.19.41.41,0,0,1,0-.23c0-.09.13-.2.37-.35a1.08,1.08,0,0,1,.76-.19c.42.07.67.2.76.39a1,1,0,0,1,.12.66,3.78,3.78,0,0,1-.11.4c0,.17-.09.57-.2,1.19a13.4,13.4,0,0,0-.08,1.91q0,1.27.12,2.61c.07.9.15,1.73.24,2.5a5,5,0,0,0,.36,1.43.84.84,0,0,0,.15-.38,3.27,3.27,0,0,1,.15-.39l1.09-3.56a13.54,13.54,0,0,1,1.18-2.77,9.89,9.89,0,0,1,1.59-2.21.6.6,0,0,1,.54-.27c.18,0,.32.19.43.48a10.6,10.6,0,0,1,.7,2.66,24.39,24.39,0,0,1,.28,2.51c.08.8.17,1.63.28,2.46a10.05,10.05,0,0,0,.82,2.55,14.55,14.55,0,0,0,1.19-1.72l1.5-2.49c.53-.83,1-1.54,1.44-2.14s.74-.92.92-.9l.44.12.43.12c.27,0,.44.39.52,1a16.11,16.11,0,0,1,.1,2.2c0,.83,0,1.66,0,2.51a9.37,9.37,0,0,0,.19,1.9,2.71,2.71,0,0,0,.4.93c.19.31.39.6.58.87Zm23.3,3.79a1,1,0,0,1-.33.58,1.92,1.92,0,0,1-.6.36,5,5,0,0,1-.71.11,1.75,1.75,0,0,1-2-1.23,10.81,10.81,0,0,1-.75-2.4,17.78,17.78,0,0,1-.29-2.42c0-.73,0-1.13,0-1.19a9.15,9.15,0,0,0-.85,1.55,23.8,23.8,0,0,1-1,2.25,8.82,8.82,0,0,1-1.36,1.92,1.73,1.73,0,0,1-1.65.64,1.09,1.09,0,0,1-.76-.67,6.64,6.64,0,0,1-.53-1.5c-.15-.6-.28-1.27-.4-2s-.2-1.48-.33-2.2-.2-1.38-.31-2a7.85,7.85,0,0,0-.38-1.57,11.18,11.18,0,0,0-.79,1.75c-.24.75-.48,1.54-.7,2.39s-.44,1.63-.63,2.45-.34,1.54-.44,2.16a1.07,1.07,0,0,1-.5.83,1,1,0,0,1-.71.16,1.32,1.32,0,0,1-.88-.78,10.62,10.62,0,0,1-.7-1.85,21.52,21.52,0,0,1-.56-2.46c-.13-.9-.24-1.8-.34-2.7s-.09-1.73-.09-2.52a15.13,15.13,0,0,1,.15-2c.06-.38.14-.74.22-1.06s.13-.51.17-.74.1-.37.11-.4a.19.19,0,0,0-.06-.19s0-.11,0-.23.14-.2.37-.35a1.08,1.08,0,0,1,.76-.19c.42.06.67.2.76.39a1,1,0,0,1,.12.66,2,2,0,0,1-.11.39c0,.18-.09.58-.19,1.2a10.94,10.94,0,0,0-.08,1.91q0,1.27.12,2.61c.06.9.14,1.73.23,2.5a5,5,0,0,0,.36,1.43.84.84,0,0,0,.15-.39,2.15,2.15,0,0,1,.16-.38l1.08-3.56a14.46,14.46,0,0,1,1.18-2.78,10,10,0,0,1,1.59-2.2.61.61,0,0,1,.54-.27c.18,0,.32.18.43.47a10.36,10.36,0,0,1,.7,2.67,24.39,24.39,0,0,1,.28,2.51c.08.8.18,1.62.28,2.46a10.46,10.46,0,0,0,.82,2.55,14.2,14.2,0,0,0,1.19-1.72l1.5-2.49c.53-.83,1-1.54,1.44-2.14s.75-.93.92-.9l.44.12.44.12c.26,0,.44.39.51,1a14.59,14.59,0,0,1,.1,2.2c0,.83,0,1.66,0,2.51a9.37,9.37,0,0,0,.19,1.9,2.91,2.91,0,0,0,.4.93c.19.31.39.6.59.87Zm16,2.1a.74.74,0,0,1,0,.27,1.73,1.73,0,0,1-.53.74,6.32,6.32,0,0,1-.68.48,5.86,5.86,0,0,1-1.32.6,9.51,9.51,0,0,1-2,.41,9.24,9.24,0,0,1-2.58-.1,4.83,4.83,0,0,1-1.92-.77,5.37,5.37,0,0,1-1.51-1.66,7.67,7.67,0,0,1-.88-2.47,10,10,0,0,1,0-3.27,11.63,11.63,0,0,1,1-3.17,12.43,12.43,0,0,1,1.54-2.49,7.27,7.27,0,0,1,1.85-1.57,2.69,2.69,0,0,1,1.75-.39,3.34,3.34,0,0,1,1.37.54,5,5,0,0,1,1.22.92,3.5,3.5,0,0,1,.81,1.19,1.91,1.91,0,0,1,.17,1.16,2.15,2.15,0,0,1-.84,1.28,7.69,7.69,0,0,1-1.64,1.1,12,12,0,0,1-1.85.7,3.73,3.73,0,0,1-1.39.14.73.73,0,0,1-.45-.3,1.2,1.2,0,0,1,.62-1.54,7.22,7.22,0,0,1,1.34-.42,7.12,7.12,0,0,0,1.32-.52,1.28,1.28,0,0,0,.75-1,1.37,1.37,0,0,0-.15-.48c-.1-.26-.49-.45-1.14-.55a1.63,1.63,0,0,0-1.1.36,5.77,5.77,0,0,0-1.34,1.2,8.19,8.19,0,0,0-1.22,1.9,8.72,8.72,0,0,0-.77,2.47,5.5,5.5,0,0,0,.06,2.15,5.87,5.87,0,0,0,.85,1.78,5,5,0,0,0,1.4,1.23,5,5,0,0,0,1.76.66,4.33,4.33,0,0,0,1.47,0c.56-.12,1.09-.25,1.56-.38s1-.3,1.3-.43a2,2,0,0,1,.72-.2.39.39,0,0,1,.25.17A.57.57,0,0,1,582.25,610.78Zm13.33.93a1.92,1.92,0,0,1-.75,1.25,4.41,4.41,0,0,1-1.44.72,8.56,8.56,0,0,1-1.78.31c-.65,0-1.26.07-1.84.06s-1.08-.07-1.53-.11l-.8-.13a3.1,3.1,0,0,1-1.46-.56,1.17,1.17,0,0,1-.35-1.19,1.83,1.83,0,0,1,.12-.44c0-.14.18-.2.39-.17a2,2,0,0,1,.43.17l.48.12,1.12.14c.66,0,1.35.06,2.08.06a10.51,10.51,0,0,0,2-.17c.63-.14,1-.39,1-.74q0-.09-.84-.69c-.54-.42-1.36-1.1-2.45-2a6.11,6.11,0,0,1-1.71-2.1,4.75,4.75,0,0,1-.18-2.58,3,3,0,0,1,.66-1.53,3.11,3.11,0,0,1,1.32-.79,5.86,5.86,0,0,1,1.76-.22,11.42,11.42,0,0,1,2.08.16l.52.17a5.8,5.8,0,0,1,1,.48,3.27,3.27,0,0,1,.85.64.75.75,0,0,1,.34.69c0,.06-.08.14-.22.24l-.6.59a3.74,3.74,0,0,0-.46-.21,6,6,0,0,0-.73-.3,3.6,3.6,0,0,0-.81-.32,3.73,3.73,0,0,0-.7-.2,3.48,3.48,0,0,0-1.94.14,1.7,1.7,0,0,0-1,1.48,1.61,1.61,0,0,0,.27,1.14,7.22,7.22,0,0,0,1,1.13L592.9,608a10,10,0,0,1,1.41,1.14,5,5,0,0,1,1,1.25A1.78,1.78,0,0,1,595.58,611.71Z" transform="translate(-188.07 -286.4)"/></g></g></svg>