<svg id="enveloppe_rouge" data-name="enveloppe rouge" xmlns="http://www.w3.org/2000/svg" viewBox="0 0 616.32 358.77"><defs><style>.cls-1{fill:#ec8989;}.cls-2{fill:#ab4a4a;}.cls-3{fill:#ac4b4b;}</style></defs><path class="cls-1" d="M829.12,308.68H212.8V667.46H829.12Z" transform="translate(-212.8 -308.68)"/><polygon class="cls-2" points="308.16 180.54 195.16 114.77 196.17 113.04 308.16 178.23 614.33 0 616.32 0 616.32 1.16 308.16 180.54"/><path class="cls-2" d="M521,488.07,829.12,331.33V308.68Z" transform="translate(-212.8 -308.68)"/><path class="cls-3" d="M387.45,599a.56.56,0,0,1-.27.49,14,14,0,0,1-1.39.77c-.66.33-1.4.67-2.21,1l-2.47,1.13c-.87.39-1.67.73-2.39,1s-1.33.54-1.84.72-.74.32-.77.32q-.36,0-.81-.81a13.89,13.89,0,0,1-.81-2.16c-.27-.93-.52-2-.76-3.2s-.47-2.52-.68-3.87-.33-2.71-.45-4.09-.13-2.76-.13-4a28.94,28.94,0,0,1,.27-4.5,12,12,0,0,1,.67-2.43,2.42,2.42,0,0,1,.72-1,1.73,1.73,0,0,1,.36-.23.7.7,0,0,1,.59.32,1.07,1.07,0,0,1,.22.63,2.06,2.06,0,0,1-.18.63,13,13,0,0,0-.4,1.26q-.18.81-.36,2.07a29.2,29.2,0,0,0-.14,3.06c0,1.08,0,2.2.14,3.37s.27,2.33.45,3.47.37,2.22.58,3.24.48,1.92.72,2.7a18.13,18.13,0,0,0,.68,1.89c.21.45.4.67.58.67a4.27,4.27,0,0,0,.59-.22l1.35-.54c.54-.24,1.12-.47,1.75-.68s1.32-.45,2-.63c.3-.09.65-.18,1-.27l1.17-.31.94-.23.54-.09C387.21,598.54,387.45,598.71,387.45,599Zm14.93-1.31a.62.62,0,0,1,.05.27,1.66,1.66,0,0,1-.41.81,4.85,4.85,0,0,1-.58.59,6.13,6.13,0,0,1-1.22.81,9.61,9.61,0,0,1-1.89.72,9.2,9.2,0,0,1-2.56.31,4.87,4.87,0,0,1-2-.45A5.52,5.52,0,0,1,392,599.4a8,8,0,0,1-1.26-2.3,9.67,9.67,0,0,1-.5-3.24,11.56,11.56,0,0,1,.45-3.28,12.38,12.38,0,0,1,1.13-2.7,7,7,0,0,1,1.57-1.85,2.71,2.71,0,0,1,1.67-.67,3.56,3.56,0,0,1,1.44.31,4.83,4.83,0,0,1,1.35.72,3.6,3.6,0,0,1,1,1,2,2,0,0,1,.36,1.12,2.17,2.17,0,0,1-.63,1.4,7.8,7.8,0,0,1-1.44,1.35,12.54,12.54,0,0,1-1.71,1,3.76,3.76,0,0,1-1.35.36.7.7,0,0,1-.5-.23,1.11,1.11,0,0,1-.18-.63,1.13,1.13,0,0,1,.54-1,8.23,8.23,0,0,1,1.26-.63,6.88,6.88,0,0,0,1.22-.72,1.28,1.28,0,0,0,.58-1.12,1.34,1.34,0,0,0-.22-.45c-.15-.24-.56-.36-1.22-.36a1.64,1.64,0,0,0-1,.54,5.53,5.53,0,0,0-1.13,1.39,8.27,8.27,0,0,0-.9,2.07,8.72,8.72,0,0,0-.36,2.57,5.29,5.29,0,0,0,.41,2.11,5.77,5.77,0,0,0,1.12,1.62,5,5,0,0,0,1.58,1,4.9,4.9,0,0,0,1.84.36,4.34,4.34,0,0,0,1.44-.27c.54-.21,1-.42,1.49-.63l1.21-.63a2.11,2.11,0,0,1,.68-.31.38.38,0,0,1,.27.13A.58.58,0,0,1,402.38,597.73Zm13.3-1.21a1.93,1.93,0,0,1-.54,1.35,4.4,4.4,0,0,1-1.3.94,8.79,8.79,0,0,1-1.71.59q-.94.23-1.8.36c-.57.06-1.08.1-1.53.13H408a3.07,3.07,0,0,1-1.53-.31,1.2,1.2,0,0,1-.54-1.13,1.92,1.92,0,0,1,0-.45c0-.15.15-.22.36-.22a1.91,1.91,0,0,1,.45.09,3.62,3.62,0,0,0,.5,0l1.12,0q1-.09,2.07-.27a10.58,10.58,0,0,0,2-.5q.9-.36.9-.9c0-.06-.31-.24-.94-.54s-1.52-.87-2.75-1.62a6.42,6.42,0,0,1-2-1.8,4.75,4.75,0,0,1-.59-2.52,3,3,0,0,1,.41-1.62,3.13,3.13,0,0,1,1.17-1,6,6,0,0,1,1.71-.49,11.56,11.56,0,0,1,2.07-.18l.54.09a5,5,0,0,1,1,.31,3.18,3.18,0,0,1,.95.5.76.76,0,0,1,.45.63q0,.09-.18.27l-.5.67-.49-.13c-.21-.06-.47-.12-.77-.18a9.46,9.46,0,0,0-1.57-.27,3.53,3.53,0,0,0-1.89.45,1.69,1.69,0,0,0-.72,1.62,1.58,1.58,0,0,0,.45,1.08,6.77,6.77,0,0,0,1.21.94l1.53.86a11.41,11.41,0,0,1,1.58.9,5.11,5.11,0,0,1,1.17,1.08A1.8,1.8,0,0,1,415.68,596.52Zm33.2-3a11.59,11.59,0,0,1-.5,3.56,9.66,9.66,0,0,1-1.12,2.56,5.63,5.63,0,0,1-1.4,1.49,2,2,0,0,1-1.12.49,1.8,1.8,0,0,1-1.22-.54,1.62,1.62,0,0,1-.58-1.08c0-.48.19-.72.58-.72a.72.72,0,0,1,.45.18l.41.23a5.91,5.91,0,0,0,1.44-2.07,9.39,9.39,0,0,0,.72-4.1,7.57,7.57,0,0,0-.23-1.93,6.59,6.59,0,0,0-.54-1.44,3.11,3.11,0,0,0-.58-.9c-.21-.21-.36-.32-.45-.32q-.45,0-.9.9a13.81,13.81,0,0,0-.72,2.07q-.31,1.13-.54,2.25a10.92,10.92,0,0,0-.18,1.49c0,.18.06.34.09.49l.09.45a2.35,2.35,0,0,1-.54,2,1.61,1.61,0,0,1-1.13.68q-.27,0-.45-.36a6.17,6.17,0,0,1-.22-1c-.06-.39-.12-.8-.18-1.22a10.35,10.35,0,0,0-.14-1.12c-.24-.54-.55-1.4-.94-2.57s-.81-2.41-1.26-3.73l-1.22-3.92c-.36-1.26-.63-2.26-.81-3-.42-1.62-.73-3-.94-4.23s-.42-2.3-.54-3.2a21.39,21.39,0,0,1-.27-2.38c0-.66-.05-1.22-.05-1.67a.71.71,0,0,1,.36-.63,1,1,0,0,1,.59-.22.79.79,0,0,1,.58.18,1,1,0,0,1,.27.63c0,.33.08.81.14,1.44s.1,1.47.22,2.52c.06.51.17,1.21.32,2.11s.4,1.91.67,3l.86,3.51c.33,1.2.66,2.35,1,3.46s.7,2.13,1,3.06a18.43,18.43,0,0,0,1,2.21,17.63,17.63,0,0,1,1-2.93,9.49,9.49,0,0,1,1.22-2,2.13,2.13,0,0,1,1.75-.94,2.5,2.5,0,0,1,1.08.36,4.06,4.06,0,0,1,1.31,1.21,7.16,7.16,0,0,1,1.12,2.25A10.29,10.29,0,0,1,448.88,593.5Zm19,1.49a1.2,1.2,0,0,1-.54.85,8.4,8.4,0,0,1-1.26.86,13,13,0,0,1-1.49.63,3.45,3.45,0,0,1-1.08.27,2.22,2.22,0,0,1-.9-.23,7.14,7.14,0,0,1-.9-.54c-.27-.21-.51-.4-.72-.58l-.4-.36a3.93,3.93,0,0,0-.41.54c-.18.27-.4.57-.67.9a5.17,5.17,0,0,1-.81.81,1.28,1.28,0,0,1-.86.36,2.43,2.43,0,0,1-2-1.26,12.92,12.92,0,0,1-1.44-2.88,28.78,28.78,0,0,1-.86-3.11,14.69,14.69,0,0,1-.27-2.07.55.55,0,0,1,.32-.49,1.22,1.22,0,0,1,.54-.23.86.86,0,0,1,.85.45,1.83,1.83,0,0,1,.23.9,7.93,7.93,0,0,0,.22,1.44c.18.69.39,1.4.63,2.12a17.23,17.23,0,0,0,.77,1.93q.4.81.72.81a1.16,1.16,0,0,0,1-.72,7.33,7.33,0,0,0,.72-1.71,17.15,17.15,0,0,0,.4-1.84,10.87,10.87,0,0,0,.14-1.17v-.27l.09-.54a3,3,0,0,0,0-.5,2,2,0,0,0,.05-.31.48.48,0,0,0-.14-.41.69.69,0,0,1-.13-.49.65.65,0,0,1,.27-.5,1.74,1.74,0,0,1,1.17-.27.65.65,0,0,1,.54.23.94.94,0,0,1,.31.45,1.7,1.7,0,0,1,.09.54,2,2,0,0,1,.05.31s0,.24-.05.63-.06.83-.09,1.31,0,.88,0,1.3-.05.68-.05.77a2.31,2.31,0,0,0,.14.54c.09.27.19.55.31.85a6.78,6.78,0,0,0,.5.77.76.76,0,0,0,.58.31,3.44,3.44,0,0,0,1-.13q.5-.18.9-.36a8.57,8.57,0,0,1,.81-.36,1.54,1.54,0,0,1,.68-.18,1.43,1.43,0,0,1,.72.18Q467.87,594.72,467.87,595Zm12.43-6.26a.68.68,0,0,1-.27.54,3.09,3.09,0,0,1-.63.32,6.59,6.59,0,0,1-.72.22,5.18,5.18,0,0,1-.59.05,2.88,2.88,0,0,1-.9-.09,1,1,0,0,0-.36-.09,7.23,7.23,0,0,0-1.8.18,2.34,2.34,0,0,0-1.08.58,2.24,2.24,0,0,0-.49,1,9.69,9.69,0,0,0-.09,1.44,22.9,22.9,0,0,0,.09,2.29c.09.57.16,1,.22,1.4s.17.64.23.85a1.19,1.19,0,0,1,.13.54,1.14,1.14,0,0,1-.4.77,1,1,0,0,1-.68.4c-.36,0-.69-.31-1-.94a16.11,16.11,0,0,1-.72-2.3c-.18-.9-.33-1.78-.45-2.65a15.76,15.76,0,0,1-.18-2,7.33,7.33,0,0,1,.14-1.44,5.38,5.38,0,0,1,.36-1.22,3.17,3.17,0,0,1,.49-.85.75.75,0,0,1,.54-.32.43.43,0,0,1,.36.18,1.06,1.06,0,0,1,.23.36l.18.36a.43.43,0,0,0,.31.14,3.8,3.8,0,0,0,1.31-.41,5.34,5.34,0,0,1,2.2-.4,13,13,0,0,1,1.8.09,4.23,4.23,0,0,1,1.22.27.85.85,0,0,1,.31.22A.49.49,0,0,1,480.3,588.73Zm16.12,9a.62.62,0,0,1,.05.27,1.66,1.66,0,0,1-.41.81,4.85,4.85,0,0,1-.58.59,6.13,6.13,0,0,1-1.22.81,9.61,9.61,0,0,1-1.89.72,9.2,9.2,0,0,1-2.56.31,4.87,4.87,0,0,1-2-.45A5.52,5.52,0,0,1,486,599.4a8,8,0,0,1-1.26-2.3,9.67,9.67,0,0,1-.5-3.24,11.56,11.56,0,0,1,.45-3.28,12.38,12.38,0,0,1,1.13-2.7,7,7,0,0,1,1.57-1.85,2.71,2.71,0,0,1,1.67-.67,3.56,3.56,0,0,1,1.44.31,4.83,4.83,0,0,1,1.35.72,3.6,3.6,0,0,1,1,1,2,2,0,0,1,.36,1.12,2.17,2.17,0,0,1-.63,1.4,7.8,7.8,0,0,1-1.44,1.35,12.54,12.54,0,0,1-1.71,1,3.76,3.76,0,0,1-1.35.36.7.7,0,0,1-.5-.23,1.11,1.11,0,0,1-.18-.63,1.13,1.13,0,0,1,.54-1,8.23,8.23,0,0,1,1.26-.63,6.88,6.88,0,0,0,1.22-.72,1.28,1.28,0,0,0,.58-1.12,1.34,1.34,0,0,0-.22-.45c-.15-.24-.56-.36-1.22-.36a1.64,1.64,0,0,0-1,.54,5.53,5.53,0,0,0-1.13,1.39,8.27,8.27,0,0,0-.9,2.07,8.72,8.72,0,0,0-.36,2.57,5.29,5.29,0,0,0,.41,2.11,5.77,5.77,0,0,0,1.12,1.62,5,5,0,0,0,1.58,1,4.9,4.9,0,0,0,1.84.36,4.34,4.34,0,0,0,1.44-.27c.54-.21,1-.42,1.49-.63l1.21-.63a2.11,2.11,0,0,1,.68-.31.38.38,0,0,1,.27.13A.58.58,0,0,1,496.42,597.73ZM521,593.1a4.08,4.08,0,0,1-.77,2,10.53,10.53,0,0,1-2,2.3,12.66,12.66,0,0,1-2.92,1.93,8.24,8.24,0,0,1-3.47.77,6,6,0,0,1-1.71-.27,8.18,8.18,0,0,1-1.75-.77,7.78,7.78,0,0,1-1.53-1.26,4.91,4.91,0,0,1-1-1.71,5.68,5.68,0,0,0-.68.9c-.24.42-.51.86-.81,1.31a7.14,7.14,0,0,1-1,1.12,1.73,1.73,0,0,1-1.12.45,1.18,1.18,0,0,1-1-.58,6.81,6.81,0,0,1-.59-1.35,9.6,9.6,0,0,1-.31-1.44c-.06-.45-.09-.71-.09-.77a11.74,11.74,0,0,1,.31-2,19.66,19.66,0,0,1,1-3.15,12,12,0,0,1,1.57-2.88,2.88,2.88,0,0,1,2.3-1.26.59.59,0,0,1,.63.45,2,2,0,0,1,.18.81v1.35a1.79,1.79,0,0,0,.45.27,1,1,0,0,1,.45.18.53.53,0,0,1,.31.31,1.45,1.45,0,0,1,.14.72,3.61,3.61,0,0,1-.05.59,2.28,2.28,0,0,0,0,.45,14.44,14.44,0,0,0,.18,2.29,5.65,5.65,0,0,0,.72,2,4.54,4.54,0,0,0,1.48,1.44,5.07,5.07,0,0,0,2.52.54,6.37,6.37,0,0,0,3.33-.81,10.51,10.51,0,0,0,2.3-1.85,15.86,15.86,0,0,0,1.48-1.84c.36-.57.66-.86.9-.86A.52.52,0,0,1,521,593.1Zm-15.8-2a.57.57,0,0,0-.09-.32.71.71,0,0,1-.09-.31.57.57,0,0,1,.09-.32.64.64,0,0,0,.09-.36.18.18,0,0,0-.09-.18.26.26,0,0,1-.09-.18,1.63,1.63,0,0,0-.85.77,15.09,15.09,0,0,0-.81,1.57,13.27,13.27,0,0,0-.59,1.85,6.29,6.29,0,0,0-.22,1.48,4.94,4.94,0,0,0,.18,1,2.15,2.15,0,0,0,.4.94c.51-1.05,1-2.07,1.4-3.06A7,7,0,0,0,505.18,591.12ZM536.34,595a1.2,1.2,0,0,1-.54.85,8.4,8.4,0,0,1-1.26.86,13,13,0,0,1-1.49.63,3.45,3.45,0,0,1-1.08.27,2.22,2.22,0,0,1-.9-.23,7.14,7.14,0,0,1-.9-.54c-.27-.21-.51-.4-.72-.58l-.4-.36a3.93,3.93,0,0,0-.41.54c-.18.27-.4.57-.67.9a5.17,5.17,0,0,1-.81.81,1.28,1.28,0,0,1-.86.36,2.43,2.43,0,0,1-2-1.26,12.92,12.92,0,0,1-1.44-2.88,28.78,28.78,0,0,1-.86-3.11,14.69,14.69,0,0,1-.27-2.07.55.55,0,0,1,.32-.49,1.22,1.22,0,0,1,.54-.23.86.86,0,0,1,.85.45,1.83,1.83,0,0,1,.23.9,7.93,7.93,0,0,0,.22,1.44c.18.69.39,1.4.63,2.12a17.23,17.23,0,0,0,.77,1.93q.4.81.72.81a1.16,1.16,0,0,0,1-.72,7.33,7.33,0,0,0,.72-1.71,17.15,17.15,0,0,0,.4-1.84,10.87,10.87,0,0,0,.14-1.17v-.27l.09-.54a3,3,0,0,0,0-.5,2,2,0,0,0,0-.31.48.48,0,0,0-.14-.41.69.69,0,0,1-.13-.49.65.65,0,0,1,.27-.5,1.74,1.74,0,0,1,1.17-.27.65.65,0,0,1,.54.23.94.94,0,0,1,.31.45,1.7,1.7,0,0,1,.09.54,2,2,0,0,1,.05.31s0,.24-.05.63-.06.83-.09,1.31,0,.88,0,1.3,0,.68,0,.77a2.31,2.31,0,0,0,.14.54c.09.27.19.55.31.85a6.78,6.78,0,0,0,.5.77.76.76,0,0,0,.58.31,3.44,3.44,0,0,0,1-.13q.5-.18.9-.36a8.57,8.57,0,0,1,.81-.36,1.54,1.54,0,0,1,.68-.18,1.43,1.43,0,0,1,.72.18Q536.34,594.72,536.34,595Zm14.94,3.28a1.24,1.24,0,0,1-.54,1.17,2,2,0,0,1-1.08.32,4.27,4.27,0,0,1-2.34-.9c-.87-.63-1.78-1.34-2.74-2.12q0,.09-.27,1a15.59,15.59,0,0,1-.54,1.89,9,9,0,0,1-.81,1.89c-.33.57-.71.86-1.13.86a.9.9,0,0,1-.72-.32,1.14,1.14,0,0,1-.27-.49,4.3,4.3,0,0,1,.32-1.17c.21-.6.43-1.23.67-1.89l.68-1.94a4.49,4.49,0,0,0,.31-1.3,3.93,3.93,0,0,0-.72-1.13c-.48-.63-1-1.36-1.57-2.2a27.31,27.31,0,0,1-1.58-2.75,6,6,0,0,1-.72-2.65,1,1,0,0,1,.27-.63.74.74,0,0,1,.5-.32,1.77,1.77,0,0,1,.72.23.81.81,0,0,1,.58.54,32.75,32.75,0,0,0,1.17,3.19,11.74,11.74,0,0,0,2.16,3.24c.09-.33.2-.78.32-1.35s.25-1.18.4-1.84l.45-2c.18-.66.35-1.26.5-1.8s.34-1,.49-1.31.3-.49.45-.49a2.07,2.07,0,0,1,.68.18.6.6,0,0,1,.49.63l-.13.76c-.09.48-.21,1.07-.36,1.76s-.32,1.44-.5,2.25-.36,1.48-.54,2.11l-.18.5c-.06.24-.13.49-.22.76s-.12.53-.18.77a2,2,0,0,0-.09.4,1.57,1.57,0,0,0,.63,1c.45.36.94.72,1.48,1.08s1,.62,1.53.86a3.57,3.57,0,0,0,.95.36,2,2,0,0,0,.36,0,1.86,1.86,0,0,1,.36,0,.57.57,0,0,1,.54.4A1.48,1.48,0,0,1,551.28,598.27ZM586,595.21a.64.64,0,0,1-.22.45.81.81,0,0,0-.23.41,2.5,2.5,0,0,0,.18.94,2.39,2.39,0,0,1,.23,1.08c0,.39-.12.59-.36.59a1.37,1.37,0,0,0-.68.13,2.81,2.81,0,0,1-.67.18c-.18,0-.38-.16-.59-.49a2.32,2.32,0,0,1-.31-.54s-.09,0-.27.18a3.69,3.69,0,0,1-.81.54,8.66,8.66,0,0,1-1.53.54,10.82,10.82,0,0,1-2.43.22,4.39,4.39,0,0,1-2.21-.54,5.28,5.28,0,0,1-1.57-1.48,7.33,7.33,0,0,1-.9-2,10.38,10.38,0,0,1-.27-2.34,8.69,8.69,0,0,1,.22-2,6.38,6.38,0,0,1,.72-1.71,3.69,3.69,0,0,1,1.13-1.22,2.76,2.76,0,0,1,1.57-.45,3.18,3.18,0,0,1,1.71.54,10.27,10.27,0,0,1,1.53,1.17,9.19,9.19,0,0,1,1.08,1.17l.45.5q-.63-3.51-1.12-6.35c-.15-.81-.3-1.6-.45-2.38s-.24-1.53-.36-2.16-.23-1.16-.32-1.58-.09-.72-.09-.81-.06-.49-.09-.94-.06-1-.09-1.49-.06-1-.09-1.39a6.19,6.19,0,0,0-.09-.81c-.09-.3-.21-.68-.36-1.13a6.41,6.41,0,0,1-.18-.76,1,1,0,0,1,.23-.54.66.66,0,0,1,.58-.36,2.6,2.6,0,0,1,.5,0,.69.69,0,0,1,.4.27,2,2,0,0,1,.32.72,6.49,6.49,0,0,1,.31,1.31q0,.45.27,1.71c.15.84.3,1.75.45,2.74s.3,1.94.45,2.84.26,1.56.32,2c.15,1.14.34,2.38.58,3.73s.54,2.6.81,3.83.54,2.32.81,3.28a8.28,8.28,0,0,0,.72,1.89.58.58,0,0,0,.36.27A.43.43,0,0,1,586,595.21Zm-3.33.9c0-.09-.22-.46-.58-1.12a16.3,16.3,0,0,0-1.31-2.21,11.25,11.25,0,0,0-1.75-2.16,2.69,2.69,0,0,0-1.85-.94q-.76,0-1.26,1.17a7.49,7.49,0,0,0-.45,2.7,3.79,3.79,0,0,0,1,2.74,3.2,3.2,0,0,0,2.3,1A7.64,7.64,0,0,0,581,597,4,4,0,0,0,582.7,596.11ZM602,597.73a.62.62,0,0,1,.05.27,1.66,1.66,0,0,1-.41.81,4.85,4.85,0,0,1-.58.59,6.13,6.13,0,0,1-1.22.81,9.61,9.61,0,0,1-1.89.72,9.2,9.2,0,0,1-2.56.31,4.87,4.87,0,0,1-2-.45,5.52,5.52,0,0,1-1.75-1.39,8,8,0,0,1-1.26-2.3,9.67,9.67,0,0,1-.5-3.24,11.56,11.56,0,0,1,.45-3.28,12.38,12.38,0,0,1,1.13-2.7A7,7,0,0,1,593,586a2.71,2.71,0,0,1,1.67-.67,3.56,3.56,0,0,1,1.44.31,4.83,4.83,0,0,1,1.35.72,3.6,3.6,0,0,1,1,1,2,2,0,0,1,.36,1.12,2.17,2.17,0,0,1-.63,1.4,7.8,7.8,0,0,1-1.44,1.35,12.54,12.54,0,0,1-1.71,1,3.76,3.76,0,0,1-1.35.36.7.7,0,0,1-.5-.23,1.11,1.11,0,0,1-.18-.63,1.13,1.13,0,0,1,.54-1,8.23,8.23,0,0,1,1.26-.63,6.88,6.88,0,0,0,1.22-.72,1.28,1.28,0,0,0,.58-1.12,1.34,1.34,0,0,0-.22-.45c-.15-.24-.56-.36-1.22-.36a1.64,1.64,0,0,0-1,.54,5.53,5.53,0,0,0-1.13,1.39,8.27,8.27,0,0,0-.9,2.07,8.72,8.72,0,0,0-.36,2.57,5.29,5.29,0,0,0,.41,2.11,5.77,5.77,0,0,0,1.12,1.62,5,5,0,0,0,1.58,1,4.9,4.9,0,0,0,1.84.36,4.34,4.34,0,0,0,1.44-.27c.54-.21,1-.42,1.49-.63l1.21-.63a2.11,2.11,0,0,1,.68-.31.38.38,0,0,1,.27.13A.58.58,0,0,1,602,597.73Zm30.55-11.11c0,.09-.08.48-.23,1.17s-.3,1.47-.45,2.34c-.09.51-.24,1.27-.45,2.29a27.84,27.84,0,0,0-.27,4.55c0,.06,0,.22,0,.49a2.47,2.47,0,0,1-.14.77,2.39,2.39,0,0,1-.31.76.79.79,0,0,1-.68.32,1.58,1.58,0,0,1-.9-.36,12.29,12.29,0,0,1-2.07-1.89,12.52,12.52,0,0,1-1.62-2.34,12.83,12.83,0,0,1-1-2.7,11.34,11.34,0,0,1-.36-2.84.37.37,0,0,1,.22-.31.88.88,0,0,1,.41-.18,1.12,1.12,0,0,1,1,.76,12.31,12.31,0,0,1,.77,1.85c.27.72.57,1.48.9,2.29a5.71,5.71,0,0,0,1.57,2,1.74,1.74,0,0,0,.23-.68c.06-.33.1-.61.13-.85s.08-.62.14-1.22.12-1.29.18-2,.15-1.35.18-2,.09-1.06.09-1.3a5.06,5.06,0,0,1,0-.63,2.52,2.52,0,0,1,.18-.68,2,2,0,0,1,.45-.54,1.09,1.09,0,0,1,.72-.22,1.88,1.88,0,0,1,.77.31A.84.84,0,0,1,632.57,586.62Zm12,6.12a6.54,6.54,0,0,1-.27,1.89,5.82,5.82,0,0,1-.72,1.57,3.7,3.7,0,0,1-1.08,1.08,2.42,2.42,0,0,1-1.3.36,2.68,2.68,0,0,1-2-.72,5.26,5.26,0,0,1-1.13-1.66,8.78,8.78,0,0,1-.49-1.89c-.06-.66-.09-1.16-.09-1.49a8.16,8.16,0,0,1,.22-1.8,10.75,10.75,0,0,1,.68-1.89,6.73,6.73,0,0,1,1-1.44,1.53,1.53,0,0,1,1.12-.58,1.45,1.45,0,0,1,.41.09,2.85,2.85,0,0,1,.63.27,2,2,0,0,1,.54.45,1.34,1.34,0,0,1,.36.63,2.21,2.21,0,0,1,1,.36c.33.21.51.37.54.49a10.74,10.74,0,0,1,.45,2.34A17.38,17.38,0,0,1,644.59,592.74Zm-2-.81a7.64,7.64,0,0,0-.14-1.4,5.2,5.2,0,0,0-.54-1.53.48.48,0,0,1-.22,0,1,1,0,0,1-.32,0,.39.39,0,0,0-.18,0,1.14,1.14,0,0,0-.85.31,1.81,1.81,0,0,0-.5.77,4.84,4.84,0,0,0-.18,1c0,.36,0,.7,0,1s0,.71,0,1.13a6.71,6.71,0,0,0,.18,1.12,4,4,0,0,0,.45,1,.86.86,0,0,0,.72.36.93.93,0,0,0,.77-.45,4.29,4.29,0,0,0,.49-1.13,6.12,6.12,0,0,0,.23-1.21A7.31,7.31,0,0,0,642.57,591.93Zm18.5-9.81a7.31,7.31,0,0,1-1.66,1.35q-1.08.63-2.16,1.17l-1.89.94c-.54.24-.81.41-.81.5a5.2,5.2,0,0,0,.18.81c.12.45.25,1,.4,1.62s.36,1.23.54,1.89.33,1.24.45,1.75c.06.3.14.69.23,1.17s.16,1,.22,1.44.17.92.23,1.31.09.55.09.58a4.71,4.71,0,0,1-.23,1.4q-.23.72-.72.72a.68.68,0,0,1-.49-.23,3.23,3.23,0,0,1-.41-.49,3.33,3.33,0,0,1-.27-.59,1.4,1.4,0,0,1-.09-.4v-.27a1.7,1.7,0,0,0,.05-.41,16.26,16.26,0,0,0-.27-2.47q-.09-.49-.36-1.53c-.18-.69-.36-1.4-.54-2.12s-.45-1.75-.72-2.74a2,2,0,0,0-.23-.63,2.82,2.82,0,0,0-1.08.4c-.48.24-1,.56-1.66,1s-1.29.76-2,1.21-1.34.83-1.94,1.22-1.11.67-1.53.94a3.13,3.13,0,0,1-.81.36,1.19,1.19,0,0,1-.94-.4,1.32,1.32,0,0,1-.36-.9c0-.18.25-.44.76-.77a16.94,16.94,0,0,1,1.85-1.17c.72-.42,1.51-.85,2.38-1.3s1.62-.86,2.34-1.22l1.85-.9.76-.36c-.27-1.38-.49-2.61-.67-3.69-.15-.93-.3-1.78-.45-2.56s-.18-1.2-.18-1.26a1.34,1.34,0,0,1,.22-.86.77.77,0,0,1,.59-.31c.33,0,.54.22.63.67q.5,2.43.9,4.32c.3,1.26.58,2.28.85,3.06a10.07,10.07,0,0,0,1.4-.49l2.07-1c.72-.33,1.36-.61,1.93-.85a5.55,5.55,0,0,1,1-.41c.18,0,.28.06.31.18A3,3,0,0,0,661.07,582.12Zm15,15.61a.64.64,0,0,1,0,.27,1.62,1.62,0,0,1-.4.81,5.19,5.19,0,0,1-.59.59,6,6,0,0,1-1.21.81,9.61,9.61,0,0,1-1.89.72,9.27,9.27,0,0,1-2.57.31,4.82,4.82,0,0,1-2-.45,5.56,5.56,0,0,1-1.76-1.39,8,8,0,0,1-1.26-2.3,9.68,9.68,0,0,1-.49-3.24,11.56,11.56,0,0,1,.45-3.28,12.38,12.38,0,0,1,1.12-2.7A7,7,0,0,1,667,586a2.69,2.69,0,0,1,1.66-.67,3.56,3.56,0,0,1,1.44.31,4.83,4.83,0,0,1,1.35.72,3.6,3.6,0,0,1,1,1,2,2,0,0,1,.36,1.12,2.17,2.17,0,0,1-.63,1.4,7.8,7.8,0,0,1-1.44,1.35,12.54,12.54,0,0,1-1.71,1,3.76,3.76,0,0,1-1.35.36.68.68,0,0,1-.49-.23,1.11,1.11,0,0,1-.18-.63,1.13,1.13,0,0,1,.54-1,8.23,8.23,0,0,1,1.26-.63,6.79,6.79,0,0,0,1.21-.72,1.29,1.29,0,0,0,.59-1.12,1.47,1.47,0,0,0-.23-.45c-.15-.24-.55-.36-1.21-.36a1.66,1.66,0,0,0-1,.54,5.51,5.51,0,0,0-1.12,1.39,8.27,8.27,0,0,0-.9,2.07,8.72,8.72,0,0,0-.36,2.57,5.29,5.29,0,0,0,.4,2.11,5.79,5.79,0,0,0,1.13,1.62,5.08,5.08,0,0,0,3.42,1.35,4.34,4.34,0,0,0,1.44-.27c.54-.21,1-.42,1.48-.63l1.22-.63a2.1,2.1,0,0,1,.67-.31.38.38,0,0,1,.27.13A.62.62,0,0,1,676,597.73Z" transform="translate(-212.8 -308.68)"/><path class="cls-2" d="M381.92,546.22c-8.9,0-14.36,4-14.36,9.87,0,6.17,3.61,9.11,14.65,9.95,2.48.17,4.16.25,4.16,1.13,0,1.14-.63,1.47-4.2,1.47-3.15,0-4.37-.67-4.45-1.93h-10.5c.34,6.47,5.46,10.17,14.95,10.17,9.66,0,14.91-3.15,14.91-9.58,0-6.26-2.69-9.37-14.87-10.21-2.89-.21-4.2-.25-4.2-1.17s1.05-1.47,3.91-1.47c2.39,0,4.12.54,4.24,1.89H396.7C396.45,550,391.71,546.22,381.92,546.22Zm25,.42h-7.77v10.87h5.25Zm-.2,14.91c0,10.12,7.35,15.33,16.64,15.33,10,0,16.54-5.21,16.54-15.33,0-9.41-6.72-15.33-16.54-15.33C414.11,546.22,406.76,552,406.76,561.55Zm10.76,0a5.51,5.51,0,0,1,5.88-5.8,5.45,5.45,0,0,1,5.83,5.8c0,3.65-2.18,5.79-5.83,5.79S417.52,565.16,417.52,561.55Zm39,7.43h.88l3.36,7.48h10.79l-4.91-9.5c3.27-1.84,4.79-4.91,4.79-9.24,0-6.8-4.54-11.08-14.91-11.08H441.85v29.82h10.5V569Zm0-8.82h-4.16v-4.7h4.16c3.1,0,4,.88,4,2.31S459.7,560.16,456.51,560.16Zm33.17.25v3.74h4.79c-.88,2.65-2.81,3-5.5,3-3.28,0-5.46-2-5.46-5.67S485.69,556,489,556c2.9,0,4.91.92,5.29,2.48h10.79c-.71-7.35-6.76-12-16.08-12s-16.21,5.67-16.21,15.07c0,10.25,6.93,15.21,16.21,15.21,9.53,0,15.37-4.41,16.08-12.56v-3.74Zm37.43,16.05h11.13l-10.13-29.82H513.79l-10.12,29.82h11.17l1.35-4.54h9.57ZM521,555.83l2.57,8.57h-5.13ZM560,546.64v14.57l-9.87-14.57H539.51v29.82H550V561.71l10.29,14.75h10.37V546.64Zm23.68,0h-10.5v29.82h10.5Zm16.4-.42c-8.9,0-14.36,4-14.36,9.87,0,6.17,3.61,9.11,14.66,9.95,2.48.17,4.16.25,4.16,1.13,0,1.14-.63,1.47-4.2,1.47-3.15,0-4.37-.67-4.46-1.93h-10.5c.34,6.47,5.46,10.17,15,10.17,9.66,0,14.91-3.15,14.91-9.58,0-6.26-2.69-9.37-14.87-10.21-2.9-.21-4.2-.25-4.2-1.17s1-1.47,3.9-1.47c2.4,0,4.12.54,4.25,1.89h10.54C614.66,550,609.91,546.22,600.12,546.22Zm17.32,30.24h26v-9.24H627.94V564.4H642.8v-5.88H627.94v-2.64h15.54v-9.24h-26ZM660.68,569h.88l3.36,7.48h10.8L670.8,567c3.28-1.84,4.79-4.91,4.79-9.24,0-6.8-4.53-11.08-14.91-11.08H646v29.82h10.5V569Zm0-8.82h-4.16v-4.7h4.16c3.11,0,4,.88,4,2.31S663.87,560.16,660.68,560.16Z" transform="translate(-212.8 -308.68)"/></svg>