<svg width="97" height="38" viewBox="0 0 97 38" fill="none" xmlns="http://www.w3.org/2000/svg">
<path d="M96.267 31.3145C95.8382 30.9493 95.4285 30.9115 94.8527 30.8649L89.2869 30.0748C89.0111 30.0538 88.2014 29.8976 88.0387 30.1365C87.6177 30.7495 87.965 31.0424 89.6509 31.0778C90.0603 31.0872 91.4225 31.0442 91.8244 31.1232L93.8081 31.55C94.008 31.5879 94.5188 31.6676 93.3961 31.9972C86.5511 34.0027 81.3378 35.281 73.151 35.3459C67.1492 35.3959 61.2321 35.7516 55.337 34.6919C45.0908 32.8535 34.4938 28.4956 25.4425 22.6674C9.98158 12.7208 2.00642 1.28465 1.92622 1.16157C1.70806 0.836338 1.17782 -0.115831 0.861661 0.0911682C0.709156 0.19355 0.602515 0.352767 0.565044 0.534007C0.527572 0.715246 0.562318 0.903766 0.661694 1.05836C0.714051 1.13641 4.04578 5.50943 10.2925 11.6554C14.0388 15.346 19.5886 20.1789 25.4624 23.9658C34.4784 29.7732 43.3942 33.5401 53.5757 35.4684L54.2617 35.5983C66.9519 37.8854 80.0083 36.8945 93.7924 33.0064C94.1531 32.9043 94.8335 32.8714 95.0762 32.5795C94.9205 33.5494 94.1642 34.9137 93.581 35.7033L92.6363 36.9837C92.5938 37.0645 92.5674 37.153 92.5586 37.2441C92.5499 37.3351 92.5589 37.4269 92.5853 37.5142C92.6116 37.6015 92.6548 37.6826 92.7122 37.7528C92.7696 37.823 92.8403 37.8809 92.92 37.9232C92.9806 37.9563 93.0462 37.9793 93.1141 37.9912C93.4004 38.0454 93.8858 37.0926 94.0304 36.8162L95.8846 32.6247C96.145 32.1062 96.7142 31.6859 96.267 31.3145Z" fill="#542429"/>
</svg>
