<svg width="202" height="23" viewBox="0 0 202 23" fill="none" xmlns="http://www.w3.org/2000/svg">
<path d="M10.9016 0.399997C4.54156 0.399998 0.641564 3.28 0.641565 7.45C0.641565 11.86 3.22157 13.96 11.1116 14.56C12.8816 14.68 14.0816 14.74 14.0816 15.37C14.0816 16.18 13.6316 16.42 11.0816 16.42C8.83157 16.42 7.96157 15.94 7.90157 15.04L0.401566 15.04C0.641567 19.66 4.30157 22.3 11.0816 22.3C17.9816 22.3 21.7316 20.05 21.7316 15.46C21.7316 10.99 19.8116 8.77 11.1116 8.17C9.04157 8.02 8.11157 7.99 8.11157 7.33C8.11157 6.58 8.86157 6.28 10.9016 6.28C12.6116 6.28 13.8416 6.67 13.9316 7.63L21.4616 7.63C21.2816 3.13 17.8916 0.399996 10.9016 0.399997ZM28.7879 0.699994L23.2379 0.699995L23.2379 8.46999L26.9879 8.46999L28.7879 0.699994ZM37.8284 0.699992L30.3284 0.699994L30.3284 22L37.8284 22L37.8284 0.699992ZM54.3141 0.699989L54.3141 11.11L47.2641 0.699991L39.6441 0.699992L39.6441 22L47.1441 22L47.1441 11.47L54.4941 22L61.9041 22L61.9041 0.699988L54.3141 0.699989ZM63.7269 22L71.2269 22L71.2269 14.53L81.2469 14.53L81.2469 9.18999L71.2269 9.18999L71.2269 7.29999L81.7269 7.29999L81.7269 0.699985L63.7269 0.699988L63.7269 22ZM82.7879 11.35C82.7879 18.58 88.0379 22.3 94.6679 22.3C101.838 22.3 106.488 18.58 106.488 11.35C106.488 4.62998 101.688 0.399981 94.6679 0.399983C88.0379 0.399984 82.7879 4.53999 82.7879 11.35ZM90.4679 11.35C90.4679 8.85998 92.1479 7.20998 94.6679 7.20998C97.2479 7.20998 98.8379 8.88998 98.8379 11.35C98.8379 13.96 97.2779 15.49 94.6679 15.49C92.1479 15.49 90.4679 13.93 90.4679 11.35ZM118.317 16.66C118.527 16.66 118.737 16.66 118.947 16.66L121.347 22L129.057 22L125.547 15.22C127.887 13.9 128.967 11.71 128.967 8.61998C128.967 3.75998 125.727 0.699977 118.317 0.699978L107.847 0.69998L107.847 22L115.347 22L115.347 16.66L118.317 16.66ZM118.317 10.36L115.347 10.36L115.347 6.99998L118.317 6.99998C120.537 6.99998 121.167 7.62998 121.167 8.64998C121.167 9.69998 120.597 10.36 118.317 10.36ZM144.375 11.62L139.725 0.699974L130.845 0.699976L130.845 22L138.195 22L138.195 12.01L142.035 22L146.355 22L150.195 12.01L150.195 22L157.545 22L157.545 0.699971L149.205 0.699973L144.375 11.62ZM159.381 22L177.981 22L177.981 15.4L166.881 15.4L166.881 13.39L177.501 13.39L177.501 9.18997L166.881 9.18997L166.881 7.29997L177.981 7.29997L177.981 0.699968L159.381 0.699971L159.381 22ZM190.27 16.66C190.48 16.66 190.69 16.66 190.9 16.66L193.3 22L201.01 22L197.5 15.22C199.84 13.9 200.92 11.71 200.92 8.61996C200.92 3.75996 197.68 0.699964 190.27 0.699966L179.8 0.699967L179.8 22L187.3 22L187.3 16.66L190.27 16.66ZM190.27 10.36L187.3 10.36L187.3 6.99997L190.27 6.99997C192.49 6.99997 193.12 7.62997 193.12 8.64997C193.12 9.69997 192.55 10.36 190.27 10.36Z" fill="#57517D"/>
</svg>
