<svg width="27" height="30" viewBox="0 0 27 30" fill="none" xmlns="http://www.w3.org/2000/svg">
<path d="M14.1409 9.2C14.1409 9.24 14.0709 9.32 13.9309 9.44C13.7909 9.56 13.6209 9.69 13.4209 9.83C13.2409 9.95 13.0509 10.06 12.8509 10.16C12.6509 10.26 12.4909 10.31 12.3709 10.31C12.2909 10.31 12.1809 10.31 12.0409 10.31C11.9209 10.29 11.7909 10.25 11.6509 10.19C11.5309 10.13 11.4209 10.05 11.3209 9.95C11.2209 9.83 11.1709 9.68 11.1709 9.5C11.1709 9.22 11.2709 8.96 11.4709 8.72C11.6709 8.46 11.9309 8.33 12.2509 8.33C12.3109 8.33 12.4409 8.36 12.6409 8.42C12.8609 8.46 13.0809 8.52 13.3009 8.6C13.5209 8.68 13.7109 8.77 13.8709 8.87C14.0509 8.97 14.1409 9.08 14.1409 9.2ZM15.1309 20.42C15.1309 20.56 15.0209 20.68 14.8009 20.78C14.6009 20.88 14.4509 20.93 14.3509 20.93C14.1509 20.93 13.9709 20.8 13.8109 20.54C13.6509 20.28 13.5109 19.98 13.3909 19.64C13.2709 19.3 13.1709 18.98 13.0909 18.68C13.0109 18.36 12.9509 18.14 12.9109 18.02C12.8509 17.82 12.7709 17.58 12.6709 17.3C12.5709 17.02 12.4709 16.75 12.3709 16.49C12.2909 16.23 12.2209 16 12.1609 15.8C12.1009 15.6 12.0709 15.49 12.0709 15.47C12.0709 15.19 12.1209 14.93 12.2209 14.69C12.3409 14.45 12.4809 14.33 12.6409 14.33C12.8209 14.33 13.0109 14.47 13.2109 14.75C13.4109 15.03 13.6009 15.39 13.7809 15.83C13.9809 16.25 14.1609 16.72 14.3209 17.24C14.4809 17.74 14.6209 18.22 14.7409 18.68C14.8609 19.12 14.9509 19.51 15.0109 19.85C15.0909 20.17 15.1309 20.36 15.1309 20.42Z" fill="#656565"/>
<path d="M13.557 3C7.00013 3.56633 0.531858 8.05331 0.5 14C1.5 23.5 12.7804 25.7977 19.1541 24.8195C26.1871 23.7401 27.1701 18.1368 24.9297 12.3759C23.7112 9.24279 22.3107 7.04617 19.5597 5.07655C17.5503 3.63782 13 3.5 10.5 5.07655" stroke="#656565" stroke-linecap="round"/>
<path d="M13.557 3C7.00013 3.56633 0.531858 8.05331 0.5 14C1.5 23.5 12.7804 25.7977 19.1541 24.8195C26.1871 23.7401 27.1701 18.1368 24.9297 12.3759C23.7112 9.24279 22.3107 7.04617 19.5597 5.07655C17.5503 3.63782 13 3.5 10.5 5.07655" stroke="#656565" stroke-linecap="round"/>
</svg>
