<svg width="115" height="18" viewBox="0 0 115 18" fill="none" xmlns="http://www.w3.org/2000/svg">
<path d="M7.63219 10.328C7.63219 10.4307 7.58819 10.5113 7.50019 10.57C7.36819 10.658 7.14085 10.7827 6.81819 10.944C6.49552 11.1053 6.13619 11.274 5.74019 11.45C5.35885 11.626 4.95552 11.8093 4.53019 12C4.10485 12.1907 3.71619 12.3593 3.36419 12.506C3.01219 12.6527 2.71152 12.77 2.46219 12.858C2.22752 12.9607 2.10285 13.012 2.08819 13.012C1.97085 13.012 1.83885 12.88 1.69219 12.616C1.56019 12.352 1.42819 12 1.29619 11.56C1.16419 11.1053 1.03952 10.5847 0.922188 9.998C0.804854 9.39667 0.694854 8.766 0.592188 8.106C0.504188 7.446 0.430854 6.77867 0.372188 6.104C0.328188 5.41467 0.306188 4.75467 0.306188 4.124C0.306188 3.18533 0.350188 2.452 0.438188 1.924C0.540854 1.396 0.650854 1 0.768188 0.735999C0.900188 0.471999 1.01752 0.310666 1.12019 0.251999C1.22285 0.178666 1.28152 0.141999 1.29619 0.141999C1.41352 0.141999 1.50885 0.193333 1.58219 0.296C1.65552 0.398666 1.69219 0.501333 1.69219 0.604C1.69219 0.662667 1.66285 0.765333 1.60419 0.912C1.54552 1.05867 1.47952 1.264 1.40619 1.528C1.34752 1.792 1.28885 2.12933 1.23019 2.54C1.18619 2.95067 1.16419 3.44933 1.16419 4.036C1.16419 4.564 1.18619 5.114 1.23019 5.686C1.28885 6.258 1.36219 6.82267 1.45019 7.38C1.53819 7.93733 1.63352 8.46533 1.73619 8.964C1.85352 9.46267 1.97085 9.90267 2.08819 10.284C2.20552 10.6653 2.31552 10.9733 2.41819 11.208C2.52085 11.428 2.61619 11.538 2.70419 11.538C2.71885 11.538 2.81419 11.5013 2.99019 11.428C3.16619 11.3547 3.38619 11.2667 3.65019 11.164C3.91419 11.0467 4.20019 10.9367 4.50819 10.834C4.83085 10.7167 5.15352 10.614 5.47619 10.526C5.62285 10.482 5.79152 10.438 5.98219 10.394C6.18752 10.3353 6.37819 10.284 6.55419 10.24C6.73019 10.196 6.88419 10.1593 7.01619 10.13C7.16285 10.1007 7.25085 10.086 7.28019 10.086C7.51485 10.086 7.63219 10.1667 7.63219 10.328ZM14.9315 9.69C14.9462 9.71933 14.9535 9.76333 14.9535 9.822C14.9535 9.91 14.8875 10.042 14.7555 10.218C14.7115 10.2767 14.6162 10.372 14.4695 10.504C14.3229 10.636 14.1249 10.768 13.8755 10.9C13.6262 11.032 13.3182 11.1493 12.9515 11.252C12.5995 11.3547 12.1815 11.406 11.6975 11.406C11.3602 11.406 11.0302 11.3327 10.7075 11.186C10.3849 11.0247 10.0989 10.7973 9.84955 10.504C9.60021 10.196 9.39488 9.822 9.23355 9.382C9.07221 8.92733 8.99155 8.39933 8.99155 7.798C8.99155 7.226 9.06488 6.69067 9.21155 6.192C9.35821 5.69333 9.54155 5.25333 9.76155 4.872C9.99621 4.49067 10.2529 4.19 10.5315 3.97C10.8102 3.75 11.0815 3.64 11.3455 3.64C11.5802 3.64 11.8149 3.69133 12.0495 3.794C12.2989 3.882 12.5189 3.99933 12.7095 4.146C12.9149 4.29267 13.0762 4.46133 13.1935 4.652C13.3109 4.828 13.3695 5.01133 13.3695 5.202C13.3695 5.422 13.2669 5.64933 13.0615 5.884C12.8709 6.11867 12.6362 6.33867 12.3575 6.544C12.0789 6.73467 11.8002 6.896 11.5215 7.028C11.2429 7.14533 11.0229 7.204 10.8615 7.204C10.7735 7.204 10.6929 7.16733 10.6195 7.094C10.5609 7.006 10.5315 6.90333 10.5315 6.786C10.5315 6.58067 10.6195 6.41933 10.7955 6.302C10.9862 6.18467 11.1915 6.082 11.4115 5.994C11.6315 5.89133 11.8295 5.774 12.0055 5.642C12.1962 5.51 12.2915 5.32667 12.2915 5.092C12.2915 5.06267 12.2549 4.98933 12.1815 4.872C12.1082 4.75467 11.9102 4.696 11.5875 4.696C11.4409 4.696 11.2722 4.784 11.0815 4.96C10.8909 5.12133 10.7075 5.34867 10.5315 5.642C10.3555 5.92067 10.2089 6.258 10.0915 6.654C9.97421 7.03533 9.91555 7.45333 9.91555 7.908C9.91555 8.28933 9.98155 8.634 10.1135 8.942C10.2602 9.25 10.4435 9.514 10.6635 9.734C10.8835 9.93933 11.1402 10.1007 11.4335 10.218C11.7269 10.3353 12.0275 10.394 12.3355 10.394C12.5555 10.394 12.7902 10.35 13.0395 10.262C13.3035 10.1593 13.5455 10.0567 13.7655 9.954C14.0002 9.83667 14.1982 9.734 14.3595 9.646C14.5355 9.54333 14.6455 9.492 14.6895 9.492C14.7335 9.492 14.7775 9.514 14.8215 9.558C14.8802 9.602 14.9169 9.646 14.9315 9.69ZM21.4355 9.096C21.4355 9.34533 21.3475 9.56533 21.1715 9.756C21.0101 9.932 20.7975 10.086 20.5335 10.218C20.2841 10.3353 20.0055 10.4307 19.6975 10.504C19.3895 10.5773 19.0961 10.636 18.8175 10.68C18.5388 10.7093 18.2895 10.7313 18.0695 10.746C17.8641 10.746 17.7321 10.746 17.6735 10.746C17.3508 10.746 17.1015 10.6947 16.9255 10.592C16.7495 10.4893 16.6615 10.306 16.6615 10.042C16.6615 9.954 16.6688 9.88067 16.6835 9.822C16.6981 9.74867 16.7568 9.712 16.8595 9.712C16.9035 9.712 16.9768 9.72667 17.0795 9.756C17.1821 9.77067 17.2628 9.778 17.3215 9.778C17.3801 9.778 17.5635 9.77067 17.8715 9.756C18.1941 9.72667 18.5315 9.68267 18.8835 9.624C19.2501 9.56533 19.5728 9.48467 19.8515 9.382C20.1448 9.26467 20.2915 9.118 20.2915 8.942C20.2915 8.91267 20.1375 8.82467 19.8295 8.678C19.5361 8.51667 19.0888 8.25267 18.4875 7.886C18.0181 7.59267 17.6881 7.29933 17.4975 7.006C17.3068 6.698 17.2115 6.28733 17.2115 5.774C17.2115 5.45133 17.2775 5.18733 17.4095 4.982C17.5561 4.77667 17.7468 4.61533 17.9815 4.498C18.2308 4.38067 18.5095 4.3 18.8175 4.256C19.1401 4.19733 19.4775 4.168 19.8295 4.168C19.8588 4.168 19.9468 4.18267 20.0935 4.212C20.2548 4.24133 20.4235 4.29267 20.5995 4.366C20.7755 4.42467 20.9295 4.50533 21.0615 4.608C21.2081 4.696 21.2815 4.79867 21.2815 4.916C21.2815 4.94533 21.2521 4.98933 21.1935 5.048C21.1495 5.10667 21.0688 5.21667 20.9515 5.378C20.9075 5.36333 20.8268 5.34133 20.7095 5.312C20.6068 5.28267 20.4821 5.25333 20.3355 5.224C20.2035 5.18 20.0641 5.15067 19.9175 5.136C19.7708 5.10667 19.6535 5.092 19.5655 5.092C19.1841 5.092 18.8761 5.16533 18.6415 5.312C18.4068 5.444 18.2895 5.708 18.2895 6.104C18.2895 6.29467 18.3628 6.47067 18.5095 6.632C18.6708 6.79333 18.8688 6.94733 19.1035 7.094C19.3381 7.226 19.5875 7.36533 19.8515 7.512C20.1301 7.644 20.3868 7.79067 20.6215 7.952C20.8561 8.11333 21.0468 8.28933 21.1935 8.48C21.3548 8.656 21.4355 8.86133 21.4355 9.096ZM39.4889 5.642C39.4889 6.02333 39.3789 6.39 39.1589 6.742C38.9535 7.094 38.6969 7.424 38.3889 7.732C38.0809 8.02533 37.7435 8.304 37.3769 8.568C37.0102 8.81733 36.6729 9.03733 36.3649 9.228C36.0715 9.43333 35.8295 9.602 35.6389 9.734C35.4482 9.866 35.3529 9.96867 35.3529 10.042C35.3529 10.2327 35.3749 10.504 35.4189 10.856C35.4629 11.1933 35.5142 11.5673 35.5729 11.978C35.6462 12.374 35.7122 12.7847 35.7709 13.21C35.8442 13.6353 35.8955 14.024 35.9249 14.376C35.9249 14.3907 35.9322 14.4567 35.9469 14.574C35.9762 14.6913 36.0055 14.8233 36.0349 14.97C36.0789 15.1167 36.1082 15.2487 36.1229 15.366C36.1522 15.498 36.1669 15.5787 36.1669 15.608C36.1669 15.7107 36.1595 15.8207 36.1449 15.938C36.1449 16.07 36.1229 16.1873 36.0789 16.29C36.0495 16.4073 35.9982 16.5027 35.9249 16.576C35.8515 16.6493 35.7562 16.686 35.6389 16.686C35.4775 16.686 35.3602 16.6127 35.2869 16.466C35.2135 16.334 35.1769 16.202 35.1769 16.07C35.1769 16.0407 35.1769 16.0113 35.1769 15.982C35.1915 15.9527 35.1989 15.916 35.1989 15.872C35.1989 15.7107 35.1402 15.278 35.0229 14.574C34.9055 13.87 34.7735 13.0267 34.6269 12.044C34.4802 11.076 34.3482 10.0347 34.2309 8.92C34.1135 7.79067 34.0549 6.72733 34.0549 5.73C34.0549 5.65667 34.0622 5.576 34.0769 5.488C34.0915 5.38533 34.0989 5.29733 34.0989 5.224C33.9522 5.23867 33.7322 5.30467 33.4389 5.422C33.1602 5.53933 32.8815 5.686 32.6029 5.862C32.3242 6.02333 32.0749 6.19933 31.8549 6.39C31.6495 6.566 31.5469 6.72733 31.5469 6.874H31.3929C31.3489 6.874 31.2975 6.84467 31.2389 6.786C31.1655 6.72733 31.1069 6.66133 31.0629 6.588C31.0042 6.51467 30.9529 6.44133 30.9089 6.368C30.8649 6.29467 30.8429 6.24333 30.8429 6.214C30.8429 5.906 31.0262 5.62 31.3929 5.356C31.7595 5.07733 32.2142 4.83533 32.7569 4.63C33.3142 4.41 33.9229 4.24133 34.5829 4.124C35.2429 3.992 35.8662 3.926 36.4529 3.926C37.0249 3.926 37.5015 3.992 37.8829 4.124C38.2789 4.256 38.5942 4.41733 38.8289 4.608C39.0635 4.784 39.2322 4.96733 39.3349 5.158C39.4375 5.34867 39.4889 5.51 39.4889 5.642ZM38.4109 5.576C38.4109 5.42933 38.2275 5.28267 37.8609 5.136C37.4942 4.97467 37.0615 4.894 36.5629 4.894C36.1229 4.894 35.8002 4.90867 35.5949 4.938C35.3895 4.96733 35.2502 4.99667 35.1769 5.026C35.1475 5.26067 35.1255 5.53933 35.1109 5.862C35.0962 6.18467 35.0889 6.51467 35.0889 6.852C35.0889 7.204 35.0962 7.54867 35.1109 7.886C35.1402 8.20867 35.1695 8.48 35.1989 8.7C35.4042 8.568 35.6829 8.392 36.0349 8.172C36.4015 7.93733 36.7609 7.68067 37.1129 7.402C37.4649 7.10867 37.7655 6.808 38.0149 6.5C38.2789 6.17733 38.4109 5.86933 38.4109 5.576ZM45.9118 5.29C45.9118 5.39267 45.8678 5.48067 45.7798 5.554C45.6918 5.61267 45.5892 5.664 45.4718 5.708C45.3545 5.752 45.2372 5.78867 45.1198 5.818C45.0025 5.83267 44.9072 5.84 44.8338 5.84C44.6138 5.84 44.4672 5.82533 44.3938 5.796C44.3205 5.76667 44.2618 5.752 44.2178 5.752C43.8512 5.752 43.5578 5.78133 43.3378 5.84C43.1178 5.89867 42.9418 5.994 42.8098 6.126C42.6925 6.258 42.6118 6.42667 42.5678 6.632C42.5385 6.82267 42.5238 7.05733 42.5238 7.336C42.5238 7.80533 42.5385 8.17933 42.5678 8.458C42.6118 8.73667 42.6485 8.964 42.6778 9.14C42.7218 9.316 42.7585 9.45533 42.7878 9.558C42.8318 9.646 42.8538 9.734 42.8538 9.822C42.8538 9.93933 42.7878 10.064 42.6558 10.196C42.5385 10.328 42.4285 10.394 42.3258 10.394C42.1498 10.394 41.9885 10.24 41.8418 9.932C41.7098 9.60933 41.5925 9.23533 41.4898 8.81C41.4018 8.37 41.3285 7.93733 41.2698 7.512C41.2112 7.08667 41.1818 6.764 41.1818 6.544C41.1818 6.29467 41.2038 6.06 41.2478 5.84C41.2918 5.60533 41.3505 5.40733 41.4238 5.246C41.4972 5.07 41.5778 4.93067 41.6658 4.828C41.7538 4.72533 41.8418 4.674 41.9298 4.674C42.0032 4.674 42.0618 4.70333 42.1058 4.762C42.1498 4.806 42.1865 4.86467 42.2158 4.938C42.2452 4.99667 42.2745 5.05533 42.3038 5.114C42.3478 5.158 42.3992 5.18 42.4578 5.18C42.5898 5.18 42.8025 5.114 43.0958 4.982C43.3892 4.85 43.7485 4.784 44.1738 4.784C44.5698 4.784 44.8632 4.79867 45.0538 4.828C45.2592 4.84267 45.4572 4.88667 45.6478 4.96C45.6918 4.97467 45.7432 5.01133 45.8018 5.07C45.8752 5.114 45.9118 5.18733 45.9118 5.29ZM51.6188 7.248C51.6188 7.57067 51.5748 7.87867 51.4868 8.172C51.3988 8.46533 51.2814 8.722 51.1348 8.942C50.9881 9.162 50.8121 9.338 50.6068 9.47C50.4161 9.58733 50.2034 9.646 49.9688 9.646C49.5581 9.646 49.2354 9.52867 49.0008 9.294C48.7661 9.05933 48.5828 8.788 48.4508 8.48C48.3334 8.172 48.2528 7.864 48.2088 7.556C48.1794 7.23333 48.1648 6.99133 48.1648 6.83C48.1648 6.566 48.2014 6.27267 48.2748 5.95C48.3628 5.61267 48.4728 5.30467 48.6048 5.026C48.7514 4.74733 48.9128 4.51267 49.0888 4.322C49.2648 4.13133 49.4481 4.036 49.6388 4.036C49.6828 4.036 49.7488 4.05067 49.8368 4.08C49.9394 4.10933 50.0421 4.15333 50.1448 4.212C50.2474 4.27067 50.3354 4.344 50.4088 4.432C50.4968 4.52 50.5554 4.62267 50.5848 4.74C50.7461 4.75467 50.9074 4.81333 51.0688 4.916C51.2301 5.01867 51.3181 5.09933 51.3328 5.158C51.4501 5.53933 51.5234 5.92067 51.5528 6.302C51.5968 6.68333 51.6188 6.99867 51.6188 7.248ZM50.6288 6.852C50.6288 6.632 50.6068 6.40467 50.5628 6.17C50.5188 5.92067 50.4308 5.67133 50.2988 5.422C50.2694 5.43667 50.2328 5.444 50.1888 5.444C50.1301 5.444 50.0788 5.43667 50.0348 5.422C50.0054 5.40733 49.9761 5.4 49.9468 5.4C49.7708 5.4 49.6314 5.45133 49.5288 5.554C49.4261 5.642 49.3454 5.76667 49.2868 5.928C49.2428 6.07467 49.2134 6.236 49.1988 6.412C49.1841 6.588 49.1768 6.75667 49.1768 6.918C49.1768 7.07933 49.1841 7.26267 49.1988 7.468C49.2134 7.65867 49.2428 7.842 49.2868 8.018C49.3454 8.194 49.4188 8.348 49.5068 8.48C49.5948 8.59733 49.7121 8.656 49.8588 8.656C50.0054 8.656 50.1301 8.58267 50.2328 8.436C50.3354 8.27467 50.4161 8.09133 50.4748 7.886C50.5334 7.68067 50.5701 7.48267 50.5848 7.292C50.6141 7.08667 50.6288 6.94 50.6288 6.852ZM59.3028 10.064C59.3028 10.2253 59.2441 10.3353 59.1268 10.394C59.0095 10.4527 58.9508 10.5333 58.9508 10.636C58.9361 10.6213 58.9655 10.702 59.0388 10.878C59.1121 11.054 59.1781 11.2373 59.2368 11.428C59.3395 11.824 59.4275 12.1687 59.5008 12.462C59.5888 12.7553 59.6548 13.0267 59.6988 13.276C59.7575 13.5253 59.8015 13.7747 59.8308 14.024C59.8601 14.2733 59.8748 14.552 59.8748 14.86C59.8748 15.168 59.8235 15.4833 59.7208 15.806C59.6181 16.1287 59.4715 16.4147 59.2808 16.664C59.0901 16.9133 58.8555 17.1187 58.5768 17.28C58.2981 17.4413 57.9828 17.522 57.6308 17.522C57.0881 17.522 56.6555 17.412 56.3328 17.192C56.0248 16.972 55.7901 16.7227 55.6288 16.444C55.4675 16.1653 55.3648 15.8867 55.3208 15.608C55.2768 15.344 55.2548 15.168 55.2548 15.08C55.2548 14.5373 55.3941 13.9947 55.6728 13.452C55.9515 12.9093 56.2595 12.418 56.5968 11.978C56.9341 11.538 57.2421 11.1713 57.5208 10.878C57.7995 10.5847 57.9388 10.416 57.9388 10.372L57.6968 9.646C57.5501 9.822 57.4181 10.02 57.3008 10.24C57.1981 10.4453 57.0808 10.6433 56.9488 10.834C56.8315 11.01 56.6848 11.164 56.5088 11.296C56.3475 11.4133 56.1421 11.472 55.8928 11.472C55.6288 11.472 55.3648 11.3913 55.1008 11.23C54.8368 11.0687 54.6021 10.8267 54.3968 10.504C54.1915 10.1813 54.0228 9.79267 53.8908 9.338C53.7735 8.88333 53.7148 8.35533 53.7148 7.754C53.7148 7.41667 53.7661 6.99867 53.8688 6.5C53.9715 5.98667 54.1328 5.49533 54.3528 5.026C54.5728 4.55667 54.8441 4.16067 55.1668 3.838C55.5041 3.50067 55.8928 3.332 56.3328 3.332C56.5821 3.332 56.8095 3.376 57.0148 3.464C57.2348 3.552 57.3448 3.662 57.3448 3.794C57.3448 3.91133 57.3228 4.00667 57.2788 4.08C57.2348 4.15333 57.1761 4.22667 57.1028 4.3C57.0588 4.27067 57.0075 4.24133 56.9488 4.212C56.9048 4.18267 56.8388 4.168 56.7508 4.168C56.4281 4.168 56.1348 4.31467 55.8708 4.608C55.6215 4.88667 55.4088 5.23867 55.2328 5.664C55.0568 6.07467 54.9175 6.50733 54.8148 6.962C54.7268 7.41667 54.6828 7.81267 54.6828 8.15C54.6828 8.898 54.8075 9.47 55.0568 9.866C55.3061 10.2473 55.5701 10.438 55.8488 10.438C55.9808 10.438 56.1201 10.3427 56.2668 10.152C56.4281 9.94667 56.5748 9.72667 56.7068 9.492C56.8535 9.24267 56.9781 9.008 57.0808 8.788C57.1835 8.568 57.2421 8.436 57.2568 8.392C57.2861 8.24533 57.3008 8.07667 57.3008 7.886C57.3008 7.72467 57.2935 7.54867 57.2788 7.358C57.2788 7.15267 57.2788 6.94733 57.2788 6.742C57.2788 6.36067 57.3081 6.04533 57.3668 5.796C57.4255 5.532 57.5721 5.4 57.8068 5.4C58.0415 5.4 58.2101 5.47333 58.3128 5.62C58.4155 5.752 58.4668 5.91333 58.4668 6.104C58.4668 6.236 58.4595 6.39733 58.4448 6.588C58.4448 6.764 58.4448 6.94 58.4448 7.116C58.4448 7.27733 58.4375 7.424 58.4228 7.556C58.4228 7.67333 58.4228 7.74667 58.4228 7.776C58.4228 7.864 58.4301 7.996 58.4448 8.172C58.4741 8.33333 58.4961 8.502 58.5108 8.678C58.5401 8.83933 58.5621 8.99333 58.5768 9.14C58.6061 9.272 58.6281 9.36 58.6428 9.404C58.6575 9.448 58.6795 9.514 58.7088 9.602C58.7381 9.69 58.7675 9.756 58.7968 9.8C58.8115 9.77067 58.8408 9.74133 58.8848 9.712C58.9288 9.668 58.9655 9.63133 58.9948 9.602C59.0681 9.646 59.1341 9.734 59.1928 9.866C59.2661 9.98333 59.3028 10.0493 59.3028 10.064ZM58.5548 12.858C58.4961 12.6233 58.4301 12.3887 58.3568 12.154C58.2835 11.9193 58.2101 11.6773 58.1368 11.428C57.8875 11.736 57.6455 12.0293 57.4108 12.308C57.1908 12.6013 56.9855 12.8873 56.7948 13.166C56.6188 13.4447 56.4721 13.7307 56.3548 14.024C56.2521 14.332 56.2008 14.6547 56.2008 14.992C56.2008 15.4467 56.3255 15.8207 56.5748 16.114C56.8388 16.4073 57.1248 16.554 57.4328 16.554C57.7701 16.554 58.0855 16.4293 58.3788 16.18C58.6868 15.9307 58.8408 15.5713 58.8408 15.102C58.8408 14.794 58.8335 14.5373 58.8188 14.332C58.8041 14.1267 58.7821 13.9433 58.7528 13.782C58.7381 13.6353 58.7088 13.4887 58.6648 13.342C58.6355 13.21 58.5988 13.0487 58.5548 12.858ZM66.322 5.29C66.322 5.39267 66.278 5.48067 66.19 5.554C66.102 5.61267 65.9993 5.664 65.882 5.708C65.7647 5.752 65.6473 5.78867 65.53 5.818C65.4127 5.83267 65.3173 5.84 65.244 5.84C65.024 5.84 64.8773 5.82533 64.804 5.796C64.7307 5.76667 64.672 5.752 64.628 5.752C64.2613 5.752 63.968 5.78133 63.748 5.84C63.528 5.89867 63.352 5.994 63.22 6.126C63.1027 6.258 63.022 6.42667 62.978 6.632C62.9487 6.82267 62.934 7.05733 62.934 7.336C62.934 7.80533 62.9487 8.17933 62.978 8.458C63.022 8.73667 63.0587 8.964 63.088 9.14C63.132 9.316 63.1687 9.45533 63.198 9.558C63.242 9.646 63.264 9.734 63.264 9.822C63.264 9.93933 63.198 10.064 63.066 10.196C62.9487 10.328 62.8387 10.394 62.736 10.394C62.56 10.394 62.3987 10.24 62.252 9.932C62.12 9.60933 62.0027 9.23533 61.9 8.81C61.812 8.37 61.7387 7.93733 61.68 7.512C61.6213 7.08667 61.592 6.764 61.592 6.544C61.592 6.29467 61.614 6.06 61.658 5.84C61.702 5.60533 61.7607 5.40733 61.834 5.246C61.9073 5.07 61.988 4.93067 62.076 4.828C62.164 4.72533 62.252 4.674 62.34 4.674C62.4133 4.674 62.472 4.70333 62.516 4.762C62.56 4.806 62.5967 4.86467 62.626 4.938C62.6553 4.99667 62.6847 5.05533 62.714 5.114C62.758 5.158 62.8093 5.18 62.868 5.18C63 5.18 63.2127 5.114 63.506 4.982C63.7993 4.85 64.1587 4.784 64.584 4.784C64.98 4.784 65.2733 4.79867 65.464 4.828C65.6693 4.84267 65.8673 4.88667 66.058 4.96C66.102 4.97467 66.1533 5.01133 66.212 5.07C66.2853 5.114 66.322 5.18733 66.322 5.29ZM78.5409 7.424C78.5409 7.688 78.4163 8.018 78.1669 8.414C77.9323 8.79533 77.6096 9.16933 77.1989 9.536C76.7883 9.90267 76.3116 10.218 75.7689 10.482C75.2263 10.7313 74.6616 10.856 74.0749 10.856C73.8109 10.856 73.5323 10.812 73.2389 10.724C72.9456 10.636 72.6596 10.5113 72.3809 10.35C72.1023 10.174 71.8529 9.96867 71.6329 9.734C71.4129 9.48467 71.2516 9.206 71.1489 8.898C71.0609 8.986 70.9509 9.13267 70.8189 9.338C70.7016 9.54333 70.5696 9.756 70.4229 9.976C70.2763 10.1813 70.1149 10.3647 69.9389 10.526C69.7629 10.6727 69.5796 10.746 69.3889 10.746C69.1983 10.746 69.0369 10.6507 68.9049 10.46C68.7876 10.2547 68.6923 10.0347 68.6189 9.8C68.5456 9.55067 68.4943 9.316 68.4649 9.096C68.4356 8.876 68.4209 8.75133 68.4209 8.722C68.4209 8.546 68.4723 8.216 68.5749 7.732C68.6776 7.23333 68.8316 6.72 69.0369 6.192C69.2423 5.664 69.4989 5.19467 69.8069 4.784C70.1296 4.37333 70.5036 4.168 70.9289 4.168C71.0903 4.168 71.1929 4.24133 71.2369 4.388C71.2956 4.52 71.3249 4.652 71.3249 4.784V5.444C71.3983 5.50267 71.4716 5.54667 71.5449 5.576C71.6329 5.59067 71.7063 5.62 71.7649 5.664C71.8383 5.69333 71.8896 5.74467 71.9189 5.818C71.9629 5.89133 71.9849 6.00867 71.9849 6.17C71.9849 6.27267 71.9776 6.368 71.9629 6.456C71.9483 6.52933 71.9409 6.60267 71.9409 6.676C71.9409 7.05733 71.9703 7.43133 72.0289 7.798C72.0876 8.16467 72.2049 8.49467 72.3809 8.788C72.5569 9.06667 72.7989 9.30133 73.1069 9.492C73.4149 9.668 73.8256 9.756 74.3389 9.756C74.9843 9.756 75.5269 9.624 75.9669 9.36C76.4216 9.08133 76.7956 8.78067 77.0889 8.458C77.3969 8.12067 77.6389 7.82 77.8149 7.556C77.9909 7.27733 78.1376 7.138 78.2549 7.138C78.4456 7.138 78.5409 7.23333 78.5409 7.424ZM70.8189 6.456C70.8189 6.39733 70.8043 6.346 70.7749 6.302C70.7456 6.24333 70.7309 6.192 70.7309 6.148C70.7309 6.08933 70.7456 6.038 70.7749 5.994C70.8043 5.95 70.8189 5.89133 70.8189 5.818C70.8189 5.774 70.8043 5.74467 70.7749 5.73C70.7456 5.70067 70.7309 5.67133 70.7309 5.642C70.5989 5.67133 70.4596 5.796 70.3129 6.016C70.1809 6.236 70.0489 6.49267 69.9169 6.786C69.7996 7.07933 69.7043 7.38 69.6309 7.688C69.5576 7.98133 69.5209 8.22333 69.5209 8.414C69.5209 8.51667 69.5503 8.68533 69.6089 8.92C69.6676 9.15467 69.7336 9.30867 69.8069 9.382C70.0563 8.86867 70.2836 8.37 70.4889 7.886C70.7089 7.402 70.8189 6.92533 70.8189 6.456ZM88.5796 9.932C88.5796 10.0493 88.543 10.152 88.4696 10.24C88.3963 10.328 88.3083 10.4013 88.2056 10.46C88.103 10.504 87.993 10.5407 87.8756 10.57C87.773 10.5993 87.685 10.614 87.6116 10.614C87.3036 10.614 87.0396 10.4527 86.8196 10.13C86.5996 9.79267 86.4163 9.426 86.2696 9.03C86.123 8.61933 86.013 8.238 85.9396 7.886C85.881 7.534 85.8516 7.34333 85.8516 7.314C85.7636 7.47533 85.6683 7.74667 85.5656 8.128C85.4776 8.50933 85.3676 8.898 85.2356 9.294C85.1036 9.67533 84.935 10.02 84.7296 10.328C84.539 10.6213 84.2896 10.768 83.9816 10.768C83.835 10.768 83.6956 10.68 83.5636 10.504C83.4316 10.328 83.307 10.1007 83.1896 9.822C83.0723 9.54333 82.955 9.228 82.8376 8.876C82.735 8.524 82.625 8.17933 82.5076 7.842C82.405 7.50467 82.3023 7.18933 82.1996 6.896C82.097 6.588 81.9943 6.346 81.8916 6.17C81.8036 6.39 81.723 6.69067 81.6496 7.072C81.591 7.45333 81.5396 7.85667 81.4956 8.282C81.4516 8.69267 81.415 9.10333 81.3856 9.514C81.3563 9.92467 81.3416 10.284 81.3416 10.592C81.3416 10.7973 81.283 10.944 81.1656 11.032C81.063 11.12 80.953 11.164 80.8356 11.164C80.6743 11.164 80.513 11.0613 80.3516 10.856C80.1903 10.636 80.029 10.3573 79.8676 10.02C79.7063 9.68267 79.5523 9.30133 79.4056 8.876C79.2736 8.45067 79.149 8.02533 79.0316 7.6C78.929 7.17467 78.8483 6.77133 78.7896 6.39C78.731 5.994 78.7016 5.664 78.7016 5.4C78.7016 5.20933 78.709 5.03333 78.7236 4.872C78.7383 4.74 78.7456 4.61533 78.7456 4.498C78.7603 4.38067 78.7676 4.31467 78.7676 4.3C78.7676 4.256 78.753 4.22667 78.7236 4.212C78.709 4.19733 78.7016 4.16067 78.7016 4.102C78.7016 4.058 78.753 3.992 78.8556 3.904C78.973 3.80133 79.0903 3.75 79.2076 3.75C79.413 3.75 79.545 3.794 79.6036 3.882C79.677 3.97 79.7136 4.07267 79.7136 4.19C79.7136 4.234 79.7063 4.3 79.6916 4.388C79.6916 4.476 79.6916 4.674 79.6916 4.982C79.6916 5.18733 79.7283 5.49533 79.8016 5.906C79.875 6.31667 79.963 6.73467 80.0656 7.16C80.1683 7.58533 80.271 7.98133 80.3736 8.348C80.491 8.7 80.5863 8.92 80.6596 9.008C80.689 8.94933 80.7036 8.88333 80.7036 8.81C80.7183 8.722 80.733 8.656 80.7476 8.612L80.9896 6.808C81.0483 6.35333 81.1656 5.87667 81.3416 5.378C81.5323 4.86467 81.7303 4.46867 81.9356 4.19C82.009 4.07267 82.0896 4.014 82.1776 4.014C82.2656 4.014 82.3463 4.08 82.4196 4.212C82.669 4.62267 82.8523 5.03333 82.9696 5.444C83.1016 5.84 83.2116 6.236 83.2996 6.632C83.4023 7.01333 83.5123 7.402 83.6296 7.798C83.7616 8.17933 83.9596 8.568 84.2236 8.964C84.341 8.77333 84.4876 8.46533 84.6636 8.04C84.8396 7.6 85.0156 7.16 85.1916 6.72C85.3823 6.28 85.5583 5.89867 85.7196 5.576C85.881 5.23867 86.0056 5.07 86.0936 5.07C86.1376 5.07 86.211 5.07733 86.3136 5.092C86.4163 5.10667 86.4896 5.114 86.5336 5.114C86.6656 5.114 86.7756 5.268 86.8636 5.576C86.9516 5.86933 87.025 6.22133 87.0836 6.632C87.157 7.028 87.223 7.43133 87.2816 7.842C87.355 8.238 87.4356 8.53867 87.5236 8.744C87.5823 8.89067 87.6703 9.03 87.7876 9.162C87.905 9.294 88.0223 9.41867 88.1396 9.536C88.2863 9.668 88.433 9.8 88.5796 9.932ZM100.117 9.932C100.117 10.0493 100.08 10.152 100.007 10.24C99.9334 10.328 99.8454 10.4013 99.7428 10.46C99.6401 10.504 99.5301 10.5407 99.4128 10.57C99.3101 10.5993 99.2221 10.614 99.1488 10.614C98.8408 10.614 98.5768 10.4527 98.3568 10.13C98.1368 9.79267 97.9534 9.426 97.8068 9.03C97.6601 8.61933 97.5501 8.238 97.4768 7.886C97.4181 7.534 97.3888 7.34333 97.3888 7.314C97.3008 7.47533 97.2054 7.74667 97.1028 8.128C97.0148 8.50933 96.9048 8.898 96.7728 9.294C96.6408 9.67533 96.4721 10.02 96.2668 10.328C96.0761 10.6213 95.8268 10.768 95.5188 10.768C95.3721 10.768 95.2328 10.68 95.1008 10.504C94.9688 10.328 94.8441 10.1007 94.7268 9.822C94.6094 9.54333 94.4921 9.228 94.3748 8.876C94.2721 8.524 94.1621 8.17933 94.0448 7.842C93.9421 7.50467 93.8394 7.18933 93.7368 6.896C93.6341 6.588 93.5314 6.346 93.4288 6.17C93.3408 6.39 93.2601 6.69067 93.1868 7.072C93.1281 7.45333 93.0768 7.85667 93.0328 8.282C92.9888 8.69267 92.9521 9.10333 92.9228 9.514C92.8934 9.92467 92.8788 10.284 92.8788 10.592C92.8788 10.7973 92.8201 10.944 92.7027 11.032C92.6001 11.12 92.4901 11.164 92.3727 11.164C92.2114 11.164 92.0501 11.0613 91.8888 10.856C91.7274 10.636 91.5661 10.3573 91.4048 10.02C91.2434 9.68267 91.0894 9.30133 90.9428 8.876C90.8108 8.45067 90.6861 8.02533 90.5688 7.6C90.4661 7.17467 90.3854 6.77133 90.3268 6.39C90.2681 5.994 90.2388 5.664 90.2388 5.4C90.2388 5.20933 90.2461 5.03333 90.2608 4.872C90.2754 4.74 90.2828 4.61533 90.2828 4.498C90.2974 4.38067 90.3048 4.31467 90.3048 4.3C90.3048 4.256 90.2901 4.22667 90.2608 4.212C90.2461 4.19733 90.2388 4.16067 90.2388 4.102C90.2388 4.058 90.2901 3.992 90.3928 3.904C90.5101 3.80133 90.6274 3.75 90.7448 3.75C90.9501 3.75 91.0821 3.794 91.1408 3.882C91.2141 3.97 91.2508 4.07267 91.2508 4.19C91.2508 4.234 91.2434 4.3 91.2288 4.388C91.2288 4.476 91.2288 4.674 91.2288 4.982C91.2288 5.18733 91.2654 5.49533 91.3388 5.906C91.4121 6.31667 91.5001 6.73467 91.6028 7.16C91.7054 7.58533 91.8081 7.98133 91.9108 8.348C92.0281 8.7 92.1234 8.92 92.1968 9.008C92.2261 8.94933 92.2408 8.88333 92.2408 8.81C92.2554 8.722 92.2701 8.656 92.2848 8.612L92.5268 6.808C92.5854 6.35333 92.7028 5.87667 92.8788 5.378C93.0694 4.86467 93.2674 4.46867 93.4728 4.19C93.5461 4.07267 93.6268 4.014 93.7148 4.014C93.8028 4.014 93.8834 4.08 93.9568 4.212C94.2061 4.62267 94.3894 5.03333 94.5068 5.444C94.6388 5.84 94.7488 6.236 94.8368 6.632C94.9394 7.01333 95.0494 7.402 95.1668 7.798C95.2988 8.17933 95.4968 8.568 95.7608 8.964C95.8781 8.77333 96.0248 8.46533 96.2008 8.04C96.3768 7.6 96.5528 7.16 96.7288 6.72C96.9194 6.28 97.0954 5.89867 97.2568 5.576C97.4181 5.23867 97.5428 5.07 97.6308 5.07C97.6748 5.07 97.7481 5.07733 97.8508 5.092C97.9534 5.10667 98.0268 5.114 98.0708 5.114C98.2028 5.114 98.3128 5.268 98.4008 5.576C98.4888 5.86933 98.5621 6.22133 98.6208 6.632C98.6941 7.028 98.7601 7.43133 98.8188 7.842C98.8921 8.238 98.9728 8.53867 99.0608 8.744C99.1194 8.89067 99.2074 9.03 99.3248 9.162C99.4421 9.294 99.5594 9.41867 99.6768 9.536C99.8234 9.668 99.9701 9.8 100.117 9.932ZM108.002 9.69C108.017 9.71933 108.024 9.76333 108.024 9.822C108.024 9.91 107.958 10.042 107.826 10.218C107.782 10.2767 107.687 10.372 107.54 10.504C107.393 10.636 107.195 10.768 106.946 10.9C106.697 11.032 106.389 11.1493 106.022 11.252C105.67 11.3547 105.252 11.406 104.768 11.406C104.431 11.406 104.101 11.3327 103.778 11.186C103.455 11.0247 103.169 10.7973 102.92 10.504C102.671 10.196 102.465 9.822 102.304 9.382C102.143 8.92733 102.062 8.39933 102.062 7.798C102.062 7.226 102.135 6.69067 102.282 6.192C102.429 5.69333 102.612 5.25333 102.832 4.872C103.067 4.49067 103.323 4.19 103.602 3.97C103.881 3.75 104.152 3.64 104.416 3.64C104.651 3.64 104.885 3.69133 105.12 3.794C105.369 3.882 105.589 3.99933 105.78 4.146C105.985 4.29267 106.147 4.46133 106.264 4.652C106.381 4.828 106.44 5.01133 106.44 5.202C106.44 5.422 106.337 5.64933 106.132 5.884C105.941 6.11867 105.707 6.33867 105.428 6.544C105.149 6.73467 104.871 6.896 104.592 7.028C104.313 7.14533 104.093 7.204 103.932 7.204C103.844 7.204 103.763 7.16733 103.69 7.094C103.631 7.006 103.602 6.90333 103.602 6.786C103.602 6.58067 103.69 6.41933 103.866 6.302C104.057 6.18467 104.262 6.082 104.482 5.994C104.702 5.89133 104.9 5.774 105.076 5.642C105.267 5.51 105.362 5.32667 105.362 5.092C105.362 5.06267 105.325 4.98933 105.252 4.872C105.179 4.75467 104.981 4.696 104.658 4.696C104.511 4.696 104.343 4.784 104.152 4.96C103.961 5.12133 103.778 5.34867 103.602 5.642C103.426 5.92067 103.279 6.258 103.162 6.654C103.045 7.03533 102.986 7.45333 102.986 7.908C102.986 8.28933 103.052 8.634 103.184 8.942C103.331 9.25 103.514 9.514 103.734 9.734C103.954 9.93933 104.211 10.1007 104.504 10.218C104.797 10.3353 105.098 10.394 105.406 10.394C105.626 10.394 105.861 10.35 106.11 10.262C106.374 10.1593 106.616 10.0567 106.836 9.954C107.071 9.83667 107.269 9.734 107.43 9.646C107.606 9.54333 107.716 9.492 107.76 9.492C107.804 9.492 107.848 9.514 107.892 9.558C107.951 9.602 107.987 9.646 108.002 9.69ZM114.506 9.096C114.506 9.34533 114.418 9.56533 114.242 9.756C114.08 9.932 113.868 10.086 113.604 10.218C113.354 10.3353 113.076 10.4307 112.768 10.504C112.46 10.5773 112.166 10.636 111.888 10.68C111.609 10.7093 111.36 10.7313 111.14 10.746C110.934 10.746 110.802 10.746 110.744 10.746C110.421 10.746 110.172 10.6947 109.996 10.592C109.82 10.4893 109.732 10.306 109.732 10.042C109.732 9.954 109.739 9.88067 109.754 9.822C109.768 9.74867 109.827 9.712 109.93 9.712C109.974 9.712 110.047 9.72667 110.15 9.756C110.252 9.77067 110.333 9.778 110.392 9.778C110.45 9.778 110.634 9.77067 110.942 9.756C111.264 9.72667 111.602 9.68267 111.954 9.624C112.32 9.56533 112.643 9.48467 112.922 9.382C113.215 9.26467 113.362 9.118 113.362 8.942C113.362 8.91267 113.208 8.82467 112.9 8.678C112.606 8.51667 112.159 8.25267 111.558 7.886C111.088 7.59267 110.758 7.29933 110.568 7.006C110.377 6.698 110.282 6.28733 110.282 5.774C110.282 5.45133 110.348 5.18733 110.48 4.982C110.626 4.77667 110.817 4.61533 111.052 4.498C111.301 4.38067 111.58 4.3 111.888 4.256C112.21 4.19733 112.548 4.168 112.9 4.168C112.929 4.168 113.017 4.18267 113.164 4.212C113.325 4.24133 113.494 4.29267 113.67 4.366C113.846 4.42467 114 4.50533 114.132 4.608C114.278 4.696 114.352 4.79867 114.352 4.916C114.352 4.94533 114.322 4.98933 114.264 5.048C114.22 5.10667 114.139 5.21667 114.022 5.378C113.978 5.36333 113.897 5.34133 113.78 5.312C113.677 5.28267 113.552 5.25333 113.406 5.224C113.274 5.18 113.134 5.15067 112.988 5.136C112.841 5.10667 112.724 5.092 112.636 5.092C112.254 5.092 111.946 5.16533 111.712 5.312C111.477 5.444 111.36 5.708 111.36 6.104C111.36 6.29467 111.433 6.47067 111.58 6.632C111.741 6.79333 111.939 6.94733 112.174 7.094C112.408 7.226 112.658 7.36533 112.922 7.512C113.2 7.644 113.457 7.79067 113.692 7.952C113.926 8.11333 114.117 8.28933 114.264 8.48C114.425 8.656 114.506 8.86133 114.506 9.096Z" fill="#57517D"/>
</svg>
