<svg width="227" height="38" viewBox="0 0 227 38" fill="none" xmlns="http://www.w3.org/2000/svg">
<path d="M10.4096 15.72C10.4096 15.86 10.3496 15.97 10.2296 16.05C10.0496 16.17 9.73957 16.34 9.29957 16.56C8.85957 16.78 8.36957 17.01 7.82957 17.25C7.30957 17.49 6.75957 17.74 6.17957 18C5.59957 18.26 5.06957 18.49 4.58957 18.69C4.10957 18.89 3.69957 19.05 3.35957 19.17C3.03957 19.31 2.86957 19.38 2.84957 19.38C2.68957 19.38 2.50957 19.2 2.30957 18.84C2.12957 18.48 1.94957 18 1.76957 17.4C1.58957 16.78 1.41957 16.07 1.25957 15.27C1.09957 14.45 0.94957 13.59 0.80957 12.69C0.68957 11.79 0.58957 10.88 0.50957 9.96C0.44957 9.02 0.41957 8.12 0.41957 7.26C0.41957 5.98 0.47957 4.98 0.59957 4.26C0.73957 3.54 0.88957 3 1.04957 2.64C1.22957 2.28 1.38957 2.06 1.52957 1.98C1.66957 1.88 1.74957 1.83 1.76957 1.83C1.92957 1.83 2.05957 1.9 2.15957 2.04C2.25957 2.18 2.30957 2.32 2.30957 2.46C2.30957 2.54 2.26957 2.68 2.18957 2.88C2.10957 3.08 2.01957 3.36 1.91957 3.72C1.83957 4.08 1.75957 4.54 1.67957 5.1C1.61957 5.66 1.58957 6.34 1.58957 7.14C1.58957 7.86 1.61957 8.61 1.67957 9.39C1.75957 10.17 1.85957 10.94 1.97957 11.7C2.09957 12.46 2.22957 13.18 2.36957 13.86C2.52957 14.54 2.68957 15.14 2.84957 15.66C3.00957 16.18 3.15957 16.6 3.29957 16.92C3.43957 17.22 3.56957 17.37 3.68957 17.37C3.70957 17.37 3.83957 17.32 4.07957 17.22C4.31957 17.12 4.61957 17 4.97957 16.86C5.33957 16.7 5.72957 16.55 6.14957 16.41C6.58957 16.25 7.02957 16.11 7.46957 15.99C7.66957 15.93 7.89957 15.87 8.15957 15.81C8.43957 15.73 8.69957 15.66 8.93957 15.6C9.17957 15.54 9.38957 15.49 9.56957 15.45C9.76957 15.41 9.88957 15.39 9.92957 15.39C10.2496 15.39 10.4096 15.5 10.4096 15.72ZM20.3632 14.85C20.3832 14.89 20.3932 14.95 20.3932 15.03C20.3932 15.15 20.3032 15.33 20.1232 15.57C20.0632 15.65 19.9332 15.78 19.7332 15.96C19.5332 16.14 19.2632 16.32 18.9232 16.5C18.5832 16.68 18.1632 16.84 17.6632 16.98C17.1832 17.12 16.6132 17.19 15.9532 17.19C15.4932 17.19 15.0432 17.09 14.6032 16.89C14.1632 16.67 13.7732 16.36 13.4332 15.96C13.0932 15.54 12.8132 15.03 12.5932 14.43C12.3732 13.81 12.2632 13.09 12.2632 12.27C12.2632 11.49 12.3632 10.76 12.5632 10.08C12.7632 9.4 13.0132 8.8 13.3132 8.28C13.6332 7.76 13.9832 7.35 14.3632 7.05C14.7432 6.75 15.1132 6.6 15.4732 6.6C15.7932 6.6 16.1132 6.67 16.4332 6.81C16.7732 6.93 17.0732 7.09 17.3332 7.29C17.6132 7.49 17.8332 7.72 17.9932 7.98C18.1532 8.22 18.2332 8.47 18.2332 8.73C18.2332 9.03 18.0932 9.34 17.8132 9.66C17.5532 9.98 17.2332 10.28 16.8532 10.56C16.4732 10.82 16.0932 11.04 15.7132 11.22C15.3332 11.38 15.0332 11.46 14.8132 11.46C14.6932 11.46 14.5832 11.41 14.4832 11.31C14.4032 11.19 14.3632 11.05 14.3632 10.89C14.3632 10.61 14.4832 10.39 14.7232 10.23C14.9832 10.07 15.2632 9.93 15.5632 9.81C15.8632 9.67 16.1332 9.51 16.3732 9.33C16.6332 9.15 16.7632 8.9 16.7632 8.58C16.7632 8.54 16.7132 8.44 16.6132 8.28C16.5132 8.12 16.2432 8.04 15.8032 8.04C15.6032 8.04 15.3732 8.16 15.1132 8.4C14.8532 8.62 14.6032 8.93 14.3632 9.33C14.1232 9.71 13.9232 10.17 13.7632 10.71C13.6032 11.23 13.5232 11.8 13.5232 12.42C13.5232 12.94 13.6132 13.41 13.7932 13.83C13.9932 14.25 14.2432 14.61 14.5432 14.91C14.8432 15.19 15.1932 15.41 15.5932 15.57C15.9932 15.73 16.4032 15.81 16.8232 15.81C17.1232 15.81 17.4432 15.75 17.7832 15.63C18.1432 15.49 18.4732 15.35 18.7732 15.21C19.0932 15.05 19.3632 14.91 19.5832 14.79C19.8232 14.65 19.9732 14.58 20.0332 14.58C20.0932 14.58 20.1532 14.61 20.2132 14.67C20.2932 14.73 20.3432 14.79 20.3632 14.85ZM44.5341 9.33C44.5341 9.85 44.3841 10.35 44.0841 10.83C43.8041 11.31 43.4541 11.76 43.0341 12.18C42.6141 12.58 42.1541 12.96 41.6541 13.32C41.1541 13.66 40.6941 13.96 40.2741 14.22C39.8741 14.5 39.5441 14.73 39.2841 14.91C39.0241 15.09 38.8941 15.23 38.8941 15.33C38.8941 15.59 38.9241 15.96 38.9841 16.44C39.0441 16.9 39.1141 17.41 39.1941 17.97C39.2941 18.51 39.3841 19.07 39.4641 19.65C39.5641 20.23 39.6341 20.76 39.6741 21.24C39.6741 21.26 39.6841 21.35 39.7041 21.51C39.7441 21.67 39.7841 21.85 39.8241 22.05C39.8841 22.25 39.9241 22.43 39.9441 22.59C39.9841 22.77 40.0041 22.88 40.0041 22.92C40.0041 23.06 39.9941 23.21 39.9741 23.37C39.9741 23.55 39.9441 23.71 39.8841 23.85C39.8441 24.01 39.7741 24.14 39.6741 24.24C39.5741 24.34 39.4441 24.39 39.2841 24.39C39.0641 24.39 38.9041 24.29 38.8041 24.09C38.7041 23.91 38.6541 23.73 38.6541 23.55C38.6541 23.51 38.6541 23.47 38.6541 23.43C38.6741 23.39 38.6841 23.34 38.6841 23.28C38.6841 23.06 38.6041 22.47 38.4441 21.51C38.2841 20.55 38.1041 19.4 37.9041 18.06C37.7041 16.74 37.5241 15.32 37.3641 13.8C37.2041 12.26 37.1241 10.81 37.1241 9.45C37.1241 9.35 37.1341 9.24 37.1541 9.12C37.1741 8.98 37.1841 8.86 37.1841 8.76C36.9841 8.78 36.6841 8.87 36.2841 9.03C35.9041 9.19 35.5241 9.39 35.1441 9.63C34.7641 9.85 34.4241 10.09 34.1241 10.35C33.8441 10.59 33.7041 10.81 33.7041 11.01H33.4941C33.4341 11.01 33.3641 10.97 33.2841 10.89C33.1841 10.81 33.1041 10.72 33.0441 10.62C32.9641 10.52 32.8941 10.42 32.8341 10.32C32.7741 10.22 32.7441 10.15 32.7441 10.11C32.7441 9.69 32.9941 9.3 33.4941 8.94C33.9941 8.56 34.6141 8.23 35.3541 7.95C36.1141 7.65 36.9441 7.42 37.8441 7.26C38.7441 7.08 39.5941 6.99 40.3941 6.99C41.1741 6.99 41.8241 7.08 42.3441 7.26C42.8841 7.44 43.3141 7.66 43.6341 7.92C43.9541 8.16 44.1841 8.41 44.3241 8.67C44.4641 8.93 44.5341 9.15 44.5341 9.33ZM43.0641 9.24C43.0641 9.04 42.8141 8.84 42.3141 8.64C41.8141 8.42 41.2241 8.31 40.5441 8.31C39.9441 8.31 39.5041 8.33 39.2241 8.37C38.9441 8.41 38.7541 8.45 38.6541 8.49C38.6141 8.81 38.5841 9.19 38.5641 9.63C38.5441 10.07 38.5341 10.52 38.5341 10.98C38.5341 11.46 38.5441 11.93 38.5641 12.39C38.6041 12.83 38.6441 13.2 38.6841 13.5C38.9641 13.32 39.3441 13.08 39.8241 12.78C40.3241 12.46 40.8141 12.11 41.2941 11.73C41.7741 11.33 42.1841 10.92 42.5241 10.5C42.8841 10.06 43.0641 9.64 43.0641 9.24ZM53.2927 8.85C53.2927 8.99 53.2327 9.11 53.1127 9.21C52.9927 9.29 52.8527 9.36 52.6927 9.42C52.5327 9.48 52.3727 9.53 52.2127 9.57C52.0527 9.59 51.9227 9.6 51.8227 9.6C51.5227 9.6 51.3227 9.58 51.2227 9.54C51.1227 9.5 51.0427 9.48 50.9827 9.48C50.4827 9.48 50.0827 9.52 49.7827 9.6C49.4827 9.68 49.2427 9.81 49.0627 9.99C48.9027 10.17 48.7927 10.4 48.7327 10.68C48.6927 10.94 48.6727 11.26 48.6727 11.64C48.6727 12.28 48.6927 12.79 48.7327 13.17C48.7927 13.55 48.8427 13.86 48.8827 14.1C48.9427 14.34 48.9927 14.53 49.0327 14.67C49.0927 14.79 49.1227 14.91 49.1227 15.03C49.1227 15.19 49.0327 15.36 48.8527 15.54C48.6927 15.72 48.5427 15.81 48.4027 15.81C48.1627 15.81 47.9427 15.6 47.7427 15.18C47.5627 14.74 47.4027 14.23 47.2627 13.65C47.1427 13.05 47.0427 12.46 46.9627 11.88C46.8827 11.3 46.8427 10.86 46.8427 10.56C46.8427 10.22 46.8727 9.9 46.9327 9.6C46.9927 9.28 47.0727 9.01 47.1727 8.79C47.2727 8.55 47.3827 8.36 47.5027 8.22C47.6227 8.08 47.7427 8.01 47.8627 8.01C47.9627 8.01 48.0427 8.05 48.1027 8.13C48.1627 8.19 48.2127 8.27 48.2527 8.37C48.2927 8.45 48.3327 8.53 48.3727 8.61C48.4327 8.67 48.5027 8.7 48.5827 8.7C48.7627 8.7 49.0527 8.61 49.4527 8.43C49.8527 8.25 50.3427 8.16 50.9227 8.16C51.4627 8.16 51.8627 8.18 52.1227 8.22C52.4027 8.24 52.6727 8.3 52.9327 8.4C52.9927 8.42 53.0627 8.47 53.1427 8.55C53.2427 8.61 53.2927 8.71 53.2927 8.85ZM64.0449 14.85C64.0649 14.89 64.0749 14.95 64.0749 15.03C64.0749 15.15 63.9849 15.33 63.8049 15.57C63.7449 15.65 63.6149 15.78 63.4149 15.96C63.2149 16.14 62.9449 16.32 62.6049 16.5C62.2649 16.68 61.8449 16.84 61.3449 16.98C60.8649 17.12 60.2949 17.19 59.6349 17.19C59.1749 17.19 58.7249 17.09 58.2849 16.89C57.8449 16.67 57.4549 16.36 57.1149 15.96C56.7749 15.54 56.4949 15.03 56.2749 14.43C56.0549 13.81 55.9449 13.09 55.9449 12.27C55.9449 11.49 56.0449 10.76 56.2449 10.08C56.4449 9.4 56.6949 8.8 56.9949 8.28C57.3149 7.76 57.6649 7.35 58.0449 7.05C58.4249 6.75 58.7949 6.6 59.1549 6.6C59.4749 6.6 59.7949 6.67 60.1149 6.81C60.4549 6.93 60.7549 7.09 61.0149 7.29C61.2949 7.49 61.5149 7.72 61.6749 7.98C61.8349 8.22 61.9149 8.47 61.9149 8.73C61.9149 9.03 61.7749 9.34 61.4949 9.66C61.2349 9.98 60.9149 10.28 60.5349 10.56C60.1549 10.82 59.7749 11.04 59.3949 11.22C59.0149 11.38 58.7149 11.46 58.4949 11.46C58.3749 11.46 58.2649 11.41 58.1649 11.31C58.0849 11.19 58.0449 11.05 58.0449 10.89C58.0449 10.61 58.1649 10.39 58.4049 10.23C58.6649 10.07 58.9449 9.93 59.2449 9.81C59.5449 9.67 59.8149 9.51 60.0549 9.33C60.3149 9.15 60.4449 8.9 60.4449 8.58C60.4449 8.54 60.3949 8.44 60.2949 8.28C60.1949 8.12 59.9249 8.04 59.4849 8.04C59.2849 8.04 59.0549 8.16 58.7949 8.4C58.5349 8.62 58.2849 8.93 58.0449 9.33C57.8049 9.71 57.6049 10.17 57.4449 10.71C57.2849 11.23 57.2049 11.8 57.2049 12.42C57.2049 12.94 57.2949 13.41 57.4749 13.83C57.6749 14.25 57.9249 14.61 58.2249 14.91C58.5249 15.19 58.8749 15.41 59.2749 15.57C59.6749 15.73 60.0849 15.81 60.5049 15.81C60.8049 15.81 61.1249 15.75 61.4649 15.63C61.8249 15.49 62.1549 15.35 62.4549 15.21C62.7749 15.05 63.0449 14.91 63.2649 14.79C63.5049 14.65 63.6549 14.58 63.7149 14.58C63.7749 14.58 63.8349 14.61 63.8949 14.67C63.9749 14.73 64.0249 14.79 64.0449 14.85ZM79.4839 15.18C79.4839 15.34 79.4339 15.48 79.3339 15.6C79.2339 15.72 79.1139 15.82 78.9739 15.9C78.8339 15.96 78.6839 16.01 78.5239 16.05C78.3839 16.09 78.2639 16.11 78.1639 16.11C77.7439 16.11 77.3839 15.89 77.0839 15.45C76.7839 14.99 76.5339 14.49 76.3339 13.95C76.1339 13.39 75.9839 12.87 75.8839 12.39C75.8039 11.91 75.7639 11.65 75.7639 11.61C75.6439 11.83 75.5139 12.2 75.3739 12.72C75.2539 13.24 75.1039 13.77 74.9239 14.31C74.7439 14.83 74.5139 15.3 74.2339 15.72C73.9739 16.12 73.6339 16.32 73.2139 16.32C73.0139 16.32 72.8239 16.2 72.6439 15.96C72.4639 15.72 72.2939 15.41 72.1339 15.03C71.9739 14.65 71.8139 14.22 71.6539 13.74C71.5139 13.26 71.3639 12.79 71.2039 12.33C71.0639 11.87 70.9239 11.44 70.7839 11.04C70.6439 10.62 70.5039 10.29 70.3639 10.05C70.2439 10.35 70.1339 10.76 70.0339 11.28C69.9539 11.8 69.8839 12.35 69.8239 12.93C69.7639 13.49 69.7139 14.05 69.6739 14.61C69.6339 15.17 69.6139 15.66 69.6139 16.08C69.6139 16.36 69.5339 16.56 69.3739 16.68C69.2339 16.8 69.0839 16.86 68.9239 16.86C68.7039 16.86 68.4839 16.72 68.2639 16.44C68.0439 16.14 67.8239 15.76 67.6039 15.3C67.3839 14.84 67.1739 14.32 66.9739 13.74C66.7939 13.16 66.6239 12.58 66.4639 12C66.3239 11.42 66.2139 10.87 66.1339 10.35C66.0539 9.81 66.0139 9.36 66.0139 9C66.0139 8.74 66.0239 8.5 66.0439 8.28C66.0639 8.1 66.0739 7.93 66.0739 7.77C66.0939 7.61 66.1039 7.52 66.1039 7.5C66.1039 7.44 66.0839 7.4 66.0439 7.38C66.0239 7.36 66.0139 7.31 66.0139 7.23C66.0139 7.17 66.0839 7.08 66.2239 6.96C66.3839 6.82 66.5439 6.75 66.7039 6.75C66.9839 6.75 67.1639 6.81 67.2439 6.93C67.3439 7.05 67.3939 7.19 67.3939 7.35C67.3939 7.41 67.3839 7.5 67.3639 7.62C67.3639 7.74 67.3639 8.01 67.3639 8.43C67.3639 8.71 67.4139 9.13 67.5139 9.69C67.6139 10.25 67.7339 10.82 67.8739 11.4C68.0139 11.98 68.1539 12.52 68.2939 13.02C68.4539 13.5 68.5839 13.8 68.6839 13.92C68.7239 13.84 68.7439 13.75 68.7439 13.65C68.7639 13.53 68.7839 13.44 68.8039 13.38L69.1339 10.92C69.2139 10.3 69.3739 9.65 69.6139 8.97C69.8739 8.27 70.1439 7.73 70.4239 7.35C70.5239 7.19 70.6339 7.11 70.7539 7.11C70.8739 7.11 70.9839 7.2 71.0839 7.38C71.4239 7.94 71.6739 8.5 71.8339 9.06C72.0139 9.6 72.1639 10.14 72.2839 10.68C72.4239 11.2 72.5739 11.73 72.7339 12.27C72.9139 12.79 73.1839 13.32 73.5439 13.86C73.7039 13.6 73.9039 13.18 74.1439 12.6C74.3839 12 74.6239 11.4 74.8639 10.8C75.1239 10.2 75.3639 9.68 75.5839 9.24C75.8039 8.78 75.9739 8.55 76.0939 8.55C76.1539 8.55 76.2539 8.56 76.3939 8.58C76.5339 8.6 76.6339 8.61 76.6939 8.61C76.8739 8.61 77.0239 8.82 77.1439 9.24C77.2639 9.64 77.3639 10.12 77.4439 10.68C77.5439 11.22 77.6339 11.77 77.7139 12.33C77.8139 12.87 77.9239 13.28 78.0439 13.56C78.1239 13.76 78.2439 13.95 78.4039 14.13C78.5639 14.31 78.7239 14.48 78.8839 14.64C79.0839 14.82 79.2839 15 79.4839 15.18ZM83.6663 4.2C83.6663 4.24 83.5963 4.32 83.4563 4.44C83.3163 4.56 83.1463 4.69 82.9463 4.83C82.7663 4.95 82.5763 5.06 82.3763 5.16C82.1763 5.26 82.0163 5.31 81.8963 5.31C81.8163 5.31 81.7063 5.31 81.5663 5.31C81.4463 5.29 81.3163 5.25 81.1763 5.19C81.0563 5.13 80.9463 5.05 80.8463 4.95C80.7463 4.83 80.6963 4.68 80.6963 4.5C80.6963 4.22 80.7963 3.96 80.9963 3.72C81.1963 3.46 81.4563 3.33 81.7763 3.33C81.8363 3.33 81.9663 3.36 82.1663 3.42C82.3863 3.46 82.6063 3.52 82.8263 3.6C83.0463 3.68 83.2363 3.77 83.3963 3.87C83.5763 3.97 83.6663 4.08 83.6663 4.2ZM84.6563 15.42C84.6563 15.56 84.5463 15.68 84.3263 15.78C84.1263 15.88 83.9763 15.93 83.8763 15.93C83.6763 15.93 83.4963 15.8 83.3363 15.54C83.1763 15.28 83.0363 14.98 82.9163 14.64C82.7963 14.3 82.6963 13.98 82.6163 13.68C82.5363 13.36 82.4763 13.14 82.4363 13.02C82.3763 12.82 82.2963 12.58 82.1963 12.3C82.0963 12.02 81.9963 11.75 81.8963 11.49C81.8163 11.23 81.7463 11 81.6863 10.8C81.6263 10.6 81.5963 10.49 81.5963 10.47C81.5963 10.19 81.6463 9.93 81.7463 9.69C81.8663 9.45 82.0063 9.33 82.1663 9.33C82.3463 9.33 82.5363 9.47 82.7363 9.75C82.9363 10.03 83.1263 10.39 83.3063 10.83C83.5063 11.25 83.6863 11.72 83.8463 12.24C84.0063 12.74 84.1463 13.22 84.2663 13.68C84.3863 14.12 84.4763 14.51 84.5363 14.85C84.6163 15.17 84.6563 15.36 84.6563 15.42ZM94.8945 14.85C94.9145 14.89 94.9245 14.95 94.9245 15.03C94.9245 15.15 94.8345 15.33 94.6545 15.57C94.5945 15.65 94.4645 15.78 94.2645 15.96C94.0645 16.14 93.7945 16.32 93.4545 16.5C93.1145 16.68 92.6945 16.84 92.1945 16.98C91.7145 17.12 91.1445 17.19 90.4845 17.19C90.0245 17.19 89.5745 17.09 89.1345 16.89C88.6945 16.67 88.3045 16.36 87.9645 15.96C87.6245 15.54 87.3445 15.03 87.1245 14.43C86.9045 13.81 86.7945 13.09 86.7945 12.27C86.7945 11.49 86.8945 10.76 87.0945 10.08C87.2945 9.4 87.5445 8.8 87.8445 8.28C88.1645 7.76 88.5145 7.35 88.8945 7.05C89.2745 6.75 89.6445 6.6 90.0045 6.6C90.3245 6.6 90.6445 6.67 90.9645 6.81C91.3045 6.93 91.6045 7.09 91.8645 7.29C92.1445 7.49 92.3645 7.72 92.5245 7.98C92.6845 8.22 92.7645 8.47 92.7645 8.73C92.7645 9.03 92.6245 9.34 92.3445 9.66C92.0845 9.98 91.7645 10.28 91.3845 10.56C91.0045 10.82 90.6245 11.04 90.2445 11.22C89.8645 11.38 89.5645 11.46 89.3445 11.46C89.2245 11.46 89.1145 11.41 89.0145 11.31C88.9345 11.19 88.8945 11.05 88.8945 10.89C88.8945 10.61 89.0145 10.39 89.2545 10.23C89.5145 10.07 89.7945 9.93 90.0945 9.81C90.3945 9.67 90.6645 9.51 90.9045 9.33C91.1645 9.15 91.2945 8.9 91.2945 8.58C91.2945 8.54 91.2445 8.44 91.1445 8.28C91.0445 8.12 90.7745 8.04 90.3345 8.04C90.1345 8.04 89.9045 8.16 89.6445 8.4C89.3845 8.62 89.1345 8.93 88.8945 9.33C88.6545 9.71 88.4545 10.17 88.2945 10.71C88.1345 11.23 88.0545 11.8 88.0545 12.42C88.0545 12.94 88.1445 13.41 88.3245 13.83C88.5245 14.25 88.7745 14.61 89.0745 14.91C89.3745 15.19 89.7245 15.41 90.1245 15.57C90.5245 15.73 90.9345 15.81 91.3545 15.81C91.6545 15.81 91.9745 15.75 92.3145 15.63C92.6745 15.49 93.0045 15.35 93.3045 15.21C93.6245 15.05 93.8945 14.91 94.1145 14.79C94.3545 14.65 94.5045 14.58 94.5645 14.58C94.6245 14.58 94.6845 14.61 94.7445 14.67C94.8245 14.73 94.8745 14.79 94.8945 14.85ZM104.093 8.85C104.093 8.99 104.033 9.11 103.913 9.21C103.793 9.29 103.653 9.36 103.493 9.42C103.333 9.48 103.173 9.53 103.013 9.57C102.853 9.59 102.723 9.6 102.623 9.6C102.323 9.6 102.123 9.58 102.023 9.54C101.923 9.5 101.843 9.48 101.783 9.48C101.283 9.48 100.883 9.52 100.583 9.6C100.283 9.68 100.043 9.81 99.8635 9.99C99.7035 10.17 99.5935 10.4 99.5335 10.68C99.4935 10.94 99.4735 11.26 99.4735 11.64C99.4735 12.28 99.4935 12.79 99.5335 13.17C99.5935 13.55 99.6435 13.86 99.6835 14.1C99.7435 14.34 99.7935 14.53 99.8335 14.67C99.8935 14.79 99.9235 14.91 99.9235 15.03C99.9235 15.19 99.8335 15.36 99.6535 15.54C99.4935 15.72 99.3435 15.81 99.2035 15.81C98.9635 15.81 98.7435 15.6 98.5435 15.18C98.3635 14.74 98.2035 14.23 98.0635 13.65C97.9435 13.05 97.8435 12.46 97.7635 11.88C97.6835 11.3 97.6435 10.86 97.6435 10.56C97.6435 10.22 97.6735 9.9 97.7335 9.6C97.7935 9.28 97.8735 9.01 97.9735 8.79C98.0735 8.55 98.1835 8.36 98.3035 8.22C98.4235 8.08 98.5435 8.01 98.6635 8.01C98.7635 8.01 98.8435 8.05 98.9035 8.13C98.9635 8.19 99.0135 8.27 99.0535 8.37C99.0935 8.45 99.1335 8.53 99.1735 8.61C99.2335 8.67 99.3035 8.7 99.3835 8.7C99.5635 8.7 99.8535 8.61 100.253 8.43C100.653 8.25 101.143 8.16 101.723 8.16C102.263 8.16 102.663 8.18 102.923 8.22C103.203 8.24 103.473 8.3 103.733 8.4C103.793 8.42 103.863 8.47 103.943 8.55C104.043 8.61 104.093 8.71 104.093 8.85ZM126.878 4.44C126.618 4.74 126.248 5.04 125.768 5.34C125.288 5.62 124.808 5.88 124.328 6.12C123.848 6.36 123.428 6.57 123.068 6.75C122.708 6.91 122.528 7.02 122.528 7.08C122.528 7.14 122.568 7.32 122.648 7.62C122.728 7.92 122.818 8.28 122.918 8.7C123.038 9.1 123.158 9.52 123.278 9.96C123.398 10.4 123.498 10.79 123.578 11.13C123.618 11.33 123.668 11.59 123.728 11.91C123.788 12.23 123.838 12.55 123.878 12.87C123.938 13.19 123.988 13.48 124.028 13.74C124.068 13.98 124.088 14.11 124.088 14.13C124.088 14.43 124.038 14.74 123.938 15.06C123.838 15.38 123.678 15.54 123.458 15.54C123.338 15.54 123.228 15.49 123.128 15.39C123.028 15.29 122.938 15.18 122.858 15.06C122.778 14.92 122.718 14.79 122.678 14.67C122.638 14.55 122.618 14.46 122.618 14.4C122.618 14.36 122.618 14.3 122.618 14.22C122.638 14.14 122.648 14.05 122.648 13.95C122.648 13.57 122.588 13.02 122.468 12.3C122.428 12.08 122.348 11.74 122.228 11.28C122.108 10.82 121.988 10.35 121.868 9.87C121.728 9.31 121.568 8.7 121.388 8.04C121.308 7.76 121.258 7.62 121.238 7.62C121.098 7.62 120.858 7.71 120.518 7.89C120.198 8.05 119.828 8.26 119.408 8.52C118.988 8.76 118.548 9.03 118.088 9.33C117.628 9.61 117.198 9.88 116.798 10.14C116.398 10.38 116.058 10.59 115.778 10.77C115.478 10.93 115.298 11.01 115.238 11.01C114.978 11.01 114.768 10.92 114.608 10.74C114.448 10.56 114.368 10.36 114.368 10.14C114.368 10.02 114.538 9.85 114.878 9.63C115.198 9.39 115.608 9.13 116.108 8.85C116.588 8.57 117.118 8.28 117.698 7.98C118.258 7.68 118.778 7.41 119.258 7.17C119.758 6.93 120.168 6.73 120.488 6.57C120.828 6.41 120.998 6.33 120.998 6.33C120.818 5.41 120.668 4.59 120.548 3.87C120.448 3.25 120.348 2.68 120.248 2.16C120.168 1.64 120.128 1.36 120.128 1.32C120.128 1.06 120.178 0.869999 120.278 0.749999C120.398 0.609999 120.528 0.539999 120.668 0.539999C120.888 0.539999 121.028 0.689999 121.088 0.989999C121.308 2.07 121.508 3.03 121.688 3.87C121.888 4.71 122.078 5.39 122.258 5.91C122.438 5.87 122.748 5.76 123.188 5.58C123.628 5.38 124.088 5.17 124.568 4.95C125.048 4.73 125.478 4.54 125.858 4.38C126.258 4.2 126.488 4.11 126.548 4.11C126.668 4.11 126.738 4.15 126.758 4.23C126.798 4.31 126.838 4.38 126.878 4.44ZM133.878 11.52C133.878 11.96 133.818 12.38 133.698 12.78C133.578 13.18 133.418 13.53 133.218 13.83C133.018 14.13 132.778 14.37 132.498 14.55C132.238 14.71 131.948 14.79 131.628 14.79C131.068 14.79 130.628 14.63 130.308 14.31C129.988 13.99 129.738 13.62 129.558 13.2C129.398 12.78 129.288 12.36 129.228 11.94C129.188 11.5 129.168 11.17 129.168 10.95C129.168 10.59 129.218 10.19 129.318 9.75C129.438 9.29 129.588 8.87 129.768 8.49C129.968 8.11 130.188 7.79 130.428 7.53C130.668 7.27 130.918 7.14 131.178 7.14C131.238 7.14 131.328 7.16 131.448 7.2C131.588 7.24 131.728 7.3 131.868 7.38C132.008 7.46 132.128 7.56 132.228 7.68C132.348 7.8 132.428 7.94 132.468 8.1C132.688 8.12 132.908 8.2 133.128 8.34C133.348 8.48 133.468 8.59 133.488 8.67C133.648 9.19 133.748 9.71 133.788 10.23C133.848 10.75 133.878 11.18 133.878 11.52ZM132.528 10.98C132.528 10.68 132.498 10.37 132.438 10.05C132.378 9.71 132.258 9.37 132.078 9.03C132.038 9.05 131.988 9.06 131.928 9.06C131.848 9.06 131.778 9.05 131.718 9.03C131.678 9.01 131.638 9 131.598 9C131.358 9 131.168 9.07 131.028 9.21C130.888 9.33 130.778 9.5 130.698 9.72C130.638 9.92 130.598 10.14 130.578 10.38C130.558 10.62 130.548 10.85 130.548 11.07C130.548 11.29 130.558 11.54 130.578 11.82C130.598 12.08 130.638 12.33 130.698 12.57C130.778 12.81 130.878 13.02 130.998 13.2C131.118 13.36 131.278 13.44 131.478 13.44C131.678 13.44 131.848 13.34 131.988 13.14C132.128 12.92 132.238 12.67 132.318 12.39C132.398 12.11 132.448 11.84 132.468 11.58C132.508 11.3 132.528 11.1 132.528 10.98ZM146.786 13.02C146.786 13.2 146.666 13.39 146.426 13.59C146.186 13.79 145.906 13.98 145.586 14.16C145.266 14.32 144.936 14.46 144.596 14.58C144.276 14.7 144.036 14.76 143.876 14.76C143.696 14.76 143.496 14.71 143.276 14.61C143.076 14.51 142.876 14.39 142.676 14.25C142.496 14.11 142.336 13.98 142.196 13.86C142.056 13.74 141.966 13.66 141.926 13.62C141.866 13.68 141.776 13.8 141.656 13.98C141.536 14.16 141.386 14.36 141.206 14.58C141.046 14.78 140.866 14.96 140.666 15.12C140.486 15.28 140.296 15.36 140.096 15.36C139.576 15.36 139.126 15.08 138.746 14.52C138.366 13.96 138.046 13.32 137.786 12.6C137.546 11.88 137.356 11.19 137.216 10.53C137.096 9.85 137.036 9.39 137.036 9.15C137.036 9.01 137.106 8.9 137.246 8.82C137.406 8.72 137.526 8.67 137.606 8.67C137.886 8.67 138.076 8.77 138.176 8.97C138.276 9.15 138.326 9.35 138.326 9.57C138.326 9.75 138.376 10.07 138.476 10.53C138.596 10.99 138.736 11.46 138.896 11.94C139.056 12.42 139.226 12.85 139.406 13.23C139.586 13.59 139.746 13.77 139.886 13.77C140.146 13.77 140.366 13.61 140.546 13.29C140.746 12.95 140.906 12.57 141.026 12.15C141.146 11.71 141.236 11.3 141.296 10.92C141.356 10.52 141.386 10.26 141.386 10.14C141.386 10.12 141.386 10.06 141.386 9.96C141.406 9.84 141.426 9.72 141.446 9.6C141.466 9.48 141.476 9.37 141.476 9.27C141.496 9.17 141.506 9.1 141.506 9.06C141.506 8.92 141.476 8.83 141.416 8.79C141.356 8.73 141.326 8.62 141.326 8.46C141.326 8.34 141.386 8.23 141.506 8.13C141.626 8.01 141.886 7.95 142.286 7.95C142.446 7.95 142.566 8 142.646 8.1C142.746 8.18 142.816 8.28 142.856 8.4C142.896 8.52 142.916 8.64 142.916 8.76C142.936 8.86 142.946 8.93 142.946 8.97C142.946 8.99 142.936 9.13 142.916 9.39C142.896 9.65 142.876 9.94 142.856 10.26C142.856 10.56 142.846 10.85 142.826 11.13C142.806 11.41 142.796 11.58 142.796 11.64C142.796 11.7 142.826 11.82 142.886 12C142.946 12.18 143.016 12.37 143.096 12.57C143.196 12.75 143.306 12.92 143.426 13.08C143.546 13.22 143.676 13.29 143.816 13.29C144.056 13.29 144.276 13.26 144.476 13.2C144.696 13.12 144.896 13.04 145.076 12.96C145.276 12.86 145.456 12.78 145.616 12.72C145.776 12.64 145.926 12.6 146.066 12.6C146.246 12.6 146.406 12.64 146.546 12.72C146.706 12.8 146.786 12.9 146.786 13.02ZM155.07 8.85C155.07 8.99 155.01 9.11 154.89 9.21C154.77 9.29 154.63 9.36 154.47 9.42C154.31 9.48 154.15 9.53 153.99 9.57C153.83 9.59 153.7 9.6 153.6 9.6C153.3 9.6 153.1 9.58 153 9.54C152.9 9.5 152.82 9.48 152.76 9.48C152.26 9.48 151.86 9.52 151.56 9.6C151.26 9.68 151.02 9.81 150.84 9.99C150.68 10.17 150.57 10.4 150.51 10.68C150.47 10.94 150.45 11.26 150.45 11.64C150.45 12.28 150.47 12.79 150.51 13.17C150.57 13.55 150.62 13.86 150.66 14.1C150.72 14.34 150.77 14.53 150.81 14.67C150.87 14.79 150.9 14.91 150.9 15.03C150.9 15.19 150.81 15.36 150.63 15.54C150.47 15.72 150.32 15.81 150.18 15.81C149.94 15.81 149.72 15.6 149.52 15.18C149.34 14.74 149.18 14.23 149.04 13.65C148.92 13.05 148.82 12.46 148.74 11.88C148.66 11.3 148.62 10.86 148.62 10.56C148.62 10.22 148.65 9.9 148.71 9.6C148.77 9.28 148.85 9.01 148.95 8.79C149.05 8.55 149.16 8.36 149.28 8.22C149.4 8.08 149.52 8.01 149.64 8.01C149.74 8.01 149.82 8.05 149.88 8.13C149.94 8.19 149.99 8.27 150.03 8.37C150.07 8.45 150.11 8.53 150.15 8.61C150.21 8.67 150.28 8.7 150.36 8.7C150.54 8.7 150.83 8.61 151.23 8.43C151.63 8.25 152.12 8.16 152.7 8.16C153.24 8.16 153.64 8.18 153.9 8.22C154.18 8.24 154.45 8.3 154.71 8.4C154.77 8.42 154.84 8.47 154.92 8.55C155.02 8.61 155.07 8.71 155.07 8.85ZM178.244 14.85C178.264 14.89 178.274 14.95 178.274 15.03C178.274 15.15 178.184 15.33 178.004 15.57C177.944 15.65 177.814 15.78 177.614 15.96C177.414 16.14 177.144 16.32 176.804 16.5C176.464 16.68 176.044 16.84 175.544 16.98C175.064 17.12 174.494 17.19 173.834 17.19C173.374 17.19 172.924 17.09 172.484 16.89C172.044 16.67 171.654 16.36 171.314 15.96C170.974 15.54 170.694 15.03 170.474 14.43C170.254 13.81 170.144 13.09 170.144 12.27C170.144 11.49 170.244 10.76 170.444 10.08C170.644 9.4 170.894 8.8 171.194 8.28C171.514 7.76 171.864 7.35 172.244 7.05C172.624 6.75 172.994 6.6 173.354 6.6C173.674 6.6 173.994 6.67 174.314 6.81C174.654 6.93 174.954 7.09 175.214 7.29C175.494 7.49 175.714 7.72 175.874 7.98C176.034 8.22 176.114 8.47 176.114 8.73C176.114 9.03 175.974 9.34 175.694 9.66C175.434 9.98 175.114 10.28 174.734 10.56C174.354 10.82 173.974 11.04 173.594 11.22C173.214 11.38 172.914 11.46 172.694 11.46C172.574 11.46 172.464 11.41 172.364 11.31C172.284 11.19 172.244 11.05 172.244 10.89C172.244 10.61 172.364 10.39 172.604 10.23C172.864 10.07 173.144 9.93 173.444 9.81C173.744 9.67 174.014 9.51 174.254 9.33C174.514 9.15 174.644 8.9 174.644 8.58C174.644 8.54 174.594 8.44 174.494 8.28C174.394 8.12 174.124 8.04 173.684 8.04C173.484 8.04 173.254 8.16 172.994 8.4C172.734 8.62 172.484 8.93 172.244 9.33C172.004 9.71 171.804 10.17 171.644 10.71C171.484 11.23 171.404 11.8 171.404 12.42C171.404 12.94 171.494 13.41 171.674 13.83C171.874 14.25 172.124 14.61 172.424 14.91C172.724 15.19 173.074 15.41 173.474 15.57C173.874 15.73 174.284 15.81 174.704 15.81C175.004 15.81 175.324 15.75 175.664 15.63C176.024 15.49 176.354 15.35 176.654 15.21C176.974 15.05 177.244 14.91 177.464 14.79C177.704 14.65 177.854 14.58 177.914 14.58C177.974 14.58 178.034 14.61 178.094 14.67C178.174 14.73 178.224 14.79 178.244 14.85ZM187.113 14.04C187.113 14.38 186.993 14.68 186.753 14.94C186.533 15.18 186.243 15.39 185.883 15.57C185.543 15.73 185.163 15.86 184.743 15.96C184.323 16.06 183.923 16.14 183.543 16.2C183.163 16.24 182.823 16.27 182.523 16.29C182.243 16.29 182.063 16.29 181.983 16.29C181.543 16.29 181.203 16.22 180.963 16.08C180.723 15.94 180.603 15.69 180.603 15.33C180.603 15.21 180.613 15.11 180.633 15.03C180.653 14.93 180.733 14.88 180.873 14.88C180.933 14.88 181.033 14.9 181.173 14.94C181.313 14.96 181.423 14.97 181.503 14.97C181.583 14.97 181.833 14.96 182.253 14.94C182.693 14.9 183.153 14.84 183.633 14.76C184.133 14.68 184.573 14.57 184.953 14.43C185.353 14.27 185.553 14.07 185.553 13.83C185.553 13.79 185.343 13.67 184.923 13.47C184.523 13.25 183.913 12.89 183.093 12.39C182.453 11.99 182.003 11.59 181.743 11.19C181.483 10.77 181.353 10.21 181.353 9.51C181.353 9.07 181.443 8.71 181.623 8.43C181.823 8.15 182.083 7.93 182.403 7.77C182.743 7.61 183.123 7.5 183.543 7.44C183.983 7.36 184.443 7.32 184.923 7.32C184.963 7.32 185.083 7.34 185.283 7.38C185.503 7.42 185.733 7.49 185.973 7.59C186.213 7.67 186.423 7.78 186.603 7.92C186.803 8.04 186.903 8.18 186.903 8.34C186.903 8.38 186.863 8.44 186.783 8.52C186.723 8.6 186.613 8.75 186.453 8.97C186.393 8.95 186.283 8.92 186.123 8.88C185.983 8.84 185.813 8.8 185.613 8.76C185.433 8.7 185.243 8.66 185.043 8.64C184.843 8.6 184.683 8.58 184.563 8.58C184.043 8.58 183.623 8.68 183.303 8.88C182.983 9.06 182.823 9.42 182.823 9.96C182.823 10.22 182.923 10.46 183.123 10.68C183.343 10.9 183.613 11.11 183.933 11.31C184.253 11.49 184.593 11.68 184.953 11.88C185.333 12.06 185.683 12.26 186.003 12.48C186.323 12.7 186.583 12.94 186.783 13.2C187.003 13.44 187.113 13.72 187.113 14.04ZM197.629 4.44C197.369 4.74 196.999 5.04 196.519 5.34C196.039 5.62 195.559 5.88 195.079 6.12C194.599 6.36 194.179 6.57 193.819 6.75C193.459 6.91 193.279 7.02 193.279 7.08C193.279 7.14 193.319 7.32 193.399 7.62C193.479 7.92 193.569 8.28 193.669 8.7C193.789 9.1 193.909 9.52 194.029 9.96C194.149 10.4 194.249 10.79 194.329 11.13C194.369 11.33 194.419 11.59 194.479 11.91C194.539 12.23 194.589 12.55 194.629 12.87C194.689 13.19 194.739 13.48 194.779 13.74C194.819 13.98 194.839 14.11 194.839 14.13C194.839 14.43 194.789 14.74 194.689 15.06C194.589 15.38 194.429 15.54 194.209 15.54C194.089 15.54 193.979 15.49 193.879 15.39C193.779 15.29 193.689 15.18 193.609 15.06C193.529 14.92 193.469 14.79 193.429 14.67C193.389 14.55 193.369 14.46 193.369 14.4C193.369 14.36 193.369 14.3 193.369 14.22C193.389 14.14 193.399 14.05 193.399 13.95C193.399 13.57 193.339 13.02 193.219 12.3C193.179 12.08 193.099 11.74 192.979 11.28C192.859 10.82 192.739 10.35 192.619 9.87C192.479 9.31 192.319 8.7 192.139 8.04C192.059 7.76 192.009 7.62 191.989 7.62C191.849 7.62 191.609 7.71 191.269 7.89C190.949 8.05 190.579 8.26 190.159 8.52C189.739 8.76 189.299 9.03 188.839 9.33C188.379 9.61 187.949 9.88 187.549 10.14C187.149 10.38 186.809 10.59 186.529 10.77C186.229 10.93 186.049 11.01 185.989 11.01C185.729 11.01 185.519 10.92 185.359 10.74C185.199 10.56 185.119 10.36 185.119 10.14C185.119 10.02 185.289 9.85 185.629 9.63C185.949 9.39 186.359 9.13 186.859 8.85C187.339 8.57 187.869 8.28 188.449 7.98C189.009 7.68 189.529 7.41 190.009 7.17C190.509 6.93 190.919 6.73 191.239 6.57C191.579 6.41 191.749 6.33 191.749 6.33C191.569 5.41 191.419 4.59 191.299 3.87C191.199 3.25 191.099 2.68 190.999 2.16C190.919 1.64 190.879 1.36 190.879 1.32C190.879 1.06 190.929 0.869999 191.029 0.749999C191.149 0.609999 191.279 0.539999 191.419 0.539999C191.639 0.539999 191.779 0.689999 191.839 0.989999C192.059 2.07 192.259 3.03 192.439 3.87C192.639 4.71 192.829 5.39 193.009 5.91C193.189 5.87 193.499 5.76 193.939 5.58C194.379 5.38 194.839 5.17 195.319 4.95C195.799 4.73 196.229 4.54 196.609 4.38C197.009 4.2 197.239 4.11 197.299 4.11C197.419 4.11 197.489 4.15 197.509 4.23C197.549 4.31 197.589 4.38 197.629 4.44ZM215.671 17.13C215.671 17.29 215.611 17.41 215.491 17.49C215.371 17.57 215.231 17.61 215.071 17.61C214.891 17.61 214.701 17.44 214.501 17.1C214.321 16.76 214.141 16.33 213.961 15.81C213.781 15.29 213.611 14.73 213.451 14.13C213.291 13.51 213.151 12.94 213.031 12.42C212.911 11.88 212.811 11.43 212.731 11.07C212.671 10.71 212.641 10.51 212.641 10.47C212.641 10.39 212.601 10.18 212.521 9.84C212.461 9.5 212.371 8.97 212.251 8.25C212.151 7.53 212.031 6.6 211.891 5.46C211.771 4.3 211.641 2.87 211.501 1.17C211.501 0.989998 211.531 0.759998 211.591 0.479998C211.651 0.199998 211.791 0.0599985 212.011 0.0599985C212.291 0.0599985 212.501 0.249998 212.641 0.629998C212.801 1.01 212.921 1.48 213.001 2.04C213.101 2.6 213.171 3.19 213.211 3.81C213.251 4.41 213.301 4.94 213.361 5.4C213.441 6.04 213.511 6.62 213.571 7.14C213.651 7.66 213.721 8.18 213.781 8.7C213.861 9.2 213.951 9.73 214.051 10.29C214.171 10.85 214.311 11.47 214.471 12.15L215.671 17.13ZM226.35 14.85C226.37 14.89 226.38 14.95 226.38 15.03C226.38 15.15 226.29 15.33 226.11 15.57C226.05 15.65 225.92 15.78 225.72 15.96C225.52 16.14 225.25 16.32 224.91 16.5C224.57 16.68 224.15 16.84 223.65 16.98C223.17 17.12 222.6 17.19 221.94 17.19C221.48 17.19 221.03 17.09 220.59 16.89C220.15 16.67 219.76 16.36 219.42 15.96C219.08 15.54 218.8 15.03 218.58 14.43C218.36 13.81 218.25 13.09 218.25 12.27C218.25 11.49 218.35 10.76 218.55 10.08C218.75 9.4 219 8.8 219.3 8.28C219.62 7.76 219.97 7.35 220.35 7.05C220.73 6.75 221.1 6.6 221.46 6.6C221.78 6.6 222.1 6.67 222.42 6.81C222.76 6.93 223.06 7.09 223.32 7.29C223.6 7.49 223.82 7.72 223.98 7.98C224.14 8.22 224.22 8.47 224.22 8.73C224.22 9.03 224.08 9.34 223.8 9.66C223.54 9.98 223.22 10.28 222.84 10.56C222.46 10.82 222.08 11.04 221.7 11.22C221.32 11.38 221.02 11.46 220.8 11.46C220.68 11.46 220.57 11.41 220.47 11.31C220.39 11.19 220.35 11.05 220.35 10.89C220.35 10.61 220.47 10.39 220.71 10.23C220.97 10.07 221.25 9.93 221.55 9.81C221.85 9.67 222.12 9.51 222.36 9.33C222.62 9.15 222.75 8.9 222.75 8.58C222.75 8.54 222.7 8.44 222.6 8.28C222.5 8.12 222.23 8.04 221.79 8.04C221.59 8.04 221.36 8.16 221.1 8.4C220.84 8.62 220.59 8.93 220.35 9.33C220.11 9.71 219.91 10.17 219.75 10.71C219.59 11.23 219.51 11.8 219.51 12.42C219.51 12.94 219.6 13.41 219.78 13.83C219.98 14.25 220.23 14.61 220.53 14.91C220.83 15.19 221.18 15.41 221.58 15.57C221.98 15.73 222.39 15.81 222.81 15.81C223.11 15.81 223.43 15.75 223.77 15.63C224.13 15.49 224.46 15.35 224.76 15.21C225.08 15.05 225.35 14.91 225.57 14.79C225.81 14.65 225.96 14.58 226.02 14.58C226.08 14.58 226.14 14.61 226.2 14.67C226.28 14.73 226.33 14.79 226.35 14.85ZM50.9445 36.98C50.9445 37.18 50.8145 37.34 50.5545 37.46C50.3145 37.58 50.1345 37.64 50.0145 37.64C49.9345 37.64 49.8145 37.61 49.6545 37.55C49.5145 37.47 49.4245 37.38 49.3845 37.28C49.1645 36.5 48.9845 35.78 48.8445 35.12C48.7245 34.46 48.6145 33.82 48.5145 33.2C48.4345 32.58 48.3545 31.95 48.2745 31.31C48.2145 30.67 48.1345 29.97 48.0345 29.21C47.8745 29.27 47.6645 29.39 47.4045 29.57C47.1445 29.73 46.8845 29.9 46.6245 30.08C46.3645 30.24 46.1345 30.39 45.9345 30.53C45.7545 30.67 45.6445 30.74 45.6045 30.74C45.5445 30.74 45.4845 30.66 45.4245 30.5C45.3845 30.34 45.3645 30.23 45.3645 30.17C45.3645 30.13 45.3745 30.07 45.3945 29.99C45.4345 29.89 45.4745 29.81 45.5145 29.75C45.5545 29.69 45.7145 29.54 45.9945 29.3C46.2945 29.04 46.6045 28.76 46.9245 28.46C47.2645 28.14 47.5645 27.83 47.8245 27.53C48.0845 27.21 48.2145 26.96 48.2145 26.78C48.2145 26.62 48.2745 26.52 48.3945 26.48C48.5145 26.44 48.5945 26.42 48.6345 26.42C48.7945 26.42 48.9245 26.48 49.0245 26.6C49.1245 26.72 49.2045 26.87 49.2645 27.05C49.3245 27.23 49.3645 27.42 49.3845 27.62C49.4245 27.8 49.4445 27.95 49.4445 28.07C49.4445 29.11 49.4845 29.99 49.5645 30.71C49.6645 31.41 49.7745 32.08 49.8945 32.72C49.9745 33.42 50.0745 34.02 50.1945 34.52C50.3145 35 50.4245 35.41 50.5245 35.75C50.6445 36.07 50.7445 36.33 50.8245 36.53C50.9045 36.73 50.9445 36.88 50.9445 36.98ZM62.5564 30.86C62.5564 31.7 62.4464 32.43 62.2264 33.05C62.0264 33.65 61.7664 34.17 61.4464 34.61C61.1464 35.03 60.7964 35.38 60.3964 35.66C60.0164 35.92 59.6464 36.13 59.2864 36.29C58.9264 36.43 58.5964 36.53 58.2964 36.59C58.0164 36.65 57.8164 36.68 57.6964 36.68C57.2364 36.68 56.7964 36.58 56.3764 36.38C55.9564 36.16 55.5864 35.87 55.2664 35.51C54.9464 35.15 54.6864 34.73 54.4864 34.25C54.3064 33.75 54.2164 33.22 54.2164 32.66C54.2164 32.18 54.2764 31.71 54.3964 31.25C54.5164 30.77 54.6364 30.33 54.7564 29.93C54.8964 29.51 55.0264 29.14 55.1464 28.82C55.2664 28.5 55.3264 28.24 55.3264 28.04C55.3264 28 55.3164 27.95 55.2964 27.89C55.2964 27.83 55.2964 27.77 55.2964 27.71C55.2964 27.59 55.3364 27.5 55.4164 27.44C55.5764 27.32 55.6964 27.23 55.7764 27.17C55.8764 27.11 55.9864 27.08 56.1064 27.08C56.2464 27.08 56.4464 27.12 56.7064 27.2C56.9664 27.26 57.1464 27.29 57.2464 27.29C57.3464 27.29 57.4564 27.29 57.5764 27.29C57.7164 27.29 57.8564 27.28 57.9964 27.26C58.1564 27.24 58.3164 27.22 58.4764 27.2C58.7364 27.2 59.0964 27.25 59.5564 27.35C60.0164 27.43 60.4664 27.6 60.9064 27.86C61.3664 28.12 61.7564 28.49 62.0764 28.97C62.3964 29.45 62.5564 30.08 62.5564 30.86ZM57.8464 35.27C58.3864 35.27 58.8664 35.16 59.2864 34.94C59.7064 34.7 60.0564 34.38 60.3364 33.98C60.6364 33.58 60.8564 33.12 60.9964 32.6C61.1364 32.06 61.2064 31.5 61.2064 30.92C61.2064 30.48 61.1264 30.1 60.9664 29.78C60.8064 29.46 60.5964 29.2 60.3364 29C60.0964 28.8 59.8164 28.66 59.4964 28.58C59.1764 28.48 58.8664 28.43 58.5664 28.43C58.1664 28.43 57.8164 28.46 57.5164 28.52C57.2164 28.58 56.8964 28.61 56.5564 28.61C56.4964 28.79 56.4164 29.03 56.3164 29.33C56.2164 29.63 56.1164 29.95 56.0164 30.29C55.9164 30.61 55.8264 30.93 55.7464 31.25C55.6864 31.55 55.6564 31.82 55.6564 32.06C55.6564 32.36 55.6764 32.7 55.7164 33.08C55.7764 33.46 55.8864 33.81 56.0464 34.13C56.2064 34.45 56.4264 34.72 56.7064 34.94C57.0064 35.16 57.3864 35.27 57.8464 35.27ZM91.3709 31.76C91.3709 32.12 91.2009 32.57 90.8609 33.11C90.5409 33.63 90.1009 34.14 89.5409 34.64C88.9809 35.14 88.3309 35.57 87.5909 35.93C86.8509 36.27 86.0809 36.44 85.2809 36.44C84.9209 36.44 84.5409 36.38 84.1409 36.26C83.7409 36.14 83.3509 35.97 82.9709 35.75C82.5909 35.51 82.2509 35.23 81.9509 34.91C81.6509 34.57 81.4309 34.19 81.2909 33.77C81.1709 33.89 81.0209 34.09 80.8409 34.37C80.6809 34.65 80.5009 34.94 80.3009 35.24C80.1009 35.52 79.8809 35.77 79.6409 35.99C79.4009 36.19 79.1509 36.29 78.8909 36.29C78.6309 36.29 78.4109 36.16 78.2309 35.9C78.0709 35.62 77.9409 35.32 77.8409 35C77.7409 34.66 77.6709 34.34 77.6309 34.04C77.5909 33.74 77.5709 33.57 77.5709 33.53C77.5709 33.29 77.6409 32.84 77.7809 32.18C77.9209 31.5 78.1309 30.8 78.4109 30.08C78.6909 29.36 79.0409 28.72 79.4609 28.16C79.9009 27.6 80.4109 27.32 80.9909 27.32C81.2109 27.32 81.3509 27.42 81.4109 27.62C81.4909 27.8 81.5309 27.98 81.5309 28.16V29.06C81.6309 29.14 81.7309 29.2 81.8309 29.24C81.9509 29.26 82.0509 29.3 82.1309 29.36C82.2309 29.4 82.3009 29.47 82.3409 29.57C82.4009 29.67 82.4309 29.83 82.4309 30.05C82.4309 30.19 82.4209 30.32 82.4009 30.44C82.3809 30.54 82.3709 30.64 82.3709 30.74C82.3709 31.26 82.4109 31.77 82.4909 32.27C82.5709 32.77 82.7309 33.22 82.9709 33.62C83.2109 34 83.5409 34.32 83.9609 34.58C84.3809 34.82 84.9409 34.94 85.6409 34.94C86.5209 34.94 87.2609 34.76 87.8609 34.4C88.4809 34.02 88.9909 33.61 89.3909 33.17C89.8109 32.71 90.1409 32.3 90.3809 31.94C90.6209 31.56 90.8209 31.37 90.9809 31.37C91.2409 31.37 91.3709 31.5 91.3709 31.76ZM80.8409 30.44C80.8409 30.36 80.8209 30.29 80.7809 30.23C80.7409 30.15 80.7209 30.08 80.7209 30.02C80.7209 29.94 80.7409 29.87 80.7809 29.81C80.8209 29.75 80.8409 29.67 80.8409 29.57C80.8409 29.51 80.8209 29.47 80.7809 29.45C80.7409 29.41 80.7209 29.37 80.7209 29.33C80.5409 29.37 80.3509 29.54 80.1509 29.84C79.9709 30.14 79.7909 30.49 79.6109 30.89C79.4509 31.29 79.3209 31.7 79.2209 32.12C79.1209 32.52 79.0709 32.85 79.0709 33.11C79.0709 33.25 79.1109 33.48 79.1909 33.8C79.2709 34.12 79.3609 34.33 79.4609 34.43C79.8009 33.73 80.1109 33.05 80.3909 32.39C80.6909 31.73 80.8409 31.08 80.8409 30.44ZM97.56 27.44C97.56 27.5 97.51 27.76 97.41 28.22C97.31 28.68 97.21 29.2 97.11 29.78C97.05 30.12 96.95 30.63 96.81 31.31C96.69 31.97 96.63 32.98 96.63 34.34C96.63 34.38 96.62 34.49 96.6 34.67C96.6 34.83 96.57 35 96.51 35.18C96.47 35.36 96.4 35.53 96.3 35.69C96.2 35.83 96.05 35.9 95.85 35.9C95.67 35.9 95.47 35.82 95.25 35.66C94.75 35.3 94.29 34.88 93.87 34.4C93.45 33.92 93.09 33.4 92.79 32.84C92.49 32.26 92.26 31.66 92.1 31.04C91.94 30.42 91.86 29.79 91.86 29.15C91.86 29.07 91.91 29 92.01 28.94C92.13 28.86 92.22 28.82 92.28 28.82C92.58 28.82 92.81 28.99 92.97 29.33C93.15 29.67 93.32 30.08 93.48 30.56C93.66 31.04 93.86 31.55 94.08 32.09C94.32 32.61 94.67 33.06 95.13 33.44C95.19 33.36 95.24 33.21 95.28 32.99C95.32 32.77 95.35 32.58 95.37 32.42C95.39 32.28 95.42 32.01 95.46 31.61C95.5 31.19 95.54 30.75 95.58 30.29C95.64 29.83 95.68 29.39 95.7 28.97C95.74 28.55 95.76 28.26 95.76 28.1C95.76 27.98 95.77 27.84 95.79 27.68C95.81 27.52 95.85 27.37 95.91 27.23C95.99 27.09 96.09 26.97 96.21 26.87C96.33 26.77 96.49 26.72 96.69 26.72C96.79 26.72 96.96 26.79 97.2 26.93C97.44 27.05 97.56 27.22 97.56 27.44ZM107.287 28.85C107.287 28.99 107.227 29.11 107.107 29.21C106.987 29.29 106.847 29.36 106.687 29.42C106.527 29.48 106.367 29.53 106.207 29.57C106.047 29.59 105.917 29.6 105.817 29.6C105.517 29.6 105.317 29.58 105.217 29.54C105.117 29.5 105.037 29.48 104.977 29.48C104.477 29.48 104.077 29.52 103.777 29.6C103.477 29.68 103.237 29.81 103.057 29.99C102.897 30.17 102.787 30.4 102.727 30.68C102.687 30.94 102.667 31.26 102.667 31.64C102.667 32.28 102.687 32.79 102.727 33.17C102.787 33.55 102.837 33.86 102.877 34.1C102.937 34.34 102.987 34.53 103.027 34.67C103.087 34.79 103.117 34.91 103.117 35.03C103.117 35.19 103.027 35.36 102.847 35.54C102.687 35.72 102.537 35.81 102.397 35.81C102.157 35.81 101.937 35.6 101.737 35.18C101.557 34.74 101.397 34.23 101.257 33.65C101.137 33.05 101.037 32.46 100.957 31.88C100.877 31.3 100.837 30.86 100.837 30.56C100.837 30.22 100.867 29.9 100.927 29.6C100.987 29.28 101.067 29.01 101.167 28.79C101.267 28.55 101.377 28.36 101.497 28.22C101.617 28.08 101.737 28.01 101.857 28.01C101.957 28.01 102.037 28.05 102.097 28.13C102.157 28.19 102.207 28.27 102.247 28.37C102.287 28.45 102.327 28.53 102.367 28.61C102.427 28.67 102.497 28.7 102.577 28.7C102.757 28.7 103.047 28.61 103.447 28.43C103.847 28.25 104.337 28.16 104.917 28.16C105.457 28.16 105.857 28.18 106.117 28.22C106.397 28.24 106.667 28.3 106.927 28.4C106.987 28.42 107.057 28.47 107.137 28.55C107.237 28.61 107.287 28.71 107.287 28.85ZM111.469 24.2C111.469 24.24 111.399 24.32 111.259 24.44C111.119 24.56 110.949 24.69 110.749 24.83C110.569 24.95 110.379 25.06 110.179 25.16C109.979 25.26 109.819 25.31 109.699 25.31C109.619 25.31 109.509 25.31 109.369 25.31C109.249 25.29 109.119 25.25 108.979 25.19C108.859 25.13 108.749 25.05 108.649 24.95C108.549 24.83 108.499 24.68 108.499 24.5C108.499 24.22 108.599 23.96 108.799 23.72C108.999 23.46 109.259 23.33 109.579 23.33C109.639 23.33 109.769 23.36 109.969 23.42C110.189 23.46 110.409 23.52 110.629 23.6C110.849 23.68 111.039 23.77 111.199 23.87C111.379 23.97 111.469 24.08 111.469 24.2ZM112.459 35.42C112.459 35.56 112.349 35.68 112.129 35.78C111.929 35.88 111.779 35.93 111.679 35.93C111.479 35.93 111.299 35.8 111.139 35.54C110.979 35.28 110.839 34.98 110.719 34.64C110.599 34.3 110.499 33.98 110.419 33.68C110.339 33.36 110.279 33.14 110.239 33.02C110.179 32.82 110.099 32.58 109.999 32.3C109.899 32.02 109.799 31.75 109.699 31.49C109.619 31.23 109.549 31 109.489 30.8C109.429 30.6 109.399 30.49 109.399 30.47C109.399 30.19 109.449 29.93 109.549 29.69C109.669 29.45 109.809 29.33 109.969 29.33C110.149 29.33 110.339 29.47 110.539 29.75C110.739 30.03 110.929 30.39 111.109 30.83C111.309 31.25 111.489 31.72 111.649 32.24C111.809 32.74 111.949 33.22 112.069 33.68C112.189 34.12 112.279 34.51 112.339 34.85C112.419 35.17 112.459 35.36 112.459 35.42ZM118.347 37.13C118.347 37.29 118.287 37.41 118.167 37.49C118.047 37.57 117.907 37.61 117.747 37.61C117.567 37.61 117.377 37.44 117.177 37.1C116.997 36.76 116.817 36.33 116.637 35.81C116.457 35.29 116.287 34.73 116.127 34.13C115.967 33.51 115.827 32.94 115.707 32.42C115.587 31.88 115.487 31.43 115.407 31.07C115.347 30.71 115.317 30.51 115.317 30.47C115.317 30.39 115.277 30.18 115.197 29.84C115.137 29.5 115.047 28.97 114.927 28.25C114.827 27.53 114.707 26.6 114.567 25.46C114.447 24.3 114.317 22.87 114.177 21.17C114.177 20.99 114.207 20.76 114.267 20.48C114.327 20.2 114.467 20.06 114.687 20.06C114.967 20.06 115.177 20.25 115.317 20.63C115.477 21.01 115.597 21.48 115.677 22.04C115.777 22.6 115.847 23.19 115.887 23.81C115.927 24.41 115.977 24.94 116.037 25.4C116.117 26.04 116.187 26.62 116.247 27.14C116.327 27.66 116.397 28.18 116.457 28.7C116.537 29.2 116.627 29.73 116.727 30.29C116.847 30.85 116.987 31.47 117.147 32.15L118.347 37.13ZM141.237 35.96C141.237 36.18 141.137 36.35 140.937 36.47C140.757 36.59 140.607 36.65 140.487 36.65C140.307 36.65 140.167 36.62 140.067 36.56C139.987 36.5 139.887 36.43 139.767 36.35C139.667 36.27 139.527 36.2 139.347 36.14C139.187 36.08 138.947 36.05 138.627 36.05C138.227 36.05 137.867 36.15 137.547 36.35C137.247 36.55 136.957 36.77 136.677 37.01C136.417 37.23 136.157 37.44 135.897 37.64C135.637 37.84 135.367 37.94 135.087 37.94C134.747 37.94 134.527 37.82 134.427 37.58C134.327 37.34 134.277 37.03 134.277 36.65C134.277 36.57 134.407 36.28 134.667 35.78C134.927 35.26 135.227 34.69 135.567 34.07C135.927 33.45 136.267 32.86 136.587 32.3C136.907 31.72 137.127 31.32 137.247 31.1C137.367 30.88 137.537 30.57 137.757 30.17C137.977 29.77 138.197 29.37 138.417 28.97C138.657 28.55 138.857 28.19 139.017 27.89C139.177 27.57 139.257 27.38 139.257 27.32C139.257 27.18 139.227 27.09 139.167 27.05C139.107 27.01 139.047 26.99 138.987 26.99C138.847 26.99 138.537 27.07 138.057 27.23C137.597 27.39 137.097 27.56 136.557 27.74C136.037 27.92 135.537 28.09 135.057 28.25C134.597 28.41 134.307 28.49 134.187 28.49C134.167 28.49 134.107 28.44 134.007 28.34C133.967 28.28 133.927 28.22 133.887 28.16C133.867 28.1 133.857 28.04 133.857 27.98C133.857 27.9 134.087 27.73 134.547 27.47C135.027 27.21 135.597 26.95 136.257 26.69C136.917 26.41 137.587 26.17 138.267 25.97C138.967 25.75 139.537 25.64 139.977 25.64C140.237 25.64 140.467 25.72 140.667 25.88C140.867 26.04 140.967 26.26 140.967 26.54C140.967 26.84 140.857 27.25 140.637 27.77C140.417 28.29 140.137 28.86 139.797 29.48C139.457 30.1 139.087 30.74 138.687 31.4C138.307 32.06 137.947 32.67 137.607 33.23C137.267 33.77 136.977 34.24 136.737 34.64C136.497 35.02 136.367 35.26 136.347 35.36C136.487 35.28 136.667 35.21 136.887 35.15C137.107 35.07 137.327 35 137.547 34.94C137.787 34.88 138.007 34.83 138.207 34.79C138.427 34.75 138.597 34.73 138.717 34.73C138.877 34.73 139.097 34.75 139.377 34.79C139.657 34.83 139.937 34.9 140.217 35C140.497 35.08 140.737 35.2 140.937 35.36C141.137 35.52 141.237 35.72 141.237 35.96ZM152.703 30.86C152.703 31.7 152.593 32.43 152.373 33.05C152.173 33.65 151.913 34.17 151.593 34.61C151.293 35.03 150.943 35.38 150.543 35.66C150.163 35.92 149.793 36.13 149.433 36.29C149.073 36.43 148.743 36.53 148.443 36.59C148.163 36.65 147.963 36.68 147.843 36.68C147.383 36.68 146.943 36.58 146.523 36.38C146.103 36.16 145.733 35.87 145.413 35.51C145.093 35.15 144.833 34.73 144.633 34.25C144.453 33.75 144.363 33.22 144.363 32.66C144.363 32.18 144.423 31.71 144.543 31.25C144.663 30.77 144.783 30.33 144.903 29.93C145.043 29.51 145.173 29.14 145.293 28.82C145.413 28.5 145.473 28.24 145.473 28.04C145.473 28 145.463 27.95 145.443 27.89C145.443 27.83 145.443 27.77 145.443 27.71C145.443 27.59 145.483 27.5 145.563 27.44C145.723 27.32 145.843 27.23 145.923 27.17C146.023 27.11 146.133 27.08 146.253 27.08C146.393 27.08 146.593 27.12 146.853 27.2C147.113 27.26 147.293 27.29 147.393 27.29C147.493 27.29 147.603 27.29 147.723 27.29C147.863 27.29 148.003 27.28 148.143 27.26C148.303 27.24 148.463 27.22 148.623 27.2C148.883 27.2 149.243 27.25 149.703 27.35C150.163 27.43 150.613 27.6 151.053 27.86C151.513 28.12 151.903 28.49 152.223 28.97C152.543 29.45 152.703 30.08 152.703 30.86ZM147.993 35.27C148.533 35.27 149.013 35.16 149.433 34.94C149.853 34.7 150.203 34.38 150.483 33.98C150.783 33.58 151.003 33.12 151.143 32.6C151.283 32.06 151.353 31.5 151.353 30.92C151.353 30.48 151.273 30.1 151.113 29.78C150.953 29.46 150.743 29.2 150.483 29C150.243 28.8 149.963 28.66 149.643 28.58C149.323 28.48 149.013 28.43 148.713 28.43C148.313 28.43 147.963 28.46 147.663 28.52C147.363 28.58 147.043 28.61 146.703 28.61C146.643 28.79 146.563 29.03 146.463 29.33C146.363 29.63 146.263 29.95 146.163 30.29C146.063 30.61 145.973 30.93 145.893 31.25C145.833 31.55 145.803 31.82 145.803 32.06C145.803 32.36 145.823 32.7 145.863 33.08C145.923 33.46 146.033 33.81 146.193 34.13C146.353 34.45 146.573 34.72 146.853 34.94C147.153 35.16 147.533 35.27 147.993 35.27ZM162.976 35.96C162.976 36.18 162.876 36.35 162.676 36.47C162.496 36.59 162.346 36.65 162.226 36.65C162.046 36.65 161.906 36.62 161.806 36.56C161.726 36.5 161.626 36.43 161.506 36.35C161.406 36.27 161.266 36.2 161.086 36.14C160.926 36.08 160.686 36.05 160.366 36.05C159.966 36.05 159.606 36.15 159.286 36.35C158.986 36.55 158.696 36.77 158.416 37.01C158.156 37.23 157.896 37.44 157.636 37.64C157.376 37.84 157.106 37.94 156.826 37.94C156.486 37.94 156.266 37.82 156.166 37.58C156.066 37.34 156.016 37.03 156.016 36.65C156.016 36.57 156.146 36.28 156.406 35.78C156.666 35.26 156.966 34.69 157.306 34.07C157.666 33.45 158.006 32.86 158.326 32.3C158.646 31.72 158.866 31.32 158.986 31.1C159.106 30.88 159.276 30.57 159.496 30.17C159.716 29.77 159.936 29.37 160.156 28.97C160.396 28.55 160.596 28.19 160.756 27.89C160.916 27.57 160.996 27.38 160.996 27.32C160.996 27.18 160.966 27.09 160.906 27.05C160.846 27.01 160.786 26.99 160.726 26.99C160.586 26.99 160.276 27.07 159.796 27.23C159.336 27.39 158.836 27.56 158.296 27.74C157.776 27.92 157.276 28.09 156.796 28.25C156.336 28.41 156.046 28.49 155.926 28.49C155.906 28.49 155.846 28.44 155.746 28.34C155.706 28.28 155.666 28.22 155.626 28.16C155.606 28.1 155.596 28.04 155.596 27.98C155.596 27.9 155.826 27.73 156.286 27.47C156.766 27.21 157.336 26.95 157.996 26.69C158.656 26.41 159.326 26.17 160.006 25.97C160.706 25.75 161.276 25.64 161.716 25.64C161.976 25.64 162.206 25.72 162.406 25.88C162.606 26.04 162.706 26.26 162.706 26.54C162.706 26.84 162.596 27.25 162.376 27.77C162.156 28.29 161.876 28.86 161.536 29.48C161.196 30.1 160.826 30.74 160.426 31.4C160.046 32.06 159.686 32.67 159.346 33.23C159.006 33.77 158.716 34.24 158.476 34.64C158.236 35.02 158.106 35.26 158.086 35.36C158.226 35.28 158.406 35.21 158.626 35.15C158.846 35.07 159.066 35 159.286 34.94C159.526 34.88 159.746 34.83 159.946 34.79C160.166 34.75 160.336 34.73 160.456 34.73C160.616 34.73 160.836 34.75 161.116 34.79C161.396 34.83 161.676 34.9 161.956 35C162.236 35.08 162.476 35.2 162.676 35.36C162.876 35.52 162.976 35.72 162.976 35.96ZM173.991 35.96C173.991 36.18 173.891 36.35 173.691 36.47C173.511 36.59 173.361 36.65 173.241 36.65C173.061 36.65 172.921 36.62 172.821 36.56C172.741 36.5 172.641 36.43 172.521 36.35C172.421 36.27 172.281 36.2 172.101 36.14C171.941 36.08 171.701 36.05 171.381 36.05C170.981 36.05 170.621 36.15 170.301 36.35C170.001 36.55 169.711 36.77 169.431 37.01C169.171 37.23 168.911 37.44 168.651 37.64C168.391 37.84 168.121 37.94 167.841 37.94C167.501 37.94 167.281 37.82 167.181 37.58C167.081 37.34 167.031 37.03 167.031 36.65C167.031 36.57 167.161 36.28 167.421 35.78C167.681 35.26 167.981 34.69 168.321 34.07C168.681 33.45 169.021 32.86 169.341 32.3C169.661 31.72 169.881 31.32 170.001 31.1C170.121 30.88 170.291 30.57 170.511 30.17C170.731 29.77 170.951 29.37 171.171 28.97C171.411 28.55 171.611 28.19 171.771 27.89C171.931 27.57 172.011 27.38 172.011 27.32C172.011 27.18 171.981 27.09 171.921 27.05C171.861 27.01 171.801 26.99 171.741 26.99C171.601 26.99 171.291 27.07 170.811 27.23C170.351 27.39 169.851 27.56 169.311 27.74C168.791 27.92 168.291 28.09 167.811 28.25C167.351 28.41 167.061 28.49 166.941 28.49C166.921 28.49 166.861 28.44 166.761 28.34C166.721 28.28 166.681 28.22 166.641 28.16C166.621 28.1 166.611 28.04 166.611 27.98C166.611 27.9 166.841 27.73 167.301 27.47C167.781 27.21 168.351 26.95 169.011 26.69C169.671 26.41 170.341 26.17 171.021 25.97C171.721 25.75 172.291 25.64 172.731 25.64C172.991 25.64 173.221 25.72 173.421 25.88C173.621 26.04 173.721 26.26 173.721 26.54C173.721 26.84 173.611 27.25 173.391 27.77C173.171 28.29 172.891 28.86 172.551 29.48C172.211 30.1 171.841 30.74 171.441 31.4C171.061 32.06 170.701 32.67 170.361 33.23C170.021 33.77 169.731 34.24 169.491 34.64C169.251 35.02 169.121 35.26 169.101 35.36C169.241 35.28 169.421 35.21 169.641 35.15C169.861 35.07 170.081 35 170.301 34.94C170.541 34.88 170.761 34.83 170.961 34.79C171.181 34.75 171.351 34.73 171.471 34.73C171.631 34.73 171.851 34.75 172.131 34.79C172.411 34.83 172.691 34.9 172.971 35C173.251 35.08 173.491 35.2 173.691 35.36C173.891 35.52 173.991 35.72 173.991 35.96ZM192.599 23.51C192.599 23.69 192.509 24.08 192.329 24.68C192.149 25.28 191.949 25.95 191.729 26.69C191.529 27.41 191.339 28.12 191.159 28.82C190.999 29.52 190.919 30.07 190.919 30.47C190.919 30.89 190.939 31.24 190.979 31.52C191.019 31.78 191.059 32 191.099 32.18C191.159 32.36 191.209 32.52 191.249 32.66C191.289 32.78 191.309 32.93 191.309 33.11C191.309 33.51 191.129 33.71 190.769 33.71C190.709 33.71 190.649 33.67 190.589 33.59C190.149 32.95 189.879 32.32 189.779 31.7C189.699 31.08 189.659 30.6 189.659 30.26C189.659 29.84 189.719 29.3 189.839 28.64C189.959 27.96 190.109 27.25 190.289 26.51C190.469 25.75 190.669 25 190.889 24.26C191.129 23.5 191.359 22.84 191.579 22.28C191.619 22.24 191.669 22.2 191.729 22.16C191.789 22.12 191.869 22.1 191.969 22.1C192.109 22.1 192.219 22.16 192.299 22.28C192.379 22.38 192.439 22.51 192.479 22.67C192.519 22.81 192.549 22.96 192.569 23.12C192.589 23.28 192.599 23.41 192.599 23.51ZM193.589 36.98C193.589 37.2 193.519 37.43 193.379 37.67C193.259 37.89 193.099 38 192.899 38C192.639 38 192.389 37.87 192.149 37.61C191.929 37.35 191.819 37.05 191.819 36.71C191.819 36.59 191.839 36.44 191.879 36.26C191.939 36.06 192.069 35.96 192.269 35.96C192.349 35.96 192.459 35.97 192.599 35.99C192.739 36.01 192.879 36.06 193.019 36.14C193.179 36.2 193.309 36.3 193.409 36.44C193.529 36.58 193.589 36.76 193.589 36.98Z" fill="#57517D"/>
</svg>
