<svg width="14" height="10" viewBox="0 0 14 10" fill="none" xmlns="http://www.w3.org/2000/svg">
<path d="M7.19568 4.22641L7.19568 4.72641L7.19568 4.22641ZM0.196137 3.87287C0.000875151 4.06813 0.000875029 4.38471 0.196137 4.57997L3.37812 7.76195C3.57338 7.95721 3.88997 7.95721 4.08523 7.76195C4.28049 7.56669 4.28049 7.25011 4.08523 7.05484L1.2568 4.22642L4.08522 1.39799C4.28048 1.20273 4.28048 0.886144 4.08522 0.690882C3.88996 0.49562 3.57338 0.49562 3.37811 0.690883L0.196137 3.87287ZM7.19568 3.72641L0.54969 3.72642L0.549691 4.72642L7.19568 4.72641L7.19568 3.72641ZM13.4693 10C13.4693 6.53519 10.6605 3.72641 7.19568 3.72641L7.19568 4.72641C10.1082 4.72641 12.4693 7.08748 12.4693 10L13.4693 10Z" fill="#57517D"/>
</svg>
