<svg xmlns="http://www.w3.org/2000/svg" viewBox="0 0 720 1280"><defs><style>.cls-1{fill:#899853;}.cls-2{fill:#6b7741;}.cls-3{fill:#2e3845;}.cls-4{fill:#3d505c;}.cls-5{fill:#f5f5f5;}.cls-6{fill:#141414;}.cls-7{fill:#f2f2f2;}.cls-8{fill:#c8c8c8;}.cls-9{fill:#f8752a;}</style></defs><title>arrivee_1Plan de travail 1 copie 16</title><g id="décors"><rect class="cls-1" width="720" height="1280"/><path class="cls-2" d="M2.17,512.39H63l-21.68-45.1H2.17c-.73,0-1.46,0-2.17.11v44.88C.71,512.35,1.44,512.39,2.17,512.39Z"/><path class="cls-2" d="M15.66,577.65H76.5l-21.68-45.1H15.66A22.5,22.5,0,0,0,0,538.88v32.44A22.5,22.5,0,0,0,15.66,577.65Z"/><path class="cls-2" d="M8.71,645.9H69.55L47.87,600.8H8.71A22.35,22.35,0,0,0,0,602.55v41.6A22.35,22.35,0,0,0,8.71,645.9Z"/><path class="cls-2" d="M8.71,713.4H69.55L47.87,668.3H8.71A22.35,22.35,0,0,0,0,670.05v41.6A22.35,22.35,0,0,0,8.71,713.4Z"/><path class="cls-2" d="M8.71,780.9H69.55L47.87,735.8H8.71A22.35,22.35,0,0,0,0,737.55v41.6A22.35,22.35,0,0,0,8.71,780.9Z"/><path class="cls-2" d="M8.71,848.4H69.55L47.87,803.3H8.71A22.35,22.35,0,0,0,0,805.05v41.6A22.35,22.35,0,0,0,8.71,848.4Z"/><g id="pneu"><path class="cls-3" d="M63,452.26a30.07,30.07,0,1,0,30.06,30.06A30.06,30.06,0,0,0,63,452.26Zm0,45.09a15,15,0,1,1,15-15A15,15,0,0,1,63,497.35Z"/><rect class="cls-3" x="32.94" y="467.29" width="13.87" height="15.03"/><rect class="cls-3" x="79.19" y="467.29" width="13.87" height="15.03"/><path class="cls-4" d="M63,437.22a30.07,30.07,0,1,0,30.06,30.07A30.07,30.07,0,0,0,63,437.22Zm0,45.1a15,15,0,1,1,15-15A15,15,0,0,1,63,482.32Z"/></g><g id="pneu-2" data-name="pneu"><path class="cls-3" d="M76.5,517.52a30.07,30.07,0,1,0,30.07,30.06A30.06,30.06,0,0,0,76.5,517.52Zm0,45.1a15,15,0,1,1,15-15A15,15,0,0,1,76.5,562.62Z"/><rect class="cls-3" x="46.44" y="532.55" width="13.87" height="15.03"/><rect class="cls-3" x="92.68" y="532.55" width="13.87" height="15.03"/><path class="cls-4" d="M76.5,502.49a30.07,30.07,0,1,0,30.07,30.06A30.06,30.06,0,0,0,76.5,502.49Zm0,45.09a15,15,0,1,1,15-15A15,15,0,0,1,76.5,547.58Z"/></g><g id="pneu-3" data-name="pneu"><path class="cls-3" d="M69.55,585.77a30.07,30.07,0,1,0,30.07,30.06A30.06,30.06,0,0,0,69.55,585.77Zm0,45.1a15,15,0,1,1,15-15A15,15,0,0,1,69.55,630.87Z"/><rect class="cls-3" x="39.49" y="600.8" width="13.87" height="15.03"/><rect class="cls-3" x="85.73" y="600.8" width="13.87" height="15.03"/><path class="cls-4" d="M69.55,570.74A30.07,30.07,0,1,0,99.62,600.8,30.06,30.06,0,0,0,69.55,570.74Zm0,45.09a15,15,0,1,1,15-15A15,15,0,0,1,69.55,615.83Z"/></g><g id="pneu-4" data-name="pneu"><path class="cls-3" d="M69.55,653.27a30.07,30.07,0,1,0,30.07,30.06A30.06,30.06,0,0,0,69.55,653.27Zm0,45.1a15,15,0,1,1,15-15A15,15,0,0,1,69.55,698.37Z"/><rect class="cls-3" x="39.49" y="668.3" width="13.87" height="15.03"/><rect class="cls-3" x="85.73" y="668.3" width="13.87" height="15.03"/><path class="cls-4" d="M69.55,638.24A30.07,30.07,0,1,0,99.62,668.3,30.06,30.06,0,0,0,69.55,638.24Zm0,45.09a15,15,0,1,1,15-15A15,15,0,0,1,69.55,683.33Z"/></g><g id="pneu-5" data-name="pneu"><path class="cls-3" d="M69.55,720.77a30.07,30.07,0,1,0,30.07,30.06A30.06,30.06,0,0,0,69.55,720.77Zm0,45.1a15,15,0,1,1,15-15A15,15,0,0,1,69.55,765.87Z"/><rect class="cls-3" x="39.49" y="735.8" width="13.87" height="15.03"/><rect class="cls-3" x="85.73" y="735.8" width="13.87" height="15.03"/><path class="cls-4" d="M69.55,705.74A30.07,30.07,0,1,0,99.62,735.8,30.06,30.06,0,0,0,69.55,705.74Zm0,45.09a15,15,0,1,1,15-15A15,15,0,0,1,69.55,750.83Z"/></g><g id="pneu-6" data-name="pneu"><path class="cls-3" d="M69.55,788.27a30.07,30.07,0,1,0,30.07,30.06A30.06,30.06,0,0,0,69.55,788.27Zm0,45.1a15,15,0,1,1,15-15A15,15,0,0,1,69.55,833.37Z"/><rect class="cls-3" x="39.49" y="803.3" width="13.87" height="15.03"/><rect class="cls-3" x="85.73" y="803.3" width="13.87" height="15.03"/><path class="cls-4" d="M69.55,773.24A30.07,30.07,0,1,0,99.62,803.3,30.06,30.06,0,0,0,69.55,773.24Zm0,45.09a15,15,0,1,1,15-15A15,15,0,0,1,69.55,818.33Z"/></g><path class="cls-4" d="M204.39,0H515.61A59.39,59.39,0,0,1,575,59.39V1270a0,0,0,0,1,0,0H145a0,0,0,0,1,0,0V59.39A59.39,59.39,0,0,1,204.39,0Z" transform="translate(720 1270) rotate(180)"/><path class="cls-5" d="M575,0V1210.62A59.39,59.39,0,0,1,515.61,1270H204.39A59.39,59.39,0,0,1,145,1210.62V0H575M135,0V1210.62A69.46,69.46,0,0,0,204.39,1280H515.61A69.46,69.46,0,0,0,585,1210.62V0"/><rect class="cls-2" y="1126.31" width="103.39" height="6.4"/><rect class="cls-6" x="634.19" y="966.84" width="6.86" height="165.87"/><rect class="cls-7" x="352.2" y="1142.86" width="16.59" height="16.59" transform="translate(720.99 2302.31) rotate(180)"/><rect class="cls-6" x="335.62" y="1142.86" width="16.59" height="16.59" transform="translate(687.82 2302.31) rotate(180)"/><rect class="cls-6" x="352.2" y="1126.27" width="16.59" height="16.59" transform="translate(720.99 2269.13) rotate(180)"/><rect class="cls-7" x="335.62" y="1126.27" width="16.59" height="16.59" transform="translate(687.82 2269.13) rotate(180)"/><rect class="cls-7" x="352.2" y="1109.68" width="16.59" height="16.59" transform="translate(720.99 2235.96) rotate(180)"/><rect class="cls-6" x="335.62" y="1109.68" width="16.59" height="16.59" transform="translate(687.82 2235.96) rotate(180)"/><rect class="cls-7" x="319.03" y="1142.86" width="16.59" height="16.59" transform="translate(654.64 2302.31) rotate(180)"/><rect class="cls-6" x="302.44" y="1142.86" width="16.59" height="16.59" transform="translate(621.47 2302.31) rotate(180)"/><rect class="cls-6" x="319.03" y="1126.27" width="16.59" height="16.59" transform="translate(654.64 2269.13) rotate(180)"/><rect class="cls-7" x="302.44" y="1126.27" width="16.59" height="16.59" transform="translate(621.47 2269.13) rotate(180)"/><rect class="cls-7" x="319.03" y="1109.68" width="16.59" height="16.59" transform="translate(654.64 2235.96) rotate(180)"/><rect class="cls-6" x="302.44" y="1109.68" width="16.59" height="16.59" transform="translate(621.47 2235.96) rotate(180)"/><rect class="cls-7" x="285.85" y="1142.86" width="16.59" height="16.59" transform="translate(588.29 2302.31) rotate(180)"/><rect class="cls-6" x="269.27" y="1142.86" width="16.59" height="16.59" transform="translate(555.12 2302.31) rotate(180)"/><rect class="cls-6" x="285.85" y="1126.27" width="16.59" height="16.59" transform="translate(588.29 2269.13) rotate(180)"/><rect class="cls-7" x="269.27" y="1126.27" width="16.59" height="16.59" transform="translate(555.12 2269.13) rotate(180)"/><rect class="cls-7" x="285.85" y="1109.68" width="16.59" height="16.59" transform="translate(588.29 2235.96) rotate(180)"/><rect class="cls-6" x="269.27" y="1109.68" width="16.59" height="16.59" transform="translate(555.12 2235.96) rotate(180)"/><rect class="cls-7" x="252.68" y="1142.86" width="16.59" height="16.59" transform="translate(521.94 2302.31) rotate(180)"/><rect class="cls-6" x="236.09" y="1142.86" width="16.59" height="16.59" transform="translate(488.77 2302.31) rotate(180)"/><rect class="cls-6" x="252.68" y="1126.27" width="16.59" height="16.59" transform="translate(521.94 2269.13) rotate(180)"/><rect class="cls-7" x="236.09" y="1126.27" width="16.59" height="16.59" transform="translate(488.77 2269.13) rotate(180)"/><rect class="cls-7" x="252.68" y="1109.68" width="16.59" height="16.59" transform="translate(521.94 2235.96) rotate(180)"/><rect class="cls-6" x="236.09" y="1109.68" width="16.59" height="16.59" transform="translate(488.77 2235.96) rotate(180)"/><rect class="cls-7" x="219.5" y="1142.86" width="16.59" height="16.59" transform="translate(455.59 2302.31) rotate(180)"/><rect class="cls-6" x="202.92" y="1142.86" width="16.59" height="16.59" transform="translate(422.42 2302.31) rotate(180)"/><rect class="cls-6" x="219.5" y="1126.27" width="16.59" height="16.59" transform="translate(455.59 2269.13) rotate(180)"/><rect class="cls-7" x="202.92" y="1126.27" width="16.59" height="16.59" transform="translate(422.42 2269.13) rotate(180)"/><rect class="cls-7" x="219.5" y="1109.68" width="16.59" height="16.59" transform="translate(455.59 2235.96) rotate(180)"/><rect class="cls-6" x="202.92" y="1109.68" width="16.59" height="16.59" transform="translate(422.42 2235.96) rotate(180)"/><rect class="cls-7" x="186.33" y="1142.86" width="16.59" height="16.59" transform="translate(389.24 2302.31) rotate(180)"/><rect class="cls-6" x="169.74" y="1142.86" width="16.59" height="16.59" transform="translate(356.07 2302.31) rotate(180)"/><rect class="cls-6" x="186.33" y="1126.27" width="16.59" height="16.59" transform="translate(389.24 2269.13) rotate(180)"/><rect class="cls-7" x="169.74" y="1126.27" width="16.59" height="16.59" transform="translate(356.07 2269.13) rotate(180)"/><rect class="cls-7" x="186.33" y="1109.68" width="16.59" height="16.59" transform="translate(389.24 2235.96) rotate(180)"/><rect class="cls-6" x="169.74" y="1109.68" width="16.59" height="16.59" transform="translate(356.07 2235.96) rotate(180)"/><rect class="cls-7" x="153.15" y="1142.86" width="16.59" height="16.59" transform="translate(322.9 2302.31) rotate(180)"/><rect class="cls-6" x="136.57" y="1142.86" width="16.59" height="16.59" transform="translate(289.72 2302.31) rotate(180)"/><rect class="cls-6" x="153.15" y="1126.27" width="16.59" height="16.59" transform="translate(322.9 2269.13) rotate(180)"/><rect class="cls-7" x="136.57" y="1126.27" width="16.59" height="16.59" transform="translate(289.72 2269.13) rotate(180)"/><rect class="cls-7" x="153.15" y="1109.68" width="16.59" height="16.59" transform="translate(322.9 2235.96) rotate(180)"/><rect class="cls-6" x="136.57" y="1109.68" width="16.59" height="16.59" transform="translate(289.72 2235.96) rotate(180)"/><rect class="cls-7" x="119.98" y="1142.86" width="16.59" height="16.59" transform="translate(256.55 2302.31) rotate(180)"/><rect class="cls-6" x="103.39" y="1142.86" width="16.59" height="16.59" transform="translate(223.37 2302.31) rotate(180)"/><rect class="cls-6" x="119.98" y="1126.27" width="16.59" height="16.59" transform="translate(256.55 2269.13) rotate(180)"/><rect class="cls-7" x="103.39" y="1126.27" width="16.59" height="16.59" transform="translate(223.37 2269.13) rotate(180)"/><rect class="cls-7" x="119.98" y="1109.68" width="16.59" height="16.59" transform="translate(256.55 2235.96) rotate(180)"/><rect class="cls-6" x="103.39" y="1109.68" width="16.59" height="16.59" transform="translate(223.37 2235.96) rotate(180)"/><rect class="cls-7" x="617.6" y="1142.86" width="16.59" height="16.59" transform="translate(1251.79 2302.31) rotate(180)"/><rect class="cls-6" x="601.02" y="1142.86" width="16.59" height="16.59" transform="translate(1218.62 2302.31) rotate(180)"/><rect class="cls-7" x="617.6" y="1109.68" width="16.59" height="16.59" transform="translate(1251.79 2235.96) rotate(180)"/><rect class="cls-6" x="601.02" y="1109.68" width="16.59" height="16.59" transform="translate(1218.62 2235.96) rotate(180)"/><rect class="cls-7" x="584.43" y="1142.86" width="16.59" height="16.59" transform="translate(1185.44 2302.31) rotate(180)"/><rect class="cls-6" x="567.84" y="1142.86" width="16.59" height="16.59" transform="translate(1152.27 2302.31) rotate(180)"/><rect class="cls-7" x="584.43" y="1109.68" width="16.59" height="16.59" transform="translate(1185.44 2235.96) rotate(180)"/><rect class="cls-6" x="567.84" y="1109.68" width="16.59" height="16.59" transform="translate(1152.27 2235.96) rotate(180)"/><rect class="cls-7" x="551.25" y="1142.86" width="16.59" height="16.59" transform="translate(1119.09 2302.31) rotate(180)"/><rect class="cls-6" x="534.67" y="1142.86" width="16.59" height="16.59" transform="translate(1085.92 2302.31) rotate(180)"/><rect class="cls-7" x="551.25" y="1109.68" width="16.59" height="16.59" transform="translate(1119.09 2235.96) rotate(180)"/><rect class="cls-6" x="534.67" y="1109.68" width="16.59" height="16.59" transform="translate(1085.92 2235.96) rotate(180)"/><rect class="cls-7" x="518.08" y="1142.86" width="16.59" height="16.59" transform="translate(1052.74 2302.31) rotate(180)"/><rect class="cls-6" x="501.49" y="1142.86" width="16.59" height="16.59" transform="translate(1019.57 2302.31) rotate(180)"/><rect class="cls-7" x="518.08" y="1109.68" width="16.59" height="16.59" transform="translate(1052.74 2235.96) rotate(180)"/><rect class="cls-6" x="501.49" y="1109.68" width="16.59" height="16.59" transform="translate(1019.57 2235.96) rotate(180)"/><rect class="cls-7" x="484.9" y="1142.86" width="16.59" height="16.59" transform="translate(986.39 2302.31) rotate(180)"/><rect class="cls-6" x="468.32" y="1142.86" width="16.59" height="16.59" transform="translate(953.22 2302.31) rotate(180)"/><rect class="cls-6" x="484.9" y="1126.27" width="16.59" height="16.59" transform="translate(986.39 2269.13) rotate(180)"/><rect class="cls-7" x="468.32" y="1126.27" width="16.59" height="16.59" transform="translate(953.22 2269.13) rotate(180)"/><rect class="cls-7" x="484.9" y="1109.68" width="16.59" height="16.59" transform="translate(986.39 2235.96) rotate(180)"/><rect class="cls-6" x="468.32" y="1109.68" width="16.59" height="16.59" transform="translate(953.22 2235.96) rotate(180)"/><rect class="cls-7" x="451.73" y="1142.86" width="16.59" height="16.59" transform="translate(920.04 2302.31) rotate(180)"/><rect class="cls-6" x="435.14" y="1142.86" width="16.59" height="16.59" transform="translate(886.87 2302.31) rotate(180)"/><rect class="cls-6" x="451.73" y="1126.27" width="16.59" height="16.59" transform="translate(920.04 2269.13) rotate(180)"/><rect class="cls-7" x="435.14" y="1126.27" width="16.59" height="16.59" transform="translate(886.87 2269.13) rotate(180)"/><rect class="cls-7" x="451.73" y="1109.68" width="16.59" height="16.59" transform="translate(920.04 2235.96) rotate(180)"/><rect class="cls-6" x="435.14" y="1109.68" width="16.59" height="16.59" transform="translate(886.87 2235.96) rotate(180)"/><rect class="cls-7" x="418.55" y="1142.86" width="16.59" height="16.59" transform="translate(853.69 2302.31) rotate(180)"/><rect class="cls-6" x="401.97" y="1142.86" width="16.59" height="16.59" transform="translate(820.52 2302.31) rotate(180)"/><rect class="cls-6" x="418.55" y="1126.27" width="16.59" height="16.59" transform="translate(853.69 2269.13) rotate(180)"/><rect class="cls-7" x="401.97" y="1126.27" width="16.59" height="16.59" transform="translate(820.52 2269.13) rotate(180)"/><rect class="cls-7" x="418.55" y="1109.68" width="16.59" height="16.59" transform="translate(853.69 2235.96) rotate(180)"/><rect class="cls-6" x="401.97" y="1109.68" width="16.59" height="16.59" transform="translate(820.52 2235.96) rotate(180)"/><rect class="cls-7" x="385.38" y="1142.86" width="16.59" height="16.59" transform="translate(787.34 2302.31) rotate(180)"/><rect class="cls-6" x="368.79" y="1142.86" width="16.59" height="16.59" transform="translate(754.17 2302.31) rotate(180)"/><rect class="cls-6" x="385.38" y="1126.27" width="16.59" height="16.59" transform="translate(787.34 2269.13) rotate(180)"/><rect class="cls-7" x="368.79" y="1126.27" width="16.59" height="16.59" transform="translate(754.17 2269.13) rotate(180)"/><rect class="cls-7" x="385.38" y="1109.68" width="16.59" height="16.59" transform="translate(787.34 2235.96) rotate(180)"/><rect class="cls-6" x="368.79" y="1109.68" width="16.59" height="16.59" transform="translate(754.17 2235.96) rotate(180)"/><rect class="cls-6" x="96.53" y="966.84" width="6.86" height="165.87"/><rect class="cls-6" x="617.6" y="1132.67" width="16.59" height="10.18"/><rect class="cls-7" x="601.02" y="1132.67" width="16.59" height="10.18"/><rect class="cls-6" x="584.43" y="1132.67" width="16.59" height="10.18"/><rect class="cls-7" x="567.84" y="1132.67" width="16.59" height="10.18"/><rect class="cls-6" x="551.25" y="1132.67" width="16.59" height="10.18"/><rect class="cls-7" x="534.67" y="1132.67" width="16.59" height="10.18"/><rect class="cls-6" x="518.08" y="1132.67" width="16.59" height="10.18"/><polygon class="cls-7" points="509.78 1132.67 509.78 1126.27 501.49 1126.27 501.49 1142.86 518.08 1142.86 518.08 1132.67 509.78 1132.67"/><rect x="617.6" y="1126.27" width="16.59" height="6.4"/><rect class="cls-8" x="601.02" y="1126.27" width="16.59" height="6.4"/><rect x="584.43" y="1126.27" width="16.59" height="6.4"/><rect class="cls-8" x="567.84" y="1126.27" width="16.59" height="6.4"/><rect x="551.25" y="1126.27" width="16.59" height="6.4"/><rect class="cls-8" x="534.67" y="1126.27" width="16.59" height="6.4"/><rect x="518.08" y="1126.27" width="16.59" height="6.4"/><rect class="cls-8" x="509.78" y="1126.27" width="8.29" height="6.4"/><path class="cls-9" d="M46.28,984C25.43,984,10.59,978.3,0,970.17v19.61c11.55,7.29,26.6,12.05,46.28,12.05,22,0,38.26-6,50.25-14.74V966.84C85.79,976.7,69.87,984,46.28,984Z"/><path class="cls-9" d="M691.3,984c-23.59,0-39.51-7.31-50.25-17.17v20.25c12,8.79,28.24,14.74,50.25,14.74a96.93,96.93,0,0,0,28.7-4V979.55A86.75,86.75,0,0,1,691.3,984Z"/></g></svg>