<svg xmlns="http://www.w3.org/2000/svg" viewBox="0 0 720 1280"><defs><style>.cls-1{fill:#899853;}.cls-2{fill:#6b7741;}.cls-3{fill:#2e3845;}.cls-4{fill:#3d505c;}.cls-5{fill:#f5f5f5;}.cls-6{fill:#141414;}.cls-7{fill:#f2f2f2;}.cls-8{fill:#c8c8c8;}.cls-9{fill:#f8752a;}</style></defs><title>arriveePlan de travail 1 copie 12</title><g id="décors"><rect class="cls-1" width="720" height="1280"/><path class="cls-2" d="M2.17,402.38H63L41.33,357.29H2.17c-.73,0-1.46,0-2.17.1v44.89C.71,402.35,1.44,402.38,2.17,402.38Z"/><path class="cls-2" d="M15.66,467.65H76.5l-21.68-45.1H15.66A22.46,22.46,0,0,0,0,428.88v32.43A22.46,22.46,0,0,0,15.66,467.65Z"/><path class="cls-2" d="M8.71,535.9H69.55L47.87,490.8H8.71A22.53,22.53,0,0,0,0,492.54v41.61A22.53,22.53,0,0,0,8.71,535.9Z"/><path class="cls-2" d="M8.71,603.4H69.55L47.87,558.3H8.71A22.53,22.53,0,0,0,0,560v41.61A22.53,22.53,0,0,0,8.71,603.4Z"/><path class="cls-2" d="M8.71,670.9H69.55L47.87,625.8H8.71A22.53,22.53,0,0,0,0,627.54v41.61A22.53,22.53,0,0,0,8.71,670.9Z"/><path class="cls-2" d="M8.71,738.4H69.55L47.87,693.3H8.71A22.53,22.53,0,0,0,0,695v41.61A22.53,22.53,0,0,0,8.71,738.4Z"/><g id="pneu"><path class="cls-3" d="M63,342.25a30.07,30.07,0,1,0,30.06,30.07A30.07,30.07,0,0,0,63,342.25Zm0,45.1a15,15,0,1,1,15-15A15,15,0,0,1,63,387.35Z"/><rect class="cls-3" x="32.94" y="357.29" width="13.87" height="15.03"/><rect class="cls-3" x="79.19" y="357.29" width="13.87" height="15.03"/><path class="cls-4" d="M63,327.22a30.07,30.07,0,1,0,30.06,30.07A30.07,30.07,0,0,0,63,327.22Zm0,45.1a15,15,0,1,1,15-15A15,15,0,0,1,63,372.32Z"/></g><g id="pneu-2" data-name="pneu"><path class="cls-3" d="M76.5,407.52a30.07,30.07,0,1,0,30.07,30.06A30.06,30.06,0,0,0,76.5,407.52Zm0,45.09a15,15,0,1,1,15-15A15,15,0,0,1,76.5,452.61Z"/><rect class="cls-3" x="46.44" y="422.55" width="13.87" height="15.03"/><rect class="cls-3" x="92.68" y="422.55" width="13.87" height="15.03"/><path class="cls-4" d="M76.5,392.48a30.07,30.07,0,1,0,30.07,30.07A30.06,30.06,0,0,0,76.5,392.48Zm0,45.1a15,15,0,1,1,15-15A15,15,0,0,1,76.5,437.58Z"/></g><g id="pneu-3" data-name="pneu"><path class="cls-3" d="M69.55,475.77a30.07,30.07,0,1,0,30.07,30.06A30.06,30.06,0,0,0,69.55,475.77Zm0,45.09a15,15,0,1,1,15-15A15,15,0,0,1,69.55,520.86Z"/><rect class="cls-3" x="39.49" y="490.8" width="13.87" height="15.03"/><rect class="cls-3" x="85.73" y="490.8" width="13.87" height="15.03"/><path class="cls-4" d="M69.55,460.73A30.07,30.07,0,1,0,99.62,490.8,30.06,30.06,0,0,0,69.55,460.73Zm0,45.1a15,15,0,1,1,15-15A15,15,0,0,1,69.55,505.83Z"/></g><g id="pneu-4" data-name="pneu"><path class="cls-3" d="M69.55,543.27a30.07,30.07,0,1,0,30.07,30.06A30.06,30.06,0,0,0,69.55,543.27Zm0,45.09a15,15,0,1,1,15-15A15,15,0,0,1,69.55,588.36Z"/><rect class="cls-3" x="39.49" y="558.3" width="13.87" height="15.03"/><rect class="cls-3" x="85.73" y="558.3" width="13.87" height="15.03"/><path class="cls-4" d="M69.55,528.23A30.07,30.07,0,1,0,99.62,558.3,30.06,30.06,0,0,0,69.55,528.23Zm0,45.1a15,15,0,1,1,15-15A15,15,0,0,1,69.55,573.33Z"/></g><g id="pneu-5" data-name="pneu"><path class="cls-3" d="M69.55,610.77a30.07,30.07,0,1,0,30.07,30.06A30.06,30.06,0,0,0,69.55,610.77Zm0,45.09a15,15,0,1,1,15-15A15,15,0,0,1,69.55,655.86Z"/><rect class="cls-3" x="39.49" y="625.8" width="13.87" height="15.03"/><rect class="cls-3" x="85.73" y="625.8" width="13.87" height="15.03"/><path class="cls-4" d="M69.55,595.73A30.07,30.07,0,1,0,99.62,625.8,30.06,30.06,0,0,0,69.55,595.73Zm0,45.1a15,15,0,1,1,15-15A15,15,0,0,1,69.55,640.83Z"/></g><g id="pneu-6" data-name="pneu"><path class="cls-3" d="M69.55,678.27a30.07,30.07,0,1,0,30.07,30.06A30.06,30.06,0,0,0,69.55,678.27Zm0,45.09a15,15,0,1,1,15-15A15,15,0,0,1,69.55,723.36Z"/><rect class="cls-3" x="39.49" y="693.3" width="13.87" height="15.03"/><rect class="cls-3" x="85.73" y="693.3" width="13.87" height="15.03"/><path class="cls-4" d="M69.55,663.23A30.07,30.07,0,1,0,99.62,693.3,30.06,30.06,0,0,0,69.55,663.23Zm0,45.1a15,15,0,1,1,15-15A15,15,0,0,1,69.55,708.33Z"/></g><path class="cls-4" d="M204.39,0H515.61A59.39,59.39,0,0,1,575,59.39V1160a0,0,0,0,1,0,0H145a0,0,0,0,1,0,0V59.39A59.39,59.39,0,0,1,204.39,0Z" transform="translate(720 1160) rotate(180)"/><path class="cls-5" d="M575,0V1100.61A59.39,59.39,0,0,1,515.61,1160H204.39A59.39,59.39,0,0,1,145,1100.61V0H575M135,0V1100.61A69.47,69.47,0,0,0,204.39,1170H515.61A69.47,69.47,0,0,0,585,1100.61V0"/><rect class="cls-2" y="1016.31" width="103.39" height="6.4"/><rect class="cls-6" x="634.19" y="856.84" width="6.86" height="165.87"/><rect class="cls-7" x="352.2" y="1032.86" width="16.59" height="16.59" transform="translate(720.99 2082.3) rotate(180)"/><rect class="cls-6" x="335.62" y="1032.86" width="16.59" height="16.59" transform="translate(687.82 2082.3) rotate(180)"/><rect class="cls-6" x="352.2" y="1016.27" width="16.59" height="16.59" transform="translate(720.99 2049.12) rotate(180)"/><rect class="cls-7" x="335.62" y="1016.27" width="16.59" height="16.59" transform="translate(687.82 2049.12) rotate(180)"/><rect class="cls-7" x="352.2" y="999.68" width="16.59" height="16.59" transform="translate(720.99 2015.95) rotate(180)"/><rect class="cls-6" x="335.62" y="999.68" width="16.59" height="16.59" transform="translate(687.82 2015.95) rotate(180)"/><rect class="cls-7" x="319.03" y="1032.86" width="16.59" height="16.59" transform="translate(654.64 2082.3) rotate(180)"/><rect class="cls-6" x="302.44" y="1032.86" width="16.59" height="16.59" transform="translate(621.47 2082.3) rotate(180)"/><rect class="cls-6" x="319.03" y="1016.27" width="16.59" height="16.59" transform="translate(654.64 2049.12) rotate(180)"/><rect class="cls-7" x="302.44" y="1016.27" width="16.59" height="16.59" transform="translate(621.47 2049.12) rotate(180)"/><rect class="cls-7" x="319.03" y="999.68" width="16.59" height="16.59" transform="translate(654.64 2015.95) rotate(180)"/><rect class="cls-6" x="302.44" y="999.68" width="16.59" height="16.59" transform="translate(621.47 2015.95) rotate(180)"/><rect class="cls-7" x="285.85" y="1032.86" width="16.59" height="16.59" transform="translate(588.29 2082.3) rotate(180)"/><rect class="cls-6" x="269.27" y="1032.86" width="16.59" height="16.59" transform="translate(555.12 2082.3) rotate(180)"/><rect class="cls-6" x="285.85" y="1016.27" width="16.59" height="16.59" transform="translate(588.29 2049.12) rotate(180)"/><rect class="cls-7" x="269.27" y="1016.27" width="16.59" height="16.59" transform="translate(555.12 2049.12) rotate(180)"/><rect class="cls-7" x="285.85" y="999.68" width="16.59" height="16.59" transform="translate(588.29 2015.95) rotate(180)"/><rect class="cls-6" x="269.27" y="999.68" width="16.59" height="16.59" transform="translate(555.12 2015.95) rotate(180)"/><rect class="cls-7" x="252.68" y="1032.86" width="16.59" height="16.59" transform="translate(521.94 2082.3) rotate(180)"/><rect class="cls-6" x="236.09" y="1032.86" width="16.59" height="16.59" transform="translate(488.77 2082.3) rotate(180)"/><rect class="cls-6" x="252.68" y="1016.27" width="16.59" height="16.59" transform="translate(521.94 2049.12) rotate(180)"/><rect class="cls-7" x="236.09" y="1016.27" width="16.59" height="16.59" transform="translate(488.77 2049.12) rotate(180)"/><rect class="cls-7" x="252.68" y="999.68" width="16.59" height="16.59" transform="translate(521.94 2015.95) rotate(180)"/><rect class="cls-6" x="236.09" y="999.68" width="16.59" height="16.59" transform="translate(488.77 2015.95) rotate(180)"/><rect class="cls-7" x="219.5" y="1032.86" width="16.59" height="16.59" transform="translate(455.59 2082.3) rotate(180)"/><rect class="cls-6" x="202.92" y="1032.86" width="16.59" height="16.59" transform="translate(422.42 2082.3) rotate(180)"/><rect class="cls-6" x="219.5" y="1016.27" width="16.59" height="16.59" transform="translate(455.59 2049.12) rotate(180)"/><rect class="cls-7" x="202.92" y="1016.27" width="16.59" height="16.59" transform="translate(422.42 2049.12) rotate(180)"/><rect class="cls-7" x="219.5" y="999.68" width="16.59" height="16.59" transform="translate(455.59 2015.95) rotate(180)"/><rect class="cls-6" x="202.92" y="999.68" width="16.59" height="16.59" transform="translate(422.42 2015.95) rotate(180)"/><rect class="cls-7" x="186.33" y="1032.86" width="16.59" height="16.59" transform="translate(389.24 2082.3) rotate(180)"/><rect class="cls-6" x="169.74" y="1032.86" width="16.59" height="16.59" transform="translate(356.07 2082.3) rotate(180)"/><rect class="cls-6" x="186.33" y="1016.27" width="16.59" height="16.59" transform="translate(389.24 2049.12) rotate(180)"/><rect class="cls-7" x="169.74" y="1016.27" width="16.59" height="16.59" transform="translate(356.07 2049.12) rotate(180)"/><rect class="cls-7" x="186.33" y="999.68" width="16.59" height="16.59" transform="translate(389.24 2015.95) rotate(180)"/><rect class="cls-6" x="169.74" y="999.68" width="16.59" height="16.59" transform="translate(356.07 2015.95) rotate(180)"/><rect class="cls-7" x="153.15" y="1032.86" width="16.59" height="16.59" transform="translate(322.9 2082.3) rotate(180)"/><rect class="cls-6" x="136.57" y="1032.86" width="16.59" height="16.59" transform="translate(289.72 2082.3) rotate(180)"/><rect class="cls-6" x="153.15" y="1016.27" width="16.59" height="16.59" transform="translate(322.9 2049.12) rotate(180)"/><rect class="cls-7" x="136.57" y="1016.27" width="16.59" height="16.59" transform="translate(289.72 2049.12) rotate(180)"/><rect class="cls-7" x="153.15" y="999.68" width="16.59" height="16.59" transform="translate(322.9 2015.95) rotate(180)"/><rect class="cls-6" x="136.57" y="999.68" width="16.59" height="16.59" transform="translate(289.72 2015.95) rotate(180)"/><rect class="cls-7" x="119.98" y="1032.86" width="16.59" height="16.59" transform="translate(256.55 2082.3) rotate(180)"/><rect class="cls-6" x="103.39" y="1032.86" width="16.59" height="16.59" transform="translate(223.37 2082.3) rotate(180)"/><rect class="cls-6" x="119.98" y="1016.27" width="16.59" height="16.59" transform="translate(256.55 2049.12) rotate(180)"/><rect class="cls-7" x="103.39" y="1016.27" width="16.59" height="16.59" transform="translate(223.37 2049.12) rotate(180)"/><rect class="cls-7" x="119.98" y="999.68" width="16.59" height="16.59" transform="translate(256.55 2015.95) rotate(180)"/><rect class="cls-6" x="103.39" y="999.68" width="16.59" height="16.59" transform="translate(223.37 2015.95) rotate(180)"/><rect class="cls-7" x="617.6" y="1032.86" width="16.59" height="16.59" transform="translate(1251.79 2082.3) rotate(180)"/><rect class="cls-6" x="601.02" y="1032.86" width="16.59" height="16.59" transform="translate(1218.62 2082.3) rotate(180)"/><rect class="cls-7" x="617.6" y="999.68" width="16.59" height="16.59" transform="translate(1251.79 2015.95) rotate(180)"/><rect class="cls-6" x="601.02" y="999.68" width="16.59" height="16.59" transform="translate(1218.62 2015.95) rotate(180)"/><rect class="cls-7" x="584.43" y="1032.86" width="16.59" height="16.59" transform="translate(1185.44 2082.3) rotate(180)"/><rect class="cls-6" x="567.84" y="1032.86" width="16.59" height="16.59" transform="translate(1152.27 2082.3) rotate(180)"/><rect class="cls-7" x="584.43" y="999.68" width="16.59" height="16.59" transform="translate(1185.44 2015.95) rotate(180)"/><rect class="cls-6" x="567.84" y="999.68" width="16.59" height="16.59" transform="translate(1152.27 2015.95) rotate(180)"/><rect class="cls-7" x="551.25" y="1032.86" width="16.59" height="16.59" transform="translate(1119.09 2082.3) rotate(180)"/><rect class="cls-6" x="534.67" y="1032.86" width="16.59" height="16.59" transform="translate(1085.92 2082.3) rotate(180)"/><rect class="cls-7" x="551.25" y="999.68" width="16.59" height="16.59" transform="translate(1119.09 2015.95) rotate(180)"/><rect class="cls-6" x="534.67" y="999.68" width="16.59" height="16.59" transform="translate(1085.92 2015.95) rotate(180)"/><rect class="cls-7" x="518.08" y="1032.86" width="16.59" height="16.59" transform="translate(1052.74 2082.3) rotate(180)"/><rect class="cls-6" x="501.49" y="1032.86" width="16.59" height="16.59" transform="translate(1019.57 2082.3) rotate(180)"/><rect class="cls-7" x="518.08" y="999.68" width="16.59" height="16.59" transform="translate(1052.74 2015.95) rotate(180)"/><rect class="cls-6" x="501.49" y="999.68" width="16.59" height="16.59" transform="translate(1019.57 2015.95) rotate(180)"/><rect class="cls-7" x="484.9" y="1032.86" width="16.59" height="16.59" transform="translate(986.39 2082.3) rotate(180)"/><rect class="cls-6" x="468.32" y="1032.86" width="16.59" height="16.59" transform="translate(953.22 2082.3) rotate(180)"/><rect class="cls-6" x="484.9" y="1016.27" width="16.59" height="16.59" transform="translate(986.39 2049.12) rotate(180)"/><rect class="cls-7" x="468.32" y="1016.27" width="16.59" height="16.59" transform="translate(953.22 2049.12) rotate(180)"/><rect class="cls-7" x="484.9" y="999.68" width="16.59" height="16.59" transform="translate(986.39 2015.95) rotate(180)"/><rect class="cls-6" x="468.32" y="999.68" width="16.59" height="16.59" transform="translate(953.22 2015.95) rotate(180)"/><rect class="cls-7" x="451.73" y="1032.86" width="16.59" height="16.59" transform="translate(920.04 2082.3) rotate(180)"/><rect class="cls-6" x="435.14" y="1032.86" width="16.59" height="16.59" transform="translate(886.87 2082.3) rotate(180)"/><rect class="cls-6" x="451.73" y="1016.27" width="16.59" height="16.59" transform="translate(920.04 2049.12) rotate(180)"/><rect class="cls-7" x="435.14" y="1016.27" width="16.59" height="16.59" transform="translate(886.87 2049.12) rotate(180)"/><rect class="cls-7" x="451.73" y="999.68" width="16.59" height="16.59" transform="translate(920.04 2015.95) rotate(180)"/><rect class="cls-6" x="435.14" y="999.68" width="16.59" height="16.59" transform="translate(886.87 2015.95) rotate(180)"/><rect class="cls-7" x="418.55" y="1032.86" width="16.59" height="16.59" transform="translate(853.69 2082.3) rotate(180)"/><rect class="cls-6" x="401.97" y="1032.86" width="16.59" height="16.59" transform="translate(820.52 2082.3) rotate(180)"/><rect class="cls-6" x="418.55" y="1016.27" width="16.59" height="16.59" transform="translate(853.69 2049.12) rotate(180)"/><rect class="cls-7" x="401.97" y="1016.27" width="16.59" height="16.59" transform="translate(820.52 2049.12) rotate(180)"/><rect class="cls-7" x="418.55" y="999.68" width="16.59" height="16.59" transform="translate(853.69 2015.95) rotate(180)"/><rect class="cls-6" x="401.97" y="999.68" width="16.59" height="16.59" transform="translate(820.52 2015.95) rotate(180)"/><rect class="cls-7" x="385.38" y="1032.86" width="16.59" height="16.59" transform="translate(787.34 2082.3) rotate(180)"/><rect class="cls-6" x="368.79" y="1032.86" width="16.59" height="16.59" transform="translate(754.17 2082.3) rotate(180)"/><rect class="cls-6" x="385.38" y="1016.27" width="16.59" height="16.59" transform="translate(787.34 2049.12) rotate(180)"/><rect class="cls-7" x="368.79" y="1016.27" width="16.59" height="16.59" transform="translate(754.17 2049.12) rotate(180)"/><rect class="cls-7" x="385.38" y="999.68" width="16.59" height="16.59" transform="translate(787.34 2015.95) rotate(180)"/><rect class="cls-6" x="368.79" y="999.68" width="16.59" height="16.59" transform="translate(754.17 2015.95) rotate(180)"/><rect class="cls-6" x="96.53" y="856.84" width="6.86" height="165.87"/><rect class="cls-6" x="617.6" y="1022.67" width="16.59" height="10.18"/><rect class="cls-7" x="601.02" y="1022.67" width="16.59" height="10.18"/><rect class="cls-6" x="584.43" y="1022.67" width="16.59" height="10.18"/><rect class="cls-7" x="567.84" y="1022.67" width="16.59" height="10.18"/><rect class="cls-6" x="551.25" y="1022.67" width="16.59" height="10.18"/><rect class="cls-7" x="534.67" y="1022.67" width="16.59" height="10.18"/><rect class="cls-6" x="518.08" y="1022.67" width="16.59" height="10.18"/><polygon class="cls-7" points="509.78 1022.67 509.78 1016.27 501.49 1016.27 501.49 1032.86 518.08 1032.86 518.08 1022.67 509.78 1022.67"/><rect x="617.6" y="1016.27" width="16.59" height="6.4"/><rect class="cls-8" x="601.02" y="1016.27" width="16.59" height="6.4"/><rect x="584.43" y="1016.27" width="16.59" height="6.4"/><rect class="cls-8" x="567.84" y="1016.27" width="16.59" height="6.4"/><rect x="551.25" y="1016.27" width="16.59" height="6.4"/><rect class="cls-8" x="534.67" y="1016.27" width="16.59" height="6.4"/><rect x="518.08" y="1016.27" width="16.59" height="6.4"/><rect class="cls-8" x="509.78" y="1016.27" width="8.29" height="6.4"/><path class="cls-9" d="M46.28,874C25.43,874,10.59,868.3,0,860.17v19.61c11.55,7.28,26.6,12.05,46.28,12.05,22,0,38.26-6,50.25-14.74V856.84C85.79,866.7,69.87,874,46.28,874Z"/><path class="cls-9" d="M691.3,874c-23.59,0-39.51-7.3-50.25-17.16v20.25c12,8.78,28.24,14.74,50.25,14.74a96.93,96.93,0,0,0,28.7-4V869.55A86.77,86.77,0,0,1,691.3,874Z"/></g></svg>