<?xml version="1.0" encoding="utf-8"?>
<!-- Generator: Adobe Illustrator 24.0.0, SVG Export Plug-In . SVG Version: 6.00 Build 0)  -->
<svg version="1.1" id="Calque_1" xmlns="http://www.w3.org/2000/svg" xmlns:xlink="http://www.w3.org/1999/xlink" x="0px" y="0px"
	 viewBox="0 0 720 1280" style="enable-background:new 0 0 720 1280;" xml:space="preserve">
<style type="text/css">
	.st0{fill:#899853;}
	.st1{fill:#6B7741;}
	.st2{fill:#2E3845;}
	.st3{fill:#3D505C;}
	.st4{fill:#F8752A;}
	.st5{fill:#FFFFFF;}
	.st6{fill:#C8C8C8;}
	.st7{fill:#141414;}
	.st8{fill:#F2F2F2;}
</style>
<path class="st0" d="M69.5,573.3L69.5,573.3C69.6,573.3,69.6,573.3,69.5,573.3c5.5,0,10.4-3,13-7.5c-2.6-4.5-7.4-7.5-13-7.5
	c-5.5,0-10.4,3-13,7.5C59.2,570.3,64,573.3,69.5,573.3z"/>
<path class="st0" d="M46.4,422.5c0-7.8,2.9-14.8,7.8-20.2h-52c-0.7,0-1.5,0-2.2-0.1v26.6c4.1-3.9,9.6-6.3,15.7-6.3H46.4z"/>
<path class="st0" d="M69.5,505.8L69.5,505.8c5.5,0,10.4-3,13-7.5c-2.6-4.5-7.4-7.5-13-7.5s-10.4,3-13,7.5
	C59.2,502.8,64,505.8,69.5,505.8z"/>
<path class="st0" d="M76.5,437.6L76.5,437.6c5.5,0,10.4-3,13-7.5c-2.6-4.5-7.4-7.5-13-7.5s-10.4,3-13,7.5
	C66.1,434.6,71,437.6,76.5,437.6z"/>
<path class="st0" d="M69.5,708.3L69.5,708.3C69.6,708.3,69.6,708.3,69.5,708.3c5.5,0,10.4-3,13-7.5c-2.6-4.5-7.4-7.5-13-7.5
	c-5.5,0-10.4,3-13,7.5C59.2,705.3,64,708.3,69.5,708.3z"/>
<path class="st0" d="M39.5,558.3c0-8.9,3.9-16.9,10-22.4H8.7c-3.1,0-6-0.6-8.7-1.7V560c2.7-1.1,5.6-1.7,8.7-1.7H39.5z"/>
<path class="st0" d="M39.5,693.3c0-8.9,3.9-16.9,10-22.4H8.7c-3.1,0-6-0.6-8.7-1.7V695c2.7-1.1,5.6-1.7,8.7-1.7H39.5z"/>
<path class="st0" d="M39.5,490.8c0-9.3,4.2-17.6,10.9-23.2H15.7c-6.1,0-11.6-2.4-15.7-6.3v31.2c2.7-1.1,5.6-1.7,8.7-1.7H39.5z"/>
<path class="st0" d="M39.5,625.8c0-8.9,3.9-16.9,10-22.4H8.7c-3.1,0-6-0.6-8.7-1.7v25.9c2.7-1.1,5.6-1.7,8.7-1.7H39.5z"/>
<path class="st0" d="M69.5,640.8L69.5,640.8C69.6,640.8,69.6,640.8,69.5,640.8c5.5,0,10.4-3,13-7.5c-2.6-4.5-7.4-7.5-13-7.5
	c-5.5,0-10.4,3-13,7.5C59.2,637.8,64,640.8,69.5,640.8z"/>
<path class="st0" d="M641,877.1v145.6h-6.9v10.1v16.6h-16.6v-16.6v-10.2h0v10.2v16.6H601h-16v51.2c0,38.3-31.1,69.3-69.4,69.4H204.4
	c-38.3,0-69.3-31.1-69.4-69.4v-51.2h-15h-16.6v-16.6v-10.1h-6.9H0V1280h720V887.8c-8.3,2.6-17.8,4-28.7,4
	C669.3,891.8,653,885.9,641,877.1z"/>
<ellipse class="st0" cx="63" cy="364.8" rx="13" ry="7.5"/>
<path class="st0" d="M601,999.7h16.6v16.6v0v0h0v0v0v-16.6h16.6V856.8h6.9c10.7,9.9,26.7,17.2,50.3,17.2c11.2,0,20.7-1.7,28.7-4.5V0
	H585v999.7H601z"/>
<path class="st0" d="M96.5,856.8h6.9v142.8H120h15V0H0v313.9v43.5c0.7-0.1,1.4-0.1,2.2-0.1c0,0,0,0,0,0h30.8c0,0,0,0,0,0
	c0-16.6,13.5-30.1,30.1-30.1c16.6,0,30.1,13.5,30.1,30.1v0v15c0,0,0,0,0,0c0,8.3-3.3,15.7-8.7,21.2c12.8,3.4,22.3,15.1,22.2,29
	c0,0.3,0,0.5,0,0.8v13.4c0,0.3,0,0.5,0,0.8c0,0,0,0,0,0c0,13.1-8.4,24.2-20.1,28.4c7.9,5.4,13.1,14.5,13.1,24.8c0,0.3,0,0.5,0,0.8
	V505c0,0.3,0,0.5,0,0.8c0,0,0,0,0,0c0,11.3-6.2,21.1-15.4,26.2c9.2,5.2,15.4,15,15.4,26.2c0,0.3,0,0.5,0,0.8v13.5c0,0.3,0,0.5,0,0.8
	c0,0,0,0,0,0c0,11.3-6.2,21.1-15.4,26.2c9.2,5.2,15.4,15,15.4,26.2c0,0.3,0,0.5,0,0.8V640c0,0.3,0,0.5,0,0.8c0,0,0,0,0,0
	c0,11.3-6.2,21.1-15.4,26.2c9.2,5.2,15.4,15,15.4,26.2c0,0.3,0,0.5,0,0.8v13.5c0,0.3,0,0.5,0,0.8c0,0,0,0,0,0
	c0,16.6-13.5,30.1-30.1,30.1c-0.1,0-0.3,0-0.4,0H8.7c-3.1,0-6-0.6-8.7-1.7v9.2v114.3c10.6,8.1,25.4,13.8,46.3,13.8
	C69.9,874,85.8,866.7,96.5,856.8l0,20.3c-12,8.7-28.2,14.7-50.3,14.7c-19.7,0-34.7-4.8-46.3-12v136.5h96.5V856.8z"/>
<path class="st1" d="M2.2,402.4h52c0.3-0.3,0.6-0.7,1-1c-12.8-3.4-22.3-15.1-22.3-29c0-0.3,0-0.5,0-0.8v-13.4c0-0.3,0-0.5,0-0.8H2.2
	c0,0,0,0,0,0c-0.7,0-1.4,0-2.2,0.1v44.9C0.7,402.3,1.4,402.4,2.2,402.4z"/>
<path class="st2" d="M63,357.3c5.5,0,10.4,3,13,7.5c1.3-2.2,2-4.8,2-7.5c0-8.3-6.7-15-15-15c-8.3,0-15,6.7-15,15
	c0,2.7,0.7,5.3,2,7.5C52.6,360.4,57.5,357.3,63,357.3z"/>
<path class="st2" d="M63,387.4c-2.7,0-5.2-0.3-7.7-1l5.2,10.7c4.6-2.9,10.1-4.6,16-4.6c0,0,0,0,0,0c2.7,0,5.3,0.4,7.8,1
	c5.4-5.4,8.7-12.9,8.7-21.2c0,0,0,0,0,0h-4C83.8,381.3,74.1,387.4,63,387.4z"/>
<path class="st2" d="M60.5,397.1l-5.2-10.7c-7.8-2.1-14.4-7.2-18.4-14h-4v-0.8c0,0.3,0,0.5,0,0.8c0,13.9,9.4,25.6,22.3,29
	C56.8,399.8,58.5,398.3,60.5,397.1z"/>
<path class="st2" d="M32.9,358.1v13.4c0.1-2.3,0.4-4.6,0.9-6.7C33.3,362.6,33,360.4,32.9,358.1z"/>
<path class="st2" d="M36.9,372.3c-1.3-2.3-2.4-4.8-3.1-7.5c-0.6,2.2-0.9,4.4-0.9,6.7v0.8H36.9z"/>
<path class="st2" d="M93.1,372.3v-15c0,2.6-0.3,5.1-0.9,7.5C92.7,367.2,93.1,369.7,93.1,372.3z"/>
<path class="st2" d="M89,372.3h4c0-2.6-0.3-5.1-0.9-7.5C91.4,367.5,90.4,370,89,372.3z"/>
<path class="st3" d="M63,387.3c8.3,0,15-6.7,15-15c0-2.7-0.7-5.3-2-7.5c-2.6,4.5-7.4,7.5-13,7.5s-10.4-3-13-7.5
	c-1.1,1.9-1.8,4.1-2,6.4l6.5,13.4C56.9,386.4,59.8,387.3,63,387.3z"/>
<path class="st3" d="M37,357.3c5.2-9,14.9-15,26-15c11.1,0,20.8,6.1,26,15h4c0-16.6-13.5-30.1-30.1-30.1
	c-16.6,0-30.1,13.5-30.1,30.1c0,0,0,0,0,0h0H37z"/>
<path class="st3" d="M54.5,384.7l-6.5-13.4c0,0.4-0.1,0.7-0.1,1.1C48,377.5,50.6,382,54.5,384.7z"/>
<path class="st3" d="M32.9,357.3L32.9,357.3c0,0.3,0,0.5,0,0.8V357.3z"/>
<path class="st3" d="M46.8,357.3v11.4l1.2,2.6c0.2-2.3,0.9-4.5,2-6.4c-1.3-2.2-2-4.8-2-7.5c0-8.3,6.7-15,15-15c8.3,0,15,6.7,15,15
	c0,2.7-0.7,5.3-2,7.5c1.3,2.2,2,4.8,2,7.5c0,8.3-6.7,15-15,15c-3.2,0-6.1-1-8.5-2.6l0.8,1.7c2.5,0.6,5,1,7.7,1
	c11.1,0,20.8-6,26.1-15h-9.8v-15H89c-5.2-9-14.9-15-26-15c-11.1,0-20.8,6-26,15h4.4H46.8z"/>
<path class="st3" d="M48,372.3c0-0.4,0-0.7,0.1-1.1l-1.2-2.6v3.6h-9.9c4,6.8,10.5,12,18.4,14l-0.8-1.7C50.6,382,48,377.5,48,372.3z"
	/>
<path class="st3" d="M37,357.3h-4v0.8c0.1,2.3,0.4,4.6,0.9,6.7C34.6,362.1,35.6,359.6,37,357.3z"/>
<polygon class="st3" points="41.3,357.3 46.8,368.7 46.8,357.3 "/>
<path class="st3" d="M36.9,372.3h9.9v-3.6l-5.5-11.4H37c-1.3,2.3-2.4,4.8-3.1,7.5C34.6,367.5,35.6,370,36.9,372.3z"/>
<path class="st3" d="M92.1,364.8c0.6-2.4,0.9-4.9,0.9-7.5v0h-4C90.4,359.6,91.4,362.1,92.1,364.8z"/>
<path class="st3" d="M79.2,372.3H89c1.3-2.3,2.4-4.8,3.1-7.5c-0.7-2.7-1.7-5.2-3.1-7.5h-9.8V372.3z"/>
<path class="st1" d="M50.4,467.6c2.7-2.2,5.8-4,9.2-5.2c-7.9-5.4-13.1-14.5-13.1-24.8c0-0.1,0-0.3,0-0.4v-14.2c0-0.1,0-0.3,0-0.4
	H15.7c-6.1,0-11.6,2.4-15.7,6.3v32.4c4.1,3.9,9.6,6.3,15.7,6.3H50.4z"/>
<path class="st2" d="M102.5,437.6c-5.2,9-14.9,15-26,15c-2.7,0-5.2-0.4-7.7-1l4.5,9.3c4.9,0.6,9.4,2.4,13.2,5
	c11.7-4.1,20.1-15.3,20.1-28.4c0,0,0,0,0,0c0-0.3,0-0.5,0-0.8v0.8H102.5z"/>
<path class="st2" d="M76.5,422.6c5.5,0,10.4,3,13,7.5c1.3-2.2,2-4.8,2-7.5c0-8.3-6.7-15-15-15c-8.3,0-15,6.7-15,15
	c0,2.7,0.7,5.3,2,7.5C66.1,425.6,71,422.6,76.5,422.6z"/>
<path class="st2" d="M50.5,437.6h-4v-0.4c0,0.1,0,0.3,0,0.4c0,10.3,5.2,19.4,13.1,24.8c3.1-1.1,6.5-1.7,10-1.7c0,0,0,0,0,0
	c1.3,0,2.5,0.1,3.7,0.2l-4.5-9.3C61,449.6,54.4,444.4,50.5,437.6z"/>
<path class="st2" d="M46.4,422.9v14.2c0-2.5,0.4-4.8,0.9-7.1C46.8,427.8,46.5,425.4,46.4,422.9z"/>
<path class="st2" d="M50.5,437.6c-1.3-2.3-2.4-4.8-3.1-7.5c-0.6,2.3-0.9,4.7-0.9,7.1v0.4H50.5z"/>
<path class="st2" d="M106.5,436.8v-13.4c-0.1,2.3-0.4,4.6-0.9,6.7C106.2,432.2,106.5,434.5,106.5,436.8z"/>
<path class="st2" d="M102.5,437.6h4v-0.8c-0.1-2.3-0.4-4.6-0.9-6.7C104.9,432.7,103.9,435.3,102.5,437.6z"/>
<path class="st3" d="M76.5,452.6c8.3,0,15-6.7,15-15c0-2.7-0.7-5.3-2-7.5c-2.6,4.5-7.4,7.5-13,7.5v0c-5.5,0-10.4-3-13-7.5
	c-1.1,1.9-1.8,4.1-2,6.5L68,450C70.4,451.6,73.3,452.6,76.5,452.6z"/>
<path class="st3" d="M63,402.4c-0.1,0-0.3,0-0.4,0h-8.4c-4.8,5.3-7.8,12.4-7.8,20.2h0h4c5.2-9,14.9-15,26-15c0,0,0,0,0,0
	c11.1,0,20.8,6,26,15h4v0.8c0-0.3,0-0.5,0-0.8c0-13.9-9.4-25.6-22.2-29C78.9,399,71.3,402.4,63,402.4z"/>
<path class="st3" d="M55.2,401.4c-0.3,0.3-0.7,0.7-1,1h8.4C60,402.3,57.5,402,55.2,401.4z"/>
<path class="st3" d="M76.5,392.5c-5.9,0-11.4,1.7-16,4.6l2.5,5.3h-0.4c0.1,0,0.3,0,0.4,0c8.3,0,15.9-3.4,21.3-8.9
	C81.8,392.8,79.2,392.5,76.5,392.5C76.5,392.5,76.5,392.5,76.5,392.5z"/>
<path class="st3" d="M63,402.4l-2.5-5.3c-1.9,1.2-3.7,2.6-5.3,4.2c2.4,0.6,4.9,1,7.4,1H63z"/>
<path class="st3" d="M46.4,422.5L46.4,422.5c0,0.1,0,0.3,0,0.4V422.5z"/>
<path class="st3" d="M68,450l-6.4-13.4c0,0.3-0.1,0.7-0.1,1.1C61.5,442.7,64.1,447.3,68,450z"/>
<path class="st3" d="M60.3,422.5V434l1.2,2.6c0.2-2.3,0.9-4.5,2-6.5c-1.3-2.2-2-4.8-2-7.5c0-8.3,6.7-15,15-15c8.3,0,15,6.7,15,15
	c0,2.7-0.7,5.3-2,7.5c1.3,2.2,2,4.8,2,7.5c0,8.3-6.7,15-15,15c-3.2,0-6.1-1-8.5-2.6l0.8,1.7c2.5,0.7,5,1,7.7,1
	c11.1,0,20.8-6.1,26-15h-9.9v-15h9.9c-5.2-9-14.9-15-26-15c0,0,0,0,0,0c-11.1,0-20.8,6-26,15h4.4H60.3z"/>
<path class="st3" d="M61.5,437.6c0-0.4,0-0.7,0.1-1.1l-1.2-2.6v3.6h-9.9c4,6.8,10.5,12,18.3,14L68,450
	C64.1,447.3,61.5,442.7,61.5,437.6z"/>
<path class="st3" d="M47.4,430.1c0.7-2.7,1.7-5.2,3.1-7.5h-4v0.4C46.5,425.4,46.8,427.8,47.4,430.1z"/>
<polygon class="st3" points="54.8,422.5 60.3,434 60.3,422.5 "/>
<path class="st3" d="M50.5,437.6h9.9V434l-5.5-11.4h-4.4c-1.3,2.3-2.4,4.9-3.1,7.5C48.1,432.7,49.1,435.3,50.5,437.6z"/>
<path class="st3" d="M102.5,422.5c1.3,2.3,2.4,4.8,3.1,7.5c0.6-2.2,0.9-4.4,0.9-6.7v-0.8H102.5z"/>
<path class="st3" d="M92.7,437.6h9.9c1.3-2.3,2.4-4.8,3.1-7.5c-0.7-2.7-1.7-5.2-3.1-7.5h-9.9V437.6z"/>
<path class="st1" d="M49.5,535.9c1.6-1.5,3.4-2.7,5.4-3.8c-9.2-5.2-15.4-15-15.4-26.2c0-0.1,0-0.3,0-0.4v-14.2c0-0.1,0-0.3,0-0.4
	H8.7c-3.1,0-6,0.6-8.7,1.7v41.6c2.7,1.1,5.6,1.7,8.7,1.7H49.5z"/>
<path class="st2" d="M95.6,505.8c-5.2,9-14.9,15-26,15c-2.7,0-5.2-0.4-7.7-1l4.1,8.6c1.2-0.1,2.4-0.2,3.6-0.2c0,0,0,0,0,0
	c5.3,0,10.3,1.4,14.7,3.8c9.2-5.2,15.4-15,15.4-26.2c0,0,0,0,0,0c0-0.3,0-0.5,0-0.8v0.8H95.6z"/>
<path class="st2" d="M69.5,490.9c5.5,0,10.4,3,13,7.5c1.3-2.2,2-4.8,2-7.5c0-8.3-6.7-15-15-15c-8.3,0-15,6.7-15,15
	c0,2.7,0.7,5.3,2,7.5C59.2,493.9,64,490.9,69.5,490.9z"/>
<path class="st2" d="M43.5,505.8h-4v-0.4c0,0.1,0,0.3,0,0.4c0,11.3,6.2,21.1,15.4,26.2c3.4-1.9,7.1-3.1,11.1-3.6l-4.1-8.6
	C54,517.8,47.5,512.7,43.5,505.8z"/>
<path class="st2" d="M39.5,491.2v14.2c0-2.5,0.4-4.8,0.9-7.1C39.8,496,39.5,493.7,39.5,491.2z"/>
<path class="st2" d="M43.5,505.8c-1.3-2.3-2.4-4.8-3.1-7.5c-0.6,2.3-0.9,4.7-0.9,7.1v0.4H43.5z"/>
<path class="st2" d="M99.6,505v-13.5c-0.1,2.3-0.4,4.6-0.9,6.7C99.2,500.5,99.5,502.7,99.6,505z"/>
<path class="st2" d="M95.6,505.8h4V505c-0.1-2.3-0.4-4.6-0.9-6.7C98,501,96.9,503.5,95.6,505.8z"/>
<path class="st3" d="M69.5,520.9c8.3,0,15-6.7,15-15c0-2.7-0.7-5.3-2-7.5c-2.6,4.5-7.4,7.5-13,7.5v0c-5.5,0-10.4-3-13-7.5
	c-1.1,1.9-1.8,4.1-2,6.5l6.4,13.4C63.5,519.9,66.4,520.9,69.5,520.9z"/>
<path class="st3" d="M76.1,467.6H50.4c-6.6,5.5-10.9,13.8-10.9,23.2h0h4c5.2-9,14.9-15,26-15c0,0,0,0,0,0c11.1,0,20.8,6,26,15h4v0.8
	c0-0.3,0-0.5,0-0.8c0-10.3-5.2-19.4-13.1-24.8c-3.1,1.1-6.5,1.7-10,1.7C76.4,467.7,76.2,467.7,76.1,467.6z"/>
<path class="st3" d="M50.4,467.6h25.7c-6.1-0.1-11.8-2-16.5-5.2C56.2,463.6,53.1,465.4,50.4,467.6z"/>
<path class="st3" d="M76.5,467.6h-0.4C76.2,467.7,76.4,467.7,76.5,467.6c3.5,0,6.9-0.6,10-1.7c-3.9-2.6-8.3-4.4-13.2-5L76.5,467.6z"
	/>
<path class="st3" d="M69.5,460.7c-3.5,0-6.9,0.6-10,1.7c4.7,3.2,10.4,5.1,16.5,5.2h0.4l-3.2-6.7C72.1,460.8,70.8,460.7,69.5,460.7
	C69.6,460.7,69.6,460.7,69.5,460.7z"/>
<path class="st3" d="M61,518.2l-6.4-13.4c0,0.3-0.1,0.7-0.1,1.1C54.5,511,57.1,515.5,61,518.2z"/>
<path class="st3" d="M39.5,490.8L39.5,490.8c0,0.1,0,0.3,0,0.4V490.8z"/>
<path class="st3" d="M53.4,490.8v11.4l1.2,2.6c0.2-2.3,0.9-4.5,2-6.5c-1.3-2.2-2-4.8-2-7.5c0-8.3,6.7-15,15-15c8.3,0,15,6.7,15,15
	c0,2.7-0.7,5.3-2,7.5c1.3,2.2,2,4.8,2,7.5c0,8.3-6.7,15-15,15c-3.2,0-6.1-1-8.5-2.6l0.8,1.7c2.5,0.7,5,1,7.7,1
	c11.1,0,20.8-6.1,26-15h-9.9v-15h9.9c-5.2-9-14.9-15-26-15c0,0,0,0,0,0c-11.1,0-20.8,6-26,15h4.4H53.4z"/>
<path class="st3" d="M54.5,505.9c0-0.4,0-0.7,0.1-1.1l-1.2-2.6v3.6h-9.9c4,6.8,10.5,12,18.3,14l-0.8-1.7
	C57.1,515.5,54.5,511,54.5,505.9z"/>
<path class="st3" d="M40.4,498.3c0.7-2.7,1.7-5.2,3.1-7.5h-4v0.4C39.5,493.7,39.8,496,40.4,498.3z"/>
<polygon class="st3" points="47.9,490.8 53.4,502.2 53.4,490.8 "/>
<path class="st3" d="M43.5,505.8h9.9v-3.6l-5.5-11.4h-4.4c-1.3,2.3-2.4,4.9-3.1,7.5C41.1,501,42.2,503.5,43.5,505.8z"/>
<path class="st3" d="M95.6,490.8c1.3,2.3,2.4,4.8,3.1,7.5c0.6-2.2,0.9-4.4,0.9-6.7v-0.8H95.6z"/>
<path class="st3" d="M85.7,505.8h9.9c1.3-2.3,2.4-4.8,3.1-7.5c-0.7-2.7-1.7-5.2-3.1-7.5h-9.9V505.8z"/>
<path class="st1" d="M49.5,603.4c1.6-1.5,3.4-2.7,5.4-3.8c-9.2-5.2-15.4-15-15.4-26.2c0-0.1,0-0.3,0-0.4v-14.2c0-0.1,0-0.3,0-0.4
	H8.7c-3.1,0-6,0.6-8.7,1.7v41.6c2.7,1.1,5.6,1.7,8.7,1.7H49.5z"/>
<path class="st2" d="M95.6,573.3c-5.2,9-14.9,15-26,15c-2.7,0-5.2-0.4-7.7-1l4.1,8.6c1.2-0.1,2.4-0.2,3.6-0.2c0,0,0,0,0,0
	c5.3,0,10.3,1.4,14.7,3.8c9.2-5.2,15.4-15,15.4-26.2c0,0,0,0,0,0c0-0.3,0-0.5,0-0.8v0.8H95.6z"/>
<path class="st2" d="M69.5,558.4c5.5,0,10.4,3,13,7.5c1.3-2.2,2-4.8,2-7.5c0-8.3-6.7-15-15-15c-8.3,0-15,6.7-15,15
	c0,2.7,0.7,5.3,2,7.5C59.2,561.4,64,558.4,69.5,558.4z"/>
<path class="st2" d="M43.5,573.3h-4v-0.4c0,0.1,0,0.3,0,0.4c0,11.3,6.2,21.1,15.4,26.2c3.4-1.9,7.1-3.1,11.1-3.6l-4.1-8.6
	C54,585.3,47.5,580.2,43.5,573.3z"/>
<path class="st2" d="M39.5,558.7v14.2c0-2.5,0.4-4.8,0.9-7.1C39.8,563.5,39.5,561.2,39.5,558.7z"/>
<path class="st2" d="M43.5,573.3c-1.3-2.3-2.4-4.8-3.1-7.5c-0.6,2.3-0.9,4.7-0.9,7.1v0.4H43.5z"/>
<path class="st2" d="M99.6,572.5v-13.5c-0.1,2.3-0.4,4.6-0.9,6.7C99.2,568,99.5,570.2,99.6,572.5z"/>
<path class="st2" d="M95.6,573.3h4v-0.8c-0.1-2.3-0.4-4.6-0.9-6.7C98,568.5,96.9,571,95.6,573.3z"/>
<path class="st3" d="M69.5,588.4L69.5,588.4c8.3,0,15-6.7,15-15c0-2.7-0.7-5.3-2-7.5c-2.6,4.5-7.4,7.5-13,7.5c0,0,0,0,0,0v0
	c-5.5,0-10.4-3-13-7.5c-1.1,1.9-1.8,4.1-2,6.5l6.4,13.4C63.5,587.4,66.4,588.4,69.5,588.4z"/>
<path class="st3" d="M69.2,535.9H49.5c-6.1,5.5-10,13.5-10,22.4h0h4c5.2-9,14.9-15,26-15c0,0,0,0,0,0c11.1,0,20.8,6,26,15h4v0.8
	c0-0.3,0-0.5,0-0.8c0-11.3-6.2-21.1-15.4-26.2c-4.3,2.4-9.4,3.8-14.7,3.8C69.4,535.9,69.3,535.9,69.2,535.9z"/>
<path class="st3" d="M49.5,535.9h19.7c-5.2-0.1-10.1-1.4-14.3-3.8C52.9,533.2,51.1,534.4,49.5,535.9z"/>
<path class="st3" d="M69.5,528.2c-1.2,0-2.4,0.1-3.6,0.2l3.6,7.5h-0.4c0.1,0,0.3,0,0.4,0c5.3,0,10.4-1.4,14.7-3.8
	C79.9,529.6,74.9,528.2,69.5,528.2C69.6,528.2,69.6,528.2,69.5,528.2z"/>
<path class="st3" d="M69.2,535.9h0.4l-3.6-7.5c-4,0.5-7.8,1.7-11.1,3.6C59.1,534.5,64,535.8,69.2,535.9z"/>
<path class="st3" d="M61,585.7l-6.4-13.4c0,0.3-0.1,0.7-0.1,1.1C54.5,578.5,57.1,583,61,585.7z"/>
<path class="st3" d="M39.5,558.3L39.5,558.3c0,0.1,0,0.3,0,0.4V558.3z"/>
<path class="st3" d="M53.4,558.3v11.4l1.2,2.6c0.2-2.3,0.9-4.5,2-6.5c-1.3-2.2-2-4.8-2-7.5c0-8.3,6.7-15,15-15c8.3,0,15,6.7,15,15
	c0,2.7-0.7,5.3-2,7.5c1.3,2.2,2,4.8,2,7.5c0,8.3-6.7,15-15,15v0c-3.2,0-6.1-1-8.5-2.6l0.8,1.7c2.5,0.7,5,1,7.7,1
	c11.1,0,20.8-6.1,26-15h-9.9v-15h9.9c-5.2-9-14.9-15-26-15c0,0,0,0,0,0c-11.1,0-20.8,6-26,15h4.4H53.4z"/>
<path class="st3" d="M54.5,573.4c0-0.4,0-0.7,0.1-1.1l-1.2-2.6v3.6h-9.9c4,6.8,10.5,12,18.3,14l-0.8-1.7
	C57.1,583,54.5,578.5,54.5,573.4z"/>
<path class="st3" d="M40.4,565.8c0.7-2.7,1.7-5.2,3.1-7.5h-4v0.4C39.5,561.2,39.8,563.5,40.4,565.8z"/>
<polygon class="st3" points="47.9,558.3 53.4,569.7 53.4,558.3 "/>
<path class="st3" d="M43.5,573.3h9.9v-3.6l-5.5-11.4h-4.4c-1.3,2.3-2.4,4.9-3.1,7.5C41.1,568.5,42.2,571,43.5,573.3z"/>
<path class="st3" d="M95.6,558.3c1.3,2.3,2.4,4.8,3.1,7.5c0.6-2.2,0.9-4.4,0.9-6.7v-0.8H95.6z"/>
<path class="st3" d="M85.7,573.3h9.9c1.3-2.3,2.4-4.8,3.1-7.5c-0.7-2.7-1.7-5.2-3.1-7.5h-9.9V573.3z"/>
<path class="st1" d="M49.5,670.9c1.6-1.5,3.4-2.7,5.4-3.8c-9.2-5.2-15.4-15-15.4-26.2c0-0.1,0-0.3,0-0.4v-14.2c0-0.1,0-0.3,0-0.4
	H8.7c-3.1,0-6,0.6-8.7,1.7v41.6c2.7,1.1,5.6,1.7,8.7,1.7H49.5z"/>
<path class="st2" d="M69.5,625.9c5.5,0,10.4,3,13,7.5c1.3-2.2,2-4.8,2-7.5c0-8.3-6.7-15-15-15c-8.3,0-15,6.7-15,15
	c0,2.7,0.7,5.3,2,7.5C59.2,628.9,64,625.9,69.5,625.9z"/>
<path class="st2" d="M95.6,640.8c-5.2,9-14.9,15-26,15c-2.7,0-5.2-0.4-7.7-1l4.1,8.6c1.2-0.1,2.4-0.2,3.6-0.2c0,0,0,0,0,0
	c5.3,0,10.3,1.4,14.7,3.8c9.2-5.2,15.4-15,15.4-26.2c0,0,0,0,0,0c0-0.3,0-0.5,0-0.8v0.8H95.6z"/>
<path class="st2" d="M43.5,640.8h-4v-0.4c0,0.1,0,0.3,0,0.4c0,11.3,6.2,21.1,15.4,26.2c3.4-1.9,7.1-3.1,11.1-3.6l-4.1-8.6
	C54,652.8,47.5,647.7,43.5,640.8z"/>
<path class="st2" d="M39.5,626.2v14.2c0-2.5,0.4-4.8,0.9-7.1C39.8,631,39.5,628.7,39.5,626.2z"/>
<path class="st2" d="M43.5,640.8c-1.3-2.3-2.4-4.8-3.1-7.5c-0.6,2.3-0.9,4.7-0.9,7.1v0.4H43.5z"/>
<path class="st2" d="M99.6,640v-13.5c-0.1,2.3-0.4,4.6-0.9,6.7C99.2,635.5,99.5,637.7,99.6,640z"/>
<path class="st2" d="M95.6,640.8h4V640c-0.1-2.3-0.4-4.6-0.9-6.7C98,636,96.9,638.5,95.6,640.8z"/>
<path class="st3" d="M69.5,655.9L69.5,655.9c8.3,0,15-6.7,15-15c0-2.7-0.7-5.3-2-7.5c-2.6,4.5-7.4,7.5-13,7.5c0,0,0,0,0,0v0
	c-5.5,0-10.4-3-13-7.5c-1.1,1.9-1.8,4.1-2,6.5l6.4,13.4C63.5,654.9,66.4,655.9,69.5,655.9z"/>
<path class="st3" d="M69.2,603.4H49.5c-6.1,5.5-10,13.5-10,22.4h0h4c5.2-9,14.9-15,26-15c0,0,0,0,0,0c11.1,0,20.8,6,26,15h4v0.8
	c0-0.3,0-0.5,0-0.8c0-11.3-6.2-21.1-15.4-26.2c-4.3,2.4-9.4,3.8-14.7,3.8C69.4,603.4,69.3,603.4,69.2,603.4z"/>
<path class="st3" d="M49.5,603.4h19.7c-5.2-0.1-10.1-1.4-14.3-3.8C52.9,600.7,51.1,601.9,49.5,603.4z"/>
<path class="st3" d="M69.5,595.7c-1.2,0-2.4,0.1-3.6,0.2l3.6,7.5h-0.4c0.1,0,0.3,0,0.4,0c5.3,0,10.4-1.4,14.7-3.8
	C79.9,597.1,74.9,595.7,69.5,595.7C69.6,595.7,69.6,595.7,69.5,595.7z"/>
<path class="st3" d="M69.2,603.4h0.4l-3.6-7.5c-4,0.5-7.8,1.7-11.1,3.6C59.1,602,64,603.3,69.2,603.4z"/>
<path class="st3" d="M61,653.2l-6.4-13.4c0,0.3-0.1,0.7-0.1,1.1C54.5,646,57.1,650.5,61,653.2z"/>
<path class="st3" d="M39.5,625.8L39.5,625.8c0,0.1,0,0.3,0,0.4V625.8z"/>
<path class="st3" d="M53.4,625.8v11.4l1.2,2.6c0.2-2.3,0.9-4.5,2-6.5c-1.3-2.2-2-4.8-2-7.5c0-8.3,6.7-15,15-15c8.3,0,15,6.7,15,15
	c0,2.7-0.7,5.3-2,7.5c1.3,2.2,2,4.8,2,7.5c0,8.3-6.7,15-15,15v0c-3.2,0-6.1-1-8.5-2.6l0.8,1.7c2.5,0.7,5,1,7.7,1
	c11.1,0,20.8-6.1,26-15h-9.9v-15h9.9c-5.2-9-14.9-15-26-15c0,0,0,0,0,0c-11.1,0-20.8,6-26,15h4.4H53.4z"/>
<path class="st3" d="M54.5,640.9c0-0.4,0-0.7,0.1-1.1l-1.2-2.6v3.6h-9.9c4,6.8,10.5,12,18.3,14l-0.8-1.7
	C57.1,650.5,54.5,646,54.5,640.9z"/>
<path class="st3" d="M40.4,633.3c0.7-2.7,1.7-5.2,3.1-7.5h-4v0.4C39.5,628.7,39.8,631,40.4,633.3z"/>
<polygon class="st3" points="47.9,625.8 53.4,637.2 53.4,625.8 "/>
<path class="st3" d="M43.5,640.8h9.9v-3.6l-5.5-11.4h-4.4c-1.3,2.3-2.4,4.9-3.1,7.5C41.1,636,42.2,638.5,43.5,640.8z"/>
<path class="st3" d="M95.6,625.8c1.3,2.3,2.4,4.8,3.1,7.5c0.6-2.2,0.9-4.4,0.9-6.7v-0.8H95.6z"/>
<path class="st3" d="M85.7,640.8h9.9c1.3-2.3,2.4-4.8,3.1-7.5c-0.7-2.7-1.7-5.2-3.1-7.5h-9.9V640.8z"/>
<path class="st1" d="M39.5,708.3c0-0.1,0-0.3,0-0.4v-14.2c0-0.1,0-0.3,0-0.4H8.7c-3.1,0-6,0.6-8.7,1.7v41.6c2.7,1.1,5.6,1.7,8.7,1.7
	h60.4C52.7,738.2,39.5,724.8,39.5,708.3z"/>
<path class="st2" d="M95.6,708.3c-5.2,9-14.9,15-26,15c-2.7,0-5.2-0.4-7.7-1l7.7,16h-0.4c0.1,0,0.3,0,0.4,0
	c16.6,0,30.1-13.5,30.1-30.1c0,0,0,0,0,0c0-0.3,0-0.5,0-0.8v0.8H95.6z"/>
<path class="st2" d="M69.5,693.4c5.5,0,10.4,3,13,7.5c1.3-2.2,2-4.8,2-7.5c0-8.3-6.7-15-15-15c-8.3,0-15,6.7-15,15
	c0,2.7,0.7,5.3,2,7.5C59.2,696.4,64,693.4,69.5,693.4z"/>
<path class="st2" d="M61.8,722.4c-7.8-2.1-14.4-7.2-18.3-14h-4v-0.4c0,0.1,0,0.3,0,0.4c0,16.5,13.2,29.8,29.7,30.1h0.4L61.8,722.4z"
	/>
<path class="st2" d="M39.5,693.7v14.2c0-2.5,0.4-4.8,0.9-7.1C39.8,698.5,39.5,696.2,39.5,693.7z"/>
<path class="st2" d="M39.5,707.9v0.4h4c-1.3-2.3-2.4-4.8-3.1-7.5C39.8,703.1,39.5,705.5,39.5,707.9z"/>
<path class="st2" d="M99.6,707.5v-13.5c-0.1,2.3-0.4,4.6-0.9,6.7C99.2,703,99.5,705.2,99.6,707.5z"/>
<path class="st2" d="M95.6,708.3h4v-0.8c-0.1-2.3-0.4-4.6-0.9-6.7C98,703.5,96.9,706,95.6,708.3z"/>
<path class="st3" d="M69.2,670.9H49.5c-6.1,5.5-10,13.5-10,22.4h0h4c5.2-9,14.9-15,26-15c0,0,0,0,0,0c11.1,0,20.8,6,26,15h4v0.8
	c0-0.3,0-0.5,0-0.8c0-11.3-6.2-21.1-15.4-26.2c-4.3,2.4-9.4,3.8-14.7,3.8C69.4,670.9,69.3,670.9,69.2,670.9z"/>
<path class="st3" d="M69.5,723.4L69.5,723.4c8.3,0,15-6.7,15-15c0-2.7-0.7-5.3-2-7.5c-2.6,4.5-7.4,7.5-13,7.5c0,0,0,0,0,0v0
	c-5.5,0-10.4-3-13-7.5c-1.1,1.9-1.8,4.1-2,6.5l6.4,13.4C63.5,722.4,66.4,723.4,69.5,723.4z"/>
<path class="st3" d="M49.5,670.9h19.7c-5.2-0.1-10.1-1.4-14.3-3.8C52.9,668.2,51.1,669.4,49.5,670.9z"/>
<path class="st3" d="M69.5,663.2c-1.2,0-2.4,0.1-3.6,0.2l3.6,7.5h-0.4c0.1,0,0.3,0,0.4,0c5.3,0,10.4-1.4,14.7-3.8
	C79.9,664.6,74.9,663.2,69.5,663.2C69.6,663.2,69.6,663.2,69.5,663.2z"/>
<path class="st3" d="M69.2,670.9h0.4l-3.6-7.5c-4,0.5-7.8,1.7-11.1,3.6C59.1,669.5,64,670.8,69.2,670.9z"/>
<path class="st3" d="M39.5,693.3L39.5,693.3c0,0.1,0,0.3,0,0.4V693.3z"/>
<path class="st3" d="M61,720.7l-6.4-13.4c0,0.3-0.1,0.7-0.1,1.1C54.5,713.5,57.1,718,61,720.7z"/>
<path class="st3" d="M53.4,693.3v11.4l1.2,2.6c0.2-2.3,0.9-4.5,2-6.5c-1.3-2.2-2-4.8-2-7.5c0-8.3,6.7-15,15-15c8.3,0,15,6.7,15,15
	c0,2.7-0.7,5.3-2,7.5c1.3,2.2,2,4.8,2,7.5c0,8.3-6.7,15-15,15v0c-3.2,0-6.1-1-8.5-2.6l0.8,1.7c2.5,0.7,5,1,7.7,1
	c11.1,0,20.8-6.1,26-15h-9.9v-15h9.9c-5.2-9-14.9-15-26-15c0,0,0,0,0,0c-11.1,0-20.8,6-26,15h4.4H53.4z"/>
<path class="st3" d="M54.5,708.4c0-0.4,0-0.7,0.1-1.1l-1.2-2.6v3.6h-9.9c4,6.8,10.5,12,18.3,14l-0.8-1.7
	C57.1,718,54.5,713.5,54.5,708.4z"/>
<path class="st3" d="M40.4,700.8c0.7-2.7,1.7-5.2,3.1-7.5h-4v0.4C39.5,696.2,39.8,698.5,40.4,700.8z"/>
<polygon class="st3" points="47.9,693.3 53.4,704.7 53.4,693.3 "/>
<path class="st3" d="M43.5,708.3h9.9v-3.6l-5.5-11.4h-4.4c-1.3,2.3-2.4,4.9-3.1,7.5C41.1,703.5,42.2,706,43.5,708.3z"/>
<path class="st3" d="M95.6,693.3c1.3,2.3,2.4,4.8,3.1,7.5c0.6-2.2,0.9-4.4,0.9-6.7v-0.8H95.6z"/>
<path class="st3" d="M85.7,708.3h9.9c1.3-2.3,2.4-4.8,3.1-7.5c-0.7-2.7-1.7-5.2-3.1-7.5h-9.9V708.3z"/>
<path class="st4" d="M-4,856.8v20.3c1.3,0.9,2.6,1.8,4,2.7v-19.6C-1.4,859.1-2.7,858-4,856.8z"/>
<path class="st4" d="M96.5,877.1v-20.3C85.8,866.7,69.9,874,46.3,874c-20.8,0-35.7-5.7-46.3-13.8v19.6c11.5,7.3,26.6,12,46.3,12
	C68.3,891.8,84.5,885.8,96.5,877.1z"/>
<path class="st3" d="M153.2,999.7v16.6v0v16.6v16.6H145v51.2c0,4.1,0.4,8.1,1.2,12c0.4,1.9,0.9,3.8,1.5,5.7c0.3,0.9,0.6,1.8,0.9,2.8
	c1.3,3.6,3,7.1,5,10.4c1,1.6,2.1,3.2,3.2,4.7c1.1,1.5,2.4,3,3.6,4.4c1.3,1.4,2.6,2.8,4,4s2.9,2.5,4.4,3.6
	c9.9,7.4,22.2,11.8,35.5,11.8h311.2c13.3,0,25.6-4.4,35.5-11.8c1.5-1.1,3-2.4,4.4-3.6c1.4-1.3,2.8-2.6,4-4c1.3-1.4,2.5-2.9,3.6-4.4
	c1.1-1.5,2.2-3.1,3.2-4.7c2-3.3,3.7-6.7,5-10.4c0.3-0.9,0.6-1.8,0.9-2.8c0.6-1.9,1.1-3.8,1.5-5.7c0.8-3.9,1.2-7.9,1.2-12v-51.2h-7.2
	h-16.6h0h-16.6v-16.6v-10.2h0v10.2v16.6h-16.6h0h-16.6h0h-16.6v-16.6v-16.6v0v-16.6h16.6h0h16.6h0h16.6v16.6v0v0h0v0v0v-16.6h16.6h0
	h16.6h7.2V0H145v999.7H153.2z M202.9,1032.9v-16.6v0v-16.6h16.6h16.6h16.6h0h16.6h16.6h0h16.6H319h0h16.6h16.6h16.6h16.6h0H402h16.6
	h16.6h16.6h0h16.6h16.6v16.6v0v16.6v16.6h-16.6h-16.6h0h-16.6h-16.6H402h-16.6h0h-16.6h-16.6h-16.6H319h0h-16.6h-16.6h0h-16.6h-16.6
	h0h-16.6h-16.6h-16.6V1032.9z M153.2,1032.9v-16.6v0v-16.6h16.6h0h16.6h0h16.6v16.6v0v16.6v16.6h-16.6h0h-16.6h0h-16.6V1032.9z"/>
<polygon class="st5" points="136.6,999.7 136.6,999.7 145,999.7 145,0 135,0 135,999.7 "/>
<polygon class="st5" points="584.4,999.7 584.4,999.7 585,999.7 585,0 575,0 575,999.7 "/>
<path class="st5" d="M584.4,1049.4H575v51.2c0,4.1-0.4,8.1-1.2,12c-0.4,1.9-0.9,3.8-1.5,5.7c-0.3,0.9-0.6,1.8-0.9,2.8
	c-1.3,3.6-3,7.1-5,10.4c-1,1.6-2.1,3.2-3.2,4.7c-1.1,1.5-2.4,3-3.6,4.4c-1.3,1.4-2.6,2.8-4,4c-1.4,1.3-2.9,2.5-4.4,3.6
	c-9.9,7.4-22.2,11.8-35.5,11.8H204.4c-13.3,0-25.6-4.4-35.5-11.8c-1.5-1.1-3-2.4-4.4-3.6s-2.8-2.6-4-4c-1.3-1.4-2.5-2.9-3.6-4.4
	c-1.1-1.5-2.2-3.1-3.2-4.7c-2-3.3-3.7-6.7-5-10.4c-0.3-0.9-0.6-1.8-0.9-2.8c-0.6-1.9-1.1-3.8-1.5-5.7c-0.8-3.9-1.2-7.9-1.2-12v-51.2
	h-8.4h0H135v51.2c0,38.3,31.1,69.3,69.4,69.4h311.2c38.3,0,69.3-31.1,69.4-69.4v-51.2H584.4L584.4,1049.4z"/>
<path class="st5" d="M563.2,1136.1c1.1-1.5,2.2-3.1,3.2-4.7C565.4,1133,564.3,1134.6,563.2,1136.1z"/>
<path class="st5" d="M559.6,1140.5c-1.3,1.4-2.6,2.8-4,4C556.9,1143.3,558.3,1141.9,559.6,1140.5z"/>
<path class="st5" d="M164.5,1144.6c-1.4-1.3-2.8-2.6-4-4C161.7,1141.9,163.1,1143.3,164.5,1144.6z"/>
<path class="st5" d="M572.3,1118.3c0.6-1.9,1.1-3.8,1.5-5.7C573.4,1114.5,572.9,1116.4,572.3,1118.3z"/>
<path class="st5" d="M566.4,1131.4c2-3.3,3.7-6.7,5-10.4C570.1,1124.7,568.4,1128.1,566.4,1131.4z"/>
<path class="st5" d="M156.8,1136.1c1.1,1.5,2.4,3,3.6,4.4C159.2,1139.1,157.9,1137.7,156.8,1136.1z"/>
<path class="st5" d="M164.5,1144.6c1.4,1.3,2.9,2.5,4.4,3.6C167.3,1147.1,165.9,1145.8,164.5,1144.6z"/>
<path class="st5" d="M146.2,1112.6c0.4,1.9,0.9,3.8,1.5,5.7C147.1,1116.4,146.6,1114.5,146.2,1112.6z"/>
<path class="st5" d="M559.6,1140.5c1.3-1.4,2.5-2.9,3.6-4.4C562.1,1137.7,560.8,1139.1,559.6,1140.5z"/>
<path class="st5" d="M551.1,1148.2c1.5-1.1,3-2.4,4.4-3.6C554.1,1145.8,552.7,1147.1,551.1,1148.2z"/>
<path class="st5" d="M148.6,1121c1.3,3.6,3,7.1,5,10.4C151.6,1128.1,149.9,1124.7,148.6,1121z"/>
<path class="st5" d="M153.6,1131.4c1,1.6,2.1,3.2,3.2,4.7C155.7,1134.6,154.6,1133,153.6,1131.4z"/>
<rect y="1016.3" class="st6" width="96.5" height="6.4"/>
<polygon class="st7" points="634.2,999.7 634.2,999.7 634.2,1016.3 634.2,1016.3 634.2,1022.7 641,1022.7 641,877.1 641,856.8 
	634.2,856.8 "/>
<rect x="352.2" y="1032.9" class="st8" width="16.6" height="16.6"/>
<rect x="335.6" y="1032.9" class="st7" width="16.6" height="16.6"/>
<rect x="352.2" y="1016.3" class="st7" width="16.6" height="16.6"/>
<rect x="335.6" y="1016.3" class="st8" width="16.6" height="16.6"/>
<rect x="352.2" y="999.7" class="st8" width="16.6" height="16.6"/>
<rect x="352.2" y="1016.3" class="st8" width="16.6" height="0"/>
<rect x="335.6" y="999.7" class="st7" width="16.6" height="16.6"/>
<rect x="335.6" y="1016.3" class="st7" width="16.6" height="0"/>
<rect x="319" y="1032.9" class="st8" width="16.6" height="16.6"/>
<rect x="302.4" y="1032.9" class="st7" width="16.6" height="16.6"/>
<rect x="319" y="1032.9" class="st7" width="0" height="16.6"/>
<rect x="319" y="1016.3" class="st7" width="16.6" height="16.6"/>
<rect x="302.4" y="1016.3" class="st8" width="16.6" height="16.6"/>
<rect x="319" y="1016.3" class="st8" width="0" height="16.6"/>
<rect x="319" y="999.7" class="st8" width="16.6" height="16.6"/>
<rect x="319" y="1016.3" class="st8" width="16.6" height="0"/>
<rect x="302.4" y="999.7" class="st7" width="16.6" height="16.6"/>
<rect x="302.4" y="1016.3" class="st7" width="16.6" height="0"/>
<rect x="319" y="999.7" class="st7" width="0" height="16.6"/>
<rect x="319" y="1016.3" class="st7" width="0" height="0"/>
<rect x="285.9" y="1032.9" class="st8" width="16.6" height="16.6"/>
<rect x="269.3" y="1032.9" class="st7" width="16.6" height="16.6"/>
<rect x="285.8" y="1032.9" class="st7" width="0" height="16.6"/>
<rect x="285.9" y="1016.3" class="st7" width="16.6" height="16.6"/>
<rect x="269.3" y="1016.3" class="st8" width="16.6" height="16.6"/>
<rect x="285.8" y="1016.3" class="st8" width="0" height="16.6"/>
<rect x="285.9" y="999.7" class="st8" width="16.6" height="16.6"/>
<rect x="285.9" y="1016.3" class="st8" width="16.6" height="0"/>
<rect x="269.3" y="999.7" class="st7" width="16.6" height="16.6"/>
<rect x="269.3" y="1016.3" class="st7" width="16.6" height="0"/>
<rect x="285.8" y="999.7" class="st7" width="0" height="16.6"/>
<rect x="285.8" y="1016.3" class="st7" width="0" height="0"/>
<rect x="252.7" y="1032.9" class="st8" width="16.6" height="16.6"/>
<rect x="236.1" y="1032.9" class="st7" width="16.6" height="16.6"/>
<rect x="252.7" y="1032.9" class="st7" width="0" height="16.6"/>
<rect x="252.7" y="1016.3" class="st7" width="16.6" height="16.6"/>
<rect x="236.1" y="1016.3" class="st8" width="16.6" height="16.6"/>
<rect x="252.7" y="1016.3" class="st8" width="0" height="16.6"/>
<rect x="252.7" y="999.7" class="st8" width="16.6" height="16.6"/>
<rect x="252.7" y="1016.3" class="st8" width="16.6" height="0"/>
<rect x="236.1" y="999.7" class="st7" width="16.6" height="16.6"/>
<rect x="236.1" y="1016.3" class="st7" width="16.6" height="0"/>
<rect x="252.7" y="999.7" class="st7" width="0" height="16.6"/>
<rect x="252.7" y="1016.3" class="st7" width="0" height="0"/>
<rect x="219.5" y="1032.9" class="st8" width="16.6" height="16.6"/>
<rect x="202.9" y="1032.9" class="st7" width="16.6" height="16.6"/>
<rect x="219.5" y="1016.3" class="st7" width="16.6" height="16.6"/>
<rect x="202.9" y="1016.3" class="st8" width="16.6" height="16.6"/>
<rect x="219.5" y="999.7" class="st8" width="16.6" height="16.6"/>
<rect x="219.5" y="1016.3" class="st8" width="16.6" height="0"/>
<rect x="202.9" y="999.7" class="st7" width="16.6" height="16.6"/>
<rect x="202.9" y="1016.3" class="st7" width="16.6" height="0"/>
<rect x="186.3" y="1032.9" class="st8" width="16.6" height="16.6"/>
<rect x="169.8" y="1032.9" class="st7" width="16.6" height="16.6"/>
<rect x="186.3" y="1032.9" class="st7" width="0" height="16.6"/>
<rect x="186.3" y="1016.3" class="st7" width="16.6" height="16.6"/>
<rect x="169.8" y="1016.3" class="st8" width="16.6" height="16.6"/>
<rect x="186.3" y="1016.3" class="st8" width="0" height="16.6"/>
<rect x="186.3" y="999.7" class="st8" width="16.6" height="16.6"/>
<rect x="186.3" y="1016.3" class="st8" width="16.6" height="0"/>
<rect x="169.8" y="999.7" class="st7" width="16.6" height="16.6"/>
<rect x="169.8" y="1016.3" class="st7" width="16.6" height="0"/>
<rect x="186.3" y="999.7" class="st7" width="0" height="16.6"/>
<rect x="186.3" y="1016.3" class="st7" width="0" height="0"/>
<rect x="153.2" y="1032.9" class="st8" width="16.6" height="16.6"/>
<rect x="169.7" y="1032.9" class="st8" width="0" height="16.6"/>
<rect x="145" y="1032.9" class="st7" width="8.2" height="16.6"/>
<rect x="136.6" y="1032.9" class="st7" width="8.4" height="16.6"/>
<rect x="153.2" y="1016.3" class="st7" width="16.6" height="16.6"/>
<rect x="169.7" y="1016.3" class="st7" width="0" height="16.6"/>
<rect x="145" y="1016.3" class="st8" width="8.2" height="16.6"/>
<rect x="136.6" y="1016.3" class="st8" width="8.4" height="16.6"/>
<rect x="153.2" y="999.7" class="st8" width="16.6" height="16.6"/>
<rect x="169.7" y="999.7" class="st8" width="0" height="16.6"/>
<rect x="153.2" y="1016.3" class="st8" width="16.6" height="0"/>
<rect x="169.7" y="1016.3" class="st8" width="0" height="0"/>
<rect x="145" y="999.7" class="st7" width="8.2" height="16.6"/>
<rect x="136.6" y="999.7" class="st7" width="8.4" height="16.6"/>
<rect x="145" y="1016.3" class="st7" width="8.2" height="0"/>
<rect x="136.6" y="1016.3" class="st7" width="8.4" height="0"/>
<rect x="120" y="1032.9" class="st8" width="15" height="16.6"/>
<rect x="135" y="1032.9" class="st8" width="1.6" height="16.6"/>
<rect x="136.6" y="1032.9" class="st8" width="0" height="16.6"/>
<rect x="103.4" y="1032.9" class="st7" width="16.6" height="16.6"/>
<rect x="120" y="1016.3" class="st7" width="15" height="16.6"/>
<rect x="135" y="1016.3" class="st7" width="1.6" height="16.6"/>
<rect x="136.6" y="1016.3" class="st7" width="0" height="16.6"/>
<polygon class="st8" points="120,1016.3 103.4,1016.3 103.4,1016.3 103.4,1022.7 103.4,1032.9 120,1032.9 "/>
<rect x="120" y="999.7" class="st8" width="15" height="16.6"/>
<rect x="135" y="999.7" class="st8" width="1.6" height="16.6"/>
<rect x="136.6" y="999.7" class="st8" width="0" height="16.6"/>
<rect x="120" y="1016.3" class="st8" width="15" height="0"/>
<rect x="135" y="1016.3" class="st8" width="1.6" height="0"/>
<rect x="136.6" y="1016.3" class="st8" width="0" height="0"/>
<rect x="103.4" y="999.7" class="st7" width="16.6" height="16.6"/>
<rect x="103.4" y="1016.3" class="st7" width="16.6" height="0"/>
<rect x="617.6" y="1032.9" class="st8" width="16.6" height="16.6"/>
<rect x="601" y="1032.9" class="st7" width="16.6" height="16.6"/>
<rect x="617.6" y="1016.3" class="st7" width="16.6" height="0"/>
<polygon class="st7" points="634.2,1022.7 617.6,1022.7 617.6,1032.9 634.2,1032.9 634.2,1022.7 634.2,1022.7 "/>
<polygon class="st7" points="634.2,1016.3 634.2,1016.3 634.2,1022.7 634.2,1022.7 634.2,1022.7 634.2,1016.3 "/>
<rect x="601" y="1022.7" class="st8" width="16.6" height="10.2"/>
<rect x="601" y="1016.3" class="st8" width="16.6" height="0"/>
<rect x="617.6" y="999.7" class="st8" width="16.6" height="16.6"/>
<rect x="634.2" y="999.7" class="st8" width="0" height="16.6"/>
<rect x="617.6" y="1016.3" class="st8" width="16.6" height="0"/>
<rect x="634.2" y="1016.3" class="st8" width="0" height="0"/>
<rect x="601" y="999.7" class="st7" width="16.6" height="16.6"/>
<rect x="601" y="1016.3" class="st7" width="16.6" height="0"/>
<rect x="585" y="1032.9" class="st8" width="16" height="16.6"/>
<rect x="584.4" y="1032.9" class="st8" width="0.6" height="16.6"/>
<rect x="567.8" y="1032.9" class="st7" width="7.2" height="16.6"/>
<rect x="575" y="1032.9" class="st7" width="9.4" height="16.6"/>
<rect x="584.4" y="1032.9" class="st7" width="0" height="16.6"/>
<rect x="585" y="1016.3" class="st7" width="16" height="0"/>
<rect x="585" y="1022.7" class="st7" width="16" height="10.2"/>
<rect x="584.4" y="1022.7" class="st7" width="0.6" height="10.2"/>
<rect x="584.4" y="1016.3" class="st7" width="0.6" height="0"/>
<rect x="567.8" y="1016.3" class="st8" width="7.2" height="0"/>
<rect x="567.8" y="1022.7" class="st8" width="7.2" height="10.2"/>
<rect x="575" y="1016.3" class="st8" width="9.4" height="0"/>
<rect x="575" y="1022.7" class="st8" width="9.4" height="10.2"/>
<rect x="584.4" y="1022.7" class="st8" width="0" height="10.2"/>
<rect x="584.4" y="1016.3" class="st8" width="0" height="0"/>
<rect x="585" y="999.7" class="st8" width="16" height="16.6"/>
<rect x="584.4" y="999.7" class="st8" width="0.6" height="16.6"/>
<rect x="585" y="1016.3" class="st8" width="16" height="0"/>
<rect x="584.4" y="1016.3" class="st8" width="0.6" height="0"/>
<rect x="567.8" y="999.7" class="st7" width="7.2" height="16.6"/>
<rect x="575" y="999.7" class="st7" width="9.4" height="16.6"/>
<rect x="567.8" y="1016.3" class="st7" width="7.2" height="0"/>
<rect x="575" y="1016.3" class="st7" width="9.4" height="0"/>
<rect x="584.4" y="999.7" class="st7" width="0" height="16.6"/>
<rect x="584.4" y="1016.3" class="st7" width="0" height="0"/>
<rect x="551.3" y="1032.9" class="st8" width="16.6" height="16.6"/>
<rect x="534.7" y="1032.9" class="st7" width="16.6" height="16.6"/>
<rect x="551.2" y="1032.9" class="st7" width="0" height="16.6"/>
<rect x="551.3" y="1016.3" class="st7" width="16.6" height="0"/>
<rect x="551.3" y="1022.7" class="st7" width="16.6" height="10.2"/>
<rect x="534.7" y="1022.7" class="st8" width="16.6" height="10.2"/>
<rect x="534.7" y="1016.3" class="st8" width="16.6" height="0"/>
<rect x="551.2" y="1016.3" class="st8" width="0" height="0"/>
<rect x="551.2" y="1022.7" class="st8" width="0" height="10.2"/>
<rect x="551.3" y="999.7" class="st8" width="16.6" height="16.6"/>
<rect x="551.3" y="1016.3" class="st8" width="16.6" height="0"/>
<rect x="534.7" y="999.7" class="st7" width="16.6" height="16.6"/>
<rect x="534.7" y="1016.3" class="st7" width="16.6" height="0"/>
<rect x="551.2" y="999.7" class="st7" width="0" height="16.6"/>
<rect x="551.2" y="1016.3" class="st7" width="0" height="0"/>
<rect x="518.1" y="1032.9" class="st8" width="16.6" height="16.6"/>
<rect x="501.5" y="1032.9" class="st7" width="16.6" height="16.6"/>
<rect x="518.1" y="1032.9" class="st7" width="0" height="16.6"/>
<rect x="518.1" y="1022.7" class="st7" width="16.6" height="10.2"/>
<rect x="518.1" y="1016.3" class="st7" width="16.6" height="0"/>
<polygon class="st8" points="509.8,1022.7 509.8,1016.3 518.1,1016.3 518.1,1016.3 501.5,1016.3 501.5,1032.9 518.1,1032.9 
	518.1,1022.7 "/>
<rect x="518.1" y="1022.7" class="st8" width="0" height="10.2"/>
<rect x="518.1" y="1016.3" class="st8" width="0" height="0"/>
<rect x="518.1" y="999.7" class="st8" width="16.6" height="16.6"/>
<rect x="518.1" y="1016.3" class="st8" width="16.6" height="0"/>
<rect x="501.5" y="999.7" class="st7" width="16.6" height="16.6"/>
<rect x="501.5" y="1016.3" class="st7" width="16.6" height="0"/>
<rect x="518.1" y="999.7" class="st7" width="0" height="16.6"/>
<rect x="518.1" y="1016.3" class="st7" width="0" height="0"/>
<rect x="484.9" y="1032.9" class="st8" width="16.6" height="16.6"/>
<rect x="501.5" y="1032.9" class="st8" width="0" height="16.6"/>
<rect x="468.3" y="1032.9" class="st7" width="16.6" height="16.6"/>
<rect x="484.9" y="1016.3" class="st7" width="16.6" height="16.6"/>
<rect x="501.5" y="1016.3" class="st7" width="0" height="16.6"/>
<rect x="468.3" y="1016.3" class="st8" width="16.6" height="16.6"/>
<rect x="484.9" y="999.7" class="st8" width="16.6" height="16.6"/>
<rect x="501.5" y="999.7" class="st8" width="0" height="16.6"/>
<rect x="484.9" y="1016.3" class="st8" width="16.6" height="0"/>
<rect x="501.5" y="1016.3" class="st8" width="0" height="0"/>
<rect x="468.3" y="999.7" class="st7" width="16.6" height="16.6"/>
<rect x="468.3" y="1016.3" class="st7" width="16.6" height="0"/>
<rect x="451.7" y="1032.9" class="st8" width="16.6" height="16.6"/>
<rect x="435.1" y="1032.9" class="st7" width="16.6" height="16.6"/>
<rect x="451.7" y="1032.9" class="st7" width="0" height="16.6"/>
<rect x="451.7" y="1016.3" class="st7" width="16.6" height="16.6"/>
<rect x="435.1" y="1016.3" class="st8" width="16.6" height="16.6"/>
<rect x="451.7" y="1016.3" class="st8" width="0" height="16.6"/>
<rect x="451.7" y="999.7" class="st8" width="16.6" height="16.6"/>
<rect x="451.7" y="1016.3" class="st8" width="16.6" height="0"/>
<rect x="435.1" y="999.7" class="st7" width="16.6" height="16.6"/>
<rect x="435.1" y="1016.3" class="st7" width="16.6" height="0"/>
<rect x="451.7" y="999.7" class="st7" width="0" height="16.6"/>
<rect x="451.7" y="1016.3" class="st7" width="0" height="0"/>
<rect x="418.6" y="1032.9" class="st8" width="16.6" height="16.6"/>
<rect x="402" y="1032.9" class="st7" width="16.6" height="16.6"/>
<rect x="418.6" y="1016.3" class="st7" width="16.6" height="16.6"/>
<rect x="402" y="1016.3" class="st8" width="16.6" height="16.6"/>
<rect x="418.6" y="999.7" class="st8" width="16.6" height="16.6"/>
<rect x="418.6" y="1016.3" class="st8" width="16.6" height="0"/>
<rect x="402" y="999.7" class="st7" width="16.6" height="16.6"/>
<rect x="402" y="1016.3" class="st7" width="16.6" height="0"/>
<rect x="385.4" y="1032.9" class="st8" width="16.6" height="16.6"/>
<rect x="368.8" y="1032.9" class="st7" width="16.6" height="16.6"/>
<rect x="385.4" y="1032.9" class="st7" width="0" height="16.6"/>
<rect x="385.4" y="1016.3" class="st7" width="16.6" height="16.6"/>
<rect x="368.8" y="1016.3" class="st8" width="16.6" height="16.6"/>
<rect x="385.4" y="1016.3" class="st8" width="0" height="16.6"/>
<rect x="385.4" y="999.7" class="st8" width="16.6" height="16.6"/>
<rect x="385.4" y="1016.3" class="st8" width="16.6" height="0"/>
<rect x="368.8" y="999.7" class="st7" width="16.6" height="16.6"/>
<rect x="368.8" y="1016.3" class="st7" width="16.6" height="0"/>
<rect x="385.4" y="999.7" class="st7" width="0" height="16.6"/>
<rect x="385.4" y="1016.3" class="st7" width="0" height="0"/>
<path class="st4" d="M741.6,856.8c-5.6,5.2-12.7,9.6-21.6,12.7v18.2c8.4-2.6,15.5-6.3,21.6-10.7V856.8z"/>
<path class="st4" d="M691.3,874c-23.6,0-39.5-7.3-50.3-17.2v20.3c12,8.8,28.2,14.7,50.3,14.7c10.9,0,20.4-1.5,28.7-4v-18.2
	C712,872.3,702.5,874,691.3,874z"/>
<polygon class="st7" points="103.4,1016.3 103.4,1016.3 103.4,999.7 103.4,856.8 96.5,856.8 96.5,1016.3 103.4,1016.3 "/>
<rect x="96.5" y="1016.3" class="st7" width="6.9" height="6.4"/>
<rect x="617.6" y="1016.3" class="st6" width="0" height="6.4"/>
<rect x="534.7" y="1016.3" class="st6" width="0" height="6.4"/>
<rect x="617.6" y="1016.3" class="st6" width="16.6" height="6.4"/>
<rect x="601" y="1016.3" class="st6" width="16.6" height="6.4"/>
<rect x="585" y="1016.3" class="st6" width="16" height="6.4"/>
<rect x="584.4" y="1016.3" class="st6" width="0.6" height="6.4"/>
<rect x="567.8" y="1016.3" class="st6" width="7.2" height="6.4"/>
<rect x="575" y="1016.3" class="st6" width="9.4" height="6.4"/>
<rect x="584.4" y="1016.3" class="st6" width="0" height="6.4"/>
<rect x="551.3" y="1016.3" class="st6" width="16.6" height="6.4"/>
<rect x="534.7" y="1016.3" class="st6" width="16.6" height="6.4"/>
<rect x="551.2" y="1016.3" class="st6" width="0" height="6.4"/>
<rect x="518.1" y="1016.3" class="st6" width="16.6" height="6.4"/>
<rect x="509.8" y="1016.3" class="st6" width="8.3" height="6.4"/>
<rect x="518.1" y="1016.3" class="st6" width="0" height="6.4"/>
</svg>
