<svg xmlns="http://www.w3.org/2000/svg" viewBox="0 0 720 1280"><defs><style>.cls-1{fill:#899853;}.cls-2{fill:#3d505c;}.cls-3{fill:#e5e5e5;}.cls-4{fill:#6b7741;}.cls-5{fill:#141414;}.cls-6{fill:#2e3845;}.cls-7{fill:#303f48;}.cls-8{fill:#b4b4b4;}.cls-9{fill:#f8752a;}</style></defs><title>fondPlan de travail 1 copie 6</title><g id="décors"><rect class="cls-1" width="720" height="1280"/><rect class="cls-2" x="144.93" width="430" height="1280" transform="translate(719.85 1280) rotate(-180)"/><rect class="cls-3" x="135" width="10" height="1280" transform="translate(280 1280) rotate(-180)"/><rect class="cls-3" x="575" width="10" height="1280" transform="translate(1160 1280) rotate(-180)"/><rect class="cls-4" y="291.73" width="103.39" height="6.4"/><rect class="cls-5" x="96.53" y="132.26" width="6.86" height="165.87"/><path class="cls-4" d="M4.77,598.67H65.61l19.73-45.1H4.77a22.71,22.71,0,0,0-4.77.51v44.08A22.71,22.71,0,0,0,4.77,598.67Z"/><path class="cls-4" d="M8.3,665.32H69.14l19.74-45.1H8.3A22.45,22.45,0,0,0,0,621.81v41.93A22.45,22.45,0,0,0,8.3,665.32Z"/><path class="cls-4" d="M4.9,732.69H65.74l19.73-45.1H4.9a22.57,22.57,0,0,0-4.9.54v44A22.57,22.57,0,0,0,4.9,732.69Z"/><path class="cls-4" d="M4.9,800.19H65.74l19.73-45.1H4.9a22.57,22.57,0,0,0-4.9.54v44A22.57,22.57,0,0,0,4.9,800.19Z"/><path class="cls-4" d="M4.9,867.69H65.74l19.73-45.1H4.9a22.57,22.57,0,0,0-4.9.54v44A22.57,22.57,0,0,0,4.9,867.69Z"/><path class="cls-4" d="M4.9,935.19H65.74l19.73-45.1H4.9a22.57,22.57,0,0,0-4.9.54v44A22.57,22.57,0,0,0,4.9,935.19Z"/><path class="cls-4" d="M11.83,1022H72.67l19.74-45.1H11.83A22.47,22.47,0,0,0,0,980.21v38.39A22.39,22.39,0,0,0,11.83,1022Z"/><path class="cls-4" d="M0,1042.49v44a22.57,22.57,0,0,0,4.9.54H65.74L85.47,1042H4.9A22.57,22.57,0,0,0,0,1042.49Z"/><g id="pneu"><path class="cls-6" d="M65.61,538.54A30.07,30.07,0,1,0,95.67,568.6,30.06,30.06,0,0,0,65.61,538.54Zm0,45.09a15,15,0,1,1,15-15A15,15,0,0,1,65.61,583.63Z"/><rect class="cls-6" x="35.55" y="553.57" width="13.87" height="15.03"/><rect class="cls-6" x="81.79" y="553.57" width="13.87" height="15.03"/><path class="cls-2" d="M65.61,523.5a30.07,30.07,0,1,0,30.06,30.07A30.06,30.06,0,0,0,65.61,523.5Zm0,45.1a15,15,0,1,1,15-15A15,15,0,0,1,65.61,568.6Z"/></g><g id="pneu-2" data-name="pneu"><path class="cls-6" d="M69.14,605.19a30.07,30.07,0,1,0,30.07,30.07A30.06,30.06,0,0,0,69.14,605.19Zm0,45.1a15,15,0,1,1,15-15A15,15,0,0,1,69.14,650.29Z"/><rect class="cls-6" x="39.08" y="620.22" width="13.87" height="15.03"/><rect class="cls-6" x="85.32" y="620.22" width="13.87" height="15.03"/><path class="cls-2" d="M69.14,590.16a30.07,30.07,0,1,0,30.07,30.06A30.06,30.06,0,0,0,69.14,590.16Zm0,45.1a15,15,0,1,1,15-15A15,15,0,0,1,69.14,635.26Z"/></g><g id="pneu-3" data-name="pneu"><path class="cls-6" d="M65.74,672.56a30.07,30.07,0,1,0,30.07,30.06A30.06,30.06,0,0,0,65.74,672.56Zm0,45.1a15,15,0,1,1,15-15A15,15,0,0,1,65.74,717.66Z"/><rect class="cls-6" x="35.68" y="687.59" width="13.87" height="15.03"/><rect class="cls-6" x="81.92" y="687.59" width="13.87" height="15.03"/><path class="cls-2" d="M65.74,657.53a30.07,30.07,0,1,0,30.07,30.06A30.06,30.06,0,0,0,65.74,657.53Zm0,45.09a15,15,0,1,1,15-15A15,15,0,0,1,65.74,702.62Z"/></g><g id="pneu-4" data-name="pneu"><path class="cls-6" d="M65.74,740.06a30.07,30.07,0,1,0,30.07,30.06A30.06,30.06,0,0,0,65.74,740.06Zm0,45.1a15,15,0,1,1,15-15A15,15,0,0,1,65.74,785.16Z"/><rect class="cls-6" x="35.68" y="755.09" width="13.87" height="15.03"/><rect class="cls-6" x="81.92" y="755.09" width="13.87" height="15.03"/><path class="cls-2" d="M65.74,725a30.07,30.07,0,1,0,30.07,30.06A30.06,30.06,0,0,0,65.74,725Zm0,45.09a15,15,0,1,1,15-15A15,15,0,0,1,65.74,770.12Z"/></g><g id="pneu-5" data-name="pneu"><path class="cls-6" d="M65.74,807.56a30.07,30.07,0,1,0,30.07,30.06A30.06,30.06,0,0,0,65.74,807.56Zm0,45.1a15,15,0,1,1,15-15A15,15,0,0,1,65.74,852.66Z"/><rect class="cls-6" x="35.68" y="822.59" width="13.87" height="15.03"/><rect class="cls-6" x="81.92" y="822.59" width="13.87" height="15.03"/><path class="cls-2" d="M65.74,792.53a30.07,30.07,0,1,0,30.07,30.06A30.06,30.06,0,0,0,65.74,792.53Zm0,45.09a15,15,0,1,1,15-15A15,15,0,0,1,65.74,837.62Z"/></g><g id="pneu-6" data-name="pneu"><path class="cls-6" d="M65.74,875.06a30.07,30.07,0,1,0,30.07,30.06A30.06,30.06,0,0,0,65.74,875.06Zm0,45.1a15,15,0,1,1,15-15A15,15,0,0,1,65.74,920.16Z"/><rect class="cls-6" x="35.68" y="890.09" width="13.87" height="15.03"/><rect class="cls-6" x="81.92" y="890.09" width="13.87" height="15.03"/><path class="cls-2" d="M65.74,860a30.07,30.07,0,1,0,30.07,30.06A30.06,30.06,0,0,0,65.74,860Zm0,45.09a15,15,0,1,1,15-15A15,15,0,0,1,65.74,905.12Z"/></g><g id="pneu-7" data-name="pneu"><path class="cls-6" d="M72.67,961.83a30.07,30.07,0,1,0,30.07,30.06A30.06,30.06,0,0,0,72.67,961.83Zm0,45.09a15,15,0,1,1,15-15A15,15,0,0,1,72.67,1006.92Z"/><rect class="cls-6" x="42.61" y="976.86" width="13.87" height="15.03"/><rect class="cls-6" x="88.86" y="976.86" width="13.87" height="15.03"/><path class="cls-2" d="M72.67,946.79a30.07,30.07,0,1,0,30.07,30.07A30.06,30.06,0,0,0,72.67,946.79Zm0,45.1a15,15,0,1,1,15-15A15,15,0,0,1,72.67,991.89Z"/></g><g id="pneu-8" data-name="pneu"><path class="cls-6" d="M65.74,1026.92A30.07,30.07,0,1,0,95.81,1057,30.06,30.06,0,0,0,65.74,1026.92Zm0,45.1a15,15,0,1,1,15-15A15,15,0,0,1,65.74,1072Z"/><rect class="cls-6" x="35.68" y="1041.95" width="13.87" height="15.03"/><rect class="cls-6" x="81.92" y="1041.95" width="13.87" height="15.03"/><path class="cls-2" d="M65.74,1011.89A30.07,30.07,0,1,0,95.81,1042,30.06,30.06,0,0,0,65.74,1011.89Zm0,45.1a15,15,0,1,1,15-15A15,15,0,0,1,65.74,1057Z"/></g><rect class="cls-5" x="625.4" y="132.26" width="6.86" height="165.87"/><rect class="cls-7" x="500.29" y="291.73" width="74.64" height="6.4"/><rect class="cls-4" x="585.04" y="291.73" width="40.36" height="6.4"/><rect class="cls-8" x="574.96" y="291.73" width="10.07" height="6.4" transform="translate(1160 589.86) rotate(180)"/><path class="cls-9" d="M46.28,149.42c-20.85,0-35.69-5.71-46.28-13.83V155.2c11.55,7.28,26.6,12.05,46.28,12.05,22,0,38.26-6,50.25-14.74V132.26C85.79,142.11,69.87,149.42,46.28,149.42Z"/><path class="cls-9" d="M682.51,149.42c-23.6,0-39.51-7.31-50.26-17.16v20.25c12,8.78,28.25,14.74,50.26,14.74,15,0,27.36-2.78,37.49-7.34V141.17C710.38,146.2,698.14,149.42,682.51,149.42Z"/></g></svg>