<svg width="228" height="200" viewBox="0 0 228 200" fill="none" xmlns="http://www.w3.org/2000/svg">
<path d="M108.158 69.5875C106.761 74.1831 103.89 76.9983 99.4366 77.0624L99.1298 78.085L98.7907 79.2239L96.1015 86.5705L93.5538 88.6317C92.7237 88.4456 91.9299 88.126 91.2038 87.6853L88.6479 88.3791L87.4608 88.4312L84.808 90.1395H81.1741L83.7986 93.6203C83.7986 93.6203 84.3316 97.2535 85.2361 98.4766L85.3047 104.468L82.9346 105.747L80.193 103.786L77.4877 104.989C77.4877 104.989 74.6047 105.53 72.6868 104.588C70.7689 103.646 67.1835 101.059 67.1835 101.059C67.1835 101.059 65.2495 96.9087 62.9762 93.9732L61.7447 91.2944L64.6963 88.2548L62.6006 86.0973L62.419 84.802C62.419 84.802 54.2184 82.7047 57.5737 78.9071C57.5737 78.9071 61.2481 76.4569 63.5778 76.9381V74.4999L66.8887 73.1485H70.8134L73.995 70.578L76.8214 71.781L79.135 67.6265L79.8497 61.2544L80.4473 55.9209L85.6075 57.1239C86.9804 57.1593 88.3484 56.9474 89.6452 56.4984C91.7327 55.7645 95.5484 59.4097 95.5484 59.4097L98.73 57.934C98.73 57.934 99.1904 57.8578 99.7516 57.8257C100.616 57.7736 101.722 57.8257 101.803 58.4152C101.928 59.3857 101.827 61.9241 104.383 62.3452C105.068 62.4454 105.725 62.6865 106.311 63.0532C106.897 63.4199 107.4 63.904 107.787 64.4746C108.562 65.6375 108.861 67.3338 108.158 69.5875Z" fill="#373684"/>
<path d="M82.9027 105.933L80.1934 103.956L77.5689 105.107C77.4154 105.139 74.581 105.656 72.6388 104.706C70.6967 103.756 67.1516 101.189 67.1153 101.161H67.083V101.125C67.0628 101.081 65.1287 96.9545 62.8918 94.0671L61.5997 91.26L64.523 88.2524L62.5042 86.1631L62.3265 84.92C61.6078 84.7235 57.4328 83.5004 56.7504 81.3109C56.5001 80.5088 56.7505 79.6627 57.4974 78.8125L57.5257 78.7885C57.6751 78.6882 61.091 76.4265 63.4611 76.7834V74.4254L66.9254 73.0259H70.7976L74.0278 70.4313L76.8178 71.6344L79.0507 67.6242L80.3751 55.7822L85.7048 57.0214H85.9512C87.214 57.018 88.4677 56.808 89.6618 56.3998C91.6806 55.69 95.0804 58.7457 95.6457 59.2711L98.7749 57.8274C98.7749 57.8274 99.2514 57.7512 99.8126 57.7191C101.202 57.6349 101.945 57.8755 102.021 58.4369C102.021 58.5492 102.049 58.6816 102.062 58.838C102.158 59.9809 102.324 61.8937 104.484 62.2466C105.191 62.3507 105.868 62.5998 106.472 62.9782C107.076 63.3566 107.594 63.8558 107.993 64.4442V64.4843C108.857 65.8437 108.982 67.6483 108.356 69.6975C106.879 74.5537 103.854 77.1724 99.6027 77.2766L98.9889 79.3338L96.2837 86.7286L93.647 88.858H93.5783C92.7513 88.6743 91.9594 88.3602 91.2325 87.9276L88.7412 88.6013L87.5622 88.6575L84.9054 90.3658H81.5097L83.9807 93.6782C83.9807 93.7143 84.5178 97.2873 85.39 98.4663L85.4181 98.5064V98.5545L85.4909 104.634L82.9027 105.933ZM80.2217 103.611L82.9269 105.58L85.1315 104.377L85.0669 98.5224C84.2069 97.3194 83.6981 94.0872 83.6335 93.6782L80.8515 89.9888H84.7641L87.4128 88.2805L88.6241 88.2284L91.2123 87.5186L91.2688 87.5547C91.958 87.9743 92.7105 88.2816 93.4976 88.465L95.9566 86.4599L98.6336 79.1534L99.3079 76.8957H99.4169C103.584 76.8355 106.552 74.2851 107.997 69.525C108.603 67.5199 108.482 65.7996 107.646 64.5123L107.621 64.4722C107.246 63.9286 106.761 63.4681 106.197 63.1196C105.634 62.7711 105.004 62.5421 104.347 62.4471C101.965 62.0461 101.779 59.9167 101.678 58.7658C101.678 58.6214 101.654 58.4971 101.642 58.3888C101.593 58.0279 100.903 57.8595 99.748 57.9277C99.2675 57.9557 98.8557 58.0199 98.7628 58.0319L95.5084 59.5438L95.4317 59.4716C95.3953 59.4355 91.6564 55.9025 89.682 56.5923C88.3654 57.0523 86.9748 57.2671 85.5797 57.2259L80.5971 56.075L79.2849 67.6683L76.9027 71.9431L74.0318 70.712L70.8784 73.2585H66.9295L63.7438 74.5578V77.0801L63.558 77.0441C61.3938 76.5949 57.9537 78.8045 57.6872 78.9769C57.025 79.7349 56.7989 80.4767 57.017 81.1745C57.6994 83.3681 62.4316 84.6032 62.476 84.6152L62.5769 84.6393L62.7626 85.9867L64.9268 88.2123L61.947 91.2841L63.1341 93.8666C65.2619 96.6096 67.1273 100.503 67.3252 100.916C67.6845 101.173 70.9793 103.531 72.7761 104.409C74.5728 105.288 77.4518 104.81 77.4801 104.81L80.2217 103.611Z" fill="#161648"/>
<path d="M80.5121 55.8284L79.8984 61.1619L79.1635 67.53L76.8337 71.6765L74.0073 70.4734L70.8176 73.0319H66.8929L63.578 74.3713V76.8095C61.2482 76.3202 57.5658 78.7584 57.5658 78.7584L57.162 77.2426H51.8686C54.4003 76.1558 53.0193 74.9007 53.0193 74.9007C50.0274 73.2445 48.5294 77.2426 48.5294 77.2426C47.5523 76.1558 47.5522 72.6149 47.5522 72.6149L45.3074 72.2139L45.6545 70.4414L42.7757 71.472L41.9682 69.3586C37.1229 69.0699 37.4217 68.5566 35.9116 66.9525C34.4015 65.3485 30.9735 68.6167 30.9735 68.6167L28.4418 64.1013L24.1699 62.385L26.2533 61.5829C30.5697 61.5829 31.9506 59.4135 30.4526 58.7758C28.9546 58.1382 27.174 59.7463 27.174 59.7463C27.2804 59.253 27.2684 58.7418 27.1386 58.254C27.0088 57.7663 26.765 57.3158 26.427 56.9392L30.283 56.9953L30.9735 57.5086C31.7205 57.2239 30.7433 56.1372 30.7433 56.1372L24.5858 55.8244C23.4351 54.7136 25.0461 51.1485 25.0461 51.1485L28.0946 50.8839C28.785 46.7694 36.8968 47.796 36.8968 47.796L38.6249 50.2543L39.3718 48.3093C39.3718 48.3093 43.9143 51.0523 44.5482 48.5981C45.1821 46.1439 48.4607 45.5664 48.4607 45.5664C48.4607 45.5664 48.0005 47.6838 48.2307 47.9725C48.4608 48.2612 50.516 45.7268 50.6533 45.5664L49.8457 48.3735C52.0301 45.8591 52.2684 49.1154 52.2684 49.1154L55.9507 54.5411L62.1082 51.0002L63.0853 53.8554L64.7529 52.5441L67.228 54.6574L66.2509 52.3155L69.1258 50.2583L69.4124 53.0654L72.8929 52.536C73.1957 55.5356 75.9171 56.7387 75.9171 56.7387L78.3398 54.5371L80.5121 55.8284Z" fill="#2F2F70"/>
<path d="M57.4767 78.981L57.0325 77.3769H51.1214L51.7916 77.0922C52.6476 76.7233 53.1402 76.2902 53.2169 75.837C53.2315 75.6828 53.2107 75.5272 53.1562 75.3821C53.1017 75.2369 53.0147 75.1059 52.902 74.9989C52.6007 74.8124 52.2615 74.6948 51.9088 74.6546C51.5561 74.6144 51.199 74.6525 50.863 74.7663C49.4175 75.2956 48.6624 77.2606 48.6543 77.2807L48.5655 77.5133L48.4 77.3288C47.4915 76.3182 47.3946 73.3828 47.3865 72.7251L45.1133 72.3241L45.4403 70.6639L42.6705 71.6544L41.8629 69.493C37.7202 69.2403 37.3406 68.7992 36.3433 67.6443C36.1899 67.4638 36.0204 67.2673 35.8145 67.0468C35.7007 66.9204 35.5612 66.8194 35.4054 66.7502C35.2495 66.6811 35.0807 66.6455 34.91 66.6457C33.3393 66.5936 31.1064 68.6829 31.0862 68.703L30.945 68.8393L28.3366 64.2036L23.7578 62.3629L26.2531 61.4205C29.35 61.4205 30.731 60.3217 30.8723 59.632C30.9329 59.3232 30.7632 59.0666 30.3917 58.9102C29.0068 58.3247 27.2908 59.8365 27.2746 59.8525L26.9355 60.1573L27.0244 59.7122C27.1214 59.2437 27.1082 58.7592 26.9856 58.2966C26.863 57.834 26.6345 57.4058 26.3178 57.0454L26.0593 56.7848L30.3353 56.8489L30.9893 57.3342C31.0156 57.3212 31.0387 57.3026 31.0568 57.2797C31.075 57.2569 31.0878 57.2302 31.0943 57.2018C31.1589 56.9372 30.836 56.484 30.6704 56.2875L24.521 55.9747L24.4806 55.9346C23.2693 54.7637 24.84 51.2387 24.9086 51.0904L24.9449 51.0102L27.9651 50.7455C28.7968 46.6712 36.5816 47.6055 36.9167 47.6497H36.9813L38.5964 49.9274L39.307 48.0828L39.4605 48.175C39.4928 48.175 42.3676 49.9114 43.7566 49.35C43.925 49.2814 44.0734 49.1722 44.1884 49.0321C44.3033 48.892 44.3811 48.7255 44.4147 48.5479C45.0648 46.0255 48.307 45.428 48.4524 45.404L48.6745 45.3639L48.6301 45.5844C48.4441 46.3092 48.3491 47.0541 48.3474 47.802C48.5009 47.7138 49.0056 47.3208 50.4955 45.5203L51.0002 44.9268L50.1927 47.8101C50.7055 47.3369 51.1496 47.1644 51.5332 47.2928C52.2641 47.5334 52.4175 48.7966 52.4417 49.0452L55.9666 54.3386L62.1645 50.7776L63.1295 53.5847L64.7446 52.3255L66.8321 54.11L66.0528 52.2413L69.2386 49.9635L69.5334 52.8629L73.0138 52.3335V52.4899C73.2763 55.0644 75.4001 56.2915 75.8645 56.5281L78.2871 54.3185L80.6612 55.7261L79.2844 67.5801L76.886 71.8469L74.0192 70.6078L70.8576 73.1422H66.9089L63.715 74.4335V76.9559L63.5333 76.9198C61.2924 76.4466 57.6745 78.8206 57.6382 78.8446L57.4767 78.981ZM52.4982 77.0721H57.2668L57.6705 78.5038C58.4175 78.0306 61.3489 76.3062 63.4364 76.611V74.253L66.9048 72.8615H70.7769L74.0071 70.283L76.7932 71.486L79.0421 67.4759L80.3745 55.9026L78.3557 54.6995L75.9331 56.889L75.8443 56.8489C75.816 56.8489 73.135 55.6178 72.7474 52.6824L69.2668 53.2117L68.9882 50.5129L66.4242 52.3496L67.5993 55.1567L64.7365 52.7145L63.0003 54.0779L62.0111 51.1946L55.8899 54.7155L52.1065 49.1414V49.1013C52.0783 48.7284 51.9006 47.7339 51.404 47.5695C51.0527 47.4532 50.5521 47.7579 49.9545 48.4477L49.5103 48.961L50.3179 46.194C48.6786 48.1188 48.408 48.1148 48.299 48.1188C48.267 48.1195 48.2352 48.1125 48.2065 48.0986C48.1777 48.0846 48.1527 48.0641 48.1335 48.0386C47.9114 47.7659 48.1335 46.4787 48.2829 45.7408C47.548 45.9213 45.2222 46.6431 44.7135 48.6121C44.6683 48.8347 44.5684 49.0428 44.4226 49.2178C44.2767 49.3927 44.0896 49.529 43.8777 49.6146C42.5292 50.156 40.1105 48.8728 39.4685 48.5078L38.6852 50.553L36.832 47.9143C36.0648 47.8301 28.8897 47.1524 28.2639 50.8858L28.2438 51.0021L25.171 51.2668C24.9449 51.7881 23.774 54.6754 24.6744 55.6539L30.8359 55.9667L30.8763 56.0148C30.945 56.091 31.5304 56.7607 31.4093 57.2459C31.3872 57.3353 31.3422 57.4175 31.2784 57.4843C31.2147 57.5511 31.1346 57.6003 31.0459 57.6269L30.9692 57.655L30.2505 57.1216L26.7699 57.0735C27.2517 57.7345 27.4756 58.5467 27.3998 59.3593C27.9893 58.9182 29.3299 58.1001 30.5331 58.6054C30.7541 58.6724 30.9427 58.8176 31.0632 59.0134C31.1838 59.2092 31.2278 59.4422 31.1872 59.6681C30.9812 60.6706 29.241 61.6732 26.3016 61.6972L24.6017 62.3469L28.5667 63.9509L31.0338 68.3621C31.5667 67.8889 33.4564 66.3009 34.9301 66.357C35.1401 66.3574 35.3478 66.4006 35.5402 66.4841C35.7326 66.5676 35.9056 66.6895 36.0486 66.8422C36.2585 67.0668 36.4282 67.2673 36.5856 67.4478C37.5547 68.5746 37.8817 68.9516 41.988 69.2002H42.089L42.8724 71.2654L45.8602 70.1947L45.4928 72.0795L47.7095 72.4805V72.6048C47.7095 72.6369 47.7095 75.7167 48.5171 76.9318C48.7755 76.3583 49.5265 74.9508 50.7983 74.4896C51.1803 74.3595 51.5868 74.3161 51.9879 74.3626C52.389 74.4091 52.7744 74.5443 53.116 74.7583C53.2753 74.8987 53.3985 75.0751 53.4751 75.2725C53.5517 75.47 53.5795 75.6828 53.5561 75.8932C53.4789 76.1553 53.3439 76.3971 53.1609 76.6011C52.978 76.805 52.7516 76.9659 52.4982 77.0721Z" fill="#161648"/>
<path d="M122.541 33.832C122.73 36.1178 122.896 39.5665 122.331 40.8378L122.246 41.0343L120.869 44.1421L118.709 45.3452L118.765 47.9197V47.9558L115.131 51.5649L114.796 51.597L111.917 51.8537L108.82 53.5379C108.82 53.5379 111.683 56.8423 110.633 58.8754C109.584 60.9086 107.637 63.03 107.807 64.4616C107.367 63.7811 106.754 63.2278 106.03 62.8575C105.672 62.6665 105.29 62.5197 104.896 62.4204C104.721 62.3689 104.543 62.3287 104.363 62.3001L104.141 62.256H104.108L103.919 62.2039C103.865 62.1913 103.812 62.1739 103.761 62.1517C101.876 61.4299 101.952 59.2644 101.843 58.3822C101.787 57.9451 101.169 57.8007 100.503 57.7807C100.284 57.7686 100.064 57.7686 99.8446 57.7807C99.4863 57.7982 99.1292 57.8344 98.7746 57.8889L95.5849 59.3526C95.5849 59.3526 91.7813 55.6954 89.6938 56.4252C88.396 56.8688 87.028 57.0753 85.6561 57.0348L80.5 55.8317L78.3075 54.5324L75.8849 56.734C75.8849 56.734 73.1635 55.531 72.8606 52.5314L75.8404 52.4752L73.2845 49.4075C73.2845 49.4075 73.9387 41.0182 72.5699 38.4798C71.2012 35.9414 70.014 35.408 70.014 35.408C70.014 35.408 70.1917 30.4475 70.014 29.6815C69.8364 28.9156 68.7664 28.2619 68.7664 27.0228C68.7664 27.0228 72.5699 29.7978 73.8782 29.858C75.1864 29.9181 77.3869 28.4424 77.3869 28.4424C77.3869 28.4424 79.111 29.858 79.0504 31.1573C78.9898 32.4565 78.4568 33.9924 79.4542 34.9388C80.4515 35.8852 80.1083 37.7139 80.1083 37.7139L82.6359 35.9414L85.2847 36.9439L85.8176 37.4773L89.2658 37.3008C89.2658 37.3008 92.1205 39.0693 94.0222 38.7765C95.924 38.4838 99.2187 36.0256 102.376 35.6767L99.2793 35.384L97.8742 33.82L99.8607 30.1627L106.58 26.333C106.58 26.333 115.987 25.5791 118.034 21.9219L123.174 27.6684L123.643 29.6976L122.298 31.6706C122.298 31.6706 122.44 32.5728 122.541 33.832Z" fill="#373684"/>
<path d="M108.053 65.1106L107.69 64.5492C107.266 63.8929 106.673 63.3602 105.974 63.0053C105.625 62.8213 105.255 62.6786 104.872 62.5802C104.701 62.5309 104.527 62.492 104.351 62.4639L104.121 62.4198L104.056 62.3997L103.882 62.3556C103.826 62.3399 103.771 62.3212 103.717 62.2995C101.977 61.6338 101.823 59.7771 101.738 58.7826C101.738 58.6422 101.738 58.5139 101.706 58.4096C101.658 58.0086 100.935 57.9525 100.495 57.9404C100.28 57.9284 100.064 57.9284 99.8487 57.9404C99.5026 57.9572 99.1576 57.9921 98.8152 58.0447L95.5486 59.5445L95.476 59.4723C95.4396 59.4362 91.7127 55.8913 89.7383 56.577C88.4199 57.0339 87.0275 57.2433 85.632 57.1946L80.4072 55.9554L78.3117 54.7163L75.889 56.9058L75.8002 56.8657C75.772 56.8657 72.9939 55.5945 72.6871 52.5428V52.3784L75.5135 52.3262L73.1191 49.451V49.3908C73.1191 49.3066 73.7531 41.0176 72.4206 38.5634C71.0882 36.1092 69.9455 35.5598 69.9334 35.5558L69.8446 35.5157V35.4154C69.9092 33.7071 69.9859 30.3185 69.8446 29.725C69.74 29.4165 69.5768 29.1306 69.364 28.8829C68.9074 28.3692 68.6373 27.7183 68.5969 27.0342V26.7375L68.8352 26.9139C68.8756 26.942 72.6185 29.6609 73.8662 29.721C75.1138 29.7812 77.2618 28.3455 77.282 28.3295L77.3749 28.2653L77.4637 28.3375C77.5364 28.3977 79.2443 29.8173 79.1797 31.1767C79.1797 31.4855 79.1273 31.8143 79.0869 32.1311C78.9577 33.1778 78.8325 34.1683 79.5512 34.842C80.3587 35.5798 80.3588 36.807 80.2942 37.4045L82.6077 35.8004L85.3857 36.8671L85.8702 37.3523L89.2983 37.1759L89.3386 37.2C89.3668 37.2 92.165 38.9363 93.99 38.6556C94.7733 38.5353 95.7949 38.0381 96.982 37.4526C98.3423 36.7331 99.7756 36.1591 101.258 35.7403L99.1987 35.5438L97.6846 33.8555L99.7397 30.0699L106.559 26.2001C106.652 26.2001 115.911 25.3981 117.893 21.8651L117.998 21.6807L123.316 27.6518L123.796 29.7451L122.448 31.7221C122.472 31.9426 122.565 32.7687 122.65 33.8394C122.86 36.3698 122.993 39.6501 122.428 40.9174L122.347 41.1139L120.946 44.2658L118.822 45.4689L118.879 48.0554L115.172 51.7367L111.942 52.0295L109.035 53.6095C109.58 54.2792 111.72 57.0943 110.747 58.9711C110.37 59.6678 109.957 60.345 109.511 61.0002C108.651 62.3195 107.835 63.5667 107.948 64.469L108.053 65.1106ZM100.236 57.6317C100.337 57.6317 100.434 57.6317 100.523 57.6317C101.448 57.6557 101.948 57.9044 102.005 58.3615C102.005 58.4738 102.029 58.6021 102.041 58.7625C102.126 59.757 102.263 61.4253 103.826 62.0228C103.87 62.0435 103.916 62.0583 103.963 62.0669L104.157 62.123H104.201L104.399 62.1591C104.586 62.1895 104.771 62.231 104.952 62.2834C105.357 62.3853 105.748 62.5361 106.115 62.7326C106.719 63.0411 107.25 63.4729 107.674 63.9998C107.799 63.0734 108.522 61.9706 109.289 60.8117C109.721 60.15 110.165 59.4723 110.5 58.8066C111.49 56.8858 108.732 53.6696 108.708 53.6335L108.582 53.4932L111.905 51.7047L115.063 51.4199L118.6 47.903L118.543 45.2644L120.74 44.0292L122.177 40.769C122.581 39.8226 122.67 37.3604 122.379 33.8354C122.278 32.5923 122.169 31.686 122.169 31.674V31.6218L123.51 29.6528L123.066 27.728L118.087 22.1619C115.879 25.6186 107.359 26.4086 106.652 26.4688L100.002 30.2584L98.0884 33.7873L99.3804 35.227L103.878 35.652L102.421 35.8124C100.62 36.0129 98.7869 36.9072 97.1718 37.6932C95.9605 38.2787 94.9187 38.784 94.095 38.8962C92.2659 39.181 89.6536 37.6491 89.274 37.4245L85.8056 37.601L85.2484 37.0435L82.7047 36.0811L79.9389 38.022L80.0075 37.6571C80.0075 37.6371 80.3386 35.8926 79.3978 35.0184C78.5903 34.2445 78.7113 33.1297 78.8446 32.0509C78.885 31.7261 78.9213 31.4213 78.9334 31.1206C78.9859 30.0699 77.7464 28.8989 77.4113 28.6022C76.9631 28.8909 75.1097 30.0418 73.9065 29.9777C72.7032 29.9135 69.8688 27.9445 68.9805 27.3069C69.0944 27.8088 69.3301 28.2755 69.6669 28.6664C69.9057 28.9468 70.0868 29.2711 70.1999 29.6208C70.3654 30.3466 70.2281 34.5813 70.1999 35.2911C70.5108 35.4716 71.5606 36.1974 72.7356 38.3789C74.064 40.8412 73.5431 48.5046 73.4745 49.3307L76.1878 52.5909L73.0627 52.6511C73.3937 55.1133 75.4409 56.2923 75.889 56.5249L78.3117 54.3153L80.5808 55.6627L85.7168 56.8657H85.9994C87.2508 56.8634 88.4934 56.6575 89.6778 56.2562C91.6966 55.5504 95.0883 58.6182 95.6496 59.1435L98.7869 57.7119C99.1468 57.657 99.5093 57.6208 99.873 57.6036L100.236 57.6317Z" fill="#161648"/>
<path d="M156.53 32.5264L157.6 34.2989L157.124 36.7772H154.628L152.803 38.1527L151.188 39.3758L152.614 42.211L150.829 45.5594L148.81 49.2969L144.885 47.5244C144.885 47.5244 145.006 43.8631 142.39 43.9835C139.774 44.1038 135.663 45.3389 131.032 42.5478C131.032 42.5478 129.11 41.4891 125.218 42.3032L122.254 41.024L122.339 40.8275C122.666 40.0896 122.743 38.6138 122.722 37.0579C122.722 36.7491 122.722 36.4363 122.694 36.1276C122.694 35.6383 122.646 35.1571 122.617 34.6959C122.597 34.3912 122.573 34.0984 122.549 33.8217C122.448 32.5625 122.339 31.6562 122.339 31.6562L123.683 29.6832L123.215 27.6541L118.075 21.9076L119.561 19.9025H122.056L120.066 17.4242L122.056 15.772C122.056 15.772 118.055 8.33319 123.671 2.30994L132.271 0.184568C132.271 0.184568 136.075 -0.404932 135.837 2.78314C135.599 5.97121 139.64 7.73969 139.64 7.73969C139.64 7.73969 143.92 4.31502 144.635 7.73969C145.35 11.1644 146.775 12.8205 146.775 12.8205L150.005 12.7002L151.552 14.589V16.951C151.552 16.951 155.831 15.8883 157.378 16.7144C158.924 17.5405 157.378 18.2503 158.924 20.6123C160.471 22.9743 158.686 22.9743 158.924 23.6841L159.562 25.5728C159.562 25.5728 159.502 30.2968 156.53 32.5264Z" fill="#43458D"/>
<path d="M148.867 49.5033L144.724 47.6305V47.5303C144.724 47.5303 144.772 45.5894 143.815 44.651C143.625 44.4702 143.398 44.3321 143.149 44.2463C142.901 44.1605 142.636 44.1289 142.374 44.1537C141.881 44.1778 141.332 44.242 140.759 44.3061C138.219 44.5949 134.739 44.9879 130.943 42.7021C130.943 42.7021 129.017 41.6835 125.238 42.4775H125.189L122.044 41.1221L122.185 40.7852C122.464 40.1637 122.589 38.8804 122.561 37.0798C122.561 36.7791 122.561 36.4783 122.533 36.1816C122.508 35.6643 122.484 35.183 122.456 34.7219C122.456 34.4211 122.412 34.1284 122.387 33.8517C122.286 32.6085 122.177 31.7022 122.177 31.6902V31.6381L123.518 29.6691L123.074 27.7442L117.877 21.9335L119.492 19.76H121.749L119.864 17.41L121.883 15.7378C121.418 14.7834 118.325 7.84585 123.591 2.21559L123.619 2.17949L132.239 0.0420864C132.332 0.0420864 134.23 -0.254668 135.3 0.727819C135.571 0.9944 135.775 1.32076 135.895 1.68033C136.015 2.0399 136.047 2.42252 135.99 2.79706C135.784 5.60416 139.063 7.29645 139.624 7.56513C140.06 7.23229 142.225 5.66031 143.662 6.1696C144.243 6.37812 144.627 6.89543 144.797 7.70949C145.422 10.7131 146.614 12.3573 146.856 12.67L150.086 12.5497L151.701 14.5548V16.7805C152.561 16.5799 156.042 15.8461 157.451 16.6C158.303 17.0572 158.303 17.5223 158.303 18.1078C158.269 18.982 158.532 19.8421 159.05 20.55C160.152 22.2303 159.619 22.8278 159.268 23.2248C159.086 23.4253 159.021 23.5175 159.07 23.6539L159.716 25.5667V25.5908C159.716 25.7873 159.635 30.3067 156.744 32.5925L157.778 34.3008L157.265 36.9555H154.697L151.39 39.4498L152.791 42.2569L148.867 49.5033ZM145.031 47.4381L148.737 49.1103L150.688 45.5012L152.436 42.2249L150.99 39.3456L154.576 36.6387H156.999L157.439 34.3409L156.332 32.5043L156.437 32.42C159.207 30.3308 159.385 25.9637 159.393 25.6028L158.763 23.7381C158.658 23.4213 158.844 23.2127 159.025 23.0122C159.352 22.6473 159.756 22.1902 158.783 20.6984C158.229 19.9448 157.945 19.0285 157.976 18.0958C157.976 17.5344 157.976 17.2256 157.281 16.8526C155.803 16.0506 151.608 17.0933 151.564 17.1013L151.374 17.1494V14.6471L149.912 12.8585L146.682 12.9788L146.634 12.9227C146.577 12.8545 145.176 11.1983 144.461 7.77767C144.316 7.07188 143.997 6.62675 143.521 6.45833C142.12 5.95706 139.733 7.84183 139.713 7.86188L139.64 7.91803L139.556 7.88193C139.386 7.80974 135.417 6.03325 135.663 2.77701C135.713 2.44801 135.685 2.11204 135.582 1.79546C135.479 1.47889 135.304 1.19032 135.07 0.952386C134.101 0.0661429 132.288 0.334824 132.272 0.338834L123.756 2.44818C118.309 8.31904 122.141 15.6295 122.181 15.7017L122.238 15.81L120.267 17.4461L122.363 20.0568H119.629L118.261 21.9135L123.356 27.6359L123.837 29.7292L122.488 31.7062C122.512 31.9268 122.605 32.7529 122.69 33.8236C122.714 34.1003 122.739 34.393 122.759 34.7018C122.787 35.163 122.815 35.6442 122.84 36.1334C122.84 36.4663 122.86 36.7711 122.868 37.0678C122.9 38.9446 122.767 40.2318 122.464 40.9015L122.44 40.9577L125.222 42.1607C129.094 41.3587 131.016 42.3853 131.093 42.4294C134.807 44.6711 138.227 44.2821 140.722 44.0014C141.312 43.9332 141.869 43.869 142.37 43.849C142.673 43.8241 142.978 43.8641 143.265 43.9665C143.551 44.0689 143.812 44.2312 144.029 44.4425C144.962 45.3568 145.031 47.009 145.031 47.4381Z" fill="#1E1E56"/>
<path d="M142.778 69.8596C142.152 70.2914 141.626 70.8505 141.235 71.4997L141.336 73.2361L139.317 74.0141L140.88 77.0016C140.88 77.0016 142.144 78.5375 140.206 79.2193C138.267 79.901 140.206 80.6308 140.206 80.6308L139.479 83.7868L139.442 83.9432L141.195 85.0019C141.195 85.0019 142.77 93.1866 142.103 95.8895L139.778 97.1527H137.355L135.223 98.6043L135.037 101.692C135.037 101.692 130.866 101.415 130.386 103.922C130.386 103.922 124.467 103.168 122.912 103.946L121.701 104.547L121.156 104.82H118.434L116.888 105.622C116.888 105.622 113.193 105.117 112.608 104.062C112.022 103.007 113.088 102.033 111.825 101.363C110.561 100.694 109.975 100.405 109.975 100.405C109.975 100.405 108.207 94.0488 106.164 92.7054C104.121 91.362 100.822 91.759 100.822 91.759L96.0896 86.5458L98.7787 79.1992L99.1179 78.0603L99.4247 77.0377C103.866 76.9736 106.749 74.1584 108.146 69.5628C108.833 67.3091 108.55 65.6128 107.779 64.4258C107.344 63.7636 106.747 63.2225 106.043 62.8538C106.766 63.2241 107.379 63.7774 107.819 64.4579C107.637 63.0263 109.58 60.9009 110.645 58.8717C111.711 56.8426 108.833 53.5342 108.833 53.5342L111.93 51.85L114.808 51.5933L115.144 51.5612L118.777 47.9521V47.916C119.181 48.0403 120.837 48.7742 121.103 52.5558C121.41 56.8947 125.096 57.2677 125.1 58.5229C125.105 59.778 125.791 61.2458 125.989 62.0518C126.187 62.8578 130.834 60.0467 132.389 61.4864C133.943 62.926 134.242 63.5997 134.242 63.5997C134.242 63.5997 133.862 65.7211 134.831 65.9136C135.8 66.1061 139.782 65.9136 139.782 65.9136L139.846 65.8213C140.04 65.5727 140.682 64.9551 141.724 65.9898C142.05 66.3105 142.348 66.6594 142.612 67.0324C142.685 67.1367 142.753 67.2449 142.818 67.3492C142.842 67.3853 142.862 67.4214 142.883 67.4575C143.403 68.3798 143.541 69.2981 142.778 69.8596Z" fill="#373684"/>
<path d="M116.936 105.803H116.888C116.734 105.803 113.108 105.273 112.495 104.166C112.29 103.744 112.228 103.267 112.317 102.807C112.377 102.262 112.418 101.869 111.772 101.528C110.528 100.862 109.935 100.573 109.927 100.573L109.866 100.541V100.477C109.866 100.413 108.089 94.1611 106.115 92.8578C104.141 91.5545 100.91 91.9315 100.866 91.9355H100.785L95.9399 86.594L98.6614 79.1632L99.3356 76.9054H99.4446C103.612 76.8453 106.579 74.2948 108.025 69.5348C108.63 67.5297 108.509 65.8094 107.674 64.5221L107.649 64.482C107.233 63.8556 106.664 63.345 105.994 62.9982L106.135 62.7336C106.741 63.0409 107.274 63.4729 107.698 64.0008C107.823 63.0744 108.546 61.9716 109.313 60.8127C109.745 60.151 110.189 59.4733 110.524 58.8076C111.513 56.8868 108.756 53.6706 108.731 53.6345L108.606 53.4942L111.929 51.7057L115.087 51.4209L118.628 47.9V47.7637L118.822 47.7877C119.322 47.9401 120.986 48.7341 121.244 52.5598C121.438 55.2867 122.976 56.3895 124.099 57.1955C124.737 57.6527 125.242 58.0176 125.242 58.5389C125.308 59.4304 125.511 60.3066 125.843 61.1375C125.964 61.4824 126.065 61.7832 126.126 62.0318C126.32 62.1481 127.123 61.8874 127.83 61.6588C129.372 61.1576 131.488 60.4558 132.485 61.3942C134.052 62.8378 134.359 63.5276 134.371 63.5557V63.5998V63.6439C134.274 64.1933 134.165 65.6489 134.839 65.7813C135.711 65.9497 139.131 65.7813 139.684 65.7813L139.705 65.7532C139.801 65.6191 139.926 65.5074 140.07 65.4257C140.215 65.344 140.375 65.2943 140.54 65.28C140.784 65.2872 141.024 65.346 141.243 65.4525C141.463 65.559 141.657 65.7107 141.812 65.8976C142.147 66.2248 142.452 66.5818 142.721 66.9643C142.794 67.0685 142.866 67.1808 142.931 67.2851L142.991 67.3894C143.649 68.5242 143.609 69.4466 142.878 69.9919C142.287 70.4082 141.784 70.9355 141.396 71.5439L141.501 73.3484L139.523 74.1064L141.005 76.9455C141.167 77.1428 141.285 77.3723 141.35 77.6185C141.416 77.8648 141.427 78.1221 141.384 78.3732C141.292 78.6191 141.14 78.8388 140.942 79.0128C140.745 79.1869 140.507 79.3102 140.25 79.3717C139.567 79.6123 139.491 79.8208 139.491 79.897C139.491 80.1376 140.003 80.4063 140.254 80.5025L140.379 80.5507L139.612 83.8831L141.328 84.9217V84.9859C141.392 85.3228 142.898 93.2348 142.232 95.9376V96.0018L139.773 97.3171H137.395L135.376 98.7046L135.186 101.869H135.037C134.993 101.869 130.999 101.632 130.543 103.978L130.515 104.118H130.374C130.317 104.118 124.482 103.38 122.989 104.118L121.18 105.005H118.495L116.936 105.803ZM110.124 100.325C110.302 100.413 110.892 100.726 111.917 101.255C112.725 101.692 112.68 102.27 112.62 102.831C112.533 103.237 112.582 103.659 112.761 104.034C113.205 104.836 115.838 105.361 116.88 105.51L118.454 104.708H121.139L122.847 103.85C124.313 103.116 129.348 103.681 130.273 103.794C130.83 101.572 134.137 101.544 134.9 101.572L135.081 98.5563L137.31 97.0404H139.733L141.966 95.8374C142.547 93.2629 141.199 85.9163 141.053 85.1423L139.265 84.0636L140.024 80.7672C139.761 80.6509 139.184 80.3462 139.188 79.9291C139.188 79.6163 139.503 79.3516 140.149 79.1271C140.36 79.0788 140.556 78.9806 140.72 78.841C140.885 78.7014 141.013 78.5244 141.094 78.325C141.122 78.1153 141.107 77.9019 141.049 77.6982C140.99 77.4946 140.89 77.3052 140.754 77.142L139.095 73.978L141.186 73.176L141.09 71.5078V71.4717C141.492 70.8025 142.033 70.2257 142.676 69.7794C143.44 69.21 143.121 68.2676 142.721 67.5778C142.703 67.5432 142.682 67.5097 142.66 67.4776C142.592 67.3693 142.527 67.265 142.454 67.1608C142.196 66.7952 141.904 66.4542 141.582 66.1422C141.457 65.9843 141.299 65.8547 141.12 65.7621C140.94 65.6694 140.743 65.6158 140.54 65.6048C140.42 65.6173 140.304 65.6552 140.199 65.7161C140.095 65.777 140.004 65.8594 139.935 65.9577L139.83 66.1061H139.757C139.596 66.1061 135.752 66.3106 134.771 66.1061C133.789 65.9016 133.999 64.0088 134.052 63.6679C133.967 63.5115 133.563 62.8659 132.255 61.6388C131.387 60.8368 129.372 61.4944 127.898 61.9716C126.828 62.3205 126.255 62.497 125.968 62.3366C125.928 62.3164 125.893 62.2876 125.866 62.2521C125.839 62.2167 125.82 62.1757 125.811 62.132C125.75 61.8954 125.649 61.6027 125.532 61.2618C125.19 60.4 124.981 59.4913 124.915 58.567C124.915 58.1981 124.466 57.8773 123.897 57.4682C122.791 56.6662 121.123 55.4632 120.921 52.6119C120.679 49.1993 119.306 48.3411 118.809 48.1446L115.176 51.7538L111.945 52.0465L109.038 53.6265C109.583 54.2962 111.723 57.1113 110.75 58.9881C110.373 59.6848 109.961 60.3621 109.515 61.0172C108.655 62.3366 107.839 63.5837 107.952 64.486V64.5101C108.76 65.8615 108.889 67.642 108.271 69.6671C106.793 74.5234 103.769 77.142 99.5174 77.2463L98.9037 79.3035L96.2428 86.5739L100.862 91.6628C101.391 91.6107 104.314 91.3861 106.228 92.6413C108.239 93.9045 109.91 99.6109 110.116 100.325H110.124Z" fill="#161648"/>
<path d="M135.227 113.949L132.583 116.523L133.301 118.577L133.063 122.398L133.689 124.832V127.407L131.811 127.744L129.074 130.511L128.739 133.041C127.006 133.947 126.542 136.795 126.542 136.795C126.542 136.795 121.939 137.749 121.047 136.726C120.902 136.577 120.743 136.442 120.57 136.325C120.441 136.229 120.296 136.133 120.142 136.041C119.65 135.743 119.128 135.498 118.584 135.311C118.141 135.14 117.669 135.057 117.195 135.066C117.148 135.069 117.103 135.075 117.058 135.086C116.908 135.105 116.771 135.179 116.674 135.294C116.577 135.408 116.526 135.554 116.533 135.704C116.533 137.272 114.954 141.499 112.277 142.589C109.6 143.68 110.149 149.543 110.149 149.543L107.953 150.497C107.953 150.497 108.708 156.773 105.07 156.569C101.432 156.364 100.741 157.455 100.741 157.455C100.741 157.455 97.9148 157.25 95.9363 157.319C93.9578 157.387 93.2593 160.045 93.2593 160.045L92.5042 158.341C88.5917 157.387 87.8366 166.999 87.8366 166.999L90.7196 167.204C92.1611 168.158 92.5042 172.589 92.5042 172.589L86.3791 183.196L82.4261 184.824L81.1744 183.389C78.8608 180.325 80.4032 181.091 76.7329 180.517C73.0626 179.944 70.6764 177.069 70.6764 177.069C70.6764 177.069 67.9752 178.504 67.8783 177.931C67.7814 177.357 69.134 173.239 69.134 173.239L63.1582 171.037C63.1582 171.037 66.6266 167.877 67.7854 165.772C68.9442 163.667 69.3237 158.786 71.0599 152.851C72.7961 146.916 71.3506 145.096 73.0788 143.945C74.8069 142.794 75.4449 140.737 75.5014 140.604C75.0976 141.27 73.0788 141.647 73.0788 141.647C74.4314 137.533 74.8151 124.403 75.3925 123.842C75.9699 123.28 75.9739 121.64 76.3574 121.929C76.982 122.592 77.5621 123.296 78.0937 124.034C79.0081 124.716 79.7712 125.578 80.3353 126.566C80.8994 127.554 81.2524 128.647 81.3722 129.777C81.9411 128.541 82.0394 127.142 81.6489 125.84C81.2583 124.538 80.4054 123.42 79.2484 122.695C76.6481 121.067 74.3103 117.349 74.3103 117.349C75.4409 116.231 77.5163 113.03 77.5163 113.03V110.151L75.4409 108.395C76.2484 107.753 77.5163 104.97 77.5163 104.97L80.2216 103.767L82.9349 105.74L85.305 104.461L85.2364 98.4696C84.3319 97.2666 83.7989 93.6133 83.7989 93.6133L81.1744 90.1325H84.8083L87.4611 88.4242L88.6482 88.3721L91.2041 87.6783C91.9302 88.1189 92.724 88.4386 93.5541 88.6247L96.1018 86.5635L100.834 91.7767C100.834 91.7767 104.137 91.3757 106.176 92.7231C108.215 94.0705 109.988 100.423 109.988 100.423C109.988 100.423 110.573 100.707 111.837 101.381C113.101 102.055 112.035 103.017 112.62 104.08C113.206 105.143 116.9 105.64 116.9 105.64L118.447 104.838H121.168L121.713 104.565L122.924 103.964C124.479 103.186 130.398 103.939 130.398 103.939C130.362 106.57 132.647 106.943 132.647 106.943L135.243 110.476L135.227 113.949Z" fill="#2F2F70"/>
<path d="M82.3657 185.007L81.0455 183.491C80.4762 182.737 80.145 182.224 79.9028 181.851C79.3657 181.021 79.3657 181.021 78.1746 180.872C77.8072 180.824 77.3308 180.768 76.7009 180.668C73.394 180.147 71.0723 177.76 70.616 177.259C69.974 177.596 68.3388 178.402 67.8704 178.174C67.8268 178.154 67.7888 178.124 67.7599 178.086C67.731 178.048 67.7121 178.004 67.7049 177.957C67.616 177.408 68.6618 174.131 68.9162 173.333L62.8596 171.096L63.0453 170.927C63.0776 170.899 66.5056 167.759 67.6402 165.714C68.2539 164.595 68.6537 162.646 69.1584 160.18C69.6025 158.01 70.1032 155.556 70.9027 152.825C71.4923 150.858 71.8275 148.825 71.9 146.774C71.9808 145.29 72.0211 144.476 72.9861 143.835C73.9318 143.146 74.668 142.213 75.114 141.136C74.4769 141.455 73.797 141.682 73.0951 141.809L72.8449 141.858L72.9256 141.601C73.7049 139.235 74.1571 133.897 74.5407 129.611C74.8839 125.552 75.0413 123.996 75.2997 123.736C75.5599 123.379 75.734 122.967 75.8085 122.533C75.9256 122.096 76.0063 121.807 76.2122 121.731C76.2562 121.716 76.3032 121.714 76.3485 121.723C76.3938 121.732 76.4359 121.753 76.4707 121.783C77.1063 122.446 77.6921 123.155 78.2231 123.904C79.903 125.205 81.0507 127.068 81.4533 129.145C81.8399 127.986 81.8253 126.732 81.412 125.582C80.9986 124.431 80.2102 123.451 79.1719 122.797C76.5716 121.169 74.2823 117.556 74.1854 117.404L74.1207 117.303L74.2096 117.215C75.2472 116.189 77.1329 113.321 77.3711 112.96V110.193L75.2069 108.365L75.3482 108.253C76.1154 107.639 77.3671 104.908 77.3671 104.884L77.3913 104.832L80.2177 103.585L82.923 105.554L85.1275 104.351L85.063 98.4958C84.2029 97.2928 83.6942 94.0606 83.6296 93.6515L80.8476 89.9622H84.7601L87.4089 88.2539L88.6202 88.2017L91.2083 87.4919L91.2648 87.528C91.9547 87.9466 92.7069 88.2538 93.4937 88.4383L96.0979 86.333L100.875 91.5983C101.404 91.5462 104.327 91.3216 106.241 92.5768C108.219 93.8761 109.875 99.5826 110.097 100.296C110.274 100.385 110.864 100.697 111.889 101.227C112.697 101.664 112.653 102.241 112.592 102.803C112.505 103.208 112.555 103.631 112.733 104.006C113.178 104.808 115.81 105.333 116.852 105.481L118.426 104.679H121.112L122.82 103.821C124.398 103.019 130.136 103.749 130.382 103.781H130.515V103.914C130.483 106.38 132.534 106.753 132.639 106.769H132.7L135.361 110.378V113.987L132.74 116.537L133.439 118.543L133.2 122.368L133.818 124.774V127.509L131.86 127.862L129.195 130.557L128.856 133.115L128.787 133.152C127.14 134.014 126.672 136.761 126.668 136.797V136.897L126.567 136.921C126.086 137.021 121.851 137.863 120.914 136.805C120.777 136.657 120.625 136.522 120.462 136.404C120.336 136.312 120.195 136.219 120.058 136.127C119.574 135.836 119.061 135.596 118.527 135.409C118.104 135.246 117.653 135.166 117.199 135.173H117.09C117.029 135.176 116.969 135.192 116.914 135.219C116.859 135.246 116.81 135.283 116.77 135.329C116.729 135.375 116.699 135.428 116.68 135.486C116.66 135.544 116.653 135.605 116.658 135.666C116.658 137.19 115.136 141.541 112.309 142.692C109.77 143.726 110.291 149.433 110.291 149.509V149.613L108.094 150.568C108.159 151.225 108.401 154.474 106.992 155.965C106.744 156.226 106.44 156.428 106.102 156.555C105.764 156.681 105.401 156.729 105.042 156.695C101.573 156.503 100.854 157.497 100.846 157.497L100.798 157.573H100.709C100.681 157.573 97.8826 157.369 95.9203 157.441C94.067 157.501 93.3927 160.028 93.3846 160.052L93.2756 160.453L92.3752 158.42C92.1077 158.359 91.8302 158.358 91.5622 158.416C91.2943 158.475 91.0425 158.591 90.8248 158.756C88.705 160.276 88.0791 165.822 87.9984 166.809L90.7682 167.005L90.8005 167.029C92.2864 168.012 92.6377 172.343 92.6498 172.527V172.575V172.615L86.4681 183.307L82.3657 185.007ZM70.6887 176.89L70.7694 176.982C70.7937 177.011 73.1921 179.818 76.7493 180.379C77.3751 180.475 77.8476 180.535 78.215 180.58C79.5192 180.744 79.5555 180.764 80.1571 181.694C80.3953 182.067 80.7264 182.573 81.2796 183.298L82.4546 184.646L86.2581 183.078L92.3349 172.555C92.2905 172.094 91.931 168.248 90.6511 167.342L87.6592 167.13V166.977C87.6794 166.704 88.2084 160.296 90.6391 158.556C90.9029 158.358 91.2087 158.222 91.5334 158.158C91.858 158.095 92.1928 158.106 92.5125 158.191H92.5852L93.207 159.598C93.4896 158.833 94.277 157.192 95.9041 157.148C97.6929 157.084 100.172 157.245 100.644 157.277C100.879 157.02 101.856 156.218 105.05 156.398C105.366 156.429 105.685 156.387 105.983 156.276C106.28 156.164 106.548 155.987 106.766 155.757C108.203 154.237 107.779 150.544 107.775 150.491V150.383L109.976 149.425C109.911 148.587 109.632 143.478 112.208 142.427C114.785 141.376 116.367 137.214 116.367 135.682C116.352 135.489 116.414 135.297 116.538 135.148C116.662 134.998 116.84 134.902 117.034 134.88C117.084 134.868 117.135 134.861 117.187 134.86C117.682 134.85 118.174 134.936 118.636 135.112C119.193 135.301 119.726 135.55 120.227 135.854C120.378 135.944 120.524 136.042 120.663 136.147C120.846 136.276 121.014 136.424 121.164 136.588C121.834 137.354 125.089 136.893 126.413 136.628C126.514 136.103 127.043 133.781 128.597 132.907L128.933 130.405L131.739 127.565L133.54 127.245V124.794L132.91 122.388L133.148 118.571L132.409 116.457L135.074 113.859V110.486L132.542 107.041C131.866 106.884 131.265 106.498 130.843 105.949C130.421 105.401 130.204 104.724 130.229 104.034C129.353 103.93 124.346 103.376 122.961 104.062L121.152 104.948H118.467L116.912 105.75H116.864C116.711 105.75 113.085 105.221 112.471 104.114C112.267 103.691 112.204 103.215 112.293 102.755C112.354 102.209 112.394 101.816 111.748 101.475C110.504 100.81 109.911 100.521 109.903 100.521L109.842 100.489V100.425C109.842 100.361 108.066 94.1087 106.091 92.8054C104.117 91.5021 100.887 91.879 100.842 91.8831H100.762L96.0738 86.718L93.5825 88.7231H93.5139C92.6869 88.5394 91.8948 88.2253 91.1679 87.7927L88.6767 88.4664L87.4977 88.5226L84.8409 90.2309H81.4452L83.9162 93.5433C83.9162 93.5794 84.4532 97.1524 85.3254 98.3314L85.3537 98.3715V98.4196L85.4263 104.499L82.8906 105.866L80.1935 103.958L77.6094 105.109C77.4358 105.485 76.398 107.651 75.651 108.413L77.6497 110.105V113.097L77.6254 113.133C77.5407 113.261 75.6269 116.209 74.4842 117.392C74.888 117.993 77.0037 121.145 79.3092 122.605C80.4942 123.353 81.3673 124.501 81.7679 125.837C82.1685 127.174 82.0697 128.609 81.4896 129.879L81.2231 130.461L81.2029 129.819C81.0745 128.715 80.7221 127.648 80.167 126.683C79.6118 125.718 78.8653 124.875 77.9727 124.205L77.9444 124.177C77.4258 123.454 76.8607 122.766 76.2527 122.116C76.167 122.298 76.102 122.489 76.0589 122.685C75.9713 123.165 75.7707 123.617 75.4734 124.004C75.2635 124.253 75.0292 127.016 74.8031 129.687C74.4478 133.849 73.9956 138.994 73.2729 141.501C73.9189 141.356 75.0696 141.015 75.328 140.582L75.9983 139.451L75.5946 140.703C75.5219 140.935 74.8274 143.004 73.1275 144.123C72.2876 144.681 72.2513 145.399 72.1745 146.83C72.1029 148.903 71.7636 150.958 71.1651 152.946C70.3576 155.669 69.8691 158.119 69.4249 160.28C68.9162 162.771 68.5124 164.74 67.8785 165.894C66.861 167.743 64.1355 170.346 63.4006 171.031L69.2836 173.197L69.2392 173.337C68.7224 174.913 67.9229 177.564 67.9875 177.957C68.153 178.077 69.3562 177.628 70.5635 176.987L70.6887 176.89Z" fill="#161648"/>
<path d="M171.55 158.316L168.215 161.227L167.71 164.435C165.385 165.638 164.981 167.242 164.981 167.242L161.944 170.759L159.926 168.449L156.292 170.054C150.93 174.573 145.39 176.847 144.3 178.659C143.286 180.401 142.617 182.319 142.329 184.31C141.859 187.38 142.506 190.517 144.154 193.156L140.924 193.056L134.464 195.57C128.003 192.362 124.551 195.57 124.551 195.57L123.037 193.256L120.211 192.153L121.018 190.549C120.917 189.042 115.919 189.246 115.919 189.246L114.138 187.197H111.408C109.688 185.557 103.418 183.62 103.418 183.62C103.822 186.732 99.7839 187.738 97.8579 186.932C95.9319 186.126 92.8996 187.033 91.4864 186.932C90.0732 186.832 86.3989 183.191 86.3989 183.191L92.5241 172.584C92.5241 172.584 92.1809 168.173 90.7395 167.198L87.8565 166.994C87.8565 166.994 88.6116 157.369 92.5241 158.336L93.2791 160.04C93.2791 160.04 93.9656 157.381 95.9561 157.313C97.9467 157.245 100.761 157.45 100.761 157.45C100.761 157.45 101.447 156.359 105.089 156.563C108.731 156.768 107.972 150.492 107.972 150.492L110.169 149.538C110.169 149.538 109.62 143.675 112.297 142.584C114.974 141.493 116.532 137.275 116.532 135.707C116.521 135.551 116.571 135.398 116.672 135.279C116.773 135.159 116.917 135.084 117.073 135.069C118.123 134.86 120.384 135.951 121.063 136.729C121.955 137.752 126.558 136.797 126.558 136.797L127.269 141.842C127.975 146.883 133.236 142.945 133.236 142.945C133.236 142.945 136.37 137.018 137.484 137.623C138.598 138.229 141.223 143.951 141.223 143.951L143.448 138.626L147.485 136.817L149.197 140.535L151.826 138.726L155.569 141.742C155.699 143.165 156.004 144.567 156.477 145.916C156.546 146.121 156.619 146.317 156.695 146.514C156.772 146.71 156.829 146.851 156.893 147.011C157.148 147.622 157.435 148.219 157.753 148.8C157.79 148.872 157.83 148.944 157.87 149.012C157.987 149.221 158.1 149.413 158.21 149.594L158.319 149.77C158.387 149.882 158.456 149.991 158.524 150.091L158.674 150.32L158.799 150.496C159.11 150.941 159.312 151.182 159.312 151.182H166.798L168.514 153.187C168.716 157.51 171.55 158.316 171.55 158.316Z" fill="#2F2F70"/>
<path d="M124.491 195.814L122.904 193.408L119.96 192.261L120.828 190.545C120.675 189.462 117.223 189.366 115.89 189.418H115.814L114.033 187.365H111.312L111.267 187.325C109.773 185.897 104.674 184.209 103.555 183.852C103.594 184.348 103.503 184.847 103.291 185.298C103.079 185.749 102.752 186.138 102.344 186.426C101.686 186.887 100.929 187.187 100.132 187.302C99.3363 187.418 98.524 187.346 97.7611 187.092C96.5295 186.575 94.7732 186.791 93.36 186.964C92.7245 187.064 92.0814 187.11 91.438 187.1C89.9845 187 86.407 183.467 86.2576 183.319L86.1729 183.234L92.3344 172.567C92.29 172.106 91.9306 168.26 90.6506 167.354L87.6587 167.142V166.989C87.6789 166.717 88.2079 160.308 90.6386 158.568C90.9024 158.37 91.2082 158.234 91.5329 158.171C91.8575 158.107 92.1924 158.118 92.512 158.203H92.5847L93.2065 159.611C93.4891 158.845 94.2765 157.204 95.9037 157.16C97.6924 157.096 100.172 157.257 100.644 157.289C100.878 157.032 101.855 156.23 105.049 156.41C105.366 156.441 105.685 156.399 105.982 156.288C106.28 156.176 106.548 155.999 106.765 155.769C108.207 154.245 107.779 150.556 107.775 150.503V150.395L109.975 149.437C109.911 148.599 109.632 143.49 112.208 142.439C114.784 141.388 116.367 137.226 116.367 135.694C116.352 135.501 116.413 135.309 116.537 135.16C116.661 135.01 116.839 134.914 117.033 134.892C118.172 134.667 120.473 135.81 121.164 136.6C121.854 137.39 125.258 136.881 126.514 136.62L126.675 136.588L127.406 141.801C127.575 143.005 128.032 143.807 128.763 144.087C130.378 144.749 132.825 143.029 133.107 142.824C133.349 142.363 135.792 137.831 137.096 137.438C137.169 137.413 137.247 137.403 137.324 137.408C137.401 137.414 137.476 137.435 137.545 137.471C138.546 138.012 140.629 142.335 141.203 143.558L143.319 138.493L147.558 136.6L149.262 140.29L151.838 138.517L155.718 141.645V141.709C155.849 143.12 156.151 144.509 156.619 145.848C156.687 146.052 156.76 146.249 156.837 146.437C156.913 146.626 156.934 146.694 156.986 146.814L157.035 146.934C157.287 147.54 157.571 148.131 157.887 148.707C157.923 148.779 157.963 148.851 158 148.915C158.121 149.124 158.23 149.316 158.339 149.497L158.448 149.669C158.516 149.782 158.581 149.886 158.65 149.986L158.924 150.387C159.142 150.704 159.328 150.917 159.384 151.013H166.866L168.663 153.11V153.162C168.857 157.313 171.49 158.119 171.587 158.151L171.853 158.227L168.348 161.283L167.84 164.523L167.771 164.555C165.542 165.71 165.122 167.254 165.118 167.27L165.09 167.33L161.936 170.979L159.873 168.625L156.356 170.173C153.936 172.149 151.372 173.944 148.685 175.543C146.593 176.838 144.942 177.865 144.421 178.727C143.413 180.456 142.75 182.362 142.471 184.341C142.008 187.376 142.647 190.475 144.275 193.083L144.421 193.324L140.932 193.216L134.427 195.742L134.367 195.714C128.064 192.578 124.676 195.654 124.628 195.686L124.491 195.814ZM129.009 194.014C130.904 194.058 132.763 194.538 134.44 195.417L140.876 192.915L143.872 193.007C142.308 190.386 141.706 187.309 142.168 184.297C142.457 182.287 143.133 180.351 144.158 178.595C144.716 177.668 146.31 176.678 148.519 175.306C151.207 173.713 153.771 171.922 156.191 169.949H156.227L159.966 168.297L161.948 170.562L164.848 167.202C164.924 166.949 165.437 165.493 167.577 164.367L168.078 161.158L171.272 158.351C170.565 158.035 168.558 156.819 168.372 153.238L166.757 151.322H159.267L159.223 151.265C159.223 151.265 159.013 151.013 158.702 150.568L158.428 150.167C158.359 150.07 158.286 149.958 158.218 149.842L158.125 149.693C158 149.485 157.883 149.292 157.765 149.08C157.725 149.01 157.685 148.938 157.644 148.863C157.337 148.302 157.047 147.692 156.78 147.063L156.732 146.942C156.683 146.818 156.631 146.694 156.582 146.562C156.506 146.365 156.433 146.161 156.36 145.96C155.891 144.619 155.586 143.227 155.452 141.813L151.846 138.91L149.137 140.759L147.405 137.013L143.549 138.738L141.215 144.328L141.069 144.015C140.343 142.435 138.271 138.228 137.395 137.755C137.361 137.741 137.325 137.734 137.288 137.734C137.251 137.734 137.215 137.741 137.181 137.755C136.164 138.06 134.072 141.661 133.353 143.021L133.313 143.073C133.196 143.157 130.487 145.154 128.645 144.396C127.806 144.051 127.289 143.193 127.103 141.87L126.413 136.985C125.5 137.162 121.789 137.819 120.933 136.837C120.251 136.055 118.03 135.036 117.086 135.233C116.967 135.245 116.858 135.303 116.782 135.395C116.707 135.487 116.671 135.604 116.682 135.722C116.682 137.246 115.16 141.597 112.333 142.748C109.789 143.782 110.314 149.489 110.314 149.565V149.669L108.118 150.624C108.182 151.281 108.425 154.53 107.015 156.021C106.768 156.283 106.463 156.484 106.125 156.611C105.787 156.737 105.425 156.785 105.065 156.751C101.597 156.559 100.878 157.553 100.874 157.553L100.822 157.63H100.733C100.705 157.63 97.9064 157.425 95.9441 157.497C94.0908 157.557 93.4165 160.084 93.4084 160.108L93.2994 160.509L92.399 158.476C92.1315 158.415 91.854 158.414 91.586 158.473C91.318 158.531 91.0662 158.647 90.8484 158.813C88.7287 160.332 88.1028 165.878 88.0221 166.865L90.792 167.061L90.8243 167.085C92.3102 168.068 92.6614 172.399 92.6735 172.583V172.632V172.672L86.6169 183.178C87.1661 183.712 90.2954 186.707 91.5269 186.787C92.1502 186.792 92.7728 186.745 93.3882 186.647C94.8337 186.471 96.6386 186.246 97.9468 186.795C98.6592 187.033 99.418 187.101 100.162 186.993C100.905 186.885 101.613 186.604 102.227 186.174C102.623 185.891 102.932 185.505 103.121 185.058C103.31 184.612 103.371 184.122 103.297 183.643L103.264 183.411L103.491 183.479C103.745 183.559 109.713 185.416 111.497 187.048H114.235L116.016 189.097C116.799 189.069 121.095 188.993 121.196 190.545V190.585L120.441 192.081L123.166 193.139L124.616 195.353C125.898 194.45 127.438 193.98 129.009 194.014Z" fill="#161648"/>
<path d="M218.549 44.6796L217.705 47.8035C217.705 47.8035 214.112 50.6467 213.494 53.8187C212.876 56.9907 212.763 60.1788 211.879 61.4059C210.995 62.633 212.101 62.2079 210.809 63.9163L211.318 66.3705C211.49 66.9186 211.539 67.4977 211.461 68.0667C211.383 68.6358 211.18 69.1807 210.865 69.6628C209.8 71.4473 210.753 74.5151 210.753 74.5151C211.06 74.884 211.228 75.3477 211.228 75.8264C211.228 76.3051 211.06 76.7689 210.753 77.1377C209.687 78.5854 209.012 80.0371 206.485 80.0371L204.518 78.433C204.518 78.433 203.129 75.8585 203.351 74.868L200.25 71.5716C200.25 71.5716 197.59 71.0263 197.291 69.9676H194.771C194.771 69.9676 193.156 68.1831 191.137 69.4904L190.019 69.4182C190.019 69.4182 189.615 66.8597 187.919 67.8141C187.919 67.8141 184.863 69.8192 183.845 71.8604C182.828 73.9015 181.447 75.67 179.65 76.2034C177.853 76.7367 174.676 77.3342 173.355 76.0269C172.035 74.7196 170.719 71.8002 170.719 71.8002C170.312 70.6642 169.558 69.6827 168.563 68.9931L166.947 67.9224C166.947 67.9224 165.449 69.5906 161.315 70.1841C157.18 70.7776 155.92 70.1841 155.92 70.1841L152.799 65.0391L152.743 64.9469C152.743 64.9469 151.128 65.4241 150.288 64.4095V62.0916L147.591 59.7698V57.6243L149.989 54.709L148.43 52.5074L148.798 49.2993L150.817 45.5618L152.601 42.2133L151.176 39.3781L152.791 38.155L154.616 36.7796H157.112L157.588 34.3013L156.518 32.5288C159.49 30.2871 159.534 25.5632 159.534 25.5632L159.938 24.717H163.531L166.903 21.1279L168.922 21.4648L167.573 24.308C167.573 24.308 166.451 25.7035 170.945 28.1016C175.439 30.4997 177.74 33.4591 177.809 34.2371L180.728 33.2907L186.066 35.4081L189.042 33.804C189.042 33.804 193.984 34.2492 194.04 36.539C194.097 38.8288 196.738 40.6654 196.738 40.6654H201.397L201.958 42.0609H204.882L207.304 40.3847L210.506 43.1918C210.506 43.1918 217.201 43.1156 218.549 44.6796Z" fill="#767AB7"/>
<path d="M206.472 80.1975H206.42L204.373 78.5012C204.316 78.3969 203.028 75.9909 203.161 74.8921L200.145 71.684C199.778 71.6037 197.577 71.0864 197.153 70.0799H194.674L194.63 70.0278C194.569 69.9596 193.075 68.3555 191.169 69.5786L191.129 69.6027L189.881 69.5345V69.4142C189.881 69.4142 189.659 68.127 188.969 67.8102C188.811 67.7489 188.641 67.7279 188.473 67.7489C188.305 67.7699 188.145 67.8323 188.008 67.9305C187.984 67.9305 184.98 69.9355 183.994 71.9125C182.759 74.3667 181.317 75.8545 179.706 76.3237C178.584 76.6606 174.8 77.635 173.246 76.1112C171.922 74.7918 170.63 71.9566 170.577 71.8363C170.176 70.7313 169.441 69.7761 168.473 69.1014L166.959 68.0989C166.555 68.4678 164.94 69.7952 161.306 70.3165C157.176 70.914 155.88 70.3165 155.827 70.3165H155.787L152.642 65.1354C152.238 65.2276 150.913 65.4522 150.142 64.5218L150.106 64.4777V62.1759L147.409 59.854V57.5883L149.771 54.717L148.245 52.5636L148.648 49.2472L150.667 45.5097L152.416 42.2334L150.97 39.3541L154.555 36.6473H156.978L157.418 34.3494L156.312 32.5128L156.417 32.4286C159.296 30.2591 159.372 25.6113 159.377 25.5832V25.5151L159.841 24.5847H163.475L166.854 20.9756L169.156 21.3565L167.722 24.3802C167.664 24.4703 167.627 24.5718 167.612 24.6777C167.597 24.7837 167.606 24.8915 167.638 24.9938C167.775 25.5993 168.469 26.5978 171.029 27.9773C175.192 30.1989 177.599 32.9579 177.922 34.0487L180.748 33.1384L186.07 35.2517L189.025 33.6477H189.07C189.28 33.6477 194.149 34.1329 194.206 36.527C194.258 38.5641 196.483 40.2724 196.802 40.509H201.514L202.075 41.9046H204.849L207.324 40.1842L210.554 43.0154C211.257 43.0154 217.318 43.0394 218.63 44.5793L218.678 44.6395L217.802 47.8877L217.762 47.9158C217.729 47.9439 214.204 50.763 213.607 53.8508C213.409 54.8734 213.264 55.8799 213.126 56.8504C212.832 58.8835 212.581 60.636 211.951 61.4982C211.576 62.0155 211.58 62.1959 211.592 62.4005C211.592 62.6892 211.616 63.014 210.922 63.9564L211.418 66.3625C211.598 66.9287 211.649 67.5275 211.567 68.1155C211.485 68.7036 211.273 69.2663 210.946 69.7631C209.981 71.3672 210.748 74.1743 210.841 74.467C211.16 74.8615 211.334 75.3524 211.334 75.8585C211.334 76.3646 211.16 76.8555 210.841 77.25L210.47 77.7714C209.61 79.0105 208.774 80.1975 206.472 80.1975ZM204.627 78.3328L206.525 79.8927C208.628 79.8927 209.375 78.814 210.244 77.5829C210.365 77.4105 210.49 77.234 210.619 77.0576C210.906 76.7163 211.064 76.2854 211.064 75.8405C211.064 75.3955 210.906 74.9647 210.619 74.6234L210.587 74.5673C210.546 74.4389 209.626 71.4153 210.716 69.5947C211.016 69.1312 211.21 68.6085 211.286 68.0628C211.362 67.5171 211.318 66.9616 211.156 66.4347L210.627 63.8882L210.667 63.8361C211.338 62.9338 211.326 62.6731 211.318 62.4205C211.309 62.1679 211.293 61.9273 211.721 61.3257C212.307 60.5237 212.553 58.8034 212.836 56.8143C212.977 55.8358 213.122 54.8092 213.32 53.7987C213.914 50.7429 217.132 48.0521 217.548 47.7193L218.355 44.7197C216.95 43.2841 210.558 43.3242 210.49 43.3201H210.433L207.276 40.5692L204.922 42.2053H201.849L201.288 40.8098H196.681L196.64 40.7817C196.531 40.7055 193.939 38.8689 193.879 36.535C193.83 34.5299 189.554 34.0006 189.066 33.9484L186.07 35.5765L180.732 33.4592L177.679 34.4497V34.2572C177.623 33.5113 175.257 30.5639 170.904 28.242C168.223 26.8104 167.496 25.7076 167.359 25.0339C167.322 24.8987 167.315 24.7573 167.337 24.6191C167.359 24.4808 167.411 24.3489 167.488 24.2318L168.732 21.5972L167.004 21.2964L163.64 24.8735H160.075L159.712 25.6073C159.712 26.0725 159.538 30.3633 156.744 32.5729L157.777 34.2813L157.265 36.936H154.697L151.39 39.4303L152.791 42.2374L148.947 49.3675L148.592 52.4874L150.183 54.7371L147.76 57.6965V59.7217L150.457 62.0435V64.3734C151.236 65.2477 152.702 64.8266 152.718 64.8226L152.831 64.7905L152.948 64.979L156.045 70.0839C156.284 70.1681 157.66 70.5812 161.294 70.0558C165.332 69.4784 166.818 67.8583 166.834 67.8422L166.923 67.746L168.651 68.8889C169.676 69.594 170.451 70.6013 170.868 71.7682C170.868 71.7682 172.184 74.6555 173.468 75.9347C174.599 77.0536 177.381 76.7367 179.609 76.0711C181.14 75.6179 182.521 74.1823 183.712 71.8043C184.737 69.7671 187.713 67.7941 187.838 67.7019C188.019 67.5767 188.228 67.4987 188.447 67.4749C188.665 67.451 188.887 67.4822 189.09 67.5655C189.792 67.8984 190.071 68.933 190.148 69.2859L191.06 69.338C192.966 68.135 194.525 69.5305 194.819 69.8192H197.391L197.42 69.9275C197.646 70.7295 199.552 71.291 200.246 71.4353H200.291L203.48 74.8239V74.9001C203.315 75.654 204.239 77.6069 204.627 78.3328Z" fill="#161648"/>
<path d="M201.728 80.0452L203.505 81.6492C203.505 81.6492 199.306 90.6239 195.353 91.1052V93.5113L190.507 99.7631L189.538 103.609C189.538 103.609 187.762 107.298 184.859 107.058L183.082 105.052L181.063 107.058C181.063 107.058 178.483 106.256 177.999 103.849C177.514 101.443 171.785 101.684 171.785 101.684C171.785 101.684 170.089 107.936 169.443 109.139L167.509 106.496C167.509 106.496 162.506 108.337 161.214 109.861H157.261L155.807 107.218L156.776 105.642L157.019 103.368L152.981 101.684C152.981 101.684 152.335 97.758 151.366 96.4707L149.589 98.2352L147.603 97.5936H143.779L142.112 95.8813C142.778 93.1784 141.203 84.9937 141.203 84.9937L139.451 83.935L139.487 83.7786L140.214 80.6226C140.214 80.6226 138.276 79.8928 140.214 79.2111C142.152 78.5293 140.888 76.9934 140.888 76.9934L139.325 74.0059L141.344 73.2279L141.243 71.4915C141.635 70.8423 142.16 70.2832 142.786 69.8514C143.537 69.2899 143.399 68.3716 142.867 67.4453C142.547 66.9077 142.157 66.4143 141.708 65.9776C140.666 64.9429 140.024 65.5765 139.83 65.8091L143.464 60.5157L147.578 59.7578L150.276 62.0797V64.3976C151.116 65.4121 152.731 64.9349 152.731 64.9349L152.787 65.0272L155.908 70.1722C155.908 70.1722 157.168 70.7697 161.303 70.1722C165.437 69.5747 166.935 67.9104 166.935 67.9104L168.55 68.9812C169.546 69.6707 170.3 70.6522 170.706 71.7883C170.706 71.7883 172.027 74.7036 173.343 76.015C174.659 77.3263 177.841 76.7288 179.638 76.1914C181.435 75.654 182.816 73.8735 183.833 71.8484C184.851 69.8233 187.927 67.8142 187.927 67.8142C189.607 66.8598 190.027 69.4183 190.027 69.4183L191.105 69.4784C193.124 68.1711 194.739 69.9556 194.739 69.9556H197.287C197.586 71.0263 200.246 71.5597 200.246 71.5597L203.347 74.856C203.125 75.8465 204.514 78.4211 204.514 78.4211L201.728 80.0452Z" fill="#373684"/>
<path d="M161.27 110.012H157.16L155.621 107.205L156.618 105.601L156.845 103.471L152.831 101.795V101.715C152.831 101.679 152.225 98.1059 151.349 96.7143L149.633 98.4186L147.582 97.757H143.718L141.949 95.9364V95.8562C142.567 93.3418 141.194 85.8789 141.049 85.0969L139.26 84.0182L140.019 80.7218C139.757 80.6056 139.18 80.3008 139.184 79.8837C139.184 79.5709 139.499 79.3063 140.145 79.0817C140.355 79.0334 140.551 78.9352 140.716 78.7956C140.88 78.656 141.009 78.479 141.089 78.2797C141.118 78.0699 141.102 77.8566 141.044 77.6531C140.986 77.4495 140.886 77.2601 140.75 77.0967L139.091 73.9327L141.182 73.1306L141.085 71.4624V71.4263C141.488 70.7571 142.029 70.1803 142.672 69.734C143.435 69.1646 143.116 68.2222 142.717 67.5325C142.402 67.0062 142.02 66.5234 141.578 66.0968C141.453 65.9389 141.295 65.8093 141.115 65.7167C140.936 65.624 140.738 65.5704 140.536 65.5595C140.416 65.5719 140.299 65.6098 140.195 65.6707C140.091 65.7316 140 65.814 139.931 65.9124L139.684 65.7359L143.367 60.3904L147.614 59.6084L150.417 62.0145V64.3444C151.196 65.2186 152.662 64.7975 152.678 64.7935L152.791 64.7614L152.908 64.9499L156.005 70.0548C156.243 70.1391 157.62 70.5521 161.254 70.0268C165.291 69.4493 166.777 67.8292 166.793 67.8132L166.882 67.7169L168.61 68.8598C169.635 69.565 170.411 70.5722 170.827 71.7391C170.827 71.7391 172.143 74.6264 173.427 75.9057C174.558 77.0245 177.34 76.7077 179.569 76.042C181.099 75.5889 182.48 74.1532 183.671 71.7752C184.697 69.738 187.672 67.765 187.798 67.6728C187.978 67.5477 188.187 67.4696 188.406 67.4458C188.625 67.422 188.846 67.4531 189.049 67.5365C189.752 67.8693 190.03 68.9039 190.107 69.2568L191.02 69.309C192.926 68.1059 194.484 69.5014 194.779 69.7902H197.351L197.379 69.8984C197.605 70.7005 199.511 71.2619 200.205 71.4063H200.25L203.44 74.7948V74.871C203.266 75.641 204.211 77.63 204.59 78.3318L204.659 78.4601L201.917 80.0642L203.625 81.6081L203.577 81.7083C203.407 82.0733 199.386 90.5708 195.437 91.2284V93.5583L195.409 93.5984L190.584 99.8262L189.623 103.64C189.538 103.824 187.765 107.45 184.777 107.201H184.769L183.057 105.272L181.087 107.237L181.002 107.209C180.893 107.173 178.329 106.343 177.833 103.876C177.429 101.803 172.672 101.815 171.885 101.831C171.651 102.693 170.165 108.079 169.559 109.21L169.446 109.422L167.427 106.676C166.697 106.952 162.453 108.6 161.306 109.956L161.27 110.012ZM157.337 109.711H161.133C162.501 108.187 167.242 106.431 167.444 106.359L167.553 106.319L169.402 108.849C170.096 107.269 171.61 101.707 171.627 101.631L171.655 101.527H171.764C172.002 101.527 177.631 101.31 178.135 103.812C178.539 105.857 180.558 106.716 181.01 106.884L183.078 104.823L184.919 106.904C187.656 107.073 189.36 103.572 189.388 103.536L190.374 99.6618L195.183 93.4781V90.9918H195.316C198.922 90.5507 202.83 82.6988 203.302 81.7204L201.457 80.0481L204.304 78.404C204.029 77.8746 203.044 75.8936 203.177 74.9432L200.161 71.7351C199.794 71.6549 197.593 71.1376 197.169 70.131H194.69L194.646 70.0789C194.585 70.0107 193.091 68.4067 191.185 69.6298L191.145 69.6538L189.897 69.5857V69.4654C189.897 69.4654 189.675 68.1781 188.985 67.8613C188.827 67.8001 188.657 67.779 188.489 67.8C188.321 67.8211 188.161 67.8835 188.024 67.9816C188 67.9816 184.996 69.9867 184.01 71.9637C182.775 74.4179 181.333 75.9057 179.722 76.3748C178.6 76.7117 174.816 77.6862 173.262 76.1623C171.938 74.843 170.645 72.0078 170.593 71.8875C170.192 70.7824 169.457 69.8273 168.489 69.1526L166.975 68.15C166.571 68.519 164.956 69.8463 161.322 70.3676C157.192 70.9651 155.896 70.3676 155.843 70.3676H155.803L152.657 65.1865C152.254 65.2788 150.929 65.5033 150.158 64.573L150.122 64.5289V62.227L147.534 59.9974L143.552 60.7312L140.371 65.3509C140.423 65.3446 140.476 65.3446 140.528 65.3509C140.772 65.3581 141.012 65.4169 141.231 65.5234C141.451 65.6299 141.645 65.7816 141.8 65.9685C142.261 66.4159 142.66 66.9215 142.987 67.4723C143.637 68.5951 143.597 69.5175 142.866 70.0629C142.275 70.4792 141.771 71.0064 141.384 71.6148L141.489 73.4194L139.511 74.1773L140.993 77.0165C141.155 77.2137 141.273 77.4432 141.338 77.6895C141.403 77.9357 141.415 78.193 141.372 78.4441C141.28 78.69 141.128 78.9097 140.93 79.0838C140.732 79.2579 140.494 79.3811 140.237 79.4426C139.555 79.6832 139.478 79.8917 139.478 79.9679C139.478 80.2045 139.991 80.4772 140.242 80.5735L140.367 80.6216L139.599 83.954L141.316 84.9927V85.0568C141.38 85.3897 142.858 93.1493 142.24 95.9283L143.807 97.5324H147.614L149.512 98.146L151.345 96.3253L151.45 96.4657C152.359 97.6687 152.976 101.069 153.065 101.655L157.127 103.351L156.853 105.801L155.928 107.301L157.337 109.711Z" fill="#161648"/>
<path d="M149.993 54.7123L147.594 57.6277V59.7931L143.48 60.5511L139.846 65.8445L139.781 65.9367C139.781 65.9367 135.804 66.1412 134.831 65.9367C133.858 65.7322 134.242 63.6228 134.242 63.6228C134.242 63.6228 133.951 62.9491 132.388 61.5095C130.826 60.0698 126.186 62.881 125.989 62.0749C125.791 61.2689 125.104 59.7972 125.1 58.546C125.096 57.2948 121.41 56.9179 121.103 52.5789C120.837 48.7973 119.189 48.0635 118.777 47.9391L118.721 45.3646L120.881 44.1616L122.258 41.0537L125.221 42.333C129.114 41.5309 131.036 42.5776 131.036 42.5776C135.667 45.3847 139.777 44.1295 142.394 44.0132C145.01 43.8969 144.889 47.5542 144.889 47.5542L148.814 49.3266L148.446 52.5348L149.993 54.7123Z" fill="#767AB7"/>
<path d="M136.43 66.1632C135.882 66.1769 135.334 66.1501 134.791 66.083C133.765 65.8785 134.02 63.9857 134.072 63.6448C133.987 63.4884 133.584 62.8428 132.275 61.6157C131.407 60.8136 129.392 61.4713 127.919 61.9485C126.849 62.2974 126.275 62.4738 125.989 62.3134C125.949 62.2933 125.914 62.2644 125.886 62.229C125.859 62.1936 125.84 62.1526 125.831 62.1089C125.771 61.8723 125.67 61.5796 125.553 61.2387C125.21 60.3769 125.001 59.4681 124.935 58.5439C124.935 58.175 124.487 57.8541 123.917 57.4451C122.811 56.6431 121.143 55.44 120.941 52.5888C120.675 48.8554 119.044 48.1776 118.721 48.0814L118.616 48.0493L118.555 45.2743L120.752 44.0392L122.169 40.8311L125.225 42.1504C129.098 41.3484 131.02 42.375 131.096 42.4191C134.811 44.6607 138.231 44.2718 140.726 43.991C141.316 43.9229 141.873 43.8587 142.374 43.8387C142.677 43.8137 142.982 43.8538 143.268 43.9562C143.555 44.0586 143.815 44.2209 144.033 44.4322C144.962 45.3425 145.03 47.0027 145.03 47.4318L148.963 49.2083L148.592 52.4645L150.183 54.7142L147.76 57.6737V59.8913L143.585 60.6693L139.866 66.0669H139.794C139.668 66.075 137.88 66.1632 136.43 66.1632ZM131.056 60.95C131.572 60.9152 132.083 61.0789 132.481 61.4071C134.048 62.8508 134.355 63.5405 134.367 63.5686V63.6127V63.6568C134.27 64.2062 134.161 65.6619 134.835 65.7942C135.707 65.9627 139.127 65.7942 139.68 65.7942L139.701 65.7662L143.383 60.4206L147.421 59.6747V57.6015L149.783 54.7302L148.257 52.5768L148.62 49.4248L144.703 47.6563V47.5561C144.703 47.5561 144.752 45.6152 143.795 44.6768C143.609 44.4943 143.386 44.3534 143.141 44.2635C142.896 44.1736 142.634 44.1367 142.374 44.1555C141.881 44.1795 141.332 44.2437 140.759 44.3079C138.219 44.5966 134.738 44.9896 130.943 42.7038C130.943 42.7038 129.017 41.6852 125.238 42.4792H125.189L122.318 41.2401L120.982 44.2557L118.858 45.4588L118.91 47.8368C119.508 48.0614 120.986 48.9797 121.236 52.5728C121.43 55.2997 122.968 56.4025 124.091 57.2085C124.729 57.6657 125.234 58.0306 125.234 58.5519C125.3 59.4434 125.503 60.3196 125.835 61.1505C125.956 61.4954 126.057 61.7961 126.118 62.0448C126.312 62.161 127.115 61.9004 127.822 61.6718C128.815 61.339 130.042 60.942 131.068 60.942L131.056 60.95Z" fill="#161648"/>
<path d="M207.054 124.795V127.201L203.42 131.805L200.06 132.53C200.06 132.53 197.993 132.891 196.652 133.136C195.312 133.381 193.729 131.805 193.729 131.805L195.433 137.611C192.389 137.246 186.91 141.361 186.91 141.361V142.696L183.377 145.475L183.498 146.678L180.821 148.976L184.959 152.938L182.403 155.264C182.036 153.692 177.045 153.183 177.045 153.183V151.402C175.459 149.349 171.554 151.996 171.554 151.996L168.518 150.793V153.199L166.802 151.194H159.332C158.1 149.608 157.145 147.828 156.506 145.928C156.032 144.579 155.727 143.177 155.597 141.754L151.854 138.738L149.197 140.535L147.477 136.817L143.44 138.626L141.215 143.951C141.215 143.951 138.586 138.225 137.476 137.623C136.366 137.022 133.228 142.945 133.228 142.945C133.228 142.945 127.979 146.883 127.26 141.842L126.542 136.789C126.542 136.789 127.006 133.942 128.738 133.036L129.073 130.505L131.811 127.738L133.688 127.401V124.827L133.063 122.393L133.301 118.571L132.582 116.518L135.227 113.943V110.459L132.631 106.926C132.631 106.926 130.345 106.553 130.382 103.922C130.862 101.416 135.033 101.692 135.033 101.692L135.219 98.6045L137.351 97.1528H139.773L142.099 95.8896L143.767 97.602H147.59L149.577 98.2436L151.353 96.4791C152.318 97.7624 152.969 101.692 152.969 101.692L157.006 103.377L156.764 105.65L155.795 107.226L157.249 109.869H161.201C162.493 108.345 167.496 106.505 167.496 106.505L169.43 109.147C170.076 107.944 171.772 101.692 171.772 101.692C171.772 101.692 177.502 101.456 177.986 103.858C178.471 106.26 181.051 107.066 181.051 107.066L183.07 105.061L184.846 107.066C187.749 107.307 189.526 103.617 189.526 103.617L190.334 105.771L187.798 109.869C190.471 109.925 193.099 107.792 193.099 107.792L193.18 104.804L197.004 103.349H200.585C202.378 103.914 202.2 105.45 201.562 106.256C201.378 106.448 201.239 106.678 201.155 106.93C201.071 107.181 201.043 107.448 201.074 107.712C205.875 112.239 204.518 115.146 204.518 115.146L201.562 117.552L204.829 121.029L204.873 122.742L207.054 124.795Z" fill="#43458D"/>
<path d="M182.31 155.557L182.25 155.304C181.971 154.101 178.382 153.479 177.025 153.339H176.888V151.454C175.386 149.614 171.671 152.096 171.639 152.12L171.574 152.164L168.671 151.017V153.6L166.733 151.334H159.247L159.199 151.278C157.957 149.675 156.992 147.88 156.34 145.964C155.868 144.624 155.561 143.232 155.427 141.818L151.822 138.915L149.137 140.759L147.404 137.014L143.548 138.738L141.215 144.328L141.069 144.016C140.343 142.436 138.271 138.229 137.395 137.756C137.361 137.741 137.325 137.734 137.288 137.734C137.251 137.734 137.215 137.741 137.181 137.756C136.163 138.06 134.072 141.662 133.353 143.021L133.313 143.073C133.196 143.157 130.486 145.158 128.645 144.396C127.805 144.052 127.289 143.193 127.103 141.87L126.388 136.789C126.388 136.673 126.873 133.93 128.593 132.964L128.928 130.461L131.734 127.622L133.535 127.301V124.851L132.905 122.445L133.143 118.627L132.404 116.514L135.069 113.915V110.543L132.538 107.098C132.158 107.01 130.192 106.432 130.224 103.954C130.68 101.576 134.108 101.548 134.888 101.572L135.069 98.5564L137.298 97.0406H139.721L142.115 95.7373L143.819 97.4897H147.627L149.524 98.1033L151.357 96.2827L151.462 96.423C152.371 97.6261 152.989 101.027 153.077 101.612L157.139 103.308L156.865 105.759L155.94 107.258L157.309 109.745H161.104C162.473 108.221 167.213 106.464 167.415 106.392L167.524 106.352L169.374 108.883C170.068 107.303 171.582 101.741 171.598 101.664L171.627 101.56H171.736C171.974 101.56 177.603 101.343 178.107 103.846C178.511 105.891 180.53 106.749 180.982 106.918L183.049 104.856L184.891 106.938C187.628 107.106 189.332 103.605 189.36 103.569L189.518 103.248L190.463 105.803L188.04 109.733C190.329 109.657 192.55 108.02 192.922 107.728L193.002 104.712L196.975 103.212H200.609C200.944 103.286 201.254 103.444 201.511 103.669C201.767 103.895 201.961 104.182 202.075 104.503C202.159 104.822 202.166 105.156 202.096 105.478C202.025 105.799 201.88 106.1 201.671 106.356C201.51 106.529 201.386 106.731 201.307 106.953C201.227 107.174 201.193 107.409 201.207 107.643C205.988 112.175 204.704 115.094 204.647 115.219L204.607 115.271L201.78 117.593L204.974 120.997L205.019 122.702L207.211 124.743V127.269L203.508 131.957L200.097 132.695C200.097 132.695 198.025 133.056 196.685 133.3C195.683 133.477 194.597 132.743 194.024 132.282L195.639 137.804L195.413 137.776C192.623 137.447 187.66 141.012 187.059 141.453V142.768L183.53 145.543L183.651 146.746L181.043 148.988L185.173 152.95L182.31 155.557ZM177.191 153.054C177.978 153.147 181.769 153.656 182.464 155.011L184.733 152.942L180.59 148.98L183.336 146.622L183.215 145.419L186.756 142.636V141.289L186.813 141.245C187.035 141.08 192.114 137.286 195.223 137.447L193.414 131.287L193.818 131.688C193.818 131.688 195.356 133.204 196.608 132.98C197.949 132.735 200.016 132.374 200.016 132.374L203.319 131.66L206.9 127.165V124.871L204.712 122.838L204.667 121.118L201.324 117.541L204.377 115.038C204.494 114.729 205.354 111.954 200.953 107.82L200.92 107.792V107.748C200.882 107.462 200.909 107.172 200.998 106.898C201.088 106.624 201.238 106.373 201.437 106.164C201.617 105.946 201.742 105.69 201.805 105.416C201.867 105.142 201.864 104.857 201.796 104.584C201.695 104.315 201.529 104.076 201.312 103.887C201.095 103.698 200.834 103.565 200.553 103.501H197.024L193.321 104.909L193.241 107.864L193.188 107.908C193.079 107.996 190.487 110.082 187.786 110.017H187.523L190.156 105.759L189.506 103.99C189.001 104.892 187.35 107.435 184.838 107.198H184.769L183.057 105.269L181.087 107.234L181.002 107.206C180.893 107.17 178.329 106.34 177.833 103.874C177.429 101.805 172.673 101.813 171.885 101.829C171.651 102.691 170.165 108.077 169.559 109.207L169.446 109.42L167.428 106.673C166.697 106.95 162.453 108.598 161.306 109.953L161.258 110.005H157.148L155.609 107.198L156.606 105.594L156.833 103.465L152.819 101.789V101.708C152.819 101.672 152.213 98.0993 151.337 96.7078L149.621 98.4121L147.57 97.7504H143.706L142.091 96.0742L139.793 97.3013H137.415L135.396 98.6888L135.207 101.853H135.057C135.013 101.853 131.019 101.616 130.563 103.962C130.531 106.408 132.582 106.769 132.687 106.789H132.748L135.408 110.398V114.008L132.788 116.558L133.487 118.563L133.248 122.389L133.866 124.795V127.53L131.908 127.883L129.243 130.578L128.904 133.136L128.835 133.172C127.264 133.994 126.768 136.537 126.719 136.781L127.426 141.802C127.595 143.005 128.052 143.807 128.783 144.088C130.398 144.749 132.845 143.029 133.127 142.825C133.369 142.363 135.812 137.832 137.116 137.439C137.189 137.414 137.267 137.403 137.344 137.409C137.421 137.414 137.496 137.435 137.565 137.471C138.566 138.012 140.649 142.335 141.223 143.558L143.338 138.494L147.578 136.601L149.282 140.29L151.858 138.518L155.738 141.646V141.71C155.869 143.12 156.171 144.51 156.639 145.848C157.276 147.706 158.21 149.45 159.405 151.013H166.886L168.384 152.762V150.556L171.554 151.807C172.103 151.446 175.624 149.277 177.183 151.29L177.211 151.33L177.191 153.054Z" fill="#161648"/>
<path d="M215.19 159.136V161.859C215.19 161.859 212.86 163.511 211.366 164.088C209.872 164.666 209.868 166.815 209.868 166.815L206.295 168.632C205.96 170.116 200.888 173.171 200.888 173.171L202.467 174.908C202.467 174.908 202.063 175.71 198.979 176.063C195.894 176.416 193.653 179.034 193.653 179.034L191.824 177.879L188.747 179.034L185.755 176.143H182.929L180.506 173.669L175.1 173.091L175.931 172.429C175.931 172.429 177.676 170.777 176.598 169.703C175.52 168.628 172.604 170.769 172.604 170.769V172.774L168.97 173.107L167.388 170.785H161.945L164.985 167.264C164.985 167.264 165.389 165.66 167.715 164.457L168.219 161.249L171.559 158.338C171.559 158.338 168.732 157.536 168.522 153.213V150.807L171.559 152.01C171.559 152.01 175.463 149.363 177.05 151.416V153.189C177.05 153.189 182.04 153.698 182.408 155.27L184.964 152.944L180.825 148.982L183.502 146.684L183.381 145.481L186.914 142.702V141.363C186.914 141.363 192.393 137.248 195.438 137.613L193.734 131.807C193.734 131.807 195.316 133.379 196.657 133.138C197.998 132.897 200.065 132.532 200.065 132.532C201.894 133.507 201.728 136.675 201.728 136.675C208.047 139.237 207.062 141.487 207.062 141.487C207.062 141.487 202.726 143.548 204.389 145.449C206.053 147.35 204.793 148.998 204.793 148.998C205.625 151.805 210.946 153.706 210.946 153.706L217.677 152.631C219.264 155.254 215.19 159.136 215.19 159.136Z" fill="#767AB7"/>
<path d="M193.685 179.232L191.811 178.029L188.714 179.192L185.698 176.277H182.872L180.449 173.795L174.732 173.185L175.85 172.295C175.85 172.295 176.799 171.381 176.811 170.526C176.813 170.389 176.787 170.252 176.734 170.125C176.68 169.998 176.601 169.883 176.5 169.789C175.693 168.987 173.597 170.234 172.769 170.827V172.88L168.885 173.233L167.298 170.907H161.605L164.835 167.166C164.912 166.913 165.425 165.462 167.565 164.331L168.065 161.123L171.259 158.316C170.549 157.995 168.53 156.772 168.36 153.15V150.576L171.53 151.827C172.079 151.466 175.6 149.297 177.158 151.31L177.187 151.35V153.054C177.974 153.146 181.765 153.656 182.46 155.011L184.729 152.942L180.586 148.98L183.332 146.622L183.211 145.419L186.752 142.636V141.288L186.808 141.244C187.03 141.08 192.11 137.286 195.219 137.447L193.41 131.287L193.814 131.688C193.814 131.688 195.352 133.204 196.604 132.979C197.944 132.735 200.012 132.374 200.012 132.374H200.064L200.113 132.398C201.833 133.312 201.869 136.007 201.857 136.572C205.491 138.068 206.702 139.464 207.106 140.378C207.28 140.736 207.31 141.146 207.191 141.525L207.171 141.577L207.118 141.601C207.094 141.601 204.469 142.876 204.179 144.268C204.14 144.457 204.148 144.652 204.203 144.836C204.258 145.021 204.358 145.189 204.494 145.327C206.028 147.079 205.176 148.663 204.962 149C205.769 151.546 210.502 153.359 210.966 153.527L217.757 152.445L217.81 152.533C219.36 155.123 215.819 158.729 215.339 159.198V161.933L215.278 161.981C215.181 162.045 212.916 163.649 211.422 164.226C210.037 164.76 210.021 166.793 210.021 166.813V166.905L206.424 168.734C205.991 170.145 201.982 172.672 201.122 173.201L202.648 174.881L202.604 174.974C202.555 175.066 202.059 175.876 198.994 176.209C196.014 176.53 193.794 179.104 193.773 179.128L193.685 179.232ZM182.997 175.996H185.823L188.791 178.864L191.847 177.713L193.632 178.839C194.084 178.346 196.168 176.213 198.966 175.916C201.316 175.659 202.067 175.114 202.273 174.914L200.658 173.137L200.815 173.045C202.208 172.203 205.887 169.765 206.149 168.602V168.533L209.706 166.725C209.726 166.288 209.888 164.495 211.297 163.95C212.621 163.44 214.644 162.049 215.024 161.784V159.073L215.072 159.029C215.113 158.993 218.949 155.288 217.588 152.778L210.922 153.844H210.885C210.667 153.768 205.483 151.887 204.639 149.032V148.96L204.683 148.9C204.732 148.836 205.834 147.316 204.28 145.539C204.109 145.368 203.984 145.157 203.913 144.927C203.843 144.696 203.83 144.452 203.876 144.216C204.175 142.788 206.512 141.573 206.924 141.369C206.987 141.069 206.947 140.757 206.811 140.482C206.448 139.62 205.261 138.285 201.659 136.825L201.558 136.785V136.677C201.558 136.645 201.691 133.645 200.016 132.699C199.689 132.759 197.876 133.076 196.664 133.296C195.663 133.473 194.577 132.739 194.004 132.278L195.619 137.8L195.393 137.772C192.603 137.443 187.64 141.008 187.039 141.449V142.768L183.51 145.543L183.631 146.746L181.022 148.988L185.173 152.95L182.306 155.557L182.246 155.304C181.967 154.101 178.378 153.479 177.021 153.339H176.884V151.454C175.382 149.613 171.667 152.096 171.635 152.12L171.57 152.164L168.667 151.017V153.191C168.861 157.333 171.493 158.139 171.59 158.171L171.857 158.247L168.352 161.303L167.843 164.543L167.775 164.575C165.546 165.73 165.126 167.274 165.122 167.29L165.094 167.35L162.267 170.623H167.46L169.038 172.937L172.466 172.624V170.695L172.527 170.651C172.648 170.559 175.555 168.449 176.714 169.596C176.844 169.719 176.947 169.867 177.017 170.031C177.086 170.195 177.121 170.372 177.118 170.55C177.118 171.533 176.096 172.499 176.052 172.556L175.495 172.997L180.594 173.542L182.997 175.996Z" fill="#161648"/>
<path d="M211.144 177.544L212.739 175.704C212.739 175.704 212.993 173.55 214.717 172.536C216.441 171.521 217.673 171.902 218.044 171.333C218.416 170.763 219.312 168.858 220.398 169.428C221.485 169.997 223.079 171.204 223.225 166.007C223.37 160.81 225.462 163.028 225.462 166.324C225.462 169.62 225.522 171.269 226.225 172.407C226.927 173.546 227.84 179.036 227.84 179.036V182.172L225.954 186.23L226.209 192.246L224.678 194.275L224.614 197.764L223.148 199.793C223.148 199.793 219.72 197.571 218.048 197.254C216.377 196.938 215.997 195.037 215.997 195.037L217.273 193.389L214.467 190.345L215.743 188.572L212.868 188.316L213.506 183.371L211.487 181.659L213.017 180.139C213.017 180.139 210.76 178.812 211.144 177.544Z" fill="#767AB7"/>
<path d="M223.18 200L223.059 199.92C223.027 199.9 219.639 197.714 218.016 197.405C216.268 197.072 215.86 195.152 215.844 195.067V195.003L217.083 193.399L214.277 190.359L215.488 188.699L212.722 188.455L213.372 183.438L211.265 181.673L212.779 180.166C212.254 179.821 210.671 178.666 211.027 177.499L211.055 177.443L212.621 175.638C212.67 175.305 213.025 173.372 214.669 172.406C215.396 171.989 216.198 171.716 217.031 171.604C217.503 171.52 217.814 171.468 217.947 171.259C217.996 171.183 218.056 171.083 218.125 170.962C218.581 170.188 219.433 168.749 220.495 169.306L220.697 169.414C221.181 169.679 221.731 169.98 222.15 169.739C222.716 169.418 223.031 168.163 223.083 166.014C223.136 163.864 223.511 162.77 224.169 162.77C224.941 162.77 225.615 164.446 225.615 166.335C225.615 169.671 225.687 171.247 226.358 172.35C227.028 173.453 227.936 178.806 227.973 179.031V182.239L226.124 186.293L226.378 192.332L224.844 194.366L224.779 197.85L223.18 200ZM216.158 195.075C216.243 195.4 216.695 196.848 218.072 197.108C219.595 197.397 222.469 199.186 223.103 199.591L224.46 197.714L224.525 194.225L226.051 192.22L225.797 186.205L227.65 182.147V179.035C227.65 179.003 226.753 173.589 226.075 172.486C225.397 171.383 225.268 169.715 225.268 166.323C225.268 164.438 224.585 163.066 224.121 163.058C223.79 163.058 223.39 163.832 223.338 166.01C223.281 168.336 222.934 169.599 222.255 169.988C221.69 170.313 221.044 169.956 220.503 169.667L220.305 169.563C219.498 169.138 218.743 170.417 218.339 171.103C218.266 171.227 218.206 171.331 218.153 171.411C217.947 171.728 217.564 171.812 217.035 171.889C216.238 172 215.47 172.263 214.774 172.663C213.134 173.629 212.872 175.702 212.868 175.722V175.766L211.253 177.615C210.954 178.75 213.025 180.021 213.045 180.021L213.211 180.121L211.66 181.661L213.639 183.322L213.033 188.182L216.009 188.447L214.652 190.335L217.479 193.383L216.158 195.075Z" fill="#161648"/>
<path d="M3.52091 178.145C4.01352 179.179 4.31834 180.291 4.42131 181.43C4.52225 183.122 12.7389 186.206 12.7389 186.206C12.7389 186.206 18.5492 187.726 19.7525 184.826C20.9557 181.927 19.1509 183.323 20.455 180.335C20.455 180.335 21.4564 179.34 18.949 177.648C16.4416 175.956 16.1468 174.264 16.3447 172.571C16.5425 170.879 7.11041 169.588 5.52359 172.078H3.50474C3.50474 172.078 4.31228 174.368 3.00003 175.166C1.68777 175.964 1.41322 176.257 3.52091 178.145Z" fill="#ADB3D7"/>
<path d="M15.9082 186.763C14.8262 186.753 13.749 186.618 12.6982 186.362C11.8342 186.037 4.37244 183.186 4.26746 181.445C4.16786 180.333 3.87271 179.248 3.39535 178.237C2.18404 177.166 1.78023 176.633 1.84079 176.14C1.90136 175.647 2.30108 175.422 2.93904 175.033C4.12209 174.307 3.38322 172.146 3.37514 172.126L3.30653 171.925H5.4425C6.79916 170.032 12.3913 170.357 14.9593 171.271C16.0212 171.648 16.5542 172.102 16.4936 172.591C16.312 174.139 16.4937 175.799 19.0374 177.523C20.1397 178.269 20.7332 178.987 20.7978 179.657C20.8296 179.929 20.7528 180.202 20.5839 180.419C19.9581 181.858 20.0832 182.207 20.2124 182.58C20.3416 182.953 20.5071 183.382 19.8934 184.882C19.2796 186.382 17.5273 186.763 15.9082 186.763ZM3.72243 172.226C3.89201 172.823 4.2675 174.572 3.09656 175.29C2.53936 175.631 2.16785 175.875 2.14362 176.168C2.1194 176.461 2.54746 177.062 3.62149 178.033L3.65372 178.077C4.15737 179.128 4.46777 180.261 4.57029 181.421C4.65104 182.728 10.53 185.219 12.7911 186.065C12.8315 186.065 18.4721 187.513 19.6107 184.77C20.1841 183.394 20.0549 183.029 19.9297 182.68C19.7803 182.279 19.6309 181.842 20.3133 180.274L20.3456 180.23C20.4075 180.153 20.4526 180.064 20.4783 179.969C20.504 179.874 20.5097 179.774 20.495 179.677C20.4546 179.276 20.1356 178.63 18.8799 177.772C16.1989 175.959 16.0253 174.119 16.211 172.559C16.2474 172.242 15.7507 171.869 14.8745 171.556C12.1047 170.574 6.76678 170.453 5.66449 172.162L5.62013 172.23L3.72243 172.226Z" fill="#161648"/>
<path d="M10.1467 121.67C10.1467 121.67 11.7981 123.442 13.4535 122.592C15.109 121.742 11.7981 119.701 11.7981 119.701L12.5248 118.389C12.5248 118.389 9.55315 119.833 7.63524 119.44C5.71733 119.047 7.69979 118.125 4.6594 117.403L1.95011 113.465L2.87477 111.235C2.87477 111.235 -1.28807 108.937 0.694443 105.653C2.67696 102.369 8.49522 105.653 8.49522 105.653L14.8384 110.838C14.8384 110.838 17.7456 109.587 19.7887 109.715L18.3836 110.413L18.1938 111.239L16.0175 111.364L16.1467 113.016L17.4267 113.144L17.362 114.604C17.362 114.604 14.8668 116.063 16.4011 116.316C16.4011 116.316 19.28 114.921 18.7672 116.509C18.2544 118.097 19.7887 118.032 19.7887 118.032V119.636L21.1333 120.082V121.285L21.8358 121.537C21.8358 121.537 21.3877 123.635 22.0903 124.268C22.7928 124.902 23.7537 126.742 23.0512 127.569C22.3486 128.395 20.6851 130.299 20.6851 130.299H18.8197L18.9489 128.587C18.9489 128.587 19.8412 127.316 18.8197 127.316C17.7981 127.316 18.0525 126.426 17.2046 126.682C16.3567 126.939 16.8856 127.504 16.8856 127.504L15.1574 127.063L13.6271 125.86L12.86 127.127L11.7012 126.325C11.7012 126.325 10.175 126.133 10.175 127.404C10.175 128.675 7.48987 126.39 8.12783 125.435C8.12783 125.435 6.59346 123.723 8.19239 122.452L10.1467 121.67Z" fill="#ADB3D7"/>
<path d="M20.754 130.436H18.6666L18.8119 128.519L18.8361 128.483C19.0218 128.214 19.2399 127.753 19.147 127.564C19.1066 127.488 19.0017 127.448 18.8321 127.448C18.6433 127.458 18.455 127.421 18.2839 127.341C18.1128 127.262 17.9641 127.141 17.8509 126.991C17.6854 126.802 17.6046 126.71 17.2775 126.81C17.1322 126.855 16.9545 126.931 16.9182 127.063C16.9105 127.122 16.9163 127.183 16.9352 127.24C16.954 127.297 16.9855 127.349 17.0272 127.392L17.3503 127.757L15.0931 127.163L13.6961 126.065L12.9329 127.328L11.6732 126.429C11.3013 126.388 10.9268 126.482 10.6193 126.694C10.5283 126.78 10.4573 126.884 10.4112 127C10.3652 127.115 10.3453 127.24 10.3529 127.364C10.3529 127.713 10.1712 127.829 10.0622 127.865C9.62611 128.009 8.85089 127.436 8.37041 126.822C7.96663 126.281 7.80916 125.772 7.96663 125.411C7.55207 124.91 7.33024 124.279 7.34077 123.63C7.36893 123.366 7.45241 123.111 7.58593 122.881C7.71945 122.651 7.90003 122.451 8.11598 122.295L8.15639 122.271L10.1752 121.493L10.2479 121.569C10.2479 121.569 11.8387 123.249 13.369 122.455C13.6194 122.327 13.7445 122.171 13.7526 121.982C13.7768 121.264 12.2869 120.186 11.7095 119.829L11.5844 119.753L12.1618 118.714C11.2654 119.115 9.12539 119.917 7.59106 119.588C6.71891 119.408 6.56958 119.111 6.44845 118.71C6.32732 118.309 6.21829 117.932 4.61532 117.551H4.55873L1.76871 113.501L2.67316 111.311C2.21286 111.034 0.553317 109.932 0.105132 108.267C-0.0110856 107.815 -0.0311738 107.344 0.0459858 106.883C0.123145 106.423 0.295908 105.983 0.553361 105.593C1.40128 104.189 3.06478 103.736 5.36223 104.293C6.47411 104.576 7.54682 104.994 8.55612 105.537L14.8549 110.682C15.3596 110.473 17.8993 109.479 19.789 109.579L20.3503 109.615L18.505 110.533L18.3031 111.399L16.1712 111.524L16.2762 112.895L17.5723 113.023L17.4956 114.708L17.427 114.748C16.7244 115.149 15.9975 115.758 16.046 116.007C16.046 116.075 16.1793 116.139 16.369 116.175C16.7728 115.987 18.2708 115.321 18.7917 115.774C18.9814 115.939 19.0178 116.208 18.9007 116.576C18.8251 116.734 18.7894 116.908 18.7964 117.083C18.8034 117.257 18.8531 117.428 18.9411 117.579C19.0489 117.688 19.1787 117.774 19.322 117.83C19.4653 117.886 19.619 117.911 19.7729 117.904H19.9303V119.536L21.283 119.945V121.148L22.0097 121.409L21.9855 121.537C21.8644 122.098 21.6706 123.65 22.1915 124.124C22.9627 124.817 23.9398 126.726 23.1645 127.636C22.4539 128.475 20.7984 130.371 20.7984 130.371L20.754 130.436ZM18.9935 130.135H20.6086C20.8791 129.822 22.2923 128.202 22.9263 127.456C23.5602 126.71 22.676 124.99 21.9815 124.364C21.287 123.739 21.5777 122.102 21.6544 121.621L20.9721 121.373V120.17L19.6315 119.728V118.177C19.4556 118.17 19.2828 118.128 19.1239 118.053C18.9649 117.977 18.823 117.871 18.7069 117.739C18.5869 117.55 18.5158 117.334 18.4996 117.111C18.4834 116.888 18.5227 116.665 18.614 116.46C18.6705 116.296 18.7109 116.059 18.614 115.979C18.3233 115.73 17.1887 116.107 16.4781 116.452L16.4337 116.472H16.3852C16.0178 116.412 15.8078 116.272 15.7674 116.071C15.6665 115.534 16.7769 114.808 17.221 114.539L17.2775 113.304L16.0138 113.176L15.8643 111.247L18.077 111.119L18.2587 110.317L19.1551 109.876C17.2453 109.988 14.9357 110.974 14.9074 110.986L14.8227 111.022L8.40668 105.777C8.37034 105.777 2.71755 102.621 0.831939 105.737C0.597555 106.094 0.44061 106.495 0.371092 106.916C0.301574 107.336 0.321007 107.767 0.428168 108.179C0.904618 109.952 2.94368 111.099 2.9679 111.111L3.08501 111.175L2.14015 113.457L4.7687 117.278C6.4928 117.699 6.64624 118.217 6.78756 118.634C6.87639 118.93 6.941 119.143 7.70412 119.299C9.54532 119.7 12.4687 118.277 12.4969 118.261L12.9249 118.052L12.0366 119.656C12.5292 119.973 14.1362 121.084 14.1039 121.994C14.0908 122.155 14.0327 122.309 13.9364 122.438C13.8402 122.568 13.7094 122.668 13.5588 122.728C12.0043 123.53 10.4942 122.195 10.147 121.85L8.33403 122.548C8.15519 122.679 8.00554 122.845 7.89438 123.036C7.78322 123.227 7.71289 123.439 7.68796 123.658C7.69077 124.261 7.90983 124.842 8.30574 125.299L8.38243 125.387L8.31786 125.483C8.15232 125.728 8.27751 126.165 8.64898 126.646C9.1214 127.256 9.77948 127.661 10.0016 127.584C10.0581 127.566 10.0864 127.493 10.0864 127.368C10.0776 127.201 10.1064 127.034 10.1706 126.879C10.2349 126.724 10.333 126.586 10.4579 126.474C10.842 126.202 11.314 126.082 11.7822 126.137L11.8509 126.165L12.8765 126.895L13.6476 125.619L15.295 126.911L16.6638 127.264C16.6395 127.173 16.6395 127.078 16.6638 126.987C16.7103 126.868 16.7867 126.764 16.8857 126.683C16.9847 126.602 17.103 126.548 17.2291 126.526C17.3854 126.46 17.56 126.45 17.7224 126.5C17.8848 126.549 18.0247 126.653 18.1174 126.794C18.1952 126.908 18.3 127.001 18.4225 127.066C18.545 127.13 18.6814 127.163 18.8199 127.163C18.9334 127.149 19.0484 127.168 19.1515 127.217C19.2545 127.266 19.3412 127.343 19.4014 127.44C19.6073 127.841 19.2075 128.467 19.0945 128.643L18.9935 130.135Z" fill="#161648"/>
<path d="M24.1698 95.1141C24.1698 95.1141 22.2843 97.0189 22.6032 97.9212C23.052 98.8955 23.5757 99.834 24.1698 100.728C24.1698 100.728 26.758 101.743 28.0339 100.327C29.3099 98.9117 29.1846 96.8986 29.1846 96.8986C29.1846 96.8986 27.2708 95.9482 26.8872 95.1221C26.5036 94.296 24.7795 93.7787 24.1698 95.1141Z" fill="#ADB3D7"/>
<path d="M26.0876 101.211C25.4146 101.198 24.7486 101.074 24.1172 100.842H24.0728L24.0485 100.802C23.4461 99.909 22.9156 98.9704 22.4617 97.9947C22.1306 97.0684 23.778 95.34 24.0485 95.0633C24.1619 94.7964 24.3534 94.5696 24.5982 94.4123C24.843 94.2549 25.1299 94.1744 25.4214 94.181C25.7476 94.1749 26.0694 94.2558 26.3534 94.4152C26.6375 94.5746 26.8734 94.8067 27.0365 95.0873C27.3918 95.8533 29.2492 96.7836 29.2653 96.7917L29.346 96.8318V96.92C29.346 97.0042 29.4631 99.0293 28.1347 100.457C27.8656 100.718 27.5443 100.92 27.1916 101.05C26.839 101.179 26.4629 101.234 26.0876 101.211ZM24.2747 100.577C24.6138 100.698 26.8225 101.423 27.9288 100.22C29.0351 99.0173 29.0473 97.3771 29.0432 96.9841C28.6637 96.7876 27.1091 95.9495 26.7497 95.1756C26.6123 94.9497 26.4178 94.7635 26.1855 94.6354C25.9531 94.5074 25.6911 94.442 25.4254 94.4457C25.1878 94.4415 24.9544 94.509 24.7561 94.6394C24.5579 94.7697 24.4041 94.9566 24.3151 95.1756L24.2868 95.2197C23.778 95.733 22.5183 97.2007 22.7524 97.8584C23.1863 98.8026 23.6939 99.7117 24.2706 100.577H24.2747Z" fill="#161648"/>
<path d="M7.91822 79.7529C7.91822 79.7529 8.93979 80.5148 9.77156 80.5148C10.6033 80.5148 9.1336 82.0387 9.77156 82.163C10.4095 82.2873 12.711 81.5935 12.711 81.5935C12.711 81.5935 13.349 83.751 12.073 84.1961H11.5117V87.5526C11.5117 87.5526 13.2762 90.7086 12.5292 92.7658C11.7823 94.823 9.65849 96.1865 9.65849 96.1865L7.91822 96.4512L7.5387 97.2813C7.5387 97.2813 6.34757 98.2477 5.81863 95.9218L3.43228 92.9423L3.02851 86.8027H2.26543V83.9956C1.75202 83.1759 1.44846 82.2438 1.38119 81.2808C1.20353 79.5243 2.44306 79.7489 2.44306 79.7489C2.44306 79.7489 2.54399 77.828 3.84009 77.9042C5.1362 77.9804 5.05146 76.7012 5.81055 79.2155C5.81458 79.2195 7.44984 78.7945 7.91822 79.7529Z" fill="#ADB3D7"/>
<path d="M6.96092 97.6336C6.86358 97.6344 6.76679 97.6195 6.67426 97.5895C6.20992 97.4291 5.86671 96.8917 5.66079 95.9854L3.2705 92.9938L2.86673 86.9505H2.10364V84.0392C1.59901 83.2026 1.29756 82.2607 1.22335 81.2882C1.15471 80.6185 1.27994 80.1293 1.59085 79.8445C1.78474 79.6721 2.0372 79.5789 2.29744 79.5839C2.34247 79.0117 2.57666 78.4703 2.96363 78.044C3.08221 77.9388 3.22093 77.8583 3.37144 77.8073C3.52195 77.7563 3.68116 77.7359 3.83978 77.7472C4.1182 77.7613 4.39576 77.7062 4.64732 77.5868C4.72251 77.5387 4.80767 77.5079 4.89642 77.4968C4.98517 77.4857 5.07526 77.4946 5.16012 77.5227C5.3943 77.6309 5.56391 77.9758 5.89096 79.0305C6.31492 78.9503 7.55852 78.7899 7.99459 79.644C8.16418 79.7603 9.0323 80.3538 9.73083 80.3538C9.79953 80.3479 9.86862 80.3595 9.93153 80.3876C9.99444 80.4156 10.049 80.4592 10.0901 80.5142C10.2274 80.7268 10.0902 81.0516 9.91655 81.3965C9.82772 81.589 9.67833 81.9058 9.72274 81.99C9.72274 81.99 9.72278 81.99 9.75912 81.99C10.2517 82.0902 11.9959 81.617 12.6258 81.4245L12.7712 81.3804L12.8156 81.5248C12.8439 81.621 13.4778 83.8266 12.0808 84.3119H12.0323H11.6285V87.4799C11.8264 87.8528 13.3647 90.7802 12.6339 92.7893C11.8748 94.8746 9.80752 96.226 9.70254 96.2822L9.64605 96.3062L7.98651 96.5589L7.58274 97.3609C7.40785 97.5119 7.1911 97.6069 6.96092 97.6336ZM3.56524 92.8896L5.94755 95.8932C6.12924 96.6952 6.41592 97.1804 6.75509 97.3007C6.86181 97.3304 6.97388 97.3357 7.08295 97.3163C7.19203 97.2968 7.29522 97.2531 7.3849 97.1884L7.78867 96.3182L9.57744 96.0456C9.8197 95.8811 11.681 94.5859 12.3594 92.7171C13.0781 90.7481 11.3742 87.6563 11.354 87.6242V87.5922V84.0432H12.0363C12.9569 83.6983 12.7026 82.2506 12.5936 81.7814C12.0404 81.9459 10.3123 82.4271 9.73487 82.3108C9.6819 82.3036 9.63149 82.2838 9.58789 82.2531C9.5443 82.2224 9.50877 82.1816 9.48448 82.1343C9.37547 81.9218 9.52091 81.609 9.67434 81.2802C9.75914 81.0957 9.9166 80.7589 9.86814 80.6827C9.86814 80.6827 9.83988 80.6626 9.76316 80.6626C8.89102 80.6626 7.86137 79.9047 7.81696 79.8606L7.7725 79.8044C7.36873 78.9703 5.87478 79.3473 5.85863 79.3513L5.72141 79.3874L5.67695 79.251C5.45892 78.5372 5.2328 77.8675 5.06321 77.7913C5.01476 77.7673 4.93404 77.7913 4.79676 77.8595C4.49992 78 4.17204 78.0634 3.84382 78.044C3.72484 78.0352 3.60534 78.0502 3.49229 78.0881C3.37925 78.1259 3.27501 78.186 3.18572 78.2645C2.66889 78.7257 2.60431 79.7363 2.60431 79.7483V79.9167L2.43466 79.8887C2.32562 79.8736 2.21462 79.8815 2.10887 79.9119C2.00312 79.9423 1.90499 79.9945 1.82092 80.0651C1.68678 80.232 1.59308 80.4273 1.54688 80.6358C1.50068 80.8444 1.50324 81.0607 1.55447 81.2681C1.62299 82.2038 1.91509 83.1097 2.40647 83.9108L2.43466 83.9509V86.6618H3.17764L3.56524 92.8896Z" fill="#161648"/>
<path d="M13.8981 73.4523L16.6962 70.8818C16.6962 70.8818 19.8052 72.4257 19.9264 74.892C20.0475 77.3582 19.9264 77.9036 19.9264 77.9036C19.9264 77.9036 21.069 78.441 20.9115 79.1067C20.9115 79.1067 22.8578 78.0761 24.1902 79.6721C24.1902 79.6721 26.4553 80.0731 26.4553 81.1639C27.5292 82.0072 28.6906 82.7345 29.9197 83.3334C29.9197 83.3334 26.5442 82.1303 25.127 83.3334C23.7098 84.5364 21.8968 83.7624 21.8968 83.7624L17.3745 85.8196C17.3745 85.8196 13.995 85.5109 13.3368 83.5459C12.6787 81.5809 13.5549 79.3994 13.5549 79.3994L15.2466 78.3447V76.7407C15.2466 76.7407 12.0448 76.3918 13.8981 73.4523Z" fill="#ADB3D7"/>
<path d="M17.4027 85.9808H17.3623C17.2169 85.9808 13.8737 85.64 13.1995 83.6068C12.5252 81.5737 13.3851 79.4483 13.4214 79.3561V79.3119L15.081 78.2733V76.8778C14.7136 76.8136 13.6961 76.565 13.3044 75.759C12.9976 75.1334 13.1469 74.3313 13.7485 73.3769L13.7728 73.3489L16.6477 70.7021L16.7446 70.7503C16.8738 70.8144 19.9343 72.3543 20.0393 74.8928C20.0989 75.8703 20.0989 76.8506 20.0393 77.8282C20.2896 77.9605 20.9397 78.3615 21.0164 78.8869C21.5898 78.6663 23.0999 78.2573 24.2184 79.5485C24.5737 79.6207 26.4673 80.0498 26.5521 81.1045C27.6027 81.9199 28.7353 82.6254 29.9317 83.2098L29.8146 83.4865C29.7823 83.4865 26.5077 82.3396 25.1712 83.4584C23.8347 84.5773 22.2156 84.068 21.8684 83.9397L17.4027 85.9808ZM13.688 79.5084C13.5709 79.8293 12.9128 81.7742 13.4902 83.5186C14.0675 85.263 16.9747 85.64 17.3502 85.6841L21.8967 83.6148L21.9572 83.6429C21.9572 83.6429 23.6854 84.3487 25.0097 83.2419C25.9061 82.488 27.501 82.6283 28.6437 82.8409C27.8443 82.3748 27.078 81.855 26.3502 81.2849L26.2937 81.2408V81.1687C26.2937 80.3867 24.7472 79.9335 24.1497 79.8252H24.0972L24.0608 79.7851C22.8253 78.3054 21.0447 79.2157 20.972 79.2558L20.6773 79.4082L20.754 79.0874C20.8792 78.554 19.8617 78.0568 19.8495 78.0528L19.7446 78.0006L19.7688 77.8883C19.8455 76.8966 19.8455 75.9005 19.7688 74.9088C19.68 72.7914 17.2372 71.3478 16.7324 71.0711L14.0271 73.5574C13.4941 74.4115 13.3528 75.1053 13.6233 75.6306C14.0271 76.4527 15.2869 76.6011 15.299 76.6051H15.4323V78.4337L13.688 79.5084Z" fill="#161648"/>
</svg>
