<svg width="75" height="67" viewBox="0 0 75 67" fill="none" xmlns="http://www.w3.org/2000/svg">
<path d="M25.368 7.432C25.368 6.8 25.032 6.264 24.424 5.984C24.88 5.712 25.12 5.256 25.12 4.728C25.12 3.824 24.384 3.24 23.384 3.24C22.528 3.24 21.928 3.624 21.52 4.28L22.24 4.72C22.496 4.272 22.84 4.024 23.328 4.024C23.84 4.024 24.216 4.312 24.216 4.816C24.216 5.312 23.84 5.64 23.272 5.64H22.432V6.424H23.368C24.04 6.424 24.472 6.808 24.472 7.392C24.472 8.008 24 8.376 23.368 8.376C22.776 8.376 22.36 8.112 22.032 7.496L21.264 7.968C21.712 8.736 22.368 9.16 23.376 9.16C24.52 9.16 25.368 8.472 25.368 7.432ZM28.1266 3.24C26.9506 3.24 26.3026 3.928 26.3026 4.728C26.3026 5.264 26.5746 5.704 27.0946 5.944C26.4146 6.208 26.0466 6.744 26.0466 7.44C26.0466 8.416 26.8066 9.16 28.1266 9.16C29.4546 9.16 30.2066 8.416 30.2066 7.44C30.2066 6.744 29.8386 6.208 29.1666 5.944C29.6786 5.704 29.9506 5.264 29.9506 4.728C29.9506 3.928 29.3106 3.24 28.1266 3.24ZM28.1426 5.616C27.5746 5.616 27.2066 5.296 27.2066 4.808C27.2066 4.328 27.5666 4 28.1426 4C28.6786 4 29.0466 4.328 29.0466 4.808C29.0466 5.296 28.6786 5.616 28.1426 5.616ZM28.1346 8.392C27.4146 8.392 26.9506 8 26.9506 7.4C26.9506 6.792 27.4146 6.368 28.1346 6.368C28.8386 6.368 29.3026 6.792 29.3026 7.4C29.3026 7.992 28.8386 8.392 28.1346 8.392ZM32.1634 3.224C31.3474 3.224 30.8034 3.824 30.8034 4.56C30.8034 5.296 31.3474 5.896 32.1634 5.896C32.9634 5.896 33.5154 5.296 33.5154 4.56C33.5154 3.824 32.9634 3.224 32.1634 3.224ZM31.3394 8.992H32.1954L36.2994 3.392H35.4434L31.3394 8.992ZM32.1634 5.328C31.7394 5.328 31.4354 5 31.4354 4.56C31.4354 4.12 31.7394 3.792 32.1634 3.792C32.5794 3.792 32.8834 4.12 32.8834 4.56C32.8834 4.992 32.5794 5.328 32.1634 5.328ZM35.4914 6.48C34.6754 6.48 34.1314 7.08 34.1314 7.816C34.1314 8.552 34.6754 9.152 35.4914 9.152C36.2914 9.152 36.8434 8.552 36.8434 7.816C36.8434 7.08 36.2914 6.48 35.4914 6.48ZM35.4914 8.584C35.0674 8.584 34.7634 8.256 34.7634 7.816C34.7634 7.376 35.0674 7.048 35.4914 7.048C35.9074 7.048 36.2114 7.376 36.2114 7.816C36.2114 8.248 35.9074 8.584 35.4914 8.584ZM41.8331 4.808C40.5291 4.808 39.6411 5.792 39.6411 6.984C39.6411 8.176 40.5291 9.16 41.8331 9.16C43.1451 9.16 44.0251 8.176 44.0251 6.984C44.0251 5.792 43.1451 4.808 41.8331 4.808ZM41.8411 8.384C41.0651 8.384 40.5051 7.76 40.5051 6.984C40.5051 6.208 41.0651 5.584 41.8411 5.584C42.6011 5.584 43.1611 6.2 43.1611 6.984C43.1611 7.752 42.6011 8.384 41.8411 8.384ZM47.7908 7.272C47.7908 7.968 47.4148 8.384 46.7988 8.384C46.1668 8.384 45.7988 7.968 45.7988 7.272V4.968H44.9668V7.232C44.9668 8.44 45.6628 9.16 46.7988 9.16C47.9268 9.16 48.6228 8.44 48.6228 7.232V4.968H47.7908V7.272ZM52.0314 10.968H52.8554V8.584C53.1994 8.952 53.6314 9.16 54.2154 9.16C55.4794 9.16 56.2714 8.16 56.2714 6.984C56.2714 5.808 55.4794 4.808 54.2154 4.808C53.6314 4.808 53.1994 5.016 52.8554 5.384V4.968H52.0314V10.968ZM54.1114 5.584C54.8874 5.584 55.4074 6.192 55.4074 6.984C55.4074 7.776 54.8874 8.384 54.1114 8.384C53.5914 8.384 53.1514 8.144 52.8554 7.696V6.272C53.1434 5.832 53.5834 5.584 54.1114 5.584ZM57.297 9H58.121V3H57.297V9ZM62.2049 7.272C62.2049 7.968 61.8289 8.384 61.2129 8.384C60.5809 8.384 60.2129 7.968 60.2129 7.272V4.968H59.3809V7.232C59.3809 8.44 60.0769 9.16 61.2129 9.16C62.3409 9.16 63.0369 8.44 63.0369 7.232V4.968H62.2049V7.272ZM63.8658 8.432C64.2418 8.888 64.7458 9.16 65.4258 9.16C66.1778 9.16 66.8178 8.688 66.8258 7.896C66.8258 6.512 64.8498 6.784 64.8498 5.976C64.8498 5.704 65.0418 5.48 65.4258 5.48C65.7618 5.48 66.0418 5.68 66.2578 5.968L66.8178 5.48C66.5298 5.096 66.0098 4.808 65.4178 4.808C64.6098 4.808 64.0498 5.336 64.0498 6C64.0498 7.424 66.0258 7.128 66.0258 7.944C66.0258 8.248 65.8098 8.488 65.4178 8.488C65.0178 8.488 64.6978 8.272 64.4338 7.936L63.8658 8.432ZM25.368 21.432C25.368 20.8 25.032 20.264 24.424 19.984C24.88 19.712 25.12 19.256 25.12 18.728C25.12 17.824 24.384 17.24 23.384 17.24C22.528 17.24 21.928 17.624 21.52 18.28L22.24 18.72C22.496 18.272 22.84 18.024 23.328 18.024C23.84 18.024 24.216 18.312 24.216 18.816C24.216 19.312 23.84 19.64 23.272 19.64H22.432V20.424H23.368C24.04 20.424 24.472 20.808 24.472 21.392C24.472 22.008 24 22.376 23.368 22.376C22.776 22.376 22.36 22.112 22.032 21.496L21.264 21.968C21.712 22.736 22.368 23.16 23.376 23.16C24.52 23.16 25.368 22.472 25.368 21.432ZM28.4456 17.24C26.7976 17.24 26.0776 18.48 26.0776 20.264C26.0776 22.168 26.8936 23.16 28.2696 23.16C29.5096 23.16 30.2456 22.288 30.2456 21.256C30.2456 20.256 29.5336 19.464 28.4536 19.464C27.8616 19.464 27.3656 19.664 26.9896 20.032C27.0376 18.768 27.5176 18.04 28.4376 18.04C28.9256 18.04 29.2776 18.28 29.5896 18.72L30.2776 18.176C29.9016 17.64 29.3336 17.24 28.4456 17.24ZM28.3096 20.248C28.9096 20.248 29.3416 20.696 29.3416 21.288C29.3416 21.896 28.9336 22.36 28.2536 22.36C27.6136 22.36 27.1416 21.96 27.0136 20.904C27.3256 20.464 27.7896 20.248 28.3096 20.248ZM32.2025 17.224C31.3865 17.224 30.8425 17.824 30.8425 18.56C30.8425 19.296 31.3865 19.896 32.2025 19.896C33.0025 19.896 33.5545 19.296 33.5545 18.56C33.5545 17.824 33.0025 17.224 32.2025 17.224ZM31.3785 22.992H32.2345L36.3385 17.392H35.4825L31.3785 22.992ZM32.2025 19.328C31.7785 19.328 31.4745 19 31.4745 18.56C31.4745 18.12 31.7785 17.792 32.2025 17.792C32.6185 17.792 32.9225 18.12 32.9225 18.56C32.9225 18.992 32.6185 19.328 32.2025 19.328ZM35.5305 20.48C34.7145 20.48 34.1705 21.08 34.1705 21.816C34.1705 22.552 34.7145 23.152 35.5305 23.152C36.3305 23.152 36.8825 22.552 36.8825 21.816C36.8825 21.08 36.3305 20.48 35.5305 20.48ZM35.5305 22.584C35.1065 22.584 34.8025 22.256 34.8025 21.816C34.8025 21.376 35.1065 21.048 35.5305 21.048C35.9465 21.048 36.2505 21.376 36.2505 21.816C36.2505 22.248 35.9465 22.584 35.5305 22.584ZM41.1441 18.328H41.9441L41.1121 17H40.2001L41.1441 18.328ZM41.1121 23.12C41.6081 23.12 42.1121 22.896 42.4001 22.544V23H43.2241V20.336C43.2241 19.448 42.6241 18.808 41.5361 18.808C40.8161 18.808 40.2401 19.112 39.8801 19.592L40.4961 20.064C40.7281 19.736 41.0721 19.536 41.5121 19.536C42.0321 19.536 42.4001 19.84 42.4001 20.336V20.544L41.0961 20.76C40.2401 20.904 39.7681 21.344 39.7681 21.952C39.7681 22.664 40.3121 23.12 41.1121 23.12ZM40.6001 21.92C40.6001 21.616 40.8081 21.4 41.3121 21.312L42.4001 21.128V21.824C42.1601 22.208 41.7681 22.448 41.2641 22.448C40.8481 22.448 40.6001 22.232 40.6001 21.92ZM50.368 21.432C50.368 20.8 50.032 20.264 49.424 19.984C49.88 19.712 50.12 19.256 50.12 18.728C50.12 17.824 49.384 17.24 48.384 17.24C47.528 17.24 46.928 17.624 46.52 18.28L47.24 18.72C47.496 18.272 47.84 18.024 48.328 18.024C48.84 18.024 49.216 18.312 49.216 18.816C49.216 19.312 48.84 19.64 48.272 19.64H47.432V20.424H48.368C49.04 20.424 49.472 20.808 49.472 21.392C49.472 22.008 49 22.376 48.368 22.376C47.776 22.376 47.36 22.112 47.032 21.496L46.264 21.968C46.712 22.736 47.368 23.16 48.376 23.16C49.52 23.16 50.368 22.472 50.368 21.432ZM53.1266 17.24C51.9506 17.24 51.3026 17.928 51.3026 18.728C51.3026 19.264 51.5746 19.704 52.0946 19.944C51.4146 20.208 51.0466 20.744 51.0466 21.44C51.0466 22.416 51.8066 23.16 53.1266 23.16C54.4546 23.16 55.2066 22.416 55.2066 21.44C55.2066 20.744 54.8386 20.208 54.1666 19.944C54.6786 19.704 54.9506 19.264 54.9506 18.728C54.9506 17.928 54.3106 17.24 53.1266 17.24ZM53.1426 19.616C52.5746 19.616 52.2066 19.296 52.2066 18.808C52.2066 18.328 52.5666 18 53.1426 18C53.6786 18 54.0466 18.328 54.0466 18.808C54.0466 19.296 53.6786 19.616 53.1426 19.616ZM53.1346 22.392C52.4146 22.392 51.9506 22 51.9506 21.4C51.9506 20.792 52.4146 20.368 53.1346 20.368C53.8386 20.368 54.3026 20.792 54.3026 21.4C54.3026 21.992 53.8386 22.392 53.1346 22.392ZM57.1634 17.224C56.3474 17.224 55.8034 17.824 55.8034 18.56C55.8034 19.296 56.3474 19.896 57.1634 19.896C57.9634 19.896 58.5154 19.296 58.5154 18.56C58.5154 17.824 57.9634 17.224 57.1634 17.224ZM56.3394 22.992H57.1954L61.2994 17.392H60.4434L56.3394 22.992ZM57.1634 19.328C56.7394 19.328 56.4354 19 56.4354 18.56C56.4354 18.12 56.7394 17.792 57.1634 17.792C57.5794 17.792 57.8834 18.12 57.8834 18.56C57.8834 18.992 57.5794 19.328 57.1634 19.328ZM60.4914 20.48C59.6754 20.48 59.1314 21.08 59.1314 21.816C59.1314 22.552 59.6754 23.152 60.4914 23.152C61.2914 23.152 61.8434 22.552 61.8434 21.816C61.8434 21.08 61.2914 20.48 60.4914 20.48ZM60.4914 22.584C60.0674 22.584 59.7634 22.256 59.7634 21.816C59.7634 21.376 60.0674 21.048 60.4914 21.048C60.9074 21.048 61.2114 21.376 61.2114 21.816C61.2114 22.248 60.9074 22.584 60.4914 22.584ZM25.368 35.432C25.368 34.8 25.032 34.264 24.424 33.984C24.88 33.712 25.12 33.256 25.12 32.728C25.12 31.824 24.384 31.24 23.384 31.24C22.528 31.24 21.928 31.624 21.52 32.28L22.24 32.72C22.496 32.272 22.84 32.024 23.328 32.024C23.84 32.024 24.216 32.312 24.216 32.816C24.216 33.312 23.84 33.64 23.272 33.64H22.432V34.424H23.368C24.04 34.424 24.472 34.808 24.472 35.392C24.472 36.008 24 36.376 23.368 36.376C22.776 36.376 22.36 36.112 22.032 35.496L21.264 35.968C21.712 36.736 22.368 37.16 23.376 37.16C24.52 37.16 25.368 36.472 25.368 35.432ZM26.4871 34.416H28.0071C28.7591 34.416 29.1831 34.8 29.1831 35.392C29.1831 36.008 28.7191 36.376 28.0871 36.376C27.5031 36.376 27.0791 36.112 26.7431 35.496L25.9751 35.968C26.4231 36.744 27.0951 37.16 28.0871 37.16C29.2231 37.16 30.0791 36.464 30.0791 35.36C30.0791 34.328 29.4471 33.632 28.0471 33.632H27.4071L27.4871 32.192H29.8471V31.4H26.6471L26.4871 34.416ZM32.14 31.224C31.324 31.224 30.78 31.824 30.78 32.56C30.78 33.296 31.324 33.896 32.14 33.896C32.94 33.896 33.492 33.296 33.492 32.56C33.492 31.824 32.94 31.224 32.14 31.224ZM31.316 36.992H32.172L36.276 31.392H35.42L31.316 36.992ZM32.14 33.328C31.716 33.328 31.412 33 31.412 32.56C31.412 32.12 31.716 31.792 32.14 31.792C32.556 31.792 32.86 32.12 32.86 32.56C32.86 32.992 32.556 33.328 32.14 33.328ZM35.468 34.48C34.652 34.48 34.108 35.08 34.108 35.816C34.108 36.552 34.652 37.152 35.468 37.152C36.268 37.152 36.82 36.552 36.82 35.816C36.82 35.08 36.268 34.48 35.468 34.48ZM35.468 36.584C35.044 36.584 34.74 36.256 34.74 35.816C34.74 35.376 35.044 35.048 35.468 35.048C35.884 35.048 36.188 35.376 36.188 35.816C36.188 36.248 35.884 36.584 35.468 36.584ZM41.0816 32.328H41.8816L41.0496 31H40.1376L41.0816 32.328ZM41.0496 37.12C41.5456 37.12 42.0496 36.896 42.3376 36.544V37H43.1616V34.336C43.1616 33.448 42.5616 32.808 41.4736 32.808C40.7536 32.808 40.1776 33.112 39.8176 33.592L40.4336 34.064C40.6656 33.736 41.0096 33.536 41.4496 33.536C41.9696 33.536 42.3376 33.84 42.3376 34.336V34.544L41.0336 34.76C40.1776 34.904 39.7056 35.344 39.7056 35.952C39.7056 36.664 40.2496 37.12 41.0496 37.12ZM40.5376 35.92C40.5376 35.616 40.7456 35.4 41.2496 35.312L42.3376 35.128V35.824C42.0976 36.208 41.7056 36.448 41.2016 36.448C40.7856 36.448 40.5376 36.232 40.5376 35.92ZM50.3055 35.432C50.3055 34.8 49.9695 34.264 49.3615 33.984C49.8175 33.712 50.0575 33.256 50.0575 32.728C50.0575 31.824 49.3215 31.24 48.3215 31.24C47.4655 31.24 46.8655 31.624 46.4575 32.28L47.1775 32.72C47.4335 32.272 47.7775 32.024 48.2655 32.024C48.7775 32.024 49.1535 32.312 49.1535 32.816C49.1535 33.312 48.7775 33.64 48.2095 33.64H47.3695V34.424H48.3055C48.9775 34.424 49.4095 34.808 49.4095 35.392C49.4095 36.008 48.9375 36.376 48.3055 36.376C47.7135 36.376 47.2975 36.112 46.9695 35.496L46.2015 35.968C46.6495 36.736 47.3055 37.16 48.3135 37.16C49.4575 37.16 50.3055 36.472 50.3055 35.432ZM53.3831 31.24C51.7351 31.24 51.0151 32.48 51.0151 34.264C51.0151 36.168 51.8311 37.16 53.2071 37.16C54.4471 37.16 55.1831 36.288 55.1831 35.256C55.1831 34.256 54.4711 33.464 53.3911 33.464C52.7991 33.464 52.3031 33.664 51.9271 34.032C51.9751 32.768 52.4551 32.04 53.3751 32.04C53.8631 32.04 54.2151 32.28 54.5271 32.72L55.2151 32.176C54.8391 31.64 54.2711 31.24 53.3831 31.24ZM53.2471 34.248C53.8471 34.248 54.2791 34.696 54.2791 35.288C54.2791 35.896 53.8711 36.36 53.1911 36.36C52.5511 36.36 52.0791 35.96 51.9511 34.904C52.2631 34.464 52.7271 34.248 53.2471 34.248ZM57.14 31.224C56.324 31.224 55.78 31.824 55.78 32.56C55.78 33.296 56.324 33.896 57.14 33.896C57.94 33.896 58.492 33.296 58.492 32.56C58.492 31.824 57.94 31.224 57.14 31.224ZM56.316 36.992H57.172L61.276 31.392H60.42L56.316 36.992ZM57.14 33.328C56.716 33.328 56.412 33 56.412 32.56C56.412 32.12 56.716 31.792 57.14 31.792C57.556 31.792 57.86 32.12 57.86 32.56C57.86 32.992 57.556 33.328 57.14 33.328ZM60.468 34.48C59.652 34.48 59.108 35.08 59.108 35.816C59.108 36.552 59.652 37.152 60.468 37.152C61.268 37.152 61.82 36.552 61.82 35.816C61.82 35.08 61.268 34.48 60.468 34.48ZM60.468 36.584C60.044 36.584 59.74 36.256 59.74 35.816C59.74 35.376 60.044 35.048 60.468 35.048C60.884 35.048 61.188 35.376 61.188 35.816C61.188 36.248 60.884 36.584 60.468 36.584ZM25.368 49.432C25.368 48.8 25.032 48.264 24.424 47.984C24.88 47.712 25.12 47.256 25.12 46.728C25.12 45.824 24.384 45.24 23.384 45.24C22.528 45.24 21.928 45.624 21.52 46.28L22.24 46.72C22.496 46.272 22.84 46.024 23.328 46.024C23.84 46.024 24.216 46.312 24.216 46.816C24.216 47.312 23.84 47.64 23.272 47.64H22.432V48.424H23.368C24.04 48.424 24.472 48.808 24.472 49.392C24.472 50.008 24 50.376 23.368 50.376C22.776 50.376 22.36 50.112 22.032 49.496L21.264 49.968C21.712 50.736 22.368 51.16 23.376 51.16C24.52 51.16 25.368 50.472 25.368 49.432ZM26.1526 51H29.9526V50.208H27.2166L28.6806 48.76C29.3046 48.128 29.8006 47.552 29.8006 46.792C29.8006 45.856 29.0406 45.24 28.0886 45.24C27.1686 45.24 26.5126 45.688 26.0486 46.416L26.7686 46.856C27.0806 46.336 27.4406 46.024 28.0086 46.024C28.5206 46.024 28.9046 46.328 28.9046 46.864C28.9046 47.392 28.6166 47.704 28.0566 48.28L26.1526 50.208V51ZM32.0775 45.224C31.2615 45.224 30.7175 45.824 30.7175 46.56C30.7175 47.296 31.2615 47.896 32.0775 47.896C32.8775 47.896 33.4295 47.296 33.4295 46.56C33.4295 45.824 32.8775 45.224 32.0775 45.224ZM31.2535 50.992H32.1095L36.2135 45.392H35.3575L31.2535 50.992ZM32.0775 47.328C31.6535 47.328 31.3495 47 31.3495 46.56C31.3495 46.12 31.6535 45.792 32.0775 45.792C32.4935 45.792 32.7975 46.12 32.7975 46.56C32.7975 46.992 32.4935 47.328 32.0775 47.328ZM35.4055 48.48C34.5895 48.48 34.0455 49.08 34.0455 49.816C34.0455 50.552 34.5895 51.152 35.4055 51.152C36.2055 51.152 36.7575 50.552 36.7575 49.816C36.7575 49.08 36.2055 48.48 35.4055 48.48ZM35.4055 50.584C34.9815 50.584 34.6775 50.256 34.6775 49.816C34.6775 49.376 34.9815 49.048 35.4055 49.048C35.8215 49.048 36.1255 49.376 36.1255 49.816C36.1255 50.248 35.8215 50.584 35.4055 50.584ZM41.0191 46.328H41.8191L40.9871 45H40.0751L41.0191 46.328ZM40.9871 51.12C41.4831 51.12 41.9871 50.896 42.2751 50.544V51H43.0991V48.336C43.0991 47.448 42.4991 46.808 41.4111 46.808C40.6911 46.808 40.1151 47.112 39.7551 47.592L40.3711 48.064C40.6031 47.736 40.9471 47.536 41.3871 47.536C41.9071 47.536 42.2751 47.84 42.2751 48.336V48.544L40.9711 48.76C40.1151 48.904 39.6431 49.344 39.6431 49.952C39.6431 50.664 40.1871 51.12 40.9871 51.12ZM40.4751 49.92C40.4751 49.616 40.6831 49.4 41.1871 49.312L42.2751 49.128V49.824C42.0351 50.208 41.6431 50.448 41.1391 50.448C40.7231 50.448 40.4751 50.232 40.4751 49.92ZM50.243 49.432C50.243 48.8 49.907 48.264 49.299 47.984C49.755 47.712 49.995 47.256 49.995 46.728C49.995 45.824 49.259 45.24 48.259 45.24C47.403 45.24 46.803 45.624 46.395 46.28L47.115 46.72C47.371 46.272 47.715 46.024 48.203 46.024C48.715 46.024 49.091 46.312 49.091 46.816C49.091 47.312 48.715 47.64 48.147 47.64H47.307V48.424H48.243C48.915 48.424 49.347 48.808 49.347 49.392C49.347 50.008 48.875 50.376 48.243 50.376C47.651 50.376 47.235 50.112 46.907 49.496L46.139 49.968C46.587 50.736 47.243 51.16 48.251 51.16C49.395 51.16 50.243 50.472 50.243 49.432ZM51.3621 48.416H52.8821C53.6341 48.416 54.0581 48.8 54.0581 49.392C54.0581 50.008 53.5941 50.376 52.9621 50.376C52.3781 50.376 51.9541 50.112 51.6181 49.496L50.8501 49.968C51.2981 50.744 51.9701 51.16 52.9621 51.16C54.0981 51.16 54.9541 50.464 54.9541 49.36C54.9541 48.328 54.3221 47.632 52.9221 47.632H52.2821L52.3621 46.192H54.7221V45.4H51.5221L51.3621 48.416ZM57.015 45.224C56.199 45.224 55.655 45.824 55.655 46.56C55.655 47.296 56.199 47.896 57.015 47.896C57.815 47.896 58.367 47.296 58.367 46.56C58.367 45.824 57.815 45.224 57.015 45.224ZM56.191 50.992H57.047L61.151 45.392H60.295L56.191 50.992ZM57.015 47.328C56.591 47.328 56.287 47 56.287 46.56C56.287 46.12 56.591 45.792 57.015 45.792C57.431 45.792 57.735 46.12 57.735 46.56C57.735 46.992 57.431 47.328 57.015 47.328ZM60.343 48.48C59.527 48.48 58.983 49.08 58.983 49.816C58.983 50.552 59.527 51.152 60.343 51.152C61.143 51.152 61.695 50.552 61.695 49.816C61.695 49.08 61.143 48.48 60.343 48.48ZM60.343 50.584C59.919 50.584 59.615 50.256 59.615 49.816C59.615 49.376 59.919 49.048 60.343 49.048C60.759 49.048 61.063 49.376 61.063 49.816C61.063 50.248 60.759 50.584 60.343 50.584ZM21.672 65H22.496V62.28C22.688 61.936 22.992 61.584 23.504 61.584C24.032 61.584 24.352 61.936 24.352 62.528V65H25.184V62.496C25.184 62.416 25.184 62.344 25.176 62.272C25.392 61.888 25.704 61.584 26.184 61.584C26.704 61.584 27.032 61.936 27.032 62.528V65H27.864V62.496C27.864 61.384 27.216 60.808 26.376 60.808C25.68 60.808 25.28 61.136 24.968 61.536C24.712 61.056 24.248 60.808 23.696 60.808C23.16 60.808 22.784 61.032 22.496 61.344V60.968H21.672V65ZM31.0128 60.808C29.7088 60.808 28.8208 61.792 28.8208 62.984C28.8208 64.176 29.7088 65.16 31.0128 65.16C32.3248 65.16 33.2048 64.176 33.2048 62.984C33.2048 61.792 32.3248 60.808 31.0128 60.808ZM31.0208 64.384C30.2448 64.384 29.6848 63.76 29.6848 62.984C29.6848 62.208 30.2448 61.584 31.0208 61.584C31.7808 61.584 32.3408 62.2 32.3408 62.984C32.3408 63.752 31.7808 64.384 31.0208 64.384ZM34.6505 60.072C34.9545 60.072 35.2105 59.816 35.2105 59.512C35.2105 59.208 34.9545 58.952 34.6505 58.952C34.3465 58.952 34.0905 59.208 34.0905 59.512C34.0905 59.816 34.3465 60.072 34.6505 60.072ZM34.2345 65H35.0585V60.968H34.2345V65ZM36.4064 65H37.2304V62.28C37.4384 61.928 37.7664 61.584 38.3184 61.584C38.8944 61.584 39.2464 61.968 39.2464 62.608V65H40.0784V62.576C40.0784 61.408 39.3984 60.808 38.5104 60.808C37.9344 60.808 37.5344 61.04 37.2304 61.36V60.968H36.4064V65ZM40.9595 64.432C41.3355 64.888 41.8395 65.16 42.5195 65.16C43.2715 65.16 43.9115 64.688 43.9195 63.896C43.9195 62.512 41.9435 62.784 41.9435 61.976C41.9435 61.704 42.1355 61.48 42.5195 61.48C42.8555 61.48 43.1355 61.68 43.3515 61.968L43.9115 61.48C43.6235 61.096 43.1035 60.808 42.5115 60.808C41.7035 60.808 41.1435 61.336 41.1435 62C41.1435 63.424 43.1195 63.128 43.1195 63.944C43.1195 64.248 42.9035 64.488 42.5115 64.488C42.1115 64.488 41.7915 64.272 41.5275 63.936L40.9595 64.432ZM46.7895 62.984C46.7895 64.16 47.5815 65.16 48.8535 65.16C49.4295 65.16 49.8615 64.952 50.1975 64.592V65H51.0375V59H50.1975V61.376C49.8615 61.016 49.4295 60.808 48.8535 60.808C47.5815 60.808 46.7895 61.808 46.7895 62.984ZM47.6615 62.984C47.6615 62.192 48.1815 61.584 48.9575 61.584C49.4615 61.584 49.9015 61.816 50.1975 62.256V63.712C49.9255 64.136 49.4775 64.384 48.9575 64.384C48.1815 64.384 47.6615 63.776 47.6615 62.984ZM56.0073 64.344L55.4073 63.864C55.1593 64.2 54.7513 64.416 54.2633 64.416C53.4873 64.416 52.9513 63.96 52.8953 63.08H55.8713C55.9033 62.96 55.9273 62.776 55.9273 62.592C55.9273 61.568 55.2073 60.808 54.0953 60.808C52.8153 60.808 52.0473 61.776 52.0473 62.984C52.0473 64.16 52.8713 65.16 54.2633 65.16C55.0153 65.16 55.6313 64.848 56.0073 64.344ZM54.0793 61.496C54.7273 61.496 55.0873 61.96 55.1033 62.464H52.9353C53.0633 61.84 53.4793 61.496 54.0793 61.496ZM59.0042 65H62.8042V64.208H60.0682L61.5322 62.76C62.1562 62.128 62.6522 61.552 62.6522 60.792C62.6522 59.856 61.8922 59.24 60.9402 59.24C60.0202 59.24 59.3642 59.688 58.9002 60.416L59.6202 60.856C59.9322 60.336 60.2922 60.024 60.8602 60.024C61.3722 60.024 61.7562 60.328 61.7562 60.864C61.7562 61.392 61.4682 61.704 60.9082 62.28L59.0042 64.208V65ZM64.7261 65L67.5501 60.192V59.4H63.5981V60.192H66.6141L63.7181 65H64.7261ZM69.515 59.224C68.699 59.224 68.155 59.824 68.155 60.56C68.155 61.296 68.699 61.896 69.515 61.896C70.315 61.896 70.867 61.296 70.867 60.56C70.867 59.824 70.315 59.224 69.515 59.224ZM68.691 64.992H69.547L73.651 59.392H72.795L68.691 64.992ZM69.515 61.328C69.091 61.328 68.787 61 68.787 60.56C68.787 60.12 69.091 59.792 69.515 59.792C69.931 59.792 70.235 60.12 70.235 60.56C70.235 60.992 69.931 61.328 69.515 61.328ZM72.843 62.48C72.027 62.48 71.483 63.08 71.483 63.816C71.483 64.552 72.027 65.152 72.843 65.152C73.643 65.152 74.195 64.552 74.195 63.816C74.195 63.08 73.643 62.48 72.843 62.48ZM72.843 64.584C72.419 64.584 72.115 64.256 72.115 63.816C72.115 63.376 72.419 63.048 72.843 63.048C73.259 63.048 73.563 63.376 73.563 63.816C73.563 64.248 73.259 64.584 72.843 64.584Z" fill="#656565"/>
<rect y="1" width="18" height="10" fill="#2F2F70"/>
<rect y="15" width="18" height="10" fill="#373684"/>
<rect y="29" width="18" height="10" fill="#43458D"/>
<rect y="43" width="18" height="10" fill="#767AB7"/>
<rect y="57" width="18" height="10" fill="#ADB3D7"/>
</svg>
