<svg width="91" height="23" viewBox="0 0 91 23" fill="none" xmlns="http://www.w3.org/2000/svg">
<path d="M12.4511 15.43L8.37109 0.699997L0.121095 0.699999L7.3511 22L17.5811 22L24.8111 0.699995L16.5311 0.699996L12.4511 15.43ZM24.0672 11.35C24.0672 18.58 29.3172 22.3 35.9472 22.3C43.1172 22.3 47.7672 18.58 47.7672 11.35C47.7672 4.62999 42.9672 0.399992 35.9472 0.399993C29.3172 0.399994 24.0672 4.54 24.0672 11.35ZM31.7472 11.35C31.7472 8.85999 33.4272 7.20999 35.9472 7.20999C38.5272 7.20999 40.1172 8.88999 40.1172 11.35C40.1172 13.96 38.5572 15.49 35.9472 15.49C33.4272 15.49 31.7472 13.93 31.7472 11.35ZM48.4457 7.65999L55.8857 7.65999L55.8857 22L63.3857 22L63.3857 7.65999L70.8257 7.65999L70.8257 0.699986L48.4457 0.69999L48.4457 7.65999ZM72.3597 22L90.9597 22L90.9597 15.4L79.8597 15.4L79.8597 13.39L90.4797 13.39L90.4797 9.18998L79.8597 9.18999L79.8597 7.29999L90.9597 7.29998L90.9597 0.699983L72.3597 0.699986L72.3597 22Z" fill="#989595"/>
</svg>
