<svg xmlns="http://www.w3.org/2000/svg" viewBox="0 0 1518.8 343.94"><defs><style>.cls-1{fill:#cf4b45;}.cls-2{fill:#352912;}.cls-11,.cls-3{fill:none;stroke-miterlimit:10;}.cls-3{stroke:#fff;stroke-width:8px;}.cls-4,.cls-8{fill:#fff;}.cls-5{fill:#26536a;}.cls-6{fill:#e97c3f;}.cls-7{fill:#141414;}.cls-8,.cls-9{opacity:0.2;}.cls-14,.cls-9{fill:#646464;}.cls-10{fill:#323232;}.cls-11{stroke:#e97c3f;stroke-width:2px;}.cls-12{fill:#464646;}.cls-13{fill:#787878;}.cls-15{fill:#fbf7eb;}</style></defs><title>voiture_rougeFichier 3</title><g id="Calque_2" data-name="Calque 2"><g id="Calque_3" data-name="Calque 3"><path id="corps" class="cls-1" d="M13.35,247.86l-10-2.33L.09,33.47l31-.49s5-.07,4.77-12.47l124-1.94L160,28.5l38.44-.6.83,53.32s1.5,16.11-21.68,41.28,21.29,13.31,21.29,13.31L444.44,39.35a64.59,64.59,0,0,1,22.65-4.47l163.13-2.54s1-14.9-15.23-22.09l0-2.48,9.92-.16S656.87-9,672,6.88c0,0,3.78,3.66-3.57,10L681.05,30.3,681.67,70l-9.92.15L672,87.51,701.78,87l.37,23.57,54.56-.85L783,126.71l78.13-1.21s9.86-3.88,9.72-12.56l-16.12.25-.27-17.36,23.56-.37s12.41-.19,12.6,12.21c0,0,.06,3.72-7.38,3.84l.23,14.88,52.08-.81,11.6-12,6.82-.1.19,11.78,111.61-1.74,413.53,108.92,38.44-.6,1,65.73-163.7,2.55-6.93-6.71-9.3.14-.26-16.74-42.17.65-184.35-49.22-102.94,1.6s-73,14.55-72.26,59.19c0,0,0,.23,119.83-1.63a7.12,7.12,0,0,1,5.06,2l.81.79a7.12,7.12,0,0,0,5.06,2l1.56,0a7.09,7.09,0,0,1,5,2h0a8.23,8.23,0,0,1-5.6,14.13l-295.14,4.6L190.3,299.68Z"/><path class="cls-2" d="M2.52,189.88,26.2,196.8l99.62-54.89L158.63,98l6-69.56,33.87-.52.83,53.32s2.32,16.37-19.79,39.18,6.23,17.87,6.23,17.87L321.08,87.81,349.34,157s11.57,25.87-15.48,41.18-101.35,23.91-101.35,23.91-4.57,24.88,51.33,30.21,472.77,10,472.77,10l64.08-27,.1,6.2,45.57-20.56-.07-5s106.18-60,255.09-42.44,236.43,62.07,236.43,62.07l19.32,45.6,24.82.85,8.18,17.24-55,.86-6.93-6.71-9.3.14-.26-16.74-42.17.65-184.35-49.22-86.25,1.34c-18.41.29-37.45,6.43-53.92,14.65a73.4,73.4,0,0,0-25.55,20.87c-8.22,10.65-1.17,23.9,12.28,23.73,16.67-.21,46.12-.62,98.07-1.43a7.12,7.12,0,0,1,5.06,2l.81.79a7.12,7.12,0,0,0,5.06,2l1.56,0a7.09,7.09,0,0,1,5,2h0a8.23,8.23,0,0,1-5.6,14.13l-295.14,4.6L190.3,299.68,3.39,245.53Z"/><path class="cls-3" d="M231.27,222.18s74.29-8.6,101.35-23.91,15.48-41.18,15.48-41.18L319.84,87.87"/><circle class="cls-4" cx="732.43" cy="196.19" r="36.74"/><circle class="cls-5" cx="732.43" cy="196.19" r="32.33"/><circle class="cls-6" cx="732.43" cy="196.19" r="27.61"/><rect class="cls-4" x="393.22" y="171.55" width="238.6" height="62.94" rx="7.19" transform="translate(2.64 -6.53) rotate(0.73)"/><rect class="cls-7" x="397.98" y="176.67" width="229.07" height="52.71" rx="4.83" transform="translate(2.64 -6.53) rotate(0.73)"/><rect class="cls-1" x="402.46" y="181.32" width="220.12" height="43.41" rx="2.84" transform="translate(2.64 -6.53) rotate(0.73)"/><path class="cls-8" d="M681.2,39.76s-178.82-7-252.3,23.47-172.89,77-154.63,85.09,30.09,5.11,30.09,5.11-72.3,17.18-116.4,8.1,32.77,43.41,32.77,43.41,77.89-9.44,151.85-39.43S726.47,129.3,726.47,129.3l-29.84-4.19-1.08-10.22-24.2-.55-79,3.09S579.59,76.7,602.75,70.75s78.82-6.81,78.82-6.81Z"/><path class="cls-8" d="M232.51,222.12s4.94-11.71,66.12-25.69,161.19-44.37,279.23-51.79,231.59-3.61,235.42,2.84,2.18,20.75-13.68,18.05-120.31,40.79-205.74,51-138.67-3.25-202.82-.24S227.77,241.76,232.51,222.12Z"/><rect class="cls-8" x="697.91" y="87.07" width="4.05" height="23.57" transform="translate(-1.45 10.91) rotate(-0.89)"/><path class="cls-8" d="M706.14,111.76l5.56-1.3,45-.7L783,126.71l78.13-1.21s-6.47,4.53-.87,5.49,6,4.79,6.16,14.56c0,0-19.06-14-42.2.66,0,0-7.92-15.23-11.06-15.53s-30,.47-30,.47L756,112.73Z"/><polygon class="cls-8" points="1065.8 123.55 954.19 125.29 954 113.51 951.38 113.55 951.57 125.39 938.57 125.59 949.46 113.58 947.18 113.61 935.58 125.58 883.5 126.39 883.61 133.36 1079.67 130.31 1117.3 137.11 1065.8 123.55"/><polygon class="cls-8" points="1301.83 189.18 1439.19 227.86 1301.89 193.06 1301.83 189.18"/><path class="cls-8" d="M1446.8,223.9l21.68,8.57-16.22.25a29.83,29.83,0,0,0,.07,4l62.6-1,1,61.9,2.9,0-1-65.73-38.27.6Z"/><rect class="cls-8" x="1358.19" y="287.88" width="160.48" height="4.53" transform="translate(-4.34 22.43) rotate(-0.89)"/><polygon class="cls-9" points="381.34 280.27 740.08 286.55 752.59 282.86 740.24 296.31 381.34 280.27"/><polygon class="cls-9" points="244.78 278.21 302.91 277.31 303 282.89 244.78 278.21"/><rect class="cls-9" x="238.01" y="289.28" width="25.58" height="3.84" transform="translate(6.75 -5.68) rotate(1.32)"/><rect class="cls-9" x="332.7" y="291.6" width="38.08" height="3.84" transform="translate(6.83 -8) rotate(1.32)"/><polygon class="cls-8" points="880.63 141.05 1071.76 138.07 1149.49 155.88 1130.91 172.15 1066.34 148.04 880.63 141.05"/><path class="cls-8" d="M865.78,183.65l1.32,84.64-4.6.07-1.11-71.62a223.78,223.78,0,0,1,3.89-45.18h0Z"/><g id="roue"><circle class="cls-10" cx="1208.8" cy="225.52" r="101.7"/><circle class="cls-2" cx="1205.97" cy="228.44" r="97.64"/><circle class="cls-11" cx="1208.8" cy="225.52" r="81.86"/><g id="enjoliveur"><path class="cls-12" d="M1257.06,222.25a48.37,48.37,0,1,0-50,51.61A48.54,48.54,0,0,0,1257.06,222.25Zm-47.55-23.35a5.26,5.26,0,0,1,6.38-5.22,32.2,32.2,0,0,1,8.47,3.17,5.27,5.27,0,0,1,1.29,8.29l-6.35,6.55a5.3,5.3,0,0,1-5.71,1.22l-.3-.11a5.34,5.34,0,0,1-3.64-4.91Zm-18-1.06a32.92,32.92,0,0,1,7.77-3.53,5.27,5.27,0,0,1,6.84,4.93l.14,9.15a5.13,5.13,0,0,1-3,4.81l-.29.14a5.26,5.26,0,0,1-5.91-1l-6.47-6.27A5.27,5.27,0,0,1,1191.53,197.84Zm-14.4,19.82a32.84,32.84,0,0,1,3-7.72,5.26,5.26,0,0,1,8.28-1.27L1195,215a5.23,5.23,0,0,1,1.24,5.65l0,.06a5.23,5.23,0,0,1-4.81,3.37l-9.08.15A5.28,5.28,0,0,1,1177.13,217.66Zm3.51,24.33a32.47,32.47,0,0,1-3.25-7.63,5.27,5.27,0,0,1,5-6.74l9.08-.14a5.24,5.24,0,0,1,4.92,3.22l0,.06a5.23,5.23,0,0,1-1.06,5.68L1189,243A5.26,5.26,0,0,1,1180.64,242Zm26.32,9.88a5.27,5.27,0,0,1-6.68,5.14,32.58,32.58,0,0,1-7.88-3.29,5.27,5.27,0,0,1-1.17-8.22l6.28-6.48a5.24,5.24,0,0,1,5.87-1.14l.29.12a5.16,5.16,0,0,1,3.15,4.72Zm2-17.35a9,9,0,1,1,8.86-9.14A9,9,0,0,1,1208.94,234.52Zm16.3,19.17a32.14,32.14,0,0,1-8.36,3.43,5.25,5.25,0,0,1-6.54-5l-.14-9a5.34,5.34,0,0,1,3.49-5l.29-.11a5.3,5.3,0,0,1,5.75,1l6.55,6.35A5.27,5.27,0,0,1,1225.24,253.69Zm15.25-20.42a32.08,32.08,0,0,1-3.48,8.63,5.27,5.27,0,0,1-8.23,1.19l-6.47-6.27a5.32,5.32,0,0,1-1.12-5.95c.08-.17.15-.35.21-.52a5.26,5.26,0,0,1,4.83-3.41l9.07-.15A5.25,5.25,0,0,1,1240.49,233.27Zm-5.24-9.85-9.07.14a5.25,5.25,0,0,1-4.93-3.26l-.23-.51a5.31,5.31,0,0,1,.93-6l6.27-6.47a5.27,5.27,0,0,1,8.27.93,32.66,32.66,0,0,1,3.75,8.51A5.25,5.25,0,0,1,1235.25,223.42Z"/><path class="cls-13" d="M1257.27,247.77a53.33,53.33,0,1,0-75.64,23.64A53.51,53.51,0,0,0,1257.27,247.77Zm-33.76-47.67a5.8,5.8,0,0,1,8.93-1.69,35.61,35.61,0,0,1,6.53,7.53,5.81,5.81,0,0,1-3.11,8.72l-9.61,3a5.82,5.82,0,0,1-6.17-1.84c-.08-.08-.15-.17-.23-.26a5.87,5.87,0,0,1-.94-6.67Zm-16.86-10.48a35.44,35.44,0,0,1,9.39.67,5.81,5.81,0,0,1,4,8.37l-4.68,8.94a5.7,5.7,0,0,1-5.44,3.09l-.35,0a5.77,5.77,0,0,1-5.22-4l-3-9.49A5.8,5.8,0,0,1,1206.65,189.62Zm-24.39,11.61a35.59,35.59,0,0,1,7-5.9,5.8,5.8,0,0,1,8.69,3.13l3,9.61a5.78,5.78,0,0,1-1.77,6.12l-.06.05a5.77,5.77,0,0,1-6.44.73l-8.87-4.64A5.82,5.82,0,0,1,1182.26,201.23Zm-9.41,25.41a35.57,35.57,0,0,1,.87-9.1,5.81,5.81,0,0,1,8.35-3.92l8.87,4.65A5.77,5.77,0,0,1,1194,224v.07a5.77,5.77,0,0,1-4,4.94l-9.61,3A5.8,5.8,0,0,1,1172.85,226.64Zm20.29,23.43a5.81,5.81,0,0,1-9.18,1.47,36.28,36.28,0,0,1-5.9-7.34,5.81,5.81,0,0,1,3.2-8.58l9.49-3a5.79,5.79,0,0,1,6.29,2c.07.1.15.19.22.28a5.68,5.68,0,0,1,.56,6.23Zm11.06-15.76a9.92,9.92,0,1,1,13.39-4.19A9.92,9.92,0,0,1,1204.2,234.31Zm5.69,27.16a35.92,35.92,0,0,1-9.91-1.08,5.79,5.79,0,0,1-3.69-8.3l4.6-8.79a5.89,5.89,0,0,1,6-3l.34,0a5.85,5.85,0,0,1,5,4l3,9.6A5.81,5.81,0,0,1,1209.89,261.47Zm25.53-11.74a36.21,36.21,0,0,1-7.92,6.52,5.81,5.81,0,0,1-8.6-3.19l-3-9.48a5.85,5.85,0,0,1,2.06-6.35c.16-.13.32-.26.47-.4a5.82,5.82,0,0,1,6.48-.76l8.86,4.64A5.8,5.8,0,0,1,1235.42,249.73Zm.1-12.31-8.86-4.64a5.82,5.82,0,0,1-3.06-5.76c0-.2,0-.41.05-.62a5.87,5.87,0,0,1,4.06-5.3l9.48-3a5.81,5.81,0,0,1,7.52,5.26,35.73,35.73,0,0,1-.86,10.22A5.8,5.8,0,0,1,1235.52,237.42Z"/><circle class="cls-14" cx="1208.8" cy="225.52" r="6.2"/></g></g><g id="roue-2" data-name="roue"><circle class="cls-10" cx="135.76" cy="242.23" r="101.7"/><circle class="cls-2" cx="132.93" cy="245.15" r="97.64"/><circle class="cls-11" cx="135.76" cy="242.23" r="81.86"/><g id="enjoliveur-2" data-name="enjoliveur"><path class="cls-12" d="M184,239a48.37,48.37,0,1,0-50,51.61A48.55,48.55,0,0,0,184,239Zm-47.55-23.35a5.26,5.26,0,0,1,6.38-5.22,32.13,32.13,0,0,1,8.46,3.17,5.26,5.26,0,0,1,1.3,8.29l-6.35,6.55a5.3,5.3,0,0,1-5.72,1.22l-.29-.11a5.32,5.32,0,0,1-3.64-4.91Zm-18-1.06a32.92,32.92,0,0,1,7.77-3.53A5.28,5.28,0,0,1,133.1,216l.14,9.15a5.16,5.16,0,0,1-3,4.81l-.29.14a5.26,5.26,0,0,1-5.91-1l-6.47-6.28A5.27,5.27,0,0,1,118.49,214.55Zm-14.4,19.82a32.42,32.42,0,0,1,3-7.72,5.26,5.26,0,0,1,8.28-1.27l6.55,6.35a5.24,5.24,0,0,1,1.24,5.65l0,.06a5.24,5.24,0,0,1-4.81,3.37l-9.08.15A5.27,5.27,0,0,1,104.09,234.37Zm3.51,24.33a32.47,32.47,0,0,1-3.25-7.63,5.27,5.27,0,0,1,5-6.74l9.08-.14a5.23,5.23,0,0,1,4.91,3.22l0,.06a5.23,5.23,0,0,1-1.06,5.68l-6.36,6.56A5.26,5.26,0,0,1,107.6,258.7Zm26.32,9.88a5.27,5.27,0,0,1-6.68,5.14,32.41,32.41,0,0,1-7.88-3.29,5.26,5.26,0,0,1-1.17-8.22l6.27-6.48a5.26,5.26,0,0,1,5.88-1.14l.29.12a5.18,5.18,0,0,1,3.15,4.73Zm2-17.35a9,9,0,1,1,8.86-9.14A9,9,0,0,1,135.9,251.23Zm16.3,19.17a32.51,32.51,0,0,1-8.36,3.44,5.26,5.26,0,0,1-6.54-5l-.14-9a5.32,5.32,0,0,1,3.48-5l.29-.12a5.28,5.28,0,0,1,5.75,1l6.55,6.35A5.26,5.26,0,0,1,152.2,270.4ZM167.45,250a32.47,32.47,0,0,1-3.48,8.62,5.27,5.27,0,0,1-8.23,1.19l-6.47-6.27a5.31,5.31,0,0,1-1.12-5.95l.21-.52a5.26,5.26,0,0,1,4.83-3.41l9.07-.14A5.24,5.24,0,0,1,167.45,250Zm-5.24-9.86-9.07.14A5.25,5.25,0,0,1,148.2,237c-.07-.17-.14-.34-.22-.51a5.31,5.31,0,0,1,.93-6l6.27-6.47a5.28,5.28,0,0,1,8.27.93,32.66,32.66,0,0,1,3.75,8.51A5.25,5.25,0,0,1,162.21,240.13Z"/><path class="cls-13" d="M184.23,264.49a53.34,53.34,0,1,0-75.64,23.64A53.53,53.53,0,0,0,184.23,264.49Zm-33.76-47.67a5.8,5.8,0,0,1,8.93-1.7,35.86,35.86,0,0,1,6.53,7.53,5.81,5.81,0,0,1-3.12,8.72l-9.6,3a5.84,5.84,0,0,1-6.17-1.83c-.08-.09-.15-.18-.23-.26a5.89,5.89,0,0,1-.94-6.68Zm-16.86-10.49A35.87,35.87,0,0,1,143,207a5.81,5.81,0,0,1,4,8.38l-4.67,8.93a5.7,5.7,0,0,1-5.44,3.09l-.36,0a5.77,5.77,0,0,1-5.21-4l-3-9.49A5.8,5.8,0,0,1,133.61,206.33Zm-24.39,11.61a35.64,35.64,0,0,1,7-5.9,5.79,5.79,0,0,1,8.68,3.13l3,9.61a5.77,5.77,0,0,1-1.78,6.12l-.05,0a5.77,5.77,0,0,1-6.44.73L110.76,227A5.82,5.82,0,0,1,109.22,217.94Zm-9.41,25.41a35.57,35.57,0,0,1,.87-9.1,5.82,5.82,0,0,1,8.35-3.92L117.9,235a5.78,5.78,0,0,1,3.07,5.71v.07a5.79,5.79,0,0,1-4,5l-9.61,3A5.8,5.8,0,0,1,99.81,243.35Zm20.29,23.43a5.81,5.81,0,0,1-9.18,1.47,35.68,35.68,0,0,1-5.9-7.34,5.81,5.81,0,0,1,3.2-8.58l9.49-3a5.79,5.79,0,0,1,6.29,2l.22.27a5.7,5.7,0,0,1,.56,6.23ZM131.15,251a9.92,9.92,0,1,1,13.4-4.19A9.92,9.92,0,0,1,131.15,251Zm5.69,27.16a35.89,35.89,0,0,1-9.9-1.08,5.8,5.8,0,0,1-3.7-8.3l4.6-8.79a5.91,5.91,0,0,1,6-3l.34,0a5.85,5.85,0,0,1,5,4l3,9.6A5.8,5.8,0,0,1,136.84,278.18Zm25.53-11.74a35.88,35.88,0,0,1-7.91,6.52,5.81,5.81,0,0,1-8.6-3.19l-3-9.48a5.87,5.87,0,0,1,2.05-6.35l.48-.39a5.82,5.82,0,0,1,6.48-.77l8.86,4.64A5.79,5.79,0,0,1,162.37,266.44Zm.11-12.31-8.86-4.64a5.82,5.82,0,0,1-3.06-5.76c0-.2,0-.41.05-.61a5.87,5.87,0,0,1,4.06-5.31l9.48-3a5.82,5.82,0,0,1,7.52,5.26,35.73,35.73,0,0,1-.86,10.22A5.8,5.8,0,0,1,162.48,254.13Z"/><circle class="cls-14" cx="135.76" cy="242.23" r="6.2"/></g></g><path class="cls-8" d="M160.82,72.5l4.43-10,1.43-12.35,11.76,8.19,1,20.68,12-48.79,5.58-.09,1,61.08s1.49-2.28,1.34-8.79-.9-54.48-.9-54.48l-33.87.52Z"/><rect class="cls-4" x="334.75" y="116.73" width="286.57" height="8.68" transform="translate(-1.83 7.46) rotate(-0.89)"/><rect class="cls-4" x="611.91" y="32.49" width="8.68" height="82.08" transform="translate(-1.07 9.6) rotate(-0.89)"/><rect class="cls-4" x="1338.37" y="277.74" width="180.27" height="6.28" transform="translate(-4.2 22.28) rotate(-0.89)"/><polygon class="cls-4" points="160.35 77.86 0.28 80.36 0 62.62 161.88 60.1 160.35 77.86"/><polygon class="cls-4" points="161.01 70.32 199.18 69.72 198.91 52.94 162.45 53.51 161.01 70.32"/><circle class="cls-4" cx="107.29" cy="85.7" r="19.35"/><circle class="cls-6" cx="107.29" cy="85.7" r="17.03"/><circle class="cls-4" cx="107.29" cy="85.7" r="14.54"/><circle class="cls-4" cx="48.98" cy="86.61" r="19.35"/><circle class="cls-6" cx="48.98" cy="86.61" r="17.03"/><circle class="cls-4" cx="48.98" cy="86.61" r="14.54"/><g id="ELYS2E"><path class="cls-15" d="M263.45,289.65l1.35-22.51L320,268.3l-.3,5-33.94-.71-.22,3.67,29.76.62L315,282l-29.75-.62-.22,3.67,33.94.71-.31,5Z"/><path class="cls-15" d="M325.44,290.94l1.35-22.5,21.27.45L347,286.36l32.8.68-.3,5Z"/><path class="cls-15" d="M392.75,292.35l.49-8.24L367.85,269.3l22.17.46,14.2,8.8,15.21-8.18,22.17.46-27.09,13.71-.5,8.25Z"/><path class="cls-15" d="M464.67,294.21c-4.9-.11-9.53-.32-13.89-.66s-8.07-.76-11.14-1.27l.33-5.41q5,.84,11.24,1.42t11.62.7q5.66.12,8.56-.12c1.94-.16,2.92-.58,3-1.28,0-.49-.49-.89-1.57-1.19a38.53,38.53,0,0,0-5-.88l-8.94-1.06q-7.31-.88-11.55-1.85a17.12,17.12,0,0,1-6-2.26,3.45,3.45,0,0,1-1.68-3.11q.2-3.32,7.93-4.89t22.79-1.26q6,.14,12.37.58c4.24.3,7.68.6,10.3.91L492.6,278c-3.52-.51-6.9-.9-10.13-1.15s-6.28-.41-9.14-.47c-3.32-.07-6.16-.05-8.5.06s-3.54.51-3.58,1.19.93,1,2.92,1.34,5.52.72,10.62,1.25a103.91,103.91,0,0,1,13.53,2.07c3.09.76,5.17,1.62,6.24,2.56a3.81,3.81,0,0,1,1.51,3.16q-.18,3.07-8,4.79T464.67,294.21Z"/><path class="cls-15" d="M503.6,294.67l1.35-22.5,55.2,1.15-.3,5-33.93-.71-.22,3.67,29.75.62-.31,5.1-29.75-.62-.22,3.67,33.94.71-.3,5ZM522.69,271l10.39-7,16.51.35-11.29,7Z"/><path class="cls-15" d="M565.59,296l1.35-22.5,55.2,1.15-.3,5-33.94-.71-.22,3.67,29.76.62-.31,5.11-29.75-.63-.22,3.67,33.94.71-.31,5Z"/></g><g id="_2022" data-name="2022"><path class="cls-15" d="M652.89,298.91l0-3a39.8,39.8,0,0,1,7.72-3.38q4.53-1.5,10.1-3.07,4.65-1.32,7.54-2.18a25.79,25.79,0,0,0,4.32-1.62c.94-.51,1.42-1.09,1.43-1.74q0-2.49-10.51-2.42c-3.24,0-6.39.16-9.45.42s-6,.56-8.67.93l.05-5.6c3.09-.39,6.72-.71,10.87-1s8.34-.39,12.57-.42q13.58-.09,20.24,1.84t6.64,5.26a3.7,3.7,0,0,1-1.22,2.72,11.28,11.28,0,0,1-3.69,2.1c-1.67.64-3.82,1.33-6.47,2.07-2.35.65-4.65,1.29-6.92,1.94a40.8,40.8,0,0,0-5.45,1.88l24.34-.16-.05,5Z"/><path class="cls-15" d="M746.83,298.64a121.75,121.75,0,0,1-20.19-1.21q-7.64-1.31-11.12-3.86a7.53,7.53,0,0,1-3.45-6.31,7.77,7.77,0,0,1,3.56-6.35q3.52-2.61,11.18-4A122.23,122.23,0,0,1,747,275.42q18.78-.12,26.79,2.81t8,8.57q0,5.59-8.11,8.65T746.83,298.64Zm0-5.6q7.35,0,10.25-1.58a5,5,0,0,0,2.93-4.52,4.76,4.76,0,0,0-2.85-4.49Q754.33,281,747,281t-10.26,1.57a4.89,4.89,0,0,0-2.92,4.53,4.73,4.73,0,0,0,2.85,4.47C738.56,292.59,742,293.08,746.88,293Z"/><path class="cls-15" d="M787.35,298l0-3a39.81,39.81,0,0,1,7.72-3.37q4.54-1.5,10.1-3.07c3.1-.89,5.62-1.61,7.54-2.19a24.13,24.13,0,0,0,4.32-1.62c1-.5,1.42-1.08,1.43-1.74q0-2.47-10.51-2.41-4.86,0-9.45.41t-8.67.93l0-5.59q4.65-.58,10.87-1t12.57-.42q13.59-.09,20.24,1.84c4.44,1.29,6.66,3,6.64,5.25a3.68,3.68,0,0,1-1.21,2.72,11.16,11.16,0,0,1-3.7,2.11c-1.67.64-3.82,1.33-6.47,2.07-2.34.64-4.65,1.29-6.92,1.93a42.65,42.65,0,0,0-5.45,1.89l24.34-.16,0,5Z"/><path class="cls-15" d="M846.43,297.63l0-3a40.09,40.09,0,0,1,7.72-3.37q4.55-1.5,10.1-3.08,4.65-1.32,7.55-2.18a24,24,0,0,0,4.31-1.62c1-.51,1.42-1.09,1.43-1.74q0-2.47-10.51-2.41-4.86,0-9.45.41c-3.06.25-5.94.56-8.66.93l0-5.59c3.1-.4,6.72-.72,10.88-1s8.34-.38,12.56-.41q13.59-.09,20.25,1.84t6.63,5.25a3.68,3.68,0,0,1-1.21,2.72,11.52,11.52,0,0,1-3.7,2.11q-2.49,1-6.47,2.07c-2.34.64-4.65,1.29-6.92,1.93a39.74,39.74,0,0,0-5.45,1.89l24.34-.16,0,5Z"/></g><rect class="cls-1" x="470.13" y="64.76" width="9.77" height="34.88" transform="translate(-1.22 7.41) rotate(-0.89)"/><rect class="cls-1" x="485.94" y="64.51" width="9.77" height="34.88" transform="translate(-1.22 7.65) rotate(-0.89)"/><rect class="cls-1" x="501.75" y="64.27" width="9.77" height="34.88" transform="translate(-1.21 7.9) rotate(-0.89)"/><rect class="cls-1" x="517.56" y="64.02" width="9.77" height="34.88" transform="translate(-1.21 8.15) rotate(-0.89)"/><rect class="cls-1" x="533.37" y="63.77" width="9.77" height="34.88" transform="translate(-1.2 8.39) rotate(-0.89)"/><rect class="cls-1" x="549.19" y="63.53" width="9.77" height="34.88" transform="translate(-1.19 8.64) rotate(-0.89)"/><rect class="cls-7" x="849.57" y="95.86" width="6.04" height="17.36" transform="translate(-1.52 13.29) rotate(-0.89)"/><rect class="cls-7" x="681.36" y="30.24" width="7.48" height="39.69" transform="translate(-0.7 10.67) rotate(-0.89)"/><rect class="cls-7" x="671.7" y="70.09" width="7.48" height="17.36" transform="translate(-1.14 10.53) rotate(-0.89)"/><rect class="cls-7" x="701.96" y="86.98" width="7.48" height="23.57" transform="translate(-1.45 11) rotate(-0.89)"/></g></g></svg>