<svg xmlns="http://www.w3.org/2000/svg" viewBox="0 0 1518.25 343.81"><defs><style>.cls-1{fill:#54b1b9;}.cls-2{fill:#352912;}.cls-10,.cls-3{fill:none;stroke-miterlimit:10;}.cls-3{stroke:#fff;stroke-width:8px;}.cls-4,.cls-7{fill:#fff;}.cls-5{fill:#26536a;}.cls-6{fill:#141414;}.cls-7,.cls-8{opacity:0.2;}.cls-13,.cls-8{fill:#646464;}.cls-9{fill:#323232;}.cls-10{stroke:#54b1b9;stroke-width:2px;}.cls-11{fill:#464646;}.cls-12{fill:#787878;}</style></defs><title>voiture_bleueFichier 2</title><g id="Calque_2" data-name="Calque 2"><g id="Calque_3" data-name="Calque 3"><path id="corps" class="cls-1" d="M13.35,247.77l-10-2.33-3.3-212,31-.48s5-.08,4.77-12.47l124-1.93.15,9.91,38.43-.59.83,53.3s1.49,16.1-21.67,41.26,21.28,13.31,21.28,13.31L444.28,39.34a64.82,64.82,0,0,1,22.64-4.48L630,32.32s1-14.89-15.22-22.08l0-2.48,9.92-.15s32-16.62,47.11-.74c0,0,3.77,3.67-3.57,10L680.8,30.29,681.42,70l-9.92.16.27,17.35L701.53,87l.36,23.56,54.55-.85,26.3,17,78.1-1.22s9.86-3.87,9.73-12.55l-16.12.25-.27-17.36,23.56-.36s12.39-.2,12.59,12.2c0,0,.06,3.72-7.38,3.84l.23,14.87,52.07-.81,11.59-12,6.82-.11.18,11.78,111.58-1.74,413.37,108.89,38.43-.6,1,65.7L1354.61,300l-6.93-6.71-9.3.14-.26-16.73-42.15.65-184.28-49.21-102.9,1.61S935.86,244.33,936.55,289c0,0,0,.23,119.79-1.63a7.12,7.12,0,0,1,5.06,2l.81.79a7.09,7.09,0,0,0,5,2l1.56,0a7.09,7.09,0,0,1,5,2h0a8.22,8.22,0,0,1-5.59,14.13l-295,4.6-583-13.25Z"/><path class="cls-2" d="M2.52,189.81l23.67,6.92,99.59-54.87L158.57,98l6-69.54,33.86-.52.83,53.3s2.32,16.36-19.78,39.16,6.22,17.87,6.22,17.87L321,87.78,349.21,157s11.57,25.86-15.48,41.16S232.43,222,232.43,222s-4.58,24.87,51.31,30.2,472.59,10,472.59,10l64.06-27,.1,6.2,45.56-20.55-.08-5s106.14-59.95,255-42.42,236.35,62.05,236.35,62.05l19.31,45.58,24.81.85,8.18,17.23-55,.86-6.93-6.71-9.3.14-.26-16.73-42.15.65-184.28-49.21-86.22,1.35a122.82,122.82,0,0,0-53.07,12.66c-10,5-20,11.76-26.91,20.67-8.21,10.64-.63,26.06,12.81,25.89,16.67-.2,46.1-.62,98-1.42a7.12,7.12,0,0,1,5.06,2l.81.79a7.09,7.09,0,0,0,5,2l1.56,0a7.09,7.09,0,0,1,5,2h0a8.22,8.22,0,0,1-5.59,14.13l-295,4.6-583-13.25L3.39,245.44Z"/><path class="cls-3" d="M231.19,222.1s74.26-8.6,101.31-23.9S348,157,348,157l-28.24-69.2"/><circle class="cls-4" cx="732.16" cy="196.12" r="36.73"/><circle class="cls-5" cx="732.16" cy="196.12" r="32.32"/><circle class="cls-1" cx="732.16" cy="196.12" r="27.6"/><rect class="cls-4" x="393.07" y="171.49" width="238.52" height="62.91" rx="7.18" transform="translate(2.63 -6.53) rotate(0.73)"/><rect class="cls-6" x="397.84" y="176.61" width="228.99" height="52.69" rx="4.83" transform="translate(2.63 -6.53) rotate(0.73)"/><rect class="cls-1" x="402.31" y="181.26" width="220.04" height="43.39" rx="2.84" transform="translate(2.63 -6.53) rotate(0.73)"/><path class="cls-7" d="M681,39.75s-178.75-7-252.21,23.45-172.83,77-154.57,85.07,30.08,5.11,30.08,5.11S232,170.55,187.89,161.47s32.76,43.39,32.76,43.39,77.86-9.43,151.79-39.41,353.77-36.2,353.77-36.2l-29.83-4.18-1.09-10.22-24.18-.55-79,3.09s-12.72-40.72,10.44-46.66,78.79-6.81,78.79-6.81Z"/><path class="cls-7" d="M232.43,222s4.93-11.7,66.09-25.68S459.65,152,577.65,144.59,809.16,141,813,147.43s2.18,20.74-13.67,18-120.26,40.78-205.66,50.94S455,213.16,390.9,216.17,227.69,241.67,232.43,222Z"/><rect class="cls-7" x="697.66" y="87.04" width="4.05" height="23.56" transform="translate(-1.45 10.91) rotate(-0.89)"/><path class="cls-7" d="M705.88,111.72l5.56-1.3,45-.7,26.3,17,78.1-1.22S854.39,130,860,131s6,4.79,6.16,14.55c0,0-19-14-42.19.66,0,0-7.91-15.23-11.06-15.53s-30,.47-30,.47l-27.14-18.41Z"/><polygon class="cls-7" points="1065.41 123.5 953.84 125.24 953.66 113.47 951.04 113.51 951.22 125.34 938.24 125.54 949.12 113.53 946.84 113.57 935.25 125.53 883.18 126.34 883.29 133.32 1079.28 130.26 1116.9 137.06 1065.41 123.5"/><polygon class="cls-7" points="1301.36 189.12 1438.67 227.78 1301.42 192.99 1301.36 189.12"/><path class="cls-7" d="M1446.27,223.82l21.68,8.56-16.21.25a31.54,31.54,0,0,0,.06,4l62.59-1,1,61.87,2.9-.05-1-65.7-38.25.59Z"/><rect class="cls-7" x="1357.7" y="287.78" width="160.43" height="4.53" transform="translate(-4.34 22.43) rotate(-0.89)"/><polygon class="cls-8" points="381.2 280.17 739.82 286.44 752.31 282.76 739.97 296.21 381.2 280.17"/><polygon class="cls-8" points="244.69 278.11 302.8 277.21 302.89 282.79 244.69 278.11"/><rect class="cls-8" x="237.92" y="289.18" width="25.57" height="3.84" transform="translate(6.75 -5.68) rotate(1.32)"/><rect class="cls-8" x="332.57" y="291.5" width="38.07" height="3.84" transform="translate(6.83 -8) rotate(1.32)"/><polygon class="cls-7" points="880.31 141 1071.38 138.02 1149.08 155.82 1130.5 172.09 1065.95 147.99 880.31 141"/><path class="cls-7" d="M865.47,183.58l1.31,84.61-4.59.07-1.11-71.59A223,223,0,0,1,865,151.5h0Z"/><g id="roue"><circle class="cls-9" cx="1208.36" cy="225.44" r="101.67"/><circle class="cls-2" cx="1205.54" cy="228.35" r="97.61"/><circle class="cls-10" cx="1208.36" cy="225.44" r="81.83"/><g id="enjoliveur"><path class="cls-11" d="M1256.61,222.17a48.36,48.36,0,1,0-50,51.59A48.55,48.55,0,0,0,1256.61,222.17Zm-47.54-23.35a5.26,5.26,0,0,1,6.38-5.21,32,32,0,0,1,8.46,3.17,5.26,5.26,0,0,1,1.3,8.29l-6.35,6.55a5.3,5.3,0,0,1-5.71,1.21l-.3-.11a5.34,5.34,0,0,1-3.64-4.91Zm-18-1a32.52,32.52,0,0,1,7.77-3.53,5.27,5.27,0,0,1,6.84,4.93l.14,9.14a5.18,5.18,0,0,1-3,4.82l-.29.13a5.24,5.24,0,0,1-5.9-1l-6.47-6.27A5.28,5.28,0,0,1,1191.1,197.77Zm-14.39,19.81a32.39,32.39,0,0,1,3-7.72,5.27,5.27,0,0,1,8.28-1.27l6.55,6.35a5.24,5.24,0,0,1,1.24,5.65l0,.06A5.24,5.24,0,0,1,1191,224l-9.08.14A5.26,5.26,0,0,1,1176.71,217.58Zm3.5,24.32a32.61,32.61,0,0,1-3.24-7.62,5.26,5.26,0,0,1,5-6.74l9.08-.14a5.21,5.21,0,0,1,4.91,3.22l0,.06a5.23,5.23,0,0,1-1.06,5.68l-6.35,6.55A5.27,5.27,0,0,1,1180.21,241.9Zm26.31,9.88a5.27,5.27,0,0,1-6.67,5.14,32.41,32.41,0,0,1-7.88-3.29,5.27,5.27,0,0,1-1.17-8.22l6.27-6.47a5.25,5.25,0,0,1,5.87-1.15l.3.13a5.14,5.14,0,0,1,3.14,4.72Zm2-17.35a9,9,0,1,1,8.86-9.13A9,9,0,0,1,1208.5,234.43Zm16.3,19.17a32.14,32.14,0,0,1-8.36,3.43,5.25,5.25,0,0,1-6.54-5l-.14-9a5.33,5.33,0,0,1,3.49-5l.29-.12a5.3,5.3,0,0,1,5.75,1l6.54,6.35A5.26,5.26,0,0,1,1224.8,253.6Zm15.25-20.41a32.47,32.47,0,0,1-3.48,8.62,5.27,5.27,0,0,1-8.23,1.19l-6.47-6.27a5.3,5.3,0,0,1-1.12-5.95l.21-.51a5.28,5.28,0,0,1,4.83-3.42l9.07-.14A5.26,5.26,0,0,1,1240.05,233.19Zm-5.25-9.85-9.07.14a5.29,5.29,0,0,1-4.93-3.26c-.07-.17-.14-.34-.22-.51a5.31,5.31,0,0,1,.93-6l6.27-6.47a5.27,5.27,0,0,1,8.26.94,32.26,32.26,0,0,1,3.75,8.5A5.25,5.25,0,0,1,1234.8,223.34Z"/><path class="cls-12" d="M1256.82,247.68a53.32,53.32,0,1,0-75.62,23.64A53.52,53.52,0,0,0,1256.82,247.68ZM1223.07,200a5.79,5.79,0,0,1,8.92-1.69,35.33,35.33,0,0,1,6.53,7.53,5.8,5.8,0,0,1-3.11,8.71l-9.6,3a5.84,5.84,0,0,1-6.17-1.83c-.08-.09-.15-.18-.23-.26a5.89,5.89,0,0,1-.94-6.68Zm-16.85-10.48a35.79,35.79,0,0,1,9.38.67,5.81,5.81,0,0,1,4,8.37l-4.68,8.93a5.68,5.68,0,0,1-5.44,3.09l-.35,0a5.8,5.8,0,0,1-5.21-4l-3-9.49A5.81,5.81,0,0,1,1206.22,189.55Zm-24.38,11.61a35.53,35.53,0,0,1,7-5.9,5.79,5.79,0,0,1,8.68,3.13l3,9.6a5.76,5.76,0,0,1-1.77,6.12l0,0a5.77,5.77,0,0,1-6.44.73l-8.87-4.64A5.8,5.8,0,0,1,1181.84,201.16Zm-9.41,25.4a35.52,35.52,0,0,1,.87-9.1,5.82,5.82,0,0,1,8.35-3.92l8.86,4.65a5.78,5.78,0,0,1,3.07,5.71V224a5.77,5.77,0,0,1-4,4.94l-9.6,3A5.79,5.79,0,0,1,1172.43,226.56ZM1192.71,250a5.81,5.81,0,0,1-9.18,1.46,35.31,35.31,0,0,1-5.89-7.33,5.81,5.81,0,0,1,3.19-8.58l9.49-3a5.78,5.78,0,0,1,6.29,2l.22.28a5.68,5.68,0,0,1,.56,6.22Zm11-15.75a9.92,9.92,0,1,1,13.39-4.19A9.93,9.93,0,0,1,1203.76,234.23Zm5.69,27.15a35.59,35.59,0,0,1-9.91-1.09,5.79,5.79,0,0,1-3.69-8.29l4.6-8.78a5.86,5.86,0,0,1,6-3l.35,0a5.84,5.84,0,0,1,5,4l3,9.59A5.82,5.82,0,0,1,1209.45,261.38ZM1235,249.64a35.83,35.83,0,0,1-7.91,6.51,5.81,5.81,0,0,1-8.6-3.18l-3-9.48a5.86,5.86,0,0,1,2.06-6.35l.47-.39a5.79,5.79,0,0,1,6.47-.76l8.86,4.64A5.79,5.79,0,0,1,1235,249.64Zm.11-12.31-8.86-4.64a5.8,5.8,0,0,1-3.06-5.75c0-.21,0-.41,0-.62a5.87,5.87,0,0,1,4-5.3l9.48-3a5.82,5.82,0,0,1,7.52,5.26,35.69,35.69,0,0,1-.86,10.21A5.78,5.78,0,0,1,1235.08,237.33Z"/><circle class="cls-13" cx="1208.36" cy="225.44" r="6.2"/></g></g><g id="roue-2" data-name="roue"><circle class="cls-9" cx="135.71" cy="242.14" r="101.67"/><circle class="cls-2" cx="132.88" cy="245.06" r="97.61"/><circle class="cls-10" cx="135.71" cy="242.14" r="81.83"/><g id="enjoliveur-2" data-name="enjoliveur"><path class="cls-11" d="M184,238.88a48.36,48.36,0,1,0-50,51.59A48.52,48.52,0,0,0,184,238.88Zm-47.53-23.35a5.26,5.26,0,0,1,6.38-5.22,32.62,32.62,0,0,1,8.46,3.17,5.26,5.26,0,0,1,1.29,8.29l-6.34,6.55a5.32,5.32,0,0,1-5.72,1.22l-.29-.11a5.33,5.33,0,0,1-3.64-4.91Zm-18-1.05a32.19,32.19,0,0,1,7.77-3.54,5.27,5.27,0,0,1,6.83,4.93l.14,9.15a5.13,5.13,0,0,1-3,4.81l-.29.14a5.26,5.26,0,0,1-5.91-1l-6.47-6.27A5.27,5.27,0,0,1,118.45,214.48Zm-14.4,19.81a32.51,32.51,0,0,1,3-7.72,5.26,5.26,0,0,1,8.28-1.27l6.55,6.35a5.22,5.22,0,0,1,1.24,5.64l0,.06a5.23,5.23,0,0,1-4.81,3.38l-9.07.14A5.27,5.27,0,0,1,104.05,234.29Zm3.51,24.32a32.47,32.47,0,0,1-3.25-7.63,5.28,5.28,0,0,1,5-6.74l9.08-.14a5.24,5.24,0,0,1,4.91,3.22l0,.07a5.24,5.24,0,0,1-1.07,5.67l-6.35,6.55A5.25,5.25,0,0,1,107.56,258.61Zm26.31,9.87a5.27,5.27,0,0,1-6.68,5.14,32,32,0,0,1-7.87-3.29,5.26,5.26,0,0,1-1.17-8.22l6.27-6.47a5.24,5.24,0,0,1,5.87-1.14l.3.12a5.16,5.16,0,0,1,3.14,4.72Zm2-17.34A9,9,0,1,1,144.7,242,9,9,0,0,1,135.85,251.14Zm16.29,19.17a32.34,32.34,0,0,1-8.36,3.43,5.25,5.25,0,0,1-6.53-5l-.14-9a5.34,5.34,0,0,1,3.48-5l.29-.11a5.3,5.3,0,0,1,5.75,1l6.55,6.35A5.26,5.26,0,0,1,152.14,270.31Zm15.25-20.41a32.47,32.47,0,0,1-3.48,8.62,5.27,5.27,0,0,1-8.23,1.19l-6.47-6.27a5.32,5.32,0,0,1-1.11-5.95l.21-.52a5.24,5.24,0,0,1,4.82-3.41l9.07-.14A5.24,5.24,0,0,1,167.39,249.9ZM162.15,240l-9.07.15a5.27,5.27,0,0,1-4.93-3.26c-.07-.18-.15-.35-.23-.52a5.33,5.33,0,0,1,.93-6l6.27-6.46a5.28,5.28,0,0,1,8.27.93,32.66,32.66,0,0,1,3.75,8.51A5.25,5.25,0,0,1,162.15,240Z"/><path class="cls-12" d="M184.16,264.39A53.31,53.31,0,1,0,108.55,288,53.51,53.51,0,0,0,184.16,264.39Zm-33.74-47.65a5.78,5.78,0,0,1,8.92-1.69,35.81,35.81,0,0,1,6.53,7.52,5.8,5.8,0,0,1-3.12,8.71l-9.59,3a5.85,5.85,0,0,1-6.18-1.83l-.22-.26a5.87,5.87,0,0,1-.94-6.67Zm-16.86-10.49a36.3,36.3,0,0,1,9.39.67,5.82,5.82,0,0,1,4,8.38l-4.68,8.93a5.7,5.7,0,0,1-5.43,3.09l-.35,0a5.77,5.77,0,0,1-5.22-4l-3-9.48A5.81,5.81,0,0,1,133.56,206.25Zm-24.38,11.61a35.87,35.87,0,0,1,7-5.9,5.81,5.81,0,0,1,8.69,3.14l3,9.6a5.76,5.76,0,0,1-1.77,6.12l-.06.05a5.77,5.77,0,0,1-6.43.73L110.72,227A5.81,5.81,0,0,1,109.18,217.86Zm-9.41,25.4a35.9,35.9,0,0,1,.87-9.09,5.81,5.81,0,0,1,8.35-3.92l8.87,4.64a5.79,5.79,0,0,1,3.06,5.71v.08a5.76,5.76,0,0,1-4,4.94l-9.6,3A5.81,5.81,0,0,1,99.77,243.26Zm20.28,23.43a5.81,5.81,0,0,1-9.17,1.46,35.89,35.89,0,0,1-5.9-7.33,5.81,5.81,0,0,1,3.2-8.58l9.48-3a5.79,5.79,0,0,1,6.29,2l.22.28a5.68,5.68,0,0,1,.56,6.23Zm11.06-15.76a9.92,9.92,0,1,1,13.39-4.18A9.92,9.92,0,0,1,131.11,250.93Zm5.68,27.15a35.89,35.89,0,0,1-9.9-1.08,5.79,5.79,0,0,1-3.69-8.3l4.6-8.78a5.88,5.88,0,0,1,6-3l.34,0a5.83,5.83,0,0,1,5,4l3,9.6A5.8,5.8,0,0,1,136.79,278.08Zm25.53-11.74a35.7,35.7,0,0,1-7.92,6.52,5.81,5.81,0,0,1-8.6-3.18l-3-9.48a5.87,5.87,0,0,1,2-6.35l.48-.4a5.8,5.8,0,0,1,6.47-.76l8.86,4.64A5.79,5.79,0,0,1,162.32,266.34Zm.1-12.3-8.85-4.64a5.8,5.8,0,0,1-3.06-5.76c0-.2,0-.41.05-.61a5.85,5.85,0,0,1,4.05-5.3l9.48-3A5.81,5.81,0,0,1,171.6,240a35.72,35.72,0,0,1-.85,10.22A5.8,5.8,0,0,1,162.42,254Z"/><circle class="cls-13" cx="135.71" cy="242.14" r="6.2"/></g></g><path class="cls-7" d="M160.76,72.48l4.43-10.05,1.43-12.35,11.76,8.19,1,20.68,12-48.78,5.58-.09L198,91.14s1.5-2.28,1.35-8.79-.9-54.46-.9-54.46l-33.86.52Z"/><rect class="cls-4" x="334.62" y="116.69" width="286.46" height="8.68" transform="translate(-1.83 7.46) rotate(-0.89)"/><rect class="cls-4" x="611.69" y="32.48" width="8.68" height="82.05" transform="translate(-1.07 9.6) rotate(-0.89)"/><rect class="cls-4" x="1337.89" y="277.64" width="180.2" height="6.28" transform="translate(-4.2 22.27) rotate(-0.89)"/><polygon class="cls-4" points="160.29 77.83 0.28 80.33 0 62.6 161.82 60.08 160.29 77.83"/><polygon class="cls-4" points="160.95 70.29 199.1 69.7 198.84 52.92 162.39 53.49 160.95 70.29"/><circle class="cls-4" cx="107.25" cy="85.67" r="19.35"/><circle class="cls-1" cx="107.25" cy="85.67" r="17.03"/><circle class="cls-4" cx="107.25" cy="85.67" r="14.54"/><circle class="cls-4" cx="48.97" cy="86.58" r="19.35"/><circle class="cls-1" cx="48.97" cy="86.58" r="17.03"/><circle class="cls-4" cx="48.97" cy="86.58" r="14.54"/><g id="ELYS2E"><path class="cls-5" d="M263.36,289.54l1.35-22.49,55.18,1.15-.3,5-33.93-.71-.22,3.67,29.74.62-.3,5.1-29.74-.62-.22,3.67,33.92.71-.3,5Z"/><path class="cls-5" d="M325.32,290.84l1.35-22.5,21.26.45-1.05,17.46,32.79.69-.3,5Z"/><path class="cls-5" d="M392.6,292.25l.5-8.25-25.38-14.8,22.16.47,14.19,8.79,15.21-8.18,22.17.47-27.09,13.7-.5,8.24Z"/><path class="cls-5" d="M464.5,294.1q-7.35-.15-13.88-.66t-11.14-1.26l.33-5.42q5,.84,11.23,1.43t11.62.7q5.65.12,8.56-.12c1.93-.16,2.92-.59,3-1.29,0-.49-.49-.88-1.57-1.18a35.37,35.37,0,0,0-5-.88l-8.94-1.06q-7.31-.89-11.55-1.85a17.33,17.33,0,0,1-6-2.26,3.45,3.45,0,0,1-1.68-3.11q.19-3.31,7.93-4.89T470.08,271q6,.12,12.36.57c4.25.3,7.68.6,10.31.91l-.33,5.45c-3.52-.51-6.89-.9-10.12-1.15s-6.28-.41-9.14-.47q-5-.1-8.5.06c-2.35.12-3.54.51-3.58,1.19s.94,1,2.92,1.33,5.52.73,10.62,1.26a103.42,103.42,0,0,1,13.52,2.07q4.64,1.14,6.25,2.56a3.82,3.82,0,0,1,1.51,3.16q-.19,3.07-8,4.78T464.5,294.1Z"/><path class="cls-5" d="M503.42,294.57l1.35-22.5L560,273.23l-.3,5-33.92-.71-.22,3.66,29.74.63-.31,5.1-29.74-.63L525,290l33.93.71-.31,5ZM522.5,270.9l10.39-7,16.5.34-11.28,7Z"/><path class="cls-5" d="M565.39,295.86l1.35-22.49,55.18,1.15-.3,5-33.93-.71-.22,3.67,29.74.62-.3,5.1-29.74-.62-.22,3.67,33.92.71-.3,5Z"/></g><g id="_2022" data-name="2022"><path class="cls-5" d="M652.65,298.81l0-3a39.81,39.81,0,0,1,7.72-3.37q4.53-1.5,10.1-3.08,4.65-1.32,7.54-2.18a24,24,0,0,0,4.31-1.62c.95-.5,1.42-1.08,1.43-1.74q0-2.47-10.5-2.41-4.87,0-9.45.41t-8.67.94l.05-5.6q4.65-.58,10.87-1t12.56-.42q13.59-.09,20.24,1.84t6.63,5.26a3.67,3.67,0,0,1-1.21,2.71,11.23,11.23,0,0,1-3.7,2.11c-1.66.64-3.82,1.33-6.46,2.07-2.35.64-4.65,1.29-6.92,1.93a39.74,39.74,0,0,0-5.45,1.89l24.33-.16,0,5Z"/><path class="cls-5" d="M746.56,298.53a120.82,120.82,0,0,1-20.19-1.21q-7.62-1.29-11.11-3.86a7.53,7.53,0,0,1-3.45-6.3,7.78,7.78,0,0,1,3.56-6.35q3.52-2.61,11.18-4a122.09,122.09,0,0,1,20.21-1.48q18.78-.12,26.79,2.81c5.33,2,8,4.81,8,8.56s-2.73,6.62-8.1,8.66S759.08,298.45,746.56,298.53Zm.05-5.59q7.35,0,10.25-1.59a4.93,4.93,0,0,0,2.92-4.51,4.73,4.73,0,0,0-2.85-4.49q-2.86-1.49-10.22-1.44c-4.91,0-8.32.56-10.26,1.58a4.91,4.91,0,0,0-2.92,4.52,4.79,4.79,0,0,0,2.85,4.48C738.3,292.49,741.7,293,746.61,292.94Z"/><path class="cls-5" d="M787.07,297.91l0-3a40.07,40.07,0,0,1,7.72-3.38q4.55-1.48,10.1-3.07,4.65-1.32,7.54-2.18a23.67,23.67,0,0,0,4.31-1.62c1-.51,1.43-1.09,1.43-1.74q0-2.48-10.5-2.41-4.86,0-9.45.41c-3.06.26-5.94.57-8.66.93l0-5.59q4.64-.58,10.87-1t12.56-.42q13.58-.09,20.23,1.84t6.63,5.25a3.64,3.64,0,0,1-1.21,2.72,11.28,11.28,0,0,1-3.69,2.1c-1.67.64-3.82,1.33-6.47,2.07-2.34.65-4.65,1.29-6.92,1.94a39.54,39.54,0,0,0-5.44,1.89l24.32-.17,0,5Z"/><path class="cls-5" d="M846.13,297.52l0-3a40.72,40.72,0,0,1,7.72-3.37q4.54-1.5,10.1-3.07,4.65-1.32,7.54-2.18a23.67,23.67,0,0,0,4.31-1.62c.95-.51,1.43-1.09,1.43-1.74q0-2.49-10.5-2.41-4.86,0-9.45.41c-3.06.25-5.94.56-8.66.93l.05-5.59q4.63-.6,10.87-1t12.56-.41q13.57-.09,20.23,1.84t6.63,5.25a3.64,3.64,0,0,1-1.21,2.72,11.28,11.28,0,0,1-3.69,2.1c-1.67.64-3.82,1.33-6.47,2.07-2.34.65-4.65,1.29-6.92,1.94a41.1,41.1,0,0,0-5.44,1.88l24.33-.16-.05,5Z"/></g><rect class="cls-1" x="469.96" y="64.74" width="9.76" height="34.87" transform="translate(-1.22 7.4) rotate(-0.89)"/><rect class="cls-1" x="485.76" y="64.49" width="9.76" height="34.87" transform="translate(-1.22 7.65) rotate(-0.89)"/><rect class="cls-1" x="501.57" y="64.24" width="9.76" height="34.87" transform="translate(-1.21 7.9) rotate(-0.89)"/><rect class="cls-1" x="517.38" y="64" width="9.76" height="34.87" transform="translate(-1.2 8.14) rotate(-0.89)"/><rect class="cls-1" x="533.18" y="63.75" width="9.76" height="34.87" transform="translate(-1.2 8.39) rotate(-0.89)"/><rect class="cls-1" x="548.99" y="63.51" width="9.76" height="34.87" transform="translate(-1.19 8.63) rotate(-0.89)"/><rect class="cls-6" x="849.26" y="95.82" width="6.03" height="17.36" transform="translate(-1.52 13.28) rotate(-0.89)"/><rect class="cls-6" x="681.11" y="30.23" width="7.48" height="39.68" transform="translate(-0.7 10.67) rotate(-0.89)"/><rect class="cls-6" x="671.45" y="70.06" width="7.48" height="17.36" transform="translate(-1.14 10.52) rotate(-0.89)"/><rect class="cls-6" x="701.71" y="86.95" width="7.48" height="23.56" transform="translate(-1.45 11) rotate(-0.89)"/></g></g></svg>