<svg width="225" height="310" viewBox="0 0 225 310" fill="none" xmlns="http://www.w3.org/2000/svg">
<path d="M195.519 1L1.53809 19.8388L24.7008 308.454L224 293.103C224 293.103 197.842 52.3818 195.519 1Z" fill="black" stroke="black" stroke-width="1.5" stroke-miterlimit="10"/>
<path d="M201.041 9.39255L6.375 18.8284L15.5427 308.227C15.5427 308.227 160.275 308.052 193.724 303.826C212.458 299.344 215.874 287.309 215.874 287.309C215.874 287.309 200.874 60.821 201.041 9.39255Z" fill="white" stroke="black" stroke-width="1.5" stroke-miterlimit="10"/>
<path d="M193.728 303.811C212.458 299.331 215.872 287.294 215.872 287.294C208.343 292.595 196.765 288.646 196.765 288.646C196.765 288.646 198.082 297.253 193.728 303.811Z" fill="white" stroke="black" stroke-width="1.5" stroke-miterlimit="10"/>
<path d="M52.3622 129.506C46.8361 129.817 41.4121 127.924 37.2803 124.242C33.1485 120.56 30.6462 115.39 30.3225 109.866L26.5175 43.5555C26.3513 40.8142 26.7279 38.0669 27.6257 35.4714C28.5235 32.8758 29.9249 30.4828 31.7495 28.4298C33.5741 26.3767 35.7862 24.7038 38.2587 23.5071C40.7313 22.3103 43.4158 21.6132 46.1584 21.4557C48.901 21.2982 51.6477 21.6834 54.241 22.5892C56.8344 23.495 59.2235 24.9036 61.2713 26.7343C63.3191 28.565 64.9853 30.7817 66.1746 33.2575C67.3638 35.7332 68.0525 38.4192 68.2014 41.1616L72.0117 107.472C72.323 112.998 70.4289 118.421 66.7451 122.552C63.0612 126.683 57.8886 129.184 52.3622 129.506Z" fill="#89F798" stroke="#1D1D1B" stroke-width="1.5" stroke-linecap="round" stroke-linejoin="round"/>
<path d="M47.8465 88.4551C47.8929 87.8453 47.8083 87.2325 47.5984 86.658C47.3886 86.0835 47.0584 85.5605 46.6298 85.124C46.2013 84.6875 45.6843 84.3477 45.1136 84.1273C44.543 83.9069 43.9318 83.811 43.3211 83.8461C42.7103 83.8811 42.114 84.0464 41.5724 84.3306C41.0307 84.6149 40.5561 85.0117 40.1803 85.4943C39.8046 85.977 39.5364 86.5344 39.3937 87.1292C39.251 87.7239 39.2372 88.3423 39.3532 88.9428C39.508 91.622 41.7138 93.9428 43.8442 92.9546C46.8878 91.5435 48.0002 91.1343 47.8465 88.4551Z" fill="white" stroke="#1D1D1B" stroke-width="1.5" stroke-linecap="round" stroke-linejoin="round"/>
<path d="M44.7036 92.5093C46.436 92.5093 47.8405 91.1053 47.8405 89.3733C47.8405 87.6413 46.436 86.2372 44.7036 86.2372C42.9711 86.2372 41.5667 87.6413 41.5667 89.3733C41.5667 91.1053 42.9711 92.5093 44.7036 92.5093Z" fill="#1D1D1B"/>
<path d="M53.6029 88.1244C53.4876 87.5242 53.5019 86.9063 53.6448 86.3121C53.7878 85.7179 54.0561 85.1612 54.4318 84.6791C54.8074 84.197 55.2818 83.8007 55.8231 83.5168C56.3644 83.2328 56.9602 83.0678 57.5704 83.0328C58.1807 82.9977 58.7915 83.0934 59.3617 83.3135C59.932 83.5336 60.4487 83.873 60.8771 84.3089C61.3055 84.7449 61.6358 85.2673 61.8458 85.8412C62.0559 86.4151 62.1409 87.0273 62.0951 87.6367C62.2489 90.3169 60.3241 92.8741 58.0939 92.1362C54.9083 91.0834 53.7567 90.8045 53.6029 88.1244Z" fill="white" stroke="#1D1D1B" stroke-width="1.5" stroke-linecap="round" stroke-linejoin="round"/>
<path d="M56.7748 91.8172C58.5073 91.8172 59.9117 90.4131 59.9117 88.6811C59.9117 86.9491 58.5073 85.545 56.7748 85.545C55.0424 85.545 53.6379 86.9491 53.6379 88.6811C53.6379 90.4131 55.0424 91.8172 56.7748 91.8172Z" fill="#1D1D1B"/>
<path d="M27.1538 55.5306L20.5343 49.0019C20.0796 48.6271 19.7046 48.165 19.4314 47.643C19.1581 47.1209 18.9923 46.5494 18.9436 45.9622L16.741 19.2451C16.6515 18.144 17.0025 17.0524 17.717 16.2096C18.4315 15.3669 19.4512 14.842 20.5523 14.7498L32.9514 13.7278C34.0529 13.6383 35.145 13.9894 35.988 14.7039C36.8309 15.4185 37.3559 16.4382 37.4478 17.5392L39.6504 44.2564C39.6979 44.8437 39.6274 45.4346 39.4431 45.9943C39.2588 46.554 38.9644 47.0712 38.5772 47.5155L33.2324 54.8977L33.1168 55.0397C32.3648 55.8523 31.3354 56.3535 30.2319 56.4444C29.1283 56.5352 28.0308 56.2092 27.1559 55.5306H27.1538ZM36.0448 45.5848L36.1604 45.4428C36.2745 45.3188 36.3617 45.1726 36.4164 45.0133C36.4712 44.854 36.4923 44.6851 36.4785 44.5172L34.2759 17.8C34.254 17.5402 34.1303 17.2995 33.9316 17.1305C33.733 16.9615 33.4756 16.8778 33.2155 16.8978L20.8175 17.9198C20.5575 17.9418 20.3166 18.0654 20.1474 18.264C19.9782 18.4626 19.8943 18.7199 19.9139 18.9801L22.1176 45.6972C22.1314 45.8647 22.1797 46.0276 22.2594 46.1755C22.3392 46.3235 22.4487 46.4534 22.5811 46.557L29.1783 53.0656C29.4114 53.2247 29.6921 53.2988 29.9733 53.2757C30.2546 53.2525 30.5194 53.1335 30.7233 52.9384L36.0448 45.5848Z" fill="white" stroke="black" stroke-width="1.5" stroke-miterlimit="10"/>
</svg>
