<svg width="223" height="306" viewBox="0 0 223 306" fill="none" xmlns="http://www.w3.org/2000/svg">
<path d="M193.224 1L1.12646 19.6383L24.0641 305.118L221.427 289.935C221.427 289.935 195.523 51.8226 193.224 1Z" fill="black" stroke="black" stroke-width="1.5" stroke-miterlimit="10"/>
<path d="M198.693 9.29617L5.91846 18.6295L14.9971 304.881C14.9971 304.881 158.321 304.708 191.447 300.528C209.999 296.096 213.381 284.191 213.381 284.191C213.381 284.191 198.527 60.1712 198.693 9.29617Z" fill="white" stroke="black" stroke-width="1.5" stroke-miterlimit="10"/>
<path d="M191.451 300.524C209.999 296.093 213.378 284.188 213.378 284.188C205.922 289.431 194.458 285.525 194.458 285.525C194.458 285.525 195.762 294.035 191.451 300.524Z" fill="white" stroke="black" stroke-width="1.5" stroke-miterlimit="10"/>
<path d="M26.4965 54.9382L19.9414 48.4772C19.4915 48.1062 19.1204 47.6491 18.8499 47.1327C18.5793 46.6164 18.4149 46.0513 18.3661 45.4707L16.185 19.0437C16.0963 17.9544 16.4441 16.8745 17.1519 16.0409C17.8596 15.2073 18.8697 14.6881 19.9603 14.5973L32.2388 13.5864C33.3295 13.4978 34.4108 13.845 35.2455 14.5515C36.0803 15.2581 36.6003 16.2664 36.6915 17.3553L38.8727 43.7823C38.9196 44.3635 38.8497 44.9481 38.667 45.5019C38.4843 46.0557 38.1925 46.5674 37.8089 47.007L32.5171 54.308L32.4016 54.4495C31.6568 55.2528 30.6377 55.7482 29.5452 55.838C28.4526 55.9279 27.366 55.6057 26.4997 54.9351L26.4965 54.9382ZM35.3011 45.0994L35.4156 44.9599C35.528 44.837 35.614 44.6923 35.6682 44.5348C35.7224 44.3774 35.7436 44.2104 35.7306 44.0444L33.5494 17.6175C33.5277 17.3605 33.4051 17.1224 33.2084 16.9553C33.0117 16.7881 32.7568 16.7053 32.4993 16.7251L20.2207 17.736C19.9632 17.7574 19.7247 17.8797 19.5572 18.0762C19.3898 18.2727 19.307 18.5274 19.3271 18.7847L21.5082 45.2116C21.5223 45.3775 21.5704 45.5387 21.6495 45.6852C21.7287 45.8317 21.8371 45.9603 21.9682 46.0632L28.5013 52.5C28.7321 52.6573 29.0101 52.7307 29.2886 52.7078C29.5672 52.6849 29.8294 52.5671 30.0314 52.3742L35.3011 45.0994Z" fill="white" stroke="black" stroke-width="1.5" stroke-miterlimit="10"/>
<path d="M94.8095 96.5795L26.0238 99.2117C24.9378 99.2533 23.8599 99.0095 22.8977 98.5047C21.9356 98 21.1229 97.2519 20.5409 96.3354C19.9589 95.4188 19.628 94.3657 19.5812 93.2814C19.5344 92.1971 19.7734 91.1195 20.2742 90.1563L52.3514 28.4756C52.857 27.5036 53.6114 26.6826 54.5377 26.0962C55.4641 25.5097 56.5295 25.1787 57.6256 25.1369C58.7216 25.095 59.8092 25.3437 60.7778 25.8578C61.7464 26.3718 62.5613 27.1329 63.1398 28.0635L99.8493 87.1109C100.423 88.0332 100.744 89.0895 100.78 90.1744C100.816 91.2594 100.567 92.3348 100.057 93.2933C99.5464 94.2518 98.7931 95.0597 97.8721 95.6364C96.9511 96.2131 95.8948 96.5383 94.8085 96.5795H94.8095Z" fill="#7352FF" stroke="black" stroke-width="1.5" stroke-miterlimit="10"/>
<path d="M48.9153 76.8736H48.7736C47.7604 76.9218 46.7486 76.7544 45.8051 76.3825C44.8617 76.0106 44.0082 75.4427 43.3011 74.7165C42.8651 74.2434 42.6336 73.6177 42.6566 72.9752C42.6796 72.3327 42.9554 71.7252 43.4242 71.2844C43.8929 70.8437 44.5168 70.6053 45.1604 70.6209C45.8041 70.6366 46.4156 70.905 46.8622 71.368C47.1036 71.5903 47.3883 71.7604 47.6986 71.8674C48.009 71.9744 48.3381 72.0161 48.6654 71.9899C49.7052 71.9884 50.7052 71.5904 51.4609 70.8772C51.6694 70.6304 51.9249 70.4273 52.2125 70.2796C52.5001 70.132 52.8142 70.0428 53.1366 70.0172C53.459 69.9916 53.7833 70.0301 54.0906 70.1305C54.398 70.2308 54.6824 70.3911 54.9274 70.6019C55.1724 70.8128 55.373 71.07 55.5177 71.3588C55.6625 71.6476 55.7484 71.9622 55.7706 72.2844C55.7928 72.6066 55.7508 72.93 55.647 73.2358C55.5432 73.5417 55.3796 73.824 55.1659 74.0663C53.5366 75.7913 51.2888 76.8009 48.9153 76.8736Z" fill="white" stroke="#1D1D1B" stroke-width="1.5" stroke-linecap="round" stroke-linejoin="round"/>
<path d="M53.1716 75.2608C54.6089 75.2608 55.7739 74.0973 55.7739 72.6621C55.7739 71.2269 54.6089 70.0635 53.1716 70.0635C51.7344 70.0635 50.5693 71.2269 50.5693 72.6621C50.5693 74.0973 51.7344 75.2608 53.1716 75.2608Z" fill="#1D1D1B"/>
<path d="M69.8504 76.0725H69.7076C68.6946 76.1204 67.6829 75.953 66.7395 75.5813C65.7961 75.2096 64.9425 74.6421 64.2352 73.9164C63.8052 73.4421 63.5786 72.8183 63.6041 72.1791C63.6296 71.5398 63.9052 70.936 64.3716 70.4975C64.838 70.0589 65.4581 69.8205 66.0987 69.8334C66.7392 69.8464 67.3491 70.1097 67.7973 70.5668C68.0386 70.7892 68.3234 70.9592 68.6337 71.0662C68.9441 71.1732 69.2732 71.2149 69.6005 71.1887C70.64 71.1872 71.6396 70.7892 72.3949 70.0761C72.6046 69.8331 72.8602 69.6337 73.1471 69.4893C73.4339 69.3449 73.7464 69.2584 74.0668 69.2346C74.3871 69.2109 74.709 69.2504 75.0141 69.3508C75.3191 69.4513 75.6014 69.6108 75.8447 69.8202C76.0881 70.0296 76.2877 70.2848 76.4323 70.5712C76.5769 70.8577 76.6635 71.1698 76.6873 71.4897C76.7111 71.8095 76.6716 72.131 76.571 72.4356C76.4704 72.7403 76.3106 73.0221 76.101 73.2651C74.4716 74.9902 72.2239 75.9997 69.8504 76.0725Z" fill="white" stroke="#1D1D1B" stroke-width="1.5" stroke-linecap="round" stroke-linejoin="round"/>
<path d="M74.3292 74.4512C75.7664 74.4512 76.9315 73.2877 76.9315 71.8525C76.9315 70.4173 75.7664 69.2539 74.3292 69.2539C72.892 69.2539 71.7269 70.4173 71.7269 71.8525C71.7269 73.2877 72.892 74.4512 74.3292 74.4512Z" fill="#1D1D1B"/>
</svg>
