<svg width="82" height="19" viewBox="0 0 82 19" fill="none" xmlns="http://www.w3.org/2000/svg">
<path d="M26.2574 17.1969C27.0859 17.2015 27.9019 16.996 28.6293 16.5994C29.3566 16.2028 29.9715 15.6281 30.4163 14.9292C30.861 14.2303 31.1213 13.4299 31.1725 12.603C31.2238 11.7762 31.0645 10.9498 30.7094 10.2013C29.4007 7.54576 27.3748 5.3096 24.8609 3.74593C22.3471 2.18226 19.4458 1.35352 16.4853 1.35352C13.5248 1.35352 10.6234 2.18226 8.10953 3.74593C5.59569 5.3096 3.56982 7.54576 2.26114 10.2013C1.90607 10.9498 1.7467 11.7762 1.79796 12.603C1.84922 13.4299 2.10942 14.2303 2.55422 14.9292C2.99902 15.6281 3.61384 16.2028 4.3412 16.5994C5.06856 16.996 5.8847 17.2015 6.71314 17.1969H26.2574Z" fill="black" stroke="white" stroke-width="2" stroke-linecap="round" stroke-linejoin="round"/>
<path d="M16.8795 14.7589C20.6789 14.7589 23.7589 11.6789 23.7589 7.87946C23.7589 4.08004 20.6789 1 16.8795 1C13.08 1 10 4.08004 10 7.87946C10 11.6789 13.08 14.7589 16.8795 14.7589Z" fill="white"/>
<path d="M75.9426 17.1969C76.7711 17.2016 77.5872 16.996 78.3146 16.5994C79.0419 16.2028 79.6567 15.6281 80.1015 14.9292C80.5463 14.2303 80.8065 13.4299 80.8578 12.6031C80.9091 11.7762 80.7497 10.9498 80.3946 10.2013C79.0857 7.54584 77.0597 5.30977 74.5457 3.74617C72.0318 2.18257 69.1303 1.35388 66.1698 1.35388C63.2093 1.35388 60.3078 2.18257 57.7939 3.74617C55.2799 5.30977 53.2539 7.54584 51.945 10.2013C51.5899 10.9498 51.4305 11.7762 51.4818 12.6031C51.5331 13.4299 51.7933 14.2303 52.2381 14.9292C52.6829 15.6281 53.2977 16.2028 54.025 16.5994C54.7524 16.996 55.5685 17.2016 56.397 17.1969H75.9426Z" fill="black" stroke="white" stroke-width="2" stroke-linecap="round" stroke-linejoin="round"/>
<path d="M66.8795 14.7589C70.6789 14.7589 73.7589 11.6789 73.7589 7.87946C73.7589 4.08004 70.6789 1 66.8795 1C63.08 1 60 4.08004 60 7.87946C60 11.6789 63.08 14.7589 66.8795 14.7589Z" fill="white"/>
</svg>
