<svg width="106" height="51" viewBox="0 0 106 51" fill="none" xmlns="http://www.w3.org/2000/svg">
<path d="M34.9619 49.9992H34.6076C32.0862 50.0229 29.5884 49.5106 27.2798 48.4965C24.9713 47.4823 22.9045 45.9892 21.2162 44.1163C20.6709 43.5175 20.2505 42.816 19.9799 42.0526C19.7093 41.2893 19.5938 40.4796 19.6403 39.6711C19.6867 38.8626 19.8942 38.0714 20.2505 37.3441C20.6068 36.6168 21.1046 35.968 21.715 35.4357C22.3254 34.9034 23.036 34.4984 23.805 34.2443C24.574 33.9903 25.3859 33.8924 26.1933 33.9563C27.0006 34.0203 27.787 34.2448 28.5064 34.6167C29.2258 34.9886 29.8638 35.5005 30.3828 36.1222C30.961 36.6984 31.6523 37.1485 32.4131 37.4443C33.1739 37.74 33.9876 37.875 34.8032 37.8406C37.3867 37.936 39.9091 37.0409 41.8546 35.3383C42.3956 34.741 43.0498 34.2571 43.7794 33.9148C44.5089 33.5725 45.2993 33.3785 46.1044 33.3443C46.9095 33.31 47.7135 33.436 48.4695 33.7151C49.2255 33.9941 49.9186 34.4206 50.5083 34.9698C51.0981 35.519 51.5728 36.1799 51.905 36.9141C52.2372 37.6483 52.4202 38.4413 52.4434 39.2468C52.4665 40.0524 52.3294 40.8545 52.0399 41.6066C51.7504 42.3586 51.3143 43.0457 50.757 43.6278C46.5414 47.7564 40.8623 50.0473 34.9619 49.9992V49.9992Z" fill="black" stroke="white" stroke-width="2" stroke-linecap="round" stroke-linejoin="round"/>
<path d="M29.4712 49.9426C33.0452 49.9426 35.9424 47.0453 35.9424 43.4713C35.9424 39.8973 33.0452 37 29.4712 37C25.8972 37 22.9999 39.8973 22.9999 43.4713C22.9999 47.0453 25.8972 49.9426 29.4712 49.9426Z" fill="white"/>
<path d="M87.0537 49.9992H86.6993C84.1779 50.0229 81.6802 49.5106 79.3716 48.4965C77.063 47.4823 74.9963 45.9892 73.308 44.1163C72.7627 43.5175 72.3423 42.816 72.0717 42.0526C71.8011 41.2893 71.6856 40.4796 71.7321 39.6711C71.7785 38.8626 71.986 38.0714 72.3422 37.3441C72.6985 36.6168 73.1964 35.968 73.8068 35.4357C74.4172 34.9034 75.1278 34.4984 75.8968 34.2443C76.6658 33.9903 77.4777 33.8924 78.2851 33.9563C79.0924 34.0203 79.8788 34.2448 80.5982 34.6167C81.3176 34.9886 81.9556 35.5005 82.4746 36.1222C83.053 36.6985 83.7444 37.1487 84.5055 37.4444C85.2665 37.7402 86.0806 37.8751 86.8964 37.8406C89.4795 37.9358 92.0013 37.0407 93.9463 35.3383C94.4873 34.741 95.1416 34.2571 95.8712 33.9148C96.6007 33.5725 97.391 33.3785 98.1962 33.3443C99.0013 33.31 99.8053 33.436 100.561 33.7151C101.317 33.9941 102.01 34.4206 102.6 34.9698C103.19 35.519 103.665 36.1799 103.997 36.9141C104.329 37.6483 104.512 38.4413 104.535 39.2468C104.558 40.0524 104.421 40.8545 104.132 41.6066C103.842 42.3586 103.406 43.0457 102.849 43.6278C98.6332 47.7564 92.9541 50.0473 87.0537 49.9992V49.9992Z" fill="black" stroke="white" stroke-width="2" stroke-linecap="round" stroke-linejoin="round"/>
<path d="M81.4712 49.9426C85.0452 49.9426 87.9424 47.0453 87.9424 43.4713C87.9424 39.8973 85.0452 37 81.4712 37C77.8972 37 74.9999 39.8973 74.9999 43.4713C74.9999 47.0453 77.8972 49.9426 81.4712 49.9426Z" fill="white"/>
<path d="M11.4998 1C8.49997 10.5 12.4999 12 14.4998 12C16.4998 12 19.5001 10.5 17 1" stroke="white" stroke-width="2" stroke-linecap="round"/>
<path d="M1.85961 18C-0.531024 24.0455 2.65659 25 4.25039 25C5.84424 25 8.23523 24.0455 6.24283 18" stroke="white" stroke-width="2" stroke-linecap="round"/>
</svg>
