<svg width="43" height="21" viewBox="0 0 43 21" fill="none" xmlns="http://www.w3.org/2000/svg">
<path d="M27.0246 15.3626C29.7575 18.2234 34.2271 18.2631 37.0077 15.4513C39.7883 12.6395 39.8269 8.04086 37.094 5.18001C34.361 2.31917 29.8914 2.27944 27.1108 5.09127C24.3302 7.90311 24.2916 12.5017 27.0246 15.3626Z" stroke="black" stroke-width="1.5" stroke-linecap="round" stroke-linejoin="round"/>
<path d="M4.94839 15.3626C7.68134 18.2234 12.1509 18.2631 14.9315 15.4513C17.7121 12.6395 17.7507 8.04086 15.0178 5.18001C12.2848 2.31917 7.81523 2.27944 5.03464 5.09127C2.25405 7.90311 2.21544 12.5017 4.94839 15.3626Z" stroke="black" stroke-width="1.5" stroke-linecap="round" stroke-linejoin="round"/>
<path d="M31.5493 13.1479C33.2351 14.9126 35.9922 14.9371 37.7074 13.2026C39.4226 11.4681 39.4464 8.6315 37.7606 6.86679C36.0748 5.10209 33.3177 5.07758 31.6025 6.81205C29.8873 8.54653 29.8635 11.3832 31.5493 13.1479Z" fill="black"/>
<path d="M9.47311 13.1479C11.1589 14.9126 13.916 14.9371 15.6312 13.2026C17.3464 11.4681 17.3702 8.6315 15.6844 6.86679C13.9986 5.10209 11.2415 5.07758 9.52631 6.81205C7.81111 8.54653 7.7873 11.3832 9.47311 13.1479Z" fill="black"/>
</svg>
