<svg width="43" height="19" viewBox="0 0 43 19" fill="none" xmlns="http://www.w3.org/2000/svg">
<path d="M1 9.62103C1 4.85978 4.36816 1 8.52298 1C12.6778 1 16.046 4.85978 16.046 9.62103C16.046 14.3823 12.3859 18.7171 8.52702 17.1841C3.00505 14.9935 1 14.3847 1 9.62103Z" fill="black" stroke="white" stroke-width="1.5" stroke-linecap="round" stroke-linejoin="round"/>
<path d="M10.1789 12.5599C13.3215 12.5599 15.869 10.0053 15.869 6.85416C15.869 3.70298 13.3215 1.14844 10.1789 1.14844C7.03633 1.14844 4.48877 3.70298 4.48877 6.85416C4.48877 10.0053 7.03633 12.5599 10.1789 12.5599Z" fill="white"/>
<path d="M41.2865 9.62103C41.2865 4.85978 37.9184 1 33.7676 1C29.6168 1 26.2446 4.85978 26.2446 9.62103C26.2446 14.3823 29.9047 18.7171 33.7676 17.1841C39.2815 14.9935 41.2865 14.3847 41.2865 9.62103Z" fill="black" stroke="white" stroke-width="1.5" stroke-linecap="round" stroke-linejoin="round"/>
<path d="M34.8498 12.5599C37.9924 12.5599 40.5399 10.0053 40.5399 6.85416C40.5399 3.70298 37.9924 1.14844 34.8498 1.14844C31.7072 1.14844 29.1597 3.70298 29.1597 6.85416C29.1597 10.0053 31.7072 12.5599 34.8498 12.5599Z" fill="white"/>
</svg>
