<svg width="40" height="10" viewBox="0 0 40 10" fill="none" xmlns="http://www.w3.org/2000/svg">
<path d="M12.5547 8.48381C12.9463 8.48628 13.3321 8.38932 13.676 8.20189C14.0198 8.01446 14.3104 7.74274 14.5205 7.41226C14.7306 7.08179 14.8533 6.70337 14.8772 6.31249C14.901 5.92161 14.8252 5.53103 14.6568 5.17748C14.0389 3.92365 13.0823 2.86791 11.8954 2.12961C10.7084 1.39131 9.33854 1 7.94072 1C6.54291 1 5.173 1.39131 3.98607 2.12961C2.79915 2.86791 1.84259 3.92365 1.22469 5.17748C1.05629 5.53103 0.980454 5.92161 1.00429 6.31249C1.02812 6.70337 1.15084 7.08179 1.36094 7.41226C1.57105 7.74274 1.86164 8.01446 2.20548 8.20189C2.54932 8.38932 2.93514 8.48628 3.32674 8.48381H12.5547Z" fill="black" stroke="white" stroke-width="1.5" stroke-linecap="round" stroke-linejoin="round"/>
<path d="M11.4752 8.86161C13.2692 8.86161 14.7234 7.40735 14.7234 5.61342C14.7234 3.8195 13.2692 2.36523 11.4752 2.36523C9.68131 2.36523 8.22705 3.8195 8.22705 5.61342C8.22705 7.40735 9.68131 8.86161 11.4752 8.86161Z" fill="white"/>
<path d="M36.0139 8.48365C36.4055 8.48612 36.7913 8.38916 37.1351 8.20173C37.479 8.0143 37.7696 7.74257 37.9797 7.4121C38.1898 7.08163 38.3125 6.70321 38.3363 6.31233C38.3602 5.92145 38.2843 5.53087 38.1159 5.17732C37.4979 3.92352 36.5413 2.86779 35.3543 2.12953C34.1673 1.39126 32.7974 1 31.3996 1C30.0017 1 28.6318 1.39126 27.4448 2.12953C26.2578 2.86779 25.3012 3.92352 24.6832 5.17732C24.5148 5.53092 24.4389 5.92156 24.4628 6.31249C24.4867 6.70343 24.6094 7.08185 24.8196 7.41234C25.0298 7.74283 25.3205 8.01459 25.6644 8.20197C26.0083 8.38936 26.3942 8.48624 26.7859 8.48365H36.0139Z" fill="black" stroke="white" stroke-width="1.5" stroke-linecap="round" stroke-linejoin="round"/>
<path d="M34.9347 8.86064C36.7286 8.86064 38.1829 7.40637 38.1829 5.61245C38.1829 3.81852 36.7286 2.36426 34.9347 2.36426C33.1408 2.36426 31.6865 3.81852 31.6865 5.61245C31.6865 7.40637 33.1408 8.86064 34.9347 8.86064Z" fill="white"/>
</svg>
