<svg width="43" height="10" viewBox="0 0 43 10" fill="none" xmlns="http://www.w3.org/2000/svg">
<path d="M8.31935 9.04458H8.14825C6.93078 9.05599 5.72478 8.8086 4.61008 8.3189C3.49538 7.82919 2.49741 7.10832 1.68226 6.20395C1.19016 5.61439 0.948542 4.85552 1.00918 4.08997C1.06981 3.32441 1.42787 2.61306 2.00665 2.10831C2.58542 1.60357 3.33886 1.34559 4.10555 1.38965C4.87223 1.43371 5.59116 1.77631 6.10831 2.34403C6.38745 2.62228 6.72123 2.83973 7.08859 2.98253C7.45596 3.12534 7.84893 3.1904 8.24272 3.17373C9.48992 3.21947 10.7075 2.78731 11.6468 1.9655C11.908 1.67708 12.2239 1.44349 12.5762 1.2782C12.9285 1.11292 13.3101 1.01921 13.6988 1.00266C14.0876 0.986104 14.4758 1.04702 14.8408 1.18176C15.2059 1.3165 15.5405 1.52244 15.8253 1.78761C16.11 2.05278 16.3393 2.3719 16.4997 2.72642C16.6601 3.08094 16.7484 3.46376 16.7596 3.85272C16.7708 4.24168 16.7046 4.62902 16.5648 4.99217C16.425 5.35531 16.2144 5.68707 15.9454 5.96815C13.9102 7.96168 11.1681 9.06783 8.31935 9.04458Z" fill="black" stroke="white" stroke-width="1.5" stroke-linecap="round" stroke-linejoin="round"/>
<path d="M13.6203 7.30498C15.346 7.30498 16.7449 5.90602 16.7449 4.18032C16.7449 2.45462 15.346 1.05566 13.6203 1.05566C11.8946 1.05566 10.4956 2.45462 10.4956 4.18032C10.4956 5.90602 11.8946 7.30498 13.6203 7.30498Z" fill="white"/>
<path d="M33.4722 9.04448H33.3011C32.0836 9.0559 30.8776 8.80851 29.7629 8.3188C28.6482 7.8291 27.6502 7.10823 26.8351 6.20385C26.343 5.6143 26.1014 4.85542 26.162 4.08987C26.2226 3.32432 26.5807 2.61296 27.1595 2.10822C27.7383 1.60348 28.4917 1.3455 29.2584 1.38956C30.0251 1.43361 30.744 1.77622 31.2611 2.34393C31.5403 2.62219 31.8741 2.83964 32.2414 2.98244C32.6088 3.12525 33.0018 3.1903 33.3956 3.17364C34.6428 3.21938 35.8604 2.78722 36.7996 1.96541C37.0619 1.68082 37.3777 1.45088 37.7291 1.28876C38.0805 1.12663 38.4604 1.03553 38.8471 1.02071C39.2338 1.00589 39.6196 1.06763 39.9824 1.20239C40.3452 1.33715 40.6777 1.54229 40.9609 1.80598C41.2442 2.06967 41.4725 2.3867 41.6328 2.73891C41.7931 3.09112 41.8822 3.47159 41.895 3.85836C41.9079 4.24512 41.8441 4.63059 41.7075 4.99264C41.5708 5.35469 41.364 5.6862 41.0989 5.96806C39.0633 7.9615 36.3212 9.06763 33.4722 9.04448Z" fill="black" stroke="white" stroke-width="1.5" stroke-linecap="round" stroke-linejoin="round"/>
<path d="M39.0412 7.30547C40.7669 7.30547 42.1658 5.90651 42.1658 4.18081C42.1658 2.45511 40.7669 1.05615 39.0412 1.05615C37.3155 1.05615 35.9165 2.45511 35.9165 4.18081C35.9165 5.90651 37.3155 7.30547 39.0412 7.30547Z" fill="white"/>
</svg>
