<svg width="59" height="13" viewBox="0 0 59 13" fill="none" xmlns="http://www.w3.org/2000/svg">
<path d="M14.5219 12.1954H7.38064C6.38474 12.2156 5.39738 12.0134 4.49474 11.6046C3.48181 11.1645 2.61692 10.4566 1.99893 9.5621C1.38094 8.66758 1.03478 7.62246 1 6.54607C1.0205 5.57751 1.30209 4.63098 1.81675 3.80085C2.3314 2.97071 3.06116 2.28589 3.93338 1.81449C4.95754 1.25764 6.11663 0.976913 7.29034 1.00149H14.7248C15.8982 0.976898 17.057 1.25763 18.0808 1.81449C18.9533 2.2857 19.6833 2.97047 20.1981 3.80063C20.713 4.63079 20.9946 5.5774 21.0151 6.54607C21.0043 7.31866 20.8251 8.08027 20.4893 8.78086C20.1535 9.48145 19.6686 10.1052 19.0667 10.611C17.8049 11.6649 16.1863 12.2292 14.5219 12.1954Z" fill="black" stroke="white" stroke-width="1.5" stroke-linecap="round" stroke-linejoin="round"/>
<path d="M15.5598 12.1455C18.7212 12.1455 21.2841 9.65873 21.2841 6.59108C21.2841 3.52344 18.7212 1.03662 15.5598 1.03662C12.3983 1.03662 9.83545 3.52344 9.83545 6.59108C9.83545 9.65873 12.3983 12.1455 15.5598 12.1455Z" fill="white"/>
<path d="M51.6458 12.1954H44.5046C43.5087 12.2158 42.5213 12.0136 41.6187 11.6046C40.6057 11.1645 39.7407 10.4567 39.1225 9.56223C38.5044 8.66771 38.158 7.62255 38.123 6.54608C38.1437 5.57745 38.4255 4.63099 38.9403 3.80086C39.4551 2.97073 40.185 2.28586 41.0574 1.8145C42.0798 1.25843 43.2369 0.977721 44.4087 1.0015H51.8432C53.0169 0.976794 54.1761 1.25753 55.2002 1.8145C56.0724 2.2859 56.8021 2.97073 57.3168 3.80086C57.8314 4.631 58.113 5.57752 58.1335 6.54608C58.1226 7.31857 57.9435 8.08009 57.6079 8.78065C57.2722 9.48121 56.7877 10.105 56.186 10.611C54.9254 11.6637 53.3087 12.2279 51.6458 12.1954Z" fill="black" stroke="white" stroke-width="1.5" stroke-linecap="round" stroke-linejoin="round"/>
<path d="M52.6838 12.1455C55.8453 12.1455 58.4081 9.65873 58.4081 6.59108C58.4081 3.52344 55.8453 1.03662 52.6838 1.03662C49.5223 1.03662 46.9595 3.52344 46.9595 6.59108C46.9595 9.65873 49.5223 12.1455 52.6838 12.1455Z" fill="white"/>
</svg>
