<svg width="39" height="16" viewBox="0 0 39 16" fill="none" xmlns="http://www.w3.org/2000/svg">
<path d="M7.66549 14.331C11.3467 14.331 14.331 11.3467 14.331 7.66549C14.331 3.98424 11.3467 1 7.66549 1C3.98424 1 1 3.98424 1 7.66549C1 11.3467 3.98424 14.331 7.66549 14.331Z" fill="black" stroke="white" stroke-width="1.5" stroke-linecap="round" stroke-linejoin="round"/>
<path d="M9.21072 9.85943C11.4815 9.85943 13.3223 8.0186 13.3223 5.74783C13.3223 3.47706 11.4815 1.63623 9.21072 1.63623C6.93995 1.63623 5.09912 3.47706 5.09912 5.74783C5.09912 8.0186 6.93995 9.85943 9.21072 9.85943Z" fill="white"/>
<path d="M31.063 14.331C34.7442 14.331 37.7285 11.3467 37.7285 7.66549C37.7285 3.98424 34.7442 1 31.063 1C27.3817 1 24.3975 3.98424 24.3975 7.66549C24.3975 11.3467 27.3817 14.331 31.063 14.331Z" fill="black" stroke="white" stroke-width="1.5" stroke-linecap="round" stroke-linejoin="round"/>
<path d="M32.6092 9.85943C34.8799 9.85943 36.7208 8.0186 36.7208 5.74783C36.7208 3.47706 34.8799 1.63623 32.6092 1.63623C30.3384 1.63623 28.4976 3.47706 28.4976 5.74783C28.4976 8.0186 30.3384 9.85943 32.6092 9.85943Z" fill="white"/>
</svg>
