<svg width="38" height="19" viewBox="0 0 38 19" fill="none" xmlns="http://www.w3.org/2000/svg">
<path d="M10.3933 6.60909V12.5337C10.41 13.3597 10.2407 14.1786 9.89834 14.9274C9.52897 15.7682 8.93499 16.486 8.18433 16.9988C7.43367 17.5116 6.55663 17.7987 5.65349 17.8272C4.84074 17.8108 4.04639 17.5775 3.34965 17.1505C2.6529 16.7235 2.07808 16.1178 1.6825 15.3937C1.2158 14.5441 0.980592 13.5826 1.00127 12.6091V6.44087C0.980492 5.4673 1.21571 4.5058 1.6825 3.65622C2.07798 2.93204 2.65277 2.32617 3.34954 1.89918C4.04631 1.47218 4.84071 1.23892 5.65349 1.22266C6.30145 1.2316 6.94022 1.38026 7.52785 1.65879C8.11548 1.93731 8.63867 2.33943 9.06306 2.83876C9.94721 3.88533 10.421 5.22807 10.3933 6.60909Z" fill="black" stroke="white" stroke-width="1.5" stroke-linecap="round" stroke-linejoin="round"/>
<path d="M5.69334 10.4981C8.26572 10.4981 10.351 8.37186 10.351 5.74904C10.351 3.12622 8.26572 1 5.69334 1C3.12097 1 1.03564 3.12622 1.03564 5.74904C1.03564 8.37186 3.12097 10.4981 5.69334 10.4981Z" fill="white"/>
<path d="M36.6374 6.60909V12.5337C36.6544 13.3597 36.485 14.1787 36.1424 14.9274C35.7734 15.7678 35.18 16.4854 34.43 16.9982C33.68 17.511 32.8035 17.7983 31.9009 17.8272C31.0882 17.8108 30.2938 17.5775 29.5971 17.1505C28.9003 16.7235 28.3255 16.1178 27.9299 15.3937C27.4621 14.5444 27.2257 13.583 27.2453 12.6091V6.44087C27.2256 5.46698 27.462 4.50546 27.9299 3.65622C28.3254 2.93204 28.9002 2.32617 29.597 1.89918C30.2937 1.47218 31.0881 1.23892 31.9009 1.22266C32.5488 1.23152 33.1875 1.38017 33.775 1.6587C34.3626 1.93723 34.8856 2.33938 35.3098 2.83876C36.1933 3.88557 36.6661 5.22838 36.6374 6.60909Z" fill="black" stroke="white" stroke-width="1.5" stroke-linecap="round" stroke-linejoin="round"/>
<path d="M31.938 10.4981C34.5103 10.4981 36.5957 8.37186 36.5957 5.74904C36.5957 3.12622 34.5103 1 31.938 1C29.3656 1 27.2803 3.12622 27.2803 5.74904C27.2803 8.37186 29.3656 10.4981 31.938 10.4981Z" fill="white"/>
</svg>
