<svg width="39" height="13" viewBox="0 0 39 13" fill="none" xmlns="http://www.w3.org/2000/svg">
<path d="M14.5883 5.34051C14.5971 6.23834 14.428 7.12902 14.0905 7.96107C13.753 8.79312 13.254 9.55001 12.6222 10.188C11.9905 10.826 11.2385 11.3325 10.4098 11.6782C9.58117 12.0238 8.69219 12.2019 7.79431 12.2019C6.89643 12.2019 6.00746 12.0238 5.17878 11.6782C4.35009 11.3325 3.59814 10.826 2.96638 10.188C2.33462 9.55001 1.83559 8.79312 1.49813 7.96107C1.16067 7.12902 0.991477 6.23834 1.00033 5.34051C1.00033 1.58827 4.04241 1.32471 7.79464 1.32471C11.5469 1.32471 14.5883 1.58827 14.5883 5.34051Z" fill="black" stroke="white" stroke-width="1.5" stroke-linecap="round" stroke-linejoin="round"/>
<path d="M7.65833 9.38307C9.97325 9.38307 11.8499 7.50645 11.8499 5.19153C11.8499 2.87661 9.97325 1 7.65833 1C5.34341 1 3.4668 2.87661 3.4668 5.19153C3.4668 7.50645 5.34341 9.38307 7.65833 9.38307Z" fill="white"/>
<path d="M37.8598 5.34051C37.8686 6.23834 37.6994 7.12902 37.362 7.96107C37.0245 8.79312 36.5255 9.55001 35.8937 10.188C35.262 10.826 34.51 11.3325 33.6813 11.6782C32.8527 12.0238 31.9637 12.2019 31.0658 12.2019C30.1679 12.2019 29.2789 12.0238 28.4503 11.6782C27.6216 11.3325 26.8696 10.826 26.2379 10.188C25.6061 9.55001 25.1071 8.79312 24.7696 7.96107C24.4322 7.12902 24.263 6.23834 24.2718 5.34051C24.2718 1.58827 27.3106 1.32471 31.0655 1.32471C34.8203 1.32471 37.8598 1.58827 37.8598 5.34051Z" fill="black" stroke="white" stroke-width="1.5" stroke-linecap="round" stroke-linejoin="round"/>
<path d="M30.9308 9.38307C33.2457 9.38307 35.1223 7.50645 35.1223 5.19153C35.1223 2.87661 33.2457 1 30.9308 1C28.6159 1 26.7393 2.87661 26.7393 5.19153C26.7393 7.50645 28.6159 9.38307 30.9308 9.38307Z" fill="white"/>
</svg>
