<svg width="106" height="57" viewBox="0 0 106 57" fill="none" xmlns="http://www.w3.org/2000/svg">
<path d="M100.218 52.0964L6.68468 55.6428C5.98377 55.6687 5.28518 55.5476 4.63397 55.2871C3.98276 55.0266 3.39339 54.6326 2.90381 54.1305C2.41424 53.6284 2.03532 53.0292 1.79153 52.3717C1.54774 51.7142 1.44446 51.013 1.48836 50.3131C2.32713 37.4614 7.90148 25.3768 17.134 16.395C26.3664 7.4131 38.6016 2.17172 51.4746 1.68387C64.3476 1.19603 76.9445 5.49635 86.8306 13.7537C96.7167 22.011 103.19 33.639 105 46.3904C105.097 47.0852 105.047 47.7925 104.853 48.4668C104.66 49.1411 104.327 49.7674 103.877 50.3053C103.426 50.8431 102.868 51.2806 102.238 51.5895C101.608 51.8983 100.92 52.0717 100.219 52.0985L100.218 52.0964Z" fill="#76C8FF" stroke="#1D1D1B" stroke-width="1.5" stroke-linecap="round" stroke-linejoin="round"/>
<path d="M53.0993 32.1772C53.15 33.5117 52.6683 34.8116 51.7602 35.7911C50.8521 36.7705 49.5921 37.3491 48.2573 37.3997C46.9224 37.4504 45.6221 36.9688 44.6425 36.0609C43.6628 35.1531 43.084 33.8934 43.0334 32.5589C42.9273 29.7801 45.1745 29.4991 47.954 29.3931C50.7334 29.2871 52.9944 29.3984 53.0993 32.1772Z" fill="white" stroke="#1D1D1B" stroke-width="1.5" stroke-linecap="round" stroke-linejoin="round"/>
<path d="M47.9627 35.3685C49.6787 35.3685 51.0698 33.9777 51.0698 32.262C51.0698 30.5464 49.6787 29.1556 47.9627 29.1556C46.2466 29.1556 44.8555 30.5464 44.8555 32.262C44.8555 33.9777 46.2466 35.3685 47.9627 35.3685Z" fill="#1D1D1B"/>
<path d="M70.3419 31.5231C70.3711 32.1864 70.2688 32.8489 70.041 33.4725C69.8131 34.0961 69.4642 34.6686 69.0142 35.1568C68.5642 35.6451 68.0222 36.0397 67.4191 36.3177C66.8161 36.5958 66.164 36.7518 65.5004 36.777C64.8368 36.8021 64.1748 36.6959 63.5524 36.4643C62.93 36.2327 62.3596 35.8804 61.874 35.4276C61.3883 34.9747 60.997 34.4304 60.7226 33.8258C60.4481 33.2213 60.296 32.5684 60.2748 31.9048C60.1688 29.126 62.4159 28.8451 65.1954 28.7401C67.9749 28.6351 70.2358 28.7443 70.3419 31.5231Z" fill="white" stroke="#1D1D1B" stroke-width="1.5" stroke-linecap="round" stroke-linejoin="round"/>
<path d="M65.2048 34.7143C66.9209 34.7143 68.312 33.3235 68.312 31.6079C68.312 29.8922 66.9209 28.5015 65.2048 28.5015C63.4888 28.5015 62.0977 29.8922 62.0977 31.6079C62.0977 33.3235 63.4888 34.7143 65.2048 34.7143Z" fill="#1D1D1B"/>
</svg>
