<svg width="30" height="30" viewBox="0 0 30 30" fill="none" xmlns="http://www.w3.org/2000/svg">
<circle cx="15" cy="15" r="12.5" fill="white"/>
<circle cx="15" cy="15" r="14.25" stroke="black" stroke-width="1.5"/>
<path d="M20.0093 11.4346C20.0093 12.002 19.9272 12.4907 19.7632 12.9009C19.5991 13.311 19.3906 13.6768 19.1377 13.998C18.8848 14.3125 18.6045 14.5996 18.2969 14.8594C17.9961 15.1123 17.709 15.3652 17.4355 15.6182C17.1621 15.8711 16.9194 16.1411 16.7075 16.4282C16.5024 16.7085 16.3657 17.0332 16.2974 17.4023C15.9556 17.3271 15.6206 17.2759 15.2925 17.2485C14.9712 17.2144 14.6465 17.1973 14.3184 17.1973C14.1201 17.1973 13.9185 17.2041 13.7134 17.2178C13.5151 17.2246 13.3169 17.2451 13.1187 17.2793C13.1187 16.8076 13.1699 16.4077 13.2725 16.0796C13.375 15.7515 13.5049 15.4609 13.6621 15.208C13.8193 14.9551 13.9868 14.7192 14.1646 14.5005C14.3491 14.2817 14.52 14.0459 14.6772 13.793C14.8345 13.54 14.9644 13.2529 15.0669 12.9316C15.1694 12.6035 15.2207 12.2036 15.2207 11.7319C15.2207 11.4106 15.1865 11.1304 15.1182 10.8911C15.0498 10.6519 14.9575 10.4502 14.8413 10.2861C14.7319 10.1152 14.6055 9.97852 14.4619 9.87598C14.3252 9.77344 14.1885 9.69482 14.0518 9.64014C13.915 9.57861 13.7852 9.5376 13.6621 9.51709C13.5391 9.49658 13.4365 9.48633 13.3545 9.48633C13.0947 9.48633 12.8965 9.55469 12.7598 9.69141C12.623 9.82129 12.5547 9.95459 12.5547 10.0913C12.5547 10.1665 12.5649 10.2417 12.5854 10.3169C12.606 10.3853 12.6401 10.4468 12.688 10.5015C12.7427 10.5562 12.811 10.6006 12.8931 10.6348C12.9751 10.6689 13.0811 10.686 13.2109 10.686C13.3066 10.6792 13.3955 10.6553 13.4775 10.6143C13.5527 10.5801 13.6279 10.5254 13.7031 10.4502C13.7783 10.3682 13.8364 10.2554 13.8774 10.1118C14.0278 10.3237 14.1406 10.5664 14.2158 10.8398C14.2979 11.1064 14.3389 11.3833 14.3389 11.6704C14.3389 11.9575 14.2979 12.2344 14.2158 12.501C14.1338 12.7676 14.0039 13.0068 13.8262 13.2188C13.6484 13.4307 13.4194 13.6016 13.1392 13.7314C12.8657 13.8545 12.5376 13.916 12.1548 13.916C11.6831 13.916 11.2695 13.8135 10.9141 13.6084C10.5586 13.3965 10.2612 13.1333 10.022 12.8188C9.78955 12.4976 9.61523 12.1489 9.49902 11.7729C9.38281 11.397 9.32471 11.0415 9.32471 10.7065C9.32471 10.3989 9.3623 10.0811 9.4375 9.75293C9.5127 9.41797 9.62891 9.09326 9.78613 8.77881C9.9502 8.45752 10.1587 8.15674 10.4116 7.87646C10.6714 7.58936 10.979 7.33984 11.3345 7.12793C11.6899 6.90918 12.1001 6.73828 12.5649 6.61523C13.0366 6.48535 13.5664 6.42041 14.1543 6.42041C14.6328 6.42041 15.1113 6.46143 15.5898 6.54346C16.0684 6.62549 16.5229 6.75195 16.9536 6.92285C17.3911 7.09375 17.7944 7.3125 18.1636 7.5791C18.5396 7.8457 18.8643 8.16699 19.1377 8.54297C19.4111 8.91211 19.623 9.33936 19.7734 9.82471C19.9307 10.3032 20.0093 10.8398 20.0093 11.4346ZM12.4316 20.1094C12.4316 19.8154 12.4863 19.5386 12.5957 19.2788C12.7119 19.0122 12.8657 18.7798 13.0571 18.5815C13.2554 18.3833 13.4844 18.2295 13.7441 18.1201C14.0107 18.0039 14.2944 17.9458 14.5952 17.9458C14.896 17.9458 15.1763 18.0039 15.436 18.1201C15.7026 18.2295 15.9316 18.3833 16.123 18.5815C16.3213 18.7798 16.4751 19.0122 16.5845 19.2788C16.7007 19.5386 16.7588 19.8154 16.7588 20.1094C16.7588 20.4102 16.7007 20.6938 16.5845 20.9604C16.4751 21.2202 16.3213 21.4492 16.123 21.6475C15.9316 21.8389 15.7026 21.9893 15.436 22.0986C15.1763 22.2148 14.896 22.2729 14.5952 22.2729C14.2944 22.2729 14.0107 22.2148 13.7441 22.0986C13.4844 21.9893 13.2554 21.8389 13.0571 21.6475C12.8657 21.4492 12.7119 21.2202 12.5957 20.9604C12.4863 20.6938 12.4316 20.4102 12.4316 20.1094Z" fill="black"/>
</svg>
