<svg width="280" height="193" viewBox="0 0 280 193" fill="none" xmlns="http://www.w3.org/2000/svg">
<path d="M72.1689 77.9894C71.6014 77.9894 70.9339 77.9026 70.1662 77.8358L67.7897 77.7357C66.8685 77.7357 65.8271 77.689 64.6589 77.689C62.496 77.689 59.9859 77.7824 57.1822 77.9627C54.3785 78.1429 51.301 78.4901 48.0033 78.9907C48.5697 77.7512 48.9886 76.4494 49.2516 75.1122C49.6166 73.4611 49.9348 71.5942 50.2063 69.5114C50.4777 67.4286 50.7003 65.2034 50.8738 62.8358C51.0541 60.486 51.2076 58.1229 51.3211 55.7531C51.4346 53.3832 51.5213 51.0801 51.5748 48.8772C51.6282 46.6742 51.6615 44.6582 51.6949 42.8692C51.7283 41.0801 51.7483 39.5714 51.7483 38.3365V35.94C51.6816 30.3681 51.5303 25.1989 51.2944 20.4326C51.1943 18.4299 51.0808 16.4272 50.9472 14.3778C50.8137 12.3284 50.6468 10.4393 50.4466 8.67023C50.2463 6.9012 50.0193 5.33244 49.779 3.99733C49.6173 2.96484 49.3234 1.95747 48.9045 1C51.6015 1.46729 54.1026 1.78326 56.4079 1.94792C58.7109 2.11481 60.7737 2.20159 62.6095 2.20159C63.8111 2.20159 64.8925 2.2016 65.8605 2.12149C66.8284 2.04138 67.6429 2.01468 68.3104 1.94792C69.1115 1.88116 69.8124 1.80106 70.4132 1.70093C70.1128 3.20293 69.8391 5.09882 69.5921 7.40189C69.3451 9.70496 69.1248 12.2884 68.9246 15.1589C68.7243 18.0294 68.5974 21.1068 68.4973 24.4112C68.3972 27.7156 68.3505 31.0868 68.3505 34.6182C68.3505 38.6235 68.4172 42.6578 68.5507 46.721C68.6842 50.7842 68.9068 54.7205 69.2183 58.5301C69.5209 62.3351 69.9125 65.8955 70.3932 69.211C70.7995 72.1716 71.3926 75.1036 72.1689 77.9894Z" fill="#1C1D1A" stroke="white" stroke-width="2" stroke-linecap="round" stroke-linejoin="round"/>
<path d="M126.121 20.7065C125.706 22.3698 125.396 24.0576 125.193 25.7599C124.944 27.7314 124.721 29.8498 124.525 32.115C124.33 34.3802 124.172 36.7479 124.051 39.2178C123.931 41.6878 123.824 44.0843 123.724 46.4207C123.524 51.9214 123.408 57.7247 123.377 63.8306C123.378 67.1916 123.168 70.5493 122.75 73.8841C122.36 77.0525 121.69 80.1801 120.747 83.2299C119.874 86.0909 118.682 88.845 117.196 91.4408C115.802 93.8873 114.011 96.0846 111.895 97.9428C109.752 99.7921 107.294 101.242 104.639 102.222C101.642 103.295 98.476 103.82 95.2931 103.771C92.4591 103.82 89.6316 103.483 86.8885 102.769C84.7652 102.22 82.7696 101.26 81.014 99.9455C79.5173 98.7955 78.3311 97.2903 77.5628 95.5663C76.7959 93.7975 76.4115 91.8866 76.4346 89.9588C76.409 88.064 76.7678 86.1837 77.4893 84.4314C78.1238 82.8739 79.0583 81.4563 80.2397 80.2592C81.3427 79.1431 82.6504 78.2501 84.0914 77.629C85.4637 77.0257 86.945 76.71 88.4439 76.7012C90.329 76.7077 92.1712 77.2645 93.7443 78.3033C95.5326 79.5248 96.8696 81.3005 97.5494 83.3567C97.3568 83.1951 97.1276 83.0828 96.8819 83.0296C96.6243 82.9814 96.3629 82.9568 96.1008 82.9562C95.7134 82.9618 95.3314 83.0482 94.9793 83.2099C94.5949 83.3756 94.2459 83.6135 93.9513 83.9108C93.6538 84.2086 93.4079 84.5537 93.2237 84.9321C93.0427 85.3163 92.9492 85.7358 92.9499 86.1604C92.9361 86.6045 93.0397 87.0443 93.2503 87.4355C93.4289 87.7616 93.6774 88.0443 93.978 88.2632C94.2634 88.464 94.5855 88.6069 94.9259 88.6838C95.2445 88.7653 95.5717 88.8079 95.9005 88.8106C96.4965 88.7894 97.087 88.6884 97.6562 88.5103C98.4614 88.2519 99.203 87.8265 99.8324 87.2619C100.703 86.4807 101.46 85.582 102.082 84.5917C102.955 83.1802 103.629 81.6549 104.085 80.059C104.742 77.8098 105.211 75.51 105.487 73.1831C105.862 69.962 106.02 66.7192 105.961 63.4769C105.262 65.4652 104.347 67.3703 103.23 69.1577C102.427 70.4314 101.413 71.5599 100.233 72.4955C99.2579 73.2583 98.1314 73.8045 96.9286 74.0977C95.7218 74.371 94.4877 74.5054 93.2503 74.4982C91.5057 74.4821 89.7748 74.1869 88.1235 73.6237C86.2653 72.9962 84.5849 71.9316 83.2236 70.5196C81.5779 68.7805 80.3237 66.7091 79.5454 64.4448C78.4837 61.2879 77.991 57.9675 78.0901 54.6384C78.0901 54.1043 78.0901 53.7305 78.0901 53.5102C78.0901 53.2899 78.0901 53.1297 78.0901 53.0095C78.0919 52.8682 78.1076 52.7273 78.1368 52.589C78.1813 52.2661 78.1992 51.9402 78.1903 51.6144C78.1903 51.127 78.1903 50.4395 78.1903 49.5383C78.1903 48.6371 78.1903 47.3687 78.1903 45.7332C78.1903 43.8329 78.1569 41.6811 78.0901 39.2779C78.0234 36.8814 77.8832 34.5249 77.6695 32.2285C77.4788 30.1188 77.1691 28.0215 76.7417 25.9468C76.498 24.4674 75.9723 23.0487 75.1929 21.7679C77.7185 22.215 80.2652 22.5336 82.8231 22.7225C85.2085 22.8916 87.3847 22.9739 89.3518 22.9695C90.6469 22.9695 91.8284 22.9695 92.8765 22.896C93.9246 22.8226 94.8325 22.7892 95.6002 22.7225C96.468 22.6557 97.2557 22.5689 97.9566 22.4688C97.5531 23.5192 97.26 24.6087 97.0821 25.7198C96.7617 27.3219 96.4524 29.2401 96.1542 31.4742C95.856 33.7083 95.6046 36.156 95.3999 38.8173C95.1996 41.4875 95.0995 44.1578 95.0995 46.828C95.0738 48.5723 95.2259 50.3147 95.5534 52.0282C95.7813 53.2609 96.1954 54.4516 96.7817 55.5596C97.2071 56.3642 97.8238 57.0519 98.5774 57.5623C99.2405 57.9956 100.015 58.2274 100.807 58.2298C101.401 58.2448 101.989 58.1102 102.518 57.8384C103.046 57.5667 103.498 57.1664 103.831 56.6745C104.688 55.5152 105.367 54.2351 105.847 52.876C105.78 50.8066 105.662 48.3878 105.493 45.6197C105.324 42.8516 105.102 39.9588 104.826 36.9415C104.545 33.9375 104.178 30.9089 103.724 27.856C103.312 24.9876 102.753 22.1423 102.049 19.3313C103.26 19.7467 104.498 20.0812 105.754 20.3326C107.241 20.6306 108.743 20.8534 110.253 21.0002C112.332 21.1957 114.42 21.2871 116.508 21.2739C119.72 21.2623 122.93 21.0729 126.121 20.7065Z" fill="#1C1D1A" stroke="white" stroke-width="2" stroke-linecap="round" stroke-linejoin="round"/>
<path d="M172.523 32.7158C172.542 33.9614 172.267 35.194 171.722 36.314C171.2 37.3638 170.466 38.2935 169.565 39.0443C168.631 39.8151 167.563 40.4079 166.415 40.7932C165.192 41.2131 163.909 41.4252 162.616 41.4208C161.284 41.4494 159.956 41.2622 158.684 40.8667C157.695 40.5473 156.766 40.0669 155.934 39.4448C155.228 38.9066 154.626 38.2437 154.158 37.4888C153.752 36.8309 153.41 36.1357 153.137 35.4127C152.902 34.8183 152.74 34.1973 152.656 33.5636C152.598 33.1208 152.565 32.675 152.556 32.2285C152.666 32.4743 152.825 32.6948 153.024 32.8763C153.222 33.0578 153.456 33.1963 153.711 33.2832C154.068 33.3962 154.438 33.4613 154.812 33.4768C155.114 33.5068 155.419 33.4691 155.704 33.3663C155.989 33.2635 156.248 33.0983 156.461 32.8827C156.773 32.5378 156.951 32.0925 156.962 31.6277C156.953 31.3173 156.885 31.0115 156.762 30.7265C156.618 30.3696 156.388 30.0534 156.094 29.8053C155.696 29.4851 155.244 29.2387 154.759 29.0776C154.115 28.8599 153.436 28.7582 152.756 28.7772C152.211 28.7852 151.672 28.8869 151.161 29.0776C150.592 29.2764 150.071 29.5925 149.632 30.0055C149.161 30.4556 148.778 30.9899 148.504 31.581C148.195 32.2453 148.042 32.9714 148.057 33.7038C148.012 35.0637 148.416 36.4006 149.205 37.5089C150.034 38.6002 151.062 39.5244 152.236 40.2325C153.589 41.0761 155.012 41.8041 156.488 42.4087L161.361 44.4849C163.027 45.2038 164.656 46.0058 166.241 46.8881C167.804 47.7586 169.236 48.8465 170.493 50.119C171.776 51.4348 172.802 52.979 173.517 54.6718C174.328 56.6646 174.721 58.8026 174.672 60.9535C174.715 63.8663 174.063 66.7474 172.77 69.358C171.533 71.8249 169.804 74.0126 167.69 75.7866C165.511 77.6055 163.008 78.9962 160.313 79.8854C157.462 80.8467 154.471 81.3295 151.461 81.314C148.734 81.3274 146.019 80.9405 143.404 80.1658C141.016 79.4753 138.76 78.3924 136.728 76.9615C134.9 75.6743 133.359 74.0217 132.202 72.1084C131.098 70.2825 130.518 68.1875 130.527 66.0536C130.495 64.5872 130.767 63.1301 131.328 61.7746C131.826 60.6087 132.587 59.5738 133.551 58.7506C134.532 57.9337 135.667 57.3209 136.889 56.9481C138.243 56.5381 139.652 56.3355 141.067 56.3473C142.178 56.3494 143.286 56.468 144.372 56.7011C145.443 56.923 146.483 57.275 147.469 57.7492C148.409 58.1981 149.285 58.7705 150.073 59.4515C150.824 60.1002 151.451 60.8807 151.922 61.7546C151.667 61.6886 151.408 61.6373 151.148 61.601C150.891 61.5682 150.632 61.5526 150.373 61.5543C149.747 61.518 149.13 61.7235 148.651 62.1284C148.421 62.3796 148.246 62.6764 148.138 62.9995C148.03 63.3227 147.991 63.665 148.023 64.0042C148.02 64.4581 148.122 64.9065 148.321 65.3143C148.52 65.7221 148.811 66.078 149.172 66.354C149.88 66.9663 150.785 67.3049 151.722 67.3086C152.249 67.3149 152.771 67.1959 153.244 66.9615C153.702 66.7357 154.111 66.4202 154.445 66.0336C154.777 65.6577 155.039 65.226 155.22 64.7586C155.405 64.2982 155.501 63.8064 155.5 63.31C155.461 62.3136 155.157 61.3457 154.619 60.5062C154.012 59.4822 153.161 58.6244 152.142 58.0096C150.046 56.6745 148.057 55.5863 146.194 54.6718C144.332 53.7572 142.603 52.8494 141.041 52.0016C139.479 51.1538 138.063 50.3393 136.808 49.5049C135.598 48.7086 134.527 47.7185 133.638 46.5743C132.734 45.3906 132.055 44.051 131.635 42.6224C131.141 40.8228 130.916 38.9603 130.967 37.095C130.944 34.6355 131.464 32.2012 132.489 29.9655C133.513 27.7745 135.008 25.8368 136.869 24.2913C138.94 22.5964 141.317 21.3138 143.871 20.5129C146.903 19.5637 150.067 19.1062 153.244 19.1577C156.302 19.0824 159.352 19.504 162.276 20.4061C164.445 21.0889 166.465 22.1761 168.23 23.6103C169.652 24.7811 170.776 26.2729 171.508 27.9628C172.16 29.4635 172.505 31.0796 172.523 32.7158Z" fill="#1C1D1A" stroke="white" stroke-width="2" stroke-linecap="round" stroke-linejoin="round"/>
<path d="M145.567 165.82C144.935 165.753 144.201 165.687 143.364 165.62C142.663 165.553 141.822 165.506 140.84 165.473C139.859 165.44 138.778 165.42 137.609 165.42C135.941 165.42 134.116 165.486 132.136 165.62C130.081 165.762 128.035 166.014 126.007 166.374L126.201 152.315C124.941 157.282 123.083 161.118 120.627 163.824C118.17 166.53 115.293 167.881 111.995 167.876C110.819 167.861 109.647 167.726 108.497 167.476C107.091 167.177 105.74 166.661 104.492 165.947C103.025 165.111 101.693 164.057 100.54 162.823C99.1233 161.293 97.9645 159.544 97.1088 157.643C96.001 155.181 95.1963 152.594 94.7123 149.939C94.0723 146.398 93.7772 142.803 93.8311 139.205C93.7382 134.356 94.3109 129.518 95.5333 124.825C96.4335 121.34 97.9066 118.028 99.8925 115.026C101.385 112.746 103.387 110.845 105.74 109.472C107.643 108.368 109.796 107.766 111.995 107.723C113.6 107.702 115.196 107.946 116.722 108.444C118.074 108.902 119.356 109.545 120.533 110.353C121.592 111.063 122.55 111.912 123.384 112.876C124.135 113.737 124.791 114.677 125.34 115.68C125.242 114.545 125.091 113.335 124.886 112.048C124.686 110.767 124.452 109.438 124.185 108.043C126.364 108.477 128.569 108.76 130.787 108.891C133.012 109.024 135.082 109.091 136.995 109.091C139.256 109.091 141.09 109.04 142.496 108.938C143.297 108.938 144.031 108.857 144.699 108.791C144.334 110.46 144 112.327 143.698 114.392C143.395 116.456 143.137 118.666 142.923 121.02C142.703 123.377 142.536 125.84 142.423 128.424C142.309 131.007 142.249 133.657 142.249 136.354C142.249 141.392 142.498 146.445 142.997 151.514C143.443 156.348 144.303 161.134 145.567 165.82ZM125.006 137.155V129.044C125.004 128.126 124.953 127.207 124.852 126.294C124.767 125.414 124.542 124.553 124.185 123.744C123.851 122.994 123.323 122.346 122.656 121.868C121.865 121.349 120.931 121.095 119.986 121.141C119.43 121.126 118.876 121.229 118.363 121.444C117.85 121.66 117.388 121.982 117.009 122.389C116.132 123.38 115.482 124.551 115.106 125.82C114.581 127.495 114.245 129.224 114.105 130.974C113.927 132.959 113.836 135.117 113.831 137.449C113.834 138.804 113.925 140.158 114.105 141.501C114.268 142.777 114.579 144.029 115.033 145.233C115.408 146.258 116.005 147.188 116.782 147.956C117.141 148.301 117.564 148.571 118.029 148.751C118.493 148.931 118.988 149.017 119.485 149.004C120.031 149.025 120.574 148.924 121.075 148.708C121.576 148.492 122.023 148.167 122.382 147.756C123.156 146.852 123.727 145.794 124.058 144.652C124.451 143.392 124.712 142.094 124.839 140.78C124.939 139.432 125.006 138.223 125.006 137.155Z" fill="#1C1D1A" stroke="white" stroke-width="2" stroke-linecap="round" stroke-linejoin="round"/>
<path d="M150.093 165.82C150.759 163.26 151.276 160.663 151.642 158.043C152.087 155.092 152.436 151.924 152.69 148.537C152.943 145.15 153.137 141.623 153.27 137.956C153.384 134.291 153.444 130.613 153.444 126.901C153.444 122.896 153.377 118.969 153.244 115.119C153.11 111.269 152.934 107.66 152.716 104.291C152.503 100.922 152.245 97.8938 151.942 95.2057C151.639 92.5177 151.323 90.3415 150.994 88.677C151.595 88.7772 152.296 88.8639 153.09 88.9307C153.758 88.9974 154.572 89.0575 155.52 89.1042C156.468 89.151 157.563 89.1777 158.798 89.1777C160.636 89.1777 162.712 89.0953 165.026 88.9307C167.533 88.7384 170.028 88.4198 172.503 87.9761C172.124 88.8675 171.849 89.7993 171.682 90.7531C171.428 91.977 171.205 93.3877 171.014 94.9854C170.823 96.5831 170.656 98.3166 170.513 100.186C170.38 102.055 170.264 103.931 170.166 105.813C170.066 107.696 169.979 109.552 169.919 111.367C169.859 113.183 169.799 114.845 169.766 116.347C170.965 113.589 172.852 111.185 175.246 109.365C177.529 107.682 180.422 106.841 183.925 106.841C184.914 106.872 185.895 107.023 186.849 107.288C188.173 107.651 189.437 108.207 190.6 108.937C192.056 109.851 193.385 110.953 194.552 112.215C196.005 113.801 197.203 115.603 198.104 117.556C199.254 120.017 200.106 122.608 200.64 125.272C201.335 128.774 201.661 132.338 201.615 135.907C201.615 141.91 201.014 146.937 199.812 150.987C198.877 154.486 197.326 157.79 195.233 160.746C193.645 162.975 191.534 164.779 189.085 166C187.05 166.997 184.821 167.535 182.556 167.576C180.991 167.558 179.462 167.095 178.15 166.24C176.709 165.342 175.424 164.215 174.345 162.903C173.174 161.468 172.177 159.899 171.375 158.23C170.543 156.554 169.896 154.792 169.445 152.976C169.545 153.677 169.686 154.698 169.873 156.054C170.059 157.409 170.246 158.791 170.447 160.206C170.647 161.621 170.854 162.916 171.074 164.084C171.173 164.86 171.382 165.617 171.695 166.334C169.586 165.964 167.457 165.713 165.32 165.58C163.17 165.446 161.154 165.379 159.312 165.379C157.943 165.379 156.708 165.379 155.607 165.433C154.505 165.486 153.537 165.513 152.703 165.58C151.728 165.686 150.861 165.76 150.093 165.82ZM170.453 136.955V139.905C170.453 140.826 170.502 141.747 170.6 142.662C170.683 143.543 170.908 144.404 171.268 145.212C171.609 145.955 172.138 146.594 172.803 147.068C173.606 147.587 174.552 147.84 175.507 147.789C176.255 147.807 176.984 147.551 177.556 147.068C178.15 146.548 178.627 145.909 178.958 145.192C179.351 144.35 179.653 143.469 179.859 142.562C180.09 141.6 180.257 140.623 180.36 139.638C180.458 138.673 180.525 137.738 180.56 136.835C180.594 135.933 180.607 135.186 180.607 134.585C180.607 133.684 180.567 132.469 180.487 130.933C180.402 129.413 180.208 127.9 179.906 126.407C179.658 125.058 179.193 123.757 178.531 122.556C178.308 122.073 177.952 121.663 177.506 121.375C177.059 121.086 176.539 120.931 176.007 120.927C175.618 120.924 175.231 121.002 174.874 121.157C174.516 121.313 174.195 121.541 173.931 121.828C173.294 122.505 172.785 123.292 172.429 124.151C171.988 125.182 171.652 126.256 171.428 127.355C171.179 128.544 170.978 129.727 170.827 130.907C170.68 132.095 170.58 133.216 170.527 134.285C170.473 135.353 170.453 136.254 170.453 136.955Z" fill="#1C1D1A" stroke="white" stroke-width="2" stroke-linecap="round" stroke-linejoin="round"/>
<path d="M230.213 164.918C229.646 164.918 228.978 164.838 228.21 164.772L225.834 164.672C224.913 164.672 223.871 164.625 222.71 164.625C220.54 164.625 218.037 164.712 215.226 164.898C212.416 165.085 209.352 165.419 206.047 165.92C206.614 164.683 207.033 163.383 207.296 162.048C207.663 160.392 207.963 158.53 208.25 156.441C208.537 154.351 208.738 152.141 208.918 149.765C209.098 147.388 209.252 145.059 209.365 142.689C209.479 140.319 209.566 138.016 209.619 135.813C209.672 133.61 209.706 131.594 209.746 129.805C209.786 128.016 209.792 126.514 209.792 125.279V122.876C209.726 117.308 209.577 112.139 209.345 107.368C209.243 105.366 209.125 103.347 208.991 101.314C208.858 99.2798 208.691 97.3795 208.491 95.6127C208.29 93.8325 208.068 92.2749 207.823 90.9398C207.665 89.9043 207.371 88.8942 206.949 87.9358C209.65 88.3808 212.151 88.699 214.452 88.8904C216.755 89.0573 218.818 89.1374 220.654 89.1374C221.855 89.1374 222.937 89.1374 223.905 89.064C224.873 88.9905 225.694 88.9571 226.361 88.8904C227.156 88.8236 227.857 88.7369 228.457 88.6367C228.155 90.1409 227.881 92.0435 227.636 94.3444C227.383 96.6408 227.169 99.2309 226.969 102.095C226.768 104.959 226.648 108.049 226.548 111.354C226.448 114.658 226.395 118.029 226.395 121.554C226.395 125.559 226.461 129.596 226.595 133.663C226.728 137.731 226.951 141.667 227.262 145.473C227.561 149.273 227.954 152.833 228.444 156.153C228.845 159.11 229.436 162.038 230.213 164.918Z" fill="#1C1D1A" stroke="white" stroke-width="2" stroke-linecap="round" stroke-linejoin="round"/>
<path d="M278.164 118.597C278.166 121.071 277.804 123.532 277.089 125.9C276.364 128.278 275.067 130.442 273.311 132.202C271.245 134.199 268.755 135.705 266.027 136.608C262.979 137.711 259.103 138.261 254.399 138.257C254.476 139.678 254.825 141.072 255.427 142.362C255.911 143.376 256.592 144.283 257.429 145.032C258.15 145.674 258.98 146.183 259.879 146.534C260.655 146.841 261.457 147.076 262.276 147.235C263.136 147.379 264.007 147.446 264.879 147.435C266.812 147.241 268.694 146.698 270.433 145.833C271.16 145.482 271.847 145.055 272.483 144.558C273.169 144.02 273.783 143.396 274.312 142.702C274.875 141.956 275.325 141.13 275.647 140.252C276.021 139.233 276.232 138.16 276.274 137.075C277.08 139.037 277.691 141.074 278.097 143.156C278.435 144.894 278.612 146.66 278.624 148.43C278.656 151.273 278.104 154.093 277.002 156.714C275.96 159.168 274.437 161.388 272.523 163.243C270.57 165.106 268.264 166.558 265.74 167.516C263.02 168.555 260.128 169.073 257.216 169.044C254.254 169.052 251.314 168.527 248.537 167.495C245.723 166.442 243.19 164.754 241.134 162.562C238.806 160.022 237.042 157.016 235.961 153.744C234.666 150.161 234.018 145.8 234.018 140.66C233.93 135.621 234.742 130.607 236.415 125.853C237.842 121.854 240.042 118.175 242.89 115.026C245.498 112.164 248.683 109.889 252.236 108.35C255.769 106.838 259.574 106.063 263.417 106.074C265.298 106.072 267.171 106.296 268.998 106.741C270.684 107.137 272.273 107.868 273.671 108.891C275.039 109.91 276.146 111.239 276.902 112.769C277.775 114.585 278.208 116.582 278.164 118.597ZM254.198 130.006C255.301 129.943 256.393 129.748 257.449 129.425C258.674 129.081 259.852 128.585 260.954 127.949C262.018 127.346 262.96 126.549 263.731 125.6C264.468 124.696 264.865 123.562 264.853 122.395C264.865 122.047 264.8 121.7 264.662 121.38C264.523 121.06 264.315 120.775 264.051 120.546C263.475 120.077 262.744 119.839 262.002 119.879C260.88 119.864 259.783 120.216 258.878 120.88C257.945 121.562 257.146 122.411 256.521 123.383C255.86 124.412 255.331 125.52 254.946 126.681C254.574 127.758 254.323 128.873 254.198 130.006Z" fill="#1C1D1A" stroke="white" stroke-width="2" stroke-linecap="round" stroke-linejoin="round"/>
<path d="M210.874 21.3939C210.836 23.1982 210.521 24.9859 209.939 26.6943C209.306 28.6715 208.527 30.5993 207.61 32.462C206.712 34.3069 205.672 36.0791 204.499 37.7624C203.539 39.172 202.436 40.4785 201.208 41.6609L189.379 40.259C190.626 39.2832 191.777 38.1901 192.816 36.9947C193.865 35.7953 194.837 34.5311 195.727 33.2096C194.348 33.1093 193.007 32.7131 191.795 32.0481C190.622 31.3956 189.585 30.5256 188.738 29.4847C187.855 28.4007 187.177 27.1658 186.735 25.8398C186.27 24.4023 186.044 22.898 186.068 21.3872C186.087 19.9933 186.312 18.61 186.735 17.2817C187.168 15.8512 187.87 14.5166 188.804 13.3498C189.831 12.0814 191.135 11.0652 192.616 10.3792C194.465 9.5479 196.478 9.1484 198.504 9.21095C200.375 9.17557 202.237 9.47164 204.005 10.0854C205.471 10.5976 206.797 11.4458 207.877 12.5621C208.906 13.6634 209.682 14.9755 210.153 16.4072C210.662 18.0194 210.905 19.7036 210.874 21.3939Z" fill="white" stroke="#1C1D1A" stroke-width="3" stroke-linejoin="round"/>
<path d="M11.5547 190.333L10.0994 188.771C9.14478 189.291 8.06897 189.549 6.98194 189.518C5.78174 189.535 4.60926 189.157 3.64416 188.444C2.90097 187.915 2.29827 187.214 1.88868 186.399C1.4791 185.584 1.27506 184.682 1.29434 183.771C1.29429 183.011 1.44673 182.259 1.74257 181.56C2.03842 180.86 2.47167 180.227 3.01665 179.699C4.12223 178.618 5.60976 178.018 7.15547 178.03C8.65112 178.005 10.101 178.546 11.2142 179.545C11.8046 180.08 12.2742 180.735 12.5919 181.466C12.9096 182.197 13.068 182.987 13.0567 183.784C13.0818 184.598 12.9176 185.407 12.5771 186.148C12.2365 186.888 11.7289 187.539 11.0941 188.05L13.1835 190.306L11.5547 190.333ZM10.1728 187.108C10.6467 186.713 11.0245 186.214 11.2778 185.651C11.531 185.088 11.6531 184.475 11.6348 183.857C11.6491 183.018 11.437 182.19 11.0207 181.461C10.6241 180.794 10.0583 180.244 9.38073 179.867C8.70311 179.489 7.93771 179.298 7.16215 179.311C6.57137 179.312 5.98662 179.43 5.44213 179.659C4.89764 179.888 4.40436 180.224 3.99126 180.646C3.56842 181.061 3.23251 181.555 3.00325 182.101C2.77398 182.646 2.65598 183.232 2.65614 183.824C2.6359 184.548 2.7969 185.265 3.1245 185.911C3.4521 186.557 3.93592 187.111 4.53198 187.522C5.26042 188.041 6.13468 188.314 7.02863 188.303C7.76708 188.325 8.49861 188.155 9.1515 187.809L6.90848 185.386H8.51731L10.1728 187.108Z" fill="white"/>
<path d="M16.3945 185.787C16.3945 187.602 16.8084 188.457 18.3104 188.457C19.8124 188.457 20.2129 187.616 20.2129 185.787V182.449H21.4145V186.454C21.4145 188.524 20.3398 189.598 18.2837 189.598C16.2276 189.598 15.1662 188.524 15.1662 186.454V182.449H16.3945V185.787Z" fill="white"/>
<path d="M24.5787 178.25C24.8095 178.253 25.0295 178.348 25.1908 178.513C25.3521 178.678 25.4416 178.9 25.4399 179.131C25.439 179.243 25.416 179.353 25.3721 179.456C25.3283 179.559 25.2645 179.653 25.1845 179.731C25.1044 179.809 25.0097 179.871 24.9057 179.912C24.8017 179.953 24.6906 179.974 24.5787 179.972C24.4668 179.971 24.3562 179.948 24.2532 179.904C24.1502 179.86 24.057 179.797 23.9788 179.717C23.9006 179.637 23.839 179.542 23.7976 179.438C23.7562 179.334 23.7358 179.223 23.7376 179.111C23.7375 178.886 23.8255 178.67 23.9827 178.509C24.1399 178.348 24.3538 178.255 24.5787 178.25ZM23.9913 182.415H25.1795V189.271H23.9913V182.415Z" fill="white"/>
<path d="M32.9432 187.449C33.0951 187.784 33.3431 188.066 33.6557 188.26C33.9683 188.453 34.3314 188.55 34.6989 188.537C35.4799 188.537 35.9873 188.11 35.9873 187.509C35.9873 186.908 35.6335 186.708 34.9125 186.467C33.2236 185.88 32.2423 185.593 32.2423 184.238C32.2423 183.043 33.2103 182.168 34.6655 182.168C35.16 182.118 35.6583 182.218 36.0946 182.456C36.5308 182.695 36.8845 183.06 37.1088 183.503L36.1542 184.091C36.0251 183.787 35.8062 183.531 35.527 183.355C35.2477 183.18 34.9215 183.094 34.5921 183.11C34.4466 183.094 34.2994 183.109 34.1598 183.153C34.0203 183.197 33.8915 183.27 33.7816 183.366C33.6717 183.463 33.5832 183.582 33.5216 183.714C33.46 183.847 33.4267 183.991 33.4239 184.138C33.4239 184.859 34.0514 184.952 35.1862 185.319C36.5214 185.746 37.1889 186.24 37.1889 187.362C37.1889 188.63 36.2076 189.538 34.6922 189.538C34.1506 189.584 33.6074 189.472 33.1278 189.216C32.6483 188.96 32.2527 188.571 31.9886 188.096L32.9432 187.449Z" fill="white"/>
<path d="M39.8525 186.02V186.127C39.8244 186.441 39.8626 186.758 39.9647 187.057C40.0667 187.356 40.2303 187.63 40.4449 187.861C40.6594 188.093 40.9201 188.277 41.2102 188.401C41.5003 188.526 41.8132 188.588 42.1288 188.584C42.602 188.57 43.0618 188.424 43.4552 188.16C43.8485 187.897 44.1594 187.528 44.3518 187.095L45.2397 187.696C44.9441 188.279 44.4876 188.764 43.9245 189.096C43.3613 189.427 42.715 189.59 42.0621 189.565C39.9793 189.565 38.5641 188.063 38.5641 185.82C38.5641 183.577 39.9927 182.148 41.9887 182.148C43.9847 182.148 45.2864 183.517 45.2864 185.787V186.02H39.8525ZM41.9419 183.183C41.4161 183.159 40.9022 183.344 40.5111 183.696C40.1201 184.048 39.8835 184.54 39.8525 185.066H44.0314C44.0319 184.8 43.9766 184.538 43.869 184.295C43.7614 184.053 43.6038 183.836 43.4067 183.658C43.2096 183.481 42.9773 183.346 42.7249 183.265C42.4725 183.183 42.2057 183.155 41.9419 183.183Z" fill="white"/>
<path d="M47.3157 182.449H48.3571V183.871C48.9713 182.709 49.6188 182.215 50.6602 182.215C50.9334 182.215 51.2046 182.262 51.4613 182.356L51.0607 183.41C50.8289 183.328 50.5856 183.283 50.3397 183.277C49.0981 183.277 48.484 184.165 48.484 185.947V189.285H47.3157V182.449Z" fill="white"/>
<path d="M59.3184 189.271H58.1836V188.029C57.9555 188.493 57.6016 188.882 57.1625 189.154C56.7233 189.425 56.2166 189.568 55.7003 189.565C53.6976 189.565 52.4159 188.11 52.4159 185.867C52.4159 183.624 53.7176 182.168 55.6402 182.168C56.1641 182.149 56.6821 182.284 57.1296 182.557C57.5772 182.83 57.9344 183.229 58.1569 183.704V182.449H59.3184V189.271ZM55.9005 183.337C54.4853 183.337 53.6575 184.238 53.6575 185.807C53.6575 187.375 54.4853 188.397 55.9473 188.397C57.4092 188.397 58.1836 187.495 58.1836 185.913C58.1836 184.331 57.2156 183.337 55.9005 183.337Z" fill="white"/>
<path d="M71.9552 189.011C71.2515 189.4 70.4558 189.591 69.6522 189.565C67.5227 189.565 66.1275 188.076 66.1275 185.913C66.094 185.428 66.1621 184.94 66.3274 184.482C66.4927 184.024 66.7516 183.606 67.0876 183.253C67.4236 182.901 67.8293 182.623 68.2789 182.436C68.7285 182.249 69.2121 182.158 69.6989 182.168C70.4376 182.163 71.1679 182.325 71.8351 182.642V183.904C71.2749 183.519 70.6124 183.309 69.9326 183.303C69.5828 183.286 69.2335 183.345 68.9084 183.475C68.5832 183.605 68.2898 183.803 68.048 184.056C67.8061 184.309 67.6216 184.612 67.5068 184.942C67.3919 185.273 67.3496 185.625 67.3825 185.973C67.3735 186.3 67.4306 186.625 67.5504 186.929C67.6702 187.233 67.8503 187.51 68.0798 187.742C68.3093 187.975 68.5834 188.159 68.8858 188.283C69.1881 188.406 69.5124 188.468 69.8391 188.463C70.611 188.442 71.3545 188.167 71.9552 187.682V189.011Z" fill="white" stroke="white" stroke-width="0.5" stroke-miterlimit="10"/>
<path d="M80.2196 189.271H79.0848V188.029C78.8556 188.493 78.5005 188.883 78.0602 189.155C77.6199 189.426 77.1121 189.568 76.5948 189.565C74.6322 189.565 73.3104 188.11 73.3104 185.867C73.3104 183.624 74.6456 182.168 76.5347 182.168C77.0586 182.149 77.5766 182.284 78.0242 182.557C78.4717 182.83 78.829 183.229 79.0514 183.704V182.449H80.2196V189.271ZM76.7951 183.337C75.3798 183.337 74.5521 184.238 74.5521 185.807C74.5521 187.375 75.3798 188.397 76.8418 188.397C78.3037 188.397 79.0848 187.495 79.0848 185.913C79.0848 184.331 78.1168 183.337 76.7951 183.337Z" fill="white" stroke="white" stroke-width="0.5" stroke-miterlimit="10"/>
<path d="M82.8164 182.449H83.9312V183.737C84.1627 183.272 84.5201 182.882 84.9627 182.61C85.4053 182.339 85.9153 182.197 86.4346 182.202C88.4372 182.202 89.719 183.644 89.719 185.9C89.719 188.156 88.3838 189.598 86.4813 189.598C85.9596 189.615 85.4445 189.479 84.9996 189.206C84.5547 188.933 84.1995 188.535 83.9779 188.063V192.656H82.8164V182.449ZM86.2677 188.457C87.6362 188.457 88.4773 187.562 88.4773 186.047C88.4773 184.325 87.6162 183.343 86.2543 183.343C84.8925 183.343 83.9513 184.278 83.9513 185.907C83.9513 187.536 84.8858 188.417 86.2677 188.417V188.457Z" fill="white" stroke="white" stroke-width="0.5" stroke-miterlimit="10"/>
<path d="M98.2236 189.271H97.0887V188.029C96.8613 188.493 96.5076 188.883 96.0683 189.155C95.629 189.427 95.1219 189.569 94.6054 189.565C92.6361 189.565 91.321 188.11 91.321 185.867C91.321 183.624 92.6562 182.168 94.5454 182.168C95.0692 182.149 95.5872 182.284 96.0348 182.557C96.4823 182.83 96.8396 183.229 97.0621 183.704V182.449H98.2236V189.271ZM94.8057 183.337C93.3905 183.337 92.5627 184.238 92.5627 185.807C92.5627 187.375 93.3905 188.397 94.8524 188.397C96.3144 188.397 97.0887 187.495 97.0887 185.913C97.0887 184.331 96.1208 183.337 94.8057 183.337Z" fill="white" stroke="white" stroke-width="0.5" stroke-miterlimit="10"/>
<path d="M101.989 177.656V183.704C102.21 183.231 102.565 182.834 103.01 182.561C103.455 182.288 103.97 182.152 104.492 182.168C106.408 182.168 107.73 183.564 107.73 185.867C107.73 188.17 106.395 189.565 104.445 189.565C103.927 189.566 103.418 189.423 102.976 189.152C102.534 188.881 102.176 188.492 101.942 188.03V189.271H100.82V177.656H101.989ZM104.245 188.457C105.58 188.457 106.488 187.476 106.488 185.753C106.488 184.238 105.64 183.363 104.278 183.363C102.917 183.363 101.942 184.358 101.942 185.907C101.942 187.455 102.836 188.457 104.245 188.457Z" fill="white" stroke="white" stroke-width="0.5" stroke-miterlimit="10"/>
<path d="M109.913 177.656H111.108V189.271H109.913V177.656Z" fill="white" stroke="white" stroke-width="0.5" stroke-miterlimit="10"/>
<path d="M114.525 186.02V186.127C114.496 186.441 114.534 186.758 114.635 187.056C114.736 187.355 114.899 187.629 115.113 187.861C115.327 188.092 115.587 188.276 115.877 188.401C116.167 188.526 116.48 188.588 116.795 188.584C117.262 188.569 117.715 188.424 118.105 188.166C118.494 187.908 118.803 187.546 118.998 187.122L119.893 187.722C119.596 188.304 119.139 188.789 118.576 189.12C118.013 189.451 117.368 189.615 116.715 189.592C114.626 189.592 113.217 188.09 113.217 185.847C113.217 183.604 114.639 182.175 116.635 182.175C118.631 182.175 119.939 183.544 119.939 185.813V186.047L114.525 186.02ZM116.608 183.183C116.084 183.161 115.571 183.346 115.182 183.698C114.792 184.05 114.556 184.541 114.525 185.066H118.698C118.7 184.798 118.644 184.533 118.536 184.289C118.428 184.044 118.268 183.825 118.069 183.647C117.869 183.469 117.634 183.336 117.378 183.256C117.123 183.176 116.854 183.151 116.588 183.183H116.608Z" fill="white" stroke="white" stroke-width="0.5" stroke-miterlimit="10"/>
<path d="M133.11 189.271H131.975V188.03C131.744 188.492 131.389 188.88 130.949 189.152C130.509 189.423 130.002 189.566 129.485 189.565C127.523 189.565 126.201 188.11 126.201 185.867C126.201 183.624 127.536 182.168 129.439 182.168C129.96 182.152 130.475 182.288 130.92 182.561C131.365 182.834 131.72 183.231 131.942 183.704V177.656H133.11V189.271ZM129.659 183.337C128.29 183.337 127.449 184.211 127.449 185.727C127.449 187.449 128.304 188.43 129.672 188.43C131.041 188.43 131.975 187.509 131.975 185.88C131.975 184.251 131.041 183.337 129.659 183.337Z" fill="white"/>
<path d="M136.441 186.02V186.127C136.413 186.441 136.451 186.758 136.554 187.057C136.656 187.356 136.819 187.63 137.034 187.861C137.248 188.093 137.509 188.277 137.799 188.401C138.089 188.526 138.402 188.588 138.718 188.584C139.191 188.57 139.651 188.424 140.044 188.16C140.437 187.897 140.748 187.528 140.941 187.095L141.828 187.696C141.533 188.279 141.076 188.764 140.513 189.096C139.95 189.427 139.304 189.59 138.651 189.565C136.568 189.565 135.153 188.063 135.153 185.82C135.153 183.577 136.581 182.148 138.577 182.148C140.573 182.148 141.895 183.517 141.895 185.787V186.02H136.441ZM138.531 183.183C138.005 183.159 137.491 183.344 137.1 183.696C136.709 184.048 136.472 184.54 136.441 185.066H140.62C140.62 184.803 140.566 184.543 140.46 184.302C140.354 184.062 140.199 183.846 140.004 183.669C139.81 183.492 139.581 183.357 139.332 183.273C139.083 183.19 138.819 183.159 138.557 183.183H138.531Z" fill="white"/>
<path d="M158.21 185.239C158.21 183.857 157.676 183.183 156.508 183.183C156.211 183.177 155.916 183.24 155.647 183.367C155.378 183.495 155.143 183.683 154.959 183.917C154.627 184.458 154.49 185.097 154.572 185.726V189.271H153.437V185.266C153.437 183.884 152.903 183.21 151.735 183.21C151.435 183.204 151.137 183.267 150.865 183.395C150.593 183.522 150.354 183.71 150.166 183.944C149.841 184.488 149.712 185.126 149.799 185.753V189.298H148.664V182.449H149.819V183.504C150.063 183.094 150.412 182.758 150.83 182.529C151.248 182.3 151.719 182.187 152.196 182.202C152.677 182.164 153.158 182.279 153.571 182.529C153.985 182.779 154.309 183.153 154.499 183.597C154.74 183.164 155.095 182.804 155.526 182.559C155.956 182.313 156.446 182.189 156.942 182.202C157.27 182.171 157.6 182.213 157.91 182.324C158.219 182.436 158.501 182.614 158.733 182.847C158.966 183.08 159.145 183.361 159.256 183.671C159.368 183.98 159.409 184.311 159.379 184.638V189.311H158.21V185.239Z" fill="white"/>
<path d="M162.469 183.243C162.815 182.897 163.226 182.623 163.679 182.439C164.132 182.254 164.617 182.162 165.106 182.169C165.601 182.162 166.093 182.255 166.552 182.442C167.01 182.629 167.427 182.906 167.776 183.257C168.125 183.596 168.401 184.002 168.588 184.45C168.775 184.899 168.869 185.381 168.865 185.867C168.868 186.351 168.773 186.83 168.586 187.277C168.399 187.723 168.124 188.127 167.776 188.464C167.426 188.814 167.009 189.092 166.551 189.281C166.093 189.47 165.602 189.566 165.106 189.565C164.616 189.569 164.131 189.474 163.678 189.288C163.225 189.101 162.814 188.825 162.469 188.477C162.121 188.138 161.846 187.732 161.659 187.283C161.472 186.834 161.377 186.353 161.381 185.867C161.375 185.379 161.468 184.894 161.655 184.443C161.843 183.992 162.119 183.584 162.469 183.243ZM165.106 188.464C165.44 188.458 165.769 188.385 166.075 188.251C166.38 188.117 166.656 187.924 166.887 187.682C167.117 187.441 167.297 187.156 167.417 186.844C167.536 186.533 167.593 186.2 167.583 185.867C167.593 185.533 167.536 185.201 167.417 184.889C167.297 184.578 167.117 184.293 166.887 184.051C166.656 183.81 166.38 183.616 166.075 183.482C165.769 183.348 165.44 183.276 165.106 183.27C164.772 183.275 164.442 183.347 164.136 183.48C163.829 183.614 163.553 183.807 163.321 184.049C163.09 184.291 162.91 184.576 162.79 184.888C162.67 185.2 162.613 185.533 162.623 185.867C162.616 186.2 162.674 186.531 162.795 186.842C162.916 187.152 163.097 187.436 163.328 187.676C163.559 187.917 163.834 188.11 164.139 188.244C164.444 188.377 164.773 188.45 165.106 188.457V188.464Z" fill="white"/>
<path d="M170.914 182.449H172.062V183.503C172.329 183.086 172.7 182.746 173.14 182.517C173.579 182.289 174.071 182.18 174.565 182.202C176.161 182.202 177.142 183.09 177.142 184.638V189.311H175.941V185.306C175.941 183.924 175.373 183.25 174.145 183.25C173.828 183.239 173.514 183.299 173.224 183.426C172.934 183.554 172.676 183.744 172.469 183.984C172.124 184.52 171.982 185.162 172.069 185.793V189.338H170.907L170.914 182.449Z" fill="white"/>
<path d="M178.611 183.377V182.449H179.866V179.685H181.067V182.449H182.322V183.41H181.067V189.305H179.866V183.41L178.611 183.377Z" fill="white"/>
<path d="M184.619 186.02V186.127C184.59 186.441 184.627 186.758 184.728 187.056C184.83 187.355 184.993 187.629 185.207 187.861C185.421 188.093 185.681 188.277 185.971 188.401C186.261 188.526 186.573 188.588 186.889 188.584C187.362 188.57 187.822 188.424 188.215 188.16C188.608 187.897 188.919 187.528 189.112 187.095L190.006 187.696C189.709 188.277 189.253 188.762 188.69 189.093C188.127 189.425 187.481 189.588 186.829 189.565C184.739 189.565 183.324 188.063 183.324 185.82C183.324 183.577 184.752 182.148 186.748 182.148C188.744 182.148 190.053 183.517 190.053 185.787V186.02H184.619ZM186.702 183.183C186.177 183.161 185.665 183.346 185.275 183.698C184.886 184.05 184.65 184.541 184.619 185.066H188.791C188.793 184.801 188.738 184.538 188.631 184.296C188.524 184.053 188.368 183.836 188.171 183.658C187.974 183.481 187.742 183.347 187.49 183.265C187.238 183.183 186.972 183.155 186.708 183.183H186.702Z" fill="white"/>
<path d="M192.082 182.449H193.13V183.871C193.744 182.709 194.385 182.215 195.433 182.215C195.704 182.215 195.973 182.263 196.228 182.355L195.827 183.41C195.596 183.328 195.352 183.282 195.106 183.277C193.865 183.277 193.25 184.165 193.25 185.947V189.285H192.082V182.449Z" fill="white"/>
<path d="M208.865 189.271H207.73V188.029C207.501 188.493 207.145 188.883 206.705 189.155C206.265 189.426 205.757 189.568 205.24 189.565C203.277 189.565 201.955 188.109 201.955 185.867C201.955 183.624 203.29 182.168 205.18 182.168C205.704 182.149 206.222 182.284 206.669 182.557C207.117 182.83 207.474 183.229 207.696 183.704V182.449H208.865V189.271ZM205.44 183.336C204.031 183.336 203.204 184.238 203.204 185.806C203.204 187.375 204.031 188.397 205.487 188.397C206.942 188.397 207.73 187.495 207.73 185.913C207.73 184.331 206.762 183.336 205.44 183.336ZM205.827 181.334L203.691 178.724H205.2L206.728 181.334H205.827Z" fill="white"/>
<path d="M216.295 177.656H217.496V189.271H216.295V177.656Z" fill="white" stroke="white" stroke-width="0.5" stroke-miterlimit="10"/>
<path d="M221.335 178.056L222.61 178.497L220.767 182.502L219.906 182.148L221.335 178.056Z" fill="white" stroke="white" stroke-width="0.5" stroke-miterlimit="10"/>
<path d="M225.093 178.296H230.881V179.498H226.401V182.642H230.881V183.857H226.401V188.063H230.881V189.271H225.093V178.296ZM228.484 174.598H230.013L227.877 177.208H226.975L228.484 174.598Z" fill="white" stroke="white" stroke-width="0.5" stroke-miterlimit="10"/>
<path d="M233.277 177.656H234.472V189.271H233.277V177.656Z" fill="white" stroke="white" stroke-width="0.5" stroke-miterlimit="10"/>
<path d="M238.758 188.597L236.088 182.416H237.423L239.425 187.342L241.541 182.416H242.83L238.23 192.622H236.895L238.758 188.597Z" fill="white" stroke="white" stroke-width="0.5" stroke-miterlimit="10"/>
<path d="M244.452 187.449C244.604 187.784 244.852 188.066 245.164 188.26C245.477 188.453 245.84 188.55 246.208 188.537C246.989 188.537 247.496 188.11 247.496 187.509C247.496 186.908 247.142 186.708 246.421 186.467C244.732 185.88 243.718 185.593 243.718 184.238C243.718 183.043 244.686 182.168 246.141 182.168C246.635 182.118 247.134 182.218 247.57 182.456C248.006 182.695 248.36 183.06 248.584 183.503L247.63 184.091C247.501 183.787 247.282 183.531 247.002 183.355C246.723 183.18 246.397 183.094 246.068 183.11C245.922 183.094 245.775 183.109 245.635 183.153C245.496 183.197 245.367 183.27 245.257 183.366C245.147 183.463 245.059 183.582 244.997 183.714C244.935 183.847 244.902 183.991 244.899 184.138C244.899 184.859 245.527 184.952 246.668 185.319C248.003 185.746 248.671 186.24 248.671 187.362C248.671 188.63 247.69 189.538 246.174 189.538C245.633 189.584 245.09 189.472 244.61 189.216C244.13 188.96 243.735 188.571 243.471 188.096L244.452 187.449Z" fill="white" stroke="white" stroke-width="0.5" stroke-miterlimit="10"/>
<path d="M251.375 186.02V186.127C251.347 186.441 251.385 186.758 251.487 187.057C251.589 187.356 251.752 187.63 251.967 187.861C252.182 188.093 252.442 188.277 252.732 188.401C253.022 188.525 253.335 188.588 253.651 188.584C254.124 188.57 254.584 188.424 254.977 188.16C255.371 187.897 255.682 187.527 255.874 187.095L256.768 187.696C256.472 188.277 256.015 188.762 255.452 189.093C254.889 189.424 254.244 189.588 253.591 189.565C251.501 189.565 250.086 188.063 250.086 185.82C250.086 183.577 251.515 182.148 253.511 182.148C255.507 182.148 256.809 183.517 256.809 185.787V186.02H251.375ZM253.464 183.183C252.938 183.159 252.424 183.344 252.033 183.696C251.642 184.048 251.406 184.54 251.375 185.066H255.554C255.554 184.799 255.499 184.535 255.39 184.292C255.282 184.048 255.123 183.83 254.924 183.653C254.726 183.475 254.492 183.341 254.238 183.26C253.984 183.179 253.716 183.153 253.451 183.183H253.464ZM253.898 178.73H255.38L253.244 181.341H252.343L253.898 178.73Z" fill="white" stroke="white" stroke-width="0.5" stroke-miterlimit="10"/>
<path d="M259.499 186.02V186.127C259.471 186.441 259.509 186.758 259.611 187.057C259.713 187.356 259.877 187.63 260.091 187.861C260.306 188.093 260.566 188.277 260.856 188.401C261.147 188.526 261.459 188.588 261.775 188.584C262.248 188.57 262.708 188.424 263.101 188.16C263.495 187.897 263.806 187.528 263.998 187.095L264.893 187.696C264.596 188.277 264.139 188.762 263.576 189.093C263.013 189.425 262.368 189.588 261.715 189.565C259.626 189.565 258.21 188.063 258.21 185.82C258.21 183.577 259.639 182.148 261.635 182.148C263.631 182.148 264.939 183.517 264.939 185.787V186.02H259.499ZM261.588 183.183C261.062 183.159 260.548 183.344 260.157 183.696C259.766 184.048 259.53 184.54 259.499 185.066H263.678C263.679 184.8 263.625 184.537 263.517 184.294C263.41 184.051 263.253 183.833 263.055 183.656C262.858 183.478 262.625 183.344 262.372 183.262C262.119 183.181 261.852 183.154 261.588 183.183Z" fill="white" stroke="white" stroke-width="0.5" stroke-miterlimit="10"/>
<path d="M276.775 184.285V184.532C276.775 186.067 275.927 186.908 274.472 186.908C274.176 186.94 273.876 186.906 273.595 186.808C273.313 186.71 273.057 186.55 272.846 186.34C272.634 186.13 272.472 185.876 272.371 185.595C272.27 185.315 272.233 185.015 272.262 184.719C272.262 183.624 272.93 183.01 274.092 182.195C275.12 181.528 275.841 181.107 275.841 180.313C275.84 180.146 275.803 179.982 275.733 179.831C275.662 179.679 275.561 179.545 275.434 179.437C275.307 179.329 275.159 179.249 274.999 179.203C274.838 179.157 274.67 179.146 274.505 179.171C273.611 179.171 273.11 179.739 273.11 180.773H271.895V180.573C271.878 180.231 271.934 179.889 272.059 179.571C272.185 179.252 272.377 178.964 272.623 178.726C272.869 178.488 273.163 178.305 273.485 178.189C273.808 178.074 274.151 178.028 274.492 178.056C276.148 178.056 277.129 178.971 277.129 180.446C277.129 181.508 276.461 182.149 275.126 183.01C274.132 183.677 273.457 183.991 273.457 184.865C273.455 184.995 273.48 185.123 273.53 185.243C273.58 185.362 273.653 185.47 273.747 185.559C273.84 185.649 273.951 185.718 274.072 185.763C274.194 185.808 274.323 185.827 274.452 185.82C275.206 185.82 275.594 185.326 275.594 184.345V184.285H276.775ZM274.352 187.783C274.588 187.784 274.814 187.879 274.98 188.047C275.146 188.215 275.24 188.441 275.24 188.677C275.241 188.794 275.218 188.91 275.174 189.018C275.13 189.126 275.064 189.224 274.982 189.307C274.899 189.39 274.801 189.455 274.693 189.499C274.585 189.544 274.469 189.566 274.352 189.565C274.235 189.566 274.119 189.544 274.01 189.499C273.902 189.455 273.803 189.39 273.72 189.307C273.637 189.225 273.571 189.127 273.526 189.019C273.481 188.91 273.457 188.794 273.457 188.677C273.459 188.441 273.554 188.215 273.722 188.049C273.889 187.883 274.116 187.789 274.352 187.789V187.783Z" fill="white"/>
<path d="M44.5253 79.645C42.9677 79.3469 41.3722 79.1244 39.7389 78.9775C38.1056 78.8306 36.3811 78.7038 34.5654 78.597C32.7496 78.508 30.816 78.4568 28.7643 78.4435C26.7127 78.4301 24.4875 78.4301 22.0888 78.4435C20.9472 78.4435 19.5921 78.4435 18.0166 78.4902C16.4412 78.5369 14.7456 78.597 12.9365 78.7171C11.1275 78.8373 9.25161 79.0042 7.33572 79.2312C5.41984 79.4581 3.54401 79.7519 1.7149 80.1123C2.46769 78.4769 3.0407 76.7646 3.42385 75.0055C3.89782 72.9494 4.29833 70.7665 4.61208 68.4568C4.92583 66.147 5.17286 63.7839 5.3531 61.394C5.53334 59.0042 5.67352 56.7612 5.7603 54.7184C5.84708 52.6757 5.90048 50.86 5.92051 49.378C5.94053 47.896 5.92051 46.8212 5.92051 46.2538C5.92051 46.1337 5.92051 45.6664 5.92051 44.8587C5.92051 44.0509 5.88046 42.9961 5.84709 41.7078C5.81371 40.4194 5.77365 38.9441 5.71357 37.2819C5.65349 35.6196 5.57338 33.884 5.46657 32.0816C5.35976 30.2792 5.22627 28.4701 5.06605 26.641C4.90584 24.8119 4.70557 23.0829 4.4786 21.4474C4.25163 19.8119 3.99794 18.3433 3.71089 17.0349C3.50197 15.9567 3.16351 14.9077 2.70288 13.9107C5.64013 14.3335 8.53288 14.6405 11.3811 14.8319C14.2294 15.0233 16.9886 15.1212 19.6588 15.1256C22.9299 15.1256 25.9895 15.0366 28.8378 14.8586C31.686 14.6806 34.1738 14.4692 36.301 14.2244C38.7933 13.9574 41.0585 13.6437 43.0968 13.2832V34.2512C41.5928 32.8059 39.9156 31.5524 38.1035 30.5195C36.7509 29.7538 35.3349 29.1061 33.8711 28.5836C32.5662 28.1297 31.2049 27.8578 29.8257 27.7758C28.5799 27.7342 27.3372 27.9244 26.1608 28.3366C25.3232 28.637 24.5684 29.131 23.9579 29.7785C23.439 30.3446 23.0736 31.034 22.8965 31.7812C22.7178 32.5109 22.6282 33.2596 22.6295 34.0108C22.6327 34.8013 22.745 35.5875 22.9633 36.3473C23.1833 37.1122 23.5432 37.8297 24.0247 38.4634C24.5249 39.1095 25.1606 39.6382 25.8871 40.0122C26.7311 40.4359 27.6667 40.6445 28.6108 40.6196C29.4447 40.6294 30.2665 40.42 30.994 40.0122C31.6667 39.6541 32.2867 39.2049 32.8364 38.6771C33.4605 38.0691 34.0198 37.3979 34.5053 36.6744V54.9454C34.1125 53.9585 33.5398 53.053 32.8164 52.2752C32.2653 51.694 31.6281 51.2009 30.9272 50.8132C30.4078 50.532 29.8466 50.3359 29.265 50.2325C28.9293 50.1746 28.5905 50.1368 28.2503 50.119C26.301 50.119 24.848 50.7176 23.8911 51.9147C22.8877 53.245 22.378 54.8828 22.4492 56.5476C22.4198 57.7358 22.5798 58.921 22.9232 60.0589C23.1799 60.9143 23.6067 61.709 24.1782 62.3953C24.6748 62.9863 25.3101 63.445 26.0273 63.7305C26.7375 63.9992 27.491 64.135 28.2503 64.131C29.5799 64.1052 30.8931 63.8312 32.1221 63.3233C33.5384 62.7667 34.8831 62.0429 36.1275 61.1671C37.4026 60.2648 38.5795 59.2311 39.6388 58.083C40.6351 57.0218 41.488 55.8345 42.1755 54.5516L44.5253 79.645Z" fill="#1C1D1A" stroke="white" stroke-width="2" stroke-linecap="round" stroke-linejoin="round"/>
<path d="M267.396 78.4365L221.294 73.0227C220.322 72.9072 219.435 72.4109 218.828 71.6426C218.221 70.8742 217.944 69.8965 218.057 68.9238L223.471 22.8223C223.527 22.3405 223.678 21.8745 223.914 21.451C224.151 21.0275 224.468 20.6547 224.849 20.3541C225.23 20.0534 225.666 19.8306 226.133 19.6986C226.6 19.5666 227.088 19.5279 227.57 19.5847L273.671 24.9986C274.153 25.0549 274.619 25.2056 275.042 25.4421C275.466 25.6787 275.839 25.9963 276.139 26.377C276.44 26.7576 276.663 27.1938 276.795 27.6606C276.927 28.1274 276.965 28.6156 276.909 29.0974L271.495 75.1989C271.379 76.1712 270.883 77.0581 270.115 77.665C269.346 78.272 268.369 78.5494 267.396 78.4365Z" fill="#FF2E3F" stroke="black" stroke-width="1.5" stroke-miterlimit="10"/>
<path d="M240.727 55.2324C240.987 52.9961 242.79 51.3606 244.732 51.5942C246.675 51.8279 248.07 53.8239 247.81 56.0669C247.549 58.3099 245.58 60.1524 243.838 59.2111C241.361 57.876 240.46 57.4754 240.727 55.2324Z" fill="white" stroke="#1D1D1B" stroke-width="1.5" stroke-linecap="round" stroke-linejoin="round"/>
<path d="M245.213 57.1482C246.706 57.1482 247.917 55.9377 247.917 54.4446C247.917 52.9514 246.706 51.741 245.213 51.741C243.72 51.741 242.509 52.9514 242.509 54.4446C242.509 55.9377 243.72 57.1482 245.213 57.1482Z" fill="#1D1D1B"/>
<path d="M259.746 57.4688C260.013 55.2258 258.638 53.2232 256.675 52.9895C254.712 52.7559 252.91 54.3914 252.67 56.6344C252.429 58.8774 253.898 61.1204 255.807 60.6397C258.504 59.8854 259.485 59.7118 259.746 57.4688Z" fill="white" stroke="#1D1D1B" stroke-width="1.5" stroke-linecap="round" stroke-linejoin="round"/>
<path d="M256.862 58.5166C258.355 58.5166 259.566 57.3061 259.566 55.813C259.566 54.3198 258.355 53.1094 256.862 53.1094C255.369 53.1094 254.158 54.3198 254.158 55.813C254.158 57.3061 255.369 58.5166 256.862 58.5166Z" fill="#1D1D1B"/>
<path d="M46.9219 149.365V166.975H56.1943C56.8865 166.975 57.5504 166.7 58.0399 166.211C58.5294 165.721 58.8044 165.057 58.8044 164.365C58.8027 163.674 58.5269 163.012 58.0376 162.524C57.5483 162.035 56.8853 161.761 56.1943 161.761H53.01V146.321H46.8484L46.9219 149.365Z" fill="#1D1D1B" stroke="white" stroke-width="1.5" stroke-linecap="round" stroke-linejoin="round"/>
<path d="M62.7029 131.274C63.0872 130.662 63.6964 130.225 64.3992 130.058C65.1021 129.891 65.8426 130.006 66.4613 130.379C67.9833 131.334 73.03 135.146 74.2984 144.171C74.8628 148.225 74.7659 152.344 74.0114 156.367C73.8753 156.975 73.5371 157.518 73.0521 157.909C72.567 158.299 71.9638 158.514 71.3411 158.517C71.1411 158.518 70.9417 158.496 70.747 158.45C70.0362 158.295 69.4161 157.864 69.0231 157.252C68.63 156.64 68.4961 155.896 68.6509 155.186C68.6509 155.186 68.7777 154.585 68.9045 153.59C68.791 153.23 68.5507 153.21 68.3505 153.336C68.1502 153.463 66.6415 154.672 66.5347 153.664C66.4279 152.656 67.516 150.833 68.3104 150.146C68.8255 149.579 69.1111 148.842 69.1115 148.076C69.0714 147.081 68.9846 146.027 68.8378 144.939C68.3505 141.461 66.6949 137.035 63.4973 135.039C62.8961 134.642 62.4755 134.024 62.3268 133.319C62.1781 132.615 62.3133 131.88 62.7029 131.274Z" fill="#1D1D1B" stroke="white" stroke-width="1.5" stroke-linecap="round" stroke-linejoin="round"/>
<path d="M43.2236 101.768L19.5587 115.433V127.843C16.0006 127.275 12.7362 124.191 10.8337 121.401C10.2129 120.486 9.6655 119.585 9.19154 118.73C8.85174 118.045 8.78028 117.257 8.99124 116.521C9.39845 115.553 9.55198 113.41 8.99124 112.582C8.43049 111.754 7.65614 113.39 7.50928 113.677C7.36242 113.964 7.16217 113.977 6.90182 113.677C6.57472 112.729 6.42783 112.148 6.42116 112.135C6.24302 111.427 5.7917 110.819 5.16607 110.444C4.54043 110.069 3.79149 109.957 3.08337 110.132C2.89064 110.184 2.70296 110.254 2.52261 110.339C1.96334 110.617 1.51563 111.078 1.25346 111.644C0.991283 112.211 0.930351 112.851 1.0807 113.457C2.18847 117.398 3.93139 121.132 6.2409 124.512C11.3811 132.035 17.5894 133.19 19.3851 133.383H19.5053V142.729L33.3905 150.74V161.755H30.1995C29.5084 161.755 28.8456 162.029 28.3563 162.517C27.867 163.005 27.5912 163.667 27.5894 164.358C27.5894 165.05 27.8644 165.714 28.3539 166.204C28.8434 166.693 29.5073 166.968 30.1995 166.968H39.4719V154.285L43.1702 156.421L66.8351 142.762V115.433L43.2236 101.768Z" fill="#3154FF" stroke="black" stroke-width="1.5" stroke-miterlimit="10"/>
<path d="M37.9031 129.044V132.075C37.9134 132.498 37.8266 132.918 37.6495 133.303C37.4559 133.733 37.1455 134.1 36.7537 134.362C36.3619 134.624 35.9043 134.77 35.4332 134.785C35.0092 134.776 34.5949 134.656 34.2317 134.437C33.8686 134.218 33.5693 133.908 33.3638 133.537C33.1207 133.103 32.9985 132.612 33.01 132.115V128.957C32.9976 128.458 33.1198 127.965 33.3638 127.529C33.5707 127.159 33.8705 126.851 34.2335 126.633C34.5964 126.415 35.01 126.296 35.4332 126.287C35.772 126.291 36.1061 126.367 36.4134 126.509C36.7207 126.652 36.9941 126.858 37.2156 127.115C37.6737 127.652 37.9183 128.338 37.9031 129.044Z" fill="white" stroke="#1D1D1B" stroke-width="1.5" stroke-linecap="round" stroke-linejoin="round"/>
<path d="M35.4532 131.047C36.7952 131.047 37.8831 129.959 37.8831 128.617C37.8831 127.275 36.7952 126.187 35.4532 126.187C34.1112 126.187 33.0233 127.275 33.0233 128.617C33.0233 129.959 34.1112 131.047 35.4532 131.047Z" fill="#1D1D1B"/>
<path d="M51.6081 129.044V132.075C51.616 132.499 51.527 132.919 51.3478 133.303C51.1549 133.733 50.8446 134.101 50.4527 134.363C50.0607 134.625 49.6028 134.771 49.1315 134.785C48.7075 134.776 48.2932 134.656 47.9301 134.437C47.5669 134.218 47.2676 133.908 47.0621 133.537C46.819 133.103 46.6968 132.612 46.7082 132.115V128.957C46.6959 128.458 46.8181 127.965 47.0621 127.529C47.269 127.159 47.5687 126.851 47.9317 126.633C48.2947 126.415 48.7083 126.296 49.1315 126.287C49.4703 126.291 49.8044 126.367 50.1117 126.509C50.419 126.652 50.6925 126.858 50.9139 127.115C51.3772 127.649 51.6247 128.337 51.6081 129.044Z" fill="white" stroke="#1D1D1B" stroke-width="1.5" stroke-linecap="round" stroke-linejoin="round"/>
<path d="M49.1515 131.047C50.4935 131.047 51.5814 129.959 51.5814 128.617C51.5814 127.275 50.4935 126.187 49.1515 126.187C47.8095 126.187 46.7216 127.275 46.7216 128.617C46.7216 129.959 47.8095 131.047 49.1515 131.047Z" fill="#1D1D1B"/>
</svg>
