<svg width="122" height="73" viewBox="0 0 122 73" fill="none" xmlns="http://www.w3.org/2000/svg">
<path d="M1.32476 13.2062C1.17219 13.2725 1.00715 13.3051 0.840851 13.3019C0.726461 13.3082 0.61206 13.2898 0.505433 13.2479C0.398805 13.2059 0.302467 13.1415 0.222985 13.0589C0.143502 12.9763 0.0827397 12.8776 0.0448495 12.7694C0.00695938 12.6612 -0.0071787 12.5461 0.00341085 12.4319C-0.00253355 12.312 0.0168704 12.1923 0.0603603 12.0805C0.10385 11.9686 0.170453 11.8673 0.255792 11.783C0.341131 11.6986 0.443286 11.6333 0.55559 11.5912C0.667895 11.5492 0.78781 11.5313 0.907492 11.5388C1.05317 11.5365 1.19759 11.5662 1.33056 11.6258L1.26102 11.8606C1.1517 11.805 1.03005 11.7781 0.907492 11.7823C0.825314 11.7799 0.743569 11.795 0.667668 11.8266C0.591766 11.8583 0.52345 11.9057 0.467266 11.9658C0.411082 12.0258 0.368317 12.0972 0.3418 12.175C0.315283 12.2529 0.305621 12.3356 0.313467 12.4175C0.306629 12.4977 0.316549 12.5784 0.342596 12.6546C0.368643 12.7307 0.410242 12.8006 0.464754 12.8598C0.519267 12.919 0.585503 12.9662 0.659231 12.9984C0.73296 13.0305 0.812572 13.047 0.893007 13.0467C1.02339 13.0483 1.15236 13.0195 1.2697 12.9626L1.32476 13.2062Z" fill="black"/>
<path d="M32.3824 33.4447C32.1361 33.4447 31.8463 33.4099 31.5131 33.3809L30.4815 33.3374C30.0845 33.3229 29.6325 33.3142 29.1254 33.3142C28.1846 33.3142 27.1028 33.3538 25.8799 33.4331C24.6571 33.5124 23.328 33.6612 21.8927 33.8797C22.1401 33.3416 22.323 32.776 22.4375 32.1948C22.5978 31.4795 22.735 30.6685 22.8489 29.7618C22.9648 28.857 23.0634 27.8913 23.1387 26.8619C23.214 25.8324 23.2836 24.832 23.3358 23.788C23.3879 22.744 23.4227 21.758 23.443 20.7982C23.4632 19.8383 23.4835 18.9654 23.498 18.1882C23.5125 17.4111 23.5183 16.7586 23.5183 16.2221V15.1782C23.4893 12.7596 23.4246 10.5141 23.3241 8.44161C23.2816 7.57163 23.2314 6.69494 23.1735 5.81144C23.1155 4.94146 23.0431 4.10338 22.9562 3.3349C22.8692 2.56642 22.7707 1.88494 22.6664 1.30496C22.5979 0.855124 22.4703 0.41633 22.2868 0C23.4594 0.193328 24.5451 0.331537 25.5438 0.414668C26.5425 0.497799 27.4408 0.533563 28.2387 0.521963C28.7602 0.521963 29.2297 0.521967 29.6498 0.490068C30.07 0.458169 30.4235 0.443667 30.7133 0.414668C31.061 0.385669 31.3653 0.347968 31.6261 0.30447C31.4947 0.957917 31.3749 1.78344 31.2668 2.78101C31.1586 3.77858 31.062 4.90181 30.977 6.1507C30.8959 7.39767 30.834 8.73746 30.7915 10.17C30.749 11.6026 30.7278 13.0805 30.7278 14.6039C30.7278 16.3439 30.7568 18.0974 30.8147 19.8644C30.8727 21.6314 30.9693 23.3404 31.1045 24.9914C31.2359 26.6444 31.4059 28.191 31.6145 29.6313C31.7882 30.9176 32.0447 32.1915 32.3824 33.4447Z" fill="#1C1D1A"/>
<path d="M55.8016 8.56067C55.6214 9.28308 55.4878 10.0164 55.4017 10.7559C55.2916 11.6114 55.1959 12.5306 55.1119 13.5166C55.0279 14.5025 54.9554 15.5321 54.9033 16.6021C54.8511 17.6722 54.8076 18.7191 54.7642 19.7311C54.6773 22.1245 54.6261 24.6455 54.6106 27.2941C54.6117 28.755 54.5217 30.2146 54.3411 31.6643C54.1699 33.045 53.879 34.4083 53.4718 35.7386C53.0902 36.9797 52.5732 38.1749 51.9302 39.3026C51.3249 40.366 50.5463 41.3206 49.6266 42.1272C48.6978 42.9311 47.6318 43.5608 46.4797 43.986C45.1791 44.4535 43.8046 44.6815 42.4229 44.6588C41.1927 44.6804 39.9653 44.534 38.7747 44.2238C37.8521 43.985 36.9849 43.5683 36.2218 42.9971C35.573 42.4967 35.0583 41.8431 34.7237 41.0948C34.3931 40.3268 34.2273 39.4979 34.2369 38.6618C34.2248 37.8389 34.3796 37.022 34.6918 36.2606C34.9683 35.5837 35.3738 34.9671 35.8857 34.4453C36.3646 33.9613 36.9323 33.5744 37.5577 33.3056C38.1529 33.0422 38.7961 32.9049 39.4469 32.9025C40.2711 32.902 41.0773 33.144 41.7651 33.5985C42.5406 34.1293 43.12 34.9007 43.4139 35.7937C43.3313 35.7219 43.2314 35.673 43.1241 35.6516C43.0135 35.6291 42.9009 35.6185 42.788 35.6198C42.6191 35.6214 42.4524 35.6579 42.2983 35.727C42.1328 35.8 41.9824 35.9032 41.8549 36.0315C41.7242 36.1607 41.6173 36.3118 41.5391 36.4781C41.4603 36.6439 41.4197 36.8252 41.4203 37.0088C41.4143 37.2017 41.4592 37.3928 41.5507 37.5627C41.6273 37.7041 41.7341 37.8269 41.8636 37.9223C41.9889 38.0096 42.1295 38.0725 42.278 38.1078C42.4166 38.1411 42.5585 38.1587 42.7011 38.1601C42.9586 38.1508 43.2138 38.1078 43.4603 38.0324C43.81 37.9194 44.1319 37.7336 44.4049 37.4873C44.7844 37.1488 45.1142 36.7583 45.3843 36.3273C45.7638 35.7155 46.0564 35.0537 46.2536 34.3612C46.5413 33.3838 46.7449 32.3835 46.8622 31.3714C47.0265 29.9722 47.0952 28.5634 47.0679 27.1549C46.765 28.0182 46.3685 28.8457 45.8856 29.6227C45.5373 30.1823 45.0963 30.6785 44.5817 31.0901C44.1598 31.4219 43.6716 31.6592 43.1502 31.786C42.6264 31.9046 42.0907 31.963 41.5536 31.96C40.7961 31.952 40.0448 31.8228 39.3281 31.5772C38.521 31.3054 37.7907 30.844 37.1983 30.2317C36.485 29.4744 35.9407 28.5738 35.6017 27.5899C35.1825 26.4763 34.9729 25.0563 34.9729 23.3299C34.9729 23.1008 34.9729 22.9355 34.9729 22.8427C34.9729 22.7499 34.9729 22.6745 34.9729 22.6252C34.9737 22.5629 34.9805 22.5007 34.9932 22.4396C35.0126 22.2994 35.0204 22.1578 35.0164 22.0162C35.0164 21.8074 35.0164 21.5059 35.0164 21.1144C35.0164 20.7229 35.0164 20.1719 35.0164 19.4614C35.0164 18.6378 35.0164 17.7012 34.9729 16.6601C34.9294 15.619 34.8831 14.5953 34.7875 13.5949C34.7072 12.6792 34.5737 11.7691 34.3876 10.869C34.2816 10.226 34.0524 9.60951 33.7124 9.05364C34.8088 9.24662 35.9142 9.38404 37.0245 9.46541C38.058 9.53887 39.0026 9.57564 39.8584 9.57564C40.438 9.57564 40.9335 9.57561 41.3913 9.54081C41.8491 9.50601 42.2403 9.49441 42.5736 9.46541C42.9068 9.43641 43.2893 9.40164 43.5936 9.35815C43.4194 9.81477 43.2922 10.2879 43.214 10.7704C43.0778 11.4663 42.9416 12.2987 42.8112 13.2701C42.6808 14.2416 42.5736 15.3001 42.4866 16.46C42.3997 17.62 42.3562 18.78 42.3562 19.9399C42.3453 20.6986 42.4113 21.4565 42.5533 22.2019C42.6521 22.736 42.8309 23.2522 43.0836 23.733C43.2687 24.0831 43.5375 24.3819 43.8659 24.603C44.1527 24.7913 44.4879 24.8921 44.8309 24.893C45.0889 24.8998 45.3444 24.8417 45.5742 24.7242C45.8041 24.6067 46.0008 24.4334 46.1464 24.2202C46.5067 23.699 46.7879 23.1273 46.981 22.5237C46.952 21.6247 46.9018 20.574 46.8303 19.3716C46.7588 18.1691 46.6622 16.9124 46.5405 15.6017C46.4169 14.2967 46.2575 12.9821 46.0624 11.6578C45.8673 10.3335 45.6248 9.09809 45.3351 7.95166C45.8599 8.13213 46.3962 8.27745 46.9404 8.38665C47.5866 8.5189 48.2396 8.61571 48.8963 8.67664C49.7987 8.76304 50.705 8.80277 51.6115 8.79558C53.0115 8.79515 54.4103 8.71672 55.8016 8.56067Z" fill="#1C1D1A"/>
<path d="M75.9435 13.7776C75.952 14.3196 75.8329 14.8561 75.5957 15.3435C75.3703 15.7985 75.0526 16.2015 74.6627 16.5267C74.2567 16.861 73.7932 17.1184 73.295 17.2864C72.7638 17.4702 72.2053 17.5624 71.6433 17.5591C71.0662 17.5726 70.4908 17.4922 69.9394 17.3213C69.5093 17.1834 69.1057 16.9736 68.7456 16.7007C68.4384 16.4688 68.177 16.1816 67.9748 15.8539C67.7995 15.5672 67.6502 15.2654 67.5286 14.952C67.4286 14.6923 67.3595 14.4217 67.3228 14.1459C67.2981 13.9593 67.2836 13.7715 67.2793 13.5833C67.3268 13.6893 67.3955 13.7845 67.4812 13.8628C67.567 13.9411 67.6679 14.0009 67.7778 14.0385C67.9327 14.0883 68.0934 14.1175 68.2559 14.1255C68.3875 14.1384 68.5204 14.1217 68.6447 14.0766C68.7691 14.0314 68.8818 13.959 68.9745 13.8646C69.1077 13.7148 69.1836 13.5227 69.1889 13.3223C69.1846 13.1878 69.1561 13.0552 69.1049 12.9308C69.0366 12.7744 68.9323 12.6362 68.8006 12.5277C68.6315 12.3911 68.4404 12.2842 68.2356 12.2116C67.9558 12.117 67.6615 12.0728 67.3663 12.0811C67.1288 12.0848 66.8936 12.1289 66.6708 12.2116C66.4253 12.2991 66.2004 12.4364 66.0102 12.6147C65.8065 12.8065 65.6405 13.0347 65.5205 13.2875C65.3861 13.577 65.3197 13.8934 65.3263 14.2126C65.3065 14.8025 65.4817 15.3824 65.8247 15.8626C66.184 16.3368 66.6293 16.7392 67.1374 17.0487C67.7269 17.4117 68.3441 17.7278 68.9832 17.9941C69.6728 18.284 70.377 18.574 71.1014 18.8959C71.8253 19.2064 72.5324 19.5549 73.2196 19.9399C73.8982 20.3168 74.5197 20.7884 75.0655 21.3406C75.6218 21.9127 76.0669 22.5833 76.3781 23.3183C76.73 24.1869 76.8996 25.1188 76.8765 26.0558C76.8952 27.3209 76.6131 28.5722 76.0536 29.7068C75.5156 30.7778 74.7653 31.728 73.8484 32.4994C72.9025 33.2899 71.8163 33.8949 70.6465 34.2828C69.4072 34.6983 68.1081 34.907 66.8012 34.9006C65.6181 34.908 64.4405 34.7399 63.3066 34.4017C62.2703 34.1017 61.291 33.6314 60.4089 33.0098C59.6147 32.4513 58.9456 31.7333 58.4443 30.9016C57.9637 30.11 57.7119 29.2005 57.7169 28.2742C57.7018 27.6374 57.8193 27.0044 58.0618 26.4154C58.2788 25.9079 58.61 25.4573 59.0296 25.0988C59.4562 24.7454 59.9486 24.4801 60.4784 24.3187C61.0664 24.1402 61.678 24.0522 62.2924 24.0577C62.7735 24.0575 63.2533 24.1081 63.7239 24.2085C64.1898 24.3064 64.6422 24.4603 65.0713 24.6668C65.4791 24.8607 65.8592 25.1085 66.2014 25.4033C66.5276 25.6851 66.7996 26.0242 67.0041 26.4038C66.8933 26.3764 66.7811 26.3551 66.6679 26.34C66.5565 26.3249 66.4442 26.3171 66.3318 26.3168C66.0591 26.3015 65.7907 26.3906 65.5813 26.5661C65.4826 26.676 65.4077 26.8052 65.3613 26.9454C65.315 27.0857 65.2981 27.234 65.3118 27.381C65.3102 27.5786 65.3544 27.7739 65.4409 27.9515C65.5274 28.1291 65.6538 28.2842 65.8102 28.4047C66.1178 28.6705 66.5107 28.8167 66.9171 28.8165C67.1431 28.8169 67.3662 28.7653 67.5691 28.6657C67.7676 28.5667 67.9448 28.4297 68.0907 28.2626C68.2336 28.0986 68.3473 27.9113 68.4268 27.7088C68.5054 27.5073 68.5457 27.2928 68.5457 27.0765C68.5282 26.6451 68.3972 26.226 68.166 25.8615C67.9029 25.4157 67.5336 25.0421 67.091 24.774C66.1792 24.2095 65.3176 23.7262 64.5063 23.3241C63.6949 22.9219 62.9492 22.5353 62.2692 22.1641C61.5892 21.8026 60.9778 21.4401 60.435 21.0766C59.91 20.7302 59.4443 20.3013 59.0557 19.8065C58.6645 19.2916 58.37 18.7099 58.1864 18.0897C57.9725 17.3069 57.8748 16.497 57.8966 15.6857C57.8865 14.6182 58.1121 13.5616 58.5573 12.5915C59.0005 11.6382 59.6498 10.7953 60.4582 10.1237C61.3577 9.38786 62.3894 8.8308 63.4978 8.48233C64.8183 8.06668 66.1966 7.86499 67.5807 7.88493C68.9082 7.85409 70.232 8.03722 71.5013 8.42725C72.4425 8.72285 73.3187 9.19521 74.0832 9.81915C74.7006 10.3275 75.1883 10.9756 75.5059 11.7099C75.7881 12.363 75.9368 13.0661 75.9435 13.7776Z" fill="#1C1D1A"/>
<path d="M64.2426 71.6016C63.9673 71.5726 63.663 71.5436 63.2892 71.5146C62.9994 71.4856 62.6169 71.4624 62.191 71.4479C61.765 71.4334 61.2985 71.4276 60.7914 71.4276C60.067 71.4276 59.274 71.4566 58.4124 71.5146C57.5206 71.5759 56.6327 71.6843 55.7523 71.8394L55.8392 65.7322C55.2887 67.8916 54.4812 69.5581 53.4167 70.7316C52.3523 71.9051 51.1044 72.4919 49.6729 72.4919C49.1613 72.4849 48.6516 72.4266 48.1516 72.3178C47.5419 72.1872 46.9556 71.9643 46.413 71.6567C45.7777 71.2899 45.1997 70.8316 44.6976 70.2966C44.0839 69.6318 43.5819 68.8718 43.211 68.0463C42.7287 66.9774 42.3784 65.8536 42.1679 64.6998C41.8873 63.1627 41.7563 61.6021 41.7767 60.0397C41.7364 57.9326 41.985 55.8298 42.5156 53.7903C42.908 52.28 43.5463 50.8447 44.4049 49.542C45.0538 48.5516 45.9238 47.7256 46.9462 47.1293C47.7723 46.6499 48.7066 46.3884 49.6613 46.3694C50.358 46.3603 51.0513 46.4671 51.7129 46.6856C52.2932 46.8783 52.8448 47.1485 53.353 47.4888C53.8117 47.7983 54.2277 48.1669 54.5903 48.585C54.9155 48.9592 55.1992 49.3675 55.4364 49.803C55.392 49.31 55.3273 48.7851 55.2423 48.2283C55.1573 47.6715 55.0607 47.0916 54.9525 46.4884C55.8982 46.677 56.8557 46.8001 57.8184 46.8567C58.7843 46.9147 59.6816 46.9436 60.5103 46.9436C61.4955 46.9436 62.2924 46.9224 62.9009 46.8798C63.2486 46.8798 63.5645 46.8421 63.8543 46.8131C63.6949 47.5381 63.5645 48.3501 63.4225 49.2491C63.2805 50.1481 63.1791 51.105 63.0835 52.1287C62.9879 53.1524 62.9183 54.2225 62.8661 55.3447C62.814 56.467 62.7908 57.6153 62.7908 58.7898C62.7908 60.9763 62.9 63.1706 63.1182 65.3726C63.3144 67.4773 63.6905 69.5612 64.2426 71.6016ZM55.3176 59.1494V55.6289C55.3177 55.2288 55.2964 54.829 55.2539 54.4312C55.217 54.0488 55.1192 53.6748 54.9641 53.3234C54.8174 52.9987 54.5887 52.7179 54.3005 52.5086C53.9524 52.2821 53.5417 52.1715 53.127 52.1925C52.8852 52.1862 52.6449 52.2316 52.422 52.3256C52.1992 52.4196 51.9989 52.56 51.8346 52.7376C51.4565 53.1685 51.1758 53.676 51.0117 54.2253C50.781 54.9523 50.6351 55.7035 50.577 56.4641C50.4959 57.334 50.4582 58.2649 50.4582 59.2799C50.4579 59.8686 50.4976 60.4567 50.577 61.0401C50.6454 61.5935 50.7796 62.1368 50.9769 62.6583C51.1407 63.1041 51.4009 63.5081 51.739 63.8414C52.0494 64.1419 52.4663 64.3067 52.8981 64.2996C53.1354 64.3081 53.3717 64.2636 53.5897 64.1693C53.8078 64.075 54.0021 63.9333 54.1586 63.7545C54.4942 63.363 54.7422 62.9042 54.8859 62.4089C55.0553 61.8603 55.1679 61.2957 55.222 60.724C55.2887 60.1382 55.3176 59.6105 55.3176 59.1523V59.1494Z" fill="#1C1D1A"/>
<path d="M66.2072 71.6017C66.4972 70.4886 66.7227 69.3596 66.8824 68.2205C67.0755 66.9387 67.2272 65.5632 67.3373 64.0939C67.4474 62.6246 67.5305 61.0925 67.5865 59.4975C67.6387 57.9025 67.6647 56.3009 67.6647 54.6924C67.6647 52.9524 67.6329 51.2473 67.5778 49.574C67.5228 47.9008 67.4416 46.3348 67.3489 44.8704C67.2562 43.4059 67.1432 42.0922 67.0128 40.9264C66.8824 39.7607 66.7433 38.8154 66.5984 38.0904C66.8592 38.1339 67.1779 38.1687 67.5112 38.1977C67.801 38.2267 68.1516 38.2528 68.5659 38.2731C68.9803 38.2934 69.4352 38.3079 69.9858 38.3079C70.7836 38.3079 71.6848 38.2711 72.6894 38.1977C73.7784 38.1154 74.8626 37.978 75.9377 37.7859C75.7732 38.1733 75.6526 38.5779 75.5784 38.9922C75.4702 39.52 75.3736 40.1319 75.2886 40.8279C75.2036 41.5239 75.1312 42.2769 75.0713 43.0869C75.0133 43.8989 74.9631 44.7138 74.9206 45.5315C74.8781 46.3493 74.8414 47.1536 74.8105 47.9443C74.7815 48.736 74.7612 49.4551 74.7467 50.1076C75.2657 48.9101 76.084 47.8665 77.1229 47.0772C78.1139 46.3426 79.3695 45.9762 80.8899 45.9781C81.3202 45.9931 81.7473 46.0592 82.162 46.1753C82.7372 46.332 83.2861 46.5734 83.7905 46.8916C84.4219 47.2892 84.9986 47.7679 85.5059 48.3154C86.1342 48.9997 86.6541 49.7762 87.0475 50.618C87.55 51.6928 87.9217 52.8241 88.1544 53.9877C88.4572 55.5074 88.599 57.0549 88.5775 58.6044C88.5775 61.2143 88.3176 63.3989 87.798 65.1581C87.3912 66.677 86.7182 68.1116 85.8102 69.3949C85.1202 70.3635 84.2026 71.1473 83.1385 71.6771C82.2555 72.1108 81.2879 72.3445 80.3045 72.3615C79.6258 72.3543 78.9632 72.1531 78.3949 71.7816C77.7692 71.3914 77.2114 70.9016 76.7433 70.3316C76.234 69.7083 75.8002 69.0269 75.4509 68.3017C75.0919 67.573 74.8121 66.8078 74.6163 66.0194C74.6598 66.3239 74.7207 66.7705 74.7989 67.3563C74.8771 67.9421 74.9641 68.5452 75.051 69.16C75.1379 69.7748 75.2277 70.3374 75.3205 70.8449C75.3649 71.1819 75.4566 71.5108 75.5929 71.8221C74.6762 71.6625 73.7514 71.5542 72.8227 71.4974C71.8896 71.4394 71.0203 71.4104 70.2147 71.4104C69.6352 71.4104 69.0875 71.4104 68.6094 71.4307C68.1313 71.451 67.7111 71.4684 67.3489 71.4974C66.922 71.538 66.5414 71.5727 66.2072 71.6017ZM75.0481 59.0625V60.3443C75.048 60.7434 75.0693 61.1422 75.1118 61.539C75.1487 61.9214 75.2466 62.2954 75.4016 62.6468C75.5475 62.9721 75.7763 63.2531 76.0652 63.4617C76.4086 63.6867 76.8143 63.7973 77.2243 63.7778C77.5505 63.7861 77.8683 63.6736 78.1168 63.4617C78.3752 63.2365 78.5826 62.9587 78.7253 62.6468C78.8933 62.2812 79.0234 61.8994 79.1136 61.5072C79.2134 61.088 79.286 60.6627 79.3309 60.2341C79.3744 59.8136 79.4033 59.4105 79.4178 59.019C79.4323 58.6276 79.441 58.2998 79.441 58.0388C79.441 57.6473 79.4236 57.1196 79.386 56.4526C79.3513 55.792 79.268 55.1348 79.1368 54.4864C79.0267 53.9008 78.8253 53.3362 78.5398 52.8132C78.4418 52.6038 78.2867 52.4265 78.0924 52.3013C77.8982 52.1762 77.6726 52.1083 77.4416 52.1056C77.2724 52.1046 77.1049 52.139 76.9498 52.2064C76.7946 52.2738 76.6552 52.3728 76.5404 52.4971C76.2651 52.7927 76.0452 53.1356 75.8913 53.5092C75.698 53.9556 75.5523 54.4212 75.4567 54.8983C75.3466 55.4145 75.2596 55.9277 75.1959 56.4439C75.1321 56.9601 75.0858 57.4473 75.0655 57.9084C75.0452 58.3694 75.0481 58.758 75.0481 59.0625Z" fill="#1C1D1A"/>
<path d="M100.985 71.2104C100.739 71.2104 100.449 71.1727 100.116 71.1437L99.0845 71.1001C98.6876 71.1001 98.2355 71.0798 97.7284 71.0798C96.7876 71.0798 95.7058 71.1195 94.483 71.1987C93.2602 71.278 91.9321 71.4269 90.4987 71.6453C90.7432 71.1064 90.925 70.541 91.0405 69.9605C91.2009 69.2452 91.338 68.4341 91.452 67.5274C91.566 66.6207 91.6626 65.6541 91.7418 64.6275C91.8229 63.6067 91.8867 62.5802 91.9388 61.5507C91.991 60.5213 92.0258 59.5208 92.046 58.5638C92.0663 57.6068 92.0866 56.7311 92.1011 55.9539C92.1156 55.1767 92.1243 54.5213 92.1243 53.9848V52.9438C92.0953 50.5233 92.0296 48.2778 91.9272 46.2073C91.8847 45.3373 91.8345 44.4606 91.7766 43.5771C91.7186 42.6936 91.6462 41.8671 91.5592 41.0976C91.4723 40.332 91.3738 39.6477 91.2695 39.0677C91.1985 38.619 91.0699 38.1814 90.887 37.7656C92.0596 37.959 93.1462 38.0962 94.1469 38.1774C95.1475 38.2586 96.0449 38.2954 96.8388 38.2876C97.3604 38.2876 97.8298 38.2876 98.25 38.2528C98.6702 38.218 99.0237 38.2064 99.3135 38.1774C99.6612 38.1484 99.9654 38.1136 100.226 38.0701C100.096 38.7226 99.977 39.5462 99.8669 40.5467C99.7568 41.5471 99.6641 42.6694 99.5772 43.9163C99.4902 45.1633 99.4352 46.5002 99.3917 47.9356C99.3482 49.3711 99.328 50.8356 99.328 52.3696C99.328 54.1096 99.3569 55.862 99.4149 57.6271C99.4728 59.3922 99.5694 61.1022 99.7047 62.7571C99.836 64.41 100.006 65.9566 100.215 67.3969C100.391 68.683 100.649 69.9567 100.985 71.2104Z" fill="#1C1D1A"/>
<path d="M121.8 51.0849C121.801 52.1596 121.644 53.2287 121.333 54.2575C121.02 55.2919 120.456 56.2331 119.693 56.9979C118.797 57.8642 117.717 58.5173 116.534 58.9089C115.211 59.3883 113.529 59.6271 111.487 59.6251C111.519 60.2425 111.67 60.8479 111.93 61.4086C112.141 61.8489 112.436 62.2431 112.799 62.5686C113.113 62.8468 113.473 63.0677 113.863 63.2211C114.2 63.3547 114.55 63.4567 114.906 63.5256C115.279 63.588 115.658 63.617 116.036 63.6125C116.875 63.5282 117.692 63.2924 118.447 62.9166C118.763 62.765 119.061 62.5793 119.337 62.3627C119.634 62.1306 119.9 61.8605 120.128 61.5594C120.371 61.2336 120.567 60.8742 120.707 60.4923C120.867 60.0496 120.958 59.5851 120.977 59.1148C121.328 59.9661 121.594 60.85 121.771 61.7537C121.916 62.5098 121.993 63.2775 122 64.0475C122.012 65.2819 121.772 66.5059 121.293 67.6434C120.841 68.7098 120.18 69.6743 119.348 70.4796C118.502 71.2902 117.502 71.9223 116.407 72.3384C115.224 72.7876 113.969 73.0119 112.704 72.9996C111.418 73.0032 110.142 72.7753 108.937 72.3268C107.716 71.8693 106.616 71.1371 105.723 70.1867C104.717 69.0876 103.955 67.788 103.486 66.3732C102.926 64.8073 102.647 62.9088 102.649 60.6778C102.61 58.4887 102.964 56.3104 103.692 54.2459C104.308 52.5081 105.26 50.9089 106.494 49.5393C107.625 48.2954 109.008 47.3069 110.551 46.6394C112.084 45.9808 113.736 45.6441 115.404 45.6505C116.221 45.6501 117.034 45.7475 117.827 45.9405C118.559 46.1123 119.249 46.4299 119.855 46.8742C120.448 47.318 120.927 47.8952 121.255 48.5591C121.631 49.3468 121.818 50.2119 121.8 51.0849ZM111.4 56.0409C111.878 56.0131 112.352 55.9293 112.811 55.7915C113.341 55.6402 113.851 55.425 114.329 55.1506C114.792 54.8883 115.201 54.541 115.535 54.1269C115.857 53.7365 116.031 53.2443 116.024 52.7379C116.031 52.5864 116.002 52.4356 115.942 52.2966C115.882 52.1575 115.791 52.0338 115.677 51.9346C115.428 51.726 115.111 51.6174 114.787 51.6301C114.3 51.6245 113.823 51.776 113.428 52.0622C113.024 52.3586 112.678 52.7273 112.408 53.1497C112.121 53.5974 111.891 54.0797 111.724 54.5851C111.562 55.0567 111.453 55.545 111.4 56.0409Z" fill="#1C1D1A"/>
<path d="M92.5936 8.85926C92.5775 9.64308 92.4406 10.4197 92.1879 11.1618C91.9129 12.0207 91.5749 12.8581 91.1767 13.6673C90.7867 14.4692 90.3342 15.2391 89.8234 15.9699C89.4071 16.5832 88.9284 17.1517 88.3949 17.6663L83.263 17.0573C83.8045 16.6344 84.3042 16.1605 84.7553 15.6421C85.209 15.1188 85.6309 14.5688 86.0187 13.995C85.4199 13.9531 84.8374 13.7809 84.312 13.4904C83.8029 13.207 83.3525 12.829 82.9848 12.3768C82.6026 11.9065 82.3081 11.3712 82.1155 10.7964C81.9151 10.1705 81.8173 9.51639 81.8258 8.85926C81.8347 8.2538 81.9323 7.65288 82.1155 7.07577C82.3042 6.45523 82.608 5.87582 83.0109 5.36776C83.4596 4.81851 84.0261 4.37742 84.6684 4.07727C85.4701 3.71759 86.3431 3.54505 87.2213 3.57269C88.0344 3.55587 88.844 3.68453 89.6119 3.9526C90.2472 4.17588 90.8224 4.54308 91.2926 5.02555C91.7377 5.50455 92.0738 6.07446 92.2778 6.69594C92.5006 7.39491 92.6073 8.12572 92.5936 8.85926Z" fill="white" stroke="#1C1D1A" stroke-linejoin="round"/>
<path d="M20.3859 34.1726C19.7078 34.0421 19.0153 33.9435 18.3053 33.8826C17.5954 33.8217 16.8565 33.755 16.0596 33.7173C15.2627 33.6796 14.434 33.6535 13.5415 33.6477C12.649 33.6419 11.6841 33.6477 10.6438 33.6477C10.1473 33.6477 9.55813 33.6535 8.8762 33.6651C8.19427 33.6767 7.45826 33.7095 6.66815 33.7637C5.88191 33.8159 5.07152 33.8913 4.23698 33.9899C3.40244 34.0885 2.58916 34.2151 1.79712 34.3698C2.12562 33.66 2.37442 32.9159 2.53893 32.1513C2.74756 31.2581 2.92144 30.3128 3.05763 29.3094C3.19382 28.3061 3.30103 27.2795 3.37927 26.2413C3.45751 25.2031 3.51546 24.2288 3.55603 23.3414C3.59659 22.454 3.61687 21.6652 3.62267 21.0069C3.62846 20.3487 3.62267 19.8963 3.62267 19.6469C3.62267 19.5947 3.62267 19.3946 3.62267 19.0408C3.62267 18.687 3.60819 18.2346 3.5937 17.6749C3.57921 17.1153 3.56182 16.4715 3.53574 15.7494C3.50966 15.0273 3.47199 14.2734 3.42853 13.4933C3.38506 12.7132 3.32421 11.9215 3.25177 11.1269C3.17933 10.3323 3.0953 9.58132 2.99967 8.87084C2.90405 8.16036 2.79103 7.52235 2.66643 6.95687C2.57534 6.4873 2.42743 6.03057 2.22597 5.59679C3.50483 5.77852 4.7605 5.91289 5.99298 5.99989C7.22547 6.08688 8.4232 6.12843 9.58614 6.12456C11.0031 6.12456 12.3332 6.08689 13.5676 6.00859C14.802 5.9303 15.8857 5.84042 16.8101 5.73602C17.8919 5.61616 18.8742 5.47888 19.7571 5.32422V14.4879C19.104 13.8603 18.376 13.3158 17.5896 12.8669C17.0026 12.536 16.389 12.2548 15.7553 12.0259C15.1884 11.8306 14.5977 11.7126 13.9993 11.675C13.4576 11.6573 12.9173 11.7399 12.4056 11.9187C12.0428 12.0507 11.7155 12.2651 11.4494 12.545C11.2261 12.7919 11.0686 13.0911 10.9915 13.415C10.9133 13.7319 10.8735 14.0571 10.8727 14.3836C10.8733 14.7272 10.923 15.069 11.0205 15.3986C11.1144 15.7309 11.2697 16.0427 11.4783 16.3178C11.6959 16.5992 11.973 16.829 12.2897 16.9906C12.6559 17.175 13.0621 17.2656 13.4719 17.2545C13.8339 17.2587 14.1907 17.1677 14.5064 16.9906C14.7993 16.8306 15.0685 16.6305 15.3062 16.3961C15.5778 16.1334 15.8198 15.8417 16.0277 15.5261V23.4777C15.8572 23.0496 15.6097 22.6564 15.2975 22.3177C15.0599 22.0635 14.783 21.8491 14.4775 21.6826C14.2511 21.5596 14.0065 21.4734 13.753 21.4274C13.6083 21.4023 13.4622 21.3859 13.3155 21.3781C12.4694 21.3781 11.8377 21.6391 11.4204 22.1611C10.9852 22.739 10.7649 23.4507 10.7974 24.1736C10.7851 24.6886 10.8535 25.2023 11.0002 25.6961C11.1121 26.069 11.2984 26.4152 11.5479 26.7139C11.762 26.971 12.0369 27.1704 12.3477 27.2939C12.6564 27.4127 12.9847 27.4728 13.3155 27.4709C13.8916 27.4585 14.4604 27.3396 14.9932 27.12C15.6089 26.8788 16.1927 26.5633 16.7319 26.1804C17.2844 25.7894 17.7943 25.3413 18.2532 24.8435C18.6868 24.3828 19.058 23.867 19.3572 23.3095L20.3859 34.1726Z" fill="#1C1D1A"/>
<path d="M117.123 33.6331L97.1083 31.2813C96.6862 31.2311 96.3012 31.0155 96.0378 30.6818C95.7743 30.348 95.6539 29.9233 95.7029 29.5008L98.0529 9.47395C98.1038 9.05188 98.3194 8.66713 98.6527 8.40361C98.9861 8.1401 99.4101 8.01929 99.8321 8.06753L119.847 10.4193C120.268 10.4702 120.653 10.686 120.916 11.0196C121.179 11.3532 121.3 11.7775 121.252 12.1999L118.902 32.2267C118.852 32.649 118.636 33.0343 118.303 33.298C117.969 33.5616 117.545 33.6822 117.123 33.6331Z" fill="#FF2E3F" stroke="black" stroke-width="0.5" stroke-miterlimit="10"/>
<path d="M105.555 23.5618C105.671 22.5874 106.453 21.8798 107.294 21.9784C108.134 22.077 108.743 22.9499 108.627 23.9242C108.511 24.8986 107.659 25.6961 106.905 25.2901C105.845 24.7072 105.436 24.5361 105.555 23.5618Z" fill="white" stroke="#1D1D1B" stroke-width="0.5" stroke-linecap="round" stroke-linejoin="round"/>
<path d="M107.497 24.3912C108.145 24.3912 108.67 23.8653 108.67 23.2167C108.67 22.5681 108.145 22.0422 107.497 22.0422C106.848 22.0422 106.323 22.5681 106.323 23.2167C106.323 23.8653 106.848 24.3912 107.497 24.3912Z" fill="#1D1D1B"/>
<path d="M113.808 24.5303C113.921 23.5588 113.324 22.6859 112.472 22.5873C111.62 22.4887 110.838 23.1963 110.733 24.1678C110.629 25.1393 111.264 26.1195 112.092 25.9078C113.269 25.583 113.695 25.5134 113.808 24.5303Z" fill="white" stroke="#1D1D1B" stroke-width="0.5" stroke-linecap="round" stroke-linejoin="round"/>
<path d="M112.556 24.9856C113.204 24.9856 113.73 24.4598 113.73 23.8112C113.73 23.1625 113.204 22.6367 112.556 22.6367C111.908 22.6367 111.382 23.1625 111.382 23.8112C111.382 24.4598 111.908 24.9856 112.556 24.9856Z" fill="#1D1D1B"/>
<path d="M21.4232 64.4535V72.1034H25.451C25.7515 72.1034 26.0397 71.984 26.2522 71.7714C26.4646 71.5587 26.584 71.2703 26.584 70.9696C26.584 70.6689 26.4646 70.3804 26.2522 70.1678C26.0397 69.9551 25.7515 69.8357 25.451 69.8357H24.0659V63.1311H21.3942L21.4232 64.4535Z" fill="#1D1D1B"/>
<path d="M28.2763 56.5919C28.3595 56.4593 28.4681 56.3444 28.5958 56.2539C28.7235 56.1633 28.8677 56.0989 29.0203 56.0641C29.1729 56.0294 29.3308 56.0251 29.485 56.0514C29.6393 56.0778 29.7868 56.1343 29.9192 56.2178C30.577 56.6324 32.7706 58.2854 33.3183 62.2061C33.5665 63.9681 33.5244 65.7588 33.1937 67.5072C33.1351 67.7714 32.9884 68.0078 32.7778 68.1775C32.5671 68.3472 32.305 68.4401 32.0346 68.4409C31.9479 68.4397 31.8615 68.43 31.7767 68.4119C31.4685 68.3432 31.2 68.1551 31.03 67.8888C30.86 67.6225 30.8024 67.2997 30.8697 66.991C30.8697 66.991 30.9248 66.7299 30.9798 66.2979C30.9306 66.1413 30.8262 66.1355 30.7364 66.1906C30.6466 66.2457 29.9975 66.7706 29.9511 66.3327C29.9048 65.8948 30.3742 65.1031 30.7219 64.8015C30.9453 64.5566 31.0693 64.237 31.0696 63.9054C31.0523 63.4762 31.0146 63.0181 30.9479 62.5425C30.7364 61.0316 30.0207 59.109 28.6298 58.2449C28.4981 58.1596 28.3844 58.0492 28.2954 57.92C28.2063 57.7907 28.1436 57.6451 28.1107 57.4916C28.0779 57.3381 28.0756 57.1797 28.104 57.0253C28.1324 56.8709 28.1909 56.7236 28.2763 56.5919Z" fill="#1D1D1B"/>
<path d="M19.8208 43.783L9.54846 49.7191V55.0926C8.00109 54.8461 6.58701 53.5035 5.75827 52.2913C5.48878 51.8969 5.25408 51.5026 5.04834 51.1314C4.90069 50.8336 4.86869 50.4915 4.95852 50.1715C5.13528 49.7481 5.20192 48.8172 4.95852 48.4577C4.71511 48.0981 4.39345 48.8085 4.31522 48.9361C4.23698 49.0637 4.16454 49.0637 4.05153 48.9361C3.97041 48.7166 3.90076 48.493 3.84289 48.2662C3.80494 48.1138 3.73735 47.9704 3.64397 47.8442C3.5506 47.718 3.43327 47.6114 3.2987 47.5306C3.16414 47.4498 3.01496 47.3964 2.85973 47.3733C2.7045 47.3502 2.54626 47.358 2.39404 47.3962C2.30966 47.4166 2.22798 47.4467 2.15064 47.4862C1.90811 47.6064 1.71386 47.8059 1.60004 48.0516C1.48622 48.2974 1.45965 48.5746 1.52473 48.8375C2.00357 50.5502 2.76028 52.1726 3.76465 53.6398C5.99588 56.9109 8.69075 57.4097 9.46734 57.4967H9.52239V61.5565L15.5467 65.0364V69.8126H14.1616C13.8616 69.8134 13.5742 69.9331 13.3623 70.1457C13.1505 70.3582 13.0315 70.6462 13.0315 70.9464C13.0315 71.2466 13.1505 71.5346 13.3623 71.7472C13.5742 71.9597 13.8616 72.0796 14.1616 72.0803H18.1894V66.5705L19.7947 67.4985L30.0642 61.5623V49.6929L19.8208 43.783Z" fill="#3154FF" stroke="black" stroke-width="0.5" stroke-miterlimit="10"/>
<path d="M17.5113 55.6291V56.9485C17.5147 57.1317 17.4761 57.3133 17.3983 57.4792C17.3148 57.6657 17.1806 57.8249 17.011 57.9388C16.8414 58.0526 16.6433 58.1164 16.4392 58.123C16.2551 58.1194 16.0751 58.0677 15.917 57.9731C15.7589 57.8785 15.6283 57.7443 15.538 57.5836C15.4334 57.3938 15.3805 57.1798 15.3844 56.963V55.5914C15.3808 55.3756 15.4338 55.1626 15.538 54.9737C15.6277 54.8123 15.7581 54.6773 15.9162 54.5821C16.0744 54.487 16.2547 54.435 16.4392 54.4314C16.5857 54.4336 16.7301 54.4668 16.863 54.5287C16.9958 54.5907 17.1141 54.6801 17.21 54.791C17.4106 55.0234 17.5179 55.322 17.5113 55.6291Z" fill="white" stroke="#1D1D1B" stroke-width="0.5" stroke-linecap="round" stroke-linejoin="round"/>
<path d="M16.4479 56.4932C17.0304 56.4932 17.5026 56.0206 17.5026 55.4376C17.5026 54.8547 17.0304 54.3821 16.4479 54.3821C15.8654 54.3821 15.3931 54.8547 15.3931 55.4376C15.3931 56.0206 15.8654 56.4932 16.4479 56.4932Z" fill="#1D1D1B"/>
<path d="M23.4574 55.6291V56.9485C23.4618 57.1315 23.4241 57.3131 23.3473 57.4792C23.263 57.6657 23.1282 57.8248 22.9582 57.9386C22.7882 58.0524 22.5897 58.1163 22.3853 58.123C22.2015 58.1192 22.022 58.0674 21.8645 57.9728C21.7069 57.8782 21.5768 57.7441 21.487 57.5836C21.3802 57.3945 21.3262 57.1802 21.3305 56.963V55.5914C21.3265 55.3752 21.3806 55.1619 21.487 54.9737C21.5762 54.8126 21.7061 54.6776 21.8637 54.5825C22.0214 54.4873 22.2012 54.4352 22.3853 54.4314C22.5318 54.4336 22.6762 54.4668 22.809 54.5287C22.9419 54.5907 23.0601 54.6801 23.1561 54.791C23.3567 55.0234 23.464 55.322 23.4574 55.6291Z" fill="white" stroke="#1D1D1B" stroke-width="0.5" stroke-linecap="round" stroke-linejoin="round"/>
<path d="M22.394 56.4932C22.9765 56.4932 23.4488 56.0206 23.4488 55.4376C23.4488 54.8547 22.9765 54.3821 22.394 54.3821C21.8115 54.3821 21.3392 54.8547 21.3392 55.4376C21.3392 56.0206 21.8115 56.4932 22.394 56.4932Z" fill="#1D1D1B"/>
</svg>
