<svg width="97" height="58" viewBox="0 0 97 58" fill="none" xmlns="http://www.w3.org/2000/svg">
<path d="M15.2336 10.5851C15.2339 11.4369 15.1088 12.284 14.8625 13.0994C14.6128 13.9206 14.1648 14.6678 13.5581 15.275C12.8458 15.9644 11.9872 16.4843 11.0461 16.796C9.99061 17.177 8.65165 17.3668 7.02921 17.3652C7.05593 17.856 7.1764 18.3371 7.38412 18.7825C7.55074 19.1329 7.78582 19.4463 8.0755 19.7044C8.32484 19.9255 8.61113 20.101 8.92128 20.2229C9.18973 20.3291 9.46748 20.4102 9.75094 20.4649C10.0471 20.5145 10.3471 20.5376 10.6474 20.534C11.3147 20.467 11.9644 20.2796 12.5648 19.9809C12.815 19.8632 13.0522 19.7195 13.2724 19.5523C13.5085 19.3664 13.7199 19.1511 13.9015 18.9116C14.0959 18.6538 14.2512 18.3688 14.3624 18.0658C14.4914 17.7137 14.5645 17.3436 14.5791 16.9688C14.8569 17.6466 15.0684 18.3497 15.2105 19.0683C15.3256 19.6693 15.3857 20.2794 15.3903 20.8912C15.4011 21.8721 15.2105 22.8447 14.8303 23.7489C14.4704 24.5959 13.9446 25.3623 13.2839 26.0028C12.6106 26.6465 11.8153 27.1488 10.9447 27.4801C10.0041 27.8367 9.00532 28.0149 7.99945 28.0055C6.97681 28.0084 5.96199 27.8273 5.00347 27.4709C4.03177 27.1073 3.15656 26.5254 2.44537 25.7701C1.64607 24.8956 1.04056 23.8621 0.668533 22.7372C0.224515 21.4943 0.00250547 19.9863 0.00250547 18.2133C-0.0297502 16.4731 0.249669 14.7412 0.827551 13.0994C1.31724 11.7187 2.07367 10.4478 3.05379 9.35906C3.95818 8.36973 5.06272 7.58414 6.29405 7.05447C7.51377 6.53218 8.8274 6.26474 10.1542 6.2686C10.8026 6.26828 11.4486 6.34566 12.0786 6.49906C12.6604 6.63642 13.2089 6.88873 13.6918 7.24114C14.1629 7.59381 14.5442 8.05253 14.8049 8.58011C15.103 9.20561 15.2498 9.89242 15.2336 10.5851ZM6.96007 14.5237C7.34065 14.5017 7.71734 14.4352 8.08241 14.3255C8.50506 14.2049 8.91139 14.0331 9.29232 13.8138C9.66019 13.6063 9.98549 13.3311 10.251 13.0026C10.5052 12.6912 10.6422 12.3006 10.6382 11.8987C10.6427 11.7781 10.6202 11.658 10.5723 11.5471C10.5245 11.4363 10.4525 11.3375 10.3617 11.258C10.1626 11.0962 9.9104 11.014 9.65415 11.0276C9.26662 11.0226 8.88801 11.1439 8.57559 11.3733C8.25367 11.6083 7.97854 11.9014 7.76438 12.2375C7.53473 12.5928 7.35193 12.9762 7.2205 13.3783C7.09128 13.7492 7.00393 14.1333 6.96007 14.5237Z" fill="black"/>
<path d="M25.0697 26.5789C24.8738 26.5789 24.6433 26.5489 24.3783 26.5259L23.5579 26.4913C23.2398 26.4798 22.8803 26.4752 22.477 26.4752C21.7303 26.4752 20.8638 26.5074 19.8959 26.5697C18.9279 26.6319 17.8678 26.7517 16.7271 26.9246C16.9226 26.4966 17.0672 26.0472 17.158 25.5856C17.2848 25.0141 17.3885 24.3711 17.4876 23.6498C17.5867 22.9284 17.6558 22.1656 17.718 21.3452C17.7802 20.5247 17.8333 19.7181 17.8724 18.9C17.9116 18.0818 17.9416 17.2868 17.96 16.5262C17.9784 15.7657 17.99 15.0697 18.0038 14.4521C18.0176 13.8345 18.0199 13.316 18.0199 12.8896V12.0622C17.9969 10.1387 17.9454 8.35339 17.8655 6.70638C17.8309 6.015 17.7895 5.32362 17.7434 4.61841C17.6973 3.91321 17.6397 3.25871 17.5705 2.64799C17.5014 2.03727 17.423 1.49569 17.3401 1.03477C17.286 0.67794 17.1845 0.329925 17.0382 0C17.9708 0.15364 18.8342 0.262734 19.6285 0.327262C20.4236 0.384877 21.1357 0.412531 21.7695 0.412531C22.1843 0.412531 22.5577 0.412535 22.8918 0.387184C23.226 0.361834 23.5095 0.350308 23.7399 0.327262C24.0142 0.304216 24.2562 0.274256 24.4636 0.239687C24.3606 0.758988 24.2661 1.41579 24.1801 2.21011C24.0941 3.00443 24.0172 3.8963 23.9496 4.88574C23.8882 5.87672 23.8398 6.94221 23.8045 8.08221C23.7691 9.22222 23.7515 10.3968 23.7515 11.6059C23.7515 12.9887 23.7745 14.3814 23.8206 15.7842C23.8667 17.1869 23.9435 18.5458 24.0511 19.861C24.1555 21.1731 24.2915 22.4022 24.459 23.5483C24.5974 24.5706 24.8014 25.5828 25.0697 26.5789Z" fill="black"/>
<path d="M43.6931 6.80303C43.5498 7.37727 43.4428 7.95994 43.3727 8.54761C43.2875 9.22516 43.2091 9.95802 43.1423 10.7393C43.0754 11.5205 43.0178 12.3525 42.9787 13.1937C42.9395 14.0348 42.9003 14.8737 42.8657 15.6803C42.7966 17.5793 42.7566 19.5828 42.7459 21.6907C42.7471 22.851 42.6748 24.0103 42.5293 25.1614C42.3949 26.2553 42.1635 27.335 41.8379 28.3879C41.5364 29.3749 41.1252 30.3249 40.6118 31.2202C40.1306 32.0654 39.5122 32.8248 38.782 33.4672C38.0424 34.1054 37.1938 34.605 36.2769 34.9421C35.2427 35.3146 34.1496 35.4965 33.0505 35.4791C32.0721 35.4964 31.0959 35.3801 30.149 35.1334C29.4145 34.9445 28.7245 34.6124 28.1186 34.1563C27.6022 33.7599 27.1927 33.2411 26.9272 32.6467C26.6624 32.0361 26.5297 31.3764 26.5377 30.7109C26.5288 30.0567 26.6527 29.4076 26.9018 28.8027C27.1223 28.265 27.4447 27.7751 27.8513 27.36C28.2328 26.9761 28.6841 26.6687 29.1811 26.4543C29.6548 26.246 30.1662 26.137 30.6836 26.134C31.3345 26.1358 31.9706 26.3281 32.5135 26.6871C33.1309 27.1088 33.5924 27.7218 33.8271 28.4317C33.7606 28.3759 33.6815 28.3371 33.5967 28.3187C33.5057 28.3072 33.4139 28.3041 33.3224 28.3095C33.1887 28.3114 33.0568 28.3413 32.9352 28.3971C32.8034 28.4507 32.6829 28.5289 32.5803 28.6275C32.4776 28.7306 32.3934 28.8507 32.3314 28.9824C32.2669 29.1144 32.2338 29.2596 32.2346 29.4065C32.2301 29.5598 32.2658 29.7115 32.3383 29.8467C32.4 29.9586 32.4858 30.0554 32.5895 30.1301C32.6879 30.2003 32.7991 30.2504 32.9168 30.2776C33.0276 30.3058 33.1413 30.3205 33.2556 30.3214C33.4606 30.3139 33.6636 30.279 33.8594 30.2177C34.1368 30.1274 34.3926 29.9807 34.6107 29.7867C34.9115 29.5174 35.173 29.2071 35.3873 28.8649C35.6885 28.3783 35.9212 27.8525 36.0787 27.3024C36.3053 26.5259 36.4672 25.7319 36.5627 24.9287C36.6921 23.8166 36.7467 22.6971 36.7263 21.5778C36.4857 22.2637 36.1696 22.9207 35.7837 23.5367C35.5075 23.9813 35.1576 24.3757 34.749 24.7028C34.4091 24.9679 34.0161 25.1566 33.5967 25.2559C33.18 25.3503 32.754 25.3967 32.3268 25.3942C31.7246 25.3875 31.1273 25.2856 30.5569 25.0923C29.9154 24.8756 29.3353 24.5081 28.8653 24.0207C28.2977 23.4199 27.8648 22.7049 27.5955 21.9235C27.2606 21.037 27.0939 19.9085 27.0954 18.538C27.0954 18.3537 27.0954 18.2246 27.0954 18.1485C27.0954 18.0725 27.0954 18.0172 27.0954 17.9757C27.097 17.9268 27.1031 17.8782 27.1138 17.8305C27.1281 17.7182 27.1335 17.6049 27.13 17.4917C27.13 17.3258 27.13 17.0861 27.13 16.775C27.13 16.4639 27.13 16.0283 27.13 15.4637C27.13 14.8069 27.1161 14.0648 27.0954 13.2352C27.0747 12.4055 27.0216 11.5943 26.9479 10.7992C26.8821 10.0716 26.7751 9.34836 26.6276 8.63288C26.5435 8.12216 26.3619 7.63238 26.0929 7.1902C26.9648 7.34441 27.844 7.45441 28.727 7.51976C29.549 7.57814 30.3003 7.60656 30.9809 7.60502C31.4303 7.60502 31.8359 7.60503 32.1978 7.57968C32.5596 7.55433 32.8753 7.5428 33.1403 7.51976C33.4054 7.49671 33.7096 7.46675 33.9516 7.43218C33.8119 7.7947 33.7108 8.17089 33.6497 8.55453C33.539 9.10763 33.4323 9.76982 33.3293 10.5411C33.2264 11.3124 33.1403 12.1574 33.0712 13.0761C33.0021 13.998 32.9675 14.9198 32.9675 15.8417C32.9581 16.4438 33.0098 17.0453 33.1219 17.6369C33.2002 18.0618 33.3432 18.4722 33.546 18.8537C33.6924 19.1318 33.9054 19.3693 34.1659 19.5451C34.3948 19.6948 34.6621 19.7749 34.9356 19.7756C35.1405 19.7812 35.3435 19.7352 35.526 19.6418C35.7084 19.5483 35.8644 19.4105 35.9796 19.2409C36.2674 18.828 36.4919 18.3743 36.6456 17.895C36.6226 17.1806 36.5819 16.3456 36.5235 15.3899C36.4651 14.4343 36.3883 13.4357 36.293 12.394C36.1962 11.3584 36.0695 10.3137 35.9128 9.25974C35.7901 8.27681 35.6178 7.30072 35.3965 6.33521C35.8148 6.47861 36.2421 6.59409 36.6756 6.68089C37.1889 6.785 37.7074 6.86193 38.2289 6.91135C38.9467 6.97887 39.6674 7.01039 40.3883 7.00584C41.4928 6.99904 42.596 6.93133 43.6931 6.80303Z" fill="black"/>
<path d="M59.7146 10.9467C59.7213 11.3775 59.6266 11.8038 59.438 12.1912C59.2586 12.5527 59.0059 12.8729 58.6959 13.1315C58.3723 13.3979 58.003 13.6033 57.6059 13.7376C57.1838 13.882 56.7406 13.9544 56.2946 13.9519C55.8356 13.9627 55.378 13.8988 54.9394 13.7629C54.5967 13.6533 54.2749 13.4866 53.9877 13.2698C53.7434 13.0853 53.5355 12.8572 53.3746 12.5968C53.2346 12.3697 53.1165 12.1297 53.022 11.8801C52.9408 11.6749 52.8851 11.4605 52.8561 11.2417C52.8365 11.0888 52.8258 10.9349 52.8238 10.7808C52.861 10.8655 52.9154 10.9414 52.9837 11.0037C53.052 11.066 53.1325 11.1134 53.2202 11.1426C53.3434 11.1821 53.4713 11.2054 53.6005 11.2118C53.7049 11.2227 53.8104 11.2097 53.909 11.1737C54.0077 11.1378 54.0968 11.0798 54.1697 11.0043C54.2772 10.8861 54.3385 10.7331 54.3426 10.5734C54.3394 10.4662 54.3159 10.3607 54.2734 10.2623C54.2199 10.1375 54.1368 10.0275 54.0314 9.94192C53.8968 9.83418 53.7448 9.75003 53.582 9.69302C53.3595 9.61785 53.1254 9.58275 52.8907 9.58932C52.7025 9.5925 52.5163 9.62755 52.3399 9.69302C52.1442 9.76221 51.9647 9.8704 51.8121 10.0111C51.6503 10.1645 51.5183 10.3466 51.4226 10.548C51.3167 10.7776 51.2639 11.0281 51.2682 11.2809C51.2528 11.7504 51.3921 12.2119 51.6646 12.5945C51.9508 12.9712 52.3059 13.2903 52.7109 13.5348C53.1788 13.8251 53.6698 14.0764 54.1789 14.2861L55.8613 15.0028C56.4364 15.251 56.9986 15.5279 57.5459 15.8325C58.085 16.133 58.5791 16.5077 59.014 16.9456C59.4574 17.3999 59.8122 17.933 60.0603 18.5173C60.339 19.2088 60.4739 19.9498 60.4566 20.6952C60.4713 21.7008 60.2461 22.6954 59.7998 23.5966C59.3715 24.4475 58.7748 25.2025 58.046 25.816C57.2974 26.4426 56.4374 26.9227 55.511 27.231C54.5257 27.5673 53.4915 27.7378 52.4505 27.7357C51.5087 27.7407 50.5713 27.6063 49.6688 27.337C48.8447 27.0994 48.0659 26.7263 47.3642 26.2331C46.7337 25.788 46.2018 25.2177 45.8017 24.5576C45.4205 23.9273 45.2203 23.2041 45.2233 22.4674C45.2122 21.9611 45.3064 21.4581 45.4998 20.9901C45.6718 20.5876 45.9344 20.2304 46.2673 19.9462C46.606 19.664 46.9978 19.4524 47.4196 19.3239C47.8864 19.1822 48.3721 19.1123 48.8599 19.1165C49.2434 19.1172 49.6258 19.1582 50.0007 19.2387C50.3712 19.3156 50.731 19.4371 51.0723 19.6005C51.3958 19.756 51.6972 19.9536 51.9688 20.1881C52.2289 20.412 52.4461 20.6815 52.6095 20.9832C52.5207 20.9605 52.4307 20.9428 52.3399 20.9302C52.2512 20.9189 52.1619 20.9135 52.0725 20.9141C51.9597 20.9004 51.8452 20.9132 51.7381 20.9515C51.6311 20.9897 51.5344 21.0523 51.4557 21.1344C51.377 21.2164 51.3185 21.3156 51.2847 21.4242C51.251 21.5328 51.243 21.6477 51.2613 21.7599C51.2601 21.9166 51.2952 22.0714 51.364 22.2122C51.4328 22.3529 51.5333 22.4758 51.6577 22.5711C51.9033 22.7823 52.2165 22.8985 52.5404 22.8983C52.7194 22.8991 52.8962 22.858 53.0566 22.7785C53.2149 22.7006 53.356 22.5916 53.4714 22.4582C53.5859 22.3284 53.6764 22.1794 53.7388 22.018C53.8029 21.8591 53.8358 21.6893 53.8356 21.5179C53.8219 21.1743 53.7178 20.8404 53.5337 20.55C53.323 20.1968 53.0295 19.9002 52.6786 19.6857C51.9535 19.2387 51.2682 18.8546 50.6229 18.5334C49.9777 18.2123 49.3846 17.9051 48.8438 17.6116C48.3015 17.3243 47.8152 17.0362 47.385 16.7474C46.9659 16.474 46.5952 16.1329 46.288 15.738C45.9765 15.329 45.7422 14.8667 45.5966 14.3737C45.4223 13.753 45.3408 13.11 45.3546 12.4654C45.3436 11.6231 45.5207 10.7889 45.8732 10.0238C46.2256 9.2587 46.7445 8.58193 47.3919 8.04293C48.1084 7.45895 48.9296 7.01701 49.8117 6.74083C50.8607 6.40858 51.9564 6.24751 53.0566 6.26379C54.1126 6.23845 55.1657 6.38477 56.1747 6.69705C56.9234 6.93209 57.6209 7.30665 58.2304 7.80095C58.7203 8.20611 59.1079 8.72085 59.362 9.30355C59.5878 9.82233 59.7076 10.381 59.7146 10.9467Z" fill="black"/>
<path d="M50.4087 56.9004C50.1906 56.8774 49.937 56.8543 49.6482 56.8312C49.4177 56.8082 49.1158 56.7921 48.7771 56.7806C48.4383 56.769 48.0649 56.7621 47.6616 56.7621C47.0855 56.7621 46.4556 56.7852 45.7719 56.8312C45.0625 56.8805 44.3563 56.9674 43.6563 57.0917L43.7254 52.2382C43.2875 53.9528 42.6453 55.2764 41.7988 56.209C40.9522 57.1416 39.9589 57.6079 38.8189 57.6079C38.4128 57.6024 38.0082 57.556 37.6113 57.4696C37.1259 57.3672 36.6594 57.1899 36.2285 56.9442C35.7235 56.6533 35.2638 56.2899 34.8642 55.8656C34.3752 55.3376 33.9751 54.7336 33.6797 54.0773C33.2983 53.2271 33.0205 52.3342 32.8523 51.4178C32.6291 50.1955 32.5249 48.9544 32.5412 47.712C32.5091 46.0382 32.7069 44.3679 33.1289 42.7479C33.4425 41.5466 33.9534 40.4056 34.6407 39.3716C35.1559 38.5847 35.8471 37.9282 36.6595 37.4542C37.3164 37.0726 38.0594 36.8641 38.8189 36.8481C39.3729 36.8418 39.9241 36.9266 40.4506 37.0993C40.9119 37.253 41.3506 37.4677 41.755 37.7377C42.1204 37.9838 42.4513 38.2775 42.739 38.6111C42.9978 38.908 43.2242 39.2318 43.4143 39.5768C43.3789 39.188 43.3267 38.7709 43.2576 38.3254C43.1884 37.8798 43.1078 37.4189 43.0156 36.9426C43.7684 37.0933 44.5307 37.1918 45.2971 37.2376C46.0653 37.2837 46.779 37.3067 47.4381 37.3067C48.2217 37.3067 48.8531 37.2883 49.3371 37.2537C49.6136 37.2422 49.8671 37.2261 50.0976 37.203C49.9708 37.7792 49.8556 38.4221 49.7519 39.1366C49.6482 39.851 49.5583 40.6138 49.4846 41.425C49.4108 42.2362 49.3509 43.089 49.3117 43.9808C49.2726 44.8727 49.2518 45.7853 49.2518 46.7187C49.2518 48.4594 49.3378 50.204 49.5099 51.9524C49.6674 53.6244 49.9681 55.2798 50.4087 56.9004ZM43.3106 47.0045V44.2113C43.3098 43.8941 43.2921 43.5771 43.2576 43.2618C43.2296 42.9577 43.1517 42.6603 43.0271 42.3814C42.9117 42.1233 42.7305 41.8999 42.5017 41.7339C42.2252 41.5528 41.8982 41.4648 41.5683 41.4826C41.3761 41.4769 41.185 41.5124 41.0077 41.5867C40.8304 41.6611 40.6711 41.7725 40.5404 41.9136C40.2385 42.2564 40.0144 42.6605 39.8836 43.0982C39.7024 43.6757 39.5864 44.2717 39.5379 44.875C39.4757 45.5664 39.4435 46.3062 39.4435 47.1128C39.4443 47.5806 39.4759 48.0479 39.5379 48.5117C39.5939 48.9514 39.7014 49.383 39.8583 49.7976C39.9872 50.1527 40.1935 50.4746 40.4621 50.7402C40.7096 50.9777 41.0409 51.1078 41.3839 51.102C41.5726 51.1092 41.7604 51.0743 41.9338 50.9997C42.1073 50.9252 42.2619 50.8129 42.3864 50.6711C42.6517 50.358 42.8487 49.993 42.9649 49.5994C43.0988 49.1632 43.1883 48.7146 43.2322 48.2605C43.2845 47.7919 43.3106 47.3732 43.3106 47.0045Z" fill="black"/>
<path d="M51.9711 56.9002C52.2007 56.0163 52.3792 55.1199 52.5057 54.2154C52.6594 53.1968 52.7807 52.1028 52.8699 50.9336C52.959 49.7644 53.025 48.5469 53.0681 47.2809C53.108 46.0133 53.128 44.7412 53.128 43.4645C53.128 42.0817 53.1049 40.7258 53.0588 39.3968C53.0127 38.0679 52.9521 36.8211 52.8768 35.6565C52.803 34.495 52.7139 33.4502 52.6094 32.5222C52.505 31.5943 52.3959 30.843 52.2822 30.2683C52.4896 30.3029 52.7431 30.3329 53.0081 30.3559C53.2386 30.379 53.5174 30.3974 53.8447 30.4158C54.172 30.4343 54.5499 30.4412 54.9763 30.4412C55.6108 30.4412 56.3275 30.4128 57.1264 30.3559C57.9918 30.2897 58.8533 30.1797 59.7076 30.0264C59.577 30.3341 59.4819 30.6558 59.4241 30.9851C59.3366 31.4076 59.2597 31.8939 59.1937 32.4439C59.1268 32.997 59.0669 33.5962 59.0231 34.2415C58.9793 34.8868 58.9355 35.5343 58.901 36.1842C58.8664 36.8341 58.8388 37.4748 58.8157 38.1017C58.7927 38.7285 58.7742 39.3024 58.7627 39.8186C59.1769 38.8671 59.8284 38.0379 60.6548 37.4103C61.4429 36.8295 62.4416 36.5392 63.6507 36.5392C63.9922 36.5499 64.3311 36.6017 64.6602 36.6936C65.1179 36.8176 65.5544 37.0095 65.9553 37.2628C66.458 37.5782 66.9167 37.9587 67.3197 38.3943C67.8211 38.9424 68.2354 39.5642 68.548 40.238C68.9467 41.0918 69.2422 41.99 69.4284 42.9137C69.6682 44.1223 69.781 45.3527 69.7648 46.5849C69.7648 48.6575 69.5574 50.3928 69.1426 51.791C68.8195 52.9989 68.2842 54.1398 67.5616 55.1603C67.014 55.9296 66.2849 56.5518 65.4391 56.9717C64.7372 57.3171 63.9674 57.5028 63.1852 57.5156C62.6461 57.5137 62.1186 57.3587 61.6642 57.0685C61.1674 56.7582 60.7244 56.369 60.3529 55.9162C59.9475 55.4211 59.6024 54.8796 59.325 54.303C59.0382 53.7242 58.8149 53.1161 58.659 52.4893C58.6936 52.7197 58.742 53.0838 58.8065 53.5517C58.871 54.0195 58.9355 54.4942 59.0047 54.9851C59.0738 55.476 59.1453 55.9208 59.2213 56.3218C59.2552 56.5903 59.3274 56.8527 59.4356 57.1007C58.7074 56.9732 57.9727 56.8862 57.2348 56.8403C56.4927 56.7942 55.8013 56.7712 55.1606 56.7712C54.6997 56.7712 54.2618 56.7712 53.8816 56.7896C53.5013 56.808 53.1671 56.8173 52.8814 56.8403C52.5403 56.8572 52.2369 56.8772 51.9711 56.9002ZM59.0001 46.9352V47.9538C59.0008 48.271 59.0185 48.588 59.0531 48.9033C59.0813 49.2081 59.1592 49.5062 59.2835 49.786C59.3989 50.0441 59.5801 50.2675 59.809 50.4335C60.0861 50.6127 60.4128 50.6998 60.7424 50.6824C61.0007 50.6887 61.2523 50.6001 61.4499 50.4335C61.6543 50.2535 61.8191 50.033 61.9338 49.786C62.0696 49.4952 62.1739 49.1908 62.2449 48.8779C62.3245 48.5456 62.3822 48.2084 62.4178 47.8685C62.4531 47.5336 62.4762 47.2109 62.4869 46.9006C62.4984 46.5895 62.5031 46.3314 62.5031 46.1239C62.5031 45.8128 62.4892 45.3934 62.4616 44.8633C62.4321 44.3376 62.3651 43.8147 62.2611 43.2985C62.1746 42.8328 62.0143 42.3839 61.7863 41.9688C61.7193 41.8248 61.6179 41.6995 61.491 41.604C61.3641 41.5085 61.2156 41.4457 61.0587 41.4211C60.9018 41.3965 60.7413 41.4109 60.5913 41.463C60.4412 41.5151 60.3063 41.6033 60.1985 41.7199C59.9784 41.9536 59.8027 42.2253 59.6799 42.5219C59.5286 42.8783 59.4128 43.2489 59.3342 43.6281C59.249 44.036 59.1798 44.4462 59.1268 44.8541C59.0738 45.262 59.0416 45.6515 59.0231 46.0202C59.0047 46.389 59.0001 46.6932 59.0001 46.9352Z" fill="black"/>
<path d="M79.6308 56.5891C79.4349 56.5891 79.2045 56.5615 78.9395 56.5384L78.119 56.5039C77.8033 56.5039 77.4415 56.4854 77.0405 56.4854C76.2923 56.4854 75.4311 56.5177 74.457 56.5822C73.4829 56.6468 72.4267 56.7643 71.2882 56.9348C71.4841 56.507 71.6287 56.0576 71.7192 55.5959C71.8467 55.0274 71.9565 54.3829 72.0487 53.6623C72.1409 52.9433 72.217 52.1781 72.2792 51.3577C72.3414 50.5373 72.3944 49.7445 72.4336 48.9148C72.4728 48.0852 72.5027 47.3016 72.5212 46.5388C72.5396 45.776 72.5534 45.0846 72.565 44.4647C72.5765 43.8447 72.5811 43.3285 72.5811 42.9022V42.0725C72.558 40.1505 72.5066 38.3659 72.4267 36.7189C72.3929 36.0275 72.3522 35.3308 72.3045 34.6287C72.2584 33.9258 72.2008 33.2713 72.1317 32.6605C72.0626 32.0498 71.9865 31.5082 71.9012 31.0473C71.8468 30.6898 71.7453 30.3411 71.5993 30.0103C72.5319 30.1639 73.3954 30.2737 74.1897 30.3398C74.984 30.4059 75.6977 30.4343 76.3307 30.4251C76.7455 30.4251 77.1211 30.4251 77.453 30.3997C77.7849 30.3744 78.0706 30.3629 78.3011 30.3398C78.5776 30.3168 78.8196 30.2868 79.0247 30.2522C78.9203 30.7715 78.8258 31.4276 78.7413 32.2204C78.6568 33.0131 78.5799 33.9058 78.5108 34.8983C78.4478 35.8893 78.3994 36.954 78.3656 38.0925C78.3318 39.2309 78.3141 40.4055 78.3126 41.6162C78.3126 42.9989 78.3357 44.3925 78.3817 45.7967C78.4278 47.201 78.5047 48.5599 78.6122 49.8736C78.7167 51.1856 78.8519 52.4147 79.0178 53.5609C79.1568 54.5824 79.3616 55.5939 79.6308 56.5891Z" fill="black"/>
<path d="M96.1847 40.5975C96.1856 41.4516 96.0605 42.3011 95.8137 43.1188C95.5634 43.9397 95.1155 44.6868 94.5093 45.2943C93.7965 45.9843 92.937 46.5042 91.995 46.8153C90.9426 47.1933 89.6044 47.383 87.9804 47.3846C88.0068 47.8747 88.1273 48.3551 88.3353 48.7996C88.5022 49.1498 88.7372 49.4632 89.0267 49.7214C89.2761 49.9419 89.5624 50.1166 89.8725 50.2377C90.1413 50.34 90.419 50.4171 90.7021 50.4681C90.9983 50.5178 91.2983 50.5409 91.5986 50.5373C92.2659 50.4702 92.9155 50.2828 93.516 49.9841C93.7677 49.8646 94.0051 49.717 94.2235 49.544C94.4614 49.3602 94.6738 49.1455 94.855 48.9056C95.0489 48.6475 95.2041 48.3626 95.3159 48.0598C95.4449 47.7077 95.518 47.3376 95.5325 46.9628C95.8107 47.6405 96.0222 48.3436 96.164 49.0623C96.2791 49.6625 96.3392 50.2719 96.3438 50.8829C96.3548 51.8638 96.1642 52.8365 95.7837 53.7406C95.425 54.5882 94.8991 55.3548 94.2374 55.9945C93.5643 56.6395 92.7679 57.142 91.8959 57.4718C90.9564 57.8296 89.9582 58.0085 88.9529 57.9995C87.9302 58.0012 86.9155 57.8193 85.957 57.4626C84.9854 57.1001 84.1107 56.518 83.4012 55.7618C82.6014 54.8881 81.9951 53.8554 81.622 52.7312C81.1795 51.4867 80.9583 49.9788 80.9583 48.2073C80.9278 46.4669 81.2088 44.735 81.7879 43.0934C82.2771 41.7195 83.0311 40.455 84.0073 39.3715C84.9123 38.3819 86.0177 37.5963 87.2498 37.0669C88.4688 36.5448 89.7816 36.2774 91.1077 36.281C91.7568 36.2806 92.4037 36.358 93.0344 36.5115C93.6165 36.6479 94.1652 36.9002 94.6476 37.2536C95.1191 37.6057 95.5006 38.0646 95.7607 38.5925C96.0572 39.2184 96.2024 39.9052 96.1847 40.5975ZM87.9112 44.5338C88.292 44.513 88.6688 44.4465 89.0336 44.3356C89.4565 44.2168 89.863 44.0457 90.2435 43.8263C90.6109 43.618 90.936 43.3429 91.2022 43.0151C91.4567 42.703 91.5937 42.3115 91.5894 41.9089C91.5938 41.7886 91.5713 41.6688 91.5235 41.5583C91.4756 41.4479 91.4036 41.3495 91.3128 41.2705C91.1137 41.1086 90.8616 41.0265 90.6053 41.04C90.2178 41.035 89.8392 41.1564 89.5268 41.3857C89.2049 41.6207 88.9297 41.9138 88.7155 42.2499C88.4847 42.604 88.3011 42.9868 88.1694 43.3884C88.041 43.7594 87.9545 44.1436 87.9112 44.5338Z" fill="black"/>
<path d="M72.9614 7.04053C72.9483 7.66342 72.8395 8.28059 72.6388 8.87038C72.4196 9.55208 72.1507 10.2168 71.8344 10.8592C71.5251 11.4965 71.166 12.1083 70.7605 12.6891C70.4298 13.1769 70.049 13.6287 69.6243 14.0373L65.536 13.5602C65.9654 13.2227 66.362 12.8453 66.7206 12.4333C67.0826 12.0187 67.4189 11.5823 67.7277 11.1266C67.2514 11.0918 66.7883 10.9542 66.3703 10.7233C65.9641 10.4999 65.6055 10.1993 65.3148 9.83829C65.0094 9.46545 64.775 9.03974 64.6234 8.5823C64.4588 8.08668 64.3771 7.56733 64.3814 7.04513C64.3881 6.56393 64.4658 6.08636 64.6118 5.62781C64.7609 5.13376 65.0034 4.67294 65.3263 4.2704C65.6808 3.83251 66.131 3.48168 66.6422 3.24486C67.2803 2.95788 67.9755 2.81996 68.6748 2.84155C69.3207 2.82914 69.9637 2.93136 70.5738 3.14345C71.08 3.32027 71.5377 3.61308 71.9105 3.99846C72.2665 4.37806 72.5348 4.83122 72.6964 5.32591C72.8768 5.87936 72.9663 6.45842 72.9614 7.04053Z" fill="black"/>
<path d="M16.0379 57.5228C16.3139 57.4955 16.5708 57.3696 16.7614 57.1682C16.9521 56.9667 17.0637 56.7033 17.0757 56.4262C17.0878 56.1491 16.9995 55.8769 16.827 55.6597C16.6546 55.4425 16.4096 55.2947 16.137 55.2436L14.669 55.1122C14.9363 49.2609 15.6622 46.44 15.6715 46.4101C15.7086 46.132 15.6431 45.85 15.4871 45.6168C15.3312 45.3836 15.0955 45.2153 14.8243 45.1435C14.5532 45.0717 14.2651 45.1013 14.0142 45.2267C13.7633 45.3521 13.5667 45.5647 13.4614 45.8247C13.4268 45.9607 12.5764 49.2263 12.3413 56.1101L12.3044 57.1794L13.3692 57.2854C13.8854 57.3361 15.8512 57.5159 15.9342 57.5159C15.9686 57.5205 16.0032 57.5228 16.0379 57.5228Z" fill="black" stroke="black" stroke-width="0.3" stroke-linecap="round" stroke-linejoin="round"/>
<path d="M22.4102 47.2582C22.0911 45.9856 21.4277 44.8255 20.4928 43.905C20.3798 43.7935 20.2449 43.7065 20.0967 43.6496C19.9485 43.5926 19.7901 43.5669 19.6315 43.574C19.4729 43.5812 19.3175 43.621 19.175 43.6911C19.0325 43.7611 18.906 43.8599 18.8035 43.9811C18.6226 44.2076 18.5325 44.4933 18.5508 44.7826C18.5691 45.0719 18.6945 45.344 18.9026 45.5459C19.8728 46.5115 20.7808 48.2446 20.2254 51.2359C20.0434 51.524 19.4303 51.8121 19.1907 52.1901C19.0035 52.4647 18.8871 52.7814 18.8519 53.1119C18.8634 53.2248 19.034 53.4368 19.4834 52.8676C19.5068 52.8382 19.5399 52.8181 19.5768 52.8108C19.6136 52.8035 19.6519 52.8095 19.6848 52.8277C19.7176 52.846 19.743 52.8752 19.7563 52.9104C19.7697 52.9455 19.7701 52.9843 19.7576 53.0197L19.723 53.1188C19.3428 54.3794 19.6769 54.8703 20.2738 55.0708H20.2946C20.8869 55.2575 21.5506 54.8403 21.8894 53.8401C22.7328 51.3742 22.9057 49.1595 22.4102 47.2582Z" fill="black" stroke="black" stroke-width="0.3" stroke-linecap="round" stroke-linejoin="round"/>
<path d="M21.2855 34.9379H2.08131C1.84112 34.9376 1.60323 34.9846 1.38123 35.0763C1.15924 35.168 0.957502 35.3026 0.787555 35.4723C0.617607 35.6421 0.482785 35.8436 0.390799 36.0655C0.298812 36.2874 0.251465 36.5252 0.251465 36.7654V44.5296C0.251656 44.8793 0.352325 45.2217 0.541491 45.5158C0.730657 45.81 1.00035 46.0436 1.31849 46.1889C1.17103 46.5359 1.04932 46.8933 0.954367 47.2582C0.461184 49.1595 0.631723 51.3743 1.46138 53.8471C1.80015 54.8542 2.46387 55.2644 3.05615 55.0777H3.0769C3.67609 54.8772 3.99873 54.3864 3.62769 53.1257C3.62769 53.0912 3.60465 53.0589 3.59543 53.0266C3.58431 52.9917 3.58559 52.954 3.59905 52.92C3.61252 52.8859 3.63734 52.8575 3.66933 52.8396C3.70131 52.8217 3.73848 52.8154 3.77457 52.8218C3.81066 52.8281 3.84344 52.8468 3.86737 52.8745C4.31677 53.4438 4.48731 53.2317 4.49883 53.1188C4.4636 52.7883 4.34723 52.4716 4.16006 52.197C3.9296 51.819 3.30736 51.531 3.1276 51.2429C2.69894 48.9383 3.1276 47.3919 3.80054 46.3571H9.63347C8.76003 47.65 7.36575 49.7149 7.17907 50.026L7.16294 50.0491C6.42086 51.0562 6.62367 52.1486 8.31524 55.1192C8.0056 55.2026 7.68641 55.2452 7.36574 55.246C7.20999 55.2414 7.05497 55.2689 6.91027 55.3268C6.76557 55.3846 6.63429 55.4715 6.52454 55.5821C6.41479 55.6927 6.32892 55.8247 6.27223 55.9698C6.21555 56.1149 6.18927 56.2702 6.19501 56.4259C6.21081 56.7219 6.33874 57.0008 6.55278 57.2058C6.76682 57.4109 7.05091 57.5267 7.34731 57.5298H7.57777C8.05355 57.5307 8.527 57.4632 8.98357 57.3293C9.74059 57.0979 10.4124 56.6482 10.9148 56.0364L11.2559 55.6308L10.8226 54.9026C9.39148 52.4758 9.11954 51.607 9.06884 51.3328C9.09189 51.3005 9.11493 51.2636 9.14028 51.2221C9.37074 50.8465 12.2699 46.553 12.293 46.5162C12.3223 46.4672 12.3484 46.4164 12.3713 46.3641H21.2924C21.7771 46.3641 22.2419 46.1715 22.5847 45.8288C22.9274 45.486 23.1199 45.0212 23.1199 44.5365V36.7654C23.1199 36.5248 23.0725 36.2866 22.9802 36.0644C22.8879 35.8423 22.7527 35.6405 22.5822 35.4707C22.4118 35.3009 22.2095 35.1664 21.987 35.075C21.7645 34.9836 21.5261 34.937 21.2855 34.9379Z" fill="#FFABE5" stroke="black" stroke-width="0.3" stroke-linecap="round" stroke-linejoin="round"/>
<path d="M10.2234 43.345C10.8929 43.345 11.4357 42.8022 11.4357 42.1327C11.4357 41.4633 10.8929 40.9205 10.2234 40.9205C9.55396 40.9205 9.01123 41.4633 9.01123 42.1327C9.01123 42.8022 9.55396 43.345 10.2234 43.345Z" fill="white" stroke="black" stroke-width="0.3" stroke-linecap="round" stroke-linejoin="round"/>
<path d="M10.5047 42.5314C10.9184 42.5314 11.2537 42.1961 11.2537 41.7824C11.2537 41.3688 10.9184 41.0334 10.5047 41.0334C10.0911 41.0334 9.75574 41.3688 9.75574 41.7824C9.75574 42.1961 10.0911 42.5314 10.5047 42.5314Z" fill="black"/>
<path d="M14.4824 43.345C15.1518 43.345 15.6946 42.8022 15.6946 42.1327C15.6946 41.4633 15.1518 40.9205 14.4824 40.9205C13.8129 40.9205 13.2701 41.4633 13.2701 42.1327C13.2701 42.8022 13.8129 43.345 14.4824 43.345Z" fill="white" stroke="black" stroke-width="0.3" stroke-linecap="round" stroke-linejoin="round"/>
<path d="M14.7635 42.5314C15.1772 42.5314 15.5125 42.1961 15.5125 41.7824C15.5125 41.3688 15.1772 41.0334 14.7635 41.0334C14.3499 41.0334 14.0145 41.3688 14.0145 41.7824C14.0145 42.1961 14.3499 42.5314 14.7635 42.5314Z" fill="black"/>
<path d="M85.5559 28.0768C91.3865 28.0768 96.1132 23.3502 96.1132 17.5195C96.1132 11.6888 91.3865 6.96216 85.5559 6.96216C79.7252 6.96216 74.9985 11.6888 74.9985 17.5195C74.9985 23.3502 79.7252 28.0768 85.5559 28.0768Z" fill="#FFEE1A" stroke="black" stroke-width="0.3" stroke-linecap="round" stroke-linejoin="round"/>
<path d="M82.7928 17.2478L81.4354 16.8744C81.2453 16.8254 81.0689 16.734 80.9191 16.6071C80.7498 16.4684 80.623 16.2848 80.5533 16.0773C80.4836 15.8698 80.4738 15.6469 80.5251 15.4341C80.5809 15.245 80.6854 15.074 80.8282 14.9381C80.971 14.8022 81.147 14.7062 81.3386 14.6597C81.5662 14.6022 81.8052 14.6078 82.03 14.6759L83.4427 15.0653C83.6631 15.1242 83.8637 15.2412 84.0234 15.4041C84.1638 15.5422 84.2657 15.7146 84.3191 15.9041C84.3724 16.0937 84.3754 16.2939 84.3276 16.485C84.2835 16.6352 84.2081 16.7745 84.1064 16.8936C84.0048 17.0128 83.8791 17.1091 83.7377 17.1763C83.442 17.3147 83.1059 17.3402 82.7928 17.2478Z" fill="white" stroke="black" stroke-width="0.3" stroke-linecap="round" stroke-linejoin="round"/>
<path d="M83.2927 17.3399C83.9164 17.3399 84.422 16.8343 84.422 16.2107C84.422 15.587 83.9164 15.0814 83.2927 15.0814C82.669 15.0814 82.1635 15.587 82.1635 16.2107C82.1635 16.8343 82.669 17.3399 83.2927 17.3399Z" fill="black"/>
<path d="M89.8517 19.1952L88.492 18.8219C88.3018 18.7733 88.1252 18.6818 87.9757 18.5545C87.8072 18.4153 87.6812 18.2315 87.6119 18.0241C87.5427 17.8167 87.533 17.5941 87.584 17.3815C87.6398 17.1925 87.7444 17.0214 87.8871 16.8855C88.0299 16.7496 88.2059 16.6536 88.3975 16.6072C88.6253 16.5509 88.864 16.5565 89.0889 16.6233L90.5016 17.0128C90.7261 17.069 90.9314 17.1844 91.0962 17.3469C91.2367 17.4849 91.3386 17.6573 91.3916 17.847C91.4445 18.0367 91.4468 18.237 91.3981 18.4278C91.3543 18.5783 91.2791 18.7177 91.1774 18.8369C91.0757 18.9561 90.9498 19.0523 90.8081 19.1192C90.5099 19.2627 90.1688 19.2898 89.8517 19.1952Z" fill="white" stroke="black" stroke-width="0.3" stroke-linecap="round" stroke-linejoin="round"/>
<path d="M90.3495 19.2805C90.9731 19.2805 91.4787 18.7749 91.4787 18.1512C91.4787 17.5276 90.9731 17.022 90.3495 17.022C89.7258 17.022 89.2202 17.5276 89.2202 18.1512C89.2202 18.7749 89.7258 19.2805 90.3495 19.2805Z" fill="black"/>
</svg>
