<svg width="388" height="104" viewBox="0 0 388 104" fill="none" xmlns="http://www.w3.org/2000/svg">
<path d="M340.767 97.1227C341.63 97.1228 342.461 96.7947 343.085 96.2067C343.709 95.6187 344.078 94.8163 344.116 93.9667C344.153 93.1172 343.856 92.2861 343.287 91.6468C342.717 91.0075 341.919 90.6094 341.059 90.5354C341.024 90.5323 338.807 90.3388 336.75 90.1558C337.54 73.2527 339.669 65.1069 339.691 65.0222C339.919 64.1762 339.797 63.2758 339.35 62.5189C338.904 61.762 338.171 61.2107 337.312 60.9862C336.452 60.7618 335.538 60.8826 334.769 61.322C334.001 61.7615 333.441 62.4836 333.213 63.3295C333.107 63.7213 330.611 73.1562 329.925 93.0402L329.819 96.1282L332.941 96.4359C334.456 96.5846 340.223 97.0883 340.468 97.1095C340.569 97.1181 340.668 97.1227 340.767 97.1227Z" fill="white" stroke="white" stroke-width="1.2" stroke-linecap="round" stroke-linejoin="round"/>
<path d="M352.76 53.6268C352.814 53.2802 352.936 52.9474 353.121 52.6475C353.305 52.3475 353.548 52.0863 353.835 51.8787C354.122 51.6711 354.448 51.5212 354.793 51.4375C355.139 51.3539 355.498 51.3382 355.85 51.3912C357.599 51.6545 363.67 53.1016 368.356 60.6611C370.463 64.0575 371.992 67.7698 372.884 71.6515C373.001 72.2474 372.908 72.8647 372.62 73.4015C372.332 73.9383 371.868 74.3625 371.302 74.604C370.93 74.763 370.527 74.8379 370.121 74.823C369.716 74.8082 369.319 74.7041 368.96 74.5184C368.601 74.3327 368.289 74.0701 368.046 73.7499C367.804 73.4297 367.638 73.0601 367.56 72.6682C367.556 72.6522 367.439 72.0829 367.163 71.1495C366.92 70.8717 366.697 70.9488 366.563 71.1412C366.372 71.4153 365.531 72.9655 365.046 72.1336C364.562 71.3017 364.823 69.2304 365.276 68.3068C365.728 67.3832 365.187 66.1532 365.187 66.1532L365.208 66.1348C364.76 65.2141 364.265 64.3161 363.726 63.4441C361.92 60.5309 358.687 57.2216 355.03 56.6707C354.678 56.6176 354.34 56.4967 354.035 56.315C353.73 56.1333 353.465 55.8943 353.254 55.6116C353.044 55.329 352.892 55.0082 352.807 54.6676C352.722 54.3271 352.706 53.9734 352.76 53.6268Z" fill="white" stroke="white" stroke-width="1.2" stroke-linecap="round" stroke-linejoin="round"/>
<path d="M360.618 63.2003C359.921 56.526 357.067 50.2483 352.475 45.2912C347.883 40.3342 341.796 36.9598 335.11 35.6648C328.424 34.3698 321.492 35.2226 315.335 38.0977C309.179 40.9727 304.122 45.7182 300.91 51.6354C298.395 52.2874 293.502 54.3302 289.577 60.6611C287.47 64.0575 285.941 67.7697 285.049 71.6514C284.932 72.2473 285.025 72.8646 285.313 73.4014C285.6 73.9381 286.065 74.3623 286.631 74.604C286.812 74.6817 287.001 74.7399 287.195 74.7777C287.9 74.9123 288.631 74.766 289.227 74.3709C289.823 73.9757 290.236 73.3641 290.375 72.6699C290.378 72.6539 290.495 72.0846 290.771 71.1513C291.014 70.8734 291.237 70.9505 291.37 71.1429C291.562 71.417 292.403 72.9672 292.887 72.1353C293.372 71.3034 293.111 69.2321 292.658 68.3085C292.206 67.3849 292.747 66.1549 292.747 66.1549L292.727 66.1365C293.174 65.2157 293.669 64.3177 294.208 63.4459C295.238 61.7807 296.533 60.2891 298.043 59.0278C297.704 60.4008 297.461 61.7948 297.315 63.2003C297.272 63.6203 297.319 64.0446 297.453 64.4458C297.586 64.8469 297.804 65.216 298.092 65.5292C298.379 65.8424 298.73 66.0928 299.122 66.2641C299.514 66.4355 299.938 66.5241 300.367 66.5241H318.582C319.219 69.5826 320.584 77.3564 321.183 90.1576C319.126 90.3406 316.911 90.5341 316.874 90.5372C316.014 90.6112 315.216 91.0093 314.646 91.6485C314.077 92.2878 313.78 93.1188 313.817 93.9684C313.855 94.8179 314.224 95.6203 314.848 96.2084C315.472 96.7964 316.302 97.1246 317.166 97.1245C317.265 97.1245 317.365 97.12 317.465 97.1113C317.71 97.0901 323.478 96.5864 324.992 96.4378L328.116 96.1297L328.01 93.0417C327.544 79.5076 326.239 70.8195 325.419 66.5238H357.568C357.997 66.5238 358.421 66.4352 358.813 66.2639C359.205 66.0925 359.556 65.8422 359.844 65.529C360.131 65.2158 360.349 64.8467 360.483 64.4455C360.616 64.0443 360.663 63.62 360.62 63.1999L360.618 63.2003Z" fill="black" stroke="white" stroke-width="1.2" stroke-linecap="round" stroke-linejoin="round"/>
<path d="M329.253 53.4681C329.253 54.2719 328.929 55.0427 328.352 55.6111C327.775 56.1795 326.992 56.4988 326.175 56.4988C325.359 56.4988 324.576 56.1795 323.999 55.6111C323.422 55.0427 323.098 54.2719 323.098 53.4681C323.098 51.7942 324.475 51.6764 326.175 51.6764C327.876 51.6764 329.253 51.7942 329.253 53.4681Z" fill="black" stroke="white" stroke-width="1.2" stroke-linecap="round" stroke-linejoin="round"/>
<path d="M326.114 55.2711C327.163 55.2711 328.013 54.434 328.013 53.4013C328.013 52.3686 327.163 51.5315 326.114 51.5315C325.066 51.5315 324.215 52.3686 324.215 53.4013C324.215 54.434 325.066 55.2711 326.114 55.2711Z" fill="white"/>
<path d="M339.798 53.4681C339.798 54.2719 339.473 55.0427 338.896 55.6111C338.319 56.1795 337.536 56.4988 336.72 56.4988C335.903 56.4988 335.12 56.1795 334.543 55.6111C333.966 55.0427 333.642 54.2719 333.642 53.4681C333.642 51.7942 335.02 51.6764 336.72 51.6764C338.42 51.6764 339.798 51.7942 339.798 53.4681Z" fill="black" stroke="white" stroke-width="1.2" stroke-linecap="round" stroke-linejoin="round"/>
<path d="M336.659 55.2711C337.707 55.2711 338.558 54.434 338.558 53.4013C338.558 52.3686 337.707 51.5315 336.659 51.5315C335.61 51.5315 334.76 52.3686 334.76 53.4013C334.76 54.434 335.61 55.2711 336.659 55.2711Z" fill="white"/>
<path d="M297.149 59.1259C297.092 59.7724 297.273 60.4178 297.659 60.944C298.045 61.4703 298.61 61.8425 299.251 61.9926C300.821 62.3657 306.402 63.224 312.315 58.6198C314.971 56.5533 317.22 54.024 318.948 51.1578C319.188 50.6678 319.257 50.1134 319.144 49.5808C319.031 49.0482 318.742 48.5674 318.322 48.2132C318.186 48.0895 318.038 47.979 317.881 47.8832C316.688 47.1597 315.229 47.4532 314.621 48.5373C314.614 48.5491 314.372 48.9753 313.902 49.6454C313.857 49.678 313.805 49.6991 313.75 49.7066C313.696 49.7141 313.64 49.7078 313.588 49.6884C313.536 49.6689 313.49 49.6368 313.454 49.5952C313.418 49.5535 313.394 49.5037 313.383 49.4502C313.286 49.1619 312.95 47.6116 312.327 48.1302C311.704 48.6488 311.412 50.4287 311.571 51.3356C311.73 52.2426 310.958 53.0662 310.958 53.0662L310.971 53.0881C310.356 53.6909 309.707 54.2592 309.027 54.7901C306.748 56.5644 303.144 58.1828 299.861 57.4033C299.567 57.317 299.258 57.2944 298.954 57.337C298.65 57.3796 298.36 57.4864 298.102 57.6501C297.845 57.8137 297.626 58.0304 297.462 58.2851C297.297 58.5399 297.191 58.8267 297.149 59.1259Z" fill="white" stroke="white" stroke-width="1.2" stroke-linecap="round" stroke-linejoin="round"/>
<path d="M292.767 82.6768V97.5438H300.719C301.013 97.5439 301.304 97.4869 301.575 97.3763C301.847 97.2656 302.093 97.1034 302.301 96.8989C302.509 96.6944 302.673 96.4516 302.786 96.1844C302.898 95.9172 302.956 95.6308 302.956 95.3416C302.956 94.7575 302.72 94.1973 302.301 93.7843C301.881 93.3713 301.312 93.1393 300.719 93.1393H297.986V80.1074H292.704L292.767 82.6768Z" fill="white" stroke="white" stroke-width="1.2" stroke-linecap="round" stroke-linejoin="round"/>
<path d="M289.598 1.59827C285.331 1.60305 281.241 3.27391 278.224 6.24431C275.207 9.21471 273.51 13.2421 273.505 17.4429V56.4509C271.069 57.0327 267.109 58.6855 263.959 63.3734C262.09 66.1526 260.756 69.2462 260.022 72.5001C259.949 73.0394 260.059 73.5874 260.335 74.0587C260.611 74.53 261.038 74.898 261.549 75.1053C261.717 75.1812 261.893 75.2407 262.073 75.2832C263.435 75.6045 264.729 74.8774 264.963 73.6607C264.966 73.6475 265.061 73.1681 265.295 72.3869C265.327 72.3422 265.37 72.3062 265.42 72.2822C265.469 72.2582 265.524 72.247 265.58 72.2496C265.635 72.2522 265.689 72.2685 265.736 72.2971C265.783 72.3257 265.823 72.3655 265.85 72.413C266.033 72.6561 266.844 74.0268 267.272 73.3435C267.7 72.6603 267.413 70.879 266.975 70.0659C266.536 69.2527 267.01 68.2336 267.01 68.2336L266.99 68.2169C267.384 67.4553 267.821 66.7161 268.299 66.0029C269.457 64.2779 271.303 62.4227 273.507 61.4233V67.8671C273.508 70.5811 274.218 73.2492 275.567 75.6158C276.916 77.9825 278.859 79.9685 281.211 81.3834V93.1362H278.476C278.183 93.1362 277.892 93.1932 277.62 93.3038C277.349 93.4145 277.102 93.5767 276.895 93.7812C276.687 93.9857 276.522 94.2285 276.41 94.4957C276.298 94.7629 276.24 95.0492 276.24 95.3384C276.24 95.6276 276.298 95.914 276.41 96.1812C276.522 96.4484 276.687 96.6912 276.895 96.8956C277.102 97.1001 277.349 97.2624 277.62 97.373C277.892 97.4837 278.183 97.5407 278.476 97.5407H286.429V83.4033C288.764 83.8652 291.174 83.8108 293.486 83.2441C295.797 82.6774 297.952 81.6125 299.795 80.1263C301.638 78.6401 303.122 76.7696 304.142 74.6499C305.161 72.5301 305.69 70.2139 305.69 67.8685V17.4429C305.685 13.242 303.988 9.21451 300.971 6.24408C297.954 3.27366 293.864 1.60286 289.598 1.59827Z" fill="black" stroke="white" stroke-width="1.2" stroke-linecap="round" stroke-linejoin="round"/>
<path d="M287.946 52.5835C287.946 50.5434 286.477 48.8896 284.664 48.8896C282.851 48.8896 281.381 50.5434 281.381 52.5835C281.381 54.6235 282.978 56.4808 284.664 55.8236C287.071 54.8854 287.946 54.6235 287.946 52.5835Z" fill="black" stroke="white" stroke-width="1.2" stroke-linecap="round" stroke-linejoin="round"/>
<path d="M285.484 55.5273C286.821 55.5273 287.905 54.46 287.905 53.1434C287.905 51.8268 286.821 50.7595 285.484 50.7595C284.147 50.7595 283.063 51.8268 283.063 53.1434C283.063 54.46 284.147 55.5273 285.484 55.5273Z" fill="white"/>
<path d="M292.397 52.5835C292.397 50.5434 293.866 48.8896 295.679 48.8896C297.492 48.8896 298.96 50.5434 298.96 52.5835C298.96 54.6235 297.363 56.4808 295.679 55.8236C293.271 54.8854 292.397 54.6235 292.397 52.5835Z" fill="black" stroke="white" stroke-width="1.2" stroke-linecap="round" stroke-linejoin="round"/>
<path d="M294.816 55.5273C296.153 55.5273 297.237 54.46 297.237 53.1434C297.237 51.8268 296.153 50.7595 294.816 50.7595C293.479 50.7595 292.395 51.8268 292.395 53.1434C292.395 54.46 293.479 55.5273 294.816 55.5273Z" fill="white"/>
<path d="M275.077 53.4636C272.796 49.8154 269.541 46.8542 265.668 44.903C265.201 44.6685 264.69 44.532 264.166 44.5021C263.643 44.4722 263.119 44.5496 262.627 44.7294C262.136 44.9092 261.688 45.1875 261.311 45.5467C260.935 45.9058 260.638 46.338 260.44 46.8159C260.093 47.6989 260.093 48.6774 260.439 49.5606C260.785 50.4438 261.453 51.1684 262.312 51.5931C266.342 53.6463 270.946 58.1509 272.169 68.0085C271.887 69.0853 270.233 70.5841 269.851 71.9947C269.451 73.4731 269.551 74.8531 269.701 75.1981C269.851 75.543 270.602 76.0359 271.453 73.818L271.462 73.7951C271.509 73.6844 271.594 73.5933 271.702 73.5371C271.81 73.4809 271.934 73.4632 272.053 73.4868C272.173 73.5105 272.281 73.5741 272.358 73.6669C272.436 73.7598 272.478 73.8761 272.478 73.9962C272.478 74.1108 272.472 74.2258 272.473 74.3415C272.524 78.639 274.069 79.8398 276.161 79.8787H276.234C278.293 79.8787 279.985 77.9498 280.049 74.4815C280.207 65.9671 278.539 58.8956 275.077 53.4636Z" fill="white" stroke="white" stroke-width="1.2" stroke-linecap="round" stroke-linejoin="round"/>
<path d="M262.588 97.639C261.011 97.6426 259.441 97.4203 257.928 96.9791C255.417 96.2257 253.188 94.7597 251.519 92.7646L250.393 91.4339L251.83 89.0579C256.57 81.1382 257.477 78.2982 257.643 77.4052C257.568 77.301 257.486 77.1784 257.403 77.0418C256.655 75.8139 249.125 63.8173 249.049 63.6964C248.523 62.8549 248.358 61.8425 248.59 60.8813C248.822 59.9201 249.431 59.0886 250.284 58.5693C251.138 58.0499 252.166 57.885 253.142 58.1109C254.119 58.3368 254.965 58.9349 255.494 59.7741C255.802 60.2645 262.969 71.6832 263.873 73.1587L263.928 73.2327C266.389 76.525 265.71 80.0854 260.143 89.7554C260.823 89.8697 261.744 90.2098 263.291 90.1695C263.807 90.1568 264.32 90.2481 264.799 90.4377C265.278 90.6272 265.713 90.9112 266.077 91.272C266.44 91.6329 266.725 92.063 266.914 92.5361C267.103 93.0093 267.191 93.5154 267.174 94.0234C267.122 94.9889 266.698 95.8986 265.99 96.5681C265.281 97.2377 264.341 97.617 263.359 97.6293C263.095 97.6358 262.838 97.639 262.588 97.639Z" fill="white" stroke="white" stroke-width="1.2" stroke-linecap="round" stroke-linejoin="round"/>
<path d="M272.029 40.8516C271.885 37.8208 271.122 34.8496 269.787 32.1154C268.451 29.3812 266.569 26.94 264.254 24.9377C261.939 22.9354 259.238 21.4129 256.312 20.4613C253.386 19.5096 250.295 19.1483 247.224 19.3988C244.153 19.6493 241.165 20.5065 238.438 21.9193C235.711 23.3321 233.301 25.2715 231.352 27.6217C229.404 29.9719 227.956 32.6846 227.095 35.598C226.235 38.5114 225.979 41.5656 226.344 44.5784C226.408 45.0957 226.358 45.6204 226.197 46.1169C226.036 46.6134 225.769 47.07 225.413 47.4555C222.711 50.3667 219.592 55.2564 218.504 62.9021C217.719 68.4088 217.852 74.0048 218.899 79.4692C219.121 80.4296 219.721 81.2644 220.566 81.7915C221.411 82.3185 222.434 82.4949 223.411 82.2822C224.387 82.0695 225.239 81.485 225.78 80.6562C226.321 79.8275 226.507 78.8217 226.297 77.8585C226.292 77.8366 226.121 77.0426 225.948 75.6948C226.103 75.2061 226.433 75.1825 226.714 75.3558C227.114 75.6021 229.067 77.1297 229.217 75.7994C229.367 74.469 227.865 71.9552 226.764 71.0187C225.663 70.0823 225.663 68.2097 225.663 68.2097L225.628 68.1975C225.682 66.7721 225.81 65.3504 226.009 63.9375C226.414 61.0358 227.331 58.2262 228.719 55.6357C228.82 55.4571 228.964 55.3061 229.139 55.1966C229.314 55.087 229.514 55.0224 229.721 55.0086C229.928 54.9948 230.136 55.0322 230.324 55.1175C230.513 55.2028 230.676 55.3332 230.801 55.4968C232.668 57.9376 235.018 59.9815 237.708 61.506C238.017 61.6803 238.285 61.917 238.495 62.2006C238.705 62.4842 238.851 62.8082 238.925 63.1515C239.613 66.3728 241.233 75.2558 241.931 90.1782C239.605 90.3866 237.101 90.604 237.06 90.6078C236.088 90.6927 235.187 91.1432 234.545 91.8657C233.902 92.5881 233.567 93.5268 233.61 94.4862C233.652 95.4457 234.069 96.3521 234.773 97.0166C235.477 97.6811 236.415 98.0526 237.39 98.0538C237.502 98.0538 237.615 98.0489 237.729 98.0392C238.005 98.0148 244.525 97.4459 246.237 97.2774L249.767 96.9301L249.646 93.4391C249.196 80.3939 248.059 71.3338 247.157 65.9362C247.126 65.7568 247.136 65.5727 247.186 65.3974C247.235 65.222 247.323 65.0595 247.444 64.9217C247.565 64.7838 247.715 64.674 247.884 64.6C248.053 64.526 248.237 64.4897 248.421 64.4936C248.654 64.5011 248.887 64.5047 249.122 64.5044C252.225 64.5039 255.296 63.8835 258.148 62.6805C261.001 61.4776 263.576 59.7172 265.717 57.5059C267.859 55.2947 269.522 52.6786 270.607 49.8159C271.692 46.9532 272.176 43.9036 272.029 40.8516Z" fill="black" stroke="white" stroke-width="1.2" stroke-linecap="round" stroke-linejoin="round"/>
<path d="M243.177 42.938H240.116C239.69 42.9465 239.268 42.8587 238.882 42.6813C238.448 42.4899 238.077 42.1823 237.813 41.7934C237.548 41.4046 237.399 40.9503 237.384 40.4824C237.393 40.0614 237.514 39.6499 237.734 39.289C237.955 38.9281 238.267 38.6303 238.641 38.4253C239.08 38.1836 239.576 38.0617 240.079 38.0724H243.264C243.767 38.0617 244.263 38.1836 244.702 38.4253C245.075 38.6303 245.388 38.9281 245.608 39.289C245.829 39.6499 245.95 40.0614 245.958 40.4824C245.954 40.8183 245.877 41.1495 245.733 41.4541C245.589 41.7587 245.382 42.0299 245.124 42.2498C244.583 42.7077 243.89 42.9527 243.177 42.938Z" fill="black" stroke="white" stroke-width="1.2" stroke-linecap="round" stroke-linejoin="round"/>
<path d="M243.621 42.9159C244.975 42.9159 246.073 41.8349 246.073 40.5014C246.073 39.1679 244.975 38.0869 243.621 38.0869C242.267 38.0869 241.169 39.1679 241.169 40.5014C241.169 41.8349 242.267 42.9159 243.621 42.9159Z" fill="white"/>
<path d="M259.079 42.938H256.02C255.594 42.9465 255.172 42.8587 254.786 42.6813C254.352 42.49 253.981 42.1824 253.716 41.7935C253.451 41.4047 253.303 40.9504 253.288 40.4824C253.297 40.0613 253.417 39.6498 253.638 39.2889C253.858 38.928 254.171 38.6303 254.545 38.4254C254.984 38.1835 255.48 38.0616 255.983 38.0724H259.166C259.669 38.0617 260.165 38.1836 260.604 38.4254C260.978 38.6303 261.291 38.9281 261.511 39.289C261.731 39.6499 261.852 40.0614 261.861 40.4824C261.856 40.8183 261.779 41.1494 261.636 41.454C261.492 41.7586 261.284 42.0298 261.027 42.2498C260.486 42.7077 259.792 42.9528 259.079 42.938Z" fill="black" stroke="white" stroke-width="1.2" stroke-linecap="round" stroke-linejoin="round"/>
<path d="M259.524 42.9159C260.878 42.9159 261.976 41.8349 261.976 40.5014C261.976 39.1679 260.878 38.0869 259.524 38.0869C258.169 38.0869 257.072 39.1679 257.072 40.5014C257.072 41.8349 258.169 42.9159 259.524 42.9159Z" fill="white"/>
<path d="M224.119 67.5341C224.281 66.8558 224.685 66.2574 225.257 65.8479C225.829 65.4384 226.532 65.2453 227.237 65.3037C228.966 65.4409 234.949 66.4058 239.413 73.0497C241.419 76.0326 242.851 79.3528 243.639 82.8452C243.717 83.4241 243.599 84.0123 243.303 84.5182C243.006 85.024 242.548 85.4191 242 85.6417C241.818 85.7231 241.629 85.787 241.435 85.8324C239.973 86.1774 238.585 85.3969 238.334 84.0908C238.331 84.0765 238.228 83.5621 237.977 82.7236C237.943 82.6757 237.897 82.637 237.843 82.6112C237.79 82.5855 237.731 82.5735 237.671 82.5763C237.612 82.5791 237.554 82.5966 237.503 82.6273C237.453 82.658 237.411 82.7008 237.381 82.7517C237.185 83.014 236.314 84.4836 235.855 83.7507C235.396 83.0178 235.703 81.1053 236.173 80.2327C236.642 79.3601 236.138 78.2656 236.138 78.2656L236.159 78.2479C235.736 77.4305 235.268 76.6371 234.755 75.8717C233.034 73.3106 229.909 70.472 226.295 70.1847C224.835 70.0698 223.86 68.8825 224.119 67.5341Z" fill="white" stroke="white" stroke-width="1.2" stroke-linecap="round" stroke-linejoin="round"/>
<path d="M216.031 98.8534C214.844 98.8562 213.662 98.7004 212.517 98.39C210.652 97.8785 208.975 96.8514 207.684 95.4305L206.834 94.4962L207.918 92.8289C211.492 87.2673 212.177 85.2735 212.302 84.6465C212.245 84.5722 212.184 84.4871 212.121 84.3912C211.556 83.5291 205.877 75.105 205.821 75.0199C205.625 74.7277 205.494 74.3986 205.434 74.0535C205.375 73.7084 205.39 73.3549 205.477 73.0156C205.564 72.6764 205.723 72.3588 205.942 72.0831C206.161 71.8075 206.436 71.5798 206.749 71.4147C207.394 71.0469 208.155 70.9303 208.883 71.0878C209.611 71.2454 210.253 71.6656 210.681 72.2657C210.914 72.6103 216.318 80.6283 217 81.6645L217.041 81.7166C218.897 84.0282 218.385 86.5285 214.187 93.3183C214.963 93.5116 215.76 93.6092 216.561 93.609C218.191 93.5698 219.543 94.7973 219.489 96.3163C219.44 97.7158 218.139 98.8173 216.612 98.8485C216.414 98.8518 216.22 98.8534 216.031 98.8534Z" fill="white" stroke="white" stroke-width="1.2" stroke-linecap="round" stroke-linejoin="round"/>
<path d="M226.131 32.1219H183.532C182.633 32.123 181.772 32.4748 181.136 33.1003C180.501 33.7259 180.144 34.574 180.143 35.4586V65.8703C177.509 66.5678 173.481 68.4005 170.249 73.2117C168.244 76.1945 166.811 79.5148 166.024 83.0071C165.945 83.586 166.063 84.1742 166.36 84.6801C166.656 85.1859 167.114 85.581 167.663 85.8036C167.844 85.885 168.033 85.9489 168.227 85.9944C169.689 86.3393 171.077 85.5588 171.329 84.2531C171.332 84.2388 171.435 83.724 171.685 82.8859C171.72 82.8379 171.766 82.7992 171.819 82.7735C171.872 82.7477 171.932 82.7356 171.991 82.7384C172.05 82.7411 172.108 82.7587 172.159 82.7893C172.209 82.82 172.252 82.8627 172.281 82.9137C172.477 83.1763 173.348 84.6459 173.807 83.9126C174.266 83.1794 173.959 81.2672 173.49 80.3946C173.02 79.5221 173.525 78.4279 173.525 78.4279L173.504 78.4098C173.926 77.5925 174.395 76.7992 174.908 76.0336C176.224 74.0442 178.024 72.4103 180.145 71.2804V77.4029C180.146 78.2876 180.503 79.1358 181.138 79.7614C181.774 80.387 182.635 80.7389 183.534 80.7399H196.091V92.8974H192.834C192.484 92.8973 192.138 92.9651 191.815 93.0968C191.492 93.2286 191.198 93.4217 190.951 93.6651C190.704 93.9086 190.508 94.1976 190.374 94.5158C190.24 94.8339 190.171 95.1749 190.171 95.5192C190.171 95.8635 190.24 96.2045 190.374 96.5226C190.508 96.8407 190.704 97.1298 190.951 97.3732C191.198 97.6167 191.492 97.8098 191.815 97.9416C192.138 98.0733 192.484 98.1411 192.834 98.141H202.302V80.7385H226.131C227.029 80.7375 227.891 80.3856 228.526 79.76C229.161 79.1344 229.519 78.2862 229.52 77.4015V35.4586C229.519 34.574 229.161 33.7259 228.526 33.1003C227.89 32.4748 227.029 32.123 226.131 32.1219Z" fill="black" stroke="white" stroke-width="1.2" stroke-miterlimit="10"/>
<path d="M199.372 62.7283C199.372 60.6884 200.841 59.0347 202.653 59.0347C204.464 59.0347 205.935 60.6884 205.935 62.7283C205.935 64.7683 204.338 66.6256 202.653 65.9684C200.247 65.0302 199.372 64.7683 199.372 62.7283Z" fill="black" stroke="white" stroke-width="1.2" stroke-linecap="round" stroke-linejoin="round"/>
<path d="M203.377 63.9872C204.748 63.9872 205.86 62.8927 205.86 61.5425C205.86 60.1923 204.748 59.0978 203.377 59.0978C202.006 59.0978 200.894 60.1923 200.894 61.5425C200.894 62.8927 202.006 63.9872 203.377 63.9872Z" fill="white"/>
<path d="M216.95 62.7283C216.95 60.6884 215.481 59.0347 213.669 59.0347C211.858 59.0347 210.387 60.6884 210.387 62.7283C210.387 64.7683 211.984 66.6256 213.669 65.9684C216.075 65.0302 216.95 64.7683 216.95 62.7283Z" fill="black" stroke="white" stroke-width="1.2" stroke-linecap="round" stroke-linejoin="round"/>
<path d="M214.142 63.9872C215.513 63.9872 216.625 62.8927 216.625 61.5425C216.625 60.1923 215.513 59.0978 214.142 59.0978C212.771 59.0978 211.659 60.1923 211.659 61.5425C211.659 62.8927 212.771 63.9872 214.142 63.9872Z" fill="white"/>
<path d="M179.912 97.3718C180.775 97.3709 181.604 97.0424 182.227 96.4545C182.85 95.8666 183.219 95.0647 183.257 94.2159C183.294 93.367 182.998 92.5365 182.429 91.8974C181.861 91.2583 181.063 90.8598 180.204 90.7849C180.169 90.7817 177.952 90.5883 175.895 90.4049C176.685 73.5022 178.814 65.3563 178.836 65.2712C179.064 64.4253 178.941 63.5248 178.495 62.768C178.049 62.0111 177.315 61.4599 176.456 61.2355C175.597 61.011 174.683 61.1319 173.914 61.5713C173.145 62.0108 172.585 62.733 172.357 63.5789C172.252 63.9707 169.755 73.4056 169.07 93.2897L168.964 96.3777L172.086 96.6851C173.601 96.8341 179.368 97.3374 179.613 97.3589C179.712 97.369 179.813 97.3718 179.912 97.3718Z" fill="white" stroke="white" stroke-width="1.2" stroke-linecap="round" stroke-linejoin="round"/>
<path d="M184.413 61.4098C184.647 61.0426 184.952 60.7245 185.311 60.4735C185.67 60.2225 186.076 60.0437 186.505 59.9471C186.934 59.8505 187.378 59.8381 187.812 59.9107C188.246 59.9832 188.661 60.1392 189.034 60.3698C190.886 61.516 197.048 66.0928 198.59 76.9334C199.284 81.8044 199.165 86.7544 198.24 91.5879C198.075 92.3197 197.661 92.9743 197.067 93.4435C196.473 93.9128 195.735 94.1689 194.974 94.1695C194.472 94.1696 193.977 94.0591 193.525 93.8461C193.073 93.6331 192.675 93.3231 192.361 92.9388C192.046 92.5545 191.823 92.1056 191.708 91.6253C191.593 91.145 191.588 90.6453 191.695 90.1631C191.699 90.1436 191.851 89.4409 192.004 88.2488C191.867 87.8164 191.575 87.7955 191.326 87.9487C190.973 88.1668 189.245 89.5184 189.112 88.3412C188.98 87.164 190.308 84.9406 191.282 84.1122C192.257 83.2837 192.256 81.6272 192.256 81.6272L192.289 81.6164C192.24 80.3555 192.128 79.0978 191.952 77.848C191.358 73.6707 189.343 68.3534 185.47 65.9591C185.097 65.7287 184.774 65.4283 184.519 65.075C184.264 64.7217 184.083 64.3225 183.985 63.9C183.886 63.4776 183.874 63.0402 183.947 62.6129C184.021 62.1857 184.179 61.7768 184.413 61.4098Z" fill="white" stroke="white" stroke-width="1.2" stroke-linecap="round" stroke-linejoin="round"/>
<path d="M192.667 63.4307L170.6 25.242C170.252 24.6402 169.749 24.1397 169.141 23.7916C168.533 23.4435 167.842 23.2601 167.139 23.2601C166.436 23.2601 165.745 23.4435 165.137 23.7916C164.529 24.1397 164.026 24.6402 163.678 25.242L141.93 62.8767C139.461 65.3954 136.457 69.8138 135.445 76.9325C134.751 81.8036 134.869 86.7535 135.795 91.5871C135.96 92.3189 136.374 92.9734 136.968 93.4427C137.561 93.912 138.3 94.1681 139.061 94.1687C139.562 94.1688 140.057 94.0583 140.51 93.8453C140.962 93.6323 141.36 93.3222 141.674 92.9379C141.989 92.5535 142.212 92.1046 142.327 91.6242C142.442 91.1439 142.446 90.6442 142.34 90.1619C142.335 90.1425 142.184 89.4401 142.031 88.248C142.168 87.8155 142.46 87.7947 142.709 87.9479C143.061 88.166 144.79 89.5176 144.923 88.3404C145.055 87.1632 143.727 84.9398 142.753 84.1113C141.778 83.2829 141.779 81.6263 141.779 81.6263L141.746 81.6156C141.794 80.3546 141.907 79.0969 142.083 77.8471C142.474 75.1009 143.483 71.867 145.226 69.2896H155.881C155.094 74.1015 154.123 82.0133 153.734 93.2888L153.628 96.3768L156.751 96.6842C158.265 96.8333 164.033 97.3366 164.277 97.3581C164.378 97.3668 164.478 97.371 164.577 97.371C165.44 97.3701 166.269 97.0415 166.892 96.4536C167.515 95.8658 167.884 95.0639 167.922 94.215C167.959 93.3661 167.663 92.5357 167.094 91.8966C166.526 91.2575 165.729 90.8589 164.869 90.784C164.834 90.7809 162.618 90.5874 160.56 90.404C161.034 80.2612 161.99 73.2766 162.684 69.2896H189.207C189.904 69.2896 190.588 69.1095 191.192 68.7674C191.796 68.4252 192.299 67.933 192.649 67.3398C192.999 66.7467 193.185 66.0734 193.189 65.3872C193.192 64.7011 193.012 64.0261 192.668 63.4297L192.667 63.4307Z" fill="black" stroke="white" stroke-width="1.2" stroke-miterlimit="10"/>
<path d="M160.288 55.7326H160.196C159.546 55.7386 158.902 55.6085 158.307 55.3511C157.712 55.0936 157.179 54.7145 156.743 54.239C156.603 54.087 156.494 53.9089 156.425 53.7151C156.355 53.5213 156.325 53.3157 156.337 53.1105C156.349 52.9052 156.403 52.7043 156.494 52.5197C156.586 52.3351 156.715 52.1703 156.872 52.0352C157.029 51.9001 157.213 51.7972 157.411 51.7327C157.609 51.6682 157.819 51.6434 158.027 51.6596C158.235 51.6758 158.438 51.7328 158.623 51.8273C158.809 51.9217 158.973 52.0516 159.107 52.2095C159.256 52.3558 159.434 52.47 159.631 52.5451C159.827 52.6202 160.037 52.6545 160.247 52.6457C160.913 52.67 161.563 52.4427 162.065 52.0105C162.205 51.8588 162.373 51.736 162.561 51.6491C162.75 51.5621 162.953 51.5129 163.161 51.5042C163.369 51.4955 163.576 51.5275 163.771 51.5984C163.966 51.6692 164.144 51.7775 164.296 51.9169C164.449 52.0563 164.571 52.2241 164.657 52.4105C164.742 52.5969 164.789 52.7982 164.795 53.0028C164.801 53.2073 164.766 53.4109 164.691 53.6018C164.617 53.7928 164.504 53.9672 164.361 54.115C163.274 55.1632 161.809 55.7448 160.288 55.7326Z" fill="black" stroke="white" stroke-width="1.2" stroke-linecap="round" stroke-linejoin="round"/>
<path d="M163.118 54.818C164.04 54.818 164.787 54.0824 164.787 53.1749C164.787 52.2675 164.04 51.5319 163.118 51.5319C162.197 51.5319 161.45 52.2675 161.45 53.1749C161.45 54.0824 162.197 54.818 163.118 54.818Z" fill="white"/>
<path d="M173.72 55.7326H173.628C172.978 55.7386 172.334 55.6085 171.739 55.3511C171.144 55.0936 170.611 54.7145 170.175 54.239C170.035 54.087 169.926 53.9089 169.857 53.7151C169.787 53.5213 169.757 53.3157 169.769 53.1105C169.781 52.9052 169.835 52.7043 169.926 52.5197C170.018 52.3351 170.147 52.1703 170.304 52.0352C170.461 51.9001 170.645 51.7972 170.843 51.7327C171.041 51.6682 171.251 51.6434 171.459 51.6596C171.667 51.6758 171.87 51.7328 172.055 51.8273C172.241 51.9217 172.405 52.0516 172.539 52.2095C172.688 52.3558 172.866 52.4701 173.063 52.5452C173.259 52.6202 173.469 52.6545 173.679 52.6457C174.345 52.6699 174.996 52.4427 175.497 52.0105C175.637 51.8588 175.805 51.736 175.993 51.6491C176.182 51.5621 176.385 51.5129 176.593 51.5042C176.801 51.4955 177.008 51.5275 177.203 51.5984C177.398 51.6692 177.576 51.7775 177.728 51.9169C177.881 52.0563 178.003 52.2241 178.089 52.4105C178.174 52.5969 178.221 52.7982 178.227 53.0028C178.233 53.2073 178.198 53.4109 178.123 53.6018C178.049 53.7928 177.936 53.9672 177.793 54.115C176.706 55.1632 175.241 55.7448 173.72 55.7326Z" fill="black" stroke="white" stroke-width="1.2" stroke-linecap="round" stroke-linejoin="round"/>
<path d="M176.693 54.818C177.615 54.818 178.362 54.0824 178.362 53.1749C178.362 52.2675 177.615 51.5319 176.693 51.5319C175.772 51.5319 175.025 52.2675 175.025 53.1749C175.025 54.0824 175.772 54.818 176.693 54.818Z" fill="white"/>
<path d="M134.308 97.3629C135.171 97.362 136 97.0334 136.623 96.4456C137.246 95.8577 137.615 95.0558 137.653 94.2069C137.691 93.3581 137.394 92.5276 136.825 91.8885C136.257 91.2494 135.46 90.8509 134.6 90.776C134.565 90.7728 132.348 90.5794 130.291 90.396C131.082 73.4933 133.21 65.3474 133.232 65.2623C133.46 64.4164 133.338 63.5159 132.891 62.7591C132.445 62.0022 131.712 61.451 130.852 61.2265C129.993 61.0021 129.079 61.123 128.31 61.5624C127.541 62.0019 126.982 62.7241 126.754 63.57C126.648 63.9618 124.152 73.3967 123.466 93.2807L123.36 96.3687L126.483 96.6761C127.997 96.8252 133.764 97.3285 134.009 97.35C134.109 97.3587 134.209 97.3629 134.308 97.3629Z" fill="white" stroke="white" stroke-width="1.2" stroke-linecap="round" stroke-linejoin="round"/>
<path d="M153.003 67.7101C152.065 64.0348 150.12 60.6837 147.38 58.0227C147.049 57.7024 146.655 57.4532 146.221 57.2908C145.788 57.1284 145.325 57.0564 144.862 57.0792C144.398 57.1021 143.945 57.2193 143.53 57.4236C143.116 57.6278 142.748 57.9146 142.452 58.2658C141.921 58.9199 141.656 59.7453 141.709 60.5811C141.763 61.4169 142.13 62.2032 142.74 62.7867C145.585 65.5749 148.251 70.5814 146.621 79.2184C146.091 80.0521 144.292 80.884 143.587 81.974C142.849 83.1161 142.561 84.3068 142.594 84.6372C142.627 84.9675 143.128 85.5799 144.445 83.932L144.459 83.915C144.528 83.8325 144.624 83.7763 144.731 83.7563C144.838 83.7363 144.949 83.7536 145.044 83.8053C145.139 83.8569 145.213 83.9397 145.253 84.0394C145.293 84.139 145.296 84.2492 145.262 84.3509C145.23 84.4472 145.195 84.543 145.164 84.641C144.046 88.2799 145.023 89.6978 146.779 90.2789L146.84 90.2984C148.577 90.8378 150.526 89.654 151.518 86.7449C153.951 79.6029 154.456 73.2001 153.003 67.7101Z" fill="white" stroke="white" stroke-width="1.2" stroke-linecap="round" stroke-linejoin="round"/>
<path d="M149.704 32.1219H93.3622C92.6579 32.1219 91.9605 32.2586 91.3098 32.524C90.6591 32.7895 90.0679 33.1785 89.5699 33.669C89.072 34.1594 88.677 34.7417 88.4077 35.3825C88.1383 36.0232 87.9998 36.71 88 37.4035V59.8263C88.0007 60.8373 88.2961 61.8268 88.8512 62.6772C89.4062 63.5277 90.1976 64.2034 91.1312 64.624C90.6992 65.6255 90.3426 66.6571 90.0645 67.7102C88.6117 73.2002 89.1162 79.603 91.5511 86.7453C92.5427 89.6544 94.4915 90.8382 96.2285 90.2988L96.2896 90.2793C98.0439 89.6982 99.0229 88.2803 97.9042 84.6414C97.8739 84.5434 97.8386 84.4475 97.8065 84.3513C97.7726 84.2496 97.7759 84.1394 97.8157 84.0398C97.8555 83.9401 97.9295 83.8573 98.0247 83.8057C98.1199 83.754 98.2305 83.7367 98.3373 83.7567C98.4442 83.7767 98.5405 83.8329 98.6098 83.9154L98.6235 83.9324C99.9408 85.5803 100.441 84.9679 100.475 84.6376C100.508 84.3072 100.22 83.1165 99.4818 81.9744C98.7784 80.8844 96.9771 80.0532 96.448 79.2188C95.1949 72.5875 96.4765 68.0979 98.4263 65.1075H115.536C112.975 68.8454 108.887 74.8046 108.335 75.7071L108.286 75.7727C106.109 78.6849 106.71 81.8347 111.634 90.3887C110.727 90.6319 109.79 90.7551 108.849 90.7552C108.393 90.7439 107.939 90.8247 107.515 90.9925C107.091 91.1603 106.706 91.4116 106.385 91.7309C106.063 92.0503 105.811 92.431 105.644 92.8497C105.477 93.2684 105.399 93.7163 105.414 94.1659C105.46 95.0201 105.835 95.825 106.461 96.4173C107.088 97.0097 107.92 97.3451 108.789 97.3556C109.022 97.3605 109.249 97.3629 109.471 97.3629C110.867 97.3662 112.255 97.1696 113.594 96.7794C115.815 96.1129 117.787 94.8159 119.263 93.0508L120.259 91.8737L118.989 89.7718C114.796 82.7653 113.993 80.2543 113.847 79.4637C113.913 79.3703 113.985 79.2629 114.059 79.142C114.72 78.0559 123.239 65.6546 123.306 65.5476C123.393 65.4066 123.469 65.2595 123.534 65.1075H149.704C150.408 65.1077 151.105 64.9713 151.756 64.7061C152.407 64.4409 152.998 64.052 153.496 63.5617C153.994 63.0714 154.39 62.4893 154.659 61.8486C154.929 61.2079 155.068 60.5212 155.068 59.8277V37.4035C155.068 36.7098 154.929 36.0229 154.66 35.3821C154.39 34.7412 153.995 34.1588 153.497 33.6684C152.999 33.1779 152.407 32.7889 151.757 32.5235C151.106 32.2582 150.408 32.1217 149.704 32.1219Z" fill="black" stroke="white" stroke-width="1.2" stroke-linecap="round" stroke-linejoin="round"/>
<path d="M117.25 56.4056C119.216 56.4056 120.809 54.8364 120.809 52.9007C120.809 50.965 119.216 49.3959 117.25 49.3959C115.284 49.3959 113.69 50.965 113.69 52.9007C113.69 54.8364 115.284 56.4056 117.25 56.4056Z" fill="black" stroke="white" stroke-width="1.2" stroke-linecap="round" stroke-linejoin="round"/>
<path d="M118.075 54.0545C119.288 54.0545 120.271 53.0866 120.271 51.8925C120.271 50.6985 119.288 49.7306 118.075 49.7306C116.863 49.7306 115.88 50.6985 115.88 51.8925C115.88 53.0866 116.863 54.0545 118.075 54.0545Z" fill="white"/>
<path d="M129.745 56.4056C131.711 56.4056 133.304 54.8364 133.304 52.9007C133.304 50.965 131.711 49.3959 129.745 49.3959C127.779 49.3959 126.185 50.965 126.185 52.9007C126.185 54.8364 127.779 56.4056 129.745 56.4056Z" fill="black" stroke="white" stroke-width="1.2" stroke-linecap="round" stroke-linejoin="round"/>
<path d="M130.57 54.0545C131.783 54.0545 132.766 53.0866 132.766 51.8925C132.766 50.6985 131.783 49.7306 130.57 49.7306C129.358 49.7306 128.375 50.6985 128.375 51.8925C128.375 53.0866 129.358 54.0545 130.57 54.0545Z" fill="white"/>
<path d="M102.047 48.616C102.246 48.3036 102.506 48.033 102.811 47.8194C103.116 47.6059 103.461 47.4537 103.827 47.3716C104.192 47.2894 104.57 47.2789 104.939 47.3406C105.308 47.4023 105.662 47.5351 105.979 47.7313C107.554 48.7039 112.798 52.6012 114.11 61.8259C114.7 65.9709 114.6 70.183 113.812 74.296C113.649 75.0232 113.199 75.6568 112.561 76.0573C111.923 76.4578 111.15 76.5925 110.412 76.4318C109.673 76.271 109.03 75.8279 108.623 75.2001C108.216 74.5722 108.079 73.8109 108.243 73.0838C108.246 73.0671 108.375 72.4693 108.505 71.455C108.389 71.0868 108.14 71.0694 107.929 71.1997C107.628 71.3852 106.158 72.5353 106.045 71.5335C105.932 70.5317 107.062 68.6397 107.891 67.9349C108.72 67.2301 108.72 65.8202 108.72 65.8202L108.748 65.8112C108.708 64.7979 108.62 63.7208 108.461 62.6044C107.956 59.0495 106.241 54.5249 102.945 52.4873C102.305 52.0912 101.85 51.4608 101.682 50.7348C101.513 50.0088 101.645 49.2467 102.047 48.616Z" fill="white" stroke="white" stroke-width="1.2" stroke-miterlimit="10"/>
<path d="M100.913 98.4082C99.6229 98.4113 98.3395 98.2296 97.1028 97.8688C95.0502 97.2531 93.2279 96.0547 91.864 94.4237L90.9432 93.3362L92.1177 91.3938C95.9922 84.9201 96.7341 82.5991 96.8692 81.8693C96.8082 81.7828 96.7419 81.6838 96.6734 81.5719C96.0621 80.5684 88.1905 69.1092 88.1284 69.0106C87.6966 68.3227 87.5601 67.4941 87.7488 66.707C87.9375 65.92 88.4359 65.239 89.1346 64.8138C89.8332 64.3887 90.6747 64.2542 91.4741 64.44C92.2734 64.6257 92.965 65.1166 93.3968 65.8045C93.6484 66.2053 101.223 77.1918 101.962 78.3978L102.007 78.4586C104.018 81.1496 103.464 84.0597 98.9132 91.9638C99.7519 92.1886 100.617 92.3025 101.486 92.3024C101.908 92.292 102.328 92.3666 102.72 92.5216C103.112 92.6766 103.467 92.9088 103.764 93.2039C104.062 93.499 104.295 93.8508 104.449 94.2377C104.603 94.6247 104.675 95.0385 104.661 95.454C104.618 96.2431 104.272 96.9867 103.693 97.5339C103.114 98.0812 102.345 98.3912 101.543 98.4013C101.328 98.4059 101.118 98.4082 100.913 98.4082Z" fill="white" stroke="white" stroke-width="1.2" stroke-miterlimit="10"/>
<path d="M109.537 46.1039L89.9988 22.0804C89.4836 21.5748 88.7859 21.2909 88.0585 21.2909C87.3311 21.2909 86.6334 21.5748 86.1182 22.0804L66.58 46.1039C66.0663 46.611 65.7779 47.2981 65.7779 48.0143C65.7779 48.7306 66.0663 49.4176 66.58 49.9248L66.6992 50.0714C64.6386 52.2461 62.2133 55.9556 61.379 61.8245C60.7881 65.9694 60.8887 70.1815 61.6767 74.2945C61.8463 75.0153 62.2979 75.6411 62.9334 76.0358C63.5689 76.4306 64.337 76.5624 65.0707 76.4027C65.8043 76.243 66.4443 75.8046 66.8516 75.1829C67.2589 74.5611 67.4005 73.8063 67.2457 73.0823C67.2421 73.0656 67.1134 72.4678 66.9836 71.4535C67.0996 71.0853 67.348 71.068 67.5596 71.1982C67.8613 71.3837 69.3306 72.5338 69.4435 71.532C69.5564 70.5303 68.4264 68.6382 67.5974 67.9334C66.7684 67.2286 66.7684 65.8187 66.7684 65.8187L66.7408 65.8097C66.7819 64.7367 66.8777 63.6664 67.0277 62.6029C67.4027 59.9654 68.4451 56.7958 70.3032 54.5026L76.3096 61.8877C78.0442 64.0193 78.9676 66.6808 78.9201 69.4118C78.821 75.0553 78.6972 81.6991 78.6453 82.3615C78.6355 82.4914 78.6312 82.6102 78.6305 82.7155C78.0911 83.2337 76.1219 84.7038 69.157 87.7754L67.058 88.6904L67.1695 90.102C67.3233 92.2092 68.1052 94.2249 69.417 95.8966C70.2135 96.8953 71.1531 97.7747 72.2064 98.5073C72.3736 98.6231 72.5464 98.7409 72.7247 98.8606C73.3851 99.3099 74.1943 99.495 74.9883 99.3786C75.7822 99.2622 76.5015 98.8529 77.0003 98.2336C77.2555 97.9029 77.4395 97.5243 77.5409 97.1211C77.6423 96.718 77.659 96.2986 77.59 95.8888C77.521 95.4791 77.3677 95.0875 77.1396 94.7381C76.9115 94.3887 76.6133 94.0889 76.2634 93.8569C75.5546 93.3616 74.9159 92.7757 74.364 92.1146C82.7206 88.2614 84.8838 86.2043 84.8249 82.8631V82.7884C84.881 82.0486 84.9851 78.0168 85.0754 74.2963C85.0782 74.1777 85.1181 74.0629 85.1895 73.9673C85.2609 73.8718 85.3604 73.8002 85.4745 73.7623C85.5887 73.7244 85.7119 73.7219 85.8275 73.7553C85.9431 73.7887 86.0454 73.8563 86.1207 73.9489C86.6357 74.4547 87.3335 74.7387 88.0609 74.7387C88.7884 74.7387 89.4861 74.4547 90.0012 73.9489L109.539 49.9258C110.053 49.4183 110.341 48.7309 110.341 48.0144C110.341 47.2979 110.052 46.6108 109.537 46.1039Z" fill="black" stroke="white" stroke-width="1.2" stroke-miterlimit="10"/>
<path d="M85.5232 50.9942C85.7321 50.9954 85.9378 50.9443 86.1212 50.8459C86.3046 50.7474 86.4597 50.6048 86.5718 50.4312C86.684 50.2577 86.7496 50.059 86.7625 49.8537C86.7754 49.6485 86.7353 49.4433 86.6457 49.2575C86.3158 48.5982 85.8049 48.0431 85.1711 47.6549C84.5372 47.2667 83.8057 47.0609 83.0592 47.0609C82.3127 47.0609 81.5812 47.2667 80.9473 47.6549C80.3135 48.0431 79.8027 48.5982 79.4727 49.2575C79.3832 49.4433 79.343 49.6485 79.3559 49.8537C79.3688 50.059 79.4344 50.2577 79.5466 50.4312C79.6588 50.6048 79.8138 50.7474 79.9972 50.8459C80.1806 50.9443 80.3864 50.9954 80.5952 50.9942H85.5232Z" fill="black" stroke="white" stroke-width="1.2" stroke-linecap="round" stroke-linejoin="round"/>
<path d="M84.9467 51.1938C85.9047 51.1938 86.6813 50.4291 86.6813 49.4858C86.6813 48.5425 85.9047 47.7778 84.9467 47.7778C83.9887 47.7778 83.2121 48.5425 83.2121 49.4858C83.2121 50.4291 83.9887 51.1938 84.9467 51.1938Z" fill="white"/>
<path d="M98.051 50.9942C98.2599 50.9954 98.4657 50.9443 98.6491 50.8459C98.8325 50.7474 98.9875 50.6047 99.0996 50.4312C99.2118 50.2577 99.2774 50.059 99.2903 49.8537C99.3033 49.6485 99.2631 49.4433 99.1735 49.2575C98.8435 48.5982 98.3327 48.0431 97.6988 47.6549C97.0649 47.2668 96.3333 47.061 95.5869 47.061C94.8404 47.061 94.1088 47.2668 93.4749 47.6549C92.8411 48.0431 92.3302 48.5982 92.0002 49.2575C91.9106 49.4433 91.8704 49.6485 91.8834 49.8538C91.8963 50.0591 91.962 50.2578 92.0742 50.4314C92.1863 50.6049 92.3414 50.7475 92.5249 50.846C92.7083 50.9444 92.9141 50.9954 93.1231 50.9942H98.051Z" fill="black" stroke="white" stroke-width="1.2" stroke-linecap="round" stroke-linejoin="round"/>
<path d="M97.4746 51.1938C98.4326 51.1938 99.2092 50.4291 99.2092 49.4858C99.2092 48.5425 98.4326 47.7778 97.4746 47.7778C96.5166 47.7778 95.74 48.5425 95.74 49.4858C95.74 50.4291 96.5166 51.1938 97.4746 51.1938Z" fill="white"/>
<path d="M61.2752 80.3547V97.4707H70.4315C70.7697 97.4707 71.1046 97.4051 71.417 97.2777C71.7295 97.1502 72.0134 96.9635 72.2525 96.728C72.4916 96.4925 72.6813 96.213 72.8107 95.9054C72.9402 95.5977 73.0068 95.268 73.0068 94.935C73.0068 94.602 72.9402 94.2723 72.8107 93.9646C72.6813 93.657 72.4916 93.3774 72.2525 93.142C72.0134 92.9065 71.7295 92.7197 71.417 92.5923C71.1046 92.4649 70.7697 92.3993 70.4315 92.3993H67.284V77.397H61.2036L61.2752 80.3547Z" fill="white" stroke="white" stroke-width="1.2" stroke-linecap="round" stroke-linejoin="round"/>
<path d="M76.8545 62.7698C77.0439 62.4727 77.2908 62.2153 77.5813 62.0123C77.8717 61.8092 78.2 61.6645 78.5472 61.5864C78.8945 61.5082 79.254 61.4983 79.6051 61.557C79.9563 61.6157 80.2923 61.7419 80.5939 61.9285C82.0922 62.8549 87.078 66.5591 88.3251 75.3299C88.887 79.2711 88.7917 83.2761 88.0428 87.187C87.8876 87.8784 87.4597 88.4807 86.8534 88.8615C86.2471 89.2423 85.512 89.3703 84.8098 89.2174C84.1076 89.0646 83.4959 88.6433 83.1091 88.0463C82.7224 87.4493 82.5924 86.7255 82.7476 86.0341C82.7512 86.0185 82.8736 85.4502 82.9971 84.4856C82.8866 84.1354 82.6506 84.1188 82.4492 84.2424C82.1627 84.4189 80.7654 85.5124 80.6581 84.5599C80.5509 83.6075 81.6255 81.8085 82.4136 81.1381C83.2017 80.4677 83.2017 79.1276 83.2017 79.1276L83.2278 79.1189C83.1887 78.0987 83.0978 77.081 82.9554 76.0698C82.4746 72.69 80.8448 68.388 77.711 66.4504C77.1018 66.0741 76.6693 65.475 76.5086 64.7848C76.348 64.0945 76.4724 63.3697 76.8545 62.7698Z" fill="white" stroke="white" stroke-width="1.2" stroke-linecap="round" stroke-linejoin="round"/>
<path d="M57.626 34.0911L34.2679 47.3698V59.4359C30.75 58.8839 27.532 55.8824 25.6517 53.1724C25.0678 52.3288 24.5272 51.4569 24.0321 50.5599L24.0515 50.5408C24.0515 50.5408 23.4468 49.3396 23.8508 48.3945C24.2547 47.4493 24.406 45.3676 23.88 44.5614C23.354 43.7552 22.5956 45.3457 22.4185 45.6292C22.2939 45.8282 22.0749 45.9164 21.8188 45.6511C21.4942 44.733 21.3474 44.1703 21.3436 44.1547C21.1708 43.4673 20.7278 42.8757 20.112 42.51C19.4963 42.1442 18.7582 42.0343 18.0601 42.2044C17.362 42.3745 16.7612 42.8107 16.3897 43.417C16.0183 44.0233 15.9067 44.7501 16.0794 45.4374C17.1723 49.2689 18.8932 52.8989 21.1742 56.1843C26.2489 63.4972 32.3851 64.6355 34.1455 64.8102C34.1864 64.8143 34.227 64.814 34.2679 64.8161V73.9272L47.9684 81.7156V92.3993H44.8209C44.1379 92.3993 43.4829 92.6664 42.9999 93.1419C42.5169 93.6175 42.2456 94.2624 42.2456 94.935C42.2456 95.6075 42.5169 96.2524 42.9999 96.728C43.4829 97.2035 44.1379 97.4706 44.8209 97.4706H53.9772V85.1319L57.626 87.2059L80.9845 73.9272V47.3698L57.626 34.0911Z" fill="black" stroke="white" stroke-width="1.2" stroke-miterlimit="10"/>
<path d="M52.3767 60.6141V63.5621C52.3855 63.9731 52.2982 64.3806 52.1216 64.7532C51.9315 65.1714 51.6258 65.5285 51.2393 65.7836C50.8528 66.0388 50.4012 66.1817 49.9362 66.1961C49.5174 66.1879 49.1081 66.0718 48.7491 65.8594C48.3901 65.6469 48.0939 65.3455 47.8901 64.9852C47.6496 64.5625 47.5284 64.084 47.539 63.5996V60.5307C47.5283 60.0463 47.6495 59.5678 47.8901 59.1451C48.0938 58.7847 48.39 58.4833 48.749 58.2708C49.108 58.0584 49.5174 57.9423 49.9362 57.9342C50.27 57.9386 50.5991 58.0125 50.9018 58.1511C51.2046 58.2897 51.4741 58.4899 51.6926 58.7383C52.1478 59.2591 52.3914 59.9272 52.3767 60.6141Z" fill="black" stroke="white" stroke-width="1.2" stroke-linecap="round" stroke-linejoin="round"/>
<path d="M49.9556 62.549C51.281 62.549 52.3555 61.4911 52.3555 60.186C52.3555 58.881 51.281 57.823 49.9556 57.823C48.6301 57.823 47.5556 58.881 47.5556 60.186C47.5556 61.4911 48.6301 62.549 49.9556 62.549Z" fill="white"/>
<path d="M65.9011 60.6141V63.5621C65.9099 63.9731 65.8226 64.3806 65.6461 64.7532C65.456 65.1714 65.1502 65.5285 64.7637 65.7836C64.3773 66.0388 63.9257 66.1817 63.4606 66.1961C63.0418 66.1879 62.6325 66.0718 62.2735 65.8594C61.9145 65.6469 61.6183 65.3455 61.4145 64.9852C61.1734 64.5626 61.0516 64.0842 61.0617 63.5996V60.5307C61.0515 60.0461 61.1734 59.5677 61.4145 59.1451C61.6183 58.7847 61.9144 58.4833 62.2735 58.2708C62.6325 58.0584 63.0418 57.9423 63.4606 57.9342C63.7944 57.9387 64.1235 58.0126 64.4262 58.1512C64.729 58.2898 64.9985 58.4899 65.2171 58.7383C65.6722 59.2591 65.9158 59.9272 65.9011 60.6141Z" fill="black" stroke="white" stroke-width="1.2" stroke-linecap="round" stroke-linejoin="round"/>
<path d="M63.4782 62.549C64.8037 62.549 65.8782 61.4911 65.8782 60.186C65.8782 58.881 64.8037 57.823 63.4782 57.823C62.1528 57.823 61.0783 58.881 61.0783 60.186C61.0783 61.4911 62.1528 62.549 63.4782 62.549Z" fill="white"/>
<rect x="0.6" y="96.7228" width="386.8" height="6.67717" rx="3.33858" fill="black" stroke="white" stroke-width="1.2"/>
</svg>
