<svg width="34" height="34" viewBox="0 0 34 34" fill="none" xmlns="http://www.w3.org/2000/svg">
<path d="M16.77 32.54C25.4795 32.54 32.54 25.4795 32.54 16.77C32.54 8.06047 25.4795 1 16.77 1C8.06047 1 1 8.06047 1 16.77C1 25.4795 8.06047 32.54 16.77 32.54Z" fill="white" stroke="#1D1D1B" stroke-linecap="round" stroke-linejoin="round"/>
<path d="M23.5301 16.1299C23.6424 16.1936 23.7358 16.286 23.8008 16.3975C23.8658 16.5091 23.9 16.6359 23.9 16.765C23.9 16.8941 23.8658 17.0208 23.8008 17.1324C23.7358 17.2439 23.6424 17.3363 23.5301 17.4L18.7301 20.17L13.9401 22.94C13.8277 23.0049 13.7001 23.0391 13.5703 23.0391C13.4405 23.0392 13.3129 23.0051 13.2005 22.9402C13.088 22.8754 12.9946 22.7821 12.9296 22.6697C12.8646 22.5574 12.8302 22.4298 12.8301 22.3V11.23C12.8302 11.1002 12.8646 10.9727 12.9296 10.8603C12.9946 10.7479 13.088 10.6546 13.2005 10.5898C13.3129 10.5249 13.4405 10.4909 13.5703 10.4909C13.7001 10.4909 13.8277 10.5251 13.9401 10.59L18.7301 13.36L23.5301 16.1299Z" fill="#1D1D1B" stroke="white" stroke-linecap="round" stroke-linejoin="round"/>
</svg>
