<svg width="409" height="562" viewBox="0 0 409 562" fill="none" xmlns="http://www.w3.org/2000/svg">
<path d="M238.606 291.452H504.411V298.213H238.606C237.71 298.213 236.852 297.857 236.219 297.223C235.586 296.589 235.23 295.729 235.23 294.833C235.23 294.389 235.318 293.949 235.487 293.539C235.657 293.129 235.906 292.756 236.219 292.442C236.532 292.129 236.904 291.88 237.314 291.71C237.723 291.54 238.162 291.452 238.606 291.452Z" fill="white" stroke="black" stroke-width="1.5" stroke-miterlimit="10"/>
<path d="M504.41 298.212H239.392V324.949H504.41V298.212Z" fill="white" stroke="black" stroke-width="1.5" stroke-miterlimit="10"/>
<path d="M504.41 298.225H239.392V307.69H504.41V298.225Z" fill="black"/>
<path d="M504.41 332.454H205.229C204.334 332.454 203.476 332.097 202.844 331.463C202.212 330.829 201.856 329.97 201.856 329.074C201.856 328.177 202.212 327.318 202.845 326.684C203.478 326.05 204.337 325.694 205.232 325.694H504.41V332.454Z" fill="white" stroke="black" stroke-width="1.5" stroke-miterlimit="10"/>
<path d="M504.411 332.454H206.015V359.191H504.411V332.454Z" fill="white" stroke="black" stroke-width="1.5" stroke-miterlimit="10"/>
<path d="M504.411 332.467H206.015V341.932H504.411V332.467Z" fill="black"/>
<path d="M171.853 359.191H504.411V365.952H171.853C170.957 365.952 170.099 365.595 169.466 364.962C168.833 364.328 168.477 363.468 168.477 362.571C168.477 362.127 168.565 361.688 168.734 361.278C168.904 360.868 169.152 360.495 169.466 360.181C169.779 359.867 170.151 359.618 170.561 359.448C170.97 359.278 171.409 359.191 171.853 359.191Z" fill="white" stroke="black" stroke-width="1.5" stroke-miterlimit="10"/>
<path d="M504.411 365.952H172.638V392.689H504.411V365.952Z" fill="white" stroke="black" stroke-width="1.5" stroke-miterlimit="10"/>
<path d="M504.411 365.965H172.638V375.43H504.411V365.965Z" fill="black"/>
<path d="M504.41 400.194H138.474C138.031 400.194 137.592 400.106 137.182 399.936C136.773 399.767 136.401 399.518 136.087 399.204C135.774 398.89 135.525 398.517 135.356 398.107C135.186 397.697 135.099 397.258 135.099 396.814C135.099 395.917 135.454 395.057 136.087 394.424C136.72 393.79 137.579 393.434 138.474 393.434H504.41V400.194Z" fill="white" stroke="black" stroke-width="1.5" stroke-miterlimit="10"/>
<path d="M504.411 400.194H139.26V426.931H504.411V400.194Z" fill="white" stroke="black" stroke-width="1.5" stroke-miterlimit="10"/>
<path d="M504.411 400.207H139.26V409.672H504.411V400.207Z" fill="black"/>
<path d="M504.41 433.691H105.096C104.201 433.691 103.343 433.335 102.71 432.701C102.077 432.067 101.721 431.208 101.721 430.311C101.721 429.415 102.077 428.555 102.71 427.921C103.343 427.287 104.201 426.931 105.096 426.931H504.41V433.691Z" fill="white" stroke="black" stroke-width="1.5" stroke-miterlimit="10"/>
<path d="M504.411 433.691H105.883V460.429H504.411V433.691Z" fill="white" stroke="black" stroke-width="1.5" stroke-miterlimit="10"/>
<path d="M504.411 433.704H105.883V443.169H504.411V433.704Z" fill="black"/>
<path d="M504.41 467.933H71.7191C71.2758 467.933 70.8369 467.846 70.4273 467.676C70.0178 467.506 69.6457 467.257 69.3322 466.943C69.0188 466.629 68.7702 466.256 68.6006 465.846C68.431 465.436 68.3438 464.996 68.3439 464.552C68.3439 464.109 68.4312 463.669 68.6008 463.259C68.7704 462.849 69.0191 462.476 69.3325 462.162C69.6459 461.849 70.018 461.6 70.4275 461.43C70.837 461.26 71.2759 461.173 71.7191 461.173H504.41V467.933Z" fill="white" stroke="black" stroke-width="1.5" stroke-miterlimit="10"/>
<path d="M504.411 467.933H72.5057V494.671H504.411V467.933Z" fill="white" stroke="black" stroke-width="1.5" stroke-miterlimit="10"/>
<path d="M504.411 467.946H72.5057V477.412H504.411V467.946Z" fill="black"/>
<path d="M38.3417 494.671H504.411V501.431H38.3417C37.4465 501.431 36.588 501.075 35.955 500.441C35.322 499.807 34.9664 498.947 34.9664 498.051C34.9664 497.154 35.322 496.295 35.955 495.661C36.588 495.027 37.4465 494.671 38.3417 494.671Z" fill="white" stroke="black" stroke-width="1.5" stroke-miterlimit="10"/>
<path d="M504.411 501.431H39.1282V528.168H504.411V501.431Z" fill="white" stroke="black" stroke-width="1.5" stroke-miterlimit="10"/>
<path d="M504.411 501.444H39.1282V510.909H504.411V501.444Z" fill="black"/>
<path d="M504.41 535.673H4.96427C4.06909 535.673 3.21059 535.317 2.5776 534.683C1.94462 534.049 1.58902 533.189 1.58902 532.293C1.58902 531.396 1.94462 530.537 2.5776 529.903C3.21059 529.269 4.06909 528.913 4.96427 528.913H504.41V535.673Z" fill="white" stroke="black" stroke-width="1.5" stroke-miterlimit="10"/>
<path d="M504 536H6V662H504V536Z" fill="white" stroke="black" stroke-width="1.5" stroke-miterlimit="10"/>
<path d="M504.411 535.686H5.75082V545.151H504.411V535.686Z" fill="black"/>
<path d="M393.351 280.418H392.962V1H348.038V280.418H347.65C346.252 280.416 344.869 280.689 343.577 281.22C342.286 281.751 341.112 282.53 340.124 283.513C339.135 284.495 338.35 285.662 337.814 286.947C337.278 288.232 337.001 289.609 337 291H404C403.999 289.609 403.722 288.232 403.186 286.947C402.65 285.662 401.865 284.495 400.876 283.513C399.888 282.53 398.714 281.751 397.423 281.22C396.131 280.689 394.748 280.416 393.351 280.418Z" fill="black" stroke="black" stroke-width="1.5" stroke-miterlimit="10"/>
<path d="M286.266 126.888C293.593 131.688 307.437 128.03 313.724 120.746C318.684 114.999 326.158 105.808 341.395 109.08L329.213 76.6679C313.976 73.3961 306.502 82.586 301.542 88.3331C295.256 95.6192 281.409 99.272 274.085 94.4748L286.266 126.888Z" stroke="black" stroke-width="1.5" stroke-miterlimit="10"/>
<path d="M294.397 93.6914L306.579 126.106C299.862 129.45 291.439 130.275 286.266 126.888L274.085 94.476C279.258 97.863 287.679 97.035 294.397 93.6914Z" fill="#3154FF" stroke="black" stroke-width="1.5" stroke-miterlimit="10"/>
<path d="M329.214 76.6663L341.396 109.08C332.813 107.239 326.692 109.346 322.099 112.571L309.917 80.1585C314.51 76.9341 320.631 74.8245 329.214 76.6663Z" fill="#FF2E3F" stroke="black" stroke-width="1.5" stroke-miterlimit="10"/>
<path d="M330.05 75.0029L330.05 75.0032C329.343 75.2689 328.985 76.0574 329.251 76.7644L355.162 145.708C355.428 146.415 356.216 146.772 356.923 146.507L356.924 146.507C357.631 146.241 357.989 145.452 357.723 144.745L331.812 75.8019C331.546 75.095 330.757 74.7372 330.05 75.0029Z" fill="black" stroke="black" stroke-width="1.5" stroke-miterlimit="10"/>
<path d="M364.703 280.099H410.158C412.967 280.099 415.661 281.216 417.647 283.206C419.634 285.195 420.75 287.893 420.75 290.707H354.111C354.111 287.893 355.227 285.195 357.214 283.206C359.2 281.216 361.894 280.099 364.703 280.099Z" fill="white" stroke="black" stroke-width="1.5" stroke-miterlimit="10"/>
<path d="M365.09 0V280.099H409.771V0" fill="white"/>
<path d="M365.09 0V280.099H409.771V0" stroke="black" stroke-width="1.5" stroke-miterlimit="10"/>
<path d="M391.272 9.05237C391.272 7.22903 389.796 5.75092 387.975 5.75092C386.155 5.75092 384.679 7.22903 384.679 9.05237V271.046C384.679 272.869 386.155 274.347 387.975 274.347C389.796 274.347 391.272 272.869 391.272 271.046V9.05237Z" stroke="black" stroke-width="1.5" stroke-miterlimit="10"/>
<path d="M404.618 9.05237C404.618 7.22903 403.142 5.75092 401.321 5.75092C399.501 5.75092 398.025 7.22903 398.025 9.05237V271.046C398.025 272.869 399.501 274.347 401.321 274.347C403.142 274.347 404.618 272.869 404.618 271.046V9.05237Z" stroke="black" stroke-width="1.5" stroke-miterlimit="10"/>
<path d="M377.926 9.05237C377.926 7.22903 376.45 5.75092 374.63 5.75092C372.809 5.75092 371.333 7.22903 371.333 9.05237V271.046C371.333 272.869 372.809 274.347 374.63 274.347C376.45 274.347 377.926 272.869 377.926 271.046V9.05237Z" stroke="black" stroke-width="1.5" stroke-miterlimit="10"/>
<path d="M391.273 9.0541V271.047C391.274 271.792 391.023 272.514 390.561 273.098C390.099 273.682 389.454 274.092 388.73 274.263C388.007 274.433 387.247 274.353 386.574 274.036C385.901 273.72 385.355 273.184 385.024 272.517C385.504 272.619 386.001 272.612 386.478 272.496C386.956 272.381 387.401 272.16 387.782 271.85C388.163 271.54 388.47 271.149 388.681 270.705C388.892 270.26 389.001 269.775 389.001 269.283V7.29164C389.002 6.78108 388.884 6.27733 388.655 5.82104C389.396 5.97711 390.06 6.38362 390.537 6.97233C391.014 7.56104 391.274 8.29611 391.273 9.0541Z" fill="black"/>
<path d="M404.616 9.0541V271.047C404.615 271.79 404.363 272.511 403.901 273.094C403.44 273.676 402.796 274.085 402.073 274.255C401.351 274.426 400.592 274.346 399.92 274.031C399.248 273.716 398.702 273.182 398.37 272.517C398.85 272.618 399.347 272.61 399.824 272.494C400.3 272.378 400.745 272.157 401.126 271.848C401.507 271.538 401.814 271.147 402.025 270.703C402.236 270.26 402.346 269.775 402.346 269.283V7.29164C402.348 6.78113 402.23 6.27738 402.001 5.82104C402.741 5.97782 403.405 6.38464 403.881 6.97328C404.357 7.56193 404.617 8.2966 404.616 9.0541Z" fill="black"/>
<path d="M377.927 9.0541V271.047C377.927 271.923 377.58 272.763 376.962 273.382C376.343 274.001 375.505 274.349 374.63 274.349H374.627C374.014 274.349 373.414 274.177 372.893 273.854C372.371 273.532 371.95 273.07 371.677 272.521C372.157 272.622 372.653 272.614 373.13 272.498C373.607 272.382 374.052 272.161 374.433 271.851C374.814 271.542 375.121 271.151 375.332 270.707C375.544 270.263 375.653 269.778 375.653 269.287V7.29164C375.655 6.78108 375.537 6.27733 375.308 5.82104C376.049 5.97687 376.713 6.38329 377.19 6.97202C377.667 7.56075 377.928 8.29594 377.927 9.0541Z" fill="black"/>
</svg>
