<svg version="1.2" xmlns="http://www.w3.org/2000/svg" viewBox="0 0 409 562" width="409" height="562">
	<title>steps_bg-svg</title>
	<style>
		.s0 { fill: #ffffff;stroke: #000000;stroke-width: 1.5 } 
		.s1 { fill: #000000 } 
		.s2 { fill: #000000;stroke: #000000;stroke-width: 1.5 } 
		.s3 { fill: none;stroke: #000000;stroke-width: 1.5 } 
		.s4 { fill: #3154ff;stroke: #000000;stroke-width: 1.5 } 
		.s5 { fill: #ff2e3f;stroke: #000000;stroke-width: 1.5 } 
		.s6 { fill: #ffffff } 
	</style>
	<path id="Layer" class="s0" d="m238.6 291.5h265.8v6.7h-265.8c-0.9 0-1.7-0.3-2.4-1c-0.6-0.6-1-1.5-1-2.4q0-0.6 0.3-1.3q0.2-0.6 0.7-1.1q0.5-0.4 1.1-0.7q0.6-0.2 1.3-0.2z" />
	<path id="Layer" class="s0" d="m504.4 324.9h-265v-26.7h265z" />
	<path id="Layer" class="s1" d="m504.4 307.7h-265v-9.5h265z" />
	<path id="Layer" class="s0" d="m504.4 332.5h-299.2c-0.9 0-1.7-0.4-2.4-1c-0.6-0.7-0.9-1.5-0.9-2.4c0-0.9 0.3-1.8 0.9-2.4c0.7-0.6 1.5-1 2.4-1h299.2z" />
	<path id="Layer" class="s0" d="m504.4 359.2h-298.4v-26.7h298.4z" />
	<path id="Layer" class="s1" d="m504.4 341.9h-298.4v-9.4h298.4z" />
	<path id="Layer" class="s0" d="m171.9 359.2h332.5v6.8h-332.5c-0.9 0-1.8-0.4-2.4-1c-0.7-0.7-1-1.5-1-2.4q0-0.7 0.2-1.3q0.3-0.6 0.8-1.1q0.4-0.5 1.1-0.8q0.6-0.2 1.3-0.2z" />
	<path id="Layer" class="s0" d="m504.4 392.7h-331.8v-26.7h331.8z" />
	<path id="Layer" class="s1" d="m504.4 375.4h-331.8v-9.4h331.8z" />
	<path id="Layer" class="s0" d="m504.4 400.2h-365.9q-0.7 0-1.3-0.3q-0.6-0.2-1.1-0.7q-0.5-0.5-0.7-1.1q-0.3-0.6-0.3-1.3c0-0.9 0.4-1.7 1-2.4c0.6-0.6 1.5-1 2.4-1h365.9z" />
	<path id="Layer" class="s0" d="m504.4 426.9h-365.1v-26.7h365.1z" />
	<path id="Layer" class="s1" d="m504.4 409.7h-365.1v-9.5h365.1z" />
	<path id="Layer" class="s0" d="m504.4 433.7h-399.3c-0.9 0-1.8-0.4-2.4-1c-0.6-0.6-1-1.5-1-2.4c0-0.9 0.4-1.7 1-2.4c0.6-0.6 1.5-1 2.4-1h399.3z" />
	<path id="Layer" class="s0" d="m504.4 460.4h-398.5v-26.7h398.5z" />
	<path id="Layer" class="s1" d="m504.4 443.2h-398.5v-9.5h398.5z" />
	<path id="Layer" class="s0" d="m504.4 467.9h-432.7q-0.7 0-1.3-0.2q-0.6-0.3-1.1-0.8q-0.4-0.4-0.7-1.1q-0.3-0.6-0.3-1.2q0-0.7 0.3-1.3q0.3-0.7 0.7-1.1q0.5-0.5 1.1-0.8q0.6-0.2 1.3-0.2h432.7z" />
	<path id="Layer" class="s0" d="m504.4 494.7h-431.9v-26.8h431.9z" />
	<path id="Layer" class="s1" d="m504.4 477.4h-431.9v-9.5h431.9z" />
	<path id="Layer" class="s0" d="m38.3 494.7h466.1v6.7h-466.1c-0.9 0-1.7-0.3-2.3-1c-0.7-0.6-1-1.5-1-2.3c0-0.9 0.3-1.8 1-2.4c0.6-0.7 1.4-1 2.3-1z" />
	<path id="Layer" class="s0" d="m504.4 528.2h-465.3v-26.8h465.3z" />
	<path id="Layer" class="s1" d="m504.4 510.9h-465.3v-9.5h465.3z" />
	<path id="Layer" class="s0" d="m504.4 535.7h-499.4c-0.9 0-1.8-0.4-2.4-1c-0.7-0.7-1-1.5-1-2.4c0-0.9 0.3-1.8 1-2.4c0.6-0.6 1.5-1 2.4-1h499.4z" />
	<path id="Layer" class="s0" d="m504 662h-498v-126h498z" />
	<path id="Layer" class="s1" d="m504.4 545.2h-498.6v-9.5h498.6z" />
	<path id="Layer" class="s2" d="m397.4 281.2c1.3 0.6 2.5 1.3 3.5 2.3c1 1 1.8 2.2 2.3 3.4c0.5 1.3 0.8 2.7 0.8 4.1h-67c0-1.4 0.3-2.8 0.8-4.1c0.6-1.2 1.3-2.4 2.3-3.4c1-1 2.2-1.7 3.5-2.3c1.3-0.5 2.7-0.8 4.1-0.8h0.3v-279.4h45v279.4h0.4c1.3 0 2.7 0.3 4 0.8z" />
	<path id="Layer" class="s3" d="m274.1 94.5c7.3 4.8 21.2 1.1 27.4-6.2c5-5.7 12.5-14.9 27.7-11.6l12.2 32.4c-15.2-3.3-22.7 5.9-27.7 11.6c-6.3 7.3-20.1 11-27.4 6.2z" />
	<path id="Layer" class="s4" d="m294.4 93.7l12.2 32.4c-6.7 3.3-15.2 4.2-20.3 0.8l-12.2-32.4c5.2 3.4 13.6 2.5 20.3-0.8z" />
	<path id="Layer" class="s5" d="m329.2 76.7l12.2 32.4c-8.6-1.9-14.7 0.2-19.3 3.5l-12.2-32.4c4.6-3.3 10.7-5.4 19.3-3.5z" />
	<path id="Layer" class="s2" d="m331.8 75.8l25.9 68.9c0.3 0.8-0.1 1.5-0.8 1.8c-0.7 0.3-1.5-0.1-1.7-0.8l-25.9-68.9c-0.3-0.7 0-1.5 0.8-1.8h-0.1c0.8-0.3 1.5 0.1 1.8 0.8z" />
	<path id="Layer" class="s0" d="m364.7 280.1h45.5c2.8 0 5.5 1.1 7.4 3.1c2 2 3.2 4.7 3.2 7.5h-66.7c0-2.8 1.1-5.5 3.1-7.5c2-2 4.7-3.1 7.5-3.1z" />
	<path id="Layer" class="s6" d="m409.8 0v280.1h-44.7v-280.1" />
	<path id="Layer" class="s3" d="m409.8 0v280.1h-44.7v-280.1" />
	<path id="Layer" class="s3" d="m391.3 271c0 1.9-1.5 3.3-3.3 3.3c-1.8 0-3.3-1.4-3.3-3.3v-261.9c0-1.9 1.5-3.3 3.3-3.3c1.8 0 3.3 1.4 3.3 3.3z" />
	<path id="Layer" class="s3" d="m404.6 271c0 1.9-1.5 3.3-3.3 3.3c-1.8 0-3.3-1.4-3.3-3.3v-261.9c0-1.9 1.5-3.3 3.3-3.3c1.8 0 3.3 1.4 3.3 3.3z" />
	<path id="Layer" class="s3" d="m377.9 271c0 1.9-1.4 3.3-3.3 3.3c-1.8 0-3.3-1.4-3.3-3.3v-261.9c0-1.9 1.5-3.3 3.3-3.3c1.9 0 3.3 1.4 3.3 3.3z" />
	<path id="Layer" class="s1" d="m391.3 9.1v261.9c0 0.8-0.3 1.5-0.7 2.1c-0.5 0.6-1.1 1-1.9 1.2c-0.7 0.1-1.5 0.1-2.1-0.3c-0.7-0.3-1.2-0.8-1.6-1.5q0.8 0.2 1.5 0q0.7-0.2 1.3-0.6q0.6-0.5 0.9-1.2q0.3-0.7 0.3-1.4v-262q0-0.8-0.3-1.5c0.7 0.2 1.4 0.6 1.8 1.2c0.5 0.6 0.8 1.3 0.8 2.1z" />
	<path id="Layer" class="s1" d="m404.6 9.1v261.9c0 0.8-0.2 1.5-0.7 2.1c-0.5 0.6-1.1 1-1.8 1.2c-0.7 0.1-1.5 0-2.2-0.3c-0.7-0.3-1.2-0.8-1.5-1.5q0.7 0.2 1.4 0q0.7-0.2 1.3-0.7q0.6-0.4 0.9-1.1q0.3-0.7 0.3-1.4v-262q0-0.8-0.3-1.5c0.7 0.2 1.4 0.6 1.9 1.2c0.5 0.6 0.7 1.3 0.7 2.1z" />
	<path id="Layer" class="s1" d="m377.9 9.1v261.9c0 0.9-0.3 1.8-0.9 2.4c-0.7 0.6-1.5 0.9-2.4 0.9c-0.6 0-1.2-0.1-1.7-0.4c-0.5-0.4-0.9-0.8-1.2-1.4q0.7 0.2 1.4 0q0.8-0.2 1.3-0.6q0.6-0.5 0.9-1.2q0.4-0.7 0.4-1.4v-262q0-0.8-0.4-1.5c0.7 0.2 1.4 0.6 1.9 1.2c0.5 0.6 0.7 1.3 0.7 2.1z" />
</svg>