<svg xmlns="http://www.w3.org/2000/svg" width="55.233mm" height="55.233mm" viewBox="0 0 156.567 156.567">
  <g>
    <circle cx="78.759" cy="78.284" r="75.118" fill="#fff"/>
    <g>
      <path d="M78.284,6A72.284,72.284,0,1,1,6,78.284,72.283,72.283,0,0,1,78.284,6m0-6a78.284,78.284,0,1,0,78.283,78.284A78.373,78.373,0,0,0,78.284,0Z" transform="translate(0)"/>
      <g>
        <path d="M36.266,129.028q-.481-.671-.971-1.249t-1.021-1.149a23.511,23.511,0,0,0-3.236-2.857,4.035,4.035,0,0,1,.531-.253,4.835,4.835,0,0,0,.515-.24,5.55,5.55,0,0,0,.6-.377,7.684,7.684,0,0,0,.777-.656,7.572,7.572,0,0,0,.818-.891,4.562,4.562,0,0,0,.552-.9,2.133,2.133,0,0,0,.2-.814.87.87,0,0,0-.236-.638.968.968,0,0,0-.628-.323,1.653,1.653,0,0,0-.769.124,3.877,3.877,0,0,0-.845.467,8.149,8.149,0,0,0-.868.713,6.157,6.157,0,0,0-.7.751,5.518,5.518,0,0,0-.427.634q-.164.288-.278.523a2.625,2.625,0,0,1-.262.425q-.543-.738-1.106-1.413t-1.155-1.31q-.594-.636-1.232-1.239t-1.355-1.215q2.292-1.026,4.413-2.174t4.142-2.442q2.02-1.3,3.966-2.748t3.884-3.085q.568.8,1.324,1.694t1.593,1.787q.711.759,1.421,1.44a12.089,12.089,0,0,0,1.4,1.17,41.863,41.863,0,0,0-3.294,3.736q-1.52,1.945-2.873,4T38.6,124.715Q37.391,126.854,36.266,129.028Zm2.421-12.382a5.421,5.421,0,0,0,.431-.62c.151-.25.34-.591.57-1.022s.5-1.008.826-1.73c-.382.26-.732.48-1.053.66s-.611.337-.874.474-.5.267-.712.387a2.864,2.864,0,0,0-.548.4,1.524,1.524,0,0,0-.535.924.9.9,0,0,0,.208.753.816.816,0,0,0,.758.23A1.82,1.82,0,0,0,38.687,116.646Z" transform="translate(0)"/>
        <path d="M58.4,126.076a4.356,4.356,0,0,1-2.123,1.784,3.611,3.611,0,0,1-1.392.24,2.887,2.887,0,0,1-1.418-.428,2.787,2.787,0,0,1-.924-.832,2.317,2.317,0,0,1-.381-.984,2.808,2.808,0,0,1,.057-1.039,3.623,3.623,0,0,1,.409-1,4.1,4.1,0,0,1,.667-.853,2.843,2.843,0,0,1,.843-.581,1.116,1.116,0,0,0-.037.477.816.816,0,0,0,.127.328.917.917,0,0,0,.247.254.725.725,0,0,0,.631.113.8.8,0,0,0,.415-.352.755.755,0,0,0,.093-.258.8.8,0,0,0-.011-.306.858.858,0,0,0-.154-.321,1.132,1.132,0,0,0-.345-.3,3.111,3.111,0,0,0-.377-.178,2.049,2.049,0,0,0-.62-.13,2.822,2.822,0,0,0-.831.082,3.242,3.242,0,0,0-1,.451,5.9,5.9,0,0,0-1.117.978,10.176,10.176,0,0,0-1.2,1.678,5.6,5.6,0,0,0-.594,1.326,3.969,3.969,0,0,0-.166,1.12,2.692,2.692,0,0,0,.158.922,3.14,3.14,0,0,0,.379.73,2.937,2.937,0,0,0,.484.54,3.512,3.512,0,0,0,.485.358,3.9,3.9,0,0,0,.807.333,3.4,3.4,0,0,0,2.386-.172,3.616,3.616,0,0,0,1.26-1,4.788,4.788,0,0,1-.181,1.686,7.091,7.091,0,0,1-.752,1.746,7.23,7.23,0,0,1-1.742,1.995,7.01,7.01,0,0,1-2.32,1.221,6.612,6.612,0,0,1-5.376-.691,6.054,6.054,0,0,1-1.641-1.395,6.353,6.353,0,0,1-1.016-1.775,7.209,7.209,0,0,1-.436-2.029,9.919,9.919,0,0,1,.088-2.163,10.875,10.875,0,0,1,.562-2.189,12.541,12.541,0,0,1,2.566-4.2,13.444,13.444,0,0,1,1.974-1.765,12.6,12.6,0,0,1,2.249-1.309,9.3,9.3,0,0,1,2.4-.723,7.813,7.813,0,0,1,2.423,0,6.393,6.393,0,0,1,2.307.84,7.007,7.007,0,0,1,1.62,1.274,5.284,5.284,0,0,1,.94,1.4,4.8,4.8,0,0,1,.4,1.438,5.513,5.513,0,0,1-.016,1.385,5.766,5.766,0,0,1-.318,1.245A6.544,6.544,0,0,1,58.4,126.076Z" transform="translate(0)"/>
        <path d="M72.681,129.736a4.347,4.347,0,0,1-1.529,2.312,3.62,3.62,0,0,1-1.267.625,2.88,2.88,0,0,1-1.48-.008,2.781,2.781,0,0,1-1.122-.535,2.3,2.3,0,0,1-.646-.836,2.771,2.771,0,0,1-.24-1.013,3.572,3.572,0,0,1,.108-1.074,4.161,4.161,0,0,1,.4-1.008,2.848,2.848,0,0,1,.642-.8,1.1,1.1,0,0,0,.1.466.842.842,0,0,0,.215.28.911.911,0,0,0,.309.173.722.722,0,0,0,.637-.071.8.8,0,0,0,.3-.454.78.78,0,0,0,.015-.275.744.744,0,0,0-.1-.289.866.866,0,0,0-.239-.265,1.131,1.131,0,0,0-.415-.187,3.149,3.149,0,0,0-.413-.063,2,2,0,0,0-.631.051,2.838,2.838,0,0,0-.773.314,3.243,3.243,0,0,0-.827.716,5.88,5.88,0,0,0-.793,1.255,10.2,10.2,0,0,0-.677,1.95,5.6,5.6,0,0,0-.193,1.44,4.046,4.046,0,0,0,.158,1.121,2.717,2.717,0,0,0,.413.839,3.174,3.174,0,0,0,.572.593,2.993,2.993,0,0,0,.617.38,3.417,3.417,0,0,0,.567.205,3.832,3.832,0,0,0,.868.09,3.391,3.391,0,0,0,1.115-.187,3.429,3.429,0,0,0,1.124-.655,3.585,3.585,0,0,0,.924-1.316,4.806,4.806,0,0,1,.306,1.669,7.137,7.137,0,0,1-.226,1.887,7.224,7.224,0,0,1-1.1,2.407,7.008,7.008,0,0,1-1.877,1.83,6.622,6.622,0,0,1-5.352.864A6.028,6.028,0,0,1,60.2,141.3a6.331,6.331,0,0,1-1.479-1.414,7.157,7.157,0,0,1-.995-1.822,10.024,10.024,0,0,1-.529-2.1,10.778,10.778,0,0,1-.082-2.258,12.564,12.564,0,0,1,1.268-4.751,13.519,13.519,0,0,1,1.392-2.252,12.59,12.59,0,0,1,1.785-1.895,9.318,9.318,0,0,1,2.1-1.374,7.819,7.819,0,0,1,2.322-.691,6.414,6.414,0,0,1,2.451.15,6.982,6.982,0,0,1,1.915.763,5.244,5.244,0,0,1,1.3,1.076A4.806,4.806,0,0,1,72.428,126a5.516,5.516,0,0,1,.378,1.332,5.764,5.764,0,0,1,.049,1.284A6.707,6.707,0,0,1,72.681,129.736Z" transform="translate(0)"/>
        <path d="M86.01,143.522c-.458-.079-.928-.137-1.407-.175s-.986-.065-1.519-.08-1.1-.018-1.7-.01-1.255.021-1.958.036q-.5.011-1.192.038t-1.487.1q-.8.071-1.639.186t-1.642.293a7.177,7.177,0,0,0,.469-1.506q.192-.909.309-1.926t.172-2.073q.058-1.057.078-1.967c.012-.608.017-1.132.012-1.576s-.009-.749-.013-.916c0-.036-.006-.172-.015-.409s-.023-.545-.04-.922-.039-.81-.067-1.3-.063-.994-.105-1.522-.094-1.056-.153-1.592-.128-1.041-.2-1.518-.16-.907-.251-1.287a4.015,4.015,0,0,0-.317-.91q1.3.157,2.55.215t2.427.035q1.437-.031,2.687-.137t2.184-.232c.727-.094,1.39-.2,1.984-.319l.133,6.182a7.475,7.475,0,0,0-1.487-1.063,8.043,8.043,0,0,0-1.251-.54,4.427,4.427,0,0,0-1.192-.212,2.981,2.981,0,0,0-1.07.188,1.7,1.7,0,0,0-.637.435,1.332,1.332,0,0,0-.3.587,2.733,2.733,0,0,0-.065.655,2.446,2.446,0,0,0,.113.682,1.85,1.85,0,0,0,.324.613,1.637,1.637,0,0,0,.556.444,1.686,1.686,0,0,0,.8.16,1.4,1.4,0,0,0,.7-.192,2.458,2.458,0,0,0,.532-.415,3.524,3.524,0,0,0,.475-.589l.114,5.364a2.517,2.517,0,0,0-.51-.78,2.183,2.183,0,0,0-.563-.416,1.619,1.619,0,0,0-.492-.162,2.647,2.647,0,0,0-.3-.027,1.54,1.54,0,0,0-1.267.555,2.1,2.1,0,0,0-.393,1.367,3.333,3.333,0,0,0,.16,1.024,1.954,1.954,0,0,0,.384.678,1.36,1.36,0,0,0,.549.371,1.822,1.822,0,0,0,.655.1,3.122,3.122,0,0,0,1.128-.262,5.521,5.521,0,0,0,1.153-.657,6.5,6.5,0,0,0,1.009-.925,4.871,4.871,0,0,0,.723-1.051Z" transform="translate(0)"/>
        <path d="M100.33,127.766a6.78,6.78,0,0,1,.287,2.533,6.068,6.068,0,0,1-.582,2.151,5.109,5.109,0,0,1-1.252,1.627,4.682,4.682,0,0,1-1.74.954,4.856,4.856,0,0,1-1.085.189,4.191,4.191,0,0,1-1.141-.1,15.714,15.714,0,0,0,.933,1.815,18.22,18.22,0,0,0,1.171,1.709,11.008,11.008,0,0,0,1.659,1.73q-1.332.242-2.379.489t-1.882.494q-1.125.33-1.867.632a12.611,12.611,0,0,0-1.194.545,6.218,6.218,0,0,0-.814.5,19.719,19.719,0,0,0-.083-2.284q-.111-1.218-.329-2.514t-.529-2.628q-.31-1.332-.69-2.622-.414-1.4-.9-2.723t-1.006-2.453a20.889,20.889,0,0,0-1.06-2.031,8.812,8.812,0,0,0-1.062-1.46,7.508,7.508,0,0,0,1.35-.1,11.493,11.493,0,0,0,1.371-.314c.413-.123.824-.264,1.229-.425s.8-.322,1.2-.484.772-.317,1.141-.466a10.73,10.73,0,0,1,1.045-.371,6.014,6.014,0,0,1,1.223-.21,5.878,5.878,0,0,1,1.461.084,6.4,6.4,0,0,1,1.566.508,6.042,6.042,0,0,1,1.532,1.046,7.859,7.859,0,0,1,1.36,1.7A10.776,10.776,0,0,1,100.33,127.766Zm-6.6,4.186c.151-.263.32-.582.509-.954a9.514,9.514,0,0,0,.5-1.177,6.616,6.616,0,0,0,.3-1.237,2.605,2.605,0,0,0-.06-1.109,1.3,1.3,0,0,0-.589-.81,1.015,1.015,0,0,0-.813-.124.819.819,0,0,0-.517.413,1.935,1.935,0,0,0-.2.741,4.23,4.23,0,0,0,.026.926c.042.331.1.655.162.97s.137.606.216.871.14.474.185.626l.126.43A4.206,4.206,0,0,0,93.73,131.952Z" transform="translate(0)"/>
        <path d="M116.217,131.385q-.27.141-.619.33-.3.162-.7.4c-.265.158-.56.339-.887.546q-.825.524-1.815,1.237t-2.032,1.607q-.656-1.893-1.421-3.547t-1.421-2.908q-.773-1.461-1.526-2.7-.33-.524-.749-1.133-.362-.52-.842-1.206t-1.06-1.476q-.206.834-.36,1.736t-.242,1.822q-.085.922-.1,1.821a15.689,15.689,0,0,0,.061,1.709l-5.125-8.676q1.125-.541,2.331-1.211t2.419-1.441q1.739-1.1,3.364-2.3t2.9-2.34l5.86,8.336a27.767,27.767,0,0,0-3.592-1.743,14.146,14.146,0,0,0-3.5-.927q.39.815.876,1.668t1.039,1.722q.711,1.125,1.536,2.266t1.725,2.254q.9,1.115,1.879,2.165T116.217,131.385Z" transform="translate(0)"/>
        <path d="M130.744,117.821q-.561.416-1.1.9t-1.107,1.042q-.569.561-1.184,1.222t-1.328,1.438q-.339.369-.8.889t-.958,1.142q-.5.622-1,1.312t-.924,1.389a7.133,7.133,0,0,0-.765-1.381q-.522-.765-1.176-1.554t-1.379-1.56q-.725-.77-1.367-1.415t-1.13-1.1c-.325-.3-.548-.512-.671-.624l-.306-.272-.693-.609q-.428-.374-.985-.849t-1.17-.975q-.617-.5-1.256-.991t-1.239-.9q-.6-.413-1.1-.708a3.989,3.989,0,0,0-.876-.4q1.01-.828,1.919-1.694t1.7-1.729q.969-1.059,1.759-2.035t1.343-1.739q.653-.885,1.141-1.654l4.558,4.18a7.437,7.437,0,0,0-1.8.339,8.014,8.014,0,0,0-1.255.53,4.429,4.429,0,0,0-.978.714,2.968,2.968,0,0,0-.6.9,1.667,1.667,0,0,0-.126.761,1.336,1.336,0,0,0,.219.621,2.755,2.755,0,0,0,.426.5,2.533,2.533,0,0,0,.573.391,1.881,1.881,0,0,0,.666.19,1.625,1.625,0,0,0,.7-.1,1.69,1.69,0,0,0,.671-.467,1.413,1.413,0,0,0,.341-.636,2.516,2.516,0,0,0,.069-.67,3.531,3.531,0,0,0-.1-.751l3.955,3.626a2.51,2.51,0,0,0-.917-.17,2.216,2.216,0,0,0-.69.118,1.665,1.665,0,0,0-.456.244,2.316,2.316,0,0,0-.225.2,1.531,1.531,0,0,0-.475,1.3,2.1,2.1,0,0,0,.715,1.229,3.327,3.327,0,0,0,.852.593,1.945,1.945,0,0,0,.754.191,1.356,1.356,0,0,0,.647-.139,1.8,1.8,0,0,0,.529-.4,3.125,3.125,0,0,0,.591-1,5.513,5.513,0,0,0,.323-1.288,6.58,6.58,0,0,0,.029-1.368,4.881,4.881,0,0,0-.259-1.248Zm-17.89-9.752-2.638,1.14q-.312-1.376-.626-2.613-.135-.517-.275-1.065t-.283-1.047q-.142-.5-.283-.931t-.254-.717c.333-.063.718-.16,1.158-.288s.858-.26,1.257-.394q.69-.226,1.424-.482Z" transform="translate(0)"/>
      </g>
      <path d="M78.284,47.433A30.851,30.851,0,1,1,47.433,78.284,30.886,30.886,0,0,1,78.284,47.433m0-6a36.851,36.851,0,1,0,36.85,36.851,36.851,36.851,0,0,0-36.85-36.851Z" transform="translate(0)"/>
      <g>
        <path d="M42.77,31.453a4.343,4.343,0,0,1,1.169,2.514,3.589,3.589,0,0,1-.131,1.406,2.877,2.877,0,0,1-.781,1.258,2.8,2.8,0,0,1-1.044.676,2.326,2.326,0,0,1-1.05.111,2.8,2.8,0,0,1-.989-.325,3.606,3.606,0,0,1-.858-.655,4.193,4.193,0,0,1-.65-.866,2.859,2.859,0,0,1-.342-.965,1.141,1.141,0,0,0,.45.16.827.827,0,0,0,.35-.037.906.906,0,0,0,.311-.174.722.722,0,0,0,.273-.578.809.809,0,0,0-.231-.493.768.768,0,0,0-.226-.158.784.784,0,0,0-.3-.068.888.888,0,0,0-.351.064A1.135,1.135,0,0,0,38,33.58a2.919,2.919,0,0,0-.271.318,2.038,2.038,0,0,0-.287.565,2.8,2.8,0,0,0-.137.823,3.236,3.236,0,0,0,.177,1.079,5.9,5.9,0,0,0,.653,1.333,10.15,10.15,0,0,0,1.307,1.6,5.6,5.6,0,0,0,1.125.92,4.048,4.048,0,0,0,1.038.452,2.717,2.717,0,0,0,.932.087,3.138,3.138,0,0,0,.8-.176,2.963,2.963,0,0,0,.649-.327,3.46,3.46,0,0,0,.47-.376,3.77,3.77,0,0,0,.532-.691,3.424,3.424,0,0,0,.425-1.048,3.473,3.473,0,0,0,.031-1.3,3.6,3.6,0,0,0-.638-1.476,4.76,4.76,0,0,1,1.581.613,7.094,7.094,0,0,1,1.49,1.181,7.226,7.226,0,0,1,1.472,2.2,6.958,6.958,0,0,1,.576,2.557,6.621,6.621,0,0,1-2.067,5.012,6.043,6.043,0,0,1-1.774,1.221,6.357,6.357,0,0,1-1.978.518,7.143,7.143,0,0,1-2.073-.106,9.979,9.979,0,0,1-2.066-.649A10.915,10.915,0,0,1,38,46.8a12.692,12.692,0,0,1-1.764-1.511,12.49,12.49,0,0,1-1.618-2.058,13.431,13.431,0,0,1-1.19-2.365,12.658,12.658,0,0,1-.68-2.513,9.345,9.345,0,0,1-.073-2.5A7.836,7.836,0,0,1,33.3,33.5a6.429,6.429,0,0,1,1.411-2.009,7.009,7.009,0,0,1,1.654-1.232,5.257,5.257,0,0,1,1.6-.542,4.821,4.821,0,0,1,1.492-.008,5.528,5.528,0,0,1,1.333.376,5.8,5.8,0,0,1,1.12.631A6.685,6.685,0,0,1,42.77,31.453Z" transform="translate(0)"/>
        <path d="M58.851,38.3q-.237.085-.546.2c-.174.064-.387.151-.636.259s-.529.238-.838.385q-.894.426-2.1,1.1t-2.579,1.622a7.108,7.108,0,0,0-.2-1.572q-.2-.912-.52-1.906T50.733,36.4q-.389-1-.749-1.849c-.241-.566-.456-1.054-.645-1.46s-.319-.685-.39-.836l-.182-.366c-.106-.213-.244-.487-.415-.825s-.368-.723-.594-1.156-.466-.88-.72-1.343-.519-.926-.793-1.389-.543-.895-.807-1.295-.515-.755-.755-1.064a3.667,3.667,0,0,0-.656-.688q1.251-.348,2.311-.758t1.906-.812c.389-.186.738-.361,1.048-.528s.57-.316.781-.446c.251-.148.467-.286.651-.412a17.692,17.692,0,0,0,.6,3.2,16.557,16.557,0,0,0,.911,2.48,4.517,4.517,0,0,0,1.261,1.759,1.173,1.173,0,0,0,1.244.159,1.2,1.2,0,0,0,.693-1.273,6.457,6.457,0,0,0-.7-2.271q-.351-.738-.78-1.454a15.621,15.621,0,0,0-.9-1.341q-.465-.626-.938-1.145a9.54,9.54,0,0,0-.909-.881,21.229,21.229,0,0,0,2.367-.762q1.069-.421,1.879-.808.548-.261.964-.488c.279-.152.517-.285.716-.4.227-.138.421-.259.584-.367q.188.731.477,1.628t.668,1.909q.378,1.01.852,2.113t1.019,2.245q.618,1.3,1.315,2.608T63.5,30.636q.761,1.245,1.562,2.389t1.613,2.116c-.158.056-.341.123-.546.2-.175.064-.386.15-.636.26s-.53.237-.839.385q-.892.425-2.1,1.1t-2.578,1.622A6.06,6.06,0,0,0,59.9,37.7c-.064-.4-.151-.818-.265-1.261s-.249-.891-.408-1.346a12.6,12.6,0,0,0-.515-1.267,4.01,4.01,0,0,0-1.123-1.545,1.08,1.08,0,0,0-1.162-.155,1.037,1.037,0,0,0-.588.85,2.993,2.993,0,0,0,.388,1.611,9.244,9.244,0,0,0,.525.947q.3.484.647.962c.229.32.471.631.723.934S58.613,38.023,58.851,38.3Z" transform="translate(0)"/>
        <path d="M68.8,14.966l-4.955-4.093,1.212-.891q.51-.373,1.051-.8t.921-.786c.1.173.243.38.421.622s.376.5.592.767.448.545.689.833.482.566.723.835q.831.967,1.781,2.013ZM78.7,33.66c-.465-.027-.938-.034-1.419-.018s-.988.044-1.518.087-1.095.1-1.692.177-1.244.157-1.942.249q-.5.064-1.18.169t-1.469.26c-.522.1-1.059.227-1.607.365s-1.083.3-1.6.47a7.15,7.15,0,0,0,.3-1.549q.09-.922.094-1.947t-.054-2.08q-.06-1.056-.14-1.963t-.16-1.568c-.054-.441-.091-.743-.113-.909,0-.036-.025-.17-.06-.4s-.083-.539-.141-.912-.127-.8-.208-1.282-.172-.981-.272-1.5-.208-1.04-.326-1.565-.24-1.021-.369-1.488-.258-.884-.391-1.252a4.026,4.026,0,0,0-.414-.869c.87.01,1.723-.013,2.558-.064s1.64-.131,2.416-.233q1.425-.189,2.656-.43t2.145-.469q1.069-.261,1.938-.535l.809,6.13a7.455,7.455,0,0,0-1.594-.894,8.087,8.087,0,0,0-1.3-.4,4.4,4.4,0,0,0-1.207-.08,2.939,2.939,0,0,0-1.044.3,1.694,1.694,0,0,0-.585.5,1.32,1.32,0,0,0-.231.615,2.732,2.732,0,0,0,.006.658,2.522,2.522,0,0,0,.188.667,1.875,1.875,0,0,0,.389.573,1.643,1.643,0,0,0,.6.38,1.692,1.692,0,0,0,.815.072,1.4,1.4,0,0,0,.669-.268,2.482,2.482,0,0,0,.483-.469,3.576,3.576,0,0,0,.407-.639l.7,5.319a2.5,2.5,0,0,0-.593-.719,2.2,2.2,0,0,0-.605-.353,1.656,1.656,0,0,0-.506-.105,2.372,2.372,0,0,0-.3.006,1.538,1.538,0,0,0-1.2.69,2.112,2.112,0,0,0-.24,1.4,3.358,3.358,0,0,0,.271,1,1.956,1.956,0,0,0,.457.632,1.342,1.342,0,0,0,.585.308,1.817,1.817,0,0,0,.663.032,3.134,3.134,0,0,0,1.092-.383,5.5,5.5,0,0,0,1.075-.78,6.461,6.461,0,0,0,.9-1.03,4.878,4.878,0,0,0,.6-1.123Z" transform="translate(0)"/>
        <path d="M94.377,27.028A16.19,16.19,0,0,1,93.8,29.41a12.242,12.242,0,0,1-.9,2.1,9.5,9.5,0,0,1-1.211,1.73,6.845,6.845,0,0,1-1.518,1.283,12.319,12.319,0,0,0,2.258,3.852,10.919,10.919,0,0,0-4.495,1.709,17.774,17.774,0,0,0-.45-4.673,9.2,9.2,0,0,1-.975.032,7.058,7.058,0,0,1-1.019-.1,6.755,6.755,0,0,1-3.107-1.287,6.659,6.659,0,0,1-1.934-2.422,9.309,9.309,0,0,1-.841-3.254,15.191,15.191,0,0,1,.178-3.787,14.382,14.382,0,0,1,.741-2.763,13.935,13.935,0,0,1,1.176-2.4,11.075,11.075,0,0,1,1.512-1.94,8.68,8.68,0,0,1,1.764-1.4,6.674,6.674,0,0,1,1.906-.772,5.014,5.014,0,0,1,1.955-.061,5.821,5.821,0,0,1,2.852,1.3,7.324,7.324,0,0,1,1.931,2.6,11.344,11.344,0,0,1,.924,3.589A16,16,0,0,1,94.377,27.028Zm-5.131-2.006A9.826,9.826,0,0,0,89.39,23.2a6.629,6.629,0,0,0-.184-1.5,2.936,2.936,0,0,0-.472-1.055,1.123,1.123,0,0,0-.71-.473,1.007,1.007,0,0,0-.81.286,3.945,3.945,0,0,0-.794.957,7.9,7.9,0,0,0-.666,1.386,8.545,8.545,0,0,0-.423,1.573,7.121,7.121,0,0,0-.1,1.447,4.527,4.527,0,0,0,.193,1.2,2.286,2.286,0,0,0,.478.861,1.294,1.294,0,0,0,.766.415,1.337,1.337,0,0,0,.86-.143,2.305,2.305,0,0,0,.751-.657,4.561,4.561,0,0,0,.586-1.072A6.706,6.706,0,0,0,89.246,25.022Z" transform="translate(0)"/>
        <path d="M114.72,25.887a33.961,33.961,0,0,0-2.144,2.978q-1.165,1.787-2.307,3.925-.162.3-.309.59t-.3.6c-.1.206-.206.418-.318.638s-.234.452-.367.7q-.415.779-.952,1.629a11.541,11.541,0,0,1-1.224,1.6,9.347,9.347,0,0,1-1.525,1.345,5.431,5.431,0,0,1-1.846.837,5.8,5.8,0,0,1-2.2.079,7.923,7.923,0,0,1-2.591-.914,8.613,8.613,0,0,1-2.1-1.5,5.622,5.622,0,0,1-1.17-1.671,4.863,4.863,0,0,1-.415-1.784,7.039,7.039,0,0,1,.177-1.841,10.7,10.7,0,0,1,.6-1.839q.391-.912.851-1.772c.136-.256.253-.471.35-.643s.188-.328.273-.468.169-.28.255-.423.188-.313.3-.511.251-.439.408-.723.35-.641.578-1.066q.417-.78.915-1.783t.919-2.013a18.2,18.2,0,0,0,.677-1.9,3.74,3.74,0,0,0,.19-1.43,23.378,23.378,0,0,0,2.053,1.456q.992.62,1.865,1.086.558.3,1.023.517c.311.146.578.27.8.369.268.114.5.209.7.286q-.535.639-1.166,1.454t-1.293,1.775q-.662.961-1.341,2.049t-1.3,2.25q-.775,1.455-1.209,2.388a10.3,10.3,0,0,0-.587,1.5,1.666,1.666,0,0,0-.067.854.7.7,0,0,0,.355.428.984.984,0,0,0,.731.1,1.944,1.944,0,0,0,.829-.544,7.735,7.735,0,0,0,1.005-1.294q.547-.841,1.268-2.162.99-1.907,1.773-3.6.337-.717.652-1.46t.564-1.418q.249-.675.4-1.243a3.887,3.887,0,0,0,.158-.939,23.4,23.4,0,0,0,2,1.429q.951.6,1.743,1.02c.348.187.665.346.948.477s.526.242.728.33Q114.447,25.786,114.72,25.887Z" transform="translate(0)"/>
        <path d="M114.122,51.687c-.258-.388-.54-.768-.842-1.143s-.631-.76-.987-1.156-.743-.811-1.163-1.241-.878-.9-1.373-1.4q-.351-.356-.848-.839t-1.1-1.011q-.6-.531-1.262-1.061t-1.342-.99a7.2,7.2,0,0,0,1.416-.7q.791-.487,1.609-1.1t1.625-1.3q.8-.686,1.479-1.3c.45-.407.833-.765,1.153-1.075s.537-.522.655-.639l.286-.292q.249-.255.643-.664t.894-.941q.5-.534,1.031-1.123t1.051-1.206q.52-.618.962-1.193t.761-1.069a3.986,3.986,0,0,0,.442-.855q.779,1.049,1.6,2t1.645,1.784q1.011,1.023,1.949,1.856t1.67,1.426q.854.694,1.6,1.221l-4.395,4.349a7.438,7.438,0,0,0-.251-1.81,8.11,8.11,0,0,0-.469-1.28,4.424,4.424,0,0,0-.666-1.01,2.973,2.973,0,0,0-.873-.648,1.7,1.7,0,0,0-.754-.163,1.348,1.348,0,0,0-.631.189,2.709,2.709,0,0,0-.519.4,2.475,2.475,0,0,0-.418.553,1.855,1.855,0,0,0-.222.656,1.628,1.628,0,0,0,.061.708,1.688,1.688,0,0,0,.435.693,1.407,1.407,0,0,0,.617.372,2.492,2.492,0,0,0,.666.1,3.543,3.543,0,0,0,.756-.06L117.2,44.505a2.552,2.552,0,0,0,.214-.907,2.21,2.21,0,0,0-.085-.7,1.626,1.626,0,0,0-.221-.467,2.557,2.557,0,0,0-.186-.235,1.541,1.541,0,0,0-1.274-.538,2.109,2.109,0,0,0-1.262.656,3.3,3.3,0,0,0-.634.822,1.95,1.95,0,0,0-.227.744,1.354,1.354,0,0,0,.108.653,1.8,1.8,0,0,0,.375.547,3.144,3.144,0,0,0,.966.64,5.485,5.485,0,0,0,1.271.384,6.422,6.422,0,0,0,1.365.095,4.89,4.89,0,0,0,1.26-.2Z" transform="translate(0)"/>
      </g>
      <path d="M31.886,87.017a1.289,1.289,0,0,1-.6-.15l-4.56-2.4a.582.582,0,0,0-.544,0l-4.56,2.4a1.292,1.292,0,0,1-1.873-1.361l.871-5.078a.581.581,0,0,0-.167-.515l-3.689-3.6a1.29,1.29,0,0,1,.715-2.2l5.1-.741a.584.584,0,0,0,.44-.319l2.279-4.62a1.29,1.29,0,0,1,2.314,0l2.281,4.62a.582.582,0,0,0,.439.319l5.1.741a1.291,1.291,0,0,1,.714,2.2l-3.689,3.6a.58.58,0,0,0-.167.515l.87,5.078a1.295,1.295,0,0,1-1.27,1.511Z" transform="translate(0)"/>
      <path d="M135.548,87.017a1.289,1.289,0,0,1-.6-.15l-4.56-2.4a.58.58,0,0,0-.543,0l-4.561,2.4a1.291,1.291,0,0,1-1.872-1.361l.871-5.078a.585.585,0,0,0-.168-.515l-3.689-3.6a1.29,1.29,0,0,1,.716-2.2l5.1-.741a.582.582,0,0,0,.44-.319l2.28-4.62a1.29,1.29,0,0,1,2.314,0l2.28,4.62a.582.582,0,0,0,.439.319l5.1.741a1.29,1.29,0,0,1,.714,2.2l-3.689,3.6a.58.58,0,0,0-.167.515l.871,5.078a1.295,1.295,0,0,1-1.271,1.511Z" transform="translate(0)"/>
    </g>
  </g>
</svg>
