<svg width="110" height="110" viewBox="0 0 110 110" fill="none" xmlns="http://www.w3.org/2000/svg">
<path d="M55.2022 107.776C84.0846 107.776 107.498 84.1478 107.498 55.0004C107.498 25.853 84.0846 2.22436 55.2022 2.22436C26.3198 2.22436 2.90601 25.853 2.90601 55.0004C2.90601 84.1478 26.3198 107.776 55.2022 107.776Z" fill="white"/>
<path d="M55.4996 4.21545C65.4526 4.21531 75.1822 7.19364 83.4579 12.7739C91.7336 18.3541 98.1838 26.2856 101.993 35.5653C105.802 44.845 106.798 55.0562 104.857 64.9075C102.915 74.7589 98.1222 83.808 91.0844 90.9104C84.0466 98.0129 75.0799 102.85 65.3181 104.809C55.5564 106.769 45.438 105.763 36.2426 101.92C27.0472 98.0758 19.1877 91.5665 13.6581 83.215C8.12851 74.8634 5.17708 65.0447 5.17708 55.0003C5.17708 41.5314 10.4789 28.6142 19.9162 19.0902C29.3535 9.56619 42.1532 4.21563 55.4996 4.21545ZM55.4996 -9.76568e-07C44.7204 -0.000139739 34.1833 3.22546 25.2206 9.26889C16.258 15.3123 9.27247 23.9022 5.14736 33.9521C1.02225 44.0021 -0.0571469 55.0609 2.04568 65.7299C4.14851 76.399 9.33911 86.1992 16.9611 93.8912C24.5831 101.583 34.2941 106.822 44.8662 108.944C55.4382 111.066 66.3964 109.977 76.3551 105.814C86.3138 101.651 94.8256 94.6018 100.814 85.557C106.803 76.5122 109.999 65.8784 109.999 55.0003C109.983 40.4185 104.236 26.4385 94.0188 16.1275C83.8017 5.81648 69.9489 0.0165489 55.4996 -9.76568e-07Z" fill="#1D1D1B"/>
<path d="M36.4094 79.993L38.8669 81.5232C39.7297 81.9692 40.3839 82.74 40.6881 83.6689C40.7854 84.2777 40.7616 84.9 40.6182 85.4995C40.4748 86.099 40.2146 86.6637 39.8527 87.1607C39.3802 88.0171 38.702 88.7399 37.8804 89.2627C37.5677 89.4565 37.2166 89.5785 36.852 89.6203C36.4873 89.662 36.1181 89.6226 35.7703 89.5045L34.1621 97.8869L32.2698 96.7093L33.9149 88.2862L29.7309 95.1285L27.8665 93.9672L36.4094 79.993ZM34.49 87.3455C34.749 87.5467 35.047 87.6905 35.3648 87.7676C35.6826 87.8447 36.0129 87.8534 36.3342 87.793C36.9848 87.5104 37.5142 87.003 37.8275 86.3619C38.0615 85.9921 38.2581 85.5994 38.4144 85.1899C38.5315 84.8927 38.5869 84.5745 38.5773 84.2548C38.5636 83.9852 38.4735 83.7252 38.3176 83.5059C38.1353 83.2596 37.9059 83.0527 37.643 82.8974L37.3283 82.7022L34.49 87.3455Z" fill="#1D1D1B"/>
<path d="M42.9814 83.8649L48.4994 85.7548L47.9035 87.5267L44.4608 86.3485L42.8053 91.2729L45.8581 92.319L45.2628 94.0909L42.2086 93.0454L40.4243 98.3527L43.867 99.5316L43.2717 101.304L37.7531 99.4143L42.9814 83.8649Z" fill="#1D1D1B"/>
<path d="M49.1796 85.842L54.9955 86.5572L54.7707 88.4155L51.131 87.9672L50.5079 93.1192L53.7932 93.5239L53.5684 95.3815L50.2837 94.9775L49.3857 102.409L47.2101 102.141L49.1796 85.842Z" fill="#1D1D1B"/>
<path d="M55.2015 86.6042L57.3388 86.3696L58.5815 97.9037C58.6069 98.7064 58.8001 99.4945 59.1482 100.217C59.3094 100.408 59.5201 100.551 59.7568 100.629C59.9935 100.707 60.247 100.717 60.4891 100.658C60.7281 100.666 60.9649 100.61 61.1761 100.497C61.3872 100.384 61.5651 100.217 61.6921 100.012C61.8875 99.3164 61.9175 98.5839 61.7798 97.8742L60.503 86.0225L62.6396 85.7878L63.9164 97.6396C64.1081 99.4157 63.9689 100.647 63.4987 101.333C63.1526 101.755 62.7213 102.097 62.2336 102.337C61.7459 102.577 61.2131 102.709 60.6708 102.724C59.2181 102.883 58.1455 102.537 57.453 101.686C56.9726 101.105 56.6366 99.922 56.4449 98.1384L55.2015 86.6042Z" fill="#1D1D1B"/>
<path d="M68.7578 83.9015L69.4901 85.9298C68.8653 85.71 68.1884 85.6901 67.552 85.8729C67.2995 85.957 67.0684 86.0963 66.8753 86.2808C66.6822 86.4652 66.5317 86.6904 66.4346 86.9401C66.2227 87.4735 66.2282 88.0697 66.4499 88.5989C66.6132 89.0928 66.9147 89.5284 67.318 89.853C67.6034 90.0686 67.9061 90.2596 68.2231 90.4242C68.6283 90.6457 69.1416 90.9033 69.7631 91.197C70.6782 91.5962 71.527 92.135 72.2798 92.7947C72.8542 93.3724 73.2861 94.0782 73.5406 94.8553C73.9689 95.9141 73.992 97.0958 73.6053 98.1708C73.419 98.6553 73.1289 99.0924 72.7559 99.4506C72.3828 99.8089 71.9359 100.08 71.4471 100.243C70.6457 100.563 69.76 100.598 68.9367 100.34L68.1924 98.2818C68.9299 98.5489 69.732 98.575 70.485 98.3563C70.7374 98.2781 70.9689 98.1429 71.1618 97.961C71.3548 97.7792 71.5043 97.5554 71.5989 97.3066C71.7778 96.7464 71.7498 96.1397 71.5202 95.5987C71.3384 95.0692 71.0246 94.5959 70.6089 94.2244C70.3589 94.0247 70.0948 93.8437 69.8187 93.6827C69.4939 93.4893 69.1021 93.2843 68.6436 93.0679C67.9339 92.7401 67.3357 92.4396 66.8488 92.1666C66.4439 91.9492 66.0614 91.6918 65.7071 91.398C65.1191 90.835 64.6804 90.1323 64.431 89.3541C63.9997 88.3352 63.9624 87.1901 64.3265 86.1448C64.5146 85.6731 64.8038 85.2493 65.1735 84.9038C65.5431 84.5583 65.984 84.2997 66.4645 84.1467C67.1973 83.8759 67.985 83.7916 68.7578 83.9015Z" fill="#1D1D1B"/>
<path d="M69.7637 83.0267L74.6962 79.8954L75.684 81.4804L72.6062 83.4335L75.3506 87.8359L78.0803 86.1026L79.0675 87.6869L76.3385 89.4201L79.2952 94.1639L82.3723 92.2101L83.3602 93.7944L78.427 96.9258L69.7637 83.0267ZM70.7536 76.946L72.3994 77.4089L71.1512 80.3998L70.015 80.0541L70.7536 76.946Z" fill="#1D1D1B"/>
<path d="M55.4995 33.3259C59.7473 33.3259 63.8997 34.5971 67.4317 36.9788C70.9636 39.3604 73.7164 42.7454 75.342 46.7059C76.9676 50.6664 77.3929 55.0244 76.5642 59.2288C75.7355 63.4333 73.69 67.2953 70.6863 70.3265C67.6826 73.3578 63.8557 75.422 59.6895 76.2583C55.5233 77.0946 51.2049 76.6654 47.2805 75.0249C43.356 73.3844 40.0017 70.6064 37.6417 67.0421C35.2817 63.4777 34.0221 59.2871 34.0221 55.0003C34.0286 49.2539 36.2934 43.7448 40.3198 39.6814C44.3462 35.6181 49.8053 33.3324 55.4995 33.3259ZM55.4995 29.1105C50.4255 29.1105 45.4655 30.6289 41.2466 33.4737C37.0278 36.3185 33.7395 40.362 31.7978 45.0928C29.8561 49.8235 29.348 55.0291 30.3379 60.0512C31.3278 65.0734 33.7712 69.6865 37.359 73.3073C40.9469 76.928 45.5181 79.3938 50.4946 80.3928C55.471 81.3917 60.6293 80.8791 65.3171 78.9195C70.0048 76.96 74.0115 73.6416 76.8304 69.384C79.6494 65.1264 81.154 60.1209 81.154 55.0003C81.154 51.6004 80.4904 48.2339 79.2012 45.0928C77.9119 41.9517 76.0222 39.0975 73.64 36.6934C71.2577 34.2893 68.4296 32.3823 65.3171 31.0812C62.2045 29.7801 58.8685 29.1105 55.4995 29.1105Z" fill="#1D1D1B"/>
<path d="M22.1758 23.3732L23.7074 24.6203C23.2485 24.811 22.8368 25.1012 22.5016 25.4704C22.1937 25.8358 22.0052 26.2883 21.962 26.7659C21.9422 27.2806 22.0626 27.791 22.3101 28.2414C22.6434 28.8658 23.0617 29.4399 23.5528 29.9473C24.2244 30.6547 24.9436 31.3143 25.7054 31.9215C28.835 34.4657 31.0454 34.9285 32.3366 33.3098C32.6014 32.9414 32.7889 32.5223 32.8873 32.0781L34.4551 33.3519C34.3478 33.9669 34.0839 34.5431 33.6893 35.024C31.623 37.6128 28.4944 37.2043 24.3033 33.7987C22.0379 31.958 20.6049 30.2718 20.0044 28.7402C19.7021 28.0421 19.6034 27.2714 19.7199 26.5186C19.8365 25.7658 20.1634 25.0621 20.6623 24.4903C21.0656 23.9953 21.5861 23.6111 22.1758 23.3732Z" fill="#1D1D1B"/>
<path d="M28.1532 17.8208L29.5414 16.8182L41.843 28.1297L40.0775 29.4041L37.7348 27.1594L35.1123 29.0521L36.4511 32.0212L34.737 33.2577L28.1532 17.8208ZM36.4907 25.9496L34.5888 24.106C33.3004 22.8479 31.9908 21.4569 30.6602 19.9327C31.1484 20.7927 31.6207 21.6788 32.0769 22.5912C32.5332 23.5036 33.0028 24.4828 33.486 25.5287L34.3716 27.4791L36.4907 25.9496Z" fill="#1D1D1B"/>
<path d="M36.7462 12.5698L38.6753 11.8876L42.8803 17.3424C44.1391 18.9575 45.3147 20.637 46.4023 22.3742C45.8203 21.2346 45.3212 20.1939 44.9048 19.252C44.4885 18.3101 44.1318 17.4108 43.8348 16.5541L41.8277 10.7726L43.9072 10.0377L49.2852 25.5351L47.3464 26.2208L42.6074 20.0642C42.1702 19.4899 41.7386 18.895 41.3125 18.2796C40.8864 17.6641 40.4641 17.0098 40.0454 16.3166C39.9988 16.2274 39.9382 16.1213 39.8616 15.9984C39.7851 15.8754 39.6981 15.7334 39.5971 15.5726C39.6772 15.7405 39.7454 15.8831 39.8018 16.0026C39.8582 16.122 39.9048 16.2232 39.941 16.3075L40.5975 17.8454L41.3724 19.7234C41.4155 19.8281 41.4664 19.9573 41.5228 20.1091C41.5791 20.2609 41.6418 20.4351 41.7086 20.6297L44.1634 27.3457L42.1242 28.0665L36.7462 12.5698Z" fill="#1D1D1B"/>
<path d="M50.1187 8.86788L52.815 8.77371C53.5158 8.73217 54.2188 8.80094 54.8987 8.97749C55.442 9.14671 55.9324 9.45566 56.3217 9.87397C56.9988 10.6112 57.4795 11.5098 57.7189 12.4855C58.0719 13.9674 58.2555 15.4852 58.2661 17.0093C58.3509 18.4942 58.2574 19.9839 57.9877 21.446C57.8174 22.4082 57.3628 23.296 56.6837 23.9929C55.9151 24.7362 54.5058 25.144 52.4558 25.2161L50.686 25.2786L50.1187 8.86788ZM52.8087 23.2665C54.1426 23.2196 55.0203 22.7809 55.4417 21.9505C55.8771 21.1201 56.0541 19.5276 55.9729 17.173C55.8852 14.6438 55.6039 12.9119 55.1291 11.9775C54.9016 11.5243 54.5411 11.153 54.0969 10.9141C53.6526 10.6752 53.1461 10.5804 52.6465 10.6426L52.3736 10.6518L52.8087 23.2665Z" fill="#1D1D1B"/>
<path d="M62.8791 9.29224L65.0373 9.69901L62.0436 25.8393L59.8896 25.4332L62.8791 9.29224Z" fill="#1D1D1B"/>
<path d="M70.1876 10.9686L72.6647 12.0464C73.3161 12.3112 73.9228 12.6767 74.4629 13.1297C74.8815 13.5175 75.1933 14.0082 75.3679 14.5538C75.6678 15.5126 75.7219 16.5324 75.5253 17.518C75.2162 19.0099 74.739 20.4613 74.103 21.8437C73.5505 23.2226 72.8345 24.5289 71.9705 25.7339C71.4094 26.5303 70.6226 27.1368 69.7135 27.4735C68.7031 27.814 67.2562 27.5746 65.3728 26.7554L63.7472 26.0479L70.1876 10.9686ZM66.5201 25.1459C67.7463 25.6794 68.7256 25.6613 69.458 25.0918C70.2034 24.5297 71.0388 23.1672 71.9643 21.0042C72.9561 18.6801 73.4353 16.9938 73.4019 15.9456C73.3889 15.4374 73.221 14.9457 72.921 14.5374C72.621 14.129 72.2035 13.8239 71.7255 13.6637L71.4728 13.5548L66.5201 25.1459Z" fill="#1D1D1B"/>
<path d="M83.8858 18.6266L85.2085 19.7177L77.6048 34.6538L75.9249 33.2669L77.4565 30.399L74.96 28.3383L72.4711 30.4187L70.8392 29.0718L83.8858 18.6266ZM78.2905 28.8737L79.5569 26.539C80.4229 24.9545 81.4109 23.3151 82.5206 21.621C81.8244 22.3208 81.1006 23.0123 80.3492 23.6957C79.5977 24.3791 78.7837 25.0924 77.9069 25.8358L76.2758 27.21L78.2905 28.8737Z" fill="#1D1D1B"/>
<path d="M89.5883 23.8152L93.9576 29.506L92.4413 30.6913L90.9375 28.7325L79.5897 37.6032L78.2732 35.8875L89.621 27.0175L88.072 24.9998L89.5883 23.8152Z" fill="#1D1D1B"/>
<path d="M97.2805 58.1556L94.1533 55.0003L97.2805 51.8444L94.7116 49.2512L91.5844 52.4071L88.4571 49.2512L85.8875 51.8444L89.0147 55.0003L85.8875 58.1556L88.4571 60.7488L91.5844 57.5928L94.7116 60.7488L97.2805 58.1556Z" fill="#1D1D1B"/>
<path d="M25.1123 58.1556L21.9851 55.0003L25.1123 51.8444L22.5427 49.2512L19.4154 52.4071L16.2882 49.2512L13.7192 51.8444L16.8458 55.0003L13.7192 58.1556L16.2889 60.7488L19.4154 57.5928L22.5427 60.7488L25.1123 58.1556Z" fill="#1D1D1B"/>
</svg>
