<svg xmlns="http://www.w3.org/2000/svg" width="55.233mm" height="55.233mm" viewBox="0 0 156.567 156.567">
  <g>
    <circle cx="78.284" cy="78.284" r="75.118" fill="#fff"/>
    <g>
      <path d="M78.284,6A72.284,72.284,0,1,1,6,78.283,72.283,72.283,0,0,1,78.284,6m0-6a78.284,78.284,0,1,0,78.283,78.283A78.372,78.372,0,0,0,78.284,0Z" transform="translate(0 0)"/>
      <g>
        <path d="M50.863,113.856l3.53,2.179a5.29,5.29,0,0,1,2.615,3.054,6.606,6.606,0,0,1-1.2,4.969,8.335,8.335,0,0,1-2.833,2.993,3.6,3.6,0,0,1-3.031.343l-2.311,11.932-2.718-1.677,2.364-11.988L41.27,135.4l-2.679-1.652Zm-2.757,10.465a3.336,3.336,0,0,0,2.648.638,4.279,4.279,0,0,0,2.146-2.037,9.325,9.325,0,0,0,.843-1.668,3.368,3.368,0,0,0,.234-1.331,2.008,2.008,0,0,0-.373-1.067,3.287,3.287,0,0,0-.97-.865l-.451-.278Z" transform="translate(0 0)"/>
        <path d="M60.3,119.368l7.927,2.689-.857,2.523L62.427,122.9l-2.378,7.01,4.386,1.488-.855,2.523-4.387-1.489-2.564,7.554,4.946,1.679-.856,2.522L52.792,141.5Z" transform="translate(0 0)"/>
        <path d="M69.206,122.182,77.56,123.2l-.323,2.645-5.229-.638-.894,7.333,4.718.575-.323,2.645-4.718-.576L69.5,145.763l-3.125-.382Z" transform="translate(0 0)"/>
        <path d="M77.856,123.266l3.069-.334,1.785,16.417a8.108,8.108,0,0,0,.815,3.292,1.929,1.929,0,0,0,1.926.628,1.956,1.956,0,0,0,1.727-.919,6.546,6.546,0,0,0,.126-3.043L85.47,122.438l3.069-.334,1.834,16.87q.414,3.792-.6,5.256a5.475,5.475,0,0,1-4.063,1.981q-3.13.339-4.622-1.478-1.033-1.242-1.447-5.05Z" transform="translate(0 0)"/>
        <path d="M97.328,119.42l1.051,2.887a4.619,4.619,0,0,0-2.784-.082,2.6,2.6,0,0,0-1.6,1.52,3.1,3.1,0,0,0,.022,2.36,3.826,3.826,0,0,0,1.246,1.786,9.2,9.2,0,0,0,1.3.813q.873.471,2.212,1.1a14,14,0,0,1,3.615,2.274,7.425,7.425,0,0,1,1.811,2.933,6.553,6.553,0,0,1,.092,4.718,5.02,5.02,0,0,1-3.1,2.951,5.427,5.427,0,0,1-3.607.137l-1.068-2.929a5.357,5.357,0,0,0,3.293.105,2.5,2.5,0,0,0,1.6-1.493,3.48,3.48,0,0,0-.114-2.432,4.648,4.648,0,0,0-1.308-1.956,9.438,9.438,0,0,0-1.135-.77q-.7-.414-1.689-.875-1.527-.7-2.578-1.283a9.911,9.911,0,0,1-1.639-1.094,6.971,6.971,0,0,1-1.833-2.909,6.314,6.314,0,0,1-.151-4.569,4.9,4.9,0,0,1,3.072-2.843A6.8,6.8,0,0,1,97.328,119.42Z" transform="translate(0 0)"/>
        <path d="M98.773,118.175l7.085-4.457,1.419,2.256-4.421,2.78,3.941,6.265,3.921-2.466,1.418,2.254-3.92,2.467,4.247,6.752,4.42-2.78L118.3,133.5l-7.086,4.457Zm1.422-8.656,2.364.66-1.793,4.256-1.633-.492Z" transform="translate(0 0)"/>
      </g>
      <path d="M78.284,47.433a30.851,30.851,0,1,1-30.851,30.85,30.885,30.885,0,0,1,30.851-30.85m0-6a36.851,36.851,0,1,0,36.85,36.85,36.851,36.851,0,0,0-36.85-36.85Z" transform="translate(0 0)"/>
      <g>
        <path d="M40.471,24.543l1.8,2.182a4.868,4.868,0,0,0-1.94.837,3.3,3.3,0,0,0-1.13,1.651,4.008,4.008,0,0,0,.063,2.156,10.822,10.822,0,0,0,1.261,2.738,30.177,30.177,0,0,0,2.464,3.374q5.514,6.675,8.933,3.85a4.739,4.739,0,0,0,1.127-1.559L54.893,42a5.1,5.1,0,0,1-1.556,2.109q-5.472,4.523-12.857-4.417-3.991-4.83-4.6-8.292a5.7,5.7,0,0,1,2.143-5.736A5.407,5.407,0,0,1,40.471,24.543Z" transform="translate(0 0)"/>
        <path d="M46.7,20.191l2.88-1.271,3.691,8.364,4.224-1.864L53.8,17.056l2.881-1.272,9.437,21.382-2.881,1.271-4.669-10.58-4.224,1.865L59.012,40.3l-2.881,1.27Z" transform="translate(0 0)"/>
        <path d="M64.9,13.645l8.281-1.213.387,2.636-5.167.757,1.073,7.324,4.583-.672.386,2.636-4.583.672,1.156,7.893,5.167-.757.387,2.636L68.283,36.77Zm1.833-6.907,3.681,2.673-.922,1.436L65.359,8.774Z" transform="translate(0 0)"/>
        <path d="M90.294,37.284,88.15,38.449l-1.308-2.467a6.156,6.156,0,0,1-3.119.417,4.931,4.931,0,0,1-4.418-3.452q-1.014-3.117-.146-10.025.756-6.039,2.422-8.377a4.808,4.808,0,0,1,4.9-1.949,4.934,4.934,0,0,1,4.428,3.378q1.026,2.887.158,9.813-.786,6.263-2.4,8.532Zm-4.561-8.4L86.8,30.881A36.477,36.477,0,0,0,87.74,25.9a37.181,37.181,0,0,0,.441-8.152q-.317-2.1-2.014-2.312A2.166,2.166,0,0,0,83.8,16.9a25.531,25.531,0,0,0-1.391,6.6,34.132,34.132,0,0,0-.393,7.762Q82.343,33.3,84,33.505a2.187,2.187,0,0,0,1.314-.263l-1.625-3.1Z" transform="translate(0 0)"/>
        <path d="M100.883,16.145l2.807,1.288L96.8,32.442a8.115,8.115,0,0,0-.989,3.243,1.935,1.935,0,0,0,1.331,1.528,1.957,1.957,0,0,0,1.954.1,6.543,6.543,0,0,0,1.67-2.547l7.079-15.421,2.807,1.288-7.08,15.421q-1.591,3.466-3.213,4.205a5.477,5.477,0,0,1-4.5-.385q-2.862-1.314-3.21-3.639-.249-1.6,1.349-5.078Z" transform="translate(0 0)"/>
        <path d="M117.652,25.306l6.415,5.376-1.711,2.042-4-3.354L113.6,35.043l3.55,2.975-1.711,2.042-3.55-2.975L106.764,43.2l4,3.355L109.055,48.6l-6.415-5.376Z" transform="translate(0 0)"/>
      </g>
      <polygon points="138.297 82.775 133.805 78.284 138.297 73.792 134.607 70.101 130.115 74.593 125.623 70.101 121.932 73.792 126.424 78.284 121.932 82.775 125.623 86.466 130.115 81.974 134.607 86.466 138.297 82.775"/>
      <polygon points="34.635 82.775 30.143 78.284 34.635 73.792 30.944 70.101 26.452 74.593 21.96 70.101 18.27 73.792 22.761 78.284 18.27 82.775 21.961 86.466 26.452 81.974 30.944 86.466 34.635 82.775"/>
    </g>
  </g>
</svg>
