<svg width="61" height="57" viewBox="0 0 61 57" fill="none" xmlns="http://www.w3.org/2000/svg">
<path d="M46.387 54.2004L4.02091 41.978C3.66747 41.8759 3.34696 41.683 3.09139 41.4184C2.83581 41.1537 2.6541 40.8267 2.56436 40.4699C2.47461 40.1132 2.47997 39.7391 2.57992 39.3851C2.67987 39.031 2.87092 38.7094 3.13399 38.4522L35.0946 7.21122C35.3593 6.94934 35.6894 6.76327 36.0506 6.67242C36.4117 6.58157 36.7906 6.58926 37.1477 6.69469C37.5062 6.79549 37.8311 6.99072 38.0884 7.26C38.3456 7.52927 38.5259 7.86272 38.6102 8.22546L49.0187 51.6897C49.1044 52.0475 49.0947 52.4215 48.9907 52.7744C48.8867 53.1273 48.6919 53.4468 48.4259 53.7009C48.1599 53.9551 47.8318 54.135 47.4746 54.2228C47.1173 54.3106 46.7432 54.3031 46.3897 54.2012L46.387 54.2004Z" fill="white" stroke="#FF2E3F" stroke-width="3.52776" stroke-miterlimit="10"/>
<path d="M37.9953 21.3441C37.305 22.2421 36.6706 23.1818 36.0957 24.1578C35.4907 25.1772 34.9239 26.2434 34.3953 27.3561C33.8667 28.4689 33.3805 29.6156 32.9368 30.7964C32.4927 31.9769 32.1007 33.1562 31.7608 34.3345C31.6505 34.7168 31.5492 35.0964 31.4569 35.4734C31.3645 35.8504 31.2746 36.2284 31.187 36.6072C30.7324 36.3595 30.2631 36.1395 29.7817 35.9485C29.3166 35.7654 28.8424 35.604 28.3591 35.4646C28.0669 35.3803 27.7703 35.3029 27.4692 35.2325C27.1686 35.1621 26.8641 35.1097 26.5573 35.0755C26.6851 34.7088 26.8114 34.3281 26.936 33.9335C27.0606 33.5389 27.1781 33.1502 27.2885 32.7674C27.6574 31.4888 27.9756 30.1874 28.2431 28.8629C28.5106 27.5385 28.7226 26.2746 28.8792 25.0712C29.0354 23.8679 29.13 22.7554 29.1631 21.7337C29.203 20.8807 29.1705 20.0258 29.0662 19.1782C29.4036 19.3306 29.8281 19.494 30.3398 19.6683C30.8516 19.8426 31.4041 20.0157 31.9976 20.1876C32.5209 20.3386 33.06 20.4832 33.6149 20.6215C34.1698 20.7598 34.7121 20.8835 35.2417 20.9925C35.7714 21.1019 36.2731 21.1869 36.747 21.2472C37.161 21.3023 37.5777 21.3347 37.9953 21.3441ZM24.3433 38.9507C24.4634 38.5272 24.669 38.1328 24.9475 37.7919C25.217 37.4587 25.5468 37.1792 25.9196 36.9678C26.3006 36.754 26.7205 36.6187 27.1547 36.5698C27.5888 36.5208 28.0284 36.5593 28.4474 36.683C28.871 36.803 29.2654 37.0087 29.6063 37.2872C30.2813 37.8346 30.7168 38.6233 30.8206 39.4862C30.875 39.9231 30.839 40.3665 30.715 40.7889C30.5963 41.2094 30.3946 41.6018 30.1219 41.9432C29.8492 42.2845 29.511 42.5679 29.1271 42.7765C28.7497 42.9802 28.3373 43.1109 27.9115 43.162C27.4746 43.2161 27.0312 43.1801 26.6088 43.056C26.18 42.9356 25.7804 42.7285 25.4347 42.4474C24.7637 41.9066 24.3316 41.1241 24.2313 40.2681C24.1782 39.8259 24.2164 39.3776 24.3433 38.9507Z" fill="#FF2E3F"/>
</svg>
