<svg width="70" height="93" viewBox="0 0 70 93" fill="none" xmlns="http://www.w3.org/2000/svg">
<ellipse cx="34.7589" cy="35.4296" rx="34.7589" ry="35.4296" fill="#EC8989"/>
<mask id="mask0_416_10" style="mask-type:alpha" maskUnits="userSpaceOnUse" x="0" y="0" width="70" height="71">
<path d="M69.5179 35.4296C69.5179 54.9969 53.9558 70.8593 34.7589 70.8593C15.5621 70.8593 0 54.9969 0 35.4296C0 15.8624 15.5621 0 34.7589 0C53.9558 0 69.5179 15.8624 69.5179 35.4296Z" fill="#EC8989"/>
</mask>
<g mask="url(#mask0_416_10)">
<path d="M5.15056 65.6379C5.15056 65.6379 2.16492 38.7952 20.1673 28.6807L45.6004 29.2304C45.6004 29.2304 56.4718 33.0204 57.9313 64.9725L32.7035 75.9202L5.15056 65.6379Z" fill="#5154A1"/>
<path d="M45.1627 28.3701C45.1627 28.3701 39.3334 35.8826 31.656 35.5249L33.1586 41.3158C33.1586 41.3158 45.3382 33.7474 45.1627 28.3701Z" fill="#373684"/>
<path d="M45.1623 28.3701C45.1623 28.3701 38.8888 35.4354 31.2114 35.0777L32.692 40.863C32.692 40.863 43.7694 34.8429 45.1623 28.3701Z" fill="#FAF3ED"/>
<path d="M29.2812 34.6612L28.1021 40.5694C28.1021 40.5694 21.3844 32.811 20.9731 27.8418C20.9677 27.8418 26.7422 34.2643 29.2812 34.6612Z" fill="#373684"/>
<path d="M28.9637 34.5829L27.5708 40.3012C27.5708 40.3012 21.3851 32.8054 20.9902 27.8418C22.8953 30.8797 25.6825 33.2361 28.9637 34.5829Z" fill="#FAF3ED"/>
<path d="M31.0475 37.7519C31.0475 37.7519 32.2868 52.3576 33.0765 55.6946C33.8662 59.0316 30.1976 62.4805 29.9782 63.6319H25.2511C25.2511 63.6319 22.9863 59.49 23.4908 56.3654C23.9953 53.2408 29.5998 37.5674 29.5998 37.5674L31.0475 37.7519Z" fill="#C7361A"/>
<path d="M30.7999 37.6607C30.7999 37.6607 32.0392 52.2665 32.8288 55.6035C33.6185 58.9405 29.9443 62.3893 29.725 63.5408H25.0144C25.0144 63.5408 22.7441 59.3989 23.2541 56.2743C23.7641 53.1496 29.3466 37.4707 29.3466 37.4707L30.7999 37.6607Z" fill="#E8461C"/>
<path d="M29.3365 37.1188L30.011 36.3865C30.0501 36.342 30.099 36.3076 30.1536 36.2859C30.2073 36.263 30.2656 36.2534 30.3236 36.2579C30.3831 36.2628 30.4409 36.2799 30.4936 36.3083C30.5442 36.3366 30.5875 36.3768 30.6197 36.4256L31.3162 37.4206C31.3479 37.4631 31.3707 37.5119 31.3829 37.5639C31.3952 37.6158 31.3968 37.6699 31.3875 37.7225C31.3802 37.775 31.3622 37.8255 31.3349 37.8707C31.3075 37.9159 31.2713 37.9549 31.2284 37.9851L30.2524 38.6895C30.2051 38.724 30.1507 38.7469 30.0933 38.7565C30.0356 38.7705 29.9755 38.7705 29.9178 38.7565C29.8614 38.7399 29.8091 38.7113 29.7643 38.6727C29.7189 38.6331 29.6832 38.5834 29.6601 38.5273L29.2598 37.5603C29.238 37.4856 29.238 37.4059 29.2598 37.3312C29.2643 37.2542 29.291 37.1803 29.3365 37.1188V37.1188Z" fill="#C7361A"/>
<path d="M29.2099 37.0732L29.8624 36.3633C29.9012 36.3223 29.9479 36.29 29.9995 36.2683C30.0535 36.2543 30.1101 36.2543 30.1641 36.2683C30.22 36.2692 30.2747 36.2846 30.3231 36.313C30.3738 36.3413 30.417 36.3815 30.4493 36.4304L31.1183 37.3918C31.147 37.4319 31.1675 37.4776 31.1786 37.526C31.1895 37.5756 31.1895 37.6272 31.1786 37.6769C31.171 37.7288 31.1523 37.7785 31.1238 37.8222C31.0985 37.8658 31.0649 37.9038 31.025 37.934L30.0928 38.6103C30.0446 38.6431 29.9905 38.6658 29.9337 38.6774C29.8776 38.6886 29.8199 38.6886 29.7638 38.6774C29.709 38.6607 29.6585 38.6321 29.6157 38.5936C29.5721 38.5559 29.5382 38.5079 29.517 38.4539L29.1331 37.5204C29.1112 37.4494 29.1112 37.3733 29.1331 37.3024C29.1354 37.2198 29.1621 37.1399 29.2099 37.0732V37.0732Z" fill="#E8461C"/>
<path d="M23.002 28.3141C22.3886 28.3141 21.7814 28.1909 21.2148 27.9515C20.6483 27.7121 20.1336 27.3612 19.7001 26.9189C19.2667 26.4766 18.9231 25.9515 18.6889 25.3738C18.4547 24.796 18.3345 24.1769 18.3352 23.5517C18.3352 22.2901 18.8269 21.0802 19.7021 20.1882C20.5773 19.2961 21.7643 18.7949 23.002 18.7949C24.2402 18.7949 25.4278 19.2959 26.3038 20.1878C27.1799 21.0797 27.6727 22.2896 27.6742 23.5517C27.6742 24.8148 27.1819 26.0261 26.3057 26.9192C25.4295 27.8123 24.2411 28.3141 23.002 28.3141V28.3141Z" fill="#F39672"/>
<path d="M41.7181 23.5908C41.714 22.6941 41.913 21.8085 42.2994 21.0028C42.6395 20.2755 43.1808 19.6654 43.8568 19.2477C44.4664 18.8766 45.1887 18.7473 45.8859 18.8844C46.6137 19.0434 47.2671 19.4494 47.7393 20.0358C48.2879 20.6917 48.6651 21.478 48.8361 22.322C49.0209 23.2117 49.0078 24.1323 48.7977 25.0162C48.6098 25.8481 48.2173 26.6175 47.6571 27.2521C47.1623 27.8098 46.4979 28.1819 45.7707 28.3085C45.631 28.3308 45.4898 28.342 45.3484 28.3421C45.1116 28.3433 44.8757 28.3132 44.6465 28.2526C43.7688 27.9928 43.0202 27.4036 42.5517 26.6037C42.0013 25.6993 41.7124 24.655 41.7181 23.5908V23.5908Z" fill="#F39672"/>
<path d="M33.181 35.1523C25.9039 35.1523 20.0198 29.9036 20.0198 23.414C20.0198 16.9245 25.9204 11.6758 33.181 11.6758C40.4416 11.6758 46.3422 16.9245 46.3422 23.414C46.3422 29.9036 40.458 35.1523 33.181 35.1523Z" fill="#F39672"/>
<path d="M36.5303 20.7477C36.5612 20.7531 36.5927 20.7531 36.6236 20.7477L39.031 19.7584C39.091 19.7335 39.139 19.6856 39.1647 19.6249C39.1903 19.5643 39.1916 19.4957 39.1681 19.4342C39.1437 19.373 39.0966 19.324 39.0371 19.2979C38.9776 19.2717 38.9104 19.2705 38.85 19.2944L36.4371 20.2838C36.4069 20.2954 36.3794 20.3132 36.3562 20.3361C36.333 20.359 36.3147 20.3865 36.3023 20.4168C36.29 20.4472 36.2839 20.4799 36.2845 20.5127C36.285 20.5456 36.2921 20.578 36.3055 20.608C36.3256 20.651 36.3577 20.6871 36.3976 20.7119C36.4375 20.7367 36.4836 20.7492 36.5303 20.7477V20.7477Z" fill="black"/>
<path d="M27.121 20.5602C27.171 20.5601 27.2198 20.5446 27.2609 20.5156C27.302 20.4867 27.3336 20.4457 27.3514 20.3981C27.3627 20.3676 27.3681 20.3352 27.3671 20.3026C27.3661 20.27 27.3587 20.238 27.3454 20.2084C27.3321 20.1787 27.3132 20.1521 27.2898 20.1299C27.2663 20.1078 27.2388 20.0906 27.2088 20.0794L24.7794 19.1404C24.7183 19.1167 24.6505 19.1188 24.5909 19.146C24.5313 19.1733 24.4847 19.2235 24.4614 19.2857C24.4382 19.348 24.4402 19.4171 24.4669 19.4779C24.4936 19.5386 24.5429 19.5861 24.6039 19.6099L27.0333 20.549C27.0616 20.5582 27.0913 20.562 27.121 20.5602V20.5602Z" fill="black"/>
<path d="M25.1467 23.284C24.9753 23.284 24.8056 23.2496 24.6473 23.1827C24.4889 23.1159 24.345 23.0179 24.2239 22.8943C24.1027 22.7708 24.0065 22.6241 23.9409 22.4627C23.8753 22.3013 23.8416 22.1284 23.8416 21.9537C23.843 21.6018 23.9812 21.2649 24.2258 21.0166C24.4704 20.7683 24.8015 20.6289 25.1467 20.6289C25.4919 20.6289 25.8231 20.7683 26.0677 21.0166C26.3123 21.2649 26.4504 21.6018 26.4519 21.9537C26.4519 22.1284 26.4181 22.3013 26.3525 22.4627C26.2869 22.6241 26.1908 22.7708 26.0696 22.8943C25.9484 23.0179 25.8045 23.1159 25.6462 23.1827C25.4878 23.2496 25.3181 23.284 25.1467 23.284V23.284Z" fill="#1B1935"/>
<path d="M38.3901 23.284C38.044 23.284 37.712 23.1438 37.4672 22.8943C37.2224 22.6449 37.085 22.3065 37.085 21.9537C37.0864 21.6018 37.2245 21.2649 37.4691 21.0166C37.7137 20.7683 38.0449 20.6289 38.3901 20.6289C38.7348 20.6289 39.0654 20.7685 39.3091 21.0169C39.5528 21.2654 39.6898 21.6023 39.6898 21.9537C39.6905 22.1281 39.6574 22.301 39.5924 22.4623C39.5275 22.6237 39.4318 22.7704 39.311 22.894C39.1903 23.0176 39.0468 23.1157 38.8888 23.1826C38.7307 23.2495 38.5613 23.284 38.3901 23.284V23.284Z" fill="#1B1935"/>
<path d="M47.74 25.3915C47.9789 24.819 48.1002 24.2026 48.0965 23.5805C48.0929 22.9604 47.9641 22.3477 47.7181 21.7806C47.4978 21.2619 47.1503 20.8095 46.7091 20.467C46.3148 20.1605 45.834 19.992 45.3381 19.9863C45.3381 19.9863 48.5516 21.0651 47.74 25.3915Z" fill="#BC6A4F"/>
<path d="M45.338 18.8521C44.7826 18.8573 44.2395 19.0199 43.7695 19.3216C43.9726 19.1175 44.2222 18.9677 44.4958 18.8858C44.7695 18.8039 45.0588 18.7923 45.338 18.8521V18.8521Z" fill="#BC6A4F"/>
<path d="M27.5813 32.5371C28.3545 33.1464 29.8955 33.56 31.6722 33.56C33.449 33.56 34.9625 33.1464 35.7631 32.5371C35.7631 32.5371 31.6558 34.119 27.5813 32.5371Z" fill="#BC6A4F"/>
<path d="M39.2845 11.1836H38.7361V13.7101H39.2845V11.1836Z" fill="#1D1D1B"/>
<path d="M41.3072 12.1553H40.7588V14.6818H41.3072V12.1553Z" fill="#1D1D1B"/>
<path d="M43.2381 13.709H42.6897V16.2355H43.2381V13.709Z" fill="#1D1D1B"/>
<path d="M44.8287 15.6328H44.2803V18.1593H44.8287V15.6328Z" fill="#1D1D1B"/>
<path d="M37.4246 10.4453H36.8762V12.9718H37.4246V10.4453Z" fill="#1D1D1B"/>
<path d="M35.0994 9.91992H34.551V12.4464H35.0994V9.91992Z" fill="#1D1D1B"/>
<path d="M33.4546 9.91992H32.9062V12.4464H33.4546V9.91992Z" fill="#1D1D1B"/>
<path d="M31.6282 9.91992H31.0798V12.4464H31.6282V9.91992Z" fill="#1D1D1B"/>
<path d="M29.7095 10.4453H29.1611V12.9718H29.7095V10.4453Z" fill="#1D1D1B"/>
<path d="M27.9588 11.1836H27.4104V13.7101H27.9588V11.1836Z" fill="#1D1D1B"/>
<path d="M26.1609 12.1553H25.6125V14.6818H26.1609V12.1553Z" fill="#1D1D1B"/>
<path d="M24.5379 13.2578H23.9895V15.7843H24.5379V13.2578Z" fill="#1D1D1B"/>
<path d="M36.4871 25.6123C36.0155 25.1328 35.3765 24.8635 34.7104 24.8633H28.6452C28.3153 24.8628 27.9885 24.9287 27.6836 25.0572C27.3787 25.1857 27.1017 25.3744 26.8685 25.6123C26.3966 26.0925 26.1304 26.7436 26.1282 27.4233V35.9979C26.4613 35.9986 26.7913 35.9323 27.0994 35.8029C27.4074 35.6734 27.6874 35.4833 27.9232 35.2435C28.159 35.0036 28.3461 34.7187 28.4738 34.405C28.6015 34.0913 28.6672 33.755 28.6672 33.4154V27.4233H34.6994V33.4154C34.6994 34.1003 34.9663 34.7572 35.4415 35.2415C35.9166 35.7258 36.561 35.9979 37.2329 35.9979V27.4233C37.2314 27.0863 37.1648 26.7529 37.0368 26.4422C36.9088 26.1315 36.7221 25.8494 36.4871 25.6123V25.6123Z" fill="#D8690E"/>
<path d="M30.4269 28.4609H31.7431C31.8312 28.4615 31.917 28.4888 31.9899 28.5393C32.0627 28.5898 32.1192 28.6612 32.1521 28.7445C32.185 28.8278 32.1929 28.9192 32.1748 29.007C32.1566 29.0949 32.1132 29.1752 32.0501 29.2379L31.0576 30.2217L30.1089 29.2267C30.0489 29.1628 30.0086 29.0824 29.9929 28.9954C29.9772 28.9084 29.9869 28.8186 30.0207 28.7372C30.0546 28.6557 30.1111 28.5861 30.1833 28.5371C30.2555 28.488 30.3402 28.4615 30.4269 28.4609V28.4609Z" fill="#D8690E"/>
<path d="M15.6436 59.1366C15.6436 59.1366 16.5648 63.2953 16.5429 63.2114C16.8571 63.0017 17.1938 62.8291 17.5464 62.6972C17.4412 61.5251 17.258 60.3616 16.998 59.2148C16.6802 59.0641 16.3448 58.9552 16 58.8907C16 58.8907 16.5484 47.3368 19.8387 46.4648C16.0603 47.2194 15.6436 59.1366 15.6436 59.1366Z" fill="#373684"/>
<path d="M15.6434 59.1387C12.5395 58.6748 8.11956 58.8648 5.71216 59.0213V58.5574C5.71216 58.5574 13.4992 58.3562 15.6434 59.1387Z" fill="#373684"/>
<path d="M47.3233 58.9689C47.3233 58.9689 46.4075 63.1332 46.424 63.0437C46.1111 62.835 45.7763 62.6624 45.4259 62.5295C45.5333 61.3576 45.7164 60.1943 45.9742 59.0471C46.2929 58.8998 46.6281 58.7928 46.9723 58.7285C46.9723 58.7285 46.0949 47.1691 42.8101 46.3027C46.5939 47.0685 47.3233 58.9689 47.3233 58.9689Z" fill="#373684"/>
<path d="M47.324 58.9693C50.4333 58.5109 54.8533 58.6954 57.2607 58.8519V58.3936C57.2607 58.3936 49.4846 58.1923 47.324 58.9693Z" fill="#373684"/>
<g clip-path="url(#clip0_416_10)">
<path d="M17.1011 63.2553C17.1011 63.2553 16.9191 69.6361 14.6549 67.6116C14.6549 67.6116 13.5088 70.799 12.1286 68.3347C12.1286 68.3347 10.8027 71.9499 9.63051 68.1901C9.63051 68.1901 8.09436 72.8959 6.53438 67.7562C6.53438 67.7562 1.58794 76.3424 1.19795 63.2553L17.1011 63.2553Z" fill="#F39672"/>
<path d="M15.2594 63.255C15.26 64.868 15.0427 66.4227 14.6506 67.6113C14.6506 67.6113 15.4414 66.346 15.2594 63.255Z" fill="#BC6A4F"/>
<path d="M12.5273 63.2546C12.6508 66.8036 12.1287 68.334 12.1287 68.334C12.1287 68.334 12.9195 67.0385 12.5273 63.2546Z" fill="#BC6A4F"/>
<path d="M10.2415 63.2547C10.2048 65.0246 9.99342 66.732 9.63048 68.1895C9.86525 67.5596 10.043 66.784 10.1492 65.9263C10.2554 65.0685 10.287 64.153 10.2415 63.2547Z" fill="#BC6A4F"/>
<path d="M5.94291 64.9119C6.05913 65.9721 6.26067 66.9446 6.53223 67.7559C6.35016 67.4761 6.19904 67.0633 6.09518 66.5621C5.99132 66.0608 5.93867 65.4903 5.94291 64.9119V64.9119Z" fill="#BC6A4F"/>
</g>
<g clip-path="url(#clip1_416_10)">
<path d="M62.0693 63.2553C62.0693 63.2553 61.8873 69.6361 59.6232 67.6116C59.6232 67.6116 58.477 70.799 57.0969 68.3347C57.0969 68.3347 55.7709 71.9499 54.5988 68.1901C54.5988 68.1901 53.0626 72.8959 51.5026 67.7562C51.5026 67.7562 46.5562 76.3424 46.1662 63.2553L62.0693 63.2553Z" fill="#F39672"/>
<path d="M60.2277 63.255C60.2282 64.868 60.0109 66.4227 59.6189 67.6113C59.6189 67.6113 60.4097 66.346 60.2277 63.255Z" fill="#BC6A4F"/>
<path d="M57.4956 63.2546C57.6191 66.8036 57.0969 68.334 57.0969 68.334C57.0969 68.334 57.8878 67.0385 57.4956 63.2546Z" fill="#BC6A4F"/>
<path d="M55.2097 63.2547C55.1731 65.0246 54.9617 66.732 54.5987 68.1895C54.8335 67.5596 55.0113 66.784 55.1175 65.9263C55.2237 65.0685 55.2553 64.153 55.2097 63.2547Z" fill="#BC6A4F"/>
<path d="M50.9112 64.9119C51.0274 65.9721 51.2289 66.9446 51.5005 67.7559C51.3184 67.4761 51.1673 67.0633 51.0634 66.5621C50.9596 66.0608 50.9069 65.4903 50.9112 64.9119V64.9119Z" fill="#BC6A4F"/>
</g>
<path d="M4.41284 63.5411C4.41284 63.5411 3.76573 60.9251 3.99057 59.1476C3.99057 59.1476 12.5453 58.3427 16.7898 59.3488C16.7898 59.3488 17.404 62.3225 17.1792 63.5411H4.41284Z" fill="#FAF3ED"/>
<path d="M58.5595 63.3753C58.5595 63.3753 59.2066 60.7649 58.9817 58.9874C58.9817 58.9874 50.427 58.1825 46.1825 59.1887C46.1825 59.1887 45.5683 62.1623 45.7931 63.3753H58.5595Z" fill="#FAF3ED"/>
</g>
<path d="M36.5225 84.9639V82.4414C36.5225 82.0957 36.4551 81.7705 36.3203 81.4658C36.1914 81.1553 36.0127 80.8857 35.7842 80.6572C35.5557 80.4287 35.2861 80.25 34.9756 80.1211C34.6709 79.9863 34.3457 79.9189 34 79.9189C33.6543 79.9189 33.3262 79.9863 33.0156 80.1211C32.7109 80.25 32.4443 80.4287 32.2158 80.6572C31.9873 80.8857 31.8057 81.1553 31.6709 81.4658C31.542 81.7705 31.4775 82.0957 31.4775 82.4414V84.9639H36.5225ZM39.0449 90H36.5225V87.4775H31.4775V90H28.9639V82.4414C28.9639 81.7441 29.0957 81.0908 29.3594 80.4814C29.623 79.8662 29.9805 79.3301 30.4316 78.873C30.8887 78.416 31.4219 78.0557 32.0312 77.792C32.6465 77.5283 33.3027 77.3965 34 77.3965C34.6973 77.3965 35.3506 77.5283 35.96 77.792C36.5752 78.0557 37.1113 78.416 37.5684 78.873C38.0254 79.3301 38.3857 79.8662 38.6494 80.4814C38.9131 81.0908 39.0449 81.7441 39.0449 82.4414V90Z" fill="black"/>
<defs>
<clipPath id="clip0_416_10">
<rect width="15.9031" height="7.26655" fill="white" transform="translate(17.1011 70.5215) rotate(-180)"/>
</clipPath>
<clipPath id="clip1_416_10">
<rect width="15.9031" height="7.26655" fill="white" transform="translate(62.0693 70.5215) rotate(-180)"/>
</clipPath>
</defs>
</svg>
