<svg width="71" height="93" viewBox="0 0 71 93" fill="none" xmlns="http://www.w3.org/2000/svg">
<circle cx="35.5" cy="35.5" r="35.5" fill="#46A882"/>
<mask id="mask0_416_82" style="mask-type:alpha" maskUnits="userSpaceOnUse" x="3" y="9" width="64" height="65">
<circle cx="35.3504" cy="41.4534" r="31.1497" fill="#A27474" stroke="black"/>
</mask>
<g mask="url(#mask0_416_82)">
<path d="M47.5897 34.919H47.7867C53.8076 35.1111 58.0989 35.8411 58.7009 39.0621C61.1312 51.9585 62.0891 69.6383 62.0891 69.6383L36.117 77.4697H35.0223L10.249 69.6383C10.249 69.6383 11.0263 41.8667 12.6464 39.0621C13.7412 37.2179 17.5726 35.1048 23.5497 34.9062H47.6334L47.5897 34.919Z" fill="#5154A1"/>
<path d="M25.5708 43.0811C25.5708 43.0811 36.0479 51.0426 45.3901 43.0811C45.3901 43.0811 41.0246 71.4185 41.6303 74.829H30.0509L25.5708 43.0811Z" fill="#373684"/>
<g clip-path="url(#clip0_416_82)">
<path d="M66.4536 66.01C66.4536 66.01 66.2725 72.2392 64.0195 70.2628C64.0195 70.2628 62.879 73.3745 61.5056 70.9687C61.5056 70.9687 60.1862 74.498 59.0198 70.8275C59.0198 70.8275 57.4912 75.4215 55.9389 70.404C55.9389 70.404 51.0168 78.7861 50.6287 66.01L66.4536 66.01Z" fill="#EFB19E"/>
<path d="M64.6209 66.0099C64.6214 67.5845 64.4052 69.1023 64.0151 70.2627C64.0151 70.2627 64.802 69.0274 64.6209 66.0099Z" fill="#BC6A4F"/>
<path d="M61.9021 66.0101C62.025 69.4747 61.5054 70.9687 61.5054 70.9687C61.5054 70.9687 62.2924 69.7041 61.9021 66.0101Z" fill="#BC6A4F"/>
<path d="M59.6278 66.0096C59.5913 67.7374 59.381 69.4044 59.0198 70.8271C59.2534 70.2123 59.4303 69.4551 59.536 68.6177C59.6417 67.7804 59.6731 66.8866 59.6278 66.0096Z" fill="#BC6A4F"/>
<path d="M55.3501 67.6269C55.4658 68.6619 55.6663 69.6114 55.9365 70.4033C55.7554 70.1302 55.605 69.7272 55.5016 69.2379C55.3983 68.7486 55.3459 68.1916 55.3501 67.6269Z" fill="#BC6A4F"/>
</g>
<g clip-path="url(#clip1_416_82)">
<path d="M21.1621 65.4651C21.1621 65.4651 20.981 71.6943 18.728 69.7179C18.728 69.7179 17.5875 72.8296 16.2141 70.4237C16.2141 70.4237 14.8947 73.9531 13.7283 70.2826C13.7283 70.2826 12.1997 74.8766 10.6474 69.8591C10.6474 69.8591 5.72531 78.2412 5.33724 65.4651L21.1621 65.4651Z" fill="#EFB19E"/>
<path d="M19.3294 65.465C19.3299 67.0396 19.1137 68.5574 18.7235 69.7178C18.7235 69.7178 19.5105 68.4825 19.3294 65.465Z" fill="#BC6A4F"/>
<path d="M16.6106 65.4652C16.7335 68.9298 16.2139 70.4238 16.2139 70.4238C16.2139 70.4238 17.0009 69.1592 16.6106 65.4652Z" fill="#BC6A4F"/>
<path d="M14.3363 65.4647C14.2998 67.1925 14.0895 68.8595 13.7283 70.2822C13.9619 69.6673 14.1388 68.9102 14.2445 68.0728C14.3502 67.2354 14.3816 66.3417 14.3363 65.4647Z" fill="#BC6A4F"/>
<path d="M10.0586 67.082C10.1743 68.117 10.3748 69.0665 10.645 69.8584C10.4638 69.5853 10.3135 69.1823 10.2101 68.693C10.1068 68.2037 10.0544 67.6466 10.0586 67.082Z" fill="#BC6A4F"/>
</g>
<path d="M35.5845 64.7172L35.59 46.6113L34.9897 64.739L35.5845 64.7172Z" fill="#2C2C6B"/>
<path d="M45.3908 45.1898C46.0146 45.1898 46.5204 44.6841 46.5204 44.0602C46.5204 43.4364 46.0146 42.9307 45.3908 42.9307C44.767 42.9307 44.2612 43.4364 44.2612 44.0602C44.2612 44.6841 44.767 45.1898 45.3908 45.1898Z" fill="#C9C5BD"/>
<path d="M45.4726 44.9041C46.018 44.9041 46.4602 44.4619 46.4602 43.9164C46.4602 43.3709 46.018 42.9287 45.4726 42.9287C44.9271 42.9287 44.4849 43.3709 44.4849 43.9164C44.4849 44.4619 44.9271 44.9041 45.4726 44.9041Z" fill="white"/>
<path d="M44.0426 46.8236C44.6665 46.8236 45.1722 46.3179 45.1722 45.694C45.1722 45.0702 44.6665 44.5645 44.0426 44.5645C43.4188 44.5645 42.9131 45.0702 42.9131 45.694C42.9131 46.3179 43.4188 46.8236 44.0426 46.8236Z" fill="#C9C5BD"/>
<path d="M44.1244 46.5398C44.6699 46.5398 45.1121 46.0976 45.1121 45.5521C45.1121 45.0067 44.6699 44.5645 44.1244 44.5645C43.5789 44.5645 43.1367 45.0067 43.1367 45.5521C43.1367 46.0976 43.5789 46.5398 44.1244 46.5398Z" fill="white"/>
<path d="M42.9133 48.6293C43.5371 48.6293 44.0428 48.1235 44.0428 47.4997C44.0428 46.8758 43.5371 46.3701 42.9133 46.3701C42.2894 46.3701 41.7837 46.8758 41.7837 47.4997C41.7837 48.1235 42.2894 48.6293 42.9133 48.6293Z" fill="#C9C5BD"/>
<path d="M42.9955 48.3406C43.541 48.3406 43.9832 47.8984 43.9832 47.3529C43.9832 46.8074 43.541 46.3652 42.9955 46.3652C42.45 46.3652 42.0078 46.8074 42.0078 47.3529C42.0078 47.8984 42.45 48.3406 42.9955 48.3406Z" fill="white"/>
<path d="M42.1218 50.5668C42.7456 50.5668 43.2513 50.061 43.2513 49.4372C43.2513 48.8133 42.7456 48.3076 42.1218 48.3076C41.4979 48.3076 40.9922 48.8133 40.9922 49.4372C40.9922 50.061 41.4979 50.5668 42.1218 50.5668Z" fill="#DDD5C5"/>
<path d="M42.2035 50.283C42.749 50.283 43.1912 49.8408 43.1912 49.2953C43.1912 48.7498 42.749 48.3076 42.2035 48.3076C41.658 48.3076 41.2158 48.7498 41.2158 49.2953C41.2158 49.8408 41.658 50.283 42.2035 50.283Z" fill="white"/>
<path d="M40.9919 52.2914C41.6157 52.2914 42.1214 51.7856 42.1214 51.1618C42.1214 50.538 41.6157 50.0322 40.9919 50.0322C40.368 50.0322 39.8623 50.538 39.8623 51.1618C39.8623 51.7856 40.368 52.2914 40.9919 52.2914Z" fill="#C9C5BD"/>
<path d="M41.0746 52.0008C41.6201 52.0008 42.0623 51.5586 42.0623 51.0131C42.0623 50.4676 41.6201 50.0254 41.0746 50.0254C40.5291 50.0254 40.0869 50.4676 40.0869 51.0131C40.0869 51.5586 40.5291 52.0008 41.0746 52.0008Z" fill="white"/>
<path d="M39.797 53.8568C40.4209 53.8568 40.9266 53.3511 40.9266 52.7272C40.9266 52.1034 40.4209 51.5977 39.797 51.5977C39.1732 51.5977 38.6675 52.1034 38.6675 52.7272C38.6675 53.3511 39.1732 53.8568 39.797 53.8568Z" fill="#C9C5BD"/>
<path d="M39.8798 53.5672C40.4253 53.5672 40.8675 53.125 40.8675 52.5795C40.8675 52.034 40.4253 51.5918 39.8798 51.5918C39.3343 51.5918 38.8921 52.034 38.8921 52.5795C38.8921 53.125 39.3343 53.5672 39.8798 53.5672Z" fill="white"/>
<path d="M38.3239 55.264C38.9477 55.264 39.4535 54.7583 39.4535 54.1345C39.4535 53.5106 38.9477 53.0049 38.3239 53.0049C37.7001 53.0049 37.1943 53.5106 37.1943 54.1345C37.1943 54.7583 37.7001 55.264 38.3239 55.264Z" fill="#C9C5BD"/>
<path d="M38.4052 54.9803C38.9507 54.9803 39.3929 54.5381 39.3929 53.9926C39.3929 53.4471 38.9507 53.0049 38.4052 53.0049C37.8597 53.0049 37.4175 53.4471 37.4175 53.9926C37.4175 54.5381 37.8597 54.9803 38.4052 54.9803Z" fill="white"/>
<path d="M36.6105 56.0336C37.2344 56.0336 37.7401 55.5278 37.7401 54.904C37.7401 54.2801 37.2344 53.7744 36.6105 53.7744C35.9867 53.7744 35.481 54.2801 35.481 54.904C35.481 55.5278 35.9867 56.0336 36.6105 56.0336Z" fill="#C9C5BD"/>
<path d="M36.6923 55.7449C37.2378 55.7449 37.68 55.3027 37.68 54.7572C37.68 54.2117 37.2378 53.7695 36.6923 53.7695C36.1468 53.7695 35.7046 54.2117 35.7046 54.7572C35.7046 55.3027 36.1468 55.7449 36.6923 55.7449Z" fill="white"/>
<path d="M34.5207 55.8851C35.1445 55.8851 35.6502 55.3794 35.6502 54.7555C35.6502 54.1317 35.1445 53.626 34.5207 53.626C33.8968 53.626 33.3911 54.1317 33.3911 54.7555C33.3911 55.3794 33.8968 55.8851 34.5207 55.8851Z" fill="#C9C5BD"/>
<path d="M34.6029 55.6014C35.1484 55.6014 35.5906 55.1592 35.5906 54.6137C35.5906 54.0682 35.1484 53.626 34.6029 53.626C34.0574 53.626 33.6152 54.0682 33.6152 54.6137C33.6152 55.1592 34.0574 55.6014 34.6029 55.6014Z" fill="white"/>
<path d="M32.7199 54.7582C33.3437 54.7582 33.8495 54.2524 33.8495 53.6286C33.8495 53.0047 33.3437 52.499 32.7199 52.499C32.0961 52.499 31.5903 53.0047 31.5903 53.6286C31.5903 54.2524 32.0961 54.7582 32.7199 54.7582Z" fill="#C9C5BD"/>
<path d="M32.8075 54.4744C33.353 54.4744 33.7952 54.0322 33.7952 53.4867C33.7952 52.9412 33.353 52.499 32.8075 52.499C32.262 52.499 31.8198 52.9412 31.8198 53.4867C31.8198 54.0322 32.262 54.4744 32.8075 54.4744Z" fill="white"/>
<path d="M31.2033 53.4203C31.8271 53.4203 32.3329 52.9145 32.3329 52.2907C32.3329 51.6669 31.8271 51.1611 31.2033 51.1611C30.5795 51.1611 30.0737 51.6669 30.0737 52.2907C30.0737 52.9145 30.5795 53.4203 31.2033 53.4203Z" fill="#C9C5BD"/>
<path d="M31.2846 53.1316C31.8301 53.1316 32.2723 52.6894 32.2723 52.1439C32.2723 51.5985 31.8301 51.1562 31.2846 51.1562C30.7391 51.1562 30.2969 51.5985 30.2969 52.1439C30.2969 52.6894 30.7391 53.1316 31.2846 53.1316Z" fill="white"/>
<path d="M30.0729 51.7933C30.6968 51.7933 31.2025 51.2876 31.2025 50.6637C31.2025 50.0399 30.6968 49.5342 30.0729 49.5342C29.4491 49.5342 28.9434 50.0399 28.9434 50.6637C28.9434 51.2876 29.4491 51.7933 30.0729 51.7933Z" fill="#C9C5BD"/>
<path d="M30.1552 51.5096C30.7007 51.5096 31.1429 51.0674 31.1429 50.5219C31.1429 49.9764 30.7007 49.5342 30.1552 49.5342C29.6097 49.5342 29.1675 49.9764 29.1675 50.5219C29.1675 51.0674 29.6097 51.5096 30.1552 51.5096Z" fill="white"/>
<path d="M29.1672 50.1312C29.791 50.1312 30.2967 49.6255 30.2967 49.0016C30.2967 48.3778 29.791 47.8721 29.1672 47.8721C28.5433 47.8721 28.0376 48.3778 28.0376 49.0016C28.0376 49.6255 28.5433 50.1312 29.1672 50.1312Z" fill="#C9C5BD"/>
<path d="M29.2494 49.8474C29.7949 49.8474 30.2371 49.4052 30.2371 48.8598C30.2371 48.3143 29.7949 47.8721 29.2494 47.8721C28.7039 47.8721 28.2617 48.3143 28.2617 48.8598C28.2617 49.4052 28.7039 49.8474 29.2494 49.8474Z" fill="white"/>
<path d="M28.196 48.6722C28.8198 48.6722 29.3255 48.1665 29.3255 47.5427C29.3255 46.9188 28.8198 46.4131 28.196 46.4131C27.5721 46.4131 27.0664 46.9188 27.0664 47.5427C27.0664 48.1665 27.5721 48.6722 28.196 48.6722Z" fill="#C9C5BD"/>
<path d="M28.2772 48.3885C28.8227 48.3885 29.2649 47.9463 29.2649 47.4008C29.2649 46.8553 28.8227 46.4131 28.2772 46.4131C27.7318 46.4131 27.2896 46.8553 27.2896 47.4008C27.2896 47.9463 27.7318 48.3885 28.2772 48.3885Z" fill="white"/>
<path d="M27.2082 47.0355C27.832 47.0355 28.3377 46.5298 28.3377 45.9059C28.3377 45.2821 27.832 44.7764 27.2082 44.7764C26.5843 44.7764 26.0786 45.2821 26.0786 45.9059C26.0786 46.5298 26.5843 47.0355 27.2082 47.0355Z" fill="#C9C5BD"/>
<path d="M27.2904 46.7478C27.8359 46.7478 28.2781 46.3056 28.2781 45.7601C28.2781 45.2147 27.8359 44.7725 27.2904 44.7725C26.7449 44.7725 26.3027 45.2147 26.3027 45.7601C26.3027 46.3056 26.7449 46.7478 27.2904 46.7478Z" fill="white"/>
<path d="M25.9909 45.5531C26.6147 45.5531 27.1205 45.0474 27.1205 44.4235C27.1205 43.7997 26.6147 43.2939 25.9909 43.2939C25.3671 43.2939 24.8613 43.7997 24.8613 44.4235C24.8613 45.0474 25.3671 45.5531 25.9909 45.5531Z" fill="#C9C5BD"/>
<path d="M26.0795 45.2635C26.625 45.2635 27.0672 44.8213 27.0672 44.2758C27.0672 43.7303 26.625 43.2881 26.0795 43.2881C25.534 43.2881 25.0918 43.7303 25.0918 44.2758C25.0918 44.8213 25.534 45.2635 26.0795 45.2635Z" fill="white"/>
<path d="M56.107 35.081V35.1192H16.1191C16.1191 29.7005 19.3442 21.8372 24.7628 21.8263L45.6025 16.9151C51.0321 16.8769 56.107 29.646 56.107 35.081Z" fill="#ED8A29"/>
<path d="M23.0335 34.3823C21.7927 34.3823 20.6027 33.8898 19.7248 33.013C18.8469 32.1361 18.353 30.9466 18.3516 29.7058C18.353 28.465 18.8469 27.2756 19.7248 26.3987C20.6027 25.5218 21.7927 25.0293 23.0335 25.0293C24.2738 25.0293 25.4633 25.522 26.3403 26.399C27.2174 27.2761 27.71 28.4655 27.71 29.7058C27.71 30.9461 27.2174 32.1356 26.3403 33.0126C25.4633 33.8897 24.2738 34.3823 23.0335 34.3823Z" fill="#EFB19E"/>
<path d="M20.3708 34.8226C20.9946 34.8226 21.5003 34.3169 21.5003 33.693C21.5003 33.0692 20.9946 32.5635 20.3708 32.5635C19.7469 32.5635 19.2412 33.0692 19.2412 33.693C19.2412 34.3169 19.7469 34.8226 20.3708 34.8226Z" fill="#C49318"/>
<path d="M20.4584 34.5389C21.0039 34.5389 21.4461 34.0967 21.4461 33.5512C21.4461 33.0057 21.0039 32.5635 20.4584 32.5635C19.9129 32.5635 19.4707 33.0057 19.4707 33.5512C19.4707 34.0967 19.9129 34.5389 20.4584 34.5389Z" fill="#EDB61B"/>
<path d="M35.6944 43.0794C27.2308 43.0794 20.3716 37.0769 20.3716 29.7101C20.3716 22.3434 27.2308 16.3408 35.6944 16.3408C44.158 16.3408 51.0118 22.3434 51.0118 29.7101C51.0118 37.0769 44.1525 43.0794 35.6944 43.0794Z" fill="#EFB19E"/>
<path d="M36.3316 36.0189C36.1206 36.0516 35.9078 36.0789 35.6931 36.1007C34.853 36.1826 34.0068 36.1826 33.1666 36.1007C32.8883 36.1007 32.621 36.0407 32.3427 36.0025C29.3414 35.5277 27.7862 36.6682 29.516 37.4758C31.0487 38.0927 32.6824 38.4202 34.3344 38.4417C35.9882 38.4205 37.6238 38.093 39.1583 37.4758C40.8881 36.6955 39.3329 35.555 36.3316 36.0189Z" fill="#E28E74"/>
<path d="M46.1657 29.7108C46.1608 28.8294 46.3606 27.9589 46.7495 27.1679C47.0911 26.4554 47.6312 25.8566 48.3048 25.4435C48.9125 25.0897 49.6283 24.9694 50.3183 25.1052C51.047 25.2641 51.7019 25.6616 52.1791 26.2348C52.7262 26.8805 53.1016 27.6537 53.2705 28.483C53.4567 29.3566 53.4454 30.2608 53.2377 31.1296C53.0453 31.9419 52.6512 32.6926 52.0918 33.3123C51.5982 33.863 50.9328 34.2304 50.2038 34.3546C50.0629 34.3763 49.9206 34.3873 49.7781 34.3873C49.5409 34.3852 49.3047 34.3559 49.0742 34.3C48.1932 34.0401 47.4441 33.4548 46.9787 32.6629C46.4395 31.7732 46.158 30.7512 46.1657 29.7108Z" fill="#EFB19E"/>
<path d="M52.1955 31.455C52.4383 30.8958 52.5592 30.2912 52.5502 29.6816C52.552 29.0704 52.4237 28.4658 52.1737 27.9081C51.9516 27.4003 51.6043 26.9572 51.1642 26.6203C50.769 26.318 50.2866 26.1514 49.7891 26.1455C49.7891 26.1455 53.0086 27.2042 52.1955 31.455Z" fill="#BC6A4F"/>
<path d="M44.0425 37.9777C44.5658 37.6638 45.0176 37.2437 45.3685 36.7444C45.721 36.2547 45.9681 35.6973 46.0943 35.1073C46.2099 34.5648 46.1874 34.0019 46.0288 33.4703C45.8809 32.9967 45.5867 32.5821 45.1884 32.2861C45.1884 32.2861 47.1802 34.9982 44.0425 37.9777Z" fill="#BC6A4F"/>
<path d="M25.9916 37.7705C25.4105 37.5836 24.8751 37.2768 24.42 36.8701C23.96 36.4688 23.5884 35.9764 23.3286 35.424C23.098 34.9281 22.9966 34.3818 23.0339 33.8361C23.0651 33.3396 23.2566 32.8666 23.5796 32.4883C23.5796 32.4883 22.2536 35.5932 25.9916 37.7705Z" fill="#BC6A4F"/>
<path d="M30.2363 36.499C31.0112 37.0993 32.5555 37.5085 34.3344 37.5085C36.1134 37.5085 37.6577 37.0993 38.438 36.499C38.438 36.499 34.3181 38.0379 30.2363 36.499Z" fill="#BC6A4F"/>
<path d="M20.4141 61.1203C20.4141 61.1203 21.3363 65.213 21.3145 65.1257C21.6302 64.9228 21.9668 64.7544 22.3185 64.6236C22.2141 63.4721 22.0318 62.329 21.7728 61.2022C21.4545 61.0552 21.1191 60.9489 20.7742 60.8857C20.7742 60.8857 22.0239 58.1573 21.751 53.2461C21.6615 55.919 21.2118 58.5676 20.4141 61.1203Z" fill="#373684"/>
<path d="M9.16266 65.4249C9.16266 65.4249 8.51881 62.8547 8.74254 61.1085C8.74254 61.1085 17.3098 60.3173 21.5607 61.305C21.5607 61.305 22.1773 64.2299 21.9536 65.4249H9.16266Z" fill="#FAF3ED"/>
<path d="M20.4141 61.1201C17.3037 60.6672 12.8782 60.8527 10.4663 61.0055V60.5526C10.4663 60.5526 18.2532 60.3289 20.4141 61.1201Z" fill="#373684"/>
<path d="M51.8131 61.7918C51.8131 61.7918 50.8909 65.879 50.9127 65.7971C50.9346 65.7153 49.9087 65.2897 49.9087 65.2897C50.0162 64.1386 50.1985 62.9957 50.4544 61.8682C50.7747 61.7215 51.1119 61.6152 51.4584 61.5517C51.4584 61.5517 50.2034 58.8233 50.4817 53.9121C50.5676 56.5868 51.0155 59.2374 51.8131 61.7918Z" fill="#373684"/>
<path d="M63.0649 66.1185C63.0649 66.1185 63.7143 63.5538 63.4906 61.8022C63.4906 61.8022 54.9179 61.0164 50.667 62.0041C50.667 62.0041 50.0504 64.9235 50.2796 66.1185H63.0649Z" fill="#FAF3ED"/>
<path d="M51.814 61.7904C54.9244 61.3374 59.4536 61.523 61.8382 61.6813L61.8055 61.2447C61.8055 61.2447 53.9803 61.0264 51.814 61.7904Z" fill="#373684"/>
<path d="M38.1603 29.8905C38.1603 30.8398 38.9299 31.6094 39.8792 31.6094C40.8285 31.6094 41.5981 30.8398 41.5981 29.8905C41.5981 28.9411 40.8285 28.1716 39.8792 28.1716C38.9299 28.1716 38.1603 28.9411 38.1603 29.8905Z" fill="#1D1D1B"/>
<path d="M25.9748 29.8905C25.9748 30.8398 26.7443 31.6094 27.6937 31.6094C28.643 31.6094 29.4126 30.8398 29.4126 29.8905C29.4126 28.9411 28.643 28.1716 27.6937 28.1716C26.7443 28.1716 25.9748 28.9411 25.9748 29.8905Z" fill="#1D1D1B"/>
<path d="M50.0443 25.0338C50.3075 24.4443 50.4367 23.8038 50.4226 23.1584C50.4084 22.5129 50.2513 21.8787 49.9625 21.3013C49.6817 20.6054 49.4501 19.8906 49.2695 19.1622C48.916 18.1227 48.3595 17.1637 47.6324 16.341C45.9353 14.071 42.0774 14.1037 41.1279 14.5184L40.413 14.8459C40.1347 14.9768 39.8673 14.8077 39.6545 14.6057C39.0488 14.0928 38.9233 13.8854 37.3845 13.6344C36.0148 13.4107 35.2563 13.6344 34.8416 14.0273C34.6472 14.2093 34.3989 14.3232 34.1341 14.3517C33.8693 14.3803 33.6024 14.3219 33.3736 14.1856L33.2264 14.0983C31.7425 13.2354 29.9808 12.9848 28.3152 13.3998C22.4545 14.8295 19.1586 22.5073 19.9498 24.2153C20.1255 24.603 20.3811 24.9492 20.6999 25.2314C21.0187 25.5135 21.3935 25.7251 21.7997 25.8523C22.891 26.1852 23.5077 19.9644 30.2687 21.0885C30.2687 21.0885 30.7053 22.9766 33.3409 23.8933C35.9766 24.8101 38.8469 21.2031 38.8469 21.2031C38.8469 21.2031 38.6177 23.5222 42.2083 25.0229C44.7275 26.0037 47.5224 26.0077 50.0443 25.0338Z" fill="#ED8A29"/>
<path d="M33.2603 24.0944C31.979 23.7121 30.892 22.8553 30.2209 21.6988C29.5497 20.4492 29.506 18.9104 30.1008 17.126L30.4882 17.2569C29.9426 18.9267 29.9425 20.3564 30.581 21.5078C31.2054 22.5558 32.1975 23.3339 33.364 23.6906L33.2603 24.0944Z" fill="#1D1D1B"/>
<path d="M42.1323 25.2305C40.8547 24.8469 39.7703 23.9926 39.0982 22.8404C38.4216 21.5853 38.3834 20.0465 38.9782 18.2676L39.3657 18.3931C38.82 20.0629 38.8199 21.4926 39.4584 22.6385C40.0815 23.6854 41.0714 24.4634 42.2359 24.8213L42.1323 25.2305Z" fill="#1D1D1B"/>
<path d="M50.6891 34.8226C51.313 34.8226 51.8187 34.3169 51.8187 33.693C51.8187 33.0692 51.313 32.5635 50.6891 32.5635C50.0653 32.5635 49.5596 33.0692 49.5596 33.693C49.5596 34.3169 50.0653 34.8226 50.6891 34.8226Z" fill="#C49318"/>
<path d="M50.7768 34.5389C51.3222 34.5389 51.7644 34.0967 51.7644 33.5512C51.7644 33.0057 51.3222 32.5635 50.7768 32.5635C50.2313 32.5635 49.7891 33.0057 49.7891 33.5512C49.7891 34.0967 50.2313 34.5389 50.7768 34.5389Z" fill="#EDB61B"/>
<path opacity="0.6" d="M21.3092 34.3261C21.3092 34.3261 20.8727 33.202 20.7635 32.6235C20.7635 32.6235 20.7636 32.5635 20.3979 32.5635C20.4601 33.2878 20.6838 33.9889 21.0527 34.6153C21.1553 34.5355 21.2423 34.4375 21.3092 34.3261Z" fill="#C49318"/>
<path opacity="0.6" d="M46.7055 40.1426C46.7055 40.1426 40.0263 50.0304 40.0863 65.0367H41.4669V63.3997L46.7055 40.1426Z" fill="#373684"/>
<path opacity="0.6" d="M24.5234 39.8379C24.5234 39.8379 31.2026 49.7257 31.1426 64.732H29.762V63.095L24.5234 39.8379Z" fill="#373684"/>
<path d="M49.7722 35.5928L51.895 42.3975L47.3385 48.4491L46.9838 56.176L41.8926 63.8484L41.9417 61.8839C42.1872 52.3617 44.5664 43.5816 49.7504 35.5928H49.7722Z" fill="#373684"/>
<path d="M49.8217 34.626L51.9444 41.4361L47.3825 47.9843L47.0332 55.7167L41.4673 63.389L41.5164 61.4191C41.7633 51.8968 44.6375 42.6281 49.8217 34.6369V34.626Z" fill="#FAF3ED"/>
<path d="M21.6042 35.582L19.4814 42.3922L24.0434 48.4384L24.3926 56.1653L29.4675 63.8376L29.4129 61.8731C29.1728 52.3509 26.7882 43.5763 21.6042 35.582Z" fill="#373684"/>
<path d="M21.5392 34.6162L19.4165 41.4264L23.973 47.9746L24.3277 55.7015L29.8882 63.3738L29.8391 61.4094C29.5951 51.8857 26.7227 42.6149 21.5392 34.6217V34.6162Z" fill="#FAF3ED"/>
<path d="M23.814 29.4702C24.1024 28.9113 24.4887 28.4087 24.9544 27.986C25.4187 27.5376 25.9784 27.1999 26.5915 26.9983C27.2423 26.8063 27.942 26.8728 28.545 27.1838C29.1087 27.4952 29.5681 27.9659 29.8656 28.5371C29.4296 28.1302 28.9253 27.8033 28.3759 27.5712C27.8494 27.3807 27.2758 27.3635 26.7388 27.5221C26.1864 27.7008 25.6667 27.968 25.2 28.3134C24.7157 28.6715 24.2529 29.0578 23.814 29.4702Z" fill="#1D1D1B"/>
<path d="M44.2561 29.4702C43.8101 29.0571 43.34 28.6708 42.8483 28.3134C42.3816 27.968 41.8618 27.7008 41.3094 27.5221C40.7724 27.3635 40.1988 27.3807 39.6723 27.5712C39.1229 27.8033 38.6186 28.1302 38.1826 28.5371C38.4801 27.9659 38.9395 27.4952 39.5032 27.1838C40.1062 26.8728 40.8059 26.8063 41.4567 26.9983C42.0699 27.1999 42.6295 27.5376 43.0938 27.986C43.5673 28.4068 43.9611 28.9096 44.2561 29.4702Z" fill="#1D1D1B"/>
</g>
<path d="M41.2559 86.2207C41.2559 86.7422 41.1562 87.2314 40.957 87.6885C40.7578 88.1455 40.4854 88.5469 40.1396 88.8926C39.7998 89.2324 39.4014 89.502 38.9443 89.7012C38.4873 89.9004 37.998 90 37.4766 90H31.1748V77.3965H37.4766C37.998 77.3965 38.4873 77.4961 38.9443 77.6953C39.4014 77.8945 39.7998 78.167 40.1396 78.5127C40.4854 78.8525 40.7578 79.251 40.957 79.708C41.1562 80.165 41.2559 80.6543 41.2559 81.1758C41.2559 81.4102 41.2236 81.6504 41.1592 81.8965C41.0947 82.1426 41.0039 82.3799 40.8867 82.6084C40.7695 82.8369 40.6289 83.0449 40.4648 83.2324C40.3008 83.4199 40.1191 83.5752 39.9199 83.6982C40.125 83.8096 40.3096 83.9619 40.4736 84.1553C40.6377 84.3428 40.7783 84.5508 40.8955 84.7793C41.0127 85.0078 41.1006 85.248 41.1592 85.5C41.2236 85.7461 41.2559 85.9863 41.2559 86.2207ZM33.6973 87.4775H37.4766C37.6523 87.4775 37.8164 87.4453 37.9688 87.3809C38.1211 87.3164 38.2529 87.2285 38.3643 87.1172C38.4814 87 38.5723 86.8652 38.6367 86.7129C38.7012 86.5605 38.7334 86.3965 38.7334 86.2207C38.7334 86.0449 38.7012 85.8809 38.6367 85.7285C38.5723 85.5762 38.4814 85.4443 38.3643 85.333C38.2529 85.2158 38.1211 85.125 37.9688 85.0605C37.8164 84.9961 37.6523 84.9639 37.4766 84.9639H33.6973V87.4775ZM33.6973 82.4414H37.4766C37.6523 82.4414 37.8164 82.4092 37.9688 82.3447C38.1211 82.2803 38.2529 82.1924 38.3643 82.0811C38.4814 81.9639 38.5723 81.8291 38.6367 81.6768C38.7012 81.5186 38.7334 81.3516 38.7334 81.1758C38.7334 81 38.7012 80.8359 38.6367 80.6836C38.5723 80.5312 38.4814 80.3994 38.3643 80.2881C38.2529 80.1709 38.1211 80.0801 37.9688 80.0156C37.8164 79.9512 37.6523 79.9189 37.4766 79.9189H33.6973V82.4414Z" fill="black"/>
<defs>
<clipPath id="clip0_416_82">
<rect width="15.8249" height="7.09391" fill="white" transform="translate(66.4536 73.1035) rotate(-180)"/>
</clipPath>
<clipPath id="clip1_416_82">
<rect width="15.8249" height="7.09391" fill="white" transform="translate(21.1621 72.5586) rotate(-180)"/>
</clipPath>
</defs>
</svg>
