<svg width="73" height="94" viewBox="0 0 73 94" fill="none" xmlns="http://www.w3.org/2000/svg">
<ellipse cx="36.1981" cy="36.4074" rx="36.1981" ry="36.4074" fill="#ADB3D7"/>
<mask id="mask0_416_171" style="mask-type:alpha" maskUnits="userSpaceOnUse" x="2" y="6" width="69" height="68">
<path d="M69.5417 40.2312C69.5417 58.4417 54.5504 73.2172 36.0416 73.2172C17.5328 73.2172 2.5415 58.4417 2.5415 40.2312C2.5415 22.0206 17.5328 7.24512 36.0416 7.24512C54.5504 7.24512 69.5417 22.0206 69.5417 40.2312Z" fill="#C4C4C4" stroke="black"/>
</mask>
<g mask="url(#mask0_416_171)">
<path d="M11.6719 66.6613C11.6719 66.6613 8.87572 39.884 25.7409 29.792L49.6054 30.3693C49.6054 30.3693 59.8055 34.151 61.1713 66.032L37.5061 76.9496L11.6719 66.6613Z" fill="#5154A1"/>
<path d="M49.1021 29.7627C49.1021 29.7627 43.5683 37.5222 36.2759 37.1527L37.7063 43.134C37.7063 43.134 49.2721 35.311 49.1021 29.7627Z" fill="#373684"/>
<path d="M49.1013 29.7627C49.1013 29.7627 43.1513 37.0546 35.8589 36.6908L37.2833 42.6721C37.2833 42.6721 47.7823 36.4484 49.1013 29.7627Z" fill="#FAF3ED"/>
<path d="M34.0246 36.8298L32.9049 42.9382C32.9049 42.9382 26.527 34.9246 26.1343 29.792C26.1284 29.792 31.6036 36.4199 34.0246 36.8298Z" fill="#373684"/>
<path d="M33.7256 36.749L32.4008 42.661C32.4008 42.661 26.5388 34.9131 26.1343 29.792C27.8614 32.8377 30.517 35.2714 33.7256 36.749V36.749Z" fill="#FAF3ED"/>
<path d="M35.7076 40.0216C35.7076 40.0216 36.88 55.1134 37.6362 58.5602C38.3924 62.0069 34.8986 65.5691 34.7052 66.7584H30.2207C30.2207 66.7584 28.0693 62.4803 28.55 59.2529C29.0307 56.0256 34.3359 39.8311 34.3359 39.8311L35.7076 40.0216Z" fill="#C7361A"/>
<path d="M35.4669 39.9307C35.4669 39.9307 36.6393 55.0225 37.3955 58.4635C38.1517 61.9045 34.6579 65.4782 34.4645 66.6618H29.98C29.98 66.6618 27.8286 62.3837 28.3093 59.1563C28.79 55.9289 34.0952 39.7344 34.0952 39.7344L35.4669 39.9307Z" fill="#E8461C"/>
<path d="M34.072 39.3707L34.7168 38.6144C34.7536 38.5705 34.7996 38.5351 34.8517 38.5105C34.9055 38.4965 34.9619 38.4965 35.0157 38.5105C35.0729 38.51 35.1286 38.5283 35.174 38.5624C35.2247 38.5921 35.2671 38.6338 35.2972 38.6837L35.9596 39.7113C36.0185 39.8021 36.0414 39.911 36.0241 40.0174C36.0104 40.124 35.9584 40.2223 35.8775 40.2945L34.9513 41.0162C34.9063 41.0546 34.8516 41.0805 34.793 41.0912C34.7392 41.1054 34.6827 41.1054 34.6289 41.0912C34.5739 41.0738 34.5238 41.0442 34.4823 41.0046C34.4392 40.9616 34.4053 40.9106 34.3827 40.8545L34.0016 39.8499C33.9812 39.7742 33.9812 39.6947 34.0016 39.619C34.0058 39.5321 34.0298 39.4472 34.072 39.3707V39.3707Z" fill="#C7361A"/>
<path d="M33.9478 39.3234L34.5692 38.5959C34.6053 38.5553 34.6491 38.522 34.6981 38.4978C34.7482 38.4772 34.8022 38.4673 34.8564 38.4689C34.9105 38.4748 34.9626 38.4925 35.0088 38.5209C35.0562 38.5503 35.0962 38.5897 35.1261 38.6364L35.765 39.6294C35.7912 39.674 35.809 39.7229 35.8177 39.7737C35.8294 39.8251 35.8294 39.8783 35.8177 39.9296C35.811 39.9819 35.7952 40.0327 35.7709 40.0797C35.7441 40.1215 35.7104 40.1586 35.6712 40.1894L34.7861 40.888C34.7443 40.9235 34.6938 40.9474 34.6395 40.9573C34.5854 40.9688 34.5295 40.9688 34.4754 40.9573C34.4222 40.9397 34.374 40.91 34.3347 40.8707C34.2948 40.8286 34.263 40.7797 34.2409 40.7264L33.8774 39.7622C33.8573 39.6885 33.8573 39.6108 33.8774 39.537C33.8808 39.4609 33.9051 39.387 33.9478 39.3234V39.3234Z" fill="#E8461C"/>
<path d="M21.0527 62.1139C21.0527 62.1139 21.9262 66.4151 21.9086 66.3228C21.891 66.2304 22.8582 65.7916 22.8582 65.7916C22.7592 64.5855 22.5869 63.3863 22.3424 62.2005C22.0429 62.0464 21.7234 61.9337 21.3927 61.8656C21.3927 61.8656 21.9204 49.9261 25.0448 49.0312C21.469 49.8107 21.0527 62.1139 21.0527 62.1139Z" fill="#373684"/>
<path d="M10.4071 66.6624C10.0719 65.1756 9.93794 63.6517 10.0085 62.1303C10.0085 62.1303 18.1333 61.2989 22.1606 62.3381C22.1606 62.3381 22.7468 65.4096 22.5299 66.6624H10.4071Z" fill="#FAF3ED"/>
<g clip-path="url(#clip0_416_171)">
<path d="M22.5581 66.2117C22.5581 66.2117 22.3636 72.8023 19.9433 70.7113C19.9433 70.7113 18.718 74.0035 17.2427 71.4581C17.2427 71.4581 15.8253 75.1922 14.5723 71.3087C14.5723 71.3087 12.9301 76.1692 11.2626 70.8606C11.2626 70.8606 5.97496 79.7291 5.55806 66.2117L22.5581 66.2117Z" fill="#CC8A7A"/>
<path d="M20.5896 66.2114C20.5902 67.8774 20.3579 69.4833 19.9388 70.7109C19.9388 70.7109 20.7841 69.404 20.5896 66.2114Z" fill="#BC6A4F"/>
<path d="M17.669 66.2116C17.801 69.8773 17.2428 71.458 17.2428 71.458C17.2428 71.458 18.0882 70.12 17.669 66.2116Z" fill="#BC6A4F"/>
<path d="M15.2254 66.2116C15.1863 68.0396 14.9603 69.8033 14.5723 71.3086C14.8233 70.658 15.0133 69.857 15.1268 68.971C15.2403 68.085 15.2741 67.1394 15.2254 66.2116Z" fill="#BC6A4F"/>
<path d="M10.6303 67.9229C10.7545 69.0179 10.97 70.0225 11.2603 70.8604C11.0656 70.5714 10.9041 70.145 10.7931 69.6273C10.682 69.1096 10.6258 68.5203 10.6303 67.9229V67.9229Z" fill="#BC6A4F"/>
</g>
<g clip-path="url(#clip1_416_171)">
<path d="M67.1099 66.2117C67.1099 66.2117 66.9153 72.8023 64.495 70.7113C64.495 70.7113 63.2698 74.0035 61.7945 71.4581C61.7945 71.4581 60.377 75.1922 59.124 71.3087C59.124 71.3087 57.4819 76.1692 55.8143 70.8606C55.8143 70.8606 50.5267 79.7291 50.1098 66.2117L67.1099 66.2117Z" fill="#CC8A7A"/>
<path d="M65.1413 66.2114C65.1419 67.8774 64.9097 69.4833 64.4905 70.7109C64.4905 70.7109 65.3359 69.404 65.1413 66.2114Z" fill="#BC6A4F"/>
<path d="M62.2207 66.2116C62.3528 69.8773 61.7946 71.458 61.7946 71.458C61.7946 71.458 62.64 70.12 62.2207 66.2116Z" fill="#BC6A4F"/>
<path d="M59.7772 66.2116C59.738 68.0396 59.512 69.8033 59.124 71.3086C59.375 70.658 59.565 69.857 59.6786 68.971C59.7921 68.085 59.8259 67.1394 59.7772 66.2116Z" fill="#BC6A4F"/>
<path d="M55.182 67.9229C55.3063 69.0179 55.5217 70.0225 55.812 70.8604C55.6174 70.5714 55.4558 70.145 55.3448 69.6273C55.2338 69.1096 55.1775 68.5203 55.182 67.9229V67.9229Z" fill="#BC6A4F"/>
</g>
<path d="M21.0512 62.114C18.1202 61.6405 13.9054 61.8311 11.6191 61.9928V61.5193C11.6191 61.5193 19.0229 61.3115 21.0512 62.114Z" fill="#373684"/>
<path d="M51.1602 61.9449L50.3043 66.1537C50.3043 66.0613 49.3547 65.6226 49.3547 65.6226C49.454 64.4146 49.6263 63.2135 49.8705 62.0257C50.17 61.8716 50.4895 61.7589 50.8202 61.6908C50.8202 61.6908 49.9878 49.7571 46.8633 48.8564C50.4626 49.6416 51.1602 61.9449 51.1602 61.9449Z" fill="#373684"/>
<path d="M61.8233 66.4938C62.1619 65.0055 62.2979 63.4795 62.2278 61.9559C62.2278 61.9559 54.1029 61.1303 50.0757 62.1637C50.0757 62.1637 49.4895 65.241 49.7064 66.4938H61.8233Z" fill="#FAF3ED"/>
<path d="M51.1587 61.9454C54.0897 61.4662 58.2987 61.6625 60.5849 61.8241V61.3449C60.5849 61.3449 53.2104 61.1429 51.1587 61.9454Z" fill="#373684"/>
<path d="M22.9517 24.829C22.9475 24.1245 23.1101 23.4286 23.4266 22.7968C23.7023 22.223 24.1424 21.7413 24.6928 21.4111C25.1895 21.1192 25.7783 21.0185 26.3459 21.1282C26.9371 21.2553 27.4677 21.5746 27.8524 22.0347C28.297 22.5498 28.6016 23.1676 28.7376 23.8302C28.8959 24.5298 28.8959 25.2552 28.7376 25.9548C28.578 26.5995 28.2577 27.1949 27.8056 27.6869C27.4013 28.124 26.8611 28.4164 26.2697 28.5182C26.1546 28.527 26.039 28.527 25.9239 28.5182C25.7263 28.5196 25.5293 28.4963 25.3376 28.449C24.6221 28.2452 24.0121 27.7807 23.6318 27.1499C23.1917 26.4531 22.9563 25.6497 22.9517 24.829V24.829Z" fill="#CC8A7A"/>
<path d="M35.5021 37.177L34.0248 36.8306C30.8065 35.7452 24.7217 30.9821 24.7217 24.8276C24.731 21.863 25.9308 19.0223 28.0594 16.9259C30.1879 14.8296 33.0722 13.6478 36.0824 13.6387H39.1014C42.1116 13.6478 44.9958 14.8296 47.1243 16.9259C49.2529 19.0223 50.4528 21.863 50.4621 24.8276V24.8276C51.3707 30.1623 45.2859 35.2198 39.6114 36.7902C38.5584 37.0891 37.471 37.254 36.3755 37.281C36.081 37.2841 35.7873 37.2492 35.5021 37.177V37.177Z" fill="#CC8A7A"/>
<path d="M28.8478 25.4825C28.4778 25.4825 28.1229 25.3377 27.8612 25.0801C27.5996 24.8224 27.4526 24.4729 27.4526 24.1085C27.4526 23.744 27.5996 23.3945 27.8612 23.1368C28.1229 22.8791 28.4778 22.7344 28.8478 22.7344C29.2168 22.7359 29.5702 22.8813 29.8305 23.1388C30.0909 23.3964 30.2371 23.745 30.2371 24.1085C30.2371 24.4719 30.0909 24.8205 29.8305 25.078C29.5702 25.3356 29.2168 25.481 28.8478 25.4825V25.4825Z" fill="#1B1935"/>
<path d="M42.9992 25.4825C42.6302 25.481 42.2768 25.3356 42.0165 25.078C41.7561 24.8205 41.6099 24.4719 41.6099 24.1085C41.6099 23.745 41.7561 23.3964 42.0165 23.1388C42.2768 22.8813 42.6302 22.7359 42.9992 22.7344C43.3692 22.7344 43.7241 22.8791 43.9858 23.1368C44.2474 23.3945 44.3944 23.744 44.3944 24.1085C44.3944 24.4729 44.2474 24.8224 43.9858 25.0801C43.7241 25.3377 43.3692 25.4825 42.9992 25.4825Z" fill="#1B1935"/>
<path d="M29.529 22.1389C29.498 22.1334 29.4663 22.1334 29.4352 22.1389L26.8559 23.1608C26.7917 23.1865 26.7404 23.236 26.7129 23.2987C26.6855 23.3613 26.6842 23.4321 26.7094 23.4957C26.7366 23.5593 26.788 23.6099 26.8525 23.6369C26.9171 23.6638 26.9898 23.6649 27.0552 23.64L29.6287 22.6239C29.6933 22.597 29.7447 22.5464 29.7721 22.4828C29.7994 22.4192 29.8006 22.3476 29.7752 22.2832C29.7521 22.2388 29.7167 22.2018 29.6732 22.1762C29.6296 22.1507 29.5796 22.1377 29.529 22.1389V22.1389Z" fill="black"/>
<path d="M41.9377 21.9922C41.8843 21.9923 41.8321 22.0083 41.7881 22.0382C41.7442 22.0681 41.7105 22.1104 41.6915 22.1596C41.6667 22.2239 41.6688 22.2953 41.6974 22.3581C41.726 22.4209 41.7786 22.4699 41.8439 22.4945L44.4408 23.4586C44.5061 23.483 44.5786 23.481 44.6423 23.4528C44.7061 23.4247 44.7559 23.3728 44.7808 23.3086C44.804 23.2441 44.8012 23.1734 44.7728 23.111C44.7444 23.0486 44.6927 22.9995 44.6284 22.9737L42.0315 22.0095L41.9377 21.9922Z" fill="black"/>
<path d="M37.8879 29.4054C36.4682 29.6248 35.0224 29.6248 33.6027 29.4054C30.3786 28.9089 28.7079 30.1098 30.5661 30.9642C32.2146 31.6172 33.9716 31.9637 35.7482 31.9861C37.523 31.964 39.2782 31.6174 40.9245 30.9642C42.7886 30.1098 41.112 28.9089 37.8879 29.4054Z" fill="#E28E74"/>
<path d="M31.3462 29.9023C32.1786 30.5374 33.8375 30.9704 35.7485 30.9704C37.6596 30.9704 39.3186 30.5374 40.151 29.9023C40.151 29.9023 35.7076 31.5362 31.3462 29.9023Z" fill="#BC6A4F"/>
<path d="M25.0964 15.7289L25.1491 15.6365C25.4713 15.0325 25.7362 14.4006 25.9405 13.7486C26.3792 12.6347 27.0388 11.618 27.8808 10.7579C29.7098 8.56979 33.1567 9.02589 33.954 9.60324C34.1298 9.72448 34.2881 9.83419 34.423 9.93811C34.537 10.0183 34.6748 10.059 34.8148 10.0538C34.9548 10.0485 35.0892 9.99772 35.1967 9.90925C35.8591 9.40118 35.9588 9.1818 37.4243 9.08943C38.8899 8.99705 39.5992 9.53976 39.8278 10.1056C39.8527 10.1761 39.894 10.2399 39.9484 10.2919C40.0028 10.3439 40.0688 10.3827 40.1411 10.4051C40.2135 10.4276 40.2901 10.433 40.365 10.4211C40.4398 10.4092 40.5108 10.3802 40.5723 10.3365V10.3365C41.2616 9.87856 42.0509 9.58757 42.8761 9.48723C43.7013 9.3869 44.5389 9.48007 45.3205 9.75913C50.5612 11.751 52.5485 20.4227 51.5929 22.149C51.4066 22.5179 51.1423 22.8432 50.8178 23.1031C50.4932 23.363 50.1159 23.5515 49.7112 23.6559C48.7088 23.881 48.9667 17.6919 43.3274 17.6919C43.1788 17.6873 43.0318 17.7231 42.9026 17.7954C42.7733 17.8677 42.6668 17.9737 42.5947 18.1018C42.2834 18.6465 41.8632 19.1233 41.3594 19.5034C40.8556 19.8835 40.2787 20.159 39.6636 20.313C37.1781 20.977 35.1029 16.849 35.1029 16.849C35.1029 16.849 34.9915 19.3085 31.5857 20.492C30.0316 21.0215 28.3478 21.0559 26.7729 20.5901C24.9439 20.0763 24.0764 17.6341 25.0964 15.7289Z" fill="black"/>
<path d="M47.5128 24.829C47.5085 24.1245 47.6711 23.4286 47.9876 22.7968C48.2632 22.223 48.7034 21.7413 49.2538 21.4111C49.7505 21.1192 50.3393 21.0185 50.9069 21.1282C51.4987 21.254 52.0297 21.5735 52.4135 22.0347C52.858 22.5498 53.1626 23.1676 53.2986 23.8302C53.4599 24.5295 53.4599 25.2555 53.2986 25.9548C53.1414 26.6004 52.8208 27.1963 52.3666 27.6869C51.9624 28.124 51.4221 28.4164 50.8307 28.5182C50.7176 28.5268 50.6039 28.5268 50.4907 28.5182C50.2931 28.5196 50.0961 28.4963 49.9045 28.449C49.1889 28.2452 48.579 27.7807 48.1987 27.1499C47.759 26.4526 47.5218 25.6499 47.5128 24.829Z" fill="#CC8A7A"/>
<path d="M52.4149 26.2258C52.6112 25.7776 52.7091 25.2936 52.7022 24.8055C52.7043 24.318 52.6004 23.8357 52.3973 23.391C52.219 22.9825 51.9362 22.6265 51.5766 22.3576C51.255 22.1148 50.8622 21.9811 50.457 21.9766C50.457 21.9766 53.0774 22.8253 52.4149 26.2258Z" fill="#BC6A4F"/>
<path d="M43.0927 31.3848C43.1898 31.1645 43.2378 30.9263 43.2334 30.6862C43.2345 30.4434 43.1826 30.2032 43.081 29.9819C42.9936 29.7806 42.8541 29.6055 42.6766 29.4738C42.518 29.3551 42.3246 29.2903 42.1255 29.2891C42.1255 29.2891 43.4152 29.7048 43.0927 31.3848Z" fill="#BC6A4F"/>
<path d="M29.8449 29.2842C29.6221 29.3729 29.422 29.509 29.2586 29.6825C29.0874 29.8464 28.9517 30.0428 28.86 30.2599C28.778 30.4653 28.7517 30.6881 28.7838 30.9065C28.809 31.1002 28.8975 31.2805 29.0359 31.4204C29.0359 31.4204 28.4145 30.2195 29.8449 29.2842Z" fill="#BC6A4F"/>
<path d="M31.4745 27.7888H38.7024C39.4223 27.7785 40.139 27.8839 40.8245 28.1006C41.4107 28.3026 41.7038 28.574 41.7038 28.8569H28.479C28.479 28.574 28.7956 28.2795 29.3583 28.1006C30.0419 27.8843 30.7566 27.7789 31.4745 27.7888V27.7888Z" fill="#6E333C"/>
</g>
<path d="M43.4668 89.708C42.8809 90.2119 42.2246 90.5986 41.498 90.8682C40.7715 91.1377 40.0186 91.2725 39.2393 91.2725C38.6416 91.2725 38.0645 91.1934 37.5078 91.0352C36.957 90.8828 36.4385 90.666 35.9521 90.3848C35.4717 90.0977 35.0322 89.7549 34.6338 89.3564C34.2354 88.958 33.8926 88.5186 33.6055 88.0381C33.3242 87.5518 33.1045 87.0332 32.9463 86.4824C32.7939 85.9258 32.7178 85.3486 32.7178 84.751C32.7178 84.1533 32.7939 83.5762 32.9463 83.0195C33.1045 82.4629 33.3242 81.9443 33.6055 81.4639C33.8926 80.9775 34.2354 80.5352 34.6338 80.1367C35.0322 79.7383 35.4717 79.3984 35.9521 79.1172C36.4385 78.8301 36.957 78.6104 37.5078 78.458C38.0645 78.2998 38.6416 78.2207 39.2393 78.2207C40.0186 78.2207 40.7715 78.3555 41.498 78.625C42.2246 78.8887 42.8809 79.2754 43.4668 79.7852L42.1309 81.9824C41.7617 81.584 41.3252 81.2793 40.8213 81.0684C40.3174 80.8516 39.79 80.7432 39.2393 80.7432C38.6826 80.7432 38.1611 80.8486 37.6748 81.0596C37.1885 81.2705 36.7637 81.5576 36.4004 81.9209C36.0371 82.2783 35.75 82.7031 35.5391 83.1953C35.3281 83.6816 35.2227 84.2002 35.2227 84.751C35.2227 85.3018 35.3281 85.8203 35.5391 86.3066C35.75 86.7871 36.0371 87.209 36.4004 87.5723C36.7637 87.9355 37.1885 88.2227 37.6748 88.4336C38.1611 88.6445 38.6826 88.75 39.2393 88.75C39.79 88.75 40.3174 88.6445 40.8213 88.4336C41.3252 88.2168 41.7617 87.9092 42.1309 87.5107L43.4668 89.708Z" fill="black"/>
<defs>
<clipPath id="clip0_416_171">
<rect width="17" height="7.5055" fill="white" transform="translate(22.5581 73.7168) rotate(-180)"/>
</clipPath>
<clipPath id="clip1_416_171">
<rect width="17" height="7.5055" fill="white" transform="translate(67.1099 73.7168) rotate(-180)"/>
</clipPath>
</defs>
</svg>
