<svg width="212" height="23" viewBox="0 0 212 23" fill="none" xmlns="http://www.w3.org/2000/svg">
<path d="M13.5522 15.13C13.5522 15.41 13.4722 15.7 13.3122 16C13.1722 16.3 12.9922 16.6 12.7722 16.9C12.5522 17.2 12.3122 17.49 12.0522 17.77C11.7922 18.03 11.5522 18.26 11.3322 18.46C10.7922 18.94 10.2322 19.4 9.65219 19.84C9.09219 20.26 8.50219 20.64 7.88219 20.98C7.28219 21.32 6.65219 21.59 5.99219 21.79C5.33219 21.99 4.64219 22.09 3.92219 22.09C1.74219 22.09 0.652188 20.97 0.652188 18.73C0.652188 18.51 0.742188 18.08 0.922188 17.44C1.10219 16.8 1.33219 16.07 1.61219 15.25C1.89219 14.43 2.22219 13.57 2.60219 12.67C2.98219 11.77 3.37219 10.95 3.77219 10.21C4.17219 9.45 4.56219 8.83 4.94219 8.35C5.34219 7.87 5.71219 7.63 6.05219 7.63C6.27219 7.63 6.43219 7.7 6.53219 7.84C6.65219 7.98 6.71219 8.13 6.71219 8.29C6.69219 8.41 6.55219 8.67 6.29219 9.07C6.03219 9.45 5.76219 9.84 5.48219 10.24C5.44219 10.3 5.37219 10.4 5.27219 10.54C5.17219 10.68 5.07219 10.82 4.97219 10.96C4.85219 11.12 4.73219 11.29 4.61219 11.47C4.53219 11.61 4.35219 11.97 4.07219 12.55C3.81219 13.11 3.53219 13.77 3.23219 14.53C2.93219 15.27 2.66219 16.05 2.42219 16.87C2.18219 17.67 2.06219 18.37 2.06219 18.97C2.06219 19.31 2.13219 19.58 2.27219 19.78C2.43219 19.98 2.61219 20.13 2.81219 20.23C3.03219 20.33 3.25219 20.4 3.47219 20.44C3.71219 20.46 3.92219 20.47 4.10219 20.47C4.84219 20.47 5.62219 20.31 6.44219 19.99C7.28219 19.65 8.08219 19.21 8.84219 18.67C9.60219 18.13 10.3022 17.51 10.9422 16.81C11.5822 16.09 12.0822 15.35 12.4422 14.59C12.5222 14.45 12.6022 14.36 12.6822 14.32C12.7822 14.28 12.8722 14.26 12.9522 14.26C13.1122 14.26 13.2522 14.37 13.3722 14.59C13.4922 14.81 13.5522 14.99 13.5522 15.13ZM25.716 16.45C25.816 16.55 25.866 16.61 25.866 16.63C25.866 16.67 25.806 16.79 25.686 16.99C25.586 17.19 25.446 17.4 25.266 17.62C25.086 17.84 24.886 18.04 24.666 18.22C24.466 18.38 24.266 18.46 24.066 18.46C23.646 18.46 23.306 18.38 23.046 18.22C22.786 18.04 22.566 17.82 22.386 17.56C22.226 17.3 22.096 17.02 21.996 16.72C21.916 16.4 21.846 16.1 21.786 15.82C21.746 15.68 21.706 15.61 21.666 15.61C21.606 15.61 21.486 15.83 21.306 16.27C21.126 16.69 20.926 17.16 20.706 17.68C20.506 18.18 20.306 18.65 20.106 19.09C19.926 19.51 19.806 19.72 19.746 19.72C19.386 19.72 19.076 19.57 18.816 19.27C18.576 18.95 18.376 18.59 18.216 18.19C18.076 17.77 17.966 17.35 17.886 16.93C17.806 16.49 17.756 16.15 17.736 15.91C17.676 15.37 17.546 14.47 17.346 13.21C17.146 11.95 16.976 10.42 16.836 8.62C16.796 8.24 16.746 7.9 16.686 7.6C16.646 7.28 16.596 6.93 16.536 6.55C16.476 6.17 16.426 5.74 16.386 5.26C16.346 4.78 16.326 4.19 16.326 3.49C16.326 3.45 16.336 3.32 16.356 3.1C16.376 2.88 16.406 2.64 16.446 2.38C16.486 2.12 16.546 1.89 16.626 1.69C16.726 1.49 16.836 1.39 16.956 1.39C17.096 1.39 17.226 1.48 17.346 1.66C17.466 1.82 17.566 2.01 17.646 2.23C17.746 2.45 17.816 2.66 17.856 2.86C17.896 3.06 17.916 3.2 17.916 3.28C17.916 3.58 17.896 3.86 17.856 4.12C17.816 4.38 17.796 4.62 17.796 4.84C17.796 5.14 17.816 5.52 17.856 5.98C17.916 6.44 17.986 6.91 18.066 7.39C18.146 7.87 18.216 8.34 18.276 8.8C18.336 9.24 18.386 9.6 18.426 9.88C18.426 9.9 18.446 10.04 18.486 10.3C18.526 10.56 18.566 10.89 18.606 11.29C18.666 11.67 18.716 12.09 18.756 12.55C18.816 12.99 18.876 13.43 18.936 13.87C18.996 14.29 19.046 14.67 19.086 15.01C19.146 15.33 19.186 15.56 19.206 15.7C19.206 15.76 19.216 15.85 19.236 15.97C19.276 16.07 19.306 16.19 19.326 16.33C19.366 16.47 19.406 16.6 19.446 16.72C19.486 16.84 19.536 16.93 19.596 16.99C19.716 16.75 19.866 16.38 20.046 15.88C20.246 15.38 20.446 14.87 20.646 14.35C20.866 13.83 21.066 13.38 21.246 13C21.446 12.6 21.616 12.4 21.756 12.4C21.916 12.4 22.046 12.43 22.146 12.49C22.246 12.55 22.376 12.6 22.536 12.64C22.736 12.72 22.836 12.83 22.836 12.97C22.836 13.09 22.856 13.24 22.896 13.42C22.936 13.66 22.996 13.98 23.076 14.38C23.176 14.76 23.286 15.14 23.406 15.52C23.526 15.88 23.666 16.19 23.826 16.45C23.986 16.71 24.146 16.84 24.306 16.84C24.386 16.84 24.496 16.74 24.636 16.54C24.776 16.32 24.966 16.2 25.206 16.18C25.246 16.18 25.316 16.21 25.416 16.27C25.516 16.31 25.616 16.37 25.716 16.45ZM32.9997 15.52C32.9997 15.96 32.9397 16.38 32.8197 16.78C32.6997 17.18 32.5397 17.53 32.3397 17.83C32.1397 18.13 31.8997 18.37 31.6197 18.55C31.3597 18.71 31.0697 18.79 30.7497 18.79C30.1897 18.79 29.7497 18.63 29.4297 18.31C29.1097 17.99 28.8597 17.62 28.6797 17.2C28.5197 16.78 28.4097 16.36 28.3497 15.94C28.3097 15.5 28.2897 15.17 28.2897 14.95C28.2897 14.59 28.3397 14.19 28.4397 13.75C28.5597 13.29 28.7097 12.87 28.8897 12.49C29.0897 12.11 29.3097 11.79 29.5497 11.53C29.7897 11.27 30.0397 11.14 30.2997 11.14C30.3597 11.14 30.4497 11.16 30.5697 11.2C30.7097 11.24 30.8497 11.3 30.9897 11.38C31.1297 11.46 31.2497 11.56 31.3497 11.68C31.4697 11.8 31.5497 11.94 31.5897 12.1C31.8097 12.12 32.0297 12.2 32.2497 12.34C32.4697 12.48 32.5897 12.59 32.6097 12.67C32.7697 13.19 32.8697 13.71 32.9097 14.23C32.9697 14.75 32.9997 15.18 32.9997 15.52ZM31.6497 14.98C31.6497 14.68 31.6197 14.37 31.5597 14.05C31.4997 13.71 31.3797 13.37 31.1997 13.03C31.1597 13.05 31.1097 13.06 31.0497 13.06C30.9697 13.06 30.8997 13.05 30.8397 13.03C30.7997 13.01 30.7597 13 30.7197 13C30.4797 13 30.2897 13.07 30.1497 13.21C30.0097 13.33 29.8997 13.5 29.8197 13.72C29.7597 13.92 29.7197 14.14 29.6997 14.38C29.6797 14.62 29.6697 14.85 29.6697 15.07C29.6697 15.29 29.6797 15.54 29.6997 15.82C29.7197 16.08 29.7597 16.33 29.8197 16.57C29.8997 16.81 29.9997 17.02 30.1197 17.2C30.2397 17.36 30.3997 17.44 30.5997 17.44C30.7997 17.44 30.9697 17.34 31.1097 17.14C31.2497 16.92 31.3597 16.67 31.4397 16.39C31.5197 16.11 31.5697 15.84 31.5897 15.58C31.6297 15.3 31.6497 15.1 31.6497 14.98ZM37.8079 8.2C37.8079 8.24 37.7379 8.32 37.5979 8.44C37.4579 8.56 37.2879 8.69 37.0879 8.83C36.9079 8.95 36.7179 9.06 36.5179 9.16C36.3179 9.26 36.1579 9.31 36.0379 9.31C35.9579 9.31 35.8479 9.31 35.7079 9.31C35.5879 9.29 35.4579 9.25 35.3179 9.19C35.1979 9.13 35.0879 9.05 34.9879 8.95C34.8879 8.83 34.8379 8.68 34.8379 8.5C34.8379 8.22 34.9379 7.96 35.1379 7.72C35.3379 7.46 35.5979 7.33 35.9179 7.33C35.9779 7.33 36.1079 7.36 36.3079 7.42C36.5279 7.46 36.7479 7.52 36.9679 7.6C37.1879 7.68 37.3779 7.77 37.5379 7.87C37.7179 7.97 37.8079 8.08 37.8079 8.2ZM38.7979 19.42C38.7979 19.56 38.6879 19.68 38.4679 19.78C38.2679 19.88 38.1179 19.93 38.0179 19.93C37.8179 19.93 37.6379 19.8 37.4779 19.54C37.3179 19.28 37.1779 18.98 37.0579 18.64C36.9379 18.3 36.8379 17.98 36.7579 17.68C36.6779 17.36 36.6179 17.14 36.5779 17.02C36.5179 16.82 36.4379 16.58 36.3379 16.3C36.2379 16.02 36.1379 15.75 36.0379 15.49C35.9579 15.23 35.8879 15 35.8279 14.8C35.7679 14.6 35.7379 14.49 35.7379 14.47C35.7379 14.19 35.7879 13.93 35.8879 13.69C36.0079 13.45 36.1479 13.33 36.3079 13.33C36.4879 13.33 36.6779 13.47 36.8779 13.75C37.0779 14.03 37.2679 14.39 37.4479 14.83C37.6479 15.25 37.8279 15.72 37.9879 16.24C38.1479 16.74 38.2879 17.22 38.4079 17.68C38.5279 18.12 38.6179 18.51 38.6779 18.85C38.7579 19.17 38.7979 19.36 38.7979 19.42ZM47.4461 18.04C47.4461 18.38 47.3261 18.68 47.0861 18.94C46.8661 19.18 46.5761 19.39 46.2161 19.57C45.8761 19.73 45.4961 19.86 45.0761 19.96C44.6561 20.06 44.2561 20.14 43.8761 20.2C43.4961 20.24 43.1561 20.27 42.8561 20.29C42.5761 20.29 42.3961 20.29 42.3161 20.29C41.8761 20.29 41.5361 20.22 41.2961 20.08C41.0561 19.94 40.9361 19.69 40.9361 19.33C40.9361 19.21 40.9461 19.11 40.9661 19.03C40.9861 18.93 41.0661 18.88 41.2061 18.88C41.2661 18.88 41.3661 18.9 41.5061 18.94C41.6461 18.96 41.7561 18.97 41.8361 18.97C41.9161 18.97 42.1661 18.96 42.5861 18.94C43.0261 18.9 43.4861 18.84 43.9661 18.76C44.4661 18.68 44.9061 18.57 45.2861 18.43C45.6861 18.27 45.8861 18.07 45.8861 17.83C45.8861 17.79 45.6761 17.67 45.2561 17.47C44.8561 17.25 44.2461 16.89 43.4261 16.39C42.7861 15.99 42.3361 15.59 42.0761 15.19C41.8161 14.77 41.6861 14.21 41.6861 13.51C41.6861 13.07 41.7761 12.71 41.9561 12.43C42.1561 12.15 42.4161 11.93 42.7361 11.77C43.0761 11.61 43.4561 11.5 43.8761 11.44C44.3161 11.36 44.7761 11.32 45.2561 11.32C45.2961 11.32 45.4161 11.34 45.6161 11.38C45.8361 11.42 46.0661 11.49 46.3061 11.59C46.5461 11.67 46.7561 11.78 46.9361 11.92C47.1361 12.04 47.2361 12.18 47.2361 12.34C47.2361 12.38 47.1961 12.44 47.1161 12.52C47.0561 12.6 46.9461 12.75 46.7861 12.97C46.7261 12.95 46.6161 12.92 46.4561 12.88C46.3161 12.84 46.1461 12.8 45.9461 12.76C45.7661 12.7 45.5761 12.66 45.3761 12.64C45.1761 12.6 45.0161 12.58 44.8961 12.58C44.3761 12.58 43.9561 12.68 43.6361 12.88C43.3161 13.06 43.1561 13.42 43.1561 13.96C43.1561 14.22 43.2561 14.46 43.4561 14.68C43.6761 14.9 43.9461 15.11 44.2661 15.31C44.5861 15.49 44.9261 15.68 45.2861 15.88C45.6661 16.06 46.0161 16.26 46.3361 16.48C46.6561 16.7 46.9161 16.94 47.1161 17.2C47.3361 17.44 47.4461 17.72 47.4461 18.04ZM51.7825 8.2C51.7825 8.24 51.7125 8.32 51.5725 8.44C51.4325 8.56 51.2625 8.69 51.0625 8.83C50.8825 8.95 50.6925 9.06 50.4925 9.16C50.2925 9.26 50.1325 9.31 50.0125 9.31C49.9325 9.31 49.8225 9.31 49.6825 9.31C49.5625 9.29 49.4325 9.25 49.2925 9.19C49.1725 9.13 49.0625 9.05 48.9625 8.95C48.8625 8.83 48.8125 8.68 48.8125 8.5C48.8125 8.22 48.9125 7.96 49.1125 7.72C49.3125 7.46 49.5725 7.33 49.8925 7.33C49.9525 7.33 50.0825 7.36 50.2825 7.42C50.5025 7.46 50.7225 7.52 50.9425 7.6C51.1625 7.68 51.3525 7.77 51.5125 7.87C51.6925 7.97 51.7825 8.08 51.7825 8.2ZM52.7725 19.42C52.7725 19.56 52.6625 19.68 52.4425 19.78C52.2425 19.88 52.0925 19.93 51.9925 19.93C51.7925 19.93 51.6125 19.8 51.4525 19.54C51.2925 19.28 51.1525 18.98 51.0325 18.64C50.9125 18.3 50.8125 17.98 50.7325 17.68C50.6525 17.36 50.5925 17.14 50.5525 17.02C50.4925 16.82 50.4125 16.58 50.3125 16.3C50.2125 16.02 50.1125 15.75 50.0125 15.49C49.9325 15.23 49.8625 15 49.8025 14.8C49.7425 14.6 49.7125 14.49 49.7125 14.47C49.7125 14.19 49.7625 13.93 49.8625 13.69C49.9825 13.45 50.1225 13.33 50.2825 13.33C50.4625 13.33 50.6525 13.47 50.8525 13.75C51.0525 14.03 51.2425 14.39 51.4225 14.83C51.6225 15.25 51.8025 15.72 51.9625 16.24C52.1225 16.74 52.2625 17.22 52.3825 17.68C52.5025 18.12 52.5925 18.51 52.6525 18.85C52.7325 19.17 52.7725 19.36 52.7725 19.42ZM75.0426 8.44C74.7826 8.74 74.4126 9.04 73.9326 9.34C73.4526 9.62 72.9726 9.88 72.4926 10.12C72.0126 10.36 71.5926 10.57 71.2326 10.75C70.8726 10.91 70.6926 11.02 70.6926 11.08C70.6926 11.14 70.7326 11.32 70.8126 11.62C70.8926 11.92 70.9826 12.28 71.0826 12.7C71.2026 13.1 71.3226 13.52 71.4426 13.96C71.5626 14.4 71.6626 14.79 71.7426 15.13C71.7826 15.33 71.8326 15.59 71.8926 15.91C71.9526 16.23 72.0026 16.55 72.0426 16.87C72.1026 17.19 72.1526 17.48 72.1926 17.74C72.2326 17.98 72.2526 18.11 72.2526 18.13C72.2526 18.43 72.2026 18.74 72.1026 19.06C72.0026 19.38 71.8426 19.54 71.6226 19.54C71.5026 19.54 71.3926 19.49 71.2926 19.39C71.1926 19.29 71.1026 19.18 71.0226 19.06C70.9426 18.92 70.8826 18.79 70.8426 18.67C70.8026 18.55 70.7826 18.46 70.7826 18.4C70.7826 18.36 70.7826 18.3 70.7826 18.22C70.8026 18.14 70.8126 18.05 70.8126 17.95C70.8126 17.57 70.7526 17.02 70.6326 16.3C70.5926 16.08 70.5126 15.74 70.3926 15.28C70.2726 14.82 70.1526 14.35 70.0326 13.87C69.8926 13.31 69.7326 12.7 69.5526 12.04C69.4726 11.76 69.4226 11.62 69.4026 11.62C69.2626 11.62 69.0226 11.71 68.6826 11.89C68.3626 12.05 67.9926 12.26 67.5726 12.52C67.1526 12.76 66.7126 13.03 66.2526 13.33C65.7926 13.61 65.3626 13.88 64.9626 14.14C64.5626 14.38 64.2226 14.59 63.9426 14.77C63.6426 14.93 63.4626 15.01 63.4026 15.01C63.1426 15.01 62.9326 14.92 62.7726 14.74C62.6126 14.56 62.5326 14.36 62.5326 14.14C62.5326 14.02 62.7026 13.85 63.0426 13.63C63.3626 13.39 63.7726 13.13 64.2726 12.85C64.7526 12.57 65.2826 12.28 65.8626 11.98C66.4226 11.68 66.9426 11.41 67.4226 11.17C67.9226 10.93 68.3326 10.73 68.6526 10.57C68.9926 10.41 69.1626 10.33 69.1626 10.33C68.9826 9.41 68.8326 8.59 68.7126 7.87C68.6126 7.25 68.5126 6.68 68.4126 6.16C68.3326 5.64 68.2926 5.36 68.2926 5.32C68.2926 5.06 68.3426 4.87 68.4426 4.75C68.5626 4.61 68.6926 4.54 68.8326 4.54C69.0526 4.54 69.1926 4.69 69.2526 4.99C69.4726 6.07 69.6726 7.03 69.8526 7.87C70.0526 8.71 70.2426 9.39 70.4226 9.91C70.6026 9.87 70.9126 9.76 71.3526 9.58C71.7926 9.38 72.2526 9.17 72.7326 8.95C73.2126 8.73 73.6426 8.54 74.0226 8.38C74.4226 8.2 74.6526 8.11 74.7126 8.11C74.8326 8.11 74.9026 8.15 74.9226 8.23C74.9626 8.31 75.0026 8.38 75.0426 8.44ZM82.0427 15.52C82.0427 15.96 81.9827 16.38 81.8627 16.78C81.7427 17.18 81.5827 17.53 81.3827 17.83C81.1827 18.13 80.9427 18.37 80.6627 18.55C80.4027 18.71 80.1127 18.79 79.7927 18.79C79.2327 18.79 78.7927 18.63 78.4727 18.31C78.1527 17.99 77.9027 17.62 77.7227 17.2C77.5627 16.78 77.4527 16.36 77.3927 15.94C77.3527 15.5 77.3327 15.17 77.3327 14.95C77.3327 14.59 77.3827 14.19 77.4827 13.75C77.6027 13.29 77.7527 12.87 77.9327 12.49C78.1327 12.11 78.3527 11.79 78.5927 11.53C78.8327 11.27 79.0827 11.14 79.3427 11.14C79.4027 11.14 79.4927 11.16 79.6127 11.2C79.7527 11.24 79.8927 11.3 80.0327 11.38C80.1727 11.46 80.2927 11.56 80.3927 11.68C80.5127 11.8 80.5927 11.94 80.6327 12.1C80.8527 12.12 81.0727 12.2 81.2927 12.34C81.5127 12.48 81.6327 12.59 81.6527 12.67C81.8127 13.19 81.9127 13.71 81.9527 14.23C82.0127 14.75 82.0427 15.18 82.0427 15.52ZM80.6927 14.98C80.6927 14.68 80.6627 14.37 80.6027 14.05C80.5427 13.71 80.4227 13.37 80.2427 13.03C80.2027 13.05 80.1527 13.06 80.0927 13.06C80.0127 13.06 79.9427 13.05 79.8827 13.03C79.8427 13.01 79.8027 13 79.7627 13C79.5227 13 79.3327 13.07 79.1927 13.21C79.0527 13.33 78.9427 13.5 78.8627 13.72C78.8027 13.92 78.7627 14.14 78.7427 14.38C78.7227 14.62 78.7127 14.85 78.7127 15.07C78.7127 15.29 78.7227 15.54 78.7427 15.82C78.7627 16.08 78.8027 16.33 78.8627 16.57C78.9427 16.81 79.0427 17.02 79.1627 17.2C79.2827 17.36 79.4427 17.44 79.6427 17.44C79.8427 17.44 80.0127 17.34 80.1527 17.14C80.2927 16.92 80.4027 16.67 80.4827 16.39C80.5627 16.11 80.6127 15.84 80.6327 15.58C80.6727 15.3 80.6927 15.1 80.6927 14.98ZM94.0809 18.31C94.0809 18.43 94.0409 18.55 93.9609 18.67C93.8809 18.79 93.7809 18.9 93.6609 19C93.5609 19.1 93.4409 19.19 93.3009 19.27C93.1809 19.33 93.0709 19.36 92.9709 19.36C92.6309 19.36 92.1909 19.29 91.6509 19.15C91.1309 18.99 90.7109 18.75 90.3909 18.43C90.0509 18.09 89.7509 17.69 89.4909 17.23C89.2309 16.75 88.9409 16.05 88.6209 15.13C88.4009 16.01 88.1409 16.88 87.8409 17.74C87.5609 18.6 87.1009 19.39 86.4609 20.11C86.4209 20.15 86.3609 20.17 86.2809 20.17C86.1409 20.17 85.9909 20.1 85.8309 19.96C85.6709 19.82 85.5909 19.68 85.5909 19.54C85.5909 19.4 85.5709 19.08 85.5309 18.58C85.5109 18.06 85.4809 17.49 85.4409 16.87C85.4009 16.23 85.3609 15.59 85.3209 14.95C85.3009 14.29 85.2909 13.75 85.2909 13.33C85.2909 13.13 85.3009 12.87 85.3209 12.55C85.3409 12.21 85.4009 11.92 85.5009 11.68C85.5209 11.64 85.5909 11.56 85.7109 11.44C85.8509 11.32 86.0009 11.26 86.1609 11.26C86.3009 11.26 86.3809 11.35 86.4009 11.53C86.4209 11.71 86.4309 11.91 86.4309 12.13V16.87C86.4309 16.97 86.4409 17.11 86.4609 17.29C86.5009 17.47 86.5509 17.6 86.6109 17.68C86.8309 17.2 87.0309 16.64 87.2109 16C87.4109 15.34 87.6009 14.72 87.7809 14.14C87.9609 13.54 88.1409 13.04 88.3209 12.64C88.5009 12.22 88.6809 12.01 88.8609 12.01C89.0609 12.01 89.2209 12.05 89.3409 12.13C89.4609 12.21 89.5609 12.37 89.6409 12.61C89.7409 13.19 89.8209 13.71 89.8809 14.17C89.9409 14.61 90.0109 15.01 90.0909 15.37C90.1909 15.73 90.3209 16.07 90.4809 16.39C90.6609 16.69 90.9009 16.97 91.2009 17.23C91.4809 17.49 91.7909 17.68 92.1309 17.8C92.4909 17.92 92.8009 17.98 93.0609 17.98C93.1809 17.98 93.3109 17.96 93.4509 17.92C93.5909 17.86 93.6909 17.83 93.7509 17.83C93.8309 17.83 93.9009 17.9 93.9609 18.04C94.0409 18.18 94.0809 18.27 94.0809 18.31ZM116.69 16.54C116.69 16.74 116.66 16.95 116.6 17.17C116.54 17.37 116.48 17.54 116.42 17.68C116.38 17.74 116.19 17.95 115.85 18.31C115.53 18.65 115.12 19.01 114.62 19.39C114.14 19.77 113.59 20.12 112.97 20.44C112.37 20.74 111.79 20.89 111.23 20.89C110.89 20.89 110.54 20.83 110.18 20.71C109.84 20.59 109.52 20.4 109.22 20.14C108.92 19.86 108.67 19.52 108.47 19.12C108.29 18.72 108.2 18.23 108.2 17.65C108.2 16.69 108.36 15.82 108.68 15.04C109 14.26 109.32 13.64 109.64 13.18C109.78 12.96 109.96 12.74 110.18 12.52C110.42 12.28 110.65 12.07 110.87 11.89C111.09 11.69 111.29 11.53 111.47 11.41C111.67 11.29 111.81 11.23 111.89 11.23C112.07 11.23 112.23 11.28 112.37 11.38C112.53 11.48 112.61 11.58 112.61 11.68C112.61 11.84 112.56 11.98 112.46 12.1C112.38 12.2 112.26 12.32 112.1 12.46C111.94 12.58 111.75 12.75 111.53 12.97C111.31 13.17 111.08 13.44 110.84 13.78C110.36 14.44 110 15.12 109.76 15.82C109.54 16.5 109.43 17.1 109.43 17.62C109.43 18.14 109.62 18.56 110 18.88C110.4 19.18 110.81 19.33 111.23 19.33C111.99 19.33 112.66 19.16 113.24 18.82C113.84 18.48 114.35 18.1 114.77 17.68C115.19 17.26 115.53 16.88 115.79 16.54C116.05 16.2 116.24 16.03 116.36 16.03C116.58 16.03 116.69 16.2 116.69 16.54ZM133.345 15.76C133.345 16.12 133.175 16.57 132.835 17.11C132.515 17.63 132.075 18.14 131.515 18.64C130.955 19.14 130.305 19.57 129.565 19.93C128.825 20.27 128.055 20.44 127.255 20.44C126.895 20.44 126.515 20.38 126.115 20.26C125.715 20.14 125.325 19.97 124.945 19.75C124.565 19.51 124.225 19.23 123.925 18.91C123.625 18.57 123.405 18.19 123.265 17.77C123.145 17.89 122.995 18.09 122.815 18.37C122.655 18.65 122.475 18.94 122.275 19.24C122.075 19.52 121.855 19.77 121.615 19.99C121.375 20.19 121.125 20.29 120.865 20.29C120.605 20.29 120.385 20.16 120.205 19.9C120.045 19.62 119.915 19.32 119.815 19C119.715 18.66 119.645 18.34 119.605 18.04C119.565 17.74 119.545 17.57 119.545 17.53C119.545 17.29 119.615 16.84 119.755 16.18C119.895 15.5 120.105 14.8 120.385 14.08C120.665 13.36 121.015 12.72 121.435 12.16C121.875 11.6 122.385 11.32 122.965 11.32C123.185 11.32 123.325 11.42 123.385 11.62C123.465 11.8 123.505 11.98 123.505 12.16V13.06C123.605 13.14 123.705 13.2 123.805 13.24C123.925 13.26 124.025 13.3 124.105 13.36C124.205 13.4 124.275 13.47 124.315 13.57C124.375 13.67 124.405 13.83 124.405 14.05C124.405 14.19 124.395 14.32 124.375 14.44C124.355 14.54 124.345 14.64 124.345 14.74C124.345 15.26 124.385 15.77 124.465 16.27C124.545 16.77 124.705 17.22 124.945 17.62C125.185 18 125.515 18.32 125.935 18.58C126.355 18.82 126.915 18.94 127.615 18.94C128.495 18.94 129.235 18.76 129.835 18.4C130.455 18.02 130.965 17.61 131.365 17.17C131.785 16.71 132.115 16.3 132.355 15.94C132.595 15.56 132.795 15.37 132.955 15.37C133.215 15.37 133.345 15.5 133.345 15.76ZM122.815 14.44C122.815 14.36 122.795 14.29 122.755 14.23C122.715 14.15 122.695 14.08 122.695 14.02C122.695 13.94 122.715 13.87 122.755 13.81C122.795 13.75 122.815 13.67 122.815 13.57C122.815 13.51 122.795 13.47 122.755 13.45C122.715 13.41 122.695 13.37 122.695 13.33C122.515 13.37 122.325 13.54 122.125 13.84C121.945 14.14 121.765 14.49 121.585 14.89C121.425 15.29 121.295 15.7 121.195 16.12C121.095 16.52 121.045 16.85 121.045 17.11C121.045 17.25 121.085 17.48 121.165 17.8C121.245 18.12 121.335 18.33 121.435 18.43C121.775 17.73 122.085 17.05 122.365 16.39C122.665 15.73 122.815 15.08 122.815 14.44ZM142.714 18.31C142.714 18.43 142.674 18.55 142.594 18.67C142.514 18.79 142.414 18.9 142.294 19C142.194 19.1 142.074 19.19 141.934 19.27C141.814 19.33 141.704 19.36 141.604 19.36C141.264 19.36 140.824 19.29 140.284 19.15C139.764 18.99 139.344 18.75 139.024 18.43C138.684 18.09 138.384 17.69 138.124 17.23C137.864 16.75 137.574 16.05 137.254 15.13C137.034 16.01 136.774 16.88 136.474 17.74C136.194 18.6 135.734 19.39 135.094 20.11C135.054 20.15 134.994 20.17 134.914 20.17C134.774 20.17 134.624 20.1 134.464 19.96C134.304 19.82 134.224 19.68 134.224 19.54C134.224 19.4 134.204 19.08 134.164 18.58C134.144 18.06 134.114 17.49 134.074 16.87C134.034 16.23 133.994 15.59 133.954 14.95C133.934 14.29 133.924 13.75 133.924 13.33C133.924 13.13 133.934 12.87 133.954 12.55C133.974 12.21 134.034 11.92 134.134 11.68C134.154 11.64 134.224 11.56 134.344 11.44C134.484 11.32 134.634 11.26 134.794 11.26C134.934 11.26 135.014 11.35 135.034 11.53C135.054 11.71 135.064 11.91 135.064 12.13V16.87C135.064 16.97 135.074 17.11 135.094 17.29C135.134 17.47 135.184 17.6 135.244 17.68C135.464 17.2 135.664 16.64 135.844 16C136.044 15.34 136.234 14.72 136.414 14.14C136.594 13.54 136.774 13.04 136.954 12.64C137.134 12.22 137.314 12.01 137.494 12.01C137.694 12.01 137.854 12.05 137.974 12.13C138.094 12.21 138.194 12.37 138.274 12.61C138.374 13.19 138.454 13.71 138.514 14.17C138.574 14.61 138.644 15.01 138.724 15.37C138.824 15.73 138.954 16.07 139.114 16.39C139.294 16.69 139.534 16.97 139.834 17.23C140.114 17.49 140.424 17.68 140.764 17.8C141.124 17.92 141.434 17.98 141.694 17.98C141.814 17.98 141.944 17.96 142.084 17.92C142.224 17.86 142.324 17.83 142.384 17.83C142.464 17.83 142.534 17.9 142.594 18.04C142.674 18.18 142.714 18.27 142.714 18.31ZM152.751 17.17C152.751 17.27 152.701 17.37 152.601 17.47C152.521 17.55 152.471 17.64 152.451 17.74C152.451 17.96 152.491 18.17 152.571 18.37C152.671 18.57 152.721 18.81 152.721 19.09C152.721 19.35 152.641 19.48 152.481 19.48C152.281 19.48 152.131 19.51 152.031 19.57C151.951 19.61 151.801 19.65 151.581 19.69C151.461 19.69 151.331 19.58 151.191 19.36C151.111 19.26 151.041 19.14 150.981 19C150.981 18.98 150.921 19.02 150.801 19.12C150.701 19.22 150.521 19.34 150.261 19.48C150.021 19.6 149.681 19.72 149.241 19.84C148.821 19.94 148.281 19.99 147.621 19.99C147.061 19.99 146.571 19.87 146.151 19.63C145.731 19.37 145.381 19.04 145.101 18.64C144.841 18.24 144.641 17.79 144.501 17.29C144.381 16.77 144.321 16.25 144.321 15.73C144.321 15.25 144.371 14.8 144.471 14.38C144.591 13.94 144.751 13.56 144.951 13.24C145.151 12.9 145.401 12.63 145.701 12.43C146.001 12.23 146.351 12.13 146.751 12.13C147.131 12.13 147.511 12.25 147.891 12.49C148.271 12.73 148.611 12.99 148.911 13.27C149.211 13.55 149.451 13.81 149.631 14.05C149.831 14.27 149.931 14.38 149.931 14.38C149.651 12.82 149.401 11.41 149.181 10.15C149.081 9.61 148.981 9.08 148.881 8.56C148.801 8.02 148.721 7.54 148.641 7.12C148.561 6.7 148.491 6.35 148.431 6.07C148.391 5.77 148.371 5.59 148.371 5.53C148.351 5.41 148.331 5.2 148.311 4.9C148.291 4.58 148.271 4.25 148.251 3.91C148.231 3.57 148.211 3.26 148.191 2.98C148.171 2.7 148.151 2.52 148.131 2.44C148.071 2.24 147.991 1.99 147.891 1.69C147.811 1.39 147.771 1.22 147.771 1.18C147.771 1.08 147.821 0.959998 147.921 0.819999C148.021 0.659999 148.151 0.579999 148.311 0.579999C148.431 0.579999 148.541 0.589998 148.641 0.609998C148.741 0.629999 148.831 0.69 148.911 0.789999C148.991 0.889999 149.061 1.05 149.121 1.27C149.201 1.47 149.271 1.76 149.331 2.14C149.351 2.34 149.411 2.72 149.511 3.28C149.611 3.84 149.711 4.45 149.811 5.11C149.911 5.77 150.011 6.4 150.111 7C150.211 7.6 150.281 8.04 150.321 8.32C150.421 9.08 150.551 9.91 150.711 10.81C150.891 11.69 151.071 12.54 151.251 13.36C151.431 14.18 151.611 14.91 151.791 15.55C151.971 16.17 152.131 16.59 152.271 16.81C152.311 16.89 152.391 16.95 152.511 16.99C152.631 17.01 152.711 17.07 152.751 17.17ZM150.531 17.77C150.511 17.71 150.381 17.46 150.141 17.02C149.921 16.56 149.631 16.07 149.271 15.55C148.931 15.01 148.541 14.53 148.101 14.11C147.681 13.69 147.271 13.48 146.871 13.48C146.531 13.48 146.251 13.74 146.031 14.26C145.831 14.78 145.731 15.38 145.731 16.06C145.731 16.82 145.951 17.43 146.391 17.89C146.851 18.35 147.361 18.58 147.921 18.58C148.401 18.58 148.901 18.5 149.421 18.34C149.941 18.18 150.311 17.99 150.531 17.77ZM156.841 8.2C156.841 8.24 156.771 8.32 156.631 8.44C156.491 8.56 156.321 8.69 156.121 8.83C155.941 8.95 155.751 9.06 155.551 9.16C155.351 9.26 155.191 9.31 155.071 9.31C154.991 9.31 154.881 9.31 154.741 9.31C154.621 9.29 154.491 9.25 154.351 9.19C154.231 9.13 154.121 9.05 154.021 8.95C153.921 8.83 153.871 8.68 153.871 8.5C153.871 8.22 153.971 7.96 154.171 7.72C154.371 7.46 154.631 7.33 154.951 7.33C155.011 7.33 155.141 7.36 155.341 7.42C155.561 7.46 155.781 7.52 156.001 7.6C156.221 7.68 156.411 7.77 156.571 7.87C156.751 7.97 156.841 8.08 156.841 8.2ZM157.831 19.42C157.831 19.56 157.721 19.68 157.501 19.78C157.301 19.88 157.151 19.93 157.051 19.93C156.851 19.93 156.671 19.8 156.511 19.54C156.351 19.28 156.211 18.98 156.091 18.64C155.971 18.3 155.871 17.98 155.791 17.68C155.711 17.36 155.651 17.14 155.611 17.02C155.551 16.82 155.471 16.58 155.371 16.3C155.271 16.02 155.171 15.75 155.071 15.49C154.991 15.23 154.921 15 154.861 14.8C154.801 14.6 154.771 14.49 154.771 14.47C154.771 14.19 154.821 13.93 154.921 13.69C155.041 13.45 155.181 13.33 155.341 13.33C155.521 13.33 155.711 13.47 155.911 13.75C156.111 14.03 156.301 14.39 156.481 14.83C156.681 15.25 156.861 15.72 157.021 16.24C157.181 16.74 157.321 17.22 157.441 17.68C157.561 18.12 157.651 18.51 157.711 18.85C157.791 19.17 157.831 19.36 157.831 19.42ZM168.219 17.17C168.219 17.27 168.169 17.37 168.069 17.47C167.989 17.55 167.939 17.64 167.919 17.74C167.919 17.96 167.959 18.17 168.039 18.37C168.139 18.57 168.189 18.81 168.189 19.09C168.189 19.35 168.109 19.48 167.949 19.48C167.749 19.48 167.599 19.51 167.499 19.57C167.419 19.61 167.269 19.65 167.049 19.69C166.929 19.69 166.799 19.58 166.659 19.36C166.579 19.26 166.509 19.14 166.449 19C166.449 18.98 166.389 19.02 166.269 19.12C166.169 19.22 165.989 19.34 165.729 19.48C165.489 19.6 165.149 19.72 164.709 19.84C164.289 19.94 163.749 19.99 163.089 19.99C162.529 19.99 162.039 19.87 161.619 19.63C161.199 19.37 160.849 19.04 160.569 18.64C160.309 18.24 160.109 17.79 159.969 17.29C159.849 16.77 159.789 16.25 159.789 15.73C159.789 15.25 159.839 14.8 159.939 14.38C160.059 13.94 160.219 13.56 160.419 13.24C160.619 12.9 160.869 12.63 161.169 12.43C161.469 12.23 161.819 12.13 162.219 12.13C162.599 12.13 162.979 12.25 163.359 12.49C163.739 12.73 164.079 12.99 164.379 13.27C164.679 13.55 164.919 13.81 165.099 14.05C165.299 14.27 165.399 14.38 165.399 14.38C165.119 12.82 164.869 11.41 164.649 10.15C164.549 9.61 164.449 9.08 164.349 8.56C164.269 8.02 164.189 7.54 164.109 7.12C164.029 6.7 163.959 6.35 163.899 6.07C163.859 5.77 163.839 5.59 163.839 5.53C163.819 5.41 163.799 5.2 163.779 4.9C163.759 4.58 163.739 4.25 163.719 3.91C163.699 3.57 163.679 3.26 163.659 2.98C163.639 2.7 163.619 2.52 163.599 2.44C163.539 2.24 163.459 1.99 163.359 1.69C163.279 1.39 163.239 1.22 163.239 1.18C163.239 1.08 163.289 0.959998 163.389 0.819999C163.489 0.659999 163.619 0.579999 163.779 0.579999C163.899 0.579999 164.009 0.589998 164.109 0.609998C164.209 0.629999 164.299 0.69 164.379 0.789999C164.459 0.889999 164.529 1.05 164.589 1.27C164.669 1.47 164.739 1.76 164.799 2.14C164.819 2.34 164.879 2.72 164.979 3.28C165.079 3.84 165.179 4.45 165.279 5.11C165.379 5.77 165.479 6.4 165.579 7C165.679 7.6 165.749 8.04 165.789 8.32C165.889 9.08 166.019 9.91 166.179 10.81C166.359 11.69 166.539 12.54 166.719 13.36C166.899 14.18 167.079 14.91 167.259 15.55C167.439 16.17 167.599 16.59 167.739 16.81C167.779 16.89 167.859 16.95 167.979 16.99C168.099 17.01 168.179 17.07 168.219 17.17ZM165.999 17.77C165.979 17.71 165.849 17.46 165.609 17.02C165.389 16.56 165.099 16.07 164.739 15.55C164.399 15.01 164.009 14.53 163.569 14.11C163.149 13.69 162.739 13.48 162.339 13.48C161.999 13.48 161.719 13.74 161.499 14.26C161.299 14.78 161.199 15.38 161.199 16.06C161.199 16.82 161.419 17.43 161.859 17.89C162.319 18.35 162.829 18.58 163.389 18.58C163.869 18.58 164.369 18.5 164.889 18.34C165.409 18.18 165.779 17.99 165.999 17.77ZM184.79 15.76C184.79 16.12 184.62 16.57 184.28 17.11C183.96 17.63 183.52 18.14 182.96 18.64C182.4 19.14 181.75 19.57 181.01 19.93C180.27 20.27 179.5 20.44 178.7 20.44C178.34 20.44 177.96 20.38 177.56 20.26C177.16 20.14 176.77 19.97 176.39 19.75C176.01 19.51 175.67 19.23 175.37 18.91C175.07 18.57 174.85 18.19 174.71 17.77C174.59 17.89 174.44 18.09 174.26 18.37C174.1 18.65 173.92 18.94 173.72 19.24C173.52 19.52 173.3 19.77 173.06 19.99C172.82 20.19 172.57 20.29 172.31 20.29C172.05 20.29 171.83 20.16 171.65 19.9C171.49 19.62 171.36 19.32 171.26 19C171.16 18.66 171.09 18.34 171.05 18.04C171.01 17.74 170.99 17.57 170.99 17.53C170.99 17.29 171.06 16.84 171.2 16.18C171.34 15.5 171.55 14.8 171.83 14.08C172.11 13.36 172.46 12.72 172.88 12.16C173.32 11.6 173.83 11.32 174.41 11.32C174.63 11.32 174.77 11.42 174.83 11.62C174.91 11.8 174.95 11.98 174.95 12.16V13.06C175.05 13.14 175.15 13.2 175.25 13.24C175.37 13.26 175.47 13.3 175.55 13.36C175.65 13.4 175.72 13.47 175.76 13.57C175.82 13.67 175.85 13.83 175.85 14.05C175.85 14.19 175.84 14.32 175.82 14.44C175.8 14.54 175.79 14.64 175.79 14.74C175.79 15.26 175.83 15.77 175.91 16.27C175.99 16.77 176.15 17.22 176.39 17.62C176.63 18 176.96 18.32 177.38 18.58C177.8 18.82 178.36 18.94 179.06 18.94C179.94 18.94 180.68 18.76 181.28 18.4C181.9 18.02 182.41 17.61 182.81 17.17C183.23 16.71 183.56 16.3 183.8 15.94C184.04 15.56 184.24 15.37 184.4 15.37C184.66 15.37 184.79 15.5 184.79 15.76ZM174.26 14.44C174.26 14.36 174.24 14.29 174.2 14.23C174.16 14.15 174.14 14.08 174.14 14.02C174.14 13.94 174.16 13.87 174.2 13.81C174.24 13.75 174.26 13.67 174.26 13.57C174.26 13.51 174.24 13.47 174.2 13.45C174.16 13.41 174.14 13.37 174.14 13.33C173.96 13.37 173.77 13.54 173.57 13.84C173.39 14.14 173.21 14.49 173.03 14.89C172.87 15.29 172.74 15.7 172.64 16.12C172.54 16.52 172.49 16.85 172.49 17.11C172.49 17.25 172.53 17.48 172.61 17.8C172.69 18.12 172.78 18.33 172.88 18.43C173.22 17.73 173.53 17.05 173.81 16.39C174.11 15.73 174.26 15.08 174.26 14.44ZM193.109 8.44C192.849 8.74 192.479 9.04 191.999 9.34C191.519 9.62 191.039 9.88 190.559 10.12C190.079 10.36 189.659 10.57 189.299 10.75C188.939 10.91 188.759 11.02 188.759 11.08C188.759 11.14 188.799 11.32 188.879 11.62C188.959 11.92 189.049 12.28 189.149 12.7C189.269 13.1 189.389 13.52 189.509 13.96C189.629 14.4 189.729 14.79 189.809 15.13C189.849 15.33 189.899 15.59 189.959 15.91C190.019 16.23 190.069 16.55 190.109 16.87C190.169 17.19 190.219 17.48 190.259 17.74C190.299 17.98 190.319 18.11 190.319 18.13C190.319 18.43 190.269 18.74 190.169 19.06C190.069 19.38 189.909 19.54 189.689 19.54C189.569 19.54 189.459 19.49 189.359 19.39C189.259 19.29 189.169 19.18 189.089 19.06C189.009 18.92 188.949 18.79 188.909 18.67C188.869 18.55 188.849 18.46 188.849 18.4C188.849 18.36 188.849 18.3 188.849 18.22C188.869 18.14 188.879 18.05 188.879 17.95C188.879 17.57 188.819 17.02 188.699 16.3C188.659 16.08 188.579 15.74 188.459 15.28C188.339 14.82 188.219 14.35 188.099 13.87C187.959 13.31 187.799 12.7 187.619 12.04C187.539 11.76 187.489 11.62 187.469 11.62C187.329 11.62 187.089 11.71 186.749 11.89C186.429 12.05 186.059 12.26 185.639 12.52C185.219 12.76 184.779 13.03 184.319 13.33C183.859 13.61 183.429 13.88 183.029 14.14C182.629 14.38 182.289 14.59 182.009 14.77C181.709 14.93 181.529 15.01 181.469 15.01C181.209 15.01 180.999 14.92 180.839 14.74C180.679 14.56 180.599 14.36 180.599 14.14C180.599 14.02 180.769 13.85 181.109 13.63C181.429 13.39 181.839 13.13 182.339 12.85C182.819 12.57 183.349 12.28 183.929 11.98C184.489 11.68 185.009 11.41 185.489 11.17C185.989 10.93 186.399 10.73 186.719 10.57C187.059 10.41 187.229 10.33 187.229 10.33C187.049 9.41 186.899 8.59 186.779 7.87C186.679 7.25 186.579 6.68 186.479 6.16C186.399 5.64 186.359 5.36 186.359 5.32C186.359 5.06 186.409 4.87 186.509 4.75C186.629 4.61 186.759 4.54 186.899 4.54C187.119 4.54 187.259 4.69 187.319 4.99C187.539 6.07 187.739 7.03 187.919 7.87C188.119 8.71 188.309 9.39 188.489 9.91C188.669 9.87 188.979 9.76 189.419 9.58C189.859 9.38 190.319 9.17 190.799 8.95C191.279 8.73 191.709 8.54 192.089 8.38C192.489 8.2 192.719 8.11 192.779 8.11C192.899 8.11 192.969 8.15 192.989 8.23C193.029 8.31 193.069 8.38 193.109 8.44ZM210.461 7.51C210.461 7.69 210.371 8.08 210.191 8.68C210.011 9.28 209.811 9.95 209.591 10.69C209.391 11.41 209.201 12.12 209.021 12.82C208.861 13.52 208.781 14.07 208.781 14.47C208.781 14.89 208.801 15.24 208.841 15.52C208.881 15.78 208.921 16 208.961 16.18C209.021 16.36 209.071 16.52 209.111 16.66C209.151 16.78 209.171 16.93 209.171 17.11C209.171 17.51 208.991 17.71 208.631 17.71C208.571 17.71 208.511 17.67 208.451 17.59C208.011 16.95 207.741 16.32 207.641 15.7C207.561 15.08 207.521 14.6 207.521 14.26C207.521 13.84 207.581 13.3 207.701 12.64C207.821 11.96 207.971 11.25 208.151 10.51C208.331 9.75 208.531 9 208.751 8.26C208.991 7.5 209.221 6.84 209.441 6.28C209.481 6.24 209.531 6.2 209.591 6.16C209.651 6.12 209.731 6.1 209.831 6.1C209.971 6.1 210.081 6.16 210.161 6.28C210.241 6.38 210.301 6.51 210.341 6.67C210.381 6.81 210.411 6.96 210.431 7.12C210.451 7.28 210.461 7.41 210.461 7.51ZM211.451 20.98C211.451 21.2 211.381 21.43 211.241 21.67C211.121 21.89 210.961 22 210.761 22C210.501 22 210.251 21.87 210.011 21.61C209.791 21.35 209.681 21.05 209.681 20.71C209.681 20.59 209.701 20.44 209.741 20.26C209.801 20.06 209.931 19.96 210.131 19.96C210.211 19.96 210.321 19.97 210.461 19.99C210.601 20.01 210.741 20.06 210.881 20.14C211.041 20.2 211.171 20.3 211.271 20.44C211.391 20.58 211.451 20.76 211.451 20.98Z" fill="#555555"/>
</svg>
