<svg width="181" height="28" viewBox="0 0 181 28" fill="none" xmlns="http://www.w3.org/2000/svg">
<path d="M9.92094 5.7L0.140939 5.7L0.140942 27L9.80094 27C16.9109 27 21.5309 24.09 21.5309 16.26C21.5309 8.85 16.7009 5.7 9.92094 5.7ZM7.64094 20.1L7.64094 12.6L9.77094 12.6C12.5009 12.6 13.7909 13.41 13.7909 16.26C13.7909 19.35 12.5009 20.1 9.77094 20.1L7.64094 20.1ZM35.8946 0.899992L35.2346 0.899992L28.1546 3.62999L28.1546 4.61999L35.8946 4.61999L35.8946 0.899992ZM22.9046 27L41.5046 27L41.5046 20.4L30.4046 20.4L30.4046 18.39L41.0246 18.39L41.0246 14.19L30.4046 14.19L30.4046 12.3L41.5046 12.3L41.5046 5.69999L22.9046 5.69999L22.9046 27ZM51.0638 5.69999L51.0638 15.69C51.0638 19.32 50.1938 20.28 46.9538 20.28C45.1538 20.28 43.4738 20.22 42.8738 20.13L42.8738 26.94C43.4738 27.09 45.5438 27.3 47.0138 27.3C55.3538 27.3 58.5638 25.08 58.5638 15.69L58.5638 5.69999L51.0638 5.69999ZM67.7881 0.959987L67.7881 4.67999L75.5281 4.67999L75.5281 3.68999L68.4481 0.959987L67.7881 0.959987ZM76.0681 27L84.0181 27L76.7881 5.69999L66.5581 5.69999L59.3281 27L67.3081 27L68.2681 23.76L75.1081 23.76L76.0681 27ZM71.6881 12.27L73.5181 18.39L69.8581 18.39L71.6881 12.27ZM102.361 20.43L98.2813 5.69998L90.0313 5.69998L97.2613 27L107.491 27L114.721 5.69998L106.441 5.69998L102.361 20.43ZM113.977 16.35C113.977 23.58 119.227 27.3 125.857 27.3C133.027 27.3 137.677 23.58 137.677 16.35C137.677 9.62997 132.877 5.39998 125.857 5.39998C119.227 5.39998 113.977 9.53998 113.977 16.35ZM121.657 16.35C121.657 13.86 123.337 12.21 125.857 12.21C128.437 12.21 130.027 13.89 130.027 16.35C130.027 18.96 128.467 20.49 125.857 20.49C123.337 20.49 121.657 18.93 121.657 16.35ZM138.356 12.66L145.796 12.66L145.796 27L153.296 27L153.296 12.66L160.736 12.66L160.736 5.69997L138.356 5.69997L138.356 12.66ZM175.26 0.899967L174.6 0.899967L167.52 3.62997L167.52 4.61997L175.26 4.61997L175.26 0.899967ZM162.27 27L180.87 27L180.87 20.4L169.77 20.4L169.77 18.39L180.39 18.39L180.39 14.19L169.77 14.19L169.77 12.3L180.87 12.3L180.87 5.69997L162.27 5.69997L162.27 27Z" fill="#989595"/>
</svg>
