<svg width="91" height="18" viewBox="0 0 91 18" fill="none" xmlns="http://www.w3.org/2000/svg">
<path d="M8.14 14.328C8.14 14.4307 8.096 14.5113 8.008 14.57C7.876 14.658 7.64867 14.7827 7.326 14.944C7.00333 15.1053 6.644 15.274 6.248 15.45C5.86667 15.626 5.46333 15.8093 5.038 16C4.61267 16.1907 4.224 16.3593 3.872 16.506C3.52 16.6527 3.21933 16.77 2.97 16.858C2.73533 16.9607 2.61067 17.012 2.596 17.012C2.47867 17.012 2.34667 16.88 2.2 16.616C2.068 16.352 1.936 16 1.804 15.56C1.672 15.1053 1.54733 14.5847 1.43 13.998C1.31267 13.3967 1.20267 12.766 1.1 12.106C1.012 11.446 0.938667 10.7787 0.88 10.104C0.836 9.41467 0.814 8.75467 0.814 8.124C0.814 7.18533 0.858 6.452 0.946 5.924C1.04867 5.396 1.15867 5 1.276 4.736C1.408 4.472 1.52533 4.31067 1.628 4.252C1.73067 4.17867 1.78933 4.142 1.804 4.142C1.92133 4.142 2.01667 4.19333 2.09 4.296C2.16333 4.39867 2.2 4.50133 2.2 4.604C2.2 4.66267 2.17067 4.76533 2.112 4.912C2.05333 5.05867 1.98733 5.264 1.914 5.528C1.85533 5.792 1.79667 6.12933 1.738 6.54C1.694 6.95067 1.672 7.44933 1.672 8.036C1.672 8.564 1.694 9.114 1.738 9.686C1.79667 10.258 1.87 10.8227 1.958 11.38C2.046 11.9373 2.14133 12.4653 2.244 12.964C2.36133 13.4627 2.47867 13.9027 2.596 14.284C2.71333 14.6653 2.82333 14.9733 2.926 15.208C3.02867 15.428 3.124 15.538 3.212 15.538C3.22667 15.538 3.322 15.5013 3.498 15.428C3.674 15.3547 3.894 15.2667 4.158 15.164C4.422 15.0467 4.708 14.9367 5.016 14.834C5.33867 14.7167 5.66133 14.614 5.984 14.526C6.13067 14.482 6.29933 14.438 6.49 14.394C6.69533 14.3353 6.886 14.284 7.062 14.24C7.238 14.196 7.392 14.1593 7.524 14.13C7.67067 14.1007 7.75867 14.086 7.788 14.086C8.02267 14.086 8.14 14.1667 8.14 14.328ZM15.4394 13.69C15.454 13.7193 15.4614 13.7633 15.4614 13.822C15.4614 13.91 15.3954 14.042 15.2634 14.218C15.2194 14.2767 15.124 14.372 14.9774 14.504C14.8307 14.636 14.6327 14.768 14.3834 14.9C14.134 15.032 13.826 15.1493 13.4594 15.252C13.1074 15.3547 12.6894 15.406 12.2054 15.406C11.868 15.406 11.538 15.3327 11.2154 15.186C10.8927 15.0247 10.6067 14.7973 10.3574 14.504C10.108 14.196 9.90269 13.822 9.74136 13.382C9.58003 12.9273 9.49936 12.3993 9.49936 11.798C9.49936 11.226 9.57269 10.6907 9.71936 10.192C9.86603 9.69333 10.0494 9.25333 10.2694 8.872C10.504 8.49067 10.7607 8.19 11.0394 7.97C11.318 7.75 11.5894 7.64 11.8534 7.64C12.088 7.64 12.3227 7.69133 12.5574 7.794C12.8067 7.882 13.0267 7.99933 13.2174 8.146C13.4227 8.29267 13.584 8.46133 13.7014 8.652C13.8187 8.828 13.8774 9.01133 13.8774 9.202C13.8774 9.422 13.7747 9.64933 13.5694 9.884C13.3787 10.1187 13.144 10.3387 12.8654 10.544C12.5867 10.7347 12.308 10.896 12.0294 11.028C11.7507 11.1453 11.5307 11.204 11.3694 11.204C11.2814 11.204 11.2007 11.1673 11.1274 11.094C11.0687 11.006 11.0394 10.9033 11.0394 10.786C11.0394 10.5807 11.1274 10.4193 11.3034 10.302C11.494 10.1847 11.6994 10.082 11.9194 9.994C12.1394 9.89133 12.3374 9.774 12.5134 9.642C12.704 9.51 12.7994 9.32667 12.7994 9.092C12.7994 9.06267 12.7627 8.98933 12.6894 8.872C12.616 8.75467 12.418 8.696 12.0954 8.696C11.9487 8.696 11.78 8.784 11.5894 8.96C11.3987 9.12133 11.2154 9.34867 11.0394 9.642C10.8634 9.92067 10.7167 10.258 10.5994 10.654C10.482 11.0353 10.4234 11.4533 10.4234 11.908C10.4234 12.2893 10.4894 12.634 10.6214 12.942C10.768 13.25 10.9514 13.514 11.1714 13.734C11.3914 13.9393 11.648 14.1007 11.9414 14.218C12.2347 14.3353 12.5354 14.394 12.8434 14.394C13.0634 14.394 13.298 14.35 13.5474 14.262C13.8114 14.1593 14.0534 14.0567 14.2734 13.954C14.508 13.8367 14.706 13.734 14.8674 13.646C15.0434 13.5433 15.1534 13.492 15.1974 13.492C15.2414 13.492 15.2854 13.514 15.3294 13.558C15.388 13.602 15.4247 13.646 15.4394 13.69ZM21.9433 13.096C21.9433 13.3453 21.8553 13.5653 21.6793 13.756C21.5179 13.932 21.3053 14.086 21.0413 14.218C20.7919 14.3353 20.5133 14.4307 20.2053 14.504C19.8973 14.5773 19.6039 14.636 19.3253 14.68C19.0466 14.7093 18.7973 14.7313 18.5773 14.746C18.3719 14.746 18.2399 14.746 18.1813 14.746C17.8586 14.746 17.6093 14.6947 17.4333 14.592C17.2573 14.4893 17.1693 14.306 17.1693 14.042C17.1693 13.954 17.1766 13.8807 17.1913 13.822C17.2059 13.7487 17.2646 13.712 17.3673 13.712C17.4113 13.712 17.4846 13.7267 17.5873 13.756C17.6899 13.7707 17.7706 13.778 17.8293 13.778C17.8879 13.778 18.0713 13.7707 18.3793 13.756C18.7019 13.7267 19.0393 13.6827 19.3913 13.624C19.7579 13.5653 20.0806 13.4847 20.3593 13.382C20.6526 13.2647 20.7993 13.118 20.7993 12.942C20.7993 12.9127 20.6453 12.8247 20.3373 12.678C20.0439 12.5167 19.5966 12.2527 18.9953 11.886C18.5259 11.5927 18.1959 11.2993 18.0053 11.006C17.8146 10.698 17.7193 10.2873 17.7193 9.774C17.7193 9.45133 17.7853 9.18733 17.9173 8.982C18.0639 8.77667 18.2546 8.61533 18.4893 8.498C18.7386 8.38067 19.0173 8.3 19.3253 8.256C19.6479 8.19733 19.9853 8.168 20.3373 8.168C20.3666 8.168 20.4546 8.18267 20.6013 8.212C20.7626 8.24133 20.9313 8.29267 21.1073 8.366C21.2833 8.42467 21.4373 8.50533 21.5693 8.608C21.7159 8.696 21.7893 8.79867 21.7893 8.916C21.7893 8.94533 21.7599 8.98933 21.7013 9.048C21.6573 9.10667 21.5766 9.21667 21.4593 9.378C21.4153 9.36333 21.3346 9.34133 21.2173 9.312C21.1146 9.28267 20.9899 9.25333 20.8433 9.224C20.7113 9.18 20.5719 9.15067 20.4253 9.136C20.2786 9.10667 20.1613 9.092 20.0733 9.092C19.6919 9.092 19.3839 9.16533 19.1493 9.312C18.9146 9.444 18.7973 9.708 18.7973 10.104C18.7973 10.2947 18.8706 10.4707 19.0173 10.632C19.1786 10.7933 19.3766 10.9473 19.6113 11.094C19.8459 11.226 20.0953 11.3653 20.3593 11.512C20.6379 11.644 20.8946 11.7907 21.1293 11.952C21.3639 12.1133 21.5546 12.2893 21.7013 12.48C21.8626 12.656 21.9433 12.8613 21.9433 13.096ZM39.3367 8.234C39.3514 8.26333 39.366 8.28533 39.3807 8.3C39.3954 8.3 39.4027 8.31467 39.4027 8.344C39.4027 8.432 39.2194 8.60067 38.8527 8.85C38.486 9.08467 38.0314 9.356 37.4887 9.664C36.946 9.95733 36.374 10.258 35.7727 10.566C35.1714 10.8593 34.636 11.1013 34.1667 11.292C34.1667 11.3213 34.152 11.4167 34.1227 11.578C34.0934 11.7393 34.0787 11.842 34.0787 11.886V12.304C34.0787 12.6413 34.13 12.9787 34.2327 13.316C34.3354 13.6387 34.4894 13.932 34.6947 14.196C34.9147 14.46 35.1787 14.6727 35.4867 14.834C35.7947 14.9953 36.154 15.076 36.5647 15.076C36.7407 15.076 36.9534 15.0467 37.2027 14.988C37.4667 14.9147 37.716 14.8193 37.9507 14.702C38.2 14.57 38.42 14.416 38.6107 14.24C38.8014 14.064 38.9187 13.866 38.9627 13.646C39.1387 13.6607 39.2414 13.712 39.2707 13.8C39.3147 13.888 39.3367 13.9467 39.3367 13.976C39.3367 14.3573 39.2414 14.6873 39.0507 14.966C38.8747 15.23 38.6474 15.45 38.3687 15.626C38.1047 15.7873 37.8187 15.912 37.5107 16C37.2174 16.0733 36.9534 16.11 36.7187 16.11C35.4574 16.11 34.5407 15.758 33.9687 15.054C33.3967 14.35 33.1107 13.426 33.1107 12.282C33.1107 12.2233 33.1254 12.0913 33.1547 11.886C33.184 11.6807 33.1987 11.5413 33.1987 11.468C33.1987 11.4533 33.1694 11.4387 33.1107 11.424C33.052 11.3947 32.986 11.3653 32.9127 11.336C32.854 11.3067 32.7954 11.2627 32.7367 11.204C32.6927 11.1307 32.6707 11.0353 32.6707 10.918C32.6707 10.8007 32.7147 10.7053 32.8027 10.632C32.8907 10.5587 32.9934 10.4927 33.1107 10.434L33.3307 10.302C33.4627 9.74467 33.6167 9.20933 33.7927 8.696C33.9834 8.168 34.218 7.64 34.4967 7.112C34.3794 7.112 34.2547 7.09733 34.1227 7.068C33.9907 7.03867 33.9247 6.936 33.9247 6.76C33.9247 6.55467 34.042 6.32733 34.2767 6.078C34.526 5.82867 34.8047 5.594 35.1127 5.374C35.4354 5.154 35.7507 4.97067 36.0587 4.824C36.3667 4.66267 36.5867 4.582 36.7187 4.582C36.7774 4.582 36.814 4.59667 36.8287 4.626C36.858 4.64067 36.902 4.648 36.9607 4.648C37.078 4.648 37.2247 4.626 37.4007 4.582C37.5914 4.538 37.7894 4.48667 37.9947 4.428C38.2 4.36933 38.3907 4.318 38.5667 4.274C38.7574 4.23 38.9114 4.208 39.0287 4.208C39.1607 4.208 39.256 4.252 39.3147 4.34C39.388 4.428 39.4247 4.52333 39.4247 4.626C39.4247 4.74333 39.3514 4.83133 39.2047 4.89C39.058 4.934 38.926 4.97067 38.8087 5C38.398 5.07333 37.9654 5.20533 37.5107 5.396C37.0707 5.572 36.66 5.77 36.2787 5.99C36.132 6.15133 35.956 6.386 35.7507 6.694C35.5454 6.98733 35.3474 7.32467 35.1567 7.706C34.966 8.08733 34.79 8.48333 34.6287 8.894C34.482 9.30467 34.3867 9.69333 34.3427 10.06L34.7167 9.884C35.846 9.34133 36.7627 8.916 37.4667 8.608C38.1854 8.3 38.7427 8.146 39.1387 8.146C39.212 8.146 39.278 8.17533 39.3367 8.234ZM39.1387 1.282C39.1387 1.39933 39.0507 1.568 38.8747 1.788C38.6987 2.008 38.486 2.23533 38.2367 2.47C38.002 2.70467 37.7527 2.92467 37.4887 3.13C37.2394 3.32067 37.0414 3.45267 36.8947 3.526C36.7774 3.58467 36.6747 3.62133 36.5867 3.636C36.4987 3.65067 36.4254 3.658 36.3667 3.658C36.2494 3.658 36.1027 3.592 35.9267 3.46C35.7507 3.328 35.6627 3.20333 35.6627 3.086C35.6627 3.05667 35.7287 3.02 35.8607 2.976C35.9927 2.91733 36.1394 2.844 36.3007 2.756C36.4474 2.668 36.638 2.52867 36.8727 2.338C37.122 2.13267 37.364 1.93467 37.5987 1.744C37.848 1.53867 38.068 1.36267 38.2587 1.216C38.464 1.06933 38.6034 0.995999 38.6767 0.995999C38.7794 0.995999 38.882 1.02533 38.9847 1.084C39.0874 1.14267 39.1387 1.20867 39.1387 1.282ZM43.9818 15.362C43.9818 15.4793 43.9378 15.5673 43.8498 15.626C43.7618 15.6847 43.6591 15.714 43.5418 15.714C43.4098 15.714 43.2704 15.5893 43.1238 15.34C42.9918 15.0907 42.8598 14.7753 42.7278 14.394C42.5958 14.0127 42.4711 13.602 42.3538 13.162C42.2364 12.7073 42.1338 12.2893 42.0458 11.908C41.9578 11.512 41.8844 11.182 41.8258 10.918C41.7818 10.654 41.7598 10.5073 41.7598 10.478C41.7598 10.4193 41.7304 10.2653 41.6718 10.016C41.6278 9.76667 41.5618 9.378 41.4738 8.85C41.4004 8.322 41.3124 7.64 41.2098 6.804C41.1218 5.95333 41.0264 4.90467 40.9238 3.658C40.9238 3.526 40.9458 3.35733 40.9898 3.152C41.0338 2.94667 41.1364 2.844 41.2978 2.844C41.5031 2.844 41.6571 2.98333 41.7598 3.262C41.8771 3.54067 41.9651 3.88533 42.0238 4.296C42.0971 4.70667 42.1484 5.13933 42.1778 5.594C42.2071 6.034 42.2438 6.42267 42.2878 6.76C42.3464 7.22933 42.3978 7.65467 42.4418 8.036C42.5004 8.41733 42.5518 8.79867 42.5958 9.18C42.6544 9.54667 42.7204 9.93533 42.7938 10.346C42.8818 10.7567 42.9844 11.2113 43.1018 11.71L43.9818 15.362ZM51.8124 13.69C51.8271 13.7193 51.8344 13.7633 51.8344 13.822C51.8344 13.91 51.7684 14.042 51.6364 14.218C51.5924 14.2767 51.4971 14.372 51.3504 14.504C51.2037 14.636 51.0057 14.768 50.7564 14.9C50.5071 15.032 50.1991 15.1493 49.8324 15.252C49.4804 15.3547 49.0624 15.406 48.5784 15.406C48.2411 15.406 47.9111 15.3327 47.5884 15.186C47.2657 15.0247 46.9797 14.7973 46.7304 14.504C46.4811 14.196 46.2757 13.822 46.1144 13.382C45.9531 12.9273 45.8724 12.3993 45.8724 11.798C45.8724 11.226 45.9457 10.6907 46.0924 10.192C46.2391 9.69333 46.4224 9.25333 46.6424 8.872C46.8771 8.49067 47.1337 8.19 47.4124 7.97C47.6911 7.75 47.9624 7.64 48.2264 7.64C48.4611 7.64 48.6957 7.69133 48.9304 7.794C49.1797 7.882 49.3997 7.99933 49.5904 8.146C49.7957 8.29267 49.9571 8.46133 50.0744 8.652C50.1917 8.828 50.2504 9.01133 50.2504 9.202C50.2504 9.422 50.1477 9.64933 49.9424 9.884C49.7517 10.1187 49.5171 10.3387 49.2384 10.544C48.9597 10.7347 48.6811 10.896 48.4024 11.028C48.1237 11.1453 47.9037 11.204 47.7424 11.204C47.6544 11.204 47.5737 11.1673 47.5004 11.094C47.4417 11.006 47.4124 10.9033 47.4124 10.786C47.4124 10.5807 47.5004 10.4193 47.6764 10.302C47.8671 10.1847 48.0724 10.082 48.2924 9.994C48.5124 9.89133 48.7104 9.774 48.8864 9.642C49.0771 9.51 49.1724 9.32667 49.1724 9.092C49.1724 9.06267 49.1357 8.98933 49.0624 8.872C48.9891 8.75467 48.7911 8.696 48.4684 8.696C48.3217 8.696 48.1531 8.784 47.9624 8.96C47.7717 9.12133 47.5884 9.34867 47.4124 9.642C47.2364 9.92067 47.0897 10.258 46.9724 10.654C46.8551 11.0353 46.7964 11.4533 46.7964 11.908C46.7964 12.2893 46.8624 12.634 46.9944 12.942C47.1411 13.25 47.3244 13.514 47.5444 13.734C47.7644 13.9393 48.0211 14.1007 48.3144 14.218C48.6077 14.3353 48.9084 14.394 49.2164 14.394C49.4364 14.394 49.6711 14.35 49.9204 14.262C50.1844 14.1593 50.4264 14.0567 50.6464 13.954C50.8811 13.8367 51.0791 13.734 51.2404 13.646C51.4164 13.5433 51.5264 13.492 51.5704 13.492C51.6144 13.492 51.6584 13.514 51.7024 13.558C51.7611 13.602 51.7977 13.646 51.8124 13.69ZM59.7023 11.996C59.7023 12.1427 59.6803 12.2967 59.6363 12.458C59.5923 12.6047 59.5483 12.7293 59.5043 12.832C59.475 12.876 59.3357 13.03 59.0863 13.294C58.8517 13.5433 58.551 13.8073 58.1843 14.086C57.8323 14.3647 57.429 14.6213 56.9743 14.856C56.5343 15.076 56.109 15.186 55.6983 15.186C55.449 15.186 55.1923 15.142 54.9283 15.054C54.679 14.966 54.4443 14.8267 54.2243 14.636C54.0043 14.4307 53.821 14.1813 53.6743 13.888C53.5423 13.5947 53.4763 13.2353 53.4763 12.81C53.4763 12.106 53.5937 11.468 53.8283 10.896C54.063 10.324 54.2977 9.86933 54.5323 9.532C54.635 9.37067 54.767 9.20933 54.9283 9.048C55.1043 8.872 55.273 8.718 55.4343 8.586C55.5957 8.43933 55.7423 8.322 55.8743 8.234C56.021 8.146 56.1237 8.102 56.1823 8.102C56.3143 8.102 56.4317 8.13867 56.5343 8.212C56.6517 8.28533 56.7103 8.35867 56.7103 8.432C56.7103 8.54933 56.6737 8.652 56.6003 8.74C56.5417 8.81333 56.4537 8.90133 56.3363 9.004C56.219 9.092 56.0797 9.21667 55.9183 9.378C55.757 9.52467 55.5883 9.72267 55.4123 9.972C55.0603 10.456 54.7963 10.9547 54.6203 11.468C54.459 11.9667 54.3783 12.4067 54.3783 12.788C54.3783 13.1693 54.5177 13.4773 54.7963 13.712C55.0897 13.932 55.3903 14.042 55.6983 14.042C56.2557 14.042 56.747 13.9173 57.1723 13.668C57.6123 13.4187 57.9863 13.14 58.2943 12.832C58.6023 12.524 58.8517 12.2453 59.0423 11.996C59.233 11.7467 59.3723 11.622 59.4603 11.622C59.6217 11.622 59.7023 11.7467 59.7023 11.996ZM67.2959 6.056C67.1053 6.276 66.8339 6.496 66.4819 6.716C66.1299 6.92133 65.7779 7.112 65.4259 7.288C65.0739 7.464 64.7659 7.618 64.5019 7.75C64.2379 7.86733 64.1059 7.948 64.1059 7.992C64.1059 8.036 64.1353 8.168 64.1939 8.388C64.2526 8.608 64.3186 8.872 64.3919 9.18C64.4799 9.47333 64.5679 9.78133 64.6559 10.104C64.7439 10.4267 64.8173 10.7127 64.8759 10.962C64.9053 11.1087 64.9419 11.2993 64.9859 11.534C65.0299 11.7687 65.0666 12.0033 65.0959 12.238C65.1399 12.4727 65.1766 12.6853 65.2059 12.876C65.2353 13.052 65.2499 13.1473 65.2499 13.162C65.2499 13.382 65.2133 13.6093 65.1399 13.844C65.0666 14.0787 64.9493 14.196 64.7879 14.196C64.6999 14.196 64.6193 14.1593 64.5459 14.086C64.4726 14.0127 64.4066 13.932 64.3479 13.844C64.2893 13.7413 64.2453 13.646 64.2159 13.558C64.1866 13.47 64.1719 13.404 64.1719 13.36C64.1719 13.3307 64.1719 13.2867 64.1719 13.228C64.1866 13.1693 64.1939 13.1033 64.1939 13.03C64.1939 12.7513 64.1499 12.348 64.0619 11.82C64.0326 11.6587 63.9739 11.4093 63.8859 11.072C63.7979 10.7347 63.7099 10.39 63.6219 10.038C63.5193 9.62733 63.4019 9.18 63.2699 8.696C63.2113 8.49067 63.1746 8.388 63.1599 8.388C63.0573 8.388 62.8813 8.454 62.6319 8.586C62.3973 8.70333 62.1259 8.85733 61.8179 9.048C61.5099 9.224 61.1873 9.422 60.8499 9.642C60.5126 9.84733 60.1973 10.0453 59.9039 10.236C59.6106 10.412 59.3613 10.566 59.1559 10.698C58.9359 10.8153 58.8039 10.874 58.7599 10.874C58.5693 10.874 58.4153 10.808 58.2979 10.676C58.1806 10.544 58.1219 10.3973 58.1219 10.236C58.1219 10.148 58.2466 10.0233 58.4959 9.862C58.7306 9.686 59.0313 9.49533 59.3979 9.29C59.7499 9.08467 60.1386 8.872 60.5639 8.652C60.9746 8.432 61.3559 8.234 61.7079 8.058C62.0746 7.882 62.3753 7.73533 62.6099 7.618C62.8593 7.50067 62.9839 7.442 62.9839 7.442C62.8519 6.76733 62.7419 6.166 62.6539 5.638C62.5806 5.18333 62.5073 4.76533 62.4339 4.384C62.3753 4.00267 62.3459 3.79733 62.3459 3.768C62.3459 3.57733 62.3826 3.438 62.4559 3.35C62.5439 3.24733 62.6393 3.196 62.7419 3.196C62.9033 3.196 63.0059 3.306 63.0499 3.526C63.2113 4.318 63.3579 5.022 63.4899 5.638C63.6366 6.254 63.7759 6.75267 63.9079 7.134C64.0399 7.10467 64.2673 7.024 64.5899 6.892C64.9126 6.74533 65.2499 6.59133 65.6019 6.43C65.9539 6.26867 66.2693 6.12933 66.5479 6.012C66.8413 5.88 67.0099 5.814 67.0539 5.814C67.1419 5.814 67.1933 5.84333 67.2079 5.902C67.2373 5.96067 67.2666 6.012 67.2959 6.056ZM69.7893 5.88C69.7893 5.90933 69.738 5.968 69.6353 6.056C69.5327 6.144 69.408 6.23933 69.2613 6.342C69.1293 6.43 68.99 6.51067 68.8433 6.584C68.6967 6.65733 68.5793 6.694 68.4913 6.694C68.4327 6.694 68.352 6.694 68.2493 6.694C68.1613 6.67933 68.066 6.65 67.9633 6.606C67.8753 6.562 67.7947 6.50333 67.7213 6.43C67.648 6.342 67.6113 6.232 67.6113 6.1C67.6113 5.89467 67.6847 5.704 67.8313 5.528C67.978 5.33733 68.1687 5.242 68.4033 5.242C68.4473 5.242 68.5427 5.264 68.6893 5.308C68.8507 5.33733 69.012 5.38133 69.1733 5.44C69.3347 5.49867 69.474 5.56467 69.5913 5.638C69.7233 5.71133 69.7893 5.792 69.7893 5.88ZM70.5153 14.108C70.5153 14.2107 70.4347 14.2987 70.2733 14.372C70.1267 14.4453 70.0167 14.482 69.9433 14.482C69.7967 14.482 69.6647 14.3867 69.5473 14.196C69.43 14.0053 69.3273 13.7853 69.2393 13.536C69.1513 13.2867 69.078 13.052 69.0193 12.832C68.9607 12.5973 68.9167 12.436 68.8873 12.348C68.8433 12.2013 68.7847 12.0253 68.7113 11.82C68.638 11.6147 68.5647 11.4167 68.4913 11.226C68.4327 11.0353 68.3813 10.8667 68.3373 10.72C68.2933 10.5733 68.2713 10.4927 68.2713 10.478C68.2713 10.2727 68.308 10.082 68.3813 9.906C68.4693 9.73 68.572 9.642 68.6893 9.642C68.8213 9.642 68.9607 9.74467 69.1073 9.95C69.254 10.1553 69.3933 10.4193 69.5253 10.742C69.672 11.05 69.804 11.3947 69.9213 11.776C70.0387 12.1427 70.1413 12.4947 70.2293 12.832C70.3173 13.1547 70.3833 13.4407 70.4273 13.69C70.486 13.9247 70.5153 14.064 70.5153 14.108ZM75.8453 11.248C75.8453 11.5707 75.8013 11.8787 75.7133 12.172C75.6253 12.4653 75.508 12.722 75.3613 12.942C75.2147 13.162 75.0387 13.338 74.8333 13.47C74.6427 13.5873 74.43 13.646 74.1953 13.646C73.7847 13.646 73.462 13.5287 73.2273 13.294C72.9927 13.0593 72.8093 12.788 72.6773 12.48C72.56 12.172 72.4793 11.864 72.4353 11.556C72.406 11.2333 72.3913 10.9913 72.3913 10.83C72.3913 10.566 72.428 10.2727 72.5013 9.95C72.5893 9.61267 72.6993 9.30467 72.8313 9.026C72.978 8.74733 73.1393 8.51267 73.3153 8.322C73.4913 8.13133 73.6747 8.036 73.8653 8.036C73.9093 8.036 73.9753 8.05067 74.0633 8.08C74.166 8.10933 74.2687 8.15333 74.3713 8.212C74.474 8.27067 74.562 8.344 74.6353 8.432C74.7233 8.52 74.782 8.62267 74.8113 8.74C74.9727 8.75467 75.134 8.81333 75.2953 8.916C75.4567 9.01867 75.5447 9.09933 75.5593 9.158C75.6767 9.53933 75.75 9.92067 75.7793 10.302C75.8233 10.6833 75.8453 10.9987 75.8453 11.248ZM74.8553 10.852C74.8553 10.632 74.8333 10.4047 74.7893 10.17C74.7453 9.92067 74.6573 9.67133 74.5253 9.422C74.496 9.43667 74.4593 9.444 74.4153 9.444C74.3567 9.444 74.3053 9.43667 74.2613 9.422C74.232 9.40733 74.2027 9.4 74.1733 9.4C73.9973 9.4 73.858 9.45133 73.7553 9.554C73.6527 9.642 73.572 9.76667 73.5133 9.928C73.4693 10.0747 73.44 10.236 73.4253 10.412C73.4107 10.588 73.4033 10.7567 73.4033 10.918C73.4033 11.0793 73.4107 11.2627 73.4253 11.468C73.44 11.6587 73.4693 11.842 73.5133 12.018C73.572 12.194 73.6453 12.348 73.7333 12.48C73.8213 12.5973 73.9387 12.656 74.0853 12.656C74.232 12.656 74.3567 12.5827 74.4593 12.436C74.562 12.2747 74.6427 12.0913 74.7013 11.886C74.76 11.6807 74.7967 11.4827 74.8113 11.292C74.8407 11.0867 74.8553 10.94 74.8553 10.852ZM84.6734 13.294C84.6734 13.382 84.644 13.47 84.5854 13.558C84.5267 13.646 84.4534 13.7267 84.3654 13.8C84.292 13.8733 84.204 13.9393 84.1014 13.998C84.0134 14.042 83.9327 14.064 83.8594 14.064C83.61 14.064 83.2874 14.0127 82.8914 13.91C82.51 13.7927 82.202 13.6167 81.9674 13.382C81.718 13.1327 81.498 12.8393 81.3074 12.502C81.1167 12.15 80.904 11.6367 80.6694 10.962C80.508 11.6073 80.3174 12.2453 80.0974 12.876C79.892 13.5067 79.5547 14.086 79.0854 14.614C79.056 14.6433 79.012 14.658 78.9534 14.658C78.8507 14.658 78.7407 14.6067 78.6234 14.504C78.506 14.4013 78.4474 14.2987 78.4474 14.196C78.4474 14.0933 78.4327 13.8587 78.4034 13.492C78.3887 13.1107 78.3667 12.6927 78.3374 12.238C78.308 11.7687 78.2787 11.2993 78.2494 10.83C78.2347 10.346 78.2274 9.95 78.2274 9.642C78.2274 9.49533 78.2347 9.30467 78.2494 9.07C78.264 8.82067 78.308 8.608 78.3814 8.432C78.396 8.40267 78.4474 8.344 78.5354 8.256C78.638 8.168 78.748 8.124 78.8654 8.124C78.968 8.124 79.0267 8.19 79.0414 8.322C79.056 8.454 79.0634 8.60067 79.0634 8.762V12.238C79.0634 12.3113 79.0707 12.414 79.0854 12.546C79.1147 12.678 79.1514 12.7733 79.1954 12.832C79.3567 12.48 79.5034 12.0693 79.6354 11.6C79.782 11.116 79.9214 10.6613 80.0534 10.236C80.1854 9.796 80.3174 9.42933 80.4494 9.136C80.5814 8.828 80.7134 8.674 80.8454 8.674C80.992 8.674 81.1094 8.70333 81.1974 8.762C81.2854 8.82067 81.3587 8.938 81.4174 9.114C81.4907 9.53933 81.5494 9.92067 81.5934 10.258C81.6374 10.5807 81.6887 10.874 81.7474 11.138C81.8207 11.402 81.916 11.6513 82.0334 11.886C82.1654 12.106 82.3414 12.3113 82.5614 12.502C82.7667 12.6927 82.994 12.832 83.2434 12.92C83.5074 13.008 83.7347 13.052 83.9254 13.052C84.0134 13.052 84.1087 13.0373 84.2114 13.008C84.314 12.964 84.3874 12.942 84.4314 12.942C84.49 12.942 84.5414 12.9933 84.5854 13.096C84.644 13.1987 84.6734 13.2647 84.6734 13.294ZM90.7577 13.096C90.7577 13.3453 90.6697 13.5653 90.4937 13.756C90.3324 13.932 90.1197 14.086 89.8557 14.218C89.6064 14.3353 89.3277 14.4307 89.0197 14.504C88.7117 14.5773 88.4184 14.636 88.1397 14.68C87.8611 14.7093 87.6117 14.7313 87.3917 14.746C87.1864 14.746 87.0544 14.746 86.9957 14.746C86.6731 14.746 86.4237 14.6947 86.2477 14.592C86.0717 14.4893 85.9837 14.306 85.9837 14.042C85.9837 13.954 85.9911 13.8807 86.0057 13.822C86.0204 13.7487 86.0791 13.712 86.1817 13.712C86.2257 13.712 86.2991 13.7267 86.4017 13.756C86.5044 13.7707 86.5851 13.778 86.6437 13.778C86.7024 13.778 86.8857 13.7707 87.1937 13.756C87.5164 13.7267 87.8537 13.6827 88.2057 13.624C88.5724 13.5653 88.8951 13.4847 89.1737 13.382C89.4671 13.2647 89.6137 13.118 89.6137 12.942C89.6137 12.9127 89.4597 12.8247 89.1517 12.678C88.8584 12.5167 88.4111 12.2527 87.8097 11.886C87.3404 11.5927 87.0104 11.2993 86.8197 11.006C86.6291 10.698 86.5337 10.2873 86.5337 9.774C86.5337 9.45133 86.5997 9.18733 86.7317 8.982C86.8784 8.77667 87.0691 8.61533 87.3037 8.498C87.5531 8.38067 87.8317 8.3 88.1397 8.256C88.4624 8.19733 88.7997 8.168 89.1517 8.168C89.1811 8.168 89.2691 8.18267 89.4157 8.212C89.5771 8.24133 89.7457 8.29267 89.9217 8.366C90.0977 8.42467 90.2517 8.50533 90.3837 8.608C90.5304 8.696 90.6037 8.79867 90.6037 8.916C90.6037 8.94533 90.5744 8.98933 90.5157 9.048C90.4717 9.10667 90.3911 9.21667 90.2737 9.378C90.2297 9.36333 90.1491 9.34133 90.0317 9.312C89.9291 9.28267 89.8044 9.25333 89.6577 9.224C89.5257 9.18 89.3864 9.15067 89.2397 9.136C89.0931 9.10667 88.9757 9.092 88.8877 9.092C88.5064 9.092 88.1984 9.16533 87.9637 9.312C87.7291 9.444 87.6117 9.708 87.6117 10.104C87.6117 10.2947 87.6851 10.4707 87.8317 10.632C87.9931 10.7933 88.1911 10.9473 88.4257 11.094C88.6604 11.226 88.9097 11.3653 89.1737 11.512C89.4524 11.644 89.7091 11.7907 89.9437 11.952C90.1784 12.1133 90.3691 12.2893 90.5157 12.48C90.6771 12.656 90.7577 12.8613 90.7577 13.096Z" fill="#555555"/>
</svg>
