<svg width="82" height="31" viewBox="0 0 82 31" fill="none" xmlns="http://www.w3.org/2000/svg">
<path d="M80.8785 25.3893C80.517 25.0876 80.1742 25.0594 79.6924 25.0252L75.0329 24.4106C74.8022 24.3953 74.124 24.2714 73.9899 24.4725C73.643 24.9884 73.9358 25.2304 75.3455 25.2461C75.6878 25.2506 76.8262 25.2034 77.1629 25.2661L78.8248 25.6066C78.9922 25.6366 79.4199 25.699 78.484 25.9838C72.7782 27.7169 68.4304 28.8285 61.5869 28.9504C56.5698 29.0417 51.6261 29.3879 46.6891 28.5506C38.1082 27.0983 29.2131 23.5426 21.5982 18.7449C8.59087 10.5571 1.82931 1.0624 1.76125 0.960169C1.57619 0.690076 1.12505 -0.101558 0.862449 0.0741016C0.735801 0.160951 0.647963 0.294936 0.618132 0.44676C0.588302 0.598584 0.618905 0.755899 0.703258 0.884315C0.747673 0.949138 3.56906 4.57746 8.84198 9.66389C12.0043 12.7183 16.6838 16.7128 21.6255 19.8302C29.2108 24.6107 36.6954 27.6862 45.2231 29.2143L45.7976 29.3173C56.4254 31.1245 67.3323 30.1884 78.8237 26.8242C79.1244 26.7359 79.6929 26.7027 79.8934 26.4567C79.7713 27.2688 79.1502 28.4156 78.6692 29.0805L77.89 30.1587C77.8551 30.2267 77.8338 30.3009 77.8272 30.3771C77.8206 30.4533 77.829 30.5299 77.8517 30.6027C77.8745 30.6755 77.9112 30.7429 77.9598 30.8011C78.0084 30.8593 78.0679 30.9071 78.1349 30.9418C78.1859 30.969 78.2408 30.9877 78.2978 30.9971C78.5375 31.0401 78.9355 30.2395 79.0541 30.0072L80.5696 26.4879C80.783 26.0522 81.2554 25.6962 80.8785 25.3893Z" fill="#542429"/>
</svg>
