<svg width="104" height="49" viewBox="0 0 104 49" fill="none" xmlns="http://www.w3.org/2000/svg">
<g clip-path="url(#clip0_288_93)">
<path d="M3.36352 36.75C3.77067 36.3608 4.17749 36.2996 4.74972 36.22L10.261 35.1117C10.5351 35.0749 11.3345 34.8725 11.5107 35.1017C11.9662 35.6895 11.6362 36.0019 9.95518 36.134C9.54694 36.1669 8.18457 36.2022 7.78788 36.3041L5.83189 36.844C5.63455 36.8933 5.12912 37.0022 6.26889 37.2669C13.2177 38.8762 18.4958 39.8531 26.6728 39.448C32.6676 39.1535 38.5953 39.169 44.4199 37.7726C54.5437 35.3492 64.8731 30.3903 73.5749 24.0522C88.4395 13.2345 95.7451 1.3595 95.8181 1.23202C96.0173 0.894802 96.492 -0.0862317 96.8195 0.10228C96.9776 0.19574 97.0932 0.348574 97.1411 0.527364C97.1889 0.706153 97.165 0.896357 97.0747 1.0564C97.0269 1.13733 93.9516 5.69436 88.068 12.1887C84.5397 16.0883 79.2764 21.2317 73.6296 25.3496C64.9618 31.6648 56.2769 35.9372 46.2229 38.4468L45.5455 38.6159C33.0075 41.6275 19.9157 41.3876 5.93112 38.2971C5.56523 38.2159 4.88401 38.2221 4.62494 37.9446C4.83607 38.9039 5.66948 40.2226 6.297 40.9774L7.31363 42.2015C7.36073 42.2798 7.39218 42.3666 7.40615 42.457C7.42012 42.5474 7.41634 42.6396 7.39504 42.7282C7.37374 42.8169 7.33532 42.9003 7.28201 42.9737C7.22869 43.047 7.16153 43.1089 7.08436 43.1557C7.02575 43.1923 6.96161 43.219 6.89445 43.2348C6.61177 43.3053 6.07248 42.3819 5.91218 42.1143L3.82053 38.0361C3.53074 37.5334 2.93839 37.1465 3.36352 36.75Z" fill="#565454"/>
</g>
<defs>
<clipPath id="clip0_288_93">
<rect width="100" height="25" fill="white" transform="matrix(-0.970232 0.242176 0.242176 0.970232 97.0234 0)"/>
</clipPath>
</defs>
</svg>
