<svg width="224" height="28" viewBox="0 0 224 28" fill="none" xmlns="http://www.w3.org/2000/svg">
<path d="M9.06481 5.7L9.06481 15.69C9.06481 19.32 8.19481 20.28 4.95481 20.28C3.15481 20.28 1.47481 20.22 0.874808 20.13L0.874809 26.94C1.47481 27.09 3.54481 27.3 5.01481 27.3C13.3548 27.3 16.5648 25.08 16.5648 15.69L16.5648 5.7L9.06481 5.7ZM34.0691 27L42.0191 27L34.7891 5.69999L24.5591 5.69999L17.3291 27L25.3091 27L26.2691 23.76L33.1091 23.76L34.0691 27ZM29.6891 12.27L31.5191 18.39L27.8591 18.39L29.6891 12.27ZM56.4564 16.62L51.8064 5.69999L42.9264 5.69999L42.9264 27L50.2764 27L50.2764 17.01L54.1164 27L58.4364 27L62.2764 17.01L62.2764 27L69.6264 27L69.6264 5.69999L61.2864 5.69999L56.4564 16.62ZM87.2722 27L95.2222 27L87.9922 5.69998L77.7622 5.69999L70.5322 27L78.5122 27L79.4722 23.76L86.3122 23.76L87.2722 27ZM82.8922 12.27L84.7222 18.39L81.0622 18.39L82.8922 12.27ZM103.659 5.69998L96.1595 5.69998L96.1595 27L103.659 27L103.659 5.69998ZM115.375 5.39998C109.015 5.39998 105.115 8.27998 105.115 12.45C105.115 16.86 107.695 18.96 115.585 19.56C117.355 19.68 118.555 19.74 118.555 20.37C118.555 21.18 118.105 21.42 115.555 21.42C113.305 21.42 112.435 20.94 112.375 20.04L104.875 20.04C105.115 24.66 108.775 27.3 115.555 27.3C122.455 27.3 126.205 25.05 126.205 20.46C126.205 15.99 124.285 13.77 115.585 13.17C113.515 13.02 112.585 12.99 112.585 12.33C112.585 11.58 113.335 11.28 115.375 11.28C117.085 11.28 118.315 11.67 118.405 12.63L125.935 12.63C125.755 8.12998 122.365 5.39998 115.375 5.39998ZM145.147 20.43L141.067 5.69997L132.817 5.69998L140.047 27L150.277 27L157.507 5.69997L149.227 5.69997L145.147 20.43ZM156.763 16.35C156.763 23.58 162.013 27.3 168.643 27.3C175.813 27.3 180.463 23.58 180.463 16.35C180.463 9.62997 175.663 5.39997 168.643 5.39997C162.013 5.39997 156.763 9.53997 156.763 16.35ZM164.443 16.35C164.443 13.86 166.123 12.21 168.643 12.21C171.223 12.21 172.813 13.89 172.813 16.35C172.813 18.96 171.253 20.49 168.643 20.49C166.123 20.49 164.443 18.93 164.443 16.35ZM181.142 12.66L188.582 12.66L188.582 27L196.082 27L196.082 12.66L203.522 12.66L203.522 5.69996L181.142 5.69997L181.142 12.66ZM218.046 0.89996L217.386 0.89996L210.306 3.62996L210.306 4.61996L218.046 4.61996L218.046 0.89996ZM205.056 27L223.656 27L223.656 20.4L212.556 20.4L212.556 18.39L223.176 18.39L223.176 14.19L212.556 14.19L212.556 12.3L223.656 12.3L223.656 5.69996L205.056 5.69996L205.056 27Z" fill="#989595"/>
</svg>
