<svg width="153" height="202" viewBox="0 0 153 202" fill="none" xmlns="http://www.w3.org/2000/svg">
<path d="M33.0006 63.9181L-50.2478 81.3474L-38.6869 124.436L44.5954 107.062L33.0006 63.9181Z" fill="#EDECEC"/>
<path d="M33.0412 64.0588L-2.82581 94.317L-2.88093 94.3507L-40.4979 84.1426L-40.4248 83.9155L-2.88135 94.0774L32.7523 64.0073L33.0203 63.9501L33.0412 64.0588Z" fill="#ACACAC"/>
<path d="M-2.86652 94.1751L33.73 66.6475L33.0005 63.9169L-2.86652 94.1751Z" fill="#565454"/>
<path d="M96.657 111.438L16.0858 83.6752L4.04029 126.598L84.6115 154.361L96.657 111.438Z" fill="#EDECEC"/>
<path d="M96.6151 111.571L50.2902 119.161L50.2497 119.094L23.0752 91.0771L23.2737 90.9559L50.4144 118.918L96.4468 111.37L96.6983 111.459L96.6151 111.571Z" fill="#565454"/>
<path d="M50.3535 119.015L95.8527 114.163L96.6123 111.465L50.3535 119.015Z" fill="#565454"/>
<path d="M112.744 48.8571L33.0214 78.6005L50.9308 119.513L130.654 89.7693L112.744 48.8571Z" fill="#EDECEC"/>
<path d="M112.796 48.9921L81.8894 84.3198L43.0986 79.8747L43.1473 79.6321L81.7737 84.0562L112.496 48.9474L112.717 48.8126L112.796 48.9921Z" fill="#565454"/>
<path d="M81.8375 84.1858L113.867 51.4395L112.744 48.858L81.8375 84.1858Z" fill="#565454"/>
<path opacity="0.6" d="M4.27895 115.464L13.9388 89.1362L14.6336 88.7117L7.30115 114.833L4.27895 115.464Z" fill="#565454"/>
<path opacity="0.6" d="M34.3586 83.6658L34.9174 82.9444L50.9194 119.52L84.1226 107.136L50.2706 122.424L34.3586 83.6658Z" fill="#565454"/>
</svg>
