<svg width="117" height="163" viewBox="0 0 117 163" fill="none" xmlns="http://www.w3.org/2000/svg">
<path d="M99.5321 35.8255L12.5555 27.4381L10.7048 73.234L97.6977 81.686L99.5321 35.8255Z" fill="#EDECEC"/>
<path d="M99.5293 35.9763L55.0931 54.6725L55.0287 54.6887L21.2621 33.1639L21.4034 32.9635L55.112 54.4205L99.2617 35.8374L99.542 35.8632L99.5293 35.9763Z" fill="#555555"/>
<path d="M55.0958 54.5212L99.4116 38.7262L99.532 35.825L55.0958 54.5212Z" fill="#555555"/>
<path d="M147.415 101.913L76.8963 50.0246L51.9457 88.4319L122.464 140.32L147.415 101.913Z" fill="#EDECEC"/>
<path d="M147.334 102.029L99.5805 95.2933L99.561 95.2158L81.4863 59.4219L81.7181 59.3637L99.7766 95.093L147.231 101.78L147.45 101.945L147.334 102.029Z" fill="#555555"/>
<path d="M99.6865 95.1699L145.793 104.339L147.363 101.925L99.6865 95.1699Z" fill="#555555"/>
<path opacity="0.6" d="M55.5883 77.5856L73.1201 54.7224L73.9314 54.5187L58.7452 77.892L55.5883 77.5856Z" fill="#555555"/>
</svg>
