<svg width="244" height="56" viewBox="0 0 244 56" fill="none" xmlns="http://www.w3.org/2000/svg">
<path d="M1.296 10H2.664V6.448H3.876C5.64 6.448 6.72 5.512 6.72 4.024C6.72 2.536 5.64 1.6 3.876 1.6H1.296V10ZM3.936 2.764C4.788 2.764 5.292 3.244 5.292 4C5.292 4.804 4.788 5.284 3.936 5.284H2.664V2.764H3.936ZM10.5074 3.712C8.55141 3.712 7.21941 5.188 7.21941 6.976C7.21941 8.764 8.55141 10.24 10.5074 10.24C12.4754 10.24 13.7954 8.764 13.7954 6.976C13.7954 5.188 12.4754 3.712 10.5074 3.712ZM10.5194 9.076C9.35541 9.076 8.51541 8.14 8.51541 6.976C8.51541 5.812 9.35541 4.876 10.5194 4.876C11.6594 4.876 12.4994 5.8 12.4994 6.976C12.4994 8.128 11.6594 9.076 10.5194 9.076ZM19.444 7.408C19.444 8.452 18.88 9.076 17.956 9.076C17.008 9.076 16.456 8.452 16.456 7.408V3.952H15.208V7.348C15.208 9.16 16.252 10.24 17.956 10.24C19.648 10.24 20.692 9.16 20.692 7.348V3.952H19.444V7.408ZM22.5705 10H23.8065V5.968C24.1185 5.452 24.6225 5.044 25.3905 5.044C25.6425 5.044 25.8345 5.08 26.0265 5.128V3.916C25.8705 3.868 25.6905 3.832 25.4985 3.832C24.7545 3.832 24.2265 4.168 23.8065 4.636V3.952H22.5705V10ZM29.7333 3.952L32.0133 10H33.6573L35.9493 3.952H34.6053L32.8413 8.656L31.0653 3.952H29.7333ZM39.7926 3.712C37.8366 3.712 36.5046 5.188 36.5046 6.976C36.5046 8.764 37.8366 10.24 39.7926 10.24C41.7606 10.24 43.0806 8.764 43.0806 6.976C43.0806 5.188 41.7606 3.712 39.7926 3.712ZM39.8046 9.076C38.6406 9.076 37.8006 8.14 37.8006 6.976C37.8006 5.812 38.6406 4.876 39.8046 4.876C40.9446 4.876 41.7846 5.8 41.7846 6.976C41.7846 8.128 40.9446 9.076 39.8046 9.076ZM44.9032 7.9C44.9032 9.376 45.6472 10.12 47.0632 10.12C47.5312 10.12 47.8672 10.06 48.1552 9.94V8.848C47.9392 8.932 47.6632 8.98 47.2552 8.98C46.5832 8.98 46.1512 8.716 46.1512 7.9V5.068H48.1552V3.952H46.1512V2.44H44.9032V3.952H43.7632V5.068H44.9032V7.9ZM54.9719 9.016L54.0719 8.296C53.6999 8.8 53.0879 9.124 52.3559 9.124C51.1919 9.124 50.3879 8.44 50.3039 7.12H54.7679C54.8159 6.94 54.8519 6.664 54.8519 6.388C54.8519 4.852 53.7719 3.712 52.1039 3.712C50.1839 3.712 49.0319 5.164 49.0319 6.976C49.0319 8.74 50.2679 10.24 52.3559 10.24C53.4839 10.24 54.4079 9.772 54.9719 9.016ZM52.0799 4.744C53.0519 4.744 53.5919 5.44 53.6159 6.196H50.3639C50.5559 5.26 51.1799 4.744 52.0799 4.744ZM56.4728 10H57.7088V5.968C58.0208 5.452 58.5248 5.044 59.2928 5.044C59.5448 5.044 59.7368 5.08 59.9288 5.128V3.916C59.7728 3.868 59.5928 3.832 59.4008 3.832C58.6568 3.832 58.1288 4.168 57.7088 4.636V3.952H56.4728V10ZM60.7277 11.92L62.0357 8.56H60.6197L59.5757 11.92H60.7277ZM67.0164 7.9C67.0164 9.376 67.7604 10.12 69.1764 10.12C69.6444 10.12 69.9804 10.06 70.2684 9.94V8.848C70.0524 8.932 69.7764 8.98 69.3684 8.98C68.6964 8.98 68.2644 8.716 68.2644 7.9V5.068H70.2684V3.952H68.2644V2.44H67.0164V3.952H65.8764V5.068H67.0164V7.9ZM75.8229 7.408C75.8229 8.452 75.2589 9.076 74.3349 9.076C73.3869 9.076 72.8349 8.452 72.8349 7.408V3.952H71.5869V7.348C71.5869 9.16 72.6309 10.24 74.3349 10.24C76.0269 10.24 77.0709 9.16 77.0709 7.348V3.952H75.8229V7.408ZM81.7038 6.976C81.7038 8.74 82.8918 10.24 84.7998 10.24C85.6638 10.24 86.3118 9.928 86.8158 9.388V10H88.0758V0.999999H86.8158V4.564C86.3118 4.024 85.6638 3.712 84.7998 3.712C82.8918 3.712 81.7038 5.212 81.7038 6.976ZM83.0118 6.976C83.0118 5.788 83.7918 4.876 84.9558 4.876C85.7118 4.876 86.3718 5.224 86.8158 5.884V8.068C86.4078 8.704 85.7358 9.076 84.9558 9.076C83.7918 9.076 83.0118 8.164 83.0118 6.976ZM92.8785 3.712C90.9225 3.712 89.5905 5.188 89.5905 6.976C89.5905 8.764 90.9225 10.24 92.8785 10.24C94.8465 10.24 96.1665 8.764 96.1665 6.976C96.1665 5.188 94.8465 3.712 92.8785 3.712ZM92.8905 9.076C91.7265 9.076 90.8865 8.14 90.8865 6.976C90.8865 5.812 91.7265 4.876 92.8905 4.876C94.0305 4.876 94.8705 5.8 94.8705 6.976C94.8705 8.128 94.0305 9.076 92.8905 9.076ZM98.3351 2.608C98.7911 2.608 99.1751 2.224 99.1751 1.768C99.1751 1.312 98.7911 0.927999 98.3351 0.927999C97.8791 0.927999 97.4951 1.312 97.4951 1.768C97.4951 2.224 97.8791 2.608 98.3351 2.608ZM97.7111 10H98.9471V3.952H97.7111V10ZM100.299 9.148C100.863 9.832 101.619 10.24 102.639 10.24C103.767 10.24 104.727 9.532 104.739 8.344C104.739 6.268 101.775 6.676 101.775 5.464C101.775 5.056 102.063 4.72 102.639 4.72C103.143 4.72 103.563 5.02 103.887 5.452L104.727 4.72C104.295 4.144 103.515 3.712 102.627 3.712C101.415 3.712 100.575 4.504 100.575 5.5C100.575 7.636 103.539 7.192 103.539 8.416C103.539 8.872 103.215 9.232 102.627 9.232C102.027 9.232 101.547 8.908 101.151 8.404L100.299 9.148ZM175.779 9.148C176.343 9.832 177.099 10.24 178.119 10.24C179.247 10.24 180.207 9.532 180.219 8.344C180.219 6.268 177.255 6.676 177.255 5.464C177.255 5.056 177.543 4.72 178.119 4.72C178.623 4.72 179.043 5.02 179.367 5.452L180.207 4.72C179.775 4.144 178.995 3.712 178.107 3.712C176.895 3.712 176.055 4.504 176.055 5.5C176.055 7.636 179.019 7.192 179.019 8.416C179.019 8.872 178.695 9.232 178.107 9.232C177.507 9.232 177.027 8.908 176.631 8.404L175.779 9.148ZM185.874 7.408C185.874 8.452 185.31 9.076 184.386 9.076C183.438 9.076 182.886 8.452 182.886 7.408V3.952H181.638V7.348C181.638 9.16 182.682 10.24 184.386 10.24C186.078 10.24 187.122 9.16 187.122 7.348V3.952H185.874V7.408ZM189 10H190.236V5.968C190.548 5.452 191.052 5.044 191.82 5.044C192.072 5.044 192.264 5.08 192.456 5.128V3.916C192.3 3.868 192.12 3.832 191.928 3.832C191.184 3.832 190.656 4.168 190.236 4.636V3.952H189V10ZM197.051 10H198.287V0.999999H197.051V10ZM205.769 9.016L204.869 8.296C204.497 8.8 203.885 9.124 203.153 9.124C201.989 9.124 201.185 8.44 201.101 7.12H205.565C205.613 6.94 205.649 6.664 205.649 6.388C205.649 4.852 204.569 3.712 202.901 3.712C200.981 3.712 199.829 5.164 199.829 6.976C199.829 8.74 201.065 10.24 203.153 10.24C204.281 10.24 205.205 9.772 205.769 9.016ZM202.877 4.744C203.849 4.744 204.389 5.44 204.413 6.196H201.161C201.353 5.26 201.977 4.744 202.877 4.744ZM206.599 9.148C207.163 9.832 207.919 10.24 208.939 10.24C210.067 10.24 211.027 9.532 211.039 8.344C211.039 6.268 208.075 6.676 208.075 5.464C208.075 5.056 208.363 4.72 208.939 4.72C209.443 4.72 209.863 5.02 210.187 5.452L211.027 4.72C210.595 4.144 209.815 3.712 208.927 3.712C207.715 3.712 206.875 4.504 206.875 5.5C206.875 7.636 209.839 7.192 209.839 8.416C209.839 8.872 209.515 9.232 208.927 9.232C208.327 9.232 207.847 8.908 207.451 8.404L206.599 9.148ZM215.824 10H217.06V0.999999H215.824V10ZM219.706 2.608C220.162 2.608 220.546 2.224 220.546 1.768C220.546 1.312 220.162 0.927999 219.706 0.927999C219.25 0.927999 218.866 1.312 218.866 1.768C218.866 2.224 219.25 2.608 219.706 2.608ZM219.082 10H220.318V3.952H219.082V10ZM221.67 9.148C222.234 9.832 222.99 10.24 224.01 10.24C225.138 10.24 226.098 9.532 226.11 8.344C226.11 6.268 223.146 6.676 223.146 5.464C223.146 5.056 223.434 4.72 224.01 4.72C224.514 4.72 224.934 5.02 225.258 5.452L226.098 4.72C225.666 4.144 224.886 3.712 223.998 3.712C222.786 3.712 221.946 4.504 221.946 5.5C221.946 7.636 224.91 7.192 224.91 8.416C224.91 8.872 224.586 9.232 223.998 9.232C223.398 9.232 222.918 8.908 222.522 8.404L221.67 9.148ZM228.091 7.9C228.091 9.376 228.835 10.12 230.251 10.12C230.719 10.12 231.055 10.06 231.343 9.94V8.848C231.127 8.932 230.851 8.98 230.443 8.98C229.771 8.98 229.339 8.716 229.339 7.9V5.068H231.343V3.952H229.339V2.44H228.091V3.952H226.951V5.068H228.091V7.9ZM238.159 9.016L237.259 8.296C236.887 8.8 236.275 9.124 235.543 9.124C234.379 9.124 233.575 8.44 233.491 7.12H237.955C238.003 6.94 238.039 6.664 238.039 6.388C238.039 4.852 236.959 3.712 235.291 3.712C233.371 3.712 232.219 5.164 232.219 6.976C232.219 8.74 233.455 10.24 235.543 10.24C236.671 10.24 237.595 9.772 238.159 9.016ZM235.267 4.744C236.239 4.744 236.779 5.44 236.803 6.196H233.551C233.743 5.26 234.367 4.744 235.267 4.744ZM238.99 9.148C239.554 9.832 240.31 10.24 241.33 10.24C242.458 10.24 243.418 9.532 243.43 8.344C243.43 6.268 240.466 6.676 240.466 5.464C240.466 5.056 240.754 4.72 241.33 4.72C241.834 4.72 242.254 5.02 242.578 5.452L243.418 4.72C242.986 4.144 242.206 3.712 241.318 3.712C240.106 3.712 239.266 4.504 239.266 5.5C239.266 7.636 242.23 7.192 242.23 8.416C242.23 8.872 241.906 9.232 241.318 9.232C240.718 9.232 240.238 8.908 239.842 8.404L238.99 9.148ZM4.272 19.992L5.688 18H4.32L3.072 19.992H4.272ZM6.468 26.016L5.568 25.296C5.196 25.8 4.584 26.124 3.852 26.124C2.688 26.124 1.884 25.44 1.8 24.12H6.264C6.312 23.94 6.348 23.664 6.348 23.388C6.348 21.852 5.268 20.712 3.6 20.712C1.68 20.712 0.528 22.164 0.528 23.976C0.528 25.74 1.764 27.24 3.852 27.24C4.98 27.24 5.904 26.772 6.468 26.016ZM3.576 21.744C4.548 21.744 5.088 22.44 5.112 23.196H1.86C2.052 22.26 2.676 21.744 3.576 21.744ZM7.96894 27H9.20494V18H7.96894V27ZM16.6868 26.016L15.7868 25.296C15.4148 25.8 14.8028 26.124 14.0708 26.124C12.9068 26.124 12.1028 25.44 12.0188 24.12H16.4828C16.5308 23.94 16.5668 23.664 16.5668 23.388C16.5668 21.852 15.4868 20.712 13.8188 20.712C11.8988 20.712 10.7468 22.164 10.7468 23.976C10.7468 25.74 11.9827 27.24 14.0708 27.24C15.1988 27.24 16.1228 26.772 16.6868 26.016ZM13.7948 21.744C14.7668 21.744 15.3068 22.44 15.3308 23.196H12.0788C12.2708 22.26 12.8948 21.744 13.7948 21.744ZM20.9845 26.076C19.8085 26.076 18.9685 25.176 18.9685 23.976C18.9685 22.788 19.8085 21.876 20.9725 21.876C21.6685 21.876 22.2205 22.212 22.5565 22.68L23.5285 21.936C22.9765 21.192 22.0765 20.712 20.9725 20.712C18.9445 20.712 17.6725 22.212 17.6725 23.976C17.6725 25.74 18.9445 27.24 20.9725 27.24C22.0885 27.24 22.9765 26.76 23.5285 26.016L22.5565 25.272C22.2205 25.74 21.6685 26.076 20.9845 26.076ZM25.1922 24.9C25.1922 26.376 25.9362 27.12 27.3522 27.12C27.8202 27.12 28.1562 27.06 28.4442 26.94V25.848C28.2282 25.932 27.9522 25.98 27.5442 25.98C26.8722 25.98 26.4402 25.716 26.4402 24.9V22.068H28.4442V20.952H26.4402V19.44H25.1922V20.952H24.0522V22.068H25.1922V24.9ZM32.609 20.712C30.653 20.712 29.321 22.188 29.321 23.976C29.321 25.764 30.653 27.24 32.609 27.24C34.577 27.24 35.897 25.764 35.897 23.976C35.897 22.188 34.577 20.712 32.609 20.712ZM32.621 26.076C31.457 26.076 30.617 25.14 30.617 23.976C30.617 22.812 31.457 21.876 32.621 21.876C33.761 21.876 34.601 22.8 34.601 23.976C34.601 25.128 33.761 26.076 32.621 26.076ZM37.4416 27H38.6776V22.968C38.9896 22.452 39.4936 22.044 40.2616 22.044C40.5136 22.044 40.7056 22.08 40.8976 22.128V20.916C40.7416 20.868 40.5616 20.832 40.3696 20.832C39.6256 20.832 39.0976 21.168 38.6776 21.636V20.952H37.4416V27ZM43.6448 27.18C44.3888 27.18 45.1448 26.844 45.5768 26.316V27H46.8128V23.004C46.8128 21.672 45.9128 20.712 44.2808 20.712C43.2008 20.712 42.3368 21.168 41.7968 21.888L42.7208 22.596C43.0688 22.104 43.5848 21.804 44.2448 21.804C45.0248 21.804 45.5768 22.26 45.5768 23.004V23.316L43.6208 23.64C42.3368 23.856 41.6288 24.516 41.6288 25.428C41.6288 26.496 42.4448 27.18 43.6448 27.18ZM42.8768 25.38C42.8768 24.924 43.1888 24.6 43.9448 24.468L45.5768 24.192V25.236C45.2168 25.812 44.6288 26.172 43.8728 26.172C43.2488 26.172 42.8768 25.848 42.8768 25.38ZM48.7502 27H49.9862V18H48.7502V27ZM57.468 26.016L56.568 25.296C56.196 25.8 55.584 26.124 54.852 26.124C53.688 26.124 52.884 25.44 52.8 24.12H57.264C57.312 23.94 57.348 23.664 57.348 23.388C57.348 21.852 56.268 20.712 54.6 20.712C52.68 20.712 51.528 22.164 51.528 23.976C51.528 25.74 52.764 27.24 54.852 27.24C55.98 27.24 56.904 26.772 57.468 26.016ZM54.576 21.744C55.548 21.744 56.088 22.44 56.112 23.196H52.86C53.052 22.26 53.676 21.744 54.576 21.744ZM58.2986 26.148C58.8626 26.832 59.6186 27.24 60.6386 27.24C61.7666 27.24 62.7266 26.532 62.7386 25.344C62.7386 23.268 59.7746 23.676 59.7746 22.464C59.7746 22.056 60.0626 21.72 60.6386 21.72C61.1426 21.72 61.5626 22.02 61.8866 22.452L62.7266 21.72C62.2946 21.144 61.5146 20.712 60.6266 20.712C59.4146 20.712 58.5746 21.504 58.5746 22.5C58.5746 24.636 61.5386 24.192 61.5386 25.416C61.5386 25.872 61.2146 26.232 60.6266 26.232C60.0266 26.232 59.5466 25.908 59.1506 25.404L58.2986 26.148ZM64.7238 28.92L66.0318 25.56H64.6158L63.5718 28.92H64.7238ZM72.3205 19.992L73.2805 18.564L74.2405 19.992H75.3445L74.0965 18H72.4645L71.2165 19.992H72.3205ZM76.1125 26.016L75.2125 25.296C74.8405 25.8 74.2285 26.124 73.4965 26.124C72.3325 26.124 71.5285 25.44 71.4445 24.12H75.9085C75.9565 23.94 75.9925 23.664 75.9925 23.388C75.9925 21.852 74.9125 20.712 73.2445 20.712C71.3245 20.712 70.1725 22.164 70.1725 23.976C70.1725 25.74 71.4085 27.24 73.4965 27.24C74.6245 27.24 75.5485 26.772 76.1125 26.016ZM73.2205 21.744C74.1925 21.744 74.7325 22.44 74.7565 23.196H71.5045C71.6965 22.26 72.3205 21.744 73.2205 21.744ZM77.95 24.9C77.95 26.376 78.694 27.12 80.11 27.12C80.578 27.12 80.914 27.06 81.202 26.94V25.848C80.986 25.932 80.71 25.98 80.302 25.98C79.63 25.98 79.198 25.716 79.198 24.9V22.068H81.202V20.952H79.198V19.44H77.95V20.952H76.81V22.068H77.95V24.9ZM82.676 27H83.912V22.968C84.224 22.452 84.728 22.044 85.496 22.044C85.748 22.044 85.94 22.08 86.132 22.128V20.916C85.976 20.868 85.796 20.832 85.604 20.832C84.86 20.832 84.332 21.168 83.912 21.636V20.952H82.676V27ZM92.636 26.016L91.736 25.296C91.364 25.8 90.752 26.124 90.02 26.124C88.856 26.124 88.052 25.44 87.968 24.12H92.432C92.48 23.94 92.516 23.664 92.516 23.388C92.516 21.852 91.436 20.712 89.768 20.712C87.848 20.712 86.696 22.164 86.696 23.976C86.696 25.74 87.932 27.24 90.02 27.24C91.148 27.24 92.072 26.772 92.636 26.016ZM89.744 21.744C90.716 21.744 91.256 22.44 91.28 23.196H88.028C88.22 22.26 88.844 21.744 89.744 21.744ZM151.945 26.016L151.045 25.296C150.673 25.8 150.061 26.124 149.329 26.124C148.165 26.124 147.361 25.44 147.277 24.12H151.741C151.789 23.94 151.825 23.664 151.825 23.388C151.825 21.852 150.745 20.712 149.077 20.712C147.157 20.712 146.005 22.164 146.005 23.976C146.005 25.74 147.241 27.24 149.329 27.24C150.457 27.24 151.381 26.772 151.945 26.016ZM149.053 21.744C150.025 21.744 150.565 22.44 150.589 23.196H147.337C147.529 22.26 148.153 21.744 149.053 21.744ZM153.782 24.9C153.782 26.376 154.526 27.12 155.942 27.12C156.41 27.12 156.746 27.06 157.034 26.94V25.848C156.818 25.932 156.542 25.98 156.134 25.98C155.462 25.98 155.03 25.716 155.03 24.9V22.068H157.034V20.952H155.03V19.44H153.782V20.952H152.642V22.068H153.782V24.9ZM202.445 27.144C202.937 27.144 203.333 26.748 203.333 26.256C203.333 25.776 202.937 25.368 202.445 25.368C201.941 25.368 201.545 25.776 201.545 26.256C201.545 26.748 201.941 27.144 202.445 27.144ZM23.7566 45.86H26.3606L25.1006 53H26.4806L27.7406 45.86H30.3446L30.5726 44.6H23.9726L23.7566 45.86ZM34.2272 50.408C34.0352 51.488 33.4832 52.076 32.6312 52.076C31.6592 52.076 31.1912 51.464 31.3832 50.408L31.9952 46.952H30.7472L30.1592 50.264C29.8232 52.172 30.8312 53.24 32.5352 53.24C34.2032 53.24 35.1512 52.22 35.4752 50.408L36.0872 46.952H34.8392L34.2272 50.408ZM39.5371 55.952H40.7731L41.4091 52.352C41.8891 52.916 42.6331 53.24 43.4731 53.24C45.4771 53.24 46.8331 51.5 46.8331 49.556C46.8331 47.888 45.9091 46.712 44.1811 46.712C43.4611 46.712 42.8251 46.988 42.2611 47.492L42.3571 46.952H41.1211L39.5371 55.952ZM43.8211 47.876C44.8891 47.876 45.5251 48.632 45.5251 49.628C45.5251 50.984 44.6491 52.076 43.3771 52.076C42.5611 52.076 41.9731 51.656 41.6611 50.924L42.0331 48.812C42.4891 48.176 43.1371 47.876 43.8211 47.876ZM50.692 53.24C51.82 53.24 52.792 52.784 53.428 52.04L52.6 51.248C52.192 51.776 51.532 52.124 50.776 52.124C49.672 52.124 49.06 51.464 49.06 50.348C49.06 50.276 49.06 50.192 49.072 50.12H53.464C53.584 49.82 53.668 49.364 53.668 49.016C53.668 47.684 52.6 46.712 51.136 46.712C49.036 46.712 47.788 48.368 47.788 50.348C47.788 51.992 48.832 53.24 50.692 53.24ZM51.112 47.744C52.096 47.744 52.54 48.476 52.444 49.196H49.228C49.516 48.344 50.14 47.744 51.112 47.744ZM58.8483 50.408C58.6563 51.488 58.1043 52.076 57.2523 52.076C56.2803 52.076 55.8123 51.464 56.0043 50.408L56.6163 46.952H55.3683L54.7803 50.264C54.4443 52.172 55.4523 53.24 57.1563 53.24C58.8243 53.24 59.7723 52.22 60.0963 50.408L60.7083 46.952H59.4603L58.8483 50.408ZM62.0549 53L63.9389 50.744L65.1149 53H66.4469L64.8509 49.952L67.3829 46.952H65.9309L64.2149 49.016L63.1469 46.952H61.8149L63.3029 49.808L60.6029 53H62.0549ZM70.8968 53H72.1448L73.7288 44H72.4928L70.8968 53ZM76.9889 53.24C78.1169 53.24 79.0889 52.784 79.7249 52.04L78.8969 51.248C78.4889 51.776 77.8289 52.124 77.0729 52.124C75.9689 52.124 75.3569 51.464 75.3569 50.348C75.3569 50.276 75.3569 50.192 75.3689 50.12H79.7609C79.8809 49.82 79.9649 49.364 79.9649 49.016C79.9649 47.684 78.8969 46.712 77.4329 46.712C75.3329 46.712 74.0849 48.368 74.0849 50.348C74.0849 51.992 75.1289 53.24 76.9889 53.24ZM77.4089 47.744C78.3929 47.744 78.8369 48.476 78.7409 49.196H75.5249C75.8129 48.344 76.4369 47.744 77.4089 47.744ZM84.2376 46.952L85.3896 53H87.0216L90.2976 46.952H88.9176L86.3976 51.608L85.5336 46.952H84.2376ZM94.4813 45.992L96.2213 44H94.8053L93.2453 45.992H94.4813ZM93.1373 53.24C94.2653 53.24 95.2373 52.784 95.8733 52.04L95.0453 51.248C94.6373 51.776 93.9773 52.124 93.2213 52.124C92.1173 52.124 91.5053 51.464 91.5053 50.348C91.5053 50.276 91.5053 50.192 91.5173 50.12H95.9093C96.0293 49.82 96.1133 49.364 96.1133 49.016C96.1133 47.684 95.0453 46.712 93.5813 46.712C91.4813 46.712 90.2333 48.368 90.2333 50.348C90.2333 51.992 91.2773 53.24 93.1373 53.24ZM93.5573 47.744C94.5413 47.744 94.9853 48.476 94.8893 49.196H91.6733C91.9613 48.344 92.5853 47.744 93.5573 47.744ZM96.9476 53H98.1836L98.8676 49.112C99.2876 48.56 99.8516 48.044 100.632 48.044C100.86 48.044 101.028 48.08 101.184 48.128L101.412 46.916C101.256 46.856 101.064 46.832 100.86 46.832C100.068 46.832 99.5756 47.18 99.1196 47.696L99.2516 46.952H98.0156L96.9476 53ZM103.699 45.608C104.143 45.608 104.527 45.224 104.527 44.768C104.527 44.312 104.143 43.928 103.699 43.928C103.231 43.928 102.847 44.312 102.847 44.768C102.847 45.224 103.231 45.608 103.699 45.608ZM101.623 53H102.859L103.927 46.952H102.691L101.623 53ZM105.111 46.952L104.907 48.068H106.011L104.631 55.952H105.891L107.271 48.068H109.191L109.383 46.952H107.463L107.595 46.184C107.715 45.476 108.147 45.116 108.687 45.116C109.011 45.116 109.263 45.236 109.467 45.392L110.127 44.42C109.791 44.192 109.323 44 108.675 44C107.451 44 106.599 44.744 106.347 46.184L106.215 46.952H105.111ZM111.516 45.608C111.96 45.608 112.344 45.224 112.344 44.768C112.344 44.312 111.96 43.928 111.516 43.928C111.048 43.928 110.664 44.312 110.664 44.768C110.664 45.224 111.048 45.608 111.516 45.608ZM109.44 53H110.676L111.744 46.952H110.508L109.44 53ZM115.532 53.24C116.66 53.24 117.632 52.784 118.268 52.04L117.44 51.248C117.032 51.776 116.372 52.124 115.616 52.124C114.512 52.124 113.9 51.464 113.9 50.348C113.9 50.276 113.9 50.192 113.912 50.12H118.304C118.424 49.82 118.508 49.364 118.508 49.016C118.508 47.684 117.44 46.712 115.976 46.712C113.876 46.712 112.628 48.368 112.628 50.348C112.628 51.992 113.672 53.24 115.532 53.24ZM115.952 47.744C116.936 47.744 117.38 48.476 117.284 49.196H114.068C114.356 48.344 114.98 47.744 115.952 47.744ZM119.342 53H120.578L121.262 49.112C121.682 48.56 122.246 48.044 123.026 48.044C123.254 48.044 123.422 48.08 123.578 48.128L123.806 46.916C123.65 46.856 123.458 46.832 123.254 46.832C122.462 46.832 121.97 47.18 121.514 47.696L121.646 46.952H120.41L119.342 53ZM130.18 53.24C131.308 53.24 132.28 52.784 132.916 52.04L132.088 51.248C131.68 51.776 131.02 52.124 130.264 52.124C129.16 52.124 128.548 51.464 128.548 50.348C128.548 50.276 128.548 50.192 128.56 50.12H132.952C133.072 49.82 133.156 49.364 133.156 49.016C133.156 47.684 132.088 46.712 130.624 46.712C128.524 46.712 127.276 48.368 127.276 50.348C127.276 51.992 128.32 53.24 130.18 53.24ZM130.6 47.744C131.584 47.744 132.028 48.476 131.932 49.196H128.716C129.004 48.344 129.628 47.744 130.6 47.744ZM133.991 53H135.227L135.947 48.908L135.959 48.92C136.331 48.356 136.919 47.876 137.663 47.876C138.503 47.876 138.923 48.452 138.755 49.412L138.119 53H139.355L140.003 49.364C140.303 47.612 139.439 46.712 138.071 46.712C137.303 46.712 136.703 47.036 136.199 47.504L136.295 46.952H135.059L133.991 53ZM144.42 53H145.668L147.252 44H146.016L144.42 53ZM149.66 45.608C150.104 45.608 150.488 45.224 150.488 44.768C150.488 44.312 150.104 43.928 149.66 43.928C149.192 43.928 148.808 44.312 148.808 44.768C148.808 45.224 149.192 45.608 149.66 45.608ZM147.584 53H148.82L149.888 46.952H148.652L147.584 53ZM149.908 54.188C149.908 55.304 150.808 56 152.668 56C154.828 56 155.992 54.92 155.992 53.612C155.992 52.568 155.308 51.812 153.76 51.812H152.392C152.128 51.812 151.996 51.692 151.996 51.488C151.996 51.272 152.176 51.056 152.512 50.864C152.764 50.948 153.052 50.984 153.364 50.984C154.984 50.984 155.896 49.868 155.896 48.644C155.896 48.416 155.86 48.2 155.8 48.008H156.964L157.156 46.952H154.852C154.54 46.796 154.144 46.712 153.688 46.712C152.068 46.712 151.156 47.816 151.156 49.04C151.156 49.616 151.36 50.12 151.768 50.468C151.144 50.816 150.808 51.248 150.808 51.8C150.808 52.064 150.916 52.316 151.096 52.508C150.364 52.904 149.908 53.468 149.908 54.188ZM154.732 48.68C154.732 49.4 154.228 50.036 153.376 50.036C152.692 50.036 152.308 49.58 152.308 49.016C152.308 48.284 152.812 47.66 153.688 47.66C154.348 47.66 154.732 48.104 154.732 48.68ZM151.156 54.02C151.156 53.636 151.396 53.18 151.984 52.892H153.652C154.456 52.892 154.72 53.264 154.72 53.732C154.72 54.428 154.12 54.992 152.728 54.992C151.6 54.992 151.156 54.608 151.156 54.02ZM157.229 53H158.465L159.185 48.908L159.197 48.92C159.569 48.356 160.157 47.876 160.901 47.876C161.741 47.876 162.161 48.452 161.993 49.412L161.357 53H162.593L163.241 49.364C163.541 47.612 162.677 46.712 161.309 46.712C160.541 46.712 159.941 47.036 159.437 47.504L159.533 46.952H158.297L157.229 53ZM167.352 53.24C168.48 53.24 169.452 52.784 170.088 52.04L169.26 51.248C168.852 51.776 168.192 52.124 167.436 52.124C166.332 52.124 165.72 51.464 165.72 50.348C165.72 50.276 165.72 50.192 165.732 50.12H170.124C170.244 49.82 170.328 49.364 170.328 49.016C170.328 47.684 169.26 46.712 167.796 46.712C165.696 46.712 164.448 48.368 164.448 50.348C164.448 51.992 165.492 53.24 167.352 53.24ZM167.772 47.744C168.756 47.744 169.2 48.476 169.104 49.196H165.888C166.176 48.344 166.8 47.744 167.772 47.744ZM175.273 50.444H176.197L177.469 44.6H176.053L175.273 50.444ZM175.429 53.144C175.909 53.144 176.317 52.748 176.317 52.256C176.317 51.776 175.909 51.368 175.429 51.368C174.925 51.368 174.529 51.776 174.529 52.256C174.529 52.748 174.925 53.144 175.429 53.144Z" fill="#989595"/>
<path d="M111.384 2.992L112.152 1.828L112.92 2.992H114.564L113.34 0.999999H110.964L109.74 2.992H111.384ZM115.02 9.028L113.676 7.96C113.4 8.308 112.896 8.536 112.32 8.536C111.6 8.536 111.072 8.32 110.892 7.504H114.804C114.864 7.288 114.924 6.904 114.924 6.496C114.924 4.852 113.796 3.712 112.08 3.712C110.028 3.712 108.936 5.224 108.936 6.976C108.936 8.74 110.112 10.24 112.332 10.24C113.496 10.24 114.444 9.784 115.02 9.028ZM112.032 5.248C112.74 5.248 113.052 5.752 113.076 6.16H110.904C111.048 5.548 111.42 5.248 112.032 5.248ZM116.641 7.648C116.641 9.136 117.325 10.12 118.969 10.12C119.533 10.12 119.905 10.048 120.229 9.904V8.26C120.049 8.332 119.761 8.392 119.317 8.392C118.813 8.392 118.561 8.128 118.561 7.648V5.656H120.217V3.952H118.561V2.44H116.641V3.952H115.513V5.656H116.641V7.648ZM121.425 10H123.333V6.328C123.453 6.124 123.909 5.716 124.605 5.716C124.917 5.716 125.145 5.752 125.349 5.8V3.916C125.205 3.868 125.013 3.832 124.797 3.832C124.173 3.832 123.705 4.096 123.333 4.444V3.952H121.425V10ZM131.918 9.028L130.574 7.96C130.298 8.308 129.794 8.536 129.218 8.536C128.498 8.536 127.97 8.32 127.79 7.504H131.702C131.762 7.288 131.822 6.904 131.822 6.496C131.822 4.852 130.694 3.712 128.978 3.712C126.926 3.712 125.834 5.224 125.834 6.976C125.834 8.74 127.01 10.24 129.23 10.24C130.394 10.24 131.342 9.784 131.918 9.028ZM128.93 5.248C129.638 5.248 129.95 5.752 129.974 6.16H127.802C127.946 5.548 128.318 5.248 128.93 5.248ZM137.326 3.292C137.962 3.292 138.514 2.728 138.514 2.08C138.514 1.432 137.962 0.879999 137.326 0.879999C136.666 0.879999 136.114 1.432 136.114 2.08C136.114 2.728 136.666 3.292 137.326 3.292ZM136.354 10H138.262V3.952H136.354V10ZM139.823 10H141.731V6.232C141.851 6.028 142.151 5.5 142.823 5.5C143.435 5.5 143.759 5.92 143.759 6.532V10H145.679V6.448C145.679 4.612 144.623 3.712 143.339 3.712C142.631 3.712 142.127 3.952 141.731 4.288V3.952H139.823V10ZM146.738 9.088C147.35 9.784 148.118 10.24 149.282 10.24C150.446 10.24 151.562 9.544 151.586 8.176C151.586 6.064 148.79 6.376 148.79 5.596C148.79 5.392 148.946 5.224 149.282 5.224C149.714 5.224 150.074 5.548 150.362 5.884L151.61 4.768C151.154 4.18 150.242 3.712 149.282 3.712C147.95 3.712 146.978 4.54 146.978 5.692C146.978 7.816 149.774 7.48 149.774 8.308C149.774 8.548 149.606 8.728 149.258 8.728C148.718 8.728 148.31 8.368 147.986 7.948L146.738 9.088ZM155.796 8.452C154.98 8.452 154.404 7.876 154.404 6.976C154.404 6.088 154.98 5.5 155.76 5.5C156.288 5.5 156.66 5.74 156.876 6.052L158.364 4.924C157.8 4.18 156.9 3.712 155.784 3.712C153.648 3.712 152.424 5.212 152.424 6.976C152.424 8.74 153.648 10.24 155.784 10.24C156.9 10.24 157.8 9.772 158.364 9.028L156.876 7.9C156.66 8.212 156.276 8.452 155.796 8.452ZM159.3 10H161.208V6.328C161.328 6.124 161.784 5.716 162.48 5.716C162.792 5.716 163.02 5.752 163.224 5.8V3.916C163.08 3.868 162.888 3.832 162.672 3.832C162.048 3.832 161.58 4.096 161.208 4.444V3.952H159.3V10ZM165.217 3.292C165.853 3.292 166.405 2.728 166.405 2.08C166.405 1.432 165.853 0.879999 165.217 0.879999C164.557 0.879999 164.005 1.432 164.005 2.08C164.005 2.728 164.557 3.292 165.217 3.292ZM164.245 10H166.153V3.952H164.245V10ZM168.134 7.648C168.134 9.136 168.818 10.12 170.462 10.12C171.026 10.12 171.398 10.048 171.722 9.904V8.26C171.542 8.332 171.254 8.392 170.81 8.392C170.306 8.392 170.054 8.128 170.054 7.648V5.656H171.71V3.952H170.054V2.44H168.134V3.952H167.006V5.656H168.134V7.648ZM96.4353 20.952V22.656H97.5633V27H99.4833V22.656H101.139V20.952H99.4833V20.34C99.4833 19.968 99.7233 19.704 100.119 19.704C100.395 19.704 100.611 19.812 100.743 19.92L101.547 18.324C101.115 18.12 100.635 18 100.083 18C98.4273 18 97.5633 19.116 97.5633 20.4V20.952H96.4353ZM102.053 27H103.961V23.328C104.081 23.124 104.537 22.716 105.233 22.716C105.545 22.716 105.773 22.752 105.977 22.8V20.916C105.833 20.868 105.641 20.832 105.425 20.832C104.801 20.832 104.333 21.096 103.961 21.444V20.952H102.053V27ZM108.446 27.18C109.082 27.18 109.766 26.916 110.102 26.544V27H111.998V23.184C111.998 21.864 111.11 20.712 109.19 20.712C108.062 20.712 107.138 21.168 106.586 21.936L107.978 22.992C108.254 22.596 108.626 22.356 109.13 22.356C109.694 22.356 110.09 22.704 110.102 23.16L108.398 23.448C107.078 23.664 106.37 24.372 106.37 25.296C106.37 26.472 107.222 27.18 108.446 27.18ZM108.254 25.2C108.254 24.924 108.422 24.744 108.914 24.66L110.102 24.456V25.056C109.862 25.416 109.478 25.704 108.866 25.704C108.494 25.704 108.254 25.512 108.254 25.2ZM113.503 27H115.411V23.232C115.531 23.028 115.831 22.5 116.503 22.5C117.115 22.5 117.439 22.92 117.439 23.532V27H119.359V23.448C119.359 21.612 118.303 20.712 117.019 20.712C116.311 20.712 115.807 20.952 115.411 21.288V20.952H113.503V27ZM123.874 25.452C123.058 25.452 122.482 24.876 122.482 23.976C122.482 23.088 123.058 22.5 123.838 22.5C124.366 22.5 124.738 22.74 124.954 23.052L126.442 21.924C125.878 21.18 124.978 20.712 123.862 20.712C121.726 20.712 120.502 22.212 120.502 23.976C120.502 25.452 121.366 26.748 122.902 27.132L121.882 28.92H123.73L124.786 27.12C125.482 26.94 126.046 26.556 126.442 26.028L124.954 24.9C124.738 25.212 124.354 25.452 123.874 25.452ZM129.012 27.18C129.648 27.18 130.332 26.916 130.668 26.544V27H132.564V23.184C132.564 21.864 131.676 20.712 129.756 20.712C128.628 20.712 127.704 21.168 127.152 21.936L128.544 22.992C128.82 22.596 129.192 22.356 129.696 22.356C130.26 22.356 130.656 22.704 130.668 23.16L128.964 23.448C127.644 23.664 126.936 24.372 126.936 25.296C126.936 26.472 127.788 27.18 129.012 27.18ZM128.82 25.2C128.82 24.924 128.988 24.744 129.48 24.66L130.668 24.456V25.056C130.428 25.416 130.044 25.704 129.432 25.704C129.06 25.704 128.82 25.512 128.82 25.2ZM135.041 20.292C135.677 20.292 136.229 19.728 136.229 19.08C136.229 18.432 135.677 17.88 135.041 17.88C134.381 17.88 133.829 18.432 133.829 19.08C133.829 19.728 134.381 20.292 135.041 20.292ZM134.069 27H135.977V20.952H134.069V27ZM136.977 26.088C137.589 26.784 138.357 27.24 139.521 27.24C140.685 27.24 141.801 26.544 141.825 25.176C141.825 23.064 139.029 23.376 139.029 22.596C139.029 22.392 139.185 22.224 139.521 22.224C139.953 22.224 140.313 22.548 140.601 22.884L141.849 21.768C141.393 21.18 140.481 20.712 139.521 20.712C138.189 20.712 137.217 21.54 137.217 22.692C137.217 24.816 140.013 24.48 140.013 25.308C140.013 25.548 139.845 25.728 139.497 25.728C138.957 25.728 138.549 25.368 138.225 24.948L136.977 26.088ZM161.514 27H163.422V23.232C163.554 23.028 163.794 22.5 164.394 22.5C164.934 22.5 165.21 22.872 165.21 23.412V27H167.13V23.328C167.13 23.28 167.13 23.232 167.13 23.184C167.226 23.028 167.466 22.5 168.078 22.5C168.618 22.5 168.894 22.872 168.894 23.412V27H170.814V23.328C170.814 21.576 169.806 20.712 168.594 20.712C167.598 20.712 167.046 21.12 166.65 21.588C166.242 21 165.618 20.712 164.91 20.712C164.262 20.712 163.782 20.952 163.422 21.264V20.952H161.514V27ZM174.071 27.18C174.707 27.18 175.391 26.916 175.727 26.544V27H177.623V23.184C177.623 21.864 176.735 20.712 174.815 20.712C173.687 20.712 172.763 21.168 172.211 21.936L173.603 22.992C173.879 22.596 174.251 22.356 174.755 22.356C175.319 22.356 175.715 22.704 175.727 23.16L174.023 23.448C172.703 23.664 171.995 24.372 171.995 25.296C171.995 26.472 172.847 27.18 174.071 27.18ZM173.879 25.2C173.879 24.924 174.047 24.744 174.539 24.66L175.727 24.456V25.056C175.487 25.416 175.103 25.704 174.491 25.704C174.119 25.704 173.879 25.512 173.879 25.2ZM180.052 20.292C180.7 20.292 181.252 19.728 181.252 19.08C181.252 18.432 180.7 17.88 180.052 17.88C179.404 17.88 178.852 18.432 178.852 19.08C178.852 19.728 179.404 20.292 180.052 20.292ZM181.036 27.552V20.952H179.128V27.552C179.128 28.008 178.876 28.272 178.372 28.272C177.928 28.272 177.64 28.212 177.46 28.14V29.784C177.772 29.928 178.144 30 178.708 30C180.364 30 181.036 29.028 181.036 27.552ZM188.32 26.028L186.976 24.96C186.7 25.308 186.196 25.536 185.62 25.536C184.9 25.536 184.372 25.32 184.192 24.504H188.104C188.164 24.288 188.224 23.904 188.224 23.496C188.224 21.852 187.096 20.712 185.38 20.712C183.328 20.712 182.236 22.224 182.236 23.976C182.236 25.74 183.412 27.24 185.632 27.24C186.796 27.24 187.744 26.784 188.32 26.028ZM185.332 22.248C186.04 22.248 186.352 22.752 186.376 23.16H184.204C184.348 22.548 184.72 22.248 185.332 22.248ZM193.292 24.372C193.292 25.008 192.968 25.452 192.284 25.452C191.576 25.452 191.264 25.008 191.264 24.372V20.952H189.344V24.264C189.344 26.076 190.388 27.24 192.272 27.24C194.132 27.24 195.212 26.076 195.212 24.264V20.952H193.292V24.372ZM196.647 27H198.555V23.328C198.675 23.124 199.131 22.716 199.827 22.716C200.139 22.716 200.367 22.752 200.571 22.8V20.916C200.427 20.868 200.235 20.832 200.019 20.832C199.395 20.832 198.927 21.096 198.555 21.444V20.952H196.647V27Z" fill="#656565"/>
</svg>
