<svg width="64" height="82" viewBox="0 0 64 82" fill="none" xmlns="http://www.w3.org/2000/svg">
<path d="M58.0766 35.675C55.7959 31.9699 52.5413 28.9624 48.668 26.9808C48.201 26.7426 47.6896 26.604 47.1662 26.5736C46.6429 26.5433 46.1189 26.6219 45.6275 26.8045C45.136 26.9871 44.6879 27.2697 44.3113 27.6345C43.9348 27.9992 43.638 28.4382 43.4399 28.9235C43.0932 29.8203 43.0929 30.8141 43.4391 31.7111C43.7853 32.608 44.4531 33.3439 45.3124 33.7753C49.3422 35.8606 53.9456 40.4354 55.1694 50.4468C54.8871 51.5405 53.2333 53.0627 52.8513 54.4953C52.4509 55.9967 52.5507 57.3983 52.701 57.7486C52.8513 58.0989 53.602 58.5995 54.4529 56.3471L54.4617 56.3238C54.5091 56.2114 54.5939 56.1188 54.7018 56.0618C54.8096 56.0047 54.9338 55.9867 55.0535 56.0107C55.1731 56.0347 55.2807 56.0993 55.3581 56.1936C55.4356 56.2879 55.4781 56.406 55.4784 56.528C55.4784 56.6444 55.472 56.7612 55.4731 56.8787C55.5239 61.2432 57.0694 62.4628 59.161 62.5023H59.2341C61.2929 62.5023 62.9848 60.5433 63.049 57.0209C63.2067 48.3736 61.5391 41.1917 58.0766 35.675Z" fill="black" stroke="black" stroke-width="0.705555" stroke-linecap="round" stroke-linejoin="round"/>
<path d="M45.5883 80.5398C44.0106 80.5435 42.4408 80.3177 40.9281 79.8695C38.4172 79.1044 36.1878 77.6155 34.5192 75.5893L33.3928 74.2378L34.8296 71.8248C39.5695 63.7815 40.4772 60.8972 40.6427 59.9902C40.5679 59.8843 40.4864 59.7598 40.4032 59.6212C39.6549 58.3741 32.1249 46.1902 32.049 46.0675C31.5235 45.2128 31.3584 44.1846 31.5899 43.2084C31.8215 42.2322 32.4309 41.3878 33.2843 40.8603C34.1378 40.3328 35.1656 40.1654 36.1423 40.3948C37.119 40.6242 37.9649 41.2316 38.4943 42.0839C38.8019 42.582 45.9693 54.1789 46.8731 55.6775L46.9278 55.7526C49.3891 59.0962 48.7104 62.7122 43.1428 72.5332C43.8226 72.6492 44.7444 72.9946 46.291 72.9537C46.8071 72.9408 47.3204 73.0335 47.7994 73.2261C48.2784 73.4186 48.713 73.707 49.0766 74.0734C49.4402 74.4399 49.7251 74.8768 49.9139 75.3573C50.1027 75.8378 50.1913 76.3518 50.1744 76.8678C50.1217 77.8483 49.6983 78.7722 48.9899 79.4522C48.2814 80.1322 47.341 80.5175 46.3591 80.5299C46.095 80.5365 45.838 80.5398 45.5883 80.5398Z" fill="black" stroke="black" stroke-width="0.705555" stroke-linecap="round" stroke-linejoin="round"/>
<path d="M55.0286 22.866C54.8849 19.7879 54.1224 16.7703 52.7867 13.9934C51.451 11.2166 49.5693 8.7373 47.2542 6.70372C44.9391 4.67014 42.2379 3.12393 39.3119 2.15741C36.386 1.19089 33.2953 0.823889 30.2244 1.07831C27.1534 1.33274 24.1653 2.20337 21.4383 3.63823C18.7113 5.07309 16.3014 7.04275 14.3525 9.42961C12.4036 11.8165 10.9556 14.5716 10.0951 17.5304C9.23457 20.4893 8.97908 23.5912 9.34392 26.6509C9.40769 27.1763 9.35752 27.7093 9.1968 28.2135C9.03609 28.7177 8.76861 29.1814 8.41258 29.573C5.71101 32.5296 2.59176 37.4957 1.50379 45.2607C0.718546 50.8533 0.852008 56.5367 1.8989 62.0864C2.12131 63.0618 2.72052 63.9097 3.56576 64.4449C4.411 64.9801 5.43365 65.1593 6.41051 64.9433C7.38738 64.7273 8.23914 64.1337 8.77992 63.292C9.3207 62.4503 9.50658 61.4288 9.297 60.4506C9.29206 60.4283 9.12061 59.6219 8.94845 58.2531C9.10297 57.7567 9.43282 57.7328 9.71398 57.9088C10.1144 58.1589 12.0667 59.7104 12.2166 58.3593C12.3665 57.0082 10.8651 54.4551 9.76407 53.504C8.66306 52.5529 8.66306 50.6511 8.66306 50.6511L8.62778 50.6388C8.6825 49.1912 8.80966 47.7472 9.00878 46.3123C9.4136 43.3653 10.3309 40.5118 11.7192 37.8809C11.8198 37.6995 11.9642 37.5462 12.1393 37.4349C12.3143 37.3236 12.5145 37.258 12.7215 37.244C12.9284 37.2299 13.1356 37.268 13.3241 37.3546C13.5126 37.4412 13.6764 37.5736 13.8006 37.7398C15.6684 40.2187 18.0179 42.2945 20.7079 43.8428C21.0171 44.0198 21.2854 44.2602 21.4951 44.5482C21.7048 44.8362 21.8512 45.1653 21.9247 45.514C22.6133 48.7856 24.2332 57.8072 24.931 72.9625C22.6052 73.1742 20.1012 73.395 20.0599 73.3989C19.0883 73.4851 18.1874 73.9426 17.5448 74.6764C16.9021 75.4101 16.5672 76.3634 16.6097 77.3378C16.6523 78.3123 17.069 79.2328 17.7732 79.9077C18.4774 80.5826 19.4147 80.9599 20.3901 80.961C20.5019 80.961 20.6152 80.9561 20.7288 80.9462C21.0053 80.9215 27.525 80.3437 29.2367 80.1726L32.7666 79.8198L32.6463 76.2744C32.1965 63.0255 31.0588 53.824 30.1574 48.3422C30.1264 48.1599 30.1359 47.973 30.1855 47.7949C30.2351 47.6168 30.3234 47.4518 30.4442 47.3118C30.565 47.1718 30.7152 47.0602 30.8842 46.9851C31.0531 46.9099 31.2366 46.8731 31.4214 46.8771C31.6538 46.8846 31.8873 46.8883 32.1221 46.888C35.2252 46.8875 38.296 46.2574 41.1485 45.0357C44.001 43.8139 46.5759 42.0261 48.7174 39.7803C50.8589 37.5345 52.5224 34.8776 53.6072 31.9702C54.692 29.0629 55.1756 25.9657 55.0286 22.866Z" fill="#FFEE1A" stroke="black" stroke-width="0.705555" stroke-linecap="round" stroke-linejoin="round"/>
<path d="M26.1767 24.9848H23.1164C22.6903 24.9934 22.2679 24.9042 21.8816 24.7241C21.4477 24.5298 21.0773 24.2173 20.8125 23.8224C20.5478 23.4276 20.3994 22.9662 20.3844 22.491C20.3932 22.0634 20.5138 21.6455 20.7343 21.279C20.9548 20.9124 21.2674 20.61 21.641 20.4019C22.0798 20.1563 22.5763 20.0325 23.079 20.0434H26.2638C26.7665 20.0325 27.263 20.1563 27.7018 20.4019C28.0754 20.61 28.388 20.9124 28.6085 21.279C28.829 21.6455 28.9496 22.0634 28.9583 22.491C28.9537 22.8321 28.8769 23.1684 28.7331 23.4778C28.5892 23.7871 28.3815 24.0626 28.1237 24.2859C27.583 24.7509 26.8896 24.9998 26.1767 24.9848Z" fill="white" stroke="black" stroke-width="0.705555" stroke-linecap="round" stroke-linejoin="round"/>
<path d="M26.6212 24.9626C27.9755 24.9626 29.0733 23.8647 29.0733 22.5104C29.0733 21.1561 27.9755 20.0582 26.6212 20.0582C25.2669 20.0582 24.169 21.1561 24.169 22.5104C24.169 23.8647 25.2669 24.9626 26.6212 24.9626Z" fill="black"/>
<path d="M42.0792 24.9848H39.0203C38.5942 24.9934 38.1718 24.9042 37.7855 24.7241C37.3516 24.5298 36.981 24.2174 36.7162 23.8225C36.4513 23.4276 36.303 22.9662 36.288 22.491C36.2968 22.0633 36.4174 21.6454 36.638 21.2789C36.8585 20.9123 37.1712 20.6099 37.5449 20.4018C37.9837 20.1562 38.4802 20.0325 38.9829 20.0434H42.1663C42.669 20.0325 43.1655 20.1563 43.6042 20.4018C43.9779 20.61 44.2905 20.9124 44.511 21.2789C44.7314 21.6455 44.8521 22.0634 44.8608 22.491C44.8562 22.8321 44.7795 23.1684 44.6357 23.4777C44.4919 23.787 44.2843 24.0625 44.0265 24.2859C43.4858 24.751 42.7923 24.9999 42.0792 24.9848Z" fill="white" stroke="black" stroke-width="0.705555" stroke-linecap="round" stroke-linejoin="round"/>
<path d="M42.5237 24.9626C43.878 24.9626 44.9758 23.8647 44.9758 22.5104C44.9758 21.1561 43.878 20.0582 42.5237 20.0582C41.1694 20.0582 40.0715 21.1561 40.0715 22.5104C40.0715 23.8647 41.1694 24.9626 42.5237 24.9626Z" fill="black"/>
</svg>
