<svg width="55" height="81" viewBox="0 0 55 81" fill="none" xmlns="http://www.w3.org/2000/svg">
<path d="M42.0469 28.7515C42.246 28.4343 42.5057 28.1594 42.811 27.9426C43.1164 27.7257 43.4615 27.5712 43.8266 27.4877C44.1917 27.4043 44.5697 27.3936 44.9389 27.4563C45.3082 27.519 45.6615 27.6538 45.9786 27.853C47.5545 28.8408 52.7982 32.799 54.1098 42.1677C54.7004 46.3773 54.5998 50.6551 53.812 54.8324C53.6488 55.5709 53.1988 56.2143 52.5611 56.6211C51.9235 57.0279 51.1504 57.1647 50.4118 57.0014C49.6733 56.8382 49.0298 56.3882 48.623 55.7505C48.2163 55.1129 48.0795 54.3397 48.2427 53.6012C48.2463 53.5843 48.375 52.9771 48.5052 51.947C48.3888 51.5731 48.1404 51.5554 47.9288 51.6877C47.6275 51.8761 46.1578 53.0442 46.045 52.0267C45.9321 51.0093 47.0624 49.0878 47.891 48.372C48.7197 47.6562 48.7201 46.2243 48.7201 46.2243L48.7479 46.2151C48.7077 45.186 48.6199 44.0921 48.4611 42.9582C47.9556 39.3479 46.2411 34.7526 42.9454 32.6833C42.3049 32.281 41.8504 31.6408 41.6819 30.9035C41.5134 30.1662 41.6447 29.3921 42.0469 28.7515Z" fill="black" stroke="black" stroke-width="0.705555" stroke-miterlimit="10"/>
<path d="M40.9127 79.3211C39.6229 79.3242 38.3395 79.1397 37.1028 78.7733C35.0502 78.148 33.2279 76.9309 31.864 75.2744L30.9433 74.1699L32.1177 72.1972C35.9922 65.6224 36.7341 63.2652 36.8692 62.524C36.8082 62.4362 36.7419 62.3356 36.6734 62.222C36.0621 61.2028 28.1905 49.5647 28.1284 49.4645C27.6966 48.7659 27.5601 47.9244 27.7488 47.125C27.9375 46.3257 28.4359 45.6341 29.1346 45.2023C29.8332 44.7705 30.6747 44.6339 31.4741 44.8226C32.2734 45.0113 32.965 45.5098 33.3968 46.2084C33.6484 46.6155 41.2232 57.7735 41.9619 58.9983L42.0067 59.0601C44.0175 61.793 43.4637 64.7486 38.9132 72.7761C39.7519 73.0044 40.6172 73.1201 41.4864 73.12C41.9084 73.1094 42.3282 73.1851 42.7199 73.3426C43.1116 73.5 43.467 73.7358 43.7643 74.0355C44.0616 74.3352 44.2945 74.6925 44.4488 75.0855C44.603 75.4785 44.6754 75.8988 44.6614 76.3208C44.6183 77.1222 44.2722 77.8774 43.6931 78.4332C43.1141 78.989 42.3454 79.3039 41.5428 79.3141C41.3276 79.3188 41.1176 79.3211 40.9127 79.3211Z" fill="black" stroke="black" stroke-width="0.705555" stroke-miterlimit="10"/>
<path d="M49.5373 26.2003L29.9988 1.80182C29.4836 1.28833 28.7859 1 28.0585 1C27.3311 1 26.6334 1.28833 26.1182 1.80182L6.57997 26.2003C6.06631 26.7154 5.77787 27.4131 5.77787 28.1405C5.77787 28.868 6.06631 29.5657 6.57997 30.0808L6.69921 30.2297C4.63864 32.4384 2.2133 36.2057 1.37898 42.1663C0.788146 46.3759 0.888716 50.6538 1.67672 54.831C1.84628 55.563 2.2979 56.1985 2.9334 56.5994C3.56891 57.0003 4.33697 57.1342 5.07065 56.972C5.80434 56.8098 6.44434 56.3646 6.85162 55.7332C7.25889 55.1017 7.4005 54.3351 7.24567 53.5998C7.24214 53.5828 7.11338 52.9757 6.98356 51.9456C7.09963 51.5717 7.34798 51.554 7.55965 51.6863C7.86127 51.8747 9.33058 53.0427 9.44347 52.0253C9.55636 51.0079 8.42642 49.0863 7.59739 48.3706C6.76837 47.6548 6.76835 46.2229 6.76835 46.2229L6.74083 46.2137C6.78193 45.124 6.87767 44.037 7.02766 42.9568C7.40266 40.2782 8.44511 37.0591 10.3032 34.7301L16.3096 42.2305C18.0442 44.3953 18.9676 47.0983 18.9201 49.872C18.821 55.6036 18.6972 62.3511 18.6453 63.0239C18.6355 63.1558 18.6312 63.2765 18.6305 63.3834C18.0911 63.9097 16.1219 65.4027 9.15701 68.5223L7.058 69.4515L7.16947 70.8852C7.32335 73.0252 8.10515 75.0724 9.417 76.7702C10.2135 77.7845 11.1531 78.6776 12.2064 79.4217C12.3736 79.5393 12.5464 79.6589 12.7247 79.7805C13.3851 80.2367 14.1943 80.4248 14.9883 80.3066C15.7822 80.1883 16.5015 79.7726 17.0003 79.1437C17.2555 78.8078 17.4395 78.4233 17.5409 78.0139C17.6423 77.6044 17.659 77.1785 17.59 76.7623C17.521 76.3462 17.3677 75.9485 17.1396 75.5936C16.9115 75.2388 16.6133 74.9342 16.2634 74.6987C15.5546 74.1956 14.9159 73.6006 14.364 72.9292C22.7206 69.0158 24.8838 66.9267 24.8249 63.5333V63.4574C24.881 62.706 24.9851 58.6113 25.0754 54.8327C25.0783 54.7123 25.1181 54.5957 25.1895 54.4987C25.2609 54.4016 25.3604 54.3289 25.4745 54.2904C25.5887 54.2519 25.7119 54.2494 25.8275 54.2833C25.9431 54.3172 26.0454 54.3859 26.1207 54.48C26.6358 54.9936 27.3335 55.2821 28.0609 55.2821C28.7884 55.2821 29.4861 54.9936 30.0012 54.48L49.5394 30.0819C50.0531 29.5665 50.3414 28.8683 50.341 28.1406C50.3406 27.4129 50.0516 26.7151 49.5373 26.2003Z" fill="#FF6700" stroke="black" stroke-width="0.705555" stroke-miterlimit="10"/>
<path d="M25.5232 31.167C25.7321 31.1682 25.9378 31.1164 26.1212 31.0164C26.3046 30.9164 26.4597 30.7715 26.5718 30.5952C26.684 30.419 26.7496 30.2172 26.7625 30.0087C26.7754 29.8002 26.7353 29.5919 26.6457 29.4031C26.3158 28.7336 25.8049 28.1697 25.1711 27.7755C24.5372 27.3812 23.8057 27.1722 23.0592 27.1722C22.3127 27.1722 21.5812 27.3812 20.9473 27.7755C20.3135 28.1697 19.8027 28.7336 19.4727 29.4031C19.3832 29.5919 19.343 29.8002 19.3559 30.0087C19.3688 30.2172 19.4344 30.419 19.5466 30.5952C19.6588 30.7715 19.8138 30.9164 19.9972 31.0164C20.1806 31.1164 20.3864 31.1682 20.5952 31.167H25.5232Z" fill="white" stroke="black" stroke-width="0.705555" stroke-linecap="round" stroke-linejoin="round"/>
<path d="M24.9467 31.3695C25.9047 31.3695 26.6813 30.5929 26.6813 29.6349C26.6813 28.6769 25.9047 27.9003 24.9467 27.9003C23.9887 27.9003 23.2121 28.6769 23.2121 29.6349C23.2121 30.5929 23.9887 31.3695 24.9467 31.3695Z" fill="black"/>
<path d="M38.051 31.167C38.2599 31.1682 38.4657 31.1164 38.6491 31.0164C38.8325 30.9164 38.9875 30.7715 39.0996 30.5952C39.2118 30.419 39.2774 30.2172 39.2903 30.0087C39.3033 29.8002 39.2631 29.5919 39.1735 29.4031C38.8435 28.7336 38.3327 28.1698 37.6988 27.7755C37.0649 27.3813 36.3333 27.1723 35.5869 27.1723C34.8404 27.1723 34.1088 27.3813 33.4749 27.7755C32.8411 28.1698 32.3302 28.7336 32.0002 29.4031C31.9106 29.5919 31.8704 29.8003 31.8834 30.0088C31.8963 30.2173 31.962 30.4191 32.0742 30.5954C32.1863 30.7716 32.3414 30.9165 32.5249 31.0165C32.7083 31.1165 32.9141 31.1683 33.1231 31.167H38.051Z" fill="white" stroke="black" stroke-width="0.705555" stroke-linecap="round" stroke-linejoin="round"/>
<path d="M37.4746 31.3695C38.4326 31.3695 39.2092 30.5929 39.2092 29.6349C39.2092 28.6769 38.4326 27.9003 37.4746 27.9003C36.5166 27.9003 35.74 28.6769 35.74 29.6349C35.74 30.5929 36.5166 31.3695 37.4746 31.3695Z" fill="black"/>
</svg>
