<svg width="75" height="66" viewBox="0 0 75 66" fill="none" xmlns="http://www.w3.org/2000/svg">
<path d="M46.2751 47.9857V65.3688H55.4315C55.7697 65.3688 56.1045 65.3022 56.417 65.1728C56.7294 65.0434 57.0133 64.8537 57.2525 64.6145C57.4916 64.3754 57.6813 64.0915 57.8107 63.7791C57.9401 63.4666 58.0068 63.1317 58.0068 62.7936C58.0068 62.4554 57.9401 62.1205 57.8107 61.808C57.6813 61.4956 57.4916 61.2117 57.2525 60.9726C57.0133 60.7334 56.7294 60.5437 56.417 60.4143C56.1045 60.2849 55.7697 60.2183 55.4315 60.2183H52.284V44.9818H46.2035L46.2751 47.9857Z" fill="black" stroke="black" stroke-width="0.705555" stroke-linecap="round" stroke-linejoin="round"/>
<path d="M61.8545 30.1264C62.0439 29.8247 62.2908 29.5633 62.5813 29.357C62.8717 29.1508 63.2 29.0038 63.5472 28.9245C63.8945 28.8451 64.254 28.835 64.6051 28.8946C64.9563 28.9542 65.2923 29.0824 65.5939 29.2719C67.0922 30.2128 72.078 33.9748 73.3251 42.8825C73.887 46.8851 73.7917 50.9526 73.0428 54.9245C72.8876 55.6267 72.4597 56.2384 71.8534 56.6252C71.2471 57.0119 70.512 57.1419 69.8098 56.9867C69.1076 56.8314 68.4959 56.4036 68.1091 55.7972C67.7224 55.1909 67.5924 54.4558 67.7476 53.7536C67.7512 53.7378 67.8736 53.1606 67.9971 52.181C67.8866 51.8254 67.6506 51.8084 67.4492 51.934C67.1627 52.1132 65.7654 53.2238 65.6581 52.2565C65.5509 51.2891 66.6255 49.4621 67.4136 48.7812C68.2017 48.1004 68.2017 46.7394 68.2017 46.7394L68.2278 46.7306C68.1887 45.6944 68.0978 44.6609 67.9554 43.6339C67.4746 40.2013 65.8448 35.8322 62.711 33.8644C62.1018 33.4823 61.6693 32.8738 61.5086 32.1728C61.348 31.4718 61.4724 30.7357 61.8545 30.1264Z" fill="black" stroke="black" stroke-width="0.705555" stroke-linecap="round" stroke-linejoin="round"/>
<path d="M42.626 1L19.2679 14.486V26.7404C15.75 26.1798 12.532 23.1315 10.6517 20.3791C10.0678 19.5224 9.52721 18.6368 9.03208 17.7259L9.05148 17.7065C9.05148 17.7065 8.44682 16.4866 8.85075 15.5267C9.25468 14.5668 9.40602 12.4526 8.88003 11.6338C8.35404 10.815 7.59557 12.4303 7.41847 12.7182C7.29394 12.9204 7.07487 13.01 6.81875 12.7404C6.4942 11.808 6.34744 11.2365 6.34356 11.2207C6.1708 10.5226 5.72781 9.92176 5.11203 9.55031C4.49626 9.17886 3.75815 9.06724 3.06009 9.24C2.36202 9.41277 1.76117 9.85576 1.38972 10.4715C1.01827 11.0873 0.906654 11.8254 1.07942 12.5235C2.1723 16.4147 3.89321 20.1014 6.17423 23.4381C11.2489 30.8651 17.3851 32.0211 19.1455 32.1986C19.1864 32.2028 19.227 32.2025 19.2679 32.2046V41.4579L32.9684 49.3679V60.2183H29.8209C29.1379 60.2183 28.4829 60.4896 27.9999 60.9726C27.5169 61.4555 27.2456 62.1105 27.2456 62.7936C27.2456 63.4766 27.5169 64.1316 27.9999 64.6145C28.4829 65.0975 29.1379 65.3688 29.8209 65.3688H38.9772V52.8375L42.626 54.9439L65.9845 41.4579V14.486L42.626 1Z" fill="#3154FF" stroke="black" stroke-width="0.705555" stroke-miterlimit="10"/>
<path d="M37.3767 27.937V30.931C37.3855 31.3485 37.2982 31.7624 37.1216 32.1407C36.9315 32.5654 36.6258 32.9281 36.2393 33.1872C35.8528 33.4464 35.4012 33.5916 34.9362 33.6062C34.5174 33.5979 34.1081 33.48 33.7491 33.2642C33.3901 33.0484 33.0939 32.7423 32.8901 32.3764C32.6496 31.947 32.5284 31.4611 32.539 30.9691V27.8524C32.5283 27.3604 32.6495 26.8745 32.8901 26.4451C33.0938 26.0792 33.39 25.773 33.749 25.5572C34.108 25.3414 34.5174 25.2236 34.9362 25.2153C35.27 25.2198 35.5991 25.2949 35.9018 25.4357C36.2046 25.5764 36.4741 25.7797 36.6926 26.032C37.1478 26.561 37.3914 27.2394 37.3767 27.937Z" fill="white" stroke="black" stroke-width="0.705555" stroke-linecap="round" stroke-linejoin="round"/>
<path d="M34.9556 29.902C36.281 29.902 37.3555 28.8275 37.3555 27.5021C37.3555 26.1766 36.281 25.1021 34.9556 25.1021C33.6301 25.1021 32.5556 26.1766 32.5556 27.5021C32.5556 28.8275 33.6301 29.902 34.9556 29.902Z" fill="black"/>
<path d="M50.9011 27.937V30.931C50.9099 31.3485 50.8226 31.7624 50.6461 32.1407C50.456 32.5654 50.1502 32.9281 49.7637 33.1872C49.3773 33.4464 48.9257 33.5916 48.4606 33.6062C48.0418 33.5979 47.6325 33.48 47.2735 33.2642C46.9145 33.0484 46.6183 32.7423 46.4145 32.3764C46.1734 31.9472 46.0516 31.4613 46.0617 30.9691V27.8524C46.0515 27.3602 46.1734 26.8743 46.4145 26.4451C46.6183 26.0792 46.9144 25.773 47.2735 25.5572C47.6325 25.3414 48.0418 25.2236 48.4606 25.2153C48.7944 25.2199 49.1235 25.295 49.4262 25.4357C49.729 25.5765 49.9985 25.7797 50.2171 26.032C50.6722 26.561 50.9158 27.2394 50.9011 27.937Z" fill="white" stroke="black" stroke-width="0.705555" stroke-linecap="round" stroke-linejoin="round"/>
<path d="M48.4782 29.902C49.8037 29.902 50.8782 28.8275 50.8782 27.5021C50.8782 26.1766 49.8037 25.1021 48.4782 25.1021C47.1528 25.1021 46.0783 26.1766 46.0783 27.5021C46.0783 28.8275 47.1528 29.902 48.4782 29.902Z" fill="black"/>
</svg>
