<svg width="61" height="99" viewBox="0 0 61 99" fill="none" xmlns="http://www.w3.org/2000/svg">
<path d="M38.1495 59.4256C38.0923 60.0823 38.273 60.7377 38.6588 61.2721C39.0446 61.8066 39.6097 62.1846 40.251 62.3371C41.8208 62.7159 47.4025 63.5877 53.3154 58.9116C55.9715 56.8129 58.2195 54.2441 59.9476 51.3332C60.1879 50.8356 60.2569 50.2725 60.1438 49.7316C60.0307 49.1907 59.742 48.7024 59.3225 48.3427C59.1864 48.2171 59.0385 48.1049 58.8808 48.0076C57.6881 47.2728 56.2293 47.5709 55.6211 48.6719C55.6144 48.6839 55.3717 49.1167 54.9018 49.7972C54.8574 49.8304 54.8053 49.8518 54.7504 49.8594C54.6955 49.867 54.6396 49.8607 54.5878 49.8409C54.536 49.8211 54.4901 49.7886 54.4543 49.7463C54.4184 49.704 54.3939 49.6533 54.3829 49.599C54.2862 49.3062 53.9497 47.7317 53.3267 48.2584C52.7037 48.7851 52.4116 50.5928 52.5707 51.5139C52.7298 52.435 51.9583 53.2714 51.9583 53.2714L51.9713 53.2936C51.3563 53.9059 50.7072 54.483 50.0272 55.0222C47.7482 56.8242 44.1435 58.4678 40.8606 57.6762C40.5668 57.5885 40.2575 57.5655 39.954 57.6088C39.6505 57.6521 39.3599 57.7605 39.1023 57.9268C38.8447 58.093 38.6261 58.313 38.4617 58.5718C38.2972 58.8305 38.1907 59.1218 38.1495 59.4256Z" fill="black" stroke="black" stroke-width="0.705555" stroke-linecap="round" stroke-linejoin="round"/>
<path d="M33.7669 83.3443V98.4431H41.7193C42.013 98.4432 42.3038 98.3854 42.5752 98.273C42.8466 98.1606 43.0932 97.9958 43.3009 97.7881C43.5086 97.5804 43.6733 97.3339 43.7857 97.0625C43.8981 96.7911 43.9559 96.5002 43.9559 96.2065C43.9559 95.6133 43.7202 95.0444 43.3008 94.625C42.8813 94.2056 42.3124 93.9699 41.7193 93.9699H38.9856V80.7348H33.7045L33.7669 83.3443Z" fill="black" stroke="black" stroke-width="0.705555" stroke-linecap="round" stroke-linejoin="round"/>
<path d="M30.5976 1C26.3312 1.00486 22.2409 2.7018 19.2241 5.71856C16.2073 8.73532 14.5102 12.8255 14.5053 17.0919V56.7088C12.069 57.2997 8.10872 58.9783 4.95877 63.7393C3.08992 66.5619 1.75555 69.7038 1.02213 73.0086C0.948811 73.5563 1.05883 74.1129 1.33502 74.5915C1.61121 75.0701 2.03806 75.4438 2.54895 75.6544C2.71744 75.7314 2.893 75.7919 3.07318 75.835C4.43525 76.1613 5.72854 75.423 5.96278 74.1872C5.9656 74.1738 6.06085 73.687 6.29509 72.8936C6.32695 72.8482 6.36975 72.8116 6.41954 72.7872C6.46932 72.7629 6.52446 72.7514 6.57983 72.7541C6.6352 72.7567 6.68901 72.7733 6.73625 72.8023C6.78348 72.8314 6.82262 72.8718 6.85001 72.92C7.0331 73.167 7.84414 74.559 8.27206 73.8651C8.69998 73.1712 8.41317 71.3622 7.97467 70.5363C7.53617 69.7105 8.00994 68.6754 8.00994 68.6754L7.99019 68.6585C8.38384 67.885 8.82069 67.1343 9.29864 66.4099C10.4572 64.658 12.3025 62.7738 14.5067 61.7589V68.3032C14.5082 71.0595 15.2175 73.7693 16.5666 76.1729C17.9156 78.5765 19.8593 80.5935 22.2114 82.0305V93.9667H19.4763C19.1826 93.9667 18.8917 94.0246 18.6204 94.137C18.349 94.2494 18.1024 94.4141 17.8948 94.6218C17.6871 94.8295 17.5223 95.0761 17.4099 95.3474C17.2975 95.6188 17.2397 95.9096 17.2397 96.2033C17.2397 96.4971 17.2975 96.7879 17.4099 97.0593C17.5223 97.3306 17.6871 97.5772 17.8948 97.7849C18.1024 97.9926 18.349 98.1573 18.6204 98.2697C18.8917 98.3821 19.1826 98.4399 19.4763 98.4399H27.4286V84.0819C29.764 84.551 32.1744 84.4958 34.4858 83.9202C36.7973 83.3447 38.9522 82.2632 40.7949 80.7538C42.6377 79.2444 44.1224 77.3447 45.1419 75.1918C46.1613 73.039 46.6902 70.6867 46.6902 68.3046V17.0919C46.6854 12.8255 44.9883 8.73513 41.9714 5.71833C38.9545 2.70154 34.8641 1.00467 30.5976 1Z" fill="#89F798" stroke="black" stroke-width="0.705555" stroke-linecap="round" stroke-linejoin="round"/>
<path d="M28.9462 52.781C28.9462 50.7092 27.4766 49.0296 25.6636 49.0296C23.8507 49.0296 22.381 50.7092 22.381 52.781C22.381 54.8529 23.9781 56.7392 25.6636 56.0717C28.0714 55.1189 28.9462 54.8529 28.9462 52.781Z" fill="white" stroke="black" stroke-width="0.705555" stroke-linecap="round" stroke-linejoin="round"/>
<path d="M26.4839 55.7708C27.821 55.7708 28.905 54.6868 28.905 53.3497C28.905 52.0126 27.821 50.9286 26.4839 50.9286C25.1467 50.9286 24.0627 52.0126 24.0627 53.3497C24.0627 54.6868 25.1467 55.7708 26.4839 55.7708Z" fill="black"/>
<path d="M33.3965 52.781C33.3965 50.7092 34.8662 49.0296 36.6791 49.0296C38.492 49.0296 39.96 50.7092 39.96 52.781C39.96 54.8529 38.3633 56.7392 36.6791 56.0717C34.2714 55.1189 33.3965 54.8529 33.3965 52.781Z" fill="white" stroke="black" stroke-width="0.705555" stroke-linecap="round" stroke-linejoin="round"/>
<path d="M35.8159 55.7708C37.153 55.7708 38.237 54.6868 38.237 53.3497C38.237 52.0126 37.153 50.9286 35.8159 50.9286C34.4787 50.9286 33.3948 52.0126 33.3948 53.3497C33.3948 54.6868 34.4787 55.7708 35.8159 55.7708Z" fill="black"/>
</svg>
