<svg width="69" height="68" viewBox="0 0 69 68" fill="none" xmlns="http://www.w3.org/2000/svg">
<path d="M47.308 67.2594C48.171 67.2585 49.0003 66.9248 49.6234 66.3277C50.2465 65.7307 50.6152 64.9163 50.6529 64.0542C50.6905 63.1921 50.3941 62.3486 49.8255 61.6995C49.2568 61.0505 48.4597 60.6457 47.6002 60.5696C47.5649 60.5665 45.3484 60.37 43.291 60.1837C44.0815 43.0172 46.2098 34.7442 46.2324 34.6578C46.4603 33.7987 46.3376 32.8842 45.8913 32.1155C45.445 31.3468 44.7116 30.787 43.8524 30.559C42.9933 30.3311 42.0788 30.4538 41.3101 30.9002C40.5415 31.3465 39.9816 32.0799 39.7537 32.9391C39.6478 33.337 37.1516 42.9191 36.4658 63.1135L36.36 66.2497L39.4827 66.5619C40.9969 66.7133 46.7644 67.2244 47.0092 67.2463C47.1091 67.2551 47.2093 67.2594 47.308 67.2594Z" fill="black" stroke="black" stroke-width="0.705555" stroke-linecap="round" stroke-linejoin="round"/>
<path d="M66.0031 37.1438C65.0653 33.4111 63.1201 30.0077 60.3798 27.3052C60.0492 26.9799 59.6547 26.7268 59.2213 26.5619C58.7878 26.397 58.3248 26.3238 57.8616 26.347C57.3985 26.3702 56.9451 26.4893 56.5303 26.6967C56.1155 26.9042 55.7483 27.1955 55.4519 27.5521C54.9207 28.2164 54.656 29.0547 54.7093 29.9035C54.7626 30.7523 55.1301 31.5509 55.7401 32.1435C58.5849 34.9753 61.2508 40.0599 59.6206 48.8317C59.0915 49.6783 57.2923 50.5233 56.5868 51.6303C55.8495 52.7902 55.5609 53.9995 55.5941 54.335C55.6272 54.6705 56.1278 55.2925 57.4451 53.6189L57.4588 53.6016C57.5281 53.5178 57.6245 53.4607 57.7313 53.4404C57.8381 53.42 57.9487 53.4376 58.0439 53.4901C58.1391 53.5426 58.2131 53.6267 58.2529 53.7279C58.2927 53.8291 58.296 53.941 58.2621 54.0443C58.23 54.142 58.1947 54.2394 58.1644 54.3389C57.0457 58.0346 58.0233 59.4746 59.779 60.0648L59.8404 60.0846C61.5772 60.6324 63.5259 59.4302 64.5176 56.4757C66.9514 49.2222 67.4558 42.7195 66.0031 37.1438Z" fill="black" stroke="black" stroke-width="0.705555" stroke-linecap="round" stroke-linejoin="round"/>
<path d="M62.7036 1H6.36221C5.65789 1 4.96046 1.13876 4.30978 1.40834C3.65909 1.67793 3.06788 2.07307 2.56993 2.57118C2.07198 3.0693 1.67704 3.66063 1.40766 4.31141C1.13829 4.96219 0.999769 5.65966 1 6.36398V29.1368C1.00067 30.1635 1.2961 31.1685 1.85116 32.0322C2.40623 32.896 3.1976 33.5822 4.13124 34.0094C3.69917 35.0266 3.34261 36.0742 3.06445 37.1438C1.61171 42.7195 2.11618 49.2222 4.55105 56.476C5.54271 59.4305 7.49145 60.6328 9.22853 60.0849L9.28956 60.0652C11.0439 59.475 12.0229 58.0349 10.9042 54.3392C10.8739 54.2398 10.8386 54.1424 10.8065 54.0447C10.7726 53.9413 10.7759 53.8294 10.8157 53.7283C10.8556 53.6271 10.9295 53.543 11.0247 53.4905C11.1199 53.438 11.2305 53.4204 11.3373 53.4408C11.4442 53.4611 11.5405 53.5181 11.6098 53.6019L11.6235 53.6192C12.9408 55.2928 13.441 54.6709 13.4746 54.3354C13.5081 53.9999 13.2195 52.7906 12.4818 51.6306C11.7784 50.5236 9.97712 49.6794 9.44796 48.832C8.19489 42.0972 9.47653 37.5375 11.4263 34.5005H28.536C25.9749 38.2967 21.8872 44.3489 21.3348 45.2655L21.2861 45.3321C19.1091 48.2898 19.7096 51.4888 24.6343 60.1763C23.7266 60.4232 22.7902 60.5484 21.8495 60.5485C21.3928 60.5371 20.9386 60.6191 20.5147 60.7895C20.0909 60.9599 19.7063 61.2151 19.3846 61.5395C19.0629 61.8638 18.8108 62.2505 18.6439 62.6757C18.477 63.101 18.3987 63.5558 18.4138 64.0124C18.46 64.8799 18.8345 65.6974 19.4613 66.299C20.088 66.9006 20.9201 67.2413 21.7888 67.252C22.0217 67.2569 22.2491 67.2594 22.4711 67.2594C23.8667 67.2627 25.2554 67.063 26.5936 66.6667C28.8149 65.9898 30.7871 64.6726 32.2631 62.88L33.2594 61.6844L31.9894 59.5498C27.7963 52.4339 26.993 49.8837 26.8469 49.0807C26.9129 48.9858 26.9849 48.8768 27.0586 48.7541C27.7204 47.6509 36.2389 35.0561 36.3063 34.9474C36.393 34.8042 36.4691 34.6548 36.5339 34.5005H62.7036C63.4079 34.5007 64.1054 34.3622 64.7562 34.0928C65.4069 33.8234 65.9983 33.4285 66.4964 32.9305C66.9945 32.4326 67.3897 31.8414 67.6592 31.1907C67.9288 30.54 68.0676 29.8426 68.0676 29.1382V6.36398C68.0678 5.65951 67.9292 4.96189 67.6597 4.311C67.3903 3.66011 66.9952 3.0687 66.497 2.57056C65.9989 2.07242 65.4075 1.67732 64.7566 1.40784C64.1057 1.13835 63.4081 0.999769 62.7036 1Z" fill="#FFABE5" stroke="black" stroke-width="0.705555" stroke-linecap="round" stroke-linejoin="round"/>
<path d="M30.2498 25.6627C32.2157 25.6627 33.8094 24.069 33.8094 22.1031C33.8094 20.1373 32.2157 18.5436 30.2498 18.5436C28.284 18.5436 26.6903 20.1373 26.6903 22.1031C26.6903 24.069 28.284 25.6627 30.2498 25.6627Z" fill="white" stroke="black" stroke-width="0.705555" stroke-linecap="round" stroke-linejoin="round"/>
<path d="M31.0753 23.2751C32.288 23.2751 33.271 22.292 33.271 21.0794C33.271 19.8667 32.288 18.8837 31.0753 18.8837C29.8627 18.8837 28.8796 19.8667 28.8796 21.0794C28.8796 22.292 29.8627 23.2751 31.0753 23.2751Z" fill="black"/>
<path d="M42.7449 25.6627C44.7107 25.6627 46.3044 24.069 46.3044 22.1031C46.3044 20.1373 44.7107 18.5436 42.7449 18.5436C40.779 18.5436 39.1853 20.1373 39.1853 22.1031C39.1853 24.069 40.779 25.6627 42.7449 25.6627Z" fill="white" stroke="black" stroke-width="0.705555" stroke-linecap="round" stroke-linejoin="round"/>
<path d="M43.5704 23.2751C44.783 23.2751 45.766 22.292 45.766 21.0794C45.766 19.8667 44.783 18.8837 43.5704 18.8837C42.3577 18.8837 41.3747 19.8667 41.3747 21.0794C41.3747 22.292 42.3577 23.2751 43.5704 23.2751Z" fill="black"/>
</svg>
