<svg width="90" height="65" viewBox="0 0 90 65" fill="none" xmlns="http://www.w3.org/2000/svg">
<path d="M56.7667 64.0154C57.6304 64.0156 58.4607 63.6823 59.0846 63.0851C59.7086 62.488 60.0778 61.673 60.1155 60.8102C60.1532 59.9474 59.8563 59.1033 59.2868 58.4541C58.7174 57.8048 57.9192 57.4004 57.0588 57.3253C57.0235 57.3222 54.8074 57.1257 52.7496 56.9397C53.5402 39.7729 55.6689 31.4999 55.6915 31.4138C55.9194 30.5547 55.7967 29.6402 55.3504 28.8715C54.9041 28.1028 54.1708 27.5429 53.3116 27.3149C52.4525 27.0869 51.538 27.2096 50.7693 27.6559C50.0006 28.1022 49.4407 28.8356 49.2127 29.6947C49.1069 30.0927 46.6106 39.6748 45.9248 59.8692L45.819 63.0054L48.9414 63.318C50.4559 63.469 56.2231 63.9805 56.4679 64.002C56.5692 64.0108 56.6679 64.0154 56.7667 64.0154Z" fill="black" stroke="black" stroke-width="0.705555" stroke-linecap="round" stroke-linejoin="round"/>
<path d="M68.7601 19.8406C68.8139 19.4886 68.9365 19.1506 69.1209 18.846C69.3053 18.5413 69.548 18.276 69.8349 18.0652C70.1219 17.8543 70.4476 17.7021 70.7935 17.6172C71.1393 17.5322 71.4985 17.5162 71.8505 17.5701C73.5992 17.8375 79.6698 19.3072 84.3557 26.9847C86.4626 30.4341 87.992 34.2043 88.8836 38.1466C89.0005 38.7518 88.9075 39.3787 88.62 39.9239C88.3324 40.4691 87.8675 40.8999 87.3021 41.1452C86.93 41.3067 86.5265 41.3827 86.1212 41.3676C85.7159 41.3526 85.3191 41.2469 84.9601 41.0583C84.601 40.8696 84.2888 40.6029 84.0464 40.2777C83.804 39.9525 83.6377 39.5771 83.5595 39.1792C83.5563 39.1629 83.4392 38.5847 83.163 37.6368C82.9203 37.3546 82.6969 37.4329 82.5632 37.6284C82.3717 37.9067 81.531 39.4811 81.0463 38.6362C80.5616 37.7913 80.823 35.6877 81.2756 34.7497C81.7282 33.8117 81.1867 32.5625 81.1867 32.5625L81.2075 32.5438C80.7595 31.6087 80.2651 30.6967 79.7259 29.8112C77.92 26.8524 74.6871 23.4915 71.0295 22.932C70.6775 22.8781 70.3396 22.7553 70.035 22.5707C69.7305 22.3862 69.4652 22.1435 69.2545 21.8564C69.0438 21.5693 68.8916 21.2435 68.8068 20.8977C68.722 20.5518 68.7061 20.1926 68.7601 19.8406Z" fill="black" stroke="black" stroke-width="0.705555" stroke-linecap="round" stroke-linejoin="round"/>
<path d="M76.6179 29.5635C75.9214 22.7851 73.067 16.4094 68.4749 11.375C63.8829 6.3406 57.7958 2.91352 51.1098 1.59829C44.4238 0.283069 37.4922 1.14919 31.3355 4.06914C25.1787 6.9891 20.122 11.8086 16.91 17.8181C14.3954 18.4803 9.50162 20.555 5.57732 26.9847C3.47046 30.4341 1.94092 34.2043 1.04907 38.1466C0.932305 38.7518 1.02536 39.3786 1.31288 39.9238C1.6004 40.469 2.06522 40.8998 2.63059 41.1452C2.81184 41.2241 3.00107 41.2833 3.19502 41.3216C3.90041 41.4583 4.63123 41.3097 5.22726 40.9084C5.82328 40.5072 6.23588 39.8859 6.3746 39.1809C6.37778 39.1647 6.4949 38.5865 6.77077 37.6386C7.01383 37.3564 7.23714 37.4347 7.37049 37.6301C7.56241 37.9085 8.40272 39.4829 8.88743 38.638C9.37215 37.7931 9.1111 35.6895 8.65849 34.7515C8.20587 33.8134 8.74703 32.5642 8.74703 32.5642L8.72657 32.5455C9.17438 31.6104 9.6689 30.6984 10.2082 29.8129C11.2381 28.1218 12.5327 26.6069 14.0426 25.3259C13.7044 26.7204 13.4614 28.1362 13.3152 29.5635C13.2721 29.9901 13.3189 30.4211 13.4526 30.8285C13.5863 31.2359 13.804 31.6107 14.0915 31.9288C14.3791 32.2469 14.7301 32.5012 15.122 32.6752C15.5139 32.8492 15.9379 32.9392 16.3667 32.9392H34.5816C35.2191 36.0454 36.5844 43.9406 37.183 56.9415C35.1256 57.1274 32.9105 57.3239 32.8742 57.3271C32.0139 57.4022 31.2157 57.8065 30.6462 58.4558C30.0767 59.105 29.7798 59.949 29.8175 60.8118C29.8551 61.6746 30.2243 62.4896 30.8482 63.0867C31.472 63.6839 32.3023 64.0172 33.1659 64.0172C33.2647 64.0172 33.3652 64.0126 33.4654 64.0038C33.7103 63.9822 39.4778 63.4707 40.992 63.3197L44.1162 63.0068L44.0103 59.8706C43.5436 46.1254 42.2387 37.3017 41.4188 32.9389H73.5681C73.997 32.9389 74.421 32.849 74.8129 32.675C75.2049 32.5009 75.556 32.2467 75.8435 31.9286C76.1311 31.6105 76.3488 31.2356 76.4825 30.8282C76.6163 30.4208 76.6631 29.9898 76.62 29.5632L76.6179 29.5635Z" fill="#76C8FF" stroke="black" stroke-width="0.705555" stroke-linecap="round" stroke-linejoin="round"/>
<path d="M45.2535 19.6794C45.2535 20.4957 44.9292 21.2786 44.352 21.8559C43.7747 22.4331 42.9918 22.7574 42.1755 22.7574C41.3591 22.7574 40.5763 22.4331 39.999 21.8559C39.4218 21.2786 39.0975 20.4957 39.0975 19.6794C39.0975 17.9794 40.4754 17.8598 42.1755 17.8598C43.8755 17.8598 45.2535 17.9794 45.2535 19.6794Z" fill="white" stroke="black" stroke-width="0.705555" stroke-linecap="round" stroke-linejoin="round"/>
<path d="M42.1145 21.5107C43.1633 21.5107 44.0135 20.6604 44.0135 19.6117C44.0135 18.5629 43.1633 17.7127 42.1145 17.7127C41.0657 17.7127 40.2155 18.5629 40.2155 19.6117C40.2155 20.6604 41.0657 21.5107 42.1145 21.5107Z" fill="black"/>
<path d="M55.7976 19.6794C55.7976 20.4957 55.4734 21.2786 54.8961 21.8559C54.3189 22.4331 53.536 22.7574 52.7197 22.7574C51.9033 22.7574 51.1204 22.4331 50.5432 21.8559C49.966 21.2786 49.6417 20.4957 49.6417 19.6794C49.6417 17.9794 51.0196 17.8598 52.7197 17.8598C54.4197 17.8598 55.7976 17.9794 55.7976 19.6794Z" fill="white" stroke="black" stroke-width="0.705555" stroke-linecap="round" stroke-linejoin="round"/>
<path d="M52.6586 21.5107C53.7074 21.5107 54.5576 20.6604 54.5576 19.6117C54.5576 18.5629 53.7074 17.7127 52.6586 17.7127C51.6098 17.7127 50.7596 18.5629 50.7596 19.6117C50.7596 20.6604 51.6098 21.5107 52.6586 21.5107Z" fill="black"/>
</svg>
