<svg width="80" height="70" viewBox="0 0 80 70" fill="none" xmlns="http://www.w3.org/2000/svg">
<path d="M59.1194 36.965C59.2809 36.2761 59.6847 35.6683 60.2571 35.2525C60.8295 34.8366 61.5323 34.6405 62.2373 34.6998C63.9659 34.8391 69.9486 35.8191 74.413 42.5667C76.4188 45.5961 77.8511 48.9682 78.6386 52.515C78.7172 53.103 78.5991 53.7004 78.3026 54.2141C78.0061 54.7279 77.548 55.1291 76.9996 55.3552C76.8182 55.4379 76.6291 55.5027 76.4352 55.5489C74.9733 55.8992 73.5854 55.1065 73.3335 53.7801C73.3307 53.7656 73.2277 53.2432 72.9769 52.3916C72.9427 52.3429 72.8967 52.3036 72.8433 52.2775C72.7899 52.2513 72.7307 52.2391 72.6713 52.2419C72.6118 52.2448 72.5541 52.2626 72.5034 52.2938C72.4527 52.3249 72.4108 52.3684 72.3814 52.4201C72.1849 52.6865 71.3142 54.1791 70.8553 53.4347C70.3963 52.6904 70.7032 50.748 71.1728 49.8618C71.6423 48.9756 71.1375 47.864 71.1375 47.864L71.1587 47.846C70.7364 47.0158 70.2676 46.2101 69.7546 45.4327C68.0341 42.8316 64.9085 39.9487 61.295 39.657C59.8349 39.5402 58.8598 38.3344 59.1194 36.965Z" fill="black" stroke="black" stroke-width="0.705555" stroke-linecap="round" stroke-linejoin="round"/>
<path d="M51.0313 68.7731C49.844 68.776 48.6617 68.6177 47.5169 68.3025C45.6518 67.783 43.9747 66.7399 42.6839 65.2969L41.8344 64.3479L42.9178 62.6546C46.4925 57.0062 47.1769 54.9813 47.3017 54.3445C47.2453 54.269 47.1839 54.1826 47.1208 54.0853C46.5563 53.2097 40.8766 44.6541 40.8209 44.5677C40.6252 44.2709 40.4936 43.9366 40.4344 43.5861C40.3752 43.2357 40.3897 42.8767 40.477 42.5321C40.5644 42.1876 40.7226 41.865 40.9416 41.5851C41.1606 41.3051 41.4356 41.0739 41.749 40.9062C42.3939 40.5327 43.1553 40.4143 43.8832 40.5742C44.611 40.7342 45.2526 41.161 45.6814 41.7705C45.9136 42.1204 51.3185 50.2636 52 51.3159L52.0413 51.3689C53.8973 53.7166 53.3854 56.2559 49.187 63.1516C49.963 63.3479 50.7604 63.4471 51.5608 63.4469C53.191 63.407 54.5432 64.6537 54.4889 66.1964C54.4398 67.6178 53.1388 68.7365 51.612 68.7682C51.414 68.7715 51.2204 68.7731 51.0313 68.7731Z" fill="black" stroke="black" stroke-width="0.705555" stroke-linecap="round" stroke-linejoin="round"/>
<path d="M61.1306 1H18.5317C17.6332 1.00103 16.7718 1.35837 16.1365 1.99366C15.5011 2.62895 15.1437 3.4903 15.1426 4.38878V35.2751C12.5094 35.9835 8.48142 37.8448 5.24927 42.7311C3.24353 45.7605 1.81124 49.1326 1.02369 52.6794C0.945101 53.2674 1.06327 53.8648 1.35974 54.3785C1.65621 54.8923 2.11433 55.2935 2.6627 55.5196C2.84415 55.6023 3.03319 55.6671 3.22715 55.7133C4.68906 56.0636 6.07724 55.2709 6.32877 53.9448C6.33159 53.9304 6.4346 53.4076 6.68542 52.5563C6.71959 52.5076 6.76551 52.4683 6.81892 52.4421C6.87234 52.416 6.93151 52.4037 6.99094 52.4065C7.05036 52.4093 7.1081 52.4271 7.1588 52.4582C7.2095 52.4894 7.2515 52.5328 7.28091 52.5845C7.4774 52.8512 8.34805 54.3438 8.80702 53.5991C9.26598 52.8544 8.95908 50.9124 8.48953 50.0262C8.01999 49.14 8.5248 48.0288 8.5248 48.0288L8.50363 48.0104C8.92611 47.1803 9.39488 46.3746 9.9077 45.5971C11.2238 43.5766 13.024 41.9172 15.1447 40.7696V46.9877C15.1457 47.8862 15.5031 48.7477 16.1385 49.3831C16.7738 50.0184 17.6353 50.3758 18.5338 50.3768H31.0906V62.7241H27.8341C27.4844 62.724 27.1381 62.7929 26.815 62.9267C26.4919 63.0604 26.1983 63.2566 25.951 63.5038C25.7037 63.7511 25.5075 64.0447 25.3737 64.3677C25.2399 64.6908 25.171 65.0371 25.171 65.3868C25.171 65.7365 25.2399 66.0828 25.3737 66.4059C25.5075 66.729 25.7037 67.0225 25.951 67.2698C26.1983 67.5171 26.4919 67.7132 26.815 67.847C27.1381 67.9808 27.4844 68.0496 27.8341 68.0496H37.3019V50.3754H61.1306C62.0292 50.3744 62.8906 50.017 63.526 49.3816C64.1613 48.7463 64.5187 47.8848 64.5198 46.9863V4.38878C64.5186 3.4903 64.1612 2.62895 63.5259 1.99366C62.8905 1.35837 62.0291 1.00103 61.1306 1Z" fill="#FF2E3F" stroke="black" stroke-width="0.705555" stroke-miterlimit="10"/>
<path d="M34.3717 32.0843C34.3717 30.0124 35.8414 28.3328 37.6526 28.3328C39.4637 28.3328 40.9352 30.0124 40.9352 32.0843C40.9352 34.1561 39.3381 36.0424 37.6526 35.375C35.2466 34.4221 34.3717 34.1561 34.3717 32.0843Z" fill="white" stroke="black" stroke-width="0.705555" stroke-linecap="round" stroke-linejoin="round"/>
<path d="M38.3768 33.3627C39.7481 33.3627 40.8597 32.2511 40.8597 30.8799C40.8597 29.5086 39.7481 28.397 38.3768 28.397C37.0056 28.397 35.894 29.5086 35.894 30.8799C35.894 32.2511 37.0056 33.3627 38.3768 33.3627Z" fill="black"/>
<path d="M51.9503 32.0843C51.9503 30.0124 50.4806 28.3328 48.6695 28.3328C46.8583 28.3328 45.3869 30.0124 45.3869 32.0843C45.3869 34.1561 46.9839 36.0424 48.6695 35.375C51.0754 34.4221 51.9503 34.1561 51.9503 32.0843Z" fill="white" stroke="black" stroke-width="0.705555" stroke-linecap="round" stroke-linejoin="round"/>
<path d="M49.1418 33.3627C50.5131 33.3627 51.6247 32.2511 51.6247 30.8799C51.6247 29.5086 50.5131 28.397 49.1418 28.397C47.7706 28.397 46.659 29.5086 46.659 30.8799C46.659 32.2511 47.7706 33.3627 49.1418 33.3627Z" fill="black"/>
</svg>
