<svg width="66" height="77" viewBox="0 0 66 77" fill="none" xmlns="http://www.w3.org/2000/svg">
<path d="M45.9118 76.2685C46.7747 76.2676 47.6041 75.9339 48.2271 75.3368C48.8502 74.7398 49.2189 73.9254 49.2566 73.0633C49.2942 72.2011 48.9979 71.3577 48.4292 70.7086C47.8605 70.0595 47.0635 69.6548 46.2039 69.5787C46.1686 69.5756 43.9521 69.3791 41.8947 69.1928C42.6849 52.0263 44.8136 43.7533 44.8361 43.6669C45.0641 42.8077 44.9414 41.8932 44.495 41.1246C44.0487 40.3559 43.3153 39.796 42.4561 39.5681C41.597 39.3402 40.6825 39.4629 39.9138 39.9093C39.1452 40.3556 38.5853 41.089 38.3574 41.9481C38.2516 42.3461 35.7553 51.9282 35.0695 72.1226L34.9637 75.2588L38.0865 75.571C39.6006 75.7224 45.3681 76.2335 45.613 76.2554C45.7124 76.2656 45.8126 76.2685 45.9118 76.2685Z" fill="black" stroke="black" stroke-width="0.705555" stroke-linecap="round" stroke-linejoin="round"/>
<path d="M50.4128 39.7451C50.6469 39.3722 50.9521 39.0491 51.311 38.7942C51.6699 38.5393 52.0756 38.3576 52.5047 38.2595C52.9339 38.1615 53.3781 38.1489 53.8122 38.2226C54.2462 38.2962 54.6615 38.4547 55.0342 38.6888C56.8863 39.853 63.0483 44.5012 64.5896 55.511C65.2836 60.4581 65.1655 65.4853 64.2399 70.3944C64.0746 71.1376 63.661 71.8023 63.0672 72.2789C62.4734 72.7555 61.735 73.0156 60.9736 73.0162C60.4723 73.0163 59.9774 72.9041 59.5252 72.6878C59.0731 72.4715 58.6751 72.1566 58.3606 71.7663C58.0462 71.376 57.8232 70.9201 57.708 70.4323C57.5929 69.9445 57.5885 69.437 57.6952 68.9473C57.6994 68.9275 57.8508 68.2138 58.0036 67.0031C57.8667 66.5639 57.5749 66.5427 57.3262 66.6983C56.9734 66.9199 55.2448 68.2925 55.1122 67.0969C54.9795 65.9014 56.3078 63.6433 57.2821 62.8019C58.2565 61.9605 58.2561 60.2781 58.2561 60.2781L58.2886 60.2672C58.2403 58.9866 58.1279 57.7092 57.9517 56.4399C57.3576 52.1974 55.3429 46.7971 51.4701 44.3654C51.0973 44.1314 50.7742 43.8264 50.5193 43.4675C50.2644 43.1087 50.0827 42.7032 49.9845 42.2742C49.8863 41.8452 49.8736 41.401 49.9471 40.967C50.0206 40.5331 50.1789 40.1178 50.4128 39.7451Z" fill="black" stroke="black" stroke-width="0.705555" stroke-linecap="round" stroke-linejoin="round"/>
<path d="M58.6675 41.7975L36.6002 3.01281C36.2524 2.40156 35.7489 1.89333 35.141 1.53979C34.5331 1.18624 33.8424 1 33.1391 1C32.4358 1 31.7451 1.18624 31.1372 1.53979C30.5292 1.89333 30.0258 2.40156 29.678 3.01281L7.93031 41.2348C5.46087 43.7928 2.45733 48.2801 1.44521 55.51C0.751173 60.4571 0.869248 65.4843 1.7948 70.3933C1.9601 71.1365 2.37375 71.8013 2.96753 72.2779C3.56131 72.7545 4.29978 73.0145 5.06118 73.0151C5.56246 73.0153 6.05739 72.903 6.5096 72.6867C6.96181 72.4704 7.35979 72.1555 7.67428 71.7651C7.98877 71.3748 8.21176 70.9189 8.32689 70.431C8.44201 69.9431 8.44633 69.4356 8.33953 68.9459C8.33529 68.9261 8.18396 68.2128 8.03121 67.002C8.16809 66.5628 8.45983 66.5417 8.70854 66.6973C9.06132 66.9188 10.7899 68.2915 10.9226 67.0959C11.0552 65.9003 9.72701 63.6422 8.75264 62.8008C7.77826 61.9594 7.77862 60.2771 7.77862 60.2771L7.74615 60.2661C7.79442 58.9855 7.90687 57.7082 8.08306 56.4388C8.47358 53.6498 9.48289 50.3654 11.2256 47.7478H21.8812C21.0942 52.6348 20.1233 60.67 19.7342 72.1216L19.6284 75.2578L22.7508 75.57C24.2653 75.7213 30.0325 76.2325 30.2774 76.2543C30.3779 76.2632 30.4781 76.2674 30.5769 76.2674C31.4398 76.2665 32.2692 75.9328 32.8922 75.3358C33.5153 74.7387 33.884 73.9243 33.9217 73.0622C33.9593 72.2001 33.663 71.3567 33.0943 70.7076C32.5257 70.0585 31.7286 69.6538 30.869 69.5777C30.8337 69.5745 28.6175 69.378 26.5598 69.1917C27.0343 58.8906 27.9899 51.797 28.6835 47.7478H55.2067C55.9036 47.7478 56.5883 47.5649 57.1923 47.2174C57.7964 46.8699 58.2986 46.37 58.649 45.7676C58.9993 45.1652 59.1854 44.4814 59.1887 43.7845C59.1921 43.0877 59.0124 42.4022 58.6678 41.7965L58.6675 41.7975Z" fill="#7352FF" stroke="black" stroke-width="0.705555" stroke-miterlimit="10"/>
<path d="M26.2878 33.9793H26.1964C25.5463 33.9854 24.9022 33.8533 24.3069 33.5918C23.7117 33.3302 23.1787 32.9453 22.7434 32.4623C22.6028 32.3079 22.4944 32.127 22.4246 31.9302C22.3548 31.7334 22.3251 31.5246 22.3371 31.3161C22.349 31.1076 22.4025 30.9036 22.4944 30.7161C22.5863 30.5286 22.7147 30.3613 22.872 30.224C23.0294 30.0868 23.2126 29.9823 23.4109 29.9168C23.6092 29.8513 23.8186 29.8261 24.0268 29.8425C24.2349 29.859 24.4377 29.9169 24.6232 30.0128C24.8087 30.1087 24.9732 30.2407 25.107 30.401C25.2561 30.5496 25.4344 30.6657 25.6306 30.7419C25.8267 30.8182 26.0366 30.853 26.2468 30.8441C26.913 30.8687 27.5634 30.6379 28.0651 30.1989C28.2046 30.0449 28.3733 29.9201 28.5614 29.8318C28.7495 29.7436 28.9533 29.6936 29.1609 29.6847C29.3685 29.6759 29.5758 29.7084 29.7707 29.7803C29.9657 29.8523 30.1444 29.9623 30.2965 30.1039C30.4485 30.2455 30.571 30.4159 30.6566 30.6052C30.7423 30.7945 30.7895 30.999 30.7954 31.2067C30.8014 31.4144 30.766 31.6213 30.6914 31.8152C30.6167 32.0091 30.5043 32.1863 30.3606 32.3364C29.2736 33.4009 27.8092 33.9917 26.2878 33.9793Z" fill="white" stroke="black" stroke-width="0.705555" stroke-linecap="round" stroke-linejoin="round"/>
<path d="M29.1185 33.0504C30.04 33.0504 30.7871 32.3033 30.7871 31.3818C30.7871 30.4602 30.04 29.7131 29.1185 29.7131C28.1969 29.7131 27.4498 30.4602 27.4498 31.3818C27.4498 32.3033 28.1969 33.0504 29.1185 33.0504Z" fill="black"/>
<path d="M39.7198 33.9793H39.6284C38.9782 33.9854 38.3342 33.8533 37.7389 33.5918C37.1437 33.3302 36.6107 32.9453 36.1754 32.4623C36.0348 32.3079 35.9264 32.127 35.8566 31.9302C35.7869 31.7334 35.7571 31.5246 35.7691 31.3161C35.781 31.1076 35.8345 30.9036 35.9264 30.7161C36.0183 30.5286 36.1467 30.3613 36.304 30.224C36.4614 30.0868 36.6447 29.9823 36.8429 29.9168C37.0412 29.8513 37.2506 29.8261 37.4588 29.8425C37.6669 29.859 37.8697 29.9169 38.0552 30.0128C38.2407 30.1087 38.4052 30.2407 38.539 30.401C38.6882 30.5496 38.8665 30.6657 39.0627 30.742C39.259 30.8182 39.4689 30.853 39.6792 30.8441C40.3453 30.8687 40.9955 30.6379 41.4971 30.1989C41.6366 30.0449 41.8053 29.9201 41.9934 29.8318C42.1815 29.7436 42.3853 29.6936 42.5929 29.6847C42.8005 29.6759 43.0078 29.7084 43.2028 29.7803C43.3977 29.8523 43.5764 29.9623 43.7285 30.1039C43.8806 30.2455 44.003 30.4159 44.0886 30.6052C44.1743 30.7945 44.2215 30.999 44.2274 31.2067C44.2334 31.4144 44.198 31.6213 44.1234 31.8152C44.0487 32.0091 43.9363 32.1863 43.7926 32.3364C42.7056 33.4009 41.2412 33.9917 39.7198 33.9793Z" fill="white" stroke="black" stroke-width="0.705555" stroke-linecap="round" stroke-linejoin="round"/>
<path d="M42.6933 33.0504C43.6149 33.0504 44.362 32.3033 44.362 31.3818C44.362 30.4602 43.6149 29.7131 42.6933 29.7131C41.7718 29.7131 41.0247 30.4602 41.0247 31.3818C41.0247 32.3033 41.7718 33.0504 42.6933 33.0504Z" fill="black"/>
</svg>
