<svg width="188" height="48" viewBox="0 0 188 48" fill="none" xmlns="http://www.w3.org/2000/svg">
<rect width="187.2" height="47.6591" fill="#EC8989"/>
<mask id="mask0_669_2" style="mask-type:alpha" maskUnits="userSpaceOnUse" x="146" y="2" width="38" height="38">
<path d="M183.068 21.1825C183.068 31.4186 174.77 39.7166 164.534 39.7166C154.298 39.7166 146 31.4186 146 21.1825C146 10.9464 154.298 2.64844 164.534 2.64844C174.77 2.64844 183.068 10.9464 183.068 21.1825Z" fill="#EC8989"/>
</mask>
<g mask="url(#mask0_669_2)">
<path d="M148.746 36.9846C148.746 36.9846 147.154 22.9425 156.753 17.6514L170.315 17.9389C170.315 17.9389 176.112 19.9216 176.89 36.6365L163.438 42.3635L148.746 36.9846Z" fill="#5154A1"/>
<path d="M170.08 17.4902C170.08 17.4902 166.972 21.4202 162.878 21.2331L163.679 24.2624C163.679 24.2624 170.174 20.3032 170.08 17.4902Z" fill="#373684"/>
<path d="M170.08 17.4902C170.08 17.4902 166.735 21.1863 162.642 20.9991L163.431 24.0256C163.431 24.0256 169.338 20.8763 170.08 17.4902Z" fill="#FAF3ED"/>
<path d="M161.612 20.7793L160.983 23.87C160.983 23.87 157.401 19.8114 157.182 17.2119C157.179 17.2119 160.258 20.5717 161.612 20.7793Z" fill="#373684"/>
<path d="M161.442 20.7384L160.699 23.7297C160.699 23.7297 157.401 19.8085 157.19 17.2119C158.206 18.8011 159.692 20.0338 161.442 20.7384Z" fill="#FAF3ED"/>
<path d="M162.554 22.3973C162.554 22.3973 163.215 30.0379 163.636 31.7836C164.057 33.5292 162.101 35.3334 161.984 35.9358H159.463C159.463 35.9358 158.255 33.769 158.524 32.1345C158.793 30.4999 161.782 22.3008 161.782 22.3008L162.554 22.3973Z" fill="#C7361A"/>
<path d="M162.422 22.3494C162.422 22.3494 163.083 29.99 163.504 31.7357C163.925 33.4814 161.966 35.2855 161.849 35.8879H159.337C159.337 35.8879 158.126 33.7212 158.398 32.0866C158.67 30.452 161.647 22.25 161.647 22.25L162.422 22.3494Z" fill="#E8461C"/>
<path d="M161.641 22.0671L162.001 21.6841C162.022 21.6608 162.048 21.6427 162.077 21.6314C162.106 21.6194 162.137 21.6144 162.168 21.6168C162.199 21.6193 162.23 21.6283 162.258 21.6431C162.285 21.6579 162.308 21.679 162.326 21.7045L162.697 22.225C162.714 22.2472 162.726 22.2728 162.733 22.3C162.739 22.3271 162.74 22.3554 162.735 22.3829C162.731 22.4104 162.722 22.4368 162.707 22.4605C162.692 22.4841 162.673 22.5045 162.65 22.5203L162.13 22.8888C162.105 22.9068 162.076 22.9188 162.045 22.9239C162.014 22.9312 161.982 22.9312 161.951 22.9239C161.921 22.9152 161.893 22.9002 161.87 22.88C161.845 22.8593 161.826 22.8333 161.814 22.804L161.601 22.2981C161.589 22.259 161.589 22.2173 161.601 22.1782C161.603 22.138 161.617 22.0993 161.641 22.0671V22.0671Z" fill="#C7361A"/>
<path d="M161.574 22.0428L161.922 21.6714C161.943 21.65 161.968 21.6331 161.995 21.6217C162.024 21.6144 162.054 21.6144 162.083 21.6217C162.113 21.6222 162.142 21.6302 162.168 21.6451C162.195 21.6599 162.218 21.6809 162.235 21.7065L162.592 22.2094C162.607 22.2304 162.618 22.2543 162.624 22.2796C162.63 22.3056 162.63 22.3326 162.624 22.3586C162.62 22.3857 162.61 22.4117 162.595 22.4346C162.581 22.4574 162.563 22.4773 162.542 22.4931L162.045 22.8469C162.019 22.864 161.99 22.8759 161.96 22.882C161.93 22.8878 161.899 22.8878 161.869 22.882C161.84 22.8732 161.813 22.8583 161.79 22.8381C161.767 22.8184 161.749 22.7933 161.738 22.765L161.533 22.2767C161.521 22.2396 161.521 22.1998 161.533 22.1627C161.534 22.1195 161.549 22.0777 161.574 22.0428V22.0428Z" fill="#E8461C"/>
<path d="M158.264 17.4592C157.937 17.4592 157.613 17.3947 157.311 17.2695C157.009 17.1443 156.734 16.9607 156.503 16.7293C156.272 16.498 156.089 16.2233 155.964 15.921C155.839 15.6188 155.775 15.2949 155.775 14.9679C155.775 14.3079 156.038 13.675 156.504 13.2083C156.971 12.7417 157.604 12.4795 158.264 12.4795C158.924 12.4795 159.557 12.7416 160.024 13.2082C160.492 13.6747 160.754 14.3077 160.755 14.9679C160.755 15.6286 160.493 16.2623 160.025 16.7295C159.558 17.1967 158.925 17.4592 158.264 17.4592V17.4592Z" fill="#F39672"/>
<path d="M168.244 14.99C168.242 14.5208 168.348 14.0576 168.554 13.6361C168.735 13.2556 169.024 12.9365 169.385 12.7179C169.71 12.5238 170.095 12.4562 170.467 12.5279C170.855 12.6111 171.203 12.8234 171.455 13.1303C171.747 13.4733 171.948 13.8847 172.04 14.3262C172.138 14.7916 172.131 15.2732 172.019 15.7356C171.919 16.1708 171.71 16.5733 171.411 16.9052C171.147 17.197 170.793 17.3916 170.405 17.4579C170.331 17.4695 170.255 17.4754 170.18 17.4754C170.054 17.4761 169.928 17.4603 169.806 17.4287C169.338 17.2927 168.939 16.9845 168.689 16.566C168.395 16.093 168.241 15.5467 168.244 14.99V14.99Z" fill="#F39672"/>
<path d="M163.692 21.037C159.811 21.037 156.674 18.2913 156.674 14.8964C156.674 11.5016 159.82 8.75586 163.692 8.75586C167.563 8.75586 170.709 11.5016 170.709 14.8964C170.709 18.2913 167.572 21.037 163.692 21.037Z" fill="#F39672"/>
<path d="M165.477 13.5016C165.493 13.5044 165.51 13.5044 165.527 13.5016L166.81 12.9841C166.842 12.9711 166.868 12.946 166.882 12.9143C166.895 12.8825 166.896 12.8467 166.883 12.8145C166.87 12.7825 166.845 12.7568 166.813 12.7432C166.782 12.7295 166.746 12.7288 166.714 12.7414L165.427 13.2589C165.411 13.265 165.396 13.2743 165.384 13.2863C165.372 13.2982 165.362 13.3126 165.355 13.3285C165.349 13.3444 165.345 13.3615 165.346 13.3787C165.346 13.3959 165.35 13.4129 165.357 13.4285C165.368 13.451 165.385 13.4699 165.406 13.4829C165.427 13.4959 165.452 13.5024 165.477 13.5016V13.5016Z" fill="black"/>
<path d="M160.46 13.4056C160.487 13.4055 160.513 13.3974 160.535 13.3823C160.556 13.3671 160.573 13.3457 160.583 13.3208C160.589 13.3048 160.592 13.2879 160.591 13.2708C160.591 13.2538 160.587 13.237 160.58 13.2215C160.573 13.206 160.562 13.1921 160.55 13.1805C160.537 13.1689 160.523 13.16 160.507 13.1541L159.211 12.6629C159.179 12.6505 159.143 12.6516 159.111 12.6658C159.079 12.6801 159.054 12.7063 159.042 12.7389C159.029 12.7715 159.03 12.8076 159.045 12.8394C159.059 12.8712 159.085 12.896 159.118 12.9085L160.413 13.3997C160.428 13.4045 160.444 13.4065 160.46 13.4056V13.4056Z" fill="black"/>
<path d="M159.407 14.8284C159.315 14.8284 159.225 14.8104 159.141 14.7754C159.056 14.7404 158.979 14.6892 158.915 14.6246C158.85 14.5599 158.799 14.4832 158.764 14.3988C158.729 14.3143 158.711 14.2238 158.711 14.1325C158.712 13.9484 158.785 13.7721 158.916 13.6423C159.046 13.5124 159.223 13.4395 159.407 13.4395C159.591 13.4395 159.768 13.5124 159.898 13.6423C160.028 13.7721 160.102 13.9484 160.103 14.1325C160.103 14.2238 160.085 14.3143 160.05 14.3988C160.015 14.4832 159.964 14.5599 159.899 14.6246C159.834 14.6892 159.758 14.7404 159.673 14.7754C159.589 14.8104 159.498 14.8284 159.407 14.8284V14.8284Z" fill="#1B1935"/>
<path d="M166.468 14.8284C166.284 14.8284 166.107 14.7551 165.976 14.6246C165.846 14.494 165.772 14.317 165.772 14.1325C165.773 13.9484 165.847 13.7721 165.977 13.6423C166.108 13.5124 166.284 13.4395 166.468 13.4395C166.652 13.4395 166.828 13.5125 166.958 13.6424C167.088 13.7724 167.161 13.9487 167.161 14.1325C167.162 14.2237 167.144 14.3141 167.109 14.3986C167.075 14.483 167.024 14.5597 166.959 14.6244C166.895 14.689 166.819 14.7403 166.734 14.7753C166.65 14.8104 166.56 14.8284 166.468 14.8284V14.8284Z" fill="#1B1935"/>
<path d="M171.455 15.9311C171.582 15.6316 171.647 15.3092 171.645 14.9837C171.643 14.6593 171.574 14.3388 171.443 14.0422C171.325 13.7708 171.14 13.5341 170.905 13.355C170.695 13.1947 170.438 13.1065 170.174 13.1035C170.174 13.1035 171.887 13.6679 171.455 15.9311Z" fill="#BC6A4F"/>
<path d="M170.174 12.5099C169.878 12.5127 169.588 12.5977 169.338 12.7555C169.446 12.6487 169.579 12.5704 169.725 12.5276C169.871 12.4847 170.025 12.4786 170.174 12.5099V12.5099Z" fill="#BC6A4F"/>
<path d="M160.706 19.6689C161.118 19.9877 161.94 20.2041 162.887 20.2041C163.835 20.2041 164.642 19.9877 165.069 19.6689C165.069 19.6689 162.879 20.4965 160.706 19.6689Z" fill="#BC6A4F"/>
<path d="M166.946 8.49805H166.653V9.81973H166.946V8.49805Z" fill="#1D1D1B"/>
<path d="M168.025 9.00781H167.732V10.3295H168.025V9.00781Z" fill="#1D1D1B"/>
<path d="M169.054 9.81934H168.762V11.141H169.054V9.81934Z" fill="#1D1D1B"/>
<path d="M169.903 10.8252H169.61V12.1469H169.903V10.8252Z" fill="#1D1D1B"/>
<path d="M165.955 8.11328H165.662V9.43497H165.955V8.11328Z" fill="#1D1D1B"/>
<path d="M164.714 7.83789H164.422V9.15957H164.714V7.83789Z" fill="#1D1D1B"/>
<path d="M163.837 7.83789H163.545V9.15957H163.837V7.83789Z" fill="#1D1D1B"/>
<path d="M162.864 7.83789H162.571V9.15957H162.864V7.83789Z" fill="#1D1D1B"/>
<path d="M161.84 8.11328H161.548V9.43497H161.84V8.11328Z" fill="#1D1D1B"/>
<path d="M160.907 8.49805H160.614V9.81973H160.907V8.49805Z" fill="#1D1D1B"/>
<path d="M159.949 9.00781H159.656V10.3295H159.949V9.00781Z" fill="#1D1D1B"/>
<path d="M159.082 9.58398H158.79V10.9057H159.082V9.58398Z" fill="#1D1D1B"/>
<path d="M165.454 16.0471C165.203 15.7963 164.862 15.6554 164.507 15.6553H161.273C161.097 15.655 160.923 15.6895 160.76 15.7567C160.597 15.824 160.45 15.9226 160.325 16.0471C160.074 16.2983 159.932 16.6389 159.931 16.9945V21.48C160.108 21.4804 160.284 21.4458 160.449 21.378C160.613 21.3103 160.762 21.2109 160.888 21.0854C161.014 20.9599 161.113 20.8109 161.181 20.6468C161.249 20.4827 161.285 20.3068 161.285 20.1291V16.9945H164.501V20.1291C164.501 20.4874 164.643 20.831 164.897 21.0844C165.15 21.3377 165.494 21.48 165.852 21.48V16.9945C165.851 16.8182 165.816 16.6438 165.747 16.4812C165.679 16.3187 165.58 16.1712 165.454 16.0471V16.0471Z" fill="#D8690E"/>
<path d="M162.223 17.5371H162.924C162.971 17.5374 163.017 17.5517 163.056 17.5781C163.095 17.6045 163.125 17.6419 163.143 17.6854C163.16 17.729 163.164 17.7768 163.155 17.8228C163.145 17.8687 163.122 17.9108 163.088 17.9435L162.559 18.4582L162.053 17.9377C162.021 17.9043 162 17.8622 161.991 17.8167C161.983 17.7712 161.988 17.7242 162.006 17.6816C162.024 17.639 162.054 17.6026 162.093 17.5769C162.131 17.5512 162.176 17.5374 162.223 17.5371V17.5371Z" fill="#D8690E"/>
<path d="M154.34 33.584C154.34 33.584 154.831 35.7595 154.819 35.7156C154.987 35.6059 155.166 35.5156 155.354 35.4466C155.298 34.8335 155.201 34.2248 155.062 33.6249C154.893 33.546 154.714 33.4891 154.53 33.4553C154.53 33.4553 154.822 27.4112 156.577 26.9551C154.562 27.3498 154.34 33.584 154.34 33.584Z" fill="#373684"/>
<path d="M154.34 33.5848C152.685 33.3421 150.329 33.4415 149.045 33.5234V33.2807C149.045 33.2807 153.197 33.1754 154.34 33.5848Z" fill="#373684"/>
<path d="M171.233 33.4961C171.233 33.4961 170.744 35.6745 170.753 35.6277C170.586 35.5185 170.408 35.4283 170.221 35.3587C170.278 34.7457 170.376 34.1372 170.513 33.537C170.683 33.46 170.862 33.404 171.046 33.3703C171.046 33.3703 170.578 27.3233 168.826 26.8701C170.844 27.2707 171.233 33.4961 171.233 33.4961Z" fill="#373684"/>
<path d="M171.232 33.497C172.89 33.2572 175.247 33.3538 176.531 33.4356V33.1959C176.531 33.1959 172.385 33.0906 171.232 33.497Z" fill="#373684"/>
<g clip-path="url(#clip0_669_2)">
<path d="M155.117 35.7389C155.117 35.7389 155.02 39.0769 153.813 38.0178C153.813 38.0178 153.202 39.6852 152.466 38.3961C152.466 38.3961 151.759 40.2873 151.134 38.3204C151.134 38.3204 150.315 40.7821 149.483 38.0935C149.483 38.0935 146.845 42.5851 146.637 35.7389L155.117 35.7389Z" fill="#F39672"/>
<path d="M154.135 35.7387C154.135 36.5825 154.019 37.3958 153.81 38.0176C153.81 38.0176 154.232 37.3557 154.135 35.7387Z" fill="#BC6A4F"/>
<path d="M152.678 35.7384C152.744 37.5949 152.466 38.3955 152.466 38.3955C152.466 38.3955 152.887 37.7178 152.678 35.7384Z" fill="#BC6A4F"/>
<path d="M151.46 35.7388C151.44 36.6647 151.328 37.5579 151.134 38.3203C151.259 37.9908 151.354 37.5851 151.411 37.1364C151.467 36.6877 151.484 36.2087 151.46 35.7388Z" fill="#BC6A4F"/>
<path d="M149.167 36.606C149.229 37.1606 149.337 37.6694 149.481 38.0938C149.384 37.9474 149.304 37.7314 149.248 37.4692C149.193 37.2071 149.165 36.9086 149.167 36.606V36.606Z" fill="#BC6A4F"/>
</g>
<g clip-path="url(#clip1_669_2)">
<path d="M179.096 35.7389C179.096 35.7389 178.999 39.0769 177.791 38.0178C177.791 38.0178 177.18 39.6852 176.444 38.3961C176.444 38.3961 175.737 40.2873 175.112 38.3204C175.112 38.3204 174.293 40.7821 173.461 38.0935C173.461 38.0935 170.824 42.5851 170.616 35.7389L179.096 35.7389Z" fill="#F39672"/>
<path d="M178.113 35.7387C178.114 36.5825 177.998 37.3958 177.789 38.0176C177.789 38.0176 178.21 37.3557 178.113 35.7387Z" fill="#BC6A4F"/>
<path d="M176.657 35.7384C176.723 37.5949 176.444 38.3955 176.444 38.3955C176.444 38.3955 176.866 37.7178 176.657 35.7384Z" fill="#BC6A4F"/>
<path d="M175.438 35.7388C175.419 36.6647 175.306 37.5579 175.113 38.3203C175.238 37.9908 175.333 37.5851 175.389 37.1364C175.446 36.6877 175.463 36.2087 175.438 35.7388Z" fill="#BC6A4F"/>
<path d="M173.146 36.606C173.208 37.1606 173.315 37.6694 173.46 38.0938C173.363 37.9474 173.282 37.7314 173.227 37.4692C173.172 37.2071 173.143 36.9086 173.146 36.606V36.606Z" fill="#BC6A4F"/>
</g>
<path d="M148.352 35.8894C148.352 35.8894 148.007 34.521 148.127 33.5911C148.127 33.5911 152.688 33.17 154.952 33.6964C154.952 33.6964 155.279 35.252 155.159 35.8894H148.352Z" fill="#FAF3ED"/>
<path d="M177.224 35.8015C177.224 35.8015 177.569 34.436 177.449 33.5061C177.449 33.5061 172.888 33.0851 170.625 33.6114C170.625 33.6114 170.297 35.167 170.417 35.8015H177.224Z" fill="#FAF3ED"/>
</g>
<defs>
<clipPath id="clip0_669_2">
<rect width="8.47983" height="3.8013" fill="white" transform="translate(155.117 39.54) rotate(-180)"/>
</clipPath>
<clipPath id="clip1_669_2">
<rect width="8.47983" height="3.8013" fill="white" transform="translate(179.096 39.54) rotate(-180)"/>
</clipPath>
</defs>
</svg>
