<svg width="173" height="48" viewBox="0 0 173 48" fill="none" xmlns="http://www.w3.org/2000/svg">
<rect width="172.8" height="47.6591" fill="#46A882"/>
<mask id="mask0_669_3" style="mask-type:alpha" maskUnits="userSpaceOnUse" x="132" y="8" width="33" height="33">
<circle cx="148.062" cy="24.0617" r="15.5617" fill="#A27474" stroke="black"/>
</mask>
<g mask="url(#mask0_669_3)">
<path d="M154.274 20.7457H154.374C157.429 20.8432 159.607 21.2137 159.913 22.8483C161.146 29.393 161.632 38.3652 161.632 38.3652L148.452 42.3394H147.896L135.324 38.3652C135.324 38.3652 135.719 24.2716 136.541 22.8483C137.096 21.9124 139.041 20.84 142.074 20.7393H154.296L154.274 20.7457Z" fill="#5154A1"/>
<path d="M143.1 24.8877C143.1 24.8877 148.417 28.928 153.158 24.8877C153.158 24.8877 150.942 39.2684 151.25 40.9992H145.373L143.1 24.8877Z" fill="#373684"/>
<g clip-path="url(#clip0_669_3)">
<path d="M163.848 36.5222C163.848 36.5222 163.756 39.6834 162.612 38.6805C162.612 38.6805 162.034 40.2596 161.337 39.0387C161.337 39.0387 160.667 40.8297 160.075 38.967C160.075 38.967 159.299 41.2984 158.512 38.7521C158.512 38.7521 156.014 43.0059 155.817 36.5222L163.848 36.5222Z" fill="#EFB19E"/>
<path d="M162.918 36.5224C162.918 37.3216 162.808 38.0918 162.61 38.6807C162.61 38.6807 163.01 38.0538 162.918 36.5224Z" fill="#BC6A4F"/>
<path d="M161.538 36.5216C161.6 38.2799 161.336 39.0381 161.336 39.0381C161.336 39.0381 161.736 38.3963 161.538 36.5216Z" fill="#BC6A4F"/>
<path d="M160.383 36.522C160.365 37.3988 160.258 38.2448 160.075 38.9668C160.193 38.6548 160.283 38.2705 160.337 37.8456C160.39 37.4206 160.406 36.967 160.383 36.522Z" fill="#BC6A4F"/>
<path d="M158.213 37.343C158.272 37.8682 158.374 38.3501 158.511 38.752C158.419 38.6133 158.342 38.4088 158.29 38.1605C158.238 37.9122 158.211 37.6295 158.213 37.343V37.343Z" fill="#BC6A4F"/>
</g>
<g clip-path="url(#clip1_669_3)">
<path d="M140.863 36.2478C140.863 36.2478 140.771 39.409 139.628 38.406C139.628 38.406 139.049 39.9852 138.352 38.7643C138.352 38.7643 137.683 40.5553 137.091 38.6926C137.091 38.6926 136.315 41.024 135.527 38.4777C135.527 38.4777 133.029 42.7315 132.832 36.2478L140.863 36.2478Z" fill="#EFB19E"/>
<path d="M139.934 36.248C139.934 37.0471 139.824 37.8174 139.626 38.4062C139.626 38.4062 140.025 37.7794 139.934 36.248Z" fill="#BC6A4F"/>
<path d="M138.553 36.2472C138.616 38.0055 138.352 38.7637 138.352 38.7637C138.352 38.7637 138.751 38.1219 138.553 36.2472Z" fill="#BC6A4F"/>
<path d="M137.399 36.2476C137.38 37.1244 137.274 37.9704 137.09 38.6924C137.209 38.3803 137.299 37.9961 137.352 37.5711C137.406 37.1462 137.422 36.6926 137.399 36.2476Z" fill="#BC6A4F"/>
<path d="M135.229 37.0686C135.287 37.5938 135.389 38.0756 135.526 38.4775C135.434 38.3389 135.358 38.1344 135.306 37.8861C135.253 37.6378 135.227 37.3551 135.229 37.0686V37.0686Z" fill="#BC6A4F"/>
</g>
<path d="M148.182 35.8671L148.185 26.6787L147.88 35.8782L148.182 35.8671Z" fill="#2C2C6B"/>
<path d="M153.159 25.958C153.476 25.958 153.732 25.7013 153.732 25.3848C153.732 25.0682 153.476 24.8115 153.159 24.8115C152.843 24.8115 152.586 25.0682 152.586 25.3848C152.586 25.7013 152.843 25.958 153.159 25.958Z" fill="#C9C5BD"/>
<path d="M153.2 25.813C153.477 25.813 153.702 25.5886 153.702 25.3118C153.702 25.035 153.477 24.8105 153.2 24.8105C152.924 24.8105 152.699 25.035 152.699 25.3118C152.699 25.5886 152.924 25.813 153.2 25.813Z" fill="white"/>
<path d="M152.474 26.7871C152.79 26.7871 153.047 26.5304 153.047 26.2139C153.047 25.8973 152.79 25.6406 152.474 25.6406C152.157 25.6406 151.9 25.8973 151.9 26.2139C151.9 26.5304 152.157 26.7871 152.474 26.7871Z" fill="#C9C5BD"/>
<path d="M152.516 26.6431C152.793 26.6431 153.017 26.4187 153.017 26.1419C153.017 25.865 152.793 25.6406 152.516 25.6406C152.239 25.6406 152.015 25.865 152.015 26.1419C152.015 26.4187 152.239 26.6431 152.516 26.6431Z" fill="white"/>
<path d="M151.901 27.7051C152.218 27.7051 152.475 27.4484 152.475 27.1318C152.475 26.8152 152.218 26.5586 151.901 26.5586C151.585 26.5586 151.328 26.8152 151.328 27.1318C151.328 27.4484 151.585 27.7051 151.901 27.7051Z" fill="#C9C5BD"/>
<path d="M151.943 27.5562C152.219 27.5562 152.444 27.3318 152.444 27.0549C152.444 26.7781 152.219 26.5537 151.943 26.5537C151.666 26.5537 151.441 26.7781 151.441 27.0549C151.441 27.3318 151.666 27.5562 151.943 27.5562Z" fill="white"/>
<path d="M151.499 28.6865C151.816 28.6865 152.072 28.4299 152.072 28.1133C152.072 27.7967 151.816 27.54 151.499 27.54C151.182 27.54 150.926 27.7967 150.926 28.1133C150.926 28.4299 151.182 28.6865 151.499 28.6865Z" fill="#DDD5C5"/>
<path d="M151.54 28.5425C151.817 28.5425 152.042 28.3181 152.042 28.0413C152.042 27.7645 151.817 27.54 151.54 27.54C151.263 27.54 151.039 27.7645 151.039 28.0413C151.039 28.3181 151.263 28.5425 151.54 28.5425Z" fill="white"/>
<path d="M150.927 29.5596C151.243 29.5596 151.5 29.3029 151.5 28.9863C151.5 28.6697 151.243 28.4131 150.927 28.4131C150.61 28.4131 150.354 28.6697 150.354 28.9863C150.354 29.3029 150.61 29.5596 150.927 29.5596Z" fill="#C9C5BD"/>
<path d="M150.968 29.4146C151.245 29.4146 151.469 29.1902 151.469 28.9133C151.469 28.6365 151.245 28.4121 150.968 28.4121C150.691 28.4121 150.467 28.6365 150.467 28.9133C150.467 29.1902 150.691 29.4146 150.968 29.4146Z" fill="white"/>
<path d="M150.32 30.3555C150.637 30.3555 150.894 30.0988 150.894 29.7822C150.894 29.4656 150.637 29.209 150.32 29.209C150.004 29.209 149.747 29.4656 149.747 29.7822C149.747 30.0988 150.004 30.3555 150.32 30.3555Z" fill="#C9C5BD"/>
<path d="M150.362 30.2115C150.638 30.2115 150.863 29.987 150.863 29.7102C150.863 29.4334 150.638 29.209 150.362 29.209C150.085 29.209 149.86 29.4334 149.86 29.7102C149.86 29.987 150.085 30.2115 150.362 30.2115Z" fill="white"/>
<path d="M149.572 31.0693C149.889 31.0693 150.145 30.8127 150.145 30.4961C150.145 30.1795 149.889 29.9229 149.572 29.9229C149.256 29.9229 148.999 30.1795 148.999 30.4961C148.999 30.8127 149.256 31.0693 149.572 31.0693Z" fill="#C9C5BD"/>
<path d="M149.613 30.9253C149.889 30.9253 150.114 30.7009 150.114 30.4241C150.114 30.1473 149.889 29.9229 149.613 29.9229C149.336 29.9229 149.111 30.1473 149.111 30.4241C149.111 30.7009 149.336 30.9253 149.613 30.9253Z" fill="white"/>
<path d="M148.702 31.4609C149.019 31.4609 149.275 31.2043 149.275 30.8877C149.275 30.5711 149.019 30.3145 148.702 30.3145C148.386 30.3145 148.129 30.5711 148.129 30.8877C148.129 31.2043 148.386 31.4609 148.702 31.4609Z" fill="#C9C5BD"/>
<path d="M148.744 31.315C149.021 31.315 149.246 31.0906 149.246 30.8137C149.246 30.5369 149.021 30.3125 148.744 30.3125C148.468 30.3125 148.243 30.5369 148.243 30.8137C148.243 31.0906 148.468 31.315 148.744 31.315Z" fill="white"/>
<path d="M147.642 31.3848C147.958 31.3848 148.215 31.1281 148.215 30.8115C148.215 30.4949 147.958 30.2383 147.642 30.2383C147.325 30.2383 147.068 30.4949 147.068 30.8115C147.068 31.1281 147.325 31.3848 147.642 31.3848Z" fill="#C9C5BD"/>
<path d="M147.684 31.2408C147.961 31.2408 148.185 31.0163 148.185 30.7395C148.185 30.4627 147.961 30.2383 147.684 30.2383C147.407 30.2383 147.183 30.4627 147.183 30.7395C147.183 31.0163 147.407 31.2408 147.684 31.2408Z" fill="white"/>
<path d="M146.728 30.8135C147.044 30.8135 147.301 30.5568 147.301 30.2402C147.301 29.9236 147.044 29.667 146.728 29.667C146.411 29.667 146.154 29.9236 146.154 30.2402C146.154 30.5568 146.411 30.8135 146.728 30.8135Z" fill="#C9C5BD"/>
<path d="M146.773 30.6695C147.05 30.6695 147.274 30.4451 147.274 30.1682C147.274 29.8914 147.05 29.667 146.773 29.667C146.496 29.667 146.271 29.8914 146.271 30.1682C146.271 30.4451 146.496 30.6695 146.773 30.6695Z" fill="white"/>
<path d="M145.958 30.1338C146.275 30.1338 146.531 29.8771 146.531 29.5605C146.531 29.244 146.275 28.9873 145.958 28.9873C145.641 28.9873 145.385 29.244 145.385 29.5605C145.385 29.8771 145.641 30.1338 145.958 30.1338Z" fill="#C9C5BD"/>
<path d="M146 29.9868C146.277 29.9868 146.501 29.7624 146.501 29.4856C146.501 29.2088 146.277 28.9844 146 28.9844C145.723 28.9844 145.499 29.2088 145.499 29.4856C145.499 29.7624 145.723 29.9868 146 29.9868Z" fill="white"/>
<path d="M145.385 29.3076C145.701 29.3076 145.958 29.051 145.958 28.7344C145.958 28.4178 145.701 28.1611 145.385 28.1611C145.068 28.1611 144.812 28.4178 144.812 28.7344C144.812 29.051 145.068 29.3076 145.385 29.3076Z" fill="#C9C5BD"/>
<path d="M145.427 29.1636C145.704 29.1636 145.928 28.9392 145.928 28.6624C145.928 28.3855 145.704 28.1611 145.427 28.1611C145.15 28.1611 144.926 28.3855 144.926 28.6624C144.926 28.9392 145.15 29.1636 145.427 29.1636Z" fill="white"/>
<path d="M144.926 28.4648C145.242 28.4648 145.499 28.2082 145.499 27.8916C145.499 27.575 145.242 27.3184 144.926 27.3184C144.609 27.3184 144.353 27.575 144.353 27.8916C144.353 28.2082 144.609 28.4648 144.926 28.4648Z" fill="#C9C5BD"/>
<path d="M144.968 28.3208C145.245 28.3208 145.469 28.0964 145.469 27.8196C145.469 27.5428 145.245 27.3184 144.968 27.3184C144.691 27.3184 144.467 27.5428 144.467 27.8196C144.467 28.0964 144.691 28.3208 144.968 28.3208Z" fill="white"/>
<path d="M144.433 27.7246C144.749 27.7246 145.006 27.468 145.006 27.1514C145.006 26.8348 144.749 26.5781 144.433 26.5781C144.116 26.5781 143.859 26.8348 143.859 27.1514C143.859 27.468 144.116 27.7246 144.433 27.7246Z" fill="#C9C5BD"/>
<path d="M144.474 27.5806C144.751 27.5806 144.975 27.3562 144.975 27.0794C144.975 26.8025 144.751 26.5781 144.474 26.5781C144.197 26.5781 143.973 26.8025 143.973 27.0794C143.973 27.3562 144.197 27.5806 144.474 27.5806Z" fill="white"/>
<path d="M143.931 26.8945C144.247 26.8945 144.504 26.6379 144.504 26.3213C144.504 26.0047 144.247 25.748 143.931 25.748C143.614 25.748 143.357 26.0047 143.357 26.3213C143.357 26.6379 143.614 26.8945 143.931 26.8945Z" fill="#C9C5BD"/>
<path d="M143.973 26.7495C144.25 26.7495 144.474 26.5251 144.474 26.2483C144.474 25.9715 144.25 25.7471 143.973 25.7471C143.696 25.7471 143.472 25.9715 143.472 26.2483C143.472 26.5251 143.696 26.7495 143.973 26.7495Z" fill="white"/>
<path d="M143.313 26.1426C143.63 26.1426 143.887 25.8859 143.887 25.5693C143.887 25.2527 143.63 24.9961 143.313 24.9961C142.997 24.9961 142.74 25.2527 142.74 25.5693C142.74 25.8859 142.997 26.1426 143.313 26.1426Z" fill="#C9C5BD"/>
<path d="M143.357 25.9937C143.634 25.9937 143.858 25.7693 143.858 25.4924C143.858 25.2156 143.634 24.9912 143.357 24.9912C143.08 24.9912 142.855 25.2156 142.855 25.4924C142.855 25.7693 143.08 25.9937 143.357 25.9937Z" fill="white"/>
<path d="M158.597 20.8263V20.8457H138.304C138.304 18.0958 139.94 14.1053 142.69 14.0998L153.266 11.6075C156.021 11.5881 158.597 18.0681 158.597 20.8263Z" fill="#ED8A29"/>
<path d="M141.812 20.4731C141.182 20.4731 140.578 20.2231 140.132 19.7781C139.687 19.3331 139.436 18.7295 139.436 18.0998C139.436 17.4701 139.687 16.8665 140.132 16.4215C140.578 15.9765 141.182 15.7266 141.812 15.7266C142.441 15.7266 143.045 15.9766 143.49 16.4217C143.935 16.8668 144.185 17.4704 144.185 18.0998C144.185 18.7292 143.935 19.3329 143.49 19.778C143.045 20.223 142.441 20.4731 141.812 20.4731V20.4731Z" fill="#EFB19E"/>
<path d="M140.462 20.6963C140.778 20.6963 141.035 20.4396 141.035 20.123C141.035 19.8065 140.778 19.5498 140.462 19.5498C140.145 19.5498 139.889 19.8065 139.889 20.123C139.889 20.4396 140.145 20.6963 140.462 20.6963Z" fill="#C49318"/>
<path d="M140.505 20.5523C140.782 20.5523 141.006 20.3279 141.006 20.051C141.006 19.7742 140.782 19.5498 140.505 19.5498C140.228 19.5498 140.004 19.7742 140.004 20.051C140.004 20.3279 140.228 20.5523 140.505 20.5523Z" fill="#EDB61B"/>
<path d="M148.238 24.8877C143.943 24.8877 140.462 21.8415 140.462 18.103C140.462 14.3645 143.943 11.3184 148.238 11.3184C152.533 11.3184 156.011 14.3645 156.011 18.103C156.011 21.8415 152.53 24.8877 148.238 24.8877Z" fill="#EFB19E"/>
<path d="M148.561 21.3043C148.454 21.3209 148.346 21.3348 148.237 21.3459C147.811 21.3874 147.381 21.3874 146.955 21.3459C146.814 21.3459 146.678 21.3154 146.537 21.296C145.014 21.0551 144.224 21.6339 145.102 22.0437C145.88 22.3568 146.709 22.523 147.548 22.5339C148.387 22.5231 149.217 22.3569 149.996 22.0437C150.873 21.6477 150.084 21.0689 148.561 21.3043Z" fill="#E28E74"/>
<path d="M153.553 18.1041C153.55 17.6568 153.652 17.2151 153.849 16.8137C154.022 16.4521 154.297 16.1482 154.638 15.9386C154.947 15.759 155.31 15.698 155.66 15.7669C156.03 15.8475 156.362 16.0493 156.605 16.3401C156.882 16.6678 157.073 17.0602 157.158 17.481C157.253 17.9244 157.247 18.3832 157.142 18.8241C157.044 19.2364 156.844 19.6173 156.56 19.9318C156.31 20.2113 155.972 20.3977 155.602 20.4608C155.531 20.4718 155.458 20.4774 155.386 20.4774C155.266 20.4763 155.146 20.4614 155.029 20.4331C154.582 20.3012 154.202 20.0042 153.965 19.6023C153.692 19.1508 153.549 18.6321 153.553 18.1041V18.1041Z" fill="#EFB19E"/>
<path d="M156.612 18.9865C156.735 18.7027 156.796 18.3959 156.792 18.0865C156.793 17.7763 156.728 17.4695 156.601 17.1865C156.488 16.9288 156.312 16.7039 156.088 16.5329C155.888 16.3795 155.643 16.295 155.391 16.292C155.391 16.292 157.024 16.8292 156.612 18.9865Z" fill="#BC6A4F"/>
<path d="M152.474 22.2985C152.739 22.1392 152.968 21.926 153.147 21.6726C153.325 21.4241 153.451 21.1413 153.515 20.8419C153.574 20.5665 153.562 20.2809 153.482 20.0111C153.407 19.7707 153.257 19.5603 153.055 19.4102C153.055 19.4102 154.066 20.7865 152.474 22.2985Z" fill="#BC6A4F"/>
<path d="M143.313 22.1924C143.019 22.0975 142.747 21.9418 142.516 21.7354C142.282 21.5318 142.094 21.2819 141.962 21.0016C141.845 20.7499 141.793 20.4726 141.812 20.1957C141.828 19.9437 141.925 19.7037 142.089 19.5117C142.089 19.5117 141.416 21.0874 143.313 22.1924Z" fill="#BC6A4F"/>
<path d="M145.469 21.5469C145.862 21.8515 146.646 22.0592 147.548 22.0592C148.451 22.0592 149.235 21.8515 149.631 21.5469C149.631 21.5469 147.54 22.3278 145.469 21.5469Z" fill="#BC6A4F"/>
<path d="M140.483 34.0429C140.483 34.0429 140.951 36.1199 140.94 36.0755C141.101 35.9726 141.271 35.8871 141.45 35.8208C141.397 35.2364 141.304 34.6563 141.173 34.0845C141.011 34.0099 140.841 33.9559 140.666 33.9238C140.666 33.9238 141.3 32.5392 141.162 30.0469C141.116 31.4033 140.888 32.7475 140.483 34.0429V34.0429Z" fill="#373684"/>
<path d="M134.772 36.2265C134.772 36.2265 134.446 34.9222 134.559 34.036C134.559 34.036 138.907 33.6345 141.064 34.1357C141.064 34.1357 141.377 35.62 141.263 36.2265H134.772Z" fill="#FAF3ED"/>
<path d="M140.484 34.0421C138.905 33.8122 136.66 33.9064 135.436 33.9839V33.7541C135.436 33.7541 139.387 33.6405 140.484 34.0421Z" fill="#373684"/>
<path d="M156.418 34.3836C156.418 34.3836 155.95 36.4577 155.961 36.4162C155.972 36.3747 155.451 36.1587 155.451 36.1587C155.506 35.5745 155.598 34.9945 155.728 34.4223C155.891 34.3479 156.062 34.2939 156.238 34.2617C156.238 34.2617 155.601 32.8771 155.742 30.3848C155.786 31.7421 156.013 33.0873 156.418 34.3836V34.3836Z" fill="#373684"/>
<path d="M162.129 36.5791C162.129 36.5791 162.458 35.2776 162.345 34.3887C162.345 34.3887 157.994 33.9899 155.837 34.4911C155.837 34.4911 155.524 35.9727 155.64 36.5791H162.129Z" fill="#FAF3ED"/>
<path d="M156.418 34.3814C157.996 34.1516 160.295 34.2457 161.505 34.326L161.488 34.1045C161.488 34.1045 157.517 33.9937 156.418 34.3814Z" fill="#373684"/>
<path d="M149.49 18.1941C149.49 18.6759 149.88 19.0664 150.362 19.0664C150.844 19.0664 151.234 18.6759 151.234 18.1941C151.234 17.7123 150.844 17.3218 150.362 17.3218C149.88 17.3218 149.49 17.7123 149.49 18.1941Z" fill="#1D1D1B"/>
<path d="M143.305 18.1941C143.305 18.6759 143.696 19.0664 144.177 19.0664C144.659 19.0664 145.05 18.6759 145.05 18.1941C145.05 17.7123 144.659 17.3218 144.177 17.3218C143.696 17.3218 143.305 17.7123 143.305 18.1941Z" fill="#1D1D1B"/>
<path d="M155.521 15.7289C155.654 15.4298 155.72 15.1047 155.713 14.7772C155.706 14.4497 155.626 14.1278 155.479 13.8348C155.337 13.4816 155.219 13.1188 155.128 12.7492C154.948 12.2217 154.666 11.735 154.297 11.3175C153.436 10.1655 151.478 10.1821 150.996 10.3926L150.633 10.5587C150.492 10.6252 150.356 10.5394 150.248 10.4369C149.941 10.1766 149.877 10.0713 149.096 9.94396C148.401 9.83042 148.016 9.94397 147.806 10.1434C147.707 10.2357 147.581 10.2935 147.447 10.308C147.312 10.3225 147.177 10.2929 147.061 10.2237L146.986 10.1794C146.233 9.74148 145.339 9.61432 144.494 9.82489C141.52 10.5504 139.847 14.4468 140.248 15.3135C140.338 15.5103 140.467 15.686 140.629 15.8292C140.791 15.9724 140.981 16.0797 141.187 16.1443C141.741 16.3132 142.054 13.1563 145.485 13.7268C145.485 13.7268 145.707 14.6849 147.044 15.1502C148.382 15.6154 149.838 13.7849 149.838 13.7849C149.838 13.7849 149.722 14.9618 151.544 15.7234C152.823 16.2212 154.241 16.2232 155.521 15.7289V15.7289Z" fill="#ED8A29"/>
<path d="M147.002 15.2531C146.352 15.0591 145.8 14.6243 145.46 14.0374C145.119 13.4033 145.097 12.6223 145.399 11.7168L145.596 11.7833C145.319 12.6306 145.319 13.3562 145.643 13.9405C145.96 14.4723 146.463 14.8672 147.055 15.0482L147.002 15.2531Z" fill="#1D1D1B"/>
<path d="M151.504 15.8295C150.856 15.6348 150.306 15.2013 149.965 14.6165C149.621 13.9796 149.602 13.1987 149.904 12.2959L150.1 12.3596C149.824 13.207 149.824 13.9325 150.148 14.5141C150.464 15.0454 150.966 15.4401 151.557 15.6218L151.504 15.8295Z" fill="#1D1D1B"/>
<path d="M155.847 20.6963C156.163 20.6963 156.42 20.4396 156.42 20.123C156.42 19.8065 156.163 19.5498 155.847 19.5498C155.53 19.5498 155.273 19.8065 155.273 20.123C155.273 20.4396 155.53 20.6963 155.847 20.6963Z" fill="#C49318"/>
<path d="M155.892 20.5523C156.169 20.5523 156.393 20.3279 156.393 20.051C156.393 19.7742 156.169 19.5498 155.892 19.5498C155.615 19.5498 155.391 19.7742 155.391 20.051C155.391 20.3279 155.615 20.5523 155.892 20.5523Z" fill="#EDB61B"/>
<path opacity="0.6" d="M140.937 20.4443C140.937 20.4443 140.716 19.8738 140.66 19.5803C140.66 19.5803 140.66 19.5498 140.475 19.5498C140.506 19.9174 140.62 20.2732 140.807 20.591C140.859 20.5506 140.903 20.5008 140.937 20.4443V20.4443Z" fill="#C49318"/>
<path opacity="0.6" d="M153.825 23.3955C153.825 23.3955 150.436 28.4134 150.466 36.0288H151.167V35.1981L153.825 23.3955Z" fill="#373684"/>
<path opacity="0.6" d="M142.568 23.2422C142.568 23.2422 145.958 28.2601 145.927 35.8755H145.227V35.0447L142.568 23.2422Z" fill="#373684"/>
<path d="M155.383 21.0889L156.46 24.5421L154.147 27.6132L153.967 31.5345L151.384 35.4281L151.409 34.4311C151.533 29.5988 152.741 25.1431 155.371 21.0889H155.383Z" fill="#373684"/>
<path d="M155.407 20.5967L156.484 24.0527L154.169 27.3758L153.992 31.2998L151.167 35.1934L151.192 34.1937C151.317 29.3613 152.776 24.6576 155.407 20.6022V20.5967Z" fill="#FAF3ED"/>
<path d="M141.087 21.084L140.01 24.54L142.325 27.6083L142.502 31.5296L145.078 35.4232L145.05 34.4262C144.928 29.5939 143.718 25.1409 141.087 21.084Z" fill="#373684"/>
<path d="M141.054 20.5918L139.977 24.0478L142.289 27.3709L142.469 31.2922L145.291 35.1858L145.266 34.1888C145.142 29.3557 143.684 24.651 141.054 20.5946V20.5918Z" fill="#FAF3ED"/>
<path d="M142.209 17.981C142.355 17.6973 142.551 17.4422 142.788 17.2277C143.023 17.0002 143.307 16.8288 143.619 16.7265C143.949 16.6291 144.304 16.6628 144.61 16.8207C144.896 16.9787 145.129 17.2176 145.28 17.5074C145.059 17.3009 144.803 17.135 144.524 17.0173C144.257 16.9206 143.966 16.9118 143.693 16.9923C143.413 17.083 143.149 17.2186 142.912 17.3939C142.667 17.5756 142.432 17.7717 142.209 17.981V17.981Z" fill="#1D1D1B"/>
<path d="M152.582 17.981C152.356 17.7713 152.117 17.5753 151.868 17.3939C151.631 17.2186 151.367 17.083 151.087 16.9923C150.814 16.9118 150.523 16.9206 150.256 17.0173C149.977 17.135 149.721 17.3009 149.5 17.5074C149.651 17.2176 149.884 16.9787 150.17 16.8207C150.476 16.6628 150.831 16.6291 151.162 16.7265C151.473 16.8288 151.757 17.0002 151.992 17.2277C152.233 17.4413 152.432 17.6965 152.582 17.981V17.981Z" fill="#1D1D1B"/>
</g>
<defs>
<clipPath id="clip0_669_3">
<rect width="8.03083" height="3.60003" fill="white" transform="translate(163.848 40.1221) rotate(-180)"/>
</clipPath>
<clipPath id="clip1_669_3">
<rect width="8.03083" height="3.60003" fill="white" transform="translate(140.863 39.8477) rotate(-180)"/>
</clipPath>
</defs>
</svg>
