<svg xmlns="http://www.w3.org/2000/svg" viewBox="0 0 720 1280"><defs><style>.cls-1{fill:#303844;}.cls-2{fill:#191919;}.cls-3{fill:#fbf7eb;}</style></defs><title>fond_principaleFichier 4</title><g id="Calque_2" data-name="Calque 2"><g id="Calque_3" data-name="Calque 3"><rect class="cls-1" width="720" height="1280"/><rect class="cls-2" y="1123.5" width="18.46" height="18.46"/><rect class="cls-3" x="18.46" y="1123.5" width="18.46" height="18.46"/><rect class="cls-2" x="36.92" y="1123.5" width="18.46" height="18.46"/><rect class="cls-3" x="55.38" y="1123.5" width="18.46" height="18.46"/><rect class="cls-2" x="73.85" y="1123.5" width="18.46" height="18.46"/><rect class="cls-3" x="92.31" y="1123.5" width="18.46" height="18.46"/><rect class="cls-2" x="110.77" y="1123.5" width="18.46" height="18.46"/><rect class="cls-3" x="129.23" y="1123.5" width="18.46" height="18.46"/><rect class="cls-2" x="147.69" y="1123.5" width="18.46" height="18.46"/><rect class="cls-3" x="166.15" y="1123.5" width="18.46" height="18.46"/><rect class="cls-2" x="184.62" y="1123.5" width="18.46" height="18.46"/><rect class="cls-3" x="203.08" y="1123.5" width="18.46" height="18.46"/><rect class="cls-2" x="221.54" y="1123.5" width="18.46" height="18.46"/><rect class="cls-3" x="240" y="1123.5" width="18.46" height="18.46"/><rect class="cls-2" x="258.46" y="1123.5" width="18.46" height="18.46"/><rect class="cls-3" x="276.92" y="1123.5" width="18.46" height="18.46"/><rect class="cls-2" x="295.38" y="1123.5" width="18.46" height="18.46"/><rect class="cls-3" x="313.85" y="1123.5" width="18.46" height="18.46"/><rect class="cls-2" x="332.31" y="1123.5" width="18.46" height="18.46"/><rect class="cls-3" x="350.77" y="1123.5" width="18.46" height="18.46"/><rect class="cls-2" x="369.23" y="1123.5" width="18.46" height="18.46"/><rect class="cls-3" x="387.69" y="1123.5" width="18.46" height="18.46"/><rect class="cls-2" x="406.15" y="1123.5" width="18.46" height="18.46"/><rect class="cls-3" x="424.62" y="1123.5" width="18.46" height="18.46"/><rect class="cls-2" x="443.08" y="1123.5" width="18.46" height="18.46"/><rect class="cls-3" x="461.54" y="1123.5" width="18.46" height="18.46"/><rect class="cls-2" x="480" y="1123.5" width="18.46" height="18.46"/><rect class="cls-3" x="498.46" y="1123.5" width="18.46" height="18.46"/><rect class="cls-2" x="516.92" y="1123.5" width="18.46" height="18.46"/><rect class="cls-3" x="535.38" y="1123.5" width="18.46" height="18.46"/><rect class="cls-2" x="553.85" y="1123.5" width="18.46" height="18.46"/><rect class="cls-3" x="572.31" y="1123.5" width="18.46" height="18.46"/><rect class="cls-2" x="18.46" y="1141.96" width="18.46" height="18.46"/><rect class="cls-3" x="36.92" y="1141.96" width="18.46" height="18.46"/><rect class="cls-2" x="55.38" y="1141.96" width="18.46" height="18.46"/><rect class="cls-3" x="73.85" y="1141.96" width="18.46" height="18.46"/><rect class="cls-2" x="92.31" y="1141.96" width="18.46" height="18.46"/><rect class="cls-3" x="110.77" y="1141.96" width="18.46" height="18.46"/><rect class="cls-2" x="129.23" y="1141.96" width="18.46" height="18.46"/><rect class="cls-3" x="147.69" y="1141.96" width="18.46" height="18.46"/><rect class="cls-2" x="166.15" y="1141.96" width="18.46" height="18.46"/><rect class="cls-3" x="184.62" y="1141.96" width="18.46" height="18.46"/><rect class="cls-2" x="203.08" y="1141.96" width="18.46" height="18.46"/><rect class="cls-3" x="221.54" y="1141.96" width="18.46" height="18.46"/><rect class="cls-2" x="240" y="1141.96" width="18.46" height="18.46"/><rect class="cls-3" x="258.46" y="1141.96" width="18.46" height="18.46"/><rect class="cls-2" x="276.92" y="1141.96" width="18.46" height="18.46"/><rect class="cls-3" x="295.38" y="1141.96" width="18.46" height="18.46"/><rect class="cls-2" x="313.85" y="1141.96" width="18.46" height="18.46"/><rect class="cls-3" x="332.31" y="1141.96" width="18.46" height="18.46"/><rect class="cls-2" x="350.77" y="1141.96" width="18.46" height="18.46"/><rect class="cls-3" x="369.23" y="1141.96" width="18.46" height="18.46"/><rect class="cls-2" x="387.69" y="1141.96" width="18.46" height="18.46"/><rect class="cls-3" x="406.15" y="1141.96" width="18.46" height="18.46"/><rect class="cls-2" x="424.62" y="1141.96" width="18.46" height="18.46"/><rect class="cls-3" x="443.08" y="1141.96" width="18.46" height="18.46"/><rect class="cls-2" x="461.54" y="1141.96" width="18.46" height="18.46"/><rect class="cls-3" x="480" y="1141.96" width="18.46" height="18.46"/><rect class="cls-2" x="498.46" y="1141.96" width="18.46" height="18.46"/><rect class="cls-3" x="516.92" y="1141.96" width="18.46" height="18.46"/><rect class="cls-2" x="535.38" y="1141.96" width="18.46" height="18.46"/><rect class="cls-3" x="553.85" y="1141.96" width="18.46" height="18.46"/><rect class="cls-2" x="572.31" y="1141.96" width="18.46" height="18.46"/><rect class="cls-3" y="1141.96" width="18.46" height="18.46"/><rect class="cls-2" y="1160.42" width="18.46" height="18.46"/><rect class="cls-3" x="18.46" y="1160.42" width="18.46" height="18.46"/><rect class="cls-2" x="36.92" y="1160.42" width="18.46" height="18.46"/><rect class="cls-3" x="55.38" y="1160.42" width="18.46" height="18.46"/><rect class="cls-2" x="73.85" y="1160.42" width="18.46" height="18.46"/><rect class="cls-3" x="92.31" y="1160.42" width="18.46" height="18.46"/><rect class="cls-2" x="110.77" y="1160.42" width="18.46" height="18.46"/><rect class="cls-3" x="129.23" y="1160.42" width="18.46" height="18.46"/><rect class="cls-2" x="147.69" y="1160.42" width="18.46" height="18.46"/><rect class="cls-3" x="166.15" y="1160.42" width="18.46" height="18.46"/><rect class="cls-2" x="184.62" y="1160.42" width="18.46" height="18.46"/><rect class="cls-3" x="203.08" y="1160.42" width="18.46" height="18.46"/><rect class="cls-2" x="221.54" y="1160.42" width="18.46" height="18.46"/><rect class="cls-3" x="240" y="1160.42" width="18.46" height="18.46"/><rect class="cls-2" x="258.46" y="1160.42" width="18.46" height="18.46"/><rect class="cls-3" x="276.92" y="1160.42" width="18.46" height="18.46"/><rect class="cls-2" x="295.38" y="1160.42" width="18.46" height="18.46"/><rect class="cls-3" x="313.85" y="1160.42" width="18.46" height="18.46"/><rect class="cls-2" x="332.31" y="1160.42" width="18.46" height="18.46"/><rect class="cls-3" x="350.77" y="1160.42" width="18.46" height="18.46"/><rect class="cls-2" x="369.23" y="1160.42" width="18.46" height="18.46"/><rect class="cls-3" x="387.69" y="1160.42" width="18.46" height="18.46"/><rect class="cls-2" x="406.15" y="1160.42" width="18.46" height="18.46"/><rect class="cls-3" x="424.62" y="1160.42" width="18.46" height="18.46"/><rect class="cls-2" x="443.08" y="1160.42" width="18.46" height="18.46"/><rect class="cls-3" x="461.54" y="1160.42" width="18.46" height="18.46"/><rect class="cls-2" x="480" y="1160.42" width="18.46" height="18.46"/><rect class="cls-3" x="498.46" y="1160.42" width="18.46" height="18.46"/><rect class="cls-2" x="516.92" y="1160.42" width="18.46" height="18.46"/><rect class="cls-3" x="535.38" y="1160.42" width="18.46" height="18.46"/><rect class="cls-2" x="553.85" y="1160.42" width="18.46" height="18.46"/><rect class="cls-3" x="572.31" y="1160.42" width="18.46" height="18.46"/><rect class="cls-2" x="590.77" y="1123.5" width="18.46" height="18.46"/><rect class="cls-3" x="609.23" y="1123.5" width="18.46" height="18.46"/><rect class="cls-3" x="590.77" y="1141.96" width="18.46" height="18.46"/><rect class="cls-2" x="609.23" y="1141.96" width="18.46" height="18.46"/><rect class="cls-2" x="590.77" y="1160.42" width="18.46" height="18.46"/><rect class="cls-3" x="609.23" y="1160.42" width="18.46" height="18.46"/><rect class="cls-2" x="627.69" y="1123.5" width="18.46" height="18.46"/><rect class="cls-3" x="646.15" y="1123.5" width="18.46" height="18.46"/><rect class="cls-3" x="627.69" y="1141.96" width="18.46" height="18.46"/><rect class="cls-2" x="646.15" y="1141.96" width="18.46" height="18.46"/><rect class="cls-2" x="627.69" y="1160.42" width="18.46" height="18.46"/><rect class="cls-3" x="646.15" y="1160.42" width="18.46" height="18.46"/><rect class="cls-2" x="664.62" y="1123.5" width="18.46" height="18.46"/><rect class="cls-3" x="683.08" y="1123.5" width="18.46" height="18.46"/><rect class="cls-3" x="664.62" y="1141.96" width="18.46" height="18.46"/><rect class="cls-2" x="683.08" y="1141.96" width="18.46" height="18.46"/><rect class="cls-2" x="664.62" y="1160.42" width="18.46" height="18.46"/><rect class="cls-3" x="683.08" y="1160.42" width="18.46" height="18.46"/><rect class="cls-2" x="701.54" y="1123.5" width="18.46" height="18.46"/><rect class="cls-3" x="701.54" y="1141.96" width="18.46" height="18.46"/><rect class="cls-2" x="701.54" y="1160.42" width="18.46" height="18.46"/></g></g></svg>