<?xml version="1.0" encoding="utf-8"?>
<!-- Generator: Adobe Illustrator 25.0.0, SVG Export Plug-In . SVG Version: 6.00 Build 0)  -->
<svg version="1.2" baseProfile="tiny" id="Calque_1"
	 xmlns="http://www.w3.org/2000/svg" xmlns:xlink="http://www.w3.org/1999/xlink" x="0px" y="0px" viewBox="0 0 177 54.6"
	 overflow="visible" xml:space="preserve">
<g>
	<path fill="#2D519F" d="M7.5,54.8L0,31.1l5-3.9l21.2,12.9L22,43.5l-4.6-2.9L10,46.3l1.7,5.2L7.5,54.8z M8.6,42.1l5-3.9l-4.5-2.8
		l-4.1-3l1.9,4.7L8.6,42.1z"/>
	<path fill="#2D519F" d="M25.9,40.6L15.1,20l10.1-5.3c4.5-2.4,7.6-1,9.1,1.9c1.8,3.5-0.7,6.3-3.8,8.1c5.3-2.5,8.3-1.4,9.8,1.5
		c2,3.8-0.1,6.9-4.4,9.1L25.9,40.6z M21.6,21.6l2.3,4.4l4.6-2.4c1.7-0.9,2.5-2,1.7-3.7c-0.9-1.6-2.3-1.6-4-0.7L21.6,21.6z
		 M25.7,29.6l2.5,4.8l4.9-2.6c2.3-1.2,2.9-2.5,2.1-4.2c-0.9-1.7-2.4-1.8-4.5-0.7L25.7,29.6z"/>
	<path fill="#2D519F" d="M42,27.2l2-4.6c2.4,2.3,5.9,2.5,8.6,1.7c1.9-0.6,3.1-1.6,2.7-3.1c-0.5-1.7-2.2-1.8-5.3-1.5l-2.3,0.2
		c-3.7,0.4-7.4-0.1-8.7-4.3c-1.3-4.3,1.7-7.8,6.2-9.2c4.2-1.3,8-0.7,10.7,1.3l-2.1,4.6c-2.2-1.9-5.1-2.3-7.7-1.5
		c-1.7,0.5-2.7,1.6-2.3,2.9c0.5,1.6,2.1,1.8,4.6,1.6l2.7-0.2c4.4-0.3,7.8,0.5,9,4.5c1.3,4.2-1.6,7.6-6.4,9.1
		C49.5,30,45.1,29.9,42,27.2z"/>
	<path fill="#2D519F" d="M63.2,25.7l-3-23l16.9-2.2l0.6,4.4l-12,1.6l0.6,4.8l10-1.3l0.6,4.4l-10,1.3l0.7,5.1l12-1.6l0.6,4.4
		L63.2,25.7z"/>
	<path fill="#2D519F" d="M81,23.3l1-23.2l4.8,0.2l7.7,12.5l2,3.7L96.4,11l0.5-10.3l5,0.2l-1,23.2L96.1,24l-7.9-12.6l-1.9-3.5
		l0.1,5.8L86,23.5L81,23.3z"/>
	<path fill="#2D519F" d="M107.3,25.6l4-18.4l-6.8-1.5l0.9-4.3l18.4,4L123,9.8l-6.8-1.5l-4,18.4L107.3,25.6z"/>
	<path fill="#2D519F" d="M119,28.5l7.3-22l4.7,1.6l-7.3,22L119,28.5z"/>
	<path fill="#2D519F" d="M130.5,19.7c3-6,9.6-8.6,15.8-5.5c6.2,3.1,8.1,9.9,5.2,15.9c-3,6-9.6,8.6-15.8,5.5
		C129.4,32.5,127.5,25.7,130.5,19.7z M146.8,27.7c1.8-3.7,1.3-7.4-2.6-9.3c-3.8-1.9-7.1-0.2-9,3.5c-1.9,3.7-1.2,7.4,2.6,9.3
		C141.7,33.2,144.9,31.4,146.8,27.7z"/>
	<path fill="#2D519F" d="M147.2,41.3L161.5,23l3.8,3l-1,14.6l-0.6,4.2l3.1-4.5l6.4-8.1l3.9,3.1l-14.3,18.3l-3.7-2.9l0.9-14.8l0.5-4
		l-3.3,4.8l-6.1,7.8L147.2,41.3z"/>
</g>
<g>
</g>
<g>
</g>
<g>
</g>
<g>
</g>
<g>
</g>
<g>
</g>
</svg>
