<?xml version="1.0" encoding="utf-8"?>
<!-- Generator: Adobe Illustrator 25.0.0, SVG Export Plug-In . SVG Version: 6.00 Build 0)  -->
<svg version="1.2" baseProfile="tiny" id="Calque_1"
	 xmlns="http://www.w3.org/2000/svg" xmlns:xlink="http://www.w3.org/1999/xlink" x="0px" y="0px" viewBox="0 0 116.5 40.6"
	 overflow="visible" xml:space="preserve">
<g>
	<path fill="#0039FF" d="M107.5,40.4H9c-5,0-9-4-9-9V9.1c0-5,4-9,9-9h98.5c5,0,9,4,9,9v22.3C116.5,36.4,112.5,40.4,107.5,40.4z"/>
	<g>
		<path fill="none" stroke="#E5E5F4" stroke-miterlimit="10" d="M20.4,9.5L20.4,9.5c-5.8,0-10.6,4.7-10.6,10.6v0
			c0,5.8,4.7,10.6,10.6,10.6h0c5.8,0,10.6-4.7,10.6-10.6v0C30.9,14.2,26.2,9.5,20.4,9.5z"/>
		<g>
			<line fill="none" stroke="#E5E5F4" stroke-miterlimit="10" x1="23.9" y1="20.1" x2="16.5" y2="20.1"/>
			<polyline fill="none" stroke="#E5E5F4" stroke-miterlimit="10" points="20.2,23.8 16.5,20.1 20.2,16.3 			"/>
		</g>
	</g>
	<g>
		<path fill="#E3E3F3" d="M51.8,26.9V13.6h5.5c2.6,0,4.5,1.4,4.5,4c0,2.2-1.5,3.5-3.8,3.7c0.7,0.2,1.2,0.7,1.6,1.4l2.5,4.1h-1.5
			l-2.4-4.1c-0.5-0.9-1.3-1.3-2.6-1.3h-2.4v5.5H51.8z M53.1,14.8v5.6h4c1.9,0,3.3-0.8,3.3-2.8c0-2.1-1.4-2.8-3.3-2.8H53.1z"/>
		<path fill="#E3E3F3" d="M62.8,22.1c0-3.1,1.8-5,4.3-5c2.6,0,4.2,1.7,4.2,4.6c0,0.2,0,0.5-0.1,0.6H64c0.1,2.4,1.4,3.6,3.2,3.6
			c1.9,0,2.8-1.1,3.2-2l0.8,0.9c-0.7,1.2-1.9,2.1-4,2.1C64.6,27.1,62.8,25.3,62.8,22.1z M64.1,21.5h6.1c-0.1-2.1-1.3-3.2-3-3.2
			S64.2,19.3,64.1,21.5z"/>
		<path fill="#E3E3F3" d="M73.6,24.5v-6.1h-1.5v-1h1.5V16l1.3-1v2.3h3.2v1h-3.2v5.7c0,1.4,0.7,1.7,1.5,1.7c0.9,0,1.5-0.6,1.9-1.3
			l0.5,1.3c-0.4,0.7-1.3,1.3-2.6,1.3C74.8,27.1,73.6,26.2,73.6,24.5z"/>
		<path fill="#E3E3F3" d="M78.8,22.1c0-3,1.8-5,4.4-5s4.5,1.9,4.5,5s-1.8,5-4.5,5S78.8,25.1,78.8,22.1z M86.4,22.1
			c0-2.5-1.3-3.9-3.2-3.9c-1.9,0-3.1,1.3-3.1,3.9c0,2.5,1.3,3.8,3.1,3.8C85.1,26,86.4,24.6,86.4,22.1z"/>
		<path fill="#E3E3F3" d="M89.5,23.8v-6.4h1.3v6.1c0,1.5,0.7,2.5,2.3,2.5c2.1,0,2.9-1.4,2.9-3.1v-5.5h1.3v9.5H96v-2.7
			c-0.3,1.6-1.4,2.9-3.4,2.9C90.7,27.1,89.5,26,89.5,23.8z"/>
		<path fill="#E3E3F3" d="M99.6,26.9v-9.5h1.3V20c0.4-1.5,1.4-2.8,3-2.8c1.1,0,2,0.7,2,2c0,0.7-0.2,1.3-0.4,1.6h-1.4
			c0.3-0.3,0.5-0.9,0.5-1.5c0-0.6-0.4-1.2-1.2-1.2c-1.4,0-2.6,1.6-2.6,3.2v5.5H99.6z"/>
	</g>
	<line fill="none" stroke="#E3E3F3" stroke-miterlimit="10" x1="40.5" y1="0" x2="40.5" y2="40.6"/>
</g>
<g>
</g>
<g>
</g>
<g>
</g>
<g>
</g>
<g>
</g>
<g>
</g>
</svg>
