<svg id="Calque_1" data-name="Calque 1" xmlns="http://www.w3.org/2000/svg" viewBox="0 0 250.3 240.76"><defs><style>.cls-1{fill:#0a2dfd;}.cls-2{fill:#e2e3f8;stroke-width:1.49px;}.cls-2,.cls-3{stroke:#fd0000;stroke-miterlimit:10;}.cls-3{fill:none;stroke-width:1.61px;}.cls-4{fill:#0f29fb;}</style></defs><polygon class="cls-1" points="250.3 240.76 10.57 240.76 23.52 8.79 132.06 8.79 134.83 24.08 250.3 24.07 250.3 240.76"/><polygon class="cls-2" points="240.47 232.72 0.74 232.72 0.74 0.74 109.28 0.74 112.06 16.03 240.47 17.07 240.47 232.72"/><path class="cls-3" d="M72,211.4,152.16,42.88h26.21L98.19,211.4Z" transform="translate(-4.57 -2.52)"/><path class="cls-4" d="M27.76,114.65V78.94H42.84c9.06,0,15.82,3.73,15.82,13.27S52,105.53,42.84,105.53H37.35v9.12Zm9.59-27.18V97h5.59c3.73,0,5.6-1.71,5.6-4.8s-1.87-4.74-5.6-4.74Z" transform="translate(-4.57 -2.52)"/><path class="cls-4" d="M59.68,96.74c0-10.28,7.51-18.33,18.38-18.33s18.39,8,18.39,18.33-7.52,18.33-18.39,18.33S59.68,107,59.68,96.74Zm26.64,0c0-5.17-2.72-9-8.26-9s-8.26,3.84-8.26,9,2.72,9,8.26,9S86.32,101.91,86.32,96.74Z" transform="translate(-4.57 -2.52)"/><path class="cls-4" d="M98.47,98.5V78.94h9.59V98.61c0,5.06,2.24,7.24,6.45,7.24s6.45-2.18,6.45-7.24V78.94h9.59V98.5c0,11.62-5.44,16.68-16.09,16.68C104.06,115.18,98.47,110.12,98.47,98.5Z" transform="translate(-4.57 -2.52)"/><path class="cls-4" d="M134.54,114.65V78.94h17.11c8.31,0,14.28,3.31,14.28,11.19,0,6.88-4.64,9.91-10.71,10.45,3.68.9,5.27,3.19,7.09,6l5.11,8.05H156.5l-5.92-9.54c-1.44-2.35-2.77-3.25-5.7-3.25h-.74v12.79Zm9.6-27.18v6.71h7.62c2.71,0,4.05-1.17,4.05-3.35s-1.34-3.36-4.05-3.36Z" transform="translate(-4.57 -2.52)"/><path class="cls-4" d="M94.65,157.49c0-10.29,7-18.33,18.38-18.33,7.62,0,13.16,3.67,16.15,9.22l-8,6.87c-1-3.46-3.73-6.82-8.26-6.82-5,0-7.88,3.68-7.88,9.06s2.93,9.06,7.88,9.06c4.53,0,7.3-3.36,8.26-6.82l8,6.87c-3,5.54-8.53,9.22-16.15,9.22C101.63,175.82,94.65,167.77,94.65,157.49Z" transform="translate(-4.57 -2.52)"/><path class="cls-4" d="M130.13,175.39v-35.7h27.34v8.53H139.73v5.06h15.08v8.53H139.73v5.06h17.74v8.52Z" transform="translate(-4.57 -2.52)"/><path class="cls-4" d="M159.71,175.39v-35.7h9.59l10.5,16.09,3,5.6-.69-10.5V139.69h9.59v35.7h-9.27l-10.87-16-3.09-5.48.85,11.56v10Z" transform="translate(-4.57 -2.52)"/><path class="cls-4" d="M202.71,175.39V148.22H192.43v-8.53h30.16v8.53H212.3v27.17Z" transform="translate(-4.57 -2.52)"/><line class="cls-3" x1="130.88" y1="130.57" x2="173.8" y2="40.36"/><line class="cls-3" x1="67.41" y1="209.31" x2="110.68" y2="117.92"/></svg>