<?xml version="1.0" encoding="utf-8"?>
<!-- Generator: Adobe Illustrator 25.0.0, SVG Export Plug-In . SVG Version: 6.00 Build 0)  -->
<svg version="1.2" baseProfile="tiny" id="Calque_1"
	 xmlns="http://www.w3.org/2000/svg" xmlns:xlink="http://www.w3.org/1999/xlink" x="0px" y="0px" viewBox="0 0 183.2 71.1"
	 overflow="visible" xml:space="preserve">
<g>
	<path fill="#E63D11" d="M14.6,71.1L0,60l2.4-3.1l11.8,9l5.5-7.3l2.8,2.1L14.6,71.1z"/>
	<path fill="#E63D11" d="M22.7,60.4L9.4,47.8l9.3-9.7l2.5,2.4l-6.6,6.9l2.8,2.7l5.5-5.8l2.5,2.4L20,52.4l2.9,2.8l6.6-6.9l2.5,2.4
		L22.7,60.4z"/>
	<path fill="#E63D11" d="M29.8,47.8l0.1-4c2.4,1,5.1,0.1,6.8-1.3c1.2-1,1.8-2.1,1-3.1c-0.9-1.1-2.1-0.7-4.3,0.5l-1.6,0.8
		c-2.6,1.4-5.4,2.1-7.6-0.6c-2.3-2.8-1.1-6.2,1.8-8.5c2.7-2.2,5.6-2.9,8.2-2.2l-0.2,4c-2.1-0.7-4.5-0.2-6.1,1.2
		c-1.1,0.9-1.5,2-0.8,2.8c0.8,1,2.1,0.7,3.8-0.2l1.9-0.9c3.1-1.6,5.8-2,7.9,0.6c2.2,2.7,1.1,6-1.9,8.6C36,47.7,32.8,48.8,29.8,47.8z
		"/>
	<path fill="#E63D11" d="M46.5,34.8l0.8-3.9c2.2,1.4,5,1,6.9-0.1c1.4-0.8,2.1-1.8,1.5-2.9c-0.7-1.2-2-1-4.3-0.3l-1.7,0.5
		c-2.8,0.9-5.7,1.1-7.4-1.9c-1.8-3.1,0-6.3,3.2-8.1c3-1.7,6-1.9,8.5-0.8L53,21.3c-2-1.1-4.4-0.9-6.2,0.1c-1.2,0.7-1.8,1.7-1.3,2.6
		c0.7,1.2,1.9,1,3.8,0.4l2.1-0.6c3.4-1,6.1-0.9,7.7,1.9c1.7,3,0.1,6.1-3.4,8.1C52.6,35.7,49.2,36.3,46.5,34.8z"/>
	<path fill="#E63D11" d="M58.3,21.6c-1.9-4.9,0-10.1,5.1-12.1c5.1-2,10.1,0.5,12,5.4c1.9,4.9,0,10.2-5.1,12.2
		C65.3,29,60.3,26.6,58.3,21.6z M71.6,16.4c-1.2-3-3.6-4.6-6.8-3.4c-3.1,1.2-3.9,4.1-2.7,7.1c1.2,3.1,3.7,4.6,6.8,3.4
		C72.1,22.2,72.8,19.4,71.6,16.4z"/>
	<path fill="#E63D11" d="M80,23.3L75.7,5.5l3.8-0.9L83,19l8.9-2.2l0.8,3.4L80,23.3z"/>
	<path fill="#E63D11" d="M91.8,12.1L90.6,1.9l3.9-0.5l1.2,10.3c0.4,3.2,1.7,4.3,4.3,4c2.7-0.3,3.6-1.8,3.2-4.9l-1.2-10.3l3.9-0.5
		l1.2,10.2c0.7,5.7-1.5,8.6-6.7,9.2C95.4,20.1,92.5,17.8,91.8,12.1z"/>
	<path fill="#E63D11" d="M113.4,18.3l0.1-14.8l-5.5,0l0-3.5l14.8,0.1l0,3.5l-5.5,0l-0.1,14.8L113.4,18.3z"/>
	<path fill="#E63D11" d="M123,18.6l1.6-18.3l3.9,0.3L126.9,19L123,18.6z"/>
	<path fill="#E63D11" d="M130,9.7c1-5.2,5.4-8.5,10.8-7.5s8.3,5.8,7.3,11c-1,5.2-5.5,8.6-10.8,7.5C131.9,19.7,129,15,130,9.7z
		 M144.1,12.4c0.6-3.2-0.6-5.9-3.9-6.5c-3.3-0.6-5.4,1.4-6.1,4.6c-0.6,3.2,0.6,5.9,3.9,6.5C141.3,17.6,143.4,15.6,144.1,12.4z"/>
	<path fill="#E63D11" d="M147.5,22.6l6.1-17.3l3.6,1.3l2.9,11.2l0.6,3.3l1.2-4.2l2.7-7.7l3.7,1.3l-6.1,17.3l-3.5-1.2l-3.1-11.3
		l-0.6-3.1l-1.2,4.4l-2.6,7.4L147.5,22.6z"/>
	<path fill="#E63D11" d="M164.6,25l3.7-1.5c0,2.6,1.9,4.7,3.9,5.7c1.4,0.7,2.7,0.8,3.2-0.3c0.7-1.3-0.2-2.2-2.1-3.8l-1.4-1.2
		c-2.3-1.8-4.1-4.2-2.5-7.2c1.6-3.2,5.2-3.4,8.6-1.7c3.1,1.6,4.9,4,5.3,6.7l-3.7,1.4c-0.2-2.3-1.6-4.2-3.5-5.1
		c-1.2-0.6-2.4-0.6-2.9,0.4c-0.6,1.2,0.2,2.2,1.7,3.4l1.6,1.4c2.7,2.3,4.1,4.6,2.6,7.5c-1.6,3.1-5.1,3.4-8.6,1.6
		C167.2,30.7,164.9,28.2,164.6,25z"/>
</g>
<g>
</g>
<g>
</g>
<g>
</g>
<g>
</g>
<g>
</g>
<g>
</g>
</svg>
