<svg width="198" height="36" viewBox="0 0 198 36" fill="none" xmlns="http://www.w3.org/2000/svg">
<rect width="198" height="36" fill="#46A882"/>
<mask id="mask0_431_9" style="mask-type:alpha" maskUnits="userSpaceOnUse" x="167" y="5" width="25" height="25">
<circle cx="179.132" cy="17.1324" r="11.6324" fill="#A27474" stroke="black"/>
</mask>
<g mask="url(#mask0_431_9)">
<path d="M183.825 14.6279H183.9C186.208 14.7016 187.853 14.9814 188.084 16.2161C189.016 21.1598 189.383 27.937 189.383 27.937L179.427 30.9391H179.007L169.511 27.937C169.511 27.937 169.809 17.2912 170.43 16.2161C170.849 15.5092 172.318 14.6991 174.609 14.623H183.841L183.825 14.6279Z" fill="#5154A1"/>
<path d="M175.384 17.7568C175.384 17.7568 179.401 20.8088 182.982 17.7568C182.982 17.7568 181.308 28.6195 181.54 29.9269H177.102L175.384 17.7568Z" fill="#373684"/>
<g clip-path="url(#clip0_431_9)">
<path d="M191.056 26.5455C191.056 26.5455 190.987 28.9333 190.123 28.1757C190.123 28.1757 189.686 29.3685 189.159 28.4463C189.159 28.4463 188.654 29.7992 188.207 28.3922C188.207 28.3922 187.621 30.1532 187.026 28.2298C187.026 28.2298 185.139 31.443 184.99 26.5455L191.056 26.5455Z" fill="#EFB19E"/>
<path d="M190.354 26.5455C190.354 27.1492 190.271 27.731 190.122 28.1758C190.122 28.1758 190.423 27.7023 190.354 26.5455Z" fill="#BC6A4F"/>
<path d="M189.311 26.5455C189.359 27.8736 189.159 28.4463 189.159 28.4463C189.159 28.4463 189.461 27.9615 189.311 26.5455Z" fill="#BC6A4F"/>
<path d="M188.44 26.5449C188.426 27.2072 188.345 27.8462 188.206 28.3916C188.296 28.1559 188.364 27.8657 188.404 27.5447C188.445 27.2237 188.457 26.8811 188.44 26.5449Z" fill="#BC6A4F"/>
<path d="M186.8 27.1652C186.844 27.5619 186.921 27.9259 187.025 28.2295C186.955 28.1248 186.898 27.9703 186.858 27.7827C186.819 27.5952 186.798 27.3816 186.8 27.1652Z" fill="#BC6A4F"/>
</g>
<g clip-path="url(#clip1_431_9)">
<path d="M173.694 26.3375C173.694 26.3375 173.625 28.7253 172.761 27.9677C172.761 27.9677 172.324 29.1605 171.798 28.2383C171.798 28.2383 171.292 29.5912 170.845 28.1842C170.845 28.1842 170.259 29.9452 169.664 28.0218C169.664 28.0218 167.777 31.235 167.628 26.3375L173.694 26.3375Z" fill="#EFB19E"/>
<path d="M172.992 26.3375C172.992 26.9411 172.909 27.523 172.76 27.9678C172.76 27.9678 173.061 27.4943 172.992 26.3375Z" fill="#BC6A4F"/>
<path d="M171.95 26.3375C171.997 27.6656 171.798 28.2383 171.798 28.2383C171.798 28.2383 172.099 27.7535 171.95 26.3375Z" fill="#BC6A4F"/>
<path d="M171.078 26.3369C171.064 26.9992 170.983 27.6382 170.845 28.1836C170.934 27.9479 171.002 27.6576 171.043 27.3367C171.083 27.0157 171.095 26.673 171.078 26.3369Z" fill="#BC6A4F"/>
<path d="M169.438 26.9572C169.483 27.3539 169.559 27.7179 169.663 28.0215C169.594 27.9168 169.536 27.7623 169.496 27.5747C169.457 27.3872 169.437 27.1736 169.438 26.9572Z" fill="#BC6A4F"/>
</g>
<path d="M179.223 26.05L179.225 19.1094L178.995 26.0583L179.223 26.05Z" fill="#2C2C6B"/>
<path d="M182.982 18.5652C183.221 18.5652 183.415 18.3714 183.415 18.1322C183.415 17.8931 183.221 17.6992 182.982 17.6992C182.743 17.6992 182.549 17.8931 182.549 18.1322C182.549 18.3714 182.743 18.5652 182.982 18.5652Z" fill="#C9C5BD"/>
<path d="M183.013 18.4555C183.222 18.4555 183.392 18.286 183.392 18.0769C183.392 17.8678 183.222 17.6982 183.013 17.6982C182.804 17.6982 182.635 17.8678 182.635 18.0769C182.635 18.286 182.804 18.4555 183.013 18.4555Z" fill="white"/>
<path d="M182.465 19.1912C182.704 19.1912 182.898 18.9973 182.898 18.7582C182.898 18.5191 182.704 18.3252 182.465 18.3252C182.226 18.3252 182.032 18.5191 182.032 18.7582C182.032 18.9973 182.226 19.1912 182.465 19.1912Z" fill="#C9C5BD"/>
<path d="M182.497 19.0824C182.706 19.0824 182.875 18.9129 182.875 18.7038C182.875 18.4947 182.706 18.3252 182.497 18.3252C182.288 18.3252 182.118 18.4947 182.118 18.7038C182.118 18.9129 182.288 19.0824 182.497 19.0824Z" fill="white"/>
<path d="M182.032 19.8846C182.271 19.8846 182.465 19.6907 182.465 19.4516C182.465 19.2124 182.271 19.0186 182.032 19.0186C181.793 19.0186 181.599 19.2124 181.599 19.4516C181.599 19.6907 181.793 19.8846 182.032 19.8846Z" fill="#C9C5BD"/>
<path d="M182.063 19.7729C182.272 19.7729 182.442 19.6033 182.442 19.3942C182.442 19.1851 182.272 19.0156 182.063 19.0156C181.854 19.0156 181.685 19.1851 181.685 19.3942C181.685 19.6033 181.854 19.7729 182.063 19.7729Z" fill="white"/>
<path d="M181.729 20.6258C181.968 20.6258 182.162 20.4319 182.162 20.1928C182.162 19.9536 181.968 19.7598 181.729 19.7598C181.49 19.7598 181.296 19.9536 181.296 20.1928C181.296 20.4319 181.49 20.6258 181.729 20.6258Z" fill="#DDD5C5"/>
<path d="M181.76 20.517C181.969 20.517 182.139 20.3475 182.139 20.1384C182.139 19.9293 181.969 19.7598 181.76 19.7598C181.551 19.7598 181.381 19.9293 181.381 20.1384C181.381 20.3475 181.551 20.517 181.76 20.517Z" fill="white"/>
<path d="M181.296 21.2859C181.535 21.2859 181.729 21.0921 181.729 20.8529C181.729 20.6138 181.535 20.4199 181.296 20.4199C181.057 20.4199 180.863 20.6138 180.863 20.8529C180.863 21.0921 181.057 21.2859 181.296 21.2859Z" fill="#C9C5BD"/>
<path d="M181.327 21.1762C181.536 21.1762 181.706 21.0067 181.706 20.7976C181.706 20.5885 181.536 20.4189 181.327 20.4189C181.118 20.4189 180.949 20.5885 180.949 20.7976C180.949 21.0067 181.118 21.1762 181.327 21.1762Z" fill="white"/>
<path d="M180.838 21.8865C181.077 21.8865 181.271 21.6927 181.271 21.4535C181.271 21.2144 181.077 21.0205 180.838 21.0205C180.599 21.0205 180.405 21.2144 180.405 21.4535C180.405 21.6927 180.599 21.8865 180.838 21.8865Z" fill="#C9C5BD"/>
<path d="M180.869 21.7777C181.078 21.7777 181.248 21.6082 181.248 21.3991C181.248 21.19 181.078 21.0205 180.869 21.0205C180.66 21.0205 180.491 21.19 180.491 21.3991C180.491 21.6082 180.66 21.7777 180.869 21.7777Z" fill="white"/>
<path d="M180.273 22.4266C180.512 22.4266 180.706 22.2327 180.706 21.9935C180.706 21.7544 180.512 21.5605 180.273 21.5605C180.034 21.5605 179.84 21.7544 179.84 21.9935C179.84 22.2327 180.034 22.4266 180.273 22.4266Z" fill="#C9C5BD"/>
<path d="M180.304 22.3178C180.513 22.3178 180.683 22.1483 180.683 21.9392C180.683 21.7301 180.513 21.5605 180.304 21.5605C180.095 21.5605 179.925 21.7301 179.925 21.9392C179.925 22.1483 180.095 22.3178 180.304 22.3178Z" fill="white"/>
<path d="M179.616 22.7215C179.855 22.7215 180.049 22.5276 180.049 22.2885C180.049 22.0493 179.855 21.8555 179.616 21.8555C179.377 21.8555 179.183 22.0493 179.183 22.2885C179.183 22.5276 179.377 22.7215 179.616 22.7215Z" fill="#C9C5BD"/>
<path d="M179.648 22.6107C179.857 22.6107 180.026 22.4412 180.026 22.2321C180.026 22.023 179.857 21.8535 179.648 21.8535C179.439 21.8535 179.269 22.023 179.269 22.2321C179.269 22.4412 179.439 22.6107 179.648 22.6107Z" fill="white"/>
<path d="M178.815 22.6648C179.054 22.6648 179.248 22.471 179.248 22.2318C179.248 21.9927 179.054 21.7988 178.815 21.7988C178.576 21.7988 178.382 21.9927 178.382 22.2318C178.382 22.471 178.576 22.6648 178.815 22.6648Z" fill="#C9C5BD"/>
<path d="M178.846 22.5561C179.055 22.5561 179.225 22.3865 179.225 22.1774C179.225 21.9683 179.055 21.7988 178.846 21.7988C178.637 21.7988 178.468 21.9683 178.468 22.1774C178.468 22.3865 178.637 22.5561 178.846 22.5561Z" fill="white"/>
<path d="M178.125 22.2332C178.364 22.2332 178.558 22.0393 178.558 21.8002C178.558 21.561 178.364 21.3672 178.125 21.3672C177.886 21.3672 177.692 21.561 177.692 21.8002C177.692 22.0393 177.886 22.2332 178.125 22.2332Z" fill="#C9C5BD"/>
<path d="M178.158 22.1244C178.368 22.1244 178.537 21.9549 178.537 21.7458C178.537 21.5367 178.368 21.3672 178.158 21.3672C177.949 21.3672 177.78 21.5367 177.78 21.7458C177.78 21.9549 177.949 22.1244 178.158 22.1244Z" fill="white"/>
<path d="M177.543 21.7195C177.782 21.7195 177.976 21.5257 177.976 21.2865C177.976 21.0474 177.782 20.8535 177.543 20.8535C177.304 20.8535 177.11 21.0474 177.11 21.2865C177.11 21.5257 177.304 21.7195 177.543 21.7195Z" fill="#C9C5BD"/>
<path d="M177.575 21.6088C177.784 21.6088 177.954 21.4393 177.954 21.2302C177.954 21.0211 177.784 20.8516 177.575 20.8516C177.366 20.8516 177.196 21.0211 177.196 21.2302C177.196 21.4393 177.366 21.6088 177.575 21.6088Z" fill="white"/>
<path d="M177.11 21.0955C177.349 21.0955 177.543 20.9016 177.543 20.6625C177.543 20.4234 177.349 20.2295 177.11 20.2295C176.871 20.2295 176.677 20.4234 176.677 20.6625C176.677 20.9016 176.871 21.0955 177.11 21.0955Z" fill="#C9C5BD"/>
<path d="M177.142 20.9867C177.351 20.9867 177.52 20.8172 177.52 20.6081C177.52 20.399 177.351 20.2295 177.142 20.2295C176.933 20.2295 176.763 20.399 176.763 20.6081C176.763 20.8172 176.933 20.9867 177.142 20.9867Z" fill="white"/>
<path d="M176.763 20.4588C177.002 20.4588 177.196 20.2649 177.196 20.0258C177.196 19.7866 177.002 19.5928 176.763 19.5928C176.524 19.5928 176.33 19.7866 176.33 20.0258C176.33 20.2649 176.524 20.4588 176.763 20.4588Z" fill="#C9C5BD"/>
<path d="M176.795 20.35C177.004 20.35 177.173 20.1805 177.173 19.9714C177.173 19.7623 177.004 19.5928 176.795 19.5928C176.586 19.5928 176.416 19.7623 176.416 19.9714C176.416 20.1805 176.586 20.35 176.795 20.35Z" fill="white"/>
<path d="M176.391 19.8992C176.63 19.8992 176.824 19.7053 176.824 19.4662C176.824 19.2271 176.63 19.0332 176.391 19.0332C176.152 19.0332 175.958 19.2271 175.958 19.4662C175.958 19.7053 176.152 19.8992 176.391 19.8992Z" fill="#C9C5BD"/>
<path d="M176.422 19.7904C176.631 19.7904 176.801 19.6209 176.801 19.4118C176.801 19.2027 176.631 19.0332 176.422 19.0332C176.213 19.0332 176.043 19.2027 176.043 19.4118C176.043 19.6209 176.213 19.7904 176.422 19.7904Z" fill="white"/>
<path d="M176.012 19.2723C176.251 19.2723 176.445 19.0784 176.445 18.8393C176.445 18.6001 176.251 18.4062 176.012 18.4062C175.772 18.4062 175.579 18.6001 175.579 18.8393C175.579 19.0784 175.772 19.2723 176.012 19.2723Z" fill="#C9C5BD"/>
<path d="M176.044 19.1625C176.253 19.1625 176.422 18.993 176.422 18.7839C176.422 18.5748 176.253 18.4053 176.044 18.4053C175.835 18.4053 175.665 18.5748 175.665 18.7839C175.665 18.993 175.835 19.1625 176.044 19.1625Z" fill="white"/>
<path d="M175.546 18.7039C175.785 18.7039 175.979 18.51 175.979 18.2709C175.979 18.0318 175.785 17.8379 175.546 17.8379C175.307 17.8379 175.113 18.0318 175.113 18.2709C175.113 18.51 175.307 18.7039 175.546 18.7039Z" fill="#C9C5BD"/>
<path d="M175.579 18.5922C175.788 18.5922 175.957 18.4227 175.957 18.2136C175.957 18.0045 175.788 17.835 175.579 17.835C175.37 17.835 175.2 18.0045 175.2 18.2136C175.2 18.4227 175.37 18.5922 175.579 18.5922Z" fill="white"/>
<path d="M187.09 14.6892V14.7038H171.761C171.761 12.6267 172.998 9.61242 175.075 9.60824L183.063 7.72562C185.145 7.71098 187.09 12.6058 187.09 14.6892Z" fill="#ED8A29"/>
<path d="M174.411 14.4223C173.936 14.4223 173.48 14.2335 173.143 13.8973C172.807 13.5612 172.617 13.1052 172.617 12.6296C172.617 12.1539 172.807 11.698 173.143 11.3619C173.48 11.0257 173.936 10.8369 174.411 10.8369C174.887 10.8369 175.343 11.0258 175.679 11.362C176.015 11.6982 176.204 12.1541 176.204 12.6296C176.204 13.105 176.015 13.561 175.679 13.8972C175.343 14.2334 174.887 14.4223 174.411 14.4223Z" fill="#EFB19E"/>
<path d="M173.391 14.5906C173.63 14.5906 173.824 14.3968 173.824 14.1576C173.824 13.9185 173.63 13.7246 173.391 13.7246C173.152 13.7246 172.958 13.9185 172.958 14.1576C172.958 14.3968 173.152 14.5906 173.391 14.5906Z" fill="#C49318"/>
<path d="M173.425 14.4818C173.634 14.4818 173.803 14.3123 173.803 14.1032C173.803 13.8941 173.634 13.7246 173.425 13.7246C173.215 13.7246 173.046 13.8941 173.046 14.1032C173.046 14.3123 173.215 14.4818 173.425 14.4818Z" fill="#EDB61B"/>
<path d="M179.265 17.7566C176.02 17.7566 173.391 15.4557 173.391 12.6317C173.391 9.80781 176.02 7.50684 179.265 7.50684C182.509 7.50684 185.137 9.80781 185.137 12.6317C185.137 15.4557 182.507 17.7566 179.265 17.7566Z" fill="#EFB19E"/>
<path d="M179.509 15.0492C179.428 15.0617 179.347 15.0722 179.264 15.0805C178.942 15.1119 178.618 15.1119 178.296 15.0805C178.189 15.0805 178.087 15.0575 177.98 15.0429C176.83 14.8609 176.233 15.2981 176.897 15.6077C177.484 15.8441 178.11 15.9697 178.744 15.9779C179.378 15.9698 180.005 15.8443 180.593 15.6077C181.256 15.3085 180.66 14.8714 179.509 15.0492Z" fill="#E28E74"/>
<path d="M183.279 12.632C183.277 12.2942 183.354 11.9605 183.503 11.6573C183.634 11.3841 183.841 11.1546 184.099 10.9963C184.332 10.8606 184.607 10.8145 184.871 10.8666C185.151 10.9275 185.402 11.0799 185.585 11.2996C185.794 11.5471 185.938 11.8435 186.003 12.1614C186.074 12.4963 186.07 12.8429 185.99 13.1759C185.917 13.4873 185.765 13.7751 185.551 14.0126C185.362 14.2237 185.107 14.3645 184.827 14.4122C184.773 14.4205 184.719 14.4247 184.664 14.4247C184.573 14.4239 184.483 14.4127 184.394 14.3912C184.057 14.2916 183.769 14.0673 183.591 13.7637C183.384 13.4226 183.276 13.0309 183.279 12.632Z" fill="#EFB19E"/>
<path d="M185.59 13.299C185.683 13.0846 185.73 12.8529 185.726 12.6192C185.727 12.3849 185.678 12.1531 185.582 11.9393C185.497 11.7447 185.364 11.5748 185.195 11.4457C185.044 11.3298 184.859 11.2659 184.668 11.2637C184.668 11.2637 185.902 11.6695 185.59 13.299Z" fill="#BC6A4F"/>
<path d="M182.465 15.8009C182.665 15.6806 182.839 15.5195 182.973 15.3281C183.108 15.1404 183.203 14.9268 183.251 14.7006C183.296 14.4926 183.287 14.2768 183.226 14.0731C183.17 13.8915 183.057 13.7326 182.904 13.6191C182.904 13.6191 183.668 14.6588 182.465 15.8009Z" fill="#BC6A4F"/>
<path d="M175.546 15.7211C175.323 15.6495 175.118 15.5319 174.943 15.376C174.767 15.2222 174.625 15.0334 174.525 14.8217C174.437 14.6315 174.398 14.4221 174.412 14.213C174.424 14.0226 174.497 13.8413 174.621 13.6963C174.621 13.6963 174.113 14.8865 175.546 15.7211Z" fill="#BC6A4F"/>
<path d="M177.173 15.2334C177.47 15.4635 178.062 15.6204 178.744 15.6204C179.426 15.6204 180.018 15.4635 180.317 15.2334C180.317 15.2334 178.738 15.8233 177.173 15.2334Z" fill="#BC6A4F"/>
<path d="M173.408 24.6718C173.408 24.6718 173.761 26.2406 173.753 26.2072C173.874 26.1294 174.003 26.0649 174.138 26.0147C174.098 25.5733 174.028 25.1351 173.929 24.7032C173.807 24.6468 173.678 24.6061 173.546 24.5818C173.546 24.5818 174.025 23.5359 173.92 21.6533C173.886 22.6779 173.714 23.6933 173.408 24.6718Z" fill="#373684"/>
<path d="M169.094 26.3214C169.094 26.3214 168.847 25.3361 168.933 24.6667C168.933 24.6667 172.217 24.3634 173.847 24.7421C173.847 24.7421 174.083 25.8633 173.997 26.3214H169.094Z" fill="#FAF3ED"/>
<path d="M173.408 24.6711C172.215 24.4975 170.519 24.5686 169.594 24.6272V24.4536C169.594 24.4536 172.579 24.3678 173.408 24.6711Z" fill="#373684"/>
<path d="M185.444 24.9288C185.444 24.9288 185.09 26.4955 185.099 26.4641C185.107 26.4328 184.714 26.2696 184.714 26.2696C184.755 25.8283 184.825 25.3902 184.923 24.958C185.046 24.9018 185.175 24.8611 185.308 24.8367C185.308 24.8367 184.827 23.7908 184.934 21.9082C184.966 22.9335 185.138 23.9496 185.444 24.9288Z" fill="#373684"/>
<path d="M189.758 26.5875C189.758 26.5875 190.006 25.6044 189.921 24.9329C189.921 24.9329 186.635 24.6317 185.005 25.0103C185.005 25.0103 184.769 26.1294 184.856 26.5875H189.758Z" fill="#FAF3ED"/>
<path d="M185.444 24.9283C186.636 24.7546 188.372 24.8258 189.286 24.8864L189.274 24.7191C189.274 24.7191 186.274 24.6354 185.444 24.9283Z" fill="#373684"/>
<path d="M180.21 12.7005C180.21 13.0644 180.505 13.3594 180.869 13.3594C181.233 13.3594 181.528 13.0644 181.528 12.7005C181.528 12.3365 181.233 12.0415 180.869 12.0415C180.505 12.0415 180.21 12.3365 180.21 12.7005Z" fill="#1D1D1B"/>
<path d="M175.539 12.7005C175.539 13.0644 175.834 13.3594 176.198 13.3594C176.562 13.3594 176.857 13.0644 176.857 12.7005C176.857 12.3365 176.562 12.0415 176.198 12.0415C175.834 12.0415 175.539 12.3365 175.539 12.7005Z" fill="#1D1D1B"/>
<path d="M184.766 10.8384C184.867 10.6125 184.917 10.3669 184.911 10.1195C184.906 9.8721 184.846 9.62898 184.735 9.40765C184.627 9.14087 184.539 8.86686 184.469 8.58766C184.334 8.18916 184.121 7.82157 183.842 7.5062C183.191 6.63601 181.712 6.64856 181.348 6.80753L181.074 6.93305C180.968 6.98325 180.865 6.91841 180.784 6.84101C180.551 6.64438 180.503 6.56489 179.913 6.46866C179.388 6.3829 179.098 6.46867 178.939 6.61928C178.864 6.68905 178.769 6.73269 178.667 6.74363C178.566 6.75458 178.464 6.73222 178.376 6.67994L178.319 6.64647C177.751 6.31571 177.075 6.21966 176.437 6.37872C174.19 6.92677 172.927 9.86993 173.23 10.5247C173.297 10.6733 173.395 10.806 173.518 10.9142C173.64 11.0223 173.784 11.1034 173.939 11.1522C174.358 11.2798 174.594 8.89516 177.186 9.32607C177.186 9.32607 177.353 10.0498 178.363 10.4013C179.374 10.7527 180.474 9.36998 180.474 9.36998C180.474 9.36998 180.386 10.259 181.763 10.8342C182.728 11.2103 183.8 11.2117 184.766 10.8384Z" fill="#ED8A29"/>
<path d="M178.332 10.4788C177.841 10.3323 177.424 10.0039 177.167 9.56054C176.909 9.08152 176.893 8.49163 177.121 7.80762L177.269 7.85782C177.06 8.49791 177.06 9.04595 177.305 9.48732C177.544 9.88904 177.924 10.1873 178.372 10.324L178.332 10.4788Z" fill="#1D1D1B"/>
<path d="M181.733 10.9143C181.243 10.7672 180.827 10.4397 180.57 9.99804C180.31 9.51693 180.296 8.92704 180.524 8.24512L180.672 8.29324C180.463 8.93333 180.463 9.48137 180.708 9.92065C180.947 10.322 181.326 10.6202 181.773 10.7574L181.733 10.9143Z" fill="#1D1D1B"/>
<path d="M185.013 14.5906C185.252 14.5906 185.446 14.3968 185.446 14.1576C185.446 13.9185 185.252 13.7246 185.013 13.7246C184.773 13.7246 184.58 13.9185 184.58 14.1576C184.58 14.3968 184.773 14.5906 185.013 14.5906Z" fill="#C49318"/>
<path d="M185.047 14.4818C185.256 14.4818 185.425 14.3123 185.425 14.1032C185.425 13.8941 185.256 13.7246 185.047 13.7246C184.837 13.7246 184.668 13.8941 184.668 14.1032C184.668 14.3123 184.837 14.4818 185.047 14.4818Z" fill="#EDB61B"/>
<path opacity="0.6" d="M173.75 14.4003C173.75 14.4003 173.583 13.9694 173.541 13.7476C173.541 13.7476 173.541 13.7246 173.401 13.7246C173.425 14.0022 173.51 14.271 173.652 14.5111C173.691 14.4806 173.725 14.443 173.75 14.4003Z" fill="#C49318"/>
<path opacity="0.6" d="M183.486 16.6299C183.486 16.6299 180.925 20.4202 180.948 26.1727H181.478V25.5451L183.486 16.6299Z" fill="#373684"/>
<path opacity="0.6" d="M174.983 16.5137C174.983 16.5137 177.543 20.304 177.52 26.0564H176.991V25.4289L174.983 16.5137Z" fill="#373684"/>
<path d="M184.662 14.8867L185.475 17.4952L183.729 19.815L183.593 22.777L181.641 25.718L181.66 24.965C181.754 21.3148 182.666 17.9491 184.653 14.8867H184.662Z" fill="#373684"/>
<path d="M184.68 14.5156L185.494 17.1262L183.745 19.6363L183.611 22.6004L181.478 25.5415L181.496 24.7863C181.591 21.1361 182.693 17.5831 184.68 14.5198V14.5156Z" fill="#FAF3ED"/>
<path d="M173.864 14.8828L173.05 17.4934L174.799 19.8111L174.932 22.7731L176.878 25.7141L176.857 24.9611C176.765 21.3109 175.851 17.9473 173.864 14.8828Z" fill="#373684"/>
<path d="M173.839 14.5117L173.025 17.1223L174.772 19.6324L174.908 22.5944L177.04 25.5355L177.021 24.7824C176.927 21.1317 175.826 17.5779 173.839 14.5138V14.5117Z" fill="#FAF3ED"/>
<path d="M174.711 12.5396C174.822 12.3254 174.97 12.1327 175.148 11.9707C175.326 11.7988 175.541 11.6694 175.776 11.592C176.025 11.5185 176.293 11.544 176.525 11.6632C176.741 11.7825 176.917 11.963 177.031 12.1819C176.864 12.0259 176.67 11.9006 176.46 11.8117C176.258 11.7386 176.038 11.732 175.832 11.7929C175.62 11.8613 175.421 11.9638 175.242 12.0962C175.057 12.2334 174.879 12.3815 174.711 12.5396Z" fill="#1D1D1B"/>
<path d="M182.547 12.5396C182.376 12.3813 182.196 12.2332 182.007 12.0962C181.828 11.9638 181.629 11.8613 181.417 11.7929C181.212 11.732 180.992 11.7386 180.79 11.8117C180.579 11.9006 180.386 12.0259 180.219 12.1819C180.333 11.963 180.509 11.7825 180.725 11.6632C180.956 11.544 181.224 11.5185 181.474 11.592C181.709 11.6694 181.923 11.7988 182.101 11.9707C182.283 12.132 182.434 12.3247 182.547 12.5396Z" fill="#1D1D1B"/>
</g>
<defs>
<clipPath id="clip0_431_9">
<rect width="6.06621" height="2.71934" fill="white" transform="translate(191.056 29.2646) rotate(-180)"/>
</clipPath>
<clipPath id="clip1_431_9">
<rect width="6.06621" height="2.71934" fill="white" transform="translate(173.694 29.0566) rotate(-180)"/>
</clipPath>
</defs>
</svg>
