<svg width="69" height="36" viewBox="0 0 69 36" fill="none" xmlns="http://www.w3.org/2000/svg">
<rect width="68.4" height="36" fill="#EC8989"/>
<mask id="mask0_431_11" style="mask-type:alpha" maskUnits="userSpaceOnUse" x="35" y="3" width="28" height="28">
<path d="M63 17C63 24.732 56.732 31 49 31C41.268 31 35 24.732 35 17C35 9.26801 41.268 3 49 3C56.732 3 63 9.26801 63 17Z" fill="#EC8989"/>
</mask>
<g mask="url(#mask0_431_11)">
<path d="M37.0746 28.9366C37.0746 28.9366 35.8721 18.3297 43.123 14.333L53.3668 14.5502C53.3668 14.5502 57.7455 16.0479 58.3333 28.6737L48.1722 32.9997L37.0746 28.9366Z" fill="#5154A1"/>
<path d="M53.1901 14.2109C53.1901 14.2109 50.8422 17.1795 47.75 17.0381L48.3552 19.3264C48.3552 19.3264 53.2608 16.3358 53.1901 14.2109Z" fill="#373684"/>
<path d="M53.1903 14.2109C53.1903 14.2109 50.6635 17.0028 47.5713 16.8614L48.1676 19.1475C48.1676 19.1475 52.6293 16.7687 53.1903 14.2109Z" fill="#FAF3ED"/>
<path d="M46.7935 16.6957L46.3186 19.0303C46.3186 19.0303 43.6129 15.9646 43.4473 14.001C43.4451 14.001 45.7709 16.5388 46.7935 16.6957Z" fill="#373684"/>
<path d="M46.6656 16.6647L46.1046 18.9243C46.1046 18.9243 43.6131 15.9623 43.4541 14.001C44.2214 15.2014 45.344 16.1325 46.6656 16.6647Z" fill="#FAF3ED"/>
<path d="M47.5048 17.9176C47.5048 17.9176 48.004 23.6891 48.3221 25.0077C48.6401 26.3263 47.1625 27.6891 47.0741 28.1441H45.1702C45.1702 28.1441 44.258 26.5074 44.4612 25.2727C44.6644 24.0381 46.9217 17.8447 46.9217 17.8447L47.5048 17.9176Z" fill="#C7361A"/>
<path d="M47.4052 17.8817C47.4052 17.8817 47.9044 23.6532 48.2225 24.9718C48.5405 26.2904 47.0607 27.6532 46.9723 28.1082H45.075C45.075 28.1082 44.1606 26.4715 44.366 25.2369C44.5714 24.0022 46.8199 17.8066 46.8199 17.8066L47.4052 17.8817Z" fill="#E8461C"/>
<path d="M46.8158 17.6677L47.0875 17.3784C47.1033 17.3608 47.1229 17.3472 47.1449 17.3386C47.1666 17.3296 47.19 17.3258 47.2134 17.3276C47.2374 17.3295 47.2606 17.3363 47.2819 17.3475C47.3023 17.3587 47.3197 17.3746 47.3327 17.3939L47.6132 17.787C47.626 17.8038 47.6351 17.8231 47.6401 17.8436C47.645 17.8642 47.6456 17.8855 47.6419 17.9063C47.6389 17.9271 47.6317 17.947 47.6207 17.9649C47.6097 17.9827 47.5951 17.9981 47.5778 18.0101L47.1847 18.2884C47.1657 18.302 47.1437 18.3111 47.1206 18.3149C47.0974 18.3204 47.0732 18.3204 47.0499 18.3149C47.0272 18.3083 47.0062 18.297 46.9881 18.2818C46.9699 18.2661 46.9555 18.2465 46.9461 18.2243L46.7849 17.8422C46.7761 17.8127 46.7761 17.7812 46.7849 17.7517C46.7867 17.7213 46.7975 17.6921 46.8158 17.6677Z" fill="#C7361A"/>
<path d="M46.7651 17.6493L47.0279 17.3688C47.0435 17.3526 47.0623 17.3399 47.0831 17.3313C47.1049 17.3258 47.1277 17.3258 47.1494 17.3313C47.1719 17.3316 47.194 17.3377 47.2135 17.349C47.2339 17.3601 47.2513 17.376 47.2643 17.3953L47.5337 17.7752C47.5453 17.7911 47.5536 17.8091 47.558 17.8283C47.5624 17.8479 47.5624 17.8683 47.558 17.8879C47.555 17.9084 47.5474 17.928 47.5359 17.9453C47.5258 17.9625 47.5122 17.9776 47.4962 17.9895L47.1207 18.2568C47.1013 18.2697 47.0795 18.2787 47.0566 18.2833C47.034 18.2877 47.0108 18.2877 46.9882 18.2833C46.9661 18.2767 46.9458 18.2654 46.9285 18.2501C46.911 18.2352 46.8973 18.2163 46.8888 18.1949L46.7342 17.826C46.7253 17.798 46.7253 17.7679 46.7342 17.7399C46.7351 17.7073 46.7458 17.6757 46.7651 17.6493Z" fill="#E8461C"/>
<path d="M44.2644 14.1883C44.0174 14.1883 43.7728 14.1396 43.5446 14.045C43.3164 13.9504 43.1091 13.8117 42.9345 13.6369C42.76 13.4622 42.6216 13.2547 42.5272 13.0264C42.4329 12.7981 42.3845 12.5534 42.3848 12.3064C42.3848 11.8079 42.5828 11.3298 42.9353 10.9773C43.2878 10.6248 43.7659 10.4268 44.2644 10.4268C44.7631 10.4268 45.2415 10.6247 45.5943 10.9772C45.9472 11.3296 46.1457 11.8077 46.1463 12.3064C46.1463 12.8055 45.948 13.2842 45.5951 13.6371C45.2422 13.99 44.7635 14.1883 44.2644 14.1883Z" fill="#F39672"/>
<path d="M51.8028 12.3222C51.8011 11.9679 51.8813 11.6179 52.0369 11.2996C52.1739 11.0122 52.3919 10.7711 52.6642 10.606C52.9097 10.4594 53.2006 10.4083 53.4814 10.4625C53.7746 10.5253 54.0377 10.6857 54.228 10.9175C54.4489 11.1766 54.6008 11.4873 54.6697 11.8208C54.7442 12.1724 54.7389 12.5362 54.6543 12.8855C54.5786 13.2142 54.4205 13.5182 54.1949 13.769C53.9956 13.9894 53.7279 14.1364 53.435 14.1864C53.3788 14.1952 53.3219 14.1996 53.265 14.1997C53.1696 14.2001 53.0746 14.1883 52.9823 14.1643C52.6287 14.0617 52.3272 13.8288 52.1385 13.5128C51.9168 13.1554 51.8005 12.7428 51.8028 12.3222Z" fill="#F39672"/>
<path d="M48.3645 16.89C45.4335 16.89 43.0635 14.816 43.0635 12.2516C43.0635 9.68729 45.4401 7.61328 48.3645 7.61328C51.2888 7.61328 53.6655 9.68729 53.6655 12.2516C53.6655 14.816 51.2955 16.89 48.3645 16.89Z" fill="#F39672"/>
<path d="M49.7133 11.1982C49.7257 11.2003 49.7384 11.2003 49.7509 11.1982L50.7205 10.8073C50.7447 10.7974 50.764 10.7785 50.7743 10.7545C50.7847 10.7306 50.7852 10.7035 50.7757 10.6792C50.7659 10.655 50.7469 10.6356 50.723 10.6253C50.699 10.615 50.6719 10.6145 50.6476 10.6239L49.6757 11.0149C49.6636 11.0195 49.6525 11.0265 49.6432 11.0356C49.6338 11.0446 49.6264 11.0555 49.6215 11.0675C49.6165 11.0795 49.6141 11.0924 49.6143 11.1054C49.6145 11.1184 49.6174 11.1312 49.6227 11.143C49.6309 11.16 49.6438 11.1743 49.6598 11.1841C49.6759 11.1939 49.6945 11.1988 49.7133 11.1982Z" fill="black"/>
<path d="M45.9234 11.1251C45.9435 11.1251 45.9632 11.1189 45.9798 11.1075C45.9963 11.0961 46.009 11.0799 46.0162 11.061C46.0208 11.049 46.0229 11.0362 46.0225 11.0233C46.0221 11.0105 46.0191 10.9978 46.0138 10.9861C46.0084 10.9744 46.0008 10.9638 45.9914 10.9551C45.9819 10.9464 45.9708 10.9396 45.9588 10.9351L44.9803 10.5641C44.9557 10.5547 44.9284 10.5556 44.9043 10.5663C44.8803 10.5771 44.8616 10.5969 44.8522 10.6215C44.8428 10.6461 44.8436 10.6734 44.8544 10.6974C44.8652 10.7215 44.885 10.7402 44.9096 10.7496L45.8881 11.1207C45.8995 11.1243 45.9115 11.1258 45.9234 11.1251Z" fill="black"/>
<path d="M45.1282 12.2005C45.0592 12.2005 44.9908 12.1869 44.9271 12.1605C44.8633 12.1341 44.8053 12.0954 44.7565 12.0466C44.7077 11.9977 44.669 11.9398 44.6426 11.876C44.6161 11.8122 44.6025 11.7439 44.6025 11.6748C44.6031 11.5358 44.6588 11.4027 44.7573 11.3046C44.8558 11.2064 44.9892 11.1514 45.1282 11.1514C45.2673 11.1514 45.4006 11.2064 45.4992 11.3046C45.5977 11.4027 45.6533 11.5358 45.6539 11.6748C45.6539 11.7439 45.6403 11.8122 45.6139 11.876C45.5875 11.9398 45.5488 11.9977 45.5 12.0466C45.4511 12.0954 45.3932 12.1341 45.3294 12.1605C45.2656 12.1869 45.1973 12.2005 45.1282 12.2005Z" fill="#1B1935"/>
<path d="M50.4622 12.2005C50.3228 12.2005 50.1891 12.1451 50.0905 12.0466C49.9919 11.948 49.9365 11.8143 49.9365 11.6748C49.9371 11.5358 49.9927 11.4027 50.0913 11.3046C50.1898 11.2064 50.3232 11.1514 50.4622 11.1514C50.601 11.1514 50.7342 11.2065 50.8323 11.3047C50.9305 11.4029 50.9857 11.536 50.9857 11.6748C50.986 11.7438 50.9727 11.8121 50.9465 11.8758C50.9203 11.9396 50.8818 11.9976 50.8331 12.0464C50.7845 12.0953 50.7267 12.134 50.663 12.1605C50.5994 12.1869 50.5311 12.2005 50.4622 12.2005Z" fill="#1B1935"/>
<path d="M54.2281 13.0333C54.3244 12.8071 54.3732 12.5635 54.3717 12.3177C54.3703 12.0727 54.3184 11.8306 54.2193 11.6065C54.1306 11.4015 53.9906 11.2227 53.8129 11.0874C53.6541 10.9663 53.4605 10.8997 53.2607 10.8975C53.2607 10.8975 54.555 11.3237 54.2281 13.0333Z" fill="#BC6A4F"/>
<path d="M53.2606 10.4494C53.0369 10.4515 52.8182 10.5157 52.6289 10.635C52.7107 10.5543 52.8112 10.4951 52.9214 10.4628C53.0317 10.4304 53.1482 10.4258 53.2606 10.4494Z" fill="#BC6A4F"/>
<path d="M46.1089 15.8564C46.4203 16.0972 47.041 16.2606 47.7566 16.2606C48.4722 16.2606 49.0818 16.0972 49.4043 15.8564C49.4043 15.8564 47.75 16.4815 46.1089 15.8564Z" fill="#BC6A4F"/>
<path d="M50.8224 7.41895H50.6016V8.4173H50.8224V7.41895Z" fill="#1D1D1B"/>
<path d="M51.6374 7.80371H51.4165V8.80206H51.6374V7.80371Z" fill="#1D1D1B"/>
<path d="M52.4152 8.41699H52.1943V9.41535H52.4152V8.41699Z" fill="#1D1D1B"/>
<path d="M53.0558 9.17676H52.835V10.1751H53.0558V9.17676Z" fill="#1D1D1B"/>
<path d="M50.0734 7.12793H49.8525V8.12628H50.0734V7.12793Z" fill="#1D1D1B"/>
<path d="M49.1369 6.91992H48.916V7.91828H49.1369V6.91992Z" fill="#1D1D1B"/>
<path d="M48.4748 6.91992H48.2539V7.91828H48.4748V6.91992Z" fill="#1D1D1B"/>
<path d="M47.7389 6.91992H47.5181V7.91828H47.7389V6.91992Z" fill="#1D1D1B"/>
<path d="M46.966 7.12793H46.7451V8.12628H46.966V7.12793Z" fill="#1D1D1B"/>
<path d="M46.2609 7.41895H46.04V8.4173H46.2609V7.41895Z" fill="#1D1D1B"/>
<path d="M45.5368 7.80371H45.3159V8.80206H45.5368V7.80371Z" fill="#1D1D1B"/>
<path d="M44.883 8.23828H44.6621V9.23663H44.883V8.23828Z" fill="#1D1D1B"/>
<path d="M49.6958 13.1202C49.5058 12.9307 49.2484 12.8243 48.9801 12.8242H46.5372C46.4043 12.824 46.2727 12.8501 46.1499 12.9008C46.0271 12.9516 45.9155 13.0262 45.8216 13.1202C45.6315 13.3099 45.5243 13.5672 45.5234 13.8358V17.224C45.6576 17.2243 45.7905 17.1981 45.9146 17.147C46.0387 17.0958 46.1514 17.0207 46.2464 16.9259C46.3414 16.8312 46.4168 16.7186 46.4682 16.5946C46.5196 16.4707 46.5461 16.3378 46.5461 16.2036V13.8358H48.9757V16.2036C48.9757 16.4742 49.0832 16.7338 49.2746 16.9252C49.466 17.1165 49.7255 17.224 49.9961 17.224V13.8358C49.9955 13.7026 49.9687 13.5709 49.9172 13.4481C49.8656 13.3253 49.7904 13.2139 49.6958 13.1202Z" fill="#D8690E"/>
<path d="M47.2549 14.2461H47.785C47.8205 14.2463 47.8551 14.2571 47.8844 14.2771C47.9138 14.297 47.9365 14.3252 47.9498 14.3581C47.963 14.391 47.9662 14.4272 47.9589 14.4619C47.9516 14.4966 47.9341 14.5283 47.9087 14.5531L47.5089 14.9418L47.1268 14.5487C47.1026 14.5234 47.0864 14.4917 47.0801 14.4573C47.0738 14.4229 47.0777 14.3874 47.0913 14.3553C47.1049 14.3231 47.1277 14.2956 47.1568 14.2762C47.1858 14.2568 47.22 14.2463 47.2549 14.2461Z" fill="#D8690E"/>
<path d="M41.3008 26.3676C41.3008 26.3676 41.6719 28.0109 41.663 27.9778C41.7896 27.8949 41.9252 27.8267 42.0672 27.7746C42.0248 27.3114 41.951 26.8517 41.8463 26.3985C41.7183 26.3389 41.5832 26.2959 41.4444 26.2704C41.4444 26.2704 41.6652 21.7049 42.9905 21.3604C41.4687 21.6585 41.3008 26.3676 41.3008 26.3676Z" fill="#373684"/>
<path d="M41.3008 26.3688C40.0507 26.1854 38.2704 26.2605 37.3008 26.3224V26.1391C37.3008 26.1391 40.4372 26.0595 41.3008 26.3688Z" fill="#373684"/>
<path d="M54.0605 26.3019C54.0605 26.3019 53.6916 27.9474 53.6983 27.9121C53.5723 27.8296 53.4374 27.7614 53.2963 27.7089C53.3395 27.2458 53.4133 26.7861 53.5171 26.3328C53.6455 26.2746 53.7805 26.2323 53.9191 26.2069C53.9191 26.2069 53.5657 21.6392 52.2427 21.2969C53.7667 21.5995 54.0605 26.3019 54.0605 26.3019Z" fill="#373684"/>
<path d="M54.0605 26.3022C55.3129 26.1211 57.0932 26.194 58.0628 26.2558V26.0747C58.0628 26.0747 54.9308 25.9952 54.0605 26.3022Z" fill="#373684"/>
<g clip-path="url(#clip0_431_11)">
<path d="M41.8877 27.996C41.8877 27.996 41.8144 30.5173 40.9025 29.7174C40.9025 29.7174 40.4408 30.9769 39.8849 30.0031C39.8849 30.0031 39.3509 31.4316 38.8787 29.9459C38.8787 29.9459 38.26 31.8054 37.6317 29.7745C37.6317 29.7745 35.6394 33.1673 35.4823 27.996L41.8877 27.996Z" fill="#F39672"/>
<path d="M41.1458 27.9954C41.146 28.6328 41.0585 29.2471 40.9006 29.7168C40.9006 29.7168 41.2191 29.2168 41.1458 27.9954Z" fill="#BC6A4F"/>
<path d="M40.0454 27.9958C40.0951 29.3982 39.8848 30.0029 39.8848 30.0029C39.8848 30.0029 40.2034 29.491 40.0454 27.9958Z" fill="#BC6A4F"/>
<path d="M39.1247 27.9954C39.1099 28.6947 39.0247 29.3694 38.8786 29.9453C38.9731 29.6964 39.0447 29.39 39.0875 29.051C39.1303 28.7121 39.143 28.3503 39.1247 27.9954Z" fill="#BC6A4F"/>
<path d="M37.3935 28.6506C37.4403 29.0695 37.5215 29.4539 37.6309 29.7744C37.5575 29.6639 37.4967 29.5007 37.4548 29.3027C37.413 29.1046 37.3918 28.8792 37.3935 28.6506Z" fill="#BC6A4F"/>
</g>
<g clip-path="url(#clip1_431_11)">
<path d="M60 27.996C60 27.996 59.9267 30.5173 59.0148 29.7174C59.0148 29.7174 58.5531 30.9769 57.9972 30.0031C57.9972 30.0031 57.4632 31.4316 56.9911 29.9459C56.9911 29.9459 56.3723 31.8054 55.744 29.7745C55.744 29.7745 53.7517 33.1673 53.5946 27.996L60 27.996Z" fill="#F39672"/>
<path d="M59.2581 27.9954C59.2583 28.6328 59.1708 29.2471 59.0129 29.7168C59.0129 29.7168 59.3314 29.2168 59.2581 27.9954Z" fill="#BC6A4F"/>
<path d="M58.1577 27.9958C58.2074 29.3982 57.9971 30.0029 57.9971 30.0029C57.9971 30.0029 58.3157 29.491 58.1577 27.9958Z" fill="#BC6A4F"/>
<path d="M57.237 27.9954C57.2222 28.6947 57.1371 29.3694 56.9909 29.9453C57.0854 29.6964 57.157 29.39 57.1998 29.051C57.2426 28.7121 57.2553 28.3503 57.237 27.9954Z" fill="#BC6A4F"/>
<path d="M55.5058 28.6506C55.5526 29.0695 55.6338 29.4539 55.7432 29.7744C55.6698 29.6639 55.609 29.5007 55.5671 29.3027C55.5253 29.1046 55.5041 28.8792 55.5058 28.6506Z" fill="#BC6A4F"/>
</g>
<path d="M36.7771 28.1085C36.7771 28.1085 36.5164 27.0748 36.607 26.3724C36.607 26.3724 40.0526 26.0543 41.7622 26.4519C41.7622 26.4519 42.0096 27.627 41.919 28.1085H36.7771Z" fill="#FAF3ED"/>
<path d="M58.5862 28.0428C58.5862 28.0428 58.8468 27.0113 58.7563 26.3089C58.7563 26.3089 55.3106 25.9909 53.6011 26.3884C53.6011 26.3884 53.3537 27.5635 53.4442 28.0428H58.5862Z" fill="#FAF3ED"/>
</g>
<defs>
<clipPath id="clip0_431_11">
<rect width="6.40537" height="2.87137" fill="white" transform="translate(41.8877 30.8672) rotate(-180)"/>
</clipPath>
<clipPath id="clip1_431_11">
<rect width="6.40537" height="2.87137" fill="white" transform="translate(60 30.8672) rotate(-180)"/>
</clipPath>
</defs>
</svg>
