<svg width="838" height="157" viewBox="0 0 838 157" fill="none" xmlns="http://www.w3.org/2000/svg">
<path d="M27.2395 157C41.7366 157 53.4888 145.285 53.4888 130.833C53.4888 116.382 41.7366 104.667 27.2395 104.667C12.7424 104.667 0.990234 116.382 0.990234 130.833C0.990234 145.285 12.7424 157 27.2395 157Z" fill="#0600FF"/>
<path d="M132.238 157C146.735 157 158.487 145.285 158.487 130.833C158.487 116.382 146.735 104.667 132.238 104.667C117.74 104.667 105.988 116.382 105.988 130.833C105.988 145.285 117.74 157 132.238 157Z" fill="#0600FF"/>
<path d="M237.234 157C251.731 157 263.483 145.285 263.483 130.833C263.483 116.382 251.731 104.667 237.234 104.667C222.737 104.667 210.984 116.382 210.984 130.833C210.984 145.285 222.737 157 237.234 157Z" fill="#0600FF"/>
<path d="M342.232 157C356.729 157 368.481 145.285 368.481 130.833C368.481 116.382 356.729 104.667 342.232 104.667C327.735 104.667 315.982 116.382 315.982 130.833C315.982 145.285 327.735 157 342.232 157Z" fill="#0600FF"/>
<path d="M447.229 157C461.726 157 473.478 145.285 473.478 130.833C473.478 116.382 461.726 104.667 447.229 104.667C432.732 104.667 420.979 116.382 420.979 130.833C420.979 145.285 432.732 157 447.229 157Z" fill="#0600FF"/>
<path d="M552.226 157C566.723 157 578.475 145.285 578.475 130.833C578.475 116.382 566.723 104.667 552.226 104.667C537.729 104.667 525.977 116.382 525.977 130.833C525.977 145.285 537.729 157 552.226 157Z" fill="#0600FF"/>
<path d="M657.223 157C671.72 157 683.472 145.285 683.472 130.833C683.472 116.382 671.72 104.667 657.223 104.667C642.726 104.667 630.974 116.382 630.974 130.833C630.974 145.285 642.726 157 657.223 157Z" fill="#0600FF"/>
<path d="M53.4889 29.0741C59.3221 29.0741 67.6054 37.5056 72.6803 52.3333H103.013C95.7794 21.8637 76.355 0 53.4889 0C24.323 0 0.990292 34.8889 0.990292 78.5C0.58827 99.2289 6.70776 119.563 18.4898 136.648L38.9643 114.668C33.0864 103.507 30.1368 91.0451 30.3897 78.442C30.3897 47.7979 45.4977 29.016 53.7225 29.016" fill="#0600FF"/>
<path d="M158.487 29.0741C164.32 29.0741 172.603 37.5056 177.678 52.3333H208.011C200.777 21.8637 181.353 0 158.487 0C129.321 0 105.988 34.8889 105.988 78.5C105.586 99.2289 111.706 119.563 123.488 136.648L143.962 114.668C138.084 103.507 135.135 91.0451 135.388 78.442C135.388 47.7979 150.496 29.016 158.721 29.016" fill="#0600FF"/>
<path d="M263.484 29.0741C269.317 29.0741 277.601 37.5056 282.675 52.3333H313.008C305.775 21.8637 286.35 0 263.484 0C234.318 0 210.985 34.8889 210.985 78.5C210.583 99.2289 216.703 119.563 228.485 136.648L248.959 114.668C243.082 103.507 240.132 91.0451 240.385 78.442C240.385 47.7979 255.493 29.016 263.718 29.016" fill="#0600FF"/>
<path d="M368.48 29.0741C374.313 29.0741 382.597 37.5056 387.672 52.3333H418.004C410.771 21.8637 391.346 0 368.48 0C339.314 0 315.982 34.8889 315.982 78.5C315.579 99.2289 321.699 119.563 333.481 136.648L353.956 114.668C348.078 103.507 345.128 91.0451 345.381 78.442C345.381 47.7979 360.489 29.016 368.714 29.016" fill="#0600FF"/>
<path d="M473.478 29.0741C479.311 29.0741 487.595 37.5056 492.67 52.3333H523.002C515.769 21.8637 496.344 0 473.478 0C444.312 0 420.98 34.8889 420.98 78.5C420.578 99.2289 426.697 119.563 438.479 136.648L458.954 114.668C453.076 103.507 450.126 91.0451 450.379 78.442C450.379 47.7979 465.487 29.016 473.712 29.016" fill="#0600FF"/>
<path d="M578.475 29.0741C584.308 29.0741 592.592 37.5056 597.667 52.3333H627.999C620.766 21.8637 601.341 0 578.475 0C549.309 0 525.977 34.8889 525.977 78.5C525.575 99.2289 531.694 119.563 543.476 136.648L563.951 114.668C558.073 103.507 555.123 91.0451 555.376 78.442C555.376 47.7979 570.484 29.016 578.709 29.016" fill="#0600FF"/>
<path d="M683.473 29.0741C689.015 29.0741 697.59 37.5056 702.665 52.3333H732.997C725.764 21.8637 706.339 0 683.473 0C654.307 0 630.975 34.8889 630.975 78.5C630.573 99.2289 636.692 119.563 648.474 136.648L668.949 114.668C663.071 103.507 660.121 91.0451 660.374 78.442C660.374 47.7979 675.482 29.016 683.707 29.016" fill="#0600FF"/>
<path d="M762.22 157C776.717 157 788.469 145.285 788.469 130.833C788.469 116.382 776.717 104.667 762.22 104.667C747.723 104.667 735.971 116.382 735.971 130.833C735.971 145.285 747.723 157 762.22 157Z" fill="#0600FF"/>
<path d="M788.469 29.0741C794.011 29.0741 802.586 37.5056 807.661 52.3333H837.993C830.76 21.8637 811.335 0 788.469 0C759.303 0 735.971 34.8889 735.971 78.5C735.569 99.2289 741.688 119.563 753.47 136.648L773.945 114.668C768.067 103.507 765.117 91.0451 765.37 78.442C765.37 47.7979 780.478 29.016 788.703 29.016" fill="#0600FF"/>
</svg>
