<svg width="562" height="161" viewBox="0 0 562 161" fill="none" xmlns="http://www.w3.org/2000/svg">
<g clip-path="url(#clip0_302_3759)">
<path d="M475.542 75.9396V125.389H467.147V82.5745H456.917V75.9396H475.542ZM477.245 74.2449H455.215V84.2692H465.445V127.083H477.245V74.2449Z" fill="#0600FF"/>
<path d="M511.292 75.9395L496.53 104.526L495.255 106.997H510.449V96.0696H518.773V106.997H524.634V113.712H518.773V125.389H510.449V113.712H485.488V109.136L502.206 75.9311H511.292V75.9395ZM514.082 74.2363H501.155L483.793 108.734V115.398H508.754V127.075H520.482V115.398H526.343V105.294H520.482V94.3664H508.754V105.294H498.05L514.088 74.2363H514.082Z" fill="#0600FF"/>
<path d="M271.145 75.9394V125.388H262.748V82.5742H252.52V75.9394H271.145ZM272.847 74.2446H250.812V84.269H261.041V127.083H272.847V74.2446Z" fill="#0600FF"/>
<path d="M314.816 75.9395V80.1882L302.992 93.5461L300.72 96.1154L304.15 96.3576C306.061 96.4397 307.927 96.9662 309.597 97.8948C311.514 99.0243 313.077 100.663 314.111 102.627C315.309 105.111 315.879 107.85 315.772 110.604C315.664 113.358 314.882 116.044 313.493 118.428C311.892 120.889 309.632 122.854 306.967 124.101C303.79 125.569 300.317 126.291 296.815 126.211C293.565 126.251 290.339 125.659 287.317 124.467C285.085 123.569 283.045 122.257 281.305 120.601L286.495 115.439C287.548 116.441 288.767 117.256 290.097 117.849C292.134 118.785 294.351 119.27 296.596 119.271C298.484 119.305 300.355 118.916 302.071 118.132C303.644 117.392 304.991 116.249 305.975 114.822C306.953 113.258 307.471 111.452 307.468 109.609C307.465 107.767 306.943 105.962 305.959 104.401C304.911 102.95 303.47 101.826 301.804 101.159C299.933 100.415 297.931 100.053 295.916 100.093C294.843 100.096 293.77 100.161 292.704 100.288C292.456 100.318 292.216 100.352 291.983 100.388V96.5017L301.59 85.3741L304.007 82.5743H283.938V75.9395H314.812H314.816ZM316.515 74.2448H282.239V84.2691H300.301L290.284 95.873V102.537C291.138 102.253 292.02 102.063 292.915 101.971C293.912 101.852 294.916 101.791 295.92 101.788C297.706 101.747 299.483 102.064 301.144 102.72C302.516 103.262 303.704 104.184 304.569 105.375C305.353 106.655 305.769 108.124 305.769 109.623C305.769 111.122 305.353 112.592 304.569 113.871C303.754 115.053 302.638 115.997 301.334 116.606C299.85 117.28 298.232 117.612 296.601 117.576C294.602 117.578 292.626 117.146 290.813 116.308C289.126 115.593 287.67 114.428 286.605 112.941L278.934 120.567C281.049 122.968 283.702 124.84 286.679 126.031C289.906 127.308 293.354 127.942 296.827 127.895C300.59 127.981 304.321 127.199 307.73 125.611C310.678 124.23 313.178 122.052 314.943 119.325C316.494 116.686 317.368 113.708 317.486 110.654C317.605 107.599 316.966 104.563 315.624 101.813C314.446 99.5732 312.662 97.7062 310.473 96.4237C308.573 95.3634 306.452 94.7583 304.276 94.6562L316.532 80.8187V74.2346L316.515 74.2448Z" fill="#0600FF"/>
<path d="M66.7837 75.9396V125.497H58.3714V82.5948H48.1123V75.9396H66.7837ZM68.4859 74.2449H46.4102V84.2896H56.6693V127.192H68.4944V74.2449H68.4859Z" fill="#0600FF"/>
<path d="M94.4701 75.1141C97.5096 75.0389 100.525 75.6696 103.277 76.9563C105.591 78.0751 107.52 79.8521 108.82 82.0625C110.164 84.4866 110.837 87.2224 110.772 89.9906C110.793 91.8187 110.55 93.6404 110.052 95.4001C109.529 97.0892 108.724 98.6781 107.669 100.1C106.231 102.025 104.642 103.834 102.916 105.509L92.3372 115.934L89.3941 118.833H111.909V125.497H76.9665V121.279L96.928 100.742C98.157 99.4201 99.1937 98.1998 100.009 97.1288C100.815 96.1021 101.459 94.9591 101.919 93.7393C102.3 92.682 102.498 91.568 102.504 90.4448C102.553 89.3009 102.347 88.1604 101.903 87.1044C101.458 86.0485 100.785 85.103 99.9324 84.3352C98.1822 82.8471 95.9343 82.0681 93.6343 82.1524C91.2726 82.1289 88.9588 82.8158 86.9958 84.1233C85.3248 85.3122 83.8832 86.7918 82.7403 88.4907L77.3392 83.8268C79.0559 81.2621 81.3485 79.1303 84.0357 77.6003C87.2411 75.8936 90.8342 75.038 94.4684 75.1158L94.4701 75.1141ZM94.4684 73.4211C90.5435 73.3378 86.6639 74.2673 83.2067 76.1192C79.8461 78.0396 77.0531 80.808 75.1094 84.1454L83.0961 91.043C84.3024 88.8831 85.9588 87.0052 87.9541 85.5351C89.6351 84.4127 91.6189 83.8253 93.6428 83.8506C95.5239 83.7697 97.3665 84.3971 98.8039 85.608C99.4743 86.2185 100.001 86.9689 100.347 87.8056C100.692 88.6423 100.848 89.5446 100.802 90.4481C100.795 91.3803 100.63 92.3047 100.312 93.1818C99.9118 94.2372 99.3515 95.2254 98.6507 96.112C97.8728 97.1373 96.8855 98.2964 95.6769 99.5963L75.2643 120.594V127.192H113.61V117.139H93.5237L104.104 106.714C105.896 104.973 107.547 103.093 109.041 101.093C110.209 99.5166 111.101 97.7546 111.678 95.8815C112.223 93.9657 112.489 91.9817 112.467 89.9906C112.539 86.9237 111.786 83.8936 110.287 81.2135C108.825 78.713 106.649 76.7029 104.035 75.4396C101.047 74.0322 97.7695 73.3404 94.465 73.4194L94.4684 73.4211Z" fill="#0600FF"/>
<path d="M122.324 15.3272C119.998 6.35697 114.324 0 107.686 0C101.015 0 95.3703 6.28578 93.0553 15.2526H89.9641C87.6236 6.32137 81.9638 0 75.3457 0C68.6748 0 63.0304 6.28578 60.7154 15.2526H57.6225C55.282 6.32137 49.6222 0 43.0041 0C36.2652 0 30.5781 6.41628 28.3074 15.5306C20.4971 16.5144 13.3146 20.2983 8.10423 26.1741C2.89383 32.0498 0.0126681 39.6146 0 47.4526V128.8C0.00946154 137.337 3.41991 145.522 9.48309 151.558C15.5463 157.595 23.767 160.991 32.3416 161H120.855C129.43 160.99 137.65 157.594 143.713 151.558C149.777 145.521 153.187 137.337 153.197 128.8V47.4526C153.183 39.1739 149.969 31.2182 144.22 25.2364C138.472 19.2547 130.631 15.7061 122.324 15.3272ZM107.757 8.99739L107.687 9.01436C109.228 9.01436 111.536 11.2751 113.082 15.2526H102.336C103.881 11.2564 106.22 8.99739 107.757 8.99739ZM75.4155 8.99739L75.3457 9.01436C76.8862 9.01436 79.1944 11.2751 80.74 15.2526H69.994C71.5396 11.2564 73.8784 8.99739 75.4155 8.99739ZM43.0739 8.99739L43.0041 9.01436C44.6246 9.01436 46.8664 11.2751 48.4001 15.2526H37.6524C39.198 11.2564 41.5368 8.99739 43.0739 8.99739ZM136.175 128.8C136.171 132.844 134.555 136.721 131.683 139.58C128.811 142.44 124.917 144.048 120.855 144.053H32.3416C28.2799 144.048 24.3859 142.44 21.5139 139.58C18.6419 136.721 17.0264 132.844 17.0219 128.8V47.4526C17.0272 44.1217 18.1266 40.884 20.1525 38.2333C22.1785 35.5825 25.0197 33.6643 28.2427 32.7712C28.7331 34.7077 29.4074 36.5934 30.2564 38.4028C28.3798 40.6144 27.3179 43.3976 27.2462 46.2919C27.1745 49.1862 28.0974 52.0181 29.8622 54.3192C31.6269 56.6202 34.1279 58.2525 36.9512 58.9459C39.7745 59.6393 42.7509 59.3523 45.3881 58.1323C48.0252 56.9124 50.165 54.8326 51.4535 52.2372C52.742 49.6417 53.1019 46.6861 52.4736 43.8593C51.8454 41.0325 50.2667 38.5039 47.9987 36.6919C45.7307 34.8799 42.9094 33.8931 40.0015 33.8947C39.3297 33.8994 38.6593 33.9562 37.9963 34.0643C37.7358 33.4508 37.4856 32.8321 37.2814 32.2H60.4413C61.0619 34.8333 62.022 37.3756 63.2976 39.7636C61.6822 42.2763 61.0041 45.2738 61.3816 48.2334C61.7591 51.1929 63.1683 53.9265 65.3633 55.9573C67.5584 57.9881 70.3999 59.1873 73.3921 59.3454C76.3843 59.5035 79.3373 58.6106 81.7359 56.8225C84.1345 55.0344 85.8264 52.4646 86.5164 49.5614C87.2064 46.6583 86.8508 43.6061 85.5115 40.9373C84.1722 38.2686 81.9344 36.1528 79.1883 34.9589C76.4423 33.765 73.3624 33.5689 70.486 34.4049C70.1611 33.6855 69.8731 32.9502 69.623 32.2018H92.783C93.5387 35.4039 94.7962 38.4677 96.509 41.2805C95.2654 43.9722 95.0074 47.0124 95.7798 49.8737C96.5521 52.735 98.3061 55.2369 100.737 56.9454C103.169 58.6538 106.124 59.461 109.091 59.2269C112.057 58.9929 114.848 57.7323 116.979 55.6639C119.109 53.5955 120.446 50.8497 120.756 47.903C121.066 44.9563 120.33 41.9945 118.676 39.5314C117.022 37.0683 114.554 35.2593 111.701 34.4182C108.847 33.5772 105.788 33.7571 103.054 34.9268C102.634 34.0419 102.271 33.1318 101.965 32.2018H120.859C124.921 32.2062 128.815 33.8146 131.687 36.674C134.559 39.5335 136.174 43.4105 136.179 47.4544L136.175 128.8Z" fill="#0600FF"/>
<path d="M52.0162 74.2449H41.7656V84.2896H52.0162V127.192H63.8413V74.2449H63.0872H52.0162Z" fill="#E66E78"/>
<path d="M88.8881 117.139L99.4689 106.714C101.261 104.973 102.911 103.093 104.405 101.093C105.574 99.5166 106.465 97.7546 107.042 95.8815C107.587 93.9657 107.853 91.9817 107.832 89.9906C107.903 86.9236 107.149 83.8934 105.65 81.2135C104.188 78.713 102.012 76.7029 99.3975 75.4396C96.4095 74.0322 93.1323 73.3404 89.8278 73.4194C85.9029 73.3357 82.023 74.2651 78.5661 76.1174C75.205 78.0374 72.412 80.8059 70.4688 84.1437L78.4554 91.0413C79.6609 88.8804 81.3167 87.0013 83.3118 85.53C84.9928 84.4076 86.9766 83.8201 89.0005 83.8454C90.8816 83.7645 92.7242 84.3921 94.1615 85.6029C94.8329 86.2142 95.3602 86.9656 95.7057 87.8036C96.0512 88.6415 96.2063 89.5452 96.1599 90.4498C96.153 91.3821 95.9873 92.3064 95.6697 93.1834C95.2688 94.2386 94.7085 95.2267 94.0083 96.1136C93.2304 97.1389 92.2432 98.2982 91.0346 99.598L70.627 120.594V127.192H108.971V117.139H88.8881Z" fill="#E66E78"/>
<path d="M326.728 15.3272C324.4 6.35697 318.728 0 312.09 0C305.451 0 299.774 6.28578 297.459 15.2526H294.368C292.028 6.32137 286.368 0 279.748 0C273.077 0 267.433 6.28578 265.118 15.2526H262.027C259.686 6.32137 254.026 0 247.406 0C240.668 0 234.98 6.41628 232.71 15.5306C224.9 16.5147 217.717 20.2987 212.507 26.1744C207.297 32.05 204.415 39.6147 204.402 47.4526V128.8C204.412 137.337 207.823 145.521 213.886 151.558C219.949 157.594 228.169 160.99 236.744 161H325.258C333.832 160.991 342.053 157.595 348.116 151.558C354.179 145.522 357.59 137.337 357.599 128.8V47.4526C357.586 39.1742 354.371 31.2188 348.623 25.237C342.875 19.2553 335.035 15.7066 326.728 15.3272ZM312.161 8.99739L312.09 9.01436C313.63 9.01436 315.938 11.2751 317.484 15.2526H306.738C308.284 11.2564 310.622 8.99739 312.161 8.99739ZM279.82 8.99739L279.748 9.01436C281.289 9.01436 283.597 11.2751 285.142 15.2526H274.396C275.942 11.2564 278.281 8.99739 279.82 8.99739ZM247.478 8.99739L247.406 9.01436C249.027 9.01436 251.269 11.2751 252.804 15.2526H242.055C243.6 11.2564 245.939 8.99739 247.478 8.99739ZM340.577 128.8C340.573 132.844 338.958 136.721 336.085 139.58C333.213 142.44 329.319 144.048 325.258 144.053H236.744C232.682 144.048 228.788 142.44 225.916 139.58C223.044 136.721 221.429 132.844 221.424 128.8V47.4526C221.43 44.1216 222.53 40.8838 224.556 38.233C226.582 35.5823 229.424 33.6642 232.647 32.7712C233.137 34.7077 233.811 36.5934 234.66 38.4028C232.784 40.6145 231.722 43.3978 231.65 46.2922C231.579 49.1865 232.502 52.0186 234.266 54.3196C236.031 56.6206 238.532 58.2528 241.356 58.9461C244.179 59.6394 247.156 59.3522 249.793 58.132C252.43 56.9119 254.57 54.8319 255.858 52.2362C257.146 49.6406 257.506 46.6849 256.877 43.858C256.249 41.0312 254.67 38.5028 252.402 36.691C250.133 34.8792 247.312 33.8927 244.404 33.8947C243.733 33.8994 243.063 33.9562 242.4 34.0643C242.138 33.4508 241.89 32.8321 241.685 32.2H264.835C265.456 34.8333 266.416 37.3756 267.691 39.7636C266.076 42.2763 265.398 45.2738 265.775 48.2334C266.153 51.1929 267.562 53.9265 269.757 55.9573C271.952 57.9881 274.794 59.1873 277.786 59.3454C280.778 59.5035 283.731 58.6106 286.13 56.8225C288.528 55.0344 290.22 52.4646 290.91 49.5614C291.6 46.6583 291.245 43.6061 289.905 40.9373C288.566 38.2686 286.328 36.1528 283.582 34.9589C280.836 33.765 277.756 33.5689 274.88 34.4049C274.56 33.6829 274.265 32.9508 274.019 32.2018H297.168C297.925 35.4037 299.182 38.4673 300.894 41.2805C299.651 43.9722 299.393 47.0124 300.165 49.8737C300.937 52.735 302.691 55.2369 305.123 56.9454C307.554 58.6538 310.509 59.461 313.476 59.2269C316.443 58.9929 319.233 57.7323 321.364 55.6639C323.495 53.5955 324.831 50.8497 325.141 47.903C325.451 44.9563 324.715 41.9945 323.061 39.5314C321.407 37.0683 318.94 35.2593 316.086 34.4182C313.233 33.5772 310.173 33.7571 307.439 34.9268C307.02 34.0418 306.657 33.1317 306.352 32.2018H325.246C329.308 32.2062 333.202 33.8146 336.074 36.674C338.946 39.5335 340.561 43.4105 340.566 47.4544L340.577 128.8Z" fill="#0600FF"/>
<path d="M256.404 74.2446H246.176V84.269H256.404V127.083H268.206V74.2446H267.453H256.404Z" fill="#E66E78"/>
<path d="M310.978 101.823C309.799 99.5831 308.015 97.7163 305.826 96.4338C303.926 95.3733 301.805 94.768 299.63 94.6662L311.877 80.8287V74.2446H277.6V84.269H295.658L285.641 95.8729V102.537C286.494 102.253 287.376 102.063 288.271 101.97C289.268 101.852 290.271 101.791 291.275 101.788C293.062 101.747 294.838 102.063 296.499 102.72C297.872 103.263 299.06 104.184 299.926 105.375C300.709 106.655 301.124 108.124 301.124 109.623C301.124 111.122 300.709 112.591 299.926 113.871C299.111 115.053 297.995 115.997 296.692 116.606C295.207 117.28 293.589 117.612 291.958 117.576C289.959 117.578 287.984 117.146 286.17 116.308C284.483 115.593 283.026 114.428 281.961 112.941L274.289 120.567C276.404 122.968 279.058 124.84 282.034 126.031C285.262 127.308 288.711 127.942 292.184 127.895C295.944 127.979 299.672 127.198 303.078 125.61C306.027 124.23 308.527 122.052 310.292 119.325C311.843 116.687 312.717 113.708 312.836 110.654C312.955 107.599 312.315 104.562 310.973 101.813L310.978 101.823Z" fill="#E66E78"/>
<path d="M531.128 15.3272C528.801 6.35697 523.128 0 516.489 0C509.819 0 504.174 6.28578 501.851 15.2526H498.758C496.417 6.32137 490.757 0 484.139 0C477.468 0 471.824 6.28578 469.501 15.2526H466.408C464.067 6.32137 458.407 0 451.789 0C445.05 0 439.363 6.41628 437.093 15.5306C429.282 16.5144 422.1 20.2983 416.889 26.1741C411.679 32.0498 408.798 39.6146 408.785 47.4526V128.8C408.795 137.337 412.205 145.522 418.268 151.558C424.331 157.595 432.552 160.991 441.127 161H529.641C538.215 160.99 546.436 157.594 552.499 151.558C558.562 145.521 561.972 137.337 561.982 128.8V47.4526C561.969 39.177 558.757 31.2239 553.012 25.2426C547.268 19.2613 539.431 15.7108 531.128 15.3272ZM516.561 8.99739L516.491 9.01436C518.023 9.01436 520.34 11.2751 521.885 15.2526H511.14C512.688 11.2564 515.024 8.99739 516.561 8.99739ZM484.219 8.99739L484.15 9.01436C485.682 9.01436 487.998 11.2751 489.544 15.2526H478.798C480.347 11.2564 482.682 8.99739 484.219 8.99739ZM451.878 8.99739L451.808 9.01436C453.428 9.01436 455.67 11.2751 457.204 15.2526H446.456C448.005 11.2564 450.341 8.99739 451.878 8.99739ZM544.979 128.8C544.975 132.844 543.359 136.721 540.487 139.58C537.615 142.44 533.721 144.048 529.659 144.053H441.145C437.084 144.048 433.19 142.44 430.318 139.58C427.446 136.721 425.83 132.844 425.826 128.8V47.4526C425.831 44.1217 426.931 40.884 428.956 38.2333C430.982 35.5825 433.824 33.6643 437.047 32.7712C437.537 34.7077 438.211 36.5934 439.06 38.4028C437.184 40.6144 436.122 43.3976 436.05 46.2919C435.978 49.1862 436.901 52.0181 438.666 54.3192C440.431 56.6202 442.932 58.2525 445.755 58.9459C448.578 59.6393 451.555 59.3523 454.192 58.1323C456.829 56.9124 458.969 54.8326 460.257 52.2372C461.546 49.6417 461.906 46.6861 461.278 43.8593C460.649 41.0325 459.071 38.5039 456.803 36.6919C454.535 34.8799 451.713 33.8931 448.805 33.8947C448.134 33.8994 447.463 33.9562 446.8 34.0643C446.54 33.4508 446.289 32.8321 446.085 32.2H469.245C469.866 34.8333 470.826 37.3756 472.101 39.7636C470.486 42.2763 469.808 45.2738 470.185 48.2334C470.563 51.1929 471.972 53.9265 474.167 55.9573C476.362 57.9881 479.204 59.1873 482.196 59.3454C485.188 59.5035 488.141 58.6106 490.54 56.8225C492.938 55.0344 494.63 52.4646 495.32 49.5614C496.01 46.6583 495.655 43.6061 494.315 40.9373C492.976 38.2686 490.738 36.1528 487.992 34.9589C485.246 33.765 482.166 33.5689 479.29 34.4049C478.965 33.6855 478.677 32.9502 478.427 32.2018H501.587C502.343 35.4039 503.6 38.4677 505.313 41.2805C504.069 43.9722 503.811 47.0124 504.584 49.8737C505.356 52.735 507.11 55.2369 509.541 56.9454C511.973 58.6538 514.928 59.461 517.894 59.2269C520.861 58.9929 523.652 57.7323 525.783 55.6639C527.913 53.5955 529.249 50.8497 529.559 47.903C529.87 44.9563 529.134 41.9945 527.48 39.5314C525.826 37.0683 523.358 35.2593 520.505 34.4182C517.651 33.5772 514.592 33.7571 511.858 34.9268C511.438 34.0419 511.074 33.1318 510.768 32.2018H529.663C533.724 32.2062 537.618 33.8146 540.49 36.674C543.362 39.5335 544.978 43.4105 544.982 47.4544L544.979 128.8Z" fill="#0600FF"/>
<path d="M460.807 74.2446H450.578V84.269H460.807V127.083H472.608V74.2446H471.855H460.807Z" fill="#E66E78"/>
<path d="M515.836 105.302V94.3747H504.109V105.302H493.406L509.444 74.2446H496.516L479.148 108.743V115.406H504.109V127.083H515.836V115.406H521.696V105.302H515.836Z" fill="#E66E78"/>
</g>
<defs>
<clipPath id="clip0_302_3759">
<rect width="562" height="161" fill="white"/>
</clipPath>
</defs>
</svg>
