<svg xmlns="http://www.w3.org/2000/svg" viewBox="0 0 382.62 117.61"><defs><style>.cls-1{fill:#0600ff;}.cls-2{fill:#fff;}.cls-3{fill:#e66e78;}</style></defs><title>Fichier 3</title><g id="Calque_2" data-name="Calque 2"><g id="Calque_2-2" data-name="Calque 2"><path class="cls-1" d="M371.2,88.75V22.19A14.48,14.48,0,0,0,356.72,7.72h-.64a3.55,3.55,0,0,0,3.54-3.55V3.54A3.55,3.55,0,0,0,356.08,0H89.21a3.55,3.55,0,0,0-3.55,3.54v.63a3.55,3.55,0,0,0,3.55,3.55h.31v3.86h-2a1.87,1.87,0,0,0-1.87,1.87v.11a1.87,1.87,0,0,0,1.87,1.87h2V88.74H89.4a3.74,3.74,0,0,0-3.74,3.75v.23a3.74,3.74,0,0,0,3.74,3.75H365.65a5.55,5.55,0,0,0,5.55-5.54Zm-17.34,5.81H89.4a1.84,1.84,0,0,1-1.84-1.84v-.23a1.84,1.84,0,0,1,1.84-1.84H353.86Z"/><path class="cls-1" d="M379.76,111.9H80V77.37a3.16,3.16,0,0,0-3.16-3.16H52.27a3.16,3.16,0,0,0-3.16,3.16V91.11a3.2,3.2,0,0,0-3.2-3.2h-.22V64a3.48,3.48,0,0,0-1.29-2.71,3.37,3.37,0,0,0-.55-.38l-.32-.15a3.41,3.41,0,0,0-1.36-.28h-17a3.46,3.46,0,0,0-1.37.28,4.3,4.3,0,0,0-.6.32,3.11,3.11,0,0,0-.52.44,3.47,3.47,0,0,0-1,2.48V87.91H14.62a3.2,3.2,0,0,0-3.2,3.2V111.9H2.85a2.86,2.86,0,0,0,0,5.71H379.76a2.86,2.86,0,1,0,0-5.71M13.32,91.11a1.3,1.3,0,0,1,1.3-1.29H28.55v3.32a1.63,1.63,0,0,0,1.63,1.63h.18A1.62,1.62,0,0,0,32,93.14V89.82H45.91a1.3,1.3,0,0,1,1.3,1.29V110H13.32Zm366.44,24.6H2.85a1,1,0,0,1,0-1.91H379.76a1,1,0,0,1,0,1.91"/><path class="cls-2" d="M45.91,89.82H32v3.32a1.62,1.62,0,0,1-1.62,1.63h-.18a1.63,1.63,0,0,1-1.63-1.63V89.82H14.62a1.3,1.3,0,0,0-1.3,1.29V110H47.21V91.11a1.3,1.3,0,0,0-1.3-1.29M28.55,108.47H14.85v-6.85h13.7Z"/><path class="cls-2" d="M380.71,114.75a1,1,0,0,1-.95,1H2.85a1,1,0,0,1,0-1.91H379.76a1,1,0,0,1,.95,1"/><path class="cls-1" d="M14.85,108.47h13.7v-6.85H14.85Zm11.8-1.9h-9.9v-3h9.9Z"/><rect class="cls-1" x="16.75" y="103.52" width="9.9" height="3.05"/><rect class="cls-2" x="62.82" y="74.21" width="3.43" height="37.69"/><path class="cls-2" d="M33.69,67.35h0A1.71,1.71,0,0,1,32,65.64V60.5h3.43v5.14a1.71,1.71,0,0,1-1.72,1.71"/><rect class="cls-2" x="52.54" y="101.62" width="6.85" height="6.85"/><rect class="cls-2" x="35.41" y="81.06" width="6.85" height="3.43"/><path class="cls-1" d="M76.79,76.11a1.27,1.27,0,0,1,1.26,1.26v31.37A1.26,1.26,0,0,1,76.79,110H52.27A1.25,1.25,0,0,1,51,108.74V77.37a1.26,1.26,0,0,1,1.25-1.26Zm0-1.9H52.27a3.16,3.16,0,0,0-3.16,3.16v31.37a3.17,3.17,0,0,0,3.16,3.16H76.79A3.16,3.16,0,0,0,80,108.74V77.37a3.15,3.15,0,0,0-3.16-3.16"/><path class="cls-2" d="M118.05,43h5.14V61.27h-5.14Zm3.45,18.31V56.9h4.26a5.52,5.52,0,0,0,2.5-.53,3.63,3.63,0,0,0,1.62-1.6,5.74,5.74,0,0,0,.57-2.68,5.53,5.53,0,0,0-.58-2.65,3.8,3.8,0,0,0-1.62-1.58,5.48,5.48,0,0,0-2.49-.53h-4.52V43h4.52a11.78,11.78,0,0,1,4,.64,9.33,9.33,0,0,1,3.15,1.85,8.37,8.37,0,0,1,2.07,2.9,10.07,10.07,0,0,1,0,7.53,8.37,8.37,0,0,1-2.07,2.9,9.39,9.39,0,0,1-3.14,1.85,11.57,11.57,0,0,1-3.93.64Z"/><path class="cls-2" d="M137.4,43h5.15V61.27H137.4Zm5-1-1.28-2.5L146,36l2.13,3.91Zm-.82,1h9.67v4.27h-9.67Zm0,6.89h8.88V54h-8.88Zm0,7.15h9.83v4.27h-9.83Z"/><polygon class="cls-2" points="153.08 61.27 153.08 42.96 156.81 42.96 163.63 52.94 162 52.94 168.79 42.96 172.53 42.96 172.53 61.27 167.43 61.27 167.43 51.4 168.18 51.6 164.45 56.95 161.16 56.95 157.45 51.6 158.17 51.4 158.17 61.27 153.08 61.27"/><path class="cls-2" d="M175.25,43h5.14V61.27h-5.14Zm5-1L179,39.43,183.84,36,186,39.87Zm-.83,1h9.68v4.27h-9.68Zm0,6.89h8.88V54h-8.88Zm0,7.15h9.83v4.27h-9.83Z"/><path class="cls-2" d="M190.92,61.27V43h3.6l1.54,3.86V61.27Zm12.61,0L192.9,47.92l1.62-5,10.63,13.35Zm0,0-1.29-4.06V43h5.14V61.27Z"/><path class="cls-2" d="M208.35,61.27l7-18.31h5.25l6.89,18.31h-5.35L217,45.71h1.85L213.6,61.27Zm4.52-7.1h10.24v4H212.87Z"/><path class="cls-2" d="M236.57,61.58a10.79,10.79,0,0,1-3.95-.7,9.71,9.71,0,0,1-3.17-2,9,9,0,0,1-2.09-3,9.3,9.3,0,0,1-.75-3.75,8.85,8.85,0,0,1,.79-3.78,9.12,9.12,0,0,1,2.18-3,10.18,10.18,0,0,1,3.26-2,11,11,0,0,1,4-.71,11.38,11.38,0,0,1,4.56.87,8.87,8.87,0,0,1,3.28,2.37l-3.47,3.47a6.86,6.86,0,0,0-2-1.64,5.27,5.27,0,0,0-2.47-.54,5.1,5.1,0,0,0-2.47.6,4.66,4.66,0,0,0-1.76,1.71,5,5,0,0,0-.66,2.6,5.3,5.3,0,0,0,.61,2.61,4.27,4.27,0,0,0,1.68,1.74,5,5,0,0,0,2.52.62,4.66,4.66,0,0,0,2.34-.54A3.64,3.64,0,0,0,240.44,55a5.29,5.29,0,0,0,.5-2.36l3.52,2.23L236,54.59V50.47h10.16v.77a12,12,0,0,1-1.2,5.61,8.24,8.24,0,0,1-3.34,3.52,10,10,0,0,1-5,1.21"/><path class="cls-2" d="M247.62,43h5.15V61.27h-5.15Zm4.17,0h9.67v4.27h-9.67Zm0,6.89h8.87V54h-8.87Zm0,7.15h9.83v4.27h-9.83Z"/><polygon class="cls-2" points="263.3 61.27 263.3 42.96 267.03 42.96 273.84 52.94 272.22 52.94 279.01 42.96 282.74 42.96 282.74 61.27 277.65 61.27 277.65 51.4 278.4 51.6 274.67 56.95 271.37 56.95 267.67 51.6 268.39 51.4 268.39 61.27 263.3 61.27"/><path class="cls-2" d="M285.46,43h5.15V61.27h-5.15Zm4.17,0h9.67v4.27h-9.67Zm0,6.89h8.88V54h-8.88Zm0,7.15h9.83v4.27h-9.83Z"/><path class="cls-2" d="M301.14,61.27V43h3.6l1.54,3.86V61.27Zm12.6,0L303.12,47.92l1.62-5,10.62,13.35Zm0,0-1.28-4.06V43h5.14V61.27Z"/><path class="cls-2" d="M318.84,43H335v4.37H318.84Zm5.47,0h5.15V61.27h-5.15Z"/><path class="cls-2" d="M95.31,11.58h0a1.92,1.92,0,0,0-1.93,1.92V83a1.93,1.93,0,0,0,3.86,0V13.5a1.93,1.93,0,0,0-1.93-1.92"/><path class="cls-2" d="M353.86,90.65v3.91H89.4a1.84,1.84,0,0,1-1.84-1.84v-.23a1.84,1.84,0,0,1,1.84-1.84Z"/><path class="cls-3" d="M332.61,100.32H313.32a3.86,3.86,0,0,1-3.86-3.86h27a3.86,3.86,0,0,1-3.86,3.86"/><path class="cls-2" d="M245.79,69.45H118.46a1.93,1.93,0,1,1,0-3.85H245.79a1.93,1.93,0,1,1,0,3.85"/><path class="cls-2" d="M307.53,69.45h-54a1.93,1.93,0,1,1,0-3.85h54a1.93,1.93,0,1,1,0,3.85"/><path class="cls-2" d="M315.25,69.45h19.29a1.93,1.93,0,1,0,0-3.85H315.25a1.93,1.93,0,1,0,0,3.85"/><path class="cls-3" d="M328.75,102.25v-1.93H317.18v5.79A1.92,1.92,0,0,0,319.1,108h13.51a3.86,3.86,0,1,0,7.72,0v-1.93a1.93,1.93,0,0,0-1.93-1.93h-7.72a1.93,1.93,0,0,1-1.93-1.93"/><path class="cls-3" d="M114.9,20.08l9-2a1.69,1.69,0,0,0,1.29-2l-.77-3.53a1.69,1.69,0,0,0-2-1.3L109.87,14a1.71,1.71,0,0,0-1.3,2,5.32,5.32,0,0,0,6.33,4.06"/><path class="cls-3" d="M81.82,98.15A2.86,2.86,0,1,1,79,95.3a2.86,2.86,0,0,1,2.85,2.85"/><path class="cls-3" d="M151.26,81a15.44,15.44,0,1,0,15.43,15.43A15.43,15.43,0,0,0,151.26,81m0,22a6.62,6.62,0,1,1,6.61-6.62,6.62,6.62,0,0,1-6.61,6.62"/><path class="cls-3" d="M186,81a15.44,15.44,0,1,0,15.44,15.43A15.43,15.43,0,0,0,186,81m0,22a6.62,6.62,0,1,1,6.62-6.62,6.61,6.61,0,0,1-6.62,6.62"/><path class="cls-2" d="M159,96.46a7.72,7.72,0,1,0-7.71,7.72A7.71,7.71,0,0,0,159,96.46"/><path class="cls-2" d="M193.7,96.46a7.72,7.72,0,1,0-7.72,7.72,7.71,7.71,0,0,0,7.72-7.72"/><rect class="cls-1" x="149.33" y="94.53" width="3.86" height="3.86" transform="translate(15.14 213.32) rotate(-73.17)"/><rect class="cls-1" x="184.06" y="94.53" width="3.86" height="3.86"/></g></g></svg>