<svg width="90" height="95" viewBox="0 0 90 95" fill="none" xmlns="http://www.w3.org/2000/svg">
<rect x="5" y="14" width="80" height="76" rx="14" fill="white" stroke="#0600FF" stroke-width="10"/>
<path d="M25.264 5.31915C26.293 5.31915 27.7542 6.8617 28.6494 9.57447H34C32.7241 4 29.2976 0 25.264 0C20.1192 0 16.0033 6.38298 16.0033 14.3617C15.9324 18.1541 17.0118 21.8742 19.0902 25L22.7019 20.9787C21.665 18.9368 21.1447 16.6569 21.1893 14.3511C21.1893 8.7447 23.8544 5.30853 25.3052 5.30853" fill="#0600FF"/>
<path d="M44.264 5.31915C45.2416 5.31915 46.7542 6.8617 47.6494 9.57447H53C51.7241 4 48.2976 0 44.264 0C39.1192 0 35.0033 6.38298 35.0033 14.3617C34.9324 18.1541 36.0118 21.8742 38.0902 25L41.7019 20.9787C40.665 18.9368 40.1447 16.6569 40.1893 14.3511C40.1893 8.7447 42.8544 5.30853 44.3052 5.30853" fill="#0600FF"/>
<path d="M63.5 35C67.6421 35 71 31.6421 71 27.5C71 23.3579 67.6421 20 63.5 20C59.3579 20 56 23.3579 56 27.5C56 31.6421 59.3579 35 63.5 35Z" fill="#0600FF"/>
<path d="M43.5 35C47.6421 35 51 31.6421 51 27.5C51 23.3579 47.6421 20 43.5 20C39.3579 20 36 23.3579 36 27.5C36 31.6421 39.3579 35 43.5 35Z" fill="#0600FF"/>
<path d="M23.5 35C27.6421 35 31 31.6421 31 27.5C31 23.3579 27.6421 20 23.5 20C19.3579 20 16 23.3579 16 27.5C16 31.6421 19.3579 35 23.5 35Z" fill="#0600FF"/>
<path d="M63.264 5.31915C64.2416 5.31915 65.7542 6.8617 66.6494 9.57447H72C70.7241 4 67.2976 0 63.264 0C58.1192 0 54.0033 6.38298 54.0033 14.3617C53.9324 18.1541 55.0118 21.8742 57.0902 25L60.7019 20.9787C59.665 18.9368 59.1447 16.6569 59.1893 14.3511C59.1893 8.7447 61.8544 5.30853 63.3052 5.30853" fill="#0600FF"/>
</svg>
