<svg xmlns="http://www.w3.org/2000/svg" viewBox="0 0 135.86 126.93"><defs><style>.cls-1{fill:#0600ff;}.cls-2{fill:#efca9a;}.cls-3{fill:#ffe3bb;}.cls-4{fill:#fff;}.cls-5{fill:#d8b182;}.cls-6{fill:#af895f;}.cls-7{fill:#ffc729;}.cls-8{fill:#e66e78;}.cls-9{fill:#a7a7a8;}</style></defs><title>Fichier 7</title><g id="Calque_2" data-name="Calque 2"><g id="Calque_1-2" data-name="Calque 1"><path class="cls-1" d="M14.68,29.76l.21,12.31a6.84,6.84,0,0,0,8.48,6.45l23.46-5.83A6.83,6.83,0,0,0,52,36.06V29.28a18.67,18.67,0,1,0-37.34.48"/><path class="cls-2" d="M57.52,54.32l23.77,48.09a9,9,0,0,1-16.15,8L41.37,62.31a9,9,0,1,1,16.15-8"/><path class="cls-3" d="M69.31,98.36,117.4,74.58a9,9,0,0,1,8,16.16L77.3,114.51a9,9,0,0,1-8-16.15"/><path class="cls-4" d="M75.33,76.72,48.27,90.09a4.42,4.42,0,0,1-6.29-3L36.87,63.24a13.83,13.83,0,0,1,24-11.89L76.73,69.88a4.43,4.43,0,0,1-1.4,6.84"/><path class="cls-1" d="M75.33,76.72,48.27,90.09a4.42,4.42,0,0,1-6.29-3L36.87,63.24a13.83,13.83,0,0,1,24-11.89L76.73,69.88a4.43,4.43,0,0,1-1.4,6.84"/><path class="cls-4" d="M18.13,126.79H55.05a5.2,5.2,0,0,0,5.2-5.2V71.83A23.31,23.31,0,0,0,36.94,48.52h-11a13,13,0,0,0-13,13v60.06a5.2,5.2,0,0,0,5.21,5.2"/><path class="cls-2" d="M39.24,40.88V51c0,1.25-2.27,2.27-5.06,2.27s-5.05-1-5.05-2.27V40.88Z"/><path class="cls-3" d="M19.38,28.93a22.35,22.35,0,0,0,4.77,10.22c.21.26.43.52.65.77,3.49,4,8.18,6.61,12.86,5.89s8.57-4.92,10.65-9.93A22.31,22.31,0,0,0,50,24.2a15.43,15.43,0,0,0-2.66-6.57,8.16,8.16,0,0,0-.5-.66,15.48,15.48,0,0,0-27.44,12"/><path class="cls-1" d="M41.37,35.75l-.5,0a.25.25,0,0,1-.24-.26.24.24,0,0,1,.26-.24c1.6.09,2.78-.28,3.24-1a1.32,1.32,0,0,0,0-1.37,2.47,2.47,0,0,0-2.22-1.13,1.64,1.64,0,0,1-1.35-.63c-.89-1.17-.28-3.54-.26-3.64a.25.25,0,0,1,.31-.18.26.26,0,0,1,.18.31s-.57,2.23.17,3.2a1.14,1.14,0,0,0,1,.44,3,3,0,0,1,2.66,1.39,1.84,1.84,0,0,1,0,1.88c-.31.48-1.12,1.26-3.18,1.26"/><path class="cls-1" d="M35.21,28.56c0,1.65-.84,3-1.87,3s-1.87-1.34-1.87-3,.84-3,1.87-3,1.87,1.34,1.87,3"/><path class="cls-1" d="M31.57,33.61c0,.42-.21.76-.48.76s-.48-.34-.48-.76.22-.76.48-.76.48.34.48.76"/><path class="cls-1" d="M30.08,35.9c0,.42-.21.76-.47.76s-.48-.34-.48-.76.21-.76.48-.76.47.34.47.76"/><path class="cls-1" d="M33.28,35.33c0,.42-.21.76-.47.76s-.48-.34-.48-.76.21-.76.48-.76.47.34.47.76"/><path class="cls-1" d="M47.45,31.68c0,.32-.16.58-.36.58s-.37-.26-.37-.58.16-.59.37-.59.36.26.36.59"/><path class="cls-1" d="M46.31,33.44c0,.32-.17.58-.37.58s-.37-.26-.37-.58.17-.59.37-.59.37.26.37.59"/><path class="cls-1" d="M48.77,33c0,.32-.16.58-.36.58S48,33.32,48,33s.16-.59.37-.59.36.26.36.59"/><path class="cls-1" d="M46.82,27.88c0,1.5-.83,2.72-1.87,2.72s-1.86-1.22-1.86-2.72.83-2.72,1.86-2.72,1.87,1.22,1.87,2.72"/><path class="cls-1" d="M46.55,24.15a.24.24,0,0,1-.23-.14,1,1,0,0,0-.54-.5.92.92,0,0,0-.71,0,.26.26,0,0,1-.34-.12.24.24,0,0,1,.12-.33A1.4,1.4,0,0,1,46,23a1.47,1.47,0,0,1,.82.75.24.24,0,0,1-.12.33.19.19,0,0,1-.1,0"/><path class="cls-1" d="M30.87,25.72a.19.19,0,0,1-.1,0,.24.24,0,0,1-.12-.33,2.33,2.33,0,0,1,3-1.32.25.25,0,1,1-.22.45,1.84,1.84,0,0,0-2.33,1.08.25.25,0,0,1-.23.15"/><path class="cls-3" d="M123.36,90.92a9,9,0,0,1-6.94-15.47h0l5.1-6a2.14,2.14,0,0,1,3-.24,2.09,2.09,0,0,1,.73,1.45,2.12,2.12,0,0,1-.49,1.56l-.71.83a8.41,8.41,0,0,1,2.54.82l6-3.87a2.13,2.13,0,0,1,2.95.62,2.06,2.06,0,0,1,.34,1,2.1,2.1,0,0,1-1,2L130,76.75a9,9,0,0,1-6.63,14.17"/><path class="cls-1" d="M132.65,61.68l-.7-.17.13-.51a.85.85,0,0,0-.62-1l-.13,0,.58-2.36a.55.55,0,1,0-1.06-.26l-.58,2.36-.13,0a.84.84,0,0,0-1,.62l-6.56,26.78a1.51,1.51,0,0,0,.68,1.65l-.25,1.4a.38.38,0,0,0,.73.18l.43-1.36a1.51,1.51,0,0,0,1.37-1.15l6.26-25.58.35.09-2.2,9a.36.36,0,0,0,.26.44.35.35,0,0,0,.43-.26l2.3-9.36a.36.36,0,0,0-.27-.43"/><path class="cls-2" d="M131.09,81.16l-7.91-1.7a2.13,2.13,0,1,1,.89-4.17L132,77a2.13,2.13,0,0,1-.89,4.17"/><path class="cls-5" d="M130.62,84.71l-6.76-1.45a2.13,2.13,0,1,1,.89-4.17l6.77,1.45a2.13,2.13,0,1,1-.9,4.17"/><path class="cls-6" d="M128.9,87.77,125.27,87a2.13,2.13,0,1,1,.9-4.17l3.62.78a2.13,2.13,0,0,1-.89,4.17"/><path class="cls-1" d="M35.66.92C38.55-.17,47.42-.82,48.51,2.08s-6,8.23-8.92,9.32A5.6,5.6,0,0,1,35.66.92"/><path class="cls-1" d="M48.1,5.48c2.93,2.79,8.76,12.87,6,15.8S40.93,18.88,38,16.09A7.32,7.32,0,0,1,48.1,5.48"/><path class="cls-1" d="M34.13,19.86C30,22.66,16.45,27.09,13.65,23S19.88,7.83,24,5A9,9,0,0,1,34.13,19.86"/><path class="cls-7" d="M40.43,48.78v-.36a2.07,2.07,0,0,0-2.07-2.07h-8.9a2.08,2.08,0,0,0-2.08,2.07v.9A20,20,0,0,0,12.92,68.54v53.05a5.2,5.2,0,0,0,5.21,5.2H55.05a5.2,5.2,0,0,0,5.2-5.2V71.83a23.32,23.32,0,0,0-19.82-23"/><path class="cls-8" d="M60.22,71.83v49.76a5,5,0,0,1-.3,1.73,5.2,5.2,0,0,1-4.9,3.47H18.09a5.07,5.07,0,0,1-2.06-.43,3.78,3.78,0,0,1-.63-.33,5.17,5.17,0,0,1-2.51-4.44v-53a2.44,2.44,0,0,1,0-.27,19.37,19.37,0,0,1,1.28-6.79c.07-.21.16-.42.25-.63a16,16,0,0,1,1-2A11.37,11.37,0,0,1,16,57.79a19.68,19.68,0,0,1,3.07-3.73c.23-.22.46-.43.7-.63a20.27,20.27,0,0,1,3-2.17c.2-.12.41-.24.63-.35a19.58,19.58,0,0,1,3.9-1.59v-.9a2.07,2.07,0,0,1,2.07-2.07h8.9a2.14,2.14,0,0,1,1.07.29,2.07,2.07,0,0,1,1,1.78v.36A22.72,22.72,0,0,1,45.07,50l.64.25a22.83,22.83,0,0,1,5.5,3.19c.27.2.54.41.79.63l.5.44.63.59a23.61,23.61,0,0,1,4.35,5.76c.11.21.22.42.32.63a23.41,23.41,0,0,1,2.42,10.35"/><path class="cls-1" d="M21.39,32.16a6.73,6.73,0,0,0,2.32,4.19,2.43,2.43,0,0,1,1,1.95v7.63l-5.91-8L18,18.77l6.73,4.92V26c0,.25-.33.22-.33.22h0a2,2,0,0,0-.64,0c-1.85.34-2.92,3-2.38,6"/><path class="cls-4" d="M22.82,120.2H16v-6.78h6.79Zm0-7.42H16V106h6.79Zm0-7.42H16V98.58h6.79Zm0-7.42H16V91.16h6.79Zm0-7.42H16V83.74h6.79Zm0-7.42H16V76.32h6.79Zm0-7.41H16V68.9h6.79Zm0-7.42H16V61.48h6.79Zm7.42,51.93H23.45v-6.78h6.79Zm0-7.42H23.45V106h6.79Zm0-7.42H23.45V98.58h6.79Zm0-7.42H23.45V91.16h6.79Zm0-7.42H23.45V83.74h6.79Zm0-7.42H23.45V76.32h6.79Zm0-7.41H23.45V68.9h6.79Zm0-7.42H23.45V61.48h6.79Zm0-7.42H23.45V54.06h6.79Zm7.41,59.35H30.87v-6.78h6.78Zm0-7.42H30.87V106h6.78Zm0-7.42H30.87V98.58h6.78Zm0-7.42H30.87V91.16h6.78Zm0-7.42H30.87V83.74h6.78Zm0-7.42H30.87V76.32h6.78Zm0-7.41H30.87V68.9h6.78Zm0-7.42H30.87V61.48h6.78Zm0-7.42H30.87V54.06h6.78Zm0-7.42H30.87V46.64h6.78Zm7.42,66.77H38.29v-6.78h6.78Zm0-7.42H38.29V106h6.78Zm0-7.42H38.29V98.58h6.78Zm0-7.42H38.29V91.16h6.78Zm0-7.42H38.29V83.74h6.78Zm0-7.42H38.29V76.32h6.78Zm0-7.41H38.29V68.9h6.78Zm0-7.42H38.29V61.48h6.78Zm0-7.42H38.29V54.06h6.78Zm7.42,59.35H45.71v-6.78h6.78Zm0-7.42H45.71V106h6.78Zm0-9.08v1.66H45.71V98.58H52.5Zm0-5.76H45.71V91.16H52.5Zm0-7.42H45.71V83.74H52.5Zm0-7.42H45.71V76.32H52.5Zm0-7.41H45.71V68.9H52.5Zm0-7.42H45.71V61.48H52.5Zm7.42,51.93H53.13v-6.78h6.79Zm0-7.42H53.13V106h6.79Zm0-7.42H53.13V98.58h6.79Zm0-7.42H53.13V91.16h6.79Zm0-7.42H53.13V83.74h6.79Zm0-7.42H53.13V76.32h6.79Zm0-7.41H53.13V68.9h6.79Zm0-7.58v.16H53.13V61.48H57.8c-.1-.21-.21-.42-.32-.63H53.13V55.09l-.63-.59v6.35H45.71V54.06H52q-.37-.33-.78-.63h-5.5V50.24L45.07,50v3.44H38.29V46.64h1.1a2.14,2.14,0,0,0-1.07-.29h-8.9a2.1,2.1,0,0,0-1.06.29h1.88v6.79H23.45V50.91c-.22.11-.43.23-.63.35v2.17h-3c-.24.2-.47.41-.7.63h3.72v6.79H16V57.79a11.37,11.37,0,0,0-.63,1.06v2h-1c-.09.21-.18.42-.25.63H15.4v6.79H12.9a2.44,2.44,0,0,0,0,.27v.36H15.4v6.79H12.89v.63H15.4V83.1H12.89v.64H15.4v6.78H12.89v.64H15.4v6.78H12.89v.64H15.4v6.78H12.89V106H15.4v6.78H12.89v.64H15.4v6.78H12.89v.63H15.4V126a3.78,3.78,0,0,0,.63.33v-5.53h6.79v6h.63v-6h6.79v6h.63v-6h6.78v6h.64v-6h6.78v6h.64v-6h6.78v6h.64v-6h6.79v2.49a5,5,0,0,0,.3-1.73V71.83a22.78,22.78,0,0,0-.3-3.72"/><path class="cls-3" d="M7.9,65.54l5.7,53.34A9,9,0,0,0,31.52,117l-5.7-53.34A9,9,0,0,0,7.9,65.54"/><path class="cls-3" d="M27.2,125.67,73.38,98.39a9,9,0,1,0-9.16-15.51L18,110.16a9,9,0,1,0,9.16,15.51"/><path class="cls-1" d="M4.89,93.92l30-3.21a4.43,4.43,0,0,0,3.68-5.93L30.14,61.93A13.83,13.83,0,0,0,3.47,64.78L0,88.9a4.42,4.42,0,0,0,4.85,5"/><path class="cls-1" d="M40.1,41.13c-1.48,0-2.22-.58-2.38-1.88a1.34,1.34,0,0,1,1.06-1.49l2.55-.52A1.34,1.34,0,0,1,42.85,39a2.72,2.72,0,0,1-2.75,2.1m1.51-3.42a.55.55,0,0,0-.18,0l-2.55.52a.84.84,0,0,0-.67.94c.14,1,.67,1.44,1.89,1.44s1.79-.5,2.28-1.78a.8.8,0,0,0-.14-.84.8.8,0,0,0-.63-.3m-2.78.3Z"/><path class="cls-1" d="M42.62,38.94a4.28,4.28,0,0,1-.19.43,3.59,3.59,0,0,0-1.7-.4,2.7,2.7,0,0,0-2.47,1.14,2.08,2.08,0,0,1-.3-.89A1.09,1.09,0,0,1,38.82,38l2.56-.53a1.09,1.09,0,0,1,1.24,1.46"/><path class="cls-4" d="M42.43,39.37a2.34,2.34,0,0,1-2.33,1.51c-1,0-1.54-.24-1.84-.77A2.7,2.7,0,0,1,40.73,39a3.59,3.59,0,0,1,1.7.4"/><path class="cls-1" d="M40.1,41.13c-1.48,0-2.22-.58-2.38-1.88a1.34,1.34,0,0,1,1.06-1.49l2.55-.52A1.34,1.34,0,0,1,42.85,39a2.72,2.72,0,0,1-2.75,2.1m1.51-3.42a.55.55,0,0,0-.18,0l-2.55.52a.84.84,0,0,0-.67.94c.14,1,.67,1.44,1.89,1.44s1.79-.5,2.28-1.78a.8.8,0,0,0-.14-.84.8.8,0,0,0-.63-.3m-2.78.3Z"/><path class="cls-1" d="M40.78,41.06a.24.24,0,0,1-.22-.14L40.1,40a.25.25,0,0,1,.45-.23l.45.88a.24.24,0,0,1-.1.34l-.12,0"/><path class="cls-4" d="M82.94,62.7a1.81,1.81,0,0,0-1,0l-.24.09-.22.09L71.37,67.81a1,1,0,0,0-.18.1,1.77,1.77,0,0,0-.46.4,2.48,2.48,0,0,0-.19.26,1.87,1.87,0,0,0-.28,1V90a1.92,1.92,0,0,0,1.22,1.82l-1.8-.71-.09,0a1.94,1.94,0,0,1-1.3-1.84V68.79A2,2,0,0,1,69.39,67l10.14-4.92A2,2,0,0,1,81.05,62h0Z"/><path class="cls-1" d="M71.48,92.07l-.09,0-1.89-.74A2.22,2.22,0,0,1,68,89.23V68.79a2.2,2.2,0,0,1,1.24-2l10.14-4.91a2.17,2.17,0,0,1,1.71-.09l1.89.66a.25.25,0,0,1,.15.32.24.24,0,0,1-.31.16A1.56,1.56,0,0,0,82,63l-.22.08-.19.08-10.2,5-.08,0a1.46,1.46,0,0,0-.42.36,1.19,1.19,0,0,0-.16.23,1.6,1.6,0,0,0-.25.86V90a1.68,1.68,0,0,0,1.07,1.58.27.27,0,0,1,.14.33.26.26,0,0,1-.24.16m8.9-29.9a1.61,1.61,0,0,0-.74.17L69.5,67.25a1.69,1.69,0,0,0-1,1.54V89.23a1.71,1.71,0,0,0,1.13,1.61l.62.24A2.26,2.26,0,0,1,70,90V69.56a2.09,2.09,0,0,1,.32-1.12,3,3,0,0,1,.2-.29,2.28,2.28,0,0,1,.53-.46.6.6,0,0,1,.14-.07s.06,0,.06,0L81.4,62.67l.24-.11.08,0L81,62.27a1.9,1.9,0,0,0-.61-.1"/><path class="cls-9" d="M76.09,90.33l-3,1.44a2,2,0,0,1-1.56.07l0,0A1.92,1.92,0,0,1,70.26,90V69.56a1.87,1.87,0,0,1,.28-1,2,2,0,0,0-.13,1.5l5.24,18.72L76,90Z"/><path class="cls-1" d="M72.23,92.22a2.17,2.17,0,0,1-.79-.15,2.37,2.37,0,0,1-1-.77A2.25,2.25,0,0,1,70,90V69.56a2.09,2.09,0,0,1,.32-1.12.25.25,0,0,1,.43.25A1.77,1.77,0,0,0,70.65,70l5.68,20.25a.25.25,0,0,1-.13.3l-3,1.44a2.15,2.15,0,0,1-1,.23M70.51,71.38V90a1.68,1.68,0,0,0,1.07,1.58,1.67,1.67,0,0,0,1.4,0l2.81-1.35,0-.11Z"/><path class="cls-6" d="M72.13,93l6.17-6.15a2.42,2.42,0,0,1,3.42,0,1.87,1.87,0,0,1,.29.34,2.43,2.43,0,0,1-.3,3.07l-6.17,6.15a2.54,2.54,0,0,1-.67.47,2.47,2.47,0,0,1-.52.18,2.41,2.41,0,0,1-2.46-3.79,2.09,2.09,0,0,1,.24-.28"/><path class="cls-5" d="M71.6,88.55l6.17-6.15a2.42,2.42,0,0,1,3.42,0,1.93,1.93,0,0,1,.29.35,2.42,2.42,0,0,1-.3,3.07L75,92a2.28,2.28,0,0,1-.66.47,2.07,2.07,0,0,1-.53.18,2.42,2.42,0,0,1-2.93-2.36,2.42,2.42,0,0,1,.47-1.43,3,3,0,0,1,.24-.28"/><path class="cls-2" d="M79.35,78a2.16,2.16,0,0,1,.4.4,2.4,2.4,0,0,1,0,3l-.53.71-.09.11-3.32,4.35-.39.52-1,1.25a2.4,2.4,0,0,1-3.38.45,2.24,2.24,0,0,1-.49-.48,2.45,2.45,0,0,1,0-2.9L71,85l0-.06L76,78.44A2.43,2.43,0,0,1,79.35,78"/><path class="cls-3" d="M75.31,76.31a1.91,1.91,0,0,1,.41.39,2.4,2.4,0,0,1,0,3l-.54.71-.09.11-3.31,4.36-.4.51-1,1.25a2.41,2.41,0,0,1-3.39.45,2.18,2.18,0,0,1-.48-.48,2.42,2.42,0,0,1,0-2.9l.31-.4,0-.06,4.92-6.48a2.43,2.43,0,0,1,3.39-.45"/><path class="cls-3" d="M65,78.59a1.82,1.82,0,0,1,.54.19,2.39,2.39,0,0,1,1.33,2.67l-.18.87,0,.14-1.13,5.36-.13.63L65.07,90a2.41,2.41,0,0,1-2.87,1.86,2,2,0,0,1-.64-.23A2.4,2.4,0,0,1,60.35,89l.1-.49,0-.07,1.67-8A2.42,2.42,0,0,1,65,78.59"/><path class="cls-3" d="M75.54,84a8.93,8.93,0,1,1-12.63,0,8.94,8.94,0,0,1,12.63,0"/><path class="cls-8" d="M90,85.09a2,2,0,0,1-1.1,1.76L78.8,91.77c-1.2.58-2.18-.18-2.7-1.4L76,90l-.34-1.21L70.41,70.07a2,2,0,0,1,.13-1.5,2.48,2.48,0,0,1,.19-.26,1.77,1.77,0,0,1,.46-.4,1,1,0,0,1,.18-.1L81.5,62.89l.22-.09.24-.09a1.81,1.81,0,0,1,1,0l.06,0a1.47,1.47,0,0,1,.67.47h0a3.21,3.21,0,0,1,.63,1.44Z"/><path class="cls-1" d="M78,92.22a1.68,1.68,0,0,1-.63-.12,2.83,2.83,0,0,1-1.5-1.63l-.12-.39L70.16,70.14a2.33,2.33,0,0,1,.16-1.69q.11-.17.21-.3a2.28,2.28,0,0,1,.53-.46.6.6,0,0,1,.14-.07s.06,0,.06,0L81.4,62.67l.24-.11.24-.08a2,2,0,0,1,1.13,0l.09,0a1.74,1.74,0,0,1,.74.51l0,0a3.61,3.61,0,0,1,.7,1.57L90.28,85a.15.15,0,0,1,0,.07,2.2,2.2,0,0,1-1.25,2L78.91,92a2,2,0,0,1-.91.23m4.5-29.33A2,2,0,0,0,82,63l-.22.08-.19.08-10.2,5-.08,0a1.46,1.46,0,0,0-.42.36,1.19,1.19,0,0,0-.16.23,1.74,1.74,0,0,0-.11,1.3l5.69,20.29a2.34,2.34,0,0,0,1.2,1.34,1.4,1.4,0,0,0,1.16-.09l10.13-4.91a1.71,1.71,0,0,0,1-1.51l-5.71-20.4a3.11,3.11,0,0,0-.56-1.32s0,0,0,0a1.48,1.48,0,0,0-.58-.41l-.08,0a1.22,1.22,0,0,0-.34,0"/><path class="cls-1" d="M83,63l-.09,0-.07,0a.25.25,0,1,1,.19-.46l.07,0A.25.25,0,0,1,83,63"/><path class="cls-1" d="M81.05,62.28H81l-.12,0a.25.25,0,0,1-.16-.32.25.25,0,0,1,.31-.16l.13,0a.25.25,0,0,1,.15.32.23.23,0,0,1-.23.17"/><path class="cls-1" d="M71.36,70.2c-.33,0-.57-.37-.57-.87s.24-.87.57-.87.56.36.56.87-.23.87-.56.87m0-1.2a.81.81,0,0,0,0,.66.94.94,0,0,0,0-.66"/><path class="cls-1" d="M73,69.45c-.32,0-.56-.36-.56-.87s.24-.87.56-.87.57.37.57.87-.24.87-.57.87M73,69h0Zm0-.71a.94.94,0,0,0,0,.66.81.81,0,0,0,0-.66"/><path class="cls-1" d="M74.63,68.71c-.33,0-.57-.37-.57-.87s.24-.88.57-.88.57.37.57.88-.24.87-.57.87m0-1.2a.74.74,0,0,0-.07.33.81.81,0,0,0,.07.33.81.81,0,0,0,.07-.33.74.74,0,0,0-.07-.33"/><path class="cls-1" d="M76.27,68c-.33,0-.57-.37-.57-.87s.24-.87.57-.87.57.37.57.87-.24.87-.57.87m0-.49h0Zm0-.71a.81.81,0,0,0,0,.66.81.81,0,0,0,0-.66"/><path class="cls-1" d="M77.91,67.09c-.33,0-.57-.37-.57-.87s.24-.87.57-.87.56.37.56.87-.23.87-.56.87m0-1.2a.81.81,0,0,0,0,.66.94.94,0,0,0,0-.66"/><path class="cls-1" d="M79.54,66.34c-.33,0-.56-.36-.56-.87s.23-.87.56-.87.57.37.57.87-.24.87-.57.87m0-.49h0Zm0-.71a.84.84,0,0,0-.06.33.77.77,0,0,0,.06.33.62.62,0,0,0,.07-.33.65.65,0,0,0-.07-.33"/><path class="cls-1" d="M81.18,65.58c-.33,0-.57-.36-.57-.87s.24-.87.57-.87.57.37.57.87-.24.87-.57.87m0-.49Zm0-.71a.77.77,0,0,0-.07.33.74.74,0,0,0,.07.33.74.74,0,0,0,.07-.33.77.77,0,0,0-.07-.33"/><path class="cls-1" d="M82.82,64.83c-.33,0-.57-.37-.57-.88s.24-.87.57-.87.57.37.57.87-.24.88-.57.88m0-.5h0Zm0-.7a.72.72,0,0,0-.07.32.74.74,0,0,0,.07.33.74.74,0,0,0,.07-.33.72.72,0,0,0-.07-.32"/><path class="cls-1" d="M71.25,70.05l-.1,0a.37.37,0,0,1-.26-.46,3.1,3.1,0,0,0,.09-1c0-1.55-.56-2.5-1-2.5s-.68.48-.84,1.24a.38.38,0,0,1-.44.29.38.38,0,0,1-.29-.45c.24-1.15.83-1.83,1.57-1.83,1,0,1.7,1.37,1.7,3.19a3.92,3.92,0,0,1-.12,1.22.36.36,0,0,1-.36.28"/><path class="cls-1" d="M72.87,69.33h-.1a.38.38,0,0,1-.27-.46,4.37,4.37,0,0,0,.14-1.21c0-1.49-.56-2.44-1-2.44s-.65.47-.81,1.23a.36.36,0,0,1-.44.28.38.38,0,0,1-.29-.44c.25-1.16.81-1.82,1.54-1.82,1,0,1.7,1.37,1.7,3.19a5,5,0,0,1-.16,1.4.38.38,0,0,1-.36.28"/><path class="cls-1" d="M74.51,68.54h-.1a.37.37,0,0,1-.26-.46,4.33,4.33,0,0,0,.14-1.21c0-1.49-.56-2.44-1-2.44s-.72.83-.8,1.19a.38.38,0,0,1-.74-.16c.34-1.55,1.11-1.78,1.54-1.78,1,0,1.7,1.37,1.7,3.19a5,5,0,0,1-.17,1.41.37.37,0,0,1-.36.27"/><path class="cls-1" d="M76.14,67.77H76a.38.38,0,0,1-.26-.46,4.28,4.28,0,0,0,.14-1.21c0-1.49-.56-2.44-1-2.44s-.75.7-.84,1.12a.37.37,0,0,1-.45.28.36.36,0,0,1-.28-.44c.32-1.54,1.21-1.71,1.57-1.71,1,0,1.7,1.37,1.7,3.19a4.88,4.88,0,0,1-.17,1.4.36.36,0,0,1-.36.28"/><path class="cls-1" d="M77.8,66.87h-.09a.38.38,0,0,1-.27-.46,4.28,4.28,0,0,0,.14-1.21c0-1.49-.56-2.44-1-2.44s-.65.47-.81,1.23a.37.37,0,0,1-.45.29.38.38,0,0,1-.29-.44c.25-1.16.82-1.83,1.55-1.83,1,0,1.7,1.37,1.7,3.19a5.29,5.29,0,0,1-.16,1.4.38.38,0,0,1-.37.28"/><path class="cls-1" d="M79.45,66.08h-.1a.37.37,0,0,1-.26-.46,4.28,4.28,0,0,0,.14-1.21c0-1.49-.57-2.44-1-2.44s-.65.47-.81,1.22a.38.38,0,0,1-.45.29.39.39,0,0,1-.29-.45c.25-1.15.81-1.81,1.55-1.81,1,0,1.7,1.37,1.7,3.19a5,5,0,0,1-.17,1.41.37.37,0,0,1-.36.27"/><path class="cls-1" d="M81,65.39h-.1a.37.37,0,0,1-.26-.46,4.28,4.28,0,0,0,.14-1.21c0-1.49-.57-2.44-1-2.44s-.67.44-.82,1.18a.38.38,0,0,1-.45.29.38.38,0,0,1-.29-.44c.34-1.61,1.2-1.78,1.56-1.78,1,0,1.7,1.37,1.7,3.19a4.88,4.88,0,0,1-.17,1.4.36.36,0,0,1-.36.28"/><path class="cls-1" d="M82.67,64.68h-.1a.37.37,0,0,1-.26-.46A4.82,4.82,0,0,0,82.44,63c0-1.49-.56-2.44-1-2.44s-.65.47-.84,1.35a.37.37,0,0,1-.44.29.38.38,0,0,1-.29-.44c.26-1.21.86-1.95,1.57-1.95,1,0,1.7,1.37,1.7,3.19A5,5,0,0,1,83,64.4a.38.38,0,0,1-.36.28"/></g></g></svg>