<svg width="521" height="553" viewBox="0 0 521 553" fill="none" xmlns="http://www.w3.org/2000/svg">
<path d="M110.388 129.712L111.334 183.316C111.453 187.771 112.595 192.143 114.675 196.11C116.756 200.077 119.721 203.538 123.354 206.237C126.986 208.936 131.193 210.805 135.664 211.706C140.134 212.607 144.755 212.517 149.186 211.443L253.928 186.027C260.537 184.423 266.406 180.707 270.601 175.47C274.795 170.233 277.074 163.776 277.075 157.128V127.594C277.075 115.136 274.146 102.845 268.513 91.6668C262.88 80.4888 254.693 70.7227 244.583 63.121C234.474 55.5194 222.711 50.2852 210.202 47.8219C197.694 45.3585 184.773 45.7318 172.435 48.9129V48.9129C154.283 53.5916 138.281 64.1154 127.02 78.7798C115.759 93.4441 109.898 111.39 110.388 129.712V129.712Z" fill="#0600FF"/>
<path d="M291.427 227.05L460.404 392.683C464.146 396.333 467.114 400.669 469.137 405.44C471.161 410.212 472.2 415.327 472.195 420.491C472.191 425.656 471.143 430.769 469.112 435.538C467.08 440.306 464.105 444.637 460.357 448.281C456.608 451.926 452.16 454.812 447.267 456.776C442.374 458.74 437.133 459.742 431.843 459.725C426.552 459.708 421.317 458.673 416.438 456.678C411.558 454.683 407.129 451.768 403.405 448.1L234.429 282.467C230.686 278.816 227.719 274.481 225.695 269.709C223.672 264.937 222.632 259.823 222.637 254.658C222.641 249.494 223.689 244.381 225.72 239.612C227.752 234.843 230.727 230.513 234.476 226.869C238.224 223.224 242.672 220.337 247.565 218.374C252.458 216.41 257.699 215.408 262.99 215.424C268.28 215.441 273.515 216.477 278.394 218.472C283.274 220.466 287.703 223.381 291.427 227.05Z" fill="#EFCA9A"/>
<path d="M392.747 413.323L435.803 183.364C437.777 173.171 443.801 164.155 452.561 158.284C461.321 152.413 472.105 150.165 482.558 152.03C493.01 153.895 502.282 159.722 508.348 168.239C514.415 176.755 516.782 187.269 514.935 197.484L471.878 427.43C470.956 432.527 469.011 437.397 466.154 441.757C463.297 446.118 459.585 449.885 455.232 452.84C450.879 455.795 445.97 457.881 440.788 458.977C435.606 460.074 430.253 460.159 425.037 459.228C419.821 458.297 414.845 456.369 410.395 453.554C405.945 450.739 402.11 447.093 399.109 442.825C396.108 438.558 394.001 433.753 392.909 428.688C391.817 423.622 391.762 418.396 392.747 413.31V413.323Z" fill="#FFE3BB"/>
<path d="M398.638 294.839L303.15 387.667C301.022 389.736 298.438 391.303 295.595 392.25C292.752 393.197 289.725 393.498 286.745 393.13C283.765 392.762 280.911 391.736 278.399 390.128C275.886 388.52 273.783 386.374 272.249 383.853L216.729 292.56C209.711 281.023 206.838 267.53 208.562 254.219C210.287 240.907 216.512 228.538 226.251 219.07V219.07C235.989 209.601 248.684 203.574 262.327 201.944C275.97 200.314 289.78 203.174 301.57 210.07L394.87 264.647C397.448 266.155 399.638 268.218 401.275 270.679C402.911 273.139 403.951 275.932 404.314 278.844C404.678 281.756 404.355 284.711 403.372 287.483C402.388 290.255 400.769 292.771 398.638 294.839Z" fill="white"/>
<path d="M398.638 294.839L303.15 387.667C301.022 389.736 298.438 391.303 295.595 392.25C292.752 393.197 289.725 393.498 286.745 393.13C283.765 392.762 280.911 391.736 278.399 390.128C275.886 388.52 273.783 386.374 272.249 383.853L216.729 292.56C209.711 281.023 206.838 267.53 208.562 254.219C210.287 240.907 216.512 228.538 226.251 219.07V219.07C235.989 209.601 248.684 203.574 262.327 201.944C275.97 200.314 289.78 203.174 301.57 210.07L394.87 264.647C397.448 266.155 399.638 268.218 401.275 270.679C402.911 273.139 403.951 275.932 404.314 278.844C404.678 281.756 404.355 284.711 403.372 287.483C402.388 290.255 400.769 292.771 398.638 294.839Z" fill="#0600FF"/>
<path d="M290.626 552.559H125.774C119.617 552.559 113.713 550.171 109.359 545.921C105.006 541.672 102.56 535.907 102.56 529.897L102.56 268.168C102.56 253.131 108.679 238.709 119.571 228.076C130.463 217.443 145.235 211.469 160.639 211.469H209.78C237.379 211.469 263.847 222.172 283.363 241.223C302.878 260.274 313.843 286.113 313.844 313.056L313.844 529.893C313.844 535.903 311.398 541.667 307.045 545.917C302.691 550.167 296.787 552.555 290.63 552.555L290.626 552.559Z" fill="white"/>
<path d="M220.032 178.147V222.208C220.032 227.66 209.925 232.079 197.461 232.079C184.997 232.079 174.895 227.66 174.895 222.208V178.147H220.032Z" fill="#EFCA9A"/>
<path d="M131.376 126.099C134.458 142.478 141.789 157.813 152.67 170.639C153.608 171.772 154.59 172.905 155.572 173.994C171.152 191.252 192.089 202.801 212.981 199.663C234.454 196.438 251.239 178.222 260.524 156.388C267.643 140.381 270.218 122.798 267.979 105.485C266.351 95.1706 262.286 85.3677 256.105 76.8526C255.411 75.8576 254.666 74.8976 253.873 73.9763C244.412 62.2899 231.255 53.9892 216.454 50.3694C201.654 46.7495 186.042 48.014 172.055 53.9656C158.068 59.9172 146.492 70.2211 139.133 83.2698C131.775 96.3185 129.047 111.378 131.376 126.099Z" fill="#FFE3BB"/>
<path d="M229.54 155.782C228.826 155.782 228.08 155.76 227.308 155.716C227.013 155.701 226.736 155.571 226.538 155.356C226.341 155.141 226.239 154.859 226.254 154.57C226.253 154.424 226.284 154.28 226.345 154.146C226.405 154.013 226.494 153.893 226.606 153.796C226.717 153.699 226.849 153.626 226.991 153.582C227.134 153.538 227.284 153.524 227.433 153.542C234.575 153.947 239.803 152.321 241.874 149.127C242.446 148.236 242.756 147.208 242.77 146.157C242.784 145.106 242.502 144.071 241.955 143.165C240.901 141.556 239.428 140.25 237.686 139.381C235.944 138.512 233.997 138.111 232.044 138.219C230.89 138.26 229.741 138.032 228.694 137.555C227.647 137.077 226.731 136.364 226.022 135.473C222.067 130.409 224.763 120.063 224.884 119.627C224.919 119.49 224.981 119.36 225.067 119.247C225.154 119.133 225.262 119.037 225.387 118.965C225.511 118.892 225.649 118.844 225.793 118.824C225.936 118.804 226.083 118.812 226.223 118.847C226.51 118.92 226.755 119.101 226.906 119.35C227.057 119.599 227.1 119.896 227.027 120.176C227 120.272 224.482 129.934 227.786 134.153C228.29 134.778 228.94 135.277 229.683 135.605C230.426 135.934 231.239 136.083 232.053 136.04C234.403 135.946 236.737 136.461 238.817 137.533C240.897 138.605 242.649 140.194 243.897 142.141C244.638 143.386 245.015 144.805 244.989 146.245C244.962 147.685 244.532 149.09 243.745 150.308C242.379 152.435 238.745 155.782 229.54 155.782Z" fill="#0600FF"/>
<path d="M202.068 124.486C202.068 131.673 198.318 137.491 193.715 137.491C189.113 137.491 185.367 131.673 185.367 124.486C185.367 117.3 189.117 111.482 193.715 111.482C198.313 111.482 202.068 117.3 202.068 124.486Z" fill="#0600FF"/>
<path d="M185.794 146.486C185.794 148.321 184.835 149.807 183.661 149.807C182.487 149.807 181.531 148.321 181.531 146.486C181.531 144.651 182.487 143.165 183.661 143.165C184.835 143.165 185.794 144.651 185.794 146.486Z" fill="#0600FF"/>
<path d="M179.162 156.449C179.162 158.283 178.202 159.769 177.028 159.769C175.854 159.769 174.895 158.283 174.895 156.449C174.895 154.614 175.854 153.128 177.028 153.128C178.202 153.128 179.162 154.614 179.162 156.449Z" fill="#0600FF"/>
<path d="M193.451 153.96C193.451 155.795 192.492 157.277 191.317 157.277C190.143 157.277 189.184 155.795 189.184 153.96C189.184 152.125 190.143 150.639 191.317 150.639C192.492 150.639 193.451 152.125 193.451 153.96Z" fill="#0600FF"/>
<path d="M256.704 138.053C256.704 139.465 255.967 140.607 255.061 140.607C254.155 140.607 253.418 139.465 253.418 138.053C253.418 136.641 254.159 135.495 255.061 135.495C255.963 135.495 256.704 136.632 256.704 138.053Z" fill="#0600FF"/>
<path d="M251.594 145.723C251.594 147.135 250.857 148.277 249.955 148.277C249.054 148.277 248.312 147.135 248.312 145.723C248.312 144.311 249.049 143.165 249.955 143.165C250.862 143.165 251.594 144.307 251.594 145.723Z" fill="#0600FF"/>
<path d="M262.602 143.801C262.602 145.218 261.866 146.36 260.959 146.36C260.053 146.36 259.316 145.218 259.316 143.801C259.316 142.385 260.053 141.248 260.959 141.248C261.866 141.248 262.602 142.411 262.602 143.801Z" fill="#0600FF"/>
<path d="M253.891 121.492C253.891 128.029 250.181 133.351 245.543 133.351C240.904 133.351 237.23 128.043 237.23 121.492C237.23 114.942 240.94 109.634 245.543 109.634C250.145 109.634 253.891 114.955 253.891 121.492Z" fill="#0600FF"/>
<path d="M252.65 105.237C252.441 105.237 252.235 105.179 252.058 105.07C251.88 104.962 251.737 104.806 251.646 104.622C251.16 103.623 250.291 102.851 249.226 102.474C248.712 102.291 248.166 102.21 247.62 102.235C247.073 102.261 246.537 102.392 246.043 102.622C245.911 102.691 245.765 102.733 245.615 102.746C245.466 102.759 245.315 102.742 245.172 102.696C245.029 102.651 244.897 102.577 244.784 102.481C244.67 102.384 244.578 102.266 244.513 102.134C244.448 102.001 244.411 101.858 244.404 101.711C244.397 101.564 244.42 101.418 244.472 101.28C244.525 101.143 244.605 101.017 244.709 100.911C244.812 100.804 244.937 100.719 245.075 100.661C245.835 100.301 246.662 100.095 247.505 100.055C248.349 100.014 249.193 100.14 249.985 100.425C251.598 100.997 252.916 102.165 253.655 103.677C253.782 103.937 253.799 104.235 253.701 104.507C253.603 104.779 253.399 105.003 253.133 105.128C252.983 105.2 252.818 105.237 252.65 105.237V105.237Z" fill="#0600FF"/>
<path d="M182.696 112.07C182.529 112.07 182.364 112.033 182.214 111.961C181.947 111.835 181.743 111.611 181.645 111.339C181.547 111.066 181.564 110.766 181.691 110.506C182.889 107.998 184.953 105.983 187.522 104.814C188.703 104.256 189.998 103.962 191.311 103.954C192.623 103.946 193.921 104.223 195.111 104.766C195.377 104.892 195.581 105.116 195.679 105.389C195.777 105.661 195.76 105.961 195.633 106.222C195.571 106.352 195.483 106.469 195.373 106.565C195.264 106.662 195.137 106.736 194.998 106.784C194.859 106.831 194.711 106.851 194.564 106.842C194.417 106.833 194.274 106.796 194.142 106.732C193.246 106.334 192.272 106.135 191.288 106.147C190.304 106.159 189.335 106.382 188.45 106.801C186.362 107.759 184.688 109.406 183.722 111.451C183.629 111.639 183.483 111.797 183.301 111.907C183.119 112.016 182.91 112.073 182.696 112.07V112.07Z" fill="#0600FF"/>
<path d="M510.175 205.041C505.777 211.906 499.308 217.273 491.658 220.402C484.007 223.532 475.552 224.271 467.454 222.518C459.356 220.766 452.013 216.607 446.435 210.614C440.857 204.621 437.317 197.088 436.303 189.051H436.24L428.392 155.651C427.968 153.858 428.099 151.983 428.769 150.263C429.438 148.543 430.616 147.055 432.153 145.99C433.69 144.924 435.516 144.329 437.4 144.278C439.284 144.227 441.141 144.724 442.736 145.706C443.801 146.347 444.724 147.19 445.452 148.183C446.181 149.177 446.699 150.302 446.977 151.493L448.066 156.117C450.934 153.404 454.21 151.133 457.78 149.384L459.838 118.442C459.897 117.209 460.207 116 460.75 114.886C461.293 113.771 462.058 112.774 463.001 111.952C463.943 111.13 465.044 110.499 466.239 110.097C467.435 109.695 468.7 109.53 469.961 109.611C471.222 109.692 472.455 110.018 473.585 110.57C474.716 111.121 475.723 111.887 476.547 112.823C477.371 113.759 477.996 114.846 478.384 116.02C478.773 117.194 478.918 118.432 478.81 119.662L477.123 145.026C484.211 145.2 491.125 147.202 497.164 150.829C503.203 154.456 508.151 159.578 511.506 165.676C514.861 171.773 516.504 178.629 516.267 185.547C516.03 192.464 513.922 199.198 510.158 205.063L510.175 205.041Z" fill="#FFE3BB"/>
<path d="M483.274 138.641L456.124 161.884C452.17 165.269 451.776 171.142 455.243 175.002C458.71 178.862 464.726 179.247 468.68 175.862L495.83 152.619C499.784 149.234 500.178 143.361 496.711 139.501C493.244 135.641 487.228 135.256 483.274 138.641Z" fill="#EFCA9A"/>
<path d="M494.74 149.501L471.511 169.388C467.557 172.773 467.162 178.646 470.63 182.506C474.097 186.366 480.113 186.751 484.067 183.366L507.297 163.479C511.25 160.094 511.645 154.221 508.178 150.361C504.71 146.501 498.694 146.116 494.74 149.501Z" fill="#D8B182"/>
<path d="M501.119 163.488L488.667 174.149C484.713 177.534 484.319 183.407 487.786 187.267C491.253 191.127 497.27 191.512 501.223 188.127L513.676 177.466C517.629 174.081 518.024 168.208 514.556 164.348C511.089 160.488 505.073 160.103 501.119 163.488Z" fill="#AF895F"/>
<path d="M204.064 4.00631C216.979 -0.722205 256.576 -3.5593 261.42 9.05299C266.263 21.6653 234.519 44.9418 221.604 49.6703C218.525 50.8305 215.241 51.3835 211.942 51.2974C208.643 51.2113 205.395 50.4879 202.384 49.1688C199.373 47.8498 196.659 45.9612 194.401 43.6125C192.142 41.2637 190.382 38.5011 189.223 35.4845C188.064 32.4679 187.529 29.257 187.649 26.0373C187.769 22.8177 188.541 19.6531 189.921 16.7266C191.301 13.8 193.262 11.1694 195.689 8.98683C198.117 6.80426 200.963 5.11294 204.064 4.01067V4.00631Z" fill="#0600FF"/>
<path d="M259.604 23.8714C272.684 36.0304 298.706 79.9686 286.246 92.7291C273.787 105.49 227.574 82.2697 214.494 70.0975C208.385 64.2196 204.885 56.2337 204.75 47.8608C204.615 39.4878 207.855 31.3983 213.772 25.3352C219.688 19.2722 227.808 15.7212 236.381 15.4474C244.954 15.1735 253.294 18.1988 259.604 23.8714V23.8714Z" fill="#0600FF"/>
<path d="M197.248 86.5492C178.945 98.7736 118.322 118.058 105.804 100.212C93.2867 82.3655 133.625 34.1346 151.91 21.9145C156.255 18.9457 161.16 16.8473 166.341 15.7406C171.522 14.634 176.876 14.5411 182.094 15.4673C187.312 16.3935 192.291 18.3204 196.741 21.1366C201.192 23.9528 205.026 27.6025 208.022 31.8744C211.019 36.1464 213.118 40.9559 214.199 46.0249C215.28 51.0939 215.32 56.3217 214.318 61.4061C213.316 66.4904 211.292 71.3304 208.362 75.6461C205.432 79.9618 201.654 83.6676 197.248 86.5492Z" fill="#0600FF"/>
<path d="M225.354 212.598V211.02C225.354 208.623 224.378 206.324 222.642 204.629C220.906 202.934 218.551 201.982 216.095 201.982H176.364C175.148 201.981 173.944 202.215 172.821 202.669C171.697 203.123 170.676 203.788 169.816 204.628C168.956 205.467 168.274 206.464 167.809 207.561C167.344 208.658 167.105 209.833 167.106 211.02V214.943C148.503 220.186 132.15 231.189 120.508 246.293C108.866 261.397 102.567 279.785 102.559 298.688V529.897C102.559 535.907 105.004 541.671 109.358 545.921C113.711 550.171 119.616 552.559 125.772 552.559H290.633C296.79 552.559 302.694 550.171 307.048 545.921C311.401 541.671 313.847 535.907 313.847 529.897V313.052C313.846 288.742 304.916 265.238 288.679 246.807C272.443 228.376 249.975 216.238 225.354 212.598Z" fill="#FFC729"/>
<path d="M313.716 313.039V529.897C313.733 532.468 313.279 535.021 312.376 537.437C310.779 541.856 307.818 545.683 303.901 548.391C299.983 551.099 295.302 552.556 290.502 552.559H125.641C122.475 552.57 119.342 551.931 116.445 550.685C115.463 550.293 114.522 549.812 113.633 549.247C110.211 547.242 107.38 544.406 105.416 541.014C103.453 537.623 102.423 533.793 102.428 529.897V298.701C102.42 298.308 102.435 297.915 102.472 297.524C102.545 287.406 104.48 277.382 108.186 267.933C108.499 267.017 108.901 266.102 109.302 265.187C110.538 262.187 111.985 259.275 113.633 256.471C114.484 254.883 115.423 253.34 116.445 251.851C120.312 245.904 124.915 240.444 130.15 235.596C131.177 234.637 132.204 233.722 133.275 232.85C137.454 229.291 141.968 226.125 146.757 223.393C147.649 222.87 148.587 222.347 149.569 221.868C155.1 218.954 160.937 216.63 166.979 214.938V211.016C166.976 209.831 167.213 208.656 167.677 207.56C168.14 206.465 168.821 205.469 169.679 204.631C170.538 203.792 171.558 203.128 172.68 202.676C173.803 202.223 175.006 201.992 176.22 201.995H215.951C217.629 201.999 219.277 202.435 220.728 203.259C222.098 204.065 223.233 205.203 224.022 206.561C224.812 207.92 225.23 209.454 225.236 211.016V212.585C232.358 213.616 239.346 215.383 246.084 217.858C247.021 218.207 248.003 218.556 248.941 218.948C257.749 222.441 266.014 227.121 273.494 232.85C274.684 233.722 275.845 234.637 276.976 235.596C277.735 236.206 278.494 236.86 279.252 237.513C280.19 238.341 281.127 239.213 282.065 240.085C289.818 247.431 296.367 255.897 301.484 265.187C301.975 266.102 302.466 267.017 302.912 267.933C310.008 281.961 313.705 297.394 313.716 313.039V313.039Z" fill="#E66E78"/>
<path d="M140.362 140.171C141.403 147.292 145.089 153.791 150.719 158.431C152.118 159.393 153.265 160.664 154.064 162.141C154.863 163.618 155.293 165.259 155.317 166.93V200.182L128.934 165.143L125.273 81.8164L155.317 103.258V113.107C155.317 114.197 153.844 114.066 153.844 114.066V114.11C152.896 113.972 151.93 113.986 150.987 114.153C142.728 115.635 137.956 127.271 140.362 140.171Z" fill="#0600FF"/>
<path d="M146.757 523.839H116.446V494.291H146.757V523.839ZM146.757 491.502H116.446V461.954H146.757V491.502ZM146.757 459.165H116.446V429.609H146.757V459.165ZM146.757 426.828H116.446V397.281H146.757V426.828ZM146.757 394.491H116.446V364.944H146.757V394.491ZM146.757 362.154H116.446V332.607H146.757V362.154ZM146.757 329.861H116.446V300.27H146.757V329.861ZM146.757 297.524H116.446V267.924H146.757V297.524ZM179.881 523.839H149.565V494.291H179.877L179.881 523.839ZM179.881 491.502H149.565V461.954H179.877L179.881 491.502ZM179.881 459.165H149.565V429.609H179.877L179.881 459.165ZM179.881 426.828H149.565V397.281H179.877L179.881 426.828ZM179.881 394.491H149.565V364.944H179.877L179.881 394.491ZM179.881 362.154H149.565V332.607H179.877L179.881 362.154ZM179.881 329.861H149.565V300.27H179.877L179.881 329.861ZM179.881 297.524H149.565V267.924H179.877L179.881 297.524ZM179.881 265.187H149.565V235.596H179.877L179.881 265.187ZM212.961 523.839H182.694V494.291H212.961V523.839ZM212.961 491.502H182.694V461.954H212.961V491.502ZM212.961 459.165H182.694V429.609H212.961V459.165ZM212.961 426.828H182.694V397.281H212.961V426.828ZM212.961 394.491H182.694V364.944H212.961V394.491ZM212.961 362.154H182.694V332.607H212.961V362.154ZM212.961 329.861H182.694V300.27H212.961V329.861ZM212.961 297.524H182.694V267.924H212.961V297.524ZM212.961 265.187H182.694V235.596H212.961V265.187ZM212.961 232.85H182.694V203.259H212.961V232.85ZM246.084 523.839H215.818V494.291H246.084V523.839ZM246.084 491.502H215.818V461.954H246.084V491.502ZM246.084 459.165H215.818V429.609H246.084V459.165ZM246.084 426.828H215.818V397.281H246.084V426.828ZM246.084 394.491H215.818V364.944H246.084V394.491ZM246.084 362.154H215.818V332.607H246.084V362.154ZM246.084 329.861H215.818V300.27H246.084V329.861ZM246.084 297.524H215.818V267.924H246.084V297.524ZM246.084 265.187H215.818V235.596H246.084V265.187ZM279.208 523.839H248.942V494.291H279.208V523.839ZM279.208 491.502H248.942V461.954H279.208V491.502ZM279.253 451.931L279.208 451.103V459.165H248.942V429.609H279.253V451.931ZM279.253 426.828H248.942V397.281H279.253V426.828ZM279.253 394.491H248.942V364.944H279.253V394.491ZM279.253 362.154H248.942V332.607H279.253V362.154ZM279.253 329.861H248.942V300.27H279.253V329.861ZM279.253 297.524H248.942V267.924H279.253V297.524ZM312.377 523.839H282.065V494.291H312.377V523.839ZM312.377 491.502H282.065V461.954H312.377V491.502ZM312.377 459.165H282.065V429.609H312.377V459.165ZM312.377 426.828H282.065V397.281H312.377V426.828ZM312.377 394.491H282.065V364.944H312.377V394.491ZM312.377 362.154H282.065V332.607H312.377V362.154ZM312.377 329.861H282.065V300.27H312.377V329.861ZM312.377 296.827V297.524H282.065V267.924H302.913C302.467 267.009 301.976 266.094 301.485 265.178H282.065V240.076C281.128 239.204 280.19 238.333 279.253 237.505V265.178H248.942V235.587H276.976C275.86 234.628 274.7 233.713 273.494 232.841H248.942V218.939C248.004 218.547 247.022 218.198 246.084 217.85V232.841H215.818V203.25H220.728C219.277 202.426 217.63 201.991 215.951 201.986H176.221C174.556 201.99 172.923 202.426 171.489 203.25H179.881V232.841H149.565V221.859C148.583 222.338 147.646 222.861 146.753 223.384V232.841H133.271C132.2 233.713 131.173 234.628 130.146 235.587H146.753V265.178H116.441V251.843C115.419 253.332 114.48 254.874 113.629 256.462V265.178H109.299C108.897 266.094 108.495 267.009 108.183 267.924H113.629V297.515H102.468C102.431 297.906 102.416 298.299 102.424 298.692V300.261H113.629V329.852H102.424V332.598H113.629V362.146H102.424V364.935H113.629V394.483H102.424V397.272H113.629V426.82H102.424V429.609H113.629V459.157H102.424V461.946H113.629V491.493H102.424V494.283H113.629V523.83H102.424V526.576H113.629V549.238C114.518 549.803 115.46 550.284 116.441 550.676V526.576H146.753V552.55H149.565V526.576H179.877V552.55H182.689V526.576H212.956V552.55H215.813V526.576H246.08V552.55H248.937V526.576H279.204V552.55H282.061V526.576H312.373V537.428C313.275 535.012 313.729 532.459 313.712 529.888V313.03C313.721 307.602 313.275 302.183 312.377 296.827V296.827Z" fill="white"/>
<path d="M223.877 179.254C217.261 179.254 213.98 176.727 213.234 171.057C213.046 169.595 213.429 168.117 214.305 166.917C215.182 165.717 216.489 164.883 217.966 164.581L229.359 162.284C230.415 162.068 231.511 162.134 232.531 162.476C233.551 162.818 234.457 163.423 235.154 164.227C235.851 165.031 236.312 166.004 236.489 167.043C236.665 168.082 236.551 169.148 236.158 170.129C235.512 172.804 233.934 175.177 231.694 176.841C229.453 178.506 226.69 179.359 223.877 179.254V179.254ZM230.6 164.337C230.336 164.337 230.073 164.363 229.814 164.415L218.417 166.712C217.485 166.894 216.658 167.417 216.107 168.173C215.555 168.929 215.32 169.862 215.449 170.782C216.047 175.31 218.408 177.075 223.877 177.075C229.015 177.075 231.877 174.896 234.073 169.322C234.292 168.769 234.37 168.173 234.301 167.584C234.231 166.995 234.017 166.431 233.675 165.941C233.334 165.45 232.876 165.048 232.34 164.769C231.804 164.49 231.207 164.341 230.6 164.337V164.337Z" fill="#0600FF"/>
<path d="M235.139 169.719C234.891 170.358 234.608 170.984 234.291 171.593C231.947 170.41 229.34 169.811 226.701 169.85C224.578 169.651 222.438 170.006 220.501 170.879C218.563 171.752 216.898 173.111 215.675 174.818C214.932 173.641 214.474 172.315 214.336 170.939C214.173 169.749 214.479 168.543 215.191 167.564C215.904 166.585 216.97 165.907 218.175 165.666L229.603 163.356C230.46 163.182 231.349 163.237 232.176 163.515C233.003 163.793 233.739 164.283 234.305 164.934C234.872 165.585 235.248 166.373 235.395 167.215C235.541 168.057 235.453 168.922 235.139 169.719V169.719Z" fill="#0600FF"/>
<path d="M234.291 171.61C233.506 173.649 232.072 175.388 230.2 176.572C228.328 177.756 226.116 178.324 223.89 178.191C219.649 178.191 217.015 177.145 215.676 174.835C216.899 173.128 218.564 171.769 220.501 170.896C222.438 170.024 224.578 169.668 226.702 169.867C229.34 169.829 231.947 170.428 234.291 171.61V171.61Z" fill="white"/>
<path d="M223.877 179.254C217.261 179.254 213.98 176.727 213.234 171.057C213.046 169.595 213.429 168.117 214.305 166.917C215.182 165.717 216.489 164.883 217.966 164.581L229.359 162.284C230.415 162.068 231.511 162.134 232.531 162.476C233.551 162.818 234.457 163.423 235.154 164.227C235.851 165.031 236.312 166.004 236.489 167.043C236.665 168.082 236.551 169.148 236.158 170.129C235.512 172.804 233.934 175.177 231.694 176.841C229.453 178.506 226.69 179.359 223.877 179.254V179.254ZM230.6 164.337C230.336 164.337 230.073 164.363 229.814 164.415L218.417 166.712C217.485 166.894 216.658 167.417 216.107 168.173C215.555 168.929 215.32 169.862 215.449 170.782C216.047 175.31 218.408 177.075 223.877 177.075C229.015 177.075 231.877 174.896 234.073 169.322C234.292 168.769 234.37 168.173 234.301 167.584C234.231 166.995 234.017 166.431 233.675 165.941C233.334 165.45 232.876 165.048 232.34 164.769C231.804 164.49 231.207 164.341 230.6 164.337V164.337Z" fill="#0600FF"/>
<path d="M226.925 178.941C226.721 178.942 226.52 178.888 226.345 178.785C226.171 178.682 226.028 178.534 225.934 178.357L223.89 174.513C223.815 174.386 223.768 174.245 223.75 174.099C223.732 173.953 223.745 173.806 223.787 173.665C223.829 173.524 223.9 173.393 223.996 173.28C224.091 173.166 224.209 173.073 224.342 173.005C224.475 172.937 224.621 172.897 224.771 172.885C224.921 172.874 225.072 172.892 225.214 172.939C225.356 172.985 225.488 173.06 225.6 173.157C225.712 173.255 225.803 173.374 225.867 173.506L227.912 177.35C228.049 177.606 228.075 177.905 227.987 178.18C227.898 178.455 227.701 178.685 227.439 178.819C227.281 178.901 227.104 178.943 226.925 178.941V178.941Z" fill="#0600FF"/>
<path d="M101.491 254.763L3.52066 468.073C-0.814115 477.572 -1.1128 488.36 2.6901 498.073C6.49301 507.786 14.0869 515.63 23.8061 519.884C33.5253 524.138 44.576 524.454 54.534 520.765C64.4921 517.075 72.5445 509.679 76.9247 500.201L174.895 286.895C177.056 282.19 178.247 277.115 178.399 271.96C178.551 266.806 177.662 261.673 175.782 256.854C173.902 252.035 171.068 247.624 167.442 243.874C163.817 240.125 159.47 237.109 154.65 234.999C149.83 232.889 144.632 231.727 139.352 231.578C134.072 231.429 128.814 232.297 123.877 234.133C118.941 235.968 114.424 238.734 110.582 242.274C106.741 245.814 103.652 250.057 101.491 254.763V254.763Z" fill="#FFE3BB"/>
<path d="M26.0552 355.007L149.029 408.834C151.77 410.033 154.755 410.605 157.757 410.507C160.759 410.41 163.698 409.644 166.352 408.27C169.005 406.896 171.302 404.949 173.068 402.577C174.833 400.205 176.022 397.471 176.542 394.583L195.362 290.015C197.742 276.8 195.536 263.187 189.096 251.334C182.655 239.48 172.347 230.063 159.806 224.574C147.264 219.084 133.205 217.836 119.854 221.028C106.504 224.219 94.6265 231.668 86.1024 242.194L18.6492 325.473C16.7864 327.773 15.4859 330.458 14.8467 333.323C14.2075 336.188 14.2465 339.158 14.9607 342.006C15.6749 344.855 17.0455 347.506 18.9681 349.759C20.8907 352.012 23.3146 353.807 26.0552 355.007V355.007Z" fill="#0600FF"/>
<path d="M272.179 363.675L231.95 367.493L231.029 358.24C230.785 355.786 231.549 353.338 233.153 351.435C234.758 349.531 237.071 348.327 239.585 348.089L270.336 345.171C272.85 344.932 275.358 345.678 277.308 347.245C279.258 348.811 280.491 351.07 280.735 353.523C280.979 355.977 280.215 358.425 278.611 360.329C277.006 362.233 274.692 363.436 272.179 363.675Z" fill="#AF895F"/>
<path d="M258.006 354.142L288.757 351.224C293.991 350.727 297.822 346.182 297.313 341.072C296.804 335.962 292.149 332.223 286.915 332.719L256.163 335.637C250.929 336.134 247.098 340.679 247.607 345.789C248.116 350.899 252.771 354.638 258.006 354.142Z" fill="#D8B182"/>
<path d="M264.043 339.777L299.984 336.366C305.218 335.87 309.048 331.325 308.54 326.215C308.031 321.105 303.375 317.365 298.141 317.862L262.2 321.273C256.966 321.769 253.135 326.314 253.644 331.424C254.153 336.534 258.808 340.274 264.043 339.777Z" fill="#EFCA9A"/>
<path d="M208.212 365.353C200.562 362.224 194.093 356.858 189.694 349.994C185.295 343.13 183.182 335.104 183.645 327.019C184.108 318.935 187.124 311.189 192.279 304.846C197.435 298.503 204.476 293.875 212.435 291.597V291.54L244.929 278.58C246.672 277.881 248.589 277.703 250.435 278.069C252.282 278.436 253.975 279.329 255.3 280.637C256.626 281.944 257.523 283.606 257.879 285.413C258.235 287.219 258.033 289.088 257.299 290.782C256.824 291.912 256.123 292.938 255.237 293.8C254.351 294.662 253.298 295.343 252.139 295.803L247.639 297.598C250.856 299.924 253.689 302.716 256.041 305.878L287.651 302.858C290.162 302.62 292.668 303.363 294.618 304.925C296.569 306.487 297.805 308.74 298.057 311.191C298.211 312.721 297.98 314.265 297.383 315.689C296.72 317.246 295.633 318.597 294.24 319.596C292.848 320.594 291.202 321.202 289.481 321.354L263.589 323.829C264.564 330.688 263.661 337.677 260.972 344.084C258.284 350.492 253.905 356.091 248.282 360.311C242.659 364.532 235.992 367.224 228.958 368.114C221.924 369.005 214.773 368.061 208.234 365.379L208.212 365.353Z" fill="#FFE3BB"/>
<path d="M66.6371 513.75L247.225 360.237C251.209 356.851 254.47 352.731 256.823 348.115C259.176 343.498 260.574 338.474 260.938 333.33C261.302 328.185 260.624 323.021 258.944 318.132C257.264 313.244 254.614 308.726 251.145 304.837C247.676 300.948 243.457 297.764 238.727 295.467C233.998 293.171 228.852 291.805 223.582 291.45C218.313 291.095 213.023 291.756 208.015 293.397C203.008 295.037 198.38 297.624 194.396 301.011L13.8084 454.524C5.76336 461.363 0.830729 471.042 0.0956765 481.432C-0.639376 491.821 2.8834 502.07 9.88893 509.924C16.8944 517.778 26.8089 522.593 37.4512 523.311C48.0936 524.029 58.5921 520.589 66.6371 513.75V513.75Z" fill="#FFE3BB"/>
</svg>
