<svg width="90" height="96" viewBox="0 0 90 96" fill="none" xmlns="http://www.w3.org/2000/svg">
<path fill-rule="evenodd" clip-rule="evenodd" d="M30.7281 5.27233C36.7242 11.2684 37.6056 20.4424 33.3724 27.3728L90 84.0004L84 90.0004H66L38.9999 63.0004L33.3724 68.6279C37.6056 75.5583 36.7242 84.7322 30.7281 90.7283C27.2133 94.2431 22.6067 96.0005 18 96.0004H16.9706C7.598 96.0004 1.28649e-06 88.4024 8.76806e-07 79.0298C6.80071e-07 74.529 1.78797 70.2124 4.97057 67.0298L23.9999 48.0005L4.97057 28.9709C1.78797 25.7883 1.96746e-07 21.4717 0 16.9708C-4.09688e-07 7.59824 7.59799 0.000244141 16.9706 0.000244141H18C22.6067 0.000225402 27.2133 1.75759 30.7281 5.27233ZM12 18.0003C12 21.314 14.6863 24.0003 18 24.0003C21.3138 24.0003 24.0001 21.314 24 18.0003C24 14.6866 21.3138 12.0003 18 12.0003C14.6863 12.0003 12 14.6866 12 18.0003ZM18 72.0004C14.6863 72.0004 12 74.6867 12 78.0004C12 81.3141 14.6863 84.0004 18 84.0004C21.3138 84.0004 24.0001 81.3141 24.0001 78.0004C24.0001 74.6867 21.3138 72.0004 18 72.0004Z" fill="white"/>
<path d="M66 6.00026L47.9999 24.0003L62.9999 39.0003L90 12.0003L84 6.00026L66 6.00026Z" fill="white"/>
</svg>
