<svg xmlns="http://www.w3.org/2000/svg" viewBox="0 0 239.85 131.35"><defs><style>.cls-1{fill:#0600ff;}.cls-2{fill:#fff;}.cls-3{fill:#e66e78;}</style></defs><title>Fichier 7</title><g id="Calque_2" data-name="Calque 2"><g id="Calque_2-2" data-name="Calque 2"><path class="cls-1" d="M11.42,34.26v91.38H65.67V94.07a2.7,2.7,0,0,1,2.7-2.7h6a2.69,2.69,0,0,1,2.69,2.7v31.57H82.8V94.07a2.7,2.7,0,0,1,2.7-2.7h6a2.7,2.7,0,0,1,2.7,2.7v31.57h54.25V34.26Zm22.84,71.07a3.17,3.17,0,0,1-3.17,3.17H26a3.17,3.17,0,0,1-3.18-3.17V94.54A3.17,3.17,0,0,1,26,91.37h5.07a3.17,3.17,0,0,1,3.17,3.17Zm17.14,0a3.18,3.18,0,0,1-3.18,3.17H43.15A3.18,3.18,0,0,1,40,105.33V94.54a3.18,3.18,0,0,1,3.18-3.17h5.07a3.18,3.18,0,0,1,3.18,3.17ZM31.73,80a3.17,3.17,0,0,1-3.18-3.17V54.56a3.16,3.16,0,0,1,3.18-3.16h96.44a3.16,3.16,0,0,1,3.17,3.16V76.78A3.17,3.17,0,0,1,128.17,80Zm88.19,25.38a3.17,3.17,0,0,1-3.17,3.17h-5.08a3.17,3.17,0,0,1-3.17-3.17V94.54a3.17,3.17,0,0,1,3.17-3.17h5.08a3.17,3.17,0,0,1,3.17,3.17Zm17.14,0a3.18,3.18,0,0,1-3.18,3.17h-5.07a3.18,3.18,0,0,1-3.18-3.17V94.54a3.18,3.18,0,0,1,3.18-3.17h5.07a3.18,3.18,0,0,1,3.18,3.17Z"/><path class="cls-2" d="M137.06,94.54v10.79a3.18,3.18,0,0,1-3.18,3.17h-5.07a3.18,3.18,0,0,1-3.18-3.17V94.54a3.18,3.18,0,0,1,3.18-3.17h5.07a3.18,3.18,0,0,1,3.18,3.17"/><path class="cls-2" d="M119.92,94.54v10.79a3.17,3.17,0,0,1-3.17,3.17h-5.07a3.17,3.17,0,0,1-3.18-3.17V94.54a3.17,3.17,0,0,1,3.18-3.17h5.07a3.17,3.17,0,0,1,3.17,3.17"/><path class="cls-2" d="M51.4,94.54v10.79a3.18,3.18,0,0,1-3.18,3.17H43.15A3.18,3.18,0,0,1,40,105.33V94.54a3.18,3.18,0,0,1,3.18-3.17h5.07a3.18,3.18,0,0,1,3.18,3.17"/><path class="cls-2" d="M34.26,94.54v10.79a3.17,3.17,0,0,1-3.17,3.17H26a3.17,3.17,0,0,1-3.18-3.17V94.54A3.17,3.17,0,0,1,26,91.37h5.07a3.17,3.17,0,0,1,3.17,3.17"/><path class="cls-2" d="M128.17,51.4H31.73a3.16,3.16,0,0,0-3.18,3.16V76.78A3.17,3.17,0,0,0,31.73,80h96.44a3.17,3.17,0,0,0,3.17-3.17V54.56a3.16,3.16,0,0,0-3.17-3.16M53.06,74.62H39.38V56.73H52.91v4.16H44.42v2.57h7.71v4.07H44.42v2.91h8.64Zm14.83-.34a11,11,0,0,1-3.9.64,10.47,10.47,0,0,1-3.83-.69,9.69,9.69,0,0,1-3.11-2A9.35,9.35,0,0,1,55,62,8.75,8.75,0,0,1,57,59a9.86,9.86,0,0,1,3.08-1.93,10.34,10.34,0,0,1,3.82-.69,10.64,10.64,0,0,1,3.82.66,9.46,9.46,0,0,1,3,1.8l-3.33,3.37a4.33,4.33,0,0,0-1.48-1,5.46,5.46,0,0,0-3.87,0,4,4,0,0,0-1.44,1,4.25,4.25,0,0,0-.94,1.52,5.48,5.48,0,0,0-.34,2,5.56,5.56,0,0,0,.34,2,4.43,4.43,0,0,0,.94,1.52,4.11,4.11,0,0,0,1.44,1,5,5,0,0,0,1.85.34,5.52,5.52,0,0,0,2-.35,4.37,4.37,0,0,0,1.55-1l3.37,3.37a10.24,10.24,0,0,1-3,1.8m21.8-4.93a8.93,8.93,0,0,1-2,3,9.17,9.17,0,0,1-3.07,2,11,11,0,0,1-7.72,0,9.52,9.52,0,0,1-3.09-2,8.65,8.65,0,0,1-2-3,9.78,9.78,0,0,1,0-7.39,8.93,8.93,0,0,1,2-2.94,9.35,9.35,0,0,1,3.08-1.95,11.28,11.28,0,0,1,7.77,0A9.3,9.3,0,0,1,87.66,59a8.75,8.75,0,0,1,2,3,9.62,9.62,0,0,1,.72,3.71,9.51,9.51,0,0,1-.72,3.68m15.24,5.27H92.46V56.73h5V70.34h7.44Zm15.58,0H106.84V56.73h13.52v4.16h-8.49v2.57h7.71v4.07h-7.71v2.91h8.64Z"/><path class="cls-1" d="M157.77,27.86,149.59,3.32A4.88,4.88,0,0,0,145,0h-130a4.88,4.88,0,0,0-4.62,3.32L2.13,27.86a4.87,4.87,0,0,0,4.62,6.4h146.4a4.87,4.87,0,0,0,4.62-6.4m-2.22,3.27a2.93,2.93,0,0,1-2.4,1.23H6.75a3,3,0,0,1-2.81-3.9L12.12,3.93a3,3,0,0,1,2.81-2H145a3,3,0,0,1,2.81,2L156,28.46a2.93,2.93,0,0,1-.41,2.67"/><path class="cls-2" d="M155.55,31.13a2.93,2.93,0,0,1-2.4,1.23H100.89L84.11,15.58a5.88,5.88,0,0,0-8.32,0L59,32.36H6.75a3,3,0,0,1-2.81-3.9L12.12,3.93a3,3,0,0,1,2.81-2H145a3,3,0,0,1,2.81,2L156,28.46a2.93,2.93,0,0,1-.41,2.67"/><path class="cls-1" d="M102.79,34.26H57.11L75.79,15.58a5.87,5.87,0,0,1,8.31,0Z"/><path class="cls-2" d="M91.37,34.26A11.42,11.42,0,1,0,80,45.68,11.42,11.42,0,0,0,91.37,34.26"/><path class="cls-1" d="M82.8,34.26A2.86,2.86,0,1,0,80,37.12a2.84,2.84,0,0,0,2.85-2.86"/><path class="cls-1" d="M237,125.64H2.85a2.86,2.86,0,0,0,0,5.71H237a2.86,2.86,0,1,0,0-5.71m0,3.8H2.85a.95.95,0,0,1,0-1.9H237a.95.95,0,0,1,0,1.9"/><path class="cls-2" d="M238,128.49a1,1,0,0,1-1,.95H2.85a.95.95,0,0,1,0-1.9H237a1,1,0,0,1,1,1"/><path class="cls-2" d="M94.23,94.07v31.57H82.8V94.07a2.7,2.7,0,0,1,2.7-2.7h6a2.7,2.7,0,0,1,2.7,2.7"/><path class="cls-2" d="M77.09,94.07v31.57H65.67V94.07a2.7,2.7,0,0,1,2.7-2.7h6a2.69,2.69,0,0,1,2.69,2.7"/><path class="cls-1" d="M80,24.51h0a1.43,1.43,0,0,0-1.43,1.43v6.89a1.43,1.43,0,1,0,2.86,0V25.94A1.43,1.43,0,0,0,80,24.51"/><path class="cls-1" d="M83.78,38.66h0a1.45,1.45,0,0,0,.14-2L82,34.4a1.43,1.43,0,1,0-2.15,1.88l2,2.24a1.44,1.44,0,0,0,2,.14"/><path class="cls-1" d="M43.46,74.62h9.6V70.45h-9.6Zm0-7.09h8.67V63.46H43.46Zm0-6.63h9.45V56.73H43.46ZM39.38,74.62h5V56.73h-5Z"/><path class="cls-1" d="M67.51,69.11a4.37,4.37,0,0,1-1.55,1,5.52,5.52,0,0,1-2,.35,5,5,0,0,1-1.85-.34,4.11,4.11,0,0,1-1.44-1,4.43,4.43,0,0,1-.94-1.52,5.56,5.56,0,0,1-.34-2,5.48,5.48,0,0,1,.34-2,4.34,4.34,0,0,1,.94-1.52,4,4,0,0,1,1.44-1,5.46,5.46,0,0,1,3.87,0,4.47,4.47,0,0,1,1.48,1l3.33-3.37a9.46,9.46,0,0,0-3-1.8,10.64,10.64,0,0,0-3.82-.66,10.34,10.34,0,0,0-3.82.69A9.86,9.86,0,0,0,57,59,8.75,8.75,0,0,0,55,62a9.57,9.57,0,0,0,0,7.38,9,9,0,0,0,2.08,3,9.54,9.54,0,0,0,3.1,2,10.47,10.47,0,0,0,3.83.69,11,11,0,0,0,3.9-.64,10.24,10.24,0,0,0,3-1.8Z"/><path class="cls-1" d="M89.69,62a8.89,8.89,0,0,0-2-3,9.3,9.3,0,0,0-3.07-1.95,11.28,11.28,0,0,0-7.77,0A9.35,9.35,0,0,0,73.74,59a8.93,8.93,0,0,0-2,2.94,9.78,9.78,0,0,0,0,7.39,8.65,8.65,0,0,0,2,3,9.52,9.52,0,0,0,3.09,2,11,11,0,0,0,7.72,0,9,9,0,0,0,5.1-4.93,9.51,9.51,0,0,0,.72-3.68A9.62,9.62,0,0,0,89.69,62m-5,6.28a4,4,0,0,1-1.58,1.7,4.75,4.75,0,0,1-2.44.61,4.93,4.93,0,0,1-1.89-.35,3.94,3.94,0,0,1-1.45-1,4.37,4.37,0,0,1-.92-1.55,6.14,6.14,0,0,1-.31-2,5.61,5.61,0,0,1,.55-2.58,4,4,0,0,1,1.59-1.69,4.83,4.83,0,0,1,2.43-.59,5,5,0,0,1,1.9.35,4,4,0,0,1,1.44,1A4.19,4.19,0,0,1,85,63.65a6,6,0,0,1,.31,2,5.74,5.74,0,0,1-.55,2.59"/><path class="cls-2" d="M85.27,65.65a5.74,5.74,0,0,1-.55,2.59,4,4,0,0,1-1.58,1.7,4.74,4.74,0,0,1-2.43.61,5,5,0,0,1-1.9-.35,3.94,3.94,0,0,1-1.45-1,4.37,4.37,0,0,1-.92-1.55,6.14,6.14,0,0,1-.31-2,5.61,5.61,0,0,1,.55-2.58,4,4,0,0,1,1.59-1.69,4.82,4.82,0,0,1,2.44-.59,4.93,4.93,0,0,1,1.89.35,4,4,0,0,1,1.44,1A4.19,4.19,0,0,1,85,63.65a6,6,0,0,1,.31,2"/><path class="cls-1" d="M96.56,74.62h8.37V70.34H96.56Zm-4.1,0h5V56.73h-5Z"/><path class="cls-1" d="M110.91,74.62h9.6V70.45h-9.6Zm0-7.09h8.67V63.46h-8.67Zm0-6.63h9.45V56.73h-9.45Zm-4.07,13.72h5V56.73h-5Z"/><path class="cls-3" d="M151.33,85.66a2.85,2.85,0,0,0-2.85,2.86v37.12h5.71V88.52a2.86,2.86,0,0,0-2.86-2.86m1,38.07h-1.91V88.52a1,1,0,1,1,1.91,0Z"/><path class="cls-2" d="M152.29,88.52v35.21h-1.91V88.52a1,1,0,1,1,1.91,0"/><path class="cls-3" d="M225.57,85.66a2.85,2.85,0,0,0-2.85,2.86v37.12h5.71V88.52a2.86,2.86,0,0,0-2.86-2.86m1,38.07h-1.9V88.52a1,1,0,1,1,1.9,0Z"/><path class="cls-2" d="M226.52,88.52v35.21h-1.9V88.52a1,1,0,1,1,1.9,0"/><rect class="cls-3" x="154.19" y="91.37" width="34.26" height="34.26"/><rect class="cls-3" x="194.16" y="91.37" width="28.55" height="34.26"/><path class="cls-3" d="M188.45,125.64h5.71V91.37h-5.71Zm3.81-1.91h-1.9V93.27h1.9Z"/><rect class="cls-2" x="190.36" y="93.27" width="1.9" height="30.46"/></g></g></svg>