<svg width="797" height="176" viewBox="0 0 797 176" fill="none" xmlns="http://www.w3.org/2000/svg">
<g clip-path="url(#clip0_376_853)">
<path d="M101.375 50.6147C101.597 50.6138 101.814 50.6802 101.997 50.8052C102.18 50.9302 102.322 51.1079 102.402 51.3149L130.858 123.875C130.926 124.043 130.951 124.225 130.931 124.404C130.912 124.584 130.849 124.756 130.747 124.905C130.646 125.055 130.509 125.177 130.35 125.262C130.19 125.346 130.012 125.39 129.831 125.389H120.962C120.735 125.389 120.514 125.319 120.329 125.189C120.143 125.058 120.002 124.874 119.925 124.661L116.911 116.302C116.303 114.625 115.195 113.176 113.737 112.151C112.278 111.126 110.54 110.575 108.758 110.572H83.3823C81.6104 110.577 79.8821 111.123 78.4289 112.138C76.9756 113.152 75.8666 114.587 75.2503 116.249L72.1412 124.674C72.063 124.885 71.9219 125.068 71.7371 125.197C71.5522 125.326 71.3323 125.396 71.1068 125.397H62.6929C62.5125 125.397 62.3348 125.353 62.1754 125.268C62.0159 125.184 61.8796 125.062 61.7785 124.912C61.6773 124.763 61.6143 124.591 61.595 124.411C61.5757 124.232 61.6008 124.05 61.6679 123.883L90.3343 51.3149C90.4149 51.1088 90.556 50.932 90.7389 50.8077C90.9219 50.6834 91.1381 50.6174 91.3593 50.6185H101.383L101.375 50.6147ZM92.5035 103.226H99.8639C101.255 103.226 102.626 102.891 103.86 102.249C105.095 101.607 106.157 100.677 106.956 99.5378C107.756 98.3986 108.27 97.0836 108.454 95.7038C108.639 94.324 108.489 92.9201 108.017 91.6106L102.532 76.4093C102.067 75.1196 101.217 74.0042 100.097 73.2141C98.977 72.4241 97.6414 71.9976 96.2711 71.9924C94.9009 71.9873 93.5621 72.4037 92.4362 73.1853C91.3104 73.9669 90.4518 75.0759 89.9769 76.362L84.3714 91.5481C83.8873 92.8594 83.7273 94.2683 83.9047 95.6548C84.0822 97.0414 84.592 98.3645 85.3906 99.5114C86.1893 100.658 87.2532 101.595 88.4917 102.242C89.7301 102.889 91.1065 103.226 92.5035 103.226ZM101.383 46.8338H91.3593C90.3803 46.8343 89.4242 47.1292 88.6148 47.6802C87.8055 48.2313 87.1803 49.013 86.8205 49.924L58.1541 122.492C57.8616 123.233 57.7545 124.034 57.8422 124.826C57.9298 125.618 58.2095 126.376 58.657 127.035C59.1045 127.694 59.7061 128.233 60.4095 128.606C61.1129 128.98 61.8968 129.175 62.6929 129.176H71.1068C72.1052 129.175 73.0796 128.869 73.8988 128.298C74.7181 127.727 75.3429 126.918 75.6891 125.981L78.7981 117.555C79.144 116.617 79.7687 115.808 80.588 115.237C81.4072 114.665 82.3818 114.359 83.3804 114.359H108.756C109.761 114.359 110.742 114.669 111.564 115.247C112.387 115.825 113.011 116.643 113.352 117.589L116.366 125.947C116.707 126.893 117.331 127.711 118.153 128.288C118.975 128.866 119.955 129.176 120.96 129.176H129.829C130.625 129.176 131.409 128.981 132.112 128.61C132.815 128.238 133.417 127.7 133.866 127.042C134.314 126.384 134.595 125.627 134.684 124.836C134.773 124.045 134.668 123.244 134.378 122.503L105.921 49.9353C105.563 49.0224 104.939 48.2384 104.129 47.6852C103.32 47.1321 102.363 46.8354 101.383 46.8338ZM92.5035 99.4412C91.7162 99.4412 90.9406 99.2508 90.2427 98.8862C89.5448 98.5216 88.9453 97.9936 88.4953 97.3473C88.0453 96.7009 87.7581 95.9553 87.6581 95.1739C87.5581 94.3925 87.6484 93.5985 87.9211 92.8595L93.5266 77.6716C93.7327 77.1132 94.1054 76.6316 94.5942 76.2923C95.0829 75.9529 95.6641 75.7721 96.259 75.7744C96.8539 75.7767 97.4338 75.9619 97.9199 76.305C98.4061 76.648 98.7751 77.1324 98.9769 77.6924L104.461 92.8955C104.728 93.6334 104.812 94.4246 104.709 95.2022C104.605 95.9798 104.315 96.721 103.865 97.363C103.414 98.0051 102.816 98.5291 102.12 98.8908C101.424 99.2525 100.652 99.4413 99.8676 99.4412H92.5035Z" fill="#0600FF"/>
<path d="M181.058 50.6147C185.123 50.4869 189.159 51.339 192.826 53.0994C195.704 54.5059 198.113 56.7163 199.761 59.4633C201.33 62.138 202.139 65.1903 202.101 68.2912C202.173 70.2024 201.866 72.109 201.198 73.9007C200.529 75.6924 199.512 77.3337 198.205 78.7294C197.363 79.6129 196.709 80.6588 196.284 81.8033C195.858 82.9479 195.67 84.1671 195.731 85.3867C195.788 86.5354 196.082 87.6599 196.594 88.6896C197.106 89.7193 197.825 90.632 198.706 91.3703C199.27 91.8456 199.804 92.3556 200.304 92.8974C203.399 96.2552 205.05 100.697 204.9 105.262C204.967 108.834 204.012 112.351 202.146 115.397C200.176 118.502 197.379 120.996 194.071 122.598C189.938 124.565 185.396 125.521 180.821 125.387H150.502C150.21 125.387 149.93 125.27 149.723 125.063C149.516 124.857 149.4 124.576 149.4 124.284V51.7179C149.4 51.4255 149.516 51.1452 149.723 50.9384C149.93 50.7316 150.21 50.6152 150.502 50.6147H181.058ZM168.688 83.0383H177.557C180.999 83.1574 184.377 82.0884 187.125 80.0105C188.459 78.7638 189.523 77.2566 190.252 75.5821C190.982 73.9076 191.36 72.1013 191.364 70.2747C191.369 68.4481 190.999 66.6401 190.277 64.9622C189.556 63.2843 188.498 61.7722 187.17 60.5192C184.431 58.3827 181.028 57.2769 177.557 57.395H168.688C166.39 57.3975 164.187 58.312 162.562 59.9379C160.937 61.5638 160.023 63.7683 160.02 66.0676V74.3732C160.023 76.6725 160.937 78.877 162.562 80.5029C164.187 82.1288 166.39 83.0433 168.688 83.0458V83.0383ZM168.688 118.622H179.076C181.096 118.707 183.112 118.376 184.999 117.649C186.886 116.921 188.603 115.814 190.045 114.394C191.394 113.025 192.454 111.398 193.162 109.61C193.869 107.822 194.21 105.909 194.164 103.987C194.195 101.409 193.542 98.8698 192.272 96.6272C191.018 94.41 189.172 92.5853 186.941 91.357C184.529 90.0569 181.822 89.4049 179.083 89.4647H168.695C166.397 89.4672 164.194 90.3817 162.569 92.0076C160.944 93.6335 160.03 95.8379 160.028 98.1373V109.946C160.03 112.245 160.944 114.449 162.569 116.075C164.194 117.701 166.397 118.616 168.695 118.618L168.688 118.622ZM181.065 46.8338H150.502C149.207 46.8338 147.964 47.3488 147.048 48.2654C146.132 49.1821 145.617 50.4254 145.617 51.7217V124.288C145.617 125.584 146.132 126.827 147.048 127.744C147.964 128.661 149.207 129.176 150.502 129.176H180.821C185.998 129.318 191.134 128.218 195.799 125.968C199.715 124.047 203.024 121.08 205.361 117.396C207.592 113.748 208.744 109.542 208.682 105.266C208.77 102.08 208.137 98.9165 206.831 96.01C205.526 93.1036 203.581 90.5297 201.142 88.4806C200.643 88.0357 200.24 87.4932 199.958 86.8864C199.676 86.2796 199.522 85.6215 199.504 84.9526C199.486 84.2838 199.606 83.6184 199.855 82.9975C200.104 82.3766 200.478 81.8134 200.953 81.3427L200.985 81.2973C204.27 77.7801 206.029 73.1046 205.879 68.293C205.913 64.5223 204.926 60.8127 203.024 57.5577C201.013 54.1972 198.079 51.4858 194.572 49.7461C190.368 47.6945 185.729 46.6945 181.054 46.8319L181.065 46.8338ZM168.695 79.2573C168.054 79.2576 167.418 79.1313 166.825 78.8858C166.233 78.6402 165.694 78.2802 165.24 77.8262C164.787 77.3723 164.427 76.8334 164.182 76.2402C163.936 75.6471 163.81 75.0113 163.81 74.3694V66.0639C163.81 65.4219 163.936 64.7862 164.182 64.193C164.427 63.5999 164.787 63.061 165.24 62.607C165.694 62.1531 166.233 61.793 166.825 61.5475C167.418 61.3019 168.054 61.1757 168.695 61.1759H177.565C180.166 61.0607 182.724 61.8645 184.793 63.4467C185.748 64.2688 186.498 65.3026 186.984 66.4659C187.47 67.6291 187.678 68.8898 187.592 70.1475C187.698 71.4338 187.5 72.7269 187.014 73.9223C186.527 75.1177 185.766 76.1817 184.793 77.0281C182.71 78.5784 180.158 79.363 177.565 79.2498L168.695 79.2573ZM168.695 114.833C168.054 114.834 167.418 114.707 166.825 114.462C166.233 114.216 165.694 113.856 165.24 113.402C164.787 112.949 164.427 112.41 164.182 111.816C163.936 111.223 163.81 110.588 163.81 109.946V98.1392C163.81 97.4972 163.936 96.8615 164.182 96.2684C164.427 95.6752 164.787 95.1363 165.24 94.6823C165.694 94.2284 166.233 93.8684 166.825 93.6229C167.418 93.3773 168.054 93.251 168.695 93.2512H179.083C181.173 93.1914 183.242 93.6752 185.088 94.6554C186.72 95.5487 188.07 96.8805 188.986 98.5006C189.934 100.172 190.419 102.067 190.391 103.988C190.433 105.42 190.186 106.845 189.664 108.178C189.142 109.512 188.356 110.726 187.353 111.747C186.261 112.804 184.963 113.624 183.541 114.156C182.118 114.689 180.6 114.922 179.083 114.841L168.695 114.833Z" fill="#0600FF"/>
<path d="M78.9963 49.9203L50.3299 122.488C50.0374 123.229 49.9303 124.03 50.018 124.822C50.1056 125.614 50.3853 126.372 50.8328 127.031C51.2802 127.69 51.8818 128.23 52.5853 128.603C53.2887 128.976 54.0726 129.171 54.8687 129.172H63.2806C64.2792 129.172 65.2538 128.866 66.0732 128.295C66.8925 127.724 67.5172 126.915 67.863 125.978L70.9739 117.551C71.3194 116.613 71.9438 115.804 72.7632 115.233C73.5826 114.661 74.5574 114.355 75.5562 114.355H100.945C101.95 114.355 102.93 114.666 103.752 115.244C104.574 115.822 105.198 116.639 105.539 117.585L108.553 125.944C108.894 126.889 109.519 127.707 110.341 128.285C111.163 128.863 112.144 129.172 113.149 129.172H122.019C122.813 129.171 123.596 128.976 124.298 128.603C125.001 128.231 125.602 127.693 126.049 127.035C126.496 126.378 126.776 125.621 126.865 124.83C126.954 124.04 126.848 123.24 126.557 122.5L98.1084 49.9316C97.7504 49.0185 97.1261 48.2343 96.3166 47.6812C95.5071 47.128 94.5499 46.8314 93.5696 46.8301H83.5464C82.5656 46.8283 81.6069 47.1221 80.7953 47.6733C79.9837 48.2245 79.3568 49.0075 78.9963 49.9203ZM80.0913 92.852L85.6967 77.664C85.9028 77.1056 86.2755 76.6241 86.7643 76.2847C87.253 75.9454 87.8343 75.7646 88.4292 75.7669C89.0241 75.7692 89.6039 75.9544 90.09 76.2974C90.5762 76.6405 90.9452 77.1249 91.147 77.6848L96.6315 92.888C96.8974 93.626 96.9818 94.4173 96.8777 95.1949C96.7735 95.9724 96.4839 96.7135 96.0332 97.3555C95.5825 97.9974 94.984 98.5214 94.2882 98.8831C93.5925 99.2448 92.8199 99.4337 92.0359 99.4336H84.6812C83.8934 99.4344 83.1171 99.2446 82.4185 98.8805C81.7198 98.5163 81.1195 97.9885 80.6687 97.3421C80.2179 96.6956 79.93 95.9497 79.8294 95.1679C79.7289 94.3861 79.8187 93.5916 80.0913 92.852Z" fill="#E66E78"/>
<path d="M195.262 90.3314C194.655 89.6723 194.006 89.0529 193.32 88.4769C192.82 88.0322 192.417 87.4896 192.135 86.8828C191.853 86.276 191.698 85.6178 191.681 84.9489C191.663 84.28 191.783 83.6145 192.032 82.9936C192.281 82.3727 192.655 81.8096 193.131 81.339L193.172 81.2954C196.457 77.7782 198.217 73.1028 198.067 68.2912C198.1 64.5205 197.114 60.8109 195.211 57.5559C193.201 54.1948 190.267 51.483 186.759 49.7442C182.555 47.6925 177.917 46.6925 173.241 46.8301H142.682C142.04 46.8298 141.405 46.9561 140.812 47.2016C140.219 47.4472 139.681 47.8072 139.227 48.2611C138.773 48.715 138.414 49.254 138.168 49.8471C137.923 50.4403 137.797 51.076 137.797 51.718V124.284C137.797 124.926 137.923 125.562 138.168 126.155C138.414 126.748 138.773 127.287 139.227 127.741C139.681 128.195 140.219 128.555 140.812 128.8C141.405 129.046 142.04 129.172 142.682 129.172H172.997C178.174 129.315 183.31 128.215 187.975 125.964C191.892 124.044 195.201 121.077 197.537 117.392C199.769 113.745 200.921 109.538 200.858 105.262C201.006 99.746 198.999 94.3896 195.262 90.3314ZM169.731 61.1722C172.332 61.0576 174.891 61.8614 176.959 63.443C177.914 64.2653 178.664 65.2992 179.15 66.4624C179.635 67.6256 179.843 68.8861 179.756 70.1438C179.865 71.4303 179.67 72.7245 179.185 73.9213C178.701 75.118 177.942 76.1837 176.969 77.032C174.886 78.5817 172.334 79.3662 169.741 79.2536H160.869C159.574 79.2536 158.331 78.7386 157.415 77.8219C156.499 76.9053 155.984 75.662 155.984 74.3657V66.0601C155.984 65.4182 156.111 64.7826 156.356 64.1896C156.602 63.5966 156.961 63.0577 157.415 62.6038C157.869 62.1499 158.407 61.7899 159 61.5442C159.592 61.2986 160.228 61.1722 160.869 61.1722H169.731ZM179.52 111.736C178.428 112.793 177.129 113.613 175.706 114.145C174.283 114.677 172.765 114.911 171.248 114.83H160.86C159.564 114.83 158.322 114.315 157.406 113.398C156.49 112.482 155.975 111.238 155.975 109.942V98.1392C155.975 96.8429 156.49 95.5996 157.406 94.683C158.322 93.7663 159.564 93.2513 160.86 93.2513H171.248C173.337 93.1915 175.406 93.6753 177.252 94.6554C178.884 95.5492 180.235 96.8809 181.152 98.5007C182.099 100.173 182.584 102.067 182.555 103.989C182.597 105.417 182.35 106.84 181.83 108.171C181.309 109.502 180.525 110.715 179.526 111.736H179.52Z" fill="#E66E78"/>
<path d="M266.68 0H27.0286C19.8602 0 12.9854 2.84944 7.91651 7.92145C2.84766 12.9935 0 19.8726 0 27.0455V148.956C-8.68938e-09 152.508 0.699107 156.025 2.05745 159.306C3.41578 162.587 5.40676 165.569 7.91662 168.08C10.4265 170.591 13.4061 172.583 16.6853 173.942C19.9646 175.301 23.4792 176 27.0286 176H266.68C270.229 176 273.744 175.301 277.023 173.942C280.302 172.583 283.282 170.591 285.792 168.08C288.302 165.569 290.293 162.587 291.651 159.306C293.009 156.025 293.708 152.508 293.708 148.956V27.0455C293.708 23.4938 293.009 19.9769 291.651 16.6956C290.293 13.4143 288.302 10.4329 285.792 7.92145C283.282 5.41004 280.302 3.41789 277.023 2.05873C273.744 0.699566 270.229 0 266.68 0ZM266.68 157.077H27.0286C24.8774 157.073 22.8155 156.216 21.2942 154.694C19.7729 153.172 18.9162 151.109 18.9117 148.956V27.0455C18.9157 24.8926 19.7722 22.8291 21.2935 21.3068C22.8149 19.7845 24.8771 18.9275 27.0286 18.9235H266.68C268.831 18.9275 270.893 19.7845 272.415 21.3068C273.936 22.8291 274.793 24.8926 274.797 27.0455V35.6103H257.562C256.361 33.6768 254.562 32.1878 252.44 31.3684C250.317 30.549 247.985 30.444 245.797 31.0692C243.609 31.6944 241.684 33.0158 240.314 34.8334C238.944 36.651 238.202 38.8657 238.202 41.1425C238.202 43.4193 238.944 45.6341 240.314 47.4517C241.684 49.2693 243.609 50.5907 245.797 51.2159C247.985 51.8411 250.317 51.7361 252.44 50.9167C254.562 50.0974 256.361 48.6083 257.562 46.6749H274.797V79.0038H257.562C256.361 77.0698 254.562 75.5802 252.439 74.7605C250.315 73.9407 247.983 73.8355 245.795 74.4607C243.606 75.086 241.681 76.4076 240.31 78.2255C238.94 80.0435 238.198 82.2587 238.198 84.536C238.198 86.8133 238.94 89.0287 240.31 90.8466C241.681 92.6646 243.606 93.9862 245.795 94.6114C247.983 95.2366 250.315 95.1314 252.439 94.3117C254.562 93.4919 256.361 92.0023 257.562 90.0684H274.797V122.399H257.562C256.361 120.466 254.563 118.976 252.44 118.157C250.317 117.337 247.985 117.232 245.797 117.857C243.609 118.482 241.684 119.803 240.313 121.621C238.943 123.439 238.202 125.654 238.202 127.931C238.202 130.207 238.943 132.422 240.313 134.24C241.684 136.057 243.609 137.379 245.797 138.004C247.985 138.629 250.317 138.524 252.44 137.704C254.563 136.885 256.361 135.395 257.562 133.462H274.797V148.956C274.792 151.109 273.935 153.172 272.414 154.694C270.893 156.216 268.831 157.073 266.68 157.077Z" fill="#0600FF"/>
<path d="M349.273 71.8696V25.7625H359.582V71.8696H349.273ZM357.237 71.8696V62.8564H380.014V71.8696H357.237Z" fill="#0600FF"/>
<path d="M379.75 44.3738L384.514 35.4286L387.517 34.6433C387.233 35.2217 386.858 35.7507 386.407 36.2102C386.215 36.4164 385.982 36.5808 385.724 36.6931C385.466 36.8054 385.187 36.8633 384.905 36.8631C384.24 36.8549 383.583 36.7087 382.977 36.4338C382.371 36.1589 381.829 35.7612 381.384 35.2659C380.871 34.7464 380.468 34.1288 380.199 33.4499C379.93 32.771 379.8 32.0448 379.818 31.3147C379.799 30.4992 379.945 29.6882 380.248 28.9308C380.55 28.1733 381.003 27.485 381.579 26.9074C382.133 26.3254 382.802 25.8651 383.543 25.5556C384.284 25.2461 385.082 25.0943 385.885 25.1097C386.677 25.1072 387.461 25.2652 388.19 25.5742C388.919 25.8831 389.578 26.3366 390.127 26.9074C390.72 27.4752 391.189 28.1602 391.504 28.9189C391.819 29.6775 391.973 30.4934 391.956 31.3147C391.933 32.1367 391.79 32.9509 391.53 33.7312C391.104 34.9745 390.57 36.1777 389.932 37.3267L384.637 46.9928L379.75 44.3738Z" fill="#0600FF"/>
<path d="M386.41 71.8696L404.618 25.7625H413.951L432.029 71.8696H421.123L407.351 33.6631H411.133L397.037 71.8696H386.41ZM396.851 63.5736V55.2151H421.915V63.5736H396.851Z" fill="#E66E78"/>
<path d="M436.859 71.8696V25.7625H447.042V71.8696H436.859ZM444.755 71.8696V63.8366H455.591C456.441 63.8817 457.29 63.7515 458.087 63.4539C458.884 63.1563 459.611 62.6979 460.223 62.107C460.785 61.5337 461.226 60.8526 461.518 60.1047C461.811 59.3567 461.949 58.5574 461.925 57.7546C461.94 56.6803 461.671 55.6213 461.144 54.6852C460.623 53.7787 459.862 53.0339 458.944 52.5336C457.91 51.9881 456.753 51.719 455.584 51.752H444.761V43.9158H454.748C456.2 43.9796 457.629 43.5404 458.795 42.6725C459.339 42.1983 459.765 41.6028 460.037 40.9338C460.309 40.2649 460.42 39.5413 460.361 38.8216C460.409 38.1171 460.292 37.4113 460.02 36.7597C459.749 36.1081 459.329 35.5286 458.795 35.0672C457.637 34.18 456.205 33.7284 454.748 33.7917H444.761V25.7587H456.703C459.319 25.6855 461.914 26.2451 464.268 27.3899C466.23 28.3661 467.871 29.8852 468.996 31.7669C470.058 33.5904 470.609 35.6666 470.592 37.7771C470.677 40.4703 469.692 43.0875 467.852 45.055C465.633 47.196 462.807 48.5992 459.761 49.0725L460.021 45.6133C463.433 46.0935 466.596 47.6748 469.028 50.1171C471.118 52.39 472.241 55.3882 472.158 58.4756C472.196 60.8703 471.552 63.2263 470.303 65.2691C468.994 67.3317 467.141 68.9925 464.949 70.0681C462.338 71.3304 459.462 71.9469 456.564 71.8658L444.755 71.8696Z" fill="#E66E78"/>
<path d="M491.685 72.5925C488.315 72.6839 484.963 72.0603 481.851 70.7626C479.003 69.4506 476.475 67.5341 474.441 65.1461L481.098 58.485C482.477 60.1024 484.15 61.4443 486.027 62.44C487.982 63.41 490.143 63.8911 492.324 63.8423C494.072 63.9406 495.809 63.5206 497.319 62.635C497.879 62.2886 498.339 61.8019 498.653 61.2231C498.968 60.6443 499.126 59.9934 499.112 59.3347C499.132 58.784 499.043 58.2347 498.848 57.7193C498.653 57.2038 498.357 56.7326 497.977 56.3335C497.084 55.4632 496.03 54.7754 494.874 54.3086C493.571 53.7422 492.157 53.2079 490.632 52.7058C489.067 52.1915 487.531 51.5926 486.03 50.9118C484.519 50.2359 483.094 49.3807 481.787 48.3647C480.478 47.3292 479.419 46.0117 478.689 44.51C477.883 42.9121 477.415 41.1645 477.316 39.3772C477.218 37.5899 477.489 35.8014 478.114 34.1241C478.739 32.4468 479.704 30.917 480.948 29.6308C482.193 28.3446 483.689 27.3297 485.344 26.65C488.013 25.5479 490.879 25.0038 493.765 25.051C496.809 25.0099 499.828 25.5894 502.641 26.7541C505.144 27.7811 507.394 29.3411 509.233 31.326L502.51 38.0514C501.299 36.7518 499.874 35.6689 498.299 34.8495C496.824 34.1419 495.206 33.7851 493.571 33.8069C492.089 33.7313 490.617 34.0827 489.329 34.8193C488.832 35.1196 488.425 35.5473 488.149 36.058C487.873 36.5686 487.738 37.1439 487.759 37.724C487.743 38.2439 487.839 38.7612 488.042 39.2402C488.245 39.7191 488.549 40.1484 488.934 40.4982C489.849 41.2985 490.9 41.9291 492.037 42.3603C493.319 42.8864 494.733 43.4099 496.279 43.931C497.824 44.452 499.369 45.05 500.912 45.7249C502.44 46.3931 503.86 47.286 505.124 48.3742C506.415 49.5044 507.468 50.8812 508.222 52.4238C509.088 54.3266 509.502 56.4047 509.43 58.4945C509.52 60.4691 509.14 62.4368 508.323 64.2364C507.506 66.036 506.274 67.6162 504.729 68.8475C500.936 71.5499 496.333 72.8715 491.685 72.5925Z" fill="#0600FF"/>
<path d="M511 34.7757V25.7625H550.162V34.7757H511ZM525.426 71.8658V26.3491H535.803V71.8696L525.426 71.8658Z" fill="#0600FF"/>
<path d="M555.84 71.8696V25.7625H566.149V71.8696H555.84ZM563.735 34.6433V25.7625H588.678V34.6433H563.735ZM563.735 52.6679V43.984H586.709V52.6679H563.735ZM563.735 71.8696V62.9888H589.056V71.8696H563.735Z" fill="#0600FF"/>
<path d="M595.98 71.8696V25.7625H603.224L606.289 34.9707V71.8716L595.98 71.8696ZM627.765 71.8696L600.678 37.0598L603.224 25.7625L630.375 60.5723L627.765 71.8696ZM627.765 71.8696L625.025 62.6615V25.7606H635.402V71.8677L627.765 71.8696Z" fill="#0600FF"/>
<path d="M641.008 34.7757V25.7625H680.17V34.7757H641.008ZM655.432 71.8658V26.3491H665.809V71.8696L655.432 71.8658Z" fill="#0600FF"/>
<path d="M685.848 71.8696V25.7625H696.158V71.8696H685.848Z" fill="#0600FF"/>
<path d="M727.032 72.655C723.723 72.6886 720.44 72.0666 717.372 70.8251C714.477 69.6474 711.839 67.9171 709.605 65.7308C707.393 63.5666 705.64 60.9788 704.45 58.1217C702.012 52.1015 702.012 45.3679 704.45 39.3477C705.636 36.5039 707.378 33.9263 709.575 31.767C711.772 29.6077 714.379 27.9103 717.242 26.7749C720.315 25.556 723.596 24.9455 726.902 24.9772C730.175 24.9475 733.423 25.5582 736.462 26.7749C739.34 27.9355 741.967 29.6422 744.198 31.801C746.408 33.9451 748.152 36.5218 749.322 39.3704C750.536 42.3654 751.146 45.5717 751.114 48.8038C751.141 52.0205 750.519 55.2096 749.286 58.1804C748.107 61.0152 746.378 63.588 744.198 65.7498C742.004 67.9152 739.41 69.6343 736.562 70.8118C733.54 72.0571 730.3 72.6838 727.032 72.655ZM726.902 63.2481C729.419 63.3065 731.904 62.675 734.088 61.422C736.13 60.2042 737.791 58.4398 738.884 56.3277C740.073 53.9851 740.667 51.3853 740.613 48.7583C740.636 46.768 740.306 44.7894 739.637 42.9148C739.023 41.2148 738.067 39.6588 736.829 38.3428C735.604 37.0541 734.11 36.0508 732.454 35.404C730.688 34.7149 728.805 34.3713 726.909 34.3916C724.388 34.336 721.897 34.9553 719.695 36.1856C717.646 37.3659 715.981 39.1122 714.899 41.2154C713.723 43.5526 713.139 46.1426 713.196 48.7583C713.171 50.7812 713.503 52.7928 714.176 54.7003C714.782 56.4129 715.737 57.9807 716.981 59.3044C718.199 60.5896 719.684 61.5927 721.33 62.2432C723.105 62.935 724.997 63.2762 726.902 63.2481Z" fill="#0600FF"/>
<path d="M757.578 71.8696V25.7625H764.821L767.889 34.9707V71.8716L757.578 71.8696ZM789.363 71.8696L762.276 37.0598L764.821 25.7625L791.979 60.5723L789.363 71.8696ZM789.363 71.8696L786.623 62.6615V25.7606H797V71.8677L789.363 71.8696Z" fill="#0600FF"/>
<path d="M349.273 150.239V104.132H359.582V150.239H349.273ZM357.169 113.013V104.132H382.102V113.013H357.169ZM357.169 131.038V122.361H380.141V131.047L357.169 131.038ZM357.169 150.239V141.359H382.492V150.239H357.169Z" fill="#0600FF"/>
<path d="M385.945 150.239L402.983 125.554L410.941 129.993L397.759 150.241L385.945 150.239ZM418.646 150.239L405.85 129.73H404.547L386.793 104.132H399.066L411.726 123.465H412.964L430.719 150.239H418.646ZM413.367 128.491L405.468 124.051L418.195 104.132H429.941L413.367 128.491Z" fill="#0600FF"/>
<path d="M435.168 150.239V104.132H445.477V150.239H435.168ZM443.064 133.454V125.421H452.987C454.171 125.436 455.343 125.177 456.412 124.664C457.429 124.167 458.28 123.383 458.859 122.409C459.491 121.318 459.807 120.073 459.77 118.813C459.811 117.534 459.495 116.269 458.859 115.159C458.28 114.186 457.429 113.403 456.412 112.907C455.344 112.393 454.171 112.134 452.987 112.15H443.06V104.119H454.481C457.226 104.08 459.942 104.684 462.412 105.881C464.723 107.005 466.669 108.759 468.025 110.943C469.373 113.335 470.081 116.034 470.081 118.78C470.081 121.526 469.373 124.225 468.025 126.617C466.67 128.801 464.723 130.556 462.412 131.679C459.942 132.877 457.226 133.48 454.481 133.441L443.064 133.454Z" fill="#0600FF"/>
<path d="M498.216 151.025C494.907 151.057 491.624 150.436 488.556 149.195C485.661 148.017 483.022 146.287 480.787 144.101C478.575 141.937 476.822 139.349 475.633 136.492C473.195 130.471 473.195 123.738 475.633 117.718C476.819 114.874 478.561 112.296 480.758 110.137C482.955 107.978 485.561 106.28 488.423 105.145C491.497 103.926 494.777 103.315 498.083 103.347C501.357 103.318 504.605 103.928 507.645 105.145C510.523 106.305 513.15 108.012 515.38 110.171C517.59 112.315 519.334 114.891 520.503 117.74C521.718 120.736 522.327 123.943 522.296 127.175C522.324 130.392 521.701 133.582 520.467 136.552C519.29 139.388 517.56 141.961 515.38 144.122C513.185 146.287 510.592 148.006 507.744 149.184C504.722 150.427 501.483 151.053 498.216 151.025ZM498.083 141.618C500.601 141.676 503.086 141.045 505.27 139.792C507.313 138.575 508.974 136.81 510.066 134.698C511.256 132.355 511.85 129.755 511.794 127.128C511.819 125.138 511.488 123.159 510.819 121.285C510.206 119.584 509.25 118.027 508.01 116.713C506.786 115.424 505.293 114.42 503.638 113.774C501.871 113.085 499.988 112.741 498.091 112.761C495.57 112.706 493.08 113.325 490.878 114.555C488.829 115.736 487.164 117.482 486.082 119.585C484.906 121.922 484.321 124.512 484.38 127.128C484.354 129.151 484.687 131.163 485.362 133.07C485.968 134.782 486.922 136.35 488.164 137.674C489.384 138.958 490.868 139.961 492.514 140.613C494.291 141.306 496.186 141.647 498.093 141.618H498.083Z" fill="#0600FF"/>
<path d="M541.615 150.957C538.249 151.047 534.901 150.423 531.792 149.127C528.944 147.816 526.415 145.899 524.383 143.51L531.04 136.849C532.418 138.467 534.089 139.809 535.966 140.804C537.921 141.774 540.082 142.255 542.264 142.206C544.012 142.305 545.75 141.885 547.26 140.999C547.82 140.653 548.28 140.166 548.595 139.587C548.909 139.008 549.067 138.357 549.053 137.699C549.074 137.148 548.984 136.599 548.789 136.083C548.595 135.568 548.298 135.097 547.918 134.698C547.025 133.827 545.971 133.139 544.815 132.673C543.514 132.108 542.1 131.573 540.573 131.07C539.008 130.555 537.472 129.956 535.972 129.276C534.461 128.6 533.037 127.745 531.73 126.729C530.421 125.693 529.361 124.376 528.63 122.874C527.824 121.276 527.357 119.528 527.259 117.741C527.16 115.954 527.432 114.165 528.057 112.488C528.682 110.811 529.647 109.281 530.891 107.995C532.136 106.709 533.632 105.694 535.287 105.014C537.956 103.912 540.822 103.367 543.709 103.415C546.752 103.374 549.772 103.954 552.584 105.118C555.087 106.142 557.336 107.7 559.176 109.683L552.452 116.408C551.241 115.108 549.818 114.025 548.242 113.206C546.767 112.498 545.149 112.141 543.514 112.162C542.032 112.086 540.559 112.437 539.27 113.174C538.774 113.475 538.366 113.903 538.091 114.414C537.815 114.925 537.68 115.5 537.7 116.081C537.684 116.601 537.781 117.118 537.984 117.597C538.187 118.076 538.492 118.505 538.877 118.855C539.792 119.655 540.843 120.286 541.98 120.717C543.262 121.243 544.676 121.767 546.222 122.288C547.768 122.809 549.312 123.407 550.855 124.081C552.383 124.75 553.802 125.643 555.065 126.731C556.358 127.86 557.412 129.237 558.165 130.78C559.03 132.684 559.443 134.761 559.371 136.851C559.461 138.825 559.081 140.793 558.265 142.593C557.448 144.392 556.216 145.972 554.672 147.204C550.876 149.911 546.268 151.235 541.615 150.957Z" fill="#0600FF"/>
<path d="M565.762 150.239V104.132H576.07V150.239H565.762ZM573.657 113.013V104.132H598.591V113.013H573.657ZM573.657 131.038V122.361H596.631V131.047L573.657 131.038ZM573.657 150.239V141.359H598.98V150.239H573.657ZM578.096 100.605L574.769 95.7057L585.146 86.0433L590.691 93.8133L578.096 100.605Z" fill="#0600FF"/>
<path d="M605.902 150.239V104.132H616.211V150.239H605.902ZM613.798 113.013V104.132H638.731V113.013H613.798ZM613.798 131.038V122.361H636.772V131.047L613.798 131.038ZM613.798 150.239V141.359H639.121V150.239H613.798Z" fill="#0600FF"/>
</g>
<defs>
<clipPath id="clip0_376_853">
<rect width="797" height="176" fill="white"/>
</clipPath>
</defs>
</svg>
