<svg width="347" height="222" viewBox="0 0 347 222" fill="none" xmlns="http://www.w3.org/2000/svg">
<g clip-path="url(#clip0_274_482)">
<path d="M119.77 63.8412C120.032 63.8407 120.288 63.9247 120.505 64.0823C120.721 64.2399 120.888 64.4637 120.984 64.7244L154.603 156.259C154.683 156.47 154.712 156.699 154.689 156.926C154.666 157.153 154.592 157.37 154.472 157.558C154.352 157.747 154.191 157.901 154.002 158.007C153.814 158.114 153.603 158.169 153.39 158.168H142.911C142.643 158.168 142.382 158.08 142.162 157.915C141.943 157.751 141.776 157.518 141.684 157.249L138.125 146.704C137.405 144.591 136.096 142.765 134.373 141.473C132.65 140.18 130.598 139.484 128.493 139.479H98.513C96.4195 139.485 94.3777 140.174 92.6607 141.454C90.9438 142.733 89.6336 144.543 88.9055 146.639L85.2322 157.271C85.1394 157.537 84.9727 157.767 84.7543 157.93C84.5359 158.092 84.2762 158.18 84.0101 158.18H74.0719C73.8589 158.18 73.6493 158.124 73.4612 158.018C73.2731 157.911 73.1123 157.757 72.9929 157.568C72.8734 157.38 72.799 157.163 72.776 156.937C72.753 156.711 72.7821 156.482 72.8609 156.271L106.726 64.7387C106.822 64.4783 106.989 64.2548 107.205 64.0976C107.422 63.9405 107.678 63.8569 107.94 63.8579H119.781L119.77 63.8412ZM109.291 130.215H117.985C119.629 130.215 121.248 129.791 122.707 128.981C124.165 128.171 125.42 126.998 126.364 125.561C127.309 124.124 127.916 122.465 128.134 120.725C128.352 118.984 128.175 117.213 127.617 115.561L121.138 96.3871C120.588 94.7596 119.584 93.3518 118.261 92.3546C116.937 91.3574 115.359 90.8191 113.739 90.8126C112.12 90.806 110.538 91.3317 109.207 92.3182C107.877 93.3047 106.862 94.7044 106.302 96.3275L99.6793 115.485C99.108 117.139 98.9192 118.916 99.1291 120.665C99.339 122.413 99.9413 124.082 100.885 125.529C101.828 126.975 103.085 128.157 104.548 128.973C106.011 129.788 107.637 130.215 109.287 130.215H109.291ZM119.777 59.084H107.935C106.779 59.0858 105.649 59.4585 104.693 60.1539C103.737 60.8493 102.998 61.8353 102.573 62.9843L68.7073 154.516C68.3612 155.451 68.2343 156.462 68.3376 157.461C68.441 158.46 68.7714 159.417 69.3001 160.248C69.8288 161.08 70.5397 161.761 71.371 162.231C72.2023 162.702 73.1287 162.949 74.0696 162.949H84.0078C85.1881 162.949 86.34 162.563 87.3084 161.842C88.2767 161.121 89.015 160.101 89.4238 158.918L93.097 148.289C93.5055 147.106 94.2435 146.086 95.2115 145.366C96.1795 144.645 97.331 144.259 98.5107 144.26H128.491C129.678 144.26 130.836 144.651 131.808 145.38C132.779 146.108 133.517 147.139 133.92 148.332L137.479 158.875C137.882 160.068 138.62 161.099 139.591 161.829C140.563 162.558 141.721 162.949 142.909 162.949H153.388C154.327 162.948 155.252 162.701 156.081 162.231C156.911 161.761 157.621 161.082 158.149 160.253C158.678 159.423 159.009 158.468 159.113 157.471C159.218 156.474 159.093 155.465 158.75 154.531L125.142 62.989C124.719 61.837 123.981 60.8476 123.025 60.1494C122.068 59.4513 120.938 59.0767 119.779 59.0745L119.777 59.084ZM109.287 125.441C108.357 125.441 107.44 125.201 106.616 124.741C105.791 124.281 105.083 123.615 104.551 122.8C104.02 121.985 103.68 121.044 103.562 120.059C103.444 119.073 103.551 118.071 103.873 117.139L110.493 97.9816C110.736 97.2765 111.177 96.6683 111.754 96.2396C112.332 95.811 113.019 95.5825 113.723 95.5854C114.426 95.5882 115.112 95.8223 115.686 96.2557C116.261 96.689 116.697 97.3008 116.935 98.0079L123.414 117.182C123.729 118.113 123.829 119.112 123.706 120.093C123.584 121.074 123.241 122.009 122.709 122.819C122.176 123.629 121.469 124.29 120.647 124.747C119.825 125.203 118.912 125.441 117.985 125.441H109.287Z" fill="#0600FF"/>
<path d="M213.911 63.8411C218.714 63.6798 223.484 64.7548 227.817 66.9752C231.216 68.751 234.062 71.5397 236.01 75.0049C237.862 78.3781 238.817 82.2273 238.772 86.1376C238.858 88.5479 238.496 90.9526 237.707 93.2125C236.917 95.4725 235.717 97.5429 234.174 99.304C233.177 100.418 232.404 101.737 231.9 103.18C231.397 104.624 231.175 106.163 231.247 107.701C231.314 109.15 231.661 110.569 232.266 111.868C232.871 113.168 233.72 114.319 234.761 115.251C235.428 115.85 236.058 116.492 236.649 117.175C240.304 121.412 242.254 127.013 242.079 132.771C242.158 137.277 241.03 141.713 238.828 145.556C236.5 149.473 233.195 152.618 229.285 154.638C224.403 157.122 219.037 158.329 213.632 158.159H177.813C177.468 158.158 177.137 158.011 176.893 157.751C176.649 157.49 176.511 157.136 176.511 156.767V65.2327C176.511 64.8639 176.649 64.5103 176.893 64.2494C177.137 63.9886 177.468 63.8418 177.813 63.8411H213.911ZM199.296 104.741H209.777C213.844 104.891 217.835 103.543 221.081 100.922C222.657 99.3496 223.914 97.4484 224.776 95.3361C225.637 93.2239 226.084 90.9454 226.089 88.6414C226.093 86.3374 225.656 84.0569 224.804 81.9405C223.951 79.8242 222.702 77.917 221.132 76.3368C217.896 73.6427 213.878 72.248 209.777 72.396H199.296C196.581 72.3998 193.979 73.5535 192.059 75.6042C190.14 77.6549 189.06 80.4352 189.056 83.3353V93.814C189.06 96.7141 190.14 99.4944 192.059 101.545C193.979 103.596 196.581 104.75 199.296 104.753V104.741ZM199.296 149.628H211.569C213.956 149.736 216.339 149.318 218.568 148.401C220.798 147.483 222.826 146.084 224.528 144.293C226.122 142.566 227.375 140.513 228.211 138.258C229.047 136.002 229.45 133.59 229.395 131.165C229.431 127.914 228.66 124.711 227.16 121.882C225.676 119.086 223.495 116.785 220.859 115.234C218.01 113.595 214.812 112.772 211.576 112.848H199.303C196.588 112.851 193.986 114.005 192.066 116.056C190.147 118.106 189.067 120.887 189.063 123.787V138.681C189.066 141.582 190.146 144.363 192.065 146.414C193.985 148.465 196.588 149.619 199.303 149.623L199.296 149.628ZM213.917 59.0745H177.813C176.283 59.0745 174.815 59.724 173.732 60.8802C172.65 62.0365 172.042 63.6047 172.042 65.2399V156.774C172.042 158.41 172.65 159.978 173.732 161.134C174.815 162.29 176.283 162.94 177.813 162.94H213.632C219.749 163.118 225.817 161.726 231.327 158.882C235.954 156.461 239.864 152.719 242.624 148.072C245.261 143.47 246.621 138.164 246.547 132.769C246.722 125.811 244.349 119.054 239.934 113.936C239.216 113.106 238.451 112.325 237.641 111.597C237.051 111.036 236.575 110.352 236.242 109.587C235.909 108.821 235.726 107.991 235.705 107.148C235.684 106.304 235.825 105.465 236.12 104.682C236.415 103.899 236.856 103.189 237.418 102.596L237.467 102.538C241.349 98.1025 243.428 92.2046 243.25 86.1352C243.288 81.3793 242.124 76.7007 239.878 72.5941C237.502 68.355 234.035 64.9348 229.891 62.7408C224.923 60.1539 219.443 58.8926 213.92 59.0649L213.917 59.0745ZM199.303 99.9747C197.772 99.974 196.305 99.3243 195.223 98.1681C194.14 97.012 193.532 95.4442 193.532 93.8092V83.3305C193.532 81.6955 194.14 80.1277 195.223 78.9716C196.305 77.8155 197.772 77.1657 199.303 77.165H209.784C212.857 77.0216 215.879 78.0353 218.324 80.0294C219.452 81.0666 220.338 82.3707 220.912 83.8379C221.486 85.3051 221.732 86.895 221.63 88.4815C221.756 90.1043 221.522 91.7359 220.947 93.2441C220.373 94.7523 219.474 96.0948 218.324 97.1629C215.863 99.1166 212.847 100.106 209.784 99.9651L199.303 99.9747ZM199.303 144.849C197.772 144.849 196.304 144.198 195.222 143.042C194.14 141.885 193.532 140.317 193.532 138.681V123.787C193.532 122.152 194.14 120.584 195.223 119.428C196.305 118.272 197.772 117.622 199.303 117.621H211.576C214.045 117.545 216.489 118.156 218.67 119.395C220.598 120.521 222.194 122.2 223.277 124.243C224.396 126.352 224.968 128.741 224.935 131.165C224.986 132.97 224.695 134.768 224.078 136.45C223.462 138.132 222.534 139.663 221.349 140.951C220.059 142.285 218.525 143.32 216.843 143.992C215.162 144.664 213.369 144.958 211.576 144.856L199.303 144.849Z" fill="#0600FF"/>
<path d="M93.3294 62.9676L59.4617 154.5C59.1156 155.434 58.9887 156.445 59.092 157.444C59.1954 158.443 59.5258 159.4 60.0545 160.232C60.5832 161.063 61.2941 161.744 62.1254 162.215C62.9567 162.686 63.8831 162.932 64.824 162.933H74.7645C75.9443 162.932 77.0957 162.546 78.0636 161.825C79.0316 161.104 79.7696 160.084 80.1782 158.901L83.8514 148.272C84.2604 147.09 84.9986 146.07 85.9664 145.35C86.9343 144.63 88.0855 144.243 89.2651 144.243H119.245C120.432 144.242 121.591 144.633 122.563 145.362C123.534 146.091 124.272 147.122 124.675 148.315L128.234 158.858C128.637 160.051 129.375 161.082 130.346 161.812C131.318 162.541 132.476 162.932 133.663 162.933H144.142C145.082 162.933 146.008 162.688 146.84 162.219C147.671 161.75 148.382 161.071 148.912 160.241C149.442 159.411 149.773 158.455 149.879 157.457C149.984 156.459 149.859 155.449 149.516 154.514L115.9 62.989C115.478 61.837 114.74 60.8476 113.784 60.1494C112.827 59.4513 111.696 59.0768 110.538 59.0745H98.6962C97.5395 59.0741 96.4093 59.4451 95.4523 60.1393C94.4953 60.8334 93.7557 61.8188 93.3294 62.9676ZM94.6231 117.12L101.243 97.9625C101.487 97.2584 101.928 96.6514 102.506 96.2236C103.083 95.7959 103.77 95.568 104.473 95.5709C105.176 95.5737 105.86 95.8072 106.435 96.2396C107.01 96.6721 107.446 97.2827 107.685 97.9888L114.164 117.163C114.479 118.094 114.579 119.093 114.456 120.074C114.333 121.055 113.991 121.99 113.459 122.8C112.926 123.61 112.219 124.271 111.397 124.728C110.575 125.184 109.662 125.422 108.735 125.422H100.041C99.1107 125.423 98.1939 125.183 97.3688 124.724C96.5437 124.264 95.8348 123.598 95.3027 122.783C94.7705 121.967 94.4307 121.027 94.3124 120.041C94.1941 119.055 94.3006 118.053 94.6231 117.12Z" fill="#E66E78"/>
<path d="M230.693 113.938C229.974 113.108 229.208 112.327 228.398 111.599C227.808 111.038 227.332 110.354 226.999 109.589C226.666 108.824 226.484 107.994 226.463 107.15C226.442 106.307 226.583 105.468 226.877 104.685C227.172 103.902 227.613 103.192 228.175 102.598L228.226 102.541C232.106 98.1054 234.185 92.21 234.008 86.1424C234.048 81.3862 232.882 76.7073 230.635 72.6013C228.259 68.3625 224.793 64.9424 220.649 62.748C215.682 60.1617 210.202 58.9004 204.679 59.0721H168.57C167.039 59.0727 165.572 59.7225 164.49 60.8786C163.407 62.0347 162.799 63.6026 162.799 65.2376V156.772C162.799 158.407 163.407 159.975 164.49 161.131C165.572 162.287 167.039 162.937 168.57 162.938H204.39C210.508 163.115 216.576 161.723 222.086 158.88C226.713 156.458 230.623 152.717 233.383 148.069C236.018 143.467 237.378 138.161 237.304 132.767C237.478 125.81 235.106 119.056 230.693 113.938ZM200.529 77.1579C203.602 77.0138 206.625 78.0277 209.069 80.0223C210.197 81.0596 211.084 82.3635 211.658 83.8307C212.232 85.2979 212.478 86.8879 212.376 88.4744C212.501 90.0972 212.267 91.7288 211.693 93.237C211.118 94.7452 210.219 96.0876 209.069 97.1557C206.608 99.1101 203.593 100.1 200.529 99.958H190.05C188.52 99.958 187.052 99.3085 185.97 98.1522C184.887 96.996 184.279 95.4277 184.279 93.7925V83.3139C184.279 81.6787 184.887 80.1105 185.97 78.9542C187.052 77.798 188.52 77.1484 190.05 77.1484L200.529 77.1579ZM212.094 140.937C210.805 142.271 209.271 143.306 207.59 143.978C205.909 144.65 204.116 144.944 202.324 144.842H190.05C188.52 144.842 187.052 144.193 185.97 143.036C184.887 141.88 184.279 140.312 184.279 138.677V123.78C184.279 122.144 184.887 120.576 185.97 119.42C187.052 118.264 188.52 117.614 190.05 117.614H202.324C204.792 117.538 207.237 118.15 209.418 119.388C211.346 120.513 212.941 122.192 214.022 124.236C215.143 126.344 215.716 128.734 215.683 131.158C215.733 132.962 215.442 134.758 214.826 136.438C214.21 138.119 213.282 139.649 212.099 140.937H212.094Z" fill="#E66E78"/>
<path d="M315.065 0H31.9328C23.4648 -1.99298e-07 15.3437 3.59325 9.3553 9.98935C3.36693 16.3855 0.00177749 25.0606 0 34.107V187.879C0 196.926 3.36435 205.603 9.35291 212.001C15.3415 218.399 23.4637 221.993 31.9328 221.993H315.065C323.534 221.993 331.656 218.399 337.645 212.001C343.633 205.603 346.998 196.926 346.998 187.879V34.107C346.996 25.0606 343.631 16.3855 337.643 9.98935C331.654 3.59325 323.533 -1.99298e-07 315.065 0ZM315.065 198.131H31.9328C29.3909 198.126 26.9545 197.045 25.1571 195.124C23.3597 193.204 22.3479 190.601 22.3431 187.886V34.107C22.3479 31.3915 23.3597 28.7887 25.1571 26.8685C26.9545 24.9483 29.3909 23.8673 31.9328 23.8623H315.065C317.607 23.8673 320.043 24.9483 321.841 26.8685C323.638 28.7887 324.65 31.3915 324.655 34.107V44.908H304.296C302.876 42.4686 300.751 40.5896 298.242 39.5556C295.734 38.5216 292.978 38.3889 290.393 39.1775C287.807 39.9662 285.533 41.6333 283.913 43.9264C282.294 46.2195 281.418 49.0137 281.418 51.8862C281.418 54.7587 282.294 57.553 283.913 59.8461C285.533 62.1392 287.807 63.8062 290.393 64.5948C292.978 65.3835 295.734 65.2507 298.242 64.2168C300.751 63.1828 302.876 61.3039 304.296 58.8644H324.655V99.6525H304.296C302.876 97.2138 300.751 95.3355 298.243 94.302C295.735 93.2684 292.98 93.136 290.395 93.9246C287.81 94.7132 285.536 96.38 283.917 98.6726C282.298 100.965 281.423 103.759 281.423 106.631C281.423 109.503 282.298 112.296 283.917 114.589C285.536 116.881 287.81 118.548 290.395 119.337C292.98 120.126 295.735 119.993 298.243 118.959C300.751 117.926 302.876 116.048 304.296 113.609H324.655V154.387H304.296C302.876 151.949 300.751 150.07 298.243 149.037C295.735 148.003 292.98 147.871 290.395 148.66C287.81 149.448 285.536 151.115 283.917 153.408C282.298 155.7 281.423 158.494 281.423 161.366C281.423 164.238 282.298 167.031 283.917 169.324C285.536 171.617 287.81 173.283 290.395 174.072C292.98 174.86 295.735 174.728 298.243 173.695C300.751 172.661 302.876 170.783 304.296 168.344H324.655V187.886C324.65 190.601 323.638 193.204 321.841 195.124C320.043 197.045 317.607 198.126 315.065 198.131Z" fill="#0600FF"/>
</g>
<defs>
<clipPath id="clip0_274_482">
<rect width="347" height="222" fill="white"/>
</clipPath>
</defs>
</svg>
