<svg width="197" height="271" viewBox="0 0 197 271" fill="none" xmlns="http://www.w3.org/2000/svg">
<g clip-path="url(#clip0_302_3504)">
<path d="M165.745 175.391C169.667 175.398 173.426 176.957 176.198 179.728C178.971 182.5 180.531 186.256 180.537 190.175V239.765C180.533 243.685 178.973 247.442 176.2 250.213C173.427 252.985 169.667 254.543 165.745 254.548H31.2546C27.3329 254.543 23.573 252.985 20.8 250.213C18.0269 247.442 16.4671 243.685 16.4628 239.765V190.175C16.4689 186.256 18.0292 182.5 20.8018 179.728C23.5745 176.957 27.3332 175.398 31.2546 175.391H165.745ZM165.745 158.939H31.2546C27.15 158.939 23.0857 159.747 19.2936 161.316C15.5015 162.886 12.0559 165.187 9.15367 168.088C6.25139 170.988 3.94923 174.432 2.37864 178.221C0.808051 182.011 -0.000216156 186.073 4.33611e-08 190.175V239.765C0.000436648 248.049 3.29351 255.993 9.15482 261.851C15.0161 267.708 22.9656 270.998 31.2546 270.998H165.745C174.035 270.998 181.984 267.708 187.846 261.85C193.707 255.992 197 248.048 197 239.764V190.175C197 186.073 196.192 182.011 194.621 178.221C193.051 174.432 190.749 170.988 187.846 168.088C184.944 165.187 181.499 162.886 177.706 161.316C173.914 159.747 169.85 158.939 165.745 158.939Z" fill="#0600FF"/>
<path d="M149.575 108.968C151.812 108.971 153.957 109.86 155.538 111.441C157.12 113.022 158.01 115.165 158.013 117.4V150.211C158.01 152.446 157.12 154.59 155.538 156.17C153.957 157.751 151.812 158.64 149.575 158.643H47.4273C45.1904 158.64 43.0459 157.751 41.4642 156.17C39.8825 154.59 38.9927 152.446 38.9901 150.211V117.4C38.9927 115.165 39.8825 113.022 41.4642 111.441C43.0459 109.86 45.1904 108.971 47.4273 108.968H149.575ZM149.575 92.5161H47.4273C40.8234 92.5161 34.49 95.1378 29.8204 99.8045C25.1507 104.471 22.5273 110.8 22.5273 117.4V150.211C22.5273 156.811 25.1507 163.14 29.8204 167.807C34.49 172.473 40.8234 175.095 47.4273 175.095H149.575C156.179 175.095 162.513 172.473 167.182 167.807C171.852 163.14 174.475 156.811 174.475 150.211V117.4C174.475 110.8 171.852 104.471 167.182 99.8045C162.513 95.1378 156.179 92.5161 149.575 92.5161Z" fill="#0600FF"/>
<path d="M127.901 73.5202C127.958 73.5202 128.012 73.5426 128.053 73.5827C128.093 73.6228 128.116 73.6772 128.117 73.7341V92.0504C128.116 92.1072 128.093 92.1616 128.053 92.2017C128.012 92.2418 127.958 92.2643 127.901 92.2643H69.1026C69.0458 92.2643 68.9914 92.2417 68.9512 92.2016C68.9111 92.1615 68.8885 92.1071 68.8885 92.0504V73.7357C68.8885 73.679 68.9111 73.6246 68.9512 73.5845C68.9914 73.5443 69.0458 73.5218 69.1026 73.5218H127.901V73.5202ZM127.901 57.0696H69.1026C64.6796 57.0696 60.4378 58.8254 57.3103 61.9509C54.1828 65.0764 52.4258 69.3155 52.4258 73.7357V92.052C52.4258 96.4722 54.1828 100.711 57.3103 103.837C60.4378 106.962 64.6796 108.718 69.1026 108.718H127.901C132.324 108.718 136.566 106.962 139.694 103.837C142.822 100.711 144.579 96.4723 144.579 92.052V73.7357C144.579 71.5469 144.148 69.3796 143.31 67.3575C142.472 65.3353 141.243 63.498 139.694 61.9504C138.146 60.4028 136.307 59.1752 134.283 58.3377C132.26 57.5003 130.091 57.0694 127.901 57.0696Z" fill="#0600FF"/>
<path d="M98.4984 36.5239C96.6257 36.5239 94.8298 37.2673 93.5056 38.5907C92.1814 39.914 91.4375 41.7088 91.4375 43.5803V57.0711H105.559V43.5803C105.559 41.7088 104.815 39.914 103.491 38.5907C102.167 37.2673 100.371 36.5239 98.4984 36.5239Z" fill="#0600FF"/>
<path d="M105.559 23.5086C105.559 25.3801 104.815 27.1749 103.491 28.4983C102.167 29.8216 100.371 30.565 98.4984 30.565C96.6257 30.565 94.8298 29.8216 93.5056 28.4983C92.1814 27.1749 91.4375 25.3801 91.4375 23.5086C91.4375 19.6111 94.6 0 98.4984 0C102.397 0 105.559 19.6078 105.559 23.5086Z" fill="#0600FF"/>
<path d="M38.1871 218.323C37.7038 217.841 37.0489 217.571 36.3663 217.571C35.6836 217.571 35.0288 217.841 34.5455 218.323L27.7003 225.164L20.8567 218.323C20.3738 217.84 19.7188 217.569 19.0359 217.569C18.353 217.569 17.698 217.84 17.2151 218.323C16.7322 218.806 16.4609 219.46 16.4609 220.143C16.4609 220.825 16.7322 221.48 17.2151 221.962L24.0603 228.803L17.2151 235.642C16.7322 236.125 16.4609 236.779 16.4609 237.462C16.4609 238.144 16.7322 238.799 17.2151 239.282C17.698 239.764 18.353 240.035 19.0359 240.035C19.7188 240.035 20.3738 239.764 20.8567 239.282L27.7003 232.441L34.5455 239.282C35.0284 239.764 35.6833 240.035 36.3663 240.035C37.0492 240.035 37.7042 239.764 38.1871 239.282C38.67 238.799 38.9412 238.144 38.9412 237.462C38.9412 236.779 38.67 236.125 38.1871 235.642L31.3418 228.803L38.1871 221.962C38.4262 221.723 38.6159 221.44 38.7453 221.127C38.8747 220.815 38.9413 220.481 38.9413 220.143C38.9413 219.805 38.8747 219.47 38.7453 219.158C38.6159 218.846 38.4262 218.562 38.1871 218.323Z" fill="#E66E78"/>
<path d="M66.5057 218.323C66.0229 217.841 65.3683 217.57 64.6858 217.57C64.0032 217.57 63.3486 217.841 62.8658 218.323L56.0206 225.164L49.177 218.323C48.6941 217.84 48.0392 217.569 47.3562 217.569C46.6733 217.569 46.0184 217.84 45.5355 218.323C45.0526 218.806 44.7813 219.46 44.7812 220.143C44.7812 220.825 45.0526 221.48 45.5355 221.962L52.3807 228.803L45.5355 235.642C45.2963 235.881 45.1067 236.165 44.9773 236.477C44.8479 236.789 44.7813 237.124 44.7812 237.462C44.7812 237.8 44.8479 238.135 44.9773 238.447C45.1067 238.759 45.2963 239.043 45.5355 239.282C45.7746 239.521 46.0584 239.71 46.3708 239.839C46.6832 239.969 47.0181 240.035 47.3562 240.035C47.6944 240.035 48.0292 239.969 48.3416 239.839C48.654 239.71 48.9379 239.521 49.177 239.282L56.0206 232.441L62.8658 239.282C63.1034 239.527 63.3875 239.723 63.7017 239.858C64.0159 239.993 64.3537 240.064 64.6956 240.066C65.0374 240.069 65.3764 240.004 65.6928 239.875C66.0092 239.745 66.2966 239.554 66.5383 239.312C66.7799 239.071 66.9711 238.783 67.1005 238.467C67.2298 238.151 67.2949 237.812 67.2919 237.471C67.2889 237.129 67.2178 236.791 67.0828 236.477C66.9478 236.164 66.7516 235.88 66.5057 235.642L59.6621 228.803L66.5057 221.962C66.7448 221.723 66.9345 221.44 67.064 221.127C67.1934 220.815 67.26 220.481 67.26 220.143C67.26 219.805 67.1934 219.47 67.064 219.158C66.9345 218.846 66.7448 218.562 66.5057 218.323Z" fill="#E66E78"/>
<path d="M94.8221 218.323C94.3393 217.841 93.6847 217.57 93.0022 217.57C92.3196 217.57 91.665 217.841 91.1822 218.323L84.337 225.164L77.4934 218.323C77.0105 217.84 76.3556 217.569 75.6726 217.569C74.9897 217.569 74.3347 217.84 73.8518 218.323C73.3689 218.806 73.0977 219.46 73.0977 220.143C73.0977 220.825 73.3689 221.48 73.8518 221.962L80.6971 228.803L73.8518 235.642C73.3689 236.125 73.0977 236.779 73.0977 237.462C73.0977 238.144 73.3689 238.799 73.8518 239.282C74.3347 239.764 74.9897 240.035 75.6726 240.035C76.3556 240.035 77.0105 239.764 77.4934 239.282L84.337 232.441L91.1822 239.282C91.4198 239.527 91.7039 239.723 92.0181 239.858C92.3322 239.993 92.6701 240.064 93.012 240.066C93.3538 240.069 93.6928 240.004 94.0092 239.875C94.3256 239.745 94.613 239.554 94.8546 239.312C95.0963 239.071 95.2874 238.783 95.4168 238.467C95.5462 238.151 95.6113 237.812 95.6083 237.471C95.6052 237.129 95.5342 236.791 95.3992 236.477C95.2642 236.164 95.068 235.88 94.8221 235.642L87.9785 228.803L94.8221 221.962C95.0612 221.723 95.2509 221.44 95.3804 221.127C95.5098 220.815 95.5764 220.481 95.5764 220.143C95.5764 219.805 95.5098 219.47 95.3804 219.158C95.2509 218.846 95.0612 218.562 94.8221 218.323Z" fill="#E66E78"/>
<path d="M123.142 218.323C122.66 217.841 122.005 217.57 121.322 217.57C120.64 217.57 119.985 217.841 119.503 218.323L112.657 225.164L105.814 218.323C105.331 217.84 104.676 217.569 103.993 217.569C103.31 217.569 102.655 217.84 102.172 218.323C101.689 218.806 101.418 219.46 101.418 220.143C101.418 220.825 101.689 221.48 102.172 221.962L109.017 228.803L102.172 235.642C101.689 236.125 101.418 236.779 101.418 237.462C101.418 238.144 101.689 238.799 102.172 239.282C102.655 239.764 103.31 240.035 103.993 240.035C104.676 240.035 105.331 239.764 105.814 239.282L112.657 232.441L119.503 239.282C119.74 239.527 120.024 239.723 120.338 239.858C120.653 239.993 120.99 240.064 121.332 240.066C121.674 240.069 122.013 240.004 122.33 239.875C122.646 239.745 122.933 239.554 123.175 239.312C123.417 239.071 123.608 238.783 123.737 238.467C123.867 238.151 123.932 237.812 123.929 237.471C123.926 237.129 123.854 236.791 123.72 236.477C123.585 236.164 123.388 235.88 123.142 235.642L116.299 228.803L123.142 221.962C123.382 221.723 123.571 221.44 123.701 221.127C123.83 220.815 123.897 220.481 123.897 220.143C123.897 219.805 123.83 219.47 123.701 219.158C123.571 218.846 123.382 218.562 123.142 218.323Z" fill="#E66E78"/>
<path d="M151.463 218.323C150.98 217.841 150.325 217.57 149.643 217.57C148.96 217.57 148.306 217.841 147.823 218.323L140.978 225.164L134.134 218.323C133.651 217.84 132.996 217.569 132.313 217.569C131.63 217.569 130.975 217.84 130.492 218.323C130.01 218.806 129.738 219.46 129.738 220.143C129.738 220.825 130.01 221.48 130.492 221.962L137.338 228.803L130.492 235.642C130.253 235.881 130.064 236.165 129.934 236.477C129.805 236.789 129.738 237.124 129.738 237.462C129.738 237.8 129.805 238.135 129.934 238.447C130.064 238.759 130.253 239.043 130.492 239.282C130.732 239.521 131.015 239.71 131.328 239.839C131.64 239.969 131.975 240.035 132.313 240.035C132.651 240.035 132.986 239.969 133.299 239.839C133.611 239.71 133.895 239.521 134.134 239.282L140.978 232.441L147.82 239.282C148.057 239.527 148.341 239.723 148.655 239.858C148.97 239.993 149.307 240.064 149.649 240.066C149.991 240.069 150.33 240.004 150.647 239.875C150.963 239.745 151.25 239.554 151.492 239.312C151.734 239.071 151.925 238.783 152.054 238.467C152.184 238.151 152.249 237.812 152.246 237.471C152.243 237.129 152.172 236.791 152.037 236.477C151.902 236.164 151.705 235.88 151.459 235.642L144.616 228.803L151.459 221.962C151.699 221.724 151.889 221.44 152.018 221.128C152.148 220.816 152.215 220.481 152.215 220.143C152.216 219.805 152.149 219.471 152.02 219.158C151.891 218.846 151.702 218.562 151.463 218.323Z" fill="#E66E78"/>
<path d="M172.939 228.803L179.783 221.962C180.266 221.48 180.537 220.825 180.537 220.143C180.537 219.46 180.266 218.806 179.783 218.323C179.3 217.84 178.645 217.569 177.962 217.569C177.279 217.569 176.624 217.84 176.141 218.323L169.298 225.164L162.454 218.323C161.971 217.84 161.316 217.569 160.634 217.569C159.951 217.569 159.296 217.84 158.813 218.323C158.33 218.806 158.059 219.46 158.059 220.143C158.059 220.825 158.33 221.48 158.813 221.962L165.656 228.803L158.813 235.642C158.33 236.125 158.059 236.779 158.059 237.462C158.059 238.144 158.33 238.799 158.813 239.282C159.296 239.764 159.951 240.035 160.634 240.035C161.316 240.035 161.971 239.764 162.454 239.282L169.298 232.441L176.141 239.282C176.381 239.521 176.664 239.71 176.977 239.839C177.289 239.969 177.624 240.035 177.962 240.035C178.3 240.035 178.635 239.969 178.948 239.839C179.26 239.71 179.544 239.521 179.783 239.282C180.022 239.043 180.212 238.759 180.341 238.447C180.471 238.134 180.537 237.8 180.537 237.462C180.537 237.124 180.471 236.789 180.341 236.477C180.212 236.165 180.022 235.881 179.783 235.642L172.939 228.803Z" fill="#E66E78"/>
<path d="M54.7149 129.802C54.5413 129.628 54.3352 129.491 54.1084 129.397C53.8816 129.303 53.6385 129.254 53.3929 129.254C53.1474 129.254 52.9042 129.303 52.6774 129.397C52.4506 129.491 52.2445 129.628 52.0709 129.802L47.1025 134.774L42.1324 129.808C41.9628 129.619 41.7563 129.466 41.5255 129.359C41.2947 129.252 41.0445 129.194 40.7902 129.187C40.5359 129.18 40.2829 129.225 40.0466 129.319C39.8104 129.414 39.5959 129.555 39.4163 129.735C39.2367 129.915 39.0958 130.13 39.0022 130.366C38.9086 130.603 38.8643 130.856 38.8719 131.11C38.8796 131.364 38.9391 131.614 39.0469 131.844C39.1546 132.074 39.3082 132.28 39.4983 132.449L44.4586 137.406L39.4967 142.375C39.1753 142.73 39.0024 143.194 39.0139 143.673C39.0253 144.151 39.2201 144.607 39.5582 144.946C39.8962 145.285 40.3515 145.481 40.8303 145.495C41.309 145.508 41.7745 145.337 42.1307 145.017L47.1008 140.05L52.0693 145.017C52.4229 145.352 52.8937 145.537 53.3812 145.53C53.8687 145.524 54.3344 145.327 54.6792 144.983C55.0239 144.638 55.2204 144.173 55.2268 143.686C55.2331 143.199 55.0489 142.728 54.7132 142.375L49.7448 137.406L54.7149 132.439C55.0642 132.089 55.2604 131.615 55.2604 131.121C55.2604 130.626 55.0642 130.152 54.7149 129.802Z" fill="#E66E78"/>
<path d="M75.2753 129.802C74.9256 129.453 74.452 129.258 73.9582 129.258C73.4645 129.258 72.9909 129.453 72.6412 129.802L67.6711 134.767L62.7026 129.802C62.5291 129.628 62.3232 129.491 62.0964 129.397C61.8697 129.303 61.6267 129.254 61.3813 129.254C61.1358 129.254 60.8928 129.303 60.666 129.396C60.4392 129.49 60.2331 129.628 60.0595 129.801C59.8859 129.974 59.7482 130.18 59.6542 130.407C59.5602 130.633 59.5118 130.876 59.5117 131.122C59.5116 131.367 59.5599 131.61 59.6538 131.836C59.7476 132.063 59.8852 132.269 60.0587 132.442L65.0157 137.406L60.0455 142.371C59.7099 142.725 59.5256 143.195 59.532 143.682C59.5383 144.17 59.7348 144.635 60.0796 144.98C60.4243 145.324 60.8901 145.52 61.3776 145.527C61.8651 145.533 62.3358 145.349 62.6895 145.014L67.6579 140.047L72.628 145.014C72.7982 145.201 73.0047 145.353 73.2352 145.458C73.4657 145.564 73.7152 145.621 73.9686 145.627C74.222 145.633 74.474 145.588 74.7092 145.493C74.9445 145.399 75.158 145.258 75.3369 145.078C75.5158 144.899 75.6563 144.685 75.7499 144.449C75.8434 144.214 75.888 143.962 75.881 143.709C75.874 143.456 75.8155 143.206 75.7091 142.977C75.6027 142.747 75.4506 142.541 75.2621 142.371L70.3068 137.406L75.2753 132.439C75.4486 132.266 75.5862 132.061 75.68 131.834C75.7738 131.608 75.8221 131.365 75.8221 131.121C75.8221 130.876 75.7738 130.633 75.68 130.407C75.5862 130.181 75.4486 129.975 75.2753 129.802Z" fill="#E66E78"/>
<path d="M95.8332 129.802C95.6597 129.628 95.4536 129.49 95.2268 129.396C95 129.303 94.7568 129.254 94.5113 129.254C94.2657 129.254 94.0226 129.303 93.7957 129.396C93.5689 129.49 93.3629 129.628 93.1893 129.802L88.2258 134.774L83.2573 129.808C83.0838 129.635 82.8778 129.497 82.6511 129.403C82.4244 129.309 82.1814 129.261 81.936 129.261C81.6905 129.261 81.4475 129.309 81.2207 129.403C80.9939 129.497 80.7878 129.634 80.6142 129.808C80.4406 129.981 80.3029 130.187 80.2089 130.413C80.1149 130.64 80.0665 130.883 80.0664 131.128C80.0663 131.373 80.1146 131.616 80.2085 131.843C80.3023 132.07 80.4399 132.275 80.6134 132.449L85.5769 137.406L80.6085 142.371C80.2728 142.725 80.0886 143.195 80.0949 143.682C80.1013 144.17 80.2978 144.635 80.6425 144.98C80.9873 145.324 81.453 145.52 81.9405 145.527C82.428 145.533 82.8988 145.349 83.2524 145.014L88.2208 140.047L93.1893 145.014C93.5429 145.349 94.0137 145.533 94.5012 145.527C94.9887 145.52 95.4544 145.324 95.7992 144.98C96.1439 144.635 96.3404 144.17 96.3468 143.682C96.3532 143.195 96.1689 142.725 95.8332 142.371L90.8598 137.406L95.83 132.439C96.1797 132.089 96.3765 131.615 96.3771 131.121C96.3777 130.627 96.1821 130.152 95.8332 129.802Z" fill="#E66E78"/>
<path d="M116.395 129.802C116.221 129.628 116.015 129.491 115.788 129.397C115.561 129.303 115.318 129.254 115.073 129.254C114.827 129.254 114.584 129.303 114.357 129.397C114.13 129.491 113.924 129.628 113.751 129.802L108.782 134.767L103.812 129.802C103.642 129.612 103.436 129.46 103.205 129.353C102.974 129.246 102.724 129.187 102.47 129.18C102.216 129.173 101.963 129.218 101.726 129.313C101.49 129.407 101.276 129.548 101.096 129.728C100.916 129.908 100.775 130.123 100.682 130.36C100.588 130.596 100.544 130.849 100.552 131.103C100.559 131.357 100.619 131.607 100.727 131.837C100.834 132.068 100.988 132.274 101.178 132.443L106.138 137.406L101.17 142.371C100.848 142.726 100.676 143.191 100.687 143.669C100.698 144.148 100.893 144.604 101.231 144.943C101.569 145.282 102.025 145.478 102.503 145.491C102.982 145.505 103.448 145.334 103.804 145.014L108.774 140.047L113.742 145.014C114.096 145.349 114.567 145.533 115.054 145.527C115.542 145.521 116.008 145.324 116.352 144.98C116.697 144.635 116.894 144.17 116.9 143.682C116.906 143.195 116.722 142.725 116.386 142.371L111.424 137.406L116.395 132.439C116.744 132.089 116.94 131.615 116.94 131.121C116.94 130.626 116.744 130.152 116.395 129.802Z" fill="#E66E78"/>
<path d="M136.955 129.802C136.782 129.628 136.576 129.49 136.349 129.396C136.122 129.303 135.879 129.254 135.633 129.254C135.388 129.254 135.145 129.303 134.918 129.396C134.691 129.49 134.485 129.628 134.311 129.802L129.343 134.767L124.375 129.802C124.201 129.628 123.995 129.491 123.768 129.397C123.542 129.303 123.299 129.254 123.053 129.254C122.808 129.254 122.565 129.302 122.338 129.396C122.111 129.49 121.905 129.628 121.731 129.801C121.558 129.974 121.42 130.18 121.326 130.407C121.232 130.633 121.184 130.876 121.184 131.121C121.184 131.367 121.232 131.61 121.326 131.836C121.42 132.063 121.557 132.269 121.731 132.442L126.697 137.406L121.727 142.371C121.392 142.725 121.207 143.195 121.214 143.682C121.22 144.17 121.417 144.635 121.761 144.98C122.106 145.324 122.572 145.52 123.059 145.527C123.547 145.533 124.018 145.349 124.371 145.014L129.34 140.047L134.308 145.014C134.662 145.349 135.133 145.533 135.62 145.527C136.108 145.52 136.573 145.324 136.918 144.98C137.263 144.635 137.459 144.17 137.466 143.682C137.472 143.195 137.288 142.725 136.952 142.371L131.984 137.406L136.952 132.439C137.302 132.089 137.499 131.615 137.499 131.121C137.5 130.627 137.304 130.152 136.955 129.802Z" fill="#E66E78"/>
<path d="M152.543 137.406L157.511 132.439C157.701 132.27 157.855 132.064 157.963 131.834C158.07 131.604 158.13 131.354 158.138 131.1C158.145 130.846 158.101 130.593 158.007 130.356C157.914 130.12 157.773 129.905 157.593 129.725C157.414 129.545 157.199 129.403 156.963 129.309C156.727 129.215 156.474 129.17 156.219 129.177C155.965 129.184 155.715 129.242 155.484 129.349C155.253 129.456 155.047 129.609 154.877 129.799L149.909 134.764L144.939 129.799C144.582 129.482 144.118 129.313 143.641 129.328C143.164 129.342 142.711 129.538 142.374 129.876C142.037 130.214 141.842 130.667 141.829 131.144C141.816 131.62 141.986 132.084 142.304 132.439L147.256 137.406L142.288 142.371C141.967 142.726 141.794 143.191 141.805 143.669C141.817 144.148 142.011 144.603 142.349 144.943C142.688 145.282 143.143 145.478 143.622 145.491C144.1 145.504 144.566 145.333 144.922 145.014L149.892 140.047L154.861 145.014C155.031 145.201 155.237 145.353 155.468 145.458C155.698 145.564 155.948 145.621 156.201 145.627C156.455 145.633 156.707 145.588 156.942 145.493C157.177 145.399 157.391 145.258 157.57 145.078C157.748 144.899 157.889 144.685 157.982 144.449C158.076 144.214 158.121 143.962 158.114 143.709C158.107 143.456 158.048 143.206 157.942 142.976C157.835 142.747 157.683 142.541 157.495 142.371L152.543 137.406Z" fill="#E66E78"/>
<path d="M76.7284 79.1088C76.642 79.0222 76.5394 78.9535 76.4264 78.9067C76.3134 78.8598 76.1923 78.8357 76.0699 78.8357C75.9476 78.8357 75.8265 78.8598 75.7135 78.9067C75.6005 78.9535 75.4978 79.0222 75.4114 79.1088L72.942 81.5766L70.4726 79.1088C70.2979 78.9342 70.0611 78.8362 69.8141 78.8362C69.5671 78.8362 69.3302 78.9342 69.1556 79.1088C68.9809 79.2833 68.8828 79.52 68.8828 79.7669C68.8828 80.0137 68.9809 80.2504 69.1556 80.4249L71.625 82.8928L69.1556 85.3606C68.9809 85.5351 68.8828 85.7719 68.8828 86.0187C68.8828 86.2655 68.9809 86.5022 69.1556 86.6768C69.3302 86.8513 69.5671 86.9494 69.8141 86.9494C70.0611 86.9494 70.2979 86.8513 70.4726 86.6768L72.942 84.2089L75.4114 86.6768C75.4976 86.7637 75.6002 86.8328 75.7132 86.8799C75.8262 86.927 75.9475 86.9512 76.0699 86.9512C76.1924 86.9512 76.3137 86.927 76.4267 86.8799C76.5397 86.8328 76.6423 86.7637 76.7284 86.6768C76.8151 86.5904 76.8838 86.4879 76.9307 86.375C76.9775 86.262 77.0017 86.141 77.0017 86.0187C77.0017 85.8964 76.9775 85.7754 76.9307 85.6625C76.8838 85.5495 76.8151 85.447 76.7284 85.3606L74.259 82.8928L76.7284 80.4249C76.903 80.2503 77.001 80.0136 77.001 79.7669C77.001 79.5201 76.903 79.2834 76.7284 79.1088Z" fill="#E66E78"/>
<path d="M86.9511 79.109C86.8647 79.0225 86.7621 78.9538 86.6491 78.9069C86.5361 78.8601 86.4149 78.8359 86.2926 78.8359C86.1703 78.8359 86.0491 78.8601 85.9361 78.9069C85.8231 78.9538 85.7205 79.0225 85.6341 79.109L83.1647 81.5769L80.6953 79.109C80.5206 78.9345 80.2837 78.8364 80.0368 78.8364C79.7898 78.8364 79.5529 78.9345 79.3782 79.109C79.2036 79.2836 79.1055 79.5203 79.1055 79.7671C79.1055 80.0139 79.2036 80.2506 79.3782 80.4252L81.8476 82.893L79.3782 85.3609C79.2036 85.5354 79.1055 85.7721 79.1055 86.0189C79.1055 86.2658 79.2036 86.5025 79.3782 86.677C79.5529 86.8516 79.7898 86.9497 80.0368 86.9497C80.2837 86.9497 80.5206 86.8516 80.6953 86.677L83.1647 84.2092L85.6341 86.677C85.8087 86.8516 86.0456 86.9497 86.2926 86.9497C86.5396 86.9497 86.7765 86.8516 86.9511 86.677C87.1258 86.5025 87.2239 86.2658 87.2239 86.0189C87.2239 85.7721 87.1258 85.5354 86.9511 85.3609L84.4817 82.893L86.9511 80.4252C87.0379 80.3389 87.1068 80.2364 87.1538 80.1235C87.2008 80.0105 87.225 79.8894 87.225 79.7671C87.225 79.6448 87.2008 79.5237 87.1538 79.4107C87.1068 79.2978 87.0379 79.1953 86.9511 79.109Z" fill="#E66E78"/>
<path d="M97.1738 79.109C97.0874 79.0225 96.9847 78.9538 96.8717 78.9069C96.7587 78.8601 96.6376 78.8359 96.5153 78.8359C96.3929 78.8359 96.2718 78.8601 96.1588 78.9069C96.0458 78.9538 95.9431 79.0225 95.8567 79.109L93.3873 81.5769L90.9179 79.109C90.7433 78.9345 90.5064 78.8364 90.2594 78.8364C90.0124 78.8364 89.7755 78.9345 89.6009 79.109C89.4262 79.2836 89.3281 79.5203 89.3281 79.7671C89.3281 80.0139 89.4262 80.2506 89.6009 80.4252L92.0703 82.893L89.6009 85.3609C89.4262 85.5354 89.3281 85.7721 89.3281 86.0189C89.3281 86.2658 89.4262 86.5025 89.6009 86.677C89.7755 86.8516 90.0124 86.9497 90.2594 86.9497C90.5064 86.9497 90.7433 86.8516 90.9179 86.677L93.3873 84.2092L95.8567 86.677C96.0314 86.8516 96.2683 86.9497 96.5153 86.9497C96.7623 86.9497 96.9991 86.8516 97.1738 86.677C97.3484 86.5025 97.4465 86.2658 97.4465 86.0189C97.4465 85.7721 97.3484 85.5354 97.1738 85.3609L94.7044 82.893L97.1738 80.4252C97.2606 80.3389 97.3295 80.2364 97.3765 80.1235C97.4235 80.0105 97.4477 79.8894 97.4477 79.7671C97.4477 79.6448 97.4235 79.5237 97.3765 79.4107C97.3295 79.2978 97.2606 79.1953 97.1738 79.109Z" fill="#E66E78"/>
<path d="M107.396 79.109C107.31 79.0225 107.207 78.9538 107.094 78.9069C106.981 78.8601 106.86 78.8359 106.738 78.8359C106.616 78.8359 106.494 78.8601 106.381 78.9069C106.268 78.9538 106.166 79.0225 106.079 79.109L103.61 81.5769L101.141 79.109C100.966 78.9345 100.729 78.8364 100.482 78.8364C100.235 78.8364 99.9982 78.9345 99.8235 79.109C99.6489 79.2836 99.5508 79.5203 99.5508 79.7671C99.5508 80.0139 99.6489 80.2506 99.8235 80.4252L102.293 82.893L99.8235 85.3609C99.6489 85.5354 99.5508 85.7721 99.5508 86.0189C99.5508 86.2658 99.6489 86.5025 99.8235 86.677C99.9982 86.8516 100.235 86.9496 100.482 86.9496C100.729 86.9496 100.966 86.8516 101.141 86.677L103.61 84.2092L106.079 86.677C106.166 86.764 106.268 86.833 106.381 86.8801C106.494 86.9272 106.615 86.9515 106.738 86.9515C106.86 86.9515 106.982 86.9272 107.095 86.8801C107.208 86.833 107.31 86.764 107.396 86.677C107.483 86.5907 107.552 86.4881 107.599 86.3752C107.645 86.2623 107.67 86.1412 107.67 86.0189C107.67 85.8967 107.645 85.7756 107.599 85.6627C107.552 85.5498 107.483 85.4472 107.396 85.3609L104.927 82.893L107.396 80.4252C107.571 80.2506 107.669 80.0139 107.669 79.7671C107.669 79.5203 107.571 79.2836 107.396 79.109Z" fill="#E66E78"/>
<path d="M117.615 79.109C117.529 79.0225 117.426 78.9538 117.313 78.9069C117.2 78.8601 117.079 78.8359 116.957 78.8359C116.834 78.8359 116.713 78.8601 116.6 78.9069C116.487 78.9538 116.385 79.0225 116.298 79.109L113.829 81.5769L111.359 79.109C111.185 78.9345 110.948 78.8364 110.701 78.8364C110.454 78.8364 110.217 78.9345 110.042 79.109C109.868 79.2836 109.77 79.5203 109.77 79.7671C109.77 80.0139 109.868 80.2506 110.042 80.4252L112.512 82.893L110.042 85.3609C109.956 85.4473 109.887 85.5499 109.84 85.6628C109.794 85.7757 109.77 85.8967 109.77 86.0189C109.77 86.1412 109.794 86.2622 109.84 86.3751C109.887 86.488 109.956 86.5906 110.042 86.677C110.129 86.7634 110.231 86.832 110.344 86.8788C110.457 86.9256 110.578 86.9497 110.701 86.9497C110.823 86.9497 110.944 86.9256 111.057 86.8788C111.17 86.832 111.273 86.7634 111.359 86.677L113.829 84.2092L116.298 86.677C116.473 86.8516 116.71 86.9497 116.957 86.9497C117.204 86.9497 117.441 86.8516 117.615 86.677C117.79 86.5025 117.888 86.2658 117.888 86.0189C117.888 85.7721 117.79 85.5354 117.615 85.3609L115.146 82.893L117.615 80.4252C117.702 80.3389 117.771 80.2364 117.818 80.1235C117.865 80.0105 117.889 79.8894 117.889 79.7671C117.889 79.6448 117.865 79.5237 117.818 79.4107C117.771 79.2978 117.702 79.1953 117.615 79.109Z" fill="#E66E78"/>
<path d="M125.368 82.8913L127.838 80.4235C128.012 80.2489 128.111 80.0122 128.111 79.7654C128.111 79.5185 128.012 79.2818 127.838 79.1073C127.663 78.9328 127.426 78.8347 127.179 78.8347C126.932 78.8347 126.695 78.9328 126.521 79.1073L124.051 81.5751L121.582 79.1073C121.407 78.9328 121.17 78.8347 120.923 78.8347C120.676 78.8347 120.44 78.9328 120.265 79.1073C120.09 79.2818 119.992 79.5185 119.992 79.7654C119.992 80.0122 120.09 80.2489 120.265 80.4235L122.734 82.8913L120.265 85.3591C120.09 85.5337 119.992 85.7704 119.992 86.0173C119.992 86.2641 120.09 86.5008 120.265 86.6753C120.44 86.8499 120.676 86.9479 120.923 86.9479C121.17 86.9479 121.407 86.8499 121.582 86.6753L124.051 84.2075L126.521 86.6753C126.695 86.8499 126.932 86.9479 127.179 86.9479C127.426 86.9479 127.663 86.8499 127.838 86.6753C128.012 86.5008 128.111 86.2641 128.111 86.0173C128.111 85.7704 128.012 85.5337 127.838 85.3591L125.368 82.8913Z" fill="#E66E78"/>
</g>
<defs>
<clipPath id="clip0_302_3504">
<rect width="197" height="271" fill="white"/>
</clipPath>
</defs>
</svg>
