<svg width="90" height="101" viewBox="0 0 90 101" fill="none" xmlns="http://www.w3.org/2000/svg">
<circle cx="45" cy="50" r="45" fill="#29BA9B"/>
<path d="M36.68 80V40.64H52.36V80H36.68ZM44.52 36.96C42.2267 36.96 40.3067 36.1867 38.76 34.64C37.2667 33.04 36.52 31.0933 36.52 28.8C36.52 26.5067 37.2667 24.5867 38.76 23.04C40.3067 21.44 42.2267 20.64 44.52 20.64C46.8667 20.64 48.7867 21.44 50.28 23.04C51.7733 24.5867 52.52 26.5067 52.52 28.8C52.52 31.0933 51.7733 33.04 50.28 34.64C48.7867 36.1867 46.8667 36.96 44.52 36.96Z" fill="white"/>
</svg>
