<svg xmlns="http://www.w3.org/2000/svg" viewBox="0 0 112.7 216.36"><defs><style>.cls-1{fill:#d3a875;}.cls-2{fill:#0600ff;}.cls-3{fill:#fff;}.cls-4{fill:#e66e78;}.cls-5{fill:#bc9264;}.cls-6{fill:#2b2b2b;}</style></defs><title>Fichier 1</title><g id="Calque_2" data-name="Calque 2"><g id="Calque_1-2" data-name="Calque 1"><path class="cls-1" d="M52.27,86.8,16.49,46.85a9,9,0,0,0-13.43,12l35.79,40a9,9,0,1,0,13.42-12"/><path class="cls-1" d="M15.79,59.47l40-35.78a9,9,0,0,0-12-13.43l-40,35.79a9,9,0,1,0,12,13.42"/><path class="cls-1" d="M46,3.62,44.54,9.46a0,0,0,0,0,0,0,6.25,6.25,0,0,0-.57.58A9,9,0,0,0,57.17,22.3l4.19,0a2.25,2.25,0,0,0,0-4.49l-1.81,0a9,9,0,0,0-.17-4.12L64.24,10a2.14,2.14,0,1,0-2.57-3.43L57.22,9.9,57,9.69l3.72-4.86a2.14,2.14,0,0,0-3.4-2.61L53.58,7.11,55.38,3a2.14,2.14,0,1,0-3.92-1.73l-2.63,6-.55.13.75-3A1.57,1.57,0,0,0,46,3.62"/><path class="cls-2" d="M11.33,38.93l14.55,9.18a5.21,5.21,0,0,1,0,8.81L11.35,66.08A5.2,5.2,0,0,1,4.07,64.3L2.44,61.5a17.89,17.89,0,0,1,0-18.07l1.6-2.73a5.21,5.21,0,0,1,7.27-1.77"/><path class="cls-3" d="M58.19,92.86c0,.34-.09.67-.15,1a14.12,14.12,0,0,1-3.23,6.66,11.15,11.15,0,0,1-1,1l-.3.28a14,14,0,0,1-3.08,2.1,13.5,13.5,0,0,1-2.58,1,14.09,14.09,0,0,1-3.82.53,13.81,13.81,0,0,1-3.82-.53,13,13,0,0,1-2.57-1,12.73,12.73,0,0,1-1.55-.9l-2.45-1.65-1.23-.83-9.89-6.67h0l-.3-.2-6-4-.3-.2a4.66,4.66,0,0,1-.91-.8,4.72,4.72,0,0,1-1.14-2.39,3.4,3.4,0,0,1-.06-.46,4.86,4.86,0,0,1,0-.54,4.7,4.7,0,0,1,1.5-3.27.76.76,0,0,1,.09-.09l1-.91,7.43-6.66,1.12-1,2.66-2.38,1.11-1,3.67-3.28,1.11-1,4.37-3.91a4.79,4.79,0,0,1,6.91.53,5,5,0,0,1,.54.81l.1.19,1.25,2.38.52,1,3.49,6.66.53,1L53,77.62l.48.92,1.26,2.39.52,1,1.41,2.69c.1.19.2.39.28.58a9.63,9.63,0,0,1,.42,1,13.88,13.88,0,0,1,.82,6.66"/><path class="cls-4" d="M41.28,104.4a.5.5,0,0,1-.5.5h-.52a13,13,0,0,1-2.57-1h3.09a.5.5,0,0,1,.5.5"/><path class="cls-4" d="M50.48,103.9a13.5,13.5,0,0,1-2.58,1H45.42a.5.5,0,1,1,0-1Z"/><path class="cls-4" d="M33.83,101a.45.45,0,0,1-.14.33l-1.23-.83h.87a.5.5,0,0,1,.5.5"/><path class="cls-4" d="M48.63,101.52H38a.5.5,0,0,1-.5-.5.5.5,0,0,1,.5-.5H48.63a.5.5,0,0,1,.5.5.51.51,0,0,1-.5.5"/><path class="cls-4" d="M54.81,100.52a11.15,11.15,0,0,1-1,1h-.59a.5.5,0,0,1-.5-.5.5.5,0,0,1,.5-.5Z"/><path class="cls-4" d="M40.78,97.24H30.12a.5.5,0,0,1-.5-.5.5.5,0,0,1,.5-.5H40.78a.5.5,0,0,1,.5.5.5.5,0,0,1-.5.5"/><path class="cls-4" d="M56.08,97.24H45.42a.5.5,0,0,1-.5-.5.5.5,0,0,1,.5-.5H56.08a.5.5,0,0,1,.5.5.5.5,0,0,1-.5.5"/><path class="cls-4" d="M33.33,93.86H22.66a.51.51,0,0,1-.5-.5.5.5,0,0,1,.5-.5H33.33a.5.5,0,0,1,.5.5.51.51,0,0,1-.5.5"/><path class="cls-4" d="M48.63,93.86H38a.5.5,0,0,1-.5-.5.5.5,0,0,1,.5-.5H48.63a.5.5,0,0,1,.5.5.51.51,0,0,1-.5.5"/><path class="cls-4" d="M58.19,92.86c0,.34-.09.67-.15,1H53.27a.5.5,0,0,1-.5-.5.5.5,0,0,1,.5-.5Z"/><path class="cls-4" d="M16.24,89.59h9.24a.5.5,0,0,0,.5-.5.5.5,0,0,0-.5-.5H15Z"/><path class="cls-4" d="M40.78,89.59H30.12a.5.5,0,0,1-.5-.5.5.5,0,0,1,.5-.5H40.78a.5.5,0,0,1,.5.5.5.5,0,0,1-.5.5"/><path class="cls-4" d="M56.08,89.59H45.42a.5.5,0,0,1-.5-.5.5.5,0,0,1,.5-.5H56.08a.5.5,0,0,1,.5.5.5.5,0,0,1-.5.5"/><path class="cls-4" d="M18.53,85.7a.5.5,0,0,1-.5.5H13.89a3.4,3.4,0,0,1-.06-.46,4.86,4.86,0,0,1,0-.54H18a.5.5,0,0,1,.5.5"/><path class="cls-4" d="M33.33,86.2H22.66a.5.5,0,0,1-.5-.5.51.51,0,0,1,.5-.5H33.33a.51.51,0,0,1,.5.5.5.5,0,0,1-.5.5"/><path class="cls-4" d="M48.63,86.2H38a.5.5,0,0,1-.5-.5.5.5,0,0,1,.5-.5H48.63a.51.51,0,0,1,.5.5.5.5,0,0,1-.5.5"/><path class="cls-4" d="M57.37,86.2h-4.1a.5.5,0,1,1,0-1H57a9.63,9.63,0,0,1,.42,1"/><path class="cls-4" d="M26,81.43a.5.5,0,0,1-.5.5H15.33a.76.76,0,0,1,.09-.09l1-.91h9a.5.5,0,0,1,.5.5"/><path class="cls-4" d="M40.78,81.93H30.12a.5.5,0,0,1-.5-.5.5.5,0,0,1,.5-.5H40.78a.5.5,0,0,1,.5.5.5.5,0,0,1-.5.5"/><path class="cls-4" d="M54.74,80.93H45.42a.5.5,0,0,0-.5.5.51.51,0,0,0,.5.5h9.84Z"/><path class="cls-4" d="M33.33,78.54H22.66a.5.5,0,0,1-.5-.5.51.51,0,0,1,.5-.5H33.33a.51.51,0,0,1,.5.5.5.5,0,0,1-.5.5"/><path class="cls-4" d="M48.63,78.54H38a.5.5,0,0,1-.5-.5.5.5,0,0,1,.5-.5H48.63a.51.51,0,0,1,.5.5.5.5,0,0,1-.5.5"/><path class="cls-4" d="M53.48,78.54h-.21a.5.5,0,0,1-.5-.5.5.5,0,0,1,.23-.42Z"/><path class="cls-4" d="M26,73.77a.5.5,0,0,1-.5.5H23.87l1.12-1h.49a.5.5,0,0,1,.5.5"/><path class="cls-4" d="M40.78,74.27H30.12a.5.5,0,0,1-.5-.5.5.5,0,0,1,.5-.5H40.78a.5.5,0,0,1,.5.5.5.5,0,0,1-.5.5"/><path class="cls-4" d="M51.25,74.27H45.42a.5.5,0,0,1,0-1h5.3Z"/><path class="cls-4" d="M33.83,70.39a.51.51,0,0,1-.5.5H27.65l1.11-1h4.57a.5.5,0,0,1,.5.5"/><path class="cls-4" d="M48.63,70.89H38a.5.5,0,0,1-.5-.5.5.5,0,0,1,.5-.5H48.63a.5.5,0,0,1,.5.5.51.51,0,0,1-.5.5"/><path class="cls-4" d="M33.54,65.61h7.24a.5.5,0,0,1,.5.5.5.5,0,0,1-.5.5H32.43Z"/><path class="cls-4" d="M47.23,66.61H45.42a.5.5,0,0,1-.5-.5.51.51,0,0,1,.5-.5h1.29Z"/><path class="cls-4" d="M45.46,63.23H38a.5.5,0,0,1-.5-.5.5.5,0,0,1,.5-.5h6.85a5,5,0,0,1,.54.81Z"/><path class="cls-2" d="M41.09,61.47h0a3.39,3.39,0,0,1,.7.07A3.66,3.66,0,0,1,44,62.86a3.16,3.16,0,0,1,.43.65l.1.19,1.25,2.37.52,1,3.5,6.66.52,1,1.75,3.35.48.93,1.26,2.38.52,1,1.41,2.69c.09.16.18.34.25.5v0c.15.31.27.6.39.92a13,13,0,0,1,.76,6.18c0,.32-.09.63-.14.94a13.26,13.26,0,0,1-3,6.2,10.55,10.55,0,0,1-.89.93,3.07,3.07,0,0,1-.26.25A13,13,0,0,1,50,103a13.18,13.18,0,0,1-2.4.93,13.14,13.14,0,0,1-7.11,0,12,12,0,0,1-2.39-.94,10.66,10.66,0,0,1-1.43-.83l-2.45-1.65L33,99.69,23.13,93l-.26-.17h0l-.06,0-6-4-.29-.2a3.2,3.2,0,0,1-.73-.64,3.7,3.7,0,0,1-.9-1.91,1.87,1.87,0,0,1,0-.32,3.38,3.38,0,0,1,0-.45A3.73,3.73,0,0,1,16,82.66l.07-.06v0h0l1-.89L24.53,75l1.13-1,2.66-2.39,1.11-1,3.67-3.29,1.11-1,4.37-3.92a3.77,3.77,0,0,1,2.51-1m0-1a4.73,4.73,0,0,0-3.18,1.23l-4.37,3.91-1.11,1-3.67,3.28-1.11,1L25,73.27l-1.12,1-7.43,6.66-1,.91a.76.76,0,0,0-.09.09,4.7,4.7,0,0,0-1.5,3.27,4.86,4.86,0,0,0,0,.54,3.4,3.4,0,0,0,.06.46A4.72,4.72,0,0,0,15,88.59a4.66,4.66,0,0,0,.91.8l.3.2,6,4,.3.2h0l9.89,6.67,1.23.83L36.14,103a12.73,12.73,0,0,0,1.55.9,13,13,0,0,0,2.57,1,13.81,13.81,0,0,0,3.82.53,14.09,14.09,0,0,0,3.82-.53,13.5,13.5,0,0,0,2.58-1,14,14,0,0,0,3.08-2.1l.3-.28a11.15,11.15,0,0,0,1-1A14.12,14.12,0,0,0,58,93.86c.06-.33.11-.66.15-1a13.88,13.88,0,0,0-.82-6.66,9.63,9.63,0,0,0-.42-1c-.08-.19-.18-.39-.28-.58l-1.41-2.69-.52-1-1.26-2.39L53,77.62l-1.75-3.35-.53-1-3.49-6.66-.52-1-1.25-2.38-.1-.19a5,5,0,0,0-.54-.81A4.71,4.71,0,0,0,42,60.55a5.12,5.12,0,0,0-.87-.08"/><path class="cls-5" d="M52.22,72.54V82.65c0,1.25,2.26,2.27,5.06,2.27s5-1,5-2.27V72.54Z"/><path class="cls-6" d="M43.88,62.65a1.82,1.82,0,1,1-1.82-1.81,1.83,1.83,0,0,1,1.82,1.81"/><path class="cls-6" d="M45.3,65.78a2.71,2.71,0,1,1-2.71-2.71,2.7,2.7,0,0,1,2.71,2.71"/><path class="cls-1" d="M72.08,60.59a22.35,22.35,0,0,1-4.77,10.22c-.21.26-.43.52-.65.77-3.49,4-8.18,6.61-12.86,5.89s-8.57-4.92-10.65-9.93a22.31,22.31,0,0,1-1.67-11.68,15.43,15.43,0,0,1,2.66-6.57,8.16,8.16,0,0,1,.5-.66,15.48,15.48,0,0,1,27.44,12"/><path class="cls-2" d="M50.58,67.39h-.06c-2.18-.55-3.09-1-3.25-1.63s.41-1.14,1.12-1.82c.3-.29.63-.61,1-1a5.34,5.34,0,0,0,1.3-3.76.26.26,0,0,1,.23-.28.25.25,0,0,1,.27.23,5.83,5.83,0,0,1-1.42,4.14c-.33.37-.68.71-1,1-.58.55-1.07,1-1,1.33s1.08.82,2.89,1.28a.25.25,0,0,1,.18.3.24.24,0,0,1-.24.19"/><path class="cls-2" d="M56.24,60.22c0,1.65.84,3,1.87,3s1.88-1.34,1.88-3-.84-3-1.88-3-1.87,1.34-1.87,3"/><path class="cls-2" d="M44.64,59.54c0,1.5.83,2.72,1.87,2.72s1.86-1.22,1.86-2.72-.83-2.72-1.86-2.72S44.64,58,44.64,59.54"/><path class="cls-2" d="M44.64,55.39a.2.2,0,0,1-.11,0,.24.24,0,0,1-.12-.33,2.6,2.6,0,0,1,3.45-1.25.26.26,0,0,1,.11.34.25.25,0,0,1-.33.11,2.1,2.1,0,0,0-2.78,1,.24.24,0,0,1-.22.14"/><path class="cls-2" d="M61.61,57.07a.24.24,0,0,1-.22-.14,3.77,3.77,0,0,0-1.8-1.81,2.59,2.59,0,0,0-2.21,0,.24.24,0,0,1-.33-.11.25.25,0,0,1,.12-.34,3.08,3.08,0,0,1,2.62,0,4.25,4.25,0,0,1,2.05,2.05.26.26,0,0,1-.12.34l-.11,0"/><path class="cls-2" d="M54.42,69.56c.26.29.44.61.17,1a3.06,3.06,0,0,0-1.33-.3A2.88,2.88,0,0,0,51,71.31c.54-1.85,3.45-1.75,3.45-1.75"/><path class="cls-6" d="M48.37,49.89a2.62,2.62,0,1,1-2.62-2.61,2.62,2.62,0,0,1,2.62,2.61"/><path class="cls-6" d="M75.14,51.91a5.6,5.6,0,1,1-5.6-5.6,5.6,5.6,0,0,1,5.6,5.6"/><path class="cls-6" d="M67.25,49.52a3.3,3.3,0,1,1-3.3-3.3,3.3,3.3,0,0,1,3.3,3.3"/><path class="cls-6" d="M71.84,68.19a3.3,3.3,0,1,1-3.3-3.3,3.3,3.3,0,0,1,3.3,3.3"/><path class="cls-6" d="M72.94,66.51a1.82,1.82,0,1,1-1.81-1.82,1.81,1.81,0,0,1,1.81,1.82"/><path class="cls-2" d="M75.71,55.71a18.42,18.42,0,0,1-3.37,10.64,2.79,2.79,0,0,1-5-1.68V52.26A1.8,1.8,0,0,0,65,50.52a33.13,33.13,0,0,1-8.79,1.12,29.55,29.55,0,0,1-11.59-2.12l-.5-.23a15.43,15.43,0,0,0-2.66,6.57,19.74,19.74,0,0,0,0,5.59.83.83,0,0,1-1.61.37,18.42,18.42,0,0,1,17-24.53c1.05,0,2.07.08,3.06.18l.13,0A18.43,18.43,0,0,1,75.71,55.71"/><path class="cls-6" d="M54.17,47.71c-.28.95-.93,1.59-1.45,1.44s-.71-1-.44-2,.92-1.59,1.44-1.44.72,1,.45,2"/><path class="cls-6" d="M47.38,46.75c-.43.88-1.18,1.4-1.67,1.16s-.52-1.15-.09-2,1.19-1.41,1.67-1.17.53,1.15.09,2"/><path class="cls-6" d="M62.2,47.21c.23.95,0,1.83-.54,2s-1.14-.55-1.37-1.5,0-1.84.53-2,1.15.55,1.38,1.51"/><path class="cls-6" d="M69.86,62.65c0,.88.44,1.58,1,1.58s1-.7,1-1.58-.44-1.58-1-1.58-1,.71-1,1.58"/><path class="cls-3" d="M54.59,70.53c-1.17,1.59-3.55,3-3.68,1.43a1.72,1.72,0,0,1,.06-.65,2.88,2.88,0,0,1,2.29-1.08,3.06,3.06,0,0,1,1.33.3"/><path class="cls-2" d="M51.56,72.88a.88.88,0,0,1-.91-.89c-.11-1.39,1-2.34,3.25-2.67a.87.87,0,0,1,.9.43.89.89,0,0,1,0,1c-.83,1.09-2.26,2.13-3.19,2.13M54,69.81H54c-1.36.2-2.95.74-2.83,2.13,0,.35.2.4.26.42.6.18,2.07-.77,2.94-1.91a.39.39,0,0,0,0-.45.37.37,0,0,0-.33-.19"/><path class="cls-2" d="M52.22,72.54h0a.25.25,0,0,1-.22-.28,1.82,1.82,0,0,1,1.16-1.46.27.27,0,0,1,.31.18.26.26,0,0,1-.18.31c-.66.17-.79,1-.79,1a.26.26,0,0,1-.25.21"/><path class="cls-3" d="M80.3,101v53.06a5.54,5.54,0,0,1-1.17,3.41,5.63,5.63,0,0,1-4.41,2.16H37.8a5.63,5.63,0,0,1-4.41-2.16,5.64,5.64,0,0,1-1.17-3.38V104.33c0-.14,0-.29,0-.43a20.83,20.83,0,0,1,.16-2.38c0-.34.08-.67.14-1a22.69,22.69,0,0,1,.78-3.28c.1-.33.21-.67.34-1a23.27,23.27,0,0,1,3.74-6.65c.27-.34.55-.68.84-1a22.2,22.2,0,0,1,2.46-2.39c.41-.35.84-.69,1.28-1A23.72,23.72,0,0,1,52.2,80.93a23.91,23.91,0,0,1,3.71-.29h4a19.85,19.85,0,0,1,3.38.29,19.53,19.53,0,0,1,3.75,1,20.14,20.14,0,0,1,5.7,3.27c.4.32.78.65,1.14,1a19.67,19.67,0,0,1,2.17,2.39c.25.32.49.66.72,1a18.92,18.92,0,0,1,1.81,3.27c.15.33.29.66.41,1a18.79,18.79,0,0,1,.74,2.38c.08.33.15.66.21,1A19.72,19.72,0,0,1,80.3,101"/><path class="cls-4" d="M41.28,158a.5.5,0,0,1-.5.5H34.4a5.63,5.63,0,0,1-1-1h7.39a.5.5,0,0,1,.5.5"/><path class="cls-4" d="M56.08,157.5H45.42a.5.5,0,0,0-.5.5.5.5,0,0,0,.5.5H56.08a.5.5,0,0,0,.5-.5.5.5,0,0,0-.5-.5"/><path class="cls-4" d="M71.38,157.5H60.72a.51.51,0,0,0-.5.5.5.5,0,0,0,.5.5H71.38a.5.5,0,0,0,.5-.5.5.5,0,0,0-.5-.5"/><path class="cls-4" d="M79.13,157.5a5.63,5.63,0,0,1-1,1H76a.5.5,0,0,1-.5-.5.5.5,0,0,1,.5-.5Z"/><path class="cls-4" d="M33.83,154.62a.51.51,0,0,1-.5.5h-1a5.47,5.47,0,0,1-.1-1h1.11a.5.5,0,0,1,.5.5"/><path class="cls-4" d="M38,155.12H48.63a.51.51,0,0,0,.5-.5.5.5,0,0,0-.5-.5H38a.5.5,0,0,0-.5.5.5.5,0,0,0,.5.5"/><path class="cls-4" d="M53.27,155.12H63.93a.5.5,0,0,0,.5-.5.5.5,0,0,0-.5-.5H53.27a.5.5,0,0,0-.5.5.5.5,0,0,0,.5.5"/><path class="cls-4" d="M68.57,155.12H79.23a.5.5,0,0,0,.5-.5.5.5,0,0,0-.5-.5H68.57a.5.5,0,0,0-.5.5.5.5,0,0,0,.5.5"/><path class="cls-4" d="M41.28,150.34a.5.5,0,0,1-.5.5H32.22v-1h8.56a.5.5,0,0,1,.5.5"/><path class="cls-4" d="M56.58,150.35a.5.5,0,0,0-.5-.5H45.42a.5.5,0,0,0-.5.5.5.5,0,0,0,.5.5H56.08a.5.5,0,0,0,.5-.5"/><path class="cls-4" d="M71.88,150.35a.5.5,0,0,0-.5-.5H60.72a.5.5,0,0,0-.5.5.51.51,0,0,0,.5.5H71.38a.5.5,0,0,0,.5-.5"/><path class="cls-4" d="M80.3,149.84v1H76a.5.5,0,0,1-.5-.5.5.5,0,0,1,.5-.5Z"/><path class="cls-4" d="M33.83,147a.5.5,0,0,1-.5.5H32.22v-1h1.11a.5.5,0,0,1,.5.5"/><path class="cls-4" d="M38,147.46H48.63a.5.5,0,0,0,.5-.5.51.51,0,0,0-.5-.5H38a.5.5,0,0,0-.5.5.5.5,0,0,0,.5.5"/><path class="cls-4" d="M53.27,147.46H63.93a.5.5,0,0,0,.5-.5.5.5,0,0,0-.5-.5H53.27a.5.5,0,0,0-.5.5.5.5,0,0,0,.5.5"/><path class="cls-4" d="M68.57,147.46H79.23a.5.5,0,0,0,.5-.5.5.5,0,0,0-.5-.5H68.57a.5.5,0,0,0-.5.5.5.5,0,0,0,.5.5"/><path class="cls-4" d="M41.28,142.69a.5.5,0,0,1-.5.5H32.22v-1h8.56a.5.5,0,0,1,.5.5"/><path class="cls-4" d="M56.58,142.69a.5.5,0,0,0-.5-.5H45.42a.5.5,0,0,0-.5.5.5.5,0,0,0,.5.5H56.08a.5.5,0,0,0,.5-.5"/><path class="cls-4" d="M71.88,142.69a.5.5,0,0,0-.5-.5H60.72a.5.5,0,0,0-.5.5.51.51,0,0,0,.5.5H71.38a.5.5,0,0,0,.5-.5"/><path class="cls-4" d="M80.3,142.19v1H76a.5.5,0,0,1-.5-.5.5.5,0,0,1,.5-.5Z"/><path class="cls-4" d="M33.83,139.3a.5.5,0,0,1-.5.5H32.22v-1h1.11a.51.51,0,0,1,.5.5"/><path class="cls-4" d="M38,138.8a.5.5,0,0,0-.5.5.5.5,0,0,0,.5.5H48.63a.5.5,0,0,0,.5-.5.51.51,0,0,0-.5-.5Z"/><path class="cls-4" d="M53.27,139.8H63.93a.5.5,0,0,0,.5-.5.5.5,0,0,0-.5-.5H53.27a.5.5,0,0,0-.5.5.5.5,0,0,0,.5.5"/><path class="cls-4" d="M68.57,139.8H79.23a.5.5,0,0,0,.5-.5.5.5,0,0,0-.5-.5H68.57a.5.5,0,0,0-.5.5.5.5,0,0,0,.5.5"/><path class="cls-4" d="M41.28,135a.5.5,0,0,1-.5.5H32.22v-1h8.56a.5.5,0,0,1,.5.5"/><path class="cls-4" d="M56.58,135a.5.5,0,0,0-.5-.5H45.42a.5.5,0,0,0-.5.5.5.5,0,0,0,.5.5H56.08a.5.5,0,0,0,.5-.5"/><path class="cls-4" d="M71.88,135a.5.5,0,0,0-.5-.5H60.72a.51.51,0,0,0-.5.5.5.5,0,0,0,.5.5H71.38a.5.5,0,0,0,.5-.5"/><path class="cls-4" d="M80.3,134.53v1H76a.5.5,0,0,1,0-1Z"/><path class="cls-4" d="M33.83,131.65a.51.51,0,0,1-.5.5H32.22v-1h1.11a.5.5,0,0,1,.5.5"/><path class="cls-4" d="M37.47,131.65a.5.5,0,0,0,.5.5H48.63a.51.51,0,0,0,.5-.5.5.5,0,0,0-.5-.5H38a.5.5,0,0,0-.5.5"/><path class="cls-4" d="M53.27,131.15a.5.5,0,0,0-.5.5.5.5,0,0,0,.5.5H63.93a.5.5,0,0,0,.5-.5.5.5,0,0,0-.5-.5Z"/><path class="cls-4" d="M68.57,132.15H79.23a.5.5,0,0,0,.5-.5.5.5,0,0,0-.5-.5H68.57a.5.5,0,0,0-.5.5.5.5,0,0,0,.5.5"/><path class="cls-4" d="M41.28,127.37a.5.5,0,0,1-.5.5H32.22v-1h8.56a.5.5,0,0,1,.5.5"/><path class="cls-4" d="M45.42,127.87H56.08a.5.5,0,0,0,.5-.5.5.5,0,0,0-.5-.5H45.42a.5.5,0,0,0-.5.5.5.5,0,0,0,.5.5"/><path class="cls-4" d="M71.88,127.37a.5.5,0,0,0-.5-.5H60.72a.51.51,0,0,0-.5.5.5.5,0,0,0,.5.5H71.38a.5.5,0,0,0,.5-.5"/><path class="cls-4" d="M80.3,126.87v1H76a.5.5,0,0,1-.5-.5.5.5,0,0,1,.5-.5Z"/><path class="cls-4" d="M33.83,124a.51.51,0,0,1-.5.5H32.22v-1h1.11a.5.5,0,0,1,.5.5"/><path class="cls-4" d="M37.47,124a.5.5,0,0,0,.5.5H48.63a.51.51,0,0,0,.5-.5.5.5,0,0,0-.5-.5H38a.5.5,0,0,0-.5.5"/><path class="cls-4" d="M52.77,124a.5.5,0,0,0,.5.5H63.93a.5.5,0,0,0,.5-.5.5.5,0,0,0-.5-.5H53.27a.5.5,0,0,0-.5.5"/><path class="cls-4" d="M79.23,123.49H68.57a.5.5,0,0,0-.5.5.5.5,0,0,0,.5.5H79.23a.5.5,0,0,0,.5-.5.5.5,0,0,0-.5-.5"/><path class="cls-4" d="M41.28,119.71a.5.5,0,0,1-.5.5H32.22v-1h8.56a.5.5,0,0,1,.5.5"/><path class="cls-4" d="M45.42,120.22H56.08a.5.5,0,0,0,.5-.5.5.5,0,0,0-.5-.5H45.42a.5.5,0,0,0-.5.5.5.5,0,0,0,.5.5"/><path class="cls-4" d="M60.72,120.22H71.38a.5.5,0,0,0,.5-.5.5.5,0,0,0-.5-.5H60.72a.5.5,0,0,0-.5.5.51.51,0,0,0,.5.5"/><path class="cls-4" d="M80.3,119.21v1H76a.5.5,0,0,1-.5-.5.5.5,0,0,1,.5-.5Z"/><path class="cls-4" d="M33.83,116.33a.5.5,0,0,1-.5.5H32.22v-1h1.11a.5.5,0,0,1,.5.5"/><path class="cls-4" d="M37.47,116.33a.5.5,0,0,0,.5.5H48.63a.5.5,0,0,0,.5-.5.51.51,0,0,0-.5-.5H38a.5.5,0,0,0-.5.5"/><path class="cls-4" d="M52.77,116.33a.5.5,0,0,0,.5.5H63.93a.5.5,0,0,0,.5-.5.5.5,0,0,0-.5-.5H53.27a.5.5,0,0,0-.5.5"/><path class="cls-4" d="M79.23,115.83H68.57a.5.5,0,0,0-.5.5.5.5,0,0,0,.5.5H79.23a.5.5,0,0,0,.5-.5.5.5,0,0,0-.5-.5"/><path class="cls-4" d="M41.28,112.06a.5.5,0,0,1-.5.5H32.22v-1h8.56a.5.5,0,0,1,.5.5"/><path class="cls-4" d="M45.42,112.56H56.08a.5.5,0,0,0,.5-.5.5.5,0,0,0-.5-.5H45.42a.5.5,0,0,0-.5.5.5.5,0,0,0,.5.5"/><path class="cls-4" d="M60.72,112.56H71.38a.5.5,0,0,0,.5-.5.5.5,0,0,0-.5-.5H60.72a.5.5,0,0,0-.5.5.51.51,0,0,0,.5.5"/><path class="cls-4" d="M80.3,111.56v1H76a.5.5,0,0,1-.5-.5.5.5,0,0,1,.5-.5Z"/><path class="cls-4" d="M33.83,108.67a.5.5,0,0,1-.5.5H32.22v-1h1.11a.51.51,0,0,1,.5.5"/><path class="cls-4" d="M37.47,108.67a.5.5,0,0,0,.5.5H48.63a.5.5,0,0,0,.5-.5.51.51,0,0,0-.5-.5H38a.5.5,0,0,0-.5.5"/><path class="cls-4" d="M52.77,108.67a.5.5,0,0,0,.5.5H63.93a.5.5,0,0,0,.5-.5.5.5,0,0,0-.5-.5H53.27a.5.5,0,0,0-.5.5"/><path class="cls-4" d="M79.23,108.17H68.57a.5.5,0,0,0-.5.5.5.5,0,0,0,.5.5H79.23a.5.5,0,0,0,.5-.5.5.5,0,0,0-.5-.5"/><path class="cls-4" d="M41.28,104.4a.5.5,0,0,1-.5.5H32.22v-.57c0-.14,0-.29,0-.43h8.55a.5.5,0,0,1,.5.5"/><path class="cls-4" d="M45.42,104.9H56.08a.5.5,0,0,0,.5-.5.5.5,0,0,0-.5-.5H45.42a.5.5,0,0,0-.5.5.5.5,0,0,0,.5.5"/><path class="cls-4" d="M60.72,104.9H71.38a.5.5,0,0,0,.5-.5.5.5,0,0,0-.5-.5H60.72a.51.51,0,0,0-.5.5.5.5,0,0,0,.5.5"/><path class="cls-4" d="M80.3,103.9v1H76a.5.5,0,0,1,0-1Z"/><path class="cls-4" d="M33.83,101a.51.51,0,0,1-.5.5h-.94c0-.34.08-.67.14-1h.8a.5.5,0,0,1,.5.5"/><path class="cls-4" d="M37.47,101a.5.5,0,0,0,.5.5H48.63a.51.51,0,0,0,.5-.5.5.5,0,0,0-.5-.5H38a.5.5,0,0,0-.5.5"/><path class="cls-4" d="M52.77,101a.5.5,0,0,0,.5.5H63.93a.5.5,0,0,0,.5-.5.5.5,0,0,0-.5-.5H53.27a.5.5,0,0,0-.5.5"/><path class="cls-4" d="M79.23,100.52H68.57a.5.5,0,0,0-.5.5.5.5,0,0,0,.5.5H79.23a.5.5,0,0,0,.5-.5.5.5,0,0,0-.5-.5"/><path class="cls-4" d="M41.28,96.74a.5.5,0,0,1-.5.5H33.31c.1-.33.21-.67.34-1h7.13a.5.5,0,0,1,.5.5"/><path class="cls-4" d="M45.42,97.24H56.08a.5.5,0,0,0,.5-.5.5.5,0,0,0-.5-.5H45.42a.5.5,0,0,0-.5.5.5.5,0,0,0,.5.5"/><path class="cls-4" d="M60.72,97.24H71.38a.5.5,0,0,0,.5-.5.5.5,0,0,0-.5-.5H60.72a.51.51,0,0,0-.5.5.5.5,0,0,0,.5.5"/><path class="cls-4" d="M79.94,97.24H76a.5.5,0,0,1-.5-.5.5.5,0,0,1,.5-.5h3.7c.08.33.15.66.21,1"/><path class="cls-4" d="M37.47,93.36a.5.5,0,0,0,.5.5H48.63a.51.51,0,0,0,.5-.5.5.5,0,0,0-.5-.5H38a.5.5,0,0,0-.5.5"/><path class="cls-4" d="M52.77,93.36a.5.5,0,0,0,.5.5H63.93a.5.5,0,0,0,.5-.5.5.5,0,0,0-.5-.5H53.27a.5.5,0,0,0-.5.5"/><path class="cls-4" d="M79,93.86H68.57a.5.5,0,0,1-.5-.5.5.5,0,0,1,.5-.5h10c.15.33.29.66.41,1"/><path class="cls-4" d="M41.28,89.09a.5.5,0,0,1-.5.5H37.39c.27-.34.55-.68.84-1h2.55a.5.5,0,0,1,.5.5"/><path class="cls-4" d="M45.42,89.59H56.08a.5.5,0,0,0,.5-.5.5.5,0,0,0-.5-.5H45.42a.5.5,0,0,0-.5.5.5.5,0,0,0,.5.5"/><path class="cls-4" d="M71.38,89.59a.5.5,0,0,0,.5-.5.5.5,0,0,0-.5-.5H60.72a.5.5,0,0,0-.5.5.51.51,0,0,0,.5.5Z"/><path class="cls-4" d="M76.77,89.59H76a.5.5,0,0,1-.5-.5.5.5,0,0,1,.5-.5h0c.25.32.49.66.72,1"/><path class="cls-4" d="M49.13,85.7a.5.5,0,0,1-.5.5H40.69c.41-.35.84-.69,1.28-1h6.66a.5.5,0,0,1,.5.5"/><path class="cls-4" d="M52.77,85.7a.5.5,0,0,0,.5.5H63.93a.5.5,0,0,0,.5-.5.5.5,0,0,0-.5-.5H53.27a.5.5,0,0,0-.5.5"/><path class="cls-4" d="M73.88,86.2H68.57a.5.5,0,0,1,0-1h4.17c.4.32.78.65,1.14,1"/><path class="cls-4" d="M56.58,81.43a.5.5,0,0,1-.5.5H48.22a23,23,0,0,1,4-1h3.88a.5.5,0,0,1,.5.5"/><path class="cls-4" d="M67,81.93H60.72a.51.51,0,0,1-.5-.5.5.5,0,0,1,.5-.5h2.57a19.53,19.53,0,0,1,3.75,1"/><path class="cls-2" d="M59.91,81.64a18.43,18.43,0,0,1,3.22.28,18.2,18.2,0,0,1,3.56,1A19,19,0,0,1,72.11,86c.4.32.75.63,1.08,1a18.53,18.53,0,0,1,2.07,2.28c.21.26.42.56.69,1a18.21,18.21,0,0,1,1.72,3.12c.16.35.28.64.39.94a18.23,18.23,0,0,1,.7,2.26c.07.31.14.62.2,1a19.44,19.44,0,0,1,.34,3.6v53.06a4.47,4.47,0,0,1-1,2.79,4.35,4.35,0,0,1-.83.83,4.57,4.57,0,0,1-2.79.95H37.8a4.57,4.57,0,0,1-4.5-3.72,5,5,0,0,1-.08-.82V104.33c0-.12,0-.24,0-.36v-.06a20.44,20.44,0,0,1,.15-2.27c0-.32.08-.63.14-1a21.84,21.84,0,0,1,.75-3.15c.11-.38.21-.67.32-1a22.39,22.39,0,0,1,3.58-6.37c.31-.38.56-.68.81-1A21.25,21.25,0,0,1,41.34,87c.41-.35.82-.67,1.22-.95a22.28,22.28,0,0,1,6-3.14,22,22,0,0,1,3.8-1,23.62,23.62,0,0,1,3.56-.28Zm0-1h-4a23.91,23.91,0,0,0-3.71.29A23.72,23.72,0,0,0,42,85.2c-.44.31-.87.65-1.28,1a22.2,22.2,0,0,0-2.46,2.39c-.29.32-.57.66-.84,1a23.27,23.27,0,0,0-3.74,6.65c-.13.33-.24.67-.34,1a22.69,22.69,0,0,0-.78,3.28c-.06.33-.1.66-.14,1a20.83,20.83,0,0,0-.16,2.38c0,.14,0,.29,0,.43v49.79a5.64,5.64,0,0,0,1.17,3.38,5.63,5.63,0,0,0,4.41,2.16H74.72a5.58,5.58,0,0,0,5.58-5.57V101a19.72,19.72,0,0,0-.36-3.79c-.06-.34-.13-.67-.21-1A18.79,18.79,0,0,0,79,93.86c-.12-.34-.26-.67-.41-1a18.92,18.92,0,0,0-1.81-3.27c-.23-.34-.47-.68-.72-1a19.67,19.67,0,0,0-2.17-2.39c-.36-.35-.74-.68-1.14-1A20.14,20.14,0,0,0,67,81.93a19.53,19.53,0,0,0-3.75-1,19.85,19.85,0,0,0-3.38-.29"/><path class="cls-1" d="M112.2,201.66l-4.39-4.1,0,0a7.1,7.1,0,0,0-.22-.79,9,9,0,0,0-17.12,5.58l-2,3.68a2.24,2.24,0,0,0,3.94,2.15l.87-1.59a8.94,8.94,0,0,0,3.68,1.87l.81,6.06a2.14,2.14,0,1,0,4.25-.57l-.74-5.51.29-.09L104,214a2.14,2.14,0,1,0,3.93-1.7l-2.44-5.66,2.71,3.58a2.14,2.14,0,1,0,3.41-2.58l-3.94-5.22a5.44,5.44,0,0,0,.15-.54l2.28,2.13a1.57,1.57,0,1,0,2.14-2.3"/><path class="cls-1" d="M66.53,96.55,78.3,148.89a9,9,0,1,0,17.58-4L84.11,92.6a9,9,0,0,0-17.58,4"/><path class="cls-1" d="M78.28,148.76l11.77,52.33a9,9,0,1,0,17.58-4L95.86,144.8a9,9,0,0,0-17.58,4"/><path class="cls-2" d="M95,160.69,79.12,154a5.21,5.21,0,0,1-1.41-8.69l12.87-11.39a5.22,5.22,0,0,1,7.47.59l2.06,2.5A17.91,17.91,0,0,1,103,154.82l-1.15,3A5.21,5.21,0,0,1,95,160.69"/><path class="cls-3" d="M99.83,115.83a4,4,0,0,1-.19.48,5.21,5.21,0,0,1-.28.52,4.73,4.73,0,0,1-3,2.11l-1.2.27-4.1.92h0l-14.91,3.36-4.44,1-4.8,1.08a4.75,4.75,0,0,1-4.1-1,.52.52,0,0,1-.11-.1,4.12,4.12,0,0,1-.87-1,4.72,4.72,0,0,1-.76-2.73v-.55l0-1,.06-2.38,0-1,.09-3.27,0-1,.06-2.39,0-1,.09-3.27,0-1,.07-2.38,0-1,.09-3.28,0-.83a1,1,0,0,1,0-.17A14.34,14.34,0,0,1,62,93.86c.07-.34.15-.67.24-1a14.42,14.42,0,0,1,1.41-3.27c.2-.34.41-.68.64-1A14.21,14.21,0,0,1,84.13,85.2a14.66,14.66,0,0,1,1.24,1,14.05,14.05,0,0,1,3.2,4.16l1.27,2.5.5,1,1.21,2.38.5,1,1.67,3.28.5,1,1.21,2.38.5,1,3.38,6.66.27.54a3.76,3.76,0,0,1,.2.46,4.66,4.66,0,0,1,0,3.27"/><path class="cls-4" d="M64.43,124a.5.5,0,0,1-.5.5H62.69a4.12,4.12,0,0,1-.87-1h2.11a.5.5,0,0,1,.5.5"/><path class="cls-4" d="M76.14,123.49l-4.44,1H68.57a.5.5,0,0,1-.5-.5.5.5,0,0,1,.5-.5Z"/><path class="cls-4" d="M71.89,119.71a.5.5,0,0,1-.5.5H61.07l0-1H71.39a.51.51,0,0,1,.5.5"/><path class="cls-4" d="M86.69,120.22H76a.51.51,0,0,1-.5-.5.5.5,0,0,1,.5-.5H86.69a.5.5,0,0,1,.5.5.51.51,0,0,1-.5.5"/><path class="cls-4" d="M95.16,119.21l-4.1.92h0a.51.51,0,0,1-.22-.42.5.5,0,0,1,.5-.5Z"/><path class="cls-4" d="M64.43,116.33a.5.5,0,0,1-.5.5H61.16l0-1h2.74a.5.5,0,0,1,.5.5"/><path class="cls-4" d="M79.23,116.83H68.57a.5.5,0,0,1-.5-.5.5.5,0,0,1,.5-.5H79.23a.5.5,0,0,1,.5.5.5.5,0,0,1-.5.5"/><path class="cls-4" d="M94.53,116.83H83.87a.5.5,0,0,1-.5-.5.5.5,0,0,1,.5-.5H94.53a.5.5,0,0,1,.5.5.5.5,0,0,1-.5.5"/><path class="cls-4" d="M99.83,115.83a4,4,0,0,1-.19.48,5.21,5.21,0,0,1-.28.52h-.19a.5.5,0,0,1,0-1Z"/><path class="cls-4" d="M71.89,112.06a.51.51,0,0,1-.5.5H61.28l0-1H71.39a.5.5,0,0,1,.5.5"/><path class="cls-4" d="M86.69,112.56H76a.51.51,0,0,1-.5-.5.5.5,0,0,1,.5-.5H86.69a.5.5,0,0,1,.5.5.51.51,0,0,1-.5.5"/><path class="cls-4" d="M99.78,112.56H91.33a.5.5,0,0,1-.5-.5.5.5,0,0,1,.5-.5h8l.27.54a3.76,3.76,0,0,1,.2.46"/><path class="cls-4" d="M64.43,108.67a.5.5,0,0,1-.5.5H61.36l0-1h2.54a.5.5,0,0,1,.5.5"/><path class="cls-4" d="M79.23,109.17H68.57a.5.5,0,0,1-.5-.5.5.5,0,0,1,.5-.5H79.23a.5.5,0,0,1,.5.5.5.5,0,0,1-.5.5"/><path class="cls-4" d="M94.53,109.17H83.87a.5.5,0,0,1-.5-.5.5.5,0,0,1,.5-.5H94.53a.5.5,0,0,1,.5.5.5.5,0,0,1-.5.5"/><path class="cls-4" d="M71.89,104.4a.5.5,0,0,1-.5.5H61.48l0-1h9.89a.5.5,0,0,1,.5.5"/><path class="cls-4" d="M86.69,104.9H76a.5.5,0,0,1-.5-.5.51.51,0,0,1,.5-.5H86.69a.51.51,0,0,1,.5.5.5.5,0,0,1-.5.5"/><path class="cls-4" d="M95.93,104.9h-4.6a.5.5,0,0,1,0-1h4.1Z"/><path class="cls-4" d="M64.43,101a.5.5,0,0,1-.5.5H61.57l0-1h2.34a.5.5,0,0,1,.5.5"/><path class="cls-4" d="M79.23,101.52H68.57a.5.5,0,0,1-.5-.5.5.5,0,0,1,.5-.5H79.23a.5.5,0,0,1,.5.5.5.5,0,0,1-.5.5"/><path class="cls-4" d="M94.22,101.52H83.87a.51.51,0,0,1-.5-.5.5.5,0,0,1,.5-.5h9.85Z"/><path class="cls-4" d="M71.89,96.74a.5.5,0,0,1-.5.5H61.68l0-.83a1,1,0,0,1,0-.17h9.68a.51.51,0,0,1,.5.5"/><path class="cls-4" d="M86.69,97.24H76a.5.5,0,0,1-.5-.5.51.51,0,0,1,.5-.5H86.69a.51.51,0,0,1,.5.5.5.5,0,0,1-.5.5"/><path class="cls-4" d="M92.05,97.24h-.72a.5.5,0,0,1-.5-.5.5.5,0,0,1,.5-.5h.22Z"/><path class="cls-4" d="M64.43,93.36a.5.5,0,0,1-.5.5H62c.07-.34.15-.67.24-1h1.69a.5.5,0,0,1,.5.5"/><path class="cls-4" d="M79.23,93.86H68.57a.5.5,0,0,1-.5-.5.5.5,0,0,1,.5-.5H79.23a.5.5,0,0,1,.5.5.5.5,0,0,1-.5.5"/><path class="cls-4" d="M90.34,93.86H83.87a.51.51,0,0,1-.5-.5.5.5,0,0,1,.5-.5h6Z"/><path class="cls-4" d="M71.89,89.09a.51.51,0,0,1-.5.5H63.65c.2-.34.41-.68.64-1h7.1a.5.5,0,0,1,.5.5"/><path class="cls-4" d="M86.69,89.59H76a.51.51,0,0,1-.5-.5.5.5,0,0,1,.5-.5H86.69a.5.5,0,0,1,.5.5.51.51,0,0,1-.5.5"/><path class="cls-4" d="M79.23,86.2H68.57a.5.5,0,0,1-.5-.5.5.5,0,0,1,.5-.5H79.23a.5.5,0,0,1,.5.5.5.5,0,0,1-.5.5"/><path class="cls-4" d="M85.37,86.2h-1.5a.5.5,0,0,1,0-1h.26a14.66,14.66,0,0,1,1.24,1"/><path class="cls-2" d="M75.9,83.57A13.15,13.15,0,0,1,83.54,86c.41.3.79.6,1.17.94a13,13,0,0,1,3,3.86l1.26,2.5.51,1,1.2,2.38.51,1L92.82,101l.51,1,1.2,2.38.51,1L98.41,112l.29.56c0,.11.1.22.15.35a3.75,3.75,0,0,1,0,2.58v0a2.52,2.52,0,0,1-.12.29l0,.07a3.58,3.58,0,0,1-.21.39A3.75,3.75,0,0,1,96.14,118l-1.2.27-4,.89h0l-.11,0-14.91,3.36-4.44,1-4.81,1.08a3.84,3.84,0,0,1-.83.09,3.76,3.76,0,0,1-2.4-.87h0v0l-.09-.08a3.12,3.12,0,0,1-.67-.77,3.68,3.68,0,0,1-.6-2.17v-.54l0-1,.06-2.38,0-1,.09-3.28,0-1,.06-2.39,0-1,.09-3.28,0-1,.07-2.39,0-1,.09-3.28v-1A12.82,12.82,0,0,1,63,94.06c.06-.32.14-.63.22-.92a13,13,0,0,1,1.31-3c.23-.39.41-.68.59-.93A13.22,13.22,0,0,1,73,83.9a12.9,12.9,0,0,1,2.9-.33m0-1a14.49,14.49,0,0,0-3.12.35,14.24,14.24,0,0,0-8.49,5.67c-.23.32-.44.66-.64,1a14.42,14.42,0,0,0-1.41,3.27c-.09.33-.17.66-.24,1a14.34,14.34,0,0,0-.29,2.38,1,1,0,0,0,0,.17l0,.83-.09,3.28,0,1-.07,2.38,0,1-.09,3.27,0,1-.06,2.39,0,1-.09,3.27,0,1-.06,2.38,0,1v.55a4.72,4.72,0,0,0,.76,2.73,4.12,4.12,0,0,0,.87,1,.52.52,0,0,0,.11.1,4.75,4.75,0,0,0,4.1,1l4.8-1.08,4.44-1,14.91-3.36h0l4.1-.92,1.2-.27a4.73,4.73,0,0,0,3-2.11,5.21,5.21,0,0,0,.28-.52,4,4,0,0,0,.19-.48,4.66,4.66,0,0,0,0-3.27,3.76,3.76,0,0,0-.2-.46l-.27-.54-3.38-6.66-.5-1-1.21-2.38-.5-1-1.67-3.28-.5-1-1.21-2.38-.5-1-1.27-2.5a14.05,14.05,0,0,0-3.2-4.16,14.66,14.66,0,0,0-1.24-1,14.22,14.22,0,0,0-8.23-2.63"/></g></g></svg>