<svg xmlns="http://www.w3.org/2000/svg" viewBox="0 0 101.12 116.3"><defs><style>.cls-1{fill:#efca9a;}.cls-2{fill:#2b2b2b;}.cls-3{fill:#fff;}.cls-4{fill:#e66e78;}.cls-5{fill:#0600ff;}.cls-10,.cls-6{fill:none;stroke:#0600ff;}.cls-6{stroke-miterlimit:10;}.cls-7{fill:#af895f;}.cls-8{fill:#d8b182;}.cls-9{fill:#ffe3bb;}.cls-10{stroke-linecap:round;stroke-linejoin:round;stroke-width:0.5px;}</style></defs><title>Fichier 4</title><g id="Calque_2" data-name="Calque 2"><g id="Calque_1-2" data-name="Calque 1"><path class="cls-1" d="M46,53.92l35.79,40a9,9,0,0,0,13.42-12l-35.78-40A9,9,0,0,0,46,53.92"/><path class="cls-2" d="M41.81,6A20.3,20.3,0,0,0,27.38,0,27.37,27.37,0,0,0,0,27.37V54.76a6.69,6.69,0,0,0,6.69,6.69h41.1v-41A20.36,20.36,0,0,0,41.81,6M38.25,40.47V34.2a11.34,11.34,0,0,1-4.92,4c-4.39,1.77-9.56.27-13.87-2.79-.17-.12-.35-.25-.52-.39V53l-8.4-5V38.9L3.07,23.57,14.26,6.89,32.53,2.21,43.72,13.48,44.85,43ZM15.35,28.38c-1.08-2.18-.95-4.45.29-5.07.94-.47,2.25.14,3.3,1.39V10.06h18.8a14.67,14.67,0,0,0-1.46-1.49A6.42,6.42,0,0,0,35.64,8,15.48,15.48,0,0,0,11.67,26a22.31,22.31,0,0,0,7,8.86,2.64,2.64,0,0,0,.29.21V31.36c-1.19,0-2.67-1.15-3.59-3"/><path class="cls-3" d="M82.39,58.9l-2.48,2.22-3.8,3.4-3,2.66-7.08,6.34L62,77.2,59.9,79A4.41,4.41,0,0,1,53,77.8L50.8,73.52,45.45,63.33l-2.83-5.39-.89-1.71a13.82,13.82,0,0,1,3-16.73c.2-.18.4-.35.61-.51a13.77,13.77,0,0,1,12.41-2.48,13.38,13.38,0,0,1,3,1.22c.33.19.65.39,1,.6l6.37,4.29L73,45.91l7.83,5.27,1.13.76a4.42,4.42,0,0,1,.48,7"/><path class="cls-4" d="M57.77,36.51V39.7a2.93,2.93,0,0,1-2.92,2.92H48.29a2.93,2.93,0,0,1-2.93-2.92V39a13.77,13.77,0,0,1,12.41-2.48"/><path class="cls-4" d="M68.08,42.62H63.66a2.92,2.92,0,0,1-2.92-2.92v-2c.33.19.65.39,1,.6Z"/><path class="cls-4" d="M50.08,51.87a6.21,6.21,0,0,1-6.2,6.2,6.48,6.48,0,0,1-1.26-.13l-.89-1.71a13.77,13.77,0,0,1-1.23-9.55,6.14,6.14,0,0,1,3.38-1,6.21,6.21,0,0,1,6.2,6.2"/><path class="cls-4" d="M59.25,58.07h0a6.21,6.21,0,1,1,6.2-6.21,6.22,6.22,0,0,1-6.2,6.21"/><path class="cls-4" d="M80.82,51.87a6.2,6.2,0,1,1-10.58-4.38A6.08,6.08,0,0,1,73,45.91l7.83,5.27a5.22,5.22,0,0,1,0,.69"/><path class="cls-4" d="M57.77,64V70.6a2.93,2.93,0,0,1-2.92,2.92H50.8L45.45,63.33a2.93,2.93,0,0,1,2.84-2.21h6.56A2.93,2.93,0,0,1,57.77,64"/><path class="cls-4" d="M73.14,64v3.14l-7.08,6.34h-2.4a2.92,2.92,0,0,1-2.92-2.92V64a2.92,2.92,0,0,1,2.92-2.92h6.56A2.93,2.93,0,0,1,73.14,64"/><path class="cls-4" d="M79.91,61.12l-3.8,3.4V64A2.92,2.92,0,0,1,79,61.12Z"/><path class="cls-4" d="M62,77.2,59.9,79a4.41,4.41,0,0,1-5.71.16,5.84,5.84,0,0,1,.68-.81,6.2,6.2,0,0,1,4.38-1.82,6.13,6.13,0,0,1,2.7.63"/><path class="cls-5" d="M54,36.72h0a13,13,0,0,1,3.61.51,12.5,12.5,0,0,1,2.79,1.14c.32.19.63.38.93.58l6.37,4.29,4.87,3.29,7.83,5.27,1.13.76a3.68,3.68,0,0,1,.4,5.78l-2.48,2.22L75.61,64l-3,2.66L65.56,73l-4.11,3.68L59.4,78.48a3.71,3.71,0,0,1-2.45.94,3.66,3.66,0,0,1-2.29-.81,3.7,3.7,0,0,1-1-1.16l-2.24-4.28L46.11,63l-2.83-5.39-.89-1.71a13.15,13.15,0,0,1-1.5-6.08,12.66,12.66,0,0,1,.34-2.95,13.06,13.06,0,0,1,4-6.8c.18-.16.37-.32.58-.48A13.06,13.06,0,0,1,54,36.72M54,36a13.78,13.78,0,0,0-8.6,3c-.21.16-.41.33-.61.51a13.88,13.88,0,0,0-4.25,7.18,13.77,13.77,0,0,0,1.23,9.55l.89,1.71,2.83,5.39L50.8,73.51,53,77.79A4.4,4.4,0,0,0,59.9,79L62,77.19l4.11-3.68,7.08-6.34,3-2.66,3.8-3.4,2.48-2.22a4.42,4.42,0,0,0-.48-7l-1.13-.76L73,45.9l-4.87-3.29-6.37-4.29c-.32-.21-.64-.41-1-.6a13.38,13.38,0,0,0-3-1.22A14.13,14.13,0,0,0,54,36"/><path class="cls-3" d="M13.05,115.8H60.54A8.32,8.32,0,0,0,68.72,106L62.35,71c-.82-4.54-1.41-9.12-2.11-13.69a23.32,23.32,0,0,0-23-19.76H33.36A20.18,20.18,0,0,0,13.18,57.71L4.85,106.06a8.33,8.33,0,0,0,8.2,9.74"/><path class="cls-6" d="M13.05,115.8H60.54A8.32,8.32,0,0,0,68.72,106L62.35,71c-.82-4.54-1.41-9.12-2.11-13.69a23.32,23.32,0,0,0-23-19.76H33.36A20.18,20.18,0,0,0,13.18,57.71L4.85,106.06A8.33,8.33,0,0,0,13.05,115.8Z"/><path class="cls-7" d="M80.42,34.75,83,28.32a2.13,2.13,0,0,1,4,1.59l-3.37,8.4-2-.79a2.13,2.13,0,0,1-1.18-2.77"/><path class="cls-8" d="M79.59,30.13l2.58-6.42a2.13,2.13,0,1,1,4,1.59l-2.58,6.42a2.13,2.13,0,1,1-4-1.59"/><path class="cls-1" d="M77.29,27.42l3-7.51a2.13,2.13,0,0,1,2.77-1.19,2.15,2.15,0,0,1,1.19,2.78l-3,7.5a2.13,2.13,0,1,1-4-1.58"/><path class="cls-9" d="M80.7,42.81a9,9,0,0,1-14.59-8.63h0l.71-7.83a2.15,2.15,0,0,1,2.32-1.94,2.12,2.12,0,0,1,1.44.77,2.07,2.07,0,0,1,.49,1.55L71,27.82a8.78,8.78,0,0,1,2.55-.8l2.65-6.61a2.14,2.14,0,0,1,2.77-1.19,2.17,2.17,0,0,1,.84.61A2.13,2.13,0,0,1,80.11,22l-2.17,5.41a9,9,0,0,1,2.76,15.4"/><path class="cls-9" d="M8.56,60l22.82,48.54a9,9,0,1,0,16.31-7.67L24.86,52.3A9,9,0,1,0,8.56,60"/><path class="cls-9" d="M44.16,112.43l46.2-27.25A9,9,0,0,0,81.2,69.66L35,96.91a9,9,0,0,0,9.16,15.52"/><path class="cls-9" d="M90.8,96.58a9,9,0,0,1-11-6.44L66.24,38.25a9,9,0,1,1,17.43-4.56L94.35,74.56l2.88,11a9.58,9.58,0,0,1,.21,1,9,9,0,0,1-6.64,10"/><path class="cls-8" d="M99.35,82.93a2.23,2.23,0,0,1-.56.08,2.4,2.4,0,0,1-2.41-1.77l-.24-.85,0-.14L94.64,75l-.17-.63-.42-1.51a2.41,2.41,0,0,1,1.68-3,2.65,2.65,0,0,1,.68-.09,2.43,2.43,0,0,1,2.29,1.78l.13.49,0,.07L101,80a2.43,2.43,0,0,1-1.69,3"/><path class="cls-1" d="M98.89,75.7v8.71a2.42,2.42,0,0,1-1.45,2.22,9.58,9.58,0,0,0-.21-1l-2.88-11,.09-.16,0,0a2.38,2.38,0,0,1,2-1.08,2.42,2.42,0,0,1,2.39,2,2.22,2.22,0,0,1,0,.37"/><path class="cls-9" d="M99,73.91a9.49,9.49,0,0,1-.11,1.42,9,9,0,0,1-1.39,3.54,8.53,8.53,0,0,1-1.27,1.54l0,0V86a2.38,2.38,0,0,1-.14.81,2.42,2.42,0,0,1-4.7-.81V82.82a8.71,8.71,0,0,1-1.36.1,9,9,0,1,1,0-18,8.13,8.13,0,0,1,1.92.22s0,0,0,0a8.17,8.17,0,0,1,2.13.75A9,9,0,0,1,98.77,72l0,.07A9.13,9.13,0,0,1,99,73.91"/><path class="cls-1" d="M33.74,29.53l2.31,9.84c.29,1.21-1.68,2.72-4.4,3.36s-5.15.17-5.44-1L23.9,31.84Z"/><path class="cls-9" d="M40.38,14.35a15.52,15.52,0,0,0-2.13-3.67,5.77,5.77,0,0,0-.51-.62,14.67,14.67,0,0,0-1.46-1.49A6.42,6.42,0,0,0,35.64,8,15.48,15.48,0,0,0,11.67,26a22.31,22.31,0,0,0,7,8.86,2.64,2.64,0,0,0,.29.21c.17.14.35.27.52.39,4.31,3.06,9.48,4.56,13.87,2.79a11.34,11.34,0,0,0,4.92-4,19.19,19.19,0,0,0,3.17-8.09,22.4,22.4,0,0,0-1-11.76"/><path class="cls-10" d="M32,19.73s-.12,3.15,2.23,3.54c1.88.3,5.51-.86-.1,4.14"/><path class="cls-5" d="M27,22c.38,1.6-.13,3.1-1.14,3.33s-2.12-.87-2.5-2.47.13-3.1,1.14-3.34,2.12.87,2.5,2.48"/><path class="cls-5" d="M38.14,18.66c.35,1.46-.18,2.84-1.19,3.07s-2.09-.76-2.44-2.22.19-2.84,1.19-3.07,2.1.75,2.44,2.22"/><path class="cls-10" d="M33.85,14a2.35,2.35,0,0,1,3.29.38"/><path class="cls-10" d="M24.77,17A3.39,3.39,0,0,0,21,19.9"/><path class="cls-5" d="M37.21,30.7a5.72,5.72,0,0,1-.35,1,3.53,3.53,0,0,0-1.54-.34c-1.42,0-2.57.75-2.57,1.67a1,1,0,0,0,.07.38,2,2,0,0,1-1-1.39,1,1,0,0,1,.69-1.23,25.1,25.1,0,0,0,3.31-1.21,1,1,0,0,1,1.35,1.14"/><path class="cls-5" d="M37.21,30.7a5.72,5.72,0,0,1-.35,1,3.53,3.53,0,0,0-1.54-.34c-1.42,0-2.57.75-2.57,1.67a1,1,0,0,0,.07.38,2,2,0,0,1-1-1.39,1,1,0,0,1,.69-1.23,25.1,25.1,0,0,0,3.31-1.21,1,1,0,0,1,1.35,1.14"/><path class="cls-3" d="M36.86,31.68a3,3,0,0,1-1.6,1.65,2.84,2.84,0,0,1-2.44.06,1,1,0,0,1-.07-.38c0-.92,1.15-1.67,2.57-1.67a3.53,3.53,0,0,1,1.54.34"/><path class="cls-10" d="M37.21,30.7a5.72,5.72,0,0,1-.35,1,3,3,0,0,1-1.6,1.65,2.84,2.84,0,0,1-2.44.06,2,2,0,0,1-1-1.39,1,1,0,0,1,.69-1.23,25.1,25.1,0,0,0,3.31-1.21A1,1,0,0,1,37.21,30.7Z"/><path class="cls-10" d="M35.71,33.1s0-.7-.9-.8"/><path class="cls-10" d="M24.77,22.73s-.72.67-2.63-.8"/><path class="cls-10" d="M36.52,19.5s1,.14,1.7-2.16"/><path class="cls-3" d="M42,75.25l-3.84,1.81-3,1.39L27.7,82l-6.5,3.06-4.56,2.14-1.93.91a4.4,4.4,0,0,1-3.31.19h0a4.4,4.4,0,0,1-2.71-2.59A4.23,4.23,0,0,1,8.48,85L4.88,66.44,3.83,61a13.88,13.88,0,0,1-.25-2.64,13.6,13.6,0,0,1,.59-4h0a13.71,13.71,0,0,1,3.32-5.64h0a14,14,0,0,1,4-2.88,13.73,13.73,0,0,1,8.31-1.09,13.51,13.51,0,0,1,3,.88,13.78,13.78,0,0,1,5.3,4l1.21,1.47,3.57,4.36L40.74,65l2.82,3.43a4.47,4.47,0,0,1,.68,1.14A4.41,4.41,0,0,1,42,75.25"/><path class="cls-4" d="M19.84,44.78v3.39a2.93,2.93,0,0,1-2.92,2.92H10.36a2.93,2.93,0,0,1-2.87-2.33h0a14,14,0,0,1,4-2.88,13.73,13.73,0,0,1,8.31-1.09"/><path class="cls-4" d="M29.32,51.09H25.73a2.92,2.92,0,0,1-2.92-2.92V45.66a13.78,13.78,0,0,1,5.3,4Z"/><path class="cls-4" d="M12.15,60.34A6.21,6.21,0,0,1,6,66.54a5.32,5.32,0,0,1-1.07-.1L3.83,61a13.88,13.88,0,0,1-.25-2.64,13.6,13.6,0,0,1,.59-4h0a6.21,6.21,0,0,1,8,5.94"/><path class="cls-4" d="M21.32,66.54h0a6.2,6.2,0,1,1,6.21-6.2,6.22,6.22,0,0,1-6.21,6.2"/><path class="cls-4" d="M40.74,65a6.13,6.13,0,0,1-4.05,1.52A6.19,6.19,0,0,1,32.31,56a5.71,5.71,0,0,1,.58-.51Z"/><path class="cls-4" d="M16.92,82H10.36a2.92,2.92,0,0,1-2.92-2.92V72.51a2.92,2.92,0,0,1,2.92-2.92h6.56a2.92,2.92,0,0,1,2.92,2.92v6.56A2.92,2.92,0,0,1,16.92,82"/><path class="cls-4" d="M35.21,72.51v5.94L27.7,82h-2a2.92,2.92,0,0,1-2.92-2.92V72.51a2.92,2.92,0,0,1,2.92-2.92h6.56a2.93,2.93,0,0,1,2.92,2.92"/><path class="cls-4" d="M42,75.25l-3.84,1.81V72.51a2.92,2.92,0,0,1,2.92-2.92h3.14A4.41,4.41,0,0,1,42,75.25"/><path class="cls-5" d="M17.39,45.31h0a13.38,13.38,0,0,1,5.13,1,13.06,13.06,0,0,1,5,3.75l1.21,1.46,3.57,4.36,7.85,9.58L43,68.92a3.8,3.8,0,0,1,.57,1,3.65,3.65,0,0,1-1.85,4.7l-3.83,1.81-3,1.39-7.51,3.54-6.5,3.06-4.56,2.14-1.93.91a3.52,3.52,0,0,1-1.56.35,3.79,3.79,0,0,1-.94-.12l-.25-.08a3.69,3.69,0,0,1-2.25-2.15,3.62,3.62,0,0,1-.17-.61L5.62,66.3l-1-5.41a13.07,13.07,0,0,1-.24-2.5,12.87,12.87,0,0,1,.56-3.76l0-.12A13.05,13.05,0,0,1,8,49.28l.16-.17a13.25,13.25,0,0,1,3.66-2.56,12.84,12.84,0,0,1,5.54-1.24m0-.75a13.81,13.81,0,0,0-5.86,1.31,14,14,0,0,0-4,2.88h0A13.71,13.71,0,0,0,4.17,54.4h0a13.6,13.6,0,0,0-.59,4A13.88,13.88,0,0,0,3.83,61l1,5.41L8.48,85a4.23,4.23,0,0,0,.21.74,4.4,4.4,0,0,0,2.71,2.59h0a4.6,4.6,0,0,0,1.43.23,4.36,4.36,0,0,0,1.88-.42l1.93-.91,4.56-2.14L27.7,82l7.51-3.54,3-1.39L42,75.25a4.41,4.41,0,0,0,2.22-5.66,4.47,4.47,0,0,0-.68-1.14L40.74,65l-7.85-9.57-3.57-4.36-1.21-1.47a13.78,13.78,0,0,0-5.3-4,14,14,0,0,0-5.42-1.1"/><path class="cls-2" d="M33.88,10.06H28.69a9.76,9.76,0,0,0-9.75,9.75v3a.87.87,0,0,1-1.34.73,2.08,2.08,0,0,0-2-.22c-1.24.62-1.37,2.89-.29,5.07a5.44,5.44,0,0,0,3,2.89.85.85,0,0,1,.63.81V50a1.72,1.72,0,0,1-2.6,1.48l-5-3A1.72,1.72,0,0,1,10.54,47V38.89L3.08,23.6a.13.13,0,0,1,0-.06L14.25,6.91l0,0L32.5,2.22a0,0,0,0,1,0,0L43.71,13.47s0,0,0,0l1,26.9a1.71,1.71,0,0,1-2.33,1.67l-3.07-1.18a1.71,1.71,0,0,1-1.1-1.6V34.22s0,0,0,0a19.32,19.32,0,0,0,3.16-8.08,22.4,22.4,0,0,0-1-11.76,7.07,7.07,0,0,0-6.5-4.29"/></g></g></svg>