<svg xmlns="http://www.w3.org/2000/svg" viewBox="0 0 291.25 182.75"><defs><style>.cls-1{fill:#fff;}.cls-2{fill:#0600ff;}.cls-3{fill:#e66e78;}</style></defs><title>Fichier 4</title><g id="Calque_2" data-name="Calque 2"><g id="Calque_2-2" data-name="Calque 2"><rect class="cls-1" x="125.64" y="171.32" width="5.71" height="5.71"/><path class="cls-2" d="M288.39,177h-2.85a5.72,5.72,0,0,0-5.71-5.72V85.66h2.85a2.86,2.86,0,1,0,0-5.71H268.4V45.69h2.86a2.86,2.86,0,1,0,0-5.71h-8.57a5.71,5.71,0,1,0-11.42,0H234.14a5.71,5.71,0,1,0-11.42,0H205.59a5.71,5.71,0,0,0-11.42,0H193A90.07,90.07,0,0,0,159.9,24.77V17.14h26.77a1.79,1.79,0,0,0,1.79-1.79V1.79A1.79,1.79,0,0,0,186.67,0H157.05a2.86,2.86,0,0,0-2.86,2.86V23.7a77.72,77.72,0,0,0-11.42-.85c-23.09,0-41,10.36-50.2,17.13h-1.2A5.71,5.71,0,0,0,80,40H62.82A5.71,5.71,0,0,0,51.4,40H34.27a5.71,5.71,0,0,0-11.42,0H20a2.86,2.86,0,1,0,0,5.71h2.86V80H8.57a2.86,2.86,0,1,0,0,5.71h2.85v85.66A5.72,5.72,0,0,0,5.71,177H2.86a2.86,2.86,0,1,0,0,5.71H288.39a2.86,2.86,0,1,0,0-5.71M171.32,1.91H177V15.23h-5.71Zm108.33,80h3a.95.95,0,0,1,0,1.9h-3a2.6,2.6,0,0,0,0-1.9m.18,91.37a3.81,3.81,0,0,1,3.29,1.9H279.5a5.73,5.73,0,0,0-1.14-1.9Zm-5.71-87.57H277a3,3,0,0,0,.95-.17v87.3a5.66,5.66,0,0,0-3.8-1.47Zm-5.89-43.78h3a1,1,0,0,1,0,1.91h-3a2.77,2.77,0,0,0,0-1.91m-5.54,3.81h2.86a2.72,2.72,0,0,0,.95-.18V80h-3.81Zm-5.71,80V157a2.91,2.91,0,0,1-2.92,2.92H242.78a2.92,2.92,0,0,1-2.93-2.92V125.91a11.71,11.71,0,0,1,8.58-11.32,11.41,11.41,0,0,1,8.55,11M239.85,45.69h11.42V51.4H239.85Zm0,17.13h5.71V80h-5.71Zm-5.71-17.13H238V51.4h-3.81Zm0,17.13H238V80h-3.81Zm0,63.09a11.62,11.62,0,0,1,10.24-11.62,13.57,13.57,0,0,0-2.74,2.24,13.71,13.71,0,0,0-3.69,9.38V157a4.78,4.78,0,0,0,1,2.92h-1.87a2.92,2.92,0,0,1-2.93-2.92ZM211.3,45.69h11.42V51.4H211.3ZM217,62.82h5.71V80H217Zm5.71,62.82V157a2.92,2.92,0,0,1-2.93,2.92H208.51a2.91,2.91,0,0,1-2.92-2.92V125.91a11.69,11.69,0,0,1,8.58-11.32,11.42,11.42,0,0,1,8.55,11M211.3,62.82h3.8V80h-3.8Zm-5.71-17.13h3.8V51.4h-3.8Zm4.52,68.6a13.25,13.25,0,0,0-2.73,2.24,13.72,13.72,0,0,0-3.7,9.38V157a4.79,4.79,0,0,0,1,2.92H202.8a2.91,2.91,0,0,1-2.92-2.92V125.91a11.62,11.62,0,0,1,10.23-11.62M199.88,80h-5.71V62.82h5.71ZM182.74,45.69h11.43V51.4H182.74ZM192.26,80h-3.8V62.82h3.8ZM177,45.69h3.81V51.4H177ZM125.64,165.61V91.37a5.71,5.71,0,0,0,5.71-5.71H159.9a5.71,5.71,0,0,0,5.71,5.71V110.8a6.66,6.66,0,0,1,.95,3.42V134a4.08,4.08,0,0,1-.95,2.61v29.05a5.71,5.71,0,0,0-5.71,5.71V177H131.35v-5.72a5.71,5.71,0,0,0-5.71-5.71M156.09,2.86a1,1,0,0,1,1-.95H158V24.36c-.63-.13-1.27-.24-1.91-.35ZM125.64,45.69h40V51.4h-40Zm0,40h3.8a3.81,3.81,0,0,1-3.8,3.81h-1.47a5.67,5.67,0,0,0,1.47-3.81m0,81.86a3.8,3.8,0,0,1,3.8,3.8v3.81h-3.8v-3.81a5.66,5.66,0,0,0-1.47-3.8ZM119.93,45.69h3.8V51.4h-3.8Zm0,45.68a5.65,5.65,0,0,0,3.8-1.46v77.17a5.66,5.66,0,0,0-3.8-1.47ZM97.08,45.69h11.43V51.4H97.08Zm-5.71,0h3.81V51.4H91.37Zm0,17.13h5.71V80H91.37Zm-5.71,0h3.81V80H85.66Zm0,62.82V157a2.91,2.91,0,0,1-2.92,2.92H71.46A2.92,2.92,0,0,1,68.53,157V125.91a11.69,11.69,0,0,1,8.58-11.32,11.41,11.41,0,0,1,8.55,11M68.53,45.69H80V51.4H68.53Zm0,17.13h5.71V80H68.53ZM62.82,45.69h3.81V51.4H62.82Zm0,17.13h3.81V80H62.82Zm0,63.09a11.62,11.62,0,0,1,10.23-11.62,13.52,13.52,0,0,0-2.73,2.24,13.71,13.71,0,0,0-3.69,9.38V157a4.78,4.78,0,0,0,1,2.92H65.75A2.92,2.92,0,0,1,62.82,157ZM40,45.69H51.4V51.4H40Zm5.71,17.13H51.4V80H45.69Zm5.71,62.82V157a2.92,2.92,0,0,1-2.93,2.92H37.19A2.91,2.91,0,0,1,34.27,157V125.91a11.69,11.69,0,0,1,8.58-11.32,11.42,11.42,0,0,1,8.55,11M40,62.82h3.8V80H40ZM34.27,45.69h3.8V51.4h-3.8Zm-5.71,80.22a11.62,11.62,0,0,1,10.23-11.62,13.25,13.25,0,0,0-2.73,2.24,13.72,13.72,0,0,0-3.7,9.38V157a4.79,4.79,0,0,0,1,2.92H31.48A2.91,2.91,0,0,1,28.56,157Zm259.83,54.93H2.86a.95.95,0,0,1,0-1.9H288.39a1,1,0,0,1,0,1.9"/><rect class="cls-1" x="171.32" y="1.91" width="5.71" height="13.32"/><path class="cls-1" d="M158,1.91V24.36c-.63-.13-1.27-.24-1.91-.35V2.86a1,1,0,0,1,1-.95Z"/><path class="cls-1" d="M283.63,82.81a.94.94,0,0,1-.95,1h-3a2.72,2.72,0,0,0,.18-1,2.68,2.68,0,0,0-.18-1h3a.94.94,0,0,1,.95,1"/><path class="cls-1" d="M272.21,42.83a1,1,0,0,1-.95,1h-3a2.77,2.77,0,0,0,0-1.91h3a1,1,0,0,1,.95.95"/><path class="cls-1" d="M289.34,179.89a.94.94,0,0,1-.95,1H2.86a.95.95,0,0,1,0-1.9H288.39a.94.94,0,0,1,.95.95"/><rect class="cls-1" x="119.93" y="45.69" width="3.81" height="5.71"/><rect class="cls-1" x="34.27" y="45.69" width="3.81" height="5.71"/><rect class="cls-1" x="39.98" y="45.69" width="11.42" height="5.71"/><rect class="cls-1" x="62.82" y="45.69" width="3.81" height="5.71"/><rect class="cls-1" x="68.53" y="45.69" width="11.42" height="5.71"/><rect class="cls-1" x="39.98" y="62.82" width="3.81" height="17.13"/><rect class="cls-1" x="45.69" y="62.82" width="5.71" height="17.13"/><rect class="cls-1" x="62.82" y="62.82" width="3.81" height="17.13"/><rect class="cls-1" x="68.53" y="62.82" width="5.71" height="17.13"/><rect class="cls-1" x="91.37" y="45.69" width="3.81" height="5.71"/><rect class="cls-1" x="97.08" y="45.69" width="11.42" height="5.71"/><rect class="cls-1" x="85.66" y="62.82" width="3.81" height="17.13"/><rect class="cls-1" x="91.37" y="62.82" width="5.71" height="17.13"/><rect class="cls-1" x="125.64" y="45.69" width="39.98" height="5.71"/><rect class="cls-1" x="177.03" y="45.69" width="3.81" height="5.71"/><rect class="cls-1" x="182.74" y="45.69" width="11.42" height="5.71"/><rect class="cls-1" x="205.59" y="45.69" width="3.81" height="5.71"/><rect class="cls-1" x="211.3" y="45.69" width="11.42" height="5.71"/><rect class="cls-1" x="234.14" y="45.69" width="3.81" height="5.71"/><rect class="cls-1" x="239.85" y="45.69" width="11.42" height="5.71"/><path class="cls-1" d="M277.92,85.49v87.3a5.66,5.66,0,0,0-3.8-1.47V85.66H277a3,3,0,0,0,.95-.17"/><path class="cls-1" d="M266.5,45.51V80h-3.81V45.69h2.86a2.72,2.72,0,0,0,.95-.18"/><rect class="cls-1" x="188.45" y="62.82" width="3.81" height="17.13"/><rect class="cls-1" x="194.17" y="62.82" width="5.71" height="17.13"/><rect class="cls-1" x="211.3" y="62.82" width="3.81" height="17.13"/><rect class="cls-1" x="217.01" y="62.82" width="5.71" height="17.13"/><rect class="cls-1" x="234.14" y="62.82" width="3.81" height="17.13"/><rect class="cls-1" x="239.85" y="62.82" width="5.71" height="17.13"/><path class="cls-1" d="M130.4,114.22V134a4.06,4.06,0,0,0,1.45,3.11h-3.1a3.11,3.11,0,0,1-3.11-3.11V114.22a5.7,5.7,0,0,1,5.71-5.71,5.57,5.57,0,0,1,1.83.3,6.63,6.63,0,0,0-2.78,5.41"/><path class="cls-1" d="M244.38,114.29a13.57,13.57,0,0,0-2.74,2.24,13.71,13.71,0,0,0-3.69,9.38V157a4.78,4.78,0,0,0,1,2.92h-1.87a2.92,2.92,0,0,1-2.93-2.92V125.91a11.62,11.62,0,0,1,10.24-11.62"/><path class="cls-1" d="M257,125.64V157a2.91,2.91,0,0,1-2.92,2.92H242.78a2.92,2.92,0,0,1-2.93-2.92V125.91a11.71,11.71,0,0,1,8.58-11.32,11.41,11.41,0,0,1,8.55,11"/><path class="cls-1" d="M210.11,114.29a13.25,13.25,0,0,0-2.73,2.24,13.72,13.72,0,0,0-3.7,9.38V157a4.79,4.79,0,0,0,1,2.92H202.8a2.91,2.91,0,0,1-2.92-2.92V125.91a11.62,11.62,0,0,1,10.23-11.62"/><path class="cls-1" d="M222.72,125.64V157a2.92,2.92,0,0,1-2.93,2.92H208.51a2.91,2.91,0,0,1-2.92-2.92V125.91a11.69,11.69,0,0,1,8.58-11.32,11.42,11.42,0,0,1,8.55,11"/><path class="cls-1" d="M38.79,114.29a13.25,13.25,0,0,0-2.73,2.24,13.72,13.72,0,0,0-3.7,9.38V157a4.79,4.79,0,0,0,1,2.92H31.48A2.91,2.91,0,0,1,28.56,157V125.91a11.62,11.62,0,0,1,10.23-11.62"/><path class="cls-1" d="M51.4,125.64V157a2.92,2.92,0,0,1-2.93,2.92H37.19A2.91,2.91,0,0,1,34.27,157V125.91a11.7,11.7,0,0,1,8.57-11.32,11.42,11.42,0,0,1,8.56,11"/><path class="cls-1" d="M73.05,114.29a13.52,13.52,0,0,0-2.73,2.24,13.71,13.71,0,0,0-3.69,9.38V157a4.78,4.78,0,0,0,1,2.92H65.74A2.92,2.92,0,0,1,62.82,157V125.91a11.62,11.62,0,0,1,10.23-11.62"/><path class="cls-1" d="M85.66,125.64V157a2.91,2.91,0,0,1-2.92,2.92H71.46A2.92,2.92,0,0,1,68.53,157V125.91a11.69,11.69,0,0,1,8.58-11.32,11.41,11.41,0,0,1,8.55,11"/><path class="cls-3" d="M145.88,34.27A5.71,5.71,0,1,0,140.17,40a5.71,5.71,0,0,0,5.71-5.71"/><path class="cls-3" d="M129.44,85.66h-3.8a5.67,5.67,0,0,1-1.47,3.81h1.47a3.81,3.81,0,0,0,3.8-3.81"/><path class="cls-3" d="M119.93,165.61a5.66,5.66,0,0,1,3.8,1.47V89.91a5.65,5.65,0,0,1-3.8,1.46Z"/><path class="cls-3" d="M165.61,110.8V91.38a5.72,5.72,0,0,1-5.71-5.72H131.35a5.72,5.72,0,0,1-5.71,5.72v22.84a5.7,5.7,0,0,1,5.71-5.71,5.85,5.85,0,0,1,1.83.3,6.63,6.63,0,0,0-2.78,5.41V134a4,4,0,0,0,1.45,3.11h-3.1a3.11,3.11,0,0,1-3.11-3.11v31.66a5.71,5.71,0,0,1,5.71,5.71V177H159.9v-5.72a5.71,5.71,0,0,1,5.71-5.71V136.56a4.08,4.08,0,0,0,.95-2.61V114.22a6.66,6.66,0,0,0-.95-3.42M137.06,134a3.11,3.11,0,0,1-.88,2.16h-1.72A2.16,2.16,0,0,1,132.3,134V114.22a4.76,4.76,0,0,1,2.77-4.32l.31.28a5.67,5.67,0,0,1,1.68,4Zm14.53,3.11a3.11,3.11,0,0,1-3.11-3.11V114.22a5.71,5.71,0,0,1,5.71-5.71,5.8,5.8,0,0,1,1.83.3,6.66,6.66,0,0,0-2.78,5.41V134a4,4,0,0,0,1.45,3.11ZM159.9,134a3.1,3.1,0,0,1-.87,2.16H157.3a2.16,2.16,0,0,1-2.16-2.16V114.22a4.75,4.75,0,0,1,2.78-4.32l.31.28a5.7,5.7,0,0,1,1.67,4Z"/><path class="cls-1" d="M137.06,114.22V134a3.11,3.11,0,0,1-.88,2.16h-1.72A2.16,2.16,0,0,1,132.3,134V114.22a4.76,4.76,0,0,1,2.77-4.32l.31.28a5.67,5.67,0,0,1,1.68,4"/><path class="cls-1" d="M153.24,114.22V134a4.06,4.06,0,0,0,1.45,3.11h-3.1a3.11,3.11,0,0,1-3.11-3.11V114.22a5.71,5.71,0,0,1,5.71-5.71,5.53,5.53,0,0,1,1.83.3,6.66,6.66,0,0,0-2.78,5.41"/><path class="cls-1" d="M159.9,114.22V134a3.1,3.1,0,0,1-.87,2.16H157.3a2.16,2.16,0,0,1-2.16-2.16V114.22a4.75,4.75,0,0,1,2.78-4.32l.31.28a5.7,5.7,0,0,1,1.67,4"/><path class="cls-1" d="M179.89,165.61h0a2.85,2.85,0,0,1-2.86-2.85V94.23a2.86,2.86,0,1,1,5.71,0v68.53a2.85,2.85,0,0,1-2.85,2.85"/><path class="cls-1" d="M105.65,165.61h0a2.85,2.85,0,0,1-2.86-2.85V94.23a2.86,2.86,0,1,1,5.71,0v68.53a2.84,2.84,0,0,1-2.85,2.85"/><path class="cls-1" d="M129.44,85.66a3.81,3.81,0,0,1-3.8,3.81h-1.47a5.67,5.67,0,0,0,1.47-3.81Z"/><path class="cls-1" d="M129.44,171.32h-3.8a5.66,5.66,0,0,0-1.47-3.8h1.47a3.8,3.8,0,0,1,3.8,3.8"/><path class="cls-1" d="M123.73,89.91v77.17a5.66,5.66,0,0,0-3.8-1.47V91.38a5.66,5.66,0,0,0,3.8-1.47"/><path class="cls-3" d="M186,15.23H177V1.91H186a.56.56,0,0,1,.56.56v12.2a.56.56,0,0,1-.56.56"/></g></g></svg>