<svg xmlns="http://www.w3.org/2000/svg" viewBox="0 0 99.96 157.63"><defs><style>.cls-1{fill:#ca4f57;}.cls-2{fill:#0600ff;}.cls-3{fill:#fff;}.cls-4{fill:#af895f;}.cls-5{fill:#d8b182;}.cls-6{fill:#efca9a;}.cls-7{fill:#ffe3bb;}.cls-8{fill:#e66e78;}</style></defs><title>Fichier 6</title><g id="Calque_2" data-name="Calque 2"><g id="Calque_1-2" data-name="Calque 1"><path class="cls-1" d="M34.62,65.94l13.71,43.65a19.52,19.52,0,1,0,37.24-11.7L71.85,54.24a19.51,19.51,0,1,0-37.23,11.7"/><path class="cls-2" d="M60.62,65.22v54.13a7.71,7.71,0,0,1-2.68.47H39.47a8,8,0,0,0,2-.26c.25-.07.49-.14.72-.23a7.94,7.94,0,0,0,2-1.07,7.11,7.11,0,0,0,.6-.49,8,8,0,0,0,2.62-5.19,6.34,6.34,0,0,0,0-.76V65.22c0-.31,0-.61,0-.91s0-.6-.05-.9l-.06-.7,0-.24c0-.1,0-.21,0-.31s-.06-.5-.11-.75a.28.28,0,0,0,0-.09c0-.23-.08-.46-.13-.69L47,60.32c-.09-.44-.19-.86-.31-1.29,0-.2-.11-.4-.17-.59s-.1-.35-.16-.52c-.11-.34-.22-.67-.35-1s-.15-.39-.23-.58-.26-.62-.4-.93h0c-.11-.25-.23-.49-.36-.73s-.36-.72-.56-1.07-.34-.59-.52-.88l-.07-.11c-.09-.15-.19-.31-.3-.46s-.38-.57-.59-.85L42.7,51c-.21-.28-.43-.56-.65-.83L41.9,50c-.28-.33-.57-.66-.87-1l-.27-.29c-.17-.18-.34-.35-.52-.52L40,48l-.08-.08c-.27-.25-.55-.5-.84-.74a21.44,21.44,0,0,0-1.93-1.48l-.62-.41h0a1.25,1.25,0,0,1-.48-.83,2.11,2.11,0,0,1,0-.92,2.15,2.15,0,0,0,0-1.14,24.12,24.12,0,0,1,3.22-.63l.31,0c.43,0,.85.11,1.27.18a22.52,22.52,0,0,1,3.17.76c.33.1.65.21,1,.33h0a23.12,23.12,0,0,1,6.76,3.82c.2.16.41.32.6.49.66.57,1.27,1.16,1.87,1.79h0c.27.28.53.58.78.88v0a22.27,22.27,0,0,1,2.07,2.85c.26.41.5.84.73,1.28a22.06,22.06,0,0,1,1.43,3.26,8.63,8.63,0,0,1,.28.86,23.43,23.43,0,0,1,1.06,7"/><path class="cls-3" d="M55,74.49a3.81,3.81,0,0,0,3.81,3.8.37.37,0,0,1,.37.38.36.36,0,0,1-.37.37,3.81,3.81,0,1,0,0,7.61.38.38,0,0,1,0,.75,3.81,3.81,0,1,0,0,7.61.36.36,0,0,1,.37.37.37.37,0,0,1-.37.38,3.8,3.8,0,1,0,0,7.6.37.37,0,0,1,.37.38.36.36,0,0,1-.37.37,3.81,3.81,0,1,0,0,7.61.38.38,0,0,1,0,.75,3.8,3.8,0,0,0-1.37,7.35H56A4.55,4.55,0,0,1,57,112.09a4.54,4.54,0,0,1,0-8.35,4.55,4.55,0,0,1,0-8.36A4.54,4.54,0,0,1,57,87a4.55,4.55,0,0,1,0-8.36,4.55,4.55,0,0,1,0-8.36A4.54,4.54,0,0,1,57,62a4.55,4.55,0,0,1,0-8.36,4.56,4.56,0,0,1-2.76-4.18c0-.11,0-.23,0-.34.27.28.53.58.78.88v0a3.78,3.78,0,0,0,2.07,2.85c.26.41.5.84.73,1.28a3.79,3.79,0,0,0,1,7.47.38.38,0,0,1,0,.75,3.81,3.81,0,1,0,0,7.61.38.38,0,0,1,0,.75A3.81,3.81,0,0,0,55,74.49"/><path class="cls-3" d="M46.94,119.82H45.45a4.58,4.58,0,0,1-1.23-1.56,7.11,7.11,0,0,0,.6-.49,3.81,3.81,0,0,0,2.12,2"/><path class="cls-3" d="M48.69,112.09a.38.38,0,0,1-.38.38,3.58,3.58,0,0,0-.87.11,6.34,6.34,0,0,0,0-.76v-.2a3.31,3.31,0,0,0,.83.1.38.38,0,0,1,.38.37"/><path class="cls-3" d="M48.69,103.74a.37.37,0,0,1-.38.37,3.31,3.31,0,0,0-.83.1v-.95a3.31,3.31,0,0,0,.83.1.38.38,0,0,1,.38.38"/><path class="cls-3" d="M48.69,95.38a.38.38,0,0,1-.38.38,3.31,3.31,0,0,0-.83.1v-1a3.31,3.31,0,0,0,.83.1.37.37,0,0,1,.38.37"/><path class="cls-3" d="M48.69,87a.38.38,0,0,1-.38.37,3.31,3.31,0,0,0-.83.1v-1a3.31,3.31,0,0,0,.83.1.38.38,0,0,1,.38.38"/><path class="cls-3" d="M48.69,78.67a.37.37,0,0,1-.38.37,3.31,3.31,0,0,0-.83.1v-1a3.31,3.31,0,0,0,.83.1.38.38,0,0,1,.38.38"/><path class="cls-3" d="M48.69,70.31a.38.38,0,0,1-.38.38,3.31,3.31,0,0,0-.83.1v-1a3.31,3.31,0,0,0,.83.1.38.38,0,0,1,.38.37"/><path class="cls-3" d="M48.69,62a.38.38,0,0,1-.38.37,3.64,3.64,0,0,0-1,.14c0-.1,0-.21,0-.31s-.06-.5-.11-.75a3.93,3.93,0,0,0,1.14.17.38.38,0,0,1,.38.38"/><path class="cls-3" d="M48.69,53.6a.38.38,0,0,1-.38.38,3.79,3.79,0,0,0-3,1.42c-.11-.25-.23-.49-.36-.73a4.76,4.76,0,0,1,1.52-1.07,4.55,4.55,0,0,1,0-8.36,4.56,4.56,0,0,1-2.46-2.6c.33.1.65.21,1,.33h0a3.79,3.79,0,0,0,3.28,1.9.38.38,0,1,1,0,.75,3.81,3.81,0,0,0,0,7.61.37.37,0,0,1,.38.37"/><path class="cls-3" d="M38.2,45.24a.38.38,0,0,1-.38.38,3.49,3.49,0,0,0-.65.06l-.62-.41h0a1.25,1.25,0,0,1-.48-.83,3.77,3.77,0,0,0,1.77.44.38.38,0,0,1,.38.37"/><path class="cls-3" d="M58.81,115.9a3.8,3.8,0,0,0,1.81-.46v1.67a3.8,3.8,0,0,0-1.81-.46.38.38,0,1,1,0-.75"/><path class="cls-3" d="M58.43,57.78a.38.38,0,0,1,.38-.38,3.59,3.59,0,0,0,.47,0,8.63,8.63,0,0,1,.28.86,3.67,3.67,0,0,0-.75-.08.37.37,0,0,1-.38-.37"/><path class="cls-3" d="M58.43,66.13a.38.38,0,0,1,.38-.37,3.8,3.8,0,0,0,1.81-.46V67a3.8,3.8,0,0,0-1.81-.46.38.38,0,0,1-.38-.38"/><path class="cls-3" d="M58.43,74.49a.37.37,0,0,1,.38-.37,3.8,3.8,0,0,0,1.81-.46v1.67a3.8,3.8,0,0,0-1.81-.46.38.38,0,0,1-.38-.38"/><path class="cls-3" d="M58.43,82.85a.38.38,0,0,1,.38-.38A3.8,3.8,0,0,0,60.62,82v1.67a3.8,3.8,0,0,0-1.81-.46.38.38,0,0,1-.38-.37"/><path class="cls-3" d="M60.62,90.37V92a3.69,3.69,0,0,0-1.81-.46.38.38,0,1,1,0-.75,3.8,3.8,0,0,0,1.81-.46"/><path class="cls-3" d="M58.81,99.19a3.8,3.8,0,0,0,1.81-.46v1.67a3.69,3.69,0,0,0-1.81-.46.38.38,0,0,1-.38-.38.37.37,0,0,1,.38-.37"/><path class="cls-3" d="M58.81,107.54a3.69,3.69,0,0,0,1.81-.46v1.67a3.8,3.8,0,0,0-1.81-.46.38.38,0,1,1,0-.75"/><path class="cls-3" d="M50.12,66.13a4.55,4.55,0,0,1,0,8.36,4.55,4.55,0,0,1,0,8.36,4.54,4.54,0,0,1,0,8.35,4.55,4.55,0,0,1,0,8.36,4.55,4.55,0,0,1,0,8.36,4.54,4.54,0,0,1,0,8.35,4.58,4.58,0,0,1,2.71,3.55h-.77a3.79,3.79,0,0,0-3.75-3.17.38.38,0,0,1,0-.75,3.81,3.81,0,1,0,0-7.61.38.38,0,0,1,0-.75,3.8,3.8,0,1,0,0-7.6.38.38,0,0,1-.37-.38.37.37,0,0,1,.37-.37,3.81,3.81,0,1,0,0-7.61.38.38,0,0,1,0-.75,3.81,3.81,0,1,0,0-7.61.38.38,0,0,1,0-.75,3.8,3.8,0,1,0,0-7.6.38.38,0,0,1-.37-.38.37.37,0,0,1,.37-.37,3.81,3.81,0,1,0,0-7.61.38.38,0,0,1,0-.75,3.81,3.81,0,1,0,0-7.61.37.37,0,0,1-.37-.37.38.38,0,0,1,.37-.38,3.8,3.8,0,1,0,0-7.6.38.38,0,0,1,0-.75,3.82,3.82,0,0,0,3.48-2.26c.2.16.41.32.6.49a4.67,4.67,0,0,1-2.27,2.14,4.55,4.55,0,0,1,0,8.36,4.54,4.54,0,0,1,0,8.35"/><path class="cls-3" d="M42.37,45.24a4.49,4.49,0,0,1-1.61,3.46c-.17-.18-.34-.35-.52-.52a3.81,3.81,0,0,0-.94-6.44l.31,0c.43,0,.85.11,1.27.18a4.55,4.55,0,0,1,1.49,3.36"/><path class="cls-3" d="M42.23,119.33c0,.16.07.33.1.49h-.77a1.19,1.19,0,0,0-.05-.26c.25-.07.49-.14.72-.23"/><path class="cls-4" d="M83.72,102.86,90.55,104a2.13,2.13,0,0,1-.69,4.21l-8.93-1.46.34-2.1a2.14,2.14,0,0,1,2.45-1.76"/><path class="cls-5" d="M88,101.05l6.83,1.11a2.13,2.13,0,0,1-.69,4.21l-6.83-1.11a2.13,2.13,0,1,1,.69-4.21"/><path class="cls-6" d="M90.19,98.21l8,1.3a2.13,2.13,0,0,1-.68,4.21l-8-1.3a2.13,2.13,0,1,1,.69-4.21"/><path class="cls-7" d="M75.91,104.89a9,9,0,0,1,5.25-16.12h0l7.8-1a2.14,2.14,0,0,1,2.39,1.84,2.09,2.09,0,0,1-.43,1.57A2.05,2.05,0,0,1,89.5,92l-1.08.14a9.15,9.15,0,0,1,1.34,2.32l7,1.14A2.13,2.13,0,0,1,98.13,99a2.1,2.1,0,0,1-2,.8l-5.76-.93a9,9,0,0,1-14.42,6"/><path class="cls-8" d="M33.49,153.64,28.35,140a3.81,3.81,0,0,0,.16-1,3.71,3.71,0,0,0-2.11-3.33h0a9.44,9.44,0,0,1,1.47-5.81h-2.2c-2.39,1.35-2.51,5.81-2.51,5.81h0A3.7,3.7,0,0,0,21.1,139a3.63,3.63,0,0,0,.29,1.44l-4,13.42a.37.37,0,0,0,.26.46l.1,0a.38.38,0,0,0,.36-.27l3.78-12.77a.27.27,0,0,0,.07.08L18.74,155a.38.38,0,0,0,.28.45h.09a.36.36,0,0,0,.36-.29L22.62,142l.11.09-2.26,14.19a.36.36,0,0,0,.31.42h.06a.38.38,0,0,0,.37-.32l2.22-13.94.23.08-1.3,14.42a.38.38,0,0,0,.34.41h0a.38.38,0,0,0,.37-.34l1.29-14.34h0l.28,14.61a.37.37,0,0,0,.37.37h0a.38.38,0,0,0,.37-.38l-.28-14.6.18,0L26.91,157a.39.39,0,0,0,.37.34h0a.37.37,0,0,0,.34-.41L26.1,142.44l.17-.06,2.63,14a.38.38,0,0,0,.37.3h.07a.37.37,0,0,0,.3-.44L27,142a1.73,1.73,0,0,0,.21-.17L31,155a.38.38,0,0,0,.36.27h.11a.38.38,0,0,0,.25-.47l-4-13.57c.06-.07.11-.15.16-.22l4.87,12.93a.38.38,0,0,0,.35.24.34.34,0,0,0,.14,0,.37.37,0,0,0,.21-.48"/><path class="cls-8" d="M44.07,65.22v54.6H23.2a8,8,0,0,1-8-8V65.22A23.75,23.75,0,0,1,27.72,44.34c.62-.34,1.26-.64,1.91-.92l.36-.14c.53-.23,1.06-.42,1.61-.6l1.07-.31a1.81,1.81,0,0,1,.07.69,1.86,1.86,0,0,1-.06.45,2.08,2.08,0,0,0,0,1,1.16,1.16,0,0,0,.46.73h0a22.42,22.42,0,0,1,2.55,1.89c.29.24.57.49.84.74l.08.08c.35.32.69.66,1,1s.59.64.87,1l.15.18c.22.27.44.55.65.83l.25.33c.21.28.4.56.59.85l.3.46.07.11c.18.29.36.58.52.88a22.29,22.29,0,0,1,1.32,2.74c.08.19.16.38.23.58s.24.66.35,1c.06.17.11.35.16.52s.12.39.17.59c.12.42.22.86.31,1.29l.06.31c.05.23.09.46.13.69s.09.56.12.84.05.37.07.55l0,.36v0l0,.32c0,.27,0,.54,0,.82s0,.65,0,1"/><path class="cls-2" d="M33.14,45.27a0,0,0,0,0,0,0h0Z"/><path class="cls-8" d="M36.21,41.7a23.67,23.67,0,0,1,21,23.52v54.13a8,8,0,0,0,5.32-7.53V65.22A23.67,23.67,0,0,0,36.21,41.7"/><path class="cls-6" d="M42.23,33.5l.59,10.1c.07,1.24-2.13,2.39-4.92,2.55s-5.1-.72-5.17-2l-.59-10.1Z"/><path class="cls-7" d="M50.38,31.46a19.22,19.22,0,0,1-4.51,7.43A11.33,11.33,0,0,1,40.33,42c-4.63,1-9.46-1.37-13.18-5.13-.15-.15-.31-.31-.45-.47a3.13,3.13,0,0,1-.25-.26A22.33,22.33,0,0,1,21.1,26.2,15.47,15.47,0,0,1,47.79,12.67a6.42,6.42,0,0,1,.54.63A14.53,14.53,0,0,1,49.51,15a4.49,4.49,0,0,1,.4.7A15,15,0,0,1,51,18.33c.15.44.27.9.38,1.37a22.41,22.41,0,0,1-1,11.76"/><path class="cls-2" d="M45.13,32.69a3.53,3.53,0,0,1-2.35-1,.25.25,0,0,1,0-.35.26.26,0,0,1,.36,0,2.6,2.6,0,0,0,3.48.38,2.89,2.89,0,0,0,1.18-3.21c-.46-1-1.87-1.3-4-.81a1.36,1.36,0,0,1-1.33-.29c-1-1-.59-3.74-.57-3.86a.25.25,0,1,1,.5.08c-.12.73-.28,2.76.41,3.42a.9.9,0,0,0,.88.16c3.16-.74,4.2.36,4.53,1.09a3.37,3.37,0,0,1-1.34,3.82,3,3,0,0,1-1.77.61"/><path class="cls-2" d="M36.89,24.91c.09,1.65-.67,3-1.69,3.09s-2-1.22-2.05-2.87.67-3,1.7-3.09,1.94,1.23,2,2.87"/><path class="cls-2" d="M48.44,23.55c.09,1.5-.67,2.77-1.71,2.83s-1.93-1.11-2-2.61S45.38,21,46.41,21s1.94,1.1,2,2.6"/><path class="cls-2" d="M44,19.81a.27.27,0,0,1-.12,0,.26.26,0,0,1-.11-.34,2.6,2.6,0,0,1,3.51-1.06.26.26,0,0,1,.11.34.25.25,0,0,1-.34.1,2.1,2.1,0,0,0-2.83.85.25.25,0,0,1-.22.14"/><path class="cls-2" d="M32.67,20.91a.26.26,0,0,1-.18-.07.26.26,0,0,1,0-.36,3.65,3.65,0,0,1,5.11-.23.25.25,0,0,1-.37.34,3.15,3.15,0,0,0-4.4.26.24.24,0,0,1-.17.06"/><path class="cls-1" d="M47.3,63.78v49.05a7.19,7.19,0,0,1-3.23,6,6.91,6.91,0,0,1-2.28,1,6.75,6.75,0,0,1-1.69.21H36.79a6.12,6.12,0,0,0,.74,0,5,5,0,0,0,.54-.08h.06a2,2,0,0,0,.35-.08,3.83,3.83,0,0,0,.58-.16,4.63,4.63,0,0,0,.56-.21,7.51,7.51,0,0,0,1.05-.56,2.42,2.42,0,0,0,.42-.29l.12-.09a2.17,2.17,0,0,0,.29-.24,2.81,2.81,0,0,0,.31-.29.31.31,0,0,0,.1-.1c.11-.1.21-.21.31-.32a6.85,6.85,0,0,0,.9-1.3,3.36,3.36,0,0,0,.26-.54,3,3,0,0,0,.17-.41l0-.09a7.46,7.46,0,0,0,.27-1,2.63,2.63,0,0,0,.07-.49,5.29,5.29,0,0,0,.07-.9v-49c0-.23,0-.47,0-.69v0A9.51,9.51,0,0,0,43.91,62c0-.36-.06-.72-.11-1.07s-.08-.63-.14-.94l-.06-.31a4.42,4.42,0,0,0-.13-.61c0-.12,0-.24-.08-.36-.06-.27-.12-.54-.2-.8,0-.06,0-.12,0-.19-.08-.3-.18-.59-.28-.88s-.22-.65-.35-1c0,0,0,0,0,0-.11-.31-.24-.62-.37-.92l-.36-.77c-.11-.24-.23-.47-.36-.7A14.55,14.55,0,0,0,40.54,52a6.29,6.29,0,0,0-.41-.64A19.07,19.07,0,0,0,39,49.78c-.17-.21-.34-.41-.53-.61s-.58-.65-.89-1-.52-.51-.79-.75l-.33-.29c-.21-.19-.43-.37-.65-.55a21,21,0,0,0-2.13-1.51l-.57-.35-.41-.23L32,44.15c-.18-.09-.37-.19-.56-.27s-.47-.22-.71-.32a6.65,6.65,0,0,0-.69-.28c.53-.23,1.06-.42,1.61-.6.38.11.76.24,1.14.38A22,22,0,0,1,47.3,63.78"/><path class="cls-3" d="M44,63.78v49.05a5.29,5.29,0,0,1-.07.9,2.63,2.63,0,0,1-.07.49,3.39,3.39,0,0,1-.13.55c0,.16-.09.3-.14.45l0,.09a3,3,0,0,1-.17.41,3.36,3.36,0,0,1-.26.54,6.85,6.85,0,0,1-.9,1.3c-.1.11-.2.22-.31.32a.31.31,0,0,1-.1.1,2.81,2.81,0,0,1-.31.29,2.17,2.17,0,0,1-.29.24l-.12.09a3.13,3.13,0,0,1-.42.29,7.51,7.51,0,0,1-1.05.56l-.56.21-.58.16-.35.08h-.06a5,5,0,0,1-.54.08,6.12,6.12,0,0,1-.74,0H32.2a6.75,6.75,0,0,0,1.69-.21,7.18,7.18,0,0,0,5.51-7v-49A21.94,21.94,0,0,0,33,48.21a21.63,21.63,0,0,0-5.23-3.87c.62-.34,1.26-.64,1.91-.92l.36-.14.69.28c.24.1.48.2.71.32s.38.18.56.27l.71.38.41.23.57.35a21,21,0,0,1,2.13,1.51c.22.18.44.36.65.55l.33.29c.27.24.53.49.79.75s.61.63.89,1,.36.4.53.61a19.07,19.07,0,0,1,1.17,1.55,6.29,6.29,0,0,1,.41.64,14.55,14.55,0,0,1,.87,1.47c.13.23.25.46.36.7l.36.77c.13.3.26.61.37.92,0,0,0,0,0,0,.13.32.25.64.35,1s.19.58.28.88c0,.07,0,.13,0,.19.07.27.14.53.2.8,0,.12.06.24.08.36s.09.41.13.61l.06.31c.05.31.1.63.14.94s.08.71.11,1.07.05.72.06,1.08v0c0,.22,0,.46,0,.69"/><path class="cls-2" d="M39.4,63.78v49.05a7.18,7.18,0,0,1-5.51,7,6.75,6.75,0,0,1-1.69.21H27.69a6.75,6.75,0,0,0,1.69-.21,7.18,7.18,0,0,0,5.52-7v-49a22,22,0,0,0-6.45-15.57,20.9,20.9,0,0,0-3-2.49,23.5,23.5,0,0,1,2.26-1.38A21.63,21.63,0,0,1,33,48.21,21.94,21.94,0,0,1,39.4,63.78"/><path class="cls-7" d="M9.51,62.08l10.14,52.67a9,9,0,0,0,17.69-3.41L27.2,58.67A9,9,0,1,0,9.51,62.08"/><path class="cls-7" d="M31.06,121.71l51.49-15a9,9,0,1,0-5-17.3l-51.5,15a9,9,0,0,0,5,17.3"/><path class="cls-8" d="M.38,71.62,9.27,116.5a19.51,19.51,0,1,0,38.28-7.58L38.66,64A19.51,19.51,0,1,0,.38,71.62"/><path class="cls-8" d="M34,131,72.21,119.3a7.16,7.16,0,0,0,4.75-9L69.75,86.73A7.16,7.16,0,0,0,60.81,82L22.58,93.65A19.51,19.51,0,0,0,34,131"/><path class="cls-4" d="M57.87,84.4,57.06,88a2.13,2.13,0,1,1-4.16-.93l.81-3.62a2.13,2.13,0,0,1,4.16.93"/><path class="cls-5" d="M54.83,82.65l-1.52,6.76a2.13,2.13,0,0,1-4.16-.93l1.51-6.76a2.14,2.14,0,0,1,4.17.93"/><path class="cls-6" d="M51.28,82.16l-1.77,7.89a2.13,2.13,0,0,1-4.16-.93l1.77-7.9a2.13,2.13,0,0,1,4.16.94"/><path class="cls-7" d="M47.62,83l-1.77,7.89a2.13,2.13,0,1,1-4.16-.93L43.46,82a2.13,2.13,0,1,1,4.16.93"/><path class="cls-2" d="M44.75,33.29a19.31,19.31,0,0,0-6.77.37c-1.81.38-3.78.55-4.85-.16-2.35-1.54-7.21-2.18-7.67-7.12S25.3,10,30,10.7s7.78,3.43,10,.71,6.07-1.1,7.79,1.25c0,0,1.38-4.09-.49-6.57S41.36,4.2,39.4.66C38.43-1.1,33,1,31.2,2.9S14.53,9.43,19.33,27.29a12.35,12.35,0,0,0,3.92,6.18c2.06,1.76,3.22,4.79,4.47,6.37,3,3.72,13.45,8,19.67,1.63s4.28-8.26,3-10c0,0-1.52,2.43-5.63,1.83"/><path class="cls-2" d="M51,18.33h0a15,15,0,0,0-1.09-2.61,4.49,4.49,0,0,0-.4-.7,14.53,14.53,0,0,0-1.18-1.72,6.42,6.42,0,0,0-.54-.63s3.34-.79,3.22,5.66"/><path class="cls-7" d="M40.11,37a1.15,1.15,0,0,1,1.11-1.1,14.58,14.58,0,0,0,3.71-.5.46.46,0,0,1,.59.55c-.31,1.25-1,3.27-2.5,3.37-1.76.11-3-.77-2.91-2.32"/><path class="cls-2" d="M44.83,36.47a7.63,7.63,0,0,1-.22.76A3.58,3.58,0,0,0,43.18,37a3,3,0,0,0-2.31.9,1.65,1.65,0,0,1-.08-.6.86.86,0,0,1,.83-.82,10.85,10.85,0,0,0,2.78-.37.34.34,0,0,1,.43.41"/><path class="cls-3" d="M44.61,37.23c-.3.83-.81,1.71-1.65,1.76a1.84,1.84,0,0,1-2.09-1.14,3,3,0,0,1,2.31-.9,3.58,3.58,0,0,1,1.43.28"/><path class="cls-2" d="M42.74,39.24a2.37,2.37,0,0,1-1.67-.58,1.86,1.86,0,0,1-.53-1.42,1.1,1.1,0,0,1,1.07-1.06,10.59,10.59,0,0,0,2.71-.36.56.56,0,0,1,.58.12.61.61,0,0,1,.18.59c-.24,1-.83,2.62-2.1,2.7h-.24m1.77-3h0a10.77,10.77,0,0,1-2.85.39.6.6,0,0,0-.59.58,1.37,1.37,0,0,0,.38,1,2.06,2.06,0,0,0,1.53.44c.95-.07,1.44-1.49,1.64-2.33a.09.09,0,0,0,0-.1s0,0-.05,0m-3.72,1h0Z"/><path class="cls-2" d="M43,39.24h0a.25.25,0,0,1-.23-.27,2.66,2.66,0,0,0-.19-1.31.25.25,0,0,1,.43-.27A3.19,3.19,0,0,1,43.22,39a.25.25,0,0,1-.25.23"/></g></g></svg>