<svg width="620" height="113" viewBox="0 0 620 113" fill="none" xmlns="http://www.w3.org/2000/svg">
<g clip-path="url(#clip0_302_3531)">
<path d="M171.3 4.25153e-08H17.3617C12.7571 4.25153e-08 8.34105 1.82947 5.08511 5.08593C1.82917 8.34239 0 12.7591 0 17.3644V95.6356C0 100.241 1.82917 104.658 5.08511 107.914C8.34105 111.171 12.7571 113 17.3617 113H171.3C175.905 113 180.321 111.171 183.576 107.914C186.832 104.658 188.662 100.241 188.662 95.6356V17.3644C188.662 15.084 188.213 12.826 187.34 10.7192C186.468 8.61235 185.189 6.69803 183.577 5.08556C181.965 3.47309 180.051 2.19405 177.944 1.32146C175.838 0.448876 173.58 -0.00015953 171.3 4.25153e-08ZM171.3 100.85H17.3617C15.9796 100.848 14.655 100.297 13.6777 99.3201C12.7005 98.3427 12.1504 97.0178 12.1478 95.6356V17.3644C12.1504 15.9822 12.7005 14.6573 13.6777 13.6799C14.655 12.7025 15.9796 12.1523 17.3617 12.1498H171.3C172.682 12.1523 174.007 12.7025 174.984 13.6799C175.961 14.6573 176.511 15.9822 176.514 17.3644V22.8622H165.443C164.672 21.6209 163.516 20.6648 162.153 20.1387C160.789 19.6126 159.291 19.5452 157.886 19.9467C156.481 20.3481 155.244 21.1964 154.364 22.3634C153.484 23.5304 153.008 24.9524 153.008 26.4142C153.008 27.876 153.484 29.298 154.364 30.4649C155.244 31.6319 156.481 32.4803 157.886 32.8817C159.291 33.2831 160.789 33.2157 162.153 32.6896C163.516 32.1636 164.672 31.2075 165.443 29.9662H176.514V50.724H165.443C164.672 49.4825 163.517 48.5263 162.153 48.0001C160.789 47.4739 159.291 47.4064 157.886 47.8077C156.48 48.2091 155.244 49.0575 154.364 50.2245C153.483 51.3915 153.007 52.8135 153.007 54.2754C153.007 55.7372 153.483 57.1593 154.364 58.3263C155.244 59.4933 156.48 60.3417 157.886 60.743C159.291 61.1444 160.789 61.0769 162.153 60.5507C163.517 60.0245 164.672 59.0682 165.443 57.8268H176.514V78.5846H165.443C164.672 77.3433 163.516 76.3872 162.153 75.8612C160.789 75.3351 159.291 75.2676 157.886 75.6691C156.481 76.0705 155.244 76.9189 154.364 78.0858C153.484 79.2528 153.008 80.6748 153.008 82.1366C153.008 83.5984 153.484 85.0204 154.364 86.1874C155.244 87.3543 156.481 88.2027 157.886 88.6042C159.291 89.0056 160.789 88.9381 162.153 88.4121C163.516 87.886 164.672 86.9299 165.443 85.6886H176.514V95.6356C176.511 97.0178 175.961 98.3427 174.984 99.3201C174.007 100.297 172.682 100.848 171.3 100.85Z" fill="#0600FF"/>
<path d="M386.968 0H233.03C228.425 0 224.009 1.82947 220.753 5.08593C217.497 8.34239 215.668 12.7591 215.668 17.3644V95.6356C215.668 100.241 217.497 104.658 220.753 107.914C224.009 111.171 228.425 113 233.03 113H386.968C391.573 113 395.989 111.171 399.244 107.914C402.5 104.658 404.33 100.241 404.33 95.6356V17.3644C404.33 12.7591 402.5 8.34239 399.244 5.08593C395.989 1.82947 391.573 0 386.968 0ZM386.968 100.85H233.03C231.648 100.848 230.323 100.297 229.346 99.3201C228.369 98.3427 227.818 97.0178 227.816 95.6356V17.3644C227.818 15.9822 228.369 14.6573 229.346 13.6799C230.323 12.7025 231.648 12.1523 233.03 12.1498H386.968C388.35 12.1523 389.675 12.7025 390.652 13.6799C391.629 14.6573 392.179 15.9822 392.182 17.3644V22.8622H381.111C380.34 21.6209 379.184 20.6648 377.821 20.1387C376.457 19.6126 374.959 19.5452 373.554 19.9467C372.149 20.3481 370.912 21.1964 370.032 22.3634C369.152 23.5304 368.676 24.9524 368.676 26.4142C368.676 27.876 369.152 29.298 370.032 30.4649C370.912 31.6319 372.149 32.4803 373.554 32.8817C374.959 33.2831 376.457 33.2157 377.821 32.6896C379.184 32.1636 380.34 31.2075 381.111 29.9662H392.182V50.724H381.111C380.34 49.4825 379.185 48.5263 377.821 48.0001C376.457 47.4739 374.959 47.4064 373.554 47.8077C372.148 48.2091 370.912 49.0575 370.032 50.2245C369.151 51.3915 368.675 52.8135 368.675 54.2754C368.675 55.7372 369.151 57.1593 370.032 58.3263C370.912 59.4933 372.148 60.3417 373.554 60.743C374.959 61.1444 376.457 61.0769 377.821 60.5507C379.185 60.0245 380.34 59.0682 381.111 57.8268H392.182V78.5846H381.111C380.34 77.3433 379.184 76.3872 377.821 75.8612C376.457 75.3351 374.959 75.2676 373.554 75.6691C372.149 76.0705 370.912 76.9189 370.032 78.0858C369.152 79.2528 368.676 80.6748 368.676 82.1366C368.676 83.5984 369.152 85.0204 370.032 86.1874C370.912 87.3543 372.149 88.2027 373.554 88.6042C374.959 89.0056 376.457 88.9381 377.821 88.4121C379.184 87.886 380.34 86.9299 381.111 85.6886H392.182V95.6356C392.179 97.0178 391.629 98.3427 390.652 99.3201C389.675 100.297 388.35 100.848 386.968 100.85Z" fill="#0600FF"/>
<path d="M602.638 4.25153e-08H448.701C444.097 0.000966638 439.682 1.83091 436.427 5.0873C433.172 8.3437 431.343 12.7598 431.344 17.3644V95.6356C431.344 100.241 433.173 104.658 436.429 107.914C439.685 111.171 444.101 113 448.705 113H602.642C607.246 112.999 611.661 111.169 614.916 107.912C618.171 104.656 619.999 100.24 619.999 95.6356V17.3644C619.999 15.084 619.55 12.826 618.678 10.7192C617.806 8.61235 616.527 6.69803 614.914 5.08556C613.302 3.47309 611.388 2.19405 609.282 1.32146C607.175 0.448876 604.918 -0.00015953 602.638 4.25153e-08ZM602.638 100.85H448.701C447.319 100.848 445.994 100.297 445.017 99.3201C444.039 98.3427 443.489 97.0178 443.487 95.6356V17.3644C443.489 15.9822 444.039 14.6573 445.017 13.6799C445.994 12.7025 447.319 12.1523 448.701 12.1498H602.638C604.02 12.1523 605.344 12.7025 606.322 13.6799C607.299 14.6573 607.849 15.9822 607.851 17.3644V22.8622H596.782C596.01 21.6209 594.855 20.6648 593.492 20.1387C592.128 19.6126 590.63 19.5452 589.225 19.9467C587.82 20.3481 586.583 21.1964 585.703 22.3634C584.823 23.5304 584.347 24.9524 584.347 26.4142C584.347 27.876 584.823 29.298 585.703 30.4649C586.583 31.6319 587.82 32.4803 589.225 32.8817C590.63 33.2831 592.128 33.2157 593.492 32.6896C594.855 32.1636 596.01 31.2075 596.782 29.9662H607.851V50.724H596.782C596.011 49.4825 594.856 48.5263 593.492 48.0001C592.128 47.4739 590.63 47.4064 589.225 47.8077C587.819 48.2091 586.583 49.0575 585.703 50.2245C584.822 51.3915 584.346 52.8135 584.346 54.2754C584.346 55.7372 584.822 57.1593 585.703 58.3263C586.583 59.4933 587.819 60.3417 589.225 60.743C590.63 61.1444 592.128 61.0769 593.492 60.5507C594.856 60.0245 596.011 59.0682 596.782 57.8268H607.851V78.5846H596.782C596.01 77.3433 594.855 76.3872 593.492 75.8612C592.128 75.3351 590.63 75.2676 589.225 75.6691C587.82 76.0705 586.583 76.9189 585.703 78.0858C584.823 79.2528 584.347 80.6748 584.347 82.1366C584.347 83.5984 584.823 85.0204 585.703 86.1874C586.583 87.3543 587.82 88.2027 589.225 88.6042C590.63 89.0056 592.128 88.9381 593.492 88.4121C594.855 87.886 596.01 86.9299 596.782 85.6886H607.851V95.6356C607.849 97.0178 607.299 98.3427 606.322 99.3201C605.344 100.297 604.02 100.848 602.638 100.85Z" fill="#0600FF"/>
<path d="M71.7684 42.1803C69.9126 40.3839 67.7261 38.9646 65.33 38.0008C62.8021 36.9889 60.1008 36.4813 57.3781 36.5064C54.628 36.4797 51.899 36.9872 49.3423 38.0008C46.9613 38.9439 44.7933 40.3543 42.966 42.1488C41.1388 43.9434 39.6894 46.0858 38.7033 48.4496C36.677 53.4544 36.677 59.0512 38.7033 64.056C39.6939 66.432 41.1531 68.5841 42.9939 70.3835C44.8502 72.2018 47.0439 73.6397 49.4516 74.6165C52.0038 75.6497 54.7355 76.1667 57.4886 76.1377C60.2056 76.1666 62.9006 75.6493 65.4139 74.6165C67.7837 73.6414 69.9403 72.2125 71.7623 70.4103C73.5778 68.6131 75.0181 66.4729 75.9995 64.1143C77.0242 61.6442 77.541 58.9931 77.5192 56.319C77.5441 53.6318 77.0367 50.9663 76.0262 48.4763C75.056 46.1066 73.6064 43.963 71.7684 42.1803ZM67.3466 62.5676C66.4392 64.3259 65.0566 65.7943 63.356 66.8055C61.5415 67.848 59.4762 68.3736 57.3842 68.3254C55.7969 68.347 54.2204 68.062 52.7413 67.4858C51.3762 66.9405 50.1447 66.1071 49.1309 65.0425C48.0984 63.9396 47.3043 62.6355 46.7986 61.2117C46.2383 59.6259 45.9632 57.9534 45.9859 56.2716C45.9351 54.0976 46.419 51.9443 47.395 50.0011C48.2945 48.2526 49.6798 46.8013 51.3844 45.8216C53.2146 44.7956 55.2866 44.2795 57.3842 44.3272C58.9624 44.3108 60.5292 44.5962 62.0003 45.1679C63.3763 45.7074 64.6177 46.5413 65.6374 47.6113C66.6648 48.7058 67.4581 49.9986 67.9685 51.4105C68.5286 52.9687 68.8055 54.6146 68.7861 56.2704C68.8344 58.4558 68.3412 60.6192 67.3502 62.5676H67.3466Z" fill="#E66E78"/>
<path d="M97.886 64.2516C97.9519 65.4329 97.5736 66.5961 96.8255 67.5126C96.459 67.9127 96.0088 68.227 95.507 68.4332C95.0051 68.6395 94.464 68.7325 93.9222 68.7057C93.1618 68.7248 92.4105 68.5366 91.7489 68.1614C91.1333 67.8011 90.6419 67.2621 90.3398 66.6159C89.9997 65.8752 89.8335 65.0664 89.8539 64.2516V49.1045H81.4864V64.3597C81.4462 66.4843 81.9927 68.5787 83.0657 70.4127C84.1274 72.1812 85.6601 73.6195 87.4923 74.5667C89.4945 75.5619 91.6991 76.082 93.9348 76.0867C96.1706 76.0913 98.3773 75.5803 100.384 74.5934C102.18 73.6463 103.675 72.2154 104.701 70.4625C105.757 68.6037 106.291 66.4937 106.246 64.3561V49.1045H97.886V64.2516Z" fill="#E66E78"/>
<path d="M119.816 49.1045H111.457V75.4925H119.816V49.1045Z" fill="#E66E78"/>
<path d="M115.637 45.5204C116.242 45.5449 116.845 45.4362 117.403 45.2019C117.961 44.9675 118.461 44.6134 118.867 44.1644C119.672 43.2736 120.107 42.1089 120.082 40.9083C120.121 39.704 119.684 38.5328 118.867 37.6473C118.452 37.213 117.95 36.8722 117.393 36.6474C116.836 36.4226 116.237 36.319 115.637 36.3436C115.043 36.3308 114.452 36.4399 113.901 36.6641C113.35 36.8883 112.851 37.2229 112.434 37.6473C112.004 38.073 111.667 38.5823 111.442 39.1436C111.217 39.7049 111.11 40.3063 111.127 40.9107C111.117 41.5128 111.227 42.1109 111.451 42.6699C111.675 43.2289 112.008 43.7378 112.43 44.1669C112.839 44.6056 113.336 44.953 113.889 45.1862C114.442 45.4195 115.037 45.5334 115.637 45.5204Z" fill="#E66E78"/>
<path d="M489.617 60.2058L471.784 37.3557H465.855V75.0588H474.295V52.4907L491.864 75.0588H498.108V37.3557H489.617V60.2058Z" fill="#E66E78"/>
<path d="M524.297 50.2756C522.047 49.1137 519.55 48.5099 517.017 48.5152C514.484 48.5205 511.99 49.1346 509.744 50.306C507.666 51.4439 505.925 53.1113 504.699 55.1392C503.463 57.2014 502.825 59.5669 502.857 61.971C502.825 64.4146 503.472 66.819 504.725 68.917C505.959 70.9693 507.709 72.6625 509.8 73.8279C512.035 75.0203 514.529 75.6439 517.062 75.6439C519.594 75.6439 522.088 75.0203 524.323 73.8279C526.409 72.6682 528.158 70.9843 529.395 68.9425C530.658 66.8392 531.306 64.4241 531.267 61.971C531.295 59.5537 530.647 57.1767 529.395 55.1088C528.159 53.0705 526.398 51.4014 524.297 50.2756ZM522.159 65.2575C521.709 66.1702 520.992 66.9247 520.104 67.4214C519.165 67.9122 518.121 68.1686 517.062 68.1686C516.002 68.1686 514.958 67.9122 514.019 67.4214C513.127 66.9202 512.402 66.1677 511.935 65.2575C511.422 64.2594 511.165 63.1499 511.186 62.0281C511.171 60.9484 511.428 59.8824 511.935 58.9287C512.412 58.0258 513.135 57.2758 514.019 56.7648C514.945 56.2415 515.993 55.9743 517.056 55.9909C518.113 55.9715 519.155 56.2389 520.071 56.7648C520.938 57.2768 521.649 58.0163 522.127 58.9032C522.639 59.8637 522.897 60.9396 522.875 62.0281C522.898 63.1463 522.652 64.2536 522.159 65.2575Z" fill="#E66E78"/>
<path d="M559.404 53.51C558.57 52.0167 557.354 50.7718 555.881 49.9028C554.344 49.0027 552.59 48.5405 550.809 48.5663C548.944 48.5374 547.101 48.9689 545.442 49.8226C544.74 50.1969 544.087 50.6573 543.498 51.1931V49.1009H535.27V75.0564H543.495V60.2641C543.477 59.4433 543.68 58.6328 544.082 57.9168C544.459 57.2532 545.012 56.7066 545.68 56.3373C546.386 55.9569 547.178 55.7641 547.98 55.7772C548.571 55.7599 549.159 55.8623 549.71 56.0782C550.26 56.2941 550.761 56.619 551.183 57.0335C551.609 57.4535 551.943 57.9574 552.164 58.5134C552.384 59.0694 552.487 59.6651 552.465 60.2629V75.0564H560.686V58.4465C560.7 56.7169 560.258 55.0142 559.404 53.51Z" fill="#E66E78"/>
<path d="M270.551 37.4577H276.261C277.999 37.4809 279.72 37.0981 281.285 36.34C282.75 35.6306 283.983 34.519 284.841 33.1348C285.695 31.6203 286.144 29.9107 286.144 28.1717C286.144 26.4326 285.695 24.723 284.841 23.2085C283.983 21.825 282.751 20.7128 281.287 20.001C279.722 19.2439 278.002 18.8625 276.263 18.8868H264.016V48.0851H270.551V37.4577ZM275.307 23.9715C276.057 23.961 276.8 24.1236 277.477 24.4466C278.12 24.7627 278.659 25.258 279.028 25.8729C279.43 26.5769 279.63 27.3782 279.606 28.1887C279.628 28.9862 279.428 29.7741 279.028 30.4643C278.661 31.081 278.122 31.5768 277.477 31.8907C276.8 32.2166 276.058 32.3805 275.307 32.3694H270.551V23.9739L275.307 23.9715Z" fill="#E66E78"/>
<path d="M301.149 43.1451C300.311 43.4961 299.41 43.6714 298.502 43.6602C297.526 43.6869 296.562 43.4511 295.708 42.9774C294.918 42.5204 294.283 41.8369 293.886 41.0152C293.768 40.7419 293.672 40.46 293.597 40.172L307.931 40.1027C308.058 39.6636 308.148 39.2145 308.2 38.7602C308.24 38.3593 308.26 37.9693 308.26 37.5817C308.295 35.7578 307.838 33.9582 306.938 32.3719C306.085 30.8807 304.841 29.6507 303.341 28.8144C301.718 27.9327 299.893 27.4904 298.047 27.5314C296.127 27.5015 294.232 27.9713 292.548 28.8946C290.953 29.7741 289.625 31.0672 288.703 32.638C287.774 34.2901 287.29 36.1547 287.297 38.0499C287.304 39.945 287.802 41.806 288.743 43.4512C289.697 45.0404 291.071 46.3356 292.714 47.1946C294.502 48.1144 296.491 48.5758 298.502 48.5371C300.1 48.5565 301.688 48.2678 303.177 47.6866C304.576 47.125 305.812 46.2224 306.774 45.0611L303.26 41.5875C302.681 42.257 301.96 42.7891 301.149 43.1451ZM295.547 33.0717C296.322 32.5919 297.22 32.3487 298.132 32.3719C298.953 32.3479 299.765 32.5631 300.466 32.9915C301.122 33.4149 301.634 34.0276 301.934 34.7484C302.062 35.0687 302.161 35.3996 302.232 35.7374L293.598 35.7847C293.664 35.523 293.748 35.2664 293.851 35.0169C294.223 34.2228 294.811 33.5489 295.547 33.0717Z" fill="#E66E78"/>
<path d="M315.314 47.3829C316.839 48.141 318.518 48.5372 320.222 48.5408C321.925 48.5444 323.606 48.1552 325.134 47.4036C326.502 46.6827 327.64 45.5936 328.421 44.2592C329.227 42.8438 329.634 41.2366 329.6 39.6083V27.9858H323.227V39.5281C323.278 40.4276 322.99 41.3136 322.42 42.0115C322.141 42.3165 321.799 42.5562 321.417 42.7133C321.034 42.8704 320.622 42.9411 320.209 42.9203C319.63 42.9347 319.058 42.7915 318.554 42.506C318.085 42.2312 317.711 41.8207 317.48 41.3287C317.22 40.7648 317.092 40.1489 317.107 39.5281V27.9858H310.74V39.6083C310.706 41.2283 311.121 42.8261 311.938 44.2252C312.749 45.5706 313.917 46.664 315.314 47.3829Z" fill="#E66E78"/>
<path d="M342.749 27.9869V19.6729H336.382V27.9869H331.875V33.4057H336.382V48.0863H342.749V33.4057H347.299V27.9869H342.749Z" fill="#E66E78"/>
<path d="M281.238 72.6581C279.473 71.6997 277.489 71.2189 275.481 71.2633C273.393 71.2308 271.333 71.742 269.502 72.7468C267.768 73.7027 266.323 75.1088 265.32 76.817C264.309 78.614 263.781 80.6426 263.789 82.7044C263.797 84.7663 264.339 86.791 265.363 88.5804C266.401 90.3089 267.895 91.7174 269.682 92.6505C271.627 93.6506 273.79 94.1516 275.976 94.1085C277.714 94.1309 279.44 93.8178 281.06 93.1863C282.582 92.5765 283.926 91.5948 284.971 90.3311L281.151 86.5538C280.52 87.2796 279.737 87.856 278.856 88.2414C277.944 88.6228 276.964 88.8134 275.976 88.8015C274.915 88.8306 273.866 88.5738 272.939 88.0579C272.08 87.5617 271.39 86.8183 270.959 85.9244C270.815 85.6293 270.696 85.3229 270.603 85.0084L286.227 84.933C286.365 84.4561 286.463 83.9684 286.519 83.4751C286.562 83.0496 286.584 82.6222 286.585 82.1945C286.623 80.211 286.126 78.254 285.146 76.529C284.22 74.9074 282.869 73.5691 281.238 72.6581ZM272.763 77.2884C273.606 76.7667 274.583 76.5024 275.574 76.5278C276.468 76.5013 277.35 76.7352 278.114 77.2009C278.826 77.6616 279.382 78.3276 279.709 79.1109C279.847 79.4597 279.956 79.8198 280.032 80.1873L270.599 80.2396C270.685 79.9534 270.792 79.674 270.919 79.4037C271.323 78.5397 271.962 77.8068 272.763 77.2884Z" fill="#E66E78"/>
<path d="M273.506 59.9761L266.938 66.4507L269.232 69.4638L275.532 65.6123L281.781 69.4638L284.072 66.4507L277.462 59.9761H273.506Z" fill="#E66E78"/>
<path d="M299.407 62.717H292.482V71.7589H287.582V77.6515H292.482V93.6175H299.407V77.6515H304.355V71.7589H299.407V62.717Z" fill="#E66E78"/>
<path d="M322.633 71.7795C321.219 71.2855 319.698 71.1774 318.229 71.4663C316.759 71.7553 315.392 72.4308 314.27 73.4234L314.248 73.4501V71.7576H307.324V93.6163H314.248V81.6512C314.161 80.5036 314.523 79.3668 315.258 78.4813C315.62 78.1218 316.053 77.8421 316.53 77.6601C317.006 77.478 317.516 77.3977 318.025 77.4243C318.548 77.4164 319.067 77.5084 319.555 77.6952C319.965 77.8493 320.335 78.0959 320.635 78.4157L324.726 73.1913C324.139 72.5737 323.425 72.0919 322.633 71.7795Z" fill="#E66E78"/>
<path d="M341.949 72.6581C340.184 71.6997 338.2 71.2189 336.192 71.2633C334.104 71.2308 332.044 71.742 330.213 72.7468C328.479 73.7034 327.033 75.1093 326.029 76.817C325.019 78.6143 324.492 80.6427 324.5 82.7044C324.508 84.7662 325.05 86.7907 326.073 88.5804C327.111 90.3084 328.605 91.7167 330.392 92.6505C332.337 93.6505 334.5 94.1515 336.687 94.1085C338.425 94.1307 340.151 93.8176 341.771 93.1863C343.292 92.5761 344.637 91.5946 345.682 90.3311L341.862 86.5538C341.232 87.2799 340.448 87.8563 339.567 88.2414C338.655 88.6228 337.675 88.8134 336.687 88.8015C335.626 88.8306 334.577 88.5738 333.65 88.0579C332.791 87.5617 332.101 86.8183 331.67 85.9244C331.526 85.6291 331.407 85.3227 331.313 85.0084L346.937 84.933C347.076 84.4563 347.174 83.9685 347.23 83.4751C347.273 83.0496 347.296 82.6222 347.297 82.1945C347.334 80.2109 346.837 78.2539 345.857 76.529C344.93 74.9076 343.579 73.5694 341.949 72.6581ZM333.474 77.2884C334.317 76.7666 335.294 76.5023 336.285 76.5278C337.179 76.5013 338.061 76.7352 338.825 77.2009C339.537 77.662 340.093 78.3278 340.42 79.1109C340.558 79.4597 340.666 79.8198 340.743 80.1873L331.31 80.2396C331.395 79.9532 331.502 79.6738 331.63 79.4037C332.034 78.5397 332.673 77.8068 333.474 77.2884Z" fill="#E66E78"/>
</g>
<defs>
<clipPath id="clip0_302_3531">
<rect width="620" height="113" fill="white"/>
</clipPath>
</defs>
</svg>
