<svg width="386" height="423" viewBox="0 0 386 423" fill="none" xmlns="http://www.w3.org/2000/svg">
<g clip-path="url(#clip0_302_3559)">
<path d="M193.002 423C195.377 423 197.655 422.053 199.334 420.37C201.014 418.686 201.957 416.402 201.958 414.021V235.043H184.047V414.021C184.047 416.402 184.99 418.686 186.67 420.37C188.349 422.053 190.627 423 193.002 423Z" fill="#0600FF"/>
<path d="M3.82812 25.3971V52.2267H13.9557V33.9603C13.9331 32.9466 14.1865 31.946 14.6887 31.0659C15.1507 30.2477 15.8288 29.5731 16.6484 29.1163C17.4084 28.7039 18.2531 28.4729 19.1167 28.4414C19.236 28.429 19.3559 28.4239 19.4758 28.4264C20.2084 28.4003 20.9385 28.5255 21.6208 28.7942C22.3031 29.0629 22.9231 29.4693 23.4421 29.9883C23.9612 30.5072 24.3683 31.1276 24.6381 31.8109C24.908 32.4942 25.0348 33.2258 25.0108 33.9603V52.2267H35.1234V31.7258C35.1395 29.5887 34.598 27.4845 33.5527 25.622C32.5215 23.7814 31.0253 22.2453 29.2144 21.1679C28.4992 20.7355 27.7361 20.3882 26.9406 20.1331C25.654 19.7243 24.311 19.5218 22.9613 19.5332C20.664 19.4944 18.3928 20.0251 16.3492 21.078C15.4848 21.5418 14.6808 22.111 13.9557 22.7726V20.1931H6.62555L3.82812 25.3971Z" fill="#E66E78"/>
<path d="M77.6241 33.8855L55.6635 5.6792H48.3633V52.2178H58.7556V24.3624L80.3916 52.2178H88.0808V5.6792H77.6241V33.8855Z" fill="#E66E78"/>
<path d="M126.621 27.5942C125.091 25.0821 122.923 23.0224 120.338 21.6255C117.597 20.1581 114.53 19.41 111.423 19.4509C108.279 19.3923 105.175 20.1574 102.417 21.6705C99.8542 23.0702 97.7109 25.1308 96.2088 27.6393C94.6841 30.1822 93.8967 33.1009 93.9349 36.0676C93.8976 39.0807 94.6951 42.0451 96.2387 44.6309C97.7616 47.1654 99.9167 49.2587 102.492 50.7046C105.244 52.1718 108.313 52.9391 111.43 52.9391C114.547 52.9391 117.616 52.1718 120.368 50.7046C122.935 49.2668 125.088 47.1904 126.621 44.6758C128.171 42.0761 128.968 39.0956 128.925 36.0676C128.956 33.0835 128.159 30.1496 126.621 27.5942ZM117.706 40.1168C117.155 41.2445 116.272 42.176 115.177 42.7862C114.022 43.3969 112.736 43.7161 111.43 43.7161C110.124 43.7161 108.838 43.3969 107.683 42.7862C106.582 42.1697 105.687 41.2411 105.11 40.1168C104.481 38.8832 104.167 37.5124 104.197 36.1275C104.179 34.7965 104.493 33.4821 105.11 32.3033C105.704 31.1913 106.595 30.2671 107.683 29.6339C108.824 28.9926 110.115 28.6666 111.423 28.6891C112.726 28.6627 114.013 28.9891 115.147 29.6339C116.211 30.2701 117.085 31.1818 117.676 32.2733C118.301 33.4597 118.615 34.786 118.588 36.1275C118.618 37.5098 118.312 38.8788 117.698 40.1168H117.706Z" fill="#E66E78"/>
<path d="M159.225 21.1679C157.332 20.0565 155.172 19.486 152.979 19.5183C150.683 19.4828 148.414 20.0154 146.372 21.0689C145.506 21.5298 144.702 22.0982 143.978 22.7606V20.178H133.848V52.2161H143.975V33.9558C143.954 32.9431 144.203 31.9433 144.698 31.0599C145.162 30.2405 145.843 29.5657 146.666 29.1103C147.536 28.6408 148.511 28.4028 149.498 28.419C150.226 28.3976 150.95 28.5239 151.628 28.7904C152.306 29.0569 152.923 29.458 153.442 29.9696C153.966 30.4875 154.378 31.1093 154.65 31.7953C154.922 32.4813 155.048 33.2166 155.021 33.9543V52.2161H165.144V31.7137C165.162 29.5789 164.617 27.4773 163.566 25.6205C162.539 23.7766 161.04 22.2398 159.225 21.1679Z" fill="#E66E78"/>
<path d="M207.64 33.8855L185.679 5.6792H178.379V52.2178H188.771V24.3624L210.407 52.2178H218.096V5.6792H207.64V33.8855Z" fill="#E66E78"/>
<path d="M256.629 27.5944C255.107 25.0758 252.937 23.0141 250.346 21.6257C247.61 20.1601 244.548 19.412 241.445 19.4511C238.297 19.3907 235.187 20.1558 232.425 21.6707C229.865 23.0746 227.723 25.1343 226.217 27.6395C224.692 30.1824 223.904 33.101 223.943 36.0677C223.905 39.0809 224.703 42.0453 226.247 44.631C227.769 47.1656 229.924 49.2589 232.5 50.7048C235.252 52.172 238.321 52.9393 241.438 52.9393C244.555 52.9393 247.624 52.172 250.376 50.7048C252.946 49.2712 255.1 47.1939 256.629 44.676C258.179 42.0763 258.976 39.0958 258.933 36.0677C258.964 33.0837 258.167 30.1498 256.629 27.5944ZM247.713 40.1169C247.162 41.2447 246.28 42.1762 245.185 42.7864C244.03 43.3971 242.744 43.7163 241.438 43.7163C240.132 43.7163 238.846 43.3971 237.691 42.7864C236.594 42.1691 235.704 41.2403 235.132 40.1169C234.492 38.8872 234.173 37.5147 234.205 36.1277C234.185 34.7947 234.504 33.4785 235.132 32.3035C235.721 31.1924 236.607 30.2679 237.691 29.6341C238.836 28.991 240.132 28.6649 241.445 28.6893C242.744 28.6648 244.026 28.9911 245.155 29.6341C246.219 30.2703 247.093 31.182 247.683 32.2735C248.314 33.4586 248.633 34.7849 248.611 36.1277C248.638 37.5106 248.33 38.8796 247.713 40.1169Z" fill="#E66E78"/>
<path d="M289.245 21.1679C287.352 20.0569 285.193 19.4864 282.999 19.5183C280.703 19.4826 278.433 20.0152 276.39 21.069C275.525 21.5305 274.721 22.0988 273.997 22.7606V20.1781H263.863V52.2161H273.992V33.9558C273.972 32.9432 274.221 31.9436 274.715 31.0599C275.18 30.2404 275.862 29.5657 276.685 29.1103C277.554 28.6407 278.528 28.4026 279.515 28.419C280.243 28.3977 280.968 28.524 281.646 28.7904C282.324 29.0569 282.941 29.4581 283.46 29.9697C283.986 30.4874 284.399 31.1091 284.672 31.7954C284.945 32.4817 285.072 33.2174 285.046 33.9558V52.2176H295.171V31.7138C295.187 29.579 294.642 27.4776 293.592 25.6205C292.562 23.7765 291.062 22.2399 289.245 21.1679Z" fill="#E66E78"/>
<path d="M337.655 33.8855L315.695 5.6792H308.395V52.2178H318.787V24.3624L340.423 52.2178H348.113V5.6792H337.655V33.8855Z" fill="#E66E78"/>
<path d="M380.194 21.5354C377.497 20.132 374.497 19.416 371.458 19.4508C368.314 19.3885 365.209 20.1538 362.452 21.6704C362.168 21.8354 361.899 21.9853 361.63 22.1652C359.419 23.5311 357.567 25.4082 356.229 27.6392C354.709 30.1834 353.927 33.1021 353.97 36.0675C353.928 39.0792 354.72 42.0437 356.259 44.6308C357.782 47.1653 359.937 49.2586 362.512 50.7045C365.121 52.1575 368.055 52.9213 371.039 52.924C371.178 52.9365 371.318 52.9415 371.458 52.939C374.583 52.9873 377.667 52.2171 380.404 50.7045C382.623 49.461 384.535 47.7339 385.999 45.6505V43.176C386.013 35.574 384.01 28.1051 380.194 21.5354ZM377.726 40.1167C377.18 41.2476 376.296 42.1803 375.198 42.7861C374.056 43.4243 372.765 43.7452 371.458 43.7159C371.318 43.7184 371.178 43.7134 371.039 43.701C369.869 43.6775 368.723 43.3631 367.703 42.7861C366.606 42.1688 365.716 41.2401 365.145 40.1167C364.511 38.8844 364.193 37.5136 364.218 36.1274C364.205 34.7952 364.524 33.4808 365.145 32.3032C365.715 31.2238 366.568 30.3213 367.614 29.6937C367.64 29.6687 367.67 29.6484 367.703 29.6338C368.849 28.9907 370.145 28.6646 371.458 28.689C372.757 28.6626 374.039 28.989 375.168 29.6338C376.232 30.27 377.105 31.1817 377.696 32.2732C378.326 33.4583 378.645 34.7846 378.624 36.1274C378.651 37.5104 378.343 38.8793 377.726 40.1167Z" fill="#E66E78"/>
<path d="M29.2099 79.9726C27.3174 78.8612 25.1574 78.2907 22.9643 78.323C20.6681 78.2873 18.3985 78.8199 16.3567 79.8737C15.4912 80.3345 14.687 80.9029 13.9632 81.5653V78.9828H3.82812V111.021H13.9587V92.7605C13.9374 91.7478 14.1869 90.748 14.6812 89.8646C15.1456 89.0452 15.8269 88.3704 16.6499 87.915C17.5193 87.4455 18.4944 87.2075 19.4817 87.2237C20.2094 87.2023 20.9338 87.3286 21.6114 87.5951C22.2891 87.8616 22.906 88.2627 23.4251 88.7744C23.9496 89.2924 24.3608 89.9142 24.6325 90.6002C24.9042 91.2862 25.0305 92.0214 25.0033 92.759V111.021H35.1279V90.5184C35.1439 88.3833 34.5996 86.2815 33.5497 84.4237C32.5221 82.5807 31.0244 81.0446 29.2099 79.9726Z" fill="#E66E78"/>
<path d="M77.6241 92.6902L55.6635 64.4839H48.3633V111.022H58.7556V83.1671L80.3916 111.022H88.0808V64.4839H77.6241V92.6902Z" fill="#E66E78"/>
<path d="M126.621 86.3975C125.091 83.8853 122.923 81.8256 120.338 80.4287C117.597 78.9613 114.53 78.2132 111.423 78.2541C108.279 78.1955 105.175 78.9605 102.417 80.4736C99.8573 81.8777 97.7151 83.9374 96.2088 86.4425C94.6841 88.9854 93.8967 91.9041 93.9349 94.8708C93.8996 97.8884 94.6969 100.857 96.2387 103.449C97.7665 105.976 99.9207 108.063 102.492 109.508C105.244 110.975 108.313 111.742 111.43 111.742C114.547 111.742 117.616 110.975 120.368 109.508C122.935 108.07 125.088 105.994 126.621 103.479C128.171 100.879 128.968 97.8989 128.925 94.8708C128.956 91.8868 128.159 88.9529 126.621 86.3975ZM117.706 98.9199C117.151 100.049 116.27 100.984 115.177 101.604C114.019 102.206 112.734 102.519 111.43 102.519C110.126 102.519 108.841 102.206 107.683 101.604C106.584 100.978 105.69 100.045 105.11 98.9199C104.483 97.6911 104.169 96.3257 104.197 94.9457C104.176 93.6144 104.49 92.2991 105.11 91.1215C105.699 90.0022 106.591 89.0718 107.683 88.437C108.824 87.7958 110.115 87.4697 111.423 87.4922C112.726 87.4658 114.013 87.7922 115.147 88.437C116.211 89.0732 117.085 89.985 117.676 91.0765C118.303 92.2677 118.617 93.5993 118.588 94.9457C118.616 96.3231 118.311 97.6868 117.698 98.9199H117.706Z" fill="#E66E78"/>
<path d="M159.225 79.9726C157.332 78.8612 155.172 78.2907 152.979 78.323C150.683 78.2874 148.414 78.82 146.372 79.8736C145.506 80.3345 144.702 80.9029 143.978 81.5653V78.9828H133.848V111.021H143.975V92.7605C143.954 91.7478 144.203 90.748 144.698 89.8646C145.162 89.0452 145.843 88.3704 146.666 87.915C147.536 87.4455 148.511 87.2075 149.498 87.2237C150.226 87.2023 150.95 87.3286 151.628 87.5951C152.306 87.8616 152.923 88.2627 153.442 88.7743C153.966 89.2922 154.378 89.914 154.65 90.6C154.922 91.286 155.048 92.0213 155.021 92.759V111.021H165.144V90.5184C165.161 88.3832 164.617 86.2812 163.566 84.4237C162.538 82.5805 161.04 81.0443 159.225 79.9726Z" fill="#E66E78"/>
<path d="M207.64 92.6902L185.679 64.4839H178.379V111.022H188.771V83.1671L210.407 111.022H218.096V64.4839H207.64V92.6902Z" fill="#E66E78"/>
<path d="M256.629 86.3976C255.107 83.879 252.937 81.8174 250.346 80.4289C247.61 78.9633 244.548 78.2152 241.445 78.2543C238.297 78.1939 235.187 78.959 232.425 80.4738C229.868 81.8822 227.727 83.9409 226.217 86.4427C224.692 88.9856 223.904 91.9043 223.943 94.871C223.907 97.8886 224.705 100.857 226.247 103.449C227.774 105.976 229.929 108.063 232.5 109.508C235.252 110.975 238.321 111.743 241.438 111.743C244.555 111.743 247.624 110.975 250.376 109.508C252.946 108.074 255.1 105.997 256.629 103.479C258.179 100.88 258.976 97.899 258.933 94.871C258.964 91.8869 258.167 88.953 256.629 86.3976ZM247.713 98.9201C247.159 100.049 246.278 100.985 245.185 101.605C244.027 102.206 242.742 102.519 241.438 102.519C240.134 102.519 238.849 102.206 237.691 101.605C236.596 100.977 235.707 100.045 235.132 98.9201C234.494 97.6951 234.174 96.3279 234.205 94.9459C234.181 93.6125 234.501 92.2954 235.132 91.1217C235.716 90.0032 236.603 89.0726 237.691 88.4372C238.836 87.7941 240.132 87.468 241.445 87.4924C242.744 87.4679 244.026 87.7943 245.155 88.4372C246.219 89.0734 247.093 89.9852 247.683 91.0767C248.315 92.2666 248.634 93.5982 248.611 94.9459C248.637 96.3239 248.329 97.6875 247.713 98.9201Z" fill="#E66E78"/>
<path d="M289.245 79.9726C287.352 78.8616 285.193 78.2911 282.999 78.323C280.703 78.2873 278.433 78.8199 276.39 79.8737C275.525 80.3352 274.721 80.9035 273.997 81.5653V78.9828H263.863V111.021H273.992V92.7605C273.972 91.7479 274.221 90.7482 274.715 89.8646C275.18 89.0451 275.862 88.3704 276.685 87.915C277.554 87.4454 278.528 87.2073 279.515 87.2237C280.243 87.2023 280.968 87.3286 281.646 87.5951C282.324 87.8616 282.941 88.2627 283.46 88.7744C283.986 89.2921 284.399 89.9138 284.672 90.6001C284.945 91.2864 285.072 92.0221 285.046 92.7605V111.022H295.171V90.5184C295.187 88.3833 294.642 86.2815 293.592 84.4237C292.562 82.5804 291.062 81.0444 289.245 79.9726Z" fill="#E66E78"/>
<path d="M337.655 92.6902L315.695 64.4839H308.395V111.022H318.787V83.1671L340.423 111.022H348.113V64.4839H337.655V92.6902Z" fill="#E66E78"/>
<path d="M380.374 80.4362C377.631 78.9722 374.565 78.2243 371.458 78.2616C371.318 78.2591 371.178 78.2641 371.039 78.2766C368.036 78.2667 365.081 79.0255 362.452 80.4811C359.889 81.8847 357.741 83.9441 356.229 86.4499C354.709 88.9941 353.927 91.9129 353.97 94.8782C353.93 97.8945 354.722 100.863 356.259 103.456C357.787 105.983 359.941 108.071 362.512 109.515C365.118 110.975 368.054 111.739 371.039 111.735C371.178 111.747 371.318 111.752 371.458 111.75C374.584 111.805 377.669 111.035 380.404 109.515C382.623 108.272 384.535 106.545 385.999 104.461V85.4301C384.534 83.3524 382.608 81.6431 380.374 80.4362ZM377.726 98.9274C377.176 100.06 376.294 100.996 375.198 101.612C374.052 102.238 372.763 102.554 371.458 102.527C371.318 102.532 371.177 102.522 371.039 102.497C369.871 102.483 368.725 102.179 367.703 101.612C366.609 100.985 365.72 100.052 365.145 98.9274C364.513 97.6998 364.194 96.3344 364.218 94.9532C364.201 93.6206 364.52 92.3053 365.145 91.129C365.729 90.0105 366.615 89.0799 367.703 88.4445C368.72 87.8607 369.868 87.5459 371.039 87.5297C371.177 87.5043 371.318 87.4942 371.458 87.4997C372.757 87.4733 374.039 87.7997 375.168 88.4445C376.232 89.0807 377.105 89.9925 377.696 91.084C378.328 92.2739 378.647 93.6055 378.624 94.9532C378.648 96.3287 378.34 97.6896 377.726 98.9198V98.9274Z" fill="#E66E78"/>
<path d="M29.2099 138.774C27.3174 137.663 25.1574 137.092 22.9643 137.125C20.6681 137.089 18.3985 137.622 16.3567 138.675C15.4915 139.137 14.6873 139.705 13.9632 140.367V137.785H3.82812V169.823H13.9587V151.567C13.9372 150.554 14.1867 149.553 14.6812 148.669C15.1456 147.85 15.8269 147.175 16.6499 146.72C17.5193 146.25 18.4944 146.012 19.4817 146.028C20.2094 146.007 20.9338 146.133 21.6114 146.4C22.2891 146.666 22.906 147.067 23.4251 147.579C23.9498 148.097 24.3611 148.719 24.6328 149.406C24.9045 150.092 25.0307 150.827 25.0033 151.565V169.826H35.1279V149.323C35.1441 147.189 34.5998 145.087 33.5497 143.23C32.5229 141.385 31.0251 139.847 29.2099 138.774Z" fill="#E66E78"/>
<path d="M77.6241 151.495L55.6635 123.289H48.3633V169.827H58.7556V141.972L80.3916 169.827H88.0808V123.289H77.6241V151.495Z" fill="#E66E78"/>
<path d="M126.621 145.201C125.091 142.689 122.923 140.629 120.338 139.232C117.596 137.769 114.529 137.026 111.423 137.072C108.281 137.016 105.179 137.775 102.417 139.277C99.8573 140.681 97.7151 142.741 96.2088 145.246C94.6841 147.789 93.8967 150.707 93.9349 153.674C93.8996 156.692 94.6969 159.66 96.2387 162.252C97.7622 164.782 99.9175 166.871 102.492 168.311C105.244 169.778 108.313 170.546 111.43 170.546C114.547 170.546 117.616 169.778 120.368 168.311C122.935 166.873 125.088 164.797 126.621 162.282C128.171 159.682 128.968 156.702 128.925 153.674C128.956 150.69 128.159 147.756 126.621 145.201ZM117.706 157.723C117.151 158.852 116.27 159.787 115.177 160.408C114.019 161.009 112.734 161.323 111.43 161.323C110.126 161.323 108.841 161.009 107.683 160.408C106.584 159.781 105.69 158.849 105.11 157.723C104.483 156.494 104.169 155.129 104.197 153.749C104.176 152.417 104.49 151.102 105.11 149.925C105.695 148.806 106.588 147.88 107.683 147.255C108.82 146.602 110.112 146.271 111.423 146.295C112.729 146.267 114.017 146.599 115.147 147.255C116.214 147.882 117.088 148.789 117.676 149.88C118.303 151.071 118.617 152.402 118.588 153.749C118.616 155.126 118.311 156.49 117.698 157.723H117.706Z" fill="#E66E78"/>
<path d="M159.225 138.774C157.332 137.663 155.172 137.092 152.979 137.125C150.683 137.089 148.414 137.622 146.372 138.675C145.507 139.137 144.702 139.705 143.978 140.367V137.785H133.848V169.823H143.975V151.567C143.954 150.554 144.203 149.553 144.698 148.669C145.162 147.85 145.843 147.175 146.666 146.72C147.536 146.25 148.511 146.012 149.498 146.028C150.226 146.007 150.95 146.133 151.628 146.4C152.306 146.666 152.923 147.067 153.442 147.579C153.967 148.097 154.378 148.719 154.65 149.405C154.922 150.092 155.048 150.827 155.021 151.565V169.826H165.144V149.323C165.162 147.188 164.617 145.087 163.566 143.23C162.539 141.385 161.041 139.847 159.225 138.774Z" fill="#E66E78"/>
<path d="M207.64 151.495L185.679 123.289H178.379V169.827H188.771V141.972L210.407 169.827H218.096V123.289H207.64V151.495Z" fill="#E66E78"/>
<path d="M256.629 145.201C255.107 142.682 252.937 140.62 250.346 139.232C247.572 137.805 244.498 137.064 241.38 137.072C238.262 137.08 235.192 137.836 232.425 139.277C229.868 140.685 227.727 142.744 226.217 145.246C224.692 147.789 223.904 150.707 223.943 153.674C223.907 156.692 224.705 159.66 226.247 162.252C227.77 164.782 229.925 166.871 232.5 168.311C235.252 169.778 238.321 170.545 241.438 170.545C244.555 170.545 247.624 169.778 250.376 168.311C252.946 166.877 255.1 164.8 256.629 162.282C258.179 159.682 258.976 156.702 258.933 153.674C258.964 150.69 258.167 147.756 256.629 145.201ZM247.713 157.723C247.159 158.852 246.278 159.787 245.185 160.408C244.027 161.009 242.742 161.322 241.438 161.322C240.134 161.322 238.849 161.009 237.691 160.408C236.596 159.78 235.707 158.848 235.132 157.723C234.494 156.498 234.174 155.131 234.205 153.749C234.181 152.415 234.501 151.098 235.132 149.925C235.712 148.807 236.6 147.881 237.691 147.255C238.832 146.601 240.13 146.269 241.445 146.295C242.746 146.269 244.03 146.601 245.155 147.255C246.222 147.882 247.096 148.789 247.683 149.88C248.315 151.07 248.634 152.401 248.611 153.749C248.637 155.127 248.329 156.491 247.713 157.723Z" fill="#E66E78"/>
<path d="M289.245 138.774C287.352 137.663 285.193 137.093 282.999 137.125C280.703 137.089 278.433 137.622 276.39 138.675C275.526 139.137 274.722 139.706 273.997 140.367V137.785H263.863V169.823H273.992V151.567C273.972 150.554 274.221 149.554 274.715 148.669C275.18 147.85 275.862 147.175 276.685 146.72C277.554 146.25 278.528 146.012 279.515 146.028C280.243 146.007 280.968 146.133 281.646 146.4C282.324 146.666 282.941 147.068 283.46 147.579C283.986 148.097 284.399 148.719 284.672 149.406C284.945 150.092 285.072 150.828 285.046 151.567V169.827H295.171V149.323C295.187 147.188 294.642 145.087 293.592 143.23C292.563 141.385 291.062 139.847 289.245 138.774Z" fill="#E66E78"/>
<path d="M337.655 151.495L315.695 123.289H308.395V169.827H318.787V141.972L340.423 169.827H348.113V123.289H337.655V151.495Z" fill="#E66E78"/>
<path d="M380.374 139.232C377.63 137.772 374.564 137.03 371.458 137.072C371.318 137.07 371.178 137.075 371.039 137.087C368.039 137.08 365.085 137.833 362.452 139.277C359.889 140.68 357.741 142.74 356.229 145.245C354.709 147.79 353.927 150.708 353.97 153.674C353.93 156.69 354.722 159.659 356.259 162.252C357.783 164.782 359.938 166.87 362.512 168.311C365.118 169.77 368.054 170.535 371.039 170.53C371.178 170.543 371.318 170.548 371.458 170.545C374.584 170.601 377.669 169.83 380.404 168.311C382.623 167.067 384.535 165.34 385.999 163.257V144.226C384.534 142.148 382.608 140.439 380.374 139.232ZM377.726 157.723C377.176 158.855 376.294 159.792 375.198 160.407C374.052 161.034 372.763 161.349 371.458 161.322C371.318 161.328 371.177 161.318 371.039 161.292C369.871 161.279 368.725 160.975 367.703 160.407C366.609 159.78 365.72 158.847 365.145 157.723C364.513 156.495 364.194 155.13 364.218 153.749C364.201 152.416 364.52 151.101 365.145 149.924C365.725 148.807 366.613 147.881 367.703 147.255C368.717 146.662 369.865 146.337 371.039 146.31C371.178 146.298 371.318 146.293 371.458 146.295C372.759 146.266 374.043 146.599 375.168 147.255C376.234 147.881 377.109 148.789 377.696 149.879C378.328 151.069 378.647 152.401 378.624 153.749C378.649 155.127 378.341 156.49 377.726 157.723Z" fill="#E66E78"/>
<path d="M35.1234 208.128V228.629H25.0108V210.378C25.0368 209.639 24.9093 208.903 24.6363 208.216C24.3633 207.529 23.9508 206.907 23.4251 206.388C22.906 205.874 22.2884 205.471 21.6096 205.203C20.9309 204.935 20.205 204.808 19.4758 204.829C19.0482 204.827 18.6218 204.872 18.2042 204.964C17.4737 205.105 16.7819 205.401 16.1754 205.833C15.569 206.266 15.062 206.823 14.6887 207.468C14.1864 208.354 13.9331 209.359 13.9557 210.378V223.665C9.66527 219.729 6.21939 214.958 3.82812 209.643V196.595H13.9557V199.175C14.4701 198.705 15.0259 198.284 15.6162 197.915C15.8556 197.765 16.0949 197.615 16.3492 197.48C18.3953 196.434 20.6648 195.904 22.9613 195.935C25.1567 195.904 27.3189 196.474 29.2144 197.585C31.0318 198.654 32.5299 200.192 33.5527 202.039C34.5979 203.896 35.1395 205.996 35.1234 208.128Z" fill="#E66E78"/>
<path d="M77.6241 210.3L55.6635 182.093H48.3633V228.632H58.7556V200.776L80.3916 228.632H88.0808V182.093H77.6241V210.3Z" fill="#E66E78"/>
<path d="M126.621 204.011C125.095 201.5 122.925 199.444 120.338 198.057C117.567 196.623 114.493 195.878 111.374 195.883C108.255 195.888 105.184 196.644 102.417 198.087C99.8573 199.491 97.7151 201.551 96.2088 204.056C94.6841 206.599 93.8967 209.518 93.9349 212.484C93.9051 215.113 94.5053 217.71 95.6852 220.058C95.8647 220.403 96.0442 220.733 96.2387 221.063C97.758 223.596 99.9143 225.686 102.492 227.122C105.241 228.598 108.311 229.371 111.43 229.371C114.549 229.371 117.619 228.598 120.368 227.122C122.938 225.688 125.092 223.611 126.621 221.093C126.828 220.758 127.018 220.412 127.19 220.058C128.361 217.708 128.956 215.111 128.925 212.484C128.956 209.5 128.159 206.567 126.621 204.011ZM111.423 220.133C110.121 220.135 108.838 219.821 107.683 219.218C106.585 218.597 105.691 217.67 105.11 216.549C104.484 215.314 104.171 213.944 104.197 212.559C104.176 211.228 104.49 209.913 105.11 208.735C105.699 207.62 106.591 206.695 107.683 206.066C108.82 205.413 110.112 205.081 111.423 205.106C112.729 205.077 114.017 205.409 115.147 206.066C116.218 206.694 117.093 207.608 117.676 208.705C118.304 209.89 118.618 211.218 118.588 212.559C118.617 213.941 118.314 215.309 117.706 216.549C117.15 217.673 116.269 218.604 115.177 219.218C114.36 219.674 113.46 219.959 112.53 220.058C112.161 220.111 111.788 220.134 111.415 220.125L111.423 220.133Z" fill="#E66E78"/>
<path d="M159.225 197.582C157.332 196.471 155.172 195.9 152.979 195.932C150.683 195.897 148.414 196.429 146.372 197.483C145.507 197.944 144.702 198.513 143.978 199.175V196.592H133.848V228.63H143.975V210.371C143.954 209.358 144.203 208.358 144.698 207.474C145.162 206.655 145.843 205.98 146.666 205.524C147.536 205.055 148.511 204.817 149.498 204.833C150.226 204.812 150.95 204.938 151.628 205.204C152.306 205.471 152.923 205.872 153.442 206.384C153.966 206.902 154.378 207.524 154.65 208.21C154.922 208.896 155.048 209.632 155.021 210.37V228.63H165.144V208.128C165.162 205.993 164.617 203.891 163.566 202.035C162.539 200.191 161.04 198.654 159.225 197.582Z" fill="#E66E78"/>
<path d="M207.64 210.3L185.679 182.093H178.379V228.632H188.771V200.776L210.407 228.632H218.096V182.093H207.64V210.3Z" fill="#E66E78"/>
<path d="M256.629 204.011C255.111 201.493 252.939 199.436 250.346 198.057C247.575 196.623 244.501 195.878 241.382 195.883C238.263 195.888 235.191 196.644 232.425 198.087C229.868 199.496 227.727 201.554 226.217 204.056C224.692 206.599 223.904 209.518 223.943 212.484C223.913 215.113 224.513 217.71 225.693 220.058C225.873 220.403 226.052 220.733 226.247 221.063C227.766 223.596 229.922 225.686 232.5 227.122C235.249 228.598 238.319 229.371 241.438 229.371C244.557 229.371 247.627 228.598 250.376 227.122C252.949 225.692 255.104 223.614 256.629 221.093C256.836 220.758 257.026 220.412 257.198 220.058C258.369 217.708 258.964 215.111 258.933 212.484C258.964 209.5 258.167 206.567 256.629 204.011ZM241.445 220.133C241.07 220.139 240.695 220.114 240.323 220.058C239.399 219.954 238.504 219.669 237.691 219.218C236.597 218.597 235.708 217.669 235.132 216.549C234.495 215.318 234.176 213.946 234.205 212.559C234.181 211.226 234.501 209.909 235.132 208.735C235.716 207.621 236.603 206.695 237.691 206.066C238.832 205.411 240.13 205.079 241.445 205.106C242.746 205.079 244.03 205.411 245.155 206.066C246.226 206.694 247.101 207.608 247.683 208.705C248.317 209.889 248.636 211.216 248.611 212.559C248.635 213.942 248.327 215.31 247.713 216.549C247.158 217.673 246.277 218.604 245.185 219.218C244.03 219.821 242.747 220.135 241.445 220.133Z" fill="#E66E78"/>
<path d="M289.245 197.582C287.352 196.471 285.193 195.9 282.999 195.932C280.703 195.897 278.433 196.429 276.39 197.483C275.526 197.945 274.722 198.513 273.997 199.175V196.592H263.863V228.63H273.992V210.371C273.972 209.358 274.221 208.358 274.715 207.474C275.18 206.654 275.862 205.98 276.685 205.524C277.554 205.055 278.528 204.817 279.515 204.833C280.243 204.812 280.968 204.938 281.646 205.204C282.324 205.471 282.941 205.872 283.46 206.384C283.986 206.902 284.399 207.524 284.672 208.21C284.945 208.897 285.072 209.633 285.046 210.371V228.632H295.171V208.128C295.187 205.993 294.642 203.892 293.592 202.035C292.562 200.191 291.062 198.654 289.245 197.582Z" fill="#E66E78"/>
<path d="M337.655 210.3L315.695 182.093H308.395V228.632H318.787V200.776L340.423 228.632H348.113V182.093H337.655V210.3Z" fill="#E66E78"/>
<path d="M380.374 198.05C377.634 196.579 374.566 195.831 371.458 195.875C371.219 195.875 370.979 195.875 370.74 195.89C367.84 195.93 364.995 196.681 362.452 198.08C359.889 199.483 357.741 201.543 356.229 204.049C354.709 206.593 353.927 209.512 353.97 212.477C353.963 214.162 354.2 215.839 354.674 217.456C355.053 218.716 355.585 219.925 356.259 221.055C357.779 223.589 359.935 225.678 362.512 227.114C363.524 227.698 364.598 228.166 365.714 228.509C370.513 225.508 374.675 221.589 377.963 216.975C381.251 212.361 383.601 207.143 384.877 201.619C383.602 200.167 382.077 198.958 380.374 198.05ZM377.726 216.541C377.175 217.669 376.293 218.601 375.198 219.211C374.04 219.812 372.755 220.126 371.451 220.126C370.146 220.126 368.861 219.812 367.703 219.211C366.61 218.589 365.721 217.662 365.145 216.541C364.515 215.308 364.196 213.938 364.218 212.552C364.211 211.548 364.388 210.552 364.741 209.613V209.598C364.861 209.301 364.996 209.01 365.145 208.728C365.556 207.938 366.126 207.244 366.821 206.688C367.092 206.448 367.388 206.237 367.703 206.058C368.845 205.404 370.143 205.072 371.458 205.099C372.759 205.07 374.043 205.402 375.168 206.058C376.238 206.686 377.114 207.6 377.696 208.698C378.33 209.882 378.649 211.209 378.624 212.552C378.648 213.935 378.34 215.303 377.726 216.541Z" fill="#E66E78"/>
<path d="M380.196 21.5357C376.416 14.9802 370.98 9.5385 364.436 5.75799C357.892 1.97747 350.47 -0.00844297 342.917 2.69802e-05H43.0835C35.799 -0.00510069 28.6325 1.84432 22.256 5.37501C15.8795 8.90569 10.5018 14.0019 6.62716 20.1859C5.56884 21.8495 4.63385 23.5889 3.82973 25.3899C1.29283 30.9738 -0.0133876 37.0404 0.000103448 43.1763V191.864C0.00842425 203.316 4.55022 214.297 12.6281 222.395C20.706 230.493 31.6596 235.047 43.0835 235.055H342.917C354.34 235.046 365.294 230.493 373.372 222.395C381.449 214.297 385.991 203.316 386 191.864V43.1838C386.016 35.5792 384.012 28.1075 380.196 21.5357ZM348.123 219.556C346.407 219.888 344.664 220.054 342.917 220.05H43.0835C37.9597 220.044 32.9348 218.636 28.5508 215.977C24.1668 213.318 20.5899 209.51 18.2058 204.964C17.0221 202.745 16.1512 200.373 15.6178 197.915C15.1774 195.926 14.9567 193.894 14.9596 191.856V43.1763C14.9547 37.9706 16.3947 32.8663 19.1183 28.4342C21.1419 25.1651 23.803 22.3393 26.9422 20.1259C31.6621 16.7801 37.3028 14.9878 43.0835 14.997H342.917C344.664 14.9938 346.407 15.1595 348.123 15.4918C354.564 16.7017 360.381 20.1313 364.566 25.187C368.751 30.2427 371.042 36.6063 371.041 43.1763V191.864C371.025 197.103 369.565 202.236 366.822 206.696C366.195 207.712 365.501 208.684 364.743 209.605V209.62C362.031 212.974 358.586 215.657 354.675 217.464C352.589 218.438 350.387 219.141 348.123 219.556Z" fill="#0600FF"/>
</g>
<defs>
<clipPath id="clip0_302_3559">
<rect width="386" height="423" fill="white"/>
</clipPath>
</defs>
</svg>
