<svg xmlns="http://www.w3.org/2000/svg" viewBox="0 0 325.51 182.74"><defs><style>.cls-1{fill:#0600ff;}.cls-2{fill:#fff;}.cls-3{fill:none;stroke:#0600ff;stroke-miterlimit:10;stroke-width:3px;}.cls-4{fill:#e66e78;}</style></defs><title>Fichier 1</title><g id="Calque_2" data-name="Calque 2"><g id="Calque_1-2" data-name="Calque 1"><path class="cls-1" d="M258.07,113.89c0,.57-3.7,1-8.26,1s-8.27-.46-8.27-1,3.7-1,8.27-1,8.26.46,8.26,1"/><path class="cls-1" d="M150.48,168.47c0,.3-2,.54-4.4.54s-4.41-.24-4.41-.54,2-.55,4.41-.55,4.4.24,4.4.55"/><path class="cls-1" d="M176.83,159.9l.2-17.28a5.55,5.55,0,0,0-5.56-5.56h-.15V40a5.72,5.72,0,0,0,5.7-6.1,5.85,5.85,0,0,0-5.9-5.33h-5.51V22.08a5.71,5.71,0,0,0,2.86-4.95V5.71A5.72,5.72,0,0,0,162.75,0H157V17.13h-2.85V28.55h-5.71a5.72,5.72,0,0,0,0,11.43v97.08h-.15a5.55,5.55,0,0,0-5.56,5.56V159.9h.2a5.91,5.91,0,0,0-5.91,5.91V177h45.68V165.81a5.91,5.91,0,0,0-5.91-5.91M159.9,134.2a2.86,2.86,0,1,1-5.71,0v-5.71a2.86,2.86,0,0,1,5.71,0Zm4.76-113.77-.95.55v7.57H159.9V17.13h-1V1.9h3.8a3.82,3.82,0,0,1,3.81,3.81V17.13a3.84,3.84,0,0,1-1.9,3.3m4.76,118a5.57,5.57,0,0,0-3.66-1.37h-.15V40a5.67,5.67,0,0,0,3.81-1.47Zm.43-108h1.27a3.92,3.92,0,0,1,4,3.54,3.82,3.82,0,0,1-1,2.87,3.75,3.75,0,0,1-2.78,1.2h-1.47a5.66,5.66,0,0,0,0-7.61m5.07,129.42v1.4a5.89,5.89,0,0,0-3.79-1.38h.2V142.62a5.51,5.51,0,0,0-1.38-3.66h1.53a3.66,3.66,0,0,1,3.66,3.63Zm5.92,15.25H177v-9.32a5.93,5.93,0,0,0-1.57-4h1.37a4,4,0,0,1,4,4Z"/><path class="cls-2" d="M180.84,165.81v9.32H177v-9.32a5.93,5.93,0,0,0-1.57-4h1.37a4,4,0,0,1,4,4"/><path class="cls-2" d="M175.13,142.59l-.2,17.29,0,1.4a5.89,5.89,0,0,0-3.79-1.38h.2V142.61a5.5,5.5,0,0,0-1.38-3.65h1.53a3.66,3.66,0,0,1,3.66,3.63"/><path class="cls-2" d="M159.9,128.49v5.71a2.86,2.86,0,1,1-5.71,0v-5.71a2.86,2.86,0,0,1,5.71,0"/><path class="cls-2" d="M169.42,38.51v99.92a5.57,5.57,0,0,0-3.66-1.37h-.15V40a5.67,5.67,0,0,0,3.81-1.47"/><path class="cls-2" d="M174.1,36.87a3.75,3.75,0,0,1-2.78,1.2h-1.47a5.66,5.66,0,0,0,0-7.61h1.27a3.92,3.92,0,0,1,4,3.54,3.82,3.82,0,0,1-1,2.87"/><path class="cls-2" d="M166.56,5.71V17.13a3.84,3.84,0,0,1-1.9,3.3l-.95.55v7.57H159.9V22.08a5.8,5.8,0,0,0,1.18-.91,5.71,5.71,0,0,0,1.68-4V5.71a5.69,5.69,0,0,0-1.47-3.81h1.47a3.81,3.81,0,0,1,3.8,3.81"/><path class="cls-1" d="M322.65,177H298a4.67,4.67,0,0,0,4.67-4.66v-7.58a4.89,4.89,0,0,0-4.9-4.89h-6.53V131.35H279.82V159.9H211.3V131.35H199.87V159.9h-.81a4.89,4.89,0,0,0-4.9,4.89v7.58a4.67,4.67,0,0,0,4.67,4.66H2.86a2.86,2.86,0,1,0,0,5.71H322.65a2.86,2.86,0,1,0,0-5.71M297.77,161.8a3,3,0,0,1,3,3v7.58a2.76,2.76,0,0,1-2.76,2.76h-2a4.67,4.67,0,0,0,.92-2.76v-7.58a4.9,4.9,0,0,0-1-3Zm-10.33-28.55h1.9V159.9h-1.9Zm-79.95,0h1.9V159.9h-1.9Zm115.16,47.59H2.86a1,1,0,1,1,0-1.91H322.65a1,1,0,1,1,0,1.91"/><path class="cls-2" d="M323.61,179.89a1,1,0,0,1-1,1H2.86a1,1,0,1,1,0-1.91H322.65a1,1,0,0,1,1,1"/><path class="cls-2" d="M300.76,164.79v7.58a2.76,2.76,0,0,1-2.76,2.76h-2a4.67,4.67,0,0,0,.92-2.76v-7.58a4.9,4.9,0,0,0-1-3h1.84a3,3,0,0,1,3,3"/><rect class="cls-2" x="207.49" y="133.25" width="1.9" height="3.81"/><rect class="cls-2" x="207.49" y="142.77" width="1.9" height="17.13"/><rect class="cls-2" x="287.44" y="142.77" width="1.9" height="17.13"/><rect class="cls-2" x="287.44" y="133.25" width="1.9" height="3.81"/><path class="cls-1" d="M71.06,40a62.82,62.82,0,1,0,62.82,62.81A62.82,62.82,0,0,0,71.06,40m0,119.92a57.11,57.11,0,1,1,57.11-57.11A57.11,57.11,0,0,1,71.06,159.9"/><path class="cls-1" d="M71.06,62.82a40,40,0,1,0,40,40,40,40,0,0,0-40-40m0,74.24a34.27,34.27,0,1,1,34.27-34.27,34.26,34.26,0,0,1-34.27,34.27"/><line class="cls-3" x1="71.05" y1="105.65" x2="70.9" y2="162.76"/><line class="cls-3" x1="69.82" y1="105.36" x2="44.9" y2="156.75"/><line class="cls-3" x1="68.82" y1="104.57" x2="24.08" y2="140.05"/><line class="cls-3" x1="68.28" y1="103.42" x2="12.57" y2="115.97"/><line class="cls-3" x1="68.28" y1="102.15" x2="12.64" y2="89.29"/><line class="cls-3" x1="68.83" y1="101.01" x2="24.28" y2="65.28"/><line class="cls-3" x1="69.83" y1="100.22" x2="45.19" y2="48.7"/><line class="cls-3" x1="71.07" y1="99.94" x2="71.23" y2="42.83"/><line class="cls-3" x1="72.31" y1="100.22" x2="97.23" y2="48.84"/><line class="cls-3" x1="73.3" y1="101.02" x2="118.05" y2="65.54"/><line class="cls-3" x1="73.85" y1="102.17" x2="129.56" y2="89.61"/><line class="cls-3" x1="73.84" y1="103.44" x2="129.48" y2="116.3"/><line class="cls-3" x1="73.29" y1="104.58" x2="117.84" y2="140.31"/><line class="cls-3" x1="72.29" y1="105.37" x2="96.93" y2="156.89"/><path class="cls-4" d="M71.06,53.93h0a6,6,0,1,1,6-6,6,6,0,0,1-6,6"/><path class="cls-4" d="M102.15,62.5h0a6,6,0,1,1,6-6,6,6,0,0,1-6,6"/><path class="cls-4" d="M121.51,78.68h0a6,6,0,1,1,6-6,6,6,0,0,1-6,6"/><path class="cls-4" d="M131,102.79h0a6,6,0,0,1-6-6h0a6,6,0,0,1,12.06,0h0a6,6,0,0,1-6,6"/><path class="cls-4" d="M130.07,126h0a6,6,0,0,1-6-6h0a6,6,0,0,1,12.06,0h0a6,6,0,0,1-6,6"/><path class="cls-4" d="M118.34,149.12h0a6,6,0,1,1,6-6,6,6,0,0,1-6,6"/><path class="cls-4" d="M96.44,165.93h0a6,6,0,0,1-6-6h0a6,6,0,1,1,12.06,0h0a6,6,0,0,1-6,6"/><path class="cls-4" d="M71.06,171.64h0a6,6,0,1,1,6-6,6,6,0,0,1-6,6"/><path class="cls-1" d="M71.46,102.79h-.79a4.45,4.45,0,0,0-3.77,2.09L28.31,166.63a19.24,19.24,0,0,0-2.93,10.22V177h91.37a19.88,19.88,0,0,0-3-10.55l-38.5-61.6a4.43,4.43,0,0,0-3.76-2.09m-37.56,64,37.16-59.88,37.16,59.88a3,3,0,0,1-2.52,4.53H36.42a3,3,0,0,1-2.52-4.53"/><path class="cls-1" d="M72.84,102.79a1.78,1.78,0,1,0-1.78,1.78,1.78,1.78,0,0,0,1.78-1.78"/><path class="cls-4" d="M40,62.5h0a6,6,0,1,0-6-6,6,6,0,0,0,6,6"/><path class="cls-4" d="M20.61,78.68h0a6,6,0,1,0-6-6,6,6,0,0,0,6,6"/><path class="cls-4" d="M11.1,102.79h0a6,6,0,0,0,6-6h0a6,6,0,0,0-12.06,0h0a6,6,0,0,0,6,6"/><path class="cls-4" d="M12.05,126h0a6,6,0,0,0,6-6h0a6,6,0,0,0-12.06,0H6a6,6,0,0,0,6,6"/><path class="cls-4" d="M23.79,149.12h0a6,6,0,1,0-6-6,6,6,0,0,0,6,6"/><path class="cls-4" d="M45.68,165.93h0a6,6,0,0,0,6-6h0a6,6,0,1,0-12.06,0h0a6,6,0,0,0,6,6"/><path class="cls-1" d="M285.53,102.79H211.3a5.72,5.72,0,0,0-5.72,5.71h85.67a5.72,5.72,0,0,0-5.72-5.71m-.33,3.81a5.71,5.71,0,0,0-1.13-1.9h1.46a3.8,3.8,0,0,1,3.3,1.9Z"/><path class="cls-2" d="M288.83,106.6H285.2a5.71,5.71,0,0,0-1.13-1.9h1.46a3.8,3.8,0,0,1,3.3,1.9"/><path class="cls-4" d="M305.52,137.06H191.31a2.86,2.86,0,1,0,0,5.71H305.52a2.86,2.86,0,1,0,0-5.71m0,3.8h-3a2.68,2.68,0,0,0,.18-1,2.76,2.76,0,0,0-.18-.95h3a1,1,0,1,1,0,1.9"/><path class="cls-2" d="M306.47,139.91a.94.94,0,0,1-1,1h-3a2.68,2.68,0,0,0,.18-1,2.76,2.76,0,0,0-.18-.95h3a1,1,0,0,1,1,.95"/><path class="cls-4" d="M297.7,108.5H199.13a4.72,4.72,0,0,0-5,4.42v14a4.17,4.17,0,0,0,1.46,3.12,5.28,5.28,0,0,0,3.51,1.3H297.7a4.72,4.72,0,0,0,5-4.42v-14a4.72,4.72,0,0,0-5-4.42m-13.59,17.14H207c-3.54,0-6.43-2.56-6.43-5.72s2.89-5.71,6.43-5.71h77.1c3.54,0,6.43,2.56,6.43,5.71s-2.89,5.72-6.43,5.72m16.65,1.29a2.83,2.83,0,0,1-3.06,2.51h-1.63a4,4,0,0,0,.89-2.51v-14a4,4,0,0,0-.89-2.51h1.63a2.83,2.83,0,0,1,3.06,2.51Z"/><path class="cls-2" d="M300.76,112.92v14a2.83,2.83,0,0,1-3.06,2.51h-1.63a4,4,0,0,0,.89-2.51v-14a4,4,0,0,0-.89-2.51h1.63a2.83,2.83,0,0,1,3.06,2.51"/><path class="cls-2" d="M290.53,119.92c0,3.16-2.88,5.72-6.42,5.72H207c-3.54,0-6.43-2.56-6.43-5.72s2.89-5.71,6.43-5.71h77.1c3.54,0,6.42,2.56,6.42,5.71"/><path class="cls-4" d="M162.75,5.71V17.13a5.7,5.7,0,0,1-1.67,4,5.65,5.65,0,0,1-4,1.67,5.71,5.71,0,0,1-5.71-5.71V5.71a5.71,5.71,0,1,1,11.42,0"/></g></g></svg>