<svg width="180" height="90" viewBox="0 0 180 90" fill="none" xmlns="http://www.w3.org/2000/svg">
<rect width="180" height="90" rx="45" fill="#29BA9B"/>
<path d="M85 36.5C87.7614 36.5 90 34.2614 90 31.5L90 24.5C90 21.7386 92.2386 19.5 95 19.5L96.4289 19.5C97.755 19.5 99.0268 20.0268 99.9645 20.9645L120.464 41.4645C122.417 43.4171 122.417 46.5829 120.464 48.5355L99.9645 69.0355C99.0268 69.9732 97.755 70.5 96.4289 70.5L95 70.5C92.2386 70.5 90 68.2614 90 65.5L90 58.5C90 55.7386 87.7614 53.5 85 53.5L61 53.5C58.2386 53.5 56 51.2614 56 48.5L56 41.5C56 38.7386 58.2386 36.5 61 36.5L85 36.5Z" fill="white"/>
</svg>
