<svg width="90" height="90" viewBox="0 0 90 90" fill="none" xmlns="http://www.w3.org/2000/svg">
<circle cx="45" cy="45" r="45" fill="#E66E78"/>
<path d="M20 45V65H70V45" stroke="white" stroke-width="8" stroke-linecap="round"/>
<path d="M49 37C49 38.1046 49.8954 39 51 39L55 39C56.1046 39 57 39.8954 57 41V42.1716C57 42.702 56.7893 43.2107 56.4142 43.5858L46.4142 53.5858C45.6332 54.3668 44.3668 54.3668 43.5858 53.5858L33.5858 43.5858C33.2107 43.2107 33 42.702 33 42.1716V41C33 39.8954 33.8954 39 35 39H39C40.1046 39 41 38.1046 41 37V25C41 23.8954 41.8954 23 43 23L47 23C48.1046 23 49 23.8954 49 25V37Z" fill="white"/>
</svg>
