<svg xmlns="http://www.w3.org/2000/svg" viewBox="0 0 314.09 217.89"><defs><style>.cls-1{fill:#e66e78;}.cls-2{fill:#fff;}.cls-3{fill:#0600ff;}</style></defs><title>Fichier 5</title><g id="Calque_2" data-name="Calque 2"><g id="Calque_2-2" data-name="Calque 2"><rect class="cls-1" x="39.97" y="28.55" width="234.14" height="85.66"/><path class="cls-1" d="M71.38,165.61a2.85,2.85,0,0,0-2.85,2.86v2.85H51.4a7.33,7.33,0,0,0,1.54,4.5,7.21,7.21,0,0,0,4,2.59l9.51,2.38,2.08.52,2.43.61a2.8,2.8,0,0,0,.64.08,2.64,2.64,0,0,0,2.64-2.63v-10.9a2.86,2.86,0,0,0-2.86-2.86m1,13.76a.73.73,0,0,1-.73.73l-.18,0-14-3.51a5.39,5.39,0,0,1-3-1.92,5.72,5.72,0,0,1-.79-1.43H70.43v-4.75a1,1,0,1,1,1.9,0Z"/><path class="cls-2" d="M72.33,168.47v10.9a.73.73,0,0,1-.73.73l-.18,0-14-3.51a5.39,5.39,0,0,1-3-1.92,5.72,5.72,0,0,1-.79-1.43H70.43v-4.75a1,1,0,1,1,1.9,0"/><polygon class="cls-1" points="73.37 168.49 73.64 171.32 76.77 169.84 73.37 168.49"/><rect class="cls-1" x="66.45" y="179.89" width="2.08" height="2.85"/><path class="cls-1" d="M167.75,201.84a2.71,2.71,0,0,0-.68-.09,2.86,2.86,0,0,0-2.77,2.19l-.67,2.77-16.65-4a7.31,7.31,0,0,0,3.71,8.2l8.69,4.55,1.89,1,2.23,1.16a2.67,2.67,0,0,0,1.21.3,2.62,2.62,0,0,0,2.57-2l2-8.1.52-2.14.09-.36a2.84,2.84,0,0,0-2.1-3.44m.25,3-2.57,10.59a.72.72,0,0,1-.72.55.67.67,0,0,1-.33-.08l-12.81-6.71a5.35,5.35,0,0,1-2.41-2.56,5.11,5.11,0,0,1-.44-1.57l14.46,3.5L165,209l.45-1.85.67-2.77a.94.94,0,0,1,.92-.73l.23,0a1,1,0,0,1,.7,1.16"/><path class="cls-2" d="M168,204.84l-2.57,10.59a.72.72,0,0,1-.72.55.67.67,0,0,1-.33-.08l-12.81-6.71a5.35,5.35,0,0,1-2.41-2.56,5.11,5.11,0,0,1-.44-1.57l14.46,3.5L165,209l.45-1.85.67-2.77a.94.94,0,0,1,.92-.73l.23,0a1,1,0,0,1,.7,1.16"/><polygon class="cls-1" points="169 205.09 168.6 207.92 171.98 207.22 169 205.09"/><rect class="cls-1" x="158.84" y="215.14" width="2.86" height="2.08" transform="translate(-87.59 320.99) rotate(-76.37)"/><path class="cls-1" d="M202.4,159.9V157a2.86,2.86,0,0,0-5.71,0v10.9a2.64,2.64,0,0,0,2.64,2.64,2.87,2.87,0,0,0,.64-.08l2.43-.61,2.08-.52L214,167a7.31,7.31,0,0,0,5.54-7.09Zm14.09,3.33a5.43,5.43,0,0,1-3,1.92l-14,3.51h-.18a.73.73,0,0,1-.74-.73V157a1,1,0,0,1,1.91,0v4.76h16.79a5.9,5.9,0,0,1-.8,1.43"/><path class="cls-2" d="M217.29,161.8a5.61,5.61,0,0,1-.81,1.43,5.37,5.37,0,0,1-2.94,1.92l-14,3.51-.18,0a.74.74,0,0,1-.74-.73V157a1,1,0,0,1,1.91,0v4.76Z"/><polygon class="cls-1" points="197.56 157.06 194.16 158.42 197.29 159.9 197.56 157.06"/><rect class="cls-1" x="202.4" y="168.47" width="2.08" height="2.85"/><path class="cls-3" d="M68.53,0h0a5.71,5.71,0,0,0-5.71,5.71H74.24A5.71,5.71,0,0,0,68.53,0"/><path class="cls-3" d="M97.08,0h0a5.71,5.71,0,0,0-5.71,5.71h11.42A5.71,5.71,0,0,0,97.08,0"/><path class="cls-3" d="M125.63,0h0a5.71,5.71,0,0,0-5.71,5.71h11.43A5.72,5.72,0,0,0,125.63,0"/><path class="cls-3" d="M154.19,0h0a5.71,5.71,0,0,0-5.71,5.71H159.9A5.71,5.71,0,0,0,154.19,0"/><path class="cls-3" d="M182.74,0h0A5.71,5.71,0,0,0,177,5.71h11.42A5.71,5.71,0,0,0,182.74,0"/><path class="cls-3" d="M211.29,0h0a5.71,5.71,0,0,0-5.71,5.71H217A5.72,5.72,0,0,0,211.29,0"/><path class="cls-3" d="M239.85,0h0a5.71,5.71,0,0,0-5.71,5.71h11.42A5.71,5.71,0,0,0,239.85,0"/><path class="cls-3" d="M268.4,0h0a5.71,5.71,0,0,0-5.71,5.71h11.42A5.71,5.71,0,0,0,268.4,0"/><path class="cls-3" d="M311.23,137.06h-2.85A11.42,11.42,0,0,0,297,125.64h-5.72v-5.72a5.71,5.71,0,0,0-5.71-5.71,5.71,5.71,0,0,0-5.71-5.71V34.26h.12a5.8,5.8,0,0,0,5.71-5.71,5.7,5.7,0,0,0,5.59-5.71V17.13A5.68,5.68,0,0,0,297,11.42a5.78,5.78,0,0,0-5.84-5.71H45.68a5.71,5.71,0,0,0-11.42,0H22.84a5.71,5.71,0,0,0,0,11.42h1.51V28.55h4.2a5.71,5.71,0,0,0,5.71,5.71V108.5a5.71,5.71,0,0,0-5.71,5.71H22.84v5.71H17.13v5.72A11.42,11.42,0,0,0,5.71,137.06H2.85a2.86,2.86,0,0,0,0,5.71H311.23a2.86,2.86,0,1,0,0-5.71M289.78,7.61h1.34a3.87,3.87,0,0,1,3.93,3.81,3.77,3.77,0,0,1-3.81,3.81h-1.46a5.7,5.7,0,0,0,0-7.62m16.5,127.54h-3.79a11.41,11.41,0,0,0-4.89-7.58,9.53,9.53,0,0,1,8.68,7.58m-20.75-19a3.82,3.82,0,0,1,3.3,1.9h-3.3Zm-1.9-1.91h-3.81a5.7,5.7,0,0,0-1.46-3.8h1.46a3.81,3.81,0,0,1,3.81,3.8m-3.69-81.85h-.08l-1.47,0a5.66,5.66,0,0,0,1.43-3.78h3.92a3.91,3.91,0,0,1-3.8,3.81m9.4-9.52a3.83,3.83,0,0,1-3.73,3.81h-.08V17.13a5.71,5.71,0,0,0,3.81-1.46ZM23,15.23A3.87,3.87,0,0,1,19,11.42,3.87,3.87,0,0,1,23,7.61H285.53a3.81,3.81,0,1,1,0,7.62Zm255,17.57V110a5.67,5.67,0,0,0-3.81-1.47V34.26a5.66,5.66,0,0,0,3.81-1.46m-26.65,77.61a3.81,3.81,0,0,1,3.81,3.8h-3.81a5.66,5.66,0,0,0-1.47-3.8Zm-1.47-78a5.67,5.67,0,0,0,1.47-3.81h3.81a3.82,3.82,0,0,1-3.81,3.81Zm1.47,76.14V34.26A5.71,5.71,0,0,0,257,28.55a5.71,5.71,0,0,0,5.71,5.71V108.5a5.71,5.71,0,0,0-5.71,5.71,5.71,5.71,0,0,0-5.71-5.71m-1.9-75.7V110a5.69,5.69,0,0,0-3.81-1.47V34.26a5.68,5.68,0,0,0,3.81-1.46m-26.66,77.61a3.8,3.8,0,0,1,3.81,3.8h-3.81a5.65,5.65,0,0,0-1.46-3.8Zm-1.46-78a5.66,5.66,0,0,0,1.46-3.81h3.81a3.81,3.81,0,0,1-3.81,3.81Zm1.46,76.14V34.26a5.71,5.71,0,0,0,5.72-5.71,5.7,5.7,0,0,0,5.71,5.71V108.5a5.71,5.71,0,0,0-5.71,5.71,5.72,5.72,0,0,0-5.72-5.71m-1.9-75.7V110A5.67,5.67,0,0,0,217,108.5V34.26a5.66,5.66,0,0,0,3.81-1.46m-26.65,77.61a3.81,3.81,0,0,1,3.81,3.8h-3.81a5.7,5.7,0,0,0-1.46-3.8Zm-1.46-78a5.71,5.71,0,0,0,1.46-3.81H198a3.82,3.82,0,0,1-3.81,3.81Zm1.46,76.14V34.26a5.7,5.7,0,0,0,5.71-5.71,5.71,5.71,0,0,0,5.71,5.71V108.5a5.71,5.71,0,0,0-5.71,5.71,5.71,5.71,0,0,0-5.71-5.71m-1.9-75.7V110a5.67,5.67,0,0,0-3.81-1.47V34.26a5.66,5.66,0,0,0,3.81-1.46m-26.65,77.61a3.81,3.81,0,0,1,3.81,3.8h-3.81a5.66,5.66,0,0,0-1.47-3.8Zm-1.47-78a5.67,5.67,0,0,0,1.47-3.81h3.81a3.82,3.82,0,0,1-3.81,3.81Zm1.47,76.14V34.26a5.71,5.71,0,0,0,5.71-5.71A5.71,5.71,0,0,0,177,34.26V108.5a5.71,5.71,0,0,0-5.71,5.71,5.71,5.71,0,0,0-5.71-5.71m-1.9-75.7V110a5.69,5.69,0,0,0-3.81-1.47V34.26a5.68,5.68,0,0,0,3.81-1.46m-26.66,77.61a3.8,3.8,0,0,1,3.81,3.8h-3.81a5.65,5.65,0,0,0-1.46-3.8Zm-1.46-78a5.66,5.66,0,0,0,1.46-3.81h3.81a3.81,3.81,0,0,1-3.81,3.81Zm1.46,76.14V34.26a5.71,5.71,0,0,0,5.72-5.71,5.7,5.7,0,0,0,5.71,5.71V108.5a5.71,5.71,0,0,0-5.71,5.71,5.72,5.72,0,0,0-5.72-5.71m-1.9-75.7V110a5.67,5.67,0,0,0-3.81-1.47V34.26a5.66,5.66,0,0,0,3.81-1.46M108.5,110.41a3.81,3.81,0,0,1,3.81,3.8H108.5a5.7,5.7,0,0,0-1.46-3.8Zm-1.46-78a5.71,5.71,0,0,0,1.46-3.81h3.81a3.82,3.82,0,0,1-3.81,3.81Zm1.46,76.14V34.26a5.7,5.7,0,0,0,5.71-5.71,5.71,5.71,0,0,0,5.71,5.71V108.5a5.71,5.71,0,0,0-5.71,5.71,5.71,5.71,0,0,0-5.71-5.71m-1.9-75.7V110a5.67,5.67,0,0,0-3.81-1.47V34.26a5.66,5.66,0,0,0,3.81-1.46M80,110.41a3.8,3.8,0,0,1,3.8,3.8H80a5.66,5.66,0,0,0-1.47-3.8Zm-1.47-78A5.67,5.67,0,0,0,80,28.55h3.8A3.81,3.81,0,0,1,80,32.36ZM80,108.5V34.26a5.71,5.71,0,0,0,5.71-5.71,5.71,5.71,0,0,0,5.71,5.71V108.5a5.71,5.71,0,0,0-5.71,5.71A5.71,5.71,0,0,0,80,108.5M78,32.8V110a5.64,5.64,0,0,0-3.8-1.47V34.26A5.63,5.63,0,0,0,78,32.8M51.39,110.41a3.8,3.8,0,0,1,3.81,3.8H51.39a5.65,5.65,0,0,0-1.46-3.8Zm-1.46-78a5.66,5.66,0,0,0,1.46-3.81H55.2a3.81,3.81,0,0,1-3.81,3.81Zm1.46,76.14V34.26a5.71,5.71,0,0,0,5.72-5.71,5.7,5.7,0,0,0,5.71,5.71V108.5a5.71,5.71,0,0,0-5.71,5.71,5.72,5.72,0,0,0-5.72-5.71m-1.9-75.7V110a5.67,5.67,0,0,0-3.81-1.47V34.26a5.66,5.66,0,0,0,3.81-1.46M19,121.83h270.3v1.9H19Zm292.19,19H2.85a.95.95,0,0,1,0-1.9H311.23a1,1,0,0,1,0,1.9"/><path class="cls-2" d="M55.2,28.55a3.81,3.81,0,0,1-3.81,3.81H49.93a5.66,5.66,0,0,0,1.46-3.81Z"/><path class="cls-2" d="M55.2,114.21H51.39a5.65,5.65,0,0,0-1.46-3.8h1.46a3.8,3.8,0,0,1,3.81,3.8"/><path class="cls-2" d="M49.49,32.8V110a5.67,5.67,0,0,0-3.81-1.47V34.26a5.66,5.66,0,0,0,3.81-1.46"/><path class="cls-2" d="M83.76,28.55A3.82,3.82,0,0,1,80,32.36H78.48A5.67,5.67,0,0,0,80,28.55Z"/><path class="cls-2" d="M83.76,114.21H80a5.66,5.66,0,0,0-1.47-3.8H80a3.81,3.81,0,0,1,3.81,3.8"/><path class="cls-2" d="M78.05,32.8V110a5.69,5.69,0,0,0-3.81-1.47V34.26a5.68,5.68,0,0,0,3.81-1.46"/><path class="cls-2" d="M112.31,28.55a3.82,3.82,0,0,1-3.81,3.81H107a5.71,5.71,0,0,0,1.46-3.81Z"/><path class="cls-2" d="M112.31,114.21H108.5a5.7,5.7,0,0,0-1.46-3.8h1.46a3.81,3.81,0,0,1,3.81,3.8"/><path class="cls-2" d="M106.6,32.8V110a5.67,5.67,0,0,0-3.81-1.47V34.26a5.66,5.66,0,0,0,3.81-1.46"/><path class="cls-2" d="M140.86,28.55a3.81,3.81,0,0,1-3.81,3.81h-1.46a5.66,5.66,0,0,0,1.46-3.81Z"/><path class="cls-2" d="M140.86,114.21h-3.81a5.65,5.65,0,0,0-1.46-3.8h1.46a3.8,3.8,0,0,1,3.81,3.8"/><path class="cls-2" d="M135.15,32.8V110a5.67,5.67,0,0,0-3.81-1.47V34.26a5.66,5.66,0,0,0,3.81-1.46"/><path class="cls-2" d="M169.42,28.55a3.82,3.82,0,0,1-3.81,3.81h-1.47a5.67,5.67,0,0,0,1.47-3.81Z"/><path class="cls-2" d="M169.42,114.21h-3.81a5.66,5.66,0,0,0-1.47-3.8h1.47a3.81,3.81,0,0,1,3.81,3.8"/><path class="cls-2" d="M163.71,32.8V110a5.69,5.69,0,0,0-3.81-1.47V34.26a5.68,5.68,0,0,0,3.81-1.46"/><path class="cls-2" d="M198,28.55a3.82,3.82,0,0,1-3.81,3.81H192.7a5.71,5.71,0,0,0,1.46-3.81Z"/><path class="cls-2" d="M198,114.21h-3.81a5.7,5.7,0,0,0-1.46-3.8h1.46a3.81,3.81,0,0,1,3.81,3.8"/><path class="cls-2" d="M192.26,32.8V110a5.67,5.67,0,0,0-3.81-1.47V34.26a5.66,5.66,0,0,0,3.81-1.46"/><path class="cls-2" d="M226.52,28.55a3.81,3.81,0,0,1-3.81,3.81h-1.46a5.66,5.66,0,0,0,1.46-3.81Z"/><path class="cls-2" d="M226.52,114.21h-3.81a5.65,5.65,0,0,0-1.46-3.8h1.46a3.8,3.8,0,0,1,3.81,3.8"/><path class="cls-2" d="M220.81,32.8V110A5.67,5.67,0,0,0,217,108.5V34.26a5.66,5.66,0,0,0,3.81-1.46"/><path class="cls-2" d="M255.08,28.55a3.82,3.82,0,0,1-3.81,3.81H249.8a5.67,5.67,0,0,0,1.47-3.81Z"/><path class="cls-2" d="M255.08,114.21h-3.81a5.66,5.66,0,0,0-1.47-3.8h1.47a3.81,3.81,0,0,1,3.81,3.8"/><path class="cls-2" d="M249.37,32.8V110a5.69,5.69,0,0,0-3.81-1.47V34.26a5.68,5.68,0,0,0,3.81-1.46"/><path class="cls-2" d="M295.05,11.42a3.77,3.77,0,0,1-3.81,3.81h-1.46a5.7,5.7,0,0,0,0-7.62h1.34a3.87,3.87,0,0,1,3.93,3.81"/><path class="cls-2" d="M289.34,15.67v7.17a3.83,3.83,0,0,1-3.73,3.81h-.08V17.13a5.71,5.71,0,0,0,3.81-1.46"/><path class="cls-2" d="M283.74,28.55a3.91,3.91,0,0,1-3.8,3.81h-.08l-1.47,0a5.66,5.66,0,0,0,1.43-3.78Z"/><path class="cls-2" d="M277.92,32.8V110a5.67,5.67,0,0,0-3.81-1.47V34.26a5.66,5.66,0,0,0,3.81-1.46"/><path class="cls-2" d="M283.63,114.21h-3.81a5.7,5.7,0,0,0-1.46-3.8h1.46a3.81,3.81,0,0,1,3.81,3.8"/><path class="cls-2" d="M288.83,118h-3.3v-1.9a3.82,3.82,0,0,1,3.3,1.9"/><path class="cls-2" d="M306.28,135.15h-3.79a11.41,11.41,0,0,0-4.89-7.58,9.53,9.53,0,0,1,8.68,7.58"/><rect class="cls-2" x="19.04" y="121.83" width="270.31" height="1.9"/><path class="cls-2" d="M312.18,139.91a.94.94,0,0,1-.95,1H2.85a.95.95,0,0,1,0-1.9H311.23a1,1,0,0,1,.95.95"/><path class="cls-2" d="M289.34,11.42a3.82,3.82,0,0,1-3.81,3.81H23A3.88,3.88,0,0,1,19,11.42,3.88,3.88,0,0,1,23,7.61H285.53a3.82,3.82,0,0,1,3.81,3.81"/></g></g></svg>