<svg xmlns="http://www.w3.org/2000/svg" viewBox="0 0 103.44 235.68"><defs><style>.cls-1{fill:#e66e78;}.cls-2{fill:#d8b182;}.cls-3{fill:#efca9a;}.cls-4{fill:#ffe3bb;}.cls-5{fill:#fff;}.cls-6{fill:#0600ff;}.cls-10,.cls-7,.cls-9{fill:none;stroke:#0600ff;}.cls-10,.cls-7{stroke-miterlimit:10;}.cls-7,.cls-9{stroke-width:0.5px;}.cls-8{fill:#a7a7a8;}.cls-9{stroke-linecap:round;stroke-linejoin:round;}.cls-10{stroke-width:0.75px;}</style></defs><title>Fichier 3</title><g id="Calque_2" data-name="Calque 2"><g id="Calque_1-2" data-name="Calque 1"><path class="cls-1" d="M89.64,126.13h0c-12.56,0-12.25,17.33-12.23,17.82v0a2.65,2.65,0,1,0,5.29,0h0c0-13.36,6.89-12.56,6.95-12.55h0c.06,0,7-.81,7,12.55v88.89a2.77,2.77,0,0,0,2.52,2.82,2.65,2.65,0,0,0,2.76-2.64V144s.51-17.84-12.23-17.84"/><path class="cls-2" d="M101.52,129a1.39,1.39,0,0,1-.46,0,2,2,0,0,1-1.62-1.87l0-.73v-.12l-.19-4.52,0-.54,0-1.3a2,2,0,0,1,1.91-2.08,1.81,1.81,0,0,1,.57.06,2,2,0,0,1,1.51,1.85v.48l.3,6.73a2,2,0,0,1-1.92,2.08"/><path class="cls-3" d="M102.5,123.07l-1.63,7a2,2,0,0,1-2.4,1.5,2.53,2.53,0,0,1-.36-.12A2,2,0,0,1,97,129.19l1.63-7a1.9,1.9,0,0,1,.26-.62,2,2,0,0,1,2.13-.88,2,2,0,0,1,1.55,2.1c0,.1,0,.2,0,.3"/><path class="cls-4" d="M103.09,120.09v.06a7.7,7.7,0,0,1-.19,1.5,6.66,6.66,0,0,1-.36,1.12,7.47,7.47,0,0,1-3.09,3.6h0l-1,4.47a2,2,0,0,1-.27.62,2,2,0,0,1-3.63-1.53l.59-2.55a6.33,6.33,0,0,1-1.12-.17A7.35,7.35,0,0,1,91.22,126l-.72,3.11a2.55,2.55,0,0,1-3.06,1.9,2,2,0,0,1-.45-.15,2.54,2.54,0,0,1-1.44-2.9L87.63,119a2.72,2.72,0,0,1,.69-1.24,2.09,2.09,0,0,1,.28-.24,7.45,7.45,0,0,1,14.49,2.56"/><path class="cls-5" d="M70.75,59.38c0,.06,0,.11,0,.17l-.27,1.93h0l-.54,3.76-.12.86-.66,4.65,0,.16-.69,4.9,0,.34-.62,4.39h0l-.18,1.21-.47,3.34-.39,2.77h0l-.2,1.41h0L66,93.06l-.3,2.15h0l-.31,2.18-.53,3.71v.06c0,.28-.07.55-.13.83A13.05,13.05,0,0,1,63,106.44c-.23.38-.47.73-.72,1.09,0,0,0,0,0,0-.23.3-.46.59-.72.87,0,0,0,0,0,0-.15.18-.31.34-.47.5a13.28,13.28,0,0,1-3.42,2.49,13.75,13.75,0,0,1-2.87,1.07,13.34,13.34,0,0,1-3,.37,14.77,14.77,0,0,1-1.87-.11l-.66-.11a14.45,14.45,0,0,1-1.75-.44A13.13,13.13,0,0,1,44.82,111a12.91,12.91,0,0,1-3.44-3,12.58,12.58,0,0,1-1.51-2.31,13.31,13.31,0,0,1-1.28-3.88h0c0-.1,0-.19,0-.3a13.26,13.26,0,0,1,.09-4.21c0-.19.07-.36.11-.53l.06-.23.07-.32.87-3.88.6-2.68.24-1.1L41.38,85l.75-3.37.21-.92,1-4.69,0-.1,1-4.51.3-1.36h0l.63-2.79.75-3.37.48-2.14L47,59.86l1-4.25,0-.21a.14.14,0,0,1,0-.06,12.46,12.46,0,0,1,1.89-4.14,11.74,11.74,0,0,1,1.79-2,10.8,10.8,0,0,1,4-2.3l.22-.07.69-.18a11.72,11.72,0,0,1,3.88-.23h0l.86.13.39.08A11.55,11.55,0,0,1,66,48.51l.31.22a10.52,10.52,0,0,1,1.91,1.86,11.49,11.49,0,0,1,2.1,4.08,12.54,12.54,0,0,1,.4,2,12.83,12.83,0,0,1,0,2.7"/><path class="cls-6" d="M56.61,46.65a3.37,3.37,0,0,0-.54,1.13,3.81,3.81,0,0,0-.37-.88l.22-.07.69-.18"/><path class="cls-6" d="M61.75,46.63a3.22,3.22,0,0,0-.55,1.15,3.67,3.67,0,0,0-.7-1.36l.86.13.39.08"/><path class="cls-6" d="M53.51,50.34a3.65,3.65,0,0,0-2.57,2.56,3.5,3.5,0,0,0-1-1.7,11.74,11.74,0,0,1,1.79-2,3.57,3.57,0,0,0,1.81,1.14"/><path class="cls-6" d="M53.5,50.34a3.66,3.66,0,0,1,2.57,2.57,3.63,3.63,0,0,1,2.56-2.57,3.6,3.6,0,0,1-2.56-2.56,3.63,3.63,0,0,1-2.57,2.56"/><path class="cls-6" d="M63.76,50.34a3.63,3.63,0,0,1-2.57-2.56,3.6,3.6,0,0,1-2.56,2.56,3.63,3.63,0,0,1,2.56,2.57,3.66,3.66,0,0,1,2.57-2.57"/><path class="cls-6" d="M68.25,50.59a3.6,3.6,0,0,0-1.93,2.31,3.62,3.62,0,0,0-2.56-2.56A3.54,3.54,0,0,0,66,48.51l.31.22a10.52,10.52,0,0,1,1.91,1.86"/><path class="cls-6" d="M48.38,55.47l-.43.14,0-.21a.14.14,0,0,1,0-.06,1.74,1.74,0,0,0,.36.13"/><path class="cls-6" d="M48.38,55.47A3.64,3.64,0,0,1,50.94,58a3.64,3.64,0,0,1,2.56-2.56,3.64,3.64,0,0,1-2.56-2.56,3.64,3.64,0,0,1-2.56,2.56"/><path class="cls-6" d="M53.5,55.47A3.65,3.65,0,0,1,56.07,58a3.62,3.62,0,0,1,2.56-2.56,3.62,3.62,0,0,1-2.56-2.56,3.65,3.65,0,0,1-2.57,2.56"/><path class="cls-6" d="M63.76,55.47a3.65,3.65,0,0,1-2.57-2.56,3.62,3.62,0,0,1-2.56,2.56A3.62,3.62,0,0,1,61.19,58a3.65,3.65,0,0,1,2.57-2.56"/><path class="cls-6" d="M63.76,55.47A3.64,3.64,0,0,1,66.32,58a3.64,3.64,0,0,1,2.56-2.56,3.64,3.64,0,0,1-2.56-2.56,3.64,3.64,0,0,1-2.56,2.56"/><path class="cls-6" d="M70.75,56.68a3.53,3.53,0,0,0-1.86-1.21,3.49,3.49,0,0,0,1.46-.8,12.54,12.54,0,0,1,.4,2"/><path class="cls-6" d="M48.38,60.59a3.51,3.51,0,0,0-1.8,1.15L47,59.86a3.47,3.47,0,0,0,1.38.73"/><path class="cls-6" d="M48.38,60.6a3.62,3.62,0,0,1,2.56,2.56A3.62,3.62,0,0,1,53.5,60.6,3.65,3.65,0,0,1,50.94,58a3.65,3.65,0,0,1-2.56,2.57"/><path class="cls-6" d="M53.5,60.6a3.63,3.63,0,0,1,2.57,2.56,3.6,3.6,0,0,1,2.56-2.56A3.63,3.63,0,0,1,56.07,58,3.66,3.66,0,0,1,53.5,60.6"/><path class="cls-6" d="M63.76,60.6A3.66,3.66,0,0,1,61.19,58a3.63,3.63,0,0,1-2.56,2.57,3.6,3.6,0,0,1,2.56,2.56,3.63,3.63,0,0,1,2.57-2.56"/><path class="cls-6" d="M63.76,60.6a3.62,3.62,0,0,1,2.56,2.56,3.62,3.62,0,0,1,2.56-2.56A3.65,3.65,0,0,1,66.32,58a3.65,3.65,0,0,1-2.56,2.57"/><path class="cls-6" d="M70.75,59.38c0,.06,0,.11,0,.17l-.27,1.93a3.66,3.66,0,0,0-1.57-.89,3.53,3.53,0,0,0,1.86-1.21"/><path class="cls-6" d="M48.38,65.72a3.62,3.62,0,0,0-2.56,2.56,3.44,3.44,0,0,0-.47-1l.75-3.37a3.61,3.61,0,0,0,2.28,1.84"/><path class="cls-6" d="M48.38,65.72a3.65,3.65,0,0,1,2.56,2.57,3.65,3.65,0,0,1,2.56-2.57,3.62,3.62,0,0,1-2.56-2.56,3.62,3.62,0,0,1-2.56,2.56"/><path class="cls-6" d="M53.5,65.72a3.66,3.66,0,0,1,2.57,2.57,3.63,3.63,0,0,1,2.56-2.57,3.6,3.6,0,0,1-2.56-2.56,3.63,3.63,0,0,1-2.57,2.56"/><path class="cls-6" d="M63.76,65.72a3.63,3.63,0,0,1-2.57-2.56,3.6,3.6,0,0,1-2.56,2.56,3.63,3.63,0,0,1,2.56,2.57,3.66,3.66,0,0,1,2.57-2.57"/><path class="cls-6" d="M63.76,65.72a3.65,3.65,0,0,1,2.56,2.57,3.65,3.65,0,0,1,2.56-2.57,3.62,3.62,0,0,1-2.56-2.56,3.62,3.62,0,0,1-2.56,2.56"/><path class="cls-6" d="M69.92,65.25l-.12.86a3.68,3.68,0,0,0-.91-.39,3.44,3.44,0,0,0,1-.47"/><path class="cls-6" d="M48.38,70.85a3.6,3.6,0,0,0-2.56,2.56,3.6,3.6,0,0,0-1.4-2l.3-1.36h0a3.6,3.6,0,0,0,1.1-1.76,3.63,3.63,0,0,0,2.56,2.57"/><path class="cls-6" d="M48.38,70.85a3.64,3.64,0,0,1,2.56,2.56,3.64,3.64,0,0,1,2.56-2.56,3.64,3.64,0,0,1-2.56-2.56,3.64,3.64,0,0,1-2.56,2.56"/><path class="cls-6" d="M53.5,70.85a3.65,3.65,0,0,1,2.57,2.56,3.62,3.62,0,0,1,2.56-2.56,3.62,3.62,0,0,1-2.56-2.56,3.65,3.65,0,0,1-2.57,2.56"/><path class="cls-6" d="M63.76,70.85a3.65,3.65,0,0,1-2.57-2.56,3.62,3.62,0,0,1-2.56,2.56,3.62,3.62,0,0,1,2.56,2.56,3.65,3.65,0,0,1,2.57-2.56"/><path class="cls-6" d="M63.76,70.85a3.64,3.64,0,0,1,2.56,2.56,3.64,3.64,0,0,1,2.56-2.56,3.64,3.64,0,0,1-2.56-2.56,3.64,3.64,0,0,1-2.56,2.56"/><path class="cls-6" d="M69.14,70.76l0,.16-.22-.07a1.25,1.25,0,0,0,.25-.09"/><path class="cls-6" d="M48.38,76a3.63,3.63,0,0,0-2.56,2.57A3.64,3.64,0,0,0,43.39,76l0-.1a3.64,3.64,0,0,0,2.41-2.51A3.6,3.6,0,0,0,48.38,76"/><path class="cls-6" d="M48.38,76a3.62,3.62,0,0,1,2.56,2.56A3.62,3.62,0,0,1,53.5,76a3.65,3.65,0,0,1-2.56-2.57A3.65,3.65,0,0,1,48.38,76"/><path class="cls-6" d="M53.5,76a3.63,3.63,0,0,1,2.57,2.56A3.6,3.6,0,0,1,58.63,76a3.63,3.63,0,0,1-2.56-2.57A3.66,3.66,0,0,1,53.5,76"/><path class="cls-6" d="M63.76,76a3.66,3.66,0,0,1-2.57-2.57A3.63,3.63,0,0,1,58.63,76a3.6,3.6,0,0,1,2.56,2.56A3.63,3.63,0,0,1,63.76,76"/><path class="cls-6" d="M68.42,75.82l0,.34a3.64,3.64,0,0,0-2.05,2.38A3.63,3.63,0,0,0,63.76,76a3.6,3.6,0,0,0,2.56-2.56,3.69,3.69,0,0,0,2.1,2.41"/><path class="cls-6" d="M43.25,81.1a3.4,3.4,0,0,0-1.12.53l.21-.92a3.68,3.68,0,0,0,.91.39"/><path class="cls-6" d="M43.25,81.1a3.63,3.63,0,0,1,2.56,2.57,3.66,3.66,0,0,1,2.57-2.57,3.63,3.63,0,0,1-2.57-2.56,3.6,3.6,0,0,1-2.56,2.56"/><path class="cls-6" d="M48.38,81.1a3.65,3.65,0,0,1,2.56,2.57A3.65,3.65,0,0,1,53.5,81.1a3.62,3.62,0,0,1-2.56-2.56,3.62,3.62,0,0,1-2.56,2.56"/><path class="cls-6" d="M53.5,81.1a3.66,3.66,0,0,1,2.57,2.57,3.63,3.63,0,0,1,2.56-2.57,3.6,3.6,0,0,1-2.56-2.56A3.63,3.63,0,0,1,53.5,81.1"/><path class="cls-6" d="M63.76,81.1a3.63,3.63,0,0,1-2.57-2.56,3.6,3.6,0,0,1-2.56,2.56,3.63,3.63,0,0,1,2.56,2.57,3.66,3.66,0,0,1,2.57-2.57"/><path class="cls-6" d="M67.75,80.55h0l-.18,1.21a3.62,3.62,0,0,0-1.25,1.89,3.62,3.62,0,0,0-2.56-2.56,3.62,3.62,0,0,0,2.56-2.56,3.52,3.52,0,0,0,1.43,2"/><path class="cls-6" d="M43.25,86.23a3.62,3.62,0,0,0-2.56,2.56,2.31,2.31,0,0,0-.1-.28L41.38,85a3.57,3.57,0,0,0,1.87,1.23"/><path class="cls-6" d="M43.25,86.23a3.62,3.62,0,0,1,2.56,2.56,3.65,3.65,0,0,1,2.57-2.56,3.65,3.65,0,0,1-2.57-2.56,3.62,3.62,0,0,1-2.56,2.56"/><path class="cls-6" d="M48.38,86.23a3.64,3.64,0,0,1,2.56,2.56,3.64,3.64,0,0,1,2.56-2.56,3.64,3.64,0,0,1-2.56-2.56,3.64,3.64,0,0,1-2.56,2.56"/><path class="cls-6" d="M53.5,86.23a3.65,3.65,0,0,1,2.57,2.56,3.62,3.62,0,0,1,2.56-2.56,3.62,3.62,0,0,1-2.56-2.56,3.65,3.65,0,0,1-2.57,2.56"/><path class="cls-6" d="M63.76,86.23a3.65,3.65,0,0,1-2.57-2.56,3.62,3.62,0,0,1-2.56,2.56,3.62,3.62,0,0,1,2.56,2.56,3.65,3.65,0,0,1,2.57-2.56"/><path class="cls-6" d="M67.1,85.11l-.39,2.77s0,0,0,0a3.61,3.61,0,0,0-.39.9,3.6,3.6,0,0,0-2.56-2.56,3.63,3.63,0,0,0,2.56-2.57,3.64,3.64,0,0,0,.78,1.45"/><path class="cls-6" d="M43.25,91.35a3.65,3.65,0,0,0-2.56,2.57,3.71,3.71,0,0,0-.94-1.63l.6-2.68a3.3,3.3,0,0,0,.34-.82,3.62,3.62,0,0,0,2.56,2.56"/><path class="cls-6" d="M43.25,91.36a3.6,3.6,0,0,1,2.56,2.56,3.63,3.63,0,0,1,2.57-2.56,3.66,3.66,0,0,1-2.57-2.57,3.63,3.63,0,0,1-2.56,2.57"/><path class="cls-6" d="M48.38,91.36a3.62,3.62,0,0,1,2.56,2.56,3.62,3.62,0,0,1,2.56-2.56,3.65,3.65,0,0,1-2.56-2.57,3.65,3.65,0,0,1-2.56,2.57"/><path class="cls-6" d="M53.5,91.36a3.63,3.63,0,0,1,2.57,2.56,3.6,3.6,0,0,1,2.56-2.56,3.63,3.63,0,0,1-2.56-2.57,3.66,3.66,0,0,1-2.57,2.57"/><path class="cls-6" d="M63.76,91.36a3.66,3.66,0,0,1-2.57-2.57,3.63,3.63,0,0,1-2.56,2.57,3.6,3.6,0,0,1,2.56,2.56,3.63,3.63,0,0,1,2.57-2.56"/><path class="cls-6" d="M66.51,89.3h0L66,93.06a3.66,3.66,0,0,0-2.21-1.71,3.6,3.6,0,0,0,2.56-2.56,3.52,3.52,0,0,0,.19.51"/><path class="cls-6" d="M43.25,96.48A3.64,3.64,0,0,0,40.69,99a3.58,3.58,0,0,0-1.94-2.32l.06-.23.07-.32a3.59,3.59,0,0,0,1.81-2.25,3.64,3.64,0,0,0,2.56,2.56"/><path class="cls-6" d="M43.25,96.48A3.62,3.62,0,0,1,45.81,99a3.65,3.65,0,0,1,2.57-2.56,3.65,3.65,0,0,1-2.57-2.56,3.62,3.62,0,0,1-2.56,2.56"/><path class="cls-6" d="M48.38,96.48A3.64,3.64,0,0,1,50.94,99a3.64,3.64,0,0,1,2.56-2.56,3.64,3.64,0,0,1-2.56-2.56,3.64,3.64,0,0,1-2.56,2.56"/><path class="cls-6" d="M53.5,96.48A3.65,3.65,0,0,1,56.07,99a3.62,3.62,0,0,1,2.56-2.56,3.62,3.62,0,0,1-2.56-2.56,3.65,3.65,0,0,1-2.57,2.56"/><path class="cls-6" d="M63.76,96.48a3.65,3.65,0,0,1-2.57-2.56,3.62,3.62,0,0,1-2.56,2.56A3.62,3.62,0,0,1,61.19,99a3.65,3.65,0,0,1,2.57-2.56"/><path class="cls-6" d="M65.67,95.22l-.31,2.18a3.72,3.72,0,0,0-1.6-.92,3.69,3.69,0,0,0,1.91-1.26"/><path class="cls-6" d="M43.25,101.61a3.62,3.62,0,0,0-2.56,2.56,3.61,3.61,0,0,0-2.1-2.4h0c0-.1,0-.19,0-.3A3.63,3.63,0,0,0,40.69,99a3.65,3.65,0,0,0,2.56,2.57"/><path class="cls-6" d="M43.25,101.61a3.62,3.62,0,0,1,2.56,2.56,3.65,3.65,0,0,1,2.57-2.56,3.65,3.65,0,0,1-2.57-2.56,3.62,3.62,0,0,1-2.56,2.56"/><path class="cls-6" d="M48.38,101.61a3.64,3.64,0,0,1,2.56,2.56,3.64,3.64,0,0,1,2.56-2.56,3.64,3.64,0,0,1-2.56-2.56,3.64,3.64,0,0,1-2.56,2.56"/><path class="cls-6" d="M53.5,101.61a3.65,3.65,0,0,1,2.57,2.56,3.62,3.62,0,0,1,2.56-2.56,3.62,3.62,0,0,1-2.56-2.56,3.65,3.65,0,0,1-2.57,2.56"/><path class="cls-6" d="M63.76,101.61a3.65,3.65,0,0,1-2.57-2.56,3.62,3.62,0,0,1-2.56,2.56,3.62,3.62,0,0,1,2.56,2.56,3.65,3.65,0,0,1,2.57-2.56"/><path class="cls-6" d="M64.83,101.11v.06c0,.28-.07.55-.13.83a3.66,3.66,0,0,0-.93-.39,3.39,3.39,0,0,0,1.07-.5"/><path class="cls-6" d="M43.25,106.73A3.57,3.57,0,0,0,41.38,108a12.58,12.58,0,0,1-1.51-2.31,3.49,3.49,0,0,0,.82-1.48,3.62,3.62,0,0,0,2.56,2.56"/><path class="cls-6" d="M43.25,106.73a3.63,3.63,0,0,1,2.56,2.57,3.66,3.66,0,0,1,2.57-2.57,3.63,3.63,0,0,1-2.57-2.56,3.6,3.6,0,0,1-2.56,2.56"/><path class="cls-6" d="M48.38,106.73a3.65,3.65,0,0,1,2.56,2.57,3.65,3.65,0,0,1,2.56-2.57,3.62,3.62,0,0,1-2.56-2.56,3.62,3.62,0,0,1-2.56,2.56"/><path class="cls-6" d="M53.5,106.73a3.66,3.66,0,0,1,2.57,2.57,3.63,3.63,0,0,1,2.56-2.57,3.6,3.6,0,0,1-2.56-2.56,3.63,3.63,0,0,1-2.57,2.56"/><path class="cls-6" d="M63,106.44c-.23.38-.47.73-.72,1.09,0,0,0,0,0,0a3.38,3.38,0,0,0-.72.87s0,0,0,0a3.61,3.61,0,0,0-.35.86,2.53,2.53,0,0,0-.12-.36,3.64,3.64,0,0,0-2.45-2.21,3.63,3.63,0,0,0,2.57-2.56A3.58,3.58,0,0,0,63,106.44"/><path class="cls-6" d="M48.38,111.86a3.47,3.47,0,0,0-.84.35A13.13,13.13,0,0,1,44.82,111a3.61,3.61,0,0,0,1-1.67,3.62,3.62,0,0,0,2.56,2.56"/><path class="cls-6" d="M53.51,111.86a3.61,3.61,0,0,0-1.69,1,14.77,14.77,0,0,1-1.87-.11,3.48,3.48,0,0,0-1.57-.9,3.62,3.62,0,0,0,2.56-2.56,3.65,3.65,0,0,0,2.57,2.56"/><path class="cls-6" d="M57.66,111.43a13.75,13.75,0,0,1-2.87,1.07,3.67,3.67,0,0,0-1.28-.64,3.64,3.64,0,0,0,2.56-2.56,3.62,3.62,0,0,0,1.59,2.13"/><path class="cls-6" d="M59.22,47.1a9.5,9.5,0,0,1,1.19.07h.08l.75.11.35.07a10.84,10.84,0,0,1,4,1.78l.27.19a9.65,9.65,0,0,1,1.77,1.73,10.85,10.85,0,0,1,2,3.82A12.51,12.51,0,0,1,70,56.76a12.31,12.31,0,0,1,0,2.5,1.52,1.52,0,0,0,0,.19l-.27,1.93v0l-.54,3.73-.12.86-.65,4.61,0,.2-.69,4.89,0,.35L67,80.45v0l-.18,1.19L66.35,85,66,87.78v0l-.2,1.38v0L65.22,93l-.3,2.15v0l-.31,2.14-.52,3.7,0,.07,0,.2c0,.2,0,.39-.1.61a12.53,12.53,0,0,1-1.57,4.18c-.21.35-.43.67-.66,1l0,.06c-.2.26-.42.54-.66.8a.39.39,0,0,0-.08.1,4.89,4.89,0,0,1-.39.4,12.29,12.29,0,0,1-3.22,2.35,12.32,12.32,0,0,1-5.5,1.36,13.75,13.75,0,0,1-1.77-.1l-.63-.11a13.69,13.69,0,0,1-1.65-.41,12.63,12.63,0,0,1-2.57-1.17,12.79,12.79,0,0,1-4.67-5,12.6,12.6,0,0,1-1.2-3.63,1.11,1.11,0,0,0,0-.17,1.39,1.39,0,0,1,0-.15,12.44,12.44,0,0,1,.09-4c0-.17.06-.32.09-.47l0-.1,0-.15.07-.32.87-3.88.6-2.68.24-1.09.79-3.52.75-3.36.21-.93,1-4.7,0-.09,1-4.51.3-1.36v0l.62-2.75L46.83,64l.48-2.14L47.73,60l1-4.24,0-.18,0-.08a11.67,11.67,0,0,1,1.77-3.88,10.88,10.88,0,0,1,1.68-1.88,10,10,0,0,1,3.72-2.14l.07,0,.09,0h.06c.21-.07.42-.12.64-.17a11.14,11.14,0,0,1,2.44-.28m0-.75a11.42,11.42,0,0,0-2.61.3l-.69.18-.22.07a10.8,10.8,0,0,0-4,2.3,11.74,11.74,0,0,0-1.79,2A12.46,12.46,0,0,0,48,55.34a.14.14,0,0,0,0,.06l0,.21-1,4.25-.42,1.88-.48,2.14-.75,3.37L44.72,70h0l-.3,1.36-1,4.51,0,.1-1,4.69-.21.92L41.38,85l-.79,3.51-.24,1.1-.6,2.68-.87,3.88-.07.32-.06.23c0,.17-.08.34-.11.53a13.26,13.26,0,0,0-.09,4.21c0,.11,0,.2,0,.3h0a13.31,13.31,0,0,0,1.28,3.88A12.58,12.58,0,0,0,41.38,108a12.91,12.91,0,0,0,3.44,3,13.13,13.13,0,0,0,2.72,1.24,14.45,14.45,0,0,0,1.75.44l.66.11a14.77,14.77,0,0,0,1.87.11,13.34,13.34,0,0,0,3-.37,13.75,13.75,0,0,0,2.87-1.07,13.28,13.28,0,0,0,3.42-2.49c.16-.16.32-.32.47-.5,0,0,0,0,0,0,.26-.28.49-.57.72-.87v0h0c.25-.36.49-.71.72-1.09A13.05,13.05,0,0,0,64.69,102c.06-.28.09-.55.13-.83v-.06l.53-3.71.31-2.18h0l.3-2.15.54-3.75h0l.2-1.41h0l.39-2.77.47-3.34.18-1.21h0l.62-4.39,0-.34.69-4.9,0-.16.66-4.65.12-.86.54-3.76h0l.27-1.93c0-.06,0-.11,0-.17a12.83,12.83,0,0,0,0-2.7,12.54,12.54,0,0,0-.4-2,11.49,11.49,0,0,0-2.1-4.08,10.52,10.52,0,0,0-1.91-1.86L66,48.51a11.55,11.55,0,0,0-4.28-1.88l-.39-.08-.86-.13h0c-.43,0-.85-.07-1.27-.07"/><path class="cls-5" d="M99,111.12l-.34.28-2.15,1.79L93,116.11l-2.07,1.72-3.5,2.91-2.16,1.8-1.58,1.31a5.33,5.33,0,0,1-1.9,1l-.13,0a5,5,0,0,1-3.15-.08l-1.7-.7-.52-.22h0L73,122.56l-2.77-1.15-3.82-1.57-.17-.07L62,118l-2.93-1.22h0l-2.19-.89s0,0,0,0l-1.25-.52h0l-4.35-1.8-.92-.38-2.66-1.09-1.11-.46c-.2-.08-.4-.16-.58-.25a9.78,9.78,0,0,1-1.07-.56,7.1,7.1,0,0,1-3-3.43,5.82,5.82,0,0,1-.41-1.8,7.23,7.23,0,0,1,.69-3.53,7.88,7.88,0,0,1,.4-.76,10.74,10.74,0,0,1,1.52-2,13.56,13.56,0,0,1,1.29-1.22,15.7,15.7,0,0,1,2.55-1.74,17,17,0,0,1,2.32-1.09h0c.35-.14.71-.27,1.08-.38A19.24,19.24,0,0,1,56.06,94h0A15.79,15.79,0,0,1,61,94.4c.13,0,.27.07.4.12l.15,0,.67.23,2.89,1,3,1h0l2.53.85h0l1.2.4h0l4.49,1.51.42.14,3.66,1.23h0l3,1,2.62.88,1.16.39,4.5,1.51.45.15,3.61,1.21,2.64.89a1.64,1.64,0,0,1,.33.14c1.73.77,1.84,2.63.17,4"/><path class="cls-6" d="M48.38,96.48A3.62,3.62,0,0,0,45.82,99a3.26,3.26,0,0,0-.43-1,15.7,15.7,0,0,1,2.55-1.74,3.26,3.26,0,0,0,.44.15"/><path class="cls-6" d="M53.51,96.48A3.65,3.65,0,0,0,50.94,99a3.62,3.62,0,0,0-2.56-2.56,3.59,3.59,0,0,0,1.88-1.24h0c.35-.14.71-.27,1.08-.38a3.65,3.65,0,0,0,2.16,1.62"/><path class="cls-6" d="M58.63,96.48A3.64,3.64,0,0,0,56.07,99a3.64,3.64,0,0,0-2.56-2.56A3.64,3.64,0,0,0,56.06,94s0,0,0,0,0,0,0,0a3.64,3.64,0,0,0,2.55,2.53"/><path class="cls-6" d="M63.76,96.48A3.62,3.62,0,0,0,61.2,99a3.65,3.65,0,0,0-2.57-2.56A3.61,3.61,0,0,0,61,94.4c.13,0,.27.07.4.12a3.6,3.6,0,0,0,2.34,2"/><path class="cls-6" d="M68.15,96.78A3.61,3.61,0,0,0,66.32,99a3.62,3.62,0,0,0-2.56-2.56,3.47,3.47,0,0,0,1.37-.72Z"/><path class="cls-6" d="M71.9,98a3.54,3.54,0,0,0-.45,1,3.5,3.5,0,0,0-.75-1.41Z"/><path class="cls-6" d="M43.25,101.61a3.37,3.37,0,0,0-1.07.49,7.88,7.88,0,0,1,.4-.76,2.77,2.77,0,0,0,.67.27"/><path class="cls-6" d="M43.25,101.61a3.62,3.62,0,0,1,2.56,2.56,3.65,3.65,0,0,1,2.57-2.56,3.65,3.65,0,0,1-2.57-2.56,3.62,3.62,0,0,1-2.56,2.56"/><path class="cls-6" d="M48.38,101.61a3.64,3.64,0,0,1,2.56,2.56,3.64,3.64,0,0,1,2.56-2.56,3.64,3.64,0,0,1-2.56-2.56,3.64,3.64,0,0,1-2.56,2.56"/><path class="cls-6" d="M53.5,101.61a3.65,3.65,0,0,1,2.57,2.56,3.62,3.62,0,0,1,2.56-2.56,3.62,3.62,0,0,1-2.56-2.56,3.65,3.65,0,0,1-2.57,2.56"/><path class="cls-6" d="M63.76,101.61a3.65,3.65,0,0,1-2.57-2.56,3.62,3.62,0,0,1-2.56,2.56,3.62,3.62,0,0,1,2.56,2.56,3.65,3.65,0,0,1,2.57-2.56"/><path class="cls-6" d="M63.76,101.61a3.64,3.64,0,0,1,2.56,2.56,3.64,3.64,0,0,1,2.56-2.56,3.64,3.64,0,0,1-2.56-2.56,3.64,3.64,0,0,1-2.56,2.56"/><path class="cls-6" d="M68.88,101.61a3.65,3.65,0,0,1,2.57,2.56A3.62,3.62,0,0,1,74,101.61a3.62,3.62,0,0,1-2.56-2.56,3.65,3.65,0,0,1-2.57,2.56"/><path class="cls-6" d="M79.14,101.61a3.6,3.6,0,0,0-2.56,2.56A3.63,3.63,0,0,0,74,101.61a3.62,3.62,0,0,0,2.39-2.07l.42.14a3.62,3.62,0,0,0,2.32,1.93"/><path class="cls-6" d="M83.49,101.92a3.65,3.65,0,0,0-1.79,2.25,3.6,3.6,0,0,0-2.56-2.56,3.51,3.51,0,0,0,1.34-.7h0Z"/><path class="cls-6" d="M87.27,103.19a3.46,3.46,0,0,0-.44,1,3.47,3.47,0,0,0-.72-1.37Z"/><path class="cls-6" d="M43.25,106.73a3.7,3.7,0,0,0-1.35.7,5.82,5.82,0,0,1-.41-1.8,3.42,3.42,0,0,0,1.76,1.1"/><path class="cls-6" d="M43.25,106.73a3.63,3.63,0,0,1,2.56,2.57,3.66,3.66,0,0,1,2.57-2.57,3.63,3.63,0,0,1-2.57-2.56,3.6,3.6,0,0,1-2.56,2.56"/><path class="cls-6" d="M48.38,106.73a3.65,3.65,0,0,1,2.56,2.57,3.65,3.65,0,0,1,2.56-2.57,3.62,3.62,0,0,1-2.56-2.56,3.62,3.62,0,0,1-2.56,2.56"/><path class="cls-6" d="M53.5,106.73a3.66,3.66,0,0,1,2.57,2.57,3.63,3.63,0,0,1,2.56-2.57,3.6,3.6,0,0,1-2.56-2.56,3.63,3.63,0,0,1-2.57,2.56"/><path class="cls-6" d="M63.76,106.73a3.63,3.63,0,0,1-2.57-2.56,3.6,3.6,0,0,1-2.56,2.56,3.63,3.63,0,0,1,2.56,2.57,3.66,3.66,0,0,1,2.57-2.57"/><path class="cls-6" d="M63.76,106.73a3.65,3.65,0,0,1,2.56,2.57,3.65,3.65,0,0,1,2.56-2.57,3.62,3.62,0,0,1-2.56-2.56,3.62,3.62,0,0,1-2.56,2.56"/><path class="cls-6" d="M68.88,106.73a3.66,3.66,0,0,1,2.57,2.57A3.63,3.63,0,0,1,74,106.73a3.6,3.6,0,0,1-2.56-2.56,3.63,3.63,0,0,1-2.57,2.56"/><path class="cls-6" d="M79.14,106.73a3.63,3.63,0,0,1-2.57-2.56A3.6,3.6,0,0,1,74,106.73a3.63,3.63,0,0,1,2.56,2.57,3.66,3.66,0,0,1,2.57-2.57"/><path class="cls-6" d="M84.26,106.73a3.62,3.62,0,0,1-2.56-2.56,3.62,3.62,0,0,1-2.56,2.56,3.65,3.65,0,0,1,2.56,2.57,3.65,3.65,0,0,1,2.56-2.57"/><path class="cls-6" d="M86.83,104.17a3.63,3.63,0,0,1-2.57,2.56,3.66,3.66,0,0,1,2.57,2.57,3.63,3.63,0,0,1,2.56-2.57,3.6,3.6,0,0,1-2.56-2.56"/><path class="cls-6" d="M94.52,106.73A3.63,3.63,0,0,0,92,109.3a3.66,3.66,0,0,0-2.57-2.57,3.61,3.61,0,0,0,2.38-2l.45.15a3.59,3.59,0,0,0,2.3,1.88"/><path class="cls-6" d="M98.8,107.09a3.61,3.61,0,0,0-1.72,2.21,3.63,3.63,0,0,0-2.56-2.57,3.47,3.47,0,0,0,1.31-.67l2.64.89a1.64,1.64,0,0,1,.33.14"/><path class="cls-6" d="M48.38,111.86a2.68,2.68,0,0,0-.68.27l-1.11-.46c-.2-.08-.4-.16-.58-.25a9.78,9.78,0,0,1-1.07-.56,3.61,3.61,0,0,0,.88-1.56,3.62,3.62,0,0,0,2.56,2.56"/><path class="cls-6" d="M53.51,111.86a3.62,3.62,0,0,0-2.23,1.74,3.3,3.3,0,0,0-.34.82,3.43,3.43,0,0,0-.58-1.2,3.57,3.57,0,0,0-2-1.36,3.62,3.62,0,0,0,2.56-2.56,3.65,3.65,0,0,0,2.57,2.56"/><path class="cls-6" d="M53.5,111.86a3.65,3.65,0,0,1,2.57,2.56,3.62,3.62,0,0,1,2.56-2.56,3.62,3.62,0,0,1-2.56-2.56,3.65,3.65,0,0,1-2.57,2.56"/><path class="cls-6" d="M63.76,111.86a3.65,3.65,0,0,1-2.57-2.56,3.62,3.62,0,0,1-2.56,2.56,3.62,3.62,0,0,1,2.56,2.56,3.65,3.65,0,0,1,2.57-2.56"/><path class="cls-6" d="M63.76,111.86a3.64,3.64,0,0,1,2.56,2.56,3.64,3.64,0,0,1,2.56-2.56,3.64,3.64,0,0,1-2.56-2.56,3.64,3.64,0,0,1-2.56,2.56"/><path class="cls-6" d="M68.88,111.86a3.65,3.65,0,0,1,2.57,2.56A3.62,3.62,0,0,1,74,111.86a3.62,3.62,0,0,1-2.56-2.56,3.65,3.65,0,0,1-2.57,2.56"/><path class="cls-6" d="M79.14,111.86a3.65,3.65,0,0,1-2.57-2.56A3.62,3.62,0,0,1,74,111.86a3.62,3.62,0,0,1,2.56,2.56,3.65,3.65,0,0,1,2.57-2.56"/><path class="cls-6" d="M81.7,109.3a3.62,3.62,0,0,1-2.56,2.56,3.63,3.63,0,0,1,2.56,2.57,3.63,3.63,0,0,1,2.56-2.57,3.62,3.62,0,0,1-2.56-2.56"/><path class="cls-6" d="M86.83,109.3a3.63,3.63,0,0,1-2.57,2.56,3.65,3.65,0,0,1,2.57,2.57,3.62,3.62,0,0,1,2.56-2.57,3.6,3.6,0,0,1-2.56-2.56"/><path class="cls-6" d="M92,109.3a3.6,3.6,0,0,1-2.56,2.56A3.62,3.62,0,0,1,92,114.43a3.65,3.65,0,0,1,2.57-2.57A3.63,3.63,0,0,1,92,109.3"/><path class="cls-6" d="M98.63,111.4l-2.15,1.79a3.65,3.65,0,0,0-2-1.33,3.62,3.62,0,0,0,2.56-2.56,3.6,3.6,0,0,0,1.55,2.1"/><path class="cls-6" d="M56.89,115.92l-1.25-.52a3.74,3.74,0,0,0,.43-1,3.61,3.61,0,0,0,.82,1.5"/><path class="cls-6" d="M63.76,117A3.47,3.47,0,0,0,62,118l-2.93-1.22a3.64,3.64,0,0,0,2.09-2.4A3.63,3.63,0,0,0,63.76,117"/><path class="cls-6" d="M66.32,114.42A3.65,3.65,0,0,1,63.76,117a3.62,3.62,0,0,1,2.56,2.56A3.62,3.62,0,0,1,68.88,117a3.65,3.65,0,0,1-2.56-2.57"/><path class="cls-6" d="M68.88,117a3.65,3.65,0,0,1,2.57,2.56A3.62,3.62,0,0,1,74,117a3.62,3.62,0,0,1-2.56-2.56A3.65,3.65,0,0,1,68.88,117"/><path class="cls-6" d="M76.57,114.42A3.63,3.63,0,0,1,74,117a3.6,3.6,0,0,1,2.56,2.56A3.63,3.63,0,0,1,79.14,117a3.66,3.66,0,0,1-2.57-2.57"/><path class="cls-6" d="M81.7,114.42A3.65,3.65,0,0,1,79.14,117a3.62,3.62,0,0,1,2.56,2.56A3.62,3.62,0,0,1,84.26,117a3.65,3.65,0,0,1-2.56-2.57"/><path class="cls-6" d="M86.83,114.42A3.66,3.66,0,0,1,84.26,117a3.63,3.63,0,0,1,2.57,2.56A3.6,3.6,0,0,1,89.39,117a3.63,3.63,0,0,1-2.56-2.57"/><path class="cls-6" d="M93,116.11l-2.07,1.72a3.47,3.47,0,0,0-1.51-.84A3.66,3.66,0,0,0,92,114.42a3.53,3.53,0,0,0,1,1.69"/><path class="cls-6" d="M66.42,119.84l-.17-.07a1.87,1.87,0,0,0,.07-.22,2.47,2.47,0,0,0,.1.29"/><path class="cls-6" d="M74,122.11a3.48,3.48,0,0,0-1,.45l-2.77-1.15a3.53,3.53,0,0,0,1.21-1.86A3.62,3.62,0,0,0,74,122.11"/><path class="cls-6" d="M76.78,124.11a3.69,3.69,0,0,1,2.36-2,3.6,3.6,0,0,1-2.56-2.56A3.63,3.63,0,0,1,74,122.11a3.58,3.58,0,0,1,2.24,1.78h0Z"/><path class="cls-6" d="M81.7,124.68a3.65,3.65,0,0,1,2.56-2.57,3.62,3.62,0,0,1-2.56-2.56,3.62,3.62,0,0,1-2.56,2.56,3.65,3.65,0,0,1,2.56,2.57"/><path class="cls-6" d="M87.4,120.74l-2.16,1.8a3.26,3.26,0,0,0-1-.43,3.62,3.62,0,0,0,2.56-2.56,3.64,3.64,0,0,0,.57,1.19"/><path class="cls-6" d="M81.76,124.85l-.13,0a1.72,1.72,0,0,0,.07-.21,1.15,1.15,0,0,0,.06.17"/><path class="cls-6" d="M57.13,94.67a14.25,14.25,0,0,1,3.67.45l.16,0,.19,0,.14,0,.06,0,.65.22,2.89,1,3,1,.06,0,2.48.83.06,0,1.15.38.06,0,4.44,1.49.42.14,3.66,1.23.06,0,3,1,2.62.88,1.16.39,4.5,1.51.45.15,3.61,1.21,2.64.89.18.07.08,0a1.39,1.39,0,0,1,.91,1,2.07,2.07,0,0,1-.91,1.74l-.34.29L96,112.61l-3.51,2.92-2.07,1.72-3.5,2.92L84.76,122l-1.58,1.32a4.79,4.79,0,0,1-1.63.85l-.08,0h0a5.13,5.13,0,0,1-1.33.18,3.69,3.69,0,0,1-1.34-.23l-1.69-.7-.52-.22-.07,0-3.19-1.3-2.77-1.15-3.82-1.57-.17-.07-4.2-1.73-2.93-1.22-.08,0-2.1-.85,0,0-1.25-.52-.06,0-4.3-1.77-.92-.38L48,111.44,46.87,111l-.56-.24c-.34-.16-.67-.33-1-.52a6.47,6.47,0,0,1-2.73-3.07,5.28,5.28,0,0,1-.36-1.57,6.44,6.44,0,0,1,.63-3.16,6,6,0,0,1,.37-.71,10.13,10.13,0,0,1,1.42-1.91,13.11,13.11,0,0,1,1.22-1.15A15.08,15.08,0,0,1,48.31,97a15.89,15.89,0,0,1,2.16-1l.08,0c.36-.15.69-.26,1-.37a19.18,19.18,0,0,1,4.48-.87h.06c.34,0,.67,0,1,0m0-.75q-.52,0-1.05,0h0a19.24,19.24,0,0,0-4.71.91c-.37.11-.73.24-1.08.38h0a17,17,0,0,0-2.32,1.09,15.7,15.7,0,0,0-2.55,1.74,13.56,13.56,0,0,0-1.29,1.22,10.74,10.74,0,0,0-1.52,2,7.88,7.88,0,0,0-.4.76,7.23,7.23,0,0,0-.69,3.53,5.82,5.82,0,0,0,.41,1.8,7.1,7.1,0,0,0,3,3.43,9.78,9.78,0,0,0,1.07.56c.18.09.38.17.58.25l1.11.46,2.66,1.09.92.38,4.35,1.8h0l1.25.52s0,0,0,0l2.19.89h0L62,118l4.21,1.73.17.07,3.82,1.57L73,122.56l3.24,1.33h0l.52.22,1.7.7a4.25,4.25,0,0,0,1.62.29,5.81,5.81,0,0,0,1.53-.21l.13,0a5.33,5.33,0,0,0,1.9-1l1.58-1.31,2.16-1.8,3.5-2.91L93,116.11l3.51-2.92,2.15-1.79.34-.28c1.67-1.4,1.56-3.26-.17-4a1.64,1.64,0,0,0-.33-.14l-2.64-.89-3.61-1.21-.45-.15-4.5-1.51-1.16-.39-2.62-.88-3-1h0l-3.66-1.23-.42-.14L71.91,98h0l-1.2-.4h0l-2.53-.85h0l-3-1-2.89-1-.67-.23-.15,0c-.13,0-.27-.08-.4-.12a15.53,15.53,0,0,0-3.89-.48"/><path class="cls-3" d="M51.06,45.38l2-.26s.14-1.86,1.14-2.42h0c-.91.07-1.83.11-2.78.11A15.74,15.74,0,0,1,40.13,38h0a30.25,30.25,0,0,1-1.2,4.22,1.31,1.31,0,0,0,.44,1.48c1.05.78,3.53,1.88,9.13,1.74Z"/><path class="cls-4" d="M64.23,22.48c1.31,8.45-3.86,20.31-12.31,21.62S35,35.66,33.64,27.22a15.48,15.48,0,1,1,30.59-4.74"/><path class="cls-2" d="M88.66,140.29a2,2,0,0,1-.57.08,2.4,2.4,0,0,1-2.41-1.76l-.24-.86,0-.14-1.46-5.27-.17-.62-.42-1.52a2.42,2.42,0,0,1,1.68-3,2.72,2.72,0,0,1,.69-.09A2.41,2.41,0,0,1,88,128.91l.13.49,0,.07,2.19,7.84a2.43,2.43,0,0,1-1.68,3"/><path class="cls-3" d="M88.19,133.06v8.71a2.42,2.42,0,0,1-2.42,2.42,2.28,2.28,0,0,1-.45,0,2.42,2.42,0,0,1-2-2.38v-8.71a2.36,2.36,0,0,1,.14-.8,2.1,2.1,0,0,1,.24-.5,2.41,2.41,0,0,1,4.42.93,2.22,2.22,0,0,1,0,.37"/><path class="cls-1" d="M59,108.23h0l-13.56-2.75-.73-55.26c.49-10,10.39-3.73,14.41-.74a8.65,8.65,0,0,1,4.15,7.39l0,52Z"/><path class="cls-5" d="M57.54,52.34,32.77,47.89A2.18,2.18,0,0,1,31,45.37l.39-2.17a2.17,2.17,0,0,1,2.52-1.75L58.7,45.9a2.16,2.16,0,0,1,1.75,2.51l-.39,2.18a2.17,2.17,0,0,1-2.52,1.75"/><path class="cls-7" d="M57.54,52.34,32.77,47.89A2.18,2.18,0,0,1,31,45.37l.39-2.17a2.17,2.17,0,0,1,2.52-1.75L58.7,45.9a2.16,2.16,0,0,1,1.75,2.51l-.39,2.18A2.17,2.17,0,0,1,57.54,52.34Z"/><path class="cls-8" d="M65.2,14.67a2.31,2.31,0,0,0-2-3.05c-6.85-.6.28-12-14-11.61C35.83.4,34.9,8.41,35,11.15a.79.79,0,0,1-.82.82c-1.87-.08-6.24.39-8.75,6s-.19,9.61,1,11.12a.77.77,0,0,1-.12,1.08c-2.05,1.63-1.79,5.61.23,7.8,2.22,2.41,6-.19,8.89-1.6,2-1,1.64-2.28,1.23-2.93a.37.37,0,0,1,.2-.54c.74-.22.83-.64.78-.95a.39.39,0,0,0-.41-.32c-1.37.05-3.25-2-3-5.05.17-1.93,1.58-2.11,2.69-1.94a.82.82,0,0,0,.93-1c-.45-1.67-.7-4.28,1.92-4.84,3.92-.85,6.05-8.52,6.05-8.52C48.29,15.1,56.87,12,56.87,12a12.81,12.81,0,0,0,5.43,6.75l.08,0c1.35,2.85,1.57,4.47,1.37,9a18.92,18.92,0,0,1-2.4,8.65l3.19.78a3.4,3.4,0,0,0,3.29-1,34.5,34.5,0,0,0,2.87-3.38v0a3.3,3.3,0,0,0,.39-3,4,4,0,0,1-.26-1.94c.24-1.66.66-5,0-6.72S68.19,20,68.19,20a7.7,7.7,0,0,1-4.08-.43.68.68,0,0,1-.36-.86Z"/><path class="cls-9" d="M54.82,25.79s-1,4.16,1.37,3.95,4,2.75-1,4"/><path class="cls-9" d="M51.77,33.76a7.5,7.5,0,0,0-5.65,3"/><path class="cls-9" d="M59.84,35.27a4.28,4.28,0,0,0-2.49-1.51"/><path class="cls-6" d="M49.47,27.81a1.88,1.88,0,1,1-1.87-2,2,2,0,0,1,1.87,2"/><path class="cls-6" d="M61.08,27a1.87,1.87,0,1,1-1.87-1.87A1.87,1.87,0,0,1,61.08,27"/><line class="cls-9" x1="41.7" y1="27.27" x2="43.85" y2="27.27"/><line class="cls-9" x1="42.16" y1="29.48" x2="44.04" y2="28.46"/><line class="cls-9" x1="43.34" y1="30.87" x2="44.86" y2="29.36"/><line class="cls-9" x1="62.97" y1="26.33" x2="62.14" y2="26.33"/><line class="cls-9" x1="62.91" y1="27.66" x2="62.03" y2="27.51"/><line class="cls-9" x1="62.51" y1="28.92" x2="61.57" y2="28.41"/><path class="cls-5" d="M54.3,36.91a.86.86,0,0,0-.64.18.65.65,0,0,1-.85.06.82.82,0,0,0-.79,0,5.17,5.17,0,0,1-1.33.45.19.19,0,0,0-.09.33,2.87,2.87,0,0,0,2,.58,4.12,4.12,0,0,0,2.42-.57,3.41,3.41,0,0,0,.68-.64.19.19,0,0,0-.15-.32l-.44,0a5.73,5.73,0,0,1-.84-.06"/><path class="cls-10" d="M54.3,36.91a.86.86,0,0,0-.64.18.65.65,0,0,1-.85.06.82.82,0,0,0-.79,0,5.17,5.17,0,0,1-1.33.45.19.19,0,0,0-.09.33,2.87,2.87,0,0,0,2,.58,4.12,4.12,0,0,0,2.42-.57,3.41,3.41,0,0,0,.68-.64.19.19,0,0,0-.15-.32l-.44,0A5.73,5.73,0,0,1,54.3,36.91Z"/><path class="cls-9" d="M59.21,23.17a1.47,1.47,0,0,1,2,.69"/><path class="cls-9" d="M46.51,24.43a1.47,1.47,0,0,0-2,.69"/><line class="cls-9" x1="46.51" y1="16.95" x2="54.62" y2="16.54"/><line class="cls-9" x1="44.83" y1="20.91" x2="58.7" y2="19.78"/><line class="cls-9" x1="45.52" y1="19.06" x2="56.44" y2="18.26"/><path class="cls-5" d="M48.45,48.74V113a1.81,1.81,0,0,0,1.8,1.8h7.34a2.72,2.72,0,0,0,2.71-2.88L56.6,48.74Z"/><path class="cls-7" d="M48.45,48.74V113a1.81,1.81,0,0,0,1.8,1.8h7.34a2.72,2.72,0,0,0,2.71-2.88L56.6,48.74Z"/><path class="cls-5" d="M57.84,48.74a5.31,5.31,0,1,1-5.31-5.31,5.31,5.31,0,0,1,5.31,5.31"/><path class="cls-7" d="M57.84,48.74a5.31,5.31,0,1,1-5.31-5.31A5.31,5.31,0,0,1,57.84,48.74Z"/><path class="cls-4" d="M88.09,129.45l0-.07a9,9,0,1,0-8.81,10.9,8.71,8.71,0,0,0,1.36-.1v3.16a2.42,2.42,0,0,0,4.7.81,2.38,2.38,0,0,0,.14-.81V137.8l0,0a9.07,9.07,0,0,0,2.66-5.08,9.49,9.49,0,0,0,.11-1.42,9.13,9.13,0,0,0-.18-1.82"/><path class="cls-5" d="M45.7,50.22v55.26l-.49-.08-4.31-.68h0l-.37-.06-4.86-.77-.2,0-3.77-.6-.22-.79-.73-2.67-.25-.91-.93-3.41h0l-1.07-3.88-.11-.41L27.1,86.54h0l-.2-.73L26,82.37l-.88-3.23-.57-2.07L24,75.33l-1.22-4.46v0L21.55,66.3l-.41-1.5-.65-2.39h0l-.88-3.19-.1-.36-.38-1.37s.15-.26.43-.7.87-1.33,1.57-2.24a25.46,25.46,0,0,1,3.09-3.39,17.06,17.06,0,0,1,2.13-1.65,10,10,0,0,1,4-1.62h.07a6.54,6.54,0,0,1,1.4-.06,5.13,5.13,0,0,1,.86.09l2.62.47.48.09,4.11.73,1.81.33,2.43.43,1.52.27"/><path class="cls-6" d="M27.87,50.34a3.64,3.64,0,0,0-2.56,2.56,3.56,3.56,0,0,0-1.09-1.75,17.06,17.06,0,0,1,2.13-1.65,3.55,3.55,0,0,0,1.52.84"/><path class="cls-6" d="M33,50.34a3.62,3.62,0,0,0-2.56,2.56,3.65,3.65,0,0,0-2.57-2.56,3.59,3.59,0,0,0,2.53-2.46.42.42,0,0,0,0-.1l0,.09A3.58,3.58,0,0,0,33,50.34"/><path class="cls-6" d="M38.13,50.34a3.65,3.65,0,0,0-2.57,2.56A3.62,3.62,0,0,0,33,50.34a3.63,3.63,0,0,0,2.35-2l.48.09a3.59,3.59,0,0,0,2.3,1.88"/><path class="cls-6" d="M43.25,50.34a3.64,3.64,0,0,0-2.56,2.56,3.64,3.64,0,0,0-2.56-2.56,3.54,3.54,0,0,0,1.81-1.15l1.81.33a3.61,3.61,0,0,0,1.5.82"/><path class="cls-6" d="M45.7,50.22v2.34a3.63,3.63,0,0,0-2.45-2.22,3.66,3.66,0,0,0,.93-.39l1.52.27"/><path class="cls-6" d="M22.75,55.47A3.63,3.63,0,0,0,20.18,58a3.41,3.41,0,0,0-.62-1.25c.34-.54.87-1.33,1.57-2.24a3.71,3.71,0,0,0,1.62.93"/><path class="cls-6" d="M22.74,55.47A3.65,3.65,0,0,1,25.31,58a3.62,3.62,0,0,1,2.56-2.56,3.62,3.62,0,0,1-2.56-2.56,3.65,3.65,0,0,1-2.57,2.56"/><path class="cls-6" d="M27.87,55.47A3.62,3.62,0,0,1,30.43,58,3.65,3.65,0,0,1,33,55.47a3.65,3.65,0,0,1-2.57-2.56,3.62,3.62,0,0,1-2.56,2.56"/><path class="cls-6" d="M33,55.47A3.64,3.64,0,0,1,35.56,58a3.64,3.64,0,0,1,2.56-2.56,3.64,3.64,0,0,1-2.56-2.56A3.64,3.64,0,0,1,33,55.47"/><path class="cls-6" d="M38.12,55.47A3.65,3.65,0,0,1,40.69,58a3.62,3.62,0,0,1,2.56-2.56,3.62,3.62,0,0,1-2.56-2.56,3.65,3.65,0,0,1-2.57,2.56"/><path class="cls-6" d="M45.7,53.25v4.44a3.59,3.59,0,0,0-2.45-2.22,3.63,3.63,0,0,0,2.45-2.22"/><path class="cls-6" d="M22.75,60.59a3.64,3.64,0,0,0-2.26,1.81l-.88-3.19A3.23,3.23,0,0,0,20.18,58a3.63,3.63,0,0,0,2.57,2.56"/><path class="cls-6" d="M22.74,60.6a3.63,3.63,0,0,1,2.57,2.56,3.6,3.6,0,0,1,2.56-2.56A3.63,3.63,0,0,1,25.31,58a3.66,3.66,0,0,1-2.57,2.57"/><path class="cls-6" d="M27.87,60.6a3.6,3.6,0,0,1,2.56,2.56A3.63,3.63,0,0,1,33,60.6,3.66,3.66,0,0,1,30.43,58a3.63,3.63,0,0,1-2.56,2.57"/><path class="cls-6" d="M33,60.6a3.62,3.62,0,0,1,2.56,2.56,3.62,3.62,0,0,1,2.56-2.56A3.65,3.65,0,0,1,35.56,58,3.65,3.65,0,0,1,33,60.6"/><path class="cls-6" d="M38.12,60.6a3.63,3.63,0,0,1,2.57,2.56,3.6,3.6,0,0,1,2.56-2.56A3.63,3.63,0,0,1,40.69,58a3.66,3.66,0,0,1-2.57,2.57"/><path class="cls-6" d="M45.7,58.38v4.44a3.63,3.63,0,0,0-2.45-2.23,3.62,3.62,0,0,0,2.45-2.21"/><path class="cls-6" d="M22.75,65.72a3.71,3.71,0,0,0-1.2.58l-.41-1.5a3.7,3.7,0,0,0,1.61.92"/><path class="cls-6" d="M22.74,65.72a3.66,3.66,0,0,1,2.57,2.57,3.63,3.63,0,0,1,2.56-2.57,3.6,3.6,0,0,1-2.56-2.56,3.63,3.63,0,0,1-2.57,2.56"/><path class="cls-6" d="M27.87,65.72a3.63,3.63,0,0,1,2.56,2.57A3.66,3.66,0,0,1,33,65.72a3.63,3.63,0,0,1-2.57-2.56,3.6,3.6,0,0,1-2.56,2.56"/><path class="cls-6" d="M33,65.72a3.65,3.65,0,0,1,2.56,2.57,3.65,3.65,0,0,1,2.56-2.57,3.62,3.62,0,0,1-2.56-2.56A3.62,3.62,0,0,1,33,65.72"/><path class="cls-6" d="M38.12,65.72a3.66,3.66,0,0,1,2.57,2.57,3.63,3.63,0,0,1,2.56-2.57,3.6,3.6,0,0,1-2.56-2.56,3.63,3.63,0,0,1-2.57,2.56"/><path class="cls-6" d="M45.7,63.5v4.44a3.63,3.63,0,0,0-2.45-2.22A3.63,3.63,0,0,0,45.7,63.5"/><path class="cls-6" d="M27.87,70.85a3.62,3.62,0,0,0-2.56,2.56,3.6,3.6,0,0,0-2.5-2.54l-.06,0,.05,0a3.64,3.64,0,0,0,2.51-2.55,3.65,3.65,0,0,0,2.56,2.57"/><path class="cls-6" d="M27.87,70.85a3.62,3.62,0,0,1,2.56,2.56A3.65,3.65,0,0,1,33,70.85a3.65,3.65,0,0,1-2.57-2.56,3.62,3.62,0,0,1-2.56,2.56"/><path class="cls-6" d="M33,70.85a3.64,3.64,0,0,1,2.56,2.56,3.64,3.64,0,0,1,2.56-2.56,3.64,3.64,0,0,1-2.56-2.56A3.64,3.64,0,0,1,33,70.85"/><path class="cls-6" d="M38.12,70.85a3.65,3.65,0,0,1,2.57,2.56,3.62,3.62,0,0,1,2.56-2.56,3.62,3.62,0,0,1-2.56-2.56,3.65,3.65,0,0,1-2.57,2.56"/><path class="cls-6" d="M45.7,68.63v4.44a3.59,3.59,0,0,0-2.45-2.22,3.65,3.65,0,0,0,2.45-2.22"/><path class="cls-6" d="M27.87,76a3.65,3.65,0,0,0-2.56,2.57,3.57,3.57,0,0,0-.8-1.47L24,75.33a3.61,3.61,0,0,0,1.28-1.92A3.62,3.62,0,0,0,27.87,76"/><path class="cls-6" d="M27.87,76a3.6,3.6,0,0,1,2.56,2.56A3.63,3.63,0,0,1,33,76a3.66,3.66,0,0,1-2.57-2.57A3.63,3.63,0,0,1,27.87,76"/><path class="cls-6" d="M33,76a3.62,3.62,0,0,1,2.56,2.56A3.62,3.62,0,0,1,38.12,76a3.65,3.65,0,0,1-2.56-2.57A3.65,3.65,0,0,1,33,76"/><path class="cls-6" d="M38.12,76a3.63,3.63,0,0,1,2.57,2.56A3.6,3.6,0,0,1,43.25,76a3.63,3.63,0,0,1-2.56-2.57A3.66,3.66,0,0,1,38.12,76"/><path class="cls-6" d="M45.7,73.76V78.2A3.63,3.63,0,0,0,43.25,76a3.62,3.62,0,0,0,2.45-2.21"/><path class="cls-6" d="M27.87,81.1A3.61,3.61,0,0,0,26,82.37l-.88-3.23a3.1,3.1,0,0,0,.23-.6,3.64,3.64,0,0,0,2.56,2.56"/><path class="cls-6" d="M27.87,81.1a3.63,3.63,0,0,1,2.56,2.57A3.66,3.66,0,0,1,33,81.1a3.63,3.63,0,0,1-2.57-2.56,3.6,3.6,0,0,1-2.56,2.56"/><path class="cls-6" d="M33,81.1a3.65,3.65,0,0,1,2.56,2.57,3.65,3.65,0,0,1,2.56-2.57,3.62,3.62,0,0,1-2.56-2.56A3.62,3.62,0,0,1,33,81.1"/><path class="cls-6" d="M38.12,81.1a3.66,3.66,0,0,1,2.57,2.57,3.63,3.63,0,0,1,2.56-2.57,3.6,3.6,0,0,1-2.56-2.56,3.63,3.63,0,0,1-2.57,2.56"/><path class="cls-6" d="M45.7,78.88v4.44a3.63,3.63,0,0,0-2.45-2.22,3.63,3.63,0,0,0,2.45-2.22"/><path class="cls-6" d="M27.87,86.23a3.42,3.42,0,0,0-.77.3l-.2-.73a3.26,3.26,0,0,0,1,.43"/><path class="cls-6" d="M27.87,86.23a3.62,3.62,0,0,1,2.56,2.56A3.65,3.65,0,0,1,33,86.23a3.65,3.65,0,0,1-2.57-2.56,3.62,3.62,0,0,1-2.56,2.56"/><path class="cls-6" d="M33,86.23a3.64,3.64,0,0,1,2.56,2.56,3.64,3.64,0,0,1,2.56-2.56,3.64,3.64,0,0,1-2.56-2.56A3.64,3.64,0,0,1,33,86.23"/><path class="cls-6" d="M38.12,86.23a3.65,3.65,0,0,1,2.57,2.56,3.62,3.62,0,0,1,2.56-2.56,3.62,3.62,0,0,1-2.56-2.56,3.65,3.65,0,0,1-2.57,2.56"/><path class="cls-6" d="M45.7,84v4.44a3.59,3.59,0,0,0-2.45-2.22A3.65,3.65,0,0,0,45.7,84"/><path class="cls-6" d="M33,91.35a3.63,3.63,0,0,0-2.56,2.57,3.64,3.64,0,0,0-2-2.33l-.11-.41a3.65,3.65,0,0,0,2.06-2.39A3.6,3.6,0,0,0,33,91.35"/><path class="cls-6" d="M33,91.36a3.62,3.62,0,0,1,2.56,2.56,3.62,3.62,0,0,1,2.56-2.56,3.65,3.65,0,0,1-2.56-2.57A3.65,3.65,0,0,1,33,91.36"/><path class="cls-6" d="M38.12,91.36a3.63,3.63,0,0,1,2.57,2.56,3.6,3.6,0,0,1,2.56-2.56,3.63,3.63,0,0,1-2.56-2.57,3.66,3.66,0,0,1-2.57,2.57"/><path class="cls-6" d="M45.7,89.14v4.44a3.63,3.63,0,0,0-2.45-2.23,3.62,3.62,0,0,0,2.45-2.21"/><path class="cls-6" d="M33,96.48a3.6,3.6,0,0,0-2.51,2.41l-.93-3.41h0a3.63,3.63,0,0,0,.88-1.55A3.62,3.62,0,0,0,33,96.48"/><path class="cls-6" d="M33,96.48A3.64,3.64,0,0,1,35.56,99a3.64,3.64,0,0,1,2.56-2.56,3.64,3.64,0,0,1-2.56-2.56A3.64,3.64,0,0,1,33,96.48"/><path class="cls-6" d="M38.12,96.48A3.65,3.65,0,0,1,40.69,99a3.62,3.62,0,0,1,2.56-2.56,3.62,3.62,0,0,1-2.56-2.56,3.65,3.65,0,0,1-2.57,2.56"/><path class="cls-6" d="M45.7,94.26V98.7a3.63,3.63,0,0,0-2.45-2.22,3.63,3.63,0,0,0,2.45-2.22"/><path class="cls-6" d="M33,101.61a3.48,3.48,0,0,0-1.53.86l-.73-2.67A3.64,3.64,0,0,0,33,101.61"/><path class="cls-6" d="M38.13,101.61a3.58,3.58,0,0,0-2.47,2.28l-.2,0A3.6,3.6,0,0,0,33,101.61,3.63,3.63,0,0,0,35.56,99a3.66,3.66,0,0,0,2.57,2.57"/><path class="cls-6" d="M38.12,101.61a3.65,3.65,0,0,1,2.57,2.56,3.62,3.62,0,0,1,2.56-2.56,3.62,3.62,0,0,1-2.56-2.56,3.65,3.65,0,0,1-2.57,2.56"/><path class="cls-6" d="M45.7,99.39v4.44a3.59,3.59,0,0,0-2.45-2.22,3.65,3.65,0,0,0,2.45-2.22"/><path class="cls-6" d="M40.89,104.72l-.37-.06a4,4,0,0,0,.17-.49,3.62,3.62,0,0,0,.2.55"/><path class="cls-6" d="M45.7,104.52v1l-.49-.08a3.16,3.16,0,0,0,.49-.88"/><path class="cls-6" d="M31.44,48.55h.43a4.41,4.41,0,0,1,.73.08l1.49.27,1.13.2.47.09,2.23.39,1.88.34,1.41.26.41.07.45.08,2,.35.9.16V104.6L41,104h0l-.34-.06-4.86-.77-.2,0-3.29-.52-.09-.33-.73-2.67-.25-.91-.92-3.36a.13.13,0,0,0,0-.06L29.21,91.4,29.1,91l-1.27-4.59a.13.13,0,0,0,0-.06l-.2-.73-.94-3.43-.88-3.23-.57-2.07-.48-1.74-1.22-4.44s0,0,0-.06L22.27,66.1l-.41-1.5-.64-2.33a.15.15,0,0,0,0-.07L20.33,59l-.1-.36-.29-1.06c.06-.11.15-.25.25-.41.31-.49.82-1.26,1.53-2.18a24.86,24.86,0,0,1,3-3.29,15.26,15.26,0,0,1,2-1.58,9.17,9.17,0,0,1,3.74-1.51h.08a6.11,6.11,0,0,1,.86-.06m0-.75a6.33,6.33,0,0,0-1,.07H30.4a10,10,0,0,0-4,1.62,17.06,17.06,0,0,0-2.13,1.65,25.46,25.46,0,0,0-3.09,3.39c-.7.91-1.23,1.7-1.57,2.24s-.43.7-.43.7l.38,1.37.1.36.88,3.19h0l.65,2.39.41,1.5,1.25,4.53v0L24,75.33l.48,1.74.57,2.07L26,82.37l.94,3.43.2.73h0l1.28,4.64.11.41,1.07,3.88h0l.93,3.41.25.91.73,2.67.22.79,3.77.6.2,0,4.86.77.37.06h0l4.31.68.49.08V50.22L44.18,50l-2.43-.43-1.81-.33-4.11-.73-.48-.09-2.62-.47a5.13,5.13,0,0,0-.86-.09h-.43"/><path class="cls-5" d="M38,68.2l-.35,2.47-.05.37h0L37,75.41l-.18,1.26L36.31,80l-.41,2.89-.18,1.28-.54,3.76h0l-.31,2.24-.3,2.11h0L34,96l-.12.86-.66,4.65,0,.16-.7,4.9-.05.34-.62,4.4-.17,1.2h0l-.48,3.32h0L31,117.08c0,.32-.08.65-.14,1s-.09.47-.14.7-.16.64-.27,1h0a14.14,14.14,0,0,1-1.29,3.07,14.74,14.74,0,0,1-2.79,3.65,15.38,15.38,0,0,1-2.09,1.7,15.68,15.68,0,0,1-4,2h0l-.22.07a15.92,15.92,0,0,1-4.54.65c-.3,0-.6,0-.9,0a14.34,14.34,0,0,1-1.82-.22,15,15,0,0,1-2.85-.81h0a15.13,15.13,0,0,1-3.61-2,14.7,14.7,0,0,1-2.08-1.86,15.46,15.46,0,0,1-2.49-3.57c-.09-.16-.16-.32-.24-.48h0a15.06,15.06,0,0,1-1.16-3.55,15.31,15.31,0,0,1-.29-3,14.41,14.41,0,0,1,.13-2c0-.29.08-.59.13-.88a8.25,8.25,0,0,1,.2-.89l.14-.64L1.52,107l.11-.51,1.07-4.75.07-.34h0l.93-4.13.46-2.08h0l.41-1.87.76-3.39.67-3,.27-1.22,1-4.6v0l1-4.67.24-1,.71-3.21.77-3.44.34-1.5L11,64.85l.34-1.53a14.13,14.13,0,0,1,.92-2.63,1.3,1.3,0,0,1,.08-.17A14.09,14.09,0,0,1,14.61,57a12.82,12.82,0,0,1,2.18-1.92A12.08,12.08,0,0,1,20,53.47l.36-.12a1.84,1.84,0,0,1,.25-.09,13.74,13.74,0,0,1,4.66-.54h.12a12.83,12.83,0,0,1,1.61.19,14,14,0,0,1,3.05.93,14.19,14.19,0,0,1,1.35.68l.06,0a8.55,8.55,0,0,1,1.14.74l0,0,.21.15,0,0a12.51,12.51,0,0,1,2.63,2.71,6,6,0,0,1,.36.52s0,0,0,0,.18.29.27.44a.22.22,0,0,0,0,.08,13.31,13.31,0,0,1,.87,1.78h0a14.16,14.16,0,0,1,1,4.61v0A14.5,14.5,0,0,1,38,68.2"/><path class="cls-6" d="M25.37,52.73a1.15,1.15,0,0,0-.06.17,1.27,1.27,0,0,0-.06-.18h.12"/><path class="cls-6" d="M17.62,55.47A3.6,3.6,0,0,0,15.06,58a3.42,3.42,0,0,0-.45-1,12.82,12.82,0,0,1,2.18-1.92,3.18,3.18,0,0,0,.83.35"/><path class="cls-6" d="M20,53.47a3.64,3.64,0,0,1-2.36,2A3.6,3.6,0,0,1,20.18,58a3.63,3.63,0,0,1,2.57-2.56,3.61,3.61,0,0,1-2.41-2.12Z"/><path class="cls-6" d="M22.74,55.47A3.65,3.65,0,0,1,25.31,58a3.62,3.62,0,0,1,2.56-2.56,3.62,3.62,0,0,1-2.56-2.56,3.65,3.65,0,0,1-2.57,2.56"/><path class="cls-6" d="M33,55.47l-.14.05A3.58,3.58,0,0,0,30.44,58a3.63,3.63,0,0,0-2.57-2.56A3.65,3.65,0,0,0,30,53.85a14.19,14.19,0,0,1,1.35.68l.06,0a3.25,3.25,0,0,0,1.14.74l0,0,.38.13"/><path class="cls-6" d="M12.49,60.59l-.28.1a1.3,1.3,0,0,1,.08-.17l.2.07"/><path class="cls-6" d="M12.49,60.6a3.6,3.6,0,0,1,2.56,2.56,3.63,3.63,0,0,1,2.57-2.56A3.66,3.66,0,0,1,15.05,58a3.63,3.63,0,0,1-2.56,2.57"/><path class="cls-6" d="M17.62,60.6a3.62,3.62,0,0,1,2.56,2.56,3.62,3.62,0,0,1,2.56-2.56A3.65,3.65,0,0,1,20.18,58a3.65,3.65,0,0,1-2.56,2.57"/><path class="cls-6" d="M22.74,60.6a3.63,3.63,0,0,1,2.57,2.56,3.6,3.6,0,0,1,2.56-2.56A3.63,3.63,0,0,1,25.31,58a3.66,3.66,0,0,1-2.57,2.57"/><path class="cls-6" d="M27.87,60.6a3.6,3.6,0,0,1,2.56,2.56A3.63,3.63,0,0,1,33,60.6,3.66,3.66,0,0,1,30.43,58a3.63,3.63,0,0,1-2.56,2.57"/><path class="cls-6" d="M37.06,61.08h0a3.6,3.6,0,0,0-1.5,2.07A3.63,3.63,0,0,0,33,60.59a3.58,3.58,0,0,0,2.49-2.36,1.18,1.18,0,0,0,.07-.2,3.19,3.19,0,0,0,.29.72s0,0,0,0a2,2,0,0,0,.27.44.22.22,0,0,0,0,.08Z"/><path class="cls-6" d="M12.49,65.72a3.57,3.57,0,0,0-2.07,1.5L11,64.85a3.52,3.52,0,0,0,1.54.87"/><path class="cls-6" d="M12.49,65.72a3.63,3.63,0,0,1,2.56,2.57,3.66,3.66,0,0,1,2.57-2.57,3.63,3.63,0,0,1-2.57-2.56,3.6,3.6,0,0,1-2.56,2.56"/><path class="cls-6" d="M17.62,65.72a3.65,3.65,0,0,1,2.56,2.57,3.65,3.65,0,0,1,2.56-2.57,3.62,3.62,0,0,1-2.56-2.56,3.62,3.62,0,0,1-2.56,2.56"/><path class="cls-6" d="M22.74,65.72a3.66,3.66,0,0,1,2.57,2.57,3.63,3.63,0,0,1,2.56-2.57,3.6,3.6,0,0,1-2.56-2.56,3.63,3.63,0,0,1-2.57,2.56"/><path class="cls-6" d="M27.87,65.72a3.63,3.63,0,0,1,2.56,2.57A3.66,3.66,0,0,1,33,65.72a3.63,3.63,0,0,1-2.57-2.56,3.6,3.6,0,0,1-2.56,2.56"/><path class="cls-6" d="M33,65.72a3.65,3.65,0,0,1,2.56,2.57,3.65,3.65,0,0,1,2.56-2.57,3.62,3.62,0,0,1-2.56-2.56A3.62,3.62,0,0,1,33,65.72"/><path class="cls-6" d="M12.49,70.85a3.62,3.62,0,0,0-2.56,2.56,3.41,3.41,0,0,0-.62-1.25l.77-3.44a3.64,3.64,0,0,0,2.41,2.13"/><path class="cls-6" d="M12.49,70.85a3.62,3.62,0,0,1,2.56,2.56,3.65,3.65,0,0,1,2.57-2.56,3.65,3.65,0,0,1-2.57-2.56,3.62,3.62,0,0,1-2.56,2.56"/><path class="cls-6" d="M17.62,70.85a3.64,3.64,0,0,1,2.56,2.56,3.64,3.64,0,0,1,2.56-2.56,3.64,3.64,0,0,1-2.56-2.56,3.64,3.64,0,0,1-2.56,2.56"/><path class="cls-6" d="M22.74,70.85a3.65,3.65,0,0,1,2.57,2.56,3.62,3.62,0,0,1,2.56-2.56,3.62,3.62,0,0,1-2.56-2.56,3.65,3.65,0,0,1-2.57,2.56"/><path class="cls-6" d="M27.87,70.85a3.62,3.62,0,0,1,2.56,2.56A3.65,3.65,0,0,1,33,70.85a3.65,3.65,0,0,1-2.57-2.56,3.62,3.62,0,0,1-2.56,2.56"/><path class="cls-6" d="M37.58,71h0a3.62,3.62,0,0,0-2,2.36A3.6,3.6,0,0,0,33,70.85a3.63,3.63,0,0,0,2.56-2.57,3.62,3.62,0,0,0,2.07,2.39Z"/><path class="cls-6" d="M12.49,76a3.65,3.65,0,0,0-2.56,2.57,3.61,3.61,0,0,0-1.57-2.13l.24-1a3.59,3.59,0,0,0,1.33-2A3.62,3.62,0,0,0,12.49,76"/><path class="cls-6" d="M15.05,78.54A3.63,3.63,0,0,1,17.62,76a3.66,3.66,0,0,1-2.57-2.57A3.63,3.63,0,0,1,12.49,76a3.6,3.6,0,0,1,2.56,2.56"/><path class="cls-6" d="M17.62,76a3.62,3.62,0,0,1,2.56,2.56A3.62,3.62,0,0,1,22.74,76a3.65,3.65,0,0,1-2.56-2.57A3.65,3.65,0,0,1,17.62,76"/><path class="cls-6" d="M22.74,76a3.63,3.63,0,0,1,2.57,2.56A3.6,3.6,0,0,1,27.87,76a3.63,3.63,0,0,1-2.56-2.57A3.66,3.66,0,0,1,22.74,76"/><path class="cls-6" d="M27.87,76a3.6,3.6,0,0,1,2.56,2.56A3.63,3.63,0,0,1,33,76a3.66,3.66,0,0,1-2.57-2.57A3.63,3.63,0,0,1,27.87,76"/><path class="cls-6" d="M36.78,76.67a3.55,3.55,0,0,0-1.22,1.87A3.63,3.63,0,0,0,33,76a3.6,3.6,0,0,0,2.56-2.56,3.6,3.6,0,0,0,1.4,2Z"/><path class="cls-6" d="M7.37,81.1l-.06,0v0l0,0"/><path class="cls-6" d="M9.93,83.67a3.65,3.65,0,0,1,2.56-2.57,3.62,3.62,0,0,1-2.56-2.56A3.62,3.62,0,0,1,7.37,81.1a3.65,3.65,0,0,1,2.56,2.57"/><path class="cls-6" d="M15.05,83.67a3.66,3.66,0,0,1,2.57-2.57,3.63,3.63,0,0,1-2.57-2.56,3.6,3.6,0,0,1-2.56,2.56,3.63,3.63,0,0,1,2.56,2.57"/><path class="cls-6" d="M20.18,83.67a3.65,3.65,0,0,1,2.56-2.57,3.62,3.62,0,0,1-2.56-2.56,3.62,3.62,0,0,1-2.56,2.56,3.65,3.65,0,0,1,2.56,2.57"/><path class="cls-6" d="M22.74,81.1a3.66,3.66,0,0,1,2.57,2.57,3.63,3.63,0,0,1,2.56-2.57,3.6,3.6,0,0,1-2.56-2.56,3.63,3.63,0,0,1-2.57,2.56"/><path class="cls-6" d="M27.87,81.1a3.63,3.63,0,0,1,2.56,2.57A3.66,3.66,0,0,1,33,81.1a3.63,3.63,0,0,1-2.57-2.56,3.6,3.6,0,0,1-2.56,2.56"/><path class="cls-6" d="M36.31,80a3.5,3.5,0,0,1-.75-1.41A3.62,3.62,0,0,1,33,81.1a3.62,3.62,0,0,1,2.56,2.56,3.3,3.3,0,0,1,.34-.82Z"/><path class="cls-6" d="M7.37,86.23A3.41,3.41,0,0,0,6,86.94l.27-1.22a3.62,3.62,0,0,0,1.09.51"/><path class="cls-6" d="M9.93,88.79a3.64,3.64,0,0,1,2.56-2.56,3.64,3.64,0,0,1-2.56-2.56,3.64,3.64,0,0,1-2.56,2.56,3.64,3.64,0,0,1,2.56,2.56"/><path class="cls-6" d="M15.05,88.79a3.65,3.65,0,0,1,2.57-2.56,3.65,3.65,0,0,1-2.57-2.56,3.62,3.62,0,0,1-2.56,2.56,3.62,3.62,0,0,1,2.56,2.56"/><path class="cls-6" d="M20.18,83.67a3.64,3.64,0,0,1-2.56,2.56,3.64,3.64,0,0,1,2.56,2.56,3.64,3.64,0,0,1,2.56-2.56,3.64,3.64,0,0,1-2.56-2.56"/><path class="cls-6" d="M22.74,86.23a3.65,3.65,0,0,1,2.57,2.56,3.62,3.62,0,0,1,2.56-2.56,3.62,3.62,0,0,1-2.56-2.56,3.65,3.65,0,0,1-2.57,2.56"/><path class="cls-6" d="M27.87,86.23a3.62,3.62,0,0,1,2.56,2.56A3.65,3.65,0,0,1,33,86.23a3.65,3.65,0,0,1-2.57-2.56,3.62,3.62,0,0,1-2.56,2.56"/><path class="cls-6" d="M35.72,84.12l-.54,3.76A3.57,3.57,0,0,0,33,86.23a3.63,3.63,0,0,0,2.56-2.57,3.57,3.57,0,0,0,.16.46"/><path class="cls-6" d="M7.37,91.35A3.66,3.66,0,0,0,4.8,93.92a3.89,3.89,0,0,0-.22-.6l.76-3.39a3.57,3.57,0,0,0,2,1.42"/><path class="cls-6" d="M9.93,93.92a3.62,3.62,0,0,1,2.56-2.56,3.65,3.65,0,0,1-2.56-2.57,3.65,3.65,0,0,1-2.56,2.57,3.62,3.62,0,0,1,2.56,2.56"/><path class="cls-6" d="M15.05,88.79a3.63,3.63,0,0,1-2.56,2.57,3.6,3.6,0,0,1,2.56,2.56,3.63,3.63,0,0,1,2.57-2.56,3.66,3.66,0,0,1-2.57-2.57"/><path class="cls-6" d="M20.18,88.79a3.65,3.65,0,0,1-2.56,2.57,3.62,3.62,0,0,1,2.56,2.56,3.62,3.62,0,0,1,2.56-2.56,3.65,3.65,0,0,1-2.56-2.57"/><path class="cls-6" d="M25.31,88.79a3.66,3.66,0,0,1-2.57,2.57,3.63,3.63,0,0,1,2.57,2.56,3.6,3.6,0,0,1,2.56-2.56,3.63,3.63,0,0,1-2.56-2.57"/><path class="cls-6" d="M27.87,91.36a3.6,3.6,0,0,1,2.56,2.56A3.63,3.63,0,0,1,33,91.36a3.66,3.66,0,0,1-2.57-2.57,3.63,3.63,0,0,1-2.56,2.57"/><path class="cls-6" d="M34.87,90.13l-.3,2.11A3.56,3.56,0,0,0,33,91.35a3.52,3.52,0,0,0,1.87-1.22"/><path class="cls-6" d="M7.37,96.48A3.65,3.65,0,0,0,4.8,99a3.42,3.42,0,0,0-1.1-1.76l.46-2.08h0a3.44,3.44,0,0,0,.63-1.27,3.65,3.65,0,0,0,2.57,2.56"/><path class="cls-6" d="M9.93,93.92a3.62,3.62,0,0,1-2.56,2.56,3.63,3.63,0,0,1,2.56,2.57,3.63,3.63,0,0,1,2.56-2.57,3.62,3.62,0,0,1-2.56-2.56"/><path class="cls-6" d="M15.05,93.92a3.6,3.6,0,0,1-2.56,2.56,3.62,3.62,0,0,1,2.56,2.57,3.65,3.65,0,0,1,2.57-2.57,3.63,3.63,0,0,1-2.57-2.56"/><path class="cls-6" d="M20.18,93.92a3.62,3.62,0,0,1-2.56,2.56,3.63,3.63,0,0,1,2.56,2.57,3.63,3.63,0,0,1,2.56-2.57,3.62,3.62,0,0,1-2.56-2.56"/><path class="cls-6" d="M25.31,93.92a3.63,3.63,0,0,1-2.57,2.56,3.65,3.65,0,0,1,2.57,2.57,3.62,3.62,0,0,1,2.56-2.57,3.6,3.6,0,0,1-2.56-2.56"/><path class="cls-6" d="M30.43,93.92a3.6,3.6,0,0,1-2.56,2.56,3.62,3.62,0,0,1,2.56,2.57A3.65,3.65,0,0,1,33,96.48a3.63,3.63,0,0,1-2.57-2.56"/><path class="cls-6" d="M34,96l-.12.86a3.68,3.68,0,0,0-.91-.39A3.44,3.44,0,0,0,34,96"/><path class="cls-6" d="M2.7,101.76a3.65,3.65,0,0,1,2.1,2.41,3.63,3.63,0,0,1,2.57-2.56A3.66,3.66,0,0,1,4.8,99a3.58,3.58,0,0,1-2,2.37h0Z"/><path class="cls-6" d="M9.93,99.05a3.64,3.64,0,0,1-2.56,2.56,3.64,3.64,0,0,1,2.56,2.56,3.64,3.64,0,0,1,2.56-2.56,3.64,3.64,0,0,1-2.56-2.56"/><path class="cls-6" d="M15.05,99.05a3.62,3.62,0,0,1-2.56,2.56,3.62,3.62,0,0,1,2.56,2.56,3.65,3.65,0,0,1,2.57-2.56,3.65,3.65,0,0,1-2.57-2.56"/><path class="cls-6" d="M20.18,99.05a3.64,3.64,0,0,1-2.56,2.56,3.64,3.64,0,0,1,2.56,2.56,3.64,3.64,0,0,1,2.56-2.56,3.64,3.64,0,0,1-2.56-2.56"/><path class="cls-6" d="M25.31,99.05a3.65,3.65,0,0,1-2.57,2.56,3.65,3.65,0,0,1,2.57,2.56,3.62,3.62,0,0,1,2.56-2.56,3.62,3.62,0,0,1-2.56-2.56"/><path class="cls-6" d="M30.43,99.05a3.62,3.62,0,0,1-2.56,2.56,3.62,3.62,0,0,1,2.56,2.56A3.65,3.65,0,0,1,33,101.61a3.65,3.65,0,0,1-2.57-2.56"/><path class="cls-6" d="M33.25,101.52l0,.16-.23-.07a1.25,1.25,0,0,0,.25-.09"/><path class="cls-6" d="M2.24,106.73a3.19,3.19,0,0,0-.72.29l.11-.51a4,4,0,0,0,.61.22"/><path class="cls-6" d="M4.8,104.17a3.62,3.62,0,0,1-2.56,2.56A3.65,3.65,0,0,1,4.8,109.3a3.65,3.65,0,0,1,2.56-2.57,3.62,3.62,0,0,1-2.56-2.56"/><path class="cls-6" d="M9.93,104.17a3.62,3.62,0,0,1-2.56,2.56,3.65,3.65,0,0,1,2.56,2.57,3.65,3.65,0,0,1,2.56-2.57,3.62,3.62,0,0,1-2.56-2.56"/><path class="cls-6" d="M15.05,104.17a3.6,3.6,0,0,1-2.56,2.56,3.63,3.63,0,0,1,2.56,2.57,3.66,3.66,0,0,1,2.57-2.57,3.63,3.63,0,0,1-2.57-2.56"/><path class="cls-6" d="M20.18,104.17a3.62,3.62,0,0,1-2.56,2.56,3.65,3.65,0,0,1,2.56,2.57,3.65,3.65,0,0,1,2.56-2.57,3.62,3.62,0,0,1-2.56-2.56"/><path class="cls-6" d="M25.31,104.17a3.63,3.63,0,0,1-2.57,2.56,3.66,3.66,0,0,1,2.57,2.57,3.63,3.63,0,0,1,2.56-2.57,3.6,3.6,0,0,1-2.56-2.56"/><path class="cls-6" d="M30.43,104.17a3.6,3.6,0,0,1-2.56,2.56,3.63,3.63,0,0,1,2.56,2.57A3.66,3.66,0,0,1,33,106.73a3.63,3.63,0,0,1-2.57-2.56"/><path class="cls-6" d="M2.24,111.86a3.62,3.62,0,0,0-2.07,1.49c0-.29.08-.59.13-.88a8.25,8.25,0,0,1,.2-.89l.14-.64a3.72,3.72,0,0,0,1.6.92"/><path class="cls-6" d="M4.8,109.3a3.62,3.62,0,0,1-2.56,2.56,3.63,3.63,0,0,1,2.56,2.57,3.63,3.63,0,0,1,2.56-2.57A3.62,3.62,0,0,1,4.8,109.3"/><path class="cls-6" d="M9.93,109.3a3.62,3.62,0,0,1-2.56,2.56,3.63,3.63,0,0,1,2.56,2.57,3.63,3.63,0,0,1,2.56-2.57,3.62,3.62,0,0,1-2.56-2.56"/><path class="cls-6" d="M15.05,109.3a3.6,3.6,0,0,1-2.56,2.56,3.62,3.62,0,0,1,2.56,2.57,3.65,3.65,0,0,1,2.57-2.57,3.63,3.63,0,0,1-2.57-2.56"/><path class="cls-6" d="M20.18,109.3a3.62,3.62,0,0,1-2.56,2.56,3.63,3.63,0,0,1,2.56,2.57,3.63,3.63,0,0,1,2.56-2.57,3.62,3.62,0,0,1-2.56-2.56"/><path class="cls-6" d="M25.31,109.3a3.63,3.63,0,0,1-2.57,2.56,3.65,3.65,0,0,1,2.57,2.57,3.62,3.62,0,0,1,2.56-2.57,3.6,3.6,0,0,1-2.56-2.56"/><path class="cls-6" d="M31.86,111.32a3.51,3.51,0,0,1-1.42-2,3.65,3.65,0,0,1-2.57,2.56,3.65,3.65,0,0,1,2.57,2.56,3.56,3.56,0,0,1,1.25-1.89h0Z"/><path class="cls-6" d="M2.24,117a3.55,3.55,0,0,0-1.91,1.27,15.31,15.31,0,0,1-.29-3A3.68,3.68,0,0,0,2.24,117"/><path class="cls-6" d="M4.8,114.42A3.65,3.65,0,0,1,2.24,117a3.62,3.62,0,0,1,2.56,2.56A3.62,3.62,0,0,1,7.36,117a3.65,3.65,0,0,1-2.56-2.57"/><path class="cls-6" d="M9.93,114.42A3.65,3.65,0,0,1,7.37,117a3.62,3.62,0,0,1,2.56,2.56A3.62,3.62,0,0,1,12.49,117a3.65,3.65,0,0,1-2.56-2.57"/><path class="cls-6" d="M15.05,114.42A3.63,3.63,0,0,1,12.49,117a3.6,3.6,0,0,1,2.56,2.56A3.63,3.63,0,0,1,17.62,117a3.66,3.66,0,0,1-2.57-2.57"/><path class="cls-6" d="M20.18,114.42A3.65,3.65,0,0,1,17.62,117a3.62,3.62,0,0,1,2.56,2.56A3.62,3.62,0,0,1,22.74,117a3.65,3.65,0,0,1-2.56-2.57"/><path class="cls-6" d="M25.31,114.42A3.66,3.66,0,0,1,22.74,117a3.63,3.63,0,0,1,2.57,2.56A3.6,3.6,0,0,1,27.87,117a3.63,3.63,0,0,1-2.56-2.57"/><path class="cls-6" d="M31.21,115.85h0L31,117.08c0,.32-.08.65-.14,1s-.09.47-.14.7a3.26,3.26,0,0,0-.32.8A3.63,3.63,0,0,0,27.87,117a3.66,3.66,0,0,0,2.57-2.57,3.32,3.32,0,0,0,.77,1.43"/><path class="cls-6" d="M2.24,122.11a3.52,3.52,0,0,0-.51.19c-.09-.16-.16-.32-.24-.48a3.76,3.76,0,0,0,.75.29"/><path class="cls-6" d="M4.8,124.68a3.65,3.65,0,0,1,2.56-2.57,3.62,3.62,0,0,1-2.56-2.56,3.62,3.62,0,0,1-2.56,2.56,3.65,3.65,0,0,1,2.56,2.57"/><path class="cls-6" d="M9.93,124.68a3.65,3.65,0,0,1,2.56-2.57,3.62,3.62,0,0,1-2.56-2.56,3.62,3.62,0,0,1-2.56,2.56,3.65,3.65,0,0,1,2.56,2.57"/><path class="cls-6" d="M15.05,124.68a3.66,3.66,0,0,1,2.57-2.57,3.63,3.63,0,0,1-2.57-2.56,3.6,3.6,0,0,1-2.56,2.56,3.63,3.63,0,0,1,2.56,2.57"/><path class="cls-6" d="M20.18,124.68a3.65,3.65,0,0,1,2.56-2.57,3.62,3.62,0,0,1-2.56-2.56,3.62,3.62,0,0,1-2.56,2.56,3.65,3.65,0,0,1,2.56,2.57"/><path class="cls-6" d="M25.31,124.68a3.63,3.63,0,0,1,2.56-2.57,3.6,3.6,0,0,1-2.56-2.56,3.63,3.63,0,0,1-2.57,2.56,3.66,3.66,0,0,1,2.57,2.57"/><path class="cls-6" d="M30.49,119.71h0a14.14,14.14,0,0,1-1.29,3.07,3.58,3.58,0,0,0-1.33-.68,3.63,3.63,0,0,0,2.57-2.56,1,1,0,0,0,0,.16"/><path class="cls-6" d="M7.37,127.24a3.6,3.6,0,0,0-1.07.49,14.7,14.7,0,0,1-2.08-1.86,3.38,3.38,0,0,0,.58-1.19,3.65,3.65,0,0,0,2.57,2.56"/><path class="cls-6" d="M9.93,129.8a3.64,3.64,0,0,1,2.56-2.56,3.64,3.64,0,0,1-2.56-2.56,3.64,3.64,0,0,1-2.56,2.56,3.64,3.64,0,0,1,2.56,2.56"/><path class="cls-6" d="M15.05,129.8a3.65,3.65,0,0,1,2.57-2.56,3.65,3.65,0,0,1-2.57-2.56,3.62,3.62,0,0,1-2.56,2.56,3.62,3.62,0,0,1,2.56,2.56"/><path class="cls-6" d="M20.18,129.8a3.64,3.64,0,0,1,2.56-2.56,3.64,3.64,0,0,1-2.56-2.56,3.64,3.64,0,0,1-2.56,2.56,3.64,3.64,0,0,1,2.56,2.56"/><path class="cls-6" d="M26.41,126.44a15.38,15.38,0,0,1-2.09,1.7,3.48,3.48,0,0,0-1.57-.9,3.64,3.64,0,0,0,2.56-2.56,3.56,3.56,0,0,0,1.1,1.76"/><path class="cls-6" d="M15.52,130.82c-.3,0-.6,0-.9,0a3.46,3.46,0,0,0,.44-1,3.36,3.36,0,0,0,.46,1"/><path class="cls-6" d="M20.28,130.1l-.22.07a2.29,2.29,0,0,0,.12-.37c0,.1.06.2.1.3"/><path class="cls-6" d="M24.47,53.45h0l.73,0h.12a11.94,11.94,0,0,1,1.52.18,12.86,12.86,0,0,1,2.88.88c.47.21.86.4,1.21.6l.15.1a9.86,9.86,0,0,1,1,.67.42.42,0,0,0,.08.06l0,0h0l.11.08.06,0a11.7,11.7,0,0,1,2.49,2.57c.11.15.22.29.32.45h0l0,.06a3.21,3.21,0,0,1,.19.31l0,.05a.59.59,0,0,0,.1.17,13.31,13.31,0,0,1,.77,1.57.19.19,0,0,0,0,.07,13.52,13.52,0,0,1,1,4.33v.08a12.87,12.87,0,0,1-.09,2.32l-.35,2.47-.05.37v0l-.62,4.33L36,76.56l-.47,3.29-.41,2.89L35,84l-.54,3.76v0L34.12,90l-.3,2.11v0l-.54,3.73-.12.86-.66,4.66,0,.15-.7,4.89-.05.35-.62,4.4-.17,1.2v0l-.48,3.28v.05l-.17,1.2V117c0,.29-.08.59-.13.88s-.09.45-.13.65-.16.62-.25.9l0,.09a13.4,13.4,0,0,1-1.21,2.87,15,15,0,0,1-4.64,5.09,15.13,15.13,0,0,1-3.81,1.86H20l-.23.07a15,15,0,0,1-4.29.61,8.19,8.19,0,0,1-.87,0,11.63,11.63,0,0,1-1.72-.21,14.3,14.3,0,0,1-2.71-.77l-.08,0a14.73,14.73,0,0,1-3.4-1.9,14.26,14.26,0,0,1-2-1.77,14.79,14.79,0,0,1-2.39-3.43l-.14-.27-.05-.1,0-.07a14.31,14.31,0,0,1-1.1-3.37,15,15,0,0,1-.27-2.82,14.56,14.56,0,0,1,.12-1.87c0-.27.08-.56.13-.84a6.83,6.83,0,0,1,.19-.85l.14-.63.88-3.93.11-.5,1.07-4.77.07-.34v0l.92-4.09.44-2,0-.11.41-1.86.76-3.39.67-3L7,85.89,8,81.3s0,0,0-.06l1-4.66.24-1,.71-3.2.77-3.44.34-1.5L11.68,65,12,63.5A12.47,12.47,0,0,1,12.89,61l0-.1,0-.07a13.33,13.33,0,0,1,2.2-3.29,11.26,11.26,0,0,1,2.07-1.82,11.29,11.29,0,0,1,3-1.55l.36-.12a.3.3,0,0,0,.1,0l.07,0,.06,0a13,13,0,0,1,3.67-.53m0-.75a13.64,13.64,0,0,0-3.88.56,1.84,1.84,0,0,0-.25.09l-.36.12a12.08,12.08,0,0,0-3.19,1.65A12.82,12.82,0,0,0,14.61,57a14.09,14.09,0,0,0-2.32,3.48,1.3,1.3,0,0,0-.08.17,14.13,14.13,0,0,0-.92,2.63L11,64.85l-.53,2.37-.34,1.5-.77,3.44L8.6,75.37l-.24,1-1,4.67v0l-1,4.6L6,86.94l-.67,3-.76,3.39-.41,1.87h0L3.7,97.28l-.93,4.13h0l-.07.34-1.07,4.75-.11.51-.88,3.92-.14.64a8.25,8.25,0,0,0-.2.89c0,.29-.1.59-.13.88a14.41,14.41,0,0,0-.13,2,15.31,15.31,0,0,0,.29,3,15.06,15.06,0,0,0,1.16,3.55h0c.08.16.15.32.24.48a15.46,15.46,0,0,0,2.49,3.57,14.7,14.7,0,0,0,2.08,1.86,15.13,15.13,0,0,0,3.61,2h0a15,15,0,0,0,2.85.81,14.34,14.34,0,0,0,1.82.22c.3,0,.6,0,.9,0a15.92,15.92,0,0,0,4.54-.65l.22-.07h0a15.68,15.68,0,0,0,4-2,15.38,15.38,0,0,0,2.09-1.7,14.74,14.74,0,0,0,2.79-3.65,14.14,14.14,0,0,0,1.29-3.07h0c.11-.32.19-.63.27-1s.1-.47.14-.7.1-.65.14-1l.17-1.22h0l.48-3.32h0l.17-1.2.62-4.4.05-.34.7-4.9,0-.16.66-4.65L34,96l.54-3.76h0l.3-2.11.31-2.24h0l.54-3.76.18-1.28L36.31,80l.47-3.28L37,75.41l.62-4.36h0l.05-.37L38,68.2a14.5,14.5,0,0,0,.09-2.46v0a14.16,14.16,0,0,0-1-4.61h0a13.31,13.31,0,0,0-.87-1.78.22.22,0,0,1,0-.08c-.09-.15-.17-.29-.27-.44s0,0,0,0a6,6,0,0,0-.36-.52,12.51,12.51,0,0,0-2.63-2.71l0,0-.21-.15,0,0a8.55,8.55,0,0,0-1.14-.74l-.06,0A14.19,14.19,0,0,0,30,53.85,14,14,0,0,0,27,52.92a12.83,12.83,0,0,0-1.61-.19h-.12l-.78,0"/><path class="cls-5" d="M74.62,116.75h0l-.15.38-1.76,4.32-1.28,3.16L71,125.69l-.87,2.15-1.76,4.33-.19.48L66.81,136l-1.13,2.79L65,140.47a4.7,4.7,0,0,1-4.95,2.9,3.56,3.56,0,0,1-.62-.12L58,142.87,54.75,142l-3.31-.88-.84-.22L46,139.67l-.29-.08h0l-4.08-1.08h0l-2.69-.72h0l-.9-.24-3.43-.92-3.82-1h0l-.47-.13-4.65-1.23-.62-.17-3.63-1L18,132.24l-1.47-.39h0l-2.24-.6-2.3-.61a8.13,8.13,0,0,1-.88-.25c-.37-.11-.73-.23-1.08-.37L9.87,130a15.7,15.7,0,0,1-3.76-2.11,15.88,15.88,0,0,1-4.51-5.5c-.11-.21-.21-.43-.3-.65a15,15,0,0,1-1-3.37,14,14,0,0,1-.26-3.1H0a12.91,12.91,0,0,1,.14-1.85,12.47,12.47,0,0,1,.27-1.46c.08-.32.16-.64.26-1a15.37,15.37,0,0,1,1.94-4.11l.25-.36h0a15,15,0,0,1,1.87-2.18h0a.12.12,0,0,0,.05-.05h0a16.22,16.22,0,0,1,3.23-2.36,15.53,15.53,0,0,1,2.81-1.2h0a15.39,15.39,0,0,1,3.77-.69c.26,0,.53,0,.79,0a15.92,15.92,0,0,1,2.74.23c.32.06.64.11,1,.19l.31.06,1.79.34,2.4.46,3.49.67,2.09.41,2,.39,4,.77.5.1,4.79.92.23,0h0l4.41.85,1.41.27,2.86.55,3.55.69h0l1.42.27,2.55.49,3.77.72.72.14,4.76.91.09,0,4.61.89.17,0a4.28,4.28,0,0,1,1,.33h0a4.63,4.63,0,0,1,1.48,1l.16.18a4.67,4.67,0,0,1,.79,4.83"/><path class="cls-6" d="M12.49,101.61a3.62,3.62,0,0,0-2.56,2.56,3.63,3.63,0,0,0-1.87-2.3,15.53,15.53,0,0,1,2.81-1.2h0a3.64,3.64,0,0,0,1.61.94"/><path class="cls-6" d="M17.62,101.61a3.6,3.6,0,0,0-2.56,2.56,3.63,3.63,0,0,0-2.57-2.56A3.67,3.67,0,0,0,14.65,100c.26,0,.53,0,.79,0a3.62,3.62,0,0,0,2.18,1.66"/><path class="cls-6" d="M22.75,101.61a3.63,3.63,0,0,0-2.57,2.56,3.6,3.6,0,0,0-2.56-2.56,3.6,3.6,0,0,0,1.83-1.18l1.79.34a3.68,3.68,0,0,0,1.51.84"/><path class="cls-6" d="M27.13,101.9a3.61,3.61,0,0,0-1.82,2.27,3.62,3.62,0,0,0-2.56-2.56,3.37,3.37,0,0,0,.89-.38Z"/><path class="cls-6" d="M31.25,102.7a3.43,3.43,0,0,0-.81,1.47,3.49,3.49,0,0,0-1.22-1.86Z"/><path class="cls-6" d="M35.79,103.57a3.1,3.1,0,0,0-.23.6,2.82,2.82,0,0,0-.27-.7Z"/><path class="cls-6" d="M4.8,104.17a3.62,3.62,0,0,1-2.56,2.56A3.65,3.65,0,0,1,4.8,109.3a3.65,3.65,0,0,1,2.56-2.57,3.62,3.62,0,0,1-2.56-2.56"/><path class="cls-6" d="M9.93,104.17a3.62,3.62,0,0,1-2.56,2.56,3.65,3.65,0,0,1,2.56,2.57,3.65,3.65,0,0,1,2.56-2.57,3.62,3.62,0,0,1-2.56-2.56"/><path class="cls-6" d="M15.05,104.17a3.6,3.6,0,0,1-2.56,2.56,3.63,3.63,0,0,1,2.56,2.57,3.66,3.66,0,0,1,2.57-2.57,3.63,3.63,0,0,1-2.57-2.56"/><path class="cls-6" d="M20.18,104.17a3.62,3.62,0,0,1-2.56,2.56,3.65,3.65,0,0,1,2.56,2.57,3.65,3.65,0,0,1,2.56-2.57,3.62,3.62,0,0,1-2.56-2.56"/><path class="cls-6" d="M25.31,104.17a3.63,3.63,0,0,1-2.57,2.56,3.66,3.66,0,0,1,2.57,2.57,3.63,3.63,0,0,1,2.56-2.57,3.6,3.6,0,0,1-2.56-2.56"/><path class="cls-6" d="M30.43,104.17a3.6,3.6,0,0,1-2.56,2.56,3.63,3.63,0,0,1,2.56,2.57A3.66,3.66,0,0,1,33,106.73a3.63,3.63,0,0,1-2.57-2.56"/><path class="cls-6" d="M35.56,104.17A3.62,3.62,0,0,1,33,106.73a3.65,3.65,0,0,1,2.56,2.57,3.65,3.65,0,0,1,2.56-2.57,3.62,3.62,0,0,1-2.56-2.56"/><path class="cls-6" d="M43.25,106.73a3.65,3.65,0,0,0-2.56,2.57,3.65,3.65,0,0,0-2.56-2.57,3.58,3.58,0,0,0,2.45-2.24,1.73,1.73,0,0,0,.11-.32,2.53,2.53,0,0,0,.12.36h0a3.55,3.55,0,0,0,2.43,2.2"/><path class="cls-6" d="M48.38,106.73a3.63,3.63,0,0,0-2.56,2.57,3.66,3.66,0,0,0-2.57-2.57,3.54,3.54,0,0,0,2-1.35l1.41.27a3.4,3.4,0,0,0,1.74,1.08"/><path class="cls-6" d="M53.05,106.89a3.66,3.66,0,0,0-2.11,2.41,3.63,3.63,0,0,0-2.56-2.57,3.3,3.3,0,0,0,1.12-.53Z"/><path class="cls-6" d="M57,107.65a3.72,3.72,0,0,0-1,1.65,3.67,3.67,0,0,0-1.59-2.14Z"/><path class="cls-6" d="M61.52,108.51a3.19,3.19,0,0,0-.32.79,3.68,3.68,0,0,0-.4-.93Z"/><path class="cls-6" d="M2.24,111.86a3.63,3.63,0,0,0-2.09,1.52,12.47,12.47,0,0,1,.27-1.46c.08-.32.16-.64.26-1a3.58,3.58,0,0,0,1.56.89"/><path class="cls-6" d="M4.8,109.3a3.62,3.62,0,0,1-2.56,2.56,3.63,3.63,0,0,1,2.56,2.57,3.63,3.63,0,0,1,2.56-2.57A3.62,3.62,0,0,1,4.8,109.3"/><path class="cls-6" d="M9.93,109.3a3.62,3.62,0,0,1-2.56,2.56,3.63,3.63,0,0,1,2.56,2.57,3.63,3.63,0,0,1,2.56-2.57,3.62,3.62,0,0,1-2.56-2.56"/><path class="cls-6" d="M15.05,109.3a3.6,3.6,0,0,1-2.56,2.56,3.62,3.62,0,0,1,2.56,2.57,3.65,3.65,0,0,1,2.57-2.57,3.63,3.63,0,0,1-2.57-2.56"/><path class="cls-6" d="M20.18,109.3a3.62,3.62,0,0,1-2.56,2.56,3.63,3.63,0,0,1,2.56,2.57,3.63,3.63,0,0,1,2.56-2.57,3.62,3.62,0,0,1-2.56-2.56"/><path class="cls-6" d="M25.31,109.3a3.63,3.63,0,0,1-2.57,2.56,3.65,3.65,0,0,1,2.57,2.57,3.62,3.62,0,0,1,2.56-2.57,3.6,3.6,0,0,1-2.56-2.56"/><path class="cls-6" d="M30.43,109.3a3.6,3.6,0,0,1-2.56,2.56,3.62,3.62,0,0,1,2.56,2.57A3.65,3.65,0,0,1,33,111.86a3.63,3.63,0,0,1-2.57-2.56"/><path class="cls-6" d="M35.56,109.3A3.62,3.62,0,0,1,33,111.86a3.63,3.63,0,0,1,2.56,2.57,3.63,3.63,0,0,1,2.56-2.57,3.62,3.62,0,0,1-2.56-2.56"/><path class="cls-6" d="M40.69,109.3a3.63,3.63,0,0,1-2.57,2.56,3.65,3.65,0,0,1,2.57,2.57,3.62,3.62,0,0,1,2.56-2.57,3.6,3.6,0,0,1-2.56-2.56"/><path class="cls-6" d="M45.81,109.3a3.6,3.6,0,0,1-2.56,2.56,3.62,3.62,0,0,1,2.56,2.57,3.65,3.65,0,0,1,2.57-2.57,3.63,3.63,0,0,1-2.57-2.56"/><path class="cls-6" d="M48.38,111.86a3.64,3.64,0,0,1,2.56,2.56,3.64,3.64,0,0,1,2.56-2.56,3.64,3.64,0,0,1-2.56-2.56,3.64,3.64,0,0,1-2.56,2.56"/><path class="cls-6" d="M53.5,111.86a3.65,3.65,0,0,1,2.57,2.56,3.62,3.62,0,0,1,2.56-2.56,3.62,3.62,0,0,1-2.56-2.56,3.65,3.65,0,0,1-2.57,2.56"/><path class="cls-6" d="M63.76,111.86a3.65,3.65,0,0,1-2.57-2.56,3.62,3.62,0,0,1-2.56,2.56,3.62,3.62,0,0,1,2.56,2.56,3.65,3.65,0,0,1,2.57-2.56"/><path class="cls-6" d="M63.76,111.86a3.64,3.64,0,0,1,2.56,2.56,3.64,3.64,0,0,1,2.56-2.56,3.64,3.64,0,0,1-2.56-2.56,3.64,3.64,0,0,1-2.56,2.56"/><path class="cls-6" d="M74,111.86a1.27,1.27,0,0,0-.18.06,3.6,3.6,0,0,0-2.38,2.5,3.64,3.64,0,0,0-2.56-2.56A3.58,3.58,0,0,0,71,110.33l.17,0a4.28,4.28,0,0,1,1,.33h0a3.41,3.41,0,0,0,1.48,1,2,2,0,0,0,.34.12"/><path class="cls-6" d="M2.24,117a3.48,3.48,0,0,0-2,1.35,14,14,0,0,1-.26-3.1A3.64,3.64,0,0,0,2.24,117"/><path class="cls-6" d="M4.8,114.42A3.65,3.65,0,0,1,2.24,117a3.62,3.62,0,0,1,2.56,2.56A3.62,3.62,0,0,1,7.36,117a3.65,3.65,0,0,1-2.56-2.57"/><path class="cls-6" d="M9.93,114.42A3.65,3.65,0,0,1,7.37,117a3.62,3.62,0,0,1,2.56,2.56A3.62,3.62,0,0,1,12.49,117a3.65,3.65,0,0,1-2.56-2.57"/><path class="cls-6" d="M15.05,114.42A3.63,3.63,0,0,1,12.49,117a3.6,3.6,0,0,1,2.56,2.56A3.63,3.63,0,0,1,17.62,117a3.66,3.66,0,0,1-2.57-2.57"/><path class="cls-6" d="M20.18,114.42A3.65,3.65,0,0,1,17.62,117a3.62,3.62,0,0,1,2.56,2.56A3.62,3.62,0,0,1,22.74,117a3.65,3.65,0,0,1-2.56-2.57"/><path class="cls-6" d="M25.31,114.42A3.66,3.66,0,0,1,22.74,117a3.63,3.63,0,0,1,2.57,2.56A3.6,3.6,0,0,1,27.87,117a3.63,3.63,0,0,1-2.56-2.57"/><path class="cls-6" d="M30.43,114.42A3.63,3.63,0,0,1,27.87,117a3.6,3.6,0,0,1,2.56,2.56A3.63,3.63,0,0,1,33,117a3.66,3.66,0,0,1-2.57-2.57"/><path class="cls-6" d="M35.56,114.42A3.65,3.65,0,0,1,33,117a3.62,3.62,0,0,1,2.56,2.56A3.62,3.62,0,0,1,38.12,117a3.65,3.65,0,0,1-2.56-2.57"/><path class="cls-6" d="M40.69,114.42A3.66,3.66,0,0,1,38.12,117a3.63,3.63,0,0,1,2.57,2.56A3.6,3.6,0,0,1,43.25,117a3.63,3.63,0,0,1-2.56-2.57"/><path class="cls-6" d="M45.81,114.42A3.63,3.63,0,0,1,43.25,117a3.6,3.6,0,0,1,2.56,2.56A3.63,3.63,0,0,1,48.38,117a3.66,3.66,0,0,1-2.57-2.57"/><path class="cls-6" d="M50.94,114.42A3.65,3.65,0,0,1,48.38,117a3.62,3.62,0,0,1,2.56,2.56A3.62,3.62,0,0,1,53.5,117a3.65,3.65,0,0,1-2.56-2.57"/><path class="cls-6" d="M53.5,117a3.65,3.65,0,0,1,2.57,2.56A3.62,3.62,0,0,1,58.63,117a3.62,3.62,0,0,1-2.56-2.56A3.65,3.65,0,0,1,53.5,117"/><path class="cls-6" d="M61.19,114.42A3.63,3.63,0,0,1,58.63,117a3.6,3.6,0,0,1,2.56,2.56A3.63,3.63,0,0,1,63.76,117a3.66,3.66,0,0,1-2.57-2.57"/><path class="cls-6" d="M66.32,114.42A3.65,3.65,0,0,1,63.76,117a3.62,3.62,0,0,1,2.56,2.56A3.62,3.62,0,0,1,68.88,117a3.65,3.65,0,0,1-2.56-2.57"/><path class="cls-6" d="M68.88,117a3.65,3.65,0,0,1,2.57,2.56A3.62,3.62,0,0,1,74,117a3.62,3.62,0,0,1-2.56-2.56A3.65,3.65,0,0,1,68.88,117"/><path class="cls-6" d="M74.62,116.76l-.15.38A3.53,3.53,0,0,0,74,117a3.19,3.19,0,0,0,.61-.23"/><path class="cls-6" d="M2.24,122.11a2.93,2.93,0,0,0-.64.25c-.11-.21-.21-.43-.3-.65a3.42,3.42,0,0,0,.94.4"/><path class="cls-6" d="M4.8,124.68a3.65,3.65,0,0,1,2.56-2.57,3.62,3.62,0,0,1-2.56-2.56,3.62,3.62,0,0,1-2.56,2.56,3.65,3.65,0,0,1,2.56,2.57"/><path class="cls-6" d="M9.93,124.68a3.65,3.65,0,0,1,2.56-2.57,3.62,3.62,0,0,1-2.56-2.56,3.62,3.62,0,0,1-2.56,2.56,3.65,3.65,0,0,1,2.56,2.57"/><path class="cls-6" d="M15.05,124.68a3.66,3.66,0,0,1,2.57-2.57,3.63,3.63,0,0,1-2.57-2.56,3.6,3.6,0,0,1-2.56,2.56,3.63,3.63,0,0,1,2.56,2.57"/><path class="cls-6" d="M20.18,124.68a3.65,3.65,0,0,1,2.56-2.57,3.62,3.62,0,0,1-2.56-2.56,3.62,3.62,0,0,1-2.56,2.56,3.65,3.65,0,0,1,2.56,2.57"/><path class="cls-6" d="M25.31,124.68a3.63,3.63,0,0,1,2.56-2.57,3.6,3.6,0,0,1-2.56-2.56,3.63,3.63,0,0,1-2.57,2.56,3.66,3.66,0,0,1,2.57,2.57"/><path class="cls-6" d="M30.43,124.68A3.66,3.66,0,0,1,33,122.11a3.63,3.63,0,0,1-2.57-2.56,3.6,3.6,0,0,1-2.56,2.56,3.63,3.63,0,0,1,2.56,2.57"/><path class="cls-6" d="M35.56,124.68a3.65,3.65,0,0,1,2.56-2.57,3.62,3.62,0,0,1-2.56-2.56A3.62,3.62,0,0,1,33,122.11a3.65,3.65,0,0,1,2.56,2.57"/><path class="cls-6" d="M40.69,124.68a3.63,3.63,0,0,1,2.56-2.57,3.6,3.6,0,0,1-2.56-2.56,3.63,3.63,0,0,1-2.57,2.56,3.66,3.66,0,0,1,2.57,2.57"/><path class="cls-6" d="M45.81,124.68a3.66,3.66,0,0,1,2.57-2.57,3.63,3.63,0,0,1-2.57-2.56,3.6,3.6,0,0,1-2.56,2.56,3.63,3.63,0,0,1,2.56,2.57"/><path class="cls-6" d="M50.94,124.68a3.65,3.65,0,0,1,2.56-2.57,3.62,3.62,0,0,1-2.56-2.56,3.62,3.62,0,0,1-2.56,2.56,3.65,3.65,0,0,1,2.56,2.57"/><path class="cls-6" d="M56.07,124.68a3.63,3.63,0,0,1,2.56-2.57,3.6,3.6,0,0,1-2.56-2.56,3.63,3.63,0,0,1-2.57,2.56,3.66,3.66,0,0,1,2.57,2.57"/><path class="cls-6" d="M63.76,122.11a3.63,3.63,0,0,1-2.57-2.56,3.6,3.6,0,0,1-2.56,2.56,3.63,3.63,0,0,1,2.56,2.57,3.66,3.66,0,0,1,2.57-2.57"/><path class="cls-6" d="M66.32,124.68a3.65,3.65,0,0,1,2.56-2.57,3.62,3.62,0,0,1-2.56-2.56,3.62,3.62,0,0,1-2.56,2.56,3.65,3.65,0,0,1,2.56,2.57"/><path class="cls-6" d="M72.71,121.46l-1.28,3.16a3.63,3.63,0,0,0-2.54-2.51,3.62,3.62,0,0,0,2.56-2.56,3.69,3.69,0,0,0,1.26,1.91"/><path class="cls-6" d="M7.37,127.24a3.8,3.8,0,0,0-1.26.62,15.21,15.21,0,0,1-2-1.84,3.42,3.42,0,0,0,.69-1.34,3.65,3.65,0,0,0,2.57,2.56"/><path class="cls-6" d="M9.93,129.8a3.64,3.64,0,0,1,2.56-2.56,3.64,3.64,0,0,1-2.56-2.56,3.64,3.64,0,0,1-2.56,2.56,3.64,3.64,0,0,1,2.56,2.56"/><path class="cls-6" d="M15.05,129.8a3.65,3.65,0,0,1,2.57-2.56,3.65,3.65,0,0,1-2.57-2.56,3.62,3.62,0,0,1-2.56,2.56,3.62,3.62,0,0,1,2.56,2.56"/><path class="cls-6" d="M20.18,129.8a3.64,3.64,0,0,1,2.56-2.56,3.64,3.64,0,0,1-2.56-2.56,3.64,3.64,0,0,1-2.56,2.56,3.64,3.64,0,0,1,2.56,2.56"/><path class="cls-6" d="M25.31,129.8a3.62,3.62,0,0,1,2.56-2.56,3.62,3.62,0,0,1-2.56-2.56,3.65,3.65,0,0,1-2.57,2.56,3.65,3.65,0,0,1,2.57,2.56"/><path class="cls-6" d="M30.43,129.8A3.65,3.65,0,0,1,33,127.24a3.65,3.65,0,0,1-2.57-2.56,3.62,3.62,0,0,1-2.56,2.56,3.62,3.62,0,0,1,2.56,2.56"/><path class="cls-6" d="M35.56,129.8a3.64,3.64,0,0,1,2.56-2.56,3.64,3.64,0,0,1-2.56-2.56A3.64,3.64,0,0,1,33,127.24a3.64,3.64,0,0,1,2.56,2.56"/><path class="cls-6" d="M40.69,129.8a3.62,3.62,0,0,1,2.56-2.56,3.62,3.62,0,0,1-2.56-2.56,3.65,3.65,0,0,1-2.57,2.56,3.65,3.65,0,0,1,2.57,2.56"/><path class="cls-6" d="M45.81,129.8a3.65,3.65,0,0,1,2.57-2.56,3.65,3.65,0,0,1-2.57-2.56,3.62,3.62,0,0,1-2.56,2.56,3.62,3.62,0,0,1,2.56,2.56"/><path class="cls-6" d="M50.94,129.8a3.64,3.64,0,0,1,2.56-2.56,3.64,3.64,0,0,1-2.56-2.56,3.64,3.64,0,0,1-2.56,2.56,3.64,3.64,0,0,1,2.56,2.56"/><path class="cls-6" d="M53.5,127.24a3.65,3.65,0,0,1,2.57,2.56,3.62,3.62,0,0,1,2.56-2.56,3.62,3.62,0,0,1-2.56-2.56,3.65,3.65,0,0,1-2.57,2.56"/><path class="cls-6" d="M63.76,127.24a3.65,3.65,0,0,1-2.57-2.56,3.62,3.62,0,0,1-2.56,2.56,3.62,3.62,0,0,1,2.56,2.56,3.65,3.65,0,0,1,2.57-2.56"/><path class="cls-6" d="M68.88,127.24a3.64,3.64,0,0,1-2.56-2.56,3.64,3.64,0,0,1-2.56,2.56,3.64,3.64,0,0,1,2.56,2.56,3.64,3.64,0,0,1,2.56-2.56"/><path class="cls-6" d="M71,125.69l-.87,2.15a3.61,3.61,0,0,0-1.23-.6,3.57,3.57,0,0,0,2.1-1.55"/><path class="cls-6" d="M10,130,9.87,130a1.15,1.15,0,0,0,.06-.17A1,1,0,0,0,10,130"/><path class="cls-6" d="M16.51,131.85l-2.24-.6a3.54,3.54,0,0,0,.79-1.45,3.58,3.58,0,0,0,1.45,2"/><path class="cls-6" d="M22.75,132.37a3.43,3.43,0,0,0-1.42.76L18,132.24a3.62,3.62,0,0,0,2.19-2.44,3.66,3.66,0,0,0,2.57,2.57"/><path class="cls-6" d="M27.87,132.37a3.54,3.54,0,0,0-2.29,1.89l-.62-.17a3.58,3.58,0,0,0-2.21-1.72,3.65,3.65,0,0,0,2.56-2.57,3.65,3.65,0,0,0,2.56,2.57"/><path class="cls-6" d="M30.43,129.8a3.63,3.63,0,0,1-2.56,2.57,3.6,3.6,0,0,1,2.56,2.56A3.63,3.63,0,0,1,33,132.37a3.66,3.66,0,0,1-2.57-2.57"/><path class="cls-6" d="M35.56,129.8A3.65,3.65,0,0,1,33,132.37a3.62,3.62,0,0,1,2.56,2.56,3.62,3.62,0,0,1,2.56-2.56,3.65,3.65,0,0,1-2.56-2.57"/><path class="cls-6" d="M40.69,129.8a3.66,3.66,0,0,1-2.57,2.57,3.63,3.63,0,0,1,2.57,2.56,3.6,3.6,0,0,1,2.56-2.56,3.63,3.63,0,0,1-2.56-2.57"/><path class="cls-6" d="M45.81,129.8a3.63,3.63,0,0,1-2.56,2.57,3.6,3.6,0,0,1,2.56,2.56,3.63,3.63,0,0,1,2.57-2.56,3.66,3.66,0,0,1-2.57-2.57"/><path class="cls-6" d="M50.94,129.8a3.65,3.65,0,0,1-2.56,2.57,3.62,3.62,0,0,1,2.56,2.56,3.62,3.62,0,0,1,2.56-2.56,3.65,3.65,0,0,1-2.56-2.57"/><path class="cls-6" d="M53.5,132.37a3.63,3.63,0,0,1,2.57,2.56,3.6,3.6,0,0,1,2.56-2.56,3.63,3.63,0,0,1-2.56-2.57,3.66,3.66,0,0,1-2.57,2.57"/><path class="cls-6" d="M58.63,132.37a3.6,3.6,0,0,1,2.56,2.56,3.63,3.63,0,0,1,2.57-2.56,3.66,3.66,0,0,1-2.57-2.57,3.63,3.63,0,0,1-2.56,2.57"/><path class="cls-6" d="M68.36,132.17a3.62,3.62,0,0,1-2-2.37,3.63,3.63,0,0,1-2.56,2.57,3.6,3.6,0,0,1,2.56,2.56,3.62,3.62,0,0,1,1.85-2.28Z"/><path class="cls-6" d="M30.7,135.62l-.47-.13a2.92,2.92,0,0,0,.21-.56,3.38,3.38,0,0,0,.26.69"/><path class="cls-6" d="M38.13,137.49l-.17.06-3.43-.92a3.5,3.5,0,0,0,1-1.7,3.63,3.63,0,0,0,2.57,2.56"/><path class="cls-6" d="M43.25,137.49a3.54,3.54,0,0,0-1.68,1h0l-2.69-.72h0a3.12,3.12,0,0,0-.73-.3,3.62,3.62,0,0,0,2.56-2.56,3.62,3.62,0,0,0,2.56,2.56"/><path class="cls-6" d="M46,139.67a3.61,3.61,0,0,1,2.43-2.18,3.6,3.6,0,0,1-2.56-2.56,3.63,3.63,0,0,1-2.57,2.56,3.65,3.65,0,0,1,2.4,2.1h0Z"/><path class="cls-6" d="M50.94,140.06a3.65,3.65,0,0,1,2.56-2.57,3.62,3.62,0,0,1-2.56-2.56,3.62,3.62,0,0,1-2.56,2.56,3.65,3.65,0,0,1,2.56,2.57"/><path class="cls-6" d="M56.07,140.06a3.63,3.63,0,0,1,2.56-2.57,3.6,3.6,0,0,1-2.56-2.56,3.63,3.63,0,0,1-2.57,2.56,3.66,3.66,0,0,1,2.57,2.57"/><path class="cls-6" d="M63.76,137.49a3.63,3.63,0,0,1-2.57-2.56,3.6,3.6,0,0,1-2.56,2.56,3.63,3.63,0,0,1,2.56,2.57,3.66,3.66,0,0,1,2.57-2.57"/><path class="cls-6" d="M66.81,136l-1.13,2.79a3.57,3.57,0,0,0-1.92-1.29,3.6,3.6,0,0,0,2.56-2.56,3.41,3.41,0,0,0,.49,1.06"/><path class="cls-6" d="M51.44,141.13l-.84-.22a4,4,0,0,0,.34-.85,3.39,3.39,0,0,0,.5,1.07"/><path class="cls-6" d="M58.63,142.62a2.93,2.93,0,0,0-.64.25L54.75,142a3.7,3.7,0,0,0,1.32-1.95,3.64,3.64,0,0,0,2.56,2.56"/><path class="cls-6" d="M63.41,142.5a4.65,4.65,0,0,1-3.37.87,3.5,3.5,0,0,0-1.41-.75,3.65,3.65,0,0,0,2.57-2.56,3.6,3.6,0,0,0,2.21,2.44"/><path class="cls-6" d="M15.44,100.7a14.63,14.63,0,0,1,2.6.22l.24,0c.23,0,.45.08.71.15l.32.06,1.79.34,2.4.46,3.48.67,2.09.41,2,.39,4,.77.51.1,4.8.92.23,0h0l4.38.84,1.4.27,2.86.55,3.55.69H53l1.38.26,2.56.49,3.76.72.73.14,4.73.9.11,0,4.63.89.16,0a4,4,0,0,1,.85.27l.08,0a4,4,0,0,1,1.2.87l.12.14a3.93,3.93,0,0,1,.66,4.06.19.19,0,0,0,0,.07l-.13.32L72,121.18l-1.28,3.16-.44,1.07-.87,2.15-1.76,4.34-.19.47-1.36,3.34L65,138.5l-.69,1.69A3.94,3.94,0,0,1,63,141.9a3.88,3.88,0,0,1-2.32.76l-.53,0a3.4,3.4,0,0,1-.5-.1l-1.43-.38-3.24-.86-3.31-.88-.84-.22L46.15,139l-.29-.08-.07,0-4-1.06-.06,0-2.64-.7-.06,0-.85-.22-3.43-.92-3.82-1h0l-.43-.12-4.65-1.23-.62-.17-3.63-1-3.34-.89-1.47-.39-.06,0-2.19-.58-2.33-.62a7.57,7.57,0,0,1-.83-.24c-.38-.11-.72-.23-1-.34l-.1,0,0,0a14.84,14.84,0,0,1-3.57-2,13.69,13.69,0,0,1-1.91-1.76,14.31,14.31,0,0,1-2.4-3.5c-.09-.17-.18-.37-.28-.6a14.52,14.52,0,0,1-1-3.21,13.44,13.44,0,0,1-.24-3,14.09,14.09,0,0,1,.39-3.14q.1-.45.24-.9a14.93,14.93,0,0,1,1.85-3.91l.2-.3s0,0,.05,0a13.85,13.85,0,0,1,1.77-2.07l.11-.11A15,15,0,0,1,11,101.4h.06a14.92,14.92,0,0,1,3.6-.66l.74,0m0-.75c-.26,0-.53,0-.79,0a15.39,15.39,0,0,0-3.77.69h0a15.53,15.53,0,0,0-2.81,1.2,16.33,16.33,0,0,0-3.24,2.37.34.34,0,0,1-.06.06h0a15,15,0,0,0-1.87,2.18h0l-.25.36A15.37,15.37,0,0,0,.68,111c-.1.31-.18.63-.26,1a12.47,12.47,0,0,0-.27,1.46A12.91,12.91,0,0,0,0,115.23H0a14,14,0,0,0,.26,3.1,15,15,0,0,0,1,3.37c.09.22.19.44.3.65a15.88,15.88,0,0,0,4.51,5.5A15.7,15.7,0,0,0,9.87,130L10,130c.35.14.71.26,1.08.37a8.13,8.13,0,0,0,.88.25l2.3.61,2.24.6h0l1.47.39,3.34.89,3.63,1,.62.17,4.65,1.23.47.13h0l3.82,1,3.43.92.9.24h0l2.69.72h0l4.08,1.08h0l.29.08,4.65,1.24.84.22,3.31.88,3.24.86,1.43.38a3.56,3.56,0,0,0,.62.12,4,4,0,0,0,.6,0,4.71,4.71,0,0,0,2.77-.91,4.64,4.64,0,0,0,1.58-2l.69-1.69L66.81,136l1.36-3.34.19-.48,1.76-4.33.87-2.15.44-1.07,1.28-3.16,1.76-4.32.15-.38h0a4.67,4.67,0,0,0-.79-4.83l-.16-.18a4.63,4.63,0,0,0-1.48-1h0a4.28,4.28,0,0,0-1-.33l-.17,0-4.61-.89-.09,0-4.76-.91-.72-.14L57,107.65l-2.55-.49-1.42-.27h0l-3.55-.69-2.86-.55-1.41-.27-4.41-.85h0l-.23,0-4.79-.92-.5-.1-4-.77-2-.39-2.09-.41-3.49-.67-2.4-.46-1.79-.34-.31-.06c-.32-.08-.64-.13-1-.19a15.92,15.92,0,0,0-2.74-.23"/></g></g></svg>