<svg xmlns="http://www.w3.org/2000/svg" xmlns:xlink="http://www.w3.org/1999/xlink" viewBox="0 0 119.5 178.51"><defs><style>.cls-1{fill:none;}.cls-2{clip-path:url(#clip-path);}.cls-3{fill:#0000ce;}.cls-3,.cls-9{opacity:0.5;}.cls-4{fill:#b58e64;}.cls-5{fill:#724f33;}.cls-6{fill:#89623f;}.cls-7{fill:#a07952;}.cls-8{fill:#fff;}.cls-10{clip-path:url(#clip-path-2);}.cls-11{fill:#0600ff;}.cls-12{clip-path:url(#clip-path-3);}.cls-13{clip-path:url(#clip-path-4);}.cls-14{clip-path:url(#clip-path-5);}.cls-15{clip-path:url(#clip-path-6);}.cls-16{clip-path:url(#clip-path-7);}.cls-17{clip-path:url(#clip-path-8);}.cls-18{clip-path:url(#clip-path-9);}.cls-19{clip-path:url(#clip-path-10);}.cls-20{clip-path:url(#clip-path-11);}.cls-21{clip-path:url(#clip-path-12);}.cls-22{clip-path:url(#clip-path-13);}.cls-23{clip-path:url(#clip-path-14);}.cls-24{clip-path:url(#clip-path-15);}.cls-25{clip-path:url(#clip-path-16);}.cls-26{clip-path:url(#clip-path-17);}.cls-27{clip-path:url(#clip-path-18);}.cls-28{clip-path:url(#clip-path-19);}.cls-29{clip-path:url(#clip-path-20);}.cls-30{clip-path:url(#clip-path-21);}.cls-31{clip-path:url(#clip-path-22);}.cls-32{clip-path:url(#clip-path-23);}.cls-33{clip-path:url(#clip-path-24);}.cls-34{clip-path:url(#clip-path-25);}.cls-35{opacity:0.2;}.cls-36{clip-path:url(#clip-path-26);}.cls-37{clip-path:url(#clip-path-27);}.cls-38{clip-path:url(#clip-path-28);}.cls-39{clip-path:url(#clip-path-29);}.cls-40{clip-path:url(#clip-path-30);}.cls-41{clip-path:url(#clip-path-31);}.cls-42{clip-path:url(#clip-path-32);}.cls-43{clip-path:url(#clip-path-33);}.cls-44{clip-path:url(#clip-path-34);}.cls-45{clip-path:url(#clip-path-35);}.cls-46{clip-path:url(#clip-path-36);}.cls-47{clip-path:url(#clip-path-37);}.cls-48{clip-path:url(#clip-path-38);}.cls-49{clip-path:url(#clip-path-39);}.cls-50{clip-path:url(#clip-path-40);}.cls-51{clip-path:url(#clip-path-41);}.cls-52{clip-path:url(#clip-path-42);}.cls-53{clip-path:url(#clip-path-43);}.cls-54{clip-path:url(#clip-path-44);}.cls-55{clip-path:url(#clip-path-45);}.cls-56{clip-path:url(#clip-path-46);}.cls-57{clip-path:url(#clip-path-47);}.cls-58{clip-path:url(#clip-path-48);}.cls-59{clip-path:url(#clip-path-49);}.cls-60{clip-path:url(#clip-path-50);}.cls-61{clip-path:url(#clip-path-51);}.cls-62{clip-path:url(#clip-path-52);}.cls-63{clip-path:url(#clip-path-53);}.cls-64{clip-path:url(#clip-path-54);}.cls-65{clip-path:url(#clip-path-55);}.cls-66{clip-path:url(#clip-path-56);}.cls-67{clip-path:url(#clip-path-57);}.cls-68{clip-path:url(#clip-path-59);}.cls-69{clip-path:url(#clip-path-60);}.cls-70{clip-path:url(#clip-path-61);}.cls-71{fill:url(#Unnamed_Pattern);}.cls-72{fill:#e66e78;}.cls-73{fill:#535354;}</style><clipPath id="clip-path"><rect class="cls-1" width="90.2" height="123.31"/></clipPath><clipPath id="clip-path-2"><rect class="cls-1" x="31.92" y="81.62" width="4.03" height="27.69"/></clipPath><clipPath id="clip-path-3"><rect class="cls-1" x="42.63" y="42.39" width="6.68" height="74.46"/></clipPath><clipPath id="clip-path-4"><rect class="cls-1" x="55.99" y="34.43" width="6.68" height="81.99"/></clipPath><clipPath id="clip-path-5"><rect class="cls-1" x="69.35" y="34.72" width="6.68" height="70.46"/></clipPath><clipPath id="clip-path-6"><rect class="cls-1" x="82.71" y="45.29" width="1.96" height="17.72"/></clipPath><clipPath id="clip-path-7"><rect class="cls-1" x="48.78" y="36.49" width="32.74" height="6.68"/></clipPath><clipPath id="clip-path-8"><rect class="cls-1" x="43.83" y="49.85" width="40.84" height="6.68"/></clipPath><clipPath id="clip-path-9"><rect class="cls-1" x="39.64" y="63.21" width="43.01" height="6.68"/></clipPath><clipPath id="clip-path-10"><rect class="cls-1" x="35.44" y="76.57" width="43.01" height="6.68"/></clipPath><clipPath id="clip-path-11"><rect class="cls-1" x="31.94" y="89.93" width="42.31" height="6.68"/></clipPath><clipPath id="clip-path-12"><rect class="cls-1" x="32.82" y="103.29" width="37.24" height="6.68"/></clipPath><clipPath id="clip-path-13"><rect class="cls-1" x="48.01" y="116.65" width="6.86" height="0.31"/></clipPath><clipPath id="clip-path-14"><rect class="cls-1" x="5.52" y="74.52" width="3.99" height="14.13"/></clipPath><clipPath id="clip-path-15"><rect class="cls-1" x="16.19" y="57.94" width="6.68" height="41.47"/></clipPath><clipPath id="clip-path-16"><rect class="cls-1" x="29.55" y="55.74" width="6.68" height="54.42"/></clipPath><clipPath id="clip-path-17"><rect class="cls-1" x="42.91" y="65.43" width="6.68" height="51.43"/></clipPath><clipPath id="clip-path-18"><rect class="cls-1" x="56.27" y="76.19" width="6.68" height="40.19"/></clipPath><clipPath id="clip-path-19"><rect class="cls-1" x="69.63" y="90.08" width="1.44" height="14.73"/></clipPath><clipPath id="clip-path-20"><rect class="cls-1" x="24.54" y="55.6" width="7.25" height="0.99"/></clipPath><clipPath id="clip-path-21"><rect class="cls-1" x="13.19" y="63.27" width="35.33" height="6.68"/></clipPath><clipPath id="clip-path-22"><rect class="cls-1" x="5.52" y="76.63" width="59.47" height="6.68"/></clipPath><clipPath id="clip-path-23"><rect class="cls-1" x="11.17" y="89.99" width="59.88" height="6.68"/></clipPath><clipPath id="clip-path-24"><rect class="cls-1" x="27.77" y="103.35" width="42.38" height="6.68"/></clipPath><clipPath id="clip-path-25"><rect class="cls-1" x="48.46" y="116.71" width="6.2" height="0.25"/></clipPath><clipPath id="clip-path-26"><rect class="cls-1" x="5.52" y="34.27" width="79.15" height="82.69"/></clipPath><clipPath id="clip-path-27"><rect class="cls-1" x="84.09" y="116.65" width="31.78" height="6.68"/></clipPath><clipPath id="clip-path-28"><rect class="cls-1" x="55.99" y="42.29" width="6.68" height="70.75"/></clipPath><clipPath id="clip-path-29"><rect class="cls-1" x="69.35" y="35.49" width="6.68" height="5.53"/></clipPath><clipPath id="clip-path-30"><rect class="cls-1" x="61.84" y="36.49" width="15.41" height="6.68"/></clipPath><clipPath id="clip-path-31"><rect class="cls-1" x="55.97" y="49.85" width="7" height="6.68"/></clipPath><clipPath id="clip-path-32"><rect class="cls-1" x="55.85" y="63.21" width="6.82" height="6.68"/></clipPath><clipPath id="clip-path-33"><rect class="cls-1" x="55.85" y="76.57" width="6.82" height="6.68"/></clipPath><clipPath id="clip-path-34"><rect class="cls-1" x="55.85" y="89.93" width="6.82" height="6.68"/></clipPath><clipPath id="clip-path-35"><rect class="cls-1" x="55.85" y="103.29" width="6.82" height="6.68"/></clipPath><clipPath id="clip-path-36"><rect class="cls-1" x="74.31" y="50.06" width="1.72" height="63.45"/></clipPath><clipPath id="clip-path-37"><rect class="cls-1" x="82.71" y="36.06" width="6.68" height="77.45"/></clipPath><clipPath id="clip-path-38"><rect class="cls-1" x="96.07" y="42" width="6.68" height="71.46"/></clipPath><clipPath id="clip-path-39"><rect class="cls-1" x="80.31" y="36.49" width="16.88" height="6.68"/></clipPath><clipPath id="clip-path-40"><rect class="cls-1" x="74.43" y="49.85" width="28.63" height="6.68"/></clipPath><clipPath id="clip-path-41"><rect class="cls-1" x="74.31" y="63.21" width="28.87" height="6.68"/></clipPath><clipPath id="clip-path-42"><rect class="cls-1" x="74.31" y="76.57" width="28.87" height="6.68"/></clipPath><clipPath id="clip-path-43"><rect class="cls-1" x="74.31" y="89.93" width="28.87" height="6.68"/></clipPath><clipPath id="clip-path-44"><rect class="cls-1" x="74.31" y="103.29" width="28.87" height="6.68"/></clipPath><clipPath id="clip-path-45"><rect class="cls-1" x="82.71" y="43.18" width="6.68" height="78.53"/></clipPath><clipPath id="clip-path-46"><rect class="cls-1" x="96.07" y="40.05" width="6.68" height="84.79"/></clipPath><clipPath id="clip-path-47"><rect class="cls-1" x="109.43" y="42.49" width="6.68" height="79.9"/></clipPath><clipPath id="clip-path-48"><rect class="cls-1" x="89.41" y="40.05" width="21.15" height="3.12"/></clipPath><clipPath id="clip-path-49"><rect class="cls-1" x="80.71" y="49.85" width="38.56" height="6.68"/></clipPath><clipPath id="clip-path-50"><rect class="cls-1" x="80.47" y="63.21" width="39.03" height="6.68"/></clipPath><clipPath id="clip-path-51"><rect class="cls-1" x="80.47" y="76.57" width="39.03" height="6.68"/></clipPath><clipPath id="clip-path-52"><rect class="cls-1" x="80.47" y="89.93" width="39.03" height="6.68"/></clipPath><clipPath id="clip-path-53"><rect class="cls-1" x="80.47" y="103.29" width="39.03" height="6.68"/></clipPath><clipPath id="clip-path-54"><rect class="cls-1" x="82.71" y="88.93" width="6.68" height="63.52"/></clipPath><clipPath id="clip-path-55"><rect class="cls-1" x="96.07" y="85.81" width="6.68" height="66.64"/></clipPath><clipPath id="clip-path-56"><rect class="cls-1" x="109.43" y="88.25" width="6.68" height="64.2"/></clipPath><clipPath id="clip-path-57"><rect class="cls-1" x="82.52" y="89.93" width="34.93" height="6.68"/></clipPath><clipPath id="clip-path-59"><rect class="cls-1" x="80.47" y="116.65" width="39.03" height="6.68"/></clipPath><clipPath id="clip-path-60"><rect class="cls-1" x="80.47" y="130.01" width="39.03" height="6.68"/></clipPath><clipPath id="clip-path-61"><rect class="cls-1" x="80.47" y="143.37" width="39.03" height="6.68"/></clipPath><pattern id="Unnamed_Pattern" data-name="Unnamed Pattern" width="90.2" height="123.31" patternTransform="matrix(1, 0, 0, -1, -3371.55, 17475.67)" patternUnits="userSpaceOnUse" viewBox="0 0 90.2 123.31"><rect class="cls-1" width="90.2" height="123.31"/><g class="cls-2"><rect class="cls-3" x="3.33" y="-124.73" width="6.29" height="126.14"/><rect class="cls-3" x="14.37" y="-124.73" width="6.29" height="126.14"/><rect class="cls-3" x="25.4" y="-124.73" width="6.29" height="126.14"/><rect class="cls-3" x="36.44" y="-124.73" width="6.29" height="126.14"/><rect class="cls-3" x="47.47" y="-124.73" width="6.29" height="126.14"/><rect class="cls-3" x="58.51" y="-124.73" width="6.29" height="126.14"/><rect class="cls-3" x="69.55" y="-124.73" width="6.29" height="126.14"/><rect class="cls-3" x="80.58" y="-124.73" width="6.29" height="126.14"/><rect class="cls-3" x="88.78" y="91.62" width="93.04" height="6.29"/><rect class="cls-3" x="88.78" y="102.65" width="93.04" height="6.29"/><rect class="cls-3" x="88.78" y="113.69" width="93.04" height="6.29"/><rect class="cls-3" x="88.78" y="80.58" width="93.04" height="6.29"/><rect class="cls-3" x="88.78" y="69.55" width="93.04" height="6.29"/><rect class="cls-3" x="88.78" y="58.51" width="93.04" height="6.29"/><rect class="cls-3" x="88.78" y="47.47" width="93.04" height="6.29"/><rect class="cls-3" x="88.78" y="36.44" width="93.04" height="6.29"/><rect class="cls-3" x="88.78" y="25.4" width="93.04" height="6.29"/><rect class="cls-3" x="88.78" y="14.37" width="93.04" height="6.29"/><rect class="cls-3" x="88.78" y="3.33" width="93.04" height="6.29"/><rect class="cls-3" x="3.33" y="-1.42" width="6.29" height="126.14"/><rect class="cls-3" x="14.37" y="-1.42" width="6.29" height="126.14"/><rect class="cls-3" x="25.4" y="-1.42" width="6.29" height="126.14"/><rect class="cls-3" x="36.44" y="-1.42" width="6.29" height="126.14"/><rect class="cls-3" x="47.47" y="-1.42" width="6.29" height="126.14"/><rect class="cls-3" x="58.51" y="-1.42" width="6.29" height="126.14"/><rect class="cls-3" x="69.55" y="-1.42" width="6.29" height="126.14"/><rect class="cls-3" x="80.58" y="-1.42" width="6.29" height="126.14"/><rect class="cls-3" x="-1.42" y="91.62" width="93.04" height="6.29"/><rect class="cls-3" x="-1.42" y="102.65" width="93.04" height="6.29"/><rect class="cls-3" x="-1.42" y="113.69" width="93.04" height="6.29"/><rect class="cls-3" x="-1.42" y="80.58" width="93.04" height="6.29"/><rect class="cls-3" x="-1.42" y="69.55" width="93.04" height="6.29"/><rect class="cls-3" x="-1.42" y="58.51" width="93.04" height="6.29"/><rect class="cls-3" x="-1.42" y="47.47" width="93.04" height="6.29"/><rect class="cls-3" x="-1.42" y="36.44" width="93.04" height="6.29"/><rect class="cls-3" x="-1.42" y="25.4" width="93.04" height="6.29"/><rect class="cls-3" x="-1.42" y="14.37" width="93.04" height="6.29"/><rect class="cls-3" x="-1.42" y="3.33" width="93.04" height="6.29"/><rect class="cls-3" x="-91.62" y="91.62" width="93.04" height="6.29"/><rect class="cls-3" x="-91.62" y="102.65" width="93.04" height="6.29"/><rect class="cls-3" x="-91.62" y="113.69" width="93.04" height="6.29"/><rect class="cls-3" x="-91.62" y="80.58" width="93.04" height="6.29"/><rect class="cls-3" x="-91.62" y="69.55" width="93.04" height="6.29"/><rect class="cls-3" x="-91.62" y="58.51" width="93.04" height="6.29"/><rect class="cls-3" x="-91.62" y="47.47" width="93.04" height="6.29"/><rect class="cls-3" x="-91.62" y="36.44" width="93.04" height="6.29"/><rect class="cls-3" x="-91.62" y="25.4" width="93.04" height="6.29"/><rect class="cls-3" x="-91.62" y="14.37" width="93.04" height="6.29"/><rect class="cls-3" x="-91.62" y="3.33" width="93.04" height="6.29"/><rect class="cls-3" x="3.33" y="121.89" width="6.29" height="126.14"/><rect class="cls-3" x="14.37" y="121.89" width="6.29" height="126.14"/><rect class="cls-3" x="25.4" y="121.89" width="6.29" height="126.14"/><rect class="cls-3" x="36.44" y="121.89" width="6.29" height="126.14"/><rect class="cls-3" x="47.47" y="121.89" width="6.29" height="126.14"/><rect class="cls-3" x="58.51" y="121.89" width="6.29" height="126.14"/><rect class="cls-3" x="69.55" y="121.89" width="6.29" height="126.14"/><rect class="cls-3" x="80.58" y="121.89" width="6.29" height="126.14"/></g></pattern></defs><title>Fichier 5</title><g id="Calque_2" data-name="Calque 2"><g id="Calque_1-2" data-name="Calque 1"><path class="cls-4" d="M17.72,81.73,4.13,70.63a9,9,0,0,1,11.33-14l13.6,11.1a9,9,0,0,1-11.34,14"/><path class="cls-4" d="M4.84,70.86A9,9,0,0,0,18.42,60.72h0L16.89,53A2.13,2.13,0,0,0,13,52.24a2.12,2.12,0,0,0-.32,1.6l.21,1.07a8.84,8.84,0,0,0-2.62-.52L7,48.11a2.16,2.16,0,0,0-2.89-.89,2.26,2.26,0,0,0-.77.7,2.12,2.12,0,0,0-.1,2.19l2.73,5.15a9,9,0,0,0-1.09,15.6"/><path class="cls-5" d="M2.83,58.57l7.73,2.37a2.13,2.13,0,1,0,1.25-4.08L4.07,54.49a2.13,2.13,0,1,0-1.24,4.08"/><path class="cls-6" d="M1.51,61.9l6.62,2a2.13,2.13,0,0,0,1.25-4.08l-6.62-2A2.13,2.13,0,1,0,1.51,61.9"/><path class="cls-7" d="M1.53,65.41,5.07,66.5a2.13,2.13,0,1,0,1.25-4.08L2.77,61.33a2.13,2.13,0,0,0-1.24,4.08"/><path class="cls-8" d="M84.47,56.53a19.08,19.08,0,0,1-.7,3.11L82.71,63l-.06.2-2.1,6.68-2.1,6.68-2.1,6.68-.32,1-1.78,5.65-2.09,6.68-2.1,6.67h0A19.89,19.89,0,0,1,66.4,110a18.89,18.89,0,0,1-3.73,3.42,19.54,19.54,0,0,1-6.68,3c-.37.09-.75.17-1.12.23a19.49,19.49,0,0,1-5.56.2c-.43-.06-.87-.12-1.3-.2a19,19,0,0,1-2.42-.59,20.35,20.35,0,0,1-3-1.2A19.44,19.44,0,0,1,36.48,110c-.19-.21-.36-.43-.53-.66a19.51,19.51,0,0,1-3.13-17.72l.52-1.66,2.1-6.68L36,81.62l1.59-5.05,2.1-6.68,2.09-6.68.9-2.85,1.2-3.83,2.1-6.68.6-1.91a19,19,0,0,1,2.25-4.77,8.23,8.23,0,0,1,.53-.78A19.26,19.26,0,0,1,56,36.56l.13-.07a19.57,19.57,0,0,1,13.23-1.77c.55.12,1.1.27,1.65.44a19.24,19.24,0,0,1,3.2,1.33A18.4,18.4,0,0,1,76,37.58a19.35,19.35,0,0,1,5.49,5.59,19.39,19.39,0,0,1,3,13.36"/><g class="cls-9"><g class="cls-10"><path class="cls-11" d="M36,81.62v27.69a19.51,19.51,0,0,1-3.13-17.72l.52-1.66,2.1-6.68Z"/></g></g><g class="cls-9"><g class="cls-12"><path class="cls-11" d="M49.31,42.39v74.46c-.43-.06-.87-.12-1.3-.2a19,19,0,0,1-2.42-.59,20.35,20.35,0,0,1-3-1.2V60.36l1.2-3.83,2.1-6.68.6-1.91a19,19,0,0,1,2.25-4.77,8.23,8.23,0,0,1,.53-.78"/></g></g><g class="cls-9"><g class="cls-13"><path class="cls-11" d="M62.67,34.43v79a19.54,19.54,0,0,1-6.68,3V36.49h.13a19.28,19.28,0,0,1,6.55-2.06"/></g></g><g class="cls-9"><g class="cls-14"><path class="cls-11" d="M76,36.49V84.28l-1.78,5.65-2.09,6.68-2.1,6.67h0a19.36,19.36,0,0,1-.71,1.89V34.72c.55.12,1.1.27,1.65.44a19.24,19.24,0,0,1,3.2,1.33Z"/></g></g><g class="cls-9"><g class="cls-15"><path class="cls-11" d="M84.47,56.53a19.08,19.08,0,0,1-.7,3.11L82.71,63V45.29a19.27,19.27,0,0,1,1.76,11.24"/></g></g><g class="cls-9"><g class="cls-16"><path class="cls-11" d="M81.52,43.17H48.78a8.23,8.23,0,0,1,.53-.78A19.26,19.26,0,0,1,56,36.56v-.07H76v1.09a19.35,19.35,0,0,1,5.49,5.59"/></g></g><g class="cls-9"><g class="cls-17"><path class="cls-11" d="M84.47,56.53H43.83l2.1-6.68H84.27a19.17,19.17,0,0,1,.2,6.68"/></g></g><g class="cls-9"><g class="cls-18"><polygon class="cls-11" points="82.65 63.21 80.55 69.89 39.64 69.89 41.73 63.21 82.65 63.21"/></g></g><g class="cls-9"><g class="cls-19"><polygon class="cls-11" points="78.45 76.57 76.35 83.25 35.44 83.25 35.95 81.62 37.54 76.57 78.45 76.57"/></g></g><g class="cls-9"><g class="cls-20"><path class="cls-11" d="M74.25,89.93l-2.09,6.68H31.94a19.61,19.61,0,0,1,.88-5l.52-1.66Z"/></g></g><g class="cls-9"><g class="cls-21"><path class="cls-11" d="M70.06,103.29A19.89,19.89,0,0,1,66.4,110H36v-.66a19.43,19.43,0,0,1-3.13-6Z"/></g></g><g class="cls-9"><g class="cls-22"><path class="cls-11" d="M54.87,116.65a19.49,19.49,0,0,1-5.56.2c-.43-.06-.87-.12-1.3-.2Z"/></g></g><path class="cls-8" d="M71.05,96.67a19,19,0,0,1-.9,6.68,13.38,13.38,0,0,1-.52,1.46,19.66,19.66,0,0,1-2.87,4.87l-.3.35a19.36,19.36,0,0,1-10.19,6.35c-.53.13-1.07.24-1.61.33a19.56,19.56,0,0,1-5.07.15c-.38,0-.76-.08-1.13-.15a19.12,19.12,0,0,1-5.55-1.77,18.78,18.78,0,0,1-3.59-2.29l-3.09-2.49-.16-.13-6.52-5.24-1.78-1.44-4.9-3.94-3.4-2.74L16.19,94l-5-4L9.51,88.65,8.19,87.59A7.18,7.18,0,0,1,7.1,77.51l.71-.88,1.7-2.11L13.19,70l3-3.73,2.37-2.95,4-5,.28-.33a7.18,7.18,0,0,1,6.68-2.2,6.81,6.81,0,0,1,2.24.85,7,7,0,0,1,.87.59l3.57,2.88,4,3.21,2.69,2.16L48.52,70l1.07.86,6.68,5.38.54.44L63,81.57l.84.68A15.15,15.15,0,0,1,65,83.31,19.25,19.25,0,0,1,69.59,90l0,.09a19.7,19.7,0,0,1,1.42,6.59"/><g class="cls-9"><g class="cls-23"><path class="cls-11" d="M9.51,74.52V88.65L8.19,87.59A7.18,7.18,0,0,1,7.1,77.51l.71-.88Z"/></g></g><g class="cls-9"><g class="cls-24"><path class="cls-11" d="M18.56,63.27l4-5,.28-.33V99.41l-3.4-2.74L16.19,94V66.22Z"/></g></g><g class="cls-9"><g class="cls-25"><path class="cls-11" d="M36.23,60.06v50.1l-.16-.13-6.52-5.24V55.74a6.81,6.81,0,0,1,2.24.85,7,7,0,0,1,.87.59Z"/></g></g><g class="cls-9"><g class="cls-26"><path class="cls-11" d="M49.59,70v46.91c-.38,0-.76-.08-1.13-.15a19.12,19.12,0,0,1-5.55-1.77V65.43L48.52,70Z"/></g></g><g class="cls-9"><g class="cls-27"><path class="cls-11" d="M63,81.57v31.72a19.44,19.44,0,0,1-6.68,3.09V76.19l.54.44Z"/></g></g><g class="cls-9"><g class="cls-28"><path class="cls-11" d="M71.05,96.67a19,19,0,0,1-.9,6.68,13.38,13.38,0,0,1-.52,1.46V90.08a19.7,19.7,0,0,1,1.42,6.59"/></g></g><g class="cls-9"><g class="cls-29"><path class="cls-11" d="M31.79,56.59H24.54a7.14,7.14,0,0,1,5-.85,6.81,6.81,0,0,1,2.24.85"/></g></g><g class="cls-9"><g class="cls-30"><polygon class="cls-11" points="42.91 65.43 48.52 69.95 42.91 69.95 36.23 69.95 29.55 69.95 22.87 69.95 16.19 69.95 13.19 69.95 16.19 66.22 18.56 63.27 22.87 63.27 29.55 63.27 36.23 63.27 40.22 63.27 42.91 65.43"/></g></g><g class="cls-9"><g class="cls-31"><path class="cls-11" d="M65,83.31H5.64a7.15,7.15,0,0,1,1.46-5.8l.71-.88h49L63,81.57l.84.68A15.15,15.15,0,0,1,65,83.31"/></g></g><g class="cls-9"><g class="cls-32"><path class="cls-11" d="M71.05,96.67H19.47L16.19,94l-5-4H69.63v.09a19.7,19.7,0,0,1,1.42,6.59"/></g></g><g class="cls-9"><g class="cls-33"><path class="cls-11" d="M70.15,103.35a13.38,13.38,0,0,1-.52,1.46,19.66,19.66,0,0,1-2.87,4.87l-.3.35H36.07l-6.52-5.24-1.78-1.44Z"/></g></g><g class="cls-9"><g class="cls-34"><path class="cls-11" d="M54.66,116.71a19.56,19.56,0,0,1-5.07.15c-.38,0-.76-.08-1.13-.15Z"/></g></g><g class="cls-35"><g class="cls-36"><path d="M84.27,49.85A19.64,19.64,0,0,0,76,37.58a18.4,18.4,0,0,0-1.83-1.09A19.24,19.24,0,0,0,71,35.16c-.55-.17-1.1-.32-1.65-.44a19.57,19.57,0,0,0-13.23,1.77l-.13.07a19.26,19.26,0,0,0-6.68,5.83,8.23,8.23,0,0,0-.53.78,19,19,0,0,0-2.25,4.77l-.6,1.91-2.1,6.68-1.2,3.83-.9,2.85-.32,1-1.19-1-4-3.21-3.57-2.88a7,7,0,0,0-.87-.59,6.81,6.81,0,0,0-2.24-.85,7.18,7.18,0,0,0-6.68,2.2l-.28.33-4,5-2.37,2.95-3,3.73L9.51,74.52l-1.7,2.11-.71.88A7.18,7.18,0,0,0,8.19,87.59l1.32,1.06L11.17,90l5,4,3.28,2.64,3.4,2.74,4.9,3.94,1.78,1.44L36.07,110l.16.13,1.86,1.5a19.64,19.64,0,0,0,4.54,3.2,20.35,20.35,0,0,0,3,1.2,19,19,0,0,0,2.42.59c.43.08.87.14,1.3.2a19.19,19.19,0,0,0,2.39.1,19.48,19.48,0,0,0,3-.24c.54-.09,1.08-.2,1.61-.33A19.36,19.36,0,0,0,66.46,110l.3-.35a19.66,19.66,0,0,0,2.87-4.87,13.38,13.38,0,0,0,.52-1.46,19.57,19.57,0,0,0,.52-2l1.49-4.74,2.09-6.68L76,84.28l.32-1,2.1-6.68,2.1-6.68,2.1-6.68.06-.2,1.06-3.37a19.71,19.71,0,0,0,.5-9.79"/></g></g><path class="cls-4" d="M108.76,105.15l-.12,53.64a9,9,0,0,1-18,0l.12-53.64a9,9,0,0,1,18,0"/><path class="cls-4" d="M110,169.42l-1.85-5.72s0,0,0,0c.07-.26.13-.53.18-.8a9,9,0,0,0-17.68-3.43l-3.53,2.25a2.24,2.24,0,1,0,2.4,3.78l1.53-1a8.8,8.8,0,0,0,2.31,3.42l-2.23,5.7a2.14,2.14,0,1,0,4,1.56l2-5.18.29.07-.6,6.09a2.14,2.14,0,1,0,4.26.42l.61-6.13.63,4.45a2.14,2.14,0,1,0,4.24-.61l-.91-6.47c.13-.13.27-.26.4-.4l1,3a1.57,1.57,0,0,0,3-1"/><g class="cls-9"><g class="cls-37"><path class="cls-11" d="M115.87,116.65a19.19,19.19,0,0,1-6.44,5.74v.94h-20v-1.62a19.34,19.34,0,0,1-5.3-5.06Z"/></g></g><path class="cls-8" d="M82.18,35.39a22.93,22.93,0,0,0-4.93,1.1c-.41.14-.82.29-1.22.45a24,24,0,0,0-8.87,6.23A23.69,23.69,0,0,0,63,49.85c-.11.25-.21.51-.3.77a23.25,23.25,0,0,0-1.37,5.91,20.84,20.84,0,0,0-.13,2.38V113a8,8,0,0,1-4-3.07A7.77,7.77,0,0,1,56,107a8,8,0,0,1-.14-1.48V58.91A23.41,23.41,0,0,1,56,56.53a1.36,1.36,0,0,1,0-.2,23.65,23.65,0,0,1,5.85-13.16c.27-.3.54-.59.83-.88a23.65,23.65,0,0,1,6.68-4.76,22.07,22.07,0,0,1,2.58-1,23.37,23.37,0,0,1,4.1-1,24.9,24.9,0,0,1,3.48-.25,23.63,23.63,0,0,1,2.67.15"/><g class="cls-9"><g class="cls-38"><path class="cls-11" d="M61.84,43.17c.27-.3.54-.59.83-.88V110h-1.5V113a8,8,0,0,1-4-3.07A7.77,7.77,0,0,1,56,107V56.33a23.65,23.65,0,0,1,5.85-13.16"/></g></g><g class="cls-9"><g class="cls-39"><path class="cls-11" d="M71.93,36.49a23.37,23.37,0,0,1,4.1-1v1.45A23.41,23.41,0,0,0,69.35,41V37.53Z"/></g></g><g class="cls-9"><g class="cls-40"><path class="cls-11" d="M69.35,37.53a23.65,23.65,0,0,0-6.68,4.76c-.29.29-.56.58-.83.88h7.51V41A23.41,23.41,0,0,1,76,36.94c.4-.16.81-.31,1.22-.45H71.93Z"/></g></g><g class="cls-9"><g class="cls-41"><path class="cls-11" d="M63,49.85c-.11.25-.21.51-.3.77v5.91H56a1.36,1.36,0,0,1,0-.2,23.3,23.3,0,0,1,1.66-6.48Z"/></g></g><g class="cls-9"><g class="cls-42"><rect class="cls-11" x="55.85" y="63.21" width="6.82" height="6.68"/></g></g><g class="cls-9"><g class="cls-43"><rect class="cls-11" x="55.85" y="76.57" width="6.82" height="6.68"/></g></g><g class="cls-9"><g class="cls-44"><rect class="cls-11" x="55.85" y="89.93" width="6.82" height="6.68"/></g></g><g class="cls-9"><g class="cls-45"><path class="cls-11" d="M62.67,103.29V110H57.21A7.77,7.77,0,0,1,56,107a8,8,0,0,1-.14-1.48v-2.22Z"/></g></g><path class="cls-8" d="M103.18,58.91v46.6a8,8,0,0,1-7.11,7.95,8.69,8.69,0,0,1-.89.05H74.31V58.91c0-.33,0-.66,0-1s0-.54,0-.82,0-.37.05-.57c0,0,0-.09,0-.13s0-.37.07-.55.07-.56.12-.84.08-.46.13-.69l.06-.31c.09-.43.19-.87.31-1.29.05-.2.11-.4.17-.59s.1-.35.16-.52c.11-.34.22-.67.35-1s.14-.37.22-.55c0,0,0,0,0,0a1.42,1.42,0,0,1,.08-.18,20.85,20.85,0,0,1,1.24-2.56c.16-.3.34-.59.52-.88L78,46.3l.3-.46c.19-.29.38-.57.59-.85l.25-.33c.21-.28.43-.56.65-.83l.15-.18.42-.48.45-.49c.32-.35.66-.69,1-1l.08-.08c.27-.25.55-.5.84-.74l0,0A23.27,23.27,0,0,1,85.24,39h0a1.55,1.55,0,0,0,.44-1.75,2.29,2.29,0,0,1-.06-.71,1.33,1.33,0,0,1,.07-.43c.48.13,1,.27,1.43.43s1.08.39,1.61.62l.64.29A23.62,23.62,0,0,1,96.07,42l.18.17c.32.32.64.66.94,1a23.47,23.47,0,0,1,4.19,6.68,22.57,22.57,0,0,1,1.37,4.57,21,21,0,0,1,.31,2.11,23.41,23.41,0,0,1,.12,2.38"/><g class="cls-9"><g class="cls-46"><path class="cls-11" d="M75.81,50.61c.07-.19.14-.37.22-.55v63.45H74.31V58.91c0-.33,0-.66,0-1s0-.54,0-.82,0-.37.05-.57c0,0,0-.09,0-.13s0-.37.07-.55.07-.56.12-.84.08-.46.13-.69l.06-.31c.09-.43.19-.87.31-1.29.05-.2.11-.4.17-.59s.1-.35.16-.52c.11-.34.22-.67.35-1"/></g></g><g class="cls-9"><g class="cls-47"><path class="cls-11" d="M87.14,36.49c-.47-.16-1-.3-1.43-.43a1.33,1.33,0,0,0-.07.43,2.29,2.29,0,0,0,.06.71A1.55,1.55,0,0,1,85.26,39h0a23.27,23.27,0,0,0-2.53,1.87v72.68h6.68V37.4Z"/></g></g><g class="cls-9"><g class="cls-48"><path class="cls-11" d="M101.38,49.85a22.57,22.57,0,0,1,1.37,4.57V110h-.93a8,8,0,0,1-5.75,3.49V42l.18.17c.32.32.64.66.94,1a23.47,23.47,0,0,1,4.19,6.68"/></g></g><g class="cls-9"><g class="cls-49"><path class="cls-11" d="M87.14,36.49h-1.5a2.29,2.29,0,0,0,.06.71A1.55,1.55,0,0,1,85.26,39h0a23.27,23.27,0,0,0-2.53,1.87l0,0c-.29.24-.57.49-.84.74l-.08.08c-.35.32-.69.66-1,1l-.45.49H97.19c-.3-.34-.62-.68-.94-1L96.07,42a23.62,23.62,0,0,0-6.68-4.6Z"/></g></g><g class="cls-9"><g class="cls-50"><path class="cls-11" d="M103.06,56.53H74.43s0-.09,0-.13,0-.37.07-.55.07-.56.12-.84.08-.46.13-.69l.06-.31c.09-.43.19-.87.31-1.29.05-.2.11-.4.17-.59s.1-.35.16-.52c.11-.34.22-.67.35-1s.14-.37.22-.55v-.21h25.35a22.57,22.57,0,0,1,1.37,4.57,21,21,0,0,1,.31,2.11"/></g></g><g class="cls-9"><g class="cls-51"><rect class="cls-11" x="74.31" y="63.21" width="28.87" height="6.68"/></g></g><g class="cls-9"><g class="cls-52"><rect class="cls-11" x="74.31" y="76.57" width="28.87" height="6.68"/></g></g><g class="cls-9"><g class="cls-53"><rect class="cls-11" x="74.31" y="89.93" width="28.87" height="6.68"/></g></g><g class="cls-9"><g class="cls-54"><path class="cls-11" d="M103.18,103.29v2.22a7.89,7.89,0,0,1-.43,2.58V110H74.31v-6.68Z"/></g></g><path class="cls-8" d="M119.5,59.57v45.75a19.46,19.46,0,0,1-3.39,11l-.24.34a19.19,19.19,0,0,1-6.44,5.74,15.63,15.63,0,0,1-1.93.94,19,19,0,0,1-4.75,1.31,19.3,19.3,0,0,1-6.68-.2,18.42,18.42,0,0,1-3.61-1.11,18,18,0,0,1-3.07-1.62,19.34,19.34,0,0,1-5.3-5.06,19,19,0,0,1-1.38-2.24V110H81a19.29,19.29,0,0,1-.56-4.65V59.57a19.65,19.65,0,0,1,2.24-9.09c.11-.21.23-.42.35-.63a19.42,19.42,0,0,1,6.33-6.67h0a19.25,19.25,0,0,1,6.66-2.73,20.17,20.17,0,0,1,3.91-.39,19.61,19.61,0,0,1,9.45,2.44c.39.21.77.44,1.13.68a19.46,19.46,0,0,1,5.55,5.41c.28.41.55.83.8,1.27a19.36,19.36,0,0,1,2.36,6.68,20.23,20.23,0,0,1,.23,3"/><g class="cls-9"><g class="cls-55"><path class="cls-11" d="M89.39,43.18v78.53a19.34,19.34,0,0,1-5.3-5.06H82.71V49.85h.35a19.42,19.42,0,0,1,6.33-6.67"/></g></g><g class="cls-9"><g class="cls-56"><path class="cls-11" d="M102.75,40.25v84.39a19.3,19.3,0,0,1-6.68-.2v-84a20.17,20.17,0,0,1,3.91-.39,19.42,19.42,0,0,1,2.77.2"/></g></g><g class="cls-9"><g class="cls-57"><path class="cls-11" d="M116.11,48.58v68.07h-.24a19.19,19.19,0,0,1-6.44,5.74V42.49c.39.21.77.44,1.13.68a19.46,19.46,0,0,1,5.55,5.41"/></g></g><g class="cls-9"><g class="cls-58"><path class="cls-11" d="M110.56,43.17H89.41a19.25,19.25,0,0,1,6.66-2.73,20.17,20.17,0,0,1,3.91-.39,19.61,19.61,0,0,1,9.45,2.44c.39.21.77.44,1.13.68"/></g></g><g class="cls-9"><g class="cls-59"><path class="cls-11" d="M119.27,56.53H80.71a19.16,19.16,0,0,1,2-6.05v-.63h34.2a19.36,19.36,0,0,1,2.36,6.68"/></g></g><g class="cls-9"><g class="cls-60"><rect class="cls-11" x="80.47" y="63.21" width="39.03" height="6.68"/></g></g><g class="cls-9"><g class="cls-61"><rect class="cls-11" x="80.47" y="76.57" width="39.03" height="6.68"/></g></g><g class="cls-9"><g class="cls-62"><rect class="cls-11" x="80.47" y="89.93" width="39.03" height="6.68"/></g></g><g class="cls-9"><g class="cls-63"><path class="cls-11" d="M119.5,103.29v2a19.29,19.29,0,0,1-.56,4.65H81a19.29,19.29,0,0,1-.56-4.65v-2Z"/></g></g><path class="cls-8" d="M119.5,105.32v40a7,7,0,0,1-1.83,4.76,6.4,6.4,0,0,1-1.56,1.32,7.07,7.07,0,0,1-3.78,1.08H87.63a7.1,7.1,0,0,1-4.92-2,4.37,4.37,0,0,1-.42-.44,7.06,7.06,0,0,1-1.82-4.76v-40c0-.68,0-1.36.1-2a19.34,19.34,0,0,1,2-6.68l.19-.38A19.51,19.51,0,0,1,88,89.93a15.3,15.3,0,0,1,1.39-1,19.06,19.06,0,0,1,6.68-2.72,18.66,18.66,0,0,1,3.91-.4,19.61,19.61,0,0,1,9.45,2.44A17.91,17.91,0,0,1,112,89.93a19.11,19.11,0,0,1,4.15,4.41,17.8,17.8,0,0,1,1.34,2.27,19.34,19.34,0,0,1,2,6.68c.06.67.1,1.35.1,2"/><g class="cls-9"><g class="cls-64"><path class="cls-11" d="M89.39,88.93v63.52H87.63a7.1,7.1,0,0,1-4.92-2V96.23A19.51,19.51,0,0,1,88,89.93a15.3,15.3,0,0,1,1.39-1"/></g></g><g class="cls-9"><g class="cls-65"><path class="cls-11" d="M102.75,86v66.44H96.07V86.21a18.66,18.66,0,0,1,3.91-.4,19.42,19.42,0,0,1,2.77.2"/></g></g><g class="cls-9"><g class="cls-66"><path class="cls-11" d="M116.11,94.34v57a7.07,7.07,0,0,1-3.78,1.08h-2.9V88.25A17.91,17.91,0,0,1,112,89.93a19.11,19.11,0,0,1,4.15,4.41"/></g></g><g class="cls-9"><g class="cls-67"><path class="cls-11" d="M117.45,96.61H82.52l.19-.38A19.51,19.51,0,0,1,88,89.93h24a19.11,19.11,0,0,1,4.15,4.41,17.8,17.8,0,0,1,1.34,2.27"/></g></g><g class="cls-9"><g class="cls-63"><path class="cls-11" d="M119.5,105.32V110h-39v-4.65c0-.68,0-1.36.1-2H119.4c.06.67.1,1.35.1,2"/></g></g><g class="cls-9"><g class="cls-68"><rect class="cls-11" x="80.47" y="116.65" width="39.03" height="6.68"/></g></g><g class="cls-9"><g class="cls-69"><rect class="cls-11" x="80.47" y="130.01" width="39.03" height="6.68"/></g></g><g class="cls-9"><g class="cls-70"><path class="cls-11" d="M119.5,143.37v1.92a7,7,0,0,1-1.83,4.76H82.29a7.06,7.06,0,0,1-1.82-4.76v-1.92Z"/></g></g><path class="cls-11" d="M85.21,39h0Z"/><path class="cls-8" d="M82.14,35.39a23.67,23.67,0,0,0-21,23.52V113a8,8,0,0,1-5.32-7.53V58.91A23.67,23.67,0,0,1,82.14,35.39"/><path class="cls-71" d="M82.14,35.39a23.67,23.67,0,0,0-21,23.52V113a8,8,0,0,1-5.32-7.53V58.91A23.67,23.67,0,0,1,82.14,35.39"/><path class="cls-72" d="M85.22,39h0a22.42,22.42,0,0,0-2.55,1.89c-.29.24-.57.49-.84.74a.6.6,0,0,0-.08.08c-.35.32-.69.66-1,1s-.59.64-.87,1l-.15.18c-.22.27-.44.55-.65.83L78.8,45c-.21.28-.4.56-.59.85s-.21.31-.3.46l-.07.11c-.18.29-.36.58-.52.88A22.29,22.29,0,0,0,76,50c-.08.19-.16.38-.23.58s-.24.66-.35,1c-.06.17-.11.35-.16.52s-.12.39-.17.59c-.12.43-.22.85-.31,1.29l-.06.31c0,.23-.09.46-.13.69s-.09.56-.12.84,0,.37-.07.55l-.06.7c0,.3,0,.6,0,.9s0,.6,0,.91v46.6a8,8,0,0,0,8,8H63.81a7.71,7.71,0,0,1-2.68-.47V58.91a23.67,23.67,0,0,1,21-23.52,23.93,23.93,0,0,1,3.53.67,2.15,2.15,0,0,0,0,1.14A1.55,1.55,0,0,1,85.22,39"/><path class="cls-73" d="M67,21.3,70.89,7.74l-.36-.14A2.58,2.58,0,0,0,67,9.44l-1.93,8.81A2.58,2.58,0,0,0,67,21.3"/><path class="cls-7" d="M76.12,27.2l-.59,10.1c-.07,1.24,2.13,2.39,4.91,2.55s5.11-.72,5.18-2l.59-10.09Z"/><path class="cls-4" d="M67,13.39a15.43,15.43,0,0,1,1.47-4,6.13,6.13,0,0,1,.39-.7A15.28,15.28,0,0,1,70,7a6.76,6.76,0,0,1,.54-.64A15.48,15.48,0,0,1,97.25,19.9a22.35,22.35,0,0,1-5.36,9.93,2,2,0,0,1-.25.25c-.14.17-.3.33-.44.48-3.72,3.75-8.56,6.12-13.19,5.13a11.32,11.32,0,0,1-5.53-3.11A19.24,19.24,0,0,1,68,25.16a22.43,22.43,0,0,1-1-11.77"/><path class="cls-11" d="M74.4,25.61a2,2,0,0,1-1.66-.78,2.87,2.87,0,0,1-.1-3.12,1.81,1.81,0,0,1,2-.84.91.91,0,0,0,.88-.19c.7-.66.53-2.67.41-3.39a.25.25,0,0,1,.21-.29.24.24,0,0,1,.28.21c0,.11.48,2.85-.55,3.84a1.41,1.41,0,0,1-1.34.31,1.29,1.29,0,0,0-1.47.62,2.39,2.39,0,0,0,.07,2.55,1.86,1.86,0,0,0,2.19.42.25.25,0,0,1,.32.16.25.25,0,0,1-.16.31,3.62,3.62,0,0,1-1.08.19"/><path class="cls-11" d="M81.46,18.61c-.1,1.65.66,3,1.69,3.09s1.95-1.23,2-2.87-.66-3-1.69-3.09-1.94,1.22-2,2.87"/><path class="cls-11" d="M69.91,17.25c-.09,1.5.67,2.77,1.71,2.83s1.93-1.11,2-2.61-.68-2.76-1.7-2.82-1.94,1.1-2,2.6"/><path class="cls-11" d="M69.55,15.7h0a.25.25,0,0,1-.21-.29,2.6,2.6,0,0,1,3-2.14.25.25,0,0,1,.21.28.25.25,0,0,1-.29.21,2.09,2.09,0,0,0-2.39,1.73.25.25,0,0,1-.25.21"/><path class="cls-11" d="M87.13,18.43h0a.25.25,0,0,1-.23-.27,3.77,3.77,0,0,0-.67-2.46,2.59,2.59,0,0,0-1.9-1.11.25.25,0,0,1-.23-.27.23.23,0,0,1,.26-.23,3,3,0,0,1,2.27,1.32,4.14,4.14,0,0,1,.76,2.79.25.25,0,0,1-.25.23"/><path class="cls-11" d="M86.44,22.25h-.06l-1.79-.48a.24.24,0,0,1-.17-.3.24.24,0,0,1,.3-.18l1.78.48a.24.24,0,0,1,.18.3.24.24,0,0,1-.24.19"/><path class="cls-11" d="M86.61,20.9H85.55a.25.25,0,0,1,0-.5h1.06a.25.25,0,0,1,0,.5"/><path class="cls-11" d="M69.92,19.94h0l-1.35-.26a.27.27,0,0,1-.2-.3.24.24,0,0,1,.3-.19l1.34.26a.24.24,0,0,1,.2.29.25.25,0,0,1-.24.2"/><path class="cls-11" d="M69.24,18.84h-.06l-.68-.18a.25.25,0,0,1-.17-.31.24.24,0,0,1,.3-.17l.68.18a.24.24,0,0,1,.17.3.24.24,0,0,1-.24.19"/><path class="cls-73" d="M93.17,17.11a10.61,10.61,0,0,0-.23-2,2.65,2.65,0,0,1,1.82-3l1.39-.48a2.35,2.35,0,0,1,3.12,1.78c1,5.71-1.52,11.23-3,13.83a2.06,2.06,0,0,1-2.56.92l-.9-.35a1.69,1.69,0,0,1-1-2c0-.1.06-.2.08-.3a3.5,3.5,0,0,0,1.91-1.25,5.38,5.38,0,0,0,1.39-4.39c-.12-.82-.44-1.58-1.21-1.74a1,1,0,0,1-.83-.94"/><path class="cls-73" d="M82.09,4.05A.27.27,0,0,1,82,4c-.12,0-3-1.07-3.5-2.75a.38.38,0,0,1,.72-.23c.35,1.11,2.31,2,3,2.27a.38.38,0,0,1,.23.48.36.36,0,0,1-.35.25"/><path class="cls-73" d="M85.2,4.05a.34.34,0,0,1-.32-.19L83,.56a.37.37,0,0,1,.65-.37l1.88,3.3a.37.37,0,0,1-.14.51.34.34,0,0,1-.19,0"/><path class="cls-73" d="M82.05,5.8a2.72,2.72,0,0,1-1.87-.52.39.39,0,0,1,0-.54.38.38,0,0,1,.53,0c.35.36,1.7.33,2.54.18a.38.38,0,1,1,.13.75,9,9,0,0,1-1.34.11"/><path class="cls-11" d="M78.64,29.12v.05a2,2,0,0,1-.42,1.43,2.65,2.65,0,0,0-2.56-1.29A3.48,3.48,0,0,0,74,29.7c0-.12,0-.24,0-.36a3.46,3.46,0,0,0-.31-1.44v0a.48.48,0,0,1,.47-.68l2.63.15a2,2,0,0,1,1.86,1.77"/><path class="cls-8" d="M78.22,30.6a2,2,0,0,1-1.66.73l-2.34-.13a.49.49,0,0,1-.43-.65A3.6,3.6,0,0,0,74,29.7a3.48,3.48,0,0,1,1.68-.39,2.65,2.65,0,0,1,2.56,1.29"/><path class="cls-11" d="M76.68,31.59h-.13l-2.35-.14a.74.74,0,0,1-.65-1A3.18,3.18,0,0,0,73.46,28a.75.75,0,0,1,.06-.74.8.8,0,0,1,.65-.32h0l2.63.15a2.23,2.23,0,0,1,2.09,2,2.27,2.27,0,0,1-.61,1.8,2.18,2.18,0,0,1-1.6.69m-2.56-4.14a.21.21,0,0,0-.19.11.23.23,0,0,0,0,.23A3.71,3.71,0,0,1,74,30.64a.26.26,0,0,0,0,.21.22.22,0,0,0,.18.1l2.35.14a1.72,1.72,0,0,0,1.81-1.89,1.73,1.73,0,0,0-1.62-1.6l-2.63-.15h0"/><path class="cls-11" d="M74.84,31.49h0a.25.25,0,0,1-.2-.28,1.89,1.89,0,0,1,1.14-1.37.24.24,0,0,1,.32.14.26.26,0,0,1-.14.33,1.39,1.39,0,0,0-.83,1,.25.25,0,0,1-.24.21"/></g></g></svg>