<svg width="222" height="46" viewBox="0 0 222 46" fill="none" xmlns="http://www.w3.org/2000/svg">
<rect width="221.636" height="46" fill="#46A882"/>
<mask id="mask0_731_8" style="mask-type:alpha" maskUnits="userSpaceOnUse" x="173" y="7" width="39" height="32">
<path d="M210.77 23.1685C210.77 31.3711 202.724 38.1711 192.596 38.1711C182.468 38.1711 174.423 31.3711 174.423 23.1685C174.423 14.9659 182.468 8.16602 192.596 8.16602C202.724 8.16602 210.77 14.9659 210.77 23.1685Z" fill="#A27474" stroke="black"/>
</mask>
<g mask="url(#mask0_731_8)">
<path d="M199.819 19.9682H199.935C203.487 20.0623 206.019 20.4198 206.374 21.9975C207.808 28.3144 208.374 36.9742 208.374 36.9742L193.05 40.8102H192.404L177.788 36.9742C177.788 36.9742 178.246 23.3713 179.202 21.9975C179.848 21.0942 182.109 20.0591 185.635 19.9619H199.845L199.819 19.9682Z" fill="#5154A1"/>
<path d="M186.828 23.9668C186.828 23.9668 193.01 27.8665 198.522 23.9668C198.522 23.9668 195.946 37.8469 196.303 39.5174H189.471L186.828 23.9668Z" fill="#373684"/>
<g clip-path="url(#clip0_731_8)">
<path d="M210.949 35.1954C210.949 35.1954 210.842 38.2466 209.513 37.2785C209.513 37.2785 208.84 38.8026 208.029 37.6242C208.029 37.6242 207.251 39.3529 206.563 37.5551C206.563 37.5551 205.661 39.8053 204.745 37.3476C204.745 37.3476 201.841 41.4533 201.612 35.1954L210.949 35.1954Z" fill="#EFB19E"/>
<path d="M209.867 35.1952C209.868 35.9665 209.74 36.71 209.51 37.2783C209.51 37.2783 209.974 36.6733 209.867 35.1952Z" fill="#BC6A4F"/>
<path d="M208.264 35.1952C208.336 36.8922 208.03 37.624 208.03 37.624C208.03 37.624 208.494 37.0046 208.264 35.1952Z" fill="#BC6A4F"/>
<path d="M206.922 35.195C206.9 36.0413 206.776 36.8578 206.563 37.5547C206.701 37.2535 206.805 36.8826 206.868 36.4725C206.93 36.0623 206.948 35.6245 206.922 35.195Z" fill="#BC6A4F"/>
<path d="M204.398 35.9877C204.466 36.4947 204.584 36.9598 204.744 37.3477C204.637 37.2139 204.548 37.0165 204.487 36.7768C204.426 36.5371 204.395 36.2643 204.398 35.9877V35.9877Z" fill="#BC6A4F"/>
</g>
<g clip-path="url(#clip1_731_8)">
<path d="M184.227 34.9308C184.227 34.9308 184.12 37.9819 182.791 37.0138C182.791 37.0138 182.118 38.538 181.308 37.3596C181.308 37.3596 180.529 39.0883 179.841 37.2904C179.841 37.2904 178.939 39.5406 178.023 37.083C178.023 37.083 175.119 41.1887 174.89 34.9308L184.227 34.9308Z" fill="#EFB19E"/>
<path d="M183.146 34.9306C183.146 35.7019 183.018 36.4453 182.788 37.0137C182.788 37.0137 183.253 36.4086 183.146 34.9306Z" fill="#BC6A4F"/>
<path d="M181.542 34.9305C181.614 36.6276 181.308 37.3594 181.308 37.3594C181.308 37.3594 181.772 36.7399 181.542 34.9305Z" fill="#BC6A4F"/>
<path d="M180.2 34.9304C180.179 35.7767 180.054 36.5931 179.841 37.29C179.979 36.9889 180.084 36.618 180.146 36.2078C180.208 35.7977 180.227 35.3599 180.2 34.9304Z" fill="#BC6A4F"/>
<path d="M177.676 35.7231C177.744 36.23 177.863 36.6951 178.022 37.083C177.915 36.9492 177.826 36.7518 177.765 36.5122C177.704 36.2725 177.673 35.9996 177.676 35.7231V35.7231Z" fill="#BC6A4F"/>
</g>
<path d="M192.736 34.5638L192.739 25.6953L192.385 34.5745L192.736 34.5638Z" fill="#2C2C6B"/>
<path d="M198.523 24.9991C198.891 24.9991 199.189 24.7514 199.189 24.4459C199.189 24.1403 198.891 23.8926 198.523 23.8926C198.155 23.8926 197.856 24.1403 197.856 24.4459C197.856 24.7514 198.155 24.9991 198.523 24.9991Z" fill="#C9C5BD"/>
<path d="M198.571 24.8592C198.893 24.8592 199.154 24.6426 199.154 24.3754C199.154 24.1082 198.893 23.8916 198.571 23.8916C198.249 23.8916 197.988 24.1082 197.988 24.3754C197.988 24.6426 198.249 24.8592 198.571 24.8592Z" fill="white"/>
<path d="M197.727 25.7999C198.095 25.7999 198.393 25.5522 198.393 25.2466C198.393 24.9411 198.095 24.6934 197.727 24.6934C197.358 24.6934 197.06 24.9411 197.06 25.2466C197.06 25.5522 197.358 25.7999 197.727 25.7999Z" fill="#C9C5BD"/>
<path d="M197.775 25.6609C198.097 25.6609 198.358 25.4443 198.358 25.1771C198.358 24.91 198.097 24.6934 197.775 24.6934C197.453 24.6934 197.192 24.91 197.192 25.1771C197.192 25.4443 197.453 25.6609 197.775 25.6609Z" fill="white"/>
<path d="M197.06 26.6857C197.428 26.6857 197.726 26.438 197.726 26.1324C197.726 25.8268 197.428 25.5791 197.06 25.5791C196.692 25.5791 196.394 25.8268 196.394 26.1324C196.394 26.438 196.692 26.6857 197.06 26.6857Z" fill="#C9C5BD"/>
<path d="M197.108 26.5418C197.43 26.5418 197.691 26.3252 197.691 26.058C197.691 25.7908 197.43 25.5742 197.108 25.5742C196.786 25.5742 196.525 25.7908 196.525 26.058C196.525 26.3252 196.786 26.5418 197.108 26.5418Z" fill="white"/>
<path d="M196.593 27.6329C196.961 27.6329 197.26 27.3852 197.26 27.0796C197.26 26.7741 196.961 26.5264 196.593 26.5264C196.225 26.5264 195.927 26.7741 195.927 27.0796C195.927 27.3852 196.225 27.6329 196.593 27.6329Z" fill="#DDD5C5"/>
<path d="M196.641 27.4939C196.963 27.4939 197.224 27.2773 197.224 27.0102C197.224 26.743 196.963 26.5264 196.641 26.5264C196.319 26.5264 196.058 26.743 196.058 27.0102C196.058 27.2773 196.319 27.4939 196.641 27.4939Z" fill="white"/>
<path d="M195.927 28.4757C196.295 28.4757 196.594 28.228 196.594 27.9224C196.594 27.6169 196.295 27.3691 195.927 27.3691C195.559 27.3691 195.261 27.6169 195.261 27.9224C195.261 28.228 195.559 28.4757 195.927 28.4757Z" fill="#C9C5BD"/>
<path d="M195.975 28.3357C196.297 28.3357 196.558 28.1191 196.558 27.8519C196.558 27.5848 196.297 27.3682 195.975 27.3682C195.653 27.3682 195.393 27.5848 195.393 27.8519C195.393 28.1191 195.653 28.3357 195.975 28.3357Z" fill="white"/>
<path d="M195.222 29.2433C195.59 29.2433 195.889 28.9956 195.889 28.69C195.889 28.3844 195.59 28.1367 195.222 28.1367C194.854 28.1367 194.556 28.3844 194.556 28.69C194.556 28.9956 194.854 29.2433 195.222 29.2433Z" fill="#C9C5BD"/>
<path d="M195.27 29.1043C195.592 29.1043 195.853 28.8877 195.853 28.6205C195.853 28.3533 195.592 28.1367 195.27 28.1367C194.948 28.1367 194.688 28.3533 194.688 28.6205C194.688 28.8877 194.948 29.1043 195.27 29.1043Z" fill="white"/>
<path d="M194.352 29.9327C194.72 29.9327 195.018 29.685 195.018 29.3795C195.018 29.0739 194.72 28.8262 194.352 28.8262C193.984 28.8262 193.686 29.0739 193.686 29.3795C193.686 29.685 193.984 29.9327 194.352 29.9327Z" fill="#C9C5BD"/>
<path d="M194.4 29.7937C194.722 29.7937 194.983 29.5771 194.983 29.31C194.983 29.0428 194.722 28.8262 194.4 28.8262C194.078 28.8262 193.817 29.0428 193.817 29.31C193.817 29.5771 194.078 29.7937 194.4 29.7937Z" fill="white"/>
<path d="M193.342 30.3107C193.71 30.3107 194.008 30.0629 194.008 29.7574C194.008 29.4518 193.71 29.2041 193.342 29.2041C192.974 29.2041 192.675 29.4518 192.675 29.7574C192.675 30.0629 192.974 30.3107 193.342 30.3107Z" fill="#C9C5BD"/>
<path d="M193.39 30.1697C193.712 30.1697 193.973 29.9531 193.973 29.6859C193.973 29.4187 193.712 29.2021 193.39 29.2021C193.069 29.2021 192.808 29.4187 192.808 29.6859C192.808 29.9531 193.069 30.1697 193.39 30.1697Z" fill="white"/>
<path d="M192.108 30.2374C192.476 30.2374 192.775 29.9897 192.775 29.6841C192.775 29.3786 192.476 29.1309 192.108 29.1309C191.74 29.1309 191.442 29.3786 191.442 29.6841C191.442 29.9897 191.74 30.2374 192.108 30.2374Z" fill="#C9C5BD"/>
<path d="M192.157 30.0984C192.479 30.0984 192.74 29.8818 192.74 29.6146C192.74 29.3475 192.479 29.1309 192.157 29.1309C191.835 29.1309 191.574 29.3475 191.574 29.6146C191.574 29.8818 191.835 30.0984 192.157 30.0984Z" fill="white"/>
<path d="M191.046 29.6857C191.414 29.6857 191.712 29.4379 191.712 29.1324C191.712 28.8268 191.414 28.5791 191.046 28.5791C190.678 28.5791 190.379 28.8268 190.379 29.1324C190.379 29.4379 190.678 29.6857 191.046 29.6857Z" fill="#C9C5BD"/>
<path d="M191.098 29.5467C191.42 29.5467 191.681 29.3301 191.681 29.0629C191.681 28.7957 191.42 28.5791 191.098 28.5791C190.776 28.5791 190.515 28.7957 190.515 29.0629C190.515 29.3301 190.776 29.5467 191.098 29.5467Z" fill="white"/>
<path d="M190.151 29.0294C190.519 29.0294 190.818 28.7817 190.818 28.4761C190.818 28.1706 190.519 27.9229 190.151 27.9229C189.783 27.9229 189.485 28.1706 189.485 28.4761C189.485 28.7817 189.783 29.0294 190.151 29.0294Z" fill="#C9C5BD"/>
<path d="M190.2 28.8875C190.522 28.8875 190.783 28.6709 190.783 28.4037C190.783 28.1365 190.522 27.9199 190.2 27.9199C189.878 27.9199 189.617 28.1365 189.617 28.4037C189.617 28.6709 189.878 28.8875 190.2 28.8875Z" fill="white"/>
<path d="M189.484 28.2325C189.852 28.2325 190.151 27.9848 190.151 27.6793C190.151 27.3737 189.852 27.126 189.484 27.126C189.116 27.126 188.818 27.3737 188.818 27.6793C188.818 27.9848 189.116 28.2325 189.484 28.2325Z" fill="#C9C5BD"/>
<path d="M189.533 28.0935C189.855 28.0935 190.116 27.877 190.116 27.6098C190.116 27.3426 189.855 27.126 189.533 27.126C189.211 27.126 188.95 27.3426 188.95 27.6098C188.95 27.877 189.211 28.0935 189.533 28.0935Z" fill="white"/>
<path d="M188.951 27.4191C189.319 27.4191 189.617 27.1713 189.617 26.8658C189.617 26.5602 189.319 26.3125 188.951 26.3125C188.583 26.3125 188.284 26.5602 188.284 26.8658C188.284 27.1713 188.583 27.4191 188.951 27.4191Z" fill="#C9C5BD"/>
<path d="M188.999 27.2801C189.321 27.2801 189.582 27.0635 189.582 26.7963C189.582 26.5291 189.321 26.3125 188.999 26.3125C188.677 26.3125 188.417 26.5291 188.417 26.7963C188.417 27.0635 188.677 27.2801 188.999 27.2801Z" fill="white"/>
<path d="M188.377 26.7042C188.745 26.7042 189.044 26.4565 189.044 26.1509C189.044 25.8454 188.745 25.5977 188.377 25.5977C188.009 25.5977 187.711 25.8454 187.711 26.1509C187.711 26.4565 188.009 26.7042 188.377 26.7042Z" fill="#C9C5BD"/>
<path d="M188.425 26.5652C188.747 26.5652 189.008 26.3486 189.008 26.0814C189.008 25.8143 188.747 25.5977 188.425 25.5977C188.103 25.5977 187.842 25.8143 187.842 26.0814C187.842 26.3486 188.103 26.5652 188.425 26.5652Z" fill="white"/>
<path d="M187.793 25.9034C188.161 25.9034 188.46 25.6557 188.46 25.3502C188.46 25.0446 188.161 24.7969 187.793 24.7969C187.425 24.7969 187.127 25.0446 187.127 25.3502C187.127 25.6557 187.425 25.9034 187.793 25.9034Z" fill="#C9C5BD"/>
<path d="M187.843 25.7635C188.165 25.7635 188.426 25.5469 188.426 25.2797C188.426 25.0125 188.165 24.7959 187.843 24.7959C187.521 24.7959 187.26 25.0125 187.26 25.2797C187.26 25.5469 187.521 25.7635 187.843 25.7635Z" fill="white"/>
<path d="M187.077 25.1778C187.445 25.1778 187.743 24.9301 187.743 24.6246C187.743 24.319 187.445 24.0713 187.077 24.0713C186.709 24.0713 186.41 24.319 186.41 24.6246C186.41 24.9301 186.709 25.1778 187.077 25.1778Z" fill="#C9C5BD"/>
<path d="M187.127 25.034C187.449 25.034 187.709 24.8174 187.709 24.5502C187.709 24.283 187.449 24.0664 187.127 24.0664C186.805 24.0664 186.544 24.283 186.544 24.5502C186.544 24.8174 186.805 25.034 187.127 25.034Z" fill="white"/>
<path d="M204.844 20.0464V20.0651H181.251C181.251 17.411 183.154 13.5594 186.351 13.554L198.647 11.1485C201.85 11.1298 204.844 17.3843 204.844 20.0464Z" fill="#ED8A29"/>
<path d="M185.331 19.7053C184.599 19.7053 183.897 19.4641 183.379 19.0346C182.861 18.6051 182.569 18.0224 182.568 17.4147C182.569 16.8069 182.861 16.2243 183.379 15.7948C183.897 15.3653 184.599 15.124 185.331 15.124C186.063 15.124 186.764 15.3654 187.282 15.7949C187.799 16.2245 188.09 16.8071 188.09 17.4147C188.09 18.0222 187.799 18.6048 187.282 19.0344C186.764 19.464 186.063 19.7053 185.331 19.7053V19.7053Z" fill="#EFB19E"/>
<path d="M183.76 19.921C184.128 19.921 184.427 19.6733 184.427 19.3677C184.427 19.0622 184.128 18.8145 183.76 18.8145C183.392 18.8145 183.094 19.0622 183.094 19.3677C183.094 19.6733 183.392 19.921 183.76 19.921Z" fill="#C49318"/>
<path d="M183.812 19.782C184.134 19.782 184.394 19.5654 184.394 19.2982C184.394 19.0311 184.134 18.8145 183.812 18.8145C183.49 18.8145 183.229 19.0311 183.229 19.2982C183.229 19.5654 183.49 19.782 183.812 19.782Z" fill="#EDB61B"/>
<path d="M192.801 23.9661C187.808 23.9661 183.761 21.026 183.761 17.4176C183.761 13.8093 187.808 10.8691 192.801 10.8691C197.795 10.8691 201.839 13.8093 201.839 17.4176C201.839 21.026 197.792 23.9661 192.801 23.9661Z" fill="#EFB19E"/>
<path d="M193.177 20.5081C193.053 20.5242 192.927 20.5375 192.8 20.5482C192.305 20.5883 191.806 20.5883 191.31 20.5482C191.146 20.5482 190.988 20.5188 190.824 20.5001C189.053 20.2676 188.135 20.8262 189.156 21.2218C190.06 21.5239 191.024 21.6844 191.999 21.6949C192.975 21.6845 193.94 21.5241 194.845 21.2218C195.866 20.8395 194.948 20.2809 193.177 20.5081Z" fill="#E28E74"/>
<path d="M198.98 17.4193C198.977 16.9875 199.095 16.5612 199.325 16.1737C199.526 15.8247 199.845 15.5314 200.242 15.3291C200.601 15.1558 201.023 15.0969 201.43 15.1634C201.86 15.2412 202.246 15.4359 202.528 15.7167C202.851 16.0329 203.072 16.4117 203.172 16.8179C203.282 17.2458 203.275 17.6887 203.153 18.1142C203.039 18.5121 202.807 18.8798 202.477 19.1833C202.185 19.4531 201.793 19.633 201.363 19.6939C201.279 19.7045 201.196 19.7099 201.111 19.7099C200.971 19.7089 200.832 19.6945 200.696 19.6671C200.176 19.5398 199.734 19.2532 199.46 18.8653C199.142 18.4295 198.976 17.9289 198.98 17.4193V17.4193Z" fill="#EFB19E"/>
<path d="M202.537 18.2706C202.68 17.9967 202.751 17.7005 202.746 17.4019C202.747 17.1026 202.671 16.8065 202.524 16.5333C202.393 16.2845 202.188 16.0675 201.928 15.9025C201.695 15.7544 201.41 15.6728 201.117 15.6699C201.117 15.6699 203.016 16.1885 202.537 18.2706Z" fill="#BC6A4F"/>
<path d="M197.726 21.4675C198.034 21.3137 198.301 21.108 198.508 20.8634C198.716 20.6236 198.862 20.3505 198.936 20.0616C199.004 19.7958 198.991 19.5201 198.898 19.2597C198.81 19.0277 198.637 18.8246 198.402 18.6797C198.402 18.6797 199.577 20.0081 197.726 21.4675Z" fill="#BC6A4F"/>
<path d="M187.077 21.3656C186.734 21.2741 186.418 21.1238 186.149 20.9246C185.878 20.7281 185.659 20.4869 185.505 20.2163C185.369 19.9734 185.31 19.7058 185.332 19.4385C185.35 19.1953 185.463 18.9636 185.654 18.7783C185.654 18.7783 184.871 20.2992 187.077 21.3656Z" fill="#BC6A4F"/>
<path d="M189.581 20.7422C190.038 21.0362 190.949 21.2367 191.999 21.2367C193.049 21.2367 193.96 21.0362 194.42 20.7422C194.42 20.7422 191.989 21.4959 189.581 20.7422Z" fill="#BC6A4F"/>
<path d="M183.786 32.8032C183.786 32.8032 184.33 34.8079 184.317 34.7651C184.503 34.6657 184.702 34.5833 184.909 34.5192C184.848 33.9552 184.74 33.3953 184.587 32.8433C184.4 32.7713 184.202 32.7192 183.998 32.6883C183.998 32.6883 184.735 31.3519 184.574 28.9463C184.522 30.2555 184.256 31.5529 183.786 32.8032V32.8032Z" fill="#373684"/>
<path d="M177.147 34.9106C177.147 34.9106 176.767 33.6516 176.899 32.7963C176.899 32.7963 181.954 32.4088 184.462 32.8926C184.462 32.8926 184.826 34.3252 184.694 34.9106H177.147Z" fill="#FAF3ED"/>
<path d="M183.786 32.802C181.951 32.5802 179.34 32.6711 177.917 32.7459V32.5241C177.917 32.5241 182.511 32.4145 183.786 32.802Z" fill="#373684"/>
<path d="M202.311 33.1321C202.311 33.1321 201.767 35.134 201.78 35.0939C201.793 35.0538 201.188 34.8454 201.188 34.8454C201.251 34.2815 201.358 33.7217 201.509 33.1695C201.698 33.0976 201.897 33.0455 202.102 33.0145C202.102 33.0145 201.361 31.678 201.526 29.2725C201.576 30.5825 201.84 31.8809 202.311 33.1321V33.1321Z" fill="#373684"/>
<path d="M208.951 35.2506C208.951 35.2506 209.334 33.9943 209.202 33.1363C209.202 33.1363 204.144 32.7515 201.636 33.2352C201.636 33.2352 201.272 34.6652 201.407 35.2506H208.951Z" fill="#FAF3ED"/>
<path d="M202.312 33.1291C204.147 32.9072 206.819 32.9981 208.226 33.0756L208.207 32.8618C208.207 32.8618 203.59 32.7549 202.312 33.1291Z" fill="#373684"/>
<path d="M194.257 17.5057C194.257 17.9707 194.711 18.3477 195.271 18.3477C195.831 18.3477 196.285 17.9707 196.285 17.5057C196.285 17.0407 195.831 16.6638 195.271 16.6638C194.711 16.6638 194.257 17.0407 194.257 17.5057Z" fill="#1D1D1B"/>
<path d="M187.066 17.5057C187.066 17.9707 187.52 18.3477 188.081 18.3477C188.641 18.3477 189.095 17.9707 189.095 17.5057C189.095 17.0407 188.641 16.6638 188.081 16.6638C187.52 16.6638 187.066 17.0407 187.066 17.5057Z" fill="#1D1D1B"/>
<path d="M201.268 15.1264C201.423 14.8377 201.499 14.5239 201.491 14.2078C201.483 13.8916 201.39 13.581 201.22 13.2982C201.054 12.9573 200.917 12.6072 200.811 12.2504C200.602 11.7412 200.274 11.2715 199.845 10.8685C198.844 9.75664 196.567 9.77267 196.007 9.97581L195.585 10.1362C195.421 10.2003 195.263 10.1175 195.138 10.0186C194.78 9.76733 194.706 9.66576 193.799 9.5428C192.99 9.43322 192.543 9.54281 192.298 9.73526C192.183 9.82441 192.037 9.88017 191.881 9.89415C191.725 9.90814 191.567 9.87957 191.432 9.81277L191.345 9.77001C190.47 9.34737 189.43 9.22463 188.448 9.42787C184.99 10.1282 183.045 13.8889 183.512 14.7255C183.616 14.9154 183.766 15.085 183.955 15.2232C184.143 15.3613 184.364 15.465 184.603 15.5273C185.247 15.6904 185.611 12.6433 189.6 13.1939C189.6 13.1939 189.858 14.1187 191.413 14.5678C192.968 15.0168 194.661 13.25 194.661 13.25C194.661 13.25 194.526 14.386 196.645 15.121C198.131 15.6015 199.78 15.6034 201.268 15.1264V15.1264Z" fill="#ED8A29"/>
<path d="M191.365 14.6671C190.609 14.4799 189.968 14.0602 189.572 13.4938C189.176 12.8817 189.15 12.1279 189.501 11.2539L189.729 11.3181C189.407 12.1359 189.407 12.8362 189.784 13.4002C190.152 13.9135 190.738 14.2946 191.426 14.4693L191.365 14.6671Z" fill="#1D1D1B"/>
<path d="M196.6 15.2231C195.846 15.0351 195.206 14.6167 194.81 14.0524C194.41 13.4376 194.388 12.6838 194.739 11.8125L194.967 11.874C194.645 12.6919 194.645 13.3922 195.022 13.9535C195.39 14.4662 195.974 14.8473 196.661 15.0226L196.6 15.2231Z" fill="#1D1D1B"/>
<path d="M201.647 19.921C202.015 19.921 202.314 19.6733 202.314 19.3677C202.314 19.0622 202.015 18.8145 201.647 18.8145C201.279 18.8145 200.981 19.0622 200.981 19.3677C200.981 19.6733 201.279 19.921 201.647 19.921Z" fill="#C49318"/>
<path d="M201.699 19.782C202.021 19.782 202.282 19.5654 202.282 19.2982C202.282 19.0311 202.021 18.8145 201.699 18.8145C201.378 18.8145 201.117 19.0311 201.117 19.2982C201.117 19.5654 201.378 19.782 201.699 19.782Z" fill="#EDB61B"/>
<path opacity="0.6" d="M184.313 19.6778C184.313 19.6778 184.055 19.1272 183.991 18.8439C183.991 18.8439 183.991 18.8145 183.775 18.8145C183.812 19.1692 183.944 19.5126 184.161 19.8194C184.222 19.7804 184.273 19.7324 184.313 19.6778V19.6778Z" fill="#C49318"/>
<path opacity="0.6" d="M199.298 22.5264C199.298 22.5264 195.357 27.3696 195.392 34.7199H196.207V33.9181L199.298 22.5264Z" fill="#373684"/>
<path opacity="0.6" d="M186.21 22.3779C186.21 22.3779 190.151 27.2211 190.116 34.5715H189.301V33.7696L186.21 22.3779Z" fill="#373684"/>
<path d="M201.108 20.2998L202.36 23.6329L199.672 26.5971L199.462 30.3818L196.458 34.1398L196.487 33.1776C196.632 28.5135 198.036 24.2129 201.095 20.2998H201.108Z" fill="#373684"/>
<path d="M201.135 19.8242L202.388 23.1599L199.696 26.3674L199.49 30.1548L196.206 33.9128L196.235 32.9479C196.381 28.2837 198.077 23.7438 201.135 19.8296V19.8242Z" fill="#FAF3ED"/>
<path d="M184.488 20.2949L183.235 23.6306L185.927 26.5922L186.133 30.3769L189.127 34.1349L189.095 33.1727C188.953 28.5086 187.546 24.2106 184.488 20.2949Z" fill="#373684"/>
<path d="M184.45 19.8203L183.197 23.156L185.886 26.3634L186.095 30.1482L189.376 33.9062L189.347 32.944C189.203 28.2792 187.508 23.7382 184.45 19.823V19.8203Z" fill="#FAF3ED"/>
<path d="M185.792 17.2997C185.962 17.0259 186.19 16.7797 186.464 16.5727C186.738 16.353 187.069 16.1876 187.43 16.0889C187.814 15.9948 188.227 16.0274 188.583 16.1797C188.915 16.3323 189.186 16.5628 189.362 16.8426C189.105 16.6433 188.807 16.4832 188.483 16.3695C188.172 16.2762 187.834 16.2677 187.517 16.3455C187.191 16.433 186.885 16.5638 186.609 16.733C186.324 16.9084 186.05 17.0976 185.792 17.2997V17.2997Z" fill="#1D1D1B"/>
<path d="M197.852 17.2997C197.589 17.0973 197.312 16.9081 197.022 16.733C196.746 16.5638 196.44 16.433 196.114 16.3455C195.797 16.2677 195.459 16.2762 195.148 16.3695C194.824 16.4832 194.526 16.6433 194.269 16.8426C194.445 16.5628 194.716 16.3323 195.048 16.1797C195.404 16.0274 195.817 15.9948 196.201 16.0889C196.563 16.1876 196.893 16.353 197.167 16.5727C197.446 16.7788 197.678 17.025 197.852 17.2997V17.2997Z" fill="#1D1D1B"/>
</g>
<defs>
<clipPath id="clip0_731_8">
<rect width="9.33675" height="3.47471" fill="white" transform="translate(210.949 38.6699) rotate(-180)"/>
</clipPath>
<clipPath id="clip1_731_8">
<rect width="9.33675" height="3.47471" fill="white" transform="translate(184.227 38.4053) rotate(-180)"/>
</clipPath>
</defs>
</svg>
