<svg width="191" height="48" viewBox="0 0 191 48" fill="none" xmlns="http://www.w3.org/2000/svg">
<rect width="190.636" height="47.6591" fill="#46A882"/>
<mask id="mask0_669_7" style="mask-type:alpha" maskUnits="userSpaceOnUse" x="149" y="7" width="33" height="34">
<circle cx="165.658" cy="24.004" r="15.5617" fill="#A27474" stroke="black"/>
</mask>
<g mask="url(#mask0_669_7)">
<path d="M171.87 20.6881H171.97C175.026 20.7856 177.203 21.1561 177.509 22.7906C178.742 29.3354 179.228 38.3075 179.228 38.3075L166.048 42.2818H165.492L152.92 38.3075C152.92 38.3075 153.315 24.214 154.137 22.7906C154.693 21.8547 156.637 20.7824 159.67 20.6816H171.892L171.87 20.6881Z" fill="#5154A1"/>
<path d="M160.696 24.8301C160.696 24.8301 166.013 28.8704 170.754 24.8301C170.754 24.8301 168.539 39.2108 168.846 40.9416H162.97L160.696 24.8301Z" fill="#373684"/>
<g clip-path="url(#clip0_669_7)">
<path d="M181.443 36.4646C181.443 36.4646 181.351 39.6258 180.208 38.6228C180.208 38.6228 179.629 40.202 178.932 38.9811C178.932 38.9811 178.263 40.7721 177.671 38.9094C177.671 38.9094 176.895 41.2408 176.107 38.6945C176.107 38.6945 173.609 42.9483 173.413 36.4646L181.443 36.4646Z" fill="#EFB19E"/>
<path d="M180.513 36.4648C180.513 37.2639 180.404 38.0342 180.206 38.623C180.206 38.623 180.605 37.9962 180.513 36.4648Z" fill="#BC6A4F"/>
<path d="M179.134 36.464C179.196 38.2223 178.933 38.9805 178.933 38.9805C178.933 38.9805 179.332 38.3387 179.134 36.464Z" fill="#BC6A4F"/>
<path d="M177.98 36.4644C177.961 37.3412 177.854 38.1871 177.671 38.9092C177.79 38.5971 177.879 38.2129 177.933 37.7879C177.987 37.363 178.003 36.9094 177.98 36.4644Z" fill="#BC6A4F"/>
<path d="M175.809 37.2854C175.868 37.8106 175.969 38.2924 176.106 38.6943C176.015 38.5557 175.938 38.3512 175.886 38.1029C175.833 37.8546 175.807 37.5719 175.809 37.2854Z" fill="#BC6A4F"/>
</g>
<g clip-path="url(#clip1_669_7)">
<path d="M158.459 36.1902C158.459 36.1902 158.367 39.3514 157.224 38.3484C157.224 38.3484 156.645 39.9275 155.948 38.7066C155.948 38.7066 155.278 40.4977 154.686 38.635C154.686 38.635 153.911 40.9664 153.123 38.4201C153.123 38.4201 150.625 42.6738 150.428 36.1902L158.459 36.1902Z" fill="#EFB19E"/>
<path d="M157.529 36.1904C157.529 36.9895 157.419 37.7598 157.221 38.3486C157.221 38.3486 157.621 37.7218 157.529 36.1904Z" fill="#BC6A4F"/>
<path d="M156.149 36.1896C156.212 37.9478 155.948 38.7061 155.948 38.7061C155.948 38.7061 156.348 38.0643 156.149 36.1896Z" fill="#BC6A4F"/>
<path d="M154.995 36.19C154.977 37.0668 154.87 37.9127 154.687 38.6348C154.805 38.3227 154.895 37.9385 154.949 37.5135C155.002 37.0886 155.018 36.635 154.995 36.19Z" fill="#BC6A4F"/>
<path d="M152.824 37.011C152.883 37.5362 152.985 38.018 153.122 38.4199C153.03 38.2813 152.954 38.0768 152.901 37.8285C152.849 37.5802 152.822 37.2975 152.824 37.011Z" fill="#BC6A4F"/>
</g>
<path d="M165.778 35.8095L165.781 26.6211L165.476 35.8206L165.778 35.8095Z" fill="#2C2C6B"/>
<path d="M170.755 25.9004C171.072 25.9004 171.329 25.6437 171.329 25.3271C171.329 25.0106 171.072 24.7539 170.755 24.7539C170.439 24.7539 170.182 25.0106 170.182 25.3271C170.182 25.6437 170.439 25.9004 170.755 25.9004Z" fill="#C9C5BD"/>
<path d="M170.797 25.7554C171.073 25.7554 171.298 25.531 171.298 25.2542C171.298 24.9773 171.073 24.7529 170.797 24.7529C170.52 24.7529 170.295 24.9773 170.295 25.2542C170.295 25.531 170.52 25.7554 170.797 25.7554Z" fill="white"/>
<path d="M170.07 26.7295C170.387 26.7295 170.644 26.4728 170.644 26.1562C170.644 25.8397 170.387 25.583 170.07 25.583C169.754 25.583 169.497 25.8397 169.497 26.1562C169.497 26.4728 169.754 26.7295 170.07 26.7295Z" fill="#C9C5BD"/>
<path d="M170.112 26.5855C170.389 26.5855 170.613 26.3611 170.613 26.0842C170.613 25.8074 170.389 25.583 170.112 25.583C169.835 25.583 169.611 25.8074 169.611 26.0842C169.611 26.3611 169.835 26.5855 170.112 26.5855Z" fill="white"/>
<path d="M169.497 27.6474C169.814 27.6474 170.07 27.3908 170.07 27.0742C170.07 26.7576 169.814 26.501 169.497 26.501C169.18 26.501 168.924 26.7576 168.924 27.0742C168.924 27.3908 169.18 27.6474 169.497 27.6474Z" fill="#C9C5BD"/>
<path d="M169.538 27.4986C169.815 27.4986 170.04 27.2742 170.04 26.9973C170.04 26.7205 169.815 26.4961 169.538 26.4961C169.262 26.4961 169.037 26.7205 169.037 26.9973C169.037 27.2742 169.262 27.4986 169.538 27.4986Z" fill="white"/>
<path d="M169.096 28.6289C169.412 28.6289 169.669 28.3722 169.669 28.0557C169.669 27.7391 169.412 27.4824 169.096 27.4824C168.779 27.4824 168.522 27.7391 168.522 28.0557C168.522 28.3722 168.779 28.6289 169.096 28.6289Z" fill="#DDD5C5"/>
<path d="M169.136 28.4849C169.413 28.4849 169.638 28.2605 169.638 27.9837C169.638 27.7068 169.413 27.4824 169.136 27.4824C168.86 27.4824 168.635 27.7068 168.635 27.9837C168.635 28.2605 168.86 28.4849 169.136 28.4849Z" fill="white"/>
<path d="M168.523 29.5019C168.84 29.5019 169.096 29.2453 169.096 28.9287C169.096 28.6121 168.84 28.3555 168.523 28.3555C168.206 28.3555 167.95 28.6121 167.95 28.9287C167.95 29.2453 168.206 29.5019 168.523 29.5019Z" fill="#C9C5BD"/>
<path d="M168.564 29.357C168.841 29.357 169.065 29.1326 169.065 28.8557C169.065 28.5789 168.841 28.3545 168.564 28.3545C168.287 28.3545 168.063 28.5789 168.063 28.8557C168.063 29.1326 168.287 29.357 168.564 29.357Z" fill="white"/>
<path d="M167.916 30.2978C168.233 30.2978 168.49 30.0412 168.49 29.7246C168.49 29.408 168.233 29.1514 167.916 29.1514C167.6 29.1514 167.343 29.408 167.343 29.7246C167.343 30.0412 167.6 30.2978 167.916 30.2978Z" fill="#C9C5BD"/>
<path d="M167.958 30.1538C168.235 30.1538 168.459 29.9294 168.459 29.6526C168.459 29.3758 168.235 29.1514 167.958 29.1514C167.681 29.1514 167.457 29.3758 167.457 29.6526C167.457 29.9294 167.681 30.1538 167.958 30.1538Z" fill="white"/>
<path d="M167.168 31.0117C167.485 31.0117 167.741 30.7551 167.741 30.4385C167.741 30.1219 167.485 29.8652 167.168 29.8652C166.851 29.8652 166.595 30.1219 166.595 30.4385C166.595 30.7551 166.851 31.0117 167.168 31.0117Z" fill="#C9C5BD"/>
<path d="M167.209 30.8677C167.486 30.8677 167.71 30.6433 167.71 30.3665C167.71 30.0896 167.486 29.8652 167.209 29.8652C166.932 29.8652 166.708 30.0896 166.708 30.3665C166.708 30.6433 166.932 30.8677 167.209 30.8677Z" fill="white"/>
<path d="M166.299 31.4033C166.615 31.4033 166.872 31.1467 166.872 30.8301C166.872 30.5135 166.615 30.2568 166.299 30.2568C165.982 30.2568 165.726 30.5135 165.726 30.8301C165.726 31.1467 165.982 31.4033 166.299 31.4033Z" fill="#C9C5BD"/>
<path d="M166.341 31.2574C166.617 31.2574 166.842 31.0329 166.842 30.7561C166.842 30.4793 166.617 30.2549 166.341 30.2549C166.064 30.2549 165.839 30.4793 165.839 30.7561C165.839 31.0329 166.064 31.2574 166.341 31.2574Z" fill="white"/>
<path d="M165.238 31.3271C165.555 31.3271 165.812 31.0705 165.812 30.7539C165.812 30.4373 165.555 30.1807 165.238 30.1807C164.922 30.1807 164.665 30.4373 164.665 30.7539C164.665 31.0705 164.922 31.3271 165.238 31.3271Z" fill="#C9C5BD"/>
<path d="M165.28 31.1831C165.557 31.1831 165.781 30.9587 165.781 30.6819C165.781 30.4051 165.557 30.1807 165.28 30.1807C165.003 30.1807 164.779 30.4051 164.779 30.6819C164.779 30.9587 165.003 31.1831 165.28 31.1831Z" fill="white"/>
<path d="M164.324 30.7558C164.641 30.7558 164.897 30.4992 164.897 30.1826C164.897 29.866 164.641 29.6094 164.324 29.6094C164.008 29.6094 163.751 29.866 163.751 30.1826C163.751 30.4992 164.008 30.7558 164.324 30.7558Z" fill="#C9C5BD"/>
<path d="M164.369 30.6118C164.646 30.6118 164.87 30.3874 164.87 30.1106C164.87 29.8338 164.646 29.6094 164.369 29.6094C164.092 29.6094 163.868 29.8338 163.868 30.1106C163.868 30.3874 164.092 30.6118 164.369 30.6118Z" fill="white"/>
<path d="M163.555 30.0762C163.871 30.0762 164.128 29.8195 164.128 29.5029C164.128 29.1863 163.871 28.9297 163.555 28.9297C163.238 28.9297 162.981 29.1863 162.981 29.5029C162.981 29.8195 163.238 30.0762 163.555 30.0762Z" fill="#C9C5BD"/>
<path d="M163.596 29.9292C163.873 29.9292 164.098 29.7048 164.098 29.428C164.098 29.1512 163.873 28.9268 163.596 28.9268C163.32 28.9268 163.095 29.1512 163.095 29.428C163.095 29.7048 163.32 29.9292 163.596 29.9292Z" fill="white"/>
<path d="M162.981 29.25C163.298 29.25 163.554 28.9933 163.554 28.6768C163.554 28.3602 163.298 28.1035 162.981 28.1035C162.664 28.1035 162.408 28.3602 162.408 28.6768C162.408 28.9933 162.664 29.25 162.981 29.25Z" fill="#C9C5BD"/>
<path d="M163.023 29.106C163.3 29.106 163.524 28.8816 163.524 28.6048C163.524 28.3279 163.3 28.1035 163.023 28.1035C162.746 28.1035 162.521 28.3279 162.521 28.6048C162.521 28.8816 162.746 29.106 163.023 29.106Z" fill="white"/>
<path d="M162.522 28.4072C162.839 28.4072 163.095 28.1506 163.095 27.834C163.095 27.5174 162.839 27.2607 162.522 27.2607C162.205 27.2607 161.949 27.5174 161.949 27.834C161.949 28.1506 162.205 28.4072 162.522 28.4072Z" fill="#C9C5BD"/>
<path d="M162.564 28.2632C162.841 28.2632 163.065 28.0388 163.065 27.762C163.065 27.4852 162.841 27.2607 162.564 27.2607C162.287 27.2607 162.062 27.4852 162.062 27.762C162.062 28.0388 162.287 28.2632 162.564 28.2632Z" fill="white"/>
<path d="M162.029 27.667C162.345 27.667 162.602 27.4103 162.602 27.0937C162.602 26.7772 162.345 26.5205 162.029 26.5205C161.712 26.5205 161.456 26.7772 161.456 27.0937C161.456 27.4103 161.712 27.667 162.029 27.667Z" fill="#C9C5BD"/>
<path d="M162.07 27.523C162.347 27.523 162.571 27.2986 162.571 27.0217C162.571 26.7449 162.347 26.5205 162.07 26.5205C161.793 26.5205 161.569 26.7449 161.569 27.0217C161.569 27.2986 161.793 27.523 162.07 27.523Z" fill="white"/>
<path d="M161.527 26.8369C161.843 26.8369 162.1 26.5803 162.1 26.2637C162.1 25.9471 161.843 25.6904 161.527 25.6904C161.21 25.6904 160.954 25.9471 160.954 26.2637C160.954 26.5803 161.21 26.8369 161.527 26.8369Z" fill="#C9C5BD"/>
<path d="M161.569 26.6919C161.846 26.6919 162.07 26.4675 162.07 26.1907C162.07 25.9139 161.846 25.6895 161.569 25.6895C161.292 25.6895 161.068 25.9139 161.068 26.1907C161.068 26.4675 161.292 26.6919 161.569 26.6919Z" fill="white"/>
<path d="M160.91 26.0849C161.227 26.0849 161.483 25.8283 161.483 25.5117C161.483 25.1951 161.227 24.9385 160.91 24.9385C160.594 24.9385 160.337 25.1951 160.337 25.5117C160.337 25.8283 160.594 26.0849 160.91 26.0849Z" fill="#C9C5BD"/>
<path d="M160.953 25.9361C161.23 25.9361 161.455 25.7117 161.455 25.4348C161.455 25.158 161.23 24.9336 160.953 24.9336C160.677 24.9336 160.452 25.158 160.452 25.4348C160.452 25.7117 160.677 25.9361 160.953 25.9361Z" fill="white"/>
<path d="M176.193 20.7687V20.7881H155.9C155.9 18.0382 157.537 14.0477 160.286 14.0422L170.862 11.5498C173.618 11.5305 176.193 18.0105 176.193 20.7687Z" fill="#ED8A29"/>
<path d="M159.408 20.4154C158.779 20.4154 158.175 20.1655 157.729 19.7205C157.284 19.2755 157.033 18.6719 157.032 18.0422C157.033 17.4125 157.284 16.8089 157.729 16.3639C158.175 15.9189 158.779 15.6689 159.408 15.6689C160.038 15.6689 160.641 15.919 161.086 16.3641C161.531 16.8091 161.781 17.4128 161.781 18.0422C161.781 18.6716 161.531 19.2753 161.086 19.7203C160.641 20.1654 160.038 20.4154 159.408 20.4154Z" fill="#EFB19E"/>
<path d="M158.058 20.6387C158.374 20.6387 158.631 20.382 158.631 20.0654C158.631 19.7488 158.374 19.4922 158.058 19.4922C157.741 19.4922 157.484 19.7488 157.484 20.0654C157.484 20.382 157.741 20.6387 158.058 20.6387Z" fill="#C49318"/>
<path d="M158.102 20.4947C158.379 20.4947 158.603 20.2702 158.603 19.9934C158.603 19.7166 158.379 19.4922 158.102 19.4922C157.825 19.4922 157.601 19.7166 157.601 19.9934C157.601 20.2702 157.825 20.4947 158.102 20.4947Z" fill="#EDB61B"/>
<path d="M165.834 24.8301C161.539 24.8301 158.058 21.7839 158.058 18.0454C158.058 14.3069 161.539 11.2607 165.834 11.2607C170.129 11.2607 173.607 14.3069 173.607 18.0454C173.607 21.7839 170.126 24.8301 165.834 24.8301Z" fill="#EFB19E"/>
<path d="M166.157 21.2467C166.05 21.2633 165.942 21.2772 165.833 21.2883C165.407 21.3298 164.977 21.3298 164.551 21.2883C164.41 21.2883 164.274 21.2578 164.133 21.2384C162.61 20.9975 161.821 21.5763 162.698 21.9861C163.476 22.2992 164.305 22.4654 165.144 22.4763C165.983 22.4655 166.813 22.2993 167.592 21.9861C168.47 21.5901 167.68 21.0113 166.157 21.2467Z" fill="#E28E74"/>
<path d="M171.149 18.0465C171.146 17.5992 171.247 17.1575 171.445 16.756C171.618 16.3945 171.892 16.0906 172.234 15.881C172.542 15.7014 172.906 15.6404 173.256 15.7093C173.626 15.7899 173.958 15.9916 174.2 16.2825C174.478 16.6102 174.668 17.0026 174.754 17.4234C174.849 17.8668 174.843 18.3256 174.737 18.7665C174.64 19.1788 174.44 19.5597 174.156 19.8742C173.905 20.1537 173.568 20.3401 173.198 20.4031C173.126 20.4142 173.054 20.4197 172.982 20.4198C172.861 20.4187 172.742 20.4038 172.625 20.3754C172.177 20.2435 171.797 19.9465 171.561 19.5447C171.287 19.0932 171.145 18.5745 171.149 18.0465Z" fill="#EFB19E"/>
<path d="M174.208 18.9289C174.331 18.645 174.392 18.3382 174.388 18.0289C174.388 17.7187 174.323 17.4119 174.196 17.1289C174.084 16.8712 173.908 16.6463 173.684 16.4753C173.484 16.3219 173.239 16.2374 172.986 16.2344C172.986 16.2344 174.62 16.7716 174.208 18.9289Z" fill="#BC6A4F"/>
<path d="M170.07 22.2409C170.335 22.0816 170.565 21.8684 170.743 21.615C170.922 21.3665 171.047 21.0837 171.111 20.7843C171.17 20.5089 171.158 20.2233 171.078 19.9535C171.003 19.7131 170.853 19.5027 170.651 19.3525C170.651 19.3525 171.662 20.7289 170.07 22.2409Z" fill="#BC6A4F"/>
<path d="M160.91 22.1357C160.615 22.0408 160.343 21.8852 160.113 21.6788C159.879 21.4751 159.69 21.2252 159.559 20.9449C159.442 20.6932 159.39 20.416 159.409 20.1391C159.425 19.8871 159.522 19.6471 159.686 19.4551C159.686 19.4551 159.013 21.0308 160.91 22.1357Z" fill="#BC6A4F"/>
<path d="M163.064 21.4893C163.458 21.7939 164.241 22.0016 165.144 22.0016C166.047 22.0016 166.831 21.7939 167.227 21.4893C167.227 21.4893 165.136 22.2702 163.064 21.4893Z" fill="#BC6A4F"/>
<path d="M158.08 33.9853C158.08 33.9853 158.548 36.0622 158.537 36.0179C158.697 35.915 158.868 35.8295 159.046 35.7631C158.993 35.1788 158.901 34.5987 158.769 34.0268C158.608 33.9523 158.437 33.8983 158.262 33.8662C158.262 33.8662 158.897 32.4816 158.758 29.9893C158.713 31.3457 158.484 32.6899 158.08 33.9853Z" fill="#373684"/>
<path d="M152.369 36.1689C152.369 36.1689 152.042 34.8645 152.156 33.9784C152.156 33.9784 156.504 33.5769 158.661 34.0781C158.661 34.0781 158.974 35.5624 158.86 36.1689H152.369Z" fill="#FAF3ED"/>
<path d="M158.08 33.9845C156.501 33.7546 154.255 33.8488 153.031 33.9263V33.6965C153.031 33.6965 156.983 33.5829 158.08 33.9845Z" fill="#373684"/>
<path d="M174.014 34.326C174.014 34.326 173.546 36.4001 173.557 36.3586C173.568 36.3171 173.047 36.1011 173.047 36.1011C173.102 35.5169 173.194 34.9369 173.324 34.3647C173.487 34.2903 173.658 34.2363 173.834 34.2041C173.834 34.2041 173.197 32.8195 173.338 30.3271C173.382 31.6845 173.609 33.0297 174.014 34.326Z" fill="#373684"/>
<path d="M179.725 36.5215C179.725 36.5215 180.054 35.22 179.941 34.331C179.941 34.331 175.59 33.9323 173.433 34.4335C173.433 34.4335 173.12 35.915 173.236 36.5215H179.725Z" fill="#FAF3ED"/>
<path d="M174.014 34.3238C175.593 34.094 177.891 34.1881 179.101 34.2684L179.085 34.0469C179.085 34.0469 175.114 33.9361 174.014 34.3238Z" fill="#373684"/>
<path d="M167.086 18.1365C167.086 18.6182 167.476 19.0088 167.958 19.0088C168.44 19.0088 168.831 18.6182 168.831 18.1365C168.831 17.6547 168.44 17.2642 167.958 17.2642C167.476 17.2642 167.086 17.6547 167.086 18.1365Z" fill="#1D1D1B"/>
<path d="M160.901 18.1365C160.901 18.6182 161.292 19.0088 161.774 19.0088C162.255 19.0088 162.646 18.6182 162.646 18.1365C162.646 17.6547 162.255 17.2642 161.774 17.2642C161.292 17.2642 160.901 17.6547 160.901 18.1365Z" fill="#1D1D1B"/>
<path d="M173.117 15.6713C173.25 15.3722 173.316 15.0471 173.309 14.7196C173.301 14.392 173.222 14.0702 173.075 13.7772C172.933 13.424 172.815 13.0612 172.723 12.6916C172.544 12.1641 172.262 11.6774 171.893 11.2599C171.031 10.1079 169.074 10.1245 168.592 10.335L168.229 10.5011C168.088 10.5676 167.952 10.4817 167.844 10.3793C167.537 10.119 167.473 10.0137 166.692 9.88634C165.997 9.7728 165.612 9.88635 165.401 10.0857C165.303 10.1781 165.177 10.2359 165.042 10.2504C164.908 10.2649 164.773 10.2353 164.657 10.166L164.582 10.1217C163.829 9.68386 162.935 9.5567 162.089 9.76727C159.115 10.4928 157.443 14.3892 157.844 15.2559C157.933 15.4527 158.063 15.6284 158.225 15.7716C158.387 15.9147 158.577 16.0221 158.783 16.0867C159.337 16.2556 159.65 13.0987 163.081 13.6692C163.081 13.6692 163.302 14.6273 164.64 15.0926C165.977 15.5578 167.434 13.7273 167.434 13.7273C167.434 13.7273 167.318 14.9042 169.14 15.6658C170.418 16.1636 171.837 16.1655 173.117 15.6713Z" fill="#ED8A29"/>
<path d="M164.599 15.1955C163.948 15.0015 163.397 14.5667 163.056 13.9798C162.715 13.3457 162.693 12.5647 162.995 11.6592L163.192 11.7256C162.915 12.573 162.915 13.2986 163.239 13.8829C163.556 14.4147 164.059 14.8096 164.651 14.9906L164.599 15.1955Z" fill="#1D1D1B"/>
<path d="M169.101 15.7719C168.453 15.5771 167.903 15.1436 167.561 14.5589C167.218 13.922 167.199 13.1411 167.501 12.2383L167.697 12.302C167.42 13.1494 167.42 13.8749 167.744 14.4565C168.06 14.9877 168.563 15.3825 169.154 15.5642L169.101 15.7719Z" fill="#1D1D1B"/>
<path d="M173.443 20.6387C173.759 20.6387 174.016 20.382 174.016 20.0654C174.016 19.7488 173.759 19.4922 173.443 19.4922C173.126 19.4922 172.87 19.7488 172.87 20.0654C172.87 20.382 173.126 20.6387 173.443 20.6387Z" fill="#C49318"/>
<path d="M173.488 20.4947C173.764 20.4947 173.989 20.2702 173.989 19.9934C173.989 19.7166 173.764 19.4922 173.488 19.4922C173.211 19.4922 172.986 19.7166 172.986 19.9934C172.986 20.2702 173.211 20.4947 173.488 20.4947Z" fill="#EDB61B"/>
<path opacity="0.6" d="M158.533 20.3867C158.533 20.3867 158.311 19.8162 158.256 19.5227C158.256 19.5227 158.256 19.4922 158.07 19.4922C158.102 19.8597 158.215 20.2156 158.403 20.5334C158.455 20.493 158.499 20.4432 158.533 20.3867Z" fill="#C49318"/>
<path opacity="0.6" d="M171.422 23.3379C171.422 23.3379 168.032 28.3558 168.063 35.9712H168.763V35.1404L171.422 23.3379Z" fill="#373684"/>
<path opacity="0.6" d="M160.165 23.1846C160.165 23.1846 163.555 28.2025 163.524 35.8179H162.824V34.9871L160.165 23.1846Z" fill="#373684"/>
<path d="M172.979 21.0312L174.056 24.4845L171.744 27.5556L171.564 31.4769L168.98 35.3704L169.005 34.3735C169.13 29.5412 170.337 25.0854 172.968 21.0312H172.979Z" fill="#373684"/>
<path d="M173.002 20.5391L174.08 23.9951L171.765 27.3182L171.587 31.2422L168.763 35.1358L168.788 34.1361C168.913 29.3037 170.372 24.6 173.002 20.5446V20.5391Z" fill="#FAF3ED"/>
<path d="M158.683 21.0264L157.606 24.4824L159.921 27.5507L160.098 31.472L162.674 35.3656L162.646 34.3686C162.524 29.5363 161.314 25.0833 158.683 21.0264Z" fill="#373684"/>
<path d="M158.65 20.5342L157.573 23.9902L159.886 27.3133L160.066 31.2346L162.887 35.1281L162.863 34.1312C162.739 29.2981 161.281 24.5934 158.65 20.537V20.5342Z" fill="#FAF3ED"/>
<path d="M159.805 17.9234C159.951 17.6397 160.147 17.3846 160.383 17.1701C160.619 16.9426 160.903 16.7712 161.214 16.6689C161.544 16.5715 161.9 16.6052 162.206 16.763C162.492 16.9211 162.725 17.16 162.876 17.4498C162.655 17.2433 162.399 17.0774 162.12 16.9597C161.853 16.863 161.561 16.8542 161.289 16.9347C161.009 17.0254 160.745 17.161 160.508 17.3363C160.262 17.518 160.027 17.714 159.805 17.9234Z" fill="#1D1D1B"/>
<path d="M170.179 17.9234C169.953 17.7137 169.714 17.5177 169.464 17.3363C169.228 17.161 168.964 17.0254 168.683 16.9347C168.411 16.8542 168.12 16.863 167.853 16.9597C167.574 17.0774 167.318 17.2433 167.097 17.4498C167.248 17.16 167.481 16.9211 167.767 16.763C168.073 16.6052 168.428 16.5715 168.758 16.6689C169.069 16.7712 169.353 16.9426 169.589 17.1701C169.829 17.3837 170.029 17.6388 170.179 17.9234Z" fill="#1D1D1B"/>
</g>
<defs>
<clipPath id="clip0_669_7">
<rect width="8.03083" height="3.60003" fill="white" transform="translate(181.443 40.0645) rotate(-180)"/>
</clipPath>
<clipPath id="clip1_669_7">
<rect width="8.03083" height="3.60003" fill="white" transform="translate(158.459 39.79) rotate(-180)"/>
</clipPath>
</defs>
</svg>
