<svg width="158" height="48" viewBox="0 0 158 48" fill="none" xmlns="http://www.w3.org/2000/svg">
<rect y="0.22168" width="157.275" height="47.6591" fill="#EC8989"/>
<mask id="mask0_426_6" style="mask-type:alpha" maskUnits="userSpaceOnUse" x="115" y="2" width="38" height="38">
<path d="M152.244 21.4042C152.244 31.6403 143.946 39.9383 133.71 39.9383C123.474 39.9383 115.176 31.6403 115.176 21.4042C115.176 11.1681 123.474 2.87012 133.71 2.87012C143.946 2.87012 152.244 11.1681 152.244 21.4042Z" fill="#EC8989"/>
</mask>
<g mask="url(#mask0_426_6)">
<path d="M117.922 37.2062C117.922 37.2062 116.331 23.1642 125.93 17.873L139.491 18.1606C139.491 18.1606 145.288 20.1433 146.066 36.8582L132.614 42.5852L117.922 37.2062Z" fill="#5154A1"/>
<path d="M139.257 17.7119C139.257 17.7119 136.148 21.6419 132.055 21.4547L132.856 24.4841C132.856 24.4841 139.35 20.5249 139.257 17.7119Z" fill="#373684"/>
<path d="M139.257 17.7119C139.257 17.7119 135.912 21.408 131.818 21.2208L132.608 24.2472C132.608 24.2472 138.514 21.098 139.257 17.7119Z" fill="#FAF3ED"/>
<path d="M130.789 21.001L130.16 24.0917C130.16 24.0917 126.578 20.0331 126.359 17.4336C126.356 17.4336 129.435 20.7934 130.789 21.001Z" fill="#373684"/>
<path d="M130.619 20.96L129.877 23.9514C129.877 23.9514 126.578 20.0302 126.368 17.4336C127.383 19.0228 128.87 20.2555 130.619 20.96Z" fill="#FAF3ED"/>
<path d="M131.73 22.619C131.73 22.619 132.391 30.2596 132.812 32.0052C133.233 33.7509 131.277 35.5551 131.16 36.1574H128.639C128.639 36.1574 127.432 33.9907 127.701 32.3561C127.97 30.7216 130.958 22.5225 130.958 22.5225L131.73 22.619Z" fill="#C7361A"/>
<path d="M131.599 22.5711C131.599 22.5711 132.26 30.2117 132.681 31.9574C133.102 33.7031 131.143 35.5072 131.026 36.1096H128.514C128.514 36.1096 127.304 33.9428 127.575 32.3083C127.847 30.6737 130.824 22.4717 130.824 22.4717L131.599 22.5711Z" fill="#E8461C"/>
<path d="M130.818 22.2888L131.178 21.9057C131.199 21.8825 131.225 21.8644 131.254 21.8531C131.283 21.8411 131.314 21.8361 131.345 21.8385C131.376 21.841 131.407 21.8499 131.435 21.8648C131.462 21.8796 131.485 21.9007 131.502 21.9262L131.874 22.4467C131.891 22.4689 131.903 22.4945 131.909 22.5216C131.916 22.5488 131.917 22.5771 131.912 22.6046C131.908 22.6321 131.898 22.6585 131.884 22.6822C131.869 22.7058 131.85 22.7262 131.827 22.742L131.307 23.1104C131.281 23.1285 131.252 23.1405 131.222 23.1455C131.191 23.1529 131.159 23.1529 131.128 23.1455C131.098 23.1368 131.07 23.1219 131.046 23.1017C131.022 23.081 131.003 23.055 130.991 23.0256L130.777 22.5198C130.766 22.4807 130.766 22.439 130.777 22.3999C130.78 22.3596 130.794 22.321 130.818 22.2888V22.2888Z" fill="#C7361A"/>
<path d="M130.751 22.2644L131.099 21.8931C131.12 21.8716 131.145 21.8547 131.172 21.8434C131.201 21.8361 131.231 21.8361 131.26 21.8434C131.29 21.8438 131.319 21.8519 131.345 21.8668C131.372 21.8816 131.395 21.9026 131.412 21.9282L131.769 22.4311C131.784 22.4521 131.795 22.476 131.801 22.5013C131.807 22.5273 131.807 22.5542 131.801 22.5802C131.797 22.6074 131.787 22.6334 131.772 22.6563C131.758 22.6791 131.74 22.6989 131.719 22.7147L131.222 23.0686C131.196 23.0857 131.168 23.0976 131.137 23.1036C131.107 23.1095 131.077 23.1095 131.047 23.1036C131.018 23.0949 130.991 23.08 130.968 23.0598C130.945 23.0401 130.926 23.015 130.915 22.9867L130.71 22.4984C130.699 22.4612 130.699 22.4214 130.71 22.3843C130.712 22.3411 130.726 22.2993 130.751 22.2644V22.2644Z" fill="#E8461C"/>
<path d="M127.441 17.6809C127.114 17.6809 126.79 17.6164 126.488 17.4912C126.186 17.366 125.911 17.1824 125.68 16.951C125.449 16.7196 125.266 16.445 125.141 16.1427C125.016 15.8405 124.952 15.5166 124.952 15.1896C124.952 14.5296 125.214 13.8967 125.681 13.43C126.148 12.9634 126.781 12.7012 127.441 12.7012C128.101 12.7012 128.734 12.9633 129.201 13.4298C129.668 13.8964 129.931 14.5293 129.932 15.1896C129.932 15.8503 129.669 16.484 129.202 16.9512C128.735 17.4184 128.101 17.6809 127.441 17.6809V17.6809Z" fill="#F39672"/>
<path d="M137.42 15.2116C137.418 14.7425 137.524 14.2792 137.73 13.8578C137.912 13.4773 138.2 13.1581 138.561 12.9396C138.886 12.7455 139.271 12.6779 139.643 12.7496C140.031 12.8328 140.379 13.0451 140.631 13.3519C140.924 13.695 141.125 14.1064 141.216 14.5479C141.314 15.0133 141.307 15.4949 141.195 15.9573C141.095 16.3924 140.886 16.7949 140.587 17.1269C140.323 17.4187 139.969 17.6133 139.581 17.6796C139.507 17.6912 139.432 17.6971 139.356 17.6971C139.23 17.6977 139.104 17.682 138.982 17.6503C138.514 17.5144 138.115 17.2062 137.865 16.7877C137.571 16.3146 137.417 15.7684 137.42 15.2116V15.2116Z" fill="#F39672"/>
<path d="M132.869 21.2587C128.989 21.2587 125.851 18.513 125.851 15.1181C125.851 11.7232 128.997 8.97754 132.869 8.97754C136.74 8.97754 139.887 11.7232 139.887 15.1181C139.887 18.513 136.749 21.2587 132.869 21.2587Z" fill="#F39672"/>
<path d="M134.654 13.7233C134.671 13.7261 134.687 13.7261 134.704 13.7233L135.987 13.2058C136.019 13.1927 136.045 13.1677 136.059 13.1359C136.072 13.1042 136.073 13.0684 136.061 13.0361C136.048 13.0041 136.022 12.9785 135.991 12.9649C135.959 12.9512 135.923 12.9505 135.891 12.963L134.604 13.4806C134.588 13.4867 134.574 13.496 134.561 13.508C134.549 13.5199 134.539 13.5343 134.532 13.5502C134.526 13.5661 134.523 13.5832 134.523 13.6004C134.523 13.6176 134.527 13.6345 134.534 13.6502C134.545 13.6727 134.562 13.6916 134.583 13.7046C134.605 13.7175 134.629 13.724 134.654 13.7233V13.7233Z" fill="black"/>
<path d="M129.637 13.6273C129.663 13.6272 129.689 13.6191 129.711 13.604C129.733 13.5888 129.75 13.5674 129.76 13.5425C129.766 13.5265 129.768 13.5096 129.768 13.4925C129.767 13.4755 129.763 13.4587 129.756 13.4432C129.749 13.4277 129.739 13.4138 129.727 13.4022C129.714 13.3906 129.699 13.3816 129.683 13.3758L128.388 12.8845C128.356 12.8722 128.319 12.8732 128.288 12.8875C128.256 12.9017 128.231 12.928 128.219 12.9606C128.206 12.9931 128.207 13.0293 128.221 13.0611C128.236 13.0929 128.262 13.1177 128.295 13.1302L129.59 13.6214C129.605 13.6262 129.621 13.6282 129.637 13.6273V13.6273Z" fill="black"/>
<path d="M128.584 15.0501C128.493 15.0501 128.402 15.0321 128.318 14.9971C128.233 14.9621 128.157 14.9109 128.092 14.8462C128.027 14.7816 127.976 14.7049 127.941 14.6205C127.906 14.536 127.888 14.4455 127.888 14.3541C127.889 14.1701 127.963 13.9938 128.093 13.8639C128.223 13.734 128.4 13.6611 128.584 13.6611C128.768 13.6611 128.945 13.734 129.075 13.8639C129.206 13.9938 129.279 14.1701 129.28 14.3541C129.28 14.4455 129.262 14.536 129.227 14.6205C129.192 14.7049 129.141 14.7816 129.076 14.8462C129.012 14.9109 128.935 14.9621 128.85 14.9971C128.766 15.0321 128.676 15.0501 128.584 15.0501V15.0501Z" fill="#1B1935"/>
<path d="M135.646 15.0501C135.461 15.0501 135.284 14.9768 135.154 14.8462C135.023 14.7157 134.95 14.5387 134.95 14.3541C134.95 14.1701 135.024 13.9938 135.155 13.8639C135.285 13.734 135.462 13.6611 135.646 13.6611C135.829 13.6611 136.006 13.7341 136.136 13.8641C136.266 13.9941 136.339 14.1703 136.339 14.3541C136.339 14.4454 136.321 14.5358 136.287 14.6202C136.252 14.7047 136.201 14.7814 136.137 14.8461C136.072 14.9107 135.996 14.962 135.912 14.997C135.827 15.032 135.737 15.0501 135.646 15.0501V15.0501Z" fill="#1B1935"/>
<path d="M140.631 16.1528C140.759 15.8533 140.823 15.5308 140.821 15.2054C140.819 14.881 140.751 14.5605 140.62 14.2638C140.502 13.9925 140.317 13.7558 140.082 13.5767C139.871 13.4163 139.615 13.3281 139.351 13.3252C139.351 13.3252 141.064 13.8895 140.631 16.1528Z" fill="#BC6A4F"/>
<path d="M139.35 12.7316C139.054 12.7343 138.765 12.8194 138.514 12.9772C138.622 12.8704 138.756 12.7921 138.901 12.7492C139.047 12.7064 139.202 12.7003 139.35 12.7316V12.7316Z" fill="#BC6A4F"/>
<path d="M129.883 19.8906C130.295 20.2093 131.117 20.4257 132.064 20.4257C133.012 20.4257 133.819 20.2093 134.246 19.8906C134.246 19.8906 132.055 20.7181 129.883 19.8906Z" fill="#BC6A4F"/>
<path d="M136.122 8.71973H135.83V10.0414H136.122V8.71973Z" fill="#1D1D1B"/>
<path d="M137.202 9.22949H136.909V10.5512H137.202V9.22949Z" fill="#1D1D1B"/>
<path d="M138.231 10.041H137.939V11.3627H138.231V10.041Z" fill="#1D1D1B"/>
<path d="M139.079 11.0469H138.787V12.3686H139.079V11.0469Z" fill="#1D1D1B"/>
<path d="M135.131 8.33496H134.839V9.65665H135.131V8.33496Z" fill="#1D1D1B"/>
<path d="M133.891 8.05957H133.599V9.38125H133.891V8.05957Z" fill="#1D1D1B"/>
<path d="M133.015 8.05957H132.722V9.38125H133.015V8.05957Z" fill="#1D1D1B"/>
<path d="M132.04 8.05957H131.748V9.38125H132.04V8.05957Z" fill="#1D1D1B"/>
<path d="M131.017 8.33496H130.725V9.65665H131.017V8.33496Z" fill="#1D1D1B"/>
<path d="M130.084 8.71973H129.792V10.0414H130.084V8.71973Z" fill="#1D1D1B"/>
<path d="M129.125 9.22949H128.833V10.5512H129.125V9.22949Z" fill="#1D1D1B"/>
<path d="M128.259 9.80566H127.967V11.1273H128.259V9.80566Z" fill="#1D1D1B"/>
<path d="M134.631 16.2688C134.38 16.0179 134.039 15.8771 133.684 15.877H130.45C130.274 15.8767 130.099 15.9112 129.937 15.9784C129.774 16.0456 129.627 16.1443 129.502 16.2688C129.251 16.52 129.109 16.8606 129.107 17.2162V21.7017C129.285 21.7021 129.461 21.6674 129.625 21.5997C129.79 21.532 129.939 21.4326 130.065 21.3071C130.19 21.1816 130.29 21.0325 130.358 20.8684C130.426 20.7044 130.461 20.5284 130.461 20.3508V17.2162H133.678V20.3508C133.678 20.7091 133.82 21.0527 134.073 21.306C134.327 21.5594 134.67 21.7017 135.029 21.7017V17.2162C135.028 17.0399 134.992 16.8655 134.924 16.7029C134.856 16.5404 134.756 16.3928 134.631 16.2688V16.2688Z" fill="#D8690E"/>
<path d="M131.399 17.7588H132.101C132.148 17.7591 132.194 17.7734 132.233 17.7998C132.272 17.8262 132.302 17.8636 132.319 17.9071C132.337 17.9507 132.341 17.9985 132.331 18.0445C132.322 18.0904 132.299 18.1324 132.265 18.1652L131.736 18.6799L131.23 18.1594C131.198 18.126 131.176 18.0839 131.168 18.0384C131.16 17.9929 131.165 17.9459 131.183 17.9033C131.201 17.8607 131.231 17.8243 131.269 17.7986C131.308 17.7729 131.353 17.7591 131.399 17.7588V17.7588Z" fill="#D8690E"/>
<path d="M123.517 33.8057C123.517 33.8057 124.008 35.9812 123.997 35.9373C124.164 35.8276 124.344 35.7373 124.532 35.6683C124.476 35.0551 124.378 34.4465 124.239 33.8466C124.07 33.7677 123.891 33.7107 123.707 33.677C123.707 33.677 124 27.6329 125.754 27.1768C123.739 27.5715 123.517 33.8057 123.517 33.8057Z" fill="#373684"/>
<path d="M123.517 33.8065C121.862 33.5638 119.505 33.6632 118.222 33.7451V33.5024C118.222 33.5024 122.374 33.3971 123.517 33.8065Z" fill="#373684"/>
<path d="M140.409 33.7178C140.409 33.7178 139.921 35.8962 139.93 35.8494C139.763 35.7402 139.585 35.65 139.398 35.5804C139.455 34.9674 139.553 34.3588 139.69 33.7587C139.86 33.6816 140.039 33.6257 140.222 33.592C140.222 33.592 139.754 27.545 138.003 27.0918C140.021 27.4924 140.409 33.7178 140.409 33.7178Z" fill="#373684"/>
<path d="M140.409 33.7187C142.067 33.4789 144.424 33.5754 145.708 33.6573V33.4175C145.708 33.4175 141.561 33.3123 140.409 33.7187Z" fill="#373684"/>
<g clip-path="url(#clip0_426_6)">
<path d="M124.294 35.9606C124.294 35.9606 124.197 39.2986 122.99 38.2395C122.99 38.2395 122.379 39.9069 121.643 38.6177C121.643 38.6177 120.936 40.5089 120.311 38.5421C120.311 38.5421 119.492 41.0038 118.66 38.3152C118.66 38.3152 116.023 42.8067 115.815 35.9606L124.294 35.9606Z" fill="#F39672"/>
<path d="M123.313 35.9604C123.313 36.8042 123.197 37.6175 122.988 38.2393C122.988 38.2393 123.41 37.5773 123.313 35.9604Z" fill="#BC6A4F"/>
<path d="M121.855 35.9601C121.921 37.8166 121.643 38.6172 121.643 38.6172C121.643 38.6172 122.064 37.9395 121.855 35.9601Z" fill="#BC6A4F"/>
<path d="M120.637 35.9605C120.617 36.8864 120.504 37.7796 120.311 38.542C120.436 38.2125 120.531 37.8068 120.587 37.3581C120.644 36.9094 120.661 36.4304 120.637 35.9605Z" fill="#BC6A4F"/>
<path d="M118.344 36.8277C118.406 37.3823 118.514 37.8911 118.659 38.3154C118.562 38.1691 118.481 37.9531 118.426 37.6909C118.37 37.4287 118.342 37.1302 118.344 36.8277V36.8277Z" fill="#BC6A4F"/>
</g>
<g clip-path="url(#clip1_426_6)">
<path d="M148.272 35.9606C148.272 35.9606 148.175 39.2986 146.968 38.2395C146.968 38.2395 146.357 39.9069 145.621 38.6177C145.621 38.6177 144.914 40.5089 144.289 38.5421C144.289 38.5421 143.47 41.0038 142.638 38.3152C142.638 38.3152 140.001 42.8067 139.793 35.9606L148.272 35.9606Z" fill="#F39672"/>
<path d="M147.291 35.9604C147.291 36.8042 147.175 37.6175 146.966 38.2393C146.966 38.2393 147.388 37.5773 147.291 35.9604Z" fill="#BC6A4F"/>
<path d="M145.833 35.9601C145.899 37.8166 145.621 38.6172 145.621 38.6172C145.621 38.6172 146.043 37.9395 145.833 35.9601Z" fill="#BC6A4F"/>
<path d="M144.615 35.9605C144.595 36.8864 144.482 37.7796 144.289 38.542C144.414 38.2125 144.509 37.8068 144.566 37.3581C144.622 36.9094 144.639 36.4304 144.615 35.9605Z" fill="#BC6A4F"/>
<path d="M142.322 36.8277C142.384 37.3823 142.492 37.8911 142.637 38.3154C142.54 38.1691 142.459 37.9531 142.404 37.6909C142.348 37.4287 142.32 37.1302 142.322 36.8277V36.8277Z" fill="#BC6A4F"/>
</g>
<path d="M117.528 36.1111C117.528 36.1111 117.183 34.7426 117.303 33.8128C117.303 33.8128 121.865 33.3917 124.128 33.918C124.128 33.918 124.455 35.4737 124.336 36.1111H117.528Z" fill="#FAF3ED"/>
<path d="M146.401 36.0232C146.401 36.0232 146.746 34.6577 146.626 33.7278C146.626 33.7278 142.065 33.3067 139.801 33.8331C139.801 33.8331 139.474 35.3887 139.594 36.0232H146.401Z" fill="#FAF3ED"/>
</g>
<defs>
<clipPath id="clip0_426_6">
<rect width="8.47983" height="3.8013" fill="white" transform="translate(124.294 39.7617) rotate(-180)"/>
</clipPath>
<clipPath id="clip1_426_6">
<rect width="8.47983" height="3.8013" fill="white" transform="translate(148.272 39.7617) rotate(-180)"/>
</clipPath>
</defs>
</svg>
