<svg width="119" height="36" viewBox="0 0 119 36" fill="none" xmlns="http://www.w3.org/2000/svg">
<rect width="118.8" height="36" fill="#EC8989"/>
<mask id="mask0_426_6" style="mask-type:alpha" maskUnits="userSpaceOnUse" x="87" y="2" width="28" height="28">
<path d="M115 16C115 23.732 108.732 30 101 30C93.268 30 87 23.732 87 16C87 8.26801 93.268 2 101 2C108.732 2 115 8.26801 115 16Z" fill="#EC8989"/>
</mask>
<g mask="url(#mask0_426_6)">
<path d="M89.0746 27.9366C89.0746 27.9366 87.8721 17.3297 95.123 13.333L105.367 13.5502C105.367 13.5502 109.745 15.0479 110.333 27.6737L100.172 31.9997L89.0746 27.9366Z" fill="#5154A1"/>
<path d="M105.19 13.2109C105.19 13.2109 102.842 16.1795 99.75 16.0381L100.355 18.3264C100.355 18.3264 105.261 15.3358 105.19 13.2109Z" fill="#373684"/>
<path d="M105.19 13.2109C105.19 13.2109 102.664 16.0028 99.5713 15.8614L100.168 18.1475C100.168 18.1475 104.629 15.7687 105.19 13.2109Z" fill="#FAF3ED"/>
<path d="M98.7935 15.6957L98.3186 18.0303C98.3186 18.0303 95.6129 14.9646 95.4473 13.001C95.4451 13.001 97.7709 15.5388 98.7935 15.6957Z" fill="#373684"/>
<path d="M98.6656 15.6647L98.1046 17.9243C98.1046 17.9243 95.6131 14.9623 95.4541 13.001C96.2214 14.2014 97.344 15.1325 98.6656 15.6647Z" fill="#FAF3ED"/>
<path d="M99.5048 16.9176C99.5048 16.9176 100.004 22.6891 100.322 24.0077C100.64 25.3263 99.1625 26.6891 99.0741 27.1441H97.1702C97.1702 27.1441 96.258 25.5074 96.4612 24.2727C96.6644 23.0381 98.9217 16.8447 98.9217 16.8447L99.5048 16.9176Z" fill="#C7361A"/>
<path d="M99.4052 16.8817C99.4052 16.8817 99.9044 22.6532 100.222 23.9718C100.541 25.2904 99.0607 26.6532 98.9723 27.1082H97.075C97.075 27.1082 96.1606 25.4715 96.366 24.2369C96.5714 23.0022 98.8199 16.8066 98.8199 16.8066L99.4052 16.8817Z" fill="#E8461C"/>
<path d="M98.8158 16.6677L99.0875 16.3784C99.1033 16.3608 99.1229 16.3472 99.1449 16.3386C99.1666 16.3296 99.19 16.3258 99.2134 16.3276C99.2374 16.3295 99.2606 16.3363 99.2819 16.3475C99.3023 16.3587 99.3197 16.3746 99.3327 16.3939L99.6132 16.787C99.626 16.8038 99.6351 16.8231 99.6401 16.8436C99.645 16.8642 99.6456 16.8855 99.6419 16.9063C99.6389 16.9271 99.6317 16.947 99.6207 16.9649C99.6097 16.9827 99.5951 16.9981 99.5778 17.0101L99.1847 17.2884C99.1657 17.302 99.1437 17.3111 99.1206 17.3149C99.0974 17.3204 99.0732 17.3204 99.0499 17.3149C99.0272 17.3083 99.0062 17.297 98.9881 17.2818C98.9699 17.2661 98.9555 17.2465 98.9461 17.2243L98.7849 16.8422C98.7761 16.8127 98.7761 16.7812 98.7849 16.7517C98.7867 16.7213 98.7975 16.6921 98.8158 16.6677Z" fill="#C7361A"/>
<path d="M98.7651 16.6493L99.0279 16.3688C99.0435 16.3526 99.0623 16.3399 99.0831 16.3313C99.1049 16.3258 99.1277 16.3258 99.1494 16.3313C99.1719 16.3316 99.194 16.3377 99.2135 16.349C99.2339 16.3601 99.2513 16.376 99.2643 16.3953L99.5337 16.7752C99.5453 16.7911 99.5536 16.8091 99.558 16.8283C99.5624 16.8479 99.5624 16.8683 99.558 16.8879C99.555 16.9084 99.5474 16.928 99.5359 16.9453C99.5258 16.9625 99.5122 16.9776 99.4962 16.9895L99.1207 17.2568C99.1013 17.2697 99.0795 17.2787 99.0566 17.2833C99.034 17.2877 99.0108 17.2877 98.9882 17.2833C98.9661 17.2767 98.9458 17.2654 98.9285 17.2501C98.911 17.2352 98.8973 17.2163 98.8888 17.1949L98.7342 16.826C98.7253 16.798 98.7253 16.7679 98.7342 16.7399C98.7351 16.7073 98.7458 16.6757 98.7651 16.6493Z" fill="#E8461C"/>
<path d="M96.2644 13.1883C96.0174 13.1883 95.7728 13.1396 95.5446 13.045C95.3164 12.9504 95.1091 12.8117 94.9345 12.6369C94.76 12.4622 94.6216 12.2547 94.5272 12.0264C94.4329 11.7981 94.3845 11.5534 94.3848 11.3064C94.3848 10.8079 94.5828 10.3298 94.9353 9.9773C95.2878 9.6248 95.7659 9.42676 96.2644 9.42676C96.7631 9.42676 97.2415 9.62473 97.5943 9.97716C97.9472 10.3296 98.1457 10.8077 98.1463 11.3064C98.1463 11.8055 97.948 12.2842 97.5951 12.6371C97.2422 12.99 96.7635 13.1883 96.2644 13.1883Z" fill="#F39672"/>
<path d="M103.803 11.3222C103.801 10.9679 103.881 10.6179 104.037 10.2996C104.174 10.0122 104.392 9.77109 104.664 9.60604C104.91 9.45941 105.201 9.40832 105.481 9.46247C105.775 9.52533 106.038 9.68573 106.228 9.91748C106.449 10.1766 106.601 10.4873 106.67 10.8208C106.744 11.1724 106.739 11.5362 106.654 11.8855C106.579 12.2142 106.42 12.5182 106.195 12.769C105.996 12.9894 105.728 13.1364 105.435 13.1864C105.379 13.1952 105.322 13.1996 105.265 13.1997C105.17 13.2001 105.075 13.1883 104.982 13.1643C104.629 13.0617 104.327 12.8288 104.139 12.5128C103.917 12.1554 103.8 11.7428 103.803 11.3222Z" fill="#F39672"/>
<path d="M100.364 15.89C97.4335 15.89 95.0635 13.816 95.0635 11.2516C95.0635 8.68729 97.4401 6.61328 100.364 6.61328C103.289 6.61328 105.665 8.68729 105.665 11.2516C105.665 13.816 103.295 15.89 100.364 15.89Z" fill="#F39672"/>
<path d="M101.713 10.1982C101.726 10.2003 101.738 10.2003 101.751 10.1982L102.721 9.80727C102.745 9.79745 102.764 9.77851 102.774 9.75454C102.785 9.73057 102.785 9.70349 102.776 9.67916C102.766 9.65498 102.747 9.63564 102.723 9.62531C102.699 9.61497 102.672 9.61448 102.648 9.62395L101.676 10.0149C101.664 10.0195 101.653 10.0265 101.643 10.0356C101.634 10.0446 101.626 10.0555 101.621 10.0675C101.617 10.0795 101.614 10.0924 101.614 10.1054C101.614 10.1184 101.617 10.1312 101.623 10.143C101.631 10.16 101.644 10.1743 101.66 10.1841C101.676 10.1939 101.694 10.1988 101.713 10.1982Z" fill="black"/>
<path d="M97.9234 10.1251C97.9435 10.1251 97.9632 10.1189 97.9798 10.1075C97.9963 10.0961 98.009 10.0799 98.0162 10.061C98.0208 10.049 98.0229 10.0362 98.0225 10.0233C98.0221 10.0105 98.0191 9.99781 98.0138 9.98609C98.0084 9.97438 98.0008 9.96385 97.9914 9.9551C97.9819 9.94636 97.9708 9.93957 97.9588 9.93515L96.9803 9.56408C96.9557 9.55474 96.9284 9.55555 96.9043 9.56632C96.8803 9.57708 96.8616 9.59693 96.8522 9.62151C96.8428 9.64612 96.8436 9.67342 96.8544 9.69744C96.8652 9.72145 96.885 9.74022 96.9096 9.74962L97.8881 10.1207C97.8995 10.1243 97.9115 10.1258 97.9234 10.1251Z" fill="black"/>
<path d="M97.1282 11.2005C97.0592 11.2005 96.9908 11.1869 96.9271 11.1605C96.8633 11.1341 96.8053 11.0954 96.7565 11.0466C96.7077 10.9977 96.669 10.9398 96.6426 10.876C96.6161 10.8122 96.6025 10.7439 96.6025 10.6748C96.6031 10.5358 96.6588 10.4027 96.7573 10.3046C96.8558 10.2064 96.9892 10.1514 97.1282 10.1514C97.2673 10.1514 97.4006 10.2064 97.4992 10.3046C97.5977 10.4027 97.6533 10.5358 97.6539 10.6748C97.6539 10.7439 97.6403 10.8122 97.6139 10.876C97.5875 10.9398 97.5488 10.9977 97.5 11.0466C97.4511 11.0954 97.3932 11.1341 97.3294 11.1605C97.2656 11.1869 97.1973 11.2005 97.1282 11.2005Z" fill="#1B1935"/>
<path d="M102.462 11.2005C102.323 11.2005 102.189 11.1451 102.09 11.0466C101.992 10.948 101.937 10.8143 101.937 10.6748C101.937 10.5358 101.993 10.4027 102.091 10.3046C102.19 10.2064 102.323 10.1514 102.462 10.1514C102.601 10.1514 102.734 10.2065 102.832 10.3047C102.931 10.4029 102.986 10.536 102.986 10.6748C102.986 10.7438 102.973 10.8121 102.946 10.8758C102.92 10.9396 102.882 10.9976 102.833 11.0464C102.784 11.0953 102.727 11.134 102.663 11.1605C102.599 11.1869 102.531 11.2005 102.462 11.2005Z" fill="#1B1935"/>
<path d="M106.228 12.0333C106.324 11.8071 106.373 11.5635 106.372 11.3177C106.37 11.0727 106.318 10.8306 106.219 10.6065C106.131 10.4015 105.991 10.2227 105.813 10.0874C105.654 9.9663 105.46 9.89969 105.261 9.89746C105.261 9.89746 106.555 10.3237 106.228 12.0333Z" fill="#BC6A4F"/>
<path d="M105.261 9.44945C105.037 9.45151 104.818 9.51574 104.629 9.63498C104.711 9.5543 104.811 9.49514 104.921 9.46277C105.032 9.43039 105.148 9.42582 105.261 9.44945Z" fill="#BC6A4F"/>
<path d="M98.1089 14.8564C98.4203 15.0972 99.041 15.2606 99.7566 15.2606C100.472 15.2606 101.082 15.0972 101.404 14.8564C101.404 14.8564 99.75 15.4815 98.1089 14.8564Z" fill="#BC6A4F"/>
<path d="M102.822 6.41895H102.602V7.4173H102.822V6.41895Z" fill="#1D1D1B"/>
<path d="M103.637 6.80371H103.417V7.80206H103.637V6.80371Z" fill="#1D1D1B"/>
<path d="M104.415 7.41699H104.194V8.41535H104.415V7.41699Z" fill="#1D1D1B"/>
<path d="M105.056 8.17676H104.835V9.17511H105.056V8.17676Z" fill="#1D1D1B"/>
<path d="M102.073 6.12793H101.853V7.12628H102.073V6.12793Z" fill="#1D1D1B"/>
<path d="M101.137 5.91992H100.916V6.91828H101.137V5.91992Z" fill="#1D1D1B"/>
<path d="M100.475 5.91992H100.254V6.91828H100.475V5.91992Z" fill="#1D1D1B"/>
<path d="M99.7389 5.91992H99.5181V6.91828H99.7389V5.91992Z" fill="#1D1D1B"/>
<path d="M98.966 6.12793H98.7451V7.12628H98.966V6.12793Z" fill="#1D1D1B"/>
<path d="M98.2609 6.41895H98.04V7.4173H98.2609V6.41895Z" fill="#1D1D1B"/>
<path d="M97.5368 6.80371H97.3159V7.80206H97.5368V6.80371Z" fill="#1D1D1B"/>
<path d="M96.883 7.23828H96.6621V8.23663H96.883V7.23828Z" fill="#1D1D1B"/>
<path d="M101.696 12.1202C101.506 11.9307 101.248 11.8243 100.98 11.8242H98.5372C98.4043 11.824 98.2727 11.8501 98.1499 11.9008C98.0271 11.9516 97.9155 12.0262 97.8216 12.1202C97.6315 12.3099 97.5243 12.5672 97.5234 12.8358V16.224C97.6576 16.2243 97.7905 16.1981 97.9146 16.147C98.0387 16.0958 98.1514 16.0207 98.2464 15.9259C98.3414 15.8312 98.4168 15.7186 98.4682 15.5946C98.5196 15.4707 98.5461 15.3378 98.5461 15.2036V12.8358H100.976V15.2036C100.976 15.4742 101.083 15.7338 101.275 15.9252C101.466 16.1165 101.726 16.224 101.996 16.224V12.8358C101.996 12.7026 101.969 12.5709 101.917 12.4481C101.866 12.3253 101.79 12.2139 101.696 12.1202Z" fill="#D8690E"/>
<path d="M99.2549 13.2461H99.785C99.8205 13.2463 99.8551 13.2571 99.8844 13.2771C99.9138 13.297 99.9365 13.3252 99.9498 13.3581C99.963 13.391 99.9662 13.4272 99.9589 13.4619C99.9516 13.4966 99.9341 13.5283 99.9087 13.5531L99.5089 13.9418L99.1268 13.5487C99.1026 13.5234 99.0864 13.4917 99.0801 13.4573C99.0738 13.4229 99.0777 13.3874 99.0913 13.3553C99.1049 13.3231 99.1277 13.2956 99.1568 13.2762C99.1858 13.2568 99.22 13.2463 99.2549 13.2461Z" fill="#D8690E"/>
<path d="M93.3008 25.3676C93.3008 25.3676 93.6719 27.0109 93.663 26.9778C93.7896 26.8949 93.9252 26.8267 94.0672 26.7746C94.0248 26.3114 93.951 25.8517 93.8463 25.3985C93.7183 25.3389 93.5832 25.2959 93.4444 25.2704C93.4444 25.2704 93.6652 20.7049 94.9905 20.3604C93.4687 20.6585 93.3008 25.3676 93.3008 25.3676Z" fill="#373684"/>
<path d="M93.3008 25.3688C92.0507 25.1854 90.2704 25.2605 89.3008 25.3224V25.1391C89.3008 25.1391 92.4372 25.0595 93.3008 25.3688Z" fill="#373684"/>
<path d="M106.06 25.3019C106.06 25.3019 105.692 26.9474 105.698 26.9121C105.572 26.8296 105.437 26.7614 105.296 26.7089C105.34 26.2458 105.413 25.7861 105.517 25.3328C105.645 25.2746 105.781 25.2323 105.919 25.2069C105.919 25.2069 105.566 20.6392 104.243 20.2969C105.767 20.5995 106.06 25.3019 106.06 25.3019Z" fill="#373684"/>
<path d="M106.061 25.3022C107.313 25.1211 109.093 25.194 110.063 25.2558V25.0747C110.063 25.0747 106.931 24.9952 106.061 25.3022Z" fill="#373684"/>
<g clip-path="url(#clip0_426_6)">
<path d="M93.8877 26.996C93.8877 26.996 93.8144 29.5173 92.9025 28.7174C92.9025 28.7174 92.4408 29.9769 91.8849 29.0031C91.8849 29.0031 91.3509 30.4316 90.8787 28.9459C90.8787 28.9459 90.26 30.8054 89.6317 28.7745C89.6317 28.7745 87.6394 32.1673 87.4823 26.996L93.8877 26.996Z" fill="#F39672"/>
<path d="M93.1458 26.9954C93.146 27.6328 93.0585 28.2471 92.9006 28.7168C92.9006 28.7168 93.2191 28.2168 93.1458 26.9954Z" fill="#BC6A4F"/>
<path d="M92.0454 26.9958C92.0951 28.3982 91.8848 29.0029 91.8848 29.0029C91.8848 29.0029 92.2034 28.491 92.0454 26.9958Z" fill="#BC6A4F"/>
<path d="M91.1247 26.9954C91.1099 27.6947 91.0247 28.3694 90.8786 28.9453C90.9731 28.6964 91.0447 28.39 91.0875 28.051C91.1303 27.7121 91.143 27.3503 91.1247 26.9954Z" fill="#BC6A4F"/>
<path d="M89.3935 27.6506C89.4403 28.0695 89.5215 28.4539 89.6309 28.7744C89.5575 28.6639 89.4967 28.5007 89.4548 28.3027C89.413 28.1046 89.3918 27.8792 89.3935 27.6506Z" fill="#BC6A4F"/>
</g>
<g clip-path="url(#clip1_426_6)">
<path d="M112 26.996C112 26.996 111.927 29.5173 111.015 28.7174C111.015 28.7174 110.553 29.9769 109.997 29.0031C109.997 29.0031 109.463 30.4316 108.991 28.9459C108.991 28.9459 108.372 30.8054 107.744 28.7745C107.744 28.7745 105.752 32.1673 105.595 26.996L112 26.996Z" fill="#F39672"/>
<path d="M111.258 26.9954C111.258 27.6328 111.171 28.2471 111.013 28.7168C111.013 28.7168 111.331 28.2168 111.258 26.9954Z" fill="#BC6A4F"/>
<path d="M110.158 26.9958C110.207 28.3982 109.997 29.0029 109.997 29.0029C109.997 29.0029 110.316 28.491 110.158 26.9958Z" fill="#BC6A4F"/>
<path d="M109.237 26.9954C109.222 27.6947 109.137 28.3694 108.991 28.9453C109.085 28.6964 109.157 28.39 109.2 28.051C109.243 27.7121 109.255 27.3503 109.237 26.9954Z" fill="#BC6A4F"/>
<path d="M107.506 27.6506C107.553 28.0695 107.634 28.4539 107.743 28.7744C107.67 28.6639 107.609 28.5007 107.567 28.3027C107.525 28.1046 107.504 27.8792 107.506 27.6506Z" fill="#BC6A4F"/>
</g>
<path d="M88.7771 27.1085C88.7771 27.1085 88.5164 26.0748 88.607 25.3724C88.607 25.3724 92.0526 25.0543 93.7622 25.4519C93.7622 25.4519 94.0096 26.627 93.919 27.1085H88.7771Z" fill="#FAF3ED"/>
<path d="M110.586 27.0428C110.586 27.0428 110.847 26.0113 110.756 25.3089C110.756 25.3089 107.311 24.9909 105.601 25.3884C105.601 25.3884 105.354 26.5635 105.444 27.0428H110.586Z" fill="#FAF3ED"/>
</g>
<defs>
<clipPath id="clip0_426_6">
<rect width="6.40537" height="2.87137" fill="white" transform="translate(93.8877 29.8672) rotate(-180)"/>
</clipPath>
<clipPath id="clip1_426_6">
<rect width="6.40537" height="2.87137" fill="white" transform="translate(112 29.8672) rotate(-180)"/>
</clipPath>
</defs>
</svg>
