<svg width="101" height="48" viewBox="0 0 101 48" fill="none" xmlns="http://www.w3.org/2000/svg">
<rect y="0.119141" width="100.084" height="47.6591" fill="#ADB3D7"/>
<mask id="mask0_426_7" style="mask-type:alpha" maskUnits="userSpaceOnUse" x="60" y="8" width="34" height="33">
<circle cx="76.9599" cy="24.1239" r="15.5614" fill="#C4C4C4" stroke="black"/>
</mask>
<g mask="url(#mask0_426_7)">
<path d="M65.4481 36.8004C65.4481 36.8004 64.1272 23.9568 72.0942 19.1162L83.3677 19.3931C83.3677 19.3931 88.1861 21.207 88.8313 36.4985L77.652 41.7351L65.4481 36.8004Z" fill="#5154A1"/>
<path d="M83.1293 19.1025C83.1293 19.1025 80.5152 22.8244 77.0703 22.6471L77.746 25.516C77.746 25.516 83.2097 21.7638 83.1293 19.1025Z" fill="#373684"/>
<path d="M83.1301 19.1025C83.1301 19.1025 80.3194 22.6001 76.8745 22.4256L77.5474 25.2945C77.5474 25.2945 82.5071 22.3093 83.1301 19.1025Z" fill="#FAF3ED"/>
<path d="M76.0071 22.4919L75.4782 25.4217C75.4782 25.4217 72.4653 21.578 72.2798 19.1162C72.277 19.1162 74.8634 22.2953 76.0071 22.4919Z" fill="#373684"/>
<path d="M75.8659 22.4531L75.2401 25.2888C75.2401 25.2888 72.4709 21.5725 72.2798 19.1162C73.0957 20.577 74.3502 21.7444 75.8659 22.4531Z" fill="#FAF3ED"/>
<path d="M76.802 24.023C76.802 24.023 77.3558 31.2617 77.7131 32.915C78.0703 34.5682 76.4198 36.2768 76.3284 36.8472H74.21C74.21 36.8472 73.1937 34.7952 73.4208 33.2473C73.6479 31.6993 76.154 23.9316 76.154 23.9316L76.802 24.023Z" fill="#C7361A"/>
<path d="M76.6882 23.9779C76.6882 23.9779 77.2421 31.2167 77.5993 32.8671C77.9565 34.5176 76.3061 36.2317 76.2147 36.7994H74.0962C74.0962 36.7994 73.0799 34.7474 73.307 33.1994C73.5341 31.6514 76.0402 23.8838 76.0402 23.8838L76.6882 23.9779Z" fill="#E8461C"/>
<path d="M76.0292 23.7096L76.3339 23.3469C76.3512 23.3258 76.373 23.3088 76.3975 23.297C76.423 23.2903 76.4496 23.2903 76.4751 23.297C76.5021 23.2968 76.5284 23.3056 76.5498 23.3219C76.5738 23.3361 76.5938 23.3561 76.608 23.3801L76.9209 23.873C76.9488 23.9165 76.9596 23.9688 76.9514 24.0198C76.9449 24.0709 76.9204 24.1181 76.8822 24.1527L76.4446 24.4989C76.4233 24.5173 76.3975 24.5297 76.3698 24.5349C76.3444 24.5417 76.3177 24.5417 76.2923 24.5349C76.2664 24.5265 76.2427 24.5123 76.2231 24.4933C76.2027 24.4727 76.1867 24.4482 76.176 24.4213L75.996 23.9395C75.9864 23.9032 75.9864 23.865 75.996 23.8287C75.998 23.787 76.0093 23.7463 76.0292 23.7096Z" fill="#C7361A"/>
<path d="M75.9715 23.6873L76.2651 23.3384C76.2821 23.3189 76.3028 23.3029 76.326 23.2913C76.3496 23.2814 76.3751 23.2767 76.4008 23.2774C76.4263 23.2802 76.4509 23.2888 76.4728 23.3024C76.4951 23.3165 76.514 23.3354 76.5281 23.3577L76.83 23.834C76.8423 23.8554 76.8508 23.8789 76.8549 23.9033C76.8604 23.9279 76.8604 23.9534 76.8549 23.978C76.8517 24.0031 76.8442 24.0275 76.8327 24.05C76.8201 24.0701 76.8042 24.0879 76.7857 24.1027L76.3675 24.4377C76.3478 24.4547 76.3239 24.4662 76.2983 24.471C76.2728 24.4765 76.2463 24.4765 76.2208 24.471C76.1957 24.4625 76.1729 24.4483 76.1543 24.4294C76.1354 24.4092 76.1204 24.3858 76.11 24.3602L75.9383 23.8977C75.9288 23.8624 75.9288 23.8251 75.9383 23.7897C75.9399 23.7532 75.9514 23.7178 75.9715 23.6873Z" fill="#E8461C"/>
<path d="M69.8794 34.6178C69.8794 34.6178 70.292 36.6809 70.2837 36.6366C70.2754 36.5923 70.7323 36.3818 70.7323 36.3818C70.6855 35.8033 70.6041 35.2281 70.4886 34.6593C70.3472 34.5854 70.1962 34.5314 70.04 34.4987C70.04 34.4987 70.2893 28.772 71.7652 28.3428C70.076 28.7166 69.8794 34.6178 69.8794 34.6178Z" fill="#373684"/>
<path d="M64.8502 36.8004C64.6919 36.0873 64.6286 35.3563 64.662 34.6266C64.662 34.6266 68.5001 34.2278 70.4025 34.7263C70.4025 34.7263 70.6794 36.1995 70.577 36.8004H64.8502Z" fill="#FAF3ED"/>
<g clip-path="url(#clip0_426_7)">
<path d="M70.5903 36.5838C70.5903 36.5838 70.4984 39.745 69.3551 38.742C69.3551 38.742 68.7763 40.3211 68.0794 39.1002C68.0794 39.1002 67.4098 40.8912 66.8179 39.0286C66.8179 39.0286 66.0421 41.3599 65.2544 38.8136C65.2544 38.8136 62.7566 43.0673 62.5596 36.5838L70.5903 36.5838Z" fill="#CC8A7A"/>
<path d="M69.6606 36.584C69.6609 37.3831 69.5511 38.1533 69.3531 38.7422C69.3531 38.7422 69.7525 38.1153 69.6606 36.584Z" fill="#BC6A4F"/>
<path d="M68.2808 36.5832C68.3432 38.3414 68.0795 39.0996 68.0795 39.0996C68.0795 39.0996 68.4789 38.4578 68.2808 36.5832Z" fill="#BC6A4F"/>
<path d="M67.1265 36.5836C67.108 37.4604 67.0012 38.3063 66.818 39.0283C66.9365 38.7163 67.0263 38.3321 67.0799 37.9071C67.1335 37.4822 67.1495 37.0286 67.1265 36.5836Z" fill="#BC6A4F"/>
<path d="M64.9558 37.4045C65.0145 37.9297 65.1163 38.4116 65.2534 38.8135C65.1615 38.6749 65.0852 38.4704 65.0327 38.2221C64.9803 37.9737 64.9537 37.6911 64.9558 37.4045Z" fill="#BC6A4F"/>
</g>
<g clip-path="url(#clip1_426_7)">
<path d="M91.6372 36.5838C91.6372 36.5838 91.5453 39.745 90.402 38.742C90.402 38.742 89.8232 40.3211 89.1262 39.1002C89.1262 39.1002 88.4567 40.8912 87.8647 39.0286C87.8647 39.0286 87.089 41.3599 86.3013 38.8136C86.3013 38.8136 83.8034 43.0673 83.6065 36.5838L91.6372 36.5838Z" fill="#CC8A7A"/>
<path d="M90.7075 36.584C90.7077 37.3831 90.598 38.1533 90.4 38.7422C90.4 38.7422 90.7994 38.1153 90.7075 36.584Z" fill="#BC6A4F"/>
<path d="M89.3277 36.5832C89.3901 38.3414 89.1264 39.0996 89.1264 39.0996C89.1264 39.0996 89.5257 38.4578 89.3277 36.5832Z" fill="#BC6A4F"/>
<path d="M88.1734 36.5836C88.1549 37.4604 88.0481 38.3063 87.8648 39.0283C87.9834 38.7163 88.0732 38.3321 88.1268 37.9071C88.1804 37.4822 88.1964 37.0286 88.1734 36.5836Z" fill="#BC6A4F"/>
<path d="M86.0027 37.4045C86.0614 37.9297 86.1632 38.4116 86.3003 38.8135C86.2084 38.6749 86.132 38.4704 86.0796 38.2221C86.0271 37.9737 86.0006 37.6911 86.0027 37.4045Z" fill="#BC6A4F"/>
</g>
<path d="M69.879 34.6181C68.4944 34.391 66.5033 34.4824 65.4233 34.56V34.3329C65.4233 34.3329 68.9208 34.2332 69.879 34.6181Z" fill="#373684"/>
<path d="M84.1021 34.5385L83.6978 36.5573C83.6978 36.513 83.2492 36.3025 83.2492 36.3025C83.2961 35.7231 83.3775 35.147 83.4929 34.5773C83.6343 34.5034 83.7853 34.4494 83.9415 34.4167C83.9415 34.4167 83.5483 28.6927 82.0723 28.2607C83.7726 28.6374 84.1021 34.5385 84.1021 34.5385Z" fill="#373684"/>
<path d="M89.1388 36.72C89.2988 36.0061 89.363 35.2742 89.3299 34.5434C89.3299 34.5434 85.4917 34.1474 83.5893 34.643C83.5893 34.643 83.3124 36.119 83.4148 36.72H89.1388Z" fill="#FAF3ED"/>
<path d="M84.1016 34.5371C85.4862 34.3073 87.4744 34.4014 88.5544 34.479V34.2492C88.5544 34.2492 85.0708 34.1522 84.1016 34.5371Z" fill="#373684"/>
<path d="M70.7764 16.7353C70.7744 16.3973 70.8512 16.0636 71.0007 15.7605C71.1309 15.4853 71.3389 15.2543 71.5989 15.0959C71.8335 14.9559 72.1117 14.9076 72.3798 14.9602C72.6591 15.0212 72.9097 15.1743 73.0915 15.395C73.3015 15.642 73.4453 15.9384 73.5096 16.2562C73.5844 16.5918 73.5844 16.9397 73.5096 17.2753C73.4342 17.5845 73.2829 17.87 73.0693 18.106C72.8784 18.3157 72.6231 18.456 72.3438 18.5048C72.2894 18.509 72.2348 18.509 72.1804 18.5048C72.0871 18.5054 71.994 18.4943 71.9035 18.4716C71.5655 18.3738 71.2773 18.151 71.0976 17.8485C70.8897 17.5142 70.7785 17.1289 70.7764 16.7353Z" fill="#CC8A7A"/>
<path d="M76.7049 22.6582L76.007 22.4921C74.4867 21.9715 71.6123 19.6869 71.6123 16.7349C71.6167 15.3129 72.1835 13.9504 73.189 12.9449C74.1945 11.9394 75.557 11.3725 76.979 11.3682H78.4052C79.8272 11.3725 81.1897 11.9394 82.1952 12.9449C83.2007 13.9504 83.7675 15.3129 83.7719 16.7349C84.2011 19.2936 81.3267 21.7195 78.6461 22.4727C78.1487 22.616 77.635 22.6951 77.1175 22.7081C76.9784 22.7096 76.8396 22.6928 76.7049 22.6582Z" fill="#CC8A7A"/>
<path d="M73.5619 17.0486C73.3871 17.0486 73.2195 16.9792 73.0959 16.8556C72.9723 16.732 72.9028 16.5643 72.9028 16.3895C72.9028 16.2147 72.9723 16.0471 73.0959 15.9235C73.2195 15.7999 73.3871 15.7305 73.5619 15.7305C73.7362 15.7312 73.9031 15.8009 74.0261 15.9245C74.1491 16.048 74.2182 16.2152 74.2182 16.3895C74.2182 16.5639 74.1491 16.7311 74.0261 16.8546C73.9031 16.9781 73.7362 17.0479 73.5619 17.0486Z" fill="#1B1935"/>
<path d="M80.2466 17.0486C80.0723 17.0479 79.9054 16.9781 79.7824 16.8546C79.6594 16.7311 79.5903 16.5639 79.5903 16.3895C79.5903 16.2152 79.6594 16.048 79.7824 15.9245C79.9054 15.8009 80.0723 15.7312 80.2466 15.7305C80.4214 15.7305 80.5891 15.7999 80.7127 15.9235C80.8363 16.0471 80.9057 16.2147 80.9057 16.3895C80.9057 16.5643 80.8363 16.732 80.7127 16.8556C80.5891 16.9792 80.4214 17.0486 80.2466 17.0486Z" fill="#1B1935"/>
<path d="M73.8834 15.4434C73.8688 15.4407 73.8538 15.4407 73.8391 15.4434L72.6207 15.9335C72.5904 15.9459 72.5661 15.9696 72.5531 15.9997C72.5402 16.0297 72.5396 16.0636 72.5514 16.0941C72.5643 16.1247 72.5886 16.149 72.6191 16.1619C72.6496 16.1748 72.6839 16.1753 72.7148 16.1634L73.9305 15.676C73.961 15.6631 73.9853 15.6389 73.9983 15.6084C74.0112 15.5779 74.0117 15.5435 73.9997 15.5126C73.9888 15.4913 73.9721 15.4735 73.9515 15.4613C73.931 15.449 73.9074 15.4428 73.8834 15.4434Z" fill="black"/>
<path d="M79.7455 15.375C79.7203 15.375 79.6956 15.3827 79.6749 15.3971C79.6541 15.4114 79.6382 15.4317 79.6292 15.4553C79.6175 15.4862 79.6185 15.5204 79.632 15.5505C79.6455 15.5806 79.6704 15.6041 79.7012 15.6159L80.928 16.0784C80.9588 16.0901 80.9931 16.0891 81.0232 16.0756C81.0533 16.0621 81.0768 16.0372 81.0886 16.0064C81.0995 15.9755 81.0982 15.9416 81.0848 15.9116C81.0714 15.8817 81.0469 15.8581 81.0166 15.8458L79.7898 15.3833L79.7455 15.375Z" fill="black"/>
<path d="M77.8315 18.9308C77.1609 19.036 76.4779 19.036 75.8072 18.9308C74.2842 18.6927 73.4949 19.2686 74.3728 19.6785C75.1515 19.9917 75.9815 20.1579 76.8207 20.1686C77.6591 20.158 78.4883 19.9918 79.266 19.6785C80.1466 19.2686 79.3546 18.6927 77.8315 18.9308Z" fill="#E28E74"/>
<path d="M74.7422 19.1689C75.1354 19.4736 75.9191 19.6812 76.8218 19.6812C77.7246 19.6812 78.5083 19.4736 78.9015 19.1689C78.9015 19.1689 76.8025 19.9526 74.7422 19.1689Z" fill="#BC6A4F"/>
<path d="M71.7894 12.3702L71.8143 12.3259C71.9665 12.0362 72.0916 11.7331 72.1881 11.4204C72.3954 10.8861 72.707 10.3984 73.1048 9.98591C73.9687 8.93638 75.597 9.15514 75.9737 9.43206C76.0567 9.49022 76.1315 9.54284 76.1952 9.59268C76.2491 9.63115 76.3142 9.65066 76.3803 9.64815C76.4465 9.64565 76.5099 9.62128 76.5607 9.57884C76.8736 9.33515 76.9207 9.22992 77.613 9.18562C78.3053 9.14131 78.6404 9.40162 78.7484 9.673C78.7602 9.70683 78.7797 9.73743 78.8054 9.76238C78.8311 9.78733 78.8623 9.80592 78.8964 9.81668C78.9306 9.82744 78.9668 9.83007 79.0022 9.82436C79.0375 9.81864 79.0711 9.80474 79.1001 9.78376C79.4257 9.56412 79.7986 9.42455 80.1884 9.37642C80.5782 9.3283 80.9739 9.37299 81.3432 9.50684C83.8188 10.4622 84.7576 14.6216 84.3062 15.4496C84.2182 15.6265 84.0933 15.7825 83.94 15.9072C83.7867 16.0319 83.6085 16.1223 83.4173 16.1723C82.9438 16.2803 83.0656 13.3117 80.4016 13.3117C80.3314 13.3095 80.262 13.3267 80.2009 13.3614C80.1399 13.3961 80.0895 13.4469 80.0555 13.5084C79.9084 13.7696 79.7099 13.9983 79.4719 14.1806C79.2339 14.3629 78.9614 14.4951 78.6709 14.569C77.4967 14.8874 76.5164 12.9074 76.5164 12.9074C76.5164 12.9074 76.4638 14.0871 74.8549 14.6548C74.1208 14.9088 73.3254 14.9253 72.5814 14.7019C71.7174 14.4554 71.3075 13.284 71.7894 12.3702Z" fill="black"/>
<path d="M82.3789 16.7353C82.3769 16.3973 82.4537 16.0636 82.6032 15.7605C82.7335 15.4853 82.9414 15.2543 83.2014 15.0959C83.4361 14.9559 83.7142 14.9076 83.9823 14.9602C84.2619 15.0206 84.5127 15.1738 84.694 15.395C84.904 15.642 85.0479 15.9384 85.1122 16.2562C85.1883 16.5916 85.1883 16.9398 85.1122 17.2753C85.0379 17.5849 84.8864 17.8707 84.6719 18.106C84.4809 18.3157 84.2257 18.456 83.9463 18.5048C83.8929 18.5089 83.8392 18.5089 83.7857 18.5048C83.6924 18.5054 83.5993 18.4943 83.5088 18.4716C83.1707 18.3738 82.8826 18.151 82.703 17.8485C82.4953 17.514 82.3832 17.129 82.3789 16.7353Z" fill="#CC8A7A"/>
<path d="M84.6939 17.4053C84.7867 17.1903 84.8329 16.9582 84.8296 16.7241C84.8307 16.4902 84.7816 16.2589 84.6856 16.0456C84.6014 15.8497 84.4678 15.6789 84.2979 15.5499C84.146 15.4335 83.9605 15.3694 83.769 15.3672C83.769 15.3672 85.0069 15.7743 84.6939 17.4053Z" fill="#BC6A4F"/>
<path d="M80.2909 19.8802C80.3368 19.7746 80.3594 19.6603 80.3574 19.5451C80.3579 19.4287 80.3333 19.3134 80.2854 19.2073C80.2441 19.1108 80.1782 19.0268 80.0943 18.9636C80.0194 18.9067 79.9281 18.8756 79.834 18.875C79.834 18.875 80.4432 19.0744 80.2909 19.8802Z" fill="#BC6A4F"/>
<path d="M74.0334 18.874C73.9282 18.9166 73.8336 18.9818 73.7565 19.0651C73.6756 19.1437 73.6115 19.2379 73.5681 19.342C73.5294 19.4405 73.517 19.5474 73.5321 19.6522C73.5441 19.7451 73.5859 19.8316 73.6512 19.8986C73.6512 19.8986 73.3577 19.3226 74.0334 18.874Z" fill="#BC6A4F"/>
<path d="M74.8023 18.1556H78.2167C78.5567 18.1507 78.8953 18.2012 79.2191 18.3051C79.4961 18.4021 79.6345 18.5322 79.6345 18.6679H73.3872C73.3872 18.5322 73.5367 18.391 73.8026 18.3051C74.1255 18.2014 74.4631 18.1509 74.8023 18.1556Z" fill="#6E333C"/>
</g>
<defs>
<clipPath id="clip0_426_7">
<rect width="8.03071" height="3.59997" fill="white" transform="translate(70.5903 40.1836) rotate(-180)"/>
</clipPath>
<clipPath id="clip1_426_7">
<rect width="8.03071" height="3.59997" fill="white" transform="translate(91.6372 40.1836) rotate(-180)"/>
</clipPath>
</defs>
</svg>
