<svg width="130" height="36" viewBox="0 0 130 36" fill="none" xmlns="http://www.w3.org/2000/svg">
<path d="M0 0L129.6 0V36L0 36L0 0Z" fill="#ADB3D7"/>
<mask id="mask0_431_12" style="mask-type:alpha" maskUnits="userSpaceOnUse" x="100" y="6" width="25" height="25">
<circle cx="112.132" cy="18.1322" r="11.6322" fill="#C4C4C4" stroke="black"/>
</mask>
<g mask="url(#mask0_431_12)">
<path d="M103.437 27.7086C103.437 27.7086 102.439 18.007 108.457 14.3506L116.973 14.5598C116.973 14.5598 120.612 15.9299 121.1 27.4806L112.655 31.4361L103.437 27.7086Z" fill="#5154A1"/>
<path d="M116.793 14.3398C116.793 14.3398 114.818 17.1512 112.216 17.0173L112.726 19.1844C112.726 19.1844 116.853 16.35 116.793 14.3398Z" fill="#373684"/>
<path d="M116.793 14.3398C116.793 14.3398 114.67 16.9817 112.067 16.85L112.576 19.017C112.576 19.017 116.322 16.7621 116.793 14.3398Z" fill="#FAF3ED"/>
<path d="M111.413 16.9004L111.013 19.1135C111.013 19.1135 108.737 16.2102 108.597 14.3506C108.595 14.3506 110.549 16.7519 111.413 16.9004Z" fill="#373684"/>
<path d="M111.306 16.8712L110.833 19.0131C110.833 19.0131 108.741 16.206 108.597 14.3506C109.213 15.454 110.161 16.3358 111.306 16.8712Z" fill="#FAF3ED"/>
<path d="M112.013 18.0573C112.013 18.0573 112.431 23.5252 112.701 24.774C112.971 26.0227 111.724 27.3134 111.655 27.7443H110.055C110.055 27.7443 109.288 26.1943 109.459 25.025C109.631 23.8557 111.524 17.9883 111.524 17.9883L112.013 18.0573Z" fill="#C7361A"/>
<path d="M111.927 18.0233C111.927 18.0233 112.346 23.4911 112.615 24.7378C112.885 25.9845 111.639 27.2793 111.569 27.7081H109.969C109.969 27.7081 109.202 26.1581 109.373 24.9888C109.545 23.8195 111.438 17.9521 111.438 17.9521L111.927 18.0233Z" fill="#E8461C"/>
<path d="M111.429 17.8203L111.66 17.5463C111.673 17.5304 111.689 17.5176 111.708 17.5087C111.727 17.5036 111.747 17.5036 111.766 17.5087C111.787 17.5085 111.807 17.5151 111.823 17.5275C111.841 17.5382 111.856 17.5533 111.867 17.5714L112.103 17.9438C112.124 17.9766 112.132 18.0161 112.126 18.0546C112.121 18.0933 112.103 18.1289 112.074 18.155L111.743 18.4165C111.727 18.4304 111.708 18.4398 111.687 18.4437C111.668 18.4488 111.647 18.4488 111.628 18.4437C111.609 18.4374 111.591 18.4267 111.576 18.4123C111.561 18.3968 111.548 18.3783 111.54 18.3579L111.404 17.994C111.397 17.9665 111.397 17.9377 111.404 17.9103C111.406 17.8788 111.414 17.8481 111.429 17.8203Z" fill="#C7361A"/>
<path d="M111.385 17.8038L111.607 17.5402C111.62 17.5255 111.636 17.5134 111.653 17.5047C111.671 17.4972 111.69 17.4936 111.71 17.4942C111.729 17.4963 111.748 17.5028 111.764 17.513C111.781 17.5237 111.795 17.538 111.806 17.5549L112.034 17.9146C112.043 17.9308 112.05 17.9485 112.053 17.9669C112.057 17.9855 112.057 18.0048 112.053 18.0234C112.05 18.0424 112.045 18.0608 112.036 18.0778C112.026 18.0929 112.014 18.1064 112 18.1176L111.685 18.3707C111.67 18.3835 111.652 18.3922 111.632 18.3958C111.613 18.3999 111.593 18.3999 111.574 18.3958C111.555 18.3894 111.538 18.3786 111.524 18.3644C111.509 18.3491 111.498 18.3314 111.49 18.3121L111.36 17.9628C111.353 17.936 111.353 17.9079 111.36 17.8812C111.362 17.8536 111.37 17.8268 111.385 17.8038Z" fill="#E8461C"/>
<path d="M106.784 26.0602C106.784 26.0602 107.095 27.6186 107.089 27.5851C107.083 27.5517 107.428 27.3927 107.428 27.3927C107.393 26.9557 107.331 26.5213 107.244 26.0916C107.137 26.0358 107.023 25.995 106.905 25.9703C106.905 25.9703 107.093 21.6445 108.208 21.3203C106.932 21.6027 106.784 26.0602 106.784 26.0602Z" fill="#373684"/>
<path d="M102.985 27.7082C102.866 27.1696 102.818 26.6174 102.843 26.0662C102.843 26.0662 105.742 25.765 107.179 26.1415C107.179 26.1415 107.388 27.2543 107.311 27.7082H102.985Z" fill="#FAF3ED"/>
<g clip-path="url(#clip0_431_12)">
<path d="M107.321 27.5455C107.321 27.5455 107.251 29.9333 106.388 29.1757C106.388 29.1757 105.951 30.3685 105.424 29.4463C105.424 29.4463 104.918 30.7992 104.471 29.3922C104.471 29.3922 103.885 31.1532 103.29 29.2298C103.29 29.2298 101.403 32.4429 101.255 27.5455L107.321 27.5455Z" fill="#CC8A7A"/>
<path d="M106.619 27.5456C106.619 28.1492 106.536 28.731 106.386 29.1758C106.386 29.1758 106.688 28.7023 106.619 27.5456Z" fill="#BC6A4F"/>
<path d="M105.576 27.5455C105.623 28.8736 105.424 29.4463 105.424 29.4463C105.424 29.4463 105.726 28.9615 105.576 27.5455Z" fill="#BC6A4F"/>
<path d="M104.704 27.5449C104.69 28.2072 104.61 28.8462 104.471 29.3916C104.561 29.1559 104.628 28.8657 104.669 28.5447C104.71 28.2237 104.722 27.8811 104.704 27.5449Z" fill="#BC6A4F"/>
<path d="M103.065 28.1652C103.109 28.562 103.186 28.9259 103.29 29.2295C103.22 29.1248 103.162 28.9703 103.123 28.7827C103.083 28.5952 103.063 28.3817 103.065 28.1652Z" fill="#BC6A4F"/>
</g>
<g clip-path="url(#clip1_431_12)">
<path d="M123.219 27.5455C123.219 27.5455 123.149 29.9333 122.286 29.1757C122.286 29.1757 121.849 30.3685 121.322 29.4463C121.322 29.4463 120.816 30.7992 120.369 29.3922C120.369 29.3922 119.783 31.1532 119.188 29.2298C119.188 29.2298 117.301 32.4429 117.153 27.5455L123.219 27.5455Z" fill="#CC8A7A"/>
<path d="M122.516 27.5456C122.517 28.1492 122.434 28.731 122.284 29.1758C122.284 29.1758 122.586 28.7023 122.516 27.5456Z" fill="#BC6A4F"/>
<path d="M121.474 27.5455C121.521 28.8736 121.322 29.4463 121.322 29.4463C121.322 29.4463 121.624 28.9615 121.474 27.5455Z" fill="#BC6A4F"/>
<path d="M120.602 27.5449C120.588 28.2072 120.508 28.8462 120.369 29.3916C120.459 29.1559 120.526 28.8657 120.567 28.5447C120.607 28.2237 120.62 27.8811 120.602 27.5449Z" fill="#BC6A4F"/>
<path d="M118.963 28.1652C119.007 28.562 119.084 28.9259 119.188 29.2295C119.118 29.1248 119.06 28.9703 119.021 28.7827C118.981 28.5952 118.961 28.3817 118.963 28.1652Z" fill="#BC6A4F"/>
</g>
<path d="M106.784 26.0602C105.738 25.8886 104.234 25.9577 103.418 26.0162V25.8447C103.418 25.8447 106.06 25.7694 106.784 26.0602Z" fill="#373684"/>
<path d="M117.527 25.9998L117.222 27.5247C117.222 27.4913 116.883 27.3323 116.883 27.3323C116.918 26.8946 116.98 26.4595 117.067 26.0291C117.174 25.9733 117.288 25.9325 117.406 25.9078C117.406 25.9078 117.109 21.5841 115.994 21.2578C117.278 21.5423 117.527 25.9998 117.527 25.9998Z" fill="#373684"/>
<path d="M121.332 27.6479C121.453 27.1087 121.501 26.5558 121.476 26.0038C121.476 26.0038 118.577 25.7047 117.14 26.0791C117.14 26.0791 116.931 27.194 117.008 27.6479H121.332Z" fill="#FAF3ED"/>
<path d="M117.527 25.9992C118.573 25.8256 120.075 25.8967 120.89 25.9553V25.7817C120.89 25.7817 118.259 25.7084 117.527 25.9992Z" fill="#373684"/>
<path d="M107.461 12.5518C107.46 12.2965 107.518 12.0444 107.631 11.8155C107.729 11.6076 107.886 11.4331 108.083 11.3135C108.26 11.2077 108.47 11.1712 108.673 11.211C108.884 11.257 109.073 11.3727 109.21 11.5394C109.369 11.726 109.477 11.9499 109.526 12.1899C109.583 12.4434 109.583 12.7062 109.526 12.9597C109.469 13.1933 109.355 13.409 109.193 13.5872C109.049 13.7456 108.856 13.8516 108.645 13.8884C108.604 13.8916 108.563 13.8916 108.522 13.8884C108.451 13.8889 108.381 13.8805 108.313 13.8633C108.057 13.7895 107.84 13.6212 107.704 13.3927C107.547 13.1402 107.463 12.8491 107.461 12.5518Z" fill="#CC8A7A"/>
<path d="M111.94 17.0262L111.412 16.9007C110.264 16.5074 108.093 14.7817 108.093 12.5519C108.096 11.4778 108.524 10.4486 109.284 9.68904C110.043 8.92951 111.072 8.50136 112.147 8.49805H113.224C114.298 8.50136 115.327 8.92951 116.087 9.68904C116.846 10.4486 117.274 11.4778 117.278 12.5519C117.602 14.4847 115.431 16.3171 113.406 16.886C113.03 16.9943 112.642 17.054 112.251 17.0638C112.146 17.065 112.041 17.0523 111.94 17.0262Z" fill="#CC8A7A"/>
<path d="M109.566 12.7886C109.434 12.7886 109.307 12.7362 109.214 12.6428C109.12 12.5495 109.068 12.4228 109.068 12.2908C109.068 12.1588 109.12 12.0321 109.214 11.9388C109.307 11.8454 109.434 11.793 109.566 11.793C109.697 11.7935 109.823 11.8462 109.916 11.9395C110.009 12.0328 110.061 12.1591 110.061 12.2908C110.061 12.4225 110.009 12.5488 109.916 12.6421C109.823 12.7354 109.697 12.7881 109.566 12.7886Z" fill="#1B1935"/>
<path d="M114.615 12.7886C114.483 12.7881 114.357 12.7354 114.264 12.6421C114.171 12.5488 114.119 12.4225 114.119 12.2908C114.119 12.1591 114.171 12.0328 114.264 11.9395C114.357 11.8462 114.483 11.7935 114.615 11.793C114.747 11.793 114.874 11.8454 114.967 11.9388C115.06 12.0321 115.113 12.1588 115.113 12.2908C115.113 12.4228 115.06 12.5495 114.967 12.6428C114.874 12.7362 114.747 12.7886 114.615 12.7886Z" fill="#1B1935"/>
<path d="M109.808 11.5767C109.797 11.5747 109.786 11.5747 109.775 11.5767L108.855 11.9469C108.832 11.9562 108.813 11.9742 108.804 11.9969C108.794 12.0196 108.793 12.0452 108.802 12.0683C108.812 12.0913 108.83 12.1097 108.853 12.1194C108.876 12.1292 108.902 12.1296 108.926 12.1205L109.844 11.7524C109.867 11.7427 109.885 11.7243 109.895 11.7013C109.905 11.6783 109.905 11.6523 109.896 11.629C109.888 11.6129 109.875 11.5995 109.86 11.5902C109.844 11.581 109.827 11.5763 109.808 11.5767Z" fill="black"/>
<path d="M114.237 11.5244C114.217 11.5244 114.199 11.5303 114.183 11.5411C114.168 11.5519 114.155 11.5673 114.149 11.5851C114.14 11.6084 114.141 11.6342 114.151 11.657C114.161 11.6797 114.18 11.6975 114.203 11.7064L115.13 12.0557C115.153 12.0646 115.179 12.0638 115.202 12.0536C115.224 12.0434 115.242 12.0246 115.251 12.0013C115.259 11.978 115.258 11.9524 115.248 11.9298C115.238 11.9072 115.22 11.8894 115.197 11.88L114.27 11.5307L114.237 11.5244Z" fill="black"/>
<path d="M112.791 14.2101C112.284 14.2896 111.768 14.2896 111.262 14.2101C110.111 14.0302 109.515 14.4653 110.178 14.7749C110.766 15.0115 111.393 15.137 112.027 15.1451C112.661 15.1371 113.287 15.0116 113.874 14.7749C114.54 14.4653 113.941 14.0302 112.791 14.2101Z" fill="#E28E74"/>
<path d="M110.457 14.3906C110.754 14.6207 111.346 14.7776 112.028 14.7776C112.71 14.7776 113.302 14.6207 113.599 14.3906C113.599 14.3906 112.013 14.9826 110.457 14.3906Z" fill="#BC6A4F"/>
<path d="M108.227 9.25497L108.245 9.2215C108.36 9.00267 108.455 8.7737 108.528 8.5375C108.684 8.13392 108.92 7.76557 109.22 7.45395C109.873 6.66118 111.103 6.82643 111.387 7.0356C111.45 7.07953 111.506 7.11928 111.555 7.15693C111.595 7.18599 111.644 7.20072 111.694 7.19883C111.744 7.19694 111.792 7.17853 111.831 7.14647C112.067 6.9624 112.103 6.88291 112.626 6.84944C113.148 6.81598 113.402 7.0126 113.483 7.2176C113.492 7.24315 113.507 7.26626 113.526 7.28511C113.546 7.30395 113.569 7.318 113.595 7.32613C113.621 7.33426 113.648 7.33624 113.675 7.33193C113.702 7.32761 113.727 7.31711 113.749 7.30126C113.995 7.13535 114.276 7.02992 114.571 6.99357C114.865 6.95722 115.164 6.99098 115.443 7.09208C117.313 7.81374 118.022 10.9556 117.681 11.581C117.615 11.7147 117.521 11.8325 117.405 11.9267C117.289 12.0209 117.154 12.0891 117.01 12.127C116.652 12.2085 116.744 9.96617 114.732 9.96617C114.679 9.96451 114.626 9.97749 114.58 10.0037C114.534 10.0299 114.496 10.0683 114.47 10.1147C114.359 10.312 114.209 10.4848 114.03 10.6225C113.85 10.7602 113.644 10.86 113.425 10.9158C112.538 11.1564 111.797 9.66078 111.797 9.66078C111.797 9.66078 111.757 10.5519 110.542 10.9807C109.988 11.1725 109.387 11.185 108.825 11.0162C108.172 10.8301 107.863 9.94526 108.227 9.25497Z" fill="black"/>
<path d="M116.226 12.5518C116.224 12.2965 116.282 12.0444 116.395 11.8155C116.493 11.6076 116.65 11.4331 116.847 11.3135C117.024 11.2077 117.234 11.1712 117.437 11.211C117.648 11.2566 117.837 11.3723 117.974 11.5394C118.133 11.726 118.242 11.9499 118.29 12.1899C118.348 12.4433 118.348 12.7063 118.29 12.9597C118.234 13.1936 118.12 13.4095 117.958 13.5872C117.813 13.7456 117.621 13.8516 117.41 13.8884C117.369 13.8916 117.329 13.8916 117.288 13.8884C117.218 13.8889 117.147 13.8805 117.079 13.8633C116.824 13.7895 116.606 13.6212 116.47 13.3927C116.313 13.14 116.229 12.8492 116.226 12.5518Z" fill="#CC8A7A"/>
<path d="M117.975 13.0581C118.045 12.8957 118.079 12.7203 118.077 12.5435C118.078 12.3669 118.041 12.1921 117.968 12.031C117.905 11.883 117.804 11.754 117.675 11.6566C117.561 11.5686 117.42 11.5202 117.276 11.5186C117.276 11.5186 118.211 11.826 117.975 13.0581Z" fill="#BC6A4F"/>
<path d="M114.648 14.9273C114.683 14.8475 114.7 14.7612 114.699 14.6742C114.699 14.5862 114.68 14.4992 114.644 14.419C114.613 14.3461 114.563 14.2826 114.5 14.2349C114.443 14.1919 114.374 14.1684 114.303 14.168C114.303 14.168 114.763 14.3186 114.648 14.9273Z" fill="#BC6A4F"/>
<path d="M109.921 14.167C109.842 14.1992 109.771 14.2484 109.712 14.3113C109.651 14.3707 109.603 14.4418 109.57 14.5205C109.541 14.5949 109.531 14.6756 109.543 14.7548C109.552 14.8249 109.583 14.8903 109.633 14.9409C109.633 14.9409 109.411 14.5059 109.921 14.167Z" fill="#BC6A4F"/>
<path d="M110.502 13.6252H113.082C113.338 13.6215 113.594 13.6597 113.839 13.7382C114.048 13.8114 114.153 13.9097 114.153 14.0122H109.434C109.434 13.9097 109.547 13.8031 109.747 13.7382C109.991 13.6598 110.246 13.6217 110.502 13.6252Z" fill="#6E333C"/>
</g>
<defs>
<clipPath id="clip0_431_12">
<rect width="6.06612" height="2.71929" fill="white" transform="translate(107.321 30.2646) rotate(-180)"/>
</clipPath>
<clipPath id="clip1_431_12">
<rect width="6.06612" height="2.71929" fill="white" transform="translate(123.219 30.2646) rotate(-180)"/>
</clipPath>
</defs>
</svg>
