<svg width="123" height="36" viewBox="0 0 123 36" fill="none" xmlns="http://www.w3.org/2000/svg">
<rect width="122.4" height="36" fill="#EC8989"/>
<mask id="mask0_431_13" style="mask-type:alpha" maskUnits="userSpaceOnUse" x="89" y="2" width="28" height="28">
<path d="M117 16C117 23.732 110.732 30 103 30C95.268 30 89 23.732 89 16C89 8.26801 95.268 2 103 2C110.732 2 117 8.26801 117 16Z" fill="#EC8989"/>
</mask>
<g mask="url(#mask0_431_13)">
<path d="M91.0746 27.9366C91.0746 27.9366 89.8721 17.3297 97.123 13.333L107.367 13.5502C107.367 13.5502 111.745 15.0479 112.333 27.6737L102.172 31.9997L91.0746 27.9366Z" fill="#5154A1"/>
<path d="M107.19 13.2109C107.19 13.2109 104.842 16.1795 101.75 16.0381L102.355 18.3264C102.355 18.3264 107.261 15.3358 107.19 13.2109Z" fill="#373684"/>
<path d="M107.19 13.2109C107.19 13.2109 104.664 16.0028 101.571 15.8614L102.168 18.1475C102.168 18.1475 106.629 15.7687 107.19 13.2109Z" fill="#FAF3ED"/>
<path d="M100.794 15.6957L100.319 18.0303C100.319 18.0303 97.6129 14.9646 97.4473 13.001C97.4451 13.001 99.7709 15.5388 100.794 15.6957Z" fill="#373684"/>
<path d="M100.666 15.6647L100.105 17.9243C100.105 17.9243 97.6131 14.9623 97.4541 13.001C98.2214 14.2014 99.344 15.1325 100.666 15.6647Z" fill="#FAF3ED"/>
<path d="M101.505 16.9176C101.505 16.9176 102.004 22.6891 102.322 24.0077C102.64 25.3263 101.162 26.6891 101.074 27.1441H99.1702C99.1702 27.1441 98.258 25.5074 98.4612 24.2727C98.6644 23.0381 100.922 16.8447 100.922 16.8447L101.505 16.9176Z" fill="#C7361A"/>
<path d="M101.405 16.8817C101.405 16.8817 101.904 22.6532 102.222 23.9718C102.541 25.2904 101.061 26.6532 100.972 27.1082H99.075C99.075 27.1082 98.1606 25.4715 98.366 24.2369C98.5714 23.0022 100.82 16.8066 100.82 16.8066L101.405 16.8817Z" fill="#E8461C"/>
<path d="M100.816 16.6677L101.087 16.3784C101.103 16.3608 101.123 16.3472 101.145 16.3386C101.167 16.3296 101.19 16.3258 101.213 16.3276C101.237 16.3295 101.261 16.3363 101.282 16.3475C101.302 16.3587 101.32 16.3746 101.333 16.3939L101.613 16.787C101.626 16.8038 101.635 16.8231 101.64 16.8436C101.645 16.8642 101.646 16.8855 101.642 16.9063C101.639 16.9271 101.632 16.947 101.621 16.9649C101.61 16.9827 101.595 16.9981 101.578 17.0101L101.185 17.2884C101.166 17.302 101.144 17.3111 101.121 17.3149C101.097 17.3204 101.073 17.3204 101.05 17.3149C101.027 17.3083 101.006 17.297 100.988 17.2818C100.97 17.2661 100.955 17.2465 100.946 17.2243L100.785 16.8422C100.776 16.8127 100.776 16.7812 100.785 16.7517C100.787 16.7213 100.797 16.6921 100.816 16.6677Z" fill="#C7361A"/>
<path d="M100.765 16.6493L101.028 16.3688C101.044 16.3526 101.062 16.3399 101.083 16.3313C101.105 16.3258 101.128 16.3258 101.149 16.3313C101.172 16.3316 101.194 16.3377 101.213 16.349C101.234 16.3601 101.251 16.376 101.264 16.3953L101.534 16.7752C101.545 16.7911 101.554 16.8091 101.558 16.8283C101.562 16.8479 101.562 16.8683 101.558 16.8879C101.555 16.9084 101.547 16.928 101.536 16.9453C101.526 16.9625 101.512 16.9776 101.496 16.9895L101.121 17.2568C101.101 17.2697 101.079 17.2787 101.057 17.2833C101.034 17.2877 101.011 17.2877 100.988 17.2833C100.966 17.2767 100.946 17.2654 100.929 17.2501C100.911 17.2352 100.897 17.2163 100.889 17.1949L100.734 16.826C100.725 16.798 100.725 16.7679 100.734 16.7399C100.735 16.7073 100.746 16.6757 100.765 16.6493Z" fill="#E8461C"/>
<path d="M98.2644 13.1883C98.0174 13.1883 97.7728 13.1396 97.5446 13.045C97.3164 12.9504 97.1091 12.8117 96.9345 12.6369C96.76 12.4622 96.6216 12.2547 96.5272 12.0264C96.4329 11.7981 96.3845 11.5534 96.3848 11.3064C96.3848 10.8079 96.5828 10.3298 96.9353 9.9773C97.2878 9.6248 97.7659 9.42676 98.2644 9.42676C98.7631 9.42676 99.2415 9.62473 99.5943 9.97716C99.9472 10.3296 100.146 10.8077 100.146 11.3064C100.146 11.8055 99.948 12.2842 99.5951 12.6371C99.2422 12.99 98.7635 13.1883 98.2644 13.1883Z" fill="#F39672"/>
<path d="M105.803 11.3222C105.801 10.9679 105.881 10.6179 106.037 10.2996C106.174 10.0122 106.392 9.77109 106.664 9.60604C106.91 9.45941 107.201 9.40832 107.481 9.46247C107.775 9.52533 108.038 9.68573 108.228 9.91748C108.449 10.1766 108.601 10.4873 108.67 10.8208C108.744 11.1724 108.739 11.5362 108.654 11.8855C108.579 12.2142 108.42 12.5182 108.195 12.769C107.996 12.9894 107.728 13.1364 107.435 13.1864C107.379 13.1952 107.322 13.1996 107.265 13.1997C107.17 13.2001 107.075 13.1883 106.982 13.1643C106.629 13.0617 106.327 12.8288 106.139 12.5128C105.917 12.1554 105.8 11.7428 105.803 11.3222Z" fill="#F39672"/>
<path d="M102.364 15.89C99.4335 15.89 97.0635 13.816 97.0635 11.2516C97.0635 8.68729 99.4401 6.61328 102.364 6.61328C105.289 6.61328 107.665 8.68729 107.665 11.2516C107.665 13.816 105.295 15.89 102.364 15.89Z" fill="#F39672"/>
<path d="M103.713 10.1982C103.726 10.2003 103.738 10.2003 103.751 10.1982L104.721 9.80727C104.745 9.79745 104.764 9.77851 104.774 9.75454C104.785 9.73057 104.785 9.70349 104.776 9.67916C104.766 9.65498 104.747 9.63564 104.723 9.62531C104.699 9.61497 104.672 9.61448 104.648 9.62395L103.676 10.0149C103.664 10.0195 103.653 10.0265 103.643 10.0356C103.634 10.0446 103.626 10.0555 103.621 10.0675C103.617 10.0795 103.614 10.0924 103.614 10.1054C103.614 10.1184 103.617 10.1312 103.623 10.143C103.631 10.16 103.644 10.1743 103.66 10.1841C103.676 10.1939 103.694 10.1988 103.713 10.1982Z" fill="black"/>
<path d="M99.9234 10.1251C99.9435 10.1251 99.9632 10.1189 99.9798 10.1075C99.9963 10.0961 100.009 10.0799 100.016 10.061C100.021 10.049 100.023 10.0362 100.023 10.0233C100.022 10.0105 100.019 9.99781 100.014 9.98609C100.008 9.97438 100.001 9.96385 99.9914 9.9551C99.9819 9.94636 99.9708 9.93957 99.9588 9.93515L98.9803 9.56408C98.9557 9.55474 98.9284 9.55555 98.9043 9.56632C98.8803 9.57708 98.8616 9.59693 98.8522 9.62151C98.8428 9.64612 98.8436 9.67342 98.8544 9.69744C98.8652 9.72145 98.885 9.74022 98.9096 9.74962L99.8881 10.1207C99.8995 10.1243 99.9115 10.1258 99.9234 10.1251Z" fill="black"/>
<path d="M99.1282 11.2005C99.0592 11.2005 98.9908 11.1869 98.9271 11.1605C98.8633 11.1341 98.8053 11.0954 98.7565 11.0466C98.7077 10.9977 98.669 10.9398 98.6426 10.876C98.6161 10.8122 98.6025 10.7439 98.6025 10.6748C98.6031 10.5358 98.6588 10.4027 98.7573 10.3046C98.8558 10.2064 98.9892 10.1514 99.1282 10.1514C99.2673 10.1514 99.4006 10.2064 99.4992 10.3046C99.5977 10.4027 99.6533 10.5358 99.6539 10.6748C99.6539 10.7439 99.6403 10.8122 99.6139 10.876C99.5875 10.9398 99.5488 10.9977 99.5 11.0466C99.4511 11.0954 99.3932 11.1341 99.3294 11.1605C99.2656 11.1869 99.1973 11.2005 99.1282 11.2005Z" fill="#1B1935"/>
<path d="M104.462 11.2005C104.323 11.2005 104.189 11.1451 104.09 11.0466C103.992 10.948 103.937 10.8143 103.937 10.6748C103.937 10.5358 103.993 10.4027 104.091 10.3046C104.19 10.2064 104.323 10.1514 104.462 10.1514C104.601 10.1514 104.734 10.2065 104.832 10.3047C104.931 10.4029 104.986 10.536 104.986 10.6748C104.986 10.7438 104.973 10.8121 104.946 10.8758C104.92 10.9396 104.882 10.9976 104.833 11.0464C104.784 11.0953 104.727 11.134 104.663 11.1605C104.599 11.1869 104.531 11.2005 104.462 11.2005Z" fill="#1B1935"/>
<path d="M108.228 12.0333C108.324 11.8071 108.373 11.5635 108.372 11.3177C108.37 11.0727 108.318 10.8306 108.219 10.6065C108.131 10.4015 107.991 10.2227 107.813 10.0874C107.654 9.9663 107.46 9.89969 107.261 9.89746C107.261 9.89746 108.555 10.3237 108.228 12.0333Z" fill="#BC6A4F"/>
<path d="M107.261 9.44945C107.037 9.45151 106.818 9.51574 106.629 9.63498C106.711 9.5543 106.811 9.49514 106.921 9.46277C107.032 9.43039 107.148 9.42582 107.261 9.44945Z" fill="#BC6A4F"/>
<path d="M100.109 14.8564C100.42 15.0972 101.041 15.2606 101.757 15.2606C102.472 15.2606 103.082 15.0972 103.404 14.8564C103.404 14.8564 101.75 15.4815 100.109 14.8564Z" fill="#BC6A4F"/>
<path d="M104.822 6.41895H104.602V7.4173H104.822V6.41895Z" fill="#1D1D1B"/>
<path d="M105.637 6.80371H105.417V7.80206H105.637V6.80371Z" fill="#1D1D1B"/>
<path d="M106.415 7.41699H106.194V8.41535H106.415V7.41699Z" fill="#1D1D1B"/>
<path d="M107.056 8.17676H106.835V9.17511H107.056V8.17676Z" fill="#1D1D1B"/>
<path d="M104.073 6.12793H103.853V7.12628H104.073V6.12793Z" fill="#1D1D1B"/>
<path d="M103.137 5.91992H102.916V6.91828H103.137V5.91992Z" fill="#1D1D1B"/>
<path d="M102.475 5.91992H102.254V6.91828H102.475V5.91992Z" fill="#1D1D1B"/>
<path d="M101.739 5.91992H101.518V6.91828H101.739V5.91992Z" fill="#1D1D1B"/>
<path d="M100.966 6.12793H100.745V7.12628H100.966V6.12793Z" fill="#1D1D1B"/>
<path d="M100.261 6.41895H100.04V7.4173H100.261V6.41895Z" fill="#1D1D1B"/>
<path d="M99.5368 6.80371H99.3159V7.80206H99.5368V6.80371Z" fill="#1D1D1B"/>
<path d="M98.883 7.23828H98.6621V8.23663H98.883V7.23828Z" fill="#1D1D1B"/>
<path d="M103.696 12.1202C103.506 11.9307 103.248 11.8243 102.98 11.8242H100.537C100.404 11.824 100.273 11.8501 100.15 11.9008C100.027 11.9516 99.9155 12.0262 99.8216 12.1202C99.6315 12.3099 99.5243 12.5672 99.5234 12.8358V16.224C99.6576 16.2243 99.7905 16.1981 99.9146 16.147C100.039 16.0958 100.151 16.0207 100.246 15.9259C100.341 15.8312 100.417 15.7186 100.468 15.5946C100.52 15.4707 100.546 15.3378 100.546 15.2036V12.8358H102.976V15.2036C102.976 15.4742 103.083 15.7338 103.275 15.9252C103.466 16.1165 103.726 16.224 103.996 16.224V12.8358C103.996 12.7026 103.969 12.5709 103.917 12.4481C103.866 12.3253 103.79 12.2139 103.696 12.1202Z" fill="#D8690E"/>
<path d="M101.255 13.2461H101.785C101.82 13.2463 101.855 13.2571 101.884 13.2771C101.914 13.297 101.936 13.3252 101.95 13.3581C101.963 13.391 101.966 13.4272 101.959 13.4619C101.952 13.4966 101.934 13.5283 101.909 13.5531L101.509 13.9418L101.127 13.5487C101.103 13.5234 101.086 13.4917 101.08 13.4573C101.074 13.4229 101.078 13.3874 101.091 13.3553C101.105 13.3231 101.128 13.2956 101.157 13.2762C101.186 13.2568 101.22 13.2463 101.255 13.2461Z" fill="#D8690E"/>
<path d="M95.3008 25.3676C95.3008 25.3676 95.6719 27.0109 95.663 26.9778C95.7896 26.8949 95.9252 26.8267 96.0672 26.7746C96.0248 26.3114 95.951 25.8517 95.8463 25.3985C95.7183 25.3389 95.5832 25.2959 95.4444 25.2704C95.4444 25.2704 95.6652 20.7049 96.9905 20.3604C95.4687 20.6585 95.3008 25.3676 95.3008 25.3676Z" fill="#373684"/>
<path d="M95.3008 25.3688C94.0507 25.1854 92.2704 25.2605 91.3008 25.3224V25.1391C91.3008 25.1391 94.4372 25.0595 95.3008 25.3688Z" fill="#373684"/>
<path d="M108.06 25.3019C108.06 25.3019 107.692 26.9474 107.698 26.9121C107.572 26.8296 107.437 26.7614 107.296 26.7089C107.34 26.2458 107.413 25.7861 107.517 25.3328C107.645 25.2746 107.781 25.2323 107.919 25.2069C107.919 25.2069 107.566 20.6392 106.243 20.2969C107.767 20.5995 108.06 25.3019 108.06 25.3019Z" fill="#373684"/>
<path d="M108.061 25.3022C109.313 25.1211 111.093 25.194 112.063 25.2558V25.0747C112.063 25.0747 108.931 24.9952 108.061 25.3022Z" fill="#373684"/>
<g clip-path="url(#clip0_431_13)">
<path d="M95.8877 26.996C95.8877 26.996 95.8144 29.5173 94.9025 28.7174C94.9025 28.7174 94.4408 29.9769 93.8849 29.0031C93.8849 29.0031 93.3509 30.4316 92.8787 28.9459C92.8787 28.9459 92.26 30.8054 91.6317 28.7745C91.6317 28.7745 89.6394 32.1673 89.4823 26.996L95.8877 26.996Z" fill="#F39672"/>
<path d="M95.1458 26.9954C95.146 27.6328 95.0585 28.2471 94.9006 28.7168C94.9006 28.7168 95.2191 28.2168 95.1458 26.9954Z" fill="#BC6A4F"/>
<path d="M94.0454 26.9958C94.0951 28.3982 93.8848 29.0029 93.8848 29.0029C93.8848 29.0029 94.2034 28.491 94.0454 26.9958Z" fill="#BC6A4F"/>
<path d="M93.1247 26.9954C93.1099 27.6947 93.0247 28.3694 92.8786 28.9453C92.9731 28.6964 93.0447 28.39 93.0875 28.051C93.1303 27.7121 93.143 27.3503 93.1247 26.9954Z" fill="#BC6A4F"/>
<path d="M91.3935 27.6506C91.4403 28.0695 91.5215 28.4539 91.6309 28.7744C91.5575 28.6639 91.4967 28.5007 91.4548 28.3027C91.413 28.1046 91.3918 27.8792 91.3935 27.6506Z" fill="#BC6A4F"/>
</g>
<g clip-path="url(#clip1_431_13)">
<path d="M114 26.996C114 26.996 113.927 29.5173 113.015 28.7174C113.015 28.7174 112.553 29.9769 111.997 29.0031C111.997 29.0031 111.463 30.4316 110.991 28.9459C110.991 28.9459 110.372 30.8054 109.744 28.7745C109.744 28.7745 107.752 32.1673 107.595 26.996L114 26.996Z" fill="#F39672"/>
<path d="M113.258 26.9954C113.258 27.6328 113.171 28.2471 113.013 28.7168C113.013 28.7168 113.331 28.2168 113.258 26.9954Z" fill="#BC6A4F"/>
<path d="M112.158 26.9958C112.207 28.3982 111.997 29.0029 111.997 29.0029C111.997 29.0029 112.316 28.491 112.158 26.9958Z" fill="#BC6A4F"/>
<path d="M111.237 26.9954C111.222 27.6947 111.137 28.3694 110.991 28.9453C111.085 28.6964 111.157 28.39 111.2 28.051C111.243 27.7121 111.255 27.3503 111.237 26.9954Z" fill="#BC6A4F"/>
<path d="M109.506 27.6506C109.553 28.0695 109.634 28.4539 109.743 28.7744C109.67 28.6639 109.609 28.5007 109.567 28.3027C109.525 28.1046 109.504 27.8792 109.506 27.6506Z" fill="#BC6A4F"/>
</g>
<path d="M90.7771 27.1085C90.7771 27.1085 90.5164 26.0748 90.607 25.3724C90.607 25.3724 94.0526 25.0543 95.7622 25.4519C95.7622 25.4519 96.0096 26.627 95.919 27.1085H90.7771Z" fill="#FAF3ED"/>
<path d="M112.586 27.0428C112.586 27.0428 112.847 26.0113 112.756 25.3089C112.756 25.3089 109.311 24.9909 107.601 25.3884C107.601 25.3884 107.354 26.5635 107.444 27.0428H112.586Z" fill="#FAF3ED"/>
</g>
<defs>
<clipPath id="clip0_431_13">
<rect width="6.40537" height="2.87137" fill="white" transform="translate(95.8877 29.8672) rotate(-180)"/>
</clipPath>
<clipPath id="clip1_431_13">
<rect width="6.40537" height="2.87137" fill="white" transform="translate(114 29.8672) rotate(-180)"/>
</clipPath>
</defs>
</svg>
