<svg width="147" height="47" viewBox="0 0 147 47" fill="none" xmlns="http://www.w3.org/2000/svg">
<rect width="147" height="47" fill="#46A882"/>
<mask id="mask0_731_2" style="mask-type:alpha" maskUnits="userSpaceOnUse" x="105" y="6" width="33" height="33">
<circle cx="121.493" cy="22.5845" r="15.4927" fill="#A27474" stroke="black"/>
</mask>
<g mask="url(#mask0_731_2)">
<path d="M127.678 19.2828H127.777C130.82 19.3799 132.988 19.7488 133.293 21.3763C134.521 27.8929 135.005 36.8266 135.005 36.8266L121.881 40.7838H121.328L108.81 36.8266C108.81 36.8266 109.202 22.7935 110.021 21.3763C110.574 20.4444 112.51 19.3767 115.53 19.2764H127.7L127.678 19.2828Z" fill="#5154A1"/>
<path d="M116.552 23.4082C116.552 23.4082 121.846 27.4312 126.567 23.4082C126.567 23.4082 124.361 37.7272 124.667 39.4506H118.816L116.552 23.4082Z" fill="#373684"/>
<g clip-path="url(#clip0_731_2)">
<path d="M137.21 34.9937C137.21 34.9937 137.119 38.1414 135.98 37.1427C135.98 37.1427 135.404 38.715 134.71 37.4994C134.71 37.4994 134.043 39.2828 133.454 37.428C133.454 37.428 132.682 39.7494 131.897 37.214C131.897 37.214 129.41 41.4495 129.214 34.9937L137.21 34.9937Z" fill="#EFB19E"/>
<path d="M136.285 34.9936C136.285 35.7893 136.176 36.5562 135.979 37.1426C135.979 37.1426 136.376 36.5184 136.285 34.9936Z" fill="#BC6A4F"/>
<path d="M134.91 34.9934C134.973 36.7441 134.71 37.499 134.71 37.499C134.71 37.499 135.108 36.86 134.91 34.9934Z" fill="#BC6A4F"/>
<path d="M133.761 34.9934C133.743 35.8665 133.637 36.7088 133.454 37.4277C133.572 37.117 133.662 36.7344 133.715 36.3113C133.768 35.8882 133.784 35.4366 133.761 34.9934Z" fill="#BC6A4F"/>
<path d="M131.6 35.8109C131.659 36.3339 131.76 36.8137 131.896 37.2139C131.805 37.0758 131.729 36.8722 131.677 36.625C131.625 36.3777 131.598 36.0963 131.6 35.8109V35.8109Z" fill="#BC6A4F"/>
</g>
<g clip-path="url(#clip1_731_2)">
<path d="M114.325 34.7183C114.325 34.7183 114.233 37.866 113.095 36.8673C113.095 36.8673 112.518 38.4397 111.824 37.224C111.824 37.224 111.158 39.0074 110.568 37.1527C110.568 37.1527 109.796 39.474 109.012 36.9386C109.012 36.9386 106.524 41.1742 106.328 34.7183L114.325 34.7183Z" fill="#EFB19E"/>
<path d="M113.399 34.7182C113.399 35.5139 113.29 36.2809 113.093 36.8672C113.093 36.8672 113.49 36.243 113.399 34.7182Z" fill="#BC6A4F"/>
<path d="M112.025 34.718C112.087 36.4687 111.824 37.2236 111.824 37.2236C111.824 37.2236 112.222 36.5846 112.025 34.718Z" fill="#BC6A4F"/>
<path d="M110.876 34.718C110.857 35.5911 110.751 36.4334 110.568 37.1523C110.686 36.8416 110.776 36.4591 110.829 36.0359C110.883 35.6128 110.898 35.1612 110.876 34.718Z" fill="#BC6A4F"/>
<path d="M108.714 35.5356C108.773 36.0585 108.874 36.5383 109.011 36.9385C108.919 36.8005 108.843 36.5968 108.791 36.3496C108.739 36.1023 108.712 35.8209 108.714 35.5356V35.5356Z" fill="#BC6A4F"/>
</g>
<path d="M121.612 34.3394L121.615 25.1904L121.312 34.3504L121.612 34.3394Z" fill="#2C2C6B"/>
<path d="M126.568 24.4736C126.883 24.4736 127.139 24.218 127.139 23.9028C127.139 23.5876 126.883 23.332 126.568 23.332C126.253 23.332 125.997 23.5876 125.997 23.9028C125.997 24.218 126.253 24.4736 126.568 24.4736Z" fill="#C9C5BD"/>
<path d="M126.609 24.3292C126.885 24.3292 127.108 24.1058 127.108 23.8301C127.108 23.5545 126.885 23.3311 126.609 23.3311C126.333 23.3311 126.11 23.5545 126.11 23.8301C126.11 24.1058 126.333 24.3292 126.609 24.3292Z" fill="white"/>
<path d="M125.886 25.2988C126.201 25.2988 126.457 25.0432 126.457 24.728C126.457 24.4128 126.201 24.1572 125.886 24.1572C125.571 24.1572 125.315 24.4128 125.315 24.728C125.315 25.0432 125.571 25.2988 125.886 25.2988Z" fill="#C9C5BD"/>
<path d="M125.928 25.1554C126.203 25.1554 126.427 24.9319 126.427 24.6563C126.427 24.3807 126.203 24.1572 125.928 24.1572C125.652 24.1572 125.429 24.3807 125.429 24.6563C125.429 24.9319 125.652 25.1554 125.928 25.1554Z" fill="white"/>
<path d="M125.315 26.2128C125.63 26.2128 125.886 25.9573 125.886 25.6421C125.886 25.3268 125.63 25.0713 125.315 25.0713C125 25.0713 124.744 25.3268 124.744 25.6421C124.744 25.9573 125 26.2128 125.315 26.2128Z" fill="#C9C5BD"/>
<path d="M125.356 26.0656C125.632 26.0656 125.855 25.8421 125.855 25.5665C125.855 25.2908 125.632 25.0674 125.356 25.0674C125.08 25.0674 124.857 25.2908 124.857 25.5665C124.857 25.8421 125.08 26.0656 125.356 26.0656Z" fill="white"/>
<path d="M124.916 27.1894C125.231 27.1894 125.486 26.9339 125.486 26.6186C125.486 26.3034 125.231 26.0479 124.916 26.0479C124.6 26.0479 124.345 26.3034 124.345 26.6186C124.345 26.9339 124.6 27.1894 124.916 27.1894Z" fill="#DDD5C5"/>
<path d="M124.956 27.046C125.232 27.046 125.455 26.8226 125.455 26.5469C125.455 26.2713 125.232 26.0479 124.956 26.0479C124.68 26.0479 124.457 26.2713 124.457 26.5469C124.457 26.8226 124.68 27.046 124.956 27.046Z" fill="white"/>
<path d="M124.345 28.0605C124.66 28.0605 124.916 27.805 124.916 27.4897C124.916 27.1745 124.66 26.9189 124.345 26.9189C124.03 26.9189 123.774 27.1745 123.774 27.4897C123.774 27.805 124.03 28.0605 124.345 28.0605Z" fill="#C9C5BD"/>
<path d="M124.386 27.9152C124.662 27.9152 124.885 27.6917 124.885 27.4161C124.885 27.1404 124.662 26.917 124.386 26.917C124.111 26.917 123.887 27.1404 123.887 27.4161C123.887 27.6917 124.111 27.9152 124.386 27.9152Z" fill="white"/>
<path d="M123.742 28.8515C124.057 28.8515 124.312 28.596 124.312 28.2807C124.312 27.9655 124.057 27.71 123.742 27.71C123.426 27.71 123.171 27.9655 123.171 28.2807C123.171 28.596 123.426 28.8515 123.742 28.8515Z" fill="#C9C5BD"/>
<path d="M123.782 28.7081C124.058 28.7081 124.281 28.4847 124.281 28.209C124.281 27.9334 124.058 27.71 123.782 27.71C123.507 27.71 123.283 27.9334 123.283 28.209C123.283 28.4847 123.507 28.7081 123.782 28.7081Z" fill="white"/>
<path d="M122.997 29.5634C123.312 29.5634 123.567 29.3079 123.567 28.9927C123.567 28.6774 123.312 28.4219 122.997 28.4219C122.681 28.4219 122.426 28.6774 122.426 28.9927C122.426 29.3079 122.681 29.5634 122.997 29.5634Z" fill="#C9C5BD"/>
<path d="M123.037 29.42C123.313 29.42 123.536 29.1966 123.536 28.921C123.536 28.6453 123.313 28.4219 123.037 28.4219C122.762 28.4219 122.538 28.6453 122.538 28.921C122.538 29.1966 122.762 29.42 123.037 29.42Z" fill="white"/>
<path d="M122.13 29.9521C122.446 29.9521 122.701 29.6966 122.701 29.3813C122.701 29.0661 122.446 28.8105 122.13 28.8105C121.815 28.8105 121.56 29.0661 121.56 29.3813C121.56 29.6966 121.815 29.9521 122.13 29.9521Z" fill="#C9C5BD"/>
<path d="M122.172 29.8068C122.448 29.8068 122.671 29.5833 122.671 29.3077C122.671 29.032 122.448 28.8086 122.172 28.8086C121.896 28.8086 121.673 29.032 121.673 29.3077C121.673 29.5833 121.896 29.8068 122.172 29.8068Z" fill="white"/>
<path d="M121.074 29.8779C121.389 29.8779 121.644 29.6223 121.644 29.3071C121.644 28.9919 121.389 28.7363 121.074 28.7363C120.758 28.7363 120.503 28.9919 120.503 29.3071C120.503 29.6223 120.758 29.8779 121.074 29.8779Z" fill="#C9C5BD"/>
<path d="M121.115 29.7345C121.391 29.7345 121.614 29.511 121.614 29.2354C121.614 28.9598 121.391 28.7363 121.115 28.7363C120.84 28.7363 120.616 28.9598 120.616 29.2354C120.616 29.511 120.84 29.7345 121.115 29.7345Z" fill="white"/>
<path d="M120.165 29.3085C120.48 29.3085 120.736 29.053 120.736 28.7378C120.736 28.4225 120.48 28.167 120.165 28.167C119.85 28.167 119.594 28.4225 119.594 28.7378C119.594 29.053 119.85 29.3085 120.165 29.3085Z" fill="#C9C5BD"/>
<path d="M120.209 29.1652C120.485 29.1652 120.708 28.9417 120.708 28.6661C120.708 28.3904 120.485 28.167 120.209 28.167C119.933 28.167 119.71 28.3904 119.71 28.6661C119.71 28.9417 119.933 29.1652 120.209 29.1652Z" fill="white"/>
<path d="M119.398 28.6318C119.714 28.6318 119.969 28.3762 119.969 28.061C119.969 27.7458 119.714 27.4902 119.398 27.4902C119.083 27.4902 118.828 27.7458 118.828 28.061C118.828 28.3762 119.083 28.6318 119.398 28.6318Z" fill="#C9C5BD"/>
<path d="M119.44 28.4855C119.716 28.4855 119.939 28.262 119.939 27.9864C119.939 27.7108 119.716 27.4873 119.44 27.4873C119.164 27.4873 118.941 27.7108 118.941 27.9864C118.941 28.262 119.164 28.4855 119.44 28.4855Z" fill="white"/>
<path d="M118.828 27.8085C119.143 27.8085 119.398 27.553 119.398 27.2378C119.398 26.9225 119.143 26.667 118.828 26.667C118.512 26.667 118.257 26.9225 118.257 27.2378C118.257 27.553 118.512 27.8085 118.828 27.8085Z" fill="#C9C5BD"/>
<path d="M118.869 27.6652C119.145 27.6652 119.368 27.4417 119.368 27.1661C119.368 26.8904 119.145 26.667 118.869 26.667C118.594 26.667 118.37 26.8904 118.37 27.1661C118.37 27.4417 118.594 27.6652 118.869 27.6652Z" fill="white"/>
<path d="M118.37 26.9697C118.685 26.9697 118.941 26.7141 118.941 26.3989C118.941 26.0837 118.685 25.8281 118.37 25.8281C118.055 25.8281 117.799 26.0837 117.799 26.3989C117.799 26.7141 118.055 26.9697 118.37 26.9697Z" fill="#C9C5BD"/>
<path d="M118.412 26.8263C118.687 26.8263 118.911 26.6028 118.911 26.3272C118.911 26.0516 118.687 25.8281 118.412 25.8281C118.136 25.8281 117.913 26.0516 117.913 26.3272C117.913 26.6028 118.136 26.8263 118.412 26.8263Z" fill="white"/>
<path d="M117.879 26.2314C118.195 26.2314 118.45 25.9759 118.45 25.6606C118.45 25.3454 118.195 25.0898 117.879 25.0898C117.564 25.0898 117.309 25.3454 117.309 25.6606C117.309 25.9759 117.564 26.2314 117.879 26.2314Z" fill="#C9C5BD"/>
<path d="M117.92 26.088C118.196 26.088 118.42 25.8646 118.42 25.5889C118.42 25.3133 118.196 25.0898 117.92 25.0898C117.645 25.0898 117.421 25.3133 117.421 25.5889C117.421 25.8646 117.645 26.088 117.92 26.088Z" fill="white"/>
<path d="M117.379 25.4052C117.694 25.4052 117.95 25.1497 117.95 24.8344C117.95 24.5192 117.694 24.2637 117.379 24.2637C117.064 24.2637 116.808 24.5192 116.808 24.8344C116.808 25.1497 117.064 25.4052 117.379 25.4052Z" fill="#C9C5BD"/>
<path d="M117.421 25.2599C117.697 25.2599 117.921 25.0364 117.921 24.7608C117.921 24.4852 117.697 24.2617 117.421 24.2617C117.146 24.2617 116.922 24.4852 116.922 24.7608C116.922 25.0364 117.146 25.2599 117.421 25.2599Z" fill="white"/>
<path d="M116.765 24.6562C117.08 24.6562 117.336 24.4007 117.336 24.0854C117.336 23.7702 117.08 23.5146 116.765 23.5146C116.45 23.5146 116.194 23.7702 116.194 24.0854C116.194 24.4007 116.45 24.6562 116.765 24.6562Z" fill="#C9C5BD"/>
<path d="M116.809 24.5099C117.084 24.5099 117.308 24.2864 117.308 24.0108C117.308 23.7352 117.084 23.5117 116.809 23.5117C116.533 23.5117 116.31 23.7352 116.31 24.0108C116.31 24.2864 116.533 24.5099 116.809 24.5099Z" fill="white"/>
<path d="M131.982 19.3649V19.3842H111.776C111.776 16.6461 113.406 12.6727 116.144 12.6672L126.674 10.1856C129.418 10.1663 131.982 16.6185 131.982 19.3649Z" fill="#ED8A29"/>
<path d="M115.27 19.0123C114.643 19.0123 114.041 18.7634 113.598 18.3203C113.154 17.8772 112.905 17.2762 112.904 16.6492C112.905 16.0222 113.154 15.4212 113.598 14.9781C114.041 14.535 114.643 14.2861 115.27 14.2861C115.896 14.2861 116.497 14.5351 116.941 14.9783C117.384 15.4214 117.633 16.0225 117.633 16.6492C117.633 17.2759 117.384 17.877 116.941 18.3201C116.497 18.7633 115.896 19.0123 115.27 19.0123V19.0123Z" fill="#EFB19E"/>
<path d="M113.925 19.2343C114.24 19.2343 114.496 18.9788 114.496 18.6635C114.496 18.3483 114.24 18.0928 113.925 18.0928C113.61 18.0928 113.354 18.3483 113.354 18.6635C113.354 18.9788 113.61 19.2343 113.925 19.2343Z" fill="#C49318"/>
<path d="M113.969 19.0909C114.244 19.0909 114.468 18.8675 114.468 18.5919C114.468 18.3162 114.244 18.0928 113.969 18.0928C113.693 18.0928 113.47 18.3162 113.47 18.5919C113.47 18.8675 113.693 19.0909 113.969 19.0909Z" fill="#EDB61B"/>
<path d="M121.667 23.4076C117.391 23.4076 113.925 20.3745 113.925 16.652C113.925 12.9296 117.391 9.89648 121.667 9.89648C125.944 9.89648 129.407 12.9296 129.407 16.652C129.407 20.3745 125.941 23.4076 121.667 23.4076Z" fill="#EFB19E"/>
<path d="M121.989 19.8392C121.883 19.8558 121.775 19.8695 121.667 19.8806C121.242 19.9219 120.815 19.9219 120.39 19.8806C120.25 19.8806 120.114 19.8502 119.974 19.8309C118.457 19.591 117.671 20.1673 118.546 20.5754C119.32 20.8871 120.145 21.0526 120.98 21.0635C121.816 21.0528 122.642 20.8873 123.418 20.5754C124.292 20.1811 123.506 19.6048 121.989 19.8392Z" fill="#E28E74"/>
<path d="M126.96 16.6526C126.957 16.2072 127.058 15.7673 127.255 15.3676C127.427 15.0076 127.7 14.705 128.04 14.4963C128.348 14.3175 128.709 14.2567 129.058 14.3254C129.426 14.4057 129.757 14.6065 129.998 14.8961C130.275 15.2224 130.464 15.6131 130.55 16.0322C130.644 16.4736 130.638 16.9305 130.533 17.3695C130.436 17.78 130.237 18.1593 129.954 18.4724C129.705 18.7507 129.368 18.9363 129 18.9991C128.929 19.0101 128.857 19.0156 128.785 19.0156C128.665 19.0146 128.546 18.9998 128.429 18.9715C127.984 18.8402 127.606 18.5444 127.37 18.1443C127.098 17.6947 126.956 17.1783 126.96 16.6526V16.6526Z" fill="#EFB19E"/>
<path d="M130.006 17.5316C130.129 17.249 130.19 16.9435 130.185 16.6354C130.186 16.3266 130.121 16.0211 129.995 15.7393C129.883 15.4827 129.707 15.2588 129.485 15.0885C129.285 14.9358 129.041 14.8516 128.79 14.8486C128.79 14.8486 130.417 15.3836 130.006 17.5316Z" fill="#BC6A4F"/>
<path d="M125.886 20.8291C126.15 20.6705 126.378 20.4582 126.556 20.2059C126.734 19.9585 126.859 19.6768 126.923 19.3787C126.981 19.1045 126.97 18.8201 126.889 18.5515C126.815 18.3122 126.666 18.1027 126.465 17.9531C126.465 17.9531 127.471 19.3236 125.886 20.8291Z" fill="#BC6A4F"/>
<path d="M116.765 20.7248C116.471 20.6303 116.201 20.4753 115.971 20.2698C115.738 20.0671 115.551 19.8182 115.419 19.5391C115.303 19.2885 115.252 19.0125 115.27 18.7367C115.286 18.4858 115.383 18.2468 115.546 18.0557C115.546 18.0557 114.876 19.6246 116.765 20.7248Z" fill="#BC6A4F"/>
<path d="M118.91 20.082C119.301 20.3853 120.082 20.5921 120.98 20.5921C121.879 20.5921 122.66 20.3853 123.054 20.082C123.054 20.082 120.972 20.8596 118.91 20.082Z" fill="#BC6A4F"/>
<path d="M113.947 32.5228C113.947 32.5228 114.413 34.5909 114.402 34.5467C114.561 34.4442 114.731 34.3592 114.909 34.293C114.856 33.7112 114.764 33.1336 114.633 32.5642C114.473 32.4899 114.303 32.4362 114.129 32.4043C114.129 32.4043 114.76 31.0256 114.622 28.5439C114.577 29.8946 114.35 31.2329 113.947 32.5228V32.5228Z" fill="#373684"/>
<path d="M108.26 34.6979C108.26 34.6979 107.935 33.3992 108.048 32.5168C108.048 32.5168 112.377 32.117 114.525 32.6161C114.525 32.6161 114.836 34.094 114.723 34.6979H108.26Z" fill="#FAF3ED"/>
<path d="M113.947 32.5222C112.375 32.2934 110.139 32.3871 108.92 32.4643V32.2355C108.92 32.2355 112.855 32.1224 113.947 32.5222Z" fill="#373684"/>
<path d="M129.812 32.8615C129.812 32.8615 129.346 34.9268 129.357 34.8854C129.368 34.8441 128.85 34.629 128.85 34.629C128.904 34.0473 128.997 33.4698 129.126 32.9001C129.288 32.826 129.458 32.7723 129.633 32.7402C129.633 32.7402 128.999 31.3615 129.14 28.8799C129.183 30.2314 129.409 31.5708 129.812 32.8615V32.8615Z" fill="#373684"/>
<path d="M135.499 35.0476C135.499 35.0476 135.827 33.7516 135.714 32.8665C135.714 32.8665 131.382 32.4695 129.234 32.9685C129.234 32.9685 128.923 34.4437 129.038 35.0476H135.499Z" fill="#FAF3ED"/>
<path d="M129.812 32.8606C131.384 32.6318 133.673 32.7255 134.878 32.8055L134.861 32.5849C134.861 32.5849 130.907 32.4746 129.812 32.8606Z" fill="#373684"/>
<path d="M122.914 16.7428C122.914 17.2224 123.303 17.6113 123.783 17.6113C124.262 17.6113 124.651 17.2224 124.651 16.7428C124.651 16.2631 124.262 15.8742 123.783 15.8742C123.303 15.8742 122.914 16.2631 122.914 16.7428Z" fill="#1D1D1B"/>
<path d="M116.756 16.7428C116.756 17.2224 117.145 17.6113 117.625 17.6113C118.104 17.6113 118.493 17.2224 118.493 16.7428C118.493 16.2631 118.104 15.8742 117.625 15.8742C117.145 15.8742 116.756 16.2631 116.756 16.7428Z" fill="#1D1D1B"/>
<path d="M128.919 14.2881C129.052 13.9903 129.118 13.6666 129.111 13.3405C129.103 13.0143 129.024 12.6939 128.878 12.4021C128.736 12.0504 128.619 11.6892 128.528 11.3212C128.349 10.7959 128.068 10.3114 127.701 9.89565C126.843 8.74858 124.894 8.76512 124.414 8.97468L124.053 9.14013C123.912 9.20631 123.777 9.12083 123.669 9.0188C123.363 8.75961 123.3 8.65482 122.522 8.52799C121.83 8.41493 121.447 8.52799 121.237 8.72652C121.139 8.81849 121.014 8.87602 120.88 8.89045C120.746 8.90487 120.611 8.8754 120.496 8.80648L120.421 8.76237C119.671 8.32637 118.781 8.19975 117.94 8.40942C114.978 9.13185 113.313 13.0115 113.713 13.8745C113.801 14.0704 113.931 14.2454 114.092 14.388C114.253 14.5305 114.442 14.6374 114.647 14.7017C115.199 14.8699 115.51 11.7265 118.927 12.2946C118.927 12.2946 119.147 13.2486 120.479 13.7119C121.811 14.1751 123.261 12.3525 123.261 12.3525C123.261 12.3525 123.146 13.5243 124.96 14.2826C126.233 14.7783 127.645 14.7802 128.919 14.2881V14.2881Z" fill="#ED8A29"/>
<path d="M120.438 13.8132C119.791 13.62 119.241 13.187 118.902 12.6027C118.563 11.9712 118.541 11.1937 118.841 10.292L119.037 10.3582C118.761 11.2019 118.761 11.9243 119.084 12.5061C119.4 13.0357 119.901 13.4289 120.49 13.6091L120.438 13.8132Z" fill="#1D1D1B"/>
<path d="M124.921 14.3885C124.275 14.1947 123.727 13.763 123.387 13.1808C123.046 12.5466 123.026 11.769 123.327 10.8701L123.523 10.9335C123.247 11.7773 123.247 12.4997 123.569 13.0788C123.884 13.6078 124.384 14.0009 124.973 14.1817L124.921 14.3885Z" fill="#1D1D1B"/>
<path d="M129.244 19.2343C129.559 19.2343 129.815 18.9788 129.815 18.6635C129.815 18.3483 129.559 18.0928 129.244 18.0928C128.929 18.0928 128.673 18.3483 128.673 18.6635C128.673 18.9788 128.929 19.2343 129.244 19.2343Z" fill="#C49318"/>
<path d="M129.289 19.0909C129.565 19.0909 129.788 18.8675 129.788 18.5919C129.788 18.3162 129.565 18.0928 129.289 18.0928C129.013 18.0928 128.79 18.3162 128.79 18.5919C128.79 18.8675 129.013 19.0909 129.289 19.0909Z" fill="#EDB61B"/>
<path opacity="0.6" d="M114.398 18.9834C114.398 18.9834 114.177 18.4154 114.122 18.1231C114.122 18.1231 114.122 18.0928 113.938 18.0928C113.969 18.4588 114.082 18.813 114.268 19.1295C114.32 19.0892 114.364 19.0397 114.398 18.9834V18.9834Z" fill="#C49318"/>
<path opacity="0.6" d="M127.231 21.9219C127.231 21.9219 123.856 26.9182 123.886 34.501H124.584V33.6738L127.231 21.9219Z" fill="#373684"/>
<path opacity="0.6" d="M116.023 21.7686C116.023 21.7686 119.398 26.7649 119.368 34.3477H118.671V33.5205L116.023 21.7686Z" fill="#373684"/>
<path d="M128.781 19.625L129.854 23.0634L127.552 26.1214L127.372 30.0258L124.8 33.9027L124.825 32.91C124.949 28.0984 126.151 23.6618 128.77 19.625H128.781Z" fill="#373684"/>
<path d="M128.805 19.1357L129.878 22.5769L127.573 25.8858L127.396 29.793L124.584 33.6698L124.609 32.6744C124.734 27.8628 126.186 23.1792 128.805 19.1412V19.1357Z" fill="#FAF3ED"/>
<path d="M114.548 19.6191L113.475 23.0603L115.78 26.1155L115.957 30.0199L118.521 33.8968L118.493 32.9041C118.372 28.0925 117.167 23.6587 114.548 19.6191Z" fill="#373684"/>
<path d="M114.515 19.1309L113.443 22.572L115.745 25.8809L115.925 29.7853L118.734 33.6622L118.709 32.6695C118.586 27.8572 117.135 23.1726 114.515 19.1336V19.1309Z" fill="#FAF3ED"/>
<path d="M115.665 16.53C115.811 16.2476 116.006 15.9936 116.241 15.78C116.476 15.5535 116.759 15.3829 117.069 15.2809C117.397 15.184 117.751 15.2176 118.056 15.3747C118.34 15.5321 118.573 15.7699 118.723 16.0585C118.503 15.8529 118.248 15.6877 117.97 15.5705C117.704 15.4742 117.414 15.4655 117.143 15.5457C116.864 15.6359 116.601 15.771 116.365 15.9455C116.121 16.1264 115.887 16.3216 115.665 16.53V16.53Z" fill="#1D1D1B"/>
<path d="M125.994 16.53C125.768 16.3213 125.531 16.1261 125.282 15.9455C125.047 15.771 124.784 15.6359 124.505 15.5457C124.233 15.4655 123.944 15.4742 123.678 15.5705C123.4 15.6877 123.145 15.8529 122.925 16.0585C123.075 15.7699 123.307 15.5321 123.592 15.3747C123.897 15.2176 124.25 15.184 124.579 15.2809C124.889 15.3829 125.172 15.5535 125.406 15.78C125.646 15.9927 125.845 16.2467 125.994 16.53V16.53Z" fill="#1D1D1B"/>
</g>
<defs>
<clipPath id="clip0_731_2">
<rect width="7.99637" height="3.58458" fill="white" transform="translate(137.21 38.5781) rotate(-180)"/>
</clipPath>
<clipPath id="clip1_731_2">
<rect width="7.99637" height="3.58458" fill="white" transform="translate(114.325 38.3027) rotate(-180)"/>
</clipPath>
</defs>
</svg>
