<svg width="65" height="36" viewBox="0 0 65 36" fill="none" xmlns="http://www.w3.org/2000/svg">
<rect width="64.8" height="36" fill="#46A882"/>
<mask id="mask0_431_14" style="mask-type:alpha" maskUnits="userSpaceOnUse" x="33" y="5" width="25" height="25">
<circle cx="45.1324" cy="17.1324" r="11.6324" fill="#A27474" stroke="black"/>
</mask>
<g mask="url(#mask0_431_14)">
<path d="M49.8247 14.6279H49.9002C52.2082 14.7016 53.8532 14.9814 54.084 16.2161C55.0156 21.1598 55.3828 27.937 55.3828 27.937L45.4268 30.9391H45.0072L35.5107 27.937C35.5107 27.937 35.8087 17.2912 36.4298 16.2161C36.8494 15.5092 38.3181 14.6991 40.6094 14.623H49.8414L49.8247 14.6279Z" fill="#5154A1"/>
<path d="M41.3843 17.7568C41.3843 17.7568 45.4005 20.8088 48.9817 17.7568C48.9817 17.7568 47.3082 28.6195 47.5404 29.9269H43.1016L41.3843 17.7568Z" fill="#373684"/>
<g clip-path="url(#clip0_431_14)">
<path d="M57.0562 26.5455C57.0562 26.5455 56.9867 28.9333 56.1231 28.1757C56.1231 28.1757 55.6859 29.3685 55.1594 28.4463C55.1594 28.4463 54.6536 29.7992 54.2065 28.3922C54.2065 28.3922 53.6206 30.1532 53.0255 28.2298C53.0255 28.2298 51.1387 31.443 50.9899 26.5455L57.0562 26.5455Z" fill="#EFB19E"/>
<path d="M56.3539 26.5455C56.3541 27.1492 56.2712 27.731 56.1216 28.1758C56.1216 28.1758 56.4233 27.7023 56.3539 26.5455Z" fill="#BC6A4F"/>
<path d="M55.3114 26.5455C55.3585 27.8736 55.1593 28.4463 55.1593 28.4463C55.1593 28.4463 55.461 27.9615 55.3114 26.5455Z" fill="#BC6A4F"/>
<path d="M54.4395 26.5449C54.4256 27.2072 54.3449 27.8462 54.2065 28.3916C54.296 28.1559 54.3638 27.8657 54.4044 27.5447C54.4449 27.2237 54.4569 26.8811 54.4395 26.5449Z" fill="#BC6A4F"/>
<path d="M52.8001 27.1652C52.8444 27.5619 52.9213 27.9259 53.0249 28.2295C52.9555 28.1248 52.8978 27.9703 52.8582 27.7827C52.8186 27.5952 52.7985 27.3816 52.8001 27.1652Z" fill="#BC6A4F"/>
</g>
<g clip-path="url(#clip1_431_14)">
<path d="M39.6943 26.3375C39.6943 26.3375 39.6249 28.7253 38.7613 27.9677C38.7613 27.9677 38.3241 29.1605 37.7976 28.2383C37.7976 28.2383 37.2918 29.5912 36.8447 28.1842C36.8447 28.1842 36.2587 29.9452 35.6637 28.0218C35.6637 28.0218 33.7769 31.235 33.6281 26.3375L39.6943 26.3375Z" fill="#EFB19E"/>
<path d="M38.9921 26.3375C38.9923 26.9411 38.9094 27.523 38.7598 27.9678C38.7598 27.9678 39.0615 27.4943 38.9921 26.3375Z" fill="#BC6A4F"/>
<path d="M37.9496 26.3375C37.9967 27.6656 37.7975 28.2383 37.7975 28.2383C37.7975 28.2383 38.0992 27.7535 37.9496 26.3375Z" fill="#BC6A4F"/>
<path d="M37.0777 26.3369C37.0638 26.9992 36.9831 27.6382 36.8447 28.1836C36.9342 27.9479 37.002 27.6576 37.0425 27.3367C37.083 27.0157 37.0951 26.673 37.0777 26.3369Z" fill="#BC6A4F"/>
<path d="M35.4383 26.9572C35.4826 27.3539 35.5595 27.7179 35.6631 28.0215C35.5936 27.9168 35.536 27.7623 35.4964 27.5747C35.4568 27.3872 35.4367 27.1736 35.4383 26.9572Z" fill="#BC6A4F"/>
</g>
<path d="M45.2226 26.05L45.2247 19.1094L44.9946 26.0583L45.2226 26.05Z" fill="#2C2C6B"/>
<path d="M48.9823 18.5652C49.2215 18.5652 49.4153 18.3714 49.4153 18.1322C49.4153 17.8931 49.2215 17.6992 48.9823 17.6992C48.7432 17.6992 48.5493 17.8931 48.5493 18.1322C48.5493 18.3714 48.7432 18.5652 48.9823 18.5652Z" fill="#C9C5BD"/>
<path d="M49.0134 18.4555C49.2225 18.4555 49.392 18.286 49.392 18.0769C49.392 17.8678 49.2225 17.6982 49.0134 17.6982C48.8043 17.6982 48.6348 17.8678 48.6348 18.0769C48.6348 18.286 48.8043 18.4555 49.0134 18.4555Z" fill="white"/>
<path d="M48.4652 19.1912C48.7044 19.1912 48.8982 18.9973 48.8982 18.7582C48.8982 18.5191 48.7044 18.3252 48.4652 18.3252C48.2261 18.3252 48.0322 18.5191 48.0322 18.7582C48.0322 18.9973 48.2261 19.1912 48.4652 19.1912Z" fill="#C9C5BD"/>
<path d="M48.4968 19.0824C48.7059 19.0824 48.8754 18.9129 48.8754 18.7038C48.8754 18.4947 48.7059 18.3252 48.4968 18.3252C48.2877 18.3252 48.1182 18.4947 48.1182 18.7038C48.1182 18.9129 48.2877 19.0824 48.4968 19.0824Z" fill="white"/>
<path d="M48.0321 19.8846C48.2713 19.8846 48.4651 19.6907 48.4651 19.4516C48.4651 19.2124 48.2713 19.0186 48.0321 19.0186C47.793 19.0186 47.5991 19.2124 47.5991 19.4516C47.5991 19.6907 47.793 19.8846 48.0321 19.8846Z" fill="#C9C5BD"/>
<path d="M48.0632 19.7729C48.2723 19.7729 48.4418 19.6033 48.4418 19.3942C48.4418 19.1851 48.2723 19.0156 48.0632 19.0156C47.8541 19.0156 47.6846 19.1851 47.6846 19.3942C47.6846 19.6033 47.8541 19.7729 48.0632 19.7729Z" fill="white"/>
<path d="M47.7289 20.6258C47.968 20.6258 48.1619 20.4319 48.1619 20.1928C48.1619 19.9536 47.968 19.7598 47.7289 19.7598C47.4898 19.7598 47.2959 19.9536 47.2959 20.1928C47.2959 20.4319 47.4898 20.6258 47.7289 20.6258Z" fill="#DDD5C5"/>
<path d="M47.76 20.517C47.9691 20.517 48.1386 20.3475 48.1386 20.1384C48.1386 19.9293 47.9691 19.7598 47.76 19.7598C47.5509 19.7598 47.3813 19.9293 47.3813 20.1384C47.3813 20.3475 47.5509 20.517 47.76 20.517Z" fill="white"/>
<path d="M47.2963 21.2859C47.5354 21.2859 47.7293 21.0921 47.7293 20.8529C47.7293 20.6138 47.5354 20.4199 47.2963 20.4199C47.0571 20.4199 46.8633 20.6138 46.8633 20.8529C46.8633 21.0921 47.0571 21.2859 47.2963 21.2859Z" fill="#C9C5BD"/>
<path d="M47.3273 21.1762C47.5365 21.1762 47.706 21.0067 47.706 20.7976C47.706 20.5885 47.5365 20.4189 47.3273 20.4189C47.1182 20.4189 46.9487 20.5885 46.9487 20.7976C46.9487 21.0067 47.1182 21.1762 47.3273 21.1762Z" fill="white"/>
<path d="M46.8383 21.8865C47.0774 21.8865 47.2713 21.6927 47.2713 21.4535C47.2713 21.2144 47.0774 21.0205 46.8383 21.0205C46.5991 21.0205 46.4053 21.2144 46.4053 21.4535C46.4053 21.6927 46.5991 21.8865 46.8383 21.8865Z" fill="#C9C5BD"/>
<path d="M46.8693 21.7777C47.0784 21.7777 47.248 21.6082 47.248 21.3991C47.248 21.19 47.0784 21.0205 46.8693 21.0205C46.6602 21.0205 46.4907 21.19 46.4907 21.3991C46.4907 21.6082 46.6602 21.7777 46.8693 21.7777Z" fill="white"/>
<path d="M46.2728 22.4266C46.512 22.4266 46.7058 22.2327 46.7058 21.9935C46.7058 21.7544 46.512 21.5605 46.2728 21.5605C46.0337 21.5605 45.8398 21.7544 45.8398 21.9935C45.8398 22.2327 46.0337 22.4266 46.2728 22.4266Z" fill="#C9C5BD"/>
<path d="M46.3039 22.3178C46.513 22.3178 46.6825 22.1483 46.6825 21.9392C46.6825 21.7301 46.513 21.5605 46.3039 21.5605C46.0948 21.5605 45.9253 21.7301 45.9253 21.9392C45.9253 22.1483 46.0948 22.3178 46.3039 22.3178Z" fill="white"/>
<path d="M45.6161 22.7215C45.8552 22.7215 46.0491 22.5276 46.0491 22.2885C46.0491 22.0493 45.8552 21.8555 45.6161 21.8555C45.377 21.8555 45.1831 22.0493 45.1831 22.2885C45.1831 22.5276 45.377 22.7215 45.6161 22.7215Z" fill="#C9C5BD"/>
<path d="M45.6477 22.6107C45.8568 22.6107 46.0263 22.4412 46.0263 22.2321C46.0263 22.023 45.8568 21.8535 45.6477 21.8535C45.4386 21.8535 45.269 22.023 45.269 22.2321C45.269 22.4412 45.4386 22.6107 45.6477 22.6107Z" fill="white"/>
<path d="M44.8148 22.6648C45.054 22.6648 45.2478 22.471 45.2478 22.2318C45.2478 21.9927 45.054 21.7988 44.8148 21.7988C44.5757 21.7988 44.3818 21.9927 44.3818 22.2318C44.3818 22.471 44.5757 22.6648 44.8148 22.6648Z" fill="#C9C5BD"/>
<path d="M44.8464 22.5561C45.0555 22.5561 45.225 22.3865 45.225 22.1774C45.225 21.9683 45.0555 21.7988 44.8464 21.7988C44.6373 21.7988 44.4678 21.9683 44.4678 22.1774C44.4678 22.3865 44.6373 22.5561 44.8464 22.5561Z" fill="white"/>
<path d="M44.1249 22.2332C44.364 22.2332 44.5579 22.0393 44.5579 21.8002C44.5579 21.561 44.364 21.3672 44.1249 21.3672C43.8858 21.3672 43.6919 21.561 43.6919 21.8002C43.6919 22.0393 43.8858 22.2332 44.1249 22.2332Z" fill="#C9C5BD"/>
<path d="M44.1584 22.1244C44.3675 22.1244 44.537 21.9549 44.537 21.7458C44.537 21.5367 44.3675 21.3672 44.1584 21.3672C43.9493 21.3672 43.7798 21.5367 43.7798 21.7458C43.7798 21.9549 43.9493 22.1244 44.1584 22.1244Z" fill="white"/>
<path d="M43.5434 21.7195C43.7825 21.7195 43.9764 21.5257 43.9764 21.2865C43.9764 21.0474 43.7825 20.8535 43.5434 20.8535C43.3042 20.8535 43.1104 21.0474 43.1104 21.2865C43.1104 21.5257 43.3042 21.7195 43.5434 21.7195Z" fill="#C9C5BD"/>
<path d="M43.5749 21.6088C43.784 21.6088 43.9535 21.4393 43.9535 21.2302C43.9535 21.0211 43.784 20.8516 43.5749 20.8516C43.3658 20.8516 43.1963 21.0211 43.1963 21.2302C43.1963 21.4393 43.3658 21.6088 43.5749 21.6088Z" fill="white"/>
<path d="M43.1102 21.0955C43.3494 21.0955 43.5432 20.9016 43.5432 20.6625C43.5432 20.4234 43.3494 20.2295 43.1102 20.2295C42.8711 20.2295 42.6772 20.4234 42.6772 20.6625C42.6772 20.9016 42.8711 21.0955 43.1102 21.0955Z" fill="#C9C5BD"/>
<path d="M43.1418 20.9867C43.3509 20.9867 43.5204 20.8172 43.5204 20.6081C43.5204 20.399 43.3509 20.2295 43.1418 20.2295C42.9327 20.2295 42.7632 20.399 42.7632 20.6081C42.7632 20.8172 42.9327 20.9867 43.1418 20.9867Z" fill="white"/>
<path d="M42.7631 20.4588C43.0022 20.4588 43.1961 20.2649 43.1961 20.0258C43.1961 19.7866 43.0022 19.5928 42.7631 19.5928C42.5239 19.5928 42.3301 19.7866 42.3301 20.0258C42.3301 20.2649 42.5239 20.4588 42.7631 20.4588Z" fill="#C9C5BD"/>
<path d="M42.7946 20.35C43.0037 20.35 43.1732 20.1805 43.1732 19.9714C43.1732 19.7623 43.0037 19.5928 42.7946 19.5928C42.5855 19.5928 42.416 19.7623 42.416 19.9714C42.416 20.1805 42.5855 20.35 42.7946 20.35Z" fill="white"/>
<path d="M42.391 19.8992C42.6301 19.8992 42.824 19.7053 42.824 19.4662C42.824 19.2271 42.6301 19.0332 42.391 19.0332C42.1519 19.0332 41.958 19.2271 41.958 19.4662C41.958 19.7053 42.1519 19.8992 42.391 19.8992Z" fill="#C9C5BD"/>
<path d="M42.4221 19.7904C42.6312 19.7904 42.8007 19.6209 42.8007 19.4118C42.8007 19.2027 42.6312 19.0332 42.4221 19.0332C42.213 19.0332 42.0435 19.2027 42.0435 19.4118C42.0435 19.6209 42.213 19.7904 42.4221 19.7904Z" fill="white"/>
<path d="M42.0116 19.2723C42.2508 19.2723 42.4446 19.0784 42.4446 18.8393C42.4446 18.6001 42.2508 18.4062 42.0116 18.4062C41.7725 18.4062 41.5786 18.6001 41.5786 18.8393C41.5786 19.0784 41.7725 19.2723 42.0116 19.2723Z" fill="#C9C5BD"/>
<path d="M42.0437 19.1625C42.2528 19.1625 42.4223 18.993 42.4223 18.7839C42.4223 18.5748 42.2528 18.4053 42.0437 18.4053C41.8346 18.4053 41.665 18.5748 41.665 18.7839C41.665 18.993 41.8346 19.1625 42.0437 19.1625Z" fill="white"/>
<path d="M41.5458 18.7039C41.7849 18.7039 41.9788 18.51 41.9788 18.2709C41.9788 18.0318 41.7849 17.8379 41.5458 17.8379C41.3067 17.8379 41.1128 18.0318 41.1128 18.2709C41.1128 18.51 41.3067 18.7039 41.5458 18.7039Z" fill="#C9C5BD"/>
<path d="M41.5788 18.5922C41.7879 18.5922 41.9574 18.4227 41.9574 18.2136C41.9574 18.0045 41.7879 17.835 41.5788 17.835C41.3697 17.835 41.2002 18.0045 41.2002 18.2136C41.2002 18.4227 41.3697 18.5922 41.5788 18.5922Z" fill="white"/>
<path d="M53.0899 14.6892V14.7038H37.7612C37.7612 12.6267 38.9975 9.61242 41.0747 9.60824L49.0632 7.72562C51.1445 7.71098 53.0899 12.6058 53.0899 14.6892Z" fill="#ED8A29"/>
<path d="M40.4115 14.4223C39.9358 14.4223 39.4796 14.2335 39.1431 13.8973C38.8066 13.5612 38.6173 13.1052 38.6167 12.6296C38.6173 12.1539 38.8066 11.698 39.1431 11.3619C39.4796 11.0257 39.9358 10.8369 40.4115 10.8369C40.8869 10.8369 41.3429 11.0258 41.6791 11.362C42.0153 11.6982 42.2041 12.1541 42.2041 12.6296C42.2041 13.105 42.0153 13.561 41.6791 13.8972C41.3429 14.2334 40.8869 14.4223 40.4115 14.4223Z" fill="#EFB19E"/>
<path d="M39.391 14.5906C39.6302 14.5906 39.824 14.3968 39.824 14.1576C39.824 13.9185 39.6302 13.7246 39.391 13.7246C39.1519 13.7246 38.958 13.9185 38.958 14.1576C38.958 14.3968 39.1519 14.5906 39.391 14.5906Z" fill="#C49318"/>
<path d="M39.4245 14.4818C39.6336 14.4818 39.8031 14.3123 39.8031 14.1032C39.8031 13.8941 39.6336 13.7246 39.4245 13.7246C39.2154 13.7246 39.0459 13.8941 39.0459 14.1032C39.0459 14.3123 39.2154 14.4818 39.4245 14.4818Z" fill="#EDB61B"/>
<path d="M45.2649 17.7566C42.0205 17.7566 39.3911 15.4557 39.3911 12.6317C39.3911 9.80781 42.0205 7.50684 45.2649 7.50684C48.5092 7.50684 51.1366 9.80781 51.1366 12.6317C51.1366 15.4557 48.5072 17.7566 45.2649 17.7566Z" fill="#EFB19E"/>
<path d="M45.5092 15.0492C45.4283 15.0617 45.3467 15.0722 45.2644 15.0805C44.9424 15.1119 44.618 15.1119 44.2959 15.0805C44.1893 15.0805 44.0868 15.0575 43.9801 15.0429C42.8296 14.8609 42.2334 15.2981 42.8965 15.6077C43.4841 15.8441 44.1103 15.9697 44.7436 15.9779C45.3775 15.9698 46.0045 15.8443 46.5928 15.6077C47.2559 15.3085 46.6597 14.8714 45.5092 15.0492Z" fill="#E28E74"/>
<path d="M49.2794 12.632C49.2775 12.2942 49.3541 11.9605 49.5032 11.6573C49.6341 11.3841 49.8411 11.1546 50.0993 10.9963C50.3323 10.8606 50.6067 10.8145 50.8712 10.8666C51.1505 10.9275 51.4016 11.0799 51.5845 11.2996C51.7942 11.5471 51.9381 11.8435 52.0029 12.1614C52.0742 12.4963 52.0699 12.8429 51.9903 13.1759C51.9166 13.4873 51.7655 13.7751 51.551 14.0126C51.3618 14.2237 51.1067 14.3645 50.8273 14.4122C50.7733 14.4205 50.7188 14.4247 50.6641 14.4247C50.5732 14.4239 50.4826 14.4127 50.3943 14.3912C50.0566 14.2916 49.7694 14.0673 49.591 13.7637C49.3843 13.4226 49.2764 13.0309 49.2794 12.632Z" fill="#EFB19E"/>
<path d="M51.5904 13.299C51.6835 13.0846 51.7299 12.8529 51.7264 12.6192C51.7271 12.3849 51.6779 12.1531 51.5821 11.9393C51.497 11.7447 51.3638 11.5748 51.1951 11.4457C51.0436 11.3298 50.8587 11.2659 50.668 11.2637C50.668 11.2637 51.9021 11.6695 51.5904 13.299Z" fill="#BC6A4F"/>
<path d="M48.4648 15.8009C48.6655 15.6806 48.8386 15.5195 48.9732 15.3281C49.1083 15.1404 49.203 14.9268 49.2514 14.7006C49.2957 14.4926 49.287 14.2768 49.2263 14.0731C49.1696 13.8915 49.0568 13.7326 48.9041 13.6191C48.9041 13.6191 49.6676 14.6588 48.4648 15.8009Z" fill="#BC6A4F"/>
<path d="M41.5458 15.7211C41.3231 15.6495 41.1179 15.5319 40.9434 15.376C40.7671 15.2222 40.6246 15.0334 40.525 14.8217C40.4366 14.6315 40.3978 14.4221 40.4121 14.213C40.424 14.0226 40.4974 13.8413 40.6213 13.6963C40.6213 13.6963 40.113 14.8865 41.5458 15.7211Z" fill="#BC6A4F"/>
<path d="M43.1729 15.2334C43.4699 15.4635 44.0619 15.6204 44.7438 15.6204C45.4257 15.6204 46.0177 15.4635 46.3168 15.2334C46.3168 15.2334 44.7375 15.8233 43.1729 15.2334Z" fill="#BC6A4F"/>
<path d="M39.4077 24.6718C39.4077 24.6718 39.7612 26.2406 39.7529 26.2072C39.8739 26.1294 40.0029 26.0649 40.1377 26.0147C40.0977 25.5733 40.0279 25.1351 39.9286 24.7032C39.8066 24.6468 39.678 24.6061 39.5458 24.5818C39.5458 24.5818 40.0248 23.5359 39.9202 21.6533C39.8859 22.6779 39.7135 23.6933 39.4077 24.6718Z" fill="#373684"/>
<path d="M35.0942 26.3214C35.0942 26.3214 34.8474 25.3361 34.9331 24.6667C34.9331 24.6667 38.2173 24.3634 39.8468 24.7421C39.8468 24.7421 40.0831 25.8633 39.9974 26.3214H35.0942Z" fill="#FAF3ED"/>
<path d="M39.4076 24.6711C38.2153 24.4975 36.5188 24.5686 35.5942 24.6272V24.4536C35.5942 24.4536 38.5792 24.3678 39.4076 24.6711Z" fill="#373684"/>
<path d="M51.4439 24.9288C51.4439 24.9288 51.0904 26.4955 51.0988 26.4641C51.1071 26.4328 50.7139 26.2696 50.7139 26.2696C50.7551 25.8283 50.825 25.3902 50.923 24.958C51.0458 24.9018 51.1751 24.8611 51.3079 24.8367C51.3079 24.8367 50.8268 23.7908 50.9335 21.9082C50.9664 22.9335 51.1381 23.9496 51.4439 24.9288Z" fill="#373684"/>
<path d="M55.7576 26.5875C55.7576 26.5875 56.0065 25.6044 55.9207 24.9329C55.9207 24.9329 52.6345 24.6317 51.005 25.0103C51.005 25.0103 50.7686 26.1294 50.8565 26.5875H55.7576Z" fill="#FAF3ED"/>
<path d="M51.4438 24.9283C52.6362 24.7546 54.3724 24.8258 55.2865 24.8864L55.2739 24.7191C55.2739 24.7191 52.2743 24.6354 51.4438 24.9283Z" fill="#373684"/>
<path d="M46.2105 12.7005C46.2105 13.0644 46.5055 13.3594 46.8694 13.3594C47.2333 13.3594 47.5283 13.0644 47.5283 12.7005C47.5283 12.3365 47.2333 12.0415 46.8694 12.0415C46.5055 12.0415 46.2105 12.3365 46.2105 12.7005Z" fill="#1D1D1B"/>
<path d="M41.5391 12.7005C41.5391 13.0644 41.8341 13.3594 42.198 13.3594C42.5619 13.3594 42.8569 13.0644 42.8569 12.7005C42.8569 12.3365 42.5619 12.0415 42.198 12.0415C41.8341 12.0415 41.5391 12.3365 41.5391 12.7005Z" fill="#1D1D1B"/>
<path d="M50.7664 10.8384C50.8673 10.6125 50.9168 10.3669 50.9114 10.1195C50.906 9.8721 50.8457 9.62898 50.735 9.40765C50.6274 9.14087 50.5386 8.86686 50.4693 8.58766C50.3339 8.18916 50.1206 7.82157 49.8418 7.5062C49.1913 6.63601 47.7124 6.64856 47.3484 6.80753L47.0744 6.93305C46.9677 6.98325 46.8652 6.91841 46.7836 6.84101C46.5514 6.64438 46.5033 6.56489 45.9134 6.46866C45.3884 6.3829 45.0976 6.46867 44.9386 6.61928C44.8641 6.68905 44.7689 6.73269 44.6674 6.74363C44.5659 6.75458 44.4636 6.73222 44.3759 6.67994L44.3195 6.64647C43.7507 6.31571 43.0753 6.21966 42.4369 6.37872C40.1903 6.92677 38.9268 9.86993 39.2301 10.5247C39.2975 10.6733 39.3955 10.806 39.5177 10.9142C39.6399 11.0223 39.7835 11.1034 39.9393 11.1522C40.3576 11.2798 40.594 8.89516 43.1857 9.32607C43.1857 9.32607 43.3531 10.0498 44.3634 10.4013C45.3737 10.7527 46.474 9.36998 46.474 9.36998C46.474 9.36998 46.3862 10.259 47.7626 10.8342C48.7283 11.2103 49.7996 11.2117 50.7664 10.8384Z" fill="#ED8A29"/>
<path d="M44.3318 10.4788C43.8407 10.3323 43.424 10.0039 43.1667 9.56054C42.9094 9.08152 42.8927 8.49163 43.1207 7.80762L43.2692 7.85782C43.06 8.49791 43.06 9.04595 43.3047 9.48732C43.5441 9.88904 43.9244 10.1873 44.3716 10.324L44.3318 10.4788Z" fill="#1D1D1B"/>
<path d="M47.7328 10.9143C47.2431 10.7672 46.8274 10.4397 46.5698 9.99804C46.3104 9.51693 46.2957 8.92704 46.5238 8.24512L46.6723 8.29324C46.4631 8.93333 46.4631 9.48137 46.7078 9.92065C46.9467 10.322 47.3261 10.6202 47.7725 10.7574L47.7328 10.9143Z" fill="#1D1D1B"/>
<path d="M51.0126 14.5906C51.2517 14.5906 51.4456 14.3968 51.4456 14.1576C51.4456 13.9185 51.2517 13.7246 51.0126 13.7246C50.7735 13.7246 50.5796 13.9185 50.5796 14.1576C50.5796 14.3968 50.7735 14.5906 51.0126 14.5906Z" fill="#C49318"/>
<path d="M51.0466 14.4818C51.2557 14.4818 51.4252 14.3123 51.4252 14.1032C51.4252 13.8941 51.2557 13.7246 51.0466 13.7246C50.8375 13.7246 50.668 13.8941 50.668 14.1032C50.668 14.3123 50.8375 14.4818 51.0466 14.4818Z" fill="#EDB61B"/>
<path opacity="0.6" d="M39.7502 14.4003C39.7502 14.4003 39.5828 13.9694 39.541 13.7476C39.541 13.7476 39.541 13.7246 39.4009 13.7246C39.4247 14.0022 39.5105 14.271 39.6519 14.5111C39.6912 14.4806 39.7245 14.443 39.7502 14.4003Z" fill="#C49318"/>
<path opacity="0.6" d="M49.4857 16.6299C49.4857 16.6299 46.9254 20.4202 46.9484 26.1727H47.4776V25.5451L49.4857 16.6299Z" fill="#373684"/>
<path opacity="0.6" d="M40.9829 16.5137C40.9829 16.5137 43.5433 20.304 43.5203 26.0564H42.991V25.4289L40.9829 16.5137Z" fill="#373684"/>
<path d="M50.6617 14.8867L51.4754 17.4952L49.7287 19.815L49.5927 22.777L47.6411 25.718L47.6599 24.965C47.7541 21.3148 48.6661 17.9491 50.6533 14.8867H50.6617Z" fill="#373684"/>
<path d="M50.6801 14.5156L51.4938 17.1262L49.745 19.6363L49.6112 22.6004L47.4775 25.5415L47.4964 24.7863C47.591 21.1361 48.6928 17.5831 50.6801 14.5198V14.5156Z" fill="#FAF3ED"/>
<path d="M39.8635 14.8828L39.0498 17.4934L40.7985 19.8111L40.9324 22.7731L42.8778 25.7141L42.8569 24.9611C42.7648 21.3109 41.8507 17.9473 39.8635 14.8828Z" fill="#373684"/>
<path d="M39.8391 14.5117L39.0254 17.1223L40.772 19.6324L40.908 22.5944L43.0396 25.5355L43.0207 24.7824C42.9272 21.1317 41.8261 17.5779 39.8391 14.5138V14.5117Z" fill="#FAF3ED"/>
<path d="M40.7109 12.5396C40.8215 12.3254 40.9696 12.1327 41.1481 11.9707C41.3261 11.7988 41.5406 11.6694 41.7757 11.592C42.0251 11.5185 42.2933 11.544 42.5245 11.6632C42.7406 11.7825 42.9167 11.963 43.0307 12.1819C42.8636 12.0259 42.6703 11.9006 42.4597 11.8117C42.2579 11.7386 42.038 11.732 41.8321 11.7929C41.6204 11.8613 41.4211 11.9638 41.2422 12.0962C41.0566 12.2334 40.8792 12.3815 40.7109 12.5396Z" fill="#1D1D1B"/>
<path d="M48.5469 12.5396C48.376 12.3813 48.1958 12.2332 48.0072 12.0962C47.8283 11.9638 47.6291 11.8613 47.4173 11.7929C47.2115 11.732 46.9916 11.7386 46.7898 11.8117C46.5792 11.9006 46.3859 12.0259 46.2188 12.1819C46.3328 11.963 46.5089 11.7825 46.725 11.6632C46.9561 11.544 47.2244 11.5185 47.4738 11.592C47.7089 11.6694 47.9234 11.7988 48.1014 11.9707C48.2829 12.132 48.4338 12.3247 48.5469 12.5396Z" fill="#1D1D1B"/>
</g>
<defs>
<clipPath id="clip0_431_14">
<rect width="6.06621" height="2.71934" fill="white" transform="translate(57.0562 29.2646) rotate(-180)"/>
</clipPath>
<clipPath id="clip1_431_14">
<rect width="6.06621" height="2.71934" fill="white" transform="translate(39.6943 29.0566) rotate(-180)"/>
</clipPath>
</defs>
</svg>
