<svg width="172" height="48" viewBox="0 0 172 48" fill="none" xmlns="http://www.w3.org/2000/svg">
<path d="M0 0L171.573 0V47.6591L0 47.6591L0 0Z" fill="#ADB3D7"/>
<mask id="mask0_426_2" style="mask-type:alpha" maskUnits="userSpaceOnUse" x="132" y="7" width="33" height="34">
<circle cx="148.447" cy="24.0038" r="15.5614" fill="#C4C4C4" stroke="black"/>
</mask>
<g mask="url(#mask0_426_2)">
<path d="M136.934 36.6812C136.934 36.6812 135.614 23.8376 143.581 18.9971L154.854 19.274C154.854 19.274 159.672 21.0878 160.318 36.3794L149.138 41.616L136.934 36.6812Z" fill="#5154A1"/>
<path d="M154.616 18.9824C154.616 18.9824 152.002 22.7042 148.557 22.527L149.233 25.3959C149.233 25.3959 154.696 21.6436 154.616 18.9824Z" fill="#373684"/>
<path d="M154.616 18.9824C154.616 18.9824 151.806 22.4799 148.361 22.3055L149.034 25.1744C149.034 25.1744 153.993 22.1892 154.616 18.9824Z" fill="#FAF3ED"/>
<path d="M147.494 22.3727L146.965 25.3026C146.965 25.3026 143.952 21.4589 143.767 18.9971C143.764 18.9971 146.35 22.1761 147.494 22.3727Z" fill="#373684"/>
<path d="M147.353 22.334L146.727 25.1696C146.727 25.1696 143.958 21.4534 143.767 18.9971C144.582 20.4579 145.837 21.6252 147.353 22.334Z" fill="#FAF3ED"/>
<path d="M148.289 23.9039C148.289 23.9039 148.843 31.1426 149.2 32.7958C149.557 34.449 147.907 36.1576 147.815 36.7281H145.697C145.697 36.7281 144.681 34.6761 144.908 33.1281C145.135 31.5801 147.641 23.8125 147.641 23.8125L148.289 23.9039Z" fill="#C7361A"/>
<path d="M148.175 23.8588C148.175 23.8588 148.729 31.0975 149.086 32.748C149.443 34.3984 147.793 36.1126 147.701 36.6802H145.583C145.583 36.6802 144.567 34.6283 144.794 33.0803C145.021 31.5323 147.527 23.7646 147.527 23.7646L148.175 23.8588Z" fill="#E8461C"/>
<path d="M147.516 23.5905L147.821 23.2277C147.838 23.2067 147.86 23.1897 147.884 23.1779C147.91 23.1712 147.936 23.1712 147.962 23.1779C147.989 23.1777 148.015 23.1864 148.037 23.2028C148.061 23.217 148.081 23.237 148.095 23.261L148.408 23.7539C148.436 23.7974 148.446 23.8496 148.438 23.9006C148.432 23.9518 148.407 23.9989 148.369 24.0336L147.931 24.3797C147.91 24.3982 147.884 24.4106 147.857 24.4157C147.831 24.4225 147.805 24.4225 147.779 24.4157C147.753 24.4074 147.729 24.3932 147.71 24.3742C147.69 24.3536 147.674 24.3291 147.663 24.3022L147.483 23.8203C147.473 23.784 147.473 23.7459 147.483 23.7096C147.485 23.6679 147.496 23.6272 147.516 23.5905Z" fill="#C7361A"/>
<path d="M147.457 23.5681L147.751 23.2192C147.768 23.1997 147.789 23.1837 147.812 23.1721C147.835 23.1623 147.861 23.1575 147.887 23.1583C147.912 23.1611 147.937 23.1696 147.959 23.1832C147.981 23.1973 148 23.2162 148.014 23.2386L148.316 23.7149C148.328 23.7363 148.337 23.7598 148.341 23.7841C148.346 23.8087 148.346 23.8343 148.341 23.8589C148.338 23.884 148.33 23.9084 148.319 23.9309C148.306 23.9509 148.29 23.9687 148.271 23.9835L147.853 24.3186C147.834 24.3356 147.81 24.3471 147.784 24.3518C147.759 24.3574 147.732 24.3574 147.707 24.3518C147.681 24.3434 147.659 24.3291 147.64 24.3103C147.621 24.2901 147.606 24.2666 147.596 24.2411L147.424 23.7786C147.415 23.7432 147.415 23.706 147.424 23.6706C147.426 23.6341 147.437 23.5987 147.457 23.5681Z" fill="#E8461C"/>
<path d="M141.365 34.4987C141.365 34.4987 141.778 36.5617 141.77 36.5174C141.761 36.4731 142.218 36.2626 142.218 36.2626C142.171 35.6841 142.09 35.109 141.974 34.5402C141.833 34.4663 141.682 34.4122 141.526 34.3796C141.526 34.3796 141.775 28.6529 143.251 28.2236C141.562 28.5975 141.365 34.4987 141.365 34.4987Z" fill="#373684"/>
<path d="M136.337 36.6803C136.178 35.9672 136.115 35.2362 136.148 34.5065C136.148 34.5065 139.986 34.1077 141.889 34.6062C141.889 34.6062 142.166 36.0794 142.063 36.6803H136.337Z" fill="#FAF3ED"/>
<g clip-path="url(#clip0_426_2)">
<path d="M142.077 36.4656C142.077 36.4656 141.985 39.6268 140.841 38.6238C140.841 38.6238 140.263 40.2029 139.566 38.982C139.566 38.982 138.896 40.7731 138.304 38.9104C138.304 38.9104 137.528 41.2417 136.741 38.6955C136.741 38.6955 134.243 42.9492 134.046 36.4656L142.077 36.4656Z" fill="#CC8A7A"/>
<path d="M141.147 36.4658C141.147 37.2649 141.037 38.0352 140.839 38.624C140.839 38.624 141.239 37.9972 141.147 36.4658Z" fill="#BC6A4F"/>
<path d="M139.767 36.465C139.83 38.2232 139.566 38.9814 139.566 38.9814C139.566 38.9814 139.965 38.3397 139.767 36.465Z" fill="#BC6A4F"/>
<path d="M138.613 36.4654C138.594 37.3422 138.488 38.1881 138.304 38.9102C138.423 38.5981 138.513 38.2139 138.566 37.7889C138.62 37.364 138.636 36.9104 138.613 36.4654Z" fill="#BC6A4F"/>
<path d="M136.442 37.2864C136.501 37.8116 136.603 38.2934 136.74 38.6953C136.648 38.5567 136.571 38.3522 136.519 38.1039C136.467 37.8556 136.44 37.5729 136.442 37.2864Z" fill="#BC6A4F"/>
</g>
<g clip-path="url(#clip1_426_2)">
<path d="M163.124 36.4656C163.124 36.4656 163.032 39.6268 161.888 38.6238C161.888 38.6238 161.31 40.2029 160.613 38.982C160.613 38.982 159.943 40.7731 159.351 38.9104C159.351 38.9104 158.575 41.2417 157.788 38.6955C157.788 38.6955 155.29 42.9492 155.093 36.4656L163.124 36.4656Z" fill="#CC8A7A"/>
<path d="M162.194 36.4658C162.194 37.2649 162.084 38.0352 161.886 38.624C161.886 38.624 162.286 37.9972 162.194 36.4658Z" fill="#BC6A4F"/>
<path d="M160.814 36.465C160.876 38.2232 160.613 38.9814 160.613 38.9814C160.613 38.9814 161.012 38.3397 160.814 36.465Z" fill="#BC6A4F"/>
<path d="M159.66 36.4654C159.641 37.3422 159.534 38.1881 159.351 38.9102C159.47 38.5981 159.559 38.2139 159.613 37.7889C159.667 37.364 159.683 36.9104 159.66 36.4654Z" fill="#BC6A4F"/>
<path d="M157.489 37.2864C157.548 37.8116 157.649 38.2934 157.787 38.6953C157.695 38.5567 157.618 38.3522 157.566 38.1039C157.513 37.8556 157.487 37.5729 157.489 37.2864Z" fill="#BC6A4F"/>
</g>
<path d="M141.366 34.498C139.981 34.2709 137.99 34.3623 136.91 34.4399V34.2128C136.91 34.2128 140.408 34.1131 141.366 34.498Z" fill="#373684"/>
<path d="M155.588 34.4194L155.184 36.4381C155.184 36.3938 154.736 36.1834 154.736 36.1834C154.782 35.604 154.864 35.0279 154.979 34.4582C155.121 34.3843 155.272 34.3302 155.428 34.2976C155.428 34.2976 155.035 28.5736 153.559 28.1416C155.259 28.5182 155.588 34.4194 155.588 34.4194Z" fill="#373684"/>
<path d="M160.626 36.6008C160.786 35.887 160.85 35.155 160.817 34.4242C160.817 34.4242 156.979 34.0282 155.076 34.5239C155.076 34.5239 154.799 35.9999 154.902 36.6008H160.626Z" fill="#FAF3ED"/>
<path d="M155.588 34.418C156.973 34.1882 158.961 34.2823 160.041 34.3598V34.13C160.041 34.13 156.558 34.0331 155.588 34.418Z" fill="#373684"/>
<path d="M142.263 16.6161C142.261 16.2782 142.338 15.9444 142.488 15.6414C142.618 15.3662 142.826 15.1351 143.086 14.9768C143.32 14.8367 143.598 14.7884 143.867 14.8411C144.146 14.902 144.397 15.0552 144.578 15.2758C144.788 15.5229 144.932 15.8192 144.996 16.1371C145.071 16.4726 145.071 16.8205 144.996 17.1561C144.921 17.4653 144.77 17.7509 144.556 17.9869C144.365 18.1965 144.11 18.3368 143.831 18.3856C143.776 18.3899 143.722 18.3899 143.667 18.3856C143.574 18.3863 143.481 18.3751 143.39 18.3524C143.052 18.2547 142.764 18.0319 142.584 17.7293C142.377 17.3951 142.265 17.0098 142.263 16.6161Z" fill="#CC8A7A"/>
<path d="M148.191 22.5391L147.493 22.3729C145.973 21.8523 143.099 19.5677 143.099 16.6158C143.103 15.1938 143.67 13.8312 144.675 12.8257C145.681 11.8202 147.043 11.2534 148.465 11.249H149.892C151.314 11.2534 152.676 11.8202 153.681 12.8257C154.687 13.8312 155.254 15.1938 155.258 16.6158C155.687 19.1745 152.813 21.6003 150.132 22.3535C149.635 22.4969 149.121 22.576 148.604 22.5889C148.465 22.5904 148.326 22.5737 148.191 22.5391Z" fill="#CC8A7A"/>
<path d="M145.049 16.9295C144.874 16.9295 144.706 16.86 144.583 16.7364C144.459 16.6128 144.39 16.4452 144.39 16.2704C144.39 16.0956 144.459 15.928 144.583 15.8044C144.706 15.6808 144.874 15.6113 145.049 15.6113C145.223 15.6121 145.39 15.6818 145.513 15.8053C145.636 15.9288 145.705 16.0961 145.705 16.2704C145.705 16.4447 145.636 16.6119 145.513 16.7355C145.39 16.859 145.223 16.9287 145.049 16.9295Z" fill="#1B1935"/>
<path d="M151.733 16.9295C151.559 16.9287 151.392 16.859 151.269 16.7355C151.146 16.6119 151.077 16.4447 151.077 16.2704C151.077 16.0961 151.146 15.9288 151.269 15.8053C151.392 15.6818 151.559 15.6121 151.733 15.6113C151.908 15.6113 152.076 15.6808 152.2 15.8044C152.323 15.928 152.393 16.0956 152.393 16.2704C152.393 16.4452 152.323 16.6128 152.2 16.7364C152.076 16.86 151.908 16.9295 151.733 16.9295Z" fill="#1B1935"/>
<path d="M145.37 15.3252C145.356 15.3226 145.341 15.3226 145.326 15.3252L144.107 15.8154C144.077 15.8277 144.053 15.8515 144.04 15.8815C144.027 15.9116 144.026 15.9455 144.038 15.976C144.051 16.0065 144.075 16.0308 144.106 16.0437C144.136 16.0567 144.171 16.0572 144.202 16.0452L145.417 15.5578C145.448 15.545 145.472 15.5207 145.485 15.4902C145.498 15.4597 145.499 15.4253 145.487 15.3945C145.476 15.3732 145.459 15.3554 145.438 15.3431C145.418 15.3309 145.394 15.3247 145.37 15.3252Z" fill="black"/>
<path d="M151.232 15.2549C151.207 15.2549 151.182 15.2626 151.162 15.277C151.141 15.2913 151.125 15.3116 151.116 15.3352C151.104 15.366 151.105 15.4003 151.119 15.4304C151.132 15.4605 151.157 15.484 151.188 15.4958L152.415 15.9583C152.446 15.97 152.48 15.969 152.51 15.9555C152.54 15.942 152.564 15.9171 152.575 15.8863C152.586 15.8554 152.585 15.8214 152.572 15.7915C152.558 15.7616 152.534 15.738 152.503 15.7257L151.277 15.2632L151.232 15.2549Z" fill="black"/>
<path d="M149.318 18.8107C148.648 18.9159 147.965 18.9159 147.294 18.8107C145.771 18.5725 144.982 19.1485 145.86 19.5584C146.638 19.8716 147.468 20.0378 148.308 20.0485C149.146 20.0379 149.975 19.8717 150.753 19.5584C151.633 19.1485 150.841 18.5725 149.318 18.8107Z" fill="#E28E74"/>
<path d="M146.229 19.0498C146.622 19.3544 147.406 19.5621 148.309 19.5621C149.211 19.5621 149.995 19.3544 150.388 19.0498C150.388 19.0498 148.289 19.8335 146.229 19.0498Z" fill="#BC6A4F"/>
<path d="M143.276 12.2511L143.301 12.2068C143.453 11.917 143.578 11.6139 143.674 11.3012C143.882 10.767 144.193 10.2793 144.591 9.86677C145.455 8.81723 147.083 9.036 147.46 9.31292C147.543 9.37108 147.618 9.4237 147.682 9.47354C147.735 9.51201 147.8 9.53152 147.867 9.52901C147.933 9.52651 147.996 9.50214 148.047 9.4597C148.36 9.21601 148.407 9.11078 149.099 9.06648C149.792 9.02217 150.127 9.28248 150.235 9.55386C150.247 9.58769 150.266 9.61829 150.292 9.64324C150.317 9.66819 150.349 9.68678 150.383 9.69754C150.417 9.7083 150.453 9.71093 150.488 9.70522C150.524 9.6995 150.557 9.6856 150.586 9.66462C150.912 9.44498 151.285 9.30541 151.675 9.25728C152.065 9.20916 152.46 9.25385 152.829 9.3877C155.305 10.3431 156.244 14.5024 155.793 15.3304C155.705 15.5074 155.58 15.6634 155.426 15.7881C155.273 15.9127 155.095 16.0031 154.904 16.0532C154.43 16.1612 154.552 13.1926 151.888 13.1926C151.818 13.1904 151.748 13.2076 151.687 13.2423C151.626 13.2769 151.576 13.3278 151.542 13.3892C151.395 13.6505 151.196 13.8792 150.958 14.0615C150.72 14.2438 150.448 14.3759 150.157 14.4498C148.983 14.7683 148.003 12.7883 148.003 12.7883C148.003 12.7883 147.95 13.968 146.341 14.5357C145.607 14.7897 144.812 14.8061 144.068 14.5827C143.204 14.3363 142.794 13.1649 143.276 12.2511Z" fill="black"/>
<path d="M153.866 16.6161C153.864 16.2782 153.941 15.9444 154.09 15.6414C154.22 15.3662 154.428 15.1351 154.688 14.9768C154.923 14.8367 155.201 14.7884 155.469 14.8411C155.749 14.9014 156 15.0547 156.181 15.2758C156.391 15.5229 156.535 15.8192 156.599 16.1371C156.675 16.4725 156.675 16.8207 156.599 17.1561C156.525 17.4658 156.373 17.7516 156.159 17.9869C155.968 18.1965 155.713 18.3368 155.433 18.3856C155.38 18.3898 155.326 18.3898 155.273 18.3856C155.179 18.3863 155.086 18.3751 154.996 18.3524C154.658 18.2547 154.369 18.0319 154.19 17.7293C153.982 17.3949 153.87 17.0098 153.866 16.6161Z" fill="#CC8A7A"/>
<path d="M156.181 17.2862C156.273 17.0712 156.32 16.839 156.316 16.6049C156.317 16.3711 156.268 16.1398 156.172 15.9265C156.088 15.7306 155.955 15.5598 155.785 15.4308C155.633 15.3144 155.447 15.2502 155.256 15.248C155.256 15.248 156.494 15.6551 156.181 17.2862Z" fill="#BC6A4F"/>
<path d="M151.777 19.7601C151.823 19.6544 151.846 19.5402 151.844 19.425C151.844 19.3085 151.82 19.1933 151.772 19.0872C151.73 18.9907 151.665 18.9066 151.581 18.8435C151.506 18.7866 151.414 18.7555 151.32 18.7549C151.32 18.7549 151.93 18.9543 151.777 19.7601Z" fill="#BC6A4F"/>
<path d="M145.52 18.7539C145.414 18.7965 145.32 18.8617 145.243 18.945C145.162 19.0236 145.098 19.1178 145.054 19.2219C145.016 19.3204 145.003 19.4273 145.018 19.5321C145.03 19.6249 145.072 19.7114 145.138 19.7785C145.138 19.7785 144.844 19.2025 145.52 18.7539Z" fill="#BC6A4F"/>
<path d="M146.289 18.0374H149.704C150.044 18.0325 150.382 18.083 150.706 18.187C150.983 18.2839 151.121 18.4141 151.121 18.5497H144.874C144.874 18.4141 145.024 18.2728 145.289 18.187C145.612 18.0832 145.95 18.0327 146.289 18.0374Z" fill="#6E333C"/>
</g>
<defs>
<clipPath id="clip0_426_2">
<rect width="8.03071" height="3.59997" fill="white" transform="translate(142.077 40.0654) rotate(-180)"/>
</clipPath>
<clipPath id="clip1_426_2">
<rect width="8.03071" height="3.59997" fill="white" transform="translate(163.124 40.0654) rotate(-180)"/>
</clipPath>
</defs>
</svg>
