<svg width="63" height="23" viewBox="0 0 63 23" fill="none" xmlns="http://www.w3.org/2000/svg">
<path d="M14.57 20.62C14.61 20.74 14.65 20.85 14.69 20.95C14.73 21.05 14.76 21.16 14.78 21.28C14.82 21.4 14.84 21.51 14.84 21.61C14.84 21.75 14.79 21.86 14.69 21.94C14.59 22.04 14.47 22.12 14.33 22.18C14.21 22.24 14.09 22.28 13.97 22.3C13.85 22.32 13.78 22.33 13.76 22.33C13.64 22.33 13.42 21.96 13.1 21.22C12.78 20.5 12.43 19.48 12.05 18.16C11.69 16.84 11.32 15.27 10.94 13.45C10.56 11.63 10.25 9.63 10.01 7.45C9.97 7.91 9.89 8.45 9.77 9.07C9.67 9.67 9.51 10.24 9.29 10.78C9.07 11.32 8.78 11.78 8.42 12.16C8.08 12.52 7.64 12.7 7.1 12.7C6.72 12.7 6.29 12.5 5.81 12.1C5.33 11.7 4.86 11.23 4.4 10.69C3.96 10.13 3.55 9.57 3.17 9.01C2.81 8.43 2.54 7.96 2.36 7.6C2.44 8.48 2.57 9.54 2.75 10.78C2.95 12.02 3.25 13.33 3.65 14.71C3.69 14.85 3.73 14.96 3.77 15.04C3.83 15.1 3.88 15.17 3.92 15.25C3.98 15.33 4.02 15.42 4.04 15.52C4.08 15.6 4.1 15.73 4.1 15.91C4.1 16.17 4 16.36 3.8 16.48C3.6 16.6 3.41 16.66 3.23 16.66C3.13 16.66 3 16.51 2.84 16.21C2.68 15.89 2.51 15.48 2.33 14.98C2.15 14.48 1.97 13.93 1.79 13.33C1.61 12.71 1.44 12.1 1.28 11.5C1.14 10.9 1.02 10.34 0.92 9.82C0.82 9.28 0.77 8.85 0.77 8.53C0.77 8.01 0.79 7.65 0.83 7.45C0.89 7.25 0.97 7.1 1.07 7V5.17C1.07 4.89 1.14 4.68 1.28 4.54C1.44 4.38 1.64 4.3 1.88 4.3C2.08 4.3 2.31 4.47 2.57 4.81C2.83 5.15 3.11 5.58 3.41 6.1C3.73 6.62 4.06 7.18 4.4 7.78C4.74 8.38 5.07 8.94 5.39 9.46C5.73 9.98 6.05 10.41 6.35 10.75C6.67 11.09 6.97 11.26 7.25 11.26C7.51 11.26 7.76 11.02 8 10.54C8.24 10.04 8.46 9.39 8.66 8.59C8.88 7.79 9.07 6.88 9.23 5.86C9.39 4.84 9.52 3.8 9.62 2.74C9.62 2.62 9.61 2.49 9.59 2.35C9.57 2.19 9.56 2.02 9.56 1.84C9.56 1.6 9.61 1.34 9.71 1.06C9.83 0.779999 10.05 0.639999 10.37 0.639999C10.55 0.639999 10.69 0.689999 10.79 0.789998C10.91 0.889998 10.99 1.02 11.03 1.18C11.07 1.32 11.09 1.47 11.09 1.63C11.11 1.77 11.12 1.89 11.12 1.99C11.12 2.15 11.1 2.42 11.06 2.8C11.04 3.16 11.03 3.72 11.03 4.48C11.03 5.14 11.08 5.91 11.18 6.79C11.28 7.65 11.41 8.57 11.57 9.55C11.75 10.51 11.95 11.51 12.17 12.55C12.41 13.57 12.66 14.57 12.92 15.55C13.2 16.53 13.47 17.46 13.73 18.34C14.01 19.2 14.29 19.96 14.57 20.62ZM17.3509 5.2C17.3509 5.24 17.2809 5.32 17.1409 5.44C17.0009 5.56 16.8309 5.69 16.6309 5.83C16.4509 5.95 16.2609 6.06 16.0609 6.16C15.8609 6.26 15.7009 6.31 15.5809 6.31C15.5009 6.31 15.3909 6.31 15.2509 6.31C15.1309 6.29 15.0009 6.25 14.8609 6.19C14.7409 6.13 14.6309 6.05 14.5309 5.95C14.4309 5.83 14.3809 5.68 14.3809 5.5C14.3809 5.22 14.4809 4.96 14.6809 4.72C14.8809 4.46 15.1409 4.33 15.4609 4.33C15.5209 4.33 15.6509 4.36 15.8509 4.42C16.0709 4.46 16.2909 4.52 16.5109 4.6C16.7309 4.68 16.9209 4.77 17.0809 4.87C17.2609 4.97 17.3509 5.08 17.3509 5.2ZM18.3409 16.42C18.3409 16.56 18.2309 16.68 18.0109 16.78C17.8109 16.88 17.6609 16.93 17.5609 16.93C17.3609 16.93 17.1809 16.8 17.0209 16.54C16.8609 16.28 16.7209 15.98 16.6009 15.64C16.4809 15.3 16.3809 14.98 16.3009 14.68C16.2209 14.36 16.1609 14.14 16.1209 14.02C16.0609 13.82 15.9809 13.58 15.8809 13.3C15.7809 13.02 15.6809 12.75 15.5809 12.49C15.5009 12.23 15.4309 12 15.3709 11.8C15.3109 11.6 15.2809 11.49 15.2809 11.47C15.2809 11.19 15.3309 10.93 15.4309 10.69C15.5509 10.45 15.6909 10.33 15.8509 10.33C16.0309 10.33 16.2209 10.47 16.4209 10.75C16.6209 11.03 16.8109 11.39 16.9909 11.83C17.1909 12.25 17.3709 12.72 17.5309 13.24C17.6909 13.74 17.8309 14.22 17.9509 14.68C18.0709 15.12 18.1609 15.51 18.2209 15.85C18.3009 16.17 18.3409 16.36 18.3409 16.42ZM29.2391 15.31C29.2391 15.43 29.1991 15.55 29.1191 15.67C29.0391 15.79 28.9391 15.9 28.8191 16C28.7191 16.1 28.5991 16.19 28.4591 16.27C28.3391 16.33 28.2291 16.36 28.1291 16.36C27.7891 16.36 27.3491 16.29 26.8091 16.15C26.2891 15.99 25.8691 15.75 25.5491 15.43C25.2091 15.09 24.9091 14.69 24.6491 14.23C24.3891 13.75 24.0991 13.05 23.7791 12.13C23.5591 13.01 23.2991 13.88 22.9991 14.74C22.7191 15.6 22.2591 16.39 21.6191 17.11C21.5791 17.15 21.5191 17.17 21.4391 17.17C21.2991 17.17 21.1491 17.1 20.9891 16.96C20.8291 16.82 20.7491 16.68 20.7491 16.54C20.7491 16.4 20.7291 16.08 20.6891 15.58C20.6691 15.06 20.6391 14.49 20.5991 13.87C20.5591 13.23 20.5191 12.59 20.4791 11.95C20.4591 11.29 20.4491 10.75 20.4491 10.33C20.4491 10.13 20.4591 9.87 20.4791 9.55C20.4991 9.21 20.5591 8.92 20.6591 8.68C20.6791 8.64 20.7491 8.56 20.8691 8.44C21.0091 8.32 21.1591 8.26 21.3191 8.26C21.4591 8.26 21.5391 8.35 21.5591 8.53C21.5791 8.71 21.5891 8.91 21.5891 9.13V13.87C21.5891 13.97 21.5991 14.11 21.6191 14.29C21.6591 14.47 21.7091 14.6 21.7691 14.68C21.9891 14.2 22.1891 13.64 22.3691 13C22.5691 12.34 22.7591 11.72 22.9391 11.14C23.1191 10.54 23.2991 10.04 23.4791 9.64C23.6591 9.22 23.8391 9.01 24.0191 9.01C24.2191 9.01 24.3791 9.05 24.4991 9.13C24.6191 9.21 24.7191 9.37 24.7991 9.61C24.8991 10.19 24.9791 10.71 25.0391 11.17C25.0991 11.61 25.1691 12.01 25.2491 12.37C25.3491 12.73 25.4791 13.07 25.6391 13.39C25.8191 13.69 26.0591 13.97 26.3591 14.23C26.6391 14.49 26.9491 14.68 27.2891 14.8C27.6491 14.92 27.9591 14.98 28.2191 14.98C28.3391 14.98 28.4691 14.96 28.6091 14.92C28.7491 14.86 28.8491 14.83 28.9091 14.83C28.9891 14.83 29.0591 14.9 29.1191 15.04C29.1991 15.18 29.2391 15.27 29.2391 15.31ZM39.4259 13.54C39.4259 13.74 39.3959 13.95 39.3359 14.17C39.2759 14.37 39.2159 14.54 39.1559 14.68C39.1159 14.74 38.9259 14.95 38.5859 15.31C38.2659 15.65 37.8559 16.01 37.3559 16.39C36.8759 16.77 36.3259 17.12 35.7059 17.44C35.1059 17.74 34.5259 17.89 33.9659 17.89C33.6259 17.89 33.2759 17.83 32.9159 17.71C32.5759 17.59 32.2559 17.4 31.9559 17.14C31.6559 16.86 31.4059 16.52 31.2059 16.12C31.0259 15.72 30.9359 15.23 30.9359 14.65C30.9359 13.69 31.0959 12.82 31.4159 12.04C31.7359 11.26 32.0559 10.64 32.3759 10.18C32.5159 9.96 32.6959 9.74 32.9159 9.52C33.1559 9.28 33.3859 9.07 33.6059 8.89C33.8259 8.69 34.0259 8.53 34.2059 8.41C34.4059 8.29 34.5459 8.23 34.6259 8.23C34.8059 8.23 34.9659 8.28 35.1059 8.38C35.2659 8.48 35.3459 8.58 35.3459 8.68C35.3459 8.84 35.2959 8.98 35.1959 9.1C35.1159 9.2 34.9959 9.32 34.8359 9.46C34.6759 9.58 34.4859 9.75 34.2659 9.97C34.0459 10.17 33.8159 10.44 33.5759 10.78C33.0959 11.44 32.7359 12.12 32.4959 12.82C32.2759 13.5 32.1659 14.1 32.1659 14.62C32.1659 15.14 32.3559 15.56 32.7359 15.88C33.1359 16.18 33.5459 16.33 33.9659 16.33C34.7259 16.33 35.3959 16.16 35.9759 15.82C36.5759 15.48 37.0859 15.1 37.5059 14.68C37.9259 14.26 38.2659 13.88 38.5259 13.54C38.7859 13.2 38.9759 13.03 39.0959 13.03C39.3159 13.03 39.4259 13.2 39.4259 13.54ZM50.1709 15.85C50.1909 15.89 50.2009 15.95 50.2009 16.03C50.2009 16.15 50.1109 16.33 49.9309 16.57C49.8709 16.65 49.7409 16.78 49.5409 16.96C49.3409 17.14 49.0709 17.32 48.7309 17.5C48.3909 17.68 47.9709 17.84 47.4709 17.98C46.9909 18.12 46.4209 18.19 45.7609 18.19C45.3009 18.19 44.8509 18.09 44.4109 17.89C43.9709 17.67 43.5809 17.36 43.2409 16.96C42.9009 16.54 42.6209 16.03 42.4009 15.43C42.1809 14.81 42.0709 14.09 42.0709 13.27C42.0709 12.49 42.1709 11.76 42.3709 11.08C42.5709 10.4 42.8209 9.8 43.1209 9.28C43.4409 8.76 43.7909 8.35 44.1709 8.05C44.5509 7.75 44.9209 7.6 45.2809 7.6C45.6009 7.6 45.9209 7.67 46.2409 7.81C46.5809 7.93 46.8809 8.09 47.1409 8.29C47.4209 8.49 47.6409 8.72 47.8009 8.98C47.9609 9.22 48.0409 9.47 48.0409 9.73C48.0409 10.03 47.9009 10.34 47.6209 10.66C47.3609 10.98 47.0409 11.28 46.6609 11.56C46.2809 11.82 45.9009 12.04 45.5209 12.22C45.1409 12.38 44.8409 12.46 44.6209 12.46C44.5009 12.46 44.3909 12.41 44.2909 12.31C44.2109 12.19 44.1709 12.05 44.1709 11.89C44.1709 11.61 44.2909 11.39 44.5309 11.23C44.7909 11.07 45.0709 10.93 45.3709 10.81C45.6709 10.67 45.9409 10.51 46.1809 10.33C46.4409 10.15 46.5709 9.9 46.5709 9.58C46.5709 9.54 46.5209 9.44 46.4209 9.28C46.3209 9.12 46.0509 9.04 45.6109 9.04C45.4109 9.04 45.1809 9.16 44.9209 9.4C44.6609 9.62 44.4109 9.93 44.1709 10.33C43.9309 10.71 43.7309 11.17 43.5709 11.71C43.4109 12.23 43.3309 12.8 43.3309 13.42C43.3309 13.94 43.4209 14.41 43.6009 14.83C43.8009 15.25 44.0509 15.61 44.3509 15.91C44.6509 16.19 45.0009 16.41 45.4009 16.57C45.8009 16.73 46.2109 16.81 46.6309 16.81C46.9309 16.81 47.2509 16.75 47.5909 16.63C47.9509 16.49 48.2809 16.35 48.5809 16.21C48.9009 16.05 49.1709 15.91 49.3909 15.79C49.6309 15.65 49.7809 15.58 49.8409 15.58C49.9009 15.58 49.9609 15.61 50.0209 15.67C50.1009 15.73 50.1509 15.79 50.1709 15.85ZM54.2098 17.08C54.2098 17.2 54.1498 17.32 54.0298 17.44C53.9098 17.54 53.7698 17.64 53.6098 17.74C53.4698 17.82 53.3298 17.89 53.1898 17.95C53.0498 17.99 52.9698 18.01 52.9498 18.01C52.7698 18.01 52.6298 17.97 52.5298 17.89C52.4498 17.79 52.3798 17.69 52.3198 17.59C52.2798 17.47 52.2498 17.36 52.2298 17.26C52.2298 17.16 52.2298 17.09 52.2298 17.05C52.2298 16.97 52.2498 16.87 52.2898 16.75C52.3298 16.61 52.3898 16.48 52.4698 16.36C52.5498 16.24 52.6398 16.14 52.7398 16.06C52.8598 15.96 52.9898 15.91 53.1298 15.91C53.3898 15.91 53.6298 16.02 53.8498 16.24C54.0898 16.46 54.2098 16.74 54.2098 17.08ZM58.37 17.08C58.37 17.2 58.31 17.32 58.19 17.44C58.07 17.54 57.93 17.64 57.77 17.74C57.63 17.82 57.49 17.89 57.35 17.95C57.21 17.99 57.13 18.01 57.11 18.01C56.93 18.01 56.79 17.97 56.69 17.89C56.61 17.79 56.54 17.69 56.48 17.59C56.44 17.47 56.41 17.36 56.39 17.26C56.39 17.16 56.39 17.09 56.39 17.05C56.39 16.97 56.41 16.87 56.45 16.75C56.49 16.61 56.55 16.48 56.63 16.36C56.71 16.24 56.8 16.14 56.9 16.06C57.02 15.96 57.15 15.91 57.29 15.91C57.55 15.91 57.79 16.02 58.01 16.24C58.25 16.46 58.37 16.74 58.37 17.08ZM62.5302 17.08C62.5302 17.2 62.4702 17.32 62.3502 17.44C62.2302 17.54 62.0902 17.64 61.9302 17.74C61.7902 17.82 61.6502 17.89 61.5102 17.95C61.3702 17.99 61.2902 18.01 61.2702 18.01C61.0902 18.01 60.9502 17.97 60.8502 17.89C60.7702 17.79 60.7002 17.69 60.6402 17.59C60.6002 17.47 60.5702 17.36 60.5502 17.26C60.5502 17.16 60.5502 17.09 60.5502 17.05C60.5502 16.97 60.5702 16.87 60.6102 16.75C60.6502 16.61 60.7102 16.48 60.7902 16.36C60.8702 16.24 60.9602 16.14 61.0602 16.06C61.1802 15.96 61.3102 15.91 61.4502 15.91C61.7102 15.91 61.9502 16.02 62.1702 16.24C62.4102 16.46 62.5302 16.74 62.5302 17.08Z" fill="#656565"/>
</svg>
