<svg width="123" height="36" viewBox="0 0 123 36" fill="none" xmlns="http://www.w3.org/2000/svg">
<rect width="122.4" height="36" fill="#46A882"/>
<path d="M105.751 18.488C106.183 18.248 106.555 17.66 106.555 16.892C106.555 15.38 105.367 14.48 102.967 14.48H98.4072V23H103.195C105.799 23 106.783 22.064 106.783 20.408C106.783 19.496 106.267 18.668 105.751 18.488ZM102.787 17.936H101.407V16.868H102.799C103.339 16.868 103.615 17.036 103.615 17.384C103.615 17.9 103.207 17.936 102.787 17.936ZM101.407 20.612V19.376H102.955C103.435 19.376 103.723 19.484 103.723 20.012C103.723 20.54 103.327 20.612 102.943 20.612H101.407Z" fill="#FAF3EE"/>
<mask id="mask0_426_3" style="mask-type:alpha" maskUnits="userSpaceOnUse" x="90" y="4" width="25" height="25">
<circle cx="102.132" cy="16.1324" r="11.6324" fill="#A27474" stroke="black"/>
</mask>
<g mask="url(#mask0_426_3)">
<path d="M106.825 13.6279H106.9C109.208 13.7016 110.853 13.9814 111.084 15.2161C112.016 20.1598 112.383 26.937 112.383 26.937L102.427 29.9391H102.007L92.5107 26.937C92.5107 26.937 92.8087 16.2912 93.4298 15.2161C93.8494 14.5092 95.3181 13.6991 97.6094 13.623H106.841L106.825 13.6279Z" fill="#5154A1"/>
<path d="M98.3843 16.7568C98.3843 16.7568 102.401 19.8088 105.982 16.7568C105.982 16.7568 104.308 27.6195 104.54 28.9269H100.102L98.3843 16.7568Z" fill="#373684"/>
<g clip-path="url(#clip0_426_3)">
<path d="M114.056 25.5455C114.056 25.5455 113.987 27.9333 113.123 27.1757C113.123 27.1757 112.686 28.3685 112.159 27.4463C112.159 27.4463 111.654 28.7992 111.207 27.3922C111.207 27.3922 110.621 29.1532 110.026 27.2298C110.026 27.2298 108.139 30.443 107.99 25.5455L114.056 25.5455Z" fill="#EFB19E"/>
<path d="M113.354 25.5455C113.354 26.1492 113.271 26.731 113.122 27.1758C113.122 27.1758 113.423 26.7023 113.354 25.5455Z" fill="#BC6A4F"/>
<path d="M112.311 25.5455C112.359 26.8736 112.159 27.4463 112.159 27.4463C112.159 27.4463 112.461 26.9615 112.311 25.5455Z" fill="#BC6A4F"/>
<path d="M111.44 25.5449C111.426 26.2072 111.345 26.8462 111.206 27.3916C111.296 27.1559 111.364 26.8657 111.404 26.5447C111.445 26.2237 111.457 25.8811 111.44 25.5449Z" fill="#BC6A4F"/>
<path d="M109.8 26.1652C109.844 26.5619 109.921 26.9259 110.025 27.2295C109.955 27.1248 109.898 26.9703 109.858 26.7827C109.819 26.5952 109.798 26.3816 109.8 26.1652Z" fill="#BC6A4F"/>
</g>
<g clip-path="url(#clip1_426_3)">
<path d="M96.6943 25.3375C96.6943 25.3375 96.6249 27.7253 95.7613 26.9677C95.7613 26.9677 95.3241 28.1605 94.7976 27.2383C94.7976 27.2383 94.2918 28.5912 93.8447 27.1842C93.8447 27.1842 93.2587 28.9452 92.6637 27.0218C92.6637 27.0218 90.7769 30.235 90.6281 25.3375L96.6943 25.3375Z" fill="#EFB19E"/>
<path d="M95.9921 25.3375C95.9923 25.9411 95.9094 26.523 95.7598 26.9678C95.7598 26.9678 96.0615 26.4943 95.9921 25.3375Z" fill="#BC6A4F"/>
<path d="M94.9496 25.3375C94.9967 26.6656 94.7975 27.2383 94.7975 27.2383C94.7975 27.2383 95.0992 26.7535 94.9496 25.3375Z" fill="#BC6A4F"/>
<path d="M94.0777 25.3369C94.0638 25.9992 93.9831 26.6382 93.8447 27.1836C93.9342 26.9479 94.002 26.6576 94.0425 26.3367C94.083 26.0157 94.0951 25.673 94.0777 25.3369Z" fill="#BC6A4F"/>
<path d="M92.4383 25.9572C92.4826 26.3539 92.5595 26.7179 92.6631 27.0215C92.5936 26.9168 92.536 26.7623 92.4964 26.5747C92.4568 26.3872 92.4367 26.1736 92.4383 25.9572Z" fill="#BC6A4F"/>
</g>
<path d="M102.223 25.05L102.225 18.1094L101.995 25.0583L102.223 25.05Z" fill="#2C2C6B"/>
<path d="M105.982 17.5652C106.221 17.5652 106.415 17.3714 106.415 17.1322C106.415 16.8931 106.221 16.6992 105.982 16.6992C105.743 16.6992 105.549 16.8931 105.549 17.1322C105.549 17.3714 105.743 17.5652 105.982 17.5652Z" fill="#C9C5BD"/>
<path d="M106.013 17.4555C106.222 17.4555 106.392 17.286 106.392 17.0769C106.392 16.8678 106.222 16.6982 106.013 16.6982C105.804 16.6982 105.635 16.8678 105.635 17.0769C105.635 17.286 105.804 17.4555 106.013 17.4555Z" fill="white"/>
<path d="M105.465 18.1912C105.704 18.1912 105.898 17.9973 105.898 17.7582C105.898 17.5191 105.704 17.3252 105.465 17.3252C105.226 17.3252 105.032 17.5191 105.032 17.7582C105.032 17.9973 105.226 18.1912 105.465 18.1912Z" fill="#C9C5BD"/>
<path d="M105.497 18.0824C105.706 18.0824 105.875 17.9129 105.875 17.7038C105.875 17.4947 105.706 17.3252 105.497 17.3252C105.288 17.3252 105.118 17.4947 105.118 17.7038C105.118 17.9129 105.288 18.0824 105.497 18.0824Z" fill="white"/>
<path d="M105.032 18.8846C105.271 18.8846 105.465 18.6907 105.465 18.4516C105.465 18.2124 105.271 18.0186 105.032 18.0186C104.793 18.0186 104.599 18.2124 104.599 18.4516C104.599 18.6907 104.793 18.8846 105.032 18.8846Z" fill="#C9C5BD"/>
<path d="M105.063 18.7729C105.272 18.7729 105.442 18.6033 105.442 18.3942C105.442 18.1851 105.272 18.0156 105.063 18.0156C104.854 18.0156 104.685 18.1851 104.685 18.3942C104.685 18.6033 104.854 18.7729 105.063 18.7729Z" fill="white"/>
<path d="M104.729 19.6258C104.968 19.6258 105.162 19.4319 105.162 19.1928C105.162 18.9536 104.968 18.7598 104.729 18.7598C104.49 18.7598 104.296 18.9536 104.296 19.1928C104.296 19.4319 104.49 19.6258 104.729 19.6258Z" fill="#DDD5C5"/>
<path d="M104.76 19.517C104.969 19.517 105.139 19.3475 105.139 19.1384C105.139 18.9293 104.969 18.7598 104.76 18.7598C104.551 18.7598 104.381 18.9293 104.381 19.1384C104.381 19.3475 104.551 19.517 104.76 19.517Z" fill="white"/>
<path d="M104.296 20.2859C104.535 20.2859 104.729 20.0921 104.729 19.8529C104.729 19.6138 104.535 19.4199 104.296 19.4199C104.057 19.4199 103.863 19.6138 103.863 19.8529C103.863 20.0921 104.057 20.2859 104.296 20.2859Z" fill="#C9C5BD"/>
<path d="M104.327 20.1762C104.536 20.1762 104.706 20.0067 104.706 19.7976C104.706 19.5885 104.536 19.4189 104.327 19.4189C104.118 19.4189 103.949 19.5885 103.949 19.7976C103.949 20.0067 104.118 20.1762 104.327 20.1762Z" fill="white"/>
<path d="M103.838 20.8865C104.077 20.8865 104.271 20.6927 104.271 20.4535C104.271 20.2144 104.077 20.0205 103.838 20.0205C103.599 20.0205 103.405 20.2144 103.405 20.4535C103.405 20.6927 103.599 20.8865 103.838 20.8865Z" fill="#C9C5BD"/>
<path d="M103.869 20.7777C104.078 20.7777 104.248 20.6082 104.248 20.3991C104.248 20.19 104.078 20.0205 103.869 20.0205C103.66 20.0205 103.491 20.19 103.491 20.3991C103.491 20.6082 103.66 20.7777 103.869 20.7777Z" fill="white"/>
<path d="M103.273 21.4266C103.512 21.4266 103.706 21.2327 103.706 20.9935C103.706 20.7544 103.512 20.5605 103.273 20.5605C103.034 20.5605 102.84 20.7544 102.84 20.9935C102.84 21.2327 103.034 21.4266 103.273 21.4266Z" fill="#C9C5BD"/>
<path d="M103.304 21.3178C103.513 21.3178 103.683 21.1483 103.683 20.9392C103.683 20.7301 103.513 20.5605 103.304 20.5605C103.095 20.5605 102.925 20.7301 102.925 20.9392C102.925 21.1483 103.095 21.3178 103.304 21.3178Z" fill="white"/>
<path d="M102.616 21.7215C102.855 21.7215 103.049 21.5276 103.049 21.2885C103.049 21.0493 102.855 20.8555 102.616 20.8555C102.377 20.8555 102.183 21.0493 102.183 21.2885C102.183 21.5276 102.377 21.7215 102.616 21.7215Z" fill="#C9C5BD"/>
<path d="M102.648 21.6107C102.857 21.6107 103.026 21.4412 103.026 21.2321C103.026 21.023 102.857 20.8535 102.648 20.8535C102.439 20.8535 102.269 21.023 102.269 21.2321C102.269 21.4412 102.439 21.6107 102.648 21.6107Z" fill="white"/>
<path d="M101.815 21.6648C102.054 21.6648 102.248 21.471 102.248 21.2318C102.248 20.9927 102.054 20.7988 101.815 20.7988C101.576 20.7988 101.382 20.9927 101.382 21.2318C101.382 21.471 101.576 21.6648 101.815 21.6648Z" fill="#C9C5BD"/>
<path d="M101.846 21.5561C102.055 21.5561 102.225 21.3865 102.225 21.1774C102.225 20.9683 102.055 20.7988 101.846 20.7988C101.637 20.7988 101.468 20.9683 101.468 21.1774C101.468 21.3865 101.637 21.5561 101.846 21.5561Z" fill="white"/>
<path d="M101.125 21.2332C101.364 21.2332 101.558 21.0393 101.558 20.8002C101.558 20.561 101.364 20.3672 101.125 20.3672C100.886 20.3672 100.692 20.561 100.692 20.8002C100.692 21.0393 100.886 21.2332 101.125 21.2332Z" fill="#C9C5BD"/>
<path d="M101.158 21.1244C101.368 21.1244 101.537 20.9549 101.537 20.7458C101.537 20.5367 101.368 20.3672 101.158 20.3672C100.949 20.3672 100.78 20.5367 100.78 20.7458C100.78 20.9549 100.949 21.1244 101.158 21.1244Z" fill="white"/>
<path d="M100.543 20.7195C100.782 20.7195 100.976 20.5257 100.976 20.2865C100.976 20.0474 100.782 19.8535 100.543 19.8535C100.304 19.8535 100.11 20.0474 100.11 20.2865C100.11 20.5257 100.304 20.7195 100.543 20.7195Z" fill="#C9C5BD"/>
<path d="M100.575 20.6088C100.784 20.6088 100.954 20.4393 100.954 20.2302C100.954 20.0211 100.784 19.8516 100.575 19.8516C100.366 19.8516 100.196 20.0211 100.196 20.2302C100.196 20.4393 100.366 20.6088 100.575 20.6088Z" fill="white"/>
<path d="M100.11 20.0955C100.349 20.0955 100.543 19.9016 100.543 19.6625C100.543 19.4234 100.349 19.2295 100.11 19.2295C99.8711 19.2295 99.6772 19.4234 99.6772 19.6625C99.6772 19.9016 99.8711 20.0955 100.11 20.0955Z" fill="#C9C5BD"/>
<path d="M100.142 19.9867C100.351 19.9867 100.52 19.8172 100.52 19.6081C100.52 19.399 100.351 19.2295 100.142 19.2295C99.9327 19.2295 99.7632 19.399 99.7632 19.6081C99.7632 19.8172 99.9327 19.9867 100.142 19.9867Z" fill="white"/>
<path d="M99.7631 19.4588C100.002 19.4588 100.196 19.2649 100.196 19.0258C100.196 18.7866 100.002 18.5928 99.7631 18.5928C99.5239 18.5928 99.3301 18.7866 99.3301 19.0258C99.3301 19.2649 99.5239 19.4588 99.7631 19.4588Z" fill="#C9C5BD"/>
<path d="M99.7946 19.35C100.004 19.35 100.173 19.1805 100.173 18.9714C100.173 18.7623 100.004 18.5928 99.7946 18.5928C99.5855 18.5928 99.416 18.7623 99.416 18.9714C99.416 19.1805 99.5855 19.35 99.7946 19.35Z" fill="white"/>
<path d="M99.391 18.8992C99.6301 18.8992 99.824 18.7053 99.824 18.4662C99.824 18.2271 99.6301 18.0332 99.391 18.0332C99.1519 18.0332 98.958 18.2271 98.958 18.4662C98.958 18.7053 99.1519 18.8992 99.391 18.8992Z" fill="#C9C5BD"/>
<path d="M99.4221 18.7904C99.6312 18.7904 99.8007 18.6209 99.8007 18.4118C99.8007 18.2027 99.6312 18.0332 99.4221 18.0332C99.213 18.0332 99.0435 18.2027 99.0435 18.4118C99.0435 18.6209 99.213 18.7904 99.4221 18.7904Z" fill="white"/>
<path d="M99.0116 18.2723C99.2508 18.2723 99.4446 18.0784 99.4446 17.8393C99.4446 17.6001 99.2508 17.4062 99.0116 17.4062C98.7725 17.4062 98.5786 17.6001 98.5786 17.8393C98.5786 18.0784 98.7725 18.2723 99.0116 18.2723Z" fill="#C9C5BD"/>
<path d="M99.0437 18.1625C99.2528 18.1625 99.4223 17.993 99.4223 17.7839C99.4223 17.5748 99.2528 17.4053 99.0437 17.4053C98.8346 17.4053 98.665 17.5748 98.665 17.7839C98.665 17.993 98.8346 18.1625 99.0437 18.1625Z" fill="white"/>
<path d="M98.5458 17.7039C98.7849 17.7039 98.9788 17.51 98.9788 17.2709C98.9788 17.0318 98.7849 16.8379 98.5458 16.8379C98.3067 16.8379 98.1128 17.0318 98.1128 17.2709C98.1128 17.51 98.3067 17.7039 98.5458 17.7039Z" fill="#C9C5BD"/>
<path d="M98.5788 17.5922C98.7879 17.5922 98.9574 17.4227 98.9574 17.2136C98.9574 17.0045 98.7879 16.835 98.5788 16.835C98.3697 16.835 98.2002 17.0045 98.2002 17.2136C98.2002 17.4227 98.3697 17.5922 98.5788 17.5922Z" fill="white"/>
<path d="M110.09 13.6892V13.7038H94.7612C94.7612 11.6267 95.9975 8.61242 98.0747 8.60824L106.063 6.72562C108.145 6.71098 110.09 11.6058 110.09 13.6892Z" fill="#ED8A29"/>
<path d="M97.4115 13.4223C96.9358 13.4223 96.4796 13.2335 96.1431 12.8973C95.8066 12.5612 95.6173 12.1052 95.6167 11.6296C95.6173 11.1539 95.8066 10.698 96.1431 10.3619C96.4796 10.0257 96.9358 9.83691 97.4115 9.83691C97.8869 9.83691 98.3429 10.0258 98.6791 10.362C99.0153 10.6982 99.2041 11.1541 99.2041 11.6296C99.2041 12.105 99.0153 12.561 98.6791 12.8972C98.3429 13.2334 97.8869 13.4223 97.4115 13.4223Z" fill="#EFB19E"/>
<path d="M96.391 13.5906C96.6302 13.5906 96.824 13.3968 96.824 13.1576C96.824 12.9185 96.6302 12.7246 96.391 12.7246C96.1519 12.7246 95.958 12.9185 95.958 13.1576C95.958 13.3968 96.1519 13.5906 96.391 13.5906Z" fill="#C49318"/>
<path d="M96.4245 13.4818C96.6336 13.4818 96.8031 13.3123 96.8031 13.1032C96.8031 12.8941 96.6336 12.7246 96.4245 12.7246C96.2154 12.7246 96.0459 12.8941 96.0459 13.1032C96.0459 13.3123 96.2154 13.4818 96.4245 13.4818Z" fill="#EDB61B"/>
<path d="M102.265 16.7566C99.0205 16.7566 96.3911 14.4557 96.3911 11.6317C96.3911 8.80781 99.0205 6.50684 102.265 6.50684C105.509 6.50684 108.137 8.80781 108.137 11.6317C108.137 14.4557 105.507 16.7566 102.265 16.7566Z" fill="#EFB19E"/>
<path d="M102.509 14.0492C102.428 14.0617 102.347 14.0722 102.264 14.0805C101.942 14.1119 101.618 14.1119 101.296 14.0805C101.189 14.0805 101.087 14.0575 100.98 14.0429C99.8296 13.8609 99.2334 14.2981 99.8965 14.6077C100.484 14.8441 101.11 14.9697 101.744 14.9779C102.378 14.9698 103.005 14.8443 103.593 14.6077C104.256 14.3085 103.66 13.8714 102.509 14.0492Z" fill="#E28E74"/>
<path d="M106.279 11.632C106.277 11.2942 106.354 10.9605 106.503 10.6573C106.634 10.3841 106.841 10.1546 107.099 9.99626C107.332 9.86062 107.607 9.81452 107.871 9.86657C108.151 9.92749 108.402 10.0799 108.585 10.2996C108.794 10.5471 108.938 10.8435 109.003 11.1614C109.074 11.4963 109.07 11.8429 108.99 12.1759C108.917 12.4873 108.765 12.7751 108.551 13.0126C108.362 13.2237 108.107 13.3645 107.827 13.4122C107.773 13.4205 107.719 13.4247 107.664 13.4247C107.573 13.4239 107.483 13.4127 107.394 13.3912C107.057 13.2916 106.769 13.0673 106.591 12.7637C106.384 12.4226 106.276 12.0309 106.279 11.632Z" fill="#EFB19E"/>
<path d="M108.59 12.299C108.683 12.0846 108.73 11.8529 108.726 11.6192C108.727 11.3849 108.678 11.1531 108.582 10.9393C108.497 10.7447 108.364 10.5748 108.195 10.4457C108.044 10.3298 107.859 10.2659 107.668 10.2637C107.668 10.2637 108.902 10.6695 108.59 12.299Z" fill="#BC6A4F"/>
<path d="M105.465 14.8009C105.665 14.6806 105.839 14.5195 105.973 14.3281C106.108 14.1404 106.203 13.9268 106.251 13.7006C106.296 13.4926 106.287 13.2768 106.226 13.0731C106.17 12.8915 106.057 12.7326 105.904 12.6191C105.904 12.6191 106.668 13.6588 105.465 14.8009Z" fill="#BC6A4F"/>
<path d="M98.5458 14.7211C98.3231 14.6495 98.1179 14.5319 97.9434 14.376C97.7671 14.2222 97.6246 14.0334 97.525 13.8217C97.4366 13.6315 97.3978 13.4221 97.4121 13.213C97.424 13.0226 97.4974 12.8413 97.6213 12.6963C97.6213 12.6963 97.113 13.8865 98.5458 14.7211Z" fill="#BC6A4F"/>
<path d="M100.173 14.2334C100.47 14.4635 101.062 14.6204 101.744 14.6204C102.426 14.6204 103.018 14.4635 103.317 14.2334C103.317 14.2334 101.738 14.8233 100.173 14.2334Z" fill="#BC6A4F"/>
<path d="M96.4077 23.6718C96.4077 23.6718 96.7612 25.2406 96.7529 25.2072C96.8739 25.1294 97.0029 25.0649 97.1377 25.0147C97.0977 24.5733 97.0279 24.1351 96.9286 23.7032C96.8066 23.6468 96.678 23.6061 96.5458 23.5818C96.5458 23.5818 97.0248 22.5359 96.9202 20.6533C96.8859 21.6779 96.7135 22.6933 96.4077 23.6718Z" fill="#373684"/>
<path d="M92.0942 25.3214C92.0942 25.3214 91.8474 24.3361 91.9331 23.6667C91.9331 23.6667 95.2173 23.3634 96.8468 23.7421C96.8468 23.7421 97.0831 24.8633 96.9974 25.3214H92.0942Z" fill="#FAF3ED"/>
<path d="M96.4076 23.6711C95.2153 23.4975 93.5188 23.5686 92.5942 23.6272V23.4536C92.5942 23.4536 95.5792 23.3678 96.4076 23.6711Z" fill="#373684"/>
<path d="M108.444 23.9288C108.444 23.9288 108.09 25.4955 108.099 25.4641C108.107 25.4328 107.714 25.2696 107.714 25.2696C107.755 24.8283 107.825 24.3902 107.923 23.958C108.046 23.9018 108.175 23.8611 108.308 23.8367C108.308 23.8367 107.827 22.7908 107.934 20.9082C107.966 21.9335 108.138 22.9496 108.444 23.9288Z" fill="#373684"/>
<path d="M112.758 25.5875C112.758 25.5875 113.006 24.6044 112.921 23.9329C112.921 23.9329 109.635 23.6317 108.005 24.0103C108.005 24.0103 107.769 25.1294 107.856 25.5875H112.758Z" fill="#FAF3ED"/>
<path d="M108.444 23.9283C109.636 23.7546 111.372 23.8258 112.286 23.8864L112.274 23.7191C112.274 23.7191 109.274 23.6354 108.444 23.9283Z" fill="#373684"/>
<path d="M103.21 11.7005C103.21 12.0644 103.505 12.3594 103.869 12.3594C104.233 12.3594 104.528 12.0644 104.528 11.7005C104.528 11.3365 104.233 11.0415 103.869 11.0415C103.505 11.0415 103.21 11.3365 103.21 11.7005Z" fill="#1D1D1B"/>
<path d="M98.5391 11.7005C98.5391 12.0644 98.8341 12.3594 99.198 12.3594C99.5619 12.3594 99.8569 12.0644 99.8569 11.7005C99.8569 11.3365 99.5619 11.0415 99.198 11.0415C98.8341 11.0415 98.5391 11.3365 98.5391 11.7005Z" fill="#1D1D1B"/>
<path d="M107.766 9.83843C107.867 9.61246 107.917 9.36693 107.911 9.11952C107.906 8.8721 107.846 8.62898 107.735 8.40765C107.627 8.14087 107.539 7.86686 107.469 7.58766C107.334 7.18916 107.121 6.82157 106.842 6.5062C106.191 5.63601 104.712 5.64856 104.348 5.80753L104.074 5.93305C103.968 5.98325 103.865 5.91841 103.784 5.84101C103.551 5.64438 103.503 5.56489 102.913 5.46866C102.388 5.3829 102.098 5.46867 101.939 5.61928C101.864 5.68905 101.769 5.73269 101.667 5.74363C101.566 5.75458 101.464 5.73222 101.376 5.67994L101.319 5.64647C100.751 5.31571 100.075 5.21966 99.4369 5.37872C97.1903 5.92677 95.9268 8.86993 96.2301 9.52466C96.2975 9.67329 96.3955 9.80602 96.5177 9.91417C96.6399 10.0223 96.7835 10.1034 96.9393 10.1522C97.3576 10.2798 97.594 7.89516 100.186 8.32607C100.186 8.32607 100.353 9.04983 101.363 9.40125C102.374 9.75267 103.474 8.36998 103.474 8.36998C103.474 8.36998 103.386 9.259 104.763 9.83424C105.728 10.2103 106.8 10.2117 107.766 9.83843Z" fill="#ED8A29"/>
<path d="M101.332 9.47884C100.841 9.3323 100.424 9.00386 100.167 8.56054C99.9094 8.08152 99.8927 7.49163 100.121 6.80762L100.269 6.85782C100.06 7.49791 100.06 8.04595 100.305 8.48732C100.544 8.88904 100.924 9.18731 101.372 9.32404L101.332 9.47884Z" fill="#1D1D1B"/>
<path d="M104.733 9.91425C104.243 9.76718 103.827 9.43973 103.57 8.99804C103.31 8.51693 103.296 7.92704 103.524 7.24512L103.672 7.29324C103.463 7.93333 103.463 8.48137 103.708 8.92065C103.947 9.32196 104.326 9.62017 104.773 9.75737L104.733 9.91425Z" fill="#1D1D1B"/>
<path d="M108.013 13.5906C108.252 13.5906 108.446 13.3968 108.446 13.1576C108.446 12.9185 108.252 12.7246 108.013 12.7246C107.773 12.7246 107.58 12.9185 107.58 13.1576C107.58 13.3968 107.773 13.5906 108.013 13.5906Z" fill="#C49318"/>
<path d="M108.047 13.4818C108.256 13.4818 108.425 13.3123 108.425 13.1032C108.425 12.8941 108.256 12.7246 108.047 12.7246C107.837 12.7246 107.668 12.8941 107.668 13.1032C107.668 13.3123 107.837 13.4818 108.047 13.4818Z" fill="#EDB61B"/>
<path opacity="0.6" d="M96.7502 13.4003C96.7502 13.4003 96.5828 12.9694 96.541 12.7476C96.541 12.7476 96.541 12.7246 96.4009 12.7246C96.4247 13.0022 96.5105 13.271 96.6519 13.5111C96.6912 13.4806 96.7245 13.443 96.7502 13.4003Z" fill="#C49318"/>
<path opacity="0.6" d="M106.486 15.6299C106.486 15.6299 103.925 19.4202 103.948 25.1727H104.478V24.5451L106.486 15.6299Z" fill="#373684"/>
<path opacity="0.6" d="M97.9829 15.5137C97.9829 15.5137 100.543 19.304 100.52 25.0564H99.991V24.4289L97.9829 15.5137Z" fill="#373684"/>
<path d="M107.662 13.8867L108.475 16.4952L106.729 18.815L106.593 21.777L104.641 24.718L104.66 23.965C104.754 20.3148 105.666 16.9491 107.653 13.8867H107.662Z" fill="#373684"/>
<path d="M107.68 13.5156L108.494 16.1262L106.745 18.6363L106.611 21.6004L104.478 24.5415L104.496 23.7863C104.591 20.1361 105.693 16.5831 107.68 13.5198V13.5156Z" fill="#FAF3ED"/>
<path d="M96.8635 13.8828L96.0498 16.4934L97.7985 18.8111L97.9324 21.7731L99.8778 24.7141L99.8569 23.9611C99.7648 20.3109 98.8507 16.9473 96.8635 13.8828Z" fill="#373684"/>
<path d="M96.8391 13.5117L96.0254 16.1223L97.772 18.6324L97.908 21.5944L100.04 24.5355L100.021 23.7824C99.9272 20.1317 98.8261 16.5779 96.8391 13.5138V13.5117Z" fill="#FAF3ED"/>
<path d="M97.7109 11.5396C97.8215 11.3254 97.9696 11.1327 98.1481 10.9707C98.3261 10.7988 98.5406 10.6694 98.7757 10.592C99.0251 10.5185 99.2933 10.544 99.5245 10.6632C99.7406 10.7825 99.9167 10.963 100.031 11.1819C99.8636 11.0259 99.6703 10.9006 99.4597 10.8117C99.2579 10.7386 99.038 10.732 98.8321 10.7929C98.6204 10.8613 98.4211 10.9638 98.2422 11.0962C98.0566 11.2334 97.8792 11.3815 97.7109 11.5396Z" fill="#1D1D1B"/>
<path d="M105.547 11.5396C105.376 11.3813 105.196 11.2332 105.007 11.0962C104.828 10.9638 104.629 10.8613 104.417 10.7929C104.212 10.732 103.992 10.7386 103.79 10.8117C103.579 10.9006 103.386 11.0259 103.219 11.1819C103.333 10.963 103.509 10.7825 103.725 10.6632C103.956 10.544 104.224 10.5185 104.474 10.592C104.709 10.6694 104.923 10.7988 105.101 10.9707C105.283 11.132 105.434 11.3247 105.547 11.5396Z" fill="#1D1D1B"/>
</g>
<defs>
<clipPath id="clip0_426_3">
<rect width="6.06621" height="2.71934" fill="white" transform="translate(114.056 28.2646) rotate(-180)"/>
</clipPath>
<clipPath id="clip1_426_3">
<rect width="6.06621" height="2.71934" fill="white" transform="translate(96.6943 28.0566) rotate(-180)"/>
</clipPath>
</defs>
</svg>
