<svg width="163" height="48" viewBox="0 0 163 48" fill="none" xmlns="http://www.w3.org/2000/svg">
<rect y="0.22168" width="162.041" height="47.6591" fill="#46A882"/>
<path d="M138.947 22.5954C139.379 22.3554 139.751 21.7674 139.751 20.9994C139.751 19.4874 138.563 18.5874 136.163 18.5874H131.603V27.1074H136.391C138.995 27.1074 139.979 26.1714 139.979 24.5154C139.979 23.6034 139.463 22.7754 138.947 22.5954ZM135.983 22.0434H134.603V20.9754H135.995C136.535 20.9754 136.811 21.1434 136.811 21.4914C136.811 22.0074 136.403 22.0434 135.983 22.0434ZM134.603 24.7194V23.4834H136.151C136.631 23.4834 136.919 23.5914 136.919 24.1194C136.919 24.6474 136.523 24.7194 136.139 24.7194H134.603Z" fill="#FAF3EE"/>
<mask id="mask0_426_3" style="mask-type:alpha" maskUnits="userSpaceOnUse" x="119" y="5" width="33" height="33">
<circle cx="135.21" cy="21.5783" r="15.5617" fill="#A27474" stroke="black"/>
</mask>
<g mask="url(#mask0_426_3)">
<path d="M141.421 18.2614H141.521C144.577 18.3589 146.755 18.7293 147.06 20.3639C148.293 26.9086 148.78 35.8808 148.78 35.8808L135.599 39.8551H135.044L122.472 35.8808C122.472 35.8808 122.866 21.7872 123.688 20.3639C124.244 19.428 126.188 18.3556 129.222 18.2549H141.444L141.421 18.2614Z" fill="#5154A1"/>
<path d="M130.248 22.4043C130.248 22.4043 135.565 26.4446 140.305 22.4043C140.305 22.4043 138.09 36.785 138.397 38.5158H132.521L130.248 22.4043Z" fill="#373684"/>
<g clip-path="url(#clip0_426_3)">
<path d="M150.995 34.0388C150.995 34.0388 150.903 37.2001 149.76 36.1971C149.76 36.1971 149.181 37.7762 148.484 36.5553C148.484 36.5553 147.815 38.3463 147.223 36.4836C147.223 36.4836 146.447 38.815 145.659 36.2687C145.659 36.2687 143.161 40.5225 142.964 34.0388L150.995 34.0388Z" fill="#EFB19E"/>
<path d="M150.065 34.039C150.065 34.8382 149.955 35.6084 149.757 36.1973C149.757 36.1973 150.157 35.5704 150.065 34.039Z" fill="#BC6A4F"/>
<path d="M148.686 34.0383C148.748 35.7965 148.484 36.5547 148.484 36.5547C148.484 36.5547 148.884 35.9129 148.686 34.0383Z" fill="#BC6A4F"/>
<path d="M147.531 34.0386C147.513 34.9154 147.406 35.7614 147.223 36.4834C147.341 36.1714 147.431 35.7871 147.485 35.3622C147.538 34.9372 147.554 34.4836 147.531 34.0386Z" fill="#BC6A4F"/>
<path d="M145.361 34.8596C145.419 35.3848 145.521 35.8667 145.658 36.2686C145.566 36.1299 145.49 35.9254 145.438 35.6771C145.385 35.4288 145.358 35.1461 145.361 34.8596Z" fill="#BC6A4F"/>
</g>
<g clip-path="url(#clip1_426_3)">
<path d="M128.01 33.7634C128.01 33.7634 127.918 36.9247 126.775 35.9217C126.775 35.9217 126.196 37.5008 125.499 36.2799C125.499 36.2799 124.83 38.0709 124.238 36.2082C124.238 36.2082 123.462 38.5396 122.674 35.9933C122.674 35.9933 120.176 40.2471 119.979 33.7634L128.01 33.7634Z" fill="#EFB19E"/>
<path d="M127.08 33.7637C127.08 34.5628 126.971 35.333 126.773 35.9219C126.773 35.9219 127.172 35.295 127.08 33.7637Z" fill="#BC6A4F"/>
<path d="M125.701 33.7629C125.763 35.5211 125.499 36.2793 125.499 36.2793C125.499 36.2793 125.899 35.6375 125.701 33.7629Z" fill="#BC6A4F"/>
<path d="M124.546 33.7632C124.528 34.64 124.421 35.486 124.238 36.208C124.356 35.896 124.446 35.5117 124.5 35.0868C124.553 34.6618 124.569 34.2082 124.546 33.7632Z" fill="#BC6A4F"/>
<path d="M122.376 34.5842C122.434 35.1094 122.536 35.5913 122.673 35.9932C122.581 35.8545 122.505 35.65 122.453 35.4017C122.4 35.1534 122.374 34.8707 122.376 34.5842Z" fill="#BC6A4F"/>
</g>
<path d="M135.33 33.3827L135.332 24.1943L135.028 33.3938L135.33 33.3827Z" fill="#2C2C6B"/>
<path d="M140.307 23.4746C140.623 23.4746 140.88 23.2179 140.88 22.9014C140.88 22.5848 140.623 22.3281 140.307 22.3281C139.99 22.3281 139.733 22.5848 139.733 22.9014C139.733 23.2179 139.99 23.4746 140.307 23.4746Z" fill="#C9C5BD"/>
<path d="M140.348 23.3277C140.625 23.3277 140.849 23.1033 140.849 22.8264C140.849 22.5496 140.625 22.3252 140.348 22.3252C140.071 22.3252 139.847 22.5496 139.847 22.8264C139.847 23.1033 140.071 23.3277 140.348 23.3277Z" fill="white"/>
<path d="M139.622 24.3027C139.939 24.3027 140.195 24.0461 140.195 23.7295C140.195 23.4129 139.939 23.1562 139.622 23.1562C139.305 23.1562 139.049 23.4129 139.049 23.7295C139.049 24.0461 139.305 24.3027 139.622 24.3027Z" fill="#C9C5BD"/>
<path d="M139.664 24.1587C139.941 24.1587 140.165 23.9343 140.165 23.6575C140.165 23.3807 139.941 23.1562 139.664 23.1562C139.387 23.1562 139.163 23.3807 139.163 23.6575C139.163 23.9343 139.387 24.1587 139.664 24.1587Z" fill="white"/>
<path d="M139.048 25.2207C139.365 25.2207 139.622 24.964 139.622 24.6475C139.622 24.3309 139.365 24.0742 139.048 24.0742C138.732 24.0742 138.475 24.3309 138.475 24.6475C138.475 24.964 138.732 25.2207 139.048 25.2207Z" fill="#C9C5BD"/>
<path d="M139.09 25.0718C139.366 25.0718 139.591 24.8474 139.591 24.5706C139.591 24.2937 139.366 24.0693 139.09 24.0693C138.813 24.0693 138.588 24.2937 138.588 24.5706C138.588 24.8474 138.813 25.0718 139.09 25.0718Z" fill="white"/>
<path d="M138.647 26.2012C138.964 26.2012 139.22 25.9445 139.22 25.6279C139.22 25.3113 138.964 25.0547 138.647 25.0547C138.33 25.0547 138.074 25.3113 138.074 25.6279C138.074 25.9445 138.33 26.2012 138.647 26.2012Z" fill="#DDD5C5"/>
<path d="M138.688 26.0572C138.965 26.0572 139.189 25.8327 139.189 25.5559C139.189 25.2791 138.965 25.0547 138.688 25.0547C138.411 25.0547 138.187 25.2791 138.187 25.5559C138.187 25.8327 138.411 26.0572 138.688 26.0572Z" fill="white"/>
<path d="M138.075 27.0752C138.391 27.0752 138.648 26.8185 138.648 26.5019C138.648 26.1854 138.391 25.9287 138.075 25.9287C137.758 25.9287 137.501 26.1854 137.501 26.5019C137.501 26.8185 137.758 27.0752 138.075 27.0752Z" fill="#C9C5BD"/>
<path d="M138.116 26.9302C138.393 26.9302 138.617 26.7058 138.617 26.429C138.617 26.1521 138.393 25.9277 138.116 25.9277C137.839 25.9277 137.615 26.1521 137.615 26.429C137.615 26.7058 137.839 26.9302 138.116 26.9302Z" fill="white"/>
<path d="M137.468 27.8701C137.785 27.8701 138.041 27.6135 138.041 27.2969C138.041 26.9803 137.785 26.7236 137.468 26.7236C137.152 26.7236 136.895 26.9803 136.895 27.2969C136.895 27.6135 137.152 27.8701 137.468 27.8701Z" fill="#C9C5BD"/>
<path d="M137.51 27.7261C137.786 27.7261 138.011 27.5017 138.011 27.2249C138.011 26.948 137.786 26.7236 137.51 26.7236C137.233 26.7236 137.008 26.948 137.008 27.2249C137.008 27.5017 137.233 27.7261 137.51 27.7261Z" fill="white"/>
<path d="M136.72 28.5859C137.036 28.5859 137.293 28.3293 137.293 28.0127C137.293 27.6961 137.036 27.4395 136.72 27.4395C136.403 27.4395 136.146 27.6961 136.146 28.0127C136.146 28.3293 136.403 28.5859 136.72 28.5859Z" fill="#C9C5BD"/>
<path d="M136.761 28.4419C137.037 28.4419 137.262 28.2175 137.262 27.9407C137.262 27.6639 137.037 27.4395 136.761 27.4395C136.484 27.4395 136.259 27.6639 136.259 27.9407C136.259 28.2175 136.484 28.4419 136.761 28.4419Z" fill="white"/>
<path d="M135.85 28.9756C136.167 28.9756 136.423 28.7189 136.423 28.4023C136.423 28.0857 136.167 27.8291 135.85 27.8291C135.533 27.8291 135.277 28.0857 135.277 28.4023C135.277 28.7189 135.533 28.9756 135.85 28.9756Z" fill="#C9C5BD"/>
<path d="M135.892 28.8296C136.169 28.8296 136.393 28.6052 136.393 28.3284C136.393 28.0516 136.169 27.8271 135.892 27.8271C135.615 27.8271 135.391 28.0516 135.391 28.3284C135.391 28.6052 135.615 28.8296 135.892 28.8296Z" fill="white"/>
<path d="M134.79 28.9004C135.106 28.9004 135.363 28.6437 135.363 28.3271C135.363 28.0106 135.106 27.7539 134.79 27.7539C134.473 27.7539 134.216 28.0106 134.216 28.3271C134.216 28.6437 134.473 28.9004 134.79 28.9004Z" fill="#C9C5BD"/>
<path d="M134.831 28.7564C135.108 28.7564 135.333 28.532 135.333 28.2551C135.333 27.9783 135.108 27.7539 134.831 27.7539C134.554 27.7539 134.33 27.9783 134.33 28.2551C134.33 28.532 134.554 28.7564 134.831 28.7564Z" fill="white"/>
<path d="M133.876 28.3301C134.193 28.3301 134.449 28.0734 134.449 27.7568C134.449 27.4402 134.193 27.1836 133.876 27.1836C133.559 27.1836 133.303 27.4402 133.303 27.7568C133.303 28.0734 133.559 28.3301 133.876 28.3301Z" fill="#C9C5BD"/>
<path d="M133.921 28.1861C134.197 28.1861 134.422 27.9617 134.422 27.6848C134.422 27.408 134.197 27.1836 133.921 27.1836C133.644 27.1836 133.419 27.408 133.419 27.6848C133.419 27.9617 133.644 28.1861 133.921 28.1861Z" fill="white"/>
<path d="M133.106 27.6494C133.423 27.6494 133.68 27.3928 133.68 27.0762C133.68 26.7596 133.423 26.5029 133.106 26.5029C132.79 26.5029 132.533 26.7596 132.533 27.0762C132.533 27.3928 132.79 27.6494 133.106 27.6494Z" fill="#C9C5BD"/>
<path d="M133.148 27.5034C133.425 27.5034 133.649 27.279 133.649 27.0022C133.649 26.7254 133.425 26.501 133.148 26.501C132.871 26.501 132.647 26.7254 132.647 27.0022C132.647 27.279 132.871 27.5034 133.148 27.5034Z" fill="white"/>
<path d="M132.533 26.8232C132.849 26.8232 133.106 26.5666 133.106 26.25C133.106 25.9334 132.849 25.6768 132.533 25.6768C132.216 25.6768 131.959 25.9334 131.959 26.25C131.959 26.5666 132.216 26.8232 132.533 26.8232Z" fill="#C9C5BD"/>
<path d="M132.574 26.6792C132.851 26.6792 133.076 26.4548 133.076 26.178C133.076 25.9012 132.851 25.6768 132.574 25.6768C132.298 25.6768 132.073 25.9012 132.073 26.178C132.073 26.4548 132.298 26.6792 132.574 26.6792Z" fill="white"/>
<path d="M132.073 25.9805C132.389 25.9805 132.646 25.7238 132.646 25.4072C132.646 25.0906 132.389 24.834 132.073 24.834C131.756 24.834 131.5 25.0906 131.5 25.4072C131.5 25.7238 131.756 25.9805 132.073 25.9805Z" fill="#C9C5BD"/>
<path d="M132.115 25.8365C132.391 25.8365 132.616 25.612 132.616 25.3352C132.616 25.0584 132.391 24.834 132.115 24.834C131.838 24.834 131.613 25.0584 131.613 25.3352C131.613 25.612 131.838 25.8365 132.115 25.8365Z" fill="white"/>
<path d="M131.581 25.2402C131.898 25.2402 132.154 24.9836 132.154 24.667C132.154 24.3504 131.898 24.0938 131.581 24.0938C131.264 24.0938 131.008 24.3504 131.008 24.667C131.008 24.9836 131.264 25.2402 131.581 25.2402Z" fill="#C9C5BD"/>
<path d="M131.621 25.0962C131.898 25.0962 132.123 24.8718 132.123 24.595C132.123 24.3182 131.898 24.0938 131.621 24.0938C131.345 24.0938 131.12 24.3182 131.12 24.595C131.12 24.8718 131.345 25.0962 131.621 25.0962Z" fill="white"/>
<path d="M131.078 24.4092C131.395 24.4092 131.651 24.1525 131.651 23.8359C131.651 23.5193 131.395 23.2627 131.078 23.2627C130.762 23.2627 130.505 23.5193 130.505 23.8359C130.505 24.1525 130.762 24.4092 131.078 24.4092Z" fill="#C9C5BD"/>
<path d="M131.12 24.2642C131.397 24.2642 131.622 24.0398 131.622 23.763C131.622 23.4861 131.397 23.2617 131.12 23.2617C130.844 23.2617 130.619 23.4861 130.619 23.763C130.619 24.0398 130.844 24.2642 131.12 24.2642Z" fill="white"/>
<path d="M130.461 23.6582C130.778 23.6582 131.035 23.4015 131.035 23.085C131.035 22.7684 130.778 22.5117 130.461 22.5117C130.145 22.5117 129.888 22.7684 129.888 23.085C129.888 23.4015 130.145 23.6582 130.461 23.6582Z" fill="#C9C5BD"/>
<path d="M130.505 23.5093C130.782 23.5093 131.006 23.2849 131.006 23.0081C131.006 22.7312 130.782 22.5068 130.505 22.5068C130.228 22.5068 130.004 22.7312 130.004 23.0081C130.004 23.2849 130.228 23.5093 130.505 23.5093Z" fill="white"/>
<path d="M145.744 18.3419V18.3613H125.451C125.451 15.6114 127.088 11.621 129.838 11.6154L140.413 9.12309C143.169 9.10371 145.744 15.5838 145.744 18.3419Z" fill="#ED8A29"/>
<path d="M128.96 17.9897C128.33 17.9897 127.726 17.7397 127.28 17.2947C126.835 16.8497 126.584 16.2461 126.583 15.6164C126.584 14.9867 126.835 14.3831 127.28 13.9381C127.726 13.4931 128.33 13.2432 128.96 13.2432C129.589 13.2432 130.193 13.4932 130.638 13.9383C131.083 14.3834 131.333 14.987 131.333 15.6164C131.333 16.2458 131.083 16.8495 130.638 17.2946C130.193 17.7396 129.589 17.9897 128.96 17.9897Z" fill="#EFB19E"/>
<path d="M127.609 18.2119C127.925 18.2119 128.182 17.9553 128.182 17.6387C128.182 17.3221 127.925 17.0654 127.609 17.0654C127.292 17.0654 127.036 17.3221 127.036 17.6387C127.036 17.9553 127.292 18.2119 127.609 18.2119Z" fill="#C49318"/>
<path d="M127.653 18.0679C127.93 18.0679 128.154 17.8435 128.154 17.5667C128.154 17.2898 127.93 17.0654 127.653 17.0654C127.376 17.0654 127.152 17.2898 127.152 17.5667C127.152 17.8435 127.376 18.0679 127.653 18.0679Z" fill="#EDB61B"/>
<path d="M135.385 22.4033C131.09 22.4033 127.609 19.3571 127.609 15.6187C127.609 11.8802 131.09 8.83398 135.385 8.83398C139.68 8.83398 143.158 11.8802 143.158 15.6187C143.158 19.3571 139.677 22.4033 135.385 22.4033Z" fill="#EFB19E"/>
<path d="M135.709 18.819C135.601 18.8356 135.493 18.8494 135.385 18.8605C134.958 18.9021 134.529 18.9021 134.102 18.8605C133.961 18.8605 133.825 18.83 133.684 18.8107C132.161 18.5697 131.372 19.1485 132.25 19.5584C133.028 19.8714 133.857 20.0376 134.695 20.0485C135.534 20.0378 136.364 19.8716 137.143 19.5584C138.021 19.1624 137.232 18.5836 135.709 18.819Z" fill="#E28E74"/>
<path d="M140.699 15.6188C140.697 15.1715 140.798 14.7297 140.996 14.3283C141.169 13.9667 141.443 13.6628 141.785 13.4532C142.093 13.2737 142.457 13.2126 142.807 13.2815C143.176 13.3622 143.509 13.5639 143.751 13.8548C144.029 14.1824 144.219 14.5749 144.305 14.9957C144.399 15.4391 144.394 15.8979 144.288 16.3388C144.191 16.751 143.991 17.132 143.707 17.4465C143.456 17.7259 143.119 17.9124 142.749 17.9754C142.677 17.9865 142.605 17.992 142.533 17.992C142.412 17.991 142.292 17.9761 142.175 17.9477C141.728 17.8158 141.348 17.5188 141.112 17.1169C140.838 16.6654 140.695 16.1467 140.699 15.6188Z" fill="#EFB19E"/>
<path d="M143.759 16.5021C143.883 16.2183 143.944 15.9115 143.939 15.6021C143.94 15.2919 143.875 14.9851 143.748 14.7021C143.636 14.4444 143.459 14.2195 143.236 14.0486C143.035 13.8951 142.791 13.8106 142.538 13.8076C142.538 13.8076 144.172 14.3449 143.759 16.5021Z" fill="#BC6A4F"/>
<path d="M139.621 19.8141C139.887 19.6548 140.116 19.4416 140.294 19.1883C140.473 18.9398 140.598 18.6569 140.662 18.3575C140.721 18.0822 140.71 17.7965 140.629 17.5267C140.554 17.2864 140.405 17.076 140.203 16.9258C140.203 16.9258 141.213 18.3021 139.621 19.8141Z" fill="#BC6A4F"/>
<path d="M130.461 19.708C130.166 19.6131 129.895 19.4574 129.664 19.251C129.43 19.0474 129.242 18.7975 129.11 18.5172C128.993 18.2655 128.941 17.9883 128.96 17.7113C128.976 17.4594 129.073 17.2193 129.237 17.0273C129.237 17.0273 128.564 18.603 130.461 19.708Z" fill="#BC6A4F"/>
<path d="M132.616 19.0625C133.009 19.3671 133.793 19.5748 134.695 19.5748C135.598 19.5748 136.382 19.3671 136.778 19.0625C136.778 19.0625 134.687 19.8434 132.616 19.0625Z" fill="#BC6A4F"/>
<path d="M127.631 31.5585C127.631 31.5585 128.099 33.6355 128.088 33.5912C128.248 33.4882 128.419 33.4028 128.597 33.3364C128.544 32.752 128.452 32.1719 128.32 31.6001C128.159 31.5255 127.989 31.4715 127.814 31.4395C127.814 31.4395 128.448 30.0548 128.309 27.5625C128.264 28.919 128.036 30.2631 127.631 31.5585Z" fill="#373684"/>
<path d="M121.92 33.7421C121.92 33.7421 121.594 32.4378 121.707 31.5516C121.707 31.5516 126.055 31.1501 128.212 31.6513C128.212 31.6513 128.525 33.1357 128.411 33.7421H121.92Z" fill="#FAF3ED"/>
<path d="M127.631 31.5567C126.052 31.3269 123.807 31.421 122.583 31.4986V31.2687C122.583 31.2687 126.534 31.1552 127.631 31.5567Z" fill="#373684"/>
<path d="M143.566 31.8982C143.566 31.8982 143.098 33.9724 143.109 33.9309C143.12 33.8893 142.599 33.6733 142.599 33.6733C142.654 33.0892 142.746 32.5091 142.876 31.937C143.039 31.8625 143.21 31.8086 143.386 31.7764C143.386 31.7764 142.749 30.3917 142.89 27.8994C142.934 29.2567 143.161 30.6019 143.566 31.8982Z" fill="#373684"/>
<path d="M149.276 34.0947C149.276 34.0947 149.606 32.7932 149.492 31.9043C149.492 31.9043 145.141 31.5055 142.984 32.0067C142.984 32.0067 142.671 33.4883 142.788 34.0947H149.276Z" fill="#FAF3ED"/>
<path d="M143.565 31.897C145.143 31.6672 147.442 31.7614 148.652 31.8417L148.635 31.6201C148.635 31.6201 144.664 31.5093 143.565 31.897Z" fill="#373684"/>
<path d="M136.637 15.7097C136.637 16.1915 137.028 16.582 137.51 16.582C137.991 16.582 138.382 16.1915 138.382 15.7097C138.382 15.2279 137.991 14.8374 137.51 14.8374C137.028 14.8374 136.637 15.2279 136.637 15.7097Z" fill="#1D1D1B"/>
<path d="M130.453 15.7097C130.453 16.1915 130.843 16.582 131.325 16.582C131.807 16.582 132.197 16.1915 132.197 15.7097C132.197 15.2279 131.807 14.8374 131.325 14.8374C130.843 14.8374 130.453 15.2279 130.453 15.7097Z" fill="#1D1D1B"/>
<path d="M142.669 13.2446C142.802 12.9454 142.868 12.6204 142.861 12.2928C142.854 11.9653 142.774 11.6434 142.627 11.3504C142.485 10.9972 142.367 10.6345 142.276 10.2648C142.096 9.73729 141.814 9.25064 141.445 8.83314C140.584 7.68113 138.626 7.69774 138.144 7.9082L137.781 8.07437C137.64 8.14083 137.504 8.05498 137.396 7.95252C137.089 7.69221 137.025 7.58697 136.244 7.45959C135.549 7.34605 135.164 7.4596 134.954 7.65898C134.855 7.75134 134.729 7.80912 134.595 7.82361C134.46 7.83809 134.325 7.8085 134.209 7.73928L134.134 7.69498C133.381 7.2571 132.487 7.12994 131.642 7.34051C128.668 8.06605 126.995 11.9624 127.396 12.8292C127.486 13.0259 127.615 13.2017 127.777 13.3448C127.939 13.488 128.129 13.5954 128.335 13.6599C128.889 13.8289 129.202 10.6719 132.633 11.2424C132.633 11.2424 132.855 12.2006 134.192 12.6658C135.53 13.131 136.986 11.3005 136.986 11.3005C136.986 11.3005 136.87 12.4775 138.692 13.239C139.971 13.7368 141.389 13.7388 142.669 13.2446Z" fill="#ED8A29"/>
<path d="M134.15 12.7678C133.5 12.5738 132.948 12.139 132.608 11.5521C132.267 10.9179 132.245 10.137 132.547 9.23145L132.744 9.2979C132.467 10.1453 132.467 10.8708 132.791 11.4551C133.107 11.987 133.611 12.3818 134.203 12.5628L134.15 12.7678Z" fill="#1D1D1B"/>
<path d="M138.652 13.3441C138.004 13.1494 137.453 12.7159 137.112 12.1312C136.769 11.4943 136.749 10.7133 137.051 9.81055L137.248 9.87425C136.971 10.7216 136.971 11.4472 137.295 12.0287C137.611 12.56 138.114 12.9548 138.705 13.1364L138.652 13.3441Z" fill="#1D1D1B"/>
<path d="M142.994 18.2119C143.311 18.2119 143.567 17.9553 143.567 17.6387C143.567 17.3221 143.311 17.0654 142.994 17.0654C142.678 17.0654 142.421 17.3221 142.421 17.6387C142.421 17.9553 142.678 18.2119 142.994 18.2119Z" fill="#C49318"/>
<path d="M143.039 18.0679C143.316 18.0679 143.541 17.8435 143.541 17.5667C143.541 17.2898 143.316 17.0654 143.039 17.0654C142.762 17.0654 142.538 17.2898 142.538 17.5667C142.538 17.8435 142.762 18.0679 143.039 18.0679Z" fill="#EDB61B"/>
<path opacity="0.6" d="M128.085 17.9599C128.085 17.9599 127.863 17.3894 127.808 17.0959C127.808 17.0959 127.808 17.0654 127.622 17.0654C127.654 17.433 127.767 17.7888 127.954 18.1067C128.006 18.0662 128.051 18.0164 128.085 17.9599Z" fill="#C49318"/>
<path opacity="0.6" d="M140.973 20.9111C140.973 20.9111 137.584 25.929 137.614 33.5445H138.315V32.7137L140.973 20.9111Z" fill="#373684"/>
<path opacity="0.6" d="M129.716 20.7578C129.716 20.7578 133.106 25.7757 133.075 33.3911H132.375V32.5604L129.716 20.7578Z" fill="#373684"/>
<path d="M142.53 18.6035L143.607 22.0568L141.295 25.1279L141.115 29.0491L138.531 32.9427L138.556 31.9458C138.681 27.1134 139.888 22.6577 142.519 18.6035H142.53Z" fill="#373684"/>
<path d="M142.554 18.1133L143.631 21.5693L141.316 24.8924L141.139 28.8164L138.314 32.71L138.339 31.7103C138.465 26.8779 139.923 22.1742 142.554 18.1188V18.1133Z" fill="#FAF3ED"/>
<path d="M128.234 18.5986L127.157 22.0547L129.472 25.123L129.65 29.0442L132.225 32.9378L132.197 31.9409C132.075 27.1085 130.865 22.6556 128.234 18.5986Z" fill="#373684"/>
<path d="M128.202 18.1074L127.125 21.5634L129.437 24.8865L129.617 28.8078L132.439 32.7014L132.414 31.7045C132.29 26.8714 130.833 22.1666 128.202 18.1102V18.1074Z" fill="#FAF3ED"/>
<path d="M129.356 15.4966C129.503 15.213 129.699 14.9579 129.935 14.7434C130.171 14.5158 130.455 14.3445 130.766 14.2421C131.096 14.1447 131.451 14.1785 131.757 14.3363C132.043 14.4943 132.277 14.7332 132.428 15.0231C132.206 14.8166 131.95 14.6506 131.672 14.5329C131.404 14.4362 131.113 14.4275 130.841 14.508C130.56 14.5986 130.297 14.7342 130.06 14.9095C129.814 15.0912 129.579 15.2873 129.356 15.4966Z" fill="#1D1D1B"/>
<path d="M139.73 15.4966C139.504 15.2869 139.265 15.0909 139.016 14.9095C138.779 14.7342 138.515 14.5986 138.235 14.508C137.962 14.4275 137.671 14.4362 137.404 14.5329C137.125 14.6506 136.869 14.8166 136.648 15.0231C136.799 14.7332 137.032 14.4943 137.318 14.3363C137.624 14.1785 137.979 14.1447 138.31 14.2421C138.621 14.3445 138.905 14.5158 139.14 14.7434C139.381 14.9569 139.58 15.2121 139.73 15.4966Z" fill="#1D1D1B"/>
</g>
<defs>
<clipPath id="clip0_426_3">
<rect width="8.03083" height="3.60003" fill="white" transform="translate(150.995 37.6387) rotate(-180)"/>
</clipPath>
<clipPath id="clip1_426_3">
<rect width="8.03083" height="3.60003" fill="white" transform="translate(128.01 37.3633) rotate(-180)"/>
</clipPath>
</defs>
</svg>
