<svg width="139" height="46" viewBox="0 0 139 46" fill="none" xmlns="http://www.w3.org/2000/svg">
<path d="M113.491 24.988H115.519V16.588H113.587L111.115 18.064L112.111 19.504L113.491 18.7V24.988ZM120.27 16.36C118.254 16.36 117.282 17.512 117.282 18.688C117.282 19.42 117.63 20.068 118.326 20.488C117.402 20.896 116.934 21.652 116.934 22.636C116.934 24.1 118.074 25.24 120.27 25.24C122.49 25.24 123.606 24.1 123.606 22.636C123.606 21.652 123.138 20.896 122.214 20.476C122.922 20.068 123.258 19.42 123.258 18.688C123.258 17.512 122.298 16.36 120.27 16.36ZM120.306 19.72C119.706 19.72 119.358 19.42 119.358 18.916C119.358 18.424 119.694 18.1 120.306 18.1C120.846 18.1 121.182 18.424 121.182 18.916C121.182 19.42 120.846 19.72 120.306 19.72ZM120.282 23.5C119.478 23.5 119.01 23.128 119.01 22.516C119.01 21.88 119.478 21.472 120.282 21.472C121.074 21.472 121.53 21.88 121.53 22.516C121.53 23.128 121.074 23.5 120.282 23.5ZM126.289 16.336C125.053 16.336 124.213 17.188 124.213 18.34C124.213 19.492 125.053 20.344 126.289 20.344C127.513 20.344 128.353 19.492 128.353 18.34C128.353 17.188 127.513 16.336 126.289 16.336ZM124.801 24.988H126.721L132.889 16.588H130.969L124.801 24.988ZM126.289 19.108C125.893 19.108 125.593 18.832 125.593 18.34C125.593 17.848 125.893 17.584 126.289 17.584C126.685 17.584 126.985 17.848 126.985 18.34C126.985 18.82 126.685 19.108 126.289 19.108ZM131.449 21.22C130.213 21.22 129.373 22.072 129.373 23.224C129.373 24.376 130.213 25.228 131.449 25.228C132.673 25.228 133.513 24.376 133.513 23.224C133.513 22.072 132.673 21.22 131.449 21.22ZM131.449 23.992C131.053 23.992 130.753 23.716 130.753 23.224C130.753 22.732 131.053 22.468 131.449 22.468C131.845 22.468 132.145 22.732 132.145 23.224C132.145 23.704 131.845 23.992 131.449 23.992Z" fill="#656565"/>
<rect y="1" width="139" height="45" fill="#EC8989"/>
<mask id="mask0_731_4" style="mask-type:alpha" maskUnits="userSpaceOnUse" x="96" y="0" width="38" height="38">
<path d="M133.756 19.1816C133.756 29.4176 125.458 37.7156 115.222 37.7156C104.985 37.7156 96.6875 29.4176 96.6875 19.1816C96.6875 8.94546 104.985 0.647461 115.222 0.647461C125.458 0.647461 133.756 8.94546 133.756 19.1816Z" fill="#EC8989"/>
</mask>
<g mask="url(#mask0_731_4)">
<path d="M99.4337 34.9836C99.4337 34.9836 97.8417 20.9415 107.441 15.6504L121.002 15.938C121.002 15.938 126.799 17.9206 127.577 34.6355L114.125 40.3625L99.4337 34.9836Z" fill="#5154A1"/>
<path d="M120.768 15.4893C120.768 15.4893 117.66 19.4192 113.566 19.2321L114.368 22.2614C114.368 22.2614 120.862 18.3022 120.768 15.4893Z" fill="#373684"/>
<path d="M120.768 15.4893C120.768 15.4893 117.423 19.1853 113.33 18.9982L114.119 22.0246C114.119 22.0246 120.026 18.8753 120.768 15.4893Z" fill="#FAF3ED"/>
<path d="M112.3 18.7783L111.671 21.8691C111.671 21.8691 108.089 17.8104 107.87 15.2109C107.867 15.2109 110.946 18.5707 112.3 18.7783Z" fill="#373684"/>
<path d="M112.131 18.7374L111.388 21.7287C111.388 21.7287 108.09 17.8075 107.879 15.2109C108.895 16.8001 110.381 18.0328 112.131 18.7374Z" fill="#FAF3ED"/>
<path d="M113.242 20.3963C113.242 20.3963 113.903 28.0369 114.324 29.7826C114.745 31.5283 112.789 33.3324 112.672 33.9348H110.151C110.151 33.9348 108.943 31.768 109.212 30.1335C109.481 28.4989 112.47 20.2998 112.47 20.2998L113.242 20.3963Z" fill="#C7361A"/>
<path d="M113.11 20.3484C113.11 20.3484 113.771 27.9891 114.192 29.7347C114.613 31.4804 112.654 33.2846 112.537 33.8869H110.025C110.025 33.8869 108.815 31.7202 109.087 30.0856C109.359 28.4511 112.335 20.249 112.335 20.249L113.11 20.3484Z" fill="#E8461C"/>
<path d="M112.33 20.0652L112.69 19.6821C112.71 19.6588 112.736 19.6408 112.766 19.6295C112.794 19.6175 112.825 19.6125 112.856 19.6148C112.888 19.6174 112.919 19.6263 112.947 19.6412C112.974 19.656 112.997 19.677 113.014 19.7026L113.386 20.223C113.402 20.2453 113.415 20.2708 113.421 20.298C113.428 20.3252 113.428 20.3534 113.424 20.381C113.42 20.4085 113.41 20.4349 113.395 20.4585C113.381 20.4822 113.362 20.5025 113.339 20.5184L112.818 20.8868C112.793 20.9049 112.764 20.9169 112.733 20.9219C112.703 20.9292 112.671 20.9292 112.64 20.9219C112.61 20.9132 112.582 20.8983 112.558 20.878C112.534 20.8574 112.515 20.8313 112.502 20.802L112.289 20.2961C112.277 20.257 112.277 20.2154 112.289 20.1763C112.291 20.136 112.306 20.0973 112.33 20.0652Z" fill="#C7361A"/>
<path d="M112.263 20.0408L112.611 19.6694C112.631 19.648 112.656 19.6311 112.684 19.6197C112.712 19.6124 112.743 19.6124 112.771 19.6197C112.801 19.6202 112.83 19.6283 112.856 19.6431C112.883 19.6579 112.906 19.679 112.923 19.7045L113.28 20.2075C113.295 20.2285 113.306 20.2523 113.312 20.2777C113.318 20.3036 113.318 20.3306 113.312 20.3566C113.308 20.3838 113.298 20.4097 113.283 20.4326C113.27 20.4554 113.252 20.4753 113.23 20.4911L112.733 20.8449C112.708 20.862 112.679 20.874 112.649 20.88C112.619 20.8858 112.588 20.8858 112.558 20.88C112.529 20.8713 112.502 20.8563 112.479 20.8362C112.456 20.8164 112.438 20.7913 112.426 20.7631L112.222 20.2747C112.21 20.2376 112.21 20.1978 112.222 20.1607C112.223 20.1175 112.237 20.0757 112.263 20.0408Z" fill="#E8461C"/>
<path d="M108.952 15.4592C108.625 15.4592 108.301 15.3947 107.999 15.2695C107.697 15.1443 107.423 14.9607 107.192 14.7293C106.961 14.498 106.777 14.2233 106.652 13.9211C106.528 13.6188 106.463 13.2949 106.464 12.9679C106.464 12.3079 106.726 11.675 107.193 11.2083C107.659 10.7417 108.292 10.4795 108.952 10.4795C109.612 10.4795 110.246 10.7416 110.713 11.2082C111.18 11.6747 111.443 12.3077 111.444 12.9679C111.444 13.6286 111.181 14.2623 110.714 14.7295C110.247 15.1967 109.613 15.4592 108.952 15.4592Z" fill="#F39672"/>
<path d="M118.932 12.988C118.93 12.5189 119.036 12.0556 119.242 11.6342C119.423 11.2537 119.712 10.9345 120.073 10.716C120.398 10.5219 120.783 10.4542 121.155 10.5259C121.543 10.6091 121.891 10.8215 122.143 11.1283C122.435 11.4714 122.636 11.8827 122.728 12.3242C122.826 12.7897 122.819 13.2713 122.707 13.7336C122.607 14.1688 122.398 14.5713 122.099 14.9033C121.835 15.1951 121.481 15.3897 121.093 15.4559C121.019 15.4676 120.943 15.4734 120.868 15.4735C120.742 15.4741 120.616 15.4584 120.494 15.4267C120.026 15.2908 119.626 14.9825 119.377 14.5641C119.083 14.091 118.929 13.5447 118.932 12.988Z" fill="#F39672"/>
<path d="M114.38 19.037C110.499 19.037 107.362 16.2913 107.362 12.8964C107.362 9.50157 110.508 6.75586 114.38 6.75586C118.251 6.75586 121.397 9.50157 121.397 12.8964C121.397 16.2913 118.26 19.037 114.38 19.037Z" fill="#F39672"/>
<path d="M116.166 11.5016C116.182 11.5044 116.199 11.5044 116.216 11.5016L117.499 10.9841C117.531 10.9711 117.557 10.946 117.57 10.9143C117.584 10.8825 117.585 10.8467 117.572 10.8145C117.559 10.7825 117.534 10.7568 117.502 10.7432C117.471 10.7295 117.435 10.7288 117.403 10.7414L116.116 11.2589C116.1 11.265 116.085 11.2743 116.073 11.2863C116.061 11.2982 116.051 11.3126 116.044 11.3285C116.038 11.3444 116.034 11.3615 116.035 11.3787C116.035 11.3959 116.039 11.4129 116.046 11.4285C116.057 11.451 116.074 11.4699 116.095 11.4829C116.116 11.4959 116.141 11.5024 116.166 11.5016Z" fill="black"/>
<path d="M111.149 11.4036C111.176 11.4036 111.202 11.3955 111.223 11.3803C111.245 11.3652 111.262 11.3437 111.272 11.3188C111.278 11.3029 111.281 11.2859 111.28 11.2689C111.28 11.2518 111.276 11.2351 111.269 11.2196C111.261 11.2041 111.251 11.1901 111.239 11.1786C111.226 11.167 111.212 11.158 111.196 11.1521L109.9 10.6609C109.868 10.6485 109.832 10.6496 109.8 10.6639C109.768 10.6781 109.743 10.7044 109.731 10.7369C109.718 10.7695 109.719 10.8057 109.734 10.8374C109.748 10.8692 109.774 10.8941 109.807 10.9065L111.102 11.3978C111.117 11.4026 111.133 11.4046 111.149 11.4036Z" fill="black"/>
<path d="M110.096 12.8274C110.004 12.8274 109.914 12.8094 109.83 12.7744C109.745 12.7395 109.668 12.6882 109.604 12.6236C109.539 12.559 109.488 12.4822 109.453 12.3978C109.418 12.3134 109.4 12.2229 109.4 12.1315C109.401 11.9474 109.474 11.7712 109.605 11.6413C109.735 11.5114 109.912 11.4385 110.096 11.4385C110.28 11.4385 110.456 11.5114 110.587 11.6413C110.717 11.7712 110.791 11.9474 110.792 12.1315C110.792 12.2229 110.774 12.3134 110.739 12.3978C110.704 12.4822 110.653 12.559 110.588 12.6236C110.523 12.6882 110.447 12.7395 110.362 12.7744C110.278 12.8094 110.187 12.8274 110.096 12.8274Z" fill="#1B1935"/>
<path d="M117.157 12.8274C116.972 12.8274 116.795 12.7541 116.665 12.6236C116.534 12.4931 116.461 12.3161 116.461 12.1315C116.462 11.9474 116.535 11.7712 116.666 11.6413C116.796 11.5114 116.973 11.4385 117.157 11.4385C117.341 11.4385 117.517 11.5115 117.647 11.6415C117.777 11.7714 117.85 11.9477 117.85 12.1315C117.85 12.2227 117.833 12.3132 117.798 12.3976C117.763 12.482 117.712 12.5587 117.648 12.6234C117.584 12.6881 117.507 12.7394 117.423 12.7744C117.338 12.8094 117.248 12.8274 117.157 12.8274Z" fill="#1B1935"/>
<path d="M122.143 13.9301C122.27 13.6306 122.335 13.3082 122.333 12.9827C122.331 12.6583 122.262 12.3378 122.131 12.0412C122.013 11.7698 121.828 11.5332 121.593 11.354C121.383 11.1937 121.126 11.1055 120.862 11.1025C120.862 11.1025 122.575 11.6669 122.143 13.9301Z" fill="#BC6A4F"/>
<path d="M120.862 10.5099C120.566 10.5127 120.276 10.5977 120.025 10.7555C120.134 10.6487 120.267 10.5704 120.413 10.5276C120.559 10.4847 120.713 10.4786 120.862 10.5099Z" fill="#BC6A4F"/>
<path d="M111.394 17.668C111.806 17.9867 112.628 18.2031 113.575 18.2031C114.523 18.2031 115.33 17.9867 115.757 17.668C115.757 17.668 113.567 18.4955 111.394 17.668Z" fill="#BC6A4F"/>
<path d="M117.634 6.49805H117.341V7.81973H117.634V6.49805Z" fill="#1D1D1B"/>
<path d="M118.713 7.00684H118.42V8.32852H118.713V7.00684Z" fill="#1D1D1B"/>
<path d="M119.743 7.81934H119.45V9.14102H119.743V7.81934Z" fill="#1D1D1B"/>
<path d="M120.591 8.82422H120.298V10.1459H120.591V8.82422Z" fill="#1D1D1B"/>
<path d="M116.642 6.1123H116.35V7.43399H116.642V6.1123Z" fill="#1D1D1B"/>
<path d="M115.403 5.83691H115.11V7.1586H115.403V5.83691Z" fill="#1D1D1B"/>
<path d="M114.526 5.83691H114.233V7.1586H114.526V5.83691Z" fill="#1D1D1B"/>
<path d="M113.552 5.83691H113.259V7.1586H113.552V5.83691Z" fill="#1D1D1B"/>
<path d="M112.529 6.1123H112.236V7.43399H112.529V6.1123Z" fill="#1D1D1B"/>
<path d="M111.595 6.49805H111.303V7.81973H111.595V6.49805Z" fill="#1D1D1B"/>
<path d="M110.637 7.00684H110.344V8.32852H110.637V7.00684Z" fill="#1D1D1B"/>
<path d="M109.771 7.58203H109.479V8.90372H109.771V7.58203Z" fill="#1D1D1B"/>
<path d="M116.143 14.0451C115.891 13.7943 115.551 13.6534 115.195 13.6533H111.961C111.785 13.6531 111.611 13.6875 111.448 13.7548C111.286 13.822 111.138 13.9207 111.014 14.0451C110.762 14.2964 110.62 14.637 110.619 14.9925V19.4781C110.797 19.4785 110.973 19.4438 111.137 19.3761C111.301 19.3084 111.451 19.2089 111.576 19.0834C111.702 18.958 111.802 18.8089 111.87 18.6448C111.938 18.4807 111.973 18.3048 111.973 18.1272V14.9925H115.189V18.1272C115.189 18.4854 115.332 18.8291 115.585 19.0824C115.838 19.3358 116.182 19.4781 116.54 19.4781V14.9925C116.54 14.8162 116.504 14.6418 116.436 14.4793C116.368 14.3167 116.268 14.1692 116.143 14.0451Z" fill="#D8690E"/>
<path d="M112.911 15.5352H113.613C113.66 15.5355 113.706 15.5497 113.745 15.5762C113.783 15.6026 113.813 15.6399 113.831 15.6835C113.849 15.727 113.853 15.7749 113.843 15.8208C113.833 15.8668 113.81 15.9088 113.777 15.9416L113.247 16.4562L112.742 15.9358C112.71 15.9023 112.688 15.8602 112.68 15.8147C112.671 15.7692 112.676 15.7223 112.695 15.6797C112.713 15.6371 112.743 15.6007 112.781 15.575C112.82 15.5493 112.865 15.5355 112.911 15.5352Z" fill="#D8690E"/>
<path d="M105.029 31.583C105.029 31.583 105.52 33.7585 105.508 33.7147C105.676 33.6049 105.855 33.5147 106.043 33.4456C105.987 32.8325 105.89 32.2238 105.751 31.6239C105.582 31.5451 105.403 31.4881 105.219 31.4543C105.219 31.4543 105.511 25.4103 107.266 24.9541C105.251 25.3489 105.029 31.583 105.029 31.583Z" fill="#373684"/>
<path d="M105.029 31.5848C103.374 31.3421 101.017 31.4415 99.7334 31.5234V31.2807C99.7334 31.2807 103.886 31.1754 105.029 31.5848Z" fill="#373684"/>
<path d="M121.921 31.4961C121.921 31.4961 121.433 33.6745 121.442 33.6277C121.275 33.5185 121.096 33.4283 120.909 33.3587C120.967 32.7457 121.064 32.1372 121.202 31.537C121.372 31.46 121.551 31.404 121.734 31.3703C121.734 31.3703 121.266 25.3233 119.515 24.8701C121.532 25.2707 121.921 31.4961 121.921 31.4961Z" fill="#373684"/>
<path d="M121.921 31.496C123.579 31.2563 125.936 31.3528 127.219 31.4347V31.1949C127.219 31.1949 123.073 31.0896 121.921 31.496Z" fill="#373684"/>
<g clip-path="url(#clip0_731_4)">
<path d="M105.806 33.7389C105.806 33.7389 105.709 37.0769 104.501 36.0178C104.501 36.0178 103.89 37.6852 103.154 36.3961C103.154 36.3961 102.447 38.2873 101.822 36.3204C101.822 36.3204 101.003 38.7821 100.171 36.0935C100.171 36.0935 97.5338 40.5851 97.3258 33.7389L105.806 33.7389Z" fill="#F39672"/>
<path d="M104.824 33.7387C104.824 34.5825 104.708 35.3958 104.499 36.0176C104.499 36.0176 104.921 35.3557 104.824 33.7387Z" fill="#BC6A4F"/>
<path d="M103.367 33.7384C103.432 35.5949 103.154 36.3955 103.154 36.3955C103.154 36.3955 103.576 35.7178 103.367 33.7384Z" fill="#BC6A4F"/>
<path d="M102.148 33.7388C102.128 34.6647 102.016 35.5579 101.822 36.3203C101.947 35.9908 102.042 35.5851 102.099 35.1364C102.155 34.6877 102.172 34.2087 102.148 33.7388Z" fill="#BC6A4F"/>
<path d="M99.8557 34.606C99.9177 35.1606 100.025 35.6694 100.17 36.0938C100.073 35.9474 99.9923 35.7314 99.9369 35.4692C99.8815 35.2071 99.8534 34.9086 99.8557 34.606Z" fill="#BC6A4F"/>
</g>
<g clip-path="url(#clip1_731_4)">
<path d="M129.784 33.7389C129.784 33.7389 129.687 37.0769 128.48 36.0178C128.48 36.0178 127.869 37.6852 127.133 36.3961C127.133 36.3961 126.426 38.2873 125.801 36.3204C125.801 36.3204 124.982 38.7821 124.15 36.0935C124.15 36.0935 121.512 40.5851 121.304 33.7389L129.784 33.7389Z" fill="#F39672"/>
<path d="M128.802 33.7387C128.803 34.5825 128.687 35.3958 128.478 36.0176C128.478 36.0176 128.899 35.3557 128.802 33.7387Z" fill="#BC6A4F"/>
<path d="M127.345 33.7384C127.411 35.5949 127.133 36.3955 127.133 36.3955C127.133 36.3955 127.554 35.7178 127.345 33.7384Z" fill="#BC6A4F"/>
<path d="M126.126 33.7388C126.107 34.6647 125.994 35.5579 125.801 36.3203C125.926 35.9908 126.021 35.5851 126.077 35.1364C126.134 34.6877 126.151 34.2087 126.126 33.7388Z" fill="#BC6A4F"/>
<path d="M123.834 34.606C123.896 35.1606 124.004 35.6694 124.148 36.0938C124.051 35.9474 123.971 35.7314 123.915 35.4692C123.86 35.2071 123.832 34.9086 123.834 34.606Z" fill="#BC6A4F"/>
</g>
<path d="M99.04 33.8875C99.04 33.8875 98.695 32.519 98.8149 31.5891C98.8149 31.5891 103.376 31.1681 105.64 31.6944C105.64 31.6944 105.967 33.25 105.847 33.8875H99.04Z" fill="#FAF3ED"/>
<path d="M127.912 33.8015C127.912 33.8015 128.257 32.436 128.137 31.5061C128.137 31.5061 123.576 31.0851 121.313 31.6114C121.313 31.6114 120.985 33.167 121.105 33.8015H127.912Z" fill="#FAF3ED"/>
</g>
<defs>
<clipPath id="clip0_731_4">
<rect width="8.47983" height="3.8013" fill="white" transform="translate(105.806 37.54) rotate(-180)"/>
</clipPath>
<clipPath id="clip1_731_4">
<rect width="8.47983" height="3.8013" fill="white" transform="translate(129.784 37.54) rotate(-180)"/>
</clipPath>
</defs>
</svg>
