<svg width="86" height="48" viewBox="0 0 86 48" fill="none" xmlns="http://www.w3.org/2000/svg">
<rect y="0.119141" width="85.7864" height="47.6591" fill="#EC8989"/>
<mask id="mask0_426_4" style="mask-type:alpha" maskUnits="userSpaceOnUse" x="43" y="2" width="38" height="38">
<path d="M80.7557 21.3007C80.7557 31.5368 72.4577 39.8348 62.2216 39.8348C51.9855 39.8348 43.6875 31.5368 43.6875 21.3007C43.6875 11.0646 51.9855 2.7666 62.2216 2.7666C72.4577 2.7666 80.7557 11.0646 80.7557 21.3007Z" fill="#EC8989"/>
</mask>
<g mask="url(#mask0_426_4)">
<path d="M46.4337 37.1027C46.4337 37.1027 44.8417 23.0607 54.4409 17.7695L68.0023 18.0571C68.0023 18.0571 73.7992 20.0398 74.5774 36.7546L61.1255 42.4817L46.4337 37.1027Z" fill="#5154A1"/>
<path d="M67.7684 17.6084C67.7684 17.6084 64.6601 21.5384 60.5664 21.3512L61.3676 24.3806C61.3676 24.3806 67.862 20.4214 67.7684 17.6084Z" fill="#373684"/>
<path d="M67.7684 17.6084C67.7684 17.6084 64.4233 21.3044 60.3296 21.1173L61.1191 24.1437C61.1191 24.1437 67.0257 20.9945 67.7684 17.6084Z" fill="#FAF3ED"/>
<path d="M59.3001 20.8975L58.6714 23.9882C58.6714 23.9882 55.0894 19.9296 54.8701 17.3301C54.8672 17.3301 57.9463 20.6898 59.3001 20.8975Z" fill="#373684"/>
<path d="M59.131 20.8565L58.3883 23.8479C58.3883 23.8479 55.0899 19.9267 54.8794 17.3301C55.8952 18.9193 57.3814 20.152 59.131 20.8565Z" fill="#FAF3ED"/>
<path d="M60.2418 22.5154C60.2418 22.5154 60.9026 30.1561 61.3237 31.9017C61.7448 33.6474 59.7886 35.4516 59.6716 36.0539H57.1511C57.1511 36.0539 55.9434 33.8872 56.2124 32.2526C56.4814 30.6181 59.4699 22.4189 59.4699 22.4189L60.2418 22.5154Z" fill="#C7361A"/>
<path d="M60.1102 22.4676C60.1102 22.4676 60.771 30.1082 61.1921 31.8539C61.6132 33.5996 59.654 35.4037 59.5371 36.0061H57.0253C57.0253 36.0061 55.8147 33.8393 56.0867 32.2048C56.3586 30.5702 59.3353 22.3682 59.3353 22.3682L60.1102 22.4676Z" fill="#E8461C"/>
<path d="M59.3299 22.1843L59.6896 21.8012C59.7104 21.778 59.7365 21.7599 59.7656 21.7486C59.7942 21.7366 59.8253 21.7316 59.8563 21.734C59.888 21.7365 59.9188 21.7455 59.9469 21.7603C59.9739 21.7751 59.997 21.7962 60.0142 21.8217L60.3855 22.3422C60.4024 22.3644 60.4146 22.39 60.4211 22.4171C60.4276 22.4443 60.4285 22.4726 60.4235 22.5001C60.4196 22.5276 60.4101 22.554 60.3955 22.5777C60.3809 22.6013 60.3616 22.6217 60.3387 22.6375L59.8183 23.006C59.7931 23.024 59.764 23.036 59.7335 23.041C59.7027 23.0484 59.6706 23.0484 59.6399 23.041C59.6098 23.0324 59.5819 23.0174 59.558 22.9972C59.5338 22.9765 59.5148 22.9505 59.5024 22.9211L59.289 22.4153C59.2774 22.3762 59.2774 22.3345 59.289 22.2954C59.2914 22.2551 59.3056 22.2165 59.3299 22.1843Z" fill="#C7361A"/>
<path d="M59.2626 22.1599L59.6105 21.7886C59.6312 21.7672 59.6561 21.7502 59.6836 21.7389C59.7124 21.7316 59.7426 21.7316 59.7714 21.7389C59.8012 21.7393 59.8304 21.7474 59.8562 21.7623C59.8832 21.7771 59.9062 21.7981 59.9234 21.8237L60.2802 22.3266C60.2955 22.3476 60.3064 22.3715 60.3123 22.3968C60.3181 22.4228 60.3181 22.4498 60.3123 22.4757C60.3083 22.5029 60.2983 22.5289 60.2831 22.5518C60.2696 22.5746 60.2517 22.5945 60.2304 22.6102L59.7334 22.9641C59.7077 22.9812 59.6788 22.9931 59.6485 22.9992C59.6186 23.005 59.5879 23.005 59.5579 22.9992C59.5287 22.9904 59.5018 22.9755 59.479 22.9553C59.4557 22.9356 59.4376 22.9105 59.4263 22.8822L59.2216 22.3939C59.21 22.3567 59.21 22.317 59.2216 22.2798C59.2228 22.2367 59.2371 22.1948 59.2626 22.1599Z" fill="#E8461C"/>
<path d="M55.9523 17.5783C55.6252 17.5783 55.3014 17.5139 54.9993 17.3887C54.6972 17.2634 54.4228 17.0798 54.1917 16.8485C53.9606 16.6171 53.7774 16.3424 53.6525 16.0402C53.5276 15.7379 53.4635 15.4141 53.4639 15.087C53.4639 14.4271 53.726 13.7941 54.1927 13.3275C54.6594 12.8608 55.2923 12.5986 55.9523 12.5986C56.6125 12.5986 57.2458 12.8607 57.7129 13.3273C58.18 13.7939 58.4428 14.4268 58.4436 15.087C58.4436 15.7478 58.1811 16.3814 57.7139 16.8486C57.2467 17.3159 56.613 17.5783 55.9523 17.5783Z" fill="#F39672"/>
<path d="M65.9322 15.1071C65.93 14.638 66.0361 14.1747 66.2421 13.7533C66.4235 13.3728 66.7121 13.0536 67.0726 12.8351C67.3976 12.641 67.7828 12.5734 68.1545 12.6451C68.5426 12.7283 68.891 12.9406 69.1428 13.2474C69.4353 13.5905 69.6364 14.0019 69.7276 14.4434C69.8262 14.9088 69.8192 15.3904 69.7072 15.8528C69.607 16.288 69.3977 16.6905 69.099 17.0224C68.8351 17.3142 68.4808 17.5088 68.0931 17.5751C68.0186 17.5867 67.9433 17.5926 67.8679 17.5926C67.7417 17.5932 67.6159 17.5775 67.4937 17.5458C67.0256 17.4099 66.6265 17.1017 66.3766 16.6832C66.0832 16.2101 65.9291 15.6639 65.9322 15.1071Z" fill="#F39672"/>
<path d="M61.3796 21.1561C57.4994 21.1561 54.3618 18.4104 54.3618 15.0156C54.3618 11.6207 57.5081 8.875 61.3796 8.875C65.2511 8.875 68.3974 11.6207 68.3974 15.0156C68.3974 18.4104 65.2599 21.1561 61.3796 21.1561Z" fill="#F39672"/>
<path d="M63.1658 13.6208C63.1822 13.6235 63.1991 13.6235 63.2155 13.6208L64.4992 13.1032C64.5312 13.0902 64.5568 13.0651 64.5705 13.0334C64.5841 13.0017 64.5848 12.9658 64.5723 12.9336C64.5593 12.9016 64.5342 12.876 64.5024 12.8623C64.4707 12.8486 64.4349 12.848 64.4027 12.8605L63.1161 13.3781C63.1 13.3841 63.0853 13.3934 63.0729 13.4054C63.0606 13.4174 63.0508 13.4318 63.0442 13.4477C63.0376 13.4636 63.0344 13.4806 63.0347 13.4978C63.035 13.515 63.0388 13.532 63.0459 13.5477C63.0566 13.5701 63.0737 13.589 63.095 13.602C63.1163 13.615 63.1409 13.6215 63.1658 13.6208Z" fill="black"/>
<path d="M58.1489 13.5228C58.1755 13.5227 58.2016 13.5146 58.2235 13.4995C58.2454 13.4843 58.2622 13.4629 58.2717 13.438C58.2778 13.422 58.2807 13.4051 58.2801 13.388C58.2796 13.371 58.2756 13.3542 58.2685 13.3387C58.2615 13.3232 58.2514 13.3093 58.2389 13.2977C58.2264 13.2861 58.2117 13.2771 58.1957 13.2713L56.9003 12.78C56.8677 12.7677 56.8316 12.7688 56.7998 12.783C56.768 12.7973 56.7432 12.8235 56.7307 12.8561C56.7184 12.8886 56.7194 12.9248 56.7337 12.9566C56.7479 12.9884 56.7742 13.0132 56.8068 13.0257L58.1021 13.5169C58.1172 13.5217 58.1331 13.5237 58.1489 13.5228Z" fill="black"/>
<path d="M57.0958 14.9466C57.0044 14.9466 56.914 14.9286 56.8295 14.8936C56.7451 14.8586 56.6684 14.8073 56.6038 14.7427C56.5391 14.6781 56.4878 14.6014 56.4529 14.5169C56.4179 14.4325 56.3999 14.342 56.3999 14.2506C56.4007 14.0666 56.4744 13.8903 56.6048 13.7604C56.7352 13.6305 56.9118 13.5576 57.0958 13.5576C57.2799 13.5576 57.4565 13.6305 57.5869 13.7604C57.7173 13.8903 57.791 14.0666 57.7918 14.2506C57.7918 14.342 57.7738 14.4325 57.7388 14.5169C57.7038 14.6014 57.6526 14.6781 57.588 14.7427C57.5233 14.8073 57.4466 14.8586 57.3622 14.8936C57.2777 14.9286 57.1872 14.9466 57.0958 14.9466Z" fill="#1B1935"/>
<path d="M64.1569 14.9466C63.9723 14.9466 63.7953 14.8732 63.6648 14.7427C63.5342 14.6122 63.4609 14.4352 63.4609 14.2506C63.4617 14.0666 63.5354 13.8903 63.6658 13.7604C63.7962 13.6305 63.9728 13.5576 64.1569 13.5576C64.3407 13.5576 64.5169 13.6306 64.6469 13.7606C64.7768 13.8906 64.8499 14.0668 64.8499 14.2506C64.8503 14.3419 64.8326 14.4323 64.798 14.5167C64.7633 14.6011 64.7123 14.6779 64.6479 14.7425C64.5835 14.8072 64.507 14.8585 64.4228 14.8935C64.3385 14.9285 64.2481 14.9466 64.1569 14.9466Z" fill="#1B1935"/>
<path d="M69.1425 16.0493C69.2699 15.7498 69.3346 15.4273 69.3326 15.1019C69.3307 14.7775 69.262 14.457 69.1309 14.1603C69.0134 13.8889 68.8281 13.6523 68.5928 13.4731C68.3826 13.3128 68.1262 13.2246 67.8618 13.2217C67.8618 13.2217 69.5753 13.786 69.1425 16.0493Z" fill="#BC6A4F"/>
<path d="M67.8617 12.6291C67.5656 12.6318 67.276 12.7168 67.0254 12.8747C67.1337 12.7679 67.2667 12.6896 67.4127 12.6467C67.5586 12.6038 67.7129 12.5978 67.8617 12.6291Z" fill="#BC6A4F"/>
<path d="M58.394 19.7871C58.8063 20.1058 59.628 20.3222 60.5754 20.3222C61.5228 20.3222 62.3298 20.1058 62.7567 19.7871C62.7567 19.7871 60.5666 20.6146 58.394 19.7871Z" fill="#BC6A4F"/>
<path d="M64.6337 8.61719H64.3413V9.93887H64.6337V8.61719Z" fill="#1D1D1B"/>
<path d="M65.7128 9.12598H65.4204V10.4477H65.7128V9.12598Z" fill="#1D1D1B"/>
<path d="M66.7426 9.93848H66.4502V11.2602H66.7426V9.93848Z" fill="#1D1D1B"/>
<path d="M67.5907 10.9434H67.2983V12.265H67.5907V10.9434Z" fill="#1D1D1B"/>
<path d="M63.642 8.23145H63.3496V9.55313H63.642V8.23145Z" fill="#1D1D1B"/>
<path d="M62.4028 7.95605H62.1104V9.27774H62.4028V7.95605Z" fill="#1D1D1B"/>
<path d="M61.5258 7.95605H61.2334V9.27774H61.5258V7.95605Z" fill="#1D1D1B"/>
<path d="M60.5517 7.95605H60.2593V9.27774H60.5517V7.95605Z" fill="#1D1D1B"/>
<path d="M59.5287 8.23145H59.2363V9.55313H59.5287V8.23145Z" fill="#1D1D1B"/>
<path d="M58.5951 8.61719H58.3027V9.93887H58.5951V8.61719Z" fill="#1D1D1B"/>
<path d="M57.6366 9.12598H57.3442V10.4477H57.6366V9.12598Z" fill="#1D1D1B"/>
<path d="M56.7709 9.70117H56.4785V11.0229H56.7709V9.70117Z" fill="#1D1D1B"/>
<path d="M63.1427 16.1643C62.8912 15.9134 62.5505 15.7726 62.1953 15.7725H58.9613C58.7853 15.7722 58.6111 15.8067 58.4485 15.8739C58.2859 15.9411 58.1382 16.0398 58.0139 16.1643C57.7623 16.4155 57.6203 16.7561 57.6191 17.1117V21.5972C57.7968 21.5976 57.9728 21.5629 58.137 21.4952C58.3012 21.4275 58.4505 21.3281 58.5763 21.2026C58.702 21.0771 58.8018 20.928 58.8699 20.764C58.9379 20.5999 58.973 20.424 58.973 20.2463V17.1117H62.1895V20.2463C62.1895 20.6046 62.3318 20.9482 62.5851 21.2016C62.8385 21.4549 63.1821 21.5972 63.5404 21.5972V17.1117C63.5396 16.9354 63.5041 16.761 63.4358 16.5984C63.3676 16.4359 63.268 16.2883 63.1427 16.1643Z" fill="#D8690E"/>
<path d="M59.9111 17.6543H60.6129C60.6599 17.6546 60.7057 17.6689 60.7445 17.6953C60.7833 17.7217 60.8134 17.7591 60.831 17.8026C60.8485 17.8462 60.8528 17.894 60.8431 17.94C60.8334 17.9859 60.8103 18.0279 60.7766 18.0607L60.2474 18.5754L59.7415 18.0549C59.7095 18.0215 59.688 17.9794 59.6797 17.9339C59.6713 17.8884 59.6765 17.8414 59.6945 17.7988C59.7126 17.7562 59.7427 17.7198 59.7812 17.6941C59.8197 17.6684 59.8648 17.6546 59.9111 17.6543Z" fill="#D8690E"/>
<path d="M52.0288 33.7021C52.0288 33.7021 52.5201 35.8777 52.5084 35.8338C52.6759 35.724 52.8554 35.6338 53.0435 35.5648C52.9873 34.9516 52.8897 34.343 52.751 33.7431C52.5816 33.6642 52.4027 33.6072 52.2189 33.5735C52.2189 33.5735 52.5113 27.5294 54.2657 27.0732C52.251 27.468 52.0288 33.7021 52.0288 33.7021Z" fill="#373684"/>
<path d="M52.0289 33.7039C50.3739 33.4613 48.0171 33.5607 46.7334 33.6425V33.3998C46.7334 33.3998 50.8856 33.2946 52.0289 33.7039Z" fill="#373684"/>
<path d="M68.9212 33.6152C68.9212 33.6152 68.4329 35.7937 68.4416 35.7469C68.2748 35.6377 68.0963 35.5474 67.9094 35.4779C67.9667 34.8648 68.0644 34.2563 68.2018 33.6562C68.3718 33.5791 68.5505 33.5231 68.7341 33.4895C68.7341 33.4895 68.2662 27.4425 66.5146 26.9893C68.5323 27.3899 68.9212 33.6152 68.9212 33.6152Z" fill="#373684"/>
<path d="M68.9209 33.6152C70.5789 33.3754 72.9357 33.4719 74.2193 33.5538V33.314C74.2193 33.314 70.073 33.2087 68.9209 33.6152Z" fill="#373684"/>
<g clip-path="url(#clip0_426_4)">
<path d="M52.8057 35.8581C52.8057 35.8581 52.7086 39.196 51.5013 38.137C51.5013 38.137 50.8902 39.8044 50.1543 38.5152C50.1543 38.5152 49.4472 40.4064 48.8222 38.4396C48.8222 38.4396 48.0031 40.9013 47.1713 38.2126C47.1713 38.2126 44.5338 42.7042 44.3258 35.8581L52.8057 35.8581Z" fill="#F39672"/>
<path d="M51.8239 35.8578C51.8242 36.7016 51.7083 37.5149 51.4992 38.1367C51.4992 38.1367 51.9209 37.4748 51.8239 35.8578Z" fill="#BC6A4F"/>
<path d="M50.3666 35.8575C50.4325 37.714 50.154 38.5146 50.154 38.5146C50.154 38.5146 50.5757 37.837 50.3666 35.8575Z" fill="#BC6A4F"/>
<path d="M49.1479 35.858C49.1284 36.7838 49.0156 37.6771 48.8221 38.4395C48.9473 38.11 49.0421 37.7042 49.0987 37.2555C49.1553 36.8068 49.1722 36.3279 49.1479 35.858Z" fill="#BC6A4F"/>
<path d="M46.8557 36.7251C46.9177 37.2797 47.0251 37.7885 47.1699 38.2129C47.0728 38.0665 46.9923 37.8506 46.9369 37.5884C46.8815 37.3262 46.8534 37.0277 46.8557 36.7251Z" fill="#BC6A4F"/>
</g>
<g clip-path="url(#clip1_426_4)">
<path d="M76.7842 35.8581C76.7842 35.8581 76.6871 39.196 75.4799 38.137C75.4799 38.137 74.8687 39.8044 74.1328 38.5152C74.1328 38.5152 73.4258 40.4064 72.8007 38.4396C72.8007 38.4396 71.9816 40.9013 71.1498 38.2126C71.1498 38.2126 68.5123 42.7042 68.3043 35.8581L76.7842 35.8581Z" fill="#F39672"/>
<path d="M75.8024 35.8578C75.8027 36.7016 75.6868 37.5149 75.4778 38.1367C75.4778 38.1367 75.8994 37.4748 75.8024 35.8578Z" fill="#BC6A4F"/>
<path d="M74.3451 35.8575C74.411 37.714 74.1326 38.5146 74.1326 38.5146C74.1326 38.5146 74.5542 37.837 74.3451 35.8575Z" fill="#BC6A4F"/>
<path d="M73.1264 35.858C73.1069 36.7838 72.9941 37.6771 72.8006 38.4395C72.9258 38.11 73.0206 37.7042 73.0772 37.2555C73.1339 36.8068 73.1507 36.3279 73.1264 35.858Z" fill="#BC6A4F"/>
<path d="M70.8342 36.7251C70.8962 37.2797 71.0036 37.7885 71.1484 38.2129C71.0514 38.0665 70.9708 37.8506 70.9154 37.5884C70.86 37.3262 70.8319 37.0277 70.8342 36.7251Z" fill="#BC6A4F"/>
</g>
<path d="M46.04 36.0066C46.04 36.0066 45.695 34.6381 45.8149 33.7083C45.8149 33.7083 50.3764 33.2872 52.6396 33.8136C52.6396 33.8136 52.9671 35.3692 52.8472 36.0066H46.04Z" fill="#FAF3ED"/>
<path d="M74.9123 35.9207C74.9123 35.9207 75.2573 34.5551 75.1374 33.6253C75.1374 33.6253 70.5758 33.2042 68.3126 33.7305C68.3126 33.7305 67.9851 35.2862 68.105 35.9207H74.9123Z" fill="#FAF3ED"/>
</g>
<defs>
<clipPath id="clip0_426_4">
<rect width="8.47983" height="3.8013" fill="white" transform="translate(52.8057 39.6592) rotate(-180)"/>
</clipPath>
<clipPath id="clip1_426_4">
<rect width="8.47983" height="3.8013" fill="white" transform="translate(76.7842 39.6592) rotate(-180)"/>
</clipPath>
</defs>
</svg>
