<svg width="154" height="146" viewBox="0 0 154 146" fill="none" xmlns="http://www.w3.org/2000/svg">
<path d="M224.121 58.9043H23.4368V129.401H224.121V58.9043Z" fill="#D07878"/>
<path d="M224.121 89.2148H23.4368V129.401H224.121V89.2148Z" fill="#7C373B"/>
<path d="M229.151 53.0312H14.0327V58.9077H229.151V53.0312Z" fill="#7C373B"/>
<path d="M232.793 47.1562H10.3923V53.0327H232.793V47.1562Z" fill="#542429"/>
<path d="M121.692 30.6777L73.4548 58.9045H121.692H169.929L121.692 30.6777Z" fill="#AD4B4C"/>
<path d="M227.789 129.399H16.2463V132.975H227.789V129.399Z" fill="#542429"/>
<path d="M234.447 132.975H9.5874V137.975H234.447V132.975Z" fill="#7C373B"/>
<path d="M244.035 137.975H0V145.117H244.035V137.975Z" fill="#AD4B4C"/>
<path d="M121.692 53.0267C123.24 53.0332 124.755 52.5806 126.046 51.7264C127.336 50.8723 128.343 49.6549 128.94 48.2285C129.537 46.8021 129.697 45.2309 129.399 43.7139C129.101 42.1969 128.358 40.8024 127.266 39.707C126.173 38.6116 124.78 37.8646 123.262 37.5607C121.744 37.2567 120.17 37.4094 118.739 37.9995C117.308 38.5896 116.085 39.5905 115.224 40.8755C114.363 42.1604 113.903 43.6715 113.903 45.2174C113.901 46.241 114.1 47.255 114.49 48.2015C114.88 49.148 115.454 50.0084 116.177 50.7337C116.9 51.4589 117.759 52.0347 118.706 52.4282C119.652 52.8216 120.667 53.025 121.692 53.0267Z" fill="#F2F6E4" stroke="#542429" stroke-miterlimit="10"/>
<path d="M121.627 46.0901C121.818 46.091 122.005 46.0353 122.164 45.9299C122.324 45.8245 122.448 45.6741 122.522 45.498C122.596 45.3218 122.616 45.1278 122.579 44.9404C122.542 44.7531 122.45 44.5808 122.315 44.4456C122.18 44.3104 122.008 44.2182 121.821 44.1808C121.633 44.1434 121.439 44.1624 121.262 44.2355C121.085 44.3085 120.934 44.4324 120.828 44.5912C120.722 44.75 120.666 44.9368 120.666 45.1277C120.666 45.3824 120.767 45.6267 120.947 45.8071C121.127 45.9874 121.372 46.0892 121.627 46.0901Z" fill="#165E46"/>
<path d="M121.627 45.8496C121.77 45.8503 121.91 45.8084 122.03 45.7294C122.149 45.6504 122.242 45.5377 122.297 45.4057C122.353 45.2737 122.367 45.1283 122.34 44.988C122.312 44.8476 122.243 44.7186 122.142 44.6174C122.041 44.5161 121.912 44.4471 121.771 44.4192C121.631 44.3912 121.485 44.4056 121.353 44.4604C121.221 44.5152 121.107 44.608 121.028 44.7271C120.949 44.8461 120.906 44.986 120.907 45.1291C120.907 45.2236 120.925 45.3173 120.961 45.4047C120.997 45.4921 121.05 45.5715 121.117 45.6385C121.184 45.7054 121.263 45.7585 121.351 45.7947C121.438 45.831 121.532 45.8496 121.627 45.8496Z" fill="#0B3022"/>
<path d="M121.627 44.4058C121.565 44.4046 121.506 44.3793 121.462 44.3354C121.419 44.2915 121.394 44.2324 121.393 44.1705V41.4749C121.393 41.4129 121.417 41.3535 121.461 41.3097C121.505 41.2658 121.565 41.2412 121.627 41.2412C121.689 41.2412 121.748 41.2658 121.792 41.3097C121.836 41.3535 121.861 41.4129 121.861 41.4749V44.1705C121.862 44.2014 121.856 44.2322 121.844 44.2609C121.833 44.2897 121.816 44.3158 121.794 44.3378C121.772 44.3597 121.746 44.3771 121.717 44.3888C121.689 44.4005 121.658 44.4063 121.627 44.4058Z" fill="#165E46"/>
<path d="M122.347 45.1279C122.348 45.066 122.372 45.0069 122.416 44.963C122.46 44.9191 122.519 44.8938 122.581 44.8926H125.269C125.328 44.8975 125.383 44.9243 125.423 44.9677C125.463 45.0112 125.485 45.0681 125.485 45.1271C125.485 45.1861 125.463 45.243 125.423 45.2864C125.383 45.3299 125.328 45.3567 125.269 45.3616H122.581C122.519 45.3616 122.459 45.337 122.415 45.2931C122.371 45.2493 122.347 45.1899 122.347 45.1279Z" fill="#165E46"/>
<path d="M120.9 44.4658L118.83 41.8691L121.045 44.3668L120.9 44.4658Z" fill="#0B3022"/>
<path d="M121.692 37.8408H121.495V39.4832H121.692V37.8408Z" fill="#165E46"/>
<path d="M121.692 50.7764H121.495V52.4187H121.692V50.7764Z" fill="#165E46"/>
<path d="M116.021 45.2898V45.0918H114.383V45.2898H116.021Z" fill="#165E46"/>
<path d="M126.706 50.4477L126.847 50.3081L125.695 49.1396L125.555 49.2792L126.706 50.4477Z" fill="#165E46"/>
<path d="M117.628 41.2504L117.768 41.1109L116.616 39.9424L116.476 40.0819L117.628 41.2504Z" fill="#165E46"/>
<path d="M126.933 40.0963L126.793 39.9551L125.63 41.1106L125.768 41.2518L126.933 40.0963Z" fill="#165E46"/>
<path d="M117.76 49.19L117.62 49.0488L116.455 50.2043L116.595 50.3455L117.76 49.19Z" fill="#165E46"/>
<path opacity="0.65" d="M129.446 45.2791C129.446 45.4235 129.428 45.3391 129.422 45.4787C129.199 41.3631 125.815 38.3185 121.656 38.3185C117.497 38.3185 114.198 41.5919 113.975 45.7059C113.975 45.5679 113.951 45.3635 113.951 45.219C113.94 44.2031 114.132 43.1954 114.515 42.2541C114.898 41.3129 115.464 40.457 116.181 39.736C116.898 39.0151 117.751 38.4435 118.691 38.0545C119.631 37.6655 120.639 37.4667 121.656 37.4698C122.681 37.4713 123.696 37.6745 124.643 38.0678C125.589 38.4612 126.449 39.037 127.172 39.7622C127.896 40.4875 128.469 41.3481 128.859 42.2947C129.249 43.2413 129.449 44.2554 129.446 45.2791Z" fill="#DDDDD7"/>
<path d="M121.692 80.541C110.276 80.541 101.02 88.5516 101.02 98.4333V129.399H142.365V98.4333C142.365 88.5516 133.109 80.541 121.692 80.541Z" fill="#7C373B"/>
<path d="M121.692 84.4326C112.151 84.4326 104.417 91.8054 104.417 100.9V129.399H138.969V100.9C138.969 91.8054 131.234 84.4326 121.692 84.4326Z" fill="#542429"/>
<path d="M60.8197 60.9004H38.6443V83.043H60.8197V60.9004Z" fill="#542429"/>
<path d="M58.3332 63.3838H41.1328V80.5587H58.3332V63.3838Z" fill="#7C373B"/>
<path opacity="0.6" d="M38.6462 60.8994C38.6462 60.8994 46.919 83.0436 60.8217 83.0436H38.6462V60.8994Z" fill="#EC8989"/>
<path d="M51.3851 60.9004H48.0825V83.043H51.3851V60.9004Z" fill="#AD4B4C"/>
<path d="M61.1711 73.6209V70.3232H38.2952V73.6209H61.1711Z" fill="#EC8989"/>
<path d="M60.8197 93.8975H38.6443V116.04H60.8197V93.8975Z" fill="#542429"/>
<path d="M58.3332 96.3828H41.1328V113.558H58.3332V96.3828Z" fill="#7C373B"/>
<path opacity="0.6" d="M38.6462 93.8975C38.6462 93.8975 46.919 116.04 60.8217 116.04H38.6462V93.8975Z" fill="#EC8989"/>
<path d="M51.3851 93.8975H48.0825V116.04H51.3851V93.8975Z" fill="#AD4B4C"/>
<path d="M60.8196 106.62V103.322H38.6442V106.62H60.8196Z" fill="#EC8989"/>
<path d="M160.422 60.9004H138.247V83.043H160.422V60.9004Z" fill="#542429"/>
<path d="M157.935 63.3838H140.735V80.5587H157.935V63.3838Z" fill="#7C373B"/>
<path opacity="0.6" d="M138.249 60.8994C138.249 60.8994 146.528 83.0436 160.424 83.0436H138.249V60.8994Z" fill="#EC8989"/>
<path d="M150.988 60.9004H147.685V83.043H150.988V60.9004Z" fill="#AD4B4C"/>
<path d="M160.424 73.621V70.3232H138.248V73.621H160.424Z" fill="#EC8989"/>
<path d="M105.79 60.9004H83.6143V83.043H105.79V60.9004Z" fill="#542429"/>
<path d="M103.302 63.3838H86.1013V80.5587H103.302V63.3838Z" fill="#7C373B"/>
<path opacity="0.6" d="M83.6143 60.8994C83.6143 60.8994 91.8935 83.0436 105.79 83.0436H83.6143V60.8994Z" fill="#EC8989"/>
<path d="M96.3534 60.9004H93.0508V83.043H96.3534V60.9004Z" fill="#AD4B4C"/>
<path d="M105.79 73.6209V70.3232H83.6144V73.6209H105.79Z" fill="#EC8989"/>
<path d="M121.692 0.732424C121.491 0.732424 121.298 0.812099 121.156 0.953925C121.014 1.09575 120.934 1.28811 120.934 1.48869V27.3899L121.692 26.9306L122.451 27.3899V1.48869C122.451 1.38924 122.431 1.29076 122.393 1.1989C122.355 1.10704 122.299 1.0236 122.228 0.953351C122.158 0.883104 122.074 0.827433 121.982 0.789523C121.89 0.751612 121.791 0.73221 121.692 0.732424Z" fill="#542429"/>
<path d="M121.691 84.4326V129.399H138.968V100.9C138.882 97.8268 137.985 94.8308 136.368 92.2143C133.871 88.2431 128.583 84.4326 121.691 84.4326Z" fill="#542429"/>
<path d="M121.692 30.6772L73.455 58.904L66.4045 63.8067V60.4165L121.692 26.9316V30.6772Z" fill="#7C373B"/>
<path d="M121.691 30.6772L169.928 58.904L176.979 63.8067V60.4165L121.691 26.9316V30.6772Z" fill="#7C373B"/>
<path opacity="0.6" d="M83.6147 58.9209H69.8323V129.417H83.6147V58.9209Z" fill="#542429"/>
<path opacity="0.6" d="M111.308 58.9209H97.5254V129.417H111.308V58.9209Z" fill="#542429"/>
<path opacity="0.6" d="M138.999 58.9209H125.217V129.417H138.999V58.9209Z" fill="#542429"/>
<path opacity="0.6" d="M166.692 58.9209H152.91V129.417H166.692V58.9209Z" fill="#542429"/>
<path d="M114.802 58.9043H101.02V129.401H114.802V58.9043Z" fill="#AD4B4C"/>
<path d="M142.365 58.9043H128.583V129.401H142.365V58.9043Z" fill="#AD4B4C"/>
<path d="M87.2373 58.9043H73.4548V129.401H87.2373V58.9043Z" fill="#AD4B4C"/>
<path d="M73.4565 58.9014C73.4565 58.9014 77.744 129.398 87.2373 129.398H73.4565V58.9014Z" fill="#542429"/>
<path d="M87.2373 129.399C87.2373 129.399 82.9498 58.9014 73.4565 58.9014H87.2373V129.399Z" fill="#542429"/>
<path d="M114.802 129.399C114.802 129.399 110.513 58.9014 101.02 58.9014H114.802V129.399Z" fill="#542429"/>
<path d="M142.365 129.399C142.365 129.399 138.076 58.9014 128.583 58.9014H142.365V129.399Z" fill="#542429"/>
<path d="M101.02 58.9102C101.02 58.9102 105.309 129.405 114.802 129.405H101.02V58.9102Z" fill="#542429"/>
<path d="M128.583 58.9141C128.583 58.9141 132.872 129.409 142.365 129.409H128.583V58.9141Z" fill="#542429"/>
<path d="M0 137.975L244.034 145.117H0V137.975Z" fill="#7C373B"/>
<path d="M9.5874 132.975V137.975H234.447L9.5874 132.975Z" fill="#542429"/>
<path opacity="0.6" d="M224.121 58.748H23.4368V66.3285H224.121V58.748Z" fill="#542429"/>
<path opacity="0.6" d="M121.692 58.9045V30.6777L73.4548 58.9045H121.692Z" fill="#7C373B"/>
<path d="M121.692 30.6777L73.4548 58.9045L78.2803 58.984L121.625 33.8488L164.64 58.984L169.929 58.9045L121.692 30.6777Z" fill="#542429"/>
</svg>
