<svg width="279" height="21" viewBox="0 0 279 21" fill="none" xmlns="http://www.w3.org/2000/svg">
<path d="M15.192 3.922C15.192 4.02467 15.148 4.11267 15.06 4.186C14.9866 4.24467 14.9133 4.274 14.84 4.274C14.708 4.274 14.4953 4.28867 14.202 4.318C13.9233 4.34733 13.6153 4.384 13.278 4.428C12.9553 4.45733 12.6326 4.494 12.31 4.538C12.002 4.56733 11.7526 4.59667 11.562 4.626C11.5033 4.626 11.3786 4.63333 11.188 4.648C11.012 4.66267 10.8066 4.68467 10.572 4.714C10.352 4.72867 10.1246 4.75067 9.88997 4.78C9.66997 4.80933 9.49397 4.83133 9.36197 4.846C9.20064 4.87533 8.96597 4.92667 8.65797 5C8.34997 5.07333 8.0713 5.14667 7.82197 5.22C7.73397 5.24933 7.6533 5.27133 7.57997 5.286C7.50664 5.30067 7.44797 5.31533 7.40397 5.33C7.3453 5.34467 7.29397 5.35933 7.24997 5.374L8.43797 9.576C8.48197 9.708 8.5553 9.92067 8.65797 10.214C8.76064 10.5073 8.87797 10.83 9.00997 11.182C9.15664 11.534 9.3033 11.9007 9.44997 12.282C9.6113 12.6633 9.75064 13.0153 9.86797 13.338C9.9413 13.5287 10.022 13.7633 10.11 14.042C10.198 14.3207 10.2786 14.6067 10.352 14.9C10.4253 15.1787 10.484 15.4353 10.528 15.67C10.5866 15.9047 10.616 16.066 10.616 16.154C10.616 16.3593 10.5573 16.572 10.44 16.792C10.3226 17.0267 10.1686 17.144 9.97797 17.144C9.80197 17.144 9.71397 17.0193 9.71397 16.77V16.616C9.71397 16.572 9.71397 16.5207 9.71397 16.462C9.72864 16.4033 9.73597 16.3373 9.73597 16.264C9.73597 16.1467 9.69197 15.9487 9.60397 15.67C9.51597 15.3767 9.40597 15.054 9.27397 14.702C9.14197 14.3353 8.9953 13.954 8.83397 13.558C8.6873 13.1473 8.54064 12.766 8.39397 12.414C8.26197 12.0473 8.14464 11.7393 8.04197 11.49C7.9393 11.226 7.8733 11.05 7.84397 10.962C7.79997 10.8447 7.7413 10.676 7.66797 10.456C7.6093 10.236 7.53597 9.98667 7.44797 9.708C7.35997 9.42933 7.26464 9.136 7.16197 8.828C7.07397 8.50533 6.98597 8.19 6.89797 7.882C6.67797 7.16333 6.43597 6.37867 6.17197 5.528C6.09864 5.54267 5.85664 5.57933 5.44597 5.638C5.04997 5.682 4.60264 5.73333 4.10397 5.792C3.6053 5.85067 3.12864 5.90933 2.67397 5.968C2.2193 6.012 1.9113 6.034 1.74997 6.034C1.3833 6.034 1.14864 5.97533 1.04597 5.858C0.943302 5.74067 0.884635 5.594 0.869969 5.418C0.869969 5.30067 0.899302 5.18333 0.957969 5.066C1.01664 4.934 1.0973 4.868 1.19997 4.868C1.3173 4.868 1.41264 4.89 1.48597 4.934C1.54464 4.96333 1.6253 4.978 1.72797 4.978C1.7573 4.978 1.90397 4.96333 2.16797 4.934C2.44664 4.90467 2.7693 4.868 3.13597 4.824C3.5173 4.78 3.90597 4.736 4.30197 4.692C4.71264 4.648 5.07197 4.61133 5.37997 4.582C5.4533 4.582 5.52664 4.582 5.59997 4.582C5.68797 4.56733 5.76864 4.55267 5.84197 4.538C5.9153 4.52333 5.98864 4.516 6.06197 4.516C6.06197 4.472 6.08397 4.37667 6.12797 4.23C6.18664 4.06867 6.2453 3.988 6.30397 3.988C6.45064 3.988 6.56797 4.04667 6.65597 4.164C6.75864 4.26667 6.84664 4.34 6.91997 4.384C7.02264 4.36933 7.17664 4.34 7.38197 4.296C7.60197 4.23733 7.8293 4.186 8.06397 4.142C8.3133 4.098 8.54797 4.06133 8.76797 4.032C9.00264 3.988 9.20064 3.95867 9.36197 3.944L11.936 3.79C12.156 3.77533 12.4053 3.76067 12.684 3.746C12.9773 3.71667 13.2633 3.68733 13.542 3.658C13.8206 3.62867 14.0626 3.60667 14.268 3.592C14.4733 3.56267 14.6126 3.548 14.686 3.548C14.818 3.56267 14.9353 3.60667 15.038 3.68C15.1406 3.75333 15.192 3.834 15.192 3.922ZM18.5526 13.69C18.5673 13.7193 18.5746 13.7633 18.5746 13.822C18.5746 13.91 18.5086 14.042 18.3766 14.218C18.3326 14.2767 18.2373 14.372 18.0906 14.504C17.944 14.636 17.746 14.768 17.4966 14.9C17.2473 15.032 16.9393 15.1493 16.5726 15.252C16.2206 15.3547 15.8026 15.406 15.3186 15.406C14.9813 15.406 14.6513 15.3327 14.3286 15.186C14.006 15.0247 13.72 14.7973 13.4706 14.504C13.2213 14.196 13.016 13.822 12.8546 13.382C12.6933 12.9273 12.6126 12.3993 12.6126 11.798C12.6126 11.226 12.686 10.6907 12.8326 10.192C12.9793 9.69333 13.1626 9.25333 13.3826 8.872C13.6173 8.49067 13.874 8.19 14.1526 7.97C14.4313 7.75 14.7026 7.64 14.9666 7.64C15.2013 7.64 15.436 7.69133 15.6706 7.794C15.92 7.882 16.14 7.99933 16.3306 8.146C16.536 8.29267 16.6973 8.46133 16.8146 8.652C16.932 8.828 16.9906 9.01133 16.9906 9.202C16.9906 9.422 16.888 9.64933 16.6826 9.884C16.492 10.1187 16.2573 10.3387 15.9786 10.544C15.7 10.7347 15.4213 10.896 15.1426 11.028C14.864 11.1453 14.644 11.204 14.4826 11.204C14.3946 11.204 14.314 11.1673 14.2406 11.094C14.182 11.006 14.1526 10.9033 14.1526 10.786C14.1526 10.5807 14.2406 10.4193 14.4166 10.302C14.6073 10.1847 14.8126 10.082 15.0326 9.994C15.2526 9.89133 15.4506 9.774 15.6266 9.642C15.8173 9.51 15.9126 9.32667 15.9126 9.092C15.9126 9.06267 15.876 8.98933 15.8026 8.872C15.7293 8.75467 15.5313 8.696 15.2086 8.696C15.062 8.696 14.8933 8.784 14.7026 8.96C14.512 9.12133 14.3286 9.34867 14.1526 9.642C13.9766 9.92067 13.83 10.258 13.7126 10.654C13.5953 11.0353 13.5366 11.4533 13.5366 11.908C13.5366 12.2893 13.6026 12.634 13.7346 12.942C13.8813 13.25 14.0646 13.514 14.2846 13.734C14.5046 13.9393 14.7613 14.1007 15.0546 14.218C15.348 14.3353 15.6486 14.394 15.9566 14.394C16.1766 14.394 16.4113 14.35 16.6606 14.262C16.9246 14.1593 17.1666 14.0567 17.3866 13.954C17.6213 13.8367 17.8193 13.734 17.9806 13.646C18.1566 13.5433 18.2666 13.492 18.3106 13.492C18.3546 13.492 18.3986 13.514 18.4426 13.558C18.5013 13.602 18.538 13.646 18.5526 13.69ZM25.0566 13.096C25.0566 13.3453 24.9686 13.5653 24.7926 13.756C24.6312 13.932 24.4186 14.086 24.1546 14.218C23.9052 14.3353 23.6266 14.4307 23.3186 14.504C23.0106 14.5773 22.7172 14.636 22.4386 14.68C22.1599 14.7093 21.9106 14.7313 21.6906 14.746C21.4852 14.746 21.3532 14.746 21.2946 14.746C20.9719 14.746 20.7226 14.6947 20.5466 14.592C20.3706 14.4893 20.2826 14.306 20.2826 14.042C20.2826 13.954 20.2899 13.8807 20.3046 13.822C20.3192 13.7487 20.3779 13.712 20.4806 13.712C20.5246 13.712 20.5979 13.7267 20.7006 13.756C20.8032 13.7707 20.8839 13.778 20.9426 13.778C21.0012 13.778 21.1846 13.7707 21.4926 13.756C21.8152 13.7267 22.1526 13.6827 22.5046 13.624C22.8712 13.5653 23.1939 13.4847 23.4726 13.382C23.7659 13.2647 23.9126 13.118 23.9126 12.942C23.9126 12.9127 23.7586 12.8247 23.4506 12.678C23.1572 12.5167 22.7099 12.2527 22.1086 11.886C21.6392 11.5927 21.3092 11.2993 21.1186 11.006C20.9279 10.698 20.8326 10.2873 20.8326 9.774C20.8326 9.45133 20.8986 9.18733 21.0306 8.982C21.1772 8.77667 21.3679 8.61533 21.6026 8.498C21.8519 8.38067 22.1306 8.3 22.4386 8.256C22.7612 8.19733 23.0986 8.168 23.4506 8.168C23.4799 8.168 23.5679 8.18267 23.7146 8.212C23.8759 8.24133 24.0446 8.29267 24.2206 8.366C24.3966 8.42467 24.5506 8.50533 24.6826 8.608C24.8292 8.696 24.9026 8.79867 24.9026 8.916C24.9026 8.94533 24.8732 8.98933 24.8146 9.048C24.7706 9.10667 24.6899 9.21667 24.5726 9.378C24.5286 9.36333 24.4479 9.34133 24.3306 9.312C24.2279 9.28267 24.1032 9.25333 23.9566 9.224C23.8246 9.18 23.6852 9.15067 23.5386 9.136C23.3919 9.10667 23.2746 9.092 23.1866 9.092C22.8052 9.092 22.4972 9.16533 22.2626 9.312C22.0279 9.444 21.9106 9.708 21.9106 10.104C21.9106 10.2947 21.9839 10.4707 22.1306 10.632C22.2919 10.7933 22.4899 10.9473 22.7246 11.094C22.9592 11.226 23.2086 11.3653 23.4726 11.512C23.7512 11.644 24.0079 11.7907 24.2426 11.952C24.4772 12.1133 24.6679 12.2893 24.8146 12.48C24.9759 12.656 25.0566 12.8613 25.0566 13.096ZM41.284 11.622C41.284 12.282 41.2033 12.8613 41.042 13.36C40.8953 13.8587 40.712 14.2767 40.492 14.614C40.272 14.9367 40.0446 15.1787 39.81 15.34C39.59 15.5013 39.4066 15.582 39.26 15.582C39.0546 15.582 38.8566 15.494 38.666 15.318C38.4753 15.1273 38.38 14.9513 38.38 14.79C38.38 14.5553 38.4753 14.438 38.666 14.438C38.7393 14.438 38.8126 14.4673 38.886 14.526C38.9593 14.57 39.0253 14.6067 39.084 14.636C39.3333 14.4307 39.568 14.0933 39.788 13.624C40.0226 13.1547 40.14 12.4873 40.14 11.622C40.14 11.27 40.1033 10.9547 40.03 10.676C39.9566 10.3973 39.8686 10.1627 39.766 9.972C39.678 9.78133 39.5826 9.63467 39.48 9.532C39.3773 9.42933 39.304 9.378 39.26 9.378C39.1133 9.378 38.9666 9.52467 38.82 9.818C38.688 10.1113 38.5706 10.4487 38.468 10.83C38.3653 11.1967 38.2773 11.5633 38.204 11.93C38.1453 12.282 38.116 12.524 38.116 12.656C38.1306 12.744 38.1453 12.8247 38.16 12.898C38.1746 12.9713 38.1893 13.0447 38.204 13.118C38.2186 13.1913 38.226 13.2647 38.226 13.338C38.226 13.6167 38.1306 13.866 37.94 14.086C37.7493 14.306 37.566 14.416 37.39 14.416C37.302 14.416 37.2286 14.3573 37.17 14.24C37.126 14.108 37.0893 13.9467 37.06 13.756C37.0306 13.5653 37.0013 13.3673 36.972 13.162C36.9573 12.9567 36.9353 12.7733 36.906 12.612C36.7886 12.348 36.6346 11.93 36.444 11.358C36.2533 10.786 36.048 10.1773 35.828 9.532C35.6226 8.872 35.4246 8.234 35.234 7.618C35.058 7.002 34.926 6.51067 34.838 6.144C34.6326 5.352 34.4786 4.66267 34.376 4.076C34.2586 3.47467 34.1706 2.954 34.112 2.514C34.0386 2.05933 33.9946 1.67067 33.98 1.348C33.9653 1.02533 33.958 0.754 33.958 0.534C33.958 0.402 34.0166 0.299333 34.134 0.226C34.2366 0.152666 34.332 0.115999 34.42 0.115999C34.552 0.115999 34.6473 0.145332 34.706 0.203999C34.7646 0.247999 34.8086 0.350666 34.838 0.511999C34.8526 0.673333 34.8746 0.907999 34.904 1.216C34.9186 1.524 34.9553 1.93467 35.014 2.448C35.0433 2.69733 35.0946 3.042 35.168 3.482C35.256 3.922 35.366 4.41333 35.498 4.956C35.63 5.49867 35.7693 6.07067 35.916 6.672C36.0773 7.25867 36.2386 7.82333 36.4 8.366C36.576 8.90867 36.7446 9.40733 36.906 9.862C37.082 10.3167 37.2433 10.676 37.39 10.94C37.522 10.412 37.6833 9.93533 37.874 9.51C38.0353 9.158 38.2333 8.83533 38.468 8.542C38.7026 8.234 38.9886 8.08 39.326 8.08C39.458 8.08 39.634 8.13867 39.854 8.256C40.074 8.37333 40.2866 8.57133 40.492 8.85C40.712 9.12867 40.8953 9.49533 41.042 9.95C41.2033 10.4047 41.284 10.962 41.284 11.622ZM50.5692 12.348C50.5692 12.48 50.4812 12.6193 50.3052 12.766C50.1292 12.9127 49.9238 13.052 49.6892 13.184C49.4545 13.3013 49.2125 13.404 48.9632 13.492C48.7285 13.58 48.5525 13.624 48.4352 13.624C48.3032 13.624 48.1565 13.5873 47.9952 13.514C47.8485 13.4407 47.7018 13.3527 47.5552 13.25C47.4232 13.1473 47.3058 13.052 47.2032 12.964C47.1005 12.876 47.0345 12.8173 47.0052 12.788C46.9612 12.832 46.8952 12.92 46.8072 13.052C46.7192 13.184 46.6092 13.3307 46.4772 13.492C46.3598 13.6387 46.2278 13.7707 46.0812 13.888C45.9492 14.0053 45.8098 14.064 45.6632 14.064C45.2818 14.064 44.9518 13.8587 44.6732 13.448C44.3945 13.0373 44.1598 12.568 43.9692 12.04C43.7932 11.512 43.6538 11.006 43.5512 10.522C43.4632 10.0233 43.4192 9.686 43.4192 9.51C43.4192 9.40733 43.4705 9.32667 43.5732 9.268C43.6905 9.19467 43.7785 9.158 43.8372 9.158C44.0425 9.158 44.1818 9.23133 44.2552 9.378C44.3285 9.51 44.3652 9.65667 44.3652 9.818C44.3652 9.95 44.4018 10.1847 44.4752 10.522C44.5632 10.8593 44.6658 11.204 44.7832 11.556C44.9005 11.908 45.0252 12.2233 45.1572 12.502C45.2892 12.766 45.4065 12.898 45.5092 12.898C45.6998 12.898 45.8612 12.7807 45.9932 12.546C46.1398 12.2967 46.2572 12.018 46.3452 11.71C46.4332 11.3873 46.4992 11.0867 46.5432 10.808C46.5872 10.5147 46.6092 10.324 46.6092 10.236C46.6092 10.2213 46.6092 10.1773 46.6092 10.104C46.6238 10.016 46.6385 9.928 46.6532 9.84C46.6678 9.752 46.6752 9.67133 46.6752 9.598C46.6898 9.52467 46.6972 9.47333 46.6972 9.444C46.6972 9.34133 46.6752 9.27533 46.6312 9.246C46.5872 9.202 46.5652 9.12133 46.5652 9.004C46.5652 8.916 46.6092 8.83533 46.6972 8.762C46.7852 8.674 46.9758 8.63 47.2692 8.63C47.3865 8.63 47.4745 8.66667 47.5332 8.74C47.6065 8.79867 47.6578 8.872 47.6872 8.96C47.7165 9.048 47.7312 9.136 47.7312 9.224C47.7458 9.29733 47.7532 9.34867 47.7532 9.378C47.7532 9.39267 47.7458 9.49533 47.7312 9.686C47.7165 9.87667 47.7018 10.0893 47.6872 10.324C47.6872 10.544 47.6798 10.7567 47.6652 10.962C47.6505 11.1673 47.6432 11.292 47.6432 11.336C47.6432 11.38 47.6652 11.468 47.7092 11.6C47.7532 11.732 47.8045 11.8713 47.8632 12.018C47.9365 12.15 48.0172 12.2747 48.1052 12.392C48.1932 12.4947 48.2885 12.546 48.3912 12.546C48.5672 12.546 48.7285 12.524 48.8752 12.48C49.0365 12.4213 49.1832 12.3627 49.3152 12.304C49.4618 12.2307 49.5938 12.172 49.7112 12.128C49.8285 12.0693 49.9385 12.04 50.0412 12.04C50.1732 12.04 50.2905 12.0693 50.3932 12.128C50.5105 12.1867 50.5692 12.26 50.5692 12.348ZM56.6443 9.29C56.6443 9.39267 56.6003 9.48067 56.5123 9.554C56.4243 9.61267 56.3216 9.664 56.2043 9.708C56.0869 9.752 55.9696 9.78867 55.8523 9.818C55.7349 9.83267 55.6396 9.84 55.5663 9.84C55.3463 9.84 55.1996 9.82533 55.1263 9.796C55.0529 9.76667 54.9943 9.752 54.9503 9.752C54.5836 9.752 54.2903 9.78133 54.0703 9.84C53.8503 9.89867 53.6743 9.994 53.5423 10.126C53.4249 10.258 53.3443 10.4267 53.3003 10.632C53.2709 10.8227 53.2563 11.0573 53.2563 11.336C53.2563 11.8053 53.2709 12.1793 53.3003 12.458C53.3443 12.7367 53.3809 12.964 53.4103 13.14C53.4543 13.316 53.4909 13.4553 53.5203 13.558C53.5643 13.646 53.5863 13.734 53.5863 13.822C53.5863 13.9393 53.5203 14.064 53.3883 14.196C53.2709 14.328 53.1609 14.394 53.0583 14.394C52.8823 14.394 52.7209 14.24 52.5743 13.932C52.4423 13.6093 52.3249 13.2353 52.2223 12.81C52.1343 12.37 52.0609 11.9373 52.0023 11.512C51.9436 11.0867 51.9143 10.764 51.9143 10.544C51.9143 10.2947 51.9363 10.06 51.9803 9.84C52.0243 9.60533 52.0829 9.40733 52.1563 9.246C52.2296 9.07 52.3103 8.93067 52.3983 8.828C52.4863 8.72533 52.5743 8.674 52.6623 8.674C52.7356 8.674 52.7943 8.70333 52.8383 8.762C52.8823 8.806 52.9189 8.86467 52.9483 8.938C52.9776 8.99667 53.0069 9.05533 53.0363 9.114C53.0803 9.158 53.1316 9.18 53.1903 9.18C53.3223 9.18 53.5349 9.114 53.8283 8.982C54.1216 8.85 54.4809 8.784 54.9063 8.784C55.3023 8.784 55.5956 8.79867 55.7863 8.828C55.9916 8.84267 56.1896 8.88667 56.3803 8.96C56.4243 8.97467 56.4756 9.01133 56.5343 9.07C56.6076 9.114 56.6443 9.18733 56.6443 9.29ZM64.5292 13.69C64.5439 13.7193 64.5512 13.7633 64.5512 13.822C64.5512 13.91 64.4852 14.042 64.3532 14.218C64.3092 14.2767 64.2139 14.372 64.0672 14.504C63.9205 14.636 63.7225 14.768 63.4732 14.9C63.2239 15.032 62.9159 15.1493 62.5492 15.252C62.1972 15.3547 61.7792 15.406 61.2952 15.406C60.9579 15.406 60.6279 15.3327 60.3052 15.186C59.9825 15.0247 59.6965 14.7973 59.4472 14.504C59.1979 14.196 58.9925 13.822 58.8312 13.382C58.6699 12.9273 58.5892 12.3993 58.5892 11.798C58.5892 11.226 58.6625 10.6907 58.8092 10.192C58.9559 9.69333 59.1392 9.25333 59.3592 8.872C59.5939 8.49067 59.8505 8.19 60.1292 7.97C60.4079 7.75 60.6792 7.64 60.9432 7.64C61.1779 7.64 61.4125 7.69133 61.6472 7.794C61.8965 7.882 62.1165 7.99933 62.3072 8.146C62.5125 8.29267 62.6739 8.46133 62.7912 8.652C62.9085 8.828 62.9672 9.01133 62.9672 9.202C62.9672 9.422 62.8645 9.64933 62.6592 9.884C62.4685 10.1187 62.2339 10.3387 61.9552 10.544C61.6765 10.7347 61.3979 10.896 61.1192 11.028C60.8405 11.1453 60.6205 11.204 60.4592 11.204C60.3712 11.204 60.2905 11.1673 60.2172 11.094C60.1585 11.006 60.1292 10.9033 60.1292 10.786C60.1292 10.5807 60.2172 10.4193 60.3932 10.302C60.5839 10.1847 60.7892 10.082 61.0092 9.994C61.2292 9.89133 61.4272 9.774 61.6032 9.642C61.7939 9.51 61.8892 9.32667 61.8892 9.092C61.8892 9.06267 61.8525 8.98933 61.7792 8.872C61.7059 8.75467 61.5079 8.696 61.1852 8.696C61.0385 8.696 60.8699 8.784 60.6792 8.96C60.4885 9.12133 60.3052 9.34867 60.1292 9.642C59.9532 9.92067 59.8065 10.258 59.6892 10.654C59.5719 11.0353 59.5132 11.4533 59.5132 11.908C59.5132 12.2893 59.5792 12.634 59.7112 12.942C59.8579 13.25 60.0412 13.514 60.2612 13.734C60.4812 13.9393 60.7379 14.1007 61.0312 14.218C61.3245 14.3353 61.6252 14.394 61.9332 14.394C62.1532 14.394 62.3879 14.35 62.6372 14.262C62.9012 14.1593 63.1432 14.0567 63.3632 13.954C63.5979 13.8367 63.7959 13.734 63.9572 13.646C64.1332 13.5433 64.2432 13.492 64.2872 13.492C64.3312 13.492 64.3752 13.514 64.4192 13.558C64.4779 13.602 64.5145 13.646 64.5292 13.69ZM76.5331 11.424C76.5331 11.688 76.4085 12.018 76.1591 12.414C75.9245 12.7953 75.6018 13.1693 75.1911 13.536C74.7805 13.9027 74.3038 14.218 73.7611 14.482C73.2185 14.7313 72.6538 14.856 72.0671 14.856C71.8031 14.856 71.5245 14.812 71.2311 14.724C70.9378 14.636 70.6518 14.5113 70.3731 14.35C70.0945 14.174 69.8451 13.9687 69.6251 13.734C69.4051 13.4847 69.2438 13.206 69.1411 12.898C69.0531 12.986 68.9431 13.1327 68.8111 13.338C68.6938 13.5433 68.5618 13.756 68.4151 13.976C68.2685 14.1813 68.1071 14.3647 67.9311 14.526C67.7551 14.6727 67.5718 14.746 67.3811 14.746C67.1905 14.746 67.0291 14.6507 66.8971 14.46C66.7798 14.2547 66.6845 14.0347 66.6111 13.8C66.5378 13.5507 66.4865 13.316 66.4571 13.096C66.4278 12.876 66.4131 12.7513 66.4131 12.722C66.4131 12.546 66.4645 12.216 66.5671 11.732C66.6698 11.2333 66.8238 10.72 67.0291 10.192C67.2345 9.664 67.4911 9.19467 67.7991 8.784C68.1218 8.37333 68.4958 8.168 68.9211 8.168C69.0825 8.168 69.1851 8.24133 69.2291 8.388C69.2878 8.52 69.3171 8.652 69.3171 8.784V9.444C69.3905 9.50267 69.4638 9.54667 69.5371 9.576C69.6251 9.59067 69.6985 9.62 69.7571 9.664C69.8305 9.69333 69.8818 9.74467 69.9111 9.818C69.9551 9.89133 69.9771 10.0087 69.9771 10.17C69.9771 10.2727 69.9698 10.368 69.9551 10.456C69.9405 10.5293 69.9331 10.6027 69.9331 10.676C69.9331 11.0573 69.9625 11.4313 70.0211 11.798C70.0798 12.1647 70.1971 12.4947 70.3731 12.788C70.5491 13.0667 70.7911 13.3013 71.0991 13.492C71.4071 13.668 71.8178 13.756 72.3311 13.756C72.9765 13.756 73.5191 13.624 73.9591 13.36C74.4138 13.0813 74.7878 12.7807 75.0811 12.458C75.3891 12.1207 75.6311 11.82 75.8071 11.556C75.9831 11.2773 76.1298 11.138 76.2471 11.138C76.4378 11.138 76.5331 11.2333 76.5331 11.424ZM68.8111 10.456C68.8111 10.3973 68.7965 10.346 68.7671 10.302C68.7378 10.2433 68.7231 10.192 68.7231 10.148C68.7231 10.0893 68.7378 10.038 68.7671 9.994C68.7965 9.95 68.8111 9.89133 68.8111 9.818C68.8111 9.774 68.7965 9.74467 68.7671 9.73C68.7378 9.70067 68.7231 9.67133 68.7231 9.642C68.5911 9.67133 68.4518 9.796 68.3051 10.016C68.1731 10.236 68.0411 10.4927 67.9091 10.786C67.7918 11.0793 67.6965 11.38 67.6231 11.688C67.5498 11.9813 67.5131 12.2233 67.5131 12.414C67.5131 12.5167 67.5425 12.6853 67.6011 12.92C67.6598 13.1547 67.7258 13.3087 67.7991 13.382C68.0485 12.8687 68.2758 12.37 68.4811 11.886C68.7011 11.402 68.8111 10.9253 68.8111 10.456ZM84.0418 12.348C84.0418 12.48 83.9538 12.6193 83.7778 12.766C83.6018 12.9127 83.3965 13.052 83.1618 13.184C82.9272 13.3013 82.6852 13.404 82.4358 13.492C82.2012 13.58 82.0252 13.624 81.9078 13.624C81.7758 13.624 81.6292 13.5873 81.4678 13.514C81.3212 13.4407 81.1745 13.3527 81.0278 13.25C80.8958 13.1473 80.7785 13.052 80.6758 12.964C80.5732 12.876 80.5072 12.8173 80.4778 12.788C80.4338 12.832 80.3678 12.92 80.2798 13.052C80.1918 13.184 80.0818 13.3307 79.9498 13.492C79.8325 13.6387 79.7005 13.7707 79.5538 13.888C79.4218 14.0053 79.2825 14.064 79.1358 14.064C78.7545 14.064 78.4245 13.8587 78.1458 13.448C77.8672 13.0373 77.6325 12.568 77.4418 12.04C77.2658 11.512 77.1265 11.006 77.0238 10.522C76.9358 10.0233 76.8918 9.686 76.8918 9.51C76.8918 9.40733 76.9432 9.32667 77.0458 9.268C77.1632 9.19467 77.2512 9.158 77.3098 9.158C77.5152 9.158 77.6545 9.23133 77.7278 9.378C77.8012 9.51 77.8378 9.65667 77.8378 9.818C77.8378 9.95 77.8745 10.1847 77.9478 10.522C78.0358 10.8593 78.1385 11.204 78.2558 11.556C78.3732 11.908 78.4978 12.2233 78.6298 12.502C78.7618 12.766 78.8792 12.898 78.9818 12.898C79.1725 12.898 79.3338 12.7807 79.4658 12.546C79.6125 12.2967 79.7298 12.018 79.8178 11.71C79.9058 11.3873 79.9718 11.0867 80.0158 10.808C80.0598 10.5147 80.0818 10.324 80.0818 10.236C80.0818 10.2213 80.0818 10.1773 80.0818 10.104C80.0965 10.016 80.1112 9.928 80.1258 9.84C80.1405 9.752 80.1478 9.67133 80.1478 9.598C80.1625 9.52467 80.1698 9.47333 80.1698 9.444C80.1698 9.34133 80.1478 9.27533 80.1038 9.246C80.0598 9.202 80.0378 9.12133 80.0378 9.004C80.0378 8.916 80.0818 8.83533 80.1698 8.762C80.2578 8.674 80.4485 8.63 80.7418 8.63C80.8592 8.63 80.9472 8.66667 81.0058 8.74C81.0792 8.79867 81.1305 8.872 81.1598 8.96C81.1892 9.048 81.2038 9.136 81.2038 9.224C81.2185 9.29733 81.2258 9.34867 81.2258 9.378C81.2258 9.39267 81.2185 9.49533 81.2038 9.686C81.1892 9.87667 81.1745 10.0893 81.1598 10.324C81.1598 10.544 81.1525 10.7567 81.1378 10.962C81.1232 11.1673 81.1158 11.292 81.1158 11.336C81.1158 11.38 81.1378 11.468 81.1818 11.6C81.2258 11.732 81.2772 11.8713 81.3358 12.018C81.4092 12.15 81.4898 12.2747 81.5778 12.392C81.6658 12.4947 81.7612 12.546 81.8638 12.546C82.0398 12.546 82.2012 12.524 82.3478 12.48C82.5092 12.4213 82.6558 12.3627 82.7878 12.304C82.9345 12.2307 83.0665 12.172 83.1838 12.128C83.3012 12.0693 83.4112 12.04 83.5138 12.04C83.6458 12.04 83.7632 12.0693 83.8658 12.128C83.9832 12.1867 84.0418 12.26 84.0418 12.348ZM91.3489 13.954C91.3489 14.2327 91.2609 14.4233 91.0849 14.526C90.9236 14.6287 90.7476 14.68 90.5569 14.68C90.2196 14.68 89.8383 14.5333 89.4129 14.24C88.9876 13.932 88.5403 13.5873 88.0709 13.206C88.0563 13.2353 88.0123 13.3967 87.9389 13.69C87.8803 13.9687 87.7923 14.2767 87.6749 14.614C87.5723 14.9513 87.4403 15.2593 87.2789 15.538C87.1176 15.8167 86.9343 15.956 86.7289 15.956C86.5823 15.956 86.4649 15.9047 86.3769 15.802C86.2889 15.6847 86.2449 15.604 86.2449 15.56C86.2449 15.4573 86.2963 15.2667 86.3989 14.988C86.5016 14.6947 86.6116 14.3867 86.7289 14.064C86.8463 13.7267 86.9563 13.4113 87.0589 13.118C87.1616 12.8247 87.2129 12.612 87.2129 12.48C87.2129 12.4213 87.0956 12.238 86.8609 11.93C86.6263 11.622 86.3696 11.2627 86.0909 10.852C85.8123 10.4267 85.5556 9.97933 85.3209 9.51C85.0863 9.04067 84.9689 8.608 84.9689 8.212C84.9689 8.10933 85.0129 8.00667 85.1009 7.904C85.1889 7.80133 85.2696 7.75 85.3429 7.75C85.4309 7.75 85.5483 7.78667 85.6949 7.86C85.8563 7.91867 85.9516 8.00667 85.9809 8.124C86.1276 8.608 86.3183 9.12867 86.5529 9.686C86.7876 10.2287 87.1396 10.7567 87.6089 11.27C87.6529 11.1087 87.7043 10.8887 87.7629 10.61C87.8216 10.3313 87.8876 10.0307 87.9609 9.708C88.0343 9.38533 88.1076 9.06267 88.1809 8.74C88.2689 8.41733 88.3496 8.124 88.4229 7.86C88.5109 7.596 88.5916 7.38333 88.6649 7.222C88.7383 7.06067 88.8116 6.98 88.8849 6.98C88.9583 6.98 89.0683 7.00933 89.2149 7.068C89.3763 7.112 89.4569 7.21467 89.4569 7.376C89.4569 7.376 89.4349 7.50067 89.3909 7.75C89.3469 7.98467 89.2883 8.27067 89.2149 8.608C89.1416 8.94533 89.0609 9.312 88.9729 9.708C88.8849 10.0893 88.7969 10.434 88.7089 10.742C88.6943 10.786 88.6649 10.8667 88.6209 10.984C88.5916 11.1013 88.5549 11.226 88.5109 11.358C88.4816 11.49 88.4523 11.6147 88.4229 11.732C88.3936 11.8347 88.3789 11.9007 88.3789 11.93C88.3789 12.062 88.4816 12.2233 88.6869 12.414C88.9069 12.59 89.1489 12.766 89.4129 12.942C89.6769 13.1033 89.9263 13.2427 90.1609 13.36C90.4103 13.4773 90.5643 13.536 90.6229 13.536C90.6669 13.536 90.7256 13.5287 90.7989 13.514C90.8723 13.4993 90.9309 13.492 90.9749 13.492C91.0923 13.492 91.1803 13.558 91.2389 13.69C91.3123 13.822 91.3489 13.91 91.3489 13.954ZM108.338 12.458C108.338 12.5313 108.302 12.6047 108.228 12.678C108.17 12.7367 108.133 12.8027 108.118 12.876C108.118 13.0373 108.148 13.1913 108.206 13.338C108.28 13.4847 108.316 13.6607 108.316 13.866C108.316 14.0567 108.258 14.152 108.14 14.152C107.994 14.152 107.884 14.174 107.81 14.218C107.752 14.2473 107.642 14.2767 107.48 14.306C107.392 14.306 107.297 14.2253 107.194 14.064C107.136 13.9907 107.084 13.9027 107.04 13.8C107.04 13.7853 106.996 13.8147 106.908 13.888C106.835 13.9613 106.703 14.0493 106.512 14.152C106.336 14.24 106.087 14.328 105.764 14.416C105.456 14.4893 105.06 14.526 104.576 14.526C104.166 14.526 103.806 14.438 103.498 14.262C103.19 14.0713 102.934 13.8293 102.728 13.536C102.538 13.2427 102.391 12.9127 102.288 12.546C102.2 12.1647 102.156 11.7833 102.156 11.402C102.156 11.05 102.193 10.72 102.266 10.412C102.354 10.0893 102.472 9.81067 102.618 9.576C102.765 9.32667 102.948 9.12867 103.168 8.982C103.388 8.83533 103.645 8.762 103.938 8.762C104.217 8.762 104.496 8.85 104.774 9.026C105.053 9.202 105.302 9.39267 105.522 9.598C105.742 9.80333 105.918 9.994 106.05 10.17C106.197 10.3313 106.27 10.412 106.27 10.412C106.065 9.268 105.882 8.234 105.72 7.31C105.647 6.914 105.574 6.52533 105.5 6.144C105.442 5.748 105.383 5.396 105.324 5.088C105.266 4.78 105.214 4.52333 105.17 4.318C105.141 4.098 105.126 3.966 105.126 3.922C105.112 3.834 105.097 3.68 105.082 3.46C105.068 3.22533 105.053 2.98333 105.038 2.734C105.024 2.48467 105.009 2.25733 104.994 2.052C104.98 1.84667 104.965 1.71467 104.95 1.656C104.906 1.50933 104.848 1.326 104.774 1.106C104.716 0.885999 104.686 0.761333 104.686 0.732C104.686 0.658666 104.723 0.570666 104.796 0.467999C104.87 0.350666 104.965 0.291999 105.082 0.291999C105.17 0.291999 105.251 0.299332 105.324 0.313999C105.398 0.328666 105.464 0.372666 105.522 0.446C105.581 0.519333 105.632 0.636666 105.676 0.797999C105.735 0.944666 105.786 1.15733 105.83 1.436C105.845 1.58267 105.889 1.86133 105.962 2.272C106.036 2.68267 106.109 3.13 106.182 3.614C106.256 4.098 106.329 4.56 106.402 5C106.476 5.44 106.527 5.76267 106.556 5.968C106.63 6.52533 106.725 7.134 106.842 7.794C106.974 8.43933 107.106 9.06267 107.238 9.664C107.37 10.2653 107.502 10.8007 107.634 11.27C107.766 11.7247 107.884 12.0327 107.986 12.194C108.016 12.2527 108.074 12.2967 108.162 12.326C108.25 12.3407 108.309 12.3847 108.338 12.458ZM106.71 12.898C106.696 12.854 106.6 12.6707 106.424 12.348C106.263 12.0107 106.05 11.6513 105.786 11.27C105.537 10.874 105.251 10.522 104.928 10.214C104.62 9.906 104.32 9.752 104.026 9.752C103.777 9.752 103.572 9.94267 103.41 10.324C103.264 10.7053 103.19 11.1453 103.19 11.644C103.19 12.2013 103.352 12.6487 103.674 12.986C104.012 13.3233 104.386 13.492 104.796 13.492C105.148 13.492 105.515 13.4333 105.896 13.316C106.278 13.1987 106.549 13.0593 106.71 12.898ZM116.156 13.69C116.171 13.7193 116.178 13.7633 116.178 13.822C116.178 13.91 116.112 14.042 115.98 14.218C115.936 14.2767 115.841 14.372 115.694 14.504C115.547 14.636 115.349 14.768 115.1 14.9C114.851 15.032 114.543 15.1493 114.176 15.252C113.824 15.3547 113.406 15.406 112.922 15.406C112.585 15.406 112.255 15.3327 111.932 15.186C111.609 15.0247 111.323 14.7973 111.074 14.504C110.825 14.196 110.619 13.822 110.458 13.382C110.297 12.9273 110.216 12.3993 110.216 11.798C110.216 11.226 110.289 10.6907 110.436 10.192C110.583 9.69333 110.766 9.25333 110.986 8.872C111.221 8.49067 111.477 8.19 111.756 7.97C112.035 7.75 112.306 7.64 112.57 7.64C112.805 7.64 113.039 7.69133 113.274 7.794C113.523 7.882 113.743 7.99933 113.934 8.146C114.139 8.29267 114.301 8.46133 114.418 8.652C114.535 8.828 114.594 9.01133 114.594 9.202C114.594 9.422 114.491 9.64933 114.286 9.884C114.095 10.1187 113.861 10.3387 113.582 10.544C113.303 10.7347 113.025 10.896 112.746 11.028C112.467 11.1453 112.247 11.204 112.086 11.204C111.998 11.204 111.917 11.1673 111.844 11.094C111.785 11.006 111.756 10.9033 111.756 10.786C111.756 10.5807 111.844 10.4193 112.02 10.302C112.211 10.1847 112.416 10.082 112.636 9.994C112.856 9.89133 113.054 9.774 113.23 9.642C113.421 9.51 113.516 9.32667 113.516 9.092C113.516 9.06267 113.479 8.98933 113.406 8.872C113.333 8.75467 113.135 8.696 112.812 8.696C112.665 8.696 112.497 8.784 112.306 8.96C112.115 9.12133 111.932 9.34867 111.756 9.642C111.58 9.92067 111.433 10.258 111.316 10.654C111.199 11.0353 111.14 11.4533 111.14 11.908C111.14 12.2893 111.206 12.634 111.338 12.942C111.485 13.25 111.668 13.514 111.888 13.734C112.108 13.9393 112.365 14.1007 112.658 14.218C112.951 14.3353 113.252 14.394 113.56 14.394C113.78 14.394 114.015 14.35 114.264 14.262C114.528 14.1593 114.77 14.0567 114.99 13.954C115.225 13.8367 115.423 13.734 115.584 13.646C115.76 13.5433 115.87 13.492 115.914 13.492C115.958 13.492 116.002 13.514 116.046 13.558C116.105 13.602 116.141 13.646 116.156 13.69ZM131.087 8.256C131.087 8.3 131.051 8.49067 130.977 8.828C130.904 9.16533 130.831 9.54667 130.757 9.972C130.713 10.2213 130.64 10.5953 130.537 11.094C130.449 11.578 130.405 12.3187 130.405 13.316C130.405 13.3453 130.398 13.426 130.383 13.558C130.383 13.6753 130.361 13.8 130.317 13.932C130.288 14.064 130.237 14.1887 130.163 14.306C130.09 14.4087 129.98 14.46 129.833 14.46C129.701 14.46 129.555 14.4013 129.393 14.284C129.027 14.02 128.689 13.712 128.381 13.36C128.073 13.008 127.809 12.6267 127.589 12.216C127.369 11.7907 127.201 11.3507 127.083 10.896C126.966 10.4413 126.907 9.97933 126.907 9.51C126.907 9.45133 126.944 9.4 127.017 9.356C127.105 9.29733 127.171 9.268 127.215 9.268C127.435 9.268 127.604 9.39267 127.721 9.642C127.853 9.89133 127.978 10.192 128.095 10.544C128.227 10.896 128.374 11.27 128.535 11.666C128.711 12.0473 128.968 12.3773 129.305 12.656C129.349 12.5973 129.386 12.4873 129.415 12.326C129.445 12.1647 129.467 12.0253 129.481 11.908C129.496 11.8053 129.518 11.6073 129.547 11.314C129.577 11.006 129.606 10.6833 129.635 10.346C129.679 10.0087 129.709 9.686 129.723 9.378C129.753 9.07 129.767 8.85733 129.767 8.74C129.767 8.652 129.775 8.54933 129.789 8.432C129.804 8.31467 129.833 8.20467 129.877 8.102C129.936 7.99933 130.009 7.91133 130.097 7.838C130.185 7.76467 130.303 7.728 130.449 7.728C130.523 7.728 130.647 7.77933 130.823 7.882C130.999 7.97 131.087 8.09467 131.087 8.256ZM136.966 11.248C136.966 11.5707 136.922 11.8787 136.834 12.172C136.746 12.4653 136.629 12.722 136.482 12.942C136.336 13.162 136.16 13.338 135.954 13.47C135.764 13.5873 135.551 13.646 135.316 13.646C134.906 13.646 134.583 13.5287 134.348 13.294C134.114 13.0593 133.93 12.788 133.798 12.48C133.681 12.172 133.6 11.864 133.556 11.556C133.527 11.2333 133.512 10.9913 133.512 10.83C133.512 10.566 133.549 10.2727 133.622 9.95C133.71 9.61267 133.82 9.30467 133.952 9.026C134.099 8.74733 134.26 8.51267 134.436 8.322C134.612 8.13133 134.796 8.036 134.986 8.036C135.03 8.036 135.096 8.05067 135.184 8.08C135.287 8.10933 135.39 8.15333 135.492 8.212C135.595 8.27067 135.683 8.344 135.756 8.432C135.844 8.52 135.903 8.62267 135.932 8.74C136.094 8.75467 136.255 8.81333 136.416 8.916C136.578 9.01867 136.666 9.09933 136.68 9.158C136.798 9.53933 136.871 9.92067 136.9 10.302C136.944 10.6833 136.966 10.9987 136.966 11.248ZM135.976 10.852C135.976 10.632 135.954 10.4047 135.91 10.17C135.866 9.92067 135.778 9.67133 135.646 9.422C135.617 9.43667 135.58 9.444 135.536 9.444C135.478 9.444 135.426 9.43667 135.382 9.422C135.353 9.40733 135.324 9.4 135.294 9.4C135.118 9.4 134.979 9.45133 134.876 9.554C134.774 9.642 134.693 9.76667 134.634 9.928C134.59 10.0747 134.561 10.236 134.546 10.412C134.532 10.588 134.524 10.7567 134.524 10.918C134.524 11.0793 134.532 11.2627 134.546 11.468C134.561 11.6587 134.59 11.842 134.634 12.018C134.693 12.194 134.766 12.348 134.854 12.48C134.942 12.5973 135.06 12.656 135.206 12.656C135.353 12.656 135.478 12.5827 135.58 12.436C135.683 12.2747 135.764 12.0913 135.822 11.886C135.881 11.6807 135.918 11.4827 135.932 11.292C135.962 11.0867 135.976 10.94 135.976 10.852ZM145.024 6.056C144.834 6.276 144.562 6.496 144.21 6.716C143.858 6.92133 143.506 7.112 143.154 7.288C142.802 7.464 142.494 7.618 142.23 7.75C141.966 7.86733 141.834 7.948 141.834 7.992C141.834 8.036 141.864 8.168 141.922 8.388C141.981 8.608 142.047 8.872 142.12 9.18C142.208 9.47333 142.296 9.78133 142.384 10.104C142.472 10.4267 142.546 10.7127 142.604 10.962C142.634 11.1087 142.67 11.2993 142.714 11.534C142.758 11.7687 142.795 12.0033 142.824 12.238C142.868 12.4727 142.905 12.6853 142.934 12.876C142.964 13.052 142.978 13.1473 142.978 13.162C142.978 13.382 142.942 13.6093 142.868 13.844C142.795 14.0787 142.678 14.196 142.516 14.196C142.428 14.196 142.348 14.1593 142.274 14.086C142.201 14.0127 142.135 13.932 142.076 13.844C142.018 13.7413 141.974 13.646 141.944 13.558C141.915 13.47 141.9 13.404 141.9 13.36C141.9 13.3307 141.9 13.2867 141.9 13.228C141.915 13.1693 141.922 13.1033 141.922 13.03C141.922 12.7513 141.878 12.348 141.79 11.82C141.761 11.6587 141.702 11.4093 141.614 11.072C141.526 10.7347 141.438 10.39 141.35 10.038C141.248 9.62733 141.13 9.18 140.998 8.696C140.94 8.49067 140.903 8.388 140.888 8.388C140.786 8.388 140.61 8.454 140.36 8.586C140.126 8.70333 139.854 8.85733 139.546 9.048C139.238 9.224 138.916 9.422 138.578 9.642C138.241 9.84733 137.926 10.0453 137.632 10.236C137.339 10.412 137.09 10.566 136.884 10.698C136.664 10.8153 136.532 10.874 136.488 10.874C136.298 10.874 136.144 10.808 136.026 10.676C135.909 10.544 135.85 10.3973 135.85 10.236C135.85 10.148 135.975 10.0233 136.224 9.862C136.459 9.686 136.76 9.49533 137.126 9.29C137.478 9.08467 137.867 8.872 138.292 8.652C138.703 8.432 139.084 8.234 139.436 8.058C139.803 7.882 140.104 7.73533 140.338 7.618C140.588 7.50067 140.712 7.442 140.712 7.442C140.58 6.76733 140.47 6.166 140.382 5.638C140.309 5.18333 140.236 4.76533 140.162 4.384C140.104 4.00267 140.074 3.79733 140.074 3.768C140.074 3.57733 140.111 3.438 140.184 3.35C140.272 3.24733 140.368 3.196 140.47 3.196C140.632 3.196 140.734 3.306 140.778 3.526C140.94 4.318 141.086 5.022 141.218 5.638C141.365 6.254 141.504 6.75267 141.636 7.134C141.768 7.10467 141.996 7.024 142.318 6.892C142.641 6.74533 142.978 6.59133 143.33 6.43C143.682 6.26867 143.998 6.12933 144.276 6.012C144.57 5.88 144.738 5.814 144.782 5.814C144.87 5.814 144.922 5.84333 144.936 5.902C144.966 5.96067 144.995 6.012 145.024 6.056ZM152.336 13.69C152.351 13.7193 152.358 13.7633 152.358 13.822C152.358 13.91 152.292 14.042 152.16 14.218C152.116 14.2767 152.021 14.372 151.874 14.504C151.727 14.636 151.529 14.768 151.28 14.9C151.031 15.032 150.723 15.1493 150.356 15.252C150.004 15.3547 149.586 15.406 149.102 15.406C148.765 15.406 148.435 15.3327 148.112 15.186C147.789 15.0247 147.503 14.7973 147.254 14.504C147.005 14.196 146.799 13.822 146.638 13.382C146.477 12.9273 146.396 12.3993 146.396 11.798C146.396 11.226 146.469 10.6907 146.616 10.192C146.763 9.69333 146.946 9.25333 147.166 8.872C147.401 8.49067 147.657 8.19 147.936 7.97C148.215 7.75 148.486 7.64 148.75 7.64C148.985 7.64 149.219 7.69133 149.454 7.794C149.703 7.882 149.923 7.99933 150.114 8.146C150.319 8.29267 150.481 8.46133 150.598 8.652C150.715 8.828 150.774 9.01133 150.774 9.202C150.774 9.422 150.671 9.64933 150.466 9.884C150.275 10.1187 150.041 10.3387 149.762 10.544C149.483 10.7347 149.205 10.896 148.926 11.028C148.647 11.1453 148.427 11.204 148.266 11.204C148.178 11.204 148.097 11.1673 148.024 11.094C147.965 11.006 147.936 10.9033 147.936 10.786C147.936 10.5807 148.024 10.4193 148.2 10.302C148.391 10.1847 148.596 10.082 148.816 9.994C149.036 9.89133 149.234 9.774 149.41 9.642C149.601 9.51 149.696 9.32667 149.696 9.092C149.696 9.06267 149.659 8.98933 149.586 8.872C149.513 8.75467 149.315 8.696 148.992 8.696C148.845 8.696 148.677 8.784 148.486 8.96C148.295 9.12133 148.112 9.34867 147.936 9.642C147.76 9.92067 147.613 10.258 147.496 10.654C147.379 11.0353 147.32 11.4533 147.32 11.908C147.32 12.2893 147.386 12.634 147.518 12.942C147.665 13.25 147.848 13.514 148.068 13.734C148.288 13.9393 148.545 14.1007 148.838 14.218C149.131 14.3353 149.432 14.394 149.74 14.394C149.96 14.394 150.195 14.35 150.444 14.262C150.708 14.1593 150.95 14.0567 151.17 13.954C151.405 13.8367 151.603 13.734 151.764 13.646C151.94 13.5433 152.05 13.492 152.094 13.492C152.138 13.492 152.182 13.514 152.226 13.558C152.285 13.602 152.321 13.646 152.336 13.69ZM165.925 15.362C165.925 15.4793 165.881 15.5673 165.793 15.626C165.705 15.6847 165.602 15.714 165.485 15.714C165.353 15.714 165.214 15.5893 165.067 15.34C164.935 15.0907 164.803 14.7753 164.671 14.394C164.539 14.0127 164.414 13.602 164.297 13.162C164.18 12.7073 164.077 12.2893 163.989 11.908C163.901 11.512 163.828 11.182 163.769 10.918C163.725 10.654 163.703 10.5073 163.703 10.478C163.703 10.4193 163.674 10.2653 163.615 10.016C163.571 9.76667 163.505 9.378 163.417 8.85C163.344 8.322 163.256 7.64 163.153 6.804C163.065 5.95333 162.97 4.90467 162.867 3.658C162.867 3.526 162.889 3.35733 162.933 3.152C162.977 2.94667 163.08 2.844 163.241 2.844C163.446 2.844 163.6 2.98333 163.703 3.262C163.82 3.54067 163.908 3.88533 163.967 4.296C164.04 4.70667 164.092 5.13933 164.121 5.594C164.15 6.034 164.187 6.42267 164.231 6.76C164.29 7.22933 164.341 7.65467 164.385 8.036C164.444 8.41733 164.495 8.79867 164.539 9.18C164.598 9.54667 164.664 9.93533 164.737 10.346C164.825 10.7567 164.928 11.2113 165.045 11.71L165.925 15.362ZM173.756 13.69C173.77 13.7193 173.778 13.7633 173.778 13.822C173.778 13.91 173.712 14.042 173.58 14.218C173.536 14.2767 173.44 14.372 173.294 14.504C173.147 14.636 172.949 14.768 172.7 14.9C172.45 15.032 172.142 15.1493 171.776 15.252C171.424 15.3547 171.006 15.406 170.522 15.406C170.184 15.406 169.854 15.3327 169.532 15.186C169.209 15.0247 168.923 14.7973 168.674 14.504C168.424 14.196 168.219 13.822 168.058 13.382C167.896 12.9273 167.816 12.3993 167.816 11.798C167.816 11.226 167.889 10.6907 168.036 10.192C168.182 9.69333 168.366 9.25333 168.586 8.872C168.82 8.49067 169.077 8.19 169.356 7.97C169.634 7.75 169.906 7.64 170.17 7.64C170.404 7.64 170.639 7.69133 170.874 7.794C171.123 7.882 171.343 7.99933 171.534 8.146C171.739 8.29267 171.9 8.46133 172.018 8.652C172.135 8.828 172.194 9.01133 172.194 9.202C172.194 9.422 172.091 9.64933 171.886 9.884C171.695 10.1187 171.46 10.3387 171.182 10.544C170.903 10.7347 170.624 10.896 170.346 11.028C170.067 11.1453 169.847 11.204 169.686 11.204C169.598 11.204 169.517 11.1673 169.444 11.094C169.385 11.006 169.356 10.9033 169.356 10.786C169.356 10.5807 169.444 10.4193 169.62 10.302C169.81 10.1847 170.016 10.082 170.236 9.994C170.456 9.89133 170.654 9.774 170.83 9.642C171.02 9.51 171.116 9.32667 171.116 9.092C171.116 9.06267 171.079 8.98933 171.006 8.872C170.932 8.75467 170.734 8.696 170.412 8.696C170.265 8.696 170.096 8.784 169.906 8.96C169.715 9.12133 169.532 9.34867 169.356 9.642C169.18 9.92067 169.033 10.258 168.916 10.654C168.798 11.0353 168.74 11.4533 168.74 11.908C168.74 12.2893 168.806 12.634 168.938 12.942C169.084 13.25 169.268 13.514 169.488 13.734C169.708 13.9393 169.964 14.1007 170.258 14.218C170.551 14.3353 170.852 14.394 171.16 14.394C171.38 14.394 171.614 14.35 171.864 14.262C172.128 14.1593 172.37 14.0567 172.59 13.954C172.824 13.8367 173.022 13.734 173.184 13.646C173.36 13.5433 173.47 13.492 173.514 13.492C173.558 13.492 173.602 13.514 173.646 13.558C173.704 13.602 173.741 13.646 173.756 13.69ZM180.26 13.096C180.26 13.3453 180.172 13.5653 179.996 13.756C179.834 13.932 179.622 14.086 179.358 14.218C179.108 14.3353 178.83 14.4307 178.522 14.504C178.214 14.5773 177.92 14.636 177.642 14.68C177.363 14.7093 177.114 14.7313 176.894 14.746C176.688 14.746 176.556 14.746 176.498 14.746C176.175 14.746 175.926 14.6947 175.75 14.592C175.574 14.4893 175.486 14.306 175.486 14.042C175.486 13.954 175.493 13.8807 175.508 13.822C175.522 13.7487 175.581 13.712 175.684 13.712C175.728 13.712 175.801 13.7267 175.904 13.756C176.006 13.7707 176.087 13.778 176.146 13.778C176.204 13.778 176.388 13.7707 176.696 13.756C177.018 13.7267 177.356 13.6827 177.708 13.624C178.074 13.5653 178.397 13.4847 178.676 13.382C178.969 13.2647 179.116 13.118 179.116 12.942C179.116 12.9127 178.962 12.8247 178.654 12.678C178.36 12.5167 177.913 12.2527 177.312 11.886C176.842 11.5927 176.512 11.2993 176.322 11.006C176.131 10.698 176.036 10.2873 176.036 9.774C176.036 9.45133 176.102 9.18733 176.234 8.982C176.38 8.77667 176.571 8.61533 176.806 8.498C177.055 8.38067 177.334 8.3 177.642 8.256C177.964 8.19733 178.302 8.168 178.654 8.168C178.683 8.168 178.771 8.18267 178.918 8.212C179.079 8.24133 179.248 8.29267 179.424 8.366C179.6 8.42467 179.754 8.50533 179.886 8.608C180.032 8.696 180.106 8.79867 180.106 8.916C180.106 8.94533 180.076 8.98933 180.018 9.048C179.974 9.10667 179.893 9.21667 179.776 9.378C179.732 9.36333 179.651 9.34133 179.534 9.312C179.431 9.28267 179.306 9.25333 179.16 9.224C179.028 9.18 178.888 9.15067 178.742 9.136C178.595 9.10667 178.478 9.092 178.39 9.092C178.008 9.092 177.7 9.16533 177.466 9.312C177.231 9.444 177.114 9.708 177.114 10.104C177.114 10.2947 177.187 10.4707 177.334 10.632C177.495 10.7933 177.693 10.9473 177.928 11.094C178.162 11.226 178.412 11.3653 178.676 11.512C178.954 11.644 179.211 11.7907 179.446 11.952C179.68 12.1133 179.871 12.2893 180.018 12.48C180.179 12.656 180.26 12.8613 180.26 13.096ZM198.313 9.642C198.313 10.0233 198.203 10.39 197.983 10.742C197.778 11.094 197.521 11.424 197.213 11.732C196.905 12.0253 196.568 12.304 196.201 12.568C195.834 12.8173 195.497 13.0373 195.189 13.228C194.896 13.4333 194.654 13.602 194.463 13.734C194.272 13.866 194.177 13.9687 194.177 14.042C194.177 14.2327 194.199 14.504 194.243 14.856C194.287 15.1933 194.338 15.5673 194.397 15.978C194.47 16.374 194.536 16.7847 194.595 17.21C194.668 17.6353 194.72 18.024 194.749 18.376C194.749 18.3907 194.756 18.4567 194.771 18.574C194.8 18.6913 194.83 18.8233 194.859 18.97C194.903 19.1167 194.932 19.2487 194.947 19.366C194.976 19.498 194.991 19.5787 194.991 19.608C194.991 19.7107 194.984 19.8207 194.969 19.938C194.969 20.07 194.947 20.1873 194.903 20.29C194.874 20.4073 194.822 20.5027 194.749 20.576C194.676 20.6493 194.58 20.686 194.463 20.686C194.302 20.686 194.184 20.6127 194.111 20.466C194.038 20.334 194.001 20.202 194.001 20.07C194.001 20.0407 194.001 20.0113 194.001 19.982C194.016 19.9527 194.023 19.916 194.023 19.872C194.023 19.7107 193.964 19.278 193.847 18.574C193.73 17.87 193.598 17.0267 193.451 16.044C193.304 15.076 193.172 14.0347 193.055 12.92C192.938 11.7907 192.879 10.7273 192.879 9.73C192.879 9.65667 192.886 9.576 192.901 9.488C192.916 9.38533 192.923 9.29733 192.923 9.224C192.776 9.23867 192.556 9.30467 192.263 9.422C191.984 9.53933 191.706 9.686 191.427 9.862C191.148 10.0233 190.899 10.1993 190.679 10.39C190.474 10.566 190.371 10.7273 190.371 10.874H190.217C190.173 10.874 190.122 10.8447 190.063 10.786C189.99 10.7273 189.931 10.6613 189.887 10.588C189.828 10.5147 189.777 10.4413 189.733 10.368C189.689 10.2947 189.667 10.2433 189.667 10.214C189.667 9.906 189.85 9.62 190.217 9.356C190.584 9.07733 191.038 8.83533 191.581 8.63C192.138 8.41 192.747 8.24133 193.407 8.124C194.067 7.992 194.69 7.926 195.277 7.926C195.849 7.926 196.326 7.992 196.707 8.124C197.103 8.256 197.418 8.41733 197.653 8.608C197.888 8.784 198.056 8.96733 198.159 9.158C198.262 9.34867 198.313 9.51 198.313 9.642ZM197.235 9.576C197.235 9.42933 197.052 9.28267 196.685 9.136C196.318 8.97467 195.886 8.894 195.387 8.894C194.947 8.894 194.624 8.90867 194.419 8.938C194.214 8.96733 194.074 8.99667 194.001 9.026C193.972 9.26067 193.95 9.53933 193.935 9.862C193.92 10.1847 193.913 10.5147 193.913 10.852C193.913 11.204 193.92 11.5487 193.935 11.886C193.964 12.2087 193.994 12.48 194.023 12.7C194.228 12.568 194.507 12.392 194.859 12.172C195.226 11.9373 195.585 11.6807 195.937 11.402C196.289 11.1087 196.59 10.808 196.839 10.5C197.103 10.1773 197.235 9.86933 197.235 9.576ZM202.47 15.362C202.47 15.4793 202.426 15.5673 202.338 15.626C202.25 15.6847 202.147 15.714 202.03 15.714C201.898 15.714 201.759 15.5893 201.612 15.34C201.48 15.0907 201.348 14.7753 201.216 14.394C201.084 14.0127 200.959 13.602 200.842 13.162C200.725 12.7073 200.622 12.2893 200.534 11.908C200.446 11.512 200.373 11.182 200.314 10.918C200.27 10.654 200.248 10.5073 200.248 10.478C200.248 10.4193 200.219 10.2653 200.16 10.016C200.116 9.76667 200.05 9.378 199.962 8.85C199.889 8.322 199.801 7.64 199.698 6.804C199.61 5.95333 199.515 4.90467 199.412 3.658C199.412 3.526 199.434 3.35733 199.478 3.152C199.522 2.94667 199.625 2.844 199.786 2.844C199.991 2.844 200.145 2.98333 200.248 3.262C200.365 3.54067 200.453 3.88533 200.512 4.296C200.585 4.70667 200.637 5.13933 200.666 5.594C200.695 6.034 200.732 6.42267 200.776 6.76C200.835 7.22933 200.886 7.65467 200.93 8.036C200.989 8.41733 201.04 8.79867 201.084 9.18C201.143 9.54667 201.209 9.93533 201.282 10.346C201.37 10.7567 201.473 11.2113 201.59 11.71L202.47 15.362ZM211.423 12.348C211.423 12.48 211.335 12.6193 211.159 12.766C210.983 12.9127 210.777 13.052 210.543 13.184C210.308 13.3013 210.066 13.404 209.817 13.492C209.582 13.58 209.406 13.624 209.289 13.624C209.157 13.624 209.01 13.5873 208.849 13.514C208.702 13.4407 208.555 13.3527 208.409 13.25C208.277 13.1473 208.159 13.052 208.057 12.964C207.954 12.876 207.888 12.8173 207.859 12.788C207.815 12.832 207.749 12.92 207.661 13.052C207.573 13.184 207.463 13.3307 207.331 13.492C207.213 13.6387 207.081 13.7707 206.935 13.888C206.803 14.0053 206.663 14.064 206.517 14.064C206.135 14.064 205.805 13.8587 205.527 13.448C205.248 13.0373 205.013 12.568 204.823 12.04C204.647 11.512 204.507 11.006 204.405 10.522C204.317 10.0233 204.273 9.686 204.273 9.51C204.273 9.40733 204.324 9.32667 204.427 9.268C204.544 9.19467 204.632 9.158 204.691 9.158C204.896 9.158 205.035 9.23133 205.109 9.378C205.182 9.51 205.219 9.65667 205.219 9.818C205.219 9.95 205.255 10.1847 205.329 10.522C205.417 10.8593 205.519 11.204 205.637 11.556C205.754 11.908 205.879 12.2233 206.011 12.502C206.143 12.766 206.26 12.898 206.363 12.898C206.553 12.898 206.715 12.7807 206.847 12.546C206.993 12.2967 207.111 12.018 207.199 11.71C207.287 11.3873 207.353 11.0867 207.397 10.808C207.441 10.5147 207.463 10.324 207.463 10.236C207.463 10.2213 207.463 10.1773 207.463 10.104C207.477 10.016 207.492 9.928 207.507 9.84C207.521 9.752 207.529 9.67133 207.529 9.598C207.543 9.52467 207.551 9.47333 207.551 9.444C207.551 9.34133 207.529 9.27533 207.485 9.246C207.441 9.202 207.419 9.12133 207.419 9.004C207.419 8.916 207.463 8.83533 207.551 8.762C207.639 8.674 207.829 8.63 208.123 8.63C208.24 8.63 208.328 8.66667 208.387 8.74C208.46 8.79867 208.511 8.872 208.541 8.96C208.57 9.048 208.585 9.136 208.585 9.224C208.599 9.29733 208.607 9.34867 208.607 9.378C208.607 9.39267 208.599 9.49533 208.585 9.686C208.57 9.87667 208.555 10.0893 208.541 10.324C208.541 10.544 208.533 10.7567 208.519 10.962C208.504 11.1673 208.497 11.292 208.497 11.336C208.497 11.38 208.519 11.468 208.563 11.6C208.607 11.732 208.658 11.8713 208.717 12.018C208.79 12.15 208.871 12.2747 208.959 12.392C209.047 12.4947 209.142 12.546 209.245 12.546C209.421 12.546 209.582 12.524 209.729 12.48C209.89 12.4213 210.037 12.3627 210.169 12.304C210.315 12.2307 210.447 12.172 210.565 12.128C210.682 12.0693 210.792 12.04 210.895 12.04C211.027 12.04 211.144 12.0693 211.247 12.128C211.364 12.1867 211.423 12.26 211.423 12.348ZM217.256 13.096C217.256 13.3453 217.168 13.5653 216.992 13.756C216.83 13.932 216.618 14.086 216.354 14.218C216.104 14.3353 215.826 14.4307 215.518 14.504C215.21 14.5773 214.916 14.636 214.638 14.68C214.359 14.7093 214.11 14.7313 213.89 14.746C213.684 14.746 213.552 14.746 213.494 14.746C213.171 14.746 212.922 14.6947 212.746 14.592C212.57 14.4893 212.482 14.306 212.482 14.042C212.482 13.954 212.489 13.8807 212.504 13.822C212.518 13.7487 212.577 13.712 212.68 13.712C212.724 13.712 212.797 13.7267 212.9 13.756C213.002 13.7707 213.083 13.778 213.142 13.778C213.2 13.778 213.384 13.7707 213.692 13.756C214.014 13.7267 214.352 13.6827 214.704 13.624C215.07 13.5653 215.393 13.4847 215.672 13.382C215.965 13.2647 216.112 13.118 216.112 12.942C216.112 12.9127 215.958 12.8247 215.65 12.678C215.356 12.5167 214.909 12.2527 214.308 11.886C213.838 11.5927 213.508 11.2993 213.318 11.006C213.127 10.698 213.032 10.2873 213.032 9.774C213.032 9.45133 213.098 9.18733 213.23 8.982C213.376 8.77667 213.567 8.61533 213.802 8.498C214.051 8.38067 214.33 8.3 214.638 8.256C214.96 8.19733 215.298 8.168 215.65 8.168C215.679 8.168 215.767 8.18267 215.914 8.212C216.075 8.24133 216.244 8.29267 216.42 8.366C216.596 8.42467 216.75 8.50533 216.882 8.608C217.028 8.696 217.102 8.79867 217.102 8.916C217.102 8.94533 217.072 8.98933 217.014 9.048C216.97 9.10667 216.889 9.21667 216.772 9.378C216.728 9.36333 216.647 9.34133 216.53 9.312C216.427 9.28267 216.302 9.25333 216.156 9.224C216.024 9.18 215.884 9.15067 215.738 9.136C215.591 9.10667 215.474 9.092 215.386 9.092C215.004 9.092 214.696 9.16533 214.462 9.312C214.227 9.444 214.11 9.708 214.11 10.104C214.11 10.2947 214.183 10.4707 214.33 10.632C214.491 10.7933 214.689 10.9473 214.924 11.094C215.158 11.226 215.408 11.3653 215.672 11.512C215.95 11.644 216.207 11.7907 216.442 11.952C216.676 12.1133 216.867 12.2893 217.014 12.48C217.175 12.656 217.256 12.8613 217.256 13.096ZM235.309 9.642C235.309 10.0233 235.199 10.39 234.979 10.742C234.774 11.094 234.517 11.424 234.209 11.732C233.901 12.0253 233.564 12.304 233.197 12.568C232.831 12.8173 232.493 13.0373 232.185 13.228C231.892 13.4333 231.65 13.602 231.459 13.734C231.269 13.866 231.173 13.9687 231.173 14.042C231.173 14.2327 231.195 14.504 231.239 14.856C231.283 15.1933 231.335 15.5673 231.393 15.978C231.467 16.374 231.533 16.7847 231.591 17.21C231.665 17.6353 231.716 18.024 231.745 18.376C231.745 18.3907 231.753 18.4567 231.767 18.574C231.797 18.6913 231.826 18.8233 231.855 18.97C231.899 19.1167 231.929 19.2487 231.943 19.366C231.973 19.498 231.987 19.5787 231.987 19.608C231.987 19.7107 231.98 19.8207 231.965 19.938C231.965 20.07 231.943 20.1873 231.899 20.29C231.87 20.4073 231.819 20.5027 231.745 20.576C231.672 20.6493 231.577 20.686 231.459 20.686C231.298 20.686 231.181 20.6127 231.107 20.466C231.034 20.334 230.997 20.202 230.997 20.07C230.997 20.0407 230.997 20.0113 230.997 19.982C231.012 19.9527 231.019 19.916 231.019 19.872C231.019 19.7107 230.961 19.278 230.843 18.574C230.726 17.87 230.594 17.0267 230.447 16.044C230.301 15.076 230.169 14.0347 230.051 12.92C229.934 11.7907 229.875 10.7273 229.875 9.73C229.875 9.65667 229.883 9.576 229.897 9.488C229.912 9.38533 229.919 9.29733 229.919 9.224C229.773 9.23867 229.553 9.30467 229.259 9.422C228.981 9.53933 228.702 9.686 228.423 9.862C228.145 10.0233 227.895 10.1993 227.675 10.39C227.47 10.566 227.367 10.7273 227.367 10.874H227.213C227.169 10.874 227.118 10.8447 227.059 10.786C226.986 10.7273 226.927 10.6613 226.883 10.588C226.825 10.5147 226.773 10.4413 226.729 10.368C226.685 10.2947 226.663 10.2433 226.663 10.214C226.663 9.906 226.847 9.62 227.213 9.356C227.58 9.07733 228.035 8.83533 228.577 8.63C229.135 8.41 229.743 8.24133 230.403 8.124C231.063 7.992 231.687 7.926 232.273 7.926C232.845 7.926 233.322 7.992 233.703 8.124C234.099 8.256 234.415 8.41733 234.649 8.608C234.884 8.784 235.053 8.96733 235.155 9.158C235.258 9.34867 235.309 9.51 235.309 9.642ZM234.231 9.576C234.231 9.42933 234.048 9.28267 233.681 9.136C233.315 8.97467 232.882 8.894 232.383 8.894C231.943 8.894 231.621 8.90867 231.415 8.938C231.21 8.96733 231.071 8.99667 230.997 9.026C230.968 9.26067 230.946 9.53933 230.931 9.862C230.917 10.1847 230.909 10.5147 230.909 10.852C230.909 11.204 230.917 11.5487 230.931 11.886C230.961 12.2087 230.99 12.48 231.019 12.7C231.225 12.568 231.503 12.392 231.855 12.172C232.222 11.9373 232.581 11.6807 232.933 11.402C233.285 11.1087 233.586 10.808 233.835 10.5C234.099 10.1773 234.231 9.86933 234.231 9.576ZM241.732 9.29C241.732 9.39267 241.688 9.48067 241.6 9.554C241.512 9.61267 241.409 9.664 241.292 9.708C241.175 9.752 241.057 9.78867 240.94 9.818C240.823 9.83267 240.727 9.84 240.654 9.84C240.434 9.84 240.287 9.82533 240.214 9.796C240.141 9.76667 240.082 9.752 240.038 9.752C239.671 9.752 239.378 9.78133 239.158 9.84C238.938 9.89867 238.762 9.994 238.63 10.126C238.513 10.258 238.432 10.4267 238.388 10.632C238.359 10.8227 238.344 11.0573 238.344 11.336C238.344 11.8053 238.359 12.1793 238.388 12.458C238.432 12.7367 238.469 12.964 238.498 13.14C238.542 13.316 238.579 13.4553 238.608 13.558C238.652 13.646 238.674 13.734 238.674 13.822C238.674 13.9393 238.608 14.064 238.476 14.196C238.359 14.328 238.249 14.394 238.146 14.394C237.97 14.394 237.809 14.24 237.662 13.932C237.53 13.6093 237.413 13.2353 237.31 12.81C237.222 12.37 237.149 11.9373 237.09 11.512C237.031 11.0867 237.002 10.764 237.002 10.544C237.002 10.2947 237.024 10.06 237.068 9.84C237.112 9.60533 237.171 9.40733 237.244 9.246C237.317 9.07 237.398 8.93067 237.486 8.828C237.574 8.72533 237.662 8.674 237.75 8.674C237.823 8.674 237.882 8.70333 237.926 8.762C237.97 8.806 238.007 8.86467 238.036 8.938C238.065 8.99667 238.095 9.05533 238.124 9.114C238.168 9.158 238.219 9.18 238.278 9.18C238.41 9.18 238.623 9.114 238.916 8.982C239.209 8.85 239.569 8.784 239.994 8.784C240.39 8.784 240.683 8.79867 240.874 8.828C241.079 8.84267 241.277 8.88667 241.468 8.96C241.512 8.97467 241.563 9.01133 241.622 9.07C241.695 9.114 241.732 9.18733 241.732 9.29ZM247.439 11.248C247.439 11.5707 247.395 11.8787 247.307 12.172C247.219 12.4653 247.102 12.722 246.955 12.942C246.808 13.162 246.632 13.338 246.427 13.47C246.236 13.5873 246.024 13.646 245.789 13.646C245.378 13.646 245.056 13.5287 244.821 13.294C244.586 13.0593 244.403 12.788 244.271 12.48C244.154 12.172 244.073 11.864 244.029 11.556C244 11.2333 243.985 10.9913 243.985 10.83C243.985 10.566 244.022 10.2727 244.095 9.95C244.183 9.61267 244.293 9.30467 244.425 9.026C244.572 8.74733 244.733 8.51267 244.909 8.322C245.085 8.13133 245.268 8.036 245.459 8.036C245.503 8.036 245.569 8.05067 245.657 8.08C245.76 8.10933 245.862 8.15333 245.965 8.212C246.068 8.27067 246.156 8.344 246.229 8.432C246.317 8.52 246.376 8.62267 246.405 8.74C246.566 8.75467 246.728 8.81333 246.889 8.916C247.05 9.01867 247.138 9.09933 247.153 9.158C247.27 9.53933 247.344 9.92067 247.373 10.302C247.417 10.6833 247.439 10.9987 247.439 11.248ZM246.449 10.852C246.449 10.632 246.427 10.4047 246.383 10.17C246.339 9.92067 246.251 9.67133 246.119 9.422C246.09 9.43667 246.053 9.444 246.009 9.444C245.95 9.444 245.899 9.43667 245.855 9.422C245.826 9.40733 245.796 9.4 245.767 9.4C245.591 9.4 245.452 9.45133 245.349 9.554C245.246 9.642 245.166 9.76667 245.107 9.928C245.063 10.0747 245.034 10.236 245.019 10.412C245.004 10.588 244.997 10.7567 244.997 10.918C244.997 11.0793 245.004 11.2627 245.019 11.468C245.034 11.6587 245.063 11.842 245.107 12.018C245.166 12.194 245.239 12.348 245.327 12.48C245.415 12.5973 245.532 12.656 245.679 12.656C245.826 12.656 245.95 12.5827 246.053 12.436C246.156 12.2747 246.236 12.0913 246.295 11.886C246.354 11.6807 246.39 11.4827 246.405 11.292C246.434 11.0867 246.449 10.94 246.449 10.852ZM256.003 11.996C256.003 12.1427 255.981 12.2967 255.937 12.458C255.893 12.6047 255.849 12.7293 255.805 12.832C255.776 12.876 255.636 13.03 255.387 13.294C255.152 13.5433 254.852 13.8073 254.485 14.086C254.133 14.3647 253.73 14.6213 253.275 14.856C252.835 15.076 252.41 15.186 251.999 15.186C251.75 15.186 251.493 15.142 251.229 15.054C250.98 14.966 250.745 14.8267 250.525 14.636C250.305 14.4307 250.122 14.1813 249.975 13.888C249.843 13.5947 249.777 13.2353 249.777 12.81C249.777 12.106 249.894 11.468 250.129 10.896C250.364 10.324 250.598 9.86933 250.833 9.532C250.936 9.37067 251.068 9.20933 251.229 9.048C251.405 8.872 251.574 8.718 251.735 8.586C251.896 8.43933 252.043 8.322 252.175 8.234C252.322 8.146 252.424 8.102 252.483 8.102C252.615 8.102 252.732 8.13867 252.835 8.212C252.952 8.28533 253.011 8.35867 253.011 8.432C253.011 8.54933 252.974 8.652 252.901 8.74C252.842 8.81333 252.754 8.90133 252.637 9.004C252.52 9.092 252.38 9.21667 252.219 9.378C252.058 9.52467 251.889 9.72267 251.713 9.972C251.361 10.456 251.097 10.9547 250.921 11.468C250.76 11.9667 250.679 12.4067 250.679 12.788C250.679 13.1693 250.818 13.4773 251.097 13.712C251.39 13.932 251.691 14.042 251.999 14.042C252.556 14.042 253.048 13.9173 253.473 13.668C253.913 13.4187 254.287 13.14 254.595 12.832C254.903 12.524 255.152 12.2453 255.343 11.996C255.534 11.7467 255.673 11.622 255.761 11.622C255.922 11.622 256.003 11.7467 256.003 11.996ZM264.807 11.93C264.88 12.0033 264.917 12.0473 264.917 12.062C264.917 12.0913 264.873 12.1793 264.785 12.326C264.711 12.4727 264.609 12.6267 264.477 12.788C264.345 12.9493 264.198 13.096 264.037 13.228C263.89 13.3453 263.743 13.404 263.597 13.404C263.289 13.404 263.039 13.3453 262.849 13.228C262.658 13.096 262.497 12.9347 262.365 12.744C262.247 12.5533 262.152 12.348 262.079 12.128C262.02 11.8933 261.969 11.6733 261.925 11.468C261.895 11.3653 261.866 11.314 261.837 11.314C261.793 11.314 261.705 11.4753 261.573 11.798C261.441 12.106 261.294 12.4507 261.133 12.832C260.986 13.1987 260.839 13.5433 260.693 13.866C260.561 14.174 260.473 14.328 260.429 14.328C260.165 14.328 259.937 14.218 259.747 13.998C259.571 13.7633 259.424 13.4993 259.307 13.206C259.204 12.898 259.123 12.59 259.065 12.282C259.006 11.9593 258.969 11.71 258.955 11.534C258.911 11.138 258.815 10.478 258.669 9.554C258.522 8.63 258.397 7.508 258.295 6.188C258.265 5.90933 258.229 5.66 258.185 5.44C258.155 5.20533 258.119 4.94867 258.075 4.67C258.031 4.39133 257.994 4.076 257.965 3.724C257.935 3.372 257.921 2.93933 257.921 2.426C257.921 2.39667 257.928 2.30133 257.943 2.14C257.957 1.97867 257.979 1.80267 258.009 1.612C258.038 1.42133 258.082 1.25267 258.141 1.106C258.214 0.959332 258.295 0.885999 258.383 0.885999C258.485 0.885999 258.581 0.951999 258.669 1.084C258.757 1.20133 258.83 1.34067 258.889 1.502C258.962 1.66333 259.013 1.81733 259.043 1.964C259.072 2.11067 259.087 2.21333 259.087 2.272C259.087 2.492 259.072 2.69733 259.043 2.888C259.013 3.07867 258.999 3.25467 258.999 3.416C258.999 3.636 259.013 3.91467 259.043 4.252C259.087 4.58933 259.138 4.934 259.197 5.286C259.255 5.638 259.307 5.98267 259.351 6.32C259.395 6.64267 259.431 6.90667 259.461 7.112C259.461 7.12667 259.475 7.22933 259.505 7.42C259.534 7.61067 259.563 7.85267 259.593 8.146C259.637 8.42467 259.673 8.73267 259.703 9.07C259.747 9.39267 259.791 9.71533 259.835 10.038C259.879 10.346 259.915 10.6247 259.945 10.874C259.989 11.1087 260.018 11.2773 260.033 11.38C260.033 11.424 260.04 11.49 260.055 11.578C260.084 11.6513 260.106 11.7393 260.121 11.842C260.15 11.9447 260.179 12.04 260.209 12.128C260.238 12.216 260.275 12.282 260.319 12.326C260.407 12.15 260.517 11.8787 260.649 11.512C260.795 11.1453 260.942 10.7713 261.089 10.39C261.25 10.0087 261.397 9.67867 261.529 9.4C261.675 9.10667 261.8 8.96 261.903 8.96C262.02 8.96 262.115 8.982 262.189 9.026C262.262 9.07 262.357 9.10667 262.475 9.136C262.621 9.19467 262.695 9.27533 262.695 9.378C262.695 9.466 262.709 9.576 262.739 9.708C262.768 9.884 262.812 10.1187 262.871 10.412C262.944 10.6907 263.025 10.9693 263.113 11.248C263.201 11.512 263.303 11.7393 263.421 11.93C263.538 12.1207 263.655 12.216 263.773 12.216C263.831 12.216 263.912 12.1427 264.015 11.996C264.117 11.8347 264.257 11.7467 264.433 11.732C264.462 11.732 264.513 11.754 264.587 11.798C264.66 11.8273 264.733 11.8713 264.807 11.93ZM272.326 13.69C272.341 13.7193 272.348 13.7633 272.348 13.822C272.348 13.91 272.282 14.042 272.15 14.218C272.106 14.2767 272.011 14.372 271.864 14.504C271.717 14.636 271.519 14.768 271.27 14.9C271.021 15.032 270.713 15.1493 270.346 15.252C269.994 15.3547 269.576 15.406 269.092 15.406C268.755 15.406 268.425 15.3327 268.102 15.186C267.779 15.0247 267.493 14.7973 267.244 14.504C266.995 14.196 266.789 13.822 266.628 13.382C266.467 12.9273 266.386 12.3993 266.386 11.798C266.386 11.226 266.459 10.6907 266.606 10.192C266.753 9.69333 266.936 9.25333 267.156 8.872C267.391 8.49067 267.647 8.19 267.926 7.97C268.205 7.75 268.476 7.64 268.74 7.64C268.975 7.64 269.209 7.69133 269.444 7.794C269.693 7.882 269.913 7.99933 270.104 8.146C270.309 8.29267 270.471 8.46133 270.588 8.652C270.705 8.828 270.764 9.01133 270.764 9.202C270.764 9.422 270.661 9.64933 270.456 9.884C270.265 10.1187 270.031 10.3387 269.752 10.544C269.473 10.7347 269.195 10.896 268.916 11.028C268.637 11.1453 268.417 11.204 268.256 11.204C268.168 11.204 268.087 11.1673 268.014 11.094C267.955 11.006 267.926 10.9033 267.926 10.786C267.926 10.5807 268.014 10.4193 268.19 10.302C268.381 10.1847 268.586 10.082 268.806 9.994C269.026 9.89133 269.224 9.774 269.4 9.642C269.591 9.51 269.686 9.32667 269.686 9.092C269.686 9.06267 269.649 8.98933 269.576 8.872C269.503 8.75467 269.305 8.696 268.982 8.696C268.835 8.696 268.667 8.784 268.476 8.96C268.285 9.12133 268.102 9.34867 267.926 9.642C267.75 9.92067 267.603 10.258 267.486 10.654C267.369 11.0353 267.31 11.4533 267.31 11.908C267.31 12.2893 267.376 12.634 267.508 12.942C267.655 13.25 267.838 13.514 268.058 13.734C268.278 13.9393 268.535 14.1007 268.828 14.218C269.121 14.3353 269.422 14.394 269.73 14.394C269.95 14.394 270.185 14.35 270.434 14.262C270.698 14.1593 270.94 14.0567 271.16 13.954C271.395 13.8367 271.593 13.734 271.754 13.646C271.93 13.5433 272.04 13.492 272.084 13.492C272.128 13.492 272.172 13.514 272.216 13.558C272.275 13.602 272.311 13.646 272.326 13.69ZM278.83 13.096C278.83 13.3453 278.742 13.5653 278.566 13.756C278.405 13.932 278.192 14.086 277.928 14.218C277.679 14.3353 277.4 14.4307 277.092 14.504C276.784 14.5773 276.491 14.636 276.212 14.68C275.933 14.7093 275.684 14.7313 275.464 14.746C275.259 14.746 275.127 14.746 275.068 14.746C274.745 14.746 274.496 14.6947 274.32 14.592C274.144 14.4893 274.056 14.306 274.056 14.042C274.056 13.954 274.063 13.8807 274.078 13.822C274.093 13.7487 274.151 13.712 274.254 13.712C274.298 13.712 274.371 13.7267 274.474 13.756C274.577 13.7707 274.657 13.778 274.716 13.778C274.775 13.778 274.958 13.7707 275.266 13.756C275.589 13.7267 275.926 13.6827 276.278 13.624C276.645 13.5653 276.967 13.4847 277.246 13.382C277.539 13.2647 277.686 13.118 277.686 12.942C277.686 12.9127 277.532 12.8247 277.224 12.678C276.931 12.5167 276.483 12.2527 275.882 11.886C275.413 11.5927 275.083 11.2993 274.892 11.006C274.701 10.698 274.606 10.2873 274.606 9.774C274.606 9.45133 274.672 9.18733 274.804 8.982C274.951 8.77667 275.141 8.61533 275.376 8.498C275.625 8.38067 275.904 8.3 276.212 8.256C276.535 8.19733 276.872 8.168 277.224 8.168C277.253 8.168 277.341 8.18267 277.488 8.212C277.649 8.24133 277.818 8.29267 277.994 8.366C278.17 8.42467 278.324 8.50533 278.456 8.608C278.603 8.696 278.676 8.79867 278.676 8.916C278.676 8.94533 278.647 8.98933 278.588 9.048C278.544 9.10667 278.463 9.21667 278.346 9.378C278.302 9.36333 278.221 9.34133 278.104 9.312C278.001 9.28267 277.877 9.25333 277.73 9.224C277.598 9.18 277.459 9.15067 277.312 9.136C277.165 9.10667 277.048 9.092 276.96 9.092C276.579 9.092 276.271 9.16533 276.036 9.312C275.801 9.444 275.684 9.708 275.684 10.104C275.684 10.2947 275.757 10.4707 275.904 10.632C276.065 10.7933 276.263 10.9473 276.498 11.094C276.733 11.226 276.982 11.3653 277.246 11.512C277.525 11.644 277.781 11.7907 278.016 11.952C278.251 12.1133 278.441 12.2893 278.588 12.48C278.749 12.656 278.83 12.8613 278.83 13.096Z" fill="#555555"/>
</svg>
