<svg width="278" height="63" viewBox="0 0 278 63" fill="none" xmlns="http://www.w3.org/2000/svg">
<path d="M102.216 9H103.056L104.568 6.36H108.6L109.176 9H109.956L108.096 0.599999H107.04L102.216 9ZM104.952 5.676L107.496 1.236L108.456 5.676H104.952ZM111.319 1.308H114.139L112.771 9H113.539L114.907 1.308H117.703L117.835 0.599999H111.451L111.319 1.308ZM118.783 1.308H121.603L120.235 9H121.003L122.371 1.308H125.167L125.299 0.599999H118.915L118.783 1.308ZM125.617 9H129.781L129.901 8.328H126.505L127.081 5.052H130.009L130.129 4.392H127.201L127.753 1.272H131.137L131.257 0.599999H127.105L125.617 9ZM132.027 9H132.795L134.127 1.464L138.003 9H138.999L140.487 0.599999H139.719L138.387 8.148L134.511 0.599999H133.515L132.027 9ZM142.127 1.308H144.947L143.579 9H144.347L145.715 1.308H148.511L148.643 0.599999H142.259L142.127 1.308ZM148.961 9H149.729L151.217 0.599999H150.449L148.961 9ZM157.17 0.36C154.326 0.36 152.394 2.7 152.394 5.34C152.394 7.536 153.954 9.24 156.258 9.24C159.102 9.24 161.034 6.9 161.034 4.26C161.034 2.064 159.474 0.36 157.17 0.36ZM156.27 8.52C154.41 8.52 153.198 7.056 153.198 5.304C153.198 3.036 154.842 1.08 157.146 1.08C159.006 1.08 160.23 2.544 160.23 4.296C160.23 6.564 158.586 8.52 156.27 8.52ZM162.214 9H162.982L164.314 1.464L168.19 9H169.186L170.674 0.599999H169.906L168.574 8.148L164.698 0.599999H163.702L162.214 9ZM175.561 6.72H176.125L177.313 0.599999H176.521L175.561 6.72ZM175.525 9.132C175.861 9.132 176.125 8.88 176.125 8.544C176.125 8.208 175.861 7.956 175.525 7.956C175.177 7.956 174.925 8.208 174.925 8.544C174.925 8.88 175.177 9.132 175.525 9.132ZM0.359609 18.308H3.17961L1.81161 26H2.57961L3.94761 18.308H6.74361L6.87561 17.6H0.491609L0.359609 18.308ZM10.8129 23.432C10.5729 24.812 9.87692 25.568 8.78492 25.568C7.56092 25.568 6.93692 24.812 7.18892 23.432L7.80092 19.952H7.09292L6.49292 23.384C6.16892 25.232 7.11692 26.24 8.74892 26.24C10.2609 26.24 11.1969 25.232 11.5209 23.444L12.1329 19.952H11.4249L10.8129 23.432ZM16.446 26H17.154L17.91 21.656C18.498 20.816 19.242 20.384 20.082 20.384C21.138 20.384 21.714 21.068 21.486 22.316L20.838 26H21.546L22.194 22.292C22.494 20.624 21.642 19.712 20.226 19.712C19.41 19.712 18.69 20.072 18.078 20.732L18.21 19.952H17.514L16.446 26ZM24.8179 20.672L26.4739 17.6H25.6339L24.1459 20.672H24.8179ZM28.9557 26.24C30.1077 26.24 31.0677 25.772 31.6797 25.016L31.1877 24.56C30.7077 25.196 29.9037 25.592 28.9797 25.592C27.6117 25.592 26.8797 24.644 26.8797 23.372C26.8797 23.18 26.8917 22.988 26.9157 22.796H31.7757C31.8717 22.484 31.9077 22.172 31.9077 21.908C31.9077 20.672 30.9117 19.712 29.4717 19.712C27.3477 19.712 26.1357 21.416 26.1357 23.36C26.1357 24.956 27.1077 26.24 28.9557 26.24ZM29.4597 20.324C30.6717 20.324 31.3197 21.26 31.1757 22.232H27.0357C27.3717 21.14 28.1877 20.324 29.4597 20.324ZM34.1097 21.404C34.1097 20.852 34.6257 20.324 35.3457 20.324C35.9337 20.324 36.3657 20.648 36.6057 21.176L37.1817 20.804C36.8697 20.18 36.2097 19.712 35.3577 19.712C34.2417 19.712 33.4137 20.48 33.4137 21.428C33.4137 23.24 35.8497 23.072 35.8497 24.428C35.8497 25.112 35.3457 25.628 34.5897 25.628C33.9657 25.628 33.4137 25.34 33.0057 24.692L32.4537 25.088C32.8977 25.844 33.6897 26.24 34.5657 26.24C35.7537 26.24 36.5577 25.364 36.5577 24.416C36.5577 22.616 34.1097 22.772 34.1097 21.404ZM40.7269 28.952H41.4229L42.1069 25.064C42.5749 25.82 43.4149 26.24 44.3989 26.24C46.3909 26.24 47.7949 24.572 47.7949 22.532C47.7949 20.924 46.7869 19.712 45.0349 19.712C44.2549 19.712 43.4989 20.036 42.8869 20.66L43.0069 19.952H42.3109L40.7269 28.952ZM44.9029 20.384C46.2349 20.384 47.0509 21.32 47.0509 22.556C47.0509 24.272 45.9109 25.568 44.3509 25.568C43.3789 25.568 42.6349 25.04 42.2629 24.2L42.7309 21.512C43.2829 20.744 44.0869 20.384 44.9029 20.384ZM50.5518 26.168C51.4398 26.168 52.1118 25.82 52.6758 25.196L52.5318 26H53.2158L53.9358 22.028C54.1878 20.612 53.4078 19.712 51.9318 19.712C50.9238 19.712 50.0598 20.192 49.4718 20.852L49.9998 21.296C50.5038 20.732 51.1758 20.36 51.9078 20.36C52.8678 20.36 53.4198 20.912 53.2398 21.932L53.1558 22.412L50.8878 22.796C49.4838 23.024 48.7398 23.672 48.7398 24.668C48.7398 25.616 49.4718 26.168 50.5518 26.168ZM49.4838 24.608C49.4838 23.936 50.0118 23.492 51.0318 23.324L53.0598 22.976L52.8078 24.392C52.2558 25.112 51.5718 25.556 50.6598 25.556C49.9158 25.556 49.4838 25.16 49.4838 24.608ZM56.5394 21.404C56.5394 20.852 57.0554 20.324 57.7754 20.324C58.3634 20.324 58.7954 20.648 59.0354 21.176L59.6114 20.804C59.2994 20.18 58.6394 19.712 57.7874 19.712C56.6714 19.712 55.8434 20.48 55.8434 21.428C55.8434 23.24 58.2794 23.072 58.2794 24.428C58.2794 25.112 57.7754 25.628 57.0194 25.628C56.3954 25.628 55.8434 25.34 55.4354 24.692L54.8834 25.088C55.3274 25.844 56.1194 26.24 56.9954 26.24C58.1834 26.24 58.9874 25.364 58.9874 24.416C58.9874 22.616 56.5394 22.772 56.5394 21.404ZM63.9485 19.952L63.8285 20.588H64.9445L63.4805 28.952H64.2005L65.6525 20.588H67.8485L67.9565 19.952H65.7605L65.9165 19.064C66.0845 18.08 66.6845 17.648 67.3685 17.648C67.7525 17.648 68.0525 17.768 68.3045 17.96L68.6885 17.396C68.4005 17.204 67.9685 17 67.3685 17C66.3125 17 65.4605 17.636 65.2085 19.064L65.0525 19.952H63.9485ZM71.1961 19.712C69.0721 19.712 67.6201 21.44 67.6201 23.36C67.6201 24.956 68.6641 26.24 70.4761 26.24C72.5881 26.24 74.0401 24.512 74.0401 22.592C74.0401 20.996 72.9961 19.712 71.1961 19.712ZM70.4881 25.568C69.1921 25.568 68.3761 24.584 68.3761 23.372C68.3761 21.788 69.5281 20.384 71.1721 20.384C72.4681 20.384 73.2961 21.368 73.2961 22.58C73.2961 24.164 72.1321 25.568 70.4881 25.568ZM75.1804 26H75.8884L76.6444 21.728C77.2324 20.96 77.8084 20.504 78.6124 20.504C78.8284 20.504 78.9724 20.54 79.1404 20.588L79.2604 19.904C79.0924 19.844 78.9004 19.832 78.7084 19.832C77.9164 19.832 77.3644 20.204 76.8004 20.852L76.9564 19.952H76.2484L75.1804 26ZM82.8445 19.712C80.7565 19.712 79.2685 21.416 79.2685 23.36C79.2685 24.956 80.3365 26.24 82.1845 26.24C83.2645 26.24 84.0925 25.772 84.6685 25.064L84.1765 24.572C83.7325 25.172 83.0485 25.568 82.1845 25.568C80.8405 25.568 80.0245 24.584 80.0245 23.372C80.0245 21.788 81.1765 20.384 82.7965 20.384C83.6845 20.384 84.3325 20.828 84.6565 21.464L85.2685 21.02C84.8605 20.252 83.9965 19.712 82.8445 19.712ZM89.5798 18.992L91.2718 17H90.4078L88.8478 18.992H89.5798ZM88.4518 26.24C89.6038 26.24 90.5638 25.772 91.1758 25.016L90.6838 24.56C90.2038 25.196 89.3998 25.592 88.4758 25.592C87.1078 25.592 86.3758 24.644 86.3758 23.372C86.3758 23.18 86.3878 22.988 86.4118 22.796H91.2718C91.3678 22.484 91.4038 22.172 91.4038 21.908C91.4038 20.672 90.4078 19.712 88.9678 19.712C86.8438 19.712 85.6318 21.416 85.6318 23.36C85.6318 24.956 86.6038 26.24 88.4518 26.24ZM88.9558 20.324C90.1678 20.324 90.8158 21.26 90.6718 22.232H86.5318C86.8678 21.14 87.6838 20.324 88.9558 20.324ZM92.4892 26H93.1852L93.9532 21.632C94.5172 20.828 95.2132 20.384 95.9932 20.384C96.9412 20.384 97.5052 21.044 97.2892 22.292L96.6292 26H97.3372L97.9972 22.268C98.0332 22.088 98.0452 21.908 98.0572 21.74C98.6332 20.876 99.3412 20.384 100.157 20.384C101.105 20.384 101.669 21.044 101.441 22.292L100.793 26H101.489L102.149 22.268C102.449 20.624 101.621 19.712 100.301 19.712C99.3892 19.712 98.6572 20.18 97.9732 21.008C97.7572 20.168 97.0732 19.712 96.1372 19.712C95.3692 19.712 94.7092 20.072 94.1212 20.708L94.2532 19.952H93.5452L92.4892 26ZM106.393 26.24C107.545 26.24 108.505 25.772 109.117 25.016L108.625 24.56C108.145 25.196 107.341 25.592 106.417 25.592C105.049 25.592 104.317 24.644 104.317 23.372C104.317 23.18 104.329 22.988 104.353 22.796H109.213C109.309 22.484 109.345 22.172 109.345 21.908C109.345 20.672 108.349 19.712 106.909 19.712C104.785 19.712 103.573 21.416 103.573 23.36C103.573 24.956 104.545 26.24 106.393 26.24ZM106.897 20.324C108.109 20.324 108.757 21.26 108.613 22.232H104.473C104.809 21.14 105.625 20.324 106.897 20.324ZM110.419 26H111.127L111.883 21.656C112.471 20.816 113.215 20.384 114.055 20.384C115.111 20.384 115.687 21.068 115.459 22.316L114.811 26H115.519L116.167 22.292C116.467 20.624 115.615 19.712 114.199 19.712C113.383 19.712 112.663 20.072 112.051 20.732L112.183 19.952H111.487L110.419 26ZM118.356 23.984C118.068 25.568 118.788 26.12 119.988 26.12C120.348 26.12 120.648 26.06 120.912 25.952L121.032 25.304C120.768 25.388 120.492 25.46 120.12 25.46C119.352 25.46 118.848 25.196 119.064 24.02L119.664 20.588H121.86L121.968 19.952H119.784L120.048 18.44H119.328L119.064 19.952H117.96L117.84 20.588H118.956L118.356 23.984ZM125.758 26H126.466L127.222 21.728C127.81 20.96 128.386 20.504 129.19 20.504C129.406 20.504 129.55 20.54 129.718 20.588L129.838 19.904C129.67 19.844 129.478 19.832 129.286 19.832C128.494 19.832 127.942 20.204 127.378 20.852L127.534 19.952H126.826L125.758 26ZM131.657 26.168C132.545 26.168 133.217 25.82 133.781 25.196L133.637 26H134.321L135.041 22.028C135.293 20.612 134.513 19.712 133.037 19.712C132.029 19.712 131.165 20.192 130.577 20.852L131.105 21.296C131.609 20.732 132.281 20.36 133.013 20.36C133.973 20.36 134.525 20.912 134.345 21.932L134.261 22.412L131.993 22.796C130.589 23.024 129.845 23.672 129.845 24.668C129.845 25.616 130.577 26.168 131.657 26.168ZM130.589 24.608C130.589 23.936 131.117 23.492 132.137 23.324L134.165 22.976L133.913 24.392C133.361 25.112 132.677 25.556 131.765 25.556C131.021 25.556 130.589 25.16 130.589 24.608ZM137.165 23.984C136.877 25.568 137.597 26.12 138.797 26.12C139.157 26.12 139.457 26.06 139.721 25.952L139.841 25.304C139.577 25.388 139.301 25.46 138.929 25.46C138.161 25.46 137.657 25.196 137.873 24.02L138.473 20.588H140.669L140.777 19.952H138.593L138.857 18.44H138.137L137.873 19.952H136.769L136.649 20.588H137.765L137.165 23.984ZM142.04 23.984C141.752 25.568 142.472 26.12 143.672 26.12C144.032 26.12 144.332 26.06 144.596 25.952L144.716 25.304C144.452 25.388 144.176 25.46 143.804 25.46C143.036 25.46 142.532 25.196 142.748 24.02L143.348 20.588H145.544L145.652 19.952H143.468L143.732 18.44H143.012L142.748 19.952H141.644L141.524 20.588H142.64L142.04 23.984ZM147.876 26.168C148.764 26.168 149.436 25.82 150 25.196L149.856 26H150.54L151.26 22.028C151.512 20.612 150.732 19.712 149.256 19.712C148.248 19.712 147.384 20.192 146.796 20.852L147.324 21.296C147.828 20.732 148.5 20.36 149.232 20.36C150.192 20.36 150.744 20.912 150.564 21.932L150.48 22.412L148.212 22.796C146.808 23.024 146.064 23.672 146.064 24.668C146.064 25.616 146.796 26.168 147.876 26.168ZM146.808 24.608C146.808 23.936 147.336 23.492 148.356 23.324L150.384 22.976L150.132 24.392C149.58 25.112 148.896 25.556 147.984 25.556C147.24 25.556 146.808 25.16 146.808 24.608ZM156.216 19.712C154.128 19.712 152.64 21.416 152.64 23.36C152.64 24.956 153.708 26.24 155.556 26.24C156.636 26.24 157.464 25.772 158.04 25.064L157.548 24.572C157.104 25.172 156.42 25.568 155.556 25.568C154.212 25.568 153.396 24.584 153.396 23.372C153.396 21.788 154.548 20.384 156.168 20.384C157.056 20.384 157.704 20.828 158.028 21.464L158.64 21.02C158.232 20.252 157.368 19.712 156.216 19.712ZM159.298 26H160.006L160.774 21.644C161.35 20.816 162.094 20.384 162.934 20.384C163.99 20.384 164.566 21.068 164.338 22.316L163.69 26H164.398L165.046 22.292C165.346 20.624 164.494 19.712 163.078 19.712C162.262 19.712 161.542 20.072 160.93 20.72L161.59 17H160.882L159.298 26ZM170.439 18.992L172.131 17H171.267L169.707 18.992H170.439ZM169.311 26.24C170.463 26.24 171.423 25.772 172.035 25.016L171.543 24.56C171.063 25.196 170.259 25.592 169.335 25.592C167.967 25.592 167.235 24.644 167.235 23.372C167.235 23.18 167.247 22.988 167.271 22.796H172.131C172.227 22.484 172.263 22.172 172.263 21.908C172.263 20.672 171.267 19.712 169.827 19.712C167.703 19.712 166.491 21.416 166.491 23.36C166.491 24.956 167.463 26.24 169.311 26.24ZM169.815 20.324C171.027 20.324 171.675 21.26 171.531 22.232H167.391C167.727 21.14 168.543 20.324 169.815 20.324ZM178.251 26.168C179.139 26.168 179.811 25.82 180.375 25.196L180.231 26H180.915L181.635 22.028C181.887 20.612 181.107 19.712 179.631 19.712C178.623 19.712 177.759 20.192 177.171 20.852L177.699 21.296C178.203 20.732 178.875 20.36 179.607 20.36C180.567 20.36 181.119 20.912 180.939 21.932L180.855 22.412L178.587 22.796C177.183 23.024 176.439 23.672 176.439 24.668C176.439 25.616 177.171 26.168 178.251 26.168ZM177.183 24.608C177.183 23.936 177.711 23.492 178.731 23.324L180.759 22.976L180.507 24.392C179.955 25.112 179.271 25.556 178.359 25.556C177.615 25.556 177.183 25.16 177.183 24.608ZM187.743 23.432C187.503 24.812 186.807 25.568 185.715 25.568C184.491 25.568 183.867 24.812 184.119 23.432L184.731 19.952H184.023L183.423 23.384C183.099 25.232 184.047 26.24 185.679 26.24C187.191 26.24 188.127 25.232 188.451 23.444L189.063 19.952H188.355L187.743 23.432ZM199.94 22.532C199.94 20.924 198.908 19.712 197.156 19.712C196.388 19.712 195.644 20.012 195.032 20.6L195.668 17H194.972L193.376 26H194.084L194.252 25.076C194.72 25.82 195.548 26.24 196.532 26.24C198.548 26.24 199.94 24.572 199.94 22.532ZM197.036 20.384C198.38 20.384 199.184 21.32 199.184 22.556C199.184 24.272 198.056 25.568 196.496 25.568C195.512 25.568 194.78 25.04 194.396 24.212L194.876 21.524C195.428 20.744 196.232 20.384 197.036 20.384ZM205.754 23.432C205.514 24.812 204.818 25.568 203.726 25.568C202.502 25.568 201.878 24.812 202.13 23.432L202.742 19.952H202.034L201.434 23.384C201.11 25.232 202.058 26.24 203.69 26.24C205.202 26.24 206.138 25.232 206.462 23.444L207.074 19.952H206.366L205.754 23.432ZM208.153 26H208.861L209.617 21.728C210.205 20.96 210.781 20.504 211.585 20.504C211.801 20.504 211.945 20.54 212.113 20.588L212.233 19.904C212.065 19.844 211.873 19.832 211.681 19.832C210.889 19.832 210.337 20.204 209.773 20.852L209.929 19.952H209.221L208.153 26ZM215.061 26.24C216.213 26.24 217.173 25.772 217.785 25.016L217.293 24.56C216.813 25.196 216.009 25.592 215.085 25.592C213.717 25.592 212.985 24.644 212.985 23.372C212.985 23.18 212.997 22.988 213.021 22.796H217.881C217.977 22.484 218.013 22.172 218.013 21.908C218.013 20.672 217.017 19.712 215.577 19.712C213.453 19.712 212.241 21.416 212.241 23.36C212.241 24.956 213.213 26.24 215.061 26.24ZM215.565 20.324C216.777 20.324 217.425 21.26 217.281 22.232H213.141C213.477 21.14 214.293 20.324 215.565 20.324ZM220.743 26.168C221.631 26.168 222.303 25.82 222.867 25.196L222.723 26H223.407L224.127 22.028C224.379 20.612 223.599 19.712 222.123 19.712C221.115 19.712 220.251 20.192 219.663 20.852L220.191 21.296C220.695 20.732 221.367 20.36 222.099 20.36C223.059 20.36 223.611 20.912 223.431 21.932L223.347 22.412L221.079 22.796C219.675 23.024 218.931 23.672 218.931 24.668C218.931 25.616 219.663 26.168 220.743 26.168ZM219.675 24.608C219.675 23.936 220.203 23.492 221.223 23.324L223.251 22.976L222.999 24.392C222.447 25.112 221.763 25.556 220.851 25.556C220.107 25.556 219.675 25.16 219.675 24.608ZM230.235 23.432C229.995 24.812 229.299 25.568 228.207 25.568C226.983 25.568 226.359 24.812 226.611 23.432L227.223 19.952H226.515L225.915 23.384C225.591 25.232 226.539 26.24 228.171 26.24C229.683 26.24 230.619 25.232 230.943 23.444L231.555 19.952H230.847L230.235 23.432ZM235.808 23.42C235.808 25.028 236.816 26.24 238.568 26.24C239.348 26.24 240.104 25.916 240.716 25.304L240.596 26H241.304L242.888 17H242.192L241.508 20.888C241.028 20.132 240.188 19.712 239.204 19.712C237.212 19.712 235.808 21.38 235.808 23.42ZM236.552 23.396C236.552 21.68 237.692 20.384 239.252 20.384C240.248 20.384 240.98 20.924 241.352 21.764L240.872 24.44C240.32 25.208 239.516 25.568 238.712 25.568C237.368 25.568 236.552 24.632 236.552 23.396ZM246.303 26.24C247.455 26.24 248.415 25.772 249.027 25.016L248.535 24.56C248.055 25.196 247.251 25.592 246.327 25.592C244.959 25.592 244.227 24.644 244.227 23.372C244.227 23.18 244.239 22.988 244.263 22.796H249.123C249.219 22.484 249.255 22.172 249.255 21.908C249.255 20.672 248.259 19.712 246.819 19.712C244.695 19.712 243.483 21.416 243.483 23.36C243.483 24.956 244.455 26.24 246.303 26.24ZM246.807 20.324C248.019 20.324 248.667 21.26 248.523 22.232H244.383C244.719 21.14 245.535 20.324 246.807 20.324ZM253.719 19.952L255.039 26H255.975L259.419 19.952H258.627L255.603 25.292L254.463 19.952H253.719ZM263.126 19.712C261.002 19.712 259.55 21.44 259.55 23.36C259.55 24.956 260.594 26.24 262.406 26.24C264.518 26.24 265.97 24.512 265.97 22.592C265.97 20.996 264.926 19.712 263.126 19.712ZM262.418 25.568C261.122 25.568 260.306 24.584 260.306 23.372C260.306 21.788 261.458 20.384 263.102 20.384C264.398 20.384 265.226 21.368 265.226 22.58C265.226 24.164 264.062 25.568 262.418 25.568ZM267.653 23.984C267.365 25.568 268.085 26.12 269.285 26.12C269.645 26.12 269.945 26.06 270.209 25.952L270.329 25.304C270.065 25.388 269.789 25.46 269.417 25.46C268.649 25.46 268.145 25.196 268.361 24.02L268.961 20.588H271.157L271.265 19.952H269.081L269.345 18.44H268.625L268.361 19.952H267.257L267.137 20.588H268.253L267.653 23.984ZM274.253 26.24C275.405 26.24 276.365 25.772 276.977 25.016L276.485 24.56C276.005 25.196 275.201 25.592 274.277 25.592C272.909 25.592 272.177 24.644 272.177 23.372C272.177 23.18 272.189 22.988 272.213 22.796H277.073C277.169 22.484 277.205 22.172 277.205 21.908C277.205 20.672 276.209 19.712 274.769 19.712C272.645 19.712 271.433 21.416 271.433 23.36C271.433 24.956 272.405 26.24 274.253 26.24ZM274.757 20.324C275.969 20.324 276.617 21.26 276.473 22.232H272.333C272.669 21.14 273.485 20.324 274.757 20.324ZM9.76072 43H10.4567L12.0407 34H11.3447L9.76072 43ZM15.4967 43.24C16.6487 43.24 17.6087 42.772 18.2207 42.016L17.7287 41.56C17.2487 42.196 16.4447 42.592 15.5207 42.592C14.1527 42.592 13.4207 41.644 13.4207 40.372C13.4207 40.18 13.4327 39.988 13.4567 39.796H18.3167C18.4127 39.484 18.4487 39.172 18.4487 38.908C18.4487 37.672 17.4527 36.712 16.0127 36.712C13.8887 36.712 12.6767 38.416 12.6767 40.36C12.6767 41.956 13.6487 43.24 15.4967 43.24ZM16.0007 37.324C17.2127 37.324 17.8607 38.26 17.7167 39.232H13.5767C13.9127 38.14 14.7287 37.324 16.0007 37.324ZM22.2405 45.952H22.9365L23.6205 42.064C24.0885 42.82 24.9285 43.24 25.9125 43.24C27.9045 43.24 29.3085 41.572 29.3085 39.532C29.3085 37.924 28.3005 36.712 26.5485 36.712C25.7685 36.712 25.0125 37.036 24.4005 37.66L24.5205 36.952H23.8245L22.2405 45.952ZM26.4165 37.384C27.7485 37.384 28.5645 38.32 28.5645 39.556C28.5645 41.272 27.4245 42.568 25.8645 42.568C24.8925 42.568 24.1485 42.04 23.7765 41.2L24.2445 38.512C24.7965 37.744 25.6005 37.384 26.4165 37.384ZM30.4795 43H31.1755L32.7595 34H32.0635L30.4795 43ZM38.1235 40.432C37.8835 41.812 37.1875 42.568 36.0955 42.568C34.8715 42.568 34.2475 41.812 34.4995 40.432L35.1115 36.952H34.4035L33.8035 40.384C33.4795 42.232 34.4275 43.24 36.0595 43.24C37.5715 43.24 38.5075 42.232 38.8315 40.444L39.4435 36.952H38.7355L38.1235 40.432ZM41.6624 38.404C41.6624 37.852 42.1784 37.324 42.8984 37.324C43.4864 37.324 43.9184 37.648 44.1584 38.176L44.7344 37.804C44.4224 37.18 43.7624 36.712 42.9104 36.712C41.7944 36.712 40.9664 37.48 40.9664 38.428C40.9664 40.24 43.4024 40.072 43.4024 41.428C43.4024 42.112 42.8984 42.628 42.1424 42.628C41.5184 42.628 40.9664 42.34 40.5584 41.692L40.0064 42.088C40.4504 42.844 41.2424 43.24 42.1184 43.24C43.3064 43.24 44.1104 42.364 44.1104 41.416C44.1104 39.616 41.6624 39.772 41.6624 38.404ZM48.2796 45.952H48.9756L49.6596 42.064C50.1276 42.82 50.9676 43.24 51.9516 43.24C53.9436 43.24 55.3476 41.572 55.3476 39.532C55.3476 37.924 54.3396 36.712 52.5876 36.712C51.8076 36.712 51.0516 37.036 50.4396 37.66L50.5596 36.952H49.8636L48.2796 45.952ZM52.4556 37.384C53.7876 37.384 54.6036 38.32 54.6036 39.556C54.6036 41.272 53.4636 42.568 51.9036 42.568C50.9316 42.568 50.1876 42.04 49.8156 41.2L50.2836 38.512C50.8356 37.744 51.6396 37.384 52.4556 37.384ZM56.5065 43H57.2145L57.9705 38.728C58.5585 37.96 59.1345 37.504 59.9385 37.504C60.1545 37.504 60.2985 37.54 60.4665 37.588L60.5865 36.904C60.4185 36.844 60.2265 36.832 60.0345 36.832C59.2425 36.832 58.6905 37.204 58.1265 37.852L58.2825 36.952H57.5745L56.5065 43ZM64.1707 36.712C62.0467 36.712 60.5947 38.44 60.5947 40.36C60.5947 41.956 61.6387 43.24 63.4507 43.24C65.5627 43.24 67.0147 41.512 67.0147 39.592C67.0147 37.996 65.9707 36.712 64.1707 36.712ZM63.4627 42.568C62.1667 42.568 61.3507 41.584 61.3507 40.372C61.3507 38.788 62.5027 37.384 64.1467 37.384C65.4427 37.384 66.2707 38.368 66.2707 39.58C66.2707 41.164 65.1067 42.568 63.4627 42.568ZM71.7176 36.712C69.6296 36.712 68.1416 38.416 68.1416 40.36C68.1416 41.956 69.2096 43.24 71.0576 43.24C72.1376 43.24 72.9656 42.772 73.5416 42.064L73.0496 41.572C72.6056 42.172 71.9216 42.568 71.0576 42.568C69.7136 42.568 68.8976 41.584 68.8976 40.372C68.8976 38.788 70.0496 37.384 71.6696 37.384C72.5576 37.384 73.2056 37.828 73.5296 38.464L74.1416 38.02C73.7336 37.252 72.8696 36.712 71.7176 36.712ZM74.7995 43H75.5075L76.2755 38.644C76.8515 37.816 77.5955 37.384 78.4355 37.384C79.4915 37.384 80.0675 38.068 79.8395 39.316L79.1915 43H79.8995L80.5475 39.292C80.8475 37.624 79.9955 36.712 78.5795 36.712C77.7635 36.712 77.0435 37.072 76.4315 37.72L77.0915 34H76.3835L74.7995 43ZM84.8131 43.24C85.9651 43.24 86.9251 42.772 87.5371 42.016L87.0451 41.56C86.5651 42.196 85.7611 42.592 84.8371 42.592C83.4691 42.592 82.7371 41.644 82.7371 40.372C82.7371 40.18 82.7491 39.988 82.7731 39.796H87.6331C87.7291 39.484 87.7651 39.172 87.7651 38.908C87.7651 37.672 86.7691 36.712 85.3291 36.712C83.2051 36.712 81.9931 38.416 81.9931 40.36C81.9931 41.956 82.9651 43.24 84.8131 43.24ZM85.3171 37.324C86.5291 37.324 87.1771 38.26 87.0331 39.232H82.8931C83.2291 38.14 84.0451 37.324 85.3171 37.324ZM92.0129 40.42C92.0129 42.028 93.0209 43.24 94.7729 43.24C95.5529 43.24 96.3089 42.916 96.9209 42.304L96.8009 43H97.5089L99.0929 34H98.3969L97.7129 37.888C97.2329 37.132 96.3929 36.712 95.4089 36.712C93.4169 36.712 92.0129 38.38 92.0129 40.42ZM92.7569 40.396C92.7569 38.68 93.8969 37.384 95.4569 37.384C96.4529 37.384 97.1849 37.924 97.5569 38.764L97.0769 41.44C96.5249 42.208 95.7209 42.568 94.9169 42.568C93.5729 42.568 92.7569 41.632 92.7569 40.396ZM102.508 43.24C103.66 43.24 104.62 42.772 105.232 42.016L104.74 41.56C104.26 42.196 103.456 42.592 102.532 42.592C101.164 42.592 100.432 41.644 100.432 40.372C100.432 40.18 100.444 39.988 100.468 39.796H105.328C105.424 39.484 105.46 39.172 105.46 38.908C105.46 37.672 104.464 36.712 103.024 36.712C100.9 36.712 99.6884 38.416 99.6884 40.36C99.6884 41.956 100.66 43.24 102.508 43.24ZM103.012 37.324C104.224 37.324 104.872 38.26 104.728 39.232H100.588C100.924 38.14 101.74 37.324 103.012 37.324ZM113.272 36.712C111.184 36.712 109.696 38.416 109.696 40.36C109.696 41.956 110.764 43.24 112.612 43.24C113.692 43.24 114.52 42.772 115.096 42.064L114.604 41.572C114.16 42.172 113.476 42.568 112.612 42.568C111.268 42.568 110.452 41.584 110.452 40.372C110.452 38.788 111.604 37.384 113.224 37.384C114.112 37.384 114.76 37.828 115.084 38.464L115.696 38.02C115.288 37.252 114.424 36.712 113.272 36.712ZM116.354 43H117.062L117.83 38.644C118.406 37.816 119.15 37.384 119.99 37.384C121.046 37.384 121.622 38.068 121.394 39.316L120.746 43H121.454L122.102 39.292C122.402 37.624 121.55 36.712 120.134 36.712C119.318 36.712 118.598 37.072 117.986 37.72L118.646 34H117.938L116.354 43ZM126.368 43.24C127.52 43.24 128.48 42.772 129.092 42.016L128.6 41.56C128.12 42.196 127.316 42.592 126.392 42.592C125.024 42.592 124.292 41.644 124.292 40.372C124.292 40.18 124.304 39.988 124.328 39.796H129.188C129.284 39.484 129.32 39.172 129.32 38.908C129.32 37.672 128.324 36.712 126.884 36.712C124.76 36.712 123.548 38.416 123.548 40.36C123.548 41.956 124.52 43.24 126.368 43.24ZM126.872 37.324C128.084 37.324 128.732 38.26 128.588 39.232H124.448C124.784 38.14 125.6 37.324 126.872 37.324ZM129.758 43H134.402L134.51 42.364H130.73L135.278 37.588L135.386 36.952H130.898L130.79 37.588H134.402L129.866 42.364L129.758 43ZM139.96 40.984C139.672 42.568 140.392 43.12 141.592 43.12C141.952 43.12 142.252 43.06 142.516 42.952L142.636 42.304C142.372 42.388 142.096 42.46 141.724 42.46C140.956 42.46 140.452 42.196 140.668 41.02L141.268 37.588H143.464L143.572 36.952H141.388L141.652 35.44H140.932L140.668 36.952H139.564L139.444 37.588H140.56L139.96 40.984ZM147.315 36.712C145.191 36.712 143.739 38.44 143.739 40.36C143.739 41.956 144.783 43.24 146.595 43.24C148.707 43.24 150.159 41.512 150.159 39.592C150.159 37.996 149.115 36.712 147.315 36.712ZM146.607 42.568C145.311 42.568 144.495 41.584 144.495 40.372C144.495 38.788 145.647 37.384 147.291 37.384C148.587 37.384 149.415 38.368 149.415 39.58C149.415 41.164 148.251 42.568 146.607 42.568ZM153.148 35.044C153.448 35.044 153.688 34.816 153.688 34.504C153.688 34.216 153.448 33.976 153.148 33.976C152.848 33.976 152.608 34.216 152.608 34.504C152.608 34.816 152.848 35.044 153.148 35.044ZM151.312 43H152.008L153.076 36.952H152.368L151.312 43ZM154.864 43.132C155.212 43.132 155.464 42.88 155.464 42.544C155.464 42.208 155.212 41.956 154.864 41.956C154.528 41.956 154.276 42.208 154.276 42.544C154.276 42.88 154.528 43.132 154.864 43.132ZM162.784 36.58C162.784 35.752 163.492 35.056 164.428 35.056C165.268 35.056 165.808 35.464 166.132 36.148L166.756 35.704C166.348 34.912 165.628 34.36 164.452 34.36C163.048 34.36 161.992 35.392 161.992 36.616C161.992 38.956 165.112 38.956 165.112 40.876C165.112 41.776 164.428 42.532 163.312 42.532C162.52 42.532 161.86 42.196 161.308 41.38L160.696 41.836C161.32 42.808 162.172 43.24 163.3 43.24C164.86 43.24 165.904 42.184 165.904 40.828C165.904 38.464 162.784 38.464 162.784 36.58ZM169.46 35.044C169.76 35.044 170 34.816 170 34.504C170 34.216 169.76 33.976 169.46 33.976C169.16 33.976 168.92 34.216 168.92 34.504C168.92 34.816 169.16 35.044 169.46 35.044ZM167.624 43H168.32L169.388 36.952H168.68L167.624 43ZM174.518 40.984C174.23 42.568 174.95 43.12 176.15 43.12C176.51 43.12 176.81 43.06 177.074 42.952L177.194 42.304C176.93 42.388 176.654 42.46 176.282 42.46C175.514 42.46 175.01 42.196 175.226 41.02L175.826 37.588H178.022L178.13 36.952H175.946L176.21 35.44H175.49L175.226 36.952H174.122L174.002 37.588H175.118L174.518 40.984ZM183.202 40.432C182.962 41.812 182.266 42.568 181.174 42.568C179.95 42.568 179.326 41.812 179.578 40.432L180.19 36.952H179.482L178.882 40.384C178.558 42.232 179.506 43.24 181.138 43.24C182.65 43.24 183.586 42.232 183.91 40.444L184.522 36.952H183.814L183.202 40.432ZM188.835 43H189.543L190.299 38.656C190.887 37.816 191.631 37.384 192.471 37.384C193.527 37.384 194.103 38.068 193.875 39.316L193.227 43H193.935L194.583 39.292C194.883 37.624 194.031 36.712 192.615 36.712C191.799 36.712 191.079 37.072 190.467 37.732L190.599 36.952H189.903L188.835 43ZM198.848 43.24C200 43.24 200.96 42.772 201.572 42.016L201.08 41.56C200.6 42.196 199.796 42.592 198.872 42.592C197.504 42.592 196.772 41.644 196.772 40.372C196.772 40.18 196.784 39.988 196.808 39.796H201.668C201.764 39.484 201.8 39.172 201.8 38.908C201.8 37.672 200.804 36.712 199.364 36.712C197.24 36.712 196.028 38.416 196.028 40.36C196.028 41.956 197 43.24 198.848 43.24ZM199.352 37.324C200.564 37.324 201.212 38.26 201.068 39.232H196.928C197.264 38.14 198.08 37.324 199.352 37.324ZM209.612 36.712C207.524 36.712 206.036 38.416 206.036 40.36C206.036 41.956 207.104 43.24 208.952 43.24C210.032 43.24 210.86 42.772 211.436 42.064L210.944 41.572C210.5 42.172 209.816 42.568 208.952 42.568C207.608 42.568 206.792 41.584 206.792 40.372C206.792 38.788 207.944 37.384 209.564 37.384C210.452 37.384 211.1 37.828 211.424 38.464L212.036 38.02C211.628 37.252 210.764 36.712 209.612 36.712ZM215.975 36.712C213.851 36.712 212.399 38.44 212.399 40.36C212.399 41.956 213.443 43.24 215.255 43.24C217.367 43.24 218.819 41.512 218.819 39.592C218.819 37.996 217.775 36.712 215.975 36.712ZM215.267 42.568C213.971 42.568 213.155 41.584 213.155 40.372C213.155 38.788 214.307 37.384 215.951 37.384C217.247 37.384 218.075 38.368 218.075 39.58C218.075 41.164 216.911 42.568 215.267 42.568ZM219.96 43H220.668L221.424 38.656C222.012 37.816 222.756 37.384 223.596 37.384C224.652 37.384 225.228 38.068 225 39.316L224.352 43H225.06L225.708 39.292C226.008 37.624 225.156 36.712 223.74 36.712C222.924 36.712 222.204 37.072 221.592 37.732L221.724 36.952H221.028L219.96 43ZM227.225 43H227.933L228.689 38.656C229.277 37.816 230.021 37.384 230.861 37.384C231.917 37.384 232.493 38.068 232.265 39.316L231.617 43H232.325L232.973 39.292C233.273 37.624 232.421 36.712 231.005 36.712C230.189 36.712 229.469 37.072 228.857 37.732L228.989 36.952H228.293L227.225 43ZM236.171 43.168C237.059 43.168 237.731 42.82 238.295 42.196L238.151 43H238.835L239.555 39.028C239.807 37.612 239.027 36.712 237.551 36.712C236.543 36.712 235.679 37.192 235.091 37.852L235.619 38.296C236.123 37.732 236.795 37.36 237.527 37.36C238.487 37.36 239.039 37.912 238.859 38.932L238.775 39.412L236.507 39.796C235.103 40.024 234.359 40.672 234.359 41.668C234.359 42.616 235.091 43.168 236.171 43.168ZM235.103 41.608C235.103 40.936 235.631 40.492 236.651 40.324L238.679 39.976L238.427 41.392C237.875 42.112 237.191 42.556 236.279 42.556C235.535 42.556 235.103 42.16 235.103 41.608ZM242.855 35.044C243.155 35.044 243.395 34.816 243.395 34.504C243.395 34.216 243.155 33.976 242.855 33.976C242.555 33.976 242.315 34.216 242.315 34.504C242.315 34.816 242.555 35.044 242.855 35.044ZM241.019 43H241.715L242.783 36.952H242.075L241.019 43ZM245.147 38.404C245.147 37.852 245.663 37.324 246.383 37.324C246.971 37.324 247.403 37.648 247.643 38.176L248.219 37.804C247.907 37.18 247.247 36.712 246.395 36.712C245.279 36.712 244.451 37.48 244.451 38.428C244.451 40.24 246.887 40.072 246.887 41.428C246.887 42.112 246.383 42.628 245.627 42.628C245.003 42.628 244.451 42.34 244.043 41.692L243.491 42.088C243.935 42.844 244.727 43.24 245.603 43.24C246.791 43.24 247.595 42.364 247.595 41.416C247.595 39.616 245.147 39.772 245.147 38.404ZM251.764 45.952H252.46L253.144 42.064C253.612 42.82 254.452 43.24 255.436 43.24C257.428 43.24 258.832 41.572 258.832 39.532C258.832 37.924 257.824 36.712 256.072 36.712C255.292 36.712 254.536 37.036 253.924 37.66L254.044 36.952H253.348L251.764 45.952ZM255.94 37.384C257.272 37.384 258.088 38.32 258.088 39.556C258.088 41.272 256.948 42.568 255.388 42.568C254.416 42.568 253.672 42.04 253.3 41.2L253.768 38.512C254.32 37.744 255.124 37.384 255.94 37.384ZM261.589 43.168C262.477 43.168 263.149 42.82 263.713 42.196L263.569 43H264.253L264.973 39.028C265.225 37.612 264.445 36.712 262.969 36.712C261.961 36.712 261.097 37.192 260.509 37.852L261.037 38.296C261.541 37.732 262.213 37.36 262.945 37.36C263.905 37.36 264.457 37.912 264.277 38.932L264.193 39.412L261.925 39.796C260.521 40.024 259.777 40.672 259.777 41.668C259.777 42.616 260.509 43.168 261.589 43.168ZM260.521 41.608C260.521 40.936 261.049 40.492 262.069 40.324L264.097 39.976L263.845 41.392C263.293 42.112 262.609 42.556 261.697 42.556C260.953 42.556 260.521 42.16 260.521 41.608ZM267.576 38.404C267.576 37.852 268.093 37.324 268.812 37.324C269.401 37.324 269.833 37.648 270.073 38.176L270.649 37.804C270.337 37.18 269.677 36.712 268.825 36.712C267.709 36.712 266.881 37.48 266.881 38.428C266.881 40.24 269.317 40.072 269.317 41.428C269.317 42.112 268.812 42.628 268.057 42.628C267.433 42.628 266.881 42.34 266.473 41.692L265.921 42.088C266.365 42.844 267.157 43.24 268.033 43.24C269.221 43.24 270.025 42.364 270.025 41.416C270.025 39.616 267.576 39.772 267.576 38.404ZM12.3564 60H13.0524L14.6364 51H13.9404L12.3564 60ZM16.5679 54.672L18.2239 51.6H17.3839L15.8959 54.672H16.5679ZM19.8135 60.168C20.7015 60.168 21.3735 59.82 21.9375 59.196L21.7935 60H22.4775L23.1975 56.028C23.4495 54.612 22.6695 53.712 21.1935 53.712C20.1855 53.712 19.3215 54.192 18.7335 54.852L19.2615 55.296C19.7655 54.732 20.4375 54.36 21.1695 54.36C22.1295 54.36 22.6815 54.912 22.5015 55.932L22.4175 56.412L20.1495 56.796C18.7455 57.024 18.0015 57.672 18.0015 58.668C18.0015 59.616 18.7335 60.168 19.8135 60.168ZM18.7455 58.608C18.7455 57.936 19.2735 57.492 20.2935 57.324L22.3215 56.976L22.0695 58.392C21.5175 59.112 20.8335 59.556 19.9215 59.556C19.1775 59.556 18.7455 59.16 18.7455 58.608ZM24.5891 57.42C24.5891 59.028 25.5971 60.24 27.3491 60.24C28.1291 60.24 28.8851 59.916 29.4971 59.304L29.3771 60H30.0851L31.6691 51H30.9731L30.2891 54.888C29.8091 54.132 28.9691 53.712 27.9851 53.712C25.9931 53.712 24.5891 55.38 24.5891 57.42ZM25.3331 57.396C25.3331 55.68 26.4731 54.384 28.0331 54.384C29.0291 54.384 29.7611 54.924 30.1331 55.764L29.6531 58.44C29.1011 59.208 28.2971 59.568 27.4931 59.568C26.1491 59.568 25.3331 58.632 25.3331 57.396ZM32.3366 60H33.0446L33.8006 55.728C34.3886 54.96 34.9646 54.504 35.7686 54.504C35.9846 54.504 36.1286 54.54 36.2966 54.588L36.4166 53.904C36.2486 53.844 36.0566 53.832 35.8646 53.832C35.0726 53.832 34.5206 54.204 33.9566 54.852L34.1126 53.952H33.4046L32.3366 60ZM39.2448 60.24C40.3968 60.24 41.3568 59.772 41.9688 59.016L41.4768 58.56C40.9968 59.196 40.1928 59.592 39.2688 59.592C37.9008 59.592 37.1688 58.644 37.1688 57.372C37.1688 57.18 37.1808 56.988 37.2048 56.796H42.0648C42.1608 56.484 42.1968 56.172 42.1968 55.908C42.1968 54.672 41.2008 53.712 39.7608 53.712C37.6368 53.712 36.4248 55.416 36.4248 57.36C36.4248 58.956 37.3968 60.24 39.2448 60.24ZM39.7488 54.324C40.9608 54.324 41.6088 55.26 41.4648 56.232H37.3248C37.6608 55.14 38.4768 54.324 39.7488 54.324ZM44.3988 55.404C44.3988 54.852 44.9148 54.324 45.6348 54.324C46.2228 54.324 46.6548 54.648 46.8948 55.176L47.4708 54.804C47.1588 54.18 46.4988 53.712 45.6468 53.712C44.5308 53.712 43.7028 54.48 43.7028 55.428C43.7028 57.24 46.1388 57.072 46.1388 58.428C46.1388 59.112 45.6348 59.628 44.8788 59.628C44.2548 59.628 43.7028 59.34 43.2948 58.692L42.7428 59.088C43.1868 59.844 43.9788 60.24 44.8548 60.24C46.0428 60.24 46.8468 59.364 46.8468 58.416C46.8468 56.616 44.3988 56.772 44.3988 55.404ZM49.4144 55.404C49.4144 54.852 49.9304 54.324 50.6504 54.324C51.2384 54.324 51.6704 54.648 51.9104 55.176L52.4864 54.804C52.1744 54.18 51.5144 53.712 50.6624 53.712C49.5464 53.712 48.7184 54.48 48.7184 55.428C48.7184 57.24 51.1544 57.072 51.1544 58.428C51.1544 59.112 50.6504 59.628 49.8944 59.628C49.2704 59.628 48.7184 59.34 48.3104 58.692L47.7584 59.088C48.2024 59.844 48.9944 60.24 49.8704 60.24C51.0584 60.24 51.8624 59.364 51.8624 58.416C51.8624 56.616 49.4144 56.772 49.4144 55.404ZM55.9205 60.24C57.0725 60.24 58.0325 59.772 58.6445 59.016L58.1525 58.56C57.6725 59.196 56.8685 59.592 55.9445 59.592C54.5765 59.592 53.8445 58.644 53.8445 57.372C53.8445 57.18 53.8565 56.988 53.8805 56.796H58.7405C58.8365 56.484 58.8725 56.172 58.8725 55.908C58.8725 54.672 57.8765 53.712 56.4365 53.712C54.3125 53.712 53.1005 55.416 53.1005 57.36C53.1005 58.956 54.0725 60.24 55.9205 60.24ZM56.4245 54.324C57.6365 54.324 58.2845 55.26 58.1405 56.232H54.0005C54.3365 55.14 55.1525 54.324 56.4245 54.324ZM63.1204 57.42C63.1204 59.028 64.1284 60.24 65.8804 60.24C66.6604 60.24 67.4164 59.916 68.0284 59.304L67.9084 60H68.6164L70.2004 51H69.5044L68.8204 54.888C68.3404 54.132 67.5004 53.712 66.5164 53.712C64.5244 53.712 63.1204 55.38 63.1204 57.42ZM63.8644 57.396C63.8644 55.68 65.0044 54.384 66.5644 54.384C67.5604 54.384 68.2924 54.924 68.6644 55.764L68.1844 58.44C67.6324 59.208 66.8284 59.568 66.0244 59.568C64.6804 59.568 63.8644 58.632 63.8644 57.396ZM73.6159 60.24C74.7679 60.24 75.7279 59.772 76.3399 59.016L75.8479 58.56C75.3679 59.196 74.5639 59.592 73.6399 59.592C72.2719 59.592 71.5399 58.644 71.5399 57.372C71.5399 57.18 71.5519 56.988 71.5759 56.796H76.4359C76.5319 56.484 76.5679 56.172 76.5679 55.908C76.5679 54.672 75.5719 53.712 74.1319 53.712C72.0079 53.712 70.7959 55.416 70.7959 57.36C70.7959 58.956 71.7679 60.24 73.6159 60.24ZM74.1199 54.324C75.3319 54.324 75.9799 55.26 75.8359 56.232H71.6959C72.0319 55.14 72.8479 54.324 74.1199 54.324ZM81.5477 57.984C81.2597 59.568 81.9797 60.12 83.1797 60.12C83.5397 60.12 83.8397 60.06 84.1037 59.952L84.2237 59.304C83.9597 59.388 83.6837 59.46 83.3117 59.46C82.5437 59.46 82.0397 59.196 82.2557 58.02L82.8557 54.588H85.0517L85.1597 53.952H82.9757L83.2397 52.44H82.5197L82.2557 53.952H81.1517L81.0317 54.588H82.1477L81.5477 57.984ZM88.9031 53.712C86.7791 53.712 85.3271 55.44 85.3271 57.36C85.3271 58.956 86.3711 60.24 88.1831 60.24C90.2951 60.24 91.7471 58.512 91.7471 56.592C91.7471 54.996 90.7031 53.712 88.9031 53.712ZM88.1951 59.568C86.8991 59.568 86.0831 58.584 86.0831 57.372C86.0831 55.788 87.2351 54.384 88.8791 54.384C90.1751 54.384 91.0031 55.368 91.0031 56.58C91.0031 58.164 89.8391 59.568 88.1951 59.568ZM92.8874 60H93.5954L94.3514 55.656C94.9394 54.816 95.6834 54.384 96.5234 54.384C97.5794 54.384 98.1554 55.068 97.9274 56.316L97.2794 60H97.9874L98.6354 56.292C98.9354 54.624 98.0834 53.712 96.6674 53.712C95.8514 53.712 95.1314 54.072 94.5194 54.732L94.6514 53.952H93.9554L92.8874 60ZM109.951 56.532C109.951 54.924 108.919 53.712 107.167 53.712C106.399 53.712 105.655 54.012 105.043 54.6L105.679 51H104.983L103.387 60H104.095L104.263 59.076C104.731 59.82 105.559 60.24 106.543 60.24C108.559 60.24 109.951 58.572 109.951 56.532ZM107.047 54.384C108.391 54.384 109.195 55.32 109.195 56.556C109.195 58.272 108.067 59.568 106.507 59.568C105.523 59.568 104.791 59.04 104.407 58.212L104.887 55.524C105.439 54.744 106.243 54.384 107.047 54.384ZM115.766 57.432C115.526 58.812 114.83 59.568 113.738 59.568C112.514 59.568 111.89 58.812 112.142 57.432L112.754 53.952H112.046L111.446 57.384C111.122 59.232 112.07 60.24 113.702 60.24C115.214 60.24 116.15 59.232 116.474 57.444L117.086 53.952H116.378L115.766 57.432ZM118.165 60H118.873L119.629 55.728C120.217 54.96 120.793 54.504 121.597 54.504C121.813 54.504 121.957 54.54 122.125 54.588L122.245 53.904C122.077 53.844 121.885 53.832 121.693 53.832C120.901 53.832 120.349 54.204 119.785 54.852L119.941 53.952H119.233L118.165 60ZM125.073 60.24C126.225 60.24 127.185 59.772 127.797 59.016L127.305 58.56C126.825 59.196 126.021 59.592 125.097 59.592C123.729 59.592 122.997 58.644 122.997 57.372C122.997 57.18 123.009 56.988 123.033 56.796H127.893C127.989 56.484 128.025 56.172 128.025 55.908C128.025 54.672 127.029 53.712 125.589 53.712C123.465 53.712 122.253 55.416 122.253 57.36C122.253 58.956 123.225 60.24 125.073 60.24ZM125.577 54.324C126.789 54.324 127.437 55.26 127.293 56.232H123.153C123.489 55.14 124.305 54.324 125.577 54.324ZM130.755 60.168C131.643 60.168 132.315 59.82 132.879 59.196L132.735 60H133.419L134.139 56.028C134.391 54.612 133.611 53.712 132.135 53.712C131.127 53.712 130.263 54.192 129.675 54.852L130.203 55.296C130.707 54.732 131.379 54.36 132.111 54.36C133.071 54.36 133.623 54.912 133.443 55.932L133.359 56.412L131.091 56.796C129.687 57.024 128.943 57.672 128.943 58.668C128.943 59.616 129.675 60.168 130.755 60.168ZM129.687 58.608C129.687 57.936 130.215 57.492 131.235 57.324L133.263 56.976L133.011 58.392C132.459 59.112 131.775 59.556 130.863 59.556C130.119 59.556 129.687 59.16 129.687 58.608ZM140.247 57.432C140.007 58.812 139.311 59.568 138.219 59.568C136.995 59.568 136.371 58.812 136.623 57.432L137.235 53.952H136.527L135.927 57.384C135.603 59.232 136.551 60.24 138.183 60.24C139.695 60.24 140.631 59.232 140.955 57.444L141.567 53.952H140.859L140.247 57.432ZM142.069 61.92L143.701 59.004H142.849L141.385 61.92H142.069ZM149.282 57.984C148.994 59.568 149.714 60.12 150.914 60.12C151.274 60.12 151.574 60.06 151.838 59.952L151.958 59.304C151.694 59.388 151.418 59.46 151.046 59.46C150.278 59.46 149.774 59.196 149.99 58.02L150.59 54.588H152.786L152.894 53.952H150.71L150.974 52.44H150.254L149.99 53.952H148.886L148.766 54.588H149.882L149.282 57.984ZM157.965 57.432C157.725 58.812 157.029 59.568 155.937 59.568C154.713 59.568 154.089 58.812 154.341 57.432L154.953 53.952H154.245L153.645 57.384C153.321 59.232 154.269 60.24 155.901 60.24C157.413 60.24 158.349 59.232 158.673 57.444L159.285 53.952H158.577L157.965 57.432ZM163.082 62.952H163.778L164.462 59.064C164.93 59.82 165.77 60.24 166.754 60.24C168.746 60.24 170.15 58.572 170.15 56.532C170.15 54.924 169.142 53.712 167.39 53.712C166.61 53.712 165.854 54.036 165.242 54.66L165.362 53.952H164.666L163.082 62.952ZM167.258 54.384C168.59 54.384 169.406 55.32 169.406 56.556C169.406 58.272 168.266 59.568 166.706 59.568C165.734 59.568 164.99 59.04 164.618 58.2L165.086 55.512C165.638 54.744 166.442 54.384 167.258 54.384ZM174.116 60.24C175.268 60.24 176.228 59.772 176.84 59.016L176.348 58.56C175.868 59.196 175.064 59.592 174.14 59.592C172.772 59.592 172.04 58.644 172.04 57.372C172.04 57.18 172.052 56.988 172.076 56.796H176.936C177.032 56.484 177.068 56.172 177.068 55.908C177.068 54.672 176.072 53.712 174.632 53.712C172.508 53.712 171.296 55.416 171.296 57.36C171.296 58.956 172.268 60.24 174.116 60.24ZM174.62 54.324C175.832 54.324 176.48 55.26 176.336 56.232H172.196C172.532 55.14 173.348 54.324 174.62 54.324ZM182.692 57.432C182.452 58.812 181.756 59.568 180.664 59.568C179.44 59.568 178.816 58.812 179.068 57.432L179.68 53.952H178.972L178.372 57.384C178.048 59.232 178.996 60.24 180.628 60.24C182.14 60.24 183.076 59.232 183.4 57.444L184.012 53.952H183.304L182.692 57.432ZM185.032 60L187.372 57.324L188.824 60H189.592L187.9 56.904L190.48 53.952H189.628L187.516 56.364L186.208 53.952H185.44L186.988 56.796L184.192 60H185.032ZM194.267 60H194.963L196.547 51H195.851L194.267 60ZM200.003 60.24C201.155 60.24 202.115 59.772 202.727 59.016L202.235 58.56C201.755 59.196 200.951 59.592 200.027 59.592C198.659 59.592 197.927 58.644 197.927 57.372C197.927 57.18 197.939 56.988 197.963 56.796H202.823C202.919 56.484 202.955 56.172 202.955 55.908C202.955 54.672 201.959 53.712 200.519 53.712C198.395 53.712 197.183 55.416 197.183 57.36C197.183 58.956 198.155 60.24 200.003 60.24ZM200.507 54.324C201.719 54.324 202.367 55.26 202.223 56.232H198.083C198.419 55.14 199.235 54.324 200.507 54.324ZM207.418 53.952L208.738 60H209.674L213.118 53.952H212.326L209.302 59.292L208.162 53.952H207.418ZM217.197 52.992L218.889 51H218.025L216.465 52.992H217.197ZM216.069 60.24C217.221 60.24 218.181 59.772 218.793 59.016L218.301 58.56C217.821 59.196 217.017 59.592 216.093 59.592C214.725 59.592 213.993 58.644 213.993 57.372C213.993 57.18 214.005 56.988 214.029 56.796H218.889C218.985 56.484 219.021 56.172 219.021 55.908C219.021 54.672 218.025 53.712 216.585 53.712C214.461 53.712 213.249 55.416 213.249 57.36C213.249 58.956 214.221 60.24 216.069 60.24ZM216.573 54.324C217.785 54.324 218.433 55.26 218.289 56.232H214.149C214.485 55.14 215.301 54.324 216.573 54.324ZM220.094 60H220.802L221.558 55.728C222.146 54.96 222.722 54.504 223.526 54.504C223.742 54.504 223.886 54.54 224.054 54.588L224.174 53.904C224.006 53.844 223.814 53.832 223.622 53.832C222.83 53.832 222.278 54.204 221.714 54.852L221.87 53.952H221.162L220.094 60ZM226.501 52.044C226.801 52.044 227.041 51.816 227.041 51.504C227.041 51.216 226.801 50.976 226.501 50.976C226.201 50.976 225.961 51.216 225.961 51.504C225.961 51.816 226.201 52.044 226.501 52.044ZM224.665 60H225.361L226.429 53.952H225.721L224.665 60ZM227.929 53.952L227.809 54.588H228.925L227.461 62.952H228.181L229.633 54.588H231.829L231.937 53.952H229.741L229.897 53.064C230.065 52.08 230.665 51.648 231.349 51.648C231.733 51.648 232.033 51.768 232.285 51.96L232.669 51.396C232.381 51.204 231.949 51 231.349 51C230.293 51 229.441 51.636 229.189 53.064L229.033 53.952H227.929ZM233.978 52.044C234.278 52.044 234.518 51.816 234.518 51.504C234.518 51.216 234.278 50.976 233.978 50.976C233.678 50.976 233.438 51.216 233.438 51.504C233.438 51.816 233.678 52.044 233.978 52.044ZM232.142 60H232.838L233.906 53.952H233.198L232.142 60ZM237.878 60.24C239.03 60.24 239.99 59.772 240.602 59.016L240.11 58.56C239.63 59.196 238.826 59.592 237.902 59.592C236.534 59.592 235.802 58.644 235.802 57.372C235.802 57.18 235.814 56.988 235.838 56.796H240.698C240.794 56.484 240.83 56.172 240.83 55.908C240.83 54.672 239.834 53.712 238.394 53.712C236.27 53.712 235.058 55.416 235.058 57.36C235.058 58.956 236.03 60.24 237.878 60.24ZM238.382 54.324C239.594 54.324 240.242 55.26 240.098 56.232H235.958C236.294 55.14 237.11 54.324 238.382 54.324ZM241.903 60H242.611L243.367 55.728C243.955 54.96 244.531 54.504 245.335 54.504C245.551 54.504 245.695 54.54 245.863 54.588L245.983 53.904C245.815 53.844 245.623 53.832 245.431 53.832C244.639 53.832 244.087 54.204 243.523 54.852L243.679 53.952H242.971L241.903 60ZM251.544 52.044C251.844 52.044 252.084 51.816 252.084 51.504C252.084 51.216 251.844 50.976 251.544 50.976C251.244 50.976 251.004 51.216 251.004 51.504C251.004 51.816 251.244 52.044 251.544 52.044ZM249.708 60H250.404L251.472 53.952H250.764L249.708 60ZM256.2 53.712C254.112 53.712 252.624 55.416 252.624 57.36C252.624 58.956 253.692 60.24 255.54 60.24C256.62 60.24 257.448 59.772 258.024 59.064L257.532 58.572C257.088 59.172 256.404 59.568 255.54 59.568C254.196 59.568 253.38 58.584 253.38 57.372C253.38 55.788 254.532 54.384 256.152 54.384C257.04 54.384 257.688 54.828 258.012 55.464L258.624 55.02C258.216 54.252 257.352 53.712 256.2 53.712ZM261.13 52.044C261.43 52.044 261.67 51.816 261.67 51.504C261.67 51.216 261.43 50.976 261.13 50.976C260.83 50.976 260.59 51.216 260.59 51.504C260.59 51.816 260.83 52.044 261.13 52.044ZM259.294 60H259.99L261.058 53.952H260.35L259.294 60ZM266.176 57.72H266.74L267.928 51.6H267.136L266.176 57.72ZM266.14 60.132C266.476 60.132 266.74 59.88 266.74 59.544C266.74 59.208 266.476 58.956 266.14 58.956C265.792 58.956 265.54 59.208 265.54 59.544C265.54 59.88 265.792 60.132 266.14 60.132Z" fill="#555555" fill-opacity="0.5"/>
</svg>
