<svg width="279" height="46" viewBox="0 0 279 46" fill="none" xmlns="http://www.w3.org/2000/svg">
<path d="M102.233 9H103.745L105.029 6.648H108.521L108.965 9H110.393L108.701 0.599999H106.877L102.233 9ZM105.665 5.472L107.609 1.896L108.293 5.472H105.665ZM111.454 1.86H114.058L112.798 9H114.178L115.438 1.86H118.042L118.27 0.599999H111.67L111.454 1.86ZM119.153 1.86H121.757L120.497 9H121.877L123.137 1.86H125.741L125.969 0.599999H119.369L119.153 1.86ZM126.128 9H130.688L130.892 7.836H127.712L128.156 5.304H130.88L131.084 4.14H128.36L128.78 1.764H131.972L132.176 0.599999H127.604L126.128 9ZM132.796 9H134.176L135.352 2.316L138.304 9H140.068L141.556 0.599999H140.176L138.988 7.296L136.036 0.599999H134.272L132.796 9ZM142.966 1.86H145.57L144.31 9H145.69L146.95 1.86H149.554L149.782 0.599999H143.182L142.966 1.86ZM149.941 9H151.321L152.797 0.599999H151.417L149.941 9ZM158.56 0.36C155.704 0.36 153.772 2.676 153.772 5.34C153.772 7.656 155.404 9.24 157.72 9.24C160.576 9.24 162.52 6.924 162.52 4.26C162.52 1.944 160.888 0.36 158.56 0.36ZM157.768 7.944C156.16 7.944 155.212 6.72 155.212 5.232C155.212 3.24 156.58 1.656 158.524 1.656C160.132 1.656 161.08 2.88 161.08 4.368C161.08 6.36 159.712 7.944 157.768 7.944ZM163.499 9H164.879L166.055 2.316L169.007 9H170.771L172.259 0.599999H170.879L169.691 7.296L166.739 0.599999H164.975L163.499 9ZM177.095 6.444H178.019L179.291 0.599999H177.875L177.095 6.444ZM177.251 9.144C177.731 9.144 178.139 8.748 178.139 8.256C178.139 7.776 177.731 7.368 177.251 7.368C176.747 7.368 176.351 7.776 176.351 8.256C176.351 8.748 176.747 9.144 177.251 9.144ZM0.823031 18.86H3.42703L2.16703 26H3.54703L4.80703 18.86H7.41103L7.63903 17.6H1.03903L0.823031 18.86ZM11.2936 23.408C11.1016 24.488 10.5496 25.076 9.69759 25.076C8.72559 25.076 8.25759 24.464 8.44959 23.408L9.06159 19.952H7.81359L7.22559 23.264C6.88959 25.172 7.89759 26.24 9.60159 26.24C11.2696 26.24 12.2176 25.22 12.5416 23.408L13.1536 19.952H11.9056L11.2936 23.408ZM17.1195 26H18.3555L19.0755 21.908L19.0875 21.92C19.4595 21.356 20.0475 20.876 20.7915 20.876C21.6315 20.876 22.0515 21.452 21.8835 22.412L21.2475 26H22.4835L23.1315 22.364C23.4315 20.612 22.5675 19.712 21.1995 19.712C20.4315 19.712 19.8315 20.036 19.3275 20.504L19.4235 19.952H18.1875L17.1195 26ZM25.7799 20.924L27.6399 17.6H26.1879L24.5799 20.924H25.7799ZM29.8678 26.24C30.9958 26.24 31.9678 25.784 32.6038 25.04L31.7758 24.248C31.3678 24.776 30.7078 25.124 29.9518 25.124C28.8478 25.124 28.2358 24.464 28.2358 23.348C28.2358 23.276 28.2358 23.192 28.2478 23.12H32.6398C32.7598 22.82 32.8438 22.364 32.8438 22.016C32.8438 20.684 31.7758 19.712 30.3118 19.712C28.2118 19.712 26.9638 21.368 26.9638 23.348C26.9638 24.992 28.0078 26.24 29.8678 26.24ZM30.2878 20.744C31.2718 20.744 31.7158 21.476 31.6198 22.196H28.4038C28.6918 21.344 29.3158 20.744 30.2878 20.744ZM35.3118 21.512C35.3118 21.104 35.6838 20.72 36.2238 20.72C36.7518 20.72 37.1118 21.044 37.3518 21.5L38.2638 20.816C37.9278 20.192 37.1718 19.712 36.2598 19.712C34.9398 19.712 34.1118 20.576 34.1118 21.572C34.1118 23.408 36.4518 23.264 36.4518 24.356C36.4518 24.848 36.0918 25.232 35.5398 25.232C34.9758 25.232 34.5078 24.932 34.1358 24.356L33.2358 25.04C33.7038 25.796 34.5078 26.24 35.4798 26.24C36.8598 26.24 37.6638 25.28 37.6638 24.296C37.6638 22.472 35.3118 22.604 35.3118 21.512ZM41.5293 28.952H42.7653L43.4013 25.352C43.8813 25.916 44.6253 26.24 45.4653 26.24C47.4693 26.24 48.8253 24.5 48.8253 22.556C48.8253 20.888 47.9013 19.712 46.1733 19.712C45.4533 19.712 44.8173 19.988 44.2533 20.492L44.3493 19.952H43.1133L41.5293 28.952ZM45.8133 20.876C46.8813 20.876 47.5173 21.632 47.5173 22.628C47.5173 23.984 46.6413 25.076 45.3693 25.076C44.5533 25.076 43.9653 24.656 43.6533 23.924L44.0253 21.812C44.4813 21.176 45.1293 20.876 45.8133 20.876ZM51.3447 26.18C52.0887 26.18 52.7127 25.904 53.1447 25.424L53.0487 26H54.2847L54.9447 22.292C55.2207 20.768 54.4767 19.712 52.7607 19.712C51.6567 19.712 50.7567 20.216 50.2167 20.864L51.1047 21.608C51.5367 21.128 52.0767 20.804 52.6887 20.804C53.4567 20.804 53.8767 21.272 53.7447 22.04L53.6967 22.292L51.6087 22.64C50.1447 22.892 49.4727 23.636 49.4727 24.596C49.4727 25.616 50.2527 26.18 51.3447 26.18ZM50.7447 24.452C50.7447 23.984 51.0807 23.612 51.8607 23.48L53.5407 23.192L53.3487 24.296C52.9407 24.848 52.3527 25.172 51.6567 25.172C51.0567 25.172 50.7447 24.884 50.7447 24.452ZM57.8235 21.512C57.8235 21.104 58.1955 20.72 58.7355 20.72C59.2635 20.72 59.6235 21.044 59.8635 21.5L60.7755 20.816C60.4395 20.192 59.6835 19.712 58.7715 19.712C57.4515 19.712 56.6235 20.576 56.6235 21.572C56.6235 23.408 58.9635 23.264 58.9635 24.356C58.9635 24.848 58.6035 25.232 58.0515 25.232C57.4875 25.232 57.0195 24.932 56.6475 24.356L55.7475 25.04C56.2155 25.796 57.0195 26.24 57.9915 26.24C59.3715 26.24 60.1755 25.28 60.1755 24.296C60.1755 22.472 57.8235 22.604 57.8235 21.512ZM64.881 19.952L64.677 21.068H65.781L64.401 28.952H65.661L67.041 21.068H68.961L69.153 19.952H67.233L67.365 19.184C67.485 18.476 67.917 18.116 68.457 18.116C68.781 18.116 69.033 18.236 69.237 18.392L69.897 17.42C69.561 17.192 69.093 17 68.445 17C67.221 17 66.369 17.744 66.117 19.184L65.985 19.952H64.881ZM72.4812 19.712C70.2972 19.712 68.8932 21.428 68.8932 23.348C68.8932 24.992 69.9852 26.24 71.8332 26.24C74.0052 26.24 75.4092 24.524 75.4092 22.604C75.4092 20.96 74.3172 19.712 72.4812 19.712ZM71.8692 25.076C70.8612 25.076 70.2012 24.332 70.2012 23.348C70.2012 22.052 71.0772 20.876 72.4332 20.876C73.4292 20.876 74.1012 21.62 74.1012 22.604C74.1012 23.9 73.2252 25.076 71.8692 25.076ZM76.2758 26H77.5118L78.1958 22.112C78.6158 21.56 79.1798 21.044 79.9598 21.044C80.1878 21.044 80.3558 21.08 80.5118 21.128L80.7398 19.916C80.5838 19.856 80.3918 19.832 80.1878 19.832C79.3958 19.832 78.9038 20.18 78.4478 20.696L78.5798 19.952H77.3438L76.2758 26ZM84.282 19.712C82.194 19.712 80.682 21.368 80.682 23.348C80.682 24.992 81.786 26.24 83.646 26.24C84.666 26.24 85.542 25.82 86.106 25.148L85.266 24.296C84.918 24.74 84.366 25.076 83.67 25.076C82.638 25.076 82.002 24.332 82.002 23.348C82.002 22.052 82.878 20.876 84.174 20.876C84.918 20.876 85.434 21.284 85.686 21.776L86.742 20.948C86.346 20.264 85.47 19.712 84.282 19.712ZM91.1767 18.992L92.9167 17H91.5007L89.9407 18.992H91.1767ZM89.8327 26.24C90.9607 26.24 91.9327 25.784 92.5687 25.04L91.7407 24.248C91.3327 24.776 90.6727 25.124 89.9167 25.124C88.8127 25.124 88.2007 24.464 88.2007 23.348C88.2007 23.276 88.2007 23.192 88.2127 23.12H92.6047C92.7247 22.82 92.8087 22.364 92.8087 22.016C92.8087 20.684 91.7407 19.712 90.2767 19.712C88.1767 19.712 86.9287 21.368 86.9287 23.348C86.9287 24.992 87.9727 26.24 89.8327 26.24ZM90.2527 20.744C91.2367 20.744 91.6807 21.476 91.5847 22.196H88.3687C88.6567 21.344 89.2807 20.744 90.2527 20.744ZM93.6429 26H94.8909L95.6109 21.908V21.92C95.9829 21.368 96.5109 20.876 97.1949 20.876C97.9269 20.876 98.3469 21.38 98.1669 22.34L97.5189 26H98.7669L99.4269 22.292C99.4509 22.172 99.4629 22.052 99.4749 21.944C99.8469 21.404 100.375 20.876 101.083 20.876C101.815 20.876 102.235 21.38 102.055 22.34L101.407 26H102.655L103.315 22.292C103.627 20.612 102.775 19.712 101.491 19.712C100.579 19.712 99.8949 20.144 99.3309 20.756C99.0549 20.072 98.4189 19.712 97.6029 19.712C96.8949 19.712 96.3309 20.024 95.8509 20.48L95.9469 19.952H94.7109L93.6429 26ZM107.423 26.24C108.551 26.24 109.523 25.784 110.159 25.04L109.331 24.248C108.923 24.776 108.263 25.124 107.507 25.124C106.403 25.124 105.791 24.464 105.791 23.348C105.791 23.276 105.791 23.192 105.803 23.12H110.195C110.315 22.82 110.398 22.364 110.398 22.016C110.398 20.684 109.331 19.712 107.867 19.712C105.767 19.712 104.519 21.368 104.519 23.348C104.519 24.992 105.562 26.24 107.423 26.24ZM107.843 20.744C108.827 20.744 109.271 21.476 109.175 22.196H105.959C106.247 21.344 106.871 20.744 107.843 20.744ZM111.233 26H112.469L113.189 21.908L113.201 21.92C113.573 21.356 114.161 20.876 114.905 20.876C115.745 20.876 116.165 21.452 115.997 22.412L115.361 26H116.597L117.245 22.364C117.545 20.612 116.681 19.712 115.313 19.712C114.545 19.712 113.945 20.036 113.441 20.504L113.537 19.952H112.301L111.233 26ZM119.184 23.708C118.896 25.376 119.568 26.12 120.948 26.12C121.38 26.12 121.68 26.048 121.98 25.928L122.172 24.836C121.944 24.908 121.632 24.98 121.284 24.98C120.624 24.98 120.264 24.716 120.42 23.804L120.9 21.068H122.832L123.024 19.952H121.104L121.368 18.44H120.12L119.856 19.952H118.752L118.548 21.068H119.652L119.184 23.708ZM126.608 26H127.844L128.528 22.112C128.948 21.56 129.512 21.044 130.292 21.044C130.52 21.044 130.688 21.08 130.844 21.128L131.072 19.916C130.916 19.856 130.724 19.832 130.52 19.832C129.728 19.832 129.236 20.18 128.78 20.696L128.912 19.952H127.676L126.608 26ZM132.743 26.18C133.487 26.18 134.111 25.904 134.543 25.424L134.447 26H135.683L136.343 22.292C136.619 20.768 135.875 19.712 134.159 19.712C133.055 19.712 132.155 20.216 131.615 20.864L132.503 21.608C132.935 21.128 133.475 20.804 134.087 20.804C134.855 20.804 135.275 21.272 135.143 22.04L135.095 22.292L133.007 22.64C131.543 22.892 130.871 23.636 130.871 24.596C130.871 25.616 131.651 26.18 132.743 26.18ZM132.143 24.452C132.143 23.984 132.479 23.612 133.259 23.48L134.939 23.192L134.747 24.296C134.339 24.848 133.751 25.172 133.055 25.172C132.455 25.172 132.143 24.884 132.143 24.452ZM138.274 23.708C137.986 25.376 138.658 26.12 140.038 26.12C140.47 26.12 140.77 26.048 141.07 25.928L141.262 24.836C141.034 24.908 140.722 24.98 140.374 24.98C139.714 24.98 139.354 24.716 139.51 23.804L139.99 21.068H141.922L142.114 19.952H140.194L140.458 18.44H139.21L138.946 19.952H137.842L137.638 21.068H138.742L138.274 23.708ZM143.313 23.708C143.025 25.376 143.697 26.12 145.077 26.12C145.509 26.12 145.809 26.048 146.109 25.928L146.301 24.836C146.073 24.908 145.761 24.98 145.413 24.98C144.753 24.98 144.393 24.716 144.549 23.804L145.029 21.068H146.961L147.153 19.952H145.233L145.497 18.44H144.249L143.985 19.952H142.881L142.677 21.068H143.781L143.313 23.708ZM149.243 26.18C149.987 26.18 150.611 25.904 151.043 25.424L150.947 26H152.183L152.843 22.292C153.119 20.768 152.375 19.712 150.659 19.712C149.555 19.712 148.655 20.216 148.115 20.864L149.003 21.608C149.435 21.128 149.975 20.804 150.587 20.804C151.355 20.804 151.775 21.272 151.643 22.04L151.595 22.292L149.507 22.64C148.043 22.892 147.371 23.636 147.371 24.596C147.371 25.616 148.151 26.18 149.243 26.18ZM148.643 24.452C148.643 23.984 148.979 23.612 149.759 23.48L151.439 23.192L151.247 24.296C150.839 24.848 150.251 25.172 149.555 25.172C148.955 25.172 148.643 24.884 148.643 24.452ZM157.618 19.712C155.53 19.712 154.018 21.368 154.018 23.348C154.018 24.992 155.122 26.24 156.982 26.24C158.002 26.24 158.878 25.82 159.442 25.148L158.602 24.296C158.254 24.74 157.702 25.076 157.006 25.076C155.974 25.076 155.338 24.332 155.338 23.348C155.338 22.052 156.214 20.876 157.51 20.876C158.254 20.876 158.77 21.284 159.022 21.776L160.078 20.948C159.682 20.264 158.806 19.712 157.618 19.712ZM160.463 26H161.699L162.419 21.908L162.431 21.92C162.803 21.356 163.391 20.876 164.135 20.876C164.975 20.876 165.383 21.452 165.215 22.412L164.579 26H165.827L166.475 22.364C166.775 20.612 165.911 19.712 164.543 19.712C163.775 19.712 163.175 20.036 162.671 20.492L163.295 17H162.047L160.463 26ZM171.931 18.992L173.671 17H172.255L170.695 18.992H171.931ZM170.587 26.24C171.715 26.24 172.687 25.784 173.323 25.04L172.495 24.248C172.087 24.776 171.427 25.124 170.671 25.124C169.567 25.124 168.955 24.464 168.955 23.348C168.955 23.276 168.955 23.192 168.967 23.12H173.359C173.479 22.82 173.563 22.364 173.563 22.016C173.563 20.684 172.495 19.712 171.031 19.712C168.931 19.712 167.683 21.368 167.683 23.348C167.683 24.992 168.727 26.24 170.587 26.24ZM171.007 20.744C171.991 20.744 172.435 21.476 172.339 22.196H169.123C169.411 21.344 170.035 20.744 171.007 20.744ZM179.407 26.18C180.151 26.18 180.775 25.904 181.207 25.424L181.111 26H182.347L183.007 22.292C183.283 20.768 182.539 19.712 180.823 19.712C179.719 19.712 178.819 20.216 178.279 20.864L179.167 21.608C179.599 21.128 180.139 20.804 180.751 20.804C181.519 20.804 181.939 21.272 181.807 22.04L181.759 22.292L179.671 22.64C178.207 22.892 177.535 23.636 177.535 24.596C177.535 25.616 178.315 26.18 179.407 26.18ZM178.807 24.452C178.807 23.984 179.143 23.612 179.923 23.48L181.603 23.192L181.411 24.296C181.003 24.848 180.415 25.172 179.719 25.172C179.119 25.172 178.807 24.884 178.807 24.452ZM188.61 23.408C188.418 24.488 187.866 25.076 187.014 25.076C186.042 25.076 185.574 24.464 185.766 23.408L186.378 19.952H185.13L184.542 23.264C184.206 25.172 185.214 26.24 186.918 26.24C188.586 26.24 189.534 25.22 189.858 23.408L190.47 19.952H189.222L188.61 23.408ZM201.228 22.556C201.228 20.888 200.244 19.712 198.528 19.712C197.844 19.712 197.22 19.928 196.68 20.36L197.28 17H196.032L194.436 26H195.684L195.804 25.352C196.284 25.916 197.016 26.24 197.856 26.24C199.944 26.24 201.228 24.5 201.228 22.556ZM198.216 20.876C199.284 20.876 199.908 21.632 199.908 22.628C199.908 23.984 199.044 25.076 197.772 25.076C196.956 25.076 196.368 24.656 196.056 23.924L196.428 21.788C196.884 21.176 197.52 20.876 198.216 20.876ZM206.528 23.408C206.336 24.488 205.784 25.076 204.932 25.076C203.96 25.076 203.492 24.464 203.684 23.408L204.296 19.952H203.048L202.46 23.264C202.124 25.172 203.132 26.24 204.836 26.24C206.504 26.24 207.452 25.22 207.776 23.408L208.388 19.952H207.14L206.528 23.408ZM209.12 26H210.356L211.04 22.112C211.46 21.56 212.024 21.044 212.804 21.044C213.032 21.044 213.2 21.08 213.356 21.128L213.584 19.916C213.428 19.856 213.236 19.832 213.032 19.832C212.24 19.832 211.748 20.18 211.292 20.696L211.424 19.952H210.188L209.12 26ZM216.454 26.24C217.582 26.24 218.554 25.784 219.19 25.04L218.362 24.248C217.954 24.776 217.294 25.124 216.538 25.124C215.434 25.124 214.822 24.464 214.822 23.348C214.822 23.276 214.822 23.192 214.834 23.12H219.226C219.346 22.82 219.43 22.364 219.43 22.016C219.43 20.684 218.362 19.712 216.898 19.712C214.798 19.712 213.55 21.368 213.55 23.348C213.55 24.992 214.594 26.24 216.454 26.24ZM216.874 20.744C217.858 20.744 218.302 21.476 218.206 22.196H214.99C215.278 21.344 215.902 20.744 216.874 20.744ZM221.97 26.18C222.714 26.18 223.338 25.904 223.77 25.424L223.674 26H224.91L225.57 22.292C225.846 20.768 225.102 19.712 223.386 19.712C222.282 19.712 221.382 20.216 220.842 20.864L221.73 21.608C222.162 21.128 222.702 20.804 223.314 20.804C224.082 20.804 224.502 21.272 224.37 22.04L224.322 22.292L222.234 22.64C220.77 22.892 220.098 23.636 220.098 24.596C220.098 25.616 220.878 26.18 221.97 26.18ZM221.37 24.452C221.37 23.984 221.706 23.612 222.486 23.48L224.166 23.192L223.974 24.296C223.566 24.848 222.978 25.172 222.282 25.172C221.682 25.172 221.37 24.884 221.37 24.452ZM231.173 23.408C230.981 24.488 230.429 25.076 229.577 25.076C228.605 25.076 228.137 24.464 228.329 23.408L228.941 19.952H227.693L227.104 23.264C226.769 25.172 227.777 26.24 229.48 26.24C231.149 26.24 232.097 25.22 232.421 23.408L233.033 19.952H231.785L231.173 23.408ZM237.022 23.396C237.022 25.064 237.934 26.24 239.674 26.24C240.394 26.24 241.03 25.964 241.594 25.46L241.498 26H242.746L244.33 17H243.082L242.446 20.6C241.954 20.036 241.222 19.712 240.382 19.712C238.366 19.7 237.022 21.452 237.022 23.396ZM238.33 23.324C238.33 21.968 239.194 20.876 240.478 20.876C241.282 20.876 241.87 21.296 242.194 22.028L241.822 24.14C241.366 24.776 240.718 25.076 240.034 25.076C238.966 25.076 238.33 24.32 238.33 23.324ZM247.567 26.24C248.695 26.24 249.667 25.784 250.303 25.04L249.475 24.248C249.067 24.776 248.407 25.124 247.651 25.124C246.547 25.124 245.935 24.464 245.935 23.348C245.935 23.276 245.935 23.192 245.947 23.12H250.339C250.459 22.82 250.543 22.364 250.543 22.016C250.543 20.684 249.475 19.712 248.011 19.712C245.911 19.712 244.663 21.368 244.663 23.348C244.663 24.992 245.707 26.24 247.567 26.24ZM247.987 20.744C248.971 20.744 249.415 21.476 249.319 22.196H246.103C246.391 21.344 247.015 20.744 247.987 20.744ZM254.816 19.952L255.968 26H257.6L260.876 19.952H259.496L256.976 24.608L256.112 19.952H254.816ZM264.387 19.712C262.203 19.712 260.799 21.428 260.799 23.348C260.799 24.992 261.891 26.24 263.739 26.24C265.911 26.24 267.315 24.524 267.315 22.604C267.315 20.96 266.223 19.712 264.387 19.712ZM263.775 25.076C262.767 25.076 262.107 24.332 262.107 23.348C262.107 22.052 262.983 20.876 264.339 20.876C265.335 20.876 266.007 21.62 266.007 22.604C266.007 23.9 265.131 25.076 263.775 25.076ZM268.786 23.708C268.498 25.376 269.17 26.12 270.55 26.12C270.982 26.12 271.282 26.048 271.582 25.928L271.774 24.836C271.546 24.908 271.234 24.98 270.886 24.98C270.226 24.98 269.866 24.716 270.022 23.804L270.502 21.068H272.434L272.626 19.952H270.706L270.97 18.44H269.722L269.458 19.952H268.354L268.15 21.068H269.254L268.786 23.708ZM275.68 26.24C276.808 26.24 277.78 25.784 278.416 25.04L277.588 24.248C277.18 24.776 276.52 25.124 275.764 25.124C274.66 25.124 274.048 24.464 274.048 23.348C274.048 23.276 274.048 23.192 274.06 23.12H278.452C278.572 22.82 278.656 22.364 278.656 22.016C278.656 20.684 277.588 19.712 276.124 19.712C274.024 19.712 272.776 21.368 272.776 23.348C272.776 24.992 273.82 26.24 275.68 26.24ZM276.1 20.744C277.084 20.744 277.528 21.476 277.432 22.196H274.216C274.504 21.344 275.128 20.744 276.1 20.744ZM68.9398 43H70.1878L71.7718 34H70.5358L68.9398 43ZM75.0319 43.24C76.1599 43.24 77.1319 42.784 77.7679 42.04L76.9399 41.248C76.5319 41.776 75.8719 42.124 75.1159 42.124C74.0119 42.124 73.3999 41.464 73.3999 40.348C73.3999 40.276 73.3999 40.192 73.4119 40.12H77.8039C77.9239 39.82 78.0079 39.364 78.0079 39.016C78.0079 37.684 76.9399 36.712 75.4759 36.712C73.3759 36.712 72.1279 38.368 72.1279 40.348C72.1279 41.992 73.1719 43.24 75.0319 43.24ZM75.4519 37.744C76.4359 37.744 76.8799 38.476 76.7839 39.196H73.5679C73.8559 38.344 74.4799 37.744 75.4519 37.744ZM81.5605 45.952H82.7965L83.4325 42.352C83.9125 42.916 84.6565 43.24 85.4965 43.24C87.5005 43.24 88.8565 41.5 88.8565 39.556C88.8565 37.888 87.9325 36.712 86.2045 36.712C85.4845 36.712 84.8485 36.988 84.2845 37.492L84.3805 36.952H83.1445L81.5605 45.952ZM85.8445 37.876C86.9125 37.876 87.5485 38.632 87.5485 39.628C87.5485 40.984 86.6725 42.076 85.4005 42.076C84.5845 42.076 83.9965 41.656 83.6845 40.924L84.0565 38.812C84.5125 38.176 85.1605 37.876 85.8445 37.876ZM89.7289 43H90.9769L92.5609 34H91.3249L89.7289 43ZM97.3209 40.408C97.1289 41.488 96.5769 42.076 95.7249 42.076C94.7529 42.076 94.2849 41.464 94.4769 40.408L95.0889 36.952H93.8409L93.2529 40.264C92.9169 42.172 93.9249 43.24 95.6289 43.24C97.2969 43.24 98.2449 42.22 98.5689 40.408L99.1809 36.952H97.9329L97.3209 40.408ZM101.581 38.512C101.581 38.104 101.953 37.72 102.493 37.72C103.021 37.72 103.381 38.044 103.621 38.5L104.533 37.816C104.197 37.192 103.441 36.712 102.529 36.712C101.209 36.712 100.381 37.576 100.381 38.572C100.381 40.408 102.721 40.264 102.721 41.356C102.721 41.848 102.361 42.232 101.809 42.232C101.245 42.232 100.777 41.932 100.405 41.356L99.5053 42.04C99.9733 42.796 100.777 43.24 101.749 43.24C103.129 43.24 103.933 42.28 103.933 41.296C103.933 39.472 101.581 39.604 101.581 38.512ZM107.799 45.952H109.035L109.671 42.352C110.151 42.916 110.895 43.24 111.735 43.24C113.739 43.24 115.095 41.5 115.095 39.556C115.095 37.888 114.171 36.712 112.443 36.712C111.723 36.712 111.087 36.988 110.523 37.492L110.619 36.952H109.383L107.799 45.952ZM112.083 37.876C113.151 37.876 113.787 38.632 113.787 39.628C113.787 40.984 112.911 42.076 111.639 42.076C110.823 42.076 110.235 41.656 109.923 40.924L110.295 38.812C110.751 38.176 111.399 37.876 112.083 37.876ZM115.967 43H117.203L117.887 39.112C118.307 38.56 118.871 38.044 119.651 38.044C119.879 38.044 120.047 38.08 120.203 38.128L120.431 36.916C120.275 36.856 120.083 36.832 119.879 36.832C119.087 36.832 118.595 37.18 118.139 37.696L118.271 36.952H117.035L115.967 43ZM123.973 36.712C121.789 36.712 120.385 38.428 120.385 40.348C120.385 41.992 121.477 43.24 123.325 43.24C125.497 43.24 126.901 41.524 126.901 39.604C126.901 37.96 125.809 36.712 123.973 36.712ZM123.361 42.076C122.353 42.076 121.693 41.332 121.693 40.348C121.693 39.052 122.569 37.876 123.925 37.876C124.921 37.876 125.593 38.62 125.593 39.604C125.593 40.9 124.717 42.076 123.361 42.076ZM131.427 36.712C129.339 36.712 127.827 38.368 127.827 40.348C127.827 41.992 128.931 43.24 130.791 43.24C131.811 43.24 132.687 42.82 133.251 42.148L132.411 41.296C132.063 41.74 131.511 42.076 130.815 42.076C129.783 42.076 129.147 41.332 129.147 40.348C129.147 39.052 130.023 37.876 131.319 37.876C132.063 37.876 132.579 38.284 132.831 38.776L133.887 37.948C133.491 37.264 132.615 36.712 131.427 36.712ZM134.272 43H135.508L136.228 38.908L136.24 38.92C136.612 38.356 137.2 37.876 137.944 37.876C138.784 37.876 139.192 38.452 139.024 39.412L138.388 43H139.636L140.284 39.364C140.584 37.612 139.72 36.712 138.352 36.712C137.584 36.712 136.984 37.036 136.48 37.492L137.104 34H135.856L134.272 43ZM144.395 43.24C145.523 43.24 146.495 42.784 147.131 42.04L146.303 41.248C145.895 41.776 145.235 42.124 144.479 42.124C143.375 42.124 142.763 41.464 142.763 40.348C142.763 40.276 142.763 40.192 142.775 40.12H147.167C147.287 39.82 147.371 39.364 147.371 39.016C147.371 37.684 146.303 36.712 144.839 36.712C142.739 36.712 141.491 38.368 141.491 40.348C141.491 41.992 142.535 43.24 144.395 43.24ZM144.815 37.744C145.799 37.744 146.243 38.476 146.147 39.196H142.931C143.219 38.344 143.843 37.744 144.815 37.744ZM151.464 40.396C151.464 42.064 152.376 43.24 154.116 43.24C154.836 43.24 155.472 42.964 156.036 42.46L155.94 43H157.188L158.772 34H157.524L156.888 37.6C156.396 37.036 155.664 36.712 154.824 36.712C152.808 36.7 151.464 38.452 151.464 40.396ZM152.772 40.324C152.772 38.968 153.636 37.876 154.92 37.876C155.724 37.876 156.312 38.296 156.636 39.028L156.264 41.14C155.808 41.776 155.16 42.076 154.476 42.076C153.408 42.076 152.772 41.32 152.772 40.324ZM162.008 43.24C163.136 43.24 164.108 42.784 164.744 42.04L163.916 41.248C163.508 41.776 162.848 42.124 162.092 42.124C160.988 42.124 160.376 41.464 160.376 40.348C160.376 40.276 160.376 40.192 160.388 40.12H164.78C164.9 39.82 164.984 39.364 164.984 39.016C164.984 37.684 163.916 36.712 162.452 36.712C160.352 36.712 159.104 38.368 159.104 40.348C159.104 41.992 160.148 43.24 162.008 43.24ZM162.428 37.744C163.412 37.744 163.856 38.476 163.76 39.196H160.544C160.832 38.344 161.456 37.744 162.428 37.744ZM172.653 36.712C170.565 36.712 169.053 38.368 169.053 40.348C169.053 41.992 170.157 43.24 172.017 43.24C173.037 43.24 173.913 42.82 174.477 42.148L173.637 41.296C173.289 41.74 172.737 42.076 172.041 42.076C171.009 42.076 170.373 41.332 170.373 40.348C170.373 39.052 171.249 37.876 172.545 37.876C173.289 37.876 173.805 38.284 174.057 38.776L175.113 37.948C174.717 37.264 173.841 36.712 172.653 36.712ZM175.498 43H176.734L177.454 38.908L177.466 38.92C177.838 38.356 178.426 37.876 179.17 37.876C180.01 37.876 180.418 38.452 180.25 39.412L179.614 43H180.862L181.51 39.364C181.81 37.612 180.946 36.712 179.578 36.712C178.81 36.712 178.21 37.036 177.706 37.492L178.33 34H177.082L175.498 43ZM185.622 43.24C186.75 43.24 187.722 42.784 188.358 42.04L187.53 41.248C187.122 41.776 186.462 42.124 185.706 42.124C184.602 42.124 183.99 41.464 183.99 40.348C183.99 40.276 183.99 40.192 184.002 40.12H188.394C188.514 39.82 188.598 39.364 188.598 39.016C188.598 37.684 187.53 36.712 186.066 36.712C183.966 36.712 182.718 38.368 182.718 40.348C182.718 41.992 183.762 43.24 185.622 43.24ZM186.042 37.744C187.026 37.744 187.47 38.476 187.374 39.196H184.158C184.446 38.344 185.07 37.744 186.042 37.744ZM189.014 43H193.85L194.042 41.884H190.766L194.63 38.068L194.834 36.952H190.166L189.974 38.068H193.07L189.218 41.884L189.014 43ZM199.399 40.708C199.111 42.376 199.783 43.12 201.163 43.12C201.595 43.12 201.895 43.048 202.195 42.928L202.387 41.836C202.159 41.908 201.847 41.98 201.499 41.98C200.839 41.98 200.479 41.716 200.635 40.804L201.115 38.068H203.047L203.239 36.952H201.319L201.583 35.44H200.335L200.071 36.952H198.967L198.763 38.068H199.867L199.399 40.708ZM206.966 36.712C204.782 36.712 203.378 38.428 203.378 40.348C203.378 41.992 204.47 43.24 206.318 43.24C208.49 43.24 209.894 41.524 209.894 39.604C209.894 37.96 208.802 36.712 206.966 36.712ZM206.354 42.076C205.346 42.076 204.686 41.332 204.686 40.348C204.686 39.052 205.562 37.876 206.918 37.876C207.914 37.876 208.586 38.62 208.586 39.604C208.586 40.9 207.71 42.076 206.354 42.076ZM212.836 35.608C213.28 35.608 213.664 35.224 213.664 34.768C213.664 34.312 213.28 33.928 212.836 33.928C212.368 33.928 211.984 34.312 211.984 34.768C211.984 35.224 212.368 35.608 212.836 35.608ZM210.76 43H211.996L213.064 36.952H211.828L210.76 43Z" fill="#555555" fill-opacity="0.5"/>
</svg>
