<svg width="228" height="22" viewBox="0 0 228 22" fill="none" xmlns="http://www.w3.org/2000/svg">
<path d="M7.57595 9.234C7.59061 9.26333 7.60528 9.28533 7.61994 9.3C7.63461 9.3 7.64195 9.31467 7.64195 9.344C7.64195 9.432 7.45861 9.60067 7.09195 9.85C6.72528 10.0847 6.27061 10.356 5.72795 10.664C5.18528 10.9573 4.61328 11.258 4.01195 11.566C3.41061 11.8593 2.87528 12.1013 2.40595 12.292C2.40595 12.3213 2.39128 12.4167 2.36195 12.578C2.33261 12.7393 2.31795 12.842 2.31795 12.886V13.304C2.31795 13.6413 2.36928 13.9787 2.47195 14.316C2.57461 14.6387 2.72861 14.932 2.93395 15.196C3.15395 15.46 3.41795 15.6727 3.72595 15.834C4.03395 15.9953 4.39328 16.076 4.80395 16.076C4.97995 16.076 5.19261 16.0467 5.44195 15.988C5.70595 15.9147 5.95528 15.8193 6.18995 15.702C6.43928 15.57 6.65928 15.416 6.84995 15.24C7.04061 15.064 7.15795 14.866 7.20195 14.646C7.37795 14.6607 7.48061 14.712 7.50995 14.8C7.55395 14.888 7.57595 14.9467 7.57595 14.976C7.57595 15.3573 7.48061 15.6873 7.28995 15.966C7.11395 16.23 6.88661 16.45 6.60794 16.626C6.34395 16.7873 6.05795 16.912 5.74995 17C5.45661 17.0733 5.19261 17.11 4.95795 17.11C3.69661 17.11 2.77995 16.758 2.20795 16.054C1.63595 15.35 1.34995 14.426 1.34995 13.282C1.34995 13.2233 1.36461 13.0913 1.39395 12.886C1.42328 12.6807 1.43795 12.5413 1.43795 12.468C1.43795 12.4533 1.40861 12.4387 1.34995 12.424C1.29128 12.3947 1.22528 12.3653 1.15195 12.336C1.09328 12.3067 1.03461 12.2627 0.975945 12.204C0.931945 12.1307 0.909945 12.0353 0.909945 11.918C0.909945 11.8007 0.953945 11.7053 1.04195 11.632C1.12995 11.5587 1.23261 11.4927 1.34995 11.434L1.56995 11.302C1.70195 10.7447 1.85595 10.2093 2.03195 9.696C2.22261 9.168 2.45728 8.64 2.73595 8.112C2.61861 8.112 2.49395 8.09733 2.36195 8.068C2.22995 8.03867 2.16395 7.936 2.16395 7.76C2.16395 7.55467 2.28128 7.32733 2.51595 7.078C2.76528 6.82867 3.04395 6.594 3.35195 6.374C3.67461 6.154 3.98995 5.97067 4.29795 5.824C4.60595 5.66267 4.82595 5.582 4.95795 5.582C5.01661 5.582 5.05328 5.59667 5.06795 5.626C5.09728 5.64067 5.14128 5.648 5.19995 5.648C5.31728 5.648 5.46395 5.626 5.63995 5.582C5.83061 5.538 6.02861 5.48667 6.23395 5.428C6.43928 5.36933 6.62995 5.318 6.80594 5.274C6.99661 5.23 7.15061 5.208 7.26794 5.208C7.39994 5.208 7.49528 5.252 7.55395 5.34C7.62728 5.428 7.66395 5.52333 7.66395 5.626C7.66395 5.74333 7.59061 5.83133 7.44395 5.89C7.29728 5.934 7.16528 5.97067 7.04795 6C6.63728 6.07333 6.20461 6.20533 5.74995 6.396C5.30995 6.572 4.89928 6.77 4.51795 6.99C4.37128 7.15133 4.19528 7.386 3.98995 7.694C3.78461 7.98733 3.58661 8.32467 3.39595 8.706C3.20528 9.08733 3.02928 9.48333 2.86795 9.894C2.72128 10.3047 2.62595 10.6933 2.58195 11.06L2.95595 10.884C4.08528 10.3413 5.00195 9.916 5.70595 9.608C6.42461 9.3 6.98195 9.146 7.37795 9.146C7.45128 9.146 7.51728 9.17533 7.57595 9.234ZM14.245 14.096C14.245 14.3453 14.157 14.5653 13.981 14.756C13.8197 14.932 13.607 15.086 13.343 15.218C13.0937 15.3353 12.815 15.4307 12.507 15.504C12.199 15.5773 11.9057 15.636 11.627 15.68C11.3484 15.7093 11.099 15.7313 10.879 15.746C10.6737 15.746 10.5417 15.746 10.483 15.746C10.1604 15.746 9.91104 15.6947 9.73504 15.592C9.55904 15.4893 9.47104 15.306 9.47104 15.042C9.47104 14.954 9.47837 14.8807 9.49304 14.822C9.50771 14.7487 9.56637 14.712 9.66904 14.712C9.71304 14.712 9.78637 14.7267 9.88904 14.756C9.99171 14.7707 10.0724 14.778 10.131 14.778C10.1897 14.778 10.373 14.7707 10.681 14.756C11.0037 14.7267 11.341 14.6827 11.693 14.624C12.0597 14.5653 12.3824 14.4847 12.661 14.382C12.9544 14.2647 13.101 14.118 13.101 13.942C13.101 13.9127 12.947 13.8247 12.639 13.678C12.3457 13.5167 11.8984 13.2527 11.297 12.886C10.8277 12.5927 10.4977 12.2993 10.307 12.006C10.1164 11.698 10.021 11.2873 10.021 10.774C10.021 10.4513 10.087 10.1873 10.219 9.982C10.3657 9.77667 10.5564 9.61533 10.791 9.498C11.0404 9.38067 11.319 9.3 11.627 9.256C11.9497 9.19733 12.287 9.168 12.639 9.168C12.6684 9.168 12.7564 9.18267 12.903 9.212C13.0644 9.24133 13.233 9.29267 13.409 9.366C13.585 9.42467 13.739 9.50533 13.871 9.608C14.0177 9.696 14.091 9.79867 14.091 9.916C14.091 9.94533 14.0617 9.98933 14.003 10.048C13.959 10.1067 13.8784 10.2167 13.761 10.378C13.717 10.3633 13.6364 10.3413 13.519 10.312C13.4164 10.2827 13.2917 10.2533 13.145 10.224C13.013 10.18 12.8737 10.1507 12.727 10.136C12.5804 10.1067 12.463 10.092 12.375 10.092C11.9937 10.092 11.6857 10.1653 11.451 10.312C11.2164 10.444 11.099 10.708 11.099 11.104C11.099 11.2947 11.1724 11.4707 11.319 11.632C11.4804 11.7933 11.6784 11.9473 11.913 12.094C12.1477 12.226 12.397 12.3653 12.661 12.512C12.9397 12.644 13.1964 12.7907 13.431 12.952C13.6657 13.1133 13.8564 13.2893 14.003 13.48C14.1644 13.656 14.245 13.8613 14.245 14.096ZM21.0771 14.096C21.0771 14.3453 20.9891 14.5653 20.8131 14.756C20.6517 14.932 20.4391 15.086 20.1751 15.218C19.9257 15.3353 19.6471 15.4307 19.3391 15.504C19.0311 15.5773 18.7377 15.636 18.4591 15.68C18.1804 15.7093 17.9311 15.7313 17.7111 15.746C17.5057 15.746 17.3737 15.746 17.3151 15.746C16.9924 15.746 16.7431 15.6947 16.5671 15.592C16.3911 15.4893 16.3031 15.306 16.3031 15.042C16.3031 14.954 16.3104 14.8807 16.3251 14.822C16.3397 14.7487 16.3984 14.712 16.5011 14.712C16.5451 14.712 16.6184 14.7267 16.7211 14.756C16.8237 14.7707 16.9044 14.778 16.9631 14.778C17.0217 14.778 17.2051 14.7707 17.5131 14.756C17.8357 14.7267 18.1731 14.6827 18.5251 14.624C18.8917 14.5653 19.2144 14.4847 19.4931 14.382C19.7864 14.2647 19.9331 14.118 19.9331 13.942C19.9331 13.9127 19.7791 13.8247 19.4711 13.678C19.1777 13.5167 18.7304 13.2527 18.1291 12.886C17.6597 12.5927 17.3297 12.2993 17.1391 12.006C16.9484 11.698 16.8531 11.2873 16.8531 10.774C16.8531 10.4513 16.9191 10.1873 17.0511 9.982C17.1977 9.77667 17.3884 9.61533 17.6231 9.498C17.8724 9.38067 18.1511 9.3 18.4591 9.256C18.7817 9.19733 19.1191 9.168 19.4711 9.168C19.5004 9.168 19.5884 9.18267 19.7351 9.212C19.8964 9.24133 20.0651 9.29267 20.2411 9.366C20.4171 9.42467 20.5711 9.50533 20.7031 9.608C20.8497 9.696 20.9231 9.79867 20.9231 9.916C20.9231 9.94533 20.8937 9.98933 20.8351 10.048C20.7911 10.1067 20.7104 10.2167 20.5931 10.378C20.5491 10.3633 20.4684 10.3413 20.3511 10.312C20.2484 10.2827 20.1237 10.2533 19.9771 10.224C19.8451 10.18 19.7057 10.1507 19.5591 10.136C19.4124 10.1067 19.2951 10.092 19.2071 10.092C18.8257 10.092 18.5177 10.1653 18.2831 10.312C18.0484 10.444 17.9311 10.708 17.9311 11.104C17.9311 11.2947 18.0044 11.4707 18.1511 11.632C18.3124 11.7933 18.5104 11.9473 18.7451 12.094C18.9797 12.226 19.2291 12.3653 19.4931 12.512C19.7717 12.644 20.0284 12.7907 20.2631 12.952C20.4977 13.1133 20.6884 13.2893 20.8351 13.48C20.9964 13.656 21.0771 13.8613 21.0771 14.096ZM33.4091 12.424C33.4091 12.688 33.2844 13.018 33.0351 13.414C32.8004 13.7953 32.4778 14.1693 32.0671 14.536C31.6564 14.9027 31.1798 15.218 30.6371 15.482C30.0944 15.7313 29.5298 15.856 28.9431 15.856C28.6791 15.856 28.4004 15.812 28.1071 15.724C27.8138 15.636 27.5278 15.5113 27.2491 15.35C26.9704 15.174 26.7211 14.9687 26.5011 14.734C26.2811 14.4847 26.1198 14.206 26.0171 13.898C25.9291 13.986 25.8191 14.1327 25.6871 14.338C25.5698 14.5433 25.4378 14.756 25.2911 14.976C25.1444 15.1813 24.9831 15.3647 24.8071 15.526C24.6311 15.6727 24.4478 15.746 24.2571 15.746C24.0664 15.746 23.9051 15.6507 23.7731 15.46C23.6558 15.2547 23.5604 15.0347 23.4871 14.8C23.4138 14.5507 23.3624 14.316 23.3331 14.096C23.3038 13.876 23.2891 13.7513 23.2891 13.722C23.2891 13.546 23.3404 13.216 23.4431 12.732C23.5458 12.2333 23.6998 11.72 23.9051 11.192C24.1104 10.664 24.3671 10.1947 24.6751 9.784C24.9978 9.37333 25.3718 9.168 25.7971 9.168C25.9584 9.168 26.0611 9.24133 26.1051 9.388C26.1638 9.52 26.1931 9.652 26.1931 9.784V10.444C26.2664 10.5027 26.3398 10.5467 26.4131 10.576C26.5011 10.5907 26.5744 10.62 26.6331 10.664C26.7064 10.6933 26.7578 10.7447 26.7871 10.818C26.8311 10.8913 26.8531 11.0087 26.8531 11.17C26.8531 11.2727 26.8458 11.368 26.8311 11.456C26.8164 11.5293 26.8091 11.6027 26.8091 11.676C26.8091 12.0573 26.8384 12.4313 26.8971 12.798C26.9558 13.1647 27.0731 13.4947 27.2491 13.788C27.4251 14.0667 27.6671 14.3013 27.9751 14.492C28.2831 14.668 28.6938 14.756 29.2071 14.756C29.8524 14.756 30.3951 14.624 30.8351 14.36C31.2898 14.0813 31.6638 13.7807 31.9571 13.458C32.2651 13.1207 32.5071 12.82 32.6831 12.556C32.8591 12.2773 33.0058 12.138 33.1231 12.138C33.3138 12.138 33.4091 12.2333 33.4091 12.424ZM25.6871 11.456C25.6871 11.3973 25.6724 11.346 25.6431 11.302C25.6138 11.2433 25.5991 11.192 25.5991 11.148C25.5991 11.0893 25.6138 11.038 25.6431 10.994C25.6724 10.95 25.6871 10.8913 25.6871 10.818C25.6871 10.774 25.6724 10.7447 25.6431 10.73C25.6138 10.7007 25.5991 10.6713 25.5991 10.642C25.4671 10.6713 25.3278 10.796 25.1811 11.016C25.0491 11.236 24.9171 11.4927 24.7851 11.786C24.6678 12.0793 24.5724 12.38 24.4991 12.688C24.4258 12.9813 24.3891 13.2233 24.3891 13.414C24.3891 13.5167 24.4184 13.6853 24.4771 13.92C24.5358 14.1547 24.6018 14.3087 24.6751 14.382C24.9244 13.8687 25.1518 13.37 25.3571 12.886C25.5771 12.402 25.6871 11.9253 25.6871 11.456ZM38.2778 6.704C38.0871 7.716 37.9111 8.69133 37.7498 9.63C37.6765 10.026 37.6031 10.444 37.5298 10.884C37.4565 11.3093 37.3831 11.7347 37.3098 12.16C37.2511 12.5707 37.1925 12.9667 37.1338 13.348C37.0898 13.7147 37.0531 14.052 37.0238 14.36C36.9651 14.8293 36.9211 15.3647 36.8918 15.966C36.8625 16.5673 36.8331 17.1393 36.8038 17.682C36.7745 18.3127 36.7598 18.9507 36.7598 19.596C36.7598 19.728 36.7451 19.8747 36.7158 20.036C36.6865 20.1973 36.6718 20.3587 36.6718 20.52C36.6718 20.6667 36.6351 20.7913 36.5618 20.894C36.5031 20.9967 36.4078 21.048 36.2758 21.048C36.1585 21.048 36.0631 20.9527 35.9898 20.762C35.9311 20.586 35.8798 20.3733 35.8358 20.124C35.7918 19.8893 35.7625 19.6473 35.7478 19.398C35.7331 19.1633 35.7258 18.9947 35.7258 18.892C35.7258 18.7747 35.7258 18.628 35.7258 18.452C35.7258 18.2907 35.7331 18.0413 35.7478 17.704C35.7771 17.3813 35.8138 16.956 35.8578 16.428C35.9018 15.8853 35.9678 15.1813 36.0558 14.316C36.0558 14.3013 35.9531 14.228 35.7478 14.096C35.5571 13.964 35.3151 13.8027 35.0218 13.612C34.7431 13.4067 34.4498 13.1867 34.1418 12.952C33.8485 12.7173 33.5991 12.49 33.3938 12.27C33.3645 12.2407 33.3205 12.1747 33.2618 12.072C33.2031 11.9693 33.1738 11.8447 33.1738 11.698C33.1738 11.6247 33.2105 11.5513 33.2838 11.478C33.3571 11.39 33.4378 11.346 33.5258 11.346C33.5845 11.346 33.6431 11.3753 33.7018 11.434C34.0391 11.7273 34.4278 12.0573 34.8678 12.424C35.3078 12.776 35.7405 13.0987 36.1658 13.392C36.1951 13.128 36.2538 12.7247 36.3418 12.182C36.4445 11.6393 36.5471 11.06 36.6498 10.444C36.7525 9.81333 36.8478 9.20467 36.9358 8.618C37.0385 8.03133 37.1118 7.562 37.1558 7.21C37.1558 7.15133 37.1705 7.056 37.1998 6.924C37.2291 6.792 37.2731 6.66 37.3318 6.528C37.3905 6.396 37.4565 6.286 37.5298 6.198C37.6031 6.09533 37.6838 6.044 37.7718 6.044C37.8158 6.044 37.9111 6.088 38.0578 6.176C38.2045 6.24933 38.2778 6.42533 38.2778 6.704ZM46.0048 14.69C46.0195 14.7193 46.0268 14.7633 46.0268 14.822C46.0268 14.91 45.9608 15.042 45.8288 15.218C45.7848 15.2767 45.6895 15.372 45.5428 15.504C45.3961 15.636 45.1981 15.768 44.9488 15.9C44.6995 16.032 44.3915 16.1493 44.0248 16.252C43.6728 16.3547 43.2548 16.406 42.7708 16.406C42.4335 16.406 42.1035 16.3327 41.7808 16.186C41.4581 16.0247 41.1721 15.7973 40.9228 15.504C40.6735 15.196 40.4681 14.822 40.3068 14.382C40.1455 13.9273 40.0648 13.3993 40.0648 12.798C40.0648 12.226 40.1381 11.6907 40.2848 11.192C40.4315 10.6933 40.6148 10.2533 40.8348 9.872C41.0695 9.49067 41.3261 9.19 41.6048 8.97C41.8835 8.75 42.1548 8.64 42.4188 8.64C42.6535 8.64 42.8881 8.69133 43.1228 8.794C43.3721 8.882 43.5921 8.99933 43.7828 9.146C43.9881 9.29267 44.1495 9.46133 44.2668 9.652C44.3841 9.828 44.4428 10.0113 44.4428 10.202C44.4428 10.422 44.3401 10.6493 44.1348 10.884C43.9441 11.1187 43.7095 11.3387 43.4308 11.544C43.1521 11.7347 42.8735 11.896 42.5948 12.028C42.3161 12.1453 42.0961 12.204 41.9348 12.204C41.8468 12.204 41.7661 12.1673 41.6928 12.094C41.6341 12.006 41.6048 11.9033 41.6048 11.786C41.6048 11.5807 41.6928 11.4193 41.8688 11.302C42.0595 11.1847 42.2648 11.082 42.4848 10.994C42.7048 10.8913 42.9028 10.774 43.0788 10.642C43.2695 10.51 43.3648 10.3267 43.3648 10.092C43.3648 10.0627 43.3281 9.98933 43.2548 9.872C43.1815 9.75467 42.9835 9.696 42.6608 9.696C42.5141 9.696 42.3455 9.784 42.1548 9.96C41.9641 10.1213 41.7808 10.3487 41.6048 10.642C41.4288 10.9207 41.2821 11.258 41.1648 11.654C41.0475 12.0353 40.9888 12.4533 40.9888 12.908C40.9888 13.2893 41.0548 13.634 41.1868 13.942C41.3335 14.25 41.5168 14.514 41.7368 14.734C41.9568 14.9393 42.2135 15.1007 42.5068 15.218C42.8001 15.3353 43.1008 15.394 43.4088 15.394C43.6288 15.394 43.8635 15.35 44.1128 15.262C44.3768 15.1593 44.6188 15.0567 44.8388 14.954C45.0735 14.8367 45.2715 14.734 45.4328 14.646C45.6088 14.5433 45.7188 14.492 45.7628 14.492C45.8068 14.492 45.8508 14.514 45.8948 14.558C45.9535 14.602 45.9901 14.646 46.0048 14.69ZM55.6107 12.49C55.6107 12.6073 55.596 12.7247 55.5667 12.842C55.552 12.9593 55.508 13.0327 55.4347 13.062C55.1414 13.194 54.76 13.3113 54.2907 13.414C53.8214 13.502 53.3887 13.6267 52.9927 13.788C52.7434 13.8907 52.4354 14.03 52.0687 14.206C51.702 14.382 51.3207 14.558 50.9247 14.734C50.5287 14.91 50.1474 15.064 49.7807 15.196C49.414 15.3133 49.1134 15.372 48.8787 15.372C48.688 15.372 48.5047 15.2987 48.3287 15.152C48.1527 15.0053 48.0647 14.8513 48.0647 14.69C48.0647 14.3967 48.1967 14.0447 48.4607 13.634C48.7394 13.2087 49.0547 12.776 49.4067 12.336C49.7734 11.896 50.1254 11.478 50.4627 11.082C50.8147 10.6713 51.064 10.3413 51.2107 10.092C51.196 10.092 51.174 10.0847 51.1447 10.07C51.1154 10.0407 51.0714 10.026 51.0127 10.026C50.558 10.1727 50.1327 10.3047 49.7367 10.422C49.3994 10.5247 49.0474 10.62 48.6807 10.708C48.3287 10.7813 48.0427 10.818 47.8227 10.818C47.676 10.818 47.5587 10.752 47.4707 10.62C47.3974 10.488 47.3607 10.3413 47.3607 10.18C47.3607 10.136 47.368 10.092 47.3827 10.048C47.412 10.004 47.4634 9.982 47.5367 9.982C47.7274 9.938 48.0134 9.86467 48.3947 9.762C48.7907 9.65933 49.2087 9.55667 49.6487 9.454C50.0887 9.33667 50.5067 9.24133 50.9027 9.168C51.3134 9.08 51.6287 9.036 51.8487 9.036C52.01 9.036 52.1787 9.102 52.3547 9.234C52.5454 9.35133 52.692 9.50533 52.7947 9.696L49.5167 13.898L49.3847 14.162C49.3847 14.2207 49.4067 14.25 49.4507 14.25C49.568 14.25 49.7294 14.1987 49.9347 14.096C50.1547 13.9933 50.448 13.8467 50.8147 13.656C51.196 13.4653 51.68 13.238 52.2667 12.974C52.868 12.71 53.6087 12.424 54.4887 12.116C54.6354 12.072 54.7747 12.05 54.9067 12.05C55.1267 12.05 55.2954 12.1013 55.4127 12.204C55.5447 12.3067 55.6107 12.402 55.6107 12.49ZM72.8221 13.348C72.8221 13.48 72.7341 13.6193 72.5581 13.766C72.3821 13.9127 72.1768 14.052 71.9421 14.184C71.7074 14.3013 71.4654 14.404 71.2161 14.492C70.9814 14.58 70.8054 14.624 70.6881 14.624C70.5561 14.624 70.4094 14.5873 70.2481 14.514C70.1014 14.4407 69.9548 14.3527 69.8081 14.25C69.6761 14.1473 69.5588 14.052 69.4561 13.964C69.3534 13.876 69.2874 13.8173 69.2581 13.788C69.2141 13.832 69.1481 13.92 69.0601 14.052C68.9721 14.184 68.8621 14.3307 68.7301 14.492C68.6128 14.6387 68.4808 14.7707 68.3341 14.888C68.2021 15.0053 68.0628 15.064 67.9161 15.064C67.5348 15.064 67.2048 14.8587 66.9261 14.448C66.6474 14.0373 66.4128 13.568 66.2221 13.04C66.0461 12.512 65.9068 12.006 65.8041 11.522C65.7161 11.0233 65.6721 10.686 65.6721 10.51C65.6721 10.4073 65.7234 10.3267 65.8261 10.268C65.9434 10.1947 66.0314 10.158 66.0901 10.158C66.2954 10.158 66.4348 10.2313 66.5081 10.378C66.5814 10.51 66.6181 10.6567 66.6181 10.818C66.6181 10.95 66.6548 11.1847 66.7281 11.522C66.8161 11.8593 66.9188 12.204 67.0361 12.556C67.1534 12.908 67.2781 13.2233 67.4101 13.502C67.5421 13.766 67.6594 13.898 67.7621 13.898C67.9528 13.898 68.1141 13.7807 68.2461 13.546C68.3928 13.2967 68.5101 13.018 68.5981 12.71C68.6861 12.3873 68.7521 12.0867 68.7961 11.808C68.8401 11.5147 68.8621 11.324 68.8621 11.236C68.8621 11.2213 68.8621 11.1773 68.8621 11.104C68.8768 11.016 68.8914 10.928 68.9061 10.84C68.9208 10.752 68.9281 10.6713 68.9281 10.598C68.9428 10.5247 68.9501 10.4733 68.9501 10.444C68.9501 10.3413 68.9281 10.2753 68.8841 10.246C68.8401 10.202 68.8181 10.1213 68.8181 10.004C68.8181 9.916 68.8621 9.83533 68.9501 9.762C69.0381 9.674 69.2288 9.63 69.5221 9.63C69.6394 9.63 69.7274 9.66667 69.7861 9.74C69.8594 9.79867 69.9108 9.872 69.9401 9.96C69.9694 10.048 69.9841 10.136 69.9841 10.224C69.9988 10.2973 70.0061 10.3487 70.0061 10.378C70.0061 10.3927 69.9988 10.4953 69.9841 10.686C69.9694 10.8767 69.9548 11.0893 69.9401 11.324C69.9401 11.544 69.9328 11.7567 69.9181 11.962C69.9034 12.1673 69.8961 12.292 69.8961 12.336C69.8961 12.38 69.9181 12.468 69.9621 12.6C70.0061 12.732 70.0574 12.8713 70.1161 13.018C70.1894 13.15 70.2701 13.2747 70.3581 13.392C70.4461 13.4947 70.5414 13.546 70.6441 13.546C70.8201 13.546 70.9814 13.524 71.1281 13.48C71.2894 13.4213 71.4361 13.3627 71.5681 13.304C71.7148 13.2307 71.8468 13.172 71.9641 13.128C72.0814 13.0693 72.1914 13.04 72.2941 13.04C72.4261 13.04 72.5434 13.0693 72.6461 13.128C72.7634 13.1867 72.8221 13.26 72.8221 13.348ZM80.3052 14.294C80.3052 14.382 80.2759 14.47 80.2172 14.558C80.1585 14.646 80.0852 14.7267 79.9972 14.8C79.9239 14.8733 79.8359 14.9393 79.7332 14.998C79.6452 15.042 79.5645 15.064 79.4912 15.064C79.2419 15.064 78.9192 15.0127 78.5232 14.91C78.1419 14.7927 77.8339 14.6167 77.5992 14.382C77.3499 14.1327 77.1299 13.8393 76.9392 13.502C76.7485 13.15 76.5359 12.6367 76.3012 11.962C76.1399 12.6073 75.9492 13.2453 75.7292 13.876C75.5239 14.5067 75.1865 15.086 74.7172 15.614C74.6879 15.6433 74.6439 15.658 74.5852 15.658C74.4825 15.658 74.3725 15.6067 74.2552 15.504C74.1379 15.4013 74.0792 15.2987 74.0792 15.196C74.0792 15.0933 74.0645 14.8587 74.0352 14.492C74.0205 14.1107 73.9985 13.6927 73.9692 13.238C73.9399 12.7687 73.9105 12.2993 73.8812 11.83C73.8665 11.346 73.8592 10.95 73.8592 10.642C73.8592 10.4953 73.8665 10.3047 73.8812 10.07C73.8959 9.82067 73.9399 9.608 74.0132 9.432C74.0279 9.40267 74.0792 9.344 74.1672 9.256C74.2699 9.168 74.3799 9.124 74.4972 9.124C74.5999 9.124 74.6585 9.19 74.6732 9.322C74.6879 9.454 74.6952 9.60067 74.6952 9.762V13.238C74.6952 13.3113 74.7025 13.414 74.7172 13.546C74.7465 13.678 74.7832 13.7733 74.8272 13.832C74.9885 13.48 75.1352 13.0693 75.2672 12.6C75.4139 12.116 75.5532 11.6613 75.6852 11.236C75.8172 10.796 75.9492 10.4293 76.0812 10.136C76.2132 9.828 76.3452 9.674 76.4772 9.674C76.6239 9.674 76.7412 9.70333 76.8292 9.762C76.9172 9.82067 76.9905 9.938 77.0492 10.114C77.1225 10.5393 77.1812 10.9207 77.2252 11.258C77.2692 11.5807 77.3205 11.874 77.3792 12.138C77.4525 12.402 77.5479 12.6513 77.6652 12.886C77.7972 13.106 77.9732 13.3113 78.1932 13.502C78.3985 13.6927 78.6259 13.832 78.8752 13.92C79.1392 14.008 79.3665 14.052 79.5572 14.052C79.6452 14.052 79.7405 14.0373 79.8432 14.008C79.9459 13.964 80.0192 13.942 80.0632 13.942C80.1219 13.942 80.1732 13.9933 80.2172 14.096C80.2759 14.1987 80.3052 14.2647 80.3052 14.294ZM96.7749 13.458C96.7749 13.5313 96.7383 13.6047 96.6649 13.678C96.6063 13.7367 96.5696 13.8027 96.5549 13.876C96.5549 14.0373 96.5843 14.1913 96.6429 14.338C96.7163 14.4847 96.7529 14.6607 96.7529 14.866C96.7529 15.0567 96.6943 15.152 96.5769 15.152C96.4303 15.152 96.3203 15.174 96.2469 15.218C96.1883 15.2473 96.0783 15.2767 95.9169 15.306C95.8289 15.306 95.7336 15.2253 95.6309 15.064C95.5723 14.9907 95.5209 14.9027 95.4769 14.8C95.4769 14.7853 95.4329 14.8147 95.3449 14.888C95.2716 14.9613 95.1396 15.0493 94.9489 15.152C94.7729 15.24 94.5236 15.328 94.2009 15.416C93.8929 15.4893 93.4969 15.526 93.0129 15.526C92.6023 15.526 92.2429 15.438 91.9349 15.262C91.6269 15.0713 91.3703 14.8293 91.1649 14.536C90.9743 14.2427 90.8276 13.9127 90.7249 13.546C90.6369 13.1647 90.5929 12.7833 90.5929 12.402C90.5929 12.05 90.6296 11.72 90.7029 11.412C90.7909 11.0893 90.9083 10.8107 91.0549 10.576C91.2016 10.3267 91.3849 10.1287 91.6049 9.982C91.8249 9.83533 92.0816 9.762 92.3749 9.762C92.6536 9.762 92.9323 9.85 93.2109 10.026C93.4896 10.202 93.7389 10.3927 93.9589 10.598C94.1789 10.8033 94.3549 10.994 94.4869 11.17C94.6336 11.3313 94.7069 11.412 94.7069 11.412C94.5016 10.268 94.3183 9.234 94.1569 8.31C94.0836 7.914 94.0103 7.52533 93.9369 7.144C93.8783 6.748 93.8196 6.396 93.7609 6.088C93.7023 5.78 93.6509 5.52333 93.6069 5.318C93.5776 5.098 93.5629 4.966 93.5629 4.922C93.5483 4.834 93.5336 4.68 93.5189 4.46C93.5043 4.22533 93.4896 3.98333 93.4749 3.734C93.4603 3.48467 93.4456 3.25733 93.4309 3.052C93.4163 2.84667 93.4016 2.71467 93.3869 2.656C93.3429 2.50933 93.2843 2.326 93.2109 2.106C93.1523 1.886 93.1229 1.76133 93.1229 1.732C93.1229 1.65867 93.1596 1.57067 93.2329 1.468C93.3063 1.35067 93.4016 1.292 93.5189 1.292C93.6069 1.292 93.6876 1.29933 93.7609 1.314C93.8343 1.32867 93.9003 1.37267 93.9589 1.446C94.0176 1.51933 94.0689 1.63667 94.1129 1.798C94.1716 1.94467 94.2229 2.15733 94.2669 2.436C94.2816 2.58267 94.3256 2.86133 94.3989 3.272C94.4723 3.68267 94.5456 4.13 94.6189 4.614C94.6923 5.098 94.7656 5.56 94.8389 6C94.9123 6.44 94.9636 6.76267 94.9929 6.968C95.0663 7.52533 95.1616 8.134 95.2789 8.794C95.4109 9.43933 95.5429 10.0627 95.6749 10.664C95.8069 11.2653 95.9389 11.8007 96.0709 12.27C96.2029 12.7247 96.3203 13.0327 96.4229 13.194C96.4523 13.2527 96.5109 13.2967 96.5989 13.326C96.6869 13.3407 96.7456 13.3847 96.7749 13.458ZM95.1469 13.898C95.1323 13.854 95.0369 13.6707 94.8609 13.348C94.6996 13.0107 94.4869 12.6513 94.2229 12.27C93.9736 11.874 93.6876 11.522 93.3649 11.214C93.0569 10.906 92.7563 10.752 92.4629 10.752C92.2136 10.752 92.0083 10.9427 91.8469 11.324C91.7003 11.7053 91.6269 12.1453 91.6269 12.644C91.6269 13.2013 91.7883 13.6487 92.1109 13.986C92.4483 14.3233 92.8223 14.492 93.2329 14.492C93.5849 14.492 93.9516 14.4333 94.3329 14.316C94.7143 14.1987 94.9856 14.0593 95.1469 13.898ZM104.593 14.69C104.607 14.7193 104.615 14.7633 104.615 14.822C104.615 14.91 104.549 15.042 104.417 15.218C104.373 15.2767 104.277 15.372 104.131 15.504C103.984 15.636 103.786 15.768 103.537 15.9C103.287 16.032 102.979 16.1493 102.613 16.252C102.261 16.3547 101.843 16.406 101.359 16.406C101.021 16.406 100.691 16.3327 100.369 16.186C100.046 16.0247 99.76 15.7973 99.5107 15.504C99.2613 15.196 99.056 14.822 98.8947 14.382C98.7333 13.9273 98.6527 13.3993 98.6527 12.798C98.6527 12.226 98.726 11.6907 98.8727 11.192C99.0193 10.6933 99.2027 10.2533 99.4227 9.872C99.6573 9.49067 99.914 9.19 100.193 8.97C100.471 8.75 100.743 8.64 101.007 8.64C101.241 8.64 101.476 8.69133 101.711 8.794C101.96 8.882 102.18 8.99933 102.371 9.146C102.576 9.29267 102.737 9.46133 102.855 9.652C102.972 9.828 103.031 10.0113 103.031 10.202C103.031 10.422 102.928 10.6493 102.723 10.884C102.532 11.1187 102.297 11.3387 102.019 11.544C101.74 11.7347 101.461 11.896 101.183 12.028C100.904 12.1453 100.684 12.204 100.523 12.204C100.435 12.204 100.354 12.1673 100.281 12.094C100.222 12.006 100.193 11.9033 100.193 11.786C100.193 11.5807 100.281 11.4193 100.457 11.302C100.647 11.1847 100.853 11.082 101.073 10.994C101.293 10.8913 101.491 10.774 101.667 10.642C101.857 10.51 101.953 10.3267 101.953 10.092C101.953 10.0627 101.916 9.98933 101.843 9.872C101.769 9.75467 101.571 9.696 101.249 9.696C101.102 9.696 100.933 9.784 100.743 9.96C100.552 10.1213 100.369 10.3487 100.193 10.642C100.017 10.9207 99.87 11.258 99.7527 11.654C99.6353 12.0353 99.5767 12.4533 99.5767 12.908C99.5767 13.2893 99.6427 13.634 99.7747 13.942C99.9213 14.25 100.105 14.514 100.325 14.734C100.545 14.9393 100.801 15.1007 101.095 15.218C101.388 15.3353 101.689 15.394 101.997 15.394C102.217 15.394 102.451 15.35 102.701 15.262C102.965 15.1593 103.207 15.0567 103.427 14.954C103.661 14.8367 103.859 14.734 104.021 14.646C104.197 14.5433 104.307 14.492 104.351 14.492C104.395 14.492 104.439 14.514 104.483 14.558C104.541 14.602 104.578 14.646 104.593 14.69ZM121.592 12.996C121.592 13.1427 121.57 13.2967 121.526 13.458C121.482 13.6047 121.438 13.7293 121.394 13.832C121.365 13.876 121.225 14.03 120.976 14.294C120.741 14.5433 120.441 14.8073 120.074 15.086C119.722 15.3647 119.319 15.6213 118.864 15.856C118.424 16.076 117.999 16.186 117.588 16.186C117.339 16.186 117.082 16.142 116.818 16.054C116.569 15.966 116.334 15.8267 116.114 15.636C115.894 15.4307 115.711 15.1813 115.564 14.888C115.432 14.5947 115.366 14.2353 115.366 13.81C115.366 13.106 115.483 12.468 115.718 11.896C115.953 11.324 116.187 10.8693 116.422 10.532C116.525 10.3707 116.657 10.2093 116.818 10.048C116.994 9.872 117.163 9.718 117.324 9.586C117.485 9.43933 117.632 9.322 117.764 9.234C117.911 9.146 118.013 9.102 118.072 9.102C118.204 9.102 118.321 9.13867 118.424 9.212C118.541 9.28533 118.6 9.35867 118.6 9.432C118.6 9.54933 118.563 9.652 118.49 9.74C118.431 9.81333 118.343 9.90133 118.226 10.004C118.109 10.092 117.969 10.2167 117.808 10.378C117.647 10.5247 117.478 10.7227 117.302 10.972C116.95 11.456 116.686 11.9547 116.51 12.468C116.349 12.9667 116.268 13.4067 116.268 13.788C116.268 14.1693 116.407 14.4773 116.686 14.712C116.979 14.932 117.28 15.042 117.588 15.042C118.145 15.042 118.637 14.9173 119.062 14.668C119.502 14.4187 119.876 14.14 120.184 13.832C120.492 13.524 120.741 13.2453 120.932 12.996C121.123 12.7467 121.262 12.622 121.35 12.622C121.511 12.622 121.592 12.7467 121.592 12.996ZM129.472 14.69C129.486 14.7193 129.494 14.7633 129.494 14.822C129.494 14.91 129.428 15.042 129.296 15.218C129.252 15.2767 129.156 15.372 129.01 15.504C128.863 15.636 128.665 15.768 128.416 15.9C128.166 16.032 127.858 16.1493 127.492 16.252C127.14 16.3547 126.722 16.406 126.238 16.406C125.9 16.406 125.57 16.3327 125.248 16.186C124.925 16.0247 124.639 15.7973 124.39 15.504C124.14 15.196 123.935 14.822 123.774 14.382C123.612 13.9273 123.532 13.3993 123.532 12.798C123.532 12.226 123.605 11.6907 123.752 11.192C123.898 10.6933 124.082 10.2533 124.302 9.872C124.536 9.49067 124.793 9.19 125.072 8.97C125.35 8.75 125.622 8.64 125.886 8.64C126.12 8.64 126.355 8.69133 126.59 8.794C126.839 8.882 127.059 8.99933 127.25 9.146C127.455 9.29267 127.616 9.46133 127.734 9.652C127.851 9.828 127.91 10.0113 127.91 10.202C127.91 10.422 127.807 10.6493 127.602 10.884C127.411 11.1187 127.176 11.3387 126.898 11.544C126.619 11.7347 126.34 11.896 126.062 12.028C125.783 12.1453 125.563 12.204 125.402 12.204C125.314 12.204 125.233 12.1673 125.16 12.094C125.101 12.006 125.072 11.9033 125.072 11.786C125.072 11.5807 125.16 11.4193 125.336 11.302C125.526 11.1847 125.732 11.082 125.952 10.994C126.172 10.8913 126.37 10.774 126.546 10.642C126.736 10.51 126.832 10.3267 126.832 10.092C126.832 10.0627 126.795 9.98933 126.722 9.872C126.648 9.75467 126.45 9.696 126.128 9.696C125.981 9.696 125.812 9.784 125.622 9.96C125.431 10.1213 125.248 10.3487 125.072 10.642C124.896 10.9207 124.749 11.258 124.632 11.654C124.514 12.0353 124.456 12.4533 124.456 12.908C124.456 13.2893 124.522 13.634 124.654 13.942C124.8 14.25 124.984 14.514 125.204 14.734C125.424 14.9393 125.68 15.1007 125.974 15.218C126.267 15.3353 126.568 15.394 126.876 15.394C127.096 15.394 127.33 15.35 127.58 15.262C127.844 15.1593 128.086 15.0567 128.306 14.954C128.54 14.8367 128.738 14.734 128.9 14.646C129.076 14.5433 129.186 14.492 129.23 14.492C129.274 14.492 129.318 14.514 129.362 14.558C129.42 14.602 129.457 14.646 129.472 14.69ZM135.976 14.096C135.976 14.3453 135.888 14.5653 135.712 14.756C135.55 14.932 135.337 15.086 135.073 15.218C134.824 15.3353 134.546 15.4307 134.237 15.504C133.929 15.5773 133.636 15.636 133.358 15.68C133.079 15.7093 132.829 15.7313 132.609 15.746C132.404 15.746 132.272 15.746 132.214 15.746C131.891 15.746 131.642 15.6947 131.466 15.592C131.29 15.4893 131.202 15.306 131.202 15.042C131.202 14.954 131.209 14.8807 131.224 14.822C131.238 14.7487 131.297 14.712 131.4 14.712C131.444 14.712 131.517 14.7267 131.62 14.756C131.722 14.7707 131.803 14.778 131.861 14.778C131.92 14.778 132.104 14.7707 132.412 14.756C132.734 14.7267 133.071 14.6827 133.423 14.624C133.79 14.5653 134.113 14.4847 134.391 14.382C134.685 14.2647 134.832 14.118 134.832 13.942C134.832 13.9127 134.678 13.8247 134.369 13.678C134.076 13.5167 133.629 13.2527 133.028 12.886C132.558 12.5927 132.228 12.2993 132.038 12.006C131.847 11.698 131.752 11.2873 131.752 10.774C131.752 10.4513 131.818 10.1873 131.949 9.982C132.096 9.77667 132.287 9.61533 132.521 9.498C132.771 9.38067 133.049 9.3 133.358 9.256C133.68 9.19733 134.018 9.168 134.369 9.168C134.399 9.168 134.487 9.18267 134.634 9.212C134.795 9.24133 134.963 9.29267 135.14 9.366C135.315 9.42467 135.469 9.50533 135.601 9.608C135.748 9.696 135.822 9.79867 135.822 9.916C135.822 9.94533 135.792 9.98933 135.733 10.048C135.69 10.1067 135.609 10.2167 135.492 10.378C135.447 10.3633 135.367 10.3413 135.249 10.312C135.147 10.2827 135.022 10.2533 134.875 10.224C134.744 10.18 134.604 10.1507 134.458 10.136C134.311 10.1067 134.193 10.092 134.105 10.092C133.724 10.092 133.416 10.1653 133.182 10.312C132.947 10.444 132.83 10.708 132.83 11.104C132.83 11.2947 132.903 11.4707 133.049 11.632C133.211 11.7933 133.409 11.9473 133.644 12.094C133.878 12.226 134.128 12.3653 134.391 12.512C134.67 12.644 134.927 12.7907 135.162 12.952C135.396 13.1133 135.587 13.2893 135.733 13.48C135.895 13.656 135.976 13.8613 135.976 14.096ZM153.061 9.52C153.061 9.76933 152.929 10.0113 152.665 10.246C152.416 10.4807 152.137 10.7007 151.829 10.906C151.521 11.0967 151.228 11.258 150.949 11.39C150.685 11.5073 150.531 11.5733 150.487 11.588C150.311 11.6613 150.223 11.742 150.223 11.83C150.223 11.8887 150.282 11.9253 150.399 11.94C150.531 11.94 150.751 11.9987 151.059 12.116C151.235 12.1747 151.426 12.2553 151.631 12.358C151.836 12.446 152.027 12.5707 152.203 12.732C152.379 12.8787 152.526 13.0693 152.643 13.304C152.76 13.524 152.819 13.7953 152.819 14.118C152.819 14.4553 152.694 14.778 152.445 15.086C152.196 15.394 151.888 15.6653 151.521 15.9C151.169 16.1347 150.78 16.3253 150.355 16.472C149.944 16.604 149.57 16.67 149.233 16.67C149.028 16.67 148.815 16.6553 148.595 16.626C148.39 16.582 148.192 16.5233 148.001 16.45C147.825 16.3767 147.678 16.2813 147.561 16.164C147.444 16.0467 147.385 15.9 147.385 15.724C147.385 15.636 147.414 15.526 147.473 15.394C147.546 15.2473 147.62 15.1373 147.693 15.064C147.869 15.2253 148.067 15.35 148.287 15.438C148.522 15.526 148.815 15.57 149.167 15.57C149.402 15.57 149.666 15.526 149.959 15.438C150.267 15.3353 150.553 15.2107 150.817 15.064C151.081 14.9027 151.301 14.7267 151.477 14.536C151.653 14.3307 151.741 14.118 151.741 13.898C151.741 13.59 151.587 13.37 151.279 13.238C150.971 13.106 150.634 12.996 150.267 12.908C149.9 12.8053 149.563 12.6953 149.255 12.578C148.947 12.446 148.793 12.226 148.793 11.918C148.793 11.7127 148.94 11.5073 149.233 11.302C149.541 11.0967 149.878 10.8987 150.245 10.708C150.612 10.5173 150.942 10.3413 151.235 10.18C151.543 10.004 151.697 9.84267 151.697 9.696C151.697 9.59333 151.602 9.542 151.411 9.542C151.176 9.542 150.92 9.57867 150.641 9.652C150.362 9.72533 150.091 9.806 149.827 9.894C149.578 9.982 149.343 10.0627 149.123 10.136C148.918 10.2093 148.764 10.246 148.661 10.246C148.456 10.246 148.316 10.2093 148.243 10.136C148.184 10.0627 148.155 9.938 148.155 9.762C148.155 9.65933 148.228 9.564 148.375 9.476C148.522 9.37333 148.705 9.278 148.925 9.19C149.16 9.102 149.409 9.02867 149.673 8.97C149.952 8.89667 150.216 8.838 150.465 8.794C150.714 8.73533 150.934 8.69133 151.125 8.662C151.33 8.63267 151.47 8.618 151.543 8.618C151.646 8.618 151.778 8.63267 151.939 8.662C152.115 8.67667 152.284 8.72067 152.445 8.794C152.606 8.85267 152.746 8.94067 152.863 9.058C152.995 9.17533 153.061 9.32933 153.061 9.52ZM169.104 14.096C169.104 14.3453 169.016 14.5653 168.84 14.756C168.679 14.932 168.466 15.086 168.202 15.218C167.953 15.3353 167.674 15.4307 167.366 15.504C167.058 15.5773 166.765 15.636 166.486 15.68C166.208 15.7093 165.958 15.7313 165.738 15.746C165.533 15.746 165.401 15.746 165.342 15.746C165.02 15.746 164.77 15.6947 164.594 15.592C164.418 15.4893 164.33 15.306 164.33 15.042C164.33 14.954 164.338 14.8807 164.352 14.822C164.367 14.7487 164.426 14.712 164.528 14.712C164.572 14.712 164.646 14.7267 164.748 14.756C164.851 14.7707 164.932 14.778 164.99 14.778C165.049 14.778 165.232 14.7707 165.54 14.756C165.863 14.7267 166.2 14.6827 166.552 14.624C166.919 14.5653 167.242 14.4847 167.52 14.382C167.814 14.2647 167.96 14.118 167.96 13.942C167.96 13.9127 167.806 13.8247 167.498 13.678C167.205 13.5167 166.758 13.2527 166.156 12.886C165.687 12.5927 165.357 12.2993 165.166 12.006C164.976 11.698 164.88 11.2873 164.88 10.774C164.88 10.4513 164.946 10.1873 165.078 9.982C165.225 9.77667 165.416 9.61533 165.65 9.498C165.9 9.38067 166.178 9.3 166.486 9.256C166.809 9.19733 167.146 9.168 167.498 9.168C167.528 9.168 167.616 9.18267 167.762 9.212C167.924 9.24133 168.092 9.29267 168.268 9.366C168.444 9.42467 168.598 9.50533 168.73 9.608C168.877 9.696 168.95 9.79867 168.95 9.916C168.95 9.94533 168.921 9.98933 168.862 10.048C168.818 10.1067 168.738 10.2167 168.62 10.378C168.576 10.3633 168.496 10.3413 168.378 10.312C168.276 10.2827 168.151 10.2533 168.004 10.224C167.872 10.18 167.733 10.1507 167.586 10.136C167.44 10.1067 167.322 10.092 167.234 10.092C166.853 10.092 166.545 10.1653 166.31 10.312C166.076 10.444 165.958 10.708 165.958 11.104C165.958 11.2947 166.032 11.4707 166.178 11.632C166.34 11.7933 166.538 11.9473 166.772 12.094C167.007 12.226 167.256 12.3653 167.52 12.512C167.799 12.644 168.056 12.7907 168.29 12.952C168.525 13.1133 168.716 13.2893 168.862 13.48C169.024 13.656 169.104 13.8613 169.104 14.096ZM177.322 12.996C177.322 13.1427 177.3 13.2967 177.256 13.458C177.212 13.6047 177.168 13.7293 177.124 13.832C177.095 13.876 176.956 14.03 176.706 14.294C176.472 14.5433 176.171 14.8073 175.804 15.086C175.452 15.3647 175.049 15.6213 174.594 15.856C174.154 16.076 173.729 16.186 173.318 16.186C173.069 16.186 172.812 16.142 172.548 16.054C172.299 15.966 172.064 15.8267 171.844 15.636C171.624 15.4307 171.441 15.1813 171.294 14.888C171.162 14.5947 171.096 14.2353 171.096 13.81C171.096 13.106 171.214 12.468 171.448 11.896C171.683 11.324 171.918 10.8693 172.152 10.532C172.255 10.3707 172.387 10.2093 172.548 10.048C172.724 9.872 172.893 9.718 173.054 9.586C173.216 9.43933 173.362 9.322 173.494 9.234C173.641 9.146 173.744 9.102 173.802 9.102C173.934 9.102 174.052 9.13867 174.154 9.212C174.272 9.28533 174.33 9.35867 174.33 9.432C174.33 9.54933 174.294 9.652 174.22 9.74C174.162 9.81333 174.074 9.90133 173.956 10.004C173.839 10.092 173.7 10.2167 173.538 10.378C173.377 10.5247 173.208 10.7227 173.032 10.972C172.68 11.456 172.416 11.9547 172.24 12.468C172.079 12.9667 171.998 13.4067 171.998 13.788C171.998 14.1693 172.138 14.4773 172.416 14.712C172.71 14.932 173.01 15.042 173.318 15.042C173.876 15.042 174.367 14.9173 174.792 14.668C175.232 14.4187 175.606 14.14 175.914 13.832C176.222 13.524 176.472 13.2453 176.662 12.996C176.853 12.7467 176.992 12.622 177.08 12.622C177.242 12.622 177.322 12.7467 177.322 12.996ZM185.202 14.69C185.217 14.7193 185.224 14.7633 185.224 14.822C185.224 14.91 185.158 15.042 185.026 15.218C184.982 15.2767 184.887 15.372 184.74 15.504C184.593 15.636 184.395 15.768 184.146 15.9C183.897 16.032 183.589 16.1493 183.222 16.252C182.87 16.3547 182.452 16.406 181.968 16.406C181.631 16.406 181.301 16.3327 180.978 16.186C180.655 16.0247 180.369 15.7973 180.12 15.504C179.871 15.196 179.665 14.822 179.504 14.382C179.343 13.9273 179.262 13.3993 179.262 12.798C179.262 12.226 179.335 11.6907 179.482 11.192C179.629 10.6933 179.812 10.2533 180.032 9.872C180.267 9.49067 180.523 9.19 180.802 8.97C181.081 8.75 181.352 8.64 181.616 8.64C181.851 8.64 182.085 8.69133 182.32 8.794C182.569 8.882 182.789 8.99933 182.98 9.146C183.185 9.29267 183.347 9.46133 183.464 9.652C183.581 9.828 183.64 10.0113 183.64 10.202C183.64 10.422 183.537 10.6493 183.332 10.884C183.141 11.1187 182.907 11.3387 182.628 11.544C182.349 11.7347 182.071 11.896 181.792 12.028C181.513 12.1453 181.293 12.204 181.132 12.204C181.044 12.204 180.963 12.1673 180.89 12.094C180.831 12.006 180.802 11.9033 180.802 11.786C180.802 11.5807 180.89 11.4193 181.066 11.302C181.257 11.1847 181.462 11.082 181.682 10.994C181.902 10.8913 182.1 10.774 182.276 10.642C182.467 10.51 182.562 10.3267 182.562 10.092C182.562 10.0627 182.525 9.98933 182.452 9.872C182.379 9.75467 182.181 9.696 181.858 9.696C181.711 9.696 181.543 9.784 181.352 9.96C181.161 10.1213 180.978 10.3487 180.802 10.642C180.626 10.9207 180.479 11.258 180.362 11.654C180.245 12.0353 180.186 12.4533 180.186 12.908C180.186 13.2893 180.252 13.634 180.384 13.942C180.531 14.25 180.714 14.514 180.934 14.734C181.154 14.9393 181.411 15.1007 181.704 15.218C181.997 15.3353 182.298 15.394 182.606 15.394C182.826 15.394 183.061 15.35 183.31 15.262C183.574 15.1593 183.816 15.0567 184.036 14.954C184.271 14.8367 184.469 14.734 184.63 14.646C184.806 14.5433 184.916 14.492 184.96 14.492C185.004 14.492 185.048 14.514 185.092 14.558C185.151 14.602 185.187 14.646 185.202 14.69ZM183.948 5.384C183.948 5.50133 183.86 5.67 183.684 5.89C183.508 6.11 183.295 6.33733 183.046 6.572C182.811 6.80667 182.562 7.02667 182.298 7.232C182.049 7.42267 181.851 7.55467 181.704 7.628C181.587 7.68667 181.484 7.72333 181.396 7.738C181.308 7.75267 181.235 7.76 181.176 7.76C181.059 7.76 180.912 7.694 180.736 7.562C180.56 7.43 180.472 7.30533 180.472 7.188C180.472 7.15867 180.538 7.122 180.67 7.078C180.802 7.01933 180.949 6.946 181.11 6.858C181.257 6.77 181.447 6.63067 181.682 6.44C181.931 6.23467 182.173 6.03667 182.408 5.846C182.657 5.64067 182.877 5.46467 183.068 5.318C183.273 5.17133 183.413 5.098 183.486 5.098C183.589 5.098 183.691 5.12733 183.794 5.186C183.897 5.24467 183.948 5.31067 183.948 5.384ZM193.356 14.294C193.356 14.382 193.327 14.47 193.268 14.558C193.209 14.646 193.136 14.7267 193.048 14.8C192.975 14.8733 192.887 14.9393 192.784 14.998C192.696 15.042 192.615 15.064 192.542 15.064C192.293 15.064 191.97 15.0127 191.574 14.91C191.193 14.7927 190.885 14.6167 190.65 14.382C190.401 14.1327 190.181 13.8393 189.99 13.502C189.799 13.15 189.587 12.6367 189.352 11.962C189.191 12.6073 189 13.2453 188.78 13.876C188.575 14.5067 188.237 15.086 187.768 15.614C187.739 15.6433 187.695 15.658 187.636 15.658C187.533 15.658 187.423 15.6067 187.306 15.504C187.189 15.4013 187.13 15.2987 187.13 15.196C187.13 15.0933 187.115 14.8587 187.086 14.492C187.071 14.1107 187.049 13.6927 187.02 13.238C186.991 12.7687 186.961 12.2993 186.932 11.83C186.917 11.346 186.91 10.95 186.91 10.642C186.91 10.4953 186.917 10.3047 186.932 10.07C186.947 9.82067 186.991 9.608 187.064 9.432C187.079 9.40267 187.13 9.344 187.218 9.256C187.321 9.168 187.431 9.124 187.548 9.124C187.651 9.124 187.709 9.19 187.724 9.322C187.739 9.454 187.746 9.60067 187.746 9.762V13.238C187.746 13.3113 187.753 13.414 187.768 13.546C187.797 13.678 187.834 13.7733 187.878 13.832C188.039 13.48 188.186 13.0693 188.318 12.6C188.465 12.116 188.604 11.6613 188.736 11.236C188.868 10.796 189 10.4293 189.132 10.136C189.264 9.828 189.396 9.674 189.528 9.674C189.675 9.674 189.792 9.70333 189.88 9.762C189.968 9.82067 190.041 9.938 190.1 10.114C190.173 10.5393 190.232 10.9207 190.276 11.258C190.32 11.5807 190.371 11.874 190.43 12.138C190.503 12.402 190.599 12.6513 190.716 12.886C190.848 13.106 191.024 13.3113 191.244 13.502C191.449 13.6927 191.677 13.832 191.926 13.92C192.19 14.008 192.417 14.052 192.608 14.052C192.696 14.052 192.791 14.0373 192.894 14.008C192.997 13.964 193.07 13.942 193.114 13.942C193.173 13.942 193.224 13.9933 193.268 14.096C193.327 14.1987 193.356 14.2647 193.356 14.294ZM204.94 12.424C204.94 12.688 204.816 13.018 204.566 13.414C204.332 13.7953 204.009 14.1693 203.598 14.536C203.188 14.9027 202.711 15.218 202.168 15.482C201.626 15.7313 201.061 15.856 200.474 15.856C200.21 15.856 199.932 15.812 199.638 15.724C199.345 15.636 199.059 15.5113 198.78 15.35C198.502 15.174 198.252 14.9687 198.032 14.734C197.812 14.4847 197.651 14.206 197.548 13.898C197.46 13.986 197.35 14.1327 197.218 14.338C197.101 14.5433 196.969 14.756 196.822 14.976C196.676 15.1813 196.514 15.3647 196.338 15.526C196.162 15.6727 195.979 15.746 195.788 15.746C195.598 15.746 195.436 15.6507 195.304 15.46C195.187 15.2547 195.092 15.0347 195.018 14.8C194.945 14.5507 194.894 14.316 194.864 14.096C194.835 13.876 194.82 13.7513 194.82 13.722C194.82 13.546 194.872 13.216 194.974 12.732C195.077 12.2333 195.231 11.72 195.436 11.192C195.642 10.664 195.898 10.1947 196.206 9.784C196.529 9.37333 196.903 9.168 197.328 9.168C197.49 9.168 197.592 9.24133 197.636 9.388C197.695 9.52 197.724 9.652 197.724 9.784V10.444C197.798 10.5027 197.871 10.5467 197.944 10.576C198.032 10.5907 198.106 10.62 198.164 10.664C198.238 10.6933 198.289 10.7447 198.318 10.818C198.362 10.8913 198.384 11.0087 198.384 11.17C198.384 11.2727 198.377 11.368 198.362 11.456C198.348 11.5293 198.34 11.6027 198.34 11.676C198.34 12.0573 198.37 12.4313 198.428 12.798C198.487 13.1647 198.604 13.4947 198.78 13.788C198.956 14.0667 199.198 14.3013 199.506 14.492C199.814 14.668 200.225 14.756 200.738 14.756C201.384 14.756 201.926 14.624 202.366 14.36C202.821 14.0813 203.195 13.7807 203.488 13.458C203.796 13.1207 204.038 12.82 204.214 12.556C204.39 12.2773 204.537 12.138 204.654 12.138C204.845 12.138 204.94 12.2333 204.94 12.424ZM197.218 11.456C197.218 11.3973 197.204 11.346 197.174 11.302C197.145 11.2433 197.13 11.192 197.13 11.148C197.13 11.0893 197.145 11.038 197.174 10.994C197.204 10.95 197.218 10.8913 197.218 10.818C197.218 10.774 197.204 10.7447 197.174 10.73C197.145 10.7007 197.13 10.6713 197.13 10.642C196.998 10.6713 196.859 10.796 196.712 11.016C196.58 11.236 196.448 11.4927 196.316 11.786C196.199 12.0793 196.104 12.38 196.03 12.688C195.957 12.9813 195.92 13.2233 195.92 13.414C195.92 13.5167 195.95 13.6853 196.008 13.92C196.067 14.1547 196.133 14.3087 196.206 14.382C196.456 13.8687 196.683 13.37 196.888 12.886C197.108 12.402 197.218 11.9253 197.218 11.456ZM210.403 10.29C210.403 10.3927 210.359 10.4807 210.271 10.554C210.183 10.6127 210.08 10.664 209.963 10.708C209.846 10.752 209.728 10.7887 209.611 10.818C209.494 10.8327 209.398 10.84 209.325 10.84C209.105 10.84 208.958 10.8253 208.885 10.796C208.812 10.7667 208.753 10.752 208.709 10.752C208.342 10.752 208.049 10.7813 207.829 10.84C207.609 10.8987 207.433 10.994 207.301 11.126C207.184 11.258 207.103 11.4267 207.059 11.632C207.03 11.8227 207.015 12.0573 207.015 12.336C207.015 12.8053 207.03 13.1793 207.059 13.458C207.103 13.7367 207.14 13.964 207.169 14.14C207.213 14.316 207.25 14.4553 207.279 14.558C207.323 14.646 207.345 14.734 207.345 14.822C207.345 14.9393 207.279 15.064 207.147 15.196C207.03 15.328 206.92 15.394 206.817 15.394C206.641 15.394 206.48 15.24 206.333 14.932C206.201 14.6093 206.084 14.2353 205.981 13.81C205.893 13.37 205.82 12.9373 205.761 12.512C205.702 12.0867 205.673 11.764 205.673 11.544C205.673 11.2947 205.695 11.06 205.739 10.84C205.783 10.6053 205.842 10.4073 205.915 10.246C205.988 10.07 206.069 9.93067 206.157 9.828C206.245 9.72533 206.333 9.674 206.421 9.674C206.494 9.674 206.553 9.70333 206.597 9.762C206.641 9.806 206.678 9.86467 206.707 9.938C206.736 9.99667 206.766 10.0553 206.795 10.114C206.839 10.158 206.89 10.18 206.949 10.18C207.081 10.18 207.294 10.114 207.587 9.982C207.88 9.85 208.24 9.784 208.665 9.784C209.061 9.784 209.354 9.79867 209.545 9.828C209.75 9.84267 209.948 9.88667 210.139 9.96C210.183 9.97467 210.234 10.0113 210.293 10.07C210.366 10.114 210.403 10.1873 210.403 10.29ZM213.47 6.88C213.47 6.90933 213.419 6.968 213.316 7.056C213.213 7.144 213.089 7.23933 212.942 7.342C212.81 7.43 212.671 7.51067 212.524 7.584C212.377 7.65733 212.26 7.694 212.172 7.694C212.113 7.694 212.033 7.694 211.93 7.694C211.842 7.67933 211.747 7.65 211.644 7.606C211.556 7.562 211.475 7.50333 211.402 7.43C211.329 7.342 211.292 7.232 211.292 7.1C211.292 6.89467 211.365 6.704 211.512 6.528C211.659 6.33733 211.849 6.242 212.084 6.242C212.128 6.242 212.223 6.264 212.37 6.308C212.531 6.33733 212.693 6.38133 212.854 6.44C213.015 6.49867 213.155 6.56467 213.272 6.638C213.404 6.71133 213.47 6.792 213.47 6.88ZM214.196 15.108C214.196 15.2107 214.115 15.2987 213.954 15.372C213.807 15.4453 213.697 15.482 213.624 15.482C213.477 15.482 213.345 15.3867 213.228 15.196C213.111 15.0053 213.008 14.7853 212.92 14.536C212.832 14.2867 212.759 14.052 212.7 13.832C212.641 13.5973 212.597 13.436 212.568 13.348C212.524 13.2013 212.465 13.0253 212.392 12.82C212.319 12.6147 212.245 12.4167 212.172 12.226C212.113 12.0353 212.062 11.8667 212.018 11.72C211.974 11.5733 211.952 11.4927 211.952 11.478C211.952 11.2727 211.989 11.082 212.062 10.906C212.15 10.73 212.253 10.642 212.37 10.642C212.502 10.642 212.641 10.7447 212.788 10.95C212.935 11.1553 213.074 11.4193 213.206 11.742C213.353 12.05 213.485 12.3947 213.602 12.776C213.719 13.1427 213.822 13.4947 213.91 13.832C213.998 14.1547 214.064 14.4407 214.108 14.69C214.167 14.9247 214.196 15.064 214.196 15.108ZM219.526 12.248C219.526 12.5707 219.482 12.8787 219.394 13.172C219.306 13.4653 219.189 13.722 219.042 13.942C218.895 14.162 218.719 14.338 218.514 14.47C218.323 14.5873 218.111 14.646 217.876 14.646C217.465 14.646 217.143 14.5287 216.908 14.294C216.673 14.0593 216.49 13.788 216.358 13.48C216.241 13.172 216.16 12.864 216.116 12.556C216.087 12.2333 216.072 11.9913 216.072 11.83C216.072 11.566 216.109 11.2727 216.182 10.95C216.27 10.6127 216.38 10.3047 216.512 10.026C216.659 9.74733 216.82 9.51267 216.996 9.322C217.172 9.13133 217.355 9.036 217.546 9.036C217.59 9.036 217.656 9.05067 217.744 9.08C217.847 9.10933 217.949 9.15333 218.052 9.212C218.155 9.27067 218.243 9.344 218.316 9.432C218.404 9.52 218.463 9.62267 218.492 9.74C218.653 9.75467 218.815 9.81333 218.976 9.916C219.137 10.0187 219.225 10.0993 219.24 10.158C219.357 10.5393 219.431 10.9207 219.46 11.302C219.504 11.6833 219.526 11.9987 219.526 12.248ZM218.536 11.852C218.536 11.632 218.514 11.4047 218.47 11.17C218.426 10.9207 218.338 10.6713 218.206 10.422C218.177 10.4367 218.14 10.444 218.096 10.444C218.037 10.444 217.986 10.4367 217.942 10.422C217.913 10.4073 217.883 10.4 217.854 10.4C217.678 10.4 217.539 10.4513 217.436 10.554C217.333 10.642 217.253 10.7667 217.194 10.928C217.15 11.0747 217.121 11.236 217.106 11.412C217.091 11.588 217.084 11.7567 217.084 11.918C217.084 12.0793 217.091 12.2627 217.106 12.468C217.121 12.6587 217.15 12.842 217.194 13.018C217.253 13.194 217.326 13.348 217.414 13.48C217.502 13.5973 217.619 13.656 217.766 13.656C217.913 13.656 218.037 13.5827 218.14 13.436C218.243 13.2747 218.323 13.0913 218.382 12.886C218.441 12.6807 218.477 12.4827 218.492 12.292C218.521 12.0867 218.536 11.94 218.536 11.852ZM226.704 14.096C226.704 14.3453 226.616 14.5653 226.44 14.756C226.279 14.932 226.066 15.086 225.802 15.218C225.553 15.3353 225.274 15.4307 224.966 15.504C224.658 15.5773 224.365 15.636 224.086 15.68C223.807 15.7093 223.558 15.7313 223.338 15.746C223.133 15.746 223.001 15.746 222.942 15.746C222.619 15.746 222.37 15.6947 222.194 15.592C222.018 15.4893 221.93 15.306 221.93 15.042C221.93 14.954 221.937 14.8807 221.952 14.822C221.967 14.7487 222.025 14.712 222.128 14.712C222.172 14.712 222.245 14.7267 222.348 14.756C222.451 14.7707 222.531 14.778 222.59 14.778C222.649 14.778 222.832 14.7707 223.14 14.756C223.463 14.7267 223.8 14.6827 224.152 14.624C224.519 14.5653 224.841 14.4847 225.12 14.382C225.413 14.2647 225.56 14.118 225.56 13.942C225.56 13.9127 225.406 13.8247 225.098 13.678C224.805 13.5167 224.357 13.2527 223.756 12.886C223.287 12.5927 222.957 12.2993 222.766 12.006C222.575 11.698 222.48 11.2873 222.48 10.774C222.48 10.4513 222.546 10.1873 222.678 9.982C222.825 9.77667 223.015 9.61533 223.25 9.498C223.499 9.38067 223.778 9.3 224.086 9.256C224.409 9.19733 224.746 9.168 225.098 9.168C225.127 9.168 225.215 9.18267 225.362 9.212C225.523 9.24133 225.692 9.29267 225.868 9.366C226.044 9.42467 226.198 9.50533 226.33 9.608C226.477 9.696 226.55 9.79867 226.55 9.916C226.55 9.94533 226.521 9.98933 226.462 10.048C226.418 10.1067 226.337 10.2167 226.22 10.378C226.176 10.3633 226.095 10.3413 225.978 10.312C225.875 10.2827 225.751 10.2533 225.604 10.224C225.472 10.18 225.333 10.1507 225.186 10.136C225.039 10.1067 224.922 10.092 224.834 10.092C224.453 10.092 224.145 10.1653 223.91 10.312C223.675 10.444 223.558 10.708 223.558 11.104C223.558 11.2947 223.631 11.4707 223.778 11.632C223.939 11.7933 224.137 11.9473 224.372 12.094C224.607 12.226 224.856 12.3653 225.12 12.512C225.399 12.644 225.655 12.7907 225.89 12.952C226.125 13.1133 226.315 13.2893 226.462 13.48C226.623 13.656 226.704 13.8613 226.704 14.096Z" fill="#505050"/>
</svg>
