<?xml version="1.0" encoding="UTF-8" standalone="no"?>
<!-- Generator: Adobe Illustrator 25.4.0, SVG Export Plug-In . SVG Version: 6.00 Build 0)  -->

<svg
   version="1.1"
   id="Calque_1"
   x="0px"
   y="0px"
   width="213.874px"
   height="226.899px"
   viewBox="0 0 213.874 226.899"
   enable-background="new 0 0 213.874 226.899"
   xml:space="preserve"
   sodipodi:docname="signature-perso-1.svg"
   inkscape:version="1.1 (c68e22c387, 2021-05-23)"
   xmlns:inkscape="http://www.inkscape.org/namespaces/inkscape"
   xmlns:sodipodi="http://sodipodi.sourceforge.net/DTD/sodipodi-0.dtd"
   xmlns="http://www.w3.org/2000/svg"
   xmlns:svg="http://www.w3.org/2000/svg"><defs
   id="defs12925" /><sodipodi:namedview
   id="namedview12923"
   pagecolor="#ffffff"
   bordercolor="#999999"
   borderopacity="1"
   inkscape:pageshadow="0"
   inkscape:pageopacity="0"
   inkscape:pagecheckerboard="0"
   showgrid="false"
   inkscape:zoom="3.4464673"
   inkscape:cx="106.92108"
   inkscape:cy="113.4495"
   inkscape:window-width="1920"
   inkscape:window-height="986"
   inkscape:window-x="-11"
   inkscape:window-y="-11"
   inkscape:window-maximized="1"
   inkscape:current-layer="Calque_1" />
<g
   id="g12908">
	
		<path
   fill="#1D1D1B"
   stroke="#1D1D1B"
   stroke-width="2"
   stroke-linecap="round"
   stroke-linejoin="round"
   stroke-miterlimit="10"
   d="   M108.045,223.014c-4.116,0-7.734-0.64-10.798-1.553c-5.825-1.735-10.959-5.249-14.85-9.918l-2.609-3.131l3.329-5.592   c10.983-18.638,13.086-25.319,13.469-27.421c-0.173-0.249-0.362-0.534-0.555-0.855c-1.733-2.889-24.046-35.879-24.222-36.163   c-2.549-4.124-1.272-9.533,2.852-12.082c4.125-2.55,9.532-1.272,12.082,2.852c0.713,1.155,22.185,32.784,24.279,36.256l0.127,0.174   c5.702,7.748,4.13,16.126-8.77,38.881c1.575,0.269,3.711,1.069,7.294,0.975c5.008-0.131,9.163,3.982,8.999,9.073   c-0.151,4.69-4.149,8.382-8.84,8.485C109.222,223.007,108.626,223.014,108.045,223.014z M97.189,176.235"
   id="path12878" />
	
		<path
   fill="#1D1D1B"
   stroke="#1D1D1B"
   stroke-width="2"
   stroke-linecap="round"
   stroke-linejoin="round"
   stroke-miterlimit="10"
   d="   M110.012,124.471c1.334,0.944,2.785,1.684,4.342,2.198c6.153,2.03,18.441,2.042,31.599-20.675c2.573-4.509,7.062-9.386,12.02-9.68   c4.134-0.244,7.289-3.794,7.044-7.93c-0.244-4.133-3.794-7.289-7.93-7.044c-9.431,0.558-18.229,6.819-24.138,17.177   c-6.788,11.719-12.296,14.434-13.896,13.906c-1.854-0.6-4.95-6.254-3.789-16.556c0.464-4.117-2.499-7.828-6.613-8.293   c-4.116-0.464-7.829,2.497-8.292,6.613C98.825,107.799,102.626,119.246,110.012,124.471z"
   id="path12880" />
	<g
   id="g12888">
		
			<path
   fill="#FFFFFF"
   stroke="#1D1D1B"
   stroke-width="2"
   stroke-linecap="round"
   stroke-linejoin="round"
   stroke-miterlimit="10"
   d="    M212.874,49.209c0,0-24.076-8.152-38.677-20.982c-6.589,14.447-28.01,44.67-30.476,46.091c9.224,1.299,34.931,22.659,35.805,24.33    C186.408,90.334,212.013,58.27,212.874,49.209z"
   id="path12882" />
		
			<path
   fill="#FFFFFF"
   stroke="#1D1D1B"
   stroke-width="2"
   stroke-linecap="round"
   stroke-linejoin="round"
   stroke-miterlimit="10"
   d="    M205.499,50.832c0,0-35.066-15.675-41.152-19.359c-10.216,9.166-18.112,38.329-22.979,45.439    c16.575,8.993,37.419,23.495,37.419,23.495S191.954,60.722,205.499,50.832z"
   id="path12884" />
		
			<path
   fill="#FFFFFF"
   stroke="#1D1D1B"
   stroke-width="2"
   stroke-linecap="round"
   stroke-linejoin="round"
   stroke-miterlimit="10"
   d="    M167.058,36.575c0,0,26.084,9.691,36.692,26.566c-11.942,10.464-34.732,39.669-35.384,42.439    c-3.896-8.462-31.744-26.943-33.596-27.299C140.754,69.299,158.627,40.004,167.058,36.575z"
   id="path12886" />
	</g>
	
		<path
   fill="#1D1D1B"
   stroke="#1D1D1B"
   stroke-width="2"
   stroke-linecap="round"
   stroke-linejoin="round"
   stroke-miterlimit="10"
   d="   M143.835,96.519c-2.804,0.134-4.777-2.716-3.886-5.378c1.718-5.131,5.196-10.701,10.758-12.258   c6.625-1.855,4.226,2.823,2.575,4.084c-1.651,1.261-3.706,3.753-3.28,4.966C151.554,90.791,147.963,96.321,143.835,96.519z"
   id="path12890" />
	<path
   fill="#FF6700"
   stroke="#000000"
   stroke-width="2"
   stroke-miterlimit="10"
   d="M129.659,72.436L74.274,3.275   c-3.034-3.034-7.97-3.034-11.004,0L7.886,72.436c-2.692,2.692-2.99,6.879-0.905,9.908c-3.825,7.055-9.014,21.501-3.739,42.469   c4.796,19.066,13.898,32.39,14.283,32.948c2.192,3.175,6.246,4.29,9.679,2.897c0.534-0.217,1.053-0.494,1.548-0.834   c3.674-2.525,4.606-7.555,2.088-11.234c-0.027-0.04-1.013-1.498-2.452-4.065c-0.093-1.106,0.54-1.417,1.237-1.296   c0.992,0.174,6.097,1.675,5.31-1.118c-0.788-2.793-5.805-6.635-8.745-7.631c-2.94-0.997-4.467-4.757-4.467-4.757l-0.083,0.005   c-0.992-2.745-1.927-5.713-2.719-8.86c-1.8-7.154-2.501-16.275-0.417-24.169l21.83,27.26c2.104,2.628,3.148,5.949,2.926,9.308   l-0.003,0.045c-0.021,0.334-0.916,40.15-1.175,43.51c-0.028,0.374-0.04,0.716-0.042,1.019c-1.528,1.492-7.111,5.724-26.853,14.567   l-5.951,2.634l0.316,4.064c0.471,6.059,2.625,11.896,6.371,16.682c1.971,2.518,4.55,5.133,7.907,7.515   c0.474,0.336,0.964,0.676,1.469,1.018c3.886,2.63,9.283,1.933,12.12-1.805c3.079-4.057,2.071-9.815-2.089-12.606   c-2.977-1.996-4.256-3.885-5.384-5.016c23.689-11.092,29.82-17.015,29.653-26.633l-0.003-0.216   c0.169-2.27,0.494-15.304,0.761-26.545c0.02-0.839,1.077-1.193,1.602-0.538l1.311,1.637c3.034,3.034,7.97,3.034,11.004,0   l55.384-69.16C132.692,80.406,132.692,75.469,129.659,72.436z"
   id="path12892" />
	<g
   id="g12906">
		<g
   id="g12898">
			
				<path
   fill="#FFFFFF"
   stroke="#1D1D1B"
   stroke-width="2"
   stroke-linecap="round"
   stroke-linejoin="round"
   stroke-miterlimit="10"
   d="     M85.964,86.518c-2.571,0-4.32-2.699-3.182-5.005c1.848-3.747,5.706-6.324,10.167-6.324s8.319,2.578,10.167,6.324     c1.138,2.306-0.611,5.005-3.182,5.005H85.964z"
   id="path12894" />
			<circle
   fill="#1D1D1B"
   cx="87.597"
   cy="82.172"
   r="4.917"
   id="circle12896" />
		</g>
		<g
   id="g12904">
			
				<path
   fill="#FFFFFF"
   stroke="#1D1D1B"
   stroke-width="2"
   stroke-linecap="round"
   stroke-linejoin="round"
   stroke-miterlimit="10"
   d="     M50.452,86.518c-2.571,0-4.32-2.699-3.182-5.005c1.848-3.747,5.706-6.324,10.167-6.324s8.319,2.578,10.167,6.324     c1.137,2.306-0.611,5.005-3.182,5.005H50.452z"
   id="path12900" />
			<circle
   fill="#1D1D1B"
   cx="52.086"
   cy="82.172"
   r="4.917"
   id="circle12902" />
		</g>
	</g>
</g>
<g
   id="g12910">
</g>
<g
   id="g12912">
</g>
<g
   id="g12914">
</g>
<g
   id="g12916">
</g>
<g
   id="g12918">
</g>
<g
   id="g12920">
</g>
<text
   xml:space="preserve"
   style="font-style:normal;font-weight:normal;font-size:40px;line-height:1.25;font-family:sans-serif;fill:#000000;fill-opacity:1;stroke:none"
   x="156.68217"
   y="58.610741"
   id="text14460"><tspan
     sodipodi:role="line"
     id="tspan14458"
     x="156.68217"
     y="58.610741" /></text><text
   xml:space="preserve"
   style="font-style:normal;font-weight:normal;font-size:40px;line-height:1.25;font-family:sans-serif;fill:#000000;fill-opacity:1;stroke:none"
   x="198.4641"
   y="147.68745"
   id="text24182"><tspan
     sodipodi:role="line"
     id="tspan24180"></tspan></text><text
   xml:space="preserve"
   style="font-style:normal;font-weight:normal;font-size:25.7876px;line-height:1.25;font-family:sans-serif;fill:#000000;fill-opacity:1;stroke:none;stroke-width:0.64469"
   x="132.53436"
   y="104.631"
   id="text28212"
   transform="rotate(-11.055014)"><tspan
     sodipodi:role="line"
     id="tspan28210"
     x="132.53436"
     y="104.631"
     style="font-style:normal;font-variant:normal;font-weight:normal;font-stretch:normal;font-family:'Spicy Rice';-inkscape-font-specification:'Spicy Rice';stroke-width:0.64469">500</tspan></text></svg>
