<?xml version="1.0" encoding="UTF-8" standalone="no"?>
<svg
   width="64.582mm"
   height="65.129mm"
   viewBox="0 0 183.067 184.617"
   version="1.1"
   id="svg28"
   sodipodi:docname="signature-perso-0-F.svg"
   inkscape:version="1.1 (c68e22c387, 2021-05-23)"
   xmlns:inkscape="http://www.inkscape.org/namespaces/inkscape"
   xmlns:sodipodi="http://sodipodi.sourceforge.net/DTD/sodipodi-0.dtd"
   xmlns="http://www.w3.org/2000/svg"
   xmlns:svg="http://www.w3.org/2000/svg">
  <defs
     id="defs32" />
  <sodipodi:namedview
     id="namedview30"
     pagecolor="#ffffff"
     bordercolor="#999999"
     borderopacity="1"
     inkscape:pageshadow="0"
     inkscape:pageopacity="0"
     inkscape:pagecheckerboard="0"
     inkscape:document-units="mm"
     showgrid="false"
     inkscape:zoom="3.1768363"
     inkscape:cx="121.9767"
     inkscape:cy="123.07842"
     inkscape:window-width="1920"
     inkscape:window-height="986"
     inkscape:window-x="-11"
     inkscape:window-y="-11"
     inkscape:window-maximized="1"
     inkscape:current-layer="svg28" />
  <g
     id="g26">
    <path
       d="M72.947,134.342v49.275H46.992a7.3,7.3,0,0,1-7.3-7.3h0a7.3,7.3,0,0,1,7.3-7.3h8.922V125.826H73.15Z"
       transform="translate(0)"
       stroke="#000"
       stroke-miterlimit="10"
       stroke-width="2"
       id="path2" />
    <path
       d="M31.734,88.654a7.686,7.686,0,0,0-10.718-1.813C16.928,89.746,3.428,101.2,1.341,126.611a105.23,105.23,0,0,0,2.751,34.033,7.686,7.686,0,0,0,14.8-4.171c-.012-.044-.452-1.658-.961-4.41.256-1.024.921-1.11,1.511-.787.84.46,4.974,3.377,5.121.622s-3.189-7.751-5.53-9.55-2.561-5.651-2.561-5.651l-.076-.021a87.828,87.828,0,0,1,.27-8.807c.8-9.793,4.71-22.421,13.259-28.5A7.687,7.687,0,0,0,31.734,88.654Z"
       transform="translate(0)"
       stroke="#000"
       stroke-miterlimit="10"
       stroke-width="2"
       id="path4" />
    <path
       d="M149.5,115.839V39.383L83.29,1.155,17.078,39.383v76.456L83.29,154.066,93.634,148.1v35.522h25.955a7.3,7.3,0,1,0,0-14.6h-8.922V138.261Z"
       transform="translate(0)"
       fill="#3154ff"
       stroke="#000"
       stroke-miterlimit="10"
       stroke-width="2"
       id="path6" />
    <g
       id="g16">
      <path
         d="M69.907,75.189v8.487a7.725,7.725,0,0,1-.723,3.429,7.031,7.031,0,0,1-6.195,4.154h0a6.793,6.793,0,0,1-5.795-3.486,7.817,7.817,0,0,1-1-3.989V74.949a7.814,7.814,0,0,1,1-3.989,6.791,6.791,0,0,1,5.795-3.486h0a6.708,6.708,0,0,1,4.979,2.315A8.02,8.02,0,0,1,69.907,75.189Z"
         transform="translate(0)"
         fill="#fff"
         stroke="#1d1d1b"
         stroke-linecap="round"
         stroke-linejoin="round"
         stroke-width="2"
         id="path8" />
      <circle
         cx="63.043"
         cy="73.956"
         r="6.803"
         fill="#1d1d1b"
         id="circle10" />
      <path
         d="M108.24,75.189v8.487a7.739,7.739,0,0,1-.723,3.429,7.032,7.032,0,0,1-6.2,4.154h0a6.793,6.793,0,0,1-5.8-3.486,7.817,7.817,0,0,1-.995-3.989V74.949a7.814,7.814,0,0,1,.995-3.989,6.791,6.791,0,0,1,5.8-3.486h0a6.709,6.709,0,0,1,4.98,2.315A8.02,8.02,0,0,1,108.24,75.189Z"
         transform="translate(0)"
         fill="#fff"
         stroke="#1d1d1b"
         stroke-linecap="round"
         stroke-linejoin="round"
         stroke-width="2"
         id="path12" />
      <circle
         cx="101.376"
         cy="73.956"
         r="6.803"
         fill="#1d1d1b"
         id="circle14" />
    </g>
    <rect
       x="110.975"
       y="72.125"
       width="57.23"
       height="74.439"
       transform="translate(62.848 -50.506) rotate(26.282)"
       fill="#fff"
       stroke="#000"
       stroke-miterlimit="10"
       stroke-width="2"
       id="rect18" />
    <rect
       x="108.981"
       y="72.438"
       width="57.23"
       height="74.439"
       transform="translate(51.531 -43.803) rotate(22.162)"
       fill="#fff"
       stroke="#000"
       stroke-miterlimit="10"
       stroke-width="2"
       id="rect20" />
    <path
       d="M151.153,160.025,98.71,137.32l19.677-45.448-1.765-.764a5.843,5.843,0,0,1-3.037-7.674l7.528-17.388,59.563,25.788Z"
       transform="translate(0)"
       fill="#fff"
       stroke="#000"
       stroke-miterlimit="10"
       stroke-width="2"
       id="path22" />
    <path
       d="M164.15,130.006a13.513,13.513,0,0,1-7.371,2.574,10.727,10.727,0,0,1-3.537-.241,7.678,7.678,0,0,1-3.136-1.542c-2.236-1.927-7.805-4.182-10.473-3.479s1.027,4.159,1.648,4.889c.436.512.487,1.181-.464,1.638-2.8.061-4.468-.043-4.514-.046a7.686,7.686,0,0,0-1.085,15.334,104.109,104.109,0,0,0,33.885-4.206c9.626-2.851,10.411-22.912,1.324-29.42Z"
       transform="translate(0)"
       fill="#3154ff"
       stroke="#000"
       stroke-miterlimit="10"
       stroke-width="2"
       id="path24" />
  </g>
  <text
     xml:space="preserve"
     style="font-style:normal;font-weight:normal;font-size:29.9993px;line-height:1.25;font-family:sans-serif;fill:#000000;fill-opacity:1;stroke:none;stroke-width:0.749984"
     x="149.89743"
     y="55.019512"
     id="text3117"
     transform="matrix(0.91843948,0.39561639,-0.39559922,0.91839962,0,0)"><tspan
       sodipodi:role="line"
       id="tspan3115"
       style="font-style:normal;font-variant:normal;font-weight:normal;font-stretch:normal;font-family:'Spicy Rice';-inkscape-font-specification:'Spicy Rice';stroke-width:0.749984"
       x="149.89743"
       y="55.019512">162</tspan></text>
</svg>
