<?xml version="1.0" encoding="UTF-8" standalone="no"?>
<svg
   width="61.705mm"
   height="71.722mm"
   viewBox="0 0 174.911 203.306"
   version="1.1"
   id="svg41155"
   sodipodi:docname="signature-perso-3-F.svg"
   inkscape:version="1.1 (c68e22c387, 2021-05-23)"
   xmlns:inkscape="http://www.inkscape.org/namespaces/inkscape"
   xmlns:sodipodi="http://sodipodi.sourceforge.net/DTD/sodipodi-0.dtd"
   xmlns="http://www.w3.org/2000/svg"
   xmlns:svg="http://www.w3.org/2000/svg">
  <defs
     id="defs41159" />
  <sodipodi:namedview
     id="namedview41157"
     pagecolor="#ffffff"
     bordercolor="#999999"
     borderopacity="1"
     inkscape:pageshadow="0"
     inkscape:pageopacity="0"
     inkscape:pagecheckerboard="0"
     inkscape:document-units="mm"
     showgrid="false"
     inkscape:zoom="2.8848075"
     inkscape:cx="116.64556"
     inkscape:cy="135.53764"
     inkscape:window-width="1920"
     inkscape:window-height="986"
     inkscape:window-x="-11"
     inkscape:window-y="-11"
     inkscape:window-maximized="1"
     inkscape:current-layer="svg41155" />
  <g
     id="g41153">
    <path
       d="M153.443,171.1a8.383,8.383,0,0,1-12.836-6.593h0c-.049-.454-1.593-13.531-16.407-27.974-13.992-13.64-39.867-7.978-40.127-7.921a8.5,8.5,0,0,1-3.819-16.565c1.425-.331,35.125-7.858,55.814,12.314a77.388,77.388,0,0,1,18.066,26.213l6.5-4.092a8.7,8.7,0,0,1,11.652,2.038,8.5,8.5,0,0,1-2.345,12.191Z"
       stroke="#000"
       stroke-miterlimit="10"
       stroke-width="2"
       id="path41121" />
    <path
       d="M107.106,71.451a9.5,9.5,0,0,1,13.427.478c4.224,4.536,17.711,21.768,13.9,53.05a130.091,130.091,0,0,1-11.817,40.512,9.491,9.491,0,0,1-10.86,4.8,9.512,9.512,0,0,1-6.011-13.538c.026-.051.961-1.894,2.263-5.1-.054-1.3-.838-1.574-1.633-1.33-1.131.348-6.863,2.848-6.355-.523s5.8-8.588,9.077-10.182,4.509-6.2,4.509-6.2l.1-.006a108.6,108.6,0,0,0,1.87-10.729c1.468-12.055-.11-28.317-8.945-37.8A9.5,9.5,0,0,1,107.106,71.451Z"
       stroke="#000"
       stroke-miterlimit="10"
       stroke-width="2"
       id="path41123" />
    <path
       d="M142.315,97.216,56.153,4.609a11.287,11.287,0,0,0-19.1,4.513L1.467,130.5A11.288,11.288,0,0,0,14.9,144.664l26-6.143c17.087,6.805,24.387,16.149,23.812,23.37-.32,4.024-7.708,14.72-22.544,24.9a8.5,8.5,0,0,0,4.8,15.517H77.413a8.694,8.694,0,0,0,8.773-7.934,8.5,8.5,0,0,0-8.481-9.066H69.85c5.961-6.474,11.177-14.252,11.8-22.066.907-11.393-5.009-22-16.3-30.5l71.3-16.85a11.287,11.287,0,0,0,5.668-18.674Z"
       fill="#7352ff"
       stroke="#000"
       stroke-miterlimit="10"
       stroke-width="2"
       id="path41125" />
    <g
       id="g41139">
      <g
         id="g41131">
        <path
           d="M47.893,96.758l-.252.058a13.018,13.018,0,0,1-10.516-1.937A4.446,4.446,0,0,1,42.3,87.651a4.324,4.324,0,0,0,3.434.48,7.414,7.414,0,0,0,4.594-2.966,4.446,4.446,0,1,1,7.727,4.4A16.313,16.313,0,0,1,47.893,96.758Z"
           fill="#fff"
           stroke="#1d1d1b"
           stroke-linecap="round"
           stroke-linejoin="round"
           stroke-width="2"
           id="path41127" />
        <circle
           cx="54.008"
           cy="87.747"
           r="4.73"
           fill="#1d1d1b"
           id="circle41129" />
      </g>
      <g
         id="g41137">
        <path
           d="M84.948,88l-.253.058A13.019,13.019,0,0,1,74.18,86.122a4.446,4.446,0,1,1,5.178-7.228,4.319,4.319,0,0,0,3.434.479,7.412,7.412,0,0,0,4.595-2.965,4.446,4.446,0,1,1,7.726,4.4A16.314,16.314,0,0,1,84.948,88Z"
           fill="#fff"
           stroke="#1d1d1b"
           stroke-linecap="round"
           stroke-linejoin="round"
           stroke-width="2"
           id="path41133" />
        <circle
           cx="91.457"
           cy="78.896"
           r="4.73"
           fill="#1d1d1b"
           id="circle41135" />
      </g>
    </g>
    <g
       id="g41149">
      <path
         d="M65.341,167.652l54.209,1.5a2.29,2.29,0,0,0,1.7-3.888l-1.155-1.184,3.457-3.224a2.29,2.29,0,0,0,.143-3.2l-4.3-4.8,3.94-4.754a2.291,2.291,0,0,0,.095-2.8l-2.112-2.933,1.125-.883a2.293,2.293,0,0,0,.727-2.612l-1.852-4.894,4.364-1.838a2.289,2.289,0,0,0,1.149-3.156l-2.192-4.269,4.957-2.034a2.29,2.29,0,0,0,1.345-2.7l-1.059-4,2.855-1.028a2.289,2.289,0,0,0,1.514-2.155v-4.158h1.227a2.289,2.289,0,0,0,2.245-2.739l-.326-1.63h.645a2.29,2.29,0,0,0,2.2-2.912l-1.1-3.905h2.679a2.288,2.288,0,0,0,1.852-.943l2.111-2.9L86.191,70.36l-1.4,5.593-1.778-.191A2.29,2.29,0,0,0,80.527,78.5l.945,4.621-2.273.988a2.289,2.289,0,0,0-1.318,2.615l1.144,4.961-2.528.5a2.291,2.291,0,0,0-1.841,2.246v2.492l-1,.221A2.29,2.29,0,0,0,71.9,99.793l.655,3.6-1.2.4a2.29,2.29,0,0,0-1.514,2.657l.964,4.459-1.667.218a2.289,2.289,0,0,0-1.963,2.647l.484,2.9-1.93,3.918a2.294,2.294,0,0,0-.142,1.658l.674,2.289-2.149,4.566a2.288,2.288,0,0,0,.37,2.507l2.128,2.365-3.3,2.975a2.291,2.291,0,0,0,.041,3.441l1.691,1.449L61.5,146a2.291,2.291,0,0,0,.3,3.262l2.9,2.366-2.544,3.583a2.29,2.29,0,0,0,.51,3.169l1.509,1.113-2.062,4.125a2.29,2.29,0,0,0,1.141,3.127Z"
         fill="#fff"
         stroke="#000"
         stroke-linecap="round"
         stroke-linejoin="round"
         stroke-width="2"
         id="path41141" />
      <line
         x1="84.793"
         y1="75.953"
         x2="107.139"
         y2="82.976"
         fill="none"
         stroke="#000"
         stroke-linecap="round"
         stroke-linejoin="round"
         stroke-width="2"
         id="line41143" />
      <line
         x1="102.259"
         y1="86.851"
         x2="132.833"
         y2="97.76"
         fill="none"
         stroke="#000"
         stroke-linecap="round"
         stroke-linejoin="round"
         stroke-width="2"
         id="line41145" />
      <path
         d="M97.591,43.838s14.828-5.778,27.539-1.156c-4.815,9.051-1.816,23.688,20.661,34.279l-9.877,8.281S97.976,76.48,97.591,43.838Z"
         fill="#fff"
         stroke="#000"
         stroke-linecap="round"
         stroke-linejoin="round"
         stroke-width="2"
         id="path41147" />
    </g>
    <path
       d="M24.187,106.973A9.5,9.5,0,0,0,16.507,118c1.09,6.1,6.77,27.234,34.072,42.972a130.1,130.1,0,0,0,39.49,14.879,9.5,9.5,0,0,0,3.144-18.738c-.057-.01-2.092-.369-5.437-1.253-1.009-.826-.755-1.615-.082-2.1.958-.7,6.4-3.778,3.4-5.4S80.745,147.832,77.5,149.5s-7.667-.119-7.667-.119l-.063.074c-3.128-1.407-6.4-3.044-9.7-4.948-10.521-6.065-22.576-17.092-24.857-29.854A9.5,9.5,0,0,0,24.187,106.973Z"
       fill="#7352ff"
       stroke="#000"
       stroke-miterlimit="10"
       stroke-width="2"
       id="path41151" />
  </g>
  <text
     xml:space="preserve"
     style="font-style:normal;font-weight:normal;font-size:29.9999px;line-height:1.25;font-family:sans-serif;fill:#000000;fill-opacity:1;stroke:none;stroke-width:0.749998"
     x="109.87122"
     y="74.422821"
     id="text42562"
     transform="rotate(20.501788)"><tspan
       sodipodi:role="line"
       id="tspan42560"
       style="font-style:normal;font-variant:normal;font-weight:normal;font-stretch:normal;font-family:'Spicy Rice';-inkscape-font-specification:'Spicy Rice';stroke-width:0.749998"
       x="109.87122"
       y="74.422821">122</tspan></text>
</svg>
