<?xml version="1.0" encoding="UTF-8" standalone="no"?>
<svg
   width="38.607mm"
   height="98.267mm"
   viewBox="0 0 109.438 278.551"
   version="1.1"
   id="svg56760"
   sodipodi:docname="signature-perso-6.svg"
   inkscape:version="1.1 (c68e22c387, 2021-05-23)"
   xmlns:inkscape="http://www.inkscape.org/namespaces/inkscape"
   xmlns:sodipodi="http://sodipodi.sourceforge.net/DTD/sodipodi-0.dtd"
   xmlns="http://www.w3.org/2000/svg"
   xmlns:svg="http://www.w3.org/2000/svg">
  <defs
     id="defs56764" />
  <sodipodi:namedview
     id="namedview56762"
     pagecolor="#ffffff"
     bordercolor="#999999"
     borderopacity="1"
     inkscape:pageshadow="0"
     inkscape:pageopacity="0"
     inkscape:pagecheckerboard="0"
     inkscape:document-units="mm"
     showgrid="false"
     inkscape:zoom="2.1055305"
     inkscape:cx="72.903241"
     inkscape:cy="185.70141"
     inkscape:window-width="1920"
     inkscape:window-height="986"
     inkscape:window-x="-11"
     inkscape:window-y="-11"
     inkscape:window-maximized="1"
     inkscape:current-layer="svg56760" />
  <g
     id="g56758">
    <path
       d="M63.124,234.7v42.848H85.7a6.348,6.348,0,0,0,6.347-6.348h0a6.347,6.347,0,0,0-6.347-6.347H77.936V227.3H62.948Z"
       fill="#1d1d1b"
       stroke="#1d1d1b"
       stroke-linecap="round"
       stroke-linejoin="round"
       stroke-width="2"
       id="path56734" />
    <path
       d="M54.13,1A45.724,45.724,0,0,0,8.458,46.672V192.019a45.685,45.685,0,0,0,21.866,38.96v33.876H22.566a6.349,6.349,0,0,0-6.348,6.348h0a6.348,6.348,0,0,0,6.348,6.348h22.57V236.8A45.674,45.674,0,0,0,99.8,192.019V46.672A45.723,45.723,0,0,0,54.13,1Z"
       fill="#89f798"
       stroke="#1d1d1b"
       stroke-linecap="round"
       stroke-linejoin="round"
       stroke-width="2"
       id="path56736" />
    <g
       id="g56746">
      <path
         d="M49.42,147.441c0-5.873-4.166-10.634-9.3-10.634s-9.305,4.761-9.305,10.634,4.527,11.22,9.305,9.329C46.939,154.068,49.42,153.314,49.42,147.441Z"
         fill="#fff"
         stroke="#1d1d1b"
         stroke-linecap="round"
         stroke-linejoin="round"
         stroke-width="2"
         id="path56738" />
      <circle
         cx="42.44"
         cy="149.053"
         r="6.863"
         fill="#1d1d1b"
         id="circle56740" />
      <path
         d="M62.035,147.441c0-5.873,4.165-10.634,9.3-10.634s9.305,4.761,9.305,10.634-4.526,11.22-9.305,9.329C64.515,154.068,62.035,153.314,62.035,147.441Z"
         fill="#fff"
         stroke="#1d1d1b"
         stroke-linecap="round"
         stroke-linejoin="round"
         stroke-width="2"
         id="path56742" />
      <circle
         cx="68.892"
         cy="149.053"
         r="6.863"
         fill="#1d1d1b"
         id="circle56744" />
    </g>
    <path
       d="M92.141,182.365s-24.561-6.549-39.975-18.39c-5.624,14.849-25.008,46.418-27.375,48,9.29.689,36.347,20.31,37.329,21.92C68.44,225.144,91.878,191.463,92.141,182.365Z"
       fill="#fff"
       stroke="#1d1d1b"
       stroke-linecap="round"
       stroke-linejoin="round"
       stroke-width="2"
       id="path56748" />
    <path
       d="M84.889,184.471s-36.022-13.333-42.337-16.608C32.961,177.682,27,207.3,22.614,214.716,39.745,222.6,61.5,235.7,61.5,235.7S72.024,195.23,84.889,184.471Z"
       fill="#fff"
       stroke="#1d1d1b"
       stroke-linecap="round"
       stroke-linejoin="round"
       stroke-width="2"
       id="path56750" />
    <path
       d="M45.593,172.775s26.665,7.953,38.361,24.093C72.726,208.1,51.908,238.738,51.44,241.544,47,233.358,17.991,216.75,16.12,216.516,21.5,207.16,37.406,176.752,45.593,172.775Z"
       fill="#fff"
       stroke="#1d1d1b"
       stroke-linecap="round"
       stroke-linejoin="round"
       stroke-width="2"
       id="path56752" />
    <path
       d="M8.458,160.7c-1.879-.225-3.553,1.378-4.984,4.983-1.691,4.259-6.372,19.594,4.4,38.079a78.448,78.448,0,0,0,18.643,21.664,7.1,7.1,0,0,0,8.652-.561,8.122,8.122,0,0,0,1.118-1.108c2.542-3.056,2.287-7.275-.563-9.424-.031-.023-1.15-.878-2.875-2.471a.933.933,0,0,1,.765-1.378c.862-.155,5.42-.472,4.192-2.432s-6.193-3.5-8.845-3.426-4.694-2.424-4.694-2.424l-.067.029a65.816,65.816,0,0,1-4.079-6.154c-4.152-7.124-11.665-18.6-11.665-28.573Z"
       fill="#89f798"
       stroke="#1d1d1b"
       stroke-linecap="round"
       stroke-linejoin="round"
       stroke-width="2"
       id="path56754" />
    <path
       d="M99.8,162.118c3.646-.541,6.607,2.133,7.58,5.887,1.151,4.436,3.9,20.233-9.082,37.241a78.423,78.423,0,0,1-21.181,19.19,7.106,7.106,0,0,1-8.516-1.628,8.129,8.129,0,0,1-.972-1.238c-2.144-3.347-1.369-7.5,1.725-9.282.034-.019,1.25-.729,3.158-2.1a.931.931,0,0,0-.588-1.462c-.836-.26-5.319-1.139-3.858-2.932s6.578-2.711,9.2-2.3,4.957-1.825,4.957-1.825l.064.037a65.778,65.778,0,0,0,4.809-5.6c5-6.555,12.7-15.543,12.7-25.008Z"
       fill="#1d1d1b"
       stroke="#1d1d1b"
       stroke-linecap="round"
       stroke-linejoin="round"
       stroke-width="2"
       id="path56756" />
  </g>
  <text
     xml:space="preserve"
     style="font-style:normal;font-weight:normal;font-size:27.1466px;line-height:1.25;font-family:sans-serif;fill:#000000;fill-opacity:1;stroke:none;stroke-width:0.678665"
     x="-159.89006"
     y="179.19933"
     id="text58695"
     transform="rotate(-54.202015)"><tspan
       sodipodi:role="line"
       id="tspan58693"
       style="font-style:normal;font-variant:normal;font-weight:normal;font-stretch:normal;font-family:'Spicy Rice';-inkscape-font-specification:'Spicy Rice';stroke-width:0.678665"
       x="-159.89006"
       y="179.19933">500</tspan></text>
</svg>
