<?xml version="1.0" encoding="UTF-8" standalone="no"?>
<!-- Generator: Adobe Illustrator 25.4.0, SVG Export Plug-In . SVG Version: 6.00 Build 0)  -->

<svg
   version="1.1"
   id="Calque_1"
   x="0px"
   y="0px"
   width="181.529px"
   height="185.769px"
   viewBox="0 0 181.529 185.769"
   enable-background="new 0 0 181.529 185.769"
   xml:space="preserve"
   sodipodi:docname="signature-perso-7-F.svg"
   inkscape:version="1.1 (c68e22c387, 2021-05-23)"
   xmlns:inkscape="http://www.inkscape.org/namespaces/inkscape"
   xmlns:sodipodi="http://sodipodi.sourceforge.net/DTD/sodipodi-0.dtd"
   xmlns="http://www.w3.org/2000/svg"
   xmlns:svg="http://www.w3.org/2000/svg"><defs
   id="defs61775" /><sodipodi:namedview
   id="namedview61773"
   pagecolor="#ffffff"
   bordercolor="#999999"
   borderopacity="1"
   inkscape:pageshadow="0"
   inkscape:pageopacity="0"
   inkscape:pagecheckerboard="0"
   showgrid="false"
   inkscape:zoom="4.2095291"
   inkscape:cx="90.86527"
   inkscape:cy="92.884499"
   inkscape:window-width="1920"
   inkscape:window-height="986"
   inkscape:window-x="-11"
   inkscape:window-y="-11"
   inkscape:window-maximized="1"
   inkscape:current-layer="Calque_1" />
<g
   id="g61758">
	
		<path
   fill="#1D1D1B"
   stroke="#1D1D1B"
   stroke-width="2"
   stroke-linecap="round"
   stroke-linejoin="round"
   stroke-miterlimit="10"
   d="   M158.387,73.365c3.616-2.225,8.352-1.095,10.574,2.52c2.627,4.272,10.577,20.091,2.566,44.297   c-5.873,17.746-15.43,29.749-15.834,30.251c-2.299,2.858-6.221,3.634-9.379,2.075c-0.491-0.243-0.964-0.542-1.41-0.899   c-3.309-2.65-3.842-7.484-1.199-10.798c0.029-0.036,1.065-1.35,2.608-3.684c0.165-1.042-0.414-1.382-1.083-1.315   c-0.953,0.096-5.898,1.164-4.957-1.429c0.941-2.593,5.966-5.888,8.823-6.629c2.857-0.741,4.566-4.201,4.566-4.201l0.078,0.011   c1.131-2.534,2.224-5.283,3.194-8.212c3.087-9.328,4.428-22.479-1.066-31.413C153.643,80.322,154.771,75.588,158.387,73.365z"
   id="path61726" />
	
		<path
   fill="#1D1D1B"
   stroke="#1D1D1B"
   stroke-width="2"
   stroke-linecap="round"
   stroke-linejoin="round"
   stroke-miterlimit="10"
   d="   M124.215,184.769c4.868,0,9.014-3.721,9.452-8.662c0.463-5.226-3.398-9.838-8.625-10.301c-0.103-0.009-6.382-0.566-12.215-1.094   c2.241-48.662,8.274-72.112,8.338-72.357c1.333-5.069-1.69-10.266-6.757-11.606c-5.067-1.338-10.26,1.669-11.608,6.734   c-0.3,1.128-7.376,28.29-9.32,85.534l-0.302,8.89l8.852,0.885c4.292,0.429,20.641,1.878,21.335,1.939   C123.65,184.757,123.935,184.769,124.215,184.769z"
   id="path61728" />
	
		<path
   fill="#76C8FF"
   stroke="#1D1D1B"
   stroke-width="2"
   stroke-linecap="round"
   stroke-linejoin="round"
   stroke-miterlimit="10"
   d="   M180.485,87.106c-2.247-22.096-12.576-42.527-29.085-57.53C134.778,14.47,113.244,6.151,90.765,6.151S46.751,14.47,30.129,29.576   C13.62,44.579,3.291,65.01,1.044,87.106c-0.248,2.439,0.553,4.881,2.198,6.702c1.646,1.822,3.998,2.867,6.452,2.867h51.633   c1.807,8.805,5.678,31.185,7.375,68.037c-5.833,0.528-12.112,1.084-12.215,1.094c-5.227,0.463-9.087,5.075-8.625,10.301   c0.438,4.941,4.584,8.663,9.452,8.662c0.28,0,0.564-0.012,0.849-0.038c0.694-0.062,17.042-1.511,21.335-1.939l8.852-0.885   l-0.302-8.89c-1.323-38.963-5.023-63.975-7.346-76.342h91.132c2.454,0,4.806-1.045,6.452-2.867   C179.932,91.987,180.733,89.544,180.485,87.106z"
   id="path61730" />
	<g
   id="g61744">
		<g
   id="g61736">
			
				<path
   fill="#FFFFFF"
   stroke="#1D1D1B"
   stroke-width="2"
   stroke-linecap="round"
   stroke-linejoin="round"
   stroke-miterlimit="10"
   d="     M91.579,59.092c0,4.819-3.906,8.725-8.725,8.725c-4.819,0-8.725-3.906-8.725-8.725s3.906-5.158,8.725-5.158     C87.672,53.934,91.579,54.273,91.579,59.092z"
   id="path61732" />
			<circle
   fill="#1D1D1B"
   cx="82.68"
   cy="58.901"
   r="5.383"
   id="circle61734" />
		</g>
		<g
   id="g61742">
			
				<path
   fill="#FFFFFF"
   stroke="#1D1D1B"
   stroke-width="2"
   stroke-linecap="round"
   stroke-linejoin="round"
   stroke-miterlimit="10"
   d="     M121.468,59.092c0,4.819-3.906,8.725-8.725,8.725c-4.819,0-8.725-3.906-8.725-8.725s3.906-5.158,8.725-5.158     C117.561,53.934,121.468,54.273,121.468,59.092z"
   id="path61738" />
			<circle
   fill="#1D1D1B"
   cx="112.569"
   cy="58.901"
   r="5.383"
   id="circle61740" />
		</g>
	</g>
	<g
   id="g61754">
		
			<path
   fill="#FFFFFF"
   stroke="#000000"
   stroke-width="2"
   stroke-linecap="round"
   stroke-linejoin="round"
   stroke-miterlimit="10"
   d="    M75.91,131.989l-54.107-3.647c-2.052-0.138-2.896-2.702-1.327-4.032l1.262-1.069l-3.135-3.537    c-0.827-0.933-0.756-2.357,0.161-3.203l4.734-4.366l-3.471-5.106c-0.586-0.862-0.516-2.011,0.171-2.796l2.38-2.72l-1.036-0.986    c-0.725-0.69-0.917-1.77-0.476-2.668l2.307-4.697l-4.17-2.243c-1.174-0.632-1.563-2.129-0.844-3.252l2.587-4.042l-4.742-2.495    c-1.017-0.535-1.48-1.742-1.082-2.82l1.433-3.882l-2.745-1.294c-0.874-0.412-1.395-1.327-1.303-2.289l0.394-4.139l-1.221-0.116    c-1.439-0.137-2.392-1.556-1.976-2.94l0.479-1.592L9.54,61.998c-1.512-0.144-2.467-1.692-1.918-3.108l1.466-3.782l-2.667-0.254    c-0.729-0.069-1.382-0.484-1.754-1.114L2.841,50.65l61.535-17.491l0.862,5.7l1.788-0.021c1.55-0.018,2.67,1.477,2.217,2.96    l-1.379,4.51l2.169,1.199c0.966,0.534,1.414,1.681,1.065,2.728l-1.61,4.83l2.469,0.743c1.045,0.315,1.723,1.323,1.62,2.41    l-0.236,2.481l0.97,0.315c1.17,0.38,1.832,1.616,1.498,2.8l-0.993,3.522l1.155,0.511c1.069,0.473,1.61,1.675,1.256,2.788    l-1.383,4.348l1.639,0.374c1.264,0.289,2.036,1.569,1.703,2.822l-0.757,2.844l1.549,4.083c0.204,0.537,0.198,1.131-0.015,1.664    l-0.888,2.215l1.706,4.749c0.312,0.867,0.073,1.837-0.606,2.461l-2.343,2.152l3.008,3.275c0.935,1.018,0.762,2.626-0.368,3.422    l-1.82,1.282l3.138,4.478c0.737,1.052,0.465,2.505-0.604,3.219l-3.114,2.08l2.192,3.808c0.623,1.082,0.264,2.464-0.807,3.107    l-1.608,0.964l1.662,4.302c0.474,1.227-0.18,2.6-1.432,3.005L75.91,131.989z"
   id="path61746" />
		
			<line
   fill="none"
   stroke="#000000"
   stroke-width="2"
   stroke-linecap="round"
   stroke-linejoin="round"
   stroke-miterlimit="10"
   x1="65.237"
   y1="38.859"
   x2="42.326"
   y2="43.732"
   id="line61748" />
		
			<line
   fill="none"
   stroke="#000000"
   stroke-width="2"
   stroke-linecap="round"
   stroke-linejoin="round"
   stroke-miterlimit="10"
   x1="46.817"
   y1="48.053"
   x2="15.346"
   y2="56.015"
   id="line61750" />
		
			<path
   fill="#FFFFFF"
   stroke="#000000"
   stroke-width="2"
   stroke-linecap="round"
   stroke-linejoin="round"
   stroke-miterlimit="10"
   d="    M55.541,5.675c0,0-14.214-7.157-27.306-3.761c3.935,9.467-0.437,23.753-23.817,32.167c9.047,9.18,9.047,9.18,9.047,9.18    S52.064,38.134,55.541,5.675z"
   id="path61752" />
	</g>
	
		<path
   fill="#76C8FF"
   stroke="#1D1D1B"
   stroke-width="2"
   stroke-linecap="round"
   stroke-linejoin="round"
   stroke-miterlimit="10"
   d="   M1.531,83.768c-0.201,5.011,0.607,22.697,19.439,39.886c13.806,12.602,28.014,18.393,28.612,18.633   c3.404,1.368,7.204,0.125,9.195-2.781c0.31-0.452,0.576-0.944,0.79-1.474c1.589-3.93-0.311-8.407-4.238-10.004   c-0.043-0.018-1.589-0.656-4.077-1.937c-0.654-0.828-0.315-1.407,0.301-1.676c0.878-0.383,5.714-1.871,3.624-3.672   c-2.09-1.801-8.084-2.215-10.939-1.463c-2.854,0.752-6.038-1.429-6.038-1.429l-0.063,0.047c-2.226-1.656-4.525-3.519-6.804-5.599   c-7.257-6.624-14.862-17.436-14.442-27.916"
   id="path61756" />
</g>
<g
   id="g61760">
</g>
<g
   id="g61762">
</g>
<g
   id="g61764">
</g>
<g
   id="g61766">
</g>
<g
   id="g61768">
</g>
<g
   id="g61770">
</g>
<text
   xml:space="preserve"
   style="font-style:normal;font-weight:normal;font-size:29.6121px;line-height:1.25;font-family:sans-serif;fill:#000000;fill-opacity:1;stroke:none;stroke-width:0.740303"
   x="-1.1057661"
   y="92.202415"
   id="text62584"
   transform="rotate(-15.709686)"><tspan
     sodipodi:role="line"
     id="tspan62582"
     x="-1.1057661"
     y="92.202415"
     style="font-style:normal;font-variant:normal;font-weight:normal;font-stretch:normal;font-family:'Spicy Rice';-inkscape-font-specification:'Spicy Rice';stroke-width:0.740303">263</tspan></text></svg>
