<?xml version="1.0" encoding="UTF-8" standalone="no"?>
<svg
   width="106.352mm"
   height="63.754mm"
   viewBox="0 0 301.472 180.721"
   version="1.1"
   id="svg36722"
   sodipodi:docname="signature-perso-2-F.svg"
   inkscape:version="1.1 (c68e22c387, 2021-05-23)"
   xmlns:inkscape="http://www.inkscape.org/namespaces/inkscape"
   xmlns:sodipodi="http://sodipodi.sourceforge.net/DTD/sodipodi-0.dtd"
   xmlns="http://www.w3.org/2000/svg"
   xmlns:svg="http://www.w3.org/2000/svg">
  <defs
     id="defs36726" />
  <sodipodi:namedview
     id="namedview36724"
     pagecolor="#ffffff"
     bordercolor="#999999"
     borderopacity="1"
     inkscape:pageshadow="0"
     inkscape:pageopacity="0"
     inkscape:pagecheckerboard="0"
     inkscape:document-units="mm"
     showgrid="false"
     inkscape:zoom="3.2453518"
     inkscape:cx="201.05678"
     inkscape:cy="120.48"
     inkscape:window-width="1920"
     inkscape:window-height="986"
     inkscape:window-x="-11"
     inkscape:window-y="-11"
     inkscape:window-maximized="1"
     inkscape:current-layer="svg36722" />
  <g
     id="g36720">
    <path
       d="M70.231,115.782a16.4,16.4,0,0,1-4.815-.713c-6.195-1.9-16.233-8.982-13.856-35.128.5-5.167-.345-11.741-4.223-14.843a7.5,7.5,0,1,1,9.37-11.713c7.377,5.9,10.944,16.093,9.787,27.963-1.226,13.487,1.7,18.884,3.313,19.377,1.86.582,7.652-2.247,12.654-11.328A7.5,7.5,0,0,1,95.6,96.634C88.992,108.632,79.278,115.782,70.231,115.782Z"
       fill="#1d1d1b"
       stroke="#1d1d1b"
       stroke-linecap="round"
       stroke-linejoin="round"
       stroke-width="2"
       id="path36692" />
    <path
       d="M134.375,177.705l-9.047-4.2c-6.383-2.964-16.47-5.152-16.571-5.173a8,8,0,0,1,3.356-15.645c.315.068,5.286,1.143,10.933,2.915,11.822-44.488,33.548-65.9,34.525-66.842a8,8,0,0,1,11.139,11.485c-.389.386-22.261,22.394-32.2,67.717Z"
       fill="#1d1d1b"
       stroke="#1d1d1b"
       stroke-linecap="round"
       stroke-linejoin="round"
       stroke-width="2"
       id="path36694" />
    <path
       d="M288.368,82.645c5.789-4.573,12.994-10.265,12.013-18.9-1.629-14.343-14-24.661-33.243-27.869V23.5a15.206,15.206,0,0,0-15.2-15.2H92.225a15.2,15.2,0,0,0-15.2,15.2V88.049a15.2,15.2,0,0,0,15.2,15.2h83.4c-2,10.476-5.27,32.2-6.43,66.334l-.26,7.665,7.632.763c3.7.37,17.8,1.619,18.394,1.673q.369.032.732.032a8.191,8.191,0,0,0,.714-16.35c-.089-.008-5.5-.488-10.532-.943,1.5-32.515,4.958-51.966,6.465-59.174h59.592a15.206,15.206,0,0,0,15.2-15.2V51.15c10.588,2.28,17.3,7.311,18.286,13.885-.779,1.436-4.243,4.172-6.355,5.84-5.69,4.5-12.138,9.589-11.763,17.47.228,4.793,2.383,13.436,14.255,17.465l.205.07a7.5,7.5,0,1,0,5.153-14.087c-.143-.052-.323-.115-.537-.187-3.018-1.024-3.859-2.054-4.052-3.5C283.173,86.75,286.394,84.205,288.368,82.645Z"
       fill="#ffabe5"
       stroke="#1d1d1b"
       stroke-linecap="round"
       stroke-linejoin="round"
       stroke-width="2"
       id="path36696" />
    <path
       d="M1,19.39S25.56,12.841,40.974,1C46.6,15.849,65.983,47.417,68.35,49c-9.29.689-36.347,20.31-37.329,21.92C24.7,62.168,1.262,28.488,1,19.39Z"
       fill="#fff"
       stroke="#1d1d1b"
       stroke-linecap="round"
       stroke-linejoin="round"
       stroke-width="2"
       id="path36698" />
    <path
       d="M8.251,21.5S44.273,8.163,50.589,4.888c9.59,9.819,15.549,39.438,19.938,46.853C53.4,59.623,31.642,72.722,31.642,72.722S21.116,32.255,8.251,21.5Z"
       fill="#fff"
       stroke="#1d1d1b"
       stroke-linecap="round"
       stroke-linejoin="round"
       stroke-width="2"
       id="path36700" />
    <path
       d="M47.548,9.8S20.882,17.753,9.187,33.893C20.414,45.12,41.232,75.762,41.7,78.569c4.445-8.187,33.449-24.794,35.321-25.028C71.641,44.185,55.735,13.776,47.548,9.8Z"
       fill="#fff"
       stroke="#1d1d1b"
       stroke-linecap="round"
       stroke-linejoin="round"
       stroke-width="2"
       id="path36702" />
    <path
       d="M58.761,73.429a4.035,4.035,0,0,0,6.278-2.146c1.561-5.182,1.938-11.737-1.7-16.22-4.337-5.34-5.08-.136-4.461,1.847s.859,5.2-.19,5.948C55.768,64.3,55.505,70.883,58.761,73.429Z"
       fill="#1d1d1b"
       stroke="#1d1d1b"
       stroke-linecap="round"
       stroke-linejoin="round"
       stroke-width="2"
       id="path36704" />
    <g
       id="g36718">
      <g
         id="g36710">
        <circle
           cx="194.264"
           cy="63.482"
           r="10.09"
           fill="#fff"
           stroke="#1d1d1b"
           stroke-linecap="round"
           stroke-linejoin="round"
           stroke-width="2"
           id="circle36706" />
        <circle
           cx="190.557"
           cy="63.88"
           r="6.224"
           fill="#1d1d1b"
           id="circle36708" />
      </g>
      <g
         id="g36716">
        <circle
           cx="158.845"
           cy="63.482"
           r="10.09"
           fill="#fff"
           stroke="#1d1d1b"
           stroke-linecap="round"
           stroke-linejoin="round"
           stroke-width="2"
           id="circle36712" />
        <circle
           cx="155.139"
           cy="63.88"
           r="6.224"
           fill="#1d1d1b"
           id="circle36714" />
      </g>
    </g>
  </g>
  <text
     xml:space="preserve"
     style="font-style:normal;font-weight:normal;font-size:26.8474px;line-height:1.25;font-family:sans-serif;fill:#000000;fill-opacity:1;stroke:none;stroke-width:0.671185"
     x="36.733398"
     y="0.54514641"
     id="text38063"
     transform="rotate(50.8023)"><tspan
       sodipodi:role="line"
       id="tspan38061"
       style="font-style:normal;font-variant:normal;font-weight:normal;font-stretch:normal;font-family:'Spicy Rice';-inkscape-font-specification:'Spicy Rice';stroke-width:0.671185"
       x="36.733398"
       y="0.54514641">231</tspan></text>
</svg>
