<?xml version="1.0" encoding="UTF-8" standalone="no"?>
<svg
   width="72.893mm"
   height="112.73mm"
   viewBox="0 0 206.627 319.549"
   version="1.1"
   id="svg45582"
   sodipodi:docname="signature-perso-4.svg"
   inkscape:version="1.1 (c68e22c387, 2021-05-23)"
   xmlns:inkscape="http://www.inkscape.org/namespaces/inkscape"
   xmlns:sodipodi="http://sodipodi.sourceforge.net/DTD/sodipodi-0.dtd"
   xmlns="http://www.w3.org/2000/svg"
   xmlns:svg="http://www.w3.org/2000/svg">
  <defs
     id="defs45586" />
  <sodipodi:namedview
     id="namedview45584"
     pagecolor="#ffffff"
     bordercolor="#999999"
     borderopacity="1"
     inkscape:pageshadow="0"
     inkscape:pageopacity="0"
     inkscape:pagecheckerboard="0"
     inkscape:document-units="mm"
     showgrid="false"
     inkscape:zoom="1.8353957"
     inkscape:cx="137.57251"
     inkscape:cy="213.03308"
     inkscape:window-width="1920"
     inkscape:window-height="986"
     inkscape:window-x="-11"
     inkscape:window-y="-11"
     inkscape:window-maximized="1"
     inkscape:current-layer="svg45582" />
  <g
     id="g45580">
    <g
       id="g45562">
      <path
         d="M140.139,136.974,87.228,125.088a2.29,2.29,0,0,1-.694-4.187l1.411-.864-2.558-3.975a2.292,2.292,0,0,1,.65-3.141l5.346-3.589-2.648-5.578a2.292,2.292,0,0,1,.6-2.737L92.1,98.694l-.873-1.133a2.29,2.29,0,0,1-.062-2.71l3-4.288-3.778-2.855a2.291,2.291,0,0,1-.337-3.343l3.175-3.6-4.3-3.191a2.29,2.29,0,0,1-.638-2.953l2.01-3.616-2.514-1.7a2.291,2.291,0,0,1-.938-2.461l1.023-4.03-1.188-.3a2.291,2.291,0,0,1-1.5-3.208l.717-1.5-.625-.158a2.29,2.29,0,0,1-1.42-3.365l2.028-3.513-2.6-.659a2.293,2.293,0,0,1-1.563-1.37L80.381,45.41l63.486-7.868-.021,5.765,1.771.253a2.29,2.29,0,0,1,1.738,3.264L145.3,51.07l1.96,1.517a2.291,2.291,0,0,1,.635,2.86l-2.33,4.526,2.326,1.112a2.29,2.29,0,0,1,1.232,2.63l-.613,2.415.91.459a2.291,2.291,0,0,1,1.052,3l-1.52,3.328,1.062.682a2.289,2.289,0,0,1,.814,2.947L148.8,80.629l1.562.621a2.29,2.29,0,0,1,1.251,3.049l-1.183,2.694.906,4.272a2.289,2.289,0,0,1-.27,1.642l-1.216,2.053.959,4.955a2.291,2.291,0,0,1-.975,2.339l-2.645,1.768,2.472,3.7a2.291,2.291,0,0,1-.887,3.325l-2,.989,2.416,4.905a2.291,2.291,0,0,1-1.09,3.089l-3.4,1.578,1.584,4.1a2.291,2.291,0,0,1-1.274,2.947l-1.737.707.985,4.5a2.291,2.291,0,0,1-1.875,2.75Z"
         transform="translate(0 0)"
         fill="#fff"
         stroke="#000"
         stroke-linecap="round"
         stroke-linejoin="round"
         stroke-width="2"
         id="path45554" />
      <line
         x1="143.846"
         y1="43.307"
         x2="120.459"
         y2="44.616"
         fill="none"
         stroke="#000"
         stroke-linecap="round"
         stroke-linejoin="round"
         stroke-width="2"
         id="line45556" />
      <line
         x1="124.236"
         y1="49.574"
         x2="91.918"
         y2="52.625"
         fill="none"
         stroke="#000"
         stroke-linecap="round"
         stroke-linejoin="round"
         stroke-width="2"
         id="line45558" />
      <path
         d="M139.344,9.031s-12.952-9.249-26.409-7.9c2.44,9.958-4.067,23.406-28.459,28.143l7.535,10.456S130.939,40.575,139.344,9.031Z"
         transform="translate(0 0)"
         fill="#fff"
         stroke="#000"
         stroke-linecap="round"
         stroke-linejoin="round"
         stroke-width="2"
         id="path45560" />
    </g>
    <path
       d="M24.2,302.567c-3.614-2.382-5.044-7.031-3.014-10.514,2.2-3.781,7.329-4.727,11.178-2.169a27.433,27.433,0,0,0,6.14,2.879c.352-22.883,2.961-29.746,10.96-32.573l.179-.064c3.225-1.494,28.493-12.857,29.578-13.345a8.451,8.451,0,0,1,10.737,3.869,7.247,7.247,0,0,1-3.307,10.184c-.268.12-26.815,12.058-29.491,13.306-.3.139-.576.253-.825.349-.663,1.715-2.081,7.606-2.044,26.554l.038,5.7-3.471.993a28.718,28.718,0,0,1-16.133-.1,37.173,37.173,0,0,1-9.14-4.181Q24.91,303.032,24.2,302.567ZM55.479,274.8l.007,0Z"
       transform="translate(0 0)"
       stroke="#000"
       stroke-miterlimit="10"
       stroke-width="2"
       id="path45564" />
    <path
       d="M39.037,226.146a7.231,7.231,0,0,1-8.7,3.684c-4.051-1.291-17.806-6.95-24.731-25.551a72.8,72.8,0,0,1-4.58-26.115,6.592,6.592,0,0,1,5.491-5.877,7.48,7.48,0,0,1,1.452-.151c3.688-.026,6.565,2.637,6.43,5.946,0,.036-.046,1.341.083,3.515a.864.864,0,0,0,1.438.262c.618-.527,3.526-3.611,4.21-1.577s-1.127,6.5-2.744,8.36-1.021,4.793-1.021,4.793l-.06.032a60.894,60.894,0,0,0,2.017,6.545c2.668,7.168,8.538,15.79,17.01,18.491A5.59,5.59,0,0,1,39.037,226.146Z"
       transform="translate(0 0)"
       stroke="#000"
       stroke-miterlimit="10"
       stroke-width="2"
       id="path45566" />
    <path
       d="M205.163,265.57a72.792,72.792,0,0,0-15.613-21.429c-8.341-7.9-16.822-10.9-23.306-11.9l17.446-75.176a9.617,9.617,0,0,0-7.186-11.529l-117.628-27.3a9.616,9.616,0,0,0-11.529,7.186l-27.3,117.628a9.617,9.617,0,0,0,7.186,11.529l72.256,16.769v47.2h26.838a7.549,7.549,0,0,0,0-15.1H117.1V275.436l27.76,6.442a9.617,9.617,0,0,0,11.529-7.186l6.976-30.058c6.453,1.185,12.519,5.03,16.645,8.938a60.949,60.949,0,0,1,4.693,4.988l-.04.055s1.828,2.375,1.194,4.753-.291,7.19,1.219,8.715,2.762-2.525,3.085-3.271a.864.864,0,0,1,1.407-.4c1.073,1.9,1.607,3.087,1.622,3.12,1.337,3.029,5.092,4.154,8.392,2.506a7.63,7.63,0,0,0,1.237-.775A6.591,6.591,0,0,0,205.163,265.57Z"
       transform="translate(0 0)"
       fill="#ff2e3f"
       stroke="#000"
       stroke-miterlimit="10"
       stroke-width="2"
       id="path45568" />
    <g
       id="g45578">
      <path
         d="M112.9,221.23c1.328-5.721-1.654-11.3-6.66-12.463S96.1,211.3,94.776,217.023s1.873,11.953,6.956,11.19C108.99,227.124,111.577,226.951,112.9,221.23Z"
         transform="translate(0 0)"
         fill="#fff"
         stroke="#1d1d1b"
         stroke-linecap="round"
         stroke-linejoin="round"
         stroke-width="2"
         id="path45570" />
      <circle
         cx="102.617"
         cy="215.338"
         r="7.038"
         fill="#1d1d1b"
         id="circle45572" />
      <path
         d="M64.365,209.965c1.328-5.721,6.462-9.417,11.468-8.255s7.988,6.741,6.66,12.462-6.946,9.907-11.172,6.984C65.283,216.981,63.038,215.686,64.365,209.965Z"
         transform="translate(0 0)"
         fill="#fff"
         stroke="#1d1d1b"
         stroke-linecap="round"
         stroke-linejoin="round"
         stroke-width="2"
         id="path45574" />
      <circle
         cx="72.892"
         cy="208.44"
         r="7.038"
         fill="#1d1d1b"
         id="circle45576" />
    </g>
  </g>
  <text
     xml:space="preserve"
     style="font-style:normal;font-weight:normal;font-size:30.0002px;line-height:1.25;font-family:sans-serif;fill:#000000;fill-opacity:1;stroke:none;stroke-width:0.750004"
     x="85.693718"
     y="88.502846"
     id="text47913"
     transform="rotate(-5.0392049)"><tspan
       sodipodi:role="line"
       id="tspan47911"
       style="font-style:normal;font-variant:normal;font-weight:normal;font-stretch:normal;font-family:'Spicy Rice';-inkscape-font-specification:'Spicy Rice';stroke-width:0.750004"
       x="85.693718"
       y="88.502846">500</tspan></text>
</svg>
