<?xml version="1.0" encoding="UTF-8" standalone="no"?>
<svg
   width="84.656mm"
   height="90.89mm"
   viewBox="0 0 239.969 257.641"
   version="1.1"
   id="svg52047"
   sodipodi:docname="signature-perso-5.svg"
   inkscape:version="1.1 (c68e22c387, 2021-05-23)"
   xmlns:inkscape="http://www.inkscape.org/namespaces/inkscape"
   xmlns:sodipodi="http://sodipodi.sourceforge.net/DTD/sodipodi-0.dtd"
   xmlns="http://www.w3.org/2000/svg"
   xmlns:svg="http://www.w3.org/2000/svg">
  <defs
     id="defs52051" />
  <sodipodi:namedview
     id="namedview52049"
     pagecolor="#ffffff"
     bordercolor="#999999"
     borderopacity="1"
     inkscape:pageshadow="0"
     inkscape:pageopacity="0"
     inkscape:pagecheckerboard="0"
     inkscape:document-units="mm"
     showgrid="false"
     inkscape:zoom="2.2764239"
     inkscape:cx="160.11956"
     inkscape:cy="171.76063"
     inkscape:window-width="1920"
     inkscape:window-height="986"
     inkscape:window-x="-11"
     inkscape:window-y="-11"
     inkscape:window-maximized="1"
     inkscape:current-layer="svg52047" />
  <g
     id="g52045">
    <path
       d="M168.349,252.274a11.986,11.986,0,0,0-1.3-23.913c-.13,0-8.083.077-15.472.134-3.193-61.376,1.488-91.565,1.538-91.88a11.986,11.986,0,0,0-23.66-3.851c-.238,1.454-5.769,36.431-1.144,108.547l.718,11.2,11.223.019c5.443.008,26.149-.19,27.028-.2C167.639,252.328,168,252.308,168.349,252.274Z"
       fill="#1d1d1b"
       stroke="#1d1d1b"
       stroke-linecap="round"
       stroke-linejoin="round"
       stroke-width="2"
       id="path52023" />
    <path
       d="M158.685,134.148a75.141,75.141,0,0,1-16.98-36.8A11.986,11.986,0,0,1,152.654,83.51a12.237,12.237,0,0,1,12.773,10.371c2.342,14.163,11.617,32.481,40.55,45.937,3.565.218,9.762-3.273,14.446-3.025,4.91.261,9.029,1.93,9.937,2.724s1.681,3.542-5.927,3.9l-.079,0a1.67,1.67,0,0,0-.378,3.259c.351.11.708.208,1.06.327,13.086,4.413,15.247,10.254,13.324,16.587-.022.074-.046.147-.069.22-2.01,6.2-9.557,9.375-20.219,6.131C191.892,161.982,171.907,149.953,158.685,134.148Z"
       fill="#1d1d1b"
       stroke="#1d1d1b"
       stroke-linecap="round"
       stroke-linejoin="round"
       stroke-width="2"
       id="path52025" />
    <path
       d="M117.332,146.121a72.513,72.513,0,1,0-28.407-5.776c-1.3,10.507-4.53,44.817-.665,105.077l.718,11.2,11.224.019c5.442.009,26.149-.19,27.027-.2.361,0,.719-.023,1.071-.058a11.986,11.986,0,0,0-1.3-23.912c-.13,0-8.083.077-15.472.134-2.442-46.952-.278-75.631.9-86.669C114.047,146.046,115.68,146.121,117.332,146.121Z"
       fill="#ffee1a"
       stroke="#1d1d1b"
       stroke-linecap="round"
       stroke-linejoin="round"
       stroke-width="2"
       id="path52027" />
    <path
       d="M98.534,76.838H88.856a8.819,8.819,0,0,1-3.911-.825,8.017,8.017,0,0,1-4.737-7.065h0a7.744,7.744,0,0,1,3.976-6.609A8.906,8.906,0,0,1,88.733,61.2H98.808a8.9,8.9,0,0,1,4.549,1.135,7.744,7.744,0,0,1,3.976,6.609h0a7.65,7.65,0,0,1-2.64,5.678A9.145,9.145,0,0,1,98.534,76.838Z"
       fill="#fff"
       stroke="#1d1d1b"
       stroke-linecap="round"
       stroke-linejoin="round"
       stroke-width="2"
       id="path52029" />
    <circle
       cx="99.94"
       cy="69.01"
       r="7.758"
       fill="#1d1d1b"
       id="circle52031" />
    <path
       d="M148.846,76.838h-9.679a8.821,8.821,0,0,1-3.911-.825,8.018,8.018,0,0,1-4.736-7.065h0a7.745,7.745,0,0,1,3.975-6.609,8.91,8.91,0,0,1,4.55-1.135H149.12a8.909,8.909,0,0,1,4.549,1.135,7.746,7.746,0,0,1,3.976,6.609h0a7.65,7.65,0,0,1-2.64,5.678A9.147,9.147,0,0,1,148.846,76.838Z"
       fill="#fff"
       stroke="#1d1d1b"
       stroke-linecap="round"
       stroke-linejoin="round"
       stroke-width="2"
       id="path52033" />
    <circle
       cx="150.252"
       cy="69.01"
       r="7.758"
       fill="#1d1d1b"
       id="circle52035" />
    <rect
       x="22.773"
       y="108.884"
       width="72.586"
       height="94.413"
       transform="matrix(0.114, -0.994, 0.994, 0.114, -102.728, 197.027)"
       fill="#fff"
       stroke="#000"
       stroke-miterlimit="10"
       stroke-width="2"
       id="rect52037" />
    <rect
       x="21.069"
       y="110.795"
       width="72.586"
       height="94.413"
       transform="translate(-108.519 185.178) rotate(-79.351)"
       fill="#fff"
       stroke="#000"
       stroke-miterlimit="10"
       stroke-width="2"
       id="rect52039" />
    <path
       d="M105.968,124.328,92.522,205.543l-23.708-3.925a7.41,7.41,0,0,1-6.093-8.512l.4-2.406L1.15,180.441l11.839-71.507Z"
       fill="#fff"
       stroke="#000"
       stroke-miterlimit="10"
       stroke-width="2"
       id="path52041" />
    <path
       d="M46.394,83.14c-6.185,4.786-28.719,35-23.639,74.437a164.119,164.119,0,0,0,15.261,51.008,11.975,11.975,0,0,0,13.743,5.96,12.138,12.138,0,0,0,2.425-.957,12,12,0,0,0,5.041-16.175c-.034-.064-1.229-2.382-2.9-6.414.056-1.644,1.043-1.992,2.048-1.691,1.431.429,8.683,3.533,8.013-.716S59,177.808,54.847,175.826,49.1,168.04,49.1,168.04l-.123-.007a137.247,137.247,0,0,1-2.451-13.52c-1.958-15.2-2.269-33.109,8.794-45.155"
       fill="#ffee1a"
       stroke="#1d1d1b"
       stroke-linecap="round"
       stroke-linejoin="round"
       stroke-width="2"
       id="path52043" />
  </g>
  <text
     xml:space="preserve"
     style="font-style:normal;font-weight:normal;font-size:30px;line-height:1.25;font-family:sans-serif;fill:#000000;fill-opacity:1;stroke:none;stroke-width:0.75"
     x="70.392532"
     y="130.3725"
     id="text54048"
     transform="rotate(10.128095)"><tspan
       sodipodi:role="line"
       id="tspan54046"
       style="font-style:normal;font-variant:normal;font-weight:normal;font-stretch:normal;font-family:'Spicy Rice';-inkscape-font-specification:'Spicy Rice';stroke-width:0.75"
       x="70.392532"
       y="130.3725">500</tspan></text>
</svg>
