<svg width="226" height="48" viewBox="0 0 226 48" fill="none" xmlns="http://www.w3.org/2000/svg">
<rect width="226" height="47" fill="#46A882"/>
<mask id="mask0_731_9" style="mask-type:alpha" maskUnits="userSpaceOnUse" x="184" y="7" width="33" height="33">
<circle cx="200.948" cy="23.9029" r="15.4927" fill="#A27474" stroke="black"/>
</mask>
<g mask="url(#mask0_731_9)">
<g filter="url(#filter0_d_731_9)">
<path d="M207.133 20.6022H207.232C210.274 20.6992 212.443 21.0681 212.747 22.6956C213.975 29.2123 214.459 38.146 214.459 38.146L201.335 42.1032H200.782L188.264 38.146C188.264 38.146 188.657 24.1129 189.476 22.6956C190.029 21.7638 191.965 20.696 194.985 20.5957H207.155L207.133 20.6022Z" fill="#5154A1"/>
<path d="M196.007 24.7266C196.007 24.7266 201.301 28.7496 206.022 24.7266C206.022 24.7266 203.816 39.0456 204.122 40.7689H198.271L196.007 24.7266Z" fill="#373684"/>
<g clip-path="url(#clip0_731_9)">
<path d="M216.666 36.3111C216.666 36.3111 216.574 39.4588 215.436 38.4601C215.436 38.4601 214.859 40.0324 214.165 38.8168C214.165 38.8168 213.499 40.6001 212.909 38.7454C212.909 38.7454 212.137 41.0668 211.352 38.5314C211.352 38.5314 208.865 42.7669 208.669 36.3111L216.666 36.3111Z" fill="#EFB19E"/>
<path d="M215.74 36.311C215.74 37.1067 215.631 37.8736 215.434 38.46C215.434 38.46 215.831 37.8358 215.74 36.311Z" fill="#BC6A4F"/>
<path d="M214.366 36.3108C214.428 38.0614 214.165 38.8164 214.165 38.8164C214.165 38.8164 214.563 38.1774 214.366 36.3108Z" fill="#BC6A4F"/>
<path d="M213.216 36.3108C213.198 37.1839 213.092 38.0262 212.909 38.7451C213.027 38.4344 213.117 38.0518 213.17 37.6287C213.223 37.2056 213.239 36.7539 213.216 36.3108Z" fill="#BC6A4F"/>
<path d="M211.055 37.1283C211.114 37.6513 211.215 38.1311 211.352 38.5312C211.26 38.3932 211.184 38.1896 211.132 37.9424C211.08 37.6951 211.053 37.4136 211.055 37.1283V37.1283Z" fill="#BC6A4F"/>
</g>
<g clip-path="url(#clip1_731_9)">
<path d="M193.78 36.0367C193.78 36.0367 193.688 39.1844 192.55 38.1857C192.55 38.1857 191.974 39.758 191.28 38.5423C191.28 38.5423 190.613 40.3257 190.023 38.471C190.023 38.471 189.251 40.7924 188.467 38.257C188.467 38.257 185.98 42.4925 185.783 36.0367L193.78 36.0367Z" fill="#EFB19E"/>
<path d="M192.854 36.0366C192.854 36.8323 192.745 37.5992 192.548 38.1855C192.548 38.1855 192.946 37.5614 192.854 36.0366Z" fill="#BC6A4F"/>
<path d="M191.48 36.0364C191.542 37.787 191.279 38.542 191.279 38.542C191.279 38.542 191.677 37.903 191.48 36.0364Z" fill="#BC6A4F"/>
<path d="M190.331 36.0364C190.312 36.9095 190.206 37.7518 190.023 38.4707C190.141 38.16 190.231 37.7774 190.284 37.3543C190.338 36.9312 190.354 36.4795 190.331 36.0364Z" fill="#BC6A4F"/>
<path d="M188.17 36.8539C188.228 37.3769 188.329 37.8567 188.466 38.2568C188.374 38.1188 188.298 37.9152 188.246 37.6679C188.194 37.4207 188.167 37.1392 188.17 36.8539V36.8539Z" fill="#BC6A4F"/>
</g>
<path d="M201.066 35.6587L201.069 26.5098L200.766 35.6697L201.066 35.6587Z" fill="#2C2C6B"/>
<path d="M206.022 25.7919C206.338 25.7919 206.593 25.5364 206.593 25.2212C206.593 24.9059 206.338 24.6504 206.022 24.6504C205.707 24.6504 205.452 24.9059 205.452 25.2212C205.452 25.5364 205.707 25.7919 206.022 25.7919Z" fill="#C9C5BD"/>
<path d="M206.064 25.6476C206.339 25.6476 206.563 25.4241 206.563 25.1485C206.563 24.8729 206.339 24.6494 206.064 24.6494C205.788 24.6494 205.564 24.8729 205.564 25.1485C205.564 25.4241 205.788 25.6476 206.064 25.6476Z" fill="white"/>
<path d="M205.341 26.6171C205.656 26.6171 205.912 26.3616 205.912 26.0464C205.912 25.7311 205.656 25.4756 205.341 25.4756C205.026 25.4756 204.77 25.7311 204.77 26.0464C204.77 26.3616 205.026 26.6171 205.341 26.6171Z" fill="#C9C5BD"/>
<path d="M205.382 26.4738C205.658 26.4738 205.881 26.2503 205.881 25.9747C205.881 25.699 205.658 25.4756 205.382 25.4756C205.107 25.4756 204.883 25.699 204.883 25.9747C204.883 26.2503 205.107 26.4738 205.382 26.4738Z" fill="white"/>
<path d="M204.77 27.5312C205.085 27.5312 205.341 27.2757 205.341 26.9604C205.341 26.6452 205.085 26.3896 204.77 26.3896C204.455 26.3896 204.199 26.6452 204.199 26.9604C204.199 27.2757 204.455 27.5312 204.77 27.5312Z" fill="#C9C5BD"/>
<path d="M204.811 27.3829C205.087 27.3829 205.31 27.1595 205.31 26.8838C205.31 26.6082 205.087 26.3848 204.811 26.3848C204.535 26.3848 204.312 26.6082 204.312 26.8838C204.312 27.1595 204.535 27.3829 204.811 27.3829Z" fill="white"/>
<path d="M204.37 28.5087C204.685 28.5087 204.941 28.2532 204.941 27.938C204.941 27.6227 204.685 27.3672 204.37 27.3672C204.055 27.3672 203.799 27.6227 203.799 27.938C203.799 28.2532 204.055 28.5087 204.37 28.5087Z" fill="#DDD5C5"/>
<path d="M204.411 28.3654C204.687 28.3654 204.91 28.1419 204.91 27.8663C204.91 27.5906 204.687 27.3672 204.411 27.3672C204.136 27.3672 203.912 27.5906 203.912 27.8663C203.912 28.1419 204.136 28.3654 204.411 28.3654Z" fill="white"/>
<path d="M203.8 29.3779C204.115 29.3779 204.371 29.1223 204.371 28.8071C204.371 28.4919 204.115 28.2363 203.8 28.2363C203.485 28.2363 203.229 28.4919 203.229 28.8071C203.229 29.1223 203.485 29.3779 203.8 29.3779Z" fill="#C9C5BD"/>
<path d="M203.841 29.2335C204.117 29.2335 204.34 29.0101 204.34 28.7344C204.34 28.4588 204.117 28.2354 203.841 28.2354C203.566 28.2354 203.342 28.4588 203.342 28.7344C203.342 29.0101 203.566 29.2335 203.841 29.2335Z" fill="white"/>
<path d="M203.196 30.1699C203.511 30.1699 203.767 29.9143 203.767 29.5991C203.767 29.2839 203.511 29.0283 203.196 29.0283C202.881 29.0283 202.625 29.2839 202.625 29.5991C202.625 29.9143 202.881 30.1699 203.196 30.1699Z" fill="#C9C5BD"/>
<path d="M203.237 30.0265C203.513 30.0265 203.736 29.803 203.736 29.5274C203.736 29.2518 203.513 29.0283 203.237 29.0283C202.962 29.0283 202.738 29.2518 202.738 29.5274C202.738 29.803 202.962 30.0265 203.237 30.0265Z" fill="white"/>
<path d="M202.451 30.8818C202.766 30.8818 203.021 30.6262 203.021 30.311C203.021 29.9958 202.766 29.7402 202.451 29.7402C202.135 29.7402 201.88 29.9958 201.88 30.311C201.88 30.6262 202.135 30.8818 202.451 30.8818Z" fill="#C9C5BD"/>
<path d="M202.492 30.7384C202.767 30.7384 202.991 30.515 202.991 30.2393C202.991 29.9637 202.767 29.7402 202.492 29.7402C202.216 29.7402 201.993 29.9637 201.993 30.2393C201.993 30.515 202.216 30.7384 202.492 30.7384Z" fill="white"/>
<path d="M201.585 31.2705C201.901 31.2705 202.156 31.0149 202.156 30.6997C202.156 30.3845 201.901 30.1289 201.585 30.1289C201.27 30.1289 201.015 30.3845 201.015 30.6997C201.015 31.0149 201.27 31.2705 201.585 31.2705Z" fill="#C9C5BD"/>
<path d="M201.627 31.1241C201.903 31.1241 202.126 30.9007 202.126 30.6251C202.126 30.3494 201.903 30.126 201.627 30.126C201.351 30.126 201.128 30.3494 201.128 30.6251C201.128 30.9007 201.351 31.1241 201.627 31.1241Z" fill="white"/>
<path d="M200.529 31.1962C200.844 31.1962 201.1 30.9407 201.1 30.6255C201.1 30.3102 200.844 30.0547 200.529 30.0547C200.214 30.0547 199.958 30.3102 199.958 30.6255C199.958 30.9407 200.214 31.1962 200.529 31.1962Z" fill="#C9C5BD"/>
<path d="M200.571 31.0529C200.846 31.0529 201.07 30.8294 201.07 30.5538C201.07 30.2781 200.846 30.0547 200.571 30.0547C200.295 30.0547 200.072 30.2781 200.072 30.5538C200.072 30.8294 200.295 31.0529 200.571 31.0529Z" fill="white"/>
<path d="M199.62 30.6269C199.935 30.6269 200.19 30.3714 200.19 30.0561C200.19 29.7409 199.935 29.4854 199.62 29.4854C199.304 29.4854 199.049 29.7409 199.049 30.0561C199.049 30.3714 199.304 30.6269 199.62 30.6269Z" fill="#C9C5BD"/>
<path d="M199.664 30.4835C199.939 30.4835 200.163 30.2601 200.163 29.9844C200.163 29.7088 199.939 29.4854 199.664 29.4854C199.388 29.4854 199.165 29.7088 199.165 29.9844C199.165 30.2601 199.388 30.4835 199.664 30.4835Z" fill="white"/>
<path d="M198.853 29.9492C199.168 29.9492 199.423 29.6936 199.423 29.3784C199.423 29.0632 199.168 28.8076 198.853 28.8076C198.537 28.8076 198.282 29.0632 198.282 29.3784C198.282 29.6936 198.537 29.9492 198.853 29.9492Z" fill="#C9C5BD"/>
<path d="M198.894 29.8038C199.17 29.8038 199.393 29.5804 199.393 29.3047C199.393 29.0291 199.17 28.8057 198.894 28.8057C198.618 28.8057 198.395 29.0291 198.395 29.3047C198.395 29.5804 198.618 29.8038 198.894 29.8038Z" fill="white"/>
<path d="M198.282 29.1269C198.597 29.1269 198.853 28.8714 198.853 28.5561C198.853 28.2409 198.597 27.9854 198.282 27.9854C197.967 27.9854 197.711 28.2409 197.711 28.5561C197.711 28.8714 197.967 29.1269 198.282 29.1269Z" fill="#C9C5BD"/>
<path d="M198.324 28.9835C198.599 28.9835 198.823 28.7601 198.823 28.4844C198.823 28.2088 198.599 27.9854 198.324 27.9854C198.048 27.9854 197.825 28.2088 197.825 28.4844C197.825 28.7601 198.048 28.9835 198.324 28.9835Z" fill="white"/>
<path d="M197.824 28.288C198.139 28.288 198.395 28.0325 198.395 27.7173C198.395 27.402 198.139 27.1465 197.824 27.1465C197.509 27.1465 197.253 27.402 197.253 27.7173C197.253 28.0325 197.509 28.288 197.824 28.288Z" fill="#C9C5BD"/>
<path d="M197.866 28.1447C198.141 28.1447 198.365 27.9212 198.365 27.6456C198.365 27.3699 198.141 27.1465 197.866 27.1465C197.59 27.1465 197.367 27.3699 197.367 27.6456C197.367 27.9212 197.59 28.1447 197.866 28.1447Z" fill="white"/>
<path d="M197.333 27.5498C197.649 27.5498 197.904 27.2942 197.904 26.979C197.904 26.6637 197.649 26.4082 197.333 26.4082C197.018 26.4082 196.763 26.6637 196.763 26.979C196.763 27.2942 197.018 27.5498 197.333 27.5498Z" fill="#C9C5BD"/>
<path d="M197.375 27.4064C197.65 27.4064 197.874 27.1829 197.874 26.9073C197.874 26.6317 197.65 26.4082 197.375 26.4082C197.099 26.4082 196.875 26.6317 196.875 26.9073C196.875 27.1829 197.099 27.4064 197.375 27.4064Z" fill="white"/>
<path d="M196.834 26.7236C197.149 26.7236 197.405 26.468 197.405 26.1528C197.405 25.8376 197.149 25.582 196.834 25.582C196.519 25.582 196.263 25.8376 196.263 26.1528C196.263 26.468 196.519 26.7236 196.834 26.7236Z" fill="#C9C5BD"/>
<path d="M196.876 26.5792C197.152 26.5792 197.375 26.3558 197.375 26.0801C197.375 25.8045 197.152 25.5811 196.876 25.5811C196.6 25.5811 196.377 25.8045 196.377 26.0801C196.377 26.3558 196.6 26.5792 196.876 26.5792Z" fill="white"/>
<path d="M196.22 25.9746C196.535 25.9746 196.79 25.719 196.79 25.4038C196.79 25.0886 196.535 24.833 196.22 24.833C195.904 24.833 195.649 25.0886 195.649 25.4038C195.649 25.719 195.904 25.9746 196.22 25.9746Z" fill="#C9C5BD"/>
<path d="M196.263 25.8273C196.539 25.8273 196.762 25.6038 196.762 25.3282C196.762 25.0525 196.539 24.8291 196.263 24.8291C195.988 24.8291 195.764 25.0525 195.764 25.3282C195.764 25.6038 195.988 25.8273 196.263 25.8273Z" fill="white"/>
<path d="M211.437 20.6832V20.7025H191.231C191.231 17.9645 192.861 13.9911 195.599 13.9856L206.129 11.5039C208.873 11.4846 211.437 17.9369 211.437 20.6832Z" fill="#ED8A29"/>
<path d="M194.724 20.3306C194.097 20.3306 193.496 20.0818 193.052 19.6387C192.609 19.1956 192.359 18.5945 192.358 17.9676C192.359 17.3406 192.609 16.7395 193.052 16.2965C193.496 15.8534 194.097 15.6045 194.724 15.6045C195.351 15.6045 195.952 15.8535 196.395 16.2966C196.838 16.7398 197.087 17.3408 197.087 17.9676C197.087 18.5943 196.838 19.1953 196.395 19.6385C195.952 20.0817 195.351 20.3306 194.724 20.3306V20.3306Z" fill="#EFB19E"/>
<path d="M193.379 20.5517C193.695 20.5517 193.95 20.2962 193.95 19.9809C193.95 19.6657 193.695 19.4102 193.379 19.4102C193.064 19.4102 192.809 19.6657 192.809 19.9809C192.809 20.2962 193.064 20.5517 193.379 20.5517Z" fill="#C49318"/>
<path d="M193.423 20.4083C193.699 20.4083 193.922 20.1849 193.922 19.9092C193.922 19.6336 193.699 19.4102 193.423 19.4102C193.148 19.4102 192.924 19.6336 192.924 19.9092C192.924 20.1849 193.148 20.4083 193.423 20.4083Z" fill="#EDB61B"/>
<path d="M201.123 24.7259C196.846 24.7259 193.38 21.6928 193.38 17.9704C193.38 14.2479 196.846 11.2148 201.123 11.2148C205.399 11.2148 208.863 14.2479 208.863 17.9704C208.863 21.6928 205.396 24.7259 201.123 24.7259Z" fill="#EFB19E"/>
<path d="M201.444 21.1566C201.337 21.1731 201.23 21.1869 201.121 21.198C200.697 21.2393 200.269 21.2393 199.845 21.198C199.704 21.198 199.569 21.1676 199.428 21.1483C197.912 20.9084 197.126 21.4847 198 21.8928C198.775 22.2045 199.6 22.37 200.435 22.3809C201.271 22.3702 202.097 22.2047 202.872 21.8928C203.746 21.4985 202.961 20.9222 201.444 21.1566Z" fill="#E28E74"/>
<path d="M206.414 17.9709C206.412 17.5256 206.513 17.0857 206.709 16.686C206.882 16.326 207.155 16.0234 207.495 15.8147C207.802 15.6359 208.164 15.5751 208.512 15.6437C208.881 15.724 209.212 15.9249 209.453 16.2145C209.729 16.5408 209.919 16.9315 210.004 17.3505C210.098 17.792 210.093 18.2489 209.988 18.6878C209.89 19.0983 209.691 19.4777 209.409 19.7908C209.159 20.069 208.823 20.2547 208.455 20.3175C208.383 20.3284 208.312 20.334 208.24 20.334C208.12 20.3329 208 20.3181 207.884 20.2899C207.439 20.1585 207.06 19.8628 206.825 19.4627C206.552 19.0131 206.41 18.4966 206.414 17.9709V17.9709Z" fill="#EFB19E"/>
<path d="M209.46 18.8509C209.583 18.5683 209.644 18.2628 209.639 17.9548C209.64 17.6459 209.575 17.3404 209.449 17.0586C209.337 16.802 209.161 16.5781 208.939 16.4079C208.739 16.2551 208.496 16.1709 208.244 16.168C208.244 16.168 209.871 16.7029 209.46 18.8509Z" fill="#BC6A4F"/>
<path d="M205.341 22.1484C205.605 21.9898 205.834 21.7775 206.011 21.5252C206.189 21.2778 206.314 20.9961 206.378 20.698C206.436 20.4239 206.425 20.1394 206.345 19.8708C206.27 19.6315 206.121 19.422 205.92 19.2725C205.92 19.2725 206.926 20.6429 205.341 22.1484Z" fill="#BC6A4F"/>
<path d="M196.22 22.0422C195.926 21.9477 195.655 21.7927 195.425 21.5872C195.193 21.3844 195.005 21.1356 194.874 20.8565C194.757 20.6059 194.706 20.3299 194.725 20.0541C194.741 19.8032 194.838 19.5642 195.001 19.373C195.001 19.373 194.331 20.942 196.22 22.0422Z" fill="#BC6A4F"/>
<path d="M198.365 21.3994C198.756 21.7027 199.537 21.9095 200.436 21.9095C201.334 21.9095 202.115 21.7027 202.509 21.3994C202.509 21.3994 200.427 22.177 198.365 21.3994Z" fill="#BC6A4F"/>
<path d="M193.401 33.8412C193.401 33.8412 193.867 35.9092 193.856 35.8651C194.016 35.7626 194.186 35.6775 194.364 35.6114C194.311 35.0296 194.219 34.4519 194.088 33.8826C193.927 33.8083 193.758 33.7546 193.583 33.7226C193.583 33.7226 194.215 32.3439 194.077 29.8623C194.032 31.2129 193.804 32.5513 193.401 33.8412V33.8412Z" fill="#373684"/>
<path d="M187.716 36.0153C187.716 36.0153 187.39 34.7165 187.503 33.8342C187.503 33.8342 191.832 33.4344 193.98 33.9335C193.98 33.9335 194.292 35.4114 194.179 36.0153H187.716Z" fill="#FAF3ED"/>
<path d="M193.401 33.8406C191.829 33.6117 189.593 33.7055 188.375 33.7827V33.5538C188.375 33.5538 192.309 33.4408 193.401 33.8406Z" fill="#373684"/>
<path d="M209.267 34.1799C209.267 34.1799 208.801 36.2452 208.812 36.2038C208.823 36.1624 208.305 35.9474 208.305 35.9474C208.359 35.3657 208.451 34.7882 208.58 34.2185C208.742 34.1444 208.913 34.0906 209.088 34.0586C209.088 34.0586 208.454 32.6799 208.594 30.1982C208.638 31.5498 208.864 32.8891 209.267 34.1799V34.1799Z" fill="#373684"/>
<path d="M214.954 36.366C214.954 36.366 215.282 35.07 215.169 34.1849C215.169 34.1849 210.837 33.7878 208.689 34.2869C208.689 34.2869 208.377 35.7621 208.493 36.366H214.954Z" fill="#FAF3ED"/>
<path d="M209.267 34.179C210.839 33.9501 213.127 34.0439 214.332 34.1239L214.316 33.9033C214.316 33.9033 210.362 33.793 209.267 34.179Z" fill="#373684"/>
<path d="M202.368 18.0611C202.368 18.5408 202.757 18.9297 203.237 18.9297C203.717 18.9297 204.105 18.5408 204.105 18.0611C204.105 17.5814 203.717 17.1925 203.237 17.1925C202.757 17.1925 202.368 17.5814 202.368 18.0611Z" fill="#1D1D1B"/>
<path d="M196.211 18.0611C196.211 18.5408 196.599 18.9297 197.079 18.9297C197.559 18.9297 197.948 18.5408 197.948 18.0611C197.948 17.5814 197.559 17.1925 197.079 17.1925C196.599 17.1925 196.211 17.5814 196.211 18.0611Z" fill="#1D1D1B"/>
<path d="M208.374 15.6065C208.507 15.3086 208.572 14.985 208.565 14.6588C208.558 14.3327 208.479 14.0122 208.333 13.7205C208.191 13.3688 208.074 13.0076 207.982 12.6396C207.804 12.1143 207.523 11.6297 207.155 11.214C206.298 10.0669 204.348 10.0835 203.869 10.293L203.507 10.4585C203.367 10.5247 203.232 10.4392 203.124 10.3372C202.818 10.078 202.755 9.97318 201.977 9.84634C201.285 9.73329 200.902 9.84635 200.692 10.0449C200.594 10.1369 200.468 10.1944 200.335 10.2088C200.201 10.2232 200.066 10.1938 199.95 10.1248L199.876 10.0807C199.126 9.64473 198.236 9.51811 197.394 9.72778C194.433 10.4502 192.767 14.3298 193.167 15.1929C193.256 15.3888 193.385 15.5638 193.546 15.7063C193.707 15.8489 193.897 15.9558 194.102 16.0201C194.653 16.1883 194.965 13.0449 198.381 13.6129C198.381 13.6129 198.602 14.567 199.934 15.0302C201.266 15.4934 202.716 13.6708 202.716 13.6708C202.716 13.6708 202.6 14.8427 204.414 15.601C205.687 16.0966 207.1 16.0986 208.374 15.6065V15.6065Z" fill="#ED8A29"/>
<path d="M199.893 15.1335C199.245 14.9403 198.696 14.5073 198.357 13.923C198.018 13.2915 197.995 12.514 198.296 11.6123L198.492 11.6785C198.216 12.5222 198.216 13.2447 198.539 13.8265C198.854 14.356 199.355 14.7492 199.945 14.9294L199.893 15.1335Z" fill="#1D1D1B"/>
<path d="M204.376 15.7069C203.73 15.513 203.182 15.0814 202.842 14.4992C202.501 13.865 202.481 13.0874 202.782 12.1885L202.978 12.2519C202.702 13.0957 202.702 13.8181 203.024 14.3971C203.339 14.9261 203.84 15.3192 204.428 15.5001L204.376 15.7069Z" fill="#1D1D1B"/>
<path d="M208.699 20.5517C209.014 20.5517 209.269 20.2962 209.269 19.9809C209.269 19.6657 209.014 19.4102 208.699 19.4102C208.383 19.4102 208.128 19.6657 208.128 19.9809C208.128 20.2962 208.383 20.5517 208.699 20.5517Z" fill="#C49318"/>
<path d="M208.743 20.4083C209.019 20.4083 209.242 20.1849 209.242 19.9092C209.242 19.6336 209.019 19.4102 208.743 19.4102C208.468 19.4102 208.244 19.6336 208.244 19.9092C208.244 20.1849 208.468 20.4083 208.743 20.4083Z" fill="#EDB61B"/>
<path opacity="0.6" d="M193.853 20.3008C193.853 20.3008 193.632 19.7328 193.577 19.4405C193.577 19.4405 193.577 19.4102 193.393 19.4102C193.424 19.7761 193.537 20.1304 193.723 20.4469C193.775 20.4066 193.819 20.3571 193.853 20.3008V20.3008Z" fill="#C49318"/>
<path opacity="0.6" d="M206.687 23.2402C206.687 23.2402 203.312 28.2366 203.342 35.8193H204.04V34.9921L206.687 23.2402Z" fill="#373684"/>
<path opacity="0.6" d="M195.478 23.0879C195.478 23.0879 198.853 28.0842 198.823 35.667H198.125V34.8398L195.478 23.0879Z" fill="#373684"/>
<path d="M208.237 20.9434L209.309 24.3818L207.007 27.4397L206.827 31.3442L204.255 35.221L204.28 34.2284C204.404 29.4168 205.606 24.9801 208.225 20.9434H208.237Z" fill="#373684"/>
<path d="M208.26 20.4541L209.333 23.8953L207.028 27.2041L206.851 31.1113L204.039 34.9882L204.063 33.9928C204.188 29.1811 205.641 24.4976 208.26 20.4596V20.4541Z" fill="#FAF3ED"/>
<path d="M194.002 20.9385L192.93 24.3797L195.235 27.4348L195.411 31.3393L197.976 35.2161L197.948 34.2235C197.827 29.4119 196.622 24.978 194.002 20.9385Z" fill="#373684"/>
<path d="M193.97 20.4492L192.897 23.8904L195.199 27.1992L195.379 31.1037L198.188 34.9805L198.164 33.9879C198.04 29.1756 196.589 24.491 193.97 20.452V20.4492Z" fill="#FAF3ED"/>
<path d="M195.119 17.8494C195.265 17.567 195.46 17.313 195.695 17.0994C195.93 16.8728 196.213 16.7022 196.523 16.6003C196.851 16.5033 197.205 16.5369 197.51 16.694C197.795 16.8514 198.027 17.0893 198.177 17.3779C197.957 17.1723 197.702 17.0071 197.424 16.8898C197.158 16.7935 196.868 16.7848 196.597 16.865C196.318 16.9553 196.055 17.0903 195.819 17.2648C195.575 17.4458 195.341 17.641 195.119 17.8494V17.8494Z" fill="#1D1D1B"/>
<path d="M205.449 17.8494C205.223 17.6406 204.986 17.4454 204.737 17.2648C204.502 17.0903 204.239 16.9553 203.96 16.865C203.689 16.7848 203.399 16.7935 203.133 16.8898C202.855 17.0071 202.6 17.1723 202.38 17.3779C202.53 17.0893 202.762 16.8514 203.047 16.694C203.352 16.5369 203.705 16.5033 204.034 16.6003C204.344 16.7022 204.627 16.8728 204.862 17.0994C205.101 17.312 205.3 17.5661 205.449 17.8494V17.8494Z" fill="#1D1D1B"/>
</g>
</g>
<defs>
<filter id="filter0_d_731_9" x="181.783" y="9.62891" width="38.8823" height="40.4746" filterUnits="userSpaceOnUse" color-interpolation-filters="sRGB">
<feFlood flood-opacity="0" result="BackgroundImageFix"/>
<feColorMatrix in="SourceAlpha" type="matrix" values="0 0 0 0 0 0 0 0 0 0 0 0 0 0 0 0 0 0 127 0" result="hardAlpha"/>
<feOffset dy="4"/>
<feGaussianBlur stdDeviation="2"/>
<feComposite in2="hardAlpha" operator="out"/>
<feColorMatrix type="matrix" values="0 0 0 0 0 0 0 0 0 0 0 0 0 0 0 0 0 0 0.25 0"/>
<feBlend mode="normal" in2="BackgroundImageFix" result="effect1_dropShadow_731_9"/>
<feBlend mode="normal" in="SourceGraphic" in2="effect1_dropShadow_731_9" result="shape"/>
</filter>
<clipPath id="clip0_731_9">
<rect width="7.99637" height="3.58458" fill="white" transform="translate(216.666 39.8955) rotate(-180)"/>
</clipPath>
<clipPath id="clip1_731_9">
<rect width="7.99637" height="3.58458" fill="white" transform="translate(193.78 39.6211) rotate(-180)"/>
</clipPath>
</defs>
</svg>
