<svg width="119" height="36" viewBox="0 0 119 36" fill="none" xmlns="http://www.w3.org/2000/svg">
<rect width="118.8" height="36" fill="#ADB3D7"/>
<mask id="mask0_431_25" style="mask-type:alpha" maskUnits="userSpaceOnUse" x="89" y="6" width="25" height="25">
<circle cx="101.132" cy="18.1322" r="11.6322" fill="#C4C4C4" stroke="black"/>
</mask>
<g mask="url(#mask0_431_25)">
<path d="M92.4369 27.7086C92.4369 27.7086 91.4391 18.007 97.4571 14.3506L105.973 14.5598C105.973 14.5598 109.612 15.9299 110.1 27.4806L101.655 31.4361L92.4369 27.7086Z" fill="#5154A1"/>
<path d="M105.793 14.3398C105.793 14.3398 103.818 17.1512 101.216 17.0173L101.726 19.1844C101.726 19.1844 105.853 16.35 105.793 14.3398Z" fill="#373684"/>
<path d="M105.793 14.3398C105.793 14.3398 103.67 16.9817 101.067 16.85L101.576 19.017C101.576 19.017 105.322 16.7621 105.793 14.3398Z" fill="#FAF3ED"/>
<path d="M100.413 16.9004L100.013 19.1135C100.013 19.1135 97.7373 16.2102 97.5972 14.3506C97.5951 14.3506 99.5488 16.7519 100.413 16.9004Z" fill="#373684"/>
<path d="M100.306 16.8712L99.8333 19.0131C99.8333 19.0131 97.7415 16.206 97.5972 14.3506C98.2135 15.454 99.1611 16.3358 100.306 16.8712Z" fill="#FAF3ED"/>
<path d="M101.013 18.0573C101.013 18.0573 101.431 23.5252 101.701 24.774C101.971 26.0227 100.724 27.3134 100.655 27.7443H99.0552C99.0552 27.7443 98.2875 26.1943 98.4591 25.025C98.6306 23.8557 100.524 17.9883 100.524 17.9883L101.013 18.0573Z" fill="#C7361A"/>
<path d="M100.927 18.0233C100.927 18.0233 101.346 23.4911 101.615 24.7378C101.885 25.9845 100.639 27.2793 100.569 27.7081H98.9693C98.9693 27.7081 98.2016 26.1581 98.3731 24.9888C98.5447 23.8195 100.438 17.9521 100.438 17.9521L100.927 18.0233Z" fill="#E8461C"/>
<path d="M100.429 17.8203L100.66 17.5463C100.673 17.5304 100.689 17.5176 100.708 17.5087C100.727 17.5036 100.747 17.5036 100.766 17.5087C100.787 17.5085 100.807 17.5151 100.823 17.5275C100.841 17.5382 100.856 17.5533 100.867 17.5714L101.103 17.9438C101.124 17.9766 101.132 18.0161 101.126 18.0546C101.121 18.0933 101.103 18.1289 101.074 18.155L100.743 18.4165C100.727 18.4304 100.708 18.4398 100.687 18.4437C100.668 18.4488 100.647 18.4488 100.628 18.4437C100.609 18.4374 100.591 18.4267 100.576 18.4123C100.561 18.3968 100.548 18.3783 100.54 18.3579L100.404 17.994C100.397 17.9665 100.397 17.9377 100.404 17.9103C100.406 17.8788 100.414 17.8481 100.429 17.8203Z" fill="#C7361A"/>
<path d="M100.385 17.8038L100.607 17.5402C100.62 17.5255 100.636 17.5134 100.653 17.5047C100.671 17.4972 100.69 17.4936 100.71 17.4942C100.729 17.4963 100.748 17.5028 100.764 17.513C100.781 17.5237 100.795 17.538 100.806 17.5549L101.034 17.9146C101.043 17.9308 101.05 17.9485 101.053 17.9669C101.057 17.9855 101.057 18.0048 101.053 18.0234C101.05 18.0424 101.045 18.0608 101.036 18.0778C101.026 18.0929 101.014 18.1064 101 18.1176L100.685 18.3707C100.67 18.3835 100.652 18.3922 100.632 18.3958C100.613 18.3999 100.593 18.3999 100.574 18.3958C100.555 18.3894 100.538 18.3786 100.524 18.3644C100.509 18.3491 100.498 18.3314 100.49 18.3121L100.36 17.9628C100.353 17.936 100.353 17.9079 100.36 17.8812C100.362 17.8536 100.37 17.8268 100.385 17.8038Z" fill="#E8461C"/>
<path d="M95.7837 26.0602C95.7837 26.0602 96.0954 27.6186 96.0891 27.5851C96.0828 27.5517 96.4279 27.3927 96.4279 27.3927C96.3926 26.9557 96.3311 26.5213 96.2439 26.0916C96.137 26.0358 96.023 25.995 95.905 25.9703C95.905 25.9703 96.0933 21.6445 97.2082 21.3203C95.9322 21.6027 95.7837 26.0602 95.7837 26.0602Z" fill="#373684"/>
<path d="M91.9852 27.7082C91.8656 27.1696 91.8178 26.6174 91.8429 26.0662C91.8429 26.0662 94.7421 25.765 96.1792 26.1415C96.1792 26.1415 96.3883 27.2543 96.311 27.7082H91.9852Z" fill="#FAF3ED"/>
<g clip-path="url(#clip0_431_25)">
<path d="M96.3208 27.5455C96.3208 27.5455 96.2514 29.9333 95.3877 29.1757C95.3877 29.1757 94.9506 30.3685 94.4241 29.4463C94.4241 29.4463 93.9183 30.7992 93.4712 29.3922C93.4712 29.3922 92.8853 31.1532 92.2902 29.2298C92.2902 29.2298 90.4034 32.4429 90.2547 27.5455L96.3208 27.5455Z" fill="#CC8A7A"/>
<path d="M95.6185 27.5456C95.6187 28.1492 95.5359 28.731 95.3863 29.1758C95.3863 29.1758 95.688 28.7023 95.6185 27.5456Z" fill="#BC6A4F"/>
<path d="M94.576 27.5455C94.6232 28.8736 94.424 29.4463 94.424 29.4463C94.424 29.4463 94.7256 28.9615 94.576 27.5455Z" fill="#BC6A4F"/>
<path d="M93.7042 27.5449C93.6902 28.2072 93.6096 28.8462 93.4711 29.3916C93.5607 29.1559 93.6285 28.8657 93.669 28.5447C93.7095 28.2237 93.7216 27.8811 93.7042 27.5449Z" fill="#BC6A4F"/>
<path d="M92.0648 28.1652C92.1091 28.562 92.186 28.9259 92.2896 29.2295C92.2201 29.1248 92.1625 28.9703 92.1228 28.7827C92.0832 28.5952 92.0631 28.3817 92.0648 28.1652Z" fill="#BC6A4F"/>
</g>
<g clip-path="url(#clip1_431_25)">
<path d="M112.219 27.5455C112.219 27.5455 112.149 29.9333 111.286 29.1757C111.286 29.1757 110.849 30.3685 110.322 29.4463C110.322 29.4463 109.816 30.7992 109.369 29.3922C109.369 29.3922 108.783 31.1532 108.188 29.2298C108.188 29.2298 106.301 32.4429 106.153 27.5455L112.219 27.5455Z" fill="#CC8A7A"/>
<path d="M111.516 27.5456C111.517 28.1492 111.434 28.731 111.284 29.1758C111.284 29.1758 111.586 28.7023 111.516 27.5456Z" fill="#BC6A4F"/>
<path d="M110.474 27.5455C110.521 28.8736 110.322 29.4463 110.322 29.4463C110.322 29.4463 110.624 28.9615 110.474 27.5455Z" fill="#BC6A4F"/>
<path d="M109.602 27.5449C109.588 28.2072 109.508 28.8462 109.369 29.3916C109.459 29.1559 109.526 28.8657 109.567 28.5447C109.607 28.2237 109.62 27.8811 109.602 27.5449Z" fill="#BC6A4F"/>
<path d="M107.963 28.1652C108.007 28.562 108.084 28.9259 108.188 29.2295C108.118 29.1248 108.06 28.9703 108.021 28.7827C107.981 28.5952 107.961 28.3817 107.963 28.1652Z" fill="#BC6A4F"/>
</g>
<path d="M95.7836 26.0602C94.7377 25.8886 93.2338 25.9577 92.418 26.0162V25.8447C92.418 25.8447 95.0599 25.7694 95.7836 26.0602Z" fill="#373684"/>
<path d="M106.527 25.9998L106.222 27.5247C106.222 27.4913 105.883 27.3323 105.883 27.3323C105.918 26.8946 105.98 26.4595 106.067 26.0291C106.174 25.9733 106.288 25.9325 106.406 25.9078C106.406 25.9078 106.109 21.5841 104.994 21.2578C106.278 21.5423 106.527 25.9998 106.527 25.9998Z" fill="#373684"/>
<path d="M110.332 27.6479C110.453 27.1087 110.501 26.5558 110.476 26.0038C110.476 26.0038 107.577 25.7047 106.14 26.0791C106.14 26.0791 105.931 27.194 106.008 27.6479H110.332Z" fill="#FAF3ED"/>
<path d="M106.527 25.9992C107.573 25.8256 109.075 25.8967 109.89 25.9553V25.7817C109.89 25.7817 107.259 25.7084 106.527 25.9992Z" fill="#373684"/>
<path d="M96.4615 12.5518C96.4599 12.2965 96.518 12.0444 96.6309 11.8155C96.7293 11.6076 96.8863 11.4331 97.0827 11.3135C97.26 11.2077 97.4701 11.1712 97.6726 11.211C97.8836 11.257 98.0729 11.3727 98.2102 11.5394C98.3688 11.726 98.4775 11.9499 98.526 12.1899C98.5825 12.4434 98.5825 12.7062 98.526 12.9597C98.4691 13.1933 98.3548 13.409 98.1934 13.5872C98.0492 13.7456 97.8564 13.8516 97.6454 13.8884C97.6043 13.8916 97.5631 13.8916 97.522 13.8884C97.4515 13.8889 97.3812 13.8805 97.3128 13.8633C97.0575 13.7895 96.8398 13.6212 96.7041 13.3927C96.5471 13.1402 96.4631 12.8491 96.4615 12.5518Z" fill="#CC8A7A"/>
<path d="M100.94 17.0262L100.412 16.9007C99.264 16.5074 97.0928 14.7817 97.0928 12.5519C97.0961 11.4778 97.5242 10.4486 98.2838 9.68904C99.0433 8.92951 100.072 8.50136 101.147 8.49805H102.224C103.298 8.50136 104.327 8.92951 105.087 9.68904C105.846 10.4486 106.274 11.4778 106.278 12.5519C106.602 14.4847 104.431 16.3171 102.406 16.886C102.03 16.9943 101.642 17.054 101.251 17.0638C101.146 17.065 101.041 17.0523 100.94 17.0262Z" fill="#CC8A7A"/>
<path d="M98.5657 12.7886C98.4337 12.7886 98.307 12.7362 98.2137 12.6428C98.1203 12.5495 98.0679 12.4228 98.0679 12.2908C98.0679 12.1588 98.1203 12.0321 98.2137 11.9388C98.307 11.8454 98.4337 11.793 98.5657 11.793C98.6974 11.7935 98.8235 11.8462 98.9164 11.9395C99.0093 12.0328 99.0615 12.1591 99.0615 12.2908C99.0615 12.4225 99.0093 12.5488 98.9164 12.6421C98.8235 12.7354 98.6974 12.7881 98.5657 12.7886Z" fill="#1B1935"/>
<path d="M103.615 12.7886C103.483 12.7881 103.357 12.7354 103.264 12.6421C103.171 12.5488 103.119 12.4225 103.119 12.2908C103.119 12.1591 103.171 12.0328 103.264 11.9395C103.357 11.8462 103.483 11.7935 103.615 11.793C103.747 11.793 103.874 11.8454 103.967 11.9388C104.06 12.0321 104.113 12.1588 104.113 12.2908C104.113 12.4228 104.06 12.5495 103.967 12.6428C103.874 12.7362 103.747 12.7886 103.615 12.7886Z" fill="#1B1935"/>
<path d="M98.8084 11.5767C98.7974 11.5747 98.786 11.5747 98.775 11.5767L97.8546 11.9469C97.8317 11.9562 97.8134 11.9742 97.8036 11.9969C97.7938 12.0196 97.7933 12.0452 97.8023 12.0683C97.812 12.0913 97.8304 12.1097 97.8534 12.1194C97.8764 12.1292 97.9024 12.1296 97.9257 12.1205L98.844 11.7524C98.8671 11.7427 98.8854 11.7243 98.8952 11.7013C98.9049 11.6783 98.9053 11.6523 98.8963 11.629C98.888 11.6129 98.8754 11.5995 98.8599 11.5902C98.8443 11.581 98.8265 11.5763 98.8084 11.5767Z" fill="black"/>
<path d="M103.237 11.5244C103.217 11.5244 103.199 11.5303 103.183 11.5411C103.168 11.5519 103.155 11.5673 103.149 11.5851C103.14 11.6084 103.141 11.6342 103.151 11.657C103.161 11.6797 103.18 11.6975 103.203 11.7064L104.13 12.0557C104.153 12.0646 104.179 12.0638 104.202 12.0536C104.224 12.0434 104.242 12.0246 104.251 12.0013C104.259 11.978 104.258 11.9524 104.248 11.9298C104.238 11.9072 104.22 11.8894 104.197 11.88L103.27 11.5307L103.237 11.5244Z" fill="black"/>
<path d="M101.791 14.2101C101.284 14.2896 100.768 14.2896 100.262 14.2101C99.1113 14.0302 98.5152 14.4653 99.1783 14.7749C99.7665 15.0115 100.393 15.137 101.027 15.1451C101.661 15.1371 102.287 15.0116 102.874 14.7749C103.54 14.4653 102.941 14.0302 101.791 14.2101Z" fill="#E28E74"/>
<path d="M99.457 14.3906C99.7541 14.6207 100.346 14.7776 101.028 14.7776C101.71 14.7776 102.302 14.6207 102.599 14.3906C102.599 14.3906 101.013 14.9826 99.457 14.3906Z" fill="#BC6A4F"/>
<path d="M97.2266 9.25497L97.2454 9.2215C97.3603 9.00267 97.4549 8.7737 97.5278 8.5375C97.6843 8.13392 97.9197 7.76557 98.2201 7.45395C98.8728 6.66118 100.103 6.82643 100.387 7.0356C100.45 7.07953 100.506 7.11928 100.555 7.15693C100.595 7.18599 100.644 7.20072 100.694 7.19883C100.744 7.19694 100.792 7.17853 100.831 7.14647C101.067 6.9624 101.103 6.88291 101.626 6.84944C102.148 6.81598 102.402 7.0126 102.483 7.2176C102.492 7.24315 102.507 7.26626 102.526 7.28511C102.546 7.30395 102.569 7.318 102.595 7.32613C102.621 7.33426 102.648 7.33624 102.675 7.33193C102.702 7.32761 102.727 7.31711 102.749 7.30126C102.995 7.13535 103.276 7.02992 103.571 6.99357C103.865 6.95722 104.164 6.99098 104.443 7.09208C106.313 7.81374 107.022 10.9556 106.681 11.581C106.615 11.7147 106.521 11.8325 106.405 11.9267C106.289 12.0209 106.154 12.0891 106.01 12.127C105.652 12.2085 105.744 9.96617 103.732 9.96617C103.679 9.96451 103.626 9.97749 103.58 10.0037C103.534 10.0299 103.496 10.0683 103.47 10.1147C103.359 10.312 103.209 10.4848 103.03 10.6225C102.85 10.7602 102.644 10.86 102.425 10.9158C101.538 11.1564 100.797 9.66078 100.797 9.66078C100.797 9.66078 100.757 10.5519 99.5421 10.9807C98.9876 11.1725 98.3868 11.185 97.8248 11.0162C97.1722 10.8301 96.8626 9.94526 97.2266 9.25497Z" fill="black"/>
<path d="M105.226 12.5518C105.224 12.2965 105.282 12.0444 105.395 11.8155C105.493 11.6076 105.65 11.4331 105.847 11.3135C106.024 11.2077 106.234 11.1712 106.437 11.211C106.648 11.2566 106.837 11.3723 106.974 11.5394C107.133 11.726 107.242 11.9499 107.29 12.1899C107.348 12.4433 107.348 12.7063 107.29 12.9597C107.234 13.1936 107.12 13.4095 106.958 13.5872C106.813 13.7456 106.621 13.8516 106.41 13.8884C106.369 13.8916 106.329 13.8916 106.288 13.8884C106.218 13.8889 106.147 13.8805 106.079 13.8633C105.824 13.7895 105.606 13.6212 105.47 13.3927C105.313 13.14 105.229 12.8492 105.226 12.5518Z" fill="#CC8A7A"/>
<path d="M106.975 13.0581C107.045 12.8957 107.079 12.7203 107.077 12.5435C107.078 12.3669 107.041 12.1921 106.968 12.031C106.905 11.883 106.804 11.754 106.675 11.6566C106.561 11.5686 106.42 11.5202 106.276 11.5186C106.276 11.5186 107.211 11.826 106.975 13.0581Z" fill="#BC6A4F"/>
<path d="M103.648 14.9273C103.683 14.8475 103.7 14.7612 103.699 14.6742C103.699 14.5862 103.68 14.4992 103.644 14.419C103.613 14.3461 103.563 14.2826 103.5 14.2349C103.443 14.1919 103.374 14.1684 103.303 14.168C103.303 14.168 103.763 14.3186 103.648 14.9273Z" fill="#BC6A4F"/>
<path d="M98.9214 14.167C98.842 14.1992 98.7705 14.2484 98.7123 14.3113C98.6511 14.3707 98.6027 14.4418 98.57 14.5205C98.5408 14.5949 98.5314 14.6756 98.5428 14.7548C98.5518 14.8249 98.5834 14.8903 98.6328 14.9409C98.6328 14.9409 98.4111 14.5059 98.9214 14.167Z" fill="#BC6A4F"/>
<path d="M99.5025 13.6252H102.082C102.338 13.6215 102.594 13.6597 102.839 13.7382C103.048 13.8114 103.153 13.9097 103.153 14.0122H98.4336C98.4336 13.9097 98.5465 13.8031 98.7474 13.7382C98.9913 13.6598 99.2463 13.6217 99.5025 13.6252Z" fill="#6E333C"/>
</g>
<defs>
<clipPath id="clip0_431_25">
<rect width="6.06612" height="2.71929" fill="white" transform="translate(96.3208 30.2646) rotate(-180)"/>
</clipPath>
<clipPath id="clip1_431_25">
<rect width="6.06612" height="2.71929" fill="white" transform="translate(112.219 30.2646) rotate(-180)"/>
</clipPath>
</defs>
</svg>
