<svg width="76" height="36" viewBox="0 0 76 36" fill="none" xmlns="http://www.w3.org/2000/svg">
<rect width="75.6" height="36" fill="#EC8989"/>
<mask id="mask0_431_26" style="mask-type:alpha" maskUnits="userSpaceOnUse" x="43" y="2" width="28" height="28">
<path d="M71 16C71 23.732 64.732 30 57 30C49.268 30 43 23.732 43 16C43 8.26801 49.268 2 57 2C64.732 2 71 8.26801 71 16Z" fill="#EC8989"/>
</mask>
<g mask="url(#mask0_431_26)">
<path d="M45.0746 27.9366C45.0746 27.9366 43.8721 17.3297 51.123 13.333L61.3668 13.5502C61.3668 13.5502 65.7455 15.0479 66.3333 27.6737L56.1722 31.9997L45.0746 27.9366Z" fill="#5154A1"/>
<path d="M61.1901 13.2109C61.1901 13.2109 58.8422 16.1795 55.75 16.0381L56.3552 18.3264C56.3552 18.3264 61.2608 15.3358 61.1901 13.2109Z" fill="#373684"/>
<path d="M61.1903 13.2109C61.1903 13.2109 58.6635 16.0028 55.5713 15.8614L56.1676 18.1475C56.1676 18.1475 60.6293 15.7687 61.1903 13.2109Z" fill="#FAF3ED"/>
<path d="M54.7935 15.6957L54.3186 18.0303C54.3186 18.0303 51.6129 14.9646 51.4473 13.001C51.4451 13.001 53.7709 15.5388 54.7935 15.6957Z" fill="#373684"/>
<path d="M54.6656 15.6647L54.1046 17.9243C54.1046 17.9243 51.6131 14.9623 51.4541 13.001C52.2214 14.2014 53.344 15.1325 54.6656 15.6647Z" fill="#FAF3ED"/>
<path d="M55.5048 16.9176C55.5048 16.9176 56.004 22.6891 56.3221 24.0077C56.6401 25.3263 55.1625 26.6891 55.0741 27.1441H53.1702C53.1702 27.1441 52.258 25.5074 52.4612 24.2727C52.6644 23.0381 54.9217 16.8447 54.9217 16.8447L55.5048 16.9176Z" fill="#C7361A"/>
<path d="M55.4052 16.8817C55.4052 16.8817 55.9044 22.6532 56.2225 23.9718C56.5405 25.2904 55.0607 26.6532 54.9723 27.1082H53.075C53.075 27.1082 52.1606 25.4715 52.366 24.2369C52.5714 23.0022 54.8199 16.8066 54.8199 16.8066L55.4052 16.8817Z" fill="#E8461C"/>
<path d="M54.8158 16.6677L55.0875 16.3784C55.1033 16.3608 55.1229 16.3472 55.1449 16.3386C55.1666 16.3296 55.19 16.3258 55.2134 16.3276C55.2374 16.3295 55.2606 16.3363 55.2819 16.3475C55.3023 16.3587 55.3197 16.3746 55.3327 16.3939L55.6132 16.787C55.626 16.8038 55.6351 16.8231 55.6401 16.8436C55.645 16.8642 55.6456 16.8855 55.6419 16.9063C55.6389 16.9271 55.6317 16.947 55.6207 16.9649C55.6097 16.9827 55.5951 16.9981 55.5778 17.0101L55.1847 17.2884C55.1657 17.302 55.1437 17.3111 55.1206 17.3149C55.0974 17.3204 55.0732 17.3204 55.0499 17.3149C55.0272 17.3083 55.0062 17.297 54.9881 17.2818C54.9699 17.2661 54.9555 17.2465 54.9461 17.2243L54.7849 16.8422C54.7761 16.8127 54.7761 16.7812 54.7849 16.7517C54.7867 16.7213 54.7975 16.6921 54.8158 16.6677Z" fill="#C7361A"/>
<path d="M54.7651 16.6493L55.0279 16.3688C55.0435 16.3526 55.0623 16.3399 55.0831 16.3313C55.1049 16.3258 55.1277 16.3258 55.1494 16.3313C55.1719 16.3316 55.194 16.3377 55.2135 16.349C55.2339 16.3601 55.2513 16.376 55.2643 16.3953L55.5337 16.7752C55.5453 16.7911 55.5536 16.8091 55.558 16.8283C55.5624 16.8479 55.5624 16.8683 55.558 16.8879C55.555 16.9084 55.5474 16.928 55.5359 16.9453C55.5258 16.9625 55.5122 16.9776 55.4962 16.9895L55.1207 17.2568C55.1013 17.2697 55.0795 17.2787 55.0566 17.2833C55.034 17.2877 55.0108 17.2877 54.9882 17.2833C54.9661 17.2767 54.9458 17.2654 54.9285 17.2501C54.911 17.2352 54.8973 17.2163 54.8888 17.1949L54.7342 16.826C54.7253 16.798 54.7253 16.7679 54.7342 16.7399C54.7351 16.7073 54.7458 16.6757 54.7651 16.6493Z" fill="#E8461C"/>
<path d="M52.2644 13.1883C52.0174 13.1883 51.7728 13.1396 51.5446 13.045C51.3164 12.9504 51.1091 12.8117 50.9345 12.6369C50.76 12.4622 50.6216 12.2547 50.5272 12.0264C50.4329 11.7981 50.3845 11.5534 50.3848 11.3064C50.3848 10.8079 50.5828 10.3298 50.9353 9.9773C51.2878 9.6248 51.7659 9.42676 52.2644 9.42676C52.7631 9.42676 53.2415 9.62473 53.5943 9.97716C53.9472 10.3296 54.1457 10.8077 54.1463 11.3064C54.1463 11.8055 53.948 12.2842 53.5951 12.6371C53.2422 12.99 52.7635 13.1883 52.2644 13.1883Z" fill="#F39672"/>
<path d="M59.8028 11.3222C59.8011 10.9679 59.8813 10.6179 60.0369 10.2996C60.1739 10.0122 60.3919 9.77109 60.6642 9.60604C60.9097 9.45941 61.2006 9.40832 61.4814 9.46247C61.7746 9.52533 62.0377 9.68573 62.228 9.91748C62.4489 10.1766 62.6008 10.4873 62.6697 10.8208C62.7442 11.1724 62.7389 11.5362 62.6543 11.8855C62.5786 12.2142 62.4205 12.5182 62.1949 12.769C61.9956 12.9894 61.7279 13.1364 61.435 13.1864C61.3788 13.1952 61.3219 13.1996 61.265 13.1997C61.1696 13.2001 61.0746 13.1883 60.9823 13.1643C60.6287 13.0617 60.3272 12.8288 60.1385 12.5128C59.9168 12.1554 59.8005 11.7428 59.8028 11.3222Z" fill="#F39672"/>
<path d="M56.3645 15.89C53.4335 15.89 51.0635 13.816 51.0635 11.2516C51.0635 8.68729 53.4401 6.61328 56.3645 6.61328C59.2888 6.61328 61.6655 8.68729 61.6655 11.2516C61.6655 13.816 59.2955 15.89 56.3645 15.89Z" fill="#F39672"/>
<path d="M57.7133 10.1982C57.7257 10.2003 57.7384 10.2003 57.7509 10.1982L58.7205 9.80727C58.7447 9.79745 58.764 9.77851 58.7743 9.75454C58.7847 9.73057 58.7852 9.70349 58.7757 9.67916C58.7659 9.65498 58.7469 9.63564 58.723 9.62531C58.699 9.61497 58.6719 9.61448 58.6476 9.62395L57.6757 10.0149C57.6636 10.0195 57.6525 10.0265 57.6432 10.0356C57.6338 10.0446 57.6264 10.0555 57.6215 10.0675C57.6165 10.0795 57.6141 10.0924 57.6143 10.1054C57.6145 10.1184 57.6174 10.1312 57.6227 10.143C57.6309 10.16 57.6438 10.1743 57.6598 10.1841C57.6759 10.1939 57.6945 10.1988 57.7133 10.1982Z" fill="black"/>
<path d="M53.9234 10.1251C53.9435 10.1251 53.9632 10.1189 53.9798 10.1075C53.9963 10.0961 54.009 10.0799 54.0162 10.061C54.0208 10.049 54.0229 10.0362 54.0225 10.0233C54.0221 10.0105 54.0191 9.99781 54.0138 9.98609C54.0084 9.97438 54.0008 9.96385 53.9914 9.9551C53.9819 9.94636 53.9708 9.93957 53.9588 9.93515L52.9803 9.56408C52.9557 9.55474 52.9284 9.55555 52.9043 9.56632C52.8803 9.57708 52.8616 9.59693 52.8522 9.62151C52.8428 9.64612 52.8436 9.67342 52.8544 9.69744C52.8652 9.72145 52.885 9.74022 52.9096 9.74962L53.8881 10.1207C53.8995 10.1243 53.9115 10.1258 53.9234 10.1251Z" fill="black"/>
<path d="M53.1282 11.2005C53.0592 11.2005 52.9908 11.1869 52.9271 11.1605C52.8633 11.1341 52.8053 11.0954 52.7565 11.0466C52.7077 10.9977 52.669 10.9398 52.6426 10.876C52.6161 10.8122 52.6025 10.7439 52.6025 10.6748C52.6031 10.5358 52.6588 10.4027 52.7573 10.3046C52.8558 10.2064 52.9892 10.1514 53.1282 10.1514C53.2673 10.1514 53.4006 10.2064 53.4992 10.3046C53.5977 10.4027 53.6533 10.5358 53.6539 10.6748C53.6539 10.7439 53.6403 10.8122 53.6139 10.876C53.5875 10.9398 53.5488 10.9977 53.5 11.0466C53.4511 11.0954 53.3932 11.1341 53.3294 11.1605C53.2656 11.1869 53.1973 11.2005 53.1282 11.2005Z" fill="#1B1935"/>
<path d="M58.4622 11.2005C58.3228 11.2005 58.1891 11.1451 58.0905 11.0466C57.9919 10.948 57.9365 10.8143 57.9365 10.6748C57.9371 10.5358 57.9927 10.4027 58.0913 10.3046C58.1898 10.2064 58.3232 10.1514 58.4622 10.1514C58.601 10.1514 58.7342 10.2065 58.8323 10.3047C58.9305 10.4029 58.9857 10.536 58.9857 10.6748C58.986 10.7438 58.9727 10.8121 58.9465 10.8758C58.9203 10.9396 58.8818 10.9976 58.8331 11.0464C58.7845 11.0953 58.7267 11.134 58.663 11.1605C58.5994 11.1869 58.5311 11.2005 58.4622 11.2005Z" fill="#1B1935"/>
<path d="M62.2281 12.0333C62.3244 11.8071 62.3732 11.5635 62.3717 11.3177C62.3703 11.0727 62.3184 10.8306 62.2193 10.6065C62.1306 10.4015 61.9906 10.2227 61.8129 10.0874C61.6541 9.9663 61.4605 9.89969 61.2607 9.89746C61.2607 9.89746 62.555 10.3237 62.2281 12.0333Z" fill="#BC6A4F"/>
<path d="M61.2606 9.44945C61.0369 9.45151 60.8182 9.51574 60.6289 9.63498C60.7107 9.5543 60.8112 9.49514 60.9214 9.46277C61.0317 9.43039 61.1482 9.42582 61.2606 9.44945Z" fill="#BC6A4F"/>
<path d="M54.1089 14.8564C54.4203 15.0972 55.041 15.2606 55.7566 15.2606C56.4722 15.2606 57.0818 15.0972 57.4043 14.8564C57.4043 14.8564 55.75 15.4815 54.1089 14.8564Z" fill="#BC6A4F"/>
<path d="M58.8224 6.41895H58.6016V7.4173H58.8224V6.41895Z" fill="#1D1D1B"/>
<path d="M59.6374 6.80371H59.4165V7.80206H59.6374V6.80371Z" fill="#1D1D1B"/>
<path d="M60.4152 7.41699H60.1943V8.41535H60.4152V7.41699Z" fill="#1D1D1B"/>
<path d="M61.0558 8.17676H60.835V9.17511H61.0558V8.17676Z" fill="#1D1D1B"/>
<path d="M58.0734 6.12793H57.8525V7.12628H58.0734V6.12793Z" fill="#1D1D1B"/>
<path d="M57.1369 5.91992H56.916V6.91828H57.1369V5.91992Z" fill="#1D1D1B"/>
<path d="M56.4748 5.91992H56.2539V6.91828H56.4748V5.91992Z" fill="#1D1D1B"/>
<path d="M55.7389 5.91992H55.5181V6.91828H55.7389V5.91992Z" fill="#1D1D1B"/>
<path d="M54.966 6.12793H54.7451V7.12628H54.966V6.12793Z" fill="#1D1D1B"/>
<path d="M54.2609 6.41895H54.04V7.4173H54.2609V6.41895Z" fill="#1D1D1B"/>
<path d="M53.5368 6.80371H53.3159V7.80206H53.5368V6.80371Z" fill="#1D1D1B"/>
<path d="M52.883 7.23828H52.6621V8.23663H52.883V7.23828Z" fill="#1D1D1B"/>
<path d="M57.6958 12.1202C57.5058 11.9307 57.2484 11.8243 56.9801 11.8242H54.5372C54.4043 11.824 54.2727 11.8501 54.1499 11.9008C54.0271 11.9516 53.9155 12.0262 53.8216 12.1202C53.6315 12.3099 53.5243 12.5672 53.5234 12.8358V16.224C53.6576 16.2243 53.7905 16.1981 53.9146 16.147C54.0387 16.0958 54.1514 16.0207 54.2464 15.9259C54.3414 15.8312 54.4168 15.7186 54.4682 15.5946C54.5196 15.4707 54.5461 15.3378 54.5461 15.2036V12.8358H56.9757V15.2036C56.9757 15.4742 57.0832 15.7338 57.2746 15.9252C57.466 16.1165 57.7255 16.224 57.9961 16.224V12.8358C57.9955 12.7026 57.9687 12.5709 57.9172 12.4481C57.8656 12.3253 57.7904 12.2139 57.6958 12.1202Z" fill="#D8690E"/>
<path d="M55.2549 13.2461H55.785C55.8205 13.2463 55.8551 13.2571 55.8844 13.2771C55.9138 13.297 55.9365 13.3252 55.9498 13.3581C55.963 13.391 55.9662 13.4272 55.9589 13.4619C55.9516 13.4966 55.9341 13.5283 55.9087 13.5531L55.5089 13.9418L55.1268 13.5487C55.1026 13.5234 55.0864 13.4917 55.0801 13.4573C55.0738 13.4229 55.0777 13.3874 55.0913 13.3553C55.1049 13.3231 55.1277 13.2956 55.1568 13.2762C55.1858 13.2568 55.22 13.2463 55.2549 13.2461Z" fill="#D8690E"/>
<path d="M49.3008 25.3676C49.3008 25.3676 49.6719 27.0109 49.663 26.9778C49.7896 26.8949 49.9252 26.8267 50.0672 26.7746C50.0248 26.3114 49.951 25.8517 49.8463 25.3985C49.7183 25.3389 49.5832 25.2959 49.4444 25.2704C49.4444 25.2704 49.6652 20.7049 50.9905 20.3604C49.4687 20.6585 49.3008 25.3676 49.3008 25.3676Z" fill="#373684"/>
<path d="M49.3008 25.3688C48.0507 25.1854 46.2704 25.2605 45.3008 25.3224V25.1391C45.3008 25.1391 48.4372 25.0595 49.3008 25.3688Z" fill="#373684"/>
<path d="M62.0605 25.3019C62.0605 25.3019 61.6916 26.9474 61.6983 26.9121C61.5723 26.8296 61.4374 26.7614 61.2963 26.7089C61.3395 26.2458 61.4133 25.7861 61.5171 25.3328C61.6455 25.2746 61.7805 25.2323 61.9191 25.2069C61.9191 25.2069 61.5657 20.6392 60.2427 20.2969C61.7667 20.5995 62.0605 25.3019 62.0605 25.3019Z" fill="#373684"/>
<path d="M62.0605 25.3022C63.3129 25.1211 65.0932 25.194 66.0628 25.2558V25.0747C66.0628 25.0747 62.9308 24.9952 62.0605 25.3022Z" fill="#373684"/>
<g clip-path="url(#clip0_431_26)">
<path d="M49.8877 26.996C49.8877 26.996 49.8144 29.5173 48.9025 28.7174C48.9025 28.7174 48.4408 29.9769 47.8849 29.0031C47.8849 29.0031 47.3509 30.4316 46.8787 28.9459C46.8787 28.9459 46.26 30.8054 45.6317 28.7745C45.6317 28.7745 43.6394 32.1673 43.4823 26.996L49.8877 26.996Z" fill="#F39672"/>
<path d="M49.1458 26.9954C49.146 27.6328 49.0585 28.2471 48.9006 28.7168C48.9006 28.7168 49.2191 28.2168 49.1458 26.9954Z" fill="#BC6A4F"/>
<path d="M48.0454 26.9958C48.0951 28.3982 47.8848 29.0029 47.8848 29.0029C47.8848 29.0029 48.2034 28.491 48.0454 26.9958Z" fill="#BC6A4F"/>
<path d="M47.1247 26.9954C47.1099 27.6947 47.0247 28.3694 46.8786 28.9453C46.9731 28.6964 47.0447 28.39 47.0875 28.051C47.1303 27.7121 47.143 27.3503 47.1247 26.9954Z" fill="#BC6A4F"/>
<path d="M45.3935 27.6506C45.4403 28.0695 45.5215 28.4539 45.6309 28.7744C45.5575 28.6639 45.4967 28.5007 45.4548 28.3027C45.413 28.1046 45.3918 27.8792 45.3935 27.6506Z" fill="#BC6A4F"/>
</g>
<g clip-path="url(#clip1_431_26)">
<path d="M68 26.996C68 26.996 67.9267 29.5173 67.0148 28.7174C67.0148 28.7174 66.5531 29.9769 65.9972 29.0031C65.9972 29.0031 65.4632 30.4316 64.9911 28.9459C64.9911 28.9459 64.3723 30.8054 63.744 28.7745C63.744 28.7745 61.7517 32.1673 61.5946 26.996L68 26.996Z" fill="#F39672"/>
<path d="M67.2581 26.9954C67.2583 27.6328 67.1708 28.2471 67.0129 28.7168C67.0129 28.7168 67.3314 28.2168 67.2581 26.9954Z" fill="#BC6A4F"/>
<path d="M66.1577 26.9958C66.2074 28.3982 65.9971 29.0029 65.9971 29.0029C65.9971 29.0029 66.3157 28.491 66.1577 26.9958Z" fill="#BC6A4F"/>
<path d="M65.237 26.9954C65.2222 27.6947 65.1371 28.3694 64.9909 28.9453C65.0854 28.6964 65.157 28.39 65.1998 28.051C65.2426 27.7121 65.2553 27.3503 65.237 26.9954Z" fill="#BC6A4F"/>
<path d="M63.5058 27.6506C63.5526 28.0695 63.6338 28.4539 63.7432 28.7744C63.6698 28.6639 63.609 28.5007 63.5671 28.3027C63.5253 28.1046 63.5041 27.8792 63.5058 27.6506Z" fill="#BC6A4F"/>
</g>
<path d="M44.7771 27.1085C44.7771 27.1085 44.5164 26.0748 44.607 25.3724C44.607 25.3724 48.0526 25.0543 49.7622 25.4519C49.7622 25.4519 50.0096 26.627 49.919 27.1085H44.7771Z" fill="#FAF3ED"/>
<path d="M66.5862 27.0428C66.5862 27.0428 66.8468 26.0113 66.7563 25.3089C66.7563 25.3089 63.3106 24.9909 61.6011 25.3884C61.6011 25.3884 61.3537 26.5635 61.4442 27.0428H66.5862Z" fill="#FAF3ED"/>
</g>
<defs>
<clipPath id="clip0_431_26">
<rect width="6.40537" height="2.87137" fill="white" transform="translate(49.8877 29.8672) rotate(-180)"/>
</clipPath>
<clipPath id="clip1_431_26">
<rect width="6.40537" height="2.87137" fill="white" transform="translate(68 29.8672) rotate(-180)"/>
</clipPath>
</defs>
</svg>
