<svg width="254" height="141" viewBox="0 0 254 141" fill="none" xmlns="http://www.w3.org/2000/svg">
<path d="M78.465 127.809L53.918 115.324C49.4309 112.508 44.3062 110.87 39.018 110.56C27.958 109.818 12.365 104.999 7.93199 88.268C3.49899 71.537 -0.56801 57.421 1.09899 28.797C4.97699 8.407 27.88 6.185 34.899 5.662C41.918 5.139 128.652 -0.491996 183.938 0.653004C183.938 0.653004 217.751 1.181 223.013 24.711C228.275 48.241 230.155 76.264 223.632 92.645C217.109 109.026 205.546 108.555 188.5 110.045C171.454 111.535 94.852 111.535 94.852 111.535C94.852 111.535 89.623 110.713 89.934 114.535C90.245 118.357 92.01 125.48 88.065 128.712C84.739 131.353 78.465 127.809 78.465 127.809Z" fill="white"/>
<path d="M65.033 25.015L68.619 75.815C68.6596 76.0316 68.6509 76.2545 68.5934 76.4673C68.536 76.68 68.4313 76.877 68.2871 77.0437C68.1429 77.2103 67.963 77.3423 67.7608 77.4298C67.5585 77.5173 67.3392 77.558 67.119 77.549L58.719 78.142C57.332 78.242 56.686 77.897 56.619 76.896C56.183 70.73 53.602 58.284 52.83 58.338C51.982 58.398 48.271 71.676 47.27 71.747L42.798 72.062C41.798 72.133 36.098 59.519 35.331 59.574C34.564 59.629 33.751 72.313 34.187 78.48C34.257 79.48 34.209 79.872 33.287 79.937L23.652 80.617C22.726 80.683 22.233 80.254 22.152 79.096L18.705 30.452C18.586 28.757 26.924 26.152 28.85 26.017C29.619 25.963 29.93 25.941 30.559 27.217C30.738 27.517 42.526 50.774 43.53 50.703C44.453 50.638 52.765 26.81 53.207 25.385C53.2829 25.0215 53.4896 24.6986 53.7879 24.4774C54.0861 24.2562 54.4551 24.1522 54.825 24.185L62.765 23.624C63.612 23.564 64.924 23.471 65.033 25.015Z" fill="#4F00EC"/>
<path d="M111.152 48.576C112.681 70.236 107.963 78.006 94.936 78.925C80.905 79.916 74.747 71.674 73.3 51.172C71.967 32.287 77.114 24.023 89.526 23.147C102.785 22.211 109.9 30.848 111.152 48.576ZM93.717 66.076C98.496 65.739 99.264 63.439 98.203 48.407C97.512 38.619 96.303 34.677 90.984 35.053C85.584 35.433 85.411 39.473 86.091 49.108C87.125 63.752 88.4 66.45 93.717 66.074V66.076Z" fill="#4F00EC"/>
<path d="M116.172 49.017L114.208 21.19C114.05 18.953 117.596 18.702 119.755 18.55C122.608 18.35 126.343 18.627 126.446 20.093L128.459 48.613C129.031 56.706 132.065 57.965 135.304 57.736C138.543 57.507 141.828 55.803 141.257 47.71L139.257 19.343C139.142 17.724 140.877 17.059 144.885 16.776C147.43 16.597 151.359 16.319 151.457 17.706L153.523 47C154.954 67.273 147.537 70.818 136.512 71.6C125.487 72.382 117.538 68.364 116.172 49.017Z" fill="#4F00EC"/>
<path d="M166.674 72.855L155.96 73.612C154.802 73.693 154.176 73.583 154.56 72.471L170.468 22.391C171.126 20.717 177.896 17.836 180.977 17.618C181.825 17.558 182.377 17.674 182.556 18.049L204.3 69.193C204.4 69.493 204.063 70.216 202.751 70.309L192.424 71.038C191.955 71.0837 191.481 71.01 191.048 70.8238C190.614 70.6376 190.235 70.345 189.945 69.973C189.583 69.223 186.987 59.879 185.902 59.879L172.365 60.138C170.276 60.207 168.495 70.094 168.065 71.672C168.013 72.003 167.844 72.3044 167.589 72.5215C167.334 72.7386 167.009 72.8569 166.674 72.855ZM175.592 46.661C175.128 47.778 175.309 48.153 176.692 48.056L181.472 47.718C181.936 47.685 182.684 47.324 182.119 45.891L180.3 40.907C179.911 39.774 179.635 39.172 179.328 39.194C179.021 39.216 178.678 39.861 178.141 41.059L175.592 46.661Z" fill="#4F00EC"/>
<path d="M203.519 139.8L219.235 134.749C223.102 133.757 227.1 133.381 231.084 133.634C238.084 133.992 245.674 131.034 248.735 123.646C251.796 116.258 254.735 111.322 252.501 96.864C250.362 87.659 237.382 86.495 232.952 86.109C228.522 85.723 173.757 81.318 138.777 80.628C138.777 80.628 117.938 78.673 114.249 89.084C110.56 99.495 108.387 113.445 112.26 120.914C116.133 128.383 123.453 128.424 134.21 129.461C144.967 130.498 193.41 132.161 193.41 132.161C193.41 132.161 196.729 131.907 196.474 133.609C196.219 135.311 194.993 138.46 197.437 139.991C199.5 141.243 203.519 139.8 203.519 139.8Z" fill="#0AF2E1"/>
<path d="M123.886 105.759C123.77 105.759 123.711 105.781 123.703 105.959L123.335 114.079C123.318 114.456 123.057 114.444 122.854 114.435L119.084 114.264C118.884 114.255 118.592 114.212 118.608 113.864C119.058 108.421 119.193 105.434 119.293 103.23C119.411 100.621 119.527 98.068 119.442 95.45C119.431 95.071 121.542 94.033 123.942 94.142C129.018 94.372 131.575 96.29 131.419 99.742C131.258 103.391 128.149 105.952 123.886 105.759ZM127.086 99.308C127.142 98.061 125.523 97.871 124.856 97.841C124.161 97.809 124.068 97.921 124.048 98.357L123.905 101.517C123.898 101.663 123.922 101.78 124.184 101.791C125.111 101.834 127.024 100.641 127.085 99.308H127.086Z" fill="white"/>
<path d="M145.062 115.059C145.045 115.436 144.639 115.417 144.435 115.408L140.144 115.214C140.05 115.213 139.958 115.186 139.879 115.136C139.799 115.086 139.734 115.016 139.692 114.932L138.122 111.083C137.913 110.583 137.752 110.31 137.635 110.305C137.49 110.298 137.42 110.557 137.398 111.05L137.232 114.704C137.215 115.081 136.838 115.064 136.632 115.055L132.978 114.889C132.778 114.88 132.486 114.867 132.503 114.489C132.565 113.125 132.946 109.83 133.134 105.684C133.321 101.566 133.406 95.845 133.415 95.642C133.448 94.917 135.957 94.682 138.161 94.782C141.815 94.947 144.331 97.125 144.181 100.43C144.185 101.587 143.753 102.702 142.971 103.555C142.19 104.407 141.116 104.934 139.963 105.03C139.703 105.018 139.727 105.107 139.971 105.495C140.569 106.487 145.1 114.217 145.062 115.059ZM137.671 101.183C137.663 101.357 137.748 101.418 138.009 101.43C138.609 101.423 139.187 101.197 139.633 100.795C140.079 100.392 140.363 99.8415 140.432 99.245C140.472 98.375 139.763 97.994 138.457 97.935C137.907 97.91 137.817 97.964 137.796 98.427L137.671 101.183Z" fill="white"/>
<path d="M155.764 111.185C156.982 111.24 158.432 111.305 158.338 112.115L158.02 114.629C157.884 115.698 157.667 116.008 157.12 115.983L146.913 115.52C146.507 115.502 146.526 115.067 146.541 114.747L147.369 96.479C147.399 95.811 150.414 95.338 151.603 95.392C154.019 95.4818 156.425 95.7461 158.803 96.183C158.975 96.22 159.465 96.33 159.412 97.489L159.281 100.389C159.28 100.44 159.269 100.489 159.248 100.536C159.228 100.582 159.197 100.623 159.16 100.657C159.122 100.69 159.078 100.716 159.03 100.732C158.982 100.748 158.931 100.754 158.881 100.749L152.502 100.46C152.327 100.452 152.289 100.683 152.281 100.86L152.181 103.122L154.211 103.214C154.617 103.233 154.897 103.478 154.881 103.827L154.759 106.527C154.746 106.816 154.622 106.956 154.419 106.947L151.926 106.834C151.81 106.834 151.775 106.944 151.77 107.06L151.61 110.597C151.596 110.888 151.736 111.01 152.055 111.024L155.764 111.185ZM153.114 94.007C153.217 93.0974 153.484 92.2139 153.901 91.399C154.311 91.2447 154.75 91.1849 155.186 91.224C155.592 91.243 155.908 91.345 155.9 91.524C155.881 91.959 153.943 94.311 153.276 94.281C153.16 94.271 153.105 94.211 153.114 94.007Z" fill="white"/>
<path d="M160.1 114.462L160.21 112C160.256 110.985 160.467 110.821 160.91 110.753C162.518 110.536 167.871 111.679 167.988 109.098C168.122 106.141 161.001 107.474 161.258 101.791C161.458 97.325 165.907 96.044 169.908 96.225C170.782 96.2565 171.652 96.3642 172.508 96.547C173.486 96.766 173.708 96.92 173.667 97.878L173.587 99.646C173.552 100.429 173.535 100.807 172.414 100.553C171.637 100.366 170.844 100.252 170.046 100.212C167.958 100.118 166.997 100.801 166.946 102.019C166.799 105.267 173.346 103.819 173.037 110.606C172.811 115.594 169.283 116.506 165.629 116.343C164.097 116.244 162.572 116.049 161.064 115.758C160.25 115.6 160.055 115.418 160.1 114.462Z" fill="white"/>
<path d="M175.343 116.809C174.82 116.785 174.704 116.78 174.717 116.489L175.567 97.727C175.598 97.061 178.814 96.627 181.395 96.742C181.771 96.759 181.888 96.764 181.861 97.373L180.981 116.773C180.968 117.064 180.794 117.056 180.181 117.028L175.343 116.809Z" fill="white"/>
<path d="M190.948 117.516C184.076 117.205 183.873 117.195 183.903 116.528C183.948 116.181 184.32 113.089 184.555 107.898C184.804 102.418 184.729 98.288 184.737 98.114C184.761 97.592 187.114 96.973 189.405 97.077C194.045 97.287 198.46 102.456 198.237 107.386C197.967 113.33 194.835 117.692 190.948 117.516ZM192.61 107.131C192.72 104.694 191.563 102.666 189.968 102.594C189.834 102.57 189.696 102.576 189.564 102.613C189.433 102.65 189.312 102.716 189.21 102.806C189.108 102.897 189.028 103.01 188.976 103.136C188.924 103.262 188.901 103.398 188.909 103.534L188.549 111.479C188.531 111.885 188.812 112.072 189.393 112.098C191.277 112.184 192.467 110.291 192.61 107.131Z" fill="white"/>
<path d="M208.194 113.561C209.412 113.616 210.862 113.682 210.767 114.491L210.45 117.005C210.314 118.074 210.096 118.384 209.55 118.359L199.343 117.896C198.936 117.878 198.956 117.443 198.971 117.123L199.799 98.855C199.829 98.188 202.843 97.714 204.032 97.768C206.448 97.8579 208.854 98.1222 211.232 98.559C211.404 98.596 211.894 98.706 211.841 99.865L211.71 102.765C211.709 102.816 211.698 102.865 211.677 102.911C211.656 102.957 211.626 102.999 211.589 103.033C211.551 103.066 211.507 103.092 211.459 103.108C211.411 103.124 211.36 103.13 211.31 103.126L204.931 102.837C204.756 102.829 204.717 103.059 204.709 103.237L204.609 105.499L206.638 105.591C207.045 105.61 207.324 105.855 207.309 106.204L207.186 108.904C207.173 109.194 207.05 109.333 206.847 109.324L204.353 109.211C204.238 109.211 204.203 109.322 204.198 109.437L204.037 112.974C204.024 113.265 204.164 113.387 204.483 113.401L208.194 113.561Z" fill="white"/>
<path d="M227.612 99.477L226.745 118.586C226.724 119.05 226.605 119.132 226.257 119.116L223.241 118.98C222.893 118.964 222.807 118.93 222.483 118.393C222.374 118.214 217.729 111.087 217.583 111.081C217.468 111.075 217.233 116.267 217.148 118.123C217.126 118.615 216.977 118.696 216.688 118.683L213.207 118.525C212.888 118.51 212.75 118.359 212.76 118.125L213.598 99.652C213.616 99.246 215.838 98.301 216.592 98.335C216.68 98.3325 216.768 98.3516 216.847 98.3906C216.927 98.4296 216.995 98.4875 217.047 98.559C217.127 98.738 222.247 108.759 222.425 108.77C222.57 108.777 223.099 102.234 223.233 99.276C223.255 98.783 223.465 98.647 223.841 98.664L227.119 98.812C227.553 98.834 227.631 99.041 227.612 99.477Z" fill="white"/>
<path d="M246.469 99.691C247.049 99.717 247.431 100.258 247.398 100.983L247.276 103.683C247.221 104.9 247.006 105.152 245.992 105.106L241.061 104.883C240.713 104.867 240.68 104.983 240.668 105.243C240.442 110.232 240.445 114.618 240.468 119.356C240.48 119.764 240.218 119.756 239.868 119.736L235.141 119.522C234.793 119.506 234.533 119.465 234.58 119.089C235.055 114.374 235.427 110.004 235.653 105.016C235.664 104.783 235.642 104.637 235.236 104.616L230.19 104.387C229.175 104.341 229.167 103.876 229.217 102.774L229.338 100.106C229.374 99.323 229.711 98.932 230.32 98.959L246.469 99.691Z" fill="white"/>
</svg>
