<svg width="65" height="36" viewBox="0 0 65 36" fill="none" xmlns="http://www.w3.org/2000/svg">
<rect width="64.8" height="36" fill="#EC8989"/>
<mask id="mask0_426_4" style="mask-type:alpha" maskUnits="userSpaceOnUse" x="33" y="2" width="28" height="28">
<path d="M61 16C61 23.732 54.732 30 47 30C39.268 30 33 23.732 33 16C33 8.26801 39.268 2 47 2C54.732 2 61 8.26801 61 16Z" fill="#EC8989"/>
</mask>
<g mask="url(#mask0_426_4)">
<path d="M35.0746 27.9366C35.0746 27.9366 33.8721 17.3297 41.123 13.333L51.3668 13.5502C51.3668 13.5502 55.7455 15.0479 56.3333 27.6737L46.1722 31.9997L35.0746 27.9366Z" fill="#5154A1"/>
<path d="M51.1901 13.2109C51.1901 13.2109 48.8422 16.1795 45.75 16.0381L46.3552 18.3264C46.3552 18.3264 51.2608 15.3358 51.1901 13.2109Z" fill="#373684"/>
<path d="M51.1903 13.2109C51.1903 13.2109 48.6635 16.0028 45.5713 15.8614L46.1676 18.1475C46.1676 18.1475 50.6293 15.7687 51.1903 13.2109Z" fill="#FAF3ED"/>
<path d="M44.7935 15.6957L44.3186 18.0303C44.3186 18.0303 41.6129 14.9646 41.4473 13.001C41.4451 13.001 43.7709 15.5388 44.7935 15.6957Z" fill="#373684"/>
<path d="M44.6656 15.6647L44.1046 17.9243C44.1046 17.9243 41.6131 14.9623 41.4541 13.001C42.2214 14.2014 43.344 15.1325 44.6656 15.6647Z" fill="#FAF3ED"/>
<path d="M45.5048 16.9176C45.5048 16.9176 46.004 22.6891 46.3221 24.0077C46.6401 25.3263 45.1625 26.6891 45.0741 27.1441H43.1702C43.1702 27.1441 42.258 25.5074 42.4612 24.2727C42.6644 23.0381 44.9217 16.8447 44.9217 16.8447L45.5048 16.9176Z" fill="#C7361A"/>
<path d="M45.4052 16.8817C45.4052 16.8817 45.9044 22.6532 46.2225 23.9718C46.5405 25.2904 45.0607 26.6532 44.9723 27.1082H43.075C43.075 27.1082 42.1606 25.4715 42.366 24.2369C42.5714 23.0022 44.8199 16.8066 44.8199 16.8066L45.4052 16.8817Z" fill="#E8461C"/>
<path d="M44.8158 16.6677L45.0875 16.3784C45.1033 16.3608 45.1229 16.3472 45.1449 16.3386C45.1666 16.3296 45.19 16.3258 45.2134 16.3276C45.2374 16.3295 45.2606 16.3363 45.2819 16.3475C45.3023 16.3587 45.3197 16.3746 45.3327 16.3939L45.6132 16.787C45.626 16.8038 45.6351 16.8231 45.6401 16.8436C45.645 16.8642 45.6456 16.8855 45.6419 16.9063C45.6389 16.9271 45.6317 16.947 45.6207 16.9649C45.6097 16.9827 45.5951 16.9981 45.5778 17.0101L45.1847 17.2884C45.1657 17.302 45.1437 17.3111 45.1206 17.3149C45.0974 17.3204 45.0732 17.3204 45.0499 17.3149C45.0272 17.3083 45.0062 17.297 44.9881 17.2818C44.9699 17.2661 44.9555 17.2465 44.9461 17.2243L44.7849 16.8422C44.7761 16.8127 44.7761 16.7812 44.7849 16.7517C44.7867 16.7213 44.7975 16.6921 44.8158 16.6677Z" fill="#C7361A"/>
<path d="M44.7651 16.6493L45.0279 16.3688C45.0435 16.3526 45.0623 16.3399 45.0831 16.3313C45.1049 16.3258 45.1277 16.3258 45.1494 16.3313C45.1719 16.3316 45.194 16.3377 45.2135 16.349C45.2339 16.3601 45.2513 16.376 45.2643 16.3953L45.5337 16.7752C45.5453 16.7911 45.5536 16.8091 45.558 16.8283C45.5624 16.8479 45.5624 16.8683 45.558 16.8879C45.555 16.9084 45.5474 16.928 45.5359 16.9453C45.5258 16.9625 45.5122 16.9776 45.4962 16.9895L45.1207 17.2568C45.1013 17.2697 45.0795 17.2787 45.0566 17.2833C45.034 17.2877 45.0108 17.2877 44.9882 17.2833C44.9661 17.2767 44.9458 17.2654 44.9285 17.2501C44.911 17.2352 44.8973 17.2163 44.8888 17.1949L44.7342 16.826C44.7253 16.798 44.7253 16.7679 44.7342 16.7399C44.7351 16.7073 44.7458 16.6757 44.7651 16.6493Z" fill="#E8461C"/>
<path d="M42.2644 13.1883C42.0174 13.1883 41.7728 13.1396 41.5446 13.045C41.3164 12.9504 41.1091 12.8117 40.9345 12.6369C40.76 12.4622 40.6216 12.2547 40.5272 12.0264C40.4329 11.7981 40.3845 11.5534 40.3848 11.3064C40.3848 10.8079 40.5828 10.3298 40.9353 9.9773C41.2878 9.6248 41.7659 9.42676 42.2644 9.42676C42.7631 9.42676 43.2415 9.62473 43.5943 9.97716C43.9472 10.3296 44.1457 10.8077 44.1463 11.3064C44.1463 11.8055 43.948 12.2842 43.5951 12.6371C43.2422 12.99 42.7635 13.1883 42.2644 13.1883Z" fill="#F39672"/>
<path d="M49.8028 11.3222C49.8011 10.9679 49.8813 10.6179 50.0369 10.2996C50.1739 10.0122 50.3919 9.77109 50.6642 9.60604C50.9097 9.45941 51.2006 9.40832 51.4814 9.46247C51.7746 9.52533 52.0377 9.68573 52.228 9.91748C52.4489 10.1766 52.6008 10.4873 52.6697 10.8208C52.7442 11.1724 52.7389 11.5362 52.6543 11.8855C52.5786 12.2142 52.4205 12.5182 52.1949 12.769C51.9956 12.9894 51.7279 13.1364 51.435 13.1864C51.3788 13.1952 51.3219 13.1996 51.265 13.1997C51.1696 13.2001 51.0746 13.1883 50.9823 13.1643C50.6287 13.0617 50.3272 12.8288 50.1385 12.5128C49.9168 12.1554 49.8005 11.7428 49.8028 11.3222Z" fill="#F39672"/>
<path d="M46.3645 15.89C43.4335 15.89 41.0635 13.816 41.0635 11.2516C41.0635 8.68729 43.4401 6.61328 46.3645 6.61328C49.2888 6.61328 51.6655 8.68729 51.6655 11.2516C51.6655 13.816 49.2955 15.89 46.3645 15.89Z" fill="#F39672"/>
<path d="M47.7133 10.1982C47.7257 10.2003 47.7384 10.2003 47.7509 10.1982L48.7205 9.80727C48.7447 9.79745 48.764 9.77851 48.7743 9.75454C48.7847 9.73057 48.7852 9.70349 48.7757 9.67916C48.7659 9.65498 48.7469 9.63564 48.723 9.62531C48.699 9.61497 48.6719 9.61448 48.6476 9.62395L47.6757 10.0149C47.6636 10.0195 47.6525 10.0265 47.6432 10.0356C47.6338 10.0446 47.6264 10.0555 47.6215 10.0675C47.6165 10.0795 47.6141 10.0924 47.6143 10.1054C47.6145 10.1184 47.6174 10.1312 47.6227 10.143C47.6309 10.16 47.6438 10.1743 47.6598 10.1841C47.6759 10.1939 47.6945 10.1988 47.7133 10.1982Z" fill="black"/>
<path d="M43.9234 10.1251C43.9435 10.1251 43.9632 10.1189 43.9798 10.1075C43.9963 10.0961 44.009 10.0799 44.0162 10.061C44.0208 10.049 44.0229 10.0362 44.0225 10.0233C44.0221 10.0105 44.0191 9.99781 44.0138 9.98609C44.0084 9.97438 44.0008 9.96385 43.9914 9.9551C43.9819 9.94636 43.9708 9.93957 43.9588 9.93515L42.9803 9.56408C42.9557 9.55474 42.9284 9.55555 42.9043 9.56632C42.8803 9.57708 42.8616 9.59693 42.8522 9.62151C42.8428 9.64612 42.8436 9.67342 42.8544 9.69744C42.8652 9.72145 42.885 9.74022 42.9096 9.74962L43.8881 10.1207C43.8995 10.1243 43.9115 10.1258 43.9234 10.1251Z" fill="black"/>
<path d="M43.1282 11.2005C43.0592 11.2005 42.9908 11.1869 42.9271 11.1605C42.8633 11.1341 42.8053 11.0954 42.7565 11.0466C42.7077 10.9977 42.669 10.9398 42.6426 10.876C42.6161 10.8122 42.6025 10.7439 42.6025 10.6748C42.6031 10.5358 42.6588 10.4027 42.7573 10.3046C42.8558 10.2064 42.9892 10.1514 43.1282 10.1514C43.2673 10.1514 43.4006 10.2064 43.4992 10.3046C43.5977 10.4027 43.6533 10.5358 43.6539 10.6748C43.6539 10.7439 43.6403 10.8122 43.6139 10.876C43.5875 10.9398 43.5488 10.9977 43.5 11.0466C43.4511 11.0954 43.3932 11.1341 43.3294 11.1605C43.2656 11.1869 43.1973 11.2005 43.1282 11.2005Z" fill="#1B1935"/>
<path d="M48.4622 11.2005C48.3228 11.2005 48.1891 11.1451 48.0905 11.0466C47.9919 10.948 47.9365 10.8143 47.9365 10.6748C47.9371 10.5358 47.9927 10.4027 48.0913 10.3046C48.1898 10.2064 48.3232 10.1514 48.4622 10.1514C48.601 10.1514 48.7342 10.2065 48.8323 10.3047C48.9305 10.4029 48.9857 10.536 48.9857 10.6748C48.986 10.7438 48.9727 10.8121 48.9465 10.8758C48.9203 10.9396 48.8818 10.9976 48.8331 11.0464C48.7845 11.0953 48.7267 11.134 48.663 11.1605C48.5994 11.1869 48.5311 11.2005 48.4622 11.2005Z" fill="#1B1935"/>
<path d="M52.2281 12.0333C52.3244 11.8071 52.3732 11.5635 52.3717 11.3177C52.3703 11.0727 52.3184 10.8306 52.2193 10.6065C52.1306 10.4015 51.9906 10.2227 51.8129 10.0874C51.6541 9.9663 51.4605 9.89969 51.2607 9.89746C51.2607 9.89746 52.555 10.3237 52.2281 12.0333Z" fill="#BC6A4F"/>
<path d="M51.2606 9.44945C51.0369 9.45151 50.8182 9.51574 50.6289 9.63498C50.7107 9.5543 50.8112 9.49514 50.9214 9.46277C51.0317 9.43039 51.1482 9.42582 51.2606 9.44945Z" fill="#BC6A4F"/>
<path d="M44.1089 14.8564C44.4203 15.0972 45.041 15.2606 45.7566 15.2606C46.4722 15.2606 47.0818 15.0972 47.4043 14.8564C47.4043 14.8564 45.75 15.4815 44.1089 14.8564Z" fill="#BC6A4F"/>
<path d="M48.8224 6.41895H48.6016V7.4173H48.8224V6.41895Z" fill="#1D1D1B"/>
<path d="M49.6374 6.80371H49.4165V7.80206H49.6374V6.80371Z" fill="#1D1D1B"/>
<path d="M50.4152 7.41699H50.1943V8.41535H50.4152V7.41699Z" fill="#1D1D1B"/>
<path d="M51.0558 8.17676H50.835V9.17511H51.0558V8.17676Z" fill="#1D1D1B"/>
<path d="M48.0734 6.12793H47.8525V7.12628H48.0734V6.12793Z" fill="#1D1D1B"/>
<path d="M47.1369 5.91992H46.916V6.91828H47.1369V5.91992Z" fill="#1D1D1B"/>
<path d="M46.4748 5.91992H46.2539V6.91828H46.4748V5.91992Z" fill="#1D1D1B"/>
<path d="M45.7389 5.91992H45.5181V6.91828H45.7389V5.91992Z" fill="#1D1D1B"/>
<path d="M44.966 6.12793H44.7451V7.12628H44.966V6.12793Z" fill="#1D1D1B"/>
<path d="M44.2609 6.41895H44.04V7.4173H44.2609V6.41895Z" fill="#1D1D1B"/>
<path d="M43.5368 6.80371H43.3159V7.80206H43.5368V6.80371Z" fill="#1D1D1B"/>
<path d="M42.883 7.23828H42.6621V8.23663H42.883V7.23828Z" fill="#1D1D1B"/>
<path d="M47.6958 12.1202C47.5058 11.9307 47.2484 11.8243 46.9801 11.8242H44.5372C44.4043 11.824 44.2727 11.8501 44.1499 11.9008C44.0271 11.9516 43.9155 12.0262 43.8216 12.1202C43.6315 12.3099 43.5243 12.5672 43.5234 12.8358V16.224C43.6576 16.2243 43.7905 16.1981 43.9146 16.147C44.0387 16.0958 44.1514 16.0207 44.2464 15.9259C44.3414 15.8312 44.4168 15.7186 44.4682 15.5946C44.5196 15.4707 44.5461 15.3378 44.5461 15.2036V12.8358H46.9757V15.2036C46.9757 15.4742 47.0832 15.7338 47.2746 15.9252C47.466 16.1165 47.7255 16.224 47.9961 16.224V12.8358C47.9955 12.7026 47.9687 12.5709 47.9172 12.4481C47.8656 12.3253 47.7904 12.2139 47.6958 12.1202Z" fill="#D8690E"/>
<path d="M45.2549 13.2461H45.785C45.8205 13.2463 45.8551 13.2571 45.8844 13.2771C45.9138 13.297 45.9365 13.3252 45.9498 13.3581C45.963 13.391 45.9662 13.4272 45.9589 13.4619C45.9516 13.4966 45.9341 13.5283 45.9087 13.5531L45.5089 13.9418L45.1268 13.5487C45.1026 13.5234 45.0864 13.4917 45.0801 13.4573C45.0738 13.4229 45.0777 13.3874 45.0913 13.3553C45.1049 13.3231 45.1277 13.2956 45.1568 13.2762C45.1858 13.2568 45.22 13.2463 45.2549 13.2461Z" fill="#D8690E"/>
<path d="M39.3008 25.3676C39.3008 25.3676 39.6719 27.0109 39.663 26.9778C39.7896 26.8949 39.9252 26.8267 40.0672 26.7746C40.0248 26.3114 39.951 25.8517 39.8463 25.3985C39.7183 25.3389 39.5832 25.2959 39.4444 25.2704C39.4444 25.2704 39.6652 20.7049 40.9905 20.3604C39.4687 20.6585 39.3008 25.3676 39.3008 25.3676Z" fill="#373684"/>
<path d="M39.3008 25.3688C38.0507 25.1854 36.2704 25.2605 35.3008 25.3224V25.1391C35.3008 25.1391 38.4372 25.0595 39.3008 25.3688Z" fill="#373684"/>
<path d="M52.0605 25.3019C52.0605 25.3019 51.6916 26.9474 51.6983 26.9121C51.5723 26.8296 51.4374 26.7614 51.2963 26.7089C51.3395 26.2458 51.4133 25.7861 51.5171 25.3328C51.6455 25.2746 51.7805 25.2323 51.9191 25.2069C51.9191 25.2069 51.5657 20.6392 50.2427 20.2969C51.7667 20.5995 52.0605 25.3019 52.0605 25.3019Z" fill="#373684"/>
<path d="M52.0605 25.3022C53.3129 25.1211 55.0932 25.194 56.0628 25.2558V25.0747C56.0628 25.0747 52.9308 24.9952 52.0605 25.3022Z" fill="#373684"/>
<g clip-path="url(#clip0_426_4)">
<path d="M39.8877 26.996C39.8877 26.996 39.8144 29.5173 38.9025 28.7174C38.9025 28.7174 38.4408 29.9769 37.8849 29.0031C37.8849 29.0031 37.3509 30.4316 36.8787 28.9459C36.8787 28.9459 36.26 30.8054 35.6317 28.7745C35.6317 28.7745 33.6394 32.1673 33.4823 26.996L39.8877 26.996Z" fill="#F39672"/>
<path d="M39.1458 26.9954C39.146 27.6328 39.0585 28.2471 38.9006 28.7168C38.9006 28.7168 39.2191 28.2168 39.1458 26.9954Z" fill="#BC6A4F"/>
<path d="M38.0454 26.9958C38.0951 28.3982 37.8848 29.0029 37.8848 29.0029C37.8848 29.0029 38.2034 28.491 38.0454 26.9958Z" fill="#BC6A4F"/>
<path d="M37.1247 26.9954C37.1099 27.6947 37.0247 28.3694 36.8786 28.9453C36.9731 28.6964 37.0447 28.39 37.0875 28.051C37.1303 27.7121 37.143 27.3503 37.1247 26.9954Z" fill="#BC6A4F"/>
<path d="M35.3935 27.6506C35.4403 28.0695 35.5215 28.4539 35.6309 28.7744C35.5575 28.6639 35.4967 28.5007 35.4548 28.3027C35.413 28.1046 35.3918 27.8792 35.3935 27.6506Z" fill="#BC6A4F"/>
</g>
<g clip-path="url(#clip1_426_4)">
<path d="M58 26.996C58 26.996 57.9267 29.5173 57.0148 28.7174C57.0148 28.7174 56.5531 29.9769 55.9972 29.0031C55.9972 29.0031 55.4632 30.4316 54.9911 28.9459C54.9911 28.9459 54.3723 30.8054 53.744 28.7745C53.744 28.7745 51.7517 32.1673 51.5946 26.996L58 26.996Z" fill="#F39672"/>
<path d="M57.2581 26.9954C57.2583 27.6328 57.1708 28.2471 57.0129 28.7168C57.0129 28.7168 57.3314 28.2168 57.2581 26.9954Z" fill="#BC6A4F"/>
<path d="M56.1577 26.9958C56.2074 28.3982 55.9971 29.0029 55.9971 29.0029C55.9971 29.0029 56.3157 28.491 56.1577 26.9958Z" fill="#BC6A4F"/>
<path d="M55.237 26.9954C55.2222 27.6947 55.1371 28.3694 54.9909 28.9453C55.0854 28.6964 55.157 28.39 55.1998 28.051C55.2426 27.7121 55.2553 27.3503 55.237 26.9954Z" fill="#BC6A4F"/>
<path d="M53.5058 27.6506C53.5526 28.0695 53.6338 28.4539 53.7432 28.7744C53.6698 28.6639 53.609 28.5007 53.5671 28.3027C53.5253 28.1046 53.5041 27.8792 53.5058 27.6506Z" fill="#BC6A4F"/>
</g>
<path d="M34.7771 27.1085C34.7771 27.1085 34.5164 26.0748 34.607 25.3724C34.607 25.3724 38.0526 25.0543 39.7622 25.4519C39.7622 25.4519 40.0096 26.627 39.919 27.1085H34.7771Z" fill="#FAF3ED"/>
<path d="M56.5862 27.0428C56.5862 27.0428 56.8468 26.0113 56.7563 25.3089C56.7563 25.3089 53.3106 24.9909 51.6011 25.3884C51.6011 25.3884 51.3537 26.5635 51.4442 27.0428H56.5862Z" fill="#FAF3ED"/>
</g>
<defs>
<clipPath id="clip0_426_4">
<rect width="6.40537" height="2.87137" fill="white" transform="translate(39.8877 29.8672) rotate(-180)"/>
</clipPath>
<clipPath id="clip1_426_4">
<rect width="6.40537" height="2.87137" fill="white" transform="translate(58 29.8672) rotate(-180)"/>
</clipPath>
</defs>
</svg>
