<?xml version="1.0" encoding="iso-8859-1"?>
<!-- Generator: Adobe Illustrator 25.4.0, SVG Export Plug-In . SVG Version: 6.00 Build 0)  -->
<svg version="1.1" id="Calque_1" xmlns="http://www.w3.org/2000/svg" xmlns:xlink="http://www.w3.org/1999/xlink" x="0px" y="0px"
	 width="366.087px" height="243.046px" viewBox="0 0 366.087 243.046" enable-background="new 0 0 366.087 243.046"
	 xml:space="preserve">
<g>
	
		<path fill="#1D1D1B" stroke="#1D1D1B" stroke-width="2" stroke-linecap="round" stroke-linejoin="round" stroke-miterlimit="10" d="
		M133.391,158.019c-2.728,1.161-4.202,4.524-3.291,7.508c1.075,3.527,5.83,15.517,21.883,21.728
		c11.769,4.554,22.158,4.275,22.595,4.261c2.484-0.08,4.593-2.086,5.157-4.696c0.088-0.406,0.138-0.827,0.147-1.257
		c0.063-3.198-2.214-5.721-5.085-5.642c-0.031,0.001-1.164,0.025-3.048-0.11c-0.613-0.376-0.537-0.878-0.211-1.251
		c0.464-0.53,3.171-3.017,1.415-3.633c-1.756-0.616-5.652,0.905-7.28,2.287c-1.628,1.381-4.168,0.832-4.168,0.832l-0.028,0.052
		c-1.808-0.474-3.711-1.07-5.653-1.821c-6.186-2.394-13.598-7.579-15.846-14.955C139.068,158.336,136.119,156.858,133.391,158.019z"
		/>
	
		<path fill="#1D1D1B" stroke="#1D1D1B" stroke-width="2" stroke-linecap="round" stroke-linejoin="round" stroke-miterlimit="10" d="
		M106.437,203.082v37.159h19.573c3.04,0,5.505-2.465,5.505-5.505v0c0-3.04-2.465-5.505-5.505-5.505h-6.728v-32.571h-12.998
		L106.437,203.082z"/>
	<g>
		
			<path fill="#1D1D1B" stroke="#1D1D1B" stroke-width="2" stroke-linecap="round" stroke-linejoin="round" stroke-miterlimit="10" d="
			M259.068,242.029c-4.328-0.089-8.016-3.26-8.156-7.289c-0.151-4.373,3.682-7.907,8.302-7.794c3.306,0.081,5.276-0.606,6.729-0.837
			c-11.901-19.548-13.352-26.746-8.091-33.402l0.117-0.15c1.932-2.983,17.253-26.066,17.911-27.058
			c2.352-3.543,7.341-4.64,11.146-2.45c3.804,2.19,4.982,6.837,2.631,10.379c-0.162,0.245-16.259,24.497-17.858,26.979
			c-0.179,0.276-0.353,0.521-0.512,0.735c0.353,1.805,2.294,7.545,12.426,23.556l3.071,4.804l-2.407,2.69
			c-3.59,4.011-8.327,7.029-13.7,8.52c-2.827,0.784-6.164,1.334-9.962,1.334C260.18,242.046,259.63,242.04,259.068,242.029z
			 M270.723,201.859h0.008H270.723z"/>
		
			<path fill="#1D1D1B" stroke="#1D1D1B" stroke-width="2" stroke-linecap="round" stroke-linejoin="round" stroke-miterlimit="10" d="
			M226.279,165.634c2.792,1.974,3.634,6.123,1.881,9.264c-2.071,3.713-10.351,16.069-29.957,19.16
			c-14.374,2.266-26.016-0.579-26.504-0.701c-2.78-0.696-4.669-3.469-4.669-6.549c0-0.479,0.046-0.966,0.141-1.453
			c0.707-3.619,3.889-5.909,7.105-5.12c0.035,0.008,1.306,0.312,3.462,0.618c0.782-0.274,0.82-0.859,0.543-1.358
			c-0.394-0.71-2.839-4.173-0.71-4.439c2.129-0.266,6.15,2.397,7.648,4.35c1.498,1.953,4.494,1.953,4.494,1.953l0.019,0.065
			c2.153-0.094,4.443-0.302,6.815-0.676c7.556-1.191,17.172-5.231,21.503-12.996C219.804,164.608,223.488,163.66,226.279,165.634z"
			/>
		
			<path fill="#FFFFFF" stroke="#1D1D1B" stroke-width="2" stroke-linecap="round" stroke-linejoin="round" stroke-miterlimit="10" d="
			M365.072,203.736c-0.187-8.988-2.572-15.924-5.44-21.067c0.195-0.761,0.309-1.554,0.309-2.375V59.54
			c0-5.297-4.31-9.606-9.606-9.606H229.581c-5.297,0-9.606,4.31-9.606,9.606v120.754c0,5.297,4.31,9.606,9.606,9.606h70.053v50.097
			h26.838c4.169,0,7.548-3.379,7.548-7.548s-3.38-7.548-7.548-7.548h-9.226v-35h31.507c1.952,4.496,2.82,9.455,2.908,13.677
			c0.05,2.401-0.054,4.698-0.252,6.844l-0.067,0.01c0,0-0.405,2.969-2.543,4.189c-2.138,1.22-5.32,4.845-5.344,6.99
			c-0.024,2.146,3.737,0.192,4.494-0.103c0.532-0.207,1.106-0.091,1.272,0.721c-0.595,2.095-1.067,3.313-1.08,3.346
			c-1.216,3.08,0.622,6.542,4.113,7.732c0.47,0.16,0.946,0.271,1.421,0.336c3.052,0.417,6.055-1.08,7.12-3.741
			C360.982,229.435,365.375,218.284,365.072,203.736z"/>
		<g>
			<g>
				
					<path fill="#FFFFFF" stroke="#1D1D1B" stroke-width="2" stroke-linecap="round" stroke-linejoin="round" stroke-miterlimit="10" d="
					M272.284,130.858c0,4.819-3.906,8.725-8.725,8.725c-4.819,0-8.725-3.906-8.725-8.725c0-4.819,3.906-5.158,8.725-5.158
					C268.378,125.7,272.284,126.039,272.284,130.858z"/>
				<circle fill="#1D1D1B" cx="263.386" cy="130.667" r="5.383"/>
			</g>
			<g>
				
					<path fill="#FFFFFF" stroke="#1D1D1B" stroke-width="2" stroke-linecap="round" stroke-linejoin="round" stroke-miterlimit="10" d="
					M302.173,130.858c0,4.819-3.906,8.725-8.725,8.725c-4.819,0-8.725-3.906-8.725-8.725c0-4.819,3.906-5.158,8.725-5.158
					C298.267,125.7,302.173,126.039,302.173,130.858z"/>
				<circle fill="#1D1D1B" cx="293.275" cy="130.667" r="5.383"/>
			</g>
		</g>
		
			<polygon fill="#FFFFFF" stroke="#1D1D1B" stroke-width="2" stroke-linecap="round" stroke-linejoin="round" stroke-miterlimit="10" points="
			279.442,165.301 359.941,165.301 306.593,181.623 		"/>
		
			<polygon fill="#FFFFFF" stroke="#1D1D1B" stroke-width="2" stroke-linecap="round" stroke-linejoin="round" stroke-miterlimit="10" points="
			275.679,165.301 219.974,165.301 256.891,181.623 		"/>
		<g>
			
				<path fill="#FFFFFF" stroke="#1D1D1B" stroke-width="2" stroke-linecap="round" stroke-linejoin="round" stroke-miterlimit="10" d="
				M278.688,233.674c-1.059,0-2.055-0.413-2.804-1.162l-9.91-9.911c-1.077-1.076-1.441-2.641-0.95-4.083l9.904-34.443
				c0.563-1.654,2.036-2.709,3.76-2.709c1.724,0,3.198,1.054,3.754,2.687l9.918,34.487c0.485,1.42,0.121,2.985-0.957,4.061
				l-9.91,9.911C280.744,233.261,279.748,233.674,278.688,233.674z"/>
			
				<path fill="#FFFFFF" stroke="#1D1D1B" stroke-width="2" stroke-linecap="round" stroke-linejoin="round" stroke-miterlimit="10" d="
				M278.688,187.799c-1.587,0-3.175-0.604-4.383-1.812l-5.82-5.82c-1.171-1.17-1.816-2.727-1.816-4.384
				c0-1.655,0.645-3.212,1.816-4.384l5.82-5.819c1.171-1.171,2.727-1.816,4.383-1.816c1.656,0,3.213,0.645,4.384,1.816l5.82,5.819
				c1.171,1.171,1.816,2.728,1.816,4.384c0,1.656-0.645,3.213-1.816,4.384l-5.82,5.82
				C281.864,187.195,280.276,187.799,278.688,187.799z"/>
		</g>
	</g>
	
		<path fill="#89F798" stroke="#1D1D1B" stroke-width="2" stroke-linecap="round" stroke-linejoin="round" stroke-miterlimit="10" d="
		M98.637,1c-21.84,0-39.607,17.768-39.607,39.607v126.048c0,15.401,8.842,28.767,21.71,35.316c-0.318,4.364-0.611,8.359-0.684,9.205
		c-0.019,0.224-0.027,0.43-0.03,0.612c-0.946,0.83-4.398,3.126-16.582,7.558l-3.672,1.317l0.178,2.463
		c0.266,3.673,1.569,7.289,3.855,10.344c1.203,1.607,2.78,3.301,4.836,4.889c0.29,0.224,0.59,0.451,0.9,0.68
		c2.381,1.762,5.704,1.587,7.465-0.536c1.911-2.305,1.314-5.821-1.235-7.693c-1.824-1.339-2.604-2.535-3.294-3.268
		c14.621-5.607,18.417-8.898,18.352-14.702l-0.001-0.13c0.071-0.849,0.283-3.721,0.532-7.129c2.36,0.44,4.79,0.682,7.276,0.682
		c21.84,0,39.607-17.768,39.607-39.607V40.607C138.244,18.768,120.476,1,98.637,1z"/>
	<g>
		
			<rect x="19.248" y="160.102" transform="matrix(0.2585 -0.966 0.966 0.2585 -154.0713 188.6029)" fill="#FFFFFF" stroke="#000000" stroke-width="2" stroke-miterlimit="10" width="53.139" height="69.119"/>
		
			<rect x="17.809" y="161.303" transform="matrix(0.3272 -0.9449 0.9449 0.3272 -155.222 173.7023)" fill="#FFFFFF" stroke="#000000" stroke-width="2" stroke-miterlimit="10" width="53.139" height="69.119"/>
		<path fill="#FFFFFF" stroke="#000000" stroke-width="2" stroke-miterlimit="10" d="M83.2,176.708l-18.477,57.364l-16.746-5.394
			c-2.844-0.916-4.413-3.975-3.496-6.82l0.547-1.699l-43.77-14.098l16.268-50.507L83.2,176.708z"/>
	</g>
	
		<path fill="#89F798" stroke="#1D1D1B" stroke-width="2" stroke-linecap="round" stroke-linejoin="round" stroke-miterlimit="10" d="
		M59.628,158.851c-3.452,1.295-15.995,7.284-21.184,23.695c-3.804,12.032-2.872,22.383-2.83,22.818
		c0.237,2.474,2.371,4.453,5.012,4.852c0.411,0.062,0.834,0.086,1.264,0.067c3.195-0.138,5.571-2.57,5.311-5.43
		c-0.003-0.031-0.099-1.16-0.082-3.048c0.336-0.635,0.843-0.592,1.235-0.29c0.558,0.43,3.211,2.974,3.715,1.183
		c0.504-1.791-1.259-5.584-2.74-7.122c-1.481-1.538-1.093-4.107-1.093-4.107l-0.053-0.025c0.36-1.834,0.834-3.771,1.462-5.757
		c1.999-6.325,6.709-14.048,13.928-16.756"/>
	<g>
		
			<path fill="#FFFFFF" stroke="#1D1D1B" stroke-width="2" stroke-linecap="round" stroke-linejoin="round" stroke-miterlimit="10" d="
			M94.552,127.996c0-5.093-3.613-9.222-8.069-9.222c-4.457,0-8.069,4.129-8.069,9.222s3.926,9.73,8.069,8.09
			C92.401,133.743,94.552,133.09,94.552,127.996z"/>
		<circle fill="#1D1D1B" cx="88.498" cy="127.598" r="5.952"/>
		
			<path fill="#FFFFFF" stroke="#1D1D1B" stroke-width="2" stroke-linecap="round" stroke-linejoin="round" stroke-miterlimit="10" d="
			M105.491,127.996c0-5.093,3.613-9.222,8.069-9.222c4.457,0,8.069,4.129,8.069,9.222s-3.926,9.73-8.069,8.09
			C107.642,133.743,105.491,133.09,105.491,127.996z"/>
		<circle fill="#1D1D1B" cx="116.292" cy="128.244" r="5.952"/>
	</g>
</g>
<g>
</g>
<g>
</g>
<g>
</g>
<g>
</g>
<g>
</g>
<g>
</g>
</svg>
