<?xml version="1.0" encoding="iso-8859-1"?>
<!-- Generator: Adobe Illustrator 25.4.0, SVG Export Plug-In . SVG Version: 6.00 Build 0)  -->
<svg version="1.1" id="Calque_1" xmlns="http://www.w3.org/2000/svg" xmlns:xlink="http://www.w3.org/1999/xlink" x="0px" y="0px"
	 width="420.211px" height="194.113px" viewBox="0 0 420.211 194.113" enable-background="new 0 0 420.211 194.113"
	 xml:space="preserve">
<g>
	
		<path fill="#1D1D1B" stroke="#1D1D1B" stroke-width="2" stroke-linecap="round" stroke-linejoin="round" stroke-miterlimit="10" d="
		M179.672,88.703c-4.209,0.56-7.166,4.426-6.606,8.633c0.661,4.971,4.49,22.257,25.99,35.962
		c15.763,10.048,30.753,13.317,31.383,13.451c3.588,0.764,7.118-1.112,8.582-4.316c0.228-0.498,0.405-1.029,0.526-1.587
		c0.891-4.144-1.748-8.229-5.891-9.129c-0.045-0.01-1.678-0.374-4.349-1.209c-0.786-0.704-0.552-1.332,0.009-1.703
		c0.799-0.528,5.308-2.823,2.941-4.239c-2.368-1.416-8.344-0.797-11.027,0.434c-2.683,1.231-6.193-0.373-6.193-0.373l-0.054,0.058
		c-2.477-1.25-5.062-2.691-7.663-4.349c-8.285-5.282-17.631-14.63-19.015-25.027C187.745,91.101,183.88,88.144,179.672,88.703z"/>
	
		<path fill="#1D1D1B" stroke="#1D1D1B" stroke-width="2" stroke-linecap="round" stroke-linejoin="round" stroke-miterlimit="10" d="
		M152.623,192.974c4.868,0,9.014-3.721,9.452-8.662c0.463-5.226-3.398-9.838-8.625-10.301c-0.103-0.009-6.382-0.566-12.215-1.094
		c2.241-48.662,8.274-72.112,8.338-72.357c1.333-5.069-1.69-10.266-6.757-11.606c-5.067-1.338-10.26,1.669-11.608,6.734
		c-0.3,1.128-7.376,28.29-9.32,85.534l-0.302,8.89l8.852,0.885c4.292,0.429,20.641,1.878,21.335,1.939
		C152.059,192.962,152.343,192.974,152.623,192.974z"/>
	
		<path fill="#76C8FF" stroke="#1D1D1B" stroke-width="2" stroke-linecap="round" stroke-linejoin="round" stroke-miterlimit="10" d="
		M208.893,95.311c-2.247-22.096-12.576-42.527-29.085-57.53c-16.622-15.106-38.157-23.425-60.636-23.425
		c-22.479,0-44.013,8.319-60.636,23.425c-16.509,15.003-26.838,35.434-29.085,57.53c-0.248,2.438,0.553,4.881,2.198,6.702
		c1.646,1.822,3.998,2.867,6.452,2.867h54.988c-2.323,12.367-6.023,37.379-7.346,76.342l-0.302,8.89l8.852,0.885
		c4.292,0.429,20.641,1.878,21.335,1.939c0.285,0.025,0.569,0.038,0.849,0.038c4.868,0,9.014-3.721,9.452-8.662
		c0.463-5.226-3.398-9.838-8.625-10.301c-0.103-0.009-6.382-0.566-12.215-1.094c1.697-36.852,5.567-59.233,7.375-68.037h87.777
		c2.454,0,4.806-1.045,6.452-2.867C208.34,100.191,209.141,97.749,208.893,95.311z"/>
	<g>
		<g>
			
				<path fill="#FFFFFF" stroke="#1D1D1B" stroke-width="2" stroke-linecap="round" stroke-linejoin="round" stroke-miterlimit="10" d="
				M119.987,67.297c0,4.819-3.906,8.725-8.725,8.725c-4.819,0-8.725-3.906-8.725-8.725c0-4.819,3.906-5.158,8.725-5.158
				C116.08,62.139,119.987,62.478,119.987,67.297z"/>
			<circle fill="#1D1D1B" cx="114.604" cy="67.105" r="5.383"/>
		</g>
		<g>
			
				<path fill="#FFFFFF" stroke="#1D1D1B" stroke-width="2" stroke-linecap="round" stroke-linejoin="round" stroke-miterlimit="10" d="
				M149.876,67.297c0,4.819-3.906,8.725-8.725,8.725s-8.725-3.906-8.725-8.725c0-4.819,3.906-5.158,8.725-5.158
				S149.876,62.478,149.876,67.297z"/>
			<circle fill="#1D1D1B" cx="145.014" cy="67.105" r="5.383"/>
		</g>
	</g>
	<g>
		
			<rect x="24.165" y="76.159" transform="matrix(-0.5332 -0.846 0.846 -0.5332 -15.0987 217.8215)" fill="#FFFFFF" stroke="#000000" stroke-width="2" stroke-miterlimit="10" width="56.765" height="73.834"/>
		
			<rect x="24.061" y="78.159" transform="matrix(-0.471 -0.8821 0.8821 -0.471 -24.3674 215.5396)" fill="#FFFFFF" stroke="#000000" stroke-width="2" stroke-miterlimit="10" width="56.765" height="73.834"/>
		<path fill="#FFFFFF" stroke="#000000" stroke-width="2" stroke-miterlimit="10" d="M65.606,70.746l31.553,56.116l-16.381,9.211
			c-2.782,1.564-6.318,0.573-7.883-2.209l-0.935-1.662l-42.817,24.075L1.362,106.869L65.606,70.746z"/>
	</g>
	
		<path fill="#76C8FF" stroke="#1D1D1B" stroke-width="2" stroke-linecap="round" stroke-linejoin="round" stroke-miterlimit="10" d="
		M36.057,69.413c-3.426,3.663-14.366,17.582-11.336,42.898c2.222,18.56,9.197,32.226,9.493,32.798
		c1.684,3.259,5.372,4.8,8.778,3.901c0.53-0.14,1.053-0.339,1.561-0.6c3.77-1.938,5.256-6.569,3.326-10.343
		c-0.021-0.041-0.774-1.535-1.822-4.13c0.046-1.054,0.681-1.272,1.323-1.073c0.915,0.283,5.548,2.316,5.143-0.413
		c-0.406-2.729-4.674-6.958-7.327-8.253c-2.653-1.295-3.638-5.026-3.638-5.026l-0.078-0.005c-0.604-2.708-1.128-5.62-1.494-8.684
		c-1.168-9.756,0.137-22.91,7.301-30.571"/>
	<g>
		
			<path fill="#1D1D1B" stroke="#1D1D1B" stroke-width="2" stroke-linecap="round" stroke-linejoin="round" stroke-miterlimit="10" d="
			M313.192,193.096c-4.328-0.089-8.016-3.26-8.156-7.289c-0.151-4.373,3.682-7.907,8.302-7.794c3.306,0.081,5.276-0.606,6.729-0.837
			c-11.901-19.548-13.352-26.746-8.091-33.402l0.117-0.15c1.932-2.983,17.253-26.066,17.911-27.058
			c2.352-3.543,7.341-4.64,11.146-2.45c3.804,2.19,4.982,6.837,2.631,10.379c-0.162,0.245-16.259,24.497-17.858,26.979
			c-0.179,0.276-0.353,0.521-0.512,0.735c0.353,1.805,2.294,7.545,12.426,23.556l3.071,4.804l-2.407,2.69
			c-3.59,4.011-8.327,7.029-13.7,8.52c-2.827,0.784-6.164,1.334-9.962,1.334C314.303,193.113,313.754,193.107,313.192,193.096z
			 M324.847,152.926h0.008H324.847z"/>
		
			<path fill="#1D1D1B" stroke="#1D1D1B" stroke-width="2" stroke-linecap="round" stroke-linejoin="round" stroke-miterlimit="10" d="
			M280.403,116.701c2.792,1.974,3.634,6.123,1.881,9.264c-2.071,3.713-10.351,16.069-29.957,19.16
			c-14.374,2.266-26.016-0.579-26.504-0.701c-2.78-0.696-4.669-3.469-4.669-6.549c0-0.479,0.046-0.966,0.141-1.453
			c0.707-3.619,3.889-5.909,7.105-5.12c0.035,0.008,1.306,0.312,3.462,0.618c0.782-0.274,0.82-0.859,0.543-1.358
			c-0.394-0.71-2.839-4.173-0.71-4.439c2.129-0.266,6.15,2.397,7.648,4.35c1.498,1.953,4.494,1.953,4.494,1.953l0.019,0.065
			c2.153-0.094,4.443-0.302,6.815-0.676c7.556-1.191,17.172-5.231,21.503-12.996C273.928,115.675,277.612,114.727,280.403,116.701z"
			/>
		
			<path fill="#FFFFFF" stroke="#1D1D1B" stroke-width="2" stroke-linecap="round" stroke-linejoin="round" stroke-miterlimit="10" d="
			M419.196,154.803c-0.187-8.988-2.572-15.924-5.44-21.067c0.195-0.761,0.309-1.554,0.309-2.375V10.606
			c0-5.297-4.31-9.606-9.606-9.606H283.705c-5.297,0-9.606,4.31-9.606,9.606V131.36c0,5.297,4.31,9.606,9.606,9.606h70.053v50.097
			h26.838c4.169,0,7.548-3.379,7.548-7.548s-3.38-7.548-7.548-7.548h-9.226v-35h31.507c1.952,4.496,2.82,9.455,2.908,13.677
			c0.05,2.401-0.054,4.698-0.252,6.844l-0.067,0.01c0,0-0.405,2.969-2.543,4.189c-2.138,1.22-5.32,4.845-5.344,6.99
			c-0.024,2.146,3.737,0.192,4.494-0.103c0.532-0.207,1.106-0.091,1.272,0.721c-0.595,2.095-1.067,3.313-1.08,3.346
			c-1.216,3.08,0.622,6.542,4.113,7.732c0.47,0.16,0.946,0.271,1.421,0.336c3.052,0.417,6.055-1.08,7.12-3.741
			C415.106,180.502,419.498,169.351,419.196,154.803z"/>
		<g>
			<g>
				
					<path fill="#FFFFFF" stroke="#1D1D1B" stroke-width="2" stroke-linecap="round" stroke-linejoin="round" stroke-miterlimit="10" d="
					M326.408,81.925c0,4.819-3.906,8.725-8.725,8.725s-8.725-3.906-8.725-8.725c0-4.819,3.906-5.158,8.725-5.158
					S326.408,77.106,326.408,81.925z"/>
				<circle fill="#1D1D1B" cx="317.51" cy="81.733" r="5.383"/>
			</g>
			<g>
				
					<path fill="#FFFFFF" stroke="#1D1D1B" stroke-width="2" stroke-linecap="round" stroke-linejoin="round" stroke-miterlimit="10" d="
					M356.297,81.925c0,4.819-3.906,8.725-8.725,8.725c-4.819,0-8.725-3.906-8.725-8.725c0-4.819,3.906-5.158,8.725-5.158
					C352.391,76.767,356.297,77.106,356.297,81.925z"/>
				<circle fill="#1D1D1B" cx="347.399" cy="81.733" r="5.383"/>
			</g>
		</g>
		
			<polygon fill="#FFFFFF" stroke="#1D1D1B" stroke-width="2" stroke-linecap="round" stroke-linejoin="round" stroke-miterlimit="10" points="
			333.566,116.367 414.065,116.367 360.717,132.69 		"/>
		
			<polygon fill="#FFFFFF" stroke="#1D1D1B" stroke-width="2" stroke-linecap="round" stroke-linejoin="round" stroke-miterlimit="10" points="
			329.802,116.367 274.098,116.367 311.014,132.69 		"/>
		<g>
			
				<path fill="#FFFFFF" stroke="#1D1D1B" stroke-width="2" stroke-linecap="round" stroke-linejoin="round" stroke-miterlimit="10" d="
				M332.812,184.741c-1.059,0-2.055-0.413-2.804-1.162l-9.91-9.911c-1.077-1.076-1.441-2.641-0.95-4.083l9.904-34.443
				c0.563-1.654,2.036-2.709,3.76-2.709c1.724,0,3.198,1.054,3.754,2.687l9.918,34.487c0.485,1.42,0.121,2.985-0.957,4.061
				l-9.91,9.911C334.868,184.328,333.872,184.741,332.812,184.741z"/>
			
				<path fill="#FFFFFF" stroke="#1D1D1B" stroke-width="2" stroke-linecap="round" stroke-linejoin="round" stroke-miterlimit="10" d="
				M332.812,138.866c-1.587,0-3.175-0.604-4.383-1.812l-5.82-5.82c-1.171-1.17-1.816-2.727-1.816-4.384
				c0-1.655,0.645-3.213,1.816-4.384l5.82-5.819c1.171-1.171,2.727-1.816,4.383-1.816c1.656,0,3.213,0.645,4.384,1.816l5.82,5.819
				c1.171,1.171,1.816,2.728,1.816,4.384c0,1.656-0.645,3.213-1.816,4.384l-5.82,5.82
				C335.988,138.262,334.4,138.866,332.812,138.866z"/>
		</g>
	</g>
</g>
<g>
</g>
<g>
</g>
<g>
</g>
<g>
</g>
<g>
</g>
<g>
</g>
</svg>
