<?xml version="1.0" encoding="iso-8859-1"?>
<!-- Generator: Adobe Illustrator 25.4.0, SVG Export Plug-In . SVG Version: 6.00 Build 0)  -->
<svg version="1.1" id="Calque_1" xmlns="http://www.w3.org/2000/svg" xmlns:xlink="http://www.w3.org/1999/xlink" x="0px" y="0px"
	 width="407.5px" height="202.395px" viewBox="0 0 407.5 202.395" enable-background="new 0 0 407.5 202.395" xml:space="preserve">
<g>
	
		<path fill="#1D1D1B" stroke="#1D1D1B" stroke-width="2" stroke-linecap="round" stroke-linejoin="round" stroke-miterlimit="10" d="
		M137.834,201.395c4.868,0,9.014-3.721,9.452-8.662c0.463-5.226-3.398-9.838-8.625-10.301c-0.103-0.009-6.382-0.566-12.215-1.094
		c2.241-48.662,8.274-72.112,8.338-72.357c1.333-5.069-1.69-10.266-6.757-11.606c-5.067-1.338-10.26,1.669-11.608,6.734
		c-0.3,1.128-7.376,28.29-9.32,85.534l-0.302,8.89l8.852,0.885c4.292,0.429,20.641,1.878,21.335,1.939
		C137.27,201.383,137.554,201.395,137.834,201.395z"/>
	
		<path fill="#1D1D1B" stroke="#1D1D1B" stroke-width="2" stroke-linecap="round" stroke-linejoin="round" stroke-miterlimit="10" d="
		M166.387,127.74c-8.668-7.184-14.898-16.016-18.516-26.25c-1.839-5.195,1.114-10.919,6.549-12.358
		c4.806-1.272,9.759,1.575,11.445,6.251c3.858,10.704,13.716,23.653,38.201,29.99c2.811-0.341,7.14-3.952,10.827-4.43
		c3.865-0.501,7.316,0.209,8.137,0.697c0.822,0.489,1.819,2.52-4.06,3.894c-0.02,0.005-0.041,0.01-0.061,0.014
		c-1.419,0.339-1.275,2.419,0.173,2.595c0.289,0.035,0.581,0.06,0.873,0.102c10.833,1.563,13.356,5.805,12.766,11.018
		c-0.007,0.061-0.015,0.121-0.023,0.181c-0.678,5.118-6.104,8.679-14.882,7.68C196.266,144.672,178.961,138.163,166.387,127.74z"/>
	
		<path fill="#FFABE5" stroke="#1D1D1B" stroke-width="2" stroke-linecap="round" stroke-linejoin="round" stroke-miterlimit="10" d="
		M181.475,13.573H21.767c-8.397,0-15.205,6.807-15.205,15.205V93.33c0,8.397,6.807,15.205,15.205,15.205H76.41
		c-2.496,12.803-6.663,34.113-7.281,36.579c-0.098,0.394-0.172,0.757-0.23,1.08c-1.902,1.314-8.626,4.814-31.297,10.662
		l-6.827,1.729l-0.401,4.393c-0.599,6.55,0.639,13.169,3.766,18.956c1.645,3.044,3.922,6.303,7.07,9.455
		c0.445,0.445,0.905,0.896,1.382,1.352c3.667,3.512,9.552,3.75,13.258,0.278c4.023-3.769,3.994-10.095,0.063-13.829
		c-2.813-2.671-3.834-4.918-4.833-6.33c27.289-7.529,34.906-12.734,36.476-23.026l0.036-0.231
		c0.838-3.378,5.913-29.635,8.145-41.067h85.738c8.397,0,15.205-6.807,15.205-15.205V28.777
		C196.68,20.38,189.872,13.573,181.475,13.573z"/>
	<g>
		<g>
			
				<circle fill="#FFFFFF" stroke="#1D1D1B" stroke-width="2" stroke-linecap="round" stroke-linejoin="round" stroke-miterlimit="10" cx="93.695" cy="71.012" r="10.09"/>
			<circle fill="#1D1D1B" cx="97.561" cy="71.844" r="6.224"/>
		</g>
		<g>
			
				<circle fill="#FFFFFF" stroke="#1D1D1B" stroke-width="2" stroke-linecap="round" stroke-linejoin="round" stroke-miterlimit="10" cx="129.114" cy="71.012" r="10.09"/>
			<circle fill="#1D1D1B" cx="132.676" cy="71.844" r="6.224"/>
		</g>
	</g>
	<g>
		
			<rect x="22.41" y="68.562" transform="matrix(-0.9949 -0.1011 0.1011 -0.9949 90.6599 215.5534)" fill="#FFFFFF" stroke="#000000" stroke-width="2" stroke-miterlimit="10" width="56.765" height="73.834"/>
		
			<rect x="23.921" y="69.876" transform="matrix(-0.985 -0.1723 0.1723 -0.985 85.4205 221.0018)" fill="#FFFFFF" stroke="#000000" stroke-width="2" stroke-miterlimit="10" width="56.765" height="73.834"/>
		<path fill="#FFFFFF" stroke="#000000" stroke-width="2" stroke-miterlimit="10" d="M25.491,69.117l63.642,9.711l-2.835,18.578
			c-0.481,3.155-3.44,5.331-6.596,4.849l-1.885-0.288l-7.409,48.56l-56.034-8.55L25.491,69.117z"/>
	</g>
	
		<path fill="#FFABE5" stroke="#1D1D1B" stroke-width="2" stroke-linecap="round" stroke-linejoin="round" stroke-miterlimit="10" d="
		M20.556,84.899c4.047,10.635,14.132,23.407,38.725,29.31c2.804-0.391,7.069-4.078,10.747-4.621
		c3.855-0.569,7.318,0.079,8.148,0.553c0.83,0.474,1.863,2.487-3.991,3.965c-0.02,0.005-0.041,0.01-0.061,0.015
		c-1.413,0.364-1.232,2.441,0.219,2.591c0.29,0.03,0.582,0.05,0.875,0.087c10.859,1.371,13.457,5.568,12.959,10.791
		c-0.006,0.061-0.012,0.121-0.019,0.182c-0.587,5.13-5.95,8.786-14.743,7.942c-21.59-2.072-39.007-8.275-51.765-18.474
		c-8.793-7.03-15.262-15.719-18.977-25.918c-4.005-10.995-0.239-23.076,5.17-24.61"/>
	<g>
		
			<path fill="#1D1D1B" stroke="#1D1D1B" stroke-width="2" stroke-linecap="round" stroke-linejoin="round" stroke-miterlimit="10" d="
			M300.48,193.096c-4.328-0.089-8.016-3.26-8.156-7.289c-0.151-4.373,3.682-7.907,8.302-7.794c3.306,0.081,5.276-0.606,6.729-0.837
			c-11.901-19.548-13.352-26.746-8.091-33.402l0.117-0.15c1.932-2.983,17.253-26.066,17.911-27.058
			c2.352-3.543,7.341-4.64,11.146-2.45c3.804,2.19,4.982,6.837,2.631,10.379c-0.162,0.245-16.259,24.497-17.858,26.979
			c-0.179,0.276-0.353,0.521-0.512,0.735c0.353,1.805,2.294,7.545,12.426,23.556l3.071,4.804l-2.407,2.69
			c-3.59,4.011-8.327,7.029-13.7,8.52c-2.827,0.784-6.164,1.334-9.962,1.334C301.592,193.113,301.043,193.107,300.48,193.096z
			 M312.135,152.926h0.008H312.135z"/>
		
			<path fill="#1D1D1B" stroke="#1D1D1B" stroke-width="2" stroke-linecap="round" stroke-linejoin="round" stroke-miterlimit="10" d="
			M267.692,116.701c2.792,1.974,3.634,6.123,1.881,9.264c-2.071,3.713-10.351,16.069-29.957,19.16
			c-14.374,2.266-26.016-0.579-26.504-0.701c-2.78-0.696-4.669-3.469-4.669-6.549c0-0.479,0.046-0.966,0.141-1.453
			c0.707-3.619,3.889-5.909,7.105-5.12c0.035,0.008,1.306,0.312,3.462,0.618c0.782-0.274,0.82-0.859,0.543-1.358
			c-0.394-0.71-2.839-4.173-0.71-4.439c2.129-0.266,6.15,2.397,7.648,4.35c1.498,1.953,4.494,1.953,4.494,1.953l0.019,0.065
			c2.153-0.094,4.443-0.302,6.815-0.676c7.556-1.191,17.172-5.231,21.503-12.996C261.216,115.675,264.9,114.727,267.692,116.701z"/>
		
			<path fill="#FFFFFF" stroke="#1D1D1B" stroke-width="2" stroke-linecap="round" stroke-linejoin="round" stroke-miterlimit="10" d="
			M406.485,154.803c-0.187-8.988-2.572-15.924-5.44-21.067c0.195-0.761,0.309-1.554,0.309-2.375V10.606
			c0-5.297-4.31-9.606-9.606-9.606H270.993c-5.297,0-9.606,4.31-9.606,9.606V131.36c0,5.297,4.31,9.606,9.606,9.606h70.053v50.097
			h26.838c4.169,0,7.548-3.379,7.548-7.548s-3.38-7.548-7.548-7.548h-9.226v-35h31.507c1.952,4.496,2.82,9.455,2.908,13.677
			c0.05,2.401-0.054,4.698-0.252,6.844l-0.067,0.01c0,0-0.405,2.969-2.543,4.189c-2.138,1.22-5.32,4.845-5.344,6.99
			c-0.024,2.146,3.737,0.192,4.494-0.103c0.532-0.207,1.106-0.091,1.272,0.721c-0.595,2.095-1.067,3.313-1.08,3.346
			c-1.216,3.08,0.622,6.542,4.113,7.732c0.47,0.16,0.946,0.271,1.421,0.336c3.052,0.417,6.055-1.08,7.12-3.741
			C402.394,180.502,406.787,169.351,406.485,154.803z"/>
		<g>
			<g>
				
					<path fill="#FFFFFF" stroke="#1D1D1B" stroke-width="2" stroke-linecap="round" stroke-linejoin="round" stroke-miterlimit="10" d="
					M313.697,81.925c0,4.819-3.906,8.725-8.725,8.725c-4.819,0-8.725-3.906-8.725-8.725c0-4.819,3.906-5.158,8.725-5.158
					C309.79,76.767,313.697,77.106,313.697,81.925z"/>
				<circle fill="#1D1D1B" cx="304.798" cy="81.733" r="5.383"/>
			</g>
			<g>
				
					<path fill="#FFFFFF" stroke="#1D1D1B" stroke-width="2" stroke-linecap="round" stroke-linejoin="round" stroke-miterlimit="10" d="
					M343.585,81.925c0,4.819-3.906,8.725-8.725,8.725s-8.725-3.906-8.725-8.725c0-4.819,3.906-5.158,8.725-5.158
					S343.585,77.106,343.585,81.925z"/>
				<circle fill="#1D1D1B" cx="334.687" cy="81.733" r="5.383"/>
			</g>
		</g>
		
			<polygon fill="#FFFFFF" stroke="#1D1D1B" stroke-width="2" stroke-linecap="round" stroke-linejoin="round" stroke-miterlimit="10" points="
			320.854,116.367 401.354,116.367 348.005,132.69 		"/>
		
			<polygon fill="#FFFFFF" stroke="#1D1D1B" stroke-width="2" stroke-linecap="round" stroke-linejoin="round" stroke-miterlimit="10" points="
			317.091,116.367 261.387,116.367 298.303,132.69 		"/>
		<g>
			
				<path fill="#FFFFFF" stroke="#1D1D1B" stroke-width="2" stroke-linecap="round" stroke-linejoin="round" stroke-miterlimit="10" d="
				M320.101,184.741c-1.059,0-2.055-0.413-2.804-1.162l-9.91-9.911c-1.077-1.076-1.441-2.641-0.95-4.083l9.904-34.443
				c0.563-1.654,2.036-2.709,3.76-2.709c1.725,0,3.198,1.054,3.754,2.687l9.918,34.487c0.485,1.42,0.121,2.985-0.957,4.061
				l-9.91,9.911C322.156,184.328,321.16,184.741,320.101,184.741z"/>
			
				<path fill="#FFFFFF" stroke="#1D1D1B" stroke-width="2" stroke-linecap="round" stroke-linejoin="round" stroke-miterlimit="10" d="
				M320.101,138.866c-1.587,0-3.175-0.604-4.383-1.812l-5.82-5.82c-1.171-1.17-1.816-2.727-1.816-4.384
				c0-1.655,0.645-3.213,1.816-4.384l5.82-5.819c1.171-1.171,2.727-1.816,4.383-1.816c1.656,0,3.213,0.645,4.384,1.816l5.82,5.819
				c1.171,1.171,1.816,2.728,1.816,4.384c0,1.656-0.645,3.213-1.816,4.384l-5.82,5.82
				C323.276,138.262,321.688,138.866,320.101,138.866z"/>
		</g>
	</g>
</g>
<g>
</g>
<g>
</g>
<g>
</g>
<g>
</g>
<g>
</g>
<g>
</g>
</svg>
