<?xml version="1.0" encoding="iso-8859-1"?>
<!-- Generator: Adobe Illustrator 25.4.0, SVG Export Plug-In . SVG Version: 6.00 Build 0)  -->
<svg version="1.1" id="Calque_1" xmlns="http://www.w3.org/2000/svg" xmlns:xlink="http://www.w3.org/1999/xlink" x="0px" y="0px"
	 width="389.974px" height="196.31px" viewBox="0 0 389.974 196.31" enable-background="new 0 0 389.974 196.31"
	 xml:space="preserve">
<g>
	
		<path fill="#1D1D1B" stroke="#1D1D1B" stroke-width="2" stroke-linecap="round" stroke-linejoin="round" stroke-miterlimit="10" d="
		M150.436,119.194c-2.661,2.147-3.237,6.341-1.288,9.365c2.302,3.574,11.351,15.379,31.114,17.217
		c14.489,1.347,25.926-2.232,26.406-2.385c2.731-0.871,4.439-3.759,4.243-6.833c-0.03-0.478-0.107-0.961-0.233-1.441
		c-0.936-3.567-4.257-5.65-7.416-4.658c-0.035,0.011-1.283,0.394-3.415,0.837c-0.798-0.224-0.873-0.805-0.628-1.321
		c0.348-0.734,2.568-4.345,0.426-4.475c-2.142-0.13-5.986,2.783-7.356,4.828c-1.371,2.044-4.361,2.235-4.361,2.235l-0.015,0.066
		c-2.155,0.043-4.453-0.019-6.845-0.241c-7.616-0.708-17.47-4.128-22.285-11.603C156.832,117.759,153.096,117.047,150.436,119.194z"
		/>
	
		<path fill="#1D1D1B" stroke="#1D1D1B" stroke-width="2" stroke-linecap="round" stroke-linejoin="round" stroke-miterlimit="10" d="
		M101.476,144.36v50.951h26.838c4.169,0,7.548-3.379,7.548-7.548v0c0-4.169-3.379-7.548-7.548-7.548h-9.226v-44.66h-17.822
		L101.476,144.36z"/>
	<path fill="#FF2E3F" stroke="#000000" stroke-width="2" stroke-miterlimit="10" d="M149.25,5.247H28.496
		c-5.297,0-9.606,4.31-9.606,9.606v120.754c0,5.297,4.31,9.606,9.606,9.606h23.961c-4.051,5.547-7.923,10.841-8.716,11.897
		c-0.197,0.264-0.366,0.512-0.511,0.736c-1.815,0.296-7.872,0.471-26.406-3.467l-5.571-1.21l-1.686,3.192
		c-2.514,4.76-3.698,10.25-3.229,15.807c0.247,2.923,0.891,6.244,2.21,9.805c0.186,0.503,0.383,1.016,0.589,1.539
		c1.587,4.027,5.843,6.384,9.669,5.115c4.153-1.378,6.135-6.2,4.424-10.493c-1.225-3.072-1.265-5.158-1.553-6.601
		c22.465,4.367,29.719,3.226,34.132-4.019l0.099-0.162c1.598-2.14,11.212-15.315,16.189-22.139h77.153
		c5.297,0,9.606-4.31,9.606-9.606V14.853C158.856,9.557,154.547,5.247,149.25,5.247z"/>
	<g>
		
			<path fill="#FFFFFF" stroke="#1D1D1B" stroke-width="2" stroke-linecap="round" stroke-linejoin="round" stroke-miterlimit="10" d="
			M73.337,93.36c0-5.873,4.166-10.634,9.305-10.634c5.139,0,9.305,4.761,9.305,10.634s-4.527,11.22-9.305,9.328
			C75.818,99.987,73.337,99.233,73.337,93.36z"/>
		<circle fill="#1D1D1B" cx="84.69" cy="92.452" r="7.038"/>
		
			<path fill="#FFFFFF" stroke="#1D1D1B" stroke-width="2" stroke-linecap="round" stroke-linejoin="round" stroke-miterlimit="10" d="
			M123.166,93.36c0-5.873-4.166-10.634-9.305-10.634c-5.139,0-9.305,4.761-9.305,10.634s4.527,11.22,9.305,9.328
			C120.686,99.987,123.166,99.233,123.166,93.36z"/>
		<circle fill="#1D1D1B" cx="116.128" cy="92.452" r="7.038"/>
	</g>
	<g>
		
			<path fill="#1D1D1B" stroke="#1D1D1B" stroke-width="2" stroke-linecap="round" stroke-linejoin="round" stroke-miterlimit="10" d="
			M282.955,193.096c-4.328-0.089-8.016-3.26-8.156-7.289c-0.151-4.373,3.682-7.907,8.302-7.794c3.306,0.081,5.276-0.606,6.729-0.837
			c-11.901-19.548-13.352-26.746-8.091-33.402l0.117-0.15c1.932-2.983,17.253-26.066,17.911-27.058
			c2.352-3.543,7.341-4.64,11.146-2.45c3.804,2.19,4.982,6.837,2.631,10.379c-0.162,0.245-16.259,24.497-17.858,26.979
			c-0.179,0.276-0.353,0.521-0.512,0.735c0.353,1.805,2.294,7.545,12.426,23.556l3.071,4.804l-2.407,2.69
			c-3.59,4.011-8.327,7.029-13.7,8.52c-2.827,0.784-6.164,1.334-9.962,1.334C284.067,193.113,283.517,193.107,282.955,193.096z
			 M294.61,152.926h0.008H294.61z"/>
		
			<path fill="#1D1D1B" stroke="#1D1D1B" stroke-width="2" stroke-linecap="round" stroke-linejoin="round" stroke-miterlimit="10" d="
			M250.166,116.701c2.792,1.974,3.634,6.123,1.881,9.264c-2.071,3.713-10.351,16.069-29.957,19.16
			c-14.374,2.266-26.016-0.579-26.504-0.701c-2.78-0.696-4.669-3.469-4.669-6.549c0-0.479,0.046-0.966,0.141-1.453
			c0.707-3.619,3.889-5.909,7.105-5.12c0.035,0.008,1.306,0.312,3.462,0.618c0.782-0.274,0.82-0.859,0.543-1.358
			c-0.394-0.71-2.839-4.173-0.71-4.439c2.129-0.266,6.15,2.397,7.648,4.35c1.498,1.953,4.494,1.953,4.494,1.953l0.019,0.065
			c2.153-0.094,4.443-0.302,6.815-0.676c7.556-1.191,17.172-5.231,21.503-12.996C243.691,115.675,247.375,114.727,250.166,116.701z"
			/>
		
			<path fill="#FFFFFF" stroke="#1D1D1B" stroke-width="2" stroke-linecap="round" stroke-linejoin="round" stroke-miterlimit="10" d="
			M388.959,154.803c-0.187-8.988-2.572-15.924-5.44-21.067c0.195-0.761,0.309-1.554,0.309-2.375V10.606
			c0-5.297-4.31-9.606-9.606-9.606H253.468c-5.297,0-9.606,4.31-9.606,9.606V131.36c0,5.297,4.31,9.606,9.606,9.606h70.053v50.097
			h26.838c4.169,0,7.548-3.379,7.548-7.548s-3.38-7.548-7.548-7.548h-9.226v-35h31.507c1.952,4.496,2.82,9.455,2.908,13.677
			c0.05,2.401-0.054,4.698-0.252,6.844l-0.067,0.01c0,0-0.405,2.969-2.543,4.189c-2.138,1.22-5.32,4.845-5.344,6.99
			c-0.024,2.146,3.737,0.192,4.494-0.103c0.532-0.207,1.106-0.091,1.272,0.721c-0.595,2.095-1.067,3.313-1.08,3.346
			c-1.216,3.08,0.622,6.542,4.113,7.732c0.47,0.16,0.946,0.271,1.421,0.336c3.052,0.417,6.055-1.08,7.12-3.741
			C384.869,180.502,389.261,169.351,388.959,154.803z"/>
		<g>
			<g>
				
					<path fill="#FFFFFF" stroke="#1D1D1B" stroke-width="2" stroke-linecap="round" stroke-linejoin="round" stroke-miterlimit="10" d="
					M296.171,81.925c0,4.819-3.906,8.725-8.725,8.725c-4.819,0-8.725-3.906-8.725-8.725c0-4.819,3.906-5.158,8.725-5.158
					C292.265,76.767,296.171,77.106,296.171,81.925z"/>
				<circle fill="#1D1D1B" cx="287.273" cy="81.733" r="5.383"/>
			</g>
			<g>
				
					<path fill="#FFFFFF" stroke="#1D1D1B" stroke-width="2" stroke-linecap="round" stroke-linejoin="round" stroke-miterlimit="10" d="
					M326.06,81.925c0,4.819-3.906,8.725-8.725,8.725c-4.819,0-8.725-3.906-8.725-8.725c0-4.819,3.906-5.158,8.725-5.158
					C322.154,76.767,326.06,77.106,326.06,81.925z"/>
				<circle fill="#1D1D1B" cx="317.162" cy="81.733" r="5.383"/>
			</g>
		</g>
		
			<polygon fill="#FFFFFF" stroke="#1D1D1B" stroke-width="2" stroke-linecap="round" stroke-linejoin="round" stroke-miterlimit="10" points="
			303.329,116.367 383.828,116.367 330.48,132.69 		"/>
		
			<polygon fill="#FFFFFF" stroke="#1D1D1B" stroke-width="2" stroke-linecap="round" stroke-linejoin="round" stroke-miterlimit="10" points="
			299.566,116.367 243.861,116.367 280.777,132.69 		"/>
		<g>
			
				<path fill="#FFFFFF" stroke="#1D1D1B" stroke-width="2" stroke-linecap="round" stroke-linejoin="round" stroke-miterlimit="10" d="
				M302.575,184.741c-1.059,0-2.055-0.413-2.804-1.162l-9.91-9.911c-1.077-1.076-1.441-2.641-0.95-4.083l9.904-34.443
				c0.563-1.654,2.036-2.709,3.76-2.709c1.724,0,3.198,1.054,3.754,2.687l9.918,34.487c0.485,1.42,0.121,2.985-0.957,4.061
				l-9.91,9.911C304.631,184.328,303.635,184.741,302.575,184.741z"/>
			
				<path fill="#FFFFFF" stroke="#1D1D1B" stroke-width="2" stroke-linecap="round" stroke-linejoin="round" stroke-miterlimit="10" d="
				M302.575,138.866c-1.587,0-3.175-0.604-4.383-1.812l-5.82-5.82c-1.171-1.17-1.816-2.727-1.816-4.384
				c0-1.655,0.645-3.213,1.816-4.384l5.82-5.819c1.171-1.171,2.727-1.816,4.383-1.816c1.656,0,3.213,0.645,4.384,1.816l5.82,5.819
				c1.171,1.171,1.816,2.728,1.816,4.384c0,1.656-0.645,3.213-1.816,4.384l-5.82,5.82
				C305.751,138.262,304.163,138.866,302.575,138.866z"/>
		</g>
	</g>
	<g>
		
			<rect x="13.408" y="86.818" transform="matrix(-0.9694 -0.2457 0.2457 -0.9694 48.9105 248.8559)" fill="#FFFFFF" stroke="#000000" stroke-width="2" stroke-miterlimit="10" width="53.139" height="69.119"/>
		
			<rect x="14.628" y="88.241" transform="matrix(-0.9492 -0.3147 0.3147 -0.9492 41.6558 252.3269)" fill="#FFFFFF" stroke="#000000" stroke-width="2" stroke-miterlimit="10" width="53.139" height="69.119"/>
		<path fill="#FFFFFF" stroke="#000000" stroke-width="2" stroke-miterlimit="10" d="M21.531,84.236l57.604,17.715l-5.171,16.816
			c-0.878,2.856-3.916,4.465-6.773,3.586l-1.707-0.525l-13.517,43.953L1.25,150.184L21.531,84.236z"/>
	</g>
	<path fill="#FF2E3F" stroke="#000000" stroke-width="2" stroke-miterlimit="10" d="M15.667,103.304
		c-3.335,0.755-10.721,3.711-9.773,13.951c0.392,4.233,3.417,18.806,20.35,29.161c12.414,7.592,24.259,9.416,24.757,9.49
		c2.835,0.421,5.641-1.42,6.819-4.265c0.183-0.443,0.327-0.91,0.426-1.396c0.731-3.615-1.333-6.948-4.606-7.449
		c-0.036-0.006-1.326-0.211-3.435-0.753c-0.618-0.553-0.429-1.107,0.018-1.462c0.636-0.505,4.219-2.77,2.354-3.83
		c-1.865-1.06-6.6-0.138-8.731,1.094c-2.131,1.232-4.9,0.085-4.9,0.085l-0.043,0.053c-1.953-0.911-3.99-1.978-6.039-3.231
		c-6.525-3.99-13.278-14.005-16.908-22.122C14.284,108.89,13.994,110.449,15.667,103.304z"/>
</g>
<g>
</g>
<g>
</g>
<g>
</g>
<g>
</g>
<g>
</g>
<g>
</g>
</svg>
