<?xml version="1.0" encoding="iso-8859-1"?>
<!-- Generator: Adobe Illustrator 25.4.0, SVG Export Plug-In . SVG Version: 6.00 Build 0)  -->
<svg version="1.1" id="Calque_1" xmlns="http://www.w3.org/2000/svg" xmlns:xlink="http://www.w3.org/1999/xlink" x="0px" y="0px"
	 width="382.809px" height="194.113px" viewBox="0 0 382.809 194.113" enable-background="new 0 0 382.809 194.113"
	 xml:space="preserve">
<g>
	
		<path fill="#1D1D1B" stroke="#1D1D1B" stroke-width="2" stroke-linecap="round" stroke-linejoin="round" stroke-miterlimit="10" d="
		M105.924,139.888v47.374h24.954c3.876,0,7.018-3.142,7.018-7.018v0c0-3.876-3.142-7.018-7.018-7.018h-8.578V131.7h-16.571
		L105.924,139.888z"/>
	
		<path fill="#1D1D1B" stroke="#1D1D1B" stroke-width="2" stroke-linecap="round" stroke-linejoin="round" stroke-miterlimit="10" d="
		M138.218,105.597c-3.744,1.625-5.462,5.979-3.835,9.722c1.92,4.423,10.011,19.399,33.5,26.412
		c17.221,5.142,31.943,4.218,32.561,4.176c3.519-0.238,6.29-2.902,6.799-6.25c0.079-0.521,0.104-1.058,0.068-1.606
		c-0.267-4.067-3.783-7.149-7.85-6.891c-0.044,0.003-1.65,0.096-4.34,0.027c-0.912-0.444-0.861-1.087-0.44-1.577
		c0.6-0.699,4.165-4.008,1.603-4.694c-2.562-0.686-7.926,1.46-10.083,3.304c-2.157,1.844-5.825,1.286-5.825,1.286l-0.034,0.067
		c-2.62-0.504-5.389-1.156-8.231-2.005c-9.052-2.703-20.155-8.887-24.171-18.136C146.315,105.689,141.962,103.972,138.218,105.597z"
		/>
	<path fill="#3154FF" stroke="#000000" stroke-width="2" stroke-miterlimit="10" d="M95.98,158.852l63.659-36.754V48.591
		L95.98,11.837L32.321,48.591v73.507l34.555,19.95v45.214H91.83c3.876,0,7.018-3.142,7.018-7.019s-3.142-7.019-7.018-7.019h-8.578
		v-21.722L95.98,158.852z"/>
	<g>
		
			<path fill="#FFFFFF" stroke="#1D1D1B" stroke-width="2" stroke-linecap="round" stroke-linejoin="round" stroke-miterlimit="10" d="
			M108.847,83.017v8.159c0,1.135,0.193,2.279,0.695,3.297c1.155,2.34,3.363,3.993,5.956,3.993h0c2.358,0,4.398-1.367,5.572-3.352
			c0.681-1.151,0.957-2.498,0.957-3.835v-8.494c0-1.337-0.276-2.684-0.957-3.835c-1.174-1.985-3.213-3.352-5.572-3.352h0
			c-1.885,0-3.566,0.873-4.787,2.226C109.442,79.23,108.847,81.122,108.847,83.017z"/>
		<ellipse fill="#1D1D1B" cx="117.506" cy="84.738" rx="5.395" ry="6.541"/>
		
			<path fill="#FFFFFF" stroke="#1D1D1B" stroke-width="2" stroke-linecap="round" stroke-linejoin="round" stroke-miterlimit="10" d="
			M71.993,83.017v8.159c0,1.135,0.193,2.279,0.695,3.297c1.155,2.34,3.363,3.993,5.956,3.993h0c2.358,0,4.398-1.367,5.572-3.352
			c0.681-1.151,0.957-2.498,0.957-3.835v-8.494c0-1.337-0.276-2.684-0.957-3.835c-1.174-1.985-3.213-3.352-5.572-3.352h0
			c-1.885,0-3.566,0.873-4.787,2.226C72.587,79.23,71.993,81.122,71.993,83.017z"/>
		<ellipse fill="#1D1D1B" cx="80.535" cy="84.656" rx="5.395" ry="6.541"/>
	</g>
	
		<rect x="14.341" y="80.07" transform="matrix(-0.8966 0.4428 -0.4428 -0.8966 130.6773 201.2005)" fill="#FFFFFF" stroke="#000000" stroke-width="2" stroke-miterlimit="10" width="55.023" height="71.569"/>
	
		<rect x="16.258" y="80.371" transform="matrix(-0.9261 0.3772 -0.3772 -0.9261 128.1216 207.2187)" fill="#FFFFFF" stroke="#000000" stroke-width="2" stroke-miterlimit="10" width="55.023" height="71.569"/>
	<path fill="#FFFFFF" stroke="#000000" stroke-width="2" stroke-miterlimit="10" d="M2.35,99.019l57.266-24.793l7.238,16.717
		c1.229,2.839-0.081,6.149-2.92,7.378l-1.697,0.734l18.918,43.695l-50.42,21.829L2.35,99.019z"/>
	<path fill="#3154FF" stroke="#000000" stroke-width="2" stroke-miterlimit="10" d="M18.239,135.719
		c2.459,1.571,3.845,2.194,7.086,2.475c1.136,0.098,2.294,0.047,3.401-0.232c0.976-0.246,2.093-0.688,3.015-1.482
		c2.15-1.853,7.504-4.021,10.069-3.345c2.565,0.676-0.987,3.999-1.584,4.7c-0.419,0.492-0.468,1.136,0.446,1.576
		c2.69,0.058,4.295-0.042,4.34-0.045c4.066-0.275,7.595,2.793,7.878,6.859c0.038,0.547,0.016,1.085-0.062,1.606
		c-0.496,3.35-3.256,6.025-6.774,6.278c-0.618,0.044-15.345,1.06-32.577-4.044c-9.255-2.741-10.01-22.029-1.273-28.285
		L18.239,135.719z"/>
	<g>
		
			<path fill="#1D1D1B" stroke="#1D1D1B" stroke-width="2" stroke-linecap="round" stroke-linejoin="round" stroke-miterlimit="10" d="
			M275.789,193.096c-4.328-0.089-8.016-3.26-8.156-7.289c-0.151-4.373,3.682-7.907,8.302-7.794c3.306,0.081,5.276-0.606,6.729-0.837
			c-11.901-19.548-13.352-26.746-8.091-33.402l0.117-0.15c1.932-2.983,17.253-26.066,17.911-27.058
			c2.352-3.543,7.341-4.64,11.146-2.45c3.804,2.19,4.982,6.837,2.631,10.379c-0.162,0.245-16.259,24.497-17.858,26.979
			c-0.179,0.276-0.353,0.521-0.512,0.735c0.353,1.805,2.294,7.545,12.426,23.556l3.071,4.804l-2.407,2.69
			c-3.59,4.011-8.327,7.029-13.7,8.52c-2.827,0.784-6.164,1.334-9.962,1.334C276.901,193.113,276.352,193.107,275.789,193.096z
			 M287.444,152.926h0.008H287.444z"/>
		
			<path fill="#1D1D1B" stroke="#1D1D1B" stroke-width="2" stroke-linecap="round" stroke-linejoin="round" stroke-miterlimit="10" d="
			M243,116.701c2.792,1.974,3.634,6.123,1.881,9.264c-2.071,3.713-10.351,16.069-29.957,19.16
			c-14.374,2.266-26.016-0.579-26.504-0.701c-2.78-0.696-4.669-3.469-4.669-6.549c0-0.479,0.046-0.966,0.141-1.453
			c0.707-3.619,3.889-5.909,7.105-5.12c0.035,0.008,1.306,0.312,3.462,0.618c0.782-0.274,0.82-0.859,0.543-1.358
			c-0.394-0.71-2.839-4.173-0.71-4.439c2.129-0.266,6.15,2.397,7.648,4.35c1.498,1.953,4.494,1.953,4.494,1.953l0.019,0.065
			c2.153-0.094,4.443-0.302,6.815-0.676c7.556-1.191,17.172-5.231,21.503-12.996C236.525,115.675,240.209,114.727,243,116.701z"/>
		
			<path fill="#FFFFFF" stroke="#1D1D1B" stroke-width="2" stroke-linecap="round" stroke-linejoin="round" stroke-miterlimit="10" d="
			M381.794,154.803c-0.187-8.988-2.572-15.924-5.44-21.067c0.195-0.761,0.309-1.554,0.309-2.375V10.606
			c0-5.297-4.31-9.606-9.606-9.606H246.302c-5.297,0-9.606,4.31-9.606,9.606V131.36c0,5.297,4.31,9.606,9.606,9.606h70.053v50.097
			h26.838c4.169,0,7.548-3.379,7.548-7.548s-3.38-7.548-7.548-7.548h-9.226v-35h31.507c1.952,4.496,2.82,9.455,2.908,13.677
			c0.05,2.401-0.054,4.698-0.252,6.844l-0.067,0.01c0,0-0.405,2.969-2.543,4.189c-2.138,1.22-5.32,4.845-5.344,6.99
			c-0.024,2.146,3.737,0.192,4.494-0.103c0.532-0.207,1.106-0.091,1.272,0.721c-0.595,2.095-1.067,3.313-1.08,3.346
			c-1.216,3.08,0.622,6.542,4.113,7.732c0.47,0.16,0.946,0.271,1.421,0.336c3.052,0.417,6.055-1.08,7.12-3.741
			C377.703,180.502,382.096,169.351,381.794,154.803z"/>
		<g>
			<g>
				
					<path fill="#FFFFFF" stroke="#1D1D1B" stroke-width="2" stroke-linecap="round" stroke-linejoin="round" stroke-miterlimit="10" d="
					M289.005,81.925c0,4.819-3.906,8.725-8.725,8.725c-4.819,0-8.725-3.906-8.725-8.725c0-4.819,3.906-5.158,8.725-5.158
					C285.099,76.767,289.005,77.106,289.005,81.925z"/>
				<circle fill="#1D1D1B" cx="280.107" cy="81.733" r="5.383"/>
			</g>
			<g>
				
					<path fill="#FFFFFF" stroke="#1D1D1B" stroke-width="2" stroke-linecap="round" stroke-linejoin="round" stroke-miterlimit="10" d="
					M318.894,81.925c0,4.819-3.906,8.725-8.725,8.725c-4.819,0-8.725-3.906-8.725-8.725c0-4.819,3.906-5.158,8.725-5.158
					C314.988,76.767,318.894,77.106,318.894,81.925z"/>
				<circle fill="#1D1D1B" cx="309.996" cy="81.733" r="5.383"/>
			</g>
		</g>
		
			<polygon fill="#FFFFFF" stroke="#1D1D1B" stroke-width="2" stroke-linecap="round" stroke-linejoin="round" stroke-miterlimit="10" points="
			296.163,116.367 376.662,116.367 323.314,132.69 		"/>
		
			<polygon fill="#FFFFFF" stroke="#1D1D1B" stroke-width="2" stroke-linecap="round" stroke-linejoin="round" stroke-miterlimit="10" points="
			292.4,116.367 236.696,116.367 273.612,132.69 		"/>
		<g>
			
				<path fill="#FFFFFF" stroke="#1D1D1B" stroke-width="2" stroke-linecap="round" stroke-linejoin="round" stroke-miterlimit="10" d="
				M295.41,184.741c-1.059,0-2.055-0.413-2.804-1.162l-9.91-9.911c-1.077-1.076-1.441-2.641-0.95-4.083l9.904-34.443
				c0.563-1.654,2.036-2.709,3.76-2.709c1.724,0,3.198,1.054,3.754,2.687l9.918,34.487c0.485,1.42,0.121,2.985-0.957,4.061
				l-9.91,9.911C297.465,184.328,296.469,184.741,295.41,184.741z"/>
			
				<path fill="#FFFFFF" stroke="#1D1D1B" stroke-width="2" stroke-linecap="round" stroke-linejoin="round" stroke-miterlimit="10" d="
				M295.41,138.866c-1.587,0-3.175-0.604-4.383-1.812l-5.82-5.82c-1.171-1.17-1.816-2.727-1.816-4.384
				c0-1.655,0.645-3.213,1.816-4.384l5.82-5.819c1.171-1.171,2.727-1.816,4.383-1.816c1.656,0,3.213,0.645,4.384,1.816l5.82,5.819
				c1.171,1.171,1.816,2.728,1.816,4.384c0,1.656-0.645,3.213-1.816,4.384l-5.82,5.82
				C298.585,138.262,296.997,138.866,295.41,138.866z"/>
		</g>
	</g>
</g>
<g>
</g>
<g>
</g>
<g>
</g>
<g>
</g>
<g>
</g>
<g>
</g>
</svg>
