<?xml version="1.0" encoding="iso-8859-1"?>
<!-- Generator: Adobe Illustrator 25.4.0, SVG Export Plug-In . SVG Version: 6.00 Build 0)  -->
<svg version="1.1" id="Calque_1" xmlns="http://www.w3.org/2000/svg" xmlns:xlink="http://www.w3.org/1999/xlink" x="0px" y="0px"
	 width="391.823px" height="220.498px" viewBox="0 0 391.823 220.498" enable-background="new 0 0 391.823 220.498"
	 xml:space="preserve">
<g>
	
		<path fill="#1D1D1B" stroke="#1D1D1B" stroke-width="2" stroke-linecap="round" stroke-linejoin="round" stroke-miterlimit="10" d="
		M124.388,214.361c4.868,0,9.014-3.721,9.452-8.662c0.463-5.226-3.398-9.838-8.625-10.301c-0.103-0.009-6.382-0.566-12.215-1.094
		c2.241-48.662,8.274-72.112,8.338-72.357c1.333-5.069-1.69-10.266-6.757-11.606c-5.067-1.338-10.26,1.669-11.608,6.734
		c-0.3,1.128-7.376,28.29-9.32,85.534l-0.302,8.89l8.852,0.885c4.292,0.429,20.641,1.878,21.335,1.939
		C123.824,214.348,124.108,214.361,124.388,214.361z"/>
	
		<path fill="#1D1D1B" stroke="#1D1D1B" stroke-width="2" stroke-linecap="round" stroke-linejoin="round" stroke-miterlimit="10" d="
		M134.583,105.629c-5.217,0.562-8.991,5.249-8.427,10.464c0.664,6.163,4.864,27.638,31.007,45.233
		c19.167,12.899,37.588,17.399,38.363,17.584c4.41,1.054,8.829-1.155,10.736-5.069c0.297-0.609,0.532-1.259,0.698-1.945
		c1.228-5.093-1.907-10.221-6.998-11.461c-0.056-0.014-2.062-0.514-5.337-1.627c-0.95-0.894-0.641-1.663,0.064-2.104
		c1.004-0.628,6.645-3.325,3.764-5.147c-2.882-1.823-10.285-1.241-13.639,0.197c-3.353,1.438-7.641-0.651-7.641-0.651l-0.068,0.069
		c-3.023-1.621-6.171-3.48-9.335-5.61c-10.075-6.78-21.335-18.618-22.725-31.507C144.484,108.84,139.799,105.067,134.583,105.629z"
		/>
	<path fill="#7352FF" stroke="#000000" stroke-width="2" stroke-miterlimit="10" d="M160.547,116.648L97.994,6.706
		C95.962,3.133,92.294,1,88.183,1c-4.11,0-7.778,2.133-9.811,5.706L15.819,116.648c-2.01,3.533-1.991,7.742,0.053,11.257
		c2.045,3.515,5.692,5.613,9.758,5.613h31.594c-5.929,8.8-11.815,17.575-12.899,19.374l-0.138,0.188
		c-6.171,8.385-4.469,17.452,9.491,42.079c-1.705,0.292-4.016,1.157-7.894,1.055c-5.42-0.142-9.916,4.31-9.739,9.819
		c0.163,5.075,4.49,9.071,9.567,9.183c0.66,0.014,1.304,0.022,1.933,0.022c4.455,0,8.37-0.693,11.686-1.681
		c6.304-1.878,11.861-5.68,16.071-10.733l2.824-3.389l-3.603-6.052c-11.886-20.17-14.163-27.402-14.577-29.676
		c0.188-0.269,0.392-0.578,0.601-0.926c1.24-2.067,12.206-18.36,19.557-29.263h70.63c4.066,0,7.714-2.098,9.758-5.613
		C162.538,124.39,162.558,120.181,160.547,116.648z"/>
	<g>
		<g>
			
				<path fill="#FFFFFF" stroke="#1D1D1B" stroke-width="2" stroke-linecap="round" stroke-linejoin="round" stroke-miterlimit="10" d="
				M68.762,94.486c-0.086,0-0.172-0.001-0.259-0.002c-3.949-0.065-7.425-1.593-9.788-4.304c-1.614-1.851-1.421-4.659,0.43-6.273
				c1.851-1.613,4.659-1.42,6.272,0.43c0.879,1.009,2.243,1.24,3.231,1.256c2.233,0.047,4.303-0.915,5.153-1.829
				c1.673-1.798,4.486-1.897,6.283-0.225c1.797,1.674,1.897,4.486,0.224,6.283C77.657,92.671,73.149,94.486,68.762,94.486z"/>
			<circle fill="#1D1D1B" cx="76.786" cy="87.122" r="4.73"/>
		</g>
		<g>
			
				<path fill="#FFFFFF" stroke="#1D1D1B" stroke-width="2" stroke-linecap="round" stroke-linejoin="round" stroke-miterlimit="10" d="
				M106.837,94.486c-0.086,0-0.172-0.001-0.259-0.002c-3.949-0.065-7.425-1.593-9.788-4.304c-1.614-1.851-1.421-4.659,0.43-6.273
				c1.851-1.613,4.659-1.42,6.272,0.43c0.879,1.009,2.243,1.24,3.231,1.256c2.233,0.047,4.303-0.915,5.153-1.829
				c1.673-1.798,4.486-1.897,6.283-0.225c1.797,1.674,1.897,4.486,0.224,6.283C115.733,92.671,111.224,94.486,106.837,94.486z"/>
			<circle fill="#1D1D1B" cx="115.266" cy="87.122" r="4.73"/>
		</g>
	</g>
	<g>
		
			<rect x="19.404" y="104.336" transform="matrix(0.1137 -0.9935 0.9935 0.1137 -98.8993 177.5106)" fill="#FFFFFF" stroke="#000000" stroke-width="2" stroke-miterlimit="10" width="61.276" height="79.702"/>
		
			<rect x="17.965" y="105.949" transform="matrix(0.1848 -0.9828 0.9828 0.1848 -103.6669 166.6232)" fill="#FFFFFF" stroke="#000000" stroke-width="2" stroke-miterlimit="10" width="61.276" height="79.702"/>
		<path fill="#FFFFFF" stroke="#000000" stroke-width="2" stroke-miterlimit="10" d="M89.636,117.373l-11.351,68.561l-20.014-3.314
			c-3.399-0.563-5.707-3.786-5.144-7.186l0.336-2.031L1.15,164.742l9.994-60.365L89.636,117.373z"/>
	</g>
	<g>
		
			<path fill="#1D1D1B" stroke="#1D1D1B" stroke-width="2" stroke-linecap="round" stroke-linejoin="round" stroke-miterlimit="10" d="
			M284.803,219.48c-4.328-0.089-8.016-3.26-8.156-7.289c-0.151-4.373,3.682-7.907,8.302-7.794c3.306,0.081,5.276-0.606,6.729-0.837
			c-11.901-19.548-13.352-26.746-8.091-33.402l0.117-0.15c1.932-2.983,17.253-26.066,17.911-27.058
			c2.352-3.543,7.341-4.64,11.146-2.45c3.804,2.19,4.982,6.837,2.631,10.379c-0.162,0.245-16.259,24.497-17.858,26.979
			c-0.179,0.276-0.353,0.521-0.512,0.735c0.353,1.805,2.294,7.545,12.426,23.556l3.071,4.804l-2.407,2.69
			c-3.59,4.011-8.327,7.029-13.7,8.52c-2.827,0.784-6.164,1.334-9.962,1.334C285.915,219.498,285.366,219.492,284.803,219.48z
			 M296.459,179.311h0.008H296.459z"/>
		
			<path fill="#1D1D1B" stroke="#1D1D1B" stroke-width="2" stroke-linecap="round" stroke-linejoin="round" stroke-miterlimit="10" d="
			M252.015,143.085c2.792,1.974,3.634,6.123,1.881,9.264c-2.071,3.713-10.351,16.069-29.957,19.16
			c-14.374,2.266-26.016-0.579-26.504-0.701c-2.78-0.696-4.669-3.469-4.669-6.549c0-0.479,0.046-0.966,0.141-1.453
			c0.707-3.619,3.889-5.909,7.105-5.12c0.035,0.009,1.306,0.312,3.462,0.618c0.782-0.274,0.82-0.859,0.543-1.358
			c-0.394-0.71-2.839-4.173-0.71-4.439c2.129-0.266,6.15,2.397,7.648,4.35c1.498,1.953,4.494,1.953,4.494,1.953l0.019,0.065
			c2.153-0.094,4.443-0.302,6.815-0.676c7.556-1.191,17.172-5.231,21.503-12.996C245.54,142.06,249.223,141.112,252.015,143.085z"/>
		
			<path fill="#FFFFFF" stroke="#1D1D1B" stroke-width="2" stroke-linecap="round" stroke-linejoin="round" stroke-miterlimit="10" d="
			M390.808,181.188c-0.187-8.988-2.572-15.924-5.44-21.067c0.195-0.761,0.309-1.554,0.309-2.375V36.991
			c0-5.297-4.31-9.606-9.606-9.606H255.317c-5.297,0-9.606,4.31-9.606,9.606v120.754c0,5.297,4.31,9.606,9.606,9.606h70.053v50.097
			h26.838c4.169,0,7.548-3.379,7.548-7.548s-3.38-7.548-7.548-7.548h-9.226v-35h31.507c1.952,4.496,2.82,9.455,2.908,13.677
			c0.05,2.401-0.054,4.698-0.252,6.844l-0.067,0.01c0,0-0.405,2.969-2.543,4.189c-2.138,1.22-5.32,4.845-5.344,6.99
			c-0.024,2.146,3.737,0.192,4.494-0.103c0.532-0.207,1.106-0.091,1.272,0.721c-0.595,2.095-1.067,3.313-1.08,3.346
			c-1.216,3.08,0.622,6.542,4.113,7.732c0.47,0.16,0.946,0.271,1.421,0.336c3.052,0.417,6.055-1.08,7.12-3.741
			C386.718,206.886,391.11,195.736,390.808,181.188z"/>
		<g>
			<g>
				
					<path fill="#FFFFFF" stroke="#1D1D1B" stroke-width="2" stroke-linecap="round" stroke-linejoin="round" stroke-miterlimit="10" d="
					M298.02,108.31c0,4.819-3.906,8.725-8.725,8.725c-4.819,0-8.725-3.906-8.725-8.725s3.906-5.158,8.725-5.158
					C294.114,103.152,298.02,103.491,298.02,108.31z"/>
				<circle fill="#1D1D1B" cx="289.122" cy="108.118" r="5.383"/>
			</g>
			<g>
				
					<path fill="#FFFFFF" stroke="#1D1D1B" stroke-width="2" stroke-linecap="round" stroke-linejoin="round" stroke-miterlimit="10" d="
					M327.909,108.31c0,4.819-3.906,8.725-8.725,8.725s-8.725-3.906-8.725-8.725s3.906-5.158,8.725-5.158
					S327.909,103.491,327.909,108.31z"/>
				<circle fill="#1D1D1B" cx="319.011" cy="108.118" r="5.383"/>
			</g>
		</g>
		
			<polygon fill="#FFFFFF" stroke="#1D1D1B" stroke-width="2" stroke-linecap="round" stroke-linejoin="round" stroke-miterlimit="10" points="
			305.177,142.752 385.677,142.752 332.329,159.075 		"/>
		
			<polygon fill="#FFFFFF" stroke="#1D1D1B" stroke-width="2" stroke-linecap="round" stroke-linejoin="round" stroke-miterlimit="10" points="
			301.414,142.752 245.71,142.752 282.626,159.075 		"/>
		<g>
			
				<path fill="#FFFFFF" stroke="#1D1D1B" stroke-width="2" stroke-linecap="round" stroke-linejoin="round" stroke-miterlimit="10" d="
				M304.424,211.125c-1.059,0-2.055-0.413-2.804-1.162l-9.91-9.911c-1.077-1.076-1.441-2.641-0.95-4.083l9.904-34.443
				c0.563-1.654,2.036-2.709,3.76-2.709c1.725,0,3.198,1.054,3.754,2.687l9.918,34.487c0.485,1.42,0.121,2.985-0.957,4.061
				l-9.91,9.911C306.48,210.713,305.484,211.125,304.424,211.125z"/>
			
				<path fill="#FFFFFF" stroke="#1D1D1B" stroke-width="2" stroke-linecap="round" stroke-linejoin="round" stroke-miterlimit="10" d="
				M304.424,165.251c-1.587,0-3.175-0.604-4.383-1.812l-5.82-5.82c-1.171-1.17-1.816-2.727-1.816-4.384
				c0-1.655,0.645-3.212,1.816-4.384l5.82-5.819c1.171-1.171,2.727-1.816,4.383-1.816c1.656,0,3.213,0.645,4.384,1.816l5.82,5.819
				c1.171,1.171,1.816,2.728,1.816,4.384c0,1.656-0.645,3.213-1.816,4.384l-5.82,5.82
				C307.599,164.647,306.012,165.251,304.424,165.251z"/>
		</g>
	</g>
	<path fill="#7352FF" stroke="#000000" stroke-width="2" stroke-miterlimit="10" d="M29.101,93.796
		c-3.247,5.28-13.073,24.832-3.171,54.749c7.259,21.933,19.071,36.768,19.57,37.388c2.841,3.533,7.689,4.492,11.593,2.564
		c0.607-0.3,1.192-0.67,1.743-1.111c4.089-3.275,4.749-9.25,1.482-13.346c-0.036-0.045-1.316-1.668-3.224-4.554
		c-0.204-1.288,0.511-1.708,1.339-1.625c1.178,0.118,7.29,1.439,6.127-1.766c-1.163-3.205-7.374-7.277-10.905-8.193
		c-3.532-0.916-5.644-5.192-5.644-5.192l-0.096,0.013c-1.398-3.132-2.749-6.53-3.947-10.15c-3.816-11.529-4.877-26.515,0.14-34.456"
		/>
</g>
<g>
</g>
<g>
</g>
<g>
</g>
<g>
</g>
<g>
</g>
<g>
</g>
</svg>
