<?xml version="1.0" encoding="iso-8859-1"?>
<!-- Generator: Adobe Illustrator 25.4.0, SVG Export Plug-In . SVG Version: 6.00 Build 0)  -->
<svg version="1.1" id="Calque_1" xmlns="http://www.w3.org/2000/svg" xmlns:xlink="http://www.w3.org/1999/xlink" x="0px" y="0px"
	 width="383.593px" height="217.808px" viewBox="0 0 383.593 217.808" enable-background="new 0 0 383.593 217.808"
	 xml:space="preserve">
<g>
	
		<path fill="#1D1D1B" stroke="#1D1D1B" stroke-width="2" stroke-linecap="round" stroke-linejoin="round" stroke-miterlimit="10" d="
		M142.297,213.121c5.16-0.507,9.167-4.883,9.116-10.166c-0.054-5.588-4.627-10.074-10.215-10.02
		c-0.11,0.001-6.824,0.065-13.061,0.114c-2.696-51.813,1.256-77.298,1.298-77.564c0.884-5.512-2.861-10.706-8.371-11.598
		c-5.51-0.89-10.701,2.839-11.602,8.347c-0.201,1.227-4.87,30.755-0.966,91.634l0.607,9.455l9.475,0.016
		c4.595,0.007,22.074-0.16,22.816-0.168C141.697,213.167,141.999,213.15,142.297,213.121z"/>
	
		<path fill="#1D1D1B" stroke="#1D1D1B" stroke-width="2" stroke-linecap="round" stroke-linejoin="round" stroke-miterlimit="10" d="
		M138.37,123.563c-5.487-10.661-7.897-21.917-7.163-33.455c0.371-5.858,5.657-10.231,11.582-9.367
		c5.239,0.764,8.902,5.623,8.597,10.908c-0.696,12.099,3.546,28.904,24.882,45.349c2.896,0.841,8.646-0.886,12.458,0.187
		c3.995,1.125,7.079,3.263,7.679,4.085c0.601,0.822,0.728,3.229-5.605,2.117c-0.022-0.004-0.044-0.008-0.066-0.011
		c-1.531-0.262-2.26,1.836-0.915,2.614c0.269,0.155,0.544,0.302,0.813,0.465c9.959,6.06,10.656,11.271,7.899,16.131
		c-0.032,0.056-0.065,0.113-0.098,0.168c-2.804,4.731-9.609,5.95-17.789,1.301C160.56,152.642,146.33,139.031,138.37,123.563z"/>
	
		<path fill="#FFEE1A" stroke="#1D1D1B" stroke-width="2" stroke-linecap="round" stroke-linejoin="round" stroke-miterlimit="10" d="
		M99.229,123.509c33.83,0,61.255-27.425,61.255-61.255C160.484,28.425,133.059,1,99.229,1S37.975,28.425,37.975,62.255
		c0,25.319,15.363,47.046,37.273,56.378c-1.101,8.869-3.824,37.833-0.561,88.704l0.607,9.455l9.475,0.016
		c4.595,0.007,22.074-0.16,22.816-0.167c0.304-0.003,0.607-0.019,0.904-0.049c5.16-0.507,9.167-4.883,9.116-10.166
		c-0.054-5.588-4.627-10.074-10.215-10.02c-0.11,0.001-6.824,0.065-13.061,0.114c-2.062-39.636-0.235-63.846,0.757-73.165
		C96.456,123.446,97.835,123.509,99.229,123.509z"/>
	
		<path fill="#FFFFFF" stroke="#1D1D1B" stroke-width="2" stroke-linecap="round" stroke-linejoin="round" stroke-miterlimit="10" d="
		M83.36,65.021h-8.17c-1.137,0-2.282-0.193-3.301-0.696c-2.343-1.157-3.999-3.367-3.999-5.964v0c0-2.362,1.369-4.404,3.356-5.579
		c1.153-0.682,2.501-0.958,3.84-0.958h8.505c1.339,0,2.688,0.276,3.84,0.958c1.988,1.175,3.356,3.217,3.356,5.579v0
		c0,1.888-0.874,3.571-2.229,4.794C87.151,64.426,85.257,65.021,83.36,65.021z"/>
	<circle fill="#1D1D1B" cx="84.547" cy="58.413" r="6.55"/>
	
		<path fill="#FFFFFF" stroke="#1D1D1B" stroke-width="2" stroke-linecap="round" stroke-linejoin="round" stroke-miterlimit="10" d="
		M125.832,65.021h-8.17c-1.137,0-2.282-0.193-3.301-0.696c-2.343-1.157-3.999-3.367-3.999-5.964v0c0-2.362,1.369-4.404,3.356-5.579
		c1.153-0.682,2.501-0.958,3.84-0.958h8.505c1.339,0,2.688,0.276,3.84,0.958c1.988,1.175,3.356,3.217,3.356,5.579v0
		c0,1.888-0.874,3.571-2.229,4.794C129.624,64.426,127.73,65.021,125.832,65.021z"/>
	<circle fill="#1D1D1B" cx="127.019" cy="58.413" r="6.55"/>
	<g>
		
			<rect x="19.404" y="92.074" transform="matrix(0.1137 -0.9935 0.9935 0.1137 -86.7174 166.6432)" fill="#FFFFFF" stroke="#000000" stroke-width="2" stroke-miterlimit="10" width="61.276" height="79.702"/>
		
			<rect x="17.965" y="93.687" transform="matrix(0.1848 -0.9828 0.9828 0.1848 -91.6167 156.6276)" fill="#FFFFFF" stroke="#000000" stroke-width="2" stroke-miterlimit="10" width="61.276" height="79.702"/>
		<path fill="#FFFFFF" stroke="#000000" stroke-width="2" stroke-miterlimit="10" d="M89.636,105.111l-11.351,68.561l-20.014-3.314
			c-3.399-0.563-5.707-3.786-5.144-7.186l0.336-2.031L1.15,152.481l9.994-60.365L89.636,105.111z"/>
	</g>
	
		<path fill="#FFEE1A" stroke="#1D1D1B" stroke-width="2" stroke-linecap="round" stroke-linejoin="round" stroke-miterlimit="10" d="
		M39.344,70.341c-5.221,4.04-24.244,29.55-19.955,62.838c3.144,24.405,12.487,42.311,12.883,43.061
		c2.255,4.27,7.129,6.255,11.601,5.031c0.696-0.19,1.382-0.459,2.047-0.808c4.94-2.596,6.841-8.709,4.256-13.654
		c-0.028-0.054-1.038-2.011-2.447-5.415c0.048-1.388,0.881-1.682,1.729-1.428c1.208,0.362,7.331,2.983,6.764-0.604
		c-0.566-3.587-6.234-9.104-9.742-10.777c-3.507-1.673-4.848-6.573-4.848-6.573l-0.103-0.006c-0.827-3.558-1.551-7.385-2.07-11.413
		c-1.653-12.828-1.915-27.951,7.424-38.12"/>
	<g>
		
			<path fill="#1D1D1B" stroke="#1D1D1B" stroke-width="2" stroke-linecap="round" stroke-linejoin="round" stroke-miterlimit="10" d="
			M276.574,216.791c-4.328-0.089-8.016-3.26-8.156-7.289c-0.151-4.373,3.682-7.907,8.302-7.794c3.306,0.081,5.276-0.606,6.729-0.837
			c-11.901-19.548-13.352-26.746-8.091-33.402l0.117-0.15c1.932-2.983,17.253-26.066,17.911-27.058
			c2.352-3.543,7.341-4.64,11.146-2.45c3.804,2.19,4.982,6.837,2.631,10.379c-0.162,0.245-16.259,24.497-17.858,26.979
			c-0.179,0.276-0.353,0.521-0.512,0.735c0.353,1.805,2.294,7.545,12.426,23.556l3.071,4.804l-2.407,2.69
			c-3.59,4.011-8.327,7.029-13.7,8.52c-2.827,0.784-6.164,1.334-9.962,1.334C277.685,216.808,277.136,216.803,276.574,216.791z
			 M288.229,176.622h0.008H288.229z"/>
		
			<path fill="#1D1D1B" stroke="#1D1D1B" stroke-width="2" stroke-linecap="round" stroke-linejoin="round" stroke-miterlimit="10" d="
			M250.169,146.232c2.55,2.278,2.914,6.496,0.815,9.418c-2.479,3.454-12.11,14.788-31.941,15.629
			c-14.538,0.617-25.781-3.533-26.253-3.71c-2.683-1.007-4.244-3.978-3.894-7.038c0.054-0.476,0.155-0.954,0.305-1.428
			c1.114-3.515,4.536-5.429,7.641-4.279c0.034,0.012,1.262,0.458,3.369,1.008c0.808-0.183,0.912-0.76,0.694-1.287
			c-0.311-0.75-2.346-4.468-0.2-4.491c2.145-0.023,5.838,3.081,7.104,5.192c1.266,2.111,4.243,2.452,4.243,2.452l0.012,0.067
			c2.15,0.151,4.448,0.205,6.848,0.104c7.642-0.324,17.655-3.244,22.841-10.467C243.853,144.477,247.62,143.954,250.169,146.232z"/>
		
			<path fill="#FFFFFF" stroke="#1D1D1B" stroke-width="2" stroke-linecap="round" stroke-linejoin="round" stroke-miterlimit="10" d="
			M382.578,178.498c-0.187-8.988-2.572-15.924-5.44-21.067c0.195-0.761,0.309-1.554,0.309-2.375V34.302
			c0-5.297-4.31-9.606-9.606-9.606H247.087c-5.297,0-9.606,4.31-9.606,9.606v120.754c0,5.297,4.31,9.606,9.606,9.606h70.053v50.097
			h26.838c4.169,0,7.548-3.379,7.548-7.548s-3.38-7.548-7.548-7.548h-9.226v-35h31.507c1.952,4.496,2.82,9.455,2.908,13.677
			c0.05,2.401-0.054,4.698-0.252,6.844l-0.067,0.01c0,0-0.405,2.969-2.543,4.189c-2.138,1.22-5.32,4.845-5.344,6.99
			c-0.024,2.146,3.737,0.192,4.494-0.103c0.532-0.207,1.106-0.091,1.272,0.721c-0.595,2.095-1.067,3.313-1.08,3.346
			c-1.216,3.08,0.622,6.542,4.113,7.732c0.47,0.16,0.946,0.271,1.421,0.336c3.052,0.417,6.055-1.08,7.12-3.741
			C378.488,204.197,382.88,193.047,382.578,178.498z"/>
		<g>
			<g>
				
					<path fill="#FFFFFF" stroke="#1D1D1B" stroke-width="2" stroke-linecap="round" stroke-linejoin="round" stroke-miterlimit="10" d="
					M289.79,105.62c0,4.819-3.906,8.725-8.725,8.725c-4.819,0-8.725-3.906-8.725-8.725c0-4.819,3.906-5.158,8.725-5.158
					C285.884,100.462,289.79,100.801,289.79,105.62z"/>
				<circle fill="#1D1D1B" cx="280.892" cy="105.429" r="5.383"/>
			</g>
			<g>
				
					<path fill="#FFFFFF" stroke="#1D1D1B" stroke-width="2" stroke-linecap="round" stroke-linejoin="round" stroke-miterlimit="10" d="
					M319.679,105.62c0,4.819-3.906,8.725-8.725,8.725c-4.819,0-8.725-3.906-8.725-8.725c0-4.819,3.906-5.158,8.725-5.158
					C315.773,100.462,319.679,100.801,319.679,105.62z"/>
				<circle fill="#1D1D1B" cx="310.781" cy="105.429" r="5.383"/>
			</g>
		</g>
		
			<polygon fill="#FFFFFF" stroke="#1D1D1B" stroke-width="2" stroke-linecap="round" stroke-linejoin="round" stroke-miterlimit="10" points="
			296.948,140.063 377.447,140.063 324.099,156.385 		"/>
		
			<polygon fill="#FFFFFF" stroke="#1D1D1B" stroke-width="2" stroke-linecap="round" stroke-linejoin="round" stroke-miterlimit="10" points="
			293.184,140.063 237.48,140.063 274.396,156.385 		"/>
		<g>
			
				<path fill="#FFFFFF" stroke="#1D1D1B" stroke-width="2" stroke-linecap="round" stroke-linejoin="round" stroke-miterlimit="10" d="
				M296.194,208.436c-1.059,0-2.055-0.413-2.804-1.162l-9.91-9.911c-1.077-1.076-1.441-2.641-0.95-4.083l9.904-34.443
				c0.563-1.654,2.036-2.709,3.76-2.709c1.724,0,3.198,1.054,3.754,2.687l9.918,34.487c0.485,1.42,0.121,2.985-0.957,4.061
				l-9.91,9.911C298.25,208.023,297.254,208.436,296.194,208.436z"/>
			
				<path fill="#FFFFFF" stroke="#1D1D1B" stroke-width="2" stroke-linecap="round" stroke-linejoin="round" stroke-miterlimit="10" d="
				M296.194,162.561c-1.587,0-3.175-0.604-4.383-1.812l-5.82-5.82c-1.171-1.17-1.816-2.727-1.816-4.384
				c0-1.655,0.645-3.213,1.816-4.384l5.82-5.819c1.171-1.171,2.727-1.816,4.383-1.816c1.656,0,3.213,0.645,4.384,1.816l5.82,5.819
				c1.171,1.171,1.816,2.728,1.816,4.384c0,1.656-0.645,3.213-1.816,4.384l-5.82,5.82
				C299.37,161.958,297.782,162.561,296.194,162.561z"/>
		</g>
	</g>
</g>
<g>
</g>
<g>
</g>
<g>
</g>
<g>
</g>
<g>
</g>
<g>
</g>
</svg>
