<?xml version="1.0" encoding="iso-8859-1"?>
<!-- Generator: Adobe Illustrator 25.4.0, SVG Export Plug-In . SVG Version: 6.00 Build 0)  -->
<svg version="1.1" id="Calque_1" xmlns="http://www.w3.org/2000/svg" xmlns:xlink="http://www.w3.org/1999/xlink" x="0px" y="0px"
	 width="374.82px" height="228.012px" viewBox="0 0 374.82 228.012" enable-background="new 0 0 374.82 228.012"
	 xml:space="preserve">
<g>
	
		<path fill="#1D1D1B" stroke="#1D1D1B" stroke-width="2" stroke-linecap="round" stroke-linejoin="round" stroke-miterlimit="10" d="
		M132.461,94.826c-4.448,0.391-7.737,4.315-7.345,8.761c0.462,5.254,3.675,23.595,25.623,39.003
		c16.091,11.296,31.688,15.432,32.344,15.603c3.734,0.971,7.531-0.835,9.219-4.133c0.263-0.513,0.474-1.062,0.627-1.643
		c1.13-4.313-1.452-8.728-5.762-9.868c-0.047-0.013-1.745-0.471-4.513-1.474c-0.793-0.776-0.518-1.426,0.09-1.789
		c0.865-0.517,5.71-2.717,3.288-4.316c-2.421-1.599-8.73-1.228-11.607-0.06c-2.877,1.167-6.49-0.682-6.49-0.682l-0.059,0.058
		c-2.545-1.429-5.192-3.064-7.848-4.929c-8.458-5.937-17.84-16.197-18.806-27.186C140.831,97.723,136.908,94.435,132.461,94.826z"/>
	
		<path fill="#1D1D1B" stroke="#1D1D1B" stroke-width="2" stroke-linecap="round" stroke-linejoin="round" stroke-miterlimit="10" d="
		M140.504,223.014c-4.116,0-7.734-0.64-10.798-1.553c-5.825-1.735-10.959-5.249-14.85-9.918l-2.609-3.131l3.329-5.592
		c10.983-18.638,13.086-25.319,13.469-27.421c-0.173-0.249-0.362-0.534-0.555-0.855c-1.733-2.889-24.046-35.879-24.222-36.163
		c-2.549-4.124-1.272-9.533,2.852-12.082c4.125-2.55,9.532-1.272,12.082,2.852c0.713,1.155,22.185,32.784,24.279,36.256l0.127,0.174
		c5.702,7.748,4.13,16.126-8.77,38.881c1.575,0.269,3.711,1.069,7.294,0.975c5.008-0.131,9.163,3.982,8.999,9.073
		c-0.151,4.69-4.149,8.382-8.84,8.485C141.681,223.007,141.085,223.014,140.504,223.014z M129.648,176.235"/>
	<path fill="#FF6700" stroke="#000000" stroke-width="2" stroke-miterlimit="10" d="M162.118,72.436l-55.384-69.16
		c-3.034-3.034-7.97-3.034-11.004,0l-55.384,69.16c-3.034,3.034-3.034,7.97,0,11.004l36.676,45.798
		c-0.741,1.191-1.209,2.576-1.304,4.074c-0.021,0.334-0.916,40.15-1.175,43.51c-0.028,0.375-0.04,0.716-0.042,1.019
		c-1.528,1.492-7.111,5.724-26.853,14.567l-5.951,2.634l0.316,4.064c0.471,6.059,2.625,11.896,6.371,16.682
		c1.971,2.518,4.55,5.133,7.907,7.515c0.474,0.336,0.964,0.676,1.469,1.017c3.885,2.63,9.283,1.933,12.12-1.804
		c3.08-4.057,2.072-9.816-2.088-12.607c-2.977-1.996-4.256-3.885-5.384-5.016c23.689-11.092,29.82-17.015,29.653-26.633
		l-0.003-0.216c0.182-2.438,0.542-17.295,0.819-29.01l2.854,3.564c3.034,3.034,7.97,3.034,11.004,0l55.384-69.16
		C165.151,80.406,165.151,75.469,162.118,72.436z"/>
	<g>
		<g>
			
				<path fill="#FFFFFF" stroke="#1D1D1B" stroke-width="2" stroke-linecap="round" stroke-linejoin="round" stroke-miterlimit="10" d="
				M96.88,86.518c2.571,0,4.32-2.699,3.182-5.005c-1.848-3.747-5.706-6.324-10.167-6.324s-8.319,2.578-10.167,6.324
				c-1.138,2.306,0.611,5.005,3.182,5.005H96.88z"/>
			<circle fill="#1D1D1B" cx="95.246" cy="82.171" r="4.917"/>
		</g>
		<g>
			
				<path fill="#FFFFFF" stroke="#1D1D1B" stroke-width="2" stroke-linecap="round" stroke-linejoin="round" stroke-miterlimit="10" d="
				M132.392,86.518c2.572,0,4.32-2.699,3.182-5.005c-1.848-3.747-5.706-6.324-10.167-6.324s-8.319,2.578-10.167,6.324
				c-1.137,2.306,0.611,5.005,3.182,5.005H132.392z"/>
			<circle fill="#1D1D1B" cx="130.758" cy="82.171" r="4.917"/>
		</g>
	</g>
	<g>
		
			<rect x="19.309" y="84.985" transform="matrix(0.2634 -0.9647 0.9647 0.2634 -81.5288 132.3149)" fill="#FFFFFF" stroke="#000000" stroke-width="2" stroke-miterlimit="10" width="53.139" height="69.119"/>
		
			<rect x="17.863" y="86.178" transform="matrix(0.332 -0.9433 0.9433 0.332 -84.2081 122.5599)" fill="#FFFFFF" stroke="#000000" stroke-width="2" stroke-miterlimit="10" width="53.139" height="69.119"/>
		<path fill="#FFFFFF" stroke="#000000" stroke-width="2" stroke-miterlimit="10" d="M83.351,101.781l-18.768,57.27l-16.718-5.479
			c-2.839-0.93-4.392-3.998-3.462-6.837l0.556-1.697l-43.698-14.32l16.524-50.423L83.351,101.781z"/>
	</g>
	<path fill="#FF6700" stroke="#000000" stroke-width="2" stroke-linecap="round" stroke-miterlimit="10" d="M40.345,72.436
		c-3.676,3.782-15.463,18.198-12.789,44.88c1.96,19.562,9.018,34.073,9.318,34.681c1.705,3.461,5.552,5.157,9.152,4.28
		c0.56-0.136,1.114-0.335,1.653-0.599c4.004-1.962,5.66-6.801,3.707-10.809c-0.021-0.044-0.783-1.629-1.832-4.38
		c0.07-1.108,0.741-1.323,1.413-1.101c0.957,0.317,5.787,2.547,5.416-0.33c-0.371-2.878-4.774-7.411-7.537-8.827
		c-2.763-1.415-3.724-5.359-3.724-5.359l-0.082-0.007c-0.58-2.86-1.072-5.933-1.396-9.162c-0.862-8.604,0.144-19.674,4.999-27.694"
		/>
	<g>
		
			<path fill="#1D1D1B" stroke="#1D1D1B" stroke-width="2" stroke-linecap="round" stroke-linejoin="round" stroke-miterlimit="10" d="
			M267.8,226.994c-4.328-0.089-8.016-3.26-8.156-7.289c-0.151-4.373,3.682-7.907,8.302-7.794c3.306,0.081,5.276-0.606,6.729-0.837
			c-11.901-19.548-13.352-26.746-8.091-33.402l0.117-0.15c1.932-2.983,17.253-26.066,17.911-27.058
			c2.352-3.543,7.341-4.64,11.146-2.45c3.804,2.19,4.982,6.837,2.631,10.379c-0.162,0.245-16.259,24.497-17.858,26.979
			c-0.179,0.276-0.353,0.521-0.512,0.735c0.353,1.805,2.294,7.545,12.426,23.556l3.071,4.804l-2.407,2.69
			c-3.59,4.011-8.327,7.029-13.7,8.52c-2.827,0.784-6.164,1.334-9.962,1.334C268.912,227.012,268.363,227.006,267.8,226.994z
			 M279.456,186.825h0.008H279.456z"/>
		
			<path fill="#1D1D1B" stroke="#1D1D1B" stroke-width="2" stroke-linecap="round" stroke-linejoin="round" stroke-miterlimit="10" d="
			M237.442,152.15c1.873,2.861,1.133,7.029-1.651,9.308c-3.289,2.694-15.527,11.148-34.898,6.826
			c-14.202-3.169-23.987-10.089-24.396-10.382c-2.331-1.668-3.07-4.941-1.939-7.806c0.176-0.446,0.397-0.882,0.664-1.3
			c1.987-3.107,5.787-4.069,8.489-2.155c0.03,0.021,1.1,0.77,2.993,1.846c0.828,0.032,1.078-0.498,1.003-1.064
			c-0.106-0.805-1.109-4.923,0.969-4.39c2.078,0.534,4.841,4.487,5.518,6.854c0.677,2.367,3.464,3.467,3.464,3.467l-0.006,0.068
			c2.037,0.703,4.243,1.35,6.588,1.873c7.465,1.666,17.893,1.438,24.772-4.196C231.795,148.819,235.57,149.29,237.442,152.15z"/>
		
			<path fill="#FFFFFF" stroke="#1D1D1B" stroke-width="2" stroke-linecap="round" stroke-linejoin="round" stroke-miterlimit="10" d="
			M373.805,188.702c-0.187-8.988-2.572-15.924-5.44-21.067c0.195-0.761,0.309-1.554,0.309-2.375V44.505
			c0-5.297-4.31-9.606-9.606-9.606H238.314c-5.297,0-9.606,4.31-9.606,9.606v120.754c0,5.297,4.31,9.606,9.606,9.606h70.053v50.097
			h26.838c4.169,0,7.548-3.379,7.548-7.548s-3.38-7.548-7.548-7.548h-9.226v-35h31.507c1.952,4.496,2.82,9.455,2.908,13.677
			c0.05,2.401-0.054,4.698-0.252,6.844l-0.067,0.01c0,0-0.405,2.969-2.543,4.189c-2.138,1.22-5.32,4.845-5.344,6.99
			c-0.024,2.146,3.737,0.192,4.494-0.103c0.532-0.207,1.106-0.091,1.272,0.721c-0.595,2.095-1.067,3.313-1.08,3.346
			c-1.216,3.08,0.622,6.542,4.113,7.732c0.47,0.16,0.946,0.271,1.421,0.336c3.052,0.417,6.055-1.08,7.12-3.741
			C369.715,214.4,374.107,203.25,373.805,188.702z"/>
		<g>
			<g>
				
					<path fill="#FFFFFF" stroke="#1D1D1B" stroke-width="2" stroke-linecap="round" stroke-linejoin="round" stroke-miterlimit="10" d="
					M281.017,115.824c0,4.819-3.906,8.725-8.725,8.725c-4.819,0-8.725-3.906-8.725-8.725c0-4.819,3.906-5.158,8.725-5.158
					C277.111,110.666,281.017,111.005,281.017,115.824z"/>
				<circle fill="#1D1D1B" cx="272.119" cy="115.632" r="5.383"/>
			</g>
			<g>
				
					<path fill="#FFFFFF" stroke="#1D1D1B" stroke-width="2" stroke-linecap="round" stroke-linejoin="round" stroke-miterlimit="10" d="
					M310.906,115.824c0,4.819-3.906,8.725-8.725,8.725c-4.819,0-8.725-3.906-8.725-8.725c0-4.819,3.906-5.158,8.725-5.158
					C306.999,110.666,310.906,111.005,310.906,115.824z"/>
				<circle fill="#1D1D1B" cx="302.008" cy="115.632" r="5.383"/>
			</g>
		</g>
		
			<polygon fill="#FFFFFF" stroke="#1D1D1B" stroke-width="2" stroke-linecap="round" stroke-linejoin="round" stroke-miterlimit="10" points="
			288.174,150.266 368.674,150.266 315.326,166.589 		"/>
		
			<polygon fill="#FFFFFF" stroke="#1D1D1B" stroke-width="2" stroke-linecap="round" stroke-linejoin="round" stroke-miterlimit="10" points="
			284.411,150.266 228.707,150.266 265.623,166.589 		"/>
		<g>
			
				<path fill="#FFFFFF" stroke="#1D1D1B" stroke-width="2" stroke-linecap="round" stroke-linejoin="round" stroke-miterlimit="10" d="
				M287.421,218.639c-1.059,0-2.055-0.413-2.804-1.162l-9.91-9.911c-1.077-1.076-1.441-2.641-0.95-4.083l9.904-34.443
				c0.563-1.654,2.036-2.709,3.76-2.709c1.724,0,3.198,1.054,3.754,2.687l9.918,34.487c0.485,1.42,0.121,2.985-0.957,4.061
				l-9.91,9.911C289.477,218.227,288.48,218.639,287.421,218.639z"/>
			
				<path fill="#FFFFFF" stroke="#1D1D1B" stroke-width="2" stroke-linecap="round" stroke-linejoin="round" stroke-miterlimit="10" d="
				M287.421,172.765c-1.587,0-3.175-0.604-4.383-1.812l-5.82-5.82c-1.171-1.17-1.816-2.727-1.816-4.384
				c0-1.655,0.645-3.212,1.816-4.384l5.82-5.819c1.171-1.171,2.727-1.816,4.383-1.816c1.656,0,3.213,0.645,4.384,1.816l5.82,5.819
				c1.171,1.171,1.816,2.728,1.816,4.384c0,1.656-0.645,3.213-1.816,4.384l-5.82,5.82
				C290.596,172.161,289.009,172.765,287.421,172.765z"/>
		</g>
	</g>
</g>
<g>
</g>
<g>
</g>
<g>
</g>
<g>
</g>
<g>
</g>
<g>
</g>
</svg>
