<svg width="130" height="81" viewBox="0 0 130 81" fill="none" xmlns="http://www.w3.org/2000/svg">
<path d="M77.014 56.4594C71.883 56.4594 67.3993 53.7612 65.0022 49.7624C62.6051 53.7612 58.1214 56.4594 52.9904 56.4594H33.4022C25.7472 56.4594 19.54 50.4864 19.54 43.12V24.2749C19.54 16.9086 25.7472 10.9355 33.4022 10.9355H52.986C58.117 10.9355 62.6007 13.6337 64.9978 17.6326C67.3949 13.6337 71.8786 10.9355 77.0097 10.9355H103.286C107.245 10.9355 110.456 14.0252 110.456 17.8346V49.5603C110.456 53.3697 107.245 56.4594 103.286 56.4594H77.014Z" fill="#AF4E4E"/>
<path d="M26.1716 60.5716V64.6041C26.1716 68.3925 24.8287 69.2891 21.3423 69.2891C20.7256 69.2891 19.8638 69.2049 19.6101 69.1418V66.3931C19.8594 66.431 20.5637 66.452 21.3161 66.452C22.6721 66.452 23.0352 66.0648 23.0352 64.5999V60.5674H26.1716V60.5716Z" fill="#AF4E4E"/>
<path d="M28.4288 63.7082H26.8584V60.5723H29.1812L28.4288 63.7082Z" fill="#AF4E4E"/>
<path d="M29.6841 60.5723H39.0451V63.3799H35.935V69.1677H32.7986V63.3799H29.6885V60.5723H29.6841Z" fill="#AF4E4E"/>
<path d="M41.241 63.7082H39.6707V60.5723H41.9934L41.241 63.7082Z" fill="#AF4E4E"/>
<path d="M42.6321 60.5723H50.414V63.2368H45.7728V63.9987H50.2171V65.695H45.7728V66.5074H50.414V69.1719H42.6321V60.5723Z" fill="#AF4E4E"/>
<path d="M54.5432 60.5723L56.0217 62.4749L57.5002 60.5723H61.2403L57.9027 64.8826L61.2403 69.1677H57.4871L56.0305 67.2904L54.5738 69.1677H50.8207L54.1451 64.8826L50.7944 60.5723H54.5432Z" fill="#AF4E4E"/>
<path d="M64.7572 67.0125V69.1677H61.6208V60.5723H65.9995C69.1009 60.5723 70.4526 61.8056 70.4526 63.7671C70.4526 65.9223 69.0965 67.0125 65.9995 67.0125H64.7572ZM67.1937 63.7798C67.1937 63.3673 66.9313 63.1147 65.9995 63.1147H64.7572V64.4701H65.9995C66.9531 64.4701 67.1937 64.2049 67.1937 63.7798Z" fill="#AF4E4E"/>
<path d="M70.9558 60.5723H74.0922V66.3854H78.2828V69.1719H70.9558V60.5723Z" fill="#AF4E4E"/>
<path d="M82.0009 69.1677H78.8645V60.5723H82.0009V69.1677Z" fill="#AF4E4E"/>
<path d="M87.5473 60.4541C90.4825 60.4541 92.4903 62.1631 92.4903 64.8739C92.4903 66.1704 92.101 67.1974 91.4098 67.9257L92.0616 68.5571L91.3486 69.2474L90.6312 68.5571C89.8176 69.0411 88.7634 69.2937 87.543 69.2937C84.7696 69.2937 82.5737 67.791 82.5737 64.8739C82.5781 62.121 84.774 60.4541 87.5473 60.4541ZM87.5473 66.5408C87.8623 66.5408 88.151 66.4903 88.3872 66.3851L87.8492 65.8757L88.5665 65.1854L89.1177 65.72C89.2314 65.4758 89.2927 65.198 89.2927 64.8739C89.2927 63.8805 88.6278 63.2028 87.5473 63.2028C86.4931 63.2028 85.7888 63.8679 85.7888 64.8739C85.7888 65.9136 86.4931 66.5408 87.5473 66.5408Z" fill="#AF4E4E"/>
<path d="M102.105 60.5723V65.2573C102.105 68.0186 100.299 69.2898 97.5516 69.2898C94.9533 69.2898 93.033 68.0059 93.033 65.2573V60.5723H96.1693V65.3288C96.1693 66.0907 96.8211 66.5032 97.5604 66.5032C98.2734 66.5032 98.9645 66.0907 98.9645 65.3288V60.5723H102.105Z" fill="#AF4E4E"/>
<path d="M102.844 60.5723H110.626V63.2368H105.985V63.9987H110.43V65.695H105.985V66.5074H110.626V69.1719H102.844V60.5723Z" fill="#AF4E4E"/>
<path d="M23.0396 24.1361V43.0318C23.0396 48.5544 27.6807 53.0331 33.4067 53.0331H52.9904C58.7164 53.0331 63.3575 48.5544 63.3575 43.0318V24.1361C63.3575 18.6135 58.7164 14.1348 52.9904 14.1348H33.4023C27.6807 14.1348 23.0396 18.6135 23.0396 24.1361ZM44.8455 43.2001C44.8455 44.0757 44.1018 44.7913 43.1964 44.7913C42.2909 44.7913 41.5472 44.0757 41.5472 43.2001V23.9677C41.5472 23.0922 42.2909 22.3766 43.1964 22.3766C44.1018 22.3766 44.8455 23.0922 44.8455 23.9677V43.2001Z" fill="#EC8989"/>
<path d="M85.8239 34.4574C85.4915 34.1375 85.334 33.7081 85.3471 33.2872C85.334 32.8662 85.4915 32.4369 85.8239 32.117L104.458 14.1348H77.0185C71.2925 14.1348 66.6514 18.6135 66.6514 24.1361V43.0318C66.6514 48.5544 71.2925 53.0331 77.0185 53.0331H105.08L85.8239 34.4574Z" fill="#EC8989"/>
<path d="M106.961 50.3564V16.2188L89.2754 33.2876L106.961 50.3564Z" fill="#EC8989"/>
</svg>
