<svg width="130" height="81" viewBox="0 0 130 81" fill="none" xmlns="http://www.w3.org/2000/svg">
<path d="M77.014 56.4594C71.883 56.4594 67.3993 53.7612 65.0022 49.7624C62.6051 53.7612 58.1214 56.4594 52.9904 56.4594H33.4022C25.7472 56.4594 19.54 50.4864 19.54 43.12V24.2749C19.54 16.9086 25.7472 10.9355 33.4022 10.9355H52.986C58.117 10.9355 62.6007 13.6337 64.9978 17.6326C67.3949 13.6337 71.8786 10.9355 77.0097 10.9355H103.286C107.245 10.9355 110.456 14.0252 110.456 17.8346V49.5603C110.456 53.3697 107.245 56.4594 103.286 56.4594H77.014Z" fill="#57517D"/>
<path d="M26.1714 60.5716V64.6041C26.1714 68.3925 24.8285 69.2891 21.3422 69.2891C20.7254 69.2891 19.8637 69.2049 19.61 69.1418V66.3931C19.8593 66.431 20.5636 66.452 21.316 66.452C22.672 66.452 23.0351 66.0648 23.0351 64.5999V60.5674H26.1714V60.5716Z" fill="#57517D"/>
<path d="M28.4285 63.7082H26.8582V60.5723H29.1809L28.4285 63.7082Z" fill="#57517D"/>
<path d="M29.684 60.5723H39.045V63.3799H35.9348V69.1677H32.7985V63.3799H29.6883V60.5723H29.684Z" fill="#57517D"/>
<path d="M41.2409 63.7082H39.6705V60.5723H41.9933L41.2409 63.7082Z" fill="#57517D"/>
<path d="M42.632 60.5723H50.4139V63.2368H45.7727V63.9987H50.217V65.695H45.7727V66.5074H50.4139V69.1719H42.632V60.5723Z" fill="#57517D"/>
<path d="M54.5432 60.5723L56.0217 62.4749L57.5002 60.5723H61.2403L57.9027 64.8826L61.2403 69.1677H57.4871L56.0305 67.2904L54.5738 69.1677H50.8207L54.1451 64.8826L50.7944 60.5723H54.5432Z" fill="#57517D"/>
<path d="M64.7572 67.0125V69.1677H61.6208V60.5723H65.9995C69.1009 60.5723 70.4526 61.8056 70.4526 63.7671C70.4526 65.9223 69.0965 67.0125 65.9995 67.0125H64.7572ZM67.1937 63.7798C67.1937 63.3673 66.9313 63.1147 65.9995 63.1147H64.7572V64.4701H65.9995C66.9531 64.4701 67.1937 64.2049 67.1937 63.7798Z" fill="#57517D"/>
<path d="M70.9556 60.5723H74.0919V66.3854H78.2825V69.1719H70.9556V60.5723Z" fill="#57517D"/>
<path d="M82.0008 69.1677H78.8644V60.5723H82.0008V69.1677Z" fill="#57517D"/>
<path d="M87.5473 60.4541C90.4825 60.4541 92.4903 62.1631 92.4903 64.8739C92.4903 66.1704 92.101 67.1974 91.4098 67.9257L92.0616 68.5571L91.3486 69.2474L90.6312 68.5571C89.8176 69.0411 88.7634 69.2937 87.543 69.2937C84.7696 69.2937 82.5737 67.791 82.5737 64.8739C82.5781 62.121 84.774 60.4541 87.5473 60.4541ZM87.5473 66.5408C87.8623 66.5408 88.151 66.4903 88.3872 66.3851L87.8492 65.8757L88.5665 65.1854L89.1177 65.72C89.2314 65.4758 89.2927 65.198 89.2927 64.8739C89.2927 63.8805 88.6278 63.2028 87.5473 63.2028C86.4931 63.2028 85.7888 63.8679 85.7888 64.8739C85.7888 65.9136 86.4931 66.5408 87.5473 66.5408Z" fill="#57517D"/>
<path d="M102.105 60.5723V65.2573C102.105 68.0186 100.298 69.2898 97.5514 69.2898C94.953 69.2898 93.0327 68.0059 93.0327 65.2573V60.5723H96.1691V65.3288C96.1691 66.0907 96.8209 66.5032 97.5601 66.5032C98.2731 66.5032 98.9643 66.0907 98.9643 65.3288V60.5723H102.105Z" fill="#57517D"/>
<path d="M102.844 60.5723H110.626V63.2368H105.985V63.9987H110.429V65.695H105.985V66.5074H110.626V69.1719H102.844V60.5723Z" fill="#57517D"/>
<path d="M23.0394 24.1361V43.0318C23.0394 48.5544 27.6806 53.0331 33.4065 53.0331H52.9903C58.7163 53.0331 63.3574 48.5544 63.3574 43.0318V24.1361C63.3574 18.6135 58.7163 14.1348 52.9903 14.1348H33.4022C27.6806 14.1348 23.0394 18.6135 23.0394 24.1361ZM44.8453 43.2001C44.8453 44.0757 44.1017 44.7913 43.1962 44.7913C42.2908 44.7913 41.5471 44.0757 41.5471 43.2001V23.9677C41.5471 23.0922 42.2908 22.3766 43.1962 22.3766C44.1017 22.3766 44.8453 23.0922 44.8453 23.9677V43.2001Z" fill="#ADB3D7"/>
<path d="M85.8238 34.4574C85.4914 34.1375 85.3339 33.7081 85.347 33.2872C85.3339 32.8662 85.4914 32.4369 85.8238 32.117L104.458 14.1348H77.0184C71.2924 14.1348 66.6512 18.6135 66.6512 24.1361V43.0318C66.6512 48.5544 71.2924 53.0331 77.0184 53.0331H105.08L85.8238 34.4574Z" fill="#ADB3D7"/>
<path d="M106.96 50.3564V16.2188L89.2751 33.2876L106.96 50.3564Z" fill="#ADB3D7"/>
</svg>
