<svg width="298" height="193" viewBox="0 0 298 193" fill="none" xmlns="http://www.w3.org/2000/svg">
<path d="M176.06 134.13C164.33 134.13 154.08 127.72 148.6 118.22C143.12 127.72 132.87 134.13 121.14 134.13H76.36C58.86 134.13 44.67 119.94 44.67 102.44V57.67C44.67 40.17 58.86 25.98 76.36 25.98H121.13C132.86 25.98 143.11 32.39 148.59 41.89C154.07 32.39 164.32 25.98 176.05 25.98H236.12C245.17 25.98 252.51 33.32 252.51 42.37V117.74C252.51 126.79 245.17 134.13 236.12 134.13H176.06Z" fill="#51587D"/>
<path d="M59.83 143.9V153.48C59.83 162.48 56.76 164.61 48.79 164.61C47.38 164.61 45.41 164.41 44.83 164.26V157.73C45.4 157.82 47.01 157.87 48.73 157.87C51.83 157.87 52.66 156.95 52.66 153.47V143.89H59.83V143.9Z" fill="#51587D"/>
<path d="M64.9899 151.35H61.3999V143.9H66.7099L64.9899 151.35Z" fill="#51587D"/>
<path d="M67.86 143.9H89.26V150.57H82.15V164.32H74.98V150.57H67.87V143.9H67.86Z" fill="#51587D"/>
<path d="M94.2799 151.35H90.6899V143.9H95.9999L94.2799 151.35Z" fill="#51587D"/>
<path d="M97.46 143.9H115.25V150.23H104.64V152.04H114.8V156.07H104.64V158H115.25V164.33H97.46V143.9Z" fill="#51587D"/>
<path d="M124.69 143.9L128.07 148.42L131.45 143.9H140L132.37 154.14L140 164.32H131.42L128.09 159.86L124.76 164.32H116.18L123.78 154.14L116.12 143.9H124.69Z" fill="#51587D"/>
<path d="M148.04 159.2V164.32H140.87V143.9H150.88C157.97 143.9 161.06 146.83 161.06 151.49C161.06 156.61 157.96 159.2 150.88 159.2H148.04V159.2ZM153.61 151.52C153.61 150.54 153.01 149.94 150.88 149.94H148.04V153.16H150.88C153.06 153.16 153.61 152.53 153.61 151.52Z" fill="#51587D"/>
<path d="M162.21 143.9H169.38V157.71H178.96V164.33H162.21V143.9Z" fill="#51587D"/>
<path d="M187.46 164.32H180.29V143.9H187.46V164.32Z" fill="#51587D"/>
<path d="M200.14 143.62C206.85 143.62 211.44 147.68 211.44 154.12C211.44 157.2 210.55 159.64 208.97 161.37L210.46 162.87L208.83 164.51L207.19 162.87C205.33 164.02 202.92 164.62 200.13 164.62C193.79 164.62 188.77 161.05 188.77 154.12C188.78 147.58 193.8 143.62 200.14 143.62ZM200.14 158.08C200.86 158.08 201.52 157.96 202.06 157.71L200.83 156.5L202.47 154.86L203.73 156.13C203.99 155.55 204.13 154.89 204.13 154.12C204.13 151.76 202.61 150.15 200.14 150.15C197.73 150.15 196.12 151.73 196.12 154.12C196.12 156.59 197.73 158.08 200.14 158.08Z" fill="#51587D"/>
<path d="M233.42 143.9V155.03C233.42 161.59 229.29 164.61 223.01 164.61C217.07 164.61 212.68 161.56 212.68 155.03V143.9H219.85V155.2C219.85 157.01 221.34 157.99 223.03 157.99C224.66 157.99 226.24 157.01 226.24 155.2V143.9H233.42Z" fill="#51587D"/>
<path d="M235.11 143.9H252.9V150.23H242.29V152.04H252.45V156.07H242.29V158H252.9V164.33H235.11V143.9V143.9Z" fill="#51587D"/>
<path d="M52.67 57.3401V102.23C52.67 115.35 63.28 125.99 76.37 125.99H121.14C134.23 125.99 144.84 115.35 144.84 102.23V57.3401C144.84 44.2201 134.23 33.5801 121.14 33.5801H76.36C63.28 33.5801 52.67 44.2201 52.67 57.3401ZM102.52 102.63C102.52 104.71 100.82 106.41 98.75 106.41C96.68 106.41 94.98 104.71 94.98 102.63V56.9401C94.98 54.8601 96.68 53.1601 98.75 53.1601C100.82 53.1601 102.52 54.8601 102.52 56.9401V102.63Z" fill="#ADB3D7"/>
<path d="M196.2 81.8601C195.44 81.1001 195.08 80.0801 195.11 79.0801C195.08 78.0801 195.44 77.0601 196.2 76.3001L238.8 33.5801H176.07C162.98 33.5801 152.37 44.2201 152.37 57.3401V102.23C152.37 115.35 162.98 125.99 176.07 125.99H240.22L196.2 81.8601Z" fill="#ADB3D7"/>
<path d="M244.52 119.63V38.5303L204.09 79.0803L244.52 119.63Z" fill="#ADB3D7"/>
</svg>
