<?xml version="1.0" encoding="utf-8"?>
<!-- Generator: Adobe Illustrator 25.4.1, SVG Export Plug-In . SVG Version: 6.00 Build 0)  -->
<svg version="1.1" id="Calque_1" xmlns="http://www.w3.org/2000/svg" xmlns:xlink="http://www.w3.org/1999/xlink" x="0px" y="0px"
	 viewBox="0 0 297.19 192.43" style="enable-background:new 0 0 297.19 192.43;" xml:space="preserve">
<style type="text/css">
	.st0{fill:#ADB3D7;}
	.st1{fill:#FFFFFF;}
</style>
<rect x="0" y="-0.13" class="st0" width="297.19" height="192.43"/>
<g>
	<path class="st1" d="M176.06,134.13c-11.73,0-21.98-6.41-27.46-15.91c-5.48,9.5-15.73,15.91-27.46,15.91H76.36
		c-17.5,0-31.69-14.19-31.69-31.69V57.67c0-17.5,14.19-31.69,31.69-31.69h44.77c11.73,0,21.98,6.41,27.46,15.91
		c5.48-9.5,15.73-15.91,27.46-15.91h60.07c9.05,0,16.39,7.34,16.39,16.39v75.37c0,9.05-7.34,16.39-16.39,16.39H176.06z"/>
</g>
<g>
	<path class="st1" d="M59.83,143.9v9.58c0,9-3.07,11.13-11.04,11.13c-1.41,0-3.38-0.2-3.96-0.35v-6.53c0.57,0.09,2.18,0.14,3.9,0.14
		c3.1,0,3.93-0.92,3.93-4.4v-9.58H59.83z"/>
	<path class="st1" d="M64.99,151.35H61.4v-7.45h5.31L64.99,151.35z"/>
	<path class="st1" d="M67.86,143.9h21.4v6.67h-7.11v13.75h-7.17v-13.75h-7.11V143.9z"/>
	<path class="st1" d="M94.28,151.35h-3.59v-7.45H96L94.28,151.35z"/>
	<path class="st1" d="M97.46,143.9h17.79v6.33h-10.61v1.81h10.16v4.03h-10.16V158h10.61v6.33H97.46V143.9z"/>
	<path class="st1" d="M124.69,143.9l3.38,4.52l3.38-4.52h8.55l-7.63,10.24l7.63,10.18h-8.58l-3.33-4.46l-3.33,4.46h-8.58l7.6-10.18
		l-7.66-10.24H124.69z"/>
	<path class="st1" d="M148.04,159.2v5.12h-7.17V143.9h10.01c7.09,0,10.18,2.93,10.18,7.59c0,5.12-3.1,7.71-10.18,7.71H148.04z
		 M153.61,151.52c0-0.98-0.6-1.58-2.73-1.58h-2.84v3.22h2.84C153.06,153.16,153.61,152.53,153.61,151.52z"/>
	<path class="st1" d="M162.21,143.9h7.17v13.81h9.58v6.62h-16.75V143.9z"/>
	<path class="st1" d="M187.46,164.32h-7.17V143.9h7.17V164.32z"/>
	<path class="st1" d="M200.14,143.62c6.71,0,11.3,4.06,11.3,10.5c0,3.08-0.89,5.52-2.47,7.25l1.49,1.5l-1.63,1.64l-1.64-1.64
		c-1.86,1.15-4.27,1.75-7.06,1.75c-6.34,0-11.36-3.57-11.36-10.5C188.78,147.58,193.8,143.62,200.14,143.62z M200.14,158.08
		c0.72,0,1.38-0.12,1.92-0.37l-1.23-1.21l1.64-1.64l1.26,1.27c0.26-0.58,0.4-1.24,0.4-2.01c0-2.36-1.52-3.97-3.99-3.97
		c-2.41,0-4.02,1.58-4.02,3.97C196.12,156.59,197.73,158.08,200.14,158.08z"/>
	<path class="st1" d="M233.42,143.9v11.13c0,6.56-4.13,9.58-10.41,9.58c-5.94,0-10.33-3.05-10.33-9.58V143.9h7.17v11.3
		c0,1.81,1.49,2.79,3.18,2.79c1.63,0,3.21-0.98,3.21-2.79v-11.3H233.42z"/>
	<path class="st1" d="M235.11,143.9h17.79v6.33h-10.61v1.81h10.16v4.03h-10.16V158h10.61v6.33h-17.79V143.9z"/>
</g>
<path class="st0" d="M52.67,57.34v44.89c0,13.12,10.61,23.76,23.7,23.76h44.77c13.09,0,23.7-10.64,23.7-23.76V57.34
	c0-13.12-10.61-23.76-23.7-23.76H76.36C63.28,33.58,52.67,44.22,52.67,57.34z M102.52,102.63c0,2.08-1.7,3.78-3.77,3.78
	s-3.77-1.7-3.77-3.78V56.94c0-2.08,1.7-3.78,3.77-3.78s3.77,1.7,3.77,3.78V102.63z"/>
<g>
	<path class="st0" d="M196.2,81.86c-0.76-0.76-1.12-1.78-1.09-2.78c-0.03-1,0.33-2.02,1.09-2.78l42.6-42.72h-62.73
		c-13.09,0-23.7,10.64-23.7,23.76v44.89c0,13.12,10.61,23.76,23.7,23.76h64.15L196.2,81.86z"/>
	<polygon class="st0" points="244.52,119.63 244.52,38.53 204.09,79.08 	"/>
</g>
<g>
</g>
<g>
</g>
<g>
</g>
<g>
</g>
<g>
</g>
<g>
</g>
</svg>
