<svg width="131" height="81" viewBox="0 0 131 81" fill="none" xmlns="http://www.w3.org/2000/svg">
<path d="M77.6065 56.4594C72.436 56.4594 67.9179 53.7612 65.5023 49.7624C63.0867 53.7612 58.5686 56.4594 53.398 56.4594H33.6592C25.9453 56.4594 19.6904 50.4864 19.6904 43.12V24.2749C19.6904 16.9086 25.9453 10.9355 33.6592 10.9355H53.3936C58.5642 10.9355 63.0823 13.6337 65.4979 17.6326C67.9134 13.6337 72.4316 10.9355 77.6021 10.9355H104.081C108.07 10.9355 111.305 14.0252 111.305 17.8346V49.5603C111.305 53.3697 108.07 56.4594 104.081 56.4594H77.6065Z" fill="#989595"/>
<path d="M26.3727 60.5716V64.6041C26.3727 68.3925 25.0194 69.2891 21.5063 69.2891C20.8848 69.2891 20.0164 69.2049 19.7607 69.1418V66.3931C20.012 66.431 20.7217 66.452 21.4798 66.452C22.8463 66.452 23.2122 66.0648 23.2122 64.5999V60.5674H26.3727V60.5716Z" fill="#989595"/>
<path d="M28.6474 63.7082H27.0649V60.5723H29.4056L28.6474 63.7082Z" fill="#989595"/>
<path d="M29.9121 60.5723H39.3451V63.3799H36.2111V69.1677H33.0506V63.3799H29.9165V60.5723H29.9121Z" fill="#989595"/>
<path d="M41.558 63.7082H39.9756V60.5723H42.3162L41.558 63.7082Z" fill="#989595"/>
<path d="M42.96 60.5723H50.8017V63.2368H46.1249V63.9987H50.6034V65.695H46.1249V66.5074H50.8017V69.1719H42.96V60.5723Z" fill="#989595"/>
<path d="M54.9627 60.5723L56.4526 62.4749L57.9424 60.5723H61.7113L58.348 64.8826L61.7113 69.1677H57.9292L56.4614 67.2904L54.9935 69.1677H51.2115L54.5615 64.8826L51.1851 60.5723H54.9627Z" fill="#989595"/>
<path d="M65.2552 67.0125V69.1677H62.0947V60.5723H66.5071C69.6323 60.5723 70.9944 61.8056 70.9944 63.7671C70.9944 65.9223 69.6279 67.0125 66.5071 67.0125H65.2552ZM67.7105 63.7798C67.7105 63.3673 67.446 63.1147 66.5071 63.1147H65.2552V64.4701H66.5071C67.468 64.4701 67.7105 64.2049 67.7105 63.7798Z" fill="#989595"/>
<path d="M71.5015 60.5723H74.662V66.3854H78.8848V69.1719H71.5015V60.5723Z" fill="#989595"/>
<path d="M82.6312 69.1677H79.4707V60.5723H82.6312V69.1677Z" fill="#989595"/>
<path d="M88.2208 60.4541C91.1786 60.4541 93.2018 62.1631 93.2018 64.8739C93.2018 66.1704 92.8095 67.1974 92.113 67.9257L92.7698 68.5571L92.0513 69.2474L91.3284 68.5571C90.5086 69.0411 89.4462 69.2937 88.2164 69.2937C85.4218 69.2937 83.209 67.791 83.209 64.8739C83.2134 62.121 85.4262 60.4541 88.2208 60.4541ZM88.2208 66.5408C88.5382 66.5408 88.8291 66.4903 89.0672 66.3851L88.525 65.8757L89.2479 65.1854L89.8033 65.72C89.9179 65.4758 89.9796 65.198 89.9796 64.8739C89.9796 63.8805 89.3096 63.2028 88.2208 63.2028C87.1585 63.2028 86.4488 63.8679 86.4488 64.8739C86.4488 65.9136 87.1585 66.5408 88.2208 66.5408Z" fill="#989595"/>
<path d="M102.89 60.5723V65.2573C102.89 68.0186 101.07 69.2898 98.3015 69.2898C95.6831 69.2898 93.748 68.0059 93.748 65.2573V60.5723H96.9086V65.3288C96.9086 66.0907 97.5653 66.5032 98.3103 66.5032C99.0288 66.5032 99.7252 66.0907 99.7252 65.3288V60.5723H102.89Z" fill="#989595"/>
<path d="M103.635 60.5723H111.477V63.2368H106.8V63.9987H111.279V65.695H106.8V66.5074H111.477V69.1719H103.635V60.5723Z" fill="#989595"/>
<path d="M23.2168 24.1361V43.0318C23.2168 48.5544 27.8936 53.0331 33.6637 53.0331H53.3981C59.1681 53.0331 63.8449 48.5544 63.8449 43.0318V24.1361C63.8449 18.6135 59.1681 14.1348 53.3981 14.1348H33.6592C27.8936 14.1348 23.2168 18.6135 23.2168 24.1361ZM45.1905 43.2001C45.1905 44.0757 44.4411 44.7913 43.5287 44.7913C42.6162 44.7913 41.8669 44.0757 41.8669 43.2001V23.9677C41.8669 23.0922 42.6162 22.3766 43.5287 22.3766C44.4411 22.3766 45.1905 23.0922 45.1905 23.9677V43.2001Z" fill="#FAF3EE"/>
<path d="M86.4841 34.4574C86.1491 34.1375 85.9904 33.7081 86.0037 33.2872C85.9904 32.8662 86.1491 32.4369 86.4841 32.117L105.262 14.1348H77.6109C71.8409 14.1348 67.1641 18.6135 67.1641 24.1361V43.0318C67.1641 48.5544 71.8409 53.0331 77.6109 53.0331H105.888L86.4841 34.4574Z" fill="#FAF3EE"/>
<path d="M107.783 50.3564V16.2188L89.9619 33.2876L107.783 50.3564Z" fill="#FAF3EE"/>
</svg>
