<svg width="131" height="19" viewBox="0 0 131 19" fill="none" xmlns="http://www.w3.org/2000/svg">
<path d="M9.68 1.89C9.68 1.97 9.65 2.03 9.59 2.07C9.53 2.11 9.47 2.15 9.41 2.19C9.33 2.23 9.24 2.26 9.14 2.28C8.98 2.28 8.84 2.27 8.72 2.25C8.6 2.23 8.46 2.22 8.3 2.22C8.08 2.22 7.64 2.35 6.98 2.61C6.34 2.85 5.67 3.16 4.97 3.54C4.27 3.92 3.64 4.32 3.08 4.74C2.54 5.16 2.26 5.53 2.24 5.85L2.6 7.89C2.7 8.41 2.78 8.88 2.84 9.3C2.92 9.72 2.97 9.93 2.99 9.93C3.03 9.91 3.16 9.83 3.38 9.69C3.62 9.53 3.91 9.36 4.25 9.18C4.59 8.98 4.96 8.77 5.36 8.55C5.78 8.33 6.18 8.13 6.56 7.95C6.94 7.77 7.29 7.62 7.61 7.5C7.93 7.38 8.18 7.32 8.36 7.32C8.5 7.32 8.62 7.35 8.72 7.41C8.84 7.47 8.9 7.58 8.9 7.74C8.9 7.86 8.76 8.03 8.48 8.25C8.2 8.47 7.85 8.71 7.43 8.97C7.01 9.23 6.55 9.51 6.05 9.81C5.57 10.09 5.12 10.36 4.7 10.62C4.28 10.86 3.93 11.09 3.65 11.31C3.37 11.51 3.23 11.66 3.23 11.76C3.23 11.86 3.26 12.18 3.32 12.72C3.4 13.24 3.5 13.82 3.62 14.46C3.76 15.1 3.91 15.72 4.07 16.32C4.25 16.92 4.44 17.34 4.64 17.58C4.68 17.62 4.7 17.68 4.7 17.76C4.7 17.88 4.62 18.01 4.46 18.15C4.3 18.31 4.16 18.39 4.04 18.39C3.88 18.39 3.71 18.24 3.53 17.94C3.37 17.64 3.22 17.26 3.08 16.8C2.94 16.34 2.8 15.85 2.66 15.33C2.54 14.81 2.43 14.32 2.33 13.86C2.25 13.4 2.18 13.02 2.12 12.72C2.06 12.42 2.02 12.27 2 12.27C1.94 12.27 1.8 12.31 1.58 12.39C1.36 12.45 1.13 12.48 0.89 12.48C0.71 12.48 0.55 12.41 0.41 12.27C0.29 12.11 0.23 11.95 0.23 11.79C0.23 11.63 0.28 11.49 0.38 11.37C0.48 11.25 0.6 11.14 0.74 11.04C0.88 10.94 1.03 10.85 1.19 10.77C1.35 10.69 1.49 10.61 1.61 10.53L0.77 4.8C0.77 4.64 0.8 4.48 0.86 4.32C0.92 4.14 1.05 4.05 1.25 4.05C1.29 4.05 1.35 4.1 1.43 4.2C1.51 4.28 1.57 4.32 1.61 4.32C1.67 4.28 1.93 4.08 2.39 3.72C2.85 3.34 3.41 2.94 4.07 2.52C4.75 2.08 5.47 1.69 6.23 1.35C7.01 0.99 7.73 0.81 8.39 0.81C8.65 0.81 8.93 0.919999 9.23 1.14C9.53 1.36 9.68 1.61 9.68 1.89ZM18.6181 14.85C18.6381 14.89 18.6481 14.95 18.6481 15.03C18.6481 15.15 18.5581 15.33 18.3781 15.57C18.3181 15.65 18.1881 15.78 17.9881 15.96C17.7881 16.14 17.5181 16.32 17.1781 16.5C16.8381 16.68 16.4181 16.84 15.9181 16.98C15.4381 17.12 14.8681 17.19 14.2081 17.19C13.7481 17.19 13.2981 17.09 12.8581 16.89C12.4181 16.67 12.0281 16.36 11.6881 15.96C11.3481 15.54 11.0681 15.03 10.8481 14.43C10.6281 13.81 10.5181 13.09 10.5181 12.27C10.5181 11.49 10.6181 10.76 10.8181 10.08C11.0181 9.4 11.2681 8.8 11.5681 8.28C11.8881 7.76 12.2381 7.35 12.6181 7.05C12.9981 6.75 13.3681 6.6 13.7281 6.6C14.0481 6.6 14.3681 6.67 14.6881 6.81C15.0281 6.93 15.3281 7.09 15.5881 7.29C15.8681 7.49 16.0881 7.72 16.2481 7.98C16.4081 8.22 16.4881 8.47 16.4881 8.73C16.4881 9.03 16.3481 9.34 16.0681 9.66C15.8081 9.98 15.4881 10.28 15.1081 10.56C14.7281 10.82 14.3481 11.04 13.9681 11.22C13.5881 11.38 13.2881 11.46 13.0681 11.46C12.9481 11.46 12.8381 11.41 12.7381 11.31C12.6581 11.19 12.6181 11.05 12.6181 10.89C12.6181 10.61 12.7381 10.39 12.9781 10.23C13.2381 10.07 13.5181 9.93 13.8181 9.81C14.1181 9.67 14.3881 9.51 14.6281 9.33C14.8881 9.15 15.0181 8.9 15.0181 8.58C15.0181 8.54 14.9681 8.44 14.8681 8.28C14.7681 8.12 14.4981 8.04 14.0581 8.04C13.8581 8.04 13.6281 8.16 13.3681 8.4C13.1081 8.62 12.8581 8.93 12.6181 9.33C12.3781 9.71 12.1781 10.17 12.0181 10.71C11.8581 11.23 11.7781 11.8 11.7781 12.42C11.7781 12.94 11.8681 13.41 12.0481 13.83C12.2481 14.25 12.4981 14.61 12.7981 14.91C13.0981 15.19 13.4481 15.41 13.8481 15.57C14.2481 15.73 14.6581 15.81 15.0781 15.81C15.3781 15.81 15.6981 15.75 16.0381 15.63C16.3981 15.49 16.7281 15.35 17.0281 15.21C17.3481 15.05 17.6181 14.91 17.8381 14.79C18.0781 14.65 18.2281 14.58 18.2881 14.58C18.3481 14.58 18.4081 14.61 18.4681 14.67C18.5481 14.73 18.5981 14.79 18.6181 14.85ZM16.9081 2.16C16.9081 2.32 16.7881 2.55 16.5481 2.85C16.3081 3.15 16.0181 3.46 15.6781 3.78C15.3581 4.1 15.0181 4.4 14.6581 4.68C14.3181 4.94 14.0481 5.12 13.8481 5.22C13.6881 5.3 13.5481 5.35 13.4281 5.37C13.3081 5.39 13.2081 5.4 13.1281 5.4C12.9681 5.4 12.7681 5.31 12.5281 5.13C12.2881 4.95 12.1681 4.78 12.1681 4.62C12.1681 4.58 12.2581 4.53 12.4381 4.47C12.6181 4.39 12.8181 4.29 13.0381 4.17C13.2381 4.05 13.4981 3.86 13.8181 3.6C14.1581 3.32 14.4881 3.05 14.8081 2.79C15.1481 2.51 15.4481 2.27 15.7081 2.07C15.9881 1.87 16.1781 1.77 16.2781 1.77C16.4181 1.77 16.5581 1.81 16.6981 1.89C16.8381 1.97 16.9081 2.06 16.9081 2.16ZM24.7271 17.13C24.7271 17.29 24.6671 17.41 24.5471 17.49C24.4271 17.57 24.2871 17.61 24.1271 17.61C23.9471 17.61 23.7571 17.44 23.5571 17.1C23.3771 16.76 23.1971 16.33 23.0171 15.81C22.8371 15.29 22.6671 14.73 22.5071 14.13C22.3471 13.51 22.2071 12.94 22.0871 12.42C21.9671 11.88 21.8671 11.43 21.7871 11.07C21.7271 10.71 21.6971 10.51 21.6971 10.47C21.6971 10.39 21.6571 10.18 21.5771 9.84C21.5171 9.5 21.4271 8.97 21.3071 8.25C21.2071 7.53 21.0871 6.6 20.9471 5.46C20.8271 4.3 20.6971 2.87 20.5571 1.17C20.5571 0.989998 20.5871 0.759998 20.6471 0.479998C20.7071 0.199998 20.8471 0.0599985 21.0671 0.0599985C21.3471 0.0599985 21.5571 0.249998 21.6971 0.629998C21.8571 1.01 21.9771 1.48 22.0571 2.04C22.1571 2.6 22.2271 3.19 22.2671 3.81C22.3071 4.41 22.3571 4.94 22.4171 5.4C22.4971 6.04 22.5671 6.62 22.6271 7.14C22.7071 7.66 22.7771 8.18 22.8371 8.7C22.9171 9.2 23.0071 9.73 23.1071 10.29C23.2271 10.85 23.3671 11.47 23.5271 12.15L24.7271 17.13ZM28.8352 4.2C28.8352 4.24 28.7652 4.32 28.6252 4.44C28.4852 4.56 28.3152 4.69 28.1152 4.83C27.9352 4.95 27.7452 5.06 27.5452 5.16C27.3452 5.26 27.1852 5.31 27.0652 5.31C26.9852 5.31 26.8752 5.31 26.7352 5.31C26.6152 5.29 26.4852 5.25 26.3452 5.19C26.2252 5.13 26.1152 5.05 26.0152 4.95C25.9152 4.83 25.8652 4.68 25.8652 4.5C25.8652 4.22 25.9652 3.96 26.1652 3.72C26.3652 3.46 26.6252 3.33 26.9452 3.33C27.0052 3.33 27.1352 3.36 27.3352 3.42C27.5552 3.46 27.7752 3.52 27.9952 3.6C28.2152 3.68 28.4052 3.77 28.5652 3.87C28.7452 3.97 28.8352 4.08 28.8352 4.2ZM29.8252 15.42C29.8252 15.56 29.7152 15.68 29.4952 15.78C29.2952 15.88 29.1452 15.93 29.0452 15.93C28.8452 15.93 28.6652 15.8 28.5052 15.54C28.3452 15.28 28.2052 14.98 28.0852 14.64C27.9652 14.3 27.8652 13.98 27.7852 13.68C27.7052 13.36 27.6452 13.14 27.6052 13.02C27.5452 12.82 27.4652 12.58 27.3652 12.3C27.2652 12.02 27.1652 11.75 27.0652 11.49C26.9852 11.23 26.9152 11 26.8552 10.8C26.7952 10.6 26.7652 10.49 26.7652 10.47C26.7652 10.19 26.8152 9.93 26.9152 9.69C27.0352 9.45 27.1752 9.33 27.3352 9.33C27.5152 9.33 27.7052 9.47 27.9052 9.75C28.1052 10.03 28.2952 10.39 28.4752 10.83C28.6752 11.25 28.8552 11.72 29.0152 12.24C29.1752 12.74 29.3152 13.22 29.4352 13.68C29.5552 14.12 29.6452 14.51 29.7052 14.85C29.7852 15.17 29.8252 15.36 29.8252 15.42ZM40.3634 12.54C40.3634 12.74 40.3334 12.95 40.2734 13.17C40.2134 13.37 40.1534 13.54 40.0934 13.68C40.0534 13.74 39.8634 13.95 39.5234 14.31C39.2034 14.65 38.7934 15.01 38.2934 15.39C37.8134 15.77 37.2634 16.12 36.6434 16.44C36.0434 16.74 35.4634 16.89 34.9034 16.89C34.5634 16.89 34.2134 16.83 33.8534 16.71C33.5134 16.59 33.1934 16.4 32.8934 16.14C32.5934 15.86 32.3434 15.52 32.1434 15.12C31.9634 14.72 31.8734 14.23 31.8734 13.65C31.8734 12.69 32.0334 11.82 32.3534 11.04C32.6734 10.26 32.9934 9.64 33.3134 9.18C33.4534 8.96 33.6334 8.74 33.8534 8.52C34.0934 8.28 34.3234 8.07 34.5434 7.89C34.7634 7.69 34.9634 7.53 35.1434 7.41C35.3434 7.29 35.4834 7.23 35.5634 7.23C35.7434 7.23 35.9034 7.28 36.0434 7.38C36.2034 7.48 36.2834 7.58 36.2834 7.68C36.2834 7.84 36.2334 7.98 36.1334 8.1C36.0534 8.2 35.9334 8.32 35.7734 8.46C35.6134 8.58 35.4234 8.75 35.2034 8.97C34.9834 9.17 34.7534 9.44 34.5134 9.78C34.0334 10.44 33.6734 11.12 33.4334 11.82C33.2134 12.5 33.1034 13.1 33.1034 13.62C33.1034 14.14 33.2934 14.56 33.6734 14.88C34.0734 15.18 34.4834 15.33 34.9034 15.33C35.6634 15.33 36.3334 15.16 36.9134 14.82C37.5134 14.48 38.0234 14.1 38.4434 13.68C38.8634 13.26 39.2034 12.88 39.4634 12.54C39.7234 12.2 39.9134 12.03 40.0334 12.03C40.2534 12.03 40.3634 12.2 40.3634 12.54ZM44.5384 4.2C44.5384 4.24 44.4684 4.32 44.3284 4.44C44.1884 4.56 44.0184 4.69 43.8184 4.83C43.6384 4.95 43.4484 5.06 43.2484 5.16C43.0484 5.26 42.8884 5.31 42.7684 5.31C42.6884 5.31 42.5784 5.31 42.4384 5.31C42.3184 5.29 42.1884 5.25 42.0484 5.19C41.9284 5.13 41.8184 5.05 41.7184 4.95C41.6184 4.83 41.5684 4.68 41.5684 4.5C41.5684 4.22 41.6684 3.96 41.8684 3.72C42.0684 3.46 42.3284 3.33 42.6484 3.33C42.7084 3.33 42.8384 3.36 43.0384 3.42C43.2584 3.46 43.4784 3.52 43.6984 3.6C43.9184 3.68 44.1084 3.77 44.2684 3.87C44.4484 3.97 44.5384 4.08 44.5384 4.2ZM45.5284 15.42C45.5284 15.56 45.4184 15.68 45.1984 15.78C44.9984 15.88 44.8484 15.93 44.7484 15.93C44.5484 15.93 44.3684 15.8 44.2084 15.54C44.0484 15.28 43.9084 14.98 43.7884 14.64C43.6684 14.3 43.5684 13.98 43.4884 13.68C43.4084 13.36 43.3484 13.14 43.3084 13.02C43.2484 12.82 43.1684 12.58 43.0684 12.3C42.9684 12.02 42.8684 11.75 42.7684 11.49C42.6884 11.23 42.6184 11 42.5584 10.8C42.4984 10.6 42.4684 10.49 42.4684 10.47C42.4684 10.19 42.5184 9.93 42.6184 9.69C42.7384 9.45 42.8784 9.33 43.0384 9.33C43.2184 9.33 43.4084 9.47 43.6084 9.75C43.8084 10.03 43.9984 10.39 44.1784 10.83C44.3784 11.25 44.5584 11.72 44.7184 12.24C44.8784 12.74 45.0184 13.22 45.1384 13.68C45.2584 14.12 45.3484 14.51 45.4084 14.85C45.4884 15.17 45.5284 15.36 45.5284 15.42ZM55.3766 4.44C55.1166 4.74 54.7466 5.04 54.2666 5.34C53.7866 5.62 53.3066 5.88 52.8266 6.12C52.3466 6.36 51.9266 6.57 51.5666 6.75C51.2066 6.91 51.0266 7.02 51.0266 7.08C51.0266 7.14 51.0666 7.32 51.1466 7.62C51.2266 7.92 51.3166 8.28 51.4166 8.7C51.5366 9.1 51.6566 9.52 51.7766 9.96C51.8966 10.4 51.9966 10.79 52.0766 11.13C52.1166 11.33 52.1666 11.59 52.2266 11.91C52.2866 12.23 52.3366 12.55 52.3766 12.87C52.4366 13.19 52.4866 13.48 52.5266 13.74C52.5666 13.98 52.5866 14.11 52.5866 14.13C52.5866 14.43 52.5366 14.74 52.4366 15.06C52.3366 15.38 52.1766 15.54 51.9566 15.54C51.8366 15.54 51.7266 15.49 51.6266 15.39C51.5266 15.29 51.4366 15.18 51.3566 15.06C51.2766 14.92 51.2166 14.79 51.1766 14.67C51.1366 14.55 51.1166 14.46 51.1166 14.4C51.1166 14.36 51.1166 14.3 51.1166 14.22C51.1366 14.14 51.1466 14.05 51.1466 13.95C51.1466 13.57 51.0866 13.02 50.9666 12.3C50.9266 12.08 50.8466 11.74 50.7266 11.28C50.6066 10.82 50.4866 10.35 50.3666 9.87C50.2266 9.31 50.0666 8.7 49.8866 8.04C49.8066 7.76 49.7566 7.62 49.7366 7.62C49.5966 7.62 49.3566 7.71 49.0166 7.89C48.6966 8.05 48.3266 8.26 47.9066 8.52C47.4866 8.76 47.0466 9.03 46.5866 9.33C46.1266 9.61 45.6966 9.88 45.2966 10.14C44.8966 10.38 44.5566 10.59 44.2766 10.77C43.9766 10.93 43.7966 11.01 43.7366 11.01C43.4766 11.01 43.2666 10.92 43.1066 10.74C42.9466 10.56 42.8666 10.36 42.8666 10.14C42.8666 10.02 43.0366 9.85 43.3766 9.63C43.6966 9.39 44.1066 9.13 44.6066 8.85C45.0866 8.57 45.6166 8.28 46.1966 7.98C46.7566 7.68 47.2766 7.41 47.7566 7.17C48.2566 6.93 48.6666 6.73 48.9866 6.57C49.3266 6.41 49.4966 6.33 49.4966 6.33C49.3166 5.41 49.1666 4.59 49.0466 3.87C48.9466 3.25 48.8466 2.68 48.7466 2.16C48.6666 1.64 48.6266 1.36 48.6266 1.32C48.6266 1.06 48.6766 0.869999 48.7766 0.749999C48.8966 0.609999 49.0266 0.539999 49.1666 0.539999C49.3866 0.539999 49.5266 0.689999 49.5866 0.989999C49.8066 2.07 50.0066 3.03 50.1866 3.87C50.3866 4.71 50.5766 5.39 50.7566 5.91C50.9366 5.87 51.2466 5.76 51.6866 5.58C52.1266 5.38 52.5866 5.17 53.0666 4.95C53.5466 4.73 53.9766 4.54 54.3566 4.38C54.7566 4.2 54.9866 4.11 55.0466 4.11C55.1666 4.11 55.2366 4.15 55.2566 4.23C55.2966 4.31 55.3366 4.38 55.3766 4.44ZM71.2566 11.76C71.2566 12.12 71.0866 12.57 70.7466 13.11C70.4266 13.63 69.9866 14.14 69.4266 14.64C68.8666 15.14 68.2166 15.57 67.4766 15.93C66.7366 16.27 65.9666 16.44 65.1666 16.44C64.8066 16.44 64.4266 16.38 64.0266 16.26C63.6266 16.14 63.2366 15.97 62.8566 15.75C62.4766 15.51 62.1366 15.23 61.8366 14.91C61.5366 14.57 61.3166 14.19 61.1766 13.77C61.0566 13.89 60.9066 14.09 60.7266 14.37C60.5666 14.65 60.3866 14.94 60.1866 15.24C59.9866 15.52 59.7666 15.77 59.5266 15.99C59.2866 16.19 59.0366 16.29 58.7766 16.29C58.5166 16.29 58.2966 16.16 58.1166 15.9C57.9566 15.62 57.8266 15.32 57.7266 15C57.6266 14.66 57.5566 14.34 57.5166 14.04C57.4766 13.74 57.4566 13.57 57.4566 13.53C57.4566 13.29 57.5266 12.84 57.6666 12.18C57.8066 11.5 58.0166 10.8 58.2966 10.08C58.5766 9.36 58.9266 8.72 59.3466 8.16C59.7866 7.6 60.2966 7.32 60.8766 7.32C61.0966 7.32 61.2366 7.42 61.2966 7.62C61.3766 7.8 61.4166 7.98 61.4166 8.16V9.06C61.5166 9.14 61.6166 9.2 61.7166 9.24C61.8366 9.26 61.9366 9.3 62.0166 9.36C62.1166 9.4 62.1866 9.47 62.2266 9.57C62.2866 9.67 62.3166 9.83 62.3166 10.05C62.3166 10.19 62.3066 10.32 62.2866 10.44C62.2666 10.54 62.2566 10.64 62.2566 10.74C62.2566 11.26 62.2966 11.77 62.3766 12.27C62.4566 12.77 62.6166 13.22 62.8566 13.62C63.0966 14 63.4266 14.32 63.8466 14.58C64.2666 14.82 64.8266 14.94 65.5266 14.94C66.4066 14.94 67.1466 14.76 67.7466 14.4C68.3666 14.02 68.8766 13.61 69.2766 13.17C69.6966 12.71 70.0266 12.3 70.2666 11.94C70.5066 11.56 70.7066 11.37 70.8666 11.37C71.1266 11.37 71.2566 11.5 71.2566 11.76ZM60.7266 10.44C60.7266 10.36 60.7066 10.29 60.6666 10.23C60.6266 10.15 60.6066 10.08 60.6066 10.02C60.6066 9.94 60.6266 9.87 60.6666 9.81C60.7066 9.75 60.7266 9.67 60.7266 9.57C60.7266 9.51 60.7066 9.47 60.6666 9.45C60.6266 9.41 60.6066 9.37 60.6066 9.33C60.4266 9.37 60.2366 9.54 60.0366 9.84C59.8566 10.14 59.6766 10.49 59.4966 10.89C59.3366 11.29 59.2066 11.7 59.1066 12.12C59.0066 12.52 58.9566 12.85 58.9566 13.11C58.9566 13.25 58.9966 13.48 59.0766 13.8C59.1566 14.12 59.2466 14.33 59.3466 14.43C59.6866 13.73 59.9966 13.05 60.2766 12.39C60.5766 11.73 60.7266 11.08 60.7266 10.44ZM79.5758 4.44C79.3158 4.74 78.9458 5.04 78.4658 5.34C77.9858 5.62 77.5058 5.88 77.0258 6.12C76.5458 6.36 76.1258 6.57 75.7658 6.75C75.4058 6.91 75.2258 7.02 75.2258 7.08C75.2258 7.14 75.2658 7.32 75.3458 7.62C75.4258 7.92 75.5158 8.28 75.6158 8.7C75.7358 9.1 75.8558 9.52 75.9758 9.96C76.0958 10.4 76.1958 10.79 76.2758 11.13C76.3158 11.33 76.3658 11.59 76.4258 11.91C76.4858 12.23 76.5358 12.55 76.5758 12.87C76.6358 13.19 76.6858 13.48 76.7258 13.74C76.7658 13.98 76.7858 14.11 76.7858 14.13C76.7858 14.43 76.7358 14.74 76.6358 15.06C76.5358 15.38 76.3758 15.54 76.1558 15.54C76.0358 15.54 75.9258 15.49 75.8258 15.39C75.7258 15.29 75.6358 15.18 75.5558 15.06C75.4758 14.92 75.4158 14.79 75.3758 14.67C75.3358 14.55 75.3158 14.46 75.3158 14.4C75.3158 14.36 75.3158 14.3 75.3158 14.22C75.3358 14.14 75.3458 14.05 75.3458 13.95C75.3458 13.57 75.2858 13.02 75.1658 12.3C75.1258 12.08 75.0458 11.74 74.9258 11.28C74.8058 10.82 74.6858 10.35 74.5658 9.87C74.4258 9.31 74.2658 8.7 74.0858 8.04C74.0058 7.76 73.9558 7.62 73.9358 7.62C73.7958 7.62 73.5558 7.71 73.2158 7.89C72.8958 8.05 72.5258 8.26 72.1058 8.52C71.6858 8.76 71.2458 9.03 70.7858 9.33C70.3258 9.61 69.8958 9.88 69.4958 10.14C69.0958 10.38 68.7558 10.59 68.4758 10.77C68.1758 10.93 67.9958 11.01 67.9358 11.01C67.6758 11.01 67.4658 10.92 67.3058 10.74C67.1458 10.56 67.0658 10.36 67.0658 10.14C67.0658 10.02 67.2358 9.85 67.5758 9.63C67.8958 9.39 68.3058 9.13 68.8058 8.85C69.2858 8.57 69.8158 8.28 70.3958 7.98C70.9558 7.68 71.4758 7.41 71.9558 7.17C72.4558 6.93 72.8658 6.73 73.1858 6.57C73.5258 6.41 73.6958 6.33 73.6958 6.33C73.5158 5.41 73.3658 4.59 73.2458 3.87C73.1458 3.25 73.0458 2.68 72.9458 2.16C72.8658 1.64 72.8258 1.36 72.8258 1.32C72.8258 1.06 72.8758 0.869999 72.9758 0.749999C73.0958 0.609999 73.2258 0.539999 73.3658 0.539999C73.5858 0.539999 73.7258 0.689999 73.7858 0.989999C74.0058 2.07 74.2058 3.03 74.3858 3.87C74.5858 4.71 74.7758 5.39 74.9558 5.91C75.1358 5.87 75.4458 5.76 75.8858 5.58C76.3258 5.38 76.7858 5.17 77.2658 4.95C77.7458 4.73 78.1758 4.54 78.5558 4.38C78.9558 4.2 79.1858 4.11 79.2458 4.11C79.3658 4.11 79.4358 4.15 79.4558 4.23C79.4958 4.31 79.5358 4.38 79.5758 4.44ZM82.9759 4.2C82.9759 4.24 82.9059 4.32 82.7659 4.44C82.6259 4.56 82.4559 4.69 82.2559 4.83C82.0759 4.95 81.8859 5.06 81.6859 5.16C81.4859 5.26 81.3259 5.31 81.2059 5.31C81.1259 5.31 81.0159 5.31 80.8759 5.31C80.7559 5.29 80.6259 5.25 80.4859 5.19C80.3659 5.13 80.2559 5.05 80.1559 4.95C80.0559 4.83 80.0059 4.68 80.0059 4.5C80.0059 4.22 80.1059 3.96 80.3059 3.72C80.5059 3.46 80.7659 3.33 81.0859 3.33C81.1459 3.33 81.2759 3.36 81.4759 3.42C81.6959 3.46 81.9159 3.52 82.1359 3.6C82.3559 3.68 82.5459 3.77 82.7059 3.87C82.8859 3.97 82.9759 4.08 82.9759 4.2ZM83.9659 15.42C83.9659 15.56 83.8559 15.68 83.6359 15.78C83.4359 15.88 83.2859 15.93 83.1859 15.93C82.9859 15.93 82.8059 15.8 82.6459 15.54C82.4859 15.28 82.3459 14.98 82.2259 14.64C82.1059 14.3 82.0059 13.98 81.9259 13.68C81.8459 13.36 81.7859 13.14 81.7459 13.02C81.6859 12.82 81.6059 12.58 81.5059 12.3C81.4059 12.02 81.3059 11.75 81.2059 11.49C81.1259 11.23 81.0559 11 80.9959 10.8C80.9359 10.6 80.9059 10.49 80.9059 10.47C80.9059 10.19 80.9559 9.93 81.0559 9.69C81.1759 9.45 81.3159 9.33 81.4759 9.33C81.6559 9.33 81.8459 9.47 82.0459 9.75C82.2459 10.03 82.4359 10.39 82.6159 10.83C82.8159 11.25 82.9959 11.72 83.1559 12.24C83.3159 12.74 83.4559 13.22 83.5759 13.68C83.6959 14.12 83.7859 14.51 83.8459 14.85C83.9259 15.17 83.9659 15.36 83.9659 15.42ZM91.2341 11.52C91.2341 11.96 91.1741 12.38 91.0541 12.78C90.9341 13.18 90.7741 13.53 90.5741 13.83C90.3741 14.13 90.1341 14.37 89.8541 14.55C89.5941 14.71 89.3041 14.79 88.9841 14.79C88.4241 14.79 87.9841 14.63 87.6641 14.31C87.3441 13.99 87.0941 13.62 86.9141 13.2C86.7541 12.78 86.6441 12.36 86.5841 11.94C86.5441 11.5 86.5241 11.17 86.5241 10.95C86.5241 10.59 86.5741 10.19 86.6741 9.75C86.7941 9.29 86.9441 8.87 87.1241 8.49C87.3241 8.11 87.5441 7.79 87.7841 7.53C88.0241 7.27 88.2741 7.14 88.5341 7.14C88.5941 7.14 88.6841 7.16 88.8041 7.2C88.9441 7.24 89.0841 7.3 89.2241 7.38C89.3641 7.46 89.4841 7.56 89.5841 7.68C89.7041 7.8 89.7841 7.94 89.8241 8.1C90.0441 8.12 90.2641 8.2 90.4841 8.34C90.7041 8.48 90.8241 8.59 90.8441 8.67C91.0041 9.19 91.1041 9.71 91.1441 10.23C91.2041 10.75 91.2341 11.18 91.2341 11.52ZM89.8841 10.98C89.8841 10.68 89.8541 10.37 89.7941 10.05C89.7341 9.71 89.6141 9.37 89.4341 9.03C89.3941 9.05 89.3441 9.06 89.2841 9.06C89.2041 9.06 89.1341 9.05 89.0741 9.03C89.0341 9.01 88.9941 9 88.9541 9C88.7141 9 88.5241 9.07 88.3841 9.21C88.2441 9.33 88.1341 9.5 88.0541 9.72C87.9941 9.92 87.9541 10.14 87.9341 10.38C87.9141 10.62 87.9041 10.85 87.9041 11.07C87.9041 11.29 87.9141 11.54 87.9341 11.82C87.9541 12.08 87.9941 12.33 88.0541 12.57C88.1341 12.81 88.2341 13.02 88.3541 13.2C88.4741 13.36 88.6341 13.44 88.8341 13.44C89.0341 13.44 89.2041 13.34 89.3441 13.14C89.4841 12.92 89.5941 12.67 89.6741 12.39C89.7541 12.11 89.8041 11.84 89.8241 11.58C89.8641 11.3 89.8841 11.1 89.8841 10.98ZM103.272 14.31C103.272 14.43 103.232 14.55 103.152 14.67C103.072 14.79 102.972 14.9 102.852 15C102.752 15.1 102.632 15.19 102.492 15.27C102.372 15.33 102.262 15.36 102.162 15.36C101.822 15.36 101.382 15.29 100.842 15.15C100.322 14.99 99.9023 14.75 99.5823 14.43C99.2423 14.09 98.9423 13.69 98.6823 13.23C98.4223 12.75 98.1323 12.05 97.8123 11.13C97.5923 12.01 97.3323 12.88 97.0323 13.74C96.7523 14.6 96.2923 15.39 95.6523 16.11C95.6123 16.15 95.5523 16.17 95.4723 16.17C95.3323 16.17 95.1823 16.1 95.0223 15.96C94.8623 15.82 94.7823 15.68 94.7823 15.54C94.7823 15.4 94.7623 15.08 94.7223 14.58C94.7023 14.06 94.6723 13.49 94.6323 12.87C94.5923 12.23 94.5523 11.59 94.5123 10.95C94.4923 10.29 94.4823 9.75 94.4823 9.33C94.4823 9.13 94.4923 8.87 94.5123 8.55C94.5323 8.21 94.5923 7.92 94.6923 7.68C94.7123 7.64 94.7823 7.56 94.9023 7.44C95.0423 7.32 95.1923 7.26 95.3523 7.26C95.4923 7.26 95.5723 7.35 95.5923 7.53C95.6123 7.71 95.6223 7.91 95.6223 8.13V12.87C95.6223 12.97 95.6323 13.11 95.6523 13.29C95.6923 13.47 95.7423 13.6 95.8023 13.68C96.0223 13.2 96.2223 12.64 96.4023 12C96.6023 11.34 96.7923 10.72 96.9723 10.14C97.1523 9.54 97.3323 9.04 97.5123 8.64C97.6923 8.22 97.8723 8.01 98.0523 8.01C98.2523 8.01 98.4123 8.05 98.5323 8.13C98.6523 8.21 98.7523 8.37 98.8323 8.61C98.9323 9.19 99.0123 9.71 99.0723 10.17C99.1323 10.61 99.2023 11.01 99.2823 11.37C99.3823 11.73 99.5123 12.07 99.6723 12.39C99.8523 12.69 100.092 12.97 100.392 13.23C100.672 13.49 100.982 13.68 101.322 13.8C101.682 13.92 101.992 13.98 102.252 13.98C102.372 13.98 102.502 13.96 102.642 13.92C102.782 13.86 102.882 13.83 102.942 13.83C103.022 13.83 103.092 13.9 103.152 14.04C103.232 14.18 103.272 14.27 103.272 14.31ZM111.569 14.04C111.569 14.38 111.449 14.68 111.209 14.94C110.989 15.18 110.699 15.39 110.339 15.57C109.999 15.73 109.619 15.86 109.199 15.96C108.779 16.06 108.379 16.14 107.999 16.2C107.619 16.24 107.279 16.27 106.979 16.29C106.699 16.29 106.519 16.29 106.439 16.29C105.999 16.29 105.659 16.22 105.419 16.08C105.179 15.94 105.059 15.69 105.059 15.33C105.059 15.21 105.069 15.11 105.089 15.03C105.109 14.93 105.189 14.88 105.329 14.88C105.389 14.88 105.489 14.9 105.629 14.94C105.769 14.96 105.879 14.97 105.959 14.97C106.039 14.97 106.289 14.96 106.709 14.94C107.149 14.9 107.609 14.84 108.089 14.76C108.589 14.68 109.029 14.57 109.409 14.43C109.809 14.27 110.009 14.07 110.009 13.83C110.009 13.79 109.799 13.67 109.379 13.47C108.979 13.25 108.369 12.89 107.549 12.39C106.909 11.99 106.459 11.59 106.199 11.19C105.939 10.77 105.809 10.21 105.809 9.51C105.809 9.07 105.899 8.71 106.079 8.43C106.279 8.15 106.539 7.93 106.859 7.77C107.199 7.61 107.579 7.5 107.999 7.44C108.439 7.36 108.899 7.32 109.379 7.32C109.419 7.32 109.539 7.34 109.739 7.38C109.959 7.42 110.189 7.49 110.429 7.59C110.669 7.67 110.879 7.78 111.059 7.92C111.259 8.04 111.359 8.18 111.359 8.34C111.359 8.38 111.319 8.44 111.239 8.52C111.179 8.6 111.069 8.75 110.909 8.97C110.849 8.95 110.739 8.92 110.579 8.88C110.439 8.84 110.269 8.8 110.069 8.76C109.889 8.7 109.699 8.66 109.499 8.64C109.299 8.6 109.139 8.58 109.019 8.58C108.499 8.58 108.079 8.68 107.759 8.88C107.439 9.06 107.279 9.42 107.279 9.96C107.279 10.22 107.379 10.46 107.579 10.68C107.799 10.9 108.069 11.11 108.389 11.31C108.709 11.49 109.049 11.68 109.409 11.88C109.789 12.06 110.139 12.26 110.459 12.48C110.779 12.7 111.039 12.94 111.239 13.2C111.459 13.44 111.569 13.72 111.569 14.04ZM129.857 3.51C129.857 3.69 129.767 4.08 129.587 4.68C129.407 5.28 129.207 5.95 128.987 6.69C128.787 7.41 128.597 8.12 128.417 8.82C128.257 9.52 128.177 10.07 128.177 10.47C128.177 10.89 128.197 11.24 128.237 11.52C128.277 11.78 128.317 12 128.357 12.18C128.417 12.36 128.467 12.52 128.507 12.66C128.547 12.78 128.567 12.93 128.567 13.11C128.567 13.51 128.387 13.71 128.027 13.71C127.967 13.71 127.907 13.67 127.847 13.59C127.407 12.95 127.137 12.32 127.037 11.7C126.957 11.08 126.917 10.6 126.917 10.26C126.917 9.84 126.977 9.3 127.097 8.64C127.217 7.96 127.367 7.25 127.547 6.51C127.727 5.75 127.927 5 128.147 4.26C128.387 3.5 128.617 2.84 128.837 2.28C128.877 2.24 128.927 2.2 128.987 2.16C129.047 2.12 129.127 2.1 129.227 2.1C129.367 2.1 129.477 2.16 129.557 2.28C129.637 2.38 129.697 2.51 129.737 2.67C129.777 2.81 129.807 2.96 129.827 3.12C129.847 3.28 129.857 3.41 129.857 3.51ZM130.847 16.98C130.847 17.2 130.777 17.43 130.637 17.67C130.517 17.89 130.357 18 130.157 18C129.897 18 129.647 17.87 129.407 17.61C129.187 17.35 129.077 17.05 129.077 16.71C129.077 16.59 129.097 16.44 129.137 16.26C129.197 16.06 129.327 15.96 129.527 15.96C129.607 15.96 129.717 15.97 129.857 15.99C129.997 16.01 130.137 16.06 130.277 16.14C130.437 16.2 130.567 16.3 130.667 16.44C130.787 16.58 130.847 16.76 130.847 16.98Z" fill="#656565"/>
</svg>
