<svg width="265" height="49" viewBox="0 0 265 49" fill="none" xmlns="http://www.w3.org/2000/svg">
<rect width="264.08" height="48.0146" fill="#EC8989"/>
<mask id="mask0_415_3" style="mask-type:alpha" maskUnits="userSpaceOnUse" x="221" y="5" width="38" height="38">
<path d="M258.745 24.0083C258.745 34.3207 250.385 42.6806 240.073 42.6806C229.76 42.6806 221.4 34.3207 221.4 24.0083C221.4 13.6958 229.76 5.33594 240.073 5.33594C250.385 5.33594 258.745 13.6958 258.745 24.0083Z" fill="#EC8989"/>
</mask>
<g mask="url(#mask0_415_3)">
<path d="M224.167 39.9276C224.167 39.9276 222.564 25.7808 232.234 20.4502L245.897 20.7399C245.897 20.7399 251.737 22.7374 252.521 39.5769L238.969 45.3467L224.167 39.9276Z" fill="#5154A1"/>
<path d="M245.662 20.2871C245.662 20.2871 242.53 24.2464 238.406 24.0578L239.213 27.1098C239.213 27.1098 245.756 23.1211 245.662 20.2871Z" fill="#373684"/>
<path d="M245.662 20.2871C245.662 20.2871 242.292 24.0107 238.167 23.8222L238.963 26.8712C238.963 26.8712 244.914 23.6985 245.662 20.2871Z" fill="#FAF3ED"/>
<path d="M237.131 23.6018L236.497 26.7156C236.497 26.7156 232.888 22.6267 232.667 20.0078C232.665 20.0078 235.767 23.3926 237.131 23.6018Z" fill="#373684"/>
<path d="M236.96 23.5606L236.211 26.5742C236.211 26.5742 232.888 22.6238 232.676 20.0078C233.7 21.6088 235.197 22.8508 236.96 23.5606Z" fill="#FAF3ED"/>
<path d="M238.079 25.231C238.079 25.231 238.745 32.9286 239.169 34.6873C239.593 36.446 237.623 38.2636 237.505 38.8705H234.966C234.966 38.8705 233.749 36.6876 234.02 35.0408C234.291 33.3941 237.302 25.1338 237.302 25.1338L238.079 25.231Z" fill="#C7361A"/>
<path d="M237.946 25.1832C237.946 25.1832 238.612 32.8808 239.036 34.6395C239.46 36.3982 237.487 38.2158 237.369 38.8226H234.838C234.838 38.8226 233.619 36.6397 233.893 34.993C234.167 33.3462 237.166 25.083 237.166 25.083L237.946 25.1832Z" fill="#E8461C"/>
<path d="M237.16 24.8976L237.522 24.5117C237.543 24.4883 237.569 24.4701 237.599 24.4587C237.628 24.4466 237.659 24.4415 237.69 24.4439C237.722 24.4465 237.753 24.4555 237.781 24.4705C237.809 24.4854 237.832 24.5066 237.849 24.5323L238.223 25.0567C238.24 25.0791 238.253 25.1048 238.259 25.1322C238.266 25.1596 238.267 25.1881 238.262 25.2158C238.258 25.2435 238.248 25.2701 238.233 25.2939C238.219 25.3177 238.199 25.3383 238.176 25.3542L237.652 25.7254C237.626 25.7436 237.597 25.7557 237.566 25.7608C237.535 25.7681 237.503 25.7681 237.472 25.7608C237.442 25.752 237.414 25.7369 237.39 25.7166C237.365 25.6957 237.346 25.6695 237.334 25.64L237.119 25.1303C237.107 25.0909 237.107 25.049 237.119 25.0096C237.121 24.969 237.135 24.9301 237.16 24.8976Z" fill="#C7361A"/>
<path d="M237.093 24.8731L237.443 24.499C237.464 24.4774 237.489 24.4603 237.517 24.4489C237.546 24.4415 237.576 24.4415 237.605 24.4489C237.635 24.4494 237.665 24.4575 237.691 24.4724C237.718 24.4874 237.741 24.5086 237.758 24.5343L238.118 25.041C238.133 25.0621 238.144 25.0862 238.15 25.1117C238.156 25.1379 238.156 25.1651 238.15 25.1912C238.146 25.2186 238.136 25.2448 238.121 25.2678C238.107 25.2908 238.089 25.3108 238.068 25.3267L237.567 25.6832C237.541 25.7004 237.512 25.7125 237.481 25.7186C237.451 25.7244 237.42 25.7244 237.39 25.7186C237.361 25.7098 237.334 25.6947 237.311 25.6744C237.287 25.6545 237.269 25.6292 237.257 25.6007L237.051 25.1088C237.04 25.0714 237.04 25.0313 237.051 24.9939C237.053 24.9504 237.067 24.9082 237.093 24.8731Z" fill="#E8461C"/>
<path d="M233.757 20.2571C233.428 20.2571 233.102 20.1922 232.797 20.066C232.493 19.9398 232.217 19.7549 231.984 19.5218C231.751 19.2887 231.566 19.012 231.441 18.7075C231.315 18.403 231.25 18.0767 231.25 17.7472C231.25 17.0823 231.515 16.4447 231.985 15.9745C232.455 15.5044 233.093 15.2402 233.757 15.2402C234.423 15.2402 235.061 15.5043 235.531 15.9743C236.002 16.4444 236.267 17.082 236.267 17.7472C236.267 18.4129 236.003 19.0513 235.532 19.522C235.062 19.9927 234.423 20.2571 233.757 20.2571Z" fill="#F39672"/>
<path d="M243.811 17.7683C243.809 17.2957 243.916 16.8289 244.123 16.4044C244.306 16.021 244.597 15.6995 244.96 15.4793C245.287 15.2838 245.675 15.2156 246.05 15.2879C246.441 15.3717 246.792 15.5856 247.046 15.8947C247.34 16.2404 247.543 16.6548 247.635 17.0996C247.734 17.5685 247.727 18.0537 247.614 18.5195C247.513 18.9579 247.302 19.3634 247.002 19.6979C246.736 19.9918 246.379 20.1879 245.988 20.2546C245.913 20.2664 245.837 20.2723 245.761 20.2723C245.634 20.2729 245.507 20.2571 245.384 20.2252C244.913 20.0882 244.511 19.7777 244.259 19.3561C243.963 18.8795 243.808 18.3292 243.811 17.7683Z" fill="#F39672"/>
<path d="M239.226 23.861C235.317 23.861 232.156 21.0948 232.156 17.6747C232.156 14.2545 235.326 11.4883 239.226 11.4883C243.126 11.4883 246.296 14.2545 246.296 17.6747C246.296 21.0948 243.135 23.861 239.226 23.861Z" fill="#F39672"/>
<path d="M241.025 16.2691C241.041 16.2719 241.058 16.2719 241.075 16.2691L242.368 15.7477C242.4 15.7346 242.426 15.7093 242.44 15.6773C242.454 15.6454 242.454 15.6092 242.442 15.5768C242.429 15.5445 242.403 15.5187 242.371 15.505C242.339 15.4912 242.303 15.4905 242.271 15.5032L240.975 16.0246C240.958 16.0307 240.944 16.0401 240.931 16.0521C240.919 16.0642 240.909 16.0787 240.902 16.0947C240.896 16.1107 240.892 16.1279 240.893 16.1452C240.893 16.1626 240.897 16.1796 240.904 16.1954C240.915 16.2181 240.932 16.2371 240.953 16.2502C240.975 16.2633 241 16.2698 241.025 16.2691Z" fill="black"/>
<path d="M235.97 16.1719C235.997 16.1719 236.023 16.1637 236.045 16.1484C236.067 16.1332 236.084 16.1116 236.094 16.0865C236.1 16.0704 236.103 16.0533 236.102 16.0362C236.102 16.019 236.098 16.0021 236.091 15.9865C236.083 15.9709 236.073 15.9568 236.061 15.9452C236.048 15.9335 236.033 15.9245 236.017 15.9186L234.712 15.4237C234.679 15.4112 234.643 15.4123 234.611 15.4266C234.579 15.441 234.554 15.4675 234.541 15.5003C234.529 15.5331 234.53 15.5695 234.544 15.6015C234.559 15.6336 234.585 15.6586 234.618 15.6711L235.923 16.166C235.938 16.1709 235.954 16.1729 235.97 16.1719Z" fill="black"/>
<path d="M234.91 17.6063C234.818 17.6063 234.726 17.5882 234.641 17.553C234.556 17.5177 234.479 17.4661 234.414 17.401C234.349 17.3359 234.297 17.2586 234.262 17.1735C234.227 17.0884 234.208 16.9973 234.208 16.9052C234.209 16.7198 234.284 16.5422 234.415 16.4113C234.546 16.2805 234.724 16.207 234.91 16.207C235.095 16.207 235.273 16.2805 235.404 16.4113C235.536 16.5422 235.61 16.7198 235.611 16.9052C235.611 16.9973 235.593 17.0884 235.557 17.1735C235.522 17.2586 235.471 17.3359 235.405 17.401C235.34 17.4661 235.263 17.5177 235.178 17.553C235.093 17.5882 235.002 17.6063 234.91 17.6063Z" fill="#1B1935"/>
<path d="M242.023 17.6063C241.837 17.6063 241.659 17.5325 241.528 17.401C241.396 17.2695 241.322 17.0912 241.322 16.9052C241.323 16.7198 241.397 16.5422 241.529 16.4113C241.66 16.2805 241.838 16.207 242.023 16.207C242.209 16.207 242.386 16.2806 242.517 16.4115C242.648 16.5425 242.722 16.72 242.722 16.9052C242.722 16.9971 242.704 17.0882 242.669 17.1733C242.634 17.2583 242.583 17.3357 242.518 17.4008C242.453 17.4659 242.376 17.5176 242.291 17.5529C242.206 17.5882 242.115 17.6063 242.023 17.6063Z" fill="#1B1935"/>
<path d="M247.046 18.7168C247.174 18.4151 247.24 18.0903 247.238 17.7624C247.236 17.4356 247.167 17.1127 247.034 16.8138C246.916 16.5404 246.729 16.302 246.492 16.1215C246.281 15.96 246.022 15.8711 245.756 15.8682C245.756 15.8682 247.482 16.4367 247.046 18.7168Z" fill="#BC6A4F"/>
<path d="M245.756 15.2708C245.457 15.2736 245.166 15.3592 244.913 15.5183C245.022 15.4107 245.156 15.3318 245.303 15.2886C245.45 15.2454 245.606 15.2393 245.756 15.2708Z" fill="#BC6A4F"/>
<path d="M236.217 22.4824C236.633 22.8035 237.46 23.0215 238.415 23.0215C239.369 23.0215 240.182 22.8035 240.613 22.4824C240.613 22.4824 238.406 23.3161 236.217 22.4824Z" fill="#BC6A4F"/>
<path d="M242.504 11.2295H242.209V12.561H242.504V11.2295Z" fill="#1D1D1B"/>
<path d="M243.59 11.7432H243.296V13.0747H243.59V11.7432Z" fill="#1D1D1B"/>
<path d="M244.628 12.5596H244.333V13.8911H244.628V12.5596Z" fill="#1D1D1B"/>
<path d="M245.483 13.5742H245.188V14.9058H245.483V13.5742Z" fill="#1D1D1B"/>
<path d="M241.505 10.8408H241.21V12.1724H241.505V10.8408Z" fill="#1D1D1B"/>
<path d="M240.256 10.5635H239.961V11.895H240.256V10.5635Z" fill="#1D1D1B"/>
<path d="M239.373 10.5635H239.078V11.895H239.373V10.5635Z" fill="#1D1D1B"/>
<path d="M238.391 10.5635H238.097V11.895H238.391V10.5635Z" fill="#1D1D1B"/>
<path d="M237.361 10.8408H237.066V12.1724H237.361V10.8408Z" fill="#1D1D1B"/>
<path d="M236.42 11.2295H236.125V12.561H236.42V11.2295Z" fill="#1D1D1B"/>
<path d="M235.454 11.7432H235.16V13.0747H235.454V11.7432Z" fill="#1D1D1B"/>
<path d="M234.582 12.3223H234.288V13.6538H234.582V12.3223Z" fill="#1D1D1B"/>
<path d="M241.001 18.8332C240.748 18.5805 240.405 18.4386 240.047 18.4385H236.789C236.611 18.4382 236.436 18.4729 236.272 18.5407C236.108 18.6084 235.959 18.7078 235.834 18.8332C235.581 19.0863 235.438 19.4295 235.437 19.7877V24.3067C235.616 24.3071 235.793 24.2722 235.958 24.2039C236.124 24.1357 236.274 24.0355 236.401 23.9091C236.527 23.7827 236.628 23.6325 236.697 23.4672C236.765 23.3019 236.8 23.1247 236.8 22.9457V19.7877H240.041V22.9457C240.041 23.3066 240.184 23.6528 240.44 23.9081C240.695 24.1633 241.041 24.3067 241.402 24.3067V19.7877C241.401 19.6101 241.365 19.4344 241.297 19.2706C241.228 19.1068 241.128 18.9582 241.001 18.8332Z" fill="#D8690E"/>
<path d="M237.745 20.334H238.452C238.5 20.3343 238.546 20.3487 238.585 20.3753C238.624 20.4019 238.654 20.4395 238.672 20.4834C238.69 20.5273 238.694 20.5755 238.684 20.6218C238.675 20.6681 238.651 20.7104 238.617 20.7434L238.084 21.2619L237.575 20.7376C237.542 20.7039 237.521 20.6615 237.512 20.6156C237.504 20.5698 237.509 20.5225 237.527 20.4796C237.545 20.4366 237.576 20.4 237.614 20.3741C237.653 20.3482 237.699 20.3343 237.745 20.334Z" fill="#D8690E"/>
<path d="M229.804 36.5016C229.804 36.5016 230.299 38.6933 230.287 38.6491C230.456 38.5386 230.637 38.4477 230.826 38.3781C230.77 37.7604 230.671 37.1472 230.532 36.5428C230.361 36.4634 230.181 36.406 229.996 36.372C229.996 36.372 230.29 30.2828 232.058 29.8232C230.028 30.2209 229.804 36.5016 229.804 36.5016Z" fill="#373684"/>
<path d="M229.804 36.5032C228.137 36.2587 225.762 36.3588 224.469 36.4413V36.1968C224.469 36.1968 228.652 36.0908 229.804 36.5032Z" fill="#373684"/>
<path d="M246.822 36.4137C246.822 36.4137 246.33 38.6084 246.339 38.5612C246.171 38.4512 245.991 38.3603 245.803 38.2902C245.861 37.6726 245.959 37.0595 246.098 36.4549C246.269 36.3773 246.449 36.3209 246.634 36.287C246.634 36.287 246.163 30.1949 244.398 29.7383C246.431 30.1419 246.822 36.4137 246.822 36.4137Z" fill="#373684"/>
<path d="M246.823 36.4134C248.493 36.1719 250.867 36.2691 252.161 36.3516V36.11C252.161 36.11 247.983 36.0039 246.823 36.4134Z" fill="#373684"/>
<g clip-path="url(#clip0_415_3)">
<path d="M230.587 38.6725C230.587 38.6725 230.49 42.0354 229.273 40.9684C229.273 40.9684 228.658 42.6482 227.916 41.3494C227.916 41.3494 227.204 43.2548 226.574 41.2732C226.574 41.2732 225.749 43.7533 224.911 41.0446C224.911 41.0446 222.254 45.5697 222.044 38.6725L230.587 38.6725Z" fill="#F39672"/>
<path d="M229.598 38.6719C229.598 39.522 229.482 40.3414 229.271 40.9678C229.271 40.9678 229.696 40.3009 229.598 38.6719Z" fill="#BC6A4F"/>
<path d="M228.13 38.6727C228.197 40.543 227.916 41.3496 227.916 41.3496C227.916 41.3496 228.341 40.6669 228.13 38.6727Z" fill="#BC6A4F"/>
<path d="M226.903 38.6727C226.883 39.6055 226.769 40.5053 226.574 41.2734C226.701 40.9415 226.796 40.5327 226.853 40.0807C226.91 39.6286 226.927 39.1461 226.903 38.6727Z" fill="#BC6A4F"/>
<path d="M224.593 39.5451C224.656 40.1038 224.764 40.6164 224.91 41.0439C224.812 40.8965 224.731 40.6789 224.675 40.4148C224.619 40.1506 224.591 39.8499 224.593 39.5451Z" fill="#BC6A4F"/>
</g>
<g clip-path="url(#clip1_415_3)">
<path d="M254.744 38.6725C254.744 38.6725 254.646 42.0354 253.43 40.9684C253.43 40.9684 252.814 42.6482 252.073 41.3494C252.073 41.3494 251.361 43.2548 250.731 41.2732C250.731 41.2732 249.906 43.7533 249.068 41.0446C249.068 41.0446 246.411 45.5697 246.201 38.6725L254.744 38.6725Z" fill="#F39672"/>
<path d="M253.755 38.6719C253.755 39.522 253.638 40.3414 253.428 40.9678C253.428 40.9678 253.853 40.3009 253.755 38.6719Z" fill="#BC6A4F"/>
<path d="M252.287 38.6727C252.353 40.543 252.073 41.3496 252.073 41.3496C252.073 41.3496 252.498 40.6669 252.287 38.6727Z" fill="#BC6A4F"/>
<path d="M251.059 38.6727C251.04 39.6055 250.926 40.5053 250.731 41.2734C250.857 40.9415 250.953 40.5327 251.01 40.0807C251.067 39.6286 251.084 39.1461 251.059 38.6727Z" fill="#BC6A4F"/>
<path d="M248.75 39.5451C248.812 40.1038 248.921 40.6164 249.066 41.0439C248.969 40.8965 248.887 40.6789 248.832 40.4148C248.776 40.1506 248.748 39.8499 248.75 39.5451Z" fill="#BC6A4F"/>
</g>
<path d="M223.771 38.8238C223.771 38.8238 223.423 37.4451 223.544 36.5083C223.544 36.5083 228.14 36.0841 230.42 36.6144C230.42 36.6144 230.75 38.1816 230.629 38.8238H223.771Z" fill="#FAF3ED"/>
<path d="M252.858 38.7359C252.858 38.7359 253.206 37.3601 253.085 36.4233C253.085 36.4233 248.489 35.9991 246.209 36.5294C246.209 36.5294 245.879 38.0966 246 38.7359H252.858Z" fill="#FAF3ED"/>
</g>
<defs>
<clipPath id="clip0_415_3">
<rect width="8.54308" height="3.82966" fill="white" transform="translate(230.587 42.502) rotate(-180)"/>
</clipPath>
<clipPath id="clip1_415_3">
<rect width="8.54308" height="3.82966" fill="white" transform="translate(254.744 42.502) rotate(-180)"/>
</clipPath>
</defs>
</svg>
