<svg width="198" height="36" viewBox="0 0 198 36" fill="none" xmlns="http://www.w3.org/2000/svg">
<rect width="198" height="36" fill="#EC8989"/>
<mask id="mask0_415_3" style="mask-type:alpha" maskUnits="userSpaceOnUse" x="166" y="4" width="28" height="28">
<path d="M194 18C194 25.732 187.732 32 180 32C172.268 32 166 25.732 166 18C166 10.268 172.268 4 180 4C187.732 4 194 10.268 194 18Z" fill="#EC8989"/>
</mask>
<g mask="url(#mask0_415_3)">
<path d="M168.075 29.9366C168.075 29.9366 166.872 19.3297 174.123 15.333L184.367 15.5502C184.367 15.5502 188.745 17.0479 189.333 29.6737L179.172 33.9997L168.075 29.9366Z" fill="#5154A1"/>
<path d="M184.19 15.2109C184.19 15.2109 181.842 18.1795 178.75 18.0381L179.355 20.3264C179.355 20.3264 184.261 17.3358 184.19 15.2109Z" fill="#373684"/>
<path d="M184.19 15.2109C184.19 15.2109 181.664 18.0028 178.571 17.8614L179.168 20.1475C179.168 20.1475 183.629 17.7687 184.19 15.2109Z" fill="#FAF3ED"/>
<path d="M177.794 17.6957L177.319 20.0303C177.319 20.0303 174.613 16.9646 174.447 15.001C174.445 15.001 176.771 17.5388 177.794 17.6957Z" fill="#373684"/>
<path d="M177.666 17.6647L177.105 19.9243C177.105 19.9243 174.613 16.9623 174.454 15.001C175.221 16.2014 176.344 17.1325 177.666 17.6647Z" fill="#FAF3ED"/>
<path d="M178.505 18.9176C178.505 18.9176 179.004 24.6891 179.322 26.0077C179.64 27.3263 178.162 28.6891 178.074 29.1441H176.17C176.17 29.1441 175.258 27.5074 175.461 26.2727C175.664 25.0381 177.922 18.8447 177.922 18.8447L178.505 18.9176Z" fill="#C7361A"/>
<path d="M178.405 18.8817C178.405 18.8817 178.904 24.6532 179.222 25.9718C179.541 27.2904 178.061 28.6532 177.972 29.1082H176.075C176.075 29.1082 175.161 27.4715 175.366 26.2369C175.571 25.0022 177.82 18.8066 177.82 18.8066L178.405 18.8817Z" fill="#E8461C"/>
<path d="M177.816 18.6677L178.087 18.3784C178.103 18.3608 178.123 18.3472 178.145 18.3386C178.167 18.3296 178.19 18.3258 178.213 18.3276C178.237 18.3295 178.261 18.3363 178.282 18.3475C178.302 18.3587 178.32 18.3746 178.333 18.3939L178.613 18.787C178.626 18.8038 178.635 18.8231 178.64 18.8436C178.645 18.8642 178.646 18.8855 178.642 18.9063C178.639 18.9271 178.632 18.947 178.621 18.9649C178.61 18.9827 178.595 18.9981 178.578 19.0101L178.185 19.2884C178.166 19.302 178.144 19.3111 178.121 19.3149C178.097 19.3204 178.073 19.3204 178.05 19.3149C178.027 19.3083 178.006 19.297 177.988 19.2818C177.97 19.2661 177.955 19.2465 177.946 19.2243L177.785 18.8422C177.776 18.8127 177.776 18.7812 177.785 18.7517C177.787 18.7213 177.797 18.6921 177.816 18.6677Z" fill="#C7361A"/>
<path d="M177.765 18.6493L178.028 18.3688C178.044 18.3526 178.062 18.3399 178.083 18.3313C178.105 18.3258 178.128 18.3258 178.149 18.3313C178.172 18.3316 178.194 18.3377 178.213 18.349C178.234 18.3601 178.251 18.376 178.264 18.3953L178.534 18.7752C178.545 18.7911 178.554 18.8091 178.558 18.8283C178.562 18.8479 178.562 18.8683 178.558 18.8879C178.555 18.9084 178.547 18.928 178.536 18.9453C178.526 18.9625 178.512 18.9776 178.496 18.9895L178.121 19.2568C178.101 19.2697 178.079 19.2787 178.057 19.2833C178.034 19.2877 178.011 19.2877 177.988 19.2833C177.966 19.2767 177.946 19.2654 177.929 19.2501C177.911 19.2352 177.897 19.2163 177.889 19.1949L177.734 18.826C177.725 18.798 177.725 18.7679 177.734 18.7399C177.735 18.7073 177.746 18.6757 177.765 18.6493Z" fill="#E8461C"/>
<path d="M175.264 15.1883C175.017 15.1883 174.773 15.1396 174.545 15.045C174.316 14.9504 174.109 14.8117 173.935 14.6369C173.76 14.4622 173.622 14.2547 173.527 14.0264C173.433 13.7981 173.384 13.5534 173.385 13.3064C173.385 12.8079 173.583 12.3298 173.935 11.9773C174.288 11.6248 174.766 11.4268 175.264 11.4268C175.763 11.4268 176.241 11.6247 176.594 11.9772C176.947 12.3296 177.146 12.8077 177.146 13.3064C177.146 13.8055 176.948 14.2842 176.595 14.6371C176.242 14.99 175.764 15.1883 175.264 15.1883Z" fill="#F39672"/>
<path d="M182.803 13.3222C182.801 12.9679 182.881 12.6179 183.037 12.2996C183.174 12.0122 183.392 11.7711 183.664 11.606C183.91 11.4594 184.201 11.4083 184.481 11.4625C184.775 11.5253 185.038 11.6857 185.228 11.9175C185.449 12.1766 185.601 12.4873 185.67 12.8208C185.744 13.1724 185.739 13.5362 185.654 13.8855C185.579 14.2142 185.42 14.5182 185.195 14.769C184.996 14.9894 184.728 15.1364 184.435 15.1864C184.379 15.1952 184.322 15.1996 184.265 15.1997C184.17 15.2001 184.075 15.1883 183.982 15.1643C183.629 15.0617 183.327 14.8288 183.139 14.5128C182.917 14.1554 182.8 13.7428 182.803 13.3222Z" fill="#F39672"/>
<path d="M179.364 17.89C176.433 17.89 174.063 15.816 174.063 13.2516C174.063 10.6873 176.44 8.61328 179.364 8.61328C182.289 8.61328 184.665 10.6873 184.665 13.2516C184.665 15.816 182.295 17.89 179.364 17.89Z" fill="#F39672"/>
<path d="M180.713 12.1982C180.726 12.2003 180.738 12.2003 180.751 12.1982L181.721 11.8073C181.745 11.7974 181.764 11.7785 181.774 11.7545C181.785 11.7306 181.785 11.7035 181.776 11.6792C181.766 11.655 181.747 11.6356 181.723 11.6253C181.699 11.615 181.672 11.6145 181.648 11.6239L180.676 12.0149C180.664 12.0195 180.653 12.0265 180.643 12.0356C180.634 12.0446 180.626 12.0555 180.621 12.0675C180.617 12.0795 180.614 12.0924 180.614 12.1054C180.614 12.1184 180.617 12.1312 180.623 12.143C180.631 12.16 180.644 12.1743 180.66 12.1841C180.676 12.1939 180.694 12.1988 180.713 12.1982Z" fill="black"/>
<path d="M176.923 12.1251C176.944 12.1251 176.963 12.1189 176.98 12.1075C176.996 12.0961 177.009 12.0799 177.016 12.061C177.021 12.049 177.023 12.0362 177.023 12.0233C177.022 12.0105 177.019 11.9978 177.014 11.9861C177.008 11.9744 177.001 11.9638 176.991 11.9551C176.982 11.9464 176.971 11.9396 176.959 11.9351L175.98 11.5641C175.956 11.5547 175.928 11.5556 175.904 11.5663C175.88 11.5771 175.862 11.5969 175.852 11.6215C175.843 11.6461 175.844 11.6734 175.854 11.6974C175.865 11.7215 175.885 11.7402 175.91 11.7496L176.888 12.1207C176.899 12.1243 176.911 12.1258 176.923 12.1251Z" fill="black"/>
<path d="M176.128 13.2005C176.059 13.2005 175.991 13.1869 175.927 13.1605C175.863 13.1341 175.805 13.0954 175.757 13.0466C175.708 12.9977 175.669 12.9398 175.643 12.876C175.616 12.8122 175.603 12.7439 175.603 12.6748C175.603 12.5358 175.659 12.4027 175.757 12.3046C175.856 12.2064 175.989 12.1514 176.128 12.1514C176.267 12.1514 176.401 12.2064 176.499 12.3046C176.598 12.4027 176.653 12.5358 176.654 12.6748C176.654 12.7439 176.64 12.8122 176.614 12.876C176.587 12.9398 176.549 12.9977 176.5 13.0466C176.451 13.0954 176.393 13.1341 176.329 13.1605C176.266 13.1869 176.197 13.2005 176.128 13.2005Z" fill="#1B1935"/>
<path d="M181.462 13.2005C181.323 13.2005 181.189 13.1451 181.09 13.0466C180.992 12.948 180.937 12.8143 180.937 12.6748C180.937 12.5358 180.993 12.4027 181.091 12.3046C181.19 12.2064 181.323 12.1514 181.462 12.1514C181.601 12.1514 181.734 12.2065 181.832 12.3047C181.931 12.4029 181.986 12.536 181.986 12.6748C181.986 12.7438 181.973 12.8121 181.946 12.8758C181.92 12.9396 181.882 12.9976 181.833 13.0464C181.784 13.0953 181.727 13.134 181.663 13.1605C181.599 13.1869 181.531 13.2005 181.462 13.2005Z" fill="#1B1935"/>
<path d="M185.228 14.0333C185.324 13.8071 185.373 13.5635 185.372 13.3177C185.37 13.0727 185.318 12.8306 185.219 12.6065C185.131 12.4015 184.991 12.2227 184.813 12.0874C184.654 11.9663 184.46 11.8997 184.261 11.8975C184.261 11.8975 185.555 12.3237 185.228 14.0333Z" fill="#BC6A4F"/>
<path d="M184.261 11.4494C184.037 11.4515 183.818 11.5157 183.629 11.635C183.711 11.5543 183.811 11.4951 183.921 11.4628C184.032 11.4304 184.148 11.4258 184.261 11.4494Z" fill="#BC6A4F"/>
<path d="M177.109 16.8564C177.42 17.0972 178.041 17.2606 178.757 17.2606C179.472 17.2606 180.082 17.0972 180.404 16.8564C180.404 16.8564 178.75 17.4815 177.109 16.8564Z" fill="#BC6A4F"/>
<path d="M181.822 8.41895H181.602V9.4173H181.822V8.41895Z" fill="#1D1D1B"/>
<path d="M182.637 8.80371H182.417V9.80206H182.637V8.80371Z" fill="#1D1D1B"/>
<path d="M183.415 9.41699H183.194V10.4153H183.415V9.41699Z" fill="#1D1D1B"/>
<path d="M184.056 10.1768H183.835V11.1751H184.056V10.1768Z" fill="#1D1D1B"/>
<path d="M181.073 8.12793H180.853V9.12628H181.073V8.12793Z" fill="#1D1D1B"/>
<path d="M180.137 7.91992H179.916V8.91828H180.137V7.91992Z" fill="#1D1D1B"/>
<path d="M179.475 7.91992H179.254V8.91828H179.475V7.91992Z" fill="#1D1D1B"/>
<path d="M178.739 7.91992H178.518V8.91828H178.739V7.91992Z" fill="#1D1D1B"/>
<path d="M177.966 8.12793H177.745V9.12628H177.966V8.12793Z" fill="#1D1D1B"/>
<path d="M177.261 8.41895H177.04V9.4173H177.261V8.41895Z" fill="#1D1D1B"/>
<path d="M176.537 8.80371H176.316V9.80206H176.537V8.80371Z" fill="#1D1D1B"/>
<path d="M175.883 9.23828H175.662V10.2366H175.883V9.23828Z" fill="#1D1D1B"/>
<path d="M180.696 14.1202C180.506 13.9307 180.248 13.8243 179.98 13.8242H177.537C177.404 13.824 177.273 13.8501 177.15 13.9008C177.027 13.9516 176.916 14.0262 176.822 14.1202C176.632 14.3099 176.524 14.5672 176.523 14.8358V18.224C176.658 18.2243 176.791 18.1981 176.915 18.147C177.039 18.0958 177.151 18.0207 177.246 17.9259C177.341 17.8312 177.417 17.7186 177.468 17.5946C177.52 17.4707 177.546 17.3378 177.546 17.2036V14.8358H179.976V17.2036C179.976 17.4742 180.083 17.7338 180.275 17.9252C180.466 18.1165 180.726 18.224 180.996 18.224V14.8358C180.996 14.7026 180.969 14.5709 180.917 14.4481C180.866 14.3253 180.79 14.2139 180.696 14.1202Z" fill="#D8690E"/>
<path d="M178.255 15.2461H178.785C178.82 15.2463 178.855 15.2571 178.884 15.2771C178.914 15.297 178.936 15.3252 178.95 15.3581C178.963 15.391 178.966 15.4272 178.959 15.4619C178.952 15.4966 178.934 15.5283 178.909 15.5531L178.509 15.9418L178.127 15.5487C178.103 15.5234 178.086 15.4917 178.08 15.4573C178.074 15.4229 178.078 15.3874 178.091 15.3553C178.105 15.3231 178.128 15.2956 178.157 15.2762C178.186 15.2568 178.22 15.2463 178.255 15.2461Z" fill="#D8690E"/>
<path d="M172.301 27.3676C172.301 27.3676 172.672 29.0109 172.663 28.9778C172.79 28.8949 172.925 28.8267 173.067 28.7746C173.025 28.3114 172.951 27.8517 172.846 27.3985C172.718 27.3389 172.583 27.2959 172.444 27.2704C172.444 27.2704 172.665 22.7049 173.99 22.3604C172.469 22.6585 172.301 27.3676 172.301 27.3676Z" fill="#373684"/>
<path d="M172.301 27.3688C171.051 27.1854 169.27 27.2605 168.301 27.3224V27.1391C168.301 27.1391 171.437 27.0595 172.301 27.3688Z" fill="#373684"/>
<path d="M185.06 27.3019C185.06 27.3019 184.692 28.9474 184.698 28.9121C184.572 28.8296 184.437 28.7614 184.296 28.7089C184.34 28.2458 184.413 27.7861 184.517 27.3328C184.645 27.2746 184.781 27.2323 184.919 27.2069C184.919 27.2069 184.566 22.6392 183.243 22.2969C184.767 22.5995 185.06 27.3019 185.06 27.3019Z" fill="#373684"/>
<path d="M185.061 27.3022C186.313 27.1211 188.093 27.194 189.063 27.2558V27.0747C189.063 27.0747 185.931 26.9952 185.061 27.3022Z" fill="#373684"/>
<g clip-path="url(#clip0_415_3)">
<path d="M172.888 28.996C172.888 28.996 172.814 31.5173 171.902 30.7174C171.902 30.7174 171.441 31.9769 170.885 31.0031C170.885 31.0031 170.351 32.4316 169.879 30.9459C169.879 30.9459 169.26 32.8054 168.632 30.7745C168.632 30.7745 166.639 34.1673 166.482 28.996L172.888 28.996Z" fill="#F39672"/>
<path d="M172.146 28.9954C172.146 29.6328 172.058 30.2471 171.901 30.7168C171.901 30.7168 172.219 30.2168 172.146 28.9954Z" fill="#BC6A4F"/>
<path d="M171.045 28.9958C171.095 30.3982 170.885 31.0029 170.885 31.0029C170.885 31.0029 171.203 30.491 171.045 28.9958Z" fill="#BC6A4F"/>
<path d="M170.125 28.9954C170.11 29.6947 170.025 30.3694 169.879 30.9453C169.973 30.6964 170.045 30.39 170.088 30.051C170.13 29.7121 170.143 29.3503 170.125 28.9954Z" fill="#BC6A4F"/>
<path d="M168.393 29.6506C168.44 30.0695 168.521 30.4539 168.631 30.7744C168.558 30.6639 168.497 30.5007 168.455 30.3027C168.413 30.1046 168.392 29.8792 168.393 29.6506Z" fill="#BC6A4F"/>
</g>
<g clip-path="url(#clip1_415_3)">
<path d="M191 28.996C191 28.996 190.927 31.5173 190.015 30.7174C190.015 30.7174 189.553 31.9769 188.997 31.0031C188.997 31.0031 188.463 32.4316 187.991 30.9459C187.991 30.9459 187.372 32.8054 186.744 30.7745C186.744 30.7745 184.752 34.1673 184.595 28.996L191 28.996Z" fill="#F39672"/>
<path d="M190.258 28.9954C190.258 29.6328 190.171 30.2471 190.013 30.7168C190.013 30.7168 190.331 30.2168 190.258 28.9954Z" fill="#BC6A4F"/>
<path d="M189.158 28.9958C189.207 30.3982 188.997 31.0029 188.997 31.0029C188.997 31.0029 189.316 30.491 189.158 28.9958Z" fill="#BC6A4F"/>
<path d="M188.237 28.9954C188.222 29.6947 188.137 30.3694 187.991 30.9453C188.085 30.6964 188.157 30.39 188.2 30.051C188.243 29.7121 188.255 29.3503 188.237 28.9954Z" fill="#BC6A4F"/>
<path d="M186.506 29.6506C186.553 30.0695 186.634 30.4539 186.743 30.7744C186.67 30.6639 186.609 30.5007 186.567 30.3027C186.525 30.1046 186.504 29.8792 186.506 29.6506Z" fill="#BC6A4F"/>
</g>
<path d="M167.777 29.1085C167.777 29.1085 167.516 28.0748 167.607 27.3724C167.607 27.3724 171.053 27.0543 172.762 27.4519C172.762 27.4519 173.01 28.627 172.919 29.1085H167.777Z" fill="#FAF3ED"/>
<path d="M189.586 29.0428C189.586 29.0428 189.847 28.0113 189.756 27.3089C189.756 27.3089 186.311 26.9909 184.601 27.3884C184.601 27.3884 184.354 28.5635 184.444 29.0428H189.586Z" fill="#FAF3ED"/>
</g>
<defs>
<clipPath id="clip0_415_3">
<rect width="6.40537" height="2.87137" fill="white" transform="translate(172.888 31.8672) rotate(-180)"/>
</clipPath>
<clipPath id="clip1_415_3">
<rect width="6.40537" height="2.87137" fill="white" transform="translate(191 31.8672) rotate(-180)"/>
</clipPath>
</defs>
</svg>
