<svg width="97" height="49" viewBox="0 0 97 49" fill="none" xmlns="http://www.w3.org/2000/svg">
<rect x="0.000488281" y="0.685547" width="96.0292" height="48.0146" fill="#ADB3D7"/>
<mask id="mask0_415_4" style="mask-type:alpha" maskUnits="userSpaceOnUse" x="56" y="7" width="33" height="33">
<circle cx="72.1983" cy="23.5357" r="15.6812" fill="#C4C4C4" stroke="black"/>
</mask>
<g mask="url(#mask0_415_4)">
<path d="M60.6011 36.3073C60.6011 36.3073 59.2703 23.3679 67.2968 18.4912L78.6543 18.7702C78.6543 18.7702 83.5087 20.5976 84.1587 36.0032L72.896 41.2788L60.6011 36.3073Z" fill="#5154A1"/>
<path d="M78.4138 18.4775C78.4138 18.4775 75.7802 22.2271 72.3096 22.0486L72.9903 24.9389C72.9903 24.9389 78.4947 21.1586 78.4138 18.4775Z" fill="#373684"/>
<path d="M78.4141 18.4775C78.4141 18.4775 75.5824 22.0011 72.1118 21.8254L72.7897 24.7157C72.7897 24.7157 77.7864 21.7082 78.4141 18.4775Z" fill="#FAF3ED"/>
<path d="M71.2386 21.8921L70.7057 24.8437C70.7057 24.8437 67.6703 20.9714 67.4834 18.4912C67.4806 18.4912 70.0863 21.694 71.2386 21.8921Z" fill="#373684"/>
<path d="M71.0963 21.853L70.4658 24.7098C70.4658 24.7098 67.6759 20.9658 67.4834 18.4912C68.3054 19.9629 69.5692 21.139 71.0963 21.853Z" fill="#FAF3ED"/>
<path d="M72.0394 23.4348C72.0394 23.4348 72.5973 30.7276 72.9572 32.3931C73.3171 34.0587 71.6544 35.78 71.5623 36.3547H69.428C69.428 36.3547 68.4042 34.2874 68.6329 32.7279C68.8617 31.1683 71.3865 23.3428 71.3865 23.3428L72.0394 23.4348Z" fill="#C7361A"/>
<path d="M71.9246 23.3898C71.9246 23.3898 72.4826 30.6825 72.8425 32.3453C73.2024 34.008 71.5396 35.7349 71.4476 36.3069H69.3133C69.3133 36.3069 68.2894 34.2396 68.5182 32.68C68.747 31.1205 71.2718 23.2949 71.2718 23.2949L71.9246 23.3898Z" fill="#E8461C"/>
<path d="M71.261 23.119L71.5679 22.7535C71.5854 22.7323 71.6073 22.7152 71.632 22.7033C71.6576 22.6966 71.6845 22.6966 71.7101 22.7033C71.7373 22.7031 71.7638 22.7119 71.7855 22.7284C71.8096 22.7427 71.8298 22.7629 71.8441 22.787L72.1593 23.2836C72.1874 23.3274 72.1983 23.3801 72.19 23.4315C72.1835 23.483 72.1588 23.5305 72.1203 23.5654L71.6794 23.9141C71.658 23.9327 71.632 23.9452 71.6041 23.9504C71.5785 23.9572 71.5516 23.9572 71.526 23.9504C71.4999 23.942 71.476 23.9277 71.4563 23.9085C71.4358 23.8878 71.4196 23.8631 71.4088 23.836L71.2275 23.3505C71.2178 23.314 71.2178 23.2755 71.2275 23.239C71.2295 23.197 71.2409 23.1559 71.261 23.119Z" fill="#C7361A"/>
<path d="M71.2023 23.0985L71.498 22.747C71.5152 22.7274 71.5361 22.7113 71.5594 22.6996C71.5832 22.6896 71.6089 22.6849 71.6347 22.6856C71.6605 22.6885 71.6853 22.697 71.7073 22.7107C71.7298 22.7249 71.7489 22.744 71.7631 22.7665L72.0671 23.2464C72.0796 23.268 72.0881 23.2916 72.0922 23.3161C72.0978 23.3409 72.0978 23.3667 72.0922 23.3915C72.0891 23.4168 72.0815 23.4413 72.0699 23.464C72.0572 23.4842 72.0411 23.5021 72.0225 23.517L71.6013 23.8546C71.5814 23.8717 71.5573 23.8833 71.5315 23.8881C71.5058 23.8936 71.4791 23.8936 71.4534 23.8881C71.4281 23.8796 71.4052 23.8652 71.3864 23.8462C71.3674 23.8259 71.3523 23.8022 71.3418 23.7765L71.1688 23.3106C71.1592 23.2749 71.1592 23.2374 71.1688 23.2018C71.1704 23.165 71.182 23.1293 71.2023 23.0985Z" fill="#E8461C"/>
<path d="M65.0645 34.1089C65.0645 34.1089 65.4801 36.1874 65.4718 36.1428C65.4634 36.0981 65.9237 35.8861 65.9237 35.8861C65.8766 35.3033 65.7946 34.7238 65.6782 34.1508C65.5357 34.0763 65.3836 34.0219 65.2263 33.989C65.2263 33.989 65.4774 28.2195 66.9644 27.7871C65.2626 28.1637 65.0645 34.1089 65.0645 34.1089Z" fill="#373684"/>
<path d="M59.9987 36.307C59.8392 35.5886 59.7754 34.8522 59.809 34.117C59.809 34.117 63.6757 33.7152 65.5924 34.2174C65.5924 34.2174 65.8714 35.7016 65.7681 36.307H59.9987Z" fill="#FAF3ED"/>
<g clip-path="url(#clip0_415_4)">
<path d="M65.7813 36.0902C65.7813 36.0902 65.6887 39.2749 64.5368 38.2645C64.5368 38.2645 63.9537 39.8553 63.2516 38.6253C63.2516 38.6253 62.577 40.4297 61.9806 38.5532C61.9806 38.5532 61.1991 40.9019 60.4055 38.3366C60.4055 38.3366 57.889 42.6221 57.6906 36.0902L65.7813 36.0902Z" fill="#CC8A7A"/>
<path d="M64.8446 36.0904C64.8448 36.8954 64.7343 37.6714 64.5348 38.2646C64.5348 38.2646 64.9371 37.6331 64.8446 36.0904Z" fill="#BC6A4F"/>
<path d="M63.4542 36.0898C63.5171 37.8611 63.2514 38.625 63.2514 38.625C63.2514 38.625 63.6538 37.9784 63.4542 36.0898Z" fill="#BC6A4F"/>
<path d="M62.2915 36.0897C62.2728 36.9731 62.1653 37.8253 61.9806 38.5527C62.1001 38.2384 62.1905 37.8513 62.2445 37.4232C62.2986 36.995 62.3146 36.5381 62.2915 36.0897Z" fill="#BC6A4F"/>
<path d="M60.1045 36.9175C60.1636 37.4466 60.2661 37.932 60.4043 38.3369C60.3117 38.1973 60.2348 37.9912 60.182 37.7411C60.1291 37.4909 60.1023 37.2061 60.1045 36.9175Z" fill="#BC6A4F"/>
</g>
<g clip-path="url(#clip1_415_4)">
<path d="M86.9849 36.0902C86.9849 36.0902 86.8923 39.2749 85.7404 38.2645C85.7404 38.2645 85.1573 39.8553 84.4552 38.6253C84.4552 38.6253 83.7806 40.4297 83.1843 38.5532C83.1843 38.5532 82.4028 40.9019 81.6091 38.3366C81.6091 38.3366 79.0927 42.6221 78.8942 36.0902L86.9849 36.0902Z" fill="#CC8A7A"/>
<path d="M86.0482 36.0904C86.0485 36.8954 85.9379 37.6714 85.7384 38.2646C85.7384 38.2646 86.1408 37.6331 86.0482 36.0904Z" fill="#BC6A4F"/>
<path d="M84.6579 36.0898C84.7207 37.8611 84.455 38.625 84.455 38.625C84.455 38.625 84.8574 37.9784 84.6579 36.0898Z" fill="#BC6A4F"/>
<path d="M83.4951 36.0897C83.4764 36.9731 83.3689 37.8253 83.1842 38.5527C83.3037 38.2384 83.3941 37.8513 83.4481 37.4232C83.5022 36.995 83.5183 36.5381 83.4951 36.0897Z" fill="#BC6A4F"/>
<path d="M81.3081 36.9175C81.3672 37.4466 81.4698 37.932 81.6079 38.3369C81.5153 38.1973 81.4384 37.9912 81.3856 37.7411C81.3327 37.4909 81.3059 37.2061 81.3081 36.9175Z" fill="#BC6A4F"/>
</g>
<path d="M65.0651 34.1096C63.6701 33.8808 61.6642 33.9729 60.5762 34.051V33.8222C60.5762 33.8222 64.0998 33.7218 65.0651 34.1096Z" fill="#373684"/>
<path d="M79.3931 34.0297L78.9858 36.0635C78.9858 36.0189 78.5338 35.8068 78.5338 35.8068C78.5811 35.2231 78.6631 34.6427 78.7793 34.0688C78.9218 33.9943 79.0739 33.9399 79.2313 33.9069C79.2313 33.9069 78.8351 28.1403 77.3481 27.7051C79.0611 28.0845 79.3931 34.0297 79.3931 34.0297Z" fill="#373684"/>
<path d="M84.4683 36.2266C84.6294 35.5074 84.6942 34.77 84.6608 34.0337C84.6608 34.0337 80.794 33.6348 78.8774 34.1342C78.8774 34.1342 78.5984 35.6212 78.7016 36.2266H84.4683Z" fill="#FAF3ED"/>
<path d="M79.3931 34.0277C80.788 33.7961 82.7911 33.8909 83.8792 33.9691V33.7375C83.8792 33.7375 80.3695 33.6399 79.3931 34.0277Z" fill="#373684"/>
<path d="M65.9688 16.0934C65.9668 15.7529 66.0441 15.4167 66.1948 15.1114C66.326 14.8341 66.5354 14.6014 66.7974 14.4418C67.0338 14.3007 67.314 14.2521 67.5841 14.3051C67.8655 14.3665 68.118 14.5208 68.3011 14.7431C68.5127 14.992 68.6576 15.2905 68.7224 15.6107C68.7977 15.9488 68.7977 16.2993 68.7224 16.6374C68.6464 16.9489 68.494 17.2366 68.2788 17.4744C68.0864 17.6856 67.8293 17.8269 67.5479 17.8761C67.4931 17.8804 67.4381 17.8804 67.3833 17.8761C67.2892 17.8768 67.1955 17.8655 67.1043 17.8426C66.7637 17.7442 66.4734 17.5197 66.2924 17.2149C66.083 16.8782 65.9709 16.49 65.9688 16.0934Z" fill="#CC8A7A"/>
<path d="M71.9411 22.0608L71.2381 21.8934C69.7064 21.3689 66.8105 19.0673 66.8105 16.0933C66.815 14.6607 67.386 13.288 68.399 12.275C69.412 11.262 70.7847 10.6909 72.2173 10.6865H73.6541C75.0867 10.6909 76.4593 11.262 77.4724 12.275C78.4854 13.288 79.0564 14.6607 79.0609 16.0933C79.4933 18.6711 76.5974 21.115 73.8968 21.8739C73.3957 22.0183 72.8782 22.098 72.3568 22.111C72.2166 22.1125 72.0769 22.0957 71.9411 22.0608Z" fill="#CC8A7A"/>
<path d="M68.7753 16.409C68.5992 16.409 68.4303 16.3391 68.3058 16.2145C68.1813 16.09 68.1113 15.9211 68.1113 15.745C68.1113 15.5689 68.1813 15.4001 68.3058 15.2755C68.4303 15.151 68.5992 15.0811 68.7753 15.0811C68.9509 15.0818 69.1191 15.1521 69.243 15.2765C69.3669 15.4009 69.4365 15.5694 69.4365 15.745C69.4365 15.9207 69.3669 16.0891 69.243 16.2136C69.1191 16.338 68.9509 16.4083 68.7753 16.409Z" fill="#1B1935"/>
<path d="M75.5098 16.409C75.3342 16.4083 75.1661 16.338 75.0421 16.2136C74.9182 16.0891 74.8486 15.9207 74.8486 15.745C74.8486 15.5694 74.9182 15.4009 75.0421 15.2765C75.1661 15.1521 75.3342 15.0818 75.5098 15.0811C75.6859 15.0811 75.8548 15.151 75.9794 15.2755C76.1039 15.4001 76.1738 15.5689 76.1738 15.745C76.1738 15.9211 76.1039 16.09 75.9794 16.2145C75.8548 16.3391 75.6859 16.409 75.5098 16.409Z" fill="#1B1935"/>
<path d="M69.099 14.792C69.0842 14.7894 69.0691 14.7894 69.0544 14.792L67.8268 15.2859C67.7963 15.2983 67.7718 15.3222 67.7588 15.3525C67.7457 15.3827 67.7451 15.4169 67.7571 15.4477C67.7701 15.4784 67.7945 15.5029 67.8252 15.5159C67.856 15.5289 67.8906 15.5295 67.9217 15.5174L69.1464 15.0264C69.1772 15.0134 69.2017 14.989 69.2147 14.9582C69.2277 14.9275 69.2282 14.8929 69.2162 14.8618C69.2052 14.8403 69.1883 14.8224 69.1676 14.8101C69.1469 14.7977 69.1231 14.7915 69.099 14.792Z" fill="black"/>
<path d="M75.0047 14.7227C74.9793 14.7227 74.9545 14.7304 74.9336 14.7449C74.9126 14.7593 74.8966 14.7798 74.8876 14.8036C74.8758 14.8346 74.8768 14.8691 74.8904 14.8995C74.904 14.9298 74.929 14.9535 74.9601 14.9654L76.196 15.4313C76.2271 15.4431 76.2616 15.4421 76.2919 15.4285C76.3223 15.4149 76.346 15.3898 76.3578 15.3588C76.3689 15.3276 76.3675 15.2934 76.354 15.2633C76.3405 15.2332 76.3159 15.2094 76.2853 15.1969L75.0494 14.731L75.0047 14.7227Z" fill="black"/>
<path d="M73.0768 18.3043C72.4012 18.4103 71.7131 18.4103 71.0375 18.3043C69.503 18.0643 68.7079 18.6446 69.5923 19.0575C70.3768 19.3731 71.213 19.5405 72.0585 19.5513C72.9032 19.5406 73.7385 19.3732 74.522 19.0575C75.4092 18.6446 74.6113 18.0643 73.0768 18.3043Z" fill="#E28E74"/>
<path d="M69.9639 18.5459C70.36 18.8528 71.1495 19.062 72.059 19.062C72.9685 19.062 73.7581 18.8528 74.1542 18.5459C74.1542 18.5459 72.0395 19.3354 69.9639 18.5459Z" fill="#BC6A4F"/>
<path d="M66.9887 11.6958L67.0138 11.6511C67.1671 11.3592 67.2932 11.0539 67.3904 10.7388C67.5992 10.2006 67.9131 9.70928 68.3138 9.29367C69.1843 8.23631 70.8247 8.45671 71.2041 8.7357C71.2878 8.79428 71.3632 8.8473 71.4273 8.89751C71.4816 8.93627 71.5472 8.95592 71.6138 8.9534C71.6805 8.95088 71.7444 8.92632 71.7956 8.88357C72.1109 8.63806 72.1583 8.53205 72.8558 8.48741C73.5532 8.44277 73.8908 8.70502 73.9996 8.97843C74.0115 9.01251 74.0311 9.04334 74.057 9.06848C74.0829 9.09361 74.1143 9.11235 74.1487 9.12319C74.1831 9.13403 74.2196 9.13668 74.2553 9.13092C74.2909 9.12516 74.3247 9.11115 74.3539 9.09002C74.682 8.86874 75.0576 8.72812 75.4503 8.67964C75.8431 8.63116 76.2417 8.67618 76.6137 8.81103C79.1078 9.77353 80.0536 13.9639 79.5988 14.7981C79.5102 14.9763 79.3844 15.1335 79.2299 15.2591C79.0754 15.3847 78.8959 15.4758 78.7033 15.5262C78.2262 15.635 78.349 12.6443 75.6651 12.6443C75.5944 12.6421 75.5245 12.6594 75.4629 12.6943C75.4014 12.7293 75.3507 12.7805 75.3164 12.8424C75.1683 13.1056 74.9683 13.336 74.7285 13.5197C74.4888 13.7034 74.2142 13.8365 73.9215 13.9109C72.7386 14.2317 71.7509 12.237 71.7509 12.237C71.7509 12.237 71.6979 13.4255 70.077 13.9974C69.3374 14.2533 68.5361 14.2699 67.7866 14.0448C66.9161 13.7965 66.5032 12.6164 66.9887 11.6958Z" fill="black"/>
<path d="M77.6578 16.0934C77.6557 15.7529 77.7331 15.4167 77.8837 15.1114C78.0149 14.8341 78.2244 14.6014 78.4863 14.4418C78.7227 14.3007 79.003 14.2521 79.2731 14.3051C79.5547 14.3659 79.8074 14.5203 79.9901 14.7431C80.2016 14.992 80.3466 15.2905 80.4114 15.6107C80.4881 15.9487 80.4881 16.2995 80.4114 16.6374C80.3365 16.9494 80.1839 17.2373 79.9678 17.4744C79.7754 17.6856 79.5183 17.8269 79.2368 17.8761C79.183 17.8803 79.1289 17.8803 79.075 17.8761C78.981 17.8768 78.8872 17.8655 78.796 17.8426C78.4555 17.7442 78.1652 17.5197 77.9842 17.2149C77.7749 16.8779 77.662 16.49 77.6578 16.0934Z" fill="#CC8A7A"/>
<path d="M79.9904 16.7682C80.0838 16.5516 80.1304 16.3177 80.1271 16.0819C80.1281 15.8463 80.0787 15.6132 79.982 15.3983C79.8971 15.201 79.7626 15.0289 79.5914 14.899C79.4384 14.7816 79.2514 14.7171 79.0586 14.7148C79.0586 14.7148 80.3057 15.125 79.9904 16.7682Z" fill="#BC6A4F"/>
<path d="M75.5541 19.2608C75.6003 19.1543 75.6231 19.0392 75.621 18.9232C75.6216 18.8058 75.5968 18.6898 75.5485 18.5828C75.5069 18.4856 75.4405 18.4009 75.356 18.3373C75.2806 18.28 75.1885 18.2486 75.0938 18.248C75.0937 18.248 75.7075 18.4489 75.5541 19.2608Z" fill="#BC6A4F"/>
<path d="M69.2501 18.2471C69.1441 18.29 69.0488 18.3557 68.9711 18.4396C68.8896 18.5187 68.825 18.6136 68.7814 18.7186C68.7423 18.8178 68.7298 18.9255 68.7451 19.031C68.7571 19.1246 68.7992 19.2117 68.8651 19.2793C68.8651 19.2793 68.5693 18.699 69.2501 18.2471Z" fill="#BC6A4F"/>
<path d="M70.0247 17.5238H73.4646C73.8072 17.5188 74.1483 17.5697 74.4746 17.6744C74.7536 17.7721 74.893 17.9032 74.893 18.0399H68.5991C68.5991 17.9032 68.7498 17.7609 69.0176 17.6744C69.3429 17.5699 69.6831 17.519 70.0247 17.5238Z" fill="#6E333C"/>
</g>
<defs>
<clipPath id="clip0_415_4">
<rect width="8.09061" height="3.62683" fill="white" transform="translate(65.7812 39.7168) rotate(-180)"/>
</clipPath>
<clipPath id="clip1_415_4">
<rect width="8.09061" height="3.62683" fill="white" transform="translate(86.9849 39.7168) rotate(-180)"/>
</clipPath>
</defs>
</svg>
