<svg width="72" height="36" viewBox="0 0 72 36" fill="none" xmlns="http://www.w3.org/2000/svg">
<rect width="72" height="36" fill="#ADB3D7"/>
<mask id="mask0_415_4" style="mask-type:alpha" maskUnits="userSpaceOnUse" x="42" y="5" width="25" height="25">
<circle cx="54.1322" cy="17.1322" r="11.6322" fill="#C4C4C4" stroke="black"/>
</mask>
<g mask="url(#mask0_415_4)">
<path d="M45.4369 26.7086C45.4369 26.7086 44.4391 17.007 50.4571 13.3506L58.9727 13.5598C58.9727 13.5598 62.6123 14.9299 63.0997 26.4806L54.6553 30.4361L45.4369 26.7086Z" fill="#5154A1"/>
<path d="M58.7926 13.3398C58.7926 13.3398 56.818 16.1512 54.2158 16.0173L54.7262 18.1844C54.7262 18.1844 58.8533 15.35 58.7926 13.3398Z" fill="#373684"/>
<path d="M58.7927 13.3398C58.7927 13.3398 56.6695 15.9817 54.0674 15.85L54.5757 18.017C54.5757 18.017 58.322 15.7621 58.7927 13.3398Z" fill="#FAF3ED"/>
<path d="M53.4127 15.9004L53.0131 18.1135C53.0131 18.1135 50.7373 15.2102 50.5972 13.3506C50.5951 13.3506 52.5488 15.7519 53.4127 15.9004Z" fill="#373684"/>
<path d="M53.306 15.8712L52.8333 18.0131C52.8333 18.0131 50.7415 15.206 50.5972 13.3506C51.2135 14.454 52.1611 15.3358 53.306 15.8712Z" fill="#FAF3ED"/>
<path d="M54.0131 17.0573C54.0131 17.0573 54.4315 22.5252 54.7013 23.774C54.9711 25.0227 53.7245 26.3134 53.6554 26.7443H52.0552C52.0552 26.7443 51.2875 25.1943 51.4591 24.025C51.6306 22.8557 53.5236 16.9883 53.5236 16.9883L54.0131 17.0573Z" fill="#C7361A"/>
<path d="M53.9272 17.0233C53.9272 17.0233 54.3455 22.4911 54.6154 23.7378C54.8852 24.9845 53.6385 26.2793 53.5695 26.7081H51.9693C51.9693 26.7081 51.2016 25.1581 51.3731 23.9888C51.5447 22.8195 53.4377 16.9521 53.4377 16.9521L53.9272 17.0233Z" fill="#E8461C"/>
<path d="M53.4295 16.8203L53.6596 16.5463C53.6727 16.5304 53.6891 16.5176 53.7077 16.5087C53.7269 16.5036 53.7471 16.5036 53.7663 16.5087C53.7866 16.5085 53.8065 16.5151 53.8227 16.5275C53.8408 16.5382 53.8559 16.5533 53.8667 16.5714L54.103 16.9438C54.1241 16.9766 54.1323 17.0161 54.1261 17.0546C54.1212 17.0933 54.1026 17.1289 54.0738 17.155L53.7432 17.4165C53.7272 17.4304 53.7077 17.4398 53.6868 17.4437C53.6676 17.4488 53.6474 17.4488 53.6282 17.4437C53.6086 17.4374 53.5907 17.4267 53.5759 17.4123C53.5605 17.3968 53.5484 17.3783 53.5404 17.3579L53.4044 16.994C53.3971 16.9665 53.3971 16.9377 53.4044 16.9103C53.4059 16.8788 53.4144 16.8481 53.4295 16.8203Z" fill="#C7361A"/>
<path d="M53.3855 16.8038L53.6072 16.5402C53.6201 16.5255 53.6357 16.5134 53.6532 16.5047C53.6711 16.4972 53.6904 16.4936 53.7097 16.4942C53.729 16.4963 53.7476 16.5028 53.7641 16.513C53.781 16.5237 53.7953 16.538 53.8059 16.5549L54.0339 16.9146C54.0433 16.9308 54.0496 16.9485 54.0527 16.9669C54.0569 16.9855 54.0569 17.0048 54.0527 17.0234C54.0503 17.0424 54.0447 17.0608 54.036 17.0778C54.0264 17.0929 54.0144 17.1064 54.0004 17.1176L53.6846 17.3707C53.6697 17.3835 53.6517 17.3922 53.6323 17.3958C53.613 17.3999 53.593 17.3999 53.5737 17.3958C53.5548 17.3894 53.5376 17.3786 53.5235 17.3644C53.5093 17.3491 53.4979 17.3314 53.4901 17.3121L53.3604 16.9628C53.3532 16.936 53.3532 16.9079 53.3604 16.8812C53.3616 16.8536 53.3703 16.8268 53.3855 16.8038Z" fill="#E8461C"/>
<path d="M48.7837 25.0602C48.7837 25.0602 49.0954 26.6186 49.0891 26.5851C49.0828 26.5517 49.4279 26.3927 49.4279 26.3927C49.3926 25.9557 49.3311 25.5213 49.2439 25.0916C49.137 25.0358 49.023 24.995 48.905 24.9703C48.905 24.9703 49.0933 20.6445 50.2082 20.3203C48.9322 20.6027 48.7837 25.0602 48.7837 25.0602Z" fill="#373684"/>
<path d="M44.9852 26.7082C44.8656 26.1696 44.8178 25.6174 44.8429 25.0662C44.8429 25.0662 47.7421 24.765 49.1792 25.1415C49.1792 25.1415 49.3883 26.2543 49.311 26.7082H44.9852Z" fill="#FAF3ED"/>
<g clip-path="url(#clip0_415_4)">
<path d="M49.3208 26.5455C49.3208 26.5455 49.2514 28.9333 48.3877 28.1757C48.3877 28.1757 47.9506 29.3685 47.4241 28.4463C47.4241 28.4463 46.9183 29.7992 46.4712 28.3922C46.4712 28.3922 45.8853 30.1532 45.2902 28.2298C45.2902 28.2298 43.4034 31.4429 43.2547 26.5455L49.3208 26.5455Z" fill="#CC8A7A"/>
<path d="M48.6185 26.5456C48.6187 27.1492 48.5359 27.731 48.3863 28.1758C48.3863 28.1758 48.688 27.7023 48.6185 26.5456Z" fill="#BC6A4F"/>
<path d="M47.576 26.5455C47.6232 27.8736 47.424 28.4463 47.424 28.4463C47.424 28.4463 47.7256 27.9615 47.576 26.5455Z" fill="#BC6A4F"/>
<path d="M46.7042 26.5449C46.6902 27.2072 46.6096 27.8462 46.4711 28.3916C46.5607 28.1559 46.6285 27.8657 46.669 27.5447C46.7095 27.2237 46.7216 26.8811 46.7042 26.5449Z" fill="#BC6A4F"/>
<path d="M45.0648 27.1652C45.1091 27.562 45.186 27.9259 45.2896 28.2295C45.2201 28.1248 45.1625 27.9703 45.1228 27.7827C45.0832 27.5952 45.0631 27.3817 45.0648 27.1652Z" fill="#BC6A4F"/>
</g>
<g clip-path="url(#clip1_415_4)">
<path d="M65.2188 26.5455C65.2188 26.5455 65.1493 28.9333 64.2857 28.1757C64.2857 28.1757 63.8485 29.3685 63.3221 28.4463C63.3221 28.4463 62.8163 29.7992 62.3692 28.3922C62.3692 28.3922 61.7832 30.1532 61.1882 28.2298C61.1882 28.2298 59.3014 31.4429 59.1526 26.5455L65.2188 26.5455Z" fill="#CC8A7A"/>
<path d="M64.5165 26.5456C64.5167 27.1492 64.4338 27.731 64.2842 28.1758C64.2842 28.1758 64.5859 27.7023 64.5165 26.5456Z" fill="#BC6A4F"/>
<path d="M63.474 26.5455C63.5211 27.8736 63.3219 28.4463 63.3219 28.4463C63.3219 28.4463 63.6236 27.9615 63.474 26.5455Z" fill="#BC6A4F"/>
<path d="M62.6021 26.5449C62.5882 27.2072 62.5075 27.8462 62.3691 28.3916C62.4586 28.1559 62.5264 27.8657 62.567 27.5447C62.6075 27.2237 62.6195 26.8811 62.6021 26.5449Z" fill="#BC6A4F"/>
<path d="M60.9627 27.1652C61.007 27.562 61.0839 27.9259 61.1875 28.2295C61.1181 28.1248 61.0604 27.9703 61.0208 27.7827C60.9812 27.5952 60.9611 27.3817 60.9627 27.1652Z" fill="#BC6A4F"/>
</g>
<path d="M48.7836 25.0602C47.7377 24.8886 46.2338 24.9577 45.418 25.0162V24.8447C45.418 24.8447 48.0599 24.7694 48.7836 25.0602Z" fill="#373684"/>
<path d="M59.5269 24.9998L59.2215 26.5247C59.2215 26.4913 58.8827 26.3323 58.8827 26.3323C58.9181 25.8946 58.9796 25.4595 59.0667 25.0291C59.1736 24.9733 59.2876 24.9325 59.4056 24.9078C59.4056 24.9078 59.1086 20.5841 57.9937 20.2578C59.278 20.5423 59.5269 24.9998 59.5269 24.9998Z" fill="#373684"/>
<path d="M63.3321 26.6479C63.4529 26.1087 63.5014 25.5558 63.4764 25.0038C63.4764 25.0038 60.5772 24.7047 59.1402 25.0791C59.1402 25.0791 58.931 26.194 59.0084 26.6479H63.3321Z" fill="#FAF3ED"/>
<path d="M59.5269 24.9992C60.5727 24.8256 62.0746 24.8967 62.8904 24.9553V24.7817C62.8904 24.7817 60.259 24.7084 59.5269 24.9992Z" fill="#373684"/>
<path d="M49.4615 11.5518C49.4599 11.2965 49.518 11.0444 49.6309 10.8155C49.7293 10.6076 49.8863 10.4331 50.0827 10.3135C50.26 10.2077 50.4701 10.1712 50.6726 10.211C50.8836 10.257 51.0729 10.3727 51.2102 10.5394C51.3688 10.726 51.4775 10.9499 51.526 11.1899C51.5825 11.4434 51.5825 11.7062 51.526 11.9597C51.4691 12.1933 51.3548 12.409 51.1934 12.5872C51.0492 12.7456 50.8564 12.8516 50.6454 12.8884C50.6043 12.8916 50.5631 12.8916 50.522 12.8884C50.4515 12.8889 50.3812 12.8805 50.3128 12.8633C50.0575 12.7895 49.8398 12.6212 49.7041 12.3927C49.5471 12.1402 49.4631 11.8491 49.4615 11.5518Z" fill="#CC8A7A"/>
<path d="M53.9395 16.0262L53.4124 15.9007C52.264 15.5074 50.0928 13.7817 50.0928 11.5519C50.0961 10.4778 50.5242 9.44857 51.2838 8.68904C52.0433 7.92951 53.0725 7.50136 54.1466 7.49805H55.2239C56.298 7.50136 57.3272 7.92951 58.0867 8.68904C58.8462 9.44857 59.2744 10.4778 59.2777 11.5519C59.6019 13.4847 57.4307 15.3171 55.4059 15.886C55.0301 15.9943 54.6421 16.054 54.2512 16.0638C54.1461 16.065 54.0413 16.0523 53.9395 16.0262Z" fill="#CC8A7A"/>
<path d="M51.5657 11.7886C51.4337 11.7886 51.307 11.7362 51.2137 11.6428C51.1203 11.5495 51.0679 11.4228 51.0679 11.2908C51.0679 11.1588 51.1203 11.0321 51.2137 10.9388C51.307 10.8454 51.4337 10.793 51.5657 10.793C51.6974 10.7935 51.8235 10.8462 51.9164 10.9395C52.0093 11.0328 52.0615 11.1591 52.0615 11.2908C52.0615 11.4225 52.0093 11.5488 51.9164 11.6421C51.8235 11.7354 51.6974 11.7881 51.5657 11.7886Z" fill="#1B1935"/>
<path d="M56.6149 11.7886C56.4832 11.7881 56.3571 11.7354 56.2642 11.6421C56.1713 11.5488 56.1191 11.4225 56.1191 11.2908C56.1191 11.1591 56.1713 11.0328 56.2642 10.9395C56.3571 10.8462 56.4832 10.7935 56.6149 10.793C56.7469 10.793 56.8736 10.8454 56.9669 10.9388C57.0603 11.0321 57.1127 11.1588 57.1127 11.2908C57.1127 11.4228 57.0603 11.5495 56.9669 11.6428C56.8736 11.7362 56.7469 11.7886 56.6149 11.7886Z" fill="#1B1935"/>
<path d="M51.8084 10.5767C51.7974 10.5747 51.786 10.5747 51.775 10.5767L50.8546 10.9469C50.8317 10.9562 50.8134 10.9742 50.8036 10.9969C50.7938 11.0196 50.7933 11.0452 50.8023 11.0683C50.812 11.0913 50.8304 11.1097 50.8534 11.1194C50.8764 11.1292 50.9024 11.1296 50.9257 11.1205L51.844 10.7524C51.8671 10.7427 51.8854 10.7243 51.8952 10.7013C51.9049 10.6783 51.9053 10.6523 51.8963 10.629C51.888 10.6129 51.8754 10.5995 51.8599 10.5902C51.8443 10.581 51.8265 10.5763 51.8084 10.5767Z" fill="black"/>
<path d="M56.2366 10.5244C56.2175 10.5244 56.1989 10.5303 56.1832 10.5411C56.1675 10.5519 56.1555 10.5673 56.1487 10.5851C56.1399 10.6084 56.1406 10.6342 56.1508 10.657C56.161 10.6797 56.1798 10.6975 56.2031 10.7064L57.1297 11.0557C57.1531 11.0646 57.1789 11.0638 57.2017 11.0536C57.2244 11.0434 57.2422 11.0246 57.2511 11.0013C57.2594 10.978 57.2583 10.9524 57.2482 10.9298C57.2381 10.9072 57.2196 10.8894 57.1967 10.88L56.27 10.5307L56.2366 10.5244Z" fill="black"/>
<path d="M54.7909 13.2101C54.2843 13.2896 53.7684 13.2896 53.2618 13.2101C52.1113 13.0302 51.5152 13.4653 52.1783 13.7749C52.7665 14.0115 53.3934 14.137 54.0274 14.1451C54.6607 14.1371 55.287 14.0116 55.8744 13.7749C56.5396 13.4653 55.9414 13.0302 54.7909 13.2101Z" fill="#E28E74"/>
<path d="M52.457 13.3906C52.7541 13.6207 53.346 13.7776 54.0279 13.7776C54.7098 13.7776 55.3018 13.6207 55.5988 13.3906C55.5988 13.3906 54.0133 13.9826 52.457 13.3906Z" fill="#BC6A4F"/>
<path d="M50.2266 8.25497L50.2454 8.2215C50.3603 8.00267 50.4549 7.7737 50.5278 7.5375C50.6843 7.13392 50.9197 6.76557 51.2201 6.45395C51.8728 5.66118 53.1027 5.82643 53.3872 6.0356C53.45 6.07953 53.5064 6.11928 53.5546 6.15693C53.5953 6.18599 53.6444 6.20072 53.6944 6.19883C53.7444 6.19694 53.7923 6.17853 53.8307 6.14647C54.067 5.9624 54.1026 5.88291 54.6255 5.84944C55.1485 5.81598 55.4016 6.0126 55.4832 6.2176C55.4921 6.24315 55.5068 6.26626 55.5262 6.28511C55.5456 6.30395 55.5692 6.318 55.595 6.32613C55.6208 6.33426 55.6481 6.33624 55.6748 6.33193C55.7016 6.32761 55.7269 6.31711 55.7488 6.30126C55.9948 6.13535 56.2764 6.02992 56.5709 5.99357C56.8653 5.95722 57.1642 5.99098 57.4431 6.09208C59.3132 6.81374 60.0223 9.95558 59.6813 10.581C59.6148 10.7147 59.5205 10.8325 59.4047 10.9267C59.2889 11.0209 59.1543 11.0891 59.0099 11.127C58.6522 11.2085 58.7442 8.96617 56.7319 8.96617C56.6789 8.96451 56.6265 8.97749 56.5803 9.00369C56.5342 9.02989 56.4962 9.06829 56.4705 9.11468C56.3594 9.31204 56.2095 9.4848 56.0297 9.62251C55.8499 9.76022 55.6441 9.86001 55.4246 9.91583C54.5377 10.1564 53.7972 8.66078 53.7972 8.66078C53.7972 8.66078 53.7574 9.55187 52.5421 9.98068C51.9876 10.1725 51.3868 10.185 50.8248 10.0162C50.1722 9.83007 49.8626 8.94526 50.2266 8.25497Z" fill="black"/>
<path d="M58.2256 11.5518C58.2241 11.2965 58.2821 11.0444 58.395 10.8155C58.4934 10.6076 58.6505 10.4331 58.8469 10.3135C59.0241 10.2077 59.2342 10.1712 59.4368 10.211C59.6479 10.2566 59.8374 10.3723 59.9743 10.5394C60.133 10.726 60.2416 10.9499 60.2902 11.1899C60.3477 11.4433 60.3477 11.7063 60.2902 11.9597C60.2341 12.1936 60.1197 12.4095 59.9576 12.5872C59.8134 12.7456 59.6206 12.8516 59.4096 12.8884C59.3692 12.8916 59.3286 12.8916 59.2882 12.8884C59.2177 12.8889 59.1474 12.8805 59.079 12.8633C58.8237 12.7895 58.6061 12.6212 58.4704 12.3927C58.3135 12.14 58.2288 11.8492 58.2256 11.5518Z" fill="#CC8A7A"/>
<path d="M59.9745 12.0581C60.0446 11.8957 60.0795 11.7203 60.077 11.5435C60.0778 11.3669 60.0407 11.1921 59.9682 11.031C59.9046 10.883 59.8037 10.754 59.6754 10.6566C59.5606 10.5686 59.4205 10.5202 59.2759 10.5186C59.2759 10.5186 60.2109 10.826 59.9745 12.0581Z" fill="#BC6A4F"/>
<path d="M56.6484 13.9273C56.683 13.8475 56.7001 13.7612 56.6986 13.6742C56.699 13.5862 56.6804 13.4992 56.6442 13.419C56.613 13.3461 56.5632 13.2826 56.4999 13.2349C56.4433 13.1919 56.3743 13.1684 56.3032 13.168C56.3032 13.168 56.7634 13.3186 56.6484 13.9273Z" fill="#BC6A4F"/>
<path d="M51.9214 13.167C51.842 13.1992 51.7705 13.2484 51.7123 13.3113C51.6511 13.3707 51.6027 13.4418 51.57 13.5205C51.5408 13.5949 51.5314 13.6756 51.5428 13.7548C51.5518 13.8249 51.5834 13.8903 51.6328 13.9409C51.6328 13.9409 51.4111 13.5059 51.9214 13.167Z" fill="#BC6A4F"/>
<path d="M52.5025 12.6252H55.0816C55.3385 12.6215 55.5942 12.6597 55.8388 12.7382C56.048 12.8114 56.1526 12.9097 56.1526 13.0122H51.4336C51.4336 12.9097 51.5465 12.8031 51.7474 12.7382C51.9913 12.6598 52.2463 12.6217 52.5025 12.6252Z" fill="#6E333C"/>
</g>
<defs>
<clipPath id="clip0_415_4">
<rect width="6.06612" height="2.71929" fill="white" transform="translate(49.3208 29.2646) rotate(-180)"/>
</clipPath>
<clipPath id="clip1_415_4">
<rect width="6.06612" height="2.71929" fill="white" transform="translate(65.2188 29.2646) rotate(-180)"/>
</clipPath>
</defs>
</svg>
