<svg width="92" height="49" viewBox="0 0 92 49" fill="none" xmlns="http://www.w3.org/2000/svg">
<rect y="0.0380859" width="91.2277" height="48.0146" fill="#46A882"/>
<mask id="mask0_669_6" style="mask-type:alpha" maskUnits="userSpaceOnUse" x="49" y="8" width="33" height="33">
<circle cx="65.5301" cy="24.2215" r="15.6815" fill="#A27474" stroke="black"/>
</mask>
<g mask="url(#mask0_669_6)">
<path d="M71.7878 20.8806H71.8886C74.9669 20.9788 77.1608 21.352 77.4687 22.9988C78.7112 29.5923 79.2009 38.6314 79.2009 38.6314L65.9222 42.6353H65.3625L52.6968 38.6314C52.6968 38.6314 53.0942 24.4327 53.9225 22.9988C54.4822 22.0559 56.4411 20.9755 59.497 20.874H71.8102L71.7878 20.8806Z" fill="#5154A1"/>
<path d="M60.5303 25.0537C60.5303 25.0537 65.8869 29.1242 70.6632 25.0537C70.6632 25.0537 68.4313 39.5417 68.741 41.2854H62.8208L60.5303 25.0537Z" fill="#373684"/>
<g clip-path="url(#clip0_669_6)">
<path d="M81.4331 36.7747C81.4331 36.7747 81.3405 39.9595 80.1886 38.949C80.1886 38.949 79.6055 40.5399 78.9034 39.3099C78.9034 39.3099 78.2288 41.1143 77.6324 39.2377C77.6324 39.2377 76.8509 41.5865 76.0573 39.0212C76.0573 39.0212 73.5408 43.3067 73.3424 36.7747L81.4331 36.7747Z" fill="#EFB19E"/>
<path d="M80.4959 36.7749C80.4962 37.58 80.3857 38.356 80.1862 38.9492C80.1862 38.9492 80.5885 38.3177 80.4959 36.7749Z" fill="#BC6A4F"/>
<path d="M79.1061 36.7744C79.1689 38.5457 78.9033 39.3096 78.9033 39.3096C78.9033 39.3096 79.3056 38.663 79.1061 36.7744Z" fill="#BC6A4F"/>
<path d="M77.9433 36.7743C77.9247 37.6576 77.8171 38.5099 77.6325 39.2373C77.7519 38.9229 77.8423 38.5358 77.8964 38.1077C77.9504 37.6796 77.9665 37.2226 77.9433 36.7743Z" fill="#BC6A4F"/>
<path d="M75.7563 37.601C75.8155 38.1302 75.918 38.6156 76.0562 39.0205C75.9635 38.8809 75.8866 38.6748 75.8338 38.4247C75.781 38.1745 75.7542 37.8897 75.7563 37.601Z" fill="#BC6A4F"/>
</g>
<g clip-path="url(#clip1_669_6)">
<path d="M58.2764 36.4983C58.2764 36.4983 58.1838 39.6831 57.0319 38.6726C57.0319 38.6726 56.4488 40.2635 55.7466 39.0335C55.7466 39.0335 55.072 40.8379 54.4757 38.9613C54.4757 38.9613 53.6942 41.3101 52.9005 38.7448C52.9005 38.7448 50.384 43.0303 50.1856 36.4983L58.2764 36.4983Z" fill="#EFB19E"/>
<path d="M57.3392 36.4985C57.3395 37.3036 57.2289 38.0796 57.0294 38.6729C57.0294 38.6729 57.4318 38.0413 57.3392 36.4985Z" fill="#BC6A4F"/>
<path d="M55.9494 36.498C56.0122 38.2693 55.7465 39.0332 55.7465 39.0332C55.7465 39.0332 56.1489 38.3866 55.9494 36.498Z" fill="#BC6A4F"/>
<path d="M54.7866 36.4979C54.7679 37.3813 54.6604 38.2335 54.4757 38.9609C54.5952 38.6466 54.6856 38.2595 54.7396 37.8313C54.7937 37.4032 54.8098 36.9463 54.7866 36.4979Z" fill="#BC6A4F"/>
<path d="M52.5996 37.3247C52.6587 37.8538 52.7613 38.3392 52.8994 38.7441C52.8068 38.6045 52.7299 38.3985 52.6771 38.1483C52.6242 37.8981 52.5974 37.6133 52.5996 37.3247Z" fill="#BC6A4F"/>
</g>
<path d="M65.6498 36.1143L65.6526 26.8574L65.3457 36.1255L65.6498 36.1143Z" fill="#2C2C6B"/>
<path d="M70.6639 26.1316C70.9829 26.1316 71.2414 25.873 71.2414 25.5541C71.2414 25.2351 70.9829 24.9766 70.6639 24.9766C70.345 24.9766 70.0864 25.2351 70.0864 25.5541C70.0864 25.873 70.345 26.1316 70.6639 26.1316Z" fill="#C9C5BD"/>
<path d="M70.7057 25.9855C70.9845 25.9855 71.2106 25.7594 71.2106 25.4806C71.2106 25.2017 70.9845 24.9756 70.7057 24.9756C70.4268 24.9756 70.2007 25.2017 70.2007 25.4806C70.2007 25.7594 70.4268 25.9855 70.7057 25.9855Z" fill="white"/>
<path d="M69.9745 26.9675C70.2934 26.9675 70.552 26.709 70.552 26.39C70.552 26.0711 70.2934 25.8125 69.9745 25.8125C69.6555 25.8125 69.397 26.0711 69.397 26.39C69.397 26.709 69.6555 26.9675 69.9745 26.9675Z" fill="#C9C5BD"/>
<path d="M70.0167 26.8224C70.2956 26.8224 70.5217 26.5964 70.5217 26.3175C70.5217 26.0386 70.2956 25.8125 70.0167 25.8125C69.7378 25.8125 69.5117 26.0386 69.5117 26.3175C69.5117 26.5964 69.7378 26.8224 70.0167 26.8224Z" fill="white"/>
<path d="M69.3968 27.8914C69.7158 27.8914 69.9744 27.6328 69.9744 27.3138C69.9744 26.9949 69.7158 26.7363 69.3968 26.7363C69.0779 26.7363 68.8193 26.9949 68.8193 27.3138C68.8193 27.6328 69.0779 27.8914 69.3968 27.8914Z" fill="#C9C5BD"/>
<path d="M69.4386 27.7424C69.7175 27.7424 69.9435 27.5163 69.9435 27.2374C69.9435 26.9585 69.7175 26.7324 69.4386 26.7324C69.1597 26.7324 68.9336 26.9585 68.9336 27.2374C68.9336 27.5163 69.1597 27.7424 69.4386 27.7424Z" fill="white"/>
<path d="M68.993 28.8796C69.312 28.8796 69.5705 28.6211 69.5705 28.3021C69.5705 27.9832 69.312 27.7246 68.993 27.7246C68.6741 27.7246 68.4155 27.9832 68.4155 28.3021C68.4155 28.6211 68.6741 28.8796 68.993 28.8796Z" fill="#DDD5C5"/>
<path d="M69.0343 28.7346C69.3132 28.7346 69.5392 28.5085 69.5392 28.2296C69.5392 27.9507 69.3132 27.7246 69.0343 27.7246C68.7554 27.7246 68.5293 27.9507 68.5293 28.2296C68.5293 28.5085 68.7554 28.7346 69.0343 28.7346Z" fill="white"/>
<path d="M68.4154 29.7615C68.7344 29.7615 68.9929 29.5029 68.9929 29.184C68.9929 28.865 68.7344 28.6064 68.4154 28.6064C68.0964 28.6064 67.8379 28.865 67.8379 29.184C67.8379 29.5029 68.0964 29.7615 68.4154 29.7615Z" fill="#C9C5BD"/>
<path d="M68.4566 29.6144C68.7355 29.6144 68.9616 29.3884 68.9616 29.1095C68.9616 28.8306 68.7355 28.6045 68.4566 28.6045C68.1777 28.6045 67.9517 28.8306 67.9517 29.1095C67.9517 29.3884 68.1777 29.6144 68.4566 29.6144Z" fill="white"/>
<path d="M67.8046 30.5623C68.1235 30.5623 68.3821 30.3037 68.3821 29.9847C68.3821 29.6658 68.1235 29.4072 67.8046 29.4072C67.4856 29.4072 67.2271 29.6658 67.2271 29.9847C67.2271 30.3037 67.4856 30.5623 67.8046 30.5623Z" fill="#C9C5BD"/>
<path d="M67.8463 30.4172C68.1252 30.4172 68.3513 30.1911 68.3513 29.9122C68.3513 29.6333 68.1252 29.4072 67.8463 29.4072C67.5674 29.4072 67.3413 29.6333 67.3413 29.9122C67.3413 30.1911 67.5674 30.4172 67.8463 30.4172Z" fill="white"/>
<path d="M67.0507 31.282C67.3696 31.282 67.6282 31.0234 67.6282 30.7045C67.6282 30.3855 67.3696 30.127 67.0507 30.127C66.7317 30.127 66.4731 30.3855 66.4731 30.7045C66.4731 31.0234 66.7317 31.282 67.0507 31.282Z" fill="#C9C5BD"/>
<path d="M67.0919 31.1369C67.3708 31.1369 67.5969 30.9108 67.5969 30.6319C67.5969 30.353 67.3708 30.127 67.0919 30.127C66.813 30.127 66.5869 30.353 66.5869 30.6319C66.5869 30.9108 66.813 31.1369 67.0919 31.1369Z" fill="white"/>
<path d="M66.1747 31.6755C66.4936 31.6755 66.7522 31.417 66.7522 31.098C66.7522 30.7791 66.4936 30.5205 66.1747 30.5205C65.8557 30.5205 65.5972 30.7791 65.5972 31.098C65.5972 31.417 65.8557 31.6755 66.1747 31.6755Z" fill="#C9C5BD"/>
<path d="M66.2164 31.5275C66.4953 31.5275 66.7214 31.3014 66.7214 31.0226C66.7214 30.7437 66.4953 30.5176 66.2164 30.5176C65.9375 30.5176 65.7114 30.7437 65.7114 31.0226C65.7114 31.3014 65.9375 31.5275 66.2164 31.5275Z" fill="white"/>
<path d="M65.1058 31.5994C65.4248 31.5994 65.6833 31.3408 65.6833 31.0218C65.6833 30.7029 65.4248 30.4443 65.1058 30.4443C64.7869 30.4443 64.5283 30.7029 64.5283 31.0218C64.5283 31.3408 64.7869 31.5994 65.1058 31.5994Z" fill="#C9C5BD"/>
<path d="M65.148 31.4543C65.4269 31.4543 65.653 31.2282 65.653 30.9493C65.653 30.6704 65.4269 30.4443 65.148 30.4443C64.8692 30.4443 64.6431 30.6704 64.6431 30.9493C64.6431 31.2282 64.8692 31.4543 65.148 31.4543Z" fill="white"/>
<path d="M64.1859 31.0242C64.5049 31.0242 64.7634 30.7656 64.7634 30.4467C64.7634 30.1277 64.5049 29.8691 64.1859 29.8691C63.867 29.8691 63.6084 30.1277 63.6084 30.4467C63.6084 30.7656 63.867 31.0242 64.1859 31.0242Z" fill="#C9C5BD"/>
<path d="M64.2306 30.8791C64.5094 30.8791 64.7355 30.653 64.7355 30.3741C64.7355 30.0952 64.5094 29.8691 64.2306 29.8691C63.9517 29.8691 63.7256 30.0952 63.7256 30.3741C63.7256 30.653 63.9517 30.8791 64.2306 30.8791Z" fill="white"/>
<path d="M63.41 30.3386C63.729 30.3386 63.9875 30.0801 63.9875 29.7611C63.9875 29.4422 63.729 29.1836 63.41 29.1836C63.0911 29.1836 62.8325 29.4422 62.8325 29.7611C62.8325 30.0801 63.0911 30.3386 63.41 30.3386Z" fill="#C9C5BD"/>
<path d="M63.4518 30.1916C63.7306 30.1916 63.9567 29.9655 63.9567 29.6866C63.9567 29.4077 63.7306 29.1816 63.4518 29.1816C63.1729 29.1816 62.9468 29.4077 62.9468 29.6866C62.9468 29.9655 63.1729 30.1916 63.4518 30.1916Z" fill="white"/>
<path d="M62.8324 29.5066C63.1513 29.5066 63.4099 29.248 63.4099 28.9291C63.4099 28.6101 63.1513 28.3516 62.8324 28.3516C62.5134 28.3516 62.2549 28.6101 62.2549 28.9291C62.2549 29.248 62.5134 29.5066 62.8324 29.5066Z" fill="#C9C5BD"/>
<path d="M62.8746 29.3615C63.1535 29.3615 63.3796 29.1354 63.3796 28.8565C63.3796 28.5776 63.1535 28.3516 62.8746 28.3516C62.5957 28.3516 62.3696 28.5776 62.3696 28.8565C62.3696 29.1354 62.5957 29.3615 62.8746 29.3615Z" fill="white"/>
<path d="M62.3695 28.657C62.6885 28.657 62.947 28.3984 62.947 28.0795C62.947 27.7605 62.6885 27.502 62.3695 27.502C62.0506 27.502 61.792 27.7605 61.792 28.0795C61.792 28.3984 62.0506 28.657 62.3695 28.657Z" fill="#C9C5BD"/>
<path d="M62.4117 28.5119C62.6906 28.5119 62.9167 28.2858 62.9167 28.0069C62.9167 27.728 62.6906 27.502 62.4117 27.502C62.1328 27.502 61.9067 27.728 61.9067 28.0069C61.9067 28.2858 62.1328 28.5119 62.4117 28.5119Z" fill="white"/>
<path d="M61.8734 27.9109C62.1924 27.9109 62.4509 27.6523 62.4509 27.3334C62.4509 27.0144 62.1924 26.7559 61.8734 26.7559C61.5545 26.7559 61.2959 27.0144 61.2959 27.3334C61.2959 27.6523 61.5545 27.9109 61.8734 27.9109Z" fill="#C9C5BD"/>
<path d="M61.9142 27.7658C62.193 27.7658 62.4191 27.5397 62.4191 27.2608C62.4191 26.9819 62.193 26.7559 61.9142 26.7559C61.6353 26.7559 61.4092 26.9819 61.4092 27.2608C61.4092 27.5397 61.6353 27.7658 61.9142 27.7658Z" fill="white"/>
<path d="M61.3666 27.0749C61.6855 27.0749 61.9441 26.8164 61.9441 26.4974C61.9441 26.1785 61.6855 25.9199 61.3666 25.9199C61.0476 25.9199 60.7891 26.1785 60.7891 26.4974C60.7891 26.8164 61.0476 27.0749 61.3666 27.0749Z" fill="#C9C5BD"/>
<path d="M61.4098 26.9289C61.6886 26.9289 61.9147 26.7028 61.9147 26.4239C61.9147 26.145 61.6886 25.9189 61.4098 25.9189C61.1309 25.9189 60.9048 26.145 60.9048 26.4239C60.9048 26.7028 61.1309 26.9289 61.4098 26.9289Z" fill="white"/>
<path d="M60.746 26.3171C61.0649 26.3171 61.3235 26.0586 61.3235 25.7396C61.3235 25.4207 61.0649 25.1621 60.746 25.1621C60.427 25.1621 60.1685 25.4207 60.1685 25.7396C60.1685 26.0586 60.427 26.3171 60.746 26.3171Z" fill="#C9C5BD"/>
<path d="M60.7896 26.1672C61.0685 26.1672 61.2946 25.9411 61.2946 25.6622C61.2946 25.3833 61.0685 25.1572 60.7896 25.1572C60.5108 25.1572 60.2847 25.3833 60.2847 25.6622C60.2847 25.9411 60.5108 26.1672 60.7896 26.1672Z" fill="white"/>
<path d="M76.1427 20.9615V20.981H55.6982C55.6982 18.2106 57.3471 14.1904 60.1175 14.1848L70.7721 11.6739C73.5481 11.6543 76.1427 18.1827 76.1427 20.9615Z" fill="#ED8A29"/>
<path d="M59.2331 20.6061C58.5987 20.6061 57.9903 20.3543 57.5414 19.906C57.0926 19.4577 56.8401 18.8496 56.8394 18.2152C56.8401 17.5808 57.0926 16.9727 57.5414 16.5244C57.9903 16.076 58.5987 15.8242 59.2331 15.8242C59.8672 15.8242 60.4754 16.0761 60.9238 16.5245C61.3721 16.9729 61.624 17.5811 61.624 18.2152C61.624 18.8493 61.3721 19.4575 60.9238 19.9058C60.4754 20.3542 59.8672 20.6061 59.2331 20.6061Z" fill="#EFB19E"/>
<path d="M57.8719 20.8308C58.1909 20.8308 58.4495 20.5722 58.4495 20.2533C58.4495 19.9343 58.1909 19.6758 57.8719 19.6758C57.553 19.6758 57.2944 19.9343 57.2944 20.2533C57.2944 20.5722 57.553 20.8308 57.8719 20.8308Z" fill="#C49318"/>
<path d="M57.9166 20.6857C58.1955 20.6857 58.4216 20.4596 58.4216 20.1808C58.4216 19.9019 58.1955 19.6758 57.9166 19.6758C57.6377 19.6758 57.4116 19.9019 57.4116 20.1808C57.4116 20.4596 57.6377 20.6857 57.9166 20.6857Z" fill="#EDB61B"/>
<path d="M65.7061 25.0534C61.379 25.0534 57.8721 21.9845 57.8721 18.2181C57.8721 14.4517 61.379 11.3828 65.7061 11.3828C70.0333 11.3828 73.5374 14.4517 73.5374 18.2181C73.5374 21.9845 70.0305 25.0534 65.7061 25.0534Z" fill="#EFB19E"/>
<path d="M66.032 21.4425C65.9241 21.4593 65.8153 21.4732 65.7055 21.4844C65.276 21.5262 64.8434 21.5262 64.4138 21.4844C64.2715 21.4844 64.1349 21.4537 63.9926 21.4341C62.4581 21.1914 61.663 21.7745 62.5474 22.1874C63.331 22.5028 64.1662 22.6703 65.0109 22.6812C65.8564 22.6704 66.6926 22.503 67.4772 22.1874C68.3616 21.7885 67.5664 21.2054 66.032 21.4425Z" fill="#E28E74"/>
<path d="M71.0606 18.2194C71.0581 17.7688 71.1603 17.3237 71.3591 16.9193C71.5338 16.555 71.8099 16.2489 72.1543 16.0377C72.465 15.8568 72.831 15.7953 73.1837 15.8647C73.5563 15.946 73.8911 16.1492 74.1351 16.4423C74.4148 16.7724 74.6067 17.1677 74.6931 17.5917C74.7883 18.0384 74.7825 18.5006 74.6763 18.9448C74.578 19.3601 74.3765 19.7439 74.0905 20.0608C73.8381 20.3423 73.4979 20.5301 73.1252 20.5936C73.0532 20.6048 72.9804 20.6104 72.9075 20.6104C72.7863 20.6093 72.6655 20.5943 72.5476 20.5657C72.0972 20.4328 71.7142 20.1336 71.4763 19.7288C71.2006 19.2739 71.0567 18.7513 71.0606 18.2194Z" fill="#EFB19E"/>
<path d="M74.1429 19.1081C74.2671 18.8222 74.3289 18.5131 74.3243 18.2014C74.3252 17.889 74.2596 17.5799 74.1318 17.2947C74.0182 17.0351 73.8407 16.8085 73.6157 16.6363C73.4136 16.4817 73.167 16.3966 72.9126 16.3936C72.9126 16.3936 74.5586 16.9348 74.1429 19.1081Z" fill="#BC6A4F"/>
<path d="M69.9736 22.445C70.2412 22.2846 70.4722 22.0698 70.6516 21.8145C70.8318 21.5642 70.9581 21.2792 71.0226 20.9776C71.0817 20.7002 71.0702 20.4124 70.9892 20.1406C70.9136 19.8984 70.7631 19.6865 70.5595 19.5352C70.5595 19.5352 71.5778 20.9218 69.9736 22.445Z" fill="#BC6A4F"/>
<path d="M60.746 22.3393C60.4489 22.2437 60.1752 22.0869 59.9425 21.879C59.7073 21.6738 59.5173 21.422 59.3845 21.1396C59.2666 20.8861 59.2148 20.6068 59.2338 20.3278C59.2498 20.0739 59.3477 19.8321 59.5128 19.6387C59.5128 19.6387 58.8349 21.2261 60.746 22.3393Z" fill="#BC6A4F"/>
<path d="M62.916 21.6885C63.3122 21.9954 64.1017 22.2046 65.0112 22.2046C65.9208 22.2046 66.7103 21.9954 67.1093 21.6885C67.1093 21.6885 65.0029 22.4752 62.916 21.6885Z" fill="#BC6A4F"/>
<path d="M57.894 34.2778C57.894 34.2778 58.3655 36.3702 58.3544 36.3256C58.5158 36.2219 58.6879 36.1358 58.8677 36.0689C58.8144 35.4802 58.7211 34.8958 58.5887 34.3196C58.426 34.2445 58.2545 34.1901 58.0782 34.1578C58.0782 34.1578 58.7171 32.7629 58.5776 30.252C58.5318 31.6185 58.3019 32.9727 57.894 34.2778Z" fill="#373684"/>
<path d="M52.1408 36.4764C52.1408 36.4764 51.8116 35.1623 51.926 34.2696C51.926 34.2696 56.3062 33.865 58.4795 34.37C58.4795 34.37 58.7947 35.8654 58.6804 36.4764H52.1408Z" fill="#FAF3ED"/>
<path d="M57.8941 34.2768C56.3039 34.0452 54.0412 34.14 52.8081 34.2182V33.9866C52.8081 33.9866 56.7893 33.8722 57.8941 34.2768Z" fill="#373684"/>
<path d="M73.9473 34.6204C73.9473 34.6204 73.4758 36.7101 73.487 36.6682C73.4981 36.6264 72.9736 36.4088 72.9736 36.4088C73.0286 35.8202 73.1218 35.2359 73.2526 34.6595C73.4164 34.5845 73.5888 34.5301 73.766 34.4977C73.766 34.4977 73.1243 33.1027 73.2666 30.5918C73.3105 31.9593 73.5395 33.3145 73.9473 34.6204Z" fill="#373684"/>
<path d="M79.7005 36.8319C79.7005 36.8319 80.0326 35.5207 79.9182 34.6251C79.9182 34.6251 75.5352 34.2234 73.3619 34.7284C73.3619 34.7284 73.0466 36.2209 73.1638 36.8319H79.7005Z" fill="#FAF3ED"/>
<path d="M73.9473 34.618C75.5375 34.3864 77.8531 34.4813 79.0723 34.5622L79.0556 34.339C79.0556 34.339 75.0549 34.2274 73.9473 34.618Z" fill="#373684"/>
<path d="M66.9674 18.3096C66.9674 18.795 67.3609 19.1885 67.8463 19.1885C68.3316 19.1885 68.7251 18.795 68.7251 18.3096C68.7251 17.8243 68.3316 17.4308 67.8463 17.4308C67.3609 17.4308 66.9674 17.8243 66.9674 18.3096Z" fill="#1D1D1B"/>
<path d="M60.7365 18.3096C60.7365 18.795 61.13 19.1885 61.6153 19.1885C62.1007 19.1885 62.4941 18.795 62.4941 18.3096C62.4941 17.8243 62.1007 17.4308 61.6153 17.4308C61.13 17.4308 60.7365 17.8243 60.7365 18.3096Z" fill="#1D1D1B"/>
<path d="M73.044 15.8265C73.1785 15.5251 73.2446 15.1976 73.2373 14.8676C73.2301 14.5376 73.1498 14.2134 73.0021 13.9182C72.8586 13.5624 72.7402 13.1969 72.6478 12.8245C72.4671 12.293 72.1826 11.8027 71.8108 11.3821C70.9432 10.2215 68.9707 10.2383 68.4853 10.4503L68.1198 10.6177C67.9775 10.6847 67.8408 10.5982 67.732 10.4949C67.4223 10.2327 67.3581 10.1267 66.5714 9.99832C65.8711 9.88394 65.4833 9.99833 65.2713 10.1992C65.1719 10.2923 65.0449 10.3505 64.9096 10.3651C64.7742 10.3797 64.6377 10.3498 64.5208 10.2801L64.4455 10.2355C63.6868 9.79433 62.7861 9.66622 61.9346 9.87836C58.9382 10.6093 57.2531 14.5347 57.6576 15.408C57.7474 15.6062 57.8781 15.7832 58.0411 15.9275C58.2041 16.0717 58.3957 16.1799 58.6034 16.2449C59.1614 16.4151 59.4766 13.2346 62.9333 13.8094C62.9333 13.8094 63.1565 14.7747 64.5041 15.2434C65.8516 15.7121 67.3191 13.8679 67.3191 13.8679C67.3191 13.8679 67.2019 15.0536 69.0377 15.8209C70.3257 16.3224 71.7546 16.3244 73.044 15.8265Z" fill="#ED8A29"/>
<path d="M64.4617 15.3469C63.8066 15.1514 63.2509 14.7134 62.9077 14.1221C62.5646 13.4832 62.5422 12.6965 62.8463 11.7842L63.0444 11.8511C62.7655 12.7048 62.7654 13.4358 63.0919 14.0245C63.4111 14.5603 63.9183 14.9581 64.5147 15.1404L64.4617 15.3469Z" fill="#1D1D1B"/>
<path d="M68.9975 15.9271C68.3443 15.731 67.7899 15.2942 67.4463 14.7051C67.1003 14.0635 67.0808 13.2767 67.3849 12.3672L67.583 12.4314C67.304 13.2851 67.304 14.016 67.6304 14.6019C67.949 15.1372 68.4551 15.5349 69.0505 15.7179L68.9975 15.9271Z" fill="#1D1D1B"/>
<path d="M73.3719 20.8308C73.6909 20.8308 73.9495 20.5722 73.9495 20.2533C73.9495 19.9343 73.6909 19.6758 73.3719 19.6758C73.053 19.6758 72.7944 19.9343 72.7944 20.2533C72.7944 20.5722 73.053 20.8308 73.3719 20.8308Z" fill="#C49318"/>
<path d="M73.4176 20.6857C73.6965 20.6857 73.9225 20.4596 73.9225 20.1808C73.9225 19.9019 73.6965 19.6758 73.4176 19.6758C73.1387 19.6758 72.9126 19.9019 72.9126 20.1808C72.9126 20.4596 73.1387 20.6857 73.4176 20.6857Z" fill="#EDB61B"/>
<path opacity="0.6" d="M58.3511 20.5769C58.3511 20.5769 58.128 20.0022 58.0722 19.7065C58.0722 19.7065 58.0722 19.6758 57.8853 19.6758C57.917 20.0461 58.0314 20.4045 58.22 20.7248C58.2725 20.684 58.3169 20.6339 58.3511 20.5769Z" fill="#C49318"/>
<path opacity="0.6" d="M71.3355 23.5508C71.3355 23.5508 67.9207 28.6061 67.9514 36.2783H68.6572V35.4414L71.3355 23.5508Z" fill="#373684"/>
<path opacity="0.6" d="M59.9951 23.3965C59.9951 23.3965 63.41 28.4518 63.3793 36.1241H62.6734V35.2871L59.9951 23.3965Z" fill="#373684"/>
<path d="M72.9041 21.2266L73.9894 24.7056L71.6598 27.7996L71.4785 31.7501L68.8755 35.6727L68.9006 34.6684C69.0261 29.8 70.2425 25.311 72.8929 21.2266H72.9041Z" fill="#373684"/>
<path d="M72.9286 20.7314L74.0138 24.2132L71.6815 27.5611L71.5029 31.5144L68.6572 35.437L68.6823 34.4299C68.8085 29.5615 70.2781 24.8227 72.9286 20.737V20.7314Z" fill="#FAF3ED"/>
<path d="M58.5018 21.2207L57.4165 24.7025L59.7489 27.7937L59.9274 31.7442L62.5221 35.6668L62.4941 34.6625C62.3714 29.7941 61.1522 25.3079 58.5018 21.2207Z" fill="#373684"/>
<path d="M58.4696 20.7266L57.3843 24.2084L59.7138 27.5563L59.8952 31.5068L62.7381 35.4294L62.713 34.425C62.5883 29.5559 61.1197 24.816 58.4696 20.7294V20.7266Z" fill="#FAF3ED"/>
<path d="M59.6323 18.0962C59.7798 17.8105 59.9773 17.5535 60.2154 17.3374C60.4528 17.1081 60.7389 16.9355 61.0524 16.8324C61.3851 16.7343 61.7428 16.7682 62.0512 16.9272C62.3394 17.0864 62.5742 17.3271 62.7263 17.6191C62.5034 17.4111 62.2456 17.2439 61.9647 17.1253C61.6955 17.0279 61.4022 17.0191 61.1277 17.1002C60.8453 17.1915 60.5795 17.3282 60.3409 17.5047C60.0933 17.6878 59.8567 17.8853 59.6323 18.0962Z" fill="#1D1D1B"/>
<path d="M70.0837 18.0962C69.8557 17.885 69.6153 17.6875 69.3639 17.5047C69.1253 17.3282 68.8596 17.1915 68.5771 17.1002C68.3026 17.0191 68.0093 17.0279 67.7402 17.1253C67.4593 17.2439 67.2014 17.4111 66.9785 17.6191C67.1306 17.3271 67.3655 17.0864 67.6537 16.9272C67.962 16.7682 68.3197 16.7343 68.6525 16.8324C68.9659 16.9355 69.2521 17.1081 69.4894 17.3374C69.7316 17.5525 69.9329 17.8096 70.0837 18.0962Z" fill="#1D1D1B"/>
</g>
<defs>
<clipPath id="clip0_669_6">
<rect width="8.09074" height="3.62688" fill="white" transform="translate(81.4331 40.4014) rotate(-180)"/>
</clipPath>
<clipPath id="clip1_669_6">
<rect width="8.09074" height="3.62688" fill="white" transform="translate(58.2764 40.125) rotate(-180)"/>
</clipPath>
</defs>
</svg>
