<svg width="151" height="21" viewBox="0 0 151 21" fill="none" xmlns="http://www.w3.org/2000/svg">
<path d="M9.93 7.41C9.95 7.45 9.97 7.48 9.99 7.5C10.01 7.5 10.02 7.52 10.02 7.56C10.02 7.68 9.77 7.91 9.27 8.25C8.77 8.57 8.15 8.94 7.41 9.36C6.67 9.76 5.89 10.17 5.07 10.59C4.25 10.99 3.52 11.32 2.88 11.58C2.88 11.62 2.86 11.75 2.82 11.97C2.78 12.19 2.76 12.33 2.76 12.39V12.96C2.76 13.42 2.83 13.88 2.97 14.34C3.11 14.78 3.32 15.18 3.6 15.54C3.9 15.9 4.26 16.19 4.68 16.41C5.1 16.63 5.59 16.74 6.15 16.74C6.39 16.74 6.68 16.7 7.02 16.62C7.38 16.52 7.72 16.39 8.04 16.23C8.38 16.05 8.68 15.84 8.94 15.6C9.2 15.36 9.36 15.09 9.42 14.79C9.66 14.81 9.8 14.88 9.84 15C9.9 15.12 9.93 15.2 9.93 15.24C9.93 15.76 9.8 16.21 9.54 16.59C9.3 16.95 8.99 17.25 8.61 17.49C8.25 17.71 7.86 17.88 7.44 18C7.04 18.1 6.68 18.15 6.36 18.15C4.64 18.15 3.39 17.67 2.61 16.71C1.83 15.75 1.44 14.49 1.44 12.93C1.44 12.85 1.46 12.67 1.5 12.39C1.54 12.11 1.56 11.92 1.56 11.82C1.56 11.8 1.52 11.78 1.44 11.76C1.36 11.72 1.27 11.68 1.17 11.64C1.09 11.6 1.01 11.54 0.93 11.46C0.87 11.36 0.84 11.23 0.84 11.07C0.84 10.91 0.9 10.78 1.02 10.68C1.14 10.58 1.28 10.49 1.44 10.41L1.74 10.23C1.92 9.47 2.13 8.74 2.37 8.04C2.63 7.32 2.95 6.6 3.33 5.88C3.17 5.88 3 5.86 2.82 5.82C2.64 5.78 2.55 5.64 2.55 5.4C2.55 5.12 2.71 4.81 3.03 4.47C3.37 4.13 3.75 3.81 4.17 3.51C4.61 3.21 5.04 2.96 5.46 2.76C5.88 2.54 6.18 2.43 6.36 2.43C6.44 2.43 6.49 2.45 6.51 2.49C6.55 2.51 6.61 2.52 6.69 2.52C6.85 2.52 7.05 2.49 7.29 2.43C7.55 2.37 7.82 2.3 8.1 2.22C8.38 2.14 8.64 2.07 8.88 2.01C9.14 1.95 9.35 1.92 9.51 1.92C9.69 1.92 9.82 1.98 9.9 2.1C10 2.22 10.05 2.35 10.05 2.49C10.05 2.65 9.95 2.77 9.75 2.85C9.55 2.91 9.37 2.96 9.21 3C8.65 3.1 8.06 3.28 7.44 3.54C6.84 3.78 6.28 4.05 5.76 4.35C5.56 4.57 5.32 4.89 5.04 5.31C4.76 5.71 4.49 6.17 4.23 6.69C3.97 7.21 3.73 7.75 3.51 8.31C3.31 8.87 3.18 9.4 3.12 9.9L3.63 9.66C5.17 8.92 6.42 8.34 7.38 7.92C8.36 7.5 9.12 7.29 9.66 7.29C9.76 7.29 9.85 7.33 9.93 7.41ZM21.2742 14.31C21.2742 14.43 21.2342 14.55 21.1542 14.67C21.0742 14.79 20.9742 14.9 20.8542 15C20.7542 15.1 20.6342 15.19 20.4942 15.27C20.3742 15.33 20.2642 15.36 20.1642 15.36C19.8242 15.36 19.3842 15.29 18.8442 15.15C18.3242 14.99 17.9042 14.75 17.5842 14.43C17.2442 14.09 16.9442 13.69 16.6842 13.23C16.4242 12.75 16.1342 12.05 15.8142 11.13C15.5942 12.01 15.3342 12.88 15.0342 13.74C14.7542 14.6 14.2942 15.39 13.6542 16.11C13.6142 16.15 13.5542 16.17 13.4742 16.17C13.3342 16.17 13.1842 16.1 13.0242 15.96C12.8642 15.82 12.7842 15.68 12.7842 15.54C12.7842 15.4 12.7642 15.08 12.7242 14.58C12.7042 14.06 12.6742 13.49 12.6342 12.87C12.5942 12.23 12.5542 11.59 12.5142 10.95C12.4942 10.29 12.4842 9.75 12.4842 9.33C12.4842 9.13 12.4942 8.87 12.5142 8.55C12.5342 8.21 12.5942 7.92 12.6942 7.68C12.7142 7.64 12.7842 7.56 12.9042 7.44C13.0442 7.32 13.1942 7.26 13.3542 7.26C13.4942 7.26 13.5742 7.35 13.5942 7.53C13.6142 7.71 13.6242 7.91 13.6242 8.13V12.87C13.6242 12.97 13.6342 13.11 13.6542 13.29C13.6942 13.47 13.7442 13.6 13.8042 13.68C14.0242 13.2 14.2242 12.64 14.4042 12C14.6042 11.34 14.7942 10.72 14.9742 10.14C15.1542 9.54 15.3342 9.04 15.5142 8.64C15.6942 8.22 15.8742 8.01 16.0542 8.01C16.2542 8.01 16.4142 8.05 16.5342 8.13C16.6542 8.21 16.7542 8.37 16.8342 8.61C16.9342 9.19 17.0142 9.71 17.0742 10.17C17.1342 10.61 17.2042 11.01 17.2842 11.37C17.3842 11.73 17.5142 12.07 17.6742 12.39C17.8542 12.69 18.0942 12.97 18.3942 13.23C18.6742 13.49 18.9842 13.68 19.3242 13.8C19.6842 13.92 19.9942 13.98 20.2542 13.98C20.3742 13.98 20.5042 13.96 20.6442 13.92C20.7842 13.86 20.8842 13.83 20.9442 13.83C21.0242 13.83 21.0942 13.9 21.1542 14.04C21.2342 14.18 21.2742 14.27 21.2742 14.31ZM31.4611 12.54C31.4611 12.74 31.4311 12.95 31.3711 13.17C31.3111 13.37 31.2511 13.54 31.1911 13.68C31.1511 13.74 30.9611 13.95 30.6211 14.31C30.3011 14.65 29.8911 15.01 29.3911 15.39C28.9111 15.77 28.3611 16.12 27.7411 16.44C27.1411 16.74 26.5611 16.89 26.0011 16.89C25.6611 16.89 25.3111 16.83 24.9511 16.71C24.6111 16.59 24.2911 16.4 23.9911 16.14C23.6911 15.86 23.4411 15.52 23.2411 15.12C23.0611 14.72 22.9711 14.23 22.9711 13.65C22.9711 12.69 23.1311 11.82 23.4511 11.04C23.7711 10.26 24.0911 9.64 24.4111 9.18C24.5511 8.96 24.7311 8.74 24.9511 8.52C25.1911 8.28 25.4211 8.07 25.6411 7.89C25.8611 7.69 26.0611 7.53 26.2411 7.41C26.4411 7.29 26.5811 7.23 26.6611 7.23C26.8411 7.23 27.0011 7.28 27.1411 7.38C27.3011 7.48 27.3811 7.58 27.3811 7.68C27.3811 7.84 27.3311 7.98 27.2311 8.1C27.1511 8.2 27.0311 8.32 26.8711 8.46C26.7111 8.58 26.5211 8.75 26.3011 8.97C26.0811 9.17 25.8511 9.44 25.6111 9.78C25.1311 10.44 24.7711 11.12 24.5311 11.82C24.3111 12.5 24.2011 13.1 24.2011 13.62C24.2011 14.14 24.3911 14.56 24.7711 14.88C25.1711 15.18 25.5811 15.33 26.0011 15.33C26.7611 15.33 27.4311 15.16 28.0111 14.82C28.6111 14.48 29.1211 14.1 29.5411 13.68C29.9611 13.26 30.3011 12.88 30.5611 12.54C30.8211 12.2 31.0111 12.03 31.1311 12.03C31.3511 12.03 31.4611 12.2 31.4611 12.54ZM39.236 11.52C39.236 11.96 39.176 12.38 39.056 12.78C38.936 13.18 38.776 13.53 38.576 13.83C38.376 14.13 38.136 14.37 37.856 14.55C37.596 14.71 37.306 14.79 36.986 14.79C36.426 14.79 35.986 14.63 35.666 14.31C35.346 13.99 35.096 13.62 34.916 13.2C34.756 12.78 34.646 12.36 34.586 11.94C34.546 11.5 34.526 11.17 34.526 10.95C34.526 10.59 34.576 10.19 34.676 9.75C34.796 9.29 34.946 8.87 35.126 8.49C35.326 8.11 35.546 7.79 35.786 7.53C36.026 7.27 36.276 7.14 36.536 7.14C36.596 7.14 36.686 7.16 36.806 7.2C36.946 7.24 37.086 7.3 37.226 7.38C37.366 7.46 37.486 7.56 37.586 7.68C37.706 7.8 37.786 7.94 37.826 8.1C38.046 8.12 38.266 8.2 38.486 8.34C38.706 8.48 38.826 8.59 38.846 8.67C39.006 9.19 39.106 9.71 39.146 10.23C39.206 10.75 39.236 11.18 39.236 11.52ZM37.886 10.98C37.886 10.68 37.856 10.37 37.796 10.05C37.736 9.71 37.616 9.37 37.436 9.03C37.396 9.05 37.346 9.06 37.286 9.06C37.206 9.06 37.136 9.05 37.076 9.03C37.036 9.01 36.996 9 36.956 9C36.716 9 36.526 9.07 36.386 9.21C36.246 9.33 36.136 9.5 36.056 9.72C35.996 9.92 35.956 10.14 35.936 10.38C35.916 10.62 35.906 10.85 35.906 11.07C35.906 11.29 35.916 11.54 35.936 11.82C35.956 12.08 35.996 12.33 36.056 12.57C36.136 12.81 36.236 13.02 36.356 13.2C36.476 13.36 36.636 13.44 36.836 13.44C37.036 13.44 37.206 13.34 37.346 13.14C37.486 12.92 37.596 12.67 37.676 12.39C37.756 12.11 37.806 11.84 37.826 11.58C37.866 11.3 37.886 11.1 37.886 10.98ZM49.3542 8.85C49.3542 8.99 49.2942 9.11 49.1742 9.21C49.0542 9.29 48.9142 9.36 48.7542 9.42C48.5942 9.48 48.4342 9.53 48.2742 9.57C48.1142 9.59 47.9842 9.6 47.8842 9.6C47.5842 9.6 47.3842 9.58 47.2842 9.54C47.1842 9.5 47.1042 9.48 47.0442 9.48C46.5442 9.48 46.1442 9.52 45.8442 9.6C45.5442 9.68 45.3042 9.81 45.1242 9.99C44.9642 10.17 44.8542 10.4 44.7942 10.68C44.7542 10.94 44.7342 11.26 44.7342 11.64C44.7342 12.28 44.7542 12.79 44.7942 13.17C44.8542 13.55 44.9042 13.86 44.9442 14.1C45.0042 14.34 45.0542 14.53 45.0942 14.67C45.1542 14.79 45.1842 14.91 45.1842 15.03C45.1842 15.19 45.0942 15.36 44.9142 15.54C44.7542 15.72 44.6042 15.81 44.4642 15.81C44.2242 15.81 44.0042 15.6 43.8042 15.18C43.6242 14.74 43.4642 14.23 43.3242 13.65C43.2042 13.05 43.1042 12.46 43.0242 11.88C42.9442 11.3 42.9042 10.86 42.9042 10.56C42.9042 10.22 42.9342 9.9 42.9942 9.6C43.0542 9.28 43.1342 9.01 43.2342 8.79C43.3342 8.55 43.4442 8.36 43.5642 8.22C43.6842 8.08 43.8042 8.01 43.9242 8.01C44.0242 8.01 44.1042 8.05 44.1642 8.13C44.2242 8.19 44.2742 8.27 44.3142 8.37C44.3542 8.45 44.3942 8.53 44.4342 8.61C44.4942 8.67 44.5642 8.7 44.6442 8.7C44.8242 8.7 45.1142 8.61 45.5142 8.43C45.9142 8.25 46.4042 8.16 46.9842 8.16C47.5242 8.16 47.9242 8.18 48.1842 8.22C48.4642 8.24 48.7342 8.3 48.9942 8.4C49.0542 8.42 49.1242 8.47 49.2042 8.55C49.3042 8.61 49.3542 8.71 49.3542 8.85ZM60.1064 14.85C60.1264 14.89 60.1364 14.95 60.1364 15.03C60.1364 15.15 60.0464 15.33 59.8664 15.57C59.8064 15.65 59.6764 15.78 59.4764 15.96C59.2764 16.14 59.0064 16.32 58.6664 16.5C58.3264 16.68 57.9064 16.84 57.4064 16.98C56.9264 17.12 56.3564 17.19 55.6964 17.19C55.2364 17.19 54.7864 17.09 54.3464 16.89C53.9064 16.67 53.5164 16.36 53.1764 15.96C52.8364 15.54 52.5564 15.03 52.3364 14.43C52.1164 13.81 52.0064 13.09 52.0064 12.27C52.0064 11.49 52.1064 10.76 52.3064 10.08C52.5064 9.4 52.7564 8.8 53.0564 8.28C53.3764 7.76 53.7264 7.35 54.1064 7.05C54.4864 6.75 54.8564 6.6 55.2164 6.6C55.5364 6.6 55.8564 6.67 56.1764 6.81C56.5164 6.93 56.8164 7.09 57.0764 7.29C57.3564 7.49 57.5764 7.72 57.7364 7.98C57.8964 8.22 57.9764 8.47 57.9764 8.73C57.9764 9.03 57.8364 9.34 57.5564 9.66C57.2964 9.98 56.9764 10.28 56.5964 10.56C56.2164 10.82 55.8364 11.04 55.4564 11.22C55.0764 11.38 54.7764 11.46 54.5564 11.46C54.4364 11.46 54.3264 11.41 54.2264 11.31C54.1464 11.19 54.1064 11.05 54.1064 10.89C54.1064 10.61 54.2264 10.39 54.4664 10.23C54.7264 10.07 55.0064 9.93 55.3064 9.81C55.6064 9.67 55.8764 9.51 56.1164 9.33C56.3764 9.15 56.5064 8.9 56.5064 8.58C56.5064 8.54 56.4564 8.44 56.3564 8.28C56.2564 8.12 55.9864 8.04 55.5464 8.04C55.3464 8.04 55.1164 8.16 54.8564 8.4C54.5964 8.62 54.3464 8.93 54.1064 9.33C53.8664 9.71 53.6664 10.17 53.5064 10.71C53.3464 11.23 53.2664 11.8 53.2664 12.42C53.2664 12.94 53.3564 13.41 53.5364 13.83C53.7364 14.25 53.9864 14.61 54.2864 14.91C54.5864 15.19 54.9364 15.41 55.3364 15.57C55.7364 15.73 56.1464 15.81 56.5664 15.81C56.8664 15.81 57.1864 15.75 57.5264 15.63C57.8864 15.49 58.2164 15.35 58.5164 15.21C58.8364 15.05 59.1064 14.91 59.3264 14.79C59.5664 14.65 59.7164 14.58 59.7764 14.58C59.8364 14.58 59.8964 14.61 59.9564 14.67C60.0364 14.73 60.0864 14.79 60.1064 14.85ZM84.5173 13.02C84.5173 13.2 84.3973 13.39 84.1573 13.59C83.9173 13.79 83.6373 13.98 83.3173 14.16C82.9973 14.32 82.6673 14.46 82.3273 14.58C82.0073 14.7 81.7673 14.76 81.6073 14.76C81.4273 14.76 81.2273 14.71 81.0073 14.61C80.8073 14.51 80.6073 14.39 80.4073 14.25C80.2273 14.11 80.0673 13.98 79.9273 13.86C79.7873 13.74 79.6973 13.66 79.6573 13.62C79.5973 13.68 79.5073 13.8 79.3873 13.98C79.2673 14.16 79.1173 14.36 78.9373 14.58C78.7773 14.78 78.5973 14.96 78.3973 15.12C78.2173 15.28 78.0273 15.36 77.8273 15.36C77.3073 15.36 76.8573 15.08 76.4773 14.52C76.0973 13.96 75.7773 13.32 75.5173 12.6C75.2773 11.88 75.0873 11.19 74.9473 10.53C74.8273 9.85 74.7673 9.39 74.7673 9.15C74.7673 9.01 74.8373 8.9 74.9773 8.82C75.1373 8.72 75.2573 8.67 75.3373 8.67C75.6173 8.67 75.8073 8.77 75.9073 8.97C76.0073 9.15 76.0573 9.35 76.0573 9.57C76.0573 9.75 76.1073 10.07 76.2073 10.53C76.3273 10.99 76.4673 11.46 76.6273 11.94C76.7873 12.42 76.9573 12.85 77.1373 13.23C77.3173 13.59 77.4773 13.77 77.6173 13.77C77.8773 13.77 78.0973 13.61 78.2773 13.29C78.4773 12.95 78.6373 12.57 78.7573 12.15C78.8773 11.71 78.9673 11.3 79.0273 10.92C79.0873 10.52 79.1173 10.26 79.1173 10.14C79.1173 10.12 79.1173 10.06 79.1173 9.96C79.1373 9.84 79.1573 9.72 79.1773 9.6C79.1973 9.48 79.2073 9.37 79.2073 9.27C79.2273 9.17 79.2373 9.1 79.2373 9.06C79.2373 8.92 79.2073 8.83 79.1473 8.79C79.0873 8.73 79.0573 8.62 79.0573 8.46C79.0573 8.34 79.1173 8.23 79.2373 8.13C79.3573 8.01 79.6173 7.95 80.0173 7.95C80.1773 7.95 80.2973 8 80.3773 8.1C80.4773 8.18 80.5473 8.28 80.5873 8.4C80.6273 8.52 80.6473 8.64 80.6473 8.76C80.6673 8.86 80.6773 8.93 80.6773 8.97C80.6773 8.99 80.6673 9.13 80.6473 9.39C80.6273 9.65 80.6073 9.94 80.5873 10.26C80.5873 10.56 80.5773 10.85 80.5573 11.13C80.5373 11.41 80.5273 11.58 80.5273 11.64C80.5273 11.7 80.5573 11.82 80.6173 12C80.6773 12.18 80.7473 12.37 80.8273 12.57C80.9273 12.75 81.0373 12.92 81.1573 13.08C81.2773 13.22 81.4073 13.29 81.5473 13.29C81.7873 13.29 82.0073 13.26 82.2073 13.2C82.4273 13.12 82.6273 13.04 82.8073 12.96C83.0073 12.86 83.1873 12.78 83.3473 12.72C83.5073 12.64 83.6573 12.6 83.7973 12.6C83.9773 12.6 84.1373 12.64 84.2773 12.72C84.4373 12.8 84.5173 12.9 84.5173 13.02ZM94.7215 14.31C94.7215 14.43 94.6815 14.55 94.6015 14.67C94.5215 14.79 94.4215 14.9 94.3015 15C94.2015 15.1 94.0815 15.19 93.9415 15.27C93.8215 15.33 93.7115 15.36 93.6115 15.36C93.2715 15.36 92.8315 15.29 92.2915 15.15C91.7715 14.99 91.3515 14.75 91.0315 14.43C90.6915 14.09 90.3915 13.69 90.1315 13.23C89.8715 12.75 89.5815 12.05 89.2615 11.13C89.0415 12.01 88.7815 12.88 88.4815 13.74C88.2015 14.6 87.7415 15.39 87.1015 16.11C87.0615 16.15 87.0015 16.17 86.9215 16.17C86.7815 16.17 86.6315 16.1 86.4715 15.96C86.3115 15.82 86.2315 15.68 86.2315 15.54C86.2315 15.4 86.2115 15.08 86.1715 14.58C86.1515 14.06 86.1215 13.49 86.0815 12.87C86.0415 12.23 86.0015 11.59 85.9615 10.95C85.9415 10.29 85.9315 9.75 85.9315 9.33C85.9315 9.13 85.9415 8.87 85.9615 8.55C85.9815 8.21 86.0415 7.92 86.1415 7.68C86.1615 7.64 86.2315 7.56 86.3515 7.44C86.4915 7.32 86.6415 7.26 86.8015 7.26C86.9415 7.26 87.0215 7.35 87.0415 7.53C87.0615 7.71 87.0715 7.91 87.0715 8.13V12.87C87.0715 12.97 87.0815 13.11 87.1015 13.29C87.1415 13.47 87.1915 13.6 87.2515 13.68C87.4715 13.2 87.6715 12.64 87.8515 12C88.0515 11.34 88.2415 10.72 88.4215 10.14C88.6015 9.54 88.7815 9.04 88.9615 8.64C89.1415 8.22 89.3215 8.01 89.5015 8.01C89.7015 8.01 89.8615 8.05 89.9815 8.13C90.1015 8.21 90.2015 8.37 90.2815 8.61C90.3815 9.19 90.4615 9.71 90.5215 10.17C90.5815 10.61 90.6515 11.01 90.7315 11.37C90.8315 11.73 90.9615 12.07 91.1215 12.39C91.3015 12.69 91.5415 12.97 91.8415 13.23C92.1215 13.49 92.4315 13.68 92.7715 13.8C93.1315 13.92 93.4415 13.98 93.7015 13.98C93.8215 13.98 93.9515 13.96 94.0915 13.92C94.2315 13.86 94.3315 13.83 94.3915 13.83C94.4715 13.83 94.5415 13.9 94.6015 14.04C94.6815 14.18 94.7215 14.27 94.7215 14.31ZM116.64 4.44C116.38 4.74 116.01 5.04 115.53 5.34C115.05 5.62 114.57 5.88 114.09 6.12C113.61 6.36 113.19 6.57 112.83 6.75C112.47 6.91 112.29 7.02 112.29 7.08C112.29 7.14 112.33 7.32 112.41 7.62C112.49 7.92 112.58 8.28 112.68 8.7C112.8 9.1 112.92 9.52 113.04 9.96C113.16 10.4 113.26 10.79 113.34 11.13C113.38 11.33 113.43 11.59 113.49 11.91C113.55 12.23 113.6 12.55 113.64 12.87C113.7 13.19 113.75 13.48 113.79 13.74C113.83 13.98 113.85 14.11 113.85 14.13C113.85 14.43 113.8 14.74 113.7 15.06C113.6 15.38 113.44 15.54 113.22 15.54C113.1 15.54 112.99 15.49 112.89 15.39C112.79 15.29 112.7 15.18 112.62 15.06C112.54 14.92 112.48 14.79 112.44 14.67C112.4 14.55 112.38 14.46 112.38 14.4C112.38 14.36 112.38 14.3 112.38 14.22C112.4 14.14 112.41 14.05 112.41 13.95C112.41 13.57 112.35 13.02 112.23 12.3C112.19 12.08 112.11 11.74 111.99 11.28C111.87 10.82 111.75 10.35 111.63 9.87C111.49 9.31 111.33 8.7 111.15 8.04C111.07 7.76 111.02 7.62 111 7.62C110.86 7.62 110.62 7.71 110.28 7.89C109.96 8.05 109.59 8.26 109.17 8.52C108.75 8.76 108.31 9.03 107.85 9.33C107.39 9.61 106.96 9.88 106.56 10.14C106.16 10.38 105.82 10.59 105.54 10.77C105.24 10.93 105.06 11.01 105 11.01C104.74 11.01 104.53 10.92 104.37 10.74C104.21 10.56 104.13 10.36 104.13 10.14C104.13 10.02 104.3 9.85 104.64 9.63C104.96 9.39 105.37 9.13 105.87 8.85C106.35 8.57 106.88 8.28 107.46 7.98C108.02 7.68 108.54 7.41 109.02 7.17C109.52 6.93 109.93 6.73 110.25 6.57C110.59 6.41 110.76 6.33 110.76 6.33C110.58 5.41 110.43 4.59 110.31 3.87C110.21 3.25 110.11 2.68 110.01 2.16C109.93 1.64 109.89 1.36 109.89 1.32C109.89 1.06 109.94 0.869999 110.04 0.749999C110.16 0.609999 110.29 0.539999 110.43 0.539999C110.65 0.539999 110.79 0.689999 110.85 0.989999C111.07 2.07 111.27 3.03 111.45 3.87C111.65 4.71 111.84 5.39 112.02 5.91C112.2 5.87 112.51 5.76 112.95 5.58C113.39 5.38 113.85 5.17 114.33 4.95C114.81 4.73 115.24 4.54 115.62 4.38C116.02 4.2 116.25 4.11 116.31 4.11C116.43 4.11 116.5 4.15 116.52 4.23C116.56 4.31 116.6 4.38 116.64 4.44ZM123.64 11.52C123.64 11.96 123.58 12.38 123.46 12.78C123.34 13.18 123.18 13.53 122.98 13.83C122.78 14.13 122.54 14.37 122.26 14.55C122 14.71 121.71 14.79 121.39 14.79C120.83 14.79 120.39 14.63 120.07 14.31C119.75 13.99 119.5 13.62 119.32 13.2C119.16 12.78 119.05 12.36 118.99 11.94C118.95 11.5 118.93 11.17 118.93 10.95C118.93 10.59 118.98 10.19 119.08 9.75C119.2 9.29 119.35 8.87 119.53 8.49C119.73 8.11 119.95 7.79 120.19 7.53C120.43 7.27 120.68 7.14 120.94 7.14C121 7.14 121.09 7.16 121.21 7.2C121.35 7.24 121.49 7.3 121.63 7.38C121.77 7.46 121.89 7.56 121.99 7.68C122.11 7.8 122.19 7.94 122.23 8.1C122.45 8.12 122.67 8.2 122.89 8.34C123.11 8.48 123.23 8.59 123.25 8.67C123.41 9.19 123.51 9.71 123.55 10.23C123.61 10.75 123.64 11.18 123.64 11.52ZM122.29 10.98C122.29 10.68 122.26 10.37 122.2 10.05C122.14 9.71 122.02 9.37 121.84 9.03C121.8 9.05 121.75 9.06 121.69 9.06C121.61 9.06 121.54 9.05 121.48 9.03C121.44 9.01 121.4 9 121.36 9C121.12 9 120.93 9.07 120.79 9.21C120.65 9.33 120.54 9.5 120.46 9.72C120.4 9.92 120.36 10.14 120.34 10.38C120.32 10.62 120.31 10.85 120.31 11.07C120.31 11.29 120.32 11.54 120.34 11.82C120.36 12.08 120.4 12.33 120.46 12.57C120.54 12.81 120.64 13.02 120.76 13.2C120.88 13.36 121.04 13.44 121.24 13.44C121.44 13.44 121.61 13.34 121.75 13.14C121.89 12.92 122 12.67 122.08 12.39C122.16 12.11 122.21 11.84 122.23 11.58C122.27 11.3 122.29 11.1 122.29 10.98ZM136.549 13.02C136.549 13.2 136.429 13.39 136.189 13.59C135.949 13.79 135.669 13.98 135.349 14.16C135.029 14.32 134.699 14.46 134.359 14.58C134.039 14.7 133.799 14.76 133.639 14.76C133.459 14.76 133.259 14.71 133.039 14.61C132.839 14.51 132.639 14.39 132.439 14.25C132.259 14.11 132.099 13.98 131.959 13.86C131.819 13.74 131.729 13.66 131.689 13.62C131.629 13.68 131.539 13.8 131.419 13.98C131.299 14.16 131.149 14.36 130.969 14.58C130.809 14.78 130.629 14.96 130.429 15.12C130.249 15.28 130.059 15.36 129.859 15.36C129.339 15.36 128.889 15.08 128.509 14.52C128.129 13.96 127.809 13.32 127.549 12.6C127.309 11.88 127.119 11.19 126.979 10.53C126.859 9.85 126.799 9.39 126.799 9.15C126.799 9.01 126.869 8.9 127.009 8.82C127.169 8.72 127.289 8.67 127.369 8.67C127.649 8.67 127.839 8.77 127.939 8.97C128.039 9.15 128.089 9.35 128.089 9.57C128.089 9.75 128.139 10.07 128.239 10.53C128.359 10.99 128.499 11.46 128.659 11.94C128.819 12.42 128.989 12.85 129.169 13.23C129.349 13.59 129.509 13.77 129.649 13.77C129.909 13.77 130.129 13.61 130.309 13.29C130.509 12.95 130.669 12.57 130.789 12.15C130.909 11.71 130.999 11.3 131.059 10.92C131.119 10.52 131.149 10.26 131.149 10.14C131.149 10.12 131.149 10.06 131.149 9.96C131.169 9.84 131.189 9.72 131.209 9.6C131.229 9.48 131.239 9.37 131.239 9.27C131.259 9.17 131.269 9.1 131.269 9.06C131.269 8.92 131.239 8.83 131.179 8.79C131.119 8.73 131.089 8.62 131.089 8.46C131.089 8.34 131.149 8.23 131.269 8.13C131.389 8.01 131.649 7.95 132.049 7.95C132.209 7.95 132.329 8 132.409 8.1C132.509 8.18 132.579 8.28 132.619 8.4C132.659 8.52 132.679 8.64 132.679 8.76C132.699 8.86 132.709 8.93 132.709 8.97C132.709 8.99 132.699 9.13 132.679 9.39C132.659 9.65 132.639 9.94 132.619 10.26C132.619 10.56 132.609 10.85 132.589 11.13C132.569 11.41 132.559 11.58 132.559 11.64C132.559 11.7 132.589 11.82 132.649 12C132.709 12.18 132.779 12.37 132.859 12.57C132.959 12.75 133.069 12.92 133.189 13.08C133.309 13.22 133.439 13.29 133.579 13.29C133.819 13.29 134.039 13.26 134.239 13.2C134.459 13.12 134.659 13.04 134.839 12.96C135.039 12.86 135.219 12.78 135.379 12.72C135.539 12.64 135.689 12.6 135.829 12.6C136.009 12.6 136.169 12.64 136.309 12.72C136.469 12.8 136.549 12.9 136.549 13.02ZM144.833 8.85C144.833 8.99 144.773 9.11 144.653 9.21C144.533 9.29 144.393 9.36 144.233 9.42C144.073 9.48 143.913 9.53 143.753 9.57C143.593 9.59 143.463 9.6 143.363 9.6C143.063 9.6 142.863 9.58 142.763 9.54C142.663 9.5 142.583 9.48 142.523 9.48C142.023 9.48 141.623 9.52 141.323 9.6C141.023 9.68 140.783 9.81 140.603 9.99C140.443 10.17 140.333 10.4 140.273 10.68C140.233 10.94 140.213 11.26 140.213 11.64C140.213 12.28 140.233 12.79 140.273 13.17C140.333 13.55 140.383 13.86 140.423 14.1C140.483 14.34 140.533 14.53 140.573 14.67C140.633 14.79 140.663 14.91 140.663 15.03C140.663 15.19 140.573 15.36 140.393 15.54C140.233 15.72 140.083 15.81 139.943 15.81C139.703 15.81 139.483 15.6 139.283 15.18C139.103 14.74 138.943 14.23 138.803 13.65C138.683 13.05 138.583 12.46 138.503 11.88C138.423 11.3 138.383 10.86 138.383 10.56C138.383 10.22 138.413 9.9 138.473 9.6C138.533 9.28 138.613 9.01 138.713 8.79C138.813 8.55 138.923 8.36 139.043 8.22C139.163 8.08 139.283 8.01 139.403 8.01C139.503 8.01 139.583 8.05 139.643 8.13C139.703 8.19 139.753 8.27 139.793 8.37C139.833 8.45 139.873 8.53 139.913 8.61C139.973 8.67 140.043 8.7 140.123 8.7C140.303 8.7 140.593 8.61 140.993 8.43C141.393 8.25 141.883 8.16 142.463 8.16C143.003 8.16 143.403 8.18 143.663 8.22C143.943 8.24 144.213 8.3 144.473 8.4C144.533 8.42 144.603 8.47 144.683 8.55C144.783 8.61 144.833 8.71 144.833 8.85ZM150.005 17.04C150.005 17.26 149.915 17.58 149.735 18C149.575 18.42 149.365 18.84 149.105 19.26C148.845 19.68 148.545 20.04 148.205 20.34C147.885 20.66 147.575 20.82 147.275 20.82C147.115 20.82 146.975 20.75 146.855 20.61C146.755 20.49 146.705 20.4 146.705 20.34C146.705 20.32 146.795 20.19 146.975 19.95C147.175 19.73 147.395 19.46 147.635 19.14C147.875 18.82 148.085 18.47 148.265 18.09C148.465 17.71 148.565 17.34 148.565 16.98C148.565 16.6 148.515 16.32 148.415 16.14C148.335 15.94 148.245 15.78 148.145 15.66C148.045 15.52 147.945 15.4 147.845 15.3C147.765 15.18 147.725 15.01 147.725 14.79C147.725 14.49 147.885 14.34 148.205 14.34C148.525 14.34 148.795 14.45 149.015 14.67C149.235 14.87 149.415 15.12 149.555 15.42C149.715 15.7 149.825 15.99 149.885 16.29C149.965 16.59 150.005 16.84 150.005 17.04Z" fill="#656565"/>
</svg>
