<svg width="144" height="36" viewBox="0 0 144 36" fill="none" xmlns="http://www.w3.org/2000/svg">
<rect width="144" height="36" fill="#46A882"/>
<mask id="mask0_426_5" style="mask-type:alpha" maskUnits="userSpaceOnUse" x="113" y="6" width="25" height="25">
<circle cx="125.132" cy="18.1324" r="11.6324" fill="#A27474" stroke="black"/>
</mask>
<g mask="url(#mask0_426_5)">
<path d="M129.825 15.6279H129.9C132.208 15.7016 133.853 15.9814 134.084 17.2161C135.016 22.1598 135.383 28.937 135.383 28.937L125.427 31.9391H125.007L115.511 28.937C115.511 28.937 115.809 18.2912 116.43 17.2161C116.849 16.5092 118.318 15.6991 120.609 15.623H129.841L129.825 15.6279Z" fill="#5154A1"/>
<path d="M121.384 18.7568C121.384 18.7568 125.401 21.8088 128.982 18.7568C128.982 18.7568 127.308 29.6195 127.54 30.9269H123.102L121.384 18.7568Z" fill="#373684"/>
<g clip-path="url(#clip0_426_5)">
<path d="M137.056 27.5455C137.056 27.5455 136.987 29.9333 136.123 29.1757C136.123 29.1757 135.686 30.3685 135.159 29.4463C135.159 29.4463 134.654 30.7992 134.207 29.3922C134.207 29.3922 133.621 31.1532 133.026 29.2298C133.026 29.2298 131.139 32.443 130.99 27.5455L137.056 27.5455Z" fill="#EFB19E"/>
<path d="M136.354 27.5455C136.354 28.1492 136.271 28.731 136.122 29.1758C136.122 29.1758 136.423 28.7023 136.354 27.5455Z" fill="#BC6A4F"/>
<path d="M135.311 27.5455C135.359 28.8736 135.159 29.4463 135.159 29.4463C135.159 29.4463 135.461 28.9615 135.311 27.5455Z" fill="#BC6A4F"/>
<path d="M134.44 27.5449C134.426 28.2072 134.345 28.8462 134.206 29.3916C134.296 29.1559 134.364 28.8657 134.404 28.5447C134.445 28.2237 134.457 27.8811 134.44 27.5449Z" fill="#BC6A4F"/>
<path d="M132.8 28.1652C132.844 28.5619 132.921 28.9259 133.025 29.2295C132.955 29.1248 132.898 28.9703 132.858 28.7827C132.819 28.5952 132.798 28.3816 132.8 28.1652Z" fill="#BC6A4F"/>
</g>
<g clip-path="url(#clip1_426_5)">
<path d="M119.694 27.3375C119.694 27.3375 119.625 29.7253 118.761 28.9677C118.761 28.9677 118.324 30.1605 117.798 29.2383C117.798 29.2383 117.292 30.5912 116.845 29.1842C116.845 29.1842 116.259 30.9452 115.664 29.0218C115.664 29.0218 113.777 32.235 113.628 27.3375L119.694 27.3375Z" fill="#EFB19E"/>
<path d="M118.992 27.3375C118.992 27.9411 118.909 28.523 118.76 28.9678C118.76 28.9678 119.061 28.4943 118.992 27.3375Z" fill="#BC6A4F"/>
<path d="M117.95 27.3375C117.997 28.6656 117.798 29.2383 117.798 29.2383C117.798 29.2383 118.099 28.7535 117.95 27.3375Z" fill="#BC6A4F"/>
<path d="M117.078 27.3369C117.064 27.9992 116.983 28.6382 116.845 29.1836C116.934 28.9479 117.002 28.6576 117.043 28.3367C117.083 28.0157 117.095 27.673 117.078 27.3369Z" fill="#BC6A4F"/>
<path d="M115.438 27.9572C115.483 28.3539 115.559 28.7179 115.663 29.0215C115.594 28.9168 115.536 28.7623 115.496 28.5747C115.457 28.3872 115.437 28.1736 115.438 27.9572Z" fill="#BC6A4F"/>
</g>
<path d="M125.223 27.05L125.225 20.1094L124.995 27.0583L125.223 27.05Z" fill="#2C2C6B"/>
<path d="M128.982 19.5652C129.221 19.5652 129.415 19.3714 129.415 19.1322C129.415 18.8931 129.221 18.6992 128.982 18.6992C128.743 18.6992 128.549 18.8931 128.549 19.1322C128.549 19.3714 128.743 19.5652 128.982 19.5652Z" fill="#C9C5BD"/>
<path d="M129.013 19.4555C129.222 19.4555 129.392 19.286 129.392 19.0769C129.392 18.8678 129.222 18.6982 129.013 18.6982C128.804 18.6982 128.635 18.8678 128.635 19.0769C128.635 19.286 128.804 19.4555 129.013 19.4555Z" fill="white"/>
<path d="M128.465 20.1912C128.704 20.1912 128.898 19.9973 128.898 19.7582C128.898 19.5191 128.704 19.3252 128.465 19.3252C128.226 19.3252 128.032 19.5191 128.032 19.7582C128.032 19.9973 128.226 20.1912 128.465 20.1912Z" fill="#C9C5BD"/>
<path d="M128.497 20.0824C128.706 20.0824 128.875 19.9129 128.875 19.7038C128.875 19.4947 128.706 19.3252 128.497 19.3252C128.288 19.3252 128.118 19.4947 128.118 19.7038C128.118 19.9129 128.288 20.0824 128.497 20.0824Z" fill="white"/>
<path d="M128.032 20.8846C128.271 20.8846 128.465 20.6907 128.465 20.4516C128.465 20.2124 128.271 20.0186 128.032 20.0186C127.793 20.0186 127.599 20.2124 127.599 20.4516C127.599 20.6907 127.793 20.8846 128.032 20.8846Z" fill="#C9C5BD"/>
<path d="M128.063 20.7729C128.272 20.7729 128.442 20.6033 128.442 20.3942C128.442 20.1851 128.272 20.0156 128.063 20.0156C127.854 20.0156 127.685 20.1851 127.685 20.3942C127.685 20.6033 127.854 20.7729 128.063 20.7729Z" fill="white"/>
<path d="M127.729 21.6258C127.968 21.6258 128.162 21.4319 128.162 21.1928C128.162 20.9536 127.968 20.7598 127.729 20.7598C127.49 20.7598 127.296 20.9536 127.296 21.1928C127.296 21.4319 127.49 21.6258 127.729 21.6258Z" fill="#DDD5C5"/>
<path d="M127.76 21.517C127.969 21.517 128.139 21.3475 128.139 21.1384C128.139 20.9293 127.969 20.7598 127.76 20.7598C127.551 20.7598 127.381 20.9293 127.381 21.1384C127.381 21.3475 127.551 21.517 127.76 21.517Z" fill="white"/>
<path d="M127.296 22.2859C127.535 22.2859 127.729 22.0921 127.729 21.8529C127.729 21.6138 127.535 21.4199 127.296 21.4199C127.057 21.4199 126.863 21.6138 126.863 21.8529C126.863 22.0921 127.057 22.2859 127.296 22.2859Z" fill="#C9C5BD"/>
<path d="M127.327 22.1762C127.536 22.1762 127.706 22.0067 127.706 21.7976C127.706 21.5885 127.536 21.4189 127.327 21.4189C127.118 21.4189 126.949 21.5885 126.949 21.7976C126.949 22.0067 127.118 22.1762 127.327 22.1762Z" fill="white"/>
<path d="M126.838 22.8865C127.077 22.8865 127.271 22.6927 127.271 22.4535C127.271 22.2144 127.077 22.0205 126.838 22.0205C126.599 22.0205 126.405 22.2144 126.405 22.4535C126.405 22.6927 126.599 22.8865 126.838 22.8865Z" fill="#C9C5BD"/>
<path d="M126.869 22.7777C127.078 22.7777 127.248 22.6082 127.248 22.3991C127.248 22.19 127.078 22.0205 126.869 22.0205C126.66 22.0205 126.491 22.19 126.491 22.3991C126.491 22.6082 126.66 22.7777 126.869 22.7777Z" fill="white"/>
<path d="M126.273 23.4266C126.512 23.4266 126.706 23.2327 126.706 22.9935C126.706 22.7544 126.512 22.5605 126.273 22.5605C126.034 22.5605 125.84 22.7544 125.84 22.9935C125.84 23.2327 126.034 23.4266 126.273 23.4266Z" fill="#C9C5BD"/>
<path d="M126.304 23.3178C126.513 23.3178 126.683 23.1483 126.683 22.9392C126.683 22.7301 126.513 22.5605 126.304 22.5605C126.095 22.5605 125.925 22.7301 125.925 22.9392C125.925 23.1483 126.095 23.3178 126.304 23.3178Z" fill="white"/>
<path d="M125.616 23.7215C125.855 23.7215 126.049 23.5276 126.049 23.2885C126.049 23.0493 125.855 22.8555 125.616 22.8555C125.377 22.8555 125.183 23.0493 125.183 23.2885C125.183 23.5276 125.377 23.7215 125.616 23.7215Z" fill="#C9C5BD"/>
<path d="M125.648 23.6107C125.857 23.6107 126.026 23.4412 126.026 23.2321C126.026 23.023 125.857 22.8535 125.648 22.8535C125.439 22.8535 125.269 23.023 125.269 23.2321C125.269 23.4412 125.439 23.6107 125.648 23.6107Z" fill="white"/>
<path d="M124.815 23.6648C125.054 23.6648 125.248 23.471 125.248 23.2318C125.248 22.9927 125.054 22.7988 124.815 22.7988C124.576 22.7988 124.382 22.9927 124.382 23.2318C124.382 23.471 124.576 23.6648 124.815 23.6648Z" fill="#C9C5BD"/>
<path d="M124.846 23.5561C125.055 23.5561 125.225 23.3865 125.225 23.1774C125.225 22.9683 125.055 22.7988 124.846 22.7988C124.637 22.7988 124.468 22.9683 124.468 23.1774C124.468 23.3865 124.637 23.5561 124.846 23.5561Z" fill="white"/>
<path d="M124.125 23.2332C124.364 23.2332 124.558 23.0393 124.558 22.8002C124.558 22.561 124.364 22.3672 124.125 22.3672C123.886 22.3672 123.692 22.561 123.692 22.8002C123.692 23.0393 123.886 23.2332 124.125 23.2332Z" fill="#C9C5BD"/>
<path d="M124.158 23.1244C124.368 23.1244 124.537 22.9549 124.537 22.7458C124.537 22.5367 124.368 22.3672 124.158 22.3672C123.949 22.3672 123.78 22.5367 123.78 22.7458C123.78 22.9549 123.949 23.1244 124.158 23.1244Z" fill="white"/>
<path d="M123.543 22.7195C123.782 22.7195 123.976 22.5257 123.976 22.2865C123.976 22.0474 123.782 21.8535 123.543 21.8535C123.304 21.8535 123.11 22.0474 123.11 22.2865C123.11 22.5257 123.304 22.7195 123.543 22.7195Z" fill="#C9C5BD"/>
<path d="M123.575 22.6088C123.784 22.6088 123.954 22.4393 123.954 22.2302C123.954 22.0211 123.784 21.8516 123.575 21.8516C123.366 21.8516 123.196 22.0211 123.196 22.2302C123.196 22.4393 123.366 22.6088 123.575 22.6088Z" fill="white"/>
<path d="M123.11 22.0955C123.349 22.0955 123.543 21.9016 123.543 21.6625C123.543 21.4234 123.349 21.2295 123.11 21.2295C122.871 21.2295 122.677 21.4234 122.677 21.6625C122.677 21.9016 122.871 22.0955 123.11 22.0955Z" fill="#C9C5BD"/>
<path d="M123.142 21.9867C123.351 21.9867 123.52 21.8172 123.52 21.6081C123.52 21.399 123.351 21.2295 123.142 21.2295C122.933 21.2295 122.763 21.399 122.763 21.6081C122.763 21.8172 122.933 21.9867 123.142 21.9867Z" fill="white"/>
<path d="M122.763 21.4588C123.002 21.4588 123.196 21.2649 123.196 21.0258C123.196 20.7866 123.002 20.5928 122.763 20.5928C122.524 20.5928 122.33 20.7866 122.33 21.0258C122.33 21.2649 122.524 21.4588 122.763 21.4588Z" fill="#C9C5BD"/>
<path d="M122.795 21.35C123.004 21.35 123.173 21.1805 123.173 20.9714C123.173 20.7623 123.004 20.5928 122.795 20.5928C122.586 20.5928 122.416 20.7623 122.416 20.9714C122.416 21.1805 122.586 21.35 122.795 21.35Z" fill="white"/>
<path d="M122.391 20.8992C122.63 20.8992 122.824 20.7053 122.824 20.4662C122.824 20.2271 122.63 20.0332 122.391 20.0332C122.152 20.0332 121.958 20.2271 121.958 20.4662C121.958 20.7053 122.152 20.8992 122.391 20.8992Z" fill="#C9C5BD"/>
<path d="M122.422 20.7904C122.631 20.7904 122.801 20.6209 122.801 20.4118C122.801 20.2027 122.631 20.0332 122.422 20.0332C122.213 20.0332 122.043 20.2027 122.043 20.4118C122.043 20.6209 122.213 20.7904 122.422 20.7904Z" fill="white"/>
<path d="M122.012 20.2723C122.251 20.2723 122.445 20.0784 122.445 19.8393C122.445 19.6001 122.251 19.4062 122.012 19.4062C121.772 19.4062 121.579 19.6001 121.579 19.8393C121.579 20.0784 121.772 20.2723 122.012 20.2723Z" fill="#C9C5BD"/>
<path d="M122.044 20.1625C122.253 20.1625 122.422 19.993 122.422 19.7839C122.422 19.5748 122.253 19.4053 122.044 19.4053C121.835 19.4053 121.665 19.5748 121.665 19.7839C121.665 19.993 121.835 20.1625 122.044 20.1625Z" fill="white"/>
<path d="M121.546 19.7039C121.785 19.7039 121.979 19.51 121.979 19.2709C121.979 19.0318 121.785 18.8379 121.546 18.8379C121.307 18.8379 121.113 19.0318 121.113 19.2709C121.113 19.51 121.307 19.7039 121.546 19.7039Z" fill="#C9C5BD"/>
<path d="M121.579 19.5922C121.788 19.5922 121.957 19.4227 121.957 19.2136C121.957 19.0045 121.788 18.835 121.579 18.835C121.37 18.835 121.2 19.0045 121.2 19.2136C121.2 19.4227 121.37 19.5922 121.579 19.5922Z" fill="white"/>
<path d="M133.09 15.6892V15.7038H117.761C117.761 13.6267 118.998 10.6124 121.075 10.6082L129.063 8.72562C131.145 8.71098 133.09 13.6058 133.09 15.6892Z" fill="#ED8A29"/>
<path d="M120.411 15.4223C119.936 15.4223 119.48 15.2335 119.143 14.8973C118.807 14.5612 118.617 14.1052 118.617 13.6296C118.617 13.1539 118.807 12.698 119.143 12.3619C119.48 12.0257 119.936 11.8369 120.411 11.8369C120.887 11.8369 121.343 12.0258 121.679 12.362C122.015 12.6982 122.204 13.1541 122.204 13.6296C122.204 14.105 122.015 14.561 121.679 14.8972C121.343 15.2334 120.887 15.4223 120.411 15.4223Z" fill="#EFB19E"/>
<path d="M119.391 15.5906C119.63 15.5906 119.824 15.3968 119.824 15.1576C119.824 14.9185 119.63 14.7246 119.391 14.7246C119.152 14.7246 118.958 14.9185 118.958 15.1576C118.958 15.3968 119.152 15.5906 119.391 15.5906Z" fill="#C49318"/>
<path d="M119.425 15.4818C119.634 15.4818 119.803 15.3123 119.803 15.1032C119.803 14.8941 119.634 14.7246 119.425 14.7246C119.215 14.7246 119.046 14.8941 119.046 15.1032C119.046 15.3123 119.215 15.4818 119.425 15.4818Z" fill="#EDB61B"/>
<path d="M125.265 18.7566C122.02 18.7566 119.391 16.4557 119.391 13.6317C119.391 10.8078 122.02 8.50684 125.265 8.50684C128.509 8.50684 131.137 10.8078 131.137 13.6317C131.137 16.4557 128.507 18.7566 125.265 18.7566Z" fill="#EFB19E"/>
<path d="M125.509 16.0492C125.428 16.0617 125.347 16.0722 125.264 16.0805C124.942 16.1119 124.618 16.1119 124.296 16.0805C124.189 16.0805 124.087 16.0575 123.98 16.0429C122.83 15.8609 122.233 16.2981 122.897 16.6077C123.484 16.8441 124.11 16.9697 124.744 16.9779C125.378 16.9698 126.005 16.8443 126.593 16.6077C127.256 16.3085 126.66 15.8714 125.509 16.0492Z" fill="#E28E74"/>
<path d="M129.279 13.632C129.277 13.2942 129.354 12.9605 129.503 12.6573C129.634 12.3841 129.841 12.1546 130.099 11.9963C130.332 11.8606 130.607 11.8145 130.871 11.8666C131.151 11.9275 131.402 12.0799 131.585 12.2996C131.794 12.5471 131.938 12.8435 132.003 13.1614C132.074 13.4963 132.07 13.8429 131.99 14.1759C131.917 14.4873 131.765 14.7751 131.551 15.0126C131.362 15.2237 131.107 15.3645 130.827 15.4122C130.773 15.4205 130.719 15.4247 130.664 15.4247C130.573 15.4239 130.483 15.4127 130.394 15.3912C130.057 15.2916 129.769 15.0673 129.591 14.7637C129.384 14.4226 129.276 14.0309 129.279 13.632Z" fill="#EFB19E"/>
<path d="M131.59 14.299C131.683 14.0846 131.73 13.8529 131.726 13.6192C131.727 13.3849 131.678 13.1531 131.582 12.9393C131.497 12.7447 131.364 12.5748 131.195 12.4457C131.044 12.3298 130.859 12.2659 130.668 12.2637C130.668 12.2637 131.902 12.6695 131.59 14.299Z" fill="#BC6A4F"/>
<path d="M128.465 16.8009C128.665 16.6806 128.839 16.5195 128.973 16.3281C129.108 16.1404 129.203 15.9268 129.251 15.7006C129.296 15.4926 129.287 15.2768 129.226 15.0731C129.17 14.8915 129.057 14.7326 128.904 14.6191C128.904 14.6191 129.668 15.6588 128.465 16.8009Z" fill="#BC6A4F"/>
<path d="M121.546 16.7211C121.323 16.6495 121.118 16.5319 120.943 16.376C120.767 16.2222 120.625 16.0334 120.525 15.8217C120.437 15.6315 120.398 15.4221 120.412 15.213C120.424 15.0226 120.497 14.8413 120.621 14.6963C120.621 14.6963 120.113 15.8865 121.546 16.7211Z" fill="#BC6A4F"/>
<path d="M123.173 16.2334C123.47 16.4635 124.062 16.6204 124.744 16.6204C125.426 16.6204 126.018 16.4635 126.317 16.2334C126.317 16.2334 124.738 16.8233 123.173 16.2334Z" fill="#BC6A4F"/>
<path d="M119.408 25.6718C119.408 25.6718 119.761 27.2406 119.753 27.2072C119.874 27.1294 120.003 27.0649 120.138 27.0147C120.098 26.5733 120.028 26.1351 119.929 25.7032C119.807 25.6468 119.678 25.6061 119.546 25.5818C119.546 25.5818 120.025 24.5359 119.92 22.6533C119.886 23.6779 119.714 24.6933 119.408 25.6718Z" fill="#373684"/>
<path d="M115.094 27.3214C115.094 27.3214 114.847 26.3361 114.933 25.6667C114.933 25.6667 118.217 25.3634 119.847 25.7421C119.847 25.7421 120.083 26.8633 119.997 27.3214H115.094Z" fill="#FAF3ED"/>
<path d="M119.408 25.6711C118.215 25.4975 116.519 25.5686 115.594 25.6272V25.4536C115.594 25.4536 118.579 25.3678 119.408 25.6711Z" fill="#373684"/>
<path d="M131.444 25.9288C131.444 25.9288 131.09 27.4955 131.099 27.4641C131.107 27.4328 130.714 27.2696 130.714 27.2696C130.755 26.8283 130.825 26.3902 130.923 25.958C131.046 25.9018 131.175 25.8611 131.308 25.8367C131.308 25.8367 130.827 24.7908 130.934 22.9082C130.966 23.9335 131.138 24.9496 131.444 25.9288Z" fill="#373684"/>
<path d="M135.758 27.5875C135.758 27.5875 136.006 26.6044 135.921 25.9329C135.921 25.9329 132.635 25.6317 131.005 26.0103C131.005 26.0103 130.769 27.1294 130.856 27.5875H135.758Z" fill="#FAF3ED"/>
<path d="M131.444 25.9283C132.636 25.7546 134.372 25.8258 135.286 25.8864L135.274 25.7191C135.274 25.7191 132.274 25.6354 131.444 25.9283Z" fill="#373684"/>
<path d="M126.21 13.7005C126.21 14.0644 126.505 14.3594 126.869 14.3594C127.233 14.3594 127.528 14.0644 127.528 13.7005C127.528 13.3365 127.233 13.0415 126.869 13.0415C126.505 13.0415 126.21 13.3365 126.21 13.7005Z" fill="#1D1D1B"/>
<path d="M121.539 13.7005C121.539 14.0644 121.834 14.3594 122.198 14.3594C122.562 14.3594 122.857 14.0644 122.857 13.7005C122.857 13.3365 122.562 13.0415 122.198 13.0415C121.834 13.0415 121.539 13.3365 121.539 13.7005Z" fill="#1D1D1B"/>
<path d="M130.766 11.8384C130.867 11.6125 130.917 11.3669 130.911 11.1195C130.906 10.8721 130.846 10.629 130.735 10.4076C130.627 10.1409 130.539 9.86686 130.469 9.58766C130.334 9.18916 130.121 8.82157 129.842 8.5062C129.191 7.63601 127.712 7.64856 127.348 7.80753L127.074 7.93305C126.968 7.98325 126.865 7.91841 126.784 7.84101C126.551 7.64438 126.503 7.56489 125.913 7.46866C125.388 7.3829 125.098 7.46867 124.939 7.61928C124.864 7.68905 124.769 7.73269 124.667 7.74363C124.566 7.75458 124.464 7.73222 124.376 7.67994L124.319 7.64647C123.751 7.31571 123.075 7.21966 122.437 7.37872C120.19 7.92677 118.927 10.8699 119.23 11.5247C119.297 11.6733 119.395 11.806 119.518 11.9142C119.64 12.0223 119.784 12.1034 119.939 12.1522C120.358 12.2798 120.594 9.89516 123.186 10.3261C123.186 10.3261 123.353 11.0498 124.363 11.4013C125.374 11.7527 126.474 10.37 126.474 10.37C126.474 10.37 126.386 11.259 127.763 11.8342C128.728 12.2103 129.8 12.2117 130.766 11.8384Z" fill="#ED8A29"/>
<path d="M124.332 11.4788C123.841 11.3323 123.424 11.0039 123.167 10.5605C122.909 10.0815 122.893 9.49163 123.121 8.80762L123.269 8.85782C123.06 9.49791 123.06 10.046 123.305 10.4873C123.544 10.889 123.924 11.1873 124.372 11.324L124.332 11.4788Z" fill="#1D1D1B"/>
<path d="M127.733 11.9143C127.243 11.7672 126.827 11.4397 126.57 10.998C126.31 10.5169 126.296 9.92704 126.524 9.24512L126.672 9.29324C126.463 9.93333 126.463 10.4814 126.708 10.9206C126.947 11.322 127.326 11.6202 127.773 11.7574L127.733 11.9143Z" fill="#1D1D1B"/>
<path d="M131.013 15.5906C131.252 15.5906 131.446 15.3968 131.446 15.1576C131.446 14.9185 131.252 14.7246 131.013 14.7246C130.773 14.7246 130.58 14.9185 130.58 15.1576C130.58 15.3968 130.773 15.5906 131.013 15.5906Z" fill="#C49318"/>
<path d="M131.047 15.4818C131.256 15.4818 131.425 15.3123 131.425 15.1032C131.425 14.8941 131.256 14.7246 131.047 14.7246C130.837 14.7246 130.668 14.8941 130.668 15.1032C130.668 15.3123 130.837 15.4818 131.047 15.4818Z" fill="#EDB61B"/>
<path opacity="0.6" d="M119.75 15.4003C119.75 15.4003 119.583 14.9694 119.541 14.7476C119.541 14.7476 119.541 14.7246 119.401 14.7246C119.425 15.0022 119.51 15.271 119.652 15.5111C119.691 15.4806 119.725 15.443 119.75 15.4003Z" fill="#C49318"/>
<path opacity="0.6" d="M129.486 17.6299C129.486 17.6299 126.925 21.4202 126.948 27.1727H127.478V26.5451L129.486 17.6299Z" fill="#373684"/>
<path opacity="0.6" d="M120.983 17.5137C120.983 17.5137 123.543 21.304 123.52 27.0564H122.991V26.4289L120.983 17.5137Z" fill="#373684"/>
<path d="M130.662 15.8867L131.475 18.4952L129.729 20.815L129.593 23.777L127.641 26.718L127.66 25.965C127.754 22.3148 128.666 18.9491 130.653 15.8867H130.662Z" fill="#373684"/>
<path d="M130.68 15.5156L131.494 18.1262L129.745 20.6363L129.611 23.6004L127.478 26.5415L127.496 25.7863C127.591 22.1361 128.693 18.5831 130.68 15.5198V15.5156Z" fill="#FAF3ED"/>
<path d="M119.864 15.8828L119.05 18.4934L120.799 20.8111L120.932 23.7731L122.878 26.7141L122.857 25.9611C122.765 22.3109 121.851 18.9473 119.864 15.8828Z" fill="#373684"/>
<path d="M119.839 15.5117L119.025 18.1223L120.772 20.6324L120.908 23.5944L123.04 26.5355L123.021 25.7824C122.927 22.1317 121.826 18.5779 119.839 15.5138V15.5117Z" fill="#FAF3ED"/>
<path d="M120.711 13.5396C120.822 13.3254 120.97 13.1327 121.148 12.9707C121.326 12.7988 121.541 12.6694 121.776 12.592C122.025 12.5185 122.293 12.544 122.525 12.6632C122.741 12.7825 122.917 12.963 123.031 13.1819C122.864 13.0259 122.67 12.9006 122.46 12.8117C122.258 12.7386 122.038 12.732 121.832 12.7929C121.62 12.8613 121.421 12.9638 121.242 13.0962C121.057 13.2334 120.879 13.3815 120.711 13.5396Z" fill="#1D1D1B"/>
<path d="M128.547 13.5396C128.376 13.3813 128.196 13.2332 128.007 13.0962C127.828 12.9638 127.629 12.8613 127.417 12.7929C127.212 12.732 126.992 12.7386 126.79 12.8117C126.579 12.9006 126.386 13.0259 126.219 13.1819C126.333 12.963 126.509 12.7825 126.725 12.6632C126.956 12.544 127.224 12.5185 127.474 12.592C127.709 12.6694 127.923 12.7988 128.101 12.9707C128.283 13.132 128.434 13.3247 128.547 13.5396Z" fill="#1D1D1B"/>
</g>
<defs>
<clipPath id="clip0_426_5">
<rect width="6.06621" height="2.71934" fill="white" transform="translate(137.056 30.2646) rotate(-180)"/>
</clipPath>
<clipPath id="clip1_426_5">
<rect width="6.06621" height="2.71934" fill="white" transform="translate(119.694 30.0566) rotate(-180)"/>
</clipPath>
</defs>
</svg>
