<svg width="69" height="78" viewBox="0 0 69 78" fill="none" xmlns="http://www.w3.org/2000/svg">
<path d="M67.5807 56.9662L66.5563 19.5303L33.6171 1.69983L1.70117 21.3041L2.72452 58.7388L35.6648 76.5693L67.5807 56.9662Z" fill="#3154FF" stroke="black" stroke-width="1.5" stroke-miterlimit="10"/>
<path d="M28.0537 38.1284L28.1672 42.2833C28.1949 42.8625 28.0894 43.4403 27.8586 43.9722C27.6112 44.5696 27.2006 45.0853 26.6738 45.4603C26.147 45.8353 25.5253 46.0544 24.8797 46.0926C24.2984 46.0966 23.7262 45.9483 23.2201 45.6624C22.714 45.3765 22.2917 44.963 21.9953 44.4631C21.6454 43.8765 21.4586 43.207 21.4544 42.524L21.3367 38.1983C21.3025 37.5158 21.4524 36.8366 21.7705 36.2317C22.0392 35.7164 22.4383 35.2805 22.928 34.9674C23.4177 34.6544 23.981 34.475 24.5616 34.4473C25.0252 34.4409 25.485 34.5326 25.9106 34.7165C26.3363 34.9003 26.7183 35.172 27.0314 35.5139C27.6821 36.2301 28.0461 37.1609 28.0537 38.1284Z" fill="white" stroke="#1D1D1B" stroke-width="1.5" stroke-linecap="round" stroke-linejoin="round"/>
<path d="M24.6749 40.9486C26.5157 40.9486 28.0079 39.4567 28.0079 37.6164C28.0079 35.7761 26.5157 34.2842 24.6749 34.2842C22.8341 34.2842 21.3418 35.7761 21.3418 37.6164C21.3418 39.4567 22.8341 40.9486 24.6749 40.9486Z" fill="#1D1D1B"/>
<path d="M46.826 37.6153L46.9406 41.7702C46.9684 42.3494 46.8628 42.9272 46.632 43.4591C46.3846 44.0565 45.9741 44.5722 45.4473 44.9472C44.9205 45.3222 44.2987 45.5413 43.6531 45.5796C43.0718 45.5836 42.4997 45.4352 41.9936 45.1493C41.4875 44.8634 41.0652 44.4499 40.7687 43.95C40.4188 43.3634 40.2321 42.6939 40.2278 42.0109L40.1101 37.6853C40.076 37.0027 40.2258 36.3235 40.5438 35.7186C40.8126 35.2033 41.2117 34.7674 41.7015 34.4544C42.1912 34.1413 42.7544 33.962 43.335 33.9343C43.7986 33.9279 44.2584 34.0196 44.6841 34.2034C45.1097 34.3872 45.4917 34.659 45.8049 35.0008C46.4562 35.7166 46.8198 36.6477 46.826 37.6153Z" fill="white" stroke="#1D1D1B" stroke-width="1.5" stroke-linecap="round" stroke-linejoin="round"/>
<path d="M43.4486 40.4354C45.2894 40.4354 46.7817 38.9436 46.7817 37.1032C46.7817 35.2629 45.2894 33.771 43.4486 33.771C41.6078 33.771 40.1155 35.2629 40.1155 37.1032C40.1155 38.9436 41.6078 40.4354 43.4486 40.4354Z" fill="#1D1D1B"/>
</svg>
