<svg width="115" height="62" viewBox="0 0 115 62" fill="none" xmlns="http://www.w3.org/2000/svg">
<path d="M105.062 56.7824L13.1193 61.1345C10.6457 61.2489 8.2277 60.3776 6.39586 58.7118C4.56403 57.0459 3.46797 54.7217 3.34817 52.2489L1.58885 15.0941C1.47445 12.621 2.34598 10.2037 4.0122 8.3723C5.67843 6.54093 8.00327 5.44513 10.4766 5.32535L102.419 0.973199C104.893 0.859114 107.311 1.73054 109.142 3.39629C110.974 5.06204 112.07 7.38613 112.19 9.85878L113.95 47.0136C114.064 49.4866 113.193 51.904 111.526 53.7354C109.86 55.5668 107.535 56.6626 105.062 56.7824Z" fill="#FFABE5" stroke="#1D1D1B" stroke-width="1.5" stroke-linecap="round" stroke-linejoin="round"/>
<path d="M53.4765 42.8163C56.6884 42.8163 59.2921 40.2132 59.2921 37.0022C59.2921 33.7911 56.6884 31.188 53.4765 31.188C50.2646 31.188 47.6609 33.7911 47.6609 37.0022C47.6609 40.2132 50.2646 42.8163 53.4765 42.8163Z" fill="white" stroke="#1D1D1B" stroke-width="1.5" stroke-linecap="round" stroke-linejoin="round"/>
<path d="M54.7448 38.8543C56.7262 38.8543 58.3324 37.2485 58.3324 35.2676C58.3324 33.2867 56.7262 31.6809 54.7448 31.6809C52.7634 31.6809 51.1572 33.2867 51.1572 35.2676C51.1572 37.2485 52.7634 38.8543 54.7448 38.8543Z" fill="#1D1D1B"/>
<path d="M73.8671 41.8516C77.079 41.8516 79.6827 39.2485 79.6827 36.0374C79.6827 32.8264 77.079 30.2233 73.8671 30.2233C70.6553 30.2233 68.0515 32.8264 68.0515 36.0374C68.0515 39.2485 70.6553 41.8516 73.8671 41.8516Z" fill="white" stroke="#1D1D1B" stroke-width="1.5" stroke-linecap="round" stroke-linejoin="round"/>
<path d="M75.1354 37.8896C77.1168 37.8896 78.723 36.2838 78.723 34.3029C78.723 32.322 77.1168 30.7162 75.1354 30.7162C73.1541 30.7162 71.5479 32.322 71.5479 34.3029C71.5479 36.2838 73.1541 37.8896 75.1354 37.8896Z" fill="#1D1D1B"/>
</svg>
