<svg width="84" height="76" viewBox="0 0 84 76" fill="none" xmlns="http://www.w3.org/2000/svg">
<path d="M76.8095 72.5795L8.02383 75.2117C6.93779 75.2533 5.85985 75.0095 4.8977 74.5047C3.93555 74 3.12291 73.2519 2.54092 72.3354C1.95894 71.4188 1.628 70.3657 1.5812 69.2814C1.5344 68.1971 1.77337 67.1195 2.27422 66.1563L34.3514 4.47561C34.857 3.50359 35.6114 2.68261 36.5377 2.09617C37.4641 1.50972 38.5295 1.17873 39.6256 1.13686C40.7216 1.09499 41.8092 1.34373 42.7778 1.85778C43.7464 2.37184 44.5613 3.13287 45.1398 4.06347L81.8493 63.1109C82.4226 64.0332 82.7435 65.0895 82.7799 66.1744C82.8163 67.2594 82.5669 68.3348 82.0566 69.2933C81.5464 70.2518 80.7931 71.0597 79.8721 71.6364C78.9511 72.2131 77.8948 72.5383 76.8085 72.5795H76.8095Z" fill="#7352FF" stroke="black" stroke-width="1.5" stroke-miterlimit="10"/>
<path d="M30.9153 52.8736H30.7736C29.7604 52.9218 28.7486 52.7544 27.8051 52.3825C26.8617 52.0106 26.0082 51.4427 25.3011 50.7165C24.8651 50.2434 24.6336 49.6177 24.6566 48.9752C24.6796 48.3327 24.9554 47.7252 25.4242 47.2844C25.8929 46.8437 26.5168 46.6053 27.1604 46.6209C27.8041 46.6366 28.4156 46.905 28.8622 47.368C29.1036 47.5903 29.3883 47.7604 29.6986 47.8674C30.009 47.9744 30.3381 48.0161 30.6654 47.9899C31.7052 47.9884 32.7052 47.5904 33.4609 46.8772C33.6694 46.6304 33.9249 46.4273 34.2125 46.2796C34.5001 46.132 34.8142 46.0428 35.1366 46.0172C35.459 45.9916 35.7833 46.0301 36.0906 46.1305C36.398 46.2308 36.6824 46.3911 36.9274 46.6019C37.1724 46.8128 37.373 47.07 37.5177 47.3588C37.6625 47.6476 37.7484 47.9622 37.7706 48.2844C37.7928 48.6066 37.7508 48.93 37.647 49.2358C37.5432 49.5417 37.3796 49.824 37.1659 50.0663C35.5366 51.7913 33.2888 52.8009 30.9153 52.8736Z" fill="white" stroke="#1D1D1B" stroke-width="1.5" stroke-linecap="round" stroke-linejoin="round"/>
<path d="M35.1716 51.2608C36.6089 51.2608 37.7739 50.0973 37.7739 48.6621C37.7739 47.2269 36.6089 46.0635 35.1716 46.0635C33.7344 46.0635 32.5693 47.2269 32.5693 48.6621C32.5693 50.0973 33.7344 51.2608 35.1716 51.2608Z" fill="#1D1D1B"/>
<path d="M51.8504 52.0724H51.7076C50.6946 52.1204 49.6829 51.9529 48.7395 51.5813C47.7961 51.2096 46.9425 50.6421 46.2352 49.9163C45.8052 49.4421 45.5786 48.8183 45.6041 48.179C45.6296 47.5398 45.9052 46.936 46.3716 46.4974C46.838 46.0588 47.4581 45.8204 48.0987 45.8334C48.7392 45.8464 49.3491 46.1097 49.7973 46.5668C50.0386 46.7891 50.3234 46.9591 50.6337 47.0662C50.9441 47.1732 51.2732 47.2149 51.6005 47.1887C52.64 47.1871 53.6396 46.7891 54.3949 46.076C54.6046 45.833 54.8602 45.6337 55.1471 45.4893C55.4339 45.3449 55.7464 45.2584 56.0668 45.2346C56.3871 45.2109 56.709 45.2503 57.0141 45.3508C57.3191 45.4513 57.6014 45.6108 57.8447 45.8201C58.0881 46.0295 58.2877 46.2848 58.4323 46.5712C58.5769 46.8577 58.6635 47.1697 58.6873 47.4896C58.7111 47.8095 58.6716 48.131 58.571 48.4356C58.4704 48.7402 58.3106 49.0221 58.101 49.2651C56.4716 50.9901 54.2239 51.9997 51.8504 52.0724Z" fill="white" stroke="#1D1D1B" stroke-width="1.5" stroke-linecap="round" stroke-linejoin="round"/>
<path d="M56.3292 50.4511C57.7664 50.4511 58.9315 49.2876 58.9315 47.8524C58.9315 46.4172 57.7664 45.2538 56.3292 45.2538C54.892 45.2538 53.7269 46.4172 53.7269 47.8524C53.7269 49.2876 54.892 50.4511 56.3292 50.4511Z" fill="#1D1D1B"/>
</svg>
