<svg width="70" height="70" viewBox="0 0 70 70" fill="none" xmlns="http://www.w3.org/2000/svg">
<path d="M64.4725 67.7312L7.00355 69.0766C5.79145 69.1036 4.61812 68.6489 3.74098 67.8121C2.86384 66.9753 2.35453 65.8249 2.32478 64.6131L0.978999 7.15854C0.95252 5.94672 1.40775 4.77384 2.24484 3.897C3.08193 3.02017 4.23259 2.51093 5.44463 2.48091L62.9125 1.13552C64.1248 1.10876 65.2982 1.56372 66.1755 2.40063C67.0528 3.23755 67.5623 4.38811 67.5923 5.60004L68.937 63.0536C68.964 64.2654 68.5092 65.4384 67.6722 66.3153C66.8352 67.1923 65.6845 67.7015 64.4725 67.7312Z" fill="#FF2E3F" stroke="black" stroke-width="1.5" stroke-miterlimit="10"/>
<path d="M27.7677 43.9052C27.703 41.1116 29.632 38.7993 32.0774 38.7421C34.5228 38.6848 36.5589 40.9038 36.6247 43.6985C36.6904 46.4932 34.5949 49.0875 32.3001 48.2404C29.0211 47.0339 27.8324 46.6999 27.7677 43.9052Z" fill="white" stroke="#1D1D1B" stroke-width="1.5" stroke-linecap="round" stroke-linejoin="round"/>
<path d="M33.1325 45.5041C34.9826 45.5041 36.4825 44.0046 36.4825 42.1549C36.4825 40.3051 34.9826 38.8057 33.1325 38.8057C31.2823 38.8057 29.7825 40.3051 29.7825 42.1549C29.7825 44.0046 31.2823 45.5041 33.1325 45.5041Z" fill="#1D1D1B"/>
<path d="M51.4821 43.3507C51.4163 40.556 49.3802 38.337 46.9347 38.3943C44.4893 38.4515 42.5592 40.7628 42.6249 43.5575C42.6907 46.3522 44.9039 48.8458 47.1574 47.8926C50.3749 46.5313 51.5468 46.1444 51.4821 43.3507Z" fill="white" stroke="#1D1D1B" stroke-width="1.5" stroke-linecap="round" stroke-linejoin="round"/>
<path d="M47.6547 45.1647C49.5049 45.1647 51.0047 43.6652 51.0047 41.8155C51.0047 39.9658 49.5049 38.4663 47.6547 38.4663C45.8045 38.4663 44.3047 39.9658 44.3047 41.8155C44.3047 43.6652 45.8045 45.1647 47.6547 45.1647Z" fill="#1D1D1B"/>
</svg>
