<svg width="48" height="111" viewBox="0 0 48 111" fill="none" xmlns="http://www.w3.org/2000/svg">
<path d="M27.3622 109.506C21.8361 109.817 16.4121 107.924 12.2803 104.242C8.14846 100.56 5.64624 95.3901 5.32249 89.8661L1.51751 23.5556C1.35127 20.8142 1.72787 18.067 2.62568 15.4714C3.52349 12.8758 4.92486 10.4829 6.7495 8.4298C8.57414 6.37672 10.7862 4.70386 13.2587 3.5071C15.7313 2.31035 18.4158 1.61325 21.1584 1.45574C23.901 1.29823 26.6477 1.68342 29.241 2.58923C31.8344 3.49504 34.2235 4.90366 36.2713 6.73434C38.3191 8.56502 39.9853 10.7818 41.1746 13.2575C42.3638 15.7332 43.0525 18.4193 43.2014 21.1616L47.0117 87.4721C47.323 92.9977 45.4289 98.421 41.7451 102.552C38.0612 106.683 32.8886 109.184 27.3622 109.506Z" fill="#89F798" stroke="#1D1D1B" stroke-width="1.5" stroke-linecap="round" stroke-linejoin="round"/>
<path d="M22.8465 68.4552C22.8929 67.8454 22.8083 67.2326 22.5984 66.6581C22.3886 66.0836 22.0584 65.5606 21.6298 65.1241C21.2013 64.6876 20.6843 64.3478 20.1136 64.1274C19.543 63.907 18.9318 63.8111 18.3211 63.8462C17.7103 63.8812 17.114 64.0464 16.5724 64.3307C16.0307 64.615 15.5561 65.0118 15.1803 65.4944C14.8046 65.9771 14.5364 66.5345 14.3937 67.1293C14.251 67.724 14.2372 68.3424 14.3532 68.9429C14.508 71.6221 16.7138 73.9428 18.8442 72.9547C21.8878 71.5436 23.0002 71.1344 22.8465 68.4552Z" fill="white" stroke="#1D1D1B" stroke-width="1.5" stroke-linecap="round" stroke-linejoin="round"/>
<path d="M19.7036 72.5094C21.436 72.5094 22.8405 71.1054 22.8405 69.3734C22.8405 67.6414 21.436 66.2373 19.7036 66.2373C17.9711 66.2373 16.5667 67.6414 16.5667 69.3734C16.5667 71.1054 17.9711 72.5094 19.7036 72.5094Z" fill="#1D1D1B"/>
<path d="M28.6029 68.1244C28.4876 67.5243 28.5019 66.9064 28.6448 66.3122C28.7878 65.718 29.0561 65.1612 29.4318 64.6791C29.8074 64.197 30.2818 63.8007 30.8231 63.5168C31.3644 63.2329 31.9602 63.0679 32.5704 63.0328C33.1807 62.9978 33.7915 63.0935 34.3617 63.3136C34.932 63.5337 35.4487 63.8731 35.8771 64.309C36.3055 64.7449 36.6358 65.2673 36.8458 65.8412C37.0559 66.4152 37.1409 67.0273 37.0951 67.6367C37.2489 70.3169 35.3241 72.8741 33.0939 72.1362C29.9083 71.0834 28.7567 70.8046 28.6029 68.1244Z" fill="white" stroke="#1D1D1B" stroke-width="1.5" stroke-linecap="round" stroke-linejoin="round"/>
<path d="M31.7748 71.8172C33.5073 71.8172 34.9117 70.4131 34.9117 68.6811C34.9117 66.9491 33.5073 65.545 31.7748 65.545C30.0424 65.545 28.6379 66.9491 28.6379 68.6811C28.6379 70.4131 30.0424 71.8172 31.7748 71.8172Z" fill="#1D1D1B"/>
</svg>
