<svg width="68" height="69" viewBox="0 0 68 69" fill="none" xmlns="http://www.w3.org/2000/svg">
<path d="M33.8591 67.6657C51.9924 67.6657 66.6924 52.8407 66.6924 34.5531C66.6924 16.2656 51.9924 1.44055 33.8591 1.44055C15.7258 1.44055 1.02588 16.2656 1.02588 34.5531C1.02588 52.8407 15.7258 67.6657 33.8591 67.6657Z" fill="#FFEE1A" stroke="#1D1D1B" stroke-width="1.5" stroke-linecap="round" stroke-linejoin="round"/>
<path d="M25.4357 36.469L21.0619 36.6871C20.4523 36.7301 19.8412 36.6316 19.2753 36.399C18.6414 36.1492 18.0897 35.7249 17.6834 35.1742C17.277 34.6236 17.0322 33.9689 16.977 33.2847C16.9596 32.6674 17.103 32.0563 17.3925 31.5122C17.682 30.968 18.1075 30.5098 18.6271 30.183C19.2371 29.7974 19.9386 29.5837 20.6583 29.5639L25.2131 29.3374C25.9315 29.2868 26.6502 29.431 27.2948 29.755C27.8439 30.0284 28.3124 30.4421 28.6535 30.955C28.9946 31.4679 29.1967 32.0621 29.2391 32.6782C29.2565 33.1705 29.1703 33.6609 28.9864 34.1172C28.8024 34.5735 28.5249 34.9854 28.1718 35.3258C27.4307 36.034 26.4563 36.4411 25.4357 36.469Z" fill="white" stroke="#1D1D1B" stroke-width="1.5" stroke-linecap="round" stroke-linejoin="round"/>
<path d="M25.8974 36.4104C27.8361 36.4104 29.4078 34.8254 29.4078 32.8702C29.4078 30.915 27.8361 29.33 25.8974 29.33C23.9587 29.33 22.3871 30.915 22.3871 32.8702C22.3871 34.8254 23.9587 36.4104 25.8974 36.4104Z" fill="#1D1D1B"/>
<path d="M48.1739 35.3393L43.8001 35.5564C43.1909 35.5998 42.5799 35.5015 42.0143 35.2693C41.3798 35.0204 40.8278 34.5962 40.4213 34.0454C40.0149 33.4946 39.7705 32.8394 39.7162 32.155C39.6984 31.5378 39.8413 30.9266 40.1307 30.3824C40.42 29.8382 40.8457 29.38 41.3653 29.0533C41.9753 28.6677 42.6766 28.454 43.3962 28.4342L47.9513 28.2077C48.6693 28.1573 49.3877 28.3015 50.032 28.6253C50.5811 28.8986 51.0496 29.3124 51.3907 29.8253C51.7318 30.3382 51.9336 30.9324 51.976 31.5485C51.9935 32.0407 51.9076 32.531 51.7238 32.9873C51.54 33.4436 51.2626 33.8556 50.9097 34.1961C50.1687 34.9043 49.1945 35.3114 48.1739 35.3393Z" fill="white" stroke="#1D1D1B" stroke-width="1.5" stroke-linecap="round" stroke-linejoin="round"/>
<path d="M48.6356 35.2797C50.5743 35.2797 52.1459 33.6947 52.1459 31.7395C52.1459 29.7843 50.5743 28.1993 48.6356 28.1993C46.6969 28.1993 45.1252 29.7843 45.1252 31.7395C45.1252 33.6947 46.6969 35.2797 48.6356 35.2797Z" fill="#1D1D1B"/>
</svg>
