<svg width="72" height="88" viewBox="0 0 72 88" fill="none" xmlns="http://www.w3.org/2000/svg">
<path d="M38.5577 85.6589L3.19104 51.4026C2.28583 50.6994 1.69657 49.6659 1.55244 48.5288C1.40831 47.3918 1.7211 46.244 2.42222 45.3372L28.129 3.34672C28.8327 2.44166 29.8666 1.85252 31.0041 1.70843C32.1416 1.56434 33.2899 1.87709 34.1971 2.5781L69.5636 36.8343C70.4689 37.5376 71.0581 38.5711 71.2022 39.7082C71.3464 40.8452 71.0336 41.993 70.3325 42.8998L44.6299 84.8903C43.9263 85.7968 42.8916 86.387 41.753 86.5311C40.6143 86.6752 39.4651 86.3615 38.5577 85.6589Z" fill="#FF6700" stroke="black" stroke-width="1.5" stroke-miterlimit="10"/>
<path d="M34.5778 49.1518C34.9046 49.1121 35.2161 48.9901 35.4829 48.7973C35.7497 48.6046 35.9633 48.3473 36.1036 48.0495C36.2438 47.7518 36.3062 47.4233 36.285 47.0949C36.2637 46.7664 36.1594 46.4487 35.9819 46.1716C35.3338 45.1905 34.4239 44.4105 33.3553 43.9197C32.2866 43.429 31.1018 43.2473 29.9352 43.395C28.7685 43.5428 27.6664 44.0141 26.7539 44.7557C25.8414 45.4973 25.1548 46.4796 24.7718 47.5912C24.669 47.904 24.6473 48.2377 24.7087 48.5611C24.77 48.8846 24.9125 49.1871 25.1227 49.4405C25.3329 49.6939 25.604 49.8898 25.9106 50.0099C26.2172 50.13 26.5493 50.1704 26.8757 50.1272L34.5778 49.1518Z" fill="white" stroke="#1D1D1B" stroke-width="1.5" stroke-linecap="round" stroke-linejoin="round"/>
<path d="M33.3732 49.6024C34.8825 49.6024 36.106 48.3791 36.106 46.8702C36.106 45.3613 34.8825 44.1381 33.3732 44.1381C31.8639 44.1381 30.6404 45.3613 30.6404 46.8702C30.6404 48.3791 31.8639 49.6024 33.3732 49.6024Z" fill="#1D1D1B"/>
<path d="M54.1571 46.673C54.4839 46.633 54.7952 46.5108 55.062 46.3179C55.3288 46.1251 55.5423 45.8677 55.6826 45.57C55.8229 45.2723 55.8855 44.9438 55.8645 44.6153C55.8434 44.2869 55.7394 43.9691 55.5623 43.6917C54.914 42.7107 54.004 41.9307 52.9353 41.4401C51.8665 40.9494 50.6817 40.7677 49.515 40.9154C48.3483 41.0631 47.2463 41.5345 46.3336 42.276C45.421 43.0176 44.7342 43.9997 44.351 45.1113C44.2486 45.4241 44.2272 45.7577 44.2887 46.0811C44.3502 46.4044 44.4926 46.7069 44.7028 46.9603C44.9129 47.2137 45.1839 47.4097 45.4903 47.53C45.7967 47.6503 46.1286 47.691 46.455 47.6484L54.1571 46.673Z" fill="white" stroke="#1D1D1B" stroke-width="1.5" stroke-linecap="round" stroke-linejoin="round"/>
<path d="M52.9537 47.1236C54.463 47.1236 55.6865 45.9004 55.6865 44.3915C55.6865 42.8825 54.463 41.6593 52.9537 41.6593C51.4444 41.6593 50.2209 42.8825 50.2209 44.3915C50.2209 45.9004 51.4444 47.1236 52.9537 47.1236Z" fill="#1D1D1B"/>
</svg>
