<svg width="193" height="225" viewBox="0 0 193 225" fill="none" xmlns="http://www.w3.org/2000/svg">
<path d="M192.233 29.7998H1V171.484H192.233V29.7998Z" stroke="black" stroke-width="1.5" stroke-linecap="round" stroke-linejoin="round"/>
<path d="M171.93 109.765V112.841H168.838" stroke="black" stroke-width="1.5" stroke-linecap="round" stroke-linejoin="round"/>
<path d="M162.557 112.841H27.5352" stroke="black" stroke-width="1.5" stroke-linecap="round" stroke-linejoin="round" stroke-dasharray="2.51 2.51"/>
<path d="M24.395 112.841H21.3032V109.765" stroke="black" stroke-width="1.5" stroke-linecap="round" stroke-linejoin="round"/>
<path d="M21.3032 103.562V7.41956" stroke="black" stroke-width="1.5" stroke-linecap="round" stroke-linejoin="round" stroke-dasharray="2.49 2.49"/>
<path d="M21.3032 4.31858V1.24219H24.395" stroke="black" stroke-width="1.5" stroke-linecap="round" stroke-linejoin="round"/>
<path d="M30.6748 1.24219H165.698" stroke="black" stroke-width="1.5" stroke-linecap="round" stroke-linejoin="round" stroke-dasharray="2.51 2.51"/>
<path d="M168.838 1.24219H171.93V4.31858" stroke="black" stroke-width="1.5" stroke-linecap="round" stroke-linejoin="round"/>
<path d="M171.93 10.5215V106.663" stroke="black" stroke-width="1.5" stroke-linecap="round" stroke-linejoin="round" stroke-dasharray="2.49 2.49"/>
<path d="M1 29.7999L21.3032 1.24219H171.929L192.233 29.7999H1Z" stroke="black" stroke-width="1.5" stroke-linecap="round" stroke-linejoin="round"/>
<path d="M90.5078 21.3672L94.6146 7.19556H98.8106L102.917 21.3672H90.5078Z" stroke="black" stroke-width="1.5" stroke-linecap="round" stroke-linejoin="round"/>
<path d="M1 171.484L21.3032 112.841H171.929L192.233 171.484H1Z" fill="black" stroke="black" stroke-width="1.5" stroke-linecap="round" stroke-linejoin="round"/>
<path d="M106.567 120.269L159.692 104.608L179.104 130.788L122.465 150.375L106.567 120.269Z" fill="white" stroke="black" stroke-width="1.5" stroke-linecap="round" stroke-linejoin="round"/>
<path d="M145.099 121.08L179.108 130.788L122.47 150.375L136.427 125.13C137.268 123.64 138.556 122.448 140.111 121.722C141.665 120.996 143.409 120.771 145.099 121.08Z" fill="white" stroke="black" stroke-width="1.5" stroke-linecap="round" stroke-linejoin="round"/>
<path d="M88.7316 144.745L25.662 156.362L21.5376 123.222L73.4812 119.492L88.7316 144.745Z" fill="white" stroke="black" stroke-width="1.5" stroke-linecap="round" stroke-linejoin="round"/>
<path d="M45.0677 136.152L21.5366 123.222L73.4784 119.492L56.2351 134.177C54.813 135.624 52.9719 136.592 50.9695 136.946C48.9671 137.3 46.9036 137.022 45.0677 136.152Z" fill="white" stroke="black" stroke-width="1.5" stroke-linecap="round" stroke-linejoin="round"/>
<path d="M117.185 147.854L56.418 128.412L72.0668 90.5603L130.742 105.899L117.185 147.854Z" fill="white" stroke="black" stroke-width="1.5" stroke-linecap="round" stroke-linejoin="round"/>
<path d="M88.494 117.08L72.0635 90.5603L130.738 105.899L97.7543 120.044C96.0929 120.571 94.3072 120.57 92.6469 120.038C90.9865 119.507 89.5346 118.472 88.494 117.08Z" fill="white" stroke="black" stroke-width="1.5" stroke-linecap="round" stroke-linejoin="round"/>
<path d="M93.2923 160.25H18.8804L29.5178 127.486L82.1919 127.946L93.2923 160.25Z" fill="white" stroke="black" stroke-width="1.5" stroke-linecap="round" stroke-linejoin="round"/>
<path d="M50.4138 144.31L29.5205 127.486L82.1946 127.946L61.7606 144.31C60.1055 145.488 58.1218 146.121 56.0872 146.121C54.0526 146.121 52.0689 145.488 50.4138 144.31Z" fill="white" stroke="black" stroke-width="1.5" stroke-linecap="round" stroke-linejoin="round"/>
<path d="M147.11 169.421L101.58 136.482L132.908 121.821L181.908 144.752L147.11 169.421Z" fill="white" stroke="black" stroke-width="1.5" stroke-linecap="round" stroke-linejoin="round"/>
<path d="M133.468 137.625L132.907 121.821L181.908 144.752L141.14 144.184C139.333 144.023 137.623 143.304 136.247 142.128C134.871 140.952 133.9 139.378 133.468 137.625Z" fill="white" stroke="black" stroke-width="1.5" stroke-linecap="round" stroke-linejoin="round"/>
<path d="M136.422 166.275L73.0117 150.899L79.0513 119.971L131.093 134.462L136.422 166.275Z" fill="white" stroke="black" stroke-width="1.5" stroke-linecap="round" stroke-linejoin="round"/>
<path d="M101.188 140.586L79.0513 119.971L131.093 134.463L112.026 143.909C110.097 144.549 108.015 144.572 106.072 143.976C104.129 143.381 102.421 142.195 101.188 140.586Z" fill="white" stroke="black" stroke-width="1.5" stroke-linecap="round" stroke-linejoin="round"/>
<circle cx="100.617" cy="185.863" r="37.75" fill="white" stroke="black" stroke-width="1.5"/>
<circle cx="100.617" cy="185.863" r="33.75" fill="black" stroke="black" stroke-width="1.5"/>
<path d="M85.8823 174.371V177.777C85.4344 177.293 85.0125 176.941 84.6167 176.723C84.174 176.509 83.7157 176.402 83.2417 176.402C82.3511 176.402 81.6245 176.707 81.062 177.316C80.8693 177.535 80.7131 177.764 80.5933 178.004C80.4735 178.238 80.3823 178.507 80.3198 178.809C80.2625 179.105 80.2339 179.408 80.2339 179.715C80.2339 180.632 80.5151 181.395 81.0776 182.004C81.6453 182.603 82.3667 182.902 83.2417 182.902C83.7104 182.902 84.1688 182.79 84.6167 182.566C85.0125 182.363 85.4344 182.014 85.8823 181.52V184.934C85.3042 185.204 84.812 185.384 84.4058 185.473C83.9006 185.592 83.4058 185.652 82.9214 185.652C82.3068 185.652 81.7287 185.577 81.187 185.426C80.6453 185.28 80.161 185.056 79.7339 184.754C78.8797 184.171 78.2287 183.452 77.7808 182.598C77.3328 181.712 77.1089 180.73 77.1089 179.652C77.1089 178.788 77.2547 177.993 77.5464 177.27C77.6766 176.921 77.8407 176.592 78.0386 176.285C78.2417 175.973 78.5021 175.65 78.8198 175.316C79.3667 174.754 79.9813 174.337 80.6636 174.066C81.3407 173.79 82.0933 173.652 82.9214 173.652C83.3953 173.652 83.8901 173.71 84.4058 173.824C84.9162 173.96 85.4084 174.142 85.8823 174.371ZM87.5229 185.363V173.254H90.312V185.363H87.5229ZM92.3823 185.363V177.473H95.1636V185.363H92.3823ZM92.7339 175.441H92.7495C92.7495 175.15 92.8511 174.91 93.0542 174.723C93.2573 174.52 93.5021 174.418 93.7886 174.418C94.0907 174.418 94.3381 174.514 94.5308 174.707C94.7287 174.9 94.8276 175.145 94.8276 175.441C94.8276 175.743 94.7261 175.993 94.5229 176.191C94.325 176.395 94.0802 176.496 93.7886 176.496C93.4917 176.496 93.2417 176.389 93.0386 176.176C92.8354 175.978 92.7339 175.733 92.7339 175.441ZM103.476 181.441C103.476 180.837 103.317 180.353 103 179.988C102.661 179.634 102.213 179.457 101.656 179.457C101.093 179.457 100.651 179.634 100.328 179.988C100.005 180.342 99.8433 180.827 99.8433 181.441C99.8433 182.046 100.005 182.533 100.328 182.902C100.645 183.251 101.088 183.426 101.656 183.426C102.218 183.426 102.666 183.251 103 182.902C103.317 182.538 103.476 182.051 103.476 181.441ZM105.945 188.848H103.273V185.488C103.273 185.301 103.283 185.046 103.304 184.723C103.32 184.441 103.341 184.228 103.367 184.082C103.018 184.665 102.643 185.072 102.242 185.301C101.809 185.546 101.268 185.668 100.617 185.668C99.5698 185.668 98.7209 185.277 98.0698 184.496C97.4084 183.71 97.0776 182.691 97.0776 181.441C97.0776 180.139 97.4084 179.111 98.0698 178.355C98.4032 177.975 98.7886 177.694 99.2261 177.512C99.6636 177.329 100.158 177.238 100.71 177.238C101.263 177.238 101.752 177.366 102.179 177.621C102.638 177.897 103.039 178.29 103.382 178.801V177.488L105.945 177.473V188.848ZM116.101 177.473V181.504C116.101 182.405 116.033 183.061 115.898 183.473C115.752 183.9 115.507 184.285 115.164 184.629C114.835 184.973 114.403 185.233 113.867 185.41C113.356 185.582 112.742 185.668 112.023 185.668C111.309 185.668 110.703 185.582 110.203 185.41C109.687 185.243 109.244 184.983 108.875 184.629C108.536 184.306 108.296 183.926 108.156 183.488C108.015 183.082 107.945 182.421 107.945 181.504V177.473H110.601V181.684C110.601 182.345 110.713 182.819 110.937 183.105C111.14 183.408 111.492 183.559 111.992 183.559C112.486 183.559 112.841 183.413 113.054 183.121C113.273 182.829 113.382 182.35 113.382 181.684V177.473H116.101ZM123.539 180.402C123.492 179.965 123.322 179.608 123.031 179.332C122.739 179.056 122.382 178.918 121.96 178.918C121.518 178.918 121.158 179.04 120.882 179.285C120.596 179.561 120.416 179.934 120.343 180.402H123.539ZM126.281 181.973H120.281C120.296 182.587 120.45 183.056 120.742 183.379C121.044 183.712 121.481 183.879 122.054 183.879C122.471 183.879 122.828 183.798 123.125 183.637C123.427 183.465 123.645 183.23 123.781 182.934L125.875 183.777C125.63 184.376 125.187 184.84 124.546 185.168C123.911 185.501 123.132 185.668 122.21 185.668C120.835 185.668 119.731 185.283 118.898 184.512C118.07 183.762 117.656 182.759 117.656 181.504C117.656 180.28 118.07 179.257 118.898 178.434C119.726 177.626 120.778 177.223 122.054 177.223C123.356 177.223 124.385 177.632 125.14 178.449C125.526 178.871 125.812 179.363 126 179.926C126.187 180.483 126.281 181.121 126.281 181.84V181.973ZM93.8901 201.363V193.473H96.6714V201.363H93.8901ZM94.2417 191.441H94.2573C94.2573 191.15 94.3589 190.91 94.562 190.723C94.7651 190.52 95.0099 190.418 95.2964 190.418C95.5985 190.418 95.8459 190.514 96.0386 190.707C96.2365 190.9 96.3354 191.145 96.3354 191.441C96.3354 191.743 96.2339 191.993 96.0308 192.191C95.8328 192.395 95.5881 192.496 95.2964 192.496C94.9995 192.496 94.7495 192.389 94.5464 192.176C94.3433 191.978 94.2417 191.733 94.2417 191.441ZM104.617 196.066C104.346 195.827 104.085 195.652 103.835 195.543C103.611 195.434 103.348 195.379 103.046 195.379C102.489 195.379 102.052 195.561 101.734 195.926C101.406 196.285 101.242 196.78 101.242 197.41C101.242 198.014 101.411 198.493 101.75 198.848C102.078 199.212 102.533 199.395 103.117 199.395C103.393 199.395 103.658 199.337 103.914 199.223C104.184 199.092 104.419 198.921 104.617 198.707V201.121C104.283 201.298 103.947 201.439 103.609 201.543C103.25 201.626 102.908 201.668 102.585 201.668C101.367 201.668 100.385 201.277 99.6401 200.496C99.3849 200.236 99.174 199.949 99.0073 199.637C98.8459 199.324 98.7209 198.986 98.6323 198.621C98.549 198.257 98.5073 197.858 98.5073 197.426C98.5073 196.181 98.8875 195.171 99.6479 194.395C100.414 193.613 101.403 193.223 102.617 193.223C102.997 193.223 103.359 193.264 103.703 193.348C104.036 193.431 104.341 193.553 104.617 193.715V196.066ZM106.265 201.363V193.473H109.046V201.363H106.265ZM106.617 191.441H106.632C106.632 191.15 106.734 190.91 106.937 190.723C107.14 190.52 107.385 190.418 107.671 190.418C107.973 190.418 108.221 190.514 108.414 190.707C108.611 190.9 108.71 191.145 108.71 191.441C108.71 191.743 108.609 191.993 108.406 192.191C108.208 192.395 107.963 192.496 107.671 192.496C107.375 192.496 107.125 192.389 106.921 192.176C106.718 191.978 106.617 191.733 106.617 191.441Z" fill="white"/>
</svg>
