<svg width="193" height="225" viewBox="0 0 193 225" fill="none" xmlns="http://www.w3.org/2000/svg">
<path d="M192.233 30.1631H1V171.847H192.233V30.1631Z" stroke="black" stroke-width="1.5" stroke-linecap="round" stroke-linejoin="round"/>
<path d="M171.93 110.128V113.205H168.838" stroke="black" stroke-width="1.5" stroke-linecap="round" stroke-linejoin="round"/>
<path d="M162.557 113.205H27.5352" stroke="black" stroke-width="1.5" stroke-linecap="round" stroke-linejoin="round" stroke-dasharray="2.51 2.51"/>
<path d="M24.395 113.205H21.3032V110.128" stroke="black" stroke-width="1.5" stroke-linecap="round" stroke-linejoin="round"/>
<path d="M21.3032 103.925V7.78284" stroke="black" stroke-width="1.5" stroke-linecap="round" stroke-linejoin="round" stroke-dasharray="2.49 2.49"/>
<path d="M21.3032 4.68186V1.60547H24.395" stroke="black" stroke-width="1.5" stroke-linecap="round" stroke-linejoin="round"/>
<path d="M30.6748 1.60547H165.698" stroke="black" stroke-width="1.5" stroke-linecap="round" stroke-linejoin="round" stroke-dasharray="2.51 2.51"/>
<path d="M168.838 1.60547H171.93V4.68186" stroke="black" stroke-width="1.5" stroke-linecap="round" stroke-linejoin="round"/>
<path d="M171.93 10.8848V107.026" stroke="black" stroke-width="1.5" stroke-linecap="round" stroke-linejoin="round" stroke-dasharray="2.49 2.49"/>
<path d="M1 30.1631L21.3032 1.60547H171.929L192.233 30.1631H1Z" stroke="black" stroke-width="1.5" stroke-linecap="round" stroke-linejoin="round"/>
<path d="M90.5078 21.7304L94.6146 7.55884H98.8106L102.917 21.7304H90.5078Z" stroke="black" stroke-width="1.5" stroke-linecap="round" stroke-linejoin="round"/>
<path d="M1 171.848L21.3032 113.205H171.929L192.233 171.848H1Z" fill="black" stroke="black" stroke-width="1.5" stroke-linecap="round" stroke-linejoin="round"/>
<path d="M93.2923 160.614H18.8804L29.5178 127.849L82.1919 128.309L93.2923 160.614Z" fill="white" stroke="black" stroke-width="1.5" stroke-linecap="round" stroke-linejoin="round"/>
<path d="M50.4138 144.674L29.5205 127.849L82.1946 128.309L61.7606 144.674C60.1055 145.851 58.1218 146.484 56.0872 146.484C54.0526 146.484 52.0689 145.851 50.4138 144.674Z" fill="white" stroke="black" stroke-width="1.5" stroke-linecap="round" stroke-linejoin="round"/>
<path d="M147.11 169.785L101.58 136.845L132.908 122.184L181.908 145.115L147.11 169.785Z" fill="white" stroke="black" stroke-width="1.5" stroke-linecap="round" stroke-linejoin="round"/>
<path d="M133.468 137.989L132.907 122.184L181.908 145.115L141.14 144.547C139.333 144.386 137.623 143.668 136.247 142.492C134.871 141.316 133.9 139.741 133.468 137.989Z" fill="white" stroke="black" stroke-width="1.5" stroke-linecap="round" stroke-linejoin="round"/>
<path d="M136.422 166.638L73.0117 151.262L79.0513 120.334L131.093 134.826L136.422 166.638Z" fill="white" stroke="black" stroke-width="1.5" stroke-linecap="round" stroke-linejoin="round"/>
<path d="M101.188 140.949L79.0513 120.334L131.093 134.826L112.026 144.273C110.097 144.912 108.015 144.936 106.072 144.34C104.129 143.744 102.421 142.558 101.188 140.949Z" fill="white" stroke="black" stroke-width="1.5" stroke-linecap="round" stroke-linejoin="round"/>
<circle cx="100.617" cy="186.227" r="37.75" fill="white" stroke="black" stroke-width="1.5"/>
<circle cx="100.617" cy="186.227" r="33.75" fill="black" stroke="black" stroke-width="1.5"/>
<path d="M85.8823 174.734V178.141C85.4344 177.656 85.0125 177.305 84.6167 177.086C84.174 176.872 83.7157 176.766 83.2417 176.766C82.3511 176.766 81.6245 177.07 81.062 177.68C80.8693 177.898 80.7131 178.128 80.5933 178.367C80.4735 178.602 80.3823 178.87 80.3198 179.172C80.2625 179.469 80.2339 179.771 80.2339 180.078C80.2339 180.995 80.5151 181.758 81.0776 182.367C81.6453 182.966 82.3667 183.266 83.2417 183.266C83.7104 183.266 84.1688 183.154 84.6167 182.93C85.0125 182.727 85.4344 182.378 85.8823 181.883V185.297C85.3042 185.568 84.812 185.747 84.4058 185.836C83.9006 185.956 83.4058 186.016 82.9214 186.016C82.3068 186.016 81.7287 185.94 81.187 185.789C80.6453 185.643 80.161 185.419 79.7339 185.117C78.8797 184.534 78.2287 183.815 77.7808 182.961C77.3328 182.076 77.1089 181.094 77.1089 180.016C77.1089 179.151 77.2547 178.357 77.5464 177.633C77.6766 177.284 77.8407 176.956 78.0386 176.648C78.2417 176.336 78.5021 176.013 78.8198 175.68C79.3667 175.117 79.9813 174.701 80.6636 174.43C81.3407 174.154 82.0933 174.016 82.9214 174.016C83.3953 174.016 83.8901 174.073 84.4058 174.188C84.9162 174.323 85.4084 174.505 85.8823 174.734ZM87.5229 185.727V173.617H90.312V185.727H87.5229ZM92.3823 185.727V177.836H95.1636V185.727H92.3823ZM92.7339 175.805H92.7495C92.7495 175.513 92.8511 175.273 93.0542 175.086C93.2573 174.883 93.5021 174.781 93.7886 174.781C94.0907 174.781 94.3381 174.878 94.5308 175.07C94.7287 175.263 94.8276 175.508 94.8276 175.805C94.8276 176.107 94.7261 176.357 94.5229 176.555C94.325 176.758 94.0802 176.859 93.7886 176.859C93.4917 176.859 93.2417 176.753 93.0386 176.539C92.8354 176.341 92.7339 176.096 92.7339 175.805ZM103.476 181.805C103.476 181.201 103.317 180.716 103 180.352C102.661 179.997 102.213 179.82 101.656 179.82C101.093 179.82 100.651 179.997 100.328 180.352C100.005 180.706 99.8433 181.19 99.8433 181.805C99.8433 182.409 100.005 182.896 100.328 183.266C100.645 183.615 101.088 183.789 101.656 183.789C102.218 183.789 102.666 183.615 103 183.266C103.317 182.901 103.476 182.414 103.476 181.805ZM105.945 189.211H103.273V185.852C103.273 185.664 103.283 185.409 103.304 185.086C103.32 184.805 103.341 184.591 103.367 184.445C103.018 185.029 102.643 185.435 102.242 185.664C101.809 185.909 101.268 186.031 100.617 186.031C99.5698 186.031 98.7209 185.641 98.0698 184.859C97.4084 184.073 97.0776 183.055 97.0776 181.805C97.0776 180.503 97.4084 179.474 98.0698 178.719C98.4032 178.339 98.7886 178.057 99.2261 177.875C99.6636 177.693 100.158 177.602 100.71 177.602C101.263 177.602 101.752 177.729 102.179 177.984C102.638 178.26 103.039 178.654 103.382 179.164V177.852L105.945 177.836V189.211ZM116.101 177.836V181.867C116.101 182.768 116.033 183.424 115.898 183.836C115.752 184.263 115.507 184.648 115.164 184.992C114.835 185.336 114.403 185.596 113.867 185.773C113.356 185.945 112.742 186.031 112.023 186.031C111.309 186.031 110.703 185.945 110.203 185.773C109.687 185.607 109.244 185.346 108.875 184.992C108.536 184.669 108.296 184.289 108.156 183.852C108.015 183.445 107.945 182.784 107.945 181.867V177.836H110.601V182.047C110.601 182.708 110.713 183.182 110.937 183.469C111.14 183.771 111.492 183.922 111.992 183.922C112.486 183.922 112.841 183.776 113.054 183.484C113.273 183.193 113.382 182.714 113.382 182.047V177.836H116.101ZM123.539 180.766C123.492 180.328 123.322 179.971 123.031 179.695C122.739 179.419 122.382 179.281 121.96 179.281C121.518 179.281 121.158 179.404 120.882 179.648C120.596 179.924 120.416 180.297 120.343 180.766H123.539ZM126.281 182.336H120.281C120.296 182.951 120.45 183.419 120.742 183.742C121.044 184.076 121.481 184.242 122.054 184.242C122.471 184.242 122.828 184.161 123.125 184C123.427 183.828 123.645 183.594 123.781 183.297L125.875 184.141C125.63 184.74 125.187 185.203 124.546 185.531C123.911 185.865 123.132 186.031 122.21 186.031C120.835 186.031 119.731 185.646 118.898 184.875C118.07 184.125 117.656 183.122 117.656 181.867C117.656 180.643 118.07 179.62 118.898 178.797C119.726 177.99 120.778 177.586 122.054 177.586C123.356 177.586 124.385 177.995 125.14 178.812C125.526 179.234 125.812 179.727 126 180.289C126.187 180.846 126.281 181.484 126.281 182.203V182.336ZM93.8901 201.727V193.836H96.6714V201.727H93.8901ZM94.2417 191.805H94.2573C94.2573 191.513 94.3589 191.273 94.562 191.086C94.7651 190.883 95.0099 190.781 95.2964 190.781C95.5985 190.781 95.8459 190.878 96.0386 191.07C96.2365 191.263 96.3354 191.508 96.3354 191.805C96.3354 192.107 96.2339 192.357 96.0308 192.555C95.8328 192.758 95.5881 192.859 95.2964 192.859C94.9995 192.859 94.7495 192.753 94.5464 192.539C94.3433 192.341 94.2417 192.096 94.2417 191.805ZM104.617 196.43C104.346 196.19 104.085 196.016 103.835 195.906C103.611 195.797 103.348 195.742 103.046 195.742C102.489 195.742 102.052 195.924 101.734 196.289C101.406 196.648 101.242 197.143 101.242 197.773C101.242 198.378 101.411 198.857 101.75 199.211C102.078 199.576 102.533 199.758 103.117 199.758C103.393 199.758 103.658 199.701 103.914 199.586C104.184 199.456 104.419 199.284 104.617 199.07V201.484C104.283 201.661 103.947 201.802 103.609 201.906C103.25 201.99 102.908 202.031 102.585 202.031C101.367 202.031 100.385 201.641 99.6401 200.859C99.3849 200.599 99.174 200.312 99.0073 200C98.8459 199.688 98.7209 199.349 98.6323 198.984C98.549 198.62 98.5073 198.221 98.5073 197.789C98.5073 196.544 98.8875 195.534 99.6479 194.758C100.414 193.977 101.403 193.586 102.617 193.586C102.997 193.586 103.359 193.628 103.703 193.711C104.036 193.794 104.341 193.917 104.617 194.078V196.43ZM106.265 201.727V193.836H109.046V201.727H106.265ZM106.617 191.805H106.632C106.632 191.513 106.734 191.273 106.937 191.086C107.14 190.883 107.385 190.781 107.671 190.781C107.973 190.781 108.221 190.878 108.414 191.07C108.611 191.263 108.71 191.508 108.71 191.805C108.71 192.107 108.609 192.357 108.406 192.555C108.208 192.758 107.963 192.859 107.671 192.859C107.375 192.859 107.125 192.753 106.921 192.539C106.718 192.341 106.617 192.096 106.617 191.805Z" fill="white"/>
</svg>
