<svg width="193" height="225" viewBox="0 0 193 225" fill="none" xmlns="http://www.w3.org/2000/svg">
<path d="M192.233 30.2842H1V171.969H192.233V30.2842Z" stroke="black" stroke-width="1.5" stroke-linecap="round" stroke-linejoin="round"/>
<path d="M171.93 110.249V113.326H168.838" stroke="black" stroke-width="1.5" stroke-linecap="round" stroke-linejoin="round"/>
<path d="M162.557 113.326H27.5352" stroke="black" stroke-width="1.5" stroke-linecap="round" stroke-linejoin="round" stroke-dasharray="2.51 2.51"/>
<path d="M24.395 113.326H21.3032V110.249" stroke="black" stroke-width="1.5" stroke-linecap="round" stroke-linejoin="round"/>
<path d="M21.3032 104.046V7.90393" stroke="black" stroke-width="1.5" stroke-linecap="round" stroke-linejoin="round" stroke-dasharray="2.49 2.49"/>
<path d="M21.3032 4.80295V1.72656H24.395" stroke="black" stroke-width="1.5" stroke-linecap="round" stroke-linejoin="round"/>
<path d="M30.6748 1.72656H165.698" stroke="black" stroke-width="1.5" stroke-linecap="round" stroke-linejoin="round" stroke-dasharray="2.51 2.51"/>
<path d="M168.838 1.72656H171.93V4.80295" stroke="black" stroke-width="1.5" stroke-linecap="round" stroke-linejoin="round"/>
<path d="M171.93 11.0059V107.147" stroke="black" stroke-width="1.5" stroke-linecap="round" stroke-linejoin="round" stroke-dasharray="2.49 2.49"/>
<path d="M1 30.2842L21.3032 1.72656H171.929L192.233 30.2842H1Z" stroke="black" stroke-width="1.5" stroke-linecap="round" stroke-linejoin="round"/>
<path d="M90.5078 21.8515L94.6146 7.67993H98.8106L102.917 21.8515H90.5078Z" stroke="black" stroke-width="1.5" stroke-linecap="round" stroke-linejoin="round"/>
<path d="M1 171.969L21.3032 113.326H171.929L192.233 171.969H1Z" fill="black" stroke="black" stroke-width="1.5" stroke-linecap="round" stroke-linejoin="round"/>
<path d="M93.2923 160.735H18.8804L29.5178 127.97L82.1919 128.43L93.2923 160.735Z" fill="white" stroke="black" stroke-width="1.5" stroke-linecap="round" stroke-linejoin="round"/>
<path d="M50.4138 144.795L29.5205 127.97L82.1946 128.43L61.7606 144.795C60.1055 145.972 58.1218 146.605 56.0872 146.605C54.0526 146.605 52.0689 145.972 50.4138 144.795Z" fill="white" stroke="black" stroke-width="1.5" stroke-linecap="round" stroke-linejoin="round"/>
<path d="M147.11 169.906L101.58 136.966L132.908 122.305L181.908 145.237L147.11 169.906Z" fill="white" stroke="black" stroke-width="1.5" stroke-linecap="round" stroke-linejoin="round"/>
<path d="M133.468 138.11L132.907 122.305L181.908 145.237L141.14 144.668C139.333 144.507 137.623 143.789 136.247 142.613C134.871 141.437 133.9 139.862 133.468 138.11Z" fill="white" stroke="black" stroke-width="1.5" stroke-linecap="round" stroke-linejoin="round"/>
<circle cx="100.617" cy="186.348" r="37.75" fill="white" stroke="black" stroke-width="1.5"/>
<circle cx="100.617" cy="186.348" r="33.75" fill="black" stroke="black" stroke-width="1.5"/>
<path d="M85.8823 174.855V178.262C85.4344 177.777 85.0125 177.426 84.6167 177.207C84.174 176.993 83.7157 176.887 83.2417 176.887C82.3511 176.887 81.6245 177.191 81.062 177.801C80.8693 178.02 80.7131 178.249 80.5933 178.488C80.4735 178.723 80.3823 178.991 80.3198 179.293C80.2625 179.59 80.2339 179.892 80.2339 180.199C80.2339 181.116 80.5151 181.879 81.0776 182.488C81.6453 183.087 82.3667 183.387 83.2417 183.387C83.7104 183.387 84.1688 183.275 84.6167 183.051C85.0125 182.848 85.4344 182.499 85.8823 182.004V185.418C85.3042 185.689 84.812 185.868 84.4058 185.957C83.9006 186.077 83.4058 186.137 82.9214 186.137C82.3068 186.137 81.7287 186.061 81.187 185.91C80.6453 185.764 80.161 185.54 79.7339 185.238C78.8797 184.655 78.2287 183.936 77.7808 183.082C77.3328 182.197 77.1089 181.215 77.1089 180.137C77.1089 179.272 77.2547 178.478 77.5464 177.754C77.6766 177.405 77.8407 177.077 78.0386 176.77C78.2417 176.457 78.5021 176.134 78.8198 175.801C79.3667 175.238 79.9813 174.822 80.6636 174.551C81.3407 174.275 82.0933 174.137 82.9214 174.137C83.3953 174.137 83.8901 174.194 84.4058 174.309C84.9162 174.444 85.4084 174.626 85.8823 174.855ZM87.5229 185.848V173.738H90.312V185.848H87.5229ZM92.3823 185.848V177.957H95.1636V185.848H92.3823ZM92.7339 175.926H92.7495C92.7495 175.634 92.8511 175.395 93.0542 175.207C93.2573 175.004 93.5021 174.902 93.7886 174.902C94.0907 174.902 94.3381 174.999 94.5308 175.191C94.7287 175.384 94.8276 175.629 94.8276 175.926C94.8276 176.228 94.7261 176.478 94.5229 176.676C94.325 176.879 94.0802 176.98 93.7886 176.98C93.4917 176.98 93.2417 176.874 93.0386 176.66C92.8354 176.462 92.7339 176.217 92.7339 175.926ZM103.476 181.926C103.476 181.322 103.317 180.837 103 180.473C102.661 180.118 102.213 179.941 101.656 179.941C101.093 179.941 100.651 180.118 100.328 180.473C100.005 180.827 99.8433 181.311 99.8433 181.926C99.8433 182.53 100.005 183.017 100.328 183.387C100.645 183.736 101.088 183.91 101.656 183.91C102.218 183.91 102.666 183.736 103 183.387C103.317 183.022 103.476 182.535 103.476 181.926ZM105.945 189.332H103.273V185.973C103.273 185.785 103.283 185.53 103.304 185.207C103.32 184.926 103.341 184.712 103.367 184.566C103.018 185.15 102.643 185.556 102.242 185.785C101.809 186.03 101.268 186.152 100.617 186.152C99.5698 186.152 98.7209 185.762 98.0698 184.98C97.4084 184.194 97.0776 183.176 97.0776 181.926C97.0776 180.624 97.4084 179.595 98.0698 178.84C98.4032 178.46 98.7886 178.178 99.2261 177.996C99.6636 177.814 100.158 177.723 100.71 177.723C101.263 177.723 101.752 177.85 102.179 178.105C102.638 178.382 103.039 178.775 103.382 179.285V177.973L105.945 177.957V189.332ZM116.101 177.957V181.988C116.101 182.889 116.033 183.546 115.898 183.957C115.752 184.384 115.507 184.77 115.164 185.113C114.835 185.457 114.403 185.717 113.867 185.895C113.356 186.066 112.742 186.152 112.023 186.152C111.309 186.152 110.703 186.066 110.203 185.895C109.687 185.728 109.244 185.467 108.875 185.113C108.536 184.79 108.296 184.41 108.156 183.973C108.015 183.566 107.945 182.905 107.945 181.988V177.957H110.601V182.168C110.601 182.829 110.713 183.303 110.937 183.59C111.14 183.892 111.492 184.043 111.992 184.043C112.486 184.043 112.841 183.897 113.054 183.605C113.273 183.314 113.382 182.835 113.382 182.168V177.957H116.101ZM123.539 180.887C123.492 180.449 123.322 180.092 123.031 179.816C122.739 179.54 122.382 179.402 121.96 179.402C121.518 179.402 121.158 179.525 120.882 179.77C120.596 180.046 120.416 180.418 120.343 180.887H123.539ZM126.281 182.457H120.281C120.296 183.072 120.45 183.54 120.742 183.863C121.044 184.197 121.481 184.363 122.054 184.363C122.471 184.363 122.828 184.283 123.125 184.121C123.427 183.949 123.645 183.715 123.781 183.418L125.875 184.262C125.63 184.861 125.187 185.324 124.546 185.652C123.911 185.986 123.132 186.152 122.21 186.152C120.835 186.152 119.731 185.767 118.898 184.996C118.07 184.246 117.656 183.243 117.656 181.988C117.656 180.764 118.07 179.741 118.898 178.918C119.726 178.111 120.778 177.707 122.054 177.707C123.356 177.707 124.385 178.116 125.14 178.934C125.526 179.355 125.812 179.848 126 180.41C126.187 180.967 126.281 181.605 126.281 182.324V182.457ZM93.8901 201.848V193.957H96.6714V201.848H93.8901ZM94.2417 191.926H94.2573C94.2573 191.634 94.3589 191.395 94.562 191.207C94.7651 191.004 95.0099 190.902 95.2964 190.902C95.5985 190.902 95.8459 190.999 96.0386 191.191C96.2365 191.384 96.3354 191.629 96.3354 191.926C96.3354 192.228 96.2339 192.478 96.0308 192.676C95.8328 192.879 95.5881 192.98 95.2964 192.98C94.9995 192.98 94.7495 192.874 94.5464 192.66C94.3433 192.462 94.2417 192.217 94.2417 191.926ZM104.617 196.551C104.346 196.311 104.085 196.137 103.835 196.027C103.611 195.918 103.348 195.863 103.046 195.863C102.489 195.863 102.052 196.046 101.734 196.41C101.406 196.77 101.242 197.264 101.242 197.895C101.242 198.499 101.411 198.978 101.75 199.332C102.078 199.697 102.533 199.879 103.117 199.879C103.393 199.879 103.658 199.822 103.914 199.707C104.184 199.577 104.419 199.405 104.617 199.191V201.605C104.283 201.783 103.947 201.923 103.609 202.027C103.25 202.111 102.908 202.152 102.585 202.152C101.367 202.152 100.385 201.762 99.6401 200.98C99.3849 200.72 99.174 200.434 99.0073 200.121C98.8459 199.809 98.7209 199.47 98.6323 199.105C98.549 198.741 98.5073 198.342 98.5073 197.91C98.5073 196.665 98.8875 195.655 99.6479 194.879C100.414 194.098 101.403 193.707 102.617 193.707C102.997 193.707 103.359 193.749 103.703 193.832C104.036 193.915 104.341 194.038 104.617 194.199V196.551ZM106.265 201.848V193.957H109.046V201.848H106.265ZM106.617 191.926H106.632C106.632 191.634 106.734 191.395 106.937 191.207C107.14 191.004 107.385 190.902 107.671 190.902C107.973 190.902 108.221 190.999 108.414 191.191C108.611 191.384 108.71 191.629 108.71 191.926C108.71 192.228 108.609 192.478 108.406 192.676C108.208 192.879 107.963 192.98 107.671 192.98C107.375 192.98 107.125 192.874 106.921 192.66C106.718 192.462 106.617 192.217 106.617 191.926Z" fill="white"/>
</svg>
