<svg width="193" height="225" viewBox="0 0 193 225" fill="none" xmlns="http://www.w3.org/2000/svg">
<path d="M192.233 29.6787H1V171.363H192.233V29.6787Z" stroke="black" stroke-width="1.5" stroke-linecap="round" stroke-linejoin="round"/>
<path d="M171.93 109.644V112.72H168.838" stroke="black" stroke-width="1.5" stroke-linecap="round" stroke-linejoin="round"/>
<path d="M162.557 112.72H27.5352" stroke="black" stroke-width="1.5" stroke-linecap="round" stroke-linejoin="round" stroke-dasharray="2.51 2.51"/>
<path d="M24.395 112.72H21.3032V109.644" stroke="black" stroke-width="1.5" stroke-linecap="round" stroke-linejoin="round"/>
<path d="M21.3032 103.441V7.29846" stroke="black" stroke-width="1.5" stroke-linecap="round" stroke-linejoin="round" stroke-dasharray="2.49 2.49"/>
<path d="M21.3032 4.19748V1.12109H24.395" stroke="black" stroke-width="1.5" stroke-linecap="round" stroke-linejoin="round"/>
<path d="M30.6748 1.12109H165.698" stroke="black" stroke-width="1.5" stroke-linecap="round" stroke-linejoin="round" stroke-dasharray="2.51 2.51"/>
<path d="M168.838 1.12109H171.93V4.19748" stroke="black" stroke-width="1.5" stroke-linecap="round" stroke-linejoin="round"/>
<path d="M171.93 10.4004V106.542" stroke="black" stroke-width="1.5" stroke-linecap="round" stroke-linejoin="round" stroke-dasharray="2.49 2.49"/>
<path d="M1 29.6788L21.3032 1.12109H171.929L192.233 29.6788H1Z" stroke="black" stroke-width="1.5" stroke-linecap="round" stroke-linejoin="round"/>
<path d="M90.5078 21.2461L94.6146 7.07446H98.8106L102.917 21.2461H90.5078Z" stroke="black" stroke-width="1.5" stroke-linecap="round" stroke-linejoin="round"/>
<path d="M1 171.363L21.3032 112.72H171.929L192.233 171.363H1Z" fill="black" stroke="black" stroke-width="1.5" stroke-linecap="round" stroke-linejoin="round"/>
<path d="M106.567 120.148L159.692 104.487L179.104 130.667L122.465 150.254L106.567 120.148Z" fill="white" stroke="black" stroke-width="1.5" stroke-linecap="round" stroke-linejoin="round"/>
<path d="M145.099 120.959L179.108 130.667L122.47 150.254L136.427 125.009C137.268 123.519 138.556 122.327 140.111 121.601C141.665 120.875 143.409 120.65 145.099 120.959Z" fill="white" stroke="black" stroke-width="1.5" stroke-linecap="round" stroke-linejoin="round"/>
<path d="M130.261 147.568L73.9082 117.737L96.0391 83.2361L151.062 108.661L130.261 147.568Z" fill="white" stroke="black" stroke-width="1.5" stroke-linecap="round" stroke-linejoin="round"/>
<path d="M107.493 112.23L96.0371 83.237L151.06 108.661L116.079 116.777C114.35 117.004 112.593 116.688 111.053 115.872C109.514 115.057 108.269 113.784 107.493 112.23Z" fill="white" stroke="black" stroke-width="1.5" stroke-linecap="round" stroke-linejoin="round"/>
<path d="M88.7316 144.624L25.662 156.241L21.5376 123.101L73.4812 119.371L88.7316 144.624Z" fill="white" stroke="black" stroke-width="1.5" stroke-linecap="round" stroke-linejoin="round"/>
<path d="M45.0677 136.03L21.5366 123.101L73.4784 119.371L56.2351 134.056C54.813 135.503 52.9719 136.471 50.9695 136.825C48.9671 137.179 46.9036 136.901 45.0677 136.03Z" fill="white" stroke="black" stroke-width="1.5" stroke-linecap="round" stroke-linejoin="round"/>
<path d="M117.185 147.733L56.418 128.291L72.0668 90.4392L130.742 105.778L117.185 147.733Z" fill="white" stroke="black" stroke-width="1.5" stroke-linecap="round" stroke-linejoin="round"/>
<path d="M88.494 116.959L72.0635 90.4392L130.738 105.778L97.7543 119.922C96.0929 120.45 94.3072 120.449 92.6469 119.917C90.9865 119.386 89.5346 118.351 88.494 116.959Z" fill="white" stroke="black" stroke-width="1.5" stroke-linecap="round" stroke-linejoin="round"/>
<path d="M93.2923 160.129H18.8804L29.5178 127.365L82.1919 127.824L93.2923 160.129Z" fill="white" stroke="black" stroke-width="1.5" stroke-linecap="round" stroke-linejoin="round"/>
<path d="M50.4138 144.189L29.5205 127.365L82.1946 127.825L61.7606 144.189C60.1055 145.367 58.1218 146 56.0872 146C54.0526 146 52.0689 145.367 50.4138 144.189Z" fill="white" stroke="black" stroke-width="1.5" stroke-linecap="round" stroke-linejoin="round"/>
<path d="M147.11 169.3L101.58 136.361L132.908 121.7L181.908 144.631L147.11 169.3Z" fill="white" stroke="black" stroke-width="1.5" stroke-linecap="round" stroke-linejoin="round"/>
<path d="M133.468 137.504L132.907 121.7L181.908 144.631L141.14 144.062C139.333 143.902 137.623 143.183 136.247 142.007C134.871 140.831 133.9 139.257 133.468 137.504Z" fill="white" stroke="black" stroke-width="1.5" stroke-linecap="round" stroke-linejoin="round"/>
<path d="M136.422 166.154L73.0117 150.778L79.0513 119.85L131.093 134.341L136.422 166.154Z" fill="white" stroke="black" stroke-width="1.5" stroke-linecap="round" stroke-linejoin="round"/>
<path d="M101.188 140.465L79.0513 119.85L131.093 134.342L112.026 143.788C110.097 144.428 108.015 144.451 106.072 143.855C104.129 143.259 102.421 142.074 101.188 140.465Z" fill="white" stroke="black" stroke-width="1.5" stroke-linecap="round" stroke-linejoin="round"/>
<circle cx="100.617" cy="185.742" r="37.75" fill="white" stroke="black" stroke-width="1.5"/>
<circle cx="100.617" cy="185.742" r="33.75" fill="black" stroke="black" stroke-width="1.5"/>
<path d="M85.8823 174.25V177.656C85.4344 177.172 85.0125 176.82 84.6167 176.602C84.174 176.388 83.7157 176.281 83.2417 176.281C82.3511 176.281 81.6245 176.586 81.062 177.195C80.8693 177.414 80.7131 177.643 80.5933 177.883C80.4735 178.117 80.3823 178.385 80.3198 178.688C80.2625 178.984 80.2339 179.286 80.2339 179.594C80.2339 180.51 80.5151 181.273 81.0776 181.883C81.6453 182.482 82.3667 182.781 83.2417 182.781C83.7104 182.781 84.1688 182.669 84.6167 182.445C85.0125 182.242 85.4344 181.893 85.8823 181.398V184.812C85.3042 185.083 84.812 185.263 84.4058 185.352C83.9006 185.471 83.4058 185.531 82.9214 185.531C82.3068 185.531 81.7287 185.456 81.187 185.305C80.6453 185.159 80.161 184.935 79.7339 184.633C78.8797 184.049 78.2287 183.331 77.7808 182.477C77.3328 181.591 77.1089 180.609 77.1089 179.531C77.1089 178.667 77.2547 177.872 77.5464 177.148C77.6766 176.799 77.8407 176.471 78.0386 176.164C78.2417 175.852 78.5021 175.529 78.8198 175.195C79.3667 174.633 79.9813 174.216 80.6636 173.945C81.3407 173.669 82.0933 173.531 82.9214 173.531C83.3953 173.531 83.8901 173.589 84.4058 173.703C84.9162 173.839 85.4084 174.021 85.8823 174.25ZM87.5229 185.242V173.133H90.312V185.242H87.5229ZM92.3823 185.242V177.352H95.1636V185.242H92.3823ZM92.7339 175.32H92.7495C92.7495 175.029 92.8511 174.789 93.0542 174.602C93.2573 174.398 93.5021 174.297 93.7886 174.297C94.0907 174.297 94.3381 174.393 94.5308 174.586C94.7287 174.779 94.8276 175.023 94.8276 175.32C94.8276 175.622 94.7261 175.872 94.5229 176.07C94.325 176.273 94.0802 176.375 93.7886 176.375C93.4917 176.375 93.2417 176.268 93.0386 176.055C92.8354 175.857 92.7339 175.612 92.7339 175.32ZM103.476 181.32C103.476 180.716 103.317 180.232 103 179.867C102.661 179.513 102.213 179.336 101.656 179.336C101.093 179.336 100.651 179.513 100.328 179.867C100.005 180.221 99.8433 180.706 99.8433 181.32C99.8433 181.924 100.005 182.411 100.328 182.781C100.645 183.13 101.088 183.305 101.656 183.305C102.218 183.305 102.666 183.13 103 182.781C103.317 182.417 103.476 181.93 103.476 181.32ZM105.945 188.727H103.273V185.367C103.273 185.18 103.283 184.924 103.304 184.602C103.32 184.32 103.341 184.107 103.367 183.961C103.018 184.544 102.643 184.951 102.242 185.18C101.809 185.424 101.268 185.547 100.617 185.547C99.5698 185.547 98.7209 185.156 98.0698 184.375C97.4084 183.589 97.0776 182.57 97.0776 181.32C97.0776 180.018 97.4084 178.99 98.0698 178.234C98.4032 177.854 98.7886 177.573 99.2261 177.391C99.6636 177.208 100.158 177.117 100.71 177.117C101.263 177.117 101.752 177.245 102.179 177.5C102.638 177.776 103.039 178.169 103.382 178.68V177.367L105.945 177.352V188.727ZM116.101 177.352V181.383C116.101 182.284 116.033 182.94 115.898 183.352C115.752 183.779 115.507 184.164 115.164 184.508C114.835 184.852 114.403 185.112 113.867 185.289C113.356 185.461 112.742 185.547 112.023 185.547C111.309 185.547 110.703 185.461 110.203 185.289C109.687 185.122 109.244 184.862 108.875 184.508C108.536 184.185 108.296 183.805 108.156 183.367C108.015 182.961 107.945 182.299 107.945 181.383V177.352H110.601V181.562C110.601 182.224 110.713 182.698 110.937 182.984C111.14 183.286 111.492 183.438 111.992 183.438C112.486 183.438 112.841 183.292 113.054 183C113.273 182.708 113.382 182.229 113.382 181.562V177.352H116.101ZM123.539 180.281C123.492 179.844 123.322 179.487 123.031 179.211C122.739 178.935 122.382 178.797 121.96 178.797C121.518 178.797 121.158 178.919 120.882 179.164C120.596 179.44 120.416 179.812 120.343 180.281H123.539ZM126.281 181.852H120.281C120.296 182.466 120.45 182.935 120.742 183.258C121.044 183.591 121.481 183.758 122.054 183.758C122.471 183.758 122.828 183.677 123.125 183.516C123.427 183.344 123.645 183.109 123.781 182.812L125.875 183.656C125.63 184.255 125.187 184.719 124.546 185.047C123.911 185.38 123.132 185.547 122.21 185.547C120.835 185.547 119.731 185.161 118.898 184.391C118.07 183.641 117.656 182.638 117.656 181.383C117.656 180.159 118.07 179.135 118.898 178.312C119.726 177.505 120.778 177.102 122.054 177.102C123.356 177.102 124.385 177.51 125.14 178.328C125.526 178.75 125.812 179.242 126 179.805C126.187 180.362 126.281 181 126.281 181.719V181.852ZM93.8901 201.242V193.352H96.6714V201.242H93.8901ZM94.2417 191.32H94.2573C94.2573 191.029 94.3589 190.789 94.562 190.602C94.7651 190.398 95.0099 190.297 95.2964 190.297C95.5985 190.297 95.8459 190.393 96.0386 190.586C96.2365 190.779 96.3354 191.023 96.3354 191.32C96.3354 191.622 96.2339 191.872 96.0308 192.07C95.8328 192.273 95.5881 192.375 95.2964 192.375C94.9995 192.375 94.7495 192.268 94.5464 192.055C94.3433 191.857 94.2417 191.612 94.2417 191.32ZM104.617 195.945C104.346 195.706 104.085 195.531 103.835 195.422C103.611 195.312 103.348 195.258 103.046 195.258C102.489 195.258 102.052 195.44 101.734 195.805C101.406 196.164 101.242 196.659 101.242 197.289C101.242 197.893 101.411 198.372 101.75 198.727C102.078 199.091 102.533 199.273 103.117 199.273C103.393 199.273 103.658 199.216 103.914 199.102C104.184 198.971 104.419 198.799 104.617 198.586V201C104.283 201.177 103.947 201.318 103.609 201.422C103.25 201.505 102.908 201.547 102.585 201.547C101.367 201.547 100.385 201.156 99.6401 200.375C99.3849 200.115 99.174 199.828 99.0073 199.516C98.8459 199.203 98.7209 198.865 98.6323 198.5C98.549 198.135 98.5073 197.737 98.5073 197.305C98.5073 196.06 98.8875 195.049 99.6479 194.273C100.414 193.492 101.403 193.102 102.617 193.102C102.997 193.102 103.359 193.143 103.703 193.227C104.036 193.31 104.341 193.432 104.617 193.594V195.945ZM106.265 201.242V193.352H109.046V201.242H106.265ZM106.617 191.32H106.632C106.632 191.029 106.734 190.789 106.937 190.602C107.14 190.398 107.385 190.297 107.671 190.297C107.973 190.297 108.221 190.393 108.414 190.586C108.611 190.779 108.71 191.023 108.71 191.32C108.71 191.622 108.609 191.872 108.406 192.07C108.208 192.273 107.963 192.375 107.671 192.375C107.375 192.375 107.125 192.268 106.921 192.055C106.718 191.857 106.617 191.612 106.617 191.32Z" fill="white"/>
</svg>
