<svg width="193" height="172" viewBox="0 0 193 172" fill="none" xmlns="http://www.w3.org/2000/svg">
<path d="M192.117 29.5576H0.883301V171.242H192.117V29.5576Z" stroke="black" stroke-width="1.5" stroke-linecap="round" stroke-linejoin="round"/>
<path d="M171.813 109.523V112.599H168.722" stroke="black" stroke-width="1.5" stroke-linecap="round" stroke-linejoin="round"/>
<path d="M162.441 112.599H27.4185" stroke="black" stroke-width="1.5" stroke-linecap="round" stroke-linejoin="round" stroke-dasharray="2.51 2.51"/>
<path d="M24.2783 112.599H21.1865V109.523" stroke="black" stroke-width="1.5" stroke-linecap="round" stroke-linejoin="round"/>
<path d="M21.1865 103.32V7.17737" stroke="black" stroke-width="1.5" stroke-linecap="round" stroke-linejoin="round" stroke-dasharray="2.49 2.49"/>
<path d="M21.1865 4.07639V1H24.2783" stroke="black" stroke-width="1.5" stroke-linecap="round" stroke-linejoin="round"/>
<path d="M30.5581 1H165.581" stroke="black" stroke-width="1.5" stroke-linecap="round" stroke-linejoin="round" stroke-dasharray="2.51 2.51"/>
<path d="M168.722 1H171.813V4.07639" stroke="black" stroke-width="1.5" stroke-linecap="round" stroke-linejoin="round"/>
<path d="M171.813 10.2793V106.421" stroke="black" stroke-width="1.5" stroke-linecap="round" stroke-linejoin="round" stroke-dasharray="2.49 2.49"/>
<path d="M0.883301 29.5577L21.1865 1H171.812L192.117 29.5577H0.883301Z" stroke="black" stroke-width="1.5" stroke-linecap="round" stroke-linejoin="round"/>
<path d="M90.3911 21.125L94.4979 6.95337H98.6939L102.801 21.125H90.3911Z" stroke="black" stroke-width="1.5" stroke-linecap="round" stroke-linejoin="round"/>
<path d="M0.883301 171.242L21.1865 112.599H171.812L192.117 171.242H0.883301Z" fill="black" stroke="black" stroke-width="1.5" stroke-linecap="round" stroke-linejoin="round"/>
</svg>
