<svg width="193" height="225" viewBox="0 0 193 225" fill="none" xmlns="http://www.w3.org/2000/svg">
<path d="M192.233 29.9209H1V171.605H192.233V29.9209Z" stroke="black" stroke-width="1.5" stroke-linecap="round" stroke-linejoin="round"/>
<path d="M171.93 109.886V112.962H168.838" stroke="black" stroke-width="1.5" stroke-linecap="round" stroke-linejoin="round"/>
<path d="M162.557 112.962H27.5352" stroke="black" stroke-width="1.5" stroke-linecap="round" stroke-linejoin="round" stroke-dasharray="2.51 2.51"/>
<path d="M24.395 112.962H21.3032V109.886" stroke="black" stroke-width="1.5" stroke-linecap="round" stroke-linejoin="round"/>
<path d="M21.3032 103.683V7.54065" stroke="black" stroke-width="1.5" stroke-linecap="round" stroke-linejoin="round" stroke-dasharray="2.49 2.49"/>
<path d="M21.3032 4.43967V1.36328H24.395" stroke="black" stroke-width="1.5" stroke-linecap="round" stroke-linejoin="round"/>
<path d="M30.6748 1.36328H165.698" stroke="black" stroke-width="1.5" stroke-linecap="round" stroke-linejoin="round" stroke-dasharray="2.51 2.51"/>
<path d="M168.838 1.36328H171.93V4.43967" stroke="black" stroke-width="1.5" stroke-linecap="round" stroke-linejoin="round"/>
<path d="M171.93 10.6426V106.784" stroke="black" stroke-width="1.5" stroke-linecap="round" stroke-linejoin="round" stroke-dasharray="2.49 2.49"/>
<path d="M1 29.921L21.3032 1.36328H171.929L192.233 29.921H1Z" stroke="black" stroke-width="1.5" stroke-linecap="round" stroke-linejoin="round"/>
<path d="M90.5078 21.4883L94.6146 7.31665H98.8106L102.917 21.4883H90.5078Z" stroke="black" stroke-width="1.5" stroke-linecap="round" stroke-linejoin="round"/>
<path d="M1 171.605L21.3032 112.962H171.929L192.233 171.605H1Z" fill="black" stroke="black" stroke-width="1.5" stroke-linecap="round" stroke-linejoin="round"/>
<path d="M88.7316 144.866L25.662 156.483L21.5376 123.343L73.4812 119.614L88.7316 144.866Z" fill="white" stroke="black" stroke-width="1.5" stroke-linecap="round" stroke-linejoin="round"/>
<path d="M45.0677 136.273L21.5366 123.343L73.4784 119.614L56.2351 134.298C54.813 135.745 52.9719 136.713 50.9695 137.067C48.9671 137.421 46.9036 137.143 45.0677 136.273Z" fill="white" stroke="black" stroke-width="1.5" stroke-linecap="round" stroke-linejoin="round"/>
<path d="M117.185 147.975L56.418 128.533L72.0668 90.6814L130.742 106.02L117.185 147.975Z" fill="white" stroke="black" stroke-width="1.5" stroke-linecap="round" stroke-linejoin="round"/>
<path d="M88.494 117.201L72.0635 90.6814L130.738 106.02L97.7543 120.165C96.0929 120.693 94.3072 120.691 92.6469 120.159C90.9865 119.628 89.5346 118.593 88.494 117.201Z" fill="white" stroke="black" stroke-width="1.5" stroke-linecap="round" stroke-linejoin="round"/>
<path d="M93.2923 160.371H18.8804L29.5178 127.607L82.1919 128.067L93.2923 160.371Z" fill="white" stroke="black" stroke-width="1.5" stroke-linecap="round" stroke-linejoin="round"/>
<path d="M50.4138 144.431L29.5205 127.607L82.1946 128.067L61.7606 144.431C60.1055 145.609 58.1218 146.242 56.0872 146.242C54.0526 146.242 52.0689 145.609 50.4138 144.431Z" fill="white" stroke="black" stroke-width="1.5" stroke-linecap="round" stroke-linejoin="round"/>
<path d="M147.11 169.542L101.58 136.603L132.908 121.942L181.908 144.873L147.11 169.542Z" fill="white" stroke="black" stroke-width="1.5" stroke-linecap="round" stroke-linejoin="round"/>
<path d="M133.468 137.747L132.907 121.942L181.908 144.873L141.14 144.305C139.333 144.144 137.623 143.425 136.247 142.249C134.871 141.074 133.9 139.499 133.468 137.747Z" fill="white" stroke="black" stroke-width="1.5" stroke-linecap="round" stroke-linejoin="round"/>
<path d="M136.422 166.396L73.0117 151.02L79.0513 120.092L131.093 134.583L136.422 166.396Z" fill="white" stroke="black" stroke-width="1.5" stroke-linecap="round" stroke-linejoin="round"/>
<path d="M101.188 140.707L79.0513 120.092L131.093 134.584L112.026 144.03C110.097 144.67 108.015 144.693 106.072 144.098C104.129 143.502 102.421 142.316 101.188 140.707Z" fill="white" stroke="black" stroke-width="1.5" stroke-linecap="round" stroke-linejoin="round"/>
<circle cx="100.617" cy="185.984" r="37.75" fill="white" stroke="black" stroke-width="1.5"/>
<circle cx="100.617" cy="185.984" r="33.75" fill="black" stroke="black" stroke-width="1.5"/>
<path d="M85.8823 174.492V177.898C85.4344 177.414 85.0125 177.062 84.6167 176.844C84.174 176.63 83.7157 176.523 83.2417 176.523C82.3511 176.523 81.6245 176.828 81.062 177.438C80.8693 177.656 80.7131 177.885 80.5933 178.125C80.4735 178.359 80.3823 178.628 80.3198 178.93C80.2625 179.227 80.2339 179.529 80.2339 179.836C80.2339 180.753 80.5151 181.516 81.0776 182.125C81.6453 182.724 82.3667 183.023 83.2417 183.023C83.7104 183.023 84.1688 182.911 84.6167 182.688C85.0125 182.484 85.4344 182.135 85.8823 181.641V185.055C85.3042 185.326 84.812 185.505 84.4058 185.594C83.9006 185.714 83.4058 185.773 82.9214 185.773C82.3068 185.773 81.7287 185.698 81.187 185.547C80.6453 185.401 80.161 185.177 79.7339 184.875C78.8797 184.292 78.2287 183.573 77.7808 182.719C77.3328 181.833 77.1089 180.852 77.1089 179.773C77.1089 178.909 77.2547 178.115 77.5464 177.391C77.6766 177.042 77.8407 176.714 78.0386 176.406C78.2417 176.094 78.5021 175.771 78.8198 175.438C79.3667 174.875 79.9813 174.458 80.6636 174.188C81.3407 173.911 82.0933 173.773 82.9214 173.773C83.3953 173.773 83.8901 173.831 84.4058 173.945C84.9162 174.081 85.4084 174.263 85.8823 174.492ZM87.5229 185.484V173.375H90.312V185.484H87.5229ZM92.3823 185.484V177.594H95.1636V185.484H92.3823ZM92.7339 175.562H92.7495C92.7495 175.271 92.8511 175.031 93.0542 174.844C93.2573 174.641 93.5021 174.539 93.7886 174.539C94.0907 174.539 94.3381 174.635 94.5308 174.828C94.7287 175.021 94.8276 175.266 94.8276 175.562C94.8276 175.865 94.7261 176.115 94.5229 176.312C94.325 176.516 94.0802 176.617 93.7886 176.617C93.4917 176.617 93.2417 176.51 93.0386 176.297C92.8354 176.099 92.7339 175.854 92.7339 175.562ZM103.476 181.562C103.476 180.958 103.317 180.474 103 180.109C102.661 179.755 102.213 179.578 101.656 179.578C101.093 179.578 100.651 179.755 100.328 180.109C100.005 180.464 99.8433 180.948 99.8433 181.562C99.8433 182.167 100.005 182.654 100.328 183.023C100.645 183.372 101.088 183.547 101.656 183.547C102.218 183.547 102.666 183.372 103 183.023C103.317 182.659 103.476 182.172 103.476 181.562ZM105.945 188.969H103.273V185.609C103.273 185.422 103.283 185.167 103.304 184.844C103.32 184.562 103.341 184.349 103.367 184.203C103.018 184.786 102.643 185.193 102.242 185.422C101.809 185.667 101.268 185.789 100.617 185.789C99.5698 185.789 98.7209 185.398 98.0698 184.617C97.4084 183.831 97.0776 182.812 97.0776 181.562C97.0776 180.26 97.4084 179.232 98.0698 178.477C98.4032 178.096 98.7886 177.815 99.2261 177.633C99.6636 177.451 100.158 177.359 100.71 177.359C101.263 177.359 101.752 177.487 102.179 177.742C102.638 178.018 103.039 178.411 103.382 178.922V177.609L105.945 177.594V188.969ZM116.101 177.594V181.625C116.101 182.526 116.033 183.182 115.898 183.594C115.752 184.021 115.507 184.406 115.164 184.75C114.835 185.094 114.403 185.354 113.867 185.531C113.356 185.703 112.742 185.789 112.023 185.789C111.309 185.789 110.703 185.703 110.203 185.531C109.687 185.365 109.244 185.104 108.875 184.75C108.536 184.427 108.296 184.047 108.156 183.609C108.015 183.203 107.945 182.542 107.945 181.625V177.594H110.601V181.805C110.601 182.466 110.713 182.94 110.937 183.227C111.14 183.529 111.492 183.68 111.992 183.68C112.486 183.68 112.841 183.534 113.054 183.242C113.273 182.951 113.382 182.471 113.382 181.805V177.594H116.101ZM123.539 180.523C123.492 180.086 123.322 179.729 123.031 179.453C122.739 179.177 122.382 179.039 121.96 179.039C121.518 179.039 121.158 179.161 120.882 179.406C120.596 179.682 120.416 180.055 120.343 180.523H123.539ZM126.281 182.094H120.281C120.296 182.708 120.45 183.177 120.742 183.5C121.044 183.833 121.481 184 122.054 184C122.471 184 122.828 183.919 123.125 183.758C123.427 183.586 123.645 183.352 123.781 183.055L125.875 183.898C125.63 184.497 125.187 184.961 124.546 185.289C123.911 185.622 123.132 185.789 122.21 185.789C120.835 185.789 119.731 185.404 118.898 184.633C118.07 183.883 117.656 182.88 117.656 181.625C117.656 180.401 118.07 179.378 118.898 178.555C119.726 177.747 120.778 177.344 122.054 177.344C123.356 177.344 124.385 177.753 125.14 178.57C125.526 178.992 125.812 179.484 126 180.047C126.187 180.604 126.281 181.242 126.281 181.961V182.094ZM93.8901 201.484V193.594H96.6714V201.484H93.8901ZM94.2417 191.562H94.2573C94.2573 191.271 94.3589 191.031 94.562 190.844C94.7651 190.641 95.0099 190.539 95.2964 190.539C95.5985 190.539 95.8459 190.635 96.0386 190.828C96.2365 191.021 96.3354 191.266 96.3354 191.562C96.3354 191.865 96.2339 192.115 96.0308 192.312C95.8328 192.516 95.5881 192.617 95.2964 192.617C94.9995 192.617 94.7495 192.51 94.5464 192.297C94.3433 192.099 94.2417 191.854 94.2417 191.562ZM104.617 196.188C104.346 195.948 104.085 195.773 103.835 195.664C103.611 195.555 103.348 195.5 103.046 195.5C102.489 195.5 102.052 195.682 101.734 196.047C101.406 196.406 101.242 196.901 101.242 197.531C101.242 198.135 101.411 198.615 101.75 198.969C102.078 199.333 102.533 199.516 103.117 199.516C103.393 199.516 103.658 199.458 103.914 199.344C104.184 199.214 104.419 199.042 104.617 198.828V201.242C104.283 201.419 103.947 201.56 103.609 201.664C103.25 201.747 102.908 201.789 102.585 201.789C101.367 201.789 100.385 201.398 99.6401 200.617C99.3849 200.357 99.174 200.07 99.0073 199.758C98.8459 199.445 98.7209 199.107 98.6323 198.742C98.549 198.378 98.5073 197.979 98.5073 197.547C98.5073 196.302 98.8875 195.292 99.6479 194.516C100.414 193.734 101.403 193.344 102.617 193.344C102.997 193.344 103.359 193.385 103.703 193.469C104.036 193.552 104.341 193.674 104.617 193.836V196.188ZM106.265 201.484V193.594H109.046V201.484H106.265ZM106.617 191.562H106.632C106.632 191.271 106.734 191.031 106.937 190.844C107.14 190.641 107.385 190.539 107.671 190.539C107.973 190.539 108.221 190.635 108.414 190.828C108.611 191.021 108.71 191.266 108.71 191.562C108.71 191.865 108.609 192.115 108.406 192.312C108.208 192.516 107.963 192.617 107.671 192.617C107.375 192.617 107.125 192.51 106.921 192.297C106.718 192.099 106.617 191.854 106.617 191.562Z" fill="white"/>
</svg>
