<svg width="193" height="225" viewBox="0 0 193 225" fill="none" xmlns="http://www.w3.org/2000/svg">
<path d="M192.233 29.5576H1V171.242H192.233V29.5576Z" stroke="black" stroke-width="1.5" stroke-linecap="round" stroke-linejoin="round"/>
<path d="M171.93 109.523V112.599H168.838" stroke="black" stroke-width="1.5" stroke-linecap="round" stroke-linejoin="round"/>
<path d="M162.557 112.599H27.5352" stroke="black" stroke-width="1.5" stroke-linecap="round" stroke-linejoin="round" stroke-dasharray="2.51 2.51"/>
<path d="M24.395 112.599H21.3032V109.523" stroke="black" stroke-width="1.5" stroke-linecap="round" stroke-linejoin="round"/>
<path d="M21.3032 103.32V7.1774" stroke="black" stroke-width="1.5" stroke-linecap="round" stroke-linejoin="round" stroke-dasharray="2.49 2.49"/>
<path d="M21.3032 4.07639V1H24.395" stroke="black" stroke-width="1.5" stroke-linecap="round" stroke-linejoin="round"/>
<path d="M30.6748 1H165.698" stroke="black" stroke-width="1.5" stroke-linecap="round" stroke-linejoin="round" stroke-dasharray="2.51 2.51"/>
<path d="M168.838 1H171.93V4.07639" stroke="black" stroke-width="1.5" stroke-linecap="round" stroke-linejoin="round"/>
<path d="M171.93 10.2793V106.421" stroke="black" stroke-width="1.5" stroke-linecap="round" stroke-linejoin="round" stroke-dasharray="2.49 2.49"/>
<path d="M1 29.5577L21.3032 1H171.929L192.233 29.5577H1Z" stroke="black" stroke-width="1.5" stroke-linecap="round" stroke-linejoin="round"/>
<path d="M90.5078 21.125L94.6146 6.95337H98.8106L102.917 21.125H90.5078Z" stroke="black" stroke-width="1.5" stroke-linecap="round" stroke-linejoin="round"/>
<path d="M1 171.242L21.3032 112.599H171.929L192.233 171.242H1Z" fill="black" stroke="black" stroke-width="1.5" stroke-linecap="round" stroke-linejoin="round"/>
<path d="M52.2961 133.479L97.8255 100.54L66.4617 80.0115L22.8677 108.823L52.2961 133.479Z" fill="white" stroke="black" stroke-width="1.5" stroke-linecap="round" stroke-linejoin="round"/>
<path d="M65.9378 101.683L66.4617 80.0115L22.8677 108.823L58.2649 108.241C60.0714 108.081 61.7821 107.362 63.1579 106.186C64.5336 105.01 65.5056 103.436 65.9378 101.683Z" fill="white" stroke="black" stroke-width="1.5" stroke-linecap="round" stroke-linejoin="round"/>
<path d="M106.567 120.027L159.692 104.366L179.104 130.546L122.465 150.133L106.567 120.027Z" fill="white" stroke="black" stroke-width="1.5" stroke-linecap="round" stroke-linejoin="round"/>
<path d="M145.099 120.838L179.108 130.546L122.47 150.133L136.427 124.888C137.268 123.398 138.556 122.206 140.111 121.48C141.665 120.754 143.409 120.529 145.099 120.838Z" fill="white" stroke="black" stroke-width="1.5" stroke-linecap="round" stroke-linejoin="round"/>
<path d="M130.261 147.447L73.9082 117.616L96.0391 83.115L151.062 108.54L130.261 147.447Z" fill="white" stroke="black" stroke-width="1.5" stroke-linecap="round" stroke-linejoin="round"/>
<path d="M107.493 112.109L96.0371 83.1159L151.06 108.54L116.079 116.656C114.35 116.883 112.593 116.567 111.053 115.751C109.514 114.936 108.269 113.663 107.493 112.109Z" fill="white" stroke="black" stroke-width="1.5" stroke-linecap="round" stroke-linejoin="round"/>
<path d="M88.7316 144.503L25.662 156.119L21.5376 122.98L73.4812 119.25L88.7316 144.503Z" fill="white" stroke="black" stroke-width="1.5" stroke-linecap="round" stroke-linejoin="round"/>
<path d="M45.0677 135.909L21.5366 122.98L73.4784 119.25L56.2351 133.935C54.813 135.382 52.9719 136.35 50.9695 136.704C48.9671 137.058 46.9036 136.78 45.0677 135.909Z" fill="white" stroke="black" stroke-width="1.5" stroke-linecap="round" stroke-linejoin="round"/>
<path d="M117.185 147.612L56.418 128.17L72.0668 90.3181L130.742 105.657L117.185 147.612Z" fill="white" stroke="black" stroke-width="1.5" stroke-linecap="round" stroke-linejoin="round"/>
<path d="M88.494 116.837L72.0635 90.3181L130.738 105.657L97.7543 119.801C96.0929 120.329 94.3072 120.327 92.6469 119.796C90.9865 119.265 89.5346 118.23 88.494 116.837Z" fill="white" stroke="black" stroke-width="1.5" stroke-linecap="round" stroke-linejoin="round"/>
<path d="M93.2923 160.008H18.8804L29.5178 127.244L82.1919 127.703L93.2923 160.008Z" fill="white" stroke="black" stroke-width="1.5" stroke-linecap="round" stroke-linejoin="round"/>
<path d="M50.4138 144.068L29.5205 127.244L82.1946 127.703L61.7606 144.068C60.1055 145.246 58.1218 145.879 56.0872 145.879C54.0526 145.879 52.0689 145.246 50.4138 144.068Z" fill="white" stroke="black" stroke-width="1.5" stroke-linecap="round" stroke-linejoin="round"/>
<path d="M147.11 169.179L101.58 136.24L132.908 121.579L181.908 144.51L147.11 169.179Z" fill="white" stroke="black" stroke-width="1.5" stroke-linecap="round" stroke-linejoin="round"/>
<path d="M133.468 137.383L132.907 121.579L181.908 144.51L141.14 143.941C139.333 143.781 137.623 143.062 136.247 141.886C134.871 140.71 133.9 139.136 133.468 137.383Z" fill="white" stroke="black" stroke-width="1.5" stroke-linecap="round" stroke-linejoin="round"/>
<path d="M136.422 166.033L73.0117 150.657L79.0513 119.729L131.093 134.22L136.422 166.033Z" fill="white" stroke="black" stroke-width="1.5" stroke-linecap="round" stroke-linejoin="round"/>
<path d="M101.188 140.344L79.0513 119.729L131.093 134.221L112.026 143.667C110.097 144.307 108.015 144.33 106.072 143.734C104.129 143.138 102.421 141.953 101.188 140.344Z" fill="white" stroke="black" stroke-width="1.5" stroke-linecap="round" stroke-linejoin="round"/>
<circle cx="100.617" cy="185.621" r="37.75" fill="white" stroke="black" stroke-width="1.5"/>
<circle cx="100.617" cy="185.621" r="33.75" fill="black" stroke="black" stroke-width="1.5"/>
<path d="M85.8823 174.129V177.535C85.4344 177.051 85.0125 176.699 84.6167 176.48C84.174 176.267 83.7157 176.16 83.2417 176.16C82.3511 176.16 81.6245 176.465 81.062 177.074C80.8693 177.293 80.7131 177.522 80.5933 177.762C80.4735 177.996 80.3823 178.264 80.3198 178.566C80.2625 178.863 80.2339 179.165 80.2339 179.473C80.2339 180.389 80.5151 181.152 81.0776 181.762C81.6453 182.361 82.3667 182.66 83.2417 182.66C83.7104 182.66 84.1688 182.548 84.6167 182.324C85.0125 182.121 85.4344 181.772 85.8823 181.277V184.691C85.3042 184.962 84.812 185.142 84.4058 185.23C83.9006 185.35 83.4058 185.41 82.9214 185.41C82.3068 185.41 81.7287 185.335 81.187 185.184C80.6453 185.038 80.161 184.814 79.7339 184.512C78.8797 183.928 78.2287 183.21 77.7808 182.355C77.3328 181.47 77.1089 180.488 77.1089 179.41C77.1089 178.546 77.2547 177.751 77.5464 177.027C77.6766 176.678 77.8407 176.35 78.0386 176.043C78.2417 175.73 78.5021 175.408 78.8198 175.074C79.3667 174.512 79.9813 174.095 80.6636 173.824C81.3407 173.548 82.0933 173.41 82.9214 173.41C83.3953 173.41 83.8901 173.467 84.4058 173.582C84.9162 173.717 85.4084 173.9 85.8823 174.129ZM87.5229 185.121V173.012H90.312V185.121H87.5229ZM92.3823 185.121V177.23H95.1636V185.121H92.3823ZM92.7339 175.199H92.7495C92.7495 174.908 92.8511 174.668 93.0542 174.48C93.2573 174.277 93.5021 174.176 93.7886 174.176C94.0907 174.176 94.3381 174.272 94.5308 174.465C94.7287 174.658 94.8276 174.902 94.8276 175.199C94.8276 175.501 94.7261 175.751 94.5229 175.949C94.325 176.152 94.0802 176.254 93.7886 176.254C93.4917 176.254 93.2417 176.147 93.0386 175.934C92.8354 175.736 92.7339 175.491 92.7339 175.199ZM103.476 181.199C103.476 180.595 103.317 180.111 103 179.746C102.661 179.392 102.213 179.215 101.656 179.215C101.093 179.215 100.651 179.392 100.328 179.746C100.005 180.1 99.8433 180.585 99.8433 181.199C99.8433 181.803 100.005 182.29 100.328 182.66C100.645 183.009 101.088 183.184 101.656 183.184C102.218 183.184 102.666 183.009 103 182.66C103.317 182.296 103.476 181.809 103.476 181.199ZM105.945 188.605H103.273V185.246C103.273 185.059 103.283 184.803 103.304 184.48C103.32 184.199 103.341 183.986 103.367 183.84C103.018 184.423 102.643 184.829 102.242 185.059C101.809 185.303 101.268 185.426 100.617 185.426C99.5698 185.426 98.7209 185.035 98.0698 184.254C97.4084 183.467 97.0776 182.449 97.0776 181.199C97.0776 179.897 97.4084 178.868 98.0698 178.113C98.4032 177.733 98.7886 177.452 99.2261 177.27C99.6636 177.087 100.158 176.996 100.71 176.996C101.263 176.996 101.752 177.124 102.179 177.379C102.638 177.655 103.039 178.048 103.382 178.559V177.246L105.945 177.23V188.605ZM116.101 177.23V181.262C116.101 182.163 116.033 182.819 115.898 183.23C115.752 183.658 115.507 184.043 115.164 184.387C114.835 184.73 114.403 184.991 113.867 185.168C113.356 185.34 112.742 185.426 112.023 185.426C111.309 185.426 110.703 185.34 110.203 185.168C109.687 185.001 109.244 184.741 108.875 184.387C108.536 184.064 108.296 183.684 108.156 183.246C108.015 182.84 107.945 182.178 107.945 181.262V177.23H110.601V181.441C110.601 182.103 110.713 182.577 110.937 182.863C111.14 183.165 111.492 183.316 111.992 183.316C112.486 183.316 112.841 183.171 113.054 182.879C113.273 182.587 113.382 182.108 113.382 181.441V177.23H116.101ZM123.539 180.16C123.492 179.723 123.322 179.366 123.031 179.09C122.739 178.814 122.382 178.676 121.96 178.676C121.518 178.676 121.158 178.798 120.882 179.043C120.596 179.319 120.416 179.691 120.343 180.16H123.539ZM126.281 181.73H120.281C120.296 182.345 120.45 182.814 120.742 183.137C121.044 183.47 121.481 183.637 122.054 183.637C122.471 183.637 122.828 183.556 123.125 183.395C123.427 183.223 123.645 182.988 123.781 182.691L125.875 183.535C125.63 184.134 125.187 184.598 124.546 184.926C123.911 185.259 123.132 185.426 122.21 185.426C120.835 185.426 119.731 185.04 118.898 184.27C118.07 183.52 117.656 182.517 117.656 181.262C117.656 180.038 118.07 179.014 118.898 178.191C119.726 177.384 120.778 176.98 122.054 176.98C123.356 176.98 124.385 177.389 125.14 178.207C125.526 178.629 125.812 179.121 126 179.684C126.187 180.241 126.281 180.879 126.281 181.598V181.73ZM93.8901 201.121V193.23H96.6714V201.121H93.8901ZM94.2417 191.199H94.2573C94.2573 190.908 94.3589 190.668 94.562 190.48C94.7651 190.277 95.0099 190.176 95.2964 190.176C95.5985 190.176 95.8459 190.272 96.0386 190.465C96.2365 190.658 96.3354 190.902 96.3354 191.199C96.3354 191.501 96.2339 191.751 96.0308 191.949C95.8328 192.152 95.5881 192.254 95.2964 192.254C94.9995 192.254 94.7495 192.147 94.5464 191.934C94.3433 191.736 94.2417 191.491 94.2417 191.199ZM104.617 195.824C104.346 195.585 104.085 195.41 103.835 195.301C103.611 195.191 103.348 195.137 103.046 195.137C102.489 195.137 102.052 195.319 101.734 195.684C101.406 196.043 101.242 196.538 101.242 197.168C101.242 197.772 101.411 198.251 101.75 198.605C102.078 198.97 102.533 199.152 103.117 199.152C103.393 199.152 103.658 199.095 103.914 198.98C104.184 198.85 104.419 198.678 104.617 198.465V200.879C104.283 201.056 103.947 201.197 103.609 201.301C103.25 201.384 102.908 201.426 102.585 201.426C101.367 201.426 100.385 201.035 99.6401 200.254C99.3849 199.993 99.174 199.707 99.0073 199.395C98.8459 199.082 98.7209 198.743 98.6323 198.379C98.549 198.014 98.5073 197.616 98.5073 197.184C98.5073 195.939 98.8875 194.928 99.6479 194.152C100.414 193.371 101.403 192.98 102.617 192.98C102.997 192.98 103.359 193.022 103.703 193.105C104.036 193.189 104.341 193.311 104.617 193.473V195.824ZM106.265 201.121V193.23H109.046V201.121H106.265ZM106.617 191.199H106.632C106.632 190.908 106.734 190.668 106.937 190.48C107.14 190.277 107.385 190.176 107.671 190.176C107.973 190.176 108.221 190.272 108.414 190.465C108.611 190.658 108.71 190.902 108.71 191.199C108.71 191.501 108.609 191.751 108.406 191.949C108.208 192.152 107.963 192.254 107.671 192.254C107.375 192.254 107.125 192.147 106.921 191.934C106.718 191.736 106.617 191.491 106.617 191.199Z" fill="white"/>
</svg>
