<svg width="193" height="224" viewBox="0 0 193 224" fill="none" xmlns="http://www.w3.org/2000/svg">
<path d="M192.233 29.4053H1V171.09H192.233V29.4053Z" stroke="black" stroke-width="1.5" stroke-linecap="round" stroke-linejoin="round"/>
<path d="M171.93 109.37V112.447H168.838" stroke="black" stroke-width="1.5" stroke-linecap="round" stroke-linejoin="round"/>
<path d="M162.557 112.447H27.5352" stroke="black" stroke-width="1.5" stroke-linecap="round" stroke-linejoin="round" stroke-dasharray="2.51 2.51"/>
<path d="M24.395 112.447H21.3032V109.37" stroke="black" stroke-width="1.5" stroke-linecap="round" stroke-linejoin="round"/>
<path d="M21.3032 103.168V7.02515" stroke="black" stroke-width="1.5" stroke-linecap="round" stroke-linejoin="round" stroke-dasharray="2.49 2.49"/>
<path d="M21.3032 3.92404V0.847656H24.395" stroke="black" stroke-width="1.5" stroke-linecap="round" stroke-linejoin="round"/>
<path d="M30.6748 0.847656H165.698" stroke="black" stroke-width="1.5" stroke-linecap="round" stroke-linejoin="round" stroke-dasharray="2.51 2.51"/>
<path d="M168.838 0.847656H171.93V3.92404" stroke="black" stroke-width="1.5" stroke-linecap="round" stroke-linejoin="round"/>
<path d="M171.93 10.127V106.268" stroke="black" stroke-width="1.5" stroke-linecap="round" stroke-linejoin="round" stroke-dasharray="2.49 2.49"/>
<path d="M1 29.4053L21.3032 0.847656H171.929L192.233 29.4053H1Z" stroke="black" stroke-width="1.5" stroke-linecap="round" stroke-linejoin="round"/>
<path d="M90.5078 20.9726L94.6146 6.80103H98.8106L102.917 20.9726H90.5078Z" stroke="black" stroke-width="1.5" stroke-linecap="round" stroke-linejoin="round"/>
<path d="M1 171.09L21.3032 112.447H171.929L192.233 171.09H1Z" fill="black" stroke="black" stroke-width="1.5" stroke-linecap="round" stroke-linejoin="round"/>
<path d="M147.11 169.027L101.58 136.087L132.908 121.426L181.908 144.358L147.11 169.027Z" fill="white" stroke="black" stroke-width="1.5" stroke-linecap="round" stroke-linejoin="round"/>
<path d="M133.468 137.231L132.907 121.426L181.908 144.358L141.14 143.789C139.333 143.628 137.623 142.91 136.247 141.734C134.871 140.558 133.9 138.984 133.468 137.231Z" fill="white" stroke="black" stroke-width="1.5" stroke-linecap="round" stroke-linejoin="round"/>
<circle cx="100.617" cy="185.469" r="37.75" fill="white" stroke="black" stroke-width="1.5"/>
<circle cx="100.617" cy="185.469" r="33.75" fill="black" stroke="black" stroke-width="1.5"/>
<path d="M85.8823 173.977V177.383C85.4344 176.898 85.0125 176.547 84.6167 176.328C84.174 176.115 83.7157 176.008 83.2417 176.008C82.3511 176.008 81.6245 176.312 81.062 176.922C80.8693 177.141 80.7131 177.37 80.5933 177.609C80.4735 177.844 80.3823 178.112 80.3198 178.414C80.2625 178.711 80.2339 179.013 80.2339 179.32C80.2339 180.237 80.5151 181 81.0776 181.609C81.6453 182.208 82.3667 182.508 83.2417 182.508C83.7104 182.508 84.1688 182.396 84.6167 182.172C85.0125 181.969 85.4344 181.62 85.8823 181.125V184.539C85.3042 184.81 84.812 184.99 84.4058 185.078C83.9006 185.198 83.4058 185.258 82.9214 185.258C82.3068 185.258 81.7287 185.182 81.187 185.031C80.6453 184.885 80.161 184.661 79.7339 184.359C78.8797 183.776 78.2287 183.057 77.7808 182.203C77.3328 181.318 77.1089 180.336 77.1089 179.258C77.1089 178.393 77.2547 177.599 77.5464 176.875C77.6766 176.526 77.8407 176.198 78.0386 175.891C78.2417 175.578 78.5021 175.255 78.8198 174.922C79.3667 174.359 79.9813 173.943 80.6636 173.672C81.3407 173.396 82.0933 173.258 82.9214 173.258C83.3953 173.258 83.8901 173.315 84.4058 173.43C84.9162 173.565 85.4084 173.747 85.8823 173.977ZM87.5229 184.969V172.859H90.312V184.969H87.5229ZM92.3823 184.969V177.078H95.1636V184.969H92.3823ZM92.7339 175.047H92.7495C92.7495 174.755 92.8511 174.516 93.0542 174.328C93.2573 174.125 93.5021 174.023 93.7886 174.023C94.0907 174.023 94.3381 174.12 94.5308 174.312C94.7287 174.505 94.8276 174.75 94.8276 175.047C94.8276 175.349 94.7261 175.599 94.5229 175.797C94.325 176 94.0802 176.102 93.7886 176.102C93.4917 176.102 93.2417 175.995 93.0386 175.781C92.8354 175.583 92.7339 175.339 92.7339 175.047ZM103.476 181.047C103.476 180.443 103.317 179.958 103 179.594C102.661 179.24 102.213 179.062 101.656 179.062C101.093 179.062 100.651 179.24 100.328 179.594C100.005 179.948 99.8433 180.432 99.8433 181.047C99.8433 181.651 100.005 182.138 100.328 182.508C100.645 182.857 101.088 183.031 101.656 183.031C102.218 183.031 102.666 182.857 103 182.508C103.317 182.143 103.476 181.656 103.476 181.047ZM105.945 188.453H103.273V185.094C103.273 184.906 103.283 184.651 103.304 184.328C103.32 184.047 103.341 183.833 103.367 183.688C103.018 184.271 102.643 184.677 102.242 184.906C101.809 185.151 101.268 185.273 100.617 185.273C99.5698 185.273 98.7209 184.883 98.0698 184.102C97.4084 183.315 97.0776 182.297 97.0776 181.047C97.0776 179.745 97.4084 178.716 98.0698 177.961C98.4032 177.581 98.7886 177.299 99.2261 177.117C99.6636 176.935 100.158 176.844 100.71 176.844C101.263 176.844 101.752 176.971 102.179 177.227C102.638 177.503 103.039 177.896 103.382 178.406V177.094L105.945 177.078V188.453ZM116.101 177.078V181.109C116.101 182.01 116.033 182.667 115.898 183.078C115.752 183.505 115.507 183.891 115.164 184.234C114.835 184.578 114.403 184.839 113.867 185.016C113.356 185.188 112.742 185.273 112.023 185.273C111.309 185.273 110.703 185.188 110.203 185.016C109.687 184.849 109.244 184.589 108.875 184.234C108.536 183.911 108.296 183.531 108.156 183.094C108.015 182.688 107.945 182.026 107.945 181.109V177.078H110.601V181.289C110.601 181.951 110.713 182.424 110.937 182.711C111.14 183.013 111.492 183.164 111.992 183.164C112.486 183.164 112.841 183.018 113.054 182.727C113.273 182.435 113.382 181.956 113.382 181.289V177.078H116.101ZM123.539 180.008C123.492 179.57 123.322 179.214 123.031 178.938C122.739 178.661 122.382 178.523 121.96 178.523C121.518 178.523 121.158 178.646 120.882 178.891C120.596 179.167 120.416 179.539 120.343 180.008H123.539ZM126.281 181.578H120.281C120.296 182.193 120.45 182.661 120.742 182.984C121.044 183.318 121.481 183.484 122.054 183.484C122.471 183.484 122.828 183.404 123.125 183.242C123.427 183.07 123.645 182.836 123.781 182.539L125.875 183.383C125.63 183.982 125.187 184.445 124.546 184.773C123.911 185.107 123.132 185.273 122.21 185.273C120.835 185.273 119.731 184.888 118.898 184.117C118.07 183.367 117.656 182.365 117.656 181.109C117.656 179.885 118.07 178.862 118.898 178.039C119.726 177.232 120.778 176.828 122.054 176.828C123.356 176.828 124.385 177.237 125.14 178.055C125.526 178.477 125.812 178.969 126 179.531C126.187 180.089 126.281 180.727 126.281 181.445V181.578ZM93.8901 200.969V193.078H96.6714V200.969H93.8901ZM94.2417 191.047H94.2573C94.2573 190.755 94.3589 190.516 94.562 190.328C94.7651 190.125 95.0099 190.023 95.2964 190.023C95.5985 190.023 95.8459 190.12 96.0386 190.312C96.2365 190.505 96.3354 190.75 96.3354 191.047C96.3354 191.349 96.2339 191.599 96.0308 191.797C95.8328 192 95.5881 192.102 95.2964 192.102C94.9995 192.102 94.7495 191.995 94.5464 191.781C94.3433 191.583 94.2417 191.339 94.2417 191.047ZM104.617 195.672C104.346 195.432 104.085 195.258 103.835 195.148C103.611 195.039 103.348 194.984 103.046 194.984C102.489 194.984 102.052 195.167 101.734 195.531C101.406 195.891 101.242 196.385 101.242 197.016C101.242 197.62 101.411 198.099 101.75 198.453C102.078 198.818 102.533 199 103.117 199C103.393 199 103.658 198.943 103.914 198.828C104.184 198.698 104.419 198.526 104.617 198.312V200.727C104.283 200.904 103.947 201.044 103.609 201.148C103.25 201.232 102.908 201.273 102.585 201.273C101.367 201.273 100.385 200.883 99.6401 200.102C99.3849 199.841 99.174 199.555 99.0073 199.242C98.8459 198.93 98.7209 198.591 98.6323 198.227C98.549 197.862 98.5073 197.464 98.5073 197.031C98.5073 195.786 98.8875 194.776 99.6479 194C100.414 193.219 101.403 192.828 102.617 192.828C102.997 192.828 103.359 192.87 103.703 192.953C104.036 193.036 104.341 193.159 104.617 193.32V195.672ZM106.265 200.969V193.078H109.046V200.969H106.265ZM106.617 191.047H106.632C106.632 190.755 106.734 190.516 106.937 190.328C107.14 190.125 107.385 190.023 107.671 190.023C107.973 190.023 108.221 190.12 108.414 190.312C108.611 190.505 108.71 190.75 108.71 191.047C108.71 191.349 108.609 191.599 108.406 191.797C108.208 192 107.963 192.102 107.671 192.102C107.375 192.102 107.125 191.995 106.921 191.781C106.718 191.583 106.617 191.339 106.617 191.047Z" fill="white"/>
</svg>
