<svg width="193" height="225" viewBox="0 0 193 225" fill="none" xmlns="http://www.w3.org/2000/svg">
<path d="M192.233 30.042H1V171.726H192.233V30.042Z" stroke="black" stroke-width="1.5" stroke-linecap="round" stroke-linejoin="round"/>
<path d="M171.93 110.007V113.083H168.838" stroke="black" stroke-width="1.5" stroke-linecap="round" stroke-linejoin="round"/>
<path d="M162.557 113.083H27.5352" stroke="black" stroke-width="1.5" stroke-linecap="round" stroke-linejoin="round" stroke-dasharray="2.51 2.51"/>
<path d="M24.395 113.083H21.3032V110.007" stroke="black" stroke-width="1.5" stroke-linecap="round" stroke-linejoin="round"/>
<path d="M21.3032 103.804V7.66174" stroke="black" stroke-width="1.5" stroke-linecap="round" stroke-linejoin="round" stroke-dasharray="2.49 2.49"/>
<path d="M21.3032 4.56076V1.48438H24.395" stroke="black" stroke-width="1.5" stroke-linecap="round" stroke-linejoin="round"/>
<path d="M30.6748 1.48438H165.698" stroke="black" stroke-width="1.5" stroke-linecap="round" stroke-linejoin="round" stroke-dasharray="2.51 2.51"/>
<path d="M168.838 1.48438H171.93V4.56076" stroke="black" stroke-width="1.5" stroke-linecap="round" stroke-linejoin="round"/>
<path d="M171.93 10.7637V106.905" stroke="black" stroke-width="1.5" stroke-linecap="round" stroke-linejoin="round" stroke-dasharray="2.49 2.49"/>
<path d="M1 30.0421L21.3032 1.48438H171.929L192.233 30.0421H1Z" stroke="black" stroke-width="1.5" stroke-linecap="round" stroke-linejoin="round"/>
<path d="M90.5078 21.6093L94.6146 7.43774H98.8106L102.917 21.6093H90.5078Z" stroke="black" stroke-width="1.5" stroke-linecap="round" stroke-linejoin="round"/>
<path d="M1 171.727L21.3032 113.083H171.929L192.233 171.727H1Z" fill="black" stroke="black" stroke-width="1.5" stroke-linecap="round" stroke-linejoin="round"/>
<path d="M88.7316 144.987L25.662 156.604L21.5376 123.464L73.4812 119.735L88.7316 144.987Z" fill="white" stroke="black" stroke-width="1.5" stroke-linecap="round" stroke-linejoin="round"/>
<path d="M45.0677 136.394L21.5366 123.464L73.4784 119.735L56.2351 134.42C54.813 135.866 52.9719 136.834 50.9695 137.188C48.9671 137.542 46.9036 137.264 45.0677 136.394Z" fill="white" stroke="black" stroke-width="1.5" stroke-linecap="round" stroke-linejoin="round"/>
<path d="M93.2923 160.492H18.8804L29.5178 127.728L82.1919 128.188L93.2923 160.492Z" fill="white" stroke="black" stroke-width="1.5" stroke-linecap="round" stroke-linejoin="round"/>
<path d="M50.4138 144.552L29.5205 127.728L82.1946 128.188L61.7606 144.552C60.1055 145.73 58.1218 146.363 56.0872 146.363C54.0526 146.363 52.0689 145.73 50.4138 144.552Z" fill="white" stroke="black" stroke-width="1.5" stroke-linecap="round" stroke-linejoin="round"/>
<path d="M147.11 169.664L101.58 136.724L132.908 122.063L181.908 144.994L147.11 169.664Z" fill="white" stroke="black" stroke-width="1.5" stroke-linecap="round" stroke-linejoin="round"/>
<path d="M133.468 137.868L132.907 122.063L181.908 144.994L141.14 144.426C139.333 144.265 137.623 143.546 136.247 142.371C134.871 141.195 133.9 139.62 133.468 137.868Z" fill="white" stroke="black" stroke-width="1.5" stroke-linecap="round" stroke-linejoin="round"/>
<path d="M136.422 166.517L73.0117 151.141L79.0513 120.213L131.093 134.704L136.422 166.517Z" fill="white" stroke="black" stroke-width="1.5" stroke-linecap="round" stroke-linejoin="round"/>
<path d="M101.188 140.828L79.0513 120.213L131.093 134.705L112.026 144.152C110.097 144.791 108.015 144.815 106.072 144.219C104.129 143.623 102.421 142.437 101.188 140.828Z" fill="white" stroke="black" stroke-width="1.5" stroke-linecap="round" stroke-linejoin="round"/>
<circle cx="100.617" cy="186.105" r="37.75" fill="white" stroke="black" stroke-width="1.5"/>
<circle cx="100.617" cy="186.105" r="33.75" fill="black" stroke="black" stroke-width="1.5"/>
<path d="M85.8823 174.613V178.02C85.4344 177.535 85.0125 177.184 84.6167 176.965C84.174 176.751 83.7157 176.645 83.2417 176.645C82.3511 176.645 81.6245 176.949 81.062 177.559C80.8693 177.777 80.7131 178.007 80.5933 178.246C80.4735 178.48 80.3823 178.749 80.3198 179.051C80.2625 179.348 80.2339 179.65 80.2339 179.957C80.2339 180.874 80.5151 181.637 81.0776 182.246C81.6453 182.845 82.3667 183.145 83.2417 183.145C83.7104 183.145 84.1688 183.033 84.6167 182.809C85.0125 182.605 85.4344 182.257 85.8823 181.762V185.176C85.3042 185.447 84.812 185.626 84.4058 185.715C83.9006 185.835 83.4058 185.895 82.9214 185.895C82.3068 185.895 81.7287 185.819 81.187 185.668C80.6453 185.522 80.161 185.298 79.7339 184.996C78.8797 184.413 78.2287 183.694 77.7808 182.84C77.3328 181.954 77.1089 180.973 77.1089 179.895C77.1089 179.03 77.2547 178.236 77.5464 177.512C77.6766 177.163 77.8407 176.835 78.0386 176.527C78.2417 176.215 78.5021 175.892 78.8198 175.559C79.3667 174.996 79.9813 174.579 80.6636 174.309C81.3407 174.033 82.0933 173.895 82.9214 173.895C83.3953 173.895 83.8901 173.952 84.4058 174.066C84.9162 174.202 85.4084 174.384 85.8823 174.613ZM87.5229 185.605V173.496H90.312V185.605H87.5229ZM92.3823 185.605V177.715H95.1636V185.605H92.3823ZM92.7339 175.684H92.7495C92.7495 175.392 92.8511 175.152 93.0542 174.965C93.2573 174.762 93.5021 174.66 93.7886 174.66C94.0907 174.66 94.3381 174.757 94.5308 174.949C94.7287 175.142 94.8276 175.387 94.8276 175.684C94.8276 175.986 94.7261 176.236 94.5229 176.434C94.325 176.637 94.0802 176.738 93.7886 176.738C93.4917 176.738 93.2417 176.632 93.0386 176.418C92.8354 176.22 92.7339 175.975 92.7339 175.684ZM103.476 181.684C103.476 181.079 103.317 180.595 103 180.23C102.661 179.876 102.213 179.699 101.656 179.699C101.093 179.699 100.651 179.876 100.328 180.23C100.005 180.585 99.8433 181.069 99.8433 181.684C99.8433 182.288 100.005 182.775 100.328 183.145C100.645 183.493 101.088 183.668 101.656 183.668C102.218 183.668 102.666 183.493 103 183.145C103.317 182.78 103.476 182.293 103.476 181.684ZM105.945 189.09H103.273V185.73C103.273 185.543 103.283 185.288 103.304 184.965C103.32 184.684 103.341 184.47 103.367 184.324C103.018 184.908 102.643 185.314 102.242 185.543C101.809 185.788 101.268 185.91 100.617 185.91C99.5698 185.91 98.7209 185.52 98.0698 184.738C97.4084 183.952 97.0776 182.934 97.0776 181.684C97.0776 180.382 97.4084 179.353 98.0698 178.598C98.4032 178.217 98.7886 177.936 99.2261 177.754C99.6636 177.572 100.158 177.48 100.71 177.48C101.263 177.48 101.752 177.608 102.179 177.863C102.638 178.139 103.039 178.533 103.382 179.043V177.73L105.945 177.715V189.09ZM116.101 177.715V181.746C116.101 182.647 116.033 183.303 115.898 183.715C115.752 184.142 115.507 184.527 115.164 184.871C114.835 185.215 114.403 185.475 113.867 185.652C113.356 185.824 112.742 185.91 112.023 185.91C111.309 185.91 110.703 185.824 110.203 185.652C109.687 185.486 109.244 185.225 108.875 184.871C108.536 184.548 108.296 184.168 108.156 183.73C108.015 183.324 107.945 182.663 107.945 181.746V177.715H110.601V181.926C110.601 182.587 110.713 183.061 110.937 183.348C111.14 183.65 111.492 183.801 111.992 183.801C112.486 183.801 112.841 183.655 113.054 183.363C113.273 183.072 113.382 182.592 113.382 181.926V177.715H116.101ZM123.539 180.645C123.492 180.207 123.322 179.85 123.031 179.574C122.739 179.298 122.382 179.16 121.96 179.16C121.518 179.16 121.158 179.283 120.882 179.527C120.596 179.803 120.416 180.176 120.343 180.645H123.539ZM126.281 182.215H120.281C120.296 182.829 120.45 183.298 120.742 183.621C121.044 183.954 121.481 184.121 122.054 184.121C122.471 184.121 122.828 184.04 123.125 183.879C123.427 183.707 123.645 183.473 123.781 183.176L125.875 184.02C125.63 184.618 125.187 185.082 124.546 185.41C123.911 185.743 123.132 185.91 122.21 185.91C120.835 185.91 119.731 185.525 118.898 184.754C118.07 184.004 117.656 183.001 117.656 181.746C117.656 180.522 118.07 179.499 118.898 178.676C119.726 177.868 120.778 177.465 122.054 177.465C123.356 177.465 124.385 177.874 125.14 178.691C125.526 179.113 125.812 179.605 126 180.168C126.187 180.725 126.281 181.363 126.281 182.082V182.215ZM93.8901 201.605V193.715H96.6714V201.605H93.8901ZM94.2417 191.684H94.2573C94.2573 191.392 94.3589 191.152 94.562 190.965C94.7651 190.762 95.0099 190.66 95.2964 190.66C95.5985 190.66 95.8459 190.757 96.0386 190.949C96.2365 191.142 96.3354 191.387 96.3354 191.684C96.3354 191.986 96.2339 192.236 96.0308 192.434C95.8328 192.637 95.5881 192.738 95.2964 192.738C94.9995 192.738 94.7495 192.632 94.5464 192.418C94.3433 192.22 94.2417 191.975 94.2417 191.684ZM104.617 196.309C104.346 196.069 104.085 195.895 103.835 195.785C103.611 195.676 103.348 195.621 103.046 195.621C102.489 195.621 102.052 195.803 101.734 196.168C101.406 196.527 101.242 197.022 101.242 197.652C101.242 198.257 101.411 198.736 101.75 199.09C102.078 199.454 102.533 199.637 103.117 199.637C103.393 199.637 103.658 199.579 103.914 199.465C104.184 199.335 104.419 199.163 104.617 198.949V201.363C104.283 201.54 103.947 201.681 103.609 201.785C103.25 201.868 102.908 201.91 102.585 201.91C101.367 201.91 100.385 201.52 99.6401 200.738C99.3849 200.478 99.174 200.191 99.0073 199.879C98.8459 199.566 98.7209 199.228 98.6323 198.863C98.549 198.499 98.5073 198.1 98.5073 197.668C98.5073 196.423 98.8875 195.413 99.6479 194.637C100.414 193.855 101.403 193.465 102.617 193.465C102.997 193.465 103.359 193.507 103.703 193.59C104.036 193.673 104.341 193.796 104.617 193.957V196.309ZM106.265 201.605V193.715H109.046V201.605H106.265ZM106.617 191.684H106.632C106.632 191.392 106.734 191.152 106.937 190.965C107.14 190.762 107.385 190.66 107.671 190.66C107.973 190.66 108.221 190.757 108.414 190.949C108.611 191.142 108.71 191.387 108.71 191.684C108.71 191.986 108.609 192.236 108.406 192.434C108.208 192.637 107.963 192.738 107.671 192.738C107.375 192.738 107.125 192.632 106.921 192.418C106.718 192.22 106.617 191.975 106.617 191.684Z" fill="white"/>
</svg>
