<svg id="Calque_22" data-name="Calque 22" xmlns="http://www.w3.org/2000/svg" viewBox="0 0 152.53 53.5"><defs><style>.cls-1{fill:#fff;}.cls-2{fill:#4f00ec;}</style></defs><rect class="cls-1" width="152.53" height="53.5" rx="26.75"/><path class="cls-2" d="M178.24,413.23c-.05,0-.07,0-.07.09V417c0,.17-.12.17-.21.17h-1.69c-.09,0-.22,0-.22-.17.09-2.45.09-3.78.09-4.77,0-1.17,0-2.32-.09-3.49a2.68,2.68,0,0,1,2-.67c2.27,0,3.45.8,3.45,2.35A3,3,0,0,1,178.24,413.23Zm1.3-3c0-.56-.72-.61-1-.61s-.35.05-.35.24v1.42c0,.06,0,.12.13.12C178.71,411.45,179.54,410.88,179.54,410.28Z" transform="translate(-128.44 -402.71)"/><path class="cls-2" d="M187.9,417c0,.17-.18.17-.27.17h-1.92a.21.21,0,0,1-.21-.12l-.78-1.69c-.11-.22-.18-.34-.24-.34s-.09.12-.09.34V417c0,.17-.17.17-.26.17h-1.64c-.09,0-.22,0-.22-.17,0-.61.11-2.09.11-3.95s-.08-4.41-.08-4.5c0-.33,1.12-.48,2.1-.48,1.64,0,2.81.92,2.81,2.4a2.06,2.06,0,0,1-1.79,2.15c-.12,0-.11,0,0,.21A34.19,34.19,0,0,1,187.9,417Zm-3.59-6.06c0,.08,0,.1.16.1a1.1,1.1,0,0,0,1-1c0-.39-.32-.55-.91-.55-.25,0-.29,0-.29.24Z" transform="translate(-128.44 -402.71)"/><path class="cls-2" d="M192.61,415c.54,0,1.19,0,1.17.36l-.09,1.13c0,.49-.13.63-.38.63h-4.58c-.18,0-.18-.2-.18-.34V408.6c0-.3,1.34-.57,1.87-.57a22.29,22.29,0,0,1,3.24.21c.08,0,.3.05.3.57v1.3a.16.16,0,0,1-.17.17h-2.86c-.08,0-.09.1-.09.18v1h.91a.28.28,0,0,1,.31.26v1.21c0,.13-.05.2-.14.2H190.8c-.05,0-.06.05-.06.1v1.59c0,.13.06.18.2.18Zm-1.54-7.63a3.56,3.56,0,0,1,.3-1.19,1.34,1.34,0,0,1,.57-.1c.19,0,.33,0,.33.12s-.82,1.29-1.12,1.29C191.1,407.5,191.07,407.47,191.07,407.38Z" transform="translate(-128.44 -402.71)"/><path class="cls-2" d="M194.61,416.39v-1.11c0-.45.09-.53.29-.57.71-.13,3.13.27,3.13-.88,0-1.33-3.16-.59-3.16-3.14,0-2,2-2.66,3.76-2.66a6.38,6.38,0,0,1,1.17.09c.44.08.54.14.54.57v.79c0,.35,0,.52-.5.43a5.59,5.59,0,0,0-1.07-.1c-.94,0-1.35.32-1.35.87,0,1.46,2.9.68,2.9,3.72,0,2.23-1.56,2.72-3.2,2.72a18.25,18.25,0,0,1-2.06-.17C194.7,416.89,194.61,416.82,194.61,416.39Z" transform="translate(-128.44 -402.71)"/><path class="cls-2" d="M201.47,417.13c-.23,0-.28,0-.28-.13v-8.41c0-.3,1.43-.56,2.58-.56.17,0,.23,0,.23.27V417c0,.13-.08.13-.35.13Z" transform="translate(-128.44 -402.71)"/><path class="cls-2" d="M208.47,417.13c-3.08,0-3.17,0-3.17-.3s.11-1.55.11-3.87-.11-4.31-.11-4.39c0-.23,1-.56,2.06-.56a4.64,4.64,0,0,1,4.16,4.44C211.52,415.11,210.21,417.13,208.47,417.13Zm.53-4.68c0-1.09-.56-2-1.27-2a.41.41,0,0,0-.46.44v3.57c0,.18.13.26.39.26C208.51,414.74,209,413.87,209,412.45Z" transform="translate(-128.44 -402.71)"/><path class="cls-2" d="M216.1,415c.55,0,1.2,0,1.17.36l-.09,1.13c0,.49-.13.63-.38.63h-4.57c-.19,0-.19-.2-.19-.34V408.6c0-.3,1.34-.57,1.88-.57a22.17,22.17,0,0,1,3.23.21c.08,0,.3.05.3.57v1.3a.16.16,0,0,1-.17.17h-2.86c-.08,0-.09.1-.09.18v1h.91a.28.28,0,0,1,.31.26v1.21c0,.13-.05.2-.14.2h-1.12s-.06.05-.06.1v1.59c0,.13.06.18.21.18Z" transform="translate(-128.44 -402.71)"/><path class="cls-2" d="M224.5,408.31v8.57c0,.21-.05.25-.21.25h-1.35c-.16,0-.2,0-.35-.25-.05-.08-2.28-3.17-2.34-3.17s-.05,2.33-.05,3.16c0,.22-.07.26-.2.26h-1.56c-.14,0-.21-.07-.21-.17v-8.28c0-.18,1-.65,1.31-.65a.23.23,0,0,1,.21.09c0,.08,2.54,4.46,2.62,4.46s.17-2.94.17-4.27c0-.22.09-.28.26-.28h1.46C224.46,408,224.5,408.12,224.5,408.31Z" transform="translate(-128.44 -402.71)"/><path class="cls-2" d="M232.94,408c.26,0,.44.23.44.56v1.21c0,.54-.09.66-.55.66h-2.21c-.15,0-.17.05-.17.17,0,2.23.09,4.2.2,6.32,0,.18-.11.18-.26.18h-2.12c-.16,0-.27,0-.26-.18.11-2.12.19-4.09.19-6.32,0-.11,0-.17-.19-.17h-2.26c-.46,0-.47-.21-.47-.7v-1.2c0-.35.14-.53.41-.53Z" transform="translate(-128.44 -402.71)"/><path class="cls-2" d="M165.26,432.73c-3.08,0-3.17,0-3.17-.3s.12-1.55.12-3.88-.12-4.3-.12-4.38c0-.23,1-.55,2.07-.55a4.63,4.63,0,0,1,4.16,4.43C168.32,430.71,167,432.73,165.26,432.73Zm.54-4.68c0-1.09-.56-2-1.28-2a.4.4,0,0,0-.45.44v3.57c0,.18.13.26.39.26C165.3,430.34,165.8,429.46,165.8,428.05Z" transform="translate(-128.44 -402.71)"/><path class="cls-2" d="M172.89,430.61c.55,0,1.2,0,1.17.36L174,432.1c0,.48-.13.63-.37.63H169c-.18,0-.18-.2-.18-.34V424.2c0-.3,1.34-.57,1.87-.57a22.29,22.29,0,0,1,3.24.21c.07,0,.3.05.3.57v1.3a.17.17,0,0,1-.17.17h-2.86c-.08,0-.09.1-.09.18v1H172a.28.28,0,0,1,.31.26v1.21c0,.13,0,.2-.14.2h-1.12c-.06,0-.07.05-.07.1v1.59c0,.13.07.18.21.18Z" transform="translate(-128.44 -402.71)"/><path class="cls-2" d="M178.41,424.19c0-.24,1.23-.56,2.36-.56.09,0,.2,0,.2.1s-.39,4.37-.39,5.28c0,.4-.08.91.23.91.48,0,2.59-.33,2.9-.33.14,0,.19.06.19.23l-.1,2.74c0,.17-.18.17-.36.17h-4.83c-.09,0-.2,0-.2-.17Z" transform="translate(-128.44 -402.71)"/><path class="cls-2" d="M185.71,423.62c.29,0,.59.14.5.42s-.82,2.17-1.15,2.17h-.43c-.28,0,.18-2.1.22-2.24C184.94,423.62,185.39,423.62,185.71,423.62Z" transform="translate(-128.44 -402.71)"/><path class="cls-2" d="M188.77,432.73H187c-.2,0-.3,0-.22-.21L190,424.3a3.27,3.27,0,0,1,1.82-.67c.14,0,.24,0,.26.09l3,8.84c0,.05-.05.17-.27.17h-1.74a.47.47,0,0,1-.4-.21c-.06-.13-.38-1.73-.56-1.74l-2.28-.12c-.35,0-.77,1.63-.86,1.89A.23.23,0,0,1,188.77,432.73Zm1.8-4.29c-.09.18-.06.25.17.25h.81c.08,0,.21-.06.13-.3l-.25-.86c-.05-.2-.09-.3-.14-.3s-.12.1-.22.3Z" transform="translate(-128.44 -402.71)"/><path class="cls-2" d="M195.53,432v-1.11c0-.45.09-.53.28-.57.72-.13,3.14.27,3.14-.88,0-1.33-3.16-.59-3.16-3.14,0-2,2-2.66,3.75-2.66a6.24,6.24,0,0,1,1.17.09c.44.08.55.14.55.57v.79c0,.35,0,.52-.51.43a5.5,5.5,0,0,0-1.06-.1c-.94,0-1.36.32-1.36.87,0,1.46,2.9.68,2.9,3.72,0,2.23-1.56,2.71-3.19,2.71a18.16,18.16,0,0,1-2.06-.16C195.62,432.49,195.53,432.42,195.53,432Z" transform="translate(-128.44 -402.71)"/><path class="cls-2" d="M201.65,432v-1.11c0-.45.09-.53.29-.57.71-.13,3.13.27,3.13-.88,0-1.33-3.16-.59-3.16-3.14,0-2,2-2.66,3.76-2.66a6.38,6.38,0,0,1,1.17.09c.44.08.54.14.54.57v.79c0,.35,0,.52-.51.43a5.43,5.43,0,0,0-1.06-.1c-.94,0-1.35.32-1.35.87,0,1.46,2.9.68,2.9,3.72,0,2.23-1.56,2.71-3.2,2.71a18.16,18.16,0,0,1-2.06-.16C201.74,432.49,201.65,432.42,201.65,432Z" transform="translate(-128.44 -402.71)"/><path class="cls-2" d="M212.09,430.61c.54,0,1.19,0,1.17.36l-.09,1.13c0,.48-.13.63-.38.63h-4.58c-.18,0-.18-.2-.18-.34V424.2c0-.3,1.34-.57,1.87-.57a22.29,22.29,0,0,1,3.24.21c.08,0,.3.05.3.57v1.3a.16.16,0,0,1-.17.17h-2.86c-.08,0-.09.1-.09.18v1h.91a.28.28,0,0,1,.31.26v1.21c0,.13,0,.2-.14.2h-1.12c-.05,0-.06.05-.06.1v1.59c0,.13.06.18.2.18Z" transform="translate(-128.44 -402.71)"/><path class="cls-2" d="M222.19,423.89v8.57a.25.25,0,0,1-.27.27H220.5c-.23,0-.34-.07-.34-.24a12.2,12.2,0,0,0-.41-3.16c-.15,0-.93,2.19-1.1,2.19h-.75c-.17,0-1-2.19-1.11-2.19a12.68,12.68,0,0,0-.41,3.16c0,.17,0,.24-.17.24h-1.63c-.15,0-.23-.08-.23-.27v-8.21c0-.28,1.43-.62,1.76-.62.13,0,.18,0,.27.22a43.18,43.18,0,0,0,1.9,4.09c.15,0,1.83-3.9,1.92-4.13a.26.26,0,0,1,.29-.18h1.34C222,423.63,222.19,423.63,222.19,423.89Z" transform="translate(-128.44 -402.71)"/><path class="cls-2" d="M229,430.1c0,1.87-1.2,2.63-4.12,2.63h-1.55c-.1,0-.17-.11-.17-.26s.07-3,.07-4.75c0-2.36-.12-3.34-.12-3.47,0-.34.77-.62,1.72-.62,1.7,0,2.91.92,2.91,2.23a1.3,1.3,0,0,1-1.3,1.37A2.73,2.73,0,0,1,229,430.1Zm-3.91-3.86c0,.1.07.16.23.16a.62.62,0,0,0,.68-.52c0-.26-.29-.46-.68-.46-.16,0-.23.05-.23.15Zm0,4.15c0,.13,0,.14.31.14.67,0,1-.15,1-.51s-.34-.54-1.11-.54c-.14,0-.19,0-.19.17Z" transform="translate(-128.44 -402.71)"/><path class="cls-2" d="M229.51,424.19c0-.24,1.23-.56,2.37-.56.09,0,.19,0,.19.1s-.39,4.37-.39,5.28c0,.4-.08.91.23.91.48,0,2.59-.33,2.9-.33.15,0,.2.06.2.23l-.11,2.74c0,.17-.18.17-.36.17h-4.82c-.09,0-.21,0-.21-.17Z" transform="translate(-128.44 -402.71)"/><path class="cls-2" d="M239.84,430.61c.55,0,1.2,0,1.17.36l-.09,1.13c0,.48-.13.63-.38.63H236c-.18,0-.18-.2-.18-.34V424.2c0-.3,1.34-.57,1.87-.57a22.29,22.29,0,0,1,3.24.21c.07,0,.3.05.3.57v1.3a.17.17,0,0,1-.17.17h-2.86c-.08,0-.09.1-.09.18v1H239a.28.28,0,0,1,.31.26v1.21c0,.13-.05.2-.15.2H238c-.06,0-.07.05-.07.1v1.59c0,.13.07.18.21.18ZM238.31,423a3.39,3.39,0,0,1,.3-1.19,1.34,1.34,0,0,1,.57-.1c.18,0,.32,0,.32.12s-.81,1.28-1.11,1.28C238.33,423.09,238.31,423.07,238.31,423Z" transform="translate(-128.44 -402.71)"/><path class="cls-2" d="M246.16,430.61c.55,0,1.2,0,1.17.36l-.09,1.13c0,.48-.13.63-.38.63h-4.57c-.18,0-.18-.2-.18-.34V424.2c0-.3,1.33-.57,1.87-.57a22.1,22.1,0,0,1,3.23.21c.08,0,.3.05.3.57v1.3a.16.16,0,0,1-.17.17h-2.86c-.07,0-.09.1-.09.18v1h.91c.19,0,.32.11.32.26v1.21c0,.13-.06.2-.15.2h-1.12s-.06.05-.06.1v1.59c0,.13.06.18.21.18Z" transform="translate(-128.44 -402.71)"/><path class="cls-2" d="M156.26,439.51v8.57c0,.21,0,.25-.21.25H154.7c-.16,0-.19,0-.35-.25,0-.08-2.28-3.17-2.34-3.17s0,2.33,0,3.16c0,.22-.07.26-.2.26H150.2c-.14,0-.21-.07-.21-.17v-8.28c0-.18,1-.65,1.32-.65a.23.23,0,0,1,.21.09c0,.08,2.53,4.46,2.61,4.46s.17-2.94.17-4.27c0-.22.09-.28.26-.28H156C156.22,439.23,156.26,439.32,156.26,439.51Z" transform="translate(-128.44 -402.71)"/><path class="cls-2" d="M158.85,448.33H157c-.19,0-.3,0-.22-.21l3.26-8.22a3.27,3.27,0,0,1,1.82-.67c.15,0,.24,0,.26.09l3,8.84s0,.17-.27.17h-1.74a.45.45,0,0,1-.4-.21c-.06-.13-.38-1.73-.56-1.74l-2.28-.12c-.35,0-.76,1.63-.86,1.89A.23.23,0,0,1,158.85,448.33Zm1.8-4.29c-.09.18-.06.25.17.25h.81c.08,0,.21-.06.13-.3l-.25-.86c0-.2-.09-.3-.14-.3s-.12.1-.22.3Z" transform="translate(-128.44 -402.71)"/><path class="cls-2" d="M171.7,439.23c.26,0,.45.23.45.56V441c0,.54-.09.66-.55.66h-2.21c-.16,0-.17,0-.17.17,0,2.23.09,4.2.2,6.32,0,.18-.11.18-.26.18H167c-.16,0-.28,0-.26-.18.11-2.12.19-4.09.19-6.32,0-.11,0-.17-.19-.17h-2.26c-.46,0-.47-.21-.47-.7v-1.2c0-.35.14-.53.41-.53Z" transform="translate(-128.44 -402.71)"/><path class="cls-2" d="M173.54,448.33c-.24,0-.29,0-.29-.13v-8.41c0-.3,1.43-.56,2.59-.56.17,0,.22,0,.22.27v8.7c0,.13-.08.13-.35.13Z" transform="translate(-128.44 -402.71)"/><path class="cls-2" d="M183.55,443.6c0,3.65-.89,4.9-3.08,4.9-2.37,0-3.31-1.46-3.31-4.92,0-3.18,1-4.51,3.06-4.51C182.46,439.07,183.55,440.61,183.55,443.6Zm-3.14,2.73c.81,0,1-.38,1-2.92,0-1.65-.16-2.32-1.06-2.32s-1,.67-1,2.23C179.33,445.86,179.52,446.33,180.41,446.33Z" transform="translate(-128.44 -402.71)"/><path class="cls-2" d="M190.61,439.51v8.57c0,.21-.06.25-.21.25h-1.35c-.16,0-.2,0-.35-.25-.06-.08-2.28-3.17-2.35-3.17s0,2.33,0,3.16c0,.22-.06.26-.19.26h-1.56c-.14,0-.21-.07-.21-.17v-8.28c0-.18,1-.65,1.31-.65a.23.23,0,0,1,.21.09c0,.08,2.54,4.46,2.61,4.46s.17-2.94.17-4.27c0-.22.09-.28.26-.28h1.47C190.57,439.23,190.61,439.32,190.61,439.51Z" transform="translate(-128.44 -402.71)"/><path class="cls-2" d="M193.19,448.33h-1.8c-.2,0-.3,0-.22-.21l3.26-8.22a3.27,3.27,0,0,1,1.82-.67c.14,0,.23,0,.26.09l3,8.84s-.05.17-.27.17h-1.74a.47.47,0,0,1-.41-.21c0-.13-.37-1.73-.56-1.74l-2.27-.12c-.35,0-.77,1.63-.86,1.89A.24.24,0,0,1,193.19,448.33ZM195,444c-.09.18-.06.25.17.25H196c.07,0,.2-.06.13-.3l-.25-.86c-.05-.2-.09-.3-.14-.3s-.12.1-.23.3Z" transform="translate(-128.44 -402.71)"/><path class="cls-2" d="M200.08,439.79c0-.24,1.24-.56,2.37-.56.09,0,.19,0,.19.1s-.39,4.37-.39,5.28c0,.4-.07.91.24.91.48,0,2.58-.32,2.9-.32.14,0,.19.05.19.22l-.1,2.74c0,.17-.18.17-.37.17h-4.82c-.09,0-.21,0-.21-.17Z" transform="translate(-128.44 -402.71)"/><path class="cls-2" d="M210.42,446.21c.54,0,1.19,0,1.17.36l-.09,1.13c0,.49-.13.63-.38.63h-4.58c-.18,0-.18-.2-.18-.34V439.8c0-.3,1.34-.57,1.87-.57a22.29,22.29,0,0,1,3.24.21c.08,0,.3.05.3.57v1.3a.17.17,0,0,1-.17.17h-2.86c-.08,0-.09.1-.09.18v1h.91a.28.28,0,0,1,.31.26v1.21c0,.13-.05.2-.14.2h-1.12c-.05,0-.07.05-.07.1V446c0,.13.07.18.21.18Z" transform="translate(-128.44 -402.71)"/><path class="cls-2" d="M218.41,439.71c.09-.35.67-.5,1.07-.5s.94.15.84.49l-2.15,8.17c-.08.33-.68.47-1.1.47s-.89-.14-.8-.48Z" transform="translate(-128.44 -402.71)"/><path class="cls-2" d="M224.56,447.59v-1.11c0-.45.09-.53.29-.57.71-.13,3.13.27,3.13-.88,0-1.33-3.16-.59-3.16-3.14,0-2,2-2.66,3.76-2.66a6.38,6.38,0,0,1,1.17.09c.44.08.54.14.54.57v.79c0,.36,0,.52-.5.43a6.54,6.54,0,0,0-1.07-.1c-.93,0-1.35.32-1.35.87,0,1.46,2.9.68,2.9,3.72,0,2.23-1.56,2.72-3.2,2.72a18.07,18.07,0,0,1-2-.17C224.65,448.09,224.56,448,224.56,447.59Z" transform="translate(-128.44 -402.71)"/><path class="cls-2" d="M235,446.21c.55,0,1.2,0,1.17.36l-.09,1.13c0,.49-.13.63-.38.63h-4.57c-.19,0-.19-.2-.19-.34V439.8c0-.3,1.34-.57,1.88-.57a22.17,22.17,0,0,1,3.23.21c.08,0,.3.05.3.57v1.3a.16.16,0,0,1-.17.17h-2.86c-.07,0-.09.1-.09.18v1h.91a.28.28,0,0,1,.31.26v1.21c0,.13,0,.2-.14.2h-1.12c-.05,0-.06.05-.06.1V446c0,.13.06.18.21.18Zm-1.53-7.63a3.33,3.33,0,0,1,.3-1.19,1.3,1.3,0,0,1,.57-.1c.18,0,.32,0,.32.12s-.82,1.28-1.12,1.28C233.49,438.69,233.47,438.67,233.47,438.58Z" transform="translate(-128.44 -402.71)"/><path class="cls-2" d="M243.4,439.51v8.57c0,.21-.05.25-.21.25h-1.35c-.16,0-.2,0-.35-.25-.05-.08-2.28-3.17-2.34-3.17s-.05,2.33-.05,3.16c0,.22-.07.26-.2.26h-1.56c-.14,0-.21-.07-.21-.17v-8.28c0-.18,1-.65,1.32-.65a.22.22,0,0,1,.2.09c0,.08,2.54,4.46,2.62,4.46s.17-2.94.17-4.27c0-.22.09-.28.26-.28h1.47C243.36,439.23,243.4,439.32,243.4,439.51Z" transform="translate(-128.44 -402.71)"/><path class="cls-2" d="M246,448.33h-1.81c-.2,0-.3,0-.22-.21l3.26-8.22a3.27,3.27,0,0,1,1.82-.67c.14,0,.23,0,.26.09l3,8.84s-.05.17-.27.17h-1.74a.48.48,0,0,1-.41-.21c0-.13-.37-1.73-.55-1.74l-2.28-.12c-.35,0-.77,1.63-.86,1.89A.23.23,0,0,1,246,448.33Zm1.8-4.29c-.09.18-.06.25.17.25h.81c.08,0,.21-.06.13-.3l-.25-.86c-.05-.2-.09-.3-.14-.3s-.12.1-.22.3Z" transform="translate(-128.44 -402.71)"/><path class="cls-2" d="M258.84,439.23c.26,0,.45.23.45.56V441c0,.54-.1.66-.55.66h-2.21c-.16,0-.17,0-.17.17,0,2.23.09,4.2.2,6.32,0,.18-.11.18-.26.18h-2.12c-.16,0-.28,0-.26-.18.11-2.12.19-4.09.19-6.32,0-.11,0-.17-.19-.17h-2.27c-.45,0-.46-.21-.46-.7v-1.2c0-.35.14-.53.41-.53Z" transform="translate(-128.44 -402.71)"/></svg>