<svg id="Calque_13" data-name="Calque 13" xmlns="http://www.w3.org/2000/svg" viewBox="0 0 133.63 143.03"><defs><style>.cls-1{fill:#5b00f5;}.cls-2{fill:#4202ce;}.cls-3{fill:#fbc500;}.cls-4{fill:#200ff4;}.cls-5{fill:#fff;}.cls-6{fill:#b5342e;}</style></defs><path class="cls-1" d="M253.29,467.26h-8.45v-11.7a1.87,1.87,0,0,0-2-1.95h-10.4v-43.9h10.4a1.87,1.87,0,0,0,2-1.95V391.5a1.91,1.91,0,0,0-1.3-1.79L190,369h-3l-53.68,20.71a1.9,1.9,0,0,0-1.3,1.79v16.42a1.87,1.87,0,0,0,1.95,1.95h11.21V453.6H134a1.88,1.88,0,0,0-1.95,1.95v11.71h-8.46a1.87,1.87,0,0,0-2,1.95v15.44a1.87,1.87,0,0,0,2,2H253.29a1.87,1.87,0,0,0,2-2V469.21A1.87,1.87,0,0,0,253.29,467.26ZM137.71,404.18V394.11l50.72-19.84,50.72,19.84v10.07Zm89.09,5.53v43.73H216.07V409.71Zm-16.26,0v43.73H199.81V409.71Zm-16.42,0v43.73H183.55V409.71Zm-16.26,0v43.73H167.13V409.71Zm-16.42,0v43.73H150.71V409.71ZM137.71,459.3H239.15v8H137.71Zm111.85,21.62H127.3v-8H249.56Z" transform="translate(-121.61 -343.57)"/><rect class="cls-2" x="5.69" y="129.38" width="122.26" height="7.97"/><rect class="cls-2" x="16.1" y="115.73" width="101.44" height="7.96"/><rect class="cls-3" x="94.46" y="66.14" width="10.73" height="43.73"/><rect class="cls-3" x="78.2" y="66.14" width="10.73" height="43.73"/><rect class="cls-3" x="61.94" y="66.14" width="10.57" height="43.73"/><rect class="cls-3" x="45.52" y="66.14" width="10.73" height="43.73"/><rect class="cls-3" x="29.1" y="66.14" width="10.73" height="43.73"/><polygon class="cls-2" points="117.54 50.54 117.54 60.61 16.1 60.61 16.1 50.54 66.82 30.7 117.54 50.54"/><path class="cls-1" d="M187.32,369.43V350.17h2.2v19.26Z" transform="translate(-121.61 -343.57)"/><rect class="cls-4" x="65.57" width="6.47" height="10.95"/><rect class="cls-5" x="72.04" width="6.47" height="10.95"/><rect class="cls-6" x="78.49" width="5.53" height="10.95"/></svg>