<svg id="Calque_1" data-name="Calque 1" xmlns="http://www.w3.org/2000/svg" xmlns:xlink="http://www.w3.org/1999/xlink" viewBox="0 0 386 298.02"><defs><style>.cls-1,.cls-10,.cls-14,.cls-9{fill:none;}.cls-2{fill:#f8c133;}.cls-3{clip-path:url(#clip-path);}.cls-4{fill:#b5e8f4;}.cls-5{fill:#99d3ea;}.cls-6{fill:#83b6c6;}.cls-7{fill:#fcfcfc;}.cls-8{fill:#b5e9ff;}.cls-10,.cls-9{stroke:#fcfcfc;stroke-miterlimit:10;}.cls-9{stroke-width:2.49px;}.cls-10{stroke-width:2.49px;}.cls-11{fill:#39527a;}.cls-12{fill:#668ad3;}.cls-13{fill:#202c3f;}.cls-14{stroke:#202c3f;stroke-linecap:round;stroke-linejoin:round;stroke-width:2.34px;}.cls-15{fill:#7197f4;}.cls-16{fill:#200ff4;}.cls-17{fill:#fff;}.cls-18{fill:#b5342e;}</style><clipPath id="clip-path" transform="translate(-14.18 -189.75)"><path class="cls-1" d="M208.39,190.1h0a69.4,69.4,0,0,1,69.4,69.4V372.14a0,0,0,0,1,0,0H139a0,0,0,0,1,0,0V259.51A69.4,69.4,0,0,1,208.39,190.1Z"/></clipPath></defs><path class="cls-2" d="M286.15,456.12a2.75,2.75,0,0,0,0,5.5H294a2.75,2.75,0,0,0,0-5.5Z" transform="translate(-14.18 -189.75)"/><path class="cls-2" d="M360.15,352.12a2.75,2.75,0,0,0,0,5.5H368a2.75,2.75,0,0,0,0-5.5Z" transform="translate(-14.18 -189.75)"/><path class="cls-2" d="M19.45,275.1c-2.9,0-5.27,1.92-5.27,4.26s2.37,4.26,5.27,4.26h15c2.89,0,5.26-1.92,5.26-4.26s-2.37-4.26-5.26-4.26Z" transform="translate(-14.18 -189.75)"/><path class="cls-2" d="M113.45,231.1c-2.9,0-5.27,1.92-5.27,4.26s2.37,4.26,5.27,4.26h15c2.89,0,5.26-1.92,5.26-4.26s-2.37-4.26-5.26-4.26Z" transform="translate(-14.18 -189.75)"/><path class="cls-2" d="M87.19,439.55a2.7,2.7,0,0,0-.81-1.93,2.75,2.75,0,0,0-1.94-.81H76.59a2.75,2.75,0,1,0,0,5.49h7.85A2.75,2.75,0,0,0,87.19,439.55Z" transform="translate(-14.18 -189.75)"/><path class="cls-2" d="M328.86,434.39h0Z" transform="translate(-14.18 -189.75)"/><path class="cls-2" d="M400.16,407.94a9.53,9.53,0,0,1-9.48,10.16h-62a9.53,9.53,0,0,0-9.48,10.17A9.71,9.71,0,0,0,329,437.1h2.07a5.23,5.23,0,0,1,5.29,5v.06a7.82,7.82,0,0,1-6.79,7.75l-.38.14L281,450a8.28,8.28,0,0,0-8.27,8.82,8.47,8.47,0,0,0,8.55,7.73H295.5c7.82,0,11.75,4.74,11.75,10.57a10.79,10.79,0,0,1-10.79,10.6H110.13a10.56,10.56,0,0,1-10.59-10.27c-.21-9.48,8.84-10.9,9.63-10.9h6.91a2.4,2.4,0,0,0,2.4-2.64,2.51,2.51,0,0,0-2.54-2.19H88.71a8.16,8.16,0,0,1,0-16.32h13.81a6,6,0,0,0,0-12H80.32a6.2,6.2,0,0,1-6.14-6.15c0-.05,0-.1,0-.15a9.72,9.72,0,0,0-9.82-9.07H50a9.71,9.71,0,0,1-9.79-8.83,9.53,9.53,0,0,1,9.48-10.17h23a9.53,9.53,0,0,0,9.48-10.16,9.71,9.71,0,0,0-9.79-8.84H61a9.71,9.71,0,0,1-9.79-8.83,9.53,9.53,0,0,1,9.48-10.17h18a9.53,9.53,0,0,0,9.48-10.16,9.71,9.71,0,0,0-9.79-8.84H24a9.71,9.71,0,0,1-9.79-8.83,9.53,9.53,0,0,1,9.48-10.17h94a9.53,9.53,0,0,0,9.48-10.16,9.71,9.71,0,0,0-9.79-8.84H54a9.71,9.71,0,0,1-9.79-8.83,9.53,9.53,0,0,1,9.48-10.17h18a9.53,9.53,0,0,0,9.48-10.16,9.71,9.71,0,0,0-9.79-8.84H38a9.71,9.71,0,0,1-9.79-8.83,9.53,9.53,0,0,1,9.48-10.17H383.37a9.71,9.71,0,0,1,9.79,8.84,9.53,9.53,0,0,1-9.48,10.16h-77a9.53,9.53,0,0,0-9.48,10.17A9.71,9.71,0,0,0,307,285.1h76.38a9.71,9.71,0,0,1,9.79,8.84,9.53,9.53,0,0,1-9.48,10.16h-44a9.53,9.53,0,0,0-9.48,10.17A9.71,9.71,0,0,0,340,323.1h47.38a9.71,9.71,0,0,1,9.79,8.84,9.53,9.53,0,0,1-9.48,10.16h-61a9.53,9.53,0,0,0-9.48,10.17A9.71,9.71,0,0,0,327,361.1h46.38a9.71,9.71,0,0,1,9.79,8.84,9.53,9.53,0,0,1-9.48,10.16h-20a9.53,9.53,0,0,0-9.48,10.17A9.71,9.71,0,0,0,354,399.1h36.38A9.71,9.71,0,0,1,400.16,407.94Z" transform="translate(-14.18 -189.75)"/><g class="cls-3"><path class="cls-4" d="M193.79,0h0a69.4,69.4,0,0,1,69.4,69.4V182a0,0,0,0,1,0,0H124.39a0,0,0,0,1,0,0V69.4A69.4,69.4,0,0,1,193.79,0Z"/><polygon class="cls-5" points="124.8 53.08 155.97 53.08 155.97 182.03 124.39 182.03 124.8 53.08"/><polygon class="cls-5" points="232.03 53.08 263.2 53.08 263.2 182.03 231.61 182.03 232.03 53.08"/><polygon class="cls-6" points="207.09 71.03 238.26 71.03 238.26 182.03 206.68 182.03 207.09 71.03"/><rect class="cls-7" x="213.33" y="27.84" width="56.52" height="9.28" rx="4.64"/><rect class="cls-7" x="194.62" y="18.92" width="56.52" height="9.28" rx="4.64"/><rect class="cls-7" x="137.27" y="35.34" width="32.42" height="9.28" rx="4.64"/><rect class="cls-7" x="182.16" y="83.16" width="32.42" height="9.28" rx="4.64"/><rect class="cls-7" x="139.76" y="92.44" width="32.42" height="9.28" rx="4.64"/><polygon class="cls-8" points="143.08 181.68 143.08 115.29 201.27 115.29 201.27 182.03 143.08 181.68"/></g><line class="cls-9" x1="194.62" y1="0.36" x2="194.62" y2="212.31"/><line class="cls-10" x1="125.63" y1="76.08" x2="263.54" y2="76.08"/><line class="cls-9" x1="125.71" y1="149.22" x2="263.54" y2="149.22"/><path class="cls-11" d="M233.51,364.84l16.62,16.63H172l16.63-16.63L172,326.62h13.3l-4-17.09-2.63-11.17c0-15.61,14.51-28.26,32.41-28.26s32.42,12.65,32.42,28.26l-2.63,11.17-4,17.09h13.29Z" transform="translate(-14.18 -189.75)"/><path class="cls-12" d="M188.28,323l1.85,7.85A17.48,17.48,0,0,1,188.28,323Z" transform="translate(-14.18 -189.75)"/><path class="cls-12" d="M233.87,323a17.61,17.61,0,0,1-1.85,7.85Z" transform="translate(-14.18 -189.75)"/><path class="cls-13" d="M172.18,381.47s10,4.63,34.85,4.63a193.78,193.78,0,0,0,43.15-4.63Z" transform="translate(-14.18 -189.75)"/><rect class="cls-13" x="192.61" y="194.06" width="6.04" height="33.9"/><path class="cls-14" d="M193,422.38s7.59-5.26,16.95-5.26A25.68,25.68,0,0,1,226.27,423" transform="translate(-14.18 -189.75)"/><line class="cls-14" x1="195.72" y1="226.79" x2="195.72" y2="239.06"/><circle class="cls-14" cx="177.6" cy="234.97" r="2.34"/><circle class="cls-14" cx="196.31" cy="241.98" r="2.34"/><circle class="cls-14" cx="213.84" cy="234.97" r="2.34"/><polygon class="cls-15" points="141.37 164.83 248.91 164.83 264.69 177.69 123.83 177.69 141.37 164.83"/><rect class="cls-12" x="123.83" y="177.69" width="141.44" height="4.68"/><rect class="cls-15" x="126.95" y="182.37" width="3.9" height="68.97"/><polygon class="cls-12" points="133.29 182.37 133.29 250.17 130.85 251.34 130.85 182.37 133.29 182.37"/><rect class="cls-15" x="142.14" y="182.37" width="3.9" height="52.19"/><polygon class="cls-12" points="148.49 182.37 148.49 233.68 146.04 234.56 146.04 182.37 148.49 182.37"/><rect class="cls-15" x="257.48" y="182.52" width="3.9" height="68.97"/><polygon class="cls-12" points="255.04 182.52 255.04 250.32 257.48 251.49 257.48 182.52 255.04 182.52"/><rect class="cls-15" x="244.04" y="182.37" width="3.9" height="52.6"/><polygon class="cls-12" points="241.59 182.37 241.59 234.08 244.04 234.97 244.04 182.37 241.59 182.37"/><rect class="cls-16" x="141.43" y="148.31" width="4.91" height="8.31"/><rect class="cls-17" x="146.34" y="148.31" width="4.91" height="8.31"/><rect class="cls-18" x="151.24" y="148.31" width="4.2" height="8.31"/><rect class="cls-11" x="141.43" y="156.62" width="0.83" height="13.3"/><ellipse class="cls-11" cx="142.26" cy="169.09" rx="4.99" ry="0.83"/></svg>