<svg id="Calque_11" data-name="Calque 11" xmlns="http://www.w3.org/2000/svg" viewBox="0 0 133.36 159.08"><defs><style>.cls-1{fill:#5b00f5;}.cls-2{fill:#4202ce;}.cls-3{fill:#fbc500;}.cls-4{fill:#200ff4;}.cls-5{fill:#fff;}.cls-6{fill:#b5342e;}</style></defs><path class="cls-1" d="M205.83,350.72c-18.17,1.39-33.62,16.92-34.92,35.09h-10.7a3.51,3.51,0,0,0-3.51,3.51v7H146.16a3.5,3.5,0,0,0-3.5,3.5v10.53a3.52,3.52,0,0,0,3.5,3.51h7v7a3.53,3.53,0,0,0,3.51,3.51h3.51V456H156.7a3.51,3.51,0,0,0-3.51,3.51v7h-7a3.51,3.51,0,0,0-3.5,3.51v10.53a3.5,3.5,0,0,0,3.5,3.51H272.51a3.52,3.52,0,0,0,3.51-3.51V470a3.54,3.54,0,0,0-3.51-3.51h-7v-7A3.54,3.54,0,0,0,262,456h-3.51V424.42H262a3.53,3.53,0,0,0,3.51-3.51v-7h7a3.52,3.52,0,0,0,3.51-3.51V399.85a3.5,3.5,0,0,0-3.51-3.5H262v-7a3.52,3.52,0,0,0-3.51-3.51H247.94c-1.39-18.17-16.91-33.61-35.09-34.91m27.86,34.91H226.89a58.55,58.55,0,0,0-8.15-26.67A31.71,31.71,0,0,1,240.71,385.81Zm-31.37-26.95c7.75,7.58,9.79,20.71,10.32,26.95H199C199.55,379.57,201.58,366.44,209.34,358.86Zm-9.23.28A58.42,58.42,0,0,0,192,385.81h-14A31.72,31.72,0,0,1,200.11,359.14Zm-36.4,33.7H255v3.51H163.71Zm-14,14v-3.51H269v3.51Zm77.2,24.57H191.79a3.51,3.51,0,0,0,0,7v28.08h-7v-7a3.53,3.53,0,0,0-3.51-3.51h-3.51V424.42h3.51a3.53,3.53,0,0,0,3.51-3.51v-7h49.14v7a3.53,3.53,0,0,0,3.51,3.51h3.51V456h-3.51a3.52,3.52,0,0,0-3.52,3.51v7h-7V438.45A3.51,3.51,0,0,0,226.88,431.44Zm-7,7v28.08H198.81V438.45ZM160.21,417.4v-3.51h17.54v3.51Zm10.53,7V456h-3.52V424.42ZM160.21,463h17.54v3.51H160.21ZM269,473.55v3.51H149.68v-3.51ZM258.48,463v3.51H240.93V463Zm-10.54-7V424.42h3.51V456Zm-7-38.6v-3.51h17.54v3.51Zm-32.6-66.54V331.6h2.2v19.26Z" transform="translate(-142.66 -325)"/><rect class="cls-2" x="105.28" y="99.42" width="3.51" height="31.59"/><rect class="cls-2" x="17.55" y="138.02" width="17.54" height="3.51"/><rect class="cls-2" x="98.27" y="138.02" width="17.55" height="3.51"/><rect class="cls-2" x="98.27" y="88.89" width="17.54" height="3.51"/><rect class="cls-2" x="17.55" y="88.89" width="17.54" height="3.51"/><rect class="cls-2" x="24.57" y="99.42" width="3.51" height="31.59"/><rect class="cls-2" x="7.02" y="148.55" width="119.32" height="3.51"/><rect class="cls-3" x="56.15" y="113.45" width="21.05" height="28.08"/><path class="cls-2" d="M240.93,424.42V456h-3.51a3.52,3.52,0,0,0-3.52,3.51v7h-7V438.45a3.51,3.51,0,0,0,0-7H191.79a3.51,3.51,0,0,0,0,7v28.08h-7v-7a3.53,3.53,0,0,0-3.51-3.51h-3.51V424.42h3.51a3.53,3.53,0,0,0,3.51-3.51v-7h49.14v7a3.53,3.53,0,0,0,3.51,3.51Z" transform="translate(-142.66 -325)"/><rect class="cls-2" x="7.02" y="78.36" width="119.32" height="3.51"/><rect class="cls-2" x="21.06" y="67.84" width="91.25" height="3.51"/><path class="cls-2" d="M240.71,385.81H226.89a58.55,58.55,0,0,0-8.15-26.67A31.71,31.71,0,0,1,240.71,385.81Z" transform="translate(-142.66 -325)"/><path class="cls-2" d="M219.66,385.81H199c.53-6.24,2.56-19.37,10.32-26.95C217.09,366.44,219.13,379.57,219.66,385.81Z" transform="translate(-142.66 -325)"/><path class="cls-2" d="M200.11,359.14A58.42,58.42,0,0,0,192,385.81h-14A31.72,31.72,0,0,1,200.11,359.14Z" transform="translate(-142.66 -325)"/><rect class="cls-4" x="65.53" width="6.47" height="10.95"/><rect class="cls-5" x="72" width="6.47" height="10.95"/><rect class="cls-6" x="78.45" width="5.53" height="10.95"/></svg>