<svg width="340" height="140" xmlns="http://www.w3.org/2000/svg">
 <g>
  <title>Layer 1</title>
  <rect id="svg_3" class="cls-2" x="1" y="40" width="33.14" height="8.11" rx="4.05" fill="#b29df4"/>
  <rect id="svg_4" class="cls-2" x="162.27" y="40" width="47.5" height="8.11" rx="4.05" fill="#b29df4"/>
  <rect id="svg_5" class="cls-2" x="72.8" y="56.22" width="47.5" height="8.11" rx="4.05" fill="#b29df4"/>
  <rect id="svg_6" class="cls-2" x="291.5" y="104.86" width="47.5" height="8.11" rx="4.05" fill="#b29df4"/>
  <rect id="svg_7" class="cls-2" x="230.75" y="88.65" width="47.5" height="8.11" rx="4.05" fill="#b29df4"/>
  <rect id="svg_8" class="cls-2" x="248.42" y="40" width="47.5" height="8.11" rx="4.05" fill="#b29df4"/>
  <rect id="svg_9" class="cls-2" x="224.12" y="73.33" width="47.5" height="8.11" rx="4.05" fill="#b29df4"/>
  <rect id="svg_10" class="cls-2" x="1" y="104.86" width="33.14" height="8.11" rx="4.05" fill="#b29df4"/>
  <rect id="svg_11" class="cls-2" x="151.22" y="130.99" width="33.14" height="8.11" rx="4.05" fill="#b29df4"/>
  <rect id="svg_12" class="cls-2" x="1" y="72.43" width="23.2" height="8.11" rx="4.05" fill="#b29df4"/>
  <rect id="svg_13" class="cls-2" x="1" y="88.65" width="71.8" height="8.11" rx="4.05" fill="#b29df4"/>
  <rect id="svg_14" class="cls-2" x="1" y="56.22" width="58.54" height="8.11" rx="4.05" fill="#b29df4"/>
  <rect id="svg_15" class="cls-2" x="155.64" y="73.33" width="58.54" height="8.11" rx="4.05" fill="#b29df4"/>
  <rect id="svg_16" class="cls-2" x="42.97" y="40" width="110.46" height="8.11" rx="4.05" fill="#b29df4"/>
  <rect id="svg_17" class="cls-2" x="130.24" y="56.22" width="110.46" height="8.11" rx="4.05" fill="#b29df4"/>
  <rect id="svg_18" class="cls-2" x="48.5" y="104.86" width="110.46" height="8.11" rx="4.05" fill="#b29df4"/>
  <rect id="svg_19" class="cls-2" x="30.82" y="130.99" width="110.46" height="8.11" rx="4.05" fill="#b29df4"/>
  <rect id="svg_20" class="cls-2" x="34.14" y="73.33" width="110.46" height="8.11" rx="4.05" fill="#b29df4"/>
  <rect id="svg_21" class="cls-2" x="173.31" y="104.86" width="110.46" height="8.11" rx="4.05" fill="#b29df4"/>
  <rect id="svg_22" class="cls-2" x="112.56" y="88.65" width="110.46" height="8.11" rx="4.05" fill="#b29df4"/>
  <rect id="svg_23" class="cls-2" x="219.71" y="40" width="18.78" height="9.01" rx="4.5" fill="#b29df4"/>
  <rect id="svg_24" class="cls-2" x="250.63" y="55.32" width="18.78" height="9.01" rx="4.5" fill="#b29df4"/>
  <rect id="svg_25" class="cls-2" x="291.5" y="88.65" width="18.78" height="9.01" rx="4.5" fill="#b29df4"/>
  <rect id="svg_26" class="cls-2" x="1" y="130.09" width="18.78" height="9.01" rx="4.5" fill="#b29df4"/>
  <rect id="svg_27" class="cls-2" x="80.53" y="88.65" width="18.78" height="9.01" rx="4.5" fill="#b29df4"/>
  <rect id="svg_28" class="cls-2" x="196.51" y="130.99" width="18.78" height="9.01" rx="4.5" fill="#b29df4"/>
  <path id="svg_29" class="cls-2" d="m145,21.77c-5.69,0 -5.86,0 -5.86,-0.56c0,-0.28 0.22,-2.85 0.22,-7.15c0,-4.54 -0.22,-7.94 -0.22,-8.09c0,-0.43 1.92,-1 3.82,-1c3.84,0 7.68,4.1 7.68,8.18c-0.01,4.85 -2.44,8.62 -5.64,8.62zm1,-8.65c0,-2 -1,-3.64 -2.35,-3.64a0.74,0.74 0 0 0 -0.84,0.81l0,6.58c0,0.34 0.24,0.48 0.72,0.48c1.53,0 2.47,-1.61 2.47,-4.23z" fill="#b29df4"/>
  <path id="svg_30" class="cls-2" d="m159.55,17.85c1,0 2.21,0 2.16,0.68l-0.16,2.08c-0.08,0.89 -0.24,1.16 -0.7,1.16l-8.45,0c-0.33,0 -0.33,-0.36 -0.33,-0.63l0,-15.14c0,-0.55 2.47,-1.06 3.45,-1.06a40.89,40.89 0 0 1 6,0.39c0.14,0 0.55,0.09 0.55,1l0,2.4a0.31,0.31 0 0 1 -0.31,0.32l-5.28,0c-0.15,0 -0.17,0.19 -0.17,0.33l0,1.88l1.69,0c0.34,0 0.58,0.19 0.58,0.47l0,2.27c0,0.24 -0.1,0.36 -0.27,0.36l-2.06,0c-0.1,0 -0.12,0.09 -0.12,0.19l0,2.93c0,0.24 0.12,0.33 0.38,0.33l3.04,0.04zm-2.83,-14.09a6.36,6.36 0 0 1 0.55,-2.18a2.39,2.39 0 0 1 1.06,-0.19c0.34,0 0.6,0.07 0.6,0.21c0,0.36 -1.51,2.38 -2.06,2.38c-0.1,0.02 -0.15,-0.05 -0.15,-0.22z" fill="#b29df4"/>
  <path id="svg_31" class="cls-2" d="m173,20.73c0,1 -1.34,1 -2.06,1c-4.63,0 -7.73,-3.34 -7.73,-8.28s3.24,-8.5 8.09,-8.5c1,0 1.7,0.41 1.7,1.05l0,2.52c0,0.29 -0.19,0.39 -0.86,0.39c-2.55,0 -4.83,1.41 -4.83,4.2a4.82,4.82 0 0 0 5,4.66c0.55,0 0.74,0.09 0.74,0.38l-0.05,2.58z" fill="#b29df4"/>
  <path id="svg_32" class="cls-2" d="m185.11,21.45c0,0.32 -0.33,0.32 -0.5,0.32l-3.55,0a0.44,0.44 0 0 1 -0.39,-0.22l-1.44,-3.12c-0.19,-0.41 -0.33,-0.62 -0.43,-0.62s-0.17,0.21 -0.17,0.62l0,3c0,0.32 -0.31,0.32 -0.48,0.32l-3,0c-0.17,0 -0.41,0 -0.41,-0.32c0,-1.12 0.19,-3.86 0.19,-7.29s-0.14,-8.14 -0.14,-8.31c0,-0.6 2.06,-0.89 3.89,-0.89c3,0 5.18,1.71 5.18,4.44a3.8,3.8 0 0 1 -3.31,4c-0.22,0 -0.19,0.07 0,0.38c0.53,0.78 4.56,7 4.56,7.69zm-6.62,-11.18c0,0.14 0.07,0.19 0.29,0.19a2,2 0 0 0 1.92,-1.9c0,-0.72 -0.6,-1 -1.68,-1c-0.46,0 -0.53,0 -0.53,0.43l0,2.28z" fill="#b29df4"/>
  <path id="svg_33" class="cls-2" d="m193.8,17.85c1,0 2.21,0 2.16,0.68l-0.17,2.08c-0.07,0.89 -0.24,1.16 -0.69,1.16l-8.45,0c-0.34,0 -0.34,-0.36 -0.34,-0.63l0,-15.14c0,-0.55 2.48,-1.06 3.46,-1.06a41,41 0 0 1 6,0.39c0.14,0 0.55,0.09 0.55,1l0,2.4a0.31,0.31 0 0 1 -0.31,0.32l-5.28,0c-0.15,0 -0.17,0.19 -0.17,0.33l0,1.88l1.68,0c0.33,0 0.57,0.19 0.57,0.47l0,2.27c0,0.24 -0.09,0.36 -0.26,0.36l-2.06,0c-0.1,0 -0.12,0.09 -0.12,0.19l0,2.93c0,0.24 0.12,0.33 0.38,0.33l3.05,0.04z" fill="#b29df4"/>
  <path id="svg_34" class="cls-2" d="m212.11,5c0.48,0 0.82,0.44 0.82,1l0,2.23c0,1 -0.17,1.22 -1,1.22l-4.08,0c-0.29,0 -0.31,0.1 -0.31,0.31c0,4.13 0.17,7.76 0.36,11.67c0,0.34 -0.19,0.34 -0.48,0.34l-3.92,0c-0.29,0 -0.51,0 -0.48,-0.34c0.21,-3.91 0.36,-7.54 0.36,-11.67c0,-0.19 0,-0.31 -0.36,-0.31l-4.18,0c-0.84,0 -0.86,-0.38 -0.86,-1.29l0,-2.16c0,-0.65 0.26,-1 0.76,-1l13.37,0z" fill="#b29df4"/>
 </g>

</svg>