<svg id="Calque_10" data-name="Calque 10" xmlns="http://www.w3.org/2000/svg" viewBox="0 0 38.26 38"><defs><style>.cls-1{fill:#24006d;}.cls-2{fill:#5b00f5;}.cls-3{fill:#00f6e1;}</style></defs><path class="cls-1" d="M314.44,478.07a2.23,2.23,0,0,0-1.8,2.57l2.68,15.19a2.22,2.22,0,0,0,4.37-.77L317,479.87a2.23,2.23,0,0,0-2.57-1.8Z" transform="translate(-306.19 -459.66)"/><path class="cls-1" d="M336.21,478.07a2.23,2.23,0,0,1,1.8,2.57l-2.68,15.19a2.21,2.21,0,1,1-4.36-.77l2.67-15.19a2.23,2.23,0,0,1,2.57-1.8Z" transform="translate(-306.19 -459.66)"/><path class="cls-2" d="M334.69,465.82a1.52,1.52,0,0,1-.91-.29,15.17,15.17,0,0,0-17.13,0,1.61,1.61,0,1,1-1.83-2.65,18.37,18.37,0,0,1,20.78,0,1.61,1.61,0,0,1,.42,2.24,1.64,1.64,0,0,1-1.33.7Z" transform="translate(-306.19 -459.66)"/><path class="cls-3" d="M309.05,481.11V478A16.11,16.11,0,0,1,314,466.4a2.71,2.71,0,0,1-.57-.6,1.79,1.79,0,0,1-.18-.33,17.31,17.31,0,0,0-5.4,12.56v4a9.82,9.82,0,0,1,1.2-.89Z" transform="translate(-306.19 -459.66)"/><path class="cls-3" d="M337,465.79a2.81,2.81,0,0,1-.58.61,16.1,16.1,0,0,1,5,11.63v3a8.11,8.11,0,0,1,1.19.82V478a17.32,17.32,0,0,0-5.39-12.57,2.57,2.57,0,0,1-.18.33Z" transform="translate(-306.19 -459.66)"/><path class="cls-2" d="M311.55,481.32a7.27,7.27,0,0,0,2.51,14.25Z" transform="translate(-306.19 -459.66)"/><path class="cls-2" d="M339.1,481.32l-2.51,14.25a7.27,7.27,0,0,0,2.51-14.25Z" transform="translate(-306.19 -459.66)"/></svg>