<svg xmlns="http://www.w3.org/2000/svg" viewBox="0 0 386 299.53"><defs><style>.cls-1{fill:#f8c133;}.cls-2,.cls-9{fill:#dfe7f4;}.cls-2{stroke:#dfe7f4;stroke-miterlimit:10;}.cls-2,.cls-3{stroke-width:2px;}.cls-3,.cls-5,.cls-8{fill:#1b1a69;stroke:#1b1a69;}.cls-17,.cls-18,.cls-20,.cls-3,.cls-5,.cls-6,.cls-7,.cls-8{stroke-linecap:round;stroke-linejoin:round;}.cls-4,.cls-7{fill:#4747a5;}.cls-5,.cls-6,.cls-7{stroke-width:3px;}.cls-17,.cls-18,.cls-20,.cls-6{fill:none;}.cls-6{stroke:#b0b7c1;}.cls-7{stroke:#4747a5;}.cls-8{stroke-width:2.24px;}.cls-10{fill:#200ff4;}.cls-11{fill:#fff;}.cls-12{fill:#b5342e;}.cls-13{fill:#00f6e1;}.cls-14{fill:#5b00f5;}.cls-15{fill:#3a00b0;}.cls-16{fill:#00af9b;}.cls-17{stroke:#d9a42f;}.cls-17,.cls-20{stroke-width:1.18px;}.cls-18{stroke:#1d1d1b;stroke-width:0.59px;}.cls-19{fill:#fcf7f1;}.cls-20{stroke:#f5bd34;}.cls-21{fill:#e95833;}</style></defs><g id="Calque_1" data-name="Calque 1"><path class="cls-1" d="M286.18,485.06a2.75,2.75,0,0,0,0,5.5H294a2.75,2.75,0,0,0,0-5.5Z" transform="translate(-14.21 -217.13)"/><path class="cls-1" d="M360.18,381.06a2.75,2.75,0,0,0,0,5.5H368a2.75,2.75,0,0,0,0-5.5Z" transform="translate(-14.21 -217.13)"/><path class="cls-1" d="M19.48,304c-2.9,0-5.27,1.92-5.27,4.26s2.37,4.26,5.27,4.26h15c2.89,0,5.26-1.92,5.26-4.26S37.37,304,34.48,304Z" transform="translate(-14.21 -217.13)"/><path class="cls-1" d="M113.48,260c-2.9,0-5.27,1.92-5.27,4.26s2.37,4.26,5.27,4.26h15c2.89,0,5.26-1.92,5.26-4.26s-2.37-4.26-5.26-4.26Z" transform="translate(-14.21 -217.13)"/><path class="cls-1" d="M87.22,468.49a2.71,2.71,0,0,0-.81-1.93,2.76,2.76,0,0,0-1.94-.81H76.62a2.75,2.75,0,0,0-.33,5.49h8.18a2.75,2.75,0,0,0,2.75-2.75Z" transform="translate(-14.21 -217.13)"/><path class="cls-1" d="M400.19,436.88A9.53,9.53,0,0,1,391.32,447c-.2,0-.41,0-.61,0h-62a9.54,9.54,0,0,0-9.5,9.56c0,.21,0,.41,0,.61A9.71,9.71,0,0,0,329,466h2.07a5.23,5.23,0,0,1,5.29,5v.06a7.81,7.81,0,0,1-6.79,7.75l-.38.14L281,478.94a8.28,8.28,0,0,0-8.28,8.27c0,.19,0,.37,0,.55a8.47,8.47,0,0,0,8.55,7.73h14.22c7.82,0,11.75,4.74,11.75,10.57a10.78,10.78,0,0,1-10.79,10.6H110.16a10.56,10.56,0,0,1-10.59-10.27c-.21-9.48,8.84-10.9,9.63-10.9h6.91a2.4,2.4,0,0,0,2.42-2.39,2.29,2.29,0,0,0,0-.25,2.51,2.51,0,0,0-2.54-2.19H88.74a8.16,8.16,0,1,1,0-16.32h13.81a6,6,0,1,0,0-12H80.35a6.2,6.2,0,0,1-6.14-6.15V456A9.72,9.72,0,0,0,64.39,447H50a9.71,9.71,0,0,1-9.79-8.83A9.54,9.54,0,0,1,49.11,428l.61,0h23a9.53,9.53,0,0,0,9.51-9.56c0-.2,0-.4,0-.6A9.7,9.7,0,0,0,72.41,409H61a9.71,9.71,0,0,1-9.79-8.83A9.54,9.54,0,0,1,60.11,390l.61,0h18a9.53,9.53,0,0,0,9.51-9.56c0-.2,0-.4,0-.6A9.7,9.7,0,0,0,78.41,371H24a9.71,9.71,0,0,1-9.79-8.83A9.54,9.54,0,0,1,23.11,352l.61,0h94a9.53,9.53,0,0,0,9.51-9.56c0-.2,0-.4,0-.6a9.7,9.7,0,0,0-9.79-8.84H54a9.71,9.71,0,0,1-9.79-8.83A9.54,9.54,0,0,1,53.11,314l.61,0h18a9.53,9.53,0,0,0,9.51-9.56c0-.2,0-.4,0-.6A9.7,9.7,0,0,0,71.41,295H38a9.71,9.71,0,0,1-9.79-8.83A9.54,9.54,0,0,1,37.11,276l.61,0H383.4a9.7,9.7,0,0,1,9.79,8.84A9.53,9.53,0,0,1,384.32,295c-.2,0-.41,0-.61,0h-77a9.54,9.54,0,0,0-9.5,9.56c0,.21,0,.41,0,.61A9.71,9.71,0,0,0,307,314h76.38a9.7,9.7,0,0,1,9.79,8.84A9.53,9.53,0,0,1,384.33,333c-.2,0-.41,0-.61,0h-44a9.54,9.54,0,0,0-9.5,9.56c0,.21,0,.41,0,.61A9.71,9.71,0,0,0,340,352h47.38a9.7,9.7,0,0,1,9.79,8.84A9.53,9.53,0,0,1,388.33,371c-.2,0-.41,0-.61,0h-61a9.54,9.54,0,0,0-9.5,9.56c0,.21,0,.41,0,.61A9.71,9.71,0,0,0,327,390h46.38a9.7,9.7,0,0,1,9.79,8.84A9.53,9.53,0,0,1,374.33,409c-.2,0-.41,0-.61,0h-20a9.54,9.54,0,0,0-9.5,9.56c0,.21,0,.41,0,.61A9.71,9.71,0,0,0,354,428h36.38A9.72,9.72,0,0,1,400.19,436.88Z" transform="translate(-14.21 -217.13)"/><path class="cls-1" d="M328.89,463.33" transform="translate(-14.21 -217.13)"/></g><g id="Calque_2" data-name="Calque 2"><rect class="cls-2" x="120.29" y="116.87" width="23" height="89.5"/><rect class="cls-2" x="181.29" y="116.87" width="23" height="89.5"/><rect class="cls-2" x="241.29" y="116.87" width="23" height="89.5"/><polygon class="cls-3" points="79.79 79.87 79.79 90.87 305.79 90.87 305.79 79.87 192.79 30.87 79.79 79.87"/><polyline class="cls-4" points="90.79 91.87 90.79 105.87 294.79 105.87 294.79 91.87"/><rect class="cls-5" x="112.29" y="105.87" width="39" height="11.5"/><line class="cls-6" x1="132.29" y1="126.37" x2="132.29" y2="166.37"/><line class="cls-6" x1="132.29" y1="175.37" x2="132.29" y2="198.37"/><rect class="cls-5" x="173.29" y="105.87" width="39" height="11.5"/><line class="cls-6" x1="193.29" y1="126.37" x2="193.29" y2="166.37"/><line class="cls-6" x1="193.29" y1="175.37" x2="193.29" y2="198.37"/><rect class="cls-5" x="233.29" y="105.87" width="39" height="11.5"/><rect class="cls-5" x="113.29" y="206.87" width="39" height="11.5"/><rect class="cls-5" x="174.29" y="206.87" width="39" height="11.5"/><rect class="cls-5" x="234.29" y="206.87" width="39" height="11.5"/><line class="cls-6" x1="253.29" y1="126.37" x2="253.29" y2="166.37"/><line class="cls-6" x1="253.29" y1="175.37" x2="253.29" y2="198.37"/><polyline class="cls-7" points="94.29 228.37 94.29 219.37 291.29 219.37 291.29 230.37"/><rect class="cls-8" x="79.29" y="228.87" width="227" height="17.5"/><rect class="cls-9" x="216.29" y="41.37" width="65" height="16" rx="8"/><rect class="cls-9" x="235.79" y="54.87" width="65" height="16" rx="8"/><circle class="cls-1" cx="192.79" cy="64.87" r="15"/><line class="cls-3" x1="192.79" y1="29.87" x2="192.79" y2="15.87"/><rect class="cls-10" x="191.37" width="9.61" height="16.26"/><rect class="cls-11" x="200.98" width="9.61" height="16.26"/><rect class="cls-12" x="210.57" width="8.22" height="16.26"/><path class="cls-13" d="M143,516.58H121s4.6-8.72,11.54-8S143,516.58,143,516.58Z" transform="translate(-14.21 -217.13)"/><path class="cls-13" d="M144.22,516.58h21.93s-4.6-8.72-11.54-8S144.22,516.58,144.22,516.58Z" transform="translate(-14.21 -217.13)"/><path class="cls-14" d="M124.08,490.51a18.89,18.89,0,1,0,35.54-8.92l-1.79-2.73h0l-18-27.44-13.45,30-1.27,2.83v0A18.91,18.91,0,0,0,124.08,490.51Z" transform="translate(-14.21 -217.13)"/><path class="cls-15" d="M129.14,503.4c25.42,1.45,30.33-20.49,29.69-23,.27-.07,9.25,13.74-4.23,25,0,0-11.31,9.32-23.57-.22Z" transform="translate(-14.21 -217.13)"/><path class="cls-16" d="M136.94,510s2.41,6.59-15.9,6.61H143a17,17,0,0,0-4.14-5.28C137,509.89,136.94,510,136.94,510Z" transform="translate(-14.21 -217.13)"/><path class="cls-16" d="M150.25,510s-2.41,6.59,15.9,6.61H144.22a17.07,17.07,0,0,1,4.15-5.28C150.19,509.89,150.25,510,150.25,510Z" transform="translate(-14.21 -217.13)"/><line class="cls-17" x1="131.38" y1="221.75" x2="125.77" y2="235.56"/><path class="cls-18" d="M139.73,454" transform="translate(-14.21 -217.13)"/><circle class="cls-19" cx="130.04" cy="252.57" r="1.12"/><circle class="cls-19" cx="125.51" cy="252.57" r="1.12"/><line class="cls-20" x1="125.82" y1="235.56" x2="127.93" y2="211.87"/><line class="cls-17" x1="123.71" y1="215.91" x2="125.82" y2="235.56"/><line class="cls-20" x1="125.82" y1="235.56" x2="117.85" y2="216.7"/><ellipse class="cls-21" cx="133.88" cy="255.37" rx="2.93" ry="1.47"/><ellipse class="cls-21" cx="121.98" cy="255.37" rx="2.93" ry="1.47"/><path class="cls-20" d="M132.06,442.13" transform="translate(-14.21 -217.13)"/></g></svg>