<svg xmlns="http://www.w3.org/2000/svg" xmlns:xlink="http://www.w3.org/1999/xlink" viewBox="0 0 386 297.97"><defs><style>.cls-1,.cls-12,.cls-17,.cls-18,.cls-20,.cls-9{fill:none;}.cls-2{fill:#f8c133;}.cls-3{clip-path:url(#clip-path);}.cls-4{fill:#b5e8f4;}.cls-5{fill:#99d3ea;}.cls-6{fill:#83b6c6;}.cls-7{fill:#fcfcfc;}.cls-8{fill:#b5e9ff;}.cls-9{stroke:#fcfcfc;stroke-miterlimit:10;stroke-width:2.49px;}.cls-10{fill:#39527a;}.cls-11{fill:#202c3f;}.cls-12{stroke:#202c3f;stroke-width:2.34px;}.cls-12,.cls-17,.cls-18,.cls-20{stroke-linecap:round;stroke-linejoin:round;}.cls-13{fill:#00f6e1;}.cls-14{fill:#5b00f5;}.cls-15{fill:#3a00b0;}.cls-16{fill:#00af9b;}.cls-17{stroke:#d9a42f;}.cls-17,.cls-20{stroke-width:1.45px;}.cls-18{stroke:#1d1d1b;stroke-width:0.73px;}.cls-19{fill:#fcf7f1;}.cls-20{stroke:#f5bd34;}.cls-21{fill:#e95833;}.cls-22{fill:#7197f4;}.cls-23{fill:#668ad3;}.cls-24{fill:#200ff4;}.cls-25{fill:#fff;}.cls-26{fill:#b5342e;}</style><clipPath id="clip-path" transform="translate(-152.66 -76.49)"><path class="cls-1" d="M346.87,76.84h0a69.4,69.4,0,0,1,69.4,69.4V258.88H277.48V146.25A69.39,69.39,0,0,1,346.87,76.84Z"/></clipPath></defs><g id="FOND"><path class="cls-2" d="M424.63,342.86a2.75,2.75,0,0,0,0,5.5h7.85a2.75,2.75,0,0,0,0-5.5Z" transform="translate(-152.66 -76.49)"/><path class="cls-2" d="M498.63,238.86a2.75,2.75,0,0,0,0,5.5h7.85a2.75,2.75,0,0,0,0-5.5Z" transform="translate(-152.66 -76.49)"/><path class="cls-2" d="M157.93,161.84c-2.9,0-5.27,1.92-5.27,4.26s2.37,4.26,5.27,4.26h15c2.89,0,5.26-1.92,5.26-4.26s-2.37-4.26-5.26-4.26Z" transform="translate(-152.66 -76.49)"/><path class="cls-2" d="M251.93,117.84c-2.9,0-5.27,1.92-5.27,4.26s2.37,4.26,5.27,4.26h15c2.89,0,5.26-1.92,5.26-4.26s-2.37-4.26-5.26-4.26Z" transform="translate(-152.66 -76.49)"/><path class="cls-2" d="M225.67,326.29a2.68,2.68,0,0,0-.81-1.93,2.73,2.73,0,0,0-1.94-.81h-7.85a2.75,2.75,0,0,0-.33,5.49h8.18a2.75,2.75,0,0,0,2.75-2.75Z" transform="translate(-152.66 -76.49)"/><path class="cls-2" d="M538.64,294.68a9.53,9.53,0,0,1-8.88,10.14l-.6,0h-62a9.52,9.52,0,0,0-9.5,9.55c0,.21,0,.41,0,.62a9.72,9.72,0,0,0,9.8,8.83h2.07a5.23,5.23,0,0,1,5.29,5v.06a7.83,7.83,0,0,1-6.79,7.75l-.38.14-48.19-.05a8.28,8.28,0,0,0-8.29,8.27c0,.18,0,.36,0,.55a8.47,8.47,0,0,0,8.55,7.73H434c7.82,0,11.75,4.74,11.75,10.57a10.8,10.8,0,0,1-10.79,10.6H248.61A10.57,10.57,0,0,1,238,364.19c-.21-9.48,8.84-10.9,9.63-10.9h6.91A2.41,2.41,0,0,0,257,350.9a2,2,0,0,0,0-.25,2.5,2.5,0,0,0-2.54-2.19H227.19a8.16,8.16,0,0,1,0-16.32H241a6,6,0,0,0,0-12H218.8a6.21,6.21,0,0,1-6.14-6.15v-.15a9.72,9.72,0,0,0-9.82-9.07H188.48a9.72,9.72,0,0,1-9.79-8.83,9.53,9.53,0,0,1,8.87-10.15c.2,0,.4,0,.61,0h23a9.53,9.53,0,0,0,9.5-9.56c0-.2,0-.4,0-.6a9.71,9.71,0,0,0-9.79-8.84H199.48a9.72,9.72,0,0,1-9.79-8.83,9.53,9.53,0,0,1,8.87-10.15c.2,0,.4,0,.61,0h18a9.53,9.53,0,0,0,9.5-9.56c0-.2,0-.4,0-.6a9.71,9.71,0,0,0-9.79-8.84H162.48a9.72,9.72,0,0,1-9.79-8.83,9.53,9.53,0,0,1,8.87-10.15c.2,0,.4,0,.61,0h94a9.53,9.53,0,0,0,9.5-9.56c0-.2,0-.4,0-.6a9.71,9.71,0,0,0-9.79-8.84H192.48a9.72,9.72,0,0,1-9.79-8.83,9.53,9.53,0,0,1,8.87-10.15c.2,0,.4,0,.61,0h18a9.53,9.53,0,0,0,9.5-9.56c0-.2,0-.4,0-.6a9.71,9.71,0,0,0-9.79-8.84H176.48a9.72,9.72,0,0,1-9.79-8.83,9.53,9.53,0,0,1,8.87-10.15c.2,0,.4,0,.61,0H521.85a9.71,9.71,0,0,1,9.79,8.84,9.53,9.53,0,0,1-8.88,10.14l-.6,0h-77a9.52,9.52,0,0,0-9.5,9.55c0,.21,0,.41,0,.62a9.71,9.71,0,0,0,9.8,8.9h76.38a9.71,9.71,0,0,1,9.79,8.84,9.53,9.53,0,0,1-8.88,10.14l-.6,0h-44a9.52,9.52,0,0,0-9.5,9.55c0,.21,0,.41,0,.62a9.72,9.72,0,0,0,9.79,8.83h47.38a9.71,9.71,0,0,1,9.79,8.84,9.53,9.53,0,0,1-8.88,10.14l-.6,0h-61a9.52,9.52,0,0,0-9.5,9.55c0,.21,0,.41,0,.62a9.72,9.72,0,0,0,9.79,8.83h46.38a9.71,9.71,0,0,1,9.79,8.84,9.53,9.53,0,0,1-8.88,10.14l-.6,0h-20a9.52,9.52,0,0,0-9.5,9.55c0,.21,0,.41,0,.62a9.72,9.72,0,0,0,9.79,8.83h36.38A9.71,9.71,0,0,1,538.64,294.68Z" transform="translate(-152.66 -76.49)"/></g><g id="FENETRE"><g class="cls-3"><path class="cls-4" d="M346.45,76.49h0a69.4,69.4,0,0,1,69.4,69.4h0v112.6H277.05V145.89A69.4,69.4,0,0,1,346.45,76.49Z" transform="translate(-152.66 -76.49)"/><polygon class="cls-5" points="124.8 53.08 155.97 53.08 155.97 182.03 124.39 182.03 124.8 53.08"/><polygon class="cls-5" points="232.03 53.08 263.2 53.08 263.2 182.03 231.61 182.03 232.03 53.08"/><polygon class="cls-6" points="207.09 71.03 238.26 71.03 238.26 182.03 206.68 182.03 207.09 71.03"/><path class="cls-7" d="M370.63,104.33h47.24a4.64,4.64,0,0,1,4.64,4.64h0a4.64,4.64,0,0,1-4.64,4.64H370.63A4.64,4.64,0,0,1,366,109h0A4.64,4.64,0,0,1,370.63,104.33Z" transform="translate(-152.66 -76.49)"/><rect class="cls-7" x="194.62" y="18.92" width="56.52" height="9.28" rx="4.64"/><path class="cls-7" d="M294.57,111.83h23.14a4.64,4.64,0,0,1,4.64,4.64h0a4.64,4.64,0,0,1-4.64,4.64H294.57a4.64,4.64,0,0,1-4.64-4.64h0A4.64,4.64,0,0,1,294.57,111.83Z" transform="translate(-152.66 -76.49)"/><path class="cls-7" d="M339.46,159.65H362.6a4.64,4.64,0,0,1,4.64,4.64h0a4.64,4.64,0,0,1-4.64,4.64H339.46a4.64,4.64,0,0,1-4.64-4.64h0A4.64,4.64,0,0,1,339.46,159.65Z" transform="translate(-152.66 -76.49)"/><path class="cls-7" d="M297.06,168.93H320.2a4.64,4.64,0,0,1,4.64,4.64h0a4.64,4.64,0,0,1-4.64,4.64H297.06a4.64,4.64,0,0,1-4.64-4.64h0A4.64,4.64,0,0,1,297.06,168.93Z" transform="translate(-152.66 -76.49)"/><polygon class="cls-8" points="143.08 181.68 143.08 115.29 201.27 115.29 201.27 182.03 143.08 181.68"/></g><line class="cls-9" x1="194.62" y1="0.36" x2="194.62" y2="212.31"/><line class="cls-9" x1="125.63" y1="76.08" x2="263.54" y2="76.08"/><line class="cls-9" x1="125.71" y1="149.22" x2="263.54" y2="149.22"/></g><g id="SIEGE"><path class="cls-10" d="M372,251.58l16.62,16.63H310.48l16.63-16.63-16.63-38.22h13.3l-4-17.09-2.63-11.17c0-15.61,14.51-28.26,32.41-28.26S382,169.49,382,185.1l-2.63,11.17-4,17.09h13.29Z" transform="translate(-152.66 -76.49)"/><path class="cls-11" d="M310.66,268.21s10,4.63,34.85,4.63a194.49,194.49,0,0,0,43.15-4.63Z" transform="translate(-152.66 -76.49)"/><rect class="cls-11" x="192.61" y="194.06" width="6.04" height="33.9"/><path class="cls-12" d="M331.48,309.12s7.59-5.26,16.95-5.26a25.59,25.59,0,0,1,16.32,5.88" transform="translate(-152.66 -76.49)"/><circle class="cls-12" cx="177.6" cy="234.97" r="2.34"/><circle class="cls-12" cx="196.31" cy="241.98" r="2.34"/><circle class="cls-12" cx="213.84" cy="234.97" r="2.34"/><line class="cls-12" x1="195.72" y1="226.79" x2="195.72" y2="239.06"/></g><g id="MOUA"><path class="cls-13" d="M348.79,264.49H321.91s5.63-10.68,14.14-9.85S348.79,264.49,348.79,264.49Z" transform="translate(-152.66 -76.49)"/><path class="cls-13" d="M350.33,264.49H377.2s-5.63-10.68-14.14-9.85S350.33,264.49,350.33,264.49Z" transform="translate(-152.66 -76.49)"/><path class="cls-14" d="M325.63,232.54A23.16,23.16,0,1,0,369.2,221.6l-2.2-3.35h0l-22-33.64-16.49,36.74L327,224.81l0,0A23.31,23.31,0,0,0,325.63,232.54Z" transform="translate(-152.66 -76.49)"/><path class="cls-15" d="M331.85,248.33c31.15,1.78,37.17-25.11,36.39-28.18.32-.08,11.33,16.84-5.19,30.62,0,0-13.86,11.42-28.89-.27Z" transform="translate(-152.66 -76.49)"/><path class="cls-16" d="M341.4,256.39s3,8.08-19.49,8.1h26.88A20.81,20.81,0,0,0,343.7,258C341.47,256.29,341.4,256.39,341.4,256.39Z" transform="translate(-152.66 -76.49)"/><path class="cls-16" d="M357.72,256.39s-3,8.08,19.48,8.1H350.33a20.87,20.87,0,0,1,5.08-6.47C357.64,256.29,357.72,256.39,357.72,256.39Z" transform="translate(-152.66 -76.49)"/><line class="cls-17" x1="199.35" y1="92.77" x2="192.47" y2="109.69"/><path class="cls-18" d="M344.81,187.79" transform="translate(-152.66 -76.49)"/><circle class="cls-19" cx="197.7" cy="130.54" r="1.38"/><circle class="cls-19" cx="192.16" cy="130.54" r="1.38"/><line class="cls-20" x1="192.54" y1="109.69" x2="195.12" y2="80.65"/><line class="cls-17" x1="189.95" y1="85.6" x2="192.54" y2="109.69"/><line class="cls-20" x1="192.54" y1="109.69" x2="182.76" y2="86.58"/><ellipse class="cls-21" cx="202.41" cy="133.98" rx="3.59" ry="1.81"/><ellipse class="cls-21" cx="187.83" cy="133.98" rx="3.59" ry="1.81"/><path class="cls-20" d="M335.42,173.23" transform="translate(-152.66 -76.49)"/></g><g id="TABLE"><path class="cls-2" d="M467.34,321.13Z" transform="translate(-152.66 -76.49)"/><polygon class="cls-22" points="141.37 164.83 248.91 164.83 264.69 177.69 123.83 177.69 141.37 164.83"/><rect class="cls-23" x="123.83" y="177.69" width="141.44" height="4.68"/><rect class="cls-22" x="126.95" y="182.37" width="3.9" height="68.97"/><polygon class="cls-23" points="133.29 182.37 133.29 250.17 130.85 251.34 130.85 182.37 133.29 182.37"/><rect class="cls-22" x="142.14" y="182.37" width="3.9" height="52.19"/><polygon class="cls-23" points="148.49 182.37 148.49 233.68 146.04 234.56 146.04 182.37 148.49 182.37"/><rect class="cls-22" x="257.48" y="182.52" width="3.9" height="68.97"/><polygon class="cls-23" points="255.04 182.52 255.04 250.32 257.48 251.49 257.48 182.52 255.04 182.52"/><rect class="cls-22" x="244.04" y="182.37" width="3.9" height="52.6"/><polygon class="cls-23" points="241.59 182.37 241.59 234.08 244.04 234.97 244.04 182.37 241.59 182.37"/></g><g id="DRAPEAU"><rect class="cls-24" x="141.43" y="148.31" width="4.91" height="8.31"/><rect class="cls-25" x="146.34" y="148.31" width="4.91" height="8.31"/><rect class="cls-26" x="151.24" y="148.31" width="4.2" height="8.31"/><rect class="cls-10" x="141.43" y="156.62" width="0.83" height="13.3"/><ellipse class="cls-10" cx="142.26" cy="169.09" rx="4.99" ry="0.83"/></g></svg>