<svg xmlns="http://www.w3.org/2000/svg" viewBox="0 0 386 256.96"><defs><style>.cls-1{fill:#f8c133;}.cls-2{fill:#5b00f5;}.cls-3{fill:#e74366;}.cls-4{fill:#808c00;}.cls-5{fill:#bf3a5b;}.cls-15,.cls-20,.cls-21,.cls-24,.cls-6{fill:none;}.cls-7{fill:#666b03;}.cls-8{fill:#30302e;}.cls-9{fill:#dde591;}.cls-10{fill:#5d6100;}.cls-11{fill:#ece800;}.cls-12{fill:#3d3d02;}.cls-13{fill:#c1bc16;}.cls-14{fill:#7a750f;}.cls-15{stroke:#5b00f5;}.cls-15,.cls-20,.cls-21,.cls-24{stroke-linecap:round;stroke-linejoin:round;}.cls-16{fill:#70deb7;}.cls-17{fill:#624ece;}.cls-18{fill:#4a40a3;}.cls-19{fill:#60a587;}.cls-20{stroke:#dba62e;}.cls-20,.cls-24{stroke-width:1.23px;}.cls-21{stroke:#1d1d1b;stroke-width:0.62px;}.cls-22{fill:#fef9f3;}.cls-23{fill:#eb5833;}.cls-24{stroke:#f7bf33;}</style></defs><g id="Calque_1" data-name="Calque 1"><path class="cls-1" d="M286.18,485.06a2.75,2.75,0,0,0,0,5.5H294a2.75,2.75,0,0,0,0-5.5Z" transform="translate(-14.21 -260.04)"/><path class="cls-1" d="M360.18,381.06a2.75,2.75,0,0,0,0,5.5H368a2.75,2.75,0,0,0,0-5.5Z" transform="translate(-14.21 -260.04)"/><path class="cls-1" d="M19.48,304c-2.9,0-5.27,1.92-5.27,4.26s2.37,4.26,5.27,4.26h15c2.89,0,5.26-1.92,5.26-4.26S37.37,304,34.48,304Z" transform="translate(-14.21 -260.04)"/><path class="cls-1" d="M113.48,260c-2.9,0-5.27,1.92-5.27,4.26s2.37,4.26,5.27,4.26h15c2.89,0,5.26-1.92,5.26-4.26s-2.37-4.26-5.26-4.26Z" transform="translate(-14.21 -260.04)"/><path class="cls-1" d="M87.22,468.49a2.71,2.71,0,0,0-.81-1.93,2.76,2.76,0,0,0-1.94-.81H76.62a2.75,2.75,0,0,0-.33,5.49h8.18a2.75,2.75,0,0,0,2.75-2.75Z" transform="translate(-14.21 -260.04)"/><path class="cls-1" d="M400.19,436.88A9.53,9.53,0,0,1,391.32,447c-.2,0-.41,0-.61,0h-62a9.54,9.54,0,0,0-9.5,9.56c0,.21,0,.41,0,.61A9.71,9.71,0,0,0,329,466h2.07a5.23,5.23,0,0,1,5.29,5v.06a7.81,7.81,0,0,1-6.79,7.75l-.38.14L281,478.94a8.28,8.28,0,0,0-8.28,8.27c0,.19,0,.37,0,.55a8.47,8.47,0,0,0,8.55,7.73h14.22c7.82,0,11.75,4.74,11.75,10.57a10.78,10.78,0,0,1-10.79,10.6H110.16a10.56,10.56,0,0,1-10.59-10.27c-.21-9.48,8.84-10.9,9.63-10.9h6.91a2.4,2.4,0,0,0,2.42-2.39,2.29,2.29,0,0,0,0-.25,2.51,2.51,0,0,0-2.54-2.19H88.74a8.16,8.16,0,1,1,0-16.32h13.81a6,6,0,1,0,0-12H80.35a6.2,6.2,0,0,1-6.14-6.15V456A9.72,9.72,0,0,0,64.39,447H50a9.71,9.71,0,0,1-9.79-8.83A9.54,9.54,0,0,1,49.11,428l.61,0h23a9.53,9.53,0,0,0,9.51-9.56c0-.2,0-.4,0-.6A9.7,9.7,0,0,0,72.41,409H61a9.71,9.71,0,0,1-9.79-8.83A9.54,9.54,0,0,1,60.11,390l.61,0h18a9.53,9.53,0,0,0,9.51-9.56c0-.2,0-.4,0-.6A9.7,9.7,0,0,0,78.41,371H24a9.71,9.71,0,0,1-9.79-8.83A9.54,9.54,0,0,1,23.11,352l.61,0h94a9.53,9.53,0,0,0,9.51-9.56c0-.2,0-.4,0-.6a9.7,9.7,0,0,0-9.79-8.84H54a9.71,9.71,0,0,1-9.79-8.83A9.54,9.54,0,0,1,53.11,314l.61,0h18a9.53,9.53,0,0,0,9.51-9.56c0-.2,0-.4,0-.6A9.7,9.7,0,0,0,71.41,295H38a9.71,9.71,0,0,1-9.79-8.83A9.54,9.54,0,0,1,37.11,276l.61,0H383.4a9.7,9.7,0,0,1,9.79,8.84A9.53,9.53,0,0,1,384.32,295c-.2,0-.41,0-.61,0h-77a9.54,9.54,0,0,0-9.5,9.56c0,.21,0,.41,0,.61A9.71,9.71,0,0,0,307,314h76.38a9.7,9.7,0,0,1,9.79,8.84A9.53,9.53,0,0,1,384.33,333c-.2,0-.41,0-.61,0h-44a9.54,9.54,0,0,0-9.5,9.56c0,.21,0,.41,0,.61A9.71,9.71,0,0,0,340,352h47.38a9.7,9.7,0,0,1,9.79,8.84A9.53,9.53,0,0,1,388.33,371c-.2,0-.41,0-.61,0h-61a9.54,9.54,0,0,0-9.5,9.56c0,.21,0,.41,0,.61A9.71,9.71,0,0,0,327,390h46.38a9.7,9.7,0,0,1,9.79,8.84A9.53,9.53,0,0,1,374.33,409c-.2,0-.41,0-.61,0h-20a9.54,9.54,0,0,0-9.5,9.56c0,.21,0,.41,0,.61A9.71,9.71,0,0,0,354,428h36.38A9.72,9.72,0,0,1,400.19,436.88Z" transform="translate(-14.21 -260.04)"/><path class="cls-1" d="M328.89,463.33" transform="translate(-14.21 -260.04)"/></g><g id="Calque_4" data-name="Calque 4"><path class="cls-2" d="M152.57,327.56V338H140V327.56a11,11,0,0,1,.07-1.3h11.71v-.07a.08.08,0,0,1,0,.07h.71A11,11,0,0,1,152.57,327.56Z" transform="translate(-14.21 -260.04)"/><path class="cls-3" d="M123.88,428.59a1.31,1.31,0,0,1-1-2.26c2.09-2,5.18-5.6,2.39-6.54l-4-1.33,8.91-17.24s3,19.9,1.69,22.56C130.93,425.65,126.76,428.17,123.88,428.59Z" transform="translate(-14.21 -260.04)"/><path class="cls-4" d="M121.26,418.46l8.91-17.24s-12.89-14.72-4.94-26.71l5.3-5.32-1.32,16,88.37-7.35s9.69-3.31,12.34-33.93H202.09s-4,16-18.55,12-17.23-18.64-42.41-16-34.45,16-38.43,30.63S94.75,407.8,121.26,418.46Z" transform="translate(-14.21 -260.04)"/><rect class="cls-3" x="129.57" y="74.52" width="5.3" height="5.33"/><polygon class="cls-5" points="134.87 74.52 129.57 77.19 129.57 74.52 134.87 74.52"/><path class="cls-3" d="M153,329.26a4.81,4.81,0,0,1-.14,1.2,5.9,5.9,0,0,1-3.53,4,7.18,7.18,0,0,1-2.85.58,7.26,7.26,0,0,1-2.85-.58A6.26,6.26,0,0,1,141,332.3a5.32,5.32,0,0,1-1-3,2.53,2.53,0,0,1,0-.38,4.54,4.54,0,0,1,.25-1.28,5.31,5.31,0,0,1,.7-1.36H152v-.05l0,.05a5.17,5.17,0,0,1,.84,1.83A4.67,4.67,0,0,1,153,329.26Z" transform="translate(-14.21 -260.04)"/><path class="cls-3" d="M141,332.32a2.54,2.54,0,0,1-2.57-2.38,2.38,2.38,0,0,1,2.38-2.4Z" transform="translate(-14.21 -260.04)"/><ellipse class="cls-5" cx="125.75" cy="69.87" rx="0.47" ry="1.04"/><path class="cls-5" d="M148.3,332.69s-3.17,1-4.91-1Z" transform="translate(-14.21 -260.04)"/><line class="cls-6" x1="126.86" y1="72.57" x2="123.24" y2="72.57"/><polygon class="cls-7" points="156.07 105.15 156.9 118.55 166.67 117.14 156.07 105.15"/><line class="cls-6" x1="138.65" y1="66.97" x2="138.58" y2="66.97"/><line class="cls-6" x1="134.12" y1="66.97" x2="132.3" y2="66.97"/><line class="cls-6" x1="125.12" y1="66.97" x2="125.05" y2="66.97"/><path class="cls-4" d="M139.9,327.23s-3.88-1.93-2.82-4.12,6.7-3.19,8.94-3.19c2.94,0,8,1.15,8.93,2.94,1.18,2.35-2.35,4.37-2.35,4.37Z" transform="translate(-14.21 -260.04)"/><path class="cls-8" d="M146,328.91s-6,.09-6.11-1.68h12.7S152.72,328.83,146,328.91Z" transform="translate(-14.21 -260.04)"/><path class="cls-9" d="M139.9,327.23v-1.77s1.09-1.76,6.53-1.76,6.17,1.51,6.17,1.51v2Z" transform="translate(-14.21 -260.04)"/><path class="cls-10" d="M139.9,327.23s1.94-1,6.53-1,6.17,1,6.17,1Z" transform="translate(-14.21 -260.04)"/><ellipse class="cls-11" cx="132.15" cy="64.75" rx="1.18" ry="1.01"/><polygon class="cls-7" points="110.58 115.16 114.99 90.5 116.32 109.14 110.58 115.16"/><polygon class="cls-12" points="103.07 239.65 99.09 256.96 141.5 256.96 128.24 248.97 133.68 238.98 103.25 238.98 103.07 239.65"/><polygon class="cls-12" points="179.92 179.72 174.62 198.37 217.03 198.37 201.13 190.38 204.71 179.72 179.92 179.72"/><rect class="cls-13" x="174.79" y="198.36" width="51.52" height="58.59"/><rect class="cls-14" x="226.3" y="198.36" width="23.85" height="58.59"/><path class="cls-10" d="M129.21,385.17l42.4-6.66a20.77,20.77,0,0,0,5.3-1.33c4-1.33,23.85-10.66,39.75,0s21.21,37.28,14.58,62.58H193.48s4-39.28-25.18-24.63l-6.63,4L160.35,499H116.62s15.18-59.74,13.4-106a60.46,60.46,0,0,0-.61-6.44Z" transform="translate(-14.21 -260.04)"/><path class="cls-12" d="M158.36,389.16s0-8,13.25-10.65" transform="translate(-14.21 -260.04)"/><path class="cls-7" d="M134,360s3,7,13,3" transform="translate(-14.21 -260.04)"/><path class="cls-7" d="M152.67,362.41s5.26,5.51,13.23-1.74" transform="translate(-14.21 -260.04)"/><line class="cls-15" x1="195.38" y1="63.03" x2="185.79" y2="35.96"/><path class="cls-3" d="M217,339.36c-1,3.94-1.23,4.64-1.23,4.64h-7.58a14.85,14.85,0,0,1-3.19-6.21c-1-3.92,0-7.07,2-7.07a4.61,4.61,0,0,0,.68,0c.73-.1,1-.37,1.19-.83a5,5,0,0,0,.13-1.49c0-1.58-1-7.08,0-7.08s2-1.57,3,4.72S218,335.44,217,339.36Z" transform="translate(-14.21 -260.04)"/><path class="cls-5" d="M209,329.93c.72.57,1.45,2.8,1.8,4a12.12,12.12,0,0,0-3.12-3.22c.73-.1,1-.37,1.19-.83A.31.31,0,0,1,209,329.93Z" transform="translate(-14.21 -260.04)"/><path class="cls-16" d="M314.16,479.31H337s-4.78-9.09-12-8.38S314.16,479.31,314.16,479.31Z" transform="translate(-14.21 -260.04)"/><path class="cls-16" d="M312.85,479.31H290s4.79-9.09,12-8.38S312.85,479.31,312.85,479.31Z" transform="translate(-14.21 -260.04)"/><path class="cls-17" d="M333.85,452.13a19.7,19.7,0,1,1-37.05-9.3l1.86-2.85h0l18.72-28.61,14,31.25,1.32,2.94,0,0A19.75,19.75,0,0,1,333.85,452.13Z" transform="translate(-14.21 -260.04)"/><path class="cls-18" d="M328.57,465.57c-26.5,1.51-31.62-21.37-30.95-24-.28-.08-9.64,14.32,4.41,26,0,0,11.79,9.72,24.57-.23Z" transform="translate(-14.21 -260.04)"/><path class="cls-19" d="M320.44,472.42s-2.51,6.87,16.57,6.89H314.16a17.83,17.83,0,0,1,4.32-5.5C320.38,472.34,320.44,472.42,320.44,472.42Z" transform="translate(-14.21 -260.04)"/><path class="cls-19" d="M306.56,472.42s2.51,6.87-16.57,6.89h22.86a17.77,17.77,0,0,0-4.33-5.5C306.62,472.34,306.56,472.42,306.56,472.42Z" transform="translate(-14.21 -260.04)"/><line class="cls-20" x1="297.21" y1="138.26" x2="303.06" y2="152.66"/><path class="cls-21" d="M317.54,414.08" transform="translate(-14.21 -260.04)"/><circle class="cls-22" cx="298.6" cy="170.39" r="1.17"/><circle class="cls-22" cx="303.32" cy="170.39" r="1.17"/><line class="cls-20" x1="303" y1="152.66" x2="300.8" y2="127.96"/><line class="cls-20" x1="305.2" y1="132.17" x2="303" y2="152.66"/><line class="cls-20" x1="303" y1="152.66" x2="311.31" y2="133"/><ellipse class="cls-23" cx="294.6" cy="173.32" rx="3.05" ry="1.54"/><ellipse class="cls-23" cx="307" cy="173.32" rx="3.05" ry="1.54"/><path class="cls-24" d="M325.53,401.69" transform="translate(-14.21 -260.04)"/></g></svg>