<svg id="Calque_16" data-name="Calque 16" xmlns="http://www.w3.org/2000/svg" viewBox="0 0 85.79 79.69"><defs><style>.cls-1{fill:#e74366;}.cls-2{fill:#bf3a5b;}.cls-3,.cls-7{fill:#5b00f5;}.cls-4{fill:#b3b2ff;}.cls-5{fill:#cfd1f9;}.cls-6{fill:none;stroke:#f5bd34;stroke-miterlimit:10;stroke-width:1.72px;}.cls-7{fill-rule:evenodd;}</style></defs><ellipse class="cls-1" cx="46.3" cy="46.94" rx="37.26" ry="32.75"/><path class="cls-1" d="M149.17,450.34c-7.54,0-14.73-6-14.73-13.55a13.65,13.65,0,0,1,13.64-13.65" transform="translate(-134.44 -386)"/><ellipse class="cls-2" cx="9.02" cy="50.64" rx="2.69" ry="5.92"/><path class="cls-3" d="M147.1,418.84s-9-12.45,16-27.68,46.71,7.56,54.95,13-9,7.11-9,7.11-22.72-11.49-38.2-6.49S147.1,418.84,147.1,418.84Z" transform="translate(-134.44 -386)"/><ellipse class="cls-4" cx="66.23" cy="39.07" rx="10.77" ry="11.2"/><polygon class="cls-5" points="59.77 31.32 74.41 45.96 77 41.91 63.42 28.8 59.77 31.32"/><rect class="cls-5" x="199.63" y="415.58" width="1.22" height="20.71" transform="translate(-376.97 -119.66) rotate(-45)"/><circle class="cls-6" cx="66.66" cy="39.07" r="10.77"/><path class="cls-7" d="M202.15,444.53c-9.1.8-7.72-9.59-15.83-7-6,1.93-1,14.22,12.45,10.37,3.5-1,6.95-3.71,3.38-3.39Zm-40.85,0c9.1.8,7.72-9.59,15.82-7,6,1.93,1,14.22-12.44,10.37-3.5-1-7-3.71-3.38-3.39Z" transform="translate(-134.44 -386)"/></svg>