<svg id="Calque_14" data-name="Calque 14" xmlns="http://www.w3.org/2000/svg" viewBox="0 0 82.29 70.48"><defs><style>.cls-1{fill:#e94366;}.cls-2{fill:#c13a5b;}.cls-3,.cls-4{fill:#f8c133;}.cls-3{fill-rule:evenodd;}</style></defs><ellipse class="cls-1" cx="45.6" cy="38.23" rx="36.69" ry="32.25"/><path class="cls-1" d="M186.14,459.36c-7.42,0-14.5-5.93-14.5-13.35a13.43,13.43,0,0,1,13.43-13.43" transform="translate(-171.64 -404)"/><line class="cls-1" x1="23.42" y1="61.1" x2="52.17" y2="61.1"/><ellipse class="cls-2" cx="8.88" cy="41.87" rx="2.65" ry="5.83"/><path class="cls-3" d="M198,458.9c.69-.27,1.43-.16,2.24-.86-1.41.24-1.62-.49-.92-.58,3.76-.48,14.14-16.62,19.17-12.9a7.38,7.38,0,0,1,1.32,1.23,7.8,7.8,0,0,1,1.33-1.23c5-3.72,15.41,12.42,19.17,12.9.7.09.49.82-.92.58.81.7,1.55.59,2.24.86,1.67.66-3,1.28-6.58,1.44-8,.34-12.87-1.95-15.23-5-2.37,3-7.26,5.32-15.24,5-3.57-.16-8.25-.78-6.58-1.44Z" transform="translate(-171.64 -404)"/><path class="cls-4" d="M182.21,432.58v-8.15A20.43,20.43,0,0,1,202.64,404h31.07A18.29,18.29,0,0,1,252,422.29h0a1.7,1.7,0,0,1-1.71,1.71H193v16H182.21Z" transform="translate(-171.64 -404)"/></svg>