<svg id="Calque_3" data-name="Calque 3" xmlns="http://www.w3.org/2000/svg" viewBox="0 0 318.31 202.84"><defs><style>.cls-1{fill:#5b00f5;}.cls-2{fill:none;stroke:#1be5b9;stroke-miterlimit:10;stroke-width:4.89px;}.cls-3,.cls-7{fill:#1be5b9;}.cls-3{fill-rule:evenodd;}.cls-4{fill:#e74366;}.cls-5{fill:#bf3a5b;}.cls-6{fill:#1e166f;}.cls-8{fill:#fff;}</style></defs><rect class="cls-1" x="7.86" y="0.84" width="308" height="176.4" rx="26.66"/><rect class="cls-2" x="7.86" y="2.44" width="308" height="176.4" rx="26.66"/><path class="cls-3" d="M240.85,454.59a7.06,7.06,0,0,0,.16,1.58v1c0,6.6-7.81,12-17.36,12H83.29c-9.55,0-17.36-5.4-17.36-12v-1c0-6.6,7.81-12,17.36-12H223.65c2.44,0,4.79.36,5.45,1h27.83C244.05,445.17,240.87,451.54,240.85,454.59Z" transform="translate(-48.06 -266.33)"/><ellipse class="cls-4" cx="27.27" cy="181.77" rx="19.53" ry="17.16"/><path class="cls-4" d="M58.78,457.22c-4,0-7.72-3.16-7.72-7.1A7.15,7.15,0,0,1,58.21,443" transform="translate(-48.06 -266.33)"/><ellipse class="cls-5" cx="7.73" cy="183.7" rx="1.41" ry="3.1"/><path class="cls-5" d="M80.76,458.31s-9.5,2.89-14.7-2.9" transform="translate(-48.06 -266.33)"/><path class="cls-6" d="M93.35,436.23a13,13,0,0,1,3.7,2.9c2,3.06-2,6.13-7.15,3.06S87,435.93,76.19,437a31,31,0,0,0-4.69,1.09,44.48,44.48,0,0,0-14.3,8.17s-8-9.39,5.11-17.37,33.48.19,37.8,3.07C103.08,434,97.28,435.47,93.35,436.23Z" transform="translate(-48.06 -266.33)"/><path class="cls-7" d="M76,425.51c10.58,0,21.19,4.48,24.16,6.47s-2.83,3.49-6.76,4.25a13,13,0,0,1,3.7,2.9c1.42,2.13-.13,4.26-2.93,4.33a15.23,15.23,0,0,1,.74,4.64c0,9.48-8.74,17.17-19.53,17.17a20.21,20.21,0,0,1-16.55-8.09v0c-4,0-7.72-3.16-7.72-7.1a7.14,7.14,0,0,1,4.53-6.65c-1.36-3.39-1.92-9.28,6.72-14.56A25.92,25.92,0,0,1,76,425.51m0-3a28.8,28.8,0,0,0-15.21,3.84c-3.35,2-10.41,7.45-8.71,15.71a10.08,10.08,0,0,0-4,8.06c0,5,4.07,9.26,9.19,10a23.36,23.36,0,0,0,18.08,8.16c12.42,0,22.53-9,22.53-20.17a16.84,16.84,0,0,0-.19-2.55,5.73,5.73,0,0,0,2.32-2.36,5.55,5.55,0,0,0-.32-5.53c2.59-1,3.85-2.21,4.18-3.87a4.08,4.08,0,0,0-2.07-4.31c-3.28-2.18-14.33-7-25.83-7Z" transform="translate(-48.06 -266.33)"/><path class="cls-8" d="M106,459.12v-1.19c0-.49.1-.58.31-.62.77-.14,3.38.3,3.38-.95,0-1.43-3.41-.63-3.41-3.38,0-2.15,2.12-2.87,4.05-2.87a7.23,7.23,0,0,1,1.26.1c.48.08.59.15.59.62v.85c0,.38,0,.56-.55.46a6.41,6.41,0,0,0-1.15-.11c-1,0-1.45.35-1.45.94,0,1.57,3.12.73,3.12,4,0,2.4-1.68,2.92-3.44,2.92a18.65,18.65,0,0,1-2.22-.18C106.14,459.66,106,459.58,106,459.12Z" transform="translate(-48.06 -266.33)"/><path class="cls-8" d="M117.29,457.63c.58,0,1.29,0,1.26.4l-.1,1.21c0,.52-.14.68-.41.68h-4.93c-.19,0-.19-.21-.19-.37v-8.82c0-.32,1.44-.62,2-.62a23.55,23.55,0,0,1,3.49.23c.09,0,.32.05.32.61v1.4a.17.17,0,0,1-.18.18h-3.08c-.08,0-.1.12-.1.2v1.09h1a.3.3,0,0,1,.34.28v1.31c0,.14-.06.21-.16.21h-1.2c-.06,0-.07.05-.07.11v1.71c0,.14.07.19.22.19Z" transform="translate(-48.06 -266.33)"/><path class="cls-8" d="M124.74,459.31c0,.61-.79.61-1.21.61-2.7,0-4.51-1.95-4.51-4.84s1.89-5,4.72-5c.6,0,1,.24,1,.62v1.47c0,.17-.12.23-.51.23a2.52,2.52,0,0,0-2.81,2.45,2.81,2.81,0,0,0,2.88,2.72c.32,0,.44.05.44.22Z" transform="translate(-48.06 -266.33)"/><path class="cls-8" d="M131.78,459.73c0,.19-.2.19-.3.19h-2.07a.23.23,0,0,1-.22-.13l-.84-1.82c-.12-.24-.2-.36-.26-.36s-.09.12-.09.36v1.76c0,.19-.19.19-.28.19H126c-.1,0-.24,0-.24-.19,0-.65.11-2.25.11-4.25s-.08-4.75-.08-4.85c0-.35,1.21-.52,2.27-.52,1.76,0,3,1,3,2.59A2.21,2.21,0,0,1,129.1,455c-.12,0-.11.05,0,.23A39.91,39.91,0,0,1,131.78,459.73Zm-3.87-6.52c0,.08,0,.11.17.11a1.19,1.19,0,0,0,1.12-1.11c0-.42-.35-.59-1-.59-.27,0-.31,0-.31.26Z" transform="translate(-48.06 -266.33)"/><path class="cls-8" d="M136.84,457.63c.59,0,1.29,0,1.26.4l-.09,1.21c0,.52-.14.68-.41.68h-4.93c-.2,0-.2-.21-.2-.37v-8.82c0-.32,1.45-.62,2-.62a23.62,23.62,0,0,1,3.49.23c.08,0,.32.05.32.61v1.4a.17.17,0,0,1-.18.18H135c-.09,0-.1.12-.1.2v1.09h1a.3.3,0,0,1,.34.28v1.31c0,.14-.06.21-.16.21h-1.2c-.06,0-.07.05-.07.11v1.71c0,.14.07.19.22.19Zm-1.65-8.22a3.67,3.67,0,0,1,.32-1.27,1.36,1.36,0,0,1,.62-.12c.2,0,.35.05.35.13s-.88,1.39-1.2,1.39C135.22,449.54,135.19,449.51,135.19,449.41Z" transform="translate(-48.06 -266.33)"/><path class="cls-8" d="M147.53,450.11c.28,0,.47.25.47.6V452c0,.58-.09.71-.58.71H145c-.16,0-.18.06-.18.18,0,2.41.1,4.53.21,6.81,0,.2-.11.2-.28.2H142.5c-.17,0-.29,0-.28-.2.13-2.28.21-4.4.21-6.81,0-.11,0-.18-.21-.18h-2.44c-.49,0-.5-.22-.5-.76v-1.28c0-.38.15-.58.45-.58Z" transform="translate(-48.06 -266.33)"/><path class="cls-8" d="M148.48,459.92h-1.95c-.21,0-.32,0-.24-.23l3.52-8.85a3.53,3.53,0,0,1,2-.73c.15,0,.25,0,.28.1l3.28,9.52c0,.06-.06.19-.3.19h-1.87a.52.52,0,0,1-.44-.23c-.05-.14-.4-1.86-.6-1.87l-2.45-.13c-.38,0-.83,1.75-.93,2A.25.25,0,0,1,148.48,459.92Zm1.94-4.63c-.09.2-.07.27.19.27h.86c.09,0,.23-.06.15-.32l-.27-.93c-.06-.21-.1-.32-.16-.32s-.12.11-.23.32Z" transform="translate(-48.06 -266.33)"/><path class="cls-8" d="M156.13,459.92c-.25,0-.3,0-.3-.14v-9.07c0-.32,1.54-.6,2.78-.6.19,0,.24,0,.24.3v9.37c0,.14-.08.14-.38.14Z" transform="translate(-48.06 -266.33)"/><path class="cls-8" d="M166.1,459.73c0,.19-.19.19-.29.19h-2.07a.26.26,0,0,1-.23-.13l-.84-1.82c-.11-.24-.19-.36-.25-.36s-.1.12-.1.36v1.76c0,.19-.18.19-.28.19h-1.76c-.1,0-.24,0-.24-.19,0-.65.11-2.25.11-4.25s-.08-4.75-.08-4.85c0-.35,1.2-.52,2.27-.52,1.76,0,3,1,3,2.59a2.21,2.21,0,0,1-1.93,2.31c-.13,0-.11.05,0,.23A38.46,38.46,0,0,1,166.1,459.73Zm-3.86-6.52c0,.08,0,.11.17.11a1.2,1.2,0,0,0,1.12-1.11c0-.42-.35-.59-1-.59-.27,0-.31,0-.31.26Z" transform="translate(-48.06 -266.33)"/><path class="cls-8" d="M171.17,457.63c.59,0,1.29,0,1.26.4l-.1,1.21c0,.52-.14.68-.4.68H167c-.2,0-.2-.21-.2-.37v-8.82c0-.32,1.44-.62,2-.62a23.69,23.69,0,0,1,3.49.23c.08,0,.32.05.32.61v1.4a.17.17,0,0,1-.18.18h-3.09c-.08,0-.09.12-.09.2v1.09h1a.3.3,0,0,1,.33.28v1.31q0,.21-.15.21h-1.21c-.05,0-.07.05-.07.11v1.71c0,.14.07.19.23.19Z" transform="translate(-48.06 -266.33)"/><path class="cls-8" d="M184.17,455.53c0,1.21-.33,4.39-3.34,4.39-2.32,0-3.72-2.06-3.72-5.1,0-2.65,2-4.71,4.13-4.71.32,0,1.78,0,1.78.44v1.77c0,.31-.56.2-1.81.2-1,0-1.74.73-1.74,2.31s.89,2.59,1.53,2.59a1.42,1.42,0,0,0,1.23-1.22c0-.16,0-.49-.14-.49l-.92.05c-.3,0-.34-.27-.34-1.19,0-.2.06-.42.35-.44l2.54-.12C184,454,184.17,454.5,184.17,455.53Z" transform="translate(-48.06 -266.33)"/><path class="cls-8" d="M189.37,457.63c.59,0,1.29,0,1.26.4l-.1,1.21c0,.52-.14.68-.4.68H185.2c-.2,0-.2-.21-.2-.37v-8.82c0-.32,1.44-.62,2-.62a23.69,23.69,0,0,1,3.49.23c.08,0,.32.05.32.61v1.4a.17.17,0,0,1-.18.18h-3.09c-.08,0-.09.12-.09.2v1.09h1a.3.3,0,0,1,.33.28v1.31q0,.21-.15.21h-1.21s-.07.05-.07.11v1.71c0,.14.07.19.23.19Zm-1.65-8.22a3.67,3.67,0,0,1,.32-1.27,1.36,1.36,0,0,1,.62-.12c.19,0,.35.05.35.13s-.89,1.39-1.21,1.39C187.75,449.54,187.72,449.51,187.72,449.41Z" transform="translate(-48.06 -266.33)"/><path class="cls-8" d="M198.42,450.42v9.23c0,.22-.06.27-.23.27h-1.45c-.17,0-.21,0-.38-.27-.06-.08-2.45-3.42-2.52-3.42s-.06,2.51-.06,3.41c0,.23-.07.28-.21.28h-1.68c-.15,0-.23-.07-.23-.19v-8.92c0-.19,1.06-.7,1.42-.7a.26.26,0,0,1,.22.1c0,.08,2.74,4.8,2.82,4.8s.18-3.16.18-4.59c0-.24.1-.31.28-.31h1.58C198.37,450.11,198.42,450.21,198.42,450.42Z" transform="translate(-48.06 -266.33)"/><path class="cls-8" d="M203.62,457.63c.59,0,1.29,0,1.26.4l-.09,1.21c0,.52-.14.68-.41.68h-4.93c-.2,0-.2-.21-.2-.37v-8.82c0-.32,1.45-.62,2-.62a23.69,23.69,0,0,1,3.49.23c.08,0,.32.05.32.61v1.4a.17.17,0,0,1-.18.18h-3.08c-.09,0-.1.12-.1.2v1.09h1a.3.3,0,0,1,.33.28v1.31q0,.21-.15.21h-1.2c-.06,0-.07.05-.07.11v1.71c0,.14.07.19.22.19ZM202,449.41a3.67,3.67,0,0,1,.32-1.27,1.36,1.36,0,0,1,.62-.12c.19,0,.35.05.35.13s-.88,1.39-1.21,1.39C202,449.54,202,449.51,202,449.41Z" transform="translate(-48.06 -266.33)"/><path class="cls-8" d="M212.12,459.73c0,.19-.19.19-.29.19h-2.08a.26.26,0,0,1-.22-.13l-.84-1.82c-.11-.24-.2-.36-.25-.36s-.1.12-.1.36v1.76c0,.19-.18.19-.28.19h-1.77c-.09,0-.23,0-.23-.19,0-.65.11-2.25.11-4.25s-.09-4.75-.09-4.85c0-.35,1.21-.52,2.27-.52,1.77,0,3,1,3,2.59a2.22,2.22,0,0,1-1.93,2.31c-.13,0-.12.05,0,.23A38.46,38.46,0,0,1,212.12,459.73Zm-3.86-6.52c0,.08,0,.11.16.11a1.19,1.19,0,0,0,1.12-1.11c0-.42-.35-.59-1-.59-.26,0-.3,0-.3.26Z" transform="translate(-48.06 -266.33)"/><path class="cls-8" d="M214.76,459.92h-1.94c-.21,0-.32,0-.24-.23l3.52-8.85a3.53,3.53,0,0,1,2-.73c.15,0,.25,0,.28.1l3.27,9.52c0,.06-.05.19-.29.19h-1.88a.52.52,0,0,1-.43-.23c-.06-.14-.41-1.86-.6-1.87l-2.45-.13c-.38,0-.83,1.75-.93,2A.26.26,0,0,1,214.76,459.92Zm2-4.63c-.1.2-.07.27.18.27h.87c.09,0,.23-.06.14-.32l-.26-.93c-.06-.21-.1-.32-.16-.32s-.12.11-.24.32Z" transform="translate(-48.06 -266.33)"/><path class="cls-8" d="M222.18,450.71c0-.25,1.33-.6,2.55-.6.1,0,.21,0,.21.11s-.42,4.71-.42,5.69c0,.43-.08,1,.25,1,.52,0,2.79-.35,3.13-.35.15,0,.21.06.21.24l-.11,3c0,.19-.2.19-.4.19h-5.19c-.1,0-.23,0-.23-.19Z" transform="translate(-48.06 -266.33)"/></svg>