<svg width="219" height="305" viewBox="0 0 219 305" fill="none" xmlns="http://www.w3.org/2000/svg">
<path d="M190.358 1L1 19.5498L23.6118 303.755L218.16 288.639C218.16 288.639 192.629 51.5965 190.358 1Z" fill="black" stroke="black" stroke-width="1.5" stroke-miterlimit="10"/>
<path d="M195.752 9.26019L5.72559 18.5518L14.6749 303.528C14.6749 303.528 155.957 303.355 188.609 299.194C206.897 294.78 210.231 282.93 210.231 282.93C210.231 282.93 195.589 59.9068 195.752 9.26019Z" fill="white" stroke="black" stroke-width="1.5" stroke-miterlimit="10"/>
<path d="M53.8591 94.6657C71.9924 94.6657 86.6924 79.8407 86.6924 61.5531C86.6924 43.2655 71.9924 28.4405 53.8591 28.4405C35.7258 28.4405 21.0259 43.2655 21.0259 61.5531C21.0259 79.8407 35.7258 94.6657 53.8591 94.6657Z" fill="#FFEE1A" stroke="#1D1D1B" stroke-width="1.5" stroke-linecap="round" stroke-linejoin="round"/>
<path d="M45.4357 63.4689L41.0619 63.6871C40.4523 63.7301 39.8412 63.6315 39.2753 63.3989C38.6414 63.1492 38.0897 62.7248 37.6834 62.1742C37.277 61.6235 37.0322 60.9688 36.977 60.2847C36.9596 59.6674 37.103 59.0563 37.3925 58.5121C37.682 57.968 38.1075 57.5097 38.6271 57.183C39.2371 56.7974 39.9386 56.5836 40.6583 56.5639L45.2131 56.3373C45.9315 56.2868 46.6502 56.431 47.2948 56.7549C47.8439 57.0283 48.3124 57.4421 48.6535 57.955C48.9946 58.4679 49.1967 59.062 49.2391 59.6781C49.2565 60.1704 49.1703 60.6608 48.9864 61.1172C48.8024 61.5735 48.5249 61.9854 48.1718 62.3257C47.4307 63.0339 46.4563 63.441 45.4357 63.4689Z" fill="white" stroke="#1D1D1B" stroke-width="1.5" stroke-linecap="round" stroke-linejoin="round"/>
<path d="M45.8974 63.4104C47.8361 63.4104 49.4078 61.8254 49.4078 59.8702C49.4078 57.915 47.8361 56.33 45.8974 56.33C43.9587 56.33 42.3871 57.915 42.3871 59.8702C42.3871 61.8254 43.9587 63.4104 45.8974 63.4104Z" fill="#1D1D1B"/>
<path d="M68.1739 62.3393L63.8001 62.5565C63.1909 62.5998 62.5799 62.5016 62.0143 62.2693C61.3798 62.0204 60.8278 61.5962 60.4213 61.0454C60.0149 60.4946 59.7705 59.8395 59.7162 59.1551C59.6984 58.5378 59.8413 57.9267 60.1307 57.3824C60.42 56.8382 60.8457 56.38 61.3653 56.0534C61.9753 55.6678 62.6766 55.454 63.3962 55.4342L67.9513 55.2077C68.6693 55.1574 69.3877 55.3015 70.032 55.6253C70.5811 55.8987 71.0496 56.3125 71.3907 56.8254C71.7318 57.3383 71.9336 57.9324 71.976 58.5485C71.9935 59.0407 71.9076 59.531 71.7238 59.9874C71.54 60.4437 71.2626 60.8556 70.9097 61.1961C70.1687 61.9043 69.1945 62.3114 68.1739 62.3393Z" fill="white" stroke="#1D1D1B" stroke-width="1.5" stroke-linecap="round" stroke-linejoin="round"/>
<path d="M68.6356 62.2797C70.5743 62.2797 72.1459 60.6947 72.1459 58.7395C72.1459 56.7843 70.5743 55.1993 68.6356 55.1993C66.6969 55.1993 65.1252 56.7843 65.1252 58.7395C65.1252 60.6947 66.6969 62.2797 68.6356 62.2797Z" fill="#1D1D1B"/>
<path d="M188.613 299.187C206.898 294.775 210.229 282.922 210.229 282.922C202.879 288.142 191.579 284.253 191.579 284.253C191.579 284.253 192.864 292.725 188.613 299.187Z" fill="white" stroke="black" stroke-width="1.5" stroke-miterlimit="10"/>
<path d="M26.0101 54.6971L19.5485 48.2682C19.1046 47.8991 18.7385 47.4441 18.4718 46.93C18.2051 46.416 18.0432 45.8532 17.9957 45.275L15.8457 18.9662C15.7583 17.8819 16.101 16.807 16.7985 15.9771C17.4959 15.1473 18.4912 14.6303 19.5661 14.5396L31.6695 13.5332C32.7448 13.4451 33.811 13.7908 34.6338 14.4944C35.4567 15.198 35.9691 16.2021 36.0587 17.2864L38.209 43.5952C38.2554 44.1737 38.1867 44.7558 38.0068 45.3071C37.8269 45.8584 37.5395 46.3679 37.1614 46.8055L31.944 54.0739L31.831 54.2148C31.0969 55.0149 30.0921 55.5085 29.0148 55.5979C27.9376 55.6874 26.8664 55.3664 26.0124 54.6982L26.0101 54.6971ZM34.6902 44.9033L34.8021 44.7634C34.9133 44.6413 34.9982 44.4973 35.0516 44.3404C35.105 44.1836 35.126 44.0173 35.1128 43.852L32.9615 17.5432C32.9401 17.2873 32.8193 17.0503 32.6254 16.8839C32.4314 16.7175 32.1802 16.6351 31.9263 16.6548L19.8239 17.6612C19.5701 17.6825 19.3349 17.8043 19.1699 17.9999C19.0048 18.1955 18.9232 18.4491 18.9429 18.7052L21.0929 45.014C21.1066 45.1789 21.1538 45.3392 21.2317 45.4849C21.3095 45.6306 21.4162 45.7585 21.5453 45.8607L27.9864 52.2698C28.2141 52.4261 28.4881 52.4989 28.7626 52.4761C29.0371 52.4533 29.2955 52.3363 29.4948 52.1445L34.6902 44.9033Z" fill="white" stroke="black" stroke-width="1.5" stroke-miterlimit="10"/>
</svg>
