<svg width="225" height="310" viewBox="0 0 225 310" fill="none" xmlns="http://www.w3.org/2000/svg">
<path d="M195.091 1L1.10938 19.8388L24.2732 308.454L223.571 293.103C223.571 293.103 197.413 52.3818 195.091 1Z" fill="black" stroke="black" stroke-width="1.5" stroke-miterlimit="10"/>
<path d="M200.612 9.39255L5.94702 18.8284L15.1138 308.227C15.1138 308.227 159.846 308.052 193.296 303.826C212.029 299.344 215.446 287.309 215.446 287.309C215.446 287.309 200.445 60.821 200.612 9.39255Z" fill="white" stroke="black" stroke-width="1.5" stroke-miterlimit="10"/>
<path d="M193.295 303.811C212.026 299.331 215.439 287.294 215.439 287.294C207.909 292.595 196.333 288.646 196.333 288.646C196.333 288.646 197.653 297.253 193.295 303.811Z" fill="white" stroke="black" stroke-width="1.5" stroke-miterlimit="10"/>
<path d="M54.5577 106.659L19.191 72.4027C18.2858 71.6994 17.6966 70.6659 17.5524 69.5289C17.4083 68.3918 17.7211 67.244 18.4222 66.3372L44.129 24.3468C44.8327 23.4417 45.8666 22.8526 47.0041 22.7085C48.1416 22.5644 49.2899 22.8771 50.1971 23.5781L85.5636 57.8344C86.4689 58.5377 87.0581 59.5712 87.2022 60.7082C87.3464 61.8452 87.0336 62.993 86.3325 63.8998L60.6299 105.89C59.9263 106.797 58.8916 107.387 57.753 107.531C56.6143 107.675 55.4651 107.362 54.5577 106.659Z" fill="#FF6700" stroke="black" stroke-width="1.5" stroke-miterlimit="10"/>
<path d="M50.5778 70.1519C50.9046 70.1121 51.2161 69.9902 51.4829 69.7974C51.7497 69.6046 51.9633 69.3473 52.1036 69.0496C52.2438 68.7518 52.3062 68.4234 52.285 68.0949C52.2637 67.7665 52.1594 67.4488 51.9819 67.1716C51.3338 66.1906 50.4239 65.4105 49.3553 64.9198C48.2866 64.4291 47.1018 64.2473 45.9352 64.3951C44.7685 64.5428 43.6664 65.0142 42.7539 65.7558C41.8414 66.4974 41.1548 67.4796 40.7718 68.5913C40.669 68.904 40.6473 69.2377 40.7087 69.5612C40.77 69.8846 40.9125 70.1872 41.1227 70.4406C41.3329 70.694 41.604 70.8899 41.9106 71.01C42.2172 71.1301 42.5493 71.1704 42.8757 71.1272L50.5778 70.1519Z" fill="white" stroke="#1D1D1B" stroke-width="1.5" stroke-linecap="round" stroke-linejoin="round"/>
<path d="M49.3732 70.6024C50.8825 70.6024 52.106 69.3792 52.106 67.8703C52.106 66.3613 50.8825 65.1381 49.3732 65.1381C47.8639 65.1381 46.6404 66.3613 46.6404 67.8703C46.6404 69.3792 47.8639 70.6024 49.3732 70.6024Z" fill="#1D1D1B"/>
<path d="M70.1571 67.6731C70.4839 67.6331 70.7952 67.5109 71.062 67.318C71.3288 67.1251 71.5423 66.8678 71.6826 66.5701C71.8229 66.2723 71.8855 65.9439 71.8645 65.6154C71.8434 65.2869 71.7394 64.9692 71.5623 64.6918C70.914 63.7108 70.004 62.9308 68.9353 62.4401C67.8665 61.9495 66.6817 61.7677 65.515 61.9155C64.3483 62.0632 63.2463 62.5345 62.3336 63.2761C61.421 64.0176 60.7342 64.9998 60.351 66.1114C60.2486 66.4242 60.2272 66.7578 60.2887 67.0811C60.3502 67.4045 60.4926 67.707 60.7028 67.9603C60.9129 68.2137 61.1839 68.4097 61.4903 68.53C61.7967 68.6504 62.1286 68.6911 62.455 68.6484L70.1571 67.6731Z" fill="white" stroke="#1D1D1B" stroke-width="1.5" stroke-linecap="round" stroke-linejoin="round"/>
<path d="M68.9537 68.1237C70.463 68.1237 71.6865 66.9005 71.6865 65.3916C71.6865 63.8826 70.463 62.6594 68.9537 62.6594C67.4444 62.6594 66.2209 63.8826 66.2209 65.3916C66.2209 66.9005 67.4444 68.1237 68.9537 68.1237Z" fill="#1D1D1B"/>
<path d="M26.7258 55.5306L20.1064 49.0018C19.6516 48.627 19.2766 48.165 19.0034 47.643C18.7302 47.1209 18.5643 46.5494 18.5157 45.9622L16.313 19.2451C16.2235 18.144 16.5745 17.0523 17.289 16.2096C18.0035 15.3669 19.0232 14.8419 20.1244 14.7498L32.5234 13.7278C33.625 13.6383 34.717 13.9894 35.56 14.7039C36.4029 15.4185 36.9279 16.4381 37.0198 17.5392L39.2235 44.2564C39.2708 44.8438 39.2 45.4347 39.0156 45.9944C38.8311 46.5541 38.5365 47.0712 38.1492 47.5154L32.8044 54.8976L32.6888 55.0397C31.9368 55.8523 30.9074 56.3534 29.8039 56.4443C28.7003 56.5352 27.6028 56.2092 26.7279 55.5306H26.7258ZM35.6178 45.5848L35.7324 45.4427C35.8463 45.3186 35.9333 45.1724 35.9881 45.0131C36.0428 44.8539 36.0641 44.685 36.0505 44.5172L33.8479 17.8C33.8257 17.5403 33.7019 17.2998 33.5033 17.1308C33.3047 16.9619 33.0474 16.8781 32.7874 16.8978L20.3884 17.9198C20.1285 17.9417 19.8878 18.0654 19.7187 18.264C19.5497 18.4626 19.466 18.72 19.486 18.98L21.6886 45.6972C21.7026 45.8646 21.7509 46.0274 21.8307 46.1754C21.9104 46.3233 22.0198 46.4532 22.152 46.557L28.7503 53.0656C28.9834 53.2247 29.2641 53.2988 29.5454 53.2756C29.8266 53.2525 30.0914 53.1334 30.2953 52.9384L35.6178 45.5848Z" fill="white" stroke="black" stroke-width="1.5" stroke-miterlimit="10"/>
</svg>
