<svg width="225" height="310" viewBox="0 0 225 310" fill="none" xmlns="http://www.w3.org/2000/svg">
<path d="M195.375 1L1.39307 19.843L24.5569 308.458L223.855 293.102C223.855 293.102 197.697 52.3807 195.375 1Z" fill="black" stroke="black" stroke-width="1.5" stroke-miterlimit="10"/>
<path d="M200.896 9.3873L6.23071 18.8231L15.3975 308.219C15.3975 308.219 160.129 308.044 193.58 303.818C212.313 299.336 215.73 287.301 215.73 287.301C215.73 287.301 200.728 60.821 200.896 9.3873Z" fill="white" stroke="black" stroke-width="1.5" stroke-miterlimit="10"/>
<path d="M193.579 303.813C212.31 299.334 215.723 287.298 215.723 287.298C208.193 292.599 196.617 288.649 196.617 288.649C196.617 288.649 197.937 297.253 193.579 303.813Z" fill="white" stroke="black" stroke-width="1.5" stroke-miterlimit="10"/>
<path d="M88.5807 79.9661L87.5563 42.5303L54.6171 24.6998L22.7012 44.304L23.7245 81.7388L56.6648 99.5693L88.5807 79.9661Z" fill="#3154FF" stroke="black" stroke-width="1.5" stroke-miterlimit="10"/>
<path d="M49.0537 61.1284L49.1672 65.2833C49.1949 65.8625 49.0894 66.4403 48.8586 66.9722C48.6112 67.5696 48.2006 68.0853 47.6738 68.4603C47.147 68.8353 46.5253 69.0544 45.8797 69.0927C45.2984 69.0967 44.7262 68.9483 44.2201 68.6624C43.714 68.3765 43.2917 67.963 42.9953 67.4631C42.6454 66.8765 42.4586 66.207 42.4544 65.524L42.3367 61.1984C42.3025 60.5158 42.4524 59.8366 42.7705 59.2317C43.0392 58.7164 43.4383 58.2805 43.928 57.9675C44.4177 57.6544 44.981 57.4751 45.5616 57.4474C46.0252 57.441 46.485 57.5327 46.9106 57.7165C47.3363 57.9003 47.7183 58.1721 48.0314 58.5139C48.6821 59.2301 49.0461 60.1609 49.0537 61.1284Z" fill="white" stroke="#1D1D1B" stroke-width="1.5" stroke-linecap="round" stroke-linejoin="round"/>
<path d="M45.6749 63.9486C47.5157 63.9486 49.0079 62.4567 49.0079 60.6164C49.0079 58.776 47.5157 57.2841 45.6749 57.2841C43.8341 57.2841 42.3418 58.776 42.3418 60.6164C42.3418 62.4567 43.8341 63.9486 45.6749 63.9486Z" fill="#1D1D1B"/>
<path d="M67.826 60.6153L67.9406 64.7702C67.9684 65.3494 67.8628 65.9272 67.632 66.4591C67.3846 67.0565 66.9741 67.5722 66.4473 67.9472C65.9205 68.3222 65.2987 68.5413 64.6531 68.5796C64.0718 68.5836 63.4997 68.4352 62.9936 68.1493C62.4875 67.8634 62.0652 67.4499 61.7687 66.95C61.4188 66.3634 61.2321 65.6939 61.2278 65.0109L61.1101 60.6853C61.076 60.0027 61.2258 59.3235 61.5438 58.7186C61.8126 58.2033 62.2117 57.7674 62.7015 57.4544C63.1912 57.1413 63.7544 56.962 64.335 56.9343C64.7986 56.9279 65.2584 57.0196 65.6841 57.2034C66.1097 57.3872 66.4917 57.659 66.8049 58.0008C67.4562 58.7166 67.8198 59.6477 67.826 60.6153Z" fill="white" stroke="#1D1D1B" stroke-width="1.5" stroke-linecap="round" stroke-linejoin="round"/>
<path d="M64.4486 63.4354C66.2894 63.4354 67.7817 61.9436 67.7817 60.1032C67.7817 58.2629 66.2894 56.771 64.4486 56.771C62.6078 56.771 61.1155 58.2629 61.1155 60.1032C61.1155 61.9436 62.6078 63.4354 64.4486 63.4354Z" fill="#1D1D1B"/>
<path d="M27.0098 55.5305L20.3903 48.9986C19.9358 48.6237 19.5609 48.1616 19.2877 47.6396C19.0145 47.1175 18.8485 46.5461 18.7996 45.959L16.597 19.2419C16.5095 18.1427 16.8609 17.0535 17.5743 16.2126C18.2877 15.3716 19.3051 14.8472 20.4041 14.754L32.8031 13.732C33.9045 13.6425 34.9964 13.9934 35.8393 14.7077C36.6822 15.4221 37.2073 16.4415 37.2995 17.5424L39.5031 44.2595C39.5502 44.846 39.4798 45.436 39.2959 45.9949C39.1119 46.5538 38.8183 47.0704 38.4321 47.5143L33.0873 54.8955L32.9717 55.0386C32.2193 55.8505 31.19 56.3512 30.0867 56.4421C28.9833 56.5329 27.886 56.2074 27.0108 55.5295L27.0098 55.5305ZM35.9018 45.5837L36.0163 45.4427C36.1301 45.3185 36.217 45.1722 36.2717 45.013C36.3265 44.8538 36.3478 44.685 36.3345 44.5171L34.1318 17.8C34.1099 17.5401 33.9862 17.2995 33.7876 17.1305C33.5889 16.9614 33.3314 16.8778 33.0714 16.8978L20.6724 17.9198C20.4124 17.9414 20.1715 18.0651 20.0024 18.2637C19.8333 18.4624 19.7497 18.7199 19.7699 18.98L21.9726 45.6971C21.9865 45.8648 22.0348 46.0277 22.1146 46.1758C22.1943 46.3239 22.3037 46.4541 22.4359 46.558L29.0342 53.0656C29.2673 53.2246 29.548 53.2988 29.8293 53.2756C30.1106 53.2525 30.3753 53.1334 30.5793 52.9383L35.9018 45.5837Z" fill="white" stroke="black" stroke-width="1.5" stroke-miterlimit="10"/>
</svg>
