<?xml version="1.0" encoding="iso-8859-1"?>
<!-- Generator: Adobe Illustrator 25.4.0, SVG Export Plug-In . SVG Version: 6.00 Build 0)  -->
<svg version="1.1" id="Calque_1" xmlns="http://www.w3.org/2000/svg" xmlns:xlink="http://www.w3.org/1999/xlink" x="0px" y="0px"
	 width="211.958px" height="292.165px" viewBox="0 0 211.958 292.165" enable-background="new 0 0 211.958 292.165"
	 xml:space="preserve">
<g>
	<g>
		<path stroke="#000000" stroke-width="2" stroke-miterlimit="10" d="M184.011,1.085L1.091,18.854L22.933,291.08l187.935-14.479
			C210.868,276.601,186.2,49.549,184.011,1.085z"/>
		<path fill="#FFFFFF" stroke="#000000" stroke-width="2" stroke-miterlimit="10" d="M189.217,8.997L5.652,17.893l8.645,272.964
			c0,0,136.479-0.165,168.021-4.151c17.666-4.228,20.887-15.579,20.887-15.579S189.059,57.509,189.217,8.997z"/>
		<path fill="#FFFFFF" stroke="#000000" stroke-width="2" stroke-miterlimit="10" d="M182.321,286.704
			c17.663-4.225,20.881-15.578,20.881-15.578c-7.103,5.001-18.016,1.275-18.016,1.275S186.427,280.516,182.321,286.704z"/>
	</g>
	<g>
		
			<path fill="#89F798" stroke="#1D1D1B" stroke-width="2" stroke-linecap="round" stroke-linejoin="round" stroke-miterlimit="10" d="
			M47.918,106.67c-10.827,0.78-20.269-7.394-21.049-18.221l-3.024-41.281c-0.78-10.827,7.394-20.269,18.221-21.049
			s20.269,7.394,21.049,18.221l3.024,41.281C66.919,96.448,58.745,105.891,47.918,106.67z"/>
		<g>
			
				<path fill="#FFFFFF" stroke="#1D1D1B" stroke-width="2" stroke-linecap="round" stroke-linejoin="round" stroke-miterlimit="10" d="
				M43.886,79.328c-0.182-2.525-2.12-4.443-4.33-4.284c-2.209,0.159-3.853,2.335-3.671,4.86c0.182,2.525,2.294,4.684,4.289,3.722
				C43.025,82.253,44.068,81.853,43.886,79.328z"/>
			<circle fill="#1D1D1B" cx="40.935" cy="80.237" r="2.958"/>
			
				<path fill="#FFFFFF" stroke="#1D1D1B" stroke-width="2" stroke-linecap="round" stroke-linejoin="round" stroke-miterlimit="10" d="
				M49.309,78.937c-0.182-2.525,1.462-4.701,3.671-4.86c2.209-0.159,4.148,1.759,4.33,4.284c0.182,2.525-1.599,4.964-3.712,4.299
				C50.581,81.709,49.491,81.462,49.309,78.937z"/>
			<circle fill="#1D1D1B" cx="52.307" cy="79.418" r="2.958"/>
		</g>
	</g>
	<path fill="#FFFFFF" stroke="#000000" stroke-width="2" stroke-miterlimit="10" d="M25.246,52.519l-6.242-6.158
		c-0.864-0.71-1.41-1.749-1.502-2.867l-2.077-25.197c-0.178-2.16,1.435-4.062,3.594-4.24l11.692-0.964
		c2.16-0.178,4.062,1.434,4.24,3.594l2.077,25.197c0.092,1.117-0.277,2.232-1.013,3.075l-5.04,6.962l-0.109,0.134
		c-0.728,0.793-1.709,1.241-2.721,1.325C27.136,53.464,26.095,53.182,25.246,52.519z M33.631,43.138l0.109-0.133
		c0.217-0.236,0.326-0.555,0.299-0.873l-2.077-25.197c-0.042-0.511-0.493-0.893-1.004-0.851l-11.692,0.964
		c-0.511,0.042-0.893,0.493-0.851,1.004l2.077,25.197c0.026,0.319,0.186,0.615,0.437,0.812l6.222,6.139
		c0.45,0.31,1.066,0.258,1.457-0.12L33.631,43.138z"/>
</g>
</svg>
