<svg width="225" height="310" viewBox="0 0 225 310" fill="none" xmlns="http://www.w3.org/2000/svg">
<path d="M195.231 0.999969L1.24988 19.8388L24.4127 308.454L223.712 293.103C223.712 293.103 197.553 52.3817 195.231 0.999969Z" fill="black" stroke="black" stroke-width="1.5" stroke-miterlimit="10"/>
<path d="M200.753 9.39255L6.08679 18.8284L15.2546 308.227C15.2546 308.227 159.986 308.052 193.436 303.826C212.17 299.344 215.586 287.309 215.586 287.309C215.586 287.309 200.586 60.821 200.753 9.39255Z" fill="white" stroke="black" stroke-width="1.5" stroke-miterlimit="10"/>
<path d="M193.439 303.811C212.169 299.331 215.583 287.294 215.583 287.294C208.054 292.595 196.478 288.646 196.478 288.646C196.478 288.646 197.794 297.253 193.439 303.811Z" fill="white" stroke="black" stroke-width="1.5" stroke-miterlimit="10"/>
<path d="M128.062 85.7824L36.1193 90.1345C33.6457 90.2489 31.2277 89.3776 29.3959 87.7118C27.564 86.046 26.468 83.7217 26.3482 81.249L24.5889 44.0941C24.4745 41.6211 25.346 39.2037 27.0122 37.3724C28.6784 35.541 31.0033 34.4452 33.4766 34.3254L125.419 29.9733C127.893 29.8592 130.311 30.7306 132.142 32.3963C133.974 34.0621 135.07 36.3862 135.19 38.8588L136.95 76.0137C137.064 78.4867 136.193 80.9041 134.526 82.7355C132.86 84.5668 130.535 85.6627 128.062 85.7824Z" fill="#FFABE5" stroke="#1D1D1B" stroke-width="1.5" stroke-linecap="round" stroke-linejoin="round"/>
<path d="M76.4765 71.8164C79.6884 71.8164 82.2921 69.2133 82.2921 66.0022C82.2921 62.7911 79.6884 60.188 76.4765 60.188C73.2646 60.188 70.6609 62.7911 70.6609 66.0022C70.6609 69.2133 73.2646 71.8164 76.4765 71.8164Z" fill="white" stroke="#1D1D1B" stroke-width="1.5" stroke-linecap="round" stroke-linejoin="round"/>
<path d="M77.7448 67.8544C79.7262 67.8544 81.3324 66.2486 81.3324 64.2677C81.3324 62.2868 79.7262 60.681 77.7448 60.681C75.7634 60.681 74.1572 62.2868 74.1572 64.2677C74.1572 66.2486 75.7634 67.8544 77.7448 67.8544Z" fill="#1D1D1B"/>
<path d="M96.8671 70.8516C100.079 70.8516 102.683 68.2485 102.683 65.0375C102.683 61.8264 100.079 59.2233 96.8671 59.2233C93.6553 59.2233 91.0515 61.8264 91.0515 65.0375C91.0515 68.2485 93.6553 70.8516 96.8671 70.8516Z" fill="white" stroke="#1D1D1B" stroke-width="1.5" stroke-linecap="round" stroke-linejoin="round"/>
<path d="M98.1354 66.8896C100.117 66.8896 101.723 65.2838 101.723 63.3029C101.723 61.3221 100.117 59.7162 98.1354 59.7162C96.1541 59.7162 94.5479 61.3221 94.5479 63.3029C94.5479 65.2838 96.1541 66.8896 98.1354 66.8896Z" fill="#1D1D1B"/>
<path d="M27.4711 55.7373L20.8517 49.2086C20.3969 48.8338 20.0219 48.3717 19.7487 47.8496C19.4755 47.3276 19.3097 46.7561 19.261 46.1689L17.0584 19.4518C16.9689 18.3507 17.3199 17.259 18.0344 16.4163C18.7489 15.5736 19.7686 15.0486 20.8697 14.9565L33.2687 13.9345C34.3711 13.8451 35.4639 14.1968 36.307 14.9125C37.1501 15.6282 37.6746 16.6492 37.7651 17.7512L39.9677 44.4684C40.0153 45.0559 39.9449 45.6469 39.7606 46.2068C39.5762 46.7667 39.2818 47.2841 38.8945 47.7285L33.5497 55.1097L33.4342 55.2528C32.6822 56.0653 31.6528 56.5665 30.5492 56.6574C29.4457 56.7483 28.3481 56.4222 27.4733 55.7437L27.4711 55.7373ZM36.3632 45.7915L36.4777 45.6495C36.5918 45.5255 36.679 45.3793 36.7337 45.22C36.7885 45.0607 36.8096 44.8918 36.7958 44.7239L34.5932 18.0067C34.5713 17.7469 34.4476 17.5062 34.2489 17.3372C34.0503 17.1682 33.7929 17.0845 33.5328 17.1045L21.1348 18.1265C20.8748 18.1482 20.6339 18.2718 20.4648 18.4705C20.2957 18.6691 20.2121 18.9267 20.2324 19.1867L22.435 45.9039C22.4489 46.0714 22.4973 46.2342 22.5771 46.3821C22.6568 46.53 22.7662 46.6599 22.8984 46.7637L29.4966 53.2723C29.7299 53.431 30.0105 53.5049 30.2917 53.4818C30.5729 53.4586 30.8376 53.3398 31.0417 53.1451L36.3632 45.7915Z" fill="white" stroke="black" stroke-width="1.5" stroke-miterlimit="10"/>
</svg>
