<svg width="225" height="310" viewBox="0 0 225 310" fill="none" xmlns="http://www.w3.org/2000/svg">
<path d="M195.662 1L1.67871 19.8388L24.8415 308.454L224.143 293.103C224.143 293.103 197.983 52.3818 195.662 1Z" fill="black" stroke="black" stroke-width="1.5" stroke-miterlimit="10"/>
<path d="M201.184 9.39255L6.51782 18.8284L15.6856 308.227C15.6856 308.227 160.416 308.052 193.867 303.826C212.601 299.344 216.017 287.309 216.017 287.309C216.017 287.309 201.016 60.821 201.184 9.39255Z" fill="white" stroke="black" stroke-width="1.5" stroke-miterlimit="10"/>
<path d="M193.871 303.811C212.601 299.331 216.013 287.294 216.013 287.294C208.484 292.595 196.908 288.646 196.908 288.646C196.908 288.646 198.224 297.253 193.871 303.811Z" fill="white" stroke="black" stroke-width="1.5" stroke-miterlimit="10"/>
<path d="M118.218 76.0964L24.6847 79.6428C23.9838 79.6687 23.2852 79.5476 22.634 79.2871C21.9828 79.0266 21.3934 78.6326 20.9038 78.1305C20.4142 77.6284 20.0353 77.0292 19.7915 76.3717C19.5477 75.7142 19.4445 75.013 19.4884 74.3131C20.3271 61.4614 25.9015 49.3768 35.134 40.395C44.3664 31.4131 56.6016 26.1717 69.4746 25.6839C82.3476 25.196 94.9445 29.4963 104.831 37.7537C114.717 46.011 121.19 57.639 123 70.3904C123.097 71.0852 123.047 71.7925 122.853 72.4668C122.66 73.1411 122.327 73.7674 121.877 74.3053C121.426 74.8431 120.868 75.2806 120.238 75.5895C119.608 75.8983 118.92 76.0717 118.219 76.0985L118.218 76.0964Z" fill="#76C8FF" stroke="#1D1D1B" stroke-width="1.5" stroke-linecap="round" stroke-linejoin="round"/>
<path d="M71.0993 56.1772C71.15 57.5117 70.6683 58.8117 69.7602 59.7911C68.8521 60.7705 67.5921 61.3492 66.2573 61.3998C64.9224 61.4504 63.6221 60.9688 62.6425 60.061C61.6628 59.1532 61.084 57.8934 61.0334 56.5589C60.9273 53.7801 63.1745 53.4992 65.954 53.3931C68.7334 53.2871 70.9944 53.3984 71.0993 56.1772Z" fill="white" stroke="#1D1D1B" stroke-width="1.5" stroke-linecap="round" stroke-linejoin="round"/>
<path d="M65.9627 59.3685C67.6787 59.3685 69.0698 57.9777 69.0698 56.2621C69.0698 54.5464 67.6787 53.1557 65.9627 53.1557C64.2466 53.1557 62.8555 54.5464 62.8555 56.2621C62.8555 57.9777 64.2466 59.3685 65.9627 59.3685Z" fill="#1D1D1B"/>
<path d="M88.3419 55.5232C88.3711 56.1864 88.2688 56.8489 88.041 57.4725C87.8131 58.0962 87.4642 58.6686 87.0142 59.1569C86.5642 59.6452 86.0222 60.0397 85.4191 60.3177C84.8161 60.5958 84.164 60.7519 83.5004 60.777C82.8368 60.8022 82.1748 60.6959 81.5524 60.4643C80.93 60.2327 80.3596 59.8804 79.874 59.4276C79.3883 58.9748 78.997 58.4304 78.7226 57.8259C78.4481 57.2213 78.296 56.5684 78.2748 55.9049C78.1688 53.1261 80.4159 52.8451 83.1954 52.7401C85.9749 52.6352 88.2358 52.7444 88.3419 55.5232Z" fill="white" stroke="#1D1D1B" stroke-width="1.5" stroke-linecap="round" stroke-linejoin="round"/>
<path d="M83.2048 58.7143C84.9209 58.7143 86.312 57.3235 86.312 55.6079C86.312 53.8923 84.9209 52.5015 83.2048 52.5015C81.4888 52.5015 80.0977 53.8923 80.0977 55.6079C80.0977 57.3235 81.4888 58.7143 83.2048 58.7143Z" fill="#1D1D1B"/>
<path d="M27.2976 55.5306L20.6781 49.0018C20.2236 48.6268 19.8487 48.1647 19.5755 47.6427C19.3023 47.1207 19.1364 46.5493 19.0874 45.9622L16.8848 19.2451C16.7953 18.1438 17.1465 17.052 17.8612 16.2093C18.5759 15.3665 19.5958 14.8417 20.6972 14.7498L33.0962 13.7278C34.1977 13.6386 35.2896 13.9897 36.1325 14.7042C36.9754 15.4187 37.5005 16.4382 37.5926 17.5392L39.7952 44.2564C39.8425 44.8438 39.7718 45.4347 39.5873 45.9944C39.4028 46.5541 39.1083 47.0712 38.7209 47.5154L33.3772 54.8976L33.2606 55.0397C32.5089 55.8524 31.4797 56.3537 30.3762 56.4446C29.2728 56.5355 28.1753 56.2093 27.3007 55.5306H27.2976ZM36.1885 45.5848L36.3041 45.4427C36.4179 45.3185 36.5048 45.1723 36.5595 45.0131C36.6142 44.8538 36.6356 44.685 36.6223 44.5172L34.4197 17.8C34.3978 17.5402 34.274 17.2995 34.0753 17.1305C33.8767 16.9615 33.6193 16.8778 33.3592 16.8978L20.9602 17.9198C20.7003 17.9417 20.4595 18.0655 20.2905 18.2641C20.1214 18.4626 20.0378 18.72 20.0577 18.98L22.2603 45.6972C22.2745 45.8647 22.3231 46.0275 22.403 46.1755C22.4829 46.3234 22.5924 46.4533 22.7248 46.557L29.322 53.0656C29.5551 53.2247 29.8358 53.2988 30.1171 53.2756C30.3984 53.2525 30.6631 53.1334 30.8671 52.9384L36.1885 45.5848Z" fill="white" stroke="black" stroke-width="1.5" stroke-miterlimit="10"/>
</svg>
