<svg width="225" height="310" viewBox="0 0 225 310" fill="none" xmlns="http://www.w3.org/2000/svg">
<path d="M194.803 1L0.821533 19.843L23.9843 308.458L223.284 293.108C223.284 293.108 197.125 52.3807 194.803 1Z" fill="black" stroke="black" stroke-width="1.5" stroke-miterlimit="10"/>
<path d="M200.325 9.3873L5.65845 18.8231L14.8262 308.219C14.8262 308.219 159.558 308.044 193.007 303.818C211.742 299.336 215.157 287.301 215.157 287.301C215.157 287.301 200.157 60.821 200.325 9.3873Z" fill="white" stroke="black" stroke-width="1.5" stroke-miterlimit="10"/>
<path d="M193.012 303.813C211.742 299.334 215.155 287.298 215.155 287.298C207.626 292.599 196.049 288.649 196.049 288.649C196.049 288.649 197.365 297.253 193.012 303.813Z" fill="white" stroke="black" stroke-width="1.5" stroke-miterlimit="10"/>
<path d="M86.4725 96.7311L29.0036 98.0765C27.7914 98.1036 26.6181 97.6488 25.741 96.812C24.8638 95.9753 24.3545 94.8248 24.3248 93.6131L22.979 36.1585C22.9525 34.9467 23.4077 33.7738 24.2448 32.8969C25.0819 32.0201 26.2326 31.5109 27.4446 31.4809L84.9125 30.1355C86.1248 30.1087 87.2982 30.5637 88.1755 31.4006C89.0528 32.2375 89.5623 33.388 89.5923 34.6L90.937 92.0535C90.964 93.2653 90.5092 94.4384 89.6722 95.3153C88.8352 96.1922 87.6845 96.7014 86.4725 96.7311Z" fill="#FF2E3F" stroke="black" stroke-width="1.5" stroke-miterlimit="10"/>
<path d="M49.7677 72.9052C49.703 70.1115 51.632 67.7992 54.0774 67.742C56.5228 67.6847 58.5589 69.9037 58.6247 72.6984C58.6904 75.4931 56.5949 78.0875 54.3001 77.2404C51.0211 76.0338 49.8324 75.6999 49.7677 72.9052Z" fill="white" stroke="#1D1D1B" stroke-width="1.5" stroke-linecap="round" stroke-linejoin="round"/>
<path d="M55.1325 74.504C56.9826 74.504 58.4825 73.0045 58.4825 71.1548C58.4825 69.3051 56.9826 67.8056 55.1325 67.8056C53.2823 67.8056 51.7825 69.3051 51.7825 71.1548C51.7825 73.0045 53.2823 74.504 55.1325 74.504Z" fill="#1D1D1B"/>
<path d="M73.4821 72.3507C73.4163 69.556 71.3802 67.337 68.9347 67.3942C66.4893 67.4515 64.5592 69.7627 64.6249 72.5574C64.6907 75.3521 66.9039 77.8457 69.1574 76.8926C72.3749 75.5313 73.5468 75.1443 73.4821 72.3507Z" fill="white" stroke="#1D1D1B" stroke-width="1.5" stroke-linecap="round" stroke-linejoin="round"/>
<path d="M69.6547 74.1647C71.5049 74.1647 73.0047 72.6652 73.0047 70.8155C73.0047 68.9658 71.5049 67.4663 69.6547 67.4663C67.8045 67.4663 66.3047 68.9658 66.3047 70.8155C66.3047 72.6652 67.8045 74.1647 69.6547 74.1647Z" fill="#1D1D1B"/>
<path d="M26.4373 55.5306L19.8189 48.9987C19.3643 48.6237 18.9894 48.1616 18.7162 47.6396C18.443 47.1176 18.2771 46.5462 18.2282 45.9591L16.0256 19.2419C15.9361 18.1408 16.2871 17.0492 17.0016 16.2064C17.7161 15.3637 18.7358 14.8387 19.837 14.7466L32.2359 13.7246C33.3373 13.6351 34.4292 13.986 35.2722 14.7004C36.1151 15.4147 36.6402 16.4341 36.7323 17.535L38.935 44.2521C38.9825 44.8396 38.9121 45.4307 38.7278 45.9906C38.5435 46.5505 38.249 47.0678 37.8617 47.5123L32.517 54.8934L32.4014 55.0365C31.649 55.8484 30.6197 56.3492 29.5163 56.44C28.413 56.5309 27.3156 56.2053 26.4405 55.5274L26.4373 55.5306ZM35.3283 45.5837L35.4439 45.4427C35.5579 45.3187 35.645 45.1725 35.6998 45.0132C35.7545 44.8539 35.7757 44.685 35.762 44.5172L33.5595 17.8C33.5376 17.5402 33.4138 17.2995 33.2151 17.1305C33.0165 16.9615 32.7591 16.8778 32.499 16.8978L20.101 17.9198C19.8409 17.9415 19.5999 18.0651 19.4306 18.2637C19.2613 18.4623 19.1775 18.7198 19.1975 18.98L21.4011 45.6972C21.4149 45.8648 21.4632 46.0279 21.5429 46.176C21.6227 46.3242 21.7322 46.4542 21.8646 46.5581L28.4618 53.0656C28.6949 53.2247 28.9756 53.2988 29.2569 53.2757C29.5381 53.2525 29.8029 53.1334 30.0068 52.9384L35.3283 45.5837Z" fill="white" stroke="black" stroke-width="1.5" stroke-miterlimit="10"/>
</svg>
