<svg width="198" height="36" viewBox="0 0 198 36" fill="none" xmlns="http://www.w3.org/2000/svg">
<rect width="198" height="36" fill="#ADB3D7"/>
<mask id="mask0_431_18" style="mask-type:alpha" maskUnits="userSpaceOnUse" x="168" y="5" width="25" height="25">
<circle cx="180.132" cy="17.1322" r="11.6322" fill="#C4C4C4" stroke="black"/>
</mask>
<g mask="url(#mask0_431_18)">
<path d="M171.437 26.7086C171.437 26.7086 170.439 17.007 176.457 13.3506L184.973 13.5598C184.973 13.5598 188.612 14.9299 189.1 26.4806L180.655 30.4361L171.437 26.7086Z" fill="#5154A1"/>
<path d="M184.793 13.3398C184.793 13.3398 182.818 16.1512 180.216 16.0173L180.726 18.1844C180.726 18.1844 184.853 15.35 184.793 13.3398Z" fill="#373684"/>
<path d="M184.793 13.3398C184.793 13.3398 182.67 15.9817 180.067 15.85L180.576 18.017C180.576 18.017 184.322 15.7621 184.793 13.3398Z" fill="#FAF3ED"/>
<path d="M179.413 15.9004L179.013 18.1135C179.013 18.1135 176.737 15.2102 176.597 13.3506C176.595 13.3506 178.549 15.7519 179.413 15.9004Z" fill="#373684"/>
<path d="M179.306 15.8712L178.833 18.0131C178.833 18.0131 176.741 15.206 176.597 13.3506C177.213 14.454 178.161 15.3358 179.306 15.8712Z" fill="#FAF3ED"/>
<path d="M180.013 17.0573C180.013 17.0573 180.431 22.5252 180.701 23.774C180.971 25.0227 179.724 26.3134 179.655 26.7443H178.055C178.055 26.7443 177.288 25.1943 177.459 24.025C177.631 22.8557 179.524 16.9883 179.524 16.9883L180.013 17.0573Z" fill="#C7361A"/>
<path d="M179.927 17.0233C179.927 17.0233 180.346 22.4911 180.615 23.7378C180.885 24.9845 179.639 26.2793 179.569 26.7081H177.969C177.969 26.7081 177.202 25.1581 177.373 23.9888C177.545 22.8195 179.438 16.9521 179.438 16.9521L179.927 17.0233Z" fill="#E8461C"/>
<path d="M179.429 16.8203L179.66 16.5463C179.673 16.5304 179.689 16.5176 179.708 16.5087C179.727 16.5036 179.747 16.5036 179.766 16.5087C179.787 16.5085 179.807 16.5151 179.823 16.5275C179.841 16.5382 179.856 16.5533 179.867 16.5714L180.103 16.9438C180.124 16.9766 180.132 17.0161 180.126 17.0546C180.121 17.0933 180.103 17.1289 180.074 17.155L179.743 17.4165C179.727 17.4304 179.708 17.4398 179.687 17.4437C179.668 17.4488 179.647 17.4488 179.628 17.4437C179.609 17.4374 179.591 17.4267 179.576 17.4123C179.561 17.3968 179.548 17.3783 179.54 17.3579L179.404 16.994C179.397 16.9665 179.397 16.9377 179.404 16.9103C179.406 16.8788 179.414 16.8481 179.429 16.8203Z" fill="#C7361A"/>
<path d="M179.385 16.8038L179.607 16.5402C179.62 16.5255 179.636 16.5134 179.653 16.5047C179.671 16.4972 179.69 16.4936 179.71 16.4942C179.729 16.4963 179.748 16.5028 179.764 16.513C179.781 16.5237 179.795 16.538 179.806 16.5549L180.034 16.9146C180.043 16.9308 180.05 16.9485 180.053 16.9669C180.057 16.9855 180.057 17.0048 180.053 17.0234C180.05 17.0424 180.045 17.0608 180.036 17.0778C180.026 17.0929 180.014 17.1064 180 17.1176L179.685 17.3707C179.67 17.3835 179.652 17.3922 179.632 17.3958C179.613 17.3999 179.593 17.3999 179.574 17.3958C179.555 17.3894 179.538 17.3786 179.524 17.3644C179.509 17.3491 179.498 17.3314 179.49 17.3121L179.36 16.9628C179.353 16.936 179.353 16.9079 179.36 16.8812C179.362 16.8536 179.37 16.8268 179.385 16.8038Z" fill="#E8461C"/>
<path d="M174.784 25.0602C174.784 25.0602 175.095 26.6186 175.089 26.5851C175.083 26.5517 175.428 26.3927 175.428 26.3927C175.393 25.9557 175.331 25.5213 175.244 25.0916C175.137 25.0358 175.023 24.995 174.905 24.9703C174.905 24.9703 175.093 20.6445 176.208 20.3203C174.932 20.6027 174.784 25.0602 174.784 25.0602Z" fill="#373684"/>
<path d="M170.985 26.7082C170.866 26.1696 170.818 25.6174 170.843 25.0662C170.843 25.0662 173.742 24.765 175.179 25.1415C175.179 25.1415 175.388 26.2543 175.311 26.7082H170.985Z" fill="#FAF3ED"/>
<g clip-path="url(#clip0_431_18)">
<path d="M175.321 26.5455C175.321 26.5455 175.251 28.9333 174.388 28.1757C174.388 28.1757 173.951 29.3685 173.424 28.4463C173.424 28.4463 172.918 29.7992 172.471 28.3922C172.471 28.3922 171.885 30.1532 171.29 28.2298C171.29 28.2298 169.403 31.4429 169.255 26.5455L175.321 26.5455Z" fill="#CC8A7A"/>
<path d="M174.619 26.5456C174.619 27.1492 174.536 27.731 174.386 28.1758C174.386 28.1758 174.688 27.7023 174.619 26.5456Z" fill="#BC6A4F"/>
<path d="M173.576 26.5455C173.623 27.8736 173.424 28.4463 173.424 28.4463C173.424 28.4463 173.726 27.9615 173.576 26.5455Z" fill="#BC6A4F"/>
<path d="M172.704 26.5449C172.69 27.2072 172.61 27.8462 172.471 28.3916C172.561 28.1559 172.628 27.8657 172.669 27.5447C172.71 27.2237 172.722 26.8811 172.704 26.5449Z" fill="#BC6A4F"/>
<path d="M171.065 27.1652C171.109 27.562 171.186 27.9259 171.29 28.2295C171.22 28.1248 171.162 27.9703 171.123 27.7827C171.083 27.5952 171.063 27.3817 171.065 27.1652Z" fill="#BC6A4F"/>
</g>
<g clip-path="url(#clip1_431_18)">
<path d="M191.219 26.5455C191.219 26.5455 191.149 28.9333 190.286 28.1757C190.286 28.1757 189.849 29.3685 189.322 28.4463C189.322 28.4463 188.816 29.7992 188.369 28.3922C188.369 28.3922 187.783 30.1532 187.188 28.2298C187.188 28.2298 185.301 31.4429 185.153 26.5455L191.219 26.5455Z" fill="#CC8A7A"/>
<path d="M190.516 26.5456C190.517 27.1492 190.434 27.731 190.284 28.1758C190.284 28.1758 190.586 27.7023 190.516 26.5456Z" fill="#BC6A4F"/>
<path d="M189.474 26.5455C189.521 27.8736 189.322 28.4463 189.322 28.4463C189.322 28.4463 189.624 27.9615 189.474 26.5455Z" fill="#BC6A4F"/>
<path d="M188.602 26.5449C188.588 27.2072 188.508 27.8462 188.369 28.3916C188.459 28.1559 188.526 27.8657 188.567 27.5447C188.607 27.2237 188.62 26.8811 188.602 26.5449Z" fill="#BC6A4F"/>
<path d="M186.963 27.1652C187.007 27.562 187.084 27.9259 187.188 28.2295C187.118 28.1248 187.06 27.9703 187.021 27.7827C186.981 27.5952 186.961 27.3817 186.963 27.1652Z" fill="#BC6A4F"/>
</g>
<path d="M174.784 25.0602C173.738 24.8886 172.234 24.9577 171.418 25.0162V24.8447C171.418 24.8447 174.06 24.7694 174.784 25.0602Z" fill="#373684"/>
<path d="M185.527 24.9998L185.222 26.5247C185.222 26.4913 184.883 26.3323 184.883 26.3323C184.918 25.8946 184.98 25.4595 185.067 25.0291C185.174 24.9733 185.288 24.9325 185.406 24.9078C185.406 24.9078 185.109 20.5841 183.994 20.2578C185.278 20.5423 185.527 24.9998 185.527 24.9998Z" fill="#373684"/>
<path d="M189.332 26.6479C189.453 26.1087 189.501 25.5558 189.476 25.0038C189.476 25.0038 186.577 24.7047 185.14 25.0791C185.14 25.0791 184.931 26.194 185.008 26.6479H189.332Z" fill="#FAF3ED"/>
<path d="M185.527 24.9992C186.573 24.8256 188.075 24.8967 188.89 24.9553V24.7817C188.89 24.7817 186.259 24.7084 185.527 24.9992Z" fill="#373684"/>
<path d="M175.461 11.5518C175.46 11.2965 175.518 11.0444 175.631 10.8155C175.729 10.6076 175.886 10.4331 176.083 10.3135C176.26 10.2077 176.47 10.1712 176.673 10.211C176.884 10.257 177.073 10.3727 177.21 10.5394C177.369 10.726 177.477 10.9499 177.526 11.1899C177.583 11.4434 177.583 11.7062 177.526 11.9597C177.469 12.1933 177.355 12.409 177.193 12.5872C177.049 12.7456 176.856 12.8516 176.645 12.8884C176.604 12.8916 176.563 12.8916 176.522 12.8884C176.451 12.8889 176.381 12.8805 176.313 12.8633C176.057 12.7895 175.84 12.6212 175.704 12.3927C175.547 12.1402 175.463 11.8491 175.461 11.5518Z" fill="#CC8A7A"/>
<path d="M179.94 16.0262L179.412 15.9007C178.264 15.5074 176.093 13.7817 176.093 11.5519C176.096 10.4778 176.524 9.44857 177.284 8.68904C178.043 7.92951 179.072 7.50136 180.147 7.49805H181.224C182.298 7.50136 183.327 7.92951 184.087 8.68904C184.846 9.44857 185.274 10.4778 185.278 11.5519C185.602 13.4847 183.431 15.3171 181.406 15.886C181.03 15.9943 180.642 16.054 180.251 16.0638C180.146 16.065 180.041 16.0523 179.94 16.0262Z" fill="#CC8A7A"/>
<path d="M177.566 11.7886C177.434 11.7886 177.307 11.7362 177.214 11.6428C177.12 11.5495 177.068 11.4228 177.068 11.2908C177.068 11.1588 177.12 11.0321 177.214 10.9388C177.307 10.8454 177.434 10.793 177.566 10.793C177.697 10.7935 177.823 10.8462 177.916 10.9395C178.009 11.0328 178.061 11.1591 178.061 11.2908C178.061 11.4225 178.009 11.5488 177.916 11.6421C177.823 11.7354 177.697 11.7881 177.566 11.7886Z" fill="#1B1935"/>
<path d="M182.615 11.7886C182.483 11.7881 182.357 11.7354 182.264 11.6421C182.171 11.5488 182.119 11.4225 182.119 11.2908C182.119 11.1591 182.171 11.0328 182.264 10.9395C182.357 10.8462 182.483 10.7935 182.615 10.793C182.747 10.793 182.874 10.8454 182.967 10.9388C183.06 11.0321 183.113 11.1588 183.113 11.2908C183.113 11.4228 183.06 11.5495 182.967 11.6428C182.874 11.7362 182.747 11.7886 182.615 11.7886Z" fill="#1B1935"/>
<path d="M177.808 10.5767C177.797 10.5747 177.786 10.5747 177.775 10.5767L176.855 10.9469C176.832 10.9562 176.813 10.9742 176.804 10.9969C176.794 11.0196 176.793 11.0452 176.802 11.0683C176.812 11.0913 176.83 11.1097 176.853 11.1194C176.876 11.1292 176.902 11.1296 176.926 11.1205L177.844 10.7524C177.867 10.7427 177.885 10.7243 177.895 10.7013C177.905 10.6783 177.905 10.6523 177.896 10.629C177.888 10.6129 177.875 10.5995 177.86 10.5902C177.844 10.581 177.827 10.5763 177.808 10.5767Z" fill="black"/>
<path d="M182.237 10.5244C182.217 10.5244 182.199 10.5303 182.183 10.5411C182.168 10.5519 182.155 10.5673 182.149 10.5851C182.14 10.6084 182.141 10.6342 182.151 10.657C182.161 10.6797 182.18 10.6975 182.203 10.7064L183.13 11.0557C183.153 11.0646 183.179 11.0638 183.202 11.0536C183.224 11.0434 183.242 11.0246 183.251 11.0013C183.259 10.978 183.258 10.9524 183.248 10.9298C183.238 10.9072 183.22 10.8894 183.197 10.88L182.27 10.5307L182.237 10.5244Z" fill="black"/>
<path d="M180.791 13.2101C180.284 13.2896 179.768 13.2896 179.262 13.2101C178.111 13.0302 177.515 13.4653 178.178 13.7749C178.766 14.0115 179.393 14.137 180.027 14.1451C180.661 14.1371 181.287 14.0116 181.874 13.7749C182.54 13.4653 181.941 13.0302 180.791 13.2101Z" fill="#E28E74"/>
<path d="M178.457 13.3906C178.754 13.6207 179.346 13.7776 180.028 13.7776C180.71 13.7776 181.302 13.6207 181.599 13.3906C181.599 13.3906 180.013 13.9826 178.457 13.3906Z" fill="#BC6A4F"/>
<path d="M176.227 8.25497L176.245 8.2215C176.36 8.00267 176.455 7.7737 176.528 7.5375C176.684 7.13392 176.92 6.76557 177.22 6.45395C177.873 5.66118 179.103 5.82643 179.387 6.0356C179.45 6.07953 179.506 6.11928 179.555 6.15693C179.595 6.18599 179.644 6.20072 179.694 6.19883C179.744 6.19694 179.792 6.17853 179.831 6.14647C180.067 5.9624 180.103 5.88291 180.626 5.84944C181.148 5.81598 181.402 6.0126 181.483 6.2176C181.492 6.24315 181.507 6.26626 181.526 6.28511C181.546 6.30395 181.569 6.318 181.595 6.32613C181.621 6.33426 181.648 6.33624 181.675 6.33193C181.702 6.32761 181.727 6.31711 181.749 6.30126C181.995 6.13535 182.276 6.02992 182.571 5.99357C182.865 5.95722 183.164 5.99098 183.443 6.09208C185.313 6.81374 186.022 9.95558 185.681 10.581C185.615 10.7147 185.521 10.8325 185.405 10.9267C185.289 11.0209 185.154 11.0891 185.01 11.127C184.652 11.2085 184.744 8.96617 182.732 8.96617C182.679 8.96451 182.626 8.97749 182.58 9.00369C182.534 9.02989 182.496 9.06829 182.47 9.11468C182.359 9.31204 182.209 9.4848 182.03 9.62251C181.85 9.76022 181.644 9.86001 181.425 9.91583C180.538 10.1564 179.797 8.66078 179.797 8.66078C179.797 8.66078 179.757 9.55187 178.542 9.98068C177.988 10.1725 177.387 10.185 176.825 10.0162C176.172 9.83007 175.863 8.94526 176.227 8.25497Z" fill="black"/>
<path d="M184.226 11.5518C184.224 11.2965 184.282 11.0444 184.395 10.8155C184.493 10.6076 184.65 10.4331 184.847 10.3135C185.024 10.2077 185.234 10.1712 185.437 10.211C185.648 10.2566 185.837 10.3723 185.974 10.5394C186.133 10.726 186.242 10.9499 186.29 11.1899C186.348 11.4433 186.348 11.7063 186.29 11.9597C186.234 12.1936 186.12 12.4095 185.958 12.5872C185.813 12.7456 185.621 12.8516 185.41 12.8884C185.369 12.8916 185.329 12.8916 185.288 12.8884C185.218 12.8889 185.147 12.8805 185.079 12.8633C184.824 12.7895 184.606 12.6212 184.47 12.3927C184.313 12.14 184.229 11.8492 184.226 11.5518Z" fill="#CC8A7A"/>
<path d="M185.975 12.0581C186.045 11.8957 186.079 11.7203 186.077 11.5435C186.078 11.3669 186.041 11.1921 185.968 11.031C185.905 10.883 185.804 10.754 185.675 10.6566C185.561 10.5686 185.42 10.5202 185.276 10.5186C185.276 10.5186 186.211 10.826 185.975 12.0581Z" fill="#BC6A4F"/>
<path d="M182.648 13.9273C182.683 13.8475 182.7 13.7612 182.699 13.6742C182.699 13.5862 182.68 13.4992 182.644 13.419C182.613 13.3461 182.563 13.2826 182.5 13.2349C182.443 13.1919 182.374 13.1684 182.303 13.168C182.303 13.168 182.763 13.3186 182.648 13.9273Z" fill="#BC6A4F"/>
<path d="M177.921 13.167C177.842 13.1992 177.771 13.2484 177.712 13.3113C177.651 13.3707 177.603 13.4418 177.57 13.5205C177.541 13.5949 177.531 13.6756 177.543 13.7548C177.552 13.8249 177.583 13.8903 177.633 13.9409C177.633 13.9409 177.411 13.5059 177.921 13.167Z" fill="#BC6A4F"/>
<path d="M178.502 12.6252H181.082C181.338 12.6215 181.594 12.6597 181.839 12.7382C182.048 12.8114 182.153 12.9097 182.153 13.0122H177.434C177.434 12.9097 177.547 12.8031 177.747 12.7382C177.991 12.6598 178.246 12.6217 178.502 12.6252Z" fill="#6E333C"/>
</g>
<defs>
<clipPath id="clip0_431_18">
<rect width="6.06612" height="2.71929" fill="white" transform="translate(175.321 29.2646) rotate(-180)"/>
</clipPath>
<clipPath id="clip1_431_18">
<rect width="6.06612" height="2.71929" fill="white" transform="translate(191.219 29.2646) rotate(-180)"/>
</clipPath>
</defs>
</svg>
