<svg width="72" height="36" viewBox="0 0 72 36" fill="none" xmlns="http://www.w3.org/2000/svg">
<rect width="72" height="36" fill="#EC8989"/>
<mask id="mask0_431_19" style="mask-type:alpha" maskUnits="userSpaceOnUse" x="40" y="1" width="28" height="28">
<path d="M68 15C68 22.732 61.732 29 54 29C46.268 29 40 22.732 40 15C40 7.26801 46.268 1 54 1C61.732 1 68 7.26801 68 15Z" fill="#EC8989"/>
</mask>
<g mask="url(#mask0_431_19)">
<path d="M42.0746 26.9366C42.0746 26.9366 40.8721 16.3297 48.123 12.333L58.3668 12.5502C58.3668 12.5502 62.7455 14.0479 63.3333 26.6737L53.1722 30.9997L42.0746 26.9366Z" fill="#5154A1"/>
<path d="M58.1901 12.2109C58.1901 12.2109 55.8422 15.1795 52.75 15.0381L53.3552 17.3264C53.3552 17.3264 58.2608 14.3358 58.1901 12.2109Z" fill="#373684"/>
<path d="M58.1903 12.2109C58.1903 12.2109 55.6635 15.0028 52.5713 14.8614L53.1676 17.1475C53.1676 17.1475 57.6293 14.7687 58.1903 12.2109Z" fill="#FAF3ED"/>
<path d="M51.7935 14.6957L51.3186 17.0303C51.3186 17.0303 48.6129 13.9646 48.4473 12.001C48.4451 12.001 50.7709 14.5388 51.7935 14.6957Z" fill="#373684"/>
<path d="M51.6656 14.6647L51.1046 16.9243C51.1046 16.9243 48.6131 13.9623 48.4541 12.001C49.2214 13.2014 50.344 14.1325 51.6656 14.6647Z" fill="#FAF3ED"/>
<path d="M52.5048 15.9176C52.5048 15.9176 53.004 21.6891 53.3221 23.0077C53.6401 24.3263 52.1625 25.6891 52.0741 26.1441H50.1702C50.1702 26.1441 49.258 24.5074 49.4612 23.2727C49.6644 22.0381 51.9217 15.8447 51.9217 15.8447L52.5048 15.9176Z" fill="#C7361A"/>
<path d="M52.4052 15.8817C52.4052 15.8817 52.9044 21.6532 53.2225 22.9718C53.5405 24.2904 52.0607 25.6532 51.9723 26.1082H50.075C50.075 26.1082 49.1606 24.4715 49.366 23.2369C49.5714 22.0022 51.8199 15.8066 51.8199 15.8066L52.4052 15.8817Z" fill="#E8461C"/>
<path d="M51.8158 15.6677L52.0875 15.3784C52.1033 15.3608 52.1229 15.3472 52.1449 15.3386C52.1666 15.3296 52.19 15.3258 52.2134 15.3276C52.2374 15.3295 52.2606 15.3363 52.2819 15.3475C52.3023 15.3587 52.3197 15.3746 52.3327 15.3939L52.6132 15.787C52.626 15.8038 52.6351 15.8231 52.6401 15.8436C52.645 15.8642 52.6456 15.8855 52.6419 15.9063C52.6389 15.9271 52.6317 15.947 52.6207 15.9649C52.6097 15.9827 52.5951 15.9981 52.5778 16.0101L52.1847 16.2884C52.1657 16.302 52.1437 16.3111 52.1206 16.3149C52.0974 16.3204 52.0732 16.3204 52.0499 16.3149C52.0272 16.3083 52.0062 16.297 51.9881 16.2818C51.9699 16.2661 51.9555 16.2465 51.9461 16.2243L51.7849 15.8422C51.7761 15.8127 51.7761 15.7812 51.7849 15.7517C51.7867 15.7213 51.7975 15.6921 51.8158 15.6677Z" fill="#C7361A"/>
<path d="M51.7651 15.6493L52.0279 15.3688C52.0435 15.3526 52.0623 15.3399 52.0831 15.3313C52.1049 15.3258 52.1277 15.3258 52.1494 15.3313C52.1719 15.3316 52.194 15.3377 52.2135 15.349C52.2339 15.3601 52.2513 15.376 52.2643 15.3953L52.5337 15.7752C52.5453 15.7911 52.5536 15.8091 52.558 15.8283C52.5624 15.8479 52.5624 15.8683 52.558 15.8879C52.555 15.9084 52.5474 15.928 52.5359 15.9453C52.5258 15.9625 52.5122 15.9776 52.4962 15.9895L52.1207 16.2568C52.1013 16.2697 52.0795 16.2787 52.0566 16.2833C52.034 16.2877 52.0108 16.2877 51.9882 16.2833C51.9661 16.2767 51.9458 16.2654 51.9285 16.2501C51.911 16.2352 51.8973 16.2163 51.8888 16.1949L51.7342 15.826C51.7253 15.798 51.7253 15.7679 51.7342 15.7399C51.7351 15.7073 51.7458 15.6757 51.7651 15.6493Z" fill="#E8461C"/>
<path d="M49.2644 12.1883C49.0174 12.1883 48.7728 12.1396 48.5446 12.045C48.3164 11.9504 48.1091 11.8117 47.9345 11.6369C47.76 11.4622 47.6216 11.2547 47.5272 11.0264C47.4329 10.7981 47.3845 10.5534 47.3848 10.3064C47.3848 9.80789 47.5828 9.3298 47.9353 8.9773C48.2878 8.6248 48.7659 8.42676 49.2644 8.42676C49.7631 8.42676 50.2415 8.62473 50.5943 8.97716C50.9472 9.3296 51.1457 9.80769 51.1463 10.3064C51.1463 10.8055 50.948 11.2842 50.5951 11.6371C50.2422 11.99 49.7635 12.1883 49.2644 12.1883Z" fill="#F39672"/>
<path d="M56.8028 10.3222C56.8011 9.96788 56.8813 9.61792 57.0369 9.29958C57.1739 9.01217 57.3919 8.77109 57.6642 8.60604C57.9097 8.45941 58.2006 8.40832 58.4814 8.46247C58.7746 8.52533 59.0377 8.68573 59.228 8.91748C59.4489 9.17663 59.6008 9.48734 59.6697 9.82085C59.7442 10.1724 59.7389 10.5362 59.6543 10.8855C59.5786 11.2142 59.4205 11.5182 59.1949 11.769C58.9956 11.9894 58.7279 12.1364 58.435 12.1864C58.3788 12.1952 58.3219 12.1996 58.265 12.1997C58.1696 12.2001 58.0746 12.1883 57.9823 12.1643C57.6287 12.0617 57.3272 11.8288 57.1385 11.5128C56.9168 11.1554 56.8005 10.7428 56.8028 10.3222Z" fill="#F39672"/>
<path d="M53.3645 14.89C50.4335 14.89 48.0635 12.816 48.0635 10.2516C48.0635 7.68729 50.4401 5.61328 53.3645 5.61328C56.2888 5.61328 58.6655 7.68729 58.6655 10.2516C58.6655 12.816 56.2955 14.89 53.3645 14.89Z" fill="#F39672"/>
<path d="M54.7133 9.19821C54.7257 9.20031 54.7384 9.20031 54.7509 9.19821L55.7205 8.80727C55.7447 8.79745 55.764 8.77851 55.7743 8.75454C55.7847 8.73057 55.7852 8.70349 55.7757 8.67916C55.7659 8.65498 55.7469 8.63564 55.723 8.62531C55.699 8.61497 55.6719 8.61448 55.6476 8.62395L54.6757 9.0149C54.6636 9.01948 54.6525 9.02651 54.6432 9.03555C54.6338 9.04459 54.6264 9.05545 54.6215 9.06746C54.6165 9.07947 54.6141 9.09236 54.6143 9.10536C54.6145 9.11835 54.6174 9.13116 54.6227 9.143C54.6309 9.15998 54.6438 9.17426 54.6598 9.18406C54.6759 9.19386 54.6945 9.19877 54.7133 9.19821Z" fill="black"/>
<path d="M50.9234 9.12511C50.9435 9.12508 50.9632 9.11894 50.9798 9.1075C50.9963 9.09607 51.009 9.07986 51.0162 9.06105C51.0208 9.04902 51.0229 9.0362 51.0225 9.02333C51.0221 9.01046 51.0191 8.99781 51.0138 8.98609C51.0084 8.97438 51.0008 8.96385 50.9914 8.9551C50.9819 8.94636 50.9708 8.93957 50.9588 8.93515L49.9803 8.56408C49.9557 8.55474 49.9284 8.55555 49.9043 8.56632C49.8803 8.57708 49.8616 8.59693 49.8522 8.62151C49.8428 8.64612 49.8436 8.67342 49.8544 8.69744C49.8652 8.72145 49.885 8.74022 49.9096 8.74962L50.8881 9.12069C50.8995 9.12433 50.9115 9.12583 50.9234 9.12511Z" fill="black"/>
<path d="M50.1282 10.2005C50.0592 10.2005 49.9908 10.1869 49.9271 10.1605C49.8633 10.1341 49.8053 10.0954 49.7565 10.0466C49.7077 9.99774 49.669 9.93978 49.6426 9.876C49.6161 9.81223 49.6025 9.74387 49.6025 9.67484C49.6031 9.5358 49.6588 9.40266 49.7573 9.30455C49.8558 9.20645 49.9892 9.15137 50.1282 9.15137C50.2673 9.15137 50.4006 9.20645 50.4992 9.30455C50.5977 9.40266 50.6533 9.5358 50.6539 9.67484C50.6539 9.74387 50.6403 9.81223 50.6139 9.876C50.5875 9.93978 50.5488 9.99774 50.5 10.0466C50.4511 10.0954 50.3932 10.1341 50.3294 10.1605C50.2656 10.1869 50.1973 10.2005 50.1282 10.2005Z" fill="#1B1935"/>
<path d="M55.4622 10.2005C55.3228 10.2005 55.1891 10.1451 55.0905 10.0466C54.9919 9.94797 54.9365 9.81426 54.9365 9.67484C54.9371 9.5358 54.9927 9.40266 55.0913 9.30455C55.1898 9.20645 55.3232 9.15137 55.4622 9.15137C55.601 9.15137 55.7342 9.20652 55.8323 9.30469C55.9305 9.40286 55.9857 9.53601 55.9857 9.67484C55.986 9.74377 55.9727 9.81208 55.9465 9.87584C55.9203 9.93961 55.8818 9.99758 55.8331 10.0464C55.7845 10.0953 55.7267 10.134 55.663 10.1605C55.5994 10.1869 55.5311 10.2005 55.4622 10.2005Z" fill="#1B1935"/>
<path d="M59.2281 11.0333C59.3244 10.8071 59.3732 10.5635 59.3717 10.3177C59.3703 10.0727 59.3184 9.83057 59.2193 9.60647C59.1306 9.40148 58.9906 9.22274 58.8129 9.08741C58.6541 8.9663 58.4605 8.89969 58.2607 8.89746C58.2607 8.89746 59.555 9.32375 59.2281 11.0333Z" fill="#BC6A4F"/>
<path d="M58.2606 8.44945C58.0369 8.45151 57.8182 8.51574 57.6289 8.63498C57.7107 8.5543 57.8112 8.49514 57.9214 8.46277C58.0317 8.43039 58.1482 8.42582 58.2606 8.44945Z" fill="#BC6A4F"/>
<path d="M51.1089 13.8564C51.4203 14.0972 52.041 14.2606 52.7566 14.2606C53.4722 14.2606 54.0818 14.0972 54.4043 13.8564C54.4043 13.8564 52.75 14.4815 51.1089 13.8564Z" fill="#BC6A4F"/>
<path d="M55.8224 5.41895H55.6016V6.4173H55.8224V5.41895Z" fill="#1D1D1B"/>
<path d="M56.6374 5.80371H56.4165V6.80206H56.6374V5.80371Z" fill="#1D1D1B"/>
<path d="M57.4152 6.41699H57.1943V7.41535H57.4152V6.41699Z" fill="#1D1D1B"/>
<path d="M58.0558 7.17676H57.835V8.17511H58.0558V7.17676Z" fill="#1D1D1B"/>
<path d="M55.0734 5.12793H54.8525V6.12628H55.0734V5.12793Z" fill="#1D1D1B"/>
<path d="M54.1369 4.91992H53.916V5.91828H54.1369V4.91992Z" fill="#1D1D1B"/>
<path d="M53.4748 4.91992H53.2539V5.91828H53.4748V4.91992Z" fill="#1D1D1B"/>
<path d="M52.7389 4.91992H52.5181V5.91828H52.7389V4.91992Z" fill="#1D1D1B"/>
<path d="M51.966 5.12793H51.7451V6.12628H51.966V5.12793Z" fill="#1D1D1B"/>
<path d="M51.2609 5.41895H51.04V6.4173H51.2609V5.41895Z" fill="#1D1D1B"/>
<path d="M50.5368 5.80371H50.3159V6.80206H50.5368V5.80371Z" fill="#1D1D1B"/>
<path d="M49.883 6.23828H49.6621V7.23663H49.883V6.23828Z" fill="#1D1D1B"/>
<path d="M54.6958 11.1202C54.5058 10.9307 54.2484 10.8243 53.9801 10.8242H51.5372C51.4043 10.824 51.2727 10.8501 51.1499 10.9008C51.0271 10.9516 50.9155 11.0262 50.8216 11.1202C50.6315 11.3099 50.5243 11.5672 50.5234 11.8358V15.224C50.6576 15.2243 50.7905 15.1981 50.9146 15.147C51.0387 15.0958 51.1514 15.0207 51.2464 14.9259C51.3414 14.8312 51.4168 14.7186 51.4682 14.5946C51.5196 14.4707 51.5461 14.3378 51.5461 14.2036V11.8358H53.9757V14.2036C53.9757 14.4742 54.0832 14.7338 54.2746 14.9252C54.466 15.1165 54.7255 15.224 54.9961 15.224V11.8358C54.9955 11.7026 54.9687 11.5709 54.9172 11.4481C54.8656 11.3253 54.7904 11.2139 54.6958 11.1202Z" fill="#D8690E"/>
<path d="M52.2549 12.2461H52.785C52.8205 12.2463 52.8551 12.2571 52.8844 12.2771C52.9138 12.297 52.9365 12.3252 52.9498 12.3581C52.963 12.391 52.9662 12.4272 52.9589 12.4619C52.9516 12.4966 52.9341 12.5283 52.9087 12.5531L52.5089 12.9418L52.1268 12.5487C52.1026 12.5234 52.0864 12.4917 52.0801 12.4573C52.0738 12.4229 52.0777 12.3874 52.0913 12.3553C52.1049 12.3231 52.1277 12.2956 52.1568 12.2762C52.1858 12.2568 52.22 12.2463 52.2549 12.2461Z" fill="#D8690E"/>
<path d="M46.3008 24.3676C46.3008 24.3676 46.6719 26.0109 46.663 25.9778C46.7896 25.8949 46.9252 25.8267 47.0672 25.7746C47.0248 25.3114 46.951 24.8517 46.8463 24.3985C46.7183 24.3389 46.5832 24.2959 46.4444 24.2704C46.4444 24.2704 46.6652 19.7049 47.9905 19.3604C46.4687 19.6585 46.3008 24.3676 46.3008 24.3676Z" fill="#373684"/>
<path d="M46.3008 24.3688C45.0507 24.1854 43.2704 24.2605 42.3008 24.3224V24.1391C42.3008 24.1391 45.4372 24.0595 46.3008 24.3688Z" fill="#373684"/>
<path d="M59.0605 24.3019C59.0605 24.3019 58.6916 25.9474 58.6983 25.9121C58.5723 25.8296 58.4374 25.7614 58.2963 25.7089C58.3395 25.2458 58.4133 24.7861 58.5171 24.3328C58.6455 24.2746 58.7805 24.2323 58.9191 24.2069C58.9191 24.2069 58.5657 19.6392 57.2427 19.2969C58.7667 19.5995 59.0605 24.3019 59.0605 24.3019Z" fill="#373684"/>
<path d="M59.0605 24.3022C60.3129 24.1211 62.0932 24.194 63.0628 24.2558V24.0747C63.0628 24.0747 59.9308 23.9952 59.0605 24.3022Z" fill="#373684"/>
<g clip-path="url(#clip0_431_19)">
<path d="M46.8877 25.996C46.8877 25.996 46.8144 28.5173 45.9025 27.7174C45.9025 27.7174 45.4408 28.9769 44.8849 28.0031C44.8849 28.0031 44.3509 29.4316 43.8787 27.9459C43.8787 27.9459 43.26 29.8054 42.6317 27.7745C42.6317 27.7745 40.6394 31.1673 40.4823 25.996L46.8877 25.996Z" fill="#F39672"/>
<path d="M46.1458 25.9954C46.146 26.6328 46.0585 27.2471 45.9006 27.7168C45.9006 27.7168 46.2191 27.2168 46.1458 25.9954Z" fill="#BC6A4F"/>
<path d="M45.0454 25.9958C45.0951 27.3982 44.8848 28.0029 44.8848 28.0029C44.8848 28.0029 45.2034 27.491 45.0454 25.9958Z" fill="#BC6A4F"/>
<path d="M44.1247 25.9954C44.1099 26.6947 44.0247 27.3694 43.8786 27.9453C43.9731 27.6964 44.0447 27.39 44.0875 27.051C44.1303 26.7121 44.143 26.3503 44.1247 25.9954Z" fill="#BC6A4F"/>
<path d="M42.3935 26.6506C42.4403 27.0695 42.5215 27.4539 42.6309 27.7744C42.5575 27.6639 42.4967 27.5007 42.4548 27.3027C42.413 27.1046 42.3918 26.8792 42.3935 26.6506Z" fill="#BC6A4F"/>
</g>
<g clip-path="url(#clip1_431_19)">
<path d="M65 25.996C65 25.996 64.9267 28.5173 64.0148 27.7174C64.0148 27.7174 63.5531 28.9769 62.9972 28.0031C62.9972 28.0031 62.4632 29.4316 61.9911 27.9459C61.9911 27.9459 61.3723 29.8054 60.744 27.7745C60.744 27.7745 58.7517 31.1673 58.5946 25.996L65 25.996Z" fill="#F39672"/>
<path d="M64.2581 25.9954C64.2583 26.6328 64.1708 27.2471 64.0129 27.7168C64.0129 27.7168 64.3314 27.2168 64.2581 25.9954Z" fill="#BC6A4F"/>
<path d="M63.1577 25.9958C63.2074 27.3982 62.9971 28.0029 62.9971 28.0029C62.9971 28.0029 63.3157 27.491 63.1577 25.9958Z" fill="#BC6A4F"/>
<path d="M62.237 25.9954C62.2222 26.6947 62.1371 27.3694 61.9909 27.9453C62.0854 27.6964 62.157 27.39 62.1998 27.051C62.2426 26.7121 62.2553 26.3503 62.237 25.9954Z" fill="#BC6A4F"/>
<path d="M60.5058 26.6506C60.5526 27.0695 60.6338 27.4539 60.7432 27.7744C60.6698 27.6639 60.609 27.5007 60.5671 27.3027C60.5253 27.1046 60.5041 26.8792 60.5058 26.6506Z" fill="#BC6A4F"/>
</g>
<path d="M41.7771 26.1085C41.7771 26.1085 41.5164 25.0748 41.607 24.3724C41.607 24.3724 45.0526 24.0543 46.7622 24.4519C46.7622 24.4519 47.0096 25.627 46.919 26.1085H41.7771Z" fill="#FAF3ED"/>
<path d="M63.5862 26.0428C63.5862 26.0428 63.8468 25.0113 63.7563 24.3089C63.7563 24.3089 60.3106 23.9909 58.6011 24.3884C58.6011 24.3884 58.3537 25.5635 58.4442 26.0428H63.5862Z" fill="#FAF3ED"/>
</g>
<defs>
<clipPath id="clip0_431_19">
<rect width="6.40537" height="2.87137" fill="white" transform="translate(46.8877 28.8672) rotate(-180)"/>
</clipPath>
<clipPath id="clip1_431_19">
<rect width="6.40537" height="2.87137" fill="white" transform="translate(65 28.8672) rotate(-180)"/>
</clipPath>
</defs>
</svg>
