<svg width="73" height="44" viewBox="0 0 73 44" fill="none" xmlns="http://www.w3.org/2000/svg">
<g filter="url(#filter0_d_431_20)">
<rect width="68.4" height="36" fill="#46A882"/>
<mask id="mask0_431_20" style="mask-type:alpha" maskUnits="userSpaceOnUse" x="37" y="6" width="25" height="25">
<circle cx="49.1324" cy="18.1324" r="11.6324" fill="#A27474" stroke="black"/>
</mask>
<g mask="url(#mask0_431_20)">
<path d="M53.8247 15.6279H53.9002C56.2082 15.7016 57.8532 15.9814 58.084 17.2161C59.0156 22.1598 59.3828 28.937 59.3828 28.937L49.4268 31.9391H49.0072L39.5107 28.937C39.5107 28.937 39.8087 18.2912 40.4298 17.2161C40.8494 16.5092 42.3181 15.6991 44.6094 15.623H53.8414L53.8247 15.6279Z" fill="#5154A1"/>
<path d="M45.3843 18.7568C45.3843 18.7568 49.4005 21.8088 52.9817 18.7568C52.9817 18.7568 51.3082 29.6195 51.5404 30.9269H47.1016L45.3843 18.7568Z" fill="#373684"/>
<g clip-path="url(#clip0_431_20)">
<path d="M61.0562 27.5455C61.0562 27.5455 60.9867 29.9333 60.1231 29.1757C60.1231 29.1757 59.6859 30.3685 59.1594 29.4463C59.1594 29.4463 58.6536 30.7992 58.2065 29.3922C58.2065 29.3922 57.6206 31.1532 57.0255 29.2298C57.0255 29.2298 55.1387 32.443 54.9899 27.5455L61.0562 27.5455Z" fill="#EFB19E"/>
<path d="M60.3539 27.5455C60.3541 28.1492 60.2712 28.731 60.1216 29.1758C60.1216 29.1758 60.4233 28.7023 60.3539 27.5455Z" fill="#BC6A4F"/>
<path d="M59.3114 27.5455C59.3585 28.8736 59.1593 29.4463 59.1593 29.4463C59.1593 29.4463 59.461 28.9615 59.3114 27.5455Z" fill="#BC6A4F"/>
<path d="M58.4395 27.5449C58.4256 28.2072 58.3449 28.8462 58.2065 29.3916C58.296 29.1559 58.3638 28.8657 58.4044 28.5447C58.4449 28.2237 58.4569 27.8811 58.4395 27.5449Z" fill="#BC6A4F"/>
<path d="M56.8001 28.1652C56.8444 28.5619 56.9213 28.9259 57.0249 29.2295C56.9555 29.1248 56.8978 28.9703 56.8582 28.7827C56.8186 28.5952 56.7985 28.3816 56.8001 28.1652Z" fill="#BC6A4F"/>
</g>
<g clip-path="url(#clip1_431_20)">
<path d="M43.6943 27.3375C43.6943 27.3375 43.6249 29.7253 42.7613 28.9677C42.7613 28.9677 42.3241 30.1605 41.7976 29.2383C41.7976 29.2383 41.2918 30.5912 40.8447 29.1842C40.8447 29.1842 40.2587 30.9452 39.6637 29.0218C39.6637 29.0218 37.7769 32.235 37.6281 27.3375L43.6943 27.3375Z" fill="#EFB19E"/>
<path d="M42.9921 27.3375C42.9923 27.9411 42.9094 28.523 42.7598 28.9678C42.7598 28.9678 43.0615 28.4943 42.9921 27.3375Z" fill="#BC6A4F"/>
<path d="M41.9496 27.3375C41.9967 28.6656 41.7975 29.2383 41.7975 29.2383C41.7975 29.2383 42.0992 28.7535 41.9496 27.3375Z" fill="#BC6A4F"/>
<path d="M41.0777 27.3369C41.0638 27.9992 40.9831 28.6382 40.8447 29.1836C40.9342 28.9479 41.002 28.6576 41.0425 28.3367C41.083 28.0157 41.0951 27.673 41.0777 27.3369Z" fill="#BC6A4F"/>
<path d="M39.4383 27.9572C39.4826 28.3539 39.5595 28.7179 39.6631 29.0215C39.5936 28.9168 39.536 28.7623 39.4964 28.5747C39.4568 28.3872 39.4367 28.1736 39.4383 27.9572Z" fill="#BC6A4F"/>
</g>
<path d="M49.2226 27.05L49.2247 20.1094L48.9946 27.0583L49.2226 27.05Z" fill="#2C2C6B"/>
<path d="M52.9823 19.5652C53.2215 19.5652 53.4153 19.3714 53.4153 19.1322C53.4153 18.8931 53.2215 18.6992 52.9823 18.6992C52.7432 18.6992 52.5493 18.8931 52.5493 19.1322C52.5493 19.3714 52.7432 19.5652 52.9823 19.5652Z" fill="#C9C5BD"/>
<path d="M53.0134 19.4555C53.2225 19.4555 53.392 19.286 53.392 19.0769C53.392 18.8678 53.2225 18.6982 53.0134 18.6982C52.8043 18.6982 52.6348 18.8678 52.6348 19.0769C52.6348 19.286 52.8043 19.4555 53.0134 19.4555Z" fill="white"/>
<path d="M52.4652 20.1912C52.7044 20.1912 52.8982 19.9973 52.8982 19.7582C52.8982 19.5191 52.7044 19.3252 52.4652 19.3252C52.2261 19.3252 52.0322 19.5191 52.0322 19.7582C52.0322 19.9973 52.2261 20.1912 52.4652 20.1912Z" fill="#C9C5BD"/>
<path d="M52.4968 20.0824C52.7059 20.0824 52.8754 19.9129 52.8754 19.7038C52.8754 19.4947 52.7059 19.3252 52.4968 19.3252C52.2877 19.3252 52.1182 19.4947 52.1182 19.7038C52.1182 19.9129 52.2877 20.0824 52.4968 20.0824Z" fill="white"/>
<path d="M52.0321 20.8846C52.2713 20.8846 52.4651 20.6907 52.4651 20.4516C52.4651 20.2124 52.2713 20.0186 52.0321 20.0186C51.793 20.0186 51.5991 20.2124 51.5991 20.4516C51.5991 20.6907 51.793 20.8846 52.0321 20.8846Z" fill="#C9C5BD"/>
<path d="M52.0632 20.7729C52.2723 20.7729 52.4418 20.6033 52.4418 20.3942C52.4418 20.1851 52.2723 20.0156 52.0632 20.0156C51.8541 20.0156 51.6846 20.1851 51.6846 20.3942C51.6846 20.6033 51.8541 20.7729 52.0632 20.7729Z" fill="white"/>
<path d="M51.7289 21.6258C51.968 21.6258 52.1619 21.4319 52.1619 21.1928C52.1619 20.9536 51.968 20.7598 51.7289 20.7598C51.4898 20.7598 51.2959 20.9536 51.2959 21.1928C51.2959 21.4319 51.4898 21.6258 51.7289 21.6258Z" fill="#DDD5C5"/>
<path d="M51.76 21.517C51.9691 21.517 52.1386 21.3475 52.1386 21.1384C52.1386 20.9293 51.9691 20.7598 51.76 20.7598C51.5509 20.7598 51.3813 20.9293 51.3813 21.1384C51.3813 21.3475 51.5509 21.517 51.76 21.517Z" fill="white"/>
<path d="M51.2963 22.2859C51.5354 22.2859 51.7293 22.0921 51.7293 21.8529C51.7293 21.6138 51.5354 21.4199 51.2963 21.4199C51.0571 21.4199 50.8633 21.6138 50.8633 21.8529C50.8633 22.0921 51.0571 22.2859 51.2963 22.2859Z" fill="#C9C5BD"/>
<path d="M51.3273 22.1762C51.5365 22.1762 51.706 22.0067 51.706 21.7976C51.706 21.5885 51.5365 21.4189 51.3273 21.4189C51.1182 21.4189 50.9487 21.5885 50.9487 21.7976C50.9487 22.0067 51.1182 22.1762 51.3273 22.1762Z" fill="white"/>
<path d="M50.8383 22.8865C51.0774 22.8865 51.2713 22.6927 51.2713 22.4535C51.2713 22.2144 51.0774 22.0205 50.8383 22.0205C50.5991 22.0205 50.4053 22.2144 50.4053 22.4535C50.4053 22.6927 50.5991 22.8865 50.8383 22.8865Z" fill="#C9C5BD"/>
<path d="M50.8693 22.7777C51.0784 22.7777 51.248 22.6082 51.248 22.3991C51.248 22.19 51.0784 22.0205 50.8693 22.0205C50.6602 22.0205 50.4907 22.19 50.4907 22.3991C50.4907 22.6082 50.6602 22.7777 50.8693 22.7777Z" fill="white"/>
<path d="M50.2728 23.4266C50.512 23.4266 50.7058 23.2327 50.7058 22.9935C50.7058 22.7544 50.512 22.5605 50.2728 22.5605C50.0337 22.5605 49.8398 22.7544 49.8398 22.9935C49.8398 23.2327 50.0337 23.4266 50.2728 23.4266Z" fill="#C9C5BD"/>
<path d="M50.3039 23.3178C50.513 23.3178 50.6825 23.1483 50.6825 22.9392C50.6825 22.7301 50.513 22.5605 50.3039 22.5605C50.0948 22.5605 49.9253 22.7301 49.9253 22.9392C49.9253 23.1483 50.0948 23.3178 50.3039 23.3178Z" fill="white"/>
<path d="M49.6161 23.7215C49.8552 23.7215 50.0491 23.5276 50.0491 23.2885C50.0491 23.0493 49.8552 22.8555 49.6161 22.8555C49.377 22.8555 49.1831 23.0493 49.1831 23.2885C49.1831 23.5276 49.377 23.7215 49.6161 23.7215Z" fill="#C9C5BD"/>
<path d="M49.6477 23.6107C49.8568 23.6107 50.0263 23.4412 50.0263 23.2321C50.0263 23.023 49.8568 22.8535 49.6477 22.8535C49.4386 22.8535 49.269 23.023 49.269 23.2321C49.269 23.4412 49.4386 23.6107 49.6477 23.6107Z" fill="white"/>
<path d="M48.8148 23.6648C49.054 23.6648 49.2478 23.471 49.2478 23.2318C49.2478 22.9927 49.054 22.7988 48.8148 22.7988C48.5757 22.7988 48.3818 22.9927 48.3818 23.2318C48.3818 23.471 48.5757 23.6648 48.8148 23.6648Z" fill="#C9C5BD"/>
<path d="M48.8464 23.5561C49.0555 23.5561 49.225 23.3865 49.225 23.1774C49.225 22.9683 49.0555 22.7988 48.8464 22.7988C48.6373 22.7988 48.4678 22.9683 48.4678 23.1774C48.4678 23.3865 48.6373 23.5561 48.8464 23.5561Z" fill="white"/>
<path d="M48.1249 23.2332C48.364 23.2332 48.5579 23.0393 48.5579 22.8002C48.5579 22.561 48.364 22.3672 48.1249 22.3672C47.8858 22.3672 47.6919 22.561 47.6919 22.8002C47.6919 23.0393 47.8858 23.2332 48.1249 23.2332Z" fill="#C9C5BD"/>
<path d="M48.1584 23.1244C48.3675 23.1244 48.537 22.9549 48.537 22.7458C48.537 22.5367 48.3675 22.3672 48.1584 22.3672C47.9493 22.3672 47.7798 22.5367 47.7798 22.7458C47.7798 22.9549 47.9493 23.1244 48.1584 23.1244Z" fill="white"/>
<path d="M47.5434 22.7195C47.7825 22.7195 47.9764 22.5257 47.9764 22.2865C47.9764 22.0474 47.7825 21.8535 47.5434 21.8535C47.3042 21.8535 47.1104 22.0474 47.1104 22.2865C47.1104 22.5257 47.3042 22.7195 47.5434 22.7195Z" fill="#C9C5BD"/>
<path d="M47.5749 22.6088C47.784 22.6088 47.9535 22.4393 47.9535 22.2302C47.9535 22.0211 47.784 21.8516 47.5749 21.8516C47.3658 21.8516 47.1963 22.0211 47.1963 22.2302C47.1963 22.4393 47.3658 22.6088 47.5749 22.6088Z" fill="white"/>
<path d="M47.1102 22.0955C47.3494 22.0955 47.5432 21.9016 47.5432 21.6625C47.5432 21.4234 47.3494 21.2295 47.1102 21.2295C46.8711 21.2295 46.6772 21.4234 46.6772 21.6625C46.6772 21.9016 46.8711 22.0955 47.1102 22.0955Z" fill="#C9C5BD"/>
<path d="M47.1418 21.9867C47.3509 21.9867 47.5204 21.8172 47.5204 21.6081C47.5204 21.399 47.3509 21.2295 47.1418 21.2295C46.9327 21.2295 46.7632 21.399 46.7632 21.6081C46.7632 21.8172 46.9327 21.9867 47.1418 21.9867Z" fill="white"/>
<path d="M46.7631 21.4588C47.0022 21.4588 47.1961 21.2649 47.1961 21.0258C47.1961 20.7866 47.0022 20.5928 46.7631 20.5928C46.5239 20.5928 46.3301 20.7866 46.3301 21.0258C46.3301 21.2649 46.5239 21.4588 46.7631 21.4588Z" fill="#C9C5BD"/>
<path d="M46.7946 21.35C47.0037 21.35 47.1732 21.1805 47.1732 20.9714C47.1732 20.7623 47.0037 20.5928 46.7946 20.5928C46.5855 20.5928 46.416 20.7623 46.416 20.9714C46.416 21.1805 46.5855 21.35 46.7946 21.35Z" fill="white"/>
<path d="M46.391 20.8992C46.6301 20.8992 46.824 20.7053 46.824 20.4662C46.824 20.2271 46.6301 20.0332 46.391 20.0332C46.1519 20.0332 45.958 20.2271 45.958 20.4662C45.958 20.7053 46.1519 20.8992 46.391 20.8992Z" fill="#C9C5BD"/>
<path d="M46.4221 20.7904C46.6312 20.7904 46.8007 20.6209 46.8007 20.4118C46.8007 20.2027 46.6312 20.0332 46.4221 20.0332C46.213 20.0332 46.0435 20.2027 46.0435 20.4118C46.0435 20.6209 46.213 20.7904 46.4221 20.7904Z" fill="white"/>
<path d="M46.0116 20.2723C46.2508 20.2723 46.4446 20.0784 46.4446 19.8393C46.4446 19.6001 46.2508 19.4062 46.0116 19.4062C45.7725 19.4062 45.5786 19.6001 45.5786 19.8393C45.5786 20.0784 45.7725 20.2723 46.0116 20.2723Z" fill="#C9C5BD"/>
<path d="M46.0437 20.1625C46.2528 20.1625 46.4223 19.993 46.4223 19.7839C46.4223 19.5748 46.2528 19.4053 46.0437 19.4053C45.8346 19.4053 45.665 19.5748 45.665 19.7839C45.665 19.993 45.8346 20.1625 46.0437 20.1625Z" fill="white"/>
<path d="M45.5458 19.7039C45.7849 19.7039 45.9788 19.51 45.9788 19.2709C45.9788 19.0318 45.7849 18.8379 45.5458 18.8379C45.3067 18.8379 45.1128 19.0318 45.1128 19.2709C45.1128 19.51 45.3067 19.7039 45.5458 19.7039Z" fill="#C9C5BD"/>
<path d="M45.5788 19.5922C45.7879 19.5922 45.9574 19.4227 45.9574 19.2136C45.9574 19.0045 45.7879 18.835 45.5788 18.835C45.3697 18.835 45.2002 19.0045 45.2002 19.2136C45.2002 19.4227 45.3697 19.5922 45.5788 19.5922Z" fill="white"/>
<path d="M57.0899 15.6892V15.7038H41.7612C41.7612 13.6267 42.9975 10.6124 45.0747 10.6082L53.0632 8.72562C55.1445 8.71098 57.0899 13.6058 57.0899 15.6892Z" fill="#ED8A29"/>
<path d="M44.4115 15.4223C43.9358 15.4223 43.4796 15.2335 43.1431 14.8973C42.8066 14.5612 42.6173 14.1052 42.6167 13.6296C42.6173 13.1539 42.8066 12.698 43.1431 12.3619C43.4796 12.0257 43.9358 11.8369 44.4115 11.8369C44.8869 11.8369 45.3429 12.0258 45.6791 12.362C46.0153 12.6982 46.2041 13.1541 46.2041 13.6296C46.2041 14.105 46.0153 14.561 45.6791 14.8972C45.3429 15.2334 44.8869 15.4223 44.4115 15.4223Z" fill="#EFB19E"/>
<path d="M43.391 15.5906C43.6302 15.5906 43.824 15.3968 43.824 15.1576C43.824 14.9185 43.6302 14.7246 43.391 14.7246C43.1519 14.7246 42.958 14.9185 42.958 15.1576C42.958 15.3968 43.1519 15.5906 43.391 15.5906Z" fill="#C49318"/>
<path d="M43.4245 15.4818C43.6336 15.4818 43.8031 15.3123 43.8031 15.1032C43.8031 14.8941 43.6336 14.7246 43.4245 14.7246C43.2154 14.7246 43.0459 14.8941 43.0459 15.1032C43.0459 15.3123 43.2154 15.4818 43.4245 15.4818Z" fill="#EDB61B"/>
<path d="M49.2649 18.7566C46.0205 18.7566 43.3911 16.4557 43.3911 13.6317C43.3911 10.8078 46.0205 8.50684 49.2649 8.50684C52.5092 8.50684 55.1366 10.8078 55.1366 13.6317C55.1366 16.4557 52.5072 18.7566 49.2649 18.7566Z" fill="#EFB19E"/>
<path d="M49.5092 16.0492C49.4283 16.0617 49.3467 16.0722 49.2644 16.0805C48.9424 16.1119 48.618 16.1119 48.2959 16.0805C48.1893 16.0805 48.0868 16.0575 47.9801 16.0429C46.8296 15.8609 46.2334 16.2981 46.8965 16.6077C47.4841 16.8441 48.1103 16.9697 48.7436 16.9779C49.3775 16.9698 50.0045 16.8443 50.5928 16.6077C51.2559 16.3085 50.6597 15.8714 49.5092 16.0492Z" fill="#E28E74"/>
<path d="M53.2794 13.632C53.2775 13.2942 53.3541 12.9605 53.5032 12.6573C53.6341 12.3841 53.8411 12.1546 54.0993 11.9963C54.3323 11.8606 54.6067 11.8145 54.8712 11.8666C55.1505 11.9275 55.4016 12.0799 55.5845 12.2996C55.7942 12.5471 55.9381 12.8435 56.0029 13.1614C56.0742 13.4963 56.0699 13.8429 55.9903 14.1759C55.9166 14.4873 55.7655 14.7751 55.551 15.0126C55.3618 15.2237 55.1067 15.3645 54.8273 15.4122C54.7733 15.4205 54.7188 15.4247 54.6641 15.4247C54.5732 15.4239 54.4826 15.4127 54.3943 15.3912C54.0566 15.2916 53.7694 15.0673 53.591 14.7637C53.3843 14.4226 53.2764 14.0309 53.2794 13.632Z" fill="#EFB19E"/>
<path d="M55.5904 14.299C55.6835 14.0846 55.7299 13.8529 55.7264 13.6192C55.7271 13.3849 55.6779 13.1531 55.5821 12.9393C55.497 12.7447 55.3638 12.5748 55.1951 12.4457C55.0436 12.3298 54.8587 12.2659 54.668 12.2637C54.668 12.2637 55.9021 12.6695 55.5904 14.299Z" fill="#BC6A4F"/>
<path d="M52.4648 16.8009C52.6655 16.6806 52.8386 16.5195 52.9732 16.3281C53.1083 16.1404 53.203 15.9268 53.2514 15.7006C53.2957 15.4926 53.287 15.2768 53.2263 15.0731C53.1696 14.8915 53.0568 14.7326 52.9041 14.6191C52.9041 14.6191 53.6676 15.6588 52.4648 16.8009Z" fill="#BC6A4F"/>
<path d="M45.5458 16.7211C45.3231 16.6495 45.1179 16.5319 44.9434 16.376C44.7671 16.2222 44.6246 16.0334 44.525 15.8217C44.4366 15.6315 44.3978 15.4221 44.4121 15.213C44.424 15.0226 44.4974 14.8413 44.6213 14.6963C44.6213 14.6963 44.113 15.8865 45.5458 16.7211Z" fill="#BC6A4F"/>
<path d="M47.1729 16.2334C47.4699 16.4635 48.0619 16.6204 48.7438 16.6204C49.4257 16.6204 50.0177 16.4635 50.3168 16.2334C50.3168 16.2334 48.7375 16.8233 47.1729 16.2334Z" fill="#BC6A4F"/>
<path d="M43.4077 25.6718C43.4077 25.6718 43.7612 27.2406 43.7529 27.2072C43.8739 27.1294 44.0029 27.0649 44.1377 27.0147C44.0977 26.5733 44.0279 26.1351 43.9286 25.7032C43.8066 25.6468 43.678 25.6061 43.5458 25.5818C43.5458 25.5818 44.0248 24.5359 43.9202 22.6533C43.8859 23.6779 43.7135 24.6933 43.4077 25.6718Z" fill="#373684"/>
<path d="M39.0942 27.3214C39.0942 27.3214 38.8474 26.3361 38.9331 25.6667C38.9331 25.6667 42.2173 25.3634 43.8468 25.7421C43.8468 25.7421 44.0831 26.8633 43.9974 27.3214H39.0942Z" fill="#FAF3ED"/>
<path d="M43.4076 25.6711C42.2153 25.4975 40.5188 25.5686 39.5942 25.6272V25.4536C39.5942 25.4536 42.5792 25.3678 43.4076 25.6711Z" fill="#373684"/>
<path d="M55.4439 25.9288C55.4439 25.9288 55.0904 27.4955 55.0988 27.4641C55.1071 27.4328 54.7139 27.2696 54.7139 27.2696C54.7551 26.8283 54.825 26.3902 54.923 25.958C55.0458 25.9018 55.1751 25.8611 55.3079 25.8367C55.3079 25.8367 54.8268 24.7908 54.9335 22.9082C54.9664 23.9335 55.1381 24.9496 55.4439 25.9288Z" fill="#373684"/>
<path d="M59.7576 27.5875C59.7576 27.5875 60.0065 26.6044 59.9207 25.9329C59.9207 25.9329 56.6345 25.6317 55.005 26.0103C55.005 26.0103 54.7686 27.1294 54.8565 27.5875H59.7576Z" fill="#FAF3ED"/>
<path d="M55.4438 25.9283C56.6362 25.7546 58.3724 25.8258 59.2865 25.8864L59.2739 25.7191C59.2739 25.7191 56.2743 25.6354 55.4438 25.9283Z" fill="#373684"/>
<path d="M50.2105 13.7005C50.2105 14.0644 50.5055 14.3594 50.8694 14.3594C51.2333 14.3594 51.5283 14.0644 51.5283 13.7005C51.5283 13.3365 51.2333 13.0415 50.8694 13.0415C50.5055 13.0415 50.2105 13.3365 50.2105 13.7005Z" fill="#1D1D1B"/>
<path d="M45.5391 13.7005C45.5391 14.0644 45.8341 14.3594 46.198 14.3594C46.5619 14.3594 46.8569 14.0644 46.8569 13.7005C46.8569 13.3365 46.5619 13.0415 46.198 13.0415C45.8341 13.0415 45.5391 13.3365 45.5391 13.7005Z" fill="#1D1D1B"/>
<path d="M54.7664 11.8384C54.8673 11.6125 54.9168 11.3669 54.9114 11.1195C54.906 10.8721 54.8457 10.629 54.735 10.4076C54.6274 10.1409 54.5386 9.86686 54.4693 9.58766C54.3339 9.18916 54.1206 8.82157 53.8418 8.5062C53.1913 7.63601 51.7124 7.64856 51.3484 7.80753L51.0744 7.93305C50.9677 7.98325 50.8652 7.91841 50.7836 7.84101C50.5514 7.64438 50.5033 7.56489 49.9134 7.46866C49.3884 7.3829 49.0976 7.46867 48.9386 7.61928C48.8641 7.68905 48.7689 7.73269 48.6674 7.74363C48.5659 7.75458 48.4636 7.73222 48.3759 7.67994L48.3195 7.64647C47.7507 7.31571 47.0753 7.21966 46.4369 7.37872C44.1903 7.92677 42.9268 10.8699 43.2301 11.5247C43.2975 11.6733 43.3955 11.806 43.5177 11.9142C43.6399 12.0223 43.7835 12.1034 43.9393 12.1522C44.3576 12.2798 44.594 9.89516 47.1857 10.3261C47.1857 10.3261 47.3531 11.0498 48.3634 11.4013C49.3737 11.7527 50.474 10.37 50.474 10.37C50.474 10.37 50.3862 11.259 51.7626 11.8342C52.7283 12.2103 53.7996 12.2117 54.7664 11.8384Z" fill="#ED8A29"/>
<path d="M48.3318 11.4788C47.8407 11.3323 47.424 11.0039 47.1667 10.5605C46.9094 10.0815 46.8927 9.49163 47.1207 8.80762L47.2692 8.85782C47.06 9.49791 47.06 10.046 47.3047 10.4873C47.5441 10.889 47.9244 11.1873 48.3716 11.324L48.3318 11.4788Z" fill="#1D1D1B"/>
<path d="M51.7328 11.9143C51.2431 11.7672 50.8274 11.4397 50.5698 10.998C50.3104 10.5169 50.2957 9.92704 50.5238 9.24512L50.6723 9.29324C50.4631 9.93333 50.4631 10.4814 50.7078 10.9206C50.9467 11.322 51.3261 11.6202 51.7725 11.7574L51.7328 11.9143Z" fill="#1D1D1B"/>
<path d="M55.0126 15.5906C55.2517 15.5906 55.4456 15.3968 55.4456 15.1576C55.4456 14.9185 55.2517 14.7246 55.0126 14.7246C54.7735 14.7246 54.5796 14.9185 54.5796 15.1576C54.5796 15.3968 54.7735 15.5906 55.0126 15.5906Z" fill="#C49318"/>
<path d="M55.0466 15.4818C55.2557 15.4818 55.4252 15.3123 55.4252 15.1032C55.4252 14.8941 55.2557 14.7246 55.0466 14.7246C54.8375 14.7246 54.668 14.8941 54.668 15.1032C54.668 15.3123 54.8375 15.4818 55.0466 15.4818Z" fill="#EDB61B"/>
<path opacity="0.6" d="M43.7502 15.4003C43.7502 15.4003 43.5828 14.9694 43.541 14.7476C43.541 14.7476 43.541 14.7246 43.4009 14.7246C43.4247 15.0022 43.5105 15.271 43.6519 15.5111C43.6912 15.4806 43.7245 15.443 43.7502 15.4003Z" fill="#C49318"/>
<path opacity="0.6" d="M53.4857 17.6299C53.4857 17.6299 50.9254 21.4202 50.9484 27.1727H51.4776V26.5451L53.4857 17.6299Z" fill="#373684"/>
<path opacity="0.6" d="M44.9829 17.5137C44.9829 17.5137 47.5433 21.304 47.5203 27.0564H46.991V26.4289L44.9829 17.5137Z" fill="#373684"/>
<path d="M54.6617 15.8867L55.4754 18.4952L53.7287 20.815L53.5927 23.777L51.6411 26.718L51.6599 25.965C51.7541 22.3148 52.6661 18.9491 54.6533 15.8867H54.6617Z" fill="#373684"/>
<path d="M54.6801 15.5156L55.4938 18.1262L53.745 20.6363L53.6112 23.6004L51.4775 26.5415L51.4964 25.7863C51.591 22.1361 52.6928 18.5831 54.6801 15.5198V15.5156Z" fill="#FAF3ED"/>
<path d="M43.8635 15.8828L43.0498 18.4934L44.7985 20.8111L44.9324 23.7731L46.8778 26.7141L46.8569 25.9611C46.7648 22.3109 45.8507 18.9473 43.8635 15.8828Z" fill="#373684"/>
<path d="M43.8391 15.5117L43.0254 18.1223L44.772 20.6324L44.908 23.5944L47.0396 26.5355L47.0207 25.7824C46.9272 22.1317 45.8261 18.5779 43.8391 15.5138V15.5117Z" fill="#FAF3ED"/>
<path d="M44.7109 13.5396C44.8215 13.3254 44.9696 13.1327 45.1481 12.9707C45.3261 12.7988 45.5406 12.6694 45.7757 12.592C46.0251 12.5185 46.2933 12.544 46.5245 12.6632C46.7406 12.7825 46.9167 12.963 47.0307 13.1819C46.8636 13.0259 46.6703 12.9006 46.4597 12.8117C46.2579 12.7386 46.038 12.732 45.8321 12.7929C45.6204 12.8613 45.4211 12.9638 45.2422 13.0962C45.0566 13.2334 44.8792 13.3815 44.7109 13.5396Z" fill="#1D1D1B"/>
<path d="M52.5469 13.5396C52.376 13.3813 52.1958 13.2332 52.0072 13.0962C51.8283 12.9638 51.6291 12.8613 51.4173 12.7929C51.2115 12.732 50.9916 12.7386 50.7898 12.8117C50.5792 12.9006 50.3859 13.0259 50.2188 13.1819C50.3328 12.963 50.5089 12.7825 50.725 12.6632C50.9561 12.544 51.2244 12.5185 51.4738 12.592C51.7089 12.6694 51.9234 12.7988 52.1014 12.9707C52.2829 13.132 52.4338 13.3247 52.5469 13.5396Z" fill="#1D1D1B"/>
</g>
</g>
<defs>
<filter id="filter0_d_431_20" x="-4" y="0" width="76.3999" height="44" filterUnits="userSpaceOnUse" color-interpolation-filters="sRGB">
<feFlood flood-opacity="0" result="BackgroundImageFix"/>
<feColorMatrix in="SourceAlpha" type="matrix" values="0 0 0 0 0 0 0 0 0 0 0 0 0 0 0 0 0 0 127 0" result="hardAlpha"/>
<feOffset dy="4"/>
<feGaussianBlur stdDeviation="2"/>
<feComposite in2="hardAlpha" operator="out"/>
<feColorMatrix type="matrix" values="0 0 0 0 0 0 0 0 0 0 0 0 0 0 0 0 0 0 0.25 0"/>
<feBlend mode="normal" in2="BackgroundImageFix" result="effect1_dropShadow_431_20"/>
<feBlend mode="normal" in="SourceGraphic" in2="effect1_dropShadow_431_20" result="shape"/>
</filter>
<clipPath id="clip0_431_20">
<rect width="6.06621" height="2.71934" fill="white" transform="translate(61.0562 30.2646) rotate(-180)"/>
</clipPath>
<clipPath id="clip1_431_20">
<rect width="6.06621" height="2.71934" fill="white" transform="translate(43.6943 30.0566) rotate(-180)"/>
</clipPath>
</defs>
</svg>
