<svg id="FOND_NUIT" data-name="FOND NUIT" xmlns="http://www.w3.org/2000/svg" viewBox="0 0 363.64 121.41"><defs><style>.cls-1{fill:#1e0068;}.cls-2{fill:#4f00ec;}.cls-3{fill:#fff;}</style></defs><path class="cls-1" d="M333.25,48.33a5.48,5.48,0,1,1,0,11H274.79a5.56,5.56,0,0,1-3.88-1.6,5.48,5.48,0,0,1,3.88-9.36Z"/><path class="cls-1" d="M282,96.79a24.63,24.63,0,0,1-24.63,24.62H0V0H355.06a18.18,18.18,0,0,1-9.35,33.61v0H232.76a19.27,19.27,0,1,0,0,38.54h24.62A24.63,24.63,0,0,1,282,96.79Z"/><path class="cls-1" d="M362.49,85.79a6.41,6.41,0,0,1-6.39,6.38H337.82a6.39,6.39,0,1,1,0-12.77H356.1A6.41,6.41,0,0,1,362.49,85.79Z"/><path class="cls-2" d="M362.49,85.79a6.41,6.41,0,0,1-6.39,6.38H337.82a6.39,6.39,0,1,1,0-12.77H356.1A6.41,6.41,0,0,1,362.49,85.79Z"/><path class="cls-2" d="M338.74,53.82a5.5,5.5,0,0,1-5.49,5.47H274.79a5.56,5.56,0,0,1-3.88-1.6,5.48,5.48,0,0,1,3.88-9.36h58.46a5.5,5.5,0,0,1,5.49,5.49Z"/><path class="cls-2" d="M363.64,15.43a18.19,18.19,0,0,1-17.93,18.18v0H232.76a19.27,19.27,0,1,0,0,38.54h24.62a24.62,24.62,0,1,1,0,49.24H0V0H355.06A18.15,18.15,0,0,1,363.64,15.43Z"/><path class="cls-3" d="M28.87,41.84c-.14,0-.22,0-.22.25V52.17c0,.47-.32.47-.57.47H23.4c-.25,0-.61,0-.61-.47C23,45.4,23,41.69,23,39c0-3.24,0-6.41-.25-9.65,0-.47,2.52-1.87,5.5-1.87,6.3,0,9.58,2.23,9.58,6.52C37.87,38.49,34.16,41.84,28.87,41.84Zm3.6-8.17c0-1.55-2-1.69-2.84-1.69s-1,.14-1,.68v3.92c0,.18,0,.33.36.33C30.17,36.91,32.47,35.32,32.47,33.67Z"/><path class="cls-3" d="M56.12,39.53c0,10.12-2.45,13.57-8.53,13.57-6.55,0-9.14-4-9.14-13.6,0-8.82,2.66-12.49,8.46-12.49C53.1,27,56.12,31.26,56.12,39.53Zm-8.67,7.56c2.23,0,2.66-1,2.66-8.06,0-4.57-.43-6.44-2.92-6.44S44.46,34.46,44.46,39C44.46,45.8,45,47.09,47.45,47.09Z"/><path class="cls-3" d="M58.32,41.48v-13c0-1,1.65-1,2.66-1,1.33,0,3.06.25,3.06.94V41.69c0,3.78,1.37,4.47,2.88,4.47s3.1-.69,3.1-4.47V28.45c0-.76.83-1,2.7-1,1.18,0,3,0,3,.65V41.77c0,9.46-3.56,10.87-8.71,10.87S58.32,50.51,58.32,41.48Z"/><path class="cls-3" d="M88.09,43.67c.14,0,.25-.14.32-.43l3.35-15.3c.07-.39.47-.5.94-.5h6.44c.54,0,.61.18.5.5L92.37,52.13a.84.84,0,0,1-.86.51H85.46c-.36,0-.79-.11-.9-.47L77.22,28c-.11-.33,0-.58.65-.58h6.58a.63.63,0,0,1,.72.58L87.8,43.24C87.87,43.53,88,43.67,88.09,43.67Z"/><path class="cls-3" d="M117,39.53c0,10.12-2.45,13.57-8.53,13.57-6.55,0-9.14-4-9.14-13.6C99.36,30.68,102,27,107.82,27,114,27,117,31.26,117,39.53Zm-8.67,7.56c2.23,0,2.66-1,2.66-8.06,0-4.57-.43-6.44-2.91-6.44s-2.74,1.87-2.74,6.37C105.37,45.8,105.87,47.09,108.36,47.09Z"/><path class="cls-3" d="M120.92,52.64c-.65,0-.79,0-.79-.36V29c0-.83,4-1.55,7.16-1.55.47,0,.62,0,.62.76V52.28c0,.36-.22.36-1,.36Z"/><path class="cls-3" d="M146.55,52.17c0,.47-.5.47-.75.47h-5.33a.66.66,0,0,1-.58-.33l-2.16-4.68c-.28-.61-.5-.93-.64-.93s-.26.32-.26.93v4.54c0,.47-.46.47-.72.47h-4.53c-.25,0-.61,0-.61-.47,0-1.69.28-5.8.28-10.94S131,29,131,28.77c0-.9,3.09-1.33,5.83-1.33,4.54,0,7.77,2.56,7.77,6.66a5.7,5.7,0,0,1-5,5.94c-.33,0-.29.11,0,.57C140.51,41.8,146.55,51.12,146.55,52.17ZM136.62,35.4c0,.21.11.28.43.28a3.06,3.06,0,0,0,2.88-2.84c0-1.08-.9-1.51-2.52-1.51-.68,0-.79.07-.79.65Z"/><path class="cls-3" d="M158.25,39.68c0-.33.4-.76.76-1.23L166.82,28a1.35,1.35,0,0,1,1-.54h5.65a.57.57,0,0,1,.65.61V38.56c0,.25,0,.29.18.29h3c.39,0,.5,0,.5.36v4.32c0,.36-.07.36-.5.36h-2.85c-.29,0-.32,0-.32.29v8c0,.47-.25.47-.76.47H169.2c-.54,0-.72,0-.72-.47V44.29c0-.36,0-.4-.4-.4h-9.29c-.46,0-.54-.25-.54-.65Zm6.81-1.15c-.22.25-.11.32.14.32h3.42c.18,0,.18-.11.18-.32V34.24c0-.47,0-.54-.47,0Z"/><path class="cls-3" d="M24.28,78.62H22.05c-.24,0-.37,0-.27-.26l4-10.11A4,4,0,0,1,28,67.41c.17,0,.29,0,.32.11L32.1,78.41c0,.06-.06.21-.33.21H29.62a.57.57,0,0,1-.49-.26c-.07-.16-.47-2.13-.69-2.14l-2.8-.15c-.44,0-.95,2-1.06,2.32A.29.29,0,0,1,24.28,78.62Zm2.22-5.29c-.11.23-.08.31.21.31h1c.1,0,.26-.06.16-.37l-.3-1.06c-.07-.24-.11-.36-.18-.36s-.14.12-.27.36Z"/><path class="cls-3" d="M39.85,78.41c0,.21-.23.21-.34.21H37.14a.31.31,0,0,1-.26-.15l-1-2.08c-.12-.27-.22-.41-.28-.41s-.12.14-.12.41v2c0,.21-.2.21-.32.21h-2c-.12,0-.28,0-.28-.21,0-.75.13-2.58.13-4.87S33,68.12,33,68c0-.4,1.37-.59,2.59-.59,2,0,3.46,1.14,3.46,3A2.55,2.55,0,0,1,36.79,73c-.15,0-.13,0,0,.25C37.16,73.8,39.85,77.94,39.85,78.41ZM35.43,71c0,.1,0,.13.19.13a1.37,1.37,0,0,0,1.28-1.27c0-.48-.4-.67-1.12-.67-.3,0-.35,0-.35.29Z"/><path class="cls-3" d="M49,67.41c.32,0,.54.29.54.69v1.49c0,.67-.11.82-.67.82H46.1c-.19,0-.21.06-.21.2,0,2.76.11,5.17.24,7.78,0,.23-.13.23-.32.23H43.2c-.19,0-.33,0-.32-.23.15-2.61.24-5,.24-7.78,0-.12,0-.2-.24-.2H40.1c-.56,0-.58-.26-.58-.87V68.07c0-.43.18-.66.51-.66Z"/><path class="cls-3" d="M51.2,78.62c-.29,0-.35,0-.35-.16V68.1c0-.37,1.76-.69,3.19-.69.2,0,.27,0,.27.34V78.46c0,.16-.1.16-.43.16Z"/><path class="cls-3" d="M61.88,77.93c0,.69-.9.69-1.38.69-3.09,0-5.15-2.23-5.15-5.53s2.16-5.66,5.39-5.66c.69,0,1.14.27,1.14.7v1.68c0,.2-.13.26-.58.26-1.7,0-3.22.94-3.22,2.8A3.22,3.22,0,0,0,61.38,76c.37,0,.5.06.5.25Z"/><path class="cls-3" d="M62.83,68.1c0-.29,1.52-.69,2.92-.69.11,0,.24,0,.24.13s-.48,5.38-.48,6.5c0,.5-.1,1.12.28,1.12.6,0,3.19-.4,3.57-.4.18,0,.24.06.24.27l-.12,3.38c0,.21-.23.21-.45.21H63.09c-.11,0-.26,0-.26-.21Z"/><path class="cls-3" d="M75.56,76c.67,0,1.47,0,1.44.45l-.12,1.39c0,.59-.16.77-.46.77H70.79c-.23,0-.23-.24-.23-.42V68.12c0-.37,1.65-.71,2.31-.71a27.19,27.19,0,0,1,4,.26c.1,0,.37.06.37.7V70a.2.2,0,0,1-.21.21H73.49c-.09,0-.11.13-.11.23v1.24H74.5a.34.34,0,0,1,.38.32v1.49c0,.16-.06.24-.17.24H73.33c-.06,0-.08.07-.08.13v2c0,.16.08.23.26.23Z"/><path class="cls-3" d="M87.75,67.52V78.43c0,.19-.13.19-.24.19H85.07c-.11,0-.25,0-.25-.21V71c0-.08,0-.11-.1-.1L83,71.33c-.13,0-.24,0-.24-.12V69c0-.06,0-.35.54-.5L87,67.46a2.28,2.28,0,0,1,.56,0C87.7,67.41,87.75,67.44,87.75,67.52Z"/><path class="cls-3" d="M95.2,68.34v1.83c0,.35-.22.44-.57.44H92.29c-.27,0-.32.08-.32.48v1c0,.49,0,.53.35.53,3,0,4,0,4,2.56,0,3.25-.58,3.41-3.54,3.41s-3.39-.32-3.39-1.57V70.61c0-3.2.57-3.2,4.59-3.2C94.66,67.41,95.2,67.41,95.2,68.34Zm-3.31,8.1h1.46c.27,0,.3-.19.3-.5,0-.65-.16-1-.78-1H92c-.37,0-.41.43-.41,1.07C91.56,76.3,91.68,76.44,91.89,76.44Z"/><path class="cls-3" d="M25,92.6c.39.22,1.35,0,1.35.3v1.24c0,.48-.95.48-1.2.48-2.26,0-2.82-3.81-2.82-6.12,0-1.89.56-5.09,2.82-5.09.25,0,1.2,0,1.2.45v1.28c0,.43-1.07,0-1.46.56-.19.26-.35.91-.35,2.8C24.5,90.81,24.42,92.28,25,92.6Z"/><path class="cls-3" d="M30.39,89.82c-.07,0-.1,0-.1.11v4.48c0,.21-.14.21-.25.21H28c-.11,0-.27,0-.27-.21.11-3,.11-4.66.11-5.88,0-1.44,0-2.84-.11-4.28a3.26,3.26,0,0,1,2.45-.84c2.8,0,4.26,1,4.26,2.9S32.74,89.82,30.39,89.82ZM32,86.18c0-.69-.9-.75-1.27-.75s-.43.06-.43.3v1.75c0,.08,0,.14.16.14C31,87.62,32,86.92,32,86.18Z"/><path class="cls-3" d="M35.19,84.1c0-.29,1.52-.69,2.91-.69.11,0,.24,0,.24.13s-.48,5.38-.48,6.5c0,.5-.1,1.12.29,1.12.59,0,3.18-.4,3.57-.4.17,0,.24.06.24.27l-.13,3.38c0,.21-.23.21-.45.21H35.44c-.11,0-.25,0-.25-.21Z"/><path class="cls-3" d="M47.91,92c.67,0,1.47,0,1.44.45l-.11,1.39c-.05.59-.16.77-.47.77H43.14c-.23,0-.23-.24-.23-.42V84.12c0-.37,1.65-.71,2.31-.71a27.11,27.11,0,0,1,4,.26c.1,0,.37.06.37.7V86a.2.2,0,0,1-.21.21H45.84c-.09,0-.11.13-.11.23v1.24h1.12c.23,0,.39.13.39.32v1.49c0,.16-.07.24-.18.24H45.68c-.06,0-.08.07-.08.13v2c0,.16.08.23.26.23Z"/><path class="cls-3" d="M51.28,94.62c-.29,0-.35,0-.35-.16V84.1c0-.37,1.76-.69,3.19-.69.2,0,.27,0,.27.34V94.46c0,.16-.1.16-.43.16Z"/><path class="cls-3" d="M63.3,83.76V94.31c0,.26-.06.31-.26.31H61.38c-.19,0-.24,0-.43-.31-.07-.09-2.8-3.9-2.88-3.9S58,93.27,58,94.3c0,.27-.08.32-.24.32H55.84c-.17,0-.25-.08-.25-.21V84.21c0-.22,1.2-.8,1.61-.8a.3.3,0,0,1,.26.11c0,.1,3.12,5.5,3.22,5.5s.2-3.62.2-5.26c0-.27.12-.35.32-.35H63C63.25,83.41,63.3,83.52,63.3,83.76Z"/><path class="cls-3" d="M63.94,93.7V92.34c0-.56.11-.65.35-.7.88-.16,3.86.34,3.86-1.09,0-1.63-3.89-.72-3.89-3.86,0-2.46,2.41-3.28,4.62-3.28a8.25,8.25,0,0,1,1.44.11c.55.1.68.18.68.71v1c0,.43,0,.64-.63.52a7.47,7.47,0,0,0-1.31-.12c-1.15,0-1.67.4-1.67,1.07,0,1.79,3.57.83,3.57,4.58C71,94,69,94.6,67,94.6a19.45,19.45,0,0,1-2.53-.21C64.05,94.33,63.94,94.23,63.94,93.7Z"/><path class="cls-3" d="M78.67,89.82c-.06,0-.09,0-.09.11v4.48c0,.21-.15.21-.26.21H76.24c-.11,0-.27,0-.27-.21.11-3,.11-4.66.11-5.88,0-1.44,0-2.84-.11-4.28,0-.21,1.12-.84,2.45-.84,2.8,0,4.26,1,4.26,2.9S81,89.82,78.67,89.82Zm1.61-3.64c0-.69-.9-.75-1.27-.75s-.43.06-.43.3v1.75c0,.08,0,.14.16.14C79.25,87.62,80.28,86.92,80.28,86.18Z"/><path class="cls-3" d="M90.79,88.79c0,4.5-1.09,6-3.79,6-2.92,0-4.07-1.8-4.07-6.06,0-3.92,1.18-5.55,3.76-5.55C89.44,83.22,90.79,85.11,90.79,88.79Zm-3.86,3.36c1,0,1.19-.46,1.19-3.58,0-2-.2-2.87-1.3-2.87s-1.22.83-1.22,2.75C85.6,91.58,85.83,92.15,86.93,92.15Z"/><path class="cls-3" d="M91.76,89.66V83.88c0-.47.74-.47,1.19-.47s1.36.11,1.36.42v5.92c0,1.68.6,2,1.28,2s1.37-.31,1.37-2V83.86c0-.34.37-.45,1.2-.45.53,0,1.35,0,1.35.29v6.08c0,4.21-1.59,4.84-3.87,4.84S91.76,93.67,91.76,89.66Z"/><path class="cls-3" d="M105,90.63c.06,0,.11-.06.14-.19l1.49-6.8c0-.18.21-.23.41-.23h2.87c.24,0,.27.08.22.23L106.9,94.39a.38.38,0,0,1-.38.23h-2.69c-.16,0-.36-.05-.4-.21l-3.27-10.74c0-.15,0-.26.29-.26h2.93a.28.28,0,0,1,.32.26l1.17,6.77C104.9,90.57,105,90.63,105,90.63Z"/><path class="cls-3" d="M117.86,88.79c0,4.5-1.09,6-3.79,6-2.92,0-4.07-1.8-4.07-6.06,0-3.92,1.19-5.55,3.76-5.55C116.52,83.22,117.86,85.11,117.86,88.79ZM114,92.15c1,0,1.19-.46,1.19-3.58,0-2-.19-2.87-1.3-2.87s-1.22.83-1.22,2.75C112.67,91.58,112.9,92.15,114,92.15Z"/><path class="cls-3" d="M119.59,94.62c-.29,0-.36,0-.36-.16V84.1c0-.37,1.76-.69,3.19-.69.21,0,.27,0,.27.34V94.46c0,.16-.09.16-.43.16Z"/><path class="cls-3" d="M131,94.41c0,.21-.22.21-.34.21h-2.36a.28.28,0,0,1-.26-.15l-1-2.08c-.13-.27-.23-.41-.29-.41s-.11.14-.11.41v2c0,.21-.21.21-.32.21h-2c-.11,0-.27,0-.27-.21,0-.75.13-2.58.13-4.87s-.1-5.42-.1-5.54c0-.4,1.38-.59,2.59-.59,2,0,3.46,1.14,3.46,3A2.54,2.54,0,0,1,127.92,89c-.14,0-.13,0,0,.25C128.29,89.8,131,93.94,131,94.41ZM126.56,87c0,.1,0,.13.19.13A1.37,1.37,0,0,0,128,85.81c0-.48-.41-.67-1.13-.67-.3,0-.35,0-.35.29Z"/><path class="cls-3" d="M131.46,93.7V92.34c0-.56.11-.65.35-.7.88-.16,3.86.34,3.86-1.09,0-1.63-3.89-.72-3.89-3.86,0-2.46,2.41-3.28,4.62-3.28a8.25,8.25,0,0,1,1.44.11c.55.1.68.18.68.71v1c0,.43,0,.64-.63.52a7.47,7.47,0,0,0-1.31-.12c-1.15,0-1.67.4-1.67,1.07,0,1.79,3.57.83,3.57,4.58,0,2.75-1.92,3.34-3.93,3.34a19.45,19.45,0,0,1-2.53-.21C131.57,94.33,131.46,94.23,131.46,93.7Z"/><path class="cls-3" d="M140.9,85.43c-.39-.22-1.35,0-1.35-.3V83.89c0-.48.95-.48,1.2-.48,2.26,0,2.82,3.81,2.82,6.12,0,1.89-.56,5.09-2.82,5.09-.25,0-1.2,0-1.2-.45V92.89c0-.43,1.08,0,1.46-.56.19-.26.35-.91.35-2.8C141.36,87.22,141.44,85.75,140.9,85.43Z"/></svg>