<svg xmlns="http://www.w3.org/2000/svg" width="310.275" height="89" viewBox="0 0 310.275 89">
  <path d="M0,89H236.254a17.338,17.338,0,1,0,0-34.676H218.916a13.571,13.571,0,1,1,0-27.141H269V27A27,27,0,0,0,296,0H0Z" fill="#4f00ec"/>
  <g>
    <path d="M310.275,63.915a4.511,4.511,0,0,1-4.5,4.493H292.9a4.5,4.5,0,1,1,0-8.993h12.873A4.518,4.518,0,0,1,310.275,63.915Z" fill="#4f00ec"/>
    <path d="M293.549,41.4a3.874,3.874,0,0,1-3.866,3.853H248.514a3.915,3.915,0,0,1-2.732-1.127,3.859,3.859,0,0,1,2.732-6.592h41.169a3.87,3.87,0,0,1,3.866,3.866Z" fill="#4f00ec"/>
  </g>
  <g>
    <path d="M28.87,45.338c-.144,0-.216.036-.216.252V55.669c0,.468-.324.468-.576.468H23.4c-.252,0-.611-.036-.611-.468.252-6.767.252-10.475.252-13.211,0-3.239,0-6.407-.252-9.646-.037-.468,2.519-1.872,5.507-1.872,6.3,0,9.575,2.231,9.575,6.515C37.869,41.991,34.161,45.338,28.87,45.338Zm3.6-8.171c0-1.548-2.015-1.692-2.844-1.692-.863,0-.971.144-.971.684v3.924c0,.18.036.324.36.324C30.166,40.407,32.469,38.823,32.469,37.167Z" fill="#fff"/>
    <path d="M56.121,43.034c0,10.115-2.448,13.57-8.531,13.57-6.551,0-9.143-4.031-9.143-13.6,0-8.819,2.663-12.491,8.459-12.491C53.1,30.508,56.121,34.755,56.121,43.034Zm-8.675,7.559c2.231,0,2.663-1.044,2.663-8.063,0-4.571-.432-6.443-2.915-6.443-2.52,0-2.736,1.872-2.736,6.371C44.458,49.3,44.962,50.593,47.446,50.593Z" fill="#fff"/>
    <path d="M58.319,44.978V31.984c0-1.044,1.656-1.044,2.663-1.044,1.332,0,3.06.252,3.06.936V45.194c0,3.78,1.368,4.464,2.88,4.464s3.1-.684,3.1-4.464V31.948c0-.756.827-1.008,2.7-1.008,1.188,0,3.024,0,3.024.648V45.266c0,9.467-3.564,10.871-8.711,10.871S58.319,54.013,58.319,44.978Z" fill="#fff"/>
    <path d="M88.09,47.174c.143,0,.252-.144.324-.432l3.347-15.3c.072-.4.468-.5.936-.5H99.14c.54,0,.612.18.5.5L92.373,55.633a.843.843,0,0,1-.864.5H85.462c-.36,0-.792-.108-.9-.468L77.219,31.516c-.108-.324.036-.576.648-.576h6.587a.636.636,0,0,1,.72.576L87.8,46.742C87.874,47.03,87.981,47.174,88.09,47.174Z" fill="#fff"/>
    <path d="M117.032,43.034c0,10.115-2.448,13.57-8.531,13.57-6.551,0-9.143-4.031-9.143-13.6,0-8.819,2.664-12.491,8.459-12.491C114.009,30.508,117.032,34.755,117.032,43.034Zm-8.675,7.559c2.232,0,2.664-1.044,2.664-8.063,0-4.571-.432-6.443-2.916-6.443-2.519,0-2.735,1.872-2.735,6.371C105.37,49.3,105.874,50.593,108.357,50.593Z" fill="#fff"/>
    <path d="M120.922,56.137c-.648,0-.792,0-.792-.36V32.488c0-.828,3.96-1.548,7.163-1.548.468,0,.612,0,.612.756V55.777c0,.36-.216.36-.971.36Z" fill="#fff"/>
    <path d="M146.552,55.669c0,.468-.5.468-.756.468h-5.327a.637.637,0,0,1-.576-.324l-2.16-4.68c-.287-.612-.5-.936-.648-.936-.179,0-.252.324-.252.936v4.536c0,.468-.467.468-.719.468h-4.536c-.252,0-.612,0-.612-.468,0-1.692.288-5.795.288-10.943,0-5.111-.215-12.2-.215-12.455,0-.9,3.095-1.331,5.831-1.331,4.535,0,7.775,2.556,7.775,6.659a5.7,5.7,0,0,1-4.968,5.939c-.323,0-.288.108.036.576C140.505,45.3,146.552,54.625,146.552,55.669ZM136.618,38.9c0,.216.108.288.432.288a3.062,3.062,0,0,0,2.879-2.844c0-1.08-.9-1.512-2.519-1.512-.684,0-.792.072-.792.648Z" fill="#fff"/>
    <path d="M166.461,35.547a1.644,1.644,0,0,0-1.692,1.08c-.288.972-.36,1.512-.756,1.512H159.8c-.432,0-.72-.216-.72-1.224v-.5c0-2.34,2.124-5.471,7.379-5.471,3.06,0,8.387,0,8.387,5.111,0,3.168-.612,4.679-1.62,6.119-3.023,4.32-5.975,7.127-5.111,7.127h6.335a.95.95,0,0,1,1.044.792v5.58c0,.468-.324.468-.576.468H159.478c-.576,0-1.224-.18-1.224-5.616,0-1.691,1.08-2.015,3.923-4.823,2.664-2.628,6.048-6.3,6.048-8.387A1.68,1.68,0,0,0,166.461,35.547Z" fill="#fff"/>
  </g>
</svg>
