<svg width="112" height="64" viewBox="0 0 112 64" fill="none" xmlns="http://www.w3.org/2000/svg">
<path d="M111.025 13.604H1V62.4851H111.025V13.604Z" fill="white" stroke="#1D1D1B" stroke-width="1.5" stroke-linecap="round" stroke-linejoin="round"/>
<path d="M104.781 22.96H47.4644V53.1285H104.781V22.96Z" fill="#1D1D1B" stroke="#1D1D1B" stroke-width="1.5" stroke-linecap="round" stroke-linejoin="round"/>
<path d="M23.5274 56.5613C33.7539 56.5613 42.0441 48.2711 42.0441 38.0446C42.0441 27.8181 33.7539 19.528 23.5274 19.528C13.3009 19.528 5.01074 27.8181 5.01074 38.0446C5.01074 48.2711 13.3009 56.5613 23.5274 56.5613Z" fill="#FFEE1A" stroke="#1D1D1B" stroke-width="1.5" stroke-linecap="round" stroke-linejoin="round"/>
<path d="M18.7305 38.8801H16.2624C15.9179 38.8875 15.5764 38.8156 15.2641 38.6701C14.9138 38.5132 14.6146 38.2609 14.4008 37.9421C14.1871 37.6233 14.0673 37.2508 14.0552 36.8671C14.0623 36.5218 14.1597 36.1844 14.3377 35.8885C14.5158 35.5926 14.7683 35.3485 15.07 35.1806C15.4242 34.9821 15.8251 34.882 16.231 34.8906H18.8021C19.208 34.882 19.6089 34.9821 19.9631 35.1806C20.2648 35.3486 20.5172 35.5927 20.6951 35.8886C20.8731 36.1845 20.9704 36.5219 20.9773 36.8671C20.9736 37.1425 20.9117 37.4139 20.7956 37.6637C20.6796 37.9135 20.512 38.1358 20.3039 38.3163C19.8669 38.6918 19.3066 38.8926 18.7305 38.8801Z" fill="white" stroke="#1D1D1B" stroke-width="1.5" stroke-linecap="round" stroke-linejoin="round"/>
<path d="M19.0898 38.863C20.1833 38.863 21.0698 37.9765 21.0698 36.883C21.0698 35.7895 20.1833 34.9031 19.0898 34.9031C17.9963 34.9031 17.1099 35.7895 17.1099 36.883C17.1099 37.9765 17.9963 38.863 19.0898 38.863Z" fill="#1D1D1B"/>
<path d="M31.5697 38.88H29.0998C28.7553 38.8874 28.4138 38.8155 28.1015 38.6699C27.7512 38.513 27.452 38.2608 27.2382 37.942C27.0245 37.6231 26.9047 37.2507 26.8926 36.867C26.8997 36.5217 26.9971 36.1843 27.1751 35.8884C27.3532 35.5925 27.6057 35.3484 27.9074 35.1805C28.2616 34.982 28.6625 34.8819 29.0684 34.8905H31.6395C32.0454 34.8819 32.4463 34.982 32.8005 35.1805C33.1022 35.3484 33.3546 35.5926 33.5325 35.8885C33.7105 36.1844 33.8078 36.5218 33.8147 36.867C33.811 37.1424 33.7491 37.4138 33.633 37.6636C33.517 37.9133 33.3494 38.1357 33.1413 38.3161C32.7048 38.6913 32.1451 38.892 31.5697 38.88Z" fill="white" stroke="#1D1D1B" stroke-width="1.5" stroke-linecap="round" stroke-linejoin="round"/>
<path d="M31.9282 38.863C33.0217 38.863 33.9082 37.9765 33.9082 36.883C33.9082 35.7895 33.0217 34.9031 31.9282 34.9031C30.8347 34.9031 29.9482 35.7895 29.9482 36.883C29.9482 37.9765 30.8347 38.863 31.9282 38.863Z" fill="#1D1D1B"/>
<path d="M63.9988 7.302H46.6064V13.604H63.9988V7.302Z" fill="white" stroke="#1D1D1B" stroke-width="1.5" stroke-linecap="round" stroke-linejoin="round"/>
<path d="M63.9988 7.302H46.6064V10.453H63.9988V7.302Z" fill="#1D1D1B" stroke="#1D1D1B" stroke-width="1.5" stroke-linecap="round" stroke-linejoin="round"/>
<path d="M68.5608 1H42.0444V7.30201H68.5608V1Z" fill="white" stroke="#1D1D1B" stroke-width="1.5" stroke-linecap="round" stroke-linejoin="round"/>
</svg>
