<svg width="112" height="60" viewBox="0 0 112 60" fill="none" xmlns="http://www.w3.org/2000/svg">
<path d="M63.9988 7.302H46.6064V13.604H63.9988V7.302Z" fill="white" stroke="#1D1D1B" stroke-width="1.5" stroke-linecap="round" stroke-linejoin="round"/>
<path d="M63.9988 7.302H46.6064V10.453H63.9988V7.302Z" fill="#1D1D1B" stroke="#1D1D1B" stroke-width="1.5" stroke-linecap="round" stroke-linejoin="round"/>
<path d="M68.5608 1H42.0444V7.30201H68.5608V1Z" fill="white" stroke="#1D1D1B" stroke-width="1.5" stroke-linecap="round" stroke-linejoin="round"/>
<path d="M111.025 9.604H1V58.4851H111.025V9.604Z" fill="white" stroke="#1D1D1B" stroke-width="1.5" stroke-linecap="round" stroke-linejoin="round"/>
<path d="M104.781 18.96H47.4644V49.1285H104.781V18.96Z" fill="#1D1D1B" stroke="#1D1D1B" stroke-width="1.5" stroke-linecap="round" stroke-linejoin="round"/>
<path d="M23.5274 52.5613C33.7539 52.5613 42.0441 44.2711 42.0441 34.0446C42.0441 23.8181 33.7539 15.528 23.5274 15.528C13.3009 15.528 5.01074 23.8181 5.01074 34.0446C5.01074 44.2711 13.3009 52.5613 23.5274 52.5613Z" fill="#FFEE1A" stroke="#1D1D1B" stroke-width="1.5" stroke-linecap="round" stroke-linejoin="round"/>
<path d="M18.7305 34.8801H16.2624C15.9179 34.8875 15.5764 34.8156 15.2641 34.6701C14.9138 34.5132 14.6146 34.2609 14.4008 33.9421C14.1871 33.6233 14.0673 33.2508 14.0552 32.8671C14.0623 32.5218 14.1597 32.1844 14.3377 31.8885C14.5158 31.5926 14.7683 31.3485 15.07 31.1806C15.4242 30.9821 15.8251 30.882 16.231 30.8906H18.8021C19.208 30.882 19.6089 30.9821 19.9631 31.1806C20.2648 31.3486 20.5172 31.5927 20.6951 31.8886C20.8731 32.1845 20.9704 32.5219 20.9773 32.8671C20.9736 33.1425 20.9117 33.4139 20.7956 33.6637C20.6796 33.9135 20.512 34.1358 20.3039 34.3163C19.8669 34.6918 19.3066 34.8926 18.7305 34.8801Z" fill="white" stroke="#1D1D1B" stroke-width="1.5" stroke-linecap="round" stroke-linejoin="round"/>
<path d="M19.0898 34.863C20.1833 34.863 21.0698 33.9765 21.0698 32.883C21.0698 31.7895 20.1833 30.9031 19.0898 30.9031C17.9963 30.9031 17.1099 31.7895 17.1099 32.883C17.1099 33.9765 17.9963 34.863 19.0898 34.863Z" fill="#1D1D1B"/>
<path d="M31.5697 34.88H29.0998C28.7553 34.8874 28.4138 34.8155 28.1015 34.6699C27.7512 34.513 27.452 34.2608 27.2382 33.942C27.0245 33.6231 26.9047 33.2507 26.8926 32.867C26.8997 32.5217 26.9971 32.1843 27.1751 31.8884C27.3532 31.5925 27.6057 31.3484 27.9074 31.1805C28.2616 30.982 28.6625 30.8819 29.0684 30.8905H31.6395C32.0454 30.8819 32.4463 30.982 32.8005 31.1805C33.1022 31.3484 33.3546 31.5926 33.5325 31.8885C33.7105 32.1844 33.8078 32.5218 33.8147 32.867C33.811 33.1424 33.7491 33.4138 33.633 33.6636C33.517 33.9133 33.3494 34.1357 33.1413 34.3161C32.7048 34.6913 32.1451 34.892 31.5697 34.88Z" fill="white" stroke="#1D1D1B" stroke-width="1.5" stroke-linecap="round" stroke-linejoin="round"/>
<path d="M31.9282 34.863C33.0217 34.863 33.9082 33.9765 33.9082 32.883C33.9082 31.7895 33.0217 30.9031 31.9282 30.9031C30.8347 30.9031 29.9482 31.7895 29.9482 32.883C29.9482 33.9765 30.8347 34.863 31.9282 34.863Z" fill="#1D1D1B"/>
</svg>
