<svg width="112" height="60" viewBox="0 0 112 60" fill="none" xmlns="http://www.w3.org/2000/svg">
<path d="M63.9988 7.302H46.6064V13.604H63.9988V7.302Z" fill="white" stroke="#1D1D1B" stroke-width="1.5" stroke-linecap="round" stroke-linejoin="round"/>
<path d="M63.9988 7.302H46.6064V10.453H63.9988V7.302Z" fill="#1D1D1B" stroke="#1D1D1B" stroke-width="1.5" stroke-linecap="round" stroke-linejoin="round"/>
<path d="M68.5608 1H42.0444V7.30201H68.5608V1Z" fill="white" stroke="#1D1D1B" stroke-width="1.5" stroke-linecap="round" stroke-linejoin="round"/>
<path d="M111.025 9.604H1V58.4851H111.025V9.604Z" fill="white" stroke="#1D1D1B" stroke-width="1.5" stroke-linecap="round" stroke-linejoin="round"/>
<path d="M104.781 18.96H47.4644V49.1285H104.781V18.96Z" fill="#1D1D1B" stroke="#1D1D1B" stroke-width="1.5" stroke-linecap="round" stroke-linejoin="round"/>
<path d="M40.2387 44.1172V25.0289L23.6258 15.4848L7.0127 25.0289V44.1172L23.6258 53.6613L40.2387 44.1172Z" fill="#3154FF" stroke="black" stroke-width="1.5" stroke-miterlimit="10"/>
<path d="M20.2681 33.9686V36.0875C20.2742 36.3829 20.2121 36.6758 20.0867 36.9436C19.9513 37.2443 19.7336 37.5011 19.4585 37.6845C19.1834 37.8679 18.862 37.9705 18.531 37.9807C18.2332 37.9749 17.9421 37.8914 17.6868 37.7387C17.4314 37.586 17.2208 37.3694 17.0758 37.1104C16.9048 36.8065 16.8186 36.4627 16.8261 36.1145V33.9087C16.8185 33.5605 16.9047 33.2166 17.0758 32.9128C17.2208 32.6538 17.4314 32.4372 17.6868 32.2845C17.9421 32.1318 18.2332 32.0483 18.531 32.0425C18.7685 32.0457 19.0026 32.0988 19.218 32.1984C19.4333 32.298 19.625 32.4419 19.7805 32.6205C20.1046 32.9946 20.2782 33.4748 20.2681 33.9686Z" fill="white" stroke="#1D1D1B" stroke-width="1.5" stroke-linecap="round" stroke-linejoin="round"/>
<path d="M18.5458 35.3593C19.4885 35.3593 20.2527 34.5988 20.2527 33.6608C20.2527 32.7228 19.4885 31.9623 18.5458 31.9623C17.6031 31.9623 16.8389 32.7228 16.8389 33.6608C16.8389 34.5988 17.6031 35.3593 18.5458 35.3593Z" fill="#1D1D1B"/>
<path d="M29.8857 33.9686V36.0875C29.8919 36.3829 29.8299 36.6759 29.7043 36.9436C29.5691 37.2442 29.3516 37.5008 29.0768 37.6842C28.8019 37.8676 28.4807 37.9704 28.1499 37.9807C27.8521 37.9749 27.561 37.8914 27.3056 37.7387C27.0503 37.586 26.8397 37.3694 26.6947 37.1104C26.5232 36.8067 26.4366 36.4628 26.4438 36.1145V33.9087C26.4365 33.5604 26.5232 33.2165 26.6947 32.9128C26.8397 32.6538 27.0503 32.4372 27.3056 32.2845C27.561 32.1318 27.8521 32.0483 28.1499 32.0425C28.3874 32.0457 28.6215 32.0988 28.8368 32.1984C29.0522 32.2981 29.2439 32.4419 29.3994 32.6205C29.723 32.9949 29.8961 33.475 29.8857 33.9686Z" fill="white" stroke="#1D1D1B" stroke-width="1.5" stroke-linecap="round" stroke-linejoin="round"/>
<path d="M28.1634 35.3593C29.1061 35.3593 29.8703 34.5988 29.8703 33.6608C29.8703 32.7228 29.1061 31.9623 28.1634 31.9623C27.2207 31.9623 26.4565 32.7228 26.4565 33.6608C26.4565 34.5988 27.2207 35.3593 28.1634 35.3593Z" fill="#1D1D1B"/>
</svg>
