<svg width="112" height="64" viewBox="0 0 112 64" fill="none" xmlns="http://www.w3.org/2000/svg">
<path d="M111.025 13.604H1V62.4851H111.025V13.604Z" fill="white" stroke="#1D1D1B" stroke-width="1.5" stroke-linecap="round" stroke-linejoin="round"/>
<path d="M104.781 22.96H47.4644V53.1285H104.781V22.96Z" fill="#1D1D1B" stroke="#1D1D1B" stroke-width="1.5" stroke-linecap="round" stroke-linejoin="round"/>
<path d="M63.9988 7.302H46.6064V13.604H63.9988V7.302Z" fill="white" stroke="#1D1D1B" stroke-width="1.5" stroke-linecap="round" stroke-linejoin="round"/>
<path d="M63.9988 7.302H46.6064V10.453H63.9988V7.302Z" fill="#1D1D1B" stroke="#1D1D1B" stroke-width="1.5" stroke-linecap="round" stroke-linejoin="round"/>
<path d="M68.5608 1H42.0444V7.30201H68.5608V1Z" fill="white" stroke="#1D1D1B" stroke-width="1.5" stroke-linecap="round" stroke-linejoin="round"/>
<path d="M40.2387 48.1172V29.0289L23.6258 19.4848L7.0127 29.0289V48.1172L23.6258 57.6613L40.2387 48.1172Z" fill="#3154FF" stroke="black" stroke-width="1.5" stroke-miterlimit="10"/>
<path d="M20.2681 37.9686V40.0875C20.2742 40.3829 20.2121 40.6758 20.0867 40.9436C19.9513 41.2443 19.7336 41.5011 19.4585 41.6845C19.1834 41.8679 18.862 41.9705 18.531 41.9807C18.2332 41.9749 17.9421 41.8914 17.6868 41.7387C17.4314 41.586 17.2208 41.3694 17.0758 41.1104C16.9048 40.8065 16.8186 40.4627 16.8261 40.1145V37.9087C16.8185 37.5605 16.9047 37.2166 17.0758 36.9128C17.2208 36.6538 17.4314 36.4372 17.6868 36.2845C17.9421 36.1318 18.2332 36.0483 18.531 36.0425C18.7685 36.0457 19.0026 36.0988 19.218 36.1984C19.4333 36.298 19.625 36.4419 19.7805 36.6205C20.1046 36.9946 20.2782 37.4748 20.2681 37.9686Z" fill="white" stroke="#1D1D1B" stroke-width="1.5" stroke-linecap="round" stroke-linejoin="round"/>
<path d="M18.5458 39.3593C19.4885 39.3593 20.2527 38.5988 20.2527 37.6608C20.2527 36.7228 19.4885 35.9623 18.5458 35.9623C17.6031 35.9623 16.8389 36.7228 16.8389 37.6608C16.8389 38.5988 17.6031 39.3593 18.5458 39.3593Z" fill="#1D1D1B"/>
<path d="M29.8857 37.9686V40.0875C29.8919 40.3829 29.8299 40.6759 29.7043 40.9436C29.5691 41.2442 29.3516 41.5008 29.0768 41.6842C28.8019 41.8676 28.4807 41.9704 28.1499 41.9807C27.8521 41.9749 27.561 41.8914 27.3056 41.7387C27.0503 41.586 26.8397 41.3694 26.6947 41.1104C26.5232 40.8067 26.4366 40.4628 26.4438 40.1145V37.9087C26.4365 37.5604 26.5232 37.2165 26.6947 36.9128C26.8397 36.6538 27.0503 36.4372 27.3056 36.2845C27.561 36.1318 27.8521 36.0483 28.1499 36.0425C28.3874 36.0457 28.6215 36.0988 28.8368 36.1984C29.0522 36.2981 29.2439 36.4419 29.3994 36.6205C29.723 36.9949 29.8961 37.475 29.8857 37.9686Z" fill="white" stroke="#1D1D1B" stroke-width="1.5" stroke-linecap="round" stroke-linejoin="round"/>
<path d="M28.1634 39.3593C29.1061 39.3593 29.8703 38.5988 29.8703 37.6608C29.8703 36.7228 29.1061 35.9623 28.1634 35.9623C27.2207 35.9623 26.4565 36.7228 26.4565 37.6608C26.4565 38.5988 27.2207 39.3593 28.1634 39.3593Z" fill="#1D1D1B"/>
</svg>
