<svg width="112" height="64" viewBox="0 0 112 64" fill="none" xmlns="http://www.w3.org/2000/svg">
<path d="M111.025 13.51H1V62.3911H111.025V13.51Z" fill="white" stroke="#1D1D1B" stroke-width="1.5" stroke-linecap="round" stroke-linejoin="round"/>
<path d="M104.781 22.866H47.4644V53.0345H104.781V22.866Z" fill="#1D1D1B" stroke="#1D1D1B" stroke-width="1.5" stroke-linecap="round" stroke-linejoin="round"/>
<path d="M63.9988 7.20801H46.6064V13.51H63.9988V7.20801Z" fill="white" stroke="#1D1D1B" stroke-width="1.5" stroke-linecap="round" stroke-linejoin="round"/>
<path d="M63.9988 7.20801H46.6064V10.359H63.9988V7.20801Z" fill="#1D1D1B" stroke="#1D1D1B" stroke-width="1.5" stroke-linecap="round" stroke-linejoin="round"/>
<path d="M68.5608 0.906006H42.0444V7.20801H68.5608V0.906006Z" fill="white" stroke="#1D1D1B" stroke-width="1.5" stroke-linecap="round" stroke-linejoin="round"/>
<path d="M23.7571 60C21.4388 59.9974 19.2161 59.1021 17.5768 57.5104C15.9375 55.9188 15.0153 53.7607 15.0127 51.5097V24.4903C15.0127 22.2385 15.934 20.079 17.5739 18.4867C19.2138 16.8945 21.438 16 23.7571 16C26.0763 16 28.3005 16.8945 29.9404 18.4867C31.5803 20.079 32.5016 22.2385 32.5016 24.4903V51.5097C32.499 53.7607 31.5769 55.9188 29.9375 57.5105C28.2982 59.1022 26.0755 59.9975 23.7571 60Z" fill="#89F798" stroke="#1D1D1B" stroke-width="1.5" stroke-linecap="round" stroke-linejoin="round"/>
<path d="M22.8556 43.2229C22.8556 42.1312 22.058 41.2461 21.0741 41.2461C20.0901 41.2461 19.2935 42.1312 19.2935 43.2229C19.2935 44.3147 20.1602 45.3087 21.0741 44.9571C22.3808 44.4548 22.8556 44.3147 22.8556 43.2229Z" fill="white" stroke="#1D1D1B" stroke-width="1.5" stroke-linecap="round" stroke-linejoin="round"/>
<path d="M21.5191 44.7983C22.2448 44.7983 22.8331 44.2271 22.8331 43.5225C22.8331 42.8179 22.2448 42.2467 21.5191 42.2467C20.7934 42.2467 20.2051 42.8179 20.2051 43.5225C20.2051 44.2271 20.7934 44.7983 21.5191 44.7983Z" fill="#1D1D1B"/>
<path d="M25.271 43.2229C25.271 42.1312 26.0686 41.2461 27.0516 41.2461C28.0345 41.2461 28.8322 42.1312 28.8322 43.2229C28.8322 44.3147 27.9656 45.3087 27.0516 44.9571C25.7458 44.4548 25.271 44.3147 25.271 43.2229Z" fill="white" stroke="#1D1D1B" stroke-width="1.5" stroke-linecap="round" stroke-linejoin="round"/>
<path d="M26.5835 44.7983C27.3092 44.7983 27.8975 44.2271 27.8975 43.5225C27.8975 42.8179 27.3092 42.2467 26.5835 42.2467C25.8578 42.2467 25.2695 42.8179 25.2695 43.5225C25.2695 44.2271 25.8578 44.7983 26.5835 44.7983Z" fill="#1D1D1B"/>
</svg>
