<svg width="112" height="60" viewBox="0 0 112 60" fill="none" xmlns="http://www.w3.org/2000/svg">
<path d="M63.9988 7.302H46.6064V13.604H63.9988V7.302Z" fill="white" stroke="#1D1D1B" stroke-width="1.5" stroke-linecap="round" stroke-linejoin="round"/>
<path d="M63.9988 7.302H46.6064V10.453H63.9988V7.302Z" fill="#1D1D1B" stroke="#1D1D1B" stroke-width="1.5" stroke-linecap="round" stroke-linejoin="round"/>
<path d="M68.5608 1H42.0444V7.30201H68.5608V1Z" fill="white" stroke="#1D1D1B" stroke-width="1.5" stroke-linecap="round" stroke-linejoin="round"/>
<path d="M111.025 9.604H1V58.4851H111.025V9.604Z" fill="white" stroke="#1D1D1B" stroke-width="1.5" stroke-linecap="round" stroke-linejoin="round"/>
<path d="M104.781 18.96H47.4644V49.1285H104.781V18.96Z" fill="#1D1D1B" stroke="#1D1D1B" stroke-width="1.5" stroke-linecap="round" stroke-linejoin="round"/>
<path d="M23.7571 56C21.4388 55.9974 19.2161 55.104 17.5768 53.5158C15.9375 51.9275 15.0153 49.774 15.0127 47.5279V20.5661C15.0127 18.3192 15.934 16.1643 17.5739 14.5754C19.2138 12.9866 21.438 12.094 23.7571 12.094C26.0763 12.094 28.3005 12.9866 29.9404 14.5754C31.5803 16.1643 32.5016 18.3192 32.5016 20.5661V47.5279C32.499 49.7741 31.5769 51.9275 29.9375 53.5158C28.2982 55.1041 26.0755 55.9975 23.7571 56Z" fill="#89F798" stroke="#1D1D1B" stroke-width="1.5" stroke-linecap="round" stroke-linejoin="round"/>
<path d="M22.8556 39.2587C22.8556 38.1693 22.058 37.2861 21.0741 37.2861C20.0901 37.2861 19.2935 38.1693 19.2935 39.2587C19.2935 40.3482 20.1602 41.34 21.0741 40.9893C22.3808 40.488 22.8556 40.3482 22.8556 39.2587Z" fill="white" stroke="#1D1D1B" stroke-width="1.5" stroke-linecap="round" stroke-linejoin="round"/>
<path d="M21.5191 40.8308C22.2448 40.8308 22.8331 40.2608 22.8331 39.5577C22.8331 38.8546 22.2448 38.2847 21.5191 38.2847C20.7934 38.2847 20.2051 38.8546 20.2051 39.5577C20.2051 40.2608 20.7934 40.8308 21.5191 40.8308Z" fill="#1D1D1B"/>
<path d="M25.271 39.2587C25.271 38.1693 26.0686 37.2861 27.0516 37.2861C28.0345 37.2861 28.8322 38.1693 28.8322 39.2587C28.8322 40.3482 27.9656 41.34 27.0516 40.9893C25.7458 40.488 25.271 40.3482 25.271 39.2587Z" fill="white" stroke="#1D1D1B" stroke-width="1.5" stroke-linecap="round" stroke-linejoin="round"/>
<path d="M26.5835 40.8308C27.3092 40.8308 27.8975 40.2608 27.8975 39.5577C27.8975 38.8546 27.3092 38.2847 26.5835 38.2847C25.8578 38.2847 25.2695 38.8546 25.2695 39.5577C25.2695 40.2608 25.8578 40.8308 26.5835 40.8308Z" fill="#1D1D1B"/>
</svg>
