<svg width="112" height="60" viewBox="0 0 112 60" fill="none" xmlns="http://www.w3.org/2000/svg">
<path d="M63.9988 7.302H46.6064V13.604H63.9988V7.302Z" fill="white" stroke="#1D1D1B" stroke-width="1.5" stroke-linecap="round" stroke-linejoin="round"/>
<path d="M63.9988 7.302H46.6064V10.453H63.9988V7.302Z" fill="#1D1D1B" stroke="#1D1D1B" stroke-width="1.5" stroke-linecap="round" stroke-linejoin="round"/>
<path d="M68.5608 1H42.0444V7.30201H68.5608V1Z" fill="white" stroke="#1D1D1B" stroke-width="1.5" stroke-linecap="round" stroke-linejoin="round"/>
<path d="M111.025 9.604H1V58.4851H111.025V9.604Z" fill="white" stroke="#1D1D1B" stroke-width="1.5" stroke-linecap="round" stroke-linejoin="round"/>
<path d="M104.781 18.96H47.4644V49.1285H104.781V18.96Z" fill="#1D1D1B" stroke="#1D1D1B" stroke-width="1.5" stroke-linecap="round" stroke-linejoin="round"/>
<path d="M39.2858 51.7254H8.98808C8.34901 51.7247 7.73633 51.4717 7.28444 51.0221C6.83255 50.5724 6.57837 49.9628 6.57764 49.3269V19.1785C6.57883 18.5429 6.83323 17.9337 7.28507 17.4844C7.7369 17.0352 8.34932 16.7825 8.98808 16.7817H39.2858C39.9248 16.7825 40.5374 17.0355 40.9892 17.485C41.441 17.9346 41.6952 18.5442 41.696 19.18V49.3279C41.695 49.9636 41.4407 50.5729 40.9889 51.0223C40.5371 51.4718 39.9247 51.7246 39.2858 51.7254Z" fill="#FF2E3F" stroke="black" stroke-width="1.5" stroke-miterlimit="10"/>
<path d="M20.2388 38.7793C20.2388 37.313 21.284 36.1244 22.5722 36.1244C23.8603 36.1244 24.9068 37.313 24.9068 38.7793C24.9068 40.2456 23.771 41.5805 22.5722 41.1084C20.861 40.4338 20.2388 40.2456 20.2388 38.7793Z" fill="white" stroke="#1D1D1B" stroke-width="1.5" stroke-linecap="round" stroke-linejoin="round"/>
<path d="M23.0872 39.6841C24.0624 39.6841 24.853 38.8974 24.853 37.9269C24.853 36.9565 24.0624 36.1698 23.0872 36.1698C22.1119 36.1698 21.3213 36.9565 21.3213 37.9269C21.3213 38.8974 22.1119 39.6841 23.0872 39.6841Z" fill="#1D1D1B"/>
<path d="M32.7413 38.7793C32.7413 37.313 31.6961 36.1244 30.4079 36.1244C29.1198 36.1244 28.0732 37.313 28.0732 38.7793C28.0732 40.2456 29.2091 41.5805 30.4079 41.1084C32.1191 40.4338 32.7413 40.2456 32.7413 38.7793Z" fill="white" stroke="#1D1D1B" stroke-width="1.5" stroke-linecap="round" stroke-linejoin="round"/>
<path d="M30.7434 39.6841C31.7187 39.6841 32.5093 38.8974 32.5093 37.9269C32.5093 36.9565 31.7187 36.1698 30.7434 36.1698C29.7681 36.1698 28.9775 36.9565 28.9775 37.9269C28.9775 38.8974 29.7681 39.6841 30.7434 39.6841Z" fill="#1D1D1B"/>
</svg>
