<svg width="112" height="64" viewBox="0 0 112 64" fill="none" xmlns="http://www.w3.org/2000/svg">
<path d="M111.025 13.8223H1V62.7034H111.025V13.8223Z" fill="white" stroke="#1D1D1B" stroke-width="1.5" stroke-linecap="round" stroke-linejoin="round"/>
<path d="M104.781 23.1782H47.4644V53.3468H104.781V23.1782Z" fill="#1D1D1B" stroke="#1D1D1B" stroke-width="1.5" stroke-linecap="round" stroke-linejoin="round"/>
<path d="M63.9988 7.52026H46.6064V13.8223H63.9988V7.52026Z" fill="white" stroke="#1D1D1B" stroke-width="1.5" stroke-linecap="round" stroke-linejoin="round"/>
<path d="M63.9988 7.52026H46.6064V10.6713H63.9988V7.52026Z" fill="#1D1D1B" stroke="#1D1D1B" stroke-width="1.5" stroke-linecap="round" stroke-linejoin="round"/>
<path d="M68.5608 1.21826H42.0444V7.52027H68.5608V1.21826Z" fill="white" stroke="#1D1D1B" stroke-width="1.5" stroke-linecap="round" stroke-linejoin="round"/>
<path d="M39.2858 55.9436H8.98808C8.34901 55.9429 7.73633 55.69 7.28444 55.2403C6.83255 54.7907 6.57837 54.181 6.57764 53.5451V23.3968C6.57883 22.7612 6.83323 22.152 7.28507 21.7027C7.7369 21.2534 8.34932 21.0007 8.98808 21H39.2858C39.9248 21.0008 40.5374 21.2537 40.9892 21.7033C41.441 22.1529 41.6952 22.7625 41.696 23.3983V53.5461C41.695 54.1818 41.4407 54.7912 40.9889 55.2406C40.5371 55.69 39.9247 55.9429 39.2858 55.9436Z" fill="#FF2E3F" stroke="black" stroke-width="1.5" stroke-miterlimit="10"/>
<path d="M20.2388 42.9976C20.2388 41.5313 21.284 40.3427 22.5722 40.3427C23.8603 40.3427 24.9068 41.5313 24.9068 42.9976C24.9068 44.4639 23.771 45.7988 22.5722 45.3267C20.861 44.6521 20.2388 44.4639 20.2388 42.9976Z" fill="white" stroke="#1D1D1B" stroke-width="1.5" stroke-linecap="round" stroke-linejoin="round"/>
<path d="M23.0872 43.9023C24.0624 43.9023 24.853 43.1156 24.853 42.1452C24.853 41.1748 24.0624 40.3881 23.0872 40.3881C22.1119 40.3881 21.3213 41.1748 21.3213 42.1452C21.3213 43.1156 22.1119 43.9023 23.0872 43.9023Z" fill="#1D1D1B"/>
<path d="M32.7413 42.9976C32.7413 41.5313 31.6961 40.3427 30.4079 40.3427C29.1198 40.3427 28.0732 41.5313 28.0732 42.9976C28.0732 44.4639 29.2091 45.7988 30.4079 45.3267C32.1191 44.6521 32.7413 44.4639 32.7413 42.9976Z" fill="white" stroke="#1D1D1B" stroke-width="1.5" stroke-linecap="round" stroke-linejoin="round"/>
<path d="M30.7434 43.9023C31.7187 43.9023 32.5093 43.1156 32.5093 42.1452C32.5093 41.1748 31.7187 40.3881 30.7434 40.3881C29.7681 40.3881 28.9775 41.1748 28.9775 42.1452C28.9775 43.1156 29.7681 43.9023 30.7434 43.9023Z" fill="#1D1D1B"/>
</svg>
