<svg width="112" height="60" viewBox="0 0 112 60" fill="none" xmlns="http://www.w3.org/2000/svg">
<path d="M63.9988 7.302H46.6064V13.604H63.9988V7.302Z" fill="white" stroke="#1D1D1B" stroke-width="1.5" stroke-linecap="round" stroke-linejoin="round"/>
<path d="M63.9988 7.302H46.6064V10.453H63.9988V7.302Z" fill="#1D1D1B" stroke="#1D1D1B" stroke-width="1.5" stroke-linecap="round" stroke-linejoin="round"/>
<path d="M68.5608 1H42.0444V7.30201H68.5608V1Z" fill="white" stroke="#1D1D1B" stroke-width="1.5" stroke-linecap="round" stroke-linejoin="round"/>
<path d="M111.025 9.604H1V58.4851H111.025V9.604Z" fill="white" stroke="#1D1D1B" stroke-width="1.5" stroke-linecap="round" stroke-linejoin="round"/>
<path d="M104.781 18.96H47.4644V49.1285H104.781V18.96Z" fill="#1D1D1B" stroke="#1D1D1B" stroke-width="1.5" stroke-linecap="round" stroke-linejoin="round"/>
<path d="M39.1647 48.4759H7.77528C7.27962 48.4759 6.79264 48.3465 6.36299 48.1006C5.93333 47.8547 5.57606 47.5009 5.32686 47.0746C5.07766 46.6483 4.94527 46.1643 4.9429 45.6711C4.94054 45.1779 5.06831 44.6928 5.31341 44.2641L21.0083 16.8158C21.2555 16.3831 21.6136 16.0233 22.046 15.773C22.4784 15.5227 22.9698 15.3909 23.47 15.3909C23.9703 15.3909 24.4616 15.5227 24.894 15.773C25.3264 16.0233 25.6845 16.3831 25.9318 16.8158L41.6266 44.2641C41.8717 44.6928 41.9995 45.1779 41.9971 45.6711C41.9947 46.1643 41.8623 46.6483 41.6131 47.0746C41.3639 47.5009 41.0067 47.8547 40.577 48.1006C40.1474 48.3465 39.6604 48.4759 39.1647 48.4759Z" fill="#7352FF" stroke="black" stroke-width="1.5" stroke-miterlimit="10"/>
<path d="M18.597 38.731H18.532C18.0696 38.7353 17.6116 38.6418 17.1882 38.4567C16.7649 38.2716 16.3858 37.9992 16.0762 37.6575C15.9777 37.548 15.9021 37.4201 15.8537 37.2813C15.8052 37.1424 15.785 36.9954 15.7941 36.8488C15.8033 36.7021 15.8416 36.5587 15.9068 36.4269C15.9721 36.2951 16.063 36.1775 16.1743 36.0809C16.2856 35.9844 16.4151 35.9108 16.5552 35.8644C16.6953 35.818 16.8433 35.7998 16.9906 35.8107C17.1378 35.8217 17.2814 35.8617 17.413 35.9283C17.5446 35.9949 17.6616 36.0869 17.7572 36.1989C17.8634 36.304 17.9902 36.3861 18.1298 36.4401C18.2693 36.494 18.4186 36.5187 18.5682 36.5125C19.0419 36.5297 19.5043 36.3664 19.8611 36.0559C19.9609 35.9492 20.0808 35.8631 20.214 35.8026C20.3473 35.742 20.4912 35.7082 20.6376 35.703C20.7839 35.6978 20.9299 35.7213 21.0671 35.7722C21.2044 35.8232 21.3302 35.9005 21.4374 35.9998C21.5446 36.0991 21.6311 36.2185 21.6919 36.351C21.7528 36.4836 21.7868 36.6268 21.792 36.7725C21.7972 36.9181 21.7736 37.0634 21.7224 37.1999C21.6712 37.3365 21.5935 37.4617 21.4937 37.5683C20.7206 38.3218 19.6791 38.7398 18.597 38.731Z" fill="white" stroke="#1D1D1B" stroke-width="1.5" stroke-linecap="round" stroke-linejoin="round"/>
<path d="M20.6101 38.0734C21.2655 38.0734 21.7969 37.5447 21.7969 36.8925C21.7969 36.2403 21.2655 35.7115 20.6101 35.7115C19.9547 35.7115 19.4233 36.2403 19.4233 36.8925C19.4233 37.5447 19.9547 38.0734 20.6101 38.0734Z" fill="#1D1D1B"/>
<path d="M28.15 38.731H28.085C27.6226 38.7353 27.1645 38.6418 26.7412 38.4567C26.3178 38.2716 25.9388 37.9992 25.6291 37.6575C25.5286 37.5483 25.451 37.4202 25.4009 37.2807C25.3509 37.1413 25.3294 36.9933 25.3377 36.8454C25.346 36.6976 25.384 36.5528 25.4493 36.4198C25.5147 36.2868 25.6062 36.1681 25.7183 36.0708C25.8305 35.9735 25.9611 35.8995 26.1025 35.8531C26.2438 35.8068 26.3931 35.7891 26.5414 35.801C26.6897 35.813 26.8342 35.8543 26.9662 35.9227C27.0983 35.991 27.2152 36.0849 27.3102 36.1989C27.4162 36.304 27.543 36.3861 27.6825 36.4401C27.8221 36.4941 27.9713 36.5187 28.1209 36.5125C28.5946 36.5297 29.057 36.3664 29.4138 36.0559C29.5136 35.9492 29.6335 35.8631 29.7668 35.8026C29.9 35.742 30.0439 35.7082 30.1903 35.703C30.3366 35.6978 30.4826 35.7213 30.6198 35.7722C30.7571 35.8232 30.8829 35.9005 30.9901 35.9998C31.0973 36.0991 31.1838 36.2185 31.2446 36.351C31.3055 36.4836 31.3395 36.6268 31.3447 36.7725C31.3499 36.9181 31.3263 37.0634 31.2751 37.1999C31.2239 37.3365 31.1462 37.4617 31.0464 37.5683C30.2734 38.3217 29.232 38.7398 28.15 38.731Z" fill="white" stroke="#1D1D1B" stroke-width="1.5" stroke-linecap="round" stroke-linejoin="round"/>
<path d="M30.2649 38.0734C30.9204 38.0734 31.4517 37.5447 31.4517 36.8925C31.4517 36.2403 30.9204 35.7115 30.2649 35.7115C29.6095 35.7115 29.0781 36.2403 29.0781 36.8925C29.0781 37.5447 29.6095 38.0734 30.2649 38.0734Z" fill="#1D1D1B"/>
</svg>
