<svg width="112" height="64" viewBox="0 0 112 64" fill="none" xmlns="http://www.w3.org/2000/svg">
<path d="M111.025 14.2131H1V63.0942H111.025V14.2131Z" fill="white" stroke="#1D1D1B" stroke-width="1.5" stroke-linecap="round" stroke-linejoin="round"/>
<path d="M104.781 23.5691H47.4644V53.7377H104.781V23.5691Z" fill="#1D1D1B" stroke="#1D1D1B" stroke-width="1.5" stroke-linecap="round" stroke-linejoin="round"/>
<path d="M63.9988 7.91113H46.6064V14.2131H63.9988V7.91113Z" fill="white" stroke="#1D1D1B" stroke-width="1.5" stroke-linecap="round" stroke-linejoin="round"/>
<path d="M63.9988 7.91113H46.6064V11.0621H63.9988V7.91113Z" fill="#1D1D1B" stroke="#1D1D1B" stroke-width="1.5" stroke-linecap="round" stroke-linejoin="round"/>
<path d="M68.5608 1.60913H42.0444V7.91114H68.5608V1.60913Z" fill="white" stroke="#1D1D1B" stroke-width="1.5" stroke-linecap="round" stroke-linejoin="round"/>
<path d="M39.1647 53.085H7.77528C7.27962 53.0851 6.79264 52.9557 6.36299 52.7098C5.93333 52.4639 5.57606 52.1101 5.32686 51.6837C5.07766 51.2574 4.94527 50.7735 4.9429 50.2803C4.94054 49.7871 5.06831 49.3019 5.31341 48.8732L21.0083 21.425C21.2555 20.9923 21.6136 20.6324 22.046 20.3821C22.4784 20.1318 22.9698 20 23.47 20C23.9703 20 24.4616 20.1318 24.894 20.3821C25.3264 20.6324 25.6845 20.9923 25.9318 21.425L41.6266 48.8732C41.8717 49.3019 41.9995 49.7871 41.9971 50.2803C41.9947 50.7735 41.8623 51.2574 41.6131 51.6837C41.3639 52.1101 41.0067 52.4639 40.577 52.7098C40.1474 52.9557 39.6604 53.0851 39.1647 53.085V53.085Z" fill="#7352FF" stroke="black" stroke-width="1.5" stroke-miterlimit="10"/>
<path d="M18.597 43.3401H18.532C18.0696 43.3444 17.6116 43.2509 17.1882 43.0658C16.7649 42.8807 16.3858 42.6083 16.0762 42.2666C15.9777 42.1571 15.9021 42.0292 15.8537 41.8904C15.8052 41.7516 15.785 41.6046 15.7941 41.4579C15.8033 41.3113 15.8416 41.1679 15.9068 41.0361C15.9721 40.9043 16.063 40.7866 16.1743 40.6901C16.2856 40.5935 16.4151 40.5199 16.5552 40.4735C16.6953 40.4271 16.8433 40.4089 16.9906 40.4199C17.1378 40.4308 17.2814 40.4708 17.413 40.5374C17.5446 40.6041 17.6616 40.6961 17.7572 40.808C17.8634 40.9131 17.9902 40.9952 18.1298 41.0492C18.2693 41.1032 18.4186 41.1278 18.5682 41.1216C19.0419 41.1388 19.5043 40.9755 19.8611 40.665C19.9609 40.5583 20.0808 40.4723 20.214 40.4117C20.3473 40.3512 20.4912 40.3173 20.6376 40.3121C20.7839 40.3069 20.9299 40.3304 21.0671 40.3814C21.2044 40.4323 21.3302 40.5096 21.4374 40.6089C21.5446 40.7082 21.6311 40.8276 21.6919 40.9602C21.7528 41.0927 21.7868 41.2359 21.792 41.3816C21.7972 41.5272 21.7736 41.6725 21.7224 41.809C21.6712 41.9456 21.5935 42.0708 21.4937 42.1775C20.7206 42.9309 19.6791 43.3489 18.597 43.3401V43.3401Z" fill="white" stroke="#1D1D1B" stroke-width="1.5" stroke-linecap="round" stroke-linejoin="round"/>
<path d="M20.6101 42.6825C21.2655 42.6825 21.7969 42.1538 21.7969 41.5016C21.7969 40.8494 21.2655 40.3207 20.6101 40.3207C19.9547 40.3207 19.4233 40.8494 19.4233 41.5016C19.4233 42.1538 19.9547 42.6825 20.6101 42.6825Z" fill="#1D1D1B"/>
<path d="M28.15 43.3401H28.085C27.6226 43.3444 27.1645 43.2509 26.7412 43.0658C26.3178 42.8807 25.9388 42.6083 25.6291 42.2666C25.5286 42.1574 25.451 42.0293 25.4009 41.8899C25.3509 41.7504 25.3294 41.6024 25.3377 41.4545C25.346 41.3067 25.384 41.162 25.4493 41.0289C25.5147 40.8959 25.6062 40.7772 25.7183 40.6799C25.8305 40.5826 25.9611 40.5086 26.1025 40.4623C26.2438 40.4159 26.3931 40.3982 26.5414 40.4102C26.6897 40.4221 26.8342 40.4635 26.9662 40.5318C27.0983 40.6001 27.2152 40.694 27.3102 40.808C27.4162 40.9132 27.543 40.9953 27.6825 41.0492C27.8221 41.1032 27.9713 41.1279 28.1209 41.1216C28.5946 41.1388 29.057 40.9755 29.4138 40.665C29.5136 40.5583 29.6335 40.4723 29.7668 40.4117C29.9 40.3512 30.0439 40.3173 30.1903 40.3121C30.3366 40.3069 30.4826 40.3304 30.6198 40.3814C30.7571 40.4323 30.8829 40.5096 30.9901 40.6089C31.0973 40.7082 31.1838 40.8276 31.2446 40.9602C31.3055 41.0927 31.3395 41.2359 31.3447 41.3816C31.3499 41.5272 31.3263 41.6725 31.2751 41.809C31.2239 41.9456 31.1462 42.0708 31.0464 42.1775C30.2734 42.9308 29.232 43.3489 28.15 43.3401V43.3401Z" fill="white" stroke="#1D1D1B" stroke-width="1.5" stroke-linecap="round" stroke-linejoin="round"/>
<path d="M30.2649 42.6825C30.9204 42.6825 31.4517 42.1538 31.4517 41.5016C31.4517 40.8494 30.9204 40.3207 30.2649 40.3207C29.6095 40.3207 29.0781 40.8494 29.0781 41.5016C29.0781 42.1538 29.6095 42.6825 30.2649 42.6825Z" fill="#1D1D1B"/>
</svg>
