<svg width="281" height="23" viewBox="0 0 281 23" fill="none" xmlns="http://www.w3.org/2000/svg">
<path d="M18.6084 10.72C19.6884 10.12 20.6184 8.65 20.6184 6.73C20.6184 2.94999 17.6484 0.699996 11.6484 0.699997L0.24836 0.699999L0.248364 22L12.2184 22C18.7284 22 21.1884 19.66 21.1884 15.52C21.1884 13.24 19.8984 11.17 18.6084 10.72ZM11.1984 9.34L7.74836 9.34L7.74836 6.67L11.2284 6.67C12.5784 6.67 13.2684 7.09 13.2684 7.96C13.2684 9.25 12.2484 9.34 11.1984 9.34ZM7.74836 16.03L7.74836 12.94L11.6184 12.94C12.8184 12.94 13.5384 13.21 13.5384 14.53C13.5384 15.85 12.5484 16.03 11.5884 16.03L7.74836 16.03ZM36.6726 0.699992L36.6726 12.49C36.6726 14.38 35.0226 15.4 33.3126 15.4C31.5426 15.4 29.9826 14.38 29.9826 12.49L29.9826 0.699993L22.4826 0.699995L22.4826 12.31C22.4826 19.12 27.0726 22.3 33.2826 22.3C39.8526 22.3 44.1726 19.15 44.1726 12.31L44.1726 0.699991L36.6726 0.699992ZM56.3915 16.66C56.6015 16.66 56.8115 16.66 57.0215 16.66L59.4215 22L67.1315 22L63.6215 15.22C65.9615 13.9 67.0415 11.71 67.0415 8.61999C67.0415 3.75999 63.8015 0.699988 56.3915 0.699989L45.9215 0.699991L45.9215 22L53.4215 22L53.4215 16.66L56.3915 16.66ZM56.3915 10.36L53.4215 10.36L53.4215 6.99999L56.3915 6.99999C58.6115 6.99999 59.2415 7.62999 59.2415 8.64999C59.2415 9.69999 58.6715 10.36 56.3915 10.36ZM68.598 22L87.198 22L87.198 15.4L76.098 15.4L76.098 13.39L86.718 13.39L86.718 9.18998L76.098 9.18999L76.098 7.29999L87.198 7.29998L87.198 0.699983L68.598 0.699987L68.598 22ZM104.857 22L112.807 22L105.577 0.69998L95.3472 0.699982L88.1172 22L96.0972 22L97.0572 18.76L103.897 18.76L104.857 22ZM100.477 7.26998L102.307 13.39L98.6472 13.39L100.477 7.26998ZM126.35 0.699977L126.35 12.49C126.35 14.38 124.7 15.4 122.99 15.4C121.22 15.4 119.66 14.38 119.66 12.49L119.66 0.699978L112.16 0.699979L112.16 12.31C112.16 19.12 116.75 22.3 122.96 22.3C129.53 22.3 133.85 19.15 133.85 12.31L133.85 0.699975L126.35 0.699977ZM151.415 0.699972L141.635 0.699974L141.635 22L151.295 22C158.405 22 163.025 19.09 163.025 11.26C163.025 3.84997 158.195 0.699971 151.415 0.699972ZM149.135 15.1L149.135 7.59997L151.265 7.59997C153.995 7.59997 155.285 8.40997 155.285 11.26C155.285 14.35 153.995 15.1 151.265 15.1L149.135 15.1ZM164.399 22L182.999 22L182.999 15.4L171.899 15.4L171.899 13.39L182.519 13.39L182.519 9.18997L171.899 9.18997L171.899 7.29997L182.999 7.29997L182.999 0.699967L164.399 0.69997L164.399 22ZM202.254 15.43L198.174 0.699964L189.924 0.699965L197.154 22L207.384 22L214.614 0.699961L206.334 0.699963L202.254 15.43ZM213.87 11.35C213.87 18.58 219.12 22.3 225.75 22.3C232.92 22.3 237.57 18.58 237.57 11.35C237.57 4.62996 232.77 0.399958 225.75 0.399959C219.12 0.399961 213.87 4.53996 213.87 11.35ZM221.55 11.35C221.55 8.85996 223.23 7.20996 225.75 7.20996C228.33 7.20996 229.92 8.88996 229.92 11.35C229.92 13.96 228.36 15.49 225.75 15.49C223.23 15.49 221.55 13.93 221.55 11.35ZM238.248 7.65996L245.688 7.65996L245.688 22L253.188 22L253.188 7.65996L260.628 7.65995L260.628 0.699953L238.248 0.699957L238.248 7.65996ZM262.162 22L280.762 22L280.762 15.4L269.662 15.4L269.662 13.39L280.282 13.39L280.282 9.18995L269.662 9.18995L269.662 7.29995L280.762 7.29995L280.762 0.69995L262.162 0.699953L262.162 22Z" fill="#EC8989"/>
</svg>
