<svg width="160" height="59" viewBox="0 0 160 59" fill="none" xmlns="http://www.w3.org/2000/svg">
<rect x="136" width="30" height="136" transform="rotate(90 136 0)" fill="white"/>
<path d="M28.364 18.988L30.392 18.988L30.392 10.588L28.46 10.588L25.988 12.064L26.984 13.504L28.364 12.7L28.364 18.988ZM38.047 18.028L36.703 16.96C36.427 17.308 35.923 17.536 35.347 17.536C34.627 17.536 34.099 17.32 33.919 16.504L37.831 16.504C37.891 16.288 37.951 15.904 37.951 15.496C37.951 13.852 36.823 12.712 35.107 12.712C33.055 12.712 31.963 14.224 31.963 15.976C31.963 17.74 33.139 19.24 35.359 19.24C36.523 19.24 37.471 18.784 38.047 18.028ZM35.059 14.248C35.767 14.248 36.079 14.752 36.103 15.16L33.931 15.16C34.075 14.548 34.447 14.248 35.059 14.248ZM39.2488 19L41.1568 19L41.1568 15.328C41.2768 15.124 41.7328 14.716 42.4288 14.716C42.7408 14.716 42.9688 14.752 43.1728 14.8V12.916C43.0288 12.868 42.8368 12.832 42.6208 12.832C41.9967 12.832 41.5288 13.096 41.1568 13.444V12.952L39.2488 12.952L39.2488 19ZM47.8484 16.648C47.8484 18.136 48.5324 19.12 50.1764 19.12C50.7404 19.12 51.1124 19.048 51.4364 18.904L51.4364 17.26C51.2564 17.332 50.9684 17.392 50.5244 17.392C50.0204 17.392 49.7684 17.128 49.7684 16.648L49.7684 14.656L51.4244 14.656V12.952L49.7684 12.952V11.44L47.8484 11.44V12.952L46.7204 12.952V14.656L47.8484 14.656L47.8484 16.648ZM55.5024 12.712C53.5104 12.712 52.1544 14.128 52.1544 15.976C52.1544 17.824 53.5104 19.24 55.5024 19.24C57.4824 19.24 58.8384 17.824 58.8384 15.976C58.8384 14.128 57.4824 12.712 55.5024 12.712ZM55.5144 17.452C54.7224 17.452 54.1344 16.876 54.1344 15.976C54.1344 15.076 54.7224 14.5 55.5144 14.5C56.2824 14.5 56.8704 15.064 56.8704 15.976C56.8704 16.864 56.2824 17.452 55.5144 17.452ZM63.8658 16.372C63.8658 17.008 63.5418 17.452 62.8578 17.452C62.1498 17.452 61.8378 17.008 61.8378 16.372L61.8378 12.952L59.9178 12.952L59.9178 16.264C59.9178 18.076 60.9618 19.24 62.8458 19.24C64.7058 19.24 65.7858 18.076 65.7858 16.264L65.7858 12.952L63.8658 12.952L63.8658 16.372ZM67.2214 19L69.1294 19L69.1294 15.328C69.2494 15.124 69.7054 14.716 70.4014 14.716C70.7134 14.716 70.9414 14.752 71.1454 14.8V12.916C71.0014 12.868 70.8094 12.832 70.5934 12.832C69.9694 12.832 69.5014 13.096 69.1294 13.444V12.952L67.2214 12.952L67.2214 19Z" fill="#EC8989"/>
<path d="M146 6.612L146 12.564L147.824 12.564L147.824 9.108L149.492 10.896C150.128 11.58 151.028 12.348 152.18 12.348C153.68 12.348 154.64 11.136 154.64 9.612C154.64 8.028 153.836 6.924 152.636 6.192L151.628 7.824C152.324 8.244 152.84 8.664 152.84 9.408C152.84 9.924 152.516 10.296 151.964 10.296C151.424 10.296 150.98 9.912 150.596 9.504L147.824 6.612L146 6.612ZM144.08 14.9473L147.98 16.4593L147.98 14.3233L144.08 13.1833L144.08 14.9473ZM146 17.0417L146 22.9937L147.824 22.9937L147.824 19.5377L149.492 21.3257C150.128 22.0097 151.028 22.7777 152.18 22.7777C153.68 22.7777 154.64 21.5657 154.64 20.0417C154.64 18.4577 153.836 17.3537 152.636 16.6217L151.628 18.2537C152.324 18.6737 152.84 19.0937 152.84 19.8377C152.84 20.3537 152.516 20.7257 151.964 20.7257C151.424 20.7257 150.98 20.3417 150.596 19.9337L147.824 17.0417L146 17.0417Z" fill="#AF4E4E"/>
<rect x="99" y="30" width="29" height="99" transform="rotate(90 99 30)" fill="#A34142"/>
<path d="M26.612 49L32.564 49V47.176L29.108 47.176L30.896 45.508C31.58 44.872 32.348 43.972 32.348 42.82C32.348 41.32 31.136 40.36 29.612 40.36C28.028 40.36 26.924 41.164 26.192 42.364L27.824 43.372C28.244 42.676 28.664 42.16 29.408 42.16C29.924 42.16 30.296 42.484 30.296 43.036C30.296 43.576 29.912 44.02 29.504 44.404L26.612 47.176L26.612 49ZM35.8473 41.992L37.6473 41.992L36.4233 40H34.3833L35.8473 41.992ZM39.6993 48.028L38.3553 46.96C38.0793 47.308 37.5753 47.536 36.9993 47.536C36.2793 47.536 35.7513 47.32 35.5713 46.504L39.4833 46.504C39.5433 46.288 39.6033 45.904 39.6033 45.496C39.6033 43.852 38.4753 42.712 36.7593 42.712C34.7073 42.712 33.6153 44.224 33.6153 45.976C33.6153 47.74 34.7913 49.24 37.0113 49.24C38.1753 49.24 39.1233 48.784 39.6993 48.028ZM36.7113 44.248C37.4193 44.248 37.7313 44.752 37.7553 45.16L35.5833 45.16C35.7273 44.548 36.0993 44.248 36.7113 44.248ZM40.9011 49H42.8091L42.8091 45.232C42.9411 45.028 43.1811 44.5 43.7811 44.5C44.3211 44.5 44.5971 44.872 44.5971 45.412L44.5971 49L46.5171 49L46.5171 45.328C46.5171 45.28 46.5171 45.232 46.5171 45.184C46.6131 45.028 46.8531 44.5 47.4651 44.5C48.0051 44.5 48.2811 44.872 48.2811 45.412L48.2811 49H50.2011L50.2011 45.328C50.2011 43.576 49.1931 42.712 47.9811 42.712C46.9851 42.712 46.4331 43.12 46.0371 43.588C45.6291 43 45.0051 42.712 44.2971 42.712C43.6491 42.712 43.1691 42.952 42.8091 43.264V42.952H40.9011L40.9011 49ZM57.4298 48.028L56.0858 46.96C55.8098 47.308 55.3058 47.536 54.7298 47.536C54.0098 47.536 53.4818 47.32 53.3018 46.504L57.2138 46.504C57.2738 46.288 57.3338 45.904 57.3338 45.496C57.3338 43.852 56.2058 42.712 54.4898 42.712C52.4378 42.712 51.3458 44.224 51.3458 45.976C51.3458 47.74 52.5218 49.24 54.7418 49.24C55.9058 49.24 56.8538 48.784 57.4298 48.028ZM54.4418 44.248C55.1498 44.248 55.4618 44.752 55.4858 45.16L53.3138 45.16C53.4578 44.548 53.8298 44.248 54.4418 44.248ZM62.2859 46.648C62.2859 48.136 62.9699 49.12 64.6139 49.12C65.1779 49.12 65.5499 49.048 65.8739 48.904V47.26C65.6939 47.332 65.4059 47.392 64.9619 47.392C64.4579 47.392 64.2059 47.128 64.2059 46.648L64.2059 44.656L65.8619 44.656V42.952L64.2059 42.952V41.44H62.2859V42.952L61.1579 42.952V44.656L62.2859 44.656L62.2859 46.648ZM69.9399 42.712C67.9479 42.712 66.5919 44.128 66.5919 45.976C66.5919 47.824 67.9479 49.24 69.9399 49.24C71.9199 49.24 73.2759 47.824 73.2759 45.976C73.2759 44.128 71.9199 42.712 69.9399 42.712ZM69.9519 47.452C69.1599 47.452 68.5719 46.876 68.5719 45.976C68.5719 45.076 69.1599 44.5 69.9519 44.5C70.7199 44.5 71.3079 45.064 71.3079 45.976C71.3079 46.864 70.7199 47.452 69.9519 47.452ZM78.3033 46.372C78.3033 47.008 77.9793 47.452 77.2953 47.452C76.5873 47.452 76.2753 47.008 76.2753 46.372L76.2753 42.952H74.3553L74.3553 46.264C74.3553 48.076 75.3993 49.24 77.2833 49.24C79.1433 49.24 80.2233 48.076 80.2233 46.264L80.2233 42.952H78.3033L78.3033 46.372ZM81.6589 49H83.5669L83.5669 45.328C83.6869 45.124 84.1429 44.716 84.8389 44.716C85.1509 44.716 85.3789 44.752 85.5829 44.8V42.916C85.4389 42.868 85.2469 42.832 85.0309 42.832C84.4069 42.832 83.9389 43.096 83.5669 43.444V42.952L81.6589 42.952L81.6589 49Z" fill="#EC8989"/>
<path d="M109.012 39.364L109.012 41.392L117.412 41.392L117.412 39.46L115.936 36.988L114.496 37.984L115.3 39.364L109.012 39.364ZM107.08 44.295L110.98 45.807L110.98 43.671L107.08 42.531L107.08 44.295ZM117.64 49.4821C117.64 46.7701 115.78 45.6901 113.236 45.6901C110.512 45.6901 108.76 46.8781 108.76 49.2181C108.76 51.2221 110.104 52.4101 111.724 52.4101C113.296 52.4101 114.496 51.3661 114.496 49.6381C114.496 48.8941 114.292 48.2941 113.92 47.8021C115.216 47.9341 115.816 48.4981 115.816 49.4581C115.816 50.0461 115.468 50.4661 115.012 50.8621L116.308 52.4101C116.956 51.8821 117.64 50.9581 117.64 49.4821ZM112.708 49.2301C112.708 49.9021 112.288 50.3341 111.652 50.3341C111.016 50.3341 110.584 49.8781 110.584 49.1821C110.584 48.4741 111.004 48.0181 112.06 47.8501C112.492 48.1981 112.708 48.6781 112.708 49.2301Z" fill="#AF4E4E"/>
</svg>
