<svg width="270" height="42" viewBox="0 0 270 42" fill="none" xmlns="http://www.w3.org/2000/svg">
<path d="M14.3835 20.62C14.4235 20.74 14.4635 20.85 14.5035 20.95C14.5435 21.05 14.5735 21.16 14.5935 21.28C14.6335 21.4 14.6535 21.51 14.6535 21.61C14.6535 21.75 14.6035 21.86 14.5035 21.94C14.4035 22.04 14.2835 22.12 14.1435 22.18C14.0235 22.24 13.9035 22.28 13.7835 22.3C13.6635 22.32 13.5935 22.33 13.5735 22.33C13.4535 22.33 13.2335 21.96 12.9135 21.22C12.5935 20.5 12.2435 19.48 11.8635 18.16C11.5035 16.84 11.1335 15.27 10.7535 13.45C10.3735 11.63 10.0635 9.63 9.82348 7.45C9.78348 7.91 9.70348 8.45 9.58348 9.07C9.48348 9.67 9.32348 10.24 9.10348 10.78C8.88348 11.32 8.59348 11.78 8.23348 12.16C7.89348 12.52 7.45348 12.7 6.91348 12.7C6.53348 12.7 6.10348 12.5 5.62348 12.1C5.14348 11.7 4.67348 11.23 4.21348 10.69C3.77348 10.13 3.36348 9.57 2.98348 9.01C2.62348 8.43 2.35348 7.96 2.17348 7.6C2.25348 8.48 2.38348 9.54 2.56348 10.78C2.76348 12.02 3.06348 13.33 3.46348 14.71C3.50348 14.85 3.54348 14.96 3.58348 15.04C3.64348 15.1 3.69348 15.17 3.73348 15.25C3.79348 15.33 3.83348 15.42 3.85348 15.52C3.89348 15.6 3.91348 15.73 3.91348 15.91C3.91348 16.17 3.81348 16.36 3.61348 16.48C3.41348 16.6 3.22348 16.66 3.04348 16.66C2.94348 16.66 2.81348 16.51 2.65348 16.21C2.49348 15.89 2.32348 15.48 2.14348 14.98C1.96348 14.48 1.78348 13.93 1.60348 13.33C1.42348 12.71 1.25348 12.1 1.09348 11.5C0.953477 10.9 0.833477 10.34 0.733477 9.82C0.633477 9.28 0.583477 8.85 0.583477 8.53C0.583477 8.01 0.603477 7.65 0.643477 7.45C0.703477 7.25 0.783477 7.1 0.883477 7V5.17C0.883477 4.89 0.953477 4.68 1.09348 4.54C1.25348 4.38 1.45348 4.3 1.69348 4.3C1.89348 4.3 2.12348 4.47 2.38348 4.81C2.64348 5.15 2.92348 5.58 3.22348 6.1C3.54348 6.62 3.87348 7.18 4.21348 7.78C4.55348 8.38 4.88348 8.94 5.20348 9.46C5.54348 9.98 5.86348 10.41 6.16348 10.75C6.48348 11.09 6.78348 11.26 7.06348 11.26C7.32348 11.26 7.57348 11.02 7.81348 10.54C8.05348 10.04 8.27348 9.39 8.47348 8.59C8.69348 7.79 8.88348 6.88 9.04348 5.86C9.20348 4.84 9.33348 3.8 9.43348 2.74C9.43348 2.62 9.42348 2.49 9.40348 2.35C9.38348 2.19 9.37348 2.02 9.37348 1.84C9.37348 1.6 9.42348 1.34 9.52348 1.06C9.64348 0.779999 9.86348 0.639999 10.1835 0.639999C10.3635 0.639999 10.5035 0.689999 10.6035 0.789998C10.7235 0.889998 10.8035 1.02 10.8435 1.18C10.8835 1.32 10.9035 1.47 10.9035 1.63C10.9235 1.77 10.9335 1.89 10.9335 1.99C10.9335 2.15 10.9135 2.42 10.8735 2.8C10.8535 3.16 10.8435 3.72 10.8435 4.48C10.8435 5.14 10.8935 5.91 10.9935 6.79C11.0935 7.65 11.2235 8.57 11.3835 9.55C11.5635 10.51 11.7635 11.51 11.9835 12.55C12.2235 13.57 12.4735 14.57 12.7335 15.55C13.0135 16.53 13.2835 17.46 13.5435 18.34C13.8235 19.2 14.1035 19.96 14.3835 20.62ZM29.6443 12.76C29.6443 13.12 29.4743 13.57 29.1343 14.11C28.8143 14.63 28.3743 15.14 27.8143 15.64C27.2543 16.14 26.6043 16.57 25.8643 16.93C25.1243 17.27 24.3543 17.44 23.5543 17.44C23.1943 17.44 22.8143 17.38 22.4143 17.26C22.0143 17.14 21.6243 16.97 21.2443 16.75C20.8643 16.51 20.5243 16.23 20.2243 15.91C19.9243 15.57 19.7043 15.19 19.5643 14.77C19.4443 14.89 19.2943 15.09 19.1143 15.37C18.9543 15.65 18.7743 15.94 18.5743 16.24C18.3743 16.52 18.1543 16.77 17.9143 16.99C17.6743 17.19 17.4243 17.29 17.1643 17.29C16.9043 17.29 16.6843 17.16 16.5043 16.9C16.3443 16.62 16.2143 16.32 16.1143 16C16.0143 15.66 15.9443 15.34 15.9043 15.04C15.8643 14.74 15.8443 14.57 15.8443 14.53C15.8443 14.29 15.9143 13.84 16.0543 13.18C16.1943 12.5 16.4043 11.8 16.6843 11.08C16.9643 10.36 17.3143 9.72 17.7343 9.16C18.1743 8.6 18.6843 8.32 19.2643 8.32C19.4843 8.32 19.6243 8.42 19.6843 8.62C19.7643 8.8 19.8043 8.98 19.8043 9.16V10.06C19.9043 10.14 20.0043 10.2 20.1043 10.24C20.2243 10.26 20.3243 10.3 20.4043 10.36C20.5043 10.4 20.5743 10.47 20.6143 10.57C20.6743 10.67 20.7043 10.83 20.7043 11.05C20.7043 11.19 20.6943 11.32 20.6743 11.44C20.6543 11.54 20.6443 11.64 20.6443 11.74C20.6443 12.26 20.6843 12.77 20.7643 13.27C20.8443 13.77 21.0043 14.22 21.2443 14.62C21.4843 15 21.8143 15.32 22.2343 15.58C22.6543 15.82 23.2143 15.94 23.9143 15.94C24.7943 15.94 25.5343 15.76 26.1343 15.4C26.7543 15.02 27.2643 14.61 27.6643 14.17C28.0843 13.71 28.4143 13.3 28.6543 12.94C28.8943 12.56 29.0943 12.37 29.2543 12.37C29.5143 12.37 29.6443 12.5 29.6443 12.76ZM19.1143 11.44C19.1143 11.36 19.0943 11.29 19.0543 11.23C19.0143 11.15 18.9943 11.08 18.9943 11.02C18.9943 10.94 19.0143 10.87 19.0543 10.81C19.0943 10.75 19.1143 10.67 19.1143 10.57C19.1143 10.51 19.0943 10.47 19.0543 10.45C19.0143 10.41 18.9943 10.37 18.9943 10.33C18.8143 10.37 18.6243 10.54 18.4243 10.84C18.2443 11.14 18.0643 11.49 17.8843 11.89C17.7243 12.29 17.5943 12.7 17.4943 13.12C17.3943 13.52 17.3443 13.85 17.3443 14.11C17.3443 14.25 17.3843 14.48 17.4643 14.8C17.5443 15.12 17.6343 15.33 17.7343 15.43C18.0743 14.73 18.3843 14.05 18.6643 13.39C18.9643 12.73 19.1143 12.08 19.1143 11.44ZM31.7835 5.2C31.7835 5.24 31.7135 5.32 31.5735 5.44C31.4335 5.56 31.2635 5.69 31.0635 5.83C30.8835 5.95 30.6935 6.06 30.4935 6.16C30.2935 6.26 30.1335 6.31 30.0135 6.31C29.9335 6.31 29.8235 6.31 29.6835 6.31C29.5635 6.29 29.4335 6.25 29.2935 6.19C29.1735 6.13 29.0635 6.05 28.9635 5.95C28.8635 5.83 28.8135 5.68 28.8135 5.5C28.8135 5.22 28.9135 4.96 29.1135 4.72C29.3135 4.46 29.5735 4.33 29.8935 4.33C29.9535 4.33 30.0835 4.36 30.2835 4.42C30.5035 4.46 30.7235 4.52 30.9435 4.6C31.1635 4.68 31.3535 4.77 31.5135 4.87C31.6935 4.97 31.7835 5.08 31.7835 5.2ZM32.7735 16.42C32.7735 16.56 32.6635 16.68 32.4435 16.78C32.2435 16.88 32.0935 16.93 31.9935 16.93C31.7935 16.93 31.6135 16.8 31.4535 16.54C31.2935 16.28 31.1535 15.98 31.0335 15.64C30.9135 15.3 30.8135 14.98 30.7335 14.68C30.6535 14.36 30.5935 14.14 30.5535 14.02C30.4935 13.82 30.4135 13.58 30.3135 13.3C30.2135 13.02 30.1135 12.75 30.0135 12.49C29.9335 12.23 29.8635 12 29.8035 11.8C29.7435 11.6 29.7135 11.49 29.7135 11.47C29.7135 11.19 29.7635 10.93 29.8635 10.69C29.9835 10.45 30.1235 10.33 30.2835 10.33C30.4635 10.33 30.6535 10.47 30.8535 10.75C31.0535 11.03 31.2435 11.39 31.4235 11.83C31.6235 12.25 31.8035 12.72 31.9635 13.24C32.1235 13.74 32.2635 14.22 32.3835 14.68C32.5035 15.12 32.5935 15.51 32.6535 15.85C32.7335 16.17 32.7735 16.36 32.7735 16.42ZM41.4217 15.04C41.4217 15.38 41.3017 15.68 41.0617 15.94C40.8417 16.18 40.5517 16.39 40.1917 16.57C39.8517 16.73 39.4717 16.86 39.0517 16.96C38.6317 17.06 38.2317 17.14 37.8517 17.2C37.4717 17.24 37.1317 17.27 36.8317 17.29C36.5517 17.29 36.3717 17.29 36.2917 17.29C35.8517 17.29 35.5117 17.22 35.2717 17.08C35.0317 16.94 34.9117 16.69 34.9117 16.33C34.9117 16.21 34.9217 16.11 34.9417 16.03C34.9617 15.93 35.0417 15.88 35.1817 15.88C35.2417 15.88 35.3417 15.9 35.4817 15.94C35.6217 15.96 35.7317 15.97 35.8117 15.97C35.8917 15.97 36.1417 15.96 36.5617 15.94C37.0017 15.9 37.4617 15.84 37.9417 15.76C38.4417 15.68 38.8817 15.57 39.2617 15.43C39.6617 15.27 39.8617 15.07 39.8617 14.83C39.8617 14.79 39.6517 14.67 39.2317 14.47C38.8317 14.25 38.2217 13.89 37.4017 13.39C36.7617 12.99 36.3117 12.59 36.0517 12.19C35.7917 11.77 35.6617 11.21 35.6617 10.51C35.6617 10.07 35.7517 9.71 35.9317 9.43C36.1317 9.15 36.3917 8.93 36.7117 8.77C37.0517 8.61 37.4317 8.5 37.8517 8.44C38.2917 8.36 38.7517 8.32 39.2317 8.32C39.2717 8.32 39.3917 8.34 39.5917 8.38C39.8117 8.42 40.0417 8.49 40.2817 8.59C40.5217 8.67 40.7317 8.78 40.9117 8.92C41.1117 9.04 41.2117 9.18 41.2117 9.34C41.2117 9.38 41.1717 9.44 41.0917 9.52C41.0317 9.6 40.9217 9.75 40.7617 9.97C40.7017 9.95 40.5917 9.92 40.4317 9.88C40.2917 9.84 40.1217 9.8 39.9217 9.76C39.7417 9.7 39.5517 9.66 39.3517 9.64C39.1517 9.6 38.9917 9.58 38.8717 9.58C38.3517 9.58 37.9317 9.68 37.6117 9.88C37.2917 10.06 37.1317 10.42 37.1317 10.96C37.1317 11.22 37.2317 11.46 37.4317 11.68C37.6517 11.9 37.9217 12.11 38.2417 12.31C38.5617 12.49 38.9017 12.68 39.2617 12.88C39.6417 13.06 39.9917 13.26 40.3117 13.48C40.6317 13.7 40.8917 13.94 41.0917 14.2C41.3117 14.44 41.4217 14.72 41.4217 15.04ZM64.75 15.85C64.77 15.89 64.78 15.95 64.78 16.03C64.78 16.15 64.69 16.33 64.51 16.57C64.45 16.65 64.32 16.78 64.12 16.96C63.92 17.14 63.65 17.32 63.31 17.5C62.97 17.68 62.55 17.84 62.05 17.98C61.57 18.12 61 18.19 60.34 18.19C59.88 18.19 59.43 18.09 58.99 17.89C58.55 17.67 58.16 17.36 57.82 16.96C57.48 16.54 57.2 16.03 56.98 15.43C56.76 14.81 56.65 14.09 56.65 13.27C56.65 12.49 56.75 11.76 56.95 11.08C57.15 10.4 57.4 9.8 57.7 9.28C58.02 8.76 58.37 8.35 58.75 8.05C59.13 7.75 59.5 7.6 59.86 7.6C60.18 7.6 60.5 7.67 60.82 7.81C61.16 7.93 61.46 8.09 61.72 8.29C62 8.49 62.22 8.72 62.38 8.98C62.54 9.22 62.62 9.47 62.62 9.73C62.62 10.03 62.48 10.34 62.2 10.66C61.94 10.98 61.62 11.28 61.24 11.56C60.86 11.82 60.48 12.04 60.1 12.22C59.72 12.38 59.42 12.46 59.2 12.46C59.08 12.46 58.97 12.41 58.87 12.31C58.79 12.19 58.75 12.05 58.75 11.89C58.75 11.61 58.87 11.39 59.11 11.23C59.37 11.07 59.65 10.93 59.95 10.81C60.25 10.67 60.52 10.51 60.76 10.33C61.02 10.15 61.15 9.9 61.15 9.58C61.15 9.54 61.1 9.44 61 9.28C60.9 9.12 60.63 9.04 60.19 9.04C59.99 9.04 59.76 9.16 59.5 9.4C59.24 9.62 58.99 9.93 58.75 10.33C58.51 10.71 58.31 11.17 58.15 11.71C57.99 12.23 57.91 12.8 57.91 13.42C57.91 13.94 58 14.41 58.18 14.83C58.38 15.25 58.63 15.61 58.93 15.91C59.23 16.19 59.58 16.41 59.98 16.57C60.38 16.73 60.79 16.81 61.21 16.81C61.51 16.81 61.83 16.75 62.17 16.63C62.53 16.49 62.86 16.35 63.16 16.21C63.48 16.05 63.75 15.91 63.97 15.79C64.21 15.65 64.36 15.58 64.42 15.58C64.48 15.58 64.54 15.61 64.6 15.67C64.68 15.73 64.73 15.79 64.75 15.85ZM73.6189 15.04C73.6189 15.38 73.4989 15.68 73.2589 15.94C73.0389 16.18 72.7489 16.39 72.3889 16.57C72.0489 16.73 71.6689 16.86 71.2489 16.96C70.8289 17.06 70.4289 17.14 70.0489 17.2C69.6689 17.24 69.3289 17.27 69.0289 17.29C68.7489 17.29 68.5689 17.29 68.4889 17.29C68.0489 17.29 67.7089 17.22 67.4689 17.08C67.2289 16.94 67.1089 16.69 67.1089 16.33C67.1089 16.21 67.1189 16.11 67.1389 16.03C67.1589 15.93 67.2389 15.88 67.3789 15.88C67.4389 15.88 67.5389 15.9 67.6789 15.94C67.8189 15.96 67.9289 15.97 68.0089 15.97C68.0889 15.97 68.3389 15.96 68.7589 15.94C69.1989 15.9 69.6589 15.84 70.1389 15.76C70.6389 15.68 71.0789 15.57 71.4589 15.43C71.8589 15.27 72.0589 15.07 72.0589 14.83C72.0589 14.79 71.8489 14.67 71.4289 14.47C71.0289 14.25 70.4189 13.89 69.5989 13.39C68.9589 12.99 68.5089 12.59 68.2489 12.19C67.9889 11.77 67.8589 11.21 67.8589 10.51C67.8589 10.07 67.9489 9.71 68.1289 9.43C68.3289 9.15 68.5889 8.93 68.9089 8.77C69.2489 8.61 69.6289 8.5 70.0489 8.44C70.4889 8.36 70.9489 8.32 71.4289 8.32C71.4689 8.32 71.5889 8.34 71.7889 8.38C72.0089 8.42 72.2389 8.49 72.4789 8.59C72.7189 8.67 72.9289 8.78 73.1089 8.92C73.3089 9.04 73.4089 9.18 73.4089 9.34C73.4089 9.38 73.3689 9.44 73.2889 9.52C73.2289 9.6 73.1189 9.75 72.9589 9.97C72.8989 9.95 72.7889 9.92 72.6289 9.88C72.4889 9.84 72.3189 9.8 72.1189 9.76C71.9389 9.7 71.7489 9.66 71.5489 9.64C71.3489 9.6 71.1889 9.58 71.0689 9.58C70.5489 9.58 70.1289 9.68 69.8089 9.88C69.4889 10.06 69.3289 10.42 69.3289 10.96C69.3289 11.22 69.4289 11.46 69.6289 11.68C69.8489 11.9 70.1189 12.11 70.4389 12.31C70.7589 12.49 71.0989 12.68 71.4589 12.88C71.8389 13.06 72.1889 13.26 72.5089 13.48C72.8289 13.7 73.0889 13.94 73.2889 14.2C73.5089 14.44 73.6189 14.72 73.6189 15.04ZM84.1354 5.44C83.8754 5.74 83.5054 6.04 83.0254 6.34C82.5454 6.62 82.0654 6.88 81.5854 7.12C81.1054 7.36 80.6854 7.57 80.3254 7.75C79.9654 7.91 79.7854 8.02 79.7854 8.08C79.7854 8.14 79.8254 8.32 79.9054 8.62C79.9854 8.92 80.0754 9.28 80.1754 9.7C80.2954 10.1 80.4154 10.52 80.5354 10.96C80.6554 11.4 80.7554 11.79 80.8354 12.13C80.8754 12.33 80.9254 12.59 80.9854 12.91C81.0454 13.23 81.0954 13.55 81.1354 13.87C81.1954 14.19 81.2454 14.48 81.2854 14.74C81.3254 14.98 81.3454 15.11 81.3454 15.13C81.3454 15.43 81.2954 15.74 81.1954 16.06C81.0954 16.38 80.9354 16.54 80.7154 16.54C80.5954 16.54 80.4854 16.49 80.3854 16.39C80.2854 16.29 80.1954 16.18 80.1154 16.06C80.0354 15.92 79.9754 15.79 79.9354 15.67C79.8954 15.55 79.8754 15.46 79.8754 15.4C79.8754 15.36 79.8754 15.3 79.8754 15.22C79.8954 15.14 79.9054 15.05 79.9054 14.95C79.9054 14.57 79.8454 14.02 79.7254 13.3C79.6854 13.08 79.6054 12.74 79.4854 12.28C79.3654 11.82 79.2454 11.35 79.1254 10.87C78.9854 10.31 78.8254 9.7 78.6454 9.04C78.5654 8.76 78.5154 8.62 78.4954 8.62C78.3554 8.62 78.1154 8.71 77.7754 8.89C77.4554 9.05 77.0854 9.26 76.6654 9.52C76.2454 9.76 75.8054 10.03 75.3454 10.33C74.8854 10.61 74.4554 10.88 74.0554 11.14C73.6554 11.38 73.3154 11.59 73.0354 11.77C72.7354 11.93 72.5554 12.01 72.4954 12.01C72.2354 12.01 72.0254 11.92 71.8654 11.74C71.7054 11.56 71.6254 11.36 71.6254 11.14C71.6254 11.02 71.7954 10.85 72.1354 10.63C72.4554 10.39 72.8654 10.13 73.3654 9.85C73.8454 9.57 74.3754 9.28 74.9554 8.98C75.5154 8.68 76.0354 8.41 76.5154 8.17C77.0154 7.93 77.4254 7.73 77.7454 7.57C78.0854 7.41 78.2554 7.33 78.2554 7.33C78.0754 6.41 77.9254 5.59 77.8054 4.87C77.7054 4.25 77.6054 3.68 77.5054 3.16C77.4254 2.64 77.3854 2.36 77.3854 2.32C77.3854 2.06 77.4354 1.87 77.5354 1.75C77.6554 1.61 77.7854 1.54 77.9254 1.54C78.1454 1.54 78.2854 1.69 78.3454 1.99C78.5654 3.07 78.7654 4.03 78.9454 4.87C79.1454 5.71 79.3354 6.39 79.5154 6.91C79.6954 6.87 80.0054 6.76 80.4454 6.58C80.8854 6.38 81.3454 6.17 81.8254 5.95C82.3054 5.73 82.7354 5.54 83.1154 5.38C83.5154 5.2 83.7454 5.11 83.8054 5.11C83.9254 5.11 83.9954 5.15 84.0154 5.23C84.0554 5.31 84.0954 5.38 84.1354 5.44ZM90.8954 12.28C90.8954 12.48 90.7254 12.68 90.3854 12.88C90.0654 13.06 89.6954 13.22 89.2754 13.36C88.8554 13.5 88.4554 13.62 88.0754 13.72C87.6954 13.8 87.4554 13.84 87.3554 13.84C86.9954 13.84 86.7454 13.82 86.6054 13.78C86.4854 13.74 86.3754 13.61 86.2754 13.39C86.2154 13.31 86.1554 13.22 86.0954 13.12C86.0354 13 86.0054 12.91 86.0054 12.85C86.0054 12.77 86.0154 12.72 86.0354 12.7C86.0754 12.68 86.1554 12.67 86.2754 12.67C86.4954 12.67 86.8154 12.62 87.2354 12.52C87.6754 12.42 88.1054 12.31 88.5254 12.19C88.9654 12.07 89.3654 11.96 89.7254 11.86C90.0854 11.76 90.3054 11.71 90.3854 11.71C90.4854 11.71 90.5954 11.79 90.7154 11.95C90.8354 12.09 90.8954 12.2 90.8954 12.28ZM102.081 13.54C102.081 13.74 102.051 13.95 101.991 14.17C101.931 14.37 101.871 14.54 101.811 14.68C101.771 14.74 101.581 14.95 101.241 15.31C100.921 15.65 100.511 16.01 100.011 16.39C99.5312 16.77 98.9812 17.12 98.3612 17.44C97.7612 17.74 97.1812 17.89 96.6212 17.89C96.2812 17.89 95.9312 17.83 95.5712 17.71C95.2312 17.59 94.9112 17.4 94.6112 17.14C94.3112 16.86 94.0612 16.52 93.8612 16.12C93.6812 15.72 93.5912 15.23 93.5912 14.65C93.5912 13.69 93.7512 12.82 94.0712 12.04C94.3912 11.26 94.7112 10.64 95.0312 10.18C95.1712 9.96 95.3512 9.74 95.5712 9.52C95.8112 9.28 96.0412 9.07 96.2612 8.89C96.4812 8.69 96.6812 8.53 96.8612 8.41C97.0612 8.29 97.2012 8.23 97.2812 8.23C97.4612 8.23 97.6212 8.28 97.7612 8.38C97.9212 8.48 98.0012 8.58 98.0012 8.68C98.0012 8.84 97.9512 8.98 97.8512 9.1C97.7712 9.2 97.6512 9.32 97.4912 9.46C97.3312 9.58 97.1412 9.75 96.9212 9.97C96.7012 10.17 96.4712 10.44 96.2312 10.78C95.7512 11.44 95.3912 12.12 95.1512 12.82C94.9312 13.5 94.8212 14.1 94.8212 14.62C94.8212 15.14 95.0112 15.56 95.3912 15.88C95.7912 16.18 96.2012 16.33 96.6212 16.33C97.3812 16.33 98.0512 16.16 98.6312 15.82C99.2312 15.48 99.7412 15.1 100.161 14.68C100.581 14.26 100.921 13.88 101.181 13.54C101.441 13.2 101.631 13.03 101.751 13.03C101.971 13.03 102.081 13.2 102.081 13.54ZM112.826 15.85C112.846 15.89 112.856 15.95 112.856 16.03C112.856 16.15 112.766 16.33 112.586 16.57C112.526 16.65 112.396 16.78 112.196 16.96C111.996 17.14 111.726 17.32 111.386 17.5C111.046 17.68 110.626 17.84 110.126 17.98C109.646 18.12 109.076 18.19 108.416 18.19C107.956 18.19 107.506 18.09 107.066 17.89C106.626 17.67 106.236 17.36 105.896 16.96C105.556 16.54 105.276 16.03 105.056 15.43C104.836 14.81 104.726 14.09 104.726 13.27C104.726 12.49 104.826 11.76 105.026 11.08C105.226 10.4 105.476 9.8 105.776 9.28C106.096 8.76 106.446 8.35 106.826 8.05C107.206 7.75 107.576 7.6 107.936 7.6C108.256 7.6 108.576 7.67 108.896 7.81C109.236 7.93 109.536 8.09 109.796 8.29C110.076 8.49 110.296 8.72 110.456 8.98C110.616 9.22 110.696 9.47 110.696 9.73C110.696 10.03 110.556 10.34 110.276 10.66C110.016 10.98 109.696 11.28 109.316 11.56C108.936 11.82 108.556 12.04 108.176 12.22C107.796 12.38 107.496 12.46 107.276 12.46C107.156 12.46 107.046 12.41 106.946 12.31C106.866 12.19 106.826 12.05 106.826 11.89C106.826 11.61 106.946 11.39 107.186 11.23C107.446 11.07 107.726 10.93 108.026 10.81C108.326 10.67 108.596 10.51 108.836 10.33C109.096 10.15 109.226 9.9 109.226 9.58C109.226 9.54 109.176 9.44 109.076 9.28C108.976 9.12 108.706 9.04 108.266 9.04C108.066 9.04 107.836 9.16 107.576 9.4C107.316 9.62 107.066 9.93 106.826 10.33C106.586 10.71 106.386 11.17 106.226 11.71C106.066 12.23 105.986 12.8 105.986 13.42C105.986 13.94 106.076 14.41 106.256 14.83C106.456 15.25 106.706 15.61 107.006 15.91C107.306 16.19 107.656 16.41 108.056 16.57C108.456 16.73 108.866 16.81 109.286 16.81C109.586 16.81 109.906 16.75 110.246 16.63C110.606 16.49 110.936 16.35 111.236 16.21C111.556 16.05 111.826 15.91 112.046 15.79C112.286 15.65 112.436 15.58 112.496 15.58C112.556 15.58 112.616 15.61 112.676 15.67C112.756 15.73 112.806 15.79 112.826 15.85ZM134.447 21.79C134.447 21.85 134.437 21.95 134.417 22.09C134.397 22.23 134.357 22.36 134.297 22.48C134.257 22.62 134.187 22.74 134.087 22.84C133.987 22.96 133.857 23.02 133.697 23.02C133.237 23.02 132.937 22.88 132.797 22.6C132.657 22.32 132.587 22.01 132.587 21.67C132.587 21.59 132.567 21.46 132.527 21.28C132.487 21.1 132.447 20.9 132.407 20.68C132.367 20.46 132.327 20.24 132.287 20.02C132.247 19.8 132.227 19.61 132.227 19.45C132.227 19.15 132.207 18.81 132.167 18.43C132.147 18.05 132.107 17.67 132.047 17.29C132.007 16.89 131.957 16.51 131.897 16.15C131.857 15.79 131.817 15.47 131.777 15.19L131.687 15.1C131.467 15.24 131.267 15.41 131.087 15.61C130.927 15.81 130.757 16 130.577 16.18C130.417 16.36 130.237 16.51 130.037 16.63C129.857 16.75 129.637 16.81 129.377 16.81C129.017 16.81 128.697 16.69 128.417 16.45C128.137 16.19 127.907 15.89 127.727 15.55C127.547 15.21 127.407 14.87 127.307 14.53C127.227 14.17 127.187 13.89 127.187 13.69C127.187 13.25 127.277 12.75 127.457 12.19C127.657 11.63 127.927 11.11 128.267 10.63C128.607 10.13 129.007 9.71 129.467 9.37C129.947 9.03 130.477 8.86 131.057 8.86C131.277 8.86 131.477 8.92 131.657 9.04C131.837 9.16 131.997 9.31 132.137 9.49C132.297 9.65 132.427 9.82 132.527 10C132.647 10.18 132.747 10.32 132.827 10.42C133.047 10.68 133.217 10.91 133.337 11.11C133.457 11.29 133.517 11.52 133.517 11.8C133.517 11.86 133.487 12.04 133.427 12.34C133.367 12.64 133.337 12.89 133.337 13.09C133.337 13.91 133.357 14.75 133.397 15.61C133.457 16.45 133.527 17.24 133.607 17.98C133.687 18.7 133.767 19.33 133.847 19.87C133.927 20.41 133.987 20.78 134.027 20.98C134.067 21.14 134.147 21.24 134.267 21.28C134.387 21.34 134.447 21.51 134.447 21.79ZM131.837 11.71C131.817 11.51 131.737 11.26 131.597 10.96C131.477 10.66 131.217 10.51 130.817 10.51C130.477 10.51 130.167 10.66 129.887 10.96C129.607 11.24 129.367 11.58 129.167 11.98C128.967 12.36 128.817 12.74 128.717 13.12C128.617 13.48 128.567 13.75 128.567 13.93C128.567 13.97 128.577 14.06 128.597 14.2C128.637 14.34 128.677 14.49 128.717 14.65C128.777 14.81 128.847 14.95 128.927 15.07C129.007 15.19 129.097 15.25 129.197 15.25C129.437 15.25 129.707 15.09 130.007 14.77C130.307 14.43 130.587 14.05 130.847 13.63C131.127 13.21 131.357 12.81 131.537 12.43C131.737 12.05 131.837 11.81 131.837 11.71ZM146.085 14.02C146.085 14.2 145.965 14.39 145.725 14.59C145.485 14.79 145.205 14.98 144.885 15.16C144.565 15.32 144.235 15.46 143.895 15.58C143.575 15.7 143.335 15.76 143.175 15.76C142.995 15.76 142.795 15.71 142.575 15.61C142.375 15.51 142.175 15.39 141.975 15.25C141.795 15.11 141.635 14.98 141.495 14.86C141.355 14.74 141.265 14.66 141.225 14.62C141.165 14.68 141.075 14.8 140.955 14.98C140.835 15.16 140.685 15.36 140.505 15.58C140.345 15.78 140.165 15.96 139.965 16.12C139.785 16.28 139.595 16.36 139.395 16.36C138.875 16.36 138.425 16.08 138.045 15.52C137.665 14.96 137.345 14.32 137.085 13.6C136.845 12.88 136.655 12.19 136.515 11.53C136.395 10.85 136.335 10.39 136.335 10.15C136.335 10.01 136.405 9.9 136.545 9.82C136.705 9.72 136.825 9.67 136.905 9.67C137.185 9.67 137.375 9.77 137.475 9.97C137.575 10.15 137.625 10.35 137.625 10.57C137.625 10.75 137.675 11.07 137.775 11.53C137.895 11.99 138.035 12.46 138.195 12.94C138.355 13.42 138.525 13.85 138.705 14.23C138.885 14.59 139.045 14.77 139.185 14.77C139.445 14.77 139.665 14.61 139.845 14.29C140.045 13.95 140.205 13.57 140.325 13.15C140.445 12.71 140.535 12.3 140.595 11.92C140.655 11.52 140.685 11.26 140.685 11.14C140.685 11.12 140.685 11.06 140.685 10.96C140.705 10.84 140.725 10.72 140.745 10.6C140.765 10.48 140.775 10.37 140.775 10.27C140.795 10.17 140.805 10.1 140.805 10.06C140.805 9.92 140.775 9.83 140.715 9.79C140.655 9.73 140.625 9.62 140.625 9.46C140.625 9.34 140.685 9.23 140.805 9.13C140.925 9.01 141.185 8.95 141.585 8.95C141.745 8.95 141.865 9 141.945 9.1C142.045 9.18 142.115 9.28 142.155 9.4C142.195 9.52 142.215 9.64 142.215 9.76C142.235 9.86 142.245 9.93 142.245 9.97C142.245 9.99 142.235 10.13 142.215 10.39C142.195 10.65 142.175 10.94 142.155 11.26C142.155 11.56 142.145 11.85 142.125 12.13C142.105 12.41 142.095 12.58 142.095 12.64C142.095 12.7 142.125 12.82 142.185 13C142.245 13.18 142.315 13.37 142.395 13.57C142.495 13.75 142.605 13.92 142.725 14.08C142.845 14.22 142.975 14.29 143.115 14.29C143.355 14.29 143.575 14.26 143.775 14.2C143.995 14.12 144.195 14.04 144.375 13.96C144.575 13.86 144.755 13.78 144.915 13.72C145.075 13.64 145.225 13.6 145.365 13.6C145.545 13.6 145.705 13.64 145.845 13.72C146.005 13.8 146.085 13.9 146.085 14.02ZM155.629 15.85C155.649 15.89 155.659 15.95 155.659 16.03C155.659 16.15 155.569 16.33 155.389 16.57C155.329 16.65 155.199 16.78 154.999 16.96C154.799 17.14 154.529 17.32 154.189 17.5C153.849 17.68 153.429 17.84 152.929 17.98C152.449 18.12 151.879 18.19 151.219 18.19C150.759 18.19 150.309 18.09 149.869 17.89C149.429 17.67 149.039 17.36 148.699 16.96C148.359 16.54 148.079 16.03 147.859 15.43C147.639 14.81 147.529 14.09 147.529 13.27C147.529 12.49 147.629 11.76 147.829 11.08C148.029 10.4 148.279 9.8 148.579 9.28C148.899 8.76 149.249 8.35 149.629 8.05C150.009 7.75 150.379 7.6 150.739 7.6C151.059 7.6 151.379 7.67 151.699 7.81C152.039 7.93 152.339 8.09 152.599 8.29C152.879 8.49 153.099 8.72 153.259 8.98C153.419 9.22 153.499 9.47 153.499 9.73C153.499 10.03 153.359 10.34 153.079 10.66C152.819 10.98 152.499 11.28 152.119 11.56C151.739 11.82 151.359 12.04 150.979 12.22C150.599 12.38 150.299 12.46 150.079 12.46C149.959 12.46 149.849 12.41 149.749 12.31C149.669 12.19 149.629 12.05 149.629 11.89C149.629 11.61 149.749 11.39 149.989 11.23C150.249 11.07 150.529 10.93 150.829 10.81C151.129 10.67 151.399 10.51 151.639 10.33C151.899 10.15 152.029 9.9 152.029 9.58C152.029 9.54 151.979 9.44 151.879 9.28C151.779 9.12 151.509 9.04 151.069 9.04C150.869 9.04 150.639 9.16 150.379 9.4C150.119 9.62 149.869 9.93 149.629 10.33C149.389 10.71 149.189 11.17 149.029 11.71C148.869 12.23 148.789 12.8 148.789 13.42C148.789 13.94 148.879 14.41 149.059 14.83C149.259 15.25 149.509 15.61 149.809 15.91C150.109 16.19 150.459 16.41 150.859 16.57C151.259 16.73 151.669 16.81 152.089 16.81C152.389 16.81 152.709 16.75 153.049 16.63C153.409 16.49 153.739 16.35 154.039 16.21C154.359 16.05 154.629 15.91 154.849 15.79C155.089 15.65 155.239 15.58 155.299 15.58C155.359 15.58 155.419 15.61 155.479 15.67C155.559 15.73 155.609 15.79 155.629 15.85ZM178.12 5.44C177.86 5.74 177.49 6.04 177.01 6.34C176.53 6.62 176.05 6.88 175.57 7.12C175.09 7.36 174.67 7.57 174.31 7.75C173.95 7.91 173.77 8.02 173.77 8.08C173.77 8.14 173.81 8.32 173.89 8.62C173.97 8.92 174.06 9.28 174.16 9.7C174.28 10.1 174.4 10.52 174.52 10.96C174.64 11.4 174.74 11.79 174.82 12.13C174.86 12.33 174.91 12.59 174.97 12.91C175.03 13.23 175.08 13.55 175.12 13.87C175.18 14.19 175.23 14.48 175.27 14.74C175.31 14.98 175.33 15.11 175.33 15.13C175.33 15.43 175.28 15.74 175.18 16.06C175.08 16.38 174.92 16.54 174.7 16.54C174.58 16.54 174.47 16.49 174.37 16.39C174.27 16.29 174.18 16.18 174.1 16.06C174.02 15.92 173.96 15.79 173.92 15.67C173.88 15.55 173.86 15.46 173.86 15.4C173.86 15.36 173.86 15.3 173.86 15.22C173.88 15.14 173.89 15.05 173.89 14.95C173.89 14.57 173.83 14.02 173.71 13.3C173.67 13.08 173.59 12.74 173.47 12.28C173.35 11.82 173.23 11.35 173.11 10.87C172.97 10.31 172.81 9.7 172.63 9.04C172.55 8.76 172.5 8.62 172.48 8.62C172.34 8.62 172.1 8.71 171.76 8.89C171.44 9.05 171.07 9.26 170.65 9.52C170.23 9.76 169.79 10.03 169.33 10.33C168.87 10.61 168.44 10.88 168.04 11.14C167.64 11.38 167.3 11.59 167.02 11.77C166.72 11.93 166.54 12.01 166.48 12.01C166.22 12.01 166.01 11.92 165.85 11.74C165.69 11.56 165.61 11.36 165.61 11.14C165.61 11.02 165.78 10.85 166.12 10.63C166.44 10.39 166.85 10.13 167.35 9.85C167.83 9.57 168.36 9.28 168.94 8.98C169.5 8.68 170.02 8.41 170.5 8.17C171 7.93 171.41 7.73 171.73 7.57C172.07 7.41 172.24 7.33 172.24 7.33C172.06 6.41 171.91 5.59 171.79 4.87C171.69 4.25 171.59 3.68 171.49 3.16C171.41 2.64 171.37 2.36 171.37 2.32C171.37 2.06 171.42 1.87 171.52 1.75C171.64 1.61 171.77 1.54 171.91 1.54C172.13 1.54 172.27 1.69 172.33 1.99C172.55 3.07 172.75 4.03 172.93 4.87C173.13 5.71 173.32 6.39 173.5 6.91C173.68 6.87 173.99 6.76 174.43 6.58C174.87 6.38 175.33 6.17 175.81 5.95C176.29 5.73 176.72 5.54 177.1 5.38C177.5 5.2 177.73 5.11 177.79 5.11C177.91 5.11 177.98 5.15 178 5.23C178.04 5.31 178.08 5.38 178.12 5.44ZM189.62 14.02C189.62 14.2 189.5 14.39 189.26 14.59C189.02 14.79 188.74 14.98 188.42 15.16C188.1 15.32 187.77 15.46 187.43 15.58C187.11 15.7 186.87 15.76 186.71 15.76C186.53 15.76 186.33 15.71 186.11 15.61C185.91 15.51 185.71 15.39 185.51 15.25C185.33 15.11 185.17 14.98 185.03 14.86C184.89 14.74 184.8 14.66 184.76 14.62C184.7 14.68 184.61 14.8 184.49 14.98C184.37 15.16 184.22 15.36 184.04 15.58C183.88 15.78 183.7 15.96 183.5 16.12C183.32 16.28 183.13 16.36 182.93 16.36C182.41 16.36 181.96 16.08 181.58 15.52C181.2 14.96 180.88 14.32 180.62 13.6C180.38 12.88 180.19 12.19 180.05 11.53C179.93 10.85 179.87 10.39 179.87 10.15C179.87 10.01 179.94 9.9 180.08 9.82C180.24 9.72 180.36 9.67 180.44 9.67C180.72 9.67 180.91 9.77 181.01 9.97C181.11 10.15 181.16 10.35 181.16 10.57C181.16 10.75 181.21 11.07 181.31 11.53C181.43 11.99 181.57 12.46 181.73 12.94C181.89 13.42 182.06 13.85 182.24 14.23C182.42 14.59 182.58 14.77 182.72 14.77C182.98 14.77 183.2 14.61 183.38 14.29C183.58 13.95 183.74 13.57 183.86 13.15C183.98 12.71 184.07 12.3 184.13 11.92C184.19 11.52 184.22 11.26 184.22 11.14C184.22 11.12 184.22 11.06 184.22 10.96C184.24 10.84 184.26 10.72 184.28 10.6C184.3 10.48 184.31 10.37 184.31 10.27C184.33 10.17 184.34 10.1 184.34 10.06C184.34 9.92 184.31 9.83 184.25 9.79C184.19 9.73 184.16 9.62 184.16 9.46C184.16 9.34 184.22 9.23 184.34 9.13C184.46 9.01 184.72 8.95 185.12 8.95C185.28 8.95 185.4 9 185.48 9.1C185.58 9.18 185.65 9.28 185.69 9.4C185.73 9.52 185.75 9.64 185.75 9.76C185.77 9.86 185.78 9.93 185.78 9.97C185.78 9.99 185.77 10.13 185.75 10.39C185.73 10.65 185.71 10.94 185.69 11.26C185.69 11.56 185.68 11.85 185.66 12.13C185.64 12.41 185.63 12.58 185.63 12.64C185.63 12.7 185.66 12.82 185.72 13C185.78 13.18 185.85 13.37 185.93 13.57C186.03 13.75 186.14 13.92 186.26 14.08C186.38 14.22 186.51 14.29 186.65 14.29C186.89 14.29 187.11 14.26 187.31 14.2C187.53 14.12 187.73 14.04 187.91 13.96C188.11 13.86 188.29 13.78 188.45 13.72C188.61 13.64 188.76 13.6 188.9 13.6C189.08 13.6 189.24 13.64 189.38 13.72C189.54 13.8 189.62 13.9 189.62 14.02ZM211.886 13.54C211.886 13.74 211.856 13.95 211.796 14.17C211.736 14.37 211.676 14.54 211.616 14.68C211.576 14.74 211.386 14.95 211.046 15.31C210.726 15.65 210.316 16.01 209.816 16.39C209.336 16.77 208.786 17.12 208.166 17.44C207.566 17.74 206.986 17.89 206.426 17.89C206.086 17.89 205.736 17.83 205.376 17.71C205.036 17.59 204.716 17.4 204.416 17.14C204.116 16.86 203.866 16.52 203.666 16.12C203.486 15.72 203.396 15.23 203.396 14.65C203.396 13.69 203.556 12.82 203.876 12.04C204.196 11.26 204.516 10.64 204.836 10.18C204.976 9.96 205.156 9.74 205.376 9.52C205.616 9.28 205.846 9.07 206.066 8.89C206.286 8.69 206.486 8.53 206.666 8.41C206.866 8.29 207.006 8.23 207.086 8.23C207.266 8.23 207.426 8.28 207.566 8.38C207.726 8.48 207.806 8.58 207.806 8.68C207.806 8.84 207.756 8.98 207.656 9.1C207.576 9.2 207.456 9.32 207.296 9.46C207.136 9.58 206.946 9.75 206.726 9.97C206.506 10.17 206.276 10.44 206.036 10.78C205.556 11.44 205.196 12.12 204.956 12.82C204.736 13.5 204.626 14.1 204.626 14.62C204.626 15.14 204.816 15.56 205.196 15.88C205.596 16.18 206.006 16.33 206.426 16.33C207.186 16.33 207.856 16.16 208.436 15.82C209.036 15.48 209.546 15.1 209.966 14.68C210.386 14.26 210.726 13.88 210.986 13.54C211.246 13.2 211.436 13.03 211.556 13.03C211.776 13.03 211.886 13.2 211.886 13.54ZM219.661 12.52C219.661 12.96 219.601 13.38 219.481 13.78C219.361 14.18 219.201 14.53 219.001 14.83C218.801 15.13 218.561 15.37 218.281 15.55C218.021 15.71 217.731 15.79 217.411 15.79C216.851 15.79 216.411 15.63 216.091 15.31C215.771 14.99 215.521 14.62 215.341 14.2C215.181 13.78 215.071 13.36 215.011 12.94C214.971 12.5 214.951 12.17 214.951 11.95C214.951 11.59 215.001 11.19 215.101 10.75C215.221 10.29 215.371 9.87 215.551 9.49C215.751 9.11 215.971 8.79 216.211 8.53C216.451 8.27 216.701 8.14 216.961 8.14C217.021 8.14 217.111 8.16 217.231 8.2C217.371 8.24 217.511 8.3 217.651 8.38C217.791 8.46 217.911 8.56 218.011 8.68C218.131 8.8 218.211 8.94 218.251 9.1C218.471 9.12 218.691 9.2 218.911 9.34C219.131 9.48 219.251 9.59 219.271 9.67C219.431 10.19 219.531 10.71 219.571 11.23C219.631 11.75 219.661 12.18 219.661 12.52ZM218.311 11.98C218.311 11.68 218.281 11.37 218.221 11.05C218.161 10.71 218.041 10.37 217.861 10.03C217.821 10.05 217.771 10.06 217.711 10.06C217.631 10.06 217.561 10.05 217.501 10.03C217.461 10.01 217.421 10 217.381 10C217.141 10 216.951 10.07 216.811 10.21C216.671 10.33 216.561 10.5 216.481 10.72C216.421 10.92 216.381 11.14 216.361 11.38C216.341 11.62 216.331 11.85 216.331 12.07C216.331 12.29 216.341 12.54 216.361 12.82C216.381 13.08 216.421 13.33 216.481 13.57C216.561 13.81 216.661 14.02 216.781 14.2C216.901 14.36 217.061 14.44 217.261 14.44C217.461 14.44 217.631 14.34 217.771 14.14C217.911 13.92 218.021 13.67 218.101 13.39C218.181 13.11 218.231 12.84 218.251 12.58C218.291 12.3 218.311 12.1 218.311 11.98ZM231.699 15.31C231.699 15.43 231.659 15.55 231.579 15.67C231.499 15.79 231.399 15.9 231.279 16C231.179 16.1 231.059 16.19 230.919 16.27C230.799 16.33 230.689 16.36 230.589 16.36C230.249 16.36 229.809 16.29 229.269 16.15C228.749 15.99 228.329 15.75 228.009 15.43C227.669 15.09 227.369 14.69 227.109 14.23C226.849 13.75 226.559 13.05 226.239 12.13C226.019 13.01 225.759 13.88 225.459 14.74C225.179 15.6 224.719 16.39 224.079 17.11C224.039 17.15 223.979 17.17 223.899 17.17C223.759 17.17 223.609 17.1 223.449 16.96C223.289 16.82 223.209 16.68 223.209 16.54C223.209 16.4 223.189 16.08 223.149 15.58C223.129 15.06 223.099 14.49 223.059 13.87C223.019 13.23 222.979 12.59 222.939 11.95C222.919 11.29 222.909 10.75 222.909 10.33C222.909 10.13 222.919 9.87 222.939 9.55C222.959 9.21 223.019 8.92 223.119 8.68C223.139 8.64 223.209 8.56 223.329 8.44C223.469 8.32 223.619 8.26 223.779 8.26C223.919 8.26 223.999 8.35 224.019 8.53C224.039 8.71 224.049 8.91 224.049 9.13V13.87C224.049 13.97 224.059 14.11 224.079 14.29C224.119 14.47 224.169 14.6 224.229 14.68C224.449 14.2 224.649 13.64 224.829 13C225.029 12.34 225.219 11.72 225.399 11.14C225.579 10.54 225.759 10.04 225.939 9.64C226.119 9.22 226.299 9.01 226.479 9.01C226.679 9.01 226.839 9.05 226.959 9.13C227.079 9.21 227.179 9.37 227.259 9.61C227.359 10.19 227.439 10.71 227.499 11.17C227.559 11.61 227.629 12.01 227.709 12.37C227.809 12.73 227.939 13.07 228.099 13.39C228.279 13.69 228.519 13.97 228.819 14.23C229.099 14.49 229.409 14.68 229.749 14.8C230.109 14.92 230.419 14.98 230.679 14.98C230.799 14.98 230.929 14.96 231.069 14.92C231.209 14.86 231.309 14.83 231.369 14.83C231.449 14.83 231.519 14.9 231.579 15.04C231.659 15.18 231.699 15.27 231.699 15.31ZM242.246 15.31C242.246 15.43 242.206 15.55 242.126 15.67C242.046 15.79 241.946 15.9 241.826 16C241.726 16.1 241.606 16.19 241.466 16.27C241.346 16.33 241.236 16.36 241.136 16.36C240.796 16.36 240.356 16.29 239.816 16.15C239.296 15.99 238.876 15.75 238.556 15.43C238.216 15.09 237.916 14.69 237.656 14.23C237.396 13.75 237.106 13.05 236.786 12.13C236.566 13.01 236.306 13.88 236.006 14.74C235.726 15.6 235.266 16.39 234.626 17.11C234.586 17.15 234.526 17.17 234.446 17.17C234.306 17.17 234.156 17.1 233.996 16.96C233.836 16.82 233.756 16.68 233.756 16.54C233.756 16.4 233.736 16.08 233.696 15.58C233.676 15.06 233.646 14.49 233.606 13.87C233.566 13.23 233.526 12.59 233.486 11.95C233.466 11.29 233.456 10.75 233.456 10.33C233.456 10.13 233.466 9.87 233.486 9.55C233.506 9.21 233.566 8.92 233.666 8.68C233.686 8.64 233.756 8.56 233.876 8.44C234.016 8.32 234.166 8.26 234.326 8.26C234.466 8.26 234.546 8.35 234.566 8.53C234.586 8.71 234.596 8.91 234.596 9.13V13.87C234.596 13.97 234.606 14.11 234.626 14.29C234.666 14.47 234.716 14.6 234.776 14.68C234.996 14.2 235.196 13.64 235.376 13C235.576 12.34 235.766 11.72 235.946 11.14C236.126 10.54 236.306 10.04 236.486 9.64C236.666 9.22 236.846 9.01 237.026 9.01C237.226 9.01 237.386 9.05 237.506 9.13C237.626 9.21 237.726 9.37 237.806 9.61C237.906 10.19 237.986 10.71 238.046 11.17C238.106 11.61 238.176 12.01 238.256 12.37C238.356 12.73 238.486 13.07 238.646 13.39C238.826 13.69 239.066 13.97 239.366 14.23C239.646 14.49 239.956 14.68 240.296 14.8C240.656 14.92 240.966 14.98 241.226 14.98C241.346 14.98 241.476 14.96 241.616 14.92C241.756 14.86 241.856 14.83 241.916 14.83C241.996 14.83 242.066 14.9 242.126 15.04C242.206 15.18 242.246 15.27 242.246 15.31ZM258.043 12.76C258.043 13.12 257.873 13.57 257.533 14.11C257.213 14.63 256.773 15.14 256.213 15.64C255.653 16.14 255.003 16.57 254.263 16.93C253.523 17.27 252.753 17.44 251.953 17.44C251.593 17.44 251.213 17.38 250.813 17.26C250.413 17.14 250.023 16.97 249.643 16.75C249.263 16.51 248.923 16.23 248.623 15.91C248.323 15.57 248.103 15.19 247.963 14.77C247.843 14.89 247.693 15.09 247.513 15.37C247.353 15.65 247.173 15.94 246.973 16.24C246.773 16.52 246.553 16.77 246.313 16.99C246.073 17.19 245.823 17.29 245.563 17.29C245.303 17.29 245.083 17.16 244.903 16.9C244.743 16.62 244.613 16.32 244.513 16C244.413 15.66 244.343 15.34 244.303 15.04C244.263 14.74 244.243 14.57 244.243 14.53C244.243 14.29 244.313 13.84 244.453 13.18C244.593 12.5 244.803 11.8 245.083 11.08C245.363 10.36 245.713 9.72 246.133 9.16C246.573 8.6 247.083 8.32 247.663 8.32C247.883 8.32 248.023 8.42 248.083 8.62C248.163 8.8 248.203 8.98 248.203 9.16V10.06C248.303 10.14 248.403 10.2 248.503 10.24C248.623 10.26 248.723 10.3 248.803 10.36C248.903 10.4 248.973 10.47 249.013 10.57C249.073 10.67 249.103 10.83 249.103 11.05C249.103 11.19 249.093 11.32 249.073 11.44C249.053 11.54 249.043 11.64 249.043 11.74C249.043 12.26 249.083 12.77 249.163 13.27C249.243 13.77 249.403 14.22 249.643 14.62C249.883 15 250.213 15.32 250.633 15.58C251.053 15.82 251.613 15.94 252.313 15.94C253.193 15.94 253.933 15.76 254.533 15.4C255.153 15.02 255.663 14.61 256.063 14.17C256.483 13.71 256.813 13.3 257.053 12.94C257.293 12.56 257.493 12.37 257.653 12.37C257.913 12.37 258.043 12.5 258.043 12.76ZM247.513 11.44C247.513 11.36 247.493 11.29 247.453 11.23C247.413 11.15 247.393 11.08 247.393 11.02C247.393 10.94 247.413 10.87 247.453 10.81C247.493 10.75 247.513 10.67 247.513 10.57C247.513 10.51 247.493 10.47 247.453 10.45C247.413 10.41 247.393 10.37 247.393 10.33C247.213 10.37 247.023 10.54 246.823 10.84C246.643 11.14 246.463 11.49 246.283 11.89C246.123 12.29 245.993 12.7 245.893 13.12C245.793 13.52 245.743 13.85 245.743 14.11C245.743 14.25 245.783 14.48 245.863 14.8C245.943 15.12 246.033 15.33 246.133 15.43C246.473 14.73 246.783 14.05 247.063 13.39C247.363 12.73 247.513 12.08 247.513 11.44ZM260.182 5.2C260.182 5.24 260.112 5.32 259.972 5.44C259.832 5.56 259.662 5.69 259.462 5.83C259.282 5.95 259.092 6.06 258.892 6.16C258.692 6.26 258.532 6.31 258.412 6.31C258.332 6.31 258.222 6.31 258.082 6.31C257.962 6.29 257.832 6.25 257.692 6.19C257.572 6.13 257.462 6.05 257.362 5.95C257.262 5.83 257.212 5.68 257.212 5.5C257.212 5.22 257.312 4.96 257.512 4.72C257.712 4.46 257.972 4.33 258.292 4.33C258.352 4.33 258.482 4.36 258.682 4.42C258.902 4.46 259.122 4.52 259.342 4.6C259.562 4.68 259.752 4.77 259.912 4.87C260.092 4.97 260.182 5.08 260.182 5.2ZM261.172 16.42C261.172 16.56 261.062 16.68 260.842 16.78C260.642 16.88 260.492 16.93 260.392 16.93C260.192 16.93 260.012 16.8 259.852 16.54C259.692 16.28 259.552 15.98 259.432 15.64C259.312 15.3 259.212 14.98 259.132 14.68C259.052 14.36 258.992 14.14 258.952 14.02C258.892 13.82 258.812 13.58 258.712 13.3C258.612 13.02 258.512 12.75 258.412 12.49C258.332 12.23 258.262 12 258.202 11.8C258.142 11.6 258.112 11.49 258.112 11.47C258.112 11.19 258.162 10.93 258.262 10.69C258.382 10.45 258.522 10.33 258.682 10.33C258.862 10.33 259.052 10.47 259.252 10.75C259.452 11.03 259.642 11.39 259.822 11.83C260.022 12.25 260.202 12.72 260.362 13.24C260.522 13.74 260.662 14.22 260.782 14.68C260.902 15.12 260.992 15.51 261.052 15.85C261.132 16.17 261.172 16.36 261.172 16.42ZM269.82 15.04C269.82 15.38 269.7 15.68 269.46 15.94C269.24 16.18 268.95 16.39 268.59 16.57C268.25 16.73 267.87 16.86 267.45 16.96C267.03 17.06 266.63 17.14 266.25 17.2C265.87 17.24 265.53 17.27 265.23 17.29C264.95 17.29 264.77 17.29 264.69 17.29C264.25 17.29 263.91 17.22 263.67 17.08C263.43 16.94 263.31 16.69 263.31 16.33C263.31 16.21 263.32 16.11 263.34 16.03C263.36 15.93 263.44 15.88 263.58 15.88C263.64 15.88 263.74 15.9 263.88 15.94C264.02 15.96 264.13 15.97 264.21 15.97C264.29 15.97 264.54 15.96 264.96 15.94C265.4 15.9 265.86 15.84 266.34 15.76C266.84 15.68 267.28 15.57 267.66 15.43C268.06 15.27 268.26 15.07 268.26 14.83C268.26 14.79 268.05 14.67 267.63 14.47C267.23 14.25 266.62 13.89 265.8 13.39C265.16 12.99 264.71 12.59 264.45 12.19C264.19 11.77 264.06 11.21 264.06 10.51C264.06 10.07 264.15 9.71 264.33 9.43C264.53 9.15 264.79 8.93 265.11 8.77C265.45 8.61 265.83 8.5 266.25 8.44C266.69 8.36 267.15 8.32 267.63 8.32C267.67 8.32 267.79 8.34 267.99 8.38C268.21 8.42 268.44 8.49 268.68 8.59C268.92 8.67 269.13 8.78 269.31 8.92C269.51 9.04 269.61 9.18 269.61 9.34C269.61 9.38 269.57 9.44 269.49 9.52C269.43 9.6 269.32 9.75 269.16 9.97C269.1 9.95 268.99 9.92 268.83 9.88C268.69 9.84 268.52 9.8 268.32 9.76C268.14 9.7 267.95 9.66 267.75 9.64C267.55 9.6 267.39 9.58 267.27 9.58C266.75 9.58 266.33 9.68 266.01 9.88C265.69 10.06 265.53 10.42 265.53 10.96C265.53 11.22 265.63 11.46 265.83 11.68C266.05 11.9 266.32 12.11 266.64 12.31C266.96 12.49 267.3 12.68 267.66 12.88C268.04 13.06 268.39 13.26 268.71 13.48C269.03 13.7 269.29 13.94 269.49 14.2C269.71 14.44 269.82 14.72 269.82 15.04ZM30.1363 40.13C30.1363 40.29 30.0763 40.41 29.9563 40.49C29.8363 40.57 29.6963 40.61 29.5363 40.61C29.3563 40.61 29.1663 40.44 28.9663 40.1C28.7863 39.76 28.6063 39.33 28.4263 38.81C28.2463 38.29 28.0763 37.73 27.9163 37.13C27.7563 36.51 27.6163 35.94 27.4963 35.42C27.3763 34.88 27.2763 34.43 27.1963 34.07C27.1363 33.71 27.1063 33.51 27.1063 33.47C27.1063 33.39 27.0663 33.18 26.9863 32.84C26.9263 32.5 26.8363 31.97 26.7163 31.25C26.6163 30.53 26.4963 29.6 26.3563 28.46C26.2363 27.3 26.1063 25.87 25.9663 24.17C25.9663 23.99 25.9963 23.76 26.0563 23.48C26.1163 23.2 26.2563 23.06 26.4763 23.06C26.7563 23.06 26.9663 23.25 27.1063 23.63C27.2663 24.01 27.3863 24.48 27.4663 25.04C27.5663 25.6 27.6363 26.19 27.6763 26.81C27.7163 27.41 27.7663 27.94 27.8263 28.4C27.9063 29.04 27.9763 29.62 28.0363 30.14C28.1163 30.66 28.1863 31.18 28.2463 31.7C28.3263 32.2 28.4163 32.73 28.5163 33.29C28.6363 33.85 28.7763 34.47 28.9363 35.15L30.1363 40.13ZM40.8144 37.85C40.8344 37.89 40.8444 37.95 40.8444 38.03C40.8444 38.15 40.7544 38.33 40.5744 38.57C40.5144 38.65 40.3844 38.78 40.1844 38.96C39.9844 39.14 39.7144 39.32 39.3744 39.5C39.0344 39.68 38.6144 39.84 38.1144 39.98C37.6344 40.12 37.0644 40.19 36.4044 40.19C35.9444 40.19 35.4944 40.09 35.0544 39.89C34.6144 39.67 34.2244 39.36 33.8844 38.96C33.5444 38.54 33.2644 38.03 33.0444 37.43C32.8244 36.81 32.7144 36.09 32.7144 35.27C32.7144 34.49 32.8144 33.76 33.0144 33.08C33.2144 32.4 33.4644 31.8 33.7644 31.28C34.0844 30.76 34.4344 30.35 34.8144 30.05C35.1944 29.75 35.5644 29.6 35.9244 29.6C36.2444 29.6 36.5644 29.67 36.8844 29.81C37.2244 29.93 37.5244 30.09 37.7844 30.29C38.0644 30.49 38.2844 30.72 38.4444 30.98C38.6044 31.22 38.6844 31.47 38.6844 31.73C38.6844 32.03 38.5444 32.34 38.2644 32.66C38.0044 32.98 37.6844 33.28 37.3044 33.56C36.9244 33.82 36.5444 34.04 36.1644 34.22C35.7844 34.38 35.4844 34.46 35.2644 34.46C35.1444 34.46 35.0344 34.41 34.9344 34.31C34.8544 34.19 34.8144 34.05 34.8144 33.89C34.8144 33.61 34.9344 33.39 35.1744 33.23C35.4344 33.07 35.7144 32.93 36.0144 32.81C36.3144 32.67 36.5844 32.51 36.8244 32.33C37.0844 32.15 37.2144 31.9 37.2144 31.58C37.2144 31.54 37.1644 31.44 37.0644 31.28C36.9644 31.12 36.6944 31.04 36.2544 31.04C36.0544 31.04 35.8244 31.16 35.5644 31.4C35.3044 31.62 35.0544 31.93 34.8144 32.33C34.5744 32.71 34.3744 33.17 34.2144 33.71C34.0544 34.23 33.9744 34.8 33.9744 35.42C33.9744 35.94 34.0644 36.41 34.2444 36.83C34.4444 37.25 34.6944 37.61 34.9944 37.91C35.2944 38.19 35.6444 38.41 36.0444 38.57C36.4444 38.73 36.8544 38.81 37.2744 38.81C37.5744 38.81 37.8944 38.75 38.2344 38.63C38.5944 38.49 38.9244 38.35 39.2244 38.21C39.5444 38.05 39.8144 37.91 40.0344 37.79C40.2744 37.65 40.4244 37.58 40.4844 37.58C40.5444 37.58 40.6044 37.61 40.6644 37.67C40.7444 37.73 40.7944 37.79 40.8144 37.85ZM49.6834 37.04C49.6834 37.38 49.5634 37.68 49.3234 37.94C49.1034 38.18 48.8134 38.39 48.4534 38.57C48.1134 38.73 47.7334 38.86 47.3134 38.96C46.8934 39.06 46.4934 39.14 46.1134 39.2C45.7334 39.24 45.3934 39.27 45.0934 39.29C44.8134 39.29 44.6334 39.29 44.5534 39.29C44.1134 39.29 43.7734 39.22 43.5334 39.08C43.2934 38.94 43.1734 38.69 43.1734 38.33C43.1734 38.21 43.1834 38.11 43.2034 38.03C43.2234 37.93 43.3034 37.88 43.4434 37.88C43.5034 37.88 43.6034 37.9 43.7434 37.94C43.8834 37.96 43.9934 37.97 44.0734 37.97C44.1534 37.97 44.4034 37.96 44.8234 37.94C45.2634 37.9 45.7234 37.84 46.2034 37.76C46.7034 37.68 47.1434 37.57 47.5234 37.43C47.9234 37.27 48.1234 37.07 48.1234 36.83C48.1234 36.79 47.9134 36.67 47.4934 36.47C47.0934 36.25 46.4834 35.89 45.6634 35.39C45.0234 34.99 44.5734 34.59 44.3134 34.19C44.0534 33.77 43.9234 33.21 43.9234 32.51C43.9234 32.07 44.0134 31.71 44.1934 31.43C44.3934 31.15 44.6534 30.93 44.9734 30.77C45.3134 30.61 45.6934 30.5 46.1134 30.44C46.5534 30.36 47.0134 30.32 47.4934 30.32C47.5334 30.32 47.6534 30.34 47.8534 30.38C48.0734 30.42 48.3034 30.49 48.5434 30.59C48.7834 30.67 48.9934 30.78 49.1734 30.92C49.3734 31.04 49.4734 31.18 49.4734 31.34C49.4734 31.38 49.4334 31.44 49.3534 31.52C49.2934 31.6 49.1834 31.75 49.0234 31.97C48.9634 31.95 48.8534 31.92 48.6934 31.88C48.5534 31.84 48.3834 31.8 48.1834 31.76C48.0034 31.7 47.8134 31.66 47.6134 31.64C47.4134 31.6 47.2534 31.58 47.1334 31.58C46.6134 31.58 46.1934 31.68 45.8734 31.88C45.5534 32.06 45.3934 32.42 45.3934 32.96C45.3934 33.22 45.4934 33.46 45.6934 33.68C45.9134 33.9 46.1834 34.11 46.5034 34.31C46.8234 34.49 47.1634 34.68 47.5234 34.88C47.9034 35.06 48.2534 35.26 48.5734 35.48C48.8934 35.7 49.1534 35.94 49.3534 36.2C49.5734 36.44 49.6834 36.72 49.6834 37.04ZM73.1617 36.17C73.1617 36.27 73.1117 36.37 73.0117 36.47C72.9317 36.55 72.8817 36.64 72.8617 36.74C72.8617 36.96 72.9017 37.17 72.9817 37.37C73.0817 37.57 73.1317 37.81 73.1317 38.09C73.1317 38.35 73.0517 38.48 72.8917 38.48C72.6917 38.48 72.5417 38.51 72.4417 38.57C72.3617 38.61 72.2117 38.65 71.9917 38.69C71.8717 38.69 71.7417 38.58 71.6017 38.36C71.5217 38.26 71.4517 38.14 71.3917 38C71.3917 37.98 71.3317 38.02 71.2117 38.12C71.1117 38.22 70.9317 38.34 70.6717 38.48C70.4317 38.6 70.0917 38.72 69.6517 38.84C69.2317 38.94 68.6917 38.99 68.0317 38.99C67.4717 38.99 66.9817 38.87 66.5617 38.63C66.1417 38.37 65.7917 38.04 65.5117 37.64C65.2517 37.24 65.0517 36.79 64.9117 36.29C64.7917 35.77 64.7317 35.25 64.7317 34.73C64.7317 34.25 64.7817 33.8 64.8817 33.38C65.0017 32.94 65.1617 32.56 65.3617 32.24C65.5617 31.9 65.8117 31.63 66.1117 31.43C66.4117 31.23 66.7617 31.13 67.1617 31.13C67.5417 31.13 67.9217 31.25 68.3017 31.49C68.6817 31.73 69.0217 31.99 69.3217 32.27C69.6217 32.55 69.8617 32.81 70.0417 33.05C70.2417 33.27 70.3417 33.38 70.3417 33.38C70.0617 31.82 69.8117 30.41 69.5917 29.15C69.4917 28.61 69.3917 28.08 69.2917 27.56C69.2117 27.02 69.1317 26.54 69.0517 26.12C68.9717 25.7 68.9017 25.35 68.8417 25.07C68.8017 24.77 68.7817 24.59 68.7817 24.53C68.7617 24.41 68.7417 24.2 68.7217 23.9C68.7017 23.58 68.6817 23.25 68.6617 22.91C68.6417 22.57 68.6217 22.26 68.6017 21.98C68.5817 21.7 68.5617 21.52 68.5417 21.44C68.4817 21.24 68.4017 20.99 68.3017 20.69C68.2217 20.39 68.1817 20.22 68.1817 20.18C68.1817 20.08 68.2317 19.96 68.3317 19.82C68.4317 19.66 68.5617 19.58 68.7217 19.58C68.8417 19.58 68.9517 19.59 69.0517 19.61C69.1517 19.63 69.2417 19.69 69.3217 19.79C69.4017 19.89 69.4717 20.05 69.5317 20.27C69.6117 20.47 69.6817 20.76 69.7417 21.14C69.7617 21.34 69.8217 21.72 69.9217 22.28C70.0217 22.84 70.1217 23.45 70.2217 24.11C70.3217 24.77 70.4217 25.4 70.5217 26C70.6217 26.6 70.6917 27.04 70.7317 27.32C70.8317 28.08 70.9617 28.91 71.1217 29.81C71.3017 30.69 71.4817 31.54 71.6617 32.36C71.8417 33.18 72.0217 33.91 72.2017 34.55C72.3817 35.17 72.5417 35.59 72.6817 35.81C72.7217 35.89 72.8017 35.95 72.9217 35.99C73.0417 36.01 73.1217 36.07 73.1617 36.17ZM70.9417 36.77C70.9217 36.71 70.7917 36.46 70.5517 36.02C70.3317 35.56 70.0417 35.07 69.6817 34.55C69.3417 34.01 68.9517 33.53 68.5117 33.11C68.0917 32.69 67.6817 32.48 67.2817 32.48C66.9417 32.48 66.6617 32.74 66.4417 33.26C66.2417 33.78 66.1417 34.38 66.1417 35.06C66.1417 35.82 66.3617 36.43 66.8017 36.89C67.2617 37.35 67.7717 37.58 68.3317 37.58C68.8117 37.58 69.3117 37.5 69.8317 37.34C70.3517 37.18 70.7217 36.99 70.9417 36.77ZM77.2522 27.2C77.2522 27.24 77.1822 27.32 77.0422 27.44C76.9022 27.56 76.7322 27.69 76.5322 27.83C76.3522 27.95 76.1622 28.06 75.9622 28.16C75.7622 28.26 75.6022 28.31 75.4822 28.31C75.4022 28.31 75.2922 28.31 75.1522 28.31C75.0322 28.29 74.9022 28.25 74.7622 28.19C74.6422 28.13 74.5322 28.05 74.4322 27.95C74.3322 27.83 74.2822 27.68 74.2822 27.5C74.2822 27.22 74.3822 26.96 74.5822 26.72C74.7822 26.46 75.0422 26.33 75.3622 26.33C75.4222 26.33 75.5522 26.36 75.7522 26.42C75.9722 26.46 76.1922 26.52 76.4122 26.6C76.6322 26.68 76.8222 26.77 76.9822 26.87C77.1622 26.97 77.2522 27.08 77.2522 27.2ZM78.2422 38.42C78.2422 38.56 78.1322 38.68 77.9122 38.78C77.7122 38.88 77.5622 38.93 77.4622 38.93C77.2622 38.93 77.0822 38.8 76.9222 38.54C76.7622 38.28 76.6222 37.98 76.5022 37.64C76.3822 37.3 76.2822 36.98 76.2022 36.68C76.1222 36.36 76.0622 36.14 76.0222 36.02C75.9622 35.82 75.8822 35.58 75.7822 35.3C75.6822 35.02 75.5822 34.75 75.4822 34.49C75.4022 34.23 75.3322 34 75.2722 33.8C75.2122 33.6 75.1822 33.49 75.1822 33.47C75.1822 33.19 75.2322 32.93 75.3322 32.69C75.4522 32.45 75.5922 32.33 75.7522 32.33C75.9322 32.33 76.1222 32.47 76.3222 32.75C76.5222 33.03 76.7122 33.39 76.8922 33.83C77.0922 34.25 77.2722 34.72 77.4322 35.24C77.5922 35.74 77.7322 36.22 77.8522 36.68C77.9722 37.12 78.0622 37.51 78.1222 37.85C78.2022 38.17 78.2422 38.36 78.2422 38.42ZM89.9504 19.49C89.9704 19.53 89.9804 19.6 89.9804 19.7C89.9804 19.8 89.9804 19.91 89.9804 20.03C89.9804 20.17 89.9304 20.24 89.8304 20.24C89.7904 20.24 89.7404 20.23 89.6804 20.21C89.6204 20.19 89.5704 20.17 89.5304 20.15C89.1704 19.99 88.7304 19.79 88.2104 19.55C87.7104 19.29 87.1404 19.16 86.5004 19.16C85.7804 19.16 85.2004 19.43 84.7604 19.97C84.3204 20.51 83.9804 21.14 83.7404 21.86C83.5204 22.56 83.3704 23.25 83.2904 23.93C83.2304 24.61 83.2004 25.1 83.2004 25.4C83.2004 25.62 83.2304 25.97 83.2904 26.45C83.3704 26.91 83.4704 27.39 83.5904 27.89C83.7104 28.39 83.8504 28.85 84.0104 29.27C84.1704 29.67 84.3304 29.92 84.4904 30.02C84.6104 30.02 84.8204 30.01 85.1204 29.99C85.4404 29.97 85.7004 29.96 85.9004 29.96C86.2404 29.96 86.5604 29.99 86.8604 30.05C87.1604 30.11 87.4704 30.14 87.7904 30.14C87.8704 30.14 87.9904 30.14 88.1504 30.14C88.3104 30.14 88.4704 30.15 88.6304 30.17C88.8104 30.19 88.9604 30.23 89.0804 30.29C89.2004 30.33 89.2604 30.39 89.2604 30.47C89.2604 30.57 89.1904 30.66 89.0504 30.74C88.9104 30.82 88.7504 30.89 88.5704 30.95C88.3904 30.99 88.2104 31.02 88.0304 31.04C87.8504 31.06 87.7104 31.07 87.6104 31.07C87.5104 31.07 87.3804 31.07 87.2204 31.07C87.0604 31.05 86.8804 31.03 86.6804 31.01C86.5004 30.99 86.3204 30.98 86.1404 30.98C85.9804 30.96 85.8404 30.95 85.7204 30.95C85.4004 30.95 85.2004 30.99 85.1204 31.07C85.0604 31.13 85.0304 31.26 85.0304 31.46C85.0304 31.76 85.1604 32.17 85.4204 32.69C85.7004 33.19 86.0004 33.73 86.3204 34.31C86.6404 34.89 86.9304 35.49 87.1904 36.11C87.4704 36.73 87.6104 37.3 87.6104 37.82C87.6104 37.92 87.5804 38.11 87.5204 38.39C87.4804 38.65 87.4104 38.92 87.3104 39.2C87.2304 39.48 87.1104 39.73 86.9504 39.95C86.7904 40.17 86.6104 40.28 86.4104 40.28C86.2504 40.28 86.1004 40.24 85.9604 40.16C85.8404 40.06 85.7804 39.9 85.7804 39.68C85.7804 39.36 85.8604 39.06 86.0204 38.78C86.2004 38.5 86.2904 38.2 86.2904 37.88C86.2904 37.72 86.2104 37.45 86.0504 37.07C85.9104 36.69 85.7304 36.27 85.5104 35.81C85.2904 35.33 85.0504 34.83 84.7904 34.31C84.5304 33.79 84.2804 33.32 84.0404 32.9C83.8204 32.46 83.6304 32.1 83.4704 31.82C83.3104 31.54 83.2204 31.39 83.2004 31.37C82.8004 31.51 82.3904 31.65 81.9704 31.79C81.5504 31.93 81.1704 32.14 80.8304 32.42C80.6904 32.56 80.5604 32.63 80.4404 32.63C80.2404 32.63 80.0504 32.55 79.8704 32.39C79.7104 32.23 79.6304 32.05 79.6304 31.85C79.6304 31.63 79.6904 31.46 79.8104 31.34C79.9504 31.2 80.0804 31.1 80.2004 31.04C80.3804 30.94 80.6604 30.83 81.0404 30.71C81.4204 30.59 81.8004 30.49 82.1804 30.41C82.3204 30.37 82.4504 30.34 82.5704 30.32C82.6904 30.28 82.7504 30.21 82.7504 30.11C82.6904 29.91 82.6004 29.65 82.4804 29.33C82.3804 28.99 82.2704 28.59 82.1504 28.13C82.0504 27.67 81.9604 27.16 81.8804 26.6C81.8004 26.02 81.7604 25.4 81.7604 24.74C81.7604 24.02 81.8404 23.26 82.0004 22.46C82.1804 21.66 82.4504 20.93 82.8104 20.27C83.1904 19.59 83.6604 19.04 84.2204 18.62C84.7804 18.18 85.4504 17.96 86.2304 17.96C86.5904 17.96 86.9904 18 87.4304 18.08C87.8704 18.14 88.2704 18.24 88.6304 18.38C89.0104 18.5 89.3204 18.66 89.5604 18.86C89.8204 19.04 89.9504 19.25 89.9504 19.49ZM101.669 19.49C101.689 19.53 101.699 19.6 101.699 19.7C101.699 19.8 101.699 19.91 101.699 20.03C101.699 20.17 101.649 20.24 101.549 20.24C101.509 20.24 101.459 20.23 101.399 20.21C101.339 20.19 101.289 20.17 101.249 20.15C100.889 19.99 100.449 19.79 99.9292 19.55C99.4292 19.29 98.8592 19.16 98.2192 19.16C97.4992 19.16 96.9192 19.43 96.4792 19.97C96.0392 20.51 95.6992 21.14 95.4592 21.86C95.2392 22.56 95.0892 23.25 95.0092 23.93C94.9492 24.61 94.9192 25.1 94.9192 25.4C94.9192 25.62 94.9492 25.97 95.0092 26.45C95.0892 26.91 95.1892 27.39 95.3092 27.89C95.4292 28.39 95.5692 28.85 95.7292 29.27C95.8892 29.67 96.0492 29.92 96.2092 30.02C96.3292 30.02 96.5392 30.01 96.8392 29.99C97.1592 29.97 97.4192 29.96 97.6192 29.96C97.9592 29.96 98.2792 29.99 98.5792 30.05C98.8792 30.11 99.1892 30.14 99.5092 30.14C99.5892 30.14 99.7092 30.14 99.8692 30.14C100.029 30.14 100.189 30.15 100.349 30.17C100.529 30.19 100.679 30.23 100.799 30.29C100.919 30.33 100.979 30.39 100.979 30.47C100.979 30.57 100.909 30.66 100.769 30.74C100.629 30.82 100.469 30.89 100.289 30.95C100.109 30.99 99.9292 31.02 99.7492 31.04C99.5692 31.06 99.4292 31.07 99.3292 31.07C99.2292 31.07 99.0992 31.07 98.9392 31.07C98.7792 31.05 98.5992 31.03 98.3992 31.01C98.2192 30.99 98.0392 30.98 97.8592 30.98C97.6992 30.96 97.5592 30.95 97.4392 30.95C97.1192 30.95 96.9192 30.99 96.8392 31.07C96.7792 31.13 96.7492 31.26 96.7492 31.46C96.7492 31.76 96.8792 32.17 97.1392 32.69C97.4192 33.19 97.7192 33.73 98.0392 34.31C98.3592 34.89 98.6492 35.49 98.9092 36.11C99.1892 36.73 99.3292 37.3 99.3292 37.82C99.3292 37.92 99.2992 38.11 99.2392 38.39C99.1992 38.65 99.1292 38.92 99.0292 39.2C98.9492 39.48 98.8292 39.73 98.6692 39.95C98.5092 40.17 98.3292 40.28 98.1292 40.28C97.9692 40.28 97.8192 40.24 97.6792 40.16C97.5592 40.06 97.4992 39.9 97.4992 39.68C97.4992 39.36 97.5792 39.06 97.7392 38.78C97.9192 38.5 98.0092 38.2 98.0092 37.88C98.0092 37.72 97.9292 37.45 97.7692 37.07C97.6292 36.69 97.4492 36.27 97.2292 35.81C97.0092 35.33 96.7692 34.83 96.5092 34.31C96.2492 33.79 95.9992 33.32 95.7592 32.9C95.5392 32.46 95.3492 32.1 95.1892 31.82C95.0292 31.54 94.9392 31.39 94.9192 31.37C94.5192 31.51 94.1092 31.65 93.6892 31.79C93.2692 31.93 92.8892 32.14 92.5492 32.42C92.4092 32.56 92.2792 32.63 92.1592 32.63C91.9592 32.63 91.7692 32.55 91.5892 32.39C91.4292 32.23 91.3492 32.05 91.3492 31.85C91.3492 31.63 91.4092 31.46 91.5292 31.34C91.6692 31.2 91.7992 31.1 91.9192 31.04C92.0992 30.94 92.3792 30.83 92.7592 30.71C93.1392 30.59 93.5192 30.49 93.8992 30.41C94.0392 30.37 94.1692 30.34 94.2892 30.32C94.4092 30.28 94.4692 30.21 94.4692 30.11C94.4092 29.91 94.3192 29.65 94.1992 29.33C94.0992 28.99 93.9892 28.59 93.8692 28.13C93.7692 27.67 93.6792 27.16 93.5992 26.6C93.5192 26.02 93.4792 25.4 93.4792 24.74C93.4792 24.02 93.5592 23.26 93.7192 22.46C93.8992 21.66 94.1692 20.93 94.5292 20.27C94.9092 19.59 95.3792 19.04 95.9392 18.62C96.4992 18.18 97.1692 17.96 97.9492 17.96C98.3092 17.96 98.7092 18 99.1492 18.08C99.5892 18.14 99.9892 18.24 100.349 18.38C100.729 18.5 101.039 18.66 101.279 18.86C101.539 19.04 101.669 19.25 101.669 19.49ZM111.918 37.85C111.938 37.89 111.948 37.95 111.948 38.03C111.948 38.15 111.858 38.33 111.678 38.57C111.618 38.65 111.488 38.78 111.288 38.96C111.088 39.14 110.818 39.32 110.478 39.5C110.138 39.68 109.718 39.84 109.218 39.98C108.738 40.12 108.168 40.19 107.508 40.19C107.048 40.19 106.598 40.09 106.158 39.89C105.718 39.67 105.328 39.36 104.988 38.96C104.648 38.54 104.368 38.03 104.148 37.43C103.928 36.81 103.818 36.09 103.818 35.27C103.818 34.49 103.918 33.76 104.118 33.08C104.318 32.4 104.568 31.8 104.868 31.28C105.188 30.76 105.538 30.35 105.918 30.05C106.298 29.75 106.668 29.6 107.028 29.6C107.348 29.6 107.668 29.67 107.988 29.81C108.328 29.93 108.628 30.09 108.888 30.29C109.168 30.49 109.388 30.72 109.548 30.98C109.708 31.22 109.788 31.47 109.788 31.73C109.788 32.03 109.648 32.34 109.368 32.66C109.108 32.98 108.788 33.28 108.408 33.56C108.028 33.82 107.648 34.04 107.268 34.22C106.888 34.38 106.588 34.46 106.368 34.46C106.248 34.46 106.138 34.41 106.038 34.31C105.958 34.19 105.918 34.05 105.918 33.89C105.918 33.61 106.038 33.39 106.278 33.23C106.538 33.07 106.818 32.93 107.118 32.81C107.418 32.67 107.688 32.51 107.928 32.33C108.188 32.15 108.318 31.9 108.318 31.58C108.318 31.54 108.268 31.44 108.168 31.28C108.068 31.12 107.798 31.04 107.358 31.04C107.158 31.04 106.928 31.16 106.668 31.4C106.408 31.62 106.158 31.93 105.918 32.33C105.678 32.71 105.478 33.17 105.318 33.71C105.158 34.23 105.078 34.8 105.078 35.42C105.078 35.94 105.168 36.41 105.348 36.83C105.548 37.25 105.798 37.61 106.098 37.91C106.398 38.19 106.748 38.41 107.148 38.57C107.548 38.73 107.958 38.81 108.378 38.81C108.678 38.81 108.998 38.75 109.338 38.63C109.698 38.49 110.028 38.35 110.328 38.21C110.648 38.05 110.918 37.91 111.138 37.79C111.378 37.65 111.528 37.58 111.588 37.58C111.648 37.58 111.708 37.61 111.768 37.67C111.848 37.73 111.898 37.79 111.918 37.85ZM110.208 25.16C110.208 25.32 110.088 25.55 109.848 25.85C109.608 26.15 109.318 26.46 108.978 26.78C108.658 27.1 108.318 27.4 107.958 27.68C107.618 27.94 107.348 28.12 107.148 28.22C106.988 28.3 106.848 28.35 106.728 28.37C106.608 28.39 106.508 28.4 106.428 28.4C106.268 28.4 106.068 28.31 105.828 28.13C105.588 27.95 105.468 27.78 105.468 27.62C105.468 27.58 105.558 27.53 105.738 27.47C105.918 27.39 106.118 27.29 106.338 27.17C106.538 27.05 106.798 26.86 107.118 26.6C107.458 26.32 107.788 26.05 108.108 25.79C108.448 25.51 108.748 25.27 109.008 25.07C109.288 24.87 109.478 24.77 109.578 24.77C109.718 24.77 109.858 24.81 109.998 24.89C110.138 24.97 110.208 25.06 110.208 25.16ZM121.117 31.85C121.117 31.99 121.057 32.11 120.937 32.21C120.817 32.29 120.677 32.36 120.517 32.42C120.357 32.48 120.197 32.53 120.037 32.57C119.877 32.59 119.747 32.6 119.647 32.6C119.347 32.6 119.147 32.58 119.047 32.54C118.947 32.5 118.867 32.48 118.807 32.48C118.307 32.48 117.907 32.52 117.607 32.6C117.307 32.68 117.067 32.81 116.887 32.99C116.727 33.17 116.617 33.4 116.557 33.68C116.517 33.94 116.497 34.26 116.497 34.64C116.497 35.28 116.517 35.79 116.557 36.17C116.617 36.55 116.667 36.86 116.707 37.1C116.767 37.34 116.817 37.53 116.857 37.67C116.917 37.79 116.947 37.91 116.947 38.03C116.947 38.19 116.857 38.36 116.677 38.54C116.517 38.72 116.367 38.81 116.227 38.81C115.987 38.81 115.767 38.6 115.567 38.18C115.387 37.74 115.227 37.23 115.087 36.65C114.967 36.05 114.867 35.46 114.787 34.88C114.707 34.3 114.667 33.86 114.667 33.56C114.667 33.22 114.697 32.9 114.757 32.6C114.817 32.28 114.897 32.01 114.997 31.79C115.097 31.55 115.207 31.36 115.327 31.22C115.447 31.08 115.567 31.01 115.687 31.01C115.787 31.01 115.867 31.05 115.927 31.13C115.987 31.19 116.037 31.27 116.077 31.37C116.117 31.45 116.157 31.53 116.197 31.61C116.257 31.67 116.327 31.7 116.407 31.7C116.587 31.7 116.877 31.61 117.277 31.43C117.677 31.25 118.167 31.16 118.747 31.16C119.287 31.16 119.687 31.18 119.947 31.22C120.227 31.24 120.497 31.3 120.757 31.4C120.817 31.42 120.887 31.47 120.967 31.55C121.067 31.61 121.117 31.71 121.117 31.85ZM131.869 37.85C131.889 37.89 131.899 37.95 131.899 38.03C131.899 38.15 131.809 38.33 131.629 38.57C131.569 38.65 131.439 38.78 131.239 38.96C131.039 39.14 130.769 39.32 130.429 39.5C130.089 39.68 129.669 39.84 129.169 39.98C128.689 40.12 128.119 40.19 127.459 40.19C126.999 40.19 126.549 40.09 126.109 39.89C125.669 39.67 125.279 39.36 124.939 38.96C124.599 38.54 124.319 38.03 124.099 37.43C123.879 36.81 123.769 36.09 123.769 35.27C123.769 34.49 123.869 33.76 124.069 33.08C124.269 32.4 124.519 31.8 124.819 31.28C125.139 30.76 125.489 30.35 125.869 30.05C126.249 29.75 126.619 29.6 126.979 29.6C127.299 29.6 127.619 29.67 127.939 29.81C128.279 29.93 128.579 30.09 128.839 30.29C129.119 30.49 129.339 30.72 129.499 30.98C129.659 31.22 129.739 31.47 129.739 31.73C129.739 32.03 129.599 32.34 129.319 32.66C129.059 32.98 128.739 33.28 128.359 33.56C127.979 33.82 127.599 34.04 127.219 34.22C126.839 34.38 126.539 34.46 126.319 34.46C126.199 34.46 126.089 34.41 125.989 34.31C125.909 34.19 125.869 34.05 125.869 33.89C125.869 33.61 125.989 33.39 126.229 33.23C126.489 33.07 126.769 32.93 127.069 32.81C127.369 32.67 127.639 32.51 127.879 32.33C128.139 32.15 128.269 31.9 128.269 31.58C128.269 31.54 128.219 31.44 128.119 31.28C128.019 31.12 127.749 31.04 127.309 31.04C127.109 31.04 126.879 31.16 126.619 31.4C126.359 31.62 126.109 31.93 125.869 32.33C125.629 32.71 125.429 33.17 125.269 33.71C125.109 34.23 125.029 34.8 125.029 35.42C125.029 35.94 125.119 36.41 125.299 36.83C125.499 37.25 125.749 37.61 126.049 37.91C126.349 38.19 126.699 38.41 127.099 38.57C127.499 38.73 127.909 38.81 128.329 38.81C128.629 38.81 128.949 38.75 129.289 38.63C129.649 38.49 129.979 38.35 130.279 38.21C130.599 38.05 130.869 37.91 131.089 37.79C131.329 37.65 131.479 37.58 131.539 37.58C131.599 37.58 131.659 37.61 131.719 37.67C131.799 37.73 131.849 37.79 131.869 37.85ZM142.988 37.31C142.988 37.43 142.948 37.55 142.868 37.67C142.788 37.79 142.688 37.9 142.568 38C142.468 38.1 142.348 38.19 142.208 38.27C142.088 38.33 141.978 38.36 141.878 38.36C141.538 38.36 141.098 38.29 140.558 38.15C140.038 37.99 139.618 37.75 139.298 37.43C138.958 37.09 138.658 36.69 138.398 36.23C138.138 35.75 137.848 35.05 137.528 34.13C137.308 35.01 137.048 35.88 136.748 36.74C136.468 37.6 136.008 38.39 135.368 39.11C135.328 39.15 135.268 39.17 135.188 39.17C135.048 39.17 134.898 39.1 134.738 38.96C134.578 38.82 134.498 38.68 134.498 38.54C134.498 38.4 134.478 38.08 134.438 37.58C134.418 37.06 134.388 36.49 134.348 35.87C134.308 35.23 134.268 34.59 134.228 33.95C134.208 33.29 134.198 32.75 134.198 32.33C134.198 32.13 134.208 31.87 134.228 31.55C134.248 31.21 134.308 30.92 134.408 30.68C134.428 30.64 134.498 30.56 134.618 30.44C134.758 30.32 134.908 30.26 135.068 30.26C135.208 30.26 135.288 30.35 135.308 30.53C135.328 30.71 135.338 30.91 135.338 31.13V35.87C135.338 35.97 135.348 36.11 135.368 36.29C135.408 36.47 135.458 36.6 135.518 36.68C135.738 36.2 135.938 35.64 136.118 35C136.318 34.34 136.508 33.72 136.688 33.14C136.868 32.54 137.048 32.04 137.228 31.64C137.408 31.22 137.588 31.01 137.768 31.01C137.968 31.01 138.128 31.05 138.248 31.13C138.368 31.21 138.468 31.37 138.548 31.61C138.648 32.19 138.728 32.71 138.788 33.17C138.848 33.61 138.918 34.01 138.998 34.37C139.098 34.73 139.228 35.07 139.388 35.39C139.568 35.69 139.808 35.97 140.108 36.23C140.388 36.49 140.698 36.68 141.038 36.8C141.398 36.92 141.708 36.98 141.968 36.98C142.088 36.98 142.218 36.96 142.358 36.92C142.498 36.86 142.598 36.83 142.658 36.83C142.738 36.83 142.808 36.9 142.868 37.04C142.948 37.18 142.988 37.27 142.988 37.31ZM152.485 27.44C152.225 27.74 151.855 28.04 151.375 28.34C150.895 28.62 150.415 28.88 149.935 29.12C149.455 29.36 149.035 29.57 148.675 29.75C148.315 29.91 148.135 30.02 148.135 30.08C148.135 30.14 148.175 30.32 148.255 30.62C148.335 30.92 148.425 31.28 148.525 31.7C148.645 32.1 148.765 32.52 148.885 32.96C149.005 33.4 149.105 33.79 149.185 34.13C149.225 34.33 149.275 34.59 149.335 34.91C149.395 35.23 149.445 35.55 149.485 35.87C149.545 36.19 149.595 36.48 149.635 36.74C149.675 36.98 149.695 37.11 149.695 37.13C149.695 37.43 149.645 37.74 149.545 38.06C149.445 38.38 149.285 38.54 149.065 38.54C148.945 38.54 148.835 38.49 148.735 38.39C148.635 38.29 148.545 38.18 148.465 38.06C148.385 37.92 148.325 37.79 148.285 37.67C148.245 37.55 148.225 37.46 148.225 37.4C148.225 37.36 148.225 37.3 148.225 37.22C148.245 37.14 148.255 37.05 148.255 36.95C148.255 36.57 148.195 36.02 148.075 35.3C148.035 35.08 147.955 34.74 147.835 34.28C147.715 33.82 147.595 33.35 147.475 32.87C147.335 32.31 147.175 31.7 146.995 31.04C146.915 30.76 146.865 30.62 146.845 30.62C146.705 30.62 146.465 30.71 146.125 30.89C145.805 31.05 145.435 31.26 145.015 31.52C144.595 31.76 144.155 32.03 143.695 32.33C143.235 32.61 142.805 32.88 142.405 33.14C142.005 33.38 141.665 33.59 141.385 33.77C141.085 33.93 140.905 34.01 140.845 34.01C140.585 34.01 140.375 33.92 140.215 33.74C140.055 33.56 139.975 33.36 139.975 33.14C139.975 33.02 140.145 32.85 140.485 32.63C140.805 32.39 141.215 32.13 141.715 31.85C142.195 31.57 142.725 31.28 143.305 30.98C143.865 30.68 144.385 30.41 144.865 30.17C145.365 29.93 145.775 29.73 146.095 29.57C146.435 29.41 146.605 29.33 146.605 29.33C146.425 28.41 146.275 27.59 146.155 26.87C146.055 26.25 145.955 25.68 145.855 25.16C145.775 24.64 145.735 24.36 145.735 24.32C145.735 24.06 145.785 23.87 145.885 23.75C146.005 23.61 146.135 23.54 146.275 23.54C146.495 23.54 146.635 23.69 146.695 23.99C146.915 25.07 147.115 26.03 147.295 26.87C147.495 27.71 147.685 28.39 147.865 28.91C148.045 28.87 148.355 28.76 148.795 28.58C149.235 28.38 149.695 28.17 150.175 27.95C150.655 27.73 151.085 27.54 151.465 27.38C151.865 27.2 152.095 27.11 152.155 27.11C152.275 27.11 152.345 27.15 152.365 27.23C152.405 27.31 152.445 27.38 152.485 27.44ZM160.865 37.04C160.865 37.38 160.745 37.68 160.505 37.94C160.285 38.18 159.995 38.39 159.635 38.57C159.295 38.73 158.915 38.86 158.495 38.96C158.075 39.06 157.675 39.14 157.295 39.2C156.915 39.24 156.575 39.27 156.275 39.29C155.995 39.29 155.815 39.29 155.735 39.29C155.295 39.29 154.955 39.22 154.715 39.08C154.475 38.94 154.355 38.69 154.355 38.33C154.355 38.21 154.365 38.11 154.385 38.03C154.405 37.93 154.485 37.88 154.625 37.88C154.685 37.88 154.785 37.9 154.925 37.94C155.065 37.96 155.175 37.97 155.255 37.97C155.335 37.97 155.585 37.96 156.005 37.94C156.445 37.9 156.905 37.84 157.385 37.76C157.885 37.68 158.325 37.57 158.705 37.43C159.105 37.27 159.305 37.07 159.305 36.83C159.305 36.79 159.095 36.67 158.675 36.47C158.275 36.25 157.665 35.89 156.845 35.39C156.205 34.99 155.755 34.59 155.495 34.19C155.235 33.77 155.105 33.21 155.105 32.51C155.105 32.07 155.195 31.71 155.375 31.43C155.575 31.15 155.835 30.93 156.155 30.77C156.495 30.61 156.875 30.5 157.295 30.44C157.735 30.36 158.195 30.32 158.675 30.32C158.715 30.32 158.835 30.34 159.035 30.38C159.255 30.42 159.485 30.49 159.725 30.59C159.965 30.67 160.175 30.78 160.355 30.92C160.555 31.04 160.655 31.18 160.655 31.34C160.655 31.38 160.615 31.44 160.535 31.52C160.475 31.6 160.365 31.75 160.205 31.97C160.145 31.95 160.035 31.92 159.875 31.88C159.735 31.84 159.565 31.8 159.365 31.76C159.185 31.7 158.995 31.66 158.795 31.64C158.595 31.6 158.435 31.58 158.315 31.58C157.795 31.58 157.375 31.68 157.055 31.88C156.735 32.06 156.575 32.42 156.575 32.96C156.575 33.22 156.675 33.46 156.875 33.68C157.095 33.9 157.365 34.11 157.685 34.31C158.005 34.49 158.345 34.68 158.705 34.88C159.085 35.06 159.435 35.26 159.755 35.48C160.075 35.7 160.335 35.94 160.535 36.2C160.755 36.44 160.865 36.72 160.865 37.04ZM181.673 30.44C181.673 30.5 181.623 30.76 181.523 31.22C181.423 31.68 181.323 32.2 181.223 32.78C181.163 33.12 181.063 33.63 180.923 34.31C180.803 34.97 180.743 35.98 180.743 37.34C180.743 37.38 180.733 37.49 180.713 37.67C180.713 37.83 180.683 38 180.623 38.18C180.583 38.36 180.513 38.53 180.413 38.69C180.313 38.83 180.163 38.9 179.963 38.9C179.783 38.9 179.583 38.82 179.363 38.66C178.863 38.3 178.403 37.88 177.983 37.4C177.563 36.92 177.203 36.4 176.903 35.84C176.603 35.26 176.373 34.66 176.213 34.04C176.053 33.42 175.973 32.79 175.973 32.15C175.973 32.07 176.023 32 176.123 31.94C176.243 31.86 176.333 31.82 176.393 31.82C176.693 31.82 176.923 31.99 177.083 32.33C177.263 32.67 177.433 33.08 177.593 33.56C177.773 34.04 177.973 34.55 178.193 35.09C178.433 35.61 178.783 36.06 179.243 36.44C179.303 36.36 179.353 36.21 179.393 35.99C179.433 35.77 179.463 35.58 179.483 35.42C179.503 35.28 179.533 35.01 179.573 34.61C179.613 34.19 179.653 33.75 179.693 33.29C179.753 32.83 179.793 32.39 179.813 31.97C179.853 31.55 179.873 31.26 179.873 31.1C179.873 30.98 179.883 30.84 179.903 30.68C179.923 30.52 179.963 30.37 180.023 30.23C180.103 30.09 180.203 29.97 180.323 29.87C180.443 29.77 180.603 29.72 180.803 29.72C180.903 29.72 181.073 29.79 181.313 29.93C181.553 30.05 181.673 30.22 181.673 30.44ZM189.69 34.52C189.69 34.96 189.63 35.38 189.51 35.78C189.39 36.18 189.23 36.53 189.03 36.83C188.83 37.13 188.59 37.37 188.31 37.55C188.05 37.71 187.76 37.79 187.44 37.79C186.88 37.79 186.44 37.63 186.12 37.31C185.8 36.99 185.55 36.62 185.37 36.2C185.21 35.78 185.1 35.36 185.04 34.94C185 34.5 184.98 34.17 184.98 33.95C184.98 33.59 185.03 33.19 185.13 32.75C185.25 32.29 185.4 31.87 185.58 31.49C185.78 31.11 186 30.79 186.24 30.53C186.48 30.27 186.73 30.14 186.99 30.14C187.05 30.14 187.14 30.16 187.26 30.2C187.4 30.24 187.54 30.3 187.68 30.38C187.82 30.46 187.94 30.56 188.04 30.68C188.16 30.8 188.24 30.94 188.28 31.1C188.5 31.12 188.72 31.2 188.94 31.34C189.16 31.48 189.28 31.59 189.3 31.67C189.46 32.19 189.56 32.71 189.6 33.23C189.66 33.75 189.69 34.18 189.69 34.52ZM188.34 33.98C188.34 33.68 188.31 33.37 188.25 33.05C188.19 32.71 188.07 32.37 187.89 32.03C187.85 32.05 187.8 32.06 187.74 32.06C187.66 32.06 187.59 32.05 187.53 32.03C187.49 32.01 187.45 32 187.41 32C187.17 32 186.98 32.07 186.84 32.21C186.7 32.33 186.59 32.5 186.51 32.72C186.45 32.92 186.41 33.14 186.39 33.38C186.37 33.62 186.36 33.85 186.36 34.07C186.36 34.29 186.37 34.54 186.39 34.82C186.41 35.08 186.45 35.33 186.51 35.57C186.59 35.81 186.69 36.02 186.81 36.2C186.93 36.36 187.09 36.44 187.29 36.44C187.49 36.44 187.66 36.34 187.8 36.14C187.94 35.92 188.05 35.67 188.13 35.39C188.21 35.11 188.26 34.84 188.28 34.58C188.32 34.3 188.34 34.1 188.34 33.98ZM200.678 27.44C200.418 27.74 200.048 28.04 199.568 28.34C199.088 28.62 198.608 28.88 198.128 29.12C197.648 29.36 197.228 29.57 196.868 29.75C196.508 29.91 196.328 30.02 196.328 30.08C196.328 30.14 196.368 30.32 196.448 30.62C196.528 30.92 196.618 31.28 196.718 31.7C196.838 32.1 196.958 32.52 197.078 32.96C197.198 33.4 197.298 33.79 197.378 34.13C197.418 34.33 197.468 34.59 197.528 34.91C197.588 35.23 197.638 35.55 197.678 35.87C197.738 36.19 197.788 36.48 197.828 36.74C197.868 36.98 197.888 37.11 197.888 37.13C197.888 37.43 197.838 37.74 197.738 38.06C197.638 38.38 197.478 38.54 197.258 38.54C197.138 38.54 197.028 38.49 196.928 38.39C196.828 38.29 196.738 38.18 196.658 38.06C196.578 37.92 196.518 37.79 196.478 37.67C196.438 37.55 196.418 37.46 196.418 37.4C196.418 37.36 196.418 37.3 196.418 37.22C196.438 37.14 196.448 37.05 196.448 36.95C196.448 36.57 196.388 36.02 196.268 35.3C196.228 35.08 196.148 34.74 196.028 34.28C195.908 33.82 195.788 33.35 195.668 32.87C195.528 32.31 195.368 31.7 195.188 31.04C195.108 30.76 195.058 30.62 195.038 30.62C194.898 30.62 194.658 30.71 194.318 30.89C193.998 31.05 193.628 31.26 193.208 31.52C192.788 31.76 192.348 32.03 191.888 32.33C191.428 32.61 190.998 32.88 190.598 33.14C190.198 33.38 189.858 33.59 189.578 33.77C189.278 33.93 189.098 34.01 189.038 34.01C188.778 34.01 188.568 33.92 188.408 33.74C188.248 33.56 188.168 33.36 188.168 33.14C188.168 33.02 188.338 32.85 188.678 32.63C188.998 32.39 189.408 32.13 189.908 31.85C190.388 31.57 190.918 31.28 191.498 30.98C192.058 30.68 192.578 30.41 193.058 30.17C193.558 29.93 193.968 29.73 194.288 29.57C194.628 29.41 194.798 29.33 194.798 29.33C194.618 28.41 194.468 27.59 194.348 26.87C194.248 26.25 194.148 25.68 194.048 25.16C193.968 24.64 193.928 24.36 193.928 24.32C193.928 24.06 193.978 23.87 194.078 23.75C194.198 23.61 194.328 23.54 194.468 23.54C194.688 23.54 194.828 23.69 194.888 23.99C195.108 25.07 195.308 26.03 195.488 26.87C195.688 27.71 195.878 28.39 196.058 28.91C196.238 28.87 196.548 28.76 196.988 28.58C197.428 28.38 197.888 28.17 198.368 27.95C198.848 27.73 199.278 27.54 199.658 27.38C200.058 27.2 200.288 27.11 200.348 27.11C200.468 27.11 200.538 27.15 200.558 27.23C200.598 27.31 200.638 27.38 200.678 27.44ZM210.648 37.85C210.668 37.89 210.678 37.95 210.678 38.03C210.678 38.15 210.588 38.33 210.408 38.57C210.348 38.65 210.218 38.78 210.018 38.96C209.818 39.14 209.548 39.32 209.208 39.5C208.868 39.68 208.448 39.84 207.948 39.98C207.468 40.12 206.898 40.19 206.238 40.19C205.778 40.19 205.328 40.09 204.888 39.89C204.448 39.67 204.058 39.36 203.718 38.96C203.378 38.54 203.098 38.03 202.878 37.43C202.658 36.81 202.548 36.09 202.548 35.27C202.548 34.49 202.648 33.76 202.848 33.08C203.048 32.4 203.298 31.8 203.598 31.28C203.918 30.76 204.268 30.35 204.648 30.05C205.028 29.75 205.398 29.6 205.758 29.6C206.078 29.6 206.398 29.67 206.718 29.81C207.058 29.93 207.358 30.09 207.618 30.29C207.898 30.49 208.118 30.72 208.278 30.98C208.438 31.22 208.518 31.47 208.518 31.73C208.518 32.03 208.378 32.34 208.098 32.66C207.838 32.98 207.518 33.28 207.138 33.56C206.758 33.82 206.378 34.04 205.998 34.22C205.618 34.38 205.318 34.46 205.098 34.46C204.978 34.46 204.868 34.41 204.768 34.31C204.688 34.19 204.648 34.05 204.648 33.89C204.648 33.61 204.768 33.39 205.008 33.23C205.268 33.07 205.548 32.93 205.848 32.81C206.148 32.67 206.418 32.51 206.658 32.33C206.918 32.15 207.048 31.9 207.048 31.58C207.048 31.54 206.998 31.44 206.898 31.28C206.798 31.12 206.528 31.04 206.088 31.04C205.888 31.04 205.658 31.16 205.398 31.4C205.138 31.62 204.888 31.93 204.648 32.33C204.408 32.71 204.208 33.17 204.048 33.71C203.888 34.23 203.808 34.8 203.808 35.42C203.808 35.94 203.898 36.41 204.078 36.83C204.278 37.25 204.528 37.61 204.828 37.91C205.128 38.19 205.478 38.41 205.878 38.57C206.278 38.73 206.688 38.81 207.108 38.81C207.408 38.81 207.728 38.75 208.068 38.63C208.428 38.49 208.758 38.35 209.058 38.21C209.378 38.05 209.648 37.91 209.868 37.79C210.108 37.65 210.258 37.58 210.318 37.58C210.378 37.58 210.438 37.61 210.498 37.67C210.578 37.73 210.628 37.79 210.648 37.85ZM219.517 37.04C219.517 37.38 219.397 37.68 219.157 37.94C218.937 38.18 218.647 38.39 218.287 38.57C217.947 38.73 217.567 38.86 217.147 38.96C216.727 39.06 216.327 39.14 215.947 39.2C215.567 39.24 215.227 39.27 214.927 39.29C214.647 39.29 214.467 39.29 214.387 39.29C213.947 39.29 213.607 39.22 213.367 39.08C213.127 38.94 213.007 38.69 213.007 38.33C213.007 38.21 213.017 38.11 213.037 38.03C213.057 37.93 213.137 37.88 213.277 37.88C213.337 37.88 213.437 37.9 213.577 37.94C213.717 37.96 213.827 37.97 213.907 37.97C213.987 37.97 214.237 37.96 214.657 37.94C215.097 37.9 215.557 37.84 216.037 37.76C216.537 37.68 216.977 37.57 217.357 37.43C217.757 37.27 217.957 37.07 217.957 36.83C217.957 36.79 217.747 36.67 217.327 36.47C216.927 36.25 216.317 35.89 215.497 35.39C214.857 34.99 214.407 34.59 214.147 34.19C213.887 33.77 213.757 33.21 213.757 32.51C213.757 32.07 213.847 31.71 214.027 31.43C214.227 31.15 214.487 30.93 214.807 30.77C215.147 30.61 215.527 30.5 215.947 30.44C216.387 30.36 216.847 30.32 217.327 30.32C217.367 30.32 217.487 30.34 217.687 30.38C217.907 30.42 218.137 30.49 218.377 30.59C218.617 30.67 218.827 30.78 219.007 30.92C219.207 31.04 219.307 31.18 219.307 31.34C219.307 31.38 219.267 31.44 219.187 31.52C219.127 31.6 219.017 31.75 218.857 31.97C218.797 31.95 218.687 31.92 218.527 31.88C218.387 31.84 218.217 31.8 218.017 31.76C217.837 31.7 217.647 31.66 217.447 31.64C217.247 31.6 217.087 31.58 216.967 31.58C216.447 31.58 216.027 31.68 215.707 31.88C215.387 32.06 215.227 32.42 215.227 32.96C215.227 33.22 215.327 33.46 215.527 33.68C215.747 33.9 216.017 34.11 216.337 34.31C216.657 34.49 216.997 34.68 217.357 34.88C217.737 35.06 218.087 35.26 218.407 35.48C218.727 35.7 218.987 35.94 219.187 36.2C219.407 36.44 219.517 36.72 219.517 37.04ZM243.866 28.04C243.866 28.4 243.716 28.78 243.416 29.18C243.116 29.56 242.746 29.96 242.306 30.38C241.866 30.78 241.386 31.19 240.866 31.61C240.346 32.03 239.866 32.45 239.426 32.87C238.986 33.27 238.616 33.66 238.316 34.04C238.016 34.42 237.866 34.77 237.866 35.09C237.866 35.31 237.886 35.55 237.926 35.81C237.986 36.05 238.066 36.25 238.166 36.41C238.066 36.59 237.966 36.73 237.866 36.83C237.766 36.93 237.636 36.98 237.476 36.98C237.336 36.98 237.206 36.92 237.086 36.8C236.986 36.68 236.896 36.53 236.816 36.35C236.736 36.17 236.666 35.98 236.606 35.78C236.566 35.58 236.546 35.4 236.546 35.24C236.546 34.78 236.606 34.4 236.726 34.1C236.846 33.78 237.026 33.49 237.266 33.23C237.526 32.95 237.836 32.67 238.196 32.39C238.556 32.11 238.976 31.79 239.456 31.43C239.816 31.15 240.176 30.85 240.536 30.53C240.916 30.21 241.246 29.9 241.526 29.6C241.826 29.28 242.066 28.98 242.246 28.7C242.446 28.4 242.546 28.13 242.546 27.89C242.546 27.69 242.456 27.49 242.276 27.29C242.116 27.09 241.896 26.92 241.616 26.78C241.336 26.62 241.006 26.5 240.626 26.42C240.246 26.32 239.846 26.27 239.426 26.27C238.486 26.27 237.746 26.34 237.206 26.48C236.686 26.62 236.266 26.69 235.946 26.69C235.786 26.69 235.626 26.65 235.466 26.57C235.306 26.47 235.226 26.33 235.226 26.15C235.226 25.91 235.406 25.71 235.766 25.55C236.126 25.39 236.536 25.27 236.996 25.19C237.476 25.11 237.926 25.06 238.346 25.04C238.786 25 239.076 24.98 239.216 24.98C239.836 24.98 240.426 25.07 240.986 25.25C241.546 25.43 242.036 25.66 242.456 25.94C242.896 26.22 243.236 26.55 243.476 26.93C243.736 27.29 243.866 27.66 243.866 28.04ZM239.936 40.82C239.936 41.06 239.816 41.24 239.576 41.36C239.336 41.5 239.116 41.57 238.916 41.57C238.736 41.57 238.526 41.47 238.286 41.27C238.046 41.09 237.926 40.91 237.926 40.73C237.926 40.67 237.926 40.59 237.926 40.49C237.946 40.37 237.976 40.25 238.016 40.13C238.076 40.01 238.146 39.91 238.226 39.83C238.306 39.73 238.416 39.68 238.556 39.68C238.616 39.68 238.716 39.73 238.856 39.83C239.016 39.91 239.176 40.01 239.336 40.13C239.496 40.25 239.636 40.38 239.756 40.52C239.876 40.64 239.936 40.74 239.936 40.82Z" fill="#AD4B4C"/>
</svg>
