<svg width="246" height="149" viewBox="0 0 246 149" fill="none" xmlns="http://www.w3.org/2000/svg">
<path d="M1.296 10H5.976V8.836H2.664V6.304H5.496V5.14H2.664V2.764H5.976V1.6H1.296V10ZM7.82831 10H9.06431V5.92C9.37631 5.392 9.86831 4.876 10.6963 4.876C11.5603 4.876 12.0883 5.452 12.0883 6.412V10H13.3363V6.364C13.3363 4.612 12.3163 3.712 10.9843 3.712C10.1203 3.712 9.52031 4.06 9.06431 4.54V3.952H7.82831V10ZM18.2524 10H23.9524V8.812H19.8484L22.0444 6.64C22.9804 5.692 23.7244 4.828 23.7244 3.688C23.7244 2.284 22.5844 1.36 21.1564 1.36C19.7764 1.36 18.7924 2.032 18.0964 3.124L19.1764 3.784C19.6444 3.004 20.1844 2.536 21.0364 2.536C21.8044 2.536 22.3804 2.992 22.3804 3.796C22.3804 4.588 21.9484 5.056 21.1084 5.92L18.2524 8.812V10ZM28.2797 1.36C26.1317 1.36 25.0877 3.292 25.0877 5.8C25.0877 8.308 26.1317 10.24 28.2797 10.24C30.4277 10.24 31.4597 8.308 31.4597 5.8C31.4597 3.292 30.4277 1.36 28.2797 1.36ZM28.2797 2.584C29.4917 2.584 30.1037 3.916 30.1037 5.8C30.1037 7.672 29.4917 9.016 28.2797 9.016C27.0557 9.016 26.4437 7.684 26.4437 5.8C26.4437 3.928 27.0557 2.584 28.2797 2.584ZM34.5053 9.988H35.8133V1.588H34.5293L31.8293 3.112L32.5013 4.048L34.5053 2.932V9.988ZM39.5618 10L43.7978 2.788V1.6H37.8698V2.788H42.3938L38.0498 10H39.5618ZM48.5275 10H49.7635V0.999999H48.5275V10ZM57.2453 9.016L56.3453 8.296C55.9733 8.8 55.3613 9.124 54.6293 9.124C53.4653 9.124 52.6613 8.44 52.5773 7.12H57.0413C57.0893 6.94 57.1253 6.664 57.1253 6.388C57.1253 4.852 56.0453 3.712 54.3773 3.712C52.4573 3.712 51.3053 5.164 51.3053 6.976C51.3053 8.74 52.5413 10.24 54.6293 10.24C55.7573 10.24 56.6813 9.772 57.2453 9.016ZM54.3533 4.744C55.3253 4.744 55.8653 5.44 55.8893 6.196H52.6373C52.8293 5.26 53.4533 4.744 54.3533 4.744ZM58.076 9.148C58.64 9.832 59.396 10.24 60.416 10.24C61.544 10.24 62.504 9.532 62.516 8.344C62.516 6.268 59.552 6.676 59.552 5.464C59.552 5.056 59.84 4.72 60.416 4.72C60.92 4.72 61.34 5.02 61.664 5.452L62.504 4.72C62.072 4.144 61.292 3.712 60.404 3.712C59.192 3.712 58.352 4.504 58.352 5.5C58.352 7.636 61.316 7.192 61.316 8.416C61.316 8.872 60.992 9.232 60.404 9.232C59.804 9.232 59.324 8.908 58.928 8.404L58.076 9.148ZM67.301 12.952H68.537V9.376C69.053 9.928 69.701 10.24 70.577 10.24C72.473 10.24 73.661 8.74 73.661 6.976C73.661 5.212 72.473 3.712 70.577 3.712C69.701 3.712 69.053 4.024 68.537 4.576V3.952H67.301V12.952ZM70.421 4.876C71.585 4.876 72.365 5.788 72.365 6.976C72.365 8.164 71.585 9.076 70.421 9.076C69.641 9.076 68.981 8.716 68.537 8.044V5.908C68.969 5.248 69.629 4.876 70.421 4.876ZM75.1994 10H76.4354V5.968C76.7474 5.452 77.2514 5.044 78.0194 5.044C78.2714 5.044 78.4634 5.08 78.6554 5.128V3.916C78.4994 3.868 78.3194 3.832 78.1274 3.832C77.3834 3.832 76.8554 4.168 76.4354 4.636V3.952H75.1994V10ZM82.5074 3.712C80.5514 3.712 79.2194 5.188 79.2194 6.976C79.2194 8.764 80.5514 10.24 82.5074 10.24C84.4754 10.24 85.7954 8.764 85.7954 6.976C85.7954 5.188 84.4754 3.712 82.5074 3.712ZM82.5194 9.076C81.3554 9.076 80.5154 8.14 80.5154 6.976C80.5154 5.812 81.3554 4.876 82.5194 4.876C83.6594 4.876 84.4994 5.8 84.4994 6.976C84.4994 8.128 83.6594 9.076 82.5194 9.076ZM90.2306 9.076C89.0546 9.076 88.2146 8.176 88.2146 6.976C88.2146 5.788 89.0546 4.876 90.2186 4.876C90.9146 4.876 91.4666 5.212 91.8026 5.68L92.7746 4.936C92.2226 4.192 91.3226 3.712 90.2186 3.712C88.1906 3.712 86.9186 5.212 86.9186 6.976C86.9186 8.74 88.1906 10.24 90.2186 10.24C91.3346 10.24 92.2226 9.76 92.7746 9.016L91.8026 8.272C91.4666 8.74 90.9146 9.076 90.2306 9.076ZM98.1706 7.408C98.1706 8.452 97.6066 9.076 96.6826 9.076C95.7346 9.076 95.1826 8.452 95.1826 7.408V3.952H93.9346V7.348C93.9346 9.16 94.9786 10.24 96.6826 10.24C98.3746 10.24 99.4186 9.16 99.4186 7.348V3.952H98.1706V7.408ZM101.297 10H102.533V5.968C102.845 5.452 103.349 5.044 104.117 5.044C104.369 5.044 104.561 5.08 104.753 5.128V3.916C104.597 3.868 104.417 3.832 104.225 3.832C103.481 3.832 102.953 4.168 102.533 4.636V3.952H101.297V10ZM107.5 10.18C108.244 10.18 109 9.844 109.432 9.316V10H110.668V6.004C110.668 4.672 109.768 3.712 108.136 3.712C107.056 3.712 106.192 4.168 105.652 4.888L106.576 5.596C106.924 5.104 107.44 4.804 108.1 4.804C108.88 4.804 109.432 5.26 109.432 6.004V6.316L107.476 6.64C106.192 6.856 105.484 7.516 105.484 8.428C105.484 9.496 106.3 10.18 107.5 10.18ZM106.732 8.38C106.732 7.924 107.044 7.6 107.8 7.468L109.432 7.192V8.236C109.072 8.812 108.484 9.172 107.728 9.172C107.104 9.172 106.732 8.848 106.732 8.38ZM112.966 7.9C112.966 9.376 113.71 10.12 115.126 10.12C115.594 10.12 115.93 10.06 116.218 9.94V8.848C116.002 8.932 115.726 8.98 115.318 8.98C114.646 8.98 114.214 8.716 114.214 7.9V5.068H116.218V3.952H114.214V2.44H112.966V3.952H111.826V5.068H112.966V7.9ZM118.316 2.608C118.772 2.608 119.156 2.224 119.156 1.768C119.156 1.312 118.772 0.927999 118.316 0.927999C117.86 0.927999 117.476 1.312 117.476 1.768C117.476 2.224 117.86 2.608 118.316 2.608ZM117.692 10H118.928V3.952H117.692V10ZM123.757 3.712C121.801 3.712 120.469 5.188 120.469 6.976C120.469 8.764 121.801 10.24 123.757 10.24C125.725 10.24 127.045 8.764 127.045 6.976C127.045 5.188 125.725 3.712 123.757 3.712ZM123.769 9.076C122.605 9.076 121.765 8.14 121.765 6.976C121.765 5.812 122.605 4.876 123.769 4.876C124.909 4.876 125.749 5.8 125.749 6.976C125.749 8.128 124.909 9.076 123.769 9.076ZM128.59 10H129.826V5.92C130.138 5.392 130.63 4.876 131.458 4.876C132.322 4.876 132.85 5.452 132.85 6.412V10H134.098V6.364C134.098 4.612 133.078 3.712 131.746 3.712C130.882 3.712 130.282 4.06 129.826 4.54V3.952H128.59V10ZM135.42 9.148C135.984 9.832 136.74 10.24 137.76 10.24C138.888 10.24 139.848 9.532 139.86 8.344C139.86 6.268 136.896 6.676 136.896 5.464C136.896 5.056 137.184 4.72 137.76 4.72C138.264 4.72 138.684 5.02 139.008 5.452L139.848 4.72C139.416 4.144 138.636 3.712 137.748 3.712C136.536 3.712 135.696 4.504 135.696 5.5C135.696 7.636 138.66 7.192 138.66 8.416C138.66 8.872 138.336 9.232 137.748 9.232C137.148 9.232 136.668 8.908 136.272 8.404L135.42 9.148ZM147.453 3.712C145.497 3.712 144.165 5.188 144.165 6.976C144.165 8.764 145.497 10.24 147.453 10.24C149.421 10.24 150.741 8.764 150.741 6.976C150.741 5.188 149.421 3.712 147.453 3.712ZM147.465 9.076C146.301 9.076 145.461 8.14 145.461 6.976C145.461 5.812 146.301 4.876 147.465 4.876C148.605 4.876 149.445 5.8 149.445 6.976C149.445 8.128 148.605 9.076 147.465 9.076ZM152.285 10H153.521V5.92C153.833 5.392 154.325 4.876 155.153 4.876C156.017 4.876 156.545 5.452 156.545 6.412V10H157.793V6.364C157.793 4.612 156.773 3.712 155.441 3.712C154.577 3.712 153.977 4.06 153.521 4.54V3.952H152.285V10ZM160.075 7.9C160.075 9.376 160.819 10.12 162.235 10.12C162.703 10.12 163.039 10.06 163.327 9.94V8.848C163.111 8.932 162.835 8.98 162.427 8.98C161.755 8.98 161.323 8.716 161.323 7.9V5.068H163.327V3.952H161.323V2.44H160.075V3.952H158.935V5.068H160.075V7.9ZM171.299 2.992L172.715 0.999999H171.347L170.099 2.992H171.299ZM173.495 9.016L172.595 8.296C172.223 8.8 171.611 9.124 170.879 9.124C169.715 9.124 168.911 8.44 168.827 7.12H173.291C173.339 6.94 173.375 6.664 173.375 6.388C173.375 4.852 172.295 3.712 170.627 3.712C168.707 3.712 167.555 5.164 167.555 6.976C167.555 8.74 168.791 10.24 170.879 10.24C172.007 10.24 172.931 9.772 173.495 9.016ZM170.603 4.744C171.575 4.744 172.115 5.44 172.139 6.196H168.887C169.079 5.26 169.703 4.744 170.603 4.744ZM175.333 7.9C175.333 9.376 176.077 10.12 177.493 10.12C177.961 10.12 178.297 10.06 178.585 9.94V8.848C178.369 8.932 178.093 8.98 177.685 8.98C177.013 8.98 176.581 8.716 176.581 7.9V5.068H178.585V3.952H176.581V2.44H175.333V3.952H174.193V5.068H175.333V7.9ZM183.206 2.992L184.622 0.999999H183.254L182.006 2.992H183.206ZM185.402 9.016L184.502 8.296C184.13 8.8 183.518 9.124 182.786 9.124C181.622 9.124 180.818 8.44 180.734 7.12H185.198C185.246 6.94 185.282 6.664 185.282 6.388C185.282 4.852 184.202 3.712 182.534 3.712C180.614 3.712 179.462 5.164 179.462 6.976C179.462 8.74 180.698 10.24 182.786 10.24C183.914 10.24 184.838 9.772 185.402 9.016ZM182.51 4.744C183.482 4.744 184.022 5.44 184.046 6.196H180.794C180.986 5.26 181.61 4.744 182.51 4.744ZM189.657 6.976C189.657 8.74 190.845 10.24 192.753 10.24C193.617 10.24 194.265 9.928 194.769 9.388V10H196.029V0.999999H194.769V4.564C194.265 4.024 193.617 3.712 192.753 3.712C190.845 3.712 189.657 5.212 189.657 6.976ZM190.965 6.976C190.965 5.788 191.745 4.876 192.909 4.876C193.665 4.876 194.325 5.224 194.769 5.884V8.068C194.361 8.704 193.689 9.076 192.909 9.076C191.745 9.076 190.965 8.164 190.965 6.976ZM203.484 9.016L202.584 8.296C202.212 8.8 201.6 9.124 200.868 9.124C199.704 9.124 198.9 8.44 198.816 7.12H203.28C203.328 6.94 203.364 6.664 203.364 6.388C203.364 4.852 202.284 3.712 200.616 3.712C198.696 3.712 197.544 5.164 197.544 6.976C197.544 8.74 198.78 10.24 200.868 10.24C201.996 10.24 202.92 9.772 203.484 9.016ZM200.592 4.744C201.564 4.744 202.104 5.44 202.128 6.196H198.876C199.068 5.26 199.692 4.744 200.592 4.744ZM208.843 5.584C209.335 5.584 209.731 5.176 209.731 4.684C209.731 4.204 209.335 3.808 208.843 3.808C208.339 3.808 207.943 4.204 207.943 4.684C207.943 5.176 208.339 5.584 208.843 5.584ZM208.843 10.144C209.335 10.144 209.731 9.748 209.731 9.256C209.731 8.776 209.335 8.368 208.843 8.368C208.339 8.368 207.943 8.776 207.943 9.256C207.943 9.748 208.339 10.144 208.843 10.144ZM0.768 27H6.468V25.812H2.364L4.56 23.64C5.496 22.692 6.24 21.828 6.24 20.688C6.24 19.284 5.1 18.36 3.672 18.36C2.292 18.36 1.308 19.032 0.612 20.124L1.692 20.784C2.16 20.004 2.7 19.536 3.552 19.536C4.32 19.536 4.896 19.992 4.896 20.796C4.896 21.588 4.464 22.056 3.624 22.92L0.768 25.812V27ZM8.63784 28.92L9.94584 25.56H8.52984L7.48584 28.92H8.63784ZM10.9868 27H16.6868V25.812H12.5828L14.7788 23.64C15.7148 22.692 16.4588 21.828 16.4588 20.688C16.4588 19.284 15.3188 18.36 13.8908 18.36C12.5108 18.36 11.5268 19.032 10.8308 20.124L11.9108 20.784C12.3788 20.004 12.9188 19.536 13.7708 19.536C14.5388 19.536 15.1148 19.992 15.1148 20.796C15.1148 21.588 14.6828 22.056 13.8428 22.92L10.9868 25.812V27ZM21.6564 27H22.8924V22.92C23.1804 22.404 23.6364 21.876 24.4044 21.876C25.1964 21.876 25.6764 22.404 25.6764 23.292V27H26.9244V23.244C26.9244 23.124 26.9244 23.016 26.9124 22.908C27.2364 22.332 27.7044 21.876 28.4244 21.876C29.2044 21.876 29.6964 22.404 29.6964 23.292V27H30.9444V23.244C30.9444 21.576 29.9724 20.712 28.7124 20.712C27.6684 20.712 27.0684 21.204 26.6004 21.804C26.2164 21.084 25.5204 20.712 24.6924 20.712C23.8884 20.712 23.3244 21.048 22.8924 21.516V20.952H21.6564V27ZM33.4836 19.608C33.9396 19.608 34.3236 19.224 34.3236 18.768C34.3236 18.312 33.9396 17.928 33.4836 17.928C33.0276 17.928 32.6436 18.312 32.6436 18.768C32.6436 19.224 33.0276 19.608 33.4836 19.608ZM32.8596 27H34.0956V20.952H32.8596V27ZM36.1174 27H37.3534V18H36.1174V27ZM39.3752 27H40.6112V18H39.3752V27ZM43.257 19.608C43.713 19.608 44.097 19.224 44.097 18.768C44.097 18.312 43.713 17.928 43.257 17.928C42.801 17.928 42.417 18.312 42.417 18.768C42.417 19.224 42.801 19.608 43.257 19.608ZM42.633 27H43.869V20.952H42.633V27ZM48.6988 20.712C46.7428 20.712 45.4108 22.188 45.4108 23.976C45.4108 25.764 46.7428 27.24 48.6988 27.24C50.6668 27.24 51.9868 25.764 51.9868 23.976C51.9868 22.188 50.6668 20.712 48.6988 20.712ZM48.7108 26.076C47.5468 26.076 46.7068 25.14 46.7068 23.976C46.7068 22.812 47.5468 21.876 48.7108 21.876C49.8508 21.876 50.6908 22.8 50.6908 23.976C50.6908 25.128 49.8508 26.076 48.7108 26.076ZM53.5314 27H54.7674V22.92C55.0794 22.392 55.5714 21.876 56.3994 21.876C57.2634 21.876 57.7914 22.452 57.7914 23.412V27H59.0394V23.364C59.0394 21.612 58.0194 20.712 56.6874 20.712C55.8234 20.712 55.2234 21.06 54.7674 21.54V20.952H53.5314V27ZM60.3611 26.148C60.9251 26.832 61.6811 27.24 62.7011 27.24C63.8291 27.24 64.7891 26.532 64.8011 25.344C64.8011 23.268 61.8371 23.676 61.8371 22.464C61.8371 22.056 62.1251 21.72 62.7011 21.72C63.2051 21.72 63.6251 22.02 63.9491 22.452L64.7891 21.72C64.3571 21.144 63.5771 20.712 62.6891 20.712C61.4771 20.712 60.6371 21.504 60.6371 22.5C60.6371 24.636 63.6011 24.192 63.6011 25.416C63.6011 25.872 63.2771 26.232 62.6891 26.232C62.0891 26.232 61.6091 25.908 61.2131 25.404L60.3611 26.148ZM69.5861 29.952H70.8221V26.376C71.3381 26.928 71.9861 27.24 72.8621 27.24C74.7581 27.24 75.9461 25.74 75.9461 23.976C75.9461 22.212 74.7581 20.712 72.8621 20.712C71.9861 20.712 71.3381 21.024 70.8221 21.576V20.952H69.5861V29.952ZM72.7061 21.876C73.8701 21.876 74.6501 22.788 74.6501 23.976C74.6501 25.164 73.8701 26.076 72.7061 26.076C71.9261 26.076 71.2661 25.716 70.8221 25.044V22.908C71.2541 22.248 71.9141 21.876 72.7061 21.876ZM80.3512 20.712C78.3952 20.712 77.0632 22.188 77.0632 23.976C77.0632 25.764 78.3952 27.24 80.3512 27.24C82.3192 27.24 83.6392 25.764 83.6392 23.976C83.6392 22.188 82.3192 20.712 80.3512 20.712ZM80.3632 26.076C79.1992 26.076 78.3592 25.14 78.3592 23.976C78.3592 22.812 79.1992 21.876 80.3632 21.876C81.5032 21.876 82.3432 22.8 82.3432 23.976C82.3432 25.128 81.5032 26.076 80.3632 26.076ZM89.2878 24.408C89.2878 25.452 88.7238 26.076 87.7998 26.076C86.8518 26.076 86.2998 25.452 86.2998 24.408V20.952H85.0518V24.348C85.0518 26.16 86.0958 27.24 87.7998 27.24C89.4918 27.24 90.5358 26.16 90.5358 24.348V20.952H89.2878V24.408ZM92.4143 27H93.6503V22.968C93.9623 22.452 94.4663 22.044 95.2343 22.044C95.4863 22.044 95.6783 22.08 95.8703 22.128V20.916C95.7143 20.868 95.5343 20.832 95.3423 20.832C94.5983 20.832 94.0703 21.168 93.6503 21.636V20.952H92.4143V27ZM100.465 27H101.701V18H100.465V27ZM109.183 26.016L108.283 25.296C107.911 25.8 107.299 26.124 106.567 26.124C105.403 26.124 104.599 25.44 104.515 24.12H108.979C109.027 23.94 109.063 23.664 109.063 23.388C109.063 21.852 107.983 20.712 106.315 20.712C104.395 20.712 103.243 22.164 103.243 23.976C103.243 25.74 104.479 27.24 106.567 27.24C107.695 27.24 108.619 26.772 109.183 26.016ZM106.291 21.744C107.263 21.744 107.803 22.44 107.827 23.196H104.575C104.767 22.26 105.391 21.744 106.291 21.744ZM113.318 26.148C113.882 26.832 114.638 27.24 115.658 27.24C116.786 27.24 117.746 26.532 117.758 25.344C117.758 23.268 114.794 23.676 114.794 22.464C114.794 22.056 115.082 21.72 115.658 21.72C116.162 21.72 116.582 22.02 116.906 22.452L117.746 21.72C117.314 21.144 116.534 20.712 115.646 20.712C114.434 20.712 113.594 21.504 113.594 22.5C113.594 24.636 116.558 24.192 116.558 25.416C116.558 25.872 116.234 26.232 115.646 26.232C115.046 26.232 114.566 25.908 114.17 25.404L113.318 26.148ZM124.722 26.016L123.822 25.296C123.45 25.8 122.838 26.124 122.106 26.124C120.942 26.124 120.138 25.44 120.054 24.12H124.518C124.566 23.94 124.602 23.664 124.602 23.388C124.602 21.852 123.522 20.712 121.854 20.712C119.934 20.712 118.782 22.164 118.782 23.976C118.782 25.74 120.018 27.24 122.106 27.24C123.234 27.24 124.158 26.772 124.722 26.016ZM121.83 21.744C122.802 21.744 123.342 22.44 123.366 23.196H120.114C120.306 22.26 120.93 21.744 121.83 21.744ZM129.02 26.076C127.844 26.076 127.004 25.176 127.004 23.976C127.004 22.788 127.844 21.876 129.008 21.876C129.704 21.876 130.256 22.212 130.592 22.68L131.564 21.936C131.012 21.192 130.112 20.712 129.008 20.712C126.98 20.712 125.708 22.212 125.708 23.976C125.708 25.74 126.98 27.24 129.008 27.24C130.124 27.24 131.012 26.76 131.564 26.016L130.592 25.272C130.256 25.74 129.704 26.076 129.02 26.076ZM135.429 20.712C133.473 20.712 132.141 22.188 132.141 23.976C132.141 25.764 133.473 27.24 135.429 27.24C137.397 27.24 138.717 25.764 138.717 23.976C138.717 22.188 137.397 20.712 135.429 20.712ZM135.441 26.076C134.277 26.076 133.437 25.14 133.437 23.976C133.437 22.812 134.277 21.876 135.441 21.876C136.581 21.876 137.421 22.8 137.421 23.976C137.421 25.128 136.581 26.076 135.441 26.076ZM140.262 27H141.498V22.92C141.81 22.392 142.302 21.876 143.13 21.876C143.994 21.876 144.522 22.452 144.522 23.412V27H145.77V23.364C145.77 21.612 144.75 20.712 143.418 20.712C142.554 20.712 141.954 21.06 141.498 21.54V20.952H140.262V27ZM147.212 23.976C147.212 25.74 148.4 27.24 150.308 27.24C151.172 27.24 151.82 26.928 152.324 26.388V27H153.584V18H152.324V21.564C151.82 21.024 151.172 20.712 150.308 20.712C148.4 20.712 147.212 22.212 147.212 23.976ZM148.52 23.976C148.52 22.788 149.3 21.876 150.464 21.876C151.22 21.876 151.88 22.224 152.324 22.884V25.068C151.916 25.704 151.244 26.076 150.464 26.076C149.3 26.076 148.52 25.164 148.52 23.976ZM159.173 24.9C159.173 26.376 159.917 27.12 161.333 27.12C161.801 27.12 162.137 27.06 162.425 26.94V25.848C162.209 25.932 161.933 25.98 161.525 25.98C160.853 25.98 160.421 25.716 160.421 24.9V22.068H162.425V20.952H160.421V19.44H159.173V20.952H158.033V22.068H159.173V24.9ZM166.589 20.712C164.633 20.712 163.301 22.188 163.301 23.976C163.301 25.764 164.633 27.24 166.589 27.24C168.557 27.24 169.877 25.764 169.877 23.976C169.877 22.188 168.557 20.712 166.589 20.712ZM166.601 26.076C165.437 26.076 164.597 25.14 164.597 23.976C164.597 22.812 165.437 21.876 166.601 21.876C167.741 21.876 168.581 22.8 168.581 23.976C168.581 25.128 167.741 26.076 166.601 26.076ZM175.526 24.408C175.526 25.452 174.962 26.076 174.038 26.076C173.09 26.076 172.538 25.452 172.538 24.408V20.952H171.29V24.348C171.29 26.16 172.334 27.24 174.038 27.24C175.73 27.24 176.774 26.16 176.774 24.348V20.952H175.526V24.408ZM178.653 27H179.889V22.968C180.201 22.452 180.705 22.044 181.473 22.044C181.725 22.044 181.917 22.08 182.109 22.128V20.916C181.953 20.868 181.773 20.832 181.581 20.832C180.837 20.832 180.309 21.168 179.889 21.636V20.952H178.653V27ZM2.724 43.988H4.032V35.588H2.748L0.048 37.112L0.72 38.048L2.724 36.932V43.988ZM6.71597 45.92L8.02397 42.56H6.60797L5.56397 45.92H6.71597ZM11.9536 35.36C9.48159 35.36 8.40159 37.22 8.40159 39.896C8.40159 42.752 9.62559 44.24 11.6896 44.24C13.5496 44.24 14.6536 42.932 14.6536 41.384C14.6536 39.884 13.5856 38.696 11.9656 38.696C11.0776 38.696 10.3336 38.996 9.76959 39.548C9.84159 37.652 10.5616 36.56 11.9416 36.56C12.6736 36.56 13.2016 36.92 13.6696 37.58L14.7016 36.764C14.1376 35.96 13.2856 35.36 11.9536 35.36ZM11.7496 39.872C12.6496 39.872 13.2976 40.544 13.2976 41.432C13.2976 42.344 12.6856 43.04 11.6656 43.04C10.7056 43.04 9.99759 42.44 9.80559 40.856C10.2736 40.196 10.9696 39.872 11.7496 39.872ZM19.3713 44H20.6073V39.92C20.8953 39.404 21.3513 38.876 22.1193 38.876C22.9113 38.876 23.3913 39.404 23.3913 40.292V44H24.6393V40.244C24.6393 40.124 24.6393 40.016 24.6273 39.908C24.9513 39.332 25.4193 38.876 26.1393 38.876C26.9193 38.876 27.4113 39.404 27.4113 40.292V44H28.6593V40.244C28.6593 38.576 27.6873 37.712 26.4273 37.712C25.3833 37.712 24.7833 38.204 24.3153 38.804C23.9313 38.084 23.2353 37.712 22.4073 37.712C21.6033 37.712 21.0393 38.048 20.6073 38.516V37.952H19.3713V44ZM31.1984 36.608C31.6544 36.608 32.0384 36.224 32.0384 35.768C32.0384 35.312 31.6544 34.928 31.1984 34.928C30.7424 34.928 30.3584 35.312 30.3584 35.768C30.3584 36.224 30.7424 36.608 31.1984 36.608ZM30.5744 44H31.8104V37.952H30.5744V44ZM33.8322 44H35.0682V35H33.8322V44ZM37.09 44H38.326V35H37.09V44ZM40.9718 36.608C41.4278 36.608 41.8118 36.224 41.8118 35.768C41.8118 35.312 41.4278 34.928 40.9718 34.928C40.5158 34.928 40.1318 35.312 40.1318 35.768C40.1318 36.224 40.5158 36.608 40.9718 36.608ZM40.3478 44H41.5838V37.952H40.3478V44ZM46.4137 37.712C44.4577 37.712 43.1257 39.188 43.1257 40.976C43.1257 42.764 44.4577 44.24 46.4137 44.24C48.3817 44.24 49.7017 42.764 49.7017 40.976C49.7017 39.188 48.3817 37.712 46.4137 37.712ZM46.4257 43.076C45.2617 43.076 44.4217 42.14 44.4217 40.976C44.4217 39.812 45.2617 38.876 46.4257 38.876C47.5657 38.876 48.4057 39.8 48.4057 40.976C48.4057 42.128 47.5657 43.076 46.4257 43.076ZM51.2463 44H52.4823V39.92C52.7943 39.392 53.2863 38.876 54.1143 38.876C54.9783 38.876 55.5063 39.452 55.5063 40.412V44H56.7543V40.364C56.7543 38.612 55.7343 37.712 54.4023 37.712C53.5383 37.712 52.9383 38.06 52.4823 38.54V37.952H51.2463V44ZM58.076 43.148C58.64 43.832 59.396 44.24 60.416 44.24C61.544 44.24 62.504 43.532 62.516 42.344C62.516 40.268 59.552 40.676 59.552 39.464C59.552 39.056 59.84 38.72 60.416 38.72C60.92 38.72 61.34 39.02 61.664 39.452L62.504 38.72C62.072 38.144 61.292 37.712 60.404 37.712C59.192 37.712 58.352 38.504 58.352 39.5C58.352 41.636 61.316 41.192 61.316 42.416C61.316 42.872 60.992 43.232 60.404 43.232C59.804 43.232 59.324 42.908 58.928 42.404L58.076 43.148ZM67.301 46.952H68.537V43.376C69.053 43.928 69.701 44.24 70.577 44.24C72.473 44.24 73.661 42.74 73.661 40.976C73.661 39.212 72.473 37.712 70.577 37.712C69.701 37.712 69.053 38.024 68.537 38.576V37.952H67.301V46.952ZM70.421 38.876C71.585 38.876 72.365 39.788 72.365 40.976C72.365 42.164 71.585 43.076 70.421 43.076C69.641 43.076 68.981 42.716 68.537 42.044V39.908C68.969 39.248 69.629 38.876 70.421 38.876ZM78.066 37.712C76.11 37.712 74.778 39.188 74.778 40.976C74.778 42.764 76.11 44.24 78.066 44.24C80.034 44.24 81.354 42.764 81.354 40.976C81.354 39.188 80.034 37.712 78.066 37.712ZM78.078 43.076C76.914 43.076 76.074 42.14 76.074 40.976C76.074 39.812 76.914 38.876 78.078 38.876C79.218 38.876 80.058 39.8 80.058 40.976C80.058 42.128 79.218 43.076 78.078 43.076ZM87.0026 41.408C87.0026 42.452 86.4386 43.076 85.5146 43.076C84.5666 43.076 84.0146 42.452 84.0146 41.408V37.952H82.7666V41.348C82.7666 43.16 83.8106 44.24 85.5146 44.24C87.2066 44.24 88.2506 43.16 88.2506 41.348V37.952H87.0026V41.408ZM90.1291 44H91.3651V39.968C91.6771 39.452 92.1811 39.044 92.9491 39.044C93.2011 39.044 93.3931 39.08 93.5851 39.128V37.916C93.4291 37.868 93.2491 37.832 93.0571 37.832C92.3131 37.832 91.7851 38.168 91.3651 38.636V37.952H90.1291V44ZM98.1799 44H99.4159V35H98.1799V44ZM106.898 43.016L105.998 42.296C105.626 42.8 105.014 43.124 104.282 43.124C103.118 43.124 102.314 42.44 102.23 41.12H106.694C106.742 40.94 106.778 40.664 106.778 40.388C106.778 38.852 105.698 37.712 104.03 37.712C102.11 37.712 100.958 39.164 100.958 40.976C100.958 42.74 102.194 44.24 104.282 44.24C105.41 44.24 106.334 43.772 106.898 43.016ZM104.006 38.744C104.978 38.744 105.518 39.44 105.542 40.196H102.29C102.482 39.26 103.106 38.744 104.006 38.744ZM111.633 46.952H112.869V43.376C113.385 43.928 114.033 44.24 114.909 44.24C116.805 44.24 117.993 42.74 117.993 40.976C117.993 39.212 116.805 37.712 114.909 37.712C114.033 37.712 113.385 38.024 112.869 38.576V37.952H111.633V46.952ZM114.753 38.876C115.917 38.876 116.697 39.788 116.697 40.976C116.697 42.164 115.917 43.076 114.753 43.076C113.973 43.076 113.313 42.716 112.869 42.044V39.908C113.301 39.248 113.961 38.876 114.753 38.876ZM119.531 44H120.767V39.968C121.079 39.452 121.583 39.044 122.351 39.044C122.603 39.044 122.795 39.08 122.987 39.128V37.916C122.831 37.868 122.651 37.832 122.459 37.832C121.715 37.832 121.187 38.168 120.767 38.636V37.952H119.531V44ZM129.491 43.016L128.591 42.296C128.219 42.8 127.607 43.124 126.875 43.124C125.711 43.124 124.907 42.44 124.823 41.12H129.287C129.335 40.94 129.371 40.664 129.371 40.388C129.371 38.852 128.291 37.712 126.623 37.712C124.703 37.712 123.551 39.164 123.551 40.976C123.551 42.74 124.787 44.24 126.875 44.24C128.003 44.24 128.927 43.772 129.491 43.016ZM126.599 38.744C127.571 38.744 128.111 39.44 128.135 40.196H124.883C125.075 39.26 125.699 38.744 126.599 38.744ZM130.992 44H132.228V39.92C132.516 39.404 132.972 38.876 133.74 38.876C134.532 38.876 135.012 39.404 135.012 40.292V44H136.26V40.244C136.26 40.124 136.26 40.016 136.248 39.908C136.572 39.332 137.04 38.876 137.76 38.876C138.54 38.876 139.032 39.404 139.032 40.292V44H140.28V40.244C140.28 38.576 139.308 37.712 138.048 37.712C137.004 37.712 136.404 38.204 135.936 38.804C135.552 38.084 134.856 37.712 134.028 37.712C133.224 37.712 132.66 38.048 132.228 38.516V37.952H130.992V44ZM142.82 36.608C143.276 36.608 143.66 36.224 143.66 35.768C143.66 35.312 143.276 34.928 142.82 34.928C142.364 34.928 141.979 35.312 141.979 35.768C141.979 36.224 142.364 36.608 142.82 36.608ZM142.196 44H143.432V37.952H142.196V44ZM150.913 43.016L150.013 42.296C149.641 42.8 149.029 43.124 148.297 43.124C147.133 43.124 146.329 42.44 146.245 41.12H150.709C150.757 40.94 150.793 40.664 150.793 40.388C150.793 38.852 149.713 37.712 148.045 37.712C146.125 37.712 144.973 39.164 144.973 40.976C144.973 42.74 146.209 44.24 148.297 44.24C149.425 44.24 150.349 43.772 150.913 43.016ZM148.021 38.744C148.993 38.744 149.533 39.44 149.557 40.196H146.305C146.497 39.26 147.121 38.744 148.021 38.744ZM152.414 44H153.65V39.968C153.962 39.452 154.466 39.044 155.234 39.044C155.486 39.044 155.678 39.08 155.87 39.128V37.916C155.714 37.868 155.534 37.832 155.342 37.832C154.598 37.832 154.07 38.168 153.65 38.636V37.952H152.414V44ZM160.825 41.9C160.825 43.376 161.569 44.12 162.985 44.12C163.453 44.12 163.789 44.06 164.077 43.94V42.848C163.861 42.932 163.585 42.98 163.177 42.98C162.505 42.98 162.073 42.716 162.073 41.9V39.068H164.077V37.952H162.073V36.44H160.825V37.952H159.685V39.068H160.825V41.9ZM168.242 37.712C166.286 37.712 164.954 39.188 164.954 40.976C164.954 42.764 166.286 44.24 168.242 44.24C170.21 44.24 171.53 42.764 171.53 40.976C171.53 39.188 170.21 37.712 168.242 37.712ZM168.254 43.076C167.09 43.076 166.25 42.14 166.25 40.976C166.25 39.812 167.09 38.876 168.254 38.876C169.394 38.876 170.234 39.8 170.234 40.976C170.234 42.128 169.394 43.076 168.254 43.076ZM177.178 41.408C177.178 42.452 176.614 43.076 175.69 43.076C174.742 43.076 174.19 42.452 174.19 41.408V37.952H172.942V41.348C172.942 43.16 173.986 44.24 175.69 44.24C177.382 44.24 178.426 43.16 178.426 41.348V37.952H177.178V41.408ZM180.305 44H181.541V39.968C181.853 39.452 182.357 39.044 183.125 39.044C183.377 39.044 183.569 39.08 183.761 39.128V37.916C183.605 37.868 183.425 37.832 183.233 37.832C182.489 37.832 181.961 38.168 181.541 38.636V37.952H180.305V44ZM1.296 78H5.976V76.74H2.664V69.6H1.296V78ZM12.8196 77.016L11.9196 76.296C11.5476 76.8 10.9356 77.124 10.2036 77.124C9.03956 77.124 8.23556 76.44 8.15156 75.12H12.6156C12.6636 74.94 12.6996 74.664 12.6996 74.388C12.6996 72.852 11.6196 71.712 9.95156 71.712C8.03156 71.712 6.87956 73.164 6.87956 74.976C6.87956 76.74 8.11556 78.24 10.2036 78.24C11.3316 78.24 12.2556 77.772 12.8196 77.016ZM9.92756 72.744C10.8996 72.744 11.4396 73.44 11.4636 74.196H8.21156C8.40356 73.26 9.02756 72.744 9.92756 72.744ZM13.6502 77.148C14.2142 77.832 14.9702 78.24 15.9902 78.24C17.1182 78.24 18.0782 77.532 18.0902 76.344C18.0902 74.268 15.1262 74.676 15.1262 73.464C15.1262 73.056 15.4142 72.72 15.9902 72.72C16.4942 72.72 16.9142 73.02 17.2382 73.452L18.0782 72.72C17.6462 72.144 16.8662 71.712 15.9782 71.712C14.7662 71.712 13.9262 72.504 13.9262 73.5C13.9262 75.636 16.8902 75.192 16.8902 76.416C16.8902 76.872 16.5662 77.232 15.9782 77.232C15.3782 77.232 14.8982 76.908 14.5022 76.404L13.6502 77.148ZM22.8752 80.952H24.1112V77.376C24.6272 77.928 25.2752 78.24 26.1512 78.24C28.0472 78.24 29.2352 76.74 29.2352 74.976C29.2352 73.212 28.0472 71.712 26.1512 71.712C25.2752 71.712 24.6272 72.024 24.1112 72.576V71.952H22.8752V80.952ZM25.9952 72.876C27.1592 72.876 27.9392 73.788 27.9392 74.976C27.9392 76.164 27.1592 77.076 25.9952 77.076C25.2152 77.076 24.5552 76.716 24.1112 76.044V73.908C24.5432 73.248 25.2032 72.876 25.9952 72.876ZM36.2922 77.016L35.3922 76.296C35.0202 76.8 34.4082 77.124 33.6762 77.124C32.5122 77.124 31.7082 76.44 31.6242 75.12H36.0882C36.1362 74.94 36.1722 74.664 36.1722 74.388C36.1722 72.852 35.0922 71.712 33.4242 71.712C31.5042 71.712 30.3522 73.164 30.3522 74.976C30.3522 76.74 31.5882 78.24 33.6762 78.24C34.8042 78.24 35.7282 77.772 36.2922 77.016ZM33.4002 72.744C34.3722 72.744 34.9122 73.44 34.9362 74.196H31.6842C31.8762 73.26 32.5002 72.744 33.4002 72.744ZM37.7932 78H39.0292V73.968C39.3412 73.452 39.8452 73.044 40.6132 73.044C40.8652 73.044 41.0572 73.08 41.2492 73.128V71.916C41.0932 71.868 40.9132 71.832 40.7212 71.832C39.9772 71.832 39.4492 72.168 39.0292 72.636V71.952H37.7932V78ZM42.0096 77.148C42.5736 77.832 43.3296 78.24 44.3496 78.24C45.4776 78.24 46.4376 77.532 46.4496 76.344C46.4496 74.268 43.4856 74.676 43.4856 73.464C43.4856 73.056 43.7736 72.72 44.3496 72.72C44.8536 72.72 45.2736 73.02 45.5976 73.452L46.4376 72.72C46.0056 72.144 45.2256 71.712 44.3376 71.712C43.1256 71.712 42.2856 72.504 42.2856 73.5C42.2856 75.636 45.2496 75.192 45.2496 76.416C45.2496 76.872 44.9256 77.232 44.3376 77.232C43.7376 77.232 43.2576 76.908 42.8616 76.404L42.0096 77.148ZM50.7613 71.712C48.8053 71.712 47.4733 73.188 47.4733 74.976C47.4733 76.764 48.8053 78.24 50.7613 78.24C52.7293 78.24 54.0493 76.764 54.0493 74.976C54.0493 73.188 52.7293 71.712 50.7613 71.712ZM50.7733 77.076C49.6093 77.076 48.7693 76.14 48.7693 74.976C48.7693 73.812 49.6093 72.876 50.7733 72.876C51.9133 72.876 52.7533 73.8 52.7533 74.976C52.7533 76.128 51.9133 77.076 50.7733 77.076ZM55.5939 78H56.8299V73.92C57.1419 73.392 57.6339 72.876 58.4619 72.876C59.3259 72.876 59.8539 73.452 59.8539 74.412V78H61.1019V74.364C61.1019 72.612 60.0819 71.712 58.7499 71.712C57.8859 71.712 57.2859 72.06 56.8299 72.54V71.952H55.5939V78ZM63.0236 78H64.2596V73.92C64.5716 73.392 65.0636 72.876 65.8916 72.876C66.7556 72.876 67.2836 73.452 67.2836 74.412V78H68.5316V74.364C68.5316 72.612 67.5116 71.712 66.1796 71.712C65.3156 71.712 64.7156 72.06 64.2596 72.54V71.952H63.0236V78ZM75.9133 77.016L75.0133 76.296C74.6413 76.8 74.0293 77.124 73.2973 77.124C72.1333 77.124 71.3293 76.44 71.2453 75.12H75.7093C75.7573 74.94 75.7933 74.664 75.7933 74.388C75.7933 72.852 74.7133 71.712 73.0453 71.712C71.1253 71.712 69.9733 73.164 69.9733 74.976C69.9733 76.74 71.2093 78.24 73.2973 78.24C74.4253 78.24 75.3493 77.772 75.9133 77.016ZM73.0213 72.744C73.9933 72.744 74.5333 73.44 74.5573 74.196H71.3053C71.4973 73.26 72.1213 72.744 73.0213 72.744ZM76.7439 77.148C77.3079 77.832 78.0639 78.24 79.0839 78.24C80.2119 78.24 81.1719 77.532 81.1839 76.344C81.1839 74.268 78.2199 74.676 78.2199 73.464C78.2199 73.056 78.5079 72.72 79.0839 72.72C79.5879 72.72 80.0079 73.02 80.3319 73.452L81.1719 72.72C80.7399 72.144 79.9599 71.712 79.0719 71.712C77.8599 71.712 77.0199 72.504 77.0199 73.5C77.0199 75.636 79.9839 75.192 79.9839 76.416C79.9839 76.872 79.6599 77.232 79.0719 77.232C78.4719 77.232 77.9919 76.908 77.5959 76.404L76.7439 77.148ZM87.3729 70.992L88.3329 69.564L89.2929 70.992H90.3969L89.1489 69H87.5169L86.2689 70.992H87.3729ZM87.6369 78.18C88.3809 78.18 89.1369 77.844 89.5689 77.316V78H90.8049V74.004C90.8049 72.672 89.9049 71.712 88.2729 71.712C87.1929 71.712 86.3289 72.168 85.7889 72.888L86.7129 73.596C87.0609 73.104 87.5769 72.804 88.2369 72.804C89.0169 72.804 89.5689 73.26 89.5689 74.004V74.316L87.6129 74.64C86.3289 74.856 85.6209 75.516 85.6209 76.428C85.6209 77.496 86.4369 78.18 87.6369 78.18ZM86.8689 76.38C86.8689 75.924 87.1809 75.6 87.9369 75.468L89.5689 75.192V76.236C89.2089 76.812 88.6209 77.172 87.8649 77.172C87.2409 77.172 86.8689 76.848 86.8689 76.38ZM92.0944 79.08C92.0944 80.316 93.2464 81 95.1064 81C96.9424 81 98.2144 80.016 98.2144 78.708C98.2144 77.616 97.4344 76.812 95.8744 76.812H94.2304C93.9064 76.812 93.7744 76.668 93.7744 76.416C93.7744 76.236 93.8824 76.056 94.0744 75.9C94.3024 75.948 94.5424 75.984 94.8064 75.984C96.3064 75.984 97.2064 75.012 97.2064 73.836C97.2064 73.548 97.1464 73.26 97.0384 73.008H98.2264V71.952H95.9944C95.6584 71.796 95.2624 71.712 94.8064 71.712C93.3304 71.712 92.4304 72.672 92.4304 73.836C92.4304 74.508 92.7304 75.12 93.2584 75.516C92.7904 75.84 92.5624 76.224 92.5624 76.704C92.5624 77.016 92.6944 77.34 92.9584 77.568C92.3944 77.988 92.0944 78.468 92.0944 79.08ZM94.8184 75.036C94.0384 75.036 93.5824 74.52 93.5824 73.836C93.5824 73.164 94.0384 72.66 94.8184 72.66C95.5984 72.66 96.0544 73.164 96.0544 73.836C96.0544 74.52 95.5984 75.036 94.8184 75.036ZM93.2704 78.912C93.2704 78.48 93.4984 78.156 93.8344 77.892H95.7544C96.6784 77.892 96.9784 78.3 96.9784 78.816C96.9784 79.524 96.2824 79.992 95.0824 79.992C93.9424 79.992 93.2704 79.584 93.2704 78.912ZM102.405 70.992L103.821 69H102.453L101.205 70.992H102.405ZM104.601 77.016L103.701 76.296C103.329 76.8 102.717 77.124 101.985 77.124C100.821 77.124 100.017 76.44 99.9328 75.12H104.397C104.445 74.94 104.481 74.664 104.481 74.388C104.481 72.852 103.401 71.712 101.733 71.712C99.8128 71.712 98.6608 73.164 98.6608 74.976C98.6608 76.74 99.8968 78.24 101.985 78.24C103.113 78.24 104.037 77.772 104.601 77.016ZM101.709 72.744C102.681 72.744 103.221 73.44 103.245 74.196H99.9928C100.185 73.26 100.809 72.744 101.709 72.744ZM111.527 77.016L110.627 76.296C110.255 76.8 109.643 77.124 108.911 77.124C107.747 77.124 106.943 76.44 106.859 75.12H111.323C111.371 74.94 111.407 74.664 111.407 74.388C111.407 72.852 110.327 71.712 108.659 71.712C106.739 71.712 105.587 73.164 105.587 74.976C105.587 76.74 106.823 78.24 108.911 78.24C110.039 78.24 110.963 77.772 111.527 77.016ZM108.635 72.744C109.607 72.744 110.147 73.44 110.171 74.196H106.919C107.111 73.26 107.735 72.744 108.635 72.744ZM112.357 77.148C112.921 77.832 113.677 78.24 114.697 78.24C115.825 78.24 116.785 77.532 116.797 76.344C116.797 74.268 113.833 74.676 113.833 73.464C113.833 73.056 114.121 72.72 114.697 72.72C115.201 72.72 115.621 73.02 115.945 73.452L116.785 72.72C116.353 72.144 115.573 71.712 114.685 71.712C113.473 71.712 112.633 72.504 112.633 73.5C112.633 75.636 115.597 75.192 115.597 76.416C115.597 76.872 115.273 77.232 114.685 77.232C114.085 77.232 113.605 76.908 113.209 76.404L112.357 77.148ZM121.102 74.976C121.102 76.74 122.29 78.24 124.198 78.24C125.062 78.24 125.71 77.928 126.214 77.388V78H127.474V69H126.214V72.564C125.71 72.024 125.062 71.712 124.198 71.712C122.29 71.712 121.102 73.212 121.102 74.976ZM122.41 74.976C122.41 73.788 123.19 72.876 124.354 72.876C125.11 72.876 125.77 73.224 126.214 73.884V76.068C125.806 76.704 125.134 77.076 124.354 77.076C123.19 77.076 122.41 76.164 122.41 74.976ZM134.929 77.016L134.029 76.296C133.657 76.8 133.045 77.124 132.313 77.124C131.149 77.124 130.345 76.44 130.261 75.12H134.725C134.773 74.94 134.809 74.664 134.809 74.388C134.809 72.852 133.729 71.712 132.061 71.712C130.141 71.712 128.989 73.164 128.989 74.976C128.989 76.74 130.225 78.24 132.313 78.24C133.441 78.24 134.365 77.772 134.929 77.016ZM132.037 72.744C133.009 72.744 133.549 73.44 133.573 74.196H130.321C130.513 73.26 131.137 72.744 132.037 72.744ZM141.128 78L145.364 70.788V69.6H139.436V70.788H143.96L139.616 78H141.128ZM146.793 74.124H149.073C150.201 74.124 150.837 74.7 150.837 75.588C150.837 76.512 150.141 77.064 149.193 77.064C148.317 77.064 147.681 76.668 147.177 75.744L146.025 76.452C146.697 77.616 147.705 78.24 149.193 78.24C150.897 78.24 152.181 77.196 152.181 75.54C152.181 73.992 151.233 72.948 149.133 72.948H148.173L148.293 70.788H151.833V69.6H147.033L146.793 74.124ZM158.723 78.18C159.467 78.18 160.223 77.844 160.655 77.316V78H161.891V74.004C161.891 72.672 160.991 71.712 159.359 71.712C158.279 71.712 157.415 72.168 156.875 72.888L157.799 73.596C158.147 73.104 158.663 72.804 159.323 72.804C160.103 72.804 160.655 73.26 160.655 74.004V74.316L158.699 74.64C157.415 74.856 156.707 75.516 156.707 76.428C156.707 77.496 157.523 78.18 158.723 78.18ZM157.955 76.38C157.955 75.924 158.267 75.6 159.023 75.468L160.655 75.192V76.236C160.295 76.812 159.707 77.172 158.951 77.172C158.327 77.172 157.955 76.848 157.955 76.38ZM163.828 78H165.064V73.92C165.376 73.392 165.868 72.876 166.696 72.876C167.56 72.876 168.088 73.452 168.088 74.412V78H169.336V74.364C169.336 72.612 168.316 71.712 166.984 71.712C166.12 71.712 165.52 72.06 165.064 72.54V71.952H163.828V78ZM170.658 77.148C171.222 77.832 171.978 78.24 172.998 78.24C174.126 78.24 175.086 77.532 175.098 76.344C175.098 74.268 172.134 74.676 172.134 73.464C172.134 73.056 172.422 72.72 172.998 72.72C173.502 72.72 173.922 73.02 174.246 73.452L175.086 72.72C174.654 72.144 173.874 71.712 172.986 71.712C171.774 71.712 170.934 72.504 170.934 73.5C170.934 75.636 173.898 75.192 173.898 76.416C173.898 76.872 173.574 77.232 172.986 77.232C172.386 77.232 171.906 76.908 171.51 76.404L170.658 77.148ZM180.663 74.688C180.663 72.648 181.407 70.992 182.667 69.744L181.767 69C180.399 70.296 179.427 72.252 179.427 74.688C179.427 77.1 180.315 79.056 181.767 80.4L182.667 79.656C181.359 78.36 180.663 76.752 180.663 74.688ZM189.505 75.648C189.505 74.7 189.001 73.896 188.089 73.476C188.773 73.068 189.133 72.384 189.133 71.592C189.133 70.236 188.029 69.36 186.529 69.36C185.245 69.36 184.345 69.936 183.733 70.92L184.813 71.58C185.197 70.908 185.713 70.536 186.445 70.536C187.213 70.536 187.777 70.968 187.777 71.724C187.777 72.468 187.213 72.96 186.361 72.96H185.101V74.136H186.505C187.513 74.136 188.161 74.712 188.161 75.588C188.161 76.512 187.453 77.064 186.505 77.064C185.617 77.064 184.993 76.668 184.501 75.744L183.349 76.452C184.021 77.604 185.005 78.24 186.517 78.24C188.233 78.24 189.505 77.208 189.505 75.648ZM191.193 79.92L192.501 76.56H191.085L190.041 79.92H191.193ZM193.856 74.124H196.136C197.264 74.124 197.9 74.7 197.9 75.588C197.9 76.512 197.204 77.064 196.256 77.064C195.38 77.064 194.744 76.668 194.24 75.744L193.088 76.452C193.76 77.616 194.768 78.24 196.256 78.24C197.96 78.24 199.244 77.196 199.244 75.54C199.244 73.992 198.296 72.948 196.196 72.948H195.236L195.356 70.788H198.896V69.6H194.096L193.856 74.124ZM205.569 69.336C204.345 69.336 203.529 70.236 203.529 71.34C203.529 72.444 204.345 73.344 205.569 73.344C206.769 73.344 207.597 72.444 207.597 71.34C207.597 70.236 206.769 69.336 205.569 69.336ZM204.333 77.988H205.617L211.773 69.588H210.489L204.333 77.988ZM205.569 72.492C204.933 72.492 204.477 72 204.477 71.34C204.477 70.68 204.933 70.188 205.569 70.188C206.193 70.188 206.649 70.68 206.649 71.34C206.649 71.988 206.193 72.492 205.569 72.492ZM210.561 74.22C209.337 74.22 208.521 75.12 208.521 76.224C208.521 77.328 209.337 78.228 210.561 78.228C211.761 78.228 212.589 77.328 212.589 76.224C212.589 75.12 211.761 74.22 210.561 74.22ZM210.561 77.376C209.925 77.376 209.469 76.884 209.469 76.224C209.469 75.564 209.925 75.072 210.561 75.072C211.185 75.072 211.641 75.564 211.641 76.224C211.641 76.872 211.185 77.376 210.561 77.376ZM215.303 74.712C215.303 76.764 214.583 78.396 213.299 79.656L214.199 80.4C215.603 79.092 216.539 77.136 216.539 74.712C216.539 72.288 215.627 70.32 214.199 69L213.299 69.744C214.595 71.016 215.303 72.66 215.303 74.712ZM218.734 78.144C219.226 78.144 219.622 77.748 219.622 77.256C219.622 76.776 219.226 76.368 218.734 76.368C218.23 76.368 217.834 76.776 217.834 77.256C217.834 77.748 218.23 78.144 218.734 78.144ZM5.004 110.944C3.252 110.944 1.992 109.564 1.992 107.8C1.992 106.048 3.252 104.656 5.004 104.656C6.06 104.656 6.912 105.172 7.44 105.928L8.544 105.076C7.764 104.044 6.528 103.36 5.004 103.36C2.364 103.36 0.576 105.4 0.576 107.8C0.576 110.2 2.364 112.24 5.004 112.24C6.528 112.24 7.764 111.556 8.544 110.524L7.44 109.672C6.912 110.428 6.06 110.944 5.004 110.944ZM15.3508 111.016L14.4508 110.296C14.0788 110.8 13.4668 111.124 12.7348 111.124C11.5708 111.124 10.7668 110.44 10.6828 109.12H15.1468C15.1948 108.94 15.2308 108.664 15.2308 108.388C15.2308 106.852 14.1508 105.712 12.4828 105.712C10.5628 105.712 9.41081 107.164 9.41081 108.976C9.41081 110.74 10.6468 112.24 12.7348 112.24C13.8628 112.24 14.7868 111.772 15.3508 111.016ZM12.4588 106.744C13.4308 106.744 13.9708 107.44 13.9948 108.196H10.7428C10.9348 107.26 11.5588 106.744 12.4588 106.744ZM19.4861 111.148C20.0501 111.832 20.8061 112.24 21.8261 112.24C22.9541 112.24 23.9141 111.532 23.9261 110.344C23.9261 108.268 20.9621 108.676 20.9621 107.464C20.9621 107.056 21.2501 106.72 21.8261 106.72C22.3301 106.72 22.7501 107.02 23.0741 107.452L23.9141 106.72C23.4821 106.144 22.7021 105.712 21.8141 105.712C20.6021 105.712 19.7621 106.504 19.7621 107.5C19.7621 109.636 22.7261 109.192 22.7261 110.416C22.7261 110.872 22.4021 111.232 21.8141 111.232C21.2141 111.232 20.7341 110.908 20.3381 110.404L19.4861 111.148ZM28.2379 105.712C26.2819 105.712 24.9499 107.188 24.9499 108.976C24.9499 110.764 26.2819 112.24 28.2379 112.24C30.2059 112.24 31.5259 110.764 31.5259 108.976C31.5259 107.188 30.2059 105.712 28.2379 105.712ZM28.2499 111.076C27.0859 111.076 26.2459 110.14 26.2459 108.976C26.2459 107.812 27.0859 106.876 28.2499 106.876C29.3899 106.876 30.2299 107.8 30.2299 108.976C30.2299 110.128 29.3899 111.076 28.2499 111.076ZM33.0705 112H34.3065V107.92C34.6185 107.392 35.1105 106.876 35.9385 106.876C36.8025 106.876 37.3305 107.452 37.3305 108.412V112H38.5785V108.364C38.5785 106.612 37.5585 105.712 36.2265 105.712C35.3625 105.712 34.7625 106.06 34.3065 106.54V105.952H33.0705V112ZM40.8602 109.9C40.8602 111.376 41.6042 112.12 43.0202 112.12C43.4882 112.12 43.8242 112.06 44.1122 111.94V110.848C43.8962 110.932 43.6202 110.98 43.2122 110.98C42.5402 110.98 42.1082 110.716 42.1082 109.9V107.068H44.1122V105.952H42.1082V104.44H40.8602V105.952H39.7202V107.068H40.8602V109.9ZM48.8205 112H50.0565V103H48.8205V112ZM57.5383 111.016L56.6383 110.296C56.2663 110.8 55.6543 111.124 54.9223 111.124C53.7583 111.124 52.9543 110.44 52.8703 109.12H57.3343C57.3823 108.94 57.4183 108.664 57.4183 108.388C57.4183 106.852 56.3383 105.712 54.6703 105.712C52.7503 105.712 51.5983 107.164 51.5983 108.976C51.5983 110.74 52.8343 112.24 54.9223 112.24C56.0503 112.24 56.9743 111.772 57.5383 111.016ZM54.6463 106.744C55.6183 106.744 56.1583 107.44 56.1823 108.196H52.9303C53.1223 107.26 53.7463 106.744 54.6463 106.744ZM58.3689 111.148C58.9329 111.832 59.6889 112.24 60.7089 112.24C61.8369 112.24 62.7969 111.532 62.8089 110.344C62.8089 108.268 59.8449 108.676 59.8449 107.464C59.8449 107.056 60.1329 106.72 60.7089 106.72C61.2129 106.72 61.6329 107.02 61.9569 107.452L62.7969 106.72C62.3649 106.144 61.5849 105.712 60.6969 105.712C59.4849 105.712 58.6449 106.504 58.6449 107.5C58.6449 109.636 61.6089 109.192 61.6089 110.416C61.6089 110.872 61.2849 111.232 60.6969 111.232C60.0969 111.232 59.6169 110.908 59.2209 110.404L58.3689 111.148ZM69.3099 111.988H70.6179V103.588H69.3339L66.6339 105.112L67.3059 106.048L69.3099 104.932V111.988ZM75.6469 103.36C73.8829 103.36 72.9109 104.392 72.9109 105.592C72.9109 106.396 73.3189 107.056 74.0989 107.416C73.0789 107.812 72.5269 108.616 72.5269 109.66C72.5269 111.124 73.6669 112.24 75.6469 112.24C77.6389 112.24 78.7669 111.124 78.7669 109.66C78.7669 108.616 78.2149 107.812 77.2069 107.416C77.9749 107.056 78.3829 106.396 78.3829 105.592C78.3829 104.392 77.4229 103.36 75.6469 103.36ZM75.6709 106.924C74.8189 106.924 74.2669 106.444 74.2669 105.712C74.2669 104.992 74.8069 104.5 75.6709 104.5C76.4749 104.5 77.0269 104.992 77.0269 105.712C77.0269 106.444 76.4749 106.924 75.6709 106.924ZM75.6589 111.088C74.5789 111.088 73.8829 110.5 73.8829 109.6C73.8829 108.688 74.5789 108.052 75.6589 108.052C76.7149 108.052 77.4109 108.688 77.4109 109.6C77.4109 110.488 76.7149 111.088 75.6589 111.088ZM79.6111 108.328V109.528H82.8511V108.328H79.6111ZM83.5844 112H89.2844V110.812H85.1804L87.3764 108.64C88.3124 107.692 89.0564 106.828 89.0564 105.688C89.0564 104.284 87.9164 103.36 86.4884 103.36C85.1084 103.36 84.1244 104.032 83.4284 105.124L84.5084 105.784C84.9764 105.004 85.5164 104.536 86.3684 104.536C87.1364 104.536 87.7124 104.992 87.7124 105.796C87.7124 106.588 87.2804 107.056 86.4404 107.92L83.5844 110.812V112ZM93.0623 112.24C95.5343 112.24 96.6143 110.38 96.6143 107.704C96.6143 104.848 95.3783 103.36 93.3263 103.36C91.4663 103.36 90.3623 104.668 90.3623 106.216C90.3623 107.716 91.4303 108.904 93.0503 108.904C93.9383 108.904 94.6823 108.604 95.2463 108.052C95.1743 109.948 94.4543 111.04 93.0623 111.04C92.3423 111.04 91.8023 110.68 91.3343 110.02L90.3143 110.836C90.8783 111.64 91.7303 112.24 93.0623 112.24ZM91.7183 106.168C91.7183 105.256 92.3303 104.56 93.3383 104.56C94.3103 104.56 95.0183 105.16 95.2103 106.744C94.7423 107.404 94.0463 107.728 93.2663 107.728C92.3543 107.728 91.7183 107.056 91.7183 106.168ZM103.012 112.18C103.756 112.18 104.512 111.844 104.944 111.316V112H106.18V108.004C106.18 106.672 105.28 105.712 103.648 105.712C102.568 105.712 101.704 106.168 101.164 106.888L102.088 107.596C102.436 107.104 102.952 106.804 103.612 106.804C104.392 106.804 104.944 107.26 104.944 108.004V108.316L102.988 108.64C101.704 108.856 100.996 109.516 100.996 110.428C100.996 111.496 101.812 112.18 103.012 112.18ZM102.244 110.38C102.244 109.924 102.556 109.6 103.312 109.468L104.944 109.192V110.236C104.584 110.812 103.996 111.172 103.24 111.172C102.616 111.172 102.244 110.848 102.244 110.38ZM108.117 112H109.353V107.92C109.665 107.392 110.157 106.876 110.985 106.876C111.849 106.876 112.377 107.452 112.377 108.412V112H113.625V108.364C113.625 106.612 112.605 105.712 111.273 105.712C110.409 105.712 109.809 106.06 109.353 106.54V105.952H108.117V112ZM114.947 111.148C115.511 111.832 116.267 112.24 117.287 112.24C118.415 112.24 119.375 111.532 119.387 110.344C119.387 108.268 116.423 108.676 116.423 107.464C116.423 107.056 116.711 106.72 117.287 106.72C117.791 106.72 118.211 107.02 118.535 107.452L119.375 106.72C118.943 106.144 118.163 105.712 117.275 105.712C116.063 105.712 115.223 106.504 115.223 107.5C115.223 109.636 118.187 109.192 118.187 110.416C118.187 110.872 117.863 111.232 117.275 111.232C116.675 111.232 116.195 110.908 115.799 110.404L114.947 111.148ZM123.692 108.976C123.692 110.74 124.88 112.24 126.776 112.24C127.652 112.24 128.3 111.928 128.804 111.376V114.952H130.064V105.952H128.804V106.576C128.3 106.024 127.652 105.712 126.776 105.712C124.88 105.712 123.692 107.212 123.692 108.976ZM124.988 108.976C124.988 107.788 125.768 106.876 126.932 106.876C127.7 106.876 128.36 107.224 128.804 107.884V110.068C128.396 110.704 127.724 111.076 126.932 111.076C125.768 111.076 124.988 110.164 124.988 108.976ZM136.175 109.408C136.175 110.452 135.611 111.076 134.687 111.076C133.739 111.076 133.187 110.452 133.187 109.408V105.952H131.939V109.348C131.939 111.16 132.983 112.24 134.687 112.24C136.379 112.24 137.423 111.16 137.423 109.348V105.952H136.175V109.408ZM139.925 104.608C140.381 104.608 140.765 104.224 140.765 103.768C140.765 103.312 140.381 102.928 139.925 102.928C139.469 102.928 139.085 103.312 139.085 103.768C139.085 104.224 139.469 104.608 139.925 104.608ZM139.301 112H140.537V105.952H139.301V112ZM145.313 108.976C145.313 110.74 146.501 112.24 148.409 112.24C149.273 112.24 149.921 111.928 150.425 111.388V112H151.685V103H150.425V106.564C149.921 106.024 149.273 105.712 148.409 105.712C146.501 105.712 145.313 107.212 145.313 108.976ZM146.621 108.976C146.621 107.788 147.401 106.876 148.565 106.876C149.321 106.876 149.981 107.224 150.425 107.884V110.068C150.017 110.704 149.345 111.076 148.565 111.076C147.401 111.076 146.621 110.164 146.621 108.976ZM159.14 111.016L158.24 110.296C157.868 110.8 157.256 111.124 156.524 111.124C155.36 111.124 154.556 110.44 154.472 109.12H158.936C158.984 108.94 159.02 108.664 159.02 108.388C159.02 106.852 157.94 105.712 156.272 105.712C154.352 105.712 153.2 107.164 153.2 108.976C153.2 110.74 154.436 112.24 156.524 112.24C157.652 112.24 158.576 111.772 159.14 111.016ZM156.248 106.744C157.22 106.744 157.76 107.44 157.784 108.196H154.532C154.724 107.26 155.348 106.744 156.248 106.744ZM160.641 112H161.877V107.92C162.165 107.404 162.621 106.876 163.389 106.876C164.181 106.876 164.661 107.404 164.661 108.292V112H165.909V108.244C165.909 108.124 165.909 108.016 165.897 107.908C166.221 107.332 166.689 106.876 167.409 106.876C168.189 106.876 168.681 107.404 168.681 108.292V112H169.929V108.244C169.929 106.576 168.957 105.712 167.697 105.712C166.653 105.712 166.053 106.204 165.585 106.804C165.201 106.084 164.505 105.712 163.677 105.712C162.873 105.712 162.309 106.048 161.877 106.516V105.952H160.641V112ZM173.512 112.18C174.256 112.18 175.012 111.844 175.444 111.316V112H176.68V108.004C176.68 106.672 175.78 105.712 174.148 105.712C173.068 105.712 172.204 106.168 171.664 106.888L172.588 107.596C172.936 107.104 173.452 106.804 174.112 106.804C174.892 106.804 175.444 107.26 175.444 108.004V108.316L173.488 108.64C172.204 108.856 171.496 109.516 171.496 110.428C171.496 111.496 172.312 112.18 173.512 112.18ZM172.744 110.38C172.744 109.924 173.056 109.6 173.812 109.468L175.444 109.192V110.236C175.084 110.812 174.496 111.172 173.74 111.172C173.116 111.172 172.744 110.848 172.744 110.38ZM178.617 112H179.853V107.92C180.165 107.392 180.657 106.876 181.485 106.876C182.349 106.876 182.877 107.452 182.877 108.412V112H184.125V108.364C184.125 106.612 183.105 105.712 181.773 105.712C180.909 105.712 180.309 106.06 179.853 106.54V105.952H178.617V112ZM185.567 108.976C185.567 110.74 186.755 112.24 188.663 112.24C189.527 112.24 190.175 111.928 190.679 111.388V112H191.939V103H190.679V106.564C190.175 106.024 189.527 105.712 188.663 105.712C186.755 105.712 185.567 107.212 185.567 108.976ZM186.875 108.976C186.875 107.788 187.655 106.876 188.819 106.876C189.575 106.876 190.235 107.224 190.679 107.884V110.068C190.271 110.704 189.599 111.076 188.819 111.076C187.655 111.076 186.875 110.164 186.875 108.976ZM199.394 111.016L198.494 110.296C198.122 110.8 197.51 111.124 196.778 111.124C195.614 111.124 194.81 110.44 194.726 109.12H199.19C199.238 108.94 199.274 108.664 199.274 108.388C199.274 106.852 198.194 105.712 196.526 105.712C194.606 105.712 193.454 107.164 193.454 108.976C193.454 110.74 194.69 112.24 196.778 112.24C197.906 112.24 198.83 111.772 199.394 111.016ZM196.502 106.744C197.474 106.744 198.014 107.44 198.038 108.196H194.786C194.978 107.26 195.602 106.744 196.502 106.744ZM200.895 112H202.131V107.92C202.443 107.392 202.935 106.876 203.763 106.876C204.627 106.876 205.155 107.452 205.155 108.412V112H206.403V108.364C206.403 106.612 205.383 105.712 204.051 105.712C203.187 105.712 202.587 106.06 202.131 106.54V105.952H200.895V112ZM208.684 109.9C208.684 111.376 209.428 112.12 210.844 112.12C211.312 112.12 211.648 112.06 211.936 111.94V110.848C211.72 110.932 211.444 110.98 211.036 110.98C210.364 110.98 209.932 110.716 209.932 109.9V107.068H211.936V105.952H209.932V104.44H208.684V105.952H207.544V107.068H208.684V109.9ZM216.645 112H217.881V103H216.645V112ZM225.363 111.016L224.463 110.296C224.091 110.8 223.479 111.124 222.747 111.124C221.583 111.124 220.779 110.44 220.695 109.12H225.159C225.207 108.94 225.243 108.664 225.243 108.388C225.243 106.852 224.163 105.712 222.495 105.712C220.575 105.712 219.423 107.164 219.423 108.976C219.423 110.74 220.659 112.24 222.747 112.24C223.875 112.24 224.799 111.772 225.363 111.016ZM222.471 106.744C223.443 106.744 223.983 107.44 224.007 108.196H220.755C220.947 107.26 221.571 106.744 222.471 106.744ZM1.008 131.952H2.244V128.376C2.76 128.928 3.408 129.24 4.284 129.24C6.18 129.24 7.368 127.74 7.368 125.976C7.368 124.212 6.18 122.712 4.284 122.712C3.408 122.712 2.76 123.024 2.244 123.576V122.952H1.008V131.952ZM4.128 123.876C5.292 123.876 6.072 124.788 6.072 125.976C6.072 127.164 5.292 128.076 4.128 128.076C3.348 128.076 2.688 127.716 2.244 127.044V124.908C2.676 124.248 3.336 123.876 4.128 123.876ZM8.90644 129H10.1424V120H8.90644V129ZM16.2683 126.408C16.2683 127.452 15.7043 128.076 14.7803 128.076C13.8323 128.076 13.2803 127.452 13.2803 126.408V122.952H12.0323V126.348C12.0323 128.16 13.0763 129.24 14.7803 129.24C16.4723 129.24 17.5163 128.16 17.5163 126.348V122.952H16.2683V126.408ZM18.7596 128.148C19.3236 128.832 20.0796 129.24 21.0996 129.24C22.2276 129.24 23.1876 128.532 23.1996 127.344C23.1996 125.268 20.2356 125.676 20.2356 124.464C20.2356 124.056 20.5236 123.72 21.0996 123.72C21.6036 123.72 22.0236 124.02 22.3476 124.452L23.1876 123.72C22.7556 123.144 21.9756 122.712 21.0876 122.712C19.8756 122.712 19.0356 123.504 19.0356 124.5C19.0356 126.636 21.9996 126.192 21.9996 127.416C21.9996 127.872 21.6756 128.232 21.0876 128.232C20.4876 128.232 20.0076 127.908 19.6116 127.404L18.7596 128.148ZM27.5046 125.976C27.5046 127.74 28.6926 129.24 30.6006 129.24C31.4646 129.24 32.1126 128.928 32.6166 128.388V129H33.8766V120H32.6166V123.564C32.1126 123.024 31.4646 122.712 30.6006 122.712C28.6926 122.712 27.5046 124.212 27.5046 125.976ZM28.8126 125.976C28.8126 124.788 29.5926 123.876 30.7566 123.876C31.5126 123.876 32.1726 124.224 32.6166 124.884V127.068C32.2086 127.704 31.5366 128.076 30.7566 128.076C29.5926 128.076 28.8126 127.164 28.8126 125.976ZM41.3313 128.016L40.4313 127.296C40.0593 127.8 39.4473 128.124 38.7153 128.124C37.5513 128.124 36.7473 127.44 36.6633 126.12H41.1273C41.1753 125.94 41.2113 125.664 41.2113 125.388C41.2113 123.852 40.1313 122.712 38.4633 122.712C36.5433 122.712 35.3913 124.164 35.3913 125.976C35.3913 127.74 36.6273 129.24 38.7153 129.24C39.8433 129.24 40.7673 128.772 41.3313 128.016ZM38.4393 123.744C39.4113 123.744 39.9513 124.44 39.9753 125.196H36.7233C36.9153 124.26 37.5393 123.744 38.4393 123.744ZM46.0666 131.952H47.3026V128.376C47.8186 128.928 48.4666 129.24 49.3426 129.24C51.2386 129.24 52.4266 127.74 52.4266 125.976C52.4266 124.212 51.2386 122.712 49.3426 122.712C48.4666 122.712 47.8186 123.024 47.3026 123.576V122.952H46.0666V131.952ZM49.1866 123.876C50.3506 123.876 51.1306 124.788 51.1306 125.976C51.1306 127.164 50.3506 128.076 49.1866 128.076C48.4066 128.076 47.7466 127.716 47.3026 127.044V124.908C47.7346 124.248 48.3946 123.876 49.1866 123.876ZM53.965 129H55.201V124.968C55.513 124.452 56.017 124.044 56.785 124.044C57.037 124.044 57.229 124.08 57.421 124.128V122.916C57.265 122.868 57.085 122.832 56.893 122.832C56.149 122.832 55.621 123.168 55.201 123.636V122.952H53.965V129ZM61.273 122.712C59.317 122.712 57.985 124.188 57.985 125.976C57.985 127.764 59.317 129.24 61.273 129.24C63.241 129.24 64.561 127.764 64.561 125.976C64.561 124.188 63.241 122.712 61.273 122.712ZM61.285 128.076C60.121 128.076 59.281 127.14 59.281 125.976C59.281 124.812 60.121 123.876 61.285 123.876C62.425 123.876 63.265 124.8 63.265 125.976C63.265 127.128 62.425 128.076 61.285 128.076ZM68.9963 128.076C67.8203 128.076 66.9803 127.176 66.9803 125.976C66.9803 124.788 67.8203 123.876 68.9843 123.876C69.6803 123.876 70.2323 124.212 70.5683 124.68L71.5403 123.936C70.9883 123.192 70.0883 122.712 68.9843 122.712C66.9563 122.712 65.6843 124.212 65.6843 125.976C65.6843 127.74 66.9563 129.24 68.9843 129.24C70.1003 129.24 70.9883 128.76 71.5403 128.016L70.5683 127.272C70.2323 127.74 69.6803 128.076 68.9963 128.076ZM76.9362 126.408C76.9362 127.452 76.3722 128.076 75.4482 128.076C74.5002 128.076 73.9482 127.452 73.9482 126.408V122.952H72.7002V126.348C72.7002 128.16 73.7442 129.24 75.4482 129.24C77.1402 129.24 78.1842 128.16 78.1842 126.348V122.952H76.9362V126.408ZM80.0627 129H81.2987V124.968C81.6107 124.452 82.1147 124.044 82.8827 124.044C83.1347 124.044 83.3267 124.08 83.5187 124.128V122.916C83.3627 122.868 83.1827 122.832 82.9907 122.832C82.2467 122.832 81.7187 123.168 81.2987 123.636V122.952H80.0627V129ZM86.2658 129.18C87.0098 129.18 87.7658 128.844 88.1978 128.316V129H89.4338V125.004C89.4338 123.672 88.5338 122.712 86.9018 122.712C85.8218 122.712 84.9578 123.168 84.4178 123.888L85.3418 124.596C85.6898 124.104 86.2058 123.804 86.8658 123.804C87.6458 123.804 88.1978 124.26 88.1978 125.004V125.316L86.2418 125.64C84.9578 125.856 84.2498 126.516 84.2498 127.428C84.2498 128.496 85.0658 129.18 86.2658 129.18ZM85.4978 127.38C85.4978 126.924 85.8098 126.6 86.5658 126.468L88.1978 126.192V127.236C87.8378 127.812 87.2498 128.172 86.4938 128.172C85.8698 128.172 85.4978 127.848 85.4978 127.38ZM91.7313 126.9C91.7313 128.376 92.4753 129.12 93.8913 129.12C94.3593 129.12 94.6953 129.06 94.9833 128.94V127.848C94.7673 127.932 94.4913 127.98 94.0833 127.98C93.4113 127.98 92.9793 127.716 92.9793 126.9V124.068H94.9833V122.952H92.9793V121.44H91.7313V122.952H90.5913V124.068H91.7313V126.9ZM97.0812 121.608C97.5372 121.608 97.9212 121.224 97.9212 120.768C97.9212 120.312 97.5372 119.928 97.0812 119.928C96.6252 119.928 96.2412 120.312 96.2412 120.768C96.2412 121.224 96.6252 121.608 97.0812 121.608ZM96.4572 129H97.6932V122.952H96.4572V129ZM102.523 122.712C100.567 122.712 99.235 124.188 99.235 125.976C99.235 127.764 100.567 129.24 102.523 129.24C104.491 129.24 105.811 127.764 105.811 125.976C105.811 124.188 104.491 122.712 102.523 122.712ZM102.535 128.076C101.371 128.076 100.531 127.14 100.531 125.976C100.531 124.812 101.371 123.876 102.535 123.876C103.675 123.876 104.515 124.8 104.515 125.976C104.515 127.128 103.675 128.076 102.535 128.076ZM107.356 129H108.592V124.92C108.904 124.392 109.396 123.876 110.224 123.876C111.088 123.876 111.616 124.452 111.616 125.412V129H112.864V125.364C112.864 123.612 111.844 122.712 110.512 122.712C109.648 122.712 109.048 123.06 108.592 123.54V122.952H107.356V129ZM114.185 128.148C114.749 128.832 115.505 129.24 116.525 129.24C117.653 129.24 118.613 128.532 118.625 127.344C118.625 125.268 115.661 125.676 115.661 124.464C115.661 124.056 115.949 123.72 116.525 123.72C117.029 123.72 117.449 124.02 117.773 124.452L118.613 123.72C118.181 123.144 117.401 122.712 116.513 122.712C115.301 122.712 114.461 123.504 114.461 124.5C114.461 126.636 117.425 126.192 117.425 127.416C117.425 127.872 117.101 128.232 116.513 128.232C115.913 128.232 115.433 127.908 115.037 127.404L114.185 128.148ZM123.41 131.952H124.646V128.376C125.162 128.928 125.81 129.24 126.686 129.24C128.582 129.24 129.77 127.74 129.77 125.976C129.77 124.212 128.582 122.712 126.686 122.712C125.81 122.712 125.162 123.024 124.646 123.576V122.952H123.41V131.952ZM126.53 123.876C127.694 123.876 128.474 124.788 128.474 125.976C128.474 127.164 127.694 128.076 126.53 128.076C125.75 128.076 125.09 127.716 124.646 127.044V124.908C125.078 124.248 125.738 123.876 126.53 123.876ZM134.175 122.712C132.219 122.712 130.887 124.188 130.887 125.976C130.887 127.764 132.219 129.24 134.175 129.24C136.143 129.24 137.463 127.764 137.463 125.976C137.463 124.188 136.143 122.712 134.175 122.712ZM134.187 128.076C133.023 128.076 132.183 127.14 132.183 125.976C132.183 124.812 133.023 123.876 134.187 123.876C135.327 123.876 136.167 124.8 136.167 125.976C136.167 127.128 135.327 128.076 134.187 128.076ZM143.112 126.408C143.112 127.452 142.548 128.076 141.624 128.076C140.676 128.076 140.124 127.452 140.124 126.408V122.952H138.876V126.348C138.876 128.16 139.92 129.24 141.624 129.24C143.316 129.24 144.36 128.16 144.36 126.348V122.952H143.112V126.408ZM146.238 129H147.474V124.968C147.786 124.452 148.29 124.044 149.058 124.044C149.31 124.044 149.502 124.08 149.694 124.128V122.916C149.538 122.868 149.358 122.832 149.166 122.832C148.422 122.832 147.894 123.168 147.474 123.636V122.952H146.238V129ZM154.289 129H155.525V120H154.289V129ZM159.215 129.18C159.959 129.18 160.715 128.844 161.147 128.316V129H162.383V125.004C162.383 123.672 161.483 122.712 159.851 122.712C158.771 122.712 157.907 123.168 157.367 123.888L158.291 124.596C158.639 124.104 159.155 123.804 159.815 123.804C160.595 123.804 161.147 124.26 161.147 125.004V125.316L159.191 125.64C157.907 125.856 157.199 126.516 157.199 127.428C157.199 128.496 158.015 129.18 159.215 129.18ZM158.447 127.38C158.447 126.924 158.759 126.6 159.515 126.468L161.147 126.192V127.236C160.787 127.812 160.199 128.172 159.443 128.172C158.819 128.172 158.447 127.848 158.447 127.38ZM167.555 131.952H168.791V128.376C169.307 128.928 169.955 129.24 170.831 129.24C172.727 129.24 173.915 127.74 173.915 125.976C173.915 124.212 172.727 122.712 170.831 122.712C169.955 122.712 169.307 123.024 168.791 123.576V122.952H167.555V131.952ZM170.675 123.876C171.839 123.876 172.619 124.788 172.619 125.976C172.619 127.164 171.839 128.076 170.675 128.076C169.895 128.076 169.235 127.716 168.791 127.044V124.908C169.223 124.248 169.883 123.876 170.675 123.876ZM175.453 129H176.689V124.968C177.001 124.452 177.505 124.044 178.273 124.044C178.525 124.044 178.717 124.08 178.909 124.128V122.916C178.753 122.868 178.573 122.832 178.381 122.832C177.637 122.832 177.109 123.168 176.689 123.636V122.952H175.453V129ZM183.217 121.992L184.633 120H183.265L182.017 121.992H183.217ZM185.413 128.016L184.513 127.296C184.141 127.8 183.529 128.124 182.797 128.124C181.633 128.124 180.829 127.44 180.745 126.12H185.209C185.257 125.94 185.293 125.664 185.293 125.388C185.293 123.852 184.213 122.712 182.545 122.712C180.625 122.712 179.473 124.164 179.473 125.976C179.473 127.74 180.709 129.24 182.797 129.24C183.925 129.24 184.849 128.772 185.413 128.016ZM182.521 123.744C183.493 123.744 184.033 124.44 184.057 125.196H180.805C180.997 124.26 181.621 123.744 182.521 123.744ZM186.244 128.148C186.808 128.832 187.564 129.24 188.584 129.24C189.712 129.24 190.672 128.532 190.684 127.344C190.684 125.268 187.72 125.676 187.72 124.464C187.72 124.056 188.008 123.72 188.584 123.72C189.088 123.72 189.508 124.02 189.832 124.452L190.672 123.72C190.24 123.144 189.46 122.712 188.572 122.712C187.36 122.712 186.52 123.504 186.52 124.5C186.52 126.636 189.484 126.192 189.484 127.416C189.484 127.872 189.16 128.232 188.572 128.232C187.972 128.232 187.492 127.908 187.096 127.404L186.244 128.148ZM192.859 121.608C193.315 121.608 193.699 121.224 193.699 120.768C193.699 120.312 193.315 119.928 192.859 119.928C192.403 119.928 192.019 120.312 192.019 120.768C192.019 121.224 192.403 121.608 192.859 121.608ZM192.235 129H193.471V122.952H192.235V129ZM195.012 125.976C195.012 127.74 196.2 129.24 198.108 129.24C198.972 129.24 199.62 128.928 200.124 128.388V129H201.384V120H200.124V123.564C199.62 123.024 198.972 122.712 198.108 122.712C196.2 122.712 195.012 124.212 195.012 125.976ZM196.32 125.976C196.32 124.788 197.1 123.876 198.264 123.876C199.02 123.876 199.68 124.224 200.124 124.884V127.068C199.716 127.704 199.044 128.076 198.264 128.076C197.1 128.076 196.32 127.164 196.32 125.976ZM208.839 128.016L207.939 127.296C207.567 127.8 206.955 128.124 206.223 128.124C205.059 128.124 204.255 127.44 204.171 126.12H208.635C208.683 125.94 208.719 125.664 208.719 125.388C208.719 123.852 207.639 122.712 205.971 122.712C204.051 122.712 202.899 124.164 202.899 125.976C202.899 127.74 204.135 129.24 206.223 129.24C207.351 129.24 208.275 128.772 208.839 128.016ZM205.947 123.744C206.919 123.744 207.459 124.44 207.483 125.196H204.231C204.423 124.26 205.047 123.744 205.947 123.744ZM210.34 129H211.576V124.92C211.888 124.392 212.38 123.876 213.208 123.876C214.072 123.876 214.6 124.452 214.6 125.412V129H215.848V125.364C215.848 123.612 214.828 122.712 213.496 122.712C212.632 122.712 212.032 123.06 211.576 123.54V122.952H210.34V129ZM218.13 126.9C218.13 128.376 218.874 129.12 220.29 129.12C220.758 129.12 221.094 129.06 221.382 128.94V127.848C221.166 127.932 220.89 127.98 220.482 127.98C219.81 127.98 219.378 127.716 219.378 126.9V124.068H221.382V122.952H219.378V121.44H218.13V122.952H216.99V124.068H218.13V126.9ZM223.48 121.608C223.936 121.608 224.32 121.224 224.32 120.768C224.32 120.312 223.936 119.928 223.48 119.928C223.024 119.928 222.64 120.312 222.64 120.768C222.64 121.224 223.024 121.608 223.48 121.608ZM222.856 129H224.092V122.952H222.856V129ZM231.573 128.016L230.673 127.296C230.301 127.8 229.689 128.124 228.957 128.124C227.793 128.124 226.989 127.44 226.905 126.12H231.369C231.417 125.94 231.453 125.664 231.453 125.388C231.453 123.852 230.373 122.712 228.705 122.712C226.785 122.712 225.633 124.164 225.633 125.976C225.633 127.74 226.869 129.24 228.957 129.24C230.085 129.24 231.009 128.772 231.573 128.016ZM228.681 123.744C229.653 123.744 230.193 124.44 230.217 125.196H226.965C227.157 124.26 227.781 123.744 228.681 123.744ZM233.074 129H234.31V120H233.074V129ZM236.332 129H237.568V120H236.332V129ZM245.05 128.016L244.15 127.296C243.778 127.8 243.166 128.124 242.434 128.124C241.27 128.124 240.466 127.44 240.382 126.12H244.846C244.894 125.94 244.93 125.664 244.93 125.388C244.93 123.852 243.85 122.712 242.182 122.712C240.262 122.712 239.11 124.164 239.11 125.976C239.11 127.74 240.346 129.24 242.434 129.24C243.562 129.24 244.486 128.772 245.05 128.016ZM242.158 123.744C243.13 123.744 243.67 124.44 243.694 125.196H240.442C240.634 124.26 241.258 123.744 242.158 123.744ZM1.788 142.688C1.788 140.648 2.532 138.992 3.792 137.744L2.892 137C1.524 138.296 0.552 140.252 0.552 142.688C0.552 145.1 1.44 147.056 2.892 148.4L3.792 147.656C2.484 146.36 1.788 144.752 1.788 142.688ZM10.6901 143.504V142.436H8.20613V139.952H7.13813V142.436H4.65413V143.504H7.13813V146H8.20613V143.504H10.6901ZM14.9638 143.66H19.0198V146H20.3278V143.66H21.2518V142.472H20.3278V137.6H18.7678L14.9638 142.472V143.66ZM16.3438 142.472L19.0198 139.052V142.472H16.3438ZM23.0519 147.92L24.3599 144.56H22.9439L21.8999 147.92H23.0519ZM25.7151 142.124H27.9951C29.1231 142.124 29.7591 142.7 29.7591 143.588C29.7591 144.512 29.0631 145.064 28.1151 145.064C27.2391 145.064 26.6031 144.668 26.0991 143.744L24.9471 144.452C25.6191 145.616 26.6271 146.24 28.1151 146.24C29.8191 146.24 31.1031 145.196 31.1031 143.54C31.1031 141.992 30.1551 140.948 28.0551 140.948H27.0951L27.2151 138.788H30.7551V137.6H25.9551L25.7151 142.124ZM35.9768 148.952H37.2128V145.376C37.7288 145.928 38.3768 146.24 39.2528 146.24C41.1488 146.24 42.3368 144.74 42.3368 142.976C42.3368 141.212 41.1488 139.712 39.2528 139.712C38.3768 139.712 37.7288 140.024 37.2128 140.576V139.952H35.9768V148.952ZM39.0968 140.876C40.2608 140.876 41.0408 141.788 41.0408 142.976C41.0408 144.164 40.2608 145.076 39.0968 145.076C38.3168 145.076 37.6568 144.716 37.2128 144.044V141.908C37.6448 141.248 38.3048 140.876 39.0968 140.876ZM45.4143 146.18C46.1583 146.18 46.9143 145.844 47.3463 145.316V146H48.5823V142.004C48.5823 140.672 47.6823 139.712 46.0503 139.712C44.9703 139.712 44.1063 140.168 43.5663 140.888L44.4903 141.596C44.8383 141.104 45.3543 140.804 46.0143 140.804C46.7943 140.804 47.3463 141.26 47.3463 142.004V142.316L45.3903 142.64C44.1063 142.856 43.3983 143.516 43.3983 144.428C43.3983 145.496 44.2143 146.18 45.4143 146.18ZM44.6463 144.38C44.6463 143.924 44.9583 143.6 45.7143 143.468L47.3463 143.192V144.236C46.9863 144.812 46.3983 145.172 45.6423 145.172C45.0183 145.172 44.6463 144.848 44.6463 144.38ZM50.5197 146H51.7557V141.968C52.0677 141.452 52.5717 141.044 53.3397 141.044C53.5917 141.044 53.7837 141.08 53.9757 141.128V139.916C53.8197 139.868 53.6397 139.832 53.4477 139.832C52.7037 139.832 52.1757 140.168 51.7557 140.636V139.952H50.5197V146ZM58.5705 146H59.8065V141.968C60.1185 141.452 60.6225 141.044 61.3905 141.044C61.6425 141.044 61.8345 141.08 62.0265 141.128V139.916C61.8705 139.868 61.6905 139.832 61.4985 139.832C60.7545 139.832 60.2265 140.168 59.8065 140.636V139.952H58.5705V146ZM64.7737 146.18C65.5177 146.18 66.2737 145.844 66.7057 145.316V146H67.9417V142.004C67.9417 140.672 67.0417 139.712 65.4097 139.712C64.3297 139.712 63.4657 140.168 62.9257 140.888L63.8497 141.596C64.1977 141.104 64.7137 140.804 65.3737 140.804C66.1537 140.804 66.7057 141.26 66.7057 142.004V142.316L64.7497 142.64C63.4657 142.856 62.7577 143.516 62.7577 144.428C62.7577 145.496 63.5737 146.18 64.7737 146.18ZM64.0057 144.38C64.0057 143.924 64.3177 143.6 65.0737 143.468L66.7057 143.192V144.236C66.3457 144.812 65.7577 145.172 65.0017 145.172C64.3777 145.172 64.0057 144.848 64.0057 144.38ZM69.8791 148.952H71.1151V145.376C71.6311 145.928 72.2791 146.24 73.1551 146.24C75.0511 146.24 76.2391 144.74 76.2391 142.976C76.2391 141.212 75.0511 139.712 73.1551 139.712C72.2791 139.712 71.6311 140.024 71.1151 140.576V139.952H69.8791V148.952ZM72.9991 140.876C74.1631 140.876 74.9431 141.788 74.9431 142.976C74.9431 144.164 74.1631 145.076 72.9991 145.076C72.2191 145.076 71.5591 144.716 71.1151 144.044V141.908C71.5471 141.248 72.2071 140.876 72.9991 140.876ZM77.7775 148.952H79.0135V145.376C79.5295 145.928 80.1775 146.24 81.0535 146.24C82.9495 146.24 84.1375 144.74 84.1375 142.976C84.1375 141.212 82.9495 139.712 81.0535 139.712C80.1775 139.712 79.5295 140.024 79.0135 140.576V139.952H77.7775V148.952ZM80.8975 140.876C82.0615 140.876 82.8415 141.788 82.8415 142.976C82.8415 144.164 82.0615 145.076 80.8975 145.076C80.1175 145.076 79.4575 144.716 79.0135 144.044V141.908C79.4455 141.248 80.1055 140.876 80.8975 140.876ZM88.5426 139.712C86.5866 139.712 85.2546 141.188 85.2546 142.976C85.2546 144.764 86.5866 146.24 88.5426 146.24C90.5106 146.24 91.8306 144.764 91.8306 142.976C91.8306 141.188 90.5106 139.712 88.5426 139.712ZM88.5546 145.076C87.3906 145.076 86.5506 144.14 86.5506 142.976C86.5506 141.812 87.3906 140.876 88.5546 140.876C89.6946 140.876 90.5346 141.8 90.5346 142.976C90.5346 144.128 89.6946 145.076 88.5546 145.076ZM93.3752 146H94.6112V141.968C94.9232 141.452 95.4272 141.044 96.1952 141.044C96.4472 141.044 96.6392 141.08 96.8312 141.128V139.916C96.6752 139.868 96.4952 139.832 96.3032 139.832C95.5592 139.832 95.0312 140.168 94.6112 140.636V139.952H93.3752V146ZM98.8797 143.9C98.8797 145.376 99.6237 146.12 101.04 146.12C101.508 146.12 101.844 146.06 102.132 145.94V144.848C101.916 144.932 101.64 144.98 101.232 144.98C100.56 144.98 100.128 144.716 100.128 143.9V141.068H102.132V139.952H100.128V138.44H98.8797V139.952H97.7397V141.068H98.8797V143.9ZM108.556 138.992H109.756L108.508 137H107.14L108.556 138.992ZM108.508 146.18C109.252 146.18 110.008 145.844 110.44 145.316V146H111.676V142.004C111.676 140.672 110.776 139.712 109.144 139.712C108.064 139.712 107.2 140.168 106.66 140.888L107.584 141.596C107.932 141.104 108.448 140.804 109.108 140.804C109.888 140.804 110.44 141.26 110.44 142.004V142.316L108.484 142.64C107.2 142.856 106.492 143.516 106.492 144.428C106.492 145.496 107.308 146.18 108.508 146.18ZM107.74 144.38C107.74 143.924 108.052 143.6 108.808 143.468L110.44 143.192V144.236C110.08 144.812 109.492 145.172 108.736 145.172C108.112 145.172 107.74 144.848 107.74 144.38ZM116.848 146H118.084V137H116.848V146ZM121.774 146.18C122.518 146.18 123.274 145.844 123.706 145.316V146H124.942V142.004C124.942 140.672 124.042 139.712 122.41 139.712C121.33 139.712 120.466 140.168 119.926 140.888L120.85 141.596C121.198 141.104 121.714 140.804 122.374 140.804C123.154 140.804 123.706 141.26 123.706 142.004V142.316L121.75 142.64C120.466 142.856 119.758 143.516 119.758 144.428C119.758 145.496 120.574 146.18 121.774 146.18ZM121.006 144.38C121.006 143.924 121.318 143.6 122.074 143.468L123.706 143.192V144.236C123.346 144.812 122.758 145.172 122.002 145.172C121.378 145.172 121.006 144.848 121.006 144.38ZM130.113 146H131.349V141.92C131.637 141.404 132.093 140.876 132.861 140.876C133.653 140.876 134.133 141.404 134.133 142.292V146H135.381V142.244C135.381 142.124 135.381 142.016 135.369 141.908C135.693 141.332 136.161 140.876 136.881 140.876C137.661 140.876 138.153 141.404 138.153 142.292V146H139.401V142.244C139.401 140.576 138.429 139.712 137.169 139.712C136.125 139.712 135.525 140.204 135.057 140.804C134.673 140.084 133.977 139.712 133.149 139.712C132.345 139.712 131.781 140.048 131.349 140.516V139.952H130.113V146ZM144.125 139.712C142.169 139.712 140.837 141.188 140.837 142.976C140.837 144.764 142.169 146.24 144.125 146.24C146.093 146.24 147.413 144.764 147.413 142.976C147.413 141.188 146.093 139.712 144.125 139.712ZM144.137 145.076C142.973 145.076 142.133 144.14 142.133 142.976C142.133 141.812 142.973 140.876 144.137 140.876C145.277 140.876 146.117 141.8 146.117 142.976C146.117 144.128 145.277 145.076 144.137 145.076ZM151.205 147.428L154.325 139.952H153.005L151.157 144.404L149.285 139.952H147.917L150.497 145.988L150.089 146.96C149.801 147.644 149.369 147.86 148.757 147.86C148.481 147.86 148.205 147.8 147.989 147.704V148.808C148.265 148.928 148.577 149 149.009 149C150.089 149 150.785 148.436 151.205 147.428ZM160.757 145.016L159.857 144.296C159.485 144.8 158.873 145.124 158.141 145.124C156.977 145.124 156.173 144.44 156.089 143.12H160.553C160.601 142.94 160.637 142.664 160.637 142.388C160.637 140.852 159.557 139.712 157.889 139.712C155.969 139.712 154.817 141.164 154.817 142.976C154.817 144.74 156.053 146.24 158.141 146.24C159.269 146.24 160.193 145.772 160.757 145.016ZM157.865 140.744C158.837 140.744 159.377 141.44 159.401 142.196H156.149C156.341 141.26 156.965 140.744 157.865 140.744ZM162.258 146H163.494V141.92C163.806 141.392 164.298 140.876 165.126 140.876C165.99 140.876 166.518 141.452 166.518 142.412V146H167.766V142.364C167.766 140.612 166.746 139.712 165.414 139.712C164.55 139.712 163.95 140.06 163.494 140.54V139.952H162.258V146ZM169.688 146H170.924V141.92C171.236 141.392 171.728 140.876 172.556 140.876C173.42 140.876 173.948 141.452 173.948 142.412V146H175.196V142.364C175.196 140.612 174.176 139.712 172.844 139.712C171.98 139.712 171.38 140.06 170.924 140.54V139.952H169.688V146ZM182.577 145.016L181.677 144.296C181.305 144.8 180.693 145.124 179.961 145.124C178.797 145.124 177.993 144.44 177.909 143.12H182.373C182.421 142.94 182.457 142.664 182.457 142.388C182.457 140.852 181.377 139.712 179.709 139.712C177.789 139.712 176.637 141.164 176.637 142.976C176.637 144.74 177.873 146.24 179.961 146.24C181.089 146.24 182.013 145.772 182.577 145.016ZM179.685 140.744C180.657 140.744 181.197 141.44 181.221 142.196H177.969C178.161 141.26 178.785 140.744 179.685 140.744ZM184.846 142.712C184.846 144.764 184.126 146.396 182.842 147.656L183.742 148.4C185.146 147.092 186.082 145.136 186.082 142.712C186.082 140.288 185.17 138.32 183.742 137L182.842 137.744C184.138 139.016 184.846 140.66 184.846 142.712ZM188.277 146.144C188.769 146.144 189.165 145.748 189.165 145.256C189.165 144.776 188.769 144.368 188.277 144.368C187.773 144.368 187.377 144.776 187.377 145.256C187.377 145.748 187.773 146.144 188.277 146.144Z" fill="#AC4B4B"/>
</svg>
