<svg width="218" height="45" viewBox="0 0 218 45" fill="none" xmlns="http://www.w3.org/2000/svg">
<path d="M38.7014 10.26C38.7414 10.52 38.7614 10.73 38.7614 10.89C38.7814 11.05 38.7914 11.21 38.7914 11.37C38.7914 11.87 38.7214 12.46 38.5814 13.14C38.4614 13.82 38.2414 14.47 37.9214 15.09C37.6214 15.69 37.2114 16.21 36.6914 16.65C36.1914 17.07 35.5514 17.28 34.7714 17.28C34.0514 17.28 33.3714 17.08 32.7314 16.68C32.0914 16.26 31.5214 15.73 31.0214 15.09C30.5214 14.43 30.1214 13.7 29.8214 12.9C29.5414 12.08 29.4014 11.27 29.4014 10.47C29.4014 9.31 29.4714 8.32 29.6114 7.5C29.7714 6.66 29.9914 5.93 30.2714 5.31C30.2714 5.25 30.2314 5.19 30.1514 5.13C30.0914 5.07 30.0614 4.99 30.0614 4.89C30.0614 4.79 30.1514 4.66 30.3314 4.5C30.5314 4.34 30.7614 4.19 31.0214 4.05C31.3014 3.89 31.5714 3.76 31.8314 3.66C32.1114 3.54 32.3214 3.48 32.4614 3.48C32.5414 3.48 32.6714 3.52 32.8514 3.6C33.0514 3.68 33.3014 3.72 33.6014 3.72C33.7014 3.72 33.8014 3.71 33.9014 3.69C34.0014 3.67 34.1114 3.66 34.2314 3.66C34.6514 3.66 35.1014 3.86 35.5814 4.26C36.0814 4.64 36.5414 5.14 36.9614 5.76C37.4014 6.38 37.7714 7.09 38.0714 7.89C38.3914 8.67 38.6014 9.46 38.7014 10.26ZM37.5014 11.43C37.5014 11.05 37.4214 10.51 37.2614 9.81C37.1014 9.09 36.8614 8.39 36.5414 7.71C36.2214 7.01 35.8314 6.4 35.3714 5.88C34.9314 5.36 34.4314 5.1 33.8714 5.1C33.8314 5.1 33.7514 5.1 33.6314 5.1C33.5314 5.08 33.4114 5.07 33.2714 5.07C33.1314 5.05 33.0014 5.04 32.8814 5.04C32.7614 5.02 32.6914 5.01 32.6714 5.01C32.3514 5.01 32.0714 5.16 31.8314 5.46C31.6114 5.76 31.4214 6.15 31.2614 6.63C31.1214 7.11 31.0114 7.66 30.9314 8.28C30.8514 8.9 30.8114 9.52 30.8114 10.14C30.8114 10.36 30.8714 10.79 30.9914 11.43C31.1114 12.05 31.3214 12.7 31.6214 13.38C31.9414 14.04 32.3614 14.63 32.8814 15.15C33.4014 15.67 34.0614 15.93 34.8614 15.93C35.4014 15.93 35.8414 15.77 36.1814 15.45C36.5214 15.11 36.7814 14.7 36.9614 14.22C37.1614 13.74 37.3014 13.25 37.3814 12.75C37.4614 12.23 37.5014 11.79 37.5014 11.43ZM53.651 13.95C53.651 14.15 53.511 14.32 53.231 14.46C52.971 14.58 52.621 14.64 52.181 14.64C51.801 14.64 51.201 14.6 50.381 14.52C49.581 14.44 48.731 14.31 47.831 14.13C46.931 13.95 46.071 13.73 45.251 13.47C44.451 13.19 43.861 12.86 43.481 12.48C43.521 12.64 43.591 12.86 43.691 13.14C43.791 13.4 43.901 13.69 44.021 14.01C44.241 14.57 44.441 15.14 44.621 15.72C44.821 16.28 44.921 16.73 44.921 17.07C44.921 17.71 44.871 18.19 44.771 18.51C44.691 18.85 44.501 19.02 44.201 19.02C43.961 19.02 43.791 18.92 43.691 18.72C43.591 18.52 43.541 18.28 43.541 18C43.541 17.98 43.541 17.93 43.541 17.85C43.541 17.77 43.551 17.54 43.571 17.16C43.571 17 43.561 16.84 43.541 16.68C43.521 16.52 43.491 16.38 43.451 16.26C43.131 15.48 42.831 14.7 42.551 13.92C42.291 13.12 42.041 12.24 41.801 11.28C41.741 11.08 41.671 10.83 41.591 10.53C41.531 10.21 41.471 9.8 41.411 9.3C41.351 8.78 41.301 8.15 41.261 7.41C41.221 6.65 41.201 5.73 41.201 4.65C41.201 3.81 41.271 3.17 41.411 2.73C41.551 2.27 41.721 2.04 41.921 2.04C42.101 2.04 42.251 2.18 42.371 2.46C42.491 2.72 42.551 2.97 42.551 3.21C42.551 3.87 42.541 4.38 42.521 4.74C42.521 5.1 42.521 5.36 42.521 5.52C42.521 6.14 42.551 6.76 42.611 7.38C42.671 7.98 42.741 8.54 42.821 9.06C42.901 9.66 43.001 10.23 43.121 10.77C43.361 10.27 43.621 9.74 43.901 9.18C44.201 8.6 44.511 8.03 44.831 7.47C45.151 6.89 45.471 6.32 45.791 5.76C46.111 5.2 46.421 4.67 46.721 4.17C46.921 3.83 47.141 3.54 47.381 3.3C47.641 3.06 47.881 2.94 48.101 2.94C48.261 2.94 48.441 3.01 48.641 3.15C48.841 3.27 48.941 3.44 48.941 3.66C48.941 3.72 48.931 3.79 48.911 3.87C48.891 3.93 48.871 3.98 48.851 4.02C48.751 4.18 48.631 4.34 48.491 4.5C48.371 4.66 48.261 4.82 48.161 4.98C47.841 5.44 47.481 5.96 47.081 6.54C46.681 7.12 46.301 7.7 45.941 8.28C45.601 8.84 45.311 9.37 45.071 9.87C44.831 10.37 44.711 10.77 44.711 11.07C44.711 11.39 44.901 11.67 45.281 11.91C45.661 12.15 46.131 12.36 46.691 12.54C47.251 12.7 47.861 12.84 48.521 12.96C49.201 13.06 49.831 13.15 50.411 13.23C50.991 13.29 51.481 13.34 51.881 13.38C52.301 13.4 52.531 13.41 52.571 13.41C53.031 13.41 53.321 13.45 53.441 13.53C53.581 13.59 53.651 13.73 53.651 13.95ZM57.9942 17.04C57.9942 17.26 57.9042 17.58 57.7242 18C57.5642 18.42 57.3542 18.84 57.0942 19.26C56.8342 19.68 56.5342 20.04 56.1942 20.34C55.8742 20.66 55.5642 20.82 55.2642 20.82C55.1042 20.82 54.9642 20.75 54.8442 20.61C54.7442 20.49 54.6942 20.4 54.6942 20.34C54.6942 20.32 54.7842 20.19 54.9642 19.95C55.1642 19.73 55.3842 19.46 55.6242 19.14C55.8642 18.82 56.0742 18.47 56.2542 18.09C56.4542 17.71 56.5542 17.34 56.5542 16.98C56.5542 16.6 56.5042 16.32 56.4042 16.14C56.3242 15.94 56.2342 15.78 56.1342 15.66C56.0342 15.52 55.9342 15.4 55.8342 15.3C55.7542 15.18 55.7142 15.01 55.7142 14.79C55.7142 14.49 55.8742 14.34 56.1942 14.34C56.5142 14.34 56.7842 14.45 57.0042 14.67C57.2242 14.87 57.4042 15.12 57.5442 15.42C57.7042 15.7 57.8142 15.99 57.8742 16.29C57.9542 16.59 57.9942 16.84 57.9942 17.04ZM86.3081 15.18C86.3081 15.34 86.2581 15.48 86.1581 15.6C86.0581 15.72 85.9381 15.82 85.7981 15.9C85.6581 15.96 85.5081 16.01 85.3481 16.05C85.2081 16.09 85.0881 16.11 84.9881 16.11C84.5681 16.11 84.2081 15.89 83.9081 15.45C83.6081 14.99 83.3581 14.49 83.1581 13.95C82.9581 13.39 82.8081 12.87 82.7081 12.39C82.6281 11.91 82.5881 11.65 82.5881 11.61C82.4681 11.83 82.3381 12.2 82.1981 12.72C82.0781 13.24 81.9281 13.77 81.7481 14.31C81.5681 14.83 81.3381 15.3 81.0581 15.72C80.7981 16.12 80.4581 16.32 80.0381 16.32C79.8381 16.32 79.6481 16.2 79.4681 15.96C79.2881 15.72 79.1181 15.41 78.9581 15.03C78.7981 14.65 78.6381 14.22 78.4781 13.74C78.3381 13.26 78.1881 12.79 78.0281 12.33C77.8881 11.87 77.7481 11.44 77.6081 11.04C77.4681 10.62 77.3281 10.29 77.1881 10.05C77.0681 10.35 76.9581 10.76 76.8581 11.28C76.7781 11.8 76.7081 12.35 76.6481 12.93C76.5881 13.49 76.5381 14.05 76.4981 14.61C76.4581 15.17 76.4381 15.66 76.4381 16.08C76.4381 16.36 76.3581 16.56 76.1981 16.68C76.0581 16.8 75.9081 16.86 75.7481 16.86C75.5281 16.86 75.3081 16.72 75.0881 16.44C74.8681 16.14 74.6481 15.76 74.4281 15.3C74.2081 14.84 73.9981 14.32 73.7981 13.74C73.6181 13.16 73.4481 12.58 73.2881 12C73.1481 11.42 73.0381 10.87 72.9581 10.35C72.8781 9.81 72.8381 9.36 72.8381 9C72.8381 8.74 72.8481 8.5 72.8681 8.28C72.8881 8.1 72.8981 7.93 72.8981 7.77C72.9181 7.61 72.9281 7.52 72.9281 7.5C72.9281 7.44 72.9081 7.4 72.8681 7.38C72.8481 7.36 72.8381 7.31 72.8381 7.23C72.8381 7.17 72.9081 7.08 73.0481 6.96C73.2081 6.82 73.3681 6.75 73.5281 6.75C73.8081 6.75 73.9881 6.81 74.0681 6.93C74.1681 7.05 74.2181 7.19 74.2181 7.35C74.2181 7.41 74.2081 7.5 74.1881 7.62C74.1881 7.74 74.1881 8.01 74.1881 8.43C74.1881 8.71 74.2381 9.13 74.3381 9.69C74.4381 10.25 74.5581 10.82 74.6981 11.4C74.8381 11.98 74.9781 12.52 75.1181 13.02C75.2781 13.5 75.4081 13.8 75.5081 13.92C75.5481 13.84 75.5681 13.75 75.5681 13.65C75.5881 13.53 75.6081 13.44 75.6281 13.38L75.9581 10.92C76.0381 10.3 76.1981 9.65 76.4381 8.97C76.6981 8.27 76.9681 7.73 77.2481 7.35C77.3481 7.19 77.4581 7.11 77.5781 7.11C77.6981 7.11 77.8081 7.2 77.9081 7.38C78.2481 7.94 78.4981 8.5 78.6581 9.06C78.8381 9.6 78.9881 10.14 79.1081 10.68C79.2481 11.2 79.3981 11.73 79.5581 12.27C79.7381 12.79 80.0081 13.32 80.3681 13.86C80.5281 13.6 80.7281 13.18 80.9681 12.6C81.2081 12 81.4481 11.4 81.6881 10.8C81.9481 10.2 82.1881 9.68 82.4081 9.24C82.6281 8.78 82.7981 8.55 82.9181 8.55C82.9781 8.55 83.0781 8.56 83.2181 8.58C83.3581 8.6 83.4581 8.61 83.5181 8.61C83.6981 8.61 83.8481 8.82 83.9681 9.24C84.0881 9.64 84.1881 10.12 84.2681 10.68C84.3681 11.22 84.4581 11.77 84.5381 12.33C84.6381 12.87 84.7481 13.28 84.8681 13.56C84.9481 13.76 85.0681 13.95 85.2281 14.13C85.3881 14.31 85.5481 14.48 85.7081 14.64C85.9081 14.82 86.1081 15 86.3081 15.18ZM102.971 11.76C102.971 12.12 102.801 12.57 102.461 13.11C102.141 13.63 101.701 14.14 101.141 14.64C100.581 15.14 99.9305 15.57 99.1905 15.93C98.4505 16.27 97.6805 16.44 96.8805 16.44C96.5205 16.44 96.1405 16.38 95.7405 16.26C95.3405 16.14 94.9505 15.97 94.5705 15.75C94.1905 15.51 93.8505 15.23 93.5505 14.91C93.2505 14.57 93.0305 14.19 92.8905 13.77C92.7705 13.89 92.6205 14.09 92.4405 14.37C92.2805 14.65 92.1005 14.94 91.9005 15.24C91.7005 15.52 91.4805 15.77 91.2405 15.99C91.0005 16.19 90.7505 16.29 90.4905 16.29C90.2305 16.29 90.0105 16.16 89.8305 15.9C89.6705 15.62 89.5405 15.32 89.4405 15C89.3405 14.66 89.2705 14.34 89.2305 14.04C89.1905 13.74 89.1705 13.57 89.1705 13.53C89.1705 13.29 89.2405 12.84 89.3805 12.18C89.5205 11.5 89.7305 10.8 90.0105 10.08C90.2905 9.36 90.6405 8.72 91.0605 8.16C91.5005 7.6 92.0105 7.32 92.5905 7.32C92.8105 7.32 92.9505 7.42 93.0105 7.62C93.0905 7.8 93.1305 7.98 93.1305 8.16V9.06C93.2305 9.14 93.3305 9.2 93.4305 9.24C93.5505 9.26 93.6505 9.3 93.7305 9.36C93.8305 9.4 93.9005 9.47 93.9405 9.57C94.0005 9.67 94.0305 9.83 94.0305 10.05C94.0305 10.19 94.0205 10.32 94.0005 10.44C93.9805 10.54 93.9705 10.64 93.9705 10.74C93.9705 11.26 94.0105 11.77 94.0905 12.27C94.1705 12.77 94.3305 13.22 94.5705 13.62C94.8105 14 95.1405 14.32 95.5605 14.58C95.9805 14.82 96.5405 14.94 97.2405 14.94C98.1205 14.94 98.8605 14.76 99.4605 14.4C100.081 14.02 100.591 13.61 100.991 13.17C101.411 12.71 101.741 12.3 101.981 11.94C102.221 11.56 102.421 11.37 102.581 11.37C102.841 11.37 102.971 11.5 102.971 11.76ZM92.4405 10.44C92.4405 10.36 92.4205 10.29 92.3805 10.23C92.3405 10.15 92.3205 10.08 92.3205 10.02C92.3205 9.94 92.3405 9.87 92.3805 9.81C92.4205 9.75 92.4405 9.67 92.4405 9.57C92.4405 9.51 92.4205 9.47 92.3805 9.45C92.3405 9.41 92.3205 9.37 92.3205 9.33C92.1405 9.37 91.9505 9.54 91.7505 9.84C91.5705 10.14 91.3905 10.49 91.2105 10.89C91.0505 11.29 90.9205 11.7 90.8205 12.12C90.7205 12.52 90.6705 12.85 90.6705 13.11C90.6705 13.25 90.7105 13.48 90.7905 13.8C90.8705 14.12 90.9605 14.33 91.0605 14.43C91.4005 13.73 91.7105 13.05 91.9905 12.39C92.2905 11.73 92.4405 11.08 92.4405 10.44ZM105.11 4.2C105.11 4.24 105.04 4.32 104.9 4.44C104.76 4.56 104.59 4.69 104.39 4.83C104.21 4.95 104.02 5.06 103.82 5.16C103.62 5.26 103.46 5.31 103.34 5.31C103.26 5.31 103.15 5.31 103.01 5.31C102.89 5.29 102.76 5.25 102.62 5.19C102.5 5.13 102.39 5.05 102.29 4.95C102.19 4.83 102.14 4.68 102.14 4.5C102.14 4.22 102.24 3.96 102.44 3.72C102.64 3.46 102.9 3.33 103.22 3.33C103.28 3.33 103.41 3.36 103.61 3.42C103.83 3.46 104.05 3.52 104.27 3.6C104.49 3.68 104.68 3.77 104.84 3.87C105.02 3.97 105.11 4.08 105.11 4.2ZM106.1 15.42C106.1 15.56 105.99 15.68 105.77 15.78C105.57 15.88 105.42 15.93 105.32 15.93C105.12 15.93 104.94 15.8 104.78 15.54C104.62 15.28 104.48 14.98 104.36 14.64C104.24 14.3 104.14 13.98 104.06 13.68C103.98 13.36 103.92 13.14 103.88 13.02C103.82 12.82 103.74 12.58 103.64 12.3C103.54 12.02 103.44 11.75 103.34 11.49C103.26 11.23 103.19 11 103.13 10.8C103.07 10.6 103.04 10.49 103.04 10.47C103.04 10.19 103.09 9.93 103.19 9.69C103.31 9.45 103.45 9.33 103.61 9.33C103.79 9.33 103.98 9.47 104.18 9.75C104.38 10.03 104.57 10.39 104.75 10.83C104.95 11.25 105.13 11.72 105.29 12.24C105.45 12.74 105.59 13.22 105.71 13.68C105.83 14.12 105.92 14.51 105.98 14.85C106.06 15.17 106.1 15.36 106.1 15.42ZM116.998 14.31C116.998 14.43 116.958 14.55 116.878 14.67C116.798 14.79 116.698 14.9 116.578 15C116.478 15.1 116.358 15.19 116.218 15.27C116.098 15.33 115.988 15.36 115.888 15.36C115.548 15.36 115.108 15.29 114.568 15.15C114.048 14.99 113.628 14.75 113.308 14.43C112.968 14.09 112.668 13.69 112.408 13.23C112.148 12.75 111.858 12.05 111.538 11.13C111.318 12.01 111.058 12.88 110.758 13.74C110.478 14.6 110.018 15.39 109.378 16.11C109.338 16.15 109.278 16.17 109.198 16.17C109.058 16.17 108.908 16.1 108.748 15.96C108.588 15.82 108.508 15.68 108.508 15.54C108.508 15.4 108.488 15.08 108.448 14.58C108.428 14.06 108.398 13.49 108.358 12.87C108.318 12.23 108.278 11.59 108.238 10.95C108.218 10.29 108.208 9.75 108.208 9.33C108.208 9.13 108.218 8.87 108.238 8.55C108.258 8.21 108.318 7.92 108.418 7.68C108.438 7.64 108.508 7.56 108.628 7.44C108.768 7.32 108.918 7.26 109.078 7.26C109.218 7.26 109.298 7.35 109.318 7.53C109.338 7.71 109.348 7.91 109.348 8.13V12.87C109.348 12.97 109.358 13.11 109.378 13.29C109.418 13.47 109.468 13.6 109.528 13.68C109.748 13.2 109.948 12.64 110.128 12C110.328 11.34 110.518 10.72 110.698 10.14C110.878 9.54 111.058 9.04 111.238 8.64C111.418 8.22 111.598 8.01 111.778 8.01C111.978 8.01 112.138 8.05 112.258 8.13C112.378 8.21 112.478 8.37 112.558 8.61C112.658 9.19 112.738 9.71 112.798 10.17C112.858 10.61 112.928 11.01 113.008 11.37C113.108 11.73 113.238 12.07 113.398 12.39C113.578 12.69 113.818 12.97 114.118 13.23C114.398 13.49 114.708 13.68 115.048 13.8C115.408 13.92 115.718 13.98 115.978 13.98C116.098 13.98 116.228 13.96 116.368 13.92C116.508 13.86 116.608 13.83 116.668 13.83C116.748 13.83 116.818 13.9 116.878 14.04C116.958 14.18 116.998 14.27 116.998 14.31ZM126.495 4.44C126.235 4.74 125.865 5.04 125.385 5.34C124.905 5.62 124.425 5.88 123.945 6.12C123.465 6.36 123.045 6.57 122.685 6.75C122.325 6.91 122.145 7.02 122.145 7.08C122.145 7.14 122.185 7.32 122.265 7.62C122.345 7.92 122.435 8.28 122.535 8.7C122.655 9.1 122.775 9.52 122.895 9.96C123.015 10.4 123.115 10.79 123.195 11.13C123.235 11.33 123.285 11.59 123.345 11.91C123.405 12.23 123.455 12.55 123.495 12.87C123.555 13.19 123.605 13.48 123.645 13.74C123.685 13.98 123.705 14.11 123.705 14.13C123.705 14.43 123.655 14.74 123.555 15.06C123.455 15.38 123.295 15.54 123.075 15.54C122.955 15.54 122.845 15.49 122.745 15.39C122.645 15.29 122.555 15.18 122.475 15.06C122.395 14.92 122.335 14.79 122.295 14.67C122.255 14.55 122.235 14.46 122.235 14.4C122.235 14.36 122.235 14.3 122.235 14.22C122.255 14.14 122.265 14.05 122.265 13.95C122.265 13.57 122.205 13.02 122.085 12.3C122.045 12.08 121.965 11.74 121.845 11.28C121.725 10.82 121.605 10.35 121.485 9.87C121.345 9.31 121.185 8.7 121.005 8.04C120.925 7.76 120.875 7.62 120.855 7.62C120.715 7.62 120.475 7.71 120.135 7.89C119.815 8.05 119.445 8.26 119.025 8.52C118.605 8.76 118.165 9.03 117.705 9.33C117.245 9.61 116.815 9.88 116.415 10.14C116.015 10.38 115.675 10.59 115.395 10.77C115.095 10.93 114.915 11.01 114.855 11.01C114.595 11.01 114.385 10.92 114.225 10.74C114.065 10.56 113.985 10.36 113.985 10.14C113.985 10.02 114.155 9.85 114.495 9.63C114.815 9.39 115.225 9.13 115.725 8.85C116.205 8.57 116.735 8.28 117.315 7.98C117.875 7.68 118.395 7.41 118.875 7.17C119.375 6.93 119.785 6.73 120.105 6.57C120.445 6.41 120.615 6.33 120.615 6.33C120.435 5.41 120.285 4.59 120.165 3.87C120.065 3.25 119.965 2.68 119.865 2.16C119.785 1.64 119.745 1.36 119.745 1.32C119.745 1.06 119.795 0.869999 119.895 0.749999C120.015 0.609999 120.145 0.539999 120.285 0.539999C120.505 0.539999 120.645 0.689999 120.705 0.989999C120.925 2.07 121.125 3.03 121.305 3.87C121.505 4.71 121.695 5.39 121.875 5.91C122.055 5.87 122.365 5.76 122.805 5.58C123.245 5.38 123.705 5.17 124.185 4.95C124.665 4.73 125.095 4.54 125.475 4.38C125.875 4.2 126.105 4.11 126.165 4.11C126.285 4.11 126.355 4.15 126.375 4.23C126.415 4.31 126.455 4.38 126.495 4.44ZM136.465 14.85C136.485 14.89 136.495 14.95 136.495 15.03C136.495 15.15 136.405 15.33 136.225 15.57C136.165 15.65 136.035 15.78 135.835 15.96C135.635 16.14 135.365 16.32 135.025 16.5C134.685 16.68 134.265 16.84 133.765 16.98C133.285 17.12 132.715 17.19 132.055 17.19C131.595 17.19 131.145 17.09 130.705 16.89C130.265 16.67 129.875 16.36 129.535 15.96C129.195 15.54 128.915 15.03 128.695 14.43C128.475 13.81 128.365 13.09 128.365 12.27C128.365 11.49 128.465 10.76 128.665 10.08C128.865 9.4 129.115 8.8 129.415 8.28C129.735 7.76 130.085 7.35 130.465 7.05C130.845 6.75 131.215 6.6 131.575 6.6C131.895 6.6 132.215 6.67 132.535 6.81C132.875 6.93 133.175 7.09 133.435 7.29C133.715 7.49 133.935 7.72 134.095 7.98C134.255 8.22 134.335 8.47 134.335 8.73C134.335 9.03 134.195 9.34 133.915 9.66C133.655 9.98 133.335 10.28 132.955 10.56C132.575 10.82 132.195 11.04 131.815 11.22C131.435 11.38 131.135 11.46 130.915 11.46C130.795 11.46 130.685 11.41 130.585 11.31C130.505 11.19 130.465 11.05 130.465 10.89C130.465 10.61 130.585 10.39 130.825 10.23C131.085 10.07 131.365 9.93 131.665 9.81C131.965 9.67 132.235 9.51 132.475 9.33C132.735 9.15 132.865 8.9 132.865 8.58C132.865 8.54 132.815 8.44 132.715 8.28C132.615 8.12 132.345 8.04 131.905 8.04C131.705 8.04 131.475 8.16 131.215 8.4C130.955 8.62 130.705 8.93 130.465 9.33C130.225 9.71 130.025 10.17 129.865 10.71C129.705 11.23 129.625 11.8 129.625 12.42C129.625 12.94 129.715 13.41 129.895 13.83C130.095 14.25 130.345 14.61 130.645 14.91C130.945 15.19 131.295 15.41 131.695 15.57C132.095 15.73 132.505 15.81 132.925 15.81C133.225 15.81 133.545 15.75 133.885 15.63C134.245 15.49 134.575 15.35 134.875 15.21C135.195 15.05 135.465 14.91 135.685 14.79C135.925 14.65 136.075 14.58 136.135 14.58C136.195 14.58 136.255 14.61 136.315 14.67C136.395 14.73 136.445 14.79 136.465 14.85ZM147.584 14.31C147.584 14.43 147.544 14.55 147.464 14.67C147.384 14.79 147.284 14.9 147.164 15C147.064 15.1 146.944 15.19 146.804 15.27C146.684 15.33 146.574 15.36 146.474 15.36C146.134 15.36 145.694 15.29 145.154 15.15C144.634 14.99 144.214 14.75 143.894 14.43C143.554 14.09 143.254 13.69 142.994 13.23C142.734 12.75 142.444 12.05 142.124 11.13C141.904 12.01 141.644 12.88 141.344 13.74C141.064 14.6 140.604 15.39 139.964 16.11C139.924 16.15 139.864 16.17 139.784 16.17C139.644 16.17 139.494 16.1 139.334 15.96C139.174 15.82 139.094 15.68 139.094 15.54C139.094 15.4 139.074 15.08 139.034 14.58C139.014 14.06 138.984 13.49 138.944 12.87C138.904 12.23 138.864 11.59 138.824 10.95C138.804 10.29 138.794 9.75 138.794 9.33C138.794 9.13 138.804 8.87 138.824 8.55C138.844 8.21 138.904 7.92 139.004 7.68C139.024 7.64 139.094 7.56 139.214 7.44C139.354 7.32 139.504 7.26 139.664 7.26C139.804 7.26 139.884 7.35 139.904 7.53C139.924 7.71 139.934 7.91 139.934 8.13V12.87C139.934 12.97 139.944 13.11 139.964 13.29C140.004 13.47 140.054 13.6 140.114 13.68C140.334 13.2 140.534 12.64 140.714 12C140.914 11.34 141.104 10.72 141.284 10.14C141.464 9.54 141.644 9.04 141.824 8.64C142.004 8.22 142.184 8.01 142.364 8.01C142.564 8.01 142.724 8.05 142.844 8.13C142.964 8.21 143.064 8.37 143.144 8.61C143.244 9.19 143.324 9.71 143.384 10.17C143.444 10.61 143.514 11.01 143.594 11.37C143.694 11.73 143.824 12.07 143.984 12.39C144.164 12.69 144.404 12.97 144.704 13.23C144.984 13.49 145.294 13.68 145.634 13.8C145.994 13.92 146.304 13.98 146.564 13.98C146.684 13.98 146.814 13.96 146.954 13.92C147.094 13.86 147.194 13.83 147.254 13.83C147.334 13.83 147.404 13.9 147.464 14.04C147.544 14.18 147.584 14.27 147.584 14.31ZM163.381 11.76C163.381 12.12 163.211 12.57 162.871 13.11C162.551 13.63 162.111 14.14 161.551 14.64C160.991 15.14 160.341 15.57 159.601 15.93C158.861 16.27 158.091 16.44 157.291 16.44C156.931 16.44 156.551 16.38 156.151 16.26C155.751 16.14 155.361 15.97 154.981 15.75C154.601 15.51 154.261 15.23 153.961 14.91C153.661 14.57 153.441 14.19 153.301 13.77C153.181 13.89 153.031 14.09 152.851 14.37C152.691 14.65 152.511 14.94 152.311 15.24C152.111 15.52 151.891 15.77 151.651 15.99C151.411 16.19 151.161 16.29 150.901 16.29C150.641 16.29 150.421 16.16 150.241 15.9C150.081 15.62 149.951 15.32 149.851 15C149.751 14.66 149.681 14.34 149.641 14.04C149.601 13.74 149.581 13.57 149.581 13.53C149.581 13.29 149.651 12.84 149.791 12.18C149.931 11.5 150.141 10.8 150.421 10.08C150.701 9.36 151.051 8.72 151.471 8.16C151.911 7.6 152.421 7.32 153.001 7.32C153.221 7.32 153.361 7.42 153.421 7.62C153.501 7.8 153.541 7.98 153.541 8.16V9.06C153.641 9.14 153.741 9.2 153.841 9.24C153.961 9.26 154.061 9.3 154.141 9.36C154.241 9.4 154.311 9.47 154.351 9.57C154.411 9.67 154.441 9.83 154.441 10.05C154.441 10.19 154.431 10.32 154.411 10.44C154.391 10.54 154.381 10.64 154.381 10.74C154.381 11.26 154.421 11.77 154.501 12.27C154.581 12.77 154.741 13.22 154.981 13.62C155.221 14 155.551 14.32 155.971 14.58C156.391 14.82 156.951 14.94 157.651 14.94C158.531 14.94 159.271 14.76 159.871 14.4C160.491 14.02 161.001 13.61 161.401 13.17C161.821 12.71 162.151 12.3 162.391 11.94C162.631 11.56 162.831 11.37 162.991 11.37C163.251 11.37 163.381 11.5 163.381 11.76ZM152.851 10.44C152.851 10.36 152.831 10.29 152.791 10.23C152.751 10.15 152.731 10.08 152.731 10.02C152.731 9.94 152.751 9.87 152.791 9.81C152.831 9.75 152.851 9.67 152.851 9.57C152.851 9.51 152.831 9.47 152.791 9.45C152.751 9.41 152.731 9.37 152.731 9.33C152.551 9.37 152.361 9.54 152.161 9.84C151.981 10.14 151.801 10.49 151.621 10.89C151.461 11.29 151.331 11.7 151.231 12.12C151.131 12.52 151.081 12.85 151.081 13.11C151.081 13.25 151.121 13.48 151.201 13.8C151.281 14.12 151.371 14.33 151.471 14.43C151.811 13.73 152.121 13.05 152.401 12.39C152.701 11.73 152.851 11.08 152.851 10.44ZM172.75 14.31C172.75 14.43 172.71 14.55 172.63 14.67C172.55 14.79 172.45 14.9 172.33 15C172.23 15.1 172.11 15.19 171.97 15.27C171.85 15.33 171.74 15.36 171.64 15.36C171.3 15.36 170.86 15.29 170.32 15.15C169.8 14.99 169.38 14.75 169.06 14.43C168.72 14.09 168.42 13.69 168.16 13.23C167.9 12.75 167.61 12.05 167.29 11.13C167.07 12.01 166.81 12.88 166.51 13.74C166.23 14.6 165.77 15.39 165.13 16.11C165.09 16.15 165.03 16.17 164.95 16.17C164.81 16.17 164.66 16.1 164.5 15.96C164.34 15.82 164.26 15.68 164.26 15.54C164.26 15.4 164.24 15.08 164.2 14.58C164.18 14.06 164.15 13.49 164.11 12.87C164.07 12.23 164.03 11.59 163.99 10.95C163.97 10.29 163.96 9.75 163.96 9.33C163.96 9.13 163.97 8.87 163.99 8.55C164.01 8.21 164.07 7.92 164.17 7.68C164.19 7.64 164.26 7.56 164.38 7.44C164.52 7.32 164.67 7.26 164.83 7.26C164.97 7.26 165.05 7.35 165.07 7.53C165.09 7.71 165.1 7.91 165.1 8.13V12.87C165.1 12.97 165.11 13.11 165.13 13.29C165.17 13.47 165.22 13.6 165.28 13.68C165.5 13.2 165.7 12.64 165.88 12C166.08 11.34 166.27 10.72 166.45 10.14C166.63 9.54 166.81 9.04 166.99 8.64C167.17 8.22 167.35 8.01 167.53 8.01C167.73 8.01 167.89 8.05 168.01 8.13C168.13 8.21 168.23 8.37 168.31 8.61C168.41 9.19 168.49 9.71 168.55 10.17C168.61 10.61 168.68 11.01 168.76 11.37C168.86 11.73 168.99 12.07 169.15 12.39C169.33 12.69 169.57 12.97 169.87 13.23C170.15 13.49 170.46 13.68 170.8 13.8C171.16 13.92 171.47 13.98 171.73 13.98C171.85 13.98 171.98 13.96 172.12 13.92C172.26 13.86 172.36 13.83 172.42 13.83C172.5 13.83 172.57 13.9 172.63 14.04C172.71 14.18 172.75 14.27 172.75 14.31ZM182.247 4.44C181.987 4.74 181.617 5.04 181.137 5.34C180.657 5.62 180.177 5.88 179.697 6.12C179.217 6.36 178.797 6.57 178.437 6.75C178.077 6.91 177.897 7.02 177.897 7.08C177.897 7.14 177.937 7.32 178.017 7.62C178.097 7.92 178.187 8.28 178.287 8.7C178.407 9.1 178.527 9.52 178.647 9.96C178.767 10.4 178.867 10.79 178.947 11.13C178.987 11.33 179.037 11.59 179.097 11.91C179.157 12.23 179.207 12.55 179.247 12.87C179.307 13.19 179.357 13.48 179.397 13.74C179.437 13.98 179.457 14.11 179.457 14.13C179.457 14.43 179.407 14.74 179.307 15.06C179.207 15.38 179.047 15.54 178.827 15.54C178.707 15.54 178.597 15.49 178.497 15.39C178.397 15.29 178.307 15.18 178.227 15.06C178.147 14.92 178.087 14.79 178.047 14.67C178.007 14.55 177.987 14.46 177.987 14.4C177.987 14.36 177.987 14.3 177.987 14.22C178.007 14.14 178.017 14.05 178.017 13.95C178.017 13.57 177.957 13.02 177.837 12.3C177.797 12.08 177.717 11.74 177.597 11.28C177.477 10.82 177.357 10.35 177.237 9.87C177.097 9.31 176.937 8.7 176.757 8.04C176.677 7.76 176.627 7.62 176.607 7.62C176.467 7.62 176.227 7.71 175.887 7.89C175.567 8.05 175.197 8.26 174.777 8.52C174.357 8.76 173.917 9.03 173.457 9.33C172.997 9.61 172.567 9.88 172.167 10.14C171.767 10.38 171.427 10.59 171.147 10.77C170.847 10.93 170.667 11.01 170.607 11.01C170.347 11.01 170.137 10.92 169.977 10.74C169.817 10.56 169.737 10.36 169.737 10.14C169.737 10.02 169.907 9.85 170.247 9.63C170.567 9.39 170.977 9.13 171.477 8.85C171.957 8.57 172.487 8.28 173.067 7.98C173.627 7.68 174.147 7.41 174.627 7.17C175.127 6.93 175.537 6.73 175.857 6.57C176.197 6.41 176.367 6.33 176.367 6.33C176.187 5.41 176.037 4.59 175.917 3.87C175.817 3.25 175.717 2.68 175.617 2.16C175.537 1.64 175.497 1.36 175.497 1.32C175.497 1.06 175.547 0.869999 175.647 0.749999C175.767 0.609999 175.897 0.539999 176.037 0.539999C176.257 0.539999 176.397 0.689999 176.457 0.989999C176.677 2.07 176.877 3.03 177.057 3.87C177.257 4.71 177.447 5.39 177.627 5.91C177.807 5.87 178.117 5.76 178.557 5.58C178.997 5.38 179.457 5.17 179.937 4.95C180.417 4.73 180.847 4.54 181.227 4.38C181.627 4.2 181.857 4.11 181.917 4.11C182.037 4.11 182.107 4.15 182.127 4.23C182.167 4.31 182.207 4.38 182.247 4.44ZM13.3355 24.44C13.0755 24.74 12.7055 25.04 12.2255 25.34C11.7455 25.62 11.2655 25.88 10.7855 26.12C10.3055 26.36 9.88555 26.57 9.52555 26.75C9.16555 26.91 8.98555 27.02 8.98555 27.08C8.98555 27.14 9.02555 27.32 9.10555 27.62C9.18555 27.92 9.27555 28.28 9.37555 28.7C9.49555 29.1 9.61555 29.52 9.73555 29.96C9.85555 30.4 9.95555 30.79 10.0355 31.13C10.0755 31.33 10.1255 31.59 10.1855 31.91C10.2455 32.23 10.2955 32.55 10.3355 32.87C10.3955 33.19 10.4455 33.48 10.4855 33.74C10.5255 33.98 10.5455 34.11 10.5455 34.13C10.5455 34.43 10.4955 34.74 10.3955 35.06C10.2955 35.38 10.1355 35.54 9.91555 35.54C9.79555 35.54 9.68555 35.49 9.58555 35.39C9.48555 35.29 9.39555 35.18 9.31555 35.06C9.23555 34.92 9.17555 34.79 9.13555 34.67C9.09555 34.55 9.07555 34.46 9.07555 34.4C9.07555 34.36 9.07555 34.3 9.07555 34.22C9.09555 34.14 9.10555 34.05 9.10555 33.95C9.10555 33.57 9.04555 33.02 8.92555 32.3C8.88555 32.08 8.80555 31.74 8.68555 31.28C8.56555 30.82 8.44555 30.35 8.32555 29.87C8.18555 29.31 8.02555 28.7 7.84555 28.04C7.76555 27.76 7.71555 27.62 7.69555 27.62C7.55555 27.62 7.31555 27.71 6.97555 27.89C6.65555 28.05 6.28555 28.26 5.86555 28.52C5.44555 28.76 5.00555 29.03 4.54555 29.33C4.08555 29.61 3.65555 29.88 3.25555 30.14C2.85555 30.38 2.51555 30.59 2.23555 30.77C1.93555 30.93 1.75555 31.01 1.69555 31.01C1.43555 31.01 1.22555 30.92 1.06555 30.74C0.905547 30.56 0.825547 30.36 0.825547 30.14C0.825547 30.02 0.995547 29.85 1.33555 29.63C1.65555 29.39 2.06555 29.13 2.56555 28.85C3.04555 28.57 3.57555 28.28 4.15555 27.98C4.71555 27.68 5.23555 27.41 5.71555 27.17C6.21555 26.93 6.62555 26.73 6.94555 26.57C7.28555 26.41 7.45555 26.33 7.45555 26.33C7.27555 25.41 7.12555 24.59 7.00555 23.87C6.90555 23.25 6.80555 22.68 6.70555 22.16C6.62555 21.64 6.58555 21.36 6.58555 21.32C6.58555 21.06 6.63555 20.87 6.73555 20.75C6.85555 20.61 6.98555 20.54 7.12555 20.54C7.34555 20.54 7.48555 20.69 7.54555 20.99C7.76555 22.07 7.96555 23.03 8.14555 23.87C8.34555 24.71 8.53555 25.39 8.71555 25.91C8.89555 25.87 9.20555 25.76 9.64555 25.58C10.0855 25.38 10.5455 25.17 11.0255 24.95C11.5055 24.73 11.9355 24.54 12.3155 24.38C12.7155 24.2 12.9455 24.11 13.0055 24.11C13.1255 24.11 13.1955 24.15 13.2155 24.23C13.2555 24.31 13.2955 24.38 13.3355 24.44ZM24.8356 33.02C24.8356 33.2 24.7156 33.39 24.4756 33.59C24.2356 33.79 23.9556 33.98 23.6356 34.16C23.3156 34.32 22.9856 34.46 22.6456 34.58C22.3256 34.7 22.0856 34.76 21.9256 34.76C21.7456 34.76 21.5456 34.71 21.3256 34.61C21.1256 34.51 20.9256 34.39 20.7256 34.25C20.5456 34.11 20.3856 33.98 20.2456 33.86C20.1056 33.74 20.0156 33.66 19.9756 33.62C19.9156 33.68 19.8256 33.8 19.7056 33.98C19.5856 34.16 19.4356 34.36 19.2556 34.58C19.0956 34.78 18.9156 34.96 18.7156 35.12C18.5356 35.28 18.3456 35.36 18.1456 35.36C17.6256 35.36 17.1756 35.08 16.7956 34.52C16.4156 33.96 16.0956 33.32 15.8356 32.6C15.5956 31.88 15.4056 31.19 15.2656 30.53C15.1456 29.85 15.0856 29.39 15.0856 29.15C15.0856 29.01 15.1556 28.9 15.2956 28.82C15.4556 28.72 15.5756 28.67 15.6556 28.67C15.9356 28.67 16.1256 28.77 16.2256 28.97C16.3256 29.15 16.3756 29.35 16.3756 29.57C16.3756 29.75 16.4256 30.07 16.5256 30.53C16.6456 30.99 16.7856 31.46 16.9456 31.94C17.1056 32.42 17.2756 32.85 17.4556 33.23C17.6356 33.59 17.7956 33.77 17.9356 33.77C18.1956 33.77 18.4156 33.61 18.5956 33.29C18.7956 32.95 18.9556 32.57 19.0756 32.15C19.1956 31.71 19.2856 31.3 19.3456 30.92C19.4056 30.52 19.4356 30.26 19.4356 30.14C19.4356 30.12 19.4356 30.06 19.4356 29.96C19.4556 29.84 19.4756 29.72 19.4956 29.6C19.5156 29.48 19.5256 29.37 19.5256 29.27C19.5456 29.17 19.5556 29.1 19.5556 29.06C19.5556 28.92 19.5256 28.83 19.4656 28.79C19.4056 28.73 19.3756 28.62 19.3756 28.46C19.3756 28.34 19.4356 28.23 19.5556 28.13C19.6756 28.01 19.9356 27.95 20.3356 27.95C20.4956 27.95 20.6156 28 20.6956 28.1C20.7956 28.18 20.8656 28.28 20.9056 28.4C20.9456 28.52 20.9656 28.64 20.9656 28.76C20.9856 28.86 20.9956 28.93 20.9956 28.97C20.9956 28.99 20.9856 29.13 20.9656 29.39C20.9456 29.65 20.9256 29.94 20.9056 30.26C20.9056 30.56 20.8956 30.85 20.8756 31.13C20.8556 31.41 20.8456 31.58 20.8456 31.64C20.8456 31.7 20.8756 31.82 20.9356 32C20.9956 32.18 21.0656 32.37 21.1456 32.57C21.2456 32.75 21.3556 32.92 21.4756 33.08C21.5956 33.22 21.7256 33.29 21.8656 33.29C22.1056 33.29 22.3256 33.26 22.5256 33.2C22.7456 33.12 22.9456 33.04 23.1256 32.96C23.3256 32.86 23.5056 32.78 23.6656 32.72C23.8256 32.64 23.9756 32.6 24.1156 32.6C24.2956 32.6 24.4556 32.64 24.5956 32.72C24.7556 32.8 24.8356 32.9 24.8356 33.02ZM48.0917 29.33C48.0917 29.85 47.9417 30.35 47.6417 30.83C47.3617 31.31 47.0117 31.76 46.5917 32.18C46.1717 32.58 45.7117 32.96 45.2117 33.32C44.7117 33.66 44.2517 33.96 43.8317 34.22C43.4317 34.5 43.1017 34.73 42.8417 34.91C42.5817 35.09 42.4517 35.23 42.4517 35.33C42.4517 35.59 42.4817 35.96 42.5417 36.44C42.6017 36.9 42.6717 37.41 42.7517 37.97C42.8517 38.51 42.9417 39.07 43.0217 39.65C43.1217 40.23 43.1917 40.76 43.2317 41.24C43.2317 41.26 43.2417 41.35 43.2617 41.51C43.3017 41.67 43.3417 41.85 43.3817 42.05C43.4417 42.25 43.4817 42.43 43.5017 42.59C43.5417 42.77 43.5617 42.88 43.5617 42.92C43.5617 43.06 43.5517 43.21 43.5317 43.37C43.5317 43.55 43.5017 43.71 43.4417 43.85C43.4017 44.01 43.3317 44.14 43.2317 44.24C43.1317 44.34 43.0017 44.39 42.8417 44.39C42.6217 44.39 42.4617 44.29 42.3617 44.09C42.2617 43.91 42.2117 43.73 42.2117 43.55C42.2117 43.51 42.2117 43.47 42.2117 43.43C42.2317 43.39 42.2417 43.34 42.2417 43.28C42.2417 43.06 42.1617 42.47 42.0017 41.51C41.8417 40.55 41.6617 39.4 41.4617 38.06C41.2617 36.74 41.0817 35.32 40.9217 33.8C40.7617 32.26 40.6817 30.81 40.6817 29.45C40.6817 29.35 40.6917 29.24 40.7117 29.12C40.7317 28.98 40.7417 28.86 40.7417 28.76C40.5417 28.78 40.2417 28.87 39.8417 29.03C39.4617 29.19 39.0817 29.39 38.7017 29.63C38.3217 29.85 37.9817 30.09 37.6817 30.35C37.4017 30.59 37.2617 30.81 37.2617 31.01H37.0517C36.9917 31.01 36.9217 30.97 36.8417 30.89C36.7417 30.81 36.6617 30.72 36.6017 30.62C36.5217 30.52 36.4517 30.42 36.3917 30.32C36.3317 30.22 36.3017 30.15 36.3017 30.11C36.3017 29.69 36.5517 29.3 37.0517 28.94C37.5517 28.56 38.1717 28.23 38.9117 27.95C39.6717 27.65 40.5017 27.42 41.4017 27.26C42.3017 27.08 43.1517 26.99 43.9517 26.99C44.7317 26.99 45.3817 27.08 45.9017 27.26C46.4417 27.44 46.8717 27.66 47.1917 27.92C47.5117 28.16 47.7417 28.41 47.8817 28.67C48.0217 28.93 48.0917 29.15 48.0917 29.33ZM46.6217 29.24C46.6217 29.04 46.3717 28.84 45.8717 28.64C45.3717 28.42 44.7817 28.31 44.1017 28.31C43.5017 28.31 43.0617 28.33 42.7817 28.37C42.5017 28.41 42.3117 28.45 42.2117 28.49C42.1717 28.81 42.1417 29.19 42.1217 29.63C42.1017 30.07 42.0917 30.52 42.0917 30.98C42.0917 31.46 42.1017 31.93 42.1217 32.39C42.1617 32.83 42.2017 33.2 42.2417 33.5C42.5217 33.32 42.9017 33.08 43.3817 32.78C43.8817 32.46 44.3717 32.11 44.8517 31.73C45.3317 31.33 45.7417 30.92 46.0817 30.5C46.4417 30.06 46.6217 29.64 46.6217 29.24ZM58.1103 34.85C58.1303 34.89 58.1403 34.95 58.1403 35.03C58.1403 35.15 58.0503 35.33 57.8703 35.57C57.8103 35.65 57.6803 35.78 57.4803 35.96C57.2803 36.14 57.0103 36.32 56.6703 36.5C56.3303 36.68 55.9103 36.84 55.4103 36.98C54.9303 37.12 54.3603 37.19 53.7003 37.19C53.2403 37.19 52.7903 37.09 52.3503 36.89C51.9103 36.67 51.5203 36.36 51.1803 35.96C50.8403 35.54 50.5603 35.03 50.3403 34.43C50.1203 33.81 50.0103 33.09 50.0103 32.27C50.0103 31.49 50.1103 30.76 50.3103 30.08C50.5103 29.4 50.7603 28.8 51.0603 28.28C51.3803 27.76 51.7303 27.35 52.1103 27.05C52.4903 26.75 52.8603 26.6 53.2203 26.6C53.5403 26.6 53.8603 26.67 54.1803 26.81C54.5203 26.93 54.8203 27.09 55.0803 27.29C55.3603 27.49 55.5803 27.72 55.7403 27.98C55.9003 28.22 55.9803 28.47 55.9803 28.73C55.9803 29.03 55.8403 29.34 55.5603 29.66C55.3003 29.98 54.9803 30.28 54.6003 30.56C54.2203 30.82 53.8403 31.04 53.4603 31.22C53.0803 31.38 52.7803 31.46 52.5603 31.46C52.4403 31.46 52.3303 31.41 52.2303 31.31C52.1503 31.19 52.1103 31.05 52.1103 30.89C52.1103 30.61 52.2303 30.39 52.4703 30.23C52.7303 30.07 53.0103 29.93 53.3103 29.81C53.6103 29.67 53.8803 29.51 54.1203 29.33C54.3803 29.15 54.5103 28.9 54.5103 28.58C54.5103 28.54 54.4603 28.44 54.3603 28.28C54.2603 28.12 53.9903 28.04 53.5503 28.04C53.3503 28.04 53.1203 28.16 52.8603 28.4C52.6003 28.62 52.3503 28.93 52.1103 29.33C51.8703 29.71 51.6703 30.17 51.5103 30.71C51.3503 31.23 51.2703 31.8 51.2703 32.42C51.2703 32.94 51.3603 33.41 51.5403 33.83C51.7403 34.25 51.9903 34.61 52.2903 34.91C52.5903 35.19 52.9403 35.41 53.3403 35.57C53.7403 35.73 54.1503 35.81 54.5703 35.81C54.8703 35.81 55.1903 35.75 55.5303 35.63C55.8903 35.49 56.2203 35.35 56.5203 35.21C56.8403 35.05 57.1103 34.91 57.3303 34.79C57.5703 34.65 57.7203 34.58 57.7803 34.58C57.8403 34.58 57.9003 34.61 57.9603 34.67C58.0403 34.73 58.0903 34.79 58.1103 34.85ZM70.0993 33.02C70.0993 33.2 69.9793 33.39 69.7393 33.59C69.4993 33.79 69.2193 33.98 68.8993 34.16C68.5793 34.32 68.2493 34.46 67.9093 34.58C67.5893 34.7 67.3493 34.76 67.1893 34.76C67.0093 34.76 66.8093 34.71 66.5893 34.61C66.3893 34.51 66.1893 34.39 65.9893 34.25C65.8093 34.11 65.6493 33.98 65.5093 33.86C65.3693 33.74 65.2793 33.66 65.2393 33.62C65.1793 33.68 65.0893 33.8 64.9693 33.98C64.8493 34.16 64.6993 34.36 64.5193 34.58C64.3593 34.78 64.1793 34.96 63.9793 35.12C63.7993 35.28 63.6093 35.36 63.4093 35.36C62.8893 35.36 62.4393 35.08 62.0593 34.52C61.6793 33.96 61.3593 33.32 61.0993 32.6C60.8593 31.88 60.6693 31.19 60.5293 30.53C60.4093 29.85 60.3493 29.39 60.3493 29.15C60.3493 29.01 60.4193 28.9 60.5593 28.82C60.7193 28.72 60.8393 28.67 60.9193 28.67C61.1993 28.67 61.3893 28.77 61.4893 28.97C61.5893 29.15 61.6393 29.35 61.6393 29.57C61.6393 29.75 61.6893 30.07 61.7893 30.53C61.9093 30.99 62.0493 31.46 62.2093 31.94C62.3693 32.42 62.5393 32.85 62.7193 33.23C62.8993 33.59 63.0593 33.77 63.1993 33.77C63.4593 33.77 63.6793 33.61 63.8593 33.29C64.0593 32.95 64.2193 32.57 64.3393 32.15C64.4593 31.71 64.5493 31.3 64.6093 30.92C64.6693 30.52 64.6993 30.26 64.6993 30.14C64.6993 30.12 64.6993 30.06 64.6993 29.96C64.7193 29.84 64.7393 29.72 64.7593 29.6C64.7793 29.48 64.7893 29.37 64.7893 29.27C64.8093 29.17 64.8193 29.1 64.8193 29.06C64.8193 28.92 64.7893 28.83 64.7293 28.79C64.6693 28.73 64.6393 28.62 64.6393 28.46C64.6393 28.34 64.6993 28.23 64.8193 28.13C64.9393 28.01 65.1993 27.95 65.5993 27.95C65.7593 27.95 65.8793 28 65.9593 28.1C66.0593 28.18 66.1293 28.28 66.1693 28.4C66.2093 28.52 66.2293 28.64 66.2293 28.76C66.2493 28.86 66.2593 28.93 66.2593 28.97C66.2593 28.99 66.2493 29.13 66.2293 29.39C66.2093 29.65 66.1893 29.94 66.1693 30.26C66.1693 30.56 66.1593 30.85 66.1393 31.13C66.1193 31.41 66.1093 31.58 66.1093 31.64C66.1093 31.7 66.1393 31.82 66.1993 32C66.2593 32.18 66.3293 32.37 66.4093 32.57C66.5093 32.75 66.6193 32.92 66.7393 33.08C66.8593 33.22 66.9893 33.29 67.1293 33.29C67.3693 33.29 67.5893 33.26 67.7893 33.2C68.0093 33.12 68.2093 33.04 68.3893 32.96C68.5893 32.86 68.7693 32.78 68.9293 32.72C69.0893 32.64 69.2393 32.6 69.3793 32.6C69.5593 32.6 69.7193 32.64 69.8593 32.72C70.0193 32.8 70.0993 32.9 70.0993 33.02ZM80.0635 35.21C80.0635 35.59 79.9435 35.85 79.7035 35.99C79.4835 36.13 79.2435 36.2 78.9835 36.2C78.5235 36.2 78.0035 36 77.4235 35.6C76.8435 35.18 76.2335 34.71 75.5935 34.19C75.5735 34.23 75.5135 34.45 75.4135 34.85C75.3335 35.23 75.2135 35.65 75.0535 36.11C74.9135 36.57 74.7335 36.99 74.5135 37.37C74.2935 37.75 74.0435 37.94 73.7635 37.94C73.5635 37.94 73.4035 37.87 73.2835 37.73C73.1635 37.57 73.1035 37.46 73.1035 37.4C73.1035 37.26 73.1735 37 73.3135 36.62C73.4535 36.22 73.6035 35.8 73.7635 35.36C73.9235 34.9 74.0735 34.47 74.2135 34.07C74.3535 33.67 74.4235 33.38 74.4235 33.2C74.4235 33.12 74.2635 32.87 73.9435 32.45C73.6235 32.03 73.2735 31.54 72.8935 30.98C72.5135 30.4 72.1635 29.79 71.8435 29.15C71.5235 28.51 71.3635 27.92 71.3635 27.38C71.3635 27.24 71.4235 27.1 71.5435 26.96C71.6635 26.82 71.7735 26.75 71.8735 26.75C71.9935 26.75 72.1535 26.8 72.3535 26.9C72.5735 26.98 72.7035 27.1 72.7435 27.26C72.9435 27.92 73.2035 28.63 73.5235 29.39C73.8435 30.13 74.3235 30.85 74.9635 31.55C75.0235 31.33 75.0935 31.03 75.1735 30.65C75.2535 30.27 75.3435 29.86 75.4435 29.42C75.5435 28.98 75.6435 28.54 75.7435 28.1C75.8635 27.66 75.9735 27.26 76.0735 26.9C76.1935 26.54 76.3035 26.25 76.4035 26.03C76.5035 25.81 76.6035 25.7 76.7035 25.7C76.8035 25.7 76.9535 25.74 77.1535 25.82C77.3735 25.88 77.4835 26.02 77.4835 26.24C77.4835 26.24 77.4535 26.41 77.3935 26.75C77.3335 27.07 77.2535 27.46 77.1535 27.92C77.0535 28.38 76.9435 28.88 76.8235 29.42C76.7035 29.94 76.5835 30.41 76.4635 30.83C76.4435 30.89 76.4035 31 76.3435 31.16C76.3035 31.32 76.2535 31.49 76.1935 31.67C76.1535 31.85 76.1135 32.02 76.0735 32.18C76.0335 32.32 76.0135 32.41 76.0135 32.45C76.0135 32.63 76.1535 32.85 76.4335 33.11C76.7335 33.35 77.0635 33.59 77.4235 33.83C77.7835 34.05 78.1235 34.24 78.4435 34.4C78.7835 34.56 78.9935 34.64 79.0735 34.64C79.1335 34.64 79.2135 34.63 79.3135 34.61C79.4135 34.59 79.4935 34.58 79.5535 34.58C79.7135 34.58 79.8335 34.67 79.9135 34.85C80.0135 35.03 80.0635 35.15 80.0635 35.21ZM108.991 31.76C108.991 32.12 108.821 32.57 108.481 33.11C108.161 33.63 107.721 34.14 107.161 34.64C106.601 35.14 105.951 35.57 105.211 35.93C104.471 36.27 103.701 36.44 102.901 36.44C102.541 36.44 102.161 36.38 101.761 36.26C101.361 36.14 100.971 35.97 100.591 35.75C100.211 35.51 99.871 35.23 99.571 34.91C99.271 34.57 99.051 34.19 98.911 33.77C98.791 33.89 98.641 34.09 98.461 34.37C98.301 34.65 98.121 34.94 97.921 35.24C97.721 35.52 97.501 35.77 97.261 35.99C97.021 36.19 96.771 36.29 96.511 36.29C96.251 36.29 96.031 36.16 95.851 35.9C95.691 35.62 95.561 35.32 95.461 35C95.361 34.66 95.291 34.34 95.251 34.04C95.211 33.74 95.191 33.57 95.191 33.53C95.191 33.29 95.261 32.84 95.401 32.18C95.541 31.5 95.751 30.8 96.031 30.08C96.311 29.36 96.661 28.72 97.081 28.16C97.521 27.6 98.031 27.32 98.611 27.32C98.831 27.32 98.971 27.42 99.031 27.62C99.111 27.8 99.151 27.98 99.151 28.16V29.06C99.251 29.14 99.351 29.2 99.451 29.24C99.571 29.26 99.671 29.3 99.751 29.36C99.851 29.4 99.921 29.47 99.961 29.57C100.021 29.67 100.051 29.83 100.051 30.05C100.051 30.19 100.041 30.32 100.021 30.44C100.001 30.54 99.991 30.64 99.991 30.74C99.991 31.26 100.031 31.77 100.111 32.27C100.191 32.77 100.351 33.22 100.591 33.62C100.831 34 101.161 34.32 101.581 34.58C102.001 34.82 102.561 34.94 103.261 34.94C104.141 34.94 104.881 34.76 105.481 34.4C106.101 34.02 106.611 33.61 107.011 33.17C107.431 32.71 107.761 32.3 108.001 31.94C108.241 31.56 108.441 31.37 108.601 31.37C108.861 31.37 108.991 31.5 108.991 31.76ZM98.461 30.44C98.461 30.36 98.441 30.29 98.401 30.23C98.361 30.15 98.341 30.08 98.341 30.02C98.341 29.94 98.361 29.87 98.401 29.81C98.441 29.75 98.461 29.67 98.461 29.57C98.461 29.51 98.441 29.47 98.401 29.45C98.361 29.41 98.341 29.37 98.341 29.33C98.161 29.37 97.971 29.54 97.771 29.84C97.591 30.14 97.411 30.49 97.231 30.89C97.071 31.29 96.941 31.7 96.841 32.12C96.741 32.52 96.691 32.85 96.691 33.11C96.691 33.25 96.731 33.48 96.811 33.8C96.891 34.12 96.981 34.33 97.081 34.43C97.421 33.73 97.731 33.05 98.011 32.39C98.311 31.73 98.461 31.08 98.461 30.44ZM113.35 37.13C113.35 37.29 113.29 37.41 113.17 37.49C113.05 37.57 112.91 37.61 112.75 37.61C112.57 37.61 112.38 37.44 112.18 37.1C112 36.76 111.82 36.33 111.64 35.81C111.46 35.29 111.29 34.73 111.13 34.13C110.97 33.51 110.83 32.94 110.71 32.42C110.59 31.88 110.49 31.43 110.41 31.07C110.35 30.71 110.32 30.51 110.32 30.47C110.32 30.39 110.28 30.18 110.2 29.84C110.14 29.5 110.05 28.97 109.93 28.25C109.83 27.53 109.71 26.6 109.57 25.46C109.45 24.3 109.32 22.87 109.18 21.17C109.18 20.99 109.21 20.76 109.27 20.48C109.33 20.2 109.47 20.06 109.69 20.06C109.97 20.06 110.18 20.25 110.32 20.63C110.48 21.01 110.6 21.48 110.68 22.04C110.78 22.6 110.85 23.19 110.89 23.81C110.93 24.41 110.98 24.94 111.04 25.4C111.12 26.04 111.19 26.62 111.25 27.14C111.33 27.66 111.4 28.18 111.46 28.7C111.54 29.2 111.63 29.73 111.73 30.29C111.85 30.85 111.99 31.47 112.15 32.15L113.35 37.13ZM119.678 37.13C119.678 37.29 119.618 37.41 119.498 37.49C119.378 37.57 119.238 37.61 119.078 37.61C118.898 37.61 118.708 37.44 118.508 37.1C118.328 36.76 118.148 36.33 117.968 35.81C117.788 35.29 117.618 34.73 117.458 34.13C117.298 33.51 117.158 32.94 117.038 32.42C116.918 31.88 116.818 31.43 116.738 31.07C116.678 30.71 116.648 30.51 116.648 30.47C116.648 30.39 116.608 30.18 116.528 29.84C116.468 29.5 116.378 28.97 116.258 28.25C116.158 27.53 116.038 26.6 115.898 25.46C115.778 24.3 115.648 22.87 115.508 21.17C115.508 20.99 115.538 20.76 115.598 20.48C115.658 20.2 115.798 20.06 116.018 20.06C116.298 20.06 116.508 20.25 116.648 20.63C116.808 21.01 116.928 21.48 117.008 22.04C117.108 22.6 117.178 23.19 117.218 23.81C117.258 24.41 117.308 24.94 117.368 25.4C117.448 26.04 117.518 26.62 117.578 27.14C117.658 27.66 117.728 28.18 117.788 28.7C117.868 29.2 117.958 29.73 118.058 30.29C118.178 30.85 118.318 31.47 118.478 32.15L119.678 37.13ZM130.356 34.85C130.376 34.89 130.386 34.95 130.386 35.03C130.386 35.15 130.296 35.33 130.116 35.57C130.056 35.65 129.926 35.78 129.726 35.96C129.526 36.14 129.256 36.32 128.916 36.5C128.576 36.68 128.156 36.84 127.656 36.98C127.176 37.12 126.606 37.19 125.946 37.19C125.486 37.19 125.036 37.09 124.596 36.89C124.156 36.67 123.766 36.36 123.426 35.96C123.086 35.54 122.806 35.03 122.586 34.43C122.366 33.81 122.256 33.09 122.256 32.27C122.256 31.49 122.356 30.76 122.556 30.08C122.756 29.4 123.006 28.8 123.306 28.28C123.626 27.76 123.976 27.35 124.356 27.05C124.736 26.75 125.106 26.6 125.466 26.6C125.786 26.6 126.106 26.67 126.426 26.81C126.766 26.93 127.066 27.09 127.326 27.29C127.606 27.49 127.826 27.72 127.986 27.98C128.146 28.22 128.226 28.47 128.226 28.73C128.226 29.03 128.086 29.34 127.806 29.66C127.546 29.98 127.226 30.28 126.846 30.56C126.466 30.82 126.086 31.04 125.706 31.22C125.326 31.38 125.026 31.46 124.806 31.46C124.686 31.46 124.576 31.41 124.476 31.31C124.396 31.19 124.356 31.05 124.356 30.89C124.356 30.61 124.476 30.39 124.716 30.23C124.976 30.07 125.256 29.93 125.556 29.81C125.856 29.67 126.126 29.51 126.366 29.33C126.626 29.15 126.756 28.9 126.756 28.58C126.756 28.54 126.706 28.44 126.606 28.28C126.506 28.12 126.236 28.04 125.796 28.04C125.596 28.04 125.366 28.16 125.106 28.4C124.846 28.62 124.596 28.93 124.356 29.33C124.116 29.71 123.916 30.17 123.756 30.71C123.596 31.23 123.516 31.8 123.516 32.42C123.516 32.94 123.606 33.41 123.786 33.83C123.986 34.25 124.236 34.61 124.536 34.91C124.836 35.19 125.186 35.41 125.586 35.57C125.986 35.73 126.396 35.81 126.816 35.81C127.116 35.81 127.436 35.75 127.776 35.63C128.136 35.49 128.466 35.35 128.766 35.21C129.086 35.05 129.356 34.91 129.576 34.79C129.816 34.65 129.966 34.58 130.026 34.58C130.086 34.58 130.146 34.61 130.206 34.67C130.286 34.73 130.336 34.79 130.356 34.85ZM139.555 28.85C139.555 28.99 139.495 29.11 139.375 29.21C139.255 29.29 139.115 29.36 138.955 29.42C138.795 29.48 138.635 29.53 138.475 29.57C138.315 29.59 138.185 29.6 138.085 29.6C137.785 29.6 137.585 29.58 137.485 29.54C137.385 29.5 137.305 29.48 137.245 29.48C136.745 29.48 136.345 29.52 136.045 29.6C135.745 29.68 135.505 29.81 135.325 29.99C135.165 30.17 135.055 30.4 134.995 30.68C134.955 30.94 134.935 31.26 134.935 31.64C134.935 32.28 134.955 32.79 134.995 33.17C135.055 33.55 135.105 33.86 135.145 34.1C135.205 34.34 135.255 34.53 135.295 34.67C135.355 34.79 135.385 34.91 135.385 35.03C135.385 35.19 135.295 35.36 135.115 35.54C134.955 35.72 134.805 35.81 134.665 35.81C134.425 35.81 134.205 35.6 134.005 35.18C133.825 34.74 133.665 34.23 133.525 33.65C133.405 33.05 133.305 32.46 133.225 31.88C133.145 31.3 133.105 30.86 133.105 30.56C133.105 30.22 133.135 29.9 133.195 29.6C133.255 29.28 133.335 29.01 133.435 28.79C133.535 28.55 133.645 28.36 133.765 28.22C133.885 28.08 134.005 28.01 134.125 28.01C134.225 28.01 134.305 28.05 134.365 28.13C134.425 28.19 134.475 28.27 134.515 28.37C134.555 28.45 134.595 28.53 134.635 28.61C134.695 28.67 134.765 28.7 134.845 28.7C135.025 28.7 135.315 28.61 135.715 28.43C136.115 28.25 136.605 28.16 137.185 28.16C137.725 28.16 138.125 28.18 138.385 28.22C138.665 28.24 138.935 28.3 139.195 28.4C139.255 28.42 139.325 28.47 139.405 28.55C139.505 28.61 139.555 28.71 139.555 28.85ZM160.209 27.44C160.209 27.5 160.159 27.76 160.059 28.22C159.959 28.68 159.859 29.2 159.759 29.78C159.699 30.12 159.599 30.63 159.459 31.31C159.339 31.97 159.279 32.98 159.279 34.34C159.279 34.38 159.269 34.49 159.249 34.67C159.249 34.83 159.219 35 159.159 35.18C159.119 35.36 159.049 35.53 158.949 35.69C158.849 35.83 158.699 35.9 158.499 35.9C158.319 35.9 158.119 35.82 157.899 35.66C157.399 35.3 156.939 34.88 156.519 34.4C156.099 33.92 155.739 33.4 155.439 32.84C155.139 32.26 154.909 31.66 154.749 31.04C154.589 30.42 154.509 29.79 154.509 29.15C154.509 29.07 154.559 29 154.659 28.94C154.779 28.86 154.869 28.82 154.929 28.82C155.229 28.82 155.459 28.99 155.619 29.33C155.799 29.67 155.969 30.08 156.129 30.56C156.309 31.04 156.509 31.55 156.729 32.09C156.969 32.61 157.319 33.06 157.779 33.44C157.839 33.36 157.889 33.21 157.929 32.99C157.969 32.77 157.999 32.58 158.019 32.42C158.039 32.28 158.069 32.01 158.109 31.61C158.149 31.19 158.189 30.75 158.229 30.29C158.289 29.83 158.329 29.39 158.349 28.97C158.389 28.55 158.409 28.26 158.409 28.1C158.409 27.98 158.419 27.84 158.439 27.68C158.459 27.52 158.499 27.37 158.559 27.23C158.639 27.09 158.739 26.97 158.859 26.87C158.979 26.77 159.139 26.72 159.339 26.72C159.439 26.72 159.609 26.79 159.849 26.93C160.089 27.05 160.209 27.22 160.209 27.44ZM168.226 31.52C168.226 31.96 168.166 32.38 168.046 32.78C167.926 33.18 167.766 33.53 167.566 33.83C167.366 34.13 167.126 34.37 166.846 34.55C166.586 34.71 166.296 34.79 165.976 34.79C165.416 34.79 164.976 34.63 164.656 34.31C164.336 33.99 164.086 33.62 163.906 33.2C163.746 32.78 163.636 32.36 163.576 31.94C163.536 31.5 163.516 31.17 163.516 30.95C163.516 30.59 163.566 30.19 163.666 29.75C163.786 29.29 163.936 28.87 164.116 28.49C164.316 28.11 164.536 27.79 164.776 27.53C165.016 27.27 165.266 27.14 165.526 27.14C165.586 27.14 165.676 27.16 165.796 27.2C165.936 27.24 166.076 27.3 166.216 27.38C166.356 27.46 166.476 27.56 166.576 27.68C166.696 27.8 166.776 27.94 166.816 28.1C167.036 28.12 167.256 28.2 167.476 28.34C167.696 28.48 167.816 28.59 167.836 28.67C167.996 29.19 168.096 29.71 168.136 30.23C168.196 30.75 168.226 31.18 168.226 31.52ZM166.876 30.98C166.876 30.68 166.846 30.37 166.786 30.05C166.726 29.71 166.606 29.37 166.426 29.03C166.386 29.05 166.336 29.06 166.276 29.06C166.196 29.06 166.126 29.05 166.066 29.03C166.026 29.01 165.986 29 165.946 29C165.706 29 165.516 29.07 165.376 29.21C165.236 29.33 165.126 29.5 165.046 29.72C164.986 29.92 164.946 30.14 164.926 30.38C164.906 30.62 164.896 30.85 164.896 31.07C164.896 31.29 164.906 31.54 164.926 31.82C164.946 32.08 164.986 32.33 165.046 32.57C165.126 32.81 165.226 33.02 165.346 33.2C165.466 33.36 165.626 33.44 165.826 33.44C166.026 33.44 166.196 33.34 166.336 33.14C166.476 32.92 166.586 32.67 166.666 32.39C166.746 32.11 166.796 31.84 166.816 31.58C166.856 31.3 166.876 31.1 166.876 30.98ZM179.214 24.44C178.954 24.74 178.584 25.04 178.104 25.34C177.624 25.62 177.144 25.88 176.664 26.12C176.184 26.36 175.764 26.57 175.404 26.75C175.044 26.91 174.864 27.02 174.864 27.08C174.864 27.14 174.904 27.32 174.984 27.62C175.064 27.92 175.154 28.28 175.254 28.7C175.374 29.1 175.494 29.52 175.614 29.96C175.734 30.4 175.834 30.79 175.914 31.13C175.954 31.33 176.004 31.59 176.064 31.91C176.124 32.23 176.174 32.55 176.214 32.87C176.274 33.19 176.324 33.48 176.364 33.74C176.404 33.98 176.424 34.11 176.424 34.13C176.424 34.43 176.374 34.74 176.274 35.06C176.174 35.38 176.014 35.54 175.794 35.54C175.674 35.54 175.564 35.49 175.464 35.39C175.364 35.29 175.274 35.18 175.194 35.06C175.114 34.92 175.054 34.79 175.014 34.67C174.974 34.55 174.954 34.46 174.954 34.4C174.954 34.36 174.954 34.3 174.954 34.22C174.974 34.14 174.984 34.05 174.984 33.95C174.984 33.57 174.924 33.02 174.804 32.3C174.764 32.08 174.684 31.74 174.564 31.28C174.444 30.82 174.324 30.35 174.204 29.87C174.064 29.31 173.904 28.7 173.724 28.04C173.644 27.76 173.594 27.62 173.574 27.62C173.434 27.62 173.194 27.71 172.854 27.89C172.534 28.05 172.164 28.26 171.744 28.52C171.324 28.76 170.884 29.03 170.424 29.33C169.964 29.61 169.534 29.88 169.134 30.14C168.734 30.38 168.394 30.59 168.114 30.77C167.814 30.93 167.634 31.01 167.574 31.01C167.314 31.01 167.104 30.92 166.944 30.74C166.784 30.56 166.704 30.36 166.704 30.14C166.704 30.02 166.874 29.85 167.214 29.63C167.534 29.39 167.944 29.13 168.444 28.85C168.924 28.57 169.454 28.28 170.034 27.98C170.594 27.68 171.114 27.41 171.594 27.17C172.094 26.93 172.504 26.73 172.824 26.57C173.164 26.41 173.334 26.33 173.334 26.33C173.154 25.41 173.004 24.59 172.884 23.87C172.784 23.25 172.684 22.68 172.584 22.16C172.504 21.64 172.464 21.36 172.464 21.32C172.464 21.06 172.514 20.87 172.614 20.75C172.734 20.61 172.864 20.54 173.004 20.54C173.224 20.54 173.364 20.69 173.424 20.99C173.644 22.07 173.844 23.03 174.024 23.87C174.224 24.71 174.414 25.39 174.594 25.91C174.774 25.87 175.084 25.76 175.524 25.58C175.964 25.38 176.424 25.17 176.904 24.95C177.384 24.73 177.814 24.54 178.194 24.38C178.594 24.2 178.824 24.11 178.884 24.11C179.004 24.11 179.074 24.15 179.094 24.23C179.134 24.31 179.174 24.38 179.214 24.44ZM189.185 34.85C189.205 34.89 189.215 34.95 189.215 35.03C189.215 35.15 189.125 35.33 188.945 35.57C188.885 35.65 188.755 35.78 188.555 35.96C188.355 36.14 188.085 36.32 187.745 36.5C187.405 36.68 186.985 36.84 186.485 36.98C186.005 37.12 185.435 37.19 184.775 37.19C184.315 37.19 183.865 37.09 183.425 36.89C182.985 36.67 182.595 36.36 182.255 35.96C181.915 35.54 181.635 35.03 181.415 34.43C181.195 33.81 181.085 33.09 181.085 32.27C181.085 31.49 181.185 30.76 181.385 30.08C181.585 29.4 181.835 28.8 182.135 28.28C182.455 27.76 182.805 27.35 183.185 27.05C183.565 26.75 183.935 26.6 184.295 26.6C184.615 26.6 184.935 26.67 185.255 26.81C185.595 26.93 185.895 27.09 186.155 27.29C186.435 27.49 186.655 27.72 186.815 27.98C186.975 28.22 187.055 28.47 187.055 28.73C187.055 29.03 186.915 29.34 186.635 29.66C186.375 29.98 186.055 30.28 185.675 30.56C185.295 30.82 184.915 31.04 184.535 31.22C184.155 31.38 183.855 31.46 183.635 31.46C183.515 31.46 183.405 31.41 183.305 31.31C183.225 31.19 183.185 31.05 183.185 30.89C183.185 30.61 183.305 30.39 183.545 30.23C183.805 30.07 184.085 29.93 184.385 29.81C184.685 29.67 184.955 29.51 185.195 29.33C185.455 29.15 185.585 28.9 185.585 28.58C185.585 28.54 185.535 28.44 185.435 28.28C185.335 28.12 185.065 28.04 184.625 28.04C184.425 28.04 184.195 28.16 183.935 28.4C183.675 28.62 183.425 28.93 183.185 29.33C182.945 29.71 182.745 30.17 182.585 30.71C182.425 31.23 182.345 31.8 182.345 32.42C182.345 32.94 182.435 33.41 182.615 33.83C182.815 34.25 183.065 34.61 183.365 34.91C183.665 35.19 184.015 35.41 184.415 35.57C184.815 35.73 185.225 35.81 185.645 35.81C185.945 35.81 186.265 35.75 186.605 35.63C186.965 35.49 187.295 35.35 187.595 35.21C187.915 35.05 188.185 34.91 188.405 34.79C188.645 34.65 188.795 34.58 188.855 34.58C188.915 34.58 188.975 34.61 189.035 34.67C189.115 34.73 189.165 34.79 189.185 34.85ZM198.384 28.85C198.384 28.99 198.324 29.11 198.204 29.21C198.084 29.29 197.944 29.36 197.784 29.42C197.624 29.48 197.464 29.53 197.304 29.57C197.144 29.59 197.014 29.6 196.914 29.6C196.614 29.6 196.414 29.58 196.314 29.54C196.214 29.5 196.134 29.48 196.074 29.48C195.574 29.48 195.174 29.52 194.874 29.6C194.574 29.68 194.334 29.81 194.154 29.99C193.994 30.17 193.884 30.4 193.824 30.68C193.784 30.94 193.764 31.26 193.764 31.64C193.764 32.28 193.784 32.79 193.824 33.17C193.884 33.55 193.934 33.86 193.974 34.1C194.034 34.34 194.084 34.53 194.124 34.67C194.184 34.79 194.214 34.91 194.214 35.03C194.214 35.19 194.124 35.36 193.944 35.54C193.784 35.72 193.634 35.81 193.494 35.81C193.254 35.81 193.034 35.6 192.834 35.18C192.654 34.74 192.494 34.23 192.354 33.65C192.234 33.05 192.134 32.46 192.054 31.88C191.974 31.3 191.934 30.86 191.934 30.56C191.934 30.22 191.964 29.9 192.024 29.6C192.084 29.28 192.164 29.01 192.264 28.79C192.364 28.55 192.474 28.36 192.594 28.22C192.714 28.08 192.834 28.01 192.954 28.01C193.054 28.01 193.134 28.05 193.194 28.13C193.254 28.19 193.304 28.27 193.344 28.37C193.384 28.45 193.424 28.53 193.464 28.61C193.524 28.67 193.594 28.7 193.674 28.7C193.854 28.7 194.144 28.61 194.544 28.43C194.944 28.25 195.434 28.16 196.014 28.16C196.554 28.16 196.954 28.18 197.214 28.22C197.494 28.24 197.764 28.3 198.024 28.4C198.084 28.42 198.154 28.47 198.234 28.55C198.334 28.61 198.384 28.71 198.384 28.85ZM216.518 23.51C216.518 23.69 216.428 24.08 216.248 24.68C216.068 25.28 215.868 25.95 215.648 26.69C215.448 27.41 215.258 28.12 215.078 28.82C214.918 29.52 214.838 30.07 214.838 30.47C214.838 30.89 214.858 31.24 214.898 31.52C214.938 31.78 214.978 32 215.018 32.18C215.078 32.36 215.128 32.52 215.168 32.66C215.208 32.78 215.228 32.93 215.228 33.11C215.228 33.51 215.048 33.71 214.688 33.71C214.628 33.71 214.568 33.67 214.508 33.59C214.068 32.95 213.798 32.32 213.698 31.7C213.618 31.08 213.578 30.6 213.578 30.26C213.578 29.84 213.638 29.3 213.758 28.64C213.878 27.96 214.028 27.25 214.208 26.51C214.388 25.75 214.588 25 214.808 24.26C215.048 23.5 215.278 22.84 215.498 22.28C215.538 22.24 215.588 22.2 215.648 22.16C215.708 22.12 215.788 22.1 215.888 22.1C216.028 22.1 216.138 22.16 216.218 22.28C216.298 22.38 216.358 22.51 216.398 22.67C216.438 22.81 216.468 22.96 216.488 23.12C216.508 23.28 216.518 23.41 216.518 23.51ZM217.508 36.98C217.508 37.2 217.438 37.43 217.298 37.67C217.178 37.89 217.018 38 216.818 38C216.558 38 216.308 37.87 216.068 37.61C215.848 37.35 215.738 37.05 215.738 36.71C215.738 36.59 215.758 36.44 215.798 36.26C215.858 36.06 215.988 35.96 216.188 35.96C216.268 35.96 216.378 35.97 216.518 35.99C216.658 36.01 216.798 36.06 216.938 36.14C217.098 36.2 217.228 36.3 217.328 36.44C217.448 36.58 217.508 36.76 217.508 36.98Z" fill="#AD4B4C"/>
</svg>
