<svg width="107" height="19" viewBox="0 0 107 19" fill="none" xmlns="http://www.w3.org/2000/svg">
<path d="M6.92 10.324C6.94933 10.5147 6.964 10.6687 6.964 10.786C6.97867 10.9033 6.986 11.0207 6.986 11.138C6.986 11.5047 6.93467 11.9373 6.832 12.436C6.744 12.9347 6.58267 13.4113 6.348 13.866C6.128 14.306 5.82733 14.6873 5.446 15.01C5.07933 15.318 4.61 15.472 4.038 15.472C3.51 15.472 3.01133 15.3253 2.542 15.032C2.07267 14.724 1.65467 14.3353 1.288 13.866C0.921333 13.382 0.628 12.8467 0.408 12.26C0.202667 11.6587 0.1 11.0647 0.1 10.478C0.1 9.62733 0.151333 8.90133 0.254 8.3C0.371333 7.684 0.532667 7.14867 0.738 6.694C0.738 6.65 0.708667 6.606 0.65 6.562C0.606 6.518 0.584 6.45933 0.584 6.386C0.584 6.31267 0.65 6.21733 0.782 6.1C0.928667 5.98267 1.09733 5.87267 1.288 5.77C1.49333 5.65267 1.69133 5.55733 1.882 5.484C2.08733 5.396 2.24133 5.352 2.344 5.352C2.40267 5.352 2.498 5.38133 2.63 5.44C2.77667 5.49867 2.96 5.528 3.18 5.528C3.25333 5.528 3.32667 5.52067 3.4 5.506C3.47333 5.49133 3.554 5.484 3.642 5.484C3.95 5.484 4.28 5.63067 4.632 5.924C4.99867 6.20267 5.336 6.56933 5.644 7.024C5.96667 7.47867 6.238 7.99933 6.458 8.586C6.69267 9.158 6.84667 9.73733 6.92 10.324ZM6.04 11.182C6.04 10.9033 5.98133 10.5073 5.864 9.994C5.74667 9.466 5.57067 8.95267 5.336 8.454C5.10133 7.94067 4.81533 7.49333 4.478 7.112C4.15533 6.73067 3.78867 6.54 3.378 6.54C3.34867 6.54 3.29 6.54 3.202 6.54C3.12867 6.52533 3.04067 6.518 2.938 6.518C2.83533 6.50333 2.74 6.496 2.652 6.496C2.564 6.48133 2.51267 6.474 2.498 6.474C2.26333 6.474 2.058 6.584 1.882 6.804C1.72067 7.024 1.58133 7.31 1.464 7.662C1.36133 8.014 1.28067 8.41733 1.222 8.872C1.16333 9.32667 1.134 9.78133 1.134 10.236C1.134 10.3973 1.178 10.7127 1.266 11.182C1.354 11.6367 1.508 12.1133 1.728 12.612C1.96267 13.096 2.27067 13.5287 2.652 13.91C3.03333 14.2913 3.51733 14.482 4.104 14.482C4.5 14.482 4.82267 14.3647 5.072 14.13C5.32133 13.8807 5.512 13.58 5.644 13.228C5.79067 12.876 5.89333 12.5167 5.952 12.15C6.01067 11.7687 6.04 11.446 6.04 11.182ZM15.991 12.348C15.991 12.48 15.903 12.6193 15.727 12.766C15.551 12.9127 15.3457 13.052 15.111 13.184C14.8764 13.3013 14.6344 13.404 14.385 13.492C14.1504 13.58 13.9744 13.624 13.857 13.624C13.725 13.624 13.5784 13.5873 13.417 13.514C13.2704 13.4407 13.1237 13.3527 12.977 13.25C12.845 13.1473 12.7277 13.052 12.625 12.964C12.5224 12.876 12.4564 12.8173 12.427 12.788C12.383 12.832 12.317 12.92 12.229 13.052C12.141 13.184 12.031 13.3307 11.899 13.492C11.7817 13.6387 11.6497 13.7707 11.503 13.888C11.371 14.0053 11.2317 14.064 11.085 14.064C10.7037 14.064 10.3737 13.8587 10.095 13.448C9.81638 13.0373 9.58171 12.568 9.39105 12.04C9.21505 11.512 9.07571 11.006 8.97305 10.522C8.88505 10.0233 8.84105 9.686 8.84105 9.51C8.84105 9.40733 8.89238 9.32667 8.99505 9.268C9.11238 9.19467 9.20038 9.158 9.25905 9.158C9.46438 9.158 9.60371 9.23133 9.67705 9.378C9.75038 9.51 9.78705 9.65667 9.78705 9.818C9.78705 9.95 9.82371 10.1847 9.89705 10.522C9.98505 10.8593 10.0877 11.204 10.205 11.556C10.3224 11.908 10.447 12.2233 10.579 12.502C10.711 12.766 10.8284 12.898 10.931 12.898C11.1217 12.898 11.283 12.7807 11.415 12.546C11.5617 12.2967 11.679 12.018 11.767 11.71C11.855 11.3873 11.921 11.0867 11.965 10.808C12.009 10.5147 12.031 10.324 12.031 10.236C12.031 10.2213 12.031 10.1773 12.031 10.104C12.0457 10.016 12.0604 9.928 12.075 9.84C12.0897 9.752 12.097 9.67133 12.097 9.598C12.1117 9.52467 12.119 9.47333 12.119 9.444C12.119 9.34133 12.097 9.27533 12.053 9.246C12.009 9.202 11.987 9.12133 11.987 9.004C11.987 8.916 12.031 8.83533 12.119 8.762C12.207 8.674 12.3977 8.63 12.691 8.63C12.8084 8.63 12.8964 8.66667 12.955 8.74C13.0284 8.79867 13.0797 8.872 13.109 8.96C13.1384 9.048 13.153 9.136 13.153 9.224C13.1677 9.29733 13.175 9.34867 13.175 9.378C13.175 9.39267 13.1677 9.49533 13.153 9.686C13.1384 9.87667 13.1237 10.0893 13.109 10.324C13.109 10.544 13.1017 10.7567 13.087 10.962C13.0724 11.1673 13.065 11.292 13.065 11.336C13.065 11.38 13.087 11.468 13.131 11.6C13.175 11.732 13.2264 11.8713 13.285 12.018C13.3584 12.15 13.439 12.2747 13.527 12.392C13.615 12.4947 13.7104 12.546 13.813 12.546C13.989 12.546 14.1504 12.524 14.297 12.48C14.4584 12.4213 14.605 12.3627 14.737 12.304C14.8837 12.2307 15.0157 12.172 15.133 12.128C15.2504 12.0693 15.3604 12.04 15.463 12.04C15.595 12.04 15.7124 12.0693 15.815 12.128C15.9324 12.1867 15.991 12.26 15.991 12.348ZM8.20305 3.944C8.24705 3.9 8.29838 3.878 8.35705 3.878C8.43038 3.878 8.51838 3.90733 8.62105 3.966C8.73838 4.01 8.84838 4.06867 8.95105 4.142C9.05371 4.21533 9.20771 4.362 9.41305 4.582C9.61838 4.78733 9.82371 5.01467 10.029 5.264C10.2344 5.49867 10.425 5.71867 10.601 5.924C10.777 6.12933 10.8944 6.254 10.953 6.298C10.9677 6.31267 11.0044 6.32733 11.063 6.342C11.1217 6.35667 11.1877 6.37867 11.261 6.408C11.3344 6.42267 11.4004 6.44467 11.459 6.474C11.5177 6.50333 11.547 6.54 11.547 6.584C11.547 6.70133 11.4664 6.84067 11.305 7.002C11.1584 7.16333 11.0337 7.244 10.931 7.244C10.843 7.244 10.7037 7.19267 10.513 7.09C10.3077 6.98733 10.073 6.79667 9.80905 6.518C9.54505 6.22467 9.28838 5.91667 9.03905 5.594C8.80438 5.27133 8.59905 4.96333 8.42305 4.67C8.26171 4.362 8.18105 4.142 8.18105 4.01C8.18105 3.99533 8.18105 3.988 8.18105 3.988C8.19571 3.97333 8.20305 3.95867 8.20305 3.944ZM32.0995 13.69C32.1142 13.7193 32.1215 13.7633 32.1215 13.822C32.1215 13.91 32.0555 14.042 31.9235 14.218C31.8795 14.2767 31.7842 14.372 31.6375 14.504C31.4908 14.636 31.2928 14.768 31.0435 14.9C30.7942 15.032 30.4862 15.1493 30.1195 15.252C29.7675 15.3547 29.3495 15.406 28.8655 15.406C28.5282 15.406 28.1982 15.3327 27.8755 15.186C27.5528 15.0247 27.2668 14.7973 27.0175 14.504C26.7682 14.196 26.5628 13.822 26.4015 13.382C26.2402 12.9273 26.1595 12.3993 26.1595 11.798C26.1595 11.226 26.2328 10.6907 26.3795 10.192C26.5262 9.69333 26.7095 9.25333 26.9295 8.872C27.1642 8.49067 27.4208 8.19 27.6995 7.97C27.9782 7.75 28.2495 7.64 28.5135 7.64C28.7482 7.64 28.9828 7.69133 29.2175 7.794C29.4668 7.882 29.6868 7.99933 29.8775 8.146C30.0828 8.29267 30.2442 8.46133 30.3615 8.652C30.4788 8.828 30.5375 9.01133 30.5375 9.202C30.5375 9.422 30.4348 9.64933 30.2295 9.884C30.0388 10.1187 29.8042 10.3387 29.5255 10.544C29.2468 10.7347 28.9682 10.896 28.6895 11.028C28.4108 11.1453 28.1908 11.204 28.0295 11.204C27.9415 11.204 27.8608 11.1673 27.7875 11.094C27.7288 11.006 27.6995 10.9033 27.6995 10.786C27.6995 10.5807 27.7875 10.4193 27.9635 10.302C28.1542 10.1847 28.3595 10.082 28.5795 9.994C28.7995 9.89133 28.9975 9.774 29.1735 9.642C29.3642 9.51 29.4595 9.32667 29.4595 9.092C29.4595 9.06267 29.4228 8.98933 29.3495 8.872C29.2762 8.75467 29.0782 8.696 28.7555 8.696C28.6088 8.696 28.4402 8.784 28.2495 8.96C28.0588 9.12133 27.8755 9.34867 27.6995 9.642C27.5235 9.92067 27.3768 10.258 27.2595 10.654C27.1422 11.0353 27.0835 11.4533 27.0835 11.908C27.0835 12.2893 27.1495 12.634 27.2815 12.942C27.4282 13.25 27.6115 13.514 27.8315 13.734C28.0515 13.9393 28.3082 14.1007 28.6015 14.218C28.8948 14.3353 29.1955 14.394 29.5035 14.394C29.7235 14.394 29.9582 14.35 30.2075 14.262C30.4715 14.1593 30.7135 14.0567 30.9335 13.954C31.1682 13.8367 31.3662 13.734 31.5275 13.646C31.7035 13.5433 31.8135 13.492 31.8575 13.492C31.9015 13.492 31.9455 13.514 31.9895 13.558C32.0482 13.602 32.0848 13.646 32.0995 13.69ZM39.4834 6.056C39.2928 6.276 39.0214 6.496 38.6694 6.716C38.3174 6.92133 37.9654 7.112 37.6134 7.288C37.2614 7.464 36.9534 7.618 36.6894 7.75C36.4254 7.86733 36.2934 7.948 36.2934 7.992C36.2934 8.036 36.3228 8.168 36.3814 8.388C36.4401 8.608 36.5061 8.872 36.5794 9.18C36.6674 9.47333 36.7554 9.78133 36.8434 10.104C36.9314 10.4267 37.0048 10.7127 37.0634 10.962C37.0928 11.1087 37.1294 11.2993 37.1734 11.534C37.2174 11.7687 37.2541 12.0033 37.2834 12.238C37.3274 12.4727 37.3641 12.6853 37.3934 12.876C37.4228 13.052 37.4374 13.1473 37.4374 13.162C37.4374 13.382 37.4008 13.6093 37.3274 13.844C37.2541 14.0787 37.1368 14.196 36.9754 14.196C36.8874 14.196 36.8068 14.1593 36.7334 14.086C36.6601 14.0127 36.5941 13.932 36.5354 13.844C36.4768 13.7413 36.4328 13.646 36.4034 13.558C36.3741 13.47 36.3594 13.404 36.3594 13.36C36.3594 13.3307 36.3594 13.2867 36.3594 13.228C36.3741 13.1693 36.3814 13.1033 36.3814 13.03C36.3814 12.7513 36.3374 12.348 36.2494 11.82C36.2201 11.6587 36.1614 11.4093 36.0734 11.072C35.9854 10.7347 35.8974 10.39 35.8094 10.038C35.7068 9.62733 35.5894 9.18 35.4574 8.696C35.3988 8.49067 35.3621 8.388 35.3474 8.388C35.2448 8.388 35.0688 8.454 34.8194 8.586C34.5848 8.70333 34.3134 8.85733 34.0054 9.048C33.6974 9.224 33.3748 9.422 33.0374 9.642C32.7001 9.84733 32.3848 10.0453 32.0914 10.236C31.7981 10.412 31.5488 10.566 31.3434 10.698C31.1234 10.8153 30.9914 10.874 30.9474 10.874C30.7568 10.874 30.6028 10.808 30.4854 10.676C30.3681 10.544 30.3094 10.3973 30.3094 10.236C30.3094 10.148 30.4341 10.0233 30.6834 9.862C30.9181 9.686 31.2188 9.49533 31.5854 9.29C31.9374 9.08467 32.3261 8.872 32.7514 8.652C33.1621 8.432 33.5434 8.234 33.8954 8.058C34.2621 7.882 34.5628 7.73533 34.7974 7.618C35.0468 7.50067 35.1714 7.442 35.1714 7.442C35.0394 6.76733 34.9294 6.166 34.8414 5.638C34.7681 5.18333 34.6948 4.76533 34.6214 4.384C34.5628 4.00267 34.5334 3.79733 34.5334 3.768C34.5334 3.57733 34.5701 3.438 34.6434 3.35C34.7314 3.24733 34.8268 3.196 34.9294 3.196C35.0908 3.196 35.1934 3.306 35.2374 3.526C35.3988 4.318 35.5454 5.022 35.6774 5.638C35.8241 6.254 35.9634 6.75267 36.0954 7.134C36.2274 7.10467 36.4548 7.024 36.7774 6.892C37.1001 6.74533 37.4374 6.59133 37.7894 6.43C38.1414 6.26867 38.4568 6.12933 38.7354 6.012C39.0288 5.88 39.1974 5.814 39.2414 5.814C39.3294 5.814 39.3808 5.84333 39.3954 5.902C39.4248 5.96067 39.4541 6.012 39.4834 6.056ZM54.9802 18.046C54.9802 18.09 54.9729 18.1633 54.9582 18.266C54.9435 18.3687 54.9142 18.464 54.8702 18.552C54.8409 18.6547 54.7895 18.7427 54.7162 18.816C54.6429 18.904 54.5475 18.948 54.4302 18.948C54.0929 18.948 53.8729 18.8453 53.7702 18.64C53.6675 18.4347 53.6162 18.2073 53.6162 17.958C53.6162 17.8993 53.6015 17.804 53.5722 17.672C53.5429 17.54 53.5135 17.3933 53.4842 17.232C53.4549 17.0707 53.4255 16.9093 53.3962 16.748C53.3669 16.5867 53.3522 16.4473 53.3522 16.33C53.3522 16.11 53.3375 15.8607 53.3082 15.582C53.2935 15.3033 53.2642 15.0247 53.2202 14.746C53.1909 14.4527 53.1542 14.174 53.1102 13.91C53.0809 13.646 53.0515 13.4113 53.0222 13.206L52.9562 13.14C52.7949 13.2427 52.6482 13.3673 52.5162 13.514C52.3989 13.6607 52.2742 13.8 52.1422 13.932C52.0249 14.064 51.8929 14.174 51.7462 14.262C51.6142 14.35 51.4529 14.394 51.2622 14.394C50.9982 14.394 50.7635 14.306 50.5582 14.13C50.3529 13.9393 50.1842 13.7193 50.0522 13.47C49.9202 13.2207 49.8175 12.9713 49.7442 12.722C49.6855 12.458 49.6562 12.2527 49.6562 12.106C49.6562 11.7833 49.7222 11.4167 49.8542 11.006C50.0009 10.5953 50.1989 10.214 50.4482 9.862C50.6975 9.49533 50.9909 9.18733 51.3282 8.938C51.6802 8.68867 52.0689 8.564 52.4942 8.564C52.6555 8.564 52.8022 8.608 52.9342 8.696C53.0662 8.784 53.1835 8.894 53.2862 9.026C53.4035 9.14333 53.4989 9.268 53.5722 9.4C53.6602 9.532 53.7335 9.63467 53.7922 9.708C53.9535 9.89867 54.0782 10.0673 54.1662 10.214C54.2542 10.346 54.2982 10.5147 54.2982 10.72C54.2982 10.764 54.2762 10.896 54.2322 11.116C54.1882 11.336 54.1662 11.5193 54.1662 11.666C54.1662 12.2673 54.1809 12.8833 54.2102 13.514C54.2542 14.13 54.3055 14.7093 54.3642 15.252C54.4229 15.78 54.4815 16.242 54.5402 16.638C54.5989 17.034 54.6429 17.3053 54.6722 17.452C54.7015 17.5693 54.7602 17.6427 54.8482 17.672C54.9362 17.716 54.9802 17.8407 54.9802 18.046ZM53.0662 10.654C53.0515 10.5073 52.9929 10.324 52.8902 10.104C52.8022 9.884 52.6115 9.774 52.3182 9.774C52.0689 9.774 51.8415 9.884 51.6362 10.104C51.4309 10.3093 51.2549 10.5587 51.1082 10.852C50.9615 11.1307 50.8515 11.4093 50.7782 11.688C50.7049 11.952 50.6682 12.15 50.6682 12.282C50.6682 12.3113 50.6755 12.3773 50.6902 12.48C50.7195 12.5827 50.7489 12.6927 50.7782 12.81C50.8222 12.9273 50.8735 13.03 50.9322 13.118C50.9909 13.206 51.0569 13.25 51.1302 13.25C51.3062 13.25 51.5042 13.1327 51.7242 12.898C51.9442 12.6487 52.1495 12.37 52.3402 12.062C52.5455 11.754 52.7142 11.4607 52.8462 11.182C52.9929 10.9033 53.0662 10.7273 53.0662 10.654ZM63.5145 12.348C63.5145 12.48 63.4265 12.6193 63.2505 12.766C63.0745 12.9127 62.8691 13.052 62.6345 13.184C62.3998 13.3013 62.1578 13.404 61.9085 13.492C61.6738 13.58 61.4978 13.624 61.3805 13.624C61.2485 13.624 61.1018 13.5873 60.9405 13.514C60.7938 13.4407 60.6471 13.3527 60.5005 13.25C60.3685 13.1473 60.2511 13.052 60.1485 12.964C60.0458 12.876 59.9798 12.8173 59.9505 12.788C59.9065 12.832 59.8405 12.92 59.7525 13.052C59.6645 13.184 59.5545 13.3307 59.4225 13.492C59.3051 13.6387 59.1731 13.7707 59.0265 13.888C58.8945 14.0053 58.7551 14.064 58.6085 14.064C58.2271 14.064 57.8971 13.8587 57.6185 13.448C57.3398 13.0373 57.1051 12.568 56.9145 12.04C56.7385 11.512 56.5991 11.006 56.4965 10.522C56.4085 10.0233 56.3645 9.686 56.3645 9.51C56.3645 9.40733 56.4158 9.32667 56.5185 9.268C56.6358 9.19467 56.7238 9.158 56.7825 9.158C56.9878 9.158 57.1271 9.23133 57.2005 9.378C57.2738 9.51 57.3105 9.65667 57.3105 9.818C57.3105 9.95 57.3471 10.1847 57.4205 10.522C57.5085 10.8593 57.6111 11.204 57.7285 11.556C57.8458 11.908 57.9705 12.2233 58.1025 12.502C58.2345 12.766 58.3518 12.898 58.4545 12.898C58.6451 12.898 58.8065 12.7807 58.9385 12.546C59.0851 12.2967 59.2025 12.018 59.2905 11.71C59.3785 11.3873 59.4445 11.0867 59.4885 10.808C59.5325 10.5147 59.5545 10.324 59.5545 10.236C59.5545 10.2213 59.5545 10.1773 59.5545 10.104C59.5691 10.016 59.5838 9.928 59.5985 9.84C59.6131 9.752 59.6205 9.67133 59.6205 9.598C59.6351 9.52467 59.6425 9.47333 59.6425 9.444C59.6425 9.34133 59.6205 9.27533 59.5765 9.246C59.5325 9.202 59.5105 9.12133 59.5105 9.004C59.5105 8.916 59.5545 8.83533 59.6425 8.762C59.7305 8.674 59.9211 8.63 60.2145 8.63C60.3318 8.63 60.4198 8.66667 60.4785 8.74C60.5518 8.79867 60.6031 8.872 60.6325 8.96C60.6618 9.048 60.6765 9.136 60.6765 9.224C60.6911 9.29733 60.6985 9.34867 60.6985 9.378C60.6985 9.39267 60.6911 9.49533 60.6765 9.686C60.6618 9.87667 60.6471 10.0893 60.6325 10.324C60.6325 10.544 60.6251 10.7567 60.6105 10.962C60.5958 11.1673 60.5885 11.292 60.5885 11.336C60.5885 11.38 60.6105 11.468 60.6545 11.6C60.6985 11.732 60.7498 11.8713 60.8085 12.018C60.8818 12.15 60.9625 12.2747 61.0505 12.392C61.1385 12.4947 61.2338 12.546 61.3365 12.546C61.5125 12.546 61.6738 12.524 61.8205 12.48C61.9818 12.4213 62.1285 12.3627 62.2605 12.304C62.4071 12.2307 62.5391 12.172 62.6565 12.128C62.7738 12.0693 62.8838 12.04 62.9865 12.04C63.1185 12.04 63.2358 12.0693 63.3385 12.128C63.4558 12.1867 63.5145 12.26 63.5145 12.348ZM74.8476 11.424C74.8476 11.688 74.7229 12.018 74.4736 12.414C74.2389 12.7953 73.9162 13.1693 73.5056 13.536C73.0949 13.9027 72.6182 14.218 72.0756 14.482C71.5329 14.7313 70.9682 14.856 70.3816 14.856C70.1176 14.856 69.8389 14.812 69.5456 14.724C69.2522 14.636 68.9662 14.5113 68.6876 14.35C68.4089 14.174 68.1596 13.9687 67.9396 13.734C67.7196 13.4847 67.5582 13.206 67.4556 12.898C67.3676 12.986 67.2576 13.1327 67.1256 13.338C67.0082 13.5433 66.8762 13.756 66.7296 13.976C66.5829 14.1813 66.4216 14.3647 66.2456 14.526C66.0696 14.6727 65.8862 14.746 65.6956 14.746C65.5049 14.746 65.3436 14.6507 65.2116 14.46C65.0942 14.2547 64.9989 14.0347 64.9256 13.8C64.8522 13.5507 64.8009 13.316 64.7716 13.096C64.7422 12.876 64.7276 12.7513 64.7276 12.722C64.7276 12.546 64.7789 12.216 64.8816 11.732C64.9842 11.2333 65.1382 10.72 65.3436 10.192C65.5489 9.664 65.8056 9.19467 66.1136 8.784C66.4362 8.37333 66.8102 8.168 67.2356 8.168C67.3969 8.168 67.4996 8.24133 67.5436 8.388C67.6022 8.52 67.6316 8.652 67.6316 8.784V9.444C67.7049 9.50267 67.7782 9.54667 67.8516 9.576C67.9396 9.59067 68.0129 9.62 68.0716 9.664C68.1449 9.69333 68.1962 9.74467 68.2256 9.818C68.2696 9.89133 68.2916 10.0087 68.2916 10.17C68.2916 10.2727 68.2842 10.368 68.2696 10.456C68.2549 10.5293 68.2476 10.6027 68.2476 10.676C68.2476 11.0573 68.2769 11.4313 68.3356 11.798C68.3942 12.1647 68.5116 12.4947 68.6876 12.788C68.8636 13.0667 69.1056 13.3013 69.4136 13.492C69.7216 13.668 70.1322 13.756 70.6456 13.756C71.2909 13.756 71.8336 13.624 72.2736 13.36C72.7282 13.0813 73.1022 12.7807 73.3956 12.458C73.7036 12.1207 73.9456 11.82 74.1216 11.556C74.2976 11.2773 74.4442 11.138 74.5616 11.138C74.7522 11.138 74.8476 11.2333 74.8476 11.424ZM67.1256 10.456C67.1256 10.3973 67.1109 10.346 67.0816 10.302C67.0522 10.2433 67.0376 10.192 67.0376 10.148C67.0376 10.0893 67.0522 10.038 67.0816 9.994C67.1109 9.95 67.1256 9.89133 67.1256 9.818C67.1256 9.774 67.1109 9.74467 67.0816 9.73C67.0522 9.70067 67.0376 9.67133 67.0376 9.642C66.9056 9.67133 66.7662 9.796 66.6196 10.016C66.4876 10.236 66.3556 10.4927 66.2236 10.786C66.1062 11.0793 66.0109 11.38 65.9376 11.688C65.8642 11.9813 65.8276 12.2233 65.8276 12.414C65.8276 12.5167 65.8569 12.6853 65.9156 12.92C65.9742 13.1547 66.0402 13.3087 66.1136 13.382C66.3629 12.8687 66.5902 12.37 66.7956 11.886C67.0156 11.402 67.1256 10.9253 67.1256 10.456ZM81.7183 13.294C81.7183 13.382 81.6889 13.47 81.6303 13.558C81.5716 13.646 81.4983 13.7267 81.4103 13.8C81.3369 13.8733 81.2489 13.9393 81.1463 13.998C81.0583 14.042 80.9776 14.064 80.9043 14.064C80.6549 14.064 80.3323 14.0127 79.9363 13.91C79.5549 13.7927 79.2469 13.6167 79.0123 13.382C78.7629 13.1327 78.5429 12.8393 78.3523 12.502C78.1616 12.15 77.9489 11.6367 77.7143 10.962C77.5529 11.6073 77.3623 12.2453 77.1423 12.876C76.9369 13.5067 76.5996 14.086 76.1303 14.614C76.1009 14.6433 76.0569 14.658 75.9983 14.658C75.8956 14.658 75.7856 14.6067 75.6683 14.504C75.5509 14.4013 75.4923 14.2987 75.4923 14.196C75.4923 14.0933 75.4776 13.8587 75.4483 13.492C75.4336 13.1107 75.4116 12.6927 75.3823 12.238C75.3529 11.7687 75.3236 11.2993 75.2943 10.83C75.2796 10.346 75.2723 9.95 75.2723 9.642C75.2723 9.49533 75.2796 9.30467 75.2943 9.07C75.3089 8.82067 75.3529 8.608 75.4263 8.432C75.4409 8.40267 75.4923 8.344 75.5803 8.256C75.6829 8.168 75.7929 8.124 75.9103 8.124C76.0129 8.124 76.0716 8.19 76.0863 8.322C76.1009 8.454 76.1083 8.60067 76.1083 8.762V12.238C76.1083 12.3113 76.1156 12.414 76.1303 12.546C76.1596 12.678 76.1963 12.7733 76.2403 12.832C76.4016 12.48 76.5483 12.0693 76.6803 11.6C76.8269 11.116 76.9663 10.6613 77.0983 10.236C77.2303 9.796 77.3623 9.42933 77.4943 9.136C77.6263 8.828 77.7583 8.674 77.8903 8.674C78.0369 8.674 78.1543 8.70333 78.2423 8.762C78.3303 8.82067 78.4036 8.938 78.4623 9.114C78.5356 9.53933 78.5943 9.92067 78.6383 10.258C78.6823 10.5807 78.7336 10.874 78.7923 11.138C78.8656 11.402 78.9609 11.6513 79.0783 11.886C79.2103 12.106 79.3863 12.3113 79.6063 12.502C79.8116 12.6927 80.0389 12.832 80.2883 12.92C80.5523 13.008 80.7796 13.052 80.9703 13.052C81.0583 13.052 81.1536 13.0373 81.2563 13.008C81.3589 12.964 81.4323 12.942 81.4763 12.942C81.5349 12.942 81.5863 12.9933 81.6303 13.096C81.6889 13.1987 81.7183 13.2647 81.7183 13.294ZM89.0787 12.458C89.0787 12.5313 89.042 12.6047 88.9687 12.678C88.91 12.7367 88.8733 12.8027 88.8587 12.876C88.8587 13.0373 88.888 13.1913 88.9467 13.338C89.02 13.4847 89.0567 13.6607 89.0567 13.866C89.0567 14.0567 88.998 14.152 88.8807 14.152C88.734 14.152 88.624 14.174 88.5507 14.218C88.492 14.2473 88.382 14.2767 88.2207 14.306C88.1327 14.306 88.0373 14.2253 87.9347 14.064C87.876 13.9907 87.8247 13.9027 87.7807 13.8C87.7807 13.7853 87.7367 13.8147 87.6487 13.888C87.5753 13.9613 87.4433 14.0493 87.2527 14.152C87.0767 14.24 86.8273 14.328 86.5047 14.416C86.1967 14.4893 85.8007 14.526 85.3167 14.526C84.906 14.526 84.5467 14.438 84.2387 14.262C83.9307 14.0713 83.674 13.8293 83.4687 13.536C83.278 13.2427 83.1313 12.9127 83.0287 12.546C82.9407 12.1647 82.8967 11.7833 82.8967 11.402C82.8967 11.05 82.9333 10.72 83.0067 10.412C83.0947 10.0893 83.212 9.81067 83.3587 9.576C83.5053 9.32667 83.6887 9.12867 83.9087 8.982C84.1287 8.83533 84.3853 8.762 84.6787 8.762C84.9573 8.762 85.236 8.85 85.5147 9.026C85.7933 9.202 86.0427 9.39267 86.2627 9.598C86.4827 9.80333 86.6587 9.994 86.7907 10.17C86.9373 10.3313 87.0107 10.412 87.0107 10.412C86.8053 9.268 86.622 8.234 86.4607 7.31C86.3873 6.914 86.314 6.52533 86.2407 6.144C86.182 5.748 86.1233 5.396 86.0647 5.088C86.006 4.78 85.9547 4.52333 85.9107 4.318C85.8813 4.098 85.8667 3.966 85.8667 3.922C85.852 3.834 85.8373 3.68 85.8227 3.46C85.808 3.22533 85.7933 2.98333 85.7787 2.734C85.764 2.48467 85.7493 2.25733 85.7347 2.052C85.72 1.84667 85.7053 1.71467 85.6907 1.656C85.6467 1.50933 85.588 1.326 85.5147 1.106C85.456 0.885999 85.4267 0.761333 85.4267 0.732C85.4267 0.658666 85.4633 0.570665 85.5367 0.467999C85.61 0.350666 85.7053 0.291999 85.8227 0.291999C85.9107 0.291999 85.9913 0.299332 86.0647 0.313999C86.138 0.328666 86.204 0.372666 86.2627 0.446C86.3213 0.519333 86.3727 0.636666 86.4167 0.797999C86.4753 0.944665 86.5267 1.15733 86.5707 1.436C86.5853 1.58267 86.6293 1.86133 86.7027 2.272C86.776 2.68267 86.8493 3.13 86.9227 3.614C86.996 4.098 87.0693 4.56 87.1427 5C87.216 5.44 87.2673 5.76267 87.2967 5.968C87.37 6.52533 87.4653 7.134 87.5827 7.794C87.7147 8.43933 87.8467 9.06267 87.9787 9.664C88.1107 10.2653 88.2427 10.8007 88.3747 11.27C88.5067 11.7247 88.624 12.0327 88.7267 12.194C88.756 12.2527 88.8147 12.2967 88.9027 12.326C88.9907 12.3407 89.0493 12.3847 89.0787 12.458ZM87.4507 12.898C87.436 12.854 87.3407 12.6707 87.1647 12.348C87.0033 12.0107 86.7907 11.6513 86.5267 11.27C86.2773 10.874 85.9913 10.522 85.6687 10.214C85.3607 9.906 85.06 9.752 84.7667 9.752C84.5173 9.752 84.312 9.94267 84.1507 10.324C84.004 10.7053 83.9307 11.1453 83.9307 11.644C83.9307 12.2013 84.092 12.6487 84.4147 12.986C84.752 13.3233 85.126 13.492 85.5367 13.492C85.8887 13.492 86.2553 13.4333 86.6367 13.316C87.018 13.1987 87.2893 13.0593 87.4507 12.898ZM106.754 6.496C106.754 6.76 106.644 7.03867 106.424 7.332C106.204 7.61067 105.932 7.904 105.61 8.212C105.287 8.50533 104.935 8.806 104.554 9.114C104.172 9.422 103.82 9.73 103.498 10.038C103.175 10.3313 102.904 10.6173 102.684 10.896C102.464 11.1747 102.354 11.4313 102.354 11.666C102.354 11.8273 102.368 12.0033 102.398 12.194C102.442 12.37 102.5 12.5167 102.574 12.634C102.5 12.766 102.427 12.8687 102.354 12.942C102.28 13.0153 102.185 13.052 102.068 13.052C101.965 13.052 101.87 13.008 101.782 12.92C101.708 12.832 101.642 12.722 101.584 12.59C101.525 12.458 101.474 12.3187 101.43 12.172C101.4 12.0253 101.386 11.8933 101.386 11.776C101.386 11.4387 101.43 11.16 101.518 10.94C101.606 10.7053 101.738 10.4927 101.914 10.302C102.104 10.0967 102.332 9.89133 102.596 9.686C102.86 9.48067 103.168 9.246 103.52 8.982C103.784 8.77667 104.048 8.55667 104.312 8.322C104.59 8.08733 104.832 7.86 105.038 7.64C105.258 7.40533 105.434 7.18533 105.566 6.98C105.712 6.76 105.786 6.562 105.786 6.386C105.786 6.23933 105.72 6.09267 105.588 5.946C105.47 5.79933 105.309 5.67467 105.104 5.572C104.898 5.45467 104.656 5.36667 104.378 5.308C104.099 5.23467 103.806 5.198 103.498 5.198C102.808 5.198 102.266 5.24933 101.87 5.352C101.488 5.45467 101.18 5.506 100.946 5.506C100.828 5.506 100.711 5.47667 100.594 5.418C100.476 5.34467 100.418 5.242 100.418 5.11C100.418 4.934 100.55 4.78733 100.814 4.67C101.078 4.55267 101.378 4.46467 101.716 4.406C102.068 4.34733 102.398 4.31067 102.706 4.296C103.028 4.26667 103.241 4.252 103.344 4.252C103.798 4.252 104.231 4.318 104.642 4.45C105.052 4.582 105.412 4.75067 105.72 4.956C106.042 5.16133 106.292 5.40333 106.468 5.682C106.658 5.946 106.754 6.21733 106.754 6.496ZM103.872 15.868C103.872 16.044 103.784 16.176 103.608 16.264C103.432 16.3667 103.27 16.418 103.124 16.418C102.992 16.418 102.838 16.3447 102.662 16.198C102.486 16.066 102.398 15.934 102.398 15.802C102.398 15.758 102.398 15.6993 102.398 15.626C102.412 15.538 102.434 15.45 102.464 15.362C102.508 15.274 102.559 15.2007 102.618 15.142C102.676 15.0687 102.757 15.032 102.86 15.032C102.904 15.032 102.977 15.0687 103.08 15.142C103.197 15.2007 103.314 15.274 103.432 15.362C103.549 15.45 103.652 15.5453 103.74 15.648C103.828 15.736 103.872 15.8093 103.872 15.868Z" fill="#EC8989"/>
</svg>
