<svg width="241" height="23" viewBox="0 0 241 23" fill="none" xmlns="http://www.w3.org/2000/svg">
<path d="M10.6102 16.66C18.0202 16.66 21.2602 13.96 21.2602 8.62C21.2602 3.75999 18.0202 0.699996 10.6102 0.699997L0.140235 0.699999L0.140239 22L7.64024 22L7.64024 16.66L10.6102 16.66ZM10.6102 10.36L7.64024 10.36L7.64024 7L10.6102 7C12.8302 7 13.4602 7.63 13.4602 8.65C13.4602 9.7 12.8902 10.36 10.6102 10.36ZM32.9345 16.66C33.1445 16.66 33.3545 16.66 33.5645 16.66L35.9645 22L43.6745 22L40.1645 15.22C42.5045 13.9 43.5845 11.71 43.5845 8.61999C43.5845 3.75999 40.3445 0.699992 32.9345 0.699993L22.4645 0.699995L22.4645 22L29.9645 22L29.9645 16.66L32.9345 16.66ZM32.9345 10.36L29.9645 10.36L29.9645 6.99999L32.9345 6.99999C35.1545 6.99999 35.7845 7.62999 35.7845 8.64999C35.7845 9.69999 35.2145 10.36 32.9345 10.36ZM44.2801 11.35C44.2801 18.58 49.5301 22.3 56.1601 22.3C63.3301 22.3 67.9801 18.58 67.9801 11.35C67.9801 4.62999 63.1801 0.399988 56.1601 0.399989C49.5301 0.39999 44.2801 4.53999 44.2801 11.35ZM51.9601 11.35C51.9601 8.85999 53.6401 7.20999 56.1601 7.20999C58.7401 7.20999 60.3301 8.88999 60.3301 11.35C60.3301 13.96 58.7701 15.49 56.1601 15.49C53.6401 15.49 51.9601 13.93 51.9601 11.35ZM91.9595 12.67L84.2495 12.67C84.0395 14.47 82.5695 15.4 80.4695 15.4C78.1295 15.4 76.5695 13.93 76.5695 11.35C76.5695 8.85999 78.1295 7.38999 80.4695 7.38999C82.5395 7.38998 83.9795 8.43998 84.2495 10.06L91.9595 10.06C91.4495 4.20998 87.1295 0.579983 80.4695 0.579984C73.8395 0.579986 68.8895 4.62999 68.8895 11.35C68.8895 18.67 73.8395 22.21 80.4695 22.21C87.2795 22.21 91.4795 19.12 91.9595 12.67ZM107.464 0.69998L107.464 12.49C107.464 14.38 105.814 15.4 104.104 15.4C102.334 15.4 100.774 14.38 100.774 12.49L100.774 0.699981L93.2736 0.699982L93.2736 12.31C93.2736 19.12 97.8636 22.3 104.074 22.3C110.644 22.3 114.964 19.15 114.964 12.31L114.964 0.699979L107.464 0.69998ZM127.183 16.66C127.393 16.66 127.603 16.66 127.813 16.66L130.213 22L137.923 22L134.413 15.22C136.753 13.9 137.833 11.71 137.833 8.61998C137.833 3.75997 134.593 0.699975 127.183 0.699976L116.713 0.699978L116.713 22L124.213 22L124.213 16.66L127.183 16.66ZM127.183 10.36L124.213 10.36L124.213 6.99998L127.183 6.99998C129.403 6.99998 130.033 7.62998 130.033 8.64998C130.033 9.69998 129.463 10.36 127.183 10.36ZM155.199 22L163.149 22L155.919 0.699971L145.689 0.699973L138.459 22L146.439 22L147.399 18.76L154.239 18.76L155.199 22ZM150.819 7.26997L152.649 13.39L148.989 13.39L150.819 7.26997ZM160.768 7.65997L168.208 7.65997L168.208 22L175.708 22L175.708 7.65997L183.148 7.65997L183.148 0.699967L160.768 0.699971L160.768 7.65997ZM192.182 0.699965L184.682 0.699966L184.682 22L192.182 22L192.182 0.699965ZM193.548 11.35C193.548 18.58 198.798 22.3 205.428 22.3C212.598 22.3 217.248 18.58 217.248 11.35C217.248 4.62996 212.448 0.399962 205.428 0.399963C198.798 0.399964 193.548 4.53997 193.548 11.35ZM201.228 11.35C201.228 8.85996 202.908 7.20996 205.428 7.20996C208.008 7.20996 209.598 8.88996 209.598 11.35C209.598 13.96 208.038 15.49 205.428 15.49C202.908 15.49 201.228 13.93 201.228 11.35ZM233.277 0.699958L233.277 11.11L226.227 0.699959L218.607 0.69996L218.607 22L226.107 22L226.107 11.47L233.457 22L240.867 22L240.867 0.699957L233.277 0.699958Z" fill="#AF4E4E"/>
</svg>
