<svg width="292" height="81" viewBox="0 0 292 81" fill="none" xmlns="http://www.w3.org/2000/svg">
<path d="M0.6 8.836C1.344 9.736 2.268 10.24 3.588 10.24C5.088 10.24 6.252 9.292 6.276 7.792C6.276 4.96 2.364 5.392 2.364 3.664C2.364 3.028 2.832 2.584 3.564 2.584C4.248 2.584 4.824 2.98 5.316 3.664L6.336 2.752C5.664 1.912 4.764 1.36 3.552 1.36C2.028 1.36 0.96 2.416 0.96 3.7C0.96 6.508 4.872 6.088 4.872 7.828C4.872 8.536 4.392 9.004 3.564 9.004C2.832 9.004 2.16 8.608 1.608 7.912L0.6 8.836ZM8.68669 2.608C9.14269 2.608 9.52669 2.224 9.52669 1.768C9.52669 1.312 9.14269 0.927999 8.68669 0.927999C8.23069 0.927999 7.84669 1.312 7.84669 1.768C7.84669 2.224 8.23069 2.608 8.68669 2.608ZM8.06269 10H9.29869V3.952H8.06269V10ZM14.9149 7.9C14.9149 9.376 15.6589 10.12 17.0749 10.12C17.5429 10.12 17.8789 10.06 18.1669 9.94V8.848C17.9509 8.932 17.6749 8.98 17.2669 8.98C16.5949 8.98 16.1629 8.716 16.1629 7.9V5.068H18.1669V3.952H16.1629V2.44H14.9149V3.952H13.7749V5.068H14.9149V7.9ZM23.7214 7.408C23.7214 8.452 23.1574 9.076 22.2334 9.076C21.2854 9.076 20.7334 8.452 20.7334 7.408V3.952H19.4854V7.348C19.4854 9.16 20.5294 10.24 22.2334 10.24C23.9254 10.24 24.9694 9.16 24.9694 7.348V3.952H23.7214V7.408ZM30.0822 10H31.3182V5.92C31.6302 5.392 32.1222 4.876 32.9502 4.876C33.8142 4.876 34.3422 5.452 34.3422 6.412V10H35.5902V6.364C35.5902 4.612 34.5702 3.712 33.2382 3.712C32.3742 3.712 31.7742 4.06 31.3182 4.54V3.952H30.0822V10ZM38.0399 4.924L39.3479 1.6H37.9439L36.8999 4.924H38.0399ZM45.5266 9.016L44.6266 8.296C44.2546 8.8 43.6426 9.124 42.9106 9.124C41.7466 9.124 40.9426 8.44 40.8586 7.12H45.3226C45.3706 6.94 45.4066 6.664 45.4066 6.388C45.4066 4.852 44.3266 3.712 42.6586 3.712C40.7386 3.712 39.5866 5.164 39.5866 6.976C39.5866 8.74 40.8226 10.24 42.9106 10.24C44.0386 10.24 44.9626 9.772 45.5266 9.016ZM42.6346 4.744C43.6066 4.744 44.1466 5.44 44.1706 6.196H40.9186C41.1106 5.26 41.7346 4.744 42.6346 4.744ZM46.3572 9.148C46.9212 9.832 47.6772 10.24 48.6972 10.24C49.8252 10.24 50.7852 9.532 50.7972 8.344C50.7972 6.268 47.8332 6.676 47.8332 5.464C47.8332 5.056 48.1212 4.72 48.6972 4.72C49.2012 4.72 49.6212 5.02 49.9452 5.452L50.7852 4.72C50.3532 4.144 49.5732 3.712 48.6852 3.712C47.4732 3.712 46.6332 4.504 46.6332 5.5C46.6332 7.636 49.5972 7.192 49.5972 8.416C49.5972 8.872 49.2732 9.232 48.6852 9.232C48.0852 9.232 47.6052 8.908 47.2092 8.404L46.3572 9.148ZM55.5822 12.952H56.8182V9.376C57.3342 9.928 57.9822 10.24 58.8582 10.24C60.7542 10.24 61.9422 8.74 61.9422 6.976C61.9422 5.212 60.7542 3.712 58.8582 3.712C57.9822 3.712 57.3342 4.024 56.8182 4.576V3.952H55.5822V12.952ZM58.7022 4.876C59.8662 4.876 60.6462 5.788 60.6462 6.976C60.6462 8.164 59.8662 9.076 58.7022 9.076C57.9222 9.076 57.2622 8.716 56.8182 8.044V5.908C57.2502 5.248 57.9102 4.876 58.7022 4.876ZM65.0198 10.18C65.7638 10.18 66.5198 9.844 66.9518 9.316V10H68.1878V6.004C68.1878 4.672 67.2878 3.712 65.6558 3.712C64.5758 3.712 63.7118 4.168 63.1718 4.888L64.0958 5.596C64.4438 5.104 64.9598 4.804 65.6198 4.804C66.3998 4.804 66.9518 5.26 66.9518 6.004V6.316L64.9958 6.64C63.7118 6.856 63.0038 7.516 63.0038 8.428C63.0038 9.496 63.8198 10.18 65.0198 10.18ZM64.2518 8.38C64.2518 7.924 64.5638 7.6 65.3198 7.468L66.9518 7.192V8.236C66.5918 8.812 66.0038 9.172 65.2478 9.172C64.6238 9.172 64.2518 8.848 64.2518 8.38ZM69.5252 9.148C70.0892 9.832 70.8452 10.24 71.8652 10.24C72.9932 10.24 73.9532 9.532 73.9652 8.344C73.9652 6.268 71.0012 6.676 71.0012 5.464C71.0012 5.056 71.2892 4.72 71.8652 4.72C72.3692 4.72 72.7892 5.02 73.1132 5.452L73.9532 4.72C73.5212 4.144 72.7412 3.712 71.8532 3.712C70.6412 3.712 69.8012 4.504 69.8012 5.5C69.8012 7.636 72.7652 7.192 72.7652 8.416C72.7652 8.872 72.4412 9.232 71.8532 9.232C71.2532 9.232 70.7732 8.908 70.3772 8.404L69.5252 9.148ZM78.7502 10H79.9862V0.999999H78.7502V10ZM83.724 2.992H84.924L83.676 0.999999H82.308L83.724 2.992ZM83.676 10.18C84.42 10.18 85.176 9.844 85.608 9.316V10H86.844V6.004C86.844 4.672 85.944 3.712 84.312 3.712C83.232 3.712 82.368 4.168 81.828 4.888L82.752 5.596C83.1 5.104 83.616 4.804 84.276 4.804C85.056 4.804 85.608 5.26 85.608 6.004V6.316L83.652 6.64C82.368 6.856 81.66 7.516 81.66 8.428C81.66 9.496 82.476 10.18 83.676 10.18ZM82.908 8.38C82.908 7.924 83.22 7.6 83.976 7.468L85.608 7.192V8.236C85.248 8.812 84.66 9.172 83.904 9.172C83.28 9.172 82.908 8.848 82.908 8.38ZM92.0158 10H93.2518V0.999999H92.0158V10ZM100.734 9.016L99.8336 8.296C99.4616 8.8 98.8496 9.124 98.1176 9.124C96.9536 9.124 96.1496 8.44 96.0656 7.12H100.53C100.578 6.94 100.614 6.664 100.614 6.388C100.614 4.852 99.5336 3.712 97.8656 3.712C95.9456 3.712 94.7936 5.164 94.7936 6.976C94.7936 8.74 96.0296 10.24 98.1176 10.24C99.2456 10.24 100.17 9.772 100.734 9.016ZM97.8416 4.744C98.8136 4.744 99.3536 5.44 99.3776 6.196H96.1256C96.3176 5.26 96.9416 4.744 97.8416 4.744ZM106.069 2.608C106.525 2.608 106.909 2.224 106.909 1.768C106.909 1.312 106.525 0.927999 106.069 0.927999C105.613 0.927999 105.229 1.312 105.229 1.768C105.229 2.224 105.613 2.608 106.069 2.608ZM106.705 10.732V3.952H105.469V10.732C105.469 11.596 105.037 11.86 104.365 11.86C103.957 11.86 103.669 11.812 103.465 11.728V12.82C103.753 12.94 104.089 13 104.557 13C105.973 13 106.705 12.244 106.705 10.732ZM111.535 3.712C109.579 3.712 108.247 5.188 108.247 6.976C108.247 8.764 109.579 10.24 111.535 10.24C113.503 10.24 114.823 8.764 114.823 6.976C114.823 5.188 113.503 3.712 111.535 3.712ZM111.547 9.076C110.383 9.076 109.543 8.14 109.543 6.976C109.543 5.812 110.383 4.876 111.547 4.876C112.687 4.876 113.527 5.8 113.527 6.976C113.527 8.128 112.687 9.076 111.547 9.076ZM120.471 7.408C120.471 8.452 119.907 9.076 118.983 9.076C118.035 9.076 117.483 8.452 117.483 7.408V3.952H116.235V7.348C116.235 9.16 117.279 10.24 118.983 10.24C120.675 10.24 121.719 9.16 121.719 7.348V3.952H120.471V7.408ZM123.598 10H124.834V5.968C125.146 5.452 125.65 5.044 126.418 5.044C126.67 5.044 126.862 5.08 127.054 5.128V3.916C126.898 3.868 126.718 3.832 126.526 3.832C125.782 3.832 125.254 4.168 124.834 4.636V3.952H123.598V10ZM131.169 6.976C131.169 8.74 132.357 10.24 134.265 10.24C135.129 10.24 135.777 9.928 136.281 9.388V10H137.541V0.999999H136.281V4.564C135.777 4.024 135.129 3.712 134.265 3.712C132.357 3.712 131.169 5.212 131.169 6.976ZM132.477 6.976C132.477 5.788 133.257 4.876 134.421 4.876C135.177 4.876 135.837 5.224 136.281 5.884V8.068C135.873 8.704 135.201 9.076 134.421 9.076C133.257 9.076 132.477 8.164 132.477 6.976ZM143.639 7.408C143.639 8.452 143.075 9.076 142.151 9.076C141.203 9.076 140.651 8.452 140.651 7.408V3.952H139.403V7.348C139.403 9.16 140.447 10.24 142.151 10.24C143.843 10.24 144.887 9.16 144.887 7.348V3.952H143.639V7.408ZM149.112 3.952L151.392 10H153.036L155.328 3.952H153.984L152.22 8.656L150.444 3.952H149.112ZM159.171 3.712C157.215 3.712 155.883 5.188 155.883 6.976C155.883 8.764 157.215 10.24 159.171 10.24C161.139 10.24 162.459 8.764 162.459 6.976C162.459 5.188 161.139 3.712 159.171 3.712ZM159.183 9.076C158.019 9.076 157.179 8.14 157.179 6.976C157.179 5.812 158.019 4.876 159.183 4.876C160.323 4.876 161.163 5.8 161.163 6.976C161.163 8.128 160.323 9.076 159.183 9.076ZM164.282 7.9C164.282 9.376 165.026 10.12 166.442 10.12C166.91 10.12 167.246 10.06 167.534 9.94V8.848C167.318 8.932 167.042 8.98 166.634 8.98C165.962 8.98 165.53 8.716 165.53 7.9V5.068H167.534V3.952H165.53V2.44H164.282V3.952H163.142V5.068H164.282V7.9ZM174.351 9.016L173.451 8.296C173.079 8.8 172.467 9.124 171.735 9.124C170.571 9.124 169.767 8.44 169.683 7.12H174.147C174.195 6.94 174.231 6.664 174.231 6.388C174.231 4.852 173.151 3.712 171.483 3.712C169.563 3.712 168.411 5.164 168.411 6.976C168.411 8.74 169.647 10.24 171.735 10.24C172.863 10.24 173.787 9.772 174.351 9.016ZM171.459 4.744C172.431 4.744 172.971 5.44 172.995 6.196H169.743C169.935 5.26 170.559 4.744 171.459 4.744ZM176.345 11.92L177.653 8.56H176.237L175.193 11.92H176.345ZM182.634 7.9C182.634 9.376 183.378 10.12 184.794 10.12C185.262 10.12 185.598 10.06 185.886 9.94V8.848C185.67 8.932 185.394 8.98 184.986 8.98C184.314 8.98 183.882 8.716 183.882 7.9V5.068H185.886V3.952H183.882V2.44H182.634V3.952H181.494V5.068H182.634V7.9ZM191.44 7.408C191.44 8.452 190.876 9.076 189.952 9.076C189.004 9.076 188.452 8.452 188.452 7.408V3.952H187.204V7.348C187.204 9.16 188.248 10.24 189.952 10.24C191.644 10.24 192.688 9.16 192.688 7.348V3.952H191.44V7.408ZM197.801 12.952H199.037V9.376C199.553 9.928 200.201 10.24 201.077 10.24C202.973 10.24 204.161 8.74 204.161 6.976C204.161 5.212 202.973 3.712 201.077 3.712C200.201 3.712 199.553 4.024 199.037 4.576V3.952H197.801V12.952ZM200.921 4.876C202.085 4.876 202.865 5.788 202.865 6.976C202.865 8.164 202.085 9.076 200.921 9.076C200.141 9.076 199.481 8.716 199.037 8.044V5.908C199.469 5.248 200.129 4.876 200.921 4.876ZM211.218 9.016L210.318 8.296C209.946 8.8 209.334 9.124 208.602 9.124C207.438 9.124 206.634 8.44 206.55 7.12H211.014C211.062 6.94 211.098 6.664 211.098 6.388C211.098 4.852 210.018 3.712 208.35 3.712C206.43 3.712 205.278 5.164 205.278 6.976C205.278 8.74 206.514 10.24 208.602 10.24C209.73 10.24 210.654 9.772 211.218 9.016ZM208.326 4.744C209.298 4.744 209.838 5.44 209.862 6.196H206.61C206.802 5.26 207.426 4.744 208.326 4.744ZM216.741 7.408C216.741 8.452 216.177 9.076 215.253 9.076C214.305 9.076 213.753 8.452 213.753 7.408V3.952H212.505V7.348C212.505 9.16 213.549 10.24 215.253 10.24C216.945 10.24 217.989 9.16 217.989 7.348V3.952H216.741V7.408ZM220.434 10L221.994 7.72L223.566 10H224.982L222.798 6.88L224.85 3.952H223.422L221.994 6.028L220.566 3.952H219.138L221.178 6.88L218.994 10H220.434ZM228.6 3.952L230.88 10H232.524L234.816 3.952H233.472L231.708 8.656L229.932 3.952H228.6ZM238.66 3.712C236.704 3.712 235.372 5.188 235.372 6.976C235.372 8.764 236.704 10.24 238.66 10.24C240.628 10.24 241.948 8.764 241.948 6.976C241.948 5.188 240.628 3.712 238.66 3.712ZM238.672 9.076C237.508 9.076 236.668 8.14 236.668 6.976C236.668 5.812 237.508 4.876 238.672 4.876C239.812 4.876 240.652 5.8 240.652 6.976C240.652 8.128 239.812 9.076 238.672 9.076ZM243.77 7.9C243.77 9.376 244.514 10.12 245.93 10.12C246.398 10.12 246.734 10.06 247.022 9.94V8.848C246.806 8.932 246.53 8.98 246.122 8.98C245.45 8.98 245.018 8.716 245.018 7.9V5.068H247.022V3.952H245.018V2.44H243.77V3.952H242.63V5.068H243.77V7.9ZM253.839 9.016L252.939 8.296C252.567 8.8 251.955 9.124 251.223 9.124C250.059 9.124 249.255 8.44 249.171 7.12H253.635C253.683 6.94 253.719 6.664 253.719 6.388C253.719 4.852 252.639 3.712 250.971 3.712C249.051 3.712 247.899 5.164 247.899 6.976C247.899 8.74 249.135 10.24 251.223 10.24C252.351 10.24 253.275 9.772 253.839 9.016ZM250.947 4.744C251.919 4.744 252.459 5.44 252.483 6.196H249.231C249.423 5.26 250.047 4.744 250.947 4.744ZM255.34 10H256.576V5.968C256.888 5.452 257.392 5.044 258.16 5.044C258.412 5.044 258.604 5.08 258.796 5.128V3.916C258.64 3.868 258.46 3.832 258.268 3.832C257.524 3.832 256.996 4.168 256.576 4.636V3.952H255.34V10ZM263.391 12.952H264.627V9.376C265.143 9.928 265.791 10.24 266.667 10.24C268.563 10.24 269.751 8.74 269.751 6.976C269.751 5.212 268.563 3.712 266.667 3.712C265.791 3.712 265.143 4.024 264.627 4.576V3.952H263.391V12.952ZM266.511 4.876C267.675 4.876 268.455 5.788 268.455 6.976C268.455 8.164 267.675 9.076 266.511 9.076C265.731 9.076 265.071 8.716 264.627 8.044V5.908C265.059 5.248 265.719 4.876 266.511 4.876ZM272.828 10.18C273.572 10.18 274.328 9.844 274.76 9.316V10H275.996V6.004C275.996 4.672 275.096 3.712 273.464 3.712C272.384 3.712 271.52 4.168 270.98 4.888L271.904 5.596C272.252 5.104 272.768 4.804 273.428 4.804C274.208 4.804 274.76 5.26 274.76 6.004V6.316L272.804 6.64C271.52 6.856 270.812 7.516 270.812 8.428C270.812 9.496 271.628 10.18 272.828 10.18ZM272.06 8.38C272.06 7.924 272.372 7.6 273.128 7.468L274.76 7.192V8.236C274.4 8.812 273.812 9.172 273.056 9.172C272.432 9.172 272.06 8.848 272.06 8.38ZM277.934 10H279.17V5.968C279.482 5.452 279.986 5.044 280.754 5.044C281.006 5.044 281.198 5.08 281.39 5.128V3.916C281.234 3.868 281.054 3.832 280.862 3.832C280.118 3.832 279.59 4.168 279.17 4.636V3.952H277.934V10ZM1.008 29.952H2.244V26.376C2.76 26.928 3.408 27.24 4.284 27.24C6.18 27.24 7.368 25.74 7.368 23.976C7.368 22.212 6.18 20.712 4.284 20.712C3.408 20.712 2.76 21.024 2.244 21.576V20.952H1.008V29.952ZM4.128 21.876C5.292 21.876 6.072 22.788 6.072 23.976C6.072 25.164 5.292 26.076 4.128 26.076C3.348 26.076 2.688 25.716 2.244 25.044V22.908C2.676 22.248 3.336 21.876 4.128 21.876ZM8.90644 27H10.1424V22.968C10.4544 22.452 10.9584 22.044 11.7264 22.044C11.9784 22.044 12.1704 22.08 12.3624 22.128V20.916C12.2064 20.868 12.0264 20.832 11.8344 20.832C11.0904 20.832 10.5624 21.168 10.1424 21.636V20.952H8.90644V27ZM16.2144 20.712C14.2584 20.712 12.9264 22.188 12.9264 23.976C12.9264 25.764 14.2584 27.24 16.2144 27.24C18.1824 27.24 19.5024 25.764 19.5024 23.976C19.5024 22.188 18.1824 20.712 16.2144 20.712ZM16.2264 26.076C15.0624 26.076 14.2224 25.14 14.2224 23.976C14.2224 22.812 15.0624 21.876 16.2264 21.876C17.3664 21.876 18.2064 22.8 18.2064 23.976C18.2064 25.128 17.3664 26.076 16.2264 26.076ZM23.9377 26.076C22.7617 26.076 21.9217 25.176 21.9217 23.976C21.9217 22.788 22.7617 21.876 23.9257 21.876C24.6217 21.876 25.1737 22.212 25.5097 22.68L26.4817 21.936C25.9297 21.192 25.0297 20.712 23.9257 20.712C21.8977 20.712 20.6257 22.212 20.6257 23.976C20.6257 25.74 21.8977 27.24 23.9257 27.24C25.0417 27.24 25.9297 26.76 26.4817 26.016L25.5097 25.272C25.1737 25.74 24.6217 26.076 23.9377 26.076ZM31.8776 24.408C31.8776 25.452 31.3136 26.076 30.3896 26.076C29.4416 26.076 28.8896 25.452 28.8896 24.408V20.952H27.6416V24.348C27.6416 26.16 28.6856 27.24 30.3896 27.24C32.0816 27.24 33.1256 26.16 33.1256 24.348V20.952H31.8776V24.408ZM35.0041 27H36.2401V22.968C36.5521 22.452 37.0561 22.044 37.8241 22.044C38.0761 22.044 38.2681 22.08 38.4601 22.128V20.916C38.3041 20.868 38.1241 20.832 37.9321 20.832C37.1881 20.832 36.6601 21.168 36.2401 21.636V20.952H35.0041V27ZM41.2073 27.18C41.9513 27.18 42.7073 26.844 43.1393 26.316V27H44.3753V23.004C44.3753 21.672 43.4753 20.712 41.8433 20.712C40.7633 20.712 39.8993 21.168 39.3593 21.888L40.2833 22.596C40.6313 22.104 41.1473 21.804 41.8073 21.804C42.5873 21.804 43.1393 22.26 43.1393 23.004V23.316L41.1833 23.64C39.8993 23.856 39.1913 24.516 39.1913 25.428C39.1913 26.496 40.0073 27.18 41.2073 27.18ZM40.4393 25.38C40.4393 24.924 40.7513 24.6 41.5073 24.468L43.1393 24.192V25.236C42.7793 25.812 42.1913 26.172 41.4353 26.172C40.8113 26.172 40.4393 25.848 40.4393 25.38ZM46.6727 24.9C46.6727 26.376 47.4167 27.12 48.8327 27.12C49.3007 27.12 49.6367 27.06 49.9247 26.94V25.848C49.7087 25.932 49.4327 25.98 49.0247 25.98C48.3527 25.98 47.9207 25.716 47.9207 24.9V22.068H49.9247V20.952H47.9207V19.44H46.6727V20.952H45.5327V22.068H46.6727V24.9ZM52.0226 19.608C52.4786 19.608 52.8626 19.224 52.8626 18.768C52.8626 18.312 52.4786 17.928 52.0226 17.928C51.5666 17.928 51.1826 18.312 51.1826 18.768C51.1826 19.224 51.5666 19.608 52.0226 19.608ZM51.3986 27H52.6346V20.952H51.3986V27ZM57.4644 20.712C55.5084 20.712 54.1764 22.188 54.1764 23.976C54.1764 25.764 55.5084 27.24 57.4644 27.24C59.4324 27.24 60.7524 25.764 60.7524 23.976C60.7524 22.188 59.4324 20.712 57.4644 20.712ZM57.4764 26.076C56.3124 26.076 55.4724 25.14 55.4724 23.976C55.4724 22.812 56.3124 21.876 57.4764 21.876C58.6164 21.876 59.4564 22.8 59.4564 23.976C59.4564 25.128 58.6164 26.076 57.4764 26.076ZM62.2971 27H63.5331V22.92C63.8451 22.392 64.3371 21.876 65.1651 21.876C66.0291 21.876 66.5571 22.452 66.5571 23.412V27H67.8051V23.364C67.8051 21.612 66.7851 20.712 65.4531 20.712C64.5891 20.712 63.9891 21.06 63.5331 21.54V20.952H62.2971V27ZM70.3508 27.144C70.8428 27.144 71.2388 26.748 71.2388 26.256C71.2388 25.776 70.8428 25.368 70.3508 25.368C69.8468 25.368 69.4508 25.776 69.4508 26.256C69.4508 26.748 69.8468 27.144 70.3508 27.144ZM0.396 53.86H3.096V61H4.476V53.86H7.176V52.6H0.396V53.86ZM12.0143 58.408C12.0143 59.452 11.4503 60.076 10.5263 60.076C9.57834 60.076 9.02634 59.452 9.02634 58.408V54.952H7.77834V58.348C7.77834 60.16 8.82234 61.24 10.5263 61.24C12.2183 61.24 13.2623 60.16 13.2623 58.348V54.952H12.0143V58.408ZM18.3752 63.952H19.6112V60.376C20.1272 60.928 20.7752 61.24 21.6512 61.24C23.5472 61.24 24.7352 59.74 24.7352 57.976C24.7352 56.212 23.5472 54.712 21.6512 54.712C20.7752 54.712 20.1272 55.024 19.6112 55.576V54.952H18.3752V63.952ZM21.4952 55.876C22.6592 55.876 23.4392 56.788 23.4392 57.976C23.4392 59.164 22.6592 60.076 21.4952 60.076C20.7152 60.076 20.0552 59.716 19.6112 59.044V56.908C20.0432 56.248 20.7032 55.876 21.4952 55.876ZM31.7922 60.016L30.8922 59.296C30.5202 59.8 29.9082 60.124 29.1762 60.124C28.0122 60.124 27.2082 59.44 27.1242 58.12H31.5882C31.6362 57.94 31.6722 57.664 31.6722 57.388C31.6722 55.852 30.5922 54.712 28.9242 54.712C27.0042 54.712 25.8522 56.164 25.8522 57.976C25.8522 59.74 27.0882 61.24 29.1762 61.24C30.3042 61.24 31.2282 60.772 31.7922 60.016ZM28.9002 55.744C29.8722 55.744 30.4122 56.44 30.4362 57.196H27.1842C27.3762 56.26 28.0002 55.744 28.9002 55.744ZM37.3151 58.408C37.3151 59.452 36.7511 60.076 35.8271 60.076C34.8791 60.076 34.3271 59.452 34.3271 58.408V54.952H33.0791V58.348C33.0791 60.16 34.1231 61.24 35.8271 61.24C37.5191 61.24 38.5631 60.16 38.5631 58.348V54.952H37.3151V58.408ZM41.0087 61L42.5687 58.72L44.1407 61H45.5567L43.3727 57.88L45.4247 54.952H43.9967L42.5687 57.028L41.1407 54.952H39.7127L41.7527 57.88L39.5687 61H41.0087ZM50.0627 61H51.2987V56.968C51.6107 56.452 52.1147 56.044 52.8827 56.044C53.1347 56.044 53.3267 56.08 53.5187 56.128V54.916C53.3627 54.868 53.1827 54.832 52.9907 54.832C52.2467 54.832 51.7187 55.168 51.2987 55.636V54.952H50.0627V61ZM57.8267 53.992L59.2427 52H57.8747L56.6267 53.992H57.8267ZM60.0227 60.016L59.1227 59.296C58.7507 59.8 58.1387 60.124 57.4067 60.124C56.2427 60.124 55.4387 59.44 55.3547 58.12H59.8187C59.8667 57.94 59.9027 57.664 59.9027 57.388C59.9027 55.852 58.8227 54.712 57.1547 54.712C55.2347 54.712 54.0827 56.164 54.0827 57.976C54.0827 59.74 55.3187 61.24 57.4067 61.24C58.5347 61.24 59.4587 60.772 60.0227 60.016ZM57.1307 55.744C58.1027 55.744 58.6427 56.44 58.6667 57.196H55.4147C55.6067 56.26 56.2307 55.744 57.1307 55.744ZM63.1213 61.18C63.8653 61.18 64.6213 60.844 65.0533 60.316V61H66.2893V57.004C66.2893 55.672 65.3893 54.712 63.7573 54.712C62.6773 54.712 61.8133 55.168 61.2733 55.888L62.1973 56.596C62.5453 56.104 63.0613 55.804 63.7213 55.804C64.5013 55.804 65.0533 56.26 65.0533 57.004V57.316L63.0973 57.64C61.8133 57.856 61.1053 58.516 61.1053 59.428C61.1053 60.496 61.9213 61.18 63.1213 61.18ZM62.3533 59.38C62.3533 58.924 62.6653 58.6 63.4213 58.468L65.0533 58.192V59.236C64.6933 59.812 64.1053 60.172 63.3493 60.172C62.7253 60.172 62.3533 59.848 62.3533 59.38ZM68.2268 61H69.4628V52H68.2268V61ZM72.1086 53.608C72.5646 53.608 72.9486 53.224 72.9486 52.768C72.9486 52.312 72.5646 51.928 72.1086 51.928C71.6526 51.928 71.2686 52.312 71.2686 52.768C71.2686 53.224 71.6526 53.608 72.1086 53.608ZM71.4846 61H72.7206V54.952H71.4846V61ZM74.0721 60.148C74.6361 60.832 75.3921 61.24 76.4121 61.24C77.5401 61.24 78.5001 60.532 78.5121 59.344C78.5121 57.268 75.5481 57.676 75.5481 56.464C75.5481 56.056 75.8361 55.72 76.4121 55.72C76.9161 55.72 77.3361 56.02 77.6601 56.452L78.5001 55.72C78.0681 55.144 77.2881 54.712 76.4001 54.712C75.1881 54.712 74.3481 55.504 74.3481 56.5C74.3481 58.636 77.3121 58.192 77.3121 59.416C77.3121 59.872 76.9881 60.232 76.4001 60.232C75.8001 60.232 75.3201 59.908 74.9241 59.404L74.0721 60.148ZM85.4758 60.016L84.5758 59.296C84.2038 59.8 83.5918 60.124 82.8598 60.124C81.6958 60.124 80.8918 59.44 80.8078 58.12H85.2718C85.3198 57.94 85.3558 57.664 85.3558 57.388C85.3558 55.852 84.2758 54.712 82.6078 54.712C80.6878 54.712 79.5358 56.164 79.5358 57.976C79.5358 59.74 80.7718 61.24 82.8598 61.24C83.9878 61.24 84.9118 60.772 85.4758 60.016ZM82.5838 55.744C83.5558 55.744 84.0958 56.44 84.1198 57.196H80.8678C81.0598 56.26 81.6838 55.744 82.5838 55.744ZM86.9768 61H88.2128V56.968C88.5248 56.452 89.0288 56.044 89.7968 56.044C90.0488 56.044 90.2408 56.08 90.4328 56.128V54.916C90.2768 54.868 90.0968 54.832 89.9048 54.832C89.1608 54.832 88.6328 55.168 88.2128 55.636V54.952H86.9768V61ZM97.8595 60.076C96.6835 60.076 95.8435 59.176 95.8435 57.976C95.8435 56.788 96.6835 55.876 97.8475 55.876C98.5435 55.876 99.0955 56.212 99.4315 56.68L100.404 55.936C99.8515 55.192 98.9515 54.712 97.8475 54.712C95.8195 54.712 94.5475 56.212 94.5475 57.976C94.5475 59.74 95.8195 61.24 97.8475 61.24C98.9635 61.24 99.8515 60.76 100.404 60.016L99.4315 59.272C99.0955 59.74 98.5435 60.076 97.8595 60.076ZM106.921 60.016L106.021 59.296C105.649 59.8 105.037 60.124 104.305 60.124C103.141 60.124 102.337 59.44 102.253 58.12H106.717C106.765 57.94 106.801 57.664 106.801 57.388C106.801 55.852 105.721 54.712 104.053 54.712C102.133 54.712 100.981 56.164 100.981 57.976C100.981 59.74 102.217 61.24 104.305 61.24C105.433 61.24 106.357 60.772 106.921 60.016ZM104.029 55.744C105.001 55.744 105.541 56.44 105.565 57.196H102.313C102.505 56.26 103.129 55.744 104.029 55.744ZM108.759 58.9C108.759 60.376 109.503 61.12 110.919 61.12C111.387 61.12 111.723 61.06 112.011 60.94V59.848C111.795 59.932 111.519 59.98 111.111 59.98C110.439 59.98 110.007 59.716 110.007 58.9V56.068H112.011V54.952H110.007V53.44H108.759V54.952H107.619V56.068H108.759V58.9ZM113.915 58.9C113.915 60.376 114.659 61.12 116.075 61.12C116.543 61.12 116.879 61.06 117.167 60.94V59.848C116.951 59.932 116.675 59.98 116.267 59.98C115.595 59.98 115.163 59.716 115.163 58.9V56.068H117.167V54.952H115.163V53.44H113.915V54.952H112.775V56.068H113.915V58.9ZM123.984 60.016L123.084 59.296C122.712 59.8 122.1 60.124 121.368 60.124C120.204 60.124 119.4 59.44 119.316 58.12H123.78C123.828 57.94 123.864 57.664 123.864 57.388C123.864 55.852 122.784 54.712 121.116 54.712C119.196 54.712 118.044 56.164 118.044 57.976C118.044 59.74 119.28 61.24 121.368 61.24C122.496 61.24 123.42 60.772 123.984 60.016ZM121.092 55.744C122.064 55.744 122.604 56.44 122.628 57.196H119.376C119.568 56.26 120.192 55.744 121.092 55.744ZM128.239 57.976C128.239 59.74 129.427 61.24 131.335 61.24C132.199 61.24 132.847 60.928 133.351 60.388V61H134.611V52H133.351V55.564C132.847 55.024 132.199 54.712 131.335 54.712C129.427 54.712 128.239 56.212 128.239 57.976ZM129.547 57.976C129.547 56.788 130.327 55.876 131.491 55.876C132.247 55.876 132.907 56.224 133.351 56.884V59.068C132.943 59.704 132.271 60.076 131.491 60.076C130.327 60.076 129.547 59.164 129.547 57.976ZM139.87 53.992L141.286 52H139.918L138.67 53.992H139.87ZM142.066 60.016L141.166 59.296C140.794 59.8 140.182 60.124 139.45 60.124C138.286 60.124 137.482 59.44 137.398 58.12H141.862C141.91 57.94 141.946 57.664 141.946 57.388C141.946 55.852 140.866 54.712 139.198 54.712C137.278 54.712 136.126 56.164 136.126 57.976C136.126 59.74 137.362 61.24 139.45 61.24C140.578 61.24 141.502 60.772 142.066 60.016ZM139.174 55.744C140.146 55.744 140.686 56.44 140.71 57.196H137.458C137.65 56.26 138.274 55.744 139.174 55.744ZM143.567 61H144.803V56.92C145.091 56.404 145.547 55.876 146.315 55.876C147.107 55.876 147.587 56.404 147.587 57.292V61H148.835V57.244C148.835 57.124 148.835 57.016 148.823 56.908C149.147 56.332 149.615 55.876 150.335 55.876C151.115 55.876 151.607 56.404 151.607 57.292V61H152.855V57.244C152.855 55.576 151.883 54.712 150.623 54.712C149.579 54.712 148.979 55.204 148.511 55.804C148.127 55.084 147.431 54.712 146.603 54.712C145.799 54.712 145.235 55.048 144.803 55.516V54.952H143.567V61ZM156.438 61.18C157.182 61.18 157.938 60.844 158.37 60.316V61H159.606V57.004C159.606 55.672 158.706 54.712 157.074 54.712C155.994 54.712 155.13 55.168 154.59 55.888L155.514 56.596C155.862 56.104 156.378 55.804 157.038 55.804C157.818 55.804 158.37 56.26 158.37 57.004V57.316L156.414 57.64C155.13 57.856 154.422 58.516 154.422 59.428C154.422 60.496 155.238 61.18 156.438 61.18ZM155.67 59.38C155.67 58.924 155.982 58.6 156.738 58.468L158.37 58.192V59.236C158.01 59.812 157.422 60.172 156.666 60.172C156.042 60.172 155.67 59.848 155.67 59.38ZM161.543 61H162.779V56.968C163.091 56.452 163.595 56.044 164.363 56.044C164.615 56.044 164.807 56.08 164.999 56.128V54.916C164.843 54.868 164.663 54.832 164.471 54.832C163.727 54.832 163.199 55.168 162.779 55.636V54.952H161.543V61ZM168.875 60.076C167.699 60.076 166.859 59.176 166.859 57.976C166.859 56.788 167.699 55.876 168.863 55.876C169.559 55.876 170.111 56.212 170.447 56.68L171.419 55.936C170.867 55.192 169.967 54.712 168.863 54.712C166.835 54.712 165.563 56.212 165.563 57.976C165.563 59.74 166.835 61.24 168.863 61.24C169.979 61.24 170.867 60.76 171.419 60.016L170.447 59.272C170.111 59.74 169.559 60.076 168.875 60.076ZM172.711 61H173.947V56.92C174.271 56.392 174.751 55.876 175.579 55.876C176.443 55.876 176.971 56.452 176.971 57.412V61H178.219V57.364C178.219 55.612 177.211 54.712 175.867 54.712C175.003 54.712 174.403 55.06 173.947 55.54V52H172.711V61ZM185.601 60.016L184.701 59.296C184.329 59.8 183.717 60.124 182.985 60.124C181.821 60.124 181.017 59.44 180.933 58.12H185.397C185.445 57.94 185.481 57.664 185.481 57.388C185.481 55.852 184.401 54.712 182.733 54.712C180.813 54.712 179.661 56.164 179.661 57.976C179.661 59.74 180.897 61.24 182.985 61.24C184.113 61.24 185.037 60.772 185.601 60.016ZM182.709 55.744C183.681 55.744 184.221 56.44 184.245 57.196H180.993C181.185 56.26 181.809 55.744 182.709 55.744ZM195.796 60.016L194.896 59.296C194.524 59.8 193.912 60.124 193.18 60.124C192.016 60.124 191.212 59.44 191.128 58.12H195.592C195.64 57.94 195.676 57.664 195.676 57.388C195.676 55.852 194.596 54.712 192.928 54.712C191.008 54.712 189.856 56.164 189.856 57.976C189.856 59.74 191.092 61.24 193.18 61.24C194.308 61.24 195.232 60.772 195.796 60.016ZM192.904 55.744C193.876 55.744 194.416 56.44 194.44 57.196H191.188C191.38 56.26 192.004 55.744 192.904 55.744ZM197.297 61H198.533V56.92C198.845 56.392 199.337 55.876 200.165 55.876C201.029 55.876 201.557 56.452 201.557 57.412V61H202.805V57.364C202.805 55.612 201.785 54.712 200.453 54.712C199.589 54.712 198.989 55.06 198.533 55.54V54.952H197.297V61ZM207.961 61H209.197V52H207.961V61ZM211.843 53.608C212.299 53.608 212.683 53.224 212.683 52.768C212.683 52.312 212.299 51.928 211.843 51.928C211.387 51.928 211.003 52.312 211.003 52.768C211.003 53.224 211.387 53.608 211.843 53.608ZM211.219 61H212.455V54.952H211.219V61ZM213.829 62.08C213.829 63.316 214.981 64 216.841 64C218.677 64 219.949 63.016 219.949 61.708C219.949 60.616 219.169 59.812 217.609 59.812H215.965C215.641 59.812 215.509 59.668 215.509 59.416C215.509 59.236 215.617 59.056 215.809 58.9C216.037 58.948 216.277 58.984 216.541 58.984C218.041 58.984 218.941 58.012 218.941 56.836C218.941 56.548 218.881 56.26 218.773 56.008H219.961V54.952H217.729C217.393 54.796 216.997 54.712 216.541 54.712C215.065 54.712 214.165 55.672 214.165 56.836C214.165 57.508 214.465 58.12 214.993 58.516C214.525 58.84 214.297 59.224 214.297 59.704C214.297 60.016 214.429 60.34 214.693 60.568C214.129 60.988 213.829 61.468 213.829 62.08ZM216.553 58.036C215.773 58.036 215.317 57.52 215.317 56.836C215.317 56.164 215.773 55.66 216.553 55.66C217.333 55.66 217.789 56.164 217.789 56.836C217.789 57.52 217.333 58.036 216.553 58.036ZM215.005 61.912C215.005 61.48 215.233 61.156 215.569 60.892H217.489C218.413 60.892 218.713 61.3 218.713 61.816C218.713 62.524 218.017 62.992 216.817 62.992C215.677 62.992 215.005 62.584 215.005 61.912ZM221.156 61H222.392V56.92C222.704 56.392 223.196 55.876 224.024 55.876C224.888 55.876 225.416 56.452 225.416 57.412V61H226.664V57.364C226.664 55.612 225.644 54.712 224.312 54.712C223.448 54.712 222.848 55.06 222.392 55.54V54.952H221.156V61ZM234.046 60.016L233.146 59.296C232.774 59.8 232.162 60.124 231.43 60.124C230.266 60.124 229.462 59.44 229.378 58.12H233.842C233.89 57.94 233.926 57.664 233.926 57.388C233.926 55.852 232.846 54.712 231.178 54.712C229.258 54.712 228.106 56.164 228.106 57.976C228.106 59.74 229.342 61.24 231.43 61.24C232.558 61.24 233.482 60.772 234.046 60.016ZM231.154 55.744C232.126 55.744 232.666 56.44 232.69 57.196H229.438C229.63 56.26 230.254 55.744 231.154 55.744ZM239.405 56.584C239.897 56.584 240.293 56.176 240.293 55.684C240.293 55.204 239.897 54.808 239.405 54.808C238.901 54.808 238.505 55.204 238.505 55.684C238.505 56.176 238.901 56.584 239.405 56.584ZM239.405 61.144C239.897 61.144 240.293 60.748 240.293 60.256C240.293 59.776 239.897 59.368 239.405 59.368C238.901 59.368 238.505 59.776 238.505 60.256C238.505 60.748 238.901 61.144 239.405 61.144ZM0.36 71.952L1.86 78H3.576L4.908 73.14L6.216 78H7.956L9.432 71.952H8.208L7.032 76.704L5.748 71.952H4.056L2.76 76.704L1.596 71.952H0.36ZM10.1686 71.952L11.6686 78H13.3846L14.7166 73.14L16.0246 78H17.7646L19.2406 71.952H18.0166L16.8406 76.704L15.5566 71.952H13.8646L12.5686 76.704L11.4046 71.952H10.1686ZM19.9772 71.952L21.4772 78H23.1932L24.5252 73.14L25.8332 78H27.5732L29.0492 71.952H27.8252L26.6492 76.704L25.3652 71.952H23.6732L22.3772 76.704L21.2132 71.952H19.9772ZM30.2961 78.144C30.7881 78.144 31.1841 77.748 31.1841 77.256C31.1841 76.776 30.7881 76.368 30.2961 76.368C29.7921 76.368 29.3961 76.776 29.3961 77.256C29.3961 77.748 29.7921 78.144 30.2961 78.144ZM32.9064 78H34.1424V73.92C34.4304 73.404 34.8864 72.876 35.6544 72.876C36.4464 72.876 36.9264 73.404 36.9264 74.292V78H38.1744V74.244C38.1744 74.124 38.1744 74.016 38.1624 73.908C38.4864 73.332 38.9544 72.876 39.6744 72.876C40.4544 72.876 40.9464 73.404 40.9464 74.292V78H42.1944V74.244C42.1944 72.576 41.2224 71.712 39.9624 71.712C38.9184 71.712 38.3184 72.204 37.8504 72.804C37.4664 72.084 36.7704 71.712 35.9424 71.712C35.1384 71.712 34.5744 72.048 34.1424 72.516V71.952H32.9064V78ZM45.7776 78.18C46.5216 78.18 47.2776 77.844 47.7096 77.316V78H48.9456V74.004C48.9456 72.672 48.0456 71.712 46.4136 71.712C45.3336 71.712 44.4696 72.168 43.9296 72.888L44.8536 73.596C45.2016 73.104 45.7176 72.804 46.3776 72.804C47.1576 72.804 47.7096 73.26 47.7096 74.004V74.316L45.7536 74.64C44.4696 74.856 43.7616 75.516 43.7616 76.428C43.7616 77.496 44.5776 78.18 45.7776 78.18ZM45.0096 76.38C45.0096 75.924 45.3216 75.6 46.0776 75.468L47.7096 75.192V76.236C47.3496 76.812 46.7616 77.172 46.0056 77.172C45.3816 77.172 45.0096 76.848 45.0096 76.38ZM50.883 80.952H52.119V77.376C52.635 77.928 53.283 78.24 54.159 78.24C56.055 78.24 57.243 76.74 57.243 74.976C57.243 73.212 56.055 71.712 54.159 71.712C53.283 71.712 52.635 72.024 52.119 72.576V71.952H50.883V80.952ZM54.003 72.876C55.167 72.876 55.947 73.788 55.947 74.976C55.947 76.164 55.167 77.076 54.003 77.076C53.223 77.076 52.563 76.716 52.119 76.044V73.908C52.551 73.248 53.211 72.876 54.003 72.876ZM58.7814 78H60.0174V73.968C60.3294 73.452 60.8334 73.044 61.6014 73.044C61.8534 73.044 62.0454 73.08 62.2374 73.128V71.916C62.0814 71.868 61.9014 71.832 61.7094 71.832C60.9654 71.832 60.4374 72.168 60.0174 72.636V71.952H58.7814V78ZM66.0894 71.712C64.1334 71.712 62.8014 73.188 62.8014 74.976C62.8014 76.764 64.1334 78.24 66.0894 78.24C68.0574 78.24 69.3774 76.764 69.3774 74.976C69.3774 73.188 68.0574 71.712 66.0894 71.712ZM66.1014 77.076C64.9374 77.076 64.0974 76.14 64.0974 74.976C64.0974 73.812 64.9374 72.876 66.1014 72.876C67.2414 72.876 68.0814 73.8 68.0814 74.976C68.0814 76.128 67.2414 77.076 66.1014 77.076ZM73.8127 77.076C72.6367 77.076 71.7967 76.176 71.7967 74.976C71.7967 73.788 72.6367 72.876 73.8007 72.876C74.4967 72.876 75.0487 73.212 75.3847 73.68L76.3567 72.936C75.8047 72.192 74.9047 71.712 73.8007 71.712C71.7727 71.712 70.5007 73.212 70.5007 74.976C70.5007 76.74 71.7727 78.24 73.8007 78.24C74.9167 78.24 75.8047 77.76 76.3567 77.016L75.3847 76.272C75.0487 76.74 74.4967 77.076 73.8127 77.076ZM81.7526 75.408C81.7526 76.452 81.1886 77.076 80.2646 77.076C79.3166 77.076 78.7646 76.452 78.7646 75.408V71.952H77.5166V75.348C77.5166 77.16 78.5606 78.24 80.2646 78.24C81.9566 78.24 83.0006 77.16 83.0006 75.348V71.952H81.7526V75.408ZM84.8791 78H86.1151V73.968C86.4271 73.452 86.9311 73.044 87.6991 73.044C87.9511 73.044 88.1431 73.08 88.3351 73.128V71.916C88.1791 71.868 87.9991 71.832 87.8071 71.832C87.0631 71.832 86.5351 72.168 86.1151 72.636V71.952H84.8791V78ZM91.0823 78.18C91.8263 78.18 92.5823 77.844 93.0143 77.316V78H94.2503V74.004C94.2503 72.672 93.3503 71.712 91.7183 71.712C90.6383 71.712 89.7743 72.168 89.2343 72.888L90.1583 73.596C90.5063 73.104 91.0223 72.804 91.6823 72.804C92.4623 72.804 93.0143 73.26 93.0143 74.004V74.316L91.0583 74.64C89.7743 74.856 89.0663 75.516 89.0663 76.428C89.0663 77.496 89.8823 78.18 91.0823 78.18ZM90.3143 76.38C90.3143 75.924 90.6263 75.6 91.3823 75.468L93.0143 75.192V76.236C92.6543 76.812 92.0663 77.172 91.3103 77.172C90.6863 77.172 90.3143 76.848 90.3143 76.38ZM96.5477 75.9C96.5477 77.376 97.2917 78.12 98.7077 78.12C99.1757 78.12 99.5117 78.06 99.7997 77.94V76.848C99.5837 76.932 99.3077 76.98 98.8997 76.98C98.2277 76.98 97.7957 76.716 97.7957 75.9V73.068H99.7997V71.952H97.7957V70.44H96.5477V71.952H95.4077V73.068H96.5477V75.9ZM101.898 70.608C102.354 70.608 102.738 70.224 102.738 69.768C102.738 69.312 102.354 68.928 101.898 68.928C101.442 68.928 101.058 69.312 101.058 69.768C101.058 70.224 101.442 70.608 101.898 70.608ZM101.274 78H102.51V71.952H101.274V78ZM107.339 71.712C105.383 71.712 104.051 73.188 104.051 74.976C104.051 76.764 105.383 78.24 107.339 78.24C109.307 78.24 110.627 76.764 110.627 74.976C110.627 73.188 109.307 71.712 107.339 71.712ZM107.351 77.076C106.187 77.076 105.347 76.14 105.347 74.976C105.347 73.812 106.187 72.876 107.351 72.876C108.491 72.876 109.331 73.8 109.331 74.976C109.331 76.128 108.491 77.076 107.351 77.076ZM112.172 78H113.408V73.92C113.72 73.392 114.212 72.876 115.04 72.876C115.904 72.876 116.432 73.452 116.432 74.412V78H117.68V74.364C117.68 72.612 116.66 71.712 115.328 71.712C114.464 71.712 113.864 72.06 113.408 72.54V71.952H112.172V78ZM120.226 78.144C120.718 78.144 121.114 77.748 121.114 77.256C121.114 76.776 120.718 76.368 120.226 76.368C119.722 76.368 119.326 76.776 119.326 77.256C119.326 77.748 119.722 78.144 120.226 78.144ZM122.083 79.08C122.083 80.316 123.235 81 125.095 81C126.931 81 128.203 80.016 128.203 78.708C128.203 77.616 127.423 76.812 125.863 76.812H124.219C123.895 76.812 123.763 76.668 123.763 76.416C123.763 76.236 123.871 76.056 124.063 75.9C124.291 75.948 124.531 75.984 124.795 75.984C126.295 75.984 127.195 75.012 127.195 73.836C127.195 73.548 127.135 73.26 127.027 73.008H128.215V71.952H125.983C125.647 71.796 125.251 71.712 124.795 71.712C123.319 71.712 122.419 72.672 122.419 73.836C122.419 74.508 122.719 75.12 123.247 75.516C122.779 75.84 122.551 76.224 122.551 76.704C122.551 77.016 122.683 77.34 122.947 77.568C122.383 77.988 122.083 78.468 122.083 79.08ZM124.807 75.036C124.027 75.036 123.571 74.52 123.571 73.836C123.571 73.164 124.027 72.66 124.807 72.66C125.587 72.66 126.043 73.164 126.043 73.836C126.043 74.52 125.587 75.036 124.807 75.036ZM123.259 78.912C123.259 78.48 123.487 78.156 123.823 77.892H125.743C126.667 77.892 126.967 78.3 126.967 78.816C126.967 79.524 126.271 79.992 125.071 79.992C123.931 79.992 123.259 79.584 123.259 78.912ZM131.937 71.712C129.981 71.712 128.649 73.188 128.649 74.976C128.649 76.764 129.981 78.24 131.937 78.24C133.905 78.24 135.225 76.764 135.225 74.976C135.225 73.188 133.905 71.712 131.937 71.712ZM131.949 77.076C130.785 77.076 129.945 76.14 129.945 74.976C129.945 73.812 130.785 72.876 131.949 72.876C133.089 72.876 133.929 73.8 133.929 74.976C133.929 76.128 133.089 77.076 131.949 77.076ZM140.874 75.408C140.874 76.452 140.31 77.076 139.386 77.076C138.438 77.076 137.886 76.452 137.886 75.408V71.952H136.638V75.348C136.638 77.16 137.682 78.24 139.386 78.24C141.078 78.24 142.122 77.16 142.122 75.348V71.952H140.874V75.408ZM143.183 71.952L145.463 78H147.107L149.398 71.952H148.055L146.291 76.656L144.515 71.952H143.183ZM150.331 78.144C150.823 78.144 151.219 77.748 151.219 77.256C151.219 76.776 150.823 76.368 150.331 76.368C149.827 76.368 149.431 76.776 149.431 77.256C149.431 77.748 149.827 78.144 150.331 78.144ZM152.162 71.952V73.068H153.302V78H154.55V73.068H156.554V71.952H154.55V71.22C154.55 70.536 154.958 70.116 155.57 70.116C155.906 70.116 156.17 70.224 156.374 70.38L156.902 69.336C156.554 69.144 156.098 69 155.546 69C154.142 69 153.302 69.972 153.302 71.256V71.952H152.162ZM157.512 78H158.748V73.968C159.06 73.452 159.564 73.044 160.332 73.044C160.584 73.044 160.776 73.08 160.968 73.128V71.916C160.812 71.868 160.632 71.832 160.44 71.832C159.696 71.832 159.168 72.168 158.748 72.636V71.952H157.512V78ZM166.343 74.688C166.343 72.648 167.087 70.992 168.347 69.744L167.447 69C166.079 70.296 165.107 72.252 165.107 74.688C165.107 77.1 165.995 79.056 167.447 80.4L168.347 79.656C167.039 78.36 166.343 76.752 166.343 74.688ZM169.442 80.952H170.678V77.376C171.194 77.928 171.842 78.24 172.718 78.24C174.614 78.24 175.802 76.74 175.802 74.976C175.802 73.212 174.614 71.712 172.718 71.712C171.842 71.712 171.194 72.024 170.678 72.576V71.952H169.442V80.952ZM172.562 72.876C173.726 72.876 174.506 73.788 174.506 74.976C174.506 76.164 173.726 77.076 172.562 77.076C171.782 77.076 171.122 76.716 170.678 76.044V73.908C171.11 73.248 171.77 72.876 172.562 72.876ZM177.34 78H178.576V69H177.34V78ZM184.702 75.408C184.702 76.452 184.138 77.076 183.214 77.076C182.266 77.076 181.714 76.452 181.714 75.408V71.952H180.466V75.348C180.466 77.16 181.51 78.24 183.214 78.24C184.906 78.24 185.95 77.16 185.95 75.348V71.952H184.702V75.408ZM187.193 77.148C187.757 77.832 188.513 78.24 189.533 78.24C190.661 78.24 191.621 77.532 191.633 76.344C191.633 74.268 188.669 74.676 188.669 73.464C188.669 73.056 188.957 72.72 189.533 72.72C190.037 72.72 190.457 73.02 190.781 73.452L191.621 72.72C191.189 72.144 190.409 71.712 189.521 71.712C188.309 71.712 187.469 72.504 187.469 73.5C187.469 75.636 190.433 75.192 190.433 76.416C190.433 76.872 190.109 77.232 189.521 77.232C188.921 77.232 188.441 76.908 188.045 76.404L187.193 77.148ZM202.778 74.976C202.778 73.212 201.59 71.712 199.694 71.712C198.818 71.712 198.17 72.024 197.654 72.576V69H196.418V78H197.654V77.376C198.17 77.928 198.818 78.24 199.694 78.24C201.59 78.24 202.778 76.74 202.778 74.976ZM199.538 72.876C200.702 72.876 201.482 73.788 201.482 74.976C201.482 76.164 200.702 77.076 199.538 77.076C198.758 77.076 198.098 76.716 197.654 76.056V73.896C198.074 73.248 198.746 72.876 199.538 72.876ZM207.136 71.712C205.18 71.712 203.848 73.188 203.848 74.976C203.848 76.764 205.18 78.24 207.136 78.24C209.104 78.24 210.424 76.764 210.424 74.976C210.424 73.188 209.104 71.712 207.136 71.712ZM207.148 77.076C205.984 77.076 205.144 76.14 205.144 74.976C205.144 73.812 205.984 72.876 207.148 72.876C208.288 72.876 209.128 73.8 209.128 74.976C209.128 76.128 208.288 77.076 207.148 77.076ZM216.073 75.408C216.073 76.452 215.509 77.076 214.585 77.076C213.637 77.076 213.085 76.452 213.085 75.408V71.952H211.837V75.348C211.837 77.16 212.881 78.24 214.585 78.24C216.277 78.24 217.321 77.16 217.321 75.348V71.952H216.073V75.408ZM219.63 75.9C219.63 77.376 220.374 78.12 221.79 78.12C222.258 78.12 222.594 78.06 222.882 77.94V76.848C222.666 76.932 222.39 76.98 221.982 76.98C221.31 76.98 220.878 76.716 220.878 75.9V73.068H222.882V71.952H220.878V70.44H219.63V71.952H218.49V73.068H219.63V75.9ZM227.046 71.712C225.09 71.712 223.758 73.188 223.758 74.976C223.758 76.764 225.09 78.24 227.046 78.24C229.014 78.24 230.334 76.764 230.334 74.976C230.334 73.188 229.014 71.712 227.046 71.712ZM227.058 77.076C225.894 77.076 225.054 76.14 225.054 74.976C225.054 73.812 225.894 72.876 227.058 72.876C228.198 72.876 229.038 73.8 229.038 74.976C229.038 76.128 228.198 77.076 227.058 77.076ZM231.879 78H233.115V73.92C233.427 73.392 233.919 72.876 234.747 72.876C235.611 72.876 236.139 73.452 236.139 74.412V78H237.387V74.364C237.387 72.612 236.367 71.712 235.035 71.712C234.171 71.712 233.571 72.06 233.115 72.54V71.952H231.879V78ZM242.063 74.976C242.063 76.74 243.251 78.24 245.147 78.24C246.023 78.24 246.671 77.928 247.175 77.376V80.952H248.435V71.952H247.175V72.576C246.671 72.024 246.023 71.712 245.147 71.712C243.251 71.712 242.063 73.212 242.063 74.976ZM243.359 74.976C243.359 73.788 244.139 72.876 245.303 72.876C246.071 72.876 246.731 73.224 247.175 73.884V76.068C246.767 76.704 246.095 77.076 245.303 77.076C244.139 77.076 243.359 76.164 243.359 74.976ZM254.546 75.408C254.546 76.452 253.982 77.076 253.058 77.076C252.11 77.076 251.558 76.452 251.558 75.408V71.952H250.31V75.348C250.31 77.16 251.354 78.24 253.058 78.24C254.75 78.24 255.794 77.16 255.794 75.348V71.952H254.546V75.408ZM263.132 77.016L262.232 76.296C261.86 76.8 261.248 77.124 260.516 77.124C259.352 77.124 258.548 76.44 258.464 75.12H262.928C262.976 74.94 263.012 74.664 263.012 74.388C263.012 72.852 261.932 71.712 260.264 71.712C258.344 71.712 257.192 73.164 257.192 74.976C257.192 76.74 258.428 78.24 260.516 78.24C261.644 78.24 262.568 77.772 263.132 77.016ZM260.24 72.744C261.212 72.744 261.752 73.44 261.776 74.196H258.524C258.716 73.26 259.34 72.744 260.24 72.744ZM267.867 78H269.103V69H267.867V78ZM271.749 70.608C272.205 70.608 272.589 70.224 272.589 69.768C272.589 69.312 272.205 68.928 271.749 68.928C271.293 68.928 270.909 69.312 270.909 69.768C270.909 70.224 271.293 70.608 271.749 70.608ZM271.125 78H272.361V71.952H271.125V78ZM279.843 77.016L278.943 76.296C278.571 76.8 277.959 77.124 277.227 77.124C276.063 77.124 275.259 76.44 275.175 75.12H279.639C279.687 74.94 279.723 74.664 279.723 74.388C279.723 72.852 278.643 71.712 276.975 71.712C275.055 71.712 273.903 73.164 273.903 74.976C273.903 76.74 275.139 78.24 277.227 78.24C278.355 78.24 279.279 77.772 279.843 77.016ZM276.951 72.744C277.923 72.744 278.463 73.44 278.487 74.196H275.235C275.427 73.26 276.051 72.744 276.951 72.744ZM281.344 78H282.58V73.92C282.892 73.392 283.384 72.876 284.212 72.876C285.076 72.876 285.604 73.452 285.604 74.412V78H286.852V74.364C286.852 72.612 285.832 71.712 284.5 71.712C283.636 71.712 283.036 72.06 282.58 72.54V71.952H281.344V78ZM289.846 74.712C289.846 76.764 289.126 78.396 287.842 79.656L288.742 80.4C290.146 79.092 291.082 77.136 291.082 74.712C291.082 72.288 290.17 70.32 288.742 69L287.842 69.744C289.138 71.016 289.846 72.66 289.846 74.712Z" fill="#AC4B4B"/>
</svg>
