<svg xmlns="http://www.w3.org/2000/svg" viewBox="0 0 720 1280"><defs><style>.cls-1{fill:#899853;}.cls-2{fill:#e5e5e5;}.cls-3{fill:#df3e3e;}.cls-4{fill:#6b7741;}.cls-5{fill:#2e3845;}.cls-6{fill:#3d505c;}</style></defs><title>fondPlan de travail 1 copie 8</title><g id="décors"><rect class="cls-1" width="720" height="1280" transform="translate(720 1280) rotate(-180)"/><path class="cls-2" d="M643.3,987.07V1280H580.67V835.87A213.83,213.83,0,0,1,643.3,987.07Z"/><path class="cls-2" d="M580.67,871.5A156.78,156.78,0,0,1,603.93,897H580.67V871.5Z"/><path class="cls-2" d="M628.48,948.09H580.67V922.56H619A157,157,0,0,1,628.48,948.09Z"/><path class="cls-2" d="M634.05,989.56v9.6H580.67V973.63h52.56A159.1,159.1,0,0,1,634.05,989.56Z"/><rect class="cls-2" x="580.67" y="1024.69" width="53.37" height="25.53"/><rect class="cls-2" x="580.67" y="1075.75" width="53.37" height="25.53"/><rect class="cls-2" x="580.67" y="1126.81" width="53.37" height="25.53"/><rect class="cls-2" x="580.67" y="1177.88" width="53.37" height="25.53"/><rect class="cls-2" x="580.67" y="1228.94" width="53.37" height="25.53"/><path class="cls-3" d="M619,922.56H580.67V897h23.26A157.25,157.25,0,0,1,619,922.56Z"/><path class="cls-3" d="M633.23,973.63H580.67V948.09h47.81A157.72,157.72,0,0,1,633.23,973.63Z"/><rect class="cls-3" x="580.67" y="999.16" width="53.37" height="25.53"/><rect class="cls-3" x="580.67" y="1050.22" width="53.37" height="25.53"/><rect class="cls-3" x="580.67" y="1101.28" width="53.37" height="25.53"/><rect class="cls-3" x="580.67" y="1152.35" width="53.37" height="25.53"/><rect class="cls-3" x="580.67" y="1203.41" width="53.37" height="25.53"/><rect class="cls-3" x="580.67" y="1254.47" width="53.37" height="25.53"/><path class="cls-2" d="M76.7,292.93V0h62.63V444.13A213.83,213.83,0,0,1,76.7,292.93Z"/><path class="cls-3" d="M91.52,331.91h47.81v25.53H101A157,157,0,0,1,91.52,331.91Z"/><path class="cls-3" d="M86,290.44v-9.6h53.38v25.53H86.77A159.1,159.1,0,0,1,86,290.44Z"/><rect class="cls-3" x="85.95" y="229.78" width="53.37" height="25.53"/><rect class="cls-3" x="85.95" y="178.72" width="53.37" height="25.53"/><rect class="cls-3" x="85.95" y="127.65" width="53.37" height="25.53"/><rect class="cls-3" x="85.95" y="76.59" width="53.37" height="25.53"/><rect class="cls-3" x="85.95" y="25.53" width="53.37" height="25.53"/><path class="cls-2" d="M101,357.44h38.37V383H116.07A157.25,157.25,0,0,1,101,357.44Z"/><path class="cls-2" d="M86.77,306.37h52.56v25.54H91.52A157.72,157.72,0,0,1,86.77,306.37Z"/><rect class="cls-2" x="85.95" y="255.31" width="53.37" height="25.53"/><rect class="cls-2" x="85.95" y="204.25" width="53.37" height="25.53"/><rect class="cls-2" x="85.95" y="153.19" width="53.37" height="25.53"/><rect class="cls-2" x="85.95" y="102.12" width="53.37" height="25.53"/><rect class="cls-2" x="85.95" y="51.06" width="53.37" height="25.53"/><rect class="cls-2" x="85.95" width="53.37" height="25.53"/><path class="cls-4" d="M4.77,628.25H65.61l19.73-45.09H4.77a22.71,22.71,0,0,0-4.77.51v44.07A22.06,22.06,0,0,0,4.77,628.25Z"/><path class="cls-4" d="M8.3,694.91H69.14l19.74-45.1H8.3A22.45,22.45,0,0,0,0,651.4v41.93A22.45,22.45,0,0,0,8.3,694.91Z"/><path class="cls-4" d="M4.9,762.28H65.74l19.73-45.1H4.9a22.57,22.57,0,0,0-4.9.54v44A22.57,22.57,0,0,0,4.9,762.28Z"/><path class="cls-4" d="M4.9,846.78H65.74l19.73-45.1H4.9a22.57,22.57,0,0,0-4.9.54v44A22.57,22.57,0,0,0,4.9,846.78Z"/><path class="cls-4" d="M4.9,914.28H65.74l19.73-45.1H4.9a22.57,22.57,0,0,0-4.9.54v44A22.57,22.57,0,0,0,4.9,914.28Z"/><path class="cls-4" d="M4.9,981.78H65.74l19.73-45.1H4.9a22.57,22.57,0,0,0-4.9.54v44A22.57,22.57,0,0,0,4.9,981.78Z"/><path class="cls-4" d="M11.83,1068.54H72.67l19.74-45.09H11.83A22.47,22.47,0,0,0,0,1026.8v38.39A22.38,22.38,0,0,0,11.83,1068.54Z"/><path class="cls-4" d="M0,1089.08v44a22.57,22.57,0,0,0,4.9.54H65.74l19.73-45.1H4.9A22.57,22.57,0,0,0,0,1089.08Z"/><g id="pneu"><path class="cls-5" d="M65.61,568.12a30.07,30.07,0,1,0,30.06,30.07A30.06,30.06,0,0,0,65.61,568.12Zm0,45.1a15,15,0,1,1,15-15A15,15,0,0,1,65.61,613.22Z"/><rect class="cls-5" x="35.55" y="583.16" width="13.87" height="15.03"/><rect class="cls-5" x="81.79" y="583.16" width="13.87" height="15.03"/><path class="cls-6" d="M65.61,553.09a30.07,30.07,0,1,0,30.06,30.07A30.06,30.06,0,0,0,65.61,553.09Zm0,45.1a15,15,0,1,1,15-15A15,15,0,0,1,65.61,598.19Z"/></g><g id="pneu-2" data-name="pneu"><path class="cls-5" d="M69.14,634.78a30.07,30.07,0,1,0,30.07,30.07A30.06,30.06,0,0,0,69.14,634.78Zm0,45.1a15,15,0,1,1,15-15A15,15,0,0,1,69.14,679.88Z"/><rect class="cls-5" x="39.08" y="649.81" width="13.87" height="15.03"/><rect class="cls-5" x="85.32" y="649.81" width="13.87" height="15.03"/><path class="cls-6" d="M69.14,619.75a30.07,30.07,0,1,0,30.07,30.06A30.06,30.06,0,0,0,69.14,619.75Zm0,45.1a15,15,0,1,1,15-15A15,15,0,0,1,69.14,664.85Z"/></g><g id="pneu-3" data-name="pneu"><path class="cls-5" d="M65.74,702.15a30.07,30.07,0,1,0,30.07,30.06A30.06,30.06,0,0,0,65.74,702.15Zm0,45.1a15,15,0,1,1,15-15A15,15,0,0,1,65.74,747.25Z"/><rect class="cls-5" x="35.68" y="717.18" width="13.87" height="15.03"/><rect class="cls-5" x="81.92" y="717.18" width="13.87" height="15.03"/><path class="cls-6" d="M65.74,687.12a30.07,30.07,0,1,0,30.07,30.06A30.06,30.06,0,0,0,65.74,687.12Zm0,45.09a15,15,0,1,1,15-15A15,15,0,0,1,65.74,732.21Z"/></g><g id="pneu-4" data-name="pneu"><path class="cls-5" d="M65.74,786.65a30.07,30.07,0,1,0,30.07,30.06A30.06,30.06,0,0,0,65.74,786.65Zm0,45.1a15,15,0,1,1,15-15A15,15,0,0,1,65.74,831.75Z"/><rect class="cls-5" x="35.68" y="801.68" width="13.87" height="15.03"/><rect class="cls-5" x="81.92" y="801.68" width="13.87" height="15.03"/><path class="cls-6" d="M65.74,771.62a30.07,30.07,0,1,0,30.07,30.06A30.06,30.06,0,0,0,65.74,771.62Zm0,45.09a15,15,0,1,1,15-15A15,15,0,0,1,65.74,816.71Z"/></g><g id="pneu-5" data-name="pneu"><path class="cls-5" d="M65.74,854.15a30.07,30.07,0,1,0,30.07,30.06A30.06,30.06,0,0,0,65.74,854.15Zm0,45.1a15,15,0,1,1,15-15A15,15,0,0,1,65.74,899.25Z"/><rect class="cls-5" x="35.68" y="869.18" width="13.87" height="15.03"/><rect class="cls-5" x="81.92" y="869.18" width="13.87" height="15.03"/><path class="cls-6" d="M65.74,839.12a30.07,30.07,0,1,0,30.07,30.06A30.06,30.06,0,0,0,65.74,839.12Zm0,45.09a15,15,0,1,1,15-15A15,15,0,0,1,65.74,884.21Z"/></g><g id="pneu-6" data-name="pneu"><path class="cls-5" d="M65.74,921.65a30.07,30.07,0,1,0,30.07,30.06A30.06,30.06,0,0,0,65.74,921.65Zm0,45.1a15,15,0,1,1,15-15A15,15,0,0,1,65.74,966.75Z"/><rect class="cls-5" x="35.68" y="936.68" width="13.87" height="15.03"/><rect class="cls-5" x="81.92" y="936.68" width="13.87" height="15.03"/><path class="cls-6" d="M65.74,906.62a30.07,30.07,0,1,0,30.07,30.06A30.06,30.06,0,0,0,65.74,906.62Zm0,45.09a15,15,0,1,1,15-15A15,15,0,0,1,65.74,951.71Z"/></g><g id="pneu-7" data-name="pneu"><path class="cls-5" d="M72.67,1008.41a30.07,30.07,0,1,0,30.07,30.07A30.06,30.06,0,0,0,72.67,1008.41Zm0,45.1a15,15,0,1,1,15-15A15,15,0,0,1,72.67,1053.51Z"/><rect class="cls-5" x="42.61" y="1023.45" width="13.87" height="15.03"/><rect class="cls-5" x="88.86" y="1023.45" width="13.87" height="15.03"/><path class="cls-6" d="M72.67,993.38a30.07,30.07,0,1,0,30.07,30.07A30.06,30.06,0,0,0,72.67,993.38Zm0,45.1a15,15,0,1,1,15-15A15,15,0,0,1,72.67,1038.48Z"/></g><g id="pneu-8" data-name="pneu"><path class="cls-5" d="M65.74,1073.51a30.07,30.07,0,1,0,30.07,30.07A30.06,30.06,0,0,0,65.74,1073.51Zm0,45.1a15,15,0,1,1,15-15A15,15,0,0,1,65.74,1118.61Z"/><rect class="cls-5" x="35.68" y="1088.54" width="13.87" height="15.03"/><rect class="cls-5" x="81.92" y="1088.54" width="13.87" height="15.03"/><path class="cls-6" d="M65.74,1058.48a30.07,30.07,0,1,0,30.07,30.06A30.06,30.06,0,0,0,65.74,1058.48Zm0,45.1a15,15,0,1,1,15-15A15,15,0,0,1,65.74,1103.58Z"/></g><rect class="cls-6" x="144.93" width="430" height="1280" transform="translate(719.85 1280) rotate(-180)"/><rect class="cls-2" x="135" width="10" height="1280" transform="translate(280 1280) rotate(-180)"/><rect class="cls-2" x="575" width="10" height="1280" transform="translate(1160 1280) rotate(-180)"/></g></svg>