<svg xmlns="http://www.w3.org/2000/svg" viewBox="0 0 720 1280"><defs><style>.cls-1{fill:#899853;}.cls-2{fill:#3d505c;}.cls-3{fill:#e5e5e5;}.cls-4{fill:#6b7741;}.cls-5{fill:#2e3845;}.cls-6{fill:#5b6e7a;}.cls-7{fill:#475a66;}.cls-8{fill:#141414;}.cls-9{fill:#303f48;}.cls-10{fill:#b4b4b4;}.cls-11{fill:#f8752a;}</style></defs><title>fondPlan de travail 1 copie 11</title><g id="décors"><rect class="cls-1" width="720" height="1280"/><rect class="cls-2" x="144.93" width="430" height="1280" transform="translate(719.85 1280) rotate(-180)"/><rect class="cls-3" x="135" width="10" height="1280" transform="translate(280 1280) rotate(-180)"/><rect class="cls-3" x="575" width="10" height="1280" transform="translate(1160 1280) rotate(-180)"/><rect class="cls-4" y="332.98" width="50.66" height="20.25"/><rect class="cls-4" y="416.23" width="50.66" height="20.25"/><rect class="cls-4" y="499.48" width="50.66" height="20.25"/><rect class="cls-4" y="582.73" width="50.66" height="20.25"/><rect class="cls-4" y="665.98" width="50.66" height="20.25"/><rect class="cls-4" y="749.23" width="50.66" height="20.25"/><rect class="cls-4" y="832.48" width="50.66" height="20.25"/><rect class="cls-4" y="915.73" width="50.66" height="20.25"/><rect class="cls-4" y="998.98" width="50.66" height="20.25"/><rect class="cls-4" y="1082.23" width="50.66" height="20.25"/><path class="cls-5" d="M40.54,1039.35v53a10.13,10.13,0,1,0,20.25,0v-53Z"/><path class="cls-5" d="M40.54,956.1v53a10.13,10.13,0,1,0,20.25,0v-53Z"/><path class="cls-5" d="M40.54,872.85v53a10.13,10.13,0,1,0,20.25,0v-53Z"/><path class="cls-5" d="M40.54,789.6v53a10.13,10.13,0,1,0,20.25,0v-53Z"/><path class="cls-5" d="M40.54,706.35v53a10.13,10.13,0,1,0,20.25,0v-53Z"/><path class="cls-5" d="M40.54,623.1v53a10.13,10.13,0,1,0,20.25,0v-53Z"/><path class="cls-5" d="M40.54,539.85v53a10.13,10.13,0,1,0,20.25,0v-53Z"/><path class="cls-5" d="M40.54,456.6v53a10.13,10.13,0,1,0,20.25,0v-53Z"/><path class="cls-5" d="M40.54,373.35v53a10.13,10.13,0,1,0,20.25,0v-53Z"/><path class="cls-5" d="M40.54,290.1v53a10.13,10.13,0,1,0,20.25,0v-53Z"/><rect class="cls-6" x="50.66" y="251.78" width="20.25" height="824.92" rx="10.12"/><path class="cls-7" d="M60.79,1076.71h0a10.14,10.14,0,0,1-10.13-10.13V261.91a10.14,10.14,0,0,1,10.13-10.13h0"/><circle class="cls-7" cx="50.66" cy="290.1" r="10.13"/><circle class="cls-7" cx="50.66" cy="373.35" r="10.13"/><circle class="cls-7" cx="50.66" cy="456.6" r="10.13"/><circle class="cls-7" cx="50.66" cy="539.85" r="10.13"/><circle class="cls-7" cx="50.66" cy="623.1" r="10.13"/><circle class="cls-7" cx="50.66" cy="706.35" r="10.13"/><circle class="cls-7" cx="50.66" cy="789.6" r="10.13"/><circle class="cls-7" cx="50.66" cy="872.85" r="10.13"/><circle class="cls-7" cx="50.66" cy="956.1" r="10.13"/><circle class="cls-7" cx="50.66" cy="1039.35" r="10.13"/><rect class="cls-8" x="625.4" y="132.26" width="6.86" height="165.87"/><rect class="cls-9" x="500.32" y="291.73" width="74.64" height="6.4"/><rect class="cls-4" x="585" y="291.73" width="40.4" height="6.4"/><rect class="cls-10" x="574.96" y="291.73" width="10.07" height="6.4" transform="translate(1160 589.86) rotate(180)"/><path class="cls-11" d="M682.51,149.42c-23.6,0-39.51-7.31-50.26-17.16v20.25c12,8.78,28.25,14.74,50.26,14.74,15,0,27.36-2.78,37.49-7.34V141.17C710.38,146.2,698.14,149.42,682.51,149.42Z"/></g></svg>