<svg xmlns="http://www.w3.org/2000/svg" viewBox="0 0 720 1280"><defs><style>.cls-1{fill:#899853;}.cls-2{fill:#3d505c;}.cls-3{fill:#e5e5e5;}.cls-4{fill:#6b7741;}.cls-5{fill:#2e3845;}</style></defs><title>fondPlan de travail 1 copie 10</title><g id="décors"><rect class="cls-1" width="720" height="1280"/><rect class="cls-2" x="144.93" width="430" height="1280" transform="translate(719.85 1280) rotate(-180)"/><rect class="cls-3" x="135" width="10" height="1280" transform="translate(280 1280) rotate(-180)"/><rect class="cls-3" x="575" width="10" height="1280" transform="translate(1160 1280) rotate(-180)"/><path class="cls-4" d="M17.1,234.44H77.94l-21.68-45.1H17.1A22.5,22.5,0,0,0,0,197.2v29.38A22.5,22.5,0,0,0,17.1,234.44Z"/><path class="cls-4" d="M13.7,299.69H74.54l-21.68-45.1H13.7A22.44,22.44,0,0,0,0,259.24v35.81A22.44,22.44,0,0,0,13.7,299.69Z"/><path class="cls-4" d="M10.3,364.94H71.14l-21.68-45.1H10.3A22.44,22.44,0,0,0,0,322.33v40.12A22.44,22.44,0,0,0,10.3,364.94Z"/><path class="cls-4" d="M6.9,430.19H67.74l-21.68-45.1H6.9A22.44,22.44,0,0,0,0,386.17v42.94A22.44,22.44,0,0,0,6.9,430.19Z"/><path class="cls-4" d="M6.9,497.58H67.74l-21.68-45.1H6.9A22.44,22.44,0,0,0,0,453.56V496.5A22.44,22.44,0,0,0,6.9,497.58Z"/><path class="cls-4" d="M6.9,565H67.74L46.06,519.88H6.9A22.75,22.75,0,0,0,0,521v42.94A22.44,22.44,0,0,0,6.9,565Z"/><path class="cls-4" d="M6.9,669.36H67.74L46.06,624.27H6.9A22.75,22.75,0,0,0,0,625.34v42.95A22.75,22.75,0,0,0,6.9,669.36Z"/><path class="cls-4" d="M21.93,734.83H82.77l-21.68-45.1H21.93A22.55,22.55,0,0,0,0,707v10.49A22.56,22.56,0,0,0,21.93,734.83Z"/><path class="cls-4" d="M17.36,759.89A22.5,22.5,0,0,0,0,768.06v28.77A22.49,22.49,0,0,0,17.36,805H78.2l-21.68-45.1Z"/><g id="pneu"><path class="cls-5" d="M77.94,174.31A30.07,30.07,0,1,0,108,204.38,30.06,30.06,0,0,0,77.94,174.31Zm0,45.1a15,15,0,1,1,15-15A15,15,0,0,1,77.94,219.41Z"/><rect class="cls-5" x="47.88" y="189.34" width="13.87" height="15.03"/><rect class="cls-5" x="94.13" y="189.34" width="13.87" height="15.03"/><path class="cls-2" d="M77.94,159.28A30.07,30.07,0,1,0,108,189.34,30.06,30.06,0,0,0,77.94,159.28Zm0,45.1a15,15,0,1,1,15-15A15,15,0,0,1,77.94,204.38Z"/></g><g id="pneu-2" data-name="pneu"><path class="cls-5" d="M74.54,239.56a30.07,30.07,0,1,0,30.07,30.07A30.06,30.06,0,0,0,74.54,239.56Zm0,45.1a15,15,0,1,1,15-15A15,15,0,0,1,74.54,284.66Z"/><rect class="cls-5" x="44.48" y="254.59" width="13.87" height="15.03"/><rect class="cls-5" x="90.72" y="254.59" width="13.87" height="15.03"/><path class="cls-2" d="M74.54,224.53a30.07,30.07,0,1,0,30.07,30.06A30.06,30.06,0,0,0,74.54,224.53Zm0,45.1a15,15,0,1,1,15-15A15,15,0,0,1,74.54,269.63Z"/></g><g id="pneu-3" data-name="pneu"><path class="cls-5" d="M71.14,304.81a30.07,30.07,0,1,0,30.07,30.07A30.06,30.06,0,0,0,71.14,304.81Zm0,45.1a15,15,0,1,1,15-15A15,15,0,0,1,71.14,349.91Z"/><rect class="cls-5" x="41.08" y="319.84" width="13.87" height="15.03"/><rect class="cls-5" x="87.32" y="319.84" width="13.87" height="15.03"/><path class="cls-2" d="M71.14,289.78a30.07,30.07,0,1,0,30.07,30.06A30.06,30.06,0,0,0,71.14,289.78Zm0,45.1a15,15,0,1,1,15-15A15,15,0,0,1,71.14,334.88Z"/></g><g id="pneu-4" data-name="pneu"><path class="cls-5" d="M67.74,370.06A30.07,30.07,0,1,0,97.8,400.13,30.07,30.07,0,0,0,67.74,370.06Zm0,45.1a15,15,0,1,1,15-15A15,15,0,0,1,67.74,415.16Z"/><rect class="cls-5" x="37.67" y="385.09" width="13.87" height="15.03"/><rect class="cls-5" x="83.92" y="385.09" width="13.87" height="15.03"/><path class="cls-2" d="M67.74,355A30.07,30.07,0,1,0,97.8,385.09,30.06,30.06,0,0,0,67.74,355Zm0,45.1a15,15,0,1,1,15-15A15,15,0,0,1,67.74,400.13Z"/></g><g id="pneu-5" data-name="pneu"><path class="cls-5" d="M67.74,437.45A30.07,30.07,0,1,0,97.8,467.52,30.07,30.07,0,0,0,67.74,437.45Zm0,45.1a15,15,0,1,1,15-15A15,15,0,0,1,67.74,482.55Z"/><rect class="cls-5" x="37.67" y="452.48" width="13.87" height="15.03"/><rect class="cls-5" x="83.92" y="452.48" width="13.87" height="15.03"/><path class="cls-2" d="M67.74,422.42A30.07,30.07,0,1,0,97.8,452.48,30.06,30.06,0,0,0,67.74,422.42Zm0,45.1a15,15,0,1,1,15-15A15,15,0,0,1,67.74,467.52Z"/></g><g id="pneu-6" data-name="pneu"><path class="cls-5" d="M67.74,504.84A30.07,30.07,0,1,0,97.8,534.91,30.07,30.07,0,0,0,67.74,504.84Zm0,45.1a15,15,0,1,1,15-15A15,15,0,0,1,67.74,549.94Z"/><rect class="cls-5" x="37.67" y="519.88" width="13.87" height="15.03"/><rect class="cls-5" x="83.92" y="519.88" width="13.87" height="15.03"/><path class="cls-2" d="M67.74,489.81A30.07,30.07,0,1,0,97.8,519.88,30.07,30.07,0,0,0,67.74,489.81Zm0,45.1a15,15,0,1,1,15-15A15,15,0,0,1,67.74,534.91Z"/></g><g id="pneu-7" data-name="pneu"><path class="cls-5" d="M67.74,609.23A30.07,30.07,0,1,0,97.8,639.3,30.07,30.07,0,0,0,67.74,609.23Zm0,45.1a15,15,0,1,1,15-15A15,15,0,0,1,67.74,654.33Z"/><rect class="cls-5" x="37.67" y="624.27" width="13.87" height="15.03"/><rect class="cls-5" x="83.92" y="624.27" width="13.87" height="15.03"/><path class="cls-2" d="M67.74,594.2A30.07,30.07,0,1,0,97.8,624.27,30.07,30.07,0,0,0,67.74,594.2Zm0,45.1a15,15,0,1,1,15-15A15,15,0,0,1,67.74,639.3Z"/></g><g id="pneu-8" data-name="pneu"><path class="cls-5" d="M82.77,674.7a30.07,30.07,0,1,0,30.07,30.07A30.06,30.06,0,0,0,82.77,674.7Zm0,45.1a15,15,0,1,1,15-15A15,15,0,0,1,82.77,719.8Z"/><rect class="cls-5" x="52.71" y="689.73" width="13.87" height="15.03"/><rect class="cls-5" x="98.95" y="689.73" width="13.87" height="15.03"/><path class="cls-2" d="M82.77,659.67a30.07,30.07,0,1,0,30.07,30.06A30.06,30.06,0,0,0,82.77,659.67Zm0,45.1a15,15,0,1,1,15-15A15,15,0,0,1,82.77,704.77Z"/></g><g id="pneu-9" data-name="pneu"><path class="cls-5" d="M78.2,744.86a30.07,30.07,0,1,0,30.07,30.07A30.06,30.06,0,0,0,78.2,744.86Zm0,45.1a15,15,0,1,1,15-15A15,15,0,0,1,78.2,790Z"/><rect class="cls-5" x="48.14" y="759.89" width="13.87" height="15.03"/><rect class="cls-5" x="94.39" y="759.89" width="13.87" height="15.03"/><path class="cls-2" d="M78.2,729.83a30.07,30.07,0,1,0,30.07,30.06A30.06,30.06,0,0,0,78.2,729.83Zm0,45.1a15,15,0,1,1,15-15A15,15,0,0,1,78.2,774.93Z"/></g></g></svg>