<svg xmlns="http://www.w3.org/2000/svg" viewBox="0 0 720 1280"><defs><style>.cls-1{fill:#899853;}.cls-2{fill:#e5e5e5;}.cls-3{fill:#df3e3e;}.cls-4{fill:#1fb2ba;}.cls-5{fill:#0e9ab3;}.cls-6{fill:#6b7741;}.cls-7{fill:#3d505c;}</style></defs><title>fondPlan de travail 1 copie 7</title><g id="décors"><rect class="cls-1" width="720" height="1280"/><path class="cls-2" d="M76.7,987.07V1280h62.63V835.87A213.83,213.83,0,0,0,76.7,987.07Z"/><path class="cls-2" d="M139.33,871.5A156.78,156.78,0,0,0,116.07,897h23.26V871.5Z"/><path class="cls-2" d="M91.52,948.09h47.81V922.56H101A157,157,0,0,0,91.52,948.09Z"/><path class="cls-2" d="M86,989.56v9.6h53.38V973.63H86.77A159.1,159.1,0,0,0,86,989.56Z"/><rect class="cls-2" x="85.95" y="1024.69" width="53.37" height="25.53"/><rect class="cls-2" x="85.95" y="1075.75" width="53.37" height="25.53"/><rect class="cls-2" x="85.95" y="1126.81" width="53.37" height="25.53"/><rect class="cls-2" x="85.95" y="1177.88" width="53.37" height="25.53"/><rect class="cls-2" x="85.95" y="1228.94" width="53.37" height="25.53"/><path class="cls-3" d="M101,922.56h38.37V897H116.07A157.25,157.25,0,0,0,101,922.56Z"/><path class="cls-3" d="M86.77,973.63h52.56V948.09H91.52A157.72,157.72,0,0,0,86.77,973.63Z"/><rect class="cls-3" x="85.95" y="999.16" width="53.37" height="25.53"/><rect class="cls-3" x="85.95" y="1050.22" width="53.37" height="25.53"/><rect class="cls-3" x="85.95" y="1101.28" width="53.37" height="25.53"/><rect class="cls-3" x="85.95" y="1152.35" width="53.37" height="25.53"/><rect class="cls-3" x="85.95" y="1203.41" width="53.37" height="25.53"/><rect class="cls-3" x="85.95" y="1254.47" width="53.37" height="25.53"/><path class="cls-2" d="M643.3,292.93V0H580.67V444.13A213.83,213.83,0,0,0,643.3,292.93Z"/><path class="cls-3" d="M628.48,331.91H580.67v25.53H619A157,157,0,0,0,628.48,331.91Z"/><path class="cls-3" d="M634.05,290.44v-9.6H580.67v25.53h52.56A159.1,159.1,0,0,0,634.05,290.44Z"/><rect class="cls-3" x="580.67" y="229.78" width="53.37" height="25.53"/><rect class="cls-3" x="580.67" y="178.72" width="53.37" height="25.53"/><rect class="cls-3" x="580.67" y="127.65" width="53.37" height="25.53"/><rect class="cls-3" x="580.67" y="76.59" width="53.37" height="25.53"/><rect class="cls-3" x="580.67" y="25.53" width="53.37" height="25.53"/><path class="cls-2" d="M619,357.44H580.67V383h23.26A157.25,157.25,0,0,0,619,357.44Z"/><path class="cls-2" d="M633.23,306.37H580.67v25.54h47.81A157.72,157.72,0,0,0,633.23,306.37Z"/><rect class="cls-2" x="580.67" y="255.31" width="53.37" height="25.53"/><rect class="cls-2" x="580.67" y="204.25" width="53.37" height="25.53"/><rect class="cls-2" x="580.67" y="153.19" width="53.37" height="25.53"/><rect class="cls-2" x="580.67" y="102.12" width="53.37" height="25.53"/><rect class="cls-2" x="580.67" y="51.06" width="53.37" height="25.53"/><rect class="cls-2" x="580.67" width="53.37" height="25.53"/><rect class="cls-4" x="43.25" y="233.64" width="60.75" height="288.74"/><rect class="cls-5" x="43.25" y="522.38" width="60.75" height="53.12"/><rect class="cls-6" y="286.77" width="43.25" height="288.74" transform="translate(43.25 862.27) rotate(180)"/><path class="cls-2" d="M87.34,507.35H61.58v-19h5v12.56h5.4V489.83h5v11.08h5.4V488.35h5Z"/><path class="cls-2" d="M87.34,481.27H61.58v-6.44h20.8V462.67h5Z"/><path class="cls-2" d="M87.34,454.39H77.86l-16.28,9.24v-6.72l10.68-5.76-10.68-5.76v-6.72l16.28,9.24h9.48Z"/><path class="cls-2" d="M87.75,426.63a27.62,27.62,0,0,1-.39,4.78,15.32,15.32,0,0,1-1.1,3.82H80.79a21.51,21.51,0,0,0,1.23-3.9,18.59,18.59,0,0,0,.48-4.06,10.74,10.74,0,0,0-.44-3.58,1.82,1.82,0,0,0-1.92-1.18,2.2,2.2,0,0,0-1.6.58A4.92,4.92,0,0,0,77.48,425c-.3.87-.67,2-1.1,3.54a17.21,17.21,0,0,1-1.78,4.2A5.77,5.77,0,0,1,72.22,435a7.85,7.85,0,0,1-3.43.68A6.61,6.61,0,0,1,63.14,433c-1.3-1.76-2-4.36-2-7.8a28.3,28.3,0,0,1,.34-4.36,23.37,23.37,0,0,1,.78-3.44h5.53a17.84,17.84,0,0,0-1,3.46,18.15,18.15,0,0,0-.33,3.38,12.8,12.8,0,0,0,.4,3.5,1.76,1.76,0,0,0,1.85,1.34,1.84,1.84,0,0,0,1.33-.48,4,4,0,0,0,.9-1.66c.27-.79.59-1.86,1-3.22a15.58,15.58,0,0,1,2-4.84,6.43,6.43,0,0,1,2.72-2.32,8.89,8.89,0,0,1,3.46-.64,6.67,6.67,0,0,1,5.5,2.64C87,420.31,87.75,423,87.75,426.63Z"/><path class="cls-2" d="M87.34,408.63H61.58v-19h5v12.56h5.4V391.11h5v11.08h5.4V389.63h5Zm-27.51-6.4L52,398.87v-5.28l7.85,3.68Z"/><path class="cls-2" d="M87.34,382.55H61.58v-19h5v12.56h5.4V365h5v11.08h5.4V363.55h5Z"/><path class="cls-2" d="M87.34,344.67h-3a15.26,15.26,0,0,1-4-2.78c-1.17-1.13-2.36-2.36-3.55-3.7l-2.69-2.92a6.85,6.85,0,0,0-1.92-1.54,4.93,4.93,0,0,0-2.2-.46c-2.18,0-3.27,1.42-3.27,4.24a14.06,14.06,0,0,0,.37,3.24,24.55,24.55,0,0,0,.94,3H62.46a23.2,23.2,0,0,1-.92-3.66,24.67,24.67,0,0,1-.36-4.18q0-4.51,2.28-6.88a8.51,8.51,0,0,1,6.4-2.36,7.32,7.32,0,0,1,4,1.08A16.85,16.85,0,0,1,77.46,331c.91,1.07,1.75,2,2.5,2.86A13.71,13.71,0,0,0,82.38,336v-9.56h5Z"/><path class="cls-2" d="M88.06,308a13.59,13.59,0,0,1-1.56,7,8.85,8.85,0,0,1-4.58,3.82A20,20,0,0,1,74.63,320a19.89,19.89,0,0,1-7.29-1.18A9,9,0,0,1,62.76,315a16.16,16.16,0,0,1,0-13.94,9.2,9.2,0,0,1,4.58-3.82,19.66,19.66,0,0,1,7.29-1.2,19.73,19.73,0,0,1,7.29,1.2,9,9,0,0,1,4.58,3.82A13.59,13.59,0,0,1,88.06,308Zm-5.52,0q0-3-2-4.22a11.91,11.91,0,0,0-5.89-1.18,12,12,0,0,0-5.91,1.18q-2,1.19-2,4.22t2,4.22a11.89,11.89,0,0,0,5.91,1.18,11.8,11.8,0,0,0,5.89-1.18Q82.55,311.08,82.54,308Z"/><path class="cls-2" d="M87.34,289.55h-3a15.26,15.26,0,0,1-4-2.78c-1.17-1.13-2.36-2.36-3.55-3.7l-2.69-2.92a6.85,6.85,0,0,0-1.92-1.54,4.93,4.93,0,0,0-2.2-.46c-2.18,0-3.27,1.42-3.27,4.24a14.06,14.06,0,0,0,.37,3.24,24.55,24.55,0,0,0,.94,3H62.46a23.2,23.2,0,0,1-.92-3.66,24.67,24.67,0,0,1-.36-4.18q0-4.51,2.28-6.88a8.51,8.51,0,0,1,6.4-2.36,7.32,7.32,0,0,1,4,1.08,16.85,16.85,0,0,1,3.58,3.24c.91,1.07,1.75,2,2.5,2.86a13.71,13.71,0,0,0,2.42,2.14v-9.56h5Z"/><path class="cls-2" d="M87.34,264.87h-3a15.46,15.46,0,0,1-4-2.77c-1.17-1.14-2.36-2.37-3.55-3.71s-2-2.2-2.69-2.91a6.51,6.51,0,0,0-1.92-1.54,4.8,4.8,0,0,0-2.2-.46q-3.27,0-3.27,4.23a14.06,14.06,0,0,0,.37,3.24,24.55,24.55,0,0,0,.94,3H62.46a23.2,23.2,0,0,1-.92-3.66,24.58,24.58,0,0,1-.36-4.18q0-4.51,2.28-6.88a8.51,8.51,0,0,1,6.4-2.36,7.32,7.32,0,0,1,4,1.08,16.85,16.85,0,0,1,3.58,3.24c.91,1.07,1.75,2,2.5,2.87a13.65,13.65,0,0,0,2.42,2.13v-9.56h5Z"/><rect class="cls-7" x="144.93" width="430" height="1280" transform="translate(719.85 1280) rotate(-180)"/><rect class="cls-2" x="135" width="10" height="1280" transform="translate(280 1280) rotate(-180)"/><rect class="cls-2" x="575" width="10" height="1280" transform="translate(1160 1280) rotate(-180)"/></g></svg>