<svg xmlns="http://www.w3.org/2000/svg" viewBox="0 0 720 1280"><defs><style>.cls-1{fill:#899853;}.cls-2{fill:#6b7741;}.cls-3{fill:#2e3845;}.cls-4{fill:#e5e5e5;}.cls-5{fill:#df3e3e;}.cls-6{fill:#3d505c;}.cls-7{fill:#1fb2ba;}.cls-8{fill:#5b6e7a;}.cls-9{fill:#475a66;}</style></defs><title>fondPlan de travail 1 copie 9</title><g id="décors"><rect class="cls-1" width="720" height="1280" transform="translate(720 1280) rotate(-180)"/><rect class="cls-2" y="213" width="50.66" height="20.25"/><rect class="cls-2" y="296.25" width="50.66" height="20.25"/><rect class="cls-2" y="379.5" width="50.66" height="20.25"/><rect class="cls-2" y="462.75" width="50.66" height="20.25"/><rect class="cls-2" y="546" width="50.66" height="20.25"/><rect class="cls-2" y="629.25" width="50.66" height="20.25"/><rect class="cls-2" y="712.5" width="50.66" height="20.25"/><rect class="cls-2" y="795.75" width="50.66" height="20.25"/><rect class="cls-2" y="879" width="50.66" height="20.25"/><rect class="cls-2" y="962.25" width="50.66" height="20.25"/><path class="cls-3" d="M40.54,919.38v53a10.13,10.13,0,0,0,20.25,0v-53Z"/><path class="cls-3" d="M40.54,836.13v53a10.13,10.13,0,0,0,20.25,0v-53Z"/><path class="cls-3" d="M40.54,752.88v53a10.13,10.13,0,0,0,20.25,0v-53Z"/><path class="cls-3" d="M40.54,669.63v53a10.13,10.13,0,0,0,20.25,0v-53Z"/><path class="cls-3" d="M40.54,586.38v53a10.13,10.13,0,0,0,20.25,0v-53Z"/><path class="cls-3" d="M40.54,503.13v53a10.13,10.13,0,0,0,20.25,0v-53Z"/><path class="cls-3" d="M40.54,419.88v53a10.13,10.13,0,0,0,20.25,0v-53Z"/><path class="cls-3" d="M40.54,336.63v53a10.13,10.13,0,0,0,20.25,0v-53Z"/><path class="cls-3" d="M40.54,253.38v53a10.13,10.13,0,0,0,20.25,0v-53Z"/><path class="cls-3" d="M40.54,170.13v53a10.13,10.13,0,0,0,20.25,0v-53Z"/><path class="cls-4" d="M643.3,987.07V1280H580.67V835.87A213.83,213.83,0,0,1,643.3,987.07Z"/><path class="cls-4" d="M580.67,871.5A156.78,156.78,0,0,1,603.93,897H580.67V871.5Z"/><path class="cls-4" d="M628.48,948.09H580.67V922.56H619A157,157,0,0,1,628.48,948.09Z"/><path class="cls-4" d="M634.05,989.56v9.6H580.67V973.63h52.56A159.1,159.1,0,0,1,634.05,989.56Z"/><rect class="cls-4" x="580.67" y="1024.69" width="53.37" height="25.53"/><rect class="cls-4" x="580.67" y="1075.75" width="53.37" height="25.53"/><rect class="cls-4" x="580.67" y="1126.81" width="53.37" height="25.53"/><rect class="cls-4" x="580.67" y="1177.88" width="53.37" height="25.53"/><rect class="cls-4" x="580.67" y="1228.94" width="53.37" height="25.53"/><path class="cls-5" d="M619,922.56H580.67V897h23.26A157.25,157.25,0,0,1,619,922.56Z"/><path class="cls-5" d="M633.23,973.63H580.67V948.09h47.81A157.72,157.72,0,0,1,633.23,973.63Z"/><rect class="cls-5" x="580.67" y="999.16" width="53.37" height="25.53"/><rect class="cls-5" x="580.67" y="1050.22" width="53.37" height="25.53"/><rect class="cls-5" x="580.67" y="1101.28" width="53.37" height="25.53"/><rect class="cls-5" x="580.67" y="1152.35" width="53.37" height="25.53"/><rect class="cls-5" x="580.67" y="1203.41" width="53.37" height="25.53"/><rect class="cls-5" x="580.67" y="1254.47" width="53.37" height="25.53"/><rect class="cls-6" x="634.55" y="463.55" width="60.75" height="288.74"/><rect class="cls-3" x="634.55" y="752.3" width="60.75" height="53.12"/><path class="cls-7" d="M678.64,737.26H652.88v-19h5v12.56h5.4V719.74h5v11.08h5.4V718.26h5Z"/><path class="cls-7" d="M678.64,711.18H652.88v-6.44h20.8V692.58h5Z"/><path class="cls-7" d="M678.64,684.3h-9.48l-16.28,9.24v-6.72l10.68-5.76-10.68-5.76v-6.72l16.28,9.24h9.48Z"/><path class="cls-7" d="M679,656.54a27.65,27.65,0,0,1-.38,4.78,15.62,15.62,0,0,1-1.1,3.82h-5.48a21.51,21.51,0,0,0,1.24-3.9,18.53,18.53,0,0,0,.48-4.06,10.74,10.74,0,0,0-.44-3.58,1.83,1.83,0,0,0-1.92-1.18,2.24,2.24,0,0,0-1.6.58,5,5,0,0,0-1.06,1.88c-.3.87-.67,2-1.1,3.54a17.21,17.21,0,0,1-1.78,4.2,5.77,5.77,0,0,1-2.38,2.24,7.73,7.73,0,0,1-3.44.68,6.61,6.61,0,0,1-5.64-2.64c-1.3-1.76-2-4.36-2-7.8a28.4,28.4,0,0,1,.34-4.36,23.37,23.37,0,0,1,.78-3.44h5.52a19.37,19.37,0,0,0-1,3.46,19,19,0,0,0-.32,3.38,12.8,12.8,0,0,0,.4,3.5A1.74,1.74,0,0,0,660,659a1.85,1.85,0,0,0,1.34-.48,4,4,0,0,0,.9-1.66c.27-.78.59-1.86,1-3.22a15.69,15.69,0,0,1,2-4.84,6.43,6.43,0,0,1,2.72-2.32,9.08,9.08,0,0,1,3.46-.64,6.69,6.69,0,0,1,5.5,2.64C678.34,650.22,679,652.92,679,656.54Z"/><path class="cls-7" d="M678.64,638.54H652.88v-19h5V632.1h5.4V621h5V632.1h5.4V619.54h5Zm-27.52-6.4-7.84-3.36V623.5l7.84,3.68Z"/><path class="cls-7" d="M678.64,612.46H652.88v-19h5V606h5.4V594.94h5V606h5.4V593.46h5Z"/><path class="cls-7" d="M678.64,574.59h-3a15.5,15.5,0,0,1-4-2.78q-1.75-1.71-3.56-3.7c-1.12-1.23-2-2.2-2.68-2.92a6.68,6.68,0,0,0-1.92-1.54,4.8,4.8,0,0,0-2.2-.46c-2.18,0-3.28,1.41-3.28,4.24a14.2,14.2,0,0,0,.38,3.24,25.09,25.09,0,0,0,.94,3h-5.56a22.15,22.15,0,0,1-.92-3.66,24.76,24.76,0,0,1-.36-4.18q0-4.53,2.28-6.88a8.47,8.47,0,0,1,6.4-2.36,7.32,7.32,0,0,1,4,1.08,16.85,16.85,0,0,1,3.58,3.24c.91,1.06,1.74,2,2.5,2.86a14.13,14.13,0,0,0,2.42,2.14v-9.56h5Z"/><path class="cls-7" d="M679.36,538a13.59,13.59,0,0,1-1.56,7,8.89,8.89,0,0,1-4.58,3.82,23.11,23.11,0,0,1-14.58,0,9.05,9.05,0,0,1-4.58-3.82,16.16,16.16,0,0,1,0-13.94,9.15,9.15,0,0,1,4.58-3.82,22.74,22.74,0,0,1,14.58,0A9,9,0,0,1,677.8,531,13.54,13.54,0,0,1,679.36,538Zm-5.52,0q0-3-2-4.22a15.34,15.34,0,0,0-11.8,0c-1.34.78-2,2.19-2,4.22s.68,3.43,2,4.22a15.34,15.34,0,0,0,11.8,0Q673.84,541,673.84,538Z"/><path class="cls-7" d="M678.64,519.47h-3a15.5,15.5,0,0,1-4-2.78q-1.75-1.71-3.56-3.7c-1.12-1.23-2-2.2-2.68-2.92a6.68,6.68,0,0,0-1.92-1.54,4.8,4.8,0,0,0-2.2-.46c-2.18,0-3.28,1.41-3.28,4.24a14.2,14.2,0,0,0,.38,3.24,25.09,25.09,0,0,0,.94,3h-5.56a22.15,22.15,0,0,1-.92-3.66,24.76,24.76,0,0,1-.36-4.18q0-4.53,2.28-6.88a8.47,8.47,0,0,1,6.4-2.36,7.32,7.32,0,0,1,4,1.08,16.85,16.85,0,0,1,3.58,3.24c.91,1.06,1.74,2,2.5,2.86a14.13,14.13,0,0,0,2.42,2.14v-9.56h5Z"/><path class="cls-7" d="M678.64,494.79h-3a15.5,15.5,0,0,1-4-2.78q-1.75-1.71-3.56-3.7c-1.12-1.23-2-2.2-2.68-2.92a6.68,6.68,0,0,0-1.92-1.54,4.8,4.8,0,0,0-2.2-.46c-2.18,0-3.28,1.41-3.28,4.24a14.2,14.2,0,0,0,.38,3.24,25.09,25.09,0,0,0,.94,3h-5.56a22.15,22.15,0,0,1-.92-3.66,24.76,24.76,0,0,1-.36-4.18q0-4.53,2.28-6.88a8.47,8.47,0,0,1,6.4-2.36,7.32,7.32,0,0,1,4,1.08,16.85,16.85,0,0,1,3.58,3.24c.91,1.06,1.74,2,2.5,2.86a14.13,14.13,0,0,0,2.42,2.14v-9.56h5Z"/><path class="cls-2" d="M634.55,516.68H591.3V733.3a236.15,236.15,0,0,1,43.25,32.42Z"/><path class="cls-2" d="M634.55,805.42v-39.7A236.15,236.15,0,0,0,591.3,733.3v72.12Z"/><rect class="cls-8" x="50.66" y="131.81" width="20.25" height="824.92" rx="10.12"/><path class="cls-9" d="M60.79,956.73h0A10.14,10.14,0,0,1,50.66,946.6V141.93a10.13,10.13,0,0,1,10.13-10.12h0"/><circle class="cls-9" cx="50.66" cy="170.13" r="10.13"/><circle class="cls-9" cx="50.66" cy="253.38" r="10.13"/><circle class="cls-9" cx="50.66" cy="336.63" r="10.13"/><circle class="cls-9" cx="50.66" cy="419.88" r="10.13"/><circle class="cls-9" cx="50.66" cy="503.13" r="10.13"/><circle class="cls-9" cx="50.66" cy="586.38" r="10.13"/><circle class="cls-9" cx="50.66" cy="669.63" r="10.13"/><circle class="cls-9" cx="50.66" cy="752.88" r="10.13"/><circle class="cls-9" cx="50.66" cy="836.13" r="10.13"/><circle class="cls-9" cx="50.66" cy="919.38" r="10.13"/><rect class="cls-6" x="144.93" width="430" height="1280" transform="translate(719.85 1280) rotate(-180)"/><rect class="cls-4" x="135" width="10" height="1280" transform="translate(280 1280) rotate(-180)"/><rect class="cls-4" x="575" width="10" height="1280" transform="translate(1160 1280) rotate(-180)"/></g></svg>