<?xml version="1.0" encoding="iso-8859-1"?>
<!-- Generator: Adobe Illustrator 25.4.0, SVG Export Plug-In . SVG Version: 6.00 Build 0)  -->
<svg version="1.1" id="Calque_1" xmlns="http://www.w3.org/2000/svg" xmlns:xlink="http://www.w3.org/1999/xlink" x="0px" y="0px"
	 width="121.055px" height="137.54px" viewBox="0 0 121.055 137.54" enable-background="new 0 0 121.055 137.54"
	 xml:space="preserve">
<g>
	
		<rect x="1.105" y="60.189" fill="#FFFFFF" stroke="#000000" stroke-width="2" stroke-linecap="round" stroke-linejoin="round" stroke-miterlimit="10" width="109.884" height="76.246"/>
	
		<rect x="1.105" y="60.189" fill="#FFFFFF" stroke="#000000" stroke-width="2" stroke-linecap="round" stroke-linejoin="round" stroke-miterlimit="10" width="109.884" height="76.246"/>
	
		<path fill="#FFFFFF" stroke="#000000" stroke-width="2" stroke-linecap="round" stroke-linejoin="round" stroke-miterlimit="10" d="
		M64.423,19.511l46.566,40.678H1.105l46.566-40.678C52.681,15.93,59.413,15.93,64.423,19.511z"/>
	<g>
		
			<rect x="18.081" y="10.356" transform="matrix(0.9709 0.2395 -0.2395 0.9709 17.1867 -13.2794)" fill="#FFFFFF" stroke="#000000" stroke-width="2" stroke-miterlimit="10" width="90.316" height="107.459"/>
		
			<rect x="26.746" y="16.954" transform="matrix(0.9709 0.2395 -0.2395 0.9709 15.0558 -14.0881)" fill="#FFFFFF" stroke="#000000" stroke-width="2" stroke-miterlimit="10" width="77.511" height="75.917"/>
	</g>
	<g>
		<g>
			<path fill="#FF6700" stroke="#000000" stroke-width="2" stroke-miterlimit="10" d="M56.528,85.575L39.415,52.842
				c-0.998-1.484-0.602-3.504,0.882-4.502l28.201-23.853c1.484-0.998,3.504-0.602,4.502,0.882l17.113,32.732
				c0.998,1.484,0.602,3.504-0.882,4.502L61.03,86.457C59.545,87.455,57.526,87.059,56.528,85.575z"/>
		</g>
		<g>
			<g>
				
					<path fill="#FFFFFF" stroke="#1D1D1B" stroke-width="2" stroke-linecap="round" stroke-linejoin="round" stroke-miterlimit="10" d="
					M62.296,58.634c1.052,0.206,1.983-0.758,1.703-1.792c-0.456-1.681-1.827-3.045-3.652-3.402c-1.825-0.358-3.61,0.388-4.666,1.772
					c-0.65,0.852-0.151,2.096,0.901,2.303L62.296,58.634z"/>
				<circle fill="#1D1D1B" cx="61.976" cy="56.725" r="2.05"/>
			</g>
			<g>
				
					<path fill="#FFFFFF" stroke="#1D1D1B" stroke-width="2" stroke-linecap="round" stroke-linejoin="round" stroke-miterlimit="10" d="
					M76.823,61.48c1.052,0.206,1.983-0.758,1.703-1.792c-0.456-1.681-1.827-3.045-3.652-3.402s-3.61,0.388-4.666,1.772
					c-0.65,0.852-0.151,2.096,0.901,2.303L76.823,61.48z"/>
				<circle fill="#1D1D1B" cx="76.503" cy="59.571" r="2.05"/>
			</g>
		</g>
	</g>
	
		<path fill="#FFFFFF" stroke="#000000" stroke-width="2" stroke-linecap="round" stroke-linejoin="round" stroke-miterlimit="10" d="
		M64.423,100.867c-5.01,3.58-11.742,3.58-16.751,0L1.105,60.189v76.246h109.884V60.189L64.423,100.867z"/>
</g>
<g>
</g>
<g>
</g>
<g>
</g>
<g>
</g>
<g>
</g>
<g>
</g>
</svg>
