<?xml version="1.0" encoding="iso-8859-1"?>
<!-- Generator: Adobe Illustrator 25.4.0, SVG Export Plug-In . SVG Version: 6.00 Build 0)  -->
<svg version="1.1" id="Calque_1" xmlns="http://www.w3.org/2000/svg" xmlns:xlink="http://www.w3.org/1999/xlink" x="0px" y="0px"
	 width="121.055px" height="137.54px" viewBox="0 0 121.055 137.54" enable-background="new 0 0 121.055 137.54"
	 xml:space="preserve">
<g>
	
		<rect x="1.105" y="60.189" fill="#FFFFFF" stroke="#000000" stroke-width="2" stroke-linecap="round" stroke-linejoin="round" stroke-miterlimit="10" width="109.884" height="76.246"/>
	
		<rect x="1.105" y="60.189" fill="#FFFFFF" stroke="#000000" stroke-width="2" stroke-linecap="round" stroke-linejoin="round" stroke-miterlimit="10" width="109.884" height="76.246"/>
	
		<path fill="#FFFFFF" stroke="#000000" stroke-width="2" stroke-linecap="round" stroke-linejoin="round" stroke-miterlimit="10" d="
		M64.423,19.511l46.566,40.678H1.105l46.566-40.678C52.681,15.93,59.413,15.93,64.423,19.511z"/>
	<g>
		
			<rect x="18.081" y="10.356" transform="matrix(0.9709 0.2395 -0.2395 0.9709 17.1867 -13.2794)" fill="#FFFFFF" stroke="#000000" stroke-width="2" stroke-miterlimit="10" width="90.316" height="107.459"/>
		
			<rect x="26.746" y="16.954" transform="matrix(0.9709 0.2395 -0.2395 0.9709 15.0558 -14.0881)" fill="#FFFFFF" stroke="#000000" stroke-width="2" stroke-miterlimit="10" width="77.511" height="75.917"/>
	</g>
	<g>
		
			<path fill="#89F798" stroke="#1D1D1B" stroke-width="2" stroke-linecap="round" stroke-linejoin="round" stroke-miterlimit="10" d="
			M58.137,87.277c-8.004-1.896-12.973-9.951-11.076-17.955l8.025-36.411c1.896-8.004,9.951-12.973,17.955-11.076
			c8.004,1.896,12.973,9.951,11.076,17.955l-8.025,36.411C74.196,84.205,66.141,89.174,58.137,87.277z"/>
		<g>
			
				<path fill="#FFFFFF" stroke="#1D1D1B" stroke-width="2" stroke-linecap="round" stroke-linejoin="round" stroke-miterlimit="10" d="
				M61.949,63.224c0.442-1.867-0.523-3.694-2.157-4.081s-3.316,0.812-3.758,2.679c-0.442,1.867,0.594,3.907,2.255,3.666
				C60.662,65.143,61.507,65.091,61.949,63.224z"/>
			<circle fill="#1D1D1B" cx="59.609" cy="63.21" r="2.242"/>
			
				<path fill="#FFFFFF" stroke="#1D1D1B" stroke-width="2" stroke-linecap="round" stroke-linejoin="round" stroke-miterlimit="10" d="
				M65.958,64.174c0.442-1.867,2.125-3.066,3.758-2.679s2.599,2.214,2.157,4.081c-0.442,1.867-2.284,3.225-3.66,2.264
				C66.247,66.467,65.516,66.04,65.958,64.174z"/>
			<circle fill="#1D1D1B" cx="68.016" cy="65.202" r="2.242"/>
		</g>
	</g>
	
		<path fill="#FFFFFF" stroke="#000000" stroke-width="2" stroke-linecap="round" stroke-linejoin="round" stroke-miterlimit="10" d="
		M64.423,100.867c-5.01,3.58-11.742,3.58-16.751,0L1.105,60.189v76.246h109.884V60.189L64.423,100.867z"/>
</g>
<g>
</g>
<g>
</g>
<g>
</g>
<g>
</g>
<g>
</g>
<g>
</g>
</svg>
