<?xml version="1.0" encoding="iso-8859-1"?>
<!-- Generator: Adobe Illustrator 25.4.0, SVG Export Plug-In . SVG Version: 6.00 Build 0)  -->
<svg version="1.1" id="Calque_1" xmlns="http://www.w3.org/2000/svg" xmlns:xlink="http://www.w3.org/1999/xlink" x="0px" y="0px"
	 width="121.055px" height="137.54px" viewBox="0 0 121.055 137.54" enable-background="new 0 0 121.055 137.54"
	 xml:space="preserve">
<g>
	
		<rect x="1.105" y="60.189" fill="#FFFFFF" stroke="#000000" stroke-width="2" stroke-linecap="round" stroke-linejoin="round" stroke-miterlimit="10" width="109.884" height="76.246"/>
	
		<rect x="1.105" y="60.189" fill="#FFFFFF" stroke="#000000" stroke-width="2" stroke-linecap="round" stroke-linejoin="round" stroke-miterlimit="10" width="109.884" height="76.246"/>
	
		<path fill="#FFFFFF" stroke="#000000" stroke-width="2" stroke-linecap="round" stroke-linejoin="round" stroke-miterlimit="10" d="
		M64.423,19.511l46.566,40.678H1.105l46.566-40.678C52.681,15.93,59.413,15.93,64.423,19.511z"/>
	<g>
		
			<rect x="18.081" y="10.356" transform="matrix(0.9709 0.2395 -0.2395 0.9709 17.1867 -13.2794)" fill="#FFFFFF" stroke="#000000" stroke-width="2" stroke-miterlimit="10" width="90.316" height="107.459"/>
		
			<rect x="26.746" y="16.954" transform="matrix(0.9709 0.2395 -0.2395 0.9709 15.0558 -14.0881)" fill="#FFFFFF" stroke="#000000" stroke-width="2" stroke-miterlimit="10" width="77.511" height="75.917"/>
	</g>
	<g>
		<g>
			
				<path fill="#FFABE5" stroke="#1D1D1B" stroke-width="2" stroke-linecap="round" stroke-linejoin="round" stroke-miterlimit="10" d="
				M88.98,80.917L32.854,67.074c-3.14-0.775-4.99-4.262-4.124-7.774l6.258-25.372c0.866-3.512,4.126-5.739,7.266-4.964L98.38,42.807
				c3.14,0.775,4.99,4.262,4.124,7.773l-6.258,25.372C95.38,79.464,92.12,81.692,88.98,80.917z"/>
		</g>
		<g>
			<g>
				
					<circle fill="#FFFFFF" stroke="#1D1D1B" stroke-width="2" stroke-linecap="round" stroke-linejoin="round" stroke-miterlimit="10" cx="63.519" cy="58.496" r="4.335"/>
				<circle fill="#1D1D1B" cx="64.794" cy="57.527" r="2.674"/>
			</g>
			<g>
				
					<circle fill="#FFFFFF" stroke="#1D1D1B" stroke-width="2" stroke-linecap="round" stroke-linejoin="round" stroke-miterlimit="10" cx="78.294" cy="62.141" r="4.335"/>
				<circle fill="#1D1D1B" cx="79.569" cy="61.171" r="2.674"/>
			</g>
		</g>
	</g>
	
		<path fill="#FFFFFF" stroke="#000000" stroke-width="2" stroke-linecap="round" stroke-linejoin="round" stroke-miterlimit="10" d="
		M64.423,100.867c-5.01,3.58-11.742,3.58-16.751,0L1.105,60.189v76.246h109.884V60.189L64.423,100.867z"/>
</g>
<g>
</g>
<g>
</g>
<g>
</g>
<g>
</g>
<g>
</g>
<g>
</g>
</svg>
