<?xml version="1.0" encoding="iso-8859-1"?>
<!-- Generator: Adobe Illustrator 25.4.0, SVG Export Plug-In . SVG Version: 6.00 Build 0)  -->
<svg version="1.1" id="Calque_1" xmlns="http://www.w3.org/2000/svg" xmlns:xlink="http://www.w3.org/1999/xlink" x="0px" y="0px"
	 width="121.055px" height="137.54px" viewBox="0 0 121.055 137.54" enable-background="new 0 0 121.055 137.54"
	 xml:space="preserve">
<g>
	
		<rect x="1.105" y="60.189" fill="#FFFFFF" stroke="#000000" stroke-width="2" stroke-linecap="round" stroke-linejoin="round" stroke-miterlimit="10" width="109.884" height="76.246"/>
	
		<rect x="1.105" y="60.189" fill="#FFFFFF" stroke="#000000" stroke-width="2" stroke-linecap="round" stroke-linejoin="round" stroke-miterlimit="10" width="109.884" height="76.246"/>
	
		<path fill="#FFFFFF" stroke="#000000" stroke-width="2" stroke-linecap="round" stroke-linejoin="round" stroke-miterlimit="10" d="
		M64.423,19.511l46.566,40.678H1.105l46.566-40.678C52.681,15.93,59.413,15.93,64.423,19.511z"/>
	<g>
		
			<rect x="18.081" y="10.356" transform="matrix(0.9709 0.2395 -0.2395 0.9709 17.1867 -13.2794)" fill="#FFFFFF" stroke="#000000" stroke-width="2" stroke-miterlimit="10" width="90.316" height="107.459"/>
		
			<rect x="26.746" y="16.954" transform="matrix(0.9709 0.2395 -0.2395 0.9709 15.0558 -14.0881)" fill="#FFFFFF" stroke="#000000" stroke-width="2" stroke-miterlimit="10" width="77.511" height="75.917"/>
	</g>
	<g>
		
			<path fill="#76C8FF" stroke="#1D1D1B" stroke-width="2" stroke-linecap="round" stroke-linejoin="round" stroke-miterlimit="10" d="
			M91.757,81.352L30.973,66.36c-0.92-0.227-1.692-0.89-2.117-1.819c-0.425-0.929-0.469-2.044-0.119-3.061
			c3.166-9.215,9.188-16.973,16.955-21.844c7.821-4.905,16.769-6.461,25.196-4.383s15.625,7.618,20.268,15.596
			c4.611,7.924,6.334,17.592,4.852,27.223c-0.164,1.063-0.721,2.03-1.529,2.655C93.669,81.351,92.677,81.579,91.757,81.352z"/>
		<g>
			<g>
				
					<path fill="#FFFFFF" stroke="#1D1D1B" stroke-width="2" stroke-linecap="round" stroke-linejoin="round" stroke-miterlimit="10" d="
					M70.293,59.056c-0.507,2.055-2.584,3.31-4.639,2.803c-2.055-0.507-3.31-2.584-2.803-4.639c0.507-2.055,2.208-1.789,4.263-1.282
					C69.17,56.446,70.8,57.001,70.293,59.056z"/>
				<circle fill="#1D1D1B" cx="66.519" cy="58.039" r="2.364"/>
			</g>
			<g>
				
					<path fill="#FFFFFF" stroke="#1D1D1B" stroke-width="2" stroke-linecap="round" stroke-linejoin="round" stroke-miterlimit="10" d="
					M83.039,62.2c-0.507,2.055-2.584,3.31-4.639,2.803c-2.055-0.507-3.31-2.584-2.803-4.639c0.507-2.055,2.208-1.789,4.263-1.282
					S83.546,60.145,83.039,62.2z"/>
				<circle fill="#1D1D1B" cx="79.265" cy="61.183" r="2.364"/>
			</g>
		</g>
	</g>
	
		<path fill="#FFFFFF" stroke="#000000" stroke-width="2" stroke-linecap="round" stroke-linejoin="round" stroke-miterlimit="10" d="
		M64.423,100.867c-5.01,3.58-11.742,3.58-16.751,0L1.105,60.189v76.246h109.884V60.189L64.423,100.867z"/>
</g>
<g>
</g>
<g>
</g>
<g>
</g>
<g>
</g>
<g>
</g>
<g>
</g>
</svg>
