<?xml version="1.0" encoding="iso-8859-1"?>
<!-- Generator: Adobe Illustrator 25.4.0, SVG Export Plug-In . SVG Version: 6.00 Build 0)  -->
<svg version="1.1" id="Calque_1" xmlns="http://www.w3.org/2000/svg" xmlns:xlink="http://www.w3.org/1999/xlink" x="0px" y="0px"
	 width="121.055px" height="137.54px" viewBox="0 0 121.055 137.54" enable-background="new 0 0 121.055 137.54"
	 xml:space="preserve">
<g>
	
		<rect x="1.105" y="60.189" fill="#FFFFFF" stroke="#000000" stroke-width="2" stroke-linecap="round" stroke-linejoin="round" stroke-miterlimit="10" width="109.884" height="76.246"/>
	
		<rect x="1.105" y="60.189" fill="#FFFFFF" stroke="#000000" stroke-width="2" stroke-linecap="round" stroke-linejoin="round" stroke-miterlimit="10" width="109.884" height="76.246"/>
	
		<path fill="#FFFFFF" stroke="#000000" stroke-width="2" stroke-linecap="round" stroke-linejoin="round" stroke-miterlimit="10" d="
		M64.423,19.511l46.566,40.678H1.105l46.566-40.678C52.681,15.93,59.413,15.93,64.423,19.511z"/>
	<g>
		
			<rect x="18.081" y="10.356" transform="matrix(0.9709 0.2395 -0.2395 0.9709 17.1867 -13.2794)" fill="#FFFFFF" stroke="#000000" stroke-width="2" stroke-miterlimit="10" width="90.316" height="107.459"/>
		
			<rect x="26.746" y="16.954" transform="matrix(0.9709 0.2395 -0.2395 0.9709 15.0558 -14.0881)" fill="#FFFFFF" stroke="#000000" stroke-width="2" stroke-miterlimit="10" width="77.511" height="75.917"/>
	</g>
	
		<path fill="#FFFFFF" stroke="#000000" stroke-width="2" stroke-linecap="round" stroke-linejoin="round" stroke-miterlimit="10" d="
		M64.423,100.867c-5.01,3.58-11.742,3.58-16.751,0L1.105,60.189v76.246h109.884V60.189L64.423,100.867z"/>
	<g>
		<polygon fill="#3154FF" stroke="#000000" stroke-width="2" stroke-miterlimit="10" points="89.912,78.068 97.731,45.247 
			73.216,22.065 40.883,31.704 33.064,64.526 57.579,87.708 		"/>
		<g>
			
				<path fill="#FFFFFF" stroke="#1D1D1B" stroke-width="2" stroke-linecap="round" stroke-linejoin="round" stroke-miterlimit="10" d="
				M59.9,52.478l-0.868,3.643c-0.121,0.507-0.328,0.997-0.661,1.398c-0.765,0.922-1.926,1.425-3.084,1.15l0,0
				c-1.053-0.251-1.818-1.078-2.131-2.089c-0.182-0.586-0.161-1.217-0.019-1.814l0.903-3.793c0.142-0.597,0.409-1.169,0.835-1.611
				c0.735-0.761,1.791-1.155,2.844-0.904l0,0c0.842,0.201,1.499,0.769,1.901,1.503C60.037,50.724,60.101,51.632,59.9,52.478z"/>
			<circle fill="#1D1D1B" cx="57.079" cy="51.247" r="3.002"/>
			
				<path fill="#FFFFFF" stroke="#1D1D1B" stroke-width="2" stroke-linecap="round" stroke-linejoin="round" stroke-miterlimit="10" d="
				M76.355,56.398l-0.868,3.643c-0.121,0.507-0.328,0.997-0.661,1.398c-0.765,0.922-1.926,1.425-3.084,1.15l0,0
				c-1.053-0.251-1.818-1.078-2.131-2.089c-0.182-0.586-0.161-1.217-0.019-1.814l0.903-3.793c0.142-0.597,0.409-1.169,0.835-1.611
				c0.735-0.761,1.791-1.155,2.844-0.904v0c0.842,0.201,1.499,0.769,1.901,1.503C76.493,54.645,76.557,55.552,76.355,56.398z"/>
			<circle fill="#1D1D1B" cx="73.535" cy="55.167" r="3.002"/>
		</g>
	</g>
</g>
<g>
</g>
<g>
</g>
<g>
</g>
<g>
</g>
<g>
</g>
<g>
</g>
</svg>
