<?xml version="1.0" encoding="iso-8859-1"?>
<!-- Generator: Adobe Illustrator 25.4.0, SVG Export Plug-In . SVG Version: 6.00 Build 0)  -->
<svg version="1.1" id="Calque_1" xmlns="http://www.w3.org/2000/svg" xmlns:xlink="http://www.w3.org/1999/xlink" x="0px" y="0px"
	 width="121.055px" height="137.54px" viewBox="0 0 121.055 137.54" enable-background="new 0 0 121.055 137.54"
	 xml:space="preserve">
<g>
	
		<rect x="1" y="60.294" fill="#FFFFFF" stroke="#000000" stroke-width="2" stroke-linecap="round" stroke-linejoin="round" stroke-miterlimit="10" width="109.884" height="76.246"/>
	
		<rect x="1" y="60.294" fill="#FFFFFF" stroke="#000000" stroke-width="2" stroke-linecap="round" stroke-linejoin="round" stroke-miterlimit="10" width="109.884" height="76.246"/>
	
		<path fill="#FFFFFF" stroke="#000000" stroke-width="2" stroke-linecap="round" stroke-linejoin="round" stroke-miterlimit="10" d="
		M64.318,19.616l46.566,40.678H1l46.566-40.678C52.576,16.035,59.308,16.035,64.318,19.616z"/>
	<g>
		
			<rect x="17.976" y="10.461" transform="matrix(0.9709 0.2395 -0.2395 0.9709 17.2088 -13.2511)" fill="#FFFFFF" stroke="#000000" stroke-width="2" stroke-miterlimit="10" width="90.316" height="107.459"/>
		
			<rect x="26.641" y="17.059" transform="matrix(0.9709 0.2395 -0.2395 0.9709 15.078 -14.0598)" fill="#FFFFFF" stroke="#000000" stroke-width="2" stroke-miterlimit="10" width="77.511" height="75.917"/>
	</g>
	<g>
		
			<circle fill="#FFEE1A" stroke="#1D1D1B" stroke-width="2" stroke-linecap="round" stroke-linejoin="round" stroke-miterlimit="10" cx="65.396" cy="55.017" r="31.717"/>
		
			<path fill="#FFFFFF" stroke="#1D1D1B" stroke-width="2" stroke-linecap="round" stroke-linejoin="round" stroke-miterlimit="10" d="
			M57.076,54.44l-4.107-1.013c-0.572-0.141-1.123-0.38-1.573-0.759c-1.035-0.872-1.593-2.189-1.271-3.494l0,0
			c0.293-1.187,1.234-2.044,2.379-2.389c0.664-0.2,1.376-0.171,2.049-0.005l4.276,1.055c0.673,0.166,1.317,0.472,1.812,0.958
			c0.853,0.837,1.288,2.034,0.996,3.221v0c-0.234,0.949-0.882,1.687-1.715,2.134C59.055,54.611,58.029,54.675,57.076,54.44z"/>
		<circle fill="#1D1D1B" cx="58.492" cy="51.265" r="3.391"/>
		
			<path fill="#FFFFFF" stroke="#1D1D1B" stroke-width="2" stroke-linecap="round" stroke-linejoin="round" stroke-miterlimit="10" d="
			M78.428,59.707l-4.107-1.013c-0.572-0.141-1.123-0.38-1.573-0.759c-1.035-0.872-1.593-2.189-1.271-3.494v0
			c0.293-1.187,1.234-2.044,2.379-2.389c0.664-0.2,1.376-0.171,2.049-0.005l4.276,1.055c0.673,0.166,1.317,0.472,1.812,0.958
			c0.853,0.837,1.288,2.034,0.996,3.221v0c-0.234,0.949-0.882,1.687-1.715,2.134C80.407,59.878,79.381,59.942,78.428,59.707z"/>
		<circle fill="#1D1D1B" cx="79.844" cy="56.532" r="3.391"/>
	</g>
	
		<path fill="#FFFFFF" stroke="#000000" stroke-width="2" stroke-linecap="round" stroke-linejoin="round" stroke-miterlimit="10" d="
		M64.318,100.972c-5.01,3.58-11.742,3.58-16.751,0L1,60.294v76.246h109.884V60.294L64.318,100.972z"/>
</g>
<g>
</g>
<g>
</g>
<g>
</g>
<g>
</g>
<g>
</g>
<g>
</g>
</svg>
