<?xml version="1.0" encoding="iso-8859-1"?>
<!-- Generator: Adobe Illustrator 25.4.0, SVG Export Plug-In . SVG Version: 6.00 Build 0)  -->
<svg version="1.1" id="Calque_1" xmlns="http://www.w3.org/2000/svg" xmlns:xlink="http://www.w3.org/1999/xlink" x="0px" y="0px"
	 width="121.055px" height="137.54px" viewBox="0 0 121.055 137.54" enable-background="new 0 0 121.055 137.54"
	 xml:space="preserve">
<g>
	
		<rect x="1.105" y="60.189" fill="#FFFFFF" stroke="#000000" stroke-width="2" stroke-linecap="round" stroke-linejoin="round" stroke-miterlimit="10" width="109.884" height="76.246"/>
	
		<rect x="1.105" y="60.189" fill="#FFFFFF" stroke="#000000" stroke-width="2" stroke-linecap="round" stroke-linejoin="round" stroke-miterlimit="10" width="109.884" height="76.246"/>
	
		<path fill="#FFFFFF" stroke="#000000" stroke-width="2" stroke-linecap="round" stroke-linejoin="round" stroke-miterlimit="10" d="
		M64.423,19.511l46.566,40.678H1.105l46.566-40.678C52.681,15.93,59.413,15.93,64.423,19.511z"/>
	<g>
		
			<rect x="18.081" y="10.356" transform="matrix(0.9709 0.2395 -0.2395 0.9709 17.1867 -13.2794)" fill="#FFFFFF" stroke="#000000" stroke-width="2" stroke-miterlimit="10" width="90.316" height="107.459"/>
		
			<rect x="26.746" y="16.954" transform="matrix(0.9709 0.2395 -0.2395 0.9709 15.0558 -14.0881)" fill="#FFFFFF" stroke="#000000" stroke-width="2" stroke-miterlimit="10" width="77.511" height="75.917"/>
	</g>
	<g>
		<path fill="#7352FF" stroke="#000000" stroke-width="2" stroke-miterlimit="10" d="M87.209,91.896L30.632,77.942
			c-1.839-0.454-3.254-1.809-3.787-3.627c-0.532-1.818-0.072-3.723,1.232-5.097l40.552-42.742c1.318-1.389,3.214-1.945,5.073-1.486
			c1.859,0.459,3.28,1.832,3.801,3.675l16.025,56.696c0.515,1.822,0.037,3.723-1.28,5.085C90.932,91.808,89.048,92.35,87.209,91.896
			z"/>
		<g>
			<g>
				
					<path fill="#FFFFFF" stroke="#1D1D1B" stroke-width="2" stroke-linecap="round" stroke-linejoin="round" stroke-miterlimit="10" d="
					M54.492,65.101c-0.039-0.01-0.078-0.02-0.117-0.03c-1.779-0.47-3.18-1.549-3.946-3.038c-0.523-1.017-0.123-2.265,0.894-2.789
					c1.017-0.523,2.265-0.123,2.789,0.894c0.285,0.554,0.876,0.811,1.321,0.928c1.005,0.27,2.048,0.066,2.534-0.252
					c0.957-0.627,2.24-0.357,2.866,0.599c0.626,0.957,0.358,2.24-0.599,2.867C58.717,65.273,56.476,65.591,54.492,65.101z"/>
				<circle fill="#1D1D1B" cx="58.942" cy="62.666" r="2.203"/>
			</g>
			<g>
				
					<path fill="#FFFFFF" stroke="#1D1D1B" stroke-width="2" stroke-linecap="round" stroke-linejoin="round" stroke-miterlimit="10" d="
					M71.71,69.348c-0.039-0.01-0.078-0.02-0.117-0.03c-1.779-0.47-3.18-1.549-3.946-3.038c-0.523-1.017-0.123-2.265,0.894-2.789
					c1.017-0.523,2.265-0.123,2.789,0.894c0.285,0.554,0.876,0.811,1.321,0.928c1.005,0.271,2.048,0.066,2.534-0.252
					c0.957-0.627,2.24-0.357,2.866,0.599c0.626,0.957,0.358,2.24-0.599,2.867C75.936,69.52,73.694,69.838,71.71,69.348z"/>
				<circle fill="#1D1D1B" cx="76.344" cy="66.959" r="2.203"/>
			</g>
		</g>
	</g>
	
		<path fill="#FFFFFF" stroke="#000000" stroke-width="2" stroke-linecap="round" stroke-linejoin="round" stroke-miterlimit="10" d="
		M64.423,100.867c-5.01,3.58-11.742,3.58-16.751,0L1.105,60.189v76.246h109.884V60.189L64.423,100.867z"/>
</g>
<g>
</g>
<g>
</g>
<g>
</g>
<g>
</g>
<g>
</g>
<g>
</g>
</svg>
