<svg width="335" height="216" viewBox="0 0 335 216" fill="none" xmlns="http://www.w3.org/2000/svg">
<path d="M50.5304 32.2338C50.5304 32.2338 54.9084 26.1699 66.0878 28.7123C77.2745 31.2621 82.0112 40.4822 84.0831 50.3087C86.1477 60.1352 87.9706 98.4694 87.9706 98.4694L35.4562 102.239C35.4562 102.239 34.2409 80.0292 33.9993 68.0183C33.7577 56.0073 35.3391 43.631 42.0233 36.4785C47.6678 30.4365 50.5304 32.2338 50.5304 32.2338Z" fill="#1B367A"/>
<path d="M75.1294 92.3836C75.1294 92.3836 86.9603 89.6511 93.2052 93.4502C99.4501 97.2493 118.017 121.556 120.608 124.895C123.2 128.234 124.261 128.847 124.261 128.847L128.369 127.481L130.499 149.662C130.499 149.662 124.635 152.27 119.708 150.385C114.532 148.413 97.4661 126.721 97.4661 126.721C97.4661 126.721 102.95 165.465 103.857 173.363C104.773 181.26 106.449 186.732 104.165 189.311C101.881 191.898 95.1819 200.709 70.0631 201.768C44.9444 202.835 37.4841 195.843 37.1767 192.957C36.8692 190.071 39.4609 165.304 40.0685 154.827C40.6762 144.343 40.0685 128.395 40.0685 128.395C40.0685 128.395 36.1078 162.272 35.2 170.477C34.2921 178.681 32.762 189.925 32.762 189.925C32.762 189.925 27.8935 193.417 20.8872 192.205C13.8808 190.992 13.8808 185.673 13.8808 185.673C13.8808 185.673 17.8416 144.044 20.5797 127.182C23.3178 110.32 26.4219 102.721 30.4412 98.6228C34.4605 94.5242 39.8489 94.1589 43.4143 93.7936C46.9796 93.4283 49.3517 92.5151 49.3517 92.5151C49.3517 92.5151 50.9038 102.999 63.3131 102.641C74.1996 102.312 75.1294 92.3836 75.1294 92.3836Z" fill="#9B0C2B"/>
<path d="M94.7939 98.0968C94.7939 98.0968 95.4821 106.104 98.1031 108.698C100.497 111.065 102.825 111.525 102.825 111.525L105.951 102.378L94.7939 98.0968Z" fill="#1B367A"/>
<path d="M222.979 106.535C221.962 103.971 220.856 100.837 222.979 94.853C225.103 88.8694 222.357 85.4356 222.372 81.1689C222.386 76.9023 224.671 73.3516 228.236 68.7196C231.801 64.0877 228.236 59.6676 227.24 54.6849C226.245 49.7023 226.384 42.6301 232.665 40.1826C238.947 37.7352 239.943 37.7352 242.373 33.8922C244.804 30.0493 256.217 26.2137 264.922 28.6977C273.627 31.1817 279.623 37.0265 280.48 45.5671C281.336 54.1078 280.194 60.3836 287.618 63.9415C295.041 67.4995 300.181 68.9023 301.608 74.2575C303.036 79.6128 299.471 82.1772 302.465 87.3059C305.459 92.4347 311.316 99.4995 309.318 108.004C307.319 116.508 303.182 117.647 303.182 117.647L222.979 106.535Z" fill="#1B367A"/>
<path d="M151.694 60.8292C151.694 60.8292 149.497 59.5215 148.487 53.7132C147.477 47.905 146.232 47.1306 145.097 44.2886C143.97 41.4393 142.718 36.7562 146.584 32.8475C150.449 28.9315 150.801 25.6731 151.694 23.0064C152.587 20.3397 156.745 17.9653 159.718 17.79C162.69 17.6146 165.187 19.3315 168.152 19.0977C171.124 18.8639 174.272 18.2648 177.003 20.6977C179.734 23.1306 178.247 24.9059 181.161 26.4475C184.075 27.989 187.165 29.7059 188.05 33.0886C188.944 36.4712 188.944 38.8968 187.516 40.9717C186.088 43.0466 186.733 44.705 187.274 46.7799C187.816 48.8548 187.457 50.5717 186.506 52.0548C185.554 53.5379 183.533 57.2712 182.582 59.3461C181.63 61.421 179.726 62.6046 179.726 62.6046L151.694 60.8292Z" fill="#9B0C2B"/>
<path d="M219.773 134.093L226.911 125.45C226.911 125.45 226.084 145.761 225.41 151.781C224.737 157.808 224.466 161.235 223.821 164.142C223.199 166.955 219.151 190.853 218.982 191.416C218.814 191.978 228.375 203.595 255.024 202.374C281.673 201.154 291.132 194.17 290.846 193.227C290.561 192.285 285.019 173.319 284.455 168.694C283.891 164.069 284.052 159.679 284.038 155.456C284.023 151.554 283.803 122.63 283.803 122.63C283.803 122.63 289.441 131.324 295.005 136.219C300.569 141.114 301.667 141.991 301.667 141.991C301.667 141.991 291.637 152.95 289.733 155.288C287.83 157.626 287.222 159.094 287.222 159.094C287.427 160.395 289.236 172.048 289.514 172.917C289.792 173.786 290.085 173.626 291.886 172.135C294.258 170.17 303.541 162.338 310.452 156.091C317.363 149.845 320.621 144.906 321.273 143.211C321.924 141.516 323.228 139.565 318.147 133.326C313.066 127.079 292.728 101.589 288.43 98.2064C284.126 94.8238 277.873 91.9598 273.7 91.1854C269.527 90.4037 266.921 90.2722 266.921 90.2722C266.921 90.2722 269.007 103.021 257.931 103.803C246.854 104.584 244.767 92.0986 244.767 92.0986C244.767 92.0986 237.468 91.1854 226.391 99.2512C215.314 107.317 212.964 112.387 212.964 112.387L219.773 134.093Z" fill="#F24A41"/>
<path d="M70.4365 76.9023C70.151 79.452 69.6971 82.3452 70.7806 86.4804C71.8568 90.6155 74.529 92.5443 75.554 92.7196C76.5789 92.8877 74.1923 103.664 61.9806 103.547C49.769 103.43 49.4176 92.8146 49.4176 92.8146C49.4176 92.8146 51.9141 90.5059 52.3168 86.7653C52.7194 83.0247 52.5437 76.5589 52.5437 76.5589L70.4365 76.9023Z" fill="#F4C3B8"/>
<path d="M219.451 160.365L224.275 161.534L223.821 164.135C223.821 164.135 228.58 166.999 230.403 168.753C232.226 170.506 232.226 172.522 230.857 175.386C229.488 178.25 227.211 178.44 225.059 177.6C222.906 176.76 217.503 173.436 217.503 173.436L219.451 160.365Z" fill="#F4C3B8"/>
<path d="M287.252 159.518L284.052 159.861V162.367C284.052 162.367 280.677 163.061 278.51 163.836C276.343 164.61 275.479 166.773 275.831 170.316C276.182 173.859 277.793 176.541 282.676 174.78C287.566 173.019 289.331 172.194 289.331 172.194L287.252 159.518Z" fill="#F4C3B8"/>
<path d="M267.28 90.5425C266.511 90.3671 264.827 89.7023 264.512 87.642C264.197 85.5817 264.336 81.1763 264.336 81.1763C264.336 81.1763 258.853 88.7306 253.889 88.7598C248.926 88.7964 246.056 87.7078 246.056 87.7078C246.056 87.7078 246.546 91.1489 245.704 91.8648C244.862 92.5808 244.094 92.2155 244.094 92.2155C244.094 92.2155 245.389 101.721 250.609 104.139C255.829 106.55 262.799 105.045 265.178 101.516C267.558 97.9872 267.28 90.5425 267.28 90.5425Z" fill="#F4C3B8"/>
<path d="M219.934 147.127C219.934 147.405 220.761 182.619 220.849 183.81C220.937 185.001 218.645 187.741 211.222 187.288C203.798 186.827 201.873 183.722 201.873 183.722L200.313 149.604L219.934 147.127Z" fill="#F9CBBD"/>
<path d="M180.561 83.2146C180.019 82.9005 176.776 83.0539 175.824 78.7288C174.872 74.4037 175.114 68.7269 175.114 68.7269L156.335 69.2749C156.335 69.2749 156.965 76.5151 154.681 80.0585C152.397 83.6018 149.475 82.8932 149.475 82.8932C149.475 82.8932 152.235 95.8027 165.018 95.8831C177.801 95.9635 180.561 83.2146 180.561 83.2146Z" fill="#F4C3B8"/>
<path d="M58.6495 40.6064C58.6495 40.6064 55.0842 44.9827 49.8349 47.6712C44.5857 50.3598 43.8755 55.3059 43.9268 56.8329C43.978 58.3598 44.183 57.2932 42.8579 57.1397C41.5328 56.9863 40.4639 58.0018 40.7201 60.6977C40.9763 63.3936 41.6865 66.2429 42.9091 66.9516C44.1317 67.6603 44.7467 66.9516 44.7467 66.9516C44.7467 66.9516 45.6106 72.4457 48.0559 76.3105C50.5011 80.1753 54.5277 84.5005 59.982 84.7489C65.4362 85.0046 70.1803 82.9735 73.2332 78.2393C75.6272 74.5279 76.7474 67.8137 76.7986 61.7644C76.8499 55.7151 76.6449 54.3416 75.986 53.4283C75.3271 52.5151 73.8775 49.1178 68.8039 48.0365C61.6073 46.5096 58.6495 40.6064 58.6495 40.6064Z" fill="#F9CBBD"/>
<path d="M149.812 44.8219C149.812 44.8219 148.319 43.2073 146.635 44.8219C144.951 46.4365 145.822 50.8566 147.008 53.0338C148.194 55.211 149.812 55.021 150.186 54.3415C150.559 53.6621 150.061 56.2703 151.123 60.9315C152.184 65.5927 155.669 74.7397 164.769 74.2429C173.869 73.7461 177.23 69.9543 179.66 64.6064C182.091 59.2584 182.589 56.0877 182.589 56.0877C182.589 56.0877 185.459 57.4539 186.579 54.0347C187.699 50.6155 187.45 47.2548 185.957 46.5096C184.463 45.7644 183.716 47.0064 183.716 47.0064C183.716 47.0064 184.961 42.3452 180.414 40.8475C175.868 39.3571 174.06 36.8073 173.313 34.8785C172.566 32.9498 172.94 35.8137 174.001 38.4877C175.063 41.1616 176.183 42.3452 176.183 42.3452C176.183 42.3452 173.189 41.7826 172.317 38.8603C171.446 35.9379 171.256 32.9498 168.518 30.7726C165.772 28.5954 162.91 28.2886 161.292 29.158C159.674 30.0274 158.048 31.3352 158.363 34.9443C158.678 38.5534 156.767 40.5772 154.439 41.0374C150.998 41.7169 149.812 44.8219 149.812 44.8219Z" fill="#F9CBBD"/>
<path d="M106.815 103.883C102.335 103.109 94.6695 100.53 91.3969 93.2237C88.1244 85.9178 87.2605 76.632 87.2605 65.2055C87.2605 53.779 87.2605 45.0922 86.6601 43.8064C86.0598 42.5205 81.9234 37.1872 80.2542 33.6584C78.5849 30.1297 75.6052 23.7808 75.2026 22.568C74.7999 21.3552 76.0079 19.6457 77.172 21.2091C78.336 22.7726 81.7696 28.6173 82.575 29.1215C83.3803 29.6256 83.0801 28.7196 82.326 27.105C81.572 25.4904 78.4385 18.937 77.7796 17.5781C77.1207 16.2192 77.7796 13.8959 79.5001 16.0146C81.2205 18.1333 85.4595 24.9863 85.9646 25.6438C86.4698 26.3014 87.6851 26.4986 86.6748 24.6356C85.6645 22.7726 81.1693 14.2027 80.5104 12.9899C79.8515 11.7772 81.0156 8.90593 82.7799 11.3753C84.5443 13.8447 89.1933 22.7141 89.5959 23.3717C89.9986 24.0292 89.8448 22.6192 88.8418 20.0475C87.8315 17.4758 86.3673 11.2292 86.0159 10.1187C85.6645 9.00821 87.7363 7.34976 88.9956 10.1187C90.2548 12.8877 90.965 15.8685 92.0265 18.7397C93.0881 21.611 93.8934 22.7726 94.3473 23.9854C94.8012 25.1982 95.2039 26.4036 95.2039 26.4036C95.2039 26.4036 96.2655 23.4301 96.6681 21.4648C97.0708 19.4995 97.7809 16.526 98.74 16.4749C99.6991 16.4237 100.658 16.8767 100.607 18.7909C100.556 20.705 100.255 23.3278 100.204 24.7379C100.153 26.1479 100.153 29.0703 99.6478 32.8036C99.1427 36.537 98.4325 38.3488 98.2861 39.7589C98.1323 41.1689 98.6888 43.3899 99.3477 45.5087C100.007 47.6274 104.553 63.3571 105.615 67.8429C106.676 72.3288 107.533 77.3187 107.84 81.1543C108.14 84.968 106.815 103.883 106.815 103.883Z" fill="#F9CBBD"/>
<path d="M75.3417 21.1945C75.1294 21.589 75.0562 22.1078 75.2026 22.5607C75.6053 23.7735 78.585 30.1224 80.2542 33.6511C81.9234 37.1799 86.0525 42.5059 86.6602 43.7991C87.2605 45.0849 87.2605 53.7717 87.2605 65.1982C87.2605 76.6247 88.1244 85.9105 91.3969 93.2164C94.6695 100.522 102.335 103.101 106.815 103.876C106.815 103.876 106.94 102.1 107.101 99.5288C107.101 99.5288 97.759 99.0027 93.9959 91.4265C90.2329 83.8575 90.738 76.8511 90.0205 67.5945C89.3104 58.3379 89.0395 46.1516 87.9706 43.7479C86.9017 41.3443 82.6335 36.1863 80.3127 31.7735C77.9919 27.3607 75.3417 21.1945 75.3417 21.1945Z" fill="#F4C3B8"/>
<path d="M237.995 46.926C237.79 47.4374 235.733 51.8502 235.733 60.5735C235.733 69.2968 235.528 78.4219 241.802 85.0922C248.076 91.7626 258.56 90.6301 263.085 84.274C267.609 77.9178 268.019 73.1909 268.019 73.1909C268.019 73.1909 270.486 74.0091 271.511 71.6493C272.536 69.2895 271.921 64.6721 270.999 61.6986C270.076 58.7251 266.987 58.4183 265.654 60.6758C264.315 62.9333 264.315 62.9333 264.315 62.9333C264.315 62.9333 265.032 59.5507 262.257 56.3653C259.483 53.1799 253.333 53.3626 249.614 53.4941C243.852 53.6986 237.995 46.926 237.995 46.926Z" fill="#F9CBBD"/>
<path d="M107.335 76.7781C107.357 76.9461 107.811 82.1041 106.669 92.011C105.527 101.911 101.595 110.334 100.739 110.619C99.8821 110.904 109.407 113.417 117.006 115.521C124.598 117.626 125.447 119.313 126.004 127.028C126.56 134.743 128.676 170.396 129.101 177.417C129.525 184.438 130.506 190.889 130.506 190.889C130.506 190.889 141.056 196.223 165.67 194.119C190.283 192.015 199.567 187.098 200.408 185.841C201.25 184.577 200.877 153.388 200.877 153.388C200.877 153.388 208.301 154.418 214.882 151.028C221.464 147.638 222.979 145.87 222.979 145.505C222.979 145.14 219.502 125.268 216.537 114.667C213.572 104.066 211.529 95.9123 199.479 90.2064C187.428 84.5005 180.275 82.1552 179.975 82.9735C179.668 83.7918 179.36 90.7178 171.395 93.779C163.429 96.8329 156.789 93.6913 153.421 89.6073C150.054 85.5233 149.849 82.5644 149.849 82.5644C149.849 82.5644 136.48 83.0758 129.32 82.7689C117.577 82.2502 107.335 76.7781 107.335 76.7781Z" fill="#5571E5"/>
<path d="M283.796 122.623V119.269C283.796 119.269 287.457 124.742 292.413 130.258C296.52 134.824 303.622 140.055 303.622 140.055L301.652 141.991C301.652 141.991 294.946 136.928 290.1 131.105C286.373 126.612 283.796 122.623 283.796 122.623Z" fill="#9B0C2B"/>
<path d="M226.904 125.45L227.248 120.132C227.248 120.132 224.37 124.734 222.826 126.561C221.164 128.533 220.007 129.622 220.007 129.622L220.681 132.99L226.904 125.45Z" fill="#9B0C2B"/>
<path d="M321.727 141.984C321.017 144.869 317.254 149.202 314.171 152.511C311.089 155.821 299.053 166.086 296.872 167.927C294.697 169.768 291.044 172.932 290.356 173.311C289.843 173.596 289.668 173.341 289.565 173.063C289.521 172.939 289.375 172.296 289.375 172.296C289.375 172.296 291.373 171.017 293.929 168.913C296.557 166.743 311.353 153.483 315.687 148.391C319.611 143.781 321.8 139.653 321.8 139.653C321.8 139.653 322.108 140.42 321.727 141.984Z" fill="#9B0C2B"/>
<path d="M97.4661 126.721L96.6315 121.753C96.6315 121.753 100.819 126.597 107.884 135.116C114.949 143.635 118.749 148.216 123.039 148.047C127.329 147.872 127.285 147.185 127.285 147.185L127.49 150.612C127.49 150.612 125.235 151.233 122.512 151.014C119.788 150.795 119.049 150.203 116.399 148.062C113.748 145.921 108.829 140.486 104.912 135.788C100.995 131.098 97.4661 126.721 97.4661 126.721Z" fill="#780720"/>
<path d="M40.0685 128.387L39.5487 124.004C39.5487 124.004 39.0509 125.056 37.6965 133.268C36.3421 141.479 33.2672 167.839 32.2715 174.7C31.2758 181.56 29.7164 191.416 29.7164 191.416C29.7164 191.416 30.9537 190.97 31.6712 190.561C32.396 190.152 32.7694 189.911 32.7694 189.911C32.7694 189.911 34.4532 177.352 35.0243 172.252C35.5953 167.153 40.0685 128.387 40.0685 128.387Z" fill="#780720"/>
<path d="M196.594 121.286C196.594 121.476 196.66 138.214 196.594 143.087C196.528 147.96 196.155 152.519 196.155 152.519C196.155 152.519 197.414 152.906 198.512 153.037C199.75 153.184 200.87 153.381 200.87 153.381C200.87 153.381 200.972 165.151 200.95 169.425C200.928 173.691 200.855 180.435 200.767 182.159C200.679 183.876 200.665 185.637 200.313 185.958C199.962 186.272 198.022 187.405 198.022 187.405C198.022 187.405 198.439 181.83 198.732 169.834C198.842 165.289 198.615 158.049 198.615 158.049C198.615 158.049 193.541 156.544 193.446 155.2C193.38 154.331 194.859 138.842 195.02 135.05C195.628 120.826 196.594 121.286 196.594 121.286Z" fill="#1B367A"/>
<path d="M126.472 134.115C126.472 134.115 126.956 120.694 125.755 117.421C124.554 114.148 121.545 113.279 114.986 111.752C108.426 110.225 101.815 106.9 101.815 106.9L100.365 110.473C100.365 110.473 101.376 111.386 110.966 113.863C122.299 116.785 123.793 118.035 124.891 120.511C126.26 123.573 126.472 134.115 126.472 134.115Z" fill="#1B367A"/>
<path d="M98.4472 41.9726C97.7517 38.9991 97.3563 38.1516 98.0958 35.8283C98.8352 33.505 100.058 26.9224 100.212 24.7233C100.365 22.5315 100.058 30.4804 99.6551 32.789C98.9743 36.7196 98.3227 38.6849 98.2934 39.7443C98.2641 40.811 98.4472 41.9726 98.4472 41.9726Z" fill="#F4C3B8"/>
</svg>
