<?xml version="1.0" encoding="utf-8"?>
<!-- Generator: Adobe Illustrator 26.0.3, SVG Export Plug-In . SVG Version: 6.00 Build 0)  -->
<svg version="1.1" id="Calque_1" xmlns="http://www.w3.org/2000/svg" xmlns:xlink="http://www.w3.org/1999/xlink" x="0px" y="0px"
	 viewBox="0 0 457.58 427.74" style="enable-background:new 0 0 457.58 427.74;" xml:space="preserve">
<style type="text/css">
	.st0{fill:#1B367A;}
	.st1{fill:#9B0C2B;}
	.st2{fill:#F24A41;}
	.st3{fill:#F4C3B8;}
	.st4{fill:#B57565;}
	.st5{fill:#F9CBBD;}
	.st6{fill:#C0826F;}
	.st7{fill:#5571E5;}
	.st8{fill:#780720;}
	.st9{fill:#FFFFFF;}
</style>
<path class="st0" d="M69.02,176.21c0,0,5.98-8.3,21.25-4.82c15.28,3.49,21.75,16.11,24.58,29.56c2.82,13.45,5.31,65.92,5.31,65.92
	l-71.73,5.16c0,0-1.66-30.4-1.99-46.84s1.83-33.38,10.96-43.17C65.11,173.75,69.02,176.21,69.02,176.21z"/>
<path class="st1" d="M102.62,258.54c0,0,16.16-3.74,24.69,1.46c8.53,5.2,33.89,38.47,37.43,43.04s4.99,5.41,4.99,5.41l5.61-1.87
	l2.91,30.36c0,0-8.01,3.57-14.74,0.99c-7.07-2.7-30.38-32.39-30.38-32.39s7.49,53.03,8.73,63.84s3.54,18.3,0.42,21.83
	s-12.27,15.6-46.58,17.05c-34.31,1.46-44.5-8.11-44.92-12.06s3.12-37.85,3.95-52.19c0.83-14.35,0-36.18,0-36.18
	s-5.41,46.37-6.65,57.6c-1.25,11.23-3.33,26.62-3.33,26.62s-6.65,4.78-16.22,3.12s-9.57-8.94-9.57-8.94s5.41-56.98,9.15-80.06
	s7.98-33.48,13.47-39.09s12.85-6.11,17.72-6.61s8.11-1.75,8.11-1.75s2.12,14.35,19.07,13.86
	C101.35,272.13,102.62,258.54,102.62,258.54z"/>
<path class="st0" d="M129.48,266.35c0,0,0.94,10.96,4.52,14.51c3.27,3.24,6.45,3.87,6.45,3.87l4.27-12.52L129.48,266.35z"/>
<path class="st0" d="M304.57,277.91c-1.39-3.51-2.9-7.8,0-15.99s-0.85-12.89-0.83-18.73c0.02-5.84,3.14-10.7,8.01-17.04
	s0-12.39-1.36-19.21c-1.36-6.82-1.17-16.5,7.41-19.85c8.58-3.35,9.94-3.35,13.26-8.61s18.91-10.51,30.8-7.11
	c11.89,3.4,20.08,11.4,21.25,23.09s-0.39,20.28,9.75,25.15s17.16,6.79,19.11,14.12s-2.92,10.84,1.17,17.86
	c4.09,7.02,12.09,16.69,9.36,28.33s-8.38,13.2-8.38,13.2L304.57,277.91z"/>
<path class="st1" d="M207.2,215.35c0,0-3-1.79-4.38-9.74c-1.38-7.95-3.08-9.01-4.63-12.9s-3.25-10.31,2.03-15.66
	c5.28-5.36,5.76-9.82,6.98-13.47c1.22-3.65,6.9-6.9,10.96-7.14s7.47,2.11,11.52,1.79c4.06-0.32,8.36-1.14,12.09,2.19
	s1.7,5.76,5.68,7.87s8.2,4.46,9.41,9.09c1.22,4.63,1.22,7.95-0.73,10.79c-1.95,2.84-1.07,5.11-0.33,7.95s0.25,5.19-1.05,7.22
	s-4.06,7.14-5.36,9.98s-3.9,4.46-3.9,4.46L207.2,215.35z"/>
<path class="st2" d="M300.19,315.63l9.75-11.83c0,0-1.13,27.8-2.05,36.04c-0.92,8.25-1.29,12.94-2.17,16.92
	c-0.85,3.85-6.38,36.56-6.61,37.33s12.83,16.67,49.23,15c36.41-1.68,49.32-11.23,48.93-12.52c-0.39-1.29-7.96-27.25-8.73-33.58
	c-0.77-6.33-0.55-12.34-0.57-18.12c-0.02-5.34-0.32-44.93-0.32-44.93s7.7,11.9,15.3,18.6c7.6,6.7,9.1,7.9,9.1,7.9
	s-13.7,15-16.3,18.2c-2.6,3.2-3.43,5.21-3.43,5.21c0.28,1.78,2.75,17.73,3.13,18.92s0.78,0.97,3.24-1.07
	c3.24-2.69,15.92-13.41,25.36-21.96c9.44-8.55,13.89-15.31,14.78-17.63s2.67-4.99-4.27-13.53c-6.94-8.55-34.72-43.44-40.59-48.07
	c-5.88-4.63-14.42-8.55-20.12-9.61c-5.7-1.07-9.26-1.25-9.26-1.25s2.85,17.45-12.28,18.52s-17.98-16.02-17.98-16.02
	s-9.97-1.25-25.1,9.79s-18.34,17.98-18.34,17.98L300.19,315.63z"/>
<path class="st3" d="M96.21,237.35c-0.39,3.49-1.01,7.45,0.47,13.11c1.47,5.66,5.12,8.3,6.52,8.54c1.4,0.23-1.86,14.98-18.54,14.82
	S67.5,259.13,67.5,259.13s3.41-3.16,3.96-8.28c0.54-5.12,0.31-13.97,0.31-13.97L96.21,237.35z"/>
<path class="st4" d="M299.75,351.59l6.59,1.6l-0.62,3.56c0,0,6.5,3.92,8.99,6.32s2.49,5.16,0.62,9.08
	c-1.87,3.92-4.98,4.18-7.92,3.03s-10.32-5.7-10.32-5.7L299.75,351.59z"/>
<path class="st4" d="M392.36,350.43l-4.37,0.47v3.43c0,0-4.61,0.95-7.57,2.01c-2.96,1.06-4.14,4.02-3.66,8.87
	c0.47,4.85,2.68,8.52,9.35,6.11c6.68-2.41,9.09-3.54,9.09-3.54L392.36,350.43z"/>
<path class="st4" d="M365.08,256.02c-1.05-0.24-3.35-1.15-3.78-3.97s-0.24-8.85-0.24-8.85s-7.49,10.34-14.27,10.38
	c-6.78,0.05-10.7-1.44-10.7-1.44s0.67,4.71-0.48,5.69s-2.2,0.48-2.2,0.48s1.77,13.01,8.9,16.32s16.65,1.24,19.9-3.59
	C365.46,266.21,365.08,256.02,365.08,256.02z"/>
<path class="st5" d="M300.41,333.47c0,0.38,1.13,48.58,1.25,50.21c0.13,1.63-3.01,5.38-13.15,4.76
	c-10.14-0.63-12.77-4.88-12.77-4.88l-2.13-46.7L300.41,333.47z"/>
<path class="st3" d="M246.63,245.98c-0.74-0.43-5.17-0.22-6.47-6.14c-1.29-5.93-0.97-13.69-0.97-13.69l-25.65,0.75
	c0,0,0.86,9.91-2.26,14.76c-3.13,4.85-7.11,3.88-7.11,3.88s3.77,17.67,21.23,17.78C242.86,263.44,246.63,245.98,246.63,245.98z"/>
<path class="st5" d="M80.11,187.67c0,0-4.87,5.99-12.04,9.67s-8.14,10.44-8.07,12.53s0.35,0.63-1.46,0.42s-3.27,1.18-2.92,4.87
	c0.35,3.69,1.32,7.59,2.99,8.56c1.67,0.97,2.51,0,2.51,0s1.18,7.52,4.52,12.81s8.84,11.21,16.29,11.55
	c7.45,0.35,13.93-2.43,18.1-8.91c3.27-5.08,4.8-14.27,4.87-22.55s-0.21-10.16-1.11-11.41s-2.88-5.9-9.81-7.38
	C84.15,195.75,80.11,187.67,80.11,187.67z"/>
<path class="st5" d="M204.63,193.44c0,0-2.04-2.21-4.34,0s-1.11,8.26,0.51,11.24c1.62,2.98,3.83,2.72,4.34,1.79
	s-0.17,2.64,1.28,9.02s6.21,18.9,18.64,18.22s17.02-5.87,20.34-13.19c3.32-7.32,4-11.66,4-11.66s3.92,1.87,5.45-2.81
	c1.53-4.68,1.19-9.28-0.85-10.3s-3.06,0.68-3.06,0.68s1.7-6.38-4.51-8.43c-6.21-2.04-8.68-5.53-9.7-8.17s-0.51,1.28,0.94,4.94
	s2.98,5.28,2.98,5.28s-4.09-0.77-5.28-4.77s-1.45-8.09-5.19-11.07c-3.75-2.98-7.66-3.4-9.87-2.21c-2.21,1.19-4.43,2.98-4,7.92
	s-2.18,7.71-5.36,8.34C206.25,189.19,204.63,193.44,204.63,193.44z"/>
<path class="st5" d="M145.9,274.28c-6.12-1.06-16.59-4.59-21.06-14.59s-5.65-22.71-5.65-38.35s0-27.53-0.82-29.29
	s-6.47-9.06-8.75-13.89s-6.35-13.52-6.9-15.18s1.1-4,2.69-1.86s6.28,10.14,7.38,10.83s0.69-0.55-0.34-2.76
	c-1.03-2.21-5.31-11.18-6.21-13.04s0-5.04,2.35-2.14s8.14,12.28,8.83,13.18c0.69,0.9,2.35,1.17,0.97-1.38s-7.52-14.28-8.42-15.94
	s0.69-5.59,3.1-2.21c2.41,3.38,8.76,15.52,9.31,16.42c0.55,0.9,0.34-1.03-1.03-4.55c-1.38-3.52-3.38-12.07-3.86-13.59
	s2.35-3.79,4.07,0s2.69,7.87,4.14,11.8s2.55,5.52,3.17,7.18c0.62,1.66,1.17,3.31,1.17,3.31s1.45-4.07,2-6.76
	c0.55-2.69,1.52-6.76,2.83-6.83s2.62,0.55,2.55,3.17c-0.07,2.62-0.48,6.21-0.55,8.14s-0.07,5.93-0.76,11.04
	c-0.69,5.11-1.66,7.59-1.86,9.52c-0.21,1.93,0.55,4.97,1.45,7.87s7.11,24.43,8.56,30.57c1.45,6.14,2.62,12.97,3.04,18.22
	C147.71,248.39,145.9,274.28,145.9,274.28z"/>
<path class="st3" d="M102.91,161.1c-0.29,0.54-0.39,1.25-0.19,1.87c0.55,1.66,4.62,10.35,6.9,15.18c2.28,4.83,7.92,12.12,8.75,13.89
	s0.82,13.65,0.82,29.29s1.18,28.35,5.65,38.35c4.47,10,14.94,13.53,21.06,14.59c0,0,0.17-2.43,0.39-5.95c0,0-12.76-0.72-17.9-11.09
	c-5.14-10.36-4.45-19.95-5.43-32.62c-0.97-12.67-1.34-29.35-2.8-32.64c-1.46-3.29-7.29-10.35-10.46-16.39
	C106.53,169.54,102.91,161.1,102.91,161.1z"/>
<path class="st6" d="M325.08,196.32c-0.28,0.7-3.09,6.74-3.09,18.68c0,11.94-0.28,24.43,8.29,33.56s22.89,7.58,29.07-1.12
	c6.18-8.71,6.74-15.17,6.74-15.17s3.37,1.12,4.77-2.11s0.56-9.55-0.7-13.62c-1.26-4.07-5.48-4.49-7.3-1.4
	c-1.83,3.09-1.83,3.09-1.83,3.09s0.98-4.63-2.81-8.99s-12.19-4.11-17.27-3.93C333.08,205.59,325.08,196.32,325.08,196.32z"/>
<path class="st7" d="M146.61,237.18c0.03,0.23,0.65,7.29-0.91,20.85c-1.56,13.55-6.93,25.08-8.1,25.47s11.84,3.83,22.22,6.71
	c10.37,2.88,11.53,5.19,12.29,15.75s3.65,59.36,4.23,68.97s1.92,18.44,1.92,18.44s14.41,7.3,48.03,4.42s46.3-9.61,47.45-11.33
	s0.64-44.42,0.64-44.42s10.14,1.41,19.13-3.23s11.06-7.06,11.06-7.56s-4.75-27.7-8.8-42.21c-4.05-14.51-6.84-25.67-23.3-33.48
	c-16.46-7.81-26.23-11.02-26.64-9.9c-0.42,1.12-0.84,10.6-11.72,14.79c-10.88,4.18-19.95-0.12-24.55-5.71s-4.88-9.64-4.88-9.64
	s-18.26,0.7-28.04,0.28C160.6,244.67,146.61,237.18,146.61,237.18z"/>
<path class="st1" d="M387.64,299.93v-4.59c0,0,5,7.49,11.77,15.04c5.61,6.25,15.31,13.41,15.31,13.41l-2.69,2.65
	c0,0-9.16-6.93-15.78-14.9C391.16,305.38,387.64,299.93,387.64,299.93z"/>
<path class="st1" d="M309.93,303.8l0.47-7.28c0,0-3.93,6.3-6.04,8.8c-2.27,2.7-3.85,4.19-3.85,4.19l0.92,4.61L309.93,303.8z"/>
<path class="st1" d="M439.45,326.43c-0.97,3.95-6.11,9.88-10.32,14.41c-4.21,4.53-20.65,18.58-23.63,21.1
	c-2.97,2.52-7.96,6.85-8.9,7.37c-0.7,0.39-0.94,0.04-1.08-0.34c-0.06-0.17-0.26-1.05-0.26-1.05s2.73-1.75,6.22-4.63
	c3.59-2.97,23.8-21.12,29.72-28.09c5.36-6.31,8.35-11.96,8.35-11.96S439.97,324.29,439.45,326.43z"/>
<path class="st8" d="M133.13,305.53l-1.14-6.8c0,0,5.72,6.63,15.37,18.29s14.84,17.93,20.7,17.7c5.86-0.24,5.8-1.18,5.8-1.18
	l0.28,4.69c0,0-3.08,0.85-6.8,0.55s-4.73-1.11-8.35-4.04c-3.63-2.93-10.34-10.37-15.69-16.8S133.13,305.53,133.13,305.53z"/>
<path class="st8" d="M54.73,307.82l-0.71-6c0,0-0.68,1.44-2.53,12.68s-6.05,47.32-7.41,56.71c-1.36,9.39-3.49,22.88-3.49,22.88
	s1.69-0.61,2.67-1.17s1.5-0.89,1.5-0.89s2.3-17.19,3.08-24.17S54.73,307.82,54.73,307.82z"/>
<path class="st0" d="M268.53,298.1c0,0.26,0.09,23.17,0,29.84c-0.09,6.67-0.6,12.91-0.6,12.91s1.72,0.53,3.22,0.71
	c1.69,0.2,3.22,0.47,3.22,0.47s0.14,16.11,0.11,21.96s-0.13,15.07-0.25,17.43c-0.12,2.35-0.14,4.76-0.62,5.2
	c-0.48,0.43-3.13,1.98-3.13,1.98s0.57-7.63,0.97-24.05c0.15-6.22-0.16-16.13-0.16-16.13s-6.93-2.06-7.06-3.9
	c-0.09-1.19,1.93-22.39,2.15-27.58C267.21,297.46,268.53,298.1,268.53,298.1z"/>
<path class="st0" d="M172.75,315.66c0,0,0.66-18.37-0.98-22.85s-5.75-5.67-14.71-7.76s-17.99-6.64-17.99-6.64l-1.98,4.89
	c0,0,1.38,1.25,14.48,4.64c15.48,4,17.52,5.71,19.02,9.1C172.46,301.23,172.75,315.66,172.75,315.66z"/>
<path class="st3" d="M134.47,189.54c-0.95-4.07-1.49-5.23-0.48-8.41c1.01-3.17,2.68-12.19,2.89-15.2c0.21-3-0.21,7.88-0.76,11.04
	c-0.93,5.38-1.82,8.07-1.86,9.52C134.22,187.95,134.47,189.54,134.47,189.54z"/>
<path class="st9" d="M122.45,105.8c-0.56,1.64-1.58,2.91-3.03,3.85c1.38-0.15,2.69-0.52,4-1.09c-0.29,0.45-0.58,0.82-0.88,1.19
	c-0.75,0.9-1.59,1.71-2.54,2.4c-0.12,0.09-0.13,0.19-0.12,0.32c0.11,3.67-0.73,7.13-2.44,10.36c-1.97,3.72-4.79,6.6-8.56,8.52
	c-1.9,0.97-3.91,1.57-6.02,1.88c-1.4,0.21-2.81,0.27-4.23,0.21c-2.62-0.13-5.13-0.75-7.51-1.85c-0.76-0.35-1.49-0.75-2.19-1.19
	c-0.06-0.03-0.12-0.06-0.16-0.12c5.07,0.56,8.88-1.64,10.44-2.96c-1.91-0.08-3.55-0.78-4.9-2.14c-0.79-0.79-1.35-1.72-1.7-2.82
	c1.08,0.19,2.12,0.16,3.19-0.12c-2.08-0.49-3.65-1.61-4.72-3.41c-0.64-1.07-1.05-2.65-0.95-3.66c0.49,0.25,0.99,0.47,1.52,0.62
	s1.07,0.23,1.67,0.26c-1.56-1.1-2.56-2.53-2.97-4.34c-0.41-1.81-0.14-3.53,0.78-5.17c0.12,0.14,0.23,0.27,0.34,0.4
	c2.84,3.27,6.36,5.44,10.56,6.5c1.18,0.3,2.38,0.47,3.6,0.54c0.14,0.01,0.19,0,0.16-0.17c-0.4-2.05-0.01-3.95,1.22-5.64
	c1.2-1.64,2.82-2.62,4.84-2.87c2.33-0.29,4.34,0.43,6.01,2.08c0.07,0.07,0.13,0.1,0.24,0.08c1.48-0.31,2.87-0.84,4.18-1.59
	c0.05-0.03,0.1-0.05,0.14-0.08C122.42,105.78,122.44,105.79,122.45,105.8z"/>
<path class="st9" d="M371.61,105.8c-0.56,1.64-1.58,2.91-3.03,3.85c1.38-0.15,2.69-0.52,4-1.09c-0.29,0.45-0.58,0.82-0.88,1.19
	c-0.75,0.9-1.59,1.71-2.54,2.4c-0.12,0.09-0.13,0.19-0.12,0.32c0.11,3.67-0.73,7.13-2.44,10.36c-1.97,3.72-4.79,6.6-8.56,8.52
	c-1.9,0.97-3.91,1.57-6.02,1.88c-1.4,0.21-2.81,0.27-4.23,0.21c-2.62-0.13-5.13-0.75-7.51-1.85c-0.76-0.35-1.49-0.75-2.19-1.19
	c-0.06-0.03-0.12-0.06-0.16-0.12c5.07,0.56,8.88-1.64,10.44-2.96c-1.91-0.08-3.55-0.78-4.9-2.14c-0.79-0.79-1.35-1.72-1.7-2.82
	c1.08,0.19,2.12,0.16,3.19-0.12c-2.08-0.49-3.65-1.61-4.72-3.41c-0.64-1.07-1.05-2.65-0.95-3.66c0.49,0.25,0.99,0.47,1.52,0.62
	s1.07,0.23,1.67,0.26c-1.56-1.1-2.56-2.53-2.97-4.34c-0.41-1.81-0.14-3.53,0.78-5.17c0.12,0.14,0.23,0.27,0.34,0.4
	c2.84,3.27,6.36,5.44,10.56,6.5c1.18,0.3,2.38,0.47,3.6,0.54c0.14,0.01,0.19,0,0.16-0.17c-0.4-2.05-0.01-3.95,1.22-5.64
	c1.2-1.64,2.82-2.62,4.84-2.87c2.33-0.29,4.34,0.43,6.01,2.08c0.07,0.07,0.13,0.1,0.24,0.08c1.48-0.31,2.87-0.84,4.18-1.59
	c0.05-0.03,0.1-0.05,0.14-0.08C371.58,105.78,371.6,105.79,371.61,105.8z"/>
<path class="st9" d="M247.75,28.39c-0.56,1.64-1.58,2.91-3.03,3.85c1.38-0.15,2.69-0.52,4-1.09c-0.29,0.45-0.58,0.82-0.88,1.19
	c-0.75,0.9-1.59,1.71-2.54,2.4c-0.12,0.09-0.13,0.19-0.12,0.32c0.11,3.67-0.73,7.13-2.44,10.36c-1.97,3.72-4.79,6.6-8.56,8.52
	c-1.9,0.97-3.91,1.57-6.02,1.88c-1.4,0.21-2.81,0.27-4.23,0.21c-2.62-0.13-5.13-0.75-7.51-1.85c-0.76-0.35-1.49-0.75-2.19-1.19
	c-0.06-0.03-0.12-0.06-0.16-0.12c5.07,0.56,8.88-1.64,10.44-2.96c-1.91-0.08-3.55-0.78-4.9-2.14c-0.79-0.79-1.35-1.72-1.7-2.82
	c1.08,0.19,2.12,0.16,3.19-0.12c-2.08-0.49-3.65-1.61-4.72-3.41c-0.64-1.07-1.05-2.65-0.95-3.66c0.49,0.25,0.99,0.47,1.52,0.62
	c0.53,0.15,1.07,0.23,1.67,0.26c-1.56-1.1-2.56-2.53-2.97-4.34s-0.14-3.53,0.78-5.17c0.12,0.14,0.23,0.27,0.34,0.4
	c2.84,3.27,6.36,5.44,10.56,6.5c1.18,0.3,2.38,0.47,3.6,0.54c0.14,0.01,0.19,0,0.16-0.17c-0.4-2.05-0.01-3.95,1.22-5.64
	c1.2-1.64,2.82-2.62,4.84-2.87c2.33-0.29,4.34,0.43,6.01,2.08c0.07,0.07,0.13,0.1,0.24,0.08c1.48-0.31,2.87-0.84,4.18-1.59
	c0.05-0.03,0.1-0.05,0.14-0.08C247.73,28.37,247.74,28.38,247.75,28.39z"/>
<rect x="121.24" y="78.92" transform="matrix(0.8377 -0.5462 0.5462 0.8377 -16.4823 104.7661)" class="st0" width="93.52" height="2.38"/>
<rect x="289.67" y="33.34" transform="matrix(0.5462 -0.8377 0.8377 0.5462 64.8955 279.993)" class="st0" width="2.38" height="93.52"/>
</svg>
