<svg width="273" height="358" viewBox="0 0 273 358" fill="none" xmlns="http://www.w3.org/2000/svg">
<path d="M107.49 71.82C107.49 71.82 99.02 79.51 96.34 84.68C93.66 89.85 91.7 97.08 92.85 103.11C94 109.14 96.77 124.55 100.03 128.96C103.29 133.37 106.06 134.32 106.06 134.32L107.04 164.92L75.93 166.36C75.93 166.36 72.44 128.91 72.73 108.61C73.02 88.31 81.82 65.03 99.65 56.83C103.67 54.98 119.86 47.51 131.05 52.62C142.24 57.73 156.04 71.38 160.82 86.89C165.61 102.4 162.89 159.96 162.79 161.4C162.69 162.84 133.56 162.77 133.56 162.77L132.67 137.05C132.67 137.05 142.53 131.02 144.06 119.05C145.59 107.08 144.35 88.61 144.35 88.61C144.35 88.61 136.69 84.01 131.23 80.09C125.77 76.17 119.93 71 119.93 71L107.49 71.82Z" fill="#1B367A"/>
<path d="M144.08 159.76C141.4 159.76 135.74 155.26 135.16 151.42C134.58 147.58 134.51 141.48 134.72 138.29C134.94 135.1 135.59 131.69 135.59 131.69H105.78C105.78 131.69 106.14 145.11 105.78 148.52C105.42 151.93 102.66 159.91 96.79 162.08C90.92 164.25 111.44 175.72 121.81 174.48C137.04 174.27 144.08 159.76 144.08 159.76Z" fill="#F4C3B8"/>
<path d="M135.32 135.02C132.81 137.2 129.72 140.27 119.39 140.63C109.06 140.99 101.86 133.15 99.22 127.59C96.18 121.19 92.71 111.98 92.53 101.13C92.34 90.28 96.93 80.47 105.76 73.42C114.59 66.37 116.89 68.36 119.96 70.99C123.03 73.62 129.45 78.97 133.47 81.64C137.5 84.31 144.37 88.61 144.37 88.61C144.37 88.61 145.67 108.22 144.77 115.14C143.54 124.51 141.86 129.34 135.32 135.02Z" fill="#F9CBBD"/>
<path d="M141.18 59.7201C139.32 58.7301 133.59 56.7301 131.77 56.2401C126.9 54.9501 108.03 53.6601 89.36 57.6901C86.25 58.3601 85.19 62.6501 86.18 64.8401C87.17 67.0301 96.21 73.5201 105.74 73.4201C115.27 73.3201 127.59 72.0301 128.38 72.0301C129.17 72.0301 131.46 74.7101 131.46 74.7101L141.18 59.7201Z" fill="#F4C3B8"/>
<path d="M142.67 57.7699C140.23 56.4699 128.67 73.1399 130.23 74.6899C131.79 76.2499 162.67 110.47 173.56 122.02C184.45 133.57 193.56 141.13 193.56 141.13C193.56 141.13 172.67 152.68 165.34 155.57C158.01 158.46 145.12 158.46 143.79 159.35C142.46 160.24 139.35 172.24 123.57 172.9C107.79 173.57 97.79 161.12 95.57 160.9C93.35 160.68 68.46 158.68 62.91 185.34C57.36 212 48.91 286.44 48.24 294.89C47.57 303.33 49.38 310.85 51.57 312.44C55.55 315.34 66.28 316.19 73.57 312.44C75.33 311.54 78.46 310 82.46 273.55C86.46 237.11 87.13 221.11 87.13 221.11C87.13 221.11 87.13 266 87.13 275.33C87.13 284.66 85.57 311.06 85.35 313.3C85.13 315.55 105.79 325.1 134.01 323.32C162.23 321.54 192.67 302.43 190.89 298.43C189.11 294.43 182.45 255.54 180.45 240.43C178.45 225.32 175.12 197.54 175.12 197.54C175.12 197.54 219.78 165.99 227.34 159.32C234.9 152.65 238.01 142.88 229.56 132.21C221.12 121.54 177.56 81.3199 168.01 73.7699C158.45 66.2499 145.12 59.0699 142.67 57.7699Z" fill="#9B0C2B"/>
<path d="M173.56 122.02C184.45 133.57 193.56 141.13 193.56 141.13L173.56 122.02Z" fill="#1B367A"/>
<path d="M173.92 190.09L175.11 197.57C175.11 197.57 219.77 166.02 227.33 159.35C232.28 154.99 235.32 149.29 234.46 142.88C234.46 142.88 229.54 150.68 223.35 156.24C217.16 161.8 191.78 180.09 187.14 183.27C182.49 186.45 173.92 190.09 173.92 190.09Z" fill="#780720"/>
<path d="M193.56 141.13C193.56 141.13 184.45 133.57 173.56 122.02C162.67 110.47 131.79 76.2501 130.23 74.6901C129.7 74.1601 130.68 71.8901 132.31 69.1801C132.31 69.1801 138.42 79.2101 159.6 100.73C180.78 122.25 197.77 137.98 197.77 137.98L193.56 141.13Z" fill="#780720"/>
<path d="M71.81 313.24C72.41 313 73 312.74 73.57 312.45C75.33 311.55 78.46 310.01 82.46 273.56C86.46 237.12 87.13 221.12 87.13 221.12C87.13 221.12 87.13 266.01 87.13 275.34C87.13 284.67 85.57 311.07 85.35 313.31C85.28 314.01 89.03 317.06 94.49 318.4C94.49 318.4 93.15 291.44 92.22 273.72C90.46 240.31 89.15 220.66 87.91 216.37C87.74 215.77 86.96 215.72 86.85 216.33C85.89 221.71 82.73 233.55 81.08 249.89C78.71 273.5 75.49 298.84 74.37 304.08C73.25 309.34 71.81 313.24 71.81 313.24Z" fill="#780720"/>
</svg>
