<svg width="221" height="46" viewBox="0 0 221 46" fill="none" xmlns="http://www.w3.org/2000/svg">
<rect y="1" width="221" height="45" fill="#EC8989"/>
<mask id="mask0_731_7" style="mask-type:alpha" maskUnits="userSpaceOnUse" x="175" y="0" width="38" height="38">
<path d="M212.693 19.1825C212.693 29.4186 204.395 37.7166 194.159 37.7166C183.923 37.7166 175.625 29.4186 175.625 19.1825C175.625 8.94643 183.923 0.648438 194.159 0.648438C204.395 0.648438 212.693 8.94643 212.693 19.1825Z" fill="#EC8989"/>
</mask>
<g mask="url(#mask0_731_7)">
<path d="M178.371 34.9865C178.371 34.9865 176.779 20.9444 186.378 15.6533L199.94 15.9409C199.94 15.9409 205.737 17.9236 206.515 34.6384L193.063 40.3654L178.371 34.9865Z" fill="#5154A1"/>
<path d="M199.706 15.4912C199.706 15.4912 196.598 19.4212 192.504 19.234L193.306 22.2634C193.306 22.2634 199.8 18.3042 199.706 15.4912Z" fill="#373684"/>
<path d="M199.706 15.4912C199.706 15.4912 196.361 19.1872 192.268 19.0001L193.057 22.0265C193.057 22.0265 198.964 18.8773 199.706 15.4912Z" fill="#FAF3ED"/>
<path d="M191.238 18.7803L190.609 21.871C190.609 21.871 187.027 17.8124 186.808 15.2129C186.805 15.2129 189.884 18.5727 191.238 18.7803Z" fill="#373684"/>
<path d="M191.068 18.7393L190.326 21.7307C190.326 21.7307 187.027 17.8095 186.817 15.2129C187.833 16.8021 189.319 18.0348 191.068 18.7393Z" fill="#FAF3ED"/>
<path d="M192.179 20.3983C192.179 20.3983 192.84 28.0389 193.261 29.7845C193.682 31.5302 191.726 33.3344 191.609 33.9367H189.089C189.089 33.9367 187.881 31.77 188.15 30.1354C188.419 28.5009 191.407 20.3018 191.407 20.3018L192.179 20.3983Z" fill="#C7361A"/>
<path d="M192.047 20.3504C192.047 20.3504 192.708 27.991 193.129 29.7367C193.55 31.4824 191.591 33.2865 191.474 33.8889H188.962C188.962 33.8889 187.752 31.7221 188.024 30.0876C188.296 28.453 191.272 20.251 191.272 20.251L192.047 20.3504Z" fill="#E8461C"/>
<path d="M191.267 20.0681L191.627 19.685C191.647 19.6618 191.673 19.6437 191.703 19.6324C191.731 19.6204 191.762 19.6154 191.793 19.6178C191.825 19.6203 191.856 19.6292 191.884 19.6441C191.911 19.6589 191.934 19.68 191.951 19.7055L192.323 20.226C192.339 20.2482 192.352 20.2738 192.358 20.3009C192.365 20.3281 192.365 20.3564 192.361 20.3839C192.357 20.4114 192.347 20.4378 192.332 20.4615C192.318 20.4851 192.299 20.5055 192.276 20.5213L191.755 20.8897C191.73 20.9078 191.701 20.9198 191.67 20.9248C191.64 20.9322 191.608 20.9322 191.577 20.9248C191.547 20.9161 191.519 20.9012 191.495 20.881C191.471 20.8603 191.452 20.8343 191.439 20.8049L191.226 20.2991C191.214 20.26 191.214 20.2183 191.226 20.1792C191.228 20.1389 191.243 20.1003 191.267 20.0681V20.0681Z" fill="#C7361A"/>
<path d="M191.2 20.0437L191.548 19.6724C191.569 19.6509 191.594 19.634 191.621 19.6227C191.65 19.6154 191.68 19.6154 191.709 19.6227C191.739 19.6231 191.768 19.6312 191.794 19.6461C191.821 19.6609 191.844 19.6819 191.861 19.7075L192.218 20.2104C192.233 20.2314 192.244 20.2553 192.25 20.2806C192.256 20.3066 192.256 20.3335 192.25 20.3595C192.246 20.3867 192.236 20.4127 192.221 20.4356C192.207 20.4584 192.189 20.4782 192.168 20.494L191.671 20.8479C191.645 20.865 191.616 20.8769 191.586 20.8829C191.556 20.8888 191.525 20.8888 191.495 20.8829C191.466 20.8742 191.439 20.8593 191.416 20.8391C191.393 20.8194 191.375 20.7943 191.364 20.766L191.159 20.2777C191.147 20.2405 191.147 20.2007 191.159 20.1636C191.16 20.1204 191.175 20.0786 191.2 20.0437V20.0437Z" fill="#E8461C"/>
<path d="M187.89 15.4612C187.563 15.4612 187.239 15.3967 186.937 15.2715C186.635 15.1462 186.36 14.9627 186.129 14.7313C185.898 14.4999 185.715 14.2252 185.59 13.923C185.465 13.6208 185.401 13.2969 185.401 12.9698C185.401 12.3099 185.664 11.677 186.13 11.2103C186.597 10.7436 187.23 10.4814 187.89 10.4814C188.55 10.4814 189.183 10.7435 189.65 11.2101C190.118 11.6767 190.38 12.3096 190.381 12.9698C190.381 13.6306 190.119 14.2642 189.651 14.7315C189.184 15.1987 188.551 15.4612 187.89 15.4612V15.4612Z" fill="#F39672"/>
<path d="M197.87 12.9919C197.867 12.5228 197.974 12.0595 198.18 11.6381C198.361 11.2576 198.65 10.9384 199.01 10.7199C199.335 10.5258 199.72 10.4581 200.092 10.5298C200.48 10.6131 200.828 10.8254 201.08 11.1322C201.373 11.4753 201.574 11.8866 201.665 12.3281C201.764 12.7936 201.757 13.2752 201.645 13.7376C201.544 14.1727 201.335 14.5752 201.036 14.9072C200.773 15.199 200.418 15.3936 200.031 15.4598C199.956 15.4715 199.881 15.4773 199.805 15.4774C199.679 15.478 199.553 15.4623 199.431 15.4306C198.963 15.2947 198.564 14.9864 198.314 14.568C198.021 14.0949 197.867 13.5486 197.87 12.9919V12.9919Z" fill="#F39672"/>
<path d="M193.318 19.038C189.437 19.038 186.3 16.2923 186.3 12.8974C186.3 9.50255 189.446 6.75684 193.318 6.75684C197.189 6.75684 200.335 9.50255 200.335 12.8974C200.335 16.2923 197.198 19.038 193.318 19.038Z" fill="#F39672"/>
<path d="M195.103 11.5036C195.119 11.5064 195.136 11.5064 195.153 11.5036L196.436 10.986C196.468 10.973 196.494 10.9479 196.507 10.9162C196.521 10.8845 196.522 10.8486 196.509 10.8164C196.496 10.7844 196.471 10.7588 196.439 10.7451C196.408 10.7314 196.372 10.7308 196.34 10.7433L195.053 11.2609C195.037 11.267 195.022 11.2763 195.01 11.2882C194.998 11.3002 194.988 11.3146 194.981 11.3305C194.975 11.3464 194.971 11.3634 194.972 11.3806C194.972 11.3978 194.976 11.4148 194.983 11.4305C194.994 11.453 195.011 11.4719 195.032 11.4848C195.053 11.4978 195.078 11.5043 195.103 11.5036V11.5036Z" fill="black"/>
<path d="M190.086 11.4056C190.113 11.4055 190.139 11.3974 190.161 11.3823C190.182 11.3671 190.199 11.3457 190.209 11.3208C190.215 11.3048 190.218 11.2879 190.217 11.2708C190.217 11.2538 190.213 11.237 190.206 11.2215C190.198 11.206 190.188 11.1921 190.176 11.1805C190.163 11.1689 190.149 11.16 190.133 11.1541L188.837 10.6629C188.805 10.6505 188.769 10.6516 188.737 10.6658C188.705 10.6801 188.68 10.7063 188.668 10.7389C188.655 10.7715 188.656 10.8076 188.671 10.8394C188.685 10.8712 188.711 10.896 188.744 10.9085L190.039 11.3997C190.054 11.4045 190.07 11.4065 190.086 11.4056V11.4056Z" fill="black"/>
<path d="M189.033 12.8294C188.941 12.8294 188.851 12.8114 188.767 12.7764C188.682 12.7414 188.605 12.6902 188.541 12.6255C188.476 12.5609 188.425 12.4842 188.39 12.3998C188.355 12.3153 188.337 12.2248 188.337 12.1334C188.338 11.9494 188.411 11.7731 188.542 11.6432C188.672 11.5133 188.849 11.4404 189.033 11.4404C189.217 11.4404 189.394 11.5133 189.524 11.6432C189.654 11.7731 189.728 11.9494 189.729 12.1334C189.729 12.2248 189.711 12.3153 189.676 12.3998C189.641 12.4842 189.59 12.5609 189.525 12.6255C189.46 12.6902 189.384 12.7414 189.299 12.7764C189.215 12.8114 189.124 12.8294 189.033 12.8294V12.8294Z" fill="#1B1935"/>
<path d="M196.095 12.8294C195.91 12.8294 195.733 12.756 195.603 12.6255C195.472 12.495 195.399 12.318 195.399 12.1334C195.4 11.9494 195.473 11.7731 195.604 11.6432C195.734 11.5133 195.911 11.4404 196.095 11.4404C196.279 11.4404 196.455 11.5134 196.585 11.6434C196.715 11.7734 196.788 11.9496 196.788 12.1334C196.788 12.2247 196.771 12.3151 196.736 12.3995C196.701 12.484 196.65 12.5607 196.586 12.6254C196.522 12.69 196.445 12.7413 196.361 12.7763C196.276 12.8113 196.186 12.8294 196.095 12.8294V12.8294Z" fill="#1B1935"/>
<path d="M201.08 13.9321C201.207 13.6326 201.272 13.3101 201.27 12.9847C201.268 12.6603 201.2 12.3398 201.068 12.0431C200.951 11.7717 200.766 11.5351 200.53 11.356C200.32 11.1956 200.064 11.1074 199.799 11.1045C199.799 11.1045 201.513 11.6688 201.08 13.9321Z" fill="#BC6A4F"/>
<path d="M199.799 10.5109C199.503 10.5136 199.213 10.5987 198.963 10.7565C199.071 10.6497 199.204 10.5714 199.35 10.5285C199.496 10.4857 199.65 10.4796 199.799 10.5109V10.5109Z" fill="#BC6A4F"/>
<path d="M190.332 17.6699C190.744 17.9886 191.565 18.205 192.513 18.205C193.46 18.205 194.267 17.9886 194.694 17.6699C194.694 17.6699 192.504 18.4974 190.332 17.6699Z" fill="#BC6A4F"/>
<path d="M196.572 6.49902H196.279V7.82071H196.572V6.49902Z" fill="#1D1D1B"/>
<path d="M197.65 7.00879H197.358V8.33047H197.65V7.00879Z" fill="#1D1D1B"/>
<path d="M198.68 7.82129H198.388V9.14297H198.68V7.82129Z" fill="#1D1D1B"/>
<path d="M199.528 8.82715H199.236V10.1488H199.528V8.82715Z" fill="#1D1D1B"/>
<path d="M195.58 6.11523H195.288V7.43692H195.58V6.11523Z" fill="#1D1D1B"/>
<path d="M194.34 5.83887H194.048V7.16055H194.34V5.83887Z" fill="#1D1D1B"/>
<path d="M193.464 5.83887H193.171V7.16055H193.464V5.83887Z" fill="#1D1D1B"/>
<path d="M192.49 5.83887H192.197V7.16055H192.49V5.83887Z" fill="#1D1D1B"/>
<path d="M191.466 6.11523H191.174V7.43692H191.466V6.11523Z" fill="#1D1D1B"/>
<path d="M190.533 6.49902H190.24V7.82071H190.533V6.49902Z" fill="#1D1D1B"/>
<path d="M189.574 7.00879H189.281V8.33047H189.574V7.00879Z" fill="#1D1D1B"/>
<path d="M188.708 7.58496H188.416V8.90664H188.708V7.58496Z" fill="#1D1D1B"/>
<path d="M195.08 14.0481C194.828 13.7972 194.488 13.6563 194.132 13.6563H190.898C190.722 13.656 190.548 13.6905 190.386 13.7577C190.223 13.8249 190.075 13.9236 189.951 14.0481C189.699 14.2993 189.557 14.6399 189.556 14.9955V19.481C189.734 19.4814 189.91 19.4467 190.074 19.379C190.238 19.3113 190.388 19.2119 190.513 19.0864C190.639 18.9609 190.739 18.8118 190.807 18.6477C190.875 18.4837 190.91 18.3077 190.91 18.1301V14.9955H194.126V18.1301C194.126 18.4884 194.269 18.832 194.522 19.0853C194.776 19.3387 195.119 19.481 195.477 19.481V14.9955C195.477 14.8192 195.441 14.6448 195.373 14.4822C195.305 14.3197 195.205 14.1721 195.08 14.0481V14.0481Z" fill="#D8690E"/>
<path d="M191.849 15.5371H192.55C192.597 15.5374 192.643 15.5517 192.682 15.5781C192.721 15.6045 192.751 15.6419 192.768 15.6854C192.786 15.729 192.79 15.7768 192.781 15.8228C192.771 15.8687 192.748 15.9108 192.714 15.9435L192.185 16.4582L191.679 15.9377C191.647 15.9043 191.626 15.8622 191.617 15.8167C191.609 15.7712 191.614 15.7242 191.632 15.6816C191.65 15.639 191.68 15.6026 191.719 15.5769C191.757 15.5512 191.802 15.5374 191.849 15.5371V15.5371Z" fill="#D8690E"/>
<path d="M183.966 31.585C183.966 31.585 184.457 33.7605 184.445 33.7166C184.613 33.6069 184.792 33.5166 184.98 33.4476C184.924 32.8344 184.827 32.2258 184.688 31.6259C184.519 31.547 184.34 31.49 184.156 31.4563C184.156 31.4563 184.448 25.4122 186.203 24.9561C184.188 25.3508 183.966 31.585 183.966 31.585Z" fill="#373684"/>
<path d="M183.966 31.5858C182.311 31.3431 179.954 31.4425 178.67 31.5244V31.2817C178.67 31.2817 182.823 31.1764 183.966 31.5858Z" fill="#373684"/>
<path d="M200.858 31.499C200.858 31.499 200.369 33.6775 200.378 33.6307C200.211 33.5214 200.033 33.4312 199.846 33.3616C199.903 32.7486 200.001 32.1401 200.138 31.5399C200.308 31.4629 200.487 31.4069 200.671 31.3733C200.671 31.3733 200.203 25.3263 198.451 24.873C200.469 25.2736 200.858 31.499 200.858 31.499Z" fill="#373684"/>
<path d="M200.858 31.499C202.516 31.2592 204.873 31.3557 206.157 31.4376V31.1978C206.157 31.1978 202.01 31.0925 200.858 31.499Z" fill="#373684"/>
<g clip-path="url(#clip0_731_7)">
<path d="M184.743 33.7399C184.743 33.7399 184.646 37.0779 183.439 36.0188C183.439 36.0188 182.828 37.6862 182.092 36.397C182.092 36.397 181.385 38.2882 180.76 36.3214C180.76 36.3214 179.941 38.7831 179.109 36.0945C179.109 36.0945 176.471 40.586 176.263 33.7399L184.743 33.7399Z" fill="#F39672"/>
<path d="M183.761 33.7397C183.762 34.5835 183.646 35.3968 183.437 36.0186C183.437 36.0186 183.858 35.3566 183.761 33.7397Z" fill="#BC6A4F"/>
<path d="M182.304 33.7394C182.37 35.5959 182.092 36.3965 182.092 36.3965C182.092 36.3965 182.513 35.7188 182.304 33.7394Z" fill="#BC6A4F"/>
<path d="M181.085 33.7398C181.066 34.6657 180.953 35.5589 180.76 36.3213C180.885 35.9918 180.98 35.5861 181.036 35.1374C181.093 34.6887 181.11 34.2097 181.085 33.7398Z" fill="#BC6A4F"/>
<path d="M178.793 34.607C178.855 35.1616 178.963 35.6704 179.107 36.0947C179.01 35.9484 178.93 35.7324 178.874 35.4702C178.819 35.208 178.791 34.9095 178.793 34.607V34.607Z" fill="#BC6A4F"/>
</g>
<g clip-path="url(#clip1_731_7)">
<path d="M208.721 33.7399C208.721 33.7399 208.624 37.0779 207.417 36.0188C207.417 36.0188 206.806 37.6862 206.07 36.397C206.07 36.397 205.363 38.2882 204.738 36.3214C204.738 36.3214 203.919 38.7831 203.087 36.0945C203.087 36.0945 200.449 40.586 200.241 33.7399L208.721 33.7399Z" fill="#F39672"/>
<path d="M207.739 33.7397C207.74 34.5835 207.624 35.3968 207.415 36.0186C207.415 36.0186 207.836 35.3566 207.739 33.7397Z" fill="#BC6A4F"/>
<path d="M206.282 33.7394C206.348 35.5959 206.07 36.3965 206.07 36.3965C206.07 36.3965 206.491 35.7188 206.282 33.7394Z" fill="#BC6A4F"/>
<path d="M205.063 33.7398C205.044 34.6657 204.931 35.5589 204.738 36.3213C204.863 35.9918 204.958 35.5861 205.014 35.1374C205.071 34.6887 205.088 34.2097 205.063 33.7398Z" fill="#BC6A4F"/>
<path d="M202.771 34.607C202.833 35.1616 202.941 35.6704 203.085 36.0947C202.988 35.9484 202.908 35.7324 202.852 35.4702C202.797 35.208 202.769 34.9095 202.771 34.607V34.607Z" fill="#BC6A4F"/>
</g>
<path d="M177.977 33.8894C177.977 33.8894 177.632 32.521 177.752 31.5911C177.752 31.5911 182.313 31.17 184.577 31.6964C184.577 31.6964 184.904 33.252 184.784 33.8894H177.977Z" fill="#FAF3ED"/>
<path d="M206.85 33.8025C206.85 33.8025 207.195 32.437 207.075 31.5071C207.075 31.5071 202.513 31.086 200.25 31.6124C200.25 31.6124 199.923 33.168 200.043 33.8025H206.85Z" fill="#FAF3ED"/>
</g>
<defs>
<clipPath id="clip0_731_7">
<rect width="8.47983" height="3.8013" fill="white" transform="translate(184.743 37.541) rotate(-180)"/>
</clipPath>
<clipPath id="clip1_731_7">
<rect width="8.47983" height="3.8013" fill="white" transform="translate(208.721 37.541) rotate(-180)"/>
</clipPath>
</defs>
</svg>
