<svg width="144" height="36" viewBox="0 0 144 36" fill="none" xmlns="http://www.w3.org/2000/svg">
<rect width="144" height="36" fill="#EC8989"/>
<mask id="mask0_431_15" style="mask-type:alpha" maskUnits="userSpaceOnUse" x="110" y="2" width="28" height="28">
<path d="M138 16C138 23.732 131.732 30 124 30C116.268 30 110 23.732 110 16C110 8.26801 116.268 2 124 2C131.732 2 138 8.26801 138 16Z" fill="#EC8989"/>
</mask>
<g mask="url(#mask0_431_15)">
<path d="M112.075 27.9366C112.075 27.9366 110.872 17.3297 118.123 13.333L128.367 13.5502C128.367 13.5502 132.745 15.0479 133.333 27.6737L123.172 31.9997L112.075 27.9366Z" fill="#5154A1"/>
<path d="M128.19 13.2109C128.19 13.2109 125.842 16.1795 122.75 16.0381L123.355 18.3264C123.355 18.3264 128.261 15.3358 128.19 13.2109Z" fill="#373684"/>
<path d="M128.19 13.2109C128.19 13.2109 125.664 16.0028 122.571 15.8614L123.168 18.1475C123.168 18.1475 127.629 15.7687 128.19 13.2109Z" fill="#FAF3ED"/>
<path d="M121.794 15.6957L121.319 18.0303C121.319 18.0303 118.613 14.9646 118.447 13.001C118.445 13.001 120.771 15.5388 121.794 15.6957Z" fill="#373684"/>
<path d="M121.666 15.6647L121.105 17.9243C121.105 17.9243 118.613 14.9623 118.454 13.001C119.221 14.2014 120.344 15.1325 121.666 15.6647Z" fill="#FAF3ED"/>
<path d="M122.505 16.9176C122.505 16.9176 123.004 22.6891 123.322 24.0077C123.64 25.3263 122.162 26.6891 122.074 27.1441H120.17C120.17 27.1441 119.258 25.5074 119.461 24.2727C119.664 23.0381 121.922 16.8447 121.922 16.8447L122.505 16.9176Z" fill="#C7361A"/>
<path d="M122.405 16.8817C122.405 16.8817 122.904 22.6532 123.222 23.9718C123.541 25.2904 122.061 26.6532 121.972 27.1082H120.075C120.075 27.1082 119.161 25.4715 119.366 24.2369C119.571 23.0022 121.82 16.8066 121.82 16.8066L122.405 16.8817Z" fill="#E8461C"/>
<path d="M121.816 16.6677L122.087 16.3784C122.103 16.3608 122.123 16.3472 122.145 16.3386C122.167 16.3296 122.19 16.3258 122.213 16.3276C122.237 16.3295 122.261 16.3363 122.282 16.3475C122.302 16.3587 122.32 16.3746 122.333 16.3939L122.613 16.787C122.626 16.8038 122.635 16.8231 122.64 16.8436C122.645 16.8642 122.646 16.8855 122.642 16.9063C122.639 16.9271 122.632 16.947 122.621 16.9649C122.61 16.9827 122.595 16.9981 122.578 17.0101L122.185 17.2884C122.166 17.302 122.144 17.3111 122.121 17.3149C122.097 17.3204 122.073 17.3204 122.05 17.3149C122.027 17.3083 122.006 17.297 121.988 17.2818C121.97 17.2661 121.955 17.2465 121.946 17.2243L121.785 16.8422C121.776 16.8127 121.776 16.7812 121.785 16.7517C121.787 16.7213 121.797 16.6921 121.816 16.6677Z" fill="#C7361A"/>
<path d="M121.765 16.6493L122.028 16.3688C122.044 16.3526 122.062 16.3399 122.083 16.3313C122.105 16.3258 122.128 16.3258 122.149 16.3313C122.172 16.3316 122.194 16.3377 122.213 16.349C122.234 16.3601 122.251 16.376 122.264 16.3953L122.534 16.7752C122.545 16.7911 122.554 16.8091 122.558 16.8283C122.562 16.8479 122.562 16.8683 122.558 16.8879C122.555 16.9084 122.547 16.928 122.536 16.9453C122.526 16.9625 122.512 16.9776 122.496 16.9895L122.121 17.2568C122.101 17.2697 122.079 17.2787 122.057 17.2833C122.034 17.2877 122.011 17.2877 121.988 17.2833C121.966 17.2767 121.946 17.2654 121.929 17.2501C121.911 17.2352 121.897 17.2163 121.889 17.1949L121.734 16.826C121.725 16.798 121.725 16.7679 121.734 16.7399C121.735 16.7073 121.746 16.6757 121.765 16.6493Z" fill="#E8461C"/>
<path d="M119.264 13.1883C119.017 13.1883 118.773 13.1396 118.545 13.045C118.316 12.9504 118.109 12.8117 117.935 12.6369C117.76 12.4622 117.622 12.2547 117.527 12.0264C117.433 11.7981 117.384 11.5534 117.385 11.3064C117.385 10.8079 117.583 10.3298 117.935 9.9773C118.288 9.6248 118.766 9.42676 119.264 9.42676C119.763 9.42676 120.241 9.62473 120.594 9.97716C120.947 10.3296 121.146 10.8077 121.146 11.3064C121.146 11.8055 120.948 12.2842 120.595 12.6371C120.242 12.99 119.764 13.1883 119.264 13.1883Z" fill="#F39672"/>
<path d="M126.803 11.3222C126.801 10.9679 126.881 10.6179 127.037 10.2996C127.174 10.0122 127.392 9.77109 127.664 9.60604C127.91 9.45941 128.201 9.40832 128.481 9.46247C128.775 9.52533 129.038 9.68573 129.228 9.91748C129.449 10.1766 129.601 10.4873 129.67 10.8208C129.744 11.1724 129.739 11.5362 129.654 11.8855C129.579 12.2142 129.42 12.5182 129.195 12.769C128.996 12.9894 128.728 13.1364 128.435 13.1864C128.379 13.1952 128.322 13.1996 128.265 13.1997C128.17 13.2001 128.075 13.1883 127.982 13.1643C127.629 13.0617 127.327 12.8288 127.139 12.5128C126.917 12.1554 126.8 11.7428 126.803 11.3222Z" fill="#F39672"/>
<path d="M123.364 15.89C120.433 15.89 118.063 13.816 118.063 11.2516C118.063 8.68729 120.44 6.61328 123.364 6.61328C126.289 6.61328 128.665 8.68729 128.665 11.2516C128.665 13.816 126.295 15.89 123.364 15.89Z" fill="#F39672"/>
<path d="M124.713 10.1982C124.726 10.2003 124.738 10.2003 124.751 10.1982L125.721 9.80727C125.745 9.79745 125.764 9.77851 125.774 9.75454C125.785 9.73057 125.785 9.70349 125.776 9.67916C125.766 9.65498 125.747 9.63564 125.723 9.62531C125.699 9.61497 125.672 9.61448 125.648 9.62395L124.676 10.0149C124.664 10.0195 124.653 10.0265 124.643 10.0356C124.634 10.0446 124.626 10.0555 124.621 10.0675C124.617 10.0795 124.614 10.0924 124.614 10.1054C124.614 10.1184 124.617 10.1312 124.623 10.143C124.631 10.16 124.644 10.1743 124.66 10.1841C124.676 10.1939 124.694 10.1988 124.713 10.1982Z" fill="black"/>
<path d="M120.923 10.1251C120.944 10.1251 120.963 10.1189 120.98 10.1075C120.996 10.0961 121.009 10.0799 121.016 10.061C121.021 10.049 121.023 10.0362 121.023 10.0233C121.022 10.0105 121.019 9.99781 121.014 9.98609C121.008 9.97438 121.001 9.96385 120.991 9.9551C120.982 9.94636 120.971 9.93957 120.959 9.93515L119.98 9.56408C119.956 9.55474 119.928 9.55555 119.904 9.56632C119.88 9.57708 119.862 9.59693 119.852 9.62151C119.843 9.64612 119.844 9.67342 119.854 9.69744C119.865 9.72145 119.885 9.74022 119.91 9.74962L120.888 10.1207C120.899 10.1243 120.911 10.1258 120.923 10.1251Z" fill="black"/>
<path d="M120.128 11.2005C120.059 11.2005 119.991 11.1869 119.927 11.1605C119.863 11.1341 119.805 11.0954 119.757 11.0466C119.708 10.9977 119.669 10.9398 119.643 10.876C119.616 10.8122 119.603 10.7439 119.603 10.6748C119.603 10.5358 119.659 10.4027 119.757 10.3046C119.856 10.2064 119.989 10.1514 120.128 10.1514C120.267 10.1514 120.401 10.2064 120.499 10.3046C120.598 10.4027 120.653 10.5358 120.654 10.6748C120.654 10.7439 120.64 10.8122 120.614 10.876C120.587 10.9398 120.549 10.9977 120.5 11.0466C120.451 11.0954 120.393 11.1341 120.329 11.1605C120.266 11.1869 120.197 11.2005 120.128 11.2005Z" fill="#1B1935"/>
<path d="M125.462 11.2005C125.323 11.2005 125.189 11.1451 125.09 11.0466C124.992 10.948 124.937 10.8143 124.937 10.6748C124.937 10.5358 124.993 10.4027 125.091 10.3046C125.19 10.2064 125.323 10.1514 125.462 10.1514C125.601 10.1514 125.734 10.2065 125.832 10.3047C125.931 10.4029 125.986 10.536 125.986 10.6748C125.986 10.7438 125.973 10.8121 125.946 10.8758C125.92 10.9396 125.882 10.9976 125.833 11.0464C125.784 11.0953 125.727 11.134 125.663 11.1605C125.599 11.1869 125.531 11.2005 125.462 11.2005Z" fill="#1B1935"/>
<path d="M129.228 12.0333C129.324 11.8071 129.373 11.5635 129.372 11.3177C129.37 11.0727 129.318 10.8306 129.219 10.6065C129.131 10.4015 128.991 10.2227 128.813 10.0874C128.654 9.9663 128.46 9.89969 128.261 9.89746C128.261 9.89746 129.555 10.3237 129.228 12.0333Z" fill="#BC6A4F"/>
<path d="M128.261 9.44945C128.037 9.45151 127.818 9.51574 127.629 9.63498C127.711 9.5543 127.811 9.49514 127.921 9.46277C128.032 9.43039 128.148 9.42582 128.261 9.44945Z" fill="#BC6A4F"/>
<path d="M121.109 14.8564C121.42 15.0972 122.041 15.2606 122.757 15.2606C123.472 15.2606 124.082 15.0972 124.404 14.8564C124.404 14.8564 122.75 15.4815 121.109 14.8564Z" fill="#BC6A4F"/>
<path d="M125.822 6.41895H125.602V7.4173H125.822V6.41895Z" fill="#1D1D1B"/>
<path d="M126.637 6.80371H126.417V7.80206H126.637V6.80371Z" fill="#1D1D1B"/>
<path d="M127.415 7.41699H127.194V8.41535H127.415V7.41699Z" fill="#1D1D1B"/>
<path d="M128.056 8.17676H127.835V9.17511H128.056V8.17676Z" fill="#1D1D1B"/>
<path d="M125.073 6.12793H124.853V7.12628H125.073V6.12793Z" fill="#1D1D1B"/>
<path d="M124.137 5.91992H123.916V6.91828H124.137V5.91992Z" fill="#1D1D1B"/>
<path d="M123.475 5.91992H123.254V6.91828H123.475V5.91992Z" fill="#1D1D1B"/>
<path d="M122.739 5.91992H122.518V6.91828H122.739V5.91992Z" fill="#1D1D1B"/>
<path d="M121.966 6.12793H121.745V7.12628H121.966V6.12793Z" fill="#1D1D1B"/>
<path d="M121.261 6.41895H121.04V7.4173H121.261V6.41895Z" fill="#1D1D1B"/>
<path d="M120.537 6.80371H120.316V7.80206H120.537V6.80371Z" fill="#1D1D1B"/>
<path d="M119.883 7.23828H119.662V8.23663H119.883V7.23828Z" fill="#1D1D1B"/>
<path d="M124.696 12.1202C124.506 11.9307 124.248 11.8243 123.98 11.8242H121.537C121.404 11.824 121.273 11.8501 121.15 11.9008C121.027 11.9516 120.916 12.0262 120.822 12.1202C120.632 12.3099 120.524 12.5672 120.523 12.8358V16.224C120.658 16.2243 120.791 16.1981 120.915 16.147C121.039 16.0958 121.151 16.0207 121.246 15.9259C121.341 15.8312 121.417 15.7186 121.468 15.5946C121.52 15.4707 121.546 15.3378 121.546 15.2036V12.8358H123.976V15.2036C123.976 15.4742 124.083 15.7338 124.275 15.9252C124.466 16.1165 124.726 16.224 124.996 16.224V12.8358C124.996 12.7026 124.969 12.5709 124.917 12.4481C124.866 12.3253 124.79 12.2139 124.696 12.1202Z" fill="#D8690E"/>
<path d="M122.255 13.2461H122.785C122.82 13.2463 122.855 13.2571 122.884 13.2771C122.914 13.297 122.936 13.3252 122.95 13.3581C122.963 13.391 122.966 13.4272 122.959 13.4619C122.952 13.4966 122.934 13.5283 122.909 13.5531L122.509 13.9418L122.127 13.5487C122.103 13.5234 122.086 13.4917 122.08 13.4573C122.074 13.4229 122.078 13.3874 122.091 13.3553C122.105 13.3231 122.128 13.2956 122.157 13.2762C122.186 13.2568 122.22 13.2463 122.255 13.2461Z" fill="#D8690E"/>
<path d="M116.301 25.3676C116.301 25.3676 116.672 27.0109 116.663 26.9778C116.79 26.8949 116.925 26.8267 117.067 26.7746C117.025 26.3114 116.951 25.8517 116.846 25.3985C116.718 25.3389 116.583 25.2959 116.444 25.2704C116.444 25.2704 116.665 20.7049 117.99 20.3604C116.469 20.6585 116.301 25.3676 116.301 25.3676Z" fill="#373684"/>
<path d="M116.301 25.3688C115.051 25.1854 113.27 25.2605 112.301 25.3224V25.1391C112.301 25.1391 115.437 25.0595 116.301 25.3688Z" fill="#373684"/>
<path d="M129.06 25.3019C129.06 25.3019 128.692 26.9474 128.698 26.9121C128.572 26.8296 128.437 26.7614 128.296 26.7089C128.34 26.2458 128.413 25.7861 128.517 25.3328C128.645 25.2746 128.781 25.2323 128.919 25.2069C128.919 25.2069 128.566 20.6392 127.243 20.2969C128.767 20.5995 129.06 25.3019 129.06 25.3019Z" fill="#373684"/>
<path d="M129.061 25.3022C130.313 25.1211 132.093 25.194 133.063 25.2558V25.0747C133.063 25.0747 129.931 24.9952 129.061 25.3022Z" fill="#373684"/>
<g clip-path="url(#clip0_431_15)">
<path d="M116.888 26.996C116.888 26.996 116.814 29.5173 115.902 28.7174C115.902 28.7174 115.441 29.9769 114.885 29.0031C114.885 29.0031 114.351 30.4316 113.879 28.9459C113.879 28.9459 113.26 30.8054 112.632 28.7745C112.632 28.7745 110.639 32.1673 110.482 26.996L116.888 26.996Z" fill="#F39672"/>
<path d="M116.146 26.9954C116.146 27.6328 116.058 28.2471 115.901 28.7168C115.901 28.7168 116.219 28.2168 116.146 26.9954Z" fill="#BC6A4F"/>
<path d="M115.045 26.9958C115.095 28.3982 114.885 29.0029 114.885 29.0029C114.885 29.0029 115.203 28.491 115.045 26.9958Z" fill="#BC6A4F"/>
<path d="M114.125 26.9954C114.11 27.6947 114.025 28.3694 113.879 28.9453C113.973 28.6964 114.045 28.39 114.088 28.051C114.13 27.7121 114.143 27.3503 114.125 26.9954Z" fill="#BC6A4F"/>
<path d="M112.393 27.6506C112.44 28.0695 112.521 28.4539 112.631 28.7744C112.558 28.6639 112.497 28.5007 112.455 28.3027C112.413 28.1046 112.392 27.8792 112.393 27.6506Z" fill="#BC6A4F"/>
</g>
<g clip-path="url(#clip1_431_15)">
<path d="M135 26.996C135 26.996 134.927 29.5173 134.015 28.7174C134.015 28.7174 133.553 29.9769 132.997 29.0031C132.997 29.0031 132.463 30.4316 131.991 28.9459C131.991 28.9459 131.372 30.8054 130.744 28.7745C130.744 28.7745 128.752 32.1673 128.595 26.996L135 26.996Z" fill="#F39672"/>
<path d="M134.258 26.9954C134.258 27.6328 134.171 28.2471 134.013 28.7168C134.013 28.7168 134.331 28.2168 134.258 26.9954Z" fill="#BC6A4F"/>
<path d="M133.158 26.9958C133.207 28.3982 132.997 29.0029 132.997 29.0029C132.997 29.0029 133.316 28.491 133.158 26.9958Z" fill="#BC6A4F"/>
<path d="M132.237 26.9954C132.222 27.6947 132.137 28.3694 131.991 28.9453C132.085 28.6964 132.157 28.39 132.2 28.051C132.243 27.7121 132.255 27.3503 132.237 26.9954Z" fill="#BC6A4F"/>
<path d="M130.506 27.6506C130.553 28.0695 130.634 28.4539 130.743 28.7744C130.67 28.6639 130.609 28.5007 130.567 28.3027C130.525 28.1046 130.504 27.8792 130.506 27.6506Z" fill="#BC6A4F"/>
</g>
<path d="M111.777 27.1085C111.777 27.1085 111.516 26.0748 111.607 25.3724C111.607 25.3724 115.053 25.0543 116.762 25.4519C116.762 25.4519 117.01 26.627 116.919 27.1085H111.777Z" fill="#FAF3ED"/>
<path d="M133.586 27.0428C133.586 27.0428 133.847 26.0113 133.756 25.3089C133.756 25.3089 130.311 24.9909 128.601 25.3884C128.601 25.3884 128.354 26.5635 128.444 27.0428H133.586Z" fill="#FAF3ED"/>
</g>
<defs>
<clipPath id="clip0_431_15">
<rect width="6.40537" height="2.87137" fill="white" transform="translate(116.888 29.8672) rotate(-180)"/>
</clipPath>
<clipPath id="clip1_431_15">
<rect width="6.40537" height="2.87137" fill="white" transform="translate(135 29.8672) rotate(-180)"/>
</clipPath>
</defs>
</svg>
