<svg width="119" height="36" viewBox="0 0 119 36" fill="none" xmlns="http://www.w3.org/2000/svg">
<rect width="118.8" height="36" fill="#46A882"/>
<mask id="mask0_431_16" style="mask-type:alpha" maskUnits="userSpaceOnUse" x="87" y="6" width="25" height="25">
<circle cx="99.1324" cy="18.1324" r="11.6324" fill="#A27474" stroke="black"/>
</mask>
<g mask="url(#mask0_431_16)">
<path d="M103.825 15.6279H103.9C106.208 15.7016 107.853 15.9814 108.084 17.2161C109.016 22.1598 109.383 28.937 109.383 28.937L99.4268 31.9391H99.0072L89.5107 28.937C89.5107 28.937 89.8087 18.2912 90.4298 17.2161C90.8494 16.5092 92.3181 15.6991 94.6094 15.623H103.841L103.825 15.6279Z" fill="#5154A1"/>
<path d="M95.3843 18.7568C95.3843 18.7568 99.4005 21.8088 102.982 18.7568C102.982 18.7568 101.308 29.6195 101.54 30.9269H97.1016L95.3843 18.7568Z" fill="#373684"/>
<g clip-path="url(#clip0_431_16)">
<path d="M111.056 27.5455C111.056 27.5455 110.987 29.9333 110.123 29.1757C110.123 29.1757 109.686 30.3685 109.159 29.4463C109.159 29.4463 108.654 30.7992 108.207 29.3922C108.207 29.3922 107.621 31.1532 107.026 29.2298C107.026 29.2298 105.139 32.443 104.99 27.5455L111.056 27.5455Z" fill="#EFB19E"/>
<path d="M110.354 27.5455C110.354 28.1492 110.271 28.731 110.122 29.1758C110.122 29.1758 110.423 28.7023 110.354 27.5455Z" fill="#BC6A4F"/>
<path d="M109.311 27.5455C109.359 28.8736 109.159 29.4463 109.159 29.4463C109.159 29.4463 109.461 28.9615 109.311 27.5455Z" fill="#BC6A4F"/>
<path d="M108.44 27.5449C108.426 28.2072 108.345 28.8462 108.206 29.3916C108.296 29.1559 108.364 28.8657 108.404 28.5447C108.445 28.2237 108.457 27.8811 108.44 27.5449Z" fill="#BC6A4F"/>
<path d="M106.8 28.1652C106.844 28.5619 106.921 28.9259 107.025 29.2295C106.955 29.1248 106.898 28.9703 106.858 28.7827C106.819 28.5952 106.798 28.3816 106.8 28.1652Z" fill="#BC6A4F"/>
</g>
<g clip-path="url(#clip1_431_16)">
<path d="M93.6943 27.3375C93.6943 27.3375 93.6249 29.7253 92.7613 28.9677C92.7613 28.9677 92.3241 30.1605 91.7976 29.2383C91.7976 29.2383 91.2918 30.5912 90.8447 29.1842C90.8447 29.1842 90.2587 30.9452 89.6637 29.0218C89.6637 29.0218 87.7769 32.235 87.6281 27.3375L93.6943 27.3375Z" fill="#EFB19E"/>
<path d="M92.9921 27.3375C92.9923 27.9411 92.9094 28.523 92.7598 28.9678C92.7598 28.9678 93.0615 28.4943 92.9921 27.3375Z" fill="#BC6A4F"/>
<path d="M91.9496 27.3375C91.9967 28.6656 91.7975 29.2383 91.7975 29.2383C91.7975 29.2383 92.0992 28.7535 91.9496 27.3375Z" fill="#BC6A4F"/>
<path d="M91.0777 27.3369C91.0638 27.9992 90.9831 28.6382 90.8447 29.1836C90.9342 28.9479 91.002 28.6576 91.0425 28.3367C91.083 28.0157 91.0951 27.673 91.0777 27.3369Z" fill="#BC6A4F"/>
<path d="M89.4383 27.9572C89.4826 28.3539 89.5595 28.7179 89.6631 29.0215C89.5936 28.9168 89.536 28.7623 89.4964 28.5747C89.4568 28.3872 89.4367 28.1736 89.4383 27.9572Z" fill="#BC6A4F"/>
</g>
<path d="M99.2226 27.05L99.2247 20.1094L98.9946 27.0583L99.2226 27.05Z" fill="#2C2C6B"/>
<path d="M102.982 19.5652C103.221 19.5652 103.415 19.3714 103.415 19.1322C103.415 18.8931 103.221 18.6992 102.982 18.6992C102.743 18.6992 102.549 18.8931 102.549 19.1322C102.549 19.3714 102.743 19.5652 102.982 19.5652Z" fill="#C9C5BD"/>
<path d="M103.013 19.4555C103.222 19.4555 103.392 19.286 103.392 19.0769C103.392 18.8678 103.222 18.6982 103.013 18.6982C102.804 18.6982 102.635 18.8678 102.635 19.0769C102.635 19.286 102.804 19.4555 103.013 19.4555Z" fill="white"/>
<path d="M102.465 20.1912C102.704 20.1912 102.898 19.9973 102.898 19.7582C102.898 19.5191 102.704 19.3252 102.465 19.3252C102.226 19.3252 102.032 19.5191 102.032 19.7582C102.032 19.9973 102.226 20.1912 102.465 20.1912Z" fill="#C9C5BD"/>
<path d="M102.497 20.0824C102.706 20.0824 102.875 19.9129 102.875 19.7038C102.875 19.4947 102.706 19.3252 102.497 19.3252C102.288 19.3252 102.118 19.4947 102.118 19.7038C102.118 19.9129 102.288 20.0824 102.497 20.0824Z" fill="white"/>
<path d="M102.032 20.8846C102.271 20.8846 102.465 20.6907 102.465 20.4516C102.465 20.2124 102.271 20.0186 102.032 20.0186C101.793 20.0186 101.599 20.2124 101.599 20.4516C101.599 20.6907 101.793 20.8846 102.032 20.8846Z" fill="#C9C5BD"/>
<path d="M102.063 20.7729C102.272 20.7729 102.442 20.6033 102.442 20.3942C102.442 20.1851 102.272 20.0156 102.063 20.0156C101.854 20.0156 101.685 20.1851 101.685 20.3942C101.685 20.6033 101.854 20.7729 102.063 20.7729Z" fill="white"/>
<path d="M101.729 21.6258C101.968 21.6258 102.162 21.4319 102.162 21.1928C102.162 20.9536 101.968 20.7598 101.729 20.7598C101.49 20.7598 101.296 20.9536 101.296 21.1928C101.296 21.4319 101.49 21.6258 101.729 21.6258Z" fill="#DDD5C5"/>
<path d="M101.76 21.517C101.969 21.517 102.139 21.3475 102.139 21.1384C102.139 20.9293 101.969 20.7598 101.76 20.7598C101.551 20.7598 101.381 20.9293 101.381 21.1384C101.381 21.3475 101.551 21.517 101.76 21.517Z" fill="white"/>
<path d="M101.296 22.2859C101.535 22.2859 101.729 22.0921 101.729 21.8529C101.729 21.6138 101.535 21.4199 101.296 21.4199C101.057 21.4199 100.863 21.6138 100.863 21.8529C100.863 22.0921 101.057 22.2859 101.296 22.2859Z" fill="#C9C5BD"/>
<path d="M101.327 22.1762C101.536 22.1762 101.706 22.0067 101.706 21.7976C101.706 21.5885 101.536 21.4189 101.327 21.4189C101.118 21.4189 100.949 21.5885 100.949 21.7976C100.949 22.0067 101.118 22.1762 101.327 22.1762Z" fill="white"/>
<path d="M100.838 22.8865C101.077 22.8865 101.271 22.6927 101.271 22.4535C101.271 22.2144 101.077 22.0205 100.838 22.0205C100.599 22.0205 100.405 22.2144 100.405 22.4535C100.405 22.6927 100.599 22.8865 100.838 22.8865Z" fill="#C9C5BD"/>
<path d="M100.869 22.7777C101.078 22.7777 101.248 22.6082 101.248 22.3991C101.248 22.19 101.078 22.0205 100.869 22.0205C100.66 22.0205 100.491 22.19 100.491 22.3991C100.491 22.6082 100.66 22.7777 100.869 22.7777Z" fill="white"/>
<path d="M100.273 23.4266C100.512 23.4266 100.706 23.2327 100.706 22.9935C100.706 22.7544 100.512 22.5605 100.273 22.5605C100.034 22.5605 99.8398 22.7544 99.8398 22.9935C99.8398 23.2327 100.034 23.4266 100.273 23.4266Z" fill="#C9C5BD"/>
<path d="M100.304 23.3178C100.513 23.3178 100.683 23.1483 100.683 22.9392C100.683 22.7301 100.513 22.5605 100.304 22.5605C100.095 22.5605 99.9253 22.7301 99.9253 22.9392C99.9253 23.1483 100.095 23.3178 100.304 23.3178Z" fill="white"/>
<path d="M99.6161 23.7215C99.8552 23.7215 100.049 23.5276 100.049 23.2885C100.049 23.0493 99.8552 22.8555 99.6161 22.8555C99.377 22.8555 99.1831 23.0493 99.1831 23.2885C99.1831 23.5276 99.377 23.7215 99.6161 23.7215Z" fill="#C9C5BD"/>
<path d="M99.6477 23.6107C99.8568 23.6107 100.026 23.4412 100.026 23.2321C100.026 23.023 99.8568 22.8535 99.6477 22.8535C99.4386 22.8535 99.269 23.023 99.269 23.2321C99.269 23.4412 99.4386 23.6107 99.6477 23.6107Z" fill="white"/>
<path d="M98.8148 23.6648C99.054 23.6648 99.2478 23.471 99.2478 23.2318C99.2478 22.9927 99.054 22.7988 98.8148 22.7988C98.5757 22.7988 98.3818 22.9927 98.3818 23.2318C98.3818 23.471 98.5757 23.6648 98.8148 23.6648Z" fill="#C9C5BD"/>
<path d="M98.8464 23.5561C99.0555 23.5561 99.225 23.3865 99.225 23.1774C99.225 22.9683 99.0555 22.7988 98.8464 22.7988C98.6373 22.7988 98.4678 22.9683 98.4678 23.1774C98.4678 23.3865 98.6373 23.5561 98.8464 23.5561Z" fill="white"/>
<path d="M98.1249 23.2332C98.364 23.2332 98.5579 23.0393 98.5579 22.8002C98.5579 22.561 98.364 22.3672 98.1249 22.3672C97.8858 22.3672 97.6919 22.561 97.6919 22.8002C97.6919 23.0393 97.8858 23.2332 98.1249 23.2332Z" fill="#C9C5BD"/>
<path d="M98.1584 23.1244C98.3675 23.1244 98.537 22.9549 98.537 22.7458C98.537 22.5367 98.3675 22.3672 98.1584 22.3672C97.9493 22.3672 97.7798 22.5367 97.7798 22.7458C97.7798 22.9549 97.9493 23.1244 98.1584 23.1244Z" fill="white"/>
<path d="M97.5434 22.7195C97.7825 22.7195 97.9764 22.5257 97.9764 22.2865C97.9764 22.0474 97.7825 21.8535 97.5434 21.8535C97.3042 21.8535 97.1104 22.0474 97.1104 22.2865C97.1104 22.5257 97.3042 22.7195 97.5434 22.7195Z" fill="#C9C5BD"/>
<path d="M97.5749 22.6088C97.784 22.6088 97.9535 22.4393 97.9535 22.2302C97.9535 22.0211 97.784 21.8516 97.5749 21.8516C97.3658 21.8516 97.1963 22.0211 97.1963 22.2302C97.1963 22.4393 97.3658 22.6088 97.5749 22.6088Z" fill="white"/>
<path d="M97.1102 22.0955C97.3494 22.0955 97.5432 21.9016 97.5432 21.6625C97.5432 21.4234 97.3494 21.2295 97.1102 21.2295C96.8711 21.2295 96.6772 21.4234 96.6772 21.6625C96.6772 21.9016 96.8711 22.0955 97.1102 22.0955Z" fill="#C9C5BD"/>
<path d="M97.1418 21.9867C97.3509 21.9867 97.5204 21.8172 97.5204 21.6081C97.5204 21.399 97.3509 21.2295 97.1418 21.2295C96.9327 21.2295 96.7632 21.399 96.7632 21.6081C96.7632 21.8172 96.9327 21.9867 97.1418 21.9867Z" fill="white"/>
<path d="M96.7631 21.4588C97.0022 21.4588 97.1961 21.2649 97.1961 21.0258C97.1961 20.7866 97.0022 20.5928 96.7631 20.5928C96.5239 20.5928 96.3301 20.7866 96.3301 21.0258C96.3301 21.2649 96.5239 21.4588 96.7631 21.4588Z" fill="#C9C5BD"/>
<path d="M96.7946 21.35C97.0037 21.35 97.1732 21.1805 97.1732 20.9714C97.1732 20.7623 97.0037 20.5928 96.7946 20.5928C96.5855 20.5928 96.416 20.7623 96.416 20.9714C96.416 21.1805 96.5855 21.35 96.7946 21.35Z" fill="white"/>
<path d="M96.391 20.8992C96.6301 20.8992 96.824 20.7053 96.824 20.4662C96.824 20.2271 96.6301 20.0332 96.391 20.0332C96.1519 20.0332 95.958 20.2271 95.958 20.4662C95.958 20.7053 96.1519 20.8992 96.391 20.8992Z" fill="#C9C5BD"/>
<path d="M96.4221 20.7904C96.6312 20.7904 96.8007 20.6209 96.8007 20.4118C96.8007 20.2027 96.6312 20.0332 96.4221 20.0332C96.213 20.0332 96.0435 20.2027 96.0435 20.4118C96.0435 20.6209 96.213 20.7904 96.4221 20.7904Z" fill="white"/>
<path d="M96.0116 20.2723C96.2508 20.2723 96.4446 20.0784 96.4446 19.8393C96.4446 19.6001 96.2508 19.4062 96.0116 19.4062C95.7725 19.4062 95.5786 19.6001 95.5786 19.8393C95.5786 20.0784 95.7725 20.2723 96.0116 20.2723Z" fill="#C9C5BD"/>
<path d="M96.0437 20.1625C96.2528 20.1625 96.4223 19.993 96.4223 19.7839C96.4223 19.5748 96.2528 19.4053 96.0437 19.4053C95.8346 19.4053 95.665 19.5748 95.665 19.7839C95.665 19.993 95.8346 20.1625 96.0437 20.1625Z" fill="white"/>
<path d="M95.5458 19.7039C95.7849 19.7039 95.9788 19.51 95.9788 19.2709C95.9788 19.0318 95.7849 18.8379 95.5458 18.8379C95.3067 18.8379 95.1128 19.0318 95.1128 19.2709C95.1128 19.51 95.3067 19.7039 95.5458 19.7039Z" fill="#C9C5BD"/>
<path d="M95.5788 19.5922C95.7879 19.5922 95.9574 19.4227 95.9574 19.2136C95.9574 19.0045 95.7879 18.835 95.5788 18.835C95.3697 18.835 95.2002 19.0045 95.2002 19.2136C95.2002 19.4227 95.3697 19.5922 95.5788 19.5922Z" fill="white"/>
<path d="M107.09 15.6892V15.7038H91.7612C91.7612 13.6267 92.9975 10.6124 95.0747 10.6082L103.063 8.72562C105.145 8.71098 107.09 13.6058 107.09 15.6892Z" fill="#ED8A29"/>
<path d="M94.4115 15.4223C93.9358 15.4223 93.4796 15.2335 93.1431 14.8973C92.8066 14.5612 92.6173 14.1052 92.6167 13.6296C92.6173 13.1539 92.8066 12.698 93.1431 12.3619C93.4796 12.0257 93.9358 11.8369 94.4115 11.8369C94.8869 11.8369 95.3429 12.0258 95.6791 12.362C96.0153 12.6982 96.2041 13.1541 96.2041 13.6296C96.2041 14.105 96.0153 14.561 95.6791 14.8972C95.3429 15.2334 94.8869 15.4223 94.4115 15.4223Z" fill="#EFB19E"/>
<path d="M93.391 15.5906C93.6302 15.5906 93.824 15.3968 93.824 15.1576C93.824 14.9185 93.6302 14.7246 93.391 14.7246C93.1519 14.7246 92.958 14.9185 92.958 15.1576C92.958 15.3968 93.1519 15.5906 93.391 15.5906Z" fill="#C49318"/>
<path d="M93.4245 15.4818C93.6336 15.4818 93.8031 15.3123 93.8031 15.1032C93.8031 14.8941 93.6336 14.7246 93.4245 14.7246C93.2154 14.7246 93.0459 14.8941 93.0459 15.1032C93.0459 15.3123 93.2154 15.4818 93.4245 15.4818Z" fill="#EDB61B"/>
<path d="M99.2649 18.7566C96.0205 18.7566 93.3911 16.4557 93.3911 13.6317C93.3911 10.8078 96.0205 8.50684 99.2649 8.50684C102.509 8.50684 105.137 10.8078 105.137 13.6317C105.137 16.4557 102.507 18.7566 99.2649 18.7566Z" fill="#EFB19E"/>
<path d="M99.5092 16.0492C99.4283 16.0617 99.3467 16.0722 99.2644 16.0805C98.9424 16.1119 98.618 16.1119 98.2959 16.0805C98.1893 16.0805 98.0868 16.0575 97.9801 16.0429C96.8296 15.8609 96.2334 16.2981 96.8965 16.6077C97.4841 16.8441 98.1103 16.9697 98.7436 16.9779C99.3775 16.9698 100.005 16.8443 100.593 16.6077C101.256 16.3085 100.66 15.8714 99.5092 16.0492Z" fill="#E28E74"/>
<path d="M103.279 13.632C103.277 13.2942 103.354 12.9605 103.503 12.6573C103.634 12.3841 103.841 12.1546 104.099 11.9963C104.332 11.8606 104.607 11.8145 104.871 11.8666C105.151 11.9275 105.402 12.0799 105.585 12.2996C105.794 12.5471 105.938 12.8435 106.003 13.1614C106.074 13.4963 106.07 13.8429 105.99 14.1759C105.917 14.4873 105.765 14.7751 105.551 15.0126C105.362 15.2237 105.107 15.3645 104.827 15.4122C104.773 15.4205 104.719 15.4247 104.664 15.4247C104.573 15.4239 104.483 15.4127 104.394 15.3912C104.057 15.2916 103.769 15.0673 103.591 14.7637C103.384 14.4226 103.276 14.0309 103.279 13.632Z" fill="#EFB19E"/>
<path d="M105.59 14.299C105.683 14.0846 105.73 13.8529 105.726 13.6192C105.727 13.3849 105.678 13.1531 105.582 12.9393C105.497 12.7447 105.364 12.5748 105.195 12.4457C105.044 12.3298 104.859 12.2659 104.668 12.2637C104.668 12.2637 105.902 12.6695 105.59 14.299Z" fill="#BC6A4F"/>
<path d="M102.465 16.8009C102.665 16.6806 102.839 16.5195 102.973 16.3281C103.108 16.1404 103.203 15.9268 103.251 15.7006C103.296 15.4926 103.287 15.2768 103.226 15.0731C103.17 14.8915 103.057 14.7326 102.904 14.6191C102.904 14.6191 103.668 15.6588 102.465 16.8009Z" fill="#BC6A4F"/>
<path d="M95.5458 16.7211C95.3231 16.6495 95.1179 16.5319 94.9434 16.376C94.7671 16.2222 94.6246 16.0334 94.525 15.8217C94.4366 15.6315 94.3978 15.4221 94.4121 15.213C94.424 15.0226 94.4974 14.8413 94.6213 14.6963C94.6213 14.6963 94.113 15.8865 95.5458 16.7211Z" fill="#BC6A4F"/>
<path d="M97.1729 16.2334C97.4699 16.4635 98.0619 16.6204 98.7438 16.6204C99.4257 16.6204 100.018 16.4635 100.317 16.2334C100.317 16.2334 98.7375 16.8233 97.1729 16.2334Z" fill="#BC6A4F"/>
<path d="M93.4077 25.6718C93.4077 25.6718 93.7612 27.2406 93.7529 27.2072C93.8739 27.1294 94.0029 27.0649 94.1377 27.0147C94.0977 26.5733 94.0279 26.1351 93.9286 25.7032C93.8066 25.6468 93.678 25.6061 93.5458 25.5818C93.5458 25.5818 94.0248 24.5359 93.9202 22.6533C93.8859 23.6779 93.7135 24.6933 93.4077 25.6718Z" fill="#373684"/>
<path d="M89.0942 27.3214C89.0942 27.3214 88.8474 26.3361 88.9331 25.6667C88.9331 25.6667 92.2173 25.3634 93.8468 25.7421C93.8468 25.7421 94.0831 26.8633 93.9974 27.3214H89.0942Z" fill="#FAF3ED"/>
<path d="M93.4076 25.6711C92.2153 25.4975 90.5188 25.5686 89.5942 25.6272V25.4536C89.5942 25.4536 92.5792 25.3678 93.4076 25.6711Z" fill="#373684"/>
<path d="M105.444 25.9288C105.444 25.9288 105.09 27.4955 105.099 27.4641C105.107 27.4328 104.714 27.2696 104.714 27.2696C104.755 26.8283 104.825 26.3902 104.923 25.958C105.046 25.9018 105.175 25.8611 105.308 25.8367C105.308 25.8367 104.827 24.7908 104.934 22.9082C104.966 23.9335 105.138 24.9496 105.444 25.9288Z" fill="#373684"/>
<path d="M109.758 27.5875C109.758 27.5875 110.006 26.6044 109.921 25.9329C109.921 25.9329 106.635 25.6317 105.005 26.0103C105.005 26.0103 104.769 27.1294 104.856 27.5875H109.758Z" fill="#FAF3ED"/>
<path d="M105.444 25.9283C106.636 25.7546 108.372 25.8258 109.286 25.8864L109.274 25.7191C109.274 25.7191 106.274 25.6354 105.444 25.9283Z" fill="#373684"/>
<path d="M100.21 13.7005C100.21 14.0644 100.505 14.3594 100.869 14.3594C101.233 14.3594 101.528 14.0644 101.528 13.7005C101.528 13.3365 101.233 13.0415 100.869 13.0415C100.505 13.0415 100.21 13.3365 100.21 13.7005Z" fill="#1D1D1B"/>
<path d="M95.5391 13.7005C95.5391 14.0644 95.8341 14.3594 96.198 14.3594C96.5619 14.3594 96.8569 14.0644 96.8569 13.7005C96.8569 13.3365 96.5619 13.0415 96.198 13.0415C95.8341 13.0415 95.5391 13.3365 95.5391 13.7005Z" fill="#1D1D1B"/>
<path d="M104.766 11.8384C104.867 11.6125 104.917 11.3669 104.911 11.1195C104.906 10.8721 104.846 10.629 104.735 10.4076C104.627 10.1409 104.539 9.86686 104.469 9.58766C104.334 9.18916 104.121 8.82157 103.842 8.5062C103.191 7.63601 101.712 7.64856 101.348 7.80753L101.074 7.93305C100.968 7.98325 100.865 7.91841 100.784 7.84101C100.551 7.64438 100.503 7.56489 99.9134 7.46866C99.3884 7.3829 99.0976 7.46867 98.9386 7.61928C98.8641 7.68905 98.7689 7.73269 98.6674 7.74363C98.5659 7.75458 98.4636 7.73222 98.3759 7.67994L98.3195 7.64647C97.7507 7.31571 97.0753 7.21966 96.4369 7.37872C94.1903 7.92677 92.9268 10.8699 93.2301 11.5247C93.2975 11.6733 93.3955 11.806 93.5177 11.9142C93.6399 12.0223 93.7835 12.1034 93.9393 12.1522C94.3576 12.2798 94.594 9.89516 97.1857 10.3261C97.1857 10.3261 97.3531 11.0498 98.3634 11.4013C99.3737 11.7527 100.474 10.37 100.474 10.37C100.474 10.37 100.386 11.259 101.763 11.8342C102.728 12.2103 103.8 12.2117 104.766 11.8384Z" fill="#ED8A29"/>
<path d="M98.3318 11.4788C97.8407 11.3323 97.424 11.0039 97.1667 10.5605C96.9094 10.0815 96.8927 9.49163 97.1207 8.80762L97.2692 8.85782C97.06 9.49791 97.06 10.046 97.3047 10.4873C97.5441 10.889 97.9244 11.1873 98.3716 11.324L98.3318 11.4788Z" fill="#1D1D1B"/>
<path d="M101.733 11.9143C101.243 11.7672 100.827 11.4397 100.57 10.998C100.31 10.5169 100.296 9.92704 100.524 9.24512L100.672 9.29324C100.463 9.93333 100.463 10.4814 100.708 10.9206C100.947 11.322 101.326 11.6202 101.773 11.7574L101.733 11.9143Z" fill="#1D1D1B"/>
<path d="M105.013 15.5906C105.252 15.5906 105.446 15.3968 105.446 15.1576C105.446 14.9185 105.252 14.7246 105.013 14.7246C104.773 14.7246 104.58 14.9185 104.58 15.1576C104.58 15.3968 104.773 15.5906 105.013 15.5906Z" fill="#C49318"/>
<path d="M105.047 15.4818C105.256 15.4818 105.425 15.3123 105.425 15.1032C105.425 14.8941 105.256 14.7246 105.047 14.7246C104.837 14.7246 104.668 14.8941 104.668 15.1032C104.668 15.3123 104.837 15.4818 105.047 15.4818Z" fill="#EDB61B"/>
<path opacity="0.6" d="M93.7502 15.4003C93.7502 15.4003 93.5828 14.9694 93.541 14.7476C93.541 14.7476 93.541 14.7246 93.4009 14.7246C93.4247 15.0022 93.5105 15.271 93.6519 15.5111C93.6912 15.4806 93.7245 15.443 93.7502 15.4003Z" fill="#C49318"/>
<path opacity="0.6" d="M103.486 17.6299C103.486 17.6299 100.925 21.4202 100.948 27.1727H101.478V26.5451L103.486 17.6299Z" fill="#373684"/>
<path opacity="0.6" d="M94.9829 17.5137C94.9829 17.5137 97.5433 21.304 97.5203 27.0564H96.991V26.4289L94.9829 17.5137Z" fill="#373684"/>
<path d="M104.662 15.8867L105.475 18.4952L103.729 20.815L103.593 23.777L101.641 26.718L101.66 25.965C101.754 22.3148 102.666 18.9491 104.653 15.8867H104.662Z" fill="#373684"/>
<path d="M104.68 15.5156L105.494 18.1262L103.745 20.6363L103.611 23.6004L101.478 26.5415L101.496 25.7863C101.591 22.1361 102.693 18.5831 104.68 15.5198V15.5156Z" fill="#FAF3ED"/>
<path d="M93.8635 15.8828L93.0498 18.4934L94.7985 20.8111L94.9324 23.7731L96.8778 26.7141L96.8569 25.9611C96.7648 22.3109 95.8507 18.9473 93.8635 15.8828Z" fill="#373684"/>
<path d="M93.8391 15.5117L93.0254 18.1223L94.772 20.6324L94.908 23.5944L97.0396 26.5355L97.0207 25.7824C96.9272 22.1317 95.8261 18.5779 93.8391 15.5138V15.5117Z" fill="#FAF3ED"/>
<path d="M94.7109 13.5396C94.8215 13.3254 94.9696 13.1327 95.1481 12.9707C95.3261 12.7988 95.5406 12.6694 95.7757 12.592C96.0251 12.5185 96.2933 12.544 96.5245 12.6632C96.7406 12.7825 96.9167 12.963 97.0307 13.1819C96.8636 13.0259 96.6703 12.9006 96.4597 12.8117C96.2579 12.7386 96.038 12.732 95.8321 12.7929C95.6204 12.8613 95.4211 12.9638 95.2422 13.0962C95.0566 13.2334 94.8792 13.3815 94.7109 13.5396Z" fill="#1D1D1B"/>
<path d="M102.547 13.5396C102.376 13.3813 102.196 13.2332 102.007 13.0962C101.828 12.9638 101.629 12.8613 101.417 12.7929C101.212 12.732 100.992 12.7386 100.79 12.8117C100.579 12.9006 100.386 13.0259 100.219 13.1819C100.333 12.963 100.509 12.7825 100.725 12.6632C100.956 12.544 101.224 12.5185 101.474 12.592C101.709 12.6694 101.923 12.7988 102.101 12.9707C102.283 13.132 102.434 13.3247 102.547 13.5396Z" fill="#1D1D1B"/>
</g>
<defs>
<clipPath id="clip0_431_16">
<rect width="6.06621" height="2.71934" fill="white" transform="translate(111.056 30.2646) rotate(-180)"/>
</clipPath>
<clipPath id="clip1_431_16">
<rect width="6.06621" height="2.71934" fill="white" transform="translate(93.6943 30.0566) rotate(-180)"/>
</clipPath>
</defs>
</svg>
