<svg width="76" height="36" viewBox="0 0 76 36" fill="none" xmlns="http://www.w3.org/2000/svg">
<rect width="75.6" height="36" fill="#ADB3D7"/>
<mask id="mask0_431_17" style="mask-type:alpha" maskUnits="userSpaceOnUse" x="46" y="6" width="25" height="25">
<circle cx="58.1322" cy="18.1322" r="11.6322" fill="#C4C4C4" stroke="black"/>
</mask>
<g mask="url(#mask0_431_17)">
<path d="M49.4369 27.7086C49.4369 27.7086 48.4391 18.007 54.4571 14.3506L62.9727 14.5598C62.9727 14.5598 66.6123 15.9299 67.0997 27.4806L58.6553 31.4361L49.4369 27.7086Z" fill="#5154A1"/>
<path d="M62.7926 14.3398C62.7926 14.3398 60.818 17.1512 58.2158 17.0173L58.7262 19.1844C58.7262 19.1844 62.8533 16.35 62.7926 14.3398Z" fill="#373684"/>
<path d="M62.7927 14.3398C62.7927 14.3398 60.6695 16.9817 58.0674 16.85L58.5757 19.017C58.5757 19.017 62.322 16.7621 62.7927 14.3398Z" fill="#FAF3ED"/>
<path d="M57.4127 16.9004L57.0131 19.1135C57.0131 19.1135 54.7373 16.2102 54.5972 14.3506C54.5951 14.3506 56.5488 16.7519 57.4127 16.9004Z" fill="#373684"/>
<path d="M57.306 16.8712L56.8333 19.0131C56.8333 19.0131 54.7415 16.206 54.5972 14.3506C55.2135 15.454 56.1611 16.3358 57.306 16.8712Z" fill="#FAF3ED"/>
<path d="M58.0131 18.0573C58.0131 18.0573 58.4315 23.5252 58.7013 24.774C58.9711 26.0227 57.7245 27.3134 57.6554 27.7443H56.0552C56.0552 27.7443 55.2875 26.1943 55.4591 25.025C55.6306 23.8557 57.5236 17.9883 57.5236 17.9883L58.0131 18.0573Z" fill="#C7361A"/>
<path d="M57.9272 18.0233C57.9272 18.0233 58.3455 23.4911 58.6154 24.7378C58.8852 25.9845 57.6385 27.2793 57.5695 27.7081H55.9693C55.9693 27.7081 55.2016 26.1581 55.3731 24.9888C55.5447 23.8195 57.4377 17.9521 57.4377 17.9521L57.9272 18.0233Z" fill="#E8461C"/>
<path d="M57.4295 17.8203L57.6596 17.5463C57.6727 17.5304 57.6891 17.5176 57.7077 17.5087C57.7269 17.5036 57.7471 17.5036 57.7663 17.5087C57.7866 17.5085 57.8065 17.5151 57.8227 17.5275C57.8408 17.5382 57.8559 17.5533 57.8667 17.5714L58.103 17.9438C58.1241 17.9766 58.1323 18.0161 58.1261 18.0546C58.1212 18.0933 58.1026 18.1289 58.0738 18.155L57.7432 18.4165C57.7272 18.4304 57.7077 18.4398 57.6868 18.4437C57.6676 18.4488 57.6474 18.4488 57.6282 18.4437C57.6086 18.4374 57.5907 18.4267 57.5759 18.4123C57.5605 18.3968 57.5484 18.3783 57.5404 18.3579L57.4044 17.994C57.3971 17.9665 57.3971 17.9377 57.4044 17.9103C57.4059 17.8788 57.4144 17.8481 57.4295 17.8203Z" fill="#C7361A"/>
<path d="M57.3855 17.8038L57.6072 17.5402C57.6201 17.5255 57.6357 17.5134 57.6532 17.5047C57.6711 17.4972 57.6904 17.4936 57.7097 17.4942C57.729 17.4963 57.7476 17.5028 57.7641 17.513C57.781 17.5237 57.7953 17.538 57.8059 17.5549L58.0339 17.9146C58.0433 17.9308 58.0496 17.9485 58.0527 17.9669C58.0569 17.9855 58.0569 18.0048 58.0527 18.0234C58.0503 18.0424 58.0447 18.0608 58.036 18.0778C58.0264 18.0929 58.0144 18.1064 58.0004 18.1176L57.6846 18.3707C57.6697 18.3835 57.6517 18.3922 57.6323 18.3958C57.613 18.3999 57.593 18.3999 57.5737 18.3958C57.5548 18.3894 57.5376 18.3786 57.5235 18.3644C57.5093 18.3491 57.4979 18.3314 57.4901 18.3121L57.3604 17.9628C57.3532 17.936 57.3532 17.9079 57.3604 17.8812C57.3616 17.8536 57.3703 17.8268 57.3855 17.8038Z" fill="#E8461C"/>
<path d="M52.7837 26.0602C52.7837 26.0602 53.0954 27.6186 53.0891 27.5851C53.0828 27.5517 53.4279 27.3927 53.4279 27.3927C53.3926 26.9557 53.3311 26.5213 53.2439 26.0916C53.137 26.0358 53.023 25.995 52.905 25.9703C52.905 25.9703 53.0933 21.6445 54.2082 21.3203C52.9322 21.6027 52.7837 26.0602 52.7837 26.0602Z" fill="#373684"/>
<path d="M48.9852 27.7082C48.8656 27.1696 48.8178 26.6174 48.8429 26.0662C48.8429 26.0662 51.7421 25.765 53.1792 26.1415C53.1792 26.1415 53.3883 27.2543 53.311 27.7082H48.9852Z" fill="#FAF3ED"/>
<g clip-path="url(#clip0_431_17)">
<path d="M53.3208 27.5455C53.3208 27.5455 53.2514 29.9333 52.3877 29.1757C52.3877 29.1757 51.9506 30.3685 51.4241 29.4463C51.4241 29.4463 50.9183 30.7992 50.4712 29.3922C50.4712 29.3922 49.8853 31.1532 49.2902 29.2298C49.2902 29.2298 47.4034 32.4429 47.2547 27.5455L53.3208 27.5455Z" fill="#CC8A7A"/>
<path d="M52.6185 27.5456C52.6187 28.1492 52.5359 28.731 52.3863 29.1758C52.3863 29.1758 52.688 28.7023 52.6185 27.5456Z" fill="#BC6A4F"/>
<path d="M51.576 27.5455C51.6232 28.8736 51.424 29.4463 51.424 29.4463C51.424 29.4463 51.7256 28.9615 51.576 27.5455Z" fill="#BC6A4F"/>
<path d="M50.7042 27.5449C50.6902 28.2072 50.6096 28.8462 50.4711 29.3916C50.5607 29.1559 50.6285 28.8657 50.669 28.5447C50.7095 28.2237 50.7216 27.8811 50.7042 27.5449Z" fill="#BC6A4F"/>
<path d="M49.0648 28.1652C49.1091 28.562 49.186 28.9259 49.2896 29.2295C49.2201 29.1248 49.1625 28.9703 49.1228 28.7827C49.0832 28.5952 49.0631 28.3817 49.0648 28.1652Z" fill="#BC6A4F"/>
</g>
<g clip-path="url(#clip1_431_17)">
<path d="M69.2188 27.5455C69.2188 27.5455 69.1493 29.9333 68.2857 29.1757C68.2857 29.1757 67.8485 30.3685 67.3221 29.4463C67.3221 29.4463 66.8163 30.7992 66.3692 29.3922C66.3692 29.3922 65.7832 31.1532 65.1882 29.2298C65.1882 29.2298 63.3014 32.4429 63.1526 27.5455L69.2188 27.5455Z" fill="#CC8A7A"/>
<path d="M68.5165 27.5456C68.5167 28.1492 68.4338 28.731 68.2842 29.1758C68.2842 29.1758 68.5859 28.7023 68.5165 27.5456Z" fill="#BC6A4F"/>
<path d="M67.474 27.5455C67.5211 28.8736 67.3219 29.4463 67.3219 29.4463C67.3219 29.4463 67.6236 28.9615 67.474 27.5455Z" fill="#BC6A4F"/>
<path d="M66.6021 27.5449C66.5882 28.2072 66.5075 28.8462 66.3691 29.3916C66.4586 29.1559 66.5264 28.8657 66.567 28.5447C66.6075 28.2237 66.6195 27.8811 66.6021 27.5449Z" fill="#BC6A4F"/>
<path d="M64.9627 28.1652C65.007 28.562 65.0839 28.9259 65.1875 29.2295C65.1181 29.1248 65.0604 28.9703 65.0208 28.7827C64.9812 28.5952 64.9611 28.3817 64.9627 28.1652Z" fill="#BC6A4F"/>
</g>
<path d="M52.7836 26.0602C51.7377 25.8886 50.2338 25.9577 49.418 26.0162V25.8447C49.418 25.8447 52.0599 25.7694 52.7836 26.0602Z" fill="#373684"/>
<path d="M63.5269 25.9998L63.2215 27.5247C63.2215 27.4913 62.8827 27.3323 62.8827 27.3323C62.9181 26.8946 62.9796 26.4595 63.0667 26.0291C63.1736 25.9733 63.2876 25.9325 63.4056 25.9078C63.4056 25.9078 63.1086 21.5841 61.9937 21.2578C63.278 21.5423 63.5269 25.9998 63.5269 25.9998Z" fill="#373684"/>
<path d="M67.3321 27.6479C67.4529 27.1087 67.5014 26.5558 67.4764 26.0038C67.4764 26.0038 64.5772 25.7047 63.1402 26.0791C63.1402 26.0791 62.931 27.194 63.0084 27.6479H67.3321Z" fill="#FAF3ED"/>
<path d="M63.5269 25.9992C64.5727 25.8256 66.0746 25.8967 66.8904 25.9553V25.7817C66.8904 25.7817 64.259 25.7084 63.5269 25.9992Z" fill="#373684"/>
<path d="M53.4615 12.5518C53.4599 12.2965 53.518 12.0444 53.6309 11.8155C53.7293 11.6076 53.8863 11.4331 54.0827 11.3135C54.26 11.2077 54.4701 11.1712 54.6726 11.211C54.8836 11.257 55.0729 11.3727 55.2102 11.5394C55.3688 11.726 55.4775 11.9499 55.526 12.1899C55.5825 12.4434 55.5825 12.7062 55.526 12.9597C55.4691 13.1933 55.3548 13.409 55.1934 13.5872C55.0492 13.7456 54.8564 13.8516 54.6454 13.8884C54.6043 13.8916 54.5631 13.8916 54.522 13.8884C54.4515 13.8889 54.3812 13.8805 54.3128 13.8633C54.0575 13.7895 53.8398 13.6212 53.7041 13.3927C53.5471 13.1402 53.4631 12.8491 53.4615 12.5518Z" fill="#CC8A7A"/>
<path d="M57.9395 17.0262L57.4124 16.9007C56.264 16.5074 54.0928 14.7817 54.0928 12.5519C54.0961 11.4778 54.5242 10.4486 55.2838 9.68904C56.0433 8.92951 57.0725 8.50136 58.1466 8.49805H59.2239C60.298 8.50136 61.3272 8.92951 62.0867 9.68904C62.8462 10.4486 63.2744 11.4778 63.2777 12.5519C63.6019 14.4847 61.4307 16.3171 59.4059 16.886C59.0301 16.9943 58.6421 17.054 58.2512 17.0638C58.1461 17.065 58.0413 17.0523 57.9395 17.0262Z" fill="#CC8A7A"/>
<path d="M55.5657 12.7886C55.4337 12.7886 55.307 12.7362 55.2137 12.6428C55.1203 12.5495 55.0679 12.4228 55.0679 12.2908C55.0679 12.1588 55.1203 12.0321 55.2137 11.9388C55.307 11.8454 55.4337 11.793 55.5657 11.793C55.6974 11.7935 55.8235 11.8462 55.9164 11.9395C56.0093 12.0328 56.0615 12.1591 56.0615 12.2908C56.0615 12.4225 56.0093 12.5488 55.9164 12.6421C55.8235 12.7354 55.6974 12.7881 55.5657 12.7886Z" fill="#1B1935"/>
<path d="M60.6149 12.7886C60.4832 12.7881 60.3571 12.7354 60.2642 12.6421C60.1713 12.5488 60.1191 12.4225 60.1191 12.2908C60.1191 12.1591 60.1713 12.0328 60.2642 11.9395C60.3571 11.8462 60.4832 11.7935 60.6149 11.793C60.7469 11.793 60.8736 11.8454 60.9669 11.9388C61.0603 12.0321 61.1127 12.1588 61.1127 12.2908C61.1127 12.4228 61.0603 12.5495 60.9669 12.6428C60.8736 12.7362 60.7469 12.7886 60.6149 12.7886Z" fill="#1B1935"/>
<path d="M55.8084 11.5767C55.7974 11.5747 55.786 11.5747 55.775 11.5767L54.8546 11.9469C54.8317 11.9562 54.8134 11.9742 54.8036 11.9969C54.7938 12.0196 54.7933 12.0452 54.8023 12.0683C54.812 12.0913 54.8304 12.1097 54.8534 12.1194C54.8764 12.1292 54.9024 12.1296 54.9257 12.1205L55.844 11.7524C55.8671 11.7427 55.8854 11.7243 55.8952 11.7013C55.9049 11.6783 55.9053 11.6523 55.8963 11.629C55.888 11.6129 55.8754 11.5995 55.8599 11.5902C55.8443 11.581 55.8265 11.5763 55.8084 11.5767Z" fill="black"/>
<path d="M60.2366 11.5244C60.2175 11.5244 60.1989 11.5303 60.1832 11.5411C60.1675 11.5519 60.1555 11.5673 60.1487 11.5851C60.1399 11.6084 60.1406 11.6342 60.1508 11.657C60.161 11.6797 60.1798 11.6975 60.2031 11.7064L61.1297 12.0557C61.1531 12.0646 61.1789 12.0638 61.2017 12.0536C61.2244 12.0434 61.2422 12.0246 61.2511 12.0013C61.2594 11.978 61.2583 11.9524 61.2482 11.9298C61.2381 11.9072 61.2196 11.8894 61.1967 11.88L60.27 11.5307L60.2366 11.5244Z" fill="black"/>
<path d="M58.7909 14.2101C58.2843 14.2896 57.7684 14.2896 57.2618 14.2101C56.1113 14.0302 55.5152 14.4653 56.1783 14.7749C56.7665 15.0115 57.3934 15.137 58.0274 15.1451C58.6607 15.1371 59.287 15.0116 59.8744 14.7749C60.5396 14.4653 59.9414 14.0302 58.7909 14.2101Z" fill="#E28E74"/>
<path d="M56.457 14.3906C56.7541 14.6207 57.346 14.7776 58.0279 14.7776C58.7098 14.7776 59.3018 14.6207 59.5988 14.3906C59.5988 14.3906 58.0133 14.9826 56.457 14.3906Z" fill="#BC6A4F"/>
<path d="M54.2266 9.25497L54.2454 9.2215C54.3603 9.00267 54.4549 8.7737 54.5278 8.5375C54.6843 8.13392 54.9197 7.76557 55.2201 7.45395C55.8728 6.66118 57.1027 6.82643 57.3872 7.0356C57.45 7.07953 57.5064 7.11928 57.5546 7.15693C57.5953 7.18599 57.6444 7.20072 57.6944 7.19883C57.7444 7.19694 57.7923 7.17853 57.8307 7.14647C58.067 6.9624 58.1026 6.88291 58.6255 6.84944C59.1485 6.81598 59.4016 7.0126 59.4832 7.2176C59.4921 7.24315 59.5068 7.26626 59.5262 7.28511C59.5456 7.30395 59.5692 7.318 59.595 7.32613C59.6208 7.33426 59.6481 7.33624 59.6748 7.33193C59.7016 7.32761 59.7269 7.31711 59.7488 7.30126C59.9948 7.13535 60.2764 7.02992 60.5709 6.99357C60.8653 6.95722 61.1642 6.99098 61.4431 7.09208C63.3132 7.81374 64.0223 10.9556 63.6813 11.581C63.6148 11.7147 63.5205 11.8325 63.4047 11.9267C63.2889 12.0209 63.1543 12.0891 63.0099 12.127C62.6522 12.2085 62.7442 9.96617 60.7319 9.96617C60.6789 9.96451 60.6265 9.97749 60.5803 10.0037C60.5342 10.0299 60.4962 10.0683 60.4705 10.1147C60.3594 10.312 60.2095 10.4848 60.0297 10.6225C59.8499 10.7602 59.6441 10.86 59.4246 10.9158C58.5377 11.1564 57.7972 9.66078 57.7972 9.66078C57.7972 9.66078 57.7574 10.5519 56.5421 10.9807C55.9876 11.1725 55.3868 11.185 54.8248 11.0162C54.1722 10.8301 53.8626 9.94526 54.2266 9.25497Z" fill="black"/>
<path d="M62.2256 12.5518C62.2241 12.2965 62.2821 12.0444 62.395 11.8155C62.4934 11.6076 62.6505 11.4331 62.8469 11.3135C63.0241 11.2077 63.2342 11.1712 63.4368 11.211C63.6479 11.2566 63.8374 11.3723 63.9743 11.5394C64.133 11.726 64.2416 11.9499 64.2902 12.1899C64.3477 12.4433 64.3477 12.7063 64.2902 12.9597C64.2341 13.1936 64.1197 13.4095 63.9576 13.5872C63.8134 13.7456 63.6206 13.8516 63.4096 13.8884C63.3692 13.8916 63.3286 13.8916 63.2882 13.8884C63.2177 13.8889 63.1474 13.8805 63.079 13.8633C62.8237 13.7895 62.6061 13.6212 62.4704 13.3927C62.3135 13.14 62.2288 12.8492 62.2256 12.5518Z" fill="#CC8A7A"/>
<path d="M63.9745 13.0581C64.0446 12.8957 64.0795 12.7203 64.077 12.5435C64.0778 12.3669 64.0407 12.1921 63.9682 12.031C63.9046 11.883 63.8037 11.754 63.6754 11.6566C63.5606 11.5686 63.4205 11.5202 63.2759 11.5186C63.2759 11.5186 64.2109 11.826 63.9745 13.0581Z" fill="#BC6A4F"/>
<path d="M60.6484 14.9273C60.683 14.8475 60.7001 14.7612 60.6986 14.6742C60.699 14.5862 60.6804 14.4992 60.6442 14.419C60.613 14.3461 60.5632 14.2826 60.4999 14.2349C60.4433 14.1919 60.3743 14.1684 60.3032 14.168C60.3032 14.168 60.7634 14.3186 60.6484 14.9273Z" fill="#BC6A4F"/>
<path d="M55.9214 14.167C55.842 14.1992 55.7705 14.2484 55.7123 14.3113C55.6511 14.3707 55.6027 14.4418 55.57 14.5205C55.5408 14.5949 55.5314 14.6756 55.5428 14.7548C55.5518 14.8249 55.5834 14.8903 55.6328 14.9409C55.6328 14.9409 55.4111 14.5059 55.9214 14.167Z" fill="#BC6A4F"/>
<path d="M56.5025 13.6252H59.0816C59.3385 13.6215 59.5942 13.6597 59.8388 13.7382C60.048 13.8114 60.1526 13.9097 60.1526 14.0122H55.4336C55.4336 13.9097 55.5465 13.8031 55.7474 13.7382C55.9913 13.6598 56.2463 13.6217 56.5025 13.6252Z" fill="#6E333C"/>
</g>
<defs>
<clipPath id="clip0_431_17">
<rect width="6.06612" height="2.71929" fill="white" transform="translate(53.3208 30.2646) rotate(-180)"/>
</clipPath>
<clipPath id="clip1_431_17">
<rect width="6.06612" height="2.71929" fill="white" transform="translate(69.2188 30.2646) rotate(-180)"/>
</clipPath>
</defs>
</svg>
