<svg width="195" height="45" viewBox="0 0 195 45" fill="none" xmlns="http://www.w3.org/2000/svg">
<path d="M19.6204 5.53C19.6204 5.67 19.5604 5.79 19.4404 5.89C19.3404 5.97 19.2404 6.01 19.1404 6.01C18.9604 6.01 18.6704 6.03 18.2704 6.07C17.8904 6.11 17.4704 6.16 17.0104 6.22C16.5704 6.26 16.1304 6.31 15.6904 6.37C15.2704 6.41 14.9304 6.45 14.6704 6.49C14.5904 6.49 14.4204 6.5 14.1604 6.52C13.9204 6.54 13.6404 6.57 13.3204 6.61C13.0204 6.63 12.7104 6.66 12.3904 6.7C12.0904 6.74 11.8504 6.77 11.6704 6.79C11.4504 6.83 11.1304 6.9 10.7104 7C10.2904 7.1 9.91035 7.2 9.57035 7.3C9.45035 7.34 9.34035 7.37 9.24035 7.39C9.14035 7.41 9.06035 7.43 9.00035 7.45C8.92035 7.47 8.85035 7.49 8.79035 7.51L10.4104 13.24C10.4704 13.42 10.5704 13.71 10.7104 14.11C10.8504 14.51 11.0104 14.95 11.1904 15.43C11.3904 15.91 11.5904 16.41 11.7904 16.93C12.0104 17.45 12.2004 17.93 12.3604 18.37C12.4604 18.63 12.5704 18.95 12.6904 19.33C12.8104 19.71 12.9204 20.1 13.0204 20.5C13.1204 20.88 13.2004 21.23 13.2604 21.55C13.3404 21.87 13.3804 22.09 13.3804 22.21C13.3804 22.49 13.3004 22.78 13.1404 23.08C12.9804 23.4 12.7704 23.56 12.5104 23.56C12.2704 23.56 12.1504 23.39 12.1504 23.05V22.84C12.1504 22.78 12.1504 22.71 12.1504 22.63C12.1704 22.55 12.1804 22.46 12.1804 22.36C12.1804 22.2 12.1204 21.93 12.0004 21.55C11.8804 21.15 11.7304 20.71 11.5504 20.23C11.3704 19.73 11.1704 19.21 10.9504 18.67C10.7504 18.11 10.5504 17.59 10.3504 17.11C10.1704 16.61 10.0104 16.19 9.87035 15.85C9.73035 15.49 9.64035 15.25 9.60035 15.13C9.54035 14.97 9.46035 14.74 9.36035 14.44C9.28035 14.14 9.18035 13.8 9.06035 13.42C8.94035 13.04 8.81035 12.64 8.67035 12.22C8.55035 11.78 8.43035 11.35 8.31035 10.93C8.01035 9.95 7.68035 8.88 7.32035 7.72C7.22035 7.74 6.89035 7.79 6.33035 7.87C5.79035 7.93 5.18035 8 4.50035 8.08C3.82035 8.16 3.17035 8.24 2.55035 8.32C1.93035 8.38 1.51035 8.41 1.29035 8.41C0.790351 8.41 0.470351 8.33 0.330351 8.17C0.190351 8.01 0.110351 7.81 0.0903514 7.57C0.0903514 7.41 0.130351 7.25 0.210351 7.09C0.290351 6.91 0.400351 6.82 0.540351 6.82C0.700351 6.82 0.830352 6.85 0.930352 6.91C1.01035 6.95 1.12035 6.97 1.26035 6.97C1.30035 6.97 1.50035 6.95 1.86035 6.91C2.24035 6.87 2.68035 6.82 3.18035 6.76C3.70035 6.7 4.23035 6.64 4.77035 6.58C5.33035 6.52 5.82035 6.47 6.24035 6.43C6.34035 6.43 6.44035 6.43 6.54035 6.43C6.66035 6.41 6.77035 6.39 6.87035 6.37C6.97035 6.35 7.07035 6.34 7.17035 6.34C7.17035 6.28 7.20035 6.15 7.26035 5.95C7.34035 5.73 7.42035 5.62 7.50035 5.62C7.70035 5.62 7.86035 5.7 7.98035 5.86C8.12035 6 8.24035 6.1 8.34035 6.16C8.48035 6.14 8.69035 6.1 8.97035 6.04C9.27035 5.96 9.58035 5.89 9.90035 5.83C10.2404 5.77 10.5604 5.72 10.8604 5.68C11.1804 5.62 11.4504 5.58 11.6704 5.56L15.1804 5.35C15.4804 5.33 15.8204 5.31 16.2004 5.29C16.6004 5.25 16.9904 5.21 17.3704 5.17C17.7504 5.13 18.0804 5.1 18.3604 5.08C18.6404 5.04 18.8304 5.02 18.9304 5.02C19.1104 5.04 19.2704 5.1 19.4104 5.2C19.5504 5.3 19.6204 5.41 19.6204 5.53ZM18.1731 13C18.1731 13.36 18.0931 13.69 17.9331 13.99C17.7931 14.29 17.6231 14.55 17.4231 14.77C17.2231 14.97 17.0331 15.13 16.8531 15.25C16.6731 15.37 16.5431 15.43 16.4631 15.43C16.4031 15.43 16.3231 15.39 16.2231 15.31C16.1431 15.21 16.1031 15.1 16.1031 14.98C16.1031 14.96 16.1431 14.89 16.2231 14.77C16.3031 14.65 16.3931 14.51 16.4931 14.35C16.6131 14.17 16.7131 13.97 16.7931 13.75C16.8731 13.51 16.9131 13.26 16.9131 13C16.9131 12.48 16.8631 12.02 16.7631 11.62C16.6631 11.2 16.5331 10.79 16.3731 10.39C16.3531 10.33 16.3231 10.26 16.2831 10.18C16.2631 10.1 16.2531 10.04 16.2531 10C16.2531 9.86 16.2931 9.77 16.3731 9.73C16.4731 9.69 16.5731 9.67 16.6731 9.67C16.8131 9.67 16.9731 9.8 17.1531 10.06C17.3331 10.3 17.4931 10.59 17.6331 10.93C17.7931 11.27 17.9231 11.64 18.0231 12.04C18.1231 12.42 18.1731 12.74 18.1731 13ZM34.7127 15.76C34.7127 16.12 34.5427 16.57 34.2027 17.11C33.8827 17.63 33.4427 18.14 32.8827 18.64C32.3227 19.14 31.6727 19.57 30.9327 19.93C30.1927 20.27 29.4227 20.44 28.6227 20.44C28.2627 20.44 27.8827 20.38 27.4827 20.26C27.0827 20.14 26.6927 19.97 26.3127 19.75C25.9327 19.51 25.5927 19.23 25.2927 18.91C24.9927 18.57 24.7727 18.19 24.6327 17.77C24.5127 17.89 24.3627 18.09 24.1827 18.37C24.0227 18.65 23.8427 18.94 23.6427 19.24C23.4427 19.52 23.2227 19.77 22.9827 19.99C22.7427 20.19 22.4927 20.29 22.2327 20.29C21.9727 20.29 21.7527 20.16 21.5727 19.9C21.4127 19.62 21.2827 19.32 21.1827 19C21.0827 18.66 21.0127 18.34 20.9727 18.04C20.9327 17.74 20.9127 17.57 20.9127 17.53C20.9127 17.29 20.9827 16.84 21.1227 16.18C21.2627 15.5 21.4727 14.8 21.7527 14.08C22.0327 13.36 22.3827 12.72 22.8027 12.16C23.2427 11.6 23.7527 11.32 24.3327 11.32C24.5527 11.32 24.6927 11.42 24.7527 11.62C24.8327 11.8 24.8727 11.98 24.8727 12.16V13.06C24.9727 13.14 25.0727 13.2 25.1727 13.24C25.2927 13.26 25.3927 13.3 25.4727 13.36C25.5727 13.4 25.6427 13.47 25.6827 13.57C25.7427 13.67 25.7727 13.83 25.7727 14.05C25.7727 14.19 25.7627 14.32 25.7427 14.44C25.7227 14.54 25.7127 14.64 25.7127 14.74C25.7127 15.26 25.7527 15.77 25.8327 16.27C25.9127 16.77 26.0727 17.22 26.3127 17.62C26.5527 18 26.8827 18.32 27.3027 18.58C27.7227 18.82 28.2827 18.94 28.9827 18.94C29.8627 18.94 30.6027 18.76 31.2027 18.4C31.8227 18.02 32.3327 17.61 32.7327 17.17C33.1527 16.71 33.4827 16.3 33.7227 15.94C33.9627 15.56 34.1627 15.37 34.3227 15.37C34.5827 15.37 34.7127 15.5 34.7127 15.76ZM24.1827 14.44C24.1827 14.36 24.1627 14.29 24.1227 14.23C24.0827 14.15 24.0627 14.08 24.0627 14.02C24.0627 13.94 24.0827 13.87 24.1227 13.81C24.1627 13.75 24.1827 13.67 24.1827 13.57C24.1827 13.51 24.1627 13.47 24.1227 13.45C24.0827 13.41 24.0627 13.37 24.0627 13.33C23.8827 13.37 23.6927 13.54 23.4927 13.84C23.3127 14.14 23.1327 14.49 22.9527 14.89C22.7927 15.29 22.6627 15.7 22.5627 16.12C22.4627 16.52 22.4127 16.85 22.4127 17.11C22.4127 17.25 22.4527 17.48 22.5327 17.8C22.6127 18.12 22.7027 18.33 22.8027 18.43C23.1427 17.73 23.4527 17.05 23.7327 16.39C24.0327 15.73 24.1827 15.08 24.1827 14.44ZM41.8318 18.04C41.8318 18.38 41.7118 18.68 41.4718 18.94C41.2518 19.18 40.9618 19.39 40.6018 19.57C40.2618 19.73 39.8818 19.86 39.4618 19.96C39.0418 20.06 38.6418 20.14 38.2618 20.2C37.8818 20.24 37.5418 20.27 37.2418 20.29C36.9618 20.29 36.7818 20.29 36.7018 20.29C36.2618 20.29 35.9218 20.22 35.6818 20.08C35.4418 19.94 35.3218 19.69 35.3218 19.33C35.3218 19.21 35.3318 19.11 35.3518 19.03C35.3718 18.93 35.4518 18.88 35.5918 18.88C35.6518 18.88 35.7518 18.9 35.8918 18.94C36.0318 18.96 36.1418 18.97 36.2218 18.97C36.3018 18.97 36.5518 18.96 36.9718 18.94C37.4118 18.9 37.8718 18.84 38.3518 18.76C38.8518 18.68 39.2918 18.57 39.6718 18.43C40.0718 18.27 40.2718 18.07 40.2718 17.83C40.2718 17.79 40.0618 17.67 39.6418 17.47C39.2418 17.25 38.6318 16.89 37.8118 16.39C37.1718 15.99 36.7218 15.59 36.4618 15.19C36.2018 14.77 36.0718 14.21 36.0718 13.51C36.0718 13.07 36.1618 12.71 36.3418 12.43C36.5418 12.15 36.8018 11.93 37.1218 11.77C37.4618 11.61 37.8418 11.5 38.2618 11.44C38.7018 11.36 39.1618 11.32 39.6418 11.32C39.6818 11.32 39.8018 11.34 40.0018 11.38C40.2218 11.42 40.4518 11.49 40.6918 11.59C40.9318 11.67 41.1418 11.78 41.3218 11.92C41.5218 12.04 41.6218 12.18 41.6218 12.34C41.6218 12.38 41.5818 12.44 41.5018 12.52C41.4418 12.6 41.3318 12.75 41.1718 12.97C41.1118 12.95 41.0018 12.92 40.8418 12.88C40.7018 12.84 40.5318 12.8 40.3318 12.76C40.1518 12.7 39.9618 12.66 39.7618 12.64C39.5618 12.6 39.4018 12.58 39.2818 12.58C38.7618 12.58 38.3418 12.68 38.0218 12.88C37.7018 13.06 37.5418 13.42 37.5418 13.96C37.5418 14.22 37.6418 14.46 37.8418 14.68C38.0618 14.9 38.3318 15.11 38.6518 15.31C38.9718 15.49 39.3118 15.68 39.6718 15.88C40.0518 16.06 40.4018 16.26 40.7218 16.48C41.0418 16.7 41.3018 16.94 41.5018 17.2C41.7218 17.44 41.8318 17.72 41.8318 18.04ZM65.3101 17.17C65.3101 17.27 65.2601 17.37 65.1601 17.47C65.0801 17.55 65.0301 17.64 65.0101 17.74C65.0101 17.96 65.0501 18.17 65.1301 18.37C65.2301 18.57 65.2801 18.81 65.2801 19.09C65.2801 19.35 65.2001 19.48 65.0401 19.48C64.8401 19.48 64.6901 19.51 64.5901 19.57C64.5101 19.61 64.3601 19.65 64.1401 19.69C64.0201 19.69 63.8901 19.58 63.7501 19.36C63.6701 19.26 63.6001 19.14 63.5401 19C63.5401 18.98 63.4801 19.02 63.3601 19.12C63.2601 19.22 63.0801 19.34 62.8201 19.48C62.5801 19.6 62.2401 19.72 61.8001 19.84C61.3801 19.94 60.8401 19.99 60.1801 19.99C59.6201 19.99 59.1301 19.87 58.7101 19.63C58.2901 19.37 57.9401 19.04 57.6601 18.64C57.4001 18.24 57.2001 17.79 57.0601 17.29C56.9401 16.77 56.8801 16.25 56.8801 15.73C56.8801 15.25 56.9301 14.8 57.0301 14.38C57.1501 13.94 57.3101 13.56 57.5101 13.24C57.7101 12.9 57.9601 12.63 58.2601 12.43C58.5601 12.23 58.9101 12.13 59.3101 12.13C59.6901 12.13 60.0701 12.25 60.4501 12.49C60.8301 12.73 61.1701 12.99 61.4701 13.27C61.7701 13.55 62.0101 13.81 62.1901 14.05C62.3901 14.27 62.4901 14.38 62.4901 14.38C62.2101 12.82 61.9601 11.41 61.7401 10.15C61.6401 9.61 61.5401 9.08 61.4401 8.56C61.3601 8.02 61.2801 7.54 61.2001 7.12C61.1201 6.7 61.0501 6.35 60.9901 6.07C60.9501 5.77 60.9301 5.59 60.9301 5.53C60.9101 5.41 60.8901 5.2 60.8701 4.9C60.8501 4.58 60.8301 4.25 60.8101 3.91C60.7901 3.57 60.7701 3.26 60.7501 2.98C60.7301 2.7 60.7101 2.52 60.6901 2.44C60.6301 2.24 60.5501 1.99 60.4501 1.69C60.3701 1.39 60.3301 1.22 60.3301 1.18C60.3301 1.08 60.3801 0.959998 60.4801 0.819999C60.5801 0.659999 60.7101 0.579999 60.8701 0.579999C60.9901 0.579999 61.1001 0.589998 61.2001 0.609998C61.3001 0.629999 61.3901 0.69 61.4701 0.789999C61.5501 0.889999 61.6201 1.05 61.6801 1.27C61.7601 1.47 61.8301 1.76 61.8901 2.14C61.9101 2.34 61.9701 2.72 62.0701 3.28C62.1701 3.84 62.2701 4.45 62.3701 5.11C62.4701 5.77 62.5701 6.4 62.6701 7C62.7701 7.6 62.8401 8.04 62.8801 8.32C62.9801 9.08 63.1101 9.91 63.2701 10.81C63.4501 11.69 63.6301 12.54 63.8101 13.36C63.9901 14.18 64.1701 14.91 64.3501 15.55C64.5301 16.17 64.6901 16.59 64.8301 16.81C64.8701 16.89 64.9501 16.95 65.0701 16.99C65.1901 17.01 65.2701 17.07 65.3101 17.17ZM63.0901 17.77C63.0701 17.71 62.9401 17.46 62.7001 17.02C62.4801 16.56 62.1901 16.07 61.8301 15.55C61.4901 15.01 61.1001 14.53 60.6601 14.11C60.2401 13.69 59.8301 13.48 59.4301 13.48C59.0901 13.48 58.8101 13.74 58.5901 14.26C58.3901 14.78 58.2901 15.38 58.2901 16.06C58.2901 16.82 58.5101 17.43 58.9501 17.89C59.4101 18.35 59.9201 18.58 60.4801 18.58C60.9601 18.58 61.4601 18.5 61.9801 18.34C62.5001 18.18 62.8701 17.99 63.0901 17.77ZM75.9707 18.85C75.9907 18.89 76.0007 18.95 76.0007 19.03C76.0007 19.15 75.9107 19.33 75.7307 19.57C75.6707 19.65 75.5407 19.78 75.3407 19.96C75.1407 20.14 74.8707 20.32 74.5307 20.5C74.1907 20.68 73.7707 20.84 73.2707 20.98C72.7907 21.12 72.2207 21.19 71.5607 21.19C71.1007 21.19 70.6507 21.09 70.2107 20.89C69.7707 20.67 69.3807 20.36 69.0407 19.96C68.7007 19.54 68.4207 19.03 68.2007 18.43C67.9807 17.81 67.8707 17.09 67.8707 16.27C67.8707 15.49 67.9707 14.76 68.1707 14.08C68.3707 13.4 68.6207 12.8 68.9207 12.28C69.2407 11.76 69.5907 11.35 69.9707 11.05C70.3507 10.75 70.7207 10.6 71.0807 10.6C71.4007 10.6 71.7207 10.67 72.0407 10.81C72.3807 10.93 72.6807 11.09 72.9407 11.29C73.2207 11.49 73.4407 11.72 73.6007 11.98C73.7607 12.22 73.8407 12.47 73.8407 12.73C73.8407 13.03 73.7007 13.34 73.4207 13.66C73.1607 13.98 72.8407 14.28 72.4607 14.56C72.0807 14.82 71.7007 15.04 71.3207 15.22C70.9407 15.38 70.6407 15.46 70.4207 15.46C70.3007 15.46 70.1907 15.41 70.0907 15.31C70.0107 15.19 69.9707 15.05 69.9707 14.89C69.9707 14.61 70.0907 14.39 70.3307 14.23C70.5907 14.07 70.8707 13.93 71.1707 13.81C71.4707 13.67 71.7407 13.51 71.9807 13.33C72.2407 13.15 72.3707 12.9 72.3707 12.58C72.3707 12.54 72.3207 12.44 72.2207 12.28C72.1207 12.12 71.8507 12.04 71.4107 12.04C71.2107 12.04 70.9807 12.16 70.7207 12.4C70.4607 12.62 70.2107 12.93 69.9707 13.33C69.7307 13.71 69.5307 14.17 69.3707 14.71C69.2107 15.23 69.1307 15.8 69.1307 16.42C69.1307 16.94 69.2207 17.41 69.4007 17.83C69.6007 18.25 69.8507 18.61 70.1507 18.91C70.4507 19.19 70.8007 19.41 71.2007 19.57C71.6007 19.73 72.0107 19.81 72.4307 19.81C72.7307 19.81 73.0507 19.75 73.3907 19.63C73.7507 19.49 74.0807 19.35 74.3807 19.21C74.7007 19.05 74.9707 18.91 75.1907 18.79C75.4307 18.65 75.5807 18.58 75.6407 18.58C75.7007 18.58 75.7607 18.61 75.8207 18.67C75.9007 18.73 75.9507 18.79 75.9707 18.85ZM74.2607 6.16C74.2607 6.32 74.1407 6.55 73.9007 6.85C73.6607 7.15 73.3707 7.46 73.0307 7.78C72.7107 8.1 72.3707 8.4 72.0107 8.68C71.6707 8.94 71.4007 9.12 71.2007 9.22C71.0407 9.3 70.9007 9.35 70.7807 9.37C70.6607 9.39 70.5607 9.4 70.4807 9.4C70.3207 9.4 70.1207 9.31 69.8807 9.13C69.6407 8.95 69.5207 8.78 69.5207 8.62C69.5207 8.58 69.6107 8.53 69.7907 8.47C69.9707 8.39 70.1707 8.29 70.3907 8.17C70.5907 8.05 70.8507 7.86 71.1707 7.6C71.5107 7.32 71.8407 7.05 72.1607 6.79C72.5007 6.51 72.8007 6.27 73.0607 6.07C73.3407 5.87 73.5307 5.77 73.6307 5.77C73.7707 5.77 73.9107 5.81 74.0507 5.89C74.1907 5.97 74.2607 6.06 74.2607 6.16ZM79.5596 8.32C79.5596 8.36 79.4996 8.44 79.3796 8.56C79.2796 8.68 79.1496 8.81 78.9896 8.95C78.8496 9.07 78.6996 9.18 78.5396 9.28C78.3996 9.38 78.2896 9.43 78.2096 9.43C77.8896 9.43 77.5796 9.36 77.2796 9.22C76.9996 9.08 76.8596 8.89 76.8596 8.65C76.8596 8.55 76.8696 8.43 76.8896 8.29C76.9296 8.15 76.9796 8.02 77.0396 7.9C77.1196 7.76 77.2196 7.65 77.3396 7.57C77.4596 7.47 77.6096 7.42 77.7896 7.42C77.9096 7.42 78.0696 7.45 78.2696 7.51C78.4696 7.55 78.6596 7.62 78.8396 7.72C79.0396 7.8 79.2096 7.9 79.3496 8.02C79.4896 8.12 79.5596 8.22 79.5596 8.32ZM81.8096 24.82C81.8096 25.1 81.7296 25.35 81.5696 25.57C81.4096 25.81 81.2196 26.01 80.9996 26.17C80.7796 26.33 80.5496 26.45 80.3096 26.53C80.0696 26.63 79.8696 26.68 79.7096 26.68C79.2296 26.68 78.6696 26.6 78.0296 26.44C77.4096 26.3 76.8296 26.06 76.2896 25.72C75.7296 25.4 75.2596 24.98 74.8796 24.46C74.4996 23.96 74.3096 23.34 74.3096 22.6C74.3096 22.52 74.3296 22.44 74.3696 22.36C74.4096 22.3 74.4796 22.27 74.5796 22.27C74.7196 22.27 74.8996 22.42 75.1196 22.72C75.3196 23.04 75.5996 23.39 75.9596 23.77C76.3196 24.15 76.7796 24.49 77.3396 24.79C77.8996 25.11 78.6196 25.27 79.4996 25.27C79.7796 25.27 79.9696 25.24 80.0696 25.18C80.1896 25.12 80.2496 24.92 80.2496 24.58C80.2496 24.26 80.1996 23.91 80.0996 23.53C80.0196 23.15 79.9196 22.77 79.7996 22.39C79.6796 22.03 79.5596 21.68 79.4396 21.34C79.3396 21 79.2596 20.71 79.1996 20.47C79.1796 20.41 79.1096 20.16 78.9896 19.72C78.8896 19.26 78.7796 18.74 78.6596 18.16C78.5396 17.56 78.4296 16.98 78.3296 16.42C78.2296 15.86 78.1796 15.45 78.1796 15.19C78.1796 15.05 78.1996 14.86 78.2396 14.62C78.2796 14.38 78.4096 14.26 78.6296 14.26C78.7296 14.26 78.8396 14.39 78.9596 14.65C79.0796 14.89 79.1996 15.2 79.3196 15.58C79.4596 15.94 79.5796 16.34 79.6796 16.78C79.7996 17.22 79.8996 17.64 79.9796 18.04C80.0796 18.42 80.1596 18.75 80.2196 19.03C80.2796 19.31 80.3196 19.48 80.3396 19.54C80.3796 19.7 80.4796 19.99 80.6396 20.41C80.7996 20.83 80.9596 21.31 81.1196 21.85C81.2996 22.37 81.4596 22.9 81.5996 23.44C81.7396 23.98 81.8096 24.44 81.8096 24.82ZM96.9979 15.76C96.9979 16.12 96.8279 16.57 96.4879 17.11C96.1679 17.63 95.7279 18.14 95.1679 18.64C94.6079 19.14 93.9579 19.57 93.2179 19.93C92.4779 20.27 91.7079 20.44 90.9079 20.44C90.5479 20.44 90.1679 20.38 89.7679 20.26C89.3679 20.14 88.9779 19.97 88.5979 19.75C88.2179 19.51 87.8779 19.23 87.5779 18.91C87.2779 18.57 87.0579 18.19 86.9179 17.77C86.7979 17.89 86.6479 18.09 86.4679 18.37C86.3079 18.65 86.1279 18.94 85.9279 19.24C85.7279 19.52 85.5079 19.77 85.2679 19.99C85.0279 20.19 84.7779 20.29 84.5179 20.29C84.2579 20.29 84.0379 20.16 83.8579 19.9C83.6979 19.62 83.5679 19.32 83.4679 19C83.3679 18.66 83.2979 18.34 83.2579 18.04C83.2179 17.74 83.1979 17.57 83.1979 17.53C83.1979 17.29 83.2679 16.84 83.4079 16.18C83.5479 15.5 83.7579 14.8 84.0379 14.08C84.3179 13.36 84.6679 12.72 85.0879 12.16C85.5279 11.6 86.0379 11.32 86.6179 11.32C86.8379 11.32 86.9779 11.42 87.0379 11.62C87.1179 11.8 87.1579 11.98 87.1579 12.16V13.06C87.2579 13.14 87.3579 13.2 87.4579 13.24C87.5779 13.26 87.6779 13.3 87.7579 13.36C87.8579 13.4 87.9279 13.47 87.9679 13.57C88.0279 13.67 88.0579 13.83 88.0579 14.05C88.0579 14.19 88.0479 14.32 88.0279 14.44C88.0079 14.54 87.9979 14.64 87.9979 14.74C87.9979 15.26 88.0379 15.77 88.1179 16.27C88.1979 16.77 88.3579 17.22 88.5979 17.62C88.8379 18 89.1679 18.32 89.5879 18.58C90.0079 18.82 90.5679 18.94 91.2679 18.94C92.1479 18.94 92.8879 18.76 93.4879 18.4C94.1079 18.02 94.6179 17.61 95.0179 17.17C95.4379 16.71 95.7679 16.3 96.0079 15.94C96.2479 15.56 96.4479 15.37 96.6079 15.37C96.8679 15.37 96.9979 15.5 96.9979 15.76ZM86.4679 14.44C86.4679 14.36 86.4479 14.29 86.4079 14.23C86.3679 14.15 86.3479 14.08 86.3479 14.02C86.3479 13.94 86.3679 13.87 86.4079 13.81C86.4479 13.75 86.4679 13.67 86.4679 13.57C86.4679 13.51 86.4479 13.47 86.4079 13.45C86.3679 13.41 86.3479 13.37 86.3479 13.33C86.1679 13.37 85.9779 13.54 85.7779 13.84C85.5979 14.14 85.4179 14.49 85.2379 14.89C85.0779 15.29 84.9479 15.7 84.8479 16.12C84.7479 16.52 84.6979 16.85 84.6979 17.11C84.6979 17.25 84.7379 17.48 84.8179 17.8C84.8979 18.12 84.9879 18.33 85.0879 18.43C85.4279 17.73 85.7379 17.05 86.0179 16.39C86.3179 15.73 86.4679 15.08 86.4679 14.44ZM83.2279 5.56C83.2879 5.5 83.3579 5.47 83.4379 5.47C83.5379 5.47 83.6579 5.51 83.7979 5.59C83.9579 5.65 84.1079 5.73 84.2479 5.83C84.3879 5.93 84.5979 6.13 84.8779 6.43C85.1579 6.71 85.4379 7.02 85.7179 7.36C85.9979 7.68 86.2579 7.98 86.4979 8.26C86.7379 8.54 86.8979 8.71 86.9779 8.77C86.9979 8.79 87.0479 8.81 87.1279 8.83C87.2079 8.85 87.2979 8.88 87.3979 8.92C87.4979 8.94 87.5879 8.97 87.6679 9.01C87.7479 9.05 87.7879 9.1 87.7879 9.16C87.7879 9.32 87.6779 9.51 87.4579 9.73C87.2579 9.95 87.0879 10.06 86.9479 10.06C86.8279 10.06 86.6379 9.99 86.3779 9.85C86.0979 9.71 85.7779 9.45 85.4179 9.07C85.0579 8.67 84.7079 8.25 84.3679 7.81C84.0479 7.37 83.7679 6.95 83.5279 6.55C83.3079 6.13 83.1979 5.83 83.1979 5.65C83.1979 5.63 83.1979 5.62 83.1979 5.62C83.2179 5.6 83.2279 5.58 83.2279 5.56ZM119.419 13.33C119.419 13.85 119.269 14.35 118.969 14.83C118.689 15.31 118.339 15.76 117.919 16.18C117.499 16.58 117.039 16.96 116.539 17.32C116.039 17.66 115.579 17.96 115.159 18.22C114.759 18.5 114.429 18.73 114.169 18.91C113.909 19.09 113.779 19.23 113.779 19.33C113.779 19.59 113.809 19.96 113.869 20.44C113.929 20.9 113.999 21.41 114.079 21.97C114.179 22.51 114.269 23.07 114.349 23.65C114.449 24.23 114.519 24.76 114.559 25.24C114.559 25.26 114.569 25.35 114.589 25.51C114.629 25.67 114.669 25.85 114.709 26.05C114.769 26.25 114.809 26.43 114.829 26.59C114.869 26.77 114.889 26.88 114.889 26.92C114.889 27.06 114.879 27.21 114.859 27.37C114.859 27.55 114.829 27.71 114.769 27.85C114.729 28.01 114.659 28.14 114.559 28.24C114.459 28.34 114.329 28.39 114.169 28.39C113.949 28.39 113.789 28.29 113.689 28.09C113.589 27.91 113.539 27.73 113.539 27.55C113.539 27.51 113.539 27.47 113.539 27.43C113.559 27.39 113.569 27.34 113.569 27.28C113.569 27.06 113.489 26.47 113.329 25.51C113.169 24.55 112.989 23.4 112.789 22.06C112.589 20.74 112.409 19.32 112.249 17.8C112.089 16.26 112.009 14.81 112.009 13.45C112.009 13.35 112.019 13.24 112.039 13.12C112.059 12.98 112.069 12.86 112.069 12.76C111.869 12.78 111.569 12.87 111.169 13.03C110.789 13.19 110.409 13.39 110.029 13.63C109.649 13.85 109.309 14.09 109.009 14.35C108.729 14.59 108.589 14.81 108.589 15.01H108.379C108.319 15.01 108.249 14.97 108.169 14.89C108.069 14.81 107.989 14.72 107.929 14.62C107.849 14.52 107.779 14.42 107.719 14.32C107.659 14.22 107.629 14.15 107.629 14.11C107.629 13.69 107.879 13.3 108.379 12.94C108.879 12.56 109.499 12.23 110.239 11.95C110.999 11.65 111.829 11.42 112.729 11.26C113.629 11.08 114.479 10.99 115.279 10.99C116.059 10.99 116.709 11.08 117.229 11.26C117.769 11.44 118.199 11.66 118.519 11.92C118.839 12.16 119.069 12.41 119.209 12.67C119.349 12.93 119.419 13.15 119.419 13.33ZM117.949 13.24C117.949 13.04 117.699 12.84 117.199 12.64C116.699 12.42 116.109 12.31 115.429 12.31C114.829 12.31 114.389 12.33 114.109 12.37C113.829 12.41 113.639 12.45 113.539 12.49C113.499 12.81 113.469 13.19 113.449 13.63C113.429 14.07 113.419 14.52 113.419 14.98C113.419 15.46 113.429 15.93 113.449 16.39C113.489 16.83 113.529 17.2 113.569 17.5C113.849 17.32 114.229 17.08 114.709 16.78C115.209 16.46 115.699 16.11 116.179 15.73C116.659 15.33 117.069 14.92 117.409 14.5C117.769 14.06 117.949 13.64 117.949 13.24ZM135.347 15.76C135.347 16.12 135.177 16.57 134.837 17.11C134.517 17.63 134.077 18.14 133.517 18.64C132.957 19.14 132.307 19.57 131.567 19.93C130.827 20.27 130.057 20.44 129.257 20.44C128.897 20.44 128.517 20.38 128.117 20.26C127.717 20.14 127.327 19.97 126.947 19.75C126.567 19.51 126.227 19.23 125.927 18.91C125.627 18.57 125.407 18.19 125.267 17.77C125.147 17.89 124.997 18.09 124.817 18.37C124.657 18.65 124.477 18.94 124.277 19.24C124.077 19.52 123.857 19.77 123.617 19.99C123.377 20.19 123.127 20.29 122.867 20.29C122.607 20.29 122.387 20.16 122.207 19.9C122.047 19.62 121.917 19.32 121.817 19C121.717 18.66 121.647 18.34 121.607 18.04C121.567 17.74 121.547 17.57 121.547 17.53C121.547 17.29 121.617 16.84 121.757 16.18C121.897 15.5 122.107 14.8 122.387 14.08C122.667 13.36 123.017 12.72 123.437 12.16C123.877 11.6 124.387 11.32 124.967 11.32C125.187 11.32 125.327 11.42 125.387 11.62C125.467 11.8 125.507 11.98 125.507 12.16V13.06C125.607 13.14 125.707 13.2 125.807 13.24C125.927 13.26 126.027 13.3 126.107 13.36C126.207 13.4 126.277 13.47 126.317 13.57C126.377 13.67 126.407 13.83 126.407 14.05C126.407 14.19 126.397 14.32 126.377 14.44C126.357 14.54 126.347 14.64 126.347 14.74C126.347 15.26 126.387 15.77 126.467 16.27C126.547 16.77 126.707 17.22 126.947 17.62C127.187 18 127.517 18.32 127.937 18.58C128.357 18.82 128.917 18.94 129.617 18.94C130.497 18.94 131.237 18.76 131.837 18.4C132.457 18.02 132.967 17.61 133.367 17.17C133.787 16.71 134.117 16.3 134.357 15.94C134.597 15.56 134.797 15.37 134.957 15.37C135.217 15.37 135.347 15.5 135.347 15.76ZM124.817 14.44C124.817 14.36 124.797 14.29 124.757 14.23C124.717 14.15 124.697 14.08 124.697 14.02C124.697 13.94 124.717 13.87 124.757 13.81C124.797 13.75 124.817 13.67 124.817 13.57C124.817 13.51 124.797 13.47 124.757 13.45C124.717 13.41 124.697 13.37 124.697 13.33C124.517 13.37 124.327 13.54 124.127 13.84C123.947 14.14 123.767 14.49 123.587 14.89C123.427 15.29 123.297 15.7 123.197 16.12C123.097 16.52 123.047 16.85 123.047 17.11C123.047 17.25 123.087 17.48 123.167 17.8C123.247 18.12 123.337 18.33 123.437 18.43C123.777 17.73 124.087 17.05 124.367 16.39C124.667 15.73 124.817 15.08 124.817 14.44ZM142.797 12.85C142.797 12.99 142.737 13.11 142.617 13.21C142.497 13.29 142.357 13.36 142.197 13.42C142.037 13.48 141.877 13.53 141.717 13.57C141.557 13.59 141.427 13.6 141.327 13.6C141.027 13.6 140.827 13.58 140.727 13.54C140.627 13.5 140.547 13.48 140.487 13.48C139.987 13.48 139.587 13.52 139.287 13.6C138.987 13.68 138.747 13.81 138.567 13.99C138.407 14.17 138.297 14.4 138.237 14.68C138.197 14.94 138.177 15.26 138.177 15.64C138.177 16.28 138.197 16.79 138.237 17.17C138.297 17.55 138.347 17.86 138.387 18.1C138.447 18.34 138.497 18.53 138.537 18.67C138.597 18.79 138.627 18.91 138.627 19.03C138.627 19.19 138.537 19.36 138.357 19.54C138.197 19.72 138.047 19.81 137.907 19.81C137.667 19.81 137.447 19.6 137.247 19.18C137.067 18.74 136.907 18.23 136.767 17.65C136.647 17.05 136.547 16.46 136.467 15.88C136.387 15.3 136.347 14.86 136.347 14.56C136.347 14.22 136.377 13.9 136.437 13.6C136.497 13.28 136.577 13.01 136.677 12.79C136.777 12.55 136.887 12.36 137.007 12.22C137.127 12.08 137.247 12.01 137.367 12.01C137.467 12.01 137.547 12.05 137.607 12.13C137.667 12.19 137.717 12.27 137.757 12.37C137.797 12.45 137.837 12.53 137.877 12.61C137.937 12.67 138.007 12.7 138.087 12.7C138.267 12.7 138.557 12.61 138.957 12.43C139.357 12.25 139.847 12.16 140.427 12.16C140.967 12.16 141.367 12.18 141.627 12.22C141.907 12.24 142.177 12.3 142.437 12.4C142.497 12.42 142.567 12.47 142.647 12.55C142.747 12.61 142.797 12.71 142.797 12.85ZM153.159 8.44C152.899 8.74 152.529 9.04 152.049 9.34C151.569 9.62 151.089 9.88 150.609 10.12C150.129 10.36 149.709 10.57 149.349 10.75C148.989 10.91 148.809 11.02 148.809 11.08C148.809 11.14 148.849 11.32 148.929 11.62C149.009 11.92 149.099 12.28 149.199 12.7C149.319 13.1 149.439 13.52 149.559 13.96C149.679 14.4 149.779 14.79 149.859 15.13C149.899 15.33 149.949 15.59 150.009 15.91C150.069 16.23 150.119 16.55 150.159 16.87C150.219 17.19 150.269 17.48 150.309 17.74C150.349 17.98 150.369 18.11 150.369 18.13C150.369 18.43 150.319 18.74 150.219 19.06C150.119 19.38 149.959 19.54 149.739 19.54C149.619 19.54 149.509 19.49 149.409 19.39C149.309 19.29 149.219 19.18 149.139 19.06C149.059 18.92 148.999 18.79 148.959 18.67C148.919 18.55 148.899 18.46 148.899 18.4C148.899 18.36 148.899 18.3 148.899 18.22C148.919 18.14 148.929 18.05 148.929 17.95C148.929 17.57 148.869 17.02 148.749 16.3C148.709 16.08 148.629 15.74 148.509 15.28C148.389 14.82 148.269 14.35 148.149 13.87C148.009 13.31 147.849 12.7 147.669 12.04C147.589 11.76 147.539 11.62 147.519 11.62C147.379 11.62 147.139 11.71 146.799 11.89C146.479 12.05 146.109 12.26 145.689 12.52C145.269 12.76 144.829 13.03 144.369 13.33C143.909 13.61 143.479 13.88 143.079 14.14C142.679 14.38 142.339 14.59 142.059 14.77C141.759 14.93 141.579 15.01 141.519 15.01C141.259 15.01 141.049 14.92 140.889 14.74C140.729 14.56 140.649 14.36 140.649 14.14C140.649 14.02 140.819 13.85 141.159 13.63C141.479 13.39 141.889 13.13 142.389 12.85C142.869 12.57 143.399 12.28 143.979 11.98C144.539 11.68 145.059 11.41 145.539 11.17C146.039 10.93 146.449 10.73 146.769 10.57C147.109 10.41 147.279 10.33 147.279 10.33C147.099 9.41 146.949 8.59 146.829 7.87C146.729 7.25 146.629 6.68 146.529 6.16C146.449 5.64 146.409 5.36 146.409 5.32C146.409 5.06 146.459 4.87 146.559 4.75C146.679 4.61 146.809 4.54 146.949 4.54C147.169 4.54 147.309 4.69 147.369 4.99C147.589 6.07 147.789 7.03 147.969 7.87C148.169 8.71 148.359 9.39 148.539 9.91C148.719 9.87 149.029 9.76 149.469 9.58C149.909 9.38 150.369 9.17 150.849 8.95C151.329 8.73 151.759 8.54 152.139 8.38C152.539 8.2 152.769 8.11 152.829 8.11C152.949 8.11 153.019 8.15 153.039 8.23C153.079 8.31 153.119 8.38 153.159 8.44ZM156.559 8.2C156.559 8.24 156.489 8.32 156.349 8.44C156.209 8.56 156.039 8.69 155.839 8.83C155.659 8.95 155.469 9.06 155.269 9.16C155.069 9.26 154.909 9.31 154.789 9.31C154.709 9.31 154.599 9.31 154.459 9.31C154.339 9.29 154.209 9.25 154.069 9.19C153.949 9.13 153.839 9.05 153.739 8.95C153.639 8.83 153.589 8.68 153.589 8.5C153.589 8.22 153.689 7.96 153.889 7.72C154.089 7.46 154.349 7.33 154.669 7.33C154.729 7.33 154.859 7.36 155.059 7.42C155.279 7.46 155.499 7.52 155.719 7.6C155.939 7.68 156.129 7.77 156.289 7.87C156.469 7.97 156.559 8.08 156.559 8.2ZM157.549 19.42C157.549 19.56 157.439 19.68 157.219 19.78C157.019 19.88 156.869 19.93 156.769 19.93C156.569 19.93 156.389 19.8 156.229 19.54C156.069 19.28 155.929 18.98 155.809 18.64C155.689 18.3 155.589 17.98 155.509 17.68C155.429 17.36 155.369 17.14 155.329 17.02C155.269 16.82 155.189 16.58 155.089 16.3C154.989 16.02 154.889 15.75 154.789 15.49C154.709 15.23 154.639 15 154.579 14.8C154.519 14.6 154.489 14.49 154.489 14.47C154.489 14.19 154.539 13.93 154.639 13.69C154.759 13.45 154.899 13.33 155.059 13.33C155.239 13.33 155.429 13.47 155.629 13.75C155.829 14.03 156.019 14.39 156.199 14.83C156.399 15.25 156.579 15.72 156.739 16.24C156.899 16.74 157.039 17.22 157.159 17.68C157.279 18.12 157.369 18.51 157.429 18.85C157.509 19.17 157.549 19.36 157.549 19.42ZM168.087 16.54C168.087 16.74 168.057 16.95 167.997 17.17C167.937 17.37 167.877 17.54 167.817 17.68C167.777 17.74 167.587 17.95 167.247 18.31C166.927 18.65 166.517 19.01 166.017 19.39C165.537 19.77 164.987 20.12 164.367 20.44C163.767 20.74 163.187 20.89 162.627 20.89C162.287 20.89 161.937 20.83 161.577 20.71C161.237 20.59 160.917 20.4 160.617 20.14C160.317 19.86 160.067 19.52 159.867 19.12C159.687 18.72 159.597 18.23 159.597 17.65C159.597 16.69 159.757 15.82 160.077 15.04C160.397 14.26 160.717 13.64 161.037 13.18C161.177 12.96 161.357 12.74 161.577 12.52C161.817 12.28 162.047 12.07 162.267 11.89C162.487 11.69 162.687 11.53 162.867 11.41C163.067 11.29 163.207 11.23 163.287 11.23C163.467 11.23 163.627 11.28 163.767 11.38C163.927 11.48 164.007 11.58 164.007 11.68C164.007 11.84 163.957 11.98 163.857 12.1C163.777 12.2 163.657 12.32 163.497 12.46C163.337 12.58 163.147 12.75 162.927 12.97C162.707 13.17 162.477 13.44 162.237 13.78C161.757 14.44 161.397 15.12 161.157 15.82C160.937 16.5 160.827 17.1 160.827 17.62C160.827 18.14 161.017 18.56 161.397 18.88C161.797 19.18 162.207 19.33 162.627 19.33C163.387 19.33 164.057 19.16 164.637 18.82C165.237 18.48 165.747 18.1 166.167 17.68C166.587 17.26 166.927 16.88 167.187 16.54C167.447 16.2 167.637 16.03 167.757 16.03C167.977 16.03 168.087 16.2 168.087 16.54ZM172.262 8.2C172.262 8.24 172.192 8.32 172.052 8.44C171.912 8.56 171.742 8.69 171.542 8.83C171.362 8.95 171.172 9.06 170.972 9.16C170.772 9.26 170.612 9.31 170.492 9.31C170.412 9.31 170.302 9.31 170.162 9.31C170.042 9.29 169.912 9.25 169.772 9.19C169.652 9.13 169.542 9.05 169.442 8.95C169.342 8.83 169.292 8.68 169.292 8.5C169.292 8.22 169.392 7.96 169.592 7.72C169.792 7.46 170.052 7.33 170.372 7.33C170.432 7.33 170.562 7.36 170.762 7.42C170.982 7.46 171.202 7.52 171.422 7.6C171.642 7.68 171.832 7.77 171.992 7.87C172.172 7.97 172.262 8.08 172.262 8.2ZM173.252 19.42C173.252 19.56 173.142 19.68 172.922 19.78C172.722 19.88 172.572 19.93 172.472 19.93C172.272 19.93 172.092 19.8 171.932 19.54C171.772 19.28 171.632 18.98 171.512 18.64C171.392 18.3 171.292 17.98 171.212 17.68C171.132 17.36 171.072 17.14 171.032 17.02C170.972 16.82 170.892 16.58 170.792 16.3C170.692 16.02 170.592 15.75 170.492 15.49C170.412 15.23 170.342 15 170.282 14.8C170.222 14.6 170.192 14.49 170.192 14.47C170.192 14.19 170.242 13.93 170.342 13.69C170.462 13.45 170.602 13.33 170.762 13.33C170.942 13.33 171.132 13.47 171.332 13.75C171.532 14.03 171.722 14.39 171.902 14.83C172.102 15.25 172.282 15.72 172.442 16.24C172.602 16.74 172.742 17.22 172.862 17.68C172.982 18.12 173.072 18.51 173.132 18.85C173.212 19.17 173.252 19.36 173.252 19.42ZM184.78 13.33C184.78 13.85 184.63 14.35 184.33 14.83C184.05 15.31 183.7 15.76 183.28 16.18C182.86 16.58 182.4 16.96 181.9 17.32C181.4 17.66 180.94 17.96 180.52 18.22C180.12 18.5 179.79 18.73 179.53 18.91C179.27 19.09 179.14 19.23 179.14 19.33C179.14 19.59 179.17 19.96 179.23 20.44C179.29 20.9 179.36 21.41 179.44 21.97C179.54 22.51 179.63 23.07 179.71 23.65C179.81 24.23 179.88 24.76 179.92 25.24C179.92 25.26 179.93 25.35 179.95 25.51C179.99 25.67 180.03 25.85 180.07 26.05C180.13 26.25 180.17 26.43 180.19 26.59C180.23 26.77 180.25 26.88 180.25 26.92C180.25 27.06 180.24 27.21 180.22 27.37C180.22 27.55 180.19 27.71 180.13 27.85C180.09 28.01 180.02 28.14 179.92 28.24C179.82 28.34 179.69 28.39 179.53 28.39C179.31 28.39 179.15 28.29 179.05 28.09C178.95 27.91 178.9 27.73 178.9 27.55C178.9 27.51 178.9 27.47 178.9 27.43C178.92 27.39 178.93 27.34 178.93 27.28C178.93 27.06 178.85 26.47 178.69 25.51C178.53 24.55 178.35 23.4 178.15 22.06C177.95 20.74 177.77 19.32 177.61 17.8C177.45 16.26 177.37 14.81 177.37 13.45C177.37 13.35 177.38 13.24 177.4 13.12C177.42 12.98 177.43 12.86 177.43 12.76C177.23 12.78 176.93 12.87 176.53 13.03C176.15 13.19 175.77 13.39 175.39 13.63C175.01 13.85 174.67 14.09 174.37 14.35C174.09 14.59 173.95 14.81 173.95 15.01H173.74C173.68 15.01 173.61 14.97 173.53 14.89C173.43 14.81 173.35 14.72 173.29 14.62C173.21 14.52 173.14 14.42 173.08 14.32C173.02 14.22 172.99 14.15 172.99 14.11C172.99 13.69 173.24 13.3 173.74 12.94C174.24 12.56 174.86 12.23 175.6 11.95C176.36 11.65 177.19 11.42 178.09 11.26C178.99 11.08 179.84 10.99 180.64 10.99C181.42 10.99 182.07 11.08 182.59 11.26C183.13 11.44 183.56 11.66 183.88 11.92C184.2 12.16 184.43 12.41 184.57 12.67C184.71 12.93 184.78 13.15 184.78 13.33ZM183.31 13.24C183.31 13.04 183.06 12.84 182.56 12.64C182.06 12.42 181.47 12.31 180.79 12.31C180.19 12.31 179.75 12.33 179.47 12.37C179.19 12.41 179 12.45 178.9 12.49C178.86 12.81 178.83 13.19 178.81 13.63C178.79 14.07 178.78 14.52 178.78 14.98C178.78 15.46 178.79 15.93 178.81 16.39C178.85 16.83 178.89 17.2 178.93 17.5C179.21 17.32 179.59 17.08 180.07 16.78C180.57 16.46 181.06 16.11 181.54 15.73C182.02 15.33 182.43 14.92 182.77 14.5C183.13 14.06 183.31 13.64 183.31 13.24ZM194.799 18.85C194.819 18.89 194.829 18.95 194.829 19.03C194.829 19.15 194.739 19.33 194.559 19.57C194.499 19.65 194.369 19.78 194.169 19.96C193.969 20.14 193.699 20.32 193.359 20.5C193.019 20.68 192.599 20.84 192.099 20.98C191.619 21.12 191.049 21.19 190.389 21.19C189.929 21.19 189.479 21.09 189.039 20.89C188.599 20.67 188.209 20.36 187.869 19.96C187.529 19.54 187.249 19.03 187.029 18.43C186.809 17.81 186.699 17.09 186.699 16.27C186.699 15.49 186.799 14.76 186.999 14.08C187.199 13.4 187.449 12.8 187.749 12.28C188.069 11.76 188.419 11.35 188.799 11.05C189.179 10.75 189.549 10.6 189.909 10.6C190.229 10.6 190.549 10.67 190.869 10.81C191.209 10.93 191.509 11.09 191.769 11.29C192.049 11.49 192.269 11.72 192.429 11.98C192.589 12.22 192.669 12.47 192.669 12.73C192.669 13.03 192.529 13.34 192.249 13.66C191.989 13.98 191.669 14.28 191.289 14.56C190.909 14.82 190.529 15.04 190.149 15.22C189.769 15.38 189.469 15.46 189.249 15.46C189.129 15.46 189.019 15.41 188.919 15.31C188.839 15.19 188.799 15.05 188.799 14.89C188.799 14.61 188.919 14.39 189.159 14.23C189.419 14.07 189.699 13.93 189.999 13.81C190.299 13.67 190.569 13.51 190.809 13.33C191.069 13.15 191.199 12.9 191.199 12.58C191.199 12.54 191.149 12.44 191.049 12.28C190.949 12.12 190.679 12.04 190.239 12.04C190.039 12.04 189.809 12.16 189.549 12.4C189.289 12.62 189.039 12.93 188.799 13.33C188.559 13.71 188.359 14.17 188.199 14.71C188.039 15.23 187.959 15.8 187.959 16.42C187.959 16.94 188.049 17.41 188.229 17.83C188.429 18.25 188.679 18.61 188.979 18.91C189.279 19.19 189.629 19.41 190.029 19.57C190.429 19.73 190.839 19.81 191.259 19.81C191.559 19.81 191.879 19.75 192.219 19.63C192.579 19.49 192.909 19.35 193.209 19.21C193.529 19.05 193.799 18.91 194.019 18.79C194.259 18.65 194.409 18.58 194.469 18.58C194.529 18.58 194.589 18.61 194.649 18.67C194.729 18.73 194.779 18.79 194.799 18.85ZM193.089 6.16C193.089 6.32 192.969 6.55 192.729 6.85C192.489 7.15 192.199 7.46 191.859 7.78C191.539 8.1 191.199 8.4 190.839 8.68C190.499 8.94 190.229 9.12 190.029 9.22C189.869 9.3 189.729 9.35 189.609 9.37C189.489 9.39 189.389 9.4 189.309 9.4C189.149 9.4 188.949 9.31 188.709 9.13C188.469 8.95 188.349 8.78 188.349 8.62C188.349 8.58 188.439 8.53 188.619 8.47C188.799 8.39 188.999 8.29 189.219 8.17C189.419 8.05 189.679 7.86 189.999 7.6C190.339 7.32 190.669 7.05 190.989 6.79C191.329 6.51 191.629 6.27 191.889 6.07C192.169 5.87 192.359 5.77 192.459 5.77C192.599 5.77 192.739 5.81 192.879 5.89C193.019 5.97 193.089 6.06 193.089 6.16ZM30.6404 37.76C30.6404 38.12 30.4704 38.57 30.1304 39.11C29.8104 39.63 29.3704 40.14 28.8104 40.64C28.2504 41.14 27.6004 41.57 26.8604 41.93C26.1204 42.27 25.3504 42.44 24.5504 42.44C24.1904 42.44 23.8104 42.38 23.4104 42.26C23.0104 42.14 22.6204 41.97 22.2404 41.75C21.8604 41.51 21.5204 41.23 21.2204 40.91C20.9204 40.57 20.7004 40.19 20.5604 39.77C20.4404 39.89 20.2904 40.09 20.1104 40.37C19.9504 40.65 19.7704 40.94 19.5704 41.24C19.3704 41.52 19.1504 41.77 18.9104 41.99C18.6704 42.19 18.4204 42.29 18.1604 42.29C17.9004 42.29 17.6804 42.16 17.5004 41.9C17.3404 41.62 17.2104 41.32 17.1104 41C17.0104 40.66 16.9404 40.34 16.9004 40.04C16.8604 39.74 16.8404 39.57 16.8404 39.53C16.8404 39.29 16.9104 38.84 17.0504 38.18C17.1904 37.5 17.4004 36.8 17.6804 36.08C17.9604 35.36 18.3104 34.72 18.7304 34.16C19.1704 33.6 19.6804 33.32 20.2604 33.32C20.4804 33.32 20.6204 33.42 20.6804 33.62C20.7604 33.8 20.8004 33.98 20.8004 34.16V35.06C20.9004 35.14 21.0004 35.2 21.1004 35.24C21.2204 35.26 21.3204 35.3 21.4004 35.36C21.5004 35.4 21.5704 35.47 21.6104 35.57C21.6704 35.67 21.7004 35.83 21.7004 36.05C21.7004 36.19 21.6904 36.32 21.6704 36.44C21.6504 36.54 21.6404 36.64 21.6404 36.74C21.6404 37.26 21.6804 37.77 21.7604 38.27C21.8404 38.77 22.0004 39.22 22.2404 39.62C22.4804 40 22.8104 40.32 23.2304 40.58C23.6504 40.82 24.2104 40.94 24.9104 40.94C25.7904 40.94 26.5304 40.76 27.1304 40.4C27.7504 40.02 28.2604 39.61 28.6604 39.17C29.0804 38.71 29.4104 38.3 29.6504 37.94C29.8904 37.56 30.0904 37.37 30.2504 37.37C30.5104 37.37 30.6404 37.5 30.6404 37.76ZM20.1104 36.44C20.1104 36.36 20.0904 36.29 20.0504 36.23C20.0104 36.15 19.9904 36.08 19.9904 36.02C19.9904 35.94 20.0104 35.87 20.0504 35.81C20.0904 35.75 20.1104 35.67 20.1104 35.57C20.1104 35.51 20.0904 35.47 20.0504 35.45C20.0104 35.41 19.9904 35.37 19.9904 35.33C19.8104 35.37 19.6204 35.54 19.4204 35.84C19.2404 36.14 19.0604 36.49 18.8804 36.89C18.7204 37.29 18.5904 37.7 18.4904 38.12C18.3904 38.52 18.3404 38.85 18.3404 39.11C18.3404 39.25 18.3804 39.48 18.4604 39.8C18.5404 40.12 18.6304 40.33 18.7304 40.43C19.0704 39.73 19.3804 39.05 19.6604 38.39C19.9604 37.73 20.1104 37.08 20.1104 36.44ZM16.8704 27.56C16.9304 27.5 17.0004 27.47 17.0804 27.47C17.1804 27.47 17.3004 27.51 17.4404 27.59C17.6004 27.65 17.7504 27.73 17.8904 27.83C18.0304 27.93 18.2404 28.13 18.5204 28.43C18.8004 28.71 19.0804 29.02 19.3604 29.36C19.6404 29.68 19.9004 29.98 20.1404 30.26C20.3804 30.54 20.5404 30.71 20.6204 30.77C20.6404 30.79 20.6904 30.81 20.7704 30.83C20.8504 30.85 20.9404 30.88 21.0404 30.92C21.1404 30.94 21.2304 30.97 21.3104 31.01C21.3904 31.05 21.4304 31.1 21.4304 31.16C21.4304 31.32 21.3204 31.51 21.1004 31.73C20.9004 31.95 20.7304 32.06 20.5904 32.06C20.4704 32.06 20.2804 31.99 20.0204 31.85C19.7404 31.71 19.4204 31.45 19.0604 31.07C18.7004 30.67 18.3504 30.25 18.0104 29.81C17.6904 29.37 17.4104 28.95 17.1704 28.55C16.9504 28.13 16.8404 27.83 16.8404 27.65C16.8404 27.63 16.8404 27.62 16.8404 27.62C16.8604 27.6 16.8704 27.58 16.8704 27.56ZM53.3014 39.02C53.3014 39.2 53.1814 39.39 52.9414 39.59C52.7014 39.79 52.4214 39.98 52.1014 40.16C51.7814 40.32 51.4514 40.46 51.1114 40.58C50.7914 40.7 50.5514 40.76 50.3914 40.76C50.2114 40.76 50.0114 40.71 49.7914 40.61C49.5914 40.51 49.3914 40.39 49.1914 40.25C49.0114 40.11 48.8514 39.98 48.7114 39.86C48.5714 39.74 48.4814 39.66 48.4414 39.62C48.3814 39.68 48.2914 39.8 48.1714 39.98C48.0514 40.16 47.9014 40.36 47.7214 40.58C47.5614 40.78 47.3814 40.96 47.1814 41.12C47.0014 41.28 46.8114 41.36 46.6114 41.36C46.0914 41.36 45.6414 41.08 45.2614 40.52C44.8814 39.96 44.5614 39.32 44.3014 38.6C44.0614 37.88 43.8714 37.19 43.7314 36.53C43.6114 35.85 43.5514 35.39 43.5514 35.15C43.5514 35.01 43.6214 34.9 43.7614 34.82C43.9214 34.72 44.0414 34.67 44.1214 34.67C44.4014 34.67 44.5914 34.77 44.6914 34.97C44.7914 35.15 44.8414 35.35 44.8414 35.57C44.8414 35.75 44.8914 36.07 44.9914 36.53C45.1114 36.99 45.2514 37.46 45.4114 37.94C45.5714 38.42 45.7414 38.85 45.9214 39.23C46.1014 39.59 46.2614 39.77 46.4014 39.77C46.6614 39.77 46.8814 39.61 47.0614 39.29C47.2614 38.95 47.4214 38.57 47.5414 38.15C47.6614 37.71 47.7514 37.3 47.8114 36.92C47.8714 36.52 47.9014 36.26 47.9014 36.14C47.9014 36.12 47.9014 36.06 47.9014 35.96C47.9214 35.84 47.9414 35.72 47.9614 35.6C47.9814 35.48 47.9914 35.37 47.9914 35.27C48.0114 35.17 48.0214 35.1 48.0214 35.06C48.0214 34.92 47.9914 34.83 47.9314 34.79C47.8714 34.73 47.8414 34.62 47.8414 34.46C47.8414 34.34 47.9014 34.23 48.0214 34.13C48.1414 34.01 48.4014 33.95 48.8014 33.95C48.9614 33.95 49.0814 34 49.1614 34.1C49.2614 34.18 49.3314 34.28 49.3714 34.4C49.4114 34.52 49.4314 34.64 49.4314 34.76C49.4514 34.86 49.4614 34.93 49.4614 34.97C49.4614 34.99 49.4514 35.13 49.4314 35.39C49.4114 35.65 49.3914 35.94 49.3714 36.26C49.3714 36.56 49.3614 36.85 49.3414 37.13C49.3214 37.41 49.3114 37.58 49.3114 37.64C49.3114 37.7 49.3414 37.82 49.4014 38C49.4614 38.18 49.5314 38.37 49.6114 38.57C49.7114 38.75 49.8214 38.92 49.9414 39.08C50.0614 39.22 50.1914 39.29 50.3314 39.29C50.5714 39.29 50.7914 39.26 50.9914 39.2C51.2114 39.12 51.4114 39.04 51.5914 38.96C51.7914 38.86 51.9714 38.78 52.1314 38.72C52.2914 38.64 52.4414 38.6 52.5814 38.6C52.7614 38.6 52.9214 38.64 53.0614 38.72C53.2214 38.8 53.3014 38.9 53.3014 39.02ZM63.5057 40.31C63.5057 40.43 63.4657 40.55 63.3857 40.67C63.3057 40.79 63.2057 40.9 63.0857 41C62.9857 41.1 62.8657 41.19 62.7257 41.27C62.6057 41.33 62.4957 41.36 62.3957 41.36C62.0557 41.36 61.6157 41.29 61.0757 41.15C60.5557 40.99 60.1357 40.75 59.8157 40.43C59.4757 40.09 59.1757 39.69 58.9157 39.23C58.6557 38.75 58.3657 38.05 58.0457 37.13C57.8257 38.01 57.5657 38.88 57.2657 39.74C56.9857 40.6 56.5257 41.39 55.8857 42.11C55.8457 42.15 55.7857 42.17 55.7057 42.17C55.5657 42.17 55.4157 42.1 55.2557 41.96C55.0957 41.82 55.0157 41.68 55.0157 41.54C55.0157 41.4 54.9957 41.08 54.9557 40.58C54.9357 40.06 54.9057 39.49 54.8657 38.87C54.8257 38.23 54.7857 37.59 54.7457 36.95C54.7257 36.29 54.7157 35.75 54.7157 35.33C54.7157 35.13 54.7257 34.87 54.7457 34.55C54.7657 34.21 54.8257 33.92 54.9257 33.68C54.9457 33.64 55.0157 33.56 55.1357 33.44C55.2757 33.32 55.4257 33.26 55.5857 33.26C55.7257 33.26 55.8057 33.35 55.8257 33.53C55.8457 33.71 55.8557 33.91 55.8557 34.13V38.87C55.8557 38.97 55.8657 39.11 55.8857 39.29C55.9257 39.47 55.9757 39.6 56.0357 39.68C56.2557 39.2 56.4557 38.64 56.6357 38C56.8357 37.34 57.0257 36.72 57.2057 36.14C57.3857 35.54 57.5657 35.04 57.7457 34.64C57.9257 34.22 58.1057 34.01 58.2857 34.01C58.4857 34.01 58.6457 34.05 58.7657 34.13C58.8857 34.21 58.9857 34.37 59.0657 34.61C59.1657 35.19 59.2457 35.71 59.3057 36.17C59.3657 36.61 59.4357 37.01 59.5157 37.37C59.6157 37.73 59.7457 38.07 59.9057 38.39C60.0857 38.69 60.3257 38.97 60.6257 39.23C60.9057 39.49 61.2157 39.68 61.5557 39.8C61.9157 39.92 62.2257 39.98 62.4857 39.98C62.6057 39.98 62.7357 39.96 62.8757 39.92C63.0157 39.86 63.1157 39.83 63.1757 39.83C63.2557 39.83 63.3257 39.9 63.3857 40.04C63.4657 40.18 63.5057 40.27 63.5057 40.31ZM73.3925 40.85C73.4125 40.89 73.4225 40.95 73.4225 41.03C73.4225 41.15 73.3325 41.33 73.1525 41.57C73.0925 41.65 72.9625 41.78 72.7625 41.96C72.5625 42.14 72.2925 42.32 71.9525 42.5C71.6125 42.68 71.1925 42.84 70.6925 42.98C70.2125 43.12 69.6425 43.19 68.9825 43.19C68.5225 43.19 68.0725 43.09 67.6325 42.89C67.1925 42.67 66.8025 42.36 66.4625 41.96C66.1225 41.54 65.8425 41.03 65.6225 40.43C65.4025 39.81 65.2925 39.09 65.2925 38.27C65.2925 37.49 65.3925 36.76 65.5925 36.08C65.7925 35.4 66.0425 34.8 66.3425 34.28C66.6625 33.76 67.0125 33.35 67.3925 33.05C67.7725 32.75 68.1425 32.6 68.5025 32.6C68.8225 32.6 69.1425 32.67 69.4625 32.81C69.8025 32.93 70.1025 33.09 70.3625 33.29C70.6425 33.49 70.8625 33.72 71.0225 33.98C71.1825 34.22 71.2625 34.47 71.2625 34.73C71.2625 35.03 71.1225 35.34 70.8425 35.66C70.5825 35.98 70.2625 36.28 69.8825 36.56C69.5025 36.82 69.1225 37.04 68.7425 37.22C68.3625 37.38 68.0625 37.46 67.8425 37.46C67.7225 37.46 67.6125 37.41 67.5125 37.31C67.4325 37.19 67.3925 37.05 67.3925 36.89C67.3925 36.61 67.5125 36.39 67.7525 36.23C68.0125 36.07 68.2925 35.93 68.5925 35.81C68.8925 35.67 69.1625 35.51 69.4025 35.33C69.6625 35.15 69.7925 34.9 69.7925 34.58C69.7925 34.54 69.7425 34.44 69.6425 34.28C69.5425 34.12 69.2725 34.04 68.8325 34.04C68.6325 34.04 68.4025 34.16 68.1425 34.4C67.8825 34.62 67.6325 34.93 67.3925 35.33C67.1525 35.71 66.9525 36.17 66.7925 36.71C66.6325 37.23 66.5525 37.8 66.5525 38.42C66.5525 38.94 66.6425 39.41 66.8225 39.83C67.0225 40.25 67.2725 40.61 67.5725 40.91C67.8725 41.19 68.2225 41.41 68.6225 41.57C69.0225 41.73 69.4325 41.81 69.8525 41.81C70.1525 41.81 70.4725 41.75 70.8125 41.63C71.1725 41.49 71.5025 41.35 71.8025 41.21C72.1225 41.05 72.3925 40.91 72.6125 40.79C72.8525 40.65 73.0025 40.58 73.0625 40.58C73.1225 40.58 73.1825 40.61 73.2425 40.67C73.3225 40.73 73.3725 40.79 73.3925 40.85ZM96.2734 40.85C96.2934 40.89 96.3034 40.95 96.3034 41.03C96.3034 41.15 96.2134 41.33 96.0334 41.57C95.9734 41.65 95.8434 41.78 95.6434 41.96C95.4434 42.14 95.1734 42.32 94.8334 42.5C94.4934 42.68 94.0734 42.84 93.5734 42.98C93.0934 43.12 92.5234 43.19 91.8634 43.19C91.4034 43.19 90.9534 43.09 90.5134 42.89C90.0734 42.67 89.6834 42.36 89.3434 41.96C89.0034 41.54 88.7234 41.03 88.5034 40.43C88.2834 39.81 88.1734 39.09 88.1734 38.27C88.1734 37.49 88.2734 36.76 88.4734 36.08C88.6734 35.4 88.9234 34.8 89.2234 34.28C89.5434 33.76 89.8934 33.35 90.2734 33.05C90.6534 32.75 91.0234 32.6 91.3834 32.6C91.7034 32.6 92.0234 32.67 92.3434 32.81C92.6834 32.93 92.9834 33.09 93.2434 33.29C93.5234 33.49 93.7434 33.72 93.9034 33.98C94.0634 34.22 94.1434 34.47 94.1434 34.73C94.1434 35.03 94.0034 35.34 93.7234 35.66C93.4634 35.98 93.1434 36.28 92.7634 36.56C92.3834 36.82 92.0034 37.04 91.6234 37.22C91.2434 37.38 90.9434 37.46 90.7234 37.46C90.6034 37.46 90.4934 37.41 90.3934 37.31C90.3134 37.19 90.2734 37.05 90.2734 36.89C90.2734 36.61 90.3934 36.39 90.6334 36.23C90.8934 36.07 91.1734 35.93 91.4734 35.81C91.7734 35.67 92.0434 35.51 92.2834 35.33C92.5434 35.15 92.6734 34.9 92.6734 34.58C92.6734 34.54 92.6234 34.44 92.5234 34.28C92.4234 34.12 92.1534 34.04 91.7134 34.04C91.5134 34.04 91.2834 34.16 91.0234 34.4C90.7634 34.62 90.5134 34.93 90.2734 35.33C90.0334 35.71 89.8334 36.17 89.6734 36.71C89.5134 37.23 89.4334 37.8 89.4334 38.42C89.4334 38.94 89.5234 39.41 89.7034 39.83C89.9034 40.25 90.1534 40.61 90.4534 40.91C90.7534 41.19 91.1034 41.41 91.5034 41.57C91.9034 41.73 92.3134 41.81 92.7334 41.81C93.0334 41.81 93.3534 41.75 93.6934 41.63C94.0534 41.49 94.3834 41.35 94.6834 41.21C95.0034 41.05 95.2734 40.91 95.4934 40.79C95.7334 40.65 95.8834 40.58 95.9434 40.58C96.0034 40.58 96.0634 40.61 96.1234 40.67C96.2034 40.73 96.2534 40.79 96.2734 40.85ZM94.5634 28.16C94.5634 28.32 94.4434 28.55 94.2034 28.85C93.9634 29.15 93.6734 29.46 93.3334 29.78C93.0134 30.1 92.6734 30.4 92.3134 30.68C91.9734 30.94 91.7034 31.12 91.5034 31.22C91.3434 31.3 91.2034 31.35 91.0834 31.37C90.9634 31.39 90.8634 31.4 90.7834 31.4C90.6234 31.4 90.4234 31.31 90.1834 31.13C89.9434 30.95 89.8234 30.78 89.8234 30.62C89.8234 30.58 89.9134 30.53 90.0934 30.47C90.2734 30.39 90.4734 30.29 90.6934 30.17C90.8934 30.05 91.1534 29.86 91.4734 29.6C91.8134 29.32 92.1434 29.05 92.4634 28.79C92.8034 28.51 93.1034 28.27 93.3634 28.07C93.6434 27.87 93.8334 27.77 93.9334 27.77C94.0734 27.77 94.2134 27.81 94.3534 27.89C94.4934 27.97 94.5634 28.06 94.5634 28.16ZM102.382 43.13C102.382 43.29 102.322 43.41 102.202 43.49C102.082 43.57 101.942 43.61 101.782 43.61C101.602 43.61 101.412 43.44 101.212 43.1C101.032 42.76 100.852 42.33 100.672 41.81C100.492 41.29 100.322 40.73 100.162 40.13C100.002 39.51 99.8624 38.94 99.7424 38.42C99.6224 37.88 99.5224 37.43 99.4424 37.07C99.3824 36.71 99.3524 36.51 99.3524 36.47C99.3524 36.39 99.3124 36.18 99.2324 35.84C99.1724 35.5 99.0824 34.97 98.9624 34.25C98.8624 33.53 98.7424 32.6 98.6024 31.46C98.4824 30.3 98.3524 28.87 98.2124 27.17C98.2124 26.99 98.2424 26.76 98.3024 26.48C98.3624 26.2 98.5024 26.06 98.7224 26.06C99.0024 26.06 99.2124 26.25 99.3524 26.63C99.5124 27.01 99.6324 27.48 99.7124 28.04C99.8124 28.6 99.8824 29.19 99.9224 29.81C99.9624 30.41 100.012 30.94 100.072 31.4C100.152 32.04 100.222 32.62 100.282 33.14C100.362 33.66 100.432 34.18 100.492 34.7C100.572 35.2 100.662 35.73 100.762 36.29C100.882 36.85 101.022 37.47 101.182 38.15L102.382 43.13ZM113.061 40.85C113.081 40.89 113.091 40.95 113.091 41.03C113.091 41.15 113.001 41.33 112.821 41.57C112.761 41.65 112.631 41.78 112.431 41.96C112.231 42.14 111.961 42.32 111.621 42.5C111.281 42.68 110.861 42.84 110.361 42.98C109.881 43.12 109.311 43.19 108.651 43.19C108.191 43.19 107.741 43.09 107.301 42.89C106.861 42.67 106.471 42.36 106.131 41.96C105.791 41.54 105.511 41.03 105.291 40.43C105.071 39.81 104.961 39.09 104.961 38.27C104.961 37.49 105.061 36.76 105.261 36.08C105.461 35.4 105.711 34.8 106.011 34.28C106.331 33.76 106.681 33.35 107.061 33.05C107.441 32.75 107.811 32.6 108.171 32.6C108.491 32.6 108.811 32.67 109.131 32.81C109.471 32.93 109.771 33.09 110.031 33.29C110.311 33.49 110.531 33.72 110.691 33.98C110.851 34.22 110.931 34.47 110.931 34.73C110.931 35.03 110.791 35.34 110.511 35.66C110.251 35.98 109.931 36.28 109.551 36.56C109.171 36.82 108.791 37.04 108.411 37.22C108.031 37.38 107.731 37.46 107.511 37.46C107.391 37.46 107.281 37.41 107.181 37.31C107.101 37.19 107.061 37.05 107.061 36.89C107.061 36.61 107.181 36.39 107.421 36.23C107.681 36.07 107.961 35.93 108.261 35.81C108.561 35.67 108.831 35.51 109.071 35.33C109.331 35.15 109.461 34.9 109.461 34.58C109.461 34.54 109.411 34.44 109.311 34.28C109.211 34.12 108.941 34.04 108.501 34.04C108.301 34.04 108.071 34.16 107.811 34.4C107.551 34.62 107.301 34.93 107.061 35.33C106.821 35.71 106.621 36.17 106.461 36.71C106.301 37.23 106.221 37.8 106.221 38.42C106.221 38.94 106.311 39.41 106.491 39.83C106.691 40.25 106.941 40.61 107.241 40.91C107.541 41.19 107.891 41.41 108.291 41.57C108.691 41.73 109.101 41.81 109.521 41.81C109.821 41.81 110.141 41.75 110.481 41.63C110.841 41.49 111.171 41.35 111.471 41.21C111.791 41.05 112.061 40.91 112.281 40.79C112.521 40.65 112.671 40.58 112.731 40.58C112.791 40.58 112.851 40.61 112.911 40.67C112.991 40.73 113.041 40.79 113.061 40.85ZM123.819 38.54C123.819 38.74 123.789 38.95 123.729 39.17C123.669 39.37 123.609 39.54 123.549 39.68C123.509 39.74 123.319 39.95 122.979 40.31C122.659 40.65 122.249 41.01 121.749 41.39C121.269 41.77 120.719 42.12 120.099 42.44C119.499 42.74 118.919 42.89 118.359 42.89C118.019 42.89 117.669 42.83 117.309 42.71C116.969 42.59 116.649 42.4 116.349 42.14C116.049 41.86 115.799 41.52 115.599 41.12C115.419 40.72 115.329 40.23 115.329 39.65C115.329 38.69 115.489 37.82 115.809 37.04C116.129 36.26 116.449 35.64 116.769 35.18C116.909 34.96 117.089 34.74 117.309 34.52C117.549 34.28 117.779 34.07 117.999 33.89C118.219 33.69 118.419 33.53 118.599 33.41C118.799 33.29 118.939 33.23 119.019 33.23C119.199 33.23 119.359 33.28 119.499 33.38C119.659 33.48 119.739 33.58 119.739 33.68C119.739 33.84 119.689 33.98 119.589 34.1C119.509 34.2 119.389 34.32 119.229 34.46C119.069 34.58 118.879 34.75 118.659 34.97C118.439 35.17 118.209 35.44 117.969 35.78C117.489 36.44 117.129 37.12 116.889 37.82C116.669 38.5 116.559 39.1 116.559 39.62C116.559 40.14 116.749 40.56 117.129 40.88C117.529 41.18 117.939 41.33 118.359 41.33C119.119 41.33 119.789 41.16 120.369 40.82C120.969 40.48 121.479 40.1 121.899 39.68C122.319 39.26 122.659 38.88 122.919 38.54C123.179 38.2 123.369 38.03 123.489 38.03C123.709 38.03 123.819 38.2 123.819 38.54ZM134.174 30.44C133.914 30.74 133.544 31.04 133.064 31.34C132.584 31.62 132.104 31.88 131.624 32.12C131.144 32.36 130.724 32.57 130.364 32.75C130.004 32.91 129.824 33.02 129.824 33.08C129.824 33.14 129.864 33.32 129.944 33.62C130.024 33.92 130.114 34.28 130.214 34.7C130.334 35.1 130.454 35.52 130.574 35.96C130.694 36.4 130.794 36.79 130.874 37.13C130.914 37.33 130.964 37.59 131.024 37.91C131.084 38.23 131.134 38.55 131.174 38.87C131.234 39.19 131.284 39.48 131.324 39.74C131.364 39.98 131.384 40.11 131.384 40.13C131.384 40.43 131.334 40.74 131.234 41.06C131.134 41.38 130.974 41.54 130.754 41.54C130.634 41.54 130.524 41.49 130.424 41.39C130.324 41.29 130.234 41.18 130.154 41.06C130.074 40.92 130.014 40.79 129.974 40.67C129.934 40.55 129.914 40.46 129.914 40.4C129.914 40.36 129.914 40.3 129.914 40.22C129.934 40.14 129.944 40.05 129.944 39.95C129.944 39.57 129.884 39.02 129.764 38.3C129.724 38.08 129.644 37.74 129.524 37.28C129.404 36.82 129.284 36.35 129.164 35.87C129.024 35.31 128.864 34.7 128.684 34.04C128.604 33.76 128.554 33.62 128.534 33.62C128.394 33.62 128.154 33.71 127.814 33.89C127.494 34.05 127.124 34.26 126.704 34.52C126.284 34.76 125.844 35.03 125.384 35.33C124.924 35.61 124.494 35.88 124.094 36.14C123.694 36.38 123.354 36.59 123.074 36.77C122.774 36.93 122.594 37.01 122.534 37.01C122.274 37.01 122.064 36.92 121.904 36.74C121.744 36.56 121.664 36.36 121.664 36.14C121.664 36.02 121.834 35.85 122.174 35.63C122.494 35.39 122.904 35.13 123.404 34.85C123.884 34.57 124.414 34.28 124.994 33.98C125.554 33.68 126.074 33.41 126.554 33.17C127.054 32.93 127.464 32.73 127.784 32.57C128.124 32.41 128.294 32.33 128.294 32.33C128.114 31.41 127.964 30.59 127.844 29.87C127.744 29.25 127.644 28.68 127.544 28.16C127.464 27.64 127.424 27.36 127.424 27.32C127.424 27.06 127.474 26.87 127.574 26.75C127.694 26.61 127.824 26.54 127.964 26.54C128.184 26.54 128.324 26.69 128.384 26.99C128.604 28.07 128.804 29.03 128.984 29.87C129.184 30.71 129.374 31.39 129.554 31.91C129.734 31.87 130.044 31.76 130.484 31.58C130.924 31.38 131.384 31.17 131.864 30.95C132.344 30.73 132.774 30.54 133.154 30.38C133.554 30.2 133.784 30.11 133.844 30.11C133.964 30.11 134.034 30.15 134.054 30.23C134.094 30.31 134.134 30.38 134.174 30.44ZM137.574 30.2C137.574 30.24 137.504 30.32 137.364 30.44C137.224 30.56 137.054 30.69 136.854 30.83C136.674 30.95 136.484 31.06 136.284 31.16C136.084 31.26 135.924 31.31 135.804 31.31C135.724 31.31 135.614 31.31 135.474 31.31C135.354 31.29 135.224 31.25 135.084 31.19C134.964 31.13 134.854 31.05 134.754 30.95C134.654 30.83 134.604 30.68 134.604 30.5C134.604 30.22 134.704 29.96 134.904 29.72C135.104 29.46 135.364 29.33 135.684 29.33C135.744 29.33 135.874 29.36 136.074 29.42C136.294 29.46 136.514 29.52 136.734 29.6C136.954 29.68 137.144 29.77 137.304 29.87C137.484 29.97 137.574 30.08 137.574 30.2ZM138.564 41.42C138.564 41.56 138.454 41.68 138.234 41.78C138.034 41.88 137.884 41.93 137.784 41.93C137.584 41.93 137.404 41.8 137.244 41.54C137.084 41.28 136.944 40.98 136.824 40.64C136.704 40.3 136.604 39.98 136.524 39.68C136.444 39.36 136.384 39.14 136.344 39.02C136.284 38.82 136.204 38.58 136.104 38.3C136.004 38.02 135.904 37.75 135.804 37.49C135.724 37.23 135.654 37 135.594 36.8C135.534 36.6 135.504 36.49 135.504 36.47C135.504 36.19 135.554 35.93 135.654 35.69C135.774 35.45 135.914 35.33 136.074 35.33C136.254 35.33 136.444 35.47 136.644 35.75C136.844 36.03 137.034 36.39 137.214 36.83C137.414 37.25 137.594 37.72 137.754 38.24C137.914 38.74 138.054 39.22 138.174 39.68C138.294 40.12 138.384 40.51 138.444 40.85C138.524 41.17 138.564 41.36 138.564 41.42ZM145.833 37.52C145.833 37.96 145.773 38.38 145.653 38.78C145.533 39.18 145.373 39.53 145.173 39.83C144.973 40.13 144.733 40.37 144.453 40.55C144.193 40.71 143.903 40.79 143.583 40.79C143.023 40.79 142.583 40.63 142.263 40.31C141.943 39.99 141.693 39.62 141.513 39.2C141.353 38.78 141.243 38.36 141.183 37.94C141.143 37.5 141.123 37.17 141.123 36.95C141.123 36.59 141.173 36.19 141.273 35.75C141.393 35.29 141.543 34.87 141.723 34.49C141.923 34.11 142.143 33.79 142.383 33.53C142.623 33.27 142.873 33.14 143.133 33.14C143.193 33.14 143.283 33.16 143.403 33.2C143.543 33.24 143.683 33.3 143.823 33.38C143.963 33.46 144.083 33.56 144.183 33.68C144.303 33.8 144.383 33.94 144.423 34.1C144.643 34.12 144.863 34.2 145.083 34.34C145.303 34.48 145.423 34.59 145.443 34.67C145.603 35.19 145.703 35.71 145.743 36.23C145.803 36.75 145.833 37.18 145.833 37.52ZM144.483 36.98C144.483 36.68 144.453 36.37 144.393 36.05C144.333 35.71 144.213 35.37 144.033 35.03C143.993 35.05 143.943 35.06 143.883 35.06C143.803 35.06 143.733 35.05 143.673 35.03C143.633 35.01 143.593 35 143.553 35C143.313 35 143.123 35.07 142.983 35.21C142.843 35.33 142.733 35.5 142.653 35.72C142.593 35.92 142.553 36.14 142.533 36.38C142.513 36.62 142.503 36.85 142.503 37.07C142.503 37.29 142.513 37.54 142.533 37.82C142.553 38.08 142.593 38.33 142.653 38.57C142.733 38.81 142.833 39.02 142.953 39.2C143.073 39.36 143.233 39.44 143.433 39.44C143.633 39.44 143.803 39.34 143.943 39.14C144.083 38.92 144.193 38.67 144.273 38.39C144.353 38.11 144.403 37.84 144.423 37.58C144.463 37.3 144.483 37.1 144.483 36.98ZM157.871 40.31C157.871 40.43 157.831 40.55 157.751 40.67C157.671 40.79 157.571 40.9 157.451 41C157.351 41.1 157.231 41.19 157.091 41.27C156.971 41.33 156.861 41.36 156.761 41.36C156.421 41.36 155.981 41.29 155.441 41.15C154.921 40.99 154.501 40.75 154.181 40.43C153.841 40.09 153.541 39.69 153.281 39.23C153.021 38.75 152.731 38.05 152.411 37.13C152.191 38.01 151.931 38.88 151.631 39.74C151.351 40.6 150.891 41.39 150.251 42.11C150.211 42.15 150.151 42.17 150.071 42.17C149.931 42.17 149.781 42.1 149.621 41.96C149.461 41.82 149.381 41.68 149.381 41.54C149.381 41.4 149.361 41.08 149.321 40.58C149.301 40.06 149.271 39.49 149.231 38.87C149.191 38.23 149.151 37.59 149.111 36.95C149.091 36.29 149.081 35.75 149.081 35.33C149.081 35.13 149.091 34.87 149.111 34.55C149.131 34.21 149.191 33.92 149.291 33.68C149.311 33.64 149.381 33.56 149.501 33.44C149.641 33.32 149.791 33.26 149.951 33.26C150.091 33.26 150.171 33.35 150.191 33.53C150.211 33.71 150.221 33.91 150.221 34.13V38.87C150.221 38.97 150.231 39.11 150.251 39.29C150.291 39.47 150.341 39.6 150.401 39.68C150.621 39.2 150.821 38.64 151.001 38C151.201 37.34 151.391 36.72 151.571 36.14C151.751 35.54 151.931 35.04 152.111 34.64C152.291 34.22 152.471 34.01 152.651 34.01C152.851 34.01 153.011 34.05 153.131 34.13C153.251 34.21 153.351 34.37 153.431 34.61C153.531 35.19 153.611 35.71 153.671 36.17C153.731 36.61 153.801 37.01 153.881 37.37C153.981 37.73 154.111 38.07 154.271 38.39C154.451 38.69 154.691 38.97 154.991 39.23C155.271 39.49 155.581 39.68 155.921 39.8C156.281 39.92 156.591 39.98 156.851 39.98C156.971 39.98 157.101 39.96 157.241 39.92C157.381 39.86 157.481 39.83 157.541 39.83C157.621 39.83 157.691 39.9 157.751 40.04C157.831 40.18 157.871 40.27 157.871 40.31ZM181.2 31.04C181.2 31.4 181.05 31.78 180.75 32.18C180.45 32.56 180.08 32.96 179.64 33.38C179.2 33.78 178.72 34.19 178.2 34.61C177.68 35.03 177.2 35.45 176.76 35.87C176.32 36.27 175.95 36.66 175.65 37.04C175.35 37.42 175.2 37.77 175.2 38.09C175.2 38.31 175.22 38.55 175.26 38.81C175.32 39.05 175.4 39.25 175.5 39.41C175.4 39.59 175.3 39.73 175.2 39.83C175.1 39.93 174.97 39.98 174.81 39.98C174.67 39.98 174.54 39.92 174.42 39.8C174.32 39.68 174.23 39.53 174.15 39.35C174.07 39.17 174 38.98 173.94 38.78C173.9 38.58 173.88 38.4 173.88 38.24C173.88 37.78 173.94 37.4 174.06 37.1C174.18 36.78 174.36 36.49 174.6 36.23C174.86 35.95 175.17 35.67 175.53 35.39C175.89 35.11 176.31 34.79 176.79 34.43C177.15 34.15 177.51 33.85 177.87 33.53C178.25 33.21 178.58 32.9 178.86 32.6C179.16 32.28 179.4 31.98 179.58 31.7C179.78 31.4 179.88 31.13 179.88 30.89C179.88 30.69 179.79 30.49 179.61 30.29C179.45 30.09 179.23 29.92 178.95 29.78C178.67 29.62 178.34 29.5 177.96 29.42C177.58 29.32 177.18 29.27 176.76 29.27C175.82 29.27 175.08 29.34 174.54 29.48C174.02 29.62 173.6 29.69 173.28 29.69C173.12 29.69 172.96 29.65 172.8 29.57C172.64 29.47 172.56 29.33 172.56 29.15C172.56 28.91 172.74 28.71 173.1 28.55C173.46 28.39 173.87 28.27 174.33 28.19C174.81 28.11 175.26 28.06 175.68 28.04C176.12 28 176.41 27.98 176.55 27.98C177.17 27.98 177.76 28.07 178.32 28.25C178.88 28.43 179.37 28.66 179.79 28.94C180.23 29.22 180.57 29.55 180.81 29.93C181.07 30.29 181.2 30.66 181.2 31.04ZM177.27 43.82C177.27 44.06 177.15 44.24 176.91 44.36C176.67 44.5 176.45 44.57 176.25 44.57C176.07 44.57 175.86 44.47 175.62 44.27C175.38 44.09 175.26 43.91 175.26 43.73C175.26 43.67 175.26 43.59 175.26 43.49C175.28 43.37 175.31 43.25 175.35 43.13C175.41 43.01 175.48 42.91 175.56 42.83C175.64 42.73 175.75 42.68 175.89 42.68C175.95 42.68 176.05 42.73 176.19 42.83C176.35 42.91 176.51 43.01 176.67 43.13C176.83 43.25 176.97 43.38 177.09 43.52C177.21 43.64 177.27 43.74 177.27 43.82Z" fill="#555555"/>
</svg>
