<svg width="115" height="144" viewBox="0 0 115 144" fill="none" xmlns="http://www.w3.org/2000/svg">
<path d="M62.5386 143.441V58.54L4.11206 40.4785V122.124L62.5386 143.441Z" fill="#373684"/>
<path d="M62.5387 71.0582V58.5402L0 39.207V51.1482L62.5387 71.0582Z" fill="#373684"/>
<path d="M62.5388 143.442V58.5403L120.894 40.501L120.882 122.105L62.5388 143.442Z" fill="#373684"/>
<path d="M120.894 40.5012L62.5513 27.2344L4.20825 40.5012L62.5391 58.5405L120.894 40.5012Z" fill="#ADB2D9"/>
<path d="M0 39.2078L62.5387 24.6865V27.1931L4.11213 40.4795L0 39.2078Z" fill="#373684"/>
<path d="M125.077 39.2078L62.5388 24.6865V27.1931L120.894 40.5016L125.077 39.2078Z" fill="#373684"/>
<path d="M0 39.207L62.5387 58.5402C62.5387 58.5402 9.9673 42.3838 0 42.8625V39.207Z" fill="#5154A1"/>
<path d="M62.5388 71.0582V58.5402L125.077 39.207V51.1482L62.5388 71.0582Z" fill="#5154A1"/>
<path d="M125.077 39.207L62.5388 58.5402C62.5388 58.5402 115.79 42.3838 125.077 42.8674V39.207Z" fill="#373684"/>
<path d="M62.5388 58.54C62.5388 58.54 71.178 68.3257 101.858 58.54L62.5388 71.0581V58.54Z" fill="#373684"/>
<path opacity="0.6" d="M4.19531 122.105L62.5384 71.0579L4.19531 52.4834V122.105Z" fill="#2A2A63"/>
<path opacity="0.6" d="M120.887 122.105L62.5435 71.0579L120.887 52.4834V122.105Z" fill="#2A2A63"/>
<path d="M44.3542 37.2555L54.5155 34.501L90.1155 44.4634L77.6416 47.2743L44.3542 37.2555Z" fill="#373684"/>
<path d="M54.5155 34.501V40.3144L44.3542 37.2555L54.5155 34.501Z" fill="#2A2A63"/>
<path opacity="0.6" d="M4.19531 52.4834L62.5384 71.0579L120.881 52.4834V61.7707L62.5384 81.1382L4.19531 62.9564V52.4834Z" fill="#2A2A63"/>
<path d="M0 39.2067C0 39.2067 40.6597 32.1019 62.5387 27.1943L4.24713 40.1616L0 39.2067Z" fill="#2A2A63"/>
<path d="M75.55 0.685547L51.5818 39.4254L77.6416 47.2814L78.2873 47.1366L98.3102 14.7699L75.55 0.685547Z" fill="#E3E1E1"/>
<path d="M56.2661 37.1227L74.8603 27.2339L75.5502 0.685547" stroke="#989595" stroke-width="2" stroke-miterlimit="10"/>
<path d="M74.8604 27.2339L76.9888 1.57426L75.5502 0.685547L74.8604 27.2339Z" fill="#989595"/>
<path opacity="0.6" d="M58.5983 28.0889L51.5819 39.431L62.5386 42.728V58.5407L4.11206 40.4793L58.5983 28.0889Z" fill="#5154A1"/>
<path opacity="0.6" d="M48.3805 36.1631L82.3233 46.2188L78.2873 47.1296L77.6416 47.2744L44.3542 37.2556L48.3805 36.1631Z" fill="#5154A1"/>
<path opacity="0.6" d="M52.7946 37.4717L51.5818 39.4308L77.6416 47.2745L78.2873 47.1297L79.3896 45.3498L52.7946 37.4717Z" fill="#989595"/>
<path opacity="0.6" d="M4.19531 52.4834C4.19531 52.4834 13.5243 111.757 62.5384 143.441L4.19531 122.105V52.4834Z" fill="#5154A1"/>
<path opacity="0.6" d="M120.887 52.4834C120.887 52.4834 114.688 122.105 62.5435 143.441L120.887 122.105V52.4834Z" fill="#5154A1"/>
</svg>
