<svg width="212" height="23" viewBox="0 0 212 23" fill="none" xmlns="http://www.w3.org/2000/svg">
<path d="M12.4804 15.43L8.40039 0.699997L0.150392 0.699999L7.3804 22L17.6104 22L24.8404 0.699995L16.5604 0.699996L12.4804 15.43ZM24.0965 11.35C24.0965 18.58 29.3465 22.3 35.9765 22.3C43.1465 22.3 47.7965 18.58 47.7965 11.35C47.7965 4.62999 42.9965 0.399992 35.9765 0.399993C29.3465 0.399994 24.0965 4.54 24.0965 11.35ZM31.7765 11.35C31.7765 8.85999 33.4565 7.20999 35.9765 7.20999C38.5565 7.20999 40.1465 8.88999 40.1465 11.35C40.1465 13.96 38.5865 15.49 35.9765 15.49C33.4565 15.49 31.7765 13.93 31.7765 11.35ZM48.475 7.65999L55.915 7.65999L55.915 22L63.415 22L63.415 7.65999L70.855 7.65999L70.855 0.699986L48.475 0.69999L48.475 7.65999ZM72.389 22L90.989 22L90.989 15.4L79.889 15.4L79.889 13.39L90.509 13.39L90.509 9.18998L79.889 9.18999L79.889 7.29999L90.989 7.29998L90.989 0.699983L72.389 0.699986L72.389 22ZM117.204 10.72C118.284 10.12 119.214 8.64998 119.214 6.72998C119.214 2.94998 116.244 0.699979 110.244 0.69998L98.8441 0.699982L98.8441 22L110.814 22C117.324 22 119.784 19.66 119.784 15.52C119.784 13.24 118.494 11.17 117.204 10.72ZM109.794 9.33998L106.344 9.33998L106.344 6.66998L109.824 6.66998C111.174 6.66998 111.864 7.08998 111.864 7.95998C111.864 9.24998 110.844 9.33998 109.794 9.33998ZM106.344 16.03L106.344 12.94L110.214 12.94C111.414 12.94 112.134 13.21 112.134 14.53C112.134 15.85 111.144 16.03 110.184 16.03L106.344 16.03ZM121.138 22L138.658 22L138.658 15.1L128.638 15.1L128.638 0.699976L121.138 0.699978L121.138 22ZM155.845 22L163.795 22L156.565 0.699971L146.335 0.699973L139.105 22L147.085 22L148.045 18.76L154.885 18.76L155.845 22ZM151.465 7.26997L153.295 13.39L149.635 13.39L151.465 7.26997ZM179.373 0.699967L179.373 11.11L172.323 0.699969L164.703 0.69997L164.703 22L172.203 22L172.203 11.47L179.553 22L186.963 22L186.963 0.699966L179.373 0.699967ZM211.375 12.67L203.665 12.67C203.455 14.47 201.985 15.4 199.885 15.4C197.545 15.4 195.985 13.93 195.985 11.35C195.985 8.85997 197.545 7.38996 199.885 7.38996C201.955 7.38996 203.395 8.43996 203.665 10.06L211.375 10.06C210.865 4.20996 206.545 0.579962 199.885 0.579964C193.255 0.579965 188.305 4.62997 188.305 11.35C188.305 18.67 193.255 22.21 199.885 22.21C206.695 22.21 210.895 19.12 211.375 12.67Z" fill="white"/>
</svg>
