<svg id="Calque_4" data-name="Calque 4" xmlns="http://www.w3.org/2000/svg" viewBox="0 0 319.36 101.81"><defs><style>.cls-1{fill:#6b00ee;}.cls-2{fill:none;stroke:#1be5b9;stroke-miterlimit:10;stroke-width:3px;}.cls-3,.cls-7{fill:#1be5b9;}.cls-3{fill-rule:evenodd;}.cls-4{fill:#e74366;}.cls-5{fill:#bf3a5b;}.cls-6{fill:#1e166f;}.cls-8{fill:#fff;}</style></defs><rect class="cls-1" x="9.86" y="0.81" width="308" height="76.31" rx="18.31"/><rect class="cls-2" x="9.86" y="1.5" width="308" height="76.31" rx="18.31"/><path class="cls-3" d="M175,360.24a11.13,11.13,0,0,0,.1,1.58v1c0,6.6-4.95,12-11,12H75.14c-6,0-11-5.4-11-12v-1c0-6.6,5-12,11-12h88.92c1.55,0,3,.36,3.45,1h17.63C177,350.82,175,357.19,175,360.24Z" transform="translate(-46.28 -273.01)"/><ellipse class="cls-4" cx="27.27" cy="80.73" rx="19.53" ry="17.16"/><path class="cls-4" d="M57,362.86c-4,0-7.72-3.15-7.72-7.1a7.15,7.15,0,0,1,7.15-7.15" transform="translate(-46.28 -273.01)"/><ellipse class="cls-5" cx="7.73" cy="82.67" rx="1.41" ry="3.1"/><path class="cls-5" d="M79,364s-9.5,2.9-14.69-2.9" transform="translate(-46.28 -273.01)"/><path class="cls-6" d="M91.56,341.87a13,13,0,0,1,3.7,2.9c2,3.07-2,6.13-7.15,3.07s-2.88-6.27-13.7-5.17a29.31,29.31,0,0,0-4.69,1.08,44.6,44.6,0,0,0-14.31,8.17s-7.95-9.39,5.11-17.37,33.49.19,37.81,3.07C101.29,339.59,95.5,341.11,91.56,341.87Z" transform="translate(-46.28 -273.01)"/><path class="cls-7" d="M74.16,331.15c10.59,0,21.19,4.49,24.17,6.47s-2.83,3.49-6.77,4.25a13,13,0,0,1,3.7,2.9c1.43,2.14-.13,4.27-2.93,4.33a15.28,15.28,0,0,1,.74,4.64c0,9.48-8.74,17.17-19.53,17.17A20.24,20.24,0,0,1,57,362.82v0c-4,0-7.72-3.15-7.72-7.1a7.15,7.15,0,0,1,4.52-6.65c-1.36-3.39-1.91-9.28,6.72-14.56a26,26,0,0,1,13.64-3.4m0-3A28.74,28.74,0,0,0,59,332c-3.36,2.05-10.42,7.45-8.71,15.71a10.11,10.11,0,0,0-4,8.06c0,5,4.07,9.27,9.18,10a23.38,23.38,0,0,0,18.08,8.16c12.43,0,22.53-9.05,22.53-20.17a18.22,18.22,0,0,0-.18-2.55,5.8,5.8,0,0,0,2.31-2.35,5.57,5.57,0,0,0-.32-5.54c2.6-1,3.85-2.21,4.19-3.87a4.1,4.1,0,0,0-2.08-4.31c-3.28-2.18-14.33-7-25.83-7Z" transform="translate(-46.28 -273.01)"/><path class="cls-8" d="M105.29,365.16c0,.6-.79.6-1.21.6-2.7,0-4.51-1.95-4.51-4.83s1.9-5,4.72-5c.61,0,1,.23,1,.61v1.47c0,.17-.11.23-.51.23a2.52,2.52,0,0,0-2.81,2.45,2.81,2.81,0,0,0,2.89,2.72c.32,0,.43.05.43.22Z" transform="translate(-46.28 -273.01)"/><path class="cls-8" d="M112.72,360.66c0,3.94-1,5.28-3.32,5.28-2.54,0-3.55-1.57-3.55-5.29,0-3.44,1-4.87,3.29-4.87S112.72,357.44,112.72,360.66Zm-3.37,2.94c.87,0,1-.41,1-3.14,0-1.78-.17-2.5-1.14-2.5s-1.06.72-1.06,2.4C108.19,363.1,108.38,363.6,109.35,363.6Z" transform="translate(-46.28 -273.01)"/><path class="cls-8" d="M120.33,356.26v9.23c0,.23-.06.27-.23.27h-1.45c-.17,0-.21,0-.38-.27-.06-.08-2.45-3.42-2.52-3.42s-.06,2.51-.06,3.41c0,.24-.07.28-.21.28H113.8c-.16,0-.23-.07-.23-.18v-8.93c0-.19,1.06-.7,1.42-.7a.26.26,0,0,1,.22.1c.05.08,2.74,4.81,2.82,4.81s.18-3.17.18-4.6c0-.24.1-.31.28-.31h1.58C120.28,356,120.33,356.05,120.33,356.26Z" transform="translate(-46.28 -273.01)"/><path class="cls-8" d="M120.88,365v-1.19c0-.49.1-.58.31-.62.77-.14,3.38.3,3.38-.95,0-1.43-3.41-.63-3.41-3.38,0-2.15,2.12-2.87,4-2.87a7.31,7.31,0,0,1,1.26.1c.48.08.59.15.59.62v.85c0,.38,0,.56-.55.46a6.41,6.41,0,0,0-1.15-.11c-1,0-1.45.35-1.45.94,0,1.57,3.12.73,3.12,4,0,2.41-1.68,2.92-3.44,2.92a16.77,16.77,0,0,1-2.22-.18C121,365.51,120.88,365.42,120.88,365Z" transform="translate(-46.28 -273.01)"/><path class="cls-8" d="M132.13,363.47c.58,0,1.29,0,1.26.4l-.1,1.22c0,.51-.14.67-.41.67H128c-.19,0-.19-.21-.19-.37v-8.82c0-.32,1.44-.62,2-.62a23.55,23.55,0,0,1,3.49.23c.09,0,.32.05.32.61v1.4a.18.18,0,0,1-.18.19h-3.08c-.08,0-.1.11-.1.19v1.09h1a.3.3,0,0,1,.34.29v1.3c0,.14-.06.21-.16.21h-1.2c-.06,0-.07.05-.07.11v1.71c0,.14.07.19.22.19Z" transform="translate(-46.28 -273.01)"/><path class="cls-8" d="M135.08,365.76c-.25,0-.31,0-.31-.14v-9.07c0-.32,1.54-.6,2.79-.6.18,0,.24,0,.24.3v9.37c0,.14-.09.14-.38.14Z" transform="translate(-46.28 -273.01)"/><path class="cls-8" d="M138.84,356.55c0-.25,1.33-.6,2.55-.6.1,0,.21,0,.21.11s-.42,4.71-.42,5.69c0,.44-.08,1,.25,1,.52,0,2.79-.35,3.13-.35.15,0,.21.06.21.24l-.11,3c0,.18-.2.18-.4.18h-5.19c-.1,0-.23,0-.23-.18Z" transform="translate(-46.28 -273.01)"/><path class="cls-8" d="M145.47,356.55c0-.25,1.33-.6,2.54-.6.1,0,.22,0,.22.11s-.43,4.71-.43,5.69c0,.44-.08,1,.26,1,.52,0,2.78-.35,3.12-.35.15,0,.21.06.21.24l-.11,3c0,.18-.2.18-.39.18h-5.2c-.1,0-.22,0-.22-.18Z" transform="translate(-46.28 -273.01)"/><path class="cls-8" d="M156.6,363.47c.59,0,1.29,0,1.26.4l-.1,1.22c0,.51-.14.67-.41.67h-4.93c-.19,0-.19-.21-.19-.37v-8.82c0-.32,1.44-.62,2-.62a23.55,23.55,0,0,1,3.49.23c.09,0,.32.05.32.61v1.4a.18.18,0,0,1-.18.19h-3.08c-.08,0-.1.11-.1.19v1.09h1a.3.3,0,0,1,.34.29v1.3c0,.14-.06.21-.15.21h-1.21c-.05,0-.07.05-.07.11v1.71c0,.14.07.19.23.19Z" transform="translate(-46.28 -273.01)"/><path class="cls-8" d="M165.1,365.58c0,.18-.2.18-.3.18h-2.07a.23.23,0,0,1-.22-.13l-.85-1.82c-.11-.24-.19-.36-.25-.36s-.1.12-.1.36v1.77c0,.18-.18.18-.28.18h-1.76c-.1,0-.24,0-.24-.18,0-.66.11-2.26.11-4.26s-.08-4.75-.08-4.85c0-.35,1.2-.52,2.27-.52,1.76,0,3,1,3,2.59a2.23,2.23,0,0,1-1.93,2.32c-.12,0-.11,0,0,.22A39.14,39.14,0,0,1,165.1,365.58Zm-3.87-6.53c0,.08,0,.11.17.11a1.19,1.19,0,0,0,1.12-1.11c0-.42-.35-.58-1-.58-.27,0-.31,0-.31.25Z" transform="translate(-46.28 -273.01)"/></svg>