<svg id="Calque_1" data-name="Calque 1" xmlns="http://www.w3.org/2000/svg" viewBox="0 0 319.79 136.93"><defs><style>.cls-1{fill:#6b00ee;}.cls-2{fill:none;stroke:#1be5b9;stroke-miterlimit:10;stroke-width:3.86px;}.cls-3,.cls-7{fill:#1be5b9;}.cls-3{fill-rule:evenodd;}.cls-4{fill:#e74366;}.cls-5{fill:#bf3a5b;}.cls-6{fill:#1e166f;}.cls-8{fill:#fff;}</style></defs><rect class="cls-1" x="9.86" y="0.93" width="308" height="110" rx="26.66"/><rect class="cls-2" x="9.86" y="1.93" width="308" height="110" rx="26.66"/><path class="cls-3" d="M166.74,360.8a11.13,11.13,0,0,0,.1,1.58v1c0,6.6-5,12-11,12H66.93c-6.05,0-11-5.4-11-12v-1c0-6.6,5-12,11-12h88.91c1.55,0,3,.36,3.46,1h17.63C168.77,351.38,166.75,357.75,166.74,360.8Z" transform="translate(-38.06 -238.45)"/><ellipse class="cls-4" cx="27.27" cy="115.86" rx="19.53" ry="17.16"/><path class="cls-4" d="M48.78,363.42c-4,0-7.72-3.15-7.72-7.1a7.15,7.15,0,0,1,7.15-7.15" transform="translate(-38.06 -238.45)"/><ellipse class="cls-5" cx="7.73" cy="117.79" rx="1.41" ry="3.1"/><path class="cls-5" d="M70.76,364.51s-9.5,2.9-14.7-2.9" transform="translate(-38.06 -238.45)"/><path class="cls-6" d="M83.35,342.43a13.15,13.15,0,0,1,3.7,2.9c2,3.07-2,6.13-7.15,3.07s-2.89-6.27-13.71-5.17a29.82,29.82,0,0,0-4.69,1.08,44.69,44.69,0,0,0-14.3,8.17s-8-9.39,5.11-17.37,33.48.19,37.8,3.07C93.08,340.15,87.28,341.67,83.35,342.43Z" transform="translate(-38.06 -238.45)"/><path class="cls-7" d="M66,331.71c10.58,0,21.19,4.49,24.16,6.47s-2.83,3.49-6.76,4.25a13.15,13.15,0,0,1,3.7,2.9c1.42,2.14-.13,4.27-2.93,4.33a15.28,15.28,0,0,1,.74,4.64c0,9.48-8.74,17.17-19.53,17.17a20.23,20.23,0,0,1-16.55-8.08v0c-4,0-7.72-3.15-7.72-7.1a7.16,7.16,0,0,1,4.53-6.65c-1.36-3.38-1.92-9.28,6.72-14.56A26,26,0,0,1,66,331.71m0-3a28.71,28.71,0,0,0-15.21,3.85c-3.35,2.05-10.41,7.44-8.71,15.7a10.11,10.11,0,0,0-4,8.06c0,5,4.07,9.27,9.19,10a23.33,23.33,0,0,0,18.08,8.16c12.42,0,22.53-9.05,22.53-20.17a16.93,16.93,0,0,0-.19-2.55A5.77,5.77,0,0,0,90,349.4a5.57,5.57,0,0,0-.32-5.54c2.59-1,3.85-2.2,4.18-3.86a4.09,4.09,0,0,0-2.07-4.32c-3.28-2.18-14.33-7-25.83-7Z" transform="translate(-38.06 -238.45)"/><path class="cls-8" d="M97.07,365.72c0,.6-.78.6-1.2.6-2.7,0-4.51-1.95-4.51-4.83s1.89-5,4.72-5c.6,0,1,.24,1,.61v1.48c0,.16-.11.22-.5.22a2.53,2.53,0,0,0-2.82,2.45A2.81,2.81,0,0,0,96.64,364c.32,0,.43.05.43.22Z" transform="translate(-38.06 -238.45)"/><path class="cls-8" d="M104.51,361.22c0,3.94-1,5.28-3.32,5.28-2.55,0-3.56-1.57-3.56-5.29,0-3.43,1-4.86,3.29-4.86C103.33,356.35,104.51,358,104.51,361.22Zm-3.38,2.94c.87,0,1-.4,1-3.14,0-1.77-.17-2.5-1.13-2.5s-1.07.73-1.07,2.41C100,363.66,100.17,364.16,101.13,364.16Z" transform="translate(-38.06 -238.45)"/><path class="cls-8" d="M112.11,356.82v9.23c0,.23,0,.27-.22.27h-1.46c-.17,0-.21,0-.38-.27,0-.08-2.45-3.41-2.52-3.41s0,2.5,0,3.4c0,.24-.07.28-.21.28h-1.69c-.15,0-.22-.07-.22-.18v-8.93c0-.19,1-.7,1.41-.7a.26.26,0,0,1,.23.1c0,.09,2.73,4.81,2.81,4.81s.19-3.17.19-4.6c0-.24.09-.31.28-.31h1.58C112.07,356.51,112.11,356.61,112.11,356.82Z" transform="translate(-38.06 -238.45)"/><path class="cls-8" d="M112.67,365.52v-1.19c0-.49.1-.57.31-.62.77-.14,3.37.3,3.37-.95,0-1.43-3.4-.63-3.4-3.37,0-2.16,2.11-2.88,4-2.88a7.39,7.39,0,0,1,1.26.1c.47.09.58.16.58.62v.85c0,.38,0,.56-.54.47a5.83,5.83,0,0,0-1.15-.12c-1,0-1.46.35-1.46.94,0,1.57,3.13.73,3.13,4,0,2.41-1.68,2.93-3.45,2.93a16.55,16.55,0,0,1-2.21-.19C112.77,366.07,112.67,366,112.67,365.52Z" transform="translate(-38.06 -238.45)"/><path class="cls-8" d="M123.91,364c.59,0,1.29,0,1.26.39l-.1,1.22c0,.52-.14.67-.4.67h-4.93c-.2,0-.2-.21-.2-.36v-8.83c0-.32,1.44-.62,2-.62a23.69,23.69,0,0,1,3.49.23c.08,0,.32.05.32.61v1.41a.18.18,0,0,1-.18.18h-3.08c-.09,0-.1.11-.1.19v1.1h1a.29.29,0,0,1,.33.28v1.3q0,.21-.15.21H122s-.06.06-.06.11v1.71c0,.14.06.2.22.2Z" transform="translate(-38.06 -238.45)"/><path class="cls-8" d="M126.86,366.32c-.25,0-.3,0-.3-.14v-9.06c0-.33,1.54-.61,2.78-.61.18,0,.24,0,.24.3v9.37c0,.14-.08.14-.38.14Z" transform="translate(-38.06 -238.45)"/><path class="cls-8" d="M130.63,357.12c0-.26,1.33-.61,2.55-.61.1,0,.21,0,.21.12s-.42,4.7-.42,5.68c0,.44-.09,1,.25,1,.52,0,2.79-.35,3.12-.35.16,0,.21.06.21.24l-.11,3c0,.18-.19.18-.39.18h-5.2c-.1,0-.22,0-.22-.18Z" transform="translate(-38.06 -238.45)"/><path class="cls-8" d="M137.25,357.12c0-.26,1.33-.61,2.55-.61.1,0,.21,0,.21.12s-.42,4.7-.42,5.68c0,.44-.08,1,.25,1,.52,0,2.79-.35,3.13-.35.15,0,.21.06.21.24l-.12,3c0,.18-.19.18-.39.18h-5.19c-.1,0-.23,0-.23-.18Z" transform="translate(-38.06 -238.45)"/><path class="cls-8" d="M148.38,364c.59,0,1.29,0,1.26.39l-.09,1.22c-.05.52-.14.67-.41.67h-4.93c-.2,0-.2-.21-.2-.36v-8.83c0-.32,1.45-.62,2-.62a23.69,23.69,0,0,1,3.49.23c.08,0,.32.05.32.61v1.41a.18.18,0,0,1-.18.18h-3.08c-.09,0-.1.11-.1.19v1.1h1c.2,0,.34.11.34.28v1.3c0,.14-.06.21-.16.21h-1.2c-.06,0-.07.06-.07.11v1.71c0,.14.07.2.22.2Z" transform="translate(-38.06 -238.45)"/><path class="cls-8" d="M156.88,366.14c0,.18-.19.18-.29.18h-2.07a.26.26,0,0,1-.23-.13l-.84-1.82c-.11-.24-.2-.36-.25-.36s-.1.12-.1.36v1.77c0,.18-.18.18-.28.18h-1.76c-.1,0-.24,0-.24-.18,0-.66.11-2.26.11-4.26s-.09-4.75-.09-4.85c0-.35,1.21-.52,2.27-.52,1.77,0,3,1,3,2.6a2.22,2.22,0,0,1-1.93,2.31c-.13,0-.12,0,0,.22A37.74,37.74,0,0,1,156.88,366.14ZM153,359.61c0,.08,0,.11.16.11a1.19,1.19,0,0,0,1.12-1.1c0-.42-.35-.59-1-.59-.26,0-.3,0-.3.25Z" transform="translate(-38.06 -238.45)"/></svg>