<svg id="Calque_8" data-name="Calque 8" xmlns="http://www.w3.org/2000/svg" viewBox="0 0 318.31 202.84"><defs><style>.cls-1{fill:#6b00ee;}.cls-2{fill:none;stroke:#1be5b9;stroke-miterlimit:10;stroke-width:4.89px;}.cls-3,.cls-7{fill:#1be5b9;}.cls-3{fill-rule:evenodd;}.cls-4{fill:#e74366;}.cls-5{fill:#bf3a5b;}.cls-6{fill:#1e166f;}.cls-8{fill:#fff;}</style></defs><rect class="cls-1" x="7.86" y="0.84" width="308" height="176.4" rx="26.66"/><rect class="cls-2" x="7.86" y="2.44" width="308" height="176.4" rx="26.66"/><path class="cls-3" d="M175.75,454.18a11.13,11.13,0,0,0,.1,1.58v1c0,6.6-4.94,12-11,12H75.94c-6,0-11-5.4-11-12v-1c0-6.6,5-12,11-12h88.91c1.55,0,3,.36,3.46,1h17.63C177.78,444.76,175.76,451.13,175.75,454.18Z" transform="translate(-47.07 -265.92)"/><ellipse class="cls-4" cx="27.27" cy="181.77" rx="19.53" ry="17.16"/><path class="cls-4" d="M57.79,456.8c-3.95,0-7.72-3.15-7.72-7.1a7.15,7.15,0,0,1,7.15-7.15" transform="translate(-47.07 -265.92)"/><ellipse class="cls-5" cx="7.73" cy="183.7" rx="1.41" ry="3.1"/><path class="cls-5" d="M79.77,457.89s-9.5,2.9-14.7-2.9" transform="translate(-47.07 -265.92)"/><path class="cls-6" d="M92.36,435.81a13.15,13.15,0,0,1,3.7,2.9c2,3.07-2,6.13-7.15,3.07s-2.88-6.26-13.7-5.17a29.31,29.31,0,0,0-4.69,1.08,44.59,44.59,0,0,0-14.31,8.18s-8-9.39,5.11-17.37,33.48.18,37.8,3.06C102.09,433.53,96.29,435.06,92.36,435.81Z" transform="translate(-47.07 -265.92)"/><path class="cls-7" d="M75,425.09c10.58,0,21.19,4.49,24.16,6.47s-2.83,3.5-6.76,4.25a13.15,13.15,0,0,1,3.7,2.9c1.42,2.14-.13,4.27-2.93,4.33a15.28,15.28,0,0,1,.74,4.64c0,9.48-8.74,17.17-19.53,17.17a20.24,20.24,0,0,1-16.55-8.08v0c-3.95,0-7.72-3.15-7.72-7.1a7.16,7.16,0,0,1,4.53-6.65c-1.36-3.38-1.92-9.28,6.72-14.55A25.92,25.92,0,0,1,75,425.09m0-3a28.65,28.65,0,0,0-15.2,3.85c-3.36,2.05-10.42,7.44-8.71,15.7a10.09,10.09,0,0,0-4,8.06c0,5,4.08,9.27,9.19,10a23.35,23.35,0,0,0,18.08,8.16c12.42,0,22.53-9.05,22.53-20.17a16.93,16.93,0,0,0-.19-2.55A5.77,5.77,0,0,0,99,442.78a5.57,5.57,0,0,0-.32-5.54c2.59-1,3.85-2.2,4.18-3.86a4.09,4.09,0,0,0-2.07-4.32c-3.28-2.18-14.33-7-25.83-7Z" transform="translate(-47.07 -265.92)"/><path class="cls-8" d="M106.09,459.1c0,.6-.79.6-1.21.6-2.7,0-4.51-1.95-4.51-4.83s1.89-5,4.72-5c.6,0,1,.24,1,.62V452c0,.16-.12.22-.51.22a2.52,2.52,0,0,0-2.81,2.45,2.81,2.81,0,0,0,2.88,2.72c.32,0,.44.05.44.22Z" transform="translate(-47.07 -265.92)"/><path class="cls-8" d="M113.52,454.6c0,3.94-1,5.28-3.32,5.28-2.55,0-3.56-1.57-3.56-5.29,0-3.43,1-4.86,3.3-4.86S113.52,451.38,113.52,454.6Zm-3.37,2.94c.86,0,1-.4,1-3.13,0-1.78-.17-2.51-1.13-2.51s-1.07.73-1.07,2.41C109,457,109.18,457.54,110.15,457.54Z" transform="translate(-47.07 -265.92)"/><path class="cls-8" d="M121.12,450.2v9.23c0,.23-.05.27-.22.27h-1.46c-.17,0-.21,0-.38-.27,0-.08-2.45-3.41-2.52-3.41s-.05,2.5-.05,3.4c0,.24-.07.28-.21.28H114.6c-.16,0-.23-.07-.23-.18V450.6c0-.2,1-.71,1.42-.71a.26.26,0,0,1,.22.1c0,.09,2.73,4.81,2.82,4.81s.18-3.17.18-4.6c0-.24.1-.31.28-.31h1.58C121.08,449.89,121.12,450,121.12,450.2Z" transform="translate(-47.07 -265.92)"/><path class="cls-8" d="M121.68,458.9v-1.19c0-.49.1-.57.31-.62.77-.14,3.37.3,3.37-.95,0-1.43-3.4-.63-3.4-3.37,0-2.16,2.11-2.88,4.05-2.88a7.31,7.31,0,0,1,1.26.1c.47.09.59.16.59.62v.85c0,.38,0,.56-.55.47a5.83,5.83,0,0,0-1.15-.12c-1,0-1.46.35-1.46.94,0,1.57,3.13.73,3.13,4,0,2.41-1.68,2.93-3.45,2.93a16.55,16.55,0,0,1-2.21-.19C121.78,459.45,121.68,459.36,121.68,458.9Z" transform="translate(-47.07 -265.92)"/><path class="cls-8" d="M132.92,457.42c.59,0,1.29,0,1.26.39l-.09,1.22c-.05.52-.14.67-.41.67h-4.93c-.2,0-.2-.21-.2-.36v-8.83c0-.32,1.45-.62,2-.62a23.69,23.69,0,0,1,3.49.23c.08,0,.32.06.32.62v1.4a.18.18,0,0,1-.18.18h-3.08c-.09,0-.1.11-.1.19v1.1h1c.2,0,.34.11.34.28v1.3c0,.14-.06.21-.16.21H131c-.06,0-.07.06-.07.11v1.71c0,.14.07.2.22.2Z" transform="translate(-47.07 -265.92)"/><path class="cls-8" d="M135.87,459.7c-.25,0-.3,0-.3-.14V450.5c0-.32,1.54-.61,2.78-.61.19,0,.24,0,.24.3v9.37c0,.14-.08.14-.38.14Z" transform="translate(-47.07 -265.92)"/><path class="cls-8" d="M139.64,450.5c0-.25,1.33-.61,2.55-.61.1,0,.21,0,.21.12s-.42,4.7-.42,5.68c0,.44-.08,1,.25,1,.52,0,2.79-.35,3.13-.35.15,0,.21.06.21.24l-.12,3c0,.18-.19.18-.39.18h-5.2c-.09,0-.22,0-.22-.18Z" transform="translate(-47.07 -265.92)"/><path class="cls-8" d="M146.26,450.5c0-.25,1.33-.61,2.55-.61.1,0,.21,0,.21.12s-.42,4.7-.42,5.68c0,.44-.08,1,.25,1,.52,0,2.79-.35,3.13-.35.15,0,.21.06.21.24l-.11,3c0,.18-.2.18-.4.18h-5.19c-.1,0-.23,0-.23-.18Z" transform="translate(-47.07 -265.92)"/><path class="cls-8" d="M157.4,457.42c.58,0,1.28,0,1.26.39l-.1,1.22c0,.52-.14.67-.41.67h-4.93c-.2,0-.2-.21-.2-.36v-8.83c0-.32,1.45-.62,2-.62a23.62,23.62,0,0,1,3.49.23c.08,0,.32.06.32.62v1.4a.18.18,0,0,1-.18.18h-3.08c-.09,0-.1.11-.1.19v1.1h1c.2,0,.34.11.34.28v1.3c0,.14-.06.21-.16.21h-1.2c-.06,0-.07.06-.07.11v1.71c0,.14.07.2.22.2Z" transform="translate(-47.07 -265.92)"/><path class="cls-8" d="M165.89,459.52c0,.18-.19.18-.29.18h-2.07a.26.26,0,0,1-.23-.13l-.84-1.82c-.11-.23-.19-.36-.25-.36s-.1.13-.1.36v1.77c0,.18-.18.18-.28.18h-1.76c-.1,0-.24,0-.24-.18,0-.66.11-2.26.11-4.26s-.08-4.75-.08-4.85c0-.35,1.2-.52,2.27-.52,1.76,0,3,1,3,2.6a2.22,2.22,0,0,1-1.93,2.31c-.13,0-.11,0,0,.22A37.74,37.74,0,0,1,165.89,459.52ZM162,453c0,.08,0,.11.17.11a1.19,1.19,0,0,0,1.12-1.1c0-.42-.35-.59-1-.59-.27,0-.31,0-.31.25Z" transform="translate(-47.07 -265.92)"/></svg>