<svg id="Calque_3" data-name="Calque 3" xmlns="http://www.w3.org/2000/svg" viewBox="0 0 317.5 136.93"><defs><style>.cls-1{fill:#6b00ee;}.cls-2,.cls-9{fill:none;}.cls-2{stroke:#1be5b9;stroke-miterlimit:10;stroke-width:3.86px;}.cls-3,.cls-5{fill:#1be5b9;}.cls-3{fill-rule:evenodd;}.cls-4{fill:#fff;}.cls-6{fill:#4e4bf6;}.cls-7{fill:#e74366;}.cls-8{fill:#bf3a5b;}.cls-10{fill:#808c00;}.cls-11{fill:#30302e;}.cls-12{fill:#dde591;}.cls-13{fill:#5d6100;}.cls-14{fill:#ece800;}</style></defs><rect class="cls-1" x="7.57" y="0.93" width="308" height="110" rx="26.66"/><rect class="cls-2" x="7.57" y="1.93" width="308" height="110" rx="26.66"/><path class="cls-3" d="M210.55,392.8a7.51,7.51,0,0,0,.15,1.58v1c0,6.6-7.41,12-16.46,12h-133c-9.05,0-16.46-5.4-16.46-12v-1c0-6.6,7.41-12,16.46-12h133c2.32,0,4.54.36,5.17,1h26.37C213.58,383.38,210.56,389.75,210.55,392.8Z" transform="translate(-29.21 -270.45)"/><path class="cls-4" d="M90.93,397.72c0,.6-.79.6-1.21.6-2.7,0-4.51-1.95-4.51-4.83s1.89-5,4.72-5c.61,0,1,.24,1,.61v1.48c0,.16-.11.22-.51.22a2.52,2.52,0,0,0-2.81,2.45A2.81,2.81,0,0,0,90.5,396c.32,0,.43.05.43.22Z" transform="translate(-29.21 -270.45)"/><path class="cls-4" d="M98.7,398c0,.22-.13.29-.21.29H96.56c-.12,0-.2-.1-.2-.29v-3.37c0-.18,0-.18-.18-.18H94.6c-.16,0-.17,0-.17.18v3.41c0,.25-.13.25-.31.25h-2c-.17,0-.26-.07-.26-.29s.18-3.24.18-5c0-1.62-.16-3.56-.16-3.66s1-.84,2.41-.84c.09,0,.09.17.09.2v3.64c0,.13,0,.18.15.18h1.58c.19,0,.2,0,.2-.16v-3.6c0-.13,0-.26.13-.26h2.08c.13,0,.13.2.13.23Z" transform="translate(-29.21 -270.45)"/><path class="cls-4" d="M104.05,396c.58,0,1.29,0,1.26.39l-.1,1.22c0,.52-.14.67-.41.67H99.87c-.19,0-.19-.21-.19-.36v-8.83c0-.32,1.44-.62,2-.62a23.55,23.55,0,0,1,3.49.23c.09,0,.32.05.32.61v1.41a.18.18,0,0,1-.18.18h-3.08c-.08,0-.1.11-.1.19v1.1h1c.2,0,.34.11.34.28v1.3c0,.14-.06.21-.16.21h-1.2c-.06,0-.07.06-.07.11v1.71c0,.14.07.2.22.2Z" transform="translate(-29.21 -270.45)"/><path class="cls-4" d="M113,389.33v1.4a.16.16,0,0,1-.16.15h-3.38c-.11,0-.15,0-.15.13v1.1c0,.06,0,.1.14.1h1.16a.32.32,0,0,1,.35.3v1.3c0,.2-.27.2-.35.2h-1.18c-.07,0-.12.05-.12.15v4c0,.15-.13.15-.23.15h-2.32c-.12,0-.24,0-.24-.15s.29-2.88.29-4.16-.32-4-.32-4.29c0-.55,1.29-1.21,3.38-1.21a19.61,19.61,0,0,1,2.73.17C113,388.75,113,388.79,113,389.33Z" transform="translate(-29.21 -270.45)"/><path class="cls-4" d="M120.2,389.33v1.4a.16.16,0,0,1-.16.15h-3.38c-.11,0-.15,0-.15.13v1.1c0,.06,0,.1.14.1h1.16a.32.32,0,0,1,.35.3v1.3c0,.2-.27.2-.35.2h-1.18c-.07,0-.12.05-.12.15v4c0,.15-.13.15-.23.15H114c-.12,0-.24,0-.24-.15s.29-2.88.29-4.16-.32-4-.32-4.29c0-.55,1.29-1.21,3.38-1.21a19.61,19.61,0,0,1,2.73.17C120.19,388.75,120.2,388.79,120.2,389.33Z" transform="translate(-29.21 -270.45)"/><path class="cls-4" d="M125.27,396c.59,0,1.29,0,1.26.39l-.1,1.22c0,.52-.14.67-.4.67H121.1c-.2,0-.2-.21-.2-.36v-8.83c0-.32,1.44-.62,2-.62a23.5,23.5,0,0,1,3.48.23c.09,0,.33.05.33.61v1.41a.18.18,0,0,1-.19.18h-3.08c-.08,0-.09.11-.09.19v1.1h1a.29.29,0,0,1,.33.28v1.3q0,.21-.15.21h-1.21s-.07.06-.07.11v1.71c0,.14.07.2.23.2Z" transform="translate(-29.21 -270.45)"/><path class="cls-4" d="M135,398.32c-3.32,0-3.42,0-3.42-.32s.13-1.67.13-4.18-.13-4.63-.13-4.72c0-.25,1.12-.6,2.23-.6,2.24,0,4.48,2.4,4.48,4.78C138.26,396.15,136.85,398.32,135,398.32Zm.58-5c0-1.18-.61-2.13-1.38-2.13a.43.43,0,0,0-.49.47v3.84c0,.2.14.28.42.28C135,395.74,135.55,394.8,135.55,393.28Z" transform="translate(-29.21 -270.45)"/><path class="cls-4" d="M143.19,396c.59,0,1.29,0,1.26.39l-.1,1.22c0,.52-.14.67-.4.67H139c-.2,0-.2-.21-.2-.36v-8.83c0-.32,1.44-.62,2-.62a23.5,23.5,0,0,1,3.48.23c.09,0,.33.05.33.61v1.41a.18.18,0,0,1-.19.18h-3.08c-.08,0-.09.11-.09.19v1.1h1a.29.29,0,0,1,.33.28v1.3q0,.21-.15.21h-1.21c-.05,0-.07.06-.07.11v1.71c0,.14.07.2.23.2Z" transform="translate(-29.21 -270.45)"/><path class="cls-4" d="M145.34,397.52v-1.19c0-.49.1-.57.31-.62.77-.14,3.38.3,3.38-.95,0-1.43-3.41-.63-3.41-3.37,0-2.16,2.12-2.88,4-2.88a7.23,7.23,0,0,1,1.26.1c.48.09.59.16.59.62v.85c0,.38,0,.56-.55.47a5.67,5.67,0,0,0-1.14-.12c-1,0-1.46.35-1.46.94,0,1.57,3.12.73,3.12,4,0,2.41-1.68,2.93-3.44,2.93a16.71,16.71,0,0,1-2.22-.19C145.44,398.07,145.34,398,145.34,397.52Z" transform="translate(-29.21 -270.45)"/><path class="cls-4" d="M157.8,398.32h-1.94c-.21,0-.32,0-.24-.22l3.52-8.86a3.53,3.53,0,0,1,2-.73c.15,0,.25,0,.28.1l3.27,9.53c0,.05-.05.18-.29.18h-1.88a.51.51,0,0,1-.43-.22c-.06-.14-.41-1.87-.6-1.88l-2.45-.13c-.38,0-.83,1.75-.93,2A.26.26,0,0,1,157.8,398.32Zm1.95-4.62c-.1.19-.07.26.18.26h.87c.09,0,.23,0,.14-.32l-.26-.92c-.06-.21-.1-.33-.16-.33s-.12.12-.24.33Z" transform="translate(-29.21 -270.45)"/><path class="cls-4" d="M171.43,398.14c0,.18-.2.18-.3.18h-2.07a.24.24,0,0,1-.22-.13l-.84-1.82c-.12-.24-.2-.36-.26-.36s-.09.12-.09.36v1.77c0,.18-.19.18-.28.18H165.6c-.1,0-.24,0-.24-.18,0-.66.12-2.26.12-4.26s-.09-4.75-.09-4.85c0-.35,1.21-.52,2.27-.52,1.77,0,3,1,3,2.6a2.22,2.22,0,0,1-1.94,2.31c-.12,0-.11,0,0,.22A37.74,37.74,0,0,1,171.43,398.14Zm-3.87-6.53c0,.08,0,.11.17.11a1.19,1.19,0,0,0,1.12-1.1c0-.42-.35-.59-1-.59-.27,0-.31,0-.31.25Z" transform="translate(-29.21 -270.45)"/><path class="cls-4" d="M180.57,388.79V398a.26.26,0,0,1-.29.29h-1.53c-.25,0-.36-.07-.36-.25a13.1,13.1,0,0,0-.45-3.41c-.16,0-1,2.36-1.18,2.36H176c-.18,0-1-2.36-1.19-2.36a13.1,13.1,0,0,0-.45,3.41c0,.18,0,.25-.18.25h-1.75c-.17,0-.26-.08-.26-.29v-8.84c0-.31,1.55-.68,1.9-.68.14,0,.19,0,.29.24a46.3,46.3,0,0,0,2.05,4.41c.16,0,2-4.2,2.07-4.45a.28.28,0,0,1,.31-.2h1.44C180.33,388.51,180.57,388.51,180.57,388.79Z" transform="translate(-29.21 -270.45)"/><path class="cls-4" d="M185.92,396c.59,0,1.29,0,1.26.39l-.1,1.22c0,.52-.14.67-.41.67h-4.93c-.19,0-.19-.21-.19-.36v-8.83c0-.32,1.44-.62,2-.62a23.55,23.55,0,0,1,3.49.23c.09,0,.32.05.32.61v1.41a.18.18,0,0,1-.18.18h-3.08c-.08,0-.1.11-.1.19v1.1h1c.2,0,.34.11.34.28v1.3c0,.14-.06.21-.16.21H184c-.06,0-.07.06-.07.11v1.71c0,.14.07.2.22.2Zm-1.66-8.23a3.51,3.51,0,0,1,.33-1.27,1.31,1.31,0,0,1,.61-.11c.2,0,.35,0,.35.12s-.88,1.39-1.2,1.39C184.29,387.94,184.26,387.91,184.26,387.81Z" transform="translate(-29.21 -270.45)"/><path class="cls-4" d="M192.72,396c.59,0,1.29,0,1.26.39l-.1,1.22c0,.52-.14.67-.4.67h-4.93c-.2,0-.2-.21-.2-.36v-8.83c0-.32,1.44-.62,2-.62a23.69,23.69,0,0,1,3.49.23c.08,0,.32.05.32.61v1.41a.18.18,0,0,1-.18.18h-3.09c-.08,0-.09.11-.09.19v1.1h1a.29.29,0,0,1,.33.28v1.3q0,.21-.15.21h-1.21c-.05,0-.07.06-.07.11v1.71c0,.14.07.2.23.2Z" transform="translate(-29.21 -270.45)"/><path class="cls-4" d="M194.87,397.52v-1.19c0-.49.1-.57.31-.62.77-.14,3.38.3,3.38-.95,0-1.43-3.41-.63-3.41-3.37,0-2.16,2.12-2.88,4-2.88a7.23,7.23,0,0,1,1.26.1c.48.09.59.16.59.62v.85c0,.38,0,.56-.54.47a5.83,5.83,0,0,0-1.15-.12c-1,0-1.46.35-1.46.94,0,1.57,3.12.73,3.12,4,0,2.41-1.68,2.93-3.44,2.93a16.71,16.71,0,0,1-2.22-.19C195,398.07,194.87,398,194.87,397.52Z" transform="translate(-29.21 -270.45)"/><path class="cls-5" d="M58.32,360.38c8.41,0,23,3.29,25.57,8.37,3.37,6.71-6.73,12.45-6.73,12.45h0v.09a14.41,14.41,0,0,1,.76,2.3,14,14,0,0,1,0,6.8,15.19,15.19,0,0,1-.86,2.54v8.8H67.83a20.84,20.84,0,0,1-16.3,0H41.06v-6.59a7,7,0,0,1-4.57-6.23,6.82,6.82,0,0,1,4.57-6.44V382a2.2,2.2,0,0,1-.24-.84s-11.1-5.5-8.07-11.73,19.18-9.09,25.57-9.09m0-3c-5.9,0-24.31,2.65-28.27,10.78-2.75,5.66,1.74,10.76,6.26,13.86a9.83,9.83,0,0,0-2.82,6.89,9.62,9.62,0,0,0,4.57,8v7.78H50.94a23.84,23.84,0,0,0,17.48,0H80.06v-11.2a17.25,17.25,0,0,0,.77-2.41,16.94,16.94,0,0,0,0-8.25c0-.14-.07-.28-.1-.42A22.77,22.77,0,0,0,85.9,377a9.47,9.47,0,0,0,.67-9.63c-3.51-7-20.41-10-28.25-10Z" transform="translate(-29.21 -270.45)"/><path class="cls-6" d="M77.06,381v20.76h-36V381a15.92,15.92,0,0,1,.19-2.6H74.76v-.13a.3.3,0,0,1,.09.13h2A15.92,15.92,0,0,1,77.06,381Z" transform="translate(-29.21 -270.45)"/><path class="cls-7" d="M78.34,387a13.2,13.2,0,0,1-.42,3.4,16.82,16.82,0,0,1-10.09,11.34,20.84,20.84,0,0,1-16.3,0,18,18,0,0,1-7.68-6.1,14.23,14.23,0,0,1-2.15-4.28A14.5,14.5,0,0,1,41,387a8,8,0,0,1,.08-1.09,12.21,12.21,0,0,1,.73-3.66,14.68,14.68,0,0,1,2-3.87h31.6v-.13a.26.26,0,0,1,.1.13,14.56,14.56,0,0,1,2.39,5.22A13.2,13.2,0,0,1,78.34,387Z" transform="translate(-29.21 -270.45)"/><path class="cls-7" d="M43.86,395.69c-3.77,0-7.37-3-7.37-6.78a6.83,6.83,0,0,1,6.83-6.83Z" transform="translate(-29.21 -270.45)"/><ellipse class="cls-8" cx="11.79" cy="118.39" rx="1.35" ry="2.96"/><path class="cls-8" d="M64.85,396.73s-9.07,2.77-14-2.77Z" transform="translate(-29.21 -270.45)"/><line class="cls-9" x1="14.98" y1="126.09" x2="4.6" y2="126.09"/><line class="cls-9" x1="48.71" y1="110.13" x2="48.51" y2="110.13"/><line class="cls-9" x1="35.74" y1="110.13" x2="30.55" y2="110.13"/><line class="cls-9" x1="10" y1="110.13" x2="9.79" y2="110.13"/><path class="cls-10" d="M40.82,381.2s-11.1-5.5-8.07-11.73,19.18-9.09,25.57-9.09c8.41,0,23,3.29,25.57,8.37,3.37,6.71-6.73,12.45-6.73,12.45Z" transform="translate(-29.21 -270.45)"/><path class="cls-11" d="M58.31,386s-17.14.24-17.49-4.79H77.16S77.5,385.75,58.31,386Z" transform="translate(-29.21 -270.45)"/><path class="cls-12" d="M40.82,381.2v-5s3.12-5,18.69-5,17.65,4.31,17.65,4.31v5.74Z" transform="translate(-29.21 -270.45)"/><path class="cls-13" d="M40.82,381.2s5.54-2.87,18.69-2.87,17.65,2.87,17.65,2.87Z" transform="translate(-29.21 -270.45)"/><ellipse class="cls-14" cx="30.12" cy="103.81" rx="3.36" ry="2.87"/></svg>