<svg id="Calque_10" data-name="Calque 10" xmlns="http://www.w3.org/2000/svg" viewBox="0 0 326.02 204.84"><defs><style>.cls-1{fill:#6b00ee;}.cls-2,.cls-9{fill:none;}.cls-2{stroke:#1be5b9;stroke-miterlimit:10;stroke-width:4.89px;}.cls-3,.cls-5{fill:#1be5b9;}.cls-3{fill-rule:evenodd;}.cls-4{fill:#fff;}.cls-6{fill:#4e4bf6;}.cls-7{fill:#e74366;}.cls-8{fill:#bf3a5b;}.cls-10{fill:#808c00;}.cls-11{fill:#30302e;}.cls-12{fill:#dde591;}.cls-13{fill:#5d6100;}.cls-14{fill:#ece800;}</style></defs><rect class="cls-1" x="15.57" y="0.84" width="308" height="176.4" rx="26.66"/><rect class="cls-2" x="15.57" y="2.44" width="308" height="176.4" rx="26.66"/><path class="cls-3" d="M181,486.21a10.14,10.14,0,0,1-.11-1.58A11.75,11.75,0,0,1,181,486.21Z" transform="translate(-43.37 -294.37)"/><path class="cls-3" d="M224.71,484.63a7.51,7.51,0,0,0,.15,1.58v1c0,6.6-7.4,12-16.45,12H75.4c-9.05,0-16.45-5.4-16.45-12v-1c0-6.6,7.4-12,16.45-12h133c2.31,0,4.54.36,5.17,1H240C227.74,475.21,224.72,481.58,224.71,484.63Z" transform="translate(-43.37 -294.37)"/><path class="cls-4" d="M105.09,489.55c0,.6-.78.6-1.2.6-2.7,0-4.51-1.95-4.51-4.83s1.89-5,4.72-5c.6,0,1,.24,1,.62v1.47c0,.16-.11.22-.5.22a2.53,2.53,0,0,0-2.82,2.45,2.81,2.81,0,0,0,2.89,2.72c.32,0,.43.06.43.22Z" transform="translate(-43.37 -294.37)"/><path class="cls-4" d="M112.86,489.86c0,.22-.12.29-.21.29h-1.93c-.11,0-.2-.1-.2-.29v-3.37c0-.18,0-.18-.18-.18h-1.58c-.15,0-.17,0-.17.18v3.41c0,.25-.12.25-.31.25h-1.94c-.17,0-.27-.07-.27-.29s.18-3.24.18-5c0-1.62-.15-3.56-.15-3.65,0-.24,1-.84,2.41-.84.08,0,.08.16.08.19v3.64c0,.13,0,.19.16.19h1.58c.18,0,.19,0,.19-.17v-3.6c0-.13,0-.25.13-.25h2.09c.12,0,.12.19.12.22Z" transform="translate(-43.37 -294.37)"/><path class="cls-4" d="M118.21,487.87c.59,0,1.29,0,1.26.39l-.1,1.22c0,.52-.14.67-.4.67H114c-.2,0-.2-.21-.2-.36V481c0-.32,1.44-.61,2-.61a24.75,24.75,0,0,1,3.49.22c.08,0,.32.06.32.62v1.4a.18.18,0,0,1-.18.18H116.4c-.08,0-.09.11-.09.19v1.1h1a.29.29,0,0,1,.33.28v1.3q0,.21-.15.21h-1.21c-.05,0-.07.06-.07.11v1.71c0,.14.07.2.23.2Z" transform="translate(-43.37 -294.37)"/><path class="cls-4" d="M127.16,481.16v1.4a.16.16,0,0,1-.17.15h-3.38c-.11,0-.15,0-.15.13V484c0,.05.06.09.14.09h1.16a.32.32,0,0,1,.35.3v1.3c0,.2-.26.2-.35.2h-1.17a.13.13,0,0,0-.13.15v4c0,.15-.13.15-.22.15h-2.33c-.11,0-.24,0-.24-.15s.3-2.88.3-4.16-.33-4-.33-4.29c0-.55,1.29-1.2,3.38-1.2a19.57,19.57,0,0,1,2.73.16C127.14,480.58,127.16,480.63,127.16,481.16Z" transform="translate(-43.37 -294.37)"/><path class="cls-4" d="M134.37,481.16v1.4a.16.16,0,0,1-.17.15h-3.38c-.11,0-.15,0-.15.13V484c0,.05.06.09.14.09H132a.32.32,0,0,1,.35.3v1.3c0,.2-.26.2-.35.2H130.8a.13.13,0,0,0-.13.15v4c0,.15-.13.15-.22.15h-2.33c-.11,0-.24,0-.24-.15s.3-2.88.3-4.16-.33-4-.33-4.29c0-.55,1.29-1.2,3.38-1.2a19.57,19.57,0,0,1,2.73.16C134.35,480.58,134.37,480.63,134.37,481.16Z" transform="translate(-43.37 -294.37)"/><path class="cls-4" d="M139.43,487.87c.59,0,1.29,0,1.26.39l-.09,1.22c0,.52-.14.67-.41.67h-4.93c-.2,0-.2-.21-.2-.36V481c0-.32,1.45-.61,2-.61a24.68,24.68,0,0,1,3.49.22c.08,0,.32.06.32.62v1.4a.18.18,0,0,1-.18.18h-3.08c-.09,0-.1.11-.1.19v1.1h1c.2,0,.34.11.34.28v1.3c0,.14-.06.21-.16.21h-1.2c-.06,0-.07.06-.07.11v1.71c0,.14.07.2.22.2Z" transform="translate(-43.37 -294.37)"/><path class="cls-4" d="M149.14,490.15c-3.32,0-3.42,0-3.42-.32,0-.17.12-1.67.12-4.18s-.12-4.63-.12-4.72c0-.25,1.12-.6,2.23-.6,2.24,0,4.48,2.4,4.48,4.78C152.43,488,151,490.15,149.14,490.15Zm.57-5c0-1.18-.6-2.13-1.37-2.13a.43.43,0,0,0-.49.47v3.84c0,.2.14.28.42.28C149.18,487.57,149.71,486.63,149.71,485.11Z" transform="translate(-43.37 -294.37)"/><path class="cls-4" d="M157.35,487.87c.59,0,1.29,0,1.26.39l-.09,1.22c0,.52-.14.67-.41.67h-4.93c-.2,0-.2-.21-.2-.36V481c0-.32,1.45-.61,2-.61a24.68,24.68,0,0,1,3.49.22c.08,0,.32.06.32.62v1.4a.18.18,0,0,1-.18.18h-3.08c-.09,0-.1.11-.1.19v1.1h1c.2,0,.34.11.34.28v1.3c0,.14-.06.21-.16.21h-1.2c-.06,0-.07.06-.07.11v1.71c0,.14.07.2.22.2Z" transform="translate(-43.37 -294.37)"/><path class="cls-4" d="M159.51,489.35v-1.19c0-.49.1-.57.31-.61.77-.14,3.37.29,3.37-1,0-1.43-3.4-.63-3.4-3.37,0-2.16,2.11-2.87,4.05-2.87a7.4,7.4,0,0,1,1.26.09c.47.09.58.16.58.62v.85c0,.38,0,.56-.54.47a5.83,5.83,0,0,0-1.15-.12c-1,0-1.46.35-1.46.94,0,1.57,3.13.73,3.13,4,0,2.41-1.68,2.93-3.45,2.93A16.55,16.55,0,0,1,160,490C159.61,489.9,159.51,489.81,159.51,489.35Z" transform="translate(-43.37 -294.37)"/><path class="cls-4" d="M172,490.15H170c-.21,0-.32,0-.24-.22l3.52-8.86a3.53,3.53,0,0,1,2-.72c.15,0,.25,0,.28.09l3.28,9.53s-.06.18-.3.18h-1.87a.52.52,0,0,1-.44-.22c-.05-.14-.4-1.87-.6-1.88l-2.45-.13c-.38,0-.83,1.75-.93,2A.25.25,0,0,1,172,490.15Zm1.95-4.62c-.1.19-.07.26.18.26H175c.08,0,.22-.05.14-.32l-.27-.92c-.06-.21-.1-.32-.15-.32s-.13.11-.24.32Z" transform="translate(-43.37 -294.37)"/><path class="cls-4" d="M185.59,490c0,.18-.19.18-.29.18h-2.07A.26.26,0,0,1,183,490l-.84-1.82c-.11-.23-.2-.36-.25-.36s-.1.13-.1.36V490c0,.18-.18.18-.28.18h-1.76c-.1,0-.24,0-.24-.18,0-.66.11-2.26.11-4.26s-.08-4.75-.08-4.85c0-.35,1.2-.51,2.26-.51,1.77,0,3,1,3,2.59a2.22,2.22,0,0,1-1.93,2.31c-.13,0-.11,0,0,.22A37.74,37.74,0,0,1,185.59,490Zm-3.86-6.53c0,.09,0,.11.16.11a1.2,1.2,0,0,0,1.13-1.1c0-.42-.35-.59-1-.59-.26,0-.3,0-.3.25Z" transform="translate(-43.37 -294.37)"/><path class="cls-4" d="M194.74,480.63v9.23a.27.27,0,0,1-.3.29h-1.53c-.25,0-.36-.07-.36-.25a13.1,13.1,0,0,0-.45-3.41c-.15,0-1,2.36-1.17,2.36h-.82c-.18,0-1.05-2.36-1.19-2.36a13.1,13.1,0,0,0-.45,3.41c0,.18,0,.25-.18.25h-1.75c-.17,0-.25-.08-.25-.29V481c0-.31,1.54-.67,1.89-.67.14,0,.2,0,.29.23,0,.06,1.87,4.42,2.05,4.42a47.75,47.75,0,0,0,2.07-4.46.28.28,0,0,1,.31-.19h1.44C194.5,480.35,194.74,480.35,194.74,480.63Z" transform="translate(-43.37 -294.37)"/><path class="cls-4" d="M200.08,487.87c.59,0,1.29,0,1.26.39l-.1,1.22c0,.52-.14.67-.4.67h-4.93c-.2,0-.2-.21-.2-.36V481c0-.32,1.44-.61,2-.61a24.75,24.75,0,0,1,3.49.22c.08,0,.32.06.32.62v1.4a.18.18,0,0,1-.18.18h-3.09c-.08,0-.09.11-.09.19v1.1h1a.29.29,0,0,1,.33.28v1.3q0,.21-.15.21h-1.21s-.07.06-.07.11v1.71c0,.14.07.2.23.2Zm-1.65-8.23a3.73,3.73,0,0,1,.32-1.27,1.36,1.36,0,0,1,.62-.11c.19,0,.35,0,.35.12s-.89,1.39-1.21,1.39C198.46,479.77,198.43,479.74,198.43,479.64Z" transform="translate(-43.37 -294.37)"/><path class="cls-4" d="M206.89,487.87c.58,0,1.28,0,1.26.39l-.1,1.22c0,.52-.14.67-.41.67h-4.93c-.2,0-.2-.21-.2-.36V481c0-.32,1.45-.61,2-.61a24.68,24.68,0,0,1,3.49.22c.08,0,.32.06.32.62v1.4a.18.18,0,0,1-.18.18h-3.08c-.09,0-.1.11-.1.19v1.1h1c.2,0,.34.11.34.28v1.3c0,.14-.06.21-.16.21h-1.2c-.06,0-.07.06-.07.11v1.71c0,.14.07.2.22.2Z" transform="translate(-43.37 -294.37)"/><path class="cls-4" d="M209,489.35v-1.19c0-.49.1-.57.31-.61.77-.14,3.37.29,3.37-1,0-1.43-3.4-.63-3.4-3.37,0-2.16,2.11-2.87,4.05-2.87a7.4,7.4,0,0,1,1.26.09c.47.09.59.16.59.62v.85c0,.38,0,.56-.55.47a5.83,5.83,0,0,0-1.15-.12c-1,0-1.46.35-1.46.94,0,1.57,3.13.73,3.13,4,0,2.41-1.68,2.93-3.45,2.93a16.55,16.55,0,0,1-2.21-.19C209.14,489.9,209,489.81,209,489.35Z" transform="translate(-43.37 -294.37)"/><path class="cls-5" d="M72.48,452.21c8.42,0,23,3.29,25.57,8.38,3.37,6.7-6.72,12.44-6.72,12.44h0a.51.51,0,0,1,0,.09,15.53,15.53,0,0,1,.77,2.3,14.3,14.3,0,0,1,0,6.8,15.23,15.23,0,0,1-.87,2.54v8.8H82a20.81,20.81,0,0,1-16.29,0H55.22V487a7,7,0,0,1-4.57-6.23,6.82,6.82,0,0,1,4.57-6.44v-.43A2.19,2.19,0,0,1,55,473s-11.1-5.5-8.08-11.73,19.18-9.09,25.57-9.09m0-3c-5.9,0-24.31,2.65-28.26,10.78-2.76,5.66,1.73,10.77,6.26,13.86a9.84,9.84,0,0,0-2.83,6.89,9.62,9.62,0,0,0,4.57,8v7.78H65.1a23.86,23.86,0,0,0,17.49,0H94.22v-11.2A18.75,18.75,0,0,0,95,483a17.27,17.27,0,0,0,0-8.25c0-.14-.07-.28-.11-.42a22.64,22.64,0,0,0,5.18-5.41,9.52,9.52,0,0,0,.67-9.63c-3.52-7-20.41-10-28.26-10Z" transform="translate(-43.37 -294.37)"/><path class="cls-6" d="M91.22,472.8v20.76h-36V472.8a15.71,15.71,0,0,1,.19-2.59H88.92v-.13s.07.07.1.13h2A14.7,14.7,0,0,1,91.22,472.8Z" transform="translate(-43.37 -294.37)"/><path class="cls-7" d="M92.5,478.82a13.65,13.65,0,0,1-.41,3.4A16.86,16.86,0,0,1,82,493.56a20.81,20.81,0,0,1-16.29,0,17.94,17.94,0,0,1-7.68-6.1,14.26,14.26,0,0,1-2.16-4.28,14.45,14.45,0,0,1-.67-4.36,6.67,6.67,0,0,1,.08-1.09,12.52,12.52,0,0,1,.72-3.66,14.76,14.76,0,0,1,2-3.86h31.6v-.13c.06,0,.08.07.11.13a14.78,14.78,0,0,1,2.39,5.21A13.65,13.65,0,0,1,92.5,478.82Z" transform="translate(-43.37 -294.37)"/><path class="cls-7" d="M58,487.53c-3.78,0-7.38-3-7.38-6.79a6.83,6.83,0,0,1,6.83-6.83Z" transform="translate(-43.37 -294.37)"/><ellipse class="cls-8" cx="11.79" cy="186.3" rx="1.35" ry="2.96"/><path class="cls-8" d="M79,488.56s-9.08,2.77-14-2.77Z" transform="translate(-43.37 -294.37)"/><line class="cls-9" x1="14.98" y1="194" x2="4.6" y2="194"/><line class="cls-9" x1="48.71" y1="178.04" x2="48.51" y2="178.04"/><line class="cls-9" x1="35.74" y1="178.04" x2="30.55" y2="178.04"/><line class="cls-9" x1="10" y1="178.04" x2="9.79" y2="178.04"/><path class="cls-10" d="M55,473s-11.1-5.5-8.08-11.73,19.18-9.09,25.57-9.09c8.42,0,23,3.29,25.58,8.38,3.36,6.7-6.73,12.44-6.73,12.44Z" transform="translate(-43.37 -294.37)"/><path class="cls-11" d="M72.47,477.82S55.33,478.06,55,473H91.33S91.67,477.58,72.47,477.82Z" transform="translate(-43.37 -294.37)"/><path class="cls-12" d="M55,473v-5s3.11-5,18.69-5,17.65,4.31,17.65,4.31V473Z" transform="translate(-43.37 -294.37)"/><path class="cls-13" d="M55,473s5.54-2.87,18.69-2.87S91.33,473,91.33,473Z" transform="translate(-43.37 -294.37)"/><ellipse class="cls-14" cx="30.12" cy="171.72" rx="3.36" ry="2.87"/></svg>