<svg id="Calque_6" data-name="Calque 6" xmlns="http://www.w3.org/2000/svg" viewBox="0 0 316.07 102.81"><defs><style>.cls-1{fill:#6b00ee;}.cls-2,.cls-9{fill:none;}.cls-2{stroke:#1be5b9;stroke-miterlimit:10;stroke-width:3px;}.cls-3,.cls-5{fill:#1be5b9;}.cls-3{fill-rule:evenodd;}.cls-4{fill:#fff;}.cls-6{fill:#4e4bf6;}.cls-7{fill:#e74366;}.cls-8{fill:#bf3a5b;}.cls-10{fill:#808c00;}.cls-11{fill:#30302e;}.cls-12{fill:#dde591;}.cls-13{fill:#5d6100;}.cls-14{fill:#ece800;}</style></defs><rect class="cls-1" x="6.57" y="0.81" width="308" height="76.31" rx="18.31"/><rect class="cls-2" x="6.57" y="1.5" width="308" height="76.31" rx="18.31"/><path class="cls-3" d="M180.5,366.32a10.14,10.14,0,0,1-.11-1.58A11.75,11.75,0,0,1,180.5,366.32Z" transform="translate(-42.92 -276.51)"/><path class="cls-3" d="M224.26,364.74a7.51,7.51,0,0,0,.15,1.58v1c0,6.6-7.4,12-16.45,12H75c-9,0-16.45-5.4-16.45-12v-1c0-6.6,7.4-12,16.45-12H208c2.32,0,4.54.36,5.17,1H239.5C227.29,355.32,224.28,361.69,224.26,364.74Z" transform="translate(-42.92 -276.51)"/><path class="cls-4" d="M104.64,369.66c0,.6-.78.6-1.2.6-2.7,0-4.51-1.95-4.51-4.83s1.89-5,4.72-5c.6,0,1,.23,1,.61v1.47c0,.17-.11.23-.5.23-1.49,0-2.82.82-2.82,2.45a2.81,2.81,0,0,0,2.89,2.72c.32,0,.43.05.43.22Z" transform="translate(-42.92 -276.51)"/><path class="cls-4" d="M112.41,370c0,.23-.12.3-.21.3h-1.93c-.11,0-.19-.1-.19-.3V366.6c0-.18,0-.18-.19-.18h-1.58c-.15,0-.17,0-.17.18V370c0,.25-.12.25-.31.25h-1.94c-.17,0-.27-.07-.27-.3s.18-3.23.18-5c0-1.63-.15-3.56-.15-3.66s1-.84,2.41-.84c.08,0,.08.17.08.2v3.64c0,.13,0,.18.16.18h1.58c.18,0,.2,0,.2-.17v-3.6c0-.12,0-.25.12-.25h2.09c.12,0,.12.2.12.23Z" transform="translate(-42.92 -276.51)"/><path class="cls-4" d="M117.76,368c.59,0,1.29,0,1.26.4l-.1,1.22c0,.51-.14.67-.4.67h-4.93c-.2,0-.2-.21-.2-.37v-8.82c0-.32,1.44-.62,2-.62a23.69,23.69,0,0,1,3.49.23c.08,0,.32.05.32.61v1.4a.18.18,0,0,1-.18.19H116c-.08,0-.09.11-.09.19v1.09h1a.3.3,0,0,1,.33.29v1.3q0,.21-.15.21h-1.21s-.07.05-.07.11v1.71c0,.14.07.19.23.19Z" transform="translate(-42.92 -276.51)"/><path class="cls-4" d="M126.71,361.27v1.4a.16.16,0,0,1-.17.15h-3.38c-.11,0-.15,0-.15.13v1.1c0,.06.06.1.14.1h1.16a.32.32,0,0,1,.35.3v1.3c0,.19-.26.19-.35.19h-1.17c-.07,0-.13.06-.13.16v4c0,.16-.13.16-.22.16h-2.33c-.11,0-.24,0-.24-.16s.3-2.87.3-4.16-.33-4-.33-4.28c0-.55,1.29-1.21,3.38-1.21a18.1,18.1,0,0,1,2.73.17C126.69,360.69,126.71,360.73,126.71,361.27Z" transform="translate(-42.92 -276.51)"/><path class="cls-4" d="M133.92,361.27v1.4a.16.16,0,0,1-.17.15h-3.38c-.11,0-.15,0-.15.13v1.1c0,.06.06.1.14.1h1.16a.32.32,0,0,1,.35.3v1.3c0,.19-.26.19-.35.19h-1.17c-.07,0-.13.06-.13.16v4c0,.16-.13.16-.22.16h-2.33c-.11,0-.24,0-.24-.16s.3-2.87.3-4.16-.33-4-.33-4.28c0-.55,1.29-1.21,3.38-1.21a18.1,18.1,0,0,1,2.73.17C133.9,360.69,133.92,360.73,133.92,361.27Z" transform="translate(-42.92 -276.51)"/><path class="cls-4" d="M139,368c.58,0,1.28,0,1.26.4l-.1,1.22c0,.51-.14.67-.41.67h-4.93c-.2,0-.2-.21-.2-.37v-8.82c0-.32,1.45-.62,2-.62a23.62,23.62,0,0,1,3.49.23c.08,0,.32.05.32.61v1.4a.18.18,0,0,1-.18.19h-3.08c-.09,0-.1.11-.1.19v1.09h1a.3.3,0,0,1,.34.29v1.3c0,.14-.06.21-.16.21H137c-.06,0-.07.05-.07.11v1.71c0,.14.07.19.22.19Z" transform="translate(-42.92 -276.51)"/><path class="cls-4" d="M148.69,370.26c-3.32,0-3.42,0-3.42-.32s.12-1.67.12-4.18-.12-4.63-.12-4.72c0-.25,1.12-.6,2.23-.6,2.24,0,4.48,2.39,4.48,4.78C152,368.09,150.56,370.26,148.69,370.26Zm.57-5c0-1.18-.6-2.13-1.37-2.13a.43.43,0,0,0-.49.47v3.84c0,.2.14.28.42.28C148.73,367.68,149.26,366.74,149.26,365.22Z" transform="translate(-42.92 -276.51)"/><path class="cls-4" d="M156.91,368c.58,0,1.28,0,1.26.4l-.1,1.22c0,.51-.14.67-.41.67h-4.93c-.2,0-.2-.21-.2-.37v-8.82c0-.32,1.45-.62,2-.62a23.62,23.62,0,0,1,3.49.23c.08,0,.32.05.32.61v1.4a.18.18,0,0,1-.18.19H155.1c-.09,0-.1.11-.1.19v1.09h1a.3.3,0,0,1,.34.29v1.3c0,.14-.06.21-.16.21H155c-.06,0-.07.05-.07.11v1.71c0,.14.07.19.22.19Z" transform="translate(-42.92 -276.51)"/><path class="cls-4" d="M159.06,369.46v-1.19c0-.49.1-.58.31-.62.77-.14,3.37.3,3.37-.95,0-1.43-3.4-.63-3.4-3.38,0-2.15,2.11-2.87,4-2.87a7.39,7.39,0,0,1,1.26.1c.47.08.59.15.59.62V362c0,.38,0,.56-.55.46a6.57,6.57,0,0,0-1.15-.11c-1,0-1.46.35-1.46.94,0,1.57,3.13.73,3.13,4,0,2.41-1.68,2.92-3.45,2.92a16.61,16.61,0,0,1-2.21-.18C159.16,370,159.06,369.92,159.06,369.46Z" transform="translate(-42.92 -276.51)"/><path class="cls-4" d="M171.52,370.26h-2c-.21,0-.32,0-.24-.23l3.52-8.85a3.53,3.53,0,0,1,2-.73c.16,0,.25,0,.28.1l3.28,9.53c0,.05-.06.18-.3.18H176.2a.52.52,0,0,1-.44-.23c0-.14-.4-1.86-.6-1.87l-2.45-.13c-.38,0-.83,1.75-.92,2A.26.26,0,0,1,171.52,370.26Zm1.95-4.62c-.1.19-.07.26.18.26h.87c.08,0,.22,0,.14-.32l-.27-.93c-.06-.2-.1-.32-.15-.32s-.13.12-.24.32Z" transform="translate(-42.92 -276.51)"/><path class="cls-4" d="M185.14,370.08c0,.18-.19.18-.29.18h-2.07a.26.26,0,0,1-.23-.13l-.84-1.82c-.11-.24-.19-.36-.25-.36s-.1.12-.1.36v1.77c0,.18-.18.18-.28.18h-1.76c-.1,0-.24,0-.24-.18,0-.66.11-2.26.11-4.26s-.08-4.75-.08-4.85c0-.35,1.2-.52,2.27-.52,1.76,0,3,1,3,2.59a2.23,2.23,0,0,1-1.93,2.32c-.13,0-.11,0,0,.22A37.74,37.74,0,0,1,185.14,370.08Zm-3.86-6.53c0,.08,0,.11.17.11a1.2,1.2,0,0,0,1.12-1.11c0-.42-.35-.58-1-.58-.27,0-.31,0-.31.25Z" transform="translate(-42.92 -276.51)"/><path class="cls-4" d="M194.29,360.73V370a.27.27,0,0,1-.3.3h-1.52c-.26,0-.37-.07-.37-.25a13.1,13.1,0,0,0-.45-3.41c-.15,0-1,2.36-1.17,2.36h-.82c-.18,0-1-2.36-1.19-2.36A13.1,13.1,0,0,0,188,370c0,.18,0,.25-.18.25h-1.75c-.17,0-.25-.09-.25-.3v-8.83c0-.31,1.54-.68,1.89-.68.14,0,.2,0,.29.24,0,.06,1.87,4.41,2,4.41a45.11,45.11,0,0,0,2.07-4.45.28.28,0,0,1,.31-.2h1.44C194.05,360.45,194.29,360.45,194.29,360.73Z" transform="translate(-42.92 -276.51)"/><path class="cls-4" d="M199.63,368c.59,0,1.29,0,1.26.4l-.1,1.22c0,.51-.14.67-.4.67h-4.93c-.2,0-.2-.21-.2-.37v-8.82c0-.32,1.44-.62,2-.62a23.69,23.69,0,0,1,3.49.23c.08,0,.32.05.32.61v1.4a.18.18,0,0,1-.18.19h-3.09c-.08,0-.09.11-.09.19v1.09h1a.3.3,0,0,1,.33.29v1.3q0,.21-.15.21h-1.21c-.05,0-.06.05-.06.11v1.71c0,.14.06.19.22.19ZM198,359.75a3.73,3.73,0,0,1,.32-1.27,1.39,1.39,0,0,1,.62-.11c.19,0,.35,0,.35.12s-.88,1.39-1.21,1.39C198,359.88,198,359.85,198,359.75Z" transform="translate(-42.92 -276.51)"/><path class="cls-4" d="M206.44,368c.58,0,1.28,0,1.26.4l-.1,1.22c0,.51-.14.67-.41.67h-4.93c-.19,0-.19-.21-.19-.37v-8.82c0-.32,1.44-.62,2-.62a23.55,23.55,0,0,1,3.49.23c.08,0,.32.05.32.61v1.4a.18.18,0,0,1-.18.19h-3.08c-.09,0-.1.11-.1.19v1.09h1a.3.3,0,0,1,.34.29v1.3c0,.14-.06.21-.16.21h-1.2c-.06,0-.07.05-.07.11v1.71c0,.14.07.19.22.19Z" transform="translate(-42.92 -276.51)"/><path class="cls-4" d="M208.59,369.46v-1.19c0-.49.1-.58.31-.62.77-.14,3.37.3,3.37-.95,0-1.43-3.4-.63-3.4-3.38,0-2.15,2.11-2.87,4-2.87a7.31,7.31,0,0,1,1.26.1c.47.08.59.15.59.62V362c0,.38,0,.56-.55.46a6.57,6.57,0,0,0-1.15-.11c-1,0-1.46.35-1.46.94,0,1.57,3.13.73,3.13,4,0,2.41-1.68,2.92-3.45,2.92a16.61,16.61,0,0,1-2.21-.18C208.69,370,208.59,369.92,208.59,369.46Z" transform="translate(-42.92 -276.51)"/><path class="cls-5" d="M72,332.32c8.42,0,23,3.29,25.58,8.37,3.36,6.71-6.73,12.45-6.73,12.45h0a.62.62,0,0,1,0,.09,15.53,15.53,0,0,1,.77,2.3,14.3,14.3,0,0,1,0,6.8,14.37,14.37,0,0,1-.87,2.54v8.8H81.54a20.81,20.81,0,0,1-16.29,0H54.77v-6.59a7,7,0,0,1-4.57-6.23,6.82,6.82,0,0,1,4.57-6.44V354a2.24,2.24,0,0,1-.23-.84s-11.1-5.51-8.08-11.73,19.18-9.09,25.57-9.09m0-3c-5.9,0-24.31,2.65-28.26,10.78C41,345.76,45.5,350.86,50,354a9.84,9.84,0,0,0-2.83,6.89,9.63,9.63,0,0,0,4.57,8v7.78H64.65a23.86,23.86,0,0,0,17.49,0H93.77v-11.2a18.39,18.39,0,0,0,.78-2.42,17.27,17.27,0,0,0,0-8.25c0-.13-.07-.27-.11-.41A22.82,22.82,0,0,0,99.62,349a9.52,9.52,0,0,0,.67-9.63c-3.52-7-20.41-10-28.26-10Z" transform="translate(-42.92 -276.51)"/><path class="cls-6" d="M90.77,352.91v20.76h-36V352.91a14.8,14.8,0,0,1,.2-2.6h33.5v-.13a.32.32,0,0,1,.1.13h2A14.81,14.81,0,0,1,90.77,352.91Z" transform="translate(-42.92 -276.51)"/><path class="cls-7" d="M92.05,358.93a13.65,13.65,0,0,1-.41,3.4,16.88,16.88,0,0,1-10.1,11.34,20.81,20.81,0,0,1-16.29,0,17.94,17.94,0,0,1-7.68-6.1,14.26,14.26,0,0,1-2.16-4.28,14.49,14.49,0,0,1-.67-4.36,6.58,6.58,0,0,1,.08-1.09,12.52,12.52,0,0,1,.72-3.66,14.82,14.82,0,0,1,2-3.87h31.6v-.13a.28.28,0,0,1,.11.13,14.91,14.91,0,0,1,2.39,5.22A13.65,13.65,0,0,1,92.05,358.93Z" transform="translate(-42.92 -276.51)"/><path class="cls-7" d="M57.58,367.63c-3.78,0-7.38-3-7.38-6.78A6.83,6.83,0,0,1,57,354Z" transform="translate(-42.92 -276.51)"/><ellipse class="cls-8" cx="11.79" cy="84.26" rx="1.35" ry="2.96"/><path class="cls-8" d="M78.57,368.67s-9.08,2.77-14-2.77Z" transform="translate(-42.92 -276.51)"/><line class="cls-9" x1="14.98" y1="91.97" x2="4.6" y2="91.97"/><line class="cls-9" x1="48.71" y1="76" x2="48.51" y2="76"/><line class="cls-9" x1="35.74" y1="76" x2="30.55" y2="76"/><line class="cls-9" x1="10" y1="76" x2="9.79" y2="76"/><path class="cls-10" d="M54.54,353.14s-11.1-5.51-8.08-11.73,19.18-9.09,25.57-9.09c8.42,0,23,3.29,25.58,8.37,3.36,6.71-6.73,12.45-6.73,12.45Z" transform="translate(-42.92 -276.51)"/><path class="cls-11" d="M72,357.93s-17.14.24-17.48-4.79H90.88S91.22,357.69,72,357.93Z" transform="translate(-42.92 -276.51)"/><path class="cls-12" d="M54.54,353.14v-5s3.11-5,18.69-5,17.65,4.31,17.65,4.31v5.74Z" transform="translate(-42.92 -276.51)"/><path class="cls-13" d="M54.54,353.14s5.54-2.87,18.69-2.87,17.65,2.87,17.65,2.87Z" transform="translate(-42.92 -276.51)"/><ellipse class="cls-14" cx="30.12" cy="69.69" rx="3.36" ry="2.87"/></svg>