<svg id="Calque_7" data-name="Calque 7" xmlns="http://www.w3.org/2000/svg" viewBox="0 0 317.5 136.93"><defs><style>.cls-1{fill:#5b00f5;}.cls-2,.cls-8{fill:none;}.cls-2{stroke:#1be5b9;stroke-miterlimit:10;stroke-width:3.86px;}.cls-3,.cls-5{fill:#1be5b9;}.cls-3{fill-rule:evenodd;}.cls-4{fill:#fff;}.cls-6{fill:#e74366;}.cls-7{fill:#bf3a5b;}.cls-9{fill:#808c00;}.cls-10{fill:#30302e;}.cls-11{fill:#dde591;}.cls-12{fill:#5d6100;}.cls-13{fill:#ece800;}</style></defs><rect class="cls-1" x="7.57" y="0.93" width="308" height="110" rx="26.66"/><rect class="cls-2" x="7.57" y="1.93" width="308" height="110" rx="26.66"/><path class="cls-3" d="M210.91,421.45A8.62,8.62,0,0,0,211,423v1c0,6.6-6,12-13.37,12h-108c-7.35,0-13.36-5.4-13.36-12v-1c0-6.6,6-12,13.36-12h108c1.89,0,3.69.36,4.2,1h21.42C213.38,412,210.93,418.4,210.91,421.45Z" transform="translate(-60.71 -299.1)"/><path class="cls-4" d="M126.33,425.75c.59,0,1.29,0,1.26.39l-.09,1.22c0,.51-.14.67-.41.67h-4.93c-.2,0-.2-.21-.2-.37v-8.82c0-.32,1.44-.62,2-.62a23.69,23.69,0,0,1,3.49.23c.08,0,.32.05.32.61v1.4a.18.18,0,0,1-.18.19h-3.08c-.09,0-.1.11-.1.19v1.1h1a.29.29,0,0,1,.33.28v1.3q0,.21-.15.21h-1.2c-.06,0-.07,0-.07.11v1.71c0,.14.07.2.22.2Zm-1.65-8.23a3.73,3.73,0,0,1,.32-1.27,1.39,1.39,0,0,1,.62-.11c.19,0,.35,0,.35.12s-.88,1.39-1.21,1.39C124.71,417.65,124.68,417.62,124.68,417.52Z" transform="translate(-60.71 -299.1)"/><path class="cls-4" d="M137,418.22c.28,0,.47.26.47.61v1.3c0,.59-.1.71-.59.71h-2.38c-.17,0-.18.06-.18.18,0,2.41.1,4.53.21,6.81,0,.2-.11.2-.28.2H132c-.17,0-.3,0-.28-.2.12-2.28.21-4.4.21-6.81,0-.11,0-.18-.21-.18h-2.44c-.49,0-.5-.22-.5-.75V418.8c0-.38.15-.58.44-.58Z" transform="translate(-60.71 -299.1)"/><path class="cls-4" d="M138,428H136c-.21,0-.32,0-.24-.23L139.3,419a3.53,3.53,0,0,1,2-.73c.15,0,.25,0,.28.1l3.28,9.53s-.06.18-.3.18h-1.88a.52.52,0,0,1-.43-.23c-.06-.14-.41-1.86-.6-1.87l-2.45-.13c-.38,0-.83,1.75-.93,2A.25.25,0,0,1,138,428Zm1.94-4.62c-.1.19-.07.26.18.26H141c.09,0,.23-.05.14-.32l-.26-.92c-.06-.21-.1-.33-.16-.33s-.12.12-.24.33Z" transform="translate(-60.71 -299.1)"/><path class="cls-4" d="M151.81,418.22c.28,0,.48.26.48.61v1.3c0,.59-.1.71-.59.71h-2.38c-.17,0-.18.06-.18.18,0,2.41.1,4.53.21,6.81,0,.2-.11.2-.28.2h-2.28c-.17,0-.3,0-.28-.2.12-2.28.21-4.4.21-6.81,0-.11,0-.18-.21-.18h-2.44c-.49,0-.51-.22-.51-.75V418.8c0-.38.16-.58.45-.58Z" transform="translate(-60.71 -299.1)"/><path class="cls-4" d="M165.35,418.5v9.23a.27.27,0,0,1-.29.3h-1.53c-.25,0-.36-.07-.36-.25a13.1,13.1,0,0,0-.45-3.41c-.15,0-1,2.36-1.18,2.36h-.81c-.18,0-1-2.36-1.19-2.36a13.1,13.1,0,0,0-.45,3.41c0,.18,0,.25-.18.25h-1.75c-.17,0-.25-.09-.25-.3V418.9c0-.31,1.54-.68,1.89-.68.14,0,.19,0,.29.24a46.3,46.3,0,0,0,2,4.41c.16,0,2-4.2,2.07-4.45a.28.28,0,0,1,.31-.2H165C165.11,418.22,165.35,418.22,165.35,418.5Z" transform="translate(-60.71 -299.1)"/><path class="cls-4" d="M168.28,428h-1.95c-.21,0-.32,0-.24-.23l3.52-8.85a3.53,3.53,0,0,1,2-.73c.15,0,.25,0,.28.1l3.28,9.53s-.06.18-.3.18H173a.52.52,0,0,1-.43-.23c-.06-.14-.41-1.86-.6-1.87l-2.45-.13c-.38,0-.83,1.75-.93,2A.25.25,0,0,1,168.28,428Zm1.94-4.62c-.1.19-.07.26.18.26h.87c.09,0,.23-.05.14-.32l-.26-.92c-.06-.21-.1-.33-.16-.33s-.12.12-.24.33Z" transform="translate(-60.71 -299.1)"/><path class="cls-4" d="M181.13,418.39v5.13c0,3.82-.83,4.51-2.94,4.51-2.5,0-2.64-1.86-2.64-3.31,0-.12,0-.35.28-.35h1.69c.12,0,.23,0,.23.56,0,.31.05.72.44.72.54,0,.66-.8.66-2.16v-4.68a3.89,3.89,0,0,1,2-.59C181,418.22,181.13,418.22,181.13,418.39Z" transform="translate(-60.71 -299.1)"/><path class="cls-4" d="M189,422.93c0,3.94-.95,5.28-3.32,5.28-2.55,0-3.55-1.57-3.55-5.29,0-3.44,1-4.86,3.29-4.86S189,419.71,189,422.93Zm-3.37,2.94c.87,0,1-.4,1-3.14,0-1.78-.16-2.5-1.13-2.5s-1.06.72-1.06,2.41C184.45,425.37,184.64,425.87,185.61,425.87Z" transform="translate(-60.71 -299.1)"/><path class="cls-4" d="M195.69,427.85c0,.18-.2.18-.29.18h-2.08a.24.24,0,0,1-.22-.13l-.84-1.82c-.11-.24-.2-.36-.25-.36s-.1.12-.1.36v1.77c0,.18-.18.18-.28.18h-1.77c-.1,0-.24,0-.24-.18,0-.66.12-2.26.12-4.26s-.09-4.75-.09-4.85c0-.35,1.21-.52,2.27-.52,1.77,0,3,1,3,2.59a2.22,2.22,0,0,1-1.94,2.32c-.12,0-.11,0,0,.22A37.74,37.74,0,0,1,195.69,427.85Zm-3.87-6.53c0,.08.05.11.17.11a1.19,1.19,0,0,0,1.12-1.11c0-.42-.35-.58-1-.58-.26,0-.31,0-.31.25Z" transform="translate(-60.71 -299.1)"/><path class="cls-5" d="M89.83,389c8.41,0,23,3.29,25.57,8.38,3.36,6.7-6.73,12.44-6.73,12.44h0a.51.51,0,0,1,0,.09,14.45,14.45,0,0,1,.77,2.3,14.3,14.3,0,0,1,0,6.8,14.89,14.89,0,0,1-.86,2.54v8.8H99.33a20.81,20.81,0,0,1-16.29,0H72.56v-6.59A7,7,0,0,1,68,417.56a6.83,6.83,0,0,1,4.57-6.44v-.43a2.19,2.19,0,0,1-.23-.84s-11.1-5.5-8.07-11.73S83.43,389,89.83,389m0-3c-5.9,0-24.32,2.65-28.27,10.78-2.76,5.66,1.74,10.77,6.26,13.86A9.84,9.84,0,0,0,65,417.56a9.62,9.62,0,0,0,4.57,8v7.78H82.44a23.86,23.86,0,0,0,17.49,0h11.64v-11.2a18.69,18.69,0,0,0,.77-2.41,17.27,17.27,0,0,0,0-8.25c0-.14-.07-.28-.11-.42a22.64,22.64,0,0,0,5.18-5.41,9.5,9.5,0,0,0,.67-9.63c-3.52-7-20.41-10-28.25-10Z" transform="translate(-60.71 -299.1)"/><path class="cls-1" d="M108.57,409.62v20.76h-36V409.62a14.69,14.69,0,0,1,.2-2.59h33.5v-.13s.07.07.1.13h2A14.69,14.69,0,0,1,108.57,409.62Z" transform="translate(-60.71 -299.1)"/><path class="cls-6" d="M109.84,415.64a13.65,13.65,0,0,1-.41,3.4,16.81,16.81,0,0,1-10.1,11.34,20.81,20.81,0,0,1-16.29,0,17.94,17.94,0,0,1-7.68-6.1A14.26,14.26,0,0,1,73.2,420a14.45,14.45,0,0,1-.67-4.36,8.11,8.11,0,0,1,.08-1.09,12.52,12.52,0,0,1,.72-3.66,15.07,15.07,0,0,1,2-3.86h31.61v-.13s.07.07.1.13a14.61,14.61,0,0,1,2.39,5.21A13.65,13.65,0,0,1,109.84,415.64Z" transform="translate(-60.71 -299.1)"/><path class="cls-6" d="M75.37,424.35c-3.77,0-7.38-3-7.38-6.79a6.83,6.83,0,0,1,6.83-6.83Z" transform="translate(-60.71 -299.1)"/><ellipse class="cls-7" cx="11.79" cy="118.39" rx="1.35" ry="2.96"/><path class="cls-7" d="M96.36,425.39s-9.07,2.77-14-2.77Z" transform="translate(-60.71 -299.1)"/><line class="cls-8" x1="14.98" y1="126.09" x2="4.6" y2="126.09"/><line class="cls-8" x1="48.71" y1="110.13" x2="48.51" y2="110.13"/><line class="cls-8" x1="35.74" y1="110.13" x2="30.55" y2="110.13"/><line class="cls-8" x1="10" y1="110.13" x2="9.79" y2="110.13"/><path class="cls-9" d="M72.33,409.85s-11.1-5.5-8.07-11.73S83.43,389,89.83,389c8.41,0,23,3.29,25.57,8.38,3.36,6.7-6.73,12.44-6.73,12.44Z" transform="translate(-60.71 -299.1)"/><path class="cls-10" d="M89.81,414.64s-17.14.24-17.48-4.79h36.34S109,414.4,89.81,414.64Z" transform="translate(-60.71 -299.1)"/><path class="cls-11" d="M72.33,409.85v-5s3.11-5,18.69-5,17.65,4.31,17.65,4.31v5.74Z" transform="translate(-60.71 -299.1)"/><path class="cls-12" d="M72.33,409.85S77.87,407,91,407s17.65,2.87,17.65,2.87Z" transform="translate(-60.71 -299.1)"/><ellipse class="cls-13" cx="30.12" cy="103.81" rx="3.36" ry="2.87"/></svg>