<svg id="Calque_8" data-name="Calque 8" xmlns="http://www.w3.org/2000/svg" viewBox="0 0 316.07 102.81"><defs><style>.cls-1{fill:#5b00f5;}.cls-2,.cls-8{fill:none;}.cls-2{stroke:#1be5b9;stroke-miterlimit:10;stroke-width:3px;}.cls-3,.cls-5{fill:#1be5b9;}.cls-3{fill-rule:evenodd;}.cls-4{fill:#fff;}.cls-6{fill:#e74366;}.cls-7{fill:#bf3a5b;}.cls-9{fill:#808c00;}.cls-10{fill:#30302e;}.cls-11{fill:#dde591;}.cls-12{fill:#5d6100;}.cls-13{fill:#ece800;}</style></defs><rect class="cls-1" x="6.57" y="0.81" width="308" height="76.31" rx="18.31"/><rect class="cls-2" x="6.57" y="1.5" width="308" height="76.31" rx="18.31"/><path class="cls-3" d="M199,412a10.14,10.14,0,0,1-.11-1.58A11.75,11.75,0,0,1,199,412Z" transform="translate(-61.43 -322.16)"/><path class="cls-3" d="M209.8,410.39a9.31,9.31,0,0,0,.12,1.58v1c0,6.6-5.93,12-13.18,12H90.18C82.93,425,77,419.57,77,413v-1c0-6.6,5.93-12,13.18-12H196.74c1.85,0,3.63.36,4.14,1H222C212.23,401,209.81,407.34,209.8,410.39Z" transform="translate(-61.43 -322.16)"/><path class="cls-4" d="M125.05,413.68c.59,0,1.29,0,1.26.4l-.1,1.21c0,.52-.14.68-.41.68h-4.93c-.19,0-.19-.21-.19-.37v-8.82c0-.32,1.44-.62,2-.62a23.55,23.55,0,0,1,3.49.23c.09,0,.32.05.32.61v1.4a.18.18,0,0,1-.18.19h-3.08c-.08,0-.1.11-.1.19v1.09h1a.3.3,0,0,1,.34.28v1.31c0,.14-.06.21-.16.21h-1.2c-.06,0-.07.05-.07.11v1.71c0,.14.07.19.22.19Zm-1.66-8.22a3.45,3.45,0,0,1,.33-1.27,1.28,1.28,0,0,1,.61-.12c.2,0,.35.05.35.13s-.88,1.39-1.2,1.39C123.42,405.59,123.39,405.56,123.39,405.46Z" transform="translate(-61.43 -322.16)"/><path class="cls-4" d="M135.73,406.16c.28,0,.48.25.48.6v1.31c0,.58-.1.71-.59.71h-2.38c-.17,0-.18.06-.18.18,0,2.41.09,4.53.21,6.81,0,.2-.12.2-.28.2H130.7c-.17,0-.29,0-.28-.2.13-2.28.21-4.4.21-6.81,0-.11,0-.18-.21-.18H128c-.49,0-.5-.22-.5-.76v-1.28c0-.38.15-.58.45-.58Z" transform="translate(-61.43 -322.16)"/><path class="cls-4" d="M136.68,416h-2c-.21,0-.32,0-.24-.23l3.52-8.85a3.53,3.53,0,0,1,2-.73c.16,0,.25,0,.28.1l3.28,9.52c0,.06-.06.19-.29.19h-1.88a.52.52,0,0,1-.44-.23c0-.14-.4-1.86-.6-1.87l-2.45-.13c-.38,0-.83,1.75-.92,2A.26.26,0,0,1,136.68,416Zm1.95-4.63c-.1.2-.07.27.18.27h.87c.08,0,.22-.06.14-.32l-.27-.93c-.05-.21-.1-.32-.15-.32s-.13.11-.24.32Z" transform="translate(-61.43 -322.16)"/><path class="cls-4" d="M150.53,406.16c.28,0,.48.25.48.6v1.31c0,.58-.1.71-.59.71H148c-.17,0-.19.06-.19.18,0,2.41.1,4.53.21,6.81,0,.2-.11.2-.28.2H145.5c-.17,0-.29,0-.28-.2.13-2.28.21-4.4.21-6.81,0-.11,0-.18-.21-.18h-2.44c-.49,0-.5-.22-.5-.76v-1.28c0-.38.15-.58.45-.58Z" transform="translate(-61.43 -322.16)"/><path class="cls-4" d="M164.07,406.44v9.23a.27.27,0,0,1-.3.3h-1.52c-.26,0-.37-.07-.37-.26a13,13,0,0,0-.45-3.4c-.15,0-1,2.35-1.17,2.35h-.81c-.19,0-1.06-2.35-1.2-2.35a13.13,13.13,0,0,0-.44,3.4c0,.19,0,.26-.19.26h-1.75c-.16,0-.25-.09-.25-.3v-8.84c0-.3,1.54-.67,1.89-.67.14,0,.2,0,.3.24a46.21,46.21,0,0,0,2,4.41,45.11,45.11,0,0,0,2.07-4.45.28.28,0,0,1,.31-.2h1.45C163.83,406.16,164.07,406.16,164.07,406.44Z" transform="translate(-61.43 -322.16)"/><path class="cls-4" d="M167,416h-2c-.21,0-.32,0-.24-.23l3.52-8.85a3.53,3.53,0,0,1,2-.73c.16,0,.25,0,.28.1l3.28,9.52c0,.06-.06.19-.29.19h-1.88a.52.52,0,0,1-.44-.23c0-.14-.4-1.86-.6-1.87l-2.45-.13c-.38,0-.83,1.75-.92,2A.26.26,0,0,1,167,416Zm1.95-4.63c-.1.2-.07.27.18.27H170c.08,0,.22-.06.14-.32l-.27-.93c-.05-.21-.1-.32-.15-.32s-.13.11-.24.32Z" transform="translate(-61.43 -322.16)"/><path class="cls-4" d="M179.84,406.33v5.13c0,3.82-.82,4.51-2.94,4.51-2.49,0-2.63-1.87-2.63-3.31,0-.12,0-.35.28-.35h1.68c.13,0,.24,0,.24.56,0,.31,0,.72.43.72.55,0,.66-.8.66-2.16v-4.68a3.93,3.93,0,0,1,2-.59C179.7,406.16,179.84,406.16,179.84,406.33Z" transform="translate(-61.43 -322.16)"/><path class="cls-4" d="M187.7,410.87c0,3.93-.95,5.28-3.32,5.28-2.55,0-3.56-1.57-3.56-5.3,0-3.43,1-4.86,3.29-4.86C186.52,406,187.7,407.65,187.7,410.87Zm-3.38,2.94c.87,0,1-.41,1-3.14,0-1.78-.17-2.51-1.14-2.51s-1.06.73-1.06,2.41C183.16,413.31,183.36,413.81,184.32,413.81Z" transform="translate(-61.43 -322.16)"/><path class="cls-4" d="M194.4,415.78c0,.19-.19.19-.29.19H192a.26.26,0,0,1-.23-.13L191,414c-.11-.24-.19-.36-.25-.36s-.1.12-.1.36v1.76c0,.19-.18.19-.28.19h-1.76c-.1,0-.24,0-.24-.19,0-.65.11-2.25.11-4.25s-.08-4.75-.08-4.85c0-.35,1.2-.52,2.27-.52,1.76,0,3,1,3,2.59a2.22,2.22,0,0,1-1.93,2.31c-.13,0-.11.05,0,.23A38.46,38.46,0,0,1,194.4,415.78Zm-3.86-6.52c0,.08,0,.11.17.11a1.2,1.2,0,0,0,1.12-1.11c0-.42-.35-.59-1-.59-.27,0-.31,0-.31.26Z" transform="translate(-61.43 -322.16)"/><path class="cls-5" d="M90.54,378c8.41,0,23,3.29,25.57,8.38,3.37,6.7-6.73,12.44-6.73,12.44h0v.09a14.41,14.41,0,0,1,.76,2.3,14,14,0,0,1,0,6.8,15.19,15.19,0,0,1-.86,2.54v8.8h-9.23a20.84,20.84,0,0,1-16.3,0H73.28v-6.59a7,7,0,0,1-4.57-6.23,6.82,6.82,0,0,1,4.57-6.44v-.43a2.39,2.39,0,0,1-.24-.84s-11.1-5.5-8.07-11.73S84.15,378,90.54,378m0-3c-5.9,0-24.31,2.65-28.27,10.78-2.75,5.66,1.74,10.77,6.26,13.86a9.83,9.83,0,0,0-2.82,6.89,9.62,9.62,0,0,0,4.57,8v7.78H83.16a23.86,23.86,0,0,0,17.49,0h11.63v-11.2a17.25,17.25,0,0,0,.77-2.41,16.94,16.94,0,0,0,0-8.25c0-.14-.06-.28-.1-.42a22.58,22.58,0,0,0,5.17-5.41,9.47,9.47,0,0,0,.67-9.63c-3.51-7-20.41-10-28.25-10Z" transform="translate(-61.43 -322.16)"/><path class="cls-1" d="M109.28,398.56v20.76h-36V398.56a15.71,15.71,0,0,1,.19-2.59H107v-.13s.07.07.09.13h2A15.71,15.71,0,0,1,109.28,398.56Z" transform="translate(-61.43 -322.16)"/><path class="cls-6" d="M110.56,404.58a13.2,13.2,0,0,1-.42,3.4,16.82,16.82,0,0,1-10.09,11.34,20.84,20.84,0,0,1-16.3,0,18,18,0,0,1-7.68-6.1,14.23,14.23,0,0,1-2.15-4.28,14.5,14.5,0,0,1-.68-4.36,8,8,0,0,1,.08-1.09,12.21,12.21,0,0,1,.73-3.66,14.76,14.76,0,0,1,2-3.86h31.6v-.13a.19.19,0,0,1,.1.13,14.44,14.44,0,0,1,2.39,5.21A13.2,13.2,0,0,1,110.56,404.58Z" transform="translate(-61.43 -322.16)"/><path class="cls-6" d="M76.08,413.29c-3.77,0-7.37-3-7.37-6.79a6.83,6.83,0,0,1,6.83-6.83Z" transform="translate(-61.43 -322.16)"/><ellipse class="cls-7" cx="11.79" cy="84.26" rx="1.35" ry="2.96"/><path class="cls-7" d="M97.07,414.32s-9.07,2.77-14-2.77Z" transform="translate(-61.43 -322.16)"/><line class="cls-8" x1="14.98" y1="91.97" x2="4.6" y2="91.97"/><line class="cls-8" x1="48.71" y1="76" x2="48.51" y2="76"/><line class="cls-8" x1="35.74" y1="76" x2="30.55" y2="76"/><line class="cls-8" x1="10" y1="76" x2="9.79" y2="76"/><path class="cls-9" d="M73,398.79s-11.1-5.5-8.07-11.73S84.15,378,90.54,378c8.41,0,23,3.29,25.57,8.38,3.37,6.7-6.73,12.44-6.73,12.44Z" transform="translate(-61.43 -322.16)"/><path class="cls-10" d="M90.53,403.58s-17.14.24-17.49-4.79h36.34S109.72,403.34,90.53,403.58Z" transform="translate(-61.43 -322.16)"/><path class="cls-11" d="M73,398.79v-5s3.12-5,18.69-5,17.65,4.31,17.65,4.31v5.74Z" transform="translate(-61.43 -322.16)"/><path class="cls-12" d="M73,398.79s5.54-2.87,18.69-2.87,17.65,2.87,17.65,2.87Z" transform="translate(-61.43 -322.16)"/><ellipse class="cls-13" cx="30.12" cy="69.69" rx="3.36" ry="2.87"/></svg>