<svg id="Calque_9" data-name="Calque 9" xmlns="http://www.w3.org/2000/svg" viewBox="0 0 326.02 204.84"><defs><style>.cls-1{fill:#5b00f5;}.cls-2,.cls-8{fill:none;}.cls-2{stroke:#1be5b9;stroke-miterlimit:10;stroke-width:4.89px;}.cls-3,.cls-5{fill:#1be5b9;}.cls-3{fill-rule:evenodd;}.cls-4{fill:#fff;}.cls-6{fill:#e74366;}.cls-7{fill:#bf3a5b;}.cls-9{fill:#808c00;}.cls-10{fill:#30302e;}.cls-11{fill:#dde591;}.cls-12{fill:#5d6100;}.cls-13{fill:#ece800;}</style></defs><rect class="cls-1" x="15.57" y="0.84" width="308" height="176.4" rx="26.66"/><rect class="cls-2" x="15.57" y="2.44" width="308" height="176.4" rx="26.66"/><path class="cls-3" d="M184.89,452.17a10.14,10.14,0,0,1-.11-1.58A11.75,11.75,0,0,1,184.89,452.17Z" transform="translate(-47.32 -260.33)"/><path class="cls-3" d="M190.19,450.59a9.31,9.31,0,0,0,.12,1.58v1c0,6.6-5.69,12-12.64,12H75.53c-7,0-12.64-5.4-12.64-12v-1c0-6.6,5.69-12,12.64-12H177.67c1.78,0,3.49.36,4,1h20.25C192.52,441.17,190.2,447.54,190.19,450.59Z" transform="translate(-47.32 -260.33)"/><path class="cls-4" d="M112.93,453.89c.59,0,1.29,0,1.27.39l-.1,1.22c0,.51-.14.67-.41.67h-4.93c-.2,0-.2-.21-.2-.37V447c0-.32,1.45-.62,2-.62a23.62,23.62,0,0,1,3.49.23c.08,0,.32.05.32.61v1.4a.18.18,0,0,1-.18.19h-3.08c-.09,0-.1.11-.1.19v1.1h1c.2,0,.34.11.34.28v1.3c0,.14-.06.21-.16.21H111c-.06,0-.07.05-.07.11v1.71c0,.14.07.2.22.2Zm-1.65-8.23a3.73,3.73,0,0,1,.32-1.27,1.39,1.39,0,0,1,.62-.11c.2,0,.35,0,.35.12s-.88,1.39-1.2,1.39C111.31,445.79,111.28,445.76,111.28,445.66Z" transform="translate(-47.32 -260.33)"/><path class="cls-4" d="M123.62,446.36c.28,0,.47.26.47.61v1.3c0,.59-.09.71-.58.71h-2.38c-.17,0-.19.06-.19.18,0,2.41.1,4.53.21,6.81,0,.2-.11.2-.28.2h-2.28c-.17,0-.29,0-.28-.2.13-2.28.21-4.4.21-6.81,0-.11,0-.18-.21-.18h-2.44c-.49,0-.5-.22-.5-.75v-1.29c0-.38.15-.58.45-.58Z" transform="translate(-47.32 -260.33)"/><path class="cls-4" d="M124.57,456.17h-1.95c-.21,0-.32,0-.24-.23l3.52-8.85a3.53,3.53,0,0,1,2-.73c.15,0,.25,0,.28.1l3.28,9.53c0,.05-.06.18-.3.18h-1.87a.52.52,0,0,1-.44-.23c-.05-.14-.4-1.86-.6-1.87l-2.45-.13c-.38,0-.83,1.75-.93,2A.25.25,0,0,1,124.57,456.17Zm1.94-4.62c-.09.19-.07.26.19.26h.87c.08,0,.22-.05.14-.32l-.27-.92c-.06-.21-.1-.33-.15-.33s-.13.12-.24.33Z" transform="translate(-47.32 -260.33)"/><path class="cls-4" d="M138.42,446.36c.28,0,.47.26.47.61v1.3c0,.59-.09.71-.59.71h-2.38c-.16,0-.18.06-.18.18,0,2.41.1,4.53.21,6.81,0,.2-.11.2-.28.2h-2.28c-.17,0-.3,0-.28-.2.12-2.28.21-4.4.21-6.81,0-.11,0-.18-.21-.18h-2.44c-.49,0-.5-.22-.5-.75v-1.29c0-.38.15-.58.44-.58Z" transform="translate(-47.32 -260.33)"/><path class="cls-4" d="M152,446.64v9.23a.27.27,0,0,1-.3.3h-1.53c-.25,0-.36-.07-.36-.25a13.1,13.1,0,0,0-.45-3.41c-.15,0-1,2.36-1.17,2.36h-.82c-.18,0-1.05-2.36-1.19-2.36a13.1,13.1,0,0,0-.45,3.41c0,.18,0,.25-.18.25h-1.75c-.17,0-.25-.09-.25-.3V447c0-.31,1.54-.68,1.89-.68.14,0,.2,0,.29.24,0,.06,1.87,4.41,2.05,4.41a47.52,47.52,0,0,0,2.07-4.45.28.28,0,0,1,.31-.2h1.44C151.72,446.36,152,446.36,152,446.64Z" transform="translate(-47.32 -260.33)"/><path class="cls-4" d="M154.88,456.17h-1.95c-.21,0-.32,0-.24-.23l3.52-8.85a3.53,3.53,0,0,1,2-.73c.15,0,.25,0,.28.1l3.28,9.53c0,.05-.06.18-.3.18h-1.87a.52.52,0,0,1-.44-.23c-.05-.14-.4-1.86-.6-1.87l-2.45-.13c-.38,0-.83,1.75-.93,2A.25.25,0,0,1,154.88,456.17Zm1.94-4.62c-.09.19-.07.26.19.26h.87c.08,0,.22-.05.14-.32l-.27-.92c-.06-.21-.1-.33-.15-.33s-.13.12-.24.33Z" transform="translate(-47.32 -260.33)"/><path class="cls-4" d="M167.73,446.53v5.13c0,3.82-.83,4.51-2.94,4.51-2.49,0-2.63-1.86-2.63-3.31,0-.12,0-.35.28-.35h1.68c.12,0,.24,0,.24.56,0,.31,0,.72.43.72.55,0,.66-.8.66-2.16V447a3.89,3.89,0,0,1,2-.59C167.59,446.36,167.73,446.36,167.73,446.53Z" transform="translate(-47.32 -260.33)"/><path class="cls-4" d="M175.59,451.07c0,3.94-1,5.28-3.32,5.28-2.55,0-3.56-1.57-3.56-5.29,0-3.44,1-4.86,3.29-4.86C174.41,446.2,175.59,447.85,175.59,451.07ZM172.21,454c.87,0,1-.41,1-3.14,0-1.78-.17-2.5-1.14-2.5s-1.06.72-1.06,2.41C171.05,453.51,171.24,454,172.21,454Z" transform="translate(-47.32 -260.33)"/><path class="cls-4" d="M182.29,456c0,.18-.19.18-.29.18h-2.08a.26.26,0,0,1-.22-.13l-.84-1.82c-.11-.24-.2-.36-.25-.36s-.1.12-.1.36V456c0,.18-.18.18-.28.18h-1.77c-.09,0-.23,0-.23-.18,0-.66.11-2.26.11-4.26s-.09-4.75-.09-4.85c0-.35,1.21-.52,2.27-.52,1.77,0,3,1,3,2.59a2.22,2.22,0,0,1-1.93,2.32c-.13,0-.12,0,0,.22A37.74,37.74,0,0,1,182.29,456Zm-3.86-6.53c0,.08,0,.11.16.11a1.19,1.19,0,0,0,1.12-1.11c0-.42-.35-.58-1-.58-.26,0-.3,0-.3.25Z" transform="translate(-47.32 -260.33)"/><path class="cls-5" d="M76.43,418.17c8.41,0,23,3.29,25.57,8.38,3.36,6.7-6.73,12.44-6.73,12.44h0a.51.51,0,0,1,0,.09,14.45,14.45,0,0,1,.77,2.3,14,14,0,0,1,0,6.8,14.89,14.89,0,0,1-.86,2.54v8.8H85.94a20.84,20.84,0,0,1-16.3,0H59.17v-6.59a7,7,0,0,1-4.57-6.23,6.83,6.83,0,0,1,4.57-6.44v-.43a2.2,2.2,0,0,1-.24-.84s-11.1-5.5-8.07-11.73,19.18-9.09,25.57-9.09m0-3c-5.9,0-24.32,2.65-28.27,10.78-2.75,5.66,1.74,10.77,6.26,13.86a9.83,9.83,0,0,0-2.82,6.89,9.62,9.62,0,0,0,4.57,8v7.78H69a23.86,23.86,0,0,0,17.49,0H98.17v-11.2a17.25,17.25,0,0,0,.77-2.41,16.94,16.94,0,0,0,0-8.25c0-.14-.07-.28-.1-.42a22.58,22.58,0,0,0,5.17-5.41,9.47,9.47,0,0,0,.67-9.63c-3.51-7-20.41-10-28.25-10Z" transform="translate(-47.32 -260.33)"/><path class="cls-1" d="M95.17,438.76v20.76h-36V438.76a14.7,14.7,0,0,1,.19-2.59h33.5V436a.19.19,0,0,1,.1.13h2A15.71,15.71,0,0,1,95.17,438.76Z" transform="translate(-47.32 -260.33)"/><path class="cls-6" d="M96.45,444.78a13.65,13.65,0,0,1-.42,3.4,16.8,16.8,0,0,1-10.09,11.34,20.84,20.84,0,0,1-16.3,0,17.94,17.94,0,0,1-7.68-6.1,14,14,0,0,1-2.15-4.28,14.45,14.45,0,0,1-.68-4.36,8,8,0,0,1,.08-1.09,12.21,12.21,0,0,1,.73-3.66,14.73,14.73,0,0,1,2-3.86H93.54V436a.19.19,0,0,1,.1.13A14.61,14.61,0,0,1,96,441.38,13.65,13.65,0,0,1,96.45,444.78Z" transform="translate(-47.32 -260.33)"/><path class="cls-6" d="M62,453.49c-3.77,0-7.37-3-7.37-6.79a6.82,6.82,0,0,1,6.82-6.83Z" transform="translate(-47.32 -260.33)"/><ellipse class="cls-7" cx="11.79" cy="186.3" rx="1.35" ry="2.96"/><path class="cls-7" d="M83,454.53s-9.07,2.77-14-2.77Z" transform="translate(-47.32 -260.33)"/><line class="cls-8" x1="14.98" y1="194" x2="4.6" y2="194"/><line class="cls-8" x1="48.71" y1="178.04" x2="48.51" y2="178.04"/><line class="cls-8" x1="35.74" y1="178.04" x2="30.55" y2="178.04"/><line class="cls-8" x1="10" y1="178.04" x2="9.79" y2="178.04"/><path class="cls-9" d="M58.93,439s-11.1-5.5-8.07-11.73,19.18-9.09,25.57-9.09c8.41,0,23,3.29,25.57,8.38,3.36,6.7-6.73,12.44-6.73,12.44Z" transform="translate(-47.32 -260.33)"/><path class="cls-10" d="M76.42,443.78S59.28,444,58.93,439H95.27S95.61,443.54,76.42,443.78Z" transform="translate(-47.32 -260.33)"/><path class="cls-11" d="M58.93,439v-5s3.12-5,18.69-5,17.65,4.31,17.65,4.31V439Z" transform="translate(-47.32 -260.33)"/><path class="cls-12" d="M58.93,439s5.54-2.87,18.69-2.87S95.27,439,95.27,439Z" transform="translate(-47.32 -260.33)"/><ellipse class="cls-13" cx="30.12" cy="171.72" rx="3.36" ry="2.87"/></svg>