<svg id="Calque_9" data-name="Calque 9" xmlns="http://www.w3.org/2000/svg" viewBox="0 0 329.09 204.84"><defs><style>.cls-1{fill:#6b00ee;}.cls-10,.cls-2{fill:none;stroke-miterlimit:10;}.cls-2{stroke:#1be5b9;stroke-width:4.89px;}.cls-12,.cls-3{fill:#1be5b9;}.cls-11,.cls-3{fill-rule:evenodd;}.cls-4{fill:#fff;}.cls-5{fill:#e74366;}.cls-6{fill:#bf3a5b;}.cls-11,.cls-7{fill:#4e4bf6;}.cls-8{fill:#b3b2ff;}.cls-9{fill:#cfd1f9;}.cls-10{stroke:#f5bd34;stroke-width:0.88px;}</style></defs><rect class="cls-1" x="18.65" y="0.84" width="308" height="176.4" rx="26.66"/><rect class="cls-2" x="18.65" y="2.44" width="308" height="176.4" rx="26.66"/><path class="cls-3" d="M208.36,464.18a8,8,0,0,0,.14,1.58v1c0,6.6-6.79,12-15.09,12h-122c-8.3,0-15.09-5.4-15.09-12v-1c0-6.6,6.79-12,15.09-12h122c2.12,0,4.16.36,4.74,1h24.18C211.14,454.76,208.37,461.13,208.36,464.18Z" transform="translate(-41.68 -273.92)"/><path class="cls-4" d="M96.42,464.5s-.08,0-.08.1v3.92c0,.18-.13.18-.22.18H94.29c-.09,0-.23,0-.23-.18.09-2.64.09-4.08.09-5.14,0-1.26,0-2.5-.09-3.76,0-.18,1-.73,2.14-.73,2.45,0,3.73.87,3.73,2.54S98.48,464.5,96.42,464.5Zm1.4-3.18c0-.6-.78-.66-1.1-.66s-.38.06-.38.27v1.52c0,.07,0,.13.14.13C96.93,462.58,97.82,462,97.82,461.32Z" transform="translate(-41.68 -273.92)"/><path class="cls-4" d="M106.83,468.52c0,.18-.2.18-.3.18h-2.07a.23.23,0,0,1-.22-.13l-.84-1.82c-.12-.23-.2-.36-.26-.36s-.09.13-.09.36v1.77c0,.18-.19.18-.28.18H101c-.1,0-.24,0-.24-.18,0-.66.11-2.26.11-4.26s-.08-4.75-.08-4.85c0-.35,1.21-.52,2.27-.52,1.76,0,3,1,3,2.6a2.22,2.22,0,0,1-1.94,2.31c-.12,0-.11,0,0,.22A39.14,39.14,0,0,1,106.83,468.52ZM103,462c0,.08,0,.11.17.11a1.19,1.19,0,0,0,1.12-1.1c0-.42-.35-.59-1-.59-.27,0-.31,0-.31.25Z" transform="translate(-41.68 -273.92)"/><path class="cls-4" d="M111.89,466.42c.59,0,1.29,0,1.26.39l-.09,1.22c0,.52-.14.67-.41.67h-4.93c-.2,0-.2-.21-.2-.36v-8.83c0-.32,1.45-.62,2-.62a23.62,23.62,0,0,1,3.49.23c.08,0,.32.06.32.62v1.4a.18.18,0,0,1-.18.18h-3.08c-.09,0-.1.11-.1.19v1.1h1c.2,0,.34.11.34.28v1.3c0,.14-.06.21-.16.21H110c-.06,0-.07.06-.07.11v1.71c0,.14.07.2.22.2Z" transform="translate(-41.68 -273.92)"/><path class="cls-4" d="M122.77,459.18v9.23a.26.26,0,0,1-.29.29H121c-.25,0-.36-.07-.36-.25a13.1,13.1,0,0,0-.45-3.41c-.15,0-1,2.36-1.18,2.36h-.81c-.18,0-1.05-2.36-1.19-2.36a13.1,13.1,0,0,0-.45,3.41c0,.18,0,.25-.18.25h-1.75c-.17,0-.25-.08-.25-.29v-8.84c0-.31,1.54-.68,1.89-.68.14,0,.19,0,.29.24,0,.06,1.87,4.42,2,4.42a47.75,47.75,0,0,0,2.07-4.46.28.28,0,0,1,.31-.2h1.44C122.54,458.89,122.77,458.89,122.77,459.18Z" transform="translate(-41.68 -273.92)"/><path class="cls-4" d="M124.27,468.7c-.25,0-.31,0-.31-.14V459.5c0-.32,1.54-.61,2.79-.61.18,0,.24,0,.24.3v9.37c0,.14-.09.14-.38.14Z" transform="translate(-41.68 -273.92)"/><path class="cls-4" d="M132.54,466.42c.59,0,1.29,0,1.26.39l-.09,1.22c-.05.52-.14.67-.41.67h-4.93c-.2,0-.2-.21-.2-.36v-8.83c0-.32,1.45-.62,2-.62a23.69,23.69,0,0,1,3.49.23c.08,0,.32.06.32.62v1.4a.18.18,0,0,1-.18.18h-3.08c-.09,0-.1.11-.1.19v1.1h1c.2,0,.34.11.34.28v1.3c0,.14-.06.21-.16.21h-1.2c-.06,0-.07.06-.07.11v1.71c0,.14.07.2.22.2Z" transform="translate(-41.68 -273.92)"/><path class="cls-4" d="M141,468.52c0,.18-.19.18-.29.18h-2.07a.26.26,0,0,1-.23-.13l-.84-1.82c-.11-.23-.2-.36-.25-.36s-.1.13-.1.36v1.77c0,.18-.18.18-.28.18h-1.76c-.1,0-.24,0-.24-.18,0-.66.11-2.26.11-4.26s-.09-4.75-.09-4.85c0-.35,1.21-.52,2.27-.52,1.77,0,3,1,3,2.6a2.22,2.22,0,0,1-1.93,2.31c-.13,0-.12,0,0,.22A37.74,37.74,0,0,1,141,468.52ZM137.18,462c0,.08,0,.11.16.11a1.19,1.19,0,0,0,1.12-1.1c0-.42-.35-.59-1-.59-.26,0-.3,0-.3.25Z" transform="translate(-41.68 -273.92)"/><path class="cls-4" d="M153.83,459.18v9.23a.27.27,0,0,1-.3.29H152c-.25,0-.36-.07-.36-.25a13.1,13.1,0,0,0-.45-3.41c-.15,0-1,2.36-1.17,2.36h-.82c-.18,0-1-2.36-1.19-2.36a13.1,13.1,0,0,0-.45,3.41c0,.18,0,.25-.18.25h-1.75c-.17,0-.25-.08-.25-.29v-8.84c0-.31,1.54-.68,1.89-.68.14,0,.2,0,.29.24,0,.06,1.87,4.42,2.05,4.42a47.75,47.75,0,0,0,2.07-4.46.28.28,0,0,1,.31-.2h1.44C153.59,458.89,153.83,458.89,153.83,459.18Z" transform="translate(-41.68 -273.92)"/><path class="cls-4" d="M155.32,468.7c-.25,0-.31,0-.31-.14V459.5c0-.32,1.54-.61,2.79-.61.18,0,.24,0,.24.3v9.37c0,.14-.09.14-.38.14Z" transform="translate(-41.68 -273.92)"/><path class="cls-4" d="M165.84,459.2v9.23c0,.23-.06.27-.23.27h-1.45c-.17,0-.21,0-.38-.27-.06-.08-2.45-3.41-2.52-3.41s-.06,2.5-.06,3.4c0,.24-.07.28-.21.28h-1.68c-.16,0-.23-.07-.23-.18V459.6c0-.2,1.06-.71,1.42-.71a.26.26,0,0,1,.22.1c.05.09,2.74,4.81,2.82,4.81s.18-3.17.18-4.6c0-.24.1-.31.28-.31h1.58C165.79,458.89,165.84,459,165.84,459.2Z" transform="translate(-41.68 -273.92)"/><path class="cls-4" d="M167.19,468.7c-.25,0-.31,0-.31-.14V459.5c0-.32,1.54-.61,2.79-.61.18,0,.24,0,.24.3v9.37c0,.14-.09.14-.38.14Z" transform="translate(-41.68 -273.92)"/><path class="cls-4" d="M170.82,467.9v-1.19c0-.49.09-.57.3-.62.77-.14,3.38.3,3.38-.95,0-1.43-3.4-.63-3.4-3.37,0-2.16,2.11-2.88,4-2.88a7.43,7.43,0,0,1,1.27.1c.47.09.58.16.58.62v.85c0,.38,0,.56-.54.47a5.83,5.83,0,0,0-1.15-.12c-1,0-1.46.35-1.46.94,0,1.57,3.13.73,3.13,4,0,2.41-1.69,2.93-3.45,2.93a16.4,16.4,0,0,1-2.21-.19C170.91,468.45,170.82,468.36,170.82,467.9Z" transform="translate(-41.68 -273.92)"/><path class="cls-4" d="M185.94,458.89c.28,0,.48.26.48.61v1.3c0,.59-.1.71-.59.71h-2.38c-.17,0-.18.06-.18.19,0,2.41.09,4.52.21,6.8,0,.2-.12.2-.29.2h-2.28c-.17,0-.29,0-.28-.2.13-2.28.21-4.39.21-6.8,0-.12,0-.19-.21-.19h-2.44c-.49,0-.5-.22-.5-.75v-1.29c0-.38.15-.58.45-.58Z" transform="translate(-41.68 -273.92)"/><path class="cls-4" d="M193.46,468.52c0,.18-.2.18-.3.18h-2.07a.23.23,0,0,1-.22-.13l-.84-1.82c-.12-.23-.2-.36-.26-.36s-.09.13-.09.36v1.77c0,.18-.19.18-.28.18h-1.77c-.1,0-.24,0-.24-.18,0-.66.11-2.26.11-4.26s-.08-4.75-.08-4.85c0-.35,1.21-.52,2.27-.52,1.76,0,3,1,3,2.6a2.21,2.21,0,0,1-1.93,2.31c-.12,0-.11,0,0,.22A39.14,39.14,0,0,1,193.46,468.52ZM189.59,462c0,.08,0,.11.17.11a1.19,1.19,0,0,0,1.12-1.1c0-.42-.35-.59-1-.59-.27,0-.31,0-.31.25Z" transform="translate(-41.68 -273.92)"/><path class="cls-4" d="M198.52,466.42c.59,0,1.29,0,1.26.39l-.09,1.22c0,.52-.14.67-.41.67h-4.93c-.2,0-.2-.21-.2-.36v-8.83c0-.32,1.45-.62,2-.62a23.62,23.62,0,0,1,3.49.23c.08,0,.32.06.32.62v1.4a.18.18,0,0,1-.18.18h-3.08c-.09,0-.1.11-.1.19v1.1h1c.2,0,.34.11.34.28v1.3c0,.14-.06.21-.16.21h-1.2c-.06,0-.07.06-.07.11v1.71c0,.14.07.2.22.2Z" transform="translate(-41.68 -273.92)"/><ellipse class="cls-5" cx="26.75" cy="185.04" rx="19.11" ry="16.8"/><path class="cls-5" d="M52.24,467.88c-3.87,0-7.56-3.09-7.56-6.95a7,7,0,0,1,7-7" transform="translate(-41.68 -273.92)"/><ellipse class="cls-6" cx="7.63" cy="186.94" rx="1.38" ry="3.03"/><path class="cls-7" d="M51.18,451.72s-4.6-6.38,8.18-14.19,24,3.87,28.19,6.69-4.63,3.64-4.63,3.64S71.26,442,63.33,444.53A30,30,0,0,0,51.18,451.72Z" transform="translate(-41.68 -273.92)"/><ellipse class="cls-8" cx="36.97" cy="181" rx="5.52" ry="5.74"/><polygon class="cls-9" points="33.66 177.03 41.17 184.54 42.5 182.46 35.53 175.74 33.66 177.03"/><rect class="cls-9" x="78.12" y="450.05" width="0.62" height="10.62" transform="translate(-340.7 -85.08) rotate(-45)"/><circle class="cls-10" cx="37.19" cy="181" r="5.52"/><path class="cls-11" d="M79.41,464.9c-4.66.41-4-4.92-8.11-3.58-3.08,1-.53,7.3,6.38,5.32,1.8-.52,3.56-1.9,1.73-1.74Zm-20.95,0c4.67.41,4-4.92,8.12-3.58,3.08,1,.53,7.3-6.39,5.32-1.79-.52-3.56-1.9-1.73-1.74Z" transform="translate(-41.68 -273.92)"/><path class="cls-12" d="M68.33,434.88c8.84,0,16,7.21,19.22,9.34,4.22,2.82-4.63,3.64-4.63,3.64l-.32-.15a15.67,15.67,0,0,1,5,11.25c0,9.27-8.56,16.8-19.12,16.8a19.77,19.77,0,0,1-16.19-7.92v0c-3.87,0-7.56-3.09-7.56-6.95a7,7,0,0,1,5.46-6.82,15.81,15.81,0,0,1,1.1-2.45l-.06.06s-4.6-6.38,8.18-14.19a16.88,16.88,0,0,1,9-2.65m0-3A20,20,0,0,0,57.8,435c-5.94,3.62-9.38,7.59-10.23,11.8a9.32,9.32,0,0,0,.3,4.92,9.92,9.92,0,0,0-6.19,9.24c0,4.9,4,9.12,9,9.84a22.94,22.94,0,0,0,17.73,8c12.2,0,22.12-8.89,22.12-19.8a18,18,0,0,0-2.48-9.09,5.18,5.18,0,0,0,3.51-3.32c.26-1,.3-3.05-2.37-4.83-.51-.33-1.21-.88-2-1.52-4-3.11-10.64-8.32-18.86-8.32Z" transform="translate(-41.68 -273.92)"/></svg>