<?xml version="1.0" encoding="iso-8859-1"?>
<!-- Generator: Adobe Illustrator 26.0.3, SVG Export Plug-In . SVG Version: 6.00 Build 0)  -->
<svg version="1.1" id="Calque_1" xmlns="http://www.w3.org/2000/svg" xmlns:xlink="http://www.w3.org/1999/xlink" x="0px" y="0px"
	 width="320.5px" height="186.897px" viewBox="0 0 320.5 186.897" enable-background="new 0 0 320.5 186.897" xml:space="preserve">
<g>
	<path fill="#5B00F5" d="M282.842,171.897H28.158c-14.662,0-26.658-11.996-26.658-26.658V28.158C1.5,13.496,13.496,1.5,28.158,1.5
		h254.684c14.662,0,26.658,11.996,26.658,26.658v117.081C309.5,159.901,297.504,171.897,282.842,171.897z"/>
	<path fill="none" stroke="#00F6E1" stroke-width="3" stroke-miterlimit="10" d="M282.842,171.897H28.158
		c-14.662,0-26.658-11.996-26.658-26.658V28.158C1.5,13.496,13.496,1.5,28.158,1.5h254.684c14.662,0,26.658,11.996,26.658,26.658
		v117.081C309.5,159.901,297.504,171.897,282.842,171.897z"/>
</g>
<g>
	<path fill="#FFFFFF" d="M269.28,183.179l-7.192-3.658c0,0-1.722-1.219-4.367-1.396c-3.24-0.217-7.809-1.629-9.108-6.531
		c-1.299-4.902-2.489-9.038-2.002-17.424c1.136-5.974,7.847-6.625,9.903-6.778c2.056-0.153,27.468-1.803,43.666-1.467
		c0,0,9.907,0.155,11.448,7.048c1.541,6.894,2.093,15.104,0.181,19.904c-1.911,4.8-5.299,4.661-10.293,5.098
		c-4.994,0.436-27.437,0.436-27.437,0.436s-1.532-0.241-1.441,0.878c0.091,1.119,0.608,3.207-0.547,4.154
		C271.118,184.218,269.28,183.179,269.28,183.179z"/>
	<g>
		<path fill="#5B00F5" d="M265.345,153.062l1.051,14.882c0.024,0.339-0.17,0.489-0.441,0.508l-2.461,0.174
			c-0.406,0.029-0.595-0.072-0.616-0.365c-0.128-1.807-0.884-5.453-1.11-5.437c-0.248,0.018-1.336,3.908-1.629,3.928l-1.31,0.092
			c-0.293,0.021-1.961-3.675-2.188-3.659c-0.225,0.016-0.463,3.732-0.335,5.539c0.021,0.293,0.007,0.408-0.265,0.427l-2.823,0.199
			c-0.271,0.019-0.416-0.106-0.44-0.446l-1.006-14.25c-0.035-0.497,2.408-1.259,2.972-1.299c0.225-0.016,0.316-0.022,0.501,0.351
			c0.052,0.087,3.506,6.902,3.8,6.881c0.27-0.019,2.706-7,2.835-7.418c0.091-0.324,0.316-0.34,0.474-0.351l2.326-0.164
			C264.928,152.637,265.313,152.61,265.345,153.062z"/>
		<path fill="#5B00F5" d="M278.857,159.965c0.448,6.346-0.934,8.622-4.751,8.892c-4.111,0.29-5.915-2.124-6.339-8.131
			c-0.391-5.533,1.117-7.954,4.754-8.211C276.405,152.241,278.49,154.771,278.857,159.965z M273.748,165.092
			c1.4-0.099,1.625-0.773,1.314-5.177c-0.202-2.868-0.557-4.023-2.115-3.913c-1.581,0.112-1.633,1.295-1.434,4.118
			C271.817,164.411,272.19,165.202,273.748,165.092z"/>
		<path fill="#5B00F5" d="M280.328,160.094l-0.576-8.153c-0.046-0.656,0.993-0.729,1.625-0.774c0.836-0.059,1.93,0.023,1.96,0.452
			l0.59,8.356c0.167,2.371,1.056,2.74,2.005,2.673c0.948-0.067,1.912-0.566,1.744-2.938l-0.587-8.311
			c-0.034-0.474,0.475-0.669,1.649-0.752c0.746-0.053,1.897-0.134,1.926,0.272l0.606,8.582c0.419,5.94-1.754,6.978-4.984,7.206
			C283.058,166.937,280.728,165.763,280.328,160.094z"/>
		<path fill="#5B00F5" d="M295.124,167.079l-3.139,0.222c-0.339,0.024-0.523-0.008-0.41-0.334l4.661-14.673
			c0.193-0.49,2.176-1.335,3.079-1.398c0.248-0.018,0.41,0.016,0.463,0.126l6.369,14.984c0.029,0.088-0.069,0.3-0.454,0.327
			l-3.026,0.214c-0.384,0.027-0.673-0.202-0.726-0.312c-0.106-0.22-0.867-2.958-1.185-2.957l-3.966,0.076
			c-0.612,0.02-1.134,2.917-1.259,3.379C295.456,166.965,295.35,167.063,295.124,167.079z M297.737,159.404
			c-0.136,0.327-0.083,0.437,0.324,0.409l1.4-0.099c0.136-0.01,0.355-0.116,0.19-0.535l-0.535-1.46
			c-0.114-0.332-0.195-0.508-0.285-0.502c-0.09,0.006-0.19,0.195-0.348,0.547L297.737,159.404z"/>
	</g>
	<g>
		<path fill="#00F6E1" d="M305.919,186.691l4.604-1.48c0,0,1.42-0.431,3.472-0.327c2.052,0.105,4.275-0.762,5.171-2.926
			s1.759-3.611,1.103-7.847c-0.627-2.697-4.429-3.038-5.728-3.151c-1.298-0.113-17.343-1.404-27.592-1.606
			c0,0-6.105-0.573-7.186,2.478s-1.718,7.137-0.583,9.326c1.135,2.188,3.279,2.2,6.431,2.504s17.345,0.792,17.345,0.792
			s0.973-0.074,0.898,0.424c-0.075,0.499-0.434,1.421,0.282,1.87C304.741,187.115,305.919,186.691,305.919,186.691z"/>
		<g>
			<path fill="#FFFFFF" d="M282.588,176.719c-0.034-0.002-0.051,0.006-0.054,0.057l-0.108,2.379
				c-0.005,0.11-0.081,0.107-0.141,0.104l-1.104-0.05c-0.06-0.003-0.144-0.015-0.14-0.117c0.132-1.595,0.172-2.47,0.201-3.116
				c0.035-0.764,0.069-1.512,0.044-2.279c-0.003-0.111,0.615-0.415,1.32-0.383c1.487,0.067,2.236,0.629,2.19,1.64
				C284.748,176.025,283.837,176.775,282.588,176.719z M283.525,174.829c0.017-0.366-0.458-0.421-0.653-0.43
				c-0.204-0.009-0.231,0.023-0.237,0.151l-0.042,0.926c-0.002,0.043,0.005,0.077,0.082,0.08
				C282.946,175.569,283.507,175.22,283.525,174.829z"/>
			<path fill="#FFFFFF" d="M288.792,179.444c-0.005,0.11-0.124,0.105-0.184,0.102l-1.257-0.057c-0.06-0.003-0.117-0.039-0.132-0.083
				l-0.46-1.128c-0.061-0.148-0.109-0.226-0.143-0.228c-0.043-0.002-0.063,0.074-0.069,0.218l-0.049,1.071
				c-0.005,0.11-0.115,0.105-0.175,0.103l-1.071-0.049c-0.059-0.003-0.144-0.007-0.139-0.117c0.018-0.4,0.13-1.365,0.185-2.58
				c0.055-1.206,0.08-2.883,0.082-2.942c0.01-0.212,0.745-0.281,1.391-0.252c1.071,0.049,1.808,0.686,1.764,1.655
				c-0.046,1.02-0.904,1.364-1.236,1.349c-0.076-0.003-0.069,0.023,0.002,0.136C287.476,176.932,288.803,179.197,288.792,179.444z
				 M286.626,175.378c-0.002,0.051,0.023,0.069,0.099,0.072c0.357,0.016,0.695-0.318,0.71-0.64c0.012-0.255-0.196-0.367-0.579-0.384
				c-0.161-0.007-0.188,0.008-0.194,0.144L286.626,175.378z"/>
			<path fill="#FFFFFF" d="M291.927,178.308c0.357,0.016,0.782,0.035,0.754,0.273l-0.093,0.736c-0.04,0.313-0.104,0.404-0.265,0.397
				l-2.991-0.136c-0.119-0.005-0.113-0.133-0.109-0.226l0.243-5.352c0.009-0.195,0.892-0.334,1.24-0.318
				c0.136,0.006,1.385,0.063,2.109,0.232c0.05,0.011,0.194,0.043,0.178,0.383l-0.038,0.85c-0.003,0.059-0.048,0.109-0.116,0.106
				l-1.869-0.085c-0.051-0.002-0.063,0.065-0.065,0.116l-0.03,0.663l0.595,0.027c0.119,0.005,0.201,0.077,0.196,0.179l-0.036,0.79
				c-0.004,0.085-0.04,0.126-0.1,0.123l-0.731-0.033c-0.034-0.002-0.044,0.032-0.046,0.066l-0.047,1.036
				c-0.004,0.085,0.037,0.121,0.131,0.125L291.927,178.308z M291.151,173.276c0.008-0.178,0.16-0.708,0.23-0.764
				c0.035-0.032,0.224-0.058,0.377-0.051c0.119,0.005,0.212,0.035,0.209,0.086c-0.006,0.127-0.574,0.817-0.769,0.808
				C291.164,173.353,291.148,173.335,291.151,173.276z"/>
			<path fill="#FFFFFF" d="M293.197,179.269l0.033-0.722c0.013-0.297,0.075-0.346,0.204-0.365c0.471-0.064,2.039,0.271,2.074-0.485
				c0.039-0.866-2.047-0.476-1.972-2.141c0.059-1.309,1.362-1.684,2.534-1.631c0.264,0.012,0.526,0.041,0.762,0.094
				c0.286,0.064,0.352,0.11,0.34,0.39l-0.023,0.518c-0.01,0.229-0.015,0.34-0.344,0.266c-0.27-0.064-0.498-0.091-0.694-0.1
				c-0.612-0.028-0.893,0.172-0.909,0.529c-0.043,0.952,1.874,0.528,1.784,2.516c-0.066,1.461-1.1,1.729-2.17,1.681
				c-0.467-0.021-0.94-0.102-1.337-0.171C293.242,179.603,293.184,179.549,293.197,179.269z"/>
			<path fill="#FFFFFF" d="M297.664,179.956c-0.153-0.007-0.187-0.008-0.183-0.094l0.249-5.497c0.009-0.195,0.951-0.323,1.707-0.289
				c0.11,0.005,0.145,0.007,0.137,0.185l-0.258,5.684c-0.004,0.085-0.055,0.083-0.234,0.075L297.664,179.956z"/>
			<path fill="#FFFFFF" d="M302.236,180.163c-2.013-0.091-2.073-0.094-2.064-0.289c0.013-0.102,0.122-1.008,0.191-2.529
				c0.073-1.606,0.051-2.816,0.053-2.866c0.007-0.153,0.696-0.334,1.368-0.304c1.359,0.062,2.653,1.576,2.587,3.02
				C304.292,178.937,303.374,180.215,302.236,180.163z M302.723,177.121c0.032-0.714-0.307-1.308-0.774-1.329
				c-0.187-0.008-0.301,0.08-0.31,0.275l-0.105,2.328c-0.005,0.119,0.077,0.174,0.247,0.181
				C302.332,178.601,302.681,178.047,302.723,177.121z"/>
			<path fill="#FFFFFF" d="M307.288,179.005c0.357,0.016,0.782,0.035,0.754,0.273l-0.093,0.736c-0.04,0.313-0.104,0.404-0.265,0.397
				l-2.991-0.136c-0.119-0.005-0.113-0.133-0.109-0.226l0.243-5.352c0.009-0.195,0.892-0.334,1.24-0.318
				c0.136,0.006,1.385,0.063,2.109,0.232c0.05,0.011,0.194,0.043,0.178,0.383l-0.038,0.85c-0.003,0.059-0.048,0.109-0.116,0.106
				l-1.869-0.085c-0.051-0.002-0.063,0.065-0.065,0.116l-0.03,0.663l0.595,0.027c0.119,0.005,0.201,0.077,0.196,0.179l-0.036,0.79
				c-0.004,0.085-0.04,0.126-0.099,0.123l-0.731-0.033c-0.034-0.002-0.044,0.032-0.046,0.066l-0.047,1.036
				c-0.004,0.085,0.037,0.121,0.131,0.125L307.288,179.005z"/>
			<path fill="#FFFFFF" d="M312.978,174.878l-0.254,5.599c-0.006,0.136-0.041,0.16-0.143,0.155l-0.883-0.04
				c-0.102-0.005-0.127-0.014-0.222-0.172c-0.032-0.052-1.393-2.14-1.436-2.142c-0.034-0.002-0.103,1.519-0.127,2.063
				c-0.007,0.144-0.05,0.168-0.135,0.164l-1.02-0.046c-0.093-0.004-0.134-0.049-0.131-0.117l0.245-5.412
				c0.005-0.119,0.656-0.396,0.877-0.386c0.051,0.002,0.11,0.022,0.133,0.066c0.023,0.052,1.525,2.989,1.576,2.992
				c0.043,0.002,0.197-1.915,0.237-2.782c0.007-0.145,0.068-0.184,0.178-0.179l0.96,0.044
				C312.96,174.69,312.983,174.751,312.978,174.878z"/>
			<path fill="#FFFFFF" d="M318.502,174.941c0.17,0.008,0.282,0.166,0.272,0.378l-0.036,0.79c-0.016,0.357-0.079,0.43-0.376,0.417
				l-1.444-0.065c-0.102-0.005-0.112,0.029-0.115,0.106c-0.066,1.461-0.065,2.747-0.06,4.135c0.003,0.119-0.074,0.116-0.175,0.111
				l-1.385-0.063c-0.102-0.005-0.178-0.017-0.164-0.127c0.139-1.382,0.248-2.662,0.314-4.123c0.003-0.068-0.003-0.111-0.122-0.116
				l-1.478-0.067c-0.297-0.013-0.3-0.15-0.285-0.473l0.035-0.782c0.01-0.229,0.109-0.344,0.288-0.336L318.502,174.941z"/>
		</g>
	</g>
</g>
<g>
</g>
<g>
</g>
<g>
</g>
<g>
</g>
<g>
</g>
<g>
</g>
</svg>
