<?xml version="1.0" encoding="iso-8859-1"?>
<!-- Generator: Adobe Illustrator 26.0.3, SVG Export Plug-In . SVG Version: 6.00 Build 0)  -->
<svg version="1.1" id="Calque_1" xmlns="http://www.w3.org/2000/svg" xmlns:xlink="http://www.w3.org/1999/xlink" x="0px" y="0px"
	 width="317.147px" height="124.807px" viewBox="0 0 317.147 124.807" enable-background="new 0 0 317.147 124.807"
	 xml:space="preserve">
<g>
	<path fill="#5B00F5" d="M297.339,99.807H25.955c-10.07,0-18.308-8.239-18.308-18.308v-61.69C7.647,9.739,15.886,1.5,25.955,1.5
		h271.383c10.07,0,18.308,8.239,18.308,18.308v61.69C315.647,91.568,307.408,99.807,297.339,99.807z"/>
	<path fill="none" stroke="#00F6E1" stroke-width="3" stroke-miterlimit="10" d="M297.339,99.807H25.955
		c-10.07,0-18.308-8.239-18.308-18.308v-61.69C7.647,9.739,15.886,1.5,25.955,1.5h271.383c10.07,0,18.308,8.239,18.308,18.308v61.69
		C315.647,91.568,307.408,99.807,297.339,99.807z"/>
</g>
<path fill-rule="evenodd" clip-rule="evenodd" fill="#00F6E1" d="M166.675,110.227c0,0.95,0.138,1.58,0.138,1.58v1
	c0,6.6-6.791,12-15.091,12H29.738c-8.3,0-15.091-5.4-15.091-12v-1c0-6.6,6.791-12,15.091-12h121.985c2.125,0,4.163,0.36,4.741,1
	h24.183C169.455,100.807,166.688,107.177,166.675,110.227z"/>
<g>
	<path fill="#FFFFFF" d="M54.741,110.547c-0.056,0-0.084,0.014-0.084,0.098v3.922c0,0.182-0.126,0.182-0.224,0.182h-1.821
		c-0.098,0-0.238-0.014-0.238-0.182c0.098-2.633,0.098-4.076,0.098-5.141c0-1.261,0-2.494-0.098-3.754
		c-0.014-0.182,0.98-0.729,2.143-0.729c2.451,0,3.726,0.868,3.726,2.535C58.243,109.245,56.8,110.547,54.741,110.547z
		 M56.142,107.368c0-0.603-0.785-0.659-1.107-0.659c-0.336,0-0.378,0.056-0.378,0.266v1.527c0,0.07,0.014,0.126,0.14,0.126
		C55.246,108.629,56.142,108.012,56.142,107.368z"/>
	<path fill="#FFFFFF" d="M65.145,114.568c0,0.182-0.196,0.182-0.294,0.182h-2.073c-0.098,0-0.196-0.056-0.224-0.126l-0.841-1.821
		c-0.112-0.238-0.196-0.364-0.252-0.364c-0.07,0-0.098,0.126-0.098,0.364v1.765c0,0.182-0.182,0.182-0.28,0.182h-1.765
		c-0.098,0-0.238,0-0.238-0.182c0-0.658,0.112-2.255,0.112-4.258c0-1.989-0.084-4.749-0.084-4.847c0-0.35,1.205-0.518,2.27-0.518
		c1.765,0,3.025,0.995,3.025,2.591c0,1.681-1.387,2.311-1.933,2.311c-0.126,0-0.112,0.042,0.014,0.224
		C62.792,110.533,65.145,114.161,65.145,114.568z M61.279,108.04c0,0.084,0.042,0.112,0.168,0.112c0.588,0,1.121-0.574,1.121-1.106
		c0-0.42-0.35-0.588-0.98-0.588c-0.266,0-0.308,0.028-0.308,0.252V108.04z"/>
	<path fill="#FFFFFF" d="M70.212,112.466c0.588,0,1.289,0,1.26,0.392l-0.098,1.219c-0.042,0.518-0.14,0.672-0.406,0.672h-4.931
		c-0.196,0-0.196-0.21-0.196-0.364v-8.825c0-0.322,1.443-0.616,2.017-0.616c0.224,0,2.283,0,3.488,0.224
		c0.084,0.014,0.322,0.056,0.322,0.616v1.401c0,0.098-0.07,0.182-0.182,0.182h-3.082c-0.084,0-0.098,0.112-0.098,0.196v1.093h0.98
		c0.196,0,0.336,0.112,0.336,0.28v1.303c0,0.14-0.056,0.21-0.154,0.21h-1.205c-0.056,0-0.07,0.056-0.07,0.112v1.709
		c0,0.14,0.07,0.196,0.224,0.196H70.212z"/>
	<path fill="#FFFFFF" d="M81.092,105.225v9.231c0,0.21-0.126,0.294-0.294,0.294h-1.527c-0.252,0-0.364-0.07-0.364-0.252
		c0-1.121-0.308-3.404-0.448-3.404c-0.154,0-0.994,2.353-1.176,2.353h-0.812c-0.182,0-1.051-2.353-1.191-2.353
		s-0.448,2.283-0.448,3.404c0,0.182-0.014,0.252-0.182,0.252h-1.751c-0.168,0-0.252-0.084-0.252-0.294v-8.839
		c0-0.308,1.541-0.672,1.891-0.672c0.14,0,0.196,0,0.294,0.238c0.028,0.056,1.863,4.413,2.045,4.413
		c0.168,0,1.975-4.202,2.073-4.455c0.07-0.196,0.21-0.196,0.309-0.196h1.442C80.854,104.944,81.092,104.944,81.092,105.225z"/>
	<path fill="#FFFFFF" d="M82.585,114.75c-0.252,0-0.309,0-0.309-0.14v-9.063c0-0.322,1.541-0.602,2.788-0.602
		c0.182,0,0.238,0,0.238,0.294v9.371c0,0.14-0.084,0.14-0.378,0.14H82.585z"/>
	<path fill="#FFFFFF" d="M90.861,112.466c0.588,0,1.289,0,1.26,0.392l-0.098,1.219c-0.042,0.518-0.14,0.672-0.406,0.672h-4.931
		c-0.196,0-0.196-0.21-0.196-0.364v-8.825c0-0.322,1.443-0.616,2.017-0.616c0.224,0,2.283,0,3.488,0.224
		c0.084,0.014,0.322,0.056,0.322,0.616v1.401c0,0.098-0.07,0.182-0.182,0.182h-3.082c-0.084,0-0.098,0.112-0.098,0.196v1.093h0.98
		c0.196,0,0.336,0.112,0.336,0.28v1.303c0,0.14-0.056,0.21-0.154,0.21h-1.205c-0.056,0-0.07,0.056-0.07,0.112v1.709
		c0,0.14,0.07,0.196,0.224,0.196H90.861z"/>
	<path fill="#FFFFFF" d="M99.36,114.568c0,0.182-0.196,0.182-0.294,0.182h-2.073c-0.098,0-0.196-0.056-0.224-0.126l-0.841-1.821
		c-0.112-0.238-0.196-0.364-0.252-0.364c-0.07,0-0.098,0.126-0.098,0.364v1.765c0,0.182-0.182,0.182-0.28,0.182h-1.765
		c-0.098,0-0.238,0-0.238-0.182c0-0.658,0.112-2.255,0.112-4.258c0-1.989-0.084-4.749-0.084-4.847c0-0.35,1.205-0.518,2.27-0.518
		c1.765,0,3.025,0.995,3.025,2.591c0,1.681-1.387,2.311-1.933,2.311c-0.126,0-0.112,0.042,0.014,0.224
		C97.006,110.533,99.36,114.161,99.36,114.568z M95.494,108.04c0,0.084,0.042,0.112,0.168,0.112c0.588,0,1.121-0.574,1.121-1.106
		c0-0.42-0.35-0.588-0.98-0.588c-0.266,0-0.308,0.028-0.308,0.252V108.04z"/>
	<path fill="#FFFFFF" d="M112.143,105.225v9.231c0,0.21-0.126,0.294-0.294,0.294h-1.527c-0.252,0-0.364-0.07-0.364-0.252
		c0-1.121-0.308-3.404-0.448-3.404c-0.154,0-0.994,2.353-1.176,2.353h-0.812c-0.182,0-1.051-2.353-1.191-2.353
		s-0.448,2.283-0.448,3.404c0,0.182-0.014,0.252-0.182,0.252h-1.751c-0.168,0-0.252-0.084-0.252-0.294v-8.839
		c0-0.308,1.541-0.672,1.891-0.672c0.14,0,0.196,0,0.294,0.238c0.028,0.056,1.863,4.413,2.045,4.413
		c0.168,0,1.975-4.202,2.073-4.455c0.07-0.196,0.21-0.196,0.309-0.196h1.442C111.905,104.944,112.143,104.944,112.143,105.225z"/>
	<path fill="#FFFFFF" d="M113.636,114.75c-0.252,0-0.308,0-0.308-0.14v-9.063c0-0.322,1.541-0.602,2.788-0.602
		c0.182,0,0.238,0,0.238,0.294v9.371c0,0.14-0.084,0.14-0.378,0.14H113.636z"/>
	<path fill="#FFFFFF" d="M124.154,105.253v9.231c0,0.224-0.056,0.266-0.224,0.266h-1.457c-0.168,0-0.21-0.014-0.378-0.266
		c-0.056-0.084-2.451-3.418-2.521-3.418c-0.056,0-0.056,2.507-0.056,3.404c0,0.238-0.07,0.28-0.21,0.28h-1.681
		c-0.154,0-0.224-0.07-0.224-0.182v-8.923c0-0.196,1.051-0.7,1.415-0.7c0.084,0,0.182,0.028,0.224,0.098
		c0.042,0.084,2.731,4.804,2.815,4.804c0.07,0,0.182-3.166,0.182-4.594c0-0.238,0.098-0.308,0.28-0.308h1.583
		C124.112,104.944,124.154,105.043,124.154,105.253z"/>
	<path fill="#FFFFFF" d="M125.508,114.75c-0.252,0-0.309,0-0.309-0.14v-9.063c0-0.322,1.541-0.602,2.788-0.602
		c0.182,0,0.238,0,0.238,0.294v9.371c0,0.14-0.084,0.14-0.378,0.14H125.508z"/>
	<path fill="#FFFFFF" d="M129.133,113.951v-1.191c0-0.49,0.098-0.574,0.308-0.616c0.771-0.14,3.376,0.294,3.376-0.953
		c0-1.429-3.404-0.63-3.404-3.375c0-2.157,2.115-2.872,4.048-2.872c0.434,0,0.868,0.028,1.261,0.098
		c0.476,0.084,0.588,0.154,0.588,0.616v0.854c0,0.378,0,0.56-0.546,0.462c-0.448-0.084-0.827-0.112-1.149-0.112
		c-1.008,0-1.457,0.35-1.457,0.938c0,1.569,3.124,0.729,3.124,4.006c0,2.409-1.681,2.927-3.446,2.927
		c-0.771,0-1.555-0.098-2.213-0.182C129.231,114.498,129.133,114.413,129.133,113.951z"/>
	<path fill="#FFFFFF" d="M144.258,104.944c0.28,0,0.476,0.252,0.476,0.602v1.303c0,0.588-0.098,0.714-0.588,0.714h-2.381
		c-0.168,0-0.182,0.056-0.182,0.182c0,2.41,0.098,4.524,0.21,6.808c0.014,0.196-0.112,0.196-0.28,0.196h-2.283
		c-0.168,0-0.294-0.014-0.28-0.196c0.126-2.283,0.21-4.398,0.21-6.808c0-0.112-0.014-0.182-0.21-0.182h-2.437
		c-0.49,0-0.504-0.224-0.504-0.756v-1.289c0-0.378,0.154-0.574,0.448-0.574H144.258z"/>
	<path fill="#FFFFFF" d="M151.775,114.568c0,0.182-0.196,0.182-0.294,0.182h-2.073c-0.098,0-0.196-0.056-0.224-0.126l-0.841-1.821
		c-0.112-0.238-0.196-0.364-0.252-0.364c-0.07,0-0.098,0.126-0.098,0.364v1.765c0,0.182-0.182,0.182-0.28,0.182h-1.765
		c-0.098,0-0.238,0-0.238-0.182c0-0.658,0.112-2.255,0.112-4.258c0-1.989-0.084-4.749-0.084-4.847c0-0.35,1.205-0.518,2.27-0.518
		c1.765,0,3.025,0.995,3.025,2.591c0,1.681-1.387,2.311-1.933,2.311c-0.126,0-0.112,0.042,0.014,0.224
		C149.421,110.533,151.775,114.161,151.775,114.568z M147.909,108.04c0,0.084,0.042,0.112,0.168,0.112
		c0.588,0,1.121-0.574,1.121-1.106c0-0.42-0.35-0.588-0.98-0.588c-0.266,0-0.308,0.028-0.308,0.252V108.04z"/>
	<path fill="#FFFFFF" d="M156.842,112.466c0.588,0,1.289,0,1.26,0.392l-0.098,1.219c-0.042,0.518-0.14,0.672-0.406,0.672h-4.931
		c-0.196,0-0.196-0.21-0.196-0.364v-8.825c0-0.322,1.443-0.616,2.017-0.616c0.224,0,2.283,0,3.488,0.224
		c0.084,0.014,0.322,0.056,0.322,0.616v1.401c0,0.098-0.07,0.182-0.182,0.182h-3.082c-0.084,0-0.098,0.112-0.098,0.196v1.093h0.98
		c0.196,0,0.336,0.112,0.336,0.28v1.303c0,0.14-0.056,0.21-0.154,0.21h-1.205c-0.056,0-0.07,0.056-0.07,0.112v1.709
		c0,0.14,0.07,0.196,0.224,0.196H156.842z"/>
</g>
<g>
	<g>
		<g>
			<ellipse fill="#E74366" cx="26.751" cy="105.006" rx="19.113" ry="16.799"/>
			<path fill="#E74366" d="M10.555,113.93C6.69,113.93,3,110.843,3,106.978c0-3.864,3.133-6.997,6.997-6.997"/>
			<ellipse fill="#BF3A5B" cx="7.626" cy="106.901" rx="1.379" ry="3.034"/>
			<path fill="#5B00F5" d="M9.496,97.772c0,0-4.596-6.387,8.182-14.198s23.959,3.877,28.185,6.694
				c4.225,2.817-4.626,3.645-4.626,3.645s-11.656-5.89-19.594-3.329S9.496,97.772,9.496,97.772z"/>
		</g>
		<ellipse fill="#B3B2FF" cx="36.973" cy="100.97" rx="5.523" ry="5.744"/>
		<polygon fill="#CFD1F9" points="33.659,96.993 41.171,104.505 42.496,102.425 35.532,95.702 		"/>
		
			<rect x="36.439" y="96.1" transform="matrix(0.7071 -0.7071 0.7071 0.7071 -60.9448 55.6904)" fill="#CFD1F9" width="0.625" height="10.623"/>
		<circle fill="none" stroke="#F5BD34" stroke-width="0.8838" stroke-miterlimit="10" cx="37.194" cy="100.97" r="5.523"/>
		<g>
			<path fill-rule="evenodd" clip-rule="evenodd" fill="#5B00F5" d="M37.731,110.949c-4.668,0.412-3.96-4.916-8.117-3.578
				c-3.079,0.991-0.53,7.296,6.385,5.317C37.795,112.174,39.562,110.788,37.731,110.949L37.731,110.949z M16.779,110.949
				c4.668,0.412,3.96-4.916,8.117-3.578c3.079,0.991,0.529,7.296-6.385,5.317C16.715,112.174,14.948,110.788,16.779,110.949
				L16.779,110.949z"/>
		</g>
	</g>
	<g>
		<g>
			<path fill="#00F6E1" d="M26.648,80.928c8.839,0,16.019,7.209,19.216,9.341c4.226,2.817-4.626,3.645-4.626,3.645
				s-0.113-0.057-0.319-0.155c3.064,2.979,4.945,6.916,4.945,11.248c0,9.278-8.557,16.799-19.113,16.799
				c-6.838,0-12.82-3.166-16.197-7.912l0.001,0.036C6.69,113.93,3,110.842,3,106.978c0-3.334,2.333-6.118,5.455-6.821
				c0.291-0.848,0.668-1.661,1.101-2.447c-0.037,0.039-0.059,0.063-0.059,0.063S4.9,91.385,17.678,83.575
				C20.789,81.673,23.804,80.928,26.648,80.928 M26.648,77.928c-3.638,0-7.182,1.039-10.534,3.087
				c-5.935,3.628-9.374,7.598-10.223,11.801c-0.415,2.057-0.113,3.748,0.291,4.921C2.472,99.252,0,102.846,0,106.978
				c0,4.904,3.996,9.117,9.021,9.842c4.167,5.026,10.682,7.986,17.73,7.986c12.193,0,22.113-8.882,22.113-19.799
				c0-3.195-0.859-6.303-2.476-9.091c1.62-0.617,3.079-1.63,3.506-3.317c0.262-1.039,0.304-3.047-2.365-4.826
				c-0.505-0.337-1.207-0.886-2.02-1.521C41.526,83.138,34.863,77.928,26.648,77.928L26.648,77.928z"/>
		</g>
	</g>
</g>
<g>
</g>
<g>
</g>
<g>
</g>
<g>
</g>
<g>
</g>
<g>
</g>
</svg>
