<?xml version="1.0" encoding="iso-8859-1"?>
<!-- Generator: Adobe Illustrator 26.0.3, SVG Export Plug-In . SVG Version: 6.00 Build 0)  -->
<svg version="1.1" id="Calque_1" xmlns="http://www.w3.org/2000/svg" xmlns:xlink="http://www.w3.org/1999/xlink" x="0px" y="0px"
	 width="319.364px" height="92.5px" viewBox="0 0 319.364 92.5" enable-background="new 0 0 319.364 92.5" xml:space="preserve">
<g>
	<g>
		<path fill="#5B00F5" d="M291.206,66.897H36.522c-14.662,0-26.658-11.996-26.658-26.658V28.158C9.864,13.496,21.86,1.5,36.522,1.5
			h254.684c14.662,0,26.658,11.996,26.658,26.658v12.081C317.864,54.901,305.868,66.897,291.206,66.897z"/>
		<path fill="none" stroke="#00F6E1" stroke-width="3" stroke-miterlimit="10" d="M291.206,66.897H36.522
			c-14.662,0-26.658-11.996-26.658-26.658V28.158C9.864,13.496,21.86,1.5,36.522,1.5h254.684c14.662,0,26.658,11.996,26.658,26.658
			v12.081C317.864,54.901,305.868,66.897,291.206,66.897z"/>
	</g>
	<path fill-rule="evenodd" clip-rule="evenodd" fill="#00F6E1" d="M190.041,77.92c0,0.95,0.157,1.58,0.157,1.58v1
		c0,6.6-7.691,12-17.091,12H34.955c-9.4,0-17.091-5.4-17.091-12v-1c0-6.6,7.691-12,17.091-12h138.152c2.407,0,4.714,0.36,5.369,1
		h28.388C194.189,68.5,190.055,74.87,190.041,77.92z"/>
	<g>
		<g>
			<ellipse fill="#E74366" cx="27.268" cy="71.427" rx="19.528" ry="17.165"/>
			<path fill="#E74366" d="M10.719,80.545C6.771,80.545,3,77.391,3,73.442s3.201-7.149,7.149-7.149"/>
			<ellipse fill="#BF3A5B" cx="7.726" cy="73.364" rx="1.409" ry="3.101"/>
			<path fill="#BF3A5B" d="M32.694,81.632c0,0-9.498,2.899-14.696-2.899"/>
			<path fill="#1E166F" d="M45.287,59.554c1.768,1.073,3.157,2.095,3.699,2.902c2.044,3.065-2.044,6.131-7.152,3.065
				s-2.881-6.263-13.702-5.17c-1.594,0.245-3.178,0.593-4.69,1.083c-8.113,2.616-14.305,8.174-14.305,8.174s-7.949-9.39,5.109-17.37
				s33.483,0.184,37.805,3.065C55.014,57.276,49.22,58.798,45.287,59.554z"/>
		</g>
		<g>
			<path fill="#00F6E1" d="M27.887,48.833c10.581,0,21.189,4.487,24.164,6.471c2.963,1.972-2.83,3.494-6.764,4.251
				c1.768,1.073,3.157,2.095,3.699,2.902c1.424,2.136-0.132,4.265-2.933,4.327c0.472,1.479,0.743,3.033,0.743,4.644
				c0,9.48-8.743,17.165-19.529,17.165c-6.986,0-13.099-3.235-16.55-8.084l0.001,0.036C6.771,80.545,3,77.391,3,73.442
				c0-3.022,1.877-5.6,4.528-6.647c-1.365-3.387-1.919-9.279,6.718-14.557C18.314,49.752,23.098,48.833,27.887,48.833
				 M27.887,45.833c-5.914,0-11.03,1.294-15.206,3.846C9.325,51.73,2.267,57.123,3.972,65.387C1.498,67.271,0,70.212,0,73.442
				c0,4.987,4.071,9.269,9.186,9.995c4.245,5.132,10.891,8.155,18.081,8.155c12.422,0,22.529-9.046,22.529-20.165
				c0-0.848-0.063-1.701-0.188-2.554c0.997-0.56,1.798-1.361,2.315-2.354c0.894-1.717,0.773-3.769-0.316-5.533
				c2.592-0.993,3.85-2.208,4.184-3.867c0.156-0.777,0.267-2.753-2.078-4.314C50.437,50.622,39.384,45.833,27.887,45.833
				L27.887,45.833z"/>
		</g>
	</g>
	<g>
		<path fill="#FFFFFF" d="M54.979,83.445v-1.191c0-0.49,0.098-0.574,0.308-0.616c0.771-0.14,3.376,0.294,3.376-0.953
			c0-1.429-3.404-0.63-3.404-3.375c0-2.157,2.115-2.872,4.048-2.872c0.434,0,0.868,0.028,1.261,0.098
			c0.476,0.084,0.588,0.154,0.588,0.616v0.854c0,0.378,0,0.56-0.546,0.462c-0.448-0.084-0.827-0.112-1.149-0.112
			c-1.008,0-1.457,0.35-1.457,0.938c0,1.569,3.124,0.729,3.124,4.006c0,2.409-1.681,2.927-3.446,2.927
			c-0.771,0-1.555-0.098-2.213-0.182C55.078,83.992,54.979,83.907,54.979,83.445z"/>
		<path fill="#FFFFFF" d="M66.224,81.96c0.588,0,1.289,0,1.26,0.392l-0.098,1.219c-0.042,0.518-0.14,0.672-0.406,0.672H62.05
			c-0.196,0-0.196-0.21-0.196-0.364v-8.825c0-0.322,1.443-0.616,2.017-0.616c0.224,0,2.283,0,3.488,0.224
			c0.084,0.014,0.322,0.056,0.322,0.616v1.401c0,0.098-0.07,0.182-0.182,0.182h-3.082c-0.084,0-0.098,0.112-0.098,0.196v1.093h0.98
			c0.196,0,0.336,0.112,0.336,0.28v1.303c0,0.14-0.056,0.21-0.154,0.21h-1.205c-0.056,0-0.07,0.056-0.07,0.112v1.709
			c0,0.14,0.07,0.196,0.224,0.196H66.224z"/>
		<path fill="#FFFFFF" d="M73.672,83.641c0,0.603-0.785,0.603-1.205,0.603c-2.704,0-4.511-1.947-4.511-4.833
			c0-2.956,1.891-4.959,4.721-4.959c0.603,0,0.995,0.238,0.995,0.617v1.471c0,0.168-0.112,0.224-0.504,0.224
			c-1.485,0-2.815,0.826-2.815,2.451c0,1.751,1.569,2.718,2.886,2.718c0.322,0,0.434,0.056,0.434,0.224V83.641z"/>
		<path fill="#FFFFFF" d="M80.715,84.062c0,0.182-0.196,0.182-0.294,0.182h-2.073c-0.098,0-0.196-0.056-0.224-0.126l-0.841-1.821
			c-0.112-0.238-0.196-0.364-0.252-0.364c-0.07,0-0.098,0.126-0.098,0.364v1.765c0,0.182-0.182,0.182-0.28,0.182h-1.765
			c-0.098,0-0.238,0-0.238-0.182c0-0.658,0.112-2.255,0.112-4.258c0-1.989-0.084-4.749-0.084-4.847c0-0.35,1.205-0.518,2.27-0.518
			c1.765,0,3.025,0.995,3.025,2.591c0,1.681-1.387,2.311-1.933,2.311c-0.126,0-0.112,0.042,0.014,0.224
			C78.361,80.027,80.715,83.655,80.715,84.062z M76.849,77.534c0,0.084,0.042,0.112,0.168,0.112c0.588,0,1.121-0.574,1.121-1.106
			c0-0.42-0.35-0.588-0.98-0.588c-0.266,0-0.308,0.028-0.308,0.252V77.534z"/>
		<path fill="#FFFFFF" d="M85.782,81.96c0.588,0,1.289,0,1.26,0.392l-0.098,1.219c-0.042,0.518-0.14,0.672-0.406,0.672h-4.931
			c-0.196,0-0.196-0.21-0.196-0.364v-8.825c0-0.322,1.443-0.616,2.017-0.616c0.224,0,2.283,0,3.488,0.224
			c0.084,0.014,0.322,0.056,0.322,0.616v1.401c0,0.098-0.07,0.182-0.182,0.182h-3.082c-0.084,0-0.098,0.112-0.098,0.196v1.093h0.98
			c0.196,0,0.336,0.112,0.336,0.28v1.303c0,0.14-0.056,0.21-0.154,0.21h-1.205c-0.056,0-0.07,0.056-0.07,0.112v1.709
			c0,0.14,0.07,0.196,0.224,0.196H85.782z M84.128,73.738c0-0.294,0.21-1.176,0.322-1.274c0.056-0.056,0.364-0.112,0.617-0.112
			c0.196,0,0.35,0.042,0.35,0.126c0,0.21-0.883,1.387-1.205,1.387C84.157,73.864,84.128,73.836,84.128,73.738z"/>
		<path fill="#FFFFFF" d="M96.465,74.438c0.28,0,0.476,0.252,0.476,0.602v1.303c0,0.588-0.098,0.714-0.588,0.714h-2.381
			c-0.168,0-0.182,0.056-0.182,0.182c0,2.41,0.098,4.524,0.21,6.808c0.014,0.196-0.112,0.196-0.28,0.196h-2.283
			c-0.168,0-0.294-0.014-0.28-0.196c0.126-2.283,0.21-4.398,0.21-6.808c0-0.112-0.014-0.182-0.21-0.182h-2.437
			c-0.49,0-0.504-0.224-0.504-0.756v-1.289c0-0.378,0.154-0.574,0.448-0.574H96.465z"/>
		<path fill="#FFFFFF" d="M97.415,84.244h-1.947c-0.21,0-0.322-0.028-0.238-0.224l3.516-8.853c0.14-0.294,1.401-0.729,1.961-0.729
			c0.154,0,0.252,0.028,0.28,0.098l3.278,9.525c0.014,0.056-0.056,0.182-0.294,0.182h-1.877c-0.238,0-0.406-0.154-0.434-0.224
			c-0.056-0.14-0.406-1.863-0.603-1.877l-2.451-0.126c-0.378-0.014-0.827,1.751-0.924,2.031
			C97.625,84.188,97.555,84.244,97.415,84.244z M99.361,79.621c-0.098,0.196-0.07,0.266,0.182,0.266h0.869
			c0.084,0,0.224-0.056,0.14-0.322l-0.266-0.924c-0.056-0.21-0.098-0.322-0.154-0.322s-0.126,0.112-0.238,0.322L99.361,79.621z"/>
		<path fill="#FFFFFF" d="M105.071,84.244c-0.252,0-0.309,0-0.309-0.14v-9.063c0-0.322,1.541-0.602,2.788-0.602
			c0.182,0,0.238,0,0.238,0.294v9.371c0,0.14-0.084,0.14-0.378,0.14H105.071z"/>
		<path fill="#FFFFFF" d="M115.042,84.062c0,0.182-0.196,0.182-0.294,0.182h-2.073c-0.098,0-0.196-0.056-0.224-0.126l-0.841-1.821
			c-0.112-0.238-0.196-0.364-0.252-0.364c-0.07,0-0.098,0.126-0.098,0.364v1.765c0,0.182-0.182,0.182-0.28,0.182h-1.765
			c-0.098,0-0.238,0-0.238-0.182c0-0.658,0.112-2.255,0.112-4.258c0-1.989-0.084-4.749-0.084-4.847c0-0.35,1.205-0.518,2.27-0.518
			c1.765,0,3.025,0.995,3.025,2.591c0,1.681-1.387,2.311-1.933,2.311c-0.126,0-0.112,0.042,0.014,0.224
			C112.688,80.027,115.042,83.655,115.042,84.062z M111.176,77.534c0,0.084,0.042,0.112,0.168,0.112
			c0.588,0,1.121-0.574,1.121-1.106c0-0.42-0.35-0.588-0.98-0.588c-0.266,0-0.308,0.028-0.308,0.252V77.534z"/>
		<path fill="#FFFFFF" d="M120.109,81.96c0.588,0,1.289,0,1.26,0.392l-0.098,1.219c-0.042,0.518-0.14,0.672-0.406,0.672h-4.931
			c-0.196,0-0.196-0.21-0.196-0.364v-8.825c0-0.322,1.443-0.616,2.017-0.616c0.224,0,2.283,0,3.488,0.224
			c0.084,0.014,0.322,0.056,0.322,0.616v1.401c0,0.098-0.07,0.182-0.182,0.182h-3.082c-0.084,0-0.098,0.112-0.098,0.196v1.093h0.98
			c0.196,0,0.336,0.112,0.336,0.28v1.303c0,0.14-0.056,0.21-0.154,0.21h-1.205c-0.056,0-0.07,0.056-0.07,0.112v1.709
			c0,0.14,0.07,0.196,0.224,0.196H120.109z"/>
		<path fill="#FFFFFF" d="M133.103,79.859c0,1.205-0.322,4.384-3.334,4.384c-2.325,0-3.726-2.059-3.726-5.099
			c0-2.647,2.045-4.707,4.132-4.707c0.322,0,1.779,0,1.779,0.434v1.779c0,0.309-0.56,0.196-1.807,0.196
			c-0.995,0-1.737,0.729-1.737,2.311c0,1.723,0.883,2.592,1.527,2.592c0.574,0,1.163-0.617,1.233-1.219
			c0.028-0.168,0.028-0.49-0.14-0.49l-0.924,0.042c-0.294,0-0.336-0.266-0.336-1.191c0-0.196,0.056-0.42,0.35-0.434l2.536-0.126
			C132.977,78.318,133.103,78.823,133.103,79.859z"/>
		<path fill="#FFFFFF" d="M138.309,81.96c0.588,0,1.289,0,1.26,0.392l-0.098,1.219c-0.042,0.518-0.14,0.672-0.406,0.672h-4.931
			c-0.196,0-0.196-0.21-0.196-0.364v-8.825c0-0.322,1.443-0.616,2.017-0.616c0.224,0,2.283,0,3.488,0.224
			c0.084,0.014,0.322,0.056,0.322,0.616v1.401c0,0.098-0.07,0.182-0.182,0.182h-3.082c-0.084,0-0.098,0.112-0.098,0.196v1.093h0.98
			c0.196,0,0.336,0.112,0.336,0.28v1.303c0,0.14-0.056,0.21-0.154,0.21h-1.205c-0.056,0-0.07,0.056-0.07,0.112v1.709
			c0,0.14,0.07,0.196,0.224,0.196H138.309z M136.656,73.738c0-0.294,0.21-1.176,0.322-1.274c0.056-0.056,0.364-0.112,0.617-0.112
			c0.196,0,0.35,0.042,0.35,0.126c0,0.21-0.883,1.387-1.205,1.387C136.684,73.864,136.656,73.836,136.656,73.738z"/>
		<path fill="#FFFFFF" d="M147.354,74.747v9.231c0,0.224-0.056,0.266-0.224,0.266h-1.457c-0.168,0-0.21-0.014-0.378-0.266
			c-0.056-0.084-2.452-3.418-2.521-3.418c-0.056,0-0.056,2.507-0.056,3.404c0,0.238-0.07,0.28-0.21,0.28h-1.681
			c-0.154,0-0.224-0.07-0.224-0.182v-8.923c0-0.196,1.051-0.7,1.415-0.7c0.084,0,0.182,0.028,0.224,0.098
			c0.042,0.084,2.731,4.804,2.815,4.804c0.07,0,0.182-3.166,0.182-4.594c0-0.238,0.098-0.308,0.28-0.308h1.583
			C147.312,74.438,147.354,74.537,147.354,74.747z"/>
		<path fill="#FFFFFF" d="M152.56,81.96c0.588,0,1.289,0,1.26,0.392l-0.098,1.219c-0.042,0.518-0.14,0.672-0.406,0.672h-4.931
			c-0.196,0-0.196-0.21-0.196-0.364v-8.825c0-0.322,1.443-0.616,2.017-0.616c0.224,0,2.283,0,3.488,0.224
			c0.084,0.014,0.322,0.056,0.322,0.616v1.401c0,0.098-0.07,0.182-0.182,0.182h-3.082c-0.084,0-0.098,0.112-0.098,0.196v1.093h0.98
			c0.196,0,0.336,0.112,0.336,0.28v1.303c0,0.14-0.056,0.21-0.154,0.21h-1.205c-0.056,0-0.07,0.056-0.07,0.112v1.709
			c0,0.14,0.07,0.196,0.224,0.196H152.56z M150.907,73.738c0-0.294,0.21-1.176,0.322-1.274c0.056-0.056,0.364-0.112,0.617-0.112
			c0.196,0,0.35,0.042,0.35,0.126c0,0.21-0.883,1.387-1.205,1.387C150.935,73.864,150.907,73.836,150.907,73.738z"/>
		<path fill="#FFFFFF" d="M161.059,84.062c0,0.182-0.196,0.182-0.294,0.182h-2.073c-0.098,0-0.196-0.056-0.224-0.126l-0.841-1.821
			c-0.112-0.238-0.196-0.364-0.252-0.364c-0.07,0-0.098,0.126-0.098,0.364v1.765c0,0.182-0.182,0.182-0.28,0.182h-1.765
			c-0.098,0-0.238,0-0.238-0.182c0-0.658,0.112-2.255,0.112-4.258c0-1.989-0.084-4.749-0.084-4.847c0-0.35,1.205-0.518,2.27-0.518
			c1.765,0,3.025,0.995,3.025,2.591c0,1.681-1.387,2.311-1.933,2.311c-0.126,0-0.112,0.042,0.014,0.224
			C158.705,80.027,161.059,83.655,161.059,84.062z M157.192,77.534c0,0.084,0.042,0.112,0.168,0.112
			c0.588,0,1.121-0.574,1.121-1.106c0-0.42-0.35-0.588-0.98-0.588c-0.266,0-0.308,0.028-0.308,0.252V77.534z"/>
		<path fill="#FFFFFF" d="M163.702,84.244h-1.947c-0.21,0-0.322-0.028-0.238-0.224l3.516-8.853c0.14-0.294,1.401-0.729,1.961-0.729
			c0.154,0,0.252,0.028,0.28,0.098l3.278,9.525c0.014,0.056-0.056,0.182-0.294,0.182h-1.877c-0.238,0-0.406-0.154-0.434-0.224
			c-0.056-0.14-0.406-1.863-0.603-1.877l-2.451-0.126c-0.378-0.014-0.826,1.751-0.924,2.031
			C163.912,84.188,163.842,84.244,163.702,84.244z M165.649,79.621c-0.098,0.196-0.07,0.266,0.182,0.266h0.869
			c0.084,0,0.224-0.056,0.14-0.322l-0.266-0.924c-0.056-0.21-0.098-0.322-0.154-0.322s-0.126,0.112-0.238,0.322L165.649,79.621z"/>
		<path fill="#FFFFFF" d="M171.121,75.041c0-0.252,1.331-0.602,2.549-0.602c0.098,0,0.21,0,0.21,0.112
			c0,0.224-0.42,4.707-0.42,5.687c0,0.435-0.084,0.98,0.252,0.98c0.519,0,2.788-0.35,3.124-0.35c0.154,0,0.21,0.056,0.21,0.238
			l-0.112,2.956c0,0.182-0.196,0.182-0.392,0.182h-5.197c-0.098,0-0.224,0-0.224-0.182V75.041z"/>
	</g>
	<polygon fill-rule="evenodd" clip-rule="evenodd" fill="#00F6E1" points="175.691,66.897 182.379,72.351 191.864,70.5 
		201.864,68.5 206.864,68.5 211.864,67.5 193.864,66.5 	"/>
</g>
</svg>
