<?xml version="1.0" encoding="iso-8859-1"?>
<!-- Generator: Adobe Illustrator 26.0.3, SVG Export Plug-In . SVG Version: 6.00 Build 0)  -->
<svg version="1.1" id="Calque_1" xmlns="http://www.w3.org/2000/svg" xmlns:xlink="http://www.w3.org/1999/xlink" x="0px" y="0px"
	 width="319.363px" height="107.806px" viewBox="0 0 319.363 107.806" enable-background="new 0 0 319.363 107.806"
	 xml:space="preserve">
<g>
	<path fill="#5B00F5" d="M299.555,83.806H28.172c-10.07,0-18.308-8.239-18.308-18.308v-45.69C9.864,9.738,18.103,1.5,28.172,1.5
		h271.383c10.07,0,18.308,8.239,18.308,18.308v45.69C317.864,75.567,309.625,83.806,299.555,83.806z"/>
	<path fill="none" stroke="#00F6E1" stroke-width="3" stroke-miterlimit="10" d="M299.555,83.806H28.172
		c-10.07,0-18.308-8.239-18.308-18.308v-45.69C9.864,9.738,18.103,1.5,28.172,1.5h271.383c10.07,0,18.308,8.239,18.308,18.308v45.69
		C317.864,75.567,309.625,83.806,299.555,83.806z"/>
</g>
<path fill-rule="evenodd" clip-rule="evenodd" fill="#00F6E1" d="M190.041,93.226c0,0.95,0.157,1.58,0.157,1.58v1
	c0,6.6-7.691,12-17.091,12H34.955c-9.4,0-17.091-5.4-17.091-12v-1c0-6.6,7.691-12,17.091-12h138.152c2.407,0,4.714,0.36,5.369,1
	h27.388C193.188,83.806,190.055,90.176,190.041,93.226z"/>
<g>
	<path fill="#FFFFFF" d="M61.276,96.742c0,2.002-1.279,2.808-4.406,2.808h-1.654c-0.111,0-0.181-0.111-0.181-0.278
		c0,0,0.07-3.197,0.07-5.074c0-2.529-0.125-3.572-0.125-3.711c0-0.361,0.82-0.667,1.835-0.667c1.821,0,3.114,0.987,3.114,2.391
		c0,1.46-1.39,1.46-1.39,1.46S61.276,93.823,61.276,96.742z M57.092,92.614c0,0.111,0.084,0.167,0.25,0.167
		c0.403,0,0.723-0.251,0.723-0.556c0-0.278-0.306-0.487-0.723-0.487c-0.167,0-0.25,0.055-0.25,0.153V92.614z M57.092,97.048
		c0,0.139,0.042,0.152,0.334,0.152c0.723,0,1.043-0.167,1.056-0.542c0.014-0.403-0.361-0.584-1.181-0.584
		c-0.153,0-0.208,0.042-0.208,0.181C57.092,96.255,57.092,96.95,57.092,97.048z"/>
	<path fill="#FFFFFF" d="M66.307,97.284c0.584,0,1.279,0,1.251,0.389l-0.097,1.209c-0.042,0.514-0.139,0.667-0.403,0.667h-4.893
		c-0.195,0-0.195-0.208-0.195-0.361v-8.757c0-0.32,1.431-0.612,2.002-0.612c0.222,0,2.266,0,3.461,0.222
		c0.083,0.014,0.319,0.056,0.319,0.612v1.39c0,0.098-0.069,0.181-0.181,0.181h-3.058c-0.084,0-0.097,0.111-0.097,0.194v1.084h0.973
		c0.194,0,0.334,0.111,0.334,0.278v1.293c0,0.139-0.056,0.208-0.153,0.208h-1.196c-0.055,0-0.069,0.056-0.069,0.111v1.696
		c0,0.139,0.069,0.195,0.222,0.195L66.307,97.284L66.307,97.284z"/>
	<path fill="#FFFFFF" d="M74.744,99.369c0,0.181-0.195,0.181-0.292,0.181h-2.057c-0.097,0-0.195-0.055-0.222-0.125l-0.834-1.807
		c-0.111-0.236-0.194-0.361-0.25-0.361c-0.069,0-0.097,0.125-0.097,0.361v1.751c0,0.181-0.181,0.181-0.278,0.181h-1.751
		c-0.098,0-0.236,0-0.236-0.181c0-0.654,0.111-2.238,0.111-4.226c0-1.974-0.084-4.712-0.084-4.809c0-0.348,1.196-0.515,2.252-0.515
		c1.751,0,3.002,0.987,3.002,2.572c0,1.668-1.376,2.293-1.918,2.293c-0.125,0-0.111,0.042,0.014,0.222
		C72.408,95.366,74.744,98.966,74.744,99.369z M70.908,92.892c0,0.083,0.042,0.111,0.167,0.111c0.584,0,1.112-0.57,1.112-1.098
		c0-0.417-0.347-0.584-0.973-0.584c-0.264,0-0.306,0.028-0.306,0.25V92.892z"/>
	<path fill="#FFFFFF" d="M81.999,90.126v9.16c0,0.222-0.056,0.264-0.222,0.264h-1.446c-0.167,0-0.209-0.014-0.375-0.264
		c-0.056-0.084-2.432-3.391-2.502-3.391c-0.055,0-0.055,2.488-0.055,3.378c0,0.236-0.069,0.278-0.208,0.278h-1.668
		c-0.153,0-0.222-0.069-0.222-0.181v-8.854c0-0.195,1.042-0.695,1.404-0.695c0.083,0,0.181,0.028,0.222,0.098
		c0.042,0.084,2.711,4.767,2.794,4.767c0.07,0,0.181-3.141,0.181-4.559c0-0.236,0.098-0.306,0.278-0.306h1.571
		C81.957,89.82,81.999,89.917,81.999,90.126z"/>
	<path fill="#FFFFFF" d="M84.765,99.55h-1.932c-0.209,0-0.319-0.028-0.236-0.222l3.489-8.785c0.139-0.292,1.39-0.723,1.946-0.723
		c0.152,0,0.25,0.028,0.278,0.098l3.252,9.452c0.014,0.055-0.055,0.181-0.292,0.181h-1.862c-0.236,0-0.404-0.153-0.431-0.222
		c-0.055-0.139-0.403-1.849-0.598-1.863l-2.432-0.125c-0.375-0.014-0.82,1.737-0.917,2.015C84.973,99.494,84.904,99.55,84.765,99.55
		z M86.697,94.963c-0.098,0.194-0.07,0.264,0.181,0.264h0.861c0.084,0,0.222-0.056,0.139-0.32l-0.264-0.917
		c-0.056-0.208-0.098-0.319-0.153-0.319s-0.125,0.111-0.236,0.319L86.697,94.963z"/>
	<path fill="#FFFFFF" d="M98.289,99.369c0,0.181-0.195,0.181-0.292,0.181H95.94c-0.097,0-0.195-0.055-0.222-0.125l-0.834-1.807
		c-0.111-0.236-0.194-0.361-0.25-0.361c-0.069,0-0.097,0.125-0.097,0.361v1.751c0,0.181-0.181,0.181-0.278,0.181h-1.752
		c-0.098,0-0.236,0-0.236-0.181c0-0.654,0.111-2.238,0.111-4.226c0-1.974-0.084-4.712-0.084-4.809c0-0.348,1.196-0.515,2.252-0.515
		c1.751,0,3.002,0.987,3.002,2.572c0,1.668-1.376,2.293-1.918,2.293c-0.125,0-0.111,0.042,0.014,0.222
		C95.953,95.366,98.289,98.966,98.289,99.369z M94.452,92.892c0,0.083,0.042,0.111,0.167,0.111c0.584,0,1.112-0.57,1.112-1.098
		c0-0.417-0.347-0.584-0.973-0.584c-0.264,0-0.306,0.028-0.306,0.25V92.892z"/>
	<path fill="#FFFFFF" d="M102.583,99.55c-3.294,0-3.392,0-3.392-0.319c0.014-0.167,0.125-1.654,0.125-4.143
		c0-2.627-0.125-4.601-0.125-4.684c0-0.25,1.112-0.598,2.21-0.598c2.224,0,4.448,2.377,4.448,4.74
		C105.85,97.395,104.446,99.55,102.583,99.55z M103.153,94.546c0-1.168-0.598-2.113-1.362-2.113c-0.306,0-0.487,0.153-0.487,0.472
		v3.808c0,0.195,0.139,0.278,0.417,0.278C102.625,96.992,103.153,96.061,103.153,94.546z"/>
	<path fill="#FFFFFF" d="M110.158,90.417c0-0.25,1.32-0.598,2.529-0.598c0.098,0,0.209,0,0.209,0.112
		c0,0.222-0.417,4.67-0.417,5.643c0,0.431-0.084,0.973,0.25,0.973c0.514,0,2.766-0.348,3.1-0.348c0.152,0,0.208,0.056,0.208,0.236
		l-0.111,2.933c0,0.181-0.195,0.181-0.389,0.181h-5.156c-0.098,0-0.222,0-0.222-0.181L110.158,90.417L110.158,90.417z"/>
	<path fill="#FFFFFF" d="M121.208,97.284c0.584,0,1.279,0,1.251,0.389l-0.097,1.209c-0.042,0.514-0.139,0.667-0.403,0.667h-4.893
		c-0.195,0-0.195-0.208-0.195-0.361v-8.757c0-0.32,1.431-0.612,2.002-0.612c0.222,0,2.266,0,3.461,0.222
		c0.083,0.014,0.319,0.056,0.319,0.612v1.39c0,0.098-0.069,0.181-0.181,0.181h-3.058c-0.084,0-0.097,0.111-0.097,0.194v1.084h0.973
		c0.194,0,0.334,0.111,0.334,0.278v1.293c0,0.139-0.056,0.208-0.153,0.208h-1.196c-0.055,0-0.069,0.056-0.069,0.111v1.696
		c0,0.139,0.069,0.195,0.222,0.195L121.208,97.284L121.208,97.284z"/>
	<path fill="#FFFFFF" d="M135.426,89.82c0.278,0,0.472,0.251,0.472,0.598v1.293c0,0.584-0.097,0.708-0.584,0.708h-2.363
		c-0.167,0-0.181,0.056-0.181,0.181c0,2.39,0.097,4.489,0.208,6.755c0.014,0.195-0.111,0.195-0.278,0.195h-2.265
		c-0.167,0-0.292-0.014-0.278-0.195c0.125-2.266,0.209-4.364,0.209-6.755c0-0.112-0.014-0.181-0.209-0.181h-2.419
		c-0.486,0-0.5-0.222-0.5-0.75V90.39c0-0.375,0.153-0.57,0.445-0.57H135.426z"/>
	<path fill="#FFFFFF" d="M136.371,99.55h-1.932c-0.209,0-0.319-0.028-0.236-0.222l3.489-8.785c0.139-0.292,1.39-0.723,1.946-0.723
		c0.152,0,0.25,0.028,0.278,0.098l3.252,9.452c0.014,0.055-0.055,0.181-0.292,0.181h-1.862c-0.236,0-0.404-0.153-0.431-0.222
		c-0.055-0.139-0.403-1.849-0.598-1.863l-2.432-0.125c-0.375-0.014-0.82,1.737-0.917,2.015
		C136.58,99.494,136.51,99.55,136.371,99.55z M138.303,94.963c-0.098,0.194-0.07,0.264,0.181,0.264h0.861
		c0.084,0,0.222-0.056,0.139-0.32l-0.264-0.917c-0.056-0.208-0.098-0.319-0.153-0.319c-0.055,0-0.125,0.111-0.236,0.319
		L138.303,94.963z"/>
	<path fill="#FFFFFF" d="M142.973,95.241v-5.017c0-0.404,0.639-0.404,1.028-0.404c0.514,0,1.181,0.098,1.181,0.362v5.143
		c0,1.46,0.528,1.724,1.112,1.724s1.196-0.264,1.196-1.724V90.21c0-0.292,0.319-0.389,1.043-0.389c0.458,0,1.167,0,1.167,0.251
		v5.282c0,3.656-1.376,4.198-3.364,4.198C144.349,99.55,142.973,98.73,142.973,95.241z"/>
	<path fill="#FFFFFF" d="M150.395,90.417c0-0.25,1.32-0.598,2.529-0.598c0.098,0,0.209,0,0.209,0.112
		c0,0.222-0.417,4.67-0.417,5.643c0,0.431-0.084,0.973,0.25,0.973c0.514,0,2.766-0.348,3.1-0.348c0.153,0,0.208,0.056,0.208,0.236
		l-0.111,2.933c0,0.181-0.195,0.181-0.389,0.181h-5.157c-0.098,0-0.222,0-0.222-0.181V90.417z"/>
	<path fill="#FFFFFF" d="M159.041,99.55h-1.932c-0.208,0-0.32-0.028-0.236-0.222l3.489-8.785c0.139-0.292,1.39-0.723,1.946-0.723
		c0.153,0,0.25,0.028,0.278,0.098l3.252,9.452c0.014,0.055-0.055,0.181-0.292,0.181h-1.863c-0.236,0-0.403-0.153-0.431-0.222
		c-0.055-0.139-0.403-1.849-0.598-1.863l-2.432-0.125c-0.375-0.014-0.82,1.737-0.917,2.015
		C159.249,99.494,159.179,99.55,159.041,99.55z M160.973,94.963c-0.098,0.194-0.069,0.264,0.181,0.264h0.862
		c0.083,0,0.222-0.056,0.139-0.32l-0.264-0.917c-0.056-0.208-0.097-0.319-0.153-0.319s-0.125,0.111-0.236,0.319L160.973,94.963z"/>
	<path fill="#FFFFFF" d="M172.564,99.369c0,0.181-0.194,0.181-0.292,0.181h-2.057c-0.098,0-0.195-0.055-0.222-0.125l-0.834-1.807
		c-0.111-0.236-0.194-0.361-0.25-0.361c-0.069,0-0.097,0.125-0.097,0.361v1.751c0,0.181-0.181,0.181-0.278,0.181h-1.751
		c-0.097,0-0.236,0-0.236-0.181c0-0.654,0.111-2.238,0.111-4.226c0-1.974-0.084-4.712-0.084-4.809c0-0.348,1.196-0.515,2.252-0.515
		c1.751,0,3.002,0.987,3.002,2.572c0,1.668-1.376,2.293-1.918,2.293c-0.125,0-0.111,0.042,0.014,0.222
		C170.229,95.366,172.564,98.966,172.564,99.369z M168.728,92.892c0,0.083,0.042,0.111,0.167,0.111c0.584,0,1.112-0.57,1.112-1.098
		c0-0.417-0.348-0.584-0.973-0.584c-0.264,0-0.306,0.028-0.306,0.25V92.892z"/>
	<path fill="#FFFFFF" d="M176.859,99.55c-3.294,0-3.392,0-3.392-0.319c0.014-0.167,0.125-1.654,0.125-4.143
		c0-2.627-0.125-4.601-0.125-4.684c0-0.25,1.112-0.598,2.21-0.598c2.224,0,4.448,2.377,4.448,4.74
		C180.125,97.395,178.721,99.55,176.859,99.55z M177.428,94.546c0-1.168-0.597-2.113-1.362-2.113c-0.306,0-0.487,0.153-0.487,0.472
		v3.808c0,0.195,0.139,0.278,0.417,0.278C176.901,96.992,177.428,96.061,177.428,94.546z"/>
</g>
<g>
	<path fill="#E54466" d="M34.841,97.781l-14.997-3.59C19.844,94.19,29.734,91.602,34.841,97.781z"/>
	<path fill="#E54466" d="M48.088,86.225c0,4.876-2.243,9.285-5.871,12.479l-0.003-0.003c-0.081-0.159-2.724-5.065-12.412-6.92
		c-0.382-0.074-0.778-0.142-1.184-0.206c-10.828-1.692-17.673,4.04-17.673,4.04c-1.019-1.425-1.814-2.988-2.338-4.653
		c-0.477-1.506-0.731-3.096-0.731-4.737c0-0.403,0.014-0.799,0.047-1.194c0.102-1.35,0.376-2.66,0.805-3.908
		c2.49-7.272,10.172-12.567,19.253-12.567C39.087,68.555,48.088,76.466,48.088,86.225z"/>
	<path fill="#E54466" d="M29.802,91.781c-0.382-0.074-0.778-0.142-1.184-0.206c-10.828-1.692-17.673,4.04-17.673,4.04
		C6.881,95.615,3,92.367,3,88.299c0-3.506,2.446-6.436,5.729-7.177C9.253,81,9.798,80.939,10.36,80.939L29.802,91.781z"/>
	<path fill="#918C8D" d="M42.214,98.701c-0.081-0.159-2.724-5.065-12.412-6.92c-0.382-0.074-0.778-0.142-1.184-0.206
		c-10.828-1.692-17.673,4.04-17.673,4.04c3.56,4.977,9.86,8.283,17.037,8.283c5.563,0,10.594-1.983,14.235-5.194L42.214,98.701z
		 M19.844,94.19c0,0,9.891-2.589,14.997,3.59L19.844,94.19z"/>
	<ellipse fill="#BD3B5B" cx="7.864" cy="88.22" rx="1.451" ry="3.192"/>
	<path fill="#BD3B5B" d="M34.841,97.781l-14.997-3.59C19.844,94.19,29.734,91.602,34.841,97.781z"/>
	<path fill="#FFFFFF" d="M42.83,66.874"/>
	<rect x="11.259" y="74.149" width="33.601" height="2.199"/>
	<rect x="11.259" y="69.75" width="33.601" height="2.199"/>
	<path d="M44.86,67.55L44.86,67.55H11.259l0,0c0-1.215,0.985-2.199,2.199-2.199H42.66C43.875,65.351,44.86,66.336,44.86,67.55z"/>
	<rect x="11.259" y="71.949" fill="#FFFFFF" width="33.601" height="2.199"/>
	<rect x="11.259" y="67.55" fill="#FFFFFF" width="33.499" height="2.199"/>
	<g>
		<path fill="#00F6E1" d="M42.66,65.351c1.215,0,2.199,0.985,2.199,2.199h-0.102v2.199h0.102v2.199v2.199v2.199h-0.204
			c2.167,2.82,3.432,6.219,3.432,9.877c0,4.876-2.243,9.285-5.871,12.479c-3.641,3.211-8.673,5.194-14.235,5.194
			c-7.177,0-13.478-3.306-17.037-8.283c-4.064,0-7.945-3.248-7.945-7.316c0-3.506,2.447-6.436,5.729-7.177
			c0.588-1.718,1.475-3.321,2.594-4.774h-0.063v-2.199v-2.199V69.75v-2.2c0-1.215,0.985-2.199,2.199-2.199H42.66 M42.66,62.351
			H13.459c-2.867,0-5.199,2.332-5.199,5.199v2.199v2.199v2.199v1.313c-0.71,1.037-1.313,2.119-1.803,3.236
			C2.584,80.253,0,83.994,0,88.298c0,5.094,4.159,9.467,9.385,10.206c4.351,5.28,11.193,8.393,18.598,8.393
			c6.113,0,11.874-2.111,16.22-5.944c4.44-3.91,6.886-9.141,6.886-14.729c0-3.747-1.112-7.367-3.228-10.552v-1.525v-2.199V70.55v-3
			v-0.8h-0.062C47.412,64.261,45.255,62.351,42.66,62.351L42.66,62.351z"/>
	</g>
</g>
</svg>
