<?xml version="1.0" encoding="iso-8859-1"?>
<!-- Generator: Adobe Illustrator 26.0.3, SVG Export Plug-In . SVG Version: 6.00 Build 0)  -->
<svg version="1.1" id="Calque_1" xmlns="http://www.w3.org/2000/svg" xmlns:xlink="http://www.w3.org/1999/xlink" x="0px" y="0px"
	 width="317.147px" height="101.5px" viewBox="0 0 317.147 101.5" enable-background="new 0 0 317.147 101.5" xml:space="preserve">
<g>
	<path fill="#5B00F5" d="M288.989,75.897H34.305c-14.662,0-26.658-11.996-26.658-26.658V28.158C7.647,13.496,19.643,1.5,34.305,1.5
		h254.684c14.662,0,26.658,11.996,26.658,26.658v21.081C315.647,63.901,303.651,75.897,288.989,75.897z"/>
	<path fill="none" stroke="#00F6E1" stroke-width="3" stroke-miterlimit="10" d="M288.989,75.897H34.305
		c-14.662,0-26.658-11.996-26.658-26.658V28.158C7.647,13.496,19.643,1.5,34.305,1.5h254.684c14.662,0,26.658,11.996,26.658,26.658
		v21.081C315.647,63.901,303.651,75.897,288.989,75.897z"/>
</g>
<g>
	<g>
		<g>
			<path fill-rule="evenodd" clip-rule="evenodd" fill="#00F6E1" d="M92.369,86.92c0,0.95,0.157,1.58,0.157,1.58v1
				c0,6.6-7.691,12-17.091,12H25.283c-9.4,0-17.091-5.4-17.091-12v-1c0-6.6,7.691-12,17.091-12h50.152c2.407,0,4.714,0.36,5.369,1
				h28.388C96.516,77.5,92.383,83.87,92.369,86.92z"/>
			<polygon fill-rule="evenodd" clip-rule="evenodd" fill="#00F6E1" points="78.018,75.897 84.707,81.351 94.192,79.5 104.192,77.5 
				109.192,77.5 114.192,76.5 96.192,75.5 			"/>
		</g>
		<g>
			<path fill="#FFFFFF" d="M53.918,83.604v9.41c0,0.214-0.129,0.3-0.3,0.3h-1.556c-0.257,0-0.372-0.071-0.372-0.257
				c0-1.142-0.314-3.47-0.457-3.47c-0.157,0-1.014,2.399-1.199,2.399h-0.829c-0.186,0-1.07-2.399-1.214-2.399
				c-0.143,0-0.457,2.328-0.457,3.47c0,0.186-0.014,0.257-0.186,0.257h-1.785c-0.171,0-0.257-0.086-0.257-0.3v-9.01
				c0-0.314,1.571-0.685,1.928-0.685c0.143,0,0.2,0,0.3,0.242c0.029,0.057,1.899,4.498,2.085,4.498c0.171,0,2.013-4.284,2.113-4.541
				c0.071-0.2,0.214-0.2,0.314-0.2h1.471C53.675,83.319,53.918,83.319,53.918,83.604z"/>
			<path fill="#FFFFFF" d="M61.928,88.117c0,4.012-0.971,5.383-3.384,5.383c-2.599,0-3.627-1.599-3.627-5.397
				c0-3.498,1.057-4.955,3.356-4.955C60.729,83.147,61.928,84.833,61.928,88.117z M58.487,91.116c0.885,0,1.057-0.414,1.057-3.199
				c0-1.814-0.171-2.556-1.156-2.556c-1,0-1.086,0.742-1.086,2.528C57.302,90.601,57.502,91.116,58.487,91.116z"/>
			<path fill="#FFFFFF" d="M62.799,88.888v-5.155c0-0.414,0.656-0.414,1.057-0.414c0.528,0,1.214,0.1,1.214,0.371v5.283
				c0,1.5,0.543,1.77,1.142,1.77s1.228-0.271,1.228-1.77v-5.255c0-0.3,0.328-0.4,1.071-0.4c0.471,0,1.199,0,1.199,0.257v5.426
				c0,3.756-1.414,4.313-3.455,4.313C64.213,93.314,62.799,92.472,62.799,88.888z"/>
			<path fill="#FFFFFF" d="M71.838,93.314h-1.985c-0.214,0-0.329-0.028-0.243-0.228l3.584-9.025c0.143-0.3,1.428-0.742,1.999-0.742
				c0.157,0,0.257,0.028,0.285,0.1l3.341,9.71c0.014,0.057-0.057,0.186-0.3,0.186h-1.914c-0.242,0-0.414-0.157-0.442-0.228
				c-0.057-0.143-0.414-1.899-0.614-1.914l-2.499-0.128c-0.386-0.014-0.843,1.785-0.942,2.07
				C72.052,93.257,71.981,93.314,71.838,93.314z M73.823,88.602c-0.1,0.2-0.071,0.271,0.186,0.271h0.885
				c0.085,0,0.228-0.057,0.143-0.329l-0.271-0.942c-0.057-0.214-0.1-0.328-0.157-0.328c-0.057,0-0.129,0.114-0.243,0.328
				L73.823,88.602z"/>
		</g>
	</g>
	<g>
		<g>
			<path fill="#5B00F5" d="M3,85.706c0,6.923,5.608,12.536,12.532,12.536s12.536-5.612,12.536-12.536
				c0-2.143-0.538-4.156-1.484-5.919l-1.189-1.813v-0.004L13.483,59.764L4.558,79.65l-0.84,1.872L3.71,81.538
				C3.251,82.841,3,84.246,3,85.706z"/>
			<path fill="#3A00B0" d="M6.363,94.257c16.863,0.962,20.123-13.597,19.699-15.253c0.175-0.047,6.134,9.113-2.809,16.572
				c0,0-7.502,6.184-15.639-0.145L6.363,94.257z"/>
			<path fill="#D9A42F" d="M13.553,61.005c-0.049,0-0.099-0.009-0.148-0.029c-0.201-0.082-0.297-0.311-0.216-0.511l3.723-9.163
				c0.082-0.201,0.31-0.298,0.511-0.216c0.201,0.082,0.297,0.311,0.216,0.511l-3.723,9.163
				C13.855,60.913,13.708,61.005,13.553,61.005z"/>
			
				<path fill="none" stroke="#1D1D1B" stroke-width="0.3925" stroke-linecap="round" stroke-linejoin="round" stroke-miterlimit="10" d="
				M13.384,61.487"/>
			<circle fill="#FCF7F1" cx="16.386" cy="71.896" r="0.745"/>
			<circle fill="#FCF7F1" cx="13.384" cy="71.896" r="0.745"/>
			<path fill="#F5BD34" d="M13.59,61.005c-0.012,0-0.023-0.001-0.035-0.002c-0.216-0.019-0.375-0.21-0.356-0.426l1.398-15.72
				c0.019-0.216,0.208-0.374,0.426-0.356c0.216,0.019,0.375,0.21,0.356,0.426l-1.398,15.72
				C13.963,60.851,13.792,61.005,13.59,61.005z"/>
			<path fill="#D9A42F" d="M13.589,61.005c-0.198,0-0.368-0.149-0.39-0.351l-1.401-13.039c-0.023-0.216,0.133-0.409,0.348-0.432
				c0.214-0.024,0.409,0.133,0.432,0.348l1.401,13.039c0.023,0.216-0.133,0.409-0.348,0.432
				C13.618,61.004,13.603,61.005,13.589,61.005z"/>
			<path fill="#F5BD34" d="M13.59,61.005c-0.153,0-0.298-0.09-0.362-0.24L7.937,48.252c-0.084-0.2,0.009-0.43,0.209-0.514
				c0.2-0.084,0.43,0.009,0.515,0.208l5.292,12.513c0.084,0.2-0.009,0.43-0.209,0.514C13.693,60.995,13.641,61.005,13.59,61.005z"/>
			<ellipse fill="#E95833" cx="18.936" cy="73.76" rx="1.943" ry="0.979"/>
			<ellipse fill="#E95833" cx="11.04" cy="73.76" rx="1.943" ry="0.979"/>
			
				<path fill="none" stroke="#F5BD34" stroke-width="0.7849" stroke-linecap="round" stroke-linejoin="round" stroke-miterlimit="10" d="
				M8.298,53.604"/>
		</g>
		<g>
			<path fill="#00F6E1" d="M14.989,44.5c0.011,0,0.022,0,0.034,0.001c0.216,0.019,0.375,0.21,0.356,0.426l-1.156,12.995l2.69-6.62
				c0.062-0.152,0.209-0.245,0.364-0.245c0.049,0,0.099,0.009,0.148,0.029c0.201,0.082,0.298,0.311,0.216,0.511l-3.64,8.957
				l11.394,17.416v0.004l0.681,1.038c0.277,0.157,4.838,7.358-0.461,14.142c-0.064,0.086-0.131,0.171-0.197,0.255
				c-0.01,0.012-0.019,0.025-0.029,0.037c-1.863,2.368-4.559,4.048-7.648,4.597c-0.73,0.145-1.513,0.233-2.339,0.233
				c-1.579,0-3.313-0.323-5.12-1.188c-0.124-0.057-0.247-0.117-0.369-0.178c-0.018-0.009-0.035-0.018-0.053-0.027
				c-0.75-0.382-1.457-0.836-2.11-1.355c-0.045-0.035-0.09-0.064-0.136-0.099l-0.048-0.045c-0.4-0.329-0.776-0.686-1.132-1.061
				l-0.071-0.067c0.003,0,0.005,0,0.008,0C4.281,92.017,3,89.012,3,85.706c0-1.46,0.251-2.865,0.71-4.168l0.008-0.016l0.84-1.872
				l8.576-19.109L7.937,48.252c-0.084-0.2,0.009-0.43,0.209-0.514c0.05-0.021,0.102-0.031,0.153-0.031
				c0.153,0,0.298,0.09,0.362,0.24l4.256,10.064l-1.117-10.395c-0.023-0.216,0.133-0.409,0.348-0.432
				c0.014-0.002,0.029-0.002,0.043-0.002c0.197,0,0.368,0.15,0.389,0.351l0.974,9.065l1.044-11.739
				C14.615,44.653,14.786,44.5,14.989,44.5 M14.989,41.5c-1.644,0-3.015,1.147-3.327,2.722c-0.673,0.104-1.293,0.407-1.789,0.872
				c-0.476-0.249-1.013-0.386-1.575-0.386c-0.455,0-0.899,0.09-1.318,0.267c-1.725,0.729-2.535,2.723-1.807,4.446l4.689,11.087
				l-8.04,17.916l-0.831,1.851c-0.04,0.088-0.079,0.181-0.11,0.268C0.296,82.2,0,83.937,0,85.706c0,3.876,1.431,7.575,4.033,10.441
				c0.085,0.105,0.178,0.205,0.279,0.299l0.009,0.008c0.408,0.426,0.831,0.823,1.261,1.182c0.061,0.056,0.125,0.11,0.19,0.161
				c0.055,0.042,0.109,0.082,0.163,0.121c0.798,0.628,1.661,1.18,2.566,1.64c0.004,0.002,0.06,0.031,0.064,0.033
				c0.151,0.076,0.304,0.15,0.458,0.221c2.017,0.966,4.176,1.465,6.379,1.465c0.959,0,1.933-0.096,2.894-0.285
				c3.737-0.672,7.093-2.693,9.451-5.691c0.009-0.012,0.019-0.024,0.027-0.035c0.003-0.003,0.005-0.006,0.008-0.01
				c0.089-0.114,0.156-0.2,0.219-0.283c3.457-4.445,3.466-8.997,2.863-12.036c-0.316-1.596-1.16-4.146-2.31-5.617l-0.59-0.9
				c-0.019-0.031-0.038-0.062-0.058-0.093l-10.533-16.1l3.048-7.501c0.341-0.839,0.335-1.762-0.017-2.596
				c-0.353-0.835-1.009-1.483-1.849-1.824c-0.147-0.06-0.297-0.109-0.45-0.147l0.264-2.966c0.081-0.902-0.195-1.782-0.777-2.477
				c-0.582-0.695-1.399-1.122-2.303-1.203C15.2,41.505,15.077,41.5,14.989,41.5L14.989,41.5z"/>
		</g>
	</g>
</g>
<g>
</g>
<g>
</g>
<g>
</g>
<g>
</g>
<g>
</g>
<g>
</g>
</svg>
