<svg id="Calque_2" data-name="Calque 2" xmlns="http://www.w3.org/2000/svg" viewBox="0 0 316.58 136.93"><defs><style>.cls-1{fill:#6b00ee;}.cls-10,.cls-2{fill:none;stroke-miterlimit:10;}.cls-2{stroke:#1be5b9;stroke-width:3.86px;}.cls-12,.cls-3{fill:#1be5b9;}.cls-11,.cls-3{fill-rule:evenodd;}.cls-4{fill:#fff;}.cls-5{fill:#e74366;}.cls-6{fill:#bf3a5b;}.cls-11,.cls-7{fill:#4e4bf6;}.cls-8{fill:#b3b2ff;}.cls-9{fill:#cfd1f9;}.cls-10{stroke:#f5bd34;stroke-width:0.88px;}</style></defs><rect class="cls-1" x="6.65" y="0.93" width="308" height="110" rx="26.66"/><rect class="cls-2" x="6.65" y="1.93" width="308" height="110" rx="26.66"/><path class="cls-3" d="M212.35,398.8a8.62,8.62,0,0,0,.13,1.58v1c0,6.6-6.79,12-15.09,12h-122c-8.3,0-15.09-5.4-15.09-12v-1c0-6.6,6.79-12,15.09-12h122c2.13,0,4.17.36,4.74,1h24.19C215.13,389.38,212.36,395.75,212.35,398.8Z" transform="translate(-45.67 -276.45)"/><path class="cls-4" d="M100.41,399.12s-.08,0-.08.1v3.92c0,.18-.13.18-.23.18H98.28c-.09,0-.23,0-.23-.18.09-2.64.09-4.08.09-5.14,0-1.26,0-2.5-.09-3.76,0-.18,1-.73,2.14-.73,2.45,0,3.72.87,3.72,2.54S102.47,399.12,100.41,399.12Zm1.4-3.18c0-.6-.78-.66-1.1-.66s-.38.06-.38.27v1.52c0,.07,0,.13.14.13C100.92,397.2,101.81,396.58,101.81,395.94Z" transform="translate(-45.67 -276.45)"/><path class="cls-4" d="M110.82,403.14c0,.18-.2.18-.3.18h-2.07a.26.26,0,0,1-.23-.13l-.84-1.82c-.11-.24-.19-.36-.25-.36s-.1.12-.1.36v1.77c0,.18-.18.18-.28.18H105c-.1,0-.24,0-.24-.18,0-.66.11-2.26.11-4.26s-.08-4.75-.08-4.85c0-.35,1.2-.52,2.27-.52,1.76,0,3,1,3,2.6a2.21,2.21,0,0,1-1.93,2.31c-.13,0-.11,0,0,.22A37.87,37.87,0,0,1,110.82,403.14ZM107,396.61c0,.08,0,.11.17.11a1.19,1.19,0,0,0,1.12-1.1c0-.42-.35-.59-1-.59-.27,0-.31,0-.31.25Z" transform="translate(-45.67 -276.45)"/><path class="cls-4" d="M115.88,401c.59,0,1.29,0,1.26.39l-.09,1.22c0,.52-.14.67-.41.67h-4.93c-.2,0-.2-.21-.2-.36v-8.83c0-.32,1.45-.62,2-.62a23.69,23.69,0,0,1,3.49.23c.08,0,.32.05.32.61v1.41a.18.18,0,0,1-.18.18h-3.08c-.09,0-.1.11-.1.19v1.1h1a.29.29,0,0,1,.33.28v1.3q0,.21-.15.21h-1.2c-.06,0-.07.06-.07.11v1.71c0,.14.07.2.22.2Z" transform="translate(-45.67 -276.45)"/><path class="cls-4" d="M126.76,393.79V403a.26.26,0,0,1-.29.29h-1.53c-.25,0-.36-.07-.36-.25a13.1,13.1,0,0,0-.45-3.41c-.15,0-1,2.36-1.18,2.36h-.81c-.18,0-1-2.36-1.19-2.36a13.1,13.1,0,0,0-.45,3.41c0,.18,0,.25-.18.25h-1.75c-.17,0-.25-.08-.25-.29v-8.84c0-.31,1.54-.68,1.89-.68.14,0,.19,0,.29.24a46.3,46.3,0,0,0,2,4.41c.16,0,2-4.2,2.07-4.45a.28.28,0,0,1,.31-.2h1.44C126.52,393.51,126.76,393.51,126.76,393.79Z" transform="translate(-45.67 -276.45)"/><path class="cls-4" d="M128.26,403.32c-.26,0-.31,0-.31-.14v-9.06c0-.33,1.54-.61,2.79-.61.18,0,.23,0,.23.3v9.37c0,.14-.08.14-.37.14Z" transform="translate(-45.67 -276.45)"/><path class="cls-4" d="M136.53,401c.59,0,1.29,0,1.26.39l-.09,1.22c0,.52-.15.67-.41.67h-4.93c-.2,0-.2-.21-.2-.36v-8.83c0-.32,1.44-.62,2-.62a23.69,23.69,0,0,1,3.49.23c.08,0,.32.05.32.61v1.41a.18.18,0,0,1-.18.18h-3.08c-.09,0-.1.11-.1.19v1.1h1a.29.29,0,0,1,.33.28v1.3q0,.21-.15.21h-1.2c-.06,0-.07.06-.07.11v1.71c0,.14.07.2.22.2Z" transform="translate(-45.67 -276.45)"/><path class="cls-4" d="M145,403.14c0,.18-.2.18-.29.18h-2.08a.26.26,0,0,1-.22-.13l-.84-1.82c-.11-.24-.2-.36-.25-.36s-.1.12-.1.36v1.77c0,.18-.18.18-.28.18H139.2c-.09,0-.23,0-.23-.18,0-.66.11-2.26.11-4.26S139,394.13,139,394c0-.35,1.21-.52,2.27-.52,1.77,0,3,1,3,2.6a2.22,2.22,0,0,1-1.93,2.31c-.13,0-.12,0,0,.22A37.74,37.74,0,0,1,145,403.14Zm-3.87-6.53c0,.08.05.11.17.11a1.19,1.19,0,0,0,1.12-1.1c0-.42-.35-.59-1-.59-.26,0-.31,0-.31.25Z" transform="translate(-45.67 -276.45)"/><path class="cls-4" d="M157.81,393.79V403a.26.26,0,0,1-.29.29H156c-.25,0-.36-.07-.36-.25a13.1,13.1,0,0,0-.45-3.41c-.15,0-1,2.36-1.18,2.36h-.81c-.18,0-1.05-2.36-1.19-2.36a13.1,13.1,0,0,0-.45,3.41c0,.18,0,.25-.18.25h-1.75c-.17,0-.25-.08-.25-.29v-8.84c0-.31,1.54-.68,1.89-.68.14,0,.19,0,.29.24,0,.06,1.87,4.41,2,4.41a47.52,47.52,0,0,0,2.07-4.45.28.28,0,0,1,.31-.2h1.44C157.58,393.51,157.81,393.51,157.81,393.79Z" transform="translate(-45.67 -276.45)"/><path class="cls-4" d="M159.31,403.32c-.25,0-.31,0-.31-.14v-9.06c0-.33,1.54-.61,2.79-.61.18,0,.24,0,.24.3v9.37c0,.14-.09.14-.38.14Z" transform="translate(-45.67 -276.45)"/><path class="cls-4" d="M169.82,393.82v9.23c0,.23,0,.27-.22.27h-1.46c-.16,0-.21,0-.37-.27-.06-.08-2.46-3.41-2.53-3.41s-.05,2.5-.05,3.4c0,.24-.07.28-.21.28H163.3c-.16,0-.23-.07-.23-.18v-8.93c0-.19,1.05-.7,1.42-.7a.26.26,0,0,1,.22.1c0,.09,2.73,4.81,2.82,4.81s.18-3.17.18-4.6c0-.24.1-.31.28-.31h1.58C169.78,393.51,169.82,393.61,169.82,393.82Z" transform="translate(-45.67 -276.45)"/><path class="cls-4" d="M171.18,403.32c-.25,0-.31,0-.31-.14v-9.06c0-.33,1.54-.61,2.79-.61.18,0,.24,0,.24.3v9.37c0,.14-.09.14-.38.14Z" transform="translate(-45.67 -276.45)"/><path class="cls-4" d="M174.8,402.52v-1.19c0-.49.1-.57.31-.62.77-.14,3.38.3,3.38-.95,0-1.43-3.41-.63-3.41-3.37,0-2.16,2.12-2.88,4-2.88a7.23,7.23,0,0,1,1.26.1c.48.09.59.16.59.62v.85c0,.38,0,.56-.54.47a5.83,5.83,0,0,0-1.15-.12c-1,0-1.46.35-1.46.94,0,1.57,3.12.73,3.12,4,0,2.41-1.68,2.93-3.44,2.93a16.71,16.71,0,0,1-2.22-.19C174.9,403.07,174.8,403,174.8,402.52Z" transform="translate(-45.67 -276.45)"/><path class="cls-4" d="M189.93,393.51c.28,0,.48.26.48.61v1.3c0,.59-.1.71-.59.71h-2.38c-.17,0-.19.06-.19.19,0,2.41.1,4.52.21,6.8,0,.2-.11.2-.28.2H184.9c-.17,0-.29,0-.28-.2.13-2.28.21-4.39.21-6.8,0-.12,0-.19-.21-.19h-2.44c-.49,0-.5-.22-.5-.75v-1.29c0-.38.15-.58.45-.58Z" transform="translate(-45.67 -276.45)"/><path class="cls-4" d="M197.45,403.14c0,.18-.2.18-.3.18h-2.07a.26.26,0,0,1-.23-.13l-.84-1.82c-.11-.24-.19-.36-.25-.36s-.1.12-.1.36v1.77c0,.18-.18.18-.28.18h-1.76c-.1,0-.24,0-.24-.18,0-.66.11-2.26.11-4.26s-.08-4.75-.08-4.85c0-.35,1.2-.52,2.27-.52,1.76,0,3,1,3,2.6a2.21,2.21,0,0,1-1.93,2.31c-.13,0-.11,0,0,.22A37.87,37.87,0,0,1,197.45,403.14Zm-3.87-6.53c0,.08,0,.11.17.11a1.19,1.19,0,0,0,1.12-1.1c0-.42-.35-.59-1-.59-.27,0-.31,0-.31.25Z" transform="translate(-45.67 -276.45)"/><path class="cls-4" d="M202.51,401c.59,0,1.29,0,1.26.39l-.09,1.22c-.05.52-.14.67-.41.67h-4.93c-.2,0-.2-.21-.2-.36v-8.83c0-.32,1.45-.62,2-.62a23.69,23.69,0,0,1,3.49.23c.08,0,.32.05.32.61v1.41a.18.18,0,0,1-.18.18h-3.08c-.09,0-.1.11-.1.19v1.1h1a.29.29,0,0,1,.33.28v1.3q0,.21-.15.21h-1.2c-.06,0-.07.06-.07.11v1.71c0,.14.07.2.22.2Z" transform="translate(-45.67 -276.45)"/><ellipse class="cls-5" cx="26.75" cy="117.13" rx="19.11" ry="16.8"/><path class="cls-5" d="M56.23,402.5c-3.87,0-7.56-3.09-7.56-6.95a7,7,0,0,1,7-7" transform="translate(-45.67 -276.45)"/><ellipse class="cls-6" cx="7.63" cy="119.02" rx="1.38" ry="3.03"/><path class="cls-7" d="M55.17,386.34s-4.6-6.38,8.18-14.2,24,3.88,28.18,6.7-4.62,3.64-4.62,3.64-11.66-5.89-19.6-3.33A30,30,0,0,0,55.17,386.34Z" transform="translate(-45.67 -276.45)"/><ellipse class="cls-8" cx="36.97" cy="113.09" rx="5.52" ry="5.74"/><polygon class="cls-9" points="33.66 109.12 41.17 116.63 42.5 114.55 35.53 107.83 33.66 109.12"/><rect class="cls-9" x="82.11" y="384.67" width="0.62" height="10.62" transform="translate(-297.29 -103.94) rotate(-45)"/><circle class="cls-10" cx="37.19" cy="113.09" r="5.52"/><path class="cls-11" d="M83.4,399.52c-4.67.41-4-4.92-8.11-3.58-3.08,1-.53,7.3,6.38,5.32,1.8-.52,3.56-1.9,1.73-1.74Zm-21,0c4.67.41,4-4.92,8.12-3.58,3.08,1,.53,7.3-6.39,5.32-1.79-.52-3.56-1.9-1.73-1.74Z" transform="translate(-45.67 -276.45)"/><path class="cls-12" d="M72.32,369.5c8.84,0,16,7.21,19.21,9.34,4.23,2.81-4.62,3.64-4.62,3.64l-.32-.15a15.66,15.66,0,0,1,4.94,11.25c0,9.27-8.55,16.8-19.11,16.8a19.78,19.78,0,0,1-16.2-7.92v0c-3.87,0-7.56-3.09-7.56-6.95a7,7,0,0,1,5.46-6.82,14.92,14.92,0,0,1,1.1-2.45l-.06.06s-4.6-6.38,8.18-14.2a16.92,16.92,0,0,1,9-2.64m0-3a20,20,0,0,0-10.53,3.08c-5.94,3.63-9.38,7.6-10.23,11.81a9.44,9.44,0,0,0,.29,4.92,9.92,9.92,0,0,0-6.18,9.24c0,4.9,4,9.11,9,9.84a22.92,22.92,0,0,0,17.73,8c12.19,0,22.11-8.89,22.11-19.8a18.09,18.09,0,0,0-2.47-9.09,5.14,5.14,0,0,0,3.5-3.32c.27-1,.31-3.05-2.36-4.83-.51-.33-1.21-.88-2-1.52-4-3.11-10.65-8.32-18.86-8.32Z" transform="translate(-45.67 -276.45)"/></svg>