<svg id="Calque_5" data-name="Calque 5" xmlns="http://www.w3.org/2000/svg" viewBox="0 0 317.15 102.81"><defs><style>.cls-1{fill:#6b00ee;}.cls-10,.cls-2{fill:none;stroke-miterlimit:10;}.cls-2{stroke:#1be5b9;stroke-width:3px;}.cls-12,.cls-3{fill:#1be5b9;}.cls-11,.cls-3{fill-rule:evenodd;}.cls-4{fill:#fff;}.cls-5{fill:#e74366;}.cls-6{fill:#bf3a5b;}.cls-11,.cls-7{fill:#4e4bf6;}.cls-8{fill:#b3b2ff;}.cls-9{fill:#cfd1f9;}.cls-10{stroke:#f5bd34;stroke-width:0.88px;}</style></defs><rect class="cls-1" x="7.65" y="0.81" width="308" height="76.31" rx="18.31"/><rect class="cls-2" x="7.65" y="1.5" width="308" height="76.31" rx="18.31"/><path class="cls-3" d="M203.06,367.74a8,8,0,0,0,.14,1.58v1c0,6.6-6.79,12-15.09,12h-122c-8.3,0-15.09-5.4-15.09-12v-1c0-6.6,6.79-12,15.09-12h122c2.12,0,4.16.36,4.74,1H217C205.84,358.32,203.07,364.69,203.06,367.74Z" transform="translate(-36.39 -279.51)"/><path class="cls-4" d="M91.13,368.06c-.06,0-.09,0-.09.09v3.93c0,.18-.12.18-.22.18H89c-.1,0-.24,0-.24-.18.1-2.64.1-4.08.1-5.14,0-1.27,0-2.5-.1-3.76a2.86,2.86,0,0,1,2.14-.73c2.45,0,3.73.87,3.73,2.54S93.19,368.06,91.13,368.06Zm1.4-3.18c0-.61-.79-.66-1.11-.66s-.38,0-.38.26V366c0,.07,0,.13.14.13C91.63,366.14,92.53,365.52,92.53,364.88Z" transform="translate(-36.39 -279.51)"/><path class="cls-4" d="M101.53,372.08c0,.18-.2.18-.29.18H99.16a.26.26,0,0,1-.22-.13l-.84-1.82c-.11-.24-.2-.36-.25-.36s-.1.12-.1.36v1.77c0,.18-.18.18-.28.18H95.7c-.09,0-.23,0-.23-.18,0-.66.11-2.26.11-4.26s-.09-4.75-.09-4.85c0-.35,1.21-.52,2.27-.52,1.77,0,3,1,3,2.59a2.23,2.23,0,0,1-1.93,2.32c-.13,0-.12,0,0,.22A37.74,37.74,0,0,1,101.53,372.08Zm-3.87-6.53c0,.08,0,.11.17.11A1.19,1.19,0,0,0,99,364.55c0-.42-.35-.58-1-.58-.26,0-.31,0-.31.25Z" transform="translate(-36.39 -279.51)"/><path class="cls-4" d="M106.6,370c.59,0,1.29,0,1.26.4l-.1,1.22c0,.51-.14.67-.41.67h-4.93c-.19,0-.19-.21-.19-.37v-8.82c0-.32,1.44-.62,2-.62a23.55,23.55,0,0,1,3.49.23c.09,0,.32.05.32.61v1.4a.18.18,0,0,1-.18.19h-3.08c-.08,0-.1.11-.1.19v1.09h1a.3.3,0,0,1,.34.29v1.3c0,.14-.06.21-.15.21h-1.21c-.06,0-.07.05-.07.11v1.71c0,.14.07.19.22.19Z" transform="translate(-36.39 -279.51)"/><path class="cls-4" d="M117.48,362.73V372a.27.27,0,0,1-.3.3h-1.52c-.26,0-.37-.07-.37-.25a13.1,13.1,0,0,0-.45-3.41c-.15,0-1,2.36-1.17,2.36h-.81c-.19,0-1.06-2.36-1.2-2.36a13.23,13.23,0,0,0-.44,3.41c0,.18,0,.25-.19.25h-1.75c-.17,0-.25-.09-.25-.3v-8.83c0-.31,1.54-.68,1.89-.68.14,0,.2,0,.3.24a46.21,46.21,0,0,0,2,4.41,45.11,45.11,0,0,0,2.07-4.45.28.28,0,0,1,.31-.2h1.45C117.24,362.45,117.48,362.45,117.48,362.73Z" transform="translate(-36.39 -279.51)"/><path class="cls-4" d="M119,372.26c-.25,0-.31,0-.31-.14v-9.07c0-.32,1.54-.6,2.79-.6.18,0,.24,0,.24.3v9.37c0,.14-.09.14-.38.14Z" transform="translate(-36.39 -279.51)"/><path class="cls-4" d="M127.25,370c.59,0,1.29,0,1.26.4l-.1,1.22c0,.51-.14.67-.41.67h-4.93c-.19,0-.19-.21-.19-.37v-8.82c0-.32,1.44-.62,2-.62a23.55,23.55,0,0,1,3.49.23c.09,0,.32.05.32.61v1.4a.18.18,0,0,1-.18.19h-3.08c-.08,0-.1.11-.1.19v1.09h1a.3.3,0,0,1,.34.29v1.3c0,.14-.06.21-.16.21h-1.2c-.06,0-.07.05-.07.11v1.71c0,.14.07.19.22.19Z" transform="translate(-36.39 -279.51)"/><path class="cls-4" d="M135.75,372.08c0,.18-.2.18-.3.18h-2.07a.26.26,0,0,1-.23-.13l-.84-1.82c-.11-.24-.19-.36-.25-.36s-.1.12-.1.36v1.77c0,.18-.18.18-.28.18h-1.76c-.1,0-.24,0-.24-.18,0-.66.11-2.26.11-4.26s-.08-4.75-.08-4.85c0-.35,1.2-.52,2.27-.52,1.76,0,3,1,3,2.59a2.23,2.23,0,0,1-1.93,2.32c-.13,0-.11,0,0,.22A37.87,37.87,0,0,1,135.75,372.08Zm-3.87-6.53c0,.08,0,.11.17.11a1.19,1.19,0,0,0,1.12-1.11c0-.42-.35-.58-1-.58-.27,0-.31,0-.31.25Z" transform="translate(-36.39 -279.51)"/><path class="cls-4" d="M148.53,362.73V372a.27.27,0,0,1-.3.3h-1.52c-.25,0-.37-.07-.37-.25a13.23,13.23,0,0,0-.44-3.41c-.16,0-1,2.36-1.18,2.36h-.81c-.19,0-1-2.36-1.19-2.36a13.1,13.1,0,0,0-.45,3.41c0,.18,0,.25-.18.25h-1.76c-.16,0-.25-.09-.25-.3v-8.83c0-.31,1.54-.68,1.89-.68.14,0,.2,0,.3.24,0,.06,1.86,4.41,2,4.41a47.5,47.5,0,0,0,2.08-4.45.27.27,0,0,1,.3-.2h1.45C148.29,362.45,148.53,362.45,148.53,362.73Z" transform="translate(-36.39 -279.51)"/><path class="cls-4" d="M150,372.26c-.25,0-.31,0-.31-.14v-9.07c0-.32,1.54-.6,2.79-.6.18,0,.24,0,.24.3v9.37c0,.14-.08.14-.38.14Z" transform="translate(-36.39 -279.51)"/><path class="cls-4" d="M160.54,362.76V372c0,.23-.06.27-.22.27h-1.46c-.17,0-.21,0-.38-.27-.06-.08-2.45-3.42-2.52-3.42s-.06,2.51-.06,3.41c0,.24-.07.28-.21.28H154c-.15,0-.22-.07-.22-.18v-8.93c0-.19,1.05-.7,1.41-.7a.28.28,0,0,1,.23.1c0,.08,2.73,4.81,2.81,4.81s.18-3.17.18-4.6c0-.24.1-.31.28-.31h1.59C160.5,362.45,160.54,362.55,160.54,362.76Z" transform="translate(-36.39 -279.51)"/><path class="cls-4" d="M161.89,372.26c-.25,0-.3,0-.3-.14v-9.07c0-.32,1.54-.6,2.78-.6.19,0,.24,0,.24.3v9.37c0,.14-.08.14-.38.14Z" transform="translate(-36.39 -279.51)"/><path class="cls-4" d="M165.52,371.46v-1.19c0-.49.1-.58.31-.62.77-.14,3.37.3,3.37-.95,0-1.43-3.4-.63-3.4-3.38,0-2.15,2.11-2.87,4-2.87a7.31,7.31,0,0,1,1.26.1c.47.08.59.15.59.62V364c0,.38,0,.56-.55.46a6.57,6.57,0,0,0-1.15-.11c-1,0-1.46.35-1.46.94,0,1.57,3.13.73,3.13,4,0,2.41-1.68,2.92-3.45,2.92a16.61,16.61,0,0,1-2.21-.18C165.62,372,165.52,371.92,165.52,371.46Z" transform="translate(-36.39 -279.51)"/><path class="cls-4" d="M180.64,362.45c.28,0,.48.25.48.6v1.31c0,.59-.1.71-.59.71h-2.38c-.17,0-.18.06-.18.18,0,2.41.1,4.53.21,6.81,0,.2-.11.2-.28.2h-2.29c-.16,0-.29,0-.28-.2.13-2.28.21-4.4.21-6.81,0-.11,0-.18-.21-.18H172.9c-.49,0-.51-.22-.51-.75V363c0-.38.16-.58.45-.58Z" transform="translate(-36.39 -279.51)"/><path class="cls-4" d="M188.16,372.08c0,.18-.2.18-.29.18h-2.08a.26.26,0,0,1-.22-.13l-.84-1.82c-.11-.24-.2-.36-.25-.36s-.1.12-.1.36v1.77c0,.18-.18.18-.28.18h-1.77c-.09,0-.23,0-.23-.18,0-.66.11-2.26.11-4.26s-.09-4.75-.09-4.85c0-.35,1.21-.52,2.27-.52,1.77,0,3,1,3,2.59a2.23,2.23,0,0,1-1.94,2.32c-.12,0-.11,0,0,.22A37.74,37.74,0,0,1,188.16,372.08Zm-3.87-6.53c0,.08.05.11.17.11a1.19,1.19,0,0,0,1.12-1.11c0-.42-.35-.58-1-.58-.26,0-.31,0-.31.25Z" transform="translate(-36.39 -279.51)"/><path class="cls-4" d="M193.23,370c.59,0,1.29,0,1.26.4l-.1,1.22c0,.51-.14.67-.41.67h-4.93c-.19,0-.19-.21-.19-.37v-8.82c0-.32,1.44-.62,2-.62a23.55,23.55,0,0,1,3.49.23c.09,0,.32.05.32.61v1.4a.18.18,0,0,1-.18.19h-3.08c-.08,0-.1.11-.1.19v1.09h1a.3.3,0,0,1,.34.29v1.3c0,.14-.06.21-.16.21h-1.2c-.06,0-.07.05-.07.11v1.71c0,.14.07.19.22.19Z" transform="translate(-36.39 -279.51)"/><ellipse class="cls-5" cx="26.75" cy="83.01" rx="19.11" ry="16.8"/><path class="cls-5" d="M46.94,371.44c-3.86,0-7.55-3.09-7.55-6.95a7,7,0,0,1,7-7" transform="translate(-36.39 -279.51)"/><ellipse class="cls-6" cx="7.63" cy="84.9" rx="1.38" ry="3.03"/><path class="cls-7" d="M45.88,355.28s-4.59-6.39,8.18-14.2,24,3.88,28.19,6.7-4.63,3.64-4.63,3.64S66,345.53,58,348.09A29.85,29.85,0,0,0,45.88,355.28Z" transform="translate(-36.39 -279.51)"/><ellipse class="cls-8" cx="36.97" cy="78.97" rx="5.52" ry="5.74"/><polygon class="cls-9" points="33.66 74.99 41.17 82.5 42.5 80.42 35.53 73.7 33.66 74.99"/><rect class="cls-9" x="72.83" y="353.61" width="0.62" height="10.62" transform="translate(-268.76 -122.67) rotate(-45)"/><circle class="cls-10" cx="37.19" cy="78.97" r="5.52"/><path class="cls-11" d="M74.12,368.46c-4.67.41-4-4.92-8.12-3.58-3.08,1-.53,7.29,6.39,5.32,1.79-.52,3.56-1.9,1.73-1.74Zm-21,0c4.67.41,4-4.92,8.12-3.58,3.08,1,.53,7.29-6.38,5.32-1.8-.52-3.57-1.9-1.74-1.74Z" transform="translate(-36.39 -279.51)"/><path class="cls-12" d="M63,338.44c8.84,0,16,7.21,19.22,9.34,4.22,2.81-4.63,3.64-4.63,3.64l-.32-.15a15.62,15.62,0,0,1,5,11.24c0,9.28-8.56,16.8-19.11,16.8a19.78,19.78,0,0,1-16.2-7.91v0c-3.86,0-7.55-3.09-7.55-6.95a7,7,0,0,1,5.45-6.82,15.4,15.4,0,0,1,1.1-2.45l-.06.06s-4.59-6.39,8.18-14.2a17,17,0,0,1,9-2.64m0-3a20,20,0,0,0-10.53,3.08c-5.94,3.63-9.37,7.6-10.22,11.8a9.26,9.26,0,0,0,.29,4.93,9.91,9.91,0,0,0-6.18,9.24c0,4.9,4,9.11,9,9.84a22.93,22.93,0,0,0,17.73,8c12.19,0,22.11-8.88,22.11-19.8a18.05,18.05,0,0,0-2.48-9.09,5.16,5.16,0,0,0,3.51-3.31c.26-1,.3-3.05-2.37-4.83-.5-.34-1.2-.89-2-1.52-4-3.11-10.64-8.32-18.86-8.32Z" transform="translate(-36.39 -279.51)"/></svg>