<svg width="199" height="21" viewBox="0 0 199 21" fill="none" xmlns="http://www.w3.org/2000/svg">
<path d="M8.14 14.328C8.14 14.4307 8.096 14.5113 8.008 14.57C7.876 14.658 7.64867 14.7827 7.326 14.944C7.00333 15.1053 6.644 15.274 6.248 15.45C5.86667 15.626 5.46333 15.8093 5.038 16C4.61267 16.1907 4.224 16.3593 3.872 16.506C3.52 16.6527 3.21933 16.77 2.97 16.858C2.73533 16.9607 2.61067 17.012 2.596 17.012C2.47867 17.012 2.34667 16.88 2.2 16.616C2.068 16.352 1.936 16 1.804 15.56C1.672 15.1053 1.54733 14.5847 1.43 13.998C1.31267 13.3967 1.20267 12.766 1.1 12.106C1.012 11.446 0.938667 10.7787 0.88 10.104C0.836 9.41467 0.814 8.75467 0.814 8.124C0.814 7.18533 0.858 6.452 0.946 5.924C1.04867 5.396 1.15867 5 1.276 4.736C1.408 4.472 1.52533 4.31067 1.628 4.252C1.73067 4.17867 1.78933 4.142 1.804 4.142C1.92133 4.142 2.01667 4.19333 2.09 4.296C2.16333 4.39867 2.2 4.50133 2.2 4.604C2.2 4.66267 2.17067 4.76533 2.112 4.912C2.05333 5.05867 1.98733 5.264 1.914 5.528C1.85533 5.792 1.79667 6.12933 1.738 6.54C1.694 6.95067 1.672 7.44933 1.672 8.036C1.672 8.564 1.694 9.114 1.738 9.686C1.79667 10.258 1.87 10.8227 1.958 11.38C2.046 11.9373 2.14133 12.4653 2.244 12.964C2.36133 13.4627 2.47867 13.9027 2.596 14.284C2.71333 14.6653 2.82333 14.9733 2.926 15.208C3.02867 15.428 3.124 15.538 3.212 15.538C3.22667 15.538 3.322 15.5013 3.498 15.428C3.674 15.3547 3.894 15.2667 4.158 15.164C4.422 15.0467 4.708 14.9367 5.016 14.834C5.33867 14.7167 5.66133 14.614 5.984 14.526C6.13067 14.482 6.29933 14.438 6.49 14.394C6.69533 14.3353 6.886 14.284 7.062 14.24C7.238 14.196 7.392 14.1593 7.524 14.13C7.67067 14.1007 7.75867 14.086 7.788 14.086C8.02267 14.086 8.14 14.1667 8.14 14.328ZM15.4394 13.69C15.454 13.7193 15.4614 13.7633 15.4614 13.822C15.4614 13.91 15.3954 14.042 15.2634 14.218C15.2194 14.2767 15.124 14.372 14.9774 14.504C14.8307 14.636 14.6327 14.768 14.3834 14.9C14.134 15.032 13.826 15.1493 13.4594 15.252C13.1074 15.3547 12.6894 15.406 12.2054 15.406C11.868 15.406 11.538 15.3327 11.2154 15.186C10.8927 15.0247 10.6067 14.7973 10.3574 14.504C10.108 14.196 9.90269 13.822 9.74136 13.382C9.58003 12.9273 9.49936 12.3993 9.49936 11.798C9.49936 11.226 9.57269 10.6907 9.71936 10.192C9.86603 9.69333 10.0494 9.25333 10.2694 8.872C10.504 8.49067 10.7607 8.19 11.0394 7.97C11.318 7.75 11.5894 7.64 11.8534 7.64C12.088 7.64 12.3227 7.69133 12.5574 7.794C12.8067 7.882 13.0267 7.99933 13.2174 8.146C13.4227 8.29267 13.584 8.46133 13.7014 8.652C13.8187 8.828 13.8774 9.01133 13.8774 9.202C13.8774 9.422 13.7747 9.64933 13.5694 9.884C13.3787 10.1187 13.144 10.3387 12.8654 10.544C12.5867 10.7347 12.308 10.896 12.0294 11.028C11.7507 11.1453 11.5307 11.204 11.3694 11.204C11.2814 11.204 11.2007 11.1673 11.1274 11.094C11.0687 11.006 11.0394 10.9033 11.0394 10.786C11.0394 10.5807 11.1274 10.4193 11.3034 10.302C11.494 10.1847 11.6994 10.082 11.9194 9.994C12.1394 9.89133 12.3374 9.774 12.5134 9.642C12.704 9.51 12.7994 9.32667 12.7994 9.092C12.7994 9.06267 12.7627 8.98933 12.6894 8.872C12.616 8.75467 12.418 8.696 12.0954 8.696C11.9487 8.696 11.78 8.784 11.5894 8.96C11.3987 9.12133 11.2154 9.34867 11.0394 9.642C10.8634 9.92067 10.7167 10.258 10.5994 10.654C10.482 11.0353 10.4234 11.4533 10.4234 11.908C10.4234 12.2893 10.4894 12.634 10.6214 12.942C10.768 13.25 10.9514 13.514 11.1714 13.734C11.3914 13.9393 11.648 14.1007 11.9414 14.218C12.2347 14.3353 12.5354 14.394 12.8434 14.394C13.0634 14.394 13.298 14.35 13.5474 14.262C13.8114 14.1593 14.0534 14.0567 14.2734 13.954C14.508 13.8367 14.706 13.734 14.8674 13.646C15.0434 13.5433 15.1534 13.492 15.1974 13.492C15.2414 13.492 15.2854 13.514 15.3294 13.558C15.388 13.602 15.4247 13.646 15.4394 13.69ZM21.9433 13.096C21.9433 13.3453 21.8553 13.5653 21.6793 13.756C21.5179 13.932 21.3053 14.086 21.0413 14.218C20.7919 14.3353 20.5133 14.4307 20.2053 14.504C19.8973 14.5773 19.6039 14.636 19.3253 14.68C19.0466 14.7093 18.7973 14.7313 18.5773 14.746C18.3719 14.746 18.2399 14.746 18.1813 14.746C17.8586 14.746 17.6093 14.6947 17.4333 14.592C17.2573 14.4893 17.1693 14.306 17.1693 14.042C17.1693 13.954 17.1766 13.8807 17.1913 13.822C17.2059 13.7487 17.2646 13.712 17.3673 13.712C17.4113 13.712 17.4846 13.7267 17.5873 13.756C17.6899 13.7707 17.7706 13.778 17.8293 13.778C17.8879 13.778 18.0713 13.7707 18.3793 13.756C18.7019 13.7267 19.0393 13.6827 19.3913 13.624C19.7579 13.5653 20.0806 13.4847 20.3593 13.382C20.6526 13.2647 20.7993 13.118 20.7993 12.942C20.7993 12.9127 20.6453 12.8247 20.3373 12.678C20.0439 12.5167 19.5966 12.2527 18.9953 11.886C18.5259 11.5927 18.1959 11.2993 18.0053 11.006C17.8146 10.698 17.7193 10.2873 17.7193 9.774C17.7193 9.45133 17.7853 9.18733 17.9173 8.982C18.0639 8.77667 18.2546 8.61533 18.4893 8.498C18.7386 8.38067 19.0173 8.3 19.3253 8.256C19.6479 8.19733 19.9853 8.168 20.3373 8.168C20.3666 8.168 20.4546 8.18267 20.6013 8.212C20.7626 8.24133 20.9313 8.29267 21.1073 8.366C21.2833 8.42467 21.4373 8.50533 21.5693 8.608C21.7159 8.696 21.7893 8.79867 21.7893 8.916C21.7893 8.94533 21.7599 8.98933 21.7013 9.048C21.6573 9.10667 21.5766 9.21667 21.4593 9.378C21.4153 9.36333 21.3346 9.34133 21.2173 9.312C21.1146 9.28267 20.9899 9.25333 20.8433 9.224C20.7113 9.18 20.5719 9.15067 20.4253 9.136C20.2786 9.10667 20.1613 9.092 20.0733 9.092C19.6919 9.092 19.3839 9.16533 19.1493 9.312C18.9146 9.444 18.7973 9.708 18.7973 10.104C18.7973 10.2947 18.8706 10.4707 19.0173 10.632C19.1786 10.7933 19.3766 10.9473 19.6113 11.094C19.8459 11.226 20.0953 11.3653 20.3593 11.512C20.6379 11.644 20.8946 11.7907 21.1293 11.952C21.3639 12.1133 21.5546 12.2893 21.7013 12.48C21.8626 12.656 21.9433 12.8613 21.9433 13.096ZM39.3367 8.234C39.3514 8.26333 39.366 8.28533 39.3807 8.3C39.3954 8.3 39.4027 8.31467 39.4027 8.344C39.4027 8.432 39.2194 8.60067 38.8527 8.85C38.486 9.08467 38.0314 9.356 37.4887 9.664C36.946 9.95733 36.374 10.258 35.7727 10.566C35.1714 10.8593 34.636 11.1013 34.1667 11.292C34.1667 11.3213 34.152 11.4167 34.1227 11.578C34.0934 11.7393 34.0787 11.842 34.0787 11.886V12.304C34.0787 12.6413 34.13 12.9787 34.2327 13.316C34.3354 13.6387 34.4894 13.932 34.6947 14.196C34.9147 14.46 35.1787 14.6727 35.4867 14.834C35.7947 14.9953 36.154 15.076 36.5647 15.076C36.7407 15.076 36.9534 15.0467 37.2027 14.988C37.4667 14.9147 37.716 14.8193 37.9507 14.702C38.2 14.57 38.42 14.416 38.6107 14.24C38.8014 14.064 38.9187 13.866 38.9627 13.646C39.1387 13.6607 39.2414 13.712 39.2707 13.8C39.3147 13.888 39.3367 13.9467 39.3367 13.976C39.3367 14.3573 39.2414 14.6873 39.0507 14.966C38.8747 15.23 38.6474 15.45 38.3687 15.626C38.1047 15.7873 37.8187 15.912 37.5107 16C37.2174 16.0733 36.9534 16.11 36.7187 16.11C35.4574 16.11 34.5407 15.758 33.9687 15.054C33.3967 14.35 33.1107 13.426 33.1107 12.282C33.1107 12.2233 33.1254 12.0913 33.1547 11.886C33.184 11.6807 33.1987 11.5413 33.1987 11.468C33.1987 11.4533 33.1694 11.4387 33.1107 11.424C33.052 11.3947 32.986 11.3653 32.9127 11.336C32.854 11.3067 32.7954 11.2627 32.7367 11.204C32.6927 11.1307 32.6707 11.0353 32.6707 10.918C32.6707 10.8007 32.7147 10.7053 32.8027 10.632C32.8907 10.5587 32.9934 10.4927 33.1107 10.434L33.3307 10.302C33.4627 9.74467 33.6167 9.20933 33.7927 8.696C33.9834 8.168 34.218 7.64 34.4967 7.112C34.3794 7.112 34.2547 7.09733 34.1227 7.068C33.9907 7.03867 33.9247 6.936 33.9247 6.76C33.9247 6.55467 34.042 6.32733 34.2767 6.078C34.526 5.82867 34.8047 5.594 35.1127 5.374C35.4354 5.154 35.7507 4.97067 36.0587 4.824C36.3667 4.66267 36.5867 4.582 36.7187 4.582C36.7774 4.582 36.814 4.59667 36.8287 4.626C36.858 4.64067 36.902 4.648 36.9607 4.648C37.078 4.648 37.2247 4.626 37.4007 4.582C37.5914 4.538 37.7894 4.48667 37.9947 4.428C38.2 4.36933 38.3907 4.318 38.5667 4.274C38.7574 4.23 38.9114 4.208 39.0287 4.208C39.1607 4.208 39.256 4.252 39.3147 4.34C39.388 4.428 39.4247 4.52333 39.4247 4.626C39.4247 4.74333 39.3514 4.83133 39.2047 4.89C39.058 4.934 38.926 4.97067 38.8087 5C38.398 5.07333 37.9654 5.20533 37.5107 5.396C37.0707 5.572 36.66 5.77 36.2787 5.99C36.132 6.15133 35.956 6.386 35.7507 6.694C35.5454 6.98733 35.3474 7.32467 35.1567 7.706C34.966 8.08733 34.79 8.48333 34.6287 8.894C34.482 9.30467 34.3867 9.69333 34.3427 10.06L34.7167 9.884C35.846 9.34133 36.7627 8.916 37.4667 8.608C38.1854 8.3 38.7427 8.146 39.1387 8.146C39.212 8.146 39.278 8.17533 39.3367 8.234ZM39.1387 1.282C39.1387 1.39933 39.0507 1.568 38.8747 1.788C38.6987 2.008 38.486 2.23533 38.2367 2.47C38.002 2.70467 37.7527 2.92467 37.4887 3.13C37.2394 3.32067 37.0414 3.45267 36.8947 3.526C36.7774 3.58467 36.6747 3.62133 36.5867 3.636C36.4987 3.65067 36.4254 3.658 36.3667 3.658C36.2494 3.658 36.1027 3.592 35.9267 3.46C35.7507 3.328 35.6627 3.20333 35.6627 3.086C35.6627 3.05667 35.7287 3.02 35.8607 2.976C35.9927 2.91733 36.1394 2.844 36.3007 2.756C36.4474 2.668 36.638 2.52867 36.8727 2.338C37.122 2.13267 37.364 1.93467 37.5987 1.744C37.848 1.53867 38.068 1.36267 38.2587 1.216C38.464 1.06933 38.6034 0.995999 38.6767 0.995999C38.7794 0.995999 38.882 1.02533 38.9847 1.084C39.0874 1.14267 39.1387 1.20867 39.1387 1.282ZM43.9818 15.362C43.9818 15.4793 43.9378 15.5673 43.8498 15.626C43.7618 15.6847 43.6591 15.714 43.5418 15.714C43.4098 15.714 43.2704 15.5893 43.1238 15.34C42.9918 15.0907 42.8598 14.7753 42.7278 14.394C42.5958 14.0127 42.4711 13.602 42.3538 13.162C42.2364 12.7073 42.1338 12.2893 42.0458 11.908C41.9578 11.512 41.8844 11.182 41.8258 10.918C41.7818 10.654 41.7598 10.5073 41.7598 10.478C41.7598 10.4193 41.7304 10.2653 41.6718 10.016C41.6278 9.76667 41.5618 9.378 41.4738 8.85C41.4004 8.322 41.3124 7.64 41.2098 6.804C41.1218 5.95333 41.0264 4.90467 40.9238 3.658C40.9238 3.526 40.9458 3.35733 40.9898 3.152C41.0338 2.94667 41.1364 2.844 41.2978 2.844C41.5031 2.844 41.6571 2.98333 41.7598 3.262C41.8771 3.54067 41.9651 3.88533 42.0238 4.296C42.0971 4.70667 42.1484 5.13933 42.1778 5.594C42.2071 6.034 42.2438 6.42267 42.2878 6.76C42.3464 7.22933 42.3978 7.65467 42.4418 8.036C42.5004 8.41733 42.5518 8.79867 42.5958 9.18C42.6544 9.54667 42.7204 9.93533 42.7938 10.346C42.8818 10.7567 42.9844 11.2113 43.1018 11.71L43.9818 15.362ZM51.8124 13.69C51.8271 13.7193 51.8344 13.7633 51.8344 13.822C51.8344 13.91 51.7684 14.042 51.6364 14.218C51.5924 14.2767 51.4971 14.372 51.3504 14.504C51.2037 14.636 51.0057 14.768 50.7564 14.9C50.5071 15.032 50.1991 15.1493 49.8324 15.252C49.4804 15.3547 49.0624 15.406 48.5784 15.406C48.2411 15.406 47.9111 15.3327 47.5884 15.186C47.2657 15.0247 46.9797 14.7973 46.7304 14.504C46.4811 14.196 46.2757 13.822 46.1144 13.382C45.9531 12.9273 45.8724 12.3993 45.8724 11.798C45.8724 11.226 45.9457 10.6907 46.0924 10.192C46.2391 9.69333 46.4224 9.25333 46.6424 8.872C46.8771 8.49067 47.1337 8.19 47.4124 7.97C47.6911 7.75 47.9624 7.64 48.2264 7.64C48.4611 7.64 48.6957 7.69133 48.9304 7.794C49.1797 7.882 49.3997 7.99933 49.5904 8.146C49.7957 8.29267 49.9571 8.46133 50.0744 8.652C50.1917 8.828 50.2504 9.01133 50.2504 9.202C50.2504 9.422 50.1477 9.64933 49.9424 9.884C49.7517 10.1187 49.5171 10.3387 49.2384 10.544C48.9597 10.7347 48.6811 10.896 48.4024 11.028C48.1237 11.1453 47.9037 11.204 47.7424 11.204C47.6544 11.204 47.5737 11.1673 47.5004 11.094C47.4417 11.006 47.4124 10.9033 47.4124 10.786C47.4124 10.5807 47.5004 10.4193 47.6764 10.302C47.8671 10.1847 48.0724 10.082 48.2924 9.994C48.5124 9.89133 48.7104 9.774 48.8864 9.642C49.0771 9.51 49.1724 9.32667 49.1724 9.092C49.1724 9.06267 49.1357 8.98933 49.0624 8.872C48.9891 8.75467 48.7911 8.696 48.4684 8.696C48.3217 8.696 48.1531 8.784 47.9624 8.96C47.7717 9.12133 47.5884 9.34867 47.4124 9.642C47.2364 9.92067 47.0897 10.258 46.9724 10.654C46.8551 11.0353 46.7964 11.4533 46.7964 11.908C46.7964 12.2893 46.8624 12.634 46.9944 12.942C47.1411 13.25 47.3244 13.514 47.5444 13.734C47.7644 13.9393 48.0211 14.1007 48.3144 14.218C48.6077 14.3353 48.9084 14.394 49.2164 14.394C49.4364 14.394 49.6711 14.35 49.9204 14.262C50.1844 14.1593 50.4264 14.0567 50.6464 13.954C50.8811 13.8367 51.0791 13.734 51.2404 13.646C51.4164 13.5433 51.5264 13.492 51.5704 13.492C51.6144 13.492 51.6584 13.514 51.7024 13.558C51.7611 13.602 51.7977 13.646 51.8124 13.69ZM59.7023 11.996C59.7023 12.1427 59.6803 12.2967 59.6363 12.458C59.5923 12.6047 59.5483 12.7293 59.5043 12.832C59.475 12.876 59.3357 13.03 59.0863 13.294C58.8517 13.5433 58.551 13.8073 58.1843 14.086C57.8323 14.3647 57.429 14.6213 56.9743 14.856C56.5343 15.076 56.109 15.186 55.6983 15.186C55.449 15.186 55.1923 15.142 54.9283 15.054C54.679 14.966 54.4443 14.8267 54.2243 14.636C54.0043 14.4307 53.821 14.1813 53.6743 13.888C53.5423 13.5947 53.4763 13.2353 53.4763 12.81C53.4763 12.106 53.5937 11.468 53.8283 10.896C54.063 10.324 54.2977 9.86933 54.5323 9.532C54.635 9.37067 54.767 9.20933 54.9283 9.048C55.1043 8.872 55.273 8.718 55.4343 8.586C55.5957 8.43933 55.7423 8.322 55.8743 8.234C56.021 8.146 56.1237 8.102 56.1823 8.102C56.3143 8.102 56.4317 8.13867 56.5343 8.212C56.6517 8.28533 56.7103 8.35867 56.7103 8.432C56.7103 8.54933 56.6737 8.652 56.6003 8.74C56.5417 8.81333 56.4537 8.90133 56.3363 9.004C56.219 9.092 56.0797 9.21667 55.9183 9.378C55.757 9.52467 55.5883 9.72267 55.4123 9.972C55.0603 10.456 54.7963 10.9547 54.6203 11.468C54.459 11.9667 54.3783 12.4067 54.3783 12.788C54.3783 13.1693 54.5177 13.4773 54.7963 13.712C55.0897 13.932 55.3903 14.042 55.6983 14.042C56.2557 14.042 56.747 13.9173 57.1723 13.668C57.6123 13.4187 57.9863 13.14 58.2943 12.832C58.6023 12.524 58.8517 12.2453 59.0423 11.996C59.233 11.7467 59.3723 11.622 59.4603 11.622C59.6217 11.622 59.7023 11.7467 59.7023 11.996ZM67.2959 6.056C67.1053 6.276 66.8339 6.496 66.4819 6.716C66.1299 6.92133 65.7779 7.112 65.4259 7.288C65.0739 7.464 64.7659 7.618 64.5019 7.75C64.2379 7.86733 64.1059 7.948 64.1059 7.992C64.1059 8.036 64.1353 8.168 64.1939 8.388C64.2526 8.608 64.3186 8.872 64.3919 9.18C64.4799 9.47333 64.5679 9.78133 64.6559 10.104C64.7439 10.4267 64.8173 10.7127 64.8759 10.962C64.9053 11.1087 64.9419 11.2993 64.9859 11.534C65.0299 11.7687 65.0666 12.0033 65.0959 12.238C65.1399 12.4727 65.1766 12.6853 65.2059 12.876C65.2353 13.052 65.2499 13.1473 65.2499 13.162C65.2499 13.382 65.2133 13.6093 65.1399 13.844C65.0666 14.0787 64.9493 14.196 64.7879 14.196C64.6999 14.196 64.6193 14.1593 64.5459 14.086C64.4726 14.0127 64.4066 13.932 64.3479 13.844C64.2893 13.7413 64.2453 13.646 64.2159 13.558C64.1866 13.47 64.1719 13.404 64.1719 13.36C64.1719 13.3307 64.1719 13.2867 64.1719 13.228C64.1866 13.1693 64.1939 13.1033 64.1939 13.03C64.1939 12.7513 64.1499 12.348 64.0619 11.82C64.0326 11.6587 63.9739 11.4093 63.8859 11.072C63.7979 10.7347 63.7099 10.39 63.6219 10.038C63.5193 9.62733 63.4019 9.18 63.2699 8.696C63.2113 8.49067 63.1746 8.388 63.1599 8.388C63.0573 8.388 62.8813 8.454 62.6319 8.586C62.3973 8.70333 62.1259 8.85733 61.8179 9.048C61.5099 9.224 61.1873 9.422 60.8499 9.642C60.5126 9.84733 60.1973 10.0453 59.9039 10.236C59.6106 10.412 59.3613 10.566 59.1559 10.698C58.9359 10.8153 58.8039 10.874 58.7599 10.874C58.5693 10.874 58.4153 10.808 58.2979 10.676C58.1806 10.544 58.1219 10.3973 58.1219 10.236C58.1219 10.148 58.2466 10.0233 58.4959 9.862C58.7306 9.686 59.0313 9.49533 59.3979 9.29C59.7499 9.08467 60.1386 8.872 60.5639 8.652C60.9746 8.432 61.3559 8.234 61.7079 8.058C62.0746 7.882 62.3753 7.73533 62.6099 7.618C62.8593 7.50067 62.9839 7.442 62.9839 7.442C62.8519 6.76733 62.7419 6.166 62.6539 5.638C62.5806 5.18333 62.5073 4.76533 62.4339 4.384C62.3753 4.00267 62.3459 3.79733 62.3459 3.768C62.3459 3.57733 62.3826 3.438 62.4559 3.35C62.5439 3.24733 62.6393 3.196 62.7419 3.196C62.9033 3.196 63.0059 3.306 63.0499 3.526C63.2113 4.318 63.3579 5.022 63.4899 5.638C63.6366 6.254 63.7759 6.75267 63.9079 7.134C64.0399 7.10467 64.2673 7.024 64.5899 6.892C64.9126 6.74533 65.2499 6.59133 65.6019 6.43C65.9539 6.26867 66.2693 6.12933 66.5479 6.012C66.8413 5.88 67.0099 5.814 67.0539 5.814C67.1419 5.814 67.1933 5.84333 67.2079 5.902C67.2373 5.96067 67.2666 6.012 67.2959 6.056ZM69.7893 5.88C69.7893 5.90933 69.738 5.968 69.6353 6.056C69.5327 6.144 69.408 6.23933 69.2613 6.342C69.1293 6.43 68.99 6.51067 68.8433 6.584C68.6967 6.65733 68.5793 6.694 68.4913 6.694C68.4327 6.694 68.352 6.694 68.2493 6.694C68.1613 6.67933 68.066 6.65 67.9633 6.606C67.8753 6.562 67.7947 6.50333 67.7213 6.43C67.648 6.342 67.6113 6.232 67.6113 6.1C67.6113 5.89467 67.6847 5.704 67.8313 5.528C67.978 5.33733 68.1687 5.242 68.4033 5.242C68.4473 5.242 68.5427 5.264 68.6893 5.308C68.8507 5.33733 69.012 5.38133 69.1733 5.44C69.3347 5.49867 69.474 5.56467 69.5913 5.638C69.7233 5.71133 69.7893 5.792 69.7893 5.88ZM70.5153 14.108C70.5153 14.2107 70.4347 14.2987 70.2733 14.372C70.1267 14.4453 70.0167 14.482 69.9433 14.482C69.7967 14.482 69.6647 14.3867 69.5473 14.196C69.43 14.0053 69.3273 13.7853 69.2393 13.536C69.1513 13.2867 69.078 13.052 69.0193 12.832C68.9607 12.5973 68.9167 12.436 68.8873 12.348C68.8433 12.2013 68.7847 12.0253 68.7113 11.82C68.638 11.6147 68.5647 11.4167 68.4913 11.226C68.4327 11.0353 68.3813 10.8667 68.3373 10.72C68.2933 10.5733 68.2713 10.4927 68.2713 10.478C68.2713 10.2727 68.308 10.082 68.3813 9.906C68.4693 9.73 68.572 9.642 68.6893 9.642C68.8213 9.642 68.9607 9.74467 69.1073 9.95C69.254 10.1553 69.3933 10.4193 69.5253 10.742C69.672 11.05 69.804 11.3947 69.9213 11.776C70.0387 12.1427 70.1413 12.4947 70.2293 12.832C70.3173 13.1547 70.3833 13.4407 70.4273 13.69C70.486 13.9247 70.5153 14.064 70.5153 14.108ZM75.8453 11.248C75.8453 11.5707 75.8013 11.8787 75.7133 12.172C75.6253 12.4653 75.508 12.722 75.3613 12.942C75.2147 13.162 75.0387 13.338 74.8333 13.47C74.6427 13.5873 74.43 13.646 74.1953 13.646C73.7847 13.646 73.462 13.5287 73.2273 13.294C72.9927 13.0593 72.8093 12.788 72.6773 12.48C72.56 12.172 72.4793 11.864 72.4353 11.556C72.406 11.2333 72.3913 10.9913 72.3913 10.83C72.3913 10.566 72.428 10.2727 72.5013 9.95C72.5893 9.61267 72.6993 9.30467 72.8313 9.026C72.978 8.74733 73.1393 8.51267 73.3153 8.322C73.4913 8.13133 73.6747 8.036 73.8653 8.036C73.9093 8.036 73.9753 8.05067 74.0633 8.08C74.166 8.10933 74.2687 8.15333 74.3713 8.212C74.474 8.27067 74.562 8.344 74.6353 8.432C74.7233 8.52 74.782 8.62267 74.8113 8.74C74.9727 8.75467 75.134 8.81333 75.2953 8.916C75.4567 9.01867 75.5447 9.09933 75.5593 9.158C75.6767 9.53933 75.75 9.92067 75.7793 10.302C75.8233 10.6833 75.8453 10.9987 75.8453 11.248ZM74.8553 10.852C74.8553 10.632 74.8333 10.4047 74.7893 10.17C74.7453 9.92067 74.6573 9.67133 74.5253 9.422C74.496 9.43667 74.4593 9.444 74.4153 9.444C74.3567 9.444 74.3053 9.43667 74.2613 9.422C74.232 9.40733 74.2027 9.4 74.1733 9.4C73.9973 9.4 73.858 9.45133 73.7553 9.554C73.6527 9.642 73.572 9.76667 73.5133 9.928C73.4693 10.0747 73.44 10.236 73.4253 10.412C73.4107 10.588 73.4033 10.7567 73.4033 10.918C73.4033 11.0793 73.4107 11.2627 73.4253 11.468C73.44 11.6587 73.4693 11.842 73.5133 12.018C73.572 12.194 73.6453 12.348 73.7333 12.48C73.8213 12.5973 73.9387 12.656 74.0853 12.656C74.232 12.656 74.3567 12.5827 74.4593 12.436C74.562 12.2747 74.6427 12.0913 74.7013 11.886C74.76 11.6807 74.7967 11.4827 74.8113 11.292C74.8407 11.0867 74.8553 10.94 74.8553 10.852ZM84.6734 13.294C84.6734 13.382 84.644 13.47 84.5854 13.558C84.5267 13.646 84.4534 13.7267 84.3654 13.8C84.292 13.8733 84.204 13.9393 84.1014 13.998C84.0134 14.042 83.9327 14.064 83.8594 14.064C83.61 14.064 83.2874 14.0127 82.8914 13.91C82.51 13.7927 82.202 13.6167 81.9674 13.382C81.718 13.1327 81.498 12.8393 81.3074 12.502C81.1167 12.15 80.904 11.6367 80.6694 10.962C80.508 11.6073 80.3174 12.2453 80.0974 12.876C79.892 13.5067 79.5547 14.086 79.0854 14.614C79.056 14.6433 79.012 14.658 78.9534 14.658C78.8507 14.658 78.7407 14.6067 78.6234 14.504C78.506 14.4013 78.4474 14.2987 78.4474 14.196C78.4474 14.0933 78.4327 13.8587 78.4034 13.492C78.3887 13.1107 78.3667 12.6927 78.3374 12.238C78.308 11.7687 78.2787 11.2993 78.2494 10.83C78.2347 10.346 78.2274 9.95 78.2274 9.642C78.2274 9.49533 78.2347 9.30467 78.2494 9.07C78.264 8.82067 78.308 8.608 78.3814 8.432C78.396 8.40267 78.4474 8.344 78.5354 8.256C78.638 8.168 78.748 8.124 78.8654 8.124C78.968 8.124 79.0267 8.19 79.0414 8.322C79.056 8.454 79.0634 8.60067 79.0634 8.762V12.238C79.0634 12.3113 79.0707 12.414 79.0854 12.546C79.1147 12.678 79.1514 12.7733 79.1954 12.832C79.3567 12.48 79.5034 12.0693 79.6354 11.6C79.782 11.116 79.9214 10.6613 80.0534 10.236C80.1854 9.796 80.3174 9.42933 80.4494 9.136C80.5814 8.828 80.7134 8.674 80.8454 8.674C80.992 8.674 81.1094 8.70333 81.1974 8.762C81.2854 8.82067 81.3587 8.938 81.4174 9.114C81.4907 9.53933 81.5494 9.92067 81.5934 10.258C81.6374 10.5807 81.6887 10.874 81.7474 11.138C81.8207 11.402 81.916 11.6513 82.0334 11.886C82.1654 12.106 82.3414 12.3113 82.5614 12.502C82.7667 12.6927 82.994 12.832 83.2434 12.92C83.5074 13.008 83.7347 13.052 83.9254 13.052C84.0134 13.052 84.1087 13.0373 84.2114 13.008C84.314 12.964 84.3874 12.942 84.4314 12.942C84.49 12.942 84.5414 12.9933 84.5854 13.096C84.644 13.1987 84.6734 13.2647 84.6734 13.294ZM90.7577 13.096C90.7577 13.3453 90.6697 13.5653 90.4937 13.756C90.3324 13.932 90.1197 14.086 89.8557 14.218C89.6064 14.3353 89.3277 14.4307 89.0197 14.504C88.7117 14.5773 88.4184 14.636 88.1397 14.68C87.8611 14.7093 87.6117 14.7313 87.3917 14.746C87.1864 14.746 87.0544 14.746 86.9957 14.746C86.6731 14.746 86.4237 14.6947 86.2477 14.592C86.0717 14.4893 85.9837 14.306 85.9837 14.042C85.9837 13.954 85.9911 13.8807 86.0057 13.822C86.0204 13.7487 86.0791 13.712 86.1817 13.712C86.2257 13.712 86.2991 13.7267 86.4017 13.756C86.5044 13.7707 86.5851 13.778 86.6437 13.778C86.7024 13.778 86.8857 13.7707 87.1937 13.756C87.5164 13.7267 87.8537 13.6827 88.2057 13.624C88.5724 13.5653 88.8951 13.4847 89.1737 13.382C89.4671 13.2647 89.6137 13.118 89.6137 12.942C89.6137 12.9127 89.4597 12.8247 89.1517 12.678C88.8584 12.5167 88.4111 12.2527 87.8097 11.886C87.3404 11.5927 87.0104 11.2993 86.8197 11.006C86.6291 10.698 86.5337 10.2873 86.5337 9.774C86.5337 9.45133 86.5997 9.18733 86.7317 8.982C86.8784 8.77667 87.0691 8.61533 87.3037 8.498C87.5531 8.38067 87.8317 8.3 88.1397 8.256C88.4624 8.19733 88.7997 8.168 89.1517 8.168C89.1811 8.168 89.2691 8.18267 89.4157 8.212C89.5771 8.24133 89.7457 8.29267 89.9217 8.366C90.0977 8.42467 90.2517 8.50533 90.3837 8.608C90.5304 8.696 90.6037 8.79867 90.6037 8.916C90.6037 8.94533 90.5744 8.98933 90.5157 9.048C90.4717 9.10667 90.3911 9.21667 90.2737 9.378C90.2297 9.36333 90.1491 9.34133 90.0317 9.312C89.9291 9.28267 89.8044 9.25333 89.6577 9.224C89.5257 9.18 89.3864 9.15067 89.2397 9.136C89.0931 9.10667 88.9757 9.092 88.8877 9.092C88.5064 9.092 88.1984 9.16533 87.9637 9.312C87.7291 9.444 87.6117 9.708 87.6117 10.104C87.6117 10.2947 87.6851 10.4707 87.8317 10.632C87.9931 10.7933 88.1911 10.9473 88.4257 11.094C88.6604 11.226 88.9097 11.3653 89.1737 11.512C89.4524 11.644 89.7091 11.7907 89.9437 11.952C90.1784 12.1133 90.3691 12.2893 90.5157 12.48C90.6771 12.656 90.7577 12.8613 90.7577 13.096ZM108.811 9.642C108.811 10.0233 108.701 10.39 108.481 10.742C108.276 11.094 108.019 11.424 107.711 11.732C107.403 12.0253 107.066 12.304 106.699 12.568C106.332 12.8173 105.995 13.0373 105.687 13.228C105.394 13.4333 105.152 13.602 104.961 13.734C104.77 13.866 104.675 13.9687 104.675 14.042C104.675 14.2327 104.697 14.504 104.741 14.856C104.785 15.1933 104.836 15.5673 104.895 15.978C104.968 16.374 105.034 16.7847 105.093 17.21C105.166 17.6353 105.218 18.024 105.247 18.376C105.247 18.3907 105.254 18.4567 105.269 18.574C105.298 18.6913 105.328 18.8233 105.357 18.97C105.401 19.1167 105.43 19.2487 105.445 19.366C105.474 19.498 105.489 19.5787 105.489 19.608C105.489 19.7107 105.482 19.8207 105.467 19.938C105.467 20.07 105.445 20.1873 105.401 20.29C105.372 20.4073 105.32 20.5027 105.247 20.576C105.174 20.6493 105.078 20.686 104.961 20.686C104.8 20.686 104.682 20.6127 104.609 20.466C104.536 20.334 104.499 20.202 104.499 20.07C104.499 20.0407 104.499 20.0113 104.499 19.982C104.514 19.9527 104.521 19.916 104.521 19.872C104.521 19.7107 104.462 19.278 104.345 18.574C104.228 17.87 104.096 17.0267 103.949 16.044C103.802 15.076 103.67 14.0347 103.553 12.92C103.436 11.7907 103.377 10.7273 103.377 9.73C103.377 9.65667 103.384 9.576 103.399 9.488C103.414 9.38533 103.421 9.29733 103.421 9.224C103.274 9.23867 103.054 9.30467 102.761 9.422C102.482 9.53933 102.204 9.686 101.925 9.862C101.646 10.0233 101.397 10.1993 101.177 10.39C100.972 10.566 100.869 10.7273 100.869 10.874H100.715C100.671 10.874 100.62 10.8447 100.561 10.786C100.488 10.7273 100.429 10.6613 100.385 10.588C100.326 10.5147 100.275 10.4413 100.231 10.368C100.187 10.2947 100.165 10.2433 100.165 10.214C100.165 9.906 100.348 9.62 100.715 9.356C101.082 9.07733 101.536 8.83533 102.079 8.63C102.636 8.41 103.245 8.24133 103.905 8.124C104.565 7.992 105.188 7.926 105.775 7.926C106.347 7.926 106.824 7.992 107.205 8.124C107.601 8.256 107.916 8.41733 108.151 8.608C108.386 8.784 108.554 8.96733 108.657 9.158C108.76 9.34867 108.811 9.51 108.811 9.642ZM107.733 9.576C107.733 9.42933 107.55 9.28267 107.183 9.136C106.816 8.97467 106.384 8.894 105.885 8.894C105.445 8.894 105.122 8.90867 104.917 8.938C104.712 8.96733 104.572 8.99667 104.499 9.026C104.47 9.26067 104.448 9.53933 104.433 9.862C104.418 10.1847 104.411 10.5147 104.411 10.852C104.411 11.204 104.418 11.5487 104.433 11.886C104.462 12.2087 104.492 12.48 104.521 12.7C104.726 12.568 105.005 12.392 105.357 12.172C105.724 11.9373 106.083 11.6807 106.435 11.402C106.787 11.1087 107.088 10.808 107.337 10.5C107.601 10.1773 107.733 9.86933 107.733 9.576ZM115.234 9.29C115.234 9.39267 115.19 9.48067 115.102 9.554C115.014 9.61267 114.911 9.664 114.794 9.708C114.677 9.752 114.559 9.78867 114.442 9.818C114.325 9.83267 114.229 9.84 114.156 9.84C113.936 9.84 113.789 9.82533 113.716 9.796C113.643 9.76667 113.584 9.752 113.54 9.752C113.173 9.752 112.88 9.78133 112.66 9.84C112.44 9.89867 112.264 9.994 112.132 10.126C112.015 10.258 111.934 10.4267 111.89 10.632C111.861 10.8227 111.846 11.0573 111.846 11.336C111.846 11.8053 111.861 12.1793 111.89 12.458C111.934 12.7367 111.971 12.964 112 13.14C112.044 13.316 112.081 13.4553 112.11 13.558C112.154 13.646 112.176 13.734 112.176 13.822C112.176 13.9393 112.11 14.064 111.978 14.196C111.861 14.328 111.751 14.394 111.648 14.394C111.472 14.394 111.311 14.24 111.164 13.932C111.032 13.6093 110.915 13.2353 110.812 12.81C110.724 12.37 110.651 11.9373 110.592 11.512C110.533 11.0867 110.504 10.764 110.504 10.544C110.504 10.2947 110.526 10.06 110.57 9.84C110.614 9.60533 110.673 9.40733 110.746 9.246C110.819 9.07 110.9 8.93067 110.988 8.828C111.076 8.72533 111.164 8.674 111.252 8.674C111.325 8.674 111.384 8.70333 111.428 8.762C111.472 8.806 111.509 8.86467 111.538 8.938C111.567 8.99667 111.597 9.05533 111.626 9.114C111.67 9.158 111.721 9.18 111.78 9.18C111.912 9.18 112.125 9.114 112.418 8.982C112.711 8.85 113.071 8.784 113.496 8.784C113.892 8.784 114.185 8.79867 114.376 8.828C114.581 8.84267 114.779 8.88667 114.97 8.96C115.014 8.97467 115.065 9.01133 115.124 9.07C115.197 9.114 115.234 9.18733 115.234 9.29ZM123.119 13.69C123.134 13.7193 123.141 13.7633 123.141 13.822C123.141 13.91 123.075 14.042 122.943 14.218C122.899 14.2767 122.804 14.372 122.657 14.504C122.51 14.636 122.312 14.768 122.063 14.9C121.814 15.032 121.506 15.1493 121.139 15.252C120.787 15.3547 120.369 15.406 119.885 15.406C119.548 15.406 119.218 15.3327 118.895 15.186C118.572 15.0247 118.286 14.7973 118.037 14.504C117.788 14.196 117.582 13.822 117.421 13.382C117.26 12.9273 117.179 12.3993 117.179 11.798C117.179 11.226 117.252 10.6907 117.399 10.192C117.546 9.69333 117.729 9.25333 117.949 8.872C118.184 8.49067 118.44 8.19 118.719 7.97C118.998 7.75 119.269 7.64 119.533 7.64C119.768 7.64 120.002 7.69133 120.237 7.794C120.486 7.882 120.706 7.99933 120.897 8.146C121.102 8.29267 121.264 8.46133 121.381 8.652C121.498 8.828 121.557 9.01133 121.557 9.202C121.557 9.422 121.454 9.64933 121.249 9.884C121.058 10.1187 120.824 10.3387 120.545 10.544C120.266 10.7347 119.988 10.896 119.709 11.028C119.43 11.1453 119.21 11.204 119.049 11.204C118.961 11.204 118.88 11.1673 118.807 11.094C118.748 11.006 118.719 10.9033 118.719 10.786C118.719 10.5807 118.807 10.4193 118.983 10.302C119.174 10.1847 119.379 10.082 119.599 9.994C119.819 9.89133 120.017 9.774 120.193 9.642C120.384 9.51 120.479 9.32667 120.479 9.092C120.479 9.06267 120.442 8.98933 120.369 8.872C120.296 8.75467 120.098 8.696 119.775 8.696C119.628 8.696 119.46 8.784 119.269 8.96C119.078 9.12133 118.895 9.34867 118.719 9.642C118.543 9.92067 118.396 10.258 118.279 10.654C118.162 11.0353 118.103 11.4533 118.103 11.908C118.103 12.2893 118.169 12.634 118.301 12.942C118.448 13.25 118.631 13.514 118.851 13.734C119.071 13.9393 119.328 14.1007 119.621 14.218C119.914 14.3353 120.215 14.394 120.523 14.394C120.743 14.394 120.978 14.35 121.227 14.262C121.491 14.1593 121.733 14.0567 121.953 13.954C122.188 13.8367 122.386 13.734 122.547 13.646C122.723 13.5433 122.833 13.492 122.877 13.492C122.921 13.492 122.965 13.514 123.009 13.558C123.068 13.602 123.104 13.646 123.119 13.69ZM121.865 4.384C121.865 4.50133 121.777 4.67 121.601 4.89C121.425 5.11 121.212 5.33733 120.963 5.572C120.728 5.80667 120.479 6.02667 120.215 6.232C119.966 6.42267 119.768 6.55467 119.621 6.628C119.504 6.68667 119.401 6.72333 119.313 6.738C119.225 6.75267 119.152 6.76 119.093 6.76C118.976 6.76 118.829 6.694 118.653 6.562C118.477 6.43 118.389 6.30533 118.389 6.188C118.389 6.15867 118.455 6.122 118.587 6.078C118.719 6.01933 118.866 5.946 119.027 5.858C119.174 5.77 119.364 5.63067 119.599 5.44C119.848 5.23467 120.09 5.03667 120.325 4.846C120.574 4.64067 120.794 4.46467 120.985 4.318C121.19 4.17133 121.33 4.098 121.403 4.098C121.506 4.098 121.608 4.12733 121.711 4.186C121.814 4.24467 121.865 4.31067 121.865 4.384ZM129.623 13.096C129.623 13.3453 129.535 13.5653 129.359 13.756C129.198 13.932 128.985 14.086 128.721 14.218C128.472 14.3353 128.193 14.4307 127.885 14.504C127.577 14.5773 127.284 14.636 127.005 14.68C126.726 14.7093 126.477 14.7313 126.257 14.746C126.052 14.746 125.92 14.746 125.861 14.746C125.538 14.746 125.289 14.6947 125.113 14.592C124.937 14.4893 124.849 14.306 124.849 14.042C124.849 13.954 124.856 13.8807 124.871 13.822C124.886 13.7487 124.944 13.712 125.047 13.712C125.091 13.712 125.164 13.7267 125.267 13.756C125.37 13.7707 125.45 13.778 125.509 13.778C125.568 13.778 125.751 13.7707 126.059 13.756C126.382 13.7267 126.719 13.6827 127.071 13.624C127.438 13.5653 127.76 13.4847 128.039 13.382C128.332 13.2647 128.479 13.118 128.479 12.942C128.479 12.9127 128.325 12.8247 128.017 12.678C127.724 12.5167 127.276 12.2527 126.675 11.886C126.206 11.5927 125.876 11.2993 125.685 11.006C125.494 10.698 125.399 10.2873 125.399 9.774C125.399 9.45133 125.465 9.18733 125.597 8.982C125.744 8.77667 125.934 8.61533 126.169 8.498C126.418 8.38067 126.697 8.3 127.005 8.256C127.328 8.19733 127.665 8.168 128.017 8.168C128.046 8.168 128.134 8.18267 128.281 8.212C128.442 8.24133 128.611 8.29267 128.787 8.366C128.963 8.42467 129.117 8.50533 129.249 8.608C129.396 8.696 129.469 8.79867 129.469 8.916C129.469 8.94533 129.44 8.98933 129.381 9.048C129.337 9.10667 129.256 9.21667 129.139 9.378C129.095 9.36333 129.014 9.34133 128.897 9.312C128.794 9.28267 128.67 9.25333 128.523 9.224C128.391 9.18 128.252 9.15067 128.105 9.136C127.958 9.10667 127.841 9.092 127.753 9.092C127.372 9.092 127.064 9.16533 126.829 9.312C126.594 9.444 126.477 9.708 126.477 10.104C126.477 10.2947 126.55 10.4707 126.697 10.632C126.858 10.7933 127.056 10.9473 127.291 11.094C127.526 11.226 127.775 11.3653 128.039 11.512C128.318 11.644 128.574 11.7907 128.809 11.952C129.044 12.1133 129.234 12.2893 129.381 12.48C129.542 12.656 129.623 12.8613 129.623 13.096ZM132.803 5.88C132.803 5.90933 132.752 5.968 132.649 6.056C132.546 6.144 132.422 6.23933 132.275 6.342C132.143 6.43 132.004 6.51067 131.857 6.584C131.71 6.65733 131.593 6.694 131.505 6.694C131.446 6.694 131.366 6.694 131.263 6.694C131.175 6.67933 131.08 6.65 130.977 6.606C130.889 6.562 130.808 6.50333 130.735 6.43C130.662 6.342 130.625 6.232 130.625 6.1C130.625 5.89467 130.698 5.704 130.845 5.528C130.992 5.33733 131.182 5.242 131.417 5.242C131.461 5.242 131.556 5.264 131.703 5.308C131.864 5.33733 132.026 5.38133 132.187 5.44C132.348 5.49867 132.488 5.56467 132.605 5.638C132.737 5.71133 132.803 5.792 132.803 5.88ZM133.529 14.108C133.529 14.2107 133.448 14.2987 133.287 14.372C133.14 14.4453 133.03 14.482 132.957 14.482C132.81 14.482 132.678 14.3867 132.561 14.196C132.444 14.0053 132.341 13.7853 132.253 13.536C132.165 13.2867 132.092 13.052 132.033 12.832C131.974 12.5973 131.93 12.436 131.901 12.348C131.857 12.2013 131.798 12.0253 131.725 11.82C131.652 11.6147 131.578 11.4167 131.505 11.226C131.446 11.0353 131.395 10.8667 131.351 10.72C131.307 10.5733 131.285 10.4927 131.285 10.478C131.285 10.2727 131.322 10.082 131.395 9.906C131.483 9.73 131.586 9.642 131.703 9.642C131.835 9.642 131.974 9.74467 132.121 9.95C132.268 10.1553 132.407 10.4193 132.539 10.742C132.686 11.05 132.818 11.3947 132.935 11.776C133.052 12.1427 133.155 12.4947 133.243 12.832C133.331 13.1547 133.397 13.4407 133.441 13.69C133.5 13.9247 133.529 14.064 133.529 14.108ZM141.147 12.458C141.147 12.5313 141.11 12.6047 141.037 12.678C140.978 12.7367 140.942 12.8027 140.927 12.876C140.927 13.0373 140.956 13.1913 141.015 13.338C141.088 13.4847 141.125 13.6607 141.125 13.866C141.125 14.0567 141.066 14.152 140.949 14.152C140.802 14.152 140.692 14.174 140.619 14.218C140.56 14.2473 140.45 14.2767 140.289 14.306C140.201 14.306 140.106 14.2253 140.003 14.064C139.944 13.9907 139.893 13.9027 139.849 13.8C139.849 13.7853 139.805 13.8147 139.717 13.888C139.644 13.9613 139.512 14.0493 139.321 14.152C139.145 14.24 138.896 14.328 138.573 14.416C138.265 14.4893 137.869 14.526 137.385 14.526C136.974 14.526 136.615 14.438 136.307 14.262C135.999 14.0713 135.742 13.8293 135.537 13.536C135.346 13.2427 135.2 12.9127 135.097 12.546C135.009 12.1647 134.965 11.7833 134.965 11.402C134.965 11.05 135.002 10.72 135.075 10.412C135.163 10.0893 135.28 9.81067 135.427 9.576C135.574 9.32667 135.757 9.12867 135.977 8.982C136.197 8.83533 136.454 8.762 136.747 8.762C137.026 8.762 137.304 8.85 137.583 9.026C137.862 9.202 138.111 9.39267 138.331 9.598C138.551 9.80333 138.727 9.994 138.859 10.17C139.006 10.3313 139.079 10.412 139.079 10.412C138.874 9.268 138.69 8.234 138.529 7.31C138.456 6.914 138.382 6.52533 138.309 6.144C138.25 5.748 138.192 5.396 138.133 5.088C138.074 4.78 138.023 4.52333 137.979 4.318C137.95 4.098 137.935 3.966 137.935 3.922C137.92 3.834 137.906 3.68 137.891 3.46C137.876 3.22533 137.862 2.98333 137.847 2.734C137.832 2.48467 137.818 2.25733 137.803 2.052C137.788 1.84667 137.774 1.71467 137.759 1.656C137.715 1.50933 137.656 1.326 137.583 1.106C137.524 0.885999 137.495 0.761333 137.495 0.732C137.495 0.658666 137.532 0.570665 137.605 0.467999C137.678 0.350666 137.774 0.291999 137.891 0.291999C137.979 0.291999 138.06 0.299332 138.133 0.313999C138.206 0.328666 138.272 0.372666 138.331 0.446C138.39 0.519333 138.441 0.636666 138.485 0.797999C138.544 0.944665 138.595 1.15733 138.639 1.436C138.654 1.58267 138.698 1.86133 138.771 2.272C138.844 2.68267 138.918 3.13 138.991 3.614C139.064 4.098 139.138 4.56 139.211 5C139.284 5.44 139.336 5.76267 139.365 5.968C139.438 6.52533 139.534 7.134 139.651 7.794C139.783 8.43933 139.915 9.06267 140.047 9.664C140.179 10.2653 140.311 10.8007 140.443 11.27C140.575 11.7247 140.692 12.0327 140.795 12.194C140.824 12.2527 140.883 12.2967 140.971 12.326C141.059 12.3407 141.118 12.3847 141.147 12.458ZM139.519 12.898C139.504 12.854 139.409 12.6707 139.233 12.348C139.072 12.0107 138.859 11.6513 138.595 11.27C138.346 10.874 138.06 10.522 137.737 10.214C137.429 9.906 137.128 9.752 136.835 9.752C136.586 9.752 136.38 9.94267 136.219 10.324C136.072 10.7053 135.999 11.1453 135.999 11.644C135.999 12.2013 136.16 12.6487 136.483 12.986C136.82 13.3233 137.194 13.492 137.605 13.492C137.957 13.492 138.324 13.4333 138.705 13.316C139.086 13.1987 139.358 13.0593 139.519 12.898ZM148.965 13.69C148.979 13.7193 148.987 13.7633 148.987 13.822C148.987 13.91 148.921 14.042 148.789 14.218C148.745 14.2767 148.649 14.372 148.503 14.504C148.356 14.636 148.158 14.768 147.909 14.9C147.659 15.032 147.351 15.1493 146.985 15.252C146.633 15.3547 146.215 15.406 145.731 15.406C145.393 15.406 145.063 15.3327 144.741 15.186C144.418 15.0247 144.132 14.7973 143.883 14.504C143.633 14.196 143.428 13.822 143.267 13.382C143.105 12.9273 143.025 12.3993 143.025 11.798C143.025 11.226 143.098 10.6907 143.245 10.192C143.391 9.69333 143.575 9.25333 143.795 8.872C144.029 8.49067 144.286 8.19 144.565 7.97C144.843 7.75 145.115 7.64 145.379 7.64C145.613 7.64 145.848 7.69133 146.083 7.794C146.332 7.882 146.552 7.99933 146.743 8.146C146.948 8.29267 147.109 8.46133 147.227 8.652C147.344 8.828 147.403 9.01133 147.403 9.202C147.403 9.422 147.3 9.64933 147.095 9.884C146.904 10.1187 146.669 10.3387 146.391 10.544C146.112 10.7347 145.833 10.896 145.555 11.028C145.276 11.1453 145.056 11.204 144.895 11.204C144.807 11.204 144.726 11.1673 144.653 11.094C144.594 11.006 144.565 10.9033 144.565 10.786C144.565 10.5807 144.653 10.4193 144.829 10.302C145.019 10.1847 145.225 10.082 145.445 9.994C145.665 9.89133 145.863 9.774 146.039 9.642C146.229 9.51 146.325 9.32667 146.325 9.092C146.325 9.06267 146.288 8.98933 146.215 8.872C146.141 8.75467 145.943 8.696 145.621 8.696C145.474 8.696 145.305 8.784 145.115 8.96C144.924 9.12133 144.741 9.34867 144.565 9.642C144.389 9.92067 144.242 10.258 144.125 10.654C144.007 11.0353 143.949 11.4533 143.949 11.908C143.949 12.2893 144.015 12.634 144.147 12.942C144.293 13.25 144.477 13.514 144.697 13.734C144.917 13.9393 145.173 14.1007 145.467 14.218C145.76 14.3353 146.061 14.394 146.369 14.394C146.589 14.394 146.823 14.35 147.073 14.262C147.337 14.1593 147.579 14.0567 147.799 13.954C148.033 13.8367 148.231 13.734 148.393 13.646C148.569 13.5433 148.679 13.492 148.723 13.492C148.767 13.492 148.811 13.514 148.855 13.558C148.913 13.602 148.95 13.646 148.965 13.69ZM157.119 13.294C157.119 13.382 157.089 13.47 157.031 13.558C156.972 13.646 156.899 13.7267 156.811 13.8C156.737 13.8733 156.649 13.9393 156.547 13.998C156.459 14.042 156.378 14.064 156.305 14.064C156.055 14.064 155.733 14.0127 155.337 13.91C154.955 13.7927 154.647 13.6167 154.413 13.382C154.163 13.1327 153.943 12.8393 153.753 12.502C153.562 12.15 153.349 11.6367 153.115 10.962C152.953 11.6073 152.763 12.2453 152.543 12.876C152.337 13.5067 152 14.086 151.531 14.614C151.501 14.6433 151.457 14.658 151.399 14.658C151.296 14.658 151.186 14.6067 151.069 14.504C150.951 14.4013 150.893 14.2987 150.893 14.196C150.893 14.0933 150.878 13.8587 150.849 13.492C150.834 13.1107 150.812 12.6927 150.783 12.238C150.753 11.7687 150.724 11.2993 150.695 10.83C150.68 10.346 150.673 9.95 150.673 9.642C150.673 9.49533 150.68 9.30467 150.695 9.07C150.709 8.82067 150.753 8.608 150.827 8.432C150.841 8.40267 150.893 8.344 150.981 8.256C151.083 8.168 151.193 8.124 151.311 8.124C151.413 8.124 151.472 8.19 151.487 8.322C151.501 8.454 151.509 8.60067 151.509 8.762V12.238C151.509 12.3113 151.516 12.414 151.531 12.546C151.56 12.678 151.597 12.7733 151.641 12.832C151.802 12.48 151.949 12.0693 152.081 11.6C152.227 11.116 152.367 10.6613 152.499 10.236C152.631 9.796 152.763 9.42933 152.895 9.136C153.027 8.828 153.159 8.674 153.291 8.674C153.437 8.674 153.555 8.70333 153.643 8.762C153.731 8.82067 153.804 8.938 153.863 9.114C153.936 9.53933 153.995 9.92067 154.039 10.258C154.083 10.5807 154.134 10.874 154.193 11.138C154.266 11.402 154.361 11.6513 154.479 11.886C154.611 12.106 154.787 12.3113 155.007 12.502C155.212 12.6927 155.439 12.832 155.689 12.92C155.953 13.008 156.18 13.052 156.371 13.052C156.459 13.052 156.554 13.0373 156.657 13.008C156.759 12.964 156.833 12.942 156.877 12.942C156.935 12.942 156.987 12.9933 157.031 13.096C157.089 13.1987 157.119 13.2647 157.119 13.294ZM164.083 6.056C163.892 6.276 163.621 6.496 163.269 6.716C162.917 6.92133 162.565 7.112 162.213 7.288C161.861 7.464 161.553 7.618 161.289 7.75C161.025 7.86733 160.893 7.948 160.893 7.992C160.893 8.036 160.922 8.168 160.981 8.388C161.04 8.608 161.106 8.872 161.179 9.18C161.267 9.47333 161.355 9.78133 161.443 10.104C161.531 10.4267 161.604 10.7127 161.663 10.962C161.692 11.1087 161.729 11.2993 161.773 11.534C161.817 11.7687 161.854 12.0033 161.883 12.238C161.927 12.4727 161.964 12.6853 161.993 12.876C162.022 13.052 162.037 13.1473 162.037 13.162C162.037 13.382 162 13.6093 161.927 13.844C161.854 14.0787 161.736 14.196 161.575 14.196C161.487 14.196 161.406 14.1593 161.333 14.086C161.26 14.0127 161.194 13.932 161.135 13.844C161.076 13.7413 161.032 13.646 161.003 13.558C160.974 13.47 160.959 13.404 160.959 13.36C160.959 13.3307 160.959 13.2867 160.959 13.228C160.974 13.1693 160.981 13.1033 160.981 13.03C160.981 12.7513 160.937 12.348 160.849 11.82C160.82 11.6587 160.761 11.4093 160.673 11.072C160.585 10.7347 160.497 10.39 160.409 10.038C160.306 9.62733 160.189 9.18 160.057 8.696C159.998 8.49067 159.962 8.388 159.947 8.388C159.844 8.388 159.668 8.454 159.419 8.586C159.184 8.70333 158.913 8.85733 158.605 9.048C158.297 9.224 157.974 9.422 157.637 9.642C157.3 9.84733 156.984 10.0453 156.691 10.236C156.398 10.412 156.148 10.566 155.943 10.698C155.723 10.8153 155.591 10.874 155.547 10.874C155.356 10.874 155.202 10.808 155.085 10.676C154.968 10.544 154.909 10.3973 154.909 10.236C154.909 10.148 155.034 10.0233 155.283 9.862C155.518 9.686 155.818 9.49533 156.185 9.29C156.537 9.08467 156.926 8.872 157.351 8.652C157.762 8.432 158.143 8.234 158.495 8.058C158.862 7.882 159.162 7.73533 159.397 7.618C159.646 7.50067 159.771 7.442 159.771 7.442C159.639 6.76733 159.529 6.166 159.441 5.638C159.368 5.18333 159.294 4.76533 159.221 4.384C159.162 4.00267 159.133 3.79733 159.133 3.768C159.133 3.57733 159.17 3.438 159.243 3.35C159.331 3.24733 159.426 3.196 159.529 3.196C159.69 3.196 159.793 3.306 159.837 3.526C159.998 4.318 160.145 5.022 160.277 5.638C160.424 6.254 160.563 6.75267 160.695 7.134C160.827 7.10467 161.054 7.024 161.377 6.892C161.7 6.74533 162.037 6.59133 162.389 6.43C162.741 6.26867 163.056 6.12933 163.335 6.012C163.628 5.88 163.797 5.814 163.841 5.814C163.929 5.814 163.98 5.84333 163.995 5.902C164.024 5.96067 164.054 6.012 164.083 6.056ZM166.576 5.88C166.576 5.90933 166.525 5.968 166.422 6.056C166.32 6.144 166.195 6.23933 166.048 6.342C165.916 6.43 165.777 6.51067 165.63 6.584C165.484 6.65733 165.366 6.694 165.278 6.694C165.22 6.694 165.139 6.694 165.036 6.694C164.948 6.67933 164.853 6.65 164.75 6.606C164.662 6.562 164.582 6.50333 164.508 6.43C164.435 6.342 164.398 6.232 164.398 6.1C164.398 5.89467 164.472 5.704 164.618 5.528C164.765 5.33733 164.956 5.242 165.19 5.242C165.234 5.242 165.33 5.264 165.476 5.308C165.638 5.33733 165.799 5.38133 165.96 5.44C166.122 5.49867 166.261 5.56467 166.378 5.638C166.51 5.71133 166.576 5.792 166.576 5.88ZM167.302 14.108C167.302 14.2107 167.222 14.2987 167.06 14.372C166.914 14.4453 166.804 14.482 166.73 14.482C166.584 14.482 166.452 14.3867 166.334 14.196C166.217 14.0053 166.114 13.7853 166.026 13.536C165.938 13.2867 165.865 13.052 165.806 12.832C165.748 12.5973 165.704 12.436 165.674 12.348C165.63 12.2013 165.572 12.0253 165.498 11.82C165.425 11.6147 165.352 11.4167 165.278 11.226C165.22 11.0353 165.168 10.8667 165.124 10.72C165.08 10.5733 165.058 10.4927 165.058 10.478C165.058 10.2727 165.095 10.082 165.168 9.906C165.256 9.73 165.359 9.642 165.476 9.642C165.608 9.642 165.748 9.74467 165.894 9.95C166.041 10.1553 166.18 10.4193 166.312 10.742C166.459 11.05 166.591 11.3947 166.708 11.776C166.826 12.1427 166.928 12.4947 167.016 12.832C167.104 13.1547 167.17 13.4407 167.214 13.69C167.273 13.9247 167.302 14.064 167.302 14.108ZM174.81 13.69C174.825 13.7193 174.832 13.7633 174.832 13.822C174.832 13.91 174.766 14.042 174.634 14.218C174.59 14.2767 174.495 14.372 174.348 14.504C174.202 14.636 174.004 14.768 173.754 14.9C173.505 15.032 173.197 15.1493 172.83 15.252C172.478 15.3547 172.06 15.406 171.576 15.406C171.239 15.406 170.909 15.3327 170.586 15.186C170.264 15.0247 169.978 14.7973 169.728 14.504C169.479 14.196 169.274 13.822 169.112 13.382C168.951 12.9273 168.87 12.3993 168.87 11.798C168.87 11.226 168.944 10.6907 169.09 10.192C169.237 9.69333 169.42 9.25333 169.64 8.872C169.875 8.49067 170.132 8.19 170.41 7.97C170.689 7.75 170.96 7.64 171.224 7.64C171.459 7.64 171.694 7.69133 171.928 7.794C172.178 7.882 172.398 7.99933 172.588 8.146C172.794 8.29267 172.955 8.46133 173.072 8.652C173.19 8.828 173.248 9.01133 173.248 9.202C173.248 9.422 173.146 9.64933 172.94 9.884C172.75 10.1187 172.515 10.3387 172.236 10.544C171.958 10.7347 171.679 10.896 171.4 11.028C171.122 11.1453 170.902 11.204 170.74 11.204C170.652 11.204 170.572 11.1673 170.498 11.094C170.44 11.006 170.41 10.9033 170.41 10.786C170.41 10.5807 170.498 10.4193 170.674 10.302C170.865 10.1847 171.07 10.082 171.29 9.994C171.51 9.89133 171.708 9.774 171.884 9.642C172.075 9.51 172.17 9.32667 172.17 9.092C172.17 9.06267 172.134 8.98933 172.06 8.872C171.987 8.75467 171.789 8.696 171.466 8.696C171.32 8.696 171.151 8.784 170.96 8.96C170.77 9.12133 170.586 9.34867 170.41 9.642C170.234 9.92067 170.088 10.258 169.97 10.654C169.853 11.0353 169.794 11.4533 169.794 11.908C169.794 12.2893 169.86 12.634 169.992 12.942C170.139 13.25 170.322 13.514 170.542 13.734C170.762 13.9393 171.019 14.1007 171.312 14.218C171.606 14.3353 171.906 14.394 172.214 14.394C172.434 14.394 172.669 14.35 172.918 14.262C173.182 14.1593 173.424 14.0567 173.644 13.954C173.879 13.8367 174.077 13.734 174.238 13.646C174.414 13.5433 174.524 13.492 174.568 13.492C174.612 13.492 174.656 13.514 174.7 13.558C174.759 13.602 174.796 13.646 174.81 13.69ZM179.29 15.362C179.29 15.4793 179.246 15.5673 179.158 15.626C179.07 15.6847 178.968 15.714 178.85 15.714C178.718 15.714 178.579 15.5893 178.432 15.34C178.3 15.0907 178.168 14.7753 178.036 14.394C177.904 14.0127 177.78 13.602 177.662 13.162C177.545 12.7073 177.442 12.2893 177.354 11.908C177.266 11.512 177.193 11.182 177.134 10.918C177.09 10.654 177.068 10.5073 177.068 10.478C177.068 10.4193 177.039 10.2653 176.98 10.016C176.936 9.76667 176.87 9.378 176.782 8.85C176.709 8.322 176.621 7.64 176.518 6.804C176.43 5.95333 176.335 4.90467 176.232 3.658C176.232 3.526 176.254 3.35733 176.298 3.152C176.342 2.94667 176.445 2.844 176.606 2.844C176.812 2.844 176.966 2.98333 177.068 3.262C177.186 3.54067 177.274 3.88533 177.332 4.296C177.406 4.70667 177.457 5.13933 177.486 5.594C177.516 6.034 177.552 6.42267 177.596 6.76C177.655 7.22933 177.706 7.65467 177.75 8.036C177.809 8.41733 177.86 8.79867 177.904 9.18C177.963 9.54667 178.029 9.93533 178.102 10.346C178.19 10.7567 178.293 11.2113 178.41 11.71L179.29 15.362ZM183.931 15.362C183.931 15.4793 183.887 15.5673 183.799 15.626C183.711 15.6847 183.608 15.714 183.491 15.714C183.359 15.714 183.22 15.5893 183.073 15.34C182.941 15.0907 182.809 14.7753 182.677 14.394C182.545 14.0127 182.42 13.602 182.303 13.162C182.186 12.7073 182.083 12.2893 181.995 11.908C181.907 11.512 181.834 11.182 181.775 10.918C181.731 10.654 181.709 10.5073 181.709 10.478C181.709 10.4193 181.68 10.2653 181.621 10.016C181.577 9.76667 181.511 9.378 181.423 8.85C181.35 8.322 181.262 7.64 181.159 6.804C181.071 5.95333 180.976 4.90467 180.873 3.658C180.873 3.526 180.895 3.35733 180.939 3.152C180.983 2.94667 181.086 2.844 181.247 2.844C181.452 2.844 181.606 2.98333 181.709 3.262C181.826 3.54067 181.914 3.88533 181.973 4.296C182.046 4.70667 182.098 5.13933 182.127 5.594C182.156 6.034 182.193 6.42267 182.237 6.76C182.296 7.22933 182.347 7.65467 182.391 8.036C182.45 8.41733 182.501 8.79867 182.545 9.18C182.604 9.54667 182.67 9.93533 182.743 10.346C182.831 10.7567 182.934 11.2113 183.051 11.71L183.931 15.362ZM191.762 13.69C191.776 13.7193 191.784 13.7633 191.784 13.822C191.784 13.91 191.718 14.042 191.586 14.218C191.542 14.2767 191.446 14.372 191.3 14.504C191.153 14.636 190.955 14.768 190.706 14.9C190.456 15.032 190.148 15.1493 189.782 15.252C189.43 15.3547 189.012 15.406 188.528 15.406C188.19 15.406 187.86 15.3327 187.538 15.186C187.215 15.0247 186.929 14.7973 186.68 14.504C186.43 14.196 186.225 13.822 186.064 13.382C185.902 12.9273 185.822 12.3993 185.822 11.798C185.822 11.226 185.895 10.6907 186.042 10.192C186.188 9.69333 186.372 9.25333 186.592 8.872C186.826 8.49067 187.083 8.19 187.362 7.97C187.64 7.75 187.912 7.64 188.176 7.64C188.41 7.64 188.645 7.69133 188.88 7.794C189.129 7.882 189.349 7.99933 189.54 8.146C189.745 8.29267 189.906 8.46133 190.024 8.652C190.141 8.828 190.2 9.01133 190.2 9.202C190.2 9.422 190.097 9.64933 189.892 9.884C189.701 10.1187 189.466 10.3387 189.188 10.544C188.909 10.7347 188.63 10.896 188.352 11.028C188.073 11.1453 187.853 11.204 187.692 11.204C187.604 11.204 187.523 11.1673 187.45 11.094C187.391 11.006 187.362 10.9033 187.362 10.786C187.362 10.5807 187.45 10.4193 187.626 10.302C187.816 10.1847 188.022 10.082 188.242 9.994C188.462 9.89133 188.66 9.774 188.836 9.642C189.026 9.51 189.122 9.32667 189.122 9.092C189.122 9.06267 189.085 8.98933 189.012 8.872C188.938 8.75467 188.74 8.696 188.418 8.696C188.271 8.696 188.102 8.784 187.912 8.96C187.721 9.12133 187.538 9.34867 187.362 9.642C187.186 9.92067 187.039 10.258 186.922 10.654C186.804 11.0353 186.746 11.4533 186.746 11.908C186.746 12.2893 186.812 12.634 186.944 12.942C187.09 13.25 187.274 13.514 187.494 13.734C187.714 13.9393 187.97 14.1007 188.264 14.218C188.557 14.3353 188.858 14.394 189.166 14.394C189.386 14.394 189.62 14.35 189.87 14.262C190.134 14.1593 190.376 14.0567 190.596 13.954C190.83 13.8367 191.028 13.734 191.19 13.646C191.366 13.5433 191.476 13.492 191.52 13.492C191.564 13.492 191.608 13.514 191.652 13.558C191.71 13.602 191.747 13.646 191.762 13.69ZM198.266 13.096C198.266 13.3453 198.178 13.5653 198.002 13.756C197.84 13.932 197.628 14.086 197.364 14.218C197.114 14.3353 196.836 14.4307 196.528 14.504C196.22 14.5773 195.926 14.636 195.648 14.68C195.369 14.7093 195.12 14.7313 194.9 14.746C194.694 14.746 194.562 14.746 194.504 14.746C194.181 14.746 193.932 14.6947 193.756 14.592C193.58 14.4893 193.492 14.306 193.492 14.042C193.492 13.954 193.499 13.8807 193.514 13.822C193.528 13.7487 193.587 13.712 193.69 13.712C193.734 13.712 193.807 13.7267 193.91 13.756C194.012 13.7707 194.093 13.778 194.152 13.778C194.21 13.778 194.394 13.7707 194.702 13.756C195.024 13.7267 195.362 13.6827 195.714 13.624C196.08 13.5653 196.403 13.4847 196.682 13.382C196.975 13.2647 197.122 13.118 197.122 12.942C197.122 12.9127 196.968 12.8247 196.66 12.678C196.366 12.5167 195.919 12.2527 195.318 11.886C194.848 11.5927 194.518 11.2993 194.328 11.006C194.137 10.698 194.042 10.2873 194.042 9.774C194.042 9.45133 194.108 9.18733 194.24 8.982C194.386 8.77667 194.577 8.61533 194.812 8.498C195.061 8.38067 195.34 8.3 195.648 8.256C195.97 8.19733 196.308 8.168 196.66 8.168C196.689 8.168 196.777 8.18267 196.924 8.212C197.085 8.24133 197.254 8.29267 197.43 8.366C197.606 8.42467 197.76 8.50533 197.892 8.608C198.038 8.696 198.112 8.79867 198.112 8.916C198.112 8.94533 198.082 8.98933 198.024 9.048C197.98 9.10667 197.899 9.21667 197.782 9.378C197.738 9.36333 197.657 9.34133 197.54 9.312C197.437 9.28267 197.312 9.25333 197.166 9.224C197.034 9.18 196.894 9.15067 196.748 9.136C196.601 9.10667 196.484 9.092 196.396 9.092C196.014 9.092 195.706 9.16533 195.472 9.312C195.237 9.444 195.12 9.708 195.12 10.104C195.12 10.2947 195.193 10.4707 195.34 10.632C195.501 10.7933 195.699 10.9473 195.934 11.094C196.168 11.226 196.418 11.3653 196.682 11.512C196.96 11.644 197.217 11.7907 197.452 11.952C197.686 12.1133 197.877 12.2893 198.024 12.48C198.185 12.656 198.266 12.8613 198.266 13.096Z" fill="#51587D"/>
</svg>
