<svg width="42" height="42" viewBox="0 0 42 42" fill="none" xmlns="http://www.w3.org/2000/svg">
<circle cx="21" cy="21" r="21" fill="#EC8989"/>
<mask id="mask0_272_1820" style="mask-type:alpha" maskUnits="userSpaceOnUse" x="0" y="0" width="42" height="42">
<path d="M42 21C42 32.598 32.598 42 21 42C9.40202 42 0 32.598 0 21C0 9.40202 9.40202 0 21 0C32.598 0 42 9.40202 42 21Z" fill="#EC8989"/>
</mask>
<g mask="url(#mask0_272_1820)">
<path d="M3.11191 38.9054C3.11191 38.9054 1.3081 22.9951 12.1845 17L27.5501 17.3258C27.5501 17.3258 34.1182 19.5723 35 38.511L19.7583 45L3.11191 38.9054Z" fill="#5154A1"/>
<path d="M27.2857 16.8164C27.2857 16.8164 23.7639 21.2692 19.1255 21.0572L20.0333 24.4896C20.0333 24.4896 27.3917 20.0036 27.2857 16.8164Z" fill="#373684"/>
<path d="M27.2855 16.8164C27.2855 16.8164 23.4953 21.0042 18.8569 20.7922L19.7515 24.2212C19.7515 24.2212 26.444 20.653 27.2855 16.8164Z" fill="#FAF3ED"/>
<path d="M17.6908 20.544L16.9784 24.0459C16.9784 24.0459 12.9199 19.4473 12.6714 16.502C12.6681 16.502 16.1568 20.3087 17.6908 20.544Z" fill="#373684"/>
<path d="M17.4989 20.4976L16.6574 23.8869C16.6574 23.8869 12.9202 19.444 12.6816 16.502C13.8326 18.3026 15.5165 19.6993 17.4989 20.4976Z" fill="#FAF3ED"/>
<path d="M18.7577 22.3759C18.7577 22.3759 19.5065 31.0331 19.9836 33.011C20.4607 34.989 18.2442 37.0332 18.1117 37.7157H15.2558C15.2558 37.7157 13.8874 35.2607 14.1922 33.4086C14.497 31.5566 17.8831 22.2666 17.8831 22.2666L18.7577 22.3759Z" fill="#C7361A"/>
<path d="M18.6083 22.3226C18.6083 22.3226 19.3571 30.9798 19.8342 32.9577C20.3113 34.9357 18.0915 36.9798 17.959 37.6623H15.113C15.113 37.6623 13.7414 35.2073 14.0495 33.3553C14.3576 31.5032 17.7304 22.21 17.7304 22.21L18.6083 22.3226Z" fill="#E8461C"/>
<path d="M17.7242 22.0011L18.1317 21.5671C18.1554 21.5407 18.1849 21.5203 18.2179 21.5075C18.2503 21.4939 18.2855 21.4882 18.3206 21.4909C18.3565 21.4937 18.3914 21.5039 18.4233 21.5207C18.4539 21.5375 18.48 21.5614 18.4995 21.5903L18.9203 22.18C18.9394 22.2052 18.9532 22.2342 18.9606 22.265C18.968 22.2957 18.9689 22.3278 18.9633 22.3589C18.9589 22.3901 18.9481 22.42 18.9315 22.4468C18.915 22.4736 18.8931 22.4967 18.8672 22.5146L18.2775 22.9321C18.249 22.9526 18.2161 22.9662 18.1814 22.9719C18.1466 22.9802 18.1103 22.9802 18.0754 22.9719C18.0413 22.962 18.0097 22.9451 17.9827 22.9222C17.9553 22.8987 17.9337 22.8692 17.9197 22.836L17.6778 22.2628C17.6647 22.2185 17.6647 22.1713 17.6778 22.127C17.6806 22.0814 17.6967 22.0376 17.7242 22.0011Z" fill="#C7361A"/>
<path d="M17.6476 21.9745L18.0419 21.5537C18.0653 21.5295 18.0935 21.5103 18.1247 21.4974C18.1573 21.4891 18.1915 21.4891 18.2241 21.4974C18.2579 21.4979 18.2909 21.5071 18.3202 21.5239C18.3508 21.5407 18.3769 21.5646 18.3964 21.5935L18.8006 22.1634C18.818 22.1871 18.8303 22.2142 18.837 22.2429C18.8436 22.2723 18.8436 22.3029 18.837 22.3323C18.8324 22.3631 18.8211 22.3925 18.8039 22.4185C18.7886 22.4443 18.7683 22.4668 18.7442 22.4847L18.181 22.8856C18.1519 22.905 18.1192 22.9185 18.0849 22.9254C18.051 22.932 18.0162 22.932 17.9822 22.9254C17.9492 22.9155 17.9187 22.8985 17.8928 22.8757C17.8665 22.8533 17.846 22.8249 17.8331 22.7929L17.6012 22.2396C17.588 22.1975 17.588 22.1524 17.6012 22.1104C17.6026 22.0614 17.6188 22.014 17.6476 21.9745Z" fill="#E8461C"/>
<path d="M13.8971 16.7829C13.5266 16.7829 13.1597 16.7098 12.8174 16.5679C12.4751 16.426 12.1641 16.2181 11.9023 15.9559C11.6404 15.6937 11.4328 15.3825 11.2913 15.0401C11.1498 14.6976 11.0772 14.3306 11.0776 13.9601C11.0776 13.2123 11.3747 12.4952 11.9035 11.9664C12.4322 11.4377 13.1493 11.1406 13.8971 11.1406C14.6452 11.1406 15.3627 11.4376 15.892 11.9662C16.4213 12.4949 16.719 13.212 16.7199 13.9601C16.7199 14.7087 16.4225 15.4267 15.8931 15.9561C15.3637 16.4855 14.6458 16.7829 13.8971 16.7829Z" fill="#F39672"/>
<path d="M25.2046 13.9834C25.2022 13.4518 25.3224 12.9269 25.5559 12.4494C25.7613 12.0183 26.0884 11.6566 26.4968 11.4091C26.8651 11.1891 27.3014 11.1125 27.7226 11.1937C28.1624 11.288 28.5571 11.5286 28.8424 11.8762C29.1738 12.2649 29.4017 12.731 29.5051 13.2313C29.6167 13.7586 29.6088 14.3043 29.4819 14.8282C29.3683 15.3213 29.1312 15.7773 28.7928 16.1534C28.4938 16.484 28.0924 16.7046 27.653 16.7796C27.5686 16.7928 27.4833 16.7995 27.3979 16.7995C27.2549 16.8002 27.1124 16.7824 26.9739 16.7465C26.4436 16.5925 25.9913 16.2432 25.7082 15.7691C25.3757 15.2331 25.2012 14.6141 25.2046 13.9834Z" fill="#F39672"/>
<path d="M20.0467 20.835C15.6502 20.835 12.0952 17.724 12.0952 13.8775C12.0952 10.0309 15.6601 6.91992 20.0467 6.91992C24.4333 6.91992 27.9982 10.0309 27.9982 13.8775C27.9982 17.724 24.4432 20.835 20.0467 20.835Z" fill="#F39672"/>
<path d="M22.0704 12.2973C22.0891 12.3005 22.1081 12.3005 22.1268 12.2973L23.5812 11.7109C23.6175 11.6962 23.6465 11.6678 23.662 11.6318C23.6775 11.5959 23.6783 11.5552 23.6641 11.5187C23.6493 11.4825 23.6209 11.4535 23.5849 11.438C23.549 11.4225 23.5084 11.4217 23.4719 11.4359L22.0141 12.0223C21.9959 12.0292 21.9793 12.0398 21.9653 12.0533C21.9512 12.0669 21.9401 12.0832 21.9327 12.1012C21.9252 12.1192 21.9216 12.1385 21.9219 12.158C21.9222 12.1775 21.9265 12.1967 21.9346 12.2145C21.9468 12.24 21.9661 12.2614 21.9902 12.2761C22.0144 12.2908 22.0422 12.2982 22.0704 12.2973Z" fill="black"/>
<path d="M16.3856 12.1872C16.4158 12.1871 16.4453 12.1779 16.4701 12.1608C16.495 12.1436 16.514 12.1193 16.5248 12.0911C16.5316 12.073 16.5349 12.0538 16.5343 12.0345C16.5336 12.0152 16.5292 11.9962 16.5212 11.9787C16.5131 11.9611 16.5017 11.9453 16.4876 11.9322C16.4734 11.919 16.4568 11.9089 16.4386 11.9022L14.9709 11.3456C14.934 11.3316 14.893 11.3328 14.857 11.349C14.821 11.3651 14.7928 11.3949 14.7787 11.4318C14.7647 11.4687 14.7659 11.5096 14.7821 11.5457C14.7982 11.5817 14.828 11.6098 14.8649 11.6239L16.3326 12.1805C16.3497 12.186 16.3677 12.1883 16.3856 12.1872Z" fill="black"/>
<path d="M15.1928 13.8013C15.0893 13.8013 14.9867 13.7809 14.8911 13.7413C14.7954 13.7016 14.7085 13.6435 14.6353 13.5703C14.562 13.4971 14.5039 13.4102 14.4643 13.3145C14.4247 13.2188 14.4043 13.1163 14.4043 13.0127C14.4052 12.8042 14.4887 12.6045 14.6364 12.4573C14.7842 12.3102 14.9843 12.2275 15.1928 12.2275C15.4014 12.2275 15.6015 12.3102 15.7492 12.4573C15.897 12.6045 15.9805 12.8042 15.9813 13.0127C15.9813 13.1163 15.961 13.2188 15.9213 13.3145C15.8817 13.4102 15.8236 13.4971 15.7504 13.5703C15.6772 13.6435 15.5902 13.7016 15.4946 13.7413C15.3989 13.7809 15.2964 13.8013 15.1928 13.8013Z" fill="#1B1935"/>
<path d="M23.1938 13.8013C22.9847 13.8013 22.7841 13.7182 22.6362 13.5703C22.4883 13.4224 22.4053 13.2219 22.4053 13.0127C22.4061 12.8042 22.4896 12.6045 22.6374 12.4573C22.7852 12.3102 22.9852 12.2275 23.1938 12.2275C23.402 12.2275 23.6017 12.3103 23.749 12.4575C23.8963 12.6048 23.979 12.8045 23.979 13.0127C23.9794 13.1161 23.9595 13.2186 23.9202 13.3143C23.8809 13.4099 23.8231 13.4969 23.7502 13.5701C23.6772 13.6434 23.5905 13.7015 23.4951 13.7412C23.3996 13.7808 23.2972 13.8013 23.1938 13.8013Z" fill="#1B1935"/>
<path d="M28.8427 15.0505C28.987 14.7111 29.0603 14.3458 29.0581 13.977C29.0559 13.6095 28.9781 13.2463 28.8295 12.9102C28.6964 12.6027 28.4865 12.3346 28.2199 12.1316C27.9817 11.9499 27.6912 11.85 27.3916 11.8467C27.3916 11.8467 29.3331 12.4861 28.8427 15.0505Z" fill="#BC6A4F"/>
<path d="M27.3914 11.1747C27.0559 11.1777 26.7278 11.2741 26.4438 11.453C26.5665 11.3319 26.7173 11.2432 26.8827 11.1946C27.048 11.1461 27.2228 11.1392 27.3914 11.1747Z" fill="#BC6A4F"/>
<path d="M16.6636 19.2852C17.1307 19.6463 18.0617 19.8915 19.1351 19.8915C20.2086 19.8915 21.123 19.6463 21.6067 19.2852C21.6067 19.2852 19.1252 20.2228 16.6636 19.2852Z" fill="#BC6A4F"/>
<path d="M23.7341 6.62891H23.4028V8.12644H23.7341V6.62891Z" fill="#1D1D1B"/>
<path d="M24.9563 7.20508H24.625V8.70261H24.9563V7.20508Z" fill="#1D1D1B"/>
<path d="M26.1228 8.12598H25.7915V9.62351H26.1228V8.12598Z" fill="#1D1D1B"/>
<path d="M27.0838 9.26562H26.7524V10.7632H27.0838V9.26562Z" fill="#1D1D1B"/>
<path d="M22.6106 6.19141H22.2793V7.68894H22.6106V6.19141Z" fill="#1D1D1B"/>
<path d="M21.2058 5.87988H20.8745V7.37741H21.2058V5.87988Z" fill="#1D1D1B"/>
<path d="M20.2122 5.87988H19.8809V7.37741H20.2122V5.87988Z" fill="#1D1D1B"/>
<path d="M19.1087 5.87988H18.7773V7.37741H19.1087V5.87988Z" fill="#1D1D1B"/>
<path d="M17.9495 6.19141H17.6182V7.68894H17.9495V6.19141Z" fill="#1D1D1B"/>
<path d="M16.8919 6.62891H16.5605V8.12644H16.8919V6.62891Z" fill="#1D1D1B"/>
<path d="M15.8054 7.20508H15.4741V8.70261H15.8054V7.20508Z" fill="#1D1D1B"/>
<path d="M14.825 7.85742H14.4937V9.35495H14.825V7.85742Z" fill="#1D1D1B"/>
<path d="M22.0441 15.1803C21.7592 14.8961 21.3732 14.7364 20.9707 14.7363H17.3064C17.107 14.736 16.9096 14.7751 16.7253 14.8513C16.5411 14.9275 16.3738 15.0393 16.2329 15.1803C15.9478 15.4649 15.787 15.8509 15.7856 16.2537V21.3361C15.9869 21.3365 16.1863 21.2972 16.3724 21.2205C16.5585 21.1438 16.7276 21.0311 16.8701 20.8889C17.0126 20.7467 17.1256 20.5779 17.2028 20.3919C17.2799 20.206 17.3196 20.0067 17.3196 19.8054V16.2537H20.9641V19.8054C20.9641 20.2114 21.1253 20.6007 21.4124 20.8877C21.6994 21.1748 22.0888 21.3361 22.4947 21.3361V16.2537C22.4938 16.054 22.4535 15.8564 22.3762 15.6722C22.2989 15.488 22.1861 15.3208 22.0441 15.1803Z" fill="#D8690E"/>
<path d="M18.3829 16.8691H19.178C19.2312 16.8695 19.2831 16.8857 19.3271 16.9156C19.3711 16.9455 19.4052 16.9878 19.4251 17.0372C19.445 17.0866 19.4498 17.1407 19.4388 17.1928C19.4279 17.2449 19.4016 17.2925 19.3635 17.3296L18.7639 17.9128L18.1907 17.323C18.1545 17.2852 18.1301 17.2375 18.1206 17.1859C18.1112 17.1343 18.117 17.0812 18.1374 17.0329C18.1579 16.9846 18.192 16.9434 18.2356 16.9143C18.2793 16.8852 18.3304 16.8695 18.3829 16.8691Z" fill="#D8690E"/>
<path d="M9.45117 35.0519C9.45117 35.0519 10.0078 37.5168 9.99453 37.4671C10.1844 37.3428 10.3878 37.2405 10.6008 37.1623C10.5372 36.4676 10.4265 35.778 10.2695 35.0982C10.0775 35.0089 9.87486 34.9443 9.66653 34.9061C9.66653 34.9061 9.99784 28.0579 11.9857 27.541C9.70298 27.9883 9.45117 35.0519 9.45117 35.0519Z" fill="#373684"/>
<path d="M9.45123 35.0527C7.576 34.7777 4.90563 34.8903 3.45117 34.9831V34.7081C3.45117 34.7081 8.1558 34.5888 9.45123 35.0527Z" fill="#373684"/>
<path d="M28.591 34.9528C28.591 34.9528 28.0377 37.4211 28.0476 37.3681C27.8586 37.2444 27.6563 37.1421 27.4446 37.0633C27.5095 36.3687 27.6202 35.6792 27.7759 34.9992C27.9685 34.9119 28.171 34.8485 28.3789 34.8104C28.3789 34.8104 27.8488 27.9588 25.8643 27.4453C28.1503 27.8992 28.591 34.9528 28.591 34.9528Z" fill="#373684"/>
<path d="M28.5913 34.9528C30.4698 34.6811 33.1402 34.7905 34.5947 34.8832V34.6115C34.5947 34.6115 29.8967 34.4923 28.5913 34.9528Z" fill="#373684"/>
<g clip-path="url(#clip0_272_1820)">
<path d="M10.332 37.494C10.332 37.494 10.2221 41.276 8.85418 40.076C8.85418 40.076 8.16171 41.9653 7.32788 40.5046C7.32788 40.5046 6.52678 42.6474 5.81861 40.4189C5.81861 40.4189 4.89052 43.2081 3.94804 40.1618C3.94804 40.1618 0.959599 45.2509 0.723979 37.494L10.332 37.494Z" fill="#F39672"/>
<path d="M9.21941 37.4941C9.21974 38.4501 9.08846 39.3717 8.85158 40.0762C8.85158 40.0762 9.32936 39.3262 9.21941 37.4941Z" fill="#BC6A4F"/>
<path d="M7.56883 37.4933C7.64344 39.5968 7.32797 40.5039 7.32797 40.5039C7.32797 40.5039 7.80576 39.7361 7.56883 37.4933Z" fill="#BC6A4F"/>
<path d="M6.18796 37.494C6.16583 38.543 6.0381 39.5551 5.81882 40.4189C5.96067 40.0456 6.06807 39.5859 6.13223 39.0775C6.19639 38.5691 6.2155 38.0264 6.18796 37.494Z" fill="#BC6A4F"/>
<path d="M3.59073 38.4755C3.66095 39.1038 3.78271 39.6803 3.94678 40.1611C3.83678 39.9953 3.74548 39.7506 3.68273 39.4535C3.61998 39.1565 3.58817 38.8183 3.59073 38.4755Z" fill="#BC6A4F"/>
</g>
<g clip-path="url(#clip1_272_1820)">
<path d="M37.5 37.494C37.5 37.494 37.39 41.276 36.0221 40.076C36.0221 40.076 35.3297 41.9653 34.4958 40.5046C34.4958 40.5046 33.6947 42.6474 32.9866 40.4189C32.9866 40.4189 32.0585 43.2081 31.116 40.1618C31.116 40.1618 28.1276 45.2509 27.8919 37.494L37.5 37.494Z" fill="#F39672"/>
<path d="M36.3874 37.4941C36.3877 38.4501 36.2564 39.3717 36.0195 40.0762C36.0195 40.0762 36.4973 39.3262 36.3874 37.4941Z" fill="#BC6A4F"/>
<path d="M34.7368 37.4933C34.8114 39.5968 34.4959 40.5039 34.4959 40.5039C34.4959 40.5039 34.9737 39.7361 34.7368 37.4933Z" fill="#BC6A4F"/>
<path d="M33.3559 37.494C33.3338 38.543 33.2061 39.5551 32.9868 40.4189C33.1286 40.0456 33.236 39.5859 33.3002 39.0775C33.3644 38.5691 33.3835 38.0264 33.3559 37.494Z" fill="#BC6A4F"/>
<path d="M30.7587 38.4755C30.8289 39.1038 30.9507 39.6803 31.1147 40.1611C31.0047 39.9953 30.9135 39.7506 30.8507 39.4535C30.788 39.1565 30.7561 38.8183 30.7587 38.4755Z" fill="#BC6A4F"/>
</g>
<path d="M2.66611 37.6627C2.66611 37.6627 2.27516 36.1122 2.41099 35.0586C2.41099 35.0586 7.57945 34.5815 10.1438 35.1779C10.1438 35.1779 10.5149 36.9405 10.379 37.6627H2.66611Z" fill="#FAF3ED"/>
<path d="M35.3796 37.5637C35.3796 37.5637 35.7705 36.0165 35.6346 34.9629C35.6346 34.9629 30.4662 34.4858 27.9018 35.0822C27.9018 35.0822 27.5308 36.8447 27.6666 37.5637H35.3796Z" fill="#FAF3ED"/>
</g>
<defs>
<clipPath id="clip0_272_1820">
<rect width="9.60805" height="4.30706" fill="white" transform="translate(10.332 41.8008) rotate(-180)"/>
</clipPath>
<clipPath id="clip1_272_1820">
<rect width="9.60805" height="4.30706" fill="white" transform="translate(37.5 41.8008) rotate(-180)"/>
</clipPath>
</defs>
</svg>
