<svg width="42" height="42" viewBox="0 0 42 42" fill="none" xmlns="http://www.w3.org/2000/svg">
<circle cx="20.8264" cy="20.8264" r="20.8264" fill="#46A882"/>
<mask id="mask0_430_8" style="mask-type:alpha" maskUnits="userSpaceOnUse" x="0" y="1" width="41" height="42">
<circle cx="20.8266" cy="21.8686" r="19.6322" fill="#A27474" stroke="black"/>
</mask>
<g mask="url(#mask0_430_8)">
<path d="M28.6116 17.7122H28.7369C32.5668 17.8344 35.2964 18.2988 35.6794 20.3476C37.2253 28.551 37.8346 39.797 37.8346 39.797L21.3139 44.7785H20.6175L4.85938 39.797C4.85938 39.797 5.35378 22.1316 6.38436 20.3476C7.0807 19.1745 9.51787 17.8304 13.3199 17.7041H28.6394L28.6116 17.7122Z" fill="#5154A1"/>
<path d="M14.606 22.9033C14.606 22.9033 21.2704 27.9676 27.2129 22.9033C27.2129 22.9033 24.436 40.9286 24.8213 43.098H17.4557L14.606 22.9033Z" fill="#373684"/>
<g clip-path="url(#clip0_430_8)">
<path d="M40.6113 37.4888C40.6113 37.4888 40.4961 41.4512 39.063 40.194C39.063 40.194 38.3375 42.1733 37.464 40.643C37.464 40.643 36.6247 42.888 35.8827 40.5532C35.8827 40.5532 34.9104 43.4754 33.923 40.2838C33.923 40.2838 30.7921 45.6156 30.5452 37.4888L40.6113 37.4888Z" fill="#EFB19E"/>
<path d="M39.4457 37.4882C39.446 38.4898 39.3085 39.4553 39.0603 40.1934C39.0603 40.1934 39.5609 39.4076 39.4457 37.4882Z" fill="#BC6A4F"/>
<path d="M37.7161 37.4884C37.7942 39.6922 37.4637 40.6426 37.4637 40.6426C37.4637 40.6426 37.9643 39.8381 37.7161 37.4884Z" fill="#BC6A4F"/>
<path d="M36.2694 37.4883C36.2462 38.5874 36.1124 39.6477 35.8827 40.5527C36.0313 40.1616 36.1438 39.68 36.211 39.1473C36.2782 38.6147 36.2983 38.0462 36.2694 37.4883Z" fill="#BC6A4F"/>
<path d="M33.5484 38.5172C33.6219 39.1755 33.7495 39.7795 33.9214 40.2832C33.8061 40.1095 33.7105 39.8531 33.6448 39.5419C33.579 39.2306 33.5457 38.8763 33.5484 38.5172V38.5172Z" fill="#BC6A4F"/>
</g>
<g clip-path="url(#clip1_430_8)">
<path d="M11.8013 37.1421C11.8013 37.1421 11.6861 41.1045 10.253 39.8473C10.253 39.8473 9.52748 41.8267 8.65389 40.2963C8.65389 40.2963 7.8146 42.5413 7.07267 40.2065C7.07267 40.2065 6.10033 43.1287 5.11292 39.9371C5.11292 39.9371 1.982 45.2689 1.73515 37.1421L11.8013 37.1421Z" fill="#EFB19E"/>
<path d="M10.6356 37.1415C10.636 38.1431 10.4984 39.1086 10.2502 39.8467C10.2502 39.8467 10.7508 39.0609 10.6356 37.1415Z" fill="#BC6A4F"/>
<path d="M8.90602 37.1417C8.98419 39.3455 8.65368 40.2959 8.65368 40.2959C8.65368 40.2959 9.15424 39.4915 8.90602 37.1417Z" fill="#BC6A4F"/>
<path d="M7.45935 37.1417C7.43616 38.2407 7.30235 39.301 7.07262 40.2061C7.22122 39.8149 7.33374 39.3333 7.40096 38.8007C7.46818 38.268 7.4882 37.6995 7.45935 37.1417Z" fill="#BC6A4F"/>
<path d="M4.73831 38.1705C4.81188 38.8288 4.93944 39.4328 5.11133 39.9365C4.99609 39.7628 4.90044 39.5064 4.8347 39.1952C4.76895 38.884 4.73563 38.5296 4.73831 38.1705V38.1705Z" fill="#BC6A4F"/>
</g>
<path d="M20.9755 36.6664L20.979 25.1494L20.5972 36.6803L20.9755 36.6664Z" fill="#2C2C6B"/>
<path d="M27.2131 24.2456C27.61 24.2456 27.9317 23.9239 27.9317 23.5271C27.9317 23.1303 27.61 22.8086 27.2131 22.8086C26.8163 22.8086 26.4946 23.1303 26.4946 23.5271C26.4946 23.9239 26.8163 24.2456 27.2131 24.2456Z" fill="#C9C5BD"/>
<path d="M27.265 24.0632C27.612 24.0632 27.8932 23.7819 27.8932 23.4349C27.8932 23.0879 27.612 22.8066 27.265 22.8066C26.918 22.8066 26.6367 23.0879 26.6367 23.4349C26.6367 23.7819 26.918 24.0632 27.265 24.0632Z" fill="white"/>
<path d="M26.3557 25.2847C26.7525 25.2847 27.0742 24.963 27.0742 24.5662C27.0742 24.1693 26.7525 23.8477 26.3557 23.8477C25.9589 23.8477 25.6372 24.1693 25.6372 24.5662C25.6372 24.963 25.9589 25.2847 26.3557 25.2847Z" fill="#C9C5BD"/>
<path d="M26.4076 25.1042C26.7545 25.1042 27.0358 24.8229 27.0358 24.4759C27.0358 24.1289 26.7545 23.8477 26.4076 23.8477C26.0606 23.8477 25.7793 24.1289 25.7793 24.4759C25.7793 24.8229 26.0606 25.1042 26.4076 25.1042Z" fill="white"/>
<path d="M25.637 26.4331C26.0338 26.4331 26.3555 26.1114 26.3555 25.7146C26.3555 25.3178 26.0338 24.9961 25.637 24.9961C25.2401 24.9961 24.9185 25.3178 24.9185 25.7146C24.9185 26.1114 25.2401 26.4331 25.637 26.4331Z" fill="#C9C5BD"/>
<path d="M25.6893 26.2497C26.0363 26.2497 26.3176 25.9684 26.3176 25.6214C26.3176 25.2744 26.0363 24.9932 25.6893 24.9932C25.3423 24.9932 25.061 25.2744 25.061 25.6214C25.061 25.9684 25.3423 26.2497 25.6893 26.2497Z" fill="white"/>
<path d="M25.1336 27.6655C25.5304 27.6655 25.8521 27.3439 25.8521 26.947C25.8521 26.5502 25.5304 26.2285 25.1336 26.2285C24.7367 26.2285 24.415 26.5502 24.415 26.947C24.415 27.3439 24.7367 27.6655 25.1336 27.6655Z" fill="#DDD5C5"/>
<path d="M25.1859 27.485C25.5329 27.485 25.8141 27.2038 25.8141 26.8568C25.8141 26.5098 25.5329 26.2285 25.1859 26.2285C24.8389 26.2285 24.5576 26.5098 24.5576 26.8568C24.5576 27.2038 24.8389 27.485 25.1859 27.485Z" fill="white"/>
<path d="M24.4153 28.7622C24.8121 28.7622 25.1338 28.4405 25.1338 28.0437C25.1338 27.6469 24.8121 27.3252 24.4153 27.3252C24.0185 27.3252 23.6968 27.6469 23.6968 28.0437C23.6968 28.4405 24.0185 28.7622 24.4153 28.7622Z" fill="#C9C5BD"/>
<path d="M24.4676 28.5778C24.8146 28.5778 25.0959 28.2965 25.0959 27.9496C25.0959 27.6026 24.8146 27.3213 24.4676 27.3213C24.1206 27.3213 23.8394 27.6026 23.8394 27.9496C23.8394 28.2965 24.1206 28.5778 24.4676 28.5778Z" fill="white"/>
<path d="M23.655 29.7583C24.0519 29.7583 24.3735 29.4366 24.3735 29.0398C24.3735 28.643 24.0519 28.3213 23.655 28.3213C23.2582 28.3213 22.9365 28.643 22.9365 29.0398C22.9365 29.4366 23.2582 29.7583 23.655 29.7583Z" fill="#C9C5BD"/>
<path d="M23.7074 29.5749C24.0543 29.5749 24.3356 29.2936 24.3356 28.9466C24.3356 28.5996 24.0543 28.3184 23.7074 28.3184C23.3604 28.3184 23.0791 28.5996 23.0791 28.9466C23.0791 29.2936 23.3604 29.5749 23.7074 29.5749Z" fill="white"/>
<path d="M22.718 30.6538C23.1148 30.6538 23.4365 30.3321 23.4365 29.9353C23.4365 29.5385 23.1148 29.2168 22.718 29.2168C22.3212 29.2168 21.9995 29.5385 21.9995 29.9353C21.9995 30.3321 22.3212 30.6538 22.718 30.6538Z" fill="#C9C5BD"/>
<path d="M22.7699 30.4733C23.1169 30.4733 23.3981 30.192 23.3981 29.8451C23.3981 29.4981 23.1169 29.2168 22.7699 29.2168C22.4229 29.2168 22.1416 29.4981 22.1416 29.8451C22.1416 30.192 22.4229 30.4733 22.7699 30.4733Z" fill="white"/>
<path d="M21.6282 31.1431C22.025 31.1431 22.3467 30.8214 22.3467 30.4246C22.3467 30.0277 22.025 29.7061 21.6282 29.7061C21.2314 29.7061 20.9097 30.0277 20.9097 30.4246C20.9097 30.8214 21.2314 31.1431 21.6282 31.1431Z" fill="#C9C5BD"/>
<path d="M21.68 30.9597C22.027 30.9597 22.3083 30.6784 22.3083 30.3314C22.3083 29.9844 22.027 29.7031 21.68 29.7031C21.333 29.7031 21.0518 29.9844 21.0518 30.3314C21.0518 30.6784 21.333 30.9597 21.68 30.9597Z" fill="white"/>
<path d="M20.2986 31.0493C20.6954 31.0493 21.0171 30.7276 21.0171 30.3308C21.0171 29.934 20.6954 29.6123 20.2986 29.6123C19.9018 29.6123 19.5801 29.934 19.5801 30.3308C19.5801 30.7276 19.9018 31.0493 20.2986 31.0493Z" fill="#C9C5BD"/>
<path d="M20.3509 30.8688C20.6979 30.8688 20.9792 30.5876 20.9792 30.2406C20.9792 29.8936 20.6979 29.6123 20.3509 29.6123C20.0039 29.6123 19.7227 29.8936 19.7227 30.2406C19.7227 30.5876 20.0039 30.8688 20.3509 30.8688Z" fill="white"/>
<path d="M19.1531 30.3316C19.5499 30.3316 19.8716 30.0099 19.8716 29.613C19.8716 29.2162 19.5499 28.8945 19.1531 28.8945C18.7563 28.8945 18.4346 29.2162 18.4346 29.613C18.4346 30.0099 18.7563 30.3316 19.1531 30.3316Z" fill="#C9C5BD"/>
<path d="M19.2088 30.1511C19.5558 30.1511 19.8371 29.8698 19.8371 29.5228C19.8371 29.1758 19.5558 28.8945 19.2088 28.8945C18.8618 28.8945 18.5806 29.1758 18.5806 29.5228C18.5806 29.8698 18.8618 30.1511 19.2088 30.1511Z" fill="white"/>
<path d="M18.1882 29.481C18.5851 29.481 18.9068 29.1593 18.9068 28.7625C18.9068 28.3656 18.5851 28.0439 18.1882 28.0439C17.7914 28.0439 17.4697 28.3656 17.4697 28.7625C17.4697 29.1593 17.7914 29.481 18.1882 29.481Z" fill="#C9C5BD"/>
<path d="M18.2401 29.2966C18.5871 29.2966 18.8683 29.0153 18.8683 28.6683C18.8683 28.3213 18.5871 28.04 18.2401 28.04C17.8931 28.04 17.6118 28.3213 17.6118 28.6683C17.6118 29.0153 17.8931 29.2966 18.2401 29.2966Z" fill="white"/>
<path d="M17.4695 28.4458C17.8663 28.4458 18.188 28.1241 18.188 27.7273C18.188 27.3305 17.8663 27.0088 17.4695 27.0088C17.0727 27.0088 16.751 27.3305 16.751 27.7273C16.751 28.1241 17.0727 28.4458 17.4695 28.4458Z" fill="#C9C5BD"/>
<path d="M17.5218 28.2653C17.8688 28.2653 18.1501 27.984 18.1501 27.6371C18.1501 27.2901 17.8688 27.0088 17.5218 27.0088C17.1748 27.0088 16.8936 27.2901 16.8936 27.6371C16.8936 27.984 17.1748 28.2653 17.5218 28.2653Z" fill="white"/>
<path d="M16.8933 27.3882C17.2901 27.3882 17.6118 27.0665 17.6118 26.6697C17.6118 26.2729 17.2901 25.9512 16.8933 25.9512C16.4965 25.9512 16.1748 26.2729 16.1748 26.6697C16.1748 27.0665 16.4965 27.3882 16.8933 27.3882Z" fill="#C9C5BD"/>
<path d="M16.9457 27.2077C17.2926 27.2077 17.5739 26.9264 17.5739 26.5794C17.5739 26.2325 17.2926 25.9512 16.9457 25.9512C16.5987 25.9512 16.3174 26.2325 16.3174 26.5794C16.3174 26.9264 16.5987 27.2077 16.9457 27.2077Z" fill="white"/>
<path d="M16.2756 26.4605C16.6725 26.4605 16.9942 26.1388 16.9942 25.742C16.9942 25.3451 16.6725 25.0234 16.2756 25.0234C15.8788 25.0234 15.5571 25.3451 15.5571 25.742C15.5571 26.1388 15.8788 26.4605 16.2756 26.4605Z" fill="#C9C5BD"/>
<path d="M16.3275 26.28C16.6745 26.28 16.9558 25.9987 16.9558 25.6517C16.9558 25.3047 16.6745 25.0234 16.3275 25.0234C15.9805 25.0234 15.6992 25.3047 15.6992 25.6517C15.6992 25.9987 15.9805 26.28 16.3275 26.28Z" fill="white"/>
<path d="M15.6472 25.4194C16.044 25.4194 16.3657 25.0978 16.3657 24.7009C16.3657 24.3041 16.044 23.9824 15.6472 23.9824C15.2504 23.9824 14.9287 24.3041 14.9287 24.7009C14.9287 25.0978 15.2504 25.4194 15.6472 25.4194Z" fill="#C9C5BD"/>
<path d="M15.6996 25.236C16.0465 25.236 16.3278 24.9547 16.3278 24.6078C16.3278 24.2608 16.0465 23.9795 15.6996 23.9795C15.3526 23.9795 15.0713 24.2608 15.0713 24.6078C15.0713 24.9547 15.3526 25.236 15.6996 25.236Z" fill="white"/>
<path d="M14.8733 24.4761C15.2701 24.4761 15.5918 24.1544 15.5918 23.7576C15.5918 23.3608 15.2701 23.0391 14.8733 23.0391C14.4765 23.0391 14.1548 23.3608 14.1548 23.7576C14.1548 24.1544 14.4765 24.4761 14.8733 24.4761Z" fill="#C9C5BD"/>
<path d="M14.929 24.2917C15.276 24.2917 15.5573 24.0104 15.5573 23.6634C15.5573 23.3164 15.276 23.0352 14.929 23.0352C14.5821 23.0352 14.3008 23.3164 14.3008 23.6634C14.3008 24.0104 14.5821 24.2917 14.929 24.2917Z" fill="white"/>
<path d="M34.0298 17.815V17.8393H8.59375C8.59375 14.3925 10.6452 9.39073 14.092 9.38379L27.348 6.25982C30.8017 6.23552 34.0298 14.3579 34.0298 17.815Z" fill="#ED8A29"/>
<path d="M12.9918 17.3703C12.2026 17.3703 11.4456 17.057 10.8872 16.4993C10.3287 15.9415 10.0146 15.1849 10.0137 14.3956C10.0146 13.6064 10.3287 12.8497 10.8872 12.292C11.4456 11.7342 12.2026 11.4209 12.9918 11.4209C13.7808 11.4209 14.5374 11.7343 15.0953 12.2922C15.6532 12.8501 15.9665 13.6067 15.9665 14.3956C15.9665 15.1846 15.6532 15.9412 15.0953 16.4991C14.5374 17.0569 13.7808 17.3703 12.9918 17.3703V17.3703Z" fill="#EFB19E"/>
<path d="M11.2981 17.6509C11.6949 17.6509 12.0166 17.3292 12.0166 16.9324C12.0166 16.5356 11.6949 16.2139 11.2981 16.2139C10.9013 16.2139 10.5796 16.5356 10.5796 16.9324C10.5796 17.3292 10.9013 17.6509 11.2981 17.6509Z" fill="#C49318"/>
<path d="M11.3539 17.4704C11.7008 17.4704 11.9821 17.1891 11.9821 16.8421C11.9821 16.4952 11.7008 16.2139 11.3539 16.2139C11.0069 16.2139 10.7256 16.4952 10.7256 16.8421C10.7256 17.1891 11.0069 17.4704 11.3539 17.4704Z" fill="#EDB61B"/>
<path d="M21.0451 22.9028C15.6615 22.9028 11.2983 19.0846 11.2983 14.3987C11.2983 9.71271 15.6615 5.89453 21.0451 5.89453C26.4287 5.89453 30.7884 9.71271 30.7884 14.3987C30.7884 19.0846 26.4253 22.9028 21.0451 22.9028Z" fill="#EFB19E"/>
<path d="M21.4508 18.4116C21.3166 18.4325 21.1812 18.4498 21.0447 18.4637C20.5102 18.5158 19.972 18.5158 19.4376 18.4637C19.2605 18.4637 19.0905 18.4255 18.9135 18.4012C17.0044 18.0992 16.0151 18.8247 17.1154 19.3384C18.0903 19.7308 19.1295 19.9391 20.1804 19.9528C21.2324 19.9393 22.2728 19.731 23.2488 19.3384C24.3492 18.8421 23.3599 18.1166 21.4508 18.4116Z" fill="#E28E74"/>
<path d="M27.7062 14.3988C27.703 13.8381 27.8302 13.2844 28.0775 12.7813C28.2948 12.328 28.6383 11.9471 29.0668 11.6844C29.4534 11.4593 29.9087 11.3828 30.3476 11.4692C30.8112 11.5703 31.2277 11.8231 31.5313 12.1877C31.8793 12.5984 32.1181 13.0903 32.2255 13.6178C32.3439 14.1735 32.3368 14.7486 32.2047 15.3013C32.0822 15.818 31.8316 16.2955 31.4757 16.6897C31.1618 17.04 30.7385 17.2736 30.2748 17.3527C30.1852 17.3665 30.0946 17.3735 30.004 17.3735C29.8531 17.3721 29.7029 17.3535 29.5562 17.3179C28.9958 17.1526 28.5193 16.7803 28.2233 16.2766C27.8803 15.7107 27.7012 15.0606 27.7062 14.3988V14.3988Z" fill="#EFB19E"/>
<path d="M31.5415 15.5092C31.6959 15.1535 31.7728 14.7689 31.7671 14.3811C31.7682 13.9923 31.6866 13.6078 31.5276 13.253C31.3863 12.93 31.1654 12.6481 30.8855 12.4338C30.6341 12.2415 30.3272 12.1356 30.0107 12.1318C30.0107 12.1318 32.0586 12.8052 31.5415 15.5092Z" fill="#BC6A4F"/>
<path d="M26.3555 19.6575C26.6884 19.4578 26.9757 19.1906 27.199 18.873C27.4231 18.5615 27.5803 18.2069 27.6606 17.8317C27.7341 17.4866 27.7198 17.1285 27.6189 16.7903C27.5249 16.4891 27.3377 16.2254 27.0844 16.0371C27.0844 16.0371 28.3513 17.7623 26.3555 19.6575Z" fill="#BC6A4F"/>
<path d="M14.8734 19.526C14.5039 19.4071 14.1633 19.212 13.8738 18.9533C13.5812 18.698 13.3448 18.3848 13.1796 18.0334C13.0329 17.7179 12.9684 17.3705 12.9921 17.0234C13.0119 16.7075 13.1337 16.4067 13.3392 16.166C13.3392 16.166 12.4958 18.1411 14.8734 19.526Z" fill="#BC6A4F"/>
<path d="M17.5737 18.7168C18.0666 19.0986 19.0489 19.3589 20.1805 19.3589C21.3121 19.3589 22.2944 19.0986 22.7908 18.7168C22.7908 18.7168 20.1701 19.6956 17.5737 18.7168Z" fill="#BC6A4F"/>
<path d="M11.3257 34.3789C11.3257 34.3789 11.9123 36.9822 11.8984 36.9267C12.0992 36.7976 12.3133 36.6905 12.5371 36.6073C12.4707 35.8748 12.3547 35.1477 12.19 34.4309C11.9875 34.3375 11.7741 34.2698 11.5548 34.2296C11.5548 34.2296 12.3497 32.4941 12.1761 29.3701C12.1192 31.0704 11.8331 32.7551 11.3257 34.3789V34.3789Z" fill="#373684"/>
<path d="M4.16837 37.1171C4.16837 37.1171 3.75882 35.4822 3.90113 34.3715C3.90113 34.3715 9.35072 33.8682 12.0547 34.4964C12.0547 34.4964 12.4469 36.3569 12.3046 37.1171H4.16837Z" fill="#FAF3ED"/>
<path d="M11.3258 34.3786C9.3473 34.0905 6.53226 34.2085 4.99805 34.3057V34.0176C4.99805 34.0176 9.95126 33.8753 11.3258 34.3786Z" fill="#373684"/>
<path d="M31.2983 34.8052C31.2983 34.8052 30.7117 37.405 30.7256 37.353C30.7395 37.3009 30.0869 37.0302 30.0869 37.0302C30.1553 36.298 30.2713 35.571 30.434 34.8538C30.6377 34.7605 30.8523 34.6929 31.0727 34.6525C31.0727 34.6525 30.2744 32.9169 30.4514 29.793C30.506 31.4943 30.7909 33.1804 31.2983 34.8052V34.8052Z" fill="#373684"/>
<path d="M38.4557 37.5581C38.4557 37.5581 38.8688 35.9267 38.7265 34.8125C38.7265 34.8125 33.2734 34.3127 30.5694 34.9409C30.5694 34.9409 30.1772 36.798 30.323 37.5581H38.4557Z" fill="#FAF3ED"/>
<path d="M31.2988 34.8049C33.2773 34.5168 36.1583 34.6349 37.6752 34.7355L37.6544 34.4578C37.6544 34.4578 32.6768 34.319 31.2988 34.8049Z" fill="#373684"/>
<path d="M22.614 14.513C22.614 15.1169 23.1035 15.6064 23.7074 15.6064C24.3112 15.6064 24.8008 15.1169 24.8008 14.513C24.8008 13.9092 24.3112 13.4197 23.7074 13.4197C23.1035 13.4197 22.614 13.9092 22.614 14.513Z" fill="#1D1D1B"/>
<path d="M14.863 14.513C14.863 15.1169 15.3525 15.6064 15.9564 15.6064C16.5603 15.6064 17.0498 15.1169 17.0498 14.513C17.0498 13.9092 16.5603 13.4197 15.9564 13.4197C15.3525 13.4197 14.863 13.9092 14.863 14.513Z" fill="#1D1D1B"/>
<path d="M30.1735 11.4242C30.3409 11.0492 30.4231 10.6418 30.4141 10.2313C30.4051 9.82072 30.3051 9.41728 30.1214 9.05001C29.9428 8.60733 29.7955 8.15264 29.6806 7.68933C29.4558 7.02809 29.1018 6.4181 28.6393 5.89479C27.5598 4.45083 25.1057 4.47164 24.5018 4.73545L24.0471 4.94372C23.87 5.02703 23.6999 4.91942 23.5646 4.79099C23.1793 4.46471 23.0995 4.3328 22.1206 4.17313C21.2494 4.03082 20.7669 4.17314 20.5031 4.42306C20.3794 4.53883 20.2215 4.61125 20.0531 4.62941C19.8846 4.64757 19.7149 4.61047 19.5694 4.52372L19.4757 4.46819C18.5318 3.91933 17.4112 3.75994 16.3517 4.02388C12.6238 4.9333 10.5272 9.81711 11.0305 10.9036C11.1423 11.1502 11.3049 11.3704 11.5077 11.5499C11.7104 11.7293 11.9488 11.8639 12.2072 11.9449C12.9014 12.1566 13.2937 8.19959 17.5943 8.91463C17.5943 8.91463 17.872 10.1156 19.5486 10.6988C21.2251 11.2819 23.0509 8.98751 23.0509 8.98751C23.0509 8.98751 22.9051 10.4627 25.189 11.4173C26.7915 12.0412 28.5693 12.0437 30.1735 11.4242V11.4242Z" fill="#ED8A29"/>
<path d="M19.497 10.8271C18.682 10.5839 17.9905 10.0389 17.5636 9.30329C17.1367 8.50842 17.1089 7.52957 17.4872 6.39453L17.7337 6.47783C17.3866 7.53998 17.3866 8.4494 17.7927 9.18179C18.1898 9.84839 18.8209 10.3433 19.563 10.5702L19.497 10.8271Z" fill="#1D1D1B"/>
<path d="M25.1407 11.5492C24.3281 11.3052 23.6383 10.7618 23.2108 10.0289C22.7804 9.23053 22.7561 8.25169 23.1344 7.12012L23.3809 7.19997C23.0338 8.26212 23.0338 9.17153 23.4399 9.90045C23.8362 10.5664 24.4659 11.0612 25.2067 11.2889L25.1407 11.5492Z" fill="#1D1D1B"/>
<path d="M30.5833 17.6509C30.9801 17.6509 31.3018 17.3292 31.3018 16.9324C31.3018 16.5356 30.9801 16.2139 30.5833 16.2139C30.1864 16.2139 29.8647 16.5356 29.8647 16.9324C29.8647 17.3292 30.1864 17.6509 30.5833 17.6509Z" fill="#C49318"/>
<path d="M30.639 17.4704C30.986 17.4704 31.2673 17.1891 31.2673 16.8421C31.2673 16.4952 30.986 16.2139 30.639 16.2139C30.292 16.2139 30.0107 16.4952 30.0107 16.8421C30.0107 17.1891 30.292 17.4704 30.639 17.4704Z" fill="#EDB61B"/>
<path opacity="0.6" d="M11.8951 17.335C11.8951 17.335 11.6174 16.62 11.548 16.2521C11.548 16.2521 11.548 16.2139 11.3154 16.2139C11.355 16.6746 11.4973 17.1206 11.7319 17.519C11.7972 17.4683 11.8525 17.4059 11.8951 17.335V17.335Z" fill="#C49318"/>
<path opacity="0.6" d="M28.0495 21.0352C28.0495 21.0352 23.8009 27.3247 23.8391 36.8702H24.7173V35.8289L28.0495 21.0352Z" fill="#373684"/>
<path opacity="0.6" d="M13.9395 20.8408C13.9395 20.8408 18.188 27.1304 18.1499 36.6759H17.2717V35.6345L13.9395 20.8408Z" fill="#373684"/>
<path d="M30 18.1406L31.3503 22.4691L28.4519 26.3185L28.2263 31.2335L24.9878 36.1139L25.019 34.8643C25.1752 28.8073 26.6886 23.2223 29.9861 18.1406H30Z" fill="#373684"/>
<path d="M30.0315 17.5264L31.3817 21.8583L28.4799 26.0236L28.2578 30.9421L24.7173 35.8224L24.7485 34.5693C24.9056 28.5123 26.7339 22.6165 30.0315 17.5333V17.5264Z" fill="#FAF3ED"/>
<path d="M12.0827 18.1338L10.7324 22.4657L13.6342 26.3116L13.8564 31.2267L17.0845 36.107L17.0498 34.8574C16.897 28.8004 15.3802 23.2189 12.0827 18.1338Z" fill="#373684"/>
<path d="M12.0412 17.5195L10.6909 21.8514L13.5893 26.0167L13.8149 30.9318L17.3519 35.8121L17.3207 34.5625C17.1655 28.5046 15.3383 22.6075 12.0412 17.523V17.5195Z" fill="#FAF3ED"/>
<path d="M13.4883 14.2463C13.6718 13.8908 13.9175 13.5711 14.2137 13.3022C14.5091 13.017 14.865 12.8022 15.255 12.6739C15.669 12.5519 16.1141 12.5941 16.4977 12.792C16.8562 12.99 17.1484 13.2895 17.3377 13.6528C17.0603 13.3939 16.7396 13.186 16.3901 13.0384C16.0552 12.9172 15.6903 12.9062 15.3488 13.0072C14.9974 13.1208 14.6668 13.2908 14.3699 13.5105C14.0618 13.7383 13.7675 13.984 13.4883 14.2463V14.2463Z" fill="#1D1D1B"/>
<path d="M26.4912 14.2463C26.2076 13.9835 25.9085 13.7378 25.5957 13.5105C25.2989 13.2908 24.9682 13.1208 24.6168 13.0072C24.2753 12.9062 23.9104 12.9172 23.5755 13.0384C23.226 13.186 22.9053 13.3939 22.6279 13.6528C22.8172 13.2895 23.1094 12.99 23.4679 12.792C23.8515 12.5941 24.2966 12.5519 24.7106 12.6739C25.1006 12.8022 25.4566 13.017 25.7519 13.3022C26.0531 13.5699 26.3036 13.8897 26.4912 14.2463V14.2463Z" fill="#1D1D1B"/>
</g>
<defs>
<clipPath id="clip0_430_8">
<rect width="10.0661" height="4.5124" fill="white" transform="translate(40.6113 42.001) rotate(-180)"/>
</clipPath>
<clipPath id="clip1_430_8">
<rect width="10.0661" height="4.5124" fill="white" transform="translate(11.8013 41.6543) rotate(-180)"/>
</clipPath>
</defs>
</svg>
