<svg width="104" height="19" viewBox="0 0 104 19" fill="none" xmlns="http://www.w3.org/2000/svg">
<path d="M7.18075 8.324C7.21008 8.51467 7.22475 8.66867 7.22475 8.786C7.23941 8.90333 7.24675 9.02067 7.24675 9.138C7.24675 9.50467 7.19541 9.93733 7.09275 10.436C7.00475 10.9347 6.84341 11.4113 6.60875 11.866C6.38875 12.306 6.08808 12.6873 5.70675 13.01C5.34008 13.318 4.87075 13.472 4.29875 13.472C3.77075 13.472 3.27208 13.3253 2.80275 13.032C2.33341 12.724 1.91541 12.3353 1.54875 11.866C1.18208 11.382 0.888746 10.8467 0.668746 10.26C0.463413 9.65867 0.360746 9.06467 0.360746 8.478C0.360746 7.62733 0.412079 6.90133 0.514746 6.3C0.632079 5.684 0.793413 5.14867 0.998746 4.694C0.998746 4.65 0.969413 4.606 0.910746 4.562C0.866746 4.518 0.844746 4.45933 0.844746 4.386C0.844746 4.31267 0.910746 4.21733 1.04275 4.1C1.18941 3.98267 1.35808 3.87267 1.54875 3.77C1.75408 3.65267 1.95208 3.55733 2.14275 3.484C2.34808 3.396 2.50208 3.352 2.60475 3.352C2.66341 3.352 2.75875 3.38133 2.89075 3.44C3.03741 3.49867 3.22075 3.528 3.44075 3.528C3.51408 3.528 3.58741 3.52067 3.66075 3.506C3.73408 3.49133 3.81475 3.484 3.90275 3.484C4.21075 3.484 4.54075 3.63067 4.89275 3.924C5.25941 4.20267 5.59675 4.56933 5.90475 5.024C6.22741 5.47867 6.49875 5.99933 6.71875 6.586C6.95341 7.158 7.10741 7.73733 7.18075 8.324ZM6.30075 9.182C6.30075 8.90333 6.24208 8.50733 6.12475 7.994C6.00741 7.466 5.83141 6.95267 5.59675 6.454C5.36208 5.94067 5.07608 5.49333 4.73875 5.112C4.41608 4.73067 4.04941 4.54 3.63875 4.54C3.60941 4.54 3.55075 4.54 3.46275 4.54C3.38941 4.52533 3.30141 4.518 3.19875 4.518C3.09608 4.50333 3.00075 4.496 2.91275 4.496C2.82475 4.48133 2.77341 4.474 2.75875 4.474C2.52408 4.474 2.31875 4.584 2.14275 4.804C1.98141 5.024 1.84208 5.31 1.72475 5.662C1.62208 6.014 1.54141 6.41733 1.48275 6.872C1.42408 7.32667 1.39475 7.78133 1.39475 8.236C1.39475 8.39733 1.43875 8.71267 1.52675 9.182C1.61475 9.63667 1.76875 10.1133 1.98875 10.612C2.22341 11.096 2.53141 11.5287 2.91275 11.91C3.29408 12.2913 3.77808 12.482 4.36475 12.482C4.76075 12.482 5.08341 12.3647 5.33275 12.13C5.58208 11.8807 5.77275 11.58 5.90475 11.228C6.05141 10.876 6.15408 10.5167 6.21275 10.15C6.27141 9.76867 6.30075 9.446 6.30075 9.182ZM18.1438 11.03C18.1438 11.1767 18.0411 11.3013 17.8358 11.404C17.6451 11.492 17.3885 11.536 17.0658 11.536C16.7871 11.536 16.3471 11.5067 15.7458 11.448C15.1591 11.3893 14.5358 11.294 13.8758 11.162C13.2158 11.03 12.5851 10.8687 11.9838 10.678C11.3971 10.4727 10.9645 10.2307 10.6858 9.952C10.7151 10.0693 10.7665 10.2307 10.8398 10.436C10.9131 10.6267 10.9938 10.8393 11.0818 11.074C11.2431 11.4847 11.3898 11.9027 11.5218 12.328C11.6685 12.7387 11.7418 13.0687 11.7418 13.318C11.7418 13.7873 11.7051 14.1393 11.6318 14.374C11.5731 14.6233 11.4338 14.748 11.2138 14.748C11.0378 14.748 10.9131 14.6747 10.8398 14.528C10.7665 14.3813 10.7298 14.2053 10.7298 14C10.7298 13.9853 10.7298 13.9487 10.7298 13.89C10.7298 13.8313 10.7371 13.6627 10.7518 13.384C10.7518 13.2667 10.7445 13.1493 10.7298 13.032C10.7151 12.9147 10.6931 12.812 10.6638 12.724C10.4291 12.152 10.2091 11.58 10.0038 11.008C9.81313 10.4213 9.62979 9.776 9.45379 9.072C9.40979 8.92533 9.35846 8.742 9.29979 8.522C9.25579 8.28733 9.21179 7.98667 9.16779 7.62C9.12379 7.23867 9.08713 6.77667 9.05779 6.234C9.02846 5.67667 9.01379 5.002 9.01379 4.21C9.01379 3.594 9.06513 3.12467 9.16779 2.802C9.27046 2.46467 9.39513 2.296 9.54179 2.296C9.67379 2.296 9.78379 2.39867 9.87179 2.604C9.95979 2.79467 10.0038 2.978 10.0038 3.154C10.0038 3.638 9.99646 4.012 9.98179 4.276C9.98179 4.54 9.98179 4.73067 9.98179 4.848C9.98179 5.30267 10.0038 5.75733 10.0478 6.212C10.0918 6.652 10.1431 7.06267 10.2018 7.444C10.2605 7.884 10.3338 8.302 10.4218 8.698C10.5978 8.33133 10.7885 7.94267 10.9938 7.532C11.2138 7.10667 11.4411 6.68867 11.6758 6.278C11.9105 5.85267 12.1451 5.43467 12.3798 5.024C12.6145 4.61333 12.8418 4.22467 13.0618 3.858C13.2085 3.60867 13.3698 3.396 13.5458 3.22C13.7365 3.044 13.9125 2.956 14.0738 2.956C14.1911 2.956 14.3231 3.00733 14.4698 3.11C14.6165 3.198 14.6898 3.32267 14.6898 3.484C14.6898 3.528 14.6825 3.57933 14.6678 3.638C14.6531 3.682 14.6385 3.71867 14.6238 3.748C14.5505 3.86533 14.4625 3.98267 14.3598 4.1C14.2718 4.21733 14.1911 4.33467 14.1178 4.452C13.8831 4.78933 13.6191 5.17067 13.3258 5.596C13.0325 6.02133 12.7538 6.44667 12.4898 6.872C12.2405 7.28267 12.0278 7.67133 11.8518 8.038C11.6758 8.40467 11.5878 8.698 11.5878 8.918C11.5878 9.15267 11.7271 9.358 12.0058 9.534C12.2845 9.71 12.6291 9.864 13.0398 9.996C13.4505 10.1133 13.8978 10.216 14.3818 10.304C14.8805 10.3773 15.3425 10.4433 15.7678 10.502C16.1931 10.546 16.5525 10.5827 16.8458 10.612C17.1538 10.6267 17.3225 10.634 17.3518 10.634C17.6891 10.634 17.9018 10.6633 17.9898 10.722C18.0925 10.766 18.1438 10.8687 18.1438 11.03ZM34.5302 12.438C34.5302 13.23 34.3468 13.7507 33.9802 14C33.6135 14.264 32.9975 14.396 32.1322 14.396C31.8388 14.396 31.4868 14.352 31.0762 14.264C30.6802 14.1907 30.2915 14.0733 29.9102 13.912C29.5435 13.7507 29.2282 13.5527 28.9642 13.318C28.7148 13.0833 28.5902 12.812 28.5902 12.504C28.5902 12.4893 28.5975 12.416 28.6122 12.284C28.6415 12.1373 28.6782 11.9907 28.7222 11.844C28.7662 11.6827 28.8175 11.5433 28.8762 11.426C28.9495 11.294 29.0228 11.228 29.0962 11.228C29.2428 11.228 29.3235 11.272 29.3382 11.36C29.3675 11.4333 29.3822 11.5653 29.3822 11.756C29.3822 12.02 29.4702 12.2547 29.6462 12.46C29.8368 12.6653 30.0642 12.8413 30.3282 12.988C30.5922 13.1347 30.8708 13.2447 31.1642 13.318C31.4722 13.3913 31.7435 13.428 31.9782 13.428C32.1688 13.428 32.3595 13.4207 32.5502 13.406C32.7555 13.3767 32.9388 13.3253 33.1002 13.252C33.2615 13.1787 33.3862 13.076 33.4742 12.944C33.5768 12.812 33.6282 12.636 33.6282 12.416C33.6282 12.2253 33.6062 12.0347 33.5622 11.844C33.5328 11.6387 33.4595 11.3747 33.3422 11.052C33.2395 10.7293 33.0855 10.3187 32.8802 9.82C32.6748 9.30667 32.4108 8.64667 32.0882 7.84C31.3988 6.13867 30.9515 4.87 30.7462 4.034C30.5408 3.18333 30.4308 2.72867 30.4162 2.67C30.2988 2.68467 30.1668 2.72133 30.0202 2.78C29.8735 2.83867 29.7195 2.90467 29.5582 2.978C29.4115 3.03667 29.2648 3.09533 29.1182 3.154C28.9715 3.21267 28.8468 3.264 28.7442 3.308C28.4362 3.42533 28.1575 3.56467 27.9082 3.726C27.6588 3.87267 27.4388 4.01933 27.2482 4.166C27.0575 4.298 26.8962 4.41533 26.7642 4.518C26.6322 4.606 26.5222 4.65 26.4342 4.65C26.2142 4.65 26.0822 4.54733 26.0382 4.342C25.9942 4.13667 25.9722 3.96067 25.9722 3.814C25.9722 3.65267 26.1555 3.46933 26.5222 3.264C26.8888 3.044 27.3508 2.824 27.9082 2.604C28.4655 2.384 29.0668 2.17133 29.7122 1.966C30.3722 1.746 30.9882 1.55533 31.5602 1.394C32.1322 1.23267 32.6162 1.10067 33.0122 0.997999C33.4082 0.895332 33.6282 0.843999 33.6722 0.843999C33.7748 0.843999 33.8335 0.873332 33.8482 0.931999C33.8775 0.990666 33.8922 1.042 33.8922 1.086C33.8922 1.174 33.7822 1.27667 33.5622 1.394C33.3568 1.51133 33.1075 1.636 32.8142 1.768C32.5355 1.9 32.2422 2.02467 31.9342 2.142C31.6262 2.25933 31.3768 2.35467 31.1862 2.428L30.9442 2.516C31.0175 2.63333 31.0835 2.74333 31.1422 2.846C31.2008 2.94867 31.2595 3.08067 31.3182 3.242C31.3915 3.40333 31.4722 3.616 31.5602 3.88C31.6628 4.12933 31.8022 4.45933 31.9782 4.87C32.3008 5.662 32.6162 6.454 32.9242 7.246C33.2322 8.038 33.5035 8.77867 33.7382 9.468C33.9875 10.1427 34.1782 10.744 34.3102 11.272C34.4568 11.7853 34.5302 12.174 34.5302 12.438ZM38.1648 7.4C38.1648 7.664 38.1062 7.906 37.9888 8.126C37.8862 8.346 37.7615 8.53667 37.6148 8.698C37.4682 8.84467 37.3288 8.962 37.1968 9.05C37.0648 9.138 36.9695 9.182 36.9108 9.182C36.8668 9.182 36.8082 9.15267 36.7348 9.094C36.6762 9.02067 36.6468 8.94 36.6468 8.852C36.6468 8.83733 36.6762 8.786 36.7348 8.698C36.7935 8.61 36.8595 8.50733 36.9328 8.39C37.0208 8.258 37.0942 8.11133 37.1528 7.95C37.2115 7.774 37.2408 7.59067 37.2408 7.4C37.2408 7.01867 37.2042 6.68133 37.1308 6.388C37.0575 6.08 36.9622 5.77933 36.8448 5.486C36.8302 5.442 36.8082 5.39067 36.7788 5.332C36.7642 5.27333 36.7568 5.22933 36.7568 5.2C36.7568 5.09733 36.7862 5.03133 36.8448 5.002C36.9182 4.97267 36.9915 4.958 37.0648 4.958C37.1675 4.958 37.2848 5.05333 37.4168 5.244C37.5488 5.42 37.6662 5.63267 37.7688 5.882C37.8862 6.13133 37.9815 6.40267 38.0548 6.696C38.1282 6.97467 38.1648 7.20933 38.1648 7.4ZM45.6739 4.056C45.4832 4.276 45.2119 4.496 44.8599 4.716C44.5079 4.92133 44.1559 5.112 43.8039 5.288C43.4519 5.464 43.1439 5.618 42.8799 5.75C42.6159 5.86733 42.4839 5.948 42.4839 5.992C42.4839 6.036 42.5132 6.168 42.5719 6.388C42.6305 6.608 42.6965 6.872 42.7699 7.18C42.8579 7.47333 42.9459 7.78133 43.0339 8.104C43.1219 8.42667 43.1952 8.71267 43.2539 8.962C43.2832 9.10867 43.3199 9.29933 43.3639 9.534C43.4079 9.76867 43.4445 10.0033 43.4739 10.238C43.5179 10.4727 43.5545 10.6853 43.5839 10.876C43.6132 11.052 43.6279 11.1473 43.6279 11.162C43.6279 11.382 43.5912 11.6093 43.5179 11.844C43.4445 12.0787 43.3272 12.196 43.1659 12.196C43.0779 12.196 42.9972 12.1593 42.9239 12.086C42.8505 12.0127 42.7845 11.932 42.7259 11.844C42.6672 11.7413 42.6232 11.646 42.5939 11.558C42.5645 11.47 42.5499 11.404 42.5499 11.36C42.5499 11.3307 42.5499 11.2867 42.5499 11.228C42.5645 11.1693 42.5719 11.1033 42.5719 11.03C42.5719 10.7513 42.5279 10.348 42.4399 9.82C42.4105 9.65867 42.3519 9.40933 42.2639 9.072C42.1759 8.73467 42.0879 8.39 41.9999 8.038C41.8972 7.62733 41.7799 7.18 41.6479 6.696C41.5892 6.49067 41.5525 6.388 41.5379 6.388C41.4352 6.388 41.2592 6.454 41.0099 6.586C40.7752 6.70333 40.5039 6.85733 40.1959 7.048C39.8879 7.224 39.5652 7.422 39.2279 7.642C38.8905 7.84733 38.5752 8.04533 38.2819 8.236C37.9885 8.412 37.7392 8.566 37.5339 8.698C37.3139 8.81533 37.1819 8.874 37.1379 8.874C36.9472 8.874 36.7932 8.808 36.6759 8.676C36.5585 8.544 36.4999 8.39733 36.4999 8.236C36.4999 8.148 36.6245 8.02333 36.8739 7.862C37.1085 7.686 37.4092 7.49533 37.7759 7.29C38.1279 7.08467 38.5165 6.872 38.9419 6.652C39.3525 6.432 39.7339 6.234 40.0859 6.058C40.4525 5.882 40.7532 5.73533 40.9879 5.618C41.2372 5.50067 41.3619 5.442 41.3619 5.442C41.2299 4.76733 41.1199 4.166 41.0319 3.638C40.9585 3.18333 40.8852 2.76533 40.8119 2.384C40.7532 2.00267 40.7239 1.79733 40.7239 1.768C40.7239 1.57733 40.7605 1.438 40.8339 1.35C40.9219 1.24733 41.0172 1.196 41.1199 1.196C41.2812 1.196 41.3839 1.306 41.4279 1.526C41.5892 2.318 41.7359 3.022 41.8679 3.638C42.0145 4.254 42.1539 4.75267 42.2859 5.134C42.4179 5.10467 42.6452 5.024 42.9679 4.892C43.2905 4.74533 43.6279 4.59133 43.9799 4.43C44.3319 4.26867 44.6472 4.12933 44.9259 4.012C45.2192 3.88 45.3879 3.814 45.4319 3.814C45.5199 3.814 45.5712 3.84333 45.5859 3.902C45.6152 3.96067 45.6445 4.012 45.6739 4.056ZM48.5633 7.4C48.5633 7.664 48.5046 7.906 48.3873 8.126C48.2846 8.346 48.1599 8.53667 48.0133 8.698C47.8666 8.84467 47.7273 8.962 47.5953 9.05C47.4633 9.138 47.3679 9.182 47.3093 9.182C47.2653 9.182 47.2066 9.15267 47.1333 9.094C47.0746 9.02067 47.0453 8.94 47.0453 8.852C47.0453 8.83733 47.0746 8.786 47.1333 8.698C47.1919 8.61 47.2579 8.50733 47.3313 8.39C47.4193 8.258 47.4926 8.11133 47.5513 7.95C47.6099 7.774 47.6393 7.59067 47.6393 7.4C47.6393 7.01867 47.6026 6.68133 47.5293 6.388C47.4559 6.08 47.3606 5.77933 47.2433 5.486C47.2286 5.442 47.2066 5.39067 47.1773 5.332C47.1626 5.27333 47.1553 5.22933 47.1553 5.2C47.1553 5.09733 47.1846 5.03133 47.2433 5.002C47.3166 4.97267 47.3899 4.958 47.4633 4.958C47.5659 4.958 47.6833 5.05333 47.8153 5.244C47.9473 5.42 48.0646 5.63267 48.1673 5.882C48.2846 6.13133 48.3799 6.40267 48.4533 6.696C48.5266 6.97467 48.5633 7.20933 48.5633 7.4ZM56.3583 11.69C56.373 11.7193 56.3803 11.7633 56.3803 11.822C56.3803 11.91 56.3143 12.042 56.1823 12.218C56.1383 12.2767 56.043 12.372 55.8963 12.504C55.7496 12.636 55.5516 12.768 55.3023 12.9C55.053 13.032 54.745 13.1493 54.3783 13.252C54.0263 13.3547 53.6083 13.406 53.1243 13.406C52.787 13.406 52.457 13.3327 52.1343 13.186C51.8116 13.0247 51.5256 12.7973 51.2763 12.504C51.027 12.196 50.8216 11.822 50.6603 11.382C50.499 10.9273 50.4183 10.3993 50.4183 9.798C50.4183 9.226 50.4916 8.69067 50.6383 8.192C50.785 7.69333 50.9683 7.25333 51.1883 6.872C51.423 6.49067 51.6796 6.19 51.9583 5.97C52.237 5.75 52.5083 5.64 52.7723 5.64C53.007 5.64 53.2416 5.69133 53.4763 5.794C53.7256 5.882 53.9456 5.99933 54.1363 6.146C54.3416 6.29267 54.503 6.46133 54.6203 6.652C54.7376 6.828 54.7963 7.01133 54.7963 7.202C54.7963 7.422 54.6936 7.64933 54.4883 7.884C54.2976 8.11867 54.063 8.33867 53.7843 8.544C53.5056 8.73467 53.227 8.896 52.9483 9.028C52.6696 9.14533 52.4496 9.204 52.2883 9.204C52.2003 9.204 52.1196 9.16733 52.0463 9.094C51.9876 9.006 51.9583 8.90333 51.9583 8.786C51.9583 8.58067 52.0463 8.41933 52.2223 8.302C52.413 8.18467 52.6183 8.082 52.8383 7.994C53.0583 7.89133 53.2563 7.774 53.4323 7.642C53.623 7.51 53.7183 7.32667 53.7183 7.092C53.7183 7.06267 53.6816 6.98933 53.6083 6.872C53.535 6.75467 53.337 6.696 53.0143 6.696C52.8676 6.696 52.699 6.784 52.5083 6.96C52.3176 7.12133 52.1343 7.34867 51.9583 7.642C51.7823 7.92067 51.6356 8.258 51.5183 8.654C51.401 9.03533 51.3423 9.45333 51.3423 9.908C51.3423 10.2893 51.4083 10.634 51.5403 10.942C51.687 11.25 51.8703 11.514 52.0903 11.734C52.3103 11.9393 52.567 12.1007 52.8603 12.218C53.1536 12.3353 53.4543 12.394 53.7623 12.394C53.9823 12.394 54.217 12.35 54.4663 12.262C54.7303 12.1593 54.9723 12.0567 55.1923 11.954C55.427 11.8367 55.625 11.734 55.7863 11.646C55.9623 11.5433 56.0723 11.492 56.1163 11.492C56.1603 11.492 56.2043 11.514 56.2483 11.558C56.307 11.602 56.3436 11.646 56.3583 11.69ZM64.3362 11.954C64.3362 12.2327 64.2482 12.4233 64.0722 12.526C63.9109 12.6287 63.7349 12.68 63.5442 12.68C63.2069 12.68 62.8256 12.5333 62.4002 12.24C61.9749 11.932 61.5276 11.5873 61.0582 11.206C61.0436 11.2353 60.9996 11.3967 60.9262 11.69C60.8676 11.9687 60.7796 12.2767 60.6622 12.614C60.5596 12.9513 60.4276 13.2593 60.2662 13.538C60.1049 13.8167 59.9216 13.956 59.7162 13.956C59.5696 13.956 59.4522 13.9047 59.3642 13.802C59.2762 13.6847 59.2322 13.604 59.2322 13.56C59.2322 13.4573 59.2836 13.2667 59.3862 12.988C59.4889 12.6947 59.5989 12.3867 59.7162 12.064C59.8336 11.7267 59.9436 11.4113 60.0462 11.118C60.1489 10.8247 60.2002 10.612 60.2002 10.48C60.2002 10.4213 60.0829 10.238 59.8482 9.93C59.6136 9.622 59.3569 9.26267 59.0782 8.852C58.7996 8.42667 58.5429 7.97933 58.3082 7.51C58.0736 7.04067 57.9562 6.608 57.9562 6.212C57.9562 6.10933 58.0002 6.00667 58.0882 5.904C58.1762 5.80133 58.2569 5.75 58.3302 5.75C58.4182 5.75 58.5356 5.78667 58.6822 5.86C58.8436 5.91867 58.9389 6.00667 58.9682 6.124C59.1149 6.608 59.3056 7.12867 59.5402 7.686C59.7749 8.22867 60.1269 8.75667 60.5962 9.27C60.6402 9.10867 60.6916 8.88867 60.7502 8.61C60.8089 8.33133 60.8749 8.03067 60.9482 7.708C61.0216 7.38533 61.0949 7.06267 61.1682 6.74C61.2562 6.41733 61.3369 6.124 61.4102 5.86C61.4982 5.596 61.5789 5.38333 61.6522 5.222C61.7256 5.06067 61.7989 4.98 61.8722 4.98C61.9456 4.98 62.0556 5.00933 62.2022 5.068C62.3636 5.112 62.4442 5.21467 62.4442 5.376C62.4442 5.376 62.4222 5.50067 62.3782 5.75C62.3342 5.98467 62.2756 6.27067 62.2022 6.608C62.1289 6.94533 62.0482 7.312 61.9602 7.708C61.8722 8.08933 61.7842 8.434 61.6962 8.742C61.6816 8.786 61.6522 8.86667 61.6082 8.984C61.5789 9.10133 61.5422 9.226 61.4982 9.358C61.4689 9.49 61.4396 9.61467 61.4102 9.732C61.3809 9.83467 61.3662 9.90067 61.3662 9.93C61.3662 10.062 61.4689 10.2233 61.6742 10.414C61.8942 10.59 62.1362 10.766 62.4002 10.942C62.6642 11.1033 62.9136 11.2427 63.1482 11.36C63.3976 11.4773 63.5516 11.536 63.6102 11.536C63.6542 11.536 63.7129 11.5287 63.7862 11.514C63.8596 11.4993 63.9182 11.492 63.9622 11.492C64.0796 11.492 64.1676 11.558 64.2262 11.69C64.2996 11.822 64.3362 11.91 64.3362 11.954ZM73.0523 7.642C73.0523 8.02333 72.9423 8.39 72.7223 8.742C72.517 9.094 72.2603 9.424 71.9523 9.732C71.6443 10.0253 71.307 10.304 70.9403 10.568C70.5737 10.8173 70.2363 11.0373 69.9283 11.228C69.635 11.4333 69.393 11.602 69.2023 11.734C69.0117 11.866 68.9163 11.9687 68.9163 12.042C68.9163 12.2327 68.9383 12.504 68.9823 12.856C69.0263 13.1933 69.0777 13.5673 69.1363 13.978C69.2097 14.374 69.2757 14.7847 69.3343 15.21C69.4077 15.6353 69.459 16.024 69.4883 16.376C69.4883 16.3907 69.4957 16.4567 69.5103 16.574C69.5397 16.6913 69.569 16.8233 69.5983 16.97C69.6423 17.1167 69.6717 17.2487 69.6863 17.366C69.7157 17.498 69.7303 17.5787 69.7303 17.608C69.7303 17.7107 69.723 17.8207 69.7083 17.938C69.7083 18.07 69.6863 18.1873 69.6423 18.29C69.613 18.4073 69.5617 18.5027 69.4883 18.576C69.415 18.6493 69.3197 18.686 69.2023 18.686C69.041 18.686 68.9237 18.6127 68.8503 18.466C68.777 18.334 68.7403 18.202 68.7403 18.07C68.7403 18.0407 68.7403 18.0113 68.7403 17.982C68.755 17.9527 68.7623 17.916 68.7623 17.872C68.7623 17.7107 68.7037 17.278 68.5863 16.574C68.469 15.87 68.337 15.0267 68.1903 14.044C68.0437 13.076 67.9117 12.0347 67.7943 10.92C67.677 9.79067 67.6183 8.72733 67.6183 7.73C67.6183 7.65667 67.6257 7.576 67.6403 7.488C67.655 7.38533 67.6623 7.29733 67.6623 7.224C67.5157 7.23867 67.2957 7.30467 67.0023 7.422C66.7237 7.53933 66.445 7.686 66.1663 7.862C65.8877 8.02333 65.6383 8.19933 65.4183 8.39C65.213 8.566 65.1103 8.72733 65.1103 8.874H64.9563C64.9123 8.874 64.861 8.84467 64.8023 8.786C64.729 8.72733 64.6703 8.66133 64.6263 8.588C64.5677 8.51467 64.5163 8.44133 64.4723 8.368C64.4283 8.29467 64.4063 8.24333 64.4063 8.214C64.4063 7.906 64.5897 7.62 64.9563 7.356C65.323 7.07733 65.7777 6.83533 66.3203 6.63C66.8777 6.41 67.4863 6.24133 68.1463 6.124C68.8063 5.992 69.4297 5.926 70.0163 5.926C70.5883 5.926 71.065 5.992 71.4463 6.124C71.8423 6.256 72.1577 6.41733 72.3923 6.608C72.627 6.784 72.7957 6.96733 72.8983 7.158C73.001 7.34867 73.0523 7.51 73.0523 7.642ZM71.9743 7.576C71.9743 7.42933 71.791 7.28267 71.4243 7.136C71.0577 6.97467 70.625 6.894 70.1263 6.894C69.6863 6.894 69.3637 6.90867 69.1583 6.938C68.953 6.96733 68.8137 6.99667 68.7403 7.026C68.711 7.26067 68.689 7.53933 68.6743 7.862C68.6597 8.18467 68.6523 8.51467 68.6523 8.852C68.6523 9.204 68.6597 9.54867 68.6743 9.886C68.7037 10.2087 68.733 10.48 68.7623 10.7C68.9677 10.568 69.2463 10.392 69.5983 10.172C69.965 9.93733 70.3243 9.68067 70.6763 9.402C71.0283 9.10867 71.329 8.808 71.5783 8.5C71.8423 8.17733 71.9743 7.86933 71.9743 7.576ZM77.2093 13.362C77.2093 13.4793 77.1653 13.5673 77.0773 13.626C76.9893 13.6847 76.8866 13.714 76.7693 13.714C76.6373 13.714 76.498 13.5893 76.3513 13.34C76.2193 13.0907 76.0873 12.7753 75.9553 12.394C75.8233 12.0127 75.6986 11.602 75.5813 11.162C75.464 10.7073 75.3613 10.2893 75.2733 9.908C75.1853 9.512 75.112 9.182 75.0533 8.918C75.0093 8.654 74.9873 8.50733 74.9873 8.478C74.9873 8.41933 74.958 8.26533 74.8993 8.016C74.8553 7.76667 74.7893 7.378 74.7013 6.85C74.628 6.322 74.54 5.64 74.4373 4.804C74.3493 3.95333 74.254 2.90467 74.1513 1.658C74.1513 1.526 74.1733 1.35733 74.2173 1.152C74.2613 0.946665 74.364 0.843999 74.5253 0.843999C74.7306 0.843999 74.8846 0.983332 74.9873 1.262C75.1046 1.54067 75.1926 1.88533 75.2513 2.296C75.3246 2.70667 75.376 3.13933 75.4053 3.594C75.4346 4.034 75.4713 4.42267 75.5153 4.76C75.574 5.22933 75.6253 5.65467 75.6693 6.036C75.728 6.41733 75.7793 6.79867 75.8233 7.18C75.882 7.54667 75.948 7.93533 76.0213 8.346C76.1093 8.75667 76.212 9.21133 76.3293 9.71L77.2093 13.362ZM80.2219 3.88C80.2219 3.90933 80.1706 3.968 80.0679 4.056C79.9653 4.144 79.8406 4.23933 79.6939 4.342C79.5619 4.43 79.4226 4.51067 79.2759 4.584C79.1293 4.65733 79.0119 4.694 78.9239 4.694C78.8653 4.694 78.7846 4.694 78.6819 4.694C78.5939 4.67933 78.4986 4.65 78.3959 4.606C78.3079 4.562 78.2273 4.50333 78.1539 4.43C78.0806 4.342 78.0439 4.232 78.0439 4.1C78.0439 3.89467 78.1173 3.704 78.2639 3.528C78.4106 3.33733 78.6013 3.242 78.8359 3.242C78.8799 3.242 78.9753 3.264 79.1219 3.308C79.2833 3.33733 79.4446 3.38133 79.6059 3.44C79.7673 3.49867 79.9066 3.56467 80.0239 3.638C80.1559 3.71133 80.2219 3.792 80.2219 3.88ZM80.9479 12.108C80.9479 12.2107 80.8673 12.2987 80.7059 12.372C80.5593 12.4453 80.4493 12.482 80.3759 12.482C80.2293 12.482 80.0973 12.3867 79.9799 12.196C79.8626 12.0053 79.7599 11.7853 79.6719 11.536C79.5839 11.2867 79.5106 11.052 79.4519 10.832C79.3933 10.5973 79.3493 10.436 79.3199 10.348C79.2759 10.2013 79.2173 10.0253 79.1439 9.82C79.0706 9.61467 78.9973 9.41667 78.9239 9.226C78.8653 9.03533 78.8139 8.86667 78.7699 8.72C78.7259 8.57333 78.7039 8.49267 78.7039 8.478C78.7039 8.27267 78.7406 8.082 78.8139 7.906C78.9019 7.73 79.0046 7.642 79.1219 7.642C79.2539 7.642 79.3933 7.74467 79.5399 7.95C79.6866 8.15533 79.8259 8.41933 79.9579 8.742C80.1046 9.05 80.2366 9.39467 80.3539 9.776C80.4713 10.1427 80.5739 10.4947 80.6619 10.832C80.7499 11.1547 80.8159 11.4407 80.8599 11.69C80.9186 11.9247 80.9479 12.064 80.9479 12.108ZM87.532 16.046C87.532 16.09 87.5246 16.1633 87.51 16.266C87.4953 16.3687 87.466 16.464 87.422 16.552C87.3926 16.6547 87.3413 16.7427 87.268 16.816C87.1946 16.904 87.0993 16.948 86.982 16.948C86.6446 16.948 86.4246 16.8453 86.322 16.64C86.2193 16.4347 86.168 16.2073 86.168 15.958C86.168 15.8993 86.1533 15.804 86.124 15.672C86.0946 15.54 86.0653 15.3933 86.036 15.232C86.0066 15.0707 85.9773 14.9093 85.948 14.748C85.9186 14.5867 85.904 14.4473 85.904 14.33C85.904 14.11 85.8893 13.8607 85.86 13.582C85.8453 13.3033 85.816 13.0247 85.772 12.746C85.7426 12.4527 85.706 12.174 85.662 11.91C85.6326 11.646 85.6033 11.4113 85.574 11.206L85.508 11.14C85.3466 11.2427 85.2 11.3673 85.068 11.514C84.9506 11.6607 84.826 11.8 84.694 11.932C84.5766 12.064 84.4446 12.174 84.298 12.262C84.166 12.35 84.0046 12.394 83.814 12.394C83.55 12.394 83.3153 12.306 83.11 12.13C82.9046 11.9393 82.736 11.7193 82.604 11.47C82.472 11.2207 82.3693 10.9713 82.296 10.722C82.2373 10.458 82.208 10.2527 82.208 10.106C82.208 9.78333 82.274 9.41667 82.406 9.006C82.5526 8.59533 82.7506 8.214 83 7.862C83.2493 7.49533 83.5426 7.18733 83.88 6.938C84.232 6.68867 84.6206 6.564 85.046 6.564C85.2073 6.564 85.354 6.608 85.486 6.696C85.618 6.784 85.7353 6.894 85.838 7.026C85.9553 7.14333 86.0506 7.268 86.124 7.4C86.212 7.532 86.2853 7.63467 86.344 7.708C86.5053 7.89867 86.63 8.06733 86.718 8.214C86.806 8.346 86.85 8.51467 86.85 8.72C86.85 8.764 86.828 8.896 86.784 9.116C86.74 9.336 86.718 9.51933 86.718 9.666C86.718 10.2673 86.7326 10.8833 86.762 11.514C86.806 12.13 86.8573 12.7093 86.916 13.252C86.9746 13.78 87.0333 14.242 87.092 14.638C87.1506 15.034 87.1946 15.3053 87.224 15.452C87.2533 15.5693 87.312 15.6427 87.4 15.672C87.488 15.716 87.532 15.8407 87.532 16.046ZM85.618 8.654C85.6033 8.50733 85.5446 8.324 85.442 8.104C85.354 7.884 85.1633 7.774 84.87 7.774C84.6206 7.774 84.3933 7.884 84.188 8.104C83.9826 8.30933 83.8066 8.55867 83.66 8.852C83.5133 9.13067 83.4033 9.40933 83.33 9.688C83.2566 9.952 83.22 10.15 83.22 10.282C83.22 10.3113 83.2273 10.3773 83.242 10.48C83.2713 10.5827 83.3006 10.6927 83.33 10.81C83.374 10.9273 83.4253 11.03 83.484 11.118C83.5426 11.206 83.6086 11.25 83.682 11.25C83.858 11.25 84.056 11.1327 84.276 10.898C84.496 10.6487 84.7013 10.37 84.892 10.062C85.0973 9.754 85.266 9.46067 85.398 9.182C85.5446 8.90333 85.618 8.72733 85.618 8.654ZM96.0662 10.348C96.0662 10.48 95.9782 10.6193 95.8022 10.766C95.6262 10.9127 95.4209 11.052 95.1862 11.184C94.9516 11.3013 94.7096 11.404 94.4602 11.492C94.2256 11.58 94.0496 11.624 93.9322 11.624C93.8002 11.624 93.6536 11.5873 93.4922 11.514C93.3456 11.4407 93.1989 11.3527 93.0522 11.25C92.9202 11.1473 92.8029 11.052 92.7002 10.964C92.5976 10.876 92.5316 10.8173 92.5022 10.788C92.4582 10.832 92.3922 10.92 92.3042 11.052C92.2162 11.184 92.1062 11.3307 91.9742 11.492C91.8569 11.6387 91.7249 11.7707 91.5782 11.888C91.4462 12.0053 91.3069 12.064 91.1602 12.064C90.7789 12.064 90.4489 11.8587 90.1702 11.448C89.8916 11.0373 89.6569 10.568 89.4662 10.04C89.2902 9.512 89.1509 9.006 89.0482 8.522C88.9602 8.02333 88.9162 7.686 88.9162 7.51C88.9162 7.40733 88.9676 7.32667 89.0702 7.268C89.1876 7.19467 89.2756 7.158 89.3342 7.158C89.5396 7.158 89.6789 7.23133 89.7522 7.378C89.8256 7.51 89.8622 7.65667 89.8622 7.818C89.8622 7.95 89.8989 8.18467 89.9722 8.522C90.0602 8.85933 90.1629 9.204 90.2802 9.556C90.3976 9.908 90.5222 10.2233 90.6542 10.502C90.7862 10.766 90.9036 10.898 91.0062 10.898C91.1969 10.898 91.3582 10.7807 91.4902 10.546C91.6369 10.2967 91.7542 10.018 91.8422 9.71C91.9302 9.38733 91.9962 9.08667 92.0402 8.808C92.0842 8.51467 92.1062 8.324 92.1062 8.236C92.1062 8.22133 92.1062 8.17733 92.1062 8.104C92.1209 8.016 92.1356 7.928 92.1502 7.84C92.1649 7.752 92.1722 7.67133 92.1722 7.598C92.1869 7.52467 92.1942 7.47333 92.1942 7.444C92.1942 7.34133 92.1722 7.27533 92.1282 7.246C92.0842 7.202 92.0622 7.12133 92.0622 7.004C92.0622 6.916 92.1062 6.83533 92.1942 6.762C92.2822 6.674 92.4729 6.63 92.7662 6.63C92.8836 6.63 92.9716 6.66667 93.0302 6.74C93.1036 6.79867 93.1549 6.872 93.1842 6.96C93.2136 7.048 93.2282 7.136 93.2282 7.224C93.2429 7.29733 93.2502 7.34867 93.2502 7.378C93.2502 7.39267 93.2429 7.49533 93.2282 7.686C93.2136 7.87667 93.1989 8.08933 93.1842 8.324C93.1842 8.544 93.1769 8.75667 93.1622 8.962C93.1476 9.16733 93.1402 9.292 93.1402 9.336C93.1402 9.38 93.1622 9.468 93.2062 9.6C93.2502 9.732 93.3016 9.87133 93.3602 10.018C93.4336 10.15 93.5142 10.2747 93.6022 10.392C93.6902 10.4947 93.7856 10.546 93.8882 10.546C94.0642 10.546 94.2256 10.524 94.3722 10.48C94.5336 10.4213 94.6802 10.3627 94.8122 10.304C94.9589 10.2307 95.0909 10.172 95.2082 10.128C95.3256 10.0693 95.4356 10.04 95.5382 10.04C95.6702 10.04 95.7876 10.0693 95.8902 10.128C96.0076 10.1867 96.0662 10.26 96.0662 10.348ZM103.065 11.69C103.08 11.7193 103.087 11.7633 103.087 11.822C103.087 11.91 103.021 12.042 102.889 12.218C102.845 12.2767 102.75 12.372 102.603 12.504C102.457 12.636 102.259 12.768 102.009 12.9C101.76 13.032 101.452 13.1493 101.085 13.252C100.733 13.3547 100.315 13.406 99.8313 13.406C99.494 13.406 99.164 13.3327 98.8413 13.186C98.5187 13.0247 98.2327 12.7973 97.9833 12.504C97.734 12.196 97.5287 11.822 97.3673 11.382C97.206 10.9273 97.1253 10.3993 97.1253 9.798C97.1253 9.226 97.1987 8.69067 97.3453 8.192C97.492 7.69333 97.6753 7.25333 97.8953 6.872C98.13 6.49067 98.3867 6.19 98.6653 5.97C98.944 5.75 99.2153 5.64 99.4793 5.64C99.714 5.64 99.9487 5.69133 100.183 5.794C100.433 5.882 100.653 5.99933 100.843 6.146C101.049 6.29267 101.21 6.46133 101.327 6.652C101.445 6.828 101.503 7.01133 101.503 7.202C101.503 7.422 101.401 7.64933 101.195 7.884C101.005 8.11867 100.77 8.33867 100.491 8.544C100.213 8.73467 99.934 8.896 99.6553 9.028C99.3767 9.14533 99.1567 9.204 98.9953 9.204C98.9073 9.204 98.8267 9.16733 98.7533 9.094C98.6947 9.006 98.6653 8.90333 98.6653 8.786C98.6653 8.58067 98.7533 8.41933 98.9293 8.302C99.12 8.18467 99.3253 8.082 99.5453 7.994C99.7653 7.89133 99.9633 7.774 100.139 7.642C100.33 7.51 100.425 7.32667 100.425 7.092C100.425 7.06267 100.389 6.98933 100.315 6.872C100.242 6.75467 100.044 6.696 99.7213 6.696C99.5747 6.696 99.406 6.784 99.2153 6.96C99.0247 7.12133 98.8413 7.34867 98.6653 7.642C98.4893 7.92067 98.3427 8.258 98.2253 8.654C98.108 9.03533 98.0493 9.45333 98.0493 9.908C98.0493 10.2893 98.1153 10.634 98.2473 10.942C98.394 11.25 98.5773 11.514 98.7973 11.734C99.0173 11.9393 99.274 12.1007 99.5673 12.218C99.8607 12.3353 100.161 12.394 100.469 12.394C100.689 12.394 100.924 12.35 101.173 12.262C101.437 12.1593 101.679 12.0567 101.899 11.954C102.134 11.8367 102.332 11.734 102.493 11.646C102.669 11.5433 102.779 11.492 102.823 11.492C102.867 11.492 102.911 11.514 102.955 11.558C103.014 11.602 103.051 11.646 103.065 11.69Z" fill="#51587D"/>
</svg>
