<svg width="42" height="42" viewBox="0 0 42 42" fill="none" xmlns="http://www.w3.org/2000/svg">
<circle cx="20.8264" cy="20.8264" r="20.8264" fill="#ADB3D7"/>
<mask id="mask0_431_27" style="mask-type:alpha" maskUnits="userSpaceOnUse" x="0" y="1" width="41" height="41">
<circle cx="20.8266" cy="21.8676" r="19.6322" fill="#C4C4C4" stroke="black"/>
</mask>
<g mask="url(#mask0_431_27)">
<path d="M6.39711 37.7581C6.39711 37.7581 4.7414 21.6592 14.7277 15.5918L28.8584 15.9389C28.8584 15.9389 34.8981 18.2125 35.7068 37.3797L21.6941 43.9435L6.39711 37.7581Z" fill="#5154A1"/>
<path d="M28.56 15.5752C28.56 15.5752 25.2833 20.2403 20.9653 20.0182L21.8123 23.6142C21.8123 23.6142 28.6607 18.9109 28.56 15.5752Z" fill="#373684"/>
<path d="M28.5599 15.5752C28.5599 15.5752 25.0368 19.9592 20.7188 19.7405L21.5622 23.3365C21.5622 23.3365 27.7789 19.5947 28.5599 15.5752Z" fill="#FAF3ED"/>
<path d="M19.6325 19.823L18.9695 23.4954C18.9695 23.4954 15.193 18.6776 14.9605 15.5918C14.957 15.5918 18.199 19.5766 19.6325 19.823Z" fill="#373684"/>
<path d="M19.4555 19.7744L18.671 23.3288C18.671 23.3288 15.2 18.6706 14.9604 15.5918C15.9831 17.4229 17.5556 18.8861 19.4555 19.7744Z" fill="#FAF3ED"/>
<path d="M20.6288 21.7425C20.6288 21.7425 21.323 30.8159 21.7708 32.8881C22.2185 34.9603 20.1498 37.102 20.0352 37.817H17.3798C17.3798 37.817 16.106 35.2449 16.3906 33.3046C16.6752 31.3643 19.8165 21.6279 19.8165 21.6279L20.6288 21.7425Z" fill="#C7361A"/>
<path d="M20.4862 21.6874C20.4862 21.6874 21.1804 30.7607 21.6282 32.8295C22.0759 34.8983 20.0072 37.0469 19.8926 37.7584H17.2373C17.2373 37.7584 15.9634 35.1864 16.248 33.246C16.5326 31.3057 19.674 21.5693 19.674 21.5693L20.4862 21.6874Z" fill="#E8461C"/>
<path d="M19.6601 21.3506L20.0419 20.8959C20.0637 20.8696 20.0909 20.8482 20.1218 20.8334C20.1536 20.8251 20.1871 20.8251 20.2189 20.8334C20.2528 20.8332 20.2857 20.8442 20.3126 20.8647C20.3427 20.8825 20.3678 20.9076 20.3856 20.9376L20.7778 21.5554C20.8127 21.61 20.8263 21.6755 20.816 21.7394C20.8079 21.8035 20.7771 21.8626 20.7292 21.906L20.1807 22.3399C20.1541 22.363 20.1217 22.3786 20.087 22.385C20.0552 22.3936 20.0217 22.3936 19.9899 22.385C19.9573 22.3746 19.9276 22.3567 19.9031 22.3329C19.8776 22.3071 19.8575 22.2764 19.8441 22.2427L19.6184 21.6387C19.6064 21.5932 19.6064 21.5454 19.6184 21.4999C19.6209 21.4476 19.6351 21.3966 19.6601 21.3506Z" fill="#C7361A"/>
<path d="M19.5872 21.3224L19.9552 20.8851C19.9766 20.8606 20.0025 20.8406 20.0315 20.8261C20.0612 20.8137 20.0931 20.8077 20.1253 20.8087C20.1573 20.8122 20.1881 20.8229 20.2155 20.8399C20.2435 20.8576 20.2672 20.8813 20.2849 20.9094L20.6632 21.5064C20.6787 21.5332 20.6893 21.5626 20.6945 21.5932C20.7014 21.624 20.7014 21.656 20.6945 21.6869C20.6905 21.7183 20.6811 21.7489 20.6667 21.7771C20.6509 21.8022 20.6309 21.8245 20.6077 21.8431L20.0836 22.2631C20.0589 22.2844 20.0289 22.2988 19.9968 22.3047C19.9648 22.3117 19.9317 22.3117 19.8996 22.3047C19.8682 22.2941 19.8396 22.2763 19.8163 22.2527C19.7927 22.2274 19.7739 22.198 19.7608 22.1659L19.5456 21.5862C19.5336 21.5419 19.5336 21.4952 19.5456 21.4509C19.5476 21.4051 19.562 21.3607 19.5872 21.3224Z" fill="#E8461C"/>
<path d="M11.9512 35.0236C11.9512 35.0236 12.4683 37.6096 12.4579 37.5541C12.4475 37.4985 13.0202 37.2347 13.0202 37.2347C12.9616 36.5096 12.8596 35.7887 12.7148 35.0757C12.5375 34.9831 12.3483 34.9153 12.1525 34.8744C12.1525 34.8744 12.4649 27.6962 14.315 27.1582C12.1976 27.6268 11.9512 35.0236 11.9512 35.0236Z" fill="#373684"/>
<path d="M5.64771 37.7588C5.44926 36.8649 5.36992 35.9487 5.4117 35.034C5.4117 35.034 10.2226 34.5342 12.6072 35.159C12.6072 35.159 12.9543 37.0056 12.8259 37.7588H5.64771Z" fill="#FAF3ED"/>
<g clip-path="url(#clip0_431_27)">
<path d="M12.8428 37.4878C12.8428 37.4878 12.7276 41.4502 11.2945 40.193C11.2945 40.193 10.569 42.1724 9.6954 40.642C9.6954 40.642 8.8561 42.887 8.11417 40.5522C8.11417 40.5522 7.14184 43.4744 6.15443 40.2828C6.15443 40.2828 3.02351 45.6146 2.77665 37.4878L12.8428 37.4878Z" fill="#CC8A7A"/>
<path d="M11.6771 37.4872C11.6775 38.4888 11.5399 39.4543 11.2918 40.1924C11.2918 40.1924 11.7923 39.4066 11.6771 37.4872Z" fill="#BC6A4F"/>
<path d="M9.94752 37.4874C10.0257 39.6912 9.69518 40.6416 9.69518 40.6416C9.69518 40.6416 10.1957 39.8372 9.94752 37.4874Z" fill="#BC6A4F"/>
<path d="M8.50086 37.4874C8.47767 38.5864 8.34385 39.6467 8.11412 40.5518C8.26272 40.1606 8.37524 39.679 8.44247 39.1464C8.50969 38.6137 8.5297 38.0452 8.50086 37.4874Z" fill="#BC6A4F"/>
<path d="M5.77981 38.5162C5.85338 39.1745 5.98094 39.7785 6.15283 40.2822C6.03759 40.1085 5.94194 39.8521 5.8762 39.5409C5.81046 39.2297 5.77713 38.8753 5.77981 38.5162Z" fill="#BC6A4F"/>
</g>
<g clip-path="url(#clip1_431_27)">
<path d="M39.2231 37.4878C39.2231 37.4878 39.1079 41.4502 37.6748 40.193C37.6748 40.193 36.9494 42.1724 36.0758 40.642C36.0758 40.642 35.2365 42.887 34.4945 40.5522C34.4945 40.5522 33.5222 43.4744 32.5348 40.2828C32.5348 40.2828 29.4039 45.6146 29.157 37.4878L39.2231 37.4878Z" fill="#CC8A7A"/>
<path d="M38.0575 37.4872C38.0578 38.4888 37.9203 39.4543 37.6721 40.1924C37.6721 40.1924 38.1727 39.4066 38.0575 37.4872Z" fill="#BC6A4F"/>
<path d="M36.3279 37.4874C36.4061 39.6912 36.0756 40.6416 36.0756 40.6416C36.0756 40.6416 36.5761 39.8372 36.3279 37.4874Z" fill="#BC6A4F"/>
<path d="M34.8812 37.4874C34.858 38.5864 34.7242 39.6467 34.4945 40.5518C34.6431 40.1606 34.7556 39.679 34.8228 39.1464C34.8901 38.6137 34.9101 38.0452 34.8812 37.4874Z" fill="#BC6A4F"/>
<path d="M32.1602 38.5162C32.2338 39.1745 32.3613 39.7785 32.5332 40.2822C32.418 40.1085 32.3223 39.8521 32.2566 39.5409C32.1908 39.2297 32.1575 38.8753 32.1602 38.5162Z" fill="#BC6A4F"/>
</g>
<path d="M11.9507 35.0234C10.2151 34.7388 7.71944 34.8534 6.36572 34.9506V34.6659C6.36572 34.6659 10.7497 34.541 11.9507 35.0234Z" fill="#373684"/>
<path d="M29.7782 34.9226L29.2714 37.453C29.2714 37.3975 28.7091 37.1337 28.7091 37.1337C28.7679 36.4075 28.8699 35.6854 29.0145 34.9712C29.1918 34.8786 29.3811 34.8108 29.5769 34.7699C29.5769 34.7699 29.084 27.5952 27.2339 27.0537C29.3651 27.5258 29.7782 34.9226 29.7782 34.9226Z" fill="#373684"/>
<path d="M36.0924 37.6582C36.2929 36.7634 36.3734 35.846 36.3319 34.93C36.3319 34.93 31.521 34.4336 29.1363 35.0549C29.1363 35.0549 28.7892 36.905 28.9177 37.6582H36.0924Z" fill="#FAF3ED"/>
<path d="M29.7783 34.9225C31.5139 34.6344 34.0061 34.7524 35.3598 34.8496V34.5615C35.3598 34.5615 30.9932 34.44 29.7783 34.9225Z" fill="#373684"/>
<path d="M13.0757 12.6074C13.0732 12.1838 13.1695 11.7655 13.3569 11.3856C13.5201 11.0407 13.7807 10.7511 14.1066 10.5525C14.4008 10.377 14.7494 10.3165 15.0855 10.3825C15.4356 10.4589 15.7498 10.6508 15.9775 10.9274C16.2408 11.2371 16.4211 11.6085 16.5017 12.0069C16.5954 12.4275 16.5954 12.8636 16.5017 13.2843C16.4072 13.6719 16.2175 14.0298 15.9498 14.3256C15.7104 14.5884 15.3905 14.7642 15.0404 14.8254C14.9722 14.8307 14.9038 14.8307 14.8356 14.8254C14.7186 14.8262 14.602 14.8122 14.4885 14.7838C14.0648 14.6613 13.7036 14.382 13.4784 14.0028C13.2178 13.5838 13.0784 13.1008 13.0757 12.6074Z" fill="#CC8A7A"/>
<path d="M20.5068 20.0314L19.6321 19.8232C17.7265 19.1706 14.1235 16.307 14.1235 12.6068C14.129 10.8244 14.8395 9.11658 16.0999 7.85622C17.3602 6.59586 19.0681 5.88538 20.8505 5.87988H22.6381C24.4205 5.88538 26.1283 6.59586 27.3887 7.85622C28.649 9.11658 29.3595 10.8244 29.365 12.6068C29.9031 15.8141 26.3001 18.8548 22.9401 19.7989C22.3166 19.9786 21.6727 20.0777 21.024 20.0939C20.8496 20.0958 20.6758 20.0748 20.5068 20.0314Z" fill="#CC8A7A"/>
<path d="M16.5673 12.9999C16.3482 12.9999 16.1381 12.9128 15.9832 12.7579C15.8282 12.603 15.7412 12.3929 15.7412 12.1738C15.7412 11.9547 15.8282 11.7445 15.9832 11.5896C16.1381 11.4347 16.3482 11.3477 16.5673 11.3477C16.7858 11.3486 16.995 11.436 17.1492 11.5908C17.3034 11.7457 17.39 11.9553 17.39 12.1738C17.39 12.3923 17.3034 12.6019 17.1492 12.7567C16.995 12.9115 16.7858 12.999 16.5673 12.9999Z" fill="#1B1935"/>
<path d="M24.9467 12.9999C24.7282 12.999 24.519 12.9115 24.3648 12.7567C24.2106 12.6019 24.124 12.3923 24.124 12.1738C24.124 11.9553 24.2106 11.7457 24.3648 11.5908C24.519 11.436 24.7282 11.3486 24.9467 11.3477C25.1658 11.3477 25.3759 11.4347 25.5308 11.5896C25.6858 11.7445 25.7728 11.9547 25.7728 12.1738C25.7728 12.3929 25.6858 12.603 25.5308 12.7579C25.3759 12.9128 25.1658 12.9999 24.9467 12.9999Z" fill="#1B1935"/>
<path d="M16.9702 10.9898C16.9519 10.9865 16.9331 10.9865 16.9147 10.9898L15.3874 11.6042C15.3494 11.6196 15.319 11.6494 15.3028 11.6871C15.2866 11.7247 15.2858 11.7673 15.3007 11.8055C15.3168 11.8437 15.3472 11.8742 15.3855 11.8904C15.4237 11.9066 15.4667 11.9073 15.5055 11.8923L17.0293 11.2814C17.0675 11.2652 17.098 11.2348 17.1142 11.1966C17.1304 11.1583 17.131 11.1153 17.116 11.0766C17.1023 11.0499 17.0814 11.0276 17.0556 11.0122C17.0298 10.9969 17.0002 10.9891 16.9702 10.9898Z" fill="black"/>
<path d="M24.3186 10.9023C24.2869 10.9024 24.256 10.912 24.23 10.93C24.204 10.948 24.184 10.9734 24.1728 11.003C24.1581 11.0417 24.1594 11.0846 24.1763 11.1223C24.1932 11.1601 24.2244 11.1896 24.263 11.2043L25.8007 11.784C25.8394 11.7987 25.8823 11.7974 25.92 11.7805C25.9578 11.7636 25.9872 11.7324 26.002 11.6938C26.0158 11.655 26.0141 11.6125 25.9973 11.575C25.9805 11.5375 25.9498 11.5079 25.9118 11.4924L24.3741 10.9128L24.3186 10.9023Z" fill="black"/>
<path d="M21.9195 15.36C21.0789 15.4919 20.2229 15.4919 19.3822 15.36C17.4731 15.0615 16.4838 15.7834 17.5842 16.2972C18.5602 16.6898 19.6006 16.8981 20.6526 16.9116C21.7035 16.8982 22.7428 16.6899 23.7176 16.2972C24.8214 15.7834 23.8286 15.0615 21.9195 15.36Z" fill="#E28E74"/>
<path d="M18.0464 15.6582C18.5393 16.04 19.5216 16.3003 20.6531 16.3003C21.7847 16.3003 22.767 16.04 23.2599 15.6582C23.2599 15.6582 20.6289 16.6405 18.0464 15.6582Z" fill="#BC6A4F"/>
<path d="M14.3457 7.13662L14.3769 7.08107C14.5677 6.71794 14.7246 6.33799 14.8455 5.94604C15.1053 5.27635 15.4959 4.66509 15.9945 4.148C17.0774 2.83247 19.1184 3.10668 19.5905 3.45379C19.6946 3.52668 19.7884 3.59264 19.8682 3.65512C19.9357 3.70334 20.0173 3.72779 20.1002 3.72465C20.1831 3.72151 20.2627 3.69096 20.3264 3.63777C20.7186 3.33231 20.7776 3.20042 21.6454 3.14488C22.5132 3.08934 22.9331 3.41563 23.0685 3.75579C23.0833 3.7982 23.1077 3.83655 23.14 3.86782C23.1722 3.89909 23.2112 3.9224 23.2541 3.93589C23.2969 3.94938 23.3423 3.95268 23.3866 3.94551C23.4309 3.93835 23.473 3.92092 23.5094 3.89462C23.9175 3.61932 24.3849 3.44437 24.8735 3.38405C25.3621 3.32372 25.8581 3.37974 26.3209 3.54752C29.4241 4.74504 30.6007 9.9586 30.0349 10.9964C29.9246 11.2182 29.7681 11.4138 29.5759 11.5701C29.3838 11.7263 29.1604 11.8396 28.9207 11.9024C28.3272 12.0378 28.4799 8.31677 25.1407 8.31677C25.0528 8.31401 24.9657 8.33556 24.8892 8.37903C24.8126 8.42251 24.7495 8.48624 24.7069 8.56322C24.5226 8.89072 24.2738 9.17739 23.9754 9.40591C23.6771 9.63442 23.3355 9.80002 22.9713 9.89265C21.4996 10.2918 20.2708 7.81 20.2708 7.81C20.2708 7.81 20.2049 9.28868 18.1882 10.0003C17.268 10.3186 16.271 10.3392 15.3384 10.0593C14.2555 9.75033 13.7417 8.28207 14.3457 7.13662Z" fill="black"/>
<path d="M27.6192 12.6074C27.6167 12.1838 27.7129 11.7655 27.9003 11.3856C28.0635 11.0407 28.3242 10.7511 28.6501 10.5525C28.9442 10.377 29.2929 10.3165 29.629 10.3825C29.9793 10.4581 30.2938 10.6502 30.521 10.9274C30.7842 11.2371 30.9646 11.6085 31.0451 12.0069C31.1406 12.4273 31.1406 12.8638 31.0451 13.2843C30.952 13.6724 30.7622 14.0306 30.4932 14.3256C30.2539 14.5884 29.934 14.7642 29.5838 14.8254C29.5168 14.8306 29.4495 14.8306 29.3825 14.8254C29.2655 14.8262 29.1489 14.8122 29.0354 14.7838C28.6117 14.6613 28.2505 14.382 28.0253 14.0028C27.765 13.5835 27.6245 13.1009 27.6192 12.6074Z" fill="#CC8A7A"/>
<path d="M30.5211 13.4473C30.6374 13.1778 30.6953 12.8868 30.6912 12.5934C30.6925 12.3003 30.6309 12.0103 30.5107 11.743C30.4051 11.4974 30.2377 11.2833 30.0248 11.1217C29.8343 10.9757 29.6018 10.8953 29.3618 10.8926C29.3618 10.8926 30.9134 11.4028 30.5211 13.4473Z" fill="#BC6A4F"/>
<path d="M25.0019 16.55C25.0594 16.4176 25.0878 16.2744 25.0852 16.13C25.0859 15.984 25.0551 15.8396 24.995 15.7066C24.9432 15.5856 24.8607 15.4803 24.7555 15.4011C24.6616 15.3298 24.5471 15.2908 24.4292 15.29C24.4292 15.29 25.1928 15.54 25.0019 16.55Z" fill="#BC6A4F"/>
<path d="M17.1576 15.2871C17.0257 15.3405 16.9072 15.4223 16.8105 15.5266C16.7091 15.6251 16.6288 15.7432 16.5745 15.8737C16.5259 15.9972 16.5104 16.1312 16.5293 16.2625C16.5443 16.3789 16.5967 16.4873 16.6786 16.5714C16.6786 16.5714 16.3107 15.8494 17.1576 15.2871Z" fill="#BC6A4F"/>
<path d="M18.1223 14.3881H22.4022C22.8284 14.3819 23.2528 14.4453 23.6587 14.5756C24.0058 14.697 24.1794 14.8602 24.1794 15.0303H16.3486C16.3486 14.8602 16.5361 14.6832 16.8693 14.5756C17.274 14.4455 17.6973 14.3822 18.1223 14.3881Z" fill="#6E333C"/>
</g>
<defs>
<clipPath id="clip0_431_27">
<rect width="10.0661" height="4.5124" fill="white" transform="translate(12.8428 42) rotate(-180)"/>
</clipPath>
<clipPath id="clip1_431_27">
<rect width="10.0661" height="4.5124" fill="white" transform="translate(39.2231 42) rotate(-180)"/>
</clipPath>
</defs>
</svg>
