<svg width="110" height="15" viewBox="0 0 110 15" fill="none" xmlns="http://www.w3.org/2000/svg">
<path d="M9.55305 11.888C9.55305 12.1227 9.47972 12.3573 9.33305 12.592C9.20105 12.8267 9.01772 13.0393 8.78305 13.23C8.56305 13.4207 8.30639 13.5747 8.01305 13.692C7.71972 13.8093 7.41905 13.868 7.11105 13.868C6.97905 13.868 6.83239 13.8533 6.67105 13.824C6.52439 13.78 6.38505 13.736 6.25305 13.692C6.12105 13.648 6.00372 13.604 5.90105 13.56C5.79839 13.516 5.73239 13.4793 5.70305 13.45C5.51239 13.626 5.29239 13.78 5.04305 13.912C4.79372 14.0293 4.52239 14.088 4.22905 14.088C3.67172 14.088 3.14372 13.9047 2.64505 13.538C2.14639 13.1713 1.71372 12.68 1.34705 12.064C0.980388 11.448 0.687055 10.7367 0.467055 9.93C0.261721 9.12333 0.159055 8.28 0.159055 7.4C0.159055 6.76933 0.203055 6.08733 0.291055 5.354C0.393721 4.62067 0.525721 3.946 0.687055 3.33C0.848388 2.69933 1.04639 2.17867 1.28105 1.768C1.51572 1.35733 1.77239 1.152 2.05105 1.152C2.10972 1.152 2.22705 1.18133 2.40305 1.24C2.57905 1.284 2.66705 1.35733 2.66705 1.46C2.66705 1.504 2.64505 1.548 2.60105 1.592C2.55705 1.62133 2.51305 1.65067 2.46905 1.68L2.24905 1.9C2.42505 1.856 2.62305 1.812 2.84305 1.768C3.06305 1.724 3.29772 1.702 3.54705 1.702C3.89905 1.702 4.29505 1.88533 4.73505 2.252C5.17505 2.61867 5.57839 3.088 5.94505 3.66C6.32639 4.232 6.64172 4.87733 6.89105 5.596C7.15505 6.3 7.28705 7.004 7.28705 7.708C7.28705 8.83733 7.20639 9.78333 7.04505 10.546C6.89839 11.3087 6.67105 11.998 6.36305 12.614C6.40705 12.6873 6.53172 12.746 6.73705 12.79C6.95705 12.834 7.11839 12.856 7.22105 12.856C7.45572 12.856 7.66105 12.812 7.83705 12.724C8.01305 12.636 8.15972 12.526 8.27705 12.394C8.40905 12.262 8.51172 12.13 8.58505 11.998C8.67305 11.8513 8.73905 11.7267 8.78305 11.624C8.85639 11.448 8.92239 11.36 8.98105 11.36C9.11305 11.36 9.23772 11.4113 9.35505 11.514C9.48705 11.602 9.55305 11.7267 9.55305 11.888ZM4.33905 9.446C4.33905 9.72467 4.38305 10.018 4.47105 10.326C4.55905 10.634 4.66172 10.92 4.77905 11.184C4.91105 11.448 5.05039 11.6753 5.19705 11.866C5.34372 12.042 5.48305 12.1373 5.61505 12.152C5.73239 11.976 5.84239 11.7267 5.94505 11.404C6.06239 11.0667 6.15772 10.7 6.23105 10.304C6.31905 9.908 6.38505 9.49733 6.42905 9.072C6.47305 8.64667 6.49505 8.24333 6.49505 7.862C6.49505 7.246 6.38505 6.62267 6.16505 5.992C5.95972 5.34667 5.70305 4.76733 5.39505 4.254C5.08705 3.74067 4.74972 3.32267 4.38305 3C4.03105 2.66267 3.70105 2.494 3.39305 2.494C3.07039 2.494 2.78439 2.52333 2.53505 2.582C2.30039 2.64067 2.03639 2.736 1.74305 2.868C1.61105 3.264 1.50105 3.63067 1.41305 3.968C1.33972 4.30533 1.27372 4.65 1.21505 5.002C1.15639 5.354 1.11239 5.728 1.08305 6.124C1.06839 6.50533 1.06105 6.938 1.06105 7.422C1.06105 8.17 1.15639 8.88867 1.34705 9.578C1.53772 10.2673 1.78705 10.876 2.09505 11.404C2.40305 11.932 2.74039 12.35 3.10705 12.658C3.48839 12.966 3.86239 13.12 4.22905 13.12C4.52239 13.12 4.76439 13.0467 4.95505 12.9C4.82305 12.768 4.66172 12.5847 4.47105 12.35C4.28039 12.1007 4.09705 11.8367 3.92105 11.558C3.74505 11.2647 3.59105 10.9713 3.45905 10.678C3.34172 10.37 3.28305 10.0767 3.28305 9.798C3.28305 9.71 3.28305 9.59267 3.28305 9.446C3.29772 9.28467 3.31972 9.13067 3.34905 8.984C3.39305 8.83733 3.44439 8.71267 3.50305 8.61C3.57639 8.49267 3.67172 8.434 3.78905 8.434C3.89172 8.434 3.97239 8.478 4.03105 8.566C4.10439 8.654 4.16305 8.75667 4.20705 8.874C4.25105 8.97667 4.28039 9.08667 4.29505 9.204C4.32439 9.32133 4.33905 9.402 4.33905 9.446ZM17.9412 10.348C17.9412 10.48 17.8532 10.6193 17.6772 10.766C17.5012 10.9127 17.2959 11.052 17.0612 11.184C16.8266 11.3013 16.5846 11.404 16.3352 11.492C16.1006 11.58 15.9246 11.624 15.8072 11.624C15.6752 11.624 15.5286 11.5873 15.3672 11.514C15.2206 11.4407 15.0739 11.3527 14.9272 11.25C14.7952 11.1473 14.6779 11.052 14.5752 10.964C14.4726 10.876 14.4066 10.8173 14.3772 10.788C14.3332 10.832 14.2672 10.92 14.1792 11.052C14.0912 11.184 13.9812 11.3307 13.8492 11.492C13.7319 11.6387 13.5999 11.7707 13.4532 11.888C13.3212 12.0053 13.1819 12.064 13.0352 12.064C12.6539 12.064 12.3239 11.8587 12.0452 11.448C11.7666 11.0373 11.5319 10.568 11.3412 10.04C11.1652 9.512 11.0259 9.006 10.9232 8.522C10.8352 8.02333 10.7912 7.686 10.7912 7.51C10.7912 7.40733 10.8426 7.32667 10.9452 7.268C11.0626 7.19467 11.1506 7.158 11.2092 7.158C11.4146 7.158 11.5539 7.23133 11.6272 7.378C11.7006 7.51 11.7372 7.65667 11.7372 7.818C11.7372 7.95 11.7739 8.18467 11.8472 8.522C11.9352 8.85933 12.0379 9.204 12.1552 9.556C12.2726 9.908 12.3972 10.2233 12.5292 10.502C12.6612 10.766 12.7786 10.898 12.8812 10.898C13.0719 10.898 13.2332 10.7807 13.3652 10.546C13.5119 10.2967 13.6292 10.018 13.7172 9.71C13.8052 9.38733 13.8712 9.08667 13.9152 8.808C13.9592 8.51467 13.9812 8.324 13.9812 8.236C13.9812 8.22133 13.9812 8.17733 13.9812 8.104C13.9959 8.016 14.0106 7.928 14.0252 7.84C14.0399 7.752 14.0472 7.67133 14.0472 7.598C14.0619 7.52467 14.0692 7.47333 14.0692 7.444C14.0692 7.34133 14.0472 7.27533 14.0032 7.246C13.9592 7.202 13.9372 7.12133 13.9372 7.004C13.9372 6.916 13.9812 6.83533 14.0692 6.762C14.1572 6.674 14.3479 6.63 14.6412 6.63C14.7586 6.63 14.8466 6.66667 14.9052 6.74C14.9786 6.79867 15.0299 6.872 15.0592 6.96C15.0886 7.048 15.1032 7.136 15.1032 7.224C15.1179 7.29733 15.1252 7.34867 15.1252 7.378C15.1252 7.39267 15.1179 7.49533 15.1032 7.686C15.0886 7.87667 15.0739 8.08933 15.0592 8.324C15.0592 8.544 15.0519 8.75667 15.0372 8.962C15.0226 9.16733 15.0152 9.292 15.0152 9.336C15.0152 9.38 15.0372 9.468 15.0812 9.6C15.1252 9.732 15.1766 9.87133 15.2352 10.018C15.3086 10.15 15.3892 10.2747 15.4772 10.392C15.5652 10.4947 15.6606 10.546 15.7632 10.546C15.9392 10.546 16.1006 10.524 16.2472 10.48C16.4086 10.4213 16.5552 10.3627 16.6872 10.304C16.8339 10.2307 16.9659 10.172 17.0832 10.128C17.2006 10.0693 17.3106 10.04 17.4132 10.04C17.5452 10.04 17.6626 10.0693 17.7652 10.128C17.8826 10.1867 17.9412 10.26 17.9412 10.348ZM20.1223 3.88C20.1223 3.90933 20.071 3.968 19.9683 4.056C19.8657 4.144 19.741 4.23933 19.5943 4.342C19.4623 4.43 19.323 4.51067 19.1763 4.584C19.0297 4.65733 18.9123 4.694 18.8243 4.694C18.7657 4.694 18.685 4.694 18.5823 4.694C18.4943 4.67933 18.399 4.65 18.2963 4.606C18.2083 4.562 18.1277 4.50333 18.0543 4.43C17.981 4.342 17.9443 4.232 17.9443 4.1C17.9443 3.89467 18.0177 3.704 18.1643 3.528C18.311 3.33733 18.5017 3.242 18.7363 3.242C18.7803 3.242 18.8757 3.264 19.0223 3.308C19.1837 3.33733 19.345 3.38133 19.5063 3.44C19.6677 3.49867 19.807 3.56467 19.9243 3.638C20.0563 3.71133 20.1223 3.792 20.1223 3.88ZM20.8483 12.108C20.8483 12.2107 20.7677 12.2987 20.6063 12.372C20.4597 12.4453 20.3497 12.482 20.2763 12.482C20.1297 12.482 19.9977 12.3867 19.8803 12.196C19.763 12.0053 19.6603 11.7853 19.5723 11.536C19.4843 11.2867 19.411 11.052 19.3523 10.832C19.2937 10.5973 19.2497 10.436 19.2203 10.348C19.1763 10.2013 19.1177 10.0253 19.0443 9.82C18.971 9.61467 18.8977 9.41667 18.8243 9.226C18.7657 9.03533 18.7143 8.86667 18.6703 8.72C18.6263 8.57333 18.6043 8.49267 18.6043 8.478C18.6043 8.27267 18.641 8.082 18.7143 7.906C18.8023 7.73 18.905 7.642 19.0223 7.642C19.1543 7.642 19.2937 7.74467 19.4403 7.95C19.587 8.15533 19.7263 8.41933 19.8583 8.742C20.005 9.05 20.137 9.39467 20.2543 9.776C20.3717 10.1427 20.4743 10.4947 20.5623 10.832C20.6503 11.1547 20.7163 11.4407 20.7603 11.69C20.819 11.9247 20.8483 12.064 20.8483 12.108ZM36.2997 11.096C36.2997 11.3453 36.2117 11.5653 36.0357 11.756C35.8744 11.932 35.6617 12.086 35.3977 12.218C35.1484 12.3353 34.8697 12.4307 34.5617 12.504C34.2537 12.5773 33.9604 12.636 33.6817 12.68C33.4031 12.7093 33.1537 12.7313 32.9337 12.746C32.7284 12.746 32.5964 12.746 32.5377 12.746C32.2151 12.746 31.9657 12.6947 31.7897 12.592C31.6137 12.4893 31.5257 12.306 31.5257 12.042C31.5257 11.954 31.5331 11.8807 31.5477 11.822C31.5624 11.7487 31.6211 11.712 31.7237 11.712C31.7677 11.712 31.8411 11.7267 31.9437 11.756C32.0464 11.7707 32.1271 11.778 32.1857 11.778C32.2444 11.778 32.4277 11.7707 32.7357 11.756C33.0584 11.7267 33.3957 11.6827 33.7477 11.624C34.1144 11.5653 34.4371 11.4847 34.7157 11.382C35.0091 11.2647 35.1557 11.118 35.1557 10.942C35.1557 10.9127 35.0017 10.8247 34.6937 10.678C34.4004 10.5167 33.9531 10.2527 33.3517 9.886C32.8824 9.59267 32.5524 9.29933 32.3617 9.006C32.1711 8.698 32.0757 8.28733 32.0757 7.774C32.0757 7.45133 32.1417 7.18733 32.2737 6.982C32.4204 6.77667 32.6111 6.61533 32.8457 6.498C33.0951 6.38067 33.3737 6.3 33.6817 6.256C34.0044 6.19733 34.3417 6.168 34.6937 6.168C34.7231 6.168 34.8111 6.18267 34.9577 6.212C35.1191 6.24133 35.2877 6.29267 35.4637 6.366C35.6397 6.42467 35.7937 6.50533 35.9257 6.608C36.0724 6.696 36.1457 6.79867 36.1457 6.916C36.1457 6.94533 36.1164 6.98933 36.0577 7.048C36.0137 7.10667 35.9331 7.21667 35.8157 7.378C35.7717 7.36333 35.6911 7.34133 35.5737 7.312C35.4711 7.28267 35.3464 7.25333 35.1997 7.224C35.0677 7.18 34.9284 7.15067 34.7817 7.136C34.6351 7.10667 34.5177 7.092 34.4297 7.092C34.0484 7.092 33.7404 7.16533 33.5057 7.312C33.2711 7.444 33.1537 7.708 33.1537 8.104C33.1537 8.29467 33.2271 8.47067 33.3737 8.632C33.5351 8.79333 33.7331 8.94733 33.9677 9.094C34.2024 9.226 34.4517 9.36533 34.7157 9.512C34.9944 9.644 35.2511 9.79067 35.4857 9.952C35.7204 10.1133 35.9111 10.2893 36.0577 10.48C36.2191 10.656 36.2997 10.8613 36.2997 11.096ZM44.2978 11.69C44.3124 11.7193 44.3198 11.7633 44.3198 11.822C44.3198 11.91 44.2538 12.042 44.1218 12.218C44.0778 12.2767 43.9824 12.372 43.8358 12.504C43.6891 12.636 43.4911 12.768 43.2418 12.9C42.9924 13.032 42.6844 13.1493 42.3178 13.252C41.9658 13.3547 41.5478 13.406 41.0638 13.406C40.7264 13.406 40.3964 13.3327 40.0738 13.186C39.7511 13.0247 39.4651 12.7973 39.2158 12.504C38.9664 12.196 38.7611 11.822 38.5998 11.382C38.4384 10.9273 38.3578 10.3993 38.3578 9.798C38.3578 9.226 38.4311 8.69067 38.5778 8.192C38.7244 7.69333 38.9078 7.25333 39.1278 6.872C39.3624 6.49067 39.6191 6.19 39.8978 5.97C40.1764 5.75 40.4478 5.64 40.7118 5.64C40.9464 5.64 41.1811 5.69133 41.4158 5.794C41.6651 5.882 41.8851 5.99933 42.0758 6.146C42.2811 6.29267 42.4424 6.46133 42.5598 6.652C42.6771 6.828 42.7358 7.01133 42.7358 7.202C42.7358 7.422 42.6331 7.64933 42.4278 7.884C42.2371 8.11867 42.0024 8.33867 41.7238 8.544C41.4451 8.73467 41.1664 8.896 40.8878 9.028C40.6091 9.14533 40.3891 9.204 40.2278 9.204C40.1398 9.204 40.0591 9.16733 39.9858 9.094C39.9271 9.006 39.8978 8.90333 39.8978 8.786C39.8978 8.58067 39.9858 8.41933 40.1618 8.302C40.3524 8.18467 40.5578 8.082 40.7778 7.994C40.9978 7.89133 41.1958 7.774 41.3718 7.642C41.5624 7.51 41.6578 7.32667 41.6578 7.092C41.6578 7.06267 41.6211 6.98933 41.5478 6.872C41.4744 6.75467 41.2764 6.696 40.9538 6.696C40.8071 6.696 40.6384 6.784 40.4478 6.96C40.2571 7.12133 40.0738 7.34867 39.8978 7.642C39.7218 7.92067 39.5751 8.258 39.4578 8.654C39.3404 9.03533 39.2818 9.45333 39.2818 9.908C39.2818 10.2893 39.3478 10.634 39.4798 10.942C39.6264 11.25 39.8098 11.514 40.0298 11.734C40.2498 11.9393 40.5064 12.1007 40.7998 12.218C41.0931 12.3353 41.3938 12.394 41.7018 12.394C41.9218 12.394 42.1564 12.35 42.4058 12.262C42.6698 12.1593 42.9118 12.0567 43.1318 11.954C43.3664 11.8367 43.5644 11.734 43.7258 11.646C43.9018 11.5433 44.0118 11.492 44.0558 11.492C44.0998 11.492 44.1438 11.514 44.1878 11.558C44.2464 11.602 44.2831 11.646 44.2978 11.69ZM51.0437 7.29C51.0437 7.39267 50.9997 7.48067 50.9117 7.554C50.8237 7.61267 50.721 7.664 50.6037 7.708C50.4863 7.752 50.369 7.78867 50.2517 7.818C50.1343 7.83267 50.039 7.84 49.9657 7.84C49.7457 7.84 49.599 7.82533 49.5257 7.796C49.4523 7.76667 49.3937 7.752 49.3497 7.752C48.983 7.752 48.6897 7.78133 48.4697 7.84C48.2497 7.89867 48.0737 7.994 47.9417 8.126C47.8243 8.258 47.7437 8.42667 47.6997 8.632C47.6703 8.82267 47.6557 9.05733 47.6557 9.336C47.6557 9.80533 47.6703 10.1793 47.6997 10.458C47.7437 10.7367 47.7803 10.964 47.8097 11.14C47.8537 11.316 47.8903 11.4553 47.9197 11.558C47.9637 11.646 47.9857 11.734 47.9857 11.822C47.9857 11.9393 47.9197 12.064 47.7877 12.196C47.6703 12.328 47.5603 12.394 47.4577 12.394C47.2817 12.394 47.1203 12.24 46.9737 11.932C46.8417 11.6093 46.7243 11.2353 46.6217 10.81C46.5337 10.37 46.4603 9.93733 46.4017 9.512C46.343 9.08667 46.3137 8.764 46.3137 8.544C46.3137 8.29467 46.3357 8.06 46.3797 7.84C46.4237 7.60533 46.4823 7.40733 46.5557 7.246C46.629 7.07 46.7097 6.93067 46.7977 6.828C46.8857 6.72533 46.9737 6.674 47.0617 6.674C47.135 6.674 47.1937 6.70333 47.2377 6.762C47.2817 6.806 47.3183 6.86467 47.3477 6.938C47.377 6.99667 47.4063 7.05533 47.4357 7.114C47.4797 7.158 47.531 7.18 47.5897 7.18C47.7217 7.18 47.9343 7.114 48.2277 6.982C48.521 6.85 48.8803 6.784 49.3057 6.784C49.7017 6.784 49.995 6.79867 50.1857 6.828C50.391 6.84267 50.589 6.88667 50.7797 6.96C50.8237 6.97467 50.875 7.01133 50.9337 7.07C51.007 7.114 51.0437 7.18733 51.0437 7.29ZM63.2626 9.424C63.2626 9.688 63.1379 10.018 62.8886 10.414C62.6539 10.7953 62.3313 11.1693 61.9206 11.536C61.5099 11.9027 61.0333 12.218 60.4906 12.482C59.9479 12.7313 59.3833 12.856 58.7966 12.856C58.5326 12.856 58.2539 12.812 57.9606 12.724C57.6673 12.636 57.3813 12.5113 57.1026 12.35C56.8239 12.174 56.5746 11.9687 56.3546 11.734C56.1346 11.4847 55.9733 11.206 55.8706 10.898C55.7826 10.986 55.6726 11.1327 55.5406 11.338C55.4233 11.5433 55.2913 11.756 55.1446 11.976C54.9979 12.1813 54.8366 12.3647 54.6606 12.526C54.4846 12.6727 54.3013 12.746 54.1106 12.746C53.9199 12.746 53.7586 12.6507 53.6266 12.46C53.5093 12.2547 53.4139 12.0347 53.3406 11.8C53.2673 11.5507 53.2159 11.316 53.1866 11.096C53.1573 10.876 53.1426 10.7513 53.1426 10.722C53.1426 10.546 53.1939 10.216 53.2966 9.732C53.3993 9.23333 53.5533 8.72 53.7586 8.192C53.9639 7.664 54.2206 7.19467 54.5286 6.784C54.8513 6.37333 55.2253 6.168 55.6506 6.168C55.8119 6.168 55.9146 6.24133 55.9586 6.388C56.0173 6.52 56.0466 6.652 56.0466 6.784V7.444C56.1199 7.50267 56.1933 7.54667 56.2666 7.576C56.3546 7.59067 56.4279 7.62 56.4866 7.664C56.5599 7.69333 56.6113 7.74467 56.6406 7.818C56.6846 7.89133 56.7066 8.00867 56.7066 8.17C56.7066 8.27267 56.6993 8.368 56.6846 8.456C56.6699 8.52933 56.6626 8.60267 56.6626 8.676C56.6626 9.05733 56.6919 9.43133 56.7506 9.798C56.8093 10.1647 56.9266 10.4947 57.1026 10.788C57.2786 11.0667 57.5206 11.3013 57.8286 11.492C58.1366 11.668 58.5473 11.756 59.0606 11.756C59.7059 11.756 60.2486 11.624 60.6886 11.36C61.1433 11.0813 61.5173 10.7807 61.8106 10.458C62.1186 10.1207 62.3606 9.82 62.5366 9.556C62.7126 9.27733 62.8593 9.138 62.9766 9.138C63.1673 9.138 63.2626 9.23333 63.2626 9.424ZM55.5406 8.456C55.5406 8.39733 55.5259 8.346 55.4966 8.302C55.4673 8.24333 55.4526 8.192 55.4526 8.148C55.4526 8.08933 55.4673 8.038 55.4966 7.994C55.5259 7.95 55.5406 7.89133 55.5406 7.818C55.5406 7.774 55.5259 7.74467 55.4966 7.73C55.4673 7.70067 55.4526 7.67133 55.4526 7.642C55.3206 7.67133 55.1813 7.796 55.0346 8.016C54.9026 8.236 54.7706 8.49267 54.6386 8.786C54.5213 9.07933 54.4259 9.38 54.3526 9.688C54.2793 9.98133 54.2426 10.2233 54.2426 10.414C54.2426 10.5167 54.2719 10.6853 54.3306 10.92C54.3893 11.1547 54.4553 11.3087 54.5286 11.382C54.7779 10.8687 55.0053 10.37 55.2106 9.886C55.4306 9.402 55.5406 8.92533 55.5406 8.456ZM78.7587 11.69C78.7734 11.7193 78.7807 11.7633 78.7807 11.822C78.7807 11.91 78.7147 12.042 78.5827 12.218C78.5387 12.2767 78.4434 12.372 78.2967 12.504C78.15 12.636 77.952 12.768 77.7027 12.9C77.4534 13.032 77.1454 13.1493 76.7787 13.252C76.4267 13.3547 76.0087 13.406 75.5247 13.406C75.1874 13.406 74.8574 13.3327 74.5347 13.186C74.212 13.0247 73.926 12.7973 73.6767 12.504C73.4274 12.196 73.222 11.822 73.0607 11.382C72.8994 10.9273 72.8187 10.3993 72.8187 9.798C72.8187 9.226 72.892 8.69067 73.0387 8.192C73.1854 7.69333 73.3687 7.25333 73.5887 6.872C73.8234 6.49067 74.08 6.19 74.3587 5.97C74.6374 5.75 74.9087 5.64 75.1727 5.64C75.4074 5.64 75.642 5.69133 75.8767 5.794C76.126 5.882 76.346 5.99933 76.5367 6.146C76.742 6.29267 76.9034 6.46133 77.0207 6.652C77.138 6.828 77.1967 7.01133 77.1967 7.202C77.1967 7.422 77.094 7.64933 76.8887 7.884C76.698 8.11867 76.4634 8.33867 76.1847 8.544C75.906 8.73467 75.6274 8.896 75.3487 9.028C75.07 9.14533 74.85 9.204 74.6887 9.204C74.6007 9.204 74.52 9.16733 74.4467 9.094C74.388 9.006 74.3587 8.90333 74.3587 8.786C74.3587 8.58067 74.4467 8.41933 74.6227 8.302C74.8134 8.18467 75.0187 8.082 75.2387 7.994C75.4587 7.89133 75.6567 7.774 75.8327 7.642C76.0234 7.51 76.1187 7.32667 76.1187 7.092C76.1187 7.06267 76.082 6.98933 76.0087 6.872C75.9354 6.75467 75.7374 6.696 75.4147 6.696C75.268 6.696 75.0994 6.784 74.9087 6.96C74.718 7.12133 74.5347 7.34867 74.3587 7.642C74.1827 7.92067 74.036 8.258 73.9187 8.654C73.8014 9.03533 73.7427 9.45333 73.7427 9.908C73.7427 10.2893 73.8087 10.634 73.9407 10.942C74.0874 11.25 74.2707 11.514 74.4907 11.734C74.7107 11.9393 74.9674 12.1007 75.2607 12.218C75.554 12.3353 75.8547 12.394 76.1627 12.394C76.3827 12.394 76.6174 12.35 76.8667 12.262C77.1307 12.1593 77.3727 12.0567 77.5927 11.954C77.8274 11.8367 78.0254 11.734 78.1867 11.646C78.3627 11.5433 78.4727 11.492 78.5167 11.492C78.5607 11.492 78.6047 11.514 78.6487 11.558C78.7074 11.602 78.744 11.646 78.7587 11.69ZM77.5047 2.384C77.5047 2.50133 77.4167 2.67 77.2407 2.89C77.0647 3.11 76.852 3.33733 76.6027 3.572C76.368 3.80667 76.1187 4.02667 75.8547 4.232C75.6054 4.42267 75.4074 4.55467 75.2607 4.628C75.1434 4.68667 75.0407 4.72333 74.9527 4.738C74.8647 4.75267 74.7914 4.76 74.7327 4.76C74.6154 4.76 74.4687 4.694 74.2927 4.562C74.1167 4.43 74.0287 4.30533 74.0287 4.188C74.0287 4.15867 74.0947 4.122 74.2267 4.078C74.3587 4.01933 74.5054 3.946 74.6667 3.858C74.8134 3.77 75.004 3.63067 75.2387 3.44C75.488 3.23467 75.73 3.03667 75.9647 2.846C76.214 2.64067 76.434 2.46467 76.6247 2.318C76.83 2.17133 76.9694 2.098 77.0427 2.098C77.1454 2.098 77.248 2.12733 77.3507 2.186C77.4534 2.24467 77.5047 2.31067 77.5047 2.384ZM83.2386 13.362C83.2386 13.4793 83.1946 13.5673 83.1066 13.626C83.0186 13.6847 82.9159 13.714 82.7986 13.714C82.6666 13.714 82.5273 13.5893 82.3806 13.34C82.2486 13.0907 82.1166 12.7753 81.9846 12.394C81.8526 12.0127 81.7279 11.602 81.6106 11.162C81.4933 10.7073 81.3906 10.2893 81.3026 9.908C81.2146 9.512 81.1413 9.182 81.0826 8.918C81.0386 8.654 81.0166 8.50733 81.0166 8.478C81.0166 8.41933 80.9873 8.26533 80.9286 8.016C80.8846 7.76667 80.8186 7.378 80.7306 6.85C80.6573 6.322 80.5693 5.64 80.4666 4.804C80.3786 3.95333 80.2833 2.90467 80.1806 1.658C80.1806 1.526 80.2026 1.35733 80.2466 1.152C80.2906 0.946665 80.3933 0.843999 80.5546 0.843999C80.7599 0.843999 80.9139 0.983332 81.0166 1.262C81.1339 1.54067 81.2219 1.88533 81.2806 2.296C81.3539 2.70667 81.4053 3.13933 81.4346 3.594C81.4639 4.034 81.5006 4.42267 81.5446 4.76C81.6033 5.22933 81.6546 5.65467 81.6986 6.036C81.7573 6.41733 81.8086 6.79867 81.8526 7.18C81.9113 7.54667 81.9773 7.93533 82.0506 8.346C82.1386 8.75667 82.2413 9.21133 82.3586 9.71L83.2386 13.362ZM92.1912 10.348C92.1912 10.48 92.1032 10.6193 91.9272 10.766C91.7512 10.9127 91.5459 11.052 91.3112 11.184C91.0766 11.3013 90.8346 11.404 90.5852 11.492C90.3506 11.58 90.1746 11.624 90.0572 11.624C89.9252 11.624 89.7786 11.5873 89.6172 11.514C89.4706 11.4407 89.3239 11.3527 89.1772 11.25C89.0452 11.1473 88.9279 11.052 88.8252 10.964C88.7226 10.876 88.6566 10.8173 88.6272 10.788C88.5832 10.832 88.5172 10.92 88.4292 11.052C88.3412 11.184 88.2312 11.3307 88.0992 11.492C87.9819 11.6387 87.8499 11.7707 87.7032 11.888C87.5712 12.0053 87.4319 12.064 87.2852 12.064C86.9039 12.064 86.5739 11.8587 86.2952 11.448C86.0166 11.0373 85.7819 10.568 85.5912 10.04C85.4152 9.512 85.2759 9.006 85.1732 8.522C85.0852 8.02333 85.0412 7.686 85.0412 7.51C85.0412 7.40733 85.0926 7.32667 85.1952 7.268C85.3126 7.19467 85.4006 7.158 85.4592 7.158C85.6646 7.158 85.8039 7.23133 85.8772 7.378C85.9506 7.51 85.9872 7.65667 85.9872 7.818C85.9872 7.95 86.0239 8.18467 86.0972 8.522C86.1852 8.85933 86.2879 9.204 86.4052 9.556C86.5226 9.908 86.6472 10.2233 86.7792 10.502C86.9112 10.766 87.0286 10.898 87.1312 10.898C87.3219 10.898 87.4832 10.7807 87.6152 10.546C87.7619 10.2967 87.8792 10.018 87.9672 9.71C88.0552 9.38733 88.1212 9.08667 88.1652 8.808C88.2092 8.51467 88.2312 8.324 88.2312 8.236C88.2312 8.22133 88.2312 8.17733 88.2312 8.104C88.2459 8.016 88.2606 7.928 88.2752 7.84C88.2899 7.752 88.2972 7.67133 88.2972 7.598C88.3119 7.52467 88.3192 7.47333 88.3192 7.444C88.3192 7.34133 88.2972 7.27533 88.2532 7.246C88.2092 7.202 88.1872 7.12133 88.1872 7.004C88.1872 6.916 88.2312 6.83533 88.3192 6.762C88.4072 6.674 88.5979 6.63 88.8912 6.63C89.0086 6.63 89.0966 6.66667 89.1552 6.74C89.2286 6.79867 89.2799 6.872 89.3092 6.96C89.3386 7.048 89.3532 7.136 89.3532 7.224C89.3679 7.29733 89.3752 7.34867 89.3752 7.378C89.3752 7.39267 89.3679 7.49533 89.3532 7.686C89.3386 7.87667 89.3239 8.08933 89.3092 8.324C89.3092 8.544 89.3019 8.75667 89.2872 8.962C89.2726 9.16733 89.2652 9.292 89.2652 9.336C89.2652 9.38 89.2872 9.468 89.3312 9.6C89.3752 9.732 89.4266 9.87133 89.4852 10.018C89.5586 10.15 89.6392 10.2747 89.7272 10.392C89.8152 10.4947 89.9106 10.546 90.0132 10.546C90.1892 10.546 90.3506 10.524 90.4972 10.48C90.6586 10.4213 90.8052 10.3627 90.9372 10.304C91.0839 10.2307 91.2159 10.172 91.3332 10.128C91.4506 10.0693 91.5606 10.04 91.6632 10.04C91.7952 10.04 91.9126 10.0693 92.0152 10.128C92.1326 10.1867 92.1912 10.26 92.1912 10.348ZM109.048 4.496C109.048 4.76 108.938 5.03867 108.718 5.332C108.498 5.61067 108.226 5.904 107.904 6.212C107.581 6.50533 107.229 6.806 106.848 7.114C106.466 7.422 106.114 7.73 105.792 8.038C105.469 8.33133 105.198 8.61733 104.978 8.896C104.758 9.17467 104.648 9.43133 104.648 9.666C104.648 9.82733 104.662 10.0033 104.692 10.194C104.736 10.37 104.794 10.5167 104.868 10.634C104.794 10.766 104.721 10.8687 104.648 10.942C104.574 11.0153 104.479 11.052 104.362 11.052C104.259 11.052 104.164 11.008 104.076 10.92C104.002 10.832 103.936 10.722 103.878 10.59C103.819 10.458 103.768 10.3187 103.724 10.172C103.694 10.0253 103.68 9.89333 103.68 9.776C103.68 9.43867 103.724 9.16 103.812 8.94C103.9 8.70533 104.032 8.49267 104.208 8.302C104.398 8.09667 104.626 7.89133 104.89 7.686C105.154 7.48067 105.462 7.246 105.814 6.982C106.078 6.77667 106.342 6.55667 106.606 6.322C106.884 6.08733 107.126 5.86 107.332 5.64C107.552 5.40533 107.728 5.18533 107.86 4.98C108.006 4.76 108.08 4.562 108.08 4.386C108.08 4.23933 108.014 4.09267 107.882 3.946C107.764 3.79933 107.603 3.67467 107.398 3.572C107.192 3.45467 106.95 3.36667 106.672 3.308C106.393 3.23467 106.1 3.198 105.792 3.198C105.102 3.198 104.56 3.24933 104.164 3.352C103.782 3.45467 103.474 3.506 103.24 3.506C103.122 3.506 103.005 3.47667 102.888 3.418C102.77 3.34467 102.712 3.242 102.712 3.11C102.712 2.934 102.844 2.78733 103.108 2.67C103.372 2.55267 103.672 2.46467 104.01 2.406C104.362 2.34733 104.692 2.31067 105 2.296C105.322 2.26667 105.535 2.252 105.638 2.252C106.092 2.252 106.525 2.318 106.936 2.45C107.346 2.582 107.706 2.75067 108.014 2.956C108.336 3.16133 108.586 3.40333 108.762 3.682C108.952 3.946 109.048 4.21733 109.048 4.496ZM106.166 13.868C106.166 14.044 106.078 14.176 105.902 14.264C105.726 14.3667 105.564 14.418 105.418 14.418C105.286 14.418 105.132 14.3447 104.956 14.198C104.78 14.066 104.692 13.934 104.692 13.802C104.692 13.758 104.692 13.6993 104.692 13.626C104.706 13.538 104.728 13.45 104.758 13.362C104.802 13.274 104.853 13.2007 104.912 13.142C104.97 13.0687 105.051 13.032 105.154 13.032C105.198 13.032 105.271 13.0687 105.374 13.142C105.491 13.2007 105.608 13.274 105.726 13.362C105.843 13.45 105.946 13.5453 106.034 13.648C106.122 13.736 106.166 13.8093 106.166 13.868Z" fill="#505050"/>
</svg>
