<svg width="205" height="23" viewBox="0 0 205 23" fill="none" xmlns="http://www.w3.org/2000/svg">
<path d="M10.9826 0.399997C4.62262 0.399998 0.722619 3.28 0.722619 7.45C0.72262 11.86 3.30262 13.96 11.1926 14.56C12.9626 14.68 14.1626 14.74 14.1626 15.37C14.1626 16.18 13.7126 16.42 11.1626 16.42C8.91262 16.42 8.04262 15.94 7.98262 15.04L0.482621 15.04C0.722622 19.66 4.38262 22.3 11.1626 22.3C18.0626 22.3 21.8126 20.05 21.8126 15.46C21.8126 10.99 19.8926 8.77 11.1926 8.17C9.12262 8.02 8.19262 7.99 8.19262 7.33C8.19262 6.58 8.94262 6.28 10.9826 6.28C12.6926 6.28 13.9226 6.67 14.0126 7.63L21.5426 7.63C21.3626 3.13 17.9726 0.399996 10.9826 0.399997ZM30.8489 0.699993L23.3489 0.699995L23.349 22L30.849 22L30.8489 0.699993ZM46.1947 11.62L41.5446 0.699992L32.6646 0.699993L32.6647 22L40.0147 22L40.0147 12.01L43.8547 22L48.1747 22L52.0147 12.01L52.0147 22L59.3647 22L59.3646 0.699988L51.0247 0.69999L46.1947 11.62ZM75.3005 0.699986L75.3005 12.49C75.3005 14.38 73.6505 15.4 71.9405 15.4C70.1705 15.4 68.6105 14.38 68.6105 12.49L68.6105 0.699987L61.1105 0.699988L61.1105 12.31C61.1105 19.12 65.7005 22.3 71.9105 22.3C78.4805 22.3 82.8005 19.15 82.8005 12.31L82.8005 0.699984L75.3005 0.699986ZM84.5494 22L102.069 22L102.069 15.1L92.0494 15.1L92.0494 0.699983L84.5494 0.699984L84.5494 22ZM119.257 22L127.207 22L119.977 0.699978L109.747 0.69998L102.517 22L110.497 22L111.457 18.76L118.297 18.76L119.257 22ZM114.877 7.26998L116.707 13.39L113.047 13.39L114.877 7.26998ZM124.826 7.65998L132.266 7.65998L132.266 22L139.766 22L139.766 7.65998L147.206 7.65997L147.206 0.699973L124.826 0.699977L124.826 7.65998ZM156.24 0.699972L148.74 0.699973L148.74 22L156.24 22L156.24 0.699972ZM157.605 11.35C157.605 18.58 162.855 22.3 169.485 22.3C176.655 22.3 181.305 18.58 181.305 11.35C181.305 4.62997 176.505 0.399968 169.485 0.39997C162.855 0.399971 157.605 4.53997 157.605 11.35ZM165.285 11.35C165.285 8.85997 166.965 7.20997 169.485 7.20997C172.065 7.20997 173.655 8.88997 173.655 11.35C173.655 13.96 172.095 15.49 169.485 15.49C166.965 15.49 165.285 13.93 165.285 11.35ZM197.335 0.699964L197.335 11.11L190.285 0.699966L182.665 0.699967L182.665 22L190.165 22L190.165 11.47L197.515 22L204.925 22L204.925 0.699963L197.335 0.699964Z" fill="#989595"/>
</svg>
