<svg id="Calque_34" data-name="Calque 34" xmlns="http://www.w3.org/2000/svg" viewBox="0 0 79.78 47.67"><defs><style>.cls-1{fill:#fff;}</style></defs><path class="cls-1" d="M370,516.47a1.13,1.13,0,0,1,.54.16.87.87,0,0,1,.35.41.84.84,0,0,1,0,.52.94.94,0,0,1-.76.7,1,1,0,0,1-.56,0,.89.89,0,0,1-.43-.33.83.83,0,0,1-.16-.5.84.84,0,0,1,.07-.35,1,1,0,0,1,.21-.3.94.94,0,0,1,.32-.19,1,1,0,0,1,.37-.07m0,1.63a.93.93,0,0,0,.29-.05.79.79,0,0,0,.39-.39.75.75,0,0,0,.05-.26.65.65,0,0,0-.05-.27.7.7,0,0,0-.15-.23.61.61,0,0,0-.24-.15.72.72,0,0,0-.29-.06.78.78,0,0,0-.53.21.68.68,0,0,0,0,1A.78.78,0,0,0,370,518.1Zm.64-.57c-.15.11-.21.21-.3.28a.51.51,0,0,1-.31.11.54.54,0,0,1-.22,0,.62.62,0,0,1-.19-.12.57.57,0,0,1-.12-.18.64.64,0,0,1,0-.2.76.76,0,0,1,0-.21.57.57,0,0,1,.12-.18.45.45,0,0,1,.19-.11.54.54,0,0,1,.22,0,.45.45,0,0,1,.31.11c.09.07.15.16.16-.43h-.21c0,.59-.12.54-.26.54a.28.28,0,0,0-.23.11.32.32,0,0,0-.09.23.25.25,0,0,0,0,.12.24.24,0,0,0,.06.11l.11.08a.28.28,0,0,0,.13,0,.25.25,0,0,0,.17,0s.08-.09.09-.23h.35Zm-4.73,6.56v-2.84h-3.78v2.84h-1.9v-6.62h1.9v2.84h3.78v-2.84h1.89v6.62Zm-13.59,0a2.51,2.51,0,0,1-1-.11,2.38,2.38,0,0,1-.84-.5,2.11,2.11,0,0,1-.54-.78,2.06,2.06,0,0,1-.13-.92v-2.13a3,3,0,0,1,.19-1.1,1.91,1.91,0,0,1,.82-.82,4.05,4.05,0,0,1,2.39-.22h.7a2,2,0,0,1,1.8.37,4.09,4.09,0,0,1,.72,1.57v0h-1.89v.1a.54.54,0,0,0,.05-.75c-.07-.1-.32-.2-.84-.29h-.47c-.48.06-1,.11-1.43.21a1,1,0,0,0-.32.12.72.72,0,0,0-.21.25,3.31,3.31,0,0,1-.57.57v1.74a5.84,5.84,0,0,1,.54,1.24.64.64,0,0,0,.13.29.7.7,0,0,0,.26.19,3.42,3.42,0,0,0,.7.12h1a8,8,0,0,0,1.11-.1c.24-.08.27-.13.34-.25s0-.3-.29-.45v-1.1h1.89v.89a1.53,1.53,0,0,1-.19,1,1.71,1.71,0,0,1-.72.69,4.49,4.49,0,0,1-2,.3H352.4Zm-11.95,0v-6.62h5.67v.95h-4.73v1.89h3.79v.94h-3.79v1.9h4.73v.94Zm-7.57,0v-5.67H330v-.95h6.62v.95h-2.83v5.67Zm-10.41,0v-2.64l-3.06-4H321l2,2.69,2-2.69h1.72l-3.45,4v2.64Zm-10.4,0v-6.62H313v5.68h3.79v.94Zm-7.57-6.6a3.43,3.43,0,0,1,2.2.55,2.26,2.26,0,0,1,.54.88,2.09,2.09,0,0,1,.1,1v2a2,2,0,0,1-.13.9,2.09,2.09,0,0,1-.56.77,3.37,3.37,0,0,1-2.14.51h-1a3.34,3.34,0,0,1-2.13-.51,2,2,0,0,1-.54-.77,1.85,1.85,0,0,1-.11-.9v-2.14a2,2,0,0,1,.08-.94,2.46,2.46,0,0,1,.52-.84,3.62,3.62,0,0,1,2.17-.52h1Zm-.54,1c-.65,0-1,.09-1.11.22s-.24.4-.24,1V522c0,.6.13.85.28,1a2.17,2.17,0,0,0,1.07.18H305a2.24,2.24,0,0,0,1.09-.18c.15-.11.28-.36.28-1v-2.26a1.4,1.4,0,0,0-.25-1c-.13-.13-.46-.22-1.12-.22Zm-12.7,5.79v-6.83h3.89a1.33,1.33,0,0,1,.92.07,1.8,1.8,0,0,1,.74.53,2.43,2.43,0,0,1,.41,1.54,2.63,2.63,0,0,1-.26,1.32,1.89,1.89,0,0,1-.77.71c-.33.17-1.07-.39-1.07-.39h-2v2.84H291.2Zm.94-4h1.74a3,3,0,0,0,.84-.06.49.49,0,0,0,.21-.08.36.36,0,0,0,.12-.18,2.1,2.1,0,0,0,.07-.56c0-.54-.07-.81-.17-.87a1.24,1.24,0,0,0-.74-.14h-2.07Z" transform="translate(-291.2 -476.62)"/><path class="cls-1" d="M328.52,476.62a19.32,19.32,0,0,1,6.87,1.31,18.19,18.19,0,0,1,5.81,3.64,16.65,16.65,0,0,1,3.85,5.41,16.1,16.1,0,0,1,0,12.7,16.32,16.32,0,0,1-3.85,5.4,18.14,18.14,0,0,1-5.8,3.64,19.35,19.35,0,0,1-6.87,1.3,18.56,18.56,0,0,1-10.84-3.44v5.34s-6.62.42-6.62-6.75v-8.51h7.31a10.13,10.13,0,0,0,2.54,3.8,10.91,10.91,0,0,0,3.49,2.21,11.57,11.57,0,0,0,8.3,0,10.91,10.91,0,0,0,3.49-2.21,9.63,9.63,0,0,0,0-14.25A10.58,10.58,0,0,0,332.7,484a11.43,11.43,0,0,0-8.3,0,10.58,10.58,0,0,0-3.49,2.21,10.09,10.09,0,0,0-2.54,3.83H311a16.32,16.32,0,0,1,6.13-9.6,18.94,18.94,0,0,1,11.35-3.82" transform="translate(-291.2 -476.62)"/></svg>