<svg xmlns="http://www.w3.org/2000/svg" viewBox="0 0 40.08 40.09"><defs><style>.cls-1{fill:#191919;}.cls-2{fill:#f5f5f5;}</style></defs><title>boutonsPlan de travail 9</title><g id="Calque_3" data-name="Calque 3"><circle class="cls-1" cx="20.04" cy="20.04" r="20.04"/><circle class="cls-2" cx="20.04" cy="20.04" r="17.93"/><path d="M16.75,24.75v-.67a4.46,4.46,0,0,1,.57-2.34,9.28,9.28,0,0,1,1.56-1.86,16.56,16.56,0,0,1,1.79-1.5,7.39,7.39,0,0,0,1.43-1.33,2.59,2.59,0,0,0,.56-1.65,2.08,2.08,0,0,0-1-1.94,6.49,6.49,0,0,0-3.2-.58,11.5,11.5,0,0,0-2.91.37,10,10,0,0,0-2.45.93V9.45a13.23,13.23,0,0,1,3.06-1,18,18,0,0,1,3.87-.39,9.51,9.51,0,0,1,6.2,1.77,6,6,0,0,1,2.13,4.85,5.65,5.65,0,0,1-.8,3.16,11.58,11.58,0,0,1-2.35,2.47c-.86.72-1.59,1.35-2.17,1.87a2.72,2.72,0,0,0-.87,2.12v.46Zm-.25,6.19V26.88h5.92v4.06Z"/></g></svg>