<svg xmlns="http://www.w3.org/2000/svg" viewBox="0 0 530.8 49.76"><defs><style>.cls-1{fill:#f2f2f2;}.cls-2{fill:#141414;}</style></defs><title>damierFichier 14</title><g id="Calque_2" data-name="Calque 2"><g id="décors"><rect class="cls-1" x="248.81" y="33.17" width="16.59" height="16.59" transform="translate(514.21 82.94) rotate(180)"/><rect class="cls-2" x="232.22" y="33.17" width="16.59" height="16.59" transform="translate(481.04 82.94) rotate(180)"/><rect class="cls-2" x="248.81" y="16.59" width="16.59" height="16.59" transform="translate(514.21 49.76) rotate(180)"/><rect class="cls-1" x="232.22" y="16.59" width="16.59" height="16.59" transform="translate(481.04 49.76) rotate(180)"/><rect class="cls-1" x="248.81" width="16.59" height="16.59" transform="translate(514.21 16.59) rotate(180)"/><rect class="cls-2" x="232.22" width="16.59" height="16.59" transform="translate(481.04 16.59) rotate(180)"/><rect class="cls-1" x="215.64" y="33.17" width="16.59" height="16.59" transform="translate(447.86 82.94) rotate(180)"/><rect class="cls-2" x="199.05" y="33.17" width="16.59" height="16.59" transform="translate(414.69 82.94) rotate(180)"/><rect class="cls-2" x="215.64" y="16.59" width="16.59" height="16.59" transform="translate(447.86 49.76) rotate(180)"/><rect class="cls-1" x="199.05" y="16.59" width="16.59" height="16.59" transform="translate(414.69 49.76) rotate(180)"/><rect class="cls-1" x="215.64" width="16.59" height="16.59" transform="translate(447.86 16.59) rotate(180)"/><rect class="cls-2" x="199.05" width="16.59" height="16.59" transform="translate(414.69 16.59) rotate(180)"/><rect class="cls-1" x="182.46" y="33.17" width="16.59" height="16.59" transform="translate(381.51 82.94) rotate(180)"/><rect class="cls-2" x="165.87" y="33.17" width="16.59" height="16.59" transform="translate(348.34 82.94) rotate(180)"/><rect class="cls-2" x="182.46" y="16.59" width="16.59" height="16.59" transform="translate(381.51 49.76) rotate(180)"/><rect class="cls-1" x="165.87" y="16.59" width="16.59" height="16.59" transform="translate(348.34 49.76) rotate(180)"/><rect class="cls-1" x="182.46" width="16.59" height="16.59" transform="translate(381.51 16.59) rotate(180)"/><rect class="cls-2" x="165.87" width="16.59" height="16.59" transform="translate(348.34 16.59) rotate(180)"/><rect class="cls-1" x="149.29" y="33.17" width="16.59" height="16.59" transform="translate(315.16 82.94) rotate(180)"/><rect class="cls-2" x="132.7" y="33.17" width="16.59" height="16.59" transform="translate(281.99 82.94) rotate(180)"/><rect class="cls-2" x="149.29" y="16.59" width="16.59" height="16.59" transform="translate(315.16 49.76) rotate(180)"/><rect class="cls-1" x="132.7" y="16.59" width="16.59" height="16.59" transform="translate(281.99 49.76) rotate(180)"/><rect class="cls-1" x="149.29" width="16.59" height="16.59" transform="translate(315.16 16.59) rotate(180)"/><rect class="cls-2" x="132.7" width="16.59" height="16.59" transform="translate(281.99 16.59) rotate(180)"/><rect class="cls-1" x="116.11" y="33.17" width="16.59" height="16.59" transform="translate(248.81 82.94) rotate(180)"/><rect class="cls-2" x="99.52" y="33.17" width="16.59" height="16.59" transform="translate(215.64 82.94) rotate(180)"/><rect class="cls-2" x="116.11" y="16.59" width="16.59" height="16.59" transform="translate(248.81 49.76) rotate(180)"/><rect class="cls-1" x="99.52" y="16.59" width="16.59" height="16.59" transform="translate(215.64 49.76) rotate(180)"/><rect class="cls-1" x="116.11" width="16.59" height="16.59" transform="translate(248.81 16.59) rotate(180)"/><rect class="cls-2" x="99.52" width="16.59" height="16.59" transform="translate(215.64 16.59) rotate(180)"/><rect class="cls-1" x="82.94" y="33.17" width="16.59" height="16.59" transform="translate(182.46 82.94) rotate(180)"/><rect class="cls-2" x="66.35" y="33.17" width="16.59" height="16.59" transform="translate(149.29 82.94) rotate(180)"/><rect class="cls-2" x="82.94" y="16.59" width="16.59" height="16.59" transform="translate(182.46 49.76) rotate(180)"/><rect class="cls-1" x="66.35" y="16.59" width="16.59" height="16.59" transform="translate(149.29 49.76) rotate(180)"/><rect class="cls-1" x="82.94" width="16.59" height="16.59" transform="translate(182.46 16.59) rotate(180)"/><rect class="cls-2" x="66.35" width="16.59" height="16.59" transform="translate(149.29 16.59) rotate(180)"/><rect class="cls-1" x="49.76" y="33.17" width="16.59" height="16.59" transform="translate(116.11 82.94) rotate(180)"/><rect class="cls-2" x="33.17" y="33.17" width="16.59" height="16.59" transform="translate(82.94 82.94) rotate(180)"/><rect class="cls-2" x="49.76" y="16.59" width="16.59" height="16.59" transform="translate(116.11 49.76) rotate(180)"/><rect class="cls-1" x="33.17" y="16.59" width="16.59" height="16.59" transform="translate(82.94 49.76) rotate(180)"/><rect class="cls-1" x="49.76" width="16.59" height="16.59" transform="translate(116.11 16.59) rotate(180)"/><rect class="cls-2" x="33.17" width="16.59" height="16.59" transform="translate(82.94 16.59) rotate(180)"/><rect class="cls-1" x="16.59" y="33.17" width="16.59" height="16.59" transform="translate(49.76 82.94) rotate(180)"/><rect class="cls-2" y="33.17" width="16.59" height="16.59" transform="translate(16.59 82.94) rotate(180)"/><rect class="cls-2" x="16.59" y="16.59" width="16.59" height="16.59" transform="translate(49.76 49.76) rotate(180)"/><rect class="cls-1" y="16.59" width="16.59" height="16.59" transform="translate(16.59 49.76) rotate(180)"/><rect class="cls-1" x="16.59" width="16.59" height="16.59" transform="translate(49.76 16.59) rotate(180)"/><rect class="cls-2" width="16.59" height="16.59" transform="translate(16.59 16.59) rotate(180)"/><rect class="cls-1" x="514.21" y="33.17" width="16.59" height="16.59" transform="translate(1045.01 82.94) rotate(180)"/><rect class="cls-2" x="497.62" y="33.17" width="16.59" height="16.59" transform="translate(1011.84 82.94) rotate(180)"/><rect class="cls-2" x="514.21" y="16.59" width="16.59" height="16.59" transform="translate(1045.01 49.76) rotate(180)"/><rect class="cls-1" x="497.62" y="16.59" width="16.59" height="16.59" transform="translate(1011.84 49.76) rotate(180)"/><rect class="cls-1" x="514.21" width="16.59" height="16.59" transform="translate(1045.01 16.59) rotate(180)"/><rect class="cls-2" x="497.62" width="16.59" height="16.59" transform="translate(1011.84 16.59) rotate(180)"/><rect class="cls-1" x="481.04" y="33.17" width="16.59" height="16.59" transform="translate(978.66 82.94) rotate(180)"/><rect class="cls-2" x="464.45" y="33.17" width="16.59" height="16.59" transform="translate(945.49 82.94) rotate(180)"/><rect class="cls-2" x="481.04" y="16.59" width="16.59" height="16.59" transform="translate(978.66 49.76) rotate(180)"/><rect class="cls-1" x="464.45" y="16.59" width="16.59" height="16.59" transform="translate(945.49 49.76) rotate(180)"/><rect class="cls-1" x="481.04" width="16.59" height="16.59" transform="translate(978.66 16.59) rotate(180)"/><rect class="cls-2" x="464.45" width="16.59" height="16.59" transform="translate(945.49 16.59) rotate(180)"/><rect class="cls-1" x="447.86" y="33.17" width="16.59" height="16.59" transform="translate(912.31 82.94) rotate(180)"/><rect class="cls-2" x="431.27" y="33.17" width="16.59" height="16.59" transform="translate(879.14 82.94) rotate(180)"/><rect class="cls-2" x="447.86" y="16.59" width="16.59" height="16.59" transform="translate(912.31 49.76) rotate(180)"/><rect class="cls-1" x="431.27" y="16.59" width="16.59" height="16.59" transform="translate(879.14 49.76) rotate(180)"/><rect class="cls-1" x="447.86" width="16.59" height="16.59" transform="translate(912.31 16.59) rotate(180)"/><rect class="cls-2" x="431.27" width="16.59" height="16.59" transform="translate(879.14 16.59) rotate(180)"/><rect class="cls-1" x="414.69" y="33.17" width="16.59" height="16.59" transform="translate(845.96 82.94) rotate(180)"/><rect class="cls-2" x="398.1" y="33.17" width="16.59" height="16.59" transform="translate(812.79 82.94) rotate(180)"/><rect class="cls-2" x="414.69" y="16.59" width="16.59" height="16.59" transform="translate(845.96 49.76) rotate(180)"/><rect class="cls-1" x="398.1" y="16.59" width="16.59" height="16.59" transform="translate(812.79 49.76) rotate(180)"/><rect class="cls-1" x="414.69" width="16.59" height="16.59" transform="translate(845.96 16.59) rotate(180)"/><rect class="cls-2" x="398.1" width="16.59" height="16.59" transform="translate(812.79 16.59) rotate(180)"/><rect class="cls-1" x="381.51" y="33.17" width="16.59" height="16.59" transform="translate(779.61 82.94) rotate(180)"/><rect class="cls-2" x="364.92" y="33.17" width="16.59" height="16.59" transform="translate(746.44 82.94) rotate(180)"/><rect class="cls-2" x="381.51" y="16.59" width="16.59" height="16.59" transform="translate(779.61 49.76) rotate(180)"/><rect class="cls-1" x="364.92" y="16.59" width="16.59" height="16.59" transform="translate(746.44 49.76) rotate(180)"/><rect class="cls-1" x="381.51" width="16.59" height="16.59" transform="translate(779.61 16.59) rotate(180)"/><rect class="cls-2" x="364.92" width="16.59" height="16.59" transform="translate(746.44 16.59) rotate(180)"/><rect class="cls-1" x="348.34" y="33.17" width="16.59" height="16.59" transform="translate(713.26 82.94) rotate(180)"/><rect class="cls-2" x="331.75" y="33.17" width="16.59" height="16.59" transform="translate(680.09 82.94) rotate(180)"/><rect class="cls-2" x="348.34" y="16.59" width="16.59" height="16.59" transform="translate(713.26 49.76) rotate(180)"/><rect class="cls-1" x="331.75" y="16.59" width="16.59" height="16.59" transform="translate(680.09 49.76) rotate(180)"/><rect class="cls-1" x="348.34" width="16.59" height="16.59" transform="translate(713.26 16.59) rotate(180)"/><rect class="cls-2" x="331.75" width="16.59" height="16.59" transform="translate(680.09 16.59) rotate(180)"/><rect class="cls-1" x="315.16" y="33.17" width="16.59" height="16.59" transform="translate(646.91 82.94) rotate(180)"/><rect class="cls-2" x="298.57" y="33.17" width="16.59" height="16.59" transform="translate(613.74 82.94) rotate(180)"/><rect class="cls-2" x="315.16" y="16.59" width="16.59" height="16.59" transform="translate(646.91 49.76) rotate(180)"/><rect class="cls-1" x="298.57" y="16.59" width="16.59" height="16.59" transform="translate(613.74 49.76) rotate(180)"/><rect class="cls-1" x="315.16" width="16.59" height="16.59" transform="translate(646.91 16.59) rotate(180)"/><rect class="cls-2" x="298.57" width="16.59" height="16.59" transform="translate(613.74 16.59) rotate(180)"/><rect class="cls-1" x="281.99" y="33.17" width="16.59" height="16.59" transform="translate(580.56 82.94) rotate(180)"/><rect class="cls-2" x="265.4" y="33.17" width="16.59" height="16.59" transform="translate(547.39 82.94) rotate(180)"/><rect class="cls-2" x="281.99" y="16.59" width="16.59" height="16.59" transform="translate(580.56 49.76) rotate(180)"/><rect class="cls-1" x="265.4" y="16.59" width="16.59" height="16.59" transform="translate(547.39 49.76) rotate(180)"/><rect class="cls-1" x="281.99" width="16.59" height="16.59" transform="translate(580.56 16.59) rotate(180)"/><rect class="cls-2" x="265.4" width="16.59" height="16.59" transform="translate(547.39 16.59) rotate(180)"/></g></g></svg>