<?xml version="1.0" encoding="utf-8"?>
<!-- Generator: Adobe Illustrator 24.0.0, SVG Export Plug-In . SVG Version: 6.00 Build 0)  -->
<svg version="1.1" id="Calque_1" xmlns="http://www.w3.org/2000/svg" xmlns:xlink="http://www.w3.org/1999/xlink" x="0px" y="0px"
	 viewBox="0 0 193.5 37.9" style="enable-background:new 0 0 193.5 37.9;" xml:space="preserve">
<style type="text/css">
	.st0{fill:none;stroke:#191919;stroke-miterlimit:10;}
	.st1{enable-background:new    ;}
	.st2{fill:#191919;}
</style>
<title>logoFichier 4</title>
<g id="Calque_2_1_">
	<g id="Calque_3">
		
			<ellipse transform="matrix(0.9981 -6.174535e-02 6.174535e-02 0.9981 -0.4898 9.9501)" class="st0" cx="160.7" cy="12.9" rx="32.3" ry="12.2"/>
		<g class="st1">
			<path class="st2" d="M136.7,19.2l0.3-1.6c0.5-0.8,1.2-1.5,1.9-2.1c0.7-0.6,1.5-1.2,2.4-1.9c0.8-0.6,1.4-1.1,1.8-1.4
				c0.4-0.3,0.8-0.7,1-1c0.2-0.3,0.4-0.7,0.5-1.2c0.1-0.6,0-1-0.2-1.3s-0.8-0.4-1.7-0.4c-0.6,0-1.2,0.1-1.7,0.2
				c-0.6,0.1-1.2,0.3-1.7,0.5l0.6-2.9c0.6-0.2,1.3-0.4,2-0.5c0.8-0.1,1.5-0.2,2.2-0.2c1,0,1.8,0.2,2.5,0.6c0.6,0.4,1.1,0.9,1.3,1.6
				s0.3,1.5,0.1,2.4c-0.2,0.8-0.5,1.5-1,2.1s-1.2,1.2-2.1,1.9c-0.7,0.5-1.2,0.9-1.8,1.3c-0.5,0.4-1,0.8-1.4,1.3h5l-0.5,2.6H136.7z"
				/>
			<path class="st2" d="M153.8,19.6c-2.2,0-3.6-0.6-4.4-1.8c-0.8-1.2-0.9-3-0.4-5.2c0.3-1.5,0.8-2.8,1.4-3.8c0.6-1,1.4-1.9,2.5-2.4
				c1-0.6,2.4-0.8,3.9-0.8c2.1,0,3.6,0.6,4.4,1.8c0.8,1.2,0.9,3,0.4,5.2c-0.3,1.5-0.8,2.8-1.4,3.8c-0.6,1.1-1.4,1.9-2.4,2.4
				C156.8,19.3,155.4,19.6,153.8,19.6z M154.4,16.7c1.1,0,1.9-0.4,2.4-1.1c0.6-0.7,1-1.7,1.3-3.1c0.2-1,0.3-1.8,0.3-2.4
				c0-0.6-0.2-1.1-0.5-1.4c-0.3-0.3-0.9-0.4-1.7-0.4c-1.1,0-1.9,0.4-2.4,1.1c-0.6,0.7-1,1.7-1.3,3.1c-0.2,1-0.3,1.7-0.3,2.4
				c0,0.6,0.2,1.1,0.6,1.4S153.6,16.7,154.4,16.7z"/>
			<path class="st2" d="M161.5,19.2l0.3-1.6c0.5-0.8,1.2-1.5,1.9-2.1c0.7-0.6,1.5-1.2,2.4-1.9c0.8-0.6,1.4-1.1,1.8-1.4
				c0.4-0.3,0.8-0.7,1-1c0.2-0.3,0.4-0.7,0.5-1.2c0.1-0.6,0-1-0.2-1.3s-0.8-0.4-1.7-0.4c-0.6,0-1.2,0.1-1.7,0.2
				c-0.6,0.1-1.2,0.3-1.7,0.5l0.6-2.9c0.6-0.2,1.3-0.4,2-0.5c0.8-0.1,1.5-0.2,2.2-0.2c1,0,1.8,0.2,2.5,0.6c0.6,0.4,1.1,0.9,1.3,1.6
				c0.2,0.7,0.3,1.5,0.1,2.4c-0.2,0.8-0.5,1.5-1,2.1s-1.2,1.2-2.1,1.9c-0.7,0.5-1.3,0.9-1.8,1.3c-0.5,0.4-1,0.8-1.4,1.3h5l-0.5,2.6
				H161.5z"/>
			<path class="st2" d="M172.3,19.2l0.3-1.6c0.5-0.8,1.2-1.5,1.9-2.1c0.7-0.6,1.5-1.2,2.4-1.9c0.8-0.6,1.4-1.1,1.8-1.4
				c0.4-0.3,0.8-0.7,1-1c0.2-0.3,0.4-0.7,0.5-1.2c0.1-0.6,0-1-0.2-1.3s-0.8-0.4-1.7-0.4c-0.6,0-1.2,0.1-1.7,0.2
				c-0.6,0.1-1.2,0.3-1.7,0.5l0.6-2.9c0.6-0.2,1.3-0.4,2-0.5c0.8-0.1,1.5-0.2,2.2-0.2c1,0,1.8,0.2,2.5,0.6c0.6,0.4,1.1,0.9,1.3,1.6
				s0.3,1.5,0.1,2.4c-0.2,0.8-0.5,1.5-1,2.1s-1.2,1.2-2.1,1.9c-0.7,0.5-1.2,0.9-1.8,1.3c-0.5,0.4-1,0.8-1.4,1.3h5l-0.5,2.6H172.3z"
				/>
		</g>
		<polygon class="st2" points="19.1,9.9 8.9,9.9 7.8,12.3 18,12.3 		"/>
		<polygon class="st2" points="12.7,24.7 2.5,24.7 1.4,27.1 11.6,27.1 		"/>
		<polygon class="st2" points="11.3,28.2 1.1,28.2 0,30.6 10.1,30.6 		"/>
		<polygon class="st2" points="20.5,6.4 10.4,6.4 9.3,8.8 19.4,8.8 		"/>
		<path class="st2" d="M16.2,19.2h2.4l6.8-14.1h20.3c1.3,0,2.3,1.1,2.4,2.4c0,1.3-1.1,2.3-2.4,2.4h-16c0,0-4.6-0.2-5.9,3
			c-1.6,4-0.6-0.6,4.8-0.6h17.1c2.6,0,4.7-2.1,4.8-4.8c-0.1-2.6-2.2-4.7-4.8-4.8H11.6l-1.1,2.4H23L16.2,19.2z"/>
		<polygon class="st2" points="99.2,19.2 100.3,16.9 81.4,16.9 84.8,9.9 82.4,9.9 77.8,19.2 80.3,19.2 		"/>
		<path class="st2" d="M54.9,19.2h17.1c2.6,0,4.7-2.1,4.8-4.8c-0.1-2.6-2.2-4.7-4.8-4.8H54.9c-2.6,0.1-4.7,2.2-4.8,4.8
			C50.2,17.1,52.3,19.2,54.9,19.2z M54.9,12.1h17.1c1.3,0,2.4,1.1,2.4,2.4c0,1.3-1.1,2.4-2.4,2.4H54.9c-1.3,0-2.4-1.1-2.4-2.4
			C52.6,13.2,53.6,12.1,54.9,12.1z"/>
		<polygon class="st2" points="121.8,19.2 123,16.9 104.1,16.9 107.4,9.9 105,9.9 100.4,19.2 103,19.2 		"/>
		<polygon class="st2" points="127,28.2 122.4,37.6 124.9,37.6 129.4,28.2 		"/>
		<path class="st2" d="M151.3,28.1h-17.1c-2.6,0.1-4.7,2.2-4.8,4.8c0,2.6,2.1,4.7,4.8,4.8h17.1c2.6,0,4.7-2.1,4.7-4.8
			C155.9,30.2,153.9,28.1,151.3,28.1z M151.3,35.2h-17.1c-1.3,0.1-2.4-0.9-2.5-2.2s0.9-2.4,2.2-2.5c0.1,0,0.2,0,0.3,0h17.1
			c1.3-0.1,2.4,0.9,2.5,2.2s-0.9,2.4-2.2,2.5C151.5,35.2,151.4,35.2,151.3,35.2L151.3,35.2z"/>
		<polygon class="st2" points="125.1,28.2 116.6,28.2 114.2,28.2 106.2,28.2 105.1,30.6 113,30.6 109.6,37.6 112.1,37.6 115.4,30.6 
			124,30.6 		"/>
		<path class="st2" d="M37.9,21.1H3.8l-1.1,2.4h12.5L8.4,37.6h2.4l6.8-14.1h20.3c1.3,0,2.4,1.1,2.4,2.4c0,1.3-1.1,2.4-2.4,2.4h-16
			c0,0-4.6-0.2-5.9,3c-1.6,4-0.6-0.6,4.8-0.6h17.1c2.6,0,4.7-2.1,4.8-4.8C42.6,23.2,40.5,21.2,37.9,21.1z"/>
		<path class="st2" d="M180.9,28.2l-2.4,4.8c-1.6,2.9-3.6,2.5-4.3,2.5c-1.6,0.1-3.1-1-3.6-2.5c-1.3-3.8-2.9-5.1-6-5.1
			c-4.3,0-5.2,2.5-6.3,4.9l-2.4,4.8h2.5l2.2-4.8c0.5-1.5,1.9-2.5,3.5-2.5c0.6,0,2.7-0.3,4.1,2.7c0.8,2.4,1.6,4.9,6,4.9
			c4,0,5.4-2.2,6.7-4.9l2.4-4.8L180.9,28.2z"/>
		<polygon class="st2" points="97.5,37.6 100.1,37.6 104.5,28.2 102.1,28.2 		"/>
		<path class="st2" d="M63.7,28.1H46.6c-2.6,0.1-4.7,2.2-4.8,4.8c0,2.6,2.1,4.7,4.8,4.8h17.1c2.6,0,4.7-2.1,4.8-4.8
			C68.4,30.2,66.3,28.1,63.7,28.1z M63.7,35.2H46.6c-1.3,0.1-2.4-0.9-2.5-2.2s0.9-2.4,2.2-2.5c0.1,0,0.2,0,0.3,0h17.1
			c1.3-0.1,2.4,0.9,2.5,2.2s-0.9,2.4-2.2,2.5C63.9,35.2,63.8,35.2,63.7,35.2z"/>
		<path class="st2" d="M74.5,30.3h22l1.1-2.4H74.5c-2.5,0-4.8,0-4.8,3c0,3.2,2.2,3,4.8,3h17.1c2.4,0,2.4,0,2.4,0.6s0,0.6-2.4,0.6
			H69.8l-1.1,2.4h23c2.5,0,4.8,0.2,4.8-3c0-3-2.2-3-4.8-3H74.5c-2.4,0-2.4,0-2.4-0.6S72.2,30.3,74.5,30.3z"/>
	</g>
</g>
</svg>
