<?xml version="1.0" encoding="utf-8"?>
<!-- Generator: Adobe Illustrator 24.0.0, SVG Export Plug-In . SVG Version: 6.00 Build 0)  -->
<svg version="1.1" id="Calque_1" xmlns="http://www.w3.org/2000/svg" xmlns:xlink="http://www.w3.org/1999/xlink" x="0px" y="0px"
	 viewBox="0 0 1518.8 343.9" style="enable-background:new 0 0 1518.8 343.9;" xml:space="preserve">
<style type="text/css">
	.st0{fill:#899853;}
	.st1{fill:#352912;}
	.st2{fill:none;stroke:#FFFFFF;stroke-width:8;stroke-miterlimit:10;}
	.st3{fill:#FFFFFF;}
	.st4{fill:#26536A;}
	.st5{fill:#141414;}
	.st6{opacity:0.2;fill:#FFFFFF;enable-background:new    ;}
	.st7{opacity:0.2;fill:#646464;enable-background:new    ;}
	.st8{fill:#323232;}
	.st9{fill:none;stroke:#899853;stroke-width:2;stroke-miterlimit:10;}
	.st10{fill:#464646;}
	.st11{fill:#787878;}
	.st12{fill:#646464;}
	.st13{fill:#FBF7EB;}
</style>
<title>voiture_rougeFichier 3</title>
<g id="Calque_2_1_">
	<g id="Calque_3">
		<path id="corps" class="st0" d="M13.4,247.9l-10-2.3L0.1,33.5l31-0.5c0,0,5-0.1,4.8-12.5l124-1.9l0.1,9.9l38.4-0.6l0.8,53.3
			c0,0,1.5,16.1-21.7,41.3s21.3,13.3,21.3,13.3l245.6-96.5c7.2-2.8,14.9-4.4,22.6-4.5l163.1-2.5c0,0,1-14.9-15.2-22.1V7.8l9.9-0.2
			c0,0,32-16.6,47.1-0.7c0,0,3.8,3.7-3.6,10L681,30.3l0.6,39.7l-9.9,0.2l0.3,17.4l29.8-0.5l0.4,23.6l54.6-0.8l26.3,17l78.1-1.2
			c0,0,9.9-3.9,9.7-12.6l-16.1,0.3L854.5,96l23.6-0.4c0,0,12.4-0.2,12.6,12.2c0,0,0.1,3.7-7.4,3.8l0.2,14.9l52.1-0.8l11.6-12
			l6.8-0.1l0.2,11.8l111.6-1.7l413.5,108.9l38.4-0.6l1,65.7l-163.7,2.5l-6.9-6.7l-9.3,0.1l-0.3-16.7l-42.2,0.6L1112,228.2
			l-102.9,1.6c0,0-73,14.6-72.3,59.2c0,0,0,0.2,119.8-1.6c1.9,0,3.7,0.7,5.1,2l0.8,0.8c1.4,1.3,3.2,2,5.1,2h1.6c1.9,0,3.7,0.7,5,2
			l0,0c3.3,3.2,3.3,8.4,0.2,11.6c-1.5,1.6-3.6,2.5-5.8,2.5l-295.1,4.6l-583.1-13.2L13.4,247.9z"/>
		<path class="st1" d="M2.5,189.9l23.7,6.9l99.6-54.9L158.6,98l6-69.6l33.9-0.5l0.8,53.3c0,0,2.3,16.4-19.8,39.2s6.2,17.9,6.2,17.9
			L321,87.8l28.3,69.2c0,0,11.6,25.9-15.5,41.2s-101.4,23.9-101.4,23.9s-4.6,24.9,51.3,30.2s472.8,10,472.8,10l64.1-27l0.1,6.2
			l45.6-20.6l-0.1-5c0,0,106.2-60,255.1-42.4s236.4,62.1,236.4,62.1l19.3,45.6l24.8,0.9l8.2,17.2l-55,0.9l-6.9-6.7l-9.3,0.1
			l-0.3-16.7l-42.2,0.6L1112,228.3l-86.3,1.3c-18.4,0.3-37.5,6.4-53.9,14.6c-10,4.9-18.7,12.1-25.5,20.9
			c-8.2,10.6-1.2,23.9,12.3,23.7c16.7-0.2,46.1-0.6,98.1-1.4c1.9,0,3.7,0.7,5.1,2l0.8,0.8c1.4,1.3,3.2,2,5.1,2h1.6
			c1.9,0,3.7,0.7,5,2l0,0c3.3,3.2,3.3,8.4,0.2,11.6c-1.5,1.6-3.6,2.5-5.8,2.5l-295.1,4.6l-583.2-13.2l-187-54.2L2.5,189.9z"/>
		<path class="st2" d="M231.3,222.2c0,0,74.3-8.6,101.3-23.9s15.5-41.2,15.5-41.2l-28.3-69.2"/>
		<circle class="st3" cx="732.4" cy="196.2" r="36.7"/>
		<circle class="st4" cx="732.4" cy="196.2" r="32.3"/>
		<circle class="st0" cx="732.4" cy="196.2" r="27.6"/>
		<path class="st3" d="M400.8,170.1L625,173c4,0.1,7.1,3.3,7.1,7.3l-0.6,48.6c-0.1,4-3.3,7.1-7.3,7.1L400,233
			c-4-0.1-7.1-3.3-7.1-7.3l0.6-48.6C393.6,173.2,396.9,170.1,400.8,170.1z"/>
		<path class="st5" d="M403.2,175.3l219.4,2.8c2.7,0,4.8,2.2,4.8,4.9l-0.5,43c0,2.7-2.2,4.8-4.9,4.8L402.5,228
			c-2.7,0-4.8-2.2-4.8-4.9l0.5-43C398.3,177.4,400.5,175.2,403.2,175.3z"/>
		<path class="st0" d="M405.6,179.9l214.4,2.7c1.6,0,2.8,1.3,2.8,2.9l-0.5,37.7c0,1.6-1.3,2.8-2.9,2.8L405,223.3
			c-1.6,0-2.8-1.3-2.8-2.9l0.5-37.7C402.7,181.2,404,179.9,405.6,179.9z"/>
		<path class="st6" d="M681.2,39.8c0,0-178.8-7-252.3,23.5s-172.9,77-154.6,85.1s30.1,5.1,30.1,5.1s-72.3,17.2-116.4,8.1
			s32.8,43.4,32.8,43.4s77.9-9.4,151.8-39.4s353.9-36.2,353.9-36.2l-29.8-4.2l-1.1-10.2l-24.2-0.6l-79,3.1c0,0-12.8-40.7,10.4-46.7
			s78.8-6.8,78.8-6.8L681.2,39.8z"/>
		<path class="st6" d="M232.5,222.1c0,0,4.9-11.7,66.1-25.7s161.2-44.4,279.2-51.8s231.6-3.6,235.4,2.8s2.2,20.8-13.7,18.1
			s-120.3,40.8-205.7,51s-138.7-3.3-202.8-0.2S227.8,241.8,232.5,222.1z"/>
		
			<rect x="697.9" y="87.1" transform="matrix(0.9999 -1.553249e-02 1.553249e-02 0.9999 -1.4518 10.8833)" class="st6" width="4" height="23.6"/>
		<path class="st6" d="M706.1,111.8l5.6-1.3l45-0.7l26.3,16.9l78.1-1.2c0,0-6.5,4.5-0.9,5.5s6,4.8,6.2,14.6c0,0-19.1-14-42.2,0.7
			c0,0-7.9-15.2-11.1-15.5s-30,0.5-30,0.5L756,112.7L706.1,111.8z"/>
		<polygon class="st6" points="1065.8,123.6 954.2,125.3 954,113.5 951.4,113.6 951.6,125.4 938.6,125.6 949.5,113.6 947.2,113.6 
			935.6,125.6 883.5,126.4 883.6,133.4 1079.7,130.3 1117.3,137.1 		"/>
		<polygon class="st6" points="1301.8,189.2 1439.2,227.9 1301.9,193.1 		"/>
		<path class="st6" d="M1446.8,223.9l21.7,8.6l-16.2,0.3c-0.1,1.3,0,2.7,0.1,4l62.6-1l1,61.9h2.9l-1-65.7l-38.3,0.6L1446.8,223.9z"
			/>
		
			<rect x="1358.2" y="287.9" transform="matrix(0.9999 -1.553249e-02 1.553249e-02 0.9999 -4.3333 22.3782)" class="st6" width="160.5" height="4.5"/>
		<polygon class="st7" points="381.3,280.3 740.1,286.5 752.6,282.9 740.2,296.3 		"/>
		<polygon class="st7" points="244.8,278.2 302.9,277.3 303,282.9 		"/>
		
			<rect x="248.8" y="278.4" transform="matrix(2.303711e-02 -0.9997 0.9997 2.303711e-02 -46.1573 535.1742)" class="st7" width="3.8" height="25.6"/>
		
			<rect x="349.8" y="274.5" transform="matrix(2.303711e-02 -0.9997 0.9997 2.303711e-02 50.1129 638.4255)" class="st7" width="3.8" height="38.1"/>
		<polygon class="st6" points="880.6,141.1 1071.8,138.1 1149.5,155.9 1130.9,172.1 1066.3,148 		"/>
		<path class="st6" d="M865.8,183.6l1.3,84.6l-4.6,0.1l-1.1-71.6c-0.2-15.2,1.1-30.3,3.9-45.2l0,0L865.8,183.6z"/>
		<g id="roue">
			<circle class="st8" cx="1208.8" cy="225.5" r="101.7"/>
			<circle class="st1" cx="1206" cy="228.4" r="97.6"/>
			<circle class="st9" cx="1208.8" cy="225.5" r="81.9"/>
			<g id="enjoliveur">
				<path class="st10" d="M1257.1,222.3c-1.8-26.7-24.9-46.8-51.5-45c-26.7,1.8-46.8,24.9-45,51.5c1.7,24.7,21.8,44.2,46.5,45.1
					c26.8,0.9,49.2-20.2,50.1-47C1257.2,225.4,1257.2,223.8,1257.1,222.3z M1209.5,198.9c0-2.9,2.3-5.3,5.2-5.3c0.4,0,0.8,0,1.2,0.1
					c3,0.7,5.8,1.7,8.5,3.2c2.6,1.4,3.5,4.6,2.1,7.1c-0.2,0.4-0.5,0.8-0.8,1.1l-6.3,6.6c-1.5,1.5-3.7,2-5.7,1.2l-0.3-0.1
					c-2.1-0.7-3.6-2.7-3.6-4.9L1209.5,198.9z M1191.5,197.8c2.4-1.5,5-2.7,7.8-3.5c2.8-0.9,5.7,0.7,6.6,3.5c0.1,0.5,0.2,1,0.2,1.5
					l0.1,9.1c0.1,2.1-1.1,4-3,4.8l-0.3,0.1c-2,0.9-4.3,0.5-5.9-1l-6.5-6.3c-2.1-2-2.1-5.4,0-7.5
					C1190.8,198.3,1191.2,198.1,1191.5,197.8L1191.5,197.8z M1177.1,217.7c0.7-2.7,1.7-5.3,3-7.7c1.4-2.6,4.6-3.5,7.1-2.1
					c0.4,0.2,0.8,0.5,1.1,0.8l6.6,6.3c1.5,1.5,2,3.7,1.2,5.6v0.1c-0.8,2-2.7,3.3-4.8,3.4l-9.1,0.1c-2.9,0.1-5.3-2.3-5.4-5.2
					C1177,218.6,1177,218.1,1177.1,217.7L1177.1,217.7z M1180.6,242c-1.4-2.4-2.5-5-3.3-7.6c-0.8-2.8,0.8-5.7,3.6-6.5
					c0.5-0.1,0.9-0.2,1.4-0.2l9.1-0.1c2.1,0,4.1,1.2,4.9,3.2v0.1c0.8,1.9,0.4,4.2-1.1,5.7l-6.3,6.6c-2,2.1-5.3,2.2-7.4,0.2
					C1181.2,242.8,1180.9,242.4,1180.6,242L1180.6,242z M1206.9,251.9c0,2.9-2.3,5.3-5.2,5.3c-0.5,0-1-0.1-1.5-0.2
					c-2.8-0.7-5.4-1.9-7.9-3.3c-2.5-1.5-3.4-4.7-1.9-7.2c0.2-0.4,0.5-0.7,0.8-1l6.3-6.5c1.5-1.6,3.9-2,5.9-1.1l0.3,0.1
					c1.9,0.8,3.1,2.7,3.2,4.7L1206.9,251.9z M1208.9,234.5c-5,0.1-9.1-3.9-9.1-8.9c-0.1-5,3.9-9.1,8.9-9.1c5-0.1,9.1,3.9,9.1,8.9
					C1217.9,230.3,1213.9,234.4,1208.9,234.5L1208.9,234.5z M1225.2,253.7c-2.6,1.5-5.4,2.7-8.4,3.4c-2.8,0.7-5.7-1-6.4-3.8
					c-0.1-0.4-0.2-0.8-0.2-1.2l-0.1-9c0-2.2,1.4-4.2,3.5-5l0.3-0.1c1.9-0.8,4.2-0.5,5.8,1l6.6,6.4c2.1,2,2.1,5.4,0.1,7.5
					C1226,253.2,1225.7,253.5,1225.2,253.7z M1240.5,233.3c-0.7,3-1.9,5.9-3.5,8.6c-1.4,2.5-4.7,3.4-7.2,2c-0.4-0.2-0.7-0.5-1-0.8
					l-6.5-6.3c-1.6-1.6-2-3.9-1.1-5.9c0.1-0.2,0.2-0.4,0.2-0.5c0.8-2,2.7-3.4,4.8-3.4l9.1-0.1c2.9,0,5.3,2.3,5.3,5.2
					C1240.6,232.4,1240.6,232.8,1240.5,233.3z M1235.3,223.4l-9.1,0.1c-2.2,0-4.1-1.3-4.9-3.3l-0.2-0.5c-1-2-0.6-4.4,0.9-6l6.3-6.5
					c2-2.1,5.4-2.1,7.5-0.1c0.3,0.3,0.6,0.7,0.8,1c1.6,2.6,2.9,5.5,3.8,8.5c0.8,2.8-0.9,5.7-3.6,6.5
					C1236.2,223.3,1235.7,223.4,1235.3,223.4z"/>
				<path class="st11" d="M1257.3,247.8c12.3-26.8,0.5-58.4-26.2-70.7s-58.4-0.5-70.7,26.2c-11.4,24.8-2.2,54.2,21.3,68.1
					c25.5,15,58.3,6.4,73.2-19.1C1255.7,250.9,1256.5,249.3,1257.3,247.8z M1223.5,200.1c1.5-2.8,5-3.9,7.8-2.4
					c0.4,0.2,0.8,0.5,1.1,0.7c2.5,2.2,4.7,4.7,6.5,7.5c1.8,2.7,1,6.3-1.7,8c-0.4,0.3-0.9,0.5-1.4,0.7l-9.6,3c-2.2,0.7-4.7,0-6.2-1.8
					c-0.1-0.1-0.2-0.2-0.2-0.3c-1.7-1.8-2.1-4.5-0.9-6.7L1223.5,200.1z M1206.7,189.6c3.1-0.2,6.3,0,9.4,0.7
					c3.1,0.6,5.2,3.7,4.5,6.9c-0.1,0.5-0.3,1-0.5,1.5l-4.7,8.9c-1,2-3.2,3.2-5.4,3.1h-0.3c-2.4-0.1-4.5-1.7-5.2-4l-3-9.5
					c-1-3,0.7-6.3,3.7-7.3C1205.6,189.7,1206.1,189.6,1206.7,189.6L1206.7,189.6z M1182.3,201.2c2.1-2.3,4.4-4.2,7-5.9
					c2.7-1.7,6.3-1,8,1.7c0.3,0.4,0.5,0.9,0.7,1.4l3,9.6c0.7,2.2,0,4.6-1.8,6.1l-0.1,0.1c-1.8,1.5-4.3,1.8-6.4,0.7l-8.9-4.6
					c-2.8-1.5-3.9-5-2.4-7.9C1181.6,202,1181.9,201.6,1182.3,201.2L1182.3,201.2z M1172.8,226.6c-0.1-3.1,0.2-6.1,0.9-9.1
					c0.7-3.1,3.8-5.1,6.9-4.4c0.5,0.1,1,0.3,1.4,0.5l8.9,4.6c2.1,1.1,3.3,3.4,3.1,5.7v0.1c-0.2,2.3-1.8,4.2-4,4.9l-9.6,3
					c-3.1,1-6.3-0.7-7.3-3.8C1173,227.7,1172.9,227.2,1172.8,226.6L1172.8,226.6z M1193.1,250.1c-1.5,2.8-5,3.9-7.8,2.4
					c-0.5-0.3-0.9-0.6-1.3-1c-2.3-2.2-4.3-4.6-5.9-7.3c-1.7-2.7-0.8-6.3,1.9-8c0.4-0.2,0.8-0.4,1.3-0.6l9.5-3c2.3-0.7,4.8,0.1,6.3,2
					c0.1,0.1,0.2,0.2,0.2,0.3c1.4,1.8,1.6,4.2,0.6,6.2L1193.1,250.1z M1204.2,234.3c-4.9-2.5-6.7-8.5-4.2-13.4s8.5-6.7,13.4-4.2
					s6.7,8.5,4.2,13.4S1209.1,236.9,1204.2,234.3L1204.2,234.3L1204.2,234.3z M1209.9,261.5c-3.3,0.1-6.7-0.3-9.9-1.1
					c-3.1-0.8-5-3.9-4.2-7c0.1-0.4,0.3-0.9,0.5-1.3l4.6-8.8c1.2-2.2,3.6-3.3,6-3h0.3c2.3,0.2,4.3,1.8,5,4l3,9.6
					c1,3.1-0.7,6.3-3.8,7.3C1210.9,261.4,1210.4,261.5,1209.9,261.5z M1235.4,249.7c-2.3,2.5-5,4.7-7.9,6.5c-2.7,1.7-6.3,0.8-8-1.9
					c-0.3-0.4-0.5-0.9-0.6-1.3l-3-9.5c-0.7-2.3,0.1-4.9,2.1-6.4c0.2-0.1,0.3-0.3,0.5-0.4c1.8-1.6,4.4-1.9,6.5-0.8l8.9,4.6
					c2.8,1.5,4,5,2.5,7.8C1236,249,1235.7,249.4,1235.4,249.7z M1235.5,237.4l-8.9-4.6c-2.1-1.1-3.3-3.4-3.1-5.8
					c0-0.2,0-0.4,0.1-0.6c0.1-2.4,1.7-4.5,4.1-5.3l9.5-3c3.1-0.9,6.3,0.8,7.3,3.8c0.1,0.5,0.2,0.9,0.3,1.4c0.2,3.4-0.1,6.9-0.9,10.2
					c-0.7,3.1-3.8,5.1-7,4.3C1236.4,237.8,1236,237.6,1235.5,237.4z"/>
				<circle class="st12" cx="1208.8" cy="225.5" r="6.2"/>
			</g>
		</g>
		<g id="roue-2">
			<circle class="st8" cx="135.8" cy="242.2" r="101.7"/>
			<circle class="st1" cx="132.9" cy="245.1" r="97.6"/>
			<circle class="st9" cx="135.8" cy="242.2" r="81.9"/>
			<g id="enjoliveur-2">
				<path class="st10" d="M184,239c-1.8-26.7-24.9-46.8-51.5-45s-46.8,24.9-45,51.5c1.7,24.7,21.8,44.2,46.5,45.1
					c26.8,0.9,49.2-20.2,50.1-47C184.1,242.1,184.1,240.5,184,239z M136.4,215.6c0-2.9,2.3-5.3,5.2-5.3c0.4,0,0.8,0,1.2,0.1
					c3,0.7,5.8,1.7,8.5,3.2c2.6,1.4,3.5,4.6,2.2,7.1c-0.2,0.4-0.5,0.8-0.9,1.2l-6.4,6.6c-1.5,1.5-3.7,2-5.7,1.2l-0.3-0.1
					c-2.1-0.7-3.6-2.7-3.6-4.9L136.4,215.6z M118.4,214.6c2.4-1.5,5-2.7,7.8-3.5c2.8-0.9,5.7,0.7,6.6,3.4c0.2,0.5,0.2,1,0.2,1.5
					l0.1,9.1c0,2.1-1.1,3.9-3,4.8l-0.3,0.1c-2,0.9-4.3,0.5-5.9-1l-6.5-6.3c-2.1-2-2.1-5.4-0.1-7.5
					C117.8,215.1,118.1,214.8,118.4,214.6L118.4,214.6z M104,234.4c0.7-2.7,1.7-5.3,3-7.7c1.4-2.6,4.6-3.5,7.1-2.1
					c0.4,0.2,0.8,0.5,1.1,0.8l6.6,6.4c1.5,1.5,2,3.7,1.2,5.6v0.1c-0.8,2-2.7,3.3-4.8,3.4l-9.1,0.1c-2.9,0-5.3-2.3-5.3-5.2
					C103.9,235.3,104,234.8,104,234.4L104,234.4z M107.6,258.7c-1.4-2.4-2.5-5-3.3-7.6c-0.8-2.8,0.8-5.7,3.6-6.5
					c0.5-0.1,0.9-0.2,1.4-0.2l9.1-0.1c2.1,0,4.1,1.2,4.9,3.2v0.1c0.8,1.9,0.4,4.2-1.1,5.7l-6.4,6.6c-2,2.1-5.4,2.1-7.4,0
					C108.1,259.5,107.8,259.1,107.6,258.7L107.6,258.7z M133.9,268.6c0,2.9-2.3,5.3-5.2,5.3c-0.5,0-1-0.1-1.5-0.2
					c-2.8-0.7-5.4-1.9-7.9-3.3s-3.4-4.7-2-7.2c0.2-0.4,0.5-0.7,0.8-1l6.3-6.5c1.5-1.6,3.9-2,5.9-1.1l0.3,0.1
					c1.9,0.8,3.1,2.7,3.1,4.7L133.9,268.6z M135.9,251.3c-5,0.1-9.1-3.9-9.1-8.9c-0.1-5,3.9-9.1,8.9-9.1c5-0.1,9.1,3.9,9.1,8.9
					C144.8,247.1,140.8,251.1,135.9,251.3L135.9,251.3z M152.2,270.4c-2.6,1.5-5.4,2.7-8.4,3.4c-2.8,0.7-5.7-1-6.4-3.8
					c-0.1-0.4-0.1-0.8-0.2-1.2l-0.1-9c0-2.2,1.4-4.2,3.5-5l0.3-0.1c1.9-0.9,4.2-0.5,5.8,1l6.6,6.4c2.1,2,2.1,5.4,0.1,7.4
					C153,269.9,152.6,270.2,152.2,270.4L152.2,270.4z M167.4,250c-0.7,3-1.9,5.9-3.5,8.6c-1.4,2.5-4.7,3.4-7.2,2
					c-0.4-0.2-0.7-0.5-1-0.8l-6.5-6.3c-1.6-1.6-2-3.9-1.1-5.9l0.2-0.5c0.8-2,2.7-3.4,4.8-3.4l9.1-0.1c2.9-0.1,5.3,2.2,5.3,5.1
					C167.6,249.1,167.6,249.6,167.4,250z M162.2,240.1l-9.1,0.1c-2.2,0-4.1-1.3-4.9-3.3c-0.1-0.2-0.1-0.3-0.2-0.5
					c-1-2-0.6-4.4,0.9-6l6.3-6.5c2-2.1,5.4-2.1,7.5-0.1c0.3,0.3,0.6,0.6,0.8,1c1.6,2.6,2.9,5.5,3.8,8.5c0.8,2.8-0.8,5.7-3.6,6.5
					C163.1,240.1,162.7,240.1,162.2,240.1L162.2,240.1z"/>
				<path class="st11" d="M184.2,264.5c12.3-26.8,0.6-58.4-26.2-70.7s-58.4-0.6-70.7,26.2c-11.4,24.8-2.2,54.3,21.3,68.2
					c25.5,15,58.3,6.4,73.3-19.1C182.7,267.6,183.5,266,184.2,264.5z M150.5,216.8c1.5-2.8,5-3.9,7.8-2.4c0.4,0.2,0.8,0.5,1.1,0.7
					c2.5,2.2,4.7,4.7,6.5,7.5c1.8,2.7,1,6.3-1.7,8c-0.4,0.3-0.9,0.5-1.4,0.7l-9.6,3c-2.2,0.7-4.7,0-6.2-1.8
					c-0.1-0.1-0.1-0.2-0.2-0.3c-1.7-1.8-2.1-4.5-0.9-6.7L150.5,216.8z M133.6,206.3c3.1-0.2,6.3,0,9.4,0.7c3.1,0.6,5.2,3.7,4.5,6.8
					c-0.1,0.5-0.3,1.1-0.5,1.5l-4.7,8.9c-1,2-3.2,3.2-5.4,3.1h-0.4c-2.4-0.1-4.5-1.7-5.2-4l-3-9.5c-1-3,0.7-6.3,3.7-7.3
					C132.6,206.4,133.1,206.4,133.6,206.3L133.6,206.3z M109.2,217.9c2.1-2.3,4.4-4.2,7-5.9c2.7-1.7,6.3-1,8,1.7
					c0.3,0.4,0.5,0.9,0.7,1.4l3,9.6c0.7,2.2,0,4.6-1.8,6.1H126c-1.8,1.5-4.3,1.8-6.4,0.7l-8.9-4.6c-2.8-1.5-3.9-5-2.4-7.9
					C108.6,218.7,108.9,218.3,109.2,217.9L109.2,217.9z M99.8,243.3c-0.1-3.1,0.2-6.1,0.9-9.1c0.7-3.1,3.8-5.1,6.9-4.4
					c0.5,0.1,1,0.3,1.4,0.5l8.9,4.7c2.1,1.1,3.3,3.4,3.1,5.7v0.1c-0.2,2.3-1.8,4.3-4,5l-9.6,3c-3.1,1-6.3-0.7-7.3-3.8
					C99.9,244.5,99.8,243.9,99.8,243.3L99.8,243.3z M120.1,266.8c-1.5,2.8-5,3.9-7.8,2.4c-0.5-0.3-0.9-0.6-1.3-1
					c-2.3-2.2-4.3-4.6-5.9-7.3c-1.7-2.7-0.8-6.3,1.9-8c0.4-0.2,0.8-0.4,1.3-0.6l9.5-3c2.3-0.7,4.8,0.1,6.3,2l0.2,0.3
					c1.4,1.8,1.6,4.2,0.6,6.2L120.1,266.8z M131.1,251c-4.9-2.5-6.7-8.5-4.2-13.4s8.5-6.7,13.4-4.2c4.8,2.5,6.7,8.5,4.2,13.4
					S136,253.5,131.1,251C131.2,251,131.2,251,131.1,251z M136.8,278.2c-3.3,0.1-6.7-0.3-9.9-1.1c-3.1-0.8-5-4-4.2-7.1
					c0.1-0.4,0.3-0.8,0.5-1.2l4.6-8.8c1.2-2.1,3.6-3.3,6-3h0.3c2.3,0.2,4.3,1.8,5,4l3,9.6c1,3-0.7,6.3-3.7,7.3
					C137.9,278.1,137.4,278.2,136.8,278.2L136.8,278.2z M162.4,266.4c-2.3,2.5-5,4.7-7.9,6.5c-2.7,1.7-6.3,0.8-8-1.9
					c-0.3-0.4-0.5-0.9-0.6-1.3l-3-9.5c-0.7-2.3,0.1-4.9,2.1-6.4l0.5-0.4c1.8-1.6,4.4-1.9,6.5-0.8l8.9,4.6c2.8,1.5,4,5,2.5,7.8
					C163,265.6,162.7,266.1,162.4,266.4L162.4,266.4z M162.5,254.1l-8.9-4.6c-2.1-1.1-3.3-3.4-3.1-5.8c0-0.2,0-0.4,0.1-0.6
					c0.1-2.4,1.7-4.6,4.1-5.3l9.5-3c3.1-0.9,6.3,0.8,7.3,3.9c0.1,0.5,0.2,0.9,0.2,1.4c0.2,3.4-0.1,6.9-0.9,10.2
					c-0.7,3.1-3.8,5.1-6.9,4.4C163.4,254.5,162.9,254.4,162.5,254.1L162.5,254.1z"/>
				<circle class="st12" cx="135.8" cy="242.2" r="6.2"/>
			</g>
		</g>
		<path class="st6" d="M160.8,72.5l4.4-10l1.4-12.3l11.8,8.2l1,20.7l12-48.8l5.6-0.1l1,61.1c0,0,1.5-2.3,1.3-8.8S198.5,28,198.5,28
			l-33.9,0.5L160.8,72.5z"/>
		
			<rect x="334.7" y="116.8" transform="matrix(0.9999 -1.553249e-02 1.553249e-02 0.9999 -1.8241 7.4393)" class="st3" width="286.6" height="8.7"/>
		
			<rect x="611.9" y="32.5" transform="matrix(0.9999 -1.553249e-02 1.553249e-02 0.9999 -1.0681 9.581)" class="st3" width="8.7" height="82.1"/>
		
			<rect x="1338.4" y="277.8" transform="matrix(0.9999 -1.553249e-02 1.553249e-02 0.9999 -4.1916 22.2233)" class="st3" width="180.3" height="6.3"/>
		<polygon class="st3" points="160.4,77.9 0.3,80.4 0,62.6 161.9,60.1 		"/>
		<polygon class="st3" points="161,70.3 199.2,69.7 198.9,52.9 162.4,53.5 		"/>
		<circle class="st3" cx="107.3" cy="85.7" r="19.3"/>
		<circle class="st0" cx="107.3" cy="85.7" r="17"/>
		<circle class="st3" cx="107.3" cy="85.7" r="14.5"/>
		<circle class="st3" cx="49" cy="86.6" r="19.4"/>
		<circle class="st0" cx="49" cy="86.6" r="17"/>
		<circle class="st3" cx="49" cy="86.6" r="14.5"/>
		<g id="ELYS2E">
			<path class="st13" d="M263.5,289.6l1.4-22.5l55.2,1.2l-0.3,5l-33.9-0.7l-0.2,3.7l29.8,0.6L315,282l-29.8-0.6l-0.2,3.7l33.9,0.7
				l-0.3,5L263.5,289.6z"/>
			<path class="st13" d="M325.4,290.9l1.4-22.5l21.3,0.5l-1.1,17.5l32.8,0.7l-0.3,5L325.4,290.9z"/>
			<path class="st13" d="M392.8,292.4l0.5-8.2l-25.4-14.8l22.2,0.5l14.2,8.8l15.2-8.2l22.2,0.5l-27.1,13.7l-0.5,8.3L392.8,292.4z"/>
			<path class="st13" d="M464.7,294.2c-4.9-0.1-9.5-0.3-13.9-0.7s-8.1-0.8-11.1-1.3l0.3-5.4c3.3,0.6,7.1,1,11.2,1.4
				c4.2,0.4,8,0.6,11.6,0.7c3.8,0.1,6.6,0,8.6-0.1c1.9-0.2,2.9-0.6,3-1.3c0-0.5-0.5-0.9-1.6-1.2c-1.6-0.4-3.3-0.7-5-0.9l-8.9-1.1
				c-4.9-0.6-8.7-1.2-11.5-1.9c-2.1-0.4-4.2-1.1-6-2.3c-1.1-0.6-1.7-1.8-1.7-3.1c0.1-2.2,2.8-3.8,7.9-4.9c5.2-1,12.8-1.5,22.8-1.3
				c4,0.1,8.1,0.3,12.4,0.6c4.2,0.3,7.7,0.6,10.3,0.9l-0.4,5.4c-3.5-0.5-6.9-0.9-10.1-1.1s-6.3-0.4-9.1-0.5c-3.3-0.1-6.2,0-8.5,0.1
				s-3.5,0.5-3.6,1.2s0.9,1,2.9,1.3s5.5,0.7,10.6,1.3c4.6,0.4,9.1,1.1,13.5,2.1c3.1,0.8,5.2,1.6,6.2,2.6c1,0.7,1.5,1.9,1.5,3.2
				c-0.1,2-2.8,3.6-8,4.8C482.9,293.9,475.1,294.4,464.7,294.2z"/>
			<path class="st13" d="M503.6,294.7l1.4-22.5l55.2,1.1l-0.3,5l-33.9-0.7l-0.2,3.7l29.8,0.6l-0.3,5.1l-29.8-0.6l-0.2,3.7l33.9,0.7
				l-0.3,5L503.6,294.7z M522.7,271l10.4-7l16.5,0.4l-11.3,7L522.7,271z"/>
			<path class="st13" d="M565.6,296l1.3-22.5l55.2,1.1l-0.3,5l-33.9-0.7l-0.2,3.7l29.8,0.6l-0.3,5.1l-29.8-0.6l-0.2,3.7l33.9,0.7
				l-0.3,5L565.6,296z"/>
		</g>
		<g id="_2022">
			<path class="st13" d="M652.9,298.9v-3c2.4-1.4,5-2.5,7.7-3.4c3-1,6.4-2,10.1-3.1c3.1-0.9,5.6-1.6,7.5-2.2c1.5-0.4,2.9-1,4.3-1.6
				c0.9-0.5,1.4-1.1,1.4-1.7c0-1.7-3.5-2.5-10.5-2.4c-3.2,0-6.4,0.2-9.5,0.4s-6,0.6-8.7,0.9v-5.6c3.1-0.4,6.7-0.7,10.9-1
				s8.3-0.4,12.6-0.4c9.1-0.1,15.8,0.6,20.2,1.8c4.4,1.3,6.7,3,6.6,5.3c0,1-0.4,2-1.2,2.7c-1.1,0.9-2.3,1.6-3.7,2.1
				c-1.7,0.6-3.8,1.3-6.5,2.1c-2.3,0.6-4.7,1.3-6.9,1.9c-1.9,0.5-3.7,1.1-5.5,1.9l24.3-0.2v5L652.9,298.9z"/>
			<path class="st13" d="M746.8,298.6c-6.8,0.2-13.5-0.2-20.2-1.2c-5.1-0.9-8.8-2.2-11.1-3.9c-2.1-1.4-3.4-3.8-3.5-6.3
				c0.1-2.6,1.4-5,3.6-6.4c2.3-1.7,6.1-3.1,11.2-4c6.7-1.1,13.4-1.6,20.2-1.5c12.5-0.1,21.5,0.9,26.8,2.8c5.3,2,8,4.8,8,8.6
				c0,3.7-2.7,6.6-8.1,8.6C768.3,297.5,759.3,298.6,746.8,298.6z M746.8,293c4.9,0,8.3-0.5,10.3-1.6c1.8-0.8,2.9-2.6,2.9-4.5
				c0.1-1.9-1.1-3.7-2.8-4.5c-1.9-1-5.3-1.5-10.2-1.5s-8.3,0.5-10.3,1.6c-1.8,0.8-2.9,2.6-2.9,4.5c-0.1,1.9,1.1,3.7,2.8,4.5
				C738.6,292.6,742,293.1,746.8,293L746.8,293z"/>
			<path class="st13" d="M787.3,298v-3c2.4-1.4,5-2.5,7.7-3.4c3-1,6.4-2,10.1-3.1c3.1-0.9,5.6-1.6,7.5-2.2c1.5-0.4,2.9-0.9,4.3-1.6
				c1-0.5,1.4-1.1,1.4-1.7c0-1.6-3.5-2.4-10.5-2.4c-3.2,0-6.4,0.1-9.5,0.4s-6,0.6-8.7,0.9v-5.6c3.1-0.4,6.7-0.7,10.9-1
				c4.1-0.3,8.3-0.4,12.6-0.4c9.1-0.1,15.8,0.6,20.2,1.8c4.4,1.3,6.7,3,6.6,5.3c0,1-0.4,2-1.2,2.7c-1.1,0.9-2.3,1.7-3.7,2.1
				c-1.7,0.6-3.8,1.3-6.5,2.1c-2.3,0.6-4.7,1.3-6.9,1.9c-1.9,0.5-3.7,1.1-5.5,1.9l24.3-0.2v5L787.3,298z"/>
			<path class="st13" d="M846.4,297.6v-3c2.4-1.4,5-2.5,7.7-3.4c3-1,6.4-2,10.1-3.1c3.1-0.9,5.6-1.6,7.5-2.2
				c1.5-0.4,2.9-0.9,4.3-1.6c1-0.5,1.4-1.1,1.4-1.7c0-1.6-3.5-2.5-10.5-2.4c-3.2,0-6.4,0.1-9.5,0.4s-5.9,0.6-8.7,0.9V276
				c3.1-0.4,6.7-0.7,10.9-1s8.3-0.4,12.6-0.4c9.1-0.1,15.8,0.6,20.3,1.8c4.4,1.3,6.7,3,6.6,5.3c0,1-0.4,2-1.2,2.7
				c-1.1,0.9-2.3,1.6-3.7,2.1c-1.7,0.7-3.8,1.4-6.5,2.1c-2.3,0.6-4.7,1.3-6.9,1.9c-1.9,0.5-3.7,1.1-5.5,1.9l24.3-0.2v5L846.4,297.6z
				"/>
		</g>
		
			<rect x="470.1" y="64.8" transform="matrix(0.9999 -1.553249e-02 1.553249e-02 0.9999 -1.2203 7.388)" class="st0" width="9.8" height="34.9"/>
		
			<rect x="485.9" y="64.5" transform="matrix(0.9999 -1.553249e-02 1.553249e-02 0.9999 -1.2137 7.6334)" class="st0" width="9.8" height="34.9"/>
		
			<rect x="501.7" y="64.3" transform="matrix(0.9999 -1.553249e-02 1.553249e-02 0.9999 -1.2087 7.8788)" class="st0" width="9.8" height="34.9"/>
		
			<rect x="517.6" y="64" transform="matrix(0.9999 -1.553249e-02 1.553249e-02 0.9999 -1.2021 8.1257)" class="st0" width="9.8" height="34.9"/>
		
			<rect x="533.4" y="63.8" transform="matrix(0.9999 -1.553249e-02 1.553249e-02 0.9999 -1.1971 8.3711)" class="st0" width="9.8" height="34.9"/>
		
			<rect x="549.2" y="63.6" transform="matrix(0.9999 -1.553249e-02 1.553249e-02 0.9999 -1.1921 8.6165)" class="st0" width="9.8" height="34.9"/>
		
			<rect x="849.6" y="95.9" transform="matrix(0.9999 -1.553249e-02 1.553249e-02 0.9999 -1.5219 13.2559)" class="st5" width="6" height="17.4"/>
		
			<rect x="681.4" y="30.3" transform="matrix(0.9999 -1.553249e-02 1.553249e-02 0.9999 -0.6963 10.6484)" class="st5" width="7.5" height="39.7"/>
		
			<rect x="671.7" y="70.1" transform="matrix(0.9999 -1.553249e-02 1.553249e-02 0.9999 -1.1425 10.5011)" class="st5" width="7.5" height="17.4"/>
		
			<rect x="702" y="87" transform="matrix(0.9999 -1.553249e-02 1.553249e-02 0.9999 -1.4495 10.9742)" class="st5" width="7.5" height="23.6"/>
	</g>
</g>
</svg>
