<?xml version="1.0" encoding="utf-8"?>
<!-- Generator: Adobe Illustrator 24.0.0, SVG Export Plug-In . SVG Version: 6.00 Build 0)  -->
<svg version="1.1" id="Calque_1" xmlns="http://www.w3.org/2000/svg" xmlns:xlink="http://www.w3.org/1999/xlink" x="0px" y="0px"
	 viewBox="0 0 1518.3 343.8" style="enable-background:new 0 0 1518.3 343.8;" xml:space="preserve">
<style type="text/css">
	.st0{fill:#E97C3F;}
	.st1{fill:#352912;}
	.st2{fill:none;stroke:#FFFFFF;stroke-width:8;stroke-miterlimit:10;}
	.st3{fill:#FFFFFF;}
	.st4{fill:#26536A;}
	.st5{fill:#141414;}
	.st6{opacity:0.2;fill:#FFFFFF;enable-background:new    ;}
	.st7{opacity:0.2;fill:#646464;enable-background:new    ;}
	.st8{fill:#323232;}
	.st9{fill:none;stroke:#E97C3F;stroke-width:2;stroke-miterlimit:10;}
	.st10{fill:#464646;}
	.st11{fill:#787878;}
	.st12{fill:#646464;}
	.st13{fill:#54B1B9;}
	.st14{fill:#753D21;}
</style>
<title>voiture_bleueFichier 2</title>
<g id="Calque_2_1_">
	<g id="Calque_3">
		<path id="corps" class="st0" d="M13.4,247.8l-10-2.3l-3.3-212l31-0.5c0,0,5-0.1,4.8-12.5l124-1.9l0.1,9.9l38.4-0.6l0.8,53.3
			c0,0,1.5,16.1-21.7,41.3s21.3,13.3,21.3,13.3l245.4-96.4c7.2-2.8,14.9-4.4,22.6-4.5L630,32.3c0,0,1-14.9-15.2-22.1V7.8l9.9-0.2
			c0,0,32-16.6,47.1-0.7c0,0,3.8,3.7-3.6,10l12.6,13.4l0.6,39.7l-9.9,0.2l0.3,17.3l29.8-0.5l0.4,23.6l54.5-0.8l26.3,17l78.1-1.2
			c0,0,9.9-3.9,9.7-12.6l-16.1,0.3l-0.3-17.4l23.6-0.4c0,0,12.4-0.2,12.6,12.2c0,0,0.1,3.7-7.4,3.8l0.2,14.9l52.1-0.8l11.6-12
			l6.8-0.1l0.2,11.8l111.6-1.7l413.4,108.9l38.4-0.6l1,65.7l-163.6,2.5l-6.9-6.7l-9.3,0.1l-0.3-16.7l-42.2,0.6l-184.3-49.2
			l-102.9,1.6c0,0-72.9,14.6-72.2,59.2c0,0,0,0.2,119.8-1.6c1.9,0,3.7,0.7,5.1,2l0.8,0.8c1.3,1.3,3.1,2,5,2h1.6c1.9,0,3.7,0.7,5,2
			l0,0c3.3,3.2,3.4,8.4,0.2,11.6c-1.5,1.6-3.6,2.5-5.8,2.5l-295,4.6l-583-13.3L13.4,247.8z"/>
		<path class="st1" d="M2.5,189.8l23.7,6.9l99.6-54.9L158.6,98l6-69.5l33.9-0.5l0.8,53.3c0,0,2.3,16.4-19.8,39.2s6.2,17.9,6.2,17.9
			L321,87.8l28.2,69.2c0,0,11.6,25.9-15.5,41.2S232.4,222,232.4,222s-4.6,24.9,51.3,30.2s472.6,10,472.6,10l64.1-27l0.1,6.2
			l45.6-20.6l-0.1-5c0,0,106.1-59.9,255-42.4s236.3,62.1,236.3,62.1l19.3,45.6l24.8,0.9l8.2,17.2l-55,0.9l-6.9-6.7l-9.3,0.1
			l-0.3-16.7l-42.2,0.6l-184.3-49.2l-86.2,1.4c-18.4,0.2-36.6,4.5-53.1,12.7c-10,5-20,11.8-26.9,20.7c-8.2,10.6-0.6,26.1,12.8,25.9
			c16.7-0.2,46.1-0.6,98-1.4c1.9,0,3.7,0.7,5.1,2l0.8,0.8c1.3,1.3,3.1,2,5,2h1.6c1.9,0,3.7,0.7,5,2l0,0c3.3,3.2,3.4,8.4,0.2,11.6
			c-1.5,1.6-3.6,2.5-5.8,2.5l-295,4.6l-583-13.3L3.4,245.4L2.5,189.8z"/>
		<path class="st2" d="M231.2,222.1c0,0,74.3-8.6,101.3-23.9S348,157,348,157l-28.2-69.2"/>
		<circle class="st3" cx="732.2" cy="196.1" r="36.7"/>
		<circle class="st4" cx="732.2" cy="196.1" r="32.3"/>
		<circle class="st0" cx="732.2" cy="196.1" r="27.6"/>
		<path class="st3" d="M400.7,170l224.1,2.9c4,0.1,7.1,3.3,7.1,7.3l-0.6,48.5c-0.1,4-3.3,7.1-7.3,7.1L399.9,233
			c-4-0.1-7.1-3.3-7.1-7.3l0.6-48.5C393.4,173.2,396.7,170,400.7,170z"/>
		<path class="st5" d="M403,175.2l219.3,2.8c2.7,0,4.8,2.2,4.8,4.9l-0.5,43c0,2.7-2.2,4.8-4.9,4.8l-219.3-2.8
			c-2.7,0-4.8-2.2-4.8-4.9l0.5-43C398.2,177.3,400.3,175.2,403,175.2z"/>
		<path class="st0" d="M405.4,179.9l214.3,2.7c1.6,0,2.8,1.3,2.8,2.9l-0.5,37.7c0,1.6-1.3,2.8-2.9,2.8l-214.3-2.7
			c-1.6,0-2.8-1.3-2.8-2.9l0.5-37.7C402.6,181.1,403.9,179.9,405.4,179.9z"/>
		<path class="st6" d="M681,39.8c0,0-178.8-7-252.2,23.5s-172.8,77-154.6,85.1s30.1,5.1,30.1,5.1s-72.3,17.2-116.4,8.1
			s32.8,43.4,32.8,43.4s77.9-9.4,151.8-39.4s353.8-36.2,353.8-36.2l-29.8-4.2l-1.1-10.2l-24.2-0.6l-79,3.1c0,0-12.7-40.7,10.4-46.7
			s78.8-6.8,78.8-6.8L681,39.8z"/>
		<path class="st6" d="M232.4,222c0,0,4.9-11.7,66.1-25.7s161.1-44.3,279.1-51.7s231.5-3.6,235.3,2.8s2.2,20.7-13.7,18
			s-120.3,40.8-205.7,50.9s-138.7-3.2-202.8-0.2S227.7,241.7,232.4,222z"/>
		
			<rect x="697.7" y="87.1" transform="matrix(0.9999 -1.553281e-02 1.553281e-02 0.9999 -1.451 10.88)" class="st6" width="4" height="23.6"/>
		<path class="st6" d="M705.9,111.7l5.6-1.3l45-0.7l26.3,17l78.1-1.2c0,0-6.4,4.5-0.8,5.5s6,4.8,6.2,14.6c0,0-19-14-42.2,0.7
			c0,0-7.9-15.2-11.1-15.5s-30,0.5-30,0.5l-27.1-18.4L705.9,111.7z"/>
		<polygon class="st6" points="1065.4,123.5 953.8,125.2 953.7,113.5 951,113.5 951.2,125.3 938.2,125.5 949.1,113.5 946.8,113.6 
			935.3,125.5 883.2,126.3 883.3,133.3 1079.3,130.3 1116.9,137.1 		"/>
		<polygon class="st6" points="1301.4,189.1 1438.7,227.8 1301.4,193 		"/>
		<path class="st6" d="M1446.3,223.8l21.7,8.6l-16.2,0.3c-0.1,1.3,0,2.7,0.1,4l62.6-1l1,61.9l2.9,0l-1-65.7l-38.3,0.6L1446.3,223.8z
			"/>
		
			<rect x="1357.7" y="287.8" transform="matrix(0.9999 -1.553281e-02 1.553281e-02 0.9999 -4.3327 22.3697)" class="st6" width="160.4" height="4.5"/>
		<polygon class="st7" points="381.2,280.2 739.8,286.4 752.3,282.8 740,296.2 		"/>
		<polygon class="st7" points="244.7,278.1 302.8,277.2 302.9,282.8 		"/>
		
			<rect x="248.8" y="278.3" transform="matrix(2.303631e-02 -0.9997 0.9997 2.303631e-02 -46.133 535.0278)" class="st7" width="3.8" height="25.6"/>
		
			<rect x="349.7" y="274.4" transform="matrix(2.303631e-02 -0.9997 0.9997 2.303631e-02 50.1193 638.1711)" class="st7" width="3.8" height="38.1"/>
		<polygon class="st6" points="880.3,141 1071.4,138 1149.1,155.8 1130.5,172.1 1065.9,148 		"/>
		<path class="st6" d="M865.5,183.6l1.3,84.6l-4.6,0.1l-1.1-71.6c-0.2-15.2,1.1-30.3,3.9-45.2l0,0L865.5,183.6z"/>
		<g id="roue">
			<circle class="st8" cx="1208.4" cy="225.4" r="101.7"/>
			<circle class="st1" cx="1205.5" cy="228.4" r="97.6"/>
			<circle class="st9" cx="1208.4" cy="225.4" r="81.8"/>
			<g id="enjoliveur">
				<path class="st10" d="M1256.6,222.2c-1.8-26.6-24.9-46.8-51.5-45s-46.8,24.9-45,51.5c1.7,24.7,21.7,44.2,46.5,45.1
					c26.8,0.9,49.2-20.2,50.1-47C1256.7,225.2,1256.7,223.7,1256.6,222.2z M1209.1,198.8c0-2.9,2.3-5.3,5.2-5.3c0.4,0,0.8,0,1.2,0.1
					c3,0.7,5.8,1.7,8.5,3.2c2.6,1.4,3.5,4.6,2.2,7.1c-0.2,0.4-0.5,0.8-0.9,1.2l-6.3,6.6c-1.5,1.5-3.7,2-5.7,1.2l-0.3-0.1
					c-2.1-0.7-3.6-2.7-3.6-4.9L1209.1,198.8z M1191.1,197.8c2.4-1.5,5-2.7,7.8-3.5c2.8-0.9,5.7,0.7,6.6,3.5c0.1,0.5,0.2,1,0.2,1.5
					l0.1,9.1c0,2.1-1.1,4-3,4.8l-0.3,0.1c-2,0.9-4.3,0.5-5.9-1l-6.5-6.3c-2.1-2-2.1-5.4-0.1-7.5
					C1190.4,198.3,1190.7,198,1191.1,197.8L1191.1,197.8z M1176.7,217.6c0.7-2.7,1.7-5.3,3-7.7c1.4-2.6,4.6-3.5,7.2-2.1
					c0.4,0.2,0.8,0.5,1.1,0.8l6.6,6.4c1.5,1.5,2,3.7,1.2,5.6v0.1c-0.8,2-2.6,3.3-4.8,3.3l-9.1,0.1c-2.9,0.1-5.3-2.2-5.4-5.1
					C1176.5,218.5,1176.6,218,1176.7,217.6L1176.7,217.6z M1180.2,241.9c-1.4-2.4-2.5-5-3.2-7.6c-0.8-2.8,0.8-5.7,3.6-6.5
					c0.5-0.1,0.9-0.2,1.4-0.2l9.1-0.1c2.1,0,4.1,1.2,4.9,3.2v0.1c0.8,1.9,0.4,4.2-1.1,5.7l-6.3,6.6c-2,2.1-5.4,2.1-7.5,0
					C1180.7,242.7,1180.4,242.3,1180.2,241.9L1180.2,241.9z M1206.5,251.8c0,2.9-2.3,5.3-5.2,5.3c-0.5,0-1-0.1-1.5-0.2
					c-2.8-0.7-5.4-1.9-7.9-3.3c-2.5-1.5-3.4-4.7-1.9-7.2c0.2-0.4,0.5-0.7,0.8-1l6.3-6.5c1.5-1.6,3.9-2,5.9-1.1l0.3,0.1
					c1.9,0.8,3.1,2.7,3.1,4.7L1206.5,251.8z M1208.5,234.5c-5,0.1-9.1-3.9-9.1-8.9c-0.1-5,3.9-9.1,8.9-9.1s9.1,3.9,9.1,8.9
					c0,0,0,0,0,0C1217.4,230.3,1213.4,234.3,1208.5,234.5L1208.5,234.5z M1224.8,253.6c-2.6,1.5-5.4,2.7-8.4,3.4
					c-2.8,0.7-5.7-1-6.4-3.8c-0.1-0.4-0.2-0.8-0.2-1.2l-0.1-9c0-2.2,1.4-4.2,3.5-5l0.3-0.1c1.9-0.8,4.2-0.5,5.8,1l6.5,6.4
					c2.1,2,2.1,5.4,0.1,7.4C1225.6,253.1,1225.2,253.4,1224.8,253.6L1224.8,253.6z M1240,233.2c-0.7,3-1.9,5.9-3.5,8.6
					c-1.4,2.5-4.7,3.4-7.2,2c-0.4-0.2-0.7-0.5-1-0.8l-6.5-6.3c-1.6-1.6-2-3.9-1.1-5.9l0.2-0.5c0.8-2,2.7-3.4,4.8-3.4l9.1-0.1
					c2.9,0,5.3,2.3,5.3,5.2C1240.2,232.4,1240.1,232.8,1240,233.2L1240,233.2z M1234.8,223.4l-9.1,0.1c-2.2,0-4.1-1.3-4.9-3.3
					c-0.1-0.2-0.1-0.3-0.2-0.5c-1-2-0.6-4.4,0.9-6l6.3-6.5c2-2.1,5.4-2.1,7.5-0.1c0.3,0.3,0.6,0.6,0.8,1c1.7,2.6,2.9,5.5,3.8,8.5
					c0.8,2.8-0.9,5.7-3.7,6.4C1235.7,223.3,1235.2,223.3,1234.8,223.4L1234.8,223.4z"/>
				<path class="st11" d="M1256.8,247.7c12.3-26.8,0.5-58.4-26.2-70.7c-26.8-12.3-58.4-0.5-70.7,26.2c-11.4,24.8-2.2,54.2,21.3,68.1
					c25.5,15,58.3,6.4,73.2-19.1C1255.3,250.7,1256.1,249.2,1256.8,247.7z M1223.1,200c1.5-2.8,5-3.9,7.8-2.4
					c0.4,0.2,0.8,0.5,1.1,0.8c2.5,2.2,4.7,4.7,6.5,7.5c1.8,2.7,1,6.3-1.7,8c-0.4,0.3-0.9,0.5-1.4,0.7l-9.6,3c-2.2,0.7-4.7,0-6.2-1.8
					c-0.1-0.1-0.2-0.2-0.2-0.3c-1.7-1.8-2.1-4.5-0.9-6.7L1223.1,200z M1206.2,189.5c3.1-0.2,6.3,0,9.4,0.7c3.1,0.6,5.2,3.7,4.5,6.9
					c-0.1,0.5-0.3,1-0.5,1.5l-4.7,8.9c-1,2-3.2,3.2-5.4,3.1h-0.3c-2.4-0.1-4.5-1.7-5.2-4l-3-9.5c-1-3.1,0.7-6.3,3.8-7.3
					C1205.2,189.7,1205.7,189.6,1206.2,189.5L1206.2,189.5z M1181.8,201.1c2.1-2.3,4.4-4.2,7-5.9c2.7-1.7,6.3-1,8,1.7
					c0.3,0.4,0.5,0.9,0.7,1.4l3,9.6c0.7,2.2,0,4.6-1.8,6.1l0,0c-1.8,1.5-4.3,1.8-6.4,0.7l-8.9-4.6c-2.8-1.5-3.9-5-2.4-7.8
					C1181.2,201.9,1181.5,201.5,1181.8,201.1L1181.8,201.1z M1172.4,226.5c-0.1-3.1,0.2-6.1,0.9-9.1c0.7-3.1,3.8-5.1,6.9-4.4
					c0.5,0.1,1,0.3,1.4,0.5l8.9,4.6c2.1,1.1,3.3,3.4,3.1,5.7v0.1c-0.2,2.3-1.8,4.2-4,4.9l-9.6,3c-3,1-6.3-0.7-7.3-3.8
					C1172.5,227.7,1172.4,227.1,1172.4,226.5L1172.4,226.5z M1192.7,250c-1.5,2.8-5,3.9-7.9,2.4c-0.5-0.3-0.9-0.6-1.3-1
					c-2.3-2.2-4.3-4.6-5.9-7.3c-1.7-2.7-0.8-6.3,1.9-8c0.4-0.2,0.8-0.4,1.3-0.6l9.5-3c2.3-0.7,4.8,0.1,6.3,2l0.2,0.3
					c1.4,1.8,1.6,4.2,0.6,6.2L1192.7,250z M1203.7,234.3c-4.9-2.5-6.7-8.5-4.2-13.4c2.5-4.9,8.5-6.7,13.4-4.2
					c4.9,2.5,6.7,8.5,4.2,13.4C1214.5,234.9,1208.6,236.7,1203.7,234.3L1203.7,234.3z M1209.4,261.4c-3.3,0.1-6.7-0.3-9.9-1.1
					c-3.1-0.8-5-4-4.2-7c0.1-0.4,0.3-0.8,0.5-1.2l4.6-8.8c1.2-2.2,3.6-3.4,6-3h0.3c2.3,0.2,4.3,1.8,5,4l3,9.6c1,3.1-0.8,6.3-3.8,7.3
					C1210.5,261.3,1210,261.4,1209.4,261.4L1209.4,261.4z M1235,249.6c-2.3,2.5-5,4.7-7.9,6.5c-2.7,1.7-6.3,0.9-8-1.9
					c-0.3-0.4-0.5-0.8-0.6-1.3l-3-9.5c-0.7-2.3,0.1-4.9,2.1-6.4l0.5-0.4c1.8-1.6,4.4-1.9,6.5-0.8l8.9,4.6c2.8,1.5,4,5,2.5,7.8
					C1235.6,248.9,1235.3,249.3,1235,249.6z M1235.1,237.3l-8.9-4.6c-2.1-1.1-3.3-3.4-3.1-5.8c0-0.2,0-0.4,0-0.6
					c0.1-2.4,1.7-4.5,4-5.3l9.5-3c3.1-0.9,6.3,0.8,7.3,3.9c0.1,0.5,0.2,0.9,0.2,1.4c0.2,3.4-0.1,6.9-0.9,10.2
					c-0.7,3.1-3.8,5-6.9,4.3C1235.9,237.7,1235.5,237.5,1235.1,237.3L1235.1,237.3z"/>
				<circle class="st12" cx="1208.4" cy="225.4" r="6.2"/>
			</g>
		</g>
		<g id="roue-2">
			<circle class="st8" cx="135.7" cy="242.1" r="101.7"/>
			<circle class="st1" cx="132.9" cy="245.1" r="97.6"/>
			<circle class="st9" cx="135.7" cy="242.1" r="81.8"/>
			<g id="enjoliveur-2">
				<path class="st10" d="M184,238.9c-1.8-26.6-24.9-46.8-51.5-45c-26.6,1.8-46.8,24.9-45,51.5c1.7,24.7,21.7,44.2,46.5,45.1
					c26.8,0.9,49.2-20.1,50.1-46.9C184.1,242,184.1,240.4,184,238.9z M136.5,215.5c0-2.9,2.3-5.3,5.2-5.3c0.4,0,0.8,0,1.2,0.1
					c3,0.7,5.8,1.7,8.5,3.2c2.6,1.4,3.5,4.6,2.1,7.1c-0.2,0.4-0.5,0.8-0.9,1.2l-6.3,6.6c-1.5,1.5-3.7,2-5.7,1.2l-0.3-0.1
					c-2.1-0.7-3.6-2.7-3.6-4.9L136.5,215.5z M118.5,214.5c2.4-1.5,5-2.7,7.8-3.5c2.8-0.9,5.7,0.7,6.6,3.5c0.1,0.5,0.2,1,0.2,1.5
					l0.1,9.1c0.1,2.1-1.1,4-3,4.8l-0.3,0.1c-2,0.9-4.3,0.5-5.9-1l-6.5-6.3c-2.1-2-2.1-5.4,0-7.5C117.8,215,118.1,214.7,118.5,214.5
					L118.5,214.5z M104.1,234.3c0.7-2.7,1.7-5.3,3-7.7c1.4-2.6,4.6-3.5,7.1-2.1c0.4,0.2,0.8,0.5,1.1,0.8l6.6,6.4
					c1.5,1.5,2,3.7,1.2,5.6v0.1c-0.8,2-2.7,3.3-4.8,3.4l-9.1,0.1c-2.9,0.1-5.3-2.3-5.4-5.2C103.9,235.2,103.9,234.8,104.1,234.3
					L104.1,234.3z M107.6,258.6c-1.4-2.4-2.5-5-3.3-7.6c-0.8-2.8,0.8-5.7,3.6-6.5c0.5-0.1,0.9-0.2,1.4-0.2l9.1-0.1
					c2.1,0,4.1,1.2,4.9,3.2v0.1c0.8,1.9,0.4,4.2-1.1,5.7l-6.3,6.6c-2,2.1-5.3,2.2-7.4,0.2C108.1,259.4,107.8,259,107.6,258.6
					L107.6,258.6z M133.9,268.5c0,2.9-2.3,5.3-5.2,5.3c-0.5,0-1-0.1-1.5-0.2c-2.8-0.7-5.4-1.8-7.9-3.3c-2.5-1.4-3.4-4.7-2-7.2
					c0.2-0.4,0.5-0.7,0.8-1l6.3-6.5c1.5-1.6,3.9-2,5.9-1.1l0.3,0.1c1.9,0.8,3.1,2.7,3.1,4.7L133.9,268.5z M135.9,251.1
					c-5,0.1-9.1-3.8-9.2-8.8c-0.1-5,3.8-9.1,8.8-9.2c5-0.1,9.1,3.8,9.2,8.8c0,0,0,0,0,0C144.8,247,140.8,251.1,135.9,251.1
					L135.9,251.1z M152.2,270.3c-2.6,1.5-5.4,2.7-8.4,3.4c-2.8,0.7-5.7-1-6.4-3.8c-0.1-0.4-0.2-0.8-0.2-1.2l-0.1-9
					c0-2.2,1.4-4.2,3.5-5l0.3-0.1c1.9-0.8,4.2-0.5,5.8,1l6.6,6.3c2.1,2,2.1,5.4,0.1,7.4C153,269.8,152.6,270.1,152.2,270.3
					L152.2,270.3z M167.4,249.9c-0.7,3-1.9,5.9-3.5,8.6c-1.4,2.5-4.7,3.4-7.2,2c-0.4-0.2-0.7-0.5-1-0.8l-6.5-6.3
					c-1.6-1.6-2-3.9-1.1-5.9l0.2-0.5c0.8-2,2.7-3.4,4.8-3.4l9.1-0.1c2.9,0,5.3,2.3,5.3,5.2C167.5,249,167.5,249.5,167.4,249.9
					L167.4,249.9z M162.1,240l-9.1,0.1c-2.2,0-4.1-1.3-4.9-3.3c-0.1-0.2-0.1-0.4-0.2-0.5c-1-2-0.6-4.4,0.9-6l6.3-6.5
					c2-2.1,5.4-2.1,7.5-0.1c0.3,0.3,0.6,0.6,0.8,1c1.6,2.6,2.9,5.5,3.8,8.5c0.8,2.8-0.9,5.7-3.7,6.5C163,239.9,162.6,240,162.1,240z
					"/>
				<path class="st11" d="M184.2,264.4c12.3-26.8,0.6-58.4-26.2-70.7c-26.8-12.3-58.4-0.6-70.7,26.2c-11.4,24.8-2.2,54.2,21.3,68.1
					c25.5,15,58.3,6.4,73.2-19.1C182.6,267.5,183.4,265.9,184.2,264.4z M150.4,216.7c1.5-2.8,5-3.9,7.8-2.5c0.4,0.2,0.8,0.5,1.1,0.8
					c2.5,2.2,4.7,4.7,6.5,7.5c1.8,2.7,1,6.3-1.7,8c-0.4,0.3-0.9,0.5-1.4,0.7l-9.6,3c-2.2,0.7-4.7,0-6.2-1.8l-0.2-0.3
					c-1.7-1.8-2.1-4.5-0.9-6.7L150.4,216.7z M133.6,206.3c3.1-0.2,6.3,0,9.4,0.7c3.1,0.6,5.2,3.7,4.5,6.9c-0.1,0.5-0.3,1-0.5,1.5
					l-4.7,8.9c-1,2-3.2,3.2-5.4,3.1h-0.4c-2.4-0.1-4.5-1.7-5.2-4l-3-9.5c-1-3.1,0.7-6.3,3.7-7.3C132.5,206.4,133,206.3,133.6,206.3
					L133.6,206.3z M109.2,217.9c2.1-2.3,4.4-4.2,7-5.9c2.7-1.7,6.3-1,8,1.7c0.3,0.4,0.5,0.9,0.7,1.4l3,9.6c0.7,2.2,0,4.6-1.8,6.1
					l-0.1,0.1c-1.8,1.5-4.3,1.8-6.4,0.7l-8.9-4.6c-2.8-1.5-3.9-5-2.5-7.8C108.5,218.7,108.8,218.2,109.2,217.9L109.2,217.9z
					 M99.8,243.3c-0.1-3.1,0.2-6.1,0.9-9.1c0.7-3.1,3.8-5.1,6.9-4.4c0.5,0.1,1,0.3,1.4,0.5l8.9,4.6c2.1,1.1,3.3,3.4,3.1,5.7v0.1
					c-0.2,2.3-1.8,4.2-4,4.9l-9.6,3c-3.1,1-6.3-0.7-7.3-3.8C99.9,244.3,99.8,243.8,99.8,243.3L99.8,243.3z M120.1,266.7
					c-1.5,2.8-5,3.9-7.9,2.4c-0.5-0.3-0.9-0.6-1.3-1c-2.3-2.2-4.3-4.6-5.9-7.3c-1.7-2.7-0.8-6.3,1.9-8c0.4-0.2,0.8-0.4,1.3-0.6
					l9.5-3c2.3-0.7,4.8,0.1,6.3,2l0.2,0.3c1.4,1.8,1.6,4.2,0.6,6.2L120.1,266.7z M131.1,250.9c-4.9-2.5-6.7-8.5-4.2-13.4
					c2.5-4.9,8.5-6.7,13.4-4.2c4.9,2.5,6.7,8.5,4.2,13.4c0,0,0,0,0,0C142,251.6,136,253.5,131.1,250.9L131.1,250.9z M136.8,278.1
					c-3.3,0.1-6.7-0.3-9.9-1.1c-3.1-0.8-5-3.9-4.2-7c0.1-0.4,0.3-0.9,0.5-1.3l4.6-8.8c1.2-2.2,3.6-3.4,6-3h0.3c2.3,0.2,4.3,1.8,5,4
					l3,9.6c1,3.1-0.7,6.3-3.8,7.3C137.9,278,137.3,278.1,136.8,278.1L136.8,278.1z M162.3,266.3c-2.3,2.5-5,4.7-7.9,6.5
					c-2.7,1.7-6.3,0.9-8-1.9c-0.3-0.4-0.5-0.8-0.6-1.3l-3-9.5c-0.7-2.3,0.1-4.9,2-6.4l0.5-0.4c1.8-1.6,4.4-1.9,6.5-0.8l8.9,4.6
					c2.9,1.4,4,4.9,2.5,7.8C162.9,265.6,162.7,266,162.3,266.3L162.3,266.3z M162.4,254l-8.9-4.6c-2.1-1.1-3.3-3.4-3.1-5.8
					c0-0.2,0-0.4,0.1-0.6c0.1-2.4,1.7-4.6,4.1-5.3l9.5-3c3.1-0.9,6.3,0.8,7.3,3.8c0.1,0.5,0.2,0.9,0.2,1.4c0.2,3.4-0.1,6.9-0.9,10.2
					c-0.7,3.1-3.9,5-7,4.3C163.3,254.4,162.8,254.2,162.4,254L162.4,254z"/>
				<circle class="st12" cx="135.7" cy="242.1" r="6.2"/>
			</g>
		</g>
		<path class="st6" d="M160.8,72.5l4.4-10l1.4-12.4l11.8,8.2l1,20.7l12-48.8l5.6-0.1l1,61.1c0,0,1.5-2.3,1.4-8.8s-0.9-54.5-0.9-54.5
			l-33.9,0.5L160.8,72.5z"/>
		
			<rect x="334.6" y="116.7" transform="matrix(0.9999 -1.553281e-02 1.553281e-02 0.9999 -1.8226 7.4368)" class="st3" width="286.5" height="8.7"/>
		
			<rect x="611.7" y="32.5" transform="matrix(0.9999 -1.553281e-02 1.553281e-02 0.9999 -1.0678 9.5775)" class="st3" width="8.7" height="82.1"/>
		
			<rect x="1337.9" y="277.7" transform="matrix(0.9999 -1.553281e-02 1.553281e-02 0.9999 -4.1899 22.2144)" class="st3" width="180.2" height="6.3"/>
		<polygon class="st3" points="160.3,77.8 0.3,80.3 0,62.6 161.8,60.1 		"/>
		<polygon class="st3" points="160.9,70.3 199.1,69.7 198.8,52.9 162.4,53.5 		"/>
		<circle class="st3" cx="107.3" cy="85.7" r="19.3"/>
		<circle class="st13" cx="107.3" cy="85.7" r="17"/>
		<circle class="st3" cx="107.3" cy="85.7" r="14.5"/>
		<circle class="st3" cx="49" cy="86.6" r="19.3"/>
		<circle class="st13" cx="49" cy="86.6" r="17"/>
		<circle class="st3" cx="49" cy="86.6" r="14.5"/>
		<g id="ELYS2E">
			<path class="st14" d="M263.4,289.5l1.4-22.5l55.2,1.1l-0.3,5l-33.9-0.7l-0.2,3.7l29.7,0.6l-0.3,5.1l-29.7-0.6l-0.2,3.7l33.9,0.7
				l-0.3,5L263.4,289.5z"/>
			<path class="st14" d="M325.3,290.8l1.4-22.5l21.3,0.5l-1,17.5l32.8,0.7l-0.3,5L325.3,290.8z"/>
			<path class="st14" d="M392.6,292.3l0.5-8.3l-25.4-14.8l22.2,0.5l14.2,8.8l15.2-8.2l22.2,0.5l-27.1,13.7l-0.5,8.2L392.6,292.3z"/>
			<path class="st14" d="M464.5,294.1c-4.9-0.1-9.5-0.3-13.9-0.7s-8.1-0.8-11.1-1.3l0.3-5.4c3.3,0.6,7.1,1,11.2,1.4
				c4.2,0.4,8,0.6,11.6,0.7c3.8,0.1,6.6,0,8.6-0.1c1.9-0.2,2.9-0.6,3-1.3c0-0.5-0.5-0.9-1.6-1.2c-1.6-0.4-3.3-0.7-5-0.9l-8.9-1.1
				c-4.9-0.6-8.7-1.2-11.5-1.9c-2.1-0.4-4.2-1.1-6-2.3c-1.1-0.6-1.7-1.8-1.7-3.1c0.1-2.2,2.8-3.8,7.9-4.9c5.2-1.1,12.7-1.5,22.7-1.2
				c4,0.1,8.1,0.3,12.4,0.6c4.3,0.3,7.7,0.6,10.3,0.9l-0.3,5.5c-3.5-0.5-6.9-0.9-10.1-1.1s-6.3-0.4-9.1-0.5c-3.3-0.1-6.2,0-8.5,0.1
				c-2.4,0.1-3.5,0.5-3.6,1.2s0.9,1,2.9,1.3s5.5,0.7,10.6,1.3c4.5,0.4,9.1,1.1,13.5,2.1c3.1,0.8,5.2,1.6,6.3,2.6
				c1,0.7,1.5,1.9,1.5,3.2c-0.1,2-2.8,3.6-8,4.8S474.9,294.3,464.5,294.1z"/>
			<path class="st14" d="M503.4,294.6l1.4-22.5l55.2,1.2l-0.3,5l-33.9-0.7l-0.2,3.7l29.7,0.6l-0.3,5.1l-29.7-0.6L525,290l33.9,0.7
				l-0.3,5L503.4,294.6z M522.5,270.9l10.4-7l16.5,0.3l-11.3,7L522.5,270.9z"/>
			<path class="st14" d="M565.4,295.9l1.3-22.5l55.2,1.1l-0.3,5l-33.9-0.7l-0.2,3.7l29.7,0.6l-0.3,5.1l-29.7-0.6l-0.2,3.7l33.9,0.7
				l-0.3,5L565.4,295.9z"/>
		</g>
		<g id="_2022">
			<path class="st14" d="M652.7,298.8v-3c2.4-1.4,5-2.5,7.7-3.4c3-1,6.4-2,10.1-3.1c3.1-0.9,5.6-1.6,7.5-2.2
				c1.5-0.4,2.9-0.9,4.3-1.6c1-0.5,1.4-1.1,1.4-1.7c0-1.6-3.5-2.5-10.5-2.4c-3.2,0-6.4,0.1-9.5,0.4c-3.1,0.3-5.9,0.6-8.7,0.9l0-5.6
				c3.1-0.4,6.7-0.7,10.9-1s8.3-0.4,12.6-0.4c9.1-0.1,15.8,0.6,20.2,1.8c4.4,1.3,6.6,3,6.6,5.3c0,1-0.4,2-1.2,2.7
				c-1.1,0.9-2.3,1.6-3.7,2.1c-1.7,0.6-3.8,1.3-6.5,2.1c-2.3,0.6-4.7,1.3-6.9,1.9c-1.9,0.5-3.7,1.1-5.5,1.9l24.3-0.2v5L652.7,298.8z
				"/>
			<path class="st14" d="M746.6,298.5c-6.8,0.2-13.5-0.2-20.2-1.2c-5.1-0.9-8.8-2.1-11.1-3.9c-2.1-1.4-3.4-3.8-3.5-6.3
				c0.1-2.6,1.4-5,3.6-6.4c2.3-1.7,6.1-3.1,11.2-4c6.7-1.1,13.4-1.5,20.2-1.5c12.5-0.1,21.5,0.9,26.8,2.8c5.3,2,8,4.8,8,8.6
				s-2.7,6.6-8.1,8.7S759.1,298.5,746.6,298.5z M746.6,292.9c4.9,0,8.3-0.5,10.3-1.6c1.8-0.8,2.9-2.6,2.9-4.5
				c0.1-1.9-1.1-3.7-2.8-4.5c-1.9-1-5.3-1.5-10.2-1.4c-4.9,0-8.3,0.6-10.3,1.6c-1.8,0.8-2.9,2.6-2.9,4.5c0,1.9,1.1,3.7,2.8,4.5
				C738.3,292.5,741.7,293,746.6,292.9z"/>
			<path class="st14" d="M787.1,297.9v-3c2.4-1.4,5-2.5,7.7-3.4c3-1,6.4-2,10.1-3.1c3.1-0.9,5.6-1.6,7.5-2.2
				c1.5-0.4,2.9-0.9,4.3-1.6c1-0.5,1.4-1.1,1.4-1.7c0-1.7-3.5-2.5-10.5-2.4c-3.2,0-6.4,0.1-9.5,0.4c-3.1,0.3-5.9,0.6-8.7,0.9v-5.6
				c3.1-0.4,6.7-0.7,10.9-1s8.3-0.4,12.6-0.4c9.1-0.1,15.8,0.6,20.2,1.8c4.4,1.3,6.6,3,6.6,5.3c0,1-0.4,2-1.2,2.7
				c-1.1,0.9-2.3,1.6-3.7,2.1c-1.7,0.6-3.8,1.3-6.5,2.1c-2.3,0.6-4.7,1.3-6.9,1.9c-1.9,0.5-3.7,1.1-5.4,1.9l24.3-0.2v5L787.1,297.9z
				"/>
			<path class="st14" d="M846.1,297.5v-3c2.4-1.4,5-2.5,7.7-3.4c3-1,6.4-2,10.1-3.1c3.1-0.9,5.6-1.6,7.5-2.2
				c1.5-0.4,2.9-0.9,4.3-1.6c1-0.5,1.4-1.1,1.4-1.7c0-1.7-3.5-2.5-10.5-2.4c-3.2,0-6.4,0.1-9.5,0.4c-3.1,0.3-5.9,0.6-8.7,0.9l0-5.6
				c3.1-0.4,6.7-0.7,10.9-1c4.2-0.3,8.3-0.4,12.6-0.4c9-0.1,15.8,0.6,20.2,1.8c4.4,1.3,6.7,3,6.6,5.3c0,1-0.4,2-1.2,2.7
				c-1.1,0.9-2.3,1.6-3.7,2.1c-1.7,0.6-3.8,1.3-6.5,2.1c-2.3,0.6-4.7,1.3-6.9,1.9c-1.9,0.5-3.7,1.1-5.4,1.9l24.3-0.2l0,5
				L846.1,297.5z"/>
		</g>
		
			<rect x="470" y="64.8" transform="matrix(0.9999 -1.553281e-02 1.553281e-02 0.9999 -1.2193 7.3855)" class="st0" width="9.8" height="34.9"/>
		
			<rect x="485.8" y="64.5" transform="matrix(0.9999 -1.553281e-02 1.553281e-02 0.9999 -1.2136 7.6308)" class="st0" width="9.8" height="34.9"/>
		
			<rect x="501.6" y="64.3" transform="matrix(0.9999 -1.553281e-02 1.553281e-02 0.9999 -1.2079 7.8764)" class="st0" width="9.8" height="34.9"/>
		
			<rect x="517.4" y="64" transform="matrix(0.9999 -1.553281e-02 1.553281e-02 0.9999 -1.2022 8.122)" class="st0" width="9.8" height="34.9"/>
		
			<rect x="533.2" y="63.8" transform="matrix(0.9999 -1.553281e-02 1.553281e-02 0.9999 -1.1965 8.3673)" class="st0" width="9.8" height="34.9"/>
		
			<rect x="549" y="63.5" transform="matrix(0.9999 -1.553281e-02 1.553281e-02 0.9999 -1.1907 8.6129)" class="st0" width="9.8" height="34.9"/>
		
			<rect x="849.3" y="95.8" transform="matrix(0.9999 -1.553281e-02 1.553281e-02 0.9999 -1.5208 13.2508)" class="st5" width="6" height="17.4"/>
		
			<rect x="681.1" y="30.3" transform="matrix(0.9999 -1.553281e-02 1.553281e-02 0.9999 -0.6955 10.6436)" class="st5" width="7.5" height="39.7"/>
		
			<rect x="671.5" y="70.1" transform="matrix(0.9999 -1.553281e-02 1.553281e-02 0.9999 -1.142 10.4971)" class="st5" width="7.5" height="17.4"/>
		
			<rect x="701.7" y="87" transform="matrix(0.9999 -1.553281e-02 1.553281e-02 0.9999 -1.4489 10.9695)" class="st5" width="7.5" height="23.6"/>
	</g>
</g>
</svg>
