<svg width="188" height="48" viewBox="0 0 188 48" fill="none" xmlns="http://www.w3.org/2000/svg">
<rect width="187.2" height="47.4545" fill="#ADB3D7"/>
<mask id="mask0_622_1687" style="mask-type:alpha" maskUnits="userSpaceOnUse" x="147" y="7" width="32" height="33">
<circle cx="162.992" cy="23.9017" r="15.4925" fill="#C4C4C4" stroke="black"/>
</mask>
<g mask="url(#mask0_622_1687)">
<path d="M151.532 36.5223C151.532 36.5223 150.217 23.7339 158.149 18.9141L169.374 19.1898C169.374 19.1898 174.172 20.9958 174.815 36.2218L163.683 41.4359L151.532 36.5223Z" fill="#5154A1"/>
<path d="M169.137 18.9004C169.137 18.9004 166.534 22.6062 163.104 22.4298L163.776 25.2863C163.776 25.2863 169.217 21.5502 169.137 18.9004Z" fill="#373684"/>
<path d="M169.136 18.9004C169.136 18.9004 166.337 22.3829 162.907 22.2092L163.577 25.0658C163.577 25.0658 168.516 22.0934 169.136 18.9004Z" fill="#FAF3ED"/>
<path d="M162.044 22.2752L161.518 25.1925C161.518 25.1925 158.518 21.3653 158.333 18.9141C158.33 18.9141 160.906 22.0795 162.044 22.2752Z" fill="#373684"/>
<path d="M161.904 22.2366L161.281 25.0601C161.281 25.0601 158.523 21.3598 158.333 18.9141C159.145 20.3686 160.395 21.531 161.904 22.2366Z" fill="#FAF3ED"/>
<path d="M162.836 23.8019C162.836 23.8019 163.388 31.0096 163.743 32.6557C164.099 34.3018 162.456 36.0031 162.365 36.5711H160.255C160.255 36.5711 159.243 34.5279 159.469 32.9866C159.696 31.4452 162.191 23.7109 162.191 23.7109L162.836 23.8019Z" fill="#C7361A"/>
<path d="M162.723 23.7568C162.723 23.7568 163.274 30.9645 163.63 32.6079C163.986 34.2512 162.342 35.958 162.251 36.5233H160.142C160.142 36.5233 159.13 34.4801 159.356 32.9387C159.582 31.3974 162.078 23.6631 162.078 23.6631L162.723 23.7568Z" fill="#E8461C"/>
<path d="M162.067 23.4891L162.37 23.1279C162.387 23.1069 162.409 23.09 162.433 23.0782C162.459 23.0716 162.485 23.0716 162.511 23.0782C162.537 23.078 162.564 23.0868 162.585 23.1031C162.609 23.1172 162.629 23.1371 162.643 23.161L162.955 23.6518C162.982 23.6951 162.993 23.7471 162.985 23.7979C162.978 23.8488 162.954 23.8958 162.916 23.9303L162.48 24.2749C162.459 24.2933 162.433 24.3057 162.406 24.3108C162.381 24.3176 162.354 24.3176 162.329 24.3108C162.303 24.3025 162.279 24.2883 162.26 24.2694C162.239 24.2489 162.223 24.2245 162.213 24.1977L162.034 23.7179C162.024 23.6818 162.024 23.6438 162.034 23.6077C162.036 23.5661 162.047 23.5256 162.067 23.4891Z" fill="#C7361A"/>
<path d="M162.008 23.4668L162.3 23.1193C162.317 23.0999 162.338 23.084 162.361 23.0725C162.384 23.0626 162.41 23.0579 162.435 23.0587C162.461 23.0615 162.485 23.07 162.507 23.0835C162.529 23.0975 162.548 23.1164 162.562 23.1386L162.863 23.6129C162.875 23.6342 162.883 23.6576 162.888 23.6818C162.893 23.7063 162.893 23.7318 162.888 23.7563C162.884 23.7813 162.877 23.8055 162.865 23.828C162.853 23.8479 162.837 23.8656 162.819 23.8804L162.402 24.214C162.383 24.2309 162.359 24.2424 162.333 24.2471C162.308 24.2526 162.282 24.2526 162.256 24.2471C162.231 24.2387 162.208 24.2245 162.19 24.2057C162.171 24.1856 162.156 24.1623 162.146 24.1368L161.975 23.6763C161.965 23.6411 161.965 23.604 161.975 23.5688C161.976 23.5324 161.988 23.4972 162.008 23.4668Z" fill="#E8461C"/>
<path d="M155.942 34.3506C155.942 34.3506 156.353 36.4048 156.345 36.3607C156.337 36.3166 156.792 36.107 156.792 36.107C156.745 35.531 156.664 34.9583 156.549 34.392C156.408 34.3184 156.258 34.2646 156.102 34.2321C156.102 34.2321 156.35 28.5299 157.82 28.1025C156.138 28.4748 155.942 34.3506 155.942 34.3506Z" fill="#373684"/>
<path d="M150.935 36.5229C150.778 35.8128 150.715 35.085 150.748 34.3584C150.748 34.3584 154.57 33.9613 156.464 34.4576C156.464 34.4576 156.74 35.9245 156.637 36.5229H150.935Z" fill="#FAF3ED"/>
<g clip-path="url(#clip0_622_1687)">
<path d="M156.65 36.3082C156.65 36.3082 156.559 39.4558 155.42 38.4572C155.42 38.4572 154.844 40.0295 154.15 38.8138C154.15 38.8138 153.483 40.5972 152.894 38.7425C152.894 38.7425 152.122 41.0638 151.337 38.5285C151.337 38.5285 148.85 42.764 148.654 36.3082L156.65 36.3082Z" fill="#CC8A7A"/>
<path d="M155.725 36.3081C155.725 37.1038 155.616 37.8707 155.418 38.457C155.418 38.457 155.816 37.8329 155.725 36.3081Z" fill="#BC6A4F"/>
<path d="M154.35 36.3079C154.412 38.0585 154.15 38.8135 154.15 38.8135C154.15 38.8135 154.548 38.1744 154.35 36.3079Z" fill="#BC6A4F"/>
<path d="M153.202 36.3079C153.183 37.181 153.077 38.0233 152.895 38.7422C153.013 38.4315 153.102 38.0489 153.155 37.6258C153.209 37.2027 153.225 36.751 153.202 36.3079Z" fill="#BC6A4F"/>
<path d="M151.04 37.1254C151.098 37.6484 151.199 38.1282 151.336 38.5283C151.244 38.3903 151.168 38.1867 151.116 37.9394C151.064 37.6922 151.037 37.4107 151.04 37.1254Z" fill="#BC6A4F"/>
</g>
<g clip-path="url(#clip1_622_1687)">
<path d="M177.607 36.3082C177.607 36.3082 177.516 39.4558 176.377 38.4572C176.377 38.4572 175.801 40.0295 175.107 38.8138C175.107 38.8138 174.441 40.5972 173.851 38.7425C173.851 38.7425 173.079 41.0638 172.294 38.5285C172.294 38.5285 169.807 42.764 169.611 36.3082L177.607 36.3082Z" fill="#CC8A7A"/>
<path d="M176.682 36.3081C176.682 37.1038 176.573 37.8707 176.376 38.457C176.376 38.457 176.773 37.8329 176.682 36.3081Z" fill="#BC6A4F"/>
<path d="M175.307 36.3079C175.37 38.0585 175.107 38.8135 175.107 38.8135C175.107 38.8135 175.505 38.1744 175.307 36.3079Z" fill="#BC6A4F"/>
<path d="M174.159 36.3079C174.14 37.181 174.034 38.0233 173.852 38.7422C173.97 38.4315 174.059 38.0489 174.112 37.6258C174.166 37.2027 174.182 36.751 174.159 36.3079Z" fill="#BC6A4F"/>
<path d="M171.997 37.1254C172.055 37.6484 172.156 38.1282 172.293 38.5283C172.201 38.3903 172.125 38.1867 172.073 37.9394C172.021 37.6922 171.995 37.4107 171.997 37.1254Z" fill="#BC6A4F"/>
</g>
<path d="M155.942 34.3502C154.564 34.1241 152.581 34.2151 151.506 34.2924V34.0662C151.506 34.0662 154.988 33.967 155.942 34.3502Z" fill="#373684"/>
<path d="M170.104 34.2704L169.702 36.2805C169.702 36.2363 169.255 36.0268 169.255 36.0268C169.302 35.4499 169.383 34.8763 169.498 34.309C169.638 34.2354 169.789 34.1816 169.944 34.1491C169.944 34.1491 169.553 28.4497 168.083 28.0195C169.776 28.3945 170.104 34.2704 170.104 34.2704Z" fill="#373684"/>
<path d="M175.12 36.4443C175.28 35.7336 175.344 35.0048 175.311 34.2771C175.311 34.2771 171.489 33.8828 169.595 34.3764C169.595 34.3764 169.319 35.846 169.421 36.4443H175.12Z" fill="#FAF3ED"/>
<path d="M170.104 34.2702C171.482 34.0414 173.462 34.1351 174.537 34.2123V33.9835C174.537 33.9835 171.069 33.887 170.104 34.2702Z" fill="#373684"/>
<path d="M156.836 16.544C156.834 16.2075 156.91 15.8752 157.059 15.5734C157.189 15.2994 157.396 15.0693 157.655 14.9116C157.889 14.7722 158.165 14.7241 158.432 14.7765C158.711 14.8372 158.96 14.9897 159.141 15.2094C159.35 15.4554 159.493 15.7505 159.557 16.0669C159.632 16.4011 159.632 16.7475 159.557 17.0816C159.482 17.3895 159.332 17.6739 159.119 17.9088C158.929 18.1176 158.675 18.2573 158.397 18.3059C158.342 18.3101 158.288 18.3101 158.234 18.3059C158.141 18.3065 158.048 18.2954 157.958 18.2728C157.622 18.1755 157.335 17.9537 157.156 17.6524C156.949 17.3196 156.838 16.9359 156.836 16.544Z" fill="#CC8A7A"/>
<path d="M162.74 22.4418L162.045 22.2764C160.531 21.758 157.669 19.4832 157.669 16.5439C157.673 15.128 158.238 13.7713 159.239 12.7701C160.24 11.7689 161.597 11.2046 163.013 11.2002H164.433C165.849 11.2046 167.205 11.7689 168.206 12.7701C169.208 13.7713 169.772 15.128 169.776 16.5439C170.204 19.0917 167.342 21.5071 164.673 22.2571C164.177 22.3998 163.666 22.4786 163.151 22.4914C163.012 22.4929 162.874 22.4763 162.74 22.4418Z" fill="#CC8A7A"/>
<path d="M159.609 16.8564C159.435 16.8564 159.268 16.7873 159.145 16.6642C159.022 16.5411 158.953 16.3742 158.953 16.2002C158.953 16.0261 159.022 15.8592 159.145 15.7362C159.268 15.6131 159.435 15.5439 159.609 15.5439C159.783 15.5447 159.949 15.6141 160.072 15.7371C160.194 15.8601 160.263 16.0266 160.263 16.2002C160.263 16.3738 160.194 16.5403 160.072 16.6633C159.949 16.7862 159.783 16.8557 159.609 16.8564Z" fill="#1B1935"/>
<path d="M166.266 16.8564C166.092 16.8557 165.926 16.7862 165.804 16.6633C165.681 16.5403 165.612 16.3738 165.612 16.2002C165.612 16.0266 165.681 15.8601 165.804 15.7371C165.926 15.6141 166.092 15.5447 166.266 15.5439C166.44 15.5439 166.607 15.6131 166.73 15.7362C166.853 15.8592 166.922 16.0261 166.922 16.2002C166.922 16.3742 166.853 16.5411 166.73 16.6642C166.607 16.7873 166.44 16.8564 166.266 16.8564Z" fill="#1B1935"/>
<path d="M159.929 15.2588C159.915 15.2562 159.9 15.2562 159.885 15.2588L158.672 15.7469C158.642 15.7591 158.618 15.7828 158.605 15.8127C158.592 15.8426 158.591 15.8764 158.603 15.9068C158.616 15.9372 158.64 15.9614 158.671 15.9742C158.701 15.9871 158.735 15.9876 158.766 15.9757L159.976 15.4904C160.007 15.4776 160.031 15.4534 160.044 15.4231C160.057 15.3927 160.057 15.3585 160.045 15.3277C160.034 15.3065 160.018 15.2888 159.997 15.2766C159.977 15.2644 159.953 15.2583 159.929 15.2588Z" fill="black"/>
<path d="M165.766 15.1895C165.741 15.1895 165.717 15.1972 165.696 15.2114C165.675 15.2257 165.66 15.2459 165.651 15.2694C165.639 15.3001 165.64 15.3342 165.653 15.3642C165.667 15.3942 165.692 15.4176 165.722 15.4293L166.944 15.8898C166.975 15.9015 167.009 15.9005 167.039 15.887C167.069 15.8736 167.092 15.8488 167.104 15.8181C167.115 15.7874 167.113 15.7536 167.1 15.7238C167.087 15.694 167.062 15.6705 167.032 15.6582L165.811 15.1977L165.766 15.1895Z" fill="black"/>
<path d="M163.862 18.7294C163.194 18.8342 162.514 18.8342 161.846 18.7294C160.33 18.4923 159.544 19.0658 160.418 19.4739C161.193 19.7857 162.02 19.9512 162.856 19.9619C163.69 19.9513 164.516 19.7858 165.29 19.4739C166.167 19.0658 165.379 18.4923 163.862 18.7294Z" fill="#E28E74"/>
<path d="M160.785 18.9678C161.177 19.2711 161.957 19.4779 162.856 19.4779C163.755 19.4779 164.535 19.2711 164.927 18.9678C164.927 18.9678 162.837 19.7481 160.785 18.9678Z" fill="#BC6A4F"/>
<path d="M157.845 12.1983L157.869 12.1542C158.021 11.8657 158.146 11.5639 158.242 11.2526C158.448 10.7206 158.758 10.235 159.154 9.82425C160.015 8.77922 161.636 8.99705 162.011 9.27278C162.094 9.33069 162.168 9.38308 162.232 9.43271C162.285 9.47102 162.35 9.49044 162.416 9.48795C162.482 9.48545 162.545 9.46118 162.596 9.41893C162.907 9.17628 162.954 9.07151 163.643 9.02739C164.333 8.98328 164.666 9.24247 164.774 9.51268C164.786 9.54637 164.805 9.57684 164.831 9.60168C164.856 9.62652 164.887 9.64504 164.921 9.65575C164.955 9.66647 164.991 9.66908 165.026 9.66339C165.062 9.6577 165.095 9.64386 165.124 9.62297C165.448 9.40427 165.82 9.2653 166.208 9.21738C166.596 9.16946 166.99 9.21396 167.357 9.34723C169.822 10.2985 170.757 14.44 170.308 15.2645C170.22 15.4406 170.096 15.596 169.943 15.7201C169.79 15.8443 169.613 15.9343 169.423 15.9841C168.951 16.0917 169.072 13.1358 166.42 13.1358C166.35 13.1336 166.281 13.1507 166.22 13.1853C166.159 13.2198 166.109 13.2704 166.075 13.3316C165.929 13.5917 165.731 13.8195 165.494 14.001C165.257 14.1825 164.986 14.3141 164.697 14.3876C163.527 14.7047 162.551 12.7332 162.551 12.7332C162.551 12.7332 162.499 13.9079 160.897 14.4731C160.166 14.726 159.374 14.7424 158.633 14.52C157.773 14.2746 157.365 13.1082 157.845 12.1983Z" fill="black"/>
<path d="M168.389 16.544C168.387 16.2075 168.463 15.8752 168.612 15.5734C168.742 15.2994 168.949 15.0693 169.208 14.9116C169.441 14.7722 169.718 14.7241 169.985 14.7765C170.264 14.8366 170.513 14.9892 170.694 15.2094C170.903 15.4554 171.046 15.7505 171.11 16.0669C171.186 16.4009 171.186 16.7477 171.11 17.0816C171.036 17.39 170.885 17.6745 170.672 17.9088C170.482 18.1176 170.228 18.2573 169.949 18.3059C169.896 18.31 169.843 18.31 169.789 18.3059C169.696 18.3065 169.604 18.2954 169.514 18.2728C169.177 18.1755 168.89 17.9537 168.711 17.6524C168.505 17.3193 168.393 16.936 168.389 16.544Z" fill="#CC8A7A"/>
<path d="M170.694 17.211C170.787 16.997 170.833 16.7658 170.829 16.5327C170.83 16.2999 170.782 16.0695 170.686 15.8572C170.602 15.6621 170.469 15.492 170.3 15.3636C170.149 15.2477 169.964 15.1838 169.773 15.1816C169.773 15.1816 171.006 15.587 170.694 17.211Z" fill="#BC6A4F"/>
<path d="M166.31 19.6747C166.356 19.5695 166.379 19.4558 166.377 19.3411C166.377 19.2251 166.353 19.1104 166.305 19.0047C166.264 18.9086 166.198 18.8249 166.115 18.7621C166.04 18.7054 165.949 18.6744 165.855 18.6738C165.855 18.6738 166.462 18.8724 166.31 19.6747Z" fill="#BC6A4F"/>
<path d="M160.079 18.6729C159.974 18.7152 159.88 18.7802 159.803 18.8631C159.722 18.9413 159.658 19.0352 159.615 19.1388C159.577 19.2369 159.564 19.3434 159.579 19.4477C159.591 19.5401 159.633 19.6263 159.698 19.6931C159.698 19.6931 159.406 19.1195 160.079 18.6729Z" fill="#BC6A4F"/>
<path d="M160.845 17.9603H164.244C164.583 17.9554 164.92 18.0057 165.242 18.1092C165.518 18.2057 165.656 18.3353 165.656 18.4704H159.436C159.436 18.3353 159.584 18.1947 159.849 18.1092C160.171 18.0059 160.507 17.9556 160.845 17.9603Z" fill="#6E333C"/>
</g>
<defs>
<clipPath id="clip0_622_1687">
<rect width="7.99624" height="3.58452" fill="white" transform="translate(156.65 39.8926) rotate(-180)"/>
</clipPath>
<clipPath id="clip1_622_1687">
<rect width="7.99624" height="3.58452" fill="white" transform="translate(177.607 39.8926) rotate(-180)"/>
</clipPath>
</defs>
</svg>
