<svg width="173" height="48" viewBox="0 0 173 48" fill="none" xmlns="http://www.w3.org/2000/svg">
<rect width="172.8" height="47.4545" fill="#46A882"/>
<mask id="mask0_622_1735" style="mask-type:alpha" maskUnits="userSpaceOnUse" x="132" y="7" width="32" height="33">
<circle cx="147.993" cy="23.9029" r="15.4927" fill="#A27474" stroke="black"/>
</mask>
<g mask="url(#mask0_622_1735)">
<path d="M154.177 20.6022H154.277C157.319 20.6992 159.487 21.0681 159.792 22.6956C161.02 29.2123 161.504 38.146 161.504 38.146L148.38 42.1032H147.827L135.309 38.146C135.309 38.146 135.701 24.1129 136.52 22.6956C137.073 21.7638 139.009 20.696 142.029 20.5957H154.199L154.177 20.6022Z" fill="#5154A1"/>
<path d="M143.052 24.7266C143.052 24.7266 148.346 28.7496 153.067 24.7266C153.067 24.7266 150.861 39.0456 151.167 40.7689H145.316L143.052 24.7266Z" fill="#373684"/>
<g clip-path="url(#clip0_622_1735)">
<path d="M163.71 36.3111C163.71 36.3111 163.618 39.4588 162.48 38.4601C162.48 38.4601 161.904 40.0324 161.21 38.8168C161.21 38.8168 160.543 40.6001 159.954 38.7454C159.954 38.7454 159.181 41.0668 158.397 38.5314C158.397 38.5314 155.91 42.7669 155.714 36.3111L163.71 36.3111Z" fill="#EFB19E"/>
<path d="M162.784 36.311C162.784 37.1067 162.675 37.8736 162.478 38.46C162.478 38.46 162.876 37.8358 162.784 36.311Z" fill="#BC6A4F"/>
<path d="M161.41 36.3108C161.472 38.0614 161.21 38.8164 161.21 38.8164C161.21 38.8164 161.607 38.1774 161.41 36.3108Z" fill="#BC6A4F"/>
<path d="M160.261 36.3108C160.243 37.1839 160.137 38.0262 159.954 38.7451C160.072 38.4344 160.162 38.0518 160.215 37.6287C160.268 37.2056 160.284 36.7539 160.261 36.3108Z" fill="#BC6A4F"/>
<path d="M158.099 37.1283C158.158 37.6513 158.259 38.1311 158.396 38.5312C158.304 38.3932 158.228 38.1896 158.176 37.9424C158.124 37.6951 158.097 37.4136 158.099 37.1283Z" fill="#BC6A4F"/>
</g>
<g clip-path="url(#clip1_622_1735)">
<path d="M140.824 36.0367C140.824 36.0367 140.733 39.1844 139.594 38.1857C139.594 38.1857 139.018 39.758 138.324 38.5423C138.324 38.5423 137.657 40.3257 137.068 38.471C137.068 38.471 136.295 40.7924 135.511 38.257C135.511 38.257 133.024 42.4925 132.828 36.0367L140.824 36.0367Z" fill="#EFB19E"/>
<path d="M139.898 36.0366C139.899 36.8323 139.789 37.5992 139.592 38.1855C139.592 38.1855 139.99 37.5614 139.898 36.0366Z" fill="#BC6A4F"/>
<path d="M138.524 36.0364C138.586 37.787 138.324 38.542 138.324 38.542C138.324 38.542 138.721 37.903 138.524 36.0364Z" fill="#BC6A4F"/>
<path d="M137.376 36.0364C137.357 36.9095 137.251 37.7518 137.068 38.4707C137.186 38.16 137.276 37.7774 137.329 37.3543C137.383 36.9312 137.398 36.4795 137.376 36.0364Z" fill="#BC6A4F"/>
<path d="M135.213 36.8539C135.272 37.3769 135.373 37.8567 135.51 38.2568C135.418 38.1188 135.342 37.9152 135.29 37.6679C135.238 37.4207 135.211 37.1392 135.213 36.8539Z" fill="#BC6A4F"/>
</g>
<path d="M148.111 35.6587L148.114 26.5098L147.811 35.6697L148.111 35.6587Z" fill="#2C2C6B"/>
<path d="M153.067 25.7919C153.382 25.7919 153.638 25.5364 153.638 25.2212C153.638 24.9059 153.382 24.6504 153.067 24.6504C152.752 24.6504 152.496 24.9059 152.496 25.2212C152.496 25.5364 152.752 25.7919 153.067 25.7919Z" fill="#C9C5BD"/>
<path d="M153.108 25.6476C153.384 25.6476 153.608 25.4241 153.608 25.1485C153.608 24.8729 153.384 24.6494 153.108 24.6494C152.833 24.6494 152.609 24.8729 152.609 25.1485C152.609 25.4241 152.833 25.6476 153.108 25.6476Z" fill="white"/>
<path d="M152.385 26.6171C152.7 26.6171 152.956 26.3616 152.956 26.0464C152.956 25.7311 152.7 25.4756 152.385 25.4756C152.07 25.4756 151.814 25.7311 151.814 26.0464C151.814 26.3616 152.07 26.6171 152.385 26.6171Z" fill="#C9C5BD"/>
<path d="M152.427 26.4738C152.702 26.4738 152.926 26.2503 152.926 25.9747C152.926 25.699 152.702 25.4756 152.427 25.4756C152.151 25.4756 151.928 25.699 151.928 25.9747C151.928 26.2503 152.151 26.4738 152.427 26.4738Z" fill="white"/>
<path d="M151.815 27.5312C152.13 27.5312 152.386 27.2757 152.386 26.9604C152.386 26.6452 152.13 26.3896 151.815 26.3896C151.5 26.3896 151.244 26.6452 151.244 26.9604C151.244 27.2757 151.5 27.5312 151.815 27.5312Z" fill="#C9C5BD"/>
<path d="M151.856 27.3829C152.131 27.3829 152.355 27.1595 152.355 26.8838C152.355 26.6082 152.131 26.3848 151.856 26.3848C151.58 26.3848 151.356 26.6082 151.356 26.8838C151.356 27.1595 151.58 27.3829 151.856 27.3829Z" fill="white"/>
<path d="M151.415 28.5087C151.73 28.5087 151.985 28.2532 151.985 27.938C151.985 27.6227 151.73 27.3672 151.415 27.3672C151.099 27.3672 150.844 27.6227 150.844 27.938C150.844 28.2532 151.099 28.5087 151.415 28.5087Z" fill="#DDD5C5"/>
<path d="M151.456 28.3654C151.732 28.3654 151.955 28.1419 151.955 27.8663C151.955 27.5906 151.732 27.3672 151.456 27.3672C151.18 27.3672 150.957 27.5906 150.957 27.8663C150.957 28.1419 151.18 28.3654 151.456 28.3654Z" fill="white"/>
<path d="M150.845 29.3779C151.16 29.3779 151.416 29.1223 151.416 28.8071C151.416 28.4919 151.16 28.2363 150.845 28.2363C150.53 28.2363 150.274 28.4919 150.274 28.8071C150.274 29.1223 150.53 29.3779 150.845 29.3779Z" fill="#C9C5BD"/>
<path d="M150.886 29.2335C151.161 29.2335 151.385 29.0101 151.385 28.7344C151.385 28.4588 151.161 28.2354 150.886 28.2354C150.61 28.2354 150.387 28.4588 150.387 28.7344C150.387 29.0101 150.61 29.2335 150.886 29.2335Z" fill="white"/>
<path d="M150.241 30.1699C150.556 30.1699 150.811 29.9143 150.811 29.5991C150.811 29.2839 150.556 29.0283 150.241 29.0283C149.925 29.0283 149.67 29.2839 149.67 29.5991C149.67 29.9143 149.925 30.1699 150.241 30.1699Z" fill="#C9C5BD"/>
<path d="M150.282 30.0265C150.558 30.0265 150.781 29.803 150.781 29.5274C150.781 29.2518 150.558 29.0283 150.282 29.0283C150.007 29.0283 149.783 29.2518 149.783 29.5274C149.783 29.803 150.007 30.0265 150.282 30.0265Z" fill="white"/>
<path d="M149.496 30.8818C149.811 30.8818 150.066 30.6262 150.066 30.311C150.066 29.9958 149.811 29.7402 149.496 29.7402C149.18 29.7402 148.925 29.9958 148.925 30.311C148.925 30.6262 149.18 30.8818 149.496 30.8818Z" fill="#C9C5BD"/>
<path d="M149.536 30.7384C149.812 30.7384 150.035 30.515 150.035 30.2393C150.035 29.9637 149.812 29.7402 149.536 29.7402C149.261 29.7402 149.037 29.9637 149.037 30.2393C149.037 30.515 149.261 30.7384 149.536 30.7384Z" fill="white"/>
<path d="M148.63 31.2705C148.946 31.2705 149.201 31.0149 149.201 30.6997C149.201 30.3845 148.946 30.1289 148.63 30.1289C148.315 30.1289 148.06 30.3845 148.06 30.6997C148.06 31.0149 148.315 31.2705 148.63 31.2705Z" fill="#C9C5BD"/>
<path d="M148.672 31.1241C148.948 31.1241 149.171 30.9007 149.171 30.6251C149.171 30.3494 148.948 30.126 148.672 30.126C148.396 30.126 148.173 30.3494 148.173 30.6251C148.173 30.9007 148.396 31.1241 148.672 31.1241Z" fill="white"/>
<path d="M147.574 31.1962C147.889 31.1962 148.144 30.9407 148.144 30.6255C148.144 30.3102 147.889 30.0547 147.574 30.0547C147.258 30.0547 147.003 30.3102 147.003 30.6255C147.003 30.9407 147.258 31.1962 147.574 31.1962Z" fill="#C9C5BD"/>
<path d="M147.615 31.0529C147.891 31.0529 148.114 30.8294 148.114 30.5538C148.114 30.2781 147.891 30.0547 147.615 30.0547C147.34 30.0547 147.116 30.2781 147.116 30.5538C147.116 30.8294 147.34 31.0529 147.615 31.0529Z" fill="white"/>
<path d="M146.665 30.6269C146.98 30.6269 147.235 30.3714 147.235 30.0561C147.235 29.7409 146.98 29.4854 146.665 29.4854C146.349 29.4854 146.094 29.7409 146.094 30.0561C146.094 30.3714 146.349 30.6269 146.665 30.6269Z" fill="#C9C5BD"/>
<path d="M146.708 30.4835C146.984 30.4835 147.207 30.2601 147.207 29.9844C147.207 29.7088 146.984 29.4854 146.708 29.4854C146.432 29.4854 146.209 29.7088 146.209 29.9844C146.209 30.2601 146.432 30.4835 146.708 30.4835Z" fill="white"/>
<path d="M145.897 29.9492C146.212 29.9492 146.468 29.6936 146.468 29.3784C146.468 29.0632 146.212 28.8076 145.897 28.8076C145.582 28.8076 145.326 29.0632 145.326 29.3784C145.326 29.6936 145.582 29.9492 145.897 29.9492Z" fill="#C9C5BD"/>
<path d="M145.939 29.8038C146.214 29.8038 146.438 29.5804 146.438 29.3047C146.438 29.0291 146.214 28.8057 145.939 28.8057C145.663 28.8057 145.439 29.0291 145.439 29.3047C145.439 29.5804 145.663 29.8038 145.939 29.8038Z" fill="white"/>
<path d="M145.327 29.1269C145.642 29.1269 145.897 28.8714 145.897 28.5561C145.897 28.2409 145.642 27.9854 145.327 27.9854C145.011 27.9854 144.756 28.2409 144.756 28.5561C144.756 28.8714 145.011 29.1269 145.327 29.1269Z" fill="#C9C5BD"/>
<path d="M145.368 28.9835C145.644 28.9835 145.867 28.7601 145.867 28.4844C145.867 28.2088 145.644 27.9854 145.368 27.9854C145.093 27.9854 144.869 28.2088 144.869 28.4844C144.869 28.7601 145.093 28.9835 145.368 28.9835Z" fill="white"/>
<path d="M144.869 28.288C145.184 28.288 145.439 28.0325 145.439 27.7173C145.439 27.402 145.184 27.1465 144.869 27.1465C144.553 27.1465 144.298 27.402 144.298 27.7173C144.298 28.0325 144.553 28.288 144.869 28.288Z" fill="#C9C5BD"/>
<path d="M144.91 28.1447C145.186 28.1447 145.409 27.9212 145.409 27.6456C145.409 27.3699 145.186 27.1465 144.91 27.1465C144.635 27.1465 144.411 27.3699 144.411 27.6456C144.411 27.9212 144.635 28.1447 144.91 28.1447Z" fill="white"/>
<path d="M144.378 27.5498C144.694 27.5498 144.949 27.2942 144.949 26.979C144.949 26.6637 144.694 26.4082 144.378 26.4082C144.063 26.4082 143.808 26.6637 143.808 26.979C143.808 27.2942 144.063 27.5498 144.378 27.5498Z" fill="#C9C5BD"/>
<path d="M144.419 27.4064C144.695 27.4064 144.918 27.1829 144.918 26.9073C144.918 26.6317 144.695 26.4082 144.419 26.4082C144.143 26.4082 143.92 26.6317 143.92 26.9073C143.92 27.1829 144.143 27.4064 144.419 27.4064Z" fill="white"/>
<path d="M143.878 26.7236C144.194 26.7236 144.449 26.468 144.449 26.1528C144.449 25.8376 144.194 25.582 143.878 25.582C143.563 25.582 143.308 25.8376 143.308 26.1528C143.308 26.468 143.563 26.7236 143.878 26.7236Z" fill="#C9C5BD"/>
<path d="M143.921 26.5792C144.197 26.5792 144.42 26.3558 144.42 26.0801C144.42 25.8045 144.197 25.5811 143.921 25.5811C143.645 25.5811 143.422 25.8045 143.422 26.0801C143.422 26.3558 143.645 26.5792 143.921 26.5792Z" fill="white"/>
<path d="M143.264 25.9746C143.579 25.9746 143.835 25.719 143.835 25.4038C143.835 25.0886 143.579 24.833 143.264 24.833C142.949 24.833 142.693 25.0886 142.693 25.4038C142.693 25.719 142.949 25.9746 143.264 25.9746Z" fill="#C9C5BD"/>
<path d="M143.308 25.8273C143.583 25.8273 143.807 25.6038 143.807 25.3282C143.807 25.0525 143.583 24.8291 143.308 24.8291C143.032 24.8291 142.809 25.0525 142.809 25.3282C142.809 25.6038 143.032 25.8273 143.308 25.8273Z" fill="white"/>
<path d="M158.481 20.6832V20.7025H138.275C138.275 17.9645 139.905 13.9911 142.643 13.9856L153.173 11.5039C155.917 11.4846 158.481 17.9369 158.481 20.6832Z" fill="#ED8A29"/>
<path d="M141.769 20.3306C141.142 20.3306 140.541 20.0818 140.097 19.6387C139.654 19.1956 139.404 18.5945 139.403 17.9676C139.404 17.3406 139.654 16.7395 140.097 16.2965C140.541 15.8534 141.142 15.6045 141.769 15.6045C142.396 15.6045 142.997 15.8535 143.44 16.2966C143.883 16.7398 144.132 17.3408 144.132 17.9676C144.132 18.5943 143.883 19.1953 143.44 19.6385C142.997 20.0817 142.396 20.3306 141.769 20.3306Z" fill="#EFB19E"/>
<path d="M140.424 20.5517C140.74 20.5517 140.995 20.2962 140.995 19.9809C140.995 19.6657 140.74 19.4102 140.424 19.4102C140.109 19.4102 139.854 19.6657 139.854 19.9809C139.854 20.2962 140.109 20.5517 140.424 20.5517Z" fill="#C49318"/>
<path d="M140.468 20.4083C140.743 20.4083 140.967 20.1849 140.967 19.9092C140.967 19.6336 140.743 19.4102 140.468 19.4102C140.192 19.4102 139.969 19.6336 139.969 19.9092C139.969 20.1849 140.192 20.4083 140.468 20.4083Z" fill="#EDB61B"/>
<path d="M148.167 24.7259C143.891 24.7259 140.425 21.6928 140.425 17.9704C140.425 14.2479 143.891 11.2148 148.167 11.2148C152.444 11.2148 155.907 14.2479 155.907 17.9704C155.907 21.6928 152.441 24.7259 148.167 24.7259Z" fill="#EFB19E"/>
<path d="M148.489 21.1566C148.382 21.1731 148.275 21.1869 148.166 21.198C147.742 21.2393 147.314 21.2393 146.89 21.198C146.749 21.198 146.614 21.1676 146.473 21.1483C144.957 20.9084 144.171 21.4847 145.045 21.8928C145.819 22.2045 146.645 22.37 147.48 22.3809C148.315 22.3702 149.142 22.2047 149.917 21.8928C150.791 21.4985 150.006 20.9222 148.489 21.1566Z" fill="#E28E74"/>
<path d="M153.459 17.9709C153.457 17.5256 153.558 17.0857 153.754 16.686C153.927 16.326 154.2 16.0234 154.54 15.8147C154.847 15.6359 155.209 15.5751 155.557 15.6437C155.926 15.724 156.257 15.9249 156.498 16.2145C156.774 16.5408 156.964 16.9315 157.049 17.3505C157.143 17.792 157.138 18.2489 157.033 18.6878C156.935 19.0983 156.736 19.4777 156.454 19.7908C156.204 20.069 155.868 20.2547 155.5 20.3175C155.428 20.3284 155.356 20.334 155.284 20.334C155.165 20.3329 155.045 20.3181 154.929 20.2899C154.484 20.1585 154.105 19.8628 153.87 19.4627C153.597 19.0131 153.455 18.4966 153.459 17.9709Z" fill="#EFB19E"/>
<path d="M156.505 18.8509C156.628 18.5683 156.689 18.2628 156.684 17.9548C156.685 17.6459 156.62 17.3404 156.494 17.0586C156.382 16.802 156.206 16.5781 155.984 16.4079C155.784 16.2551 155.54 16.1709 155.289 16.168C155.289 16.168 156.916 16.7029 156.505 18.8509Z" fill="#BC6A4F"/>
<path d="M152.386 22.1484C152.65 21.9898 152.878 21.7775 153.056 21.5252C153.234 21.2778 153.359 20.9961 153.423 20.698C153.481 20.4239 153.47 20.1394 153.389 19.8708C153.315 19.6315 153.166 19.422 152.965 19.2725C152.965 19.2725 153.971 20.6429 152.386 22.1484Z" fill="#BC6A4F"/>
<path d="M143.264 22.0422C142.97 21.9477 142.7 21.7927 142.47 21.5872C142.237 21.3844 142.05 21.1356 141.918 20.8565C141.802 20.6059 141.751 20.3299 141.769 20.0541C141.785 19.8032 141.882 19.5642 142.045 19.373C142.045 19.373 141.375 20.942 143.264 22.0422Z" fill="#BC6A4F"/>
<path d="M145.409 21.3994C145.801 21.7027 146.581 21.9095 147.48 21.9095C148.379 21.9095 149.159 21.7027 149.554 21.3994C149.554 21.3994 147.472 22.177 145.409 21.3994Z" fill="#BC6A4F"/>
<path d="M140.446 33.8412C140.446 33.8412 140.912 35.9092 140.901 35.8651C141.061 35.7626 141.231 35.6775 141.409 35.6114C141.356 35.0296 141.264 34.4519 141.133 33.8826C140.972 33.8083 140.803 33.7546 140.628 33.7226C140.628 33.7226 141.26 32.3439 141.122 29.8623C141.077 31.2129 140.849 32.5513 140.446 33.8412Z" fill="#373684"/>
<path d="M134.761 36.0153C134.761 36.0153 134.435 34.7165 134.548 33.8342C134.548 33.8342 138.877 33.4344 141.025 33.9335C141.025 33.9335 141.337 35.4114 141.224 36.0153H134.761Z" fill="#FAF3ED"/>
<path d="M140.446 33.8406C138.874 33.6117 136.638 33.7055 135.419 33.7827V33.5538C135.419 33.5538 139.354 33.4408 140.446 33.8406Z" fill="#373684"/>
<path d="M156.312 34.1799C156.312 34.1799 155.846 36.2452 155.857 36.2038C155.868 36.1624 155.35 35.9474 155.35 35.9474C155.404 35.3657 155.496 34.7882 155.625 34.2185C155.787 34.1444 155.958 34.0906 156.133 34.0586C156.133 34.0586 155.499 32.6799 155.639 30.1982C155.683 31.5498 155.909 32.8891 156.312 34.1799Z" fill="#373684"/>
<path d="M161.998 36.366C161.998 36.366 162.326 35.07 162.213 34.1849C162.213 34.1849 157.881 33.7878 155.733 34.2869C155.733 34.2869 155.422 35.7621 155.538 36.366H161.998Z" fill="#FAF3ED"/>
<path d="M156.312 34.179C157.883 33.9501 160.172 34.0439 161.377 34.1239L161.36 33.9033C161.36 33.9033 157.406 33.793 156.312 34.179Z" fill="#373684"/>
<path d="M149.413 18.0611C149.413 18.5408 149.802 18.9297 150.282 18.9297C150.762 18.9297 151.15 18.5408 151.15 18.0611C151.15 17.5814 150.762 17.1925 150.282 17.1925C149.802 17.1925 149.413 17.5814 149.413 18.0611Z" fill="#1D1D1B"/>
<path d="M143.255 18.0611C143.255 18.5408 143.644 18.9297 144.124 18.9297C144.603 18.9297 144.992 18.5408 144.992 18.0611C144.992 17.5814 144.603 17.1925 144.124 17.1925C143.644 17.1925 143.255 17.5814 143.255 18.0611Z" fill="#1D1D1B"/>
<path d="M155.419 15.6065C155.552 15.3086 155.617 14.985 155.61 14.6588C155.603 14.3327 155.524 14.0122 155.378 13.7205C155.236 13.3688 155.119 13.0076 155.027 12.6396C154.849 12.1143 154.568 11.6297 154.2 11.214C153.343 10.0669 151.393 10.0835 150.913 10.293L150.552 10.4585C150.412 10.5247 150.276 10.4392 150.169 10.3372C149.863 10.078 149.799 9.97318 149.022 9.84634C148.33 9.73329 147.947 9.84635 147.737 10.0449C147.639 10.1369 147.513 10.1944 147.379 10.2088C147.246 10.2232 147.111 10.1938 146.995 10.1248L146.921 10.0807C146.171 9.64473 145.281 9.51811 144.439 9.72778C141.478 10.4502 139.812 14.3298 140.212 15.1929C140.301 15.3888 140.43 15.5638 140.591 15.7063C140.752 15.8489 140.942 15.9558 141.147 16.0201C141.698 16.1883 142.01 13.0449 145.426 13.6129C145.426 13.6129 145.647 14.567 146.979 15.0302C148.31 15.4934 149.761 13.6708 149.761 13.6708C149.761 13.6708 149.645 14.8427 151.459 15.601C152.732 16.0966 154.145 16.0986 155.419 15.6065Z" fill="#ED8A29"/>
<path d="M146.937 15.1335C146.29 14.9403 145.74 14.5073 145.401 13.923C145.062 13.2915 145.04 12.514 145.34 11.6123L145.536 11.6785C145.26 12.5222 145.26 13.2447 145.583 13.8265C145.899 14.356 146.4 14.7492 146.989 14.9294L146.937 15.1335Z" fill="#1D1D1B"/>
<path d="M151.421 15.7069C150.775 15.513 150.227 15.0814 149.887 14.4992C149.546 13.865 149.526 13.0874 149.827 12.1885L150.023 12.2519C149.747 13.0957 149.747 13.8181 150.069 14.3971C150.384 14.9261 150.884 15.3192 151.473 15.5001L151.421 15.7069Z" fill="#1D1D1B"/>
<path d="M155.744 20.5517C156.059 20.5517 156.314 20.2962 156.314 19.9809C156.314 19.6657 156.059 19.4102 155.744 19.4102C155.428 19.4102 155.173 19.6657 155.173 19.9809C155.173 20.2962 155.428 20.5517 155.744 20.5517Z" fill="#C49318"/>
<path d="M155.788 20.4083C156.064 20.4083 156.287 20.1849 156.287 19.9092C156.287 19.6336 156.064 19.4102 155.788 19.4102C155.513 19.4102 155.289 19.6336 155.289 19.9092C155.289 20.1849 155.513 20.4083 155.788 20.4083Z" fill="#EDB61B"/>
<path opacity="0.6" d="M140.898 20.3008C140.898 20.3008 140.677 19.7328 140.622 19.4405C140.622 19.4405 140.622 19.4102 140.438 19.4102C140.469 19.7761 140.582 20.1304 140.768 20.4469C140.82 20.4066 140.864 20.3571 140.898 20.3008Z" fill="#C49318"/>
<path opacity="0.6" d="M153.732 23.2402C153.732 23.2402 150.357 28.2366 150.387 35.8193H151.085V34.9921L153.732 23.2402Z" fill="#373684"/>
<path opacity="0.6" d="M142.522 23.0879C142.522 23.0879 145.897 28.0842 145.867 35.667H145.17V34.8398L142.522 23.0879Z" fill="#373684"/>
<path d="M155.281 20.9434L156.354 24.3818L154.052 27.4397L153.872 31.3442L151.3 35.221L151.325 34.2284C151.449 29.4168 152.651 24.9801 155.27 20.9434H155.281Z" fill="#373684"/>
<path d="M155.305 20.4541L156.377 23.8953L154.072 27.2041L153.896 31.1113L151.083 34.9882L151.108 33.9928C151.233 29.1811 152.685 24.4976 155.305 20.4596V20.4541Z" fill="#FAF3ED"/>
<path d="M141.047 20.9385L139.975 24.3797L142.28 27.4348L142.456 31.3393L145.021 35.2161L144.993 34.2235C144.872 29.4119 143.667 24.978 141.047 20.9385Z" fill="#373684"/>
<path d="M141.014 20.4492L139.941 23.8904L142.244 27.1992L142.423 31.1037L145.233 34.9805L145.208 33.9879C145.085 29.1756 143.633 24.491 141.014 20.452V20.4492Z" fill="#FAF3ED"/>
<path d="M142.164 17.8494C142.31 17.567 142.505 17.313 142.74 17.0994C142.975 16.8728 143.258 16.7022 143.568 16.6003C143.896 16.5033 144.25 16.5369 144.555 16.694C144.84 16.8514 145.072 17.0893 145.222 17.3779C145.002 17.1723 144.747 17.0071 144.469 16.8898C144.203 16.7935 143.913 16.7848 143.642 16.865C143.363 16.9553 143.1 17.0903 142.864 17.2648C142.62 17.4458 142.386 17.641 142.164 17.8494Z" fill="#1D1D1B"/>
<path d="M152.494 17.8494C152.268 17.6406 152.031 17.4454 151.782 17.2648C151.547 17.0903 151.284 16.9553 151.005 16.865C150.733 16.7848 150.444 16.7935 150.178 16.8898C149.9 17.0071 149.645 17.1723 149.425 17.3779C149.575 17.0893 149.807 16.8514 150.092 16.694C150.397 16.5369 150.75 16.5033 151.079 16.6003C151.389 16.7022 151.672 16.8728 151.906 17.0994C152.146 17.312 152.345 17.5661 152.494 17.8494Z" fill="#1D1D1B"/>
</g>
<defs>
<clipPath id="clip0_622_1735">
<rect width="7.99637" height="3.58458" fill="white" transform="translate(163.71 39.8955) rotate(-180)"/>
</clipPath>
<clipPath id="clip1_622_1735">
<rect width="7.99637" height="3.58458" fill="white" transform="translate(140.824 39.6211) rotate(-180)"/>
</clipPath>
</defs>
</svg>
