<svg width="188" height="48" viewBox="0 0 188 48" fill="none" xmlns="http://www.w3.org/2000/svg">
<rect width="187.2" height="48" fill="#46A882"/>
<mask id="mask0_672_8" style="mask-type:alpha" maskUnits="userSpaceOnUse" x="146" y="7" width="33" height="34">
<circle cx="162.062" cy="24.004" r="15.5617" fill="#A27474" stroke="black"/>
</mask>
<g mask="url(#mask0_672_8)">
<path d="M168.274 20.6881H168.374C171.429 20.7856 173.607 21.1561 173.913 22.7906C175.146 29.3354 175.632 38.3075 175.632 38.3075L162.452 42.2818H161.896L149.324 38.3075C149.324 38.3075 149.719 24.214 150.541 22.7906C151.096 21.8547 153.041 20.7824 156.074 20.6816H168.296L168.274 20.6881Z" fill="#5154A1"/>
<path d="M157.101 24.8301C157.101 24.8301 162.418 28.8704 167.158 24.8301C167.158 24.8301 164.943 39.2108 165.25 40.9416H159.374L157.101 24.8301Z" fill="#373684"/>
<g clip-path="url(#clip0_672_8)">
<path d="M177.848 36.4646C177.848 36.4646 177.756 39.6258 176.612 38.6228C176.612 38.6228 176.034 40.202 175.337 38.9811C175.337 38.9811 174.667 40.7721 174.075 38.9094C174.075 38.9094 173.299 41.2408 172.512 38.6945C172.512 38.6945 170.014 42.9483 169.817 36.4646L177.848 36.4646Z" fill="#EFB19E"/>
<path d="M176.918 36.4648C176.918 37.2639 176.808 38.0342 176.61 38.623C176.61 38.623 177.01 37.9962 176.918 36.4648Z" fill="#BC6A4F"/>
<path d="M175.538 36.464C175.6 38.2223 175.336 38.9805 175.336 38.9805C175.336 38.9805 175.736 38.3387 175.538 36.464Z" fill="#BC6A4F"/>
<path d="M174.383 36.4644C174.365 37.3412 174.258 38.1871 174.075 38.9092C174.193 38.5971 174.283 38.2129 174.337 37.7879C174.39 37.363 174.406 36.9094 174.383 36.4644Z" fill="#BC6A4F"/>
<path d="M172.213 37.2854C172.272 37.8106 172.374 38.2924 172.511 38.6943C172.419 38.5557 172.342 38.3512 172.29 38.1029C172.238 37.8546 172.211 37.5719 172.213 37.2854Z" fill="#BC6A4F"/>
</g>
<g clip-path="url(#clip1_672_8)">
<path d="M154.863 36.1902C154.863 36.1902 154.771 39.3514 153.628 38.3484C153.628 38.3484 153.049 39.9275 152.352 38.7066C152.352 38.7066 151.683 40.4977 151.091 38.635C151.091 38.635 150.315 40.9664 149.527 38.4201C149.527 38.4201 147.029 42.6738 146.832 36.1902L154.863 36.1902Z" fill="#EFB19E"/>
<path d="M153.934 36.1904C153.934 36.9895 153.824 37.7598 153.626 38.3486C153.626 38.3486 154.025 37.7218 153.934 36.1904Z" fill="#BC6A4F"/>
<path d="M152.553 36.1896C152.616 37.9478 152.352 38.7061 152.352 38.7061C152.352 38.7061 152.751 38.0643 152.553 36.1896Z" fill="#BC6A4F"/>
<path d="M151.399 36.19C151.38 37.0668 151.274 37.9127 151.09 38.6348C151.209 38.3227 151.299 37.9385 151.352 37.5135C151.406 37.0886 151.422 36.635 151.399 36.19Z" fill="#BC6A4F"/>
<path d="M149.229 37.011C149.287 37.5362 149.389 38.018 149.526 38.4199C149.434 38.2813 149.358 38.0768 149.306 37.8285C149.253 37.5802 149.227 37.2975 149.229 37.011Z" fill="#BC6A4F"/>
</g>
<path d="M162.182 35.8095L162.185 26.6211L161.88 35.8206L162.182 35.8095Z" fill="#2C2C6B"/>
<path d="M167.159 25.9004C167.476 25.9004 167.732 25.6437 167.732 25.3271C167.732 25.0106 167.476 24.7539 167.159 24.7539C166.843 24.7539 166.586 25.0106 166.586 25.3271C166.586 25.6437 166.843 25.9004 167.159 25.9004Z" fill="#C9C5BD"/>
<path d="M167.2 25.7554C167.477 25.7554 167.702 25.531 167.702 25.2542C167.702 24.9773 167.477 24.7529 167.2 24.7529C166.924 24.7529 166.699 24.9773 166.699 25.2542C166.699 25.531 166.924 25.7554 167.2 25.7554Z" fill="white"/>
<path d="M166.474 26.7295C166.79 26.7295 167.047 26.4728 167.047 26.1562C167.047 25.8397 166.79 25.583 166.474 25.583C166.157 25.583 165.9 25.8397 165.9 26.1562C165.9 26.4728 166.157 26.7295 166.474 26.7295Z" fill="#C9C5BD"/>
<path d="M166.516 26.5855C166.793 26.5855 167.017 26.3611 167.017 26.0842C167.017 25.8074 166.793 25.583 166.516 25.583C166.239 25.583 166.015 25.8074 166.015 26.0842C166.015 26.3611 166.239 26.5855 166.516 26.5855Z" fill="white"/>
<path d="M165.901 27.6474C166.218 27.6474 166.475 27.3908 166.475 27.0742C166.475 26.7576 166.218 26.501 165.901 26.501C165.585 26.501 165.328 26.7576 165.328 27.0742C165.328 27.3908 165.585 27.6474 165.901 27.6474Z" fill="#C9C5BD"/>
<path d="M165.943 27.4986C166.219 27.4986 166.444 27.2742 166.444 26.9973C166.444 26.7205 166.219 26.4961 165.943 26.4961C165.666 26.4961 165.441 26.7205 165.441 26.9973C165.441 27.2742 165.666 27.4986 165.943 27.4986Z" fill="white"/>
<path d="M165.499 28.6289C165.816 28.6289 166.072 28.3722 166.072 28.0557C166.072 27.7391 165.816 27.4824 165.499 27.4824C165.182 27.4824 164.926 27.7391 164.926 28.0557C164.926 28.3722 165.182 28.6289 165.499 28.6289Z" fill="#DDD5C5"/>
<path d="M165.54 28.4849C165.817 28.4849 166.042 28.2605 166.042 27.9837C166.042 27.7068 165.817 27.4824 165.54 27.4824C165.263 27.4824 165.039 27.7068 165.039 27.9837C165.039 28.2605 165.263 28.4849 165.54 28.4849Z" fill="white"/>
<path d="M164.927 29.5019C165.243 29.5019 165.5 29.2453 165.5 28.9287C165.5 28.6121 165.243 28.3555 164.927 28.3555C164.61 28.3555 164.354 28.6121 164.354 28.9287C164.354 29.2453 164.61 29.5019 164.927 29.5019Z" fill="#C9C5BD"/>
<path d="M164.968 29.357C165.245 29.357 165.469 29.1326 165.469 28.8557C165.469 28.5789 165.245 28.3545 164.968 28.3545C164.691 28.3545 164.467 28.5789 164.467 28.8557C164.467 29.1326 164.691 29.357 164.968 29.357Z" fill="white"/>
<path d="M164.32 30.2978C164.637 30.2978 164.894 30.0412 164.894 29.7246C164.894 29.408 164.637 29.1514 164.32 29.1514C164.004 29.1514 163.747 29.408 163.747 29.7246C163.747 30.0412 164.004 30.2978 164.32 30.2978Z" fill="#C9C5BD"/>
<path d="M164.362 30.1538C164.638 30.1538 164.863 29.9294 164.863 29.6526C164.863 29.3758 164.638 29.1514 164.362 29.1514C164.085 29.1514 163.86 29.3758 163.86 29.6526C163.86 29.9294 164.085 30.1538 164.362 30.1538Z" fill="white"/>
<path d="M163.572 31.0117C163.889 31.0117 164.145 30.7551 164.145 30.4385C164.145 30.1219 163.889 29.8652 163.572 29.8652C163.256 29.8652 162.999 30.1219 162.999 30.4385C162.999 30.7551 163.256 31.0117 163.572 31.0117Z" fill="#C9C5BD"/>
<path d="M163.613 30.8677C163.889 30.8677 164.114 30.6433 164.114 30.3665C164.114 30.0896 163.889 29.8652 163.613 29.8652C163.336 29.8652 163.111 30.0896 163.111 30.3665C163.111 30.6433 163.336 30.8677 163.613 30.8677Z" fill="white"/>
<path d="M162.702 31.4033C163.019 31.4033 163.275 31.1467 163.275 30.8301C163.275 30.5135 163.019 30.2568 162.702 30.2568C162.386 30.2568 162.129 30.5135 162.129 30.8301C162.129 31.1467 162.386 31.4033 162.702 31.4033Z" fill="#C9C5BD"/>
<path d="M162.744 31.2574C163.021 31.2574 163.246 31.0329 163.246 30.7561C163.246 30.4793 163.021 30.2549 162.744 30.2549C162.468 30.2549 162.243 30.4793 162.243 30.7561C162.243 31.0329 162.468 31.2574 162.744 31.2574Z" fill="white"/>
<path d="M161.642 31.3271C161.958 31.3271 162.215 31.0705 162.215 30.7539C162.215 30.4373 161.958 30.1807 161.642 30.1807C161.325 30.1807 161.068 30.4373 161.068 30.7539C161.068 31.0705 161.325 31.3271 161.642 31.3271Z" fill="#C9C5BD"/>
<path d="M161.684 31.1831C161.961 31.1831 162.185 30.9587 162.185 30.6819C162.185 30.4051 161.961 30.1807 161.684 30.1807C161.407 30.1807 161.183 30.4051 161.183 30.6819C161.183 30.9587 161.407 31.1831 161.684 31.1831Z" fill="white"/>
<path d="M160.729 30.7558C161.045 30.7558 161.302 30.4992 161.302 30.1826C161.302 29.866 161.045 29.6094 160.729 29.6094C160.412 29.6094 160.155 29.866 160.155 30.1826C160.155 30.4992 160.412 30.7558 160.729 30.7558Z" fill="#C9C5BD"/>
<path d="M160.773 30.6118C161.05 30.6118 161.274 30.3874 161.274 30.1106C161.274 29.8338 161.05 29.6094 160.773 29.6094C160.496 29.6094 160.271 29.8338 160.271 30.1106C160.271 30.3874 160.496 30.6118 160.773 30.6118Z" fill="white"/>
<path d="M159.958 30.0762C160.275 30.0762 160.531 29.8195 160.531 29.5029C160.531 29.1863 160.275 28.9297 159.958 28.9297C159.641 28.9297 159.385 29.1863 159.385 29.5029C159.385 29.8195 159.641 30.0762 159.958 30.0762Z" fill="#C9C5BD"/>
<path d="M160 29.9292C160.277 29.9292 160.501 29.7048 160.501 29.428C160.501 29.1512 160.277 28.9268 160 28.9268C159.723 28.9268 159.499 29.1512 159.499 29.428C159.499 29.7048 159.723 29.9292 160 29.9292Z" fill="white"/>
<path d="M159.385 29.25C159.701 29.25 159.958 28.9933 159.958 28.6768C159.958 28.3602 159.701 28.1035 159.385 28.1035C159.068 28.1035 158.812 28.3602 158.812 28.6768C158.812 28.9933 159.068 29.25 159.385 29.25Z" fill="#C9C5BD"/>
<path d="M159.427 29.106C159.704 29.106 159.928 28.8816 159.928 28.6048C159.928 28.3279 159.704 28.1035 159.427 28.1035C159.15 28.1035 158.926 28.3279 158.926 28.6048C158.926 28.8816 159.15 29.106 159.427 29.106Z" fill="white"/>
<path d="M158.926 28.4072C159.242 28.4072 159.499 28.1506 159.499 27.834C159.499 27.5174 159.242 27.2607 158.926 27.2607C158.609 27.2607 158.353 27.5174 158.353 27.834C158.353 28.1506 158.609 28.4072 158.926 28.4072Z" fill="#C9C5BD"/>
<path d="M158.967 28.2632C159.244 28.2632 159.468 28.0388 159.468 27.762C159.468 27.4852 159.244 27.2607 158.967 27.2607C158.69 27.2607 158.466 27.4852 158.466 27.762C158.466 28.0388 158.69 28.2632 158.967 28.2632Z" fill="white"/>
<path d="M158.433 27.667C158.749 27.667 159.006 27.4103 159.006 27.0937C159.006 26.7772 158.749 26.5205 158.433 26.5205C158.116 26.5205 157.859 26.7772 157.859 27.0937C157.859 27.4103 158.116 27.667 158.433 27.667Z" fill="#C9C5BD"/>
<path d="M158.474 27.523C158.751 27.523 158.975 27.2986 158.975 27.0217C158.975 26.7449 158.751 26.5205 158.474 26.5205C158.197 26.5205 157.973 26.7449 157.973 27.0217C157.973 27.2986 158.197 27.523 158.474 27.523Z" fill="white"/>
<path d="M157.931 26.8369C158.247 26.8369 158.504 26.5803 158.504 26.2637C158.504 25.9471 158.247 25.6904 157.931 25.6904C157.614 25.6904 157.357 25.9471 157.357 26.2637C157.357 26.5803 157.614 26.8369 157.931 26.8369Z" fill="#C9C5BD"/>
<path d="M157.973 26.6919C158.25 26.6919 158.474 26.4675 158.474 26.1907C158.474 25.9139 158.25 25.6895 157.973 25.6895C157.696 25.6895 157.472 25.9139 157.472 26.1907C157.472 26.4675 157.696 26.6919 157.973 26.6919Z" fill="white"/>
<path d="M157.313 26.0849C157.63 26.0849 157.887 25.8283 157.887 25.5117C157.887 25.1951 157.63 24.9385 157.313 24.9385C156.997 24.9385 156.74 25.1951 156.74 25.5117C156.74 25.8283 156.997 26.0849 157.313 26.0849Z" fill="#C9C5BD"/>
<path d="M157.358 25.9361C157.635 25.9361 157.859 25.7117 157.859 25.4348C157.859 25.158 157.635 24.9336 157.358 24.9336C157.081 24.9336 156.856 25.158 156.856 25.4348C156.856 25.7117 157.081 25.9361 157.358 25.9361Z" fill="white"/>
<path d="M172.597 20.7687V20.7881H152.304C152.304 18.0382 153.94 14.0477 156.69 14.0422L167.266 11.5498C170.021 11.5305 172.597 18.0105 172.597 20.7687Z" fill="#ED8A29"/>
<path d="M155.812 20.4154C155.182 20.4154 154.578 20.1655 154.132 19.7205C153.687 19.2755 153.436 18.6719 153.436 18.0422C153.436 17.4125 153.687 16.8089 154.132 16.3639C154.578 15.9189 155.182 15.6689 155.812 15.6689C156.441 15.6689 157.045 15.919 157.49 16.3641C157.935 16.8091 158.185 17.4128 158.185 18.0422C158.185 18.6716 157.935 19.2753 157.49 19.7203C157.045 20.1654 156.441 20.4154 155.812 20.4154Z" fill="#EFB19E"/>
<path d="M154.461 20.6387C154.778 20.6387 155.034 20.382 155.034 20.0654C155.034 19.7488 154.778 19.4922 154.461 19.4922C154.144 19.4922 153.888 19.7488 153.888 20.0654C153.888 20.382 154.144 20.6387 154.461 20.6387Z" fill="#C49318"/>
<path d="M154.505 20.4947C154.782 20.4947 155.006 20.2702 155.006 19.9934C155.006 19.7166 154.782 19.4922 154.505 19.4922C154.228 19.4922 154.004 19.7166 154.004 19.9934C154.004 20.2702 154.228 20.4947 154.505 20.4947Z" fill="#EDB61B"/>
<path d="M162.238 24.8301C157.943 24.8301 154.462 21.7839 154.462 18.0454C154.462 14.3069 157.943 11.2607 162.238 11.2607C166.533 11.2607 170.011 14.3069 170.011 18.0454C170.011 21.7839 166.53 24.8301 162.238 24.8301Z" fill="#EFB19E"/>
<path d="M162.561 21.2467C162.454 21.2633 162.346 21.2772 162.237 21.2883C161.811 21.3298 161.381 21.3298 160.955 21.2883C160.814 21.2883 160.678 21.2578 160.537 21.2384C159.014 20.9975 158.224 21.5763 159.102 21.9861C159.88 22.2992 160.709 22.4654 161.548 22.4763C162.387 22.4655 163.217 22.2993 163.996 21.9861C164.873 21.5901 164.084 21.0113 162.561 21.2467Z" fill="#E28E74"/>
<path d="M167.553 18.0465C167.55 17.5992 167.652 17.1575 167.849 16.756C168.022 16.3945 168.297 16.0906 168.638 15.881C168.947 15.7014 169.31 15.6404 169.66 15.7093C170.03 15.7899 170.362 15.9916 170.605 16.2825C170.882 16.6102 171.073 17.0026 171.158 17.4234C171.253 17.8668 171.247 18.3256 171.142 18.7665C171.044 19.1788 170.844 19.5597 170.56 19.8742C170.31 20.1537 169.972 20.3401 169.602 20.4031C169.531 20.4142 169.458 20.4197 169.386 20.4198C169.266 20.4187 169.146 20.4038 169.029 20.3754C168.582 20.2435 168.202 19.9465 167.965 19.5447C167.692 19.0932 167.549 18.5745 167.553 18.0465Z" fill="#EFB19E"/>
<path d="M170.612 18.9289C170.735 18.645 170.796 18.3382 170.792 18.0289C170.793 17.7187 170.728 17.4119 170.601 17.1289C170.488 16.8712 170.312 16.6463 170.088 16.4753C169.888 16.3219 169.643 16.2374 169.391 16.2344C169.391 16.2344 171.024 16.7716 170.612 18.9289Z" fill="#BC6A4F"/>
<path d="M166.474 22.2409C166.739 22.0816 166.968 21.8684 167.147 21.615C167.325 21.3665 167.451 21.0837 167.515 20.7843C167.574 20.5089 167.562 20.2233 167.482 19.9535C167.407 19.7131 167.257 19.5027 167.055 19.3525C167.055 19.3525 168.066 20.7289 166.474 22.2409Z" fill="#BC6A4F"/>
<path d="M157.314 22.1357C157.019 22.0408 156.748 21.8852 156.517 21.6788C156.283 21.4751 156.095 21.2252 155.963 20.9449C155.846 20.6932 155.794 20.416 155.813 20.1391C155.829 19.8871 155.926 19.6471 156.09 19.4551C156.09 19.4551 155.417 21.0308 157.314 22.1357Z" fill="#BC6A4F"/>
<path d="M159.468 21.4893C159.861 21.7939 160.645 22.0016 161.547 22.0016C162.45 22.0016 163.234 21.7939 163.63 21.4893C163.63 21.4893 161.539 22.2702 159.468 21.4893Z" fill="#BC6A4F"/>
<path d="M154.483 33.9853C154.483 33.9853 154.951 36.0622 154.94 36.0179C155.101 35.915 155.271 35.8295 155.45 35.7631C155.397 35.1788 155.304 34.5987 155.173 34.0268C155.011 33.9523 154.841 33.8983 154.666 33.8662C154.666 33.8662 155.3 32.4816 155.162 29.9893C155.116 31.3457 154.888 32.6899 154.483 33.9853Z" fill="#373684"/>
<path d="M148.772 36.1689C148.772 36.1689 148.446 34.8645 148.559 33.9784C148.559 33.9784 152.907 33.5769 155.064 34.0781C155.064 34.0781 155.377 35.5624 155.263 36.1689H148.772Z" fill="#FAF3ED"/>
<path d="M154.484 33.9845C152.905 33.7546 150.66 33.8488 149.436 33.9263V33.6965C149.436 33.6965 153.387 33.5829 154.484 33.9845Z" fill="#373684"/>
<path d="M170.418 34.326C170.418 34.326 169.95 36.4001 169.961 36.3586C169.972 36.3171 169.451 36.1011 169.451 36.1011C169.506 35.5169 169.598 34.9369 169.728 34.3647C169.891 34.2903 170.062 34.2363 170.238 34.2041C170.238 34.2041 169.601 32.8195 169.742 30.3271C169.786 31.6845 170.013 33.0297 170.418 34.326Z" fill="#373684"/>
<path d="M176.129 36.5215C176.129 36.5215 176.458 35.22 176.345 34.331C176.345 34.331 171.994 33.9323 169.837 34.4335C169.837 34.4335 169.524 35.915 169.64 36.5215H176.129Z" fill="#FAF3ED"/>
<path d="M170.418 34.3238C171.996 34.094 174.295 34.1881 175.505 34.2684L175.488 34.0469C175.488 34.0469 171.517 33.9361 170.418 34.3238Z" fill="#373684"/>
<path d="M163.49 18.1365C163.49 18.6182 163.88 19.0088 164.362 19.0088C164.844 19.0088 165.234 18.6182 165.234 18.1365C165.234 17.6547 164.844 17.2642 164.362 17.2642C163.88 17.2642 163.49 17.6547 163.49 18.1365Z" fill="#1D1D1B"/>
<path d="M157.305 18.1365C157.305 18.6182 157.696 19.0088 158.177 19.0088C158.659 19.0088 159.05 18.6182 159.05 18.1365C159.05 17.6547 158.659 17.2642 158.177 17.2642C157.696 17.2642 157.305 17.6547 157.305 18.1365Z" fill="#1D1D1B"/>
<path d="M169.521 15.6713C169.654 15.3722 169.72 15.0471 169.713 14.7196C169.706 14.392 169.626 14.0702 169.479 13.7772C169.337 13.424 169.219 13.0612 169.128 12.6916C168.948 12.1641 168.666 11.6774 168.297 11.2599C167.436 10.1079 165.478 10.1245 164.996 10.335L164.633 10.5011C164.492 10.5676 164.356 10.4817 164.248 10.3793C163.941 10.119 163.877 10.0137 163.096 9.88634C162.401 9.7728 162.016 9.88635 161.806 10.0857C161.707 10.1781 161.581 10.2359 161.447 10.2504C161.312 10.2649 161.177 10.2353 161.061 10.166L160.986 10.1217C160.233 9.68386 159.339 9.5567 158.494 9.76727C155.52 10.4928 153.847 14.3892 154.248 15.2559C154.338 15.4527 154.467 15.6284 154.629 15.7716C154.791 15.9147 154.981 16.0221 155.187 16.0867C155.741 16.2556 156.054 13.0987 159.485 13.6692C159.485 13.6692 159.707 14.6273 161.044 15.0926C162.382 15.5578 163.838 13.7273 163.838 13.7273C163.838 13.7273 163.722 14.9042 165.544 15.6658C166.823 16.1636 168.241 16.1655 169.521 15.6713Z" fill="#ED8A29"/>
<path d="M161.002 15.1955C160.352 15.0015 159.8 14.5667 159.46 13.9798C159.119 13.3457 159.097 12.5647 159.399 11.6592L159.596 11.7256C159.319 12.573 159.319 13.2986 159.643 13.8829C159.96 14.4147 160.463 14.8096 161.055 14.9906L161.002 15.1955Z" fill="#1D1D1B"/>
<path d="M165.504 15.7719C164.856 15.5771 164.306 15.1436 163.965 14.5589C163.621 13.922 163.602 13.1411 163.904 12.2383L164.1 12.302C163.824 13.1494 163.824 13.8749 164.148 14.4565C164.464 14.9877 164.966 15.3825 165.557 15.5642L165.504 15.7719Z" fill="#1D1D1B"/>
<path d="M169.847 20.6387C170.163 20.6387 170.42 20.382 170.42 20.0654C170.42 19.7488 170.163 19.4922 169.847 19.4922C169.53 19.4922 169.273 19.7488 169.273 20.0654C169.273 20.382 169.53 20.6387 169.847 20.6387Z" fill="#C49318"/>
<path d="M169.892 20.4947C170.169 20.4947 170.393 20.2702 170.393 19.9934C170.393 19.7166 170.169 19.4922 169.892 19.4922C169.615 19.4922 169.391 19.7166 169.391 19.9934C169.391 20.2702 169.615 20.4947 169.892 20.4947Z" fill="#EDB61B"/>
<path opacity="0.6" d="M154.937 20.3867C154.937 20.3867 154.716 19.8162 154.66 19.5227C154.66 19.5227 154.66 19.4922 154.475 19.4922C154.506 19.8597 154.62 20.2156 154.807 20.5334C154.859 20.493 154.903 20.4432 154.937 20.3867Z" fill="#C49318"/>
<path opacity="0.6" d="M167.825 23.3379C167.825 23.3379 164.436 28.3558 164.466 35.9712H165.167V35.1404L167.825 23.3379Z" fill="#373684"/>
<path opacity="0.6" d="M156.568 23.1846C156.568 23.1846 159.958 28.2025 159.927 35.8179H159.227V34.9871L156.568 23.1846Z" fill="#373684"/>
<path d="M169.383 21.0312L170.46 24.4845L168.147 27.5556L167.967 31.4769L165.384 35.3704L165.409 34.3735C165.533 29.5412 166.741 25.0854 169.371 21.0312H169.383Z" fill="#373684"/>
<path d="M169.407 20.5391L170.484 23.9951L168.169 27.3182L167.992 31.2422L165.167 35.1358L165.192 34.1361C165.317 29.3037 166.776 24.6 169.407 20.5446V20.5391Z" fill="#FAF3ED"/>
<path d="M155.087 21.0264L154.01 24.4824L156.325 27.5507L156.502 31.472L159.078 35.3656L159.05 34.3686C158.928 29.5363 157.718 25.0833 155.087 21.0264Z" fill="#373684"/>
<path d="M155.054 20.5342L153.977 23.9902L156.289 27.3133L156.469 31.2346L159.291 35.1281L159.266 34.1312C159.142 29.2981 157.684 24.5934 155.054 20.537V20.5342Z" fill="#FAF3ED"/>
<path d="M156.209 17.9234C156.355 17.6397 156.551 17.3846 156.788 17.1701C157.023 16.9426 157.307 16.7712 157.619 16.6689C157.949 16.5715 158.304 16.6052 158.61 16.763C158.896 16.9211 159.129 17.16 159.28 17.4498C159.059 17.2433 158.803 17.0774 158.524 16.9597C158.257 16.863 157.966 16.8542 157.693 16.9347C157.413 17.0254 157.149 17.161 156.912 17.3363C156.667 17.518 156.432 17.714 156.209 17.9234Z" fill="#1D1D1B"/>
<path d="M166.582 17.9234C166.356 17.7137 166.117 17.5177 165.868 17.3363C165.631 17.161 165.367 17.0254 165.087 16.9347C164.814 16.8542 164.523 16.863 164.256 16.9597C163.977 17.0774 163.721 17.2433 163.5 17.4498C163.651 17.16 163.884 16.9211 164.17 16.763C164.476 16.6052 164.831 16.5715 165.162 16.6689C165.473 16.7712 165.757 16.9426 165.992 17.1701C166.233 17.3837 166.432 17.6388 166.582 17.9234Z" fill="#1D1D1B"/>
</g>
<defs>
<clipPath id="clip0_672_8">
<rect width="8.03083" height="3.60003" fill="white" transform="translate(177.848 40.0645) rotate(-180)"/>
</clipPath>
<clipPath id="clip1_672_8">
<rect width="8.03083" height="3.60003" fill="white" transform="translate(154.863 39.79) rotate(-180)"/>
</clipPath>
</defs>
</svg>
