<svg width="173" height="48" viewBox="0 0 173 48" fill="none" xmlns="http://www.w3.org/2000/svg">
<rect y="0.22168" width="172.8" height="47.6591" fill="#EC8989"/>
<mask id="mask0_622_1034" style="mask-type:alpha" maskUnits="userSpaceOnUse" x="132" y="2" width="38" height="38">
<path d="M169.068 21.4042C169.068 31.6403 160.77 39.9383 150.534 39.9383C140.298 39.9383 132 31.6403 132 21.4042C132 11.1681 140.298 2.87012 150.534 2.87012C160.77 2.87012 169.068 11.1681 169.068 21.4042Z" fill="#EC8989"/>
</mask>
<g mask="url(#mask0_622_1034)">
<path d="M134.746 37.2062C134.746 37.2062 133.154 23.1642 142.753 17.873L156.315 18.1606C156.315 18.1606 162.112 20.1433 162.89 36.8582L149.438 42.5852L134.746 37.2062Z" fill="#5154A1"/>
<path d="M156.081 17.7119C156.081 17.7119 152.973 21.6419 148.879 21.4547L149.68 24.4841C149.68 24.4841 156.174 20.5249 156.081 17.7119Z" fill="#373684"/>
<path d="M156.081 17.7119C156.081 17.7119 152.736 21.408 148.643 21.2208L149.432 24.2472C149.432 24.2472 155.339 21.098 156.081 17.7119Z" fill="#FAF3ED"/>
<path d="M147.613 21.001L146.984 24.0917C146.984 24.0917 143.402 20.0331 143.183 17.4336C143.18 17.4336 146.259 20.7934 147.613 21.001Z" fill="#373684"/>
<path d="M147.443 20.96L146.7 23.9514C146.7 23.9514 143.402 20.0302 143.191 17.4336C144.207 19.0228 145.693 20.2555 147.443 20.96Z" fill="#FAF3ED"/>
<path d="M148.555 22.619C148.555 22.619 149.216 30.2596 149.637 32.0052C150.058 33.7509 148.102 35.5551 147.985 36.1574H145.464C145.464 36.1574 144.256 33.9907 144.525 32.3561C144.794 30.7216 147.783 22.5225 147.783 22.5225L148.555 22.619Z" fill="#C7361A"/>
<path d="M148.423 22.5711C148.423 22.5711 149.084 30.2117 149.505 31.9574C149.926 33.7031 147.967 35.5072 147.85 36.1096H145.338C145.338 36.1096 144.127 33.9428 144.399 32.3083C144.671 30.6737 147.648 22.4717 147.648 22.4717L148.423 22.5711Z" fill="#E8461C"/>
<path d="M147.642 22.2888L148.002 21.9057C148.023 21.8825 148.049 21.8644 148.078 21.8531C148.107 21.8411 148.138 21.8361 148.169 21.8385C148.2 21.841 148.231 21.8499 148.259 21.8648C148.286 21.8796 148.309 21.9007 148.327 21.9262L148.698 22.4467C148.715 22.4689 148.727 22.4945 148.734 22.5216C148.74 22.5488 148.741 22.5771 148.736 22.6046C148.732 22.6321 148.723 22.6585 148.708 22.6822C148.693 22.7058 148.674 22.7262 148.651 22.742L148.131 23.1104C148.106 23.1285 148.077 23.1405 148.046 23.1455C148.015 23.1529 147.983 23.1529 147.952 23.1455C147.922 23.1368 147.894 23.1219 147.871 23.1017C147.846 23.081 147.827 23.055 147.815 23.0256L147.601 22.5198C147.59 22.4807 147.59 22.439 147.601 22.3999C147.604 22.3596 147.618 22.321 147.642 22.2888Z" fill="#C7361A"/>
<path d="M147.575 22.2644L147.923 21.8931C147.944 21.8716 147.969 21.8547 147.996 21.8434C148.025 21.8361 148.055 21.8361 148.084 21.8434C148.114 21.8438 148.143 21.8519 148.169 21.8668C148.196 21.8816 148.219 21.9026 148.236 21.9282L148.593 22.4311C148.608 22.4521 148.619 22.476 148.625 22.5013C148.631 22.5273 148.631 22.5542 148.625 22.5802C148.621 22.6074 148.611 22.6334 148.596 22.6563C148.582 22.6791 148.564 22.6989 148.543 22.7147L148.046 23.0686C148.02 23.0857 147.991 23.0976 147.961 23.1036C147.931 23.1095 147.9 23.1095 147.87 23.1036C147.841 23.0949 147.814 23.08 147.791 23.0598C147.768 23.0401 147.75 23.015 147.739 22.9867L147.534 22.4984C147.522 22.4612 147.522 22.4214 147.534 22.3843C147.535 22.3411 147.55 22.2993 147.575 22.2644Z" fill="#E8461C"/>
<path d="M144.265 17.6809C143.938 17.6809 143.614 17.6164 143.312 17.4912C143.01 17.366 142.735 17.1824 142.504 16.951C142.273 16.7196 142.09 16.445 141.965 16.1427C141.84 15.8405 141.776 15.5166 141.776 15.1896C141.776 14.5296 142.039 13.8967 142.505 13.43C142.972 12.9634 143.605 12.7012 144.265 12.7012C144.925 12.7012 145.558 12.9633 146.025 13.4298C146.493 13.8964 146.755 14.5293 146.756 15.1896C146.756 15.8503 146.494 16.484 146.026 16.9512C145.559 17.4184 144.926 17.6809 144.265 17.6809Z" fill="#F39672"/>
<path d="M154.245 15.2116C154.243 14.7425 154.349 14.2792 154.555 13.8578C154.736 13.4773 155.025 13.1581 155.386 12.9396C155.711 12.7455 156.096 12.6779 156.467 12.7496C156.856 12.8328 157.204 13.0451 157.456 13.3519C157.748 13.695 157.949 14.1064 158.041 14.5479C158.139 15.0133 158.132 15.4949 158.02 15.9573C157.92 16.3924 157.711 16.7949 157.412 17.1269C157.148 17.4187 156.794 17.6133 156.406 17.6796C156.332 17.6912 156.256 17.6971 156.181 17.6971C156.055 17.6977 155.929 17.682 155.807 17.6503C155.339 17.5144 154.939 17.2062 154.69 16.7877C154.396 16.3146 154.242 15.7684 154.245 15.2116Z" fill="#F39672"/>
<path d="M149.693 21.2587C145.812 21.2587 142.675 18.513 142.675 15.1181C142.675 11.7232 145.821 8.97754 149.693 8.97754C153.564 8.97754 156.71 11.7232 156.71 15.1181C156.71 18.513 153.573 21.2587 149.693 21.2587Z" fill="#F39672"/>
<path d="M151.478 13.7233C151.494 13.7261 151.511 13.7261 151.528 13.7233L152.811 13.2058C152.843 13.1927 152.869 13.1677 152.882 13.1359C152.896 13.1042 152.897 13.0684 152.884 13.0361C152.871 13.0041 152.846 12.9785 152.814 12.9649C152.783 12.9512 152.747 12.9505 152.715 12.963L151.428 13.4806C151.412 13.4867 151.397 13.496 151.385 13.508C151.373 13.5199 151.363 13.5343 151.356 13.5502C151.35 13.5661 151.346 13.5832 151.347 13.6004C151.347 13.6176 151.351 13.6345 151.358 13.6502C151.369 13.6727 151.386 13.6916 151.407 13.7046C151.428 13.7175 151.453 13.724 151.478 13.7233Z" fill="black"/>
<path d="M146.461 13.6273C146.488 13.6272 146.514 13.6191 146.536 13.604C146.557 13.5888 146.574 13.5674 146.584 13.5425C146.59 13.5265 146.593 13.5096 146.592 13.4925C146.592 13.4755 146.588 13.4587 146.581 13.4432C146.573 13.4277 146.563 13.4138 146.551 13.4022C146.538 13.3906 146.524 13.3816 146.508 13.3758L145.212 12.8845C145.18 12.8722 145.144 12.8732 145.112 12.8875C145.08 12.9017 145.055 12.928 145.043 12.9606C145.03 12.9931 145.031 13.0293 145.046 13.0611C145.06 13.0929 145.086 13.1177 145.119 13.1302L146.414 13.6214C146.429 13.6262 146.445 13.6282 146.461 13.6273Z" fill="black"/>
<path d="M145.408 15.0501C145.316 15.0501 145.226 15.0321 145.142 14.9971C145.057 14.9621 144.98 14.9109 144.916 14.8462C144.851 14.7816 144.8 14.7049 144.765 14.6205C144.73 14.536 144.712 14.4455 144.712 14.3541C144.713 14.1701 144.786 13.9938 144.917 13.8639C145.047 13.734 145.224 13.6611 145.408 13.6611C145.592 13.6611 145.769 13.734 145.899 13.8639C146.029 13.9938 146.103 14.1701 146.104 14.3541C146.104 14.4455 146.086 14.536 146.051 14.6205C146.016 14.7049 145.965 14.7816 145.9 14.8462C145.835 14.9109 145.759 14.9621 145.674 14.9971C145.59 15.0321 145.499 15.0501 145.408 15.0501Z" fill="#1B1935"/>
<path d="M152.469 15.0501C152.285 15.0501 152.108 14.9768 151.977 14.8462C151.847 14.7157 151.773 14.5387 151.773 14.3541C151.774 14.1701 151.848 13.9938 151.978 13.8639C152.109 13.734 152.285 13.6611 152.469 13.6611C152.653 13.6611 152.829 13.7341 152.959 13.8641C153.089 13.9941 153.162 14.1703 153.162 14.3541C153.163 14.4454 153.145 14.5358 153.11 14.6202C153.076 14.7047 153.025 14.7814 152.96 14.8461C152.896 14.9107 152.82 14.962 152.735 14.997C152.651 15.032 152.561 15.0501 152.469 15.0501Z" fill="#1B1935"/>
<path d="M157.456 16.1528C157.583 15.8533 157.648 15.5308 157.646 15.2054C157.644 14.881 157.575 14.5605 157.444 14.2638C157.326 13.9925 157.141 13.7558 156.906 13.5767C156.696 13.4163 156.439 13.3281 156.175 13.3252C156.175 13.3252 157.888 13.8895 157.456 16.1528Z" fill="#BC6A4F"/>
<path d="M156.175 12.7316C155.879 12.7343 155.589 12.8194 155.339 12.9772C155.447 12.8704 155.58 12.7921 155.726 12.7492C155.872 12.7064 156.026 12.7003 156.175 12.7316Z" fill="#BC6A4F"/>
<path d="M146.707 19.8906C147.119 20.2093 147.941 20.4257 148.888 20.4257C149.836 20.4257 150.643 20.2093 151.07 19.8906C151.07 19.8906 148.88 20.7181 146.707 19.8906Z" fill="#BC6A4F"/>
<path d="M152.947 8.71973H152.654V10.0414H152.947V8.71973Z" fill="#1D1D1B"/>
<path d="M154.026 9.22949H153.733V10.5512H154.026V9.22949Z" fill="#1D1D1B"/>
<path d="M155.055 10.041H154.763V11.3627H155.055V10.041Z" fill="#1D1D1B"/>
<path d="M155.904 11.0469H155.611V12.3686H155.904V11.0469Z" fill="#1D1D1B"/>
<path d="M151.955 8.33496H151.663V9.65665H151.955V8.33496Z" fill="#1D1D1B"/>
<path d="M150.715 8.05957H150.423V9.38125H150.715V8.05957Z" fill="#1D1D1B"/>
<path d="M149.838 8.05957H149.546V9.38125H149.838V8.05957Z" fill="#1D1D1B"/>
<path d="M148.865 8.05957H148.572V9.38125H148.865V8.05957Z" fill="#1D1D1B"/>
<path d="M147.841 8.33496H147.549V9.65665H147.841V8.33496Z" fill="#1D1D1B"/>
<path d="M146.908 8.71973H146.615V10.0414H146.908V8.71973Z" fill="#1D1D1B"/>
<path d="M145.95 9.22949H145.657V10.5512H145.95V9.22949Z" fill="#1D1D1B"/>
<path d="M145.083 9.80566H144.791V11.1273H145.083V9.80566Z" fill="#1D1D1B"/>
<path d="M151.455 16.2688C151.204 16.0179 150.863 15.8771 150.508 15.877H147.274C147.098 15.8767 146.924 15.9112 146.761 15.9784C146.598 16.0456 146.451 16.1443 146.326 16.2688C146.075 16.52 145.933 16.8606 145.932 17.2162V21.7017C146.109 21.7021 146.285 21.6674 146.449 21.5997C146.614 21.532 146.763 21.4326 146.889 21.3071C147.015 21.1816 147.114 21.0325 147.182 20.8684C147.25 20.7044 147.285 20.5284 147.285 20.3508V17.2162H150.502V20.3508C150.502 20.7091 150.644 21.0527 150.898 21.306C151.151 21.5594 151.495 21.7017 151.853 21.7017V17.2162C151.852 17.0399 151.817 16.8655 151.748 16.7029C151.68 16.5404 151.58 16.3928 151.455 16.2688Z" fill="#D8690E"/>
<path d="M148.224 17.7588H148.925C148.972 17.7591 149.018 17.7734 149.057 17.7998C149.096 17.8262 149.126 17.8636 149.143 17.9071C149.161 17.9507 149.165 17.9985 149.156 18.0445C149.146 18.0904 149.123 18.1324 149.089 18.1652L148.56 18.6799L148.054 18.1594C148.022 18.126 148.001 18.0839 147.992 18.0384C147.984 17.9929 147.989 17.9459 148.007 17.9033C148.025 17.8607 148.055 17.8243 148.094 17.7986C148.132 17.7729 148.177 17.7591 148.224 17.7588Z" fill="#D8690E"/>
<path d="M140.341 33.8057C140.341 33.8057 140.832 35.9812 140.82 35.9373C140.988 35.8276 141.167 35.7373 141.355 35.6683C141.299 35.0551 141.202 34.4465 141.063 33.8466C140.894 33.7677 140.715 33.7107 140.531 33.677C140.531 33.677 140.823 27.6329 142.578 27.1768C140.563 27.5715 140.341 33.8057 140.341 33.8057Z" fill="#373684"/>
<path d="M140.341 33.8065C138.686 33.5638 136.33 33.6632 135.046 33.7451V33.5024C135.046 33.5024 139.198 33.3971 140.341 33.8065Z" fill="#373684"/>
<path d="M157.234 33.7178C157.234 33.7178 156.745 35.8962 156.754 35.8494C156.587 35.7402 156.409 35.65 156.222 35.5804C156.279 34.9674 156.377 34.3588 156.514 33.7587C156.684 33.6816 156.863 33.6257 157.047 33.592C157.047 33.592 156.579 27.545 154.827 27.0918C156.845 27.4924 157.234 33.7178 157.234 33.7178Z" fill="#373684"/>
<path d="M157.233 33.7187C158.891 33.4789 161.248 33.5754 162.532 33.6573V33.4175C162.532 33.4175 158.385 33.3123 157.233 33.7187Z" fill="#373684"/>
<g clip-path="url(#clip0_622_1034)">
<path d="M141.118 35.9606C141.118 35.9606 141.021 39.2986 139.814 38.2395C139.814 38.2395 139.203 39.9069 138.467 38.6177C138.467 38.6177 137.76 40.5089 137.135 38.5421C137.135 38.5421 136.316 41.0038 135.484 38.3152C135.484 38.3152 132.846 42.8067 132.638 35.9606L141.118 35.9606Z" fill="#F39672"/>
<path d="M140.136 35.9604C140.136 36.8042 140.02 37.6175 139.811 38.2393C139.811 38.2393 140.233 37.5773 140.136 35.9604Z" fill="#BC6A4F"/>
<path d="M138.679 35.9601C138.745 37.8166 138.467 38.6172 138.467 38.6172C138.467 38.6172 138.888 37.9395 138.679 35.9601Z" fill="#BC6A4F"/>
<path d="M137.461 35.9605C137.441 36.8864 137.329 37.7796 137.135 38.542C137.26 38.2125 137.355 37.8068 137.412 37.3581C137.468 36.9094 137.485 36.4304 137.461 35.9605Z" fill="#BC6A4F"/>
<path d="M135.168 36.8277C135.23 37.3823 135.338 37.8911 135.482 38.3154C135.385 38.1691 135.305 37.9531 135.249 37.6909C135.194 37.4287 135.166 37.1302 135.168 36.8277Z" fill="#BC6A4F"/>
</g>
<g clip-path="url(#clip1_622_1034)">
<path d="M165.097 35.9606C165.097 35.9606 165 39.2986 163.792 38.2395C163.792 38.2395 163.181 39.9069 162.445 38.6177C162.445 38.6177 161.738 40.5089 161.113 38.5421C161.113 38.5421 160.294 41.0038 159.462 38.3152C159.462 38.3152 156.825 42.8067 156.617 35.9606L165.097 35.9606Z" fill="#F39672"/>
<path d="M164.114 35.9604C164.115 36.8042 163.999 37.6175 163.79 38.2393C163.79 38.2393 164.211 37.5773 164.114 35.9604Z" fill="#BC6A4F"/>
<path d="M162.658 35.9601C162.723 37.8166 162.445 38.6172 162.445 38.6172C162.445 38.6172 162.867 37.9395 162.658 35.9601Z" fill="#BC6A4F"/>
<path d="M161.439 35.9605C161.42 36.8864 161.307 37.7796 161.114 38.542C161.239 38.2125 161.334 37.8068 161.39 37.3581C161.447 36.9094 161.464 36.4304 161.439 35.9605Z" fill="#BC6A4F"/>
<path d="M159.147 36.8277C159.209 37.3823 159.316 37.8911 159.461 38.3154C159.364 38.1691 159.283 37.9531 159.228 37.6909C159.173 37.4287 159.144 37.1302 159.147 36.8277Z" fill="#BC6A4F"/>
</g>
<path d="M134.353 36.1111C134.353 36.1111 134.008 34.7426 134.128 33.8128C134.128 33.8128 138.689 33.3917 140.953 33.918C140.953 33.918 141.28 35.4737 141.16 36.1111H134.353Z" fill="#FAF3ED"/>
<path d="M163.225 36.0232C163.225 36.0232 163.57 34.6577 163.45 33.7278C163.45 33.7278 158.889 33.3067 156.626 33.8331C156.626 33.8331 156.298 35.3887 156.418 36.0232H163.225Z" fill="#FAF3ED"/>
</g>
<defs>
<clipPath id="clip0_622_1034">
<rect width="8.47983" height="3.8013" fill="white" transform="translate(141.118 39.7617) rotate(-180)"/>
</clipPath>
<clipPath id="clip1_622_1034">
<rect width="8.47983" height="3.8013" fill="white" transform="translate(165.097 39.7617) rotate(-180)"/>
</clipPath>
</defs>
</svg>
