<?xml version="1.0" encoding="utf-8"?>
<!-- Generator: Adobe Illustrator 25.4.0, SVG Export Plug-In . SVG Version: 6.00 Build 0)  -->
<svg version="1.1" id="Calque_1" xmlns="http://www.w3.org/2000/svg" xmlns:xlink="http://www.w3.org/1999/xlink" x="0px" y="0px"
	 width="402.4px" height="175.9px" viewBox="0 0 402.4 175.9" style="enable-background:new 0 0 402.4 175.9;" xml:space="preserve"
	>
<style type="text/css">
	.st0{fill:#FFFFFF;stroke:#000000;stroke-miterlimit:10;}
	.st1{stroke:#1C1D1A;stroke-width:0.25;stroke-miterlimit:10;}
	.st2{fill:none;stroke:#000000;stroke-miterlimit:10;}
	.st3{fill:#1C1D1A;}
	.st4{fill:#FFFFFF;}
	.st5{fill:#FF2E3F;}
	.st6{fill:#1D1D1B;}
	.st7{fill:#3154FF;}
	.st8{fill:none;stroke:#1C1D1A;stroke-width:0.75;stroke-miterlimit:10;}
</style>
<g>
	<rect x="0" y="0" class="st0" width="402.4" height="175.9"/>
	<g>
		<path class="st1" d="M15,60.3v9.1h-0.7v-9.1H15z M14.7,60.3h1.7c0.6,0,1.1,0.1,1.5,0.3c0.4,0.2,0.8,0.5,1.1,0.9
			c0.3,0.4,0.4,0.9,0.4,1.4c0,0.6-0.1,1-0.4,1.4c-0.3,0.4-0.6,0.7-1.1,0.9c-0.4,0.2-1,0.3-1.5,0.3h-1.7V65h1.7
			c0.7,0,1.2-0.2,1.6-0.5s0.6-0.8,0.6-1.5c0-0.7-0.2-1.2-0.6-1.5c-0.4-0.3-1-0.5-1.6-0.5h-1.7V60.3z"/>
		<path class="st1" d="M21,68.4c0.1,0.2,0.3,0.3,0.5,0.4c0.2,0.1,0.5,0.1,0.8,0.1c0.3,0,0.6-0.1,0.9-0.2c0.3-0.2,0.5-0.4,0.7-0.7
			c0.2-0.3,0.3-0.7,0.3-1.1l0.2,0.6c0,0.5-0.1,0.9-0.3,1.2c-0.2,0.3-0.5,0.5-0.8,0.7s-0.7,0.2-1,0.2c-0.3,0-0.7-0.1-1-0.2
			c-0.3-0.1-0.6-0.4-0.8-0.6c-0.2-0.3-0.3-0.6-0.3-1.1c0-0.6,0.2-1,0.6-1.4c0.4-0.3,1-0.5,1.6-0.5c0.4,0,0.7,0,1,0.1
			c0.3,0.1,0.5,0.2,0.7,0.3c0.2,0.1,0.3,0.2,0.4,0.3v0.4c-0.3-0.2-0.6-0.4-0.9-0.5c-0.3-0.1-0.7-0.2-1-0.2c-0.3,0-0.6,0-0.9,0.1
			c-0.2,0.1-0.4,0.2-0.6,0.4s-0.2,0.4-0.2,0.7C20.8,67.9,20.8,68.2,21,68.4z M20.4,64c0.2-0.2,0.5-0.3,0.9-0.5s0.8-0.2,1.3-0.2
			c0.5,0,0.8,0.1,1.2,0.2c0.3,0.1,0.6,0.4,0.7,0.6c0.2,0.3,0.3,0.6,0.3,1v4.2h-0.7v-4.1c0-0.2,0-0.3-0.1-0.5
			c-0.1-0.2-0.1-0.3-0.3-0.4s-0.3-0.2-0.5-0.3c-0.2-0.1-0.4-0.1-0.7-0.1c-0.3,0-0.6,0-0.8,0.1c-0.2,0.1-0.4,0.2-0.6,0.2
			c-0.2,0.1-0.3,0.2-0.4,0.3L20.4,64z"/>
		<path class="st1" d="M27.3,72.3h-0.8l1.5-3.5l-2.4-5.4h0.8l2.2,5.1l-0.3,0l2.1-5.1h0.8L27.3,72.3z"/>
		<path class="st1" d="M32.9,69.2c-0.4-0.3-0.7-0.6-1-1.1c-0.2-0.5-0.4-1-0.4-1.6s0.1-1.1,0.4-1.6c0.2-0.5,0.6-0.8,1-1.1
			c0.4-0.3,0.9-0.4,1.5-0.4c0.5,0,1,0.1,1.4,0.4c0.4,0.3,0.7,0.6,1,1s0.3,1,0.3,1.5c0,0.1,0,0.1,0,0.2c0,0.1,0,0.1,0,0.2H32V66h4.7
			l-0.3,0.4c0,0,0-0.1,0.1-0.2c0-0.1,0-0.1,0-0.2c0-0.4-0.1-0.8-0.3-1.1c-0.2-0.3-0.4-0.6-0.7-0.8c-0.3-0.2-0.6-0.3-1-0.3
			c-0.4,0-0.8,0.1-1.2,0.3c-0.3,0.2-0.6,0.5-0.8,0.9c-0.2,0.4-0.3,0.8-0.3,1.3c0,0.5,0.1,1,0.3,1.3c0.2,0.4,0.4,0.7,0.8,0.9
			c0.3,0.2,0.7,0.3,1.1,0.3c0.5,0,0.9-0.1,1.2-0.3c0.3-0.2,0.6-0.5,0.9-0.9L37,68c-0.3,0.5-0.7,0.9-1.2,1.2s-1,0.4-1.6,0.4
			C33.8,69.6,33.3,69.4,32.9,69.2z"/>
		<path class="st1" d="M38,64.1v-0.6h5l-4.1,5.3h4v0.6h-5.2l4.1-5.3H38z"/>
		<path class="st1" d="M48.6,67.7c0.2,0.4,0.5,0.7,0.9,0.9c0.4,0.2,0.8,0.3,1.2,0.3c0.3,0,0.6,0,0.9-0.1c0.3-0.1,0.5-0.2,0.7-0.4
			c0.2-0.2,0.3-0.3,0.4-0.5v0.8c-0.2,0.2-0.5,0.4-0.8,0.5s-0.8,0.2-1.2,0.2c-0.6,0-1.1-0.1-1.6-0.4c-0.5-0.3-0.8-0.6-1.1-1.1
			c-0.3-0.5-0.4-1-0.4-1.6c0-0.6,0.1-1.1,0.4-1.6c0.3-0.5,0.6-0.8,1.1-1.1c0.5-0.3,1-0.4,1.6-0.4c0.4,0,0.8,0.1,1.2,0.2
			c0.4,0.2,0.7,0.3,0.8,0.5v0.8c-0.1-0.2-0.2-0.3-0.4-0.5c-0.2-0.1-0.4-0.3-0.7-0.4C51.3,64,51,64,50.7,64c-0.5,0-0.9,0.1-1.2,0.3
			c-0.4,0.2-0.6,0.5-0.9,0.9c-0.2,0.4-0.3,0.8-0.3,1.3S48.4,67.4,48.6,67.7z"/>
		<path class="st1" d="M54.4,64.8c0.3-0.5,0.6-0.8,1.1-1.1c0.5-0.3,1-0.4,1.6-0.4c0.6,0,1.1,0.1,1.6,0.4s0.8,0.6,1.1,1.1
			c0.3,0.5,0.4,1,0.4,1.6c0,0.6-0.1,1.1-0.4,1.6c-0.3,0.5-0.6,0.8-1.1,1.1c-0.5,0.3-1,0.4-1.6,0.4c-0.6,0-1.1-0.1-1.6-0.4
			c-0.5-0.3-0.8-0.6-1.1-1.1c-0.3-0.5-0.4-1-0.4-1.6C54,65.8,54.1,65.3,54.4,64.8z M55,67.7c0.2,0.4,0.5,0.7,0.9,0.9
			c0.4,0.2,0.8,0.3,1.2,0.3c0.5,0,0.9-0.1,1.2-0.3c0.4-0.2,0.6-0.5,0.9-0.9c0.2-0.4,0.3-0.8,0.3-1.3c0-0.5-0.1-0.9-0.3-1.3
			s-0.5-0.7-0.9-0.9C57.9,64.1,57.5,64,57,64c-0.5,0-0.9,0.1-1.2,0.3c-0.4,0.2-0.6,0.5-0.9,0.9c-0.2,0.4-0.3,0.8-0.3,1.3
			S54.7,67.4,55,67.7z"/>
		<path class="st1" d="M65.1,64.4c-0.2-0.3-0.6-0.4-1.1-0.4c-0.3,0-0.6,0.1-0.9,0.2c-0.3,0.2-0.5,0.4-0.6,0.7
			c-0.2,0.3-0.2,0.6-0.2,0.9v3.6h-0.7v-6h0.7v1.2c0.2-0.4,0.4-0.8,0.7-1c0.3-0.2,0.7-0.4,1.2-0.4c0.6,0,1.1,0.2,1.4,0.6
			s0.5,0.9,0.5,1.6v3.9h-0.7v-3.8C65.5,65.1,65.3,64.7,65.1,64.4z"/>
		<path class="st1" d="M69.9,63.4v0.6h-2.6v-0.6H69.9z M68.9,61.4v8.1h-0.7v-8.1H68.9z"/>
		<path class="st1" d="M71.7,69.4H71v-6h0.7V69.4z M73.3,64c-0.1,0-0.3-0.1-0.4-0.1c-0.3,0-0.5,0.1-0.7,0.2
			c-0.2,0.2-0.3,0.4-0.4,0.7c-0.1,0.3-0.1,0.6-0.1,0.9h-0.3c0-0.5,0.1-0.9,0.2-1.3c0.1-0.4,0.3-0.7,0.6-0.9c0.3-0.2,0.5-0.3,0.9-0.3
			c0.2,0,0.4,0,0.5,0.1s0.3,0.1,0.5,0.3l-0.4,0.6C73.6,64.1,73.5,64.1,73.3,64z"/>
		<path class="st1" d="M75.9,69.2c-0.4-0.3-0.7-0.6-1-1.1c-0.2-0.5-0.4-1-0.4-1.6s0.1-1.1,0.4-1.6c0.2-0.5,0.6-0.8,1-1.1
			c0.4-0.3,0.9-0.4,1.5-0.4c0.5,0,1,0.1,1.4,0.4c0.4,0.3,0.7,0.6,1,1s0.3,1,0.3,1.5c0,0.1,0,0.1,0,0.2c0,0.1,0,0.1,0,0.2h-5.2V66
			h4.7l-0.3,0.4c0,0,0-0.1,0.1-0.2c0-0.1,0-0.1,0-0.2c0-0.4-0.1-0.8-0.3-1.1c-0.2-0.3-0.4-0.6-0.7-0.8c-0.3-0.2-0.6-0.3-1-0.3
			c-0.4,0-0.8,0.1-1.2,0.3c-0.3,0.2-0.6,0.5-0.8,0.9c-0.2,0.4-0.3,0.8-0.3,1.3c0,0.5,0.1,1,0.3,1.3c0.2,0.4,0.4,0.7,0.8,0.9
			c0.3,0.2,0.7,0.3,1.1,0.3c0.5,0,0.9-0.1,1.2-0.3c0.3-0.2,0.6-0.5,0.9-0.9L80,68c-0.3,0.5-0.7,0.9-1.2,1.2s-1,0.4-1.6,0.4
			C76.8,69.6,76.3,69.4,75.9,69.2z"/>
		<path class="st1" d="M86,67.7c0.2,0.4,0.5,0.7,0.9,0.9c0.4,0.2,0.8,0.3,1.2,0.3c0.3,0,0.6,0,0.9-0.1c0.3-0.1,0.5-0.2,0.7-0.4
			c0.2-0.2,0.3-0.3,0.4-0.5v0.8c-0.2,0.2-0.5,0.4-0.8,0.5s-0.8,0.2-1.2,0.2c-0.6,0-1.1-0.1-1.6-0.4c-0.5-0.3-0.8-0.6-1.1-1.1
			c-0.3-0.5-0.4-1-0.4-1.6c0-0.6,0.1-1.1,0.4-1.6c0.3-0.5,0.6-0.8,1.1-1.1c0.5-0.3,1-0.4,1.6-0.4c0.4,0,0.8,0.1,1.2,0.2
			c0.4,0.2,0.7,0.3,0.8,0.5v0.8c-0.1-0.2-0.2-0.3-0.4-0.5c-0.2-0.1-0.4-0.3-0.7-0.4C88.7,64,88.4,64,88.1,64c-0.5,0-0.9,0.1-1.2,0.3
			c-0.4,0.2-0.6,0.5-0.9,0.9c-0.2,0.4-0.3,0.8-0.3,1.3S85.8,67.4,86,67.7z"/>
		<path class="st1" d="M92.7,69.2c-0.4-0.3-0.7-0.6-1-1.1c-0.2-0.5-0.4-1-0.4-1.6s0.1-1.1,0.4-1.6c0.2-0.5,0.6-0.8,1-1.1
			c0.4-0.3,0.9-0.4,1.5-0.4c0.5,0,1,0.1,1.4,0.4c0.4,0.3,0.7,0.6,1,1s0.3,1,0.3,1.5c0,0.1,0,0.1,0,0.2c0,0.1,0,0.1,0,0.2h-5.2V66
			h4.7l-0.3,0.4c0,0,0-0.1,0.1-0.2c0-0.1,0-0.1,0-0.2c0-0.4-0.1-0.8-0.3-1.1c-0.2-0.3-0.4-0.6-0.7-0.8c-0.3-0.2-0.6-0.3-1-0.3
			c-0.4,0-0.8,0.1-1.2,0.3c-0.3,0.2-0.6,0.5-0.8,0.9c-0.2,0.4-0.3,0.8-0.3,1.3c0,0.5,0.1,1,0.3,1.3c0.2,0.4,0.4,0.7,0.8,0.9
			c0.3,0.2,0.7,0.3,1.1,0.3c0.5,0,0.9-0.1,1.2-0.3c0.3-0.2,0.6-0.5,0.9-0.9l0.5,0.4c-0.3,0.5-0.7,0.9-1.2,1.2s-1,0.4-1.6,0.4
			C93.5,69.6,93.1,69.4,92.7,69.2z"/>
		<path class="st1" d="M102.8,67.7c0.2,0.4,0.5,0.7,0.9,0.9c0.4,0.2,0.8,0.3,1.2,0.3c0.3,0,0.6,0,0.9-0.1c0.3-0.1,0.5-0.2,0.7-0.4
			c0.2-0.2,0.3-0.3,0.4-0.5v0.8c-0.2,0.2-0.5,0.4-0.8,0.5s-0.8,0.2-1.2,0.2c-0.6,0-1.1-0.1-1.6-0.4c-0.5-0.3-0.8-0.6-1.1-1.1
			c-0.3-0.5-0.4-1-0.4-1.6c0-0.6,0.1-1.1,0.4-1.6c0.3-0.5,0.6-0.8,1.1-1.1c0.5-0.3,1-0.4,1.6-0.4c0.4,0,0.8,0.1,1.2,0.2
			c0.4,0.2,0.7,0.3,0.8,0.5v0.8c-0.1-0.2-0.2-0.3-0.4-0.5c-0.2-0.1-0.4-0.3-0.7-0.4c-0.3-0.1-0.6-0.1-0.9-0.1
			c-0.5,0-0.9,0.1-1.2,0.3c-0.4,0.2-0.6,0.5-0.9,0.9c-0.2,0.4-0.3,0.8-0.3,1.3S102.6,67.4,102.8,67.7z"/>
		<path class="st1" d="M109.3,69.4h-0.7V59.3h0.7V69.4z M112.1,64.4c-0.2-0.3-0.6-0.4-1.1-0.4c-0.3,0-0.6,0.1-0.9,0.2
			c-0.3,0.2-0.5,0.4-0.6,0.7c-0.2,0.3-0.2,0.6-0.2,0.9h-0.2c0-0.5,0.1-0.9,0.3-1.3c0.2-0.4,0.4-0.7,0.8-0.9s0.7-0.3,1.1-0.3
			s0.8,0.1,1.1,0.3s0.5,0.4,0.7,0.7c0.1,0.3,0.2,0.7,0.2,1.2v3.9h-0.7v-3.8C112.5,65.1,112.4,64.7,112.1,64.4z"/>
		<path class="st1" d="M115.1,66h4.4c0-0.4-0.1-0.8-0.3-1.1c-0.2-0.3-0.4-0.6-0.7-0.7c-0.3-0.2-0.6-0.3-1-0.3s-0.8,0.1-1.1,0.3
			c-0.3,0.2-0.6,0.4-0.8,0.8c-0.2,0.3-0.3,0.7-0.3,1.2l0,0.2c0,0.5,0.1,0.9,0.3,1.3c0.2,0.4,0.4,0.7,0.8,0.9
			c0.3,0.2,0.7,0.3,1.1,0.3c0.4,0,0.7-0.1,1-0.2s0.5-0.3,0.7-0.5c0.2-0.2,0.3-0.4,0.5-0.6l0.5,0.4c-0.2,0.3-0.4,0.5-0.6,0.7
			s-0.5,0.4-0.8,0.6c-0.3,0.1-0.8,0.2-1.3,0.2c-0.5,0-1-0.1-1.4-0.4c-0.4-0.3-0.8-0.6-1-1.1c-0.2-0.5-0.4-1-0.4-1.6
			c0-0.1,0-0.3,0-0.4s0-0.3,0.1-0.4c0.1-0.5,0.3-0.9,0.5-1.2c0.3-0.4,0.6-0.6,1-0.8s0.8-0.3,1.3-0.3c0.5,0,1,0.1,1.4,0.4
			s0.7,0.6,1,1s0.4,1,0.4,1.6c0,0.1,0,0.1,0,0.2c0,0.1,0,0.1,0,0.2h-5.2V66z M116.3,60.1l2.1,2.1l-0.4,0.3l-2.3-2L116.3,60.1z"/>
		<path class="st1" d="M121.7,64.8c0.3-0.5,0.6-0.8,1-1.1c0.4-0.3,0.9-0.4,1.4-0.4c0.5,0,1,0.1,1.3,0.4c0.4,0.3,0.7,0.6,0.9,1.1
			s0.3,1,0.3,1.6c0,0.6-0.1,1.1-0.3,1.6s-0.5,0.8-0.9,1.1c-0.4,0.3-0.8,0.4-1.3,0.4c-0.5,0-1-0.1-1.4-0.4s-0.8-0.6-1-1.1
			c-0.3-0.5-0.4-1-0.4-1.7C121.3,65.8,121.4,65.2,121.7,64.8z M122.3,67.8c0.2,0.4,0.5,0.7,0.8,0.9c0.4,0.2,0.7,0.3,1.2,0.3
			c0.4,0,0.7-0.1,1-0.3s0.6-0.5,0.8-0.9c0.2-0.4,0.3-0.8,0.3-1.3s-0.1-0.9-0.3-1.3c-0.2-0.4-0.5-0.7-0.8-0.9c-0.3-0.2-0.7-0.3-1-0.3
			c-0.4,0-0.8,0.1-1.2,0.3c-0.4,0.2-0.6,0.5-0.8,0.9c-0.2,0.4-0.3,0.8-0.3,1.3C122,67,122.1,67.4,122.3,67.8z M126.4,63.4h0.7v8.8
			h-0.7V63.4z"/>
		<path class="st1" d="M130.1,68.5c0.2,0.3,0.6,0.4,1.1,0.4c0.3,0,0.6-0.1,0.9-0.2c0.3-0.2,0.5-0.4,0.6-0.7c0.2-0.3,0.2-0.6,0.2-0.9
			v-3.6h0.7v6h-0.7v-1.2c-0.2,0.4-0.4,0.8-0.7,1c-0.3,0.2-0.7,0.4-1.2,0.4c-0.6,0-1.1-0.2-1.4-0.6c-0.3-0.4-0.5-0.9-0.5-1.6v-3.9
			h0.7v3.8C129.8,67.8,129.9,68.2,130.1,68.5z"/>
		<path class="st1" d="M136.5,69.2c-0.4-0.3-0.7-0.6-1-1.1c-0.2-0.5-0.4-1-0.4-1.6s0.1-1.1,0.4-1.6c0.2-0.5,0.6-0.8,1-1.1
			c0.4-0.3,0.9-0.4,1.5-0.4c0.5,0,1,0.1,1.4,0.4c0.4,0.3,0.7,0.6,1,1s0.3,1,0.3,1.5c0,0.1,0,0.1,0,0.2c0,0.1,0,0.1,0,0.2h-5.2V66
			h4.7l-0.3,0.4c0,0,0-0.1,0.1-0.2c0-0.1,0-0.1,0-0.2c0-0.4-0.1-0.8-0.3-1.1c-0.2-0.3-0.4-0.6-0.7-0.8c-0.3-0.2-0.6-0.3-1-0.3
			c-0.4,0-0.8,0.1-1.2,0.3c-0.3,0.2-0.6,0.5-0.8,0.9c-0.2,0.4-0.3,0.8-0.3,1.3c0,0.5,0.1,1,0.3,1.3c0.2,0.4,0.4,0.7,0.8,0.9
			c0.3,0.2,0.7,0.3,1.1,0.3c0.5,0,0.9-0.1,1.2-0.3c0.3-0.2,0.6-0.5,0.9-0.9l0.5,0.4c-0.3,0.5-0.7,0.9-1.2,1.2s-1,0.4-1.6,0.4
			C137.4,69.6,136.9,69.4,136.5,69.2z"/>
		<path class="st1" d="M142.8,64c0.1-0.1,0.2-0.1,0.3-0.1c0.1,0,0.3,0,0.3,0.1c0.1,0.1,0.1,0.2,0.1,0.3c0,0.1,0,0.3-0.1,0.4
			c-0.1,0.1-0.2,0.1-0.3,0.1c-0.1,0-0.2,0-0.3-0.1c-0.1-0.1-0.1-0.2-0.1-0.4C142.6,64.2,142.7,64.1,142.8,64z M142.8,68.8
			c0.1-0.1,0.2-0.1,0.3-0.1c0.1,0,0.3,0,0.3,0.1c0.1,0.1,0.1,0.2,0.1,0.4c0,0.1,0,0.2-0.1,0.3c-0.1,0.1-0.2,0.1-0.3,0.1
			c-0.1,0-0.2,0-0.3-0.1c-0.1-0.1-0.1-0.2-0.1-0.3C142.6,69,142.7,68.9,142.8,68.8z"/>
	</g>
	<g>
		<path class="st1" d="M181,133.2h-0.7l1.1-9.5l3.6,7l3.6-7l1.1,9.5H189l-0.8-7.2l-3.2,6.1l-3.2-6.1L181,133.2z"/>
		<path class="st1" d="M192,133.2h-0.7v-6h0.7V133.2z M193.6,127.8c-0.1,0-0.3-0.1-0.4-0.1c-0.3,0-0.5,0.1-0.7,0.2
			c-0.2,0.2-0.3,0.4-0.4,0.7c-0.1,0.3-0.1,0.6-0.1,0.9h-0.3c0-0.5,0.1-0.9,0.2-1.3c0.1-0.4,0.3-0.7,0.6-0.9c0.3-0.2,0.5-0.3,0.9-0.3
			c0.2,0,0.4,0,0.5,0.1s0.3,0.1,0.5,0.3L194,128C193.9,127.9,193.7,127.8,193.6,127.8z"/>
		<path class="st1" d="M195.2,132.5c0.1-0.1,0.2-0.1,0.3-0.1c0.1,0,0.3,0,0.3,0.1c0.1,0.1,0.1,0.2,0.1,0.4c0,0.1,0,0.2-0.1,0.3
			c-0.1,0.1-0.2,0.1-0.3,0.1c-0.1,0-0.2,0-0.3-0.1c-0.1-0.1-0.1-0.2-0.1-0.3C195.1,132.7,195.1,132.6,195.2,132.5z"/>
		<path class="st1" d="M203.1,124.1v9.1h-0.7v-9.1H203.1z M202.8,124.1h1.7c0.6,0,1.1,0.1,1.6,0.3c0.5,0.2,0.8,0.5,1.1,0.9
			c0.3,0.4,0.4,0.9,0.4,1.4c0,0.6-0.1,1-0.4,1.4c-0.3,0.4-0.6,0.7-1.1,0.9c-0.5,0.2-1,0.3-1.6,0.3h-1.7v-0.6h1.7
			c0.5,0,0.9-0.1,1.2-0.2s0.6-0.4,0.8-0.7c0.2-0.3,0.3-0.7,0.3-1.1s-0.1-0.8-0.3-1.1c-0.2-0.3-0.5-0.5-0.8-0.7
			c-0.4-0.2-0.8-0.2-1.2-0.2h-1.7V124.1z M204.7,128.8l3.1,4.3h-0.9l-3-4.3H204.7z"/>
		<path class="st1" d="M209.4,132.1c0.1,0.2,0.3,0.3,0.5,0.4c0.2,0.1,0.5,0.1,0.8,0.1c0.3,0,0.6-0.1,0.9-0.2
			c0.3-0.2,0.5-0.4,0.7-0.7c0.2-0.3,0.3-0.7,0.3-1.1l0.2,0.6c0,0.5-0.1,0.9-0.3,1.2c-0.2,0.3-0.5,0.5-0.8,0.7s-0.7,0.2-1,0.2
			c-0.3,0-0.7-0.1-1-0.2c-0.3-0.1-0.6-0.4-0.8-0.6c-0.2-0.3-0.3-0.6-0.3-1.1c0-0.6,0.2-1,0.6-1.4c0.4-0.3,1-0.5,1.6-0.5
			c0.4,0,0.7,0,1,0.1c0.3,0.1,0.5,0.2,0.7,0.3c0.2,0.1,0.3,0.2,0.4,0.3v0.4c-0.3-0.2-0.6-0.4-0.9-0.5c-0.3-0.1-0.7-0.2-1-0.2
			c-0.3,0-0.6,0-0.9,0.1c-0.2,0.1-0.4,0.2-0.6,0.4s-0.2,0.4-0.2,0.7C209.2,131.7,209.3,131.9,209.4,132.1z M208.9,127.8
			c0.2-0.2,0.5-0.3,0.9-0.5s0.8-0.2,1.3-0.2c0.5,0,0.8,0.1,1.2,0.2c0.3,0.1,0.6,0.4,0.7,0.6c0.2,0.3,0.3,0.6,0.3,1v4.2h-0.7V129
			c0-0.2,0-0.3-0.1-0.5c-0.1-0.2-0.1-0.3-0.3-0.4s-0.3-0.2-0.5-0.3c-0.2-0.1-0.4-0.1-0.7-0.1c-0.3,0-0.6,0-0.8,0.1
			c-0.2,0.1-0.4,0.2-0.6,0.2c-0.2,0.1-0.3,0.2-0.4,0.3L208.9,127.8z"/>
		<path class="st1" d="M215.7,136H215l1.5-3.5l-2.4-5.4h0.8l2.2,5.1l-0.3,0l2.1-5.1h0.8L215.7,136z"/>
		<path class="st1" d="M228.3,133.2h-0.7v-3.8c0-0.5-0.1-0.9-0.3-1.2c-0.2-0.3-0.5-0.4-0.9-0.4c-0.3,0-0.6,0.1-0.8,0.2
			c-0.2,0.2-0.4,0.4-0.6,0.7s-0.2,0.6-0.2,0.9v3.6h-0.7v-3.8c0-0.5-0.1-0.9-0.3-1.2c-0.2-0.3-0.5-0.4-0.9-0.4
			c-0.3,0-0.6,0.1-0.8,0.2c-0.2,0.2-0.4,0.4-0.6,0.7s-0.2,0.6-0.2,0.9v3.6h-0.7v-6h0.7v1.2c0.2-0.4,0.4-0.8,0.7-1
			c0.3-0.2,0.7-0.4,1-0.4c0.4,0,0.8,0.1,1.1,0.4s0.5,0.6,0.6,1c0.2-0.4,0.4-0.8,0.8-1c0.3-0.2,0.7-0.4,1.1-0.4
			c0.4,0,0.7,0.1,0.9,0.3c0.3,0.2,0.5,0.4,0.6,0.8s0.2,0.7,0.2,1.2V133.2z"/>
		<path class="st1" d="M230.3,128.6c0.3-0.5,0.6-0.8,1.1-1.1c0.5-0.3,1-0.4,1.6-0.4c0.6,0,1.1,0.1,1.6,0.4s0.8,0.6,1.1,1.1
			c0.3,0.5,0.4,1,0.4,1.6c0,0.6-0.1,1.1-0.4,1.6c-0.3,0.5-0.6,0.8-1.1,1.1c-0.5,0.3-1,0.4-1.6,0.4c-0.6,0-1.1-0.1-1.6-0.4
			c-0.5-0.3-0.8-0.6-1.1-1.1c-0.3-0.5-0.4-1-0.4-1.6C229.9,129.6,230,129,230.3,128.6z M230.9,131.5c0.2,0.4,0.5,0.7,0.9,0.9
			c0.4,0.2,0.8,0.3,1.2,0.3c0.5,0,0.9-0.1,1.2-0.3c0.4-0.2,0.6-0.5,0.9-0.9c0.2-0.4,0.3-0.8,0.3-1.3c0-0.5-0.1-0.9-0.3-1.3
			s-0.5-0.7-0.9-0.9c-0.4-0.2-0.8-0.3-1.2-0.3c-0.5,0-0.9,0.1-1.2,0.3c-0.4,0.2-0.6,0.5-0.9,0.9c-0.2,0.4-0.3,0.8-0.3,1.3
			S230.7,131.1,230.9,131.5z"/>
		<path class="st1" d="M241,128.1c-0.2-0.3-0.6-0.4-1.1-0.4c-0.3,0-0.6,0.1-0.9,0.2c-0.3,0.2-0.5,0.4-0.6,0.7
			c-0.2,0.3-0.2,0.6-0.2,0.9v3.6h-0.7v-6h0.7v1.2c0.2-0.4,0.4-0.8,0.7-1c0.3-0.2,0.7-0.4,1.2-0.4c0.6,0,1.1,0.2,1.4,0.6
			s0.5,0.9,0.5,1.6v3.9h-0.7v-3.8C241.4,128.8,241.3,128.4,241,128.1z"/>
		<path class="st1" d="M244,128.5c0.3-0.5,0.6-0.8,1-1.1c0.4-0.3,0.9-0.4,1.4-0.4c0.5,0,1,0.1,1.3,0.4c0.4,0.3,0.7,0.6,0.9,1.1
			s0.3,1,0.3,1.6c0,0.6-0.1,1.1-0.3,1.6s-0.5,0.8-0.9,1.1c-0.4,0.3-0.8,0.4-1.3,0.4c-0.5,0-1-0.1-1.4-0.4s-0.8-0.6-1-1.1
			c-0.3-0.5-0.4-1-0.4-1.7C243.6,129.5,243.7,129,244,128.5z M244.6,131.5c0.2,0.4,0.5,0.7,0.8,0.9c0.4,0.2,0.7,0.3,1.2,0.3
			c0.4,0,0.7-0.1,1-0.3s0.6-0.5,0.8-0.9c0.2-0.4,0.3-0.8,0.3-1.3s-0.1-0.9-0.3-1.3c-0.2-0.4-0.5-0.7-0.8-0.9c-0.3-0.2-0.7-0.3-1-0.3
			c-0.4,0-0.8,0.1-1.2,0.3c-0.4,0.2-0.6,0.5-0.8,0.9c-0.2,0.4-0.3,0.8-0.3,1.3C244.3,130.7,244.4,131.2,244.6,131.5z M249.4,123
			v10.1h-0.7V123H249.4z"/>
		<path class="st1" d="M181.5,139.7v9.1h-0.7v-9.1H181.5z M181.1,139.7h1.7c0.6,0,1.1,0.1,1.6,0.3c0.5,0.2,0.8,0.5,1.1,0.9
			c0.3,0.4,0.4,0.9,0.4,1.4c0,0.6-0.1,1-0.4,1.4c-0.3,0.4-0.6,0.7-1.1,0.9c-0.5,0.2-1,0.3-1.6,0.3h-1.7v-0.6h1.7
			c0.5,0,0.9-0.1,1.2-0.2s0.6-0.4,0.8-0.7c0.2-0.3,0.3-0.7,0.3-1.1s-0.1-0.8-0.3-1.1c-0.2-0.3-0.5-0.5-0.8-0.7
			c-0.4-0.2-0.8-0.2-1.2-0.2h-1.7V139.7z M183.1,144.4l3.1,4.3h-0.9l-3-4.3H183.1z"/>
		<path class="st1" d="M188.5,147.8c0.2,0.3,0.6,0.4,1.1,0.4c0.3,0,0.6-0.1,0.9-0.2c0.3-0.2,0.5-0.4,0.6-0.7
			c0.2-0.3,0.2-0.6,0.2-0.9v-3.6h0.7v6h-0.7v-1.2c-0.2,0.4-0.4,0.8-0.7,1c-0.3,0.2-0.7,0.4-1.2,0.4c-0.6,0-1.1-0.2-1.4-0.6
			c-0.3-0.4-0.5-0.9-0.5-1.6v-3.9h0.7v3.8C188.2,147.1,188.3,147.5,188.5,147.8z"/>
		<path class="st1" d="M194.9,148.5c-0.4-0.3-0.7-0.6-1-1.1c-0.2-0.5-0.4-1-0.4-1.6s0.1-1.1,0.4-1.6c0.2-0.5,0.6-0.8,1-1.1
			c0.4-0.3,0.9-0.4,1.5-0.4c0.5,0,1,0.1,1.4,0.4c0.4,0.3,0.7,0.6,1,1s0.3,1,0.3,1.5c0,0.1,0,0.1,0,0.2c0,0.1,0,0.1,0,0.2H194v-0.6
			h4.7l-0.3,0.4c0,0,0-0.1,0.1-0.2c0-0.1,0-0.1,0-0.2c0-0.4-0.1-0.8-0.3-1.1c-0.2-0.3-0.4-0.6-0.7-0.8c-0.3-0.2-0.6-0.3-1-0.3
			c-0.4,0-0.8,0.1-1.2,0.3c-0.3,0.2-0.6,0.5-0.8,0.9c-0.2,0.4-0.3,0.8-0.3,1.3c0,0.5,0.1,1,0.3,1.3c0.2,0.4,0.4,0.7,0.8,0.9
			c0.3,0.2,0.7,0.3,1.1,0.3c0.5,0,0.9-0.1,1.2-0.3c0.3-0.2,0.6-0.5,0.9-0.9l0.5,0.4c-0.3,0.5-0.7,0.9-1.2,1.2s-1,0.4-1.6,0.4
			C195.8,148.9,195.3,148.8,194.9,148.5z"/>
		<path class="st1" d="M205.4,139.7v9.1h-0.7v-9.1H205.4z M205,148.8v-0.7h2.1c0.6,0,1.1-0.1,1.5-0.3c0.5-0.2,0.9-0.4,1.2-0.8
			c0.3-0.3,0.6-0.7,0.8-1.2c0.2-0.5,0.3-1,0.3-1.6c0-0.6-0.1-1.1-0.3-1.6c-0.2-0.5-0.4-0.9-0.8-1.2c-0.3-0.3-0.7-0.6-1.2-0.8
			c-0.5-0.2-1-0.3-1.5-0.3H205v-0.7h2.1c0.9,0,1.7,0.2,2.3,0.6c0.7,0.4,1.2,0.9,1.6,1.6s0.6,1.5,0.6,2.4s-0.2,1.7-0.6,2.4
			c-0.4,0.7-0.9,1.2-1.6,1.6c-0.7,0.4-1.4,0.6-2.3,0.6H205z"/>
		<path class="st1" d="M214.2,147.8c0.2,0.3,0.6,0.4,1.1,0.4c0.3,0,0.6-0.1,0.9-0.2c0.3-0.2,0.5-0.4,0.6-0.7
			c0.2-0.3,0.2-0.6,0.2-0.9v-3.6h0.7v6H217v-1.2c-0.2,0.4-0.4,0.8-0.7,1c-0.3,0.2-0.7,0.4-1.2,0.4c-0.6,0-1.1-0.2-1.4-0.6
			c-0.3-0.4-0.5-0.9-0.5-1.6v-3.9h0.7v3.8C213.9,147.1,214,147.5,214.2,147.8z"/>
		<path class="st1" d="M220.4,148.8h-0.7v-6h0.7V148.8z M222,143.4c-0.1,0-0.3-0.1-0.4-0.1c-0.3,0-0.5,0.1-0.7,0.2
			c-0.2,0.2-0.3,0.4-0.4,0.7c-0.1,0.3-0.1,0.6-0.1,0.9h-0.3c0-0.5,0.1-0.9,0.2-1.3c0.1-0.4,0.3-0.7,0.6-0.9c0.3-0.2,0.5-0.3,0.9-0.3
			c0.2,0,0.4,0,0.5,0.1s0.3,0.1,0.5,0.3l-0.4,0.6C222.3,143.5,222.2,143.4,222,143.4z"/>
		<path class="st1" d="M224.1,139.8c0.1-0.1,0.2-0.1,0.3-0.1c0.1,0,0.3,0,0.3,0.1s0.1,0.2,0.1,0.3c0,0.1,0,0.2-0.1,0.3
			c-0.1,0.1-0.2,0.1-0.3,0.1c-0.1,0-0.2,0-0.3-0.1c-0.1-0.1-0.1-0.2-0.1-0.3C223.9,140,224,139.8,224.1,139.8z M224.8,142.8v6h-0.7
			v-6H224.8z"/>
		<path class="st1" d="M227.8,148.5c-0.4-0.3-0.7-0.6-1-1.1c-0.2-0.5-0.4-1-0.4-1.6s0.1-1.1,0.4-1.6c0.2-0.5,0.6-0.8,1-1.1
			c0.4-0.3,0.9-0.4,1.5-0.4c0.5,0,1,0.1,1.4,0.4c0.4,0.3,0.7,0.6,1,1s0.3,1,0.3,1.5c0,0.1,0,0.1,0,0.2c0,0.1,0,0.1,0,0.2h-5.2v-0.6
			h4.7l-0.3,0.4c0,0,0-0.1,0.1-0.2c0-0.1,0-0.1,0-0.2c0-0.4-0.1-0.8-0.3-1.1c-0.2-0.3-0.4-0.6-0.7-0.8c-0.3-0.2-0.6-0.3-1-0.3
			c-0.4,0-0.8,0.1-1.2,0.3c-0.3,0.2-0.6,0.5-0.8,0.9c-0.2,0.4-0.3,0.8-0.3,1.3c0,0.5,0.1,1,0.3,1.3c0.2,0.4,0.4,0.7,0.8,0.9
			c0.3,0.2,0.7,0.3,1.1,0.3c0.5,0,0.9-0.1,1.2-0.3c0.3-0.2,0.6-0.5,0.9-0.9l0.5,0.4c-0.3,0.5-0.7,0.9-1.2,1.2s-1,0.4-1.6,0.4
			C228.7,148.9,228.2,148.8,227.8,148.5z"/>
		<path class="st1" d="M234.6,147.8c0.2,0.3,0.6,0.4,1.1,0.4c0.3,0,0.6-0.1,0.9-0.2c0.3-0.2,0.5-0.4,0.6-0.7
			c0.2-0.3,0.2-0.6,0.2-0.9v-3.6h0.7v6h-0.7v-1.2c-0.2,0.4-0.4,0.8-0.7,1c-0.3,0.2-0.7,0.4-1.2,0.4c-0.6,0-1.1-0.2-1.4-0.6
			c-0.3-0.4-0.5-0.9-0.5-1.6v-3.9h0.7v3.8C234.3,147.1,234.4,147.5,234.6,147.8z"/>
		<path class="st1" d="M244.2,142.8l-2.1,2.9l2.2,3.1h-0.8l-1.8-2.5l-1.8,2.5h-0.8l2.2-3.1l-2.1-2.9h0.8l1.7,2.4l1.7-2.4H244.2z"/>
		<path class="st1" d="M181.5,155.3v8.4h3.8v0.7h-4.5v-9.1H181.5z"/>
		<path class="st1" d="M186.6,155.4c0.1-0.1,0.2-0.1,0.3-0.1c0.1,0,0.3,0,0.3,0.1s0.1,0.2,0.1,0.3c0,0.1,0,0.2-0.1,0.3
			c-0.1,0.1-0.2,0.1-0.3,0.1c-0.1,0-0.2,0-0.3-0.1c-0.1-0.1-0.1-0.2-0.1-0.3C186.4,155.6,186.5,155.4,186.6,155.4z M187.3,158.4v6
			h-0.7v-6H187.3z"/>
		<path class="st1" d="M197.1,164.4h-0.7v-3.8c0-0.5-0.1-0.9-0.3-1.2c-0.2-0.3-0.5-0.4-0.9-0.4c-0.3,0-0.6,0.1-0.8,0.2
			c-0.2,0.2-0.4,0.4-0.6,0.7s-0.2,0.6-0.2,0.9v3.6h-0.7v-3.8c0-0.5-0.1-0.9-0.3-1.2c-0.2-0.3-0.5-0.4-0.9-0.4
			c-0.3,0-0.6,0.1-0.8,0.2c-0.2,0.2-0.4,0.4-0.6,0.7s-0.2,0.6-0.2,0.9v3.6h-0.7v-6h0.7v1.2c0.2-0.4,0.4-0.8,0.7-1
			c0.3-0.2,0.7-0.4,1-0.4c0.4,0,0.8,0.1,1.1,0.4s0.5,0.6,0.6,1c0.2-0.4,0.4-0.8,0.8-1c0.3-0.2,0.7-0.4,1.1-0.4
			c0.4,0,0.7,0.1,0.9,0.3c0.3,0.2,0.5,0.4,0.6,0.8s0.2,0.7,0.2,1.2V164.4z"/>
		<path class="st1" d="M199,159.8c0.3-0.5,0.6-0.8,1.1-1.1c0.5-0.3,1-0.4,1.6-0.4c0.6,0,1.1,0.1,1.6,0.4s0.8,0.6,1.1,1.1
			c0.3,0.5,0.4,1,0.4,1.6c0,0.6-0.1,1.1-0.4,1.6c-0.3,0.5-0.6,0.8-1.1,1.1c-0.5,0.3-1,0.4-1.6,0.4c-0.6,0-1.1-0.1-1.6-0.4
			c-0.5-0.3-0.8-0.6-1.1-1.1c-0.3-0.5-0.4-1-0.4-1.6C198.6,160.8,198.7,160.2,199,159.8z M199.6,162.7c0.2,0.4,0.5,0.7,0.9,0.9
			c0.4,0.2,0.8,0.3,1.2,0.3c0.5,0,0.9-0.1,1.2-0.3c0.4-0.2,0.6-0.5,0.9-0.9c0.2-0.4,0.3-0.8,0.3-1.3c0-0.5-0.1-0.9-0.3-1.3
			s-0.5-0.7-0.9-0.9c-0.4-0.2-0.8-0.3-1.2-0.3c-0.5,0-0.9,0.1-1.2,0.3c-0.4,0.2-0.6,0.5-0.9,0.9c-0.2,0.4-0.3,0.8-0.3,1.3
			S199.4,162.3,199.6,162.7z"/>
		<path class="st1" d="M206.1,159.7c0.3-0.5,0.6-0.8,1-1.1c0.4-0.3,0.9-0.4,1.4-0.4c0.5,0,1,0.1,1.3,0.4c0.4,0.3,0.7,0.6,0.9,1.1
			s0.3,1,0.3,1.6c0,0.6-0.1,1.1-0.3,1.6s-0.5,0.8-0.9,1.1c-0.4,0.3-0.8,0.4-1.3,0.4c-0.5,0-1-0.1-1.4-0.4s-0.8-0.6-1-1.1
			c-0.3-0.5-0.4-1-0.4-1.7C205.8,160.7,205.9,160.2,206.1,159.7z M206.6,164.8c0,0.4,0.1,0.7,0.3,1c0.2,0.3,0.4,0.5,0.7,0.7
			c0.3,0.2,0.7,0.3,1.1,0.3c0.4,0,0.7-0.1,1.1-0.3c0.3-0.2,0.6-0.4,0.8-0.8c0.2-0.4,0.3-0.8,0.3-1.4v-5.9h0.7v5.9
			c0,0.7-0.1,1.3-0.4,1.7c-0.3,0.5-0.6,0.8-1.1,1c-0.4,0.2-0.9,0.4-1.4,0.4c-0.5,0-1-0.1-1.4-0.3s-0.7-0.5-1-0.9
			c-0.2-0.4-0.4-0.8-0.4-1.4H206.6z M206.7,162.7c0.2,0.4,0.5,0.7,0.8,0.9c0.4,0.2,0.7,0.3,1.2,0.3c0.4,0,0.7-0.1,1-0.3
			s0.6-0.5,0.8-0.9c0.2-0.4,0.3-0.8,0.3-1.3c0-0.3-0.1-0.7-0.2-1c-0.1-0.3-0.3-0.6-0.5-0.8c-0.2-0.2-0.4-0.4-0.7-0.5
			c-0.3-0.1-0.5-0.2-0.8-0.2c-0.4,0-0.8,0.1-1.2,0.3c-0.4,0.2-0.6,0.5-0.8,0.9c-0.2,0.4-0.3,0.8-0.3,1.3
			C206.4,161.9,206.5,162.4,206.7,162.7z"/>
		<path class="st1" d="M214.3,164.1c-0.4-0.3-0.7-0.6-1-1.1c-0.2-0.5-0.4-1-0.4-1.6s0.1-1.1,0.4-1.6c0.2-0.5,0.6-0.8,1-1.1
			c0.4-0.3,0.9-0.4,1.5-0.4c0.5,0,1,0.1,1.4,0.4c0.4,0.3,0.7,0.6,1,1s0.3,1,0.3,1.5c0,0.1,0,0.1,0,0.2c0,0.1,0,0.1,0,0.2h-5.2V161
			h4.7l-0.3,0.4c0,0,0-0.1,0.1-0.2c0-0.1,0-0.1,0-0.2c0-0.4-0.1-0.8-0.3-1.1c-0.2-0.3-0.4-0.6-0.7-0.8c-0.3-0.2-0.6-0.3-1-0.3
			c-0.4,0-0.8,0.1-1.2,0.3c-0.3,0.2-0.6,0.5-0.8,0.9c-0.2,0.4-0.3,0.8-0.3,1.3c0,0.5,0.1,1,0.3,1.3c0.2,0.4,0.4,0.7,0.8,0.9
			c0.3,0.2,0.7,0.3,1.1,0.3c0.5,0,0.9-0.1,1.2-0.3c0.3-0.2,0.6-0.5,0.9-0.9l0.5,0.4c-0.3,0.5-0.7,0.9-1.2,1.2s-1,0.4-1.6,0.4
			C215.2,164.5,214.8,164.4,214.3,164.1z"/>
		<path class="st1" d="M220.5,163.3c0.1,0.2,0.3,0.3,0.6,0.4c0.2,0.1,0.5,0.2,0.8,0.2c0.4,0,0.7-0.1,0.9-0.3
			c0.2-0.2,0.3-0.4,0.3-0.8c0-0.2-0.1-0.4-0.2-0.6s-0.3-0.3-0.5-0.4c-0.2-0.1-0.5-0.2-0.7-0.3c-0.3-0.1-0.5-0.2-0.8-0.4
			s-0.5-0.3-0.6-0.5s-0.3-0.5-0.3-0.9c0-0.3,0.1-0.6,0.3-0.8c0.2-0.2,0.4-0.4,0.7-0.5c0.3-0.1,0.6-0.2,0.9-0.2
			c0.3,0,0.6,0.1,0.9,0.2c0.3,0.1,0.5,0.3,0.7,0.4c0.2,0.2,0.3,0.4,0.4,0.6l-0.6,0.3c-0.1-0.3-0.3-0.5-0.6-0.7
			c-0.3-0.2-0.6-0.3-1-0.3c-0.3,0-0.5,0.1-0.7,0.2c-0.2,0.1-0.3,0.4-0.3,0.7c0,0.2,0.1,0.4,0.2,0.6c0.1,0.2,0.3,0.3,0.5,0.4
			c0.2,0.1,0.4,0.2,0.7,0.3c0.3,0.1,0.6,0.3,0.9,0.4c0.3,0.1,0.5,0.3,0.7,0.5s0.3,0.5,0.3,0.8c0,0.5-0.2,0.9-0.5,1.3
			s-0.8,0.5-1.4,0.5c-0.4,0-0.8-0.1-1.1-0.2s-0.6-0.3-0.7-0.6c-0.2-0.2-0.3-0.5-0.4-0.7l0.5-0.3
			C220.2,162.9,220.3,163.1,220.5,163.3z"/>
	</g>
	<g>
		<path class="st1" d="M286.9,116.9l-0.1,0.2l-1.4,3.3h-0.8l4-9.5l4,9.5h-0.8l-1.4-3.3l-0.1-0.2l-1.8-4.3L286.9,116.9z M286.6,116.7
			h4.2l0.2,0.7h-4.7L286.6,116.7z M287.6,107.8l2.1,2.1l-0.4,0.3l-2.3-2L287.6,107.8z"/>
		<path class="st1" d="M294.3,115c0.1-0.1,0.2-0.1,0.3-0.1c0.1,0,0.3,0,0.3,0.1c0.1,0.1,0.1,0.2,0.1,0.3c0,0.1,0,0.3-0.1,0.4
			c-0.1,0.1-0.2,0.1-0.3,0.1c-0.1,0-0.2,0-0.3-0.1c-0.1-0.1-0.1-0.2-0.1-0.4C294.2,115.2,294.2,115.1,294.3,115z M294.3,119.7
			c0.1-0.1,0.2-0.1,0.3-0.1c0.1,0,0.3,0,0.3,0.1c0.1,0.1,0.1,0.2,0.1,0.4c0,0.1,0,0.2-0.1,0.3c-0.1,0.1-0.2,0.1-0.3,0.1
			c-0.1,0-0.2,0-0.3-0.1c-0.1-0.1-0.1-0.2-0.1-0.3C294.2,119.9,294.2,119.8,294.3,119.7z"/>
	</g>
	<g>
		<path class="st1" d="M286.4,130.1v8.4h3.8v0.7h-4.5v-9.1H286.4z"/>
		<path class="st1" d="M292.2,138.9c-0.4-0.3-0.7-0.6-1-1.1c-0.2-0.5-0.4-1-0.4-1.6s0.1-1.1,0.4-1.6c0.2-0.5,0.6-0.8,1-1.1
			c0.4-0.3,0.9-0.4,1.5-0.4c0.5,0,1,0.1,1.4,0.4c0.4,0.3,0.7,0.6,1,1s0.3,1,0.3,1.5c0,0.1,0,0.1,0,0.2c0,0.1,0,0.1,0,0.2h-5.2v-0.6
			h4.7l-0.3,0.4c0,0,0-0.1,0.1-0.2c0-0.1,0-0.1,0-0.2c0-0.4-0.1-0.8-0.3-1.1c-0.2-0.3-0.4-0.6-0.7-0.8c-0.3-0.2-0.6-0.3-1-0.3
			c-0.4,0-0.8,0.1-1.2,0.3c-0.3,0.2-0.6,0.5-0.8,0.9c-0.2,0.4-0.3,0.8-0.3,1.3c0,0.5,0.1,1,0.3,1.3c0.2,0.4,0.4,0.7,0.8,0.9
			c0.3,0.2,0.7,0.3,1.1,0.3c0.5,0,0.9-0.1,1.2-0.3c0.3-0.2,0.6-0.5,0.9-0.9l0.5,0.4c-0.3,0.5-0.7,0.9-1.2,1.2s-1,0.4-1.6,0.4
			C293.1,139.4,292.6,139.2,292.2,138.9z"/>
		<path class="st1" d="M298.5,133.8c0.1-0.1,0.2-0.1,0.3-0.1c0.1,0,0.3,0,0.3,0.1c0.1,0.1,0.1,0.2,0.1,0.3c0,0.1,0,0.3-0.1,0.4
			c-0.1,0.1-0.2,0.1-0.3,0.1c-0.1,0-0.2,0-0.3-0.1c-0.1-0.1-0.1-0.2-0.1-0.4C298.4,134,298.4,133.9,298.5,133.8z M298.5,138.6
			c0.1-0.1,0.2-0.1,0.3-0.1c0.1,0,0.3,0,0.3,0.1c0.1,0.1,0.1,0.2,0.1,0.4c0,0.1,0,0.2-0.1,0.3c-0.1,0.1-0.2,0.1-0.3,0.1
			c-0.1,0-0.2,0-0.3-0.1c-0.1-0.1-0.1-0.2-0.1-0.3C298.4,138.8,298.4,138.7,298.5,138.6z"/>
	</g>
	<rect x="298.8" y="60.8" class="st2" width="84.1" height="30.2"/>
	<g>
		<path d="M316.6,81.1c-0.1,0-0.2,0-0.4,0c-0.1,0-0.3,0-0.5,0c-0.2,0-0.4,0-0.6,0c-0.4,0-1,0-1.6,0.1c-0.6,0-1.2,0.1-1.9,0.2
			c0.1-0.2,0.2-0.6,0.3-0.9c0.1-0.4,0.2-0.8,0.2-1.2c0.1-0.4,0.1-0.9,0.1-1.3c0-0.4,0.1-0.9,0.1-1.3c0-0.4,0-0.7,0-1
			c0-0.3,0-0.5,0-0.6c0,0,0-0.1,0-0.2s0-0.3,0-0.5c0-0.2,0-0.4,0-0.7c0-0.3,0-0.5,0-0.8c-0.3-0.1-0.6-0.1-0.9-0.2
			c-0.3-0.1-0.6-0.1-0.8-0.1c-0.3,0-0.6-0.1-0.8-0.1c0.4-0.4,0.7-0.7,0.9-1c0.2-0.3,0.4-0.6,0.6-0.9c0.1-0.3,0.3-0.6,0.3-0.8
			c0.1-0.2,0.1-0.5,0.2-0.6c0.6,0.1,1.1,0.2,1.5,0.2s0.9,0,1.3,0c0.2,0,0.5,0,0.7,0s0.4,0,0.5,0c0.2,0,0.3,0,0.4,0
			c-0.1,0.3-0.1,0.7-0.2,1c0,0.4-0.1,0.8-0.1,1.2c0,0.4-0.1,0.9-0.1,1.3c0,0.5,0,1,0,1.5c0,0.6,0,1.2,0,1.8s0.1,1.2,0.1,1.8
			c0.1,0.6,0.1,1.2,0.2,1.7S316.5,80.6,316.6,81.1z"/>
		<path d="M330.7,69.2c-0.3,0.6-0.5,1.2-0.7,1.8c-0.2,0.6-0.4,1.2-0.6,1.8c-0.2,0.6-0.3,1.2-0.5,1.8s-0.3,1.3-0.4,2
			c-0.1,0.7-0.2,1.4-0.3,2.1c-0.1,0.7-0.2,1.5-0.3,2.4c-0.1,0-0.3,0-0.5,0c-0.1,0-0.3,0-0.5,0c-0.2,0-0.4,0-0.6,0
			c-0.2,0-0.4,0-0.7,0c-0.2,0-0.5,0-0.7,0c-0.3,0-0.5,0.1-0.8,0.1c-0.3,0-0.6,0.1-1,0.1c0.3-0.4,0.5-0.9,0.8-1.4
			c0.2-0.5,0.5-1.1,0.7-1.6s0.4-1.1,0.6-1.7c0.2-0.6,0.3-1.1,0.5-1.7c0.1-0.5,0.3-1,0.3-1.5c0.1-0.5,0.2-0.8,0.2-1.1
			c-0.3,0-0.6,0-1,0s-0.7,0.1-1,0.1c-0.3,0.1-0.6,0.1-1,0.2c-0.3,0.1-0.6,0.2-0.9,0.4c0-0.1,0-0.1,0-0.2c0-0.1,0-0.2,0-0.4
			s0-0.3,0-0.4s0-0.3,0-0.4s0-0.2,0-0.4s0-0.2,0-0.2c0-0.3,0-0.7,0-1c0-0.3,0-0.7-0.1-1c0.6,0.1,1.3,0.2,2,0.3
			c0.7,0.1,1.4,0.1,2.2,0.1c0.7,0,1.5,0,2.2-0.1S330.1,69.3,330.7,69.2z"/>
		<path d="M334.5,73.7c0.1,0,0.1-0.1,0.2-0.2c0.1-0.1,0.2-0.1,0.3-0.2c0.1,0,0.3-0.1,0.4-0.1s0.3,0,0.5,0c0.3,0,0.7,0,1,0.1
			c0.3,0.1,0.7,0.2,1,0.3c0.3,0.1,0.6,0.3,0.9,0.5c0.3,0.2,0.5,0.5,0.7,0.8c0.2,0.3,0.4,0.6,0.5,1c0.1,0.4,0.2,0.8,0.2,1.3
			c0,0.7-0.1,1.4-0.3,1.9c-0.2,0.6-0.5,1-1,1.4c-0.4,0.4-0.9,0.7-1.5,0.9c-0.6,0.2-1.2,0.3-1.8,0.3c-0.7,0-1.3-0.1-1.9-0.4
			s-1-0.6-1.4-1.1s-0.7-1.1-0.9-1.8c-0.2-0.7-0.3-1.5-0.3-2.5c0-0.5,0-1.1,0.1-1.7s0.1-1.1,0.3-1.7c0.1-0.5,0.3-1,0.6-1.5
			c0.2-0.5,0.6-0.9,0.9-1.3c0.4-0.4,0.9-0.6,1.4-0.9c0.6-0.2,1.2-0.3,2-0.3c0.4,0,0.9,0.1,1.3,0.2c0.4,0.1,0.8,0.3,1.1,0.5
			c0.3,0.2,0.6,0.5,0.7,0.8c0.2,0.3,0.3,0.6,0.3,1c0,0.3-0.1,0.5-0.2,0.7s-0.3,0.4-0.4,0.6s-0.4,0.3-0.6,0.4
			c-0.2,0.1-0.5,0.1-0.7,0.1c-0.3,0-0.6-0.1-0.9-0.3s-0.6-0.4-0.8-0.8c0.1,0,0.1,0,0.2,0c0.1,0,0.1,0,0.2,0c0.1,0,0.2,0,0.2-0.1
			s0.1-0.1,0.1-0.2c0-0.1,0-0.2-0.1-0.2c-0.1-0.1-0.2-0.1-0.4-0.1c-0.3,0-0.5,0.1-0.7,0.2s-0.3,0.3-0.4,0.6s-0.2,0.5-0.2,0.8
			S334.5,73.4,334.5,73.7z M336.5,77.3c0-0.5-0.1-0.8-0.2-1.1s-0.4-0.4-0.8-0.4c-0.3,0-0.5,0.1-0.7,0.4c-0.2,0.3-0.3,0.6-0.3,1.1
			c0,0.2,0,0.4,0.1,0.6c0,0.2,0.1,0.4,0.2,0.5s0.2,0.3,0.3,0.3c0.1,0.1,0.3,0.1,0.4,0.1s0.3,0,0.4-0.1c0.1-0.1,0.2-0.2,0.3-0.3
			s0.2-0.3,0.2-0.5C336.5,77.7,336.5,77.5,336.5,77.3z"/>
		<path d="M350.4,75.4c0,0.5,0,1-0.1,1.5c-0.1,0.5-0.2,1-0.4,1.4s-0.4,0.9-0.6,1.3c-0.3,0.4-0.6,0.7-0.9,1c-0.4,0.3-0.8,0.5-1.2,0.7
			s-1,0.2-1.5,0.2c-0.6,0-1.1-0.1-1.5-0.2c-0.4-0.1-0.8-0.4-1.2-0.6s-0.7-0.6-0.9-1s-0.5-0.8-0.6-1.2s-0.3-0.9-0.4-1.4
			s-0.1-1-0.1-1.6c0-1,0.1-1.9,0.4-2.7c0.2-0.8,0.6-1.5,1-2.1s0.9-1,1.5-1.3s1.2-0.5,1.9-0.5c0.7,0,1.4,0.1,2,0.4
			c0.6,0.3,1.1,0.7,1.5,1.3c0.4,0.6,0.7,1.2,0.9,2.1S350.4,74.4,350.4,75.4z M347.1,75c0-0.5,0-0.9-0.1-1.3c-0.1-0.4-0.2-0.7-0.3-1
			c-0.1-0.3-0.3-0.5-0.5-0.6c-0.2-0.1-0.4-0.2-0.6-0.2c-0.2,0-0.4,0.1-0.6,0.3c-0.2,0.2-0.3,0.4-0.4,0.7c-0.1,0.3-0.2,0.6-0.3,1
			c-0.1,0.4-0.1,0.7-0.1,1.1c0,0.4,0,0.8,0.1,1.2c0.1,0.4,0.1,0.7,0.3,0.9c0.1,0.3,0.3,0.5,0.4,0.6s0.4,0.2,0.6,0.2
			c0.2,0,0.5-0.1,0.6-0.2s0.3-0.3,0.5-0.6s0.2-0.6,0.3-0.9C347,75.9,347.1,75.5,347.1,75z"/>
	</g>
	<g>
		<path class="st1" d="M281.6,73.3h10V74h-10V73.3z M281.6,75.7h9.5v0.7h-9.5V75.7z M284.6,78.6c0.4,0.9,1,1.7,1.7,2.2
			c0.7,0.5,1.5,0.8,2.5,0.8c1.1,0,2.1-0.4,3-1.1v1.3c-0.5,0.3-0.9,0.5-1.4,0.6c-0.5,0.1-1,0.2-1.6,0.2c-1.2,0-2.2-0.3-3-0.9
			c-0.9-0.6-1.6-1.5-2-2.5c-0.5-1.1-0.7-2.3-0.7-3.7c0-1,0.1-2,0.4-2.9s0.7-1.6,1.2-2.3c0.5-0.6,1.1-1.1,1.8-1.5s1.5-0.5,2.4-0.5
			c0.5,0,1.1,0.1,1.6,0.2c0.5,0.1,1,0.3,1.4,0.6v1.3c-0.9-0.7-1.9-1.1-3-1.1c-1,0-1.8,0.3-2.5,0.8c-0.7,0.5-1.3,1.3-1.7,2.2
			c-0.4,0.9-0.6,2-0.6,3.2C284,76.6,284.2,77.7,284.6,78.6z"/>
	</g>
	<g>
		<path class="st3" d="M30.9,25.4c-0.1,0-0.3,0-0.5,0c-0.2,0-0.4,0-0.6,0c-0.2,0-0.5,0-0.8,0c-0.5,0-1.1,0-1.8,0.1
			c-0.7,0-1.4,0.1-2.3,0.3c0.1-0.2,0.2-0.5,0.3-1c0.1-0.4,0.2-0.9,0.2-1.4c0.1-0.5,0.1-1.1,0.2-1.6c0-0.6,0.1-1.2,0.1-1.7
			c0-0.6,0-1.1,0.1-1.7c0-0.5,0-1,0-1.5c0-0.4,0-0.8,0-1.1s0-0.5,0-0.6c0-1.4-0.1-2.6-0.1-3.8c0-0.5-0.1-1-0.1-1.5
			c0-0.5-0.1-1-0.1-1.4s-0.1-0.8-0.2-1.1c-0.1-0.3-0.1-0.6-0.2-0.7c0.7,0.1,1.3,0.2,1.8,0.2c0.6,0,1.1,0.1,1.5,0.1
			c0.3,0,0.6,0,0.8,0c0.2,0,0.4,0,0.6,0c0.2,0,0.4,0,0.5-0.1c-0.1,0.4-0.1,0.8-0.2,1.4c-0.1,0.6-0.1,1.2-0.2,1.9
			c0,0.7-0.1,1.5-0.1,2.3s0,1.6,0,2.5c0,1,0,2,0,3c0,1,0.1,2,0.2,2.9s0.2,1.8,0.3,2.6C30.5,24,30.7,24.8,30.9,25.4z"/>
		<path class="st3" d="M44.1,11.3c-0.1,0.3-0.2,0.8-0.2,1.2c-0.1,0.5-0.1,1-0.2,1.6s-0.1,1.1-0.1,1.7c0,0.6-0.1,1.2-0.1,1.8
			c0,1.4-0.1,2.8-0.1,4.3c0,0.8-0.1,1.7-0.2,2.5c-0.1,0.8-0.3,1.6-0.5,2.3c-0.2,0.7-0.5,1.4-0.9,2c-0.4,0.6-0.8,1.2-1.3,1.6
			c-0.5,0.4-1.1,0.8-1.8,1c-0.7,0.3-1.4,0.4-2.3,0.4c-0.8,0-1.5-0.1-2.1-0.2c-0.6-0.2-1.1-0.4-1.4-0.7c-0.4-0.3-0.7-0.7-0.8-1.1
			c-0.2-0.4-0.3-0.9-0.3-1.4s0.1-1,0.3-1.4s0.4-0.7,0.7-1c0.3-0.3,0.6-0.5,0.9-0.6c0.4-0.2,0.7-0.2,1.1-0.2c0.5,0,0.9,0.1,1.3,0.4
			c0.4,0.3,0.7,0.7,0.9,1.2c0,0-0.1-0.1-0.2-0.1c-0.1,0-0.1,0-0.2,0c-0.1,0-0.2,0-0.3,0.1c-0.1,0-0.2,0.1-0.3,0.2
			c-0.1,0.1-0.1,0.2-0.2,0.3c0,0.1-0.1,0.2-0.1,0.3c0,0.1,0,0.2,0.1,0.3c0,0.1,0.1,0.2,0.2,0.2c0.1,0,0.1,0.1,0.2,0.1
			c0.1,0,0.2,0,0.2,0c0.1,0,0.3,0,0.4-0.1s0.3-0.2,0.5-0.3s0.4-0.4,0.6-0.7s0.3-0.6,0.5-1.1c0.1-0.5,0.3-1,0.3-1.7
			c0.1-0.7,0.1-1.5,0.1-2.4c-0.2,0.6-0.4,1-0.7,1.4c-0.2,0.4-0.5,0.6-0.7,0.8c-0.3,0.2-0.5,0.3-0.8,0.4s-0.6,0.1-0.9,0.1
			c-0.4,0-0.8-0.1-1.3-0.2c-0.4-0.1-0.8-0.4-1.2-0.8c-0.4-0.4-0.7-0.9-0.9-1.5c-0.2-0.6-0.4-1.4-0.4-2.4c0-0.1,0-0.2,0-0.3
			c0-0.1,0-0.1,0-0.1c0,0,0-0.1,0-0.1c0,0,0-0.1,0-0.2c0-0.1,0-0.3,0-0.5c0-0.2,0-0.5,0-0.9c0-0.5,0-1,0-1.6c0-0.6-0.1-1.2-0.1-1.7
			c-0.1-0.6-0.1-1.1-0.2-1.5c-0.1-0.5-0.2-0.8-0.4-1c0.7,0.1,1.3,0.2,1.9,0.2c0.6,0,1.1,0.1,1.6,0.1c0.3,0,0.6,0,0.9,0s0.5,0,0.7,0
			c0.2,0,0.4,0,0.6-0.1c-0.1,0.1-0.1,0.4-0.2,0.8c-0.1,0.4-0.2,0.9-0.2,1.4c-0.1,0.5-0.1,1.1-0.2,1.8c0,0.7-0.1,1.3-0.1,2
			c0,0.5,0,0.9,0.1,1.3c0.1,0.4,0.2,0.6,0.3,0.9c0.1,0.2,0.3,0.4,0.4,0.5c0.2,0.1,0.3,0.2,0.5,0.2c0.3,0,0.6-0.1,0.7-0.4
			s0.3-0.6,0.5-1c0-0.5,0-1.1-0.1-1.8c0-0.7-0.1-1.4-0.2-2.1c-0.1-0.7-0.2-1.5-0.3-2.2s-0.2-1.4-0.4-2.1c0.3,0.1,0.6,0.2,0.9,0.2
			c0.3,0.1,0.7,0.1,1.1,0.2c0.4,0,0.9,0.1,1.5,0.1C42.4,11.5,43.2,11.4,44.1,11.3z"/>
		<path class="st3" d="M55.5,14.3c0,0.3-0.1,0.6-0.2,0.9c-0.1,0.3-0.3,0.5-0.5,0.7c-0.2,0.2-0.5,0.3-0.8,0.4
			c-0.3,0.1-0.6,0.2-0.9,0.2c-0.4,0-0.7,0-1-0.1c-0.3-0.1-0.5-0.2-0.7-0.3c-0.2-0.1-0.3-0.3-0.4-0.5c-0.1-0.2-0.2-0.3-0.3-0.5
			c-0.1-0.2-0.1-0.3-0.1-0.5c0-0.1,0-0.2,0-0.3c0.1,0.1,0.2,0.2,0.3,0.3c0.1,0,0.2,0,0.3,0c0.2,0,0.3,0,0.4-0.1
			c0.1-0.1,0.1-0.2,0.1-0.3c0-0.1,0-0.1,0-0.2c0-0.1-0.1-0.2-0.2-0.2c-0.1-0.1-0.2-0.1-0.3-0.2c-0.1,0-0.3-0.1-0.5-0.1
			c-0.1,0-0.3,0-0.4,0.1c-0.1,0-0.3,0.1-0.4,0.2c-0.1,0.1-0.2,0.2-0.3,0.4c-0.1,0.2-0.1,0.3-0.1,0.5c0,0.4,0.1,0.7,0.3,0.9
			c0.2,0.3,0.4,0.5,0.7,0.7c0.3,0.2,0.7,0.4,1,0.5c0.4,0.2,0.8,0.3,1.2,0.5c0.4,0.2,0.8,0.4,1.2,0.6c0.4,0.2,0.7,0.5,1,0.8
			s0.6,0.7,0.7,1.1c0.2,0.4,0.3,0.9,0.3,1.5c0,0.8-0.2,1.4-0.5,2.1c-0.3,0.6-0.7,1.1-1.2,1.6c-0.5,0.4-1.1,0.8-1.8,1
			c-0.7,0.2-1.4,0.3-2.2,0.3c-0.7,0-1.4-0.1-2-0.3c-0.6-0.2-1.2-0.5-1.6-0.8s-0.8-0.7-1.1-1.2c-0.3-0.5-0.4-1-0.4-1.5
			c0-0.4,0.1-0.8,0.2-1c0.1-0.3,0.3-0.5,0.5-0.7c0.2-0.2,0.5-0.3,0.8-0.4c0.3-0.1,0.7-0.1,1-0.1c0.3,0,0.5,0,0.8,0.1
			c0.3,0.1,0.5,0.1,0.8,0.3c0.2,0.1,0.5,0.3,0.6,0.4c0.2,0.2,0.3,0.4,0.5,0.6c-0.1,0-0.1,0-0.2,0c-0.1,0-0.1,0-0.2,0
			c-0.2,0-0.3,0-0.4,0.1c-0.1,0.1-0.2,0.2-0.2,0.5c0,0.2,0.1,0.4,0.3,0.6c0.2,0.2,0.4,0.2,0.6,0.2c0.1,0,0.3,0,0.4-0.1
			c0.1-0.1,0.2-0.1,0.3-0.2c0.1-0.1,0.1-0.2,0.2-0.3c0-0.1,0.1-0.2,0.1-0.4c0-0.2-0.1-0.4-0.2-0.7c-0.1-0.2-0.3-0.5-0.6-0.6
			c-0.5-0.3-1-0.6-1.5-0.8c-0.5-0.2-0.9-0.4-1.3-0.7c-0.4-0.2-0.7-0.4-1-0.6s-0.6-0.4-0.8-0.7c-0.2-0.3-0.4-0.6-0.5-1
			c-0.1-0.4-0.2-0.8-0.2-1.4c0-0.6,0.1-1.2,0.4-1.7c0.2-0.5,0.6-1,1.1-1.4s1-0.7,1.7-0.9c0.7-0.2,1.4-0.3,2.3-0.3
			c0.9,0,1.6,0.1,2.2,0.3s1.1,0.5,1.5,0.8c0.4,0.3,0.6,0.7,0.8,1.1C55.4,13.5,55.5,13.9,55.5,14.3z"/>
		<g>
			<path class="st3" d="M48.9,46.9c-0.2,0-0.3,0-0.5,0c-0.2,0-0.4,0-0.6,0c-0.2,0-0.5,0-0.8,0c-0.4,0-0.9,0-1.3,0
				c-0.5,0-1,0.1-1.5,0.2l0-3.5c-0.3,1.2-0.8,2.2-1.4,2.8c-0.6,0.7-1.3,1-2.1,1c-0.3,0-0.5,0-0.9-0.1c-0.3-0.1-0.6-0.2-1-0.4
				c-0.3-0.2-0.7-0.4-1-0.8c-0.3-0.3-0.6-0.8-0.8-1.3c-0.2-0.5-0.4-1.2-0.6-1.9c-0.1-0.7-0.2-1.6-0.2-2.6c0-1.4,0.1-2.6,0.4-3.5
				c0.3-1,0.6-1.8,1.1-2.4c0.4-0.6,0.9-1.1,1.4-1.4c0.5-0.3,1-0.4,1.5-0.4c0.4,0,0.8,0.1,1.2,0.2c0.3,0.1,0.7,0.3,0.9,0.5
				c0.3,0.2,0.5,0.4,0.7,0.6c0.2,0.2,0.4,0.5,0.5,0.7c0-0.3-0.1-0.6-0.1-0.9c0-0.3-0.1-0.6-0.2-1c0.5,0.1,1.1,0.2,1.6,0.2
				c0.5,0,1.1,0,1.5,0c0.6,0,1,0,1.4,0c0.2,0,0.4,0,0.5,0c-0.1,0.4-0.2,0.9-0.2,1.4c-0.1,0.5-0.1,1-0.2,1.6
				c-0.1,0.6-0.1,1.2-0.1,1.8c0,0.6,0,1.3,0,1.9c0,1.2,0.1,2.5,0.2,3.7C48.4,44.7,48.6,45.8,48.9,46.9z M43.8,39.9v-2
				c0-0.2,0-0.4,0-0.7c0-0.2-0.1-0.4-0.2-0.6c-0.1-0.2-0.2-0.3-0.4-0.5C43.1,36,42.9,36,42.6,36c-0.3,0-0.5,0.1-0.7,0.3
				c-0.2,0.2-0.3,0.5-0.5,0.8c-0.1,0.4-0.2,0.8-0.2,1.3c0,0.5-0.1,1-0.1,1.6c0,0.3,0,0.7,0.1,1c0,0.3,0.1,0.6,0.2,0.9
				c0.1,0.3,0.2,0.5,0.4,0.7c0.2,0.2,0.4,0.3,0.7,0.3c0.3,0,0.5-0.1,0.7-0.3c0.2-0.2,0.3-0.5,0.4-0.8c0.1-0.3,0.2-0.6,0.2-1
				C43.8,40.5,43.8,40.2,43.8,39.9z"/>
			<path class="st3" d="M50,46.9c0.1-0.5,0.3-1.2,0.4-1.9c0.1-0.7,0.2-1.5,0.3-2.3c0.1-0.8,0.1-1.7,0.1-2.6c0-0.9,0-1.8,0-2.7
				c0-1,0-1.9,0-2.9c0-0.9-0.1-1.8-0.1-2.7c-0.1-0.8-0.1-1.6-0.2-2.2c-0.1-0.7-0.2-1.2-0.2-1.6c0.1,0,0.3,0,0.5,0.1
				c0.2,0,0.4,0,0.6,0c0.2,0,0.5,0,0.8,0c0.5,0,1,0,1.5-0.1c0.6,0,1.2-0.1,1.8-0.2c-0.1,0.2-0.1,0.4-0.2,0.7c-0.1,0.3-0.1,0.6-0.2,1
				c0,0.4-0.1,0.8-0.1,1.3c0,0.5-0.1,0.9-0.1,1.4c0,0.5,0,0.9-0.1,1.4c0,0.4,0,0.9,0,1.2c0.3-0.7,0.8-1.3,1.3-1.7
				c0.6-0.4,1.3-0.6,2.1-0.6c0.2,0,0.4,0,0.7,0.1c0.3,0.1,0.6,0.2,0.9,0.4c0.3,0.2,0.6,0.5,1,0.8c0.3,0.3,0.6,0.8,0.9,1.3
				c0.3,0.5,0.5,1.2,0.6,1.9c0.2,0.7,0.2,1.6,0.2,2.6c0,1.5-0.1,2.7-0.4,3.7c-0.3,1-0.7,1.8-1.1,2.4s-1,1-1.5,1.3
				c-0.6,0.3-1.1,0.4-1.6,0.4c-0.4,0-0.7-0.1-1.1-0.3s-0.7-0.5-0.9-0.8c-0.3-0.3-0.5-0.7-0.7-1.1c-0.2-0.4-0.4-0.9-0.5-1.3
				c0,0.2,0.1,0.4,0.1,0.8c0,0.3,0.1,0.7,0.1,1c0,0.3,0.1,0.7,0.2,1c0.1,0.3,0.1,0.5,0.2,0.6c-0.5-0.1-1-0.2-1.6-0.2
				c-0.5,0-1,0-1.5,0c-0.3,0-0.6,0-0.9,0c-0.3,0-0.5,0-0.7,0C50.4,46.9,50.2,46.9,50,46.9z M55,39.9v0.7c0,0.2,0,0.4,0,0.7
				c0,0.2,0.1,0.4,0.2,0.6c0.1,0.2,0.2,0.3,0.4,0.5c0.2,0.1,0.4,0.2,0.7,0.2c0.2,0,0.4-0.1,0.5-0.2c0.1-0.1,0.3-0.3,0.3-0.5
				c0.1-0.2,0.2-0.4,0.2-0.6c0.1-0.2,0.1-0.5,0.1-0.7c0-0.2,0-0.5,0-0.7c0-0.2,0-0.4,0-0.6c0-0.2,0-0.5,0-0.9c0-0.4-0.1-0.7-0.1-1.1
				c-0.1-0.4-0.2-0.7-0.3-0.9c-0.2-0.3-0.4-0.4-0.6-0.4c-0.2,0-0.4,0.1-0.5,0.2c-0.1,0.1-0.3,0.3-0.4,0.6c-0.1,0.2-0.2,0.5-0.2,0.8
				c-0.1,0.3-0.1,0.6-0.1,0.9c0,0.3-0.1,0.6-0.1,0.8C55,39.5,55,39.7,55,39.9z"/>
			<path class="st3" d="M69.7,46.7c-0.1,0-0.3,0-0.5,0c-0.2,0-0.4,0-0.6,0c-0.2,0-0.5,0-0.8,0c-0.5,0-1.1,0-1.8,0.1
				c-0.7,0-1.4,0.1-2.3,0.3c0.1-0.2,0.2-0.5,0.3-1c0.1-0.4,0.2-0.9,0.2-1.4c0.1-0.5,0.1-1.1,0.2-1.6c0-0.6,0.1-1.2,0.1-1.7
				c0-0.6,0-1.1,0.1-1.7c0-0.5,0-1,0-1.5c0-0.4,0-0.8,0-1.1s0-0.5,0-0.6c0-1.4-0.1-2.6-0.1-3.8c0-0.5-0.1-1-0.1-1.5
				c0-0.5-0.1-1-0.1-1.4c0-0.4-0.1-0.8-0.2-1.1c-0.1-0.3-0.1-0.6-0.2-0.7c0.7,0.1,1.3,0.2,1.8,0.2c0.6,0,1.1,0.1,1.5,0.1
				c0.3,0,0.6,0,0.8,0c0.2,0,0.4,0,0.6,0c0.2,0,0.4,0,0.5-0.1c-0.1,0.4-0.1,0.8-0.2,1.4c-0.1,0.6-0.1,1.2-0.2,1.9
				c0,0.7-0.1,1.5-0.1,2.3c0,0.8,0,1.6,0,2.5c0,1,0,2,0,3c0,1,0.1,2,0.2,2.9c0.1,0.9,0.2,1.8,0.3,2.6C69.3,45.4,69.5,46.1,69.7,46.7
				z"/>
			<path class="st3" d="M81.4,35.3c0,0.6-0.1,1.2-0.3,1.8c-0.2,0.6-0.5,1.1-0.9,1.5s-1,0.8-1.8,1.1c-0.7,0.3-1.7,0.4-2.9,0.4
				c0,0.4,0.1,0.7,0.3,1c0.1,0.3,0.3,0.5,0.5,0.7c0.2,0.2,0.4,0.3,0.6,0.4c0.2,0.1,0.4,0.1,0.6,0.2c0.2,0,0.4,0,0.6,0
				c0.5-0.1,1-0.2,1.4-0.4c0.2-0.1,0.3-0.2,0.5-0.3c0.2-0.1,0.3-0.3,0.4-0.5c0.1-0.2,0.2-0.4,0.3-0.6c0.1-0.2,0.1-0.5,0.2-0.8
				c0.2,0.5,0.4,1,0.4,1.5c0.1,0.5,0.1,0.9,0.1,1.3c0,0.7-0.1,1.4-0.4,2c-0.3,0.6-0.6,1.2-1.1,1.6s-1,0.8-1.7,1
				c-0.6,0.2-1.3,0.4-2.1,0.4c-0.7,0-1.4-0.1-2.1-0.4c-0.7-0.3-1.3-0.7-1.8-1.2c-0.5-0.6-0.9-1.3-1.3-2.2c-0.3-0.9-0.5-2-0.5-3.2
				c0-1.4,0.2-2.6,0.6-3.6s0.9-1.9,1.6-2.7c0.7-0.7,1.4-1.3,2.3-1.6c0.9-0.4,1.8-0.6,2.7-0.6c0.5,0,0.9,0.1,1.4,0.2
				c0.4,0.1,0.8,0.3,1.2,0.5s0.6,0.6,0.8,1C81.3,34.3,81.4,34.8,81.4,35.3z M75.5,38.1c0.2,0,0.5-0.1,0.8-0.1
				c0.3-0.1,0.6-0.2,0.9-0.4c0.3-0.2,0.5-0.3,0.7-0.6c0.2-0.2,0.3-0.5,0.3-0.8c0-0.2-0.1-0.3-0.2-0.5c-0.1-0.1-0.3-0.2-0.5-0.2
				c-0.3,0-0.5,0.1-0.8,0.2c-0.2,0.2-0.4,0.4-0.6,0.6s-0.3,0.5-0.4,0.8S75.6,37.9,75.5,38.1z"/>
		</g>
		<g>
			<path class="st4" d="M64.9,11.5c0,0.4-0.1,0.8-0.2,1.3c-0.2,0.5-0.3,0.9-0.6,1.4c-0.2,0.5-0.5,0.9-0.8,1.3
				c-0.3,0.4-0.6,0.7-0.8,1l-2.9-0.3c0.3-0.2,0.6-0.5,0.8-0.8c0.3-0.3,0.5-0.6,0.7-0.9c-0.4,0-0.7-0.1-1-0.3
				c-0.3-0.2-0.5-0.4-0.8-0.6c-0.2-0.3-0.4-0.6-0.5-0.9c-0.1-0.3-0.2-0.7-0.2-1.1c0-0.3,0.1-0.7,0.2-1c0.1-0.3,0.3-0.7,0.5-1
				C59.7,9.2,60,9,60.4,8.8c0.4-0.2,0.9-0.3,1.4-0.3c0.5,0,1,0.1,1.4,0.2c0.4,0.1,0.7,0.3,1,0.6c0.2,0.3,0.4,0.6,0.6,0.9
				C64.8,10.6,64.9,11,64.9,11.5z"/>
			<path class="st3" d="M62.6,16.7l-3.5-0.4l0.4-0.3c0.3-0.2,0.6-0.5,0.8-0.8c0.2-0.2,0.3-0.4,0.5-0.6c-0.2-0.1-0.5-0.1-0.7-0.3
				c-0.3-0.2-0.6-0.4-0.8-0.7c-0.2-0.3-0.4-0.6-0.5-1c-0.1-0.4-0.2-0.8-0.2-1.2c0-0.3,0.1-0.7,0.2-1.1c0.1-0.4,0.3-0.7,0.5-1
				c0.3-0.3,0.6-0.6,1-0.8c0.4-0.2,0.9-0.3,1.5-0.3c0.5,0,1,0.1,1.4,0.2c0.4,0.2,0.8,0.4,1,0.7c0.3,0.3,0.5,0.6,0.6,1
				c0.1,0.4,0.2,0.8,0.2,1.3c0,0.4-0.1,0.9-0.2,1.4c-0.2,0.5-0.4,1-0.6,1.4c-0.2,0.5-0.5,0.9-0.8,1.3C63.2,16,62.9,16.4,62.6,16.7
				L62.6,16.7z M60.1,16l2.3,0.3c0.2-0.2,0.5-0.5,0.7-0.9c0.3-0.4,0.5-0.8,0.7-1.3c0.2-0.5,0.4-0.9,0.6-1.4c0.1-0.5,0.2-0.9,0.2-1.2
				c0-0.4-0.1-0.8-0.2-1.2C64.4,10,64.2,9.7,64,9.5c-0.2-0.2-0.5-0.4-0.9-0.6c-0.4-0.1-0.8-0.2-1.3-0.2c-0.5,0-1,0.1-1.4,0.3
				c-0.4,0.2-0.6,0.4-0.9,0.7c-0.2,0.3-0.4,0.6-0.5,0.9c-0.1,0.3-0.1,0.6-0.1,0.9c0,0.4,0.1,0.7,0.2,1c0.1,0.3,0.3,0.6,0.4,0.8
				c0.2,0.2,0.4,0.4,0.7,0.6c0.3,0.1,0.6,0.2,0.9,0.3l0.4,0l-0.2,0.3c-0.2,0.3-0.5,0.6-0.7,0.9C60.5,15.6,60.3,15.8,60.1,16z"/>
		</g>
		<g>
			<path class="st3" d="M24.1,25.8c-0.4-0.1-0.8-0.1-1.2-0.2c-0.4,0-0.8-0.1-1.3-0.1c-0.4,0-0.9,0-1.4,0c-0.5,0-1.1,0-1.6,0
				c-0.3,0-0.6,0-1,0c-0.4,0-0.8,0-1.2,0.1c-0.4,0-0.9,0.1-1.4,0.1c-0.5,0.1-0.9,0.1-1.4,0.2c0.2-0.3,0.3-0.7,0.4-1.3
				c0.1-0.5,0.2-1,0.3-1.6c0.1-0.6,0.1-1.1,0.2-1.7c0-0.6,0.1-1.1,0.1-1.6s0-0.9,0-1.3c0-0.4,0-0.6,0-0.8c0,0,0-0.1,0-0.3
				c0-0.2,0-0.5,0-0.8c0-0.3,0-0.7,0-1.1c0-0.4,0-0.8-0.1-1.3c0-0.4-0.1-0.9-0.1-1.3c0-0.4-0.1-0.9-0.1-1.3
				c-0.1-0.4-0.1-0.8-0.2-1.1c-0.1-0.3-0.2-0.6-0.2-0.8c0.7,0.1,1.4,0.2,2.1,0.2c0.7,0,1.4,0.1,2,0.1c0.8,0,1.6,0,2.3-0.1
				c0.7,0,1.3-0.1,1.8-0.2c0.6-0.1,1.2-0.1,1.7-0.2v5.2c-0.4-0.4-0.8-0.7-1.2-0.9c-0.4-0.2-0.7-0.4-1-0.5c-0.4-0.1-0.7-0.2-1-0.2
				c-0.4,0-0.7,0-0.9,0.1c-0.2,0.1-0.4,0.2-0.5,0.4c-0.1,0.1-0.2,0.3-0.3,0.5c0,0.2-0.1,0.4-0.1,0.5c0,0.2,0,0.4,0.1,0.6
				c0.1,0.2,0.1,0.4,0.3,0.5c0.1,0.2,0.3,0.3,0.5,0.4c0.2,0.1,0.4,0.1,0.7,0.1c0.2,0,0.4,0,0.6-0.1c0.2-0.1,0.3-0.2,0.5-0.3
				c0.1-0.1,0.3-0.3,0.4-0.5v4.5c-0.1-0.3-0.3-0.5-0.4-0.7c-0.2-0.2-0.3-0.3-0.5-0.4c-0.2-0.1-0.3-0.1-0.4-0.1c-0.1,0-0.2,0-0.2,0
				c-0.5,0-0.8,0.1-1.1,0.4c-0.2,0.3-0.4,0.7-0.4,1.1c0,0.3,0,0.6,0.1,0.9c0.1,0.2,0.2,0.4,0.3,0.6c0.1,0.1,0.3,0.3,0.5,0.3
				c0.2,0.1,0.4,0.1,0.5,0.1c0.3,0,0.6-0.1,0.9-0.2c0.3-0.1,0.7-0.3,1-0.5c0.3-0.2,0.6-0.5,0.9-0.8c0.3-0.3,0.5-0.6,0.6-0.9
				L24.1,25.8z"/>
		</g>
		<g>
			<g>
				<g>
					<path class="st5" d="M78.8,25.5l-11.3-1.3c-0.5-0.1-0.9-0.5-0.8-1L68,11.8c0.1-0.5,0.5-0.9,1-0.8l11.3,1.3
						c0.5,0.1,0.9,0.5,0.8,1l-1.3,11.3C79.7,25.2,79.3,25.5,78.8,25.5z"/>
					<path d="M78.9,25.7c0,0-0.1,0-0.1,0l-11.3-1.3c-0.6-0.1-1-0.6-0.9-1.2l1.3-11.3c0-0.3,0.2-0.5,0.4-0.7c0.2-0.2,0.5-0.3,0.8-0.2
						l11.3,1.3c0.6,0.1,1,0.6,0.9,1.2l-1.3,11.3c0,0.3-0.2,0.5-0.4,0.7C79.4,25.6,79.1,25.7,78.9,25.7z M68.9,11.2
						c-0.2,0-0.3,0.1-0.5,0.2c-0.2,0.1-0.3,0.3-0.3,0.5l-1.3,11.3c0,0.4,0.2,0.8,0.7,0.8l11.3,1.3c0.2,0,0.4,0,0.5-0.2
						c0.2-0.1,0.3-0.3,0.3-0.5L81,13.4c0-0.4-0.2-0.8-0.7-0.8L68.9,11.2C69,11.2,68.9,11.2,68.9,11.2z"/>
				</g>
			</g>
			<g>
				<g>
					<path class="st4" d="M72.2,19.8c0.1-0.6,0.5-1,1-0.9C73.7,19,74,19.4,74,20c-0.1,0.6-0.5,1-1,0.8
						C72.4,20.4,72.2,20.3,72.2,19.8z"/>
					<path class="st6" d="M73.2,21c-0.1,0-0.2,0-0.3-0.1l-0.1,0c-0.6-0.3-0.9-0.5-0.8-1.1l0,0c0-0.3,0.2-0.6,0.4-0.8
						c0.2-0.2,0.5-0.3,0.8-0.3c0.6,0.1,1,0.6,0.9,1.3c0,0.4-0.3,0.7-0.6,0.9C73.5,21,73.3,21,73.2,21z M73.1,19.1
						c-0.2,0-0.3,0.1-0.5,0.2c-0.2,0.1-0.3,0.3-0.3,0.6v0c0,0.4,0,0.5,0.6,0.8l0.1,0c0.1,0.1,0.2,0.1,0.3,0c0.2-0.1,0.4-0.4,0.4-0.6
						C73.9,19.5,73.6,19.1,73.1,19.1C73.2,19.1,73.2,19.1,73.1,19.1z M72.2,19.8L72.2,19.8L72.2,19.8z"/>
				</g>
				<circle class="st6" cx="73.3" cy="19.6" r="0.7"/>
				<g>
					<path class="st4" d="M76.9,20.3c0.1-0.6-0.3-1-0.8-1.1c-0.5-0.1-0.9,0.3-1,0.9c-0.1,0.6,0.3,1.1,0.8,1
						C76.6,20.9,76.8,20.9,76.9,20.3z"/>
					<path class="st6" d="M75.8,21.3c-0.2,0-0.3-0.1-0.4-0.2c-0.3-0.2-0.4-0.6-0.3-1c0-0.3,0.2-0.6,0.4-0.8c0.2-0.2,0.5-0.3,0.8-0.3
						c0.3,0,0.5,0.2,0.7,0.4c0.2,0.2,0.2,0.5,0.2,0.8c-0.1,0.6-0.4,0.7-1,0.9l-0.1,0C75.9,21.3,75.9,21.3,75.8,21.3z M76.1,19.4
						c-0.2,0-0.3,0.1-0.5,0.2c-0.2,0.1-0.3,0.3-0.3,0.6c0,0.3,0.1,0.6,0.2,0.7c0.1,0.1,0.2,0.1,0.3,0.1l0.1,0
						c0.6-0.2,0.7-0.2,0.8-0.6c0-0.2,0-0.4-0.1-0.6C76.5,19.5,76.3,19.4,76.1,19.4C76.1,19.4,76.1,19.4,76.1,19.4z"/>
				</g>
				<circle class="st6" cx="76.2" cy="19.9" r="0.7"/>
			</g>
		</g>
		<g>
			<g>
				<path class="st6" d="M24.7,42.9v4.3h2.3c0.4,0,0.6-0.3,0.6-0.6l0,0c0-0.4-0.3-0.6-0.6-0.6h-0.8v-3.8h-1.5L24.7,42.9z"/>
				<path class="st6" d="M26.9,47.4h-2.3c-0.1,0-0.2-0.1-0.2-0.2v-4.3l0-0.7c0,0,0-0.1,0-0.1c0,0,0.1,0,0.1,0h1.5
					c0.1,0,0.2,0.1,0.2,0.2v3.6h0.6c0.4,0,0.8,0.4,0.8,0.8C27.7,47,27.4,47.4,26.9,47.4z M24.8,47.1h2.1c0.3,0,0.5-0.2,0.5-0.5
					c0-0.3-0.2-0.5-0.5-0.5h-0.8c-0.1,0-0.2-0.1-0.2-0.2v-3.6h-1.2l0,0.6c0,0,0,0,0,0V47.1z"/>
			</g>
			<g>
				<path class="st6" d="M28.5,38.5c0.2-0.3,0.6-0.4,0.9-0.2c0.4,0.2,1.6,1.2,1.9,3.4c0.2,1.6-0.1,2.9-0.1,3
					c-0.1,0.3-0.3,0.5-0.7,0.5c0,0-0.1,0-0.1,0c-0.4-0.1-0.6-0.4-0.5-0.8c0,0,0-0.1,0.1-0.4c0-0.1-0.1-0.1-0.1-0.1
					c-0.1,0-0.4,0.3-0.4,0.1s0.2-0.7,0.4-0.9c0.2-0.2,0.2-0.5,0.2-0.5l0,0c0-0.2,0-0.5-0.1-0.8c-0.1-0.9-0.5-1.9-1.3-2.4
					C28.4,39.2,28.3,38.8,28.5,38.5z"/>
				<path class="st6" d="M30.7,45.3c-0.1,0-0.1,0-0.2,0c-0.4-0.1-0.7-0.5-0.6-1c0,0,0-0.1,0-0.2c-0.1,0.1-0.3,0.1-0.4,0.1
					c0,0-0.1-0.1-0.1-0.2c0-0.3,0.3-0.8,0.5-1c0.1-0.1,0.1-0.3,0.1-0.4c0,0,0,0,0,0c0-0.2,0-0.5-0.1-0.7c-0.1-0.8-0.5-1.9-1.2-2.3
					c-0.2-0.1-0.3-0.3-0.4-0.5c0-0.2,0-0.4,0.1-0.6c0.1-0.2,0.3-0.3,0.5-0.4c0.2,0,0.4,0,0.6,0.1c0.4,0.2,1.7,1.2,2,3.5
					c0.2,1.6-0.1,3-0.1,3.1C31.4,45,31,45.3,30.7,45.3z M30,43.7C30,43.7,30,43.7,30,43.7c0.1,0,0.2,0.1,0.2,0.2c0,0,0,0,0,0.1
					c0,0.2-0.1,0.4-0.1,0.4c-0.1,0.3,0.1,0.6,0.4,0.6c0.3,0.1,0.6-0.1,0.6-0.4c0-0.1,0.3-1.3,0.1-2.9c-0.3-2.1-1.5-3-1.8-3.3
					c-0.1-0.1-0.3-0.1-0.4-0.1c-0.1,0-0.2,0.1-0.3,0.2c-0.2,0.2-0.1,0.6,0.2,0.7c0.8,0.5,1.3,1.7,1.4,2.5c0,0.3,0.1,0.5,0.1,0.8
					c0,0,0,0,0,0.1c0,0.1,0,0.4-0.2,0.6c-0.1,0.1-0.3,0.5-0.4,0.7c0,0,0.1,0,0.2-0.1c0,0,0,0,0,0C29.9,43.7,29.9,43.7,30,43.7z"/>
			</g>
			<g>
				<path class="st7" d="M23.8,31.2l-5.8,3.4v3c-0.9-0.1-1.7-0.9-2.1-1.6c-0.2-0.2-0.3-0.4-0.4-0.7l0,0c0,0-0.2-0.3,0-0.5
					c0.1-0.2,0.1-0.8,0-1c-0.1-0.2-0.3,0.2-0.4,0.3c0,0.1-0.1,0.1-0.1,0c-0.1-0.2-0.1-0.4-0.1-0.4c-0.1-0.4-0.5-0.6-0.8-0.5
					c0,0-0.1,0-0.1,0.1c-0.3,0.1-0.4,0.5-0.4,0.8c0,0.1,0.3,1.4,1.3,2.7c1.3,1.8,2.8,2.1,3.2,2.2c0,0,0,0,0,0v2.3l3.4,2v2.7h-0.8
					c-0.4,0-0.6,0.3-0.6,0.6c0,0.4,0.3,0.6,0.6,0.6h2.3v-3.1l0.9,0.5l5.8-3.4v-6.7L23.8,31.2z"/>
				<path d="M23,47.4h-2.4c-0.4,0-0.8-0.4-0.8-0.8c0-0.4,0.4-0.8,0.8-0.8h0.6v-2.4l-3.4-2v-2.2c-0.6-0.1-2-0.5-3.2-2.2
					c-0.9-1.4-1.3-2.7-1.3-2.8c-0.1-0.4,0.1-0.8,0.4-0.9c0.1,0,0.1,0,0.2-0.1c0.4-0.1,0.9,0.2,1,0.6c0,0,0,0.1,0.1,0.2
					c0.1-0.1,0.2-0.3,0.3-0.3c0,0,0.2,0,0.2,0.1c0.2,0.3,0.1,0.8,0,1.1c-0.1,0.1,0,0.3,0,0.4l0.1,0.1l0,0c0.1,0.2,0.2,0.4,0.3,0.5
					c0.4,0.6,1.1,1.3,1.8,1.5v-2.9l6-3.4l6,3.4v6.9l-6,3.4L23,44.4V47.4z M20.6,46.1c-0.3,0-0.5,0.2-0.5,0.5c0,0.3,0.2,0.5,0.5,0.5
					h2.1v-3.2l1.1,0.6l5.6-3.3v-6.5l-5.6-3.3l-5.6,3.3v3.1l-0.2,0c-0.9-0.1-1.8-0.9-2.2-1.6c-0.1-0.2-0.3-0.4-0.4-0.7l-0.1-0.1l0,0
					c0-0.1-0.1-0.4,0-0.6c0.1-0.2,0.1-0.6,0-0.8c0,0-0.1,0.1-0.1,0.2c0,0,0,0,0,0c0,0.1-0.1,0.1-0.2,0.1c0,0-0.1,0-0.2-0.1l0,0l0,0
					c-0.1-0.2-0.1-0.4-0.1-0.4c-0.1-0.3-0.3-0.4-0.6-0.4c0,0-0.1,0-0.1,0c-0.2,0.1-0.3,0.4-0.3,0.6c0,0.1,0.3,1.3,1.2,2.7
					c1.2,1.8,2.7,2.1,3.1,2.1l0.2,0l0,0.2v2.2l3.4,2v3H20.6z"/>
			</g>
			<g>
				<g>
					<path class="st4" d="M22.4,37.9v0.7c0,0.1,0,0.2-0.1,0.3c-0.1,0.2-0.3,0.4-0.5,0.4l0,0c-0.2,0-0.4-0.1-0.5-0.3
						c-0.1-0.1-0.1-0.2-0.1-0.3v-0.8c0-0.1,0-0.2,0.1-0.3c0.1-0.2,0.3-0.3,0.5-0.3l0,0c0.2,0,0.3,0.1,0.4,0.2
						C22.4,37.6,22.4,37.7,22.4,37.9z"/>
					<path class="st6" d="M21.8,39.5c-0.3,0-0.5-0.1-0.6-0.4c-0.1-0.1-0.1-0.3-0.1-0.4v-0.8c0-0.2,0-0.3,0.1-0.4
						c0.1-0.2,0.4-0.4,0.6-0.4c0.2,0,0.4,0.1,0.6,0.3c0.1,0.2,0.2,0.4,0.2,0.6v0.7c0,0.1,0,0.3-0.1,0.4
						C22.4,39.3,22.1,39.5,21.8,39.5z M21.8,37.4c-0.1,0-0.3,0.1-0.4,0.2c0,0.1-0.1,0.2-0.1,0.3v0.8c0,0.1,0,0.2,0.1,0.3
						c0.1,0.1,0.2,0.2,0.4,0.2c0.2,0,0.3-0.1,0.4-0.3c0-0.1,0-0.1,0-0.2v-0.7c0-0.1,0-0.3-0.1-0.4C22.1,37.4,22,37.4,21.8,37.4z"/>
				</g>
				<circle class="st6" cx="21.8" cy="37.8" r="0.6"/>
				<g>
					<path class="st4" d="M25.8,37.9v0.7c0,0.1,0,0.2-0.1,0.3c-0.1,0.2-0.3,0.4-0.5,0.4l0,0c-0.2,0-0.4-0.1-0.5-0.3
						c-0.1-0.1-0.1-0.2-0.1-0.3v-0.8c0-0.1,0-0.2,0.1-0.3c0.1-0.2,0.3-0.3,0.5-0.3l0,0c0.2,0,0.3,0.1,0.4,0.2
						C25.8,37.6,25.8,37.7,25.8,37.9z"/>
					<path class="st6" d="M25.2,39.5c-0.3,0-0.5-0.1-0.6-0.4c-0.1-0.1-0.1-0.3-0.1-0.4v-0.8c0-0.2,0-0.3,0.1-0.4
						c0.1-0.2,0.4-0.4,0.6-0.4c0.2,0,0.4,0.1,0.6,0.3c0.1,0.2,0.2,0.4,0.2,0.6v0.7c0,0.1,0,0.3-0.1,0.4
						C25.8,39.3,25.5,39.5,25.2,39.5z M25.2,37.4c-0.1,0-0.3,0.1-0.4,0.2c0,0.1-0.1,0.2-0.1,0.3v0.8c0,0.1,0,0.2,0.1,0.3
						c0.1,0.1,0.2,0.2,0.4,0.2c0.2,0,0.3-0.1,0.4-0.3c0-0.1,0-0.1,0-0.2v-0.7c0-0.1,0-0.3-0.1-0.4C25.4,37.4,25.3,37.4,25.2,37.4z"
						/>
				</g>
				<circle class="st6" cx="25.2" cy="37.8" r="0.6"/>
			</g>
		</g>
	</g>
	<line class="st8" x1="149.4" y1="69.4" x2="258.3" y2="69.4"/>
	<g>
		<path class="st1" d="M15.6,109.2l-0.1,0.2l-1.4,3.3h-0.8l4-9.5l4,9.5h-0.8l-1.4-3.3l-0.1-0.2l-1.8-4.3L15.6,109.2z M15.3,109h4.2
			l0.2,0.7H15L15.3,109z M16.3,100.2l2.1,2.1l-0.4,0.3l-2.3-2L16.3,100.2z"/>
		<path class="st1" d="M23,107.3c0.1-0.1,0.2-0.1,0.3-0.1c0.1,0,0.3,0,0.3,0.1c0.1,0.1,0.1,0.2,0.1,0.3c0,0.1,0,0.3-0.1,0.4
			c-0.1,0.1-0.2,0.1-0.3,0.1c-0.1,0-0.2,0-0.3-0.1c-0.1-0.1-0.1-0.2-0.1-0.4C22.9,107.5,22.9,107.4,23,107.3z M23,112.1
			c0.1-0.1,0.2-0.1,0.3-0.1c0.1,0,0.3,0,0.3,0.1c0.1,0.1,0.1,0.2,0.1,0.4c0,0.1,0,0.2-0.1,0.3c-0.1,0.1-0.2,0.1-0.3,0.1
			c-0.1,0-0.2,0-0.3-0.1c-0.1-0.1-0.1-0.2-0.1-0.3C22.9,112.3,22.9,112.2,23,112.1z"/>
	</g>
	<line class="st8" x1="28.3" y1="112.7" x2="258.3" y2="112.7"/>
	<g>
		<path d="M21.5,89c-0.1,0-0.2,0-0.3,0c-0.1,0-0.2,0-0.4,0s-0.3,0-0.5,0c-0.4,0-0.8,0-1.4,0.1s-1.1,0.1-1.8,0.2
			c0.3-1.2,0.5-2.3,0.6-3.4s0.2-2.2,0.2-3.2c0-0.9,0-1.8-0.1-2.6s-0.2-1.6-0.3-2.3c0.5,0.1,1,0.2,1.4,0.2s0.8,0,1.1,0
			c0.2,0,0.4,0,0.6,0s0.3,0,0.4,0c0.1,0,0.2,0,0.3,0c0.2,1,0.4,2,0.7,3s0.6,2,1,3c0.3-1,0.6-2,0.8-3.1s0.3-2.1,0.4-3.1l0.1,0.1
			L24,77.6c0.5,0.1,1,0.2,1.4,0.2s0.8,0,1.1,0c0.2,0,0.4,0,0.6,0s0.3,0,0.4,0c0.1,0,0.3,0,0.4,0c-0.1,0.5-0.2,1.1-0.2,1.8
			s-0.1,1.5-0.1,2.3c0,0.6,0,1.2,0,1.8s0.1,1.2,0.1,1.8s0.1,1.2,0.3,1.8s0.2,1.1,0.4,1.7c-0.1,0-0.2,0-0.4,0c-0.1,0-0.3,0-0.4,0
			s-0.3,0-0.6,0c-0.4,0-0.9,0-1.4,0.1s-1.1,0.1-1.8,0.2c0.1-0.3,0.2-0.6,0.3-1s0.2-0.8,0.2-1.3s0.1-0.9,0.1-1.4s0-0.9,0.1-1.2
			c-0.2,0.3-0.3,0.7-0.4,1s-0.3,0.7-0.4,1.1s-0.3,0.8-0.5,1.2s-0.3,0.9-0.5,1.5c-0.2-0.5-0.4-1-0.5-1.5s-0.3-0.8-0.5-1.2
			s-0.3-0.7-0.4-1.1s-0.3-0.7-0.4-1c0,0.8,0.1,1.6,0.2,2.4S21.3,88.3,21.5,89z"/>
		<path d="M32.6,89c-0.1,0-0.2,0-0.3,0c-0.1,0-0.2,0-0.4,0s-0.3,0-0.5,0c-0.3,0-0.7,0-1.2,0s-0.9,0.1-1.4,0.2
			c0.1-0.2,0.2-0.4,0.2-0.7s0.1-0.6,0.2-1s0.1-0.7,0.1-1s0-0.7,0.1-1s0-0.5,0-0.7s0-0.3,0-0.4c0-0.7,0-1.3-0.1-1.9
			c0-0.2,0-0.5-0.1-0.8s-0.1-0.5-0.1-0.7s-0.1-0.4-0.1-0.6S29,80,29,79.9c0.4,0.1,0.8,0.1,1.2,0.1s0.7,0,1,0c0.2,0,0.4,0,0.5,0
			s0.3,0,0.4,0c0.1,0,0.2,0,0.3,0c-0.1,0.5-0.2,1-0.2,1.7S32,83.1,32,83.9c0,0.4,0,0.9,0,1.3s0.1,0.9,0.1,1.3s0.1,0.9,0.2,1.3
			S32.5,88.6,32.6,89z M29,77.8c0-0.2,0-0.5,0.1-0.7s0.2-0.4,0.4-0.6s0.3-0.3,0.6-0.4s0.4-0.1,0.7-0.1s0.5,0,0.7,0.1
			s0.4,0.2,0.6,0.4s0.3,0.3,0.4,0.6s0.1,0.4,0.1,0.7s0,0.5-0.1,0.7s-0.2,0.4-0.4,0.6s-0.3,0.3-0.6,0.4s-0.4,0.1-0.7,0.1
			s-0.5,0-0.7-0.1s-0.4-0.2-0.6-0.4s-0.3-0.3-0.4-0.6S29,78.1,29,77.8z"/>
		<path d="M36.9,89c-0.1,0-0.2,0-0.3,0c-0.1,0-0.2,0-0.4,0s-0.3,0-0.5,0c-0.3,0-0.7,0-1.2,0s-0.9,0.1-1.4,0.2
			c0.1-0.1,0.1-0.3,0.2-0.6s0.1-0.5,0.1-0.9s0.1-0.7,0.1-1s0.1-0.7,0.1-1.1s0-0.7,0-1.1s0-0.7,0-0.9s0-0.5,0-0.7s0-0.3,0-0.4
			c0-0.9,0-1.7-0.1-2.4c0-0.3,0-0.6-0.1-0.9s0-0.6-0.1-0.9s-0.1-0.5-0.1-0.7s-0.1-0.4-0.1-0.5c0.4,0.1,0.8,0.1,1.2,0.1s0.7,0,1,0
			c0.2,0,0.4,0,0.5,0s0.3,0,0.4,0c0.1,0,0.2,0,0.3,0c0,0.2-0.1,0.5-0.1,0.9s-0.1,0.8-0.1,1.2s-0.1,0.9-0.1,1.4s0,1,0,1.6
			c0,0.6,0,1.3,0,1.9s0.1,1.2,0.1,1.8s0.1,1.1,0.2,1.7S36.8,88.6,36.9,89z"/>
		<path d="M41.1,89c-0.1,0-0.2,0-0.3,0c-0.1,0-0.2,0-0.4,0s-0.3,0-0.5,0c-0.3,0-0.7,0-1.2,0s-0.9,0.1-1.4,0.2
			c0.1-0.1,0.1-0.3,0.2-0.6s0.1-0.5,0.1-0.9s0.1-0.7,0.1-1s0.1-0.7,0.1-1.1s0-0.7,0-1.1s0-0.7,0-0.9s0-0.5,0-0.7s0-0.3,0-0.4
			c0-0.9,0-1.7-0.1-2.4c0-0.3,0-0.6-0.1-0.9s0-0.6-0.1-0.9s-0.1-0.5-0.1-0.7s-0.1-0.4-0.1-0.5c0.4,0.1,0.8,0.1,1.2,0.1s0.7,0,1,0
			c0.2,0,0.4,0,0.5,0s0.3,0,0.4,0c0.1,0,0.2,0,0.3,0c0,0.2-0.1,0.5-0.1,0.9s-0.1,0.8-0.1,1.2s-0.1,0.9-0.1,1.4s0,1,0,1.6
			c0,0.6,0,1.3,0,1.9s0.1,1.2,0.1,1.8s0.1,1.1,0.2,1.7S40.9,88.6,41.1,89z"/>
		<path d="M48.4,81.8c0,0.4-0.1,0.8-0.2,1.1s-0.3,0.7-0.6,1s-0.7,0.5-1.1,0.7s-1.1,0.3-1.8,0.3c0,0.3,0.1,0.5,0.2,0.6
			s0.2,0.3,0.3,0.4s0.2,0.2,0.4,0.2s0.3,0.1,0.4,0.1s0.2,0,0.4,0c0.3,0,0.6-0.1,0.9-0.2c0.1-0.1,0.2-0.1,0.3-0.2s0.2-0.2,0.3-0.3
			s0.2-0.2,0.2-0.4s0.1-0.3,0.1-0.5c0.1,0.3,0.2,0.7,0.3,0.9s0.1,0.6,0.1,0.8c0,0.5-0.1,0.9-0.3,1.3s-0.4,0.7-0.7,1
			s-0.6,0.5-1.1,0.7s-0.9,0.2-1.3,0.2c-0.5,0-0.9-0.1-1.4-0.2s-0.8-0.4-1.2-0.8s-0.6-0.8-0.8-1.4s-0.3-1.2-0.3-2
			c0-0.9,0.1-1.6,0.4-2.3s0.6-1.2,1-1.7s0.9-0.8,1.5-1s1.1-0.4,1.7-0.4c0.3,0,0.6,0,0.9,0.1s0.5,0.2,0.7,0.3s0.4,0.4,0.5,0.6
			S48.4,81.4,48.4,81.8z M44.6,83.6c0.1,0,0.3,0,0.5-0.1s0.4-0.1,0.5-0.2s0.3-0.2,0.4-0.4s0.2-0.3,0.2-0.5c0-0.1,0-0.2-0.1-0.3
			S46,82,45.9,82c-0.2,0-0.3,0.1-0.5,0.2s-0.3,0.2-0.4,0.4s-0.2,0.3-0.2,0.5S44.7,83.4,44.6,83.6z"/>
		<path d="M57.9,82c0,0.2,0,0.4-0.1,0.6s-0.2,0.3-0.3,0.4s-0.3,0.2-0.5,0.3s-0.4,0.1-0.6,0.1c-0.2,0-0.4,0-0.6-0.1s-0.3-0.1-0.4-0.2
			s-0.2-0.2-0.3-0.3s-0.1-0.2-0.2-0.3s-0.1-0.2-0.1-0.3s0-0.2,0-0.2c0,0.1,0.1,0.1,0.2,0.2s0.1,0,0.2,0c0.1,0,0.2,0,0.3-0.1
			s0.1-0.1,0.1-0.2c0,0,0-0.1,0-0.1s-0.1-0.1-0.1-0.1s-0.1-0.1-0.2-0.1s-0.2,0-0.3,0c-0.1,0-0.2,0-0.2,0s-0.2,0.1-0.2,0.1
			s-0.1,0.1-0.2,0.2s-0.1,0.2-0.1,0.3c0,0.2,0.1,0.4,0.2,0.6s0.3,0.3,0.5,0.4s0.4,0.2,0.7,0.3s0.5,0.2,0.8,0.3s0.5,0.2,0.8,0.4
			s0.5,0.3,0.7,0.5s0.4,0.4,0.5,0.7s0.2,0.6,0.2,1c0,0.5-0.1,0.9-0.3,1.3s-0.5,0.7-0.8,1s-0.7,0.5-1.2,0.6s-0.9,0.2-1.4,0.2
			c-0.4,0-0.9-0.1-1.3-0.2s-0.7-0.3-1-0.5s-0.5-0.5-0.7-0.8s-0.3-0.6-0.3-0.9c0-0.3,0-0.5,0.1-0.7s0.2-0.3,0.3-0.5s0.3-0.2,0.5-0.3
			s0.4-0.1,0.7-0.1c0.2,0,0.3,0,0.5,0.1s0.3,0.1,0.5,0.2s0.3,0.2,0.4,0.3s0.2,0.2,0.3,0.4c0,0-0.1,0-0.1,0s-0.1,0-0.1,0
			c-0.1,0-0.2,0-0.3,0.1s-0.1,0.2-0.1,0.3c0,0.1,0.1,0.3,0.2,0.4s0.3,0.1,0.4,0.1c0.1,0,0.2,0,0.2-0.1s0.1-0.1,0.2-0.1
			s0.1-0.1,0.1-0.2s0-0.1,0-0.2c0-0.1,0-0.3-0.1-0.4s-0.2-0.3-0.4-0.4c-0.3-0.2-0.6-0.4-0.9-0.5S53.2,85.1,53,85s-0.5-0.3-0.7-0.4
			s-0.4-0.3-0.5-0.5s-0.2-0.4-0.3-0.6s-0.1-0.5-0.1-0.9c0-0.4,0.1-0.8,0.2-1.1s0.4-0.6,0.7-0.9s0.7-0.4,1.1-0.6s0.9-0.2,1.5-0.2
			c0.6,0,1,0.1,1.4,0.2s0.7,0.3,0.9,0.5s0.4,0.4,0.5,0.7S57.9,81.7,57.9,82z"/>
		<path d="M65.6,81.8c0,0.4-0.1,0.8-0.2,1.1s-0.3,0.7-0.6,1s-0.7,0.5-1.1,0.7s-1.1,0.3-1.8,0.3c0,0.3,0.1,0.5,0.2,0.6
			s0.2,0.3,0.3,0.4s0.2,0.2,0.4,0.2s0.3,0.1,0.4,0.1s0.2,0,0.4,0c0.3,0,0.6-0.1,0.9-0.2c0.1-0.1,0.2-0.1,0.3-0.2s0.2-0.2,0.3-0.3
			s0.2-0.2,0.2-0.4s0.1-0.3,0.1-0.5c0.1,0.3,0.2,0.7,0.3,0.9s0.1,0.6,0.1,0.8c0,0.5-0.1,0.9-0.3,1.3s-0.4,0.7-0.7,1
			s-0.6,0.5-1.1,0.7s-0.9,0.2-1.3,0.2c-0.5,0-0.9-0.1-1.4-0.2s-0.8-0.4-1.2-0.8s-0.6-0.8-0.8-1.4s-0.3-1.2-0.3-2
			c0-0.9,0.1-1.6,0.4-2.3s0.6-1.2,1-1.7s0.9-0.8,1.5-1s1.1-0.4,1.7-0.4c0.3,0,0.6,0,0.9,0.1s0.5,0.2,0.7,0.3s0.4,0.4,0.5,0.6
			S65.6,81.4,65.6,81.8z M61.8,83.6c0.1,0,0.3,0,0.5-0.1s0.4-0.1,0.5-0.2s0.3-0.2,0.4-0.4s0.2-0.3,0.2-0.5c0-0.1,0-0.2-0.1-0.3
			S63.2,82,63,82c-0.2,0-0.3,0.1-0.5,0.2s-0.3,0.2-0.4,0.4S62,82.9,61.9,83S61.8,83.4,61.8,83.6z"/>
		<path d="M66.1,80.1c0.1,0,0.3,0,0.4,0c0.1,0,0.3,0,0.5,0s0.4,0,0.6,0c0.3,0,0.6,0,0.9,0s0.7-0.1,1-0.1c-0.1,0.1-0.1,0.3-0.2,0.5
			s-0.1,0.4-0.1,0.7c0.2-0.5,0.5-0.8,0.9-1.1s0.8-0.4,1.4-0.4c0.1,0,0.3,0,0.5,0s0.4,0.1,0.6,0.2s0.4,0.2,0.6,0.4s0.4,0.4,0.6,0.8
			s0.3,0.8,0.4,1.3s0.2,1.1,0.2,1.9c0,0.6,0,1.2-0.1,1.7s-0.2,0.9-0.4,1.3s-0.3,0.7-0.5,1s-0.4,0.5-0.6,0.6s-0.5,0.3-0.7,0.4
			s-0.5,0.1-0.7,0.1c-0.3,0-0.5-0.1-0.7-0.2s-0.4-0.2-0.6-0.4s-0.3-0.4-0.4-0.7s-0.2-0.5-0.3-0.8c0,0.2,0,0.5,0,0.8s0,0.6,0.1,1
			s0,0.7,0.1,1s0.1,0.7,0.1,1s0.1,0.6,0.1,0.8s0.1,0.4,0.1,0.5c-0.4-0.1-0.8-0.1-1.2-0.1s-0.7,0-1,0c-0.2,0-0.4,0-0.5,0
			s-0.3,0-0.4,0c-0.1,0-0.2,0-0.3,0c0.1-0.3,0.1-0.6,0.1-1s0.1-0.9,0.1-1.4s0.1-1.1,0.1-1.7s0-1.2,0-1.8c0-0.6,0-1.2,0-1.7
			s0-1.1-0.1-1.6s-0.1-1-0.2-1.5S66.2,80.4,66.1,80.1z M69.4,83.9v1.3c0,0.1,0,0.3,0,0.4s0.1,0.3,0.1,0.4s0.1,0.2,0.2,0.3
			s0.2,0.1,0.4,0.1c0.1,0,0.2,0,0.3-0.1s0.2-0.2,0.2-0.4s0.1-0.3,0.1-0.5s0.1-0.4,0.1-0.6s0-0.4,0-0.5s0-0.3,0-0.4
			c0-0.1,0-0.3,0-0.5s0-0.4-0.1-0.6s-0.1-0.4-0.2-0.5s-0.2-0.2-0.4-0.2c-0.2,0-0.3,0.1-0.5,0.2s-0.2,0.3-0.3,0.5s-0.1,0.4-0.1,0.6
			S69.4,83.8,69.4,83.9z"/>
		<path d="M81.1,79.6c0,0.2-0.1,0.5-0.1,0.7s0,0.5,0,0.7c0,0.2,0,0.4,0,0.7s0,0.5,0.1,0.7c-0.2-0.1-0.5-0.2-0.8-0.3s-0.6-0.1-1-0.1
			v0.7c0,0.6,0,1.2,0,1.8s0.1,1.2,0.1,1.8s0.1,1.1,0.2,1.6s0.2,1,0.3,1.3c-0.1,0-0.2,0-0.3,0c-0.1,0-0.2,0-0.4,0s-0.3,0-0.5,0
			c-0.3,0-0.7,0-1.2,0s-0.9,0.1-1.4,0.2c0.2-1,0.3-2.1,0.4-3.2s0.1-2.2,0.1-3.2v-0.9c-0.4,0-0.7,0.1-1.1,0.1s-0.7,0.1-1,0.2
			c0-0.1,0-0.1,0.1-0.2s0-0.2,0-0.3s0-0.2,0-0.3s0-0.2,0-0.2c0-0.3,0-0.5,0-0.8s0-0.5-0.1-0.8c0.2,0.1,0.5,0.2,0.9,0.3
			s0.7,0.1,1,0.1c0-0.5-0.1-0.9-0.1-1.3s-0.1-0.7-0.1-1c0.4,0.1,0.8,0.1,1.2,0.1s0.7,0,1,0c0.2,0,0.4,0,0.5,0s0.3,0,0.4,0
			c0.1,0,0.2,0,0.3,0c-0.1,0.2-0.1,0.6-0.1,0.9s-0.1,0.8-0.1,1.2c0.3,0,0.7-0.1,1-0.1S80.9,79.7,81.1,79.6z"/>
		<path d="M90.7,82.4c0,0.2,0,0.4-0.1,0.7s-0.2,0.4-0.3,0.6s-0.3,0.3-0.5,0.4s-0.4,0.2-0.7,0.2c-0.2,0-0.4,0-0.6-0.1
			S88.1,84,88,83.8s-0.2-0.3-0.2-0.4s-0.1-0.3-0.1-0.5c0-0.4,0.1-0.7,0.3-0.9c0,0.1,0.1,0.2,0.1,0.2s0.1,0.1,0.1,0.1
			c0.1,0,0.1,0,0.2,0c0.2,0,0.2,0,0.3-0.1s0.1-0.1,0.1-0.2c0-0.1,0-0.2-0.1-0.3s-0.2-0.1-0.4-0.1c0,0-0.1,0-0.2,0s-0.2,0-0.3,0.1
			s-0.2,0.1-0.3,0.2s-0.2,0.2-0.3,0.4S87,82.8,87,83s-0.1,0.6-0.1,1c0,0.4,0.1,0.7,0.2,0.9s0.3,0.4,0.4,0.6s0.3,0.2,0.5,0.3
			s0.3,0.1,0.5,0.1c0.1,0,0.2,0,0.4-0.1s0.3-0.1,0.5-0.2s0.3-0.2,0.4-0.4s0.2-0.4,0.3-0.7c0.1,0.2,0.3,0.5,0.3,0.7s0.1,0.6,0.1,0.9
			c0,0.4-0.1,0.8-0.2,1.2s-0.4,0.8-0.7,1.1s-0.6,0.6-1,0.8s-0.9,0.3-1.3,0.3c-0.4,0-0.7-0.1-1-0.2s-0.6-0.3-0.8-0.5
			s-0.5-0.5-0.7-0.7s-0.4-0.6-0.5-0.9s-0.2-0.7-0.3-1s-0.1-0.7-0.1-1.1c0-0.4,0-0.8,0.1-1.2s0.2-0.8,0.4-1.2s0.4-0.8,0.6-1.1
			s0.5-0.6,0.8-0.9s0.6-0.5,1-0.6s0.8-0.2,1.2-0.2c0.4,0,0.7,0,1,0.1s0.5,0.2,0.7,0.4s0.4,0.3,0.5,0.5s0.2,0.4,0.3,0.6
			s0.1,0.4,0.2,0.6S90.7,82.3,90.7,82.4z"/>
		<path d="M98,81.8c0,0.4-0.1,0.8-0.2,1.1s-0.3,0.7-0.6,1s-0.7,0.5-1.1,0.7s-1.1,0.3-1.8,0.3c0,0.3,0.1,0.5,0.2,0.6s0.2,0.3,0.3,0.4
			s0.2,0.2,0.4,0.2s0.3,0.1,0.4,0.1s0.2,0,0.4,0c0.3,0,0.6-0.1,0.9-0.2c0.1-0.1,0.2-0.1,0.3-0.2s0.2-0.2,0.3-0.3s0.2-0.2,0.2-0.4
			s0.1-0.3,0.1-0.5c0.1,0.3,0.2,0.7,0.3,0.9s0.1,0.6,0.1,0.8c0,0.5-0.1,0.9-0.3,1.3s-0.4,0.7-0.7,1s-0.6,0.5-1.1,0.7
			s-0.9,0.2-1.3,0.2c-0.5,0-0.9-0.1-1.4-0.2s-0.8-0.4-1.2-0.8s-0.6-0.8-0.8-1.4s-0.3-1.2-0.3-2c0-0.9,0.1-1.6,0.4-2.3s0.6-1.2,1-1.7
			s0.9-0.8,1.5-1s1.1-0.4,1.7-0.4c0.3,0,0.6,0,0.9,0.1s0.5,0.2,0.7,0.3s0.4,0.4,0.5,0.6S98,81.4,98,81.8z M94.3,83.6
			c0.1,0,0.3,0,0.5-0.1s0.4-0.1,0.5-0.2s0.3-0.2,0.4-0.4s0.2-0.3,0.2-0.5c0-0.1,0-0.2-0.1-0.3S95.6,82,95.5,82
			c-0.2,0-0.3,0.1-0.5,0.2s-0.3,0.2-0.4,0.4s-0.2,0.3-0.2,0.5S94.3,83.4,94.3,83.6z"/>
		<path d="M106.8,89.2c-0.2,0-0.3,0-0.5-0.1s-0.4,0-0.6,0c-0.2,0-0.5,0-0.8,0s-0.5,0-0.8,0.1s-0.5,0-0.7,0.1s-0.4,0-0.6,0.1
			c0.2-0.8,0.4-1.6,0.5-2.4s0.2-1.8,0.2-2.9c0-0.1,0-0.2,0-0.3s0-0.3,0-0.4s0-0.3-0.1-0.5s-0.1-0.3-0.1-0.4s-0.1-0.2-0.2-0.3
			S103.1,82,103,82c-0.1,0-0.3,0.1-0.4,0.2s-0.3,0.2-0.4,0.4s-0.2,0.4-0.3,0.6s-0.1,0.5-0.1,0.7c0,0.4,0,0.9,0,1.3s0.1,0.9,0.1,1.3
			s0.1,0.9,0.2,1.3s0.2,0.8,0.3,1.2c-0.1,0-0.2,0-0.3,0c-0.1,0-0.2,0-0.4,0s-0.3,0-0.5,0c-0.3,0-0.7,0-1.2,0s-0.9,0.1-1.4,0.2
			c0.1-0.3,0.1-0.6,0.2-1.1s0.1-0.9,0.1-1.4s0.1-1,0.1-1.6s0-1.1,0-1.6c0-0.4,0-0.8,0-1.1s0-0.7,0-1.1s0-0.6-0.1-0.9
			s-0.1-0.5-0.1-0.7c0.4,0.1,0.8,0.1,1.2,0.2s0.7,0,1,0c0.2,0,0.4,0,0.5,0s0.3,0,0.4,0c0.1,0,0.2,0,0.3,0c0,0.2-0.1,0.3-0.1,0.5
			s-0.1,0.4-0.1,0.6c0.2-0.2,0.4-0.4,0.5-0.6s0.4-0.3,0.6-0.4s0.4-0.2,0.6-0.2s0.4-0.1,0.5-0.1c0.4,0,0.7,0.1,1,0.2s0.5,0.4,0.7,0.7
			s0.3,0.7,0.4,1.3s0.1,1.1,0.1,1.8c0,0.5,0,1,0,1.5s0,1,0,1.5s0.1,0.9,0.1,1.4S106.7,88.9,106.8,89.2z"/>
		<path d="M113.6,79.6c0,0.2-0.1,0.5-0.1,0.7s0,0.5,0,0.7c0,0.2,0,0.4,0,0.7s0,0.5,0.1,0.7c-0.2-0.1-0.5-0.2-0.8-0.3s-0.6-0.1-1-0.1
			v0.7c0,0.6,0,1.2,0,1.8s0.1,1.2,0.1,1.8s0.1,1.1,0.2,1.6s0.2,1,0.3,1.3c-0.1,0-0.2,0-0.3,0c-0.1,0-0.2,0-0.4,0s-0.3,0-0.5,0
			c-0.3,0-0.7,0-1.2,0s-0.9,0.1-1.4,0.2c0.2-1,0.3-2.1,0.4-3.2s0.1-2.2,0.1-3.2v-0.9c-0.4,0-0.7,0.1-1.1,0.1s-0.7,0.1-1,0.2
			c0-0.1,0-0.1,0.1-0.2s0-0.2,0-0.3s0-0.2,0-0.3s0-0.2,0-0.2c0-0.3,0-0.5,0-0.8s0-0.5-0.1-0.8c0.2,0.1,0.5,0.2,0.9,0.3
			s0.7,0.1,1,0.1c0-0.5-0.1-0.9-0.1-1.3s-0.1-0.7-0.1-1c0.4,0.1,0.8,0.1,1.2,0.1s0.7,0,1,0c0.2,0,0.4,0,0.5,0s0.3,0,0.4,0
			c0.1,0,0.2,0,0.3,0c-0.1,0.2-0.1,0.6-0.1,0.9s-0.1,0.8-0.1,1.2c0.3,0,0.7-0.1,1-0.1S113.4,79.7,113.6,79.6z"/>
		<path d="M122.8,82c0,0.2,0,0.4-0.1,0.6s-0.2,0.3-0.3,0.4s-0.3,0.2-0.5,0.3s-0.4,0.1-0.6,0.1c-0.2,0-0.4,0-0.6-0.1
			s-0.3-0.1-0.4-0.2s-0.2-0.2-0.3-0.3s-0.1-0.2-0.2-0.3s-0.1-0.2-0.1-0.3s0-0.2,0-0.2c0,0.1,0.1,0.1,0.2,0.2s0.1,0,0.2,0
			c0.1,0,0.2,0,0.3-0.1s0.1-0.1,0.1-0.2c0,0,0-0.1,0-0.1s-0.1-0.1-0.1-0.1s-0.1-0.1-0.2-0.1s-0.2,0-0.3,0c-0.1,0-0.2,0-0.2,0
			s-0.2,0.1-0.2,0.1s-0.1,0.1-0.2,0.2S119,82,119,82.1c0,0.2,0.1,0.4,0.2,0.6s0.3,0.3,0.5,0.4s0.4,0.2,0.7,0.3s0.5,0.2,0.8,0.3
			s0.5,0.2,0.8,0.4s0.5,0.3,0.7,0.5s0.4,0.4,0.5,0.7s0.2,0.6,0.2,1c0,0.5-0.1,0.9-0.3,1.3s-0.5,0.7-0.8,1s-0.7,0.5-1.2,0.6
			s-0.9,0.2-1.4,0.2c-0.4,0-0.9-0.1-1.3-0.2s-0.7-0.3-1-0.5s-0.5-0.5-0.7-0.8s-0.3-0.6-0.3-0.9c0-0.3,0-0.5,0.1-0.7s0.2-0.3,0.3-0.5
			s0.3-0.2,0.5-0.3s0.4-0.1,0.7-0.1c0.2,0,0.3,0,0.5,0.1s0.3,0.1,0.5,0.2s0.3,0.2,0.4,0.3s0.2,0.2,0.3,0.4c0,0-0.1,0-0.1,0
			s-0.1,0-0.1,0c-0.1,0-0.2,0-0.3,0.1s-0.1,0.2-0.1,0.3c0,0.1,0.1,0.3,0.2,0.4s0.3,0.1,0.4,0.1c0.1,0,0.2,0,0.2-0.1s0.1-0.1,0.2-0.1
			s0.1-0.1,0.1-0.2s0-0.1,0-0.2c0-0.1,0-0.3-0.1-0.4s-0.2-0.3-0.4-0.4c-0.3-0.2-0.6-0.4-0.9-0.5s-0.6-0.3-0.8-0.4s-0.5-0.3-0.7-0.4
			s-0.4-0.3-0.5-0.5s-0.2-0.4-0.3-0.6s-0.1-0.5-0.1-0.9c0-0.4,0.1-0.8,0.2-1.1s0.4-0.6,0.7-0.9s0.7-0.4,1.1-0.6s0.9-0.2,1.5-0.2
			c0.6,0,1,0.1,1.4,0.2s0.7,0.3,0.9,0.5s0.4,0.4,0.5,0.7S122.8,81.7,122.8,82z"/>
		<path d="M131.1,84.5c0,0.3,0,0.6-0.1,1s-0.1,0.7-0.2,1.1s-0.3,0.7-0.4,1.1s-0.4,0.7-0.7,0.9s-0.6,0.5-1,0.6s-0.8,0.2-1.3,0.2
			s-1-0.1-1.3-0.2s-0.7-0.4-1-0.6s-0.5-0.5-0.7-0.9s-0.3-0.7-0.4-1s-0.2-0.7-0.2-1.1s-0.1-0.7-0.1-1.1c0-0.6,0.1-1.2,0.2-1.7
			s0.4-1.1,0.7-1.5s0.7-0.8,1.2-1.1s1-0.4,1.7-0.4c0.4,0,0.8,0.1,1.2,0.2s0.7,0.3,0.9,0.5s0.5,0.5,0.7,0.8s0.3,0.6,0.5,1
			s0.2,0.7,0.3,1.1S131.1,84.1,131.1,84.5z M128.4,84.7c0-0.1,0-0.3,0-0.4s0-0.4-0.1-0.6s-0.1-0.4-0.1-0.6s-0.1-0.4-0.2-0.5
			s-0.2-0.3-0.3-0.4s-0.2-0.1-0.4-0.1c-0.1,0-0.3,0-0.4,0.1s-0.2,0.2-0.3,0.4s-0.1,0.3-0.2,0.5s-0.1,0.4-0.1,0.6s0,0.4-0.1,0.5
			s0,0.3,0,0.4c0,0.2,0,0.4,0,0.6s0.1,0.5,0.1,0.7s0.2,0.4,0.3,0.6s0.3,0.2,0.5,0.2c0.2,0,0.4-0.1,0.5-0.2s0.2-0.3,0.3-0.5
			s0.1-0.4,0.2-0.7S128.4,84.9,128.4,84.7z"/>
		<path d="M135.4,89c-0.1,0-0.2,0-0.3,0c-0.1,0-0.2,0-0.4,0s-0.3,0-0.5,0c-0.3,0-0.7,0-1.2,0s-0.9,0.1-1.4,0.2
			c0.1-0.2,0.2-0.4,0.2-0.7s0.1-0.6,0.2-1s0.1-0.7,0.1-1s0-0.7,0.1-1s0-0.5,0-0.7s0-0.3,0-0.4c0-0.7,0-1.3-0.1-1.9
			c0-0.2,0-0.5-0.1-0.8S132,81.2,132,81s-0.1-0.4-0.1-0.6s-0.1-0.3-0.1-0.4c0.4,0.1,0.8,0.1,1.2,0.1s0.7,0,1,0c0.2,0,0.4,0,0.5,0
			s0.3,0,0.4,0c0.1,0,0.2,0,0.3,0c-0.1,0.5-0.2,1-0.2,1.7s-0.1,1.4-0.1,2.1c0,0.4,0,0.9,0,1.3s0.1,0.9,0.1,1.3s0.1,0.9,0.2,1.3
			S135.3,88.6,135.4,89z M131.8,77.8c0-0.2,0-0.5,0.1-0.7s0.2-0.4,0.4-0.6s0.3-0.3,0.6-0.4s0.4-0.1,0.7-0.1s0.5,0,0.7,0.1
			s0.4,0.2,0.6,0.4s0.3,0.3,0.4,0.6s0.1,0.4,0.1,0.7s0,0.5-0.1,0.7s-0.2,0.4-0.4,0.6s-0.3,0.3-0.6,0.4s-0.4,0.1-0.7,0.1
			s-0.5,0-0.7-0.1s-0.4-0.2-0.6-0.4s-0.3-0.3-0.4-0.6S131.8,78.1,131.8,77.8z"/>
		<path d="M143.9,79.9c-0.2,0.4-0.5,0.7-0.7,1.1s-0.4,0.7-0.6,1.1s-0.4,0.8-0.5,1.2s-0.3,0.8-0.5,1.3c0.2,0.4,0.4,0.9,0.5,1.2
			s0.3,0.7,0.5,1.1s0.4,0.7,0.6,1.1s0.4,0.7,0.7,1.1c-0.1,0-0.2,0-0.3,0c-0.1,0-0.2,0-0.3,0s-0.3,0-0.4,0c-0.3,0-0.7,0-1.1,0
			s-0.9,0.1-1.4,0.2c0-0.2-0.1-0.4-0.1-0.6s-0.1-0.5-0.2-0.7s-0.1-0.5-0.2-0.7s-0.1-0.4-0.2-0.6c-0.1,0.2-0.2,0.4-0.2,0.6
			s-0.1,0.5-0.2,0.7s-0.1,0.5-0.2,0.7S139,89,139,89.2c-0.5-0.1-0.9-0.1-1.3-0.2s-0.8,0-1.1,0c-0.2,0-0.3,0-0.4,0s-0.2,0-0.3,0
			c-0.1,0-0.2,0-0.3,0c0.5-0.8,1-1.6,1.4-2.3s0.7-1.4,1-2.2c-0.2-0.3-0.3-0.7-0.5-1s-0.3-0.7-0.5-1.1s-0.4-0.8-0.6-1.2
			s-0.5-0.9-0.8-1.4c0.5,0.1,0.9,0.1,1.3,0.2s0.8,0,1.1,0c0.2,0,0.4,0,0.5,0s0.3,0,0.4,0c0.1,0,0.2,0,0.3,0c0,0.2,0.1,0.3,0.1,0.6
			s0.1,0.4,0.2,0.7s0.1,0.5,0.2,0.7s0.1,0.5,0.2,0.7c0.1-0.2,0.2-0.4,0.2-0.7s0.1-0.5,0.2-0.7s0.1-0.4,0.2-0.6s0.1-0.4,0.1-0.6
			c0.1,0,0.2,0,0.3,0c0.1,0,0.2,0,0.3,0s0.3,0,0.5,0c0.3,0,0.6,0,1,0S143.4,80,143.9,79.9z"/>
		<path d="M152,89.2c-0.1,0-0.2,0-0.3,0c-0.1,0-0.2,0-0.4,0s-0.3,0-0.5,0c-0.3,0-0.5,0-0.9,0s-0.6,0.1-1,0.1l0-2.2
			c-0.2,0.8-0.5,1.4-0.9,1.8s-0.8,0.6-1.3,0.6c-0.2,0-0.3,0-0.5-0.1s-0.4-0.1-0.6-0.2s-0.4-0.3-0.6-0.5s-0.4-0.5-0.5-0.8
			s-0.3-0.7-0.4-1.2s-0.1-1-0.1-1.7c0-0.9,0.1-1.6,0.3-2.2s0.4-1.1,0.7-1.5s0.6-0.7,0.9-0.9s0.7-0.3,1-0.3c0.3,0,0.5,0,0.7,0.1
			s0.4,0.2,0.6,0.3s0.3,0.2,0.4,0.4s0.2,0.3,0.3,0.4c0-0.2,0-0.4-0.1-0.6s-0.1-0.4-0.1-0.6c0.3,0.1,0.7,0.1,1,0.1s0.7,0,1,0
			c0.4,0,0.6,0,0.9,0c0.1,0,0.2,0,0.3,0c-0.1,0.3-0.1,0.6-0.2,0.9s-0.1,0.7-0.1,1s-0.1,0.8-0.1,1.2s0,0.8,0,1.2c0,0.8,0,1.6,0.1,2.4
			S151.8,88.5,152,89.2z M148.8,84.7v-1.3c0-0.1,0-0.3,0-0.4s-0.1-0.3-0.1-0.4s-0.1-0.2-0.2-0.3s-0.2-0.1-0.4-0.1
			c-0.2,0-0.3,0.1-0.5,0.2s-0.2,0.3-0.3,0.5s-0.1,0.5-0.2,0.8s0,0.6,0,1c0,0.2,0,0.4,0,0.6s0.1,0.4,0.1,0.6s0.2,0.3,0.3,0.4
			s0.3,0.2,0.4,0.2c0.2,0,0.3-0.1,0.5-0.2s0.2-0.3,0.3-0.5s0.1-0.4,0.1-0.6S148.8,84.9,148.8,84.7z"/>
		<path d="M160.8,89.2c-0.2,0-0.3,0-0.5-0.1s-0.4,0-0.6,0c-0.2,0-0.5,0-0.8,0s-0.5,0-0.8,0.1s-0.5,0-0.7,0.1s-0.4,0-0.6,0.1
			c0.2-0.8,0.4-1.6,0.5-2.4s0.2-1.8,0.2-2.9c0-0.1,0-0.2,0-0.3s0-0.3,0-0.4s0-0.3-0.1-0.5s-0.1-0.3-0.1-0.4s-0.1-0.2-0.2-0.3
			S157.1,82,157,82c-0.1,0-0.3,0.1-0.4,0.2s-0.3,0.2-0.4,0.4s-0.2,0.4-0.3,0.6s-0.1,0.5-0.1,0.7c0,0.4,0,0.9,0,1.3s0.1,0.9,0.1,1.3
			s0.1,0.9,0.2,1.3s0.2,0.8,0.3,1.2c-0.1,0-0.2,0-0.3,0c-0.1,0-0.2,0-0.4,0s-0.3,0-0.5,0c-0.3,0-0.7,0-1.2,0s-0.9,0.1-1.4,0.2
			c0.1-0.3,0.1-0.6,0.2-1.1s0.1-0.9,0.1-1.4s0.1-1,0.1-1.6s0-1.1,0-1.6c0-0.4,0-0.8,0-1.1s0-0.7,0-1.1s0-0.6-0.1-0.9
			s-0.1-0.5-0.1-0.7c0.4,0.1,0.8,0.1,1.2,0.2s0.7,0,1,0c0.2,0,0.4,0,0.5,0s0.3,0,0.4,0c0.1,0,0.2,0,0.3,0c0,0.2-0.1,0.3-0.1,0.5
			s-0.1,0.4-0.1,0.6c0.2-0.2,0.4-0.4,0.5-0.6s0.4-0.3,0.6-0.4s0.4-0.2,0.6-0.2s0.4-0.1,0.5-0.1c0.4,0,0.7,0.1,1,0.2s0.5,0.4,0.7,0.7
			s0.3,0.7,0.4,1.3s0.1,1.1,0.1,1.8c0,0.5,0,1,0,1.5s0,1,0,1.5s0.1,0.9,0.1,1.4S160.7,88.9,160.8,89.2z"/>
		<path d="M167.5,79.6c0,0.2-0.1,0.5-0.1,0.7s0,0.5,0,0.7c0,0.2,0,0.4,0,0.7s0,0.5,0.1,0.7c-0.2-0.1-0.5-0.2-0.8-0.3s-0.6-0.1-1-0.1
			v0.7c0,0.6,0,1.2,0,1.8s0.1,1.2,0.1,1.8s0.1,1.1,0.2,1.6s0.2,1,0.3,1.3c-0.1,0-0.2,0-0.3,0c-0.1,0-0.2,0-0.4,0s-0.3,0-0.5,0
			c-0.3,0-0.7,0-1.2,0s-0.9,0.1-1.4,0.2c0.2-1,0.3-2.1,0.4-3.2s0.1-2.2,0.1-3.2v-0.9c-0.4,0-0.7,0.1-1.1,0.1s-0.7,0.1-1,0.2
			c0-0.1,0-0.1,0.1-0.2s0-0.2,0-0.3s0-0.2,0-0.3s0-0.2,0-0.2c0-0.3,0-0.5,0-0.8s0-0.5-0.1-0.8c0.2,0.1,0.5,0.2,0.9,0.3
			s0.7,0.1,1,0.1c0-0.5-0.1-0.9-0.1-1.3s-0.1-0.7-0.1-1c0.4,0.1,0.8,0.1,1.2,0.1s0.7,0,1,0c0.2,0,0.4,0,0.5,0s0.3,0,0.4,0
			c0.1,0,0.2,0,0.3,0c-0.1,0.2-0.1,0.6-0.1,0.9s-0.1,0.8-0.1,1.2c0.3,0,0.7-0.1,1-0.1S167.3,79.7,167.5,79.6z"/>
		<path d="M174.6,81.8c0,0.4-0.1,0.8-0.2,1.1s-0.3,0.7-0.6,1s-0.7,0.5-1.1,0.7s-1.1,0.3-1.8,0.3c0,0.3,0.1,0.5,0.2,0.6
			s0.2,0.3,0.3,0.4s0.2,0.2,0.4,0.2s0.3,0.1,0.4,0.1s0.2,0,0.4,0c0.3,0,0.6-0.1,0.9-0.2c0.1-0.1,0.2-0.1,0.3-0.2s0.2-0.2,0.3-0.3
			s0.2-0.2,0.2-0.4s0.1-0.3,0.1-0.5c0.1,0.3,0.2,0.7,0.3,0.9s0.1,0.6,0.1,0.8c0,0.5-0.1,0.9-0.3,1.3s-0.4,0.7-0.7,1
			s-0.6,0.5-1.1,0.7s-0.9,0.2-1.3,0.2c-0.5,0-0.9-0.1-1.4-0.2s-0.8-0.4-1.2-0.8s-0.6-0.8-0.8-1.4s-0.3-1.2-0.3-2
			c0-0.9,0.1-1.6,0.4-2.3s0.6-1.2,1-1.7s0.9-0.8,1.5-1s1.1-0.4,1.7-0.4c0.3,0,0.6,0,0.9,0.1s0.5,0.2,0.7,0.3s0.4,0.4,0.5,0.6
			S174.6,81.4,174.6,81.8z M170.8,83.6c0.1,0,0.3,0,0.5-0.1s0.4-0.1,0.5-0.2s0.3-0.2,0.4-0.4s0.2-0.3,0.2-0.5c0-0.1,0-0.2-0.1-0.3
			s-0.2-0.1-0.3-0.1c-0.2,0-0.3,0.1-0.5,0.2s-0.3,0.2-0.4,0.4S171,82.9,171,83S170.9,83.4,170.8,83.6z"/>
		<path d="M184.5,81.8c0,0.4-0.1,0.8-0.2,1.1s-0.3,0.7-0.6,1s-0.7,0.5-1.1,0.7s-1.1,0.3-1.8,0.3c0,0.3,0.1,0.5,0.2,0.6
			s0.2,0.3,0.3,0.4s0.2,0.2,0.4,0.2s0.3,0.1,0.4,0.1s0.2,0,0.4,0c0.3,0,0.6-0.1,0.9-0.2c0.1-0.1,0.2-0.1,0.3-0.2s0.2-0.2,0.3-0.3
			s0.2-0.2,0.2-0.4s0.1-0.3,0.1-0.5c0.1,0.3,0.2,0.7,0.3,0.9s0.1,0.6,0.1,0.8c0,0.5-0.1,0.9-0.3,1.3s-0.4,0.7-0.7,1
			s-0.6,0.5-1.1,0.7s-0.9,0.2-1.3,0.2c-0.5,0-0.9-0.1-1.4-0.2s-0.8-0.4-1.2-0.8s-0.6-0.8-0.8-1.4s-0.3-1.2-0.3-2
			c0-0.9,0.1-1.6,0.4-2.3s0.6-1.2,1-1.7s0.9-0.8,1.5-1s1.1-0.4,1.7-0.4c0.3,0,0.6,0,0.9,0.1s0.5,0.2,0.7,0.3s0.4,0.4,0.5,0.6
			S184.5,81.4,184.5,81.8z M180.7,83.6c0.1,0,0.3,0,0.5-0.1s0.4-0.1,0.5-0.2s0.3-0.2,0.4-0.4s0.2-0.3,0.2-0.5c0-0.1,0-0.2-0.1-0.3
			s-0.2-0.1-0.3-0.1c-0.2,0-0.3,0.1-0.5,0.2s-0.3,0.2-0.4,0.4s-0.2,0.3-0.2,0.5S180.7,83.4,180.7,83.6z"/>
		<path d="M192.2,80c0,0.2-0.1,0.5-0.1,0.8s-0.1,0.6-0.1,1s-0.1,0.7-0.1,1.1s0,0.8,0,1.2c0,0.1,0,0.3,0,0.4s0,0.3,0,0.4
			c0,0.3,0,0.5,0,0.9s-0.1,0.7-0.2,1s-0.2,0.7-0.4,1s-0.4,0.6-0.6,0.9s-0.5,0.5-0.9,0.6s-0.8,0.2-1.3,0.2c-0.4,0-0.8-0.1-1.1-0.2
			s-0.6-0.3-0.8-0.4s-0.4-0.4-0.6-0.7s-0.3-0.5-0.4-0.8s-0.2-0.6-0.2-0.9s-0.1-0.7-0.1-1c0-0.1,0-0.1,0-0.1s0,0,0,0s0,0,0,0
			s0-0.1,0-0.1s0-0.2,0-0.3s0-0.4,0-0.6c0-0.3,0-0.7,0-1.1s0-0.8-0.1-1.2s-0.1-0.7-0.1-1s-0.1-0.5-0.2-0.7c0.4,0.1,0.8,0.1,1.2,0.1
			s0.7,0,1,0c0.2,0,0.4,0,0.6,0s0.3,0,0.4,0c0.1,0,0.3,0,0.4,0c-0.1,0.5-0.2,1.1-0.3,1.7s-0.1,1.4-0.1,2.2c0,0.2,0,0.4,0,0.6
			s0.1,0.4,0.1,0.6s0.1,0.3,0.2,0.4s0.2,0.2,0.3,0.2c0.2,0,0.3-0.1,0.4-0.2s0.2-0.2,0.2-0.4s0.1-0.4,0.1-0.6s0-0.4,0-0.6
			c0-0.7,0-1.3-0.1-1.9c0-0.2,0-0.5-0.1-0.8s-0.1-0.5-0.1-0.7s-0.1-0.4-0.1-0.6s-0.1-0.3-0.1-0.4c0.4,0.1,0.8,0.1,1.2,0.1s0.7,0,1,0
			c0.2,0,0.4,0,0.5,0s0.3,0,0.4,0C192,80.1,192.1,80.1,192.2,80z"/>
		<path d="M197,82c-0.2,0-0.3,0-0.4,0.1s-0.2,0.2-0.3,0.4s-0.2,0.4-0.3,0.6s-0.1,0.5-0.2,0.8c0,0.4,0,0.9,0,1.3s0.1,0.9,0.1,1.3
			s0.1,0.9,0.2,1.3s0.2,0.8,0.3,1.2c-0.1,0-0.2,0-0.3,0c-0.1,0-0.2,0-0.3,0s-0.3,0-0.5,0c-0.3,0-0.7,0-1.1,0s-0.9,0.1-1.4,0.2
			c0.1-0.3,0.1-0.6,0.2-1.1s0.1-0.9,0.1-1.4s0.1-1,0.1-1.6s0-1.1,0-1.6c0-0.4,0-0.8,0-1.1s0-0.7,0-1.1s0-0.6-0.1-0.9
			s-0.1-0.5-0.1-0.7c0.4,0.1,0.8,0.1,1.2,0.2s0.7,0,0.9,0c0.2,0,0.3,0,0.5,0s0.3,0,0.4,0c0.1,0,0.2,0,0.3,0
			c-0.1,0.3-0.1,0.5-0.1,0.9c0.3-0.3,0.6-0.6,0.9-0.7s0.6-0.2,0.9-0.2c0.5,0,0.9,0.1,1.2,0.3s0.6,0.4,0.8,0.7s0.3,0.6,0.4,0.9
			s0.1,0.7,0.1,1.1c0,0.3,0,0.7-0.1,1s-0.2,0.6-0.4,0.9s-0.4,0.5-0.7,0.6s-0.6,0.2-0.9,0.2c-0.3,0-0.6-0.1-0.8-0.2s-0.4-0.2-0.5-0.4
			s-0.2-0.4-0.3-0.6s-0.1-0.4-0.1-0.6c0-0.2,0-0.4,0.1-0.6s0.1-0.4,0.3-0.5c0,0.1,0.1,0.2,0.1,0.3s0.1,0.1,0.2,0.1
			c0.1,0,0.1,0,0.2,0.1c0.2,0,0.3,0,0.4-0.1s0.1-0.2,0.1-0.3c0-0.1,0-0.1,0-0.2s-0.1-0.1-0.1-0.2s-0.1-0.1-0.2-0.2S197.2,82,197,82z
			"/>
		<path d="M208.1,84.5c0,0.3,0,0.6-0.1,1s-0.1,0.7-0.2,1.1s-0.3,0.7-0.4,1.1s-0.4,0.7-0.7,0.9s-0.6,0.5-1,0.6s-0.8,0.2-1.3,0.2
			s-1-0.1-1.3-0.2s-0.7-0.4-1-0.6s-0.5-0.5-0.7-0.9s-0.3-0.7-0.4-1s-0.2-0.7-0.2-1.1s-0.1-0.7-0.1-1.1c0-0.6,0.1-1.2,0.2-1.7
			s0.4-1.1,0.7-1.5s0.7-0.8,1.2-1.1s1-0.4,1.7-0.4c0.4,0,0.8,0.1,1.2,0.2s0.7,0.3,0.9,0.5s0.5,0.5,0.7,0.8s0.3,0.6,0.5,1
			s0.2,0.7,0.3,1.1S208.1,84.1,208.1,84.5z M205.4,84.7c0-0.1,0-0.3,0-0.4s0-0.4-0.1-0.6s-0.1-0.4-0.1-0.6s-0.1-0.4-0.2-0.5
			s-0.2-0.3-0.3-0.4s-0.2-0.1-0.4-0.1c-0.1,0-0.3,0-0.4,0.1s-0.2,0.2-0.3,0.4s-0.1,0.3-0.2,0.5s-0.1,0.4-0.1,0.6s0,0.4-0.1,0.5
			s0,0.3,0,0.4c0,0.2,0,0.4,0,0.6s0.1,0.5,0.1,0.7s0.2,0.4,0.3,0.6s0.3,0.2,0.5,0.2c0.2,0,0.4-0.1,0.5-0.2s0.2-0.3,0.3-0.5
			s0.1-0.4,0.2-0.7S205.4,84.9,205.4,84.7z"/>
		<path d="M215.2,82c0,0.2,0,0.4-0.1,0.6s-0.2,0.3-0.3,0.4s-0.3,0.2-0.5,0.3s-0.4,0.1-0.6,0.1c-0.2,0-0.4,0-0.6-0.1
			s-0.3-0.1-0.4-0.2s-0.2-0.2-0.3-0.3s-0.1-0.2-0.2-0.3s-0.1-0.2-0.1-0.3s0-0.2,0-0.2c0,0.1,0.1,0.1,0.2,0.2s0.1,0,0.2,0
			c0.1,0,0.2,0,0.3-0.1s0.1-0.1,0.1-0.2c0,0,0-0.1,0-0.1s-0.1-0.1-0.1-0.1s-0.1-0.1-0.2-0.1s-0.2,0-0.3,0c-0.1,0-0.2,0-0.2,0
			s-0.2,0.1-0.2,0.1s-0.1,0.1-0.2,0.2s-0.1,0.2-0.1,0.3c0,0.2,0.1,0.4,0.2,0.6s0.3,0.3,0.5,0.4s0.4,0.2,0.7,0.3s0.5,0.2,0.8,0.3
			s0.5,0.2,0.8,0.4s0.5,0.3,0.7,0.5s0.4,0.4,0.5,0.7s0.2,0.6,0.2,1c0,0.5-0.1,0.9-0.3,1.3s-0.5,0.7-0.8,1s-0.7,0.5-1.2,0.6
			s-0.9,0.2-1.4,0.2c-0.4,0-0.9-0.1-1.3-0.2s-0.7-0.3-1-0.5s-0.5-0.5-0.7-0.8s-0.3-0.6-0.3-0.9c0-0.3,0-0.5,0.1-0.7s0.2-0.3,0.3-0.5
			s0.3-0.2,0.5-0.3s0.4-0.1,0.7-0.1c0.2,0,0.3,0,0.5,0.1s0.3,0.1,0.5,0.2s0.3,0.2,0.4,0.3s0.2,0.2,0.3,0.4c0,0-0.1,0-0.1,0
			s-0.1,0-0.1,0c-0.1,0-0.2,0-0.3,0.1s-0.1,0.2-0.1,0.3c0,0.1,0.1,0.3,0.2,0.4s0.3,0.1,0.4,0.1c0.1,0,0.2,0,0.2-0.1s0.1-0.1,0.2-0.1
			s0.1-0.1,0.1-0.2s0-0.1,0-0.2c0-0.1,0-0.3-0.1-0.4s-0.2-0.3-0.4-0.4c-0.3-0.2-0.6-0.4-0.9-0.5s-0.6-0.3-0.8-0.4s-0.5-0.3-0.7-0.4
			s-0.4-0.3-0.5-0.5s-0.2-0.4-0.3-0.6s-0.1-0.5-0.1-0.9c0-0.4,0.1-0.8,0.2-1.1s0.4-0.6,0.7-0.9s0.7-0.4,1.1-0.6s0.9-0.2,1.5-0.2
			c0.6,0,1,0.1,1.4,0.2s0.7,0.3,0.9,0.5s0.4,0.4,0.5,0.7S215.2,81.7,215.2,82z"/>
	</g>
	<g>
		<path d="M310.6,120.6c-0.2,0-0.3-0.1-0.6-0.1c-0.2,0-0.4,0-0.7-0.1c-0.2,0-0.5,0-0.7,0c-0.2,0-0.4,0-0.6,0c-0.2,0-0.3,0-0.5,0
			s-0.2,0-0.2,0c-0.3,0-0.6,0-0.9,0c-0.3,0-0.6,0.1-1,0.1c-0.4,0-0.7,0.1-1.1,0.2c0.1-0.4,0.2-0.7,0.2-1.2c0.1-0.4,0.1-0.9,0.2-1.4
			s0.1-1,0.1-1.5s0-1,0-1.6c0-0.4,0-0.9,0-1.3c0-0.4,0-0.8-0.1-1.2c0-0.4-0.1-0.7-0.1-1.1c0-0.3-0.1-0.7-0.2-0.9
			c0.5,0.1,0.9,0.1,1.3,0.2c0.4,0,0.7,0,1,0c0.2,0,0.4,0,0.5,0c0.1,0,0.3,0,0.4,0c0.1,0,0.2,0,0.3,0c-0.1,0.3-0.2,0.7-0.3,1.1
			s-0.2,0.8-0.2,1.2c-0.1,0.4-0.1,0.8-0.1,1.2c0,0.4-0.1,0.8-0.1,1.2c0,0.5,0,0.9,0.1,1.2c0.1,0.3,0.1,0.6,0.3,0.8
			c0.1,0.2,0.3,0.4,0.4,0.5c0.2,0.1,0.4,0.2,0.6,0.2c0.3,0,0.6-0.1,0.9-0.3c0.3-0.2,0.5-0.5,0.7-0.9L310.6,120.6z"/>
		<path d="M314.2,120.5c-0.1,0-0.2,0-0.3,0c-0.1,0-0.2,0-0.3,0s-0.3,0-0.4,0c-0.3,0-0.6,0-1,0c-0.4,0-0.8,0.1-1.3,0.1
			c0.1-0.2,0.2-0.4,0.2-0.7c0.1-0.3,0.1-0.5,0.1-0.8c0-0.3,0.1-0.6,0.1-0.9c0-0.3,0-0.6,0-0.8s0-0.5,0-0.6c0-0.2,0-0.3,0-0.3
			c0-0.6,0-1.1-0.1-1.7c0-0.2,0-0.4-0.1-0.7c0-0.2,0-0.4-0.1-0.6c0-0.2-0.1-0.4-0.1-0.5c0-0.2-0.1-0.3-0.1-0.4
			c0.4,0.1,0.7,0.1,1,0.1s0.6,0,0.9,0c0.2,0,0.3,0,0.4,0c0.1,0,0.2,0,0.3,0c0.1,0,0.2,0,0.3,0c-0.1,0.4-0.1,0.9-0.2,1.5
			c-0.1,0.6-0.1,1.2-0.1,1.9c0,0.4,0,0.8,0,1.1s0,0.8,0.1,1.2c0,0.4,0.1,0.8,0.2,1.1C314,119.8,314.1,120.2,314.2,120.5z M311,110.7
			c0-0.2,0-0.4,0.1-0.6c0.1-0.2,0.2-0.3,0.3-0.5c0.1-0.1,0.3-0.2,0.5-0.3c0.2-0.1,0.4-0.1,0.6-0.1s0.4,0,0.6,0.1
			c0.2,0.1,0.3,0.2,0.5,0.3c0.1,0.1,0.2,0.3,0.3,0.5c0.1,0.2,0.1,0.4,0.1,0.6s0,0.4-0.1,0.6c-0.1,0.2-0.2,0.3-0.3,0.5
			c-0.1,0.1-0.3,0.2-0.5,0.3c-0.2,0.1-0.4,0.1-0.6,0.1s-0.4,0-0.6-0.1c-0.2-0.1-0.3-0.2-0.5-0.3c-0.1-0.1-0.2-0.3-0.3-0.5
			C311.1,111.1,311,110.9,311,110.7z"/>
		<path d="M324.9,120.7c-0.1,0-0.3,0-0.4,0c-0.2,0-0.3,0-0.5,0c-0.2,0-0.4,0-0.6,0c-0.2,0-0.4,0-0.6,0s-0.4,0-0.6,0.1
			s-0.3,0-0.5,0.1c0.1-0.2,0.1-0.5,0.2-0.9c0-0.3,0.1-0.7,0.1-1.1s0.1-0.8,0.1-1.3c0-0.4,0-0.9,0-1.4c0-0.1,0-0.2,0-0.3
			c0-0.1,0-0.2,0-0.4s0-0.3,0-0.4c0-0.1-0.1-0.3-0.1-0.4c0-0.1-0.1-0.2-0.1-0.3c-0.1-0.1-0.1-0.1-0.2-0.1c-0.1,0-0.2,0.1-0.3,0.2
			s-0.2,0.3-0.3,0.5c0,0.3,0,0.6,0,0.9c0,0.3,0,0.7,0,1.1s0,0.8,0,1.1c0,0.4,0,0.7,0,1s0,0.5,0,0.7c0,0.2,0,0.3,0,0.3
			c-0.2,0-0.4-0.1-0.6-0.1c-0.2,0-0.3,0-0.5,0c-0.2,0-0.5,0-0.7,0.1s-0.6,0.1-1,0.2c0.1-0.4,0.1-0.9,0.2-1.3c0-0.4,0.1-0.8,0.1-1.3
			s0.1-0.9,0.1-1.4c0-0.1,0-0.2,0-0.3c0-0.1,0-0.2,0-0.4s0-0.3,0-0.4c0-0.1,0-0.3-0.1-0.4c0-0.1-0.1-0.2-0.1-0.3s-0.1-0.1-0.2-0.1
			c-0.1,0-0.3,0-0.4,0.1c-0.1,0.1-0.2,0.2-0.2,0.3s-0.1,0.3-0.1,0.5c0,0.2,0,0.4,0,0.6c0,0.4,0,0.8,0,1.2s0,0.8,0.1,1.2
			c0,0.4,0.1,0.8,0.2,1.1s0.1,0.7,0.2,1.1c-0.1,0-0.2,0-0.3,0c-0.1,0-0.2,0-0.3,0s-0.3,0-0.4,0c-0.3,0-0.6,0-1,0
			c-0.4,0-0.8,0.1-1.3,0.1c0.1-0.3,0.1-0.6,0.1-0.9s0.1-0.8,0.1-1.2s0-0.9,0.1-1.4c0-0.5,0-0.9,0-1.4c0-0.3,0-0.7,0-1s0-0.6,0-0.9
			c0-0.3,0-0.6-0.1-0.8s-0.1-0.5-0.1-0.6c0.4,0.1,0.7,0.1,1,0.1c0.3,0,0.6,0,0.9,0c0.2,0,0.3,0,0.4,0c0.1,0,0.2,0,0.3,0
			c0.1,0,0.2,0,0.3,0c0,0.1-0.1,0.2-0.1,0.4c0,0.1,0,0.3-0.1,0.4c0.3-0.3,0.5-0.6,0.8-0.7c0.3-0.2,0.6-0.2,0.9-0.2
			c0.4,0,0.7,0.1,1,0.3c0.2,0.2,0.4,0.5,0.6,0.9c0.3-0.4,0.6-0.7,0.9-0.9c0.3-0.2,0.6-0.3,0.9-0.3c0.3,0,0.6,0.1,0.9,0.2
			c0.3,0.1,0.5,0.3,0.6,0.6s0.3,0.7,0.4,1.1s0.1,1,0.1,1.6c0,0.4,0,0.9,0,1.3c0,0.5,0,0.9,0,1.3c0,0.4,0,0.8,0.1,1.2
			C324.8,120.1,324.8,120.4,324.9,120.7z"/>
		<path d="M332,116.5c0,0.3,0,0.6-0.1,0.9c0,0.3-0.1,0.6-0.2,1c-0.1,0.3-0.2,0.6-0.4,0.9c-0.2,0.3-0.4,0.6-0.6,0.8
			c-0.2,0.2-0.5,0.4-0.9,0.6s-0.7,0.2-1.2,0.2s-0.8-0.1-1.2-0.2c-0.3-0.1-0.6-0.3-0.9-0.5c-0.2-0.2-0.4-0.5-0.6-0.8
			c-0.2-0.3-0.3-0.6-0.4-0.9s-0.2-0.6-0.2-1c0-0.3-0.1-0.6-0.1-0.9c0-0.5,0.1-1,0.2-1.5c0.1-0.5,0.3-0.9,0.6-1.3
			c0.3-0.4,0.6-0.7,1.1-0.9c0.4-0.2,0.9-0.4,1.5-0.4c0.4,0,0.7,0.1,1,0.2c0.3,0.1,0.6,0.3,0.8,0.5s0.4,0.4,0.6,0.7
			c0.2,0.3,0.3,0.6,0.4,0.9s0.2,0.6,0.2,0.9S332,116.2,332,116.5z M329.6,116.8c0-0.1,0-0.2,0-0.4c0-0.2,0-0.3,0-0.5
			s-0.1-0.3-0.1-0.5c0-0.2-0.1-0.3-0.2-0.5s-0.1-0.2-0.2-0.3c-0.1-0.1-0.2-0.1-0.3-0.1c-0.1,0-0.2,0-0.3,0.1s-0.2,0.2-0.2,0.3
			c-0.1,0.1-0.1,0.3-0.2,0.4c0,0.2-0.1,0.3-0.1,0.5c0,0.2,0,0.3-0.1,0.5c0,0.2,0,0.3,0,0.4c0,0.2,0,0.3,0,0.5s0.1,0.4,0.1,0.6
			s0.2,0.4,0.3,0.5c0.1,0.1,0.3,0.2,0.4,0.2c0.2,0,0.3-0.1,0.4-0.2c0.1-0.1,0.2-0.3,0.3-0.5c0.1-0.2,0.1-0.4,0.1-0.6
			S329.6,116.9,329.6,116.8z"/>
		<path d="M339.5,112.7c0,0.2-0.1,0.4-0.1,0.7c0,0.3-0.1,0.6-0.1,0.9c0,0.3,0,0.7-0.1,1c0,0.4,0,0.7,0,1c0,0.8,0,1.6,0,2.5
			c0,0.5,0,0.9-0.1,1.4c-0.1,0.4-0.1,0.9-0.3,1.3c-0.1,0.4-0.3,0.8-0.5,1.1s-0.4,0.6-0.7,0.9c-0.3,0.2-0.6,0.4-1,0.6
			c-0.4,0.1-0.8,0.2-1.3,0.2c-0.4,0-0.8,0-1.1-0.1s-0.6-0.2-0.8-0.4c-0.2-0.2-0.4-0.4-0.5-0.6c-0.1-0.2-0.2-0.5-0.2-0.8
			c0-0.3,0-0.5,0.1-0.8s0.2-0.4,0.4-0.6c0.2-0.2,0.3-0.3,0.5-0.4c0.2-0.1,0.4-0.1,0.6-0.1c0.3,0,0.5,0.1,0.7,0.2s0.4,0.4,0.5,0.7
			c-0.1,0-0.1-0.1-0.2-0.1c-0.1,0-0.2,0-0.3,0.1c-0.1,0.1-0.1,0.2-0.1,0.3c0,0.1,0,0.1,0,0.2c0,0,0.1,0.1,0.1,0.1s0.1,0,0.1,0.1
			c0,0,0.1,0,0.1,0c0,0,0.1,0,0.2,0c0.1,0,0.2-0.1,0.3-0.1s0.2-0.2,0.3-0.3s0.2-0.4,0.3-0.6s0.2-0.6,0.2-1c0.1-0.4,0.1-0.9,0.1-1.5
			c-0.1,0.4-0.2,0.7-0.3,1s-0.3,0.4-0.4,0.5c-0.2,0.1-0.3,0.2-0.5,0.2c-0.2,0-0.3,0-0.5,0c-0.1,0-0.2,0-0.4-0.1
			c-0.2,0-0.3-0.1-0.5-0.2c-0.2-0.1-0.4-0.2-0.6-0.4c-0.2-0.2-0.4-0.4-0.5-0.6c-0.2-0.3-0.3-0.6-0.4-0.9c-0.1-0.4-0.1-0.8-0.1-1.3
			c0-0.8,0.1-1.4,0.2-1.9c0.2-0.5,0.4-1,0.6-1.3c0.2-0.3,0.5-0.6,0.8-0.7c0.3-0.1,0.6-0.2,0.9-0.2c0.2,0,0.4,0,0.6,0.1
			c0.2,0.1,0.3,0.2,0.5,0.3s0.3,0.2,0.4,0.4c0.1,0.1,0.2,0.3,0.3,0.4c0-0.2-0.1-0.4-0.1-0.6c0-0.2-0.1-0.4-0.1-0.6
			c0.1,0,0.3,0.1,0.4,0.1c0.1,0,0.3,0.1,0.5,0.1c0.2,0,0.5,0,0.8,0C338.6,112.8,339,112.7,339.5,112.7z M336.6,116.1
			c0-0.1,0-0.3,0-0.5c0-0.2-0.1-0.4-0.1-0.5c0-0.2-0.1-0.3-0.2-0.4c-0.1-0.1-0.2-0.2-0.3-0.2c-0.1,0-0.2,0.1-0.3,0.2
			c-0.1,0.1-0.2,0.3-0.2,0.4c-0.1,0.2-0.1,0.3-0.1,0.5c0,0.2-0.1,0.3-0.1,0.5c0,0.2,0,0.4,0,0.7s0.1,0.4,0.1,0.6
			c0.1,0.2,0.1,0.3,0.2,0.5c0.1,0.1,0.2,0.2,0.3,0.2c0.1,0,0.2,0,0.3-0.1c0.1-0.1,0.2-0.1,0.2-0.2c0.1-0.1,0.1-0.2,0.2-0.3
			c0-0.1,0.1-0.3,0.1-0.4V116.1z"/>
		<path d="M346,114.2c0,0.3,0,0.7-0.1,1c-0.1,0.3-0.3,0.6-0.5,0.9s-0.6,0.5-1,0.6c-0.4,0.2-0.9,0.2-1.6,0.2c0,0.2,0.1,0.4,0.1,0.6
			c0.1,0.2,0.2,0.3,0.3,0.4s0.2,0.2,0.3,0.2s0.2,0.1,0.3,0.1s0.2,0,0.4,0c0.3,0,0.5-0.1,0.8-0.2c0.1,0,0.2-0.1,0.3-0.2
			c0.1-0.1,0.2-0.2,0.2-0.3c0.1-0.1,0.1-0.2,0.2-0.3c0-0.1,0.1-0.3,0.1-0.4c0.1,0.3,0.2,0.6,0.2,0.8c0,0.3,0.1,0.5,0.1,0.7
			c0,0.4-0.1,0.8-0.2,1.1c-0.1,0.3-0.4,0.6-0.6,0.9s-0.6,0.4-0.9,0.6c-0.4,0.1-0.7,0.2-1.2,0.2c-0.4,0-0.8-0.1-1.2-0.2
			c-0.4-0.1-0.7-0.4-1-0.7c-0.3-0.3-0.5-0.7-0.7-1.2c-0.2-0.5-0.3-1.1-0.3-1.8c0-0.8,0.1-1.4,0.3-2s0.5-1.1,0.9-1.5
			c0.4-0.4,0.8-0.7,1.3-0.9c0.5-0.2,1-0.3,1.5-0.3c0.3,0,0.5,0,0.8,0.1c0.2,0.1,0.5,0.2,0.6,0.3c0.2,0.1,0.3,0.3,0.4,0.5
			C345.9,113.6,346,113.9,346,114.2z M342.7,115.7c0.1,0,0.3,0,0.4-0.1c0.2,0,0.3-0.1,0.5-0.2s0.3-0.2,0.4-0.3
			c0.1-0.1,0.2-0.3,0.2-0.4c0-0.1,0-0.2-0.1-0.3s-0.2-0.1-0.3-0.1c-0.2,0-0.3,0-0.4,0.1c-0.1,0.1-0.2,0.2-0.3,0.3
			c-0.1,0.1-0.2,0.3-0.2,0.5S342.7,115.6,342.7,115.7z"/>
		<path d="M352.2,114.3c0,0.2,0,0.3-0.1,0.5s-0.2,0.3-0.3,0.4c-0.1,0.1-0.3,0.2-0.4,0.2c-0.2,0.1-0.3,0.1-0.5,0.1
			c-0.2,0-0.4,0-0.5-0.1c-0.1,0-0.3-0.1-0.4-0.2c-0.1-0.1-0.2-0.2-0.2-0.3c-0.1-0.1-0.1-0.2-0.1-0.3c0-0.1-0.1-0.2-0.1-0.3
			s0-0.1,0-0.2c0,0.1,0.1,0.1,0.2,0.1s0.1,0,0.2,0c0.1,0,0.2,0,0.2-0.1s0.1-0.1,0.1-0.2c0,0,0-0.1,0-0.1s0-0.1-0.1-0.1
			c0,0-0.1-0.1-0.2-0.1s-0.2,0-0.3,0c-0.1,0-0.1,0-0.2,0s-0.1,0.1-0.2,0.1c-0.1,0.1-0.1,0.1-0.2,0.2c0,0.1-0.1,0.2-0.1,0.3
			c0,0.2,0.1,0.4,0.2,0.5s0.2,0.3,0.4,0.4c0.2,0.1,0.4,0.2,0.6,0.3c0.2,0.1,0.4,0.2,0.7,0.3c0.2,0.1,0.5,0.2,0.7,0.3
			c0.2,0.1,0.4,0.3,0.6,0.4c0.2,0.2,0.3,0.4,0.4,0.6s0.2,0.5,0.2,0.9c0,0.4-0.1,0.8-0.3,1.1s-0.4,0.6-0.7,0.9
			c-0.3,0.2-0.6,0.4-1,0.6c-0.4,0.1-0.8,0.2-1.2,0.2c-0.4,0-0.8-0.1-1.1-0.2s-0.6-0.3-0.9-0.4s-0.5-0.4-0.6-0.7
			c-0.2-0.3-0.2-0.5-0.2-0.8c0-0.2,0-0.4,0.1-0.6c0.1-0.2,0.2-0.3,0.3-0.4c0.1-0.1,0.3-0.2,0.5-0.2c0.2-0.1,0.4-0.1,0.6-0.1
			c0.2,0,0.3,0,0.5,0s0.3,0.1,0.4,0.1s0.3,0.1,0.4,0.2s0.2,0.2,0.3,0.3c0,0-0.1,0-0.1,0c0,0-0.1,0-0.1,0c-0.1,0-0.2,0-0.2,0.1
			c-0.1,0.1-0.1,0.1-0.1,0.3c0,0.1,0.1,0.2,0.2,0.3s0.2,0.1,0.3,0.1c0.1,0,0.1,0,0.2,0s0.1-0.1,0.2-0.1c0-0.1,0.1-0.1,0.1-0.2
			c0-0.1,0-0.1,0-0.2c0-0.1,0-0.2-0.1-0.4c-0.1-0.1-0.2-0.3-0.3-0.3c-0.3-0.2-0.6-0.3-0.8-0.5s-0.5-0.2-0.7-0.4s-0.4-0.2-0.6-0.3
			c-0.2-0.1-0.3-0.2-0.4-0.4c-0.1-0.2-0.2-0.3-0.3-0.5c-0.1-0.2-0.1-0.5-0.1-0.8c0-0.4,0.1-0.7,0.2-1c0.1-0.3,0.3-0.6,0.6-0.8
			s0.6-0.4,1-0.5c0.4-0.1,0.8-0.2,1.3-0.2c0.5,0,0.9,0.1,1.2,0.2c0.3,0.1,0.6,0.3,0.8,0.4c0.2,0.2,0.4,0.4,0.4,0.6
			S352.2,114.1,352.2,114.3z"/>
	</g>
	<g>
		<path d="M309.6,139.3c-0.1,0-0.2,0-0.3,0c-0.1,0-0.2,0-0.4,0s-0.3,0-0.5,0c-0.4,0-0.8,0-1.3,0s-1,0.1-1.6,0.2
			c0.1-0.2,0.2-0.5,0.3-0.8s0.1-0.7,0.2-1c0-0.4,0.1-0.7,0.1-1.1s0-0.7,0.1-1s0-0.6,0-0.8c0-0.2,0-0.4,0-0.5c0,0,0-0.1,0-0.2
			c0-0.1,0-0.2,0-0.4s0-0.3,0-0.6c0-0.2,0-0.4,0-0.7c-0.3,0-0.5-0.1-0.7-0.1c-0.2,0-0.5-0.1-0.7-0.1c-0.2,0-0.5-0.1-0.7-0.1
			c0.3-0.3,0.6-0.6,0.8-0.9s0.4-0.5,0.5-0.8c0.1-0.2,0.2-0.5,0.3-0.7c0.1-0.2,0.1-0.4,0.1-0.5c0.5,0.1,0.9,0.1,1.3,0.2
			c0.4,0,0.7,0,1,0c0.2,0,0.4,0,0.6,0s0.3,0,0.4,0c0.1,0,0.2,0,0.3,0c-0.1,0.3-0.1,0.5-0.1,0.9c0,0.3-0.1,0.6-0.1,1
			c0,0.4-0.1,0.7-0.1,1.1c0,0.4,0,0.8,0,1.2c0,0.5,0,1,0,1.4c0,0.5,0.1,1,0.1,1.5c0.1,0.5,0.1,1,0.2,1.4
			C309.4,138.4,309.5,138.9,309.6,139.3z"/>
		<path d="M310.3,139.5c0-0.6,0.1-1.2,0.2-1.6c0.1-0.5,0.3-0.9,0.5-1.2c0.2-0.3,0.4-0.6,0.7-0.9s0.5-0.5,0.8-0.6
			c0.3-0.2,0.5-0.4,0.8-0.5s0.5-0.4,0.7-0.5c0.2-0.2,0.4-0.4,0.5-0.7s0.2-0.5,0.2-0.9c0-0.1,0-0.2,0-0.3c0-0.1-0.1-0.2-0.1-0.3
			c-0.1-0.1-0.1-0.2-0.2-0.2s-0.2-0.1-0.4-0.1c-0.1,0-0.2,0-0.3,0.1c-0.1,0-0.2,0.1-0.2,0.2c-0.1,0.1-0.1,0.1-0.1,0.2
			c0,0.1,0,0.2,0,0.2c0,0.1,0,0.1,0,0.2c0,0.1,0.1,0.1,0.1,0.2s0.1,0.1,0.2,0.1c0.1,0,0.1,0,0.2,0c0.1,0,0.2,0,0.2,0
			c-0.1,0.1-0.2,0.3-0.3,0.4c-0.1,0.1-0.3,0.2-0.4,0.3c-0.2,0.1-0.3,0.1-0.5,0.2c-0.2,0-0.4,0.1-0.6,0.1c-0.2,0-0.5,0-0.7-0.1
			c-0.2-0.1-0.4-0.2-0.6-0.3c-0.2-0.1-0.3-0.3-0.4-0.5c-0.1-0.2-0.1-0.5-0.1-0.7c0-0.4,0.1-0.7,0.2-1.1c0.1-0.4,0.4-0.7,0.7-1
			s0.7-0.5,1.1-0.7c0.4-0.2,1-0.2,1.5-0.2c0.7,0,1.3,0.1,1.7,0.3c0.5,0.2,0.9,0.5,1.2,0.8c0.3,0.3,0.6,0.7,0.7,1.2
			c0.2,0.5,0.2,1,0.2,1.5c0,0.4,0,0.7-0.1,1s-0.2,0.5-0.4,0.7s-0.4,0.4-0.6,0.5c-0.2,0.2-0.4,0.3-0.7,0.4c-0.2,0.1-0.5,0.2-0.7,0.4
			s-0.5,0.2-0.7,0.4c-0.2,0.1-0.5,0.3-0.7,0.5s-0.4,0.4-0.5,0.6c0.9-0.1,1.7-0.2,2.4-0.5c0.7-0.3,1.3-0.6,1.8-1.1
			c0,0.2-0.1,0.5-0.1,0.7c0,0.2,0,0.5,0,0.7c0,0.4,0,0.8,0.1,1.1c0,0.4,0.1,0.7,0.2,1.1c-0.6-0.1-1.2-0.1-1.8-0.2s-1.2-0.1-1.9-0.1
			c-0.6,0-1.3,0-1.9,0.1C311.5,139.3,310.9,139.4,310.3,139.5z"/>
		<path d="M324.6,129.5c-0.8,1.6-1.5,3.2-2,4.9c-0.5,1.6-1,3.3-1.3,5.1c-0.2,0-0.3,0-0.5-0.1c-0.2,0-0.4,0-0.6,0s-0.4,0-0.6,0
			s-0.4,0-0.6,0h-0.5c0.3-0.4,0.5-0.9,0.7-1.4s0.5-1,0.7-1.6s0.4-1.1,0.6-1.8c0.2-0.6,0.4-1.2,0.6-1.8c0.2-0.6,0.3-1.2,0.4-1.7
			c0.1-0.6,0.2-1.1,0.3-1.5c0.1,0,0.2,0,0.3,0c0.1,0,0.2,0,0.4,0c0.1,0,0.2,0,0.4,0c0.1,0,0.2,0,0.3,0c0.1,0,0.2,0,0.4,0
			c0.1,0,0.3,0,0.4,0c0.1,0,0.3,0,0.4,0C324.3,129.5,324.4,129.5,324.6,129.5z"/>
		<path d="M332.8,134.6c0,0.4,0,0.8-0.1,1.2c-0.1,0.4-0.2,0.8-0.3,1.2c-0.1,0.4-0.3,0.7-0.5,1c-0.2,0.3-0.5,0.6-0.8,0.8
			c-0.3,0.2-0.6,0.4-1,0.6s-0.8,0.2-1.3,0.2s-0.9-0.1-1.2-0.2s-0.7-0.3-1-0.5c-0.3-0.2-0.5-0.5-0.8-0.8s-0.4-0.7-0.5-1
			c-0.1-0.4-0.2-0.8-0.3-1.2c-0.1-0.4-0.1-0.9-0.1-1.3c0-0.8,0.1-1.5,0.3-2.2c0.2-0.7,0.5-1.2,0.8-1.7c0.4-0.5,0.8-0.8,1.2-1.1
			c0.5-0.3,1-0.4,1.5-0.4c0.6,0,1.2,0.1,1.6,0.4s0.9,0.6,1.2,1c0.3,0.5,0.6,1,0.8,1.7C332.7,133,332.8,133.8,332.8,134.6z
			 M330,134.3c0-0.4,0-0.7-0.1-1.1c-0.1-0.3-0.1-0.6-0.2-0.8c-0.1-0.2-0.2-0.4-0.4-0.5c-0.1-0.1-0.3-0.2-0.5-0.2
			c-0.2,0-0.3,0.1-0.5,0.2c-0.1,0.1-0.3,0.3-0.4,0.6c-0.1,0.2-0.2,0.5-0.2,0.8s-0.1,0.6-0.1,0.9c0,0.4,0,0.7,0.1,1
			c0,0.3,0.1,0.5,0.2,0.8s0.2,0.4,0.4,0.5c0.1,0.1,0.3,0.2,0.5,0.2c0.2,0,0.4-0.1,0.5-0.2c0.1-0.1,0.3-0.3,0.4-0.5
			c0.1-0.2,0.2-0.5,0.2-0.8C330,135,330,134.7,330,134.3z"/>
		<path d="M338.7,139.3c-0.1,0-0.2,0-0.3,0c-0.1,0-0.2,0-0.4,0s-0.3,0-0.5,0c-0.4,0-0.8,0-1.3,0s-1,0.1-1.6,0.2
			c0.1-0.2,0.2-0.5,0.3-0.8s0.1-0.7,0.2-1c0-0.4,0.1-0.7,0.1-1.1s0-0.7,0.1-1s0-0.6,0-0.8c0-0.2,0-0.4,0-0.5c0,0,0-0.1,0-0.2
			c0-0.1,0-0.2,0-0.4s0-0.3,0-0.6c0-0.2,0-0.4,0-0.7c-0.3,0-0.5-0.1-0.7-0.1c-0.2,0-0.5-0.1-0.7-0.1c-0.2,0-0.5-0.1-0.7-0.1
			c0.3-0.3,0.6-0.6,0.8-0.9s0.4-0.5,0.5-0.8c0.1-0.2,0.2-0.5,0.3-0.7c0.1-0.2,0.1-0.4,0.1-0.5c0.5,0.1,0.9,0.1,1.3,0.2
			c0.4,0,0.7,0,1,0c0.2,0,0.4,0,0.6,0s0.3,0,0.4,0c0.1,0,0.2,0,0.3,0c-0.1,0.3-0.1,0.5-0.1,0.9c0,0.3-0.1,0.6-0.1,1
			c0,0.4-0.1,0.7-0.1,1.1c0,0.4,0,0.8,0,1.2c0,0.5,0,1,0,1.4c0,0.5,0.1,1,0.1,1.5c0.1,0.5,0.1,1,0.2,1.4
			C338.4,138.4,338.5,138.9,338.7,139.3z"/>
		<path d="M345.4,129.5c-0.8,1.6-1.5,3.2-2,4.9c-0.5,1.6-1,3.3-1.3,5.1c-0.2,0-0.3,0-0.5-0.1c-0.2,0-0.4,0-0.6,0s-0.4,0-0.6,0
			s-0.4,0-0.6,0h-0.5c0.3-0.4,0.5-0.9,0.7-1.4s0.5-1,0.7-1.6s0.4-1.1,0.6-1.8c0.2-0.6,0.4-1.2,0.6-1.8c0.2-0.6,0.3-1.2,0.4-1.7
			c0.1-0.6,0.2-1.1,0.3-1.5c0.1,0,0.2,0,0.3,0c0.1,0,0.2,0,0.4,0c0.1,0,0.2,0,0.4,0c0.1,0,0.2,0,0.3,0c0.1,0,0.2,0,0.4,0
			c0.1,0,0.3,0,0.4,0c0.1,0,0.3,0,0.4,0C345.2,129.5,345.3,129.5,345.4,129.5z"/>
		<path d="M345.9,139.5c0-0.6,0.1-1.2,0.2-1.6c0.1-0.5,0.3-0.9,0.5-1.2c0.2-0.3,0.4-0.6,0.7-0.9s0.5-0.5,0.8-0.6
			c0.3-0.2,0.5-0.4,0.8-0.5s0.5-0.4,0.7-0.5c0.2-0.2,0.4-0.4,0.5-0.7s0.2-0.5,0.2-0.9c0-0.1,0-0.2,0-0.3c0-0.1-0.1-0.2-0.1-0.3
			c-0.1-0.1-0.1-0.2-0.2-0.2s-0.2-0.1-0.4-0.1c-0.1,0-0.2,0-0.3,0.1c-0.1,0-0.2,0.1-0.2,0.2c-0.1,0.1-0.1,0.1-0.1,0.2
			c0,0.1,0,0.2,0,0.2c0,0.1,0,0.1,0,0.2c0,0.1,0.1,0.1,0.1,0.2s0.1,0.1,0.2,0.1c0.1,0,0.1,0,0.2,0c0.1,0,0.2,0,0.2,0
			c-0.1,0.1-0.2,0.3-0.3,0.4c-0.1,0.1-0.3,0.2-0.4,0.3c-0.2,0.1-0.3,0.1-0.5,0.2c-0.2,0-0.4,0.1-0.6,0.1c-0.2,0-0.5,0-0.7-0.1
			c-0.2-0.1-0.4-0.2-0.6-0.3c-0.2-0.1-0.3-0.3-0.4-0.5c-0.1-0.2-0.1-0.5-0.1-0.7c0-0.4,0.1-0.7,0.2-1.1c0.1-0.4,0.4-0.7,0.7-1
			s0.7-0.5,1.1-0.7c0.4-0.2,1-0.2,1.5-0.2c0.7,0,1.3,0.1,1.7,0.3c0.5,0.2,0.9,0.5,1.2,0.8c0.3,0.3,0.6,0.7,0.7,1.2
			c0.2,0.5,0.2,1,0.2,1.5c0,0.4,0,0.7-0.1,1s-0.2,0.5-0.4,0.7s-0.4,0.4-0.6,0.5c-0.2,0.2-0.4,0.3-0.7,0.4c-0.2,0.1-0.5,0.2-0.7,0.4
			s-0.5,0.2-0.7,0.4c-0.2,0.1-0.5,0.3-0.7,0.5s-0.4,0.4-0.5,0.6c0.9-0.1,1.7-0.2,2.4-0.5c0.7-0.3,1.3-0.6,1.8-1.1
			c0,0.2-0.1,0.5-0.1,0.7c0,0.2,0,0.5,0,0.7c0,0.4,0,0.8,0.1,1.1c0,0.4,0.1,0.7,0.2,1.1c-0.6-0.1-1.2-0.1-1.8-0.2s-1.2-0.1-1.9-0.1
			c-0.6,0-1.3,0-1.9,0.1C347.1,139.3,346.5,139.4,345.9,139.5z"/>
		<path d="M354.1,139.5c0-0.6,0.1-1.2,0.2-1.6c0.1-0.5,0.3-0.9,0.5-1.2c0.2-0.3,0.4-0.6,0.7-0.9s0.5-0.5,0.8-0.6
			c0.3-0.2,0.5-0.4,0.8-0.5s0.5-0.4,0.7-0.5c0.2-0.2,0.4-0.4,0.5-0.7s0.2-0.5,0.2-0.9c0-0.1,0-0.2,0-0.3c0-0.1-0.1-0.2-0.1-0.3
			c-0.1-0.1-0.1-0.2-0.2-0.2s-0.2-0.1-0.4-0.1c-0.1,0-0.2,0-0.3,0.1c-0.1,0-0.2,0.1-0.2,0.2c-0.1,0.1-0.1,0.1-0.1,0.2
			c0,0.1,0,0.2,0,0.2c0,0.1,0,0.1,0,0.2c0,0.1,0.1,0.1,0.1,0.2s0.1,0.1,0.2,0.1c0.1,0,0.1,0,0.2,0c0.1,0,0.2,0,0.2,0
			c-0.1,0.1-0.2,0.3-0.3,0.4c-0.1,0.1-0.3,0.2-0.4,0.3c-0.2,0.1-0.3,0.1-0.5,0.2c-0.2,0-0.4,0.1-0.6,0.1c-0.2,0-0.5,0-0.7-0.1
			c-0.2-0.1-0.4-0.2-0.6-0.3c-0.2-0.1-0.3-0.3-0.4-0.5c-0.1-0.2-0.1-0.5-0.1-0.7c0-0.4,0.1-0.7,0.2-1.1c0.1-0.4,0.4-0.7,0.7-1
			s0.7-0.5,1.1-0.7c0.4-0.2,1-0.2,1.5-0.2c0.7,0,1.3,0.1,1.7,0.3c0.5,0.2,0.9,0.5,1.2,0.8c0.3,0.3,0.6,0.7,0.7,1.2
			c0.2,0.5,0.2,1,0.2,1.5c0,0.4,0,0.7-0.1,1s-0.2,0.5-0.4,0.7s-0.4,0.4-0.6,0.5c-0.2,0.2-0.4,0.3-0.7,0.4c-0.2,0.1-0.5,0.2-0.7,0.4
			s-0.5,0.2-0.7,0.4c-0.2,0.1-0.5,0.3-0.7,0.5s-0.4,0.4-0.5,0.6c0.9-0.1,1.7-0.2,2.4-0.5c0.7-0.3,1.3-0.6,1.8-1.1
			c0,0.2-0.1,0.5-0.1,0.7c0,0.2,0,0.5,0,0.7c0,0.4,0,0.8,0.1,1.1c0,0.4,0.1,0.7,0.2,1.1c-0.6-0.1-1.2-0.1-1.8-0.2s-1.2-0.1-1.9-0.1
			c-0.6,0-1.3,0-1.9,0.1C355.3,139.3,354.7,139.4,354.1,139.5z"/>
	</g>
	<line class="st8" x1="14.5" y1="91.1" x2="258.3" y2="91.1"/>
</g>
</svg>
