<svg width="130" height="36" viewBox="0 0 130 36" fill="none" xmlns="http://www.w3.org/2000/svg">
<path d="M0 0L129.6 0V36L0 36L0 0Z" fill="#EC8989"/>
<mask id="mask0_431_21" style="mask-type:alpha" maskUnits="userSpaceOnUse" x="98" y="4" width="28" height="28">
<path d="M126 18C126 25.732 119.732 32 112 32C104.268 32 98 25.732 98 18C98 10.268 104.268 4 112 4C119.732 4 126 10.268 126 18Z" fill="#EC8989"/>
</mask>
<g mask="url(#mask0_431_21)">
<path d="M100.075 29.9366C100.075 29.9366 98.8721 19.3297 106.123 15.333L116.367 15.5502C116.367 15.5502 120.745 17.0479 121.333 29.6737L111.172 33.9997L100.075 29.9366Z" fill="#5154A1"/>
<path d="M116.19 15.2109C116.19 15.2109 113.842 18.1795 110.75 18.0381L111.355 20.3264C111.355 20.3264 116.261 17.3358 116.19 15.2109Z" fill="#373684"/>
<path d="M116.19 15.2109C116.19 15.2109 113.664 18.0028 110.571 17.8614L111.168 20.1475C111.168 20.1475 115.629 17.7687 116.19 15.2109Z" fill="#FAF3ED"/>
<path d="M109.794 17.6957L109.319 20.0303C109.319 20.0303 106.613 16.9646 106.447 15.001C106.445 15.001 108.771 17.5388 109.794 17.6957Z" fill="#373684"/>
<path d="M109.666 17.6647L109.105 19.9243C109.105 19.9243 106.613 16.9623 106.454 15.001C107.221 16.2014 108.344 17.1325 109.666 17.6647Z" fill="#FAF3ED"/>
<path d="M110.505 18.9176C110.505 18.9176 111.004 24.6891 111.322 26.0077C111.64 27.3263 110.162 28.6891 110.074 29.1441H108.17C108.17 29.1441 107.258 27.5074 107.461 26.2727C107.664 25.0381 109.922 18.8447 109.922 18.8447L110.505 18.9176Z" fill="#C7361A"/>
<path d="M110.405 18.8817C110.405 18.8817 110.904 24.6532 111.222 25.9718C111.541 27.2904 110.061 28.6532 109.972 29.1082H108.075C108.075 29.1082 107.161 27.4715 107.366 26.2369C107.571 25.0022 109.82 18.8066 109.82 18.8066L110.405 18.8817Z" fill="#E8461C"/>
<path d="M109.816 18.6677L110.087 18.3784C110.103 18.3608 110.123 18.3472 110.145 18.3386C110.167 18.3296 110.19 18.3258 110.213 18.3276C110.237 18.3295 110.261 18.3363 110.282 18.3475C110.302 18.3587 110.32 18.3746 110.333 18.3939L110.613 18.787C110.626 18.8038 110.635 18.8231 110.64 18.8436C110.645 18.8642 110.646 18.8855 110.642 18.9063C110.639 18.9271 110.632 18.947 110.621 18.9649C110.61 18.9827 110.595 18.9981 110.578 19.0101L110.185 19.2884C110.166 19.302 110.144 19.3111 110.121 19.3149C110.097 19.3204 110.073 19.3204 110.05 19.3149C110.027 19.3083 110.006 19.297 109.988 19.2818C109.97 19.2661 109.955 19.2465 109.946 19.2243L109.785 18.8422C109.776 18.8127 109.776 18.7812 109.785 18.7517C109.787 18.7213 109.797 18.6921 109.816 18.6677Z" fill="#C7361A"/>
<path d="M109.765 18.6493L110.028 18.3688C110.044 18.3526 110.062 18.3399 110.083 18.3313C110.105 18.3258 110.128 18.3258 110.149 18.3313C110.172 18.3316 110.194 18.3377 110.213 18.349C110.234 18.3601 110.251 18.376 110.264 18.3953L110.534 18.7752C110.545 18.7911 110.554 18.8091 110.558 18.8283C110.562 18.8479 110.562 18.8683 110.558 18.8879C110.555 18.9084 110.547 18.928 110.536 18.9453C110.526 18.9625 110.512 18.9776 110.496 18.9895L110.121 19.2568C110.101 19.2697 110.079 19.2787 110.057 19.2833C110.034 19.2877 110.011 19.2877 109.988 19.2833C109.966 19.2767 109.946 19.2654 109.929 19.2501C109.911 19.2352 109.897 19.2163 109.889 19.1949L109.734 18.826C109.725 18.798 109.725 18.7679 109.734 18.7399C109.735 18.7073 109.746 18.6757 109.765 18.6493Z" fill="#E8461C"/>
<path d="M107.264 15.1883C107.017 15.1883 106.773 15.1396 106.545 15.045C106.316 14.9504 106.109 14.8117 105.935 14.6369C105.76 14.4622 105.622 14.2547 105.527 14.0264C105.433 13.7981 105.384 13.5534 105.385 13.3064C105.385 12.8079 105.583 12.3298 105.935 11.9773C106.288 11.6248 106.766 11.4268 107.264 11.4268C107.763 11.4268 108.241 11.6247 108.594 11.9772C108.947 12.3296 109.146 12.8077 109.146 13.3064C109.146 13.8055 108.948 14.2842 108.595 14.6371C108.242 14.99 107.764 15.1883 107.264 15.1883Z" fill="#F39672"/>
<path d="M114.803 13.3222C114.801 12.9679 114.881 12.6179 115.037 12.2996C115.174 12.0122 115.392 11.7711 115.664 11.606C115.91 11.4594 116.201 11.4083 116.481 11.4625C116.775 11.5253 117.038 11.6857 117.228 11.9175C117.449 12.1766 117.601 12.4873 117.67 12.8208C117.744 13.1724 117.739 13.5362 117.654 13.8855C117.579 14.2142 117.42 14.5182 117.195 14.769C116.996 14.9894 116.728 15.1364 116.435 15.1864C116.379 15.1952 116.322 15.1996 116.265 15.1997C116.17 15.2001 116.075 15.1883 115.982 15.1643C115.629 15.0617 115.327 14.8288 115.139 14.5128C114.917 14.1554 114.8 13.7428 114.803 13.3222Z" fill="#F39672"/>
<path d="M111.364 17.89C108.433 17.89 106.063 15.816 106.063 13.2516C106.063 10.6873 108.44 8.61328 111.364 8.61328C114.289 8.61328 116.665 10.6873 116.665 13.2516C116.665 15.816 114.295 17.89 111.364 17.89Z" fill="#F39672"/>
<path d="M112.713 12.1982C112.726 12.2003 112.738 12.2003 112.751 12.1982L113.721 11.8073C113.745 11.7974 113.764 11.7785 113.774 11.7545C113.785 11.7306 113.785 11.7035 113.776 11.6792C113.766 11.655 113.747 11.6356 113.723 11.6253C113.699 11.615 113.672 11.6145 113.648 11.6239L112.676 12.0149C112.664 12.0195 112.653 12.0265 112.643 12.0356C112.634 12.0446 112.626 12.0555 112.621 12.0675C112.617 12.0795 112.614 12.0924 112.614 12.1054C112.614 12.1184 112.617 12.1312 112.623 12.143C112.631 12.16 112.644 12.1743 112.66 12.1841C112.676 12.1939 112.694 12.1988 112.713 12.1982Z" fill="black"/>
<path d="M108.923 12.1251C108.944 12.1251 108.963 12.1189 108.98 12.1075C108.996 12.0961 109.009 12.0799 109.016 12.061C109.021 12.049 109.023 12.0362 109.023 12.0233C109.022 12.0105 109.019 11.9978 109.014 11.9861C109.008 11.9744 109.001 11.9638 108.991 11.9551C108.982 11.9464 108.971 11.9396 108.959 11.9351L107.98 11.5641C107.956 11.5547 107.928 11.5556 107.904 11.5663C107.88 11.5771 107.862 11.5969 107.852 11.6215C107.843 11.6461 107.844 11.6734 107.854 11.6974C107.865 11.7215 107.885 11.7402 107.91 11.7496L108.888 12.1207C108.899 12.1243 108.911 12.1258 108.923 12.1251Z" fill="black"/>
<path d="M108.128 13.2005C108.059 13.2005 107.991 13.1869 107.927 13.1605C107.863 13.1341 107.805 13.0954 107.757 13.0466C107.708 12.9977 107.669 12.9398 107.643 12.876C107.616 12.8122 107.603 12.7439 107.603 12.6748C107.603 12.5358 107.659 12.4027 107.757 12.3046C107.856 12.2064 107.989 12.1514 108.128 12.1514C108.267 12.1514 108.401 12.2064 108.499 12.3046C108.598 12.4027 108.653 12.5358 108.654 12.6748C108.654 12.7439 108.64 12.8122 108.614 12.876C108.587 12.9398 108.549 12.9977 108.5 13.0466C108.451 13.0954 108.393 13.1341 108.329 13.1605C108.266 13.1869 108.197 13.2005 108.128 13.2005Z" fill="#1B1935"/>
<path d="M113.462 13.2005C113.323 13.2005 113.189 13.1451 113.09 13.0466C112.992 12.948 112.937 12.8143 112.937 12.6748C112.937 12.5358 112.993 12.4027 113.091 12.3046C113.19 12.2064 113.323 12.1514 113.462 12.1514C113.601 12.1514 113.734 12.2065 113.832 12.3047C113.931 12.4029 113.986 12.536 113.986 12.6748C113.986 12.7438 113.973 12.8121 113.946 12.8758C113.92 12.9396 113.882 12.9976 113.833 13.0464C113.784 13.0953 113.727 13.134 113.663 13.1605C113.599 13.1869 113.531 13.2005 113.462 13.2005Z" fill="#1B1935"/>
<path d="M117.228 14.0333C117.324 13.8071 117.373 13.5635 117.372 13.3177C117.37 13.0727 117.318 12.8306 117.219 12.6065C117.131 12.4015 116.991 12.2227 116.813 12.0874C116.654 11.9663 116.46 11.8997 116.261 11.8975C116.261 11.8975 117.555 12.3237 117.228 14.0333Z" fill="#BC6A4F"/>
<path d="M116.261 11.4494C116.037 11.4515 115.818 11.5157 115.629 11.635C115.711 11.5543 115.811 11.4951 115.921 11.4628C116.032 11.4304 116.148 11.4258 116.261 11.4494Z" fill="#BC6A4F"/>
<path d="M109.109 16.8564C109.42 17.0972 110.041 17.2606 110.757 17.2606C111.472 17.2606 112.082 17.0972 112.404 16.8564C112.404 16.8564 110.75 17.4815 109.109 16.8564Z" fill="#BC6A4F"/>
<path d="M113.822 8.41895H113.602V9.4173H113.822V8.41895Z" fill="#1D1D1B"/>
<path d="M114.637 8.80371H114.417V9.80206H114.637V8.80371Z" fill="#1D1D1B"/>
<path d="M115.415 9.41699H115.194V10.4153H115.415V9.41699Z" fill="#1D1D1B"/>
<path d="M116.056 10.1768H115.835V11.1751H116.056V10.1768Z" fill="#1D1D1B"/>
<path d="M113.073 8.12793H112.853V9.12628H113.073V8.12793Z" fill="#1D1D1B"/>
<path d="M112.137 7.91992H111.916V8.91828H112.137V7.91992Z" fill="#1D1D1B"/>
<path d="M111.475 7.91992H111.254V8.91828H111.475V7.91992Z" fill="#1D1D1B"/>
<path d="M110.739 7.91992H110.518V8.91828H110.739V7.91992Z" fill="#1D1D1B"/>
<path d="M109.966 8.12793H109.745V9.12628H109.966V8.12793Z" fill="#1D1D1B"/>
<path d="M109.261 8.41895H109.04V9.4173H109.261V8.41895Z" fill="#1D1D1B"/>
<path d="M108.537 8.80371H108.316V9.80206H108.537V8.80371Z" fill="#1D1D1B"/>
<path d="M107.883 9.23828H107.662V10.2366H107.883V9.23828Z" fill="#1D1D1B"/>
<path d="M112.696 14.1202C112.506 13.9307 112.248 13.8243 111.98 13.8242H109.537C109.404 13.824 109.273 13.8501 109.15 13.9008C109.027 13.9516 108.916 14.0262 108.822 14.1202C108.632 14.3099 108.524 14.5672 108.523 14.8358V18.224C108.658 18.2243 108.791 18.1981 108.915 18.147C109.039 18.0958 109.151 18.0207 109.246 17.9259C109.341 17.8312 109.417 17.7186 109.468 17.5946C109.52 17.4707 109.546 17.3378 109.546 17.2036V14.8358H111.976V17.2036C111.976 17.4742 112.083 17.7338 112.275 17.9252C112.466 18.1165 112.726 18.224 112.996 18.224V14.8358C112.996 14.7026 112.969 14.5709 112.917 14.4481C112.866 14.3253 112.79 14.2139 112.696 14.1202Z" fill="#D8690E"/>
<path d="M110.255 15.2461H110.785C110.82 15.2463 110.855 15.2571 110.884 15.2771C110.914 15.297 110.936 15.3252 110.95 15.3581C110.963 15.391 110.966 15.4272 110.959 15.4619C110.952 15.4966 110.934 15.5283 110.909 15.5531L110.509 15.9418L110.127 15.5487C110.103 15.5234 110.086 15.4917 110.08 15.4573C110.074 15.4229 110.078 15.3874 110.091 15.3553C110.105 15.3231 110.128 15.2956 110.157 15.2762C110.186 15.2568 110.22 15.2463 110.255 15.2461Z" fill="#D8690E"/>
<path d="M104.301 27.3676C104.301 27.3676 104.672 29.0109 104.663 28.9778C104.79 28.8949 104.925 28.8267 105.067 28.7746C105.025 28.3114 104.951 27.8517 104.846 27.3985C104.718 27.3389 104.583 27.2959 104.444 27.2704C104.444 27.2704 104.665 22.7049 105.99 22.3604C104.469 22.6585 104.301 27.3676 104.301 27.3676Z" fill="#373684"/>
<path d="M104.301 27.3688C103.051 27.1854 101.27 27.2605 100.301 27.3224V27.1391C100.301 27.1391 103.437 27.0595 104.301 27.3688Z" fill="#373684"/>
<path d="M117.06 27.3019C117.06 27.3019 116.692 28.9474 116.698 28.9121C116.572 28.8296 116.437 28.7614 116.296 28.7089C116.34 28.2458 116.413 27.7861 116.517 27.3328C116.645 27.2746 116.781 27.2323 116.919 27.2069C116.919 27.2069 116.566 22.6392 115.243 22.2969C116.767 22.5995 117.06 27.3019 117.06 27.3019Z" fill="#373684"/>
<path d="M117.061 27.3022C118.313 27.1211 120.093 27.194 121.063 27.2558V27.0747C121.063 27.0747 117.931 26.9952 117.061 27.3022Z" fill="#373684"/>
<g clip-path="url(#clip0_431_21)">
<path d="M104.888 28.996C104.888 28.996 104.814 31.5173 103.902 30.7174C103.902 30.7174 103.441 31.9769 102.885 31.0031C102.885 31.0031 102.351 32.4316 101.879 30.9459C101.879 30.9459 101.26 32.8054 100.632 30.7745C100.632 30.7745 98.6394 34.1673 98.4823 28.996L104.888 28.996Z" fill="#F39672"/>
<path d="M104.146 28.9954C104.146 29.6328 104.058 30.2471 103.901 30.7168C103.901 30.7168 104.219 30.2168 104.146 28.9954Z" fill="#BC6A4F"/>
<path d="M103.045 28.9958C103.095 30.3982 102.885 31.0029 102.885 31.0029C102.885 31.0029 103.203 30.491 103.045 28.9958Z" fill="#BC6A4F"/>
<path d="M102.125 28.9954C102.11 29.6947 102.025 30.3694 101.879 30.9453C101.973 30.6964 102.045 30.39 102.088 30.051C102.13 29.7121 102.143 29.3503 102.125 28.9954Z" fill="#BC6A4F"/>
<path d="M100.393 29.6506C100.44 30.0695 100.521 30.4539 100.631 30.7744C100.558 30.6639 100.497 30.5007 100.455 30.3027C100.413 30.1046 100.392 29.8792 100.393 29.6506Z" fill="#BC6A4F"/>
</g>
<g clip-path="url(#clip1_431_21)">
<path d="M123 28.996C123 28.996 122.927 31.5173 122.015 30.7174C122.015 30.7174 121.553 31.9769 120.997 31.0031C120.997 31.0031 120.463 32.4316 119.991 30.9459C119.991 30.9459 119.372 32.8054 118.744 30.7745C118.744 30.7745 116.752 34.1673 116.595 28.996L123 28.996Z" fill="#F39672"/>
<path d="M122.258 28.9954C122.258 29.6328 122.171 30.2471 122.013 30.7168C122.013 30.7168 122.331 30.2168 122.258 28.9954Z" fill="#BC6A4F"/>
<path d="M121.158 28.9958C121.207 30.3982 120.997 31.0029 120.997 31.0029C120.997 31.0029 121.316 30.491 121.158 28.9958Z" fill="#BC6A4F"/>
<path d="M120.237 28.9954C120.222 29.6947 120.137 30.3694 119.991 30.9453C120.085 30.6964 120.157 30.39 120.2 30.051C120.243 29.7121 120.255 29.3503 120.237 28.9954Z" fill="#BC6A4F"/>
<path d="M118.506 29.6506C118.553 30.0695 118.634 30.4539 118.743 30.7744C118.67 30.6639 118.609 30.5007 118.567 30.3027C118.525 30.1046 118.504 29.8792 118.506 29.6506Z" fill="#BC6A4F"/>
</g>
<path d="M99.7771 29.1085C99.7771 29.1085 99.5164 28.0748 99.607 27.3724C99.607 27.3724 103.053 27.0543 104.762 27.4519C104.762 27.4519 105.01 28.627 104.919 29.1085H99.7771Z" fill="#FAF3ED"/>
<path d="M121.586 29.0428C121.586 29.0428 121.847 28.0113 121.756 27.3089C121.756 27.3089 118.311 26.9909 116.601 27.3884C116.601 27.3884 116.354 28.5635 116.444 29.0428H121.586Z" fill="#FAF3ED"/>
</g>
<defs>
<clipPath id="clip0_431_21">
<rect width="6.40537" height="2.87137" fill="white" transform="translate(104.888 31.8672) rotate(-180)"/>
</clipPath>
<clipPath id="clip1_431_21">
<rect width="6.40537" height="2.87137" fill="white" transform="translate(123 31.8672) rotate(-180)"/>
</clipPath>
</defs>
</svg>
