<svg width="123" height="36" viewBox="0 0 123 36" fill="none" xmlns="http://www.w3.org/2000/svg">
<rect width="122.4" height="36" fill="#46A882"/>
<path d="M105.751 18.488C106.183 18.248 106.555 17.66 106.555 16.892C106.555 15.38 105.367 14.48 102.967 14.48H98.4072V23H103.195C105.799 23 106.783 22.064 106.783 20.408C106.783 19.496 106.267 18.668 105.751 18.488ZM102.787 17.936H101.407V16.868H102.799C103.339 16.868 103.615 17.036 103.615 17.384C103.615 17.9 103.207 17.936 102.787 17.936ZM101.407 20.612V19.376H102.955C103.435 19.376 103.723 19.484 103.723 20.012C103.723 20.54 103.327 20.612 102.943 20.612H101.407Z" fill="#FAF3EE"/>
<mask id="mask0_431_22" style="mask-type:alpha" maskUnits="userSpaceOnUse" x="91" y="6" width="25" height="25">
<circle cx="103.132" cy="18.1324" r="11.6324" fill="#A27474" stroke="black"/>
</mask>
<g mask="url(#mask0_431_22)">
<path d="M107.825 15.6279H107.9C110.208 15.7016 111.853 15.9814 112.084 17.2161C113.016 22.1598 113.383 28.937 113.383 28.937L103.427 31.9391H103.007L93.5107 28.937C93.5107 28.937 93.8087 18.2912 94.4298 17.2161C94.8494 16.5092 96.3181 15.6991 98.6094 15.623H107.841L107.825 15.6279Z" fill="#5154A1"/>
<path d="M99.3843 18.7568C99.3843 18.7568 103.401 21.8088 106.982 18.7568C106.982 18.7568 105.308 29.6195 105.54 30.9269H101.102L99.3843 18.7568Z" fill="#373684"/>
<g clip-path="url(#clip0_431_22)">
<path d="M115.056 27.5455C115.056 27.5455 114.987 29.9333 114.123 29.1757C114.123 29.1757 113.686 30.3685 113.159 29.4463C113.159 29.4463 112.654 30.7992 112.207 29.3922C112.207 29.3922 111.621 31.1532 111.026 29.2298C111.026 29.2298 109.139 32.443 108.99 27.5455L115.056 27.5455Z" fill="#EFB19E"/>
<path d="M114.354 27.5455C114.354 28.1492 114.271 28.731 114.122 29.1758C114.122 29.1758 114.423 28.7023 114.354 27.5455Z" fill="#BC6A4F"/>
<path d="M113.311 27.5455C113.359 28.8736 113.159 29.4463 113.159 29.4463C113.159 29.4463 113.461 28.9615 113.311 27.5455Z" fill="#BC6A4F"/>
<path d="M112.44 27.5449C112.426 28.2072 112.345 28.8462 112.206 29.3916C112.296 29.1559 112.364 28.8657 112.404 28.5447C112.445 28.2237 112.457 27.8811 112.44 27.5449Z" fill="#BC6A4F"/>
<path d="M110.8 28.1652C110.844 28.5619 110.921 28.9259 111.025 29.2295C110.955 29.1248 110.898 28.9703 110.858 28.7827C110.819 28.5952 110.798 28.3816 110.8 28.1652Z" fill="#BC6A4F"/>
</g>
<g clip-path="url(#clip1_431_22)">
<path d="M97.6943 27.3375C97.6943 27.3375 97.6249 29.7253 96.7613 28.9677C96.7613 28.9677 96.3241 30.1605 95.7976 29.2383C95.7976 29.2383 95.2918 30.5912 94.8447 29.1842C94.8447 29.1842 94.2587 30.9452 93.6637 29.0218C93.6637 29.0218 91.7769 32.235 91.6281 27.3375L97.6943 27.3375Z" fill="#EFB19E"/>
<path d="M96.9921 27.3375C96.9923 27.9411 96.9094 28.523 96.7598 28.9678C96.7598 28.9678 97.0615 28.4943 96.9921 27.3375Z" fill="#BC6A4F"/>
<path d="M95.9496 27.3375C95.9967 28.6656 95.7975 29.2383 95.7975 29.2383C95.7975 29.2383 96.0992 28.7535 95.9496 27.3375Z" fill="#BC6A4F"/>
<path d="M95.0777 27.3369C95.0638 27.9992 94.9831 28.6382 94.8447 29.1836C94.9342 28.9479 95.002 28.6576 95.0425 28.3367C95.083 28.0157 95.0951 27.673 95.0777 27.3369Z" fill="#BC6A4F"/>
<path d="M93.4383 27.9572C93.4826 28.3539 93.5595 28.7179 93.6631 29.0215C93.5936 28.9168 93.536 28.7623 93.4964 28.5747C93.4568 28.3872 93.4367 28.1736 93.4383 27.9572Z" fill="#BC6A4F"/>
</g>
<path d="M103.223 27.05L103.225 20.1094L102.995 27.0583L103.223 27.05Z" fill="#2C2C6B"/>
<path d="M106.982 19.5652C107.221 19.5652 107.415 19.3714 107.415 19.1322C107.415 18.8931 107.221 18.6992 106.982 18.6992C106.743 18.6992 106.549 18.8931 106.549 19.1322C106.549 19.3714 106.743 19.5652 106.982 19.5652Z" fill="#C9C5BD"/>
<path d="M107.013 19.4555C107.222 19.4555 107.392 19.286 107.392 19.0769C107.392 18.8678 107.222 18.6982 107.013 18.6982C106.804 18.6982 106.635 18.8678 106.635 19.0769C106.635 19.286 106.804 19.4555 107.013 19.4555Z" fill="white"/>
<path d="M106.465 20.1912C106.704 20.1912 106.898 19.9973 106.898 19.7582C106.898 19.5191 106.704 19.3252 106.465 19.3252C106.226 19.3252 106.032 19.5191 106.032 19.7582C106.032 19.9973 106.226 20.1912 106.465 20.1912Z" fill="#C9C5BD"/>
<path d="M106.497 20.0824C106.706 20.0824 106.875 19.9129 106.875 19.7038C106.875 19.4947 106.706 19.3252 106.497 19.3252C106.288 19.3252 106.118 19.4947 106.118 19.7038C106.118 19.9129 106.288 20.0824 106.497 20.0824Z" fill="white"/>
<path d="M106.032 20.8846C106.271 20.8846 106.465 20.6907 106.465 20.4516C106.465 20.2124 106.271 20.0186 106.032 20.0186C105.793 20.0186 105.599 20.2124 105.599 20.4516C105.599 20.6907 105.793 20.8846 106.032 20.8846Z" fill="#C9C5BD"/>
<path d="M106.063 20.7729C106.272 20.7729 106.442 20.6033 106.442 20.3942C106.442 20.1851 106.272 20.0156 106.063 20.0156C105.854 20.0156 105.685 20.1851 105.685 20.3942C105.685 20.6033 105.854 20.7729 106.063 20.7729Z" fill="white"/>
<path d="M105.729 21.6258C105.968 21.6258 106.162 21.4319 106.162 21.1928C106.162 20.9536 105.968 20.7598 105.729 20.7598C105.49 20.7598 105.296 20.9536 105.296 21.1928C105.296 21.4319 105.49 21.6258 105.729 21.6258Z" fill="#DDD5C5"/>
<path d="M105.76 21.517C105.969 21.517 106.139 21.3475 106.139 21.1384C106.139 20.9293 105.969 20.7598 105.76 20.7598C105.551 20.7598 105.381 20.9293 105.381 21.1384C105.381 21.3475 105.551 21.517 105.76 21.517Z" fill="white"/>
<path d="M105.296 22.2859C105.535 22.2859 105.729 22.0921 105.729 21.8529C105.729 21.6138 105.535 21.4199 105.296 21.4199C105.057 21.4199 104.863 21.6138 104.863 21.8529C104.863 22.0921 105.057 22.2859 105.296 22.2859Z" fill="#C9C5BD"/>
<path d="M105.327 22.1762C105.536 22.1762 105.706 22.0067 105.706 21.7976C105.706 21.5885 105.536 21.4189 105.327 21.4189C105.118 21.4189 104.949 21.5885 104.949 21.7976C104.949 22.0067 105.118 22.1762 105.327 22.1762Z" fill="white"/>
<path d="M104.838 22.8865C105.077 22.8865 105.271 22.6927 105.271 22.4535C105.271 22.2144 105.077 22.0205 104.838 22.0205C104.599 22.0205 104.405 22.2144 104.405 22.4535C104.405 22.6927 104.599 22.8865 104.838 22.8865Z" fill="#C9C5BD"/>
<path d="M104.869 22.7777C105.078 22.7777 105.248 22.6082 105.248 22.3991C105.248 22.19 105.078 22.0205 104.869 22.0205C104.66 22.0205 104.491 22.19 104.491 22.3991C104.491 22.6082 104.66 22.7777 104.869 22.7777Z" fill="white"/>
<path d="M104.273 23.4266C104.512 23.4266 104.706 23.2327 104.706 22.9935C104.706 22.7544 104.512 22.5605 104.273 22.5605C104.034 22.5605 103.84 22.7544 103.84 22.9935C103.84 23.2327 104.034 23.4266 104.273 23.4266Z" fill="#C9C5BD"/>
<path d="M104.304 23.3178C104.513 23.3178 104.683 23.1483 104.683 22.9392C104.683 22.7301 104.513 22.5605 104.304 22.5605C104.095 22.5605 103.925 22.7301 103.925 22.9392C103.925 23.1483 104.095 23.3178 104.304 23.3178Z" fill="white"/>
<path d="M103.616 23.7215C103.855 23.7215 104.049 23.5276 104.049 23.2885C104.049 23.0493 103.855 22.8555 103.616 22.8555C103.377 22.8555 103.183 23.0493 103.183 23.2885C103.183 23.5276 103.377 23.7215 103.616 23.7215Z" fill="#C9C5BD"/>
<path d="M103.648 23.6107C103.857 23.6107 104.026 23.4412 104.026 23.2321C104.026 23.023 103.857 22.8535 103.648 22.8535C103.439 22.8535 103.269 23.023 103.269 23.2321C103.269 23.4412 103.439 23.6107 103.648 23.6107Z" fill="white"/>
<path d="M102.815 23.6648C103.054 23.6648 103.248 23.471 103.248 23.2318C103.248 22.9927 103.054 22.7988 102.815 22.7988C102.576 22.7988 102.382 22.9927 102.382 23.2318C102.382 23.471 102.576 23.6648 102.815 23.6648Z" fill="#C9C5BD"/>
<path d="M102.846 23.5561C103.055 23.5561 103.225 23.3865 103.225 23.1774C103.225 22.9683 103.055 22.7988 102.846 22.7988C102.637 22.7988 102.468 22.9683 102.468 23.1774C102.468 23.3865 102.637 23.5561 102.846 23.5561Z" fill="white"/>
<path d="M102.125 23.2332C102.364 23.2332 102.558 23.0393 102.558 22.8002C102.558 22.561 102.364 22.3672 102.125 22.3672C101.886 22.3672 101.692 22.561 101.692 22.8002C101.692 23.0393 101.886 23.2332 102.125 23.2332Z" fill="#C9C5BD"/>
<path d="M102.158 23.1244C102.368 23.1244 102.537 22.9549 102.537 22.7458C102.537 22.5367 102.368 22.3672 102.158 22.3672C101.949 22.3672 101.78 22.5367 101.78 22.7458C101.78 22.9549 101.949 23.1244 102.158 23.1244Z" fill="white"/>
<path d="M101.543 22.7195C101.782 22.7195 101.976 22.5257 101.976 22.2865C101.976 22.0474 101.782 21.8535 101.543 21.8535C101.304 21.8535 101.11 22.0474 101.11 22.2865C101.11 22.5257 101.304 22.7195 101.543 22.7195Z" fill="#C9C5BD"/>
<path d="M101.575 22.6088C101.784 22.6088 101.954 22.4393 101.954 22.2302C101.954 22.0211 101.784 21.8516 101.575 21.8516C101.366 21.8516 101.196 22.0211 101.196 22.2302C101.196 22.4393 101.366 22.6088 101.575 22.6088Z" fill="white"/>
<path d="M101.11 22.0955C101.349 22.0955 101.543 21.9016 101.543 21.6625C101.543 21.4234 101.349 21.2295 101.11 21.2295C100.871 21.2295 100.677 21.4234 100.677 21.6625C100.677 21.9016 100.871 22.0955 101.11 22.0955Z" fill="#C9C5BD"/>
<path d="M101.142 21.9867C101.351 21.9867 101.52 21.8172 101.52 21.6081C101.52 21.399 101.351 21.2295 101.142 21.2295C100.933 21.2295 100.763 21.399 100.763 21.6081C100.763 21.8172 100.933 21.9867 101.142 21.9867Z" fill="white"/>
<path d="M100.763 21.4588C101.002 21.4588 101.196 21.2649 101.196 21.0258C101.196 20.7866 101.002 20.5928 100.763 20.5928C100.524 20.5928 100.33 20.7866 100.33 21.0258C100.33 21.2649 100.524 21.4588 100.763 21.4588Z" fill="#C9C5BD"/>
<path d="M100.795 21.35C101.004 21.35 101.173 21.1805 101.173 20.9714C101.173 20.7623 101.004 20.5928 100.795 20.5928C100.586 20.5928 100.416 20.7623 100.416 20.9714C100.416 21.1805 100.586 21.35 100.795 21.35Z" fill="white"/>
<path d="M100.391 20.8992C100.63 20.8992 100.824 20.7053 100.824 20.4662C100.824 20.2271 100.63 20.0332 100.391 20.0332C100.152 20.0332 99.958 20.2271 99.958 20.4662C99.958 20.7053 100.152 20.8992 100.391 20.8992Z" fill="#C9C5BD"/>
<path d="M100.422 20.7904C100.631 20.7904 100.801 20.6209 100.801 20.4118C100.801 20.2027 100.631 20.0332 100.422 20.0332C100.213 20.0332 100.043 20.2027 100.043 20.4118C100.043 20.6209 100.213 20.7904 100.422 20.7904Z" fill="white"/>
<path d="M100.012 20.2723C100.251 20.2723 100.445 20.0784 100.445 19.8393C100.445 19.6001 100.251 19.4062 100.012 19.4062C99.7725 19.4062 99.5786 19.6001 99.5786 19.8393C99.5786 20.0784 99.7725 20.2723 100.012 20.2723Z" fill="#C9C5BD"/>
<path d="M100.044 20.1625C100.253 20.1625 100.422 19.993 100.422 19.7839C100.422 19.5748 100.253 19.4053 100.044 19.4053C99.8346 19.4053 99.665 19.5748 99.665 19.7839C99.665 19.993 99.8346 20.1625 100.044 20.1625Z" fill="white"/>
<path d="M99.5458 19.7039C99.7849 19.7039 99.9788 19.51 99.9788 19.2709C99.9788 19.0318 99.7849 18.8379 99.5458 18.8379C99.3067 18.8379 99.1128 19.0318 99.1128 19.2709C99.1128 19.51 99.3067 19.7039 99.5458 19.7039Z" fill="#C9C5BD"/>
<path d="M99.5788 19.5922C99.7879 19.5922 99.9574 19.4227 99.9574 19.2136C99.9574 19.0045 99.7879 18.835 99.5788 18.835C99.3697 18.835 99.2002 19.0045 99.2002 19.2136C99.2002 19.4227 99.3697 19.5922 99.5788 19.5922Z" fill="white"/>
<path d="M111.09 15.6892V15.7038H95.7612C95.7612 13.6267 96.9975 10.6124 99.0747 10.6082L107.063 8.72562C109.145 8.71098 111.09 13.6058 111.09 15.6892Z" fill="#ED8A29"/>
<path d="M98.4115 15.4223C97.9358 15.4223 97.4796 15.2335 97.1431 14.8973C96.8066 14.5612 96.6173 14.1052 96.6167 13.6296C96.6173 13.1539 96.8066 12.698 97.1431 12.3619C97.4796 12.0257 97.9358 11.8369 98.4115 11.8369C98.8869 11.8369 99.3429 12.0258 99.6791 12.362C100.015 12.6982 100.204 13.1541 100.204 13.6296C100.204 14.105 100.015 14.561 99.6791 14.8972C99.3429 15.2334 98.8869 15.4223 98.4115 15.4223Z" fill="#EFB19E"/>
<path d="M97.391 15.5906C97.6302 15.5906 97.824 15.3968 97.824 15.1576C97.824 14.9185 97.6302 14.7246 97.391 14.7246C97.1519 14.7246 96.958 14.9185 96.958 15.1576C96.958 15.3968 97.1519 15.5906 97.391 15.5906Z" fill="#C49318"/>
<path d="M97.4245 15.4818C97.6336 15.4818 97.8031 15.3123 97.8031 15.1032C97.8031 14.8941 97.6336 14.7246 97.4245 14.7246C97.2154 14.7246 97.0459 14.8941 97.0459 15.1032C97.0459 15.3123 97.2154 15.4818 97.4245 15.4818Z" fill="#EDB61B"/>
<path d="M103.265 18.7566C100.02 18.7566 97.3911 16.4557 97.3911 13.6317C97.3911 10.8078 100.02 8.50684 103.265 8.50684C106.509 8.50684 109.137 10.8078 109.137 13.6317C109.137 16.4557 106.507 18.7566 103.265 18.7566Z" fill="#EFB19E"/>
<path d="M103.509 16.0492C103.428 16.0617 103.347 16.0722 103.264 16.0805C102.942 16.1119 102.618 16.1119 102.296 16.0805C102.189 16.0805 102.087 16.0575 101.98 16.0429C100.83 15.8609 100.233 16.2981 100.897 16.6077C101.484 16.8441 102.11 16.9697 102.744 16.9779C103.378 16.9698 104.005 16.8443 104.593 16.6077C105.256 16.3085 104.66 15.8714 103.509 16.0492Z" fill="#E28E74"/>
<path d="M107.279 13.632C107.277 13.2942 107.354 12.9605 107.503 12.6573C107.634 12.3841 107.841 12.1546 108.099 11.9963C108.332 11.8606 108.607 11.8145 108.871 11.8666C109.151 11.9275 109.402 12.0799 109.585 12.2996C109.794 12.5471 109.938 12.8435 110.003 13.1614C110.074 13.4963 110.07 13.8429 109.99 14.1759C109.917 14.4873 109.765 14.7751 109.551 15.0126C109.362 15.2237 109.107 15.3645 108.827 15.4122C108.773 15.4205 108.719 15.4247 108.664 15.4247C108.573 15.4239 108.483 15.4127 108.394 15.3912C108.057 15.2916 107.769 15.0673 107.591 14.7637C107.384 14.4226 107.276 14.0309 107.279 13.632Z" fill="#EFB19E"/>
<path d="M109.59 14.299C109.683 14.0846 109.73 13.8529 109.726 13.6192C109.727 13.3849 109.678 13.1531 109.582 12.9393C109.497 12.7447 109.364 12.5748 109.195 12.4457C109.044 12.3298 108.859 12.2659 108.668 12.2637C108.668 12.2637 109.902 12.6695 109.59 14.299Z" fill="#BC6A4F"/>
<path d="M106.465 16.8009C106.665 16.6806 106.839 16.5195 106.973 16.3281C107.108 16.1404 107.203 15.9268 107.251 15.7006C107.296 15.4926 107.287 15.2768 107.226 15.0731C107.17 14.8915 107.057 14.7326 106.904 14.6191C106.904 14.6191 107.668 15.6588 106.465 16.8009Z" fill="#BC6A4F"/>
<path d="M99.5458 16.7211C99.3231 16.6495 99.1179 16.5319 98.9434 16.376C98.7671 16.2222 98.6246 16.0334 98.525 15.8217C98.4366 15.6315 98.3978 15.4221 98.4121 15.213C98.424 15.0226 98.4974 14.8413 98.6213 14.6963C98.6213 14.6963 98.113 15.8865 99.5458 16.7211Z" fill="#BC6A4F"/>
<path d="M101.173 16.2334C101.47 16.4635 102.062 16.6204 102.744 16.6204C103.426 16.6204 104.018 16.4635 104.317 16.2334C104.317 16.2334 102.738 16.8233 101.173 16.2334Z" fill="#BC6A4F"/>
<path d="M97.4077 25.6718C97.4077 25.6718 97.7612 27.2406 97.7529 27.2072C97.8739 27.1294 98.0029 27.0649 98.1377 27.0147C98.0977 26.5733 98.0279 26.1351 97.9286 25.7032C97.8066 25.6468 97.678 25.6061 97.5458 25.5818C97.5458 25.5818 98.0248 24.5359 97.9202 22.6533C97.8859 23.6779 97.7135 24.6933 97.4077 25.6718Z" fill="#373684"/>
<path d="M93.0942 27.3214C93.0942 27.3214 92.8474 26.3361 92.9331 25.6667C92.9331 25.6667 96.2173 25.3634 97.8468 25.7421C97.8468 25.7421 98.0831 26.8633 97.9974 27.3214H93.0942Z" fill="#FAF3ED"/>
<path d="M97.4076 25.6711C96.2153 25.4975 94.5188 25.5686 93.5942 25.6272V25.4536C93.5942 25.4536 96.5792 25.3678 97.4076 25.6711Z" fill="#373684"/>
<path d="M109.444 25.9288C109.444 25.9288 109.09 27.4955 109.099 27.4641C109.107 27.4328 108.714 27.2696 108.714 27.2696C108.755 26.8283 108.825 26.3902 108.923 25.958C109.046 25.9018 109.175 25.8611 109.308 25.8367C109.308 25.8367 108.827 24.7908 108.934 22.9082C108.966 23.9335 109.138 24.9496 109.444 25.9288Z" fill="#373684"/>
<path d="M113.758 27.5875C113.758 27.5875 114.006 26.6044 113.921 25.9329C113.921 25.9329 110.635 25.6317 109.005 26.0103C109.005 26.0103 108.769 27.1294 108.856 27.5875H113.758Z" fill="#FAF3ED"/>
<path d="M109.444 25.9283C110.636 25.7546 112.372 25.8258 113.286 25.8864L113.274 25.7191C113.274 25.7191 110.274 25.6354 109.444 25.9283Z" fill="#373684"/>
<path d="M104.21 13.7005C104.21 14.0644 104.505 14.3594 104.869 14.3594C105.233 14.3594 105.528 14.0644 105.528 13.7005C105.528 13.3365 105.233 13.0415 104.869 13.0415C104.505 13.0415 104.21 13.3365 104.21 13.7005Z" fill="#1D1D1B"/>
<path d="M99.5391 13.7005C99.5391 14.0644 99.8341 14.3594 100.198 14.3594C100.562 14.3594 100.857 14.0644 100.857 13.7005C100.857 13.3365 100.562 13.0415 100.198 13.0415C99.8341 13.0415 99.5391 13.3365 99.5391 13.7005Z" fill="#1D1D1B"/>
<path d="M108.766 11.8384C108.867 11.6125 108.917 11.3669 108.911 11.1195C108.906 10.8721 108.846 10.629 108.735 10.4076C108.627 10.1409 108.539 9.86686 108.469 9.58766C108.334 9.18916 108.121 8.82157 107.842 8.5062C107.191 7.63601 105.712 7.64856 105.348 7.80753L105.074 7.93305C104.968 7.98325 104.865 7.91841 104.784 7.84101C104.551 7.64438 104.503 7.56489 103.913 7.46866C103.388 7.3829 103.098 7.46867 102.939 7.61928C102.864 7.68905 102.769 7.73269 102.667 7.74363C102.566 7.75458 102.464 7.73222 102.376 7.67994L102.319 7.64647C101.751 7.31571 101.075 7.21966 100.437 7.37872C98.1903 7.92677 96.9268 10.8699 97.2301 11.5247C97.2975 11.6733 97.3955 11.806 97.5177 11.9142C97.6399 12.0223 97.7835 12.1034 97.9393 12.1522C98.3576 12.2798 98.594 9.89516 101.186 10.3261C101.186 10.3261 101.353 11.0498 102.363 11.4013C103.374 11.7527 104.474 10.37 104.474 10.37C104.474 10.37 104.386 11.259 105.763 11.8342C106.728 12.2103 107.8 12.2117 108.766 11.8384Z" fill="#ED8A29"/>
<path d="M102.332 11.4788C101.841 11.3323 101.424 11.0039 101.167 10.5605C100.909 10.0815 100.893 9.49163 101.121 8.80762L101.269 8.85782C101.06 9.49791 101.06 10.046 101.305 10.4873C101.544 10.889 101.924 11.1873 102.372 11.324L102.332 11.4788Z" fill="#1D1D1B"/>
<path d="M105.733 11.9143C105.243 11.7672 104.827 11.4397 104.57 10.998C104.31 10.5169 104.296 9.92704 104.524 9.24512L104.672 9.29324C104.463 9.93333 104.463 10.4814 104.708 10.9206C104.947 11.322 105.326 11.6202 105.773 11.7574L105.733 11.9143Z" fill="#1D1D1B"/>
<path d="M109.013 15.5906C109.252 15.5906 109.446 15.3968 109.446 15.1576C109.446 14.9185 109.252 14.7246 109.013 14.7246C108.773 14.7246 108.58 14.9185 108.58 15.1576C108.58 15.3968 108.773 15.5906 109.013 15.5906Z" fill="#C49318"/>
<path d="M109.047 15.4818C109.256 15.4818 109.425 15.3123 109.425 15.1032C109.425 14.8941 109.256 14.7246 109.047 14.7246C108.837 14.7246 108.668 14.8941 108.668 15.1032C108.668 15.3123 108.837 15.4818 109.047 15.4818Z" fill="#EDB61B"/>
<path opacity="0.6" d="M97.7502 15.4003C97.7502 15.4003 97.5828 14.9694 97.541 14.7476C97.541 14.7476 97.541 14.7246 97.4009 14.7246C97.4247 15.0022 97.5105 15.271 97.6519 15.5111C97.6912 15.4806 97.7245 15.443 97.7502 15.4003Z" fill="#C49318"/>
<path opacity="0.6" d="M107.486 17.6299C107.486 17.6299 104.925 21.4202 104.948 27.1727H105.478V26.5451L107.486 17.6299Z" fill="#373684"/>
<path opacity="0.6" d="M98.9829 17.5137C98.9829 17.5137 101.543 21.304 101.52 27.0564H100.991V26.4289L98.9829 17.5137Z" fill="#373684"/>
<path d="M108.662 15.8867L109.475 18.4952L107.729 20.815L107.593 23.777L105.641 26.718L105.66 25.965C105.754 22.3148 106.666 18.9491 108.653 15.8867H108.662Z" fill="#373684"/>
<path d="M108.68 15.5156L109.494 18.1262L107.745 20.6363L107.611 23.6004L105.478 26.5415L105.496 25.7863C105.591 22.1361 106.693 18.5831 108.68 15.5198V15.5156Z" fill="#FAF3ED"/>
<path d="M97.8635 15.8828L97.0498 18.4934L98.7985 20.8111L98.9324 23.7731L100.878 26.7141L100.857 25.9611C100.765 22.3109 99.8507 18.9473 97.8635 15.8828Z" fill="#373684"/>
<path d="M97.8391 15.5117L97.0254 18.1223L98.772 20.6324L98.908 23.5944L101.04 26.5355L101.021 25.7824C100.927 22.1317 99.8261 18.5779 97.8391 15.5138V15.5117Z" fill="#FAF3ED"/>
<path d="M98.7109 13.5396C98.8215 13.3254 98.9696 13.1327 99.1481 12.9707C99.3261 12.7988 99.5406 12.6694 99.7757 12.592C100.025 12.5185 100.293 12.544 100.525 12.6632C100.741 12.7825 100.917 12.963 101.031 13.1819C100.864 13.0259 100.67 12.9006 100.46 12.8117C100.258 12.7386 100.038 12.732 99.8321 12.7929C99.6204 12.8613 99.4211 12.9638 99.2422 13.0962C99.0566 13.2334 98.8792 13.3815 98.7109 13.5396Z" fill="#1D1D1B"/>
<path d="M106.547 13.5396C106.376 13.3813 106.196 13.2332 106.007 13.0962C105.828 12.9638 105.629 12.8613 105.417 12.7929C105.212 12.732 104.992 12.7386 104.79 12.8117C104.579 12.9006 104.386 13.0259 104.219 13.1819C104.333 12.963 104.509 12.7825 104.725 12.6632C104.956 12.544 105.224 12.5185 105.474 12.592C105.709 12.6694 105.923 12.7988 106.101 12.9707C106.283 13.132 106.434 13.3247 106.547 13.5396Z" fill="#1D1D1B"/>
</g>
<defs>
<clipPath id="clip0_431_22">
<rect width="6.06621" height="2.71934" fill="white" transform="translate(115.056 30.2646) rotate(-180)"/>
</clipPath>
<clipPath id="clip1_431_22">
<rect width="6.06621" height="2.71934" fill="white" transform="translate(97.6943 30.0566) rotate(-180)"/>
</clipPath>
</defs>
</svg>
