<svg width="65" height="36" viewBox="0 0 65 36" fill="none" xmlns="http://www.w3.org/2000/svg">
<rect width="64.8" height="36" fill="#ADB3D7"/>
<mask id="mask0_431_23" style="mask-type:alpha" maskUnits="userSpaceOnUse" x="35" y="5" width="25" height="25">
<circle cx="47.1322" cy="17.1322" r="11.6322" fill="#C4C4C4" stroke="black"/>
</mask>
<g mask="url(#mask0_431_23)">
<path d="M38.4369 26.7086C38.4369 26.7086 37.4391 17.007 43.4571 13.3506L51.9727 13.5598C51.9727 13.5598 55.6123 14.9299 56.0997 26.4806L47.6553 30.4361L38.4369 26.7086Z" fill="#5154A1"/>
<path d="M51.7926 13.3398C51.7926 13.3398 49.818 16.1512 47.2158 16.0173L47.7262 18.1844C47.7262 18.1844 51.8533 15.35 51.7926 13.3398Z" fill="#373684"/>
<path d="M51.7927 13.3398C51.7927 13.3398 49.6695 15.9817 47.0674 15.85L47.5757 18.017C47.5757 18.017 51.322 15.7621 51.7927 13.3398Z" fill="#FAF3ED"/>
<path d="M46.4127 15.9004L46.0131 18.1135C46.0131 18.1135 43.7373 15.2102 43.5972 13.3506C43.5951 13.3506 45.5488 15.7519 46.4127 15.9004Z" fill="#373684"/>
<path d="M46.306 15.8712L45.8333 18.0131C45.8333 18.0131 43.7415 15.206 43.5972 13.3506C44.2135 14.454 45.1611 15.3358 46.306 15.8712Z" fill="#FAF3ED"/>
<path d="M47.0131 17.0573C47.0131 17.0573 47.4315 22.5252 47.7013 23.774C47.9711 25.0227 46.7245 26.3134 46.6554 26.7443H45.0552C45.0552 26.7443 44.2875 25.1943 44.4591 24.025C44.6306 22.8557 46.5236 16.9883 46.5236 16.9883L47.0131 17.0573Z" fill="#C7361A"/>
<path d="M46.9272 17.0233C46.9272 17.0233 47.3455 22.4911 47.6154 23.7378C47.8852 24.9845 46.6385 26.2793 46.5695 26.7081H44.9693C44.9693 26.7081 44.2016 25.1581 44.3731 23.9888C44.5447 22.8195 46.4377 16.9521 46.4377 16.9521L46.9272 17.0233Z" fill="#E8461C"/>
<path d="M46.4295 16.8203L46.6596 16.5463C46.6727 16.5304 46.6891 16.5176 46.7077 16.5087C46.7269 16.5036 46.7471 16.5036 46.7663 16.5087C46.7866 16.5085 46.8065 16.5151 46.8227 16.5275C46.8408 16.5382 46.8559 16.5533 46.8667 16.5714L47.103 16.9438C47.1241 16.9766 47.1323 17.0161 47.1261 17.0546C47.1212 17.0933 47.1026 17.1289 47.0738 17.155L46.7432 17.4165C46.7272 17.4304 46.7077 17.4398 46.6868 17.4437C46.6676 17.4488 46.6474 17.4488 46.6282 17.4437C46.6086 17.4374 46.5907 17.4267 46.5759 17.4123C46.5605 17.3968 46.5484 17.3783 46.5404 17.3579L46.4044 16.994C46.3971 16.9665 46.3971 16.9377 46.4044 16.9103C46.4059 16.8788 46.4144 16.8481 46.4295 16.8203Z" fill="#C7361A"/>
<path d="M46.3855 16.8038L46.6072 16.5402C46.6201 16.5255 46.6357 16.5134 46.6532 16.5047C46.6711 16.4972 46.6904 16.4936 46.7097 16.4942C46.729 16.4963 46.7476 16.5028 46.7641 16.513C46.781 16.5237 46.7953 16.538 46.8059 16.5549L47.0339 16.9146C47.0433 16.9308 47.0496 16.9485 47.0527 16.9669C47.0569 16.9855 47.0569 17.0048 47.0527 17.0234C47.0503 17.0424 47.0447 17.0608 47.036 17.0778C47.0264 17.0929 47.0144 17.1064 47.0004 17.1176L46.6846 17.3707C46.6697 17.3835 46.6517 17.3922 46.6323 17.3958C46.613 17.3999 46.593 17.3999 46.5737 17.3958C46.5548 17.3894 46.5376 17.3786 46.5235 17.3644C46.5093 17.3491 46.4979 17.3314 46.4901 17.3121L46.3604 16.9628C46.3532 16.936 46.3532 16.9079 46.3604 16.8812C46.3616 16.8536 46.3703 16.8268 46.3855 16.8038Z" fill="#E8461C"/>
<path d="M41.7837 25.0602C41.7837 25.0602 42.0954 26.6186 42.0891 26.5851C42.0828 26.5517 42.4279 26.3927 42.4279 26.3927C42.3926 25.9557 42.3311 25.5213 42.2439 25.0916C42.137 25.0358 42.023 24.995 41.905 24.9703C41.905 24.9703 42.0933 20.6445 43.2082 20.3203C41.9322 20.6027 41.7837 25.0602 41.7837 25.0602Z" fill="#373684"/>
<path d="M37.9852 26.7082C37.8656 26.1696 37.8178 25.6174 37.8429 25.0662C37.8429 25.0662 40.7421 24.765 42.1792 25.1415C42.1792 25.1415 42.3883 26.2543 42.311 26.7082H37.9852Z" fill="#FAF3ED"/>
<g clip-path="url(#clip0_431_23)">
<path d="M42.3208 26.5455C42.3208 26.5455 42.2514 28.9333 41.3877 28.1757C41.3877 28.1757 40.9506 29.3685 40.4241 28.4463C40.4241 28.4463 39.9183 29.7992 39.4712 28.3922C39.4712 28.3922 38.8853 30.1532 38.2902 28.2298C38.2902 28.2298 36.4034 31.4429 36.2547 26.5455L42.3208 26.5455Z" fill="#CC8A7A"/>
<path d="M41.6185 26.5456C41.6187 27.1492 41.5359 27.731 41.3863 28.1758C41.3863 28.1758 41.688 27.7023 41.6185 26.5456Z" fill="#BC6A4F"/>
<path d="M40.576 26.5455C40.6232 27.8736 40.424 28.4463 40.424 28.4463C40.424 28.4463 40.7256 27.9615 40.576 26.5455Z" fill="#BC6A4F"/>
<path d="M39.7042 26.5449C39.6902 27.2072 39.6096 27.8462 39.4711 28.3916C39.5607 28.1559 39.6285 27.8657 39.669 27.5447C39.7095 27.2237 39.7216 26.8811 39.7042 26.5449Z" fill="#BC6A4F"/>
<path d="M38.0648 27.1652C38.1091 27.562 38.186 27.9259 38.2896 28.2295C38.2201 28.1248 38.1625 27.9703 38.1228 27.7827C38.0832 27.5952 38.0631 27.3817 38.0648 27.1652Z" fill="#BC6A4F"/>
</g>
<g clip-path="url(#clip1_431_23)">
<path d="M58.2188 26.5455C58.2188 26.5455 58.1493 28.9333 57.2857 28.1757C57.2857 28.1757 56.8485 29.3685 56.3221 28.4463C56.3221 28.4463 55.8163 29.7992 55.3692 28.3922C55.3692 28.3922 54.7832 30.1532 54.1882 28.2298C54.1882 28.2298 52.3014 31.4429 52.1526 26.5455L58.2188 26.5455Z" fill="#CC8A7A"/>
<path d="M57.5165 26.5456C57.5167 27.1492 57.4338 27.731 57.2842 28.1758C57.2842 28.1758 57.5859 27.7023 57.5165 26.5456Z" fill="#BC6A4F"/>
<path d="M56.474 26.5455C56.5211 27.8736 56.3219 28.4463 56.3219 28.4463C56.3219 28.4463 56.6236 27.9615 56.474 26.5455Z" fill="#BC6A4F"/>
<path d="M55.6021 26.5449C55.5882 27.2072 55.5075 27.8462 55.3691 28.3916C55.4586 28.1559 55.5264 27.8657 55.567 27.5447C55.6075 27.2237 55.6195 26.8811 55.6021 26.5449Z" fill="#BC6A4F"/>
<path d="M53.9627 27.1652C54.007 27.562 54.0839 27.9259 54.1875 28.2295C54.1181 28.1248 54.0604 27.9703 54.0208 27.7827C53.9812 27.5952 53.9611 27.3817 53.9627 27.1652Z" fill="#BC6A4F"/>
</g>
<path d="M41.7836 25.0602C40.7377 24.8886 39.2338 24.9577 38.418 25.0162V24.8447C38.418 24.8447 41.0599 24.7694 41.7836 25.0602Z" fill="#373684"/>
<path d="M52.5269 24.9998L52.2215 26.5247C52.2215 26.4913 51.8827 26.3323 51.8827 26.3323C51.9181 25.8946 51.9796 25.4595 52.0667 25.0291C52.1736 24.9733 52.2876 24.9325 52.4056 24.9078C52.4056 24.9078 52.1086 20.5841 50.9937 20.2578C52.278 20.5423 52.5269 24.9998 52.5269 24.9998Z" fill="#373684"/>
<path d="M56.3321 26.6479C56.4529 26.1087 56.5014 25.5558 56.4764 25.0038C56.4764 25.0038 53.5772 24.7047 52.1402 25.0791C52.1402 25.0791 51.931 26.194 52.0084 26.6479H56.3321Z" fill="#FAF3ED"/>
<path d="M52.5269 24.9992C53.5727 24.8256 55.0746 24.8967 55.8904 24.9553V24.7817C55.8904 24.7817 53.259 24.7084 52.5269 24.9992Z" fill="#373684"/>
<path d="M42.4615 11.5518C42.4599 11.2965 42.518 11.0444 42.6309 10.8155C42.7293 10.6076 42.8863 10.4331 43.0827 10.3135C43.26 10.2077 43.4701 10.1712 43.6726 10.211C43.8836 10.257 44.0729 10.3727 44.2102 10.5394C44.3688 10.726 44.4775 10.9499 44.526 11.1899C44.5825 11.4434 44.5825 11.7062 44.526 11.9597C44.4691 12.1933 44.3548 12.409 44.1934 12.5872C44.0492 12.7456 43.8564 12.8516 43.6454 12.8884C43.6043 12.8916 43.5631 12.8916 43.522 12.8884C43.4515 12.8889 43.3812 12.8805 43.3128 12.8633C43.0575 12.7895 42.8398 12.6212 42.7041 12.3927C42.5471 12.1402 42.4631 11.8491 42.4615 11.5518Z" fill="#CC8A7A"/>
<path d="M46.9395 16.0262L46.4124 15.9007C45.264 15.5074 43.0928 13.7817 43.0928 11.5519C43.0961 10.4778 43.5242 9.44857 44.2838 8.68904C45.0433 7.92951 46.0725 7.50136 47.1466 7.49805H48.2239C49.298 7.50136 50.3272 7.92951 51.0867 8.68904C51.8462 9.44857 52.2744 10.4778 52.2777 11.5519C52.6019 13.4847 50.4307 15.3171 48.4059 15.886C48.0301 15.9943 47.6421 16.054 47.2512 16.0638C47.1461 16.065 47.0413 16.0523 46.9395 16.0262Z" fill="#CC8A7A"/>
<path d="M44.5657 11.7886C44.4337 11.7886 44.307 11.7362 44.2137 11.6428C44.1203 11.5495 44.0679 11.4228 44.0679 11.2908C44.0679 11.1588 44.1203 11.0321 44.2137 10.9388C44.307 10.8454 44.4337 10.793 44.5657 10.793C44.6974 10.7935 44.8235 10.8462 44.9164 10.9395C45.0093 11.0328 45.0615 11.1591 45.0615 11.2908C45.0615 11.4225 45.0093 11.5488 44.9164 11.6421C44.8235 11.7354 44.6974 11.7881 44.5657 11.7886Z" fill="#1B1935"/>
<path d="M49.6149 11.7886C49.4832 11.7881 49.3571 11.7354 49.2642 11.6421C49.1713 11.5488 49.1191 11.4225 49.1191 11.2908C49.1191 11.1591 49.1713 11.0328 49.2642 10.9395C49.3571 10.8462 49.4832 10.7935 49.6149 10.793C49.7469 10.793 49.8736 10.8454 49.9669 10.9388C50.0603 11.0321 50.1127 11.1588 50.1127 11.2908C50.1127 11.4228 50.0603 11.5495 49.9669 11.6428C49.8736 11.7362 49.7469 11.7886 49.6149 11.7886Z" fill="#1B1935"/>
<path d="M44.8084 10.5767C44.7974 10.5747 44.786 10.5747 44.775 10.5767L43.8546 10.9469C43.8317 10.9562 43.8134 10.9742 43.8036 10.9969C43.7938 11.0196 43.7933 11.0452 43.8023 11.0683C43.812 11.0913 43.8304 11.1097 43.8534 11.1194C43.8764 11.1292 43.9024 11.1296 43.9257 11.1205L44.844 10.7524C44.8671 10.7427 44.8854 10.7243 44.8952 10.7013C44.9049 10.6783 44.9053 10.6523 44.8963 10.629C44.888 10.6129 44.8754 10.5995 44.8599 10.5902C44.8443 10.581 44.8265 10.5763 44.8084 10.5767Z" fill="black"/>
<path d="M49.2366 10.5244C49.2175 10.5244 49.1989 10.5303 49.1832 10.5411C49.1675 10.5519 49.1555 10.5673 49.1487 10.5851C49.1399 10.6084 49.1406 10.6342 49.1508 10.657C49.161 10.6797 49.1798 10.6975 49.2031 10.7064L50.1297 11.0557C50.1531 11.0646 50.1789 11.0638 50.2017 11.0536C50.2244 11.0434 50.2422 11.0246 50.2511 11.0013C50.2594 10.978 50.2583 10.9524 50.2482 10.9298C50.2381 10.9072 50.2196 10.8894 50.1967 10.88L49.27 10.5307L49.2366 10.5244Z" fill="black"/>
<path d="M47.7909 13.2101C47.2843 13.2896 46.7684 13.2896 46.2618 13.2101C45.1113 13.0302 44.5152 13.4653 45.1783 13.7749C45.7665 14.0115 46.3934 14.137 47.0274 14.1451C47.6607 14.1371 48.287 14.0116 48.8744 13.7749C49.5396 13.4653 48.9414 13.0302 47.7909 13.2101Z" fill="#E28E74"/>
<path d="M45.457 13.3906C45.7541 13.6207 46.346 13.7776 47.0279 13.7776C47.7098 13.7776 48.3018 13.6207 48.5988 13.3906C48.5988 13.3906 47.0133 13.9826 45.457 13.3906Z" fill="#BC6A4F"/>
<path d="M43.2266 8.25497L43.2454 8.2215C43.3603 8.00267 43.4549 7.7737 43.5278 7.5375C43.6843 7.13392 43.9197 6.76557 44.2201 6.45395C44.8728 5.66118 46.1027 5.82643 46.3872 6.0356C46.45 6.07953 46.5064 6.11928 46.5546 6.15693C46.5953 6.18599 46.6444 6.20072 46.6944 6.19883C46.7444 6.19694 46.7923 6.17853 46.8307 6.14647C47.067 5.9624 47.1026 5.88291 47.6255 5.84944C48.1485 5.81598 48.4016 6.0126 48.4832 6.2176C48.4921 6.24315 48.5068 6.26626 48.5262 6.28511C48.5456 6.30395 48.5692 6.318 48.595 6.32613C48.6208 6.33426 48.6481 6.33624 48.6748 6.33193C48.7016 6.32761 48.7269 6.31711 48.7488 6.30126C48.9948 6.13535 49.2764 6.02992 49.5709 5.99357C49.8653 5.95722 50.1642 5.99098 50.4431 6.09208C52.3132 6.81374 53.0223 9.95558 52.6813 10.581C52.6148 10.7147 52.5205 10.8325 52.4047 10.9267C52.2889 11.0209 52.1543 11.0891 52.0099 11.127C51.6522 11.2085 51.7442 8.96617 49.7319 8.96617C49.6789 8.96451 49.6265 8.97749 49.5803 9.00369C49.5342 9.02989 49.4962 9.06829 49.4705 9.11468C49.3594 9.31204 49.2095 9.4848 49.0297 9.62251C48.8499 9.76022 48.6441 9.86001 48.4246 9.91583C47.5377 10.1564 46.7972 8.66078 46.7972 8.66078C46.7972 8.66078 46.7574 9.55187 45.5421 9.98068C44.9876 10.1725 44.3868 10.185 43.8248 10.0162C43.1722 9.83007 42.8626 8.94526 43.2266 8.25497Z" fill="black"/>
<path d="M51.2256 11.5518C51.2241 11.2965 51.2821 11.0444 51.395 10.8155C51.4934 10.6076 51.6505 10.4331 51.8469 10.3135C52.0241 10.2077 52.2342 10.1712 52.4368 10.211C52.6479 10.2566 52.8374 10.3723 52.9743 10.5394C53.133 10.726 53.2416 10.9499 53.2902 11.1899C53.3477 11.4433 53.3477 11.7063 53.2902 11.9597C53.2341 12.1936 53.1197 12.4095 52.9576 12.5872C52.8134 12.7456 52.6206 12.8516 52.4096 12.8884C52.3692 12.8916 52.3286 12.8916 52.2882 12.8884C52.2177 12.8889 52.1474 12.8805 52.079 12.8633C51.8237 12.7895 51.6061 12.6212 51.4704 12.3927C51.3135 12.14 51.2288 11.8492 51.2256 11.5518Z" fill="#CC8A7A"/>
<path d="M52.9745 12.0581C53.0446 11.8957 53.0795 11.7203 53.077 11.5435C53.0778 11.3669 53.0407 11.1921 52.9682 11.031C52.9046 10.883 52.8037 10.754 52.6754 10.6566C52.5606 10.5686 52.4205 10.5202 52.2759 10.5186C52.2759 10.5186 53.2109 10.826 52.9745 12.0581Z" fill="#BC6A4F"/>
<path d="M49.6484 13.9273C49.683 13.8475 49.7001 13.7612 49.6986 13.6742C49.699 13.5862 49.6804 13.4992 49.6442 13.419C49.613 13.3461 49.5632 13.2826 49.4999 13.2349C49.4433 13.1919 49.3743 13.1684 49.3032 13.168C49.3032 13.168 49.7634 13.3186 49.6484 13.9273Z" fill="#BC6A4F"/>
<path d="M44.9214 13.167C44.842 13.1992 44.7705 13.2484 44.7123 13.3113C44.6511 13.3707 44.6027 13.4418 44.57 13.5205C44.5408 13.5949 44.5314 13.6756 44.5428 13.7548C44.5518 13.8249 44.5834 13.8903 44.6328 13.9409C44.6328 13.9409 44.4111 13.5059 44.9214 13.167Z" fill="#BC6A4F"/>
<path d="M45.5025 12.6252H48.0816C48.3385 12.6215 48.5942 12.6597 48.8388 12.7382C49.048 12.8114 49.1526 12.9097 49.1526 13.0122H44.4336C44.4336 12.9097 44.5465 12.8031 44.7474 12.7382C44.9913 12.6598 45.2463 12.6217 45.5025 12.6252Z" fill="#6E333C"/>
</g>
<defs>
<clipPath id="clip0_431_23">
<rect width="6.06612" height="2.71929" fill="white" transform="translate(42.3208 29.2646) rotate(-180)"/>
</clipPath>
<clipPath id="clip1_431_23">
<rect width="6.06612" height="2.71929" fill="white" transform="translate(58.2188 29.2646) rotate(-180)"/>
</clipPath>
</defs>
</svg>
