<svg width="142" height="48" viewBox="0 0 142 48" fill="none" xmlns="http://www.w3.org/2000/svg">
<rect width="142" height="48" fill="#ADB3D7"/>
<mask id="mask0_731_3" style="mask-type:alpha" maskUnits="userSpaceOnUse" x="102" y="6" width="33" height="33">
<circle cx="118.239" cy="22.6224" r="15.5208" fill="#C4C4C4" stroke="black"/>
</mask>
<g mask="url(#mask0_731_3)">
<path d="M106.756 35.2674C106.756 35.2674 105.438 22.4563 113.385 17.6279L124.63 17.9042C124.63 17.9042 129.437 19.7134 130.08 34.9664L118.929 40.1897L106.756 35.2674Z" fill="#5154A1"/>
<path d="M124.393 17.6123C124.393 17.6123 121.785 21.3247 118.349 21.1479L119.023 24.0096C119.023 24.0096 124.473 20.2668 124.393 17.6123Z" fill="#373684"/>
<path d="M124.393 17.6123C124.393 17.6123 121.59 21.101 118.153 20.927L118.825 23.7886C118.825 23.7886 123.772 20.8109 124.393 17.6123Z" fill="#FAF3ED"/>
<path d="M117.289 20.9951L116.761 23.9175C116.761 23.9175 113.756 20.0835 113.571 17.6279C113.568 17.6279 116.148 20.799 117.289 20.9951Z" fill="#373684"/>
<path d="M117.148 20.9564L116.524 23.7849C116.524 23.7849 113.761 20.078 113.571 17.6279C114.385 19.0851 115.636 20.2495 117.148 20.9564Z" fill="#FAF3ED"/>
<path d="M118.081 22.5218C118.081 22.5218 118.634 29.7422 118.99 31.3913C119.347 33.0403 117.7 34.7446 117.609 35.3136H115.496C115.496 35.3136 114.482 33.2668 114.709 31.7227C114.935 30.1787 117.435 22.4307 117.435 22.4307L118.081 22.5218Z" fill="#C7361A"/>
<path d="M117.968 22.4777C117.968 22.4777 118.521 29.6981 118.877 31.3444C119.233 32.9907 117.587 34.7005 117.496 35.2668H115.383C115.383 35.2668 114.369 33.22 114.595 31.6759C114.822 30.1318 117.322 22.3838 117.322 22.3838L117.968 22.4777Z" fill="#E8461C"/>
<path d="M117.31 22.2086L117.614 21.8467C117.632 21.8257 117.653 21.8088 117.678 21.797C117.703 21.7903 117.73 21.7903 117.755 21.797C117.782 21.7968 117.808 21.8055 117.83 21.8219C117.854 21.836 117.874 21.856 117.888 21.8799L118.2 22.3715C118.228 22.415 118.238 22.4671 118.23 22.5179C118.224 22.569 118.199 22.616 118.161 22.6505L117.725 22.9958C117.703 23.0142 117.678 23.0266 117.65 23.0317C117.625 23.0385 117.598 23.0385 117.573 23.0317C117.547 23.0234 117.523 23.0092 117.504 22.9903C117.483 22.9697 117.467 22.9453 117.457 22.9185L117.277 22.4378C117.268 22.4016 117.268 22.3636 117.277 22.3274C117.279 22.2858 117.291 22.2452 117.31 22.2086Z" fill="#C7361A"/>
<path d="M117.252 22.1872L117.545 21.8392C117.562 21.8197 117.583 21.8038 117.606 21.7922C117.629 21.7824 117.655 21.7776 117.68 21.7784C117.706 21.7812 117.73 21.7897 117.752 21.8033C117.774 21.8173 117.793 21.8362 117.807 21.8585L118.108 22.3336C118.121 22.355 118.129 22.3783 118.133 22.4027C118.139 22.4272 118.139 22.4527 118.133 22.4772C118.13 22.5023 118.123 22.5266 118.111 22.5491C118.099 22.569 118.083 22.5868 118.064 22.6016L117.647 22.9358C117.628 22.9527 117.604 22.9642 117.578 22.9689C117.553 22.9744 117.526 22.9744 117.501 22.9689C117.476 22.9605 117.453 22.9463 117.434 22.9275C117.416 22.9074 117.401 22.8839 117.39 22.8584L117.219 22.3971C117.21 22.3619 117.21 22.3247 117.219 22.2894C117.221 22.253 117.232 22.2177 117.252 22.1872Z" fill="#E8461C"/>
<path d="M111.176 33.0892C111.176 33.0892 111.587 35.1471 111.579 35.1029C111.571 35.0587 112.027 34.8488 112.027 34.8488C111.98 34.2717 111.899 33.698 111.783 33.1307C111.642 33.057 111.492 33.0031 111.336 32.9705C111.336 32.9705 111.585 27.2582 113.057 26.8301C111.372 27.203 111.176 33.0892 111.176 33.0892Z" fill="#373684"/>
<path d="M106.16 35.2662C106.002 34.5549 105.939 33.8258 105.972 33.0979C105.972 33.0979 109.8 32.7001 111.698 33.1973C111.698 33.1973 111.974 34.6668 111.872 35.2662H106.16Z" fill="#FAF3ED"/>
<g clip-path="url(#clip0_731_3)">
<path d="M111.885 35.0519C111.885 35.0519 111.794 38.2051 110.653 37.2046C110.653 37.2046 110.076 38.7797 109.381 37.5619C109.381 37.5619 108.713 39.3484 108.122 37.4905C108.122 37.4905 107.349 39.8159 106.563 37.2761C106.563 37.2761 104.071 41.519 103.875 35.0519L111.885 35.0519Z" fill="#CC8A7A"/>
<path d="M110.957 35.0514C110.958 35.8484 110.848 36.6167 110.651 37.2041C110.651 37.2041 111.049 36.5788 110.957 35.0514Z" fill="#BC6A4F"/>
<path d="M109.581 35.0515C109.643 36.8052 109.38 37.5615 109.38 37.5615C109.38 37.5615 109.779 36.9214 109.581 35.0515Z" fill="#BC6A4F"/>
<path d="M108.43 35.0517C108.412 35.9263 108.305 36.77 108.122 37.4902C108.241 37.179 108.33 36.7957 108.384 36.3719C108.437 35.948 108.453 35.4956 108.43 35.0517Z" fill="#BC6A4F"/>
<path d="M106.265 35.871C106.323 36.3949 106.425 36.8755 106.562 37.2764C106.47 37.1381 106.394 36.9341 106.341 36.6864C106.289 36.4388 106.263 36.1568 106.265 35.871Z" fill="#BC6A4F"/>
</g>
<g clip-path="url(#clip1_731_3)">
<path d="M132.878 35.0519C132.878 35.0519 132.787 38.2051 131.646 37.2046C131.646 37.2046 131.069 38.7797 130.374 37.5619C130.374 37.5619 129.706 39.3484 129.115 37.4905C129.115 37.4905 128.342 39.8159 127.556 37.2761C127.556 37.2761 125.064 41.519 124.868 35.0519L132.878 35.0519Z" fill="#CC8A7A"/>
<path d="M131.951 35.0514C131.951 35.8484 131.841 36.6167 131.644 37.2041C131.644 37.2041 132.042 36.5788 131.951 35.0514Z" fill="#BC6A4F"/>
<path d="M130.574 35.0515C130.637 36.8052 130.374 37.5615 130.374 37.5615C130.374 37.5615 130.772 36.9214 130.574 35.0515Z" fill="#BC6A4F"/>
<path d="M129.423 35.0517C129.405 35.9263 129.298 36.77 129.116 37.4902C129.234 37.179 129.323 36.7957 129.377 36.3719C129.43 35.948 129.446 35.4956 129.423 35.0517Z" fill="#BC6A4F"/>
<path d="M127.258 35.871C127.316 36.3949 127.418 36.8755 127.555 37.2764C127.463 37.1381 127.387 36.9341 127.335 36.6864C127.282 36.4388 127.256 36.1568 127.258 35.871Z" fill="#BC6A4F"/>
</g>
<path d="M111.176 33.09C109.795 32.8635 107.809 32.9547 106.731 33.032V32.8055C106.731 32.8055 110.22 32.7061 111.176 33.09Z" fill="#373684"/>
<path d="M125.362 33.01L124.959 35.0236C124.959 34.9794 124.511 34.7695 124.511 34.7695C124.558 34.1916 124.639 33.6169 124.754 33.0487C124.896 32.9749 125.046 32.921 125.202 32.8884C125.202 32.8884 124.81 27.179 123.337 26.748C125.033 27.1237 125.362 33.01 125.362 33.01Z" fill="#373684"/>
<path d="M130.387 35.1858C130.547 34.4737 130.611 33.7436 130.578 33.0147C130.578 33.0147 126.75 32.6197 124.852 33.1141C124.852 33.1141 124.576 34.5864 124.678 35.1858H130.387Z" fill="#FAF3ED"/>
<path d="M125.362 33.0081C126.743 32.7788 128.727 32.8727 129.804 32.9501V32.7208C129.804 32.7208 126.329 32.6241 125.362 33.0081Z" fill="#373684"/>
<path d="M112.071 15.2522C112.069 14.9151 112.145 14.5822 112.295 14.2799C112.424 14.0054 112.632 13.775 112.891 13.617C113.125 13.4773 113.403 13.4291 113.67 13.4816C113.949 13.5424 114.199 13.6952 114.38 13.9153C114.59 14.1618 114.733 14.4573 114.797 14.7743C114.872 15.1091 114.872 15.4561 114.797 15.7908C114.722 16.0993 114.571 16.3841 114.358 16.6195C114.167 16.8286 113.913 16.9686 113.634 17.0173C113.58 17.0215 113.526 17.0215 113.471 17.0173C113.378 17.0179 113.285 17.0068 113.195 16.9841C112.858 16.8866 112.57 16.6644 112.391 16.3626C112.184 16.0292 112.073 15.6449 112.071 15.2522Z" fill="#CC8A7A"/>
<path d="M117.984 21.1609L117.288 20.9952C115.771 20.4759 112.904 18.1971 112.904 15.2526C112.909 13.8342 113.474 12.4751 114.477 11.4721C115.48 10.4692 116.839 9.90379 118.257 9.89941H119.68C121.098 9.90379 122.457 10.4692 123.46 11.4721C124.463 12.4751 125.029 13.8342 125.033 15.2526C125.461 17.8049 122.594 20.2246 119.92 20.9759C119.424 21.1189 118.912 21.1978 118.396 21.2107C118.257 21.2122 118.118 21.1955 117.984 21.1609Z" fill="#CC8A7A"/>
<path d="M114.85 15.5648C114.675 15.5648 114.508 15.4955 114.385 15.3723C114.262 15.249 114.192 15.0818 114.192 14.9074C114.192 14.7331 114.262 14.5658 114.385 14.4425C114.508 14.3193 114.675 14.25 114.85 14.25C115.024 14.2507 115.19 14.3203 115.313 14.4435C115.436 14.5667 115.504 14.7335 115.504 14.9074C115.504 15.0813 115.436 15.2481 115.313 15.3713C115.19 15.4945 115.024 15.5641 114.85 15.5648Z" fill="#1B1935"/>
<path d="M121.517 15.5648C121.344 15.5641 121.177 15.4945 121.054 15.3713C120.932 15.2481 120.863 15.0813 120.863 14.9074C120.863 14.7335 120.932 14.5667 121.054 14.4435C121.177 14.3203 121.344 14.2507 121.517 14.25C121.692 14.25 121.859 14.3193 121.982 14.4425C122.106 14.5658 122.175 14.7331 122.175 14.9074C122.175 15.0818 122.106 15.249 121.982 15.3723C121.859 15.4955 121.692 15.5648 121.517 15.5648Z" fill="#1B1935"/>
<path d="M115.17 13.9649C115.155 13.9622 115.141 13.9622 115.126 13.9649L113.911 14.4538C113.88 14.4661 113.856 14.4898 113.843 14.5197C113.83 14.5497 113.83 14.5836 113.841 14.614C113.854 14.6444 113.879 14.6687 113.909 14.6816C113.939 14.6944 113.974 14.695 114.004 14.683L115.217 14.1969C115.247 14.1841 115.272 14.1598 115.285 14.1294C115.298 14.099 115.298 14.0647 115.286 14.0339C115.275 14.0127 115.259 13.9949 115.238 13.9827C115.217 13.9705 115.194 13.9643 115.17 13.9649Z" fill="black"/>
<path d="M121.018 13.8945C120.992 13.8946 120.968 13.9022 120.947 13.9165C120.926 13.9309 120.911 13.9511 120.902 13.9746C120.89 14.0054 120.891 14.0396 120.904 14.0696C120.918 14.0996 120.943 14.1231 120.973 14.1348L122.197 14.5961C122.228 14.6078 122.262 14.6068 122.292 14.5933C122.322 14.5799 122.346 14.5551 122.357 14.5243C122.368 14.4935 122.367 14.4597 122.354 14.4298C122.34 14.4 122.316 14.3764 122.286 14.3641L121.062 13.9028L121.018 13.8945Z" fill="black"/>
<path d="M119.108 17.4414C118.439 17.5464 117.758 17.5464 117.089 17.4414C115.57 17.2039 114.782 17.7784 115.658 18.1872C116.435 18.4996 117.263 18.6654 118.1 18.6761C118.936 18.6655 119.763 18.4997 120.539 18.1872C121.417 17.7784 120.627 17.2039 119.108 17.4414Z" fill="#E28E74"/>
<path d="M116.026 17.6797C116.419 17.9835 117.2 18.1907 118.101 18.1907C119.001 18.1907 119.783 17.9835 120.175 17.6797C120.175 17.6797 118.081 18.4614 116.026 17.6797Z" fill="#BC6A4F"/>
<path d="M113.081 10.8983L113.106 10.8541C113.258 10.5651 113.383 10.2628 113.479 9.95085C113.686 9.41792 113.997 8.93149 114.393 8.52C115.255 7.47313 116.879 7.69134 117.255 7.96756C117.338 8.02557 117.413 8.07805 117.476 8.12777C117.53 8.16615 117.595 8.18561 117.661 8.18311C117.727 8.18061 117.79 8.1563 117.841 8.11397C118.153 7.87089 118.2 7.76593 118.89 7.72174C119.581 7.67754 119.915 7.93719 120.023 8.20789C120.035 8.24163 120.054 8.27216 120.08 8.29704C120.105 8.32193 120.136 8.34048 120.17 8.35121C120.205 8.36194 120.241 8.36457 120.276 8.35886C120.311 8.35316 120.345 8.33929 120.374 8.31837C120.698 8.09928 121.07 7.96006 121.459 7.91206C121.848 7.86406 122.243 7.90863 122.611 8.04215C125.08 8.99511 126.017 13.144 125.567 13.9699C125.479 14.1463 125.354 14.302 125.201 14.4263C125.048 14.5507 124.871 14.6409 124.68 14.6908C124.208 14.7985 124.329 11.8374 121.672 11.8374C121.602 11.8352 121.533 11.8524 121.472 11.887C121.411 11.9216 121.361 11.9723 121.327 12.0335C121.18 12.2942 120.982 12.5223 120.744 12.7041C120.507 12.886 120.235 13.0178 119.945 13.0915C118.774 13.4091 117.796 11.4342 117.796 11.4342C117.796 11.4342 117.744 12.6109 116.139 13.1771C115.407 13.4305 114.613 13.4469 113.871 13.2241C113.01 12.9782 112.601 11.8098 113.081 10.8983Z" fill="black"/>
<path d="M123.644 15.2522C123.642 14.9151 123.719 14.5822 123.868 14.2799C123.998 14.0054 124.205 13.775 124.464 13.617C124.699 13.4773 124.976 13.4291 125.243 13.4816C125.522 13.5418 125.772 13.6947 125.953 13.9153C126.163 14.1618 126.306 14.4573 126.37 14.7743C126.446 15.1089 126.446 15.4563 126.37 15.7908C126.296 16.0997 126.145 16.3848 125.931 16.6195C125.741 16.8286 125.486 16.9686 125.208 17.0173C125.154 17.0214 125.101 17.0214 125.047 17.0173C124.954 17.0179 124.861 17.0068 124.771 16.9841C124.434 16.8866 124.147 16.6644 123.967 16.3626C123.76 16.029 123.648 15.6449 123.644 15.2522Z" fill="#CC8A7A"/>
<path d="M125.954 15.9217C126.046 15.7072 126.092 15.4757 126.089 15.2421C126.09 15.0089 126.041 14.7781 125.946 14.5654C125.861 14.37 125.728 14.1996 125.559 14.071C125.407 13.9548 125.222 13.8909 125.031 13.8887C125.031 13.8887 126.266 14.2947 125.954 15.9217Z" fill="#BC6A4F"/>
<path d="M121.561 18.3884C121.607 18.283 121.63 18.1691 121.628 18.0542C121.628 17.938 121.604 17.8231 121.556 17.7172C121.515 17.6209 121.449 17.5371 121.365 17.4741C121.29 17.4174 121.199 17.3863 121.105 17.3857C121.105 17.3857 121.713 17.5846 121.561 18.3884Z" fill="#BC6A4F"/>
<path d="M115.32 17.3848C115.215 17.4272 115.12 17.4923 115.043 17.5754C114.963 17.6537 114.899 17.7477 114.856 17.8516C114.817 17.9498 114.805 18.0565 114.82 18.1609C114.832 18.2536 114.873 18.3399 114.939 18.4068C114.939 18.4068 114.646 17.8322 115.32 17.3848Z" fill="#BC6A4F"/>
<path d="M116.087 16.6693H119.493C119.832 16.6644 120.17 16.7148 120.492 16.8184C120.769 16.9151 120.907 17.0449 120.907 17.1803H114.675C114.675 17.0449 114.824 16.9041 115.09 16.8184C115.412 16.715 115.749 16.6646 116.087 16.6693Z" fill="#6E333C"/>
</g>
<defs>
<clipPath id="clip0_731_3">
<rect width="8.01042" height="3.59088" fill="white" transform="translate(111.885 38.6426) rotate(-180)"/>
</clipPath>
<clipPath id="clip1_731_3">
<rect width="8.01042" height="3.59088" fill="white" transform="translate(132.878 38.6426) rotate(-180)"/>
</clipPath>
</defs>
</svg>
