<?xml version="1.0" encoding="iso-8859-1"?>
<!-- Generator: Adobe Illustrator 25.4.0, SVG Export Plug-In . SVG Version: 6.00 Build 0)  -->
<svg version="1.1" id="Calque_1" xmlns="http://www.w3.org/2000/svg" xmlns:xlink="http://www.w3.org/1999/xlink" x="0px" y="0px"
	 width="211.958px" height="292.165px" viewBox="0 0 211.958 292.165" enable-background="new 0 0 211.958 292.165"
	 xml:space="preserve">
<g>
	<path stroke="#000000" stroke-width="2" stroke-miterlimit="10" d="M183.996,1.097L1.075,18.865l21.842,272.226l187.935-14.479
		C210.852,276.613,186.185,49.561,183.996,1.097z"/>
	<path fill="#FFFFFF" stroke="#000000" stroke-width="2" stroke-miterlimit="10" d="M189.202,9.008L5.637,17.905l8.645,272.964
		c0,0,136.479-0.165,168.021-4.151c17.666-4.228,20.887-15.579,20.887-15.579S189.044,57.521,189.202,9.008z"/>
	<path fill="#FFFFFF" stroke="#000000" stroke-width="2" stroke-miterlimit="10" d="M182.306,286.715
		c17.663-4.225,20.881-15.578,20.881-15.578c-7.103,5.001-18.016,1.275-18.016,1.275S186.412,280.527,182.306,286.715z"/>
</g>
<g>
	
		<rect x="3.191" y="18.3" fill="#FFFFFF" stroke="#000000" stroke-width="2" stroke-miterlimit="10" width="99.088" height="117.895"/>
	
		<rect x="10.215" y="25.237" fill="#FFFFFF" stroke="#000000" stroke-width="2" stroke-miterlimit="10" width="85.039" height="83.29"/>
</g>
<g>
	
		<circle fill="#FFEE1A" stroke="#1D1D1B" stroke-width="2" stroke-linecap="round" stroke-linejoin="round" stroke-miterlimit="10" cx="52.133" cy="66.479" r="31.717"/>
	
		<path fill="#FFFFFF" stroke="#1D1D1B" stroke-width="2" stroke-linecap="round" stroke-linejoin="round" stroke-miterlimit="10" d="
		M43.996,68.314l-4.225,0.208c-0.588,0.029-1.185-0.042-1.725-0.276c-1.241-0.538-2.154-1.639-2.22-2.983l0,0
		c-0.06-1.221,0.596-2.312,1.594-2.971c0.579-0.382,1.269-0.559,1.962-0.593l4.399-0.217c0.693-0.034,1.397,0.074,2.011,0.398
		c1.058,0.557,1.818,1.578,1.878,2.8v0c0.048,0.976-0.361,1.869-1.03,2.536C45.942,67.91,44.977,68.266,43.996,68.314z"/>
	<circle fill="#1D1D1B" cx="44.442" cy="64.867" r="3.391"/>
	
		<path fill="#FFFFFF" stroke="#1D1D1B" stroke-width="2" stroke-linecap="round" stroke-linejoin="round" stroke-miterlimit="10" d="
		M65.961,67.232l-4.225,0.208c-0.588,0.029-1.185-0.042-1.725-0.276c-1.241-0.538-2.154-1.639-2.22-2.983v0
		c-0.06-1.221,0.596-2.312,1.594-2.971c0.579-0.382,1.269-0.559,1.962-0.593l4.399-0.217c0.693-0.034,1.397,0.074,2.011,0.398
		c1.058,0.557,1.818,1.578,1.878,2.8v0c0.048,0.976-0.361,1.869-1.03,2.536C67.907,66.828,66.943,67.184,65.961,67.232z"/>
	<circle fill="#1D1D1B" cx="66.407" cy="63.784" r="3.391"/>
</g>
<path fill="#FFFFFF" stroke="#000000" stroke-width="2" stroke-miterlimit="10" d="M25.801,52.726l-6.242-6.158
	c-0.864-0.71-1.41-1.749-1.502-2.867L15.98,18.504c-0.178-2.16,1.435-4.062,3.594-4.24L31.266,13.3
	c2.16-0.178,4.062,1.434,4.24,3.594l2.077,25.197c0.092,1.117-0.277,2.232-1.013,3.075l-5.04,6.962l-0.109,0.134
	c-0.728,0.793-1.709,1.241-2.721,1.325C27.691,53.671,26.65,53.389,25.801,52.726z M34.186,43.344l0.109-0.133
	c0.217-0.236,0.326-0.555,0.299-0.873l-2.077-25.197c-0.042-0.511-0.493-0.893-1.004-0.851l-11.692,0.964
	c-0.511,0.042-0.893,0.493-0.851,1.004l2.077,25.197c0.026,0.319,0.186,0.615,0.437,0.812l6.222,6.139
	c0.45,0.31,1.066,0.258,1.457-0.12L34.186,43.344z"/>
</svg>
