<svg width="241" height="331" viewBox="0 0 241 331" fill="none" xmlns="http://www.w3.org/2000/svg">
<path d="M208.793 2.05444L2 22.1436L26.7016 329.902L239.158 313.532C239.158 313.532 211.269 56.8389 208.793 2.05444Z" fill="black" stroke="black" stroke-width="2" stroke-miterlimit="10"/>
<path d="M214.683 10.9851L7.21179 21.0579L16.9907 329.687C16.9907 329.687 171.283 329.506 206.916 324.995C226.892 320.225 230.533 307.382 230.533 307.382C230.533 307.382 214.502 65.8487 214.683 10.9851Z" fill="white" stroke="black" stroke-width="2" stroke-miterlimit="10"/>
<path d="M206.882 324.95C226.858 320.168 230.499 307.337 230.499 307.337C222.461 312.99 210.15 308.784 210.15 308.784C210.15 308.784 211.529 317.953 206.882 324.95Z" fill="white" stroke="black" stroke-width="2" stroke-miterlimit="10"/>
<path d="M104.44 7.99791L14.1299 17.9683L26.2079 127.37L116.518 117.4L104.44 7.99791Z" fill="white" stroke="black" stroke-width="2" stroke-miterlimit="10"/>
<path d="M113.632 91.3468L23.3213 101.317L26.1981 127.375L116.508 117.405L113.632 91.3468Z" fill="white" stroke="black" stroke-width="2" stroke-miterlimit="10"/>
<path d="M97.8928 16.6479L22.4038 24.9819L30.0767 94.4817L105.566 86.1477L97.8928 16.6479Z" fill="white" stroke="black" stroke-width="2" stroke-miterlimit="10"/>
<path d="M63.8051 77.1651C76.8792 77.1651 87.4779 66.5664 87.4779 53.4922C87.4779 40.418 76.8792 29.8193 63.8051 29.8193C50.7309 29.8193 40.1322 40.418 40.1322 53.4922C40.1322 66.5664 50.7309 77.1651 63.8051 77.1651Z" fill="#FFEE1A" stroke="#1D1D1B" stroke-linecap="round" stroke-linejoin="round"/>
<path d="M57.9151 55.5272L54.7949 56.0246C54.3626 56.102 53.9187 56.0826 53.4948 55.968C53.0212 55.8394 52.5933 55.5805 52.2595 55.2208C51.9258 54.8611 51.6997 54.4149 51.6068 53.9331C51.5452 53.4951 51.5994 53.0485 51.7641 52.6379C51.9287 52.2274 52.198 51.8671 52.5452 51.5929C52.9502 51.271 53.4344 51.0641 53.947 50.9938L57.1916 50.4737C57.7033 50.3827 58.2301 50.4295 58.7177 50.6094C59.1326 50.7609 59.5008 51.0177 59.7863 51.3547C60.0717 51.6916 60.2645 52.0972 60.3457 52.5313C60.3935 52.8804 60.368 53.2358 60.2706 53.5745C60.1733 53.9132 60.0063 54.2279 59.7804 54.4983C59.307 55.0599 58.6426 55.4264 57.9151 55.5272Z" fill="white" stroke="#1D1D1B" stroke-linecap="round" stroke-linejoin="round"/>
<path d="M57.9602 55.4595C59.3588 55.4595 60.4925 54.3257 60.4925 52.9271C60.4925 51.5285 59.3588 50.3948 57.9602 50.3948C56.5616 50.3948 55.4279 51.5285 55.4279 52.9271C55.4279 54.3257 56.5616 55.4595 57.9602 55.4595Z" fill="#1D1D1B"/>
<path d="M74.1266 52.927L71.0064 53.4244C70.5737 53.5041 70.1284 53.4809 69.7063 53.3566C69.2316 53.2319 68.8016 52.9759 68.4656 52.618C68.1297 52.2601 67.9015 51.8147 67.8071 51.333C67.7477 50.8951 67.803 50.4492 67.9675 50.0391C68.1319 49.6289 68.3999 49.2684 68.7454 48.9928C69.1536 48.6691 69.642 48.462 70.1585 48.3937L73.4031 47.8736C73.9141 47.7842 74.4395 47.827 74.9293 47.998C75.342 48.151 75.7079 48.4086 75.9913 48.7455C76.2747 49.0823 76.4658 49.487 76.5459 49.9198C76.5974 50.2683 76.5747 50.6236 76.4792 50.9626C76.3838 51.3016 76.2177 51.6166 75.9919 51.8869C75.5184 52.4502 74.8547 52.8202 74.1266 52.927Z" fill="white" stroke="#1D1D1B" stroke-linecap="round" stroke-linejoin="round"/>
<path d="M74.1719 52.8591C75.5704 52.8591 76.7042 51.7253 76.7042 50.3268C76.7042 48.9282 75.5704 47.7944 74.1719 47.7944C72.7733 47.7944 71.6395 48.9282 71.6395 50.3268C71.6395 51.7253 72.7733 52.8591 74.1719 52.8591Z" fill="#1D1D1B"/>
<path d="M29.9575 49.2867L22.9031 42.3228C22.4165 41.9241 22.0154 41.4312 21.724 40.8737C21.4326 40.3161 21.2569 39.7054 21.2074 39.0782L18.8559 10.5894C18.7589 9.41568 19.132 8.25148 19.893 7.35266C20.654 6.45383 21.7408 5.89389 22.9144 5.796L36.1301 4.66549C37.3038 4.56851 38.468 4.94154 39.3669 5.70257C40.2657 6.4636 40.8256 7.55039 40.9235 8.72405L43.2749 37.2129C43.3286 37.8376 43.2562 38.4667 43.062 39.0629C42.8678 39.6591 42.5557 40.2103 42.1444 40.6836L36.4919 48.5971L36.3675 48.7441C35.5673 49.6121 34.4707 50.1483 33.2942 50.2467C32.1178 50.3451 30.9473 49.9985 30.014 49.2754L29.9575 49.2867ZM39.4312 38.6712L39.5555 38.5243C39.6785 38.3937 39.7723 38.2385 39.8308 38.0689C39.8893 37.8994 39.9111 37.7193 39.8947 37.5407L37.5545 9.05187C37.5286 8.7759 37.3959 8.52096 37.1847 8.34144C36.9735 8.16192 36.7006 8.07206 36.424 8.09097L23.2084 9.22147C22.9324 9.24737 22.6775 9.38005 22.498 9.59125C22.3184 9.80245 22.2285 10.0754 22.2474 10.352L24.5989 38.8295C24.6113 39.0093 24.6609 39.1845 24.7446 39.3441C24.8282 39.5037 24.9442 39.6441 25.085 39.7565L32.1168 46.6866C32.3655 46.8573 32.6655 46.9369 32.9662 46.9122C33.2669 46.8875 33.5498 46.7599 33.7673 46.5509L39.4312 38.6712Z" fill="white" stroke="black" stroke-width="2" stroke-miterlimit="10"/>
</svg>
