<?xml version="1.0" encoding="iso-8859-1"?>
<!-- Generator: Adobe Illustrator 25.4.0, SVG Export Plug-In . SVG Version: 6.00 Build 0)  -->
<svg version="1.1" id="Calque_1" xmlns="http://www.w3.org/2000/svg" xmlns:xlink="http://www.w3.org/1999/xlink" x="0px" y="0px"
	 width="211.958px" height="292.165px" viewBox="0 0 211.958 292.165" enable-background="new 0 0 211.958 292.165"
	 xml:space="preserve">
<g>
	<path stroke="#000000" stroke-width="2" stroke-miterlimit="10" d="M183.996,1.097L1.075,18.865l21.842,272.226l187.935-14.479
		C210.852,276.613,186.185,49.561,183.996,1.097z"/>
	<path fill="#FFFFFF" stroke="#000000" stroke-width="2" stroke-miterlimit="10" d="M189.202,9.008L5.637,17.905l8.645,272.964
		c0,0,136.479-0.165,168.021-4.151c17.666-4.228,20.887-15.579,20.887-15.579S189.044,57.521,189.202,9.008z"/>
	<path fill="#FFFFFF" stroke="#000000" stroke-width="2" stroke-miterlimit="10" d="M182.306,286.715
		c17.663-4.225,20.881-15.578,20.881-15.578c-7.103,5.001-18.016,1.275-18.016,1.275S186.412,280.527,182.306,286.715z"/>
	<g>
		
			<rect x="3.191" y="18.3" fill="#FFFFFF" stroke="#000000" stroke-width="2" stroke-miterlimit="10" width="99.088" height="117.895"/>
		
			<rect x="10.215" y="25.237" fill="#FFFFFF" stroke="#000000" stroke-width="2" stroke-miterlimit="10" width="85.039" height="83.29"/>
	</g>
	<g>
		<g>
			<path fill="#FF6700" stroke="#000000" stroke-width="2" stroke-miterlimit="10" d="M53.603,97.317L26.615,66.273
				c-1.464-1.35-1.557-3.64-0.206-5.104L50.805,28.05c1.35-1.464,3.64-1.557,5.104-0.206l26.987,31.044
				c1.464,1.35,1.557,3.64,0.206,5.104L58.707,97.111C57.357,98.575,55.067,98.668,53.603,97.317z"/>
		</g>
		<g>
			<g>
				
					<path fill="#FFFFFF" stroke="#1D1D1B" stroke-width="2" stroke-linecap="round" stroke-linejoin="round" stroke-miterlimit="10" d="
					M52.898,66.642c1.193-0.048,1.953-1.333,1.382-2.381c-0.927-1.703-2.765-2.827-4.835-2.743c-2.069,0.084-3.81,1.351-4.598,3.124
					c-0.484,1.091,0.377,2.31,1.57,2.262L52.898,66.642z"/>
				<circle fill="#1D1D1B" cx="52.059" cy="64.657" r="2.283"/>
			</g>
			<g>
				
					<path fill="#FFFFFF" stroke="#1D1D1B" stroke-width="2" stroke-linecap="round" stroke-linejoin="round" stroke-miterlimit="10" d="
					M69.371,65.977c1.193-0.048,1.953-1.333,1.382-2.381c-0.927-1.703-2.765-2.827-4.835-2.743c-2.069,0.084-3.81,1.351-4.598,3.124
					c-0.484,1.091,0.377,2.31,1.57,2.262L69.371,65.977z"/>
				<circle fill="#1D1D1B" cx="68.532" cy="63.991" r="2.283"/>
			</g>
		</g>
	</g>
	<path fill="#FFFFFF" stroke="#000000" stroke-width="2" stroke-miterlimit="10" d="M60.203,48.448l-6.242-6.158
		c-0.864-0.71-1.41-1.749-1.502-2.867l-2.077-25.197c-0.178-2.16,1.435-4.062,3.594-4.24l11.692-0.964
		c2.16-0.178,4.062,1.434,4.24,3.594l2.077,25.197c0.092,1.117-0.277,2.232-1.013,3.075l-5.04,6.962l-0.109,0.134
		c-0.728,0.793-1.709,1.241-2.721,1.325C62.093,49.393,61.052,49.111,60.203,48.448z M68.588,39.066l0.109-0.133
		c0.217-0.236,0.326-0.555,0.299-0.873l-2.077-25.197c-0.042-0.511-0.493-0.893-1.004-0.851l-11.692,0.964
		c-0.511,0.042-0.893,0.493-0.851,1.004l2.077,25.197c0.026,0.319,0.186,0.615,0.437,0.812l6.222,6.139
		c0.45,0.31,1.066,0.258,1.457-0.12L68.588,39.066z"/>
</g>
</svg>
