<svg width="240" height="339" viewBox="0 0 240 339" fill="none" xmlns="http://www.w3.org/2000/svg">
<path d="M208.255 2L1.51831 22.0778L26.2087 329.836L238.62 313.467C238.62 313.467 210.73 56.7845 208.255 2Z" fill="black" stroke="black" stroke-width="2" stroke-miterlimit="10"/>
<path d="M214.144 18.8445L6.61682 28.8947L16.3957 337.524C16.3957 337.524 170.676 337.332 206.321 332.832C226.286 328.05 229.926 315.219 229.926 315.219C229.926 315.219 213.964 73.6855 214.144 18.8445Z" fill="white" stroke="black" stroke-width="2" stroke-miterlimit="10"/>
<path d="M206.344 324.885C226.309 320.114 229.949 307.283 229.949 307.283C221.923 312.936 209.6 308.719 209.6 308.719C209.6 308.719 210.991 317.898 206.344 324.885Z" fill="white" stroke="black" stroke-width="2" stroke-miterlimit="10"/>
<path d="M94.0614 3.97895L6.06702 26.6143L33.4874 133.21L121.482 110.575L94.0614 3.97895Z" fill="white" stroke="black" stroke-width="2" stroke-miterlimit="10"/>
<path d="M114.939 85.1809L26.9442 107.816L33.4754 133.206L121.47 110.571L114.939 85.1809Z" fill="white" stroke="black" stroke-width="2" stroke-miterlimit="10"/>
<path d="M88.798 13.445L15.2449 32.3655L32.6642 100.083L106.217 81.1625L88.798 13.445Z" fill="white" stroke="black" stroke-width="2" stroke-miterlimit="10"/>
<path d="M29.4191 49.2212L22.3534 42.2573C21.8699 41.8582 21.471 41.3666 21.1798 40.8114C20.8886 40.2562 20.7111 39.6486 20.6576 39.024L18.3061 10.5352C18.2301 9.36432 18.6122 8.20974 19.3716 7.31532C20.131 6.42091 21.2083 5.8567 22.376 5.74183L35.5917 4.61132C36.7625 4.53528 37.9171 4.91728 38.8115 5.67669C39.7059 6.4361 40.2702 7.51344 40.385 8.68113L42.7365 37.17C42.787 37.7945 42.713 38.4228 42.5189 39.0186C42.3249 39.6143 42.0146 40.1657 41.606 40.6406L35.9534 48.5542L35.829 48.7124C35.026 49.5764 33.9289 50.1089 32.7533 50.2051C31.5776 50.3013 30.4084 49.9544 29.4756 49.2325L29.4191 49.2212ZM38.8927 38.617L39.0171 38.47C39.1375 38.3354 39.2296 38.178 39.2878 38.0071C39.3461 37.8362 39.3694 37.6553 39.3562 37.4752L37.0048 8.9977C36.9948 8.85949 36.9576 8.72458 36.8952 8.60081C36.8329 8.47704 36.7468 8.36686 36.6417 8.2765C36.5367 8.18615 36.4148 8.11742 36.2831 8.07433C36.1514 8.03125 36.0125 8.01462 35.8743 8.02541L22.6586 9.15592C22.5204 9.16593 22.3856 9.20318 22.2618 9.26549C22.1381 9.32781 22.0278 9.41394 21.9374 9.519C21.8471 9.62406 21.7784 9.74597 21.7353 9.87767C21.6922 10.0094 21.6756 10.1483 21.6864 10.2864L24.0378 38.7753C24.0551 38.9535 24.108 39.1264 24.1934 39.2837C24.2789 39.4411 24.3951 39.5795 24.5353 39.691L31.5671 46.6323C31.8158 46.803 32.1158 46.8827 32.4165 46.858C32.7171 46.8333 33 46.7057 33.2176 46.4967L38.8927 38.617Z" fill="white" stroke="black" stroke-width="2" stroke-miterlimit="10"/>
<path d="M56.9132 63.7822C56.3002 63.8831 55.6728 63.8526 55.0726 63.6928C54.4723 63.533 53.9128 63.2475 53.4312 62.8552C53.2642 62.7343 53.1241 62.5802 53.0196 62.4025C52.9152 62.2248 52.8487 62.0274 52.8243 61.8227C52.7999 61.618 52.8182 61.4105 52.8781 61.2133C52.9379 61.016 53.038 60.8332 53.1719 60.6766C53.3059 60.5199 53.4708 60.3927 53.6564 60.3029C53.842 60.2132 54.0441 60.1629 54.2501 60.1551C54.4561 60.1474 54.6614 60.1824 54.8532 60.258C55.045 60.3336 55.219 60.448 55.3644 60.5942C55.5267 60.7088 55.7104 60.7899 55.9045 60.8327C56.0986 60.8754 56.2994 60.8789 56.4949 60.8429C57.1251 60.7696 57.7034 60.4582 58.1115 59.9724C58.2221 59.8099 58.3637 59.6707 58.528 59.5628C58.6924 59.455 58.8765 59.3805 59.0696 59.3438C59.2628 59.307 59.4613 59.3087 59.6538 59.3487C59.8463 59.3886 60.0291 59.4662 60.1917 59.5768C60.3542 59.6874 60.4934 59.8289 60.6012 59.9933C60.7091 60.1577 60.7835 60.3417 60.8203 60.5348C60.857 60.728 60.8553 60.9266 60.8154 61.1191C60.7754 61.3116 60.6979 61.4943 60.5873 61.6569C60.146 62.2366 59.594 62.723 58.9633 63.0879C58.3326 63.4527 57.6357 63.6887 56.9132 63.7822Z" fill="white" stroke="#1D1D1B" stroke-width="2" stroke-linecap="round" stroke-linejoin="round"/>
<path d="M59.2307 62.5159C60.1111 62.5159 60.8248 61.8023 60.8248 60.9219C60.8248 60.0415 60.1111 59.3279 59.2307 59.3279C58.3504 59.3279 57.6367 60.0415 57.6367 60.9219C57.6367 61.8023 58.3504 62.5159 59.2307 62.5159Z" fill="#1D1D1B"/>
<path d="M69.6087 61.815H69.5183C68.9063 61.9127 68.2806 61.8795 67.6824 61.7178C67.0842 61.5561 66.527 61.2694 66.0476 60.8767C65.8806 60.7558 65.7405 60.6017 65.636 60.424C65.5316 60.2463 65.4651 60.0488 65.4408 59.8442C65.4164 59.6395 65.4347 59.432 65.4945 59.2347C65.5543 59.0375 65.6544 58.8547 65.7883 58.6981C65.9223 58.5414 66.0872 58.4142 66.2728 58.3244C66.4583 58.2347 66.6605 58.1844 66.8665 58.1766C67.0725 58.1689 67.2778 58.2039 67.4696 58.2795C67.6614 58.3551 67.8354 58.4695 67.9807 58.6157C68.141 58.7346 68.3245 58.8182 68.5194 58.8611C68.7142 58.904 68.9159 58.9051 69.1113 58.8644C69.7462 58.7961 70.3298 58.484 70.7392 57.9939C70.8498 57.8313 70.9914 57.6922 71.1558 57.5843C71.3201 57.4765 71.5042 57.402 71.6973 57.3652C71.8905 57.3285 72.089 57.3302 72.2815 57.3701C72.474 57.4101 72.6568 57.4877 72.8194 57.5983C72.9819 57.7089 73.1211 57.8503 73.229 58.0147C73.3368 58.1791 73.4113 58.3632 73.448 58.5563C73.4848 58.7495 73.4831 58.948 73.4431 59.1406C73.4032 59.3331 73.3256 59.5158 73.215 59.6784C72.3417 60.8382 71.0455 61.6062 69.6087 61.815Z" fill="white" stroke="#1D1D1B" stroke-width="2" stroke-linecap="round" stroke-linejoin="round"/>
<path d="M72.0281 60.5489C72.9085 60.5489 73.6221 59.8352 73.6221 58.9549C73.6221 58.0745 72.9085 57.3608 72.0281 57.3608C71.1477 57.3608 70.4341 58.0745 70.4341 58.9549C70.4341 59.8352 71.1477 60.5489 72.0281 60.5489Z" fill="#1D1D1B"/>
<path d="M83.4862 65.1128L77.7083 42.5615L55.2875 36.2958L38.6445 52.5813L44.4336 75.131L66.8545 81.3967L83.4862 65.1128Z" fill="#3154FF" stroke="black" stroke-miterlimit="10"/>
<path d="M56.9389 59.1388L57.5814 61.6393C57.6828 61.9858 57.6997 62.3514 57.6308 62.7057C57.5644 63.1034 57.3868 63.4741 57.1186 63.7751C56.8504 64.0761 56.5025 64.2951 56.1151 64.4067C55.7631 64.4864 55.3964 64.4732 55.0511 64.3683C54.7057 64.2635 54.3936 64.0706 54.1454 63.8086C53.8631 63.5116 53.6617 63.1472 53.5603 62.7502L52.8906 60.1393C52.7738 59.7295 52.7711 59.2955 52.8828 58.8843C52.9733 58.5344 53.1548 58.2147 53.409 57.9578C53.6632 57.7008 53.9809 57.5158 54.3298 57.4215C54.6092 57.3522 54.9002 57.3433 55.1834 57.3954C55.4665 57.4476 55.7352 57.5595 55.9717 57.7238C56.4559 58.0616 56.8 58.5649 56.9389 59.1388Z" fill="white" stroke="#1D1D1B" stroke-linecap="round" stroke-linejoin="round"/>
<path d="M55.1176 61.3406C56.2488 61.1791 57.0348 60.1312 56.8733 59.0001C56.7118 57.869 55.6639 57.0829 54.5328 57.2444C53.4017 57.4059 52.6157 58.4538 52.7772 59.5849C52.9387 60.716 53.9865 61.5021 55.1176 61.3406Z" fill="#1D1D1B"/>
<path d="M68.252 56.233L68.8962 58.7447C68.988 59.0935 69.0011 59.4583 68.9345 59.8127C68.8654 60.2064 68.6877 60.5729 68.4216 60.8712C68.1556 61.1694 67.8115 61.3875 67.4283 61.5009C67.0759 61.5817 66.7086 61.5703 66.3619 61.4678C66.0152 61.3653 65.7008 61.1751 65.449 60.9156C65.168 60.6177 64.9667 60.2536 64.864 59.8571L64.1943 57.2463C64.0759 56.8404 64.0738 56.4095 64.188 56.0024C64.2788 55.6517 64.4601 55.3309 64.7137 55.0723C64.9674 54.8136 65.2845 54.6261 65.6334 54.5284C65.9139 54.4612 66.2055 54.4544 66.4889 54.5085C66.7722 54.5625 67.0408 54.6762 67.2769 54.842C67.7587 55.1733 68.1049 55.6671 68.252 56.233Z" fill="white" stroke="#1D1D1B" stroke-linecap="round" stroke-linejoin="round"/>
<path d="M66.4708 58.7954C67.6019 58.6339 68.3879 57.586 68.2264 56.4549C68.0649 55.3238 67.0171 54.5378 65.8859 54.6993C64.7548 54.8608 63.9688 55.9086 64.1303 57.0398C64.2918 58.1709 65.3397 58.9569 66.4708 58.7954Z" fill="#1D1D1B"/>
</svg>
