<?xml version="1.0" encoding="iso-8859-1"?>
<!-- Generator: Adobe Illustrator 25.4.0, SVG Export Plug-In . SVG Version: 6.00 Build 0)  -->
<svg version="1.1" id="Calque_1" xmlns="http://www.w3.org/2000/svg" xmlns:xlink="http://www.w3.org/1999/xlink" x="0px" y="0px"
	 width="211.958px" height="292.165px" viewBox="0 0 211.958 292.165" enable-background="new 0 0 211.958 292.165"
	 xml:space="preserve">
<g>
	<path stroke="#000000" stroke-width="2" stroke-miterlimit="10" d="M183.996,1.097L1.075,18.865l21.842,272.226l187.935-14.479
		C210.852,276.613,186.185,49.561,183.996,1.097z"/>
	<path fill="#FFFFFF" stroke="#000000" stroke-width="2" stroke-miterlimit="10" d="M189.202,9.008L5.637,17.905l8.645,272.964
		c0,0,136.479-0.165,168.021-4.151c17.666-4.228,20.887-15.579,20.887-15.579S189.044,57.521,189.202,9.008z"/>
	<path fill="#FFFFFF" stroke="#000000" stroke-width="2" stroke-miterlimit="10" d="M182.306,286.715
		c17.663-4.225,20.881-15.578,20.881-15.578c-7.103,5.001-18.016,1.275-18.016,1.275S186.412,280.527,182.306,286.715z"/>
	<g>
		
			<rect x="3.191" y="18.3" fill="#FFFFFF" stroke="#000000" stroke-width="2" stroke-miterlimit="10" width="99.088" height="117.895"/>
		
			<rect x="10.215" y="25.237" fill="#FFFFFF" stroke="#000000" stroke-width="2" stroke-miterlimit="10" width="85.039" height="83.29"/>
	</g>
	<g>
		<polygon fill="#3154FF" stroke="#000000" stroke-width="2" stroke-miterlimit="10" points="81.372,85.21 82.147,49.896 
			51.952,31.568 20.982,48.554 20.207,83.868 50.402,102.196 		"/>
		<g>
			
				<path fill="#FFFFFF" stroke="#1D1D1B" stroke-width="2" stroke-linecap="round" stroke-linejoin="round" stroke-miterlimit="10" d="
				M45.02,65.628l-0.086,3.92c-0.012,0.545-0.117,1.093-0.369,1.577c-0.58,1.112-1.658,1.883-2.904,1.856h0
				c-1.133-0.025-2.098-0.703-2.641-1.669c-0.315-0.56-0.433-1.21-0.419-1.853l0.09-4.081c0.014-0.643,0.161-1.287,0.5-1.832
				c0.585-0.941,1.579-1.576,2.712-1.552h0c0.906,0.02,1.704,0.457,2.276,1.12C44.774,63.803,45.04,64.718,45.02,65.628z"/>
			<circle fill="#1D1D1B" cx="41.862" cy="64.989" r="3.143"/>
			
				<path fill="#FFFFFF" stroke="#1D1D1B" stroke-width="2" stroke-linecap="round" stroke-linejoin="round" stroke-miterlimit="10" d="
				M62.725,66.017l-0.086,3.92c-0.012,0.545-0.117,1.093-0.369,1.577c-0.58,1.112-1.658,1.883-2.904,1.856h0
				c-1.133-0.025-2.098-0.703-2.641-1.669c-0.315-0.56-0.433-1.21-0.419-1.853l0.09-4.081c0.014-0.643,0.161-1.287,0.5-1.832
				c0.585-0.941,1.579-1.576,2.712-1.552h0c0.906,0.02,1.704,0.457,2.276,1.12C62.48,64.191,62.745,65.106,62.725,66.017z"/>
			<circle fill="#1D1D1B" cx="59.567" cy="65.378" r="3.143"/>
		</g>
	</g>
	<path fill="#FFFFFF" stroke="#000000" stroke-width="2" stroke-miterlimit="10" d="M38.859,51.757l-5.915-6.472
		c-0.826-0.753-1.318-1.82-1.352-2.941l-0.773-25.27c-0.066-2.166,1.643-3.983,3.809-4.049l11.726-0.359
		c2.166-0.066,3.983,1.642,4.049,3.809l0.773,25.27c0.034,1.12-0.391,2.215-1.17,3.018l-5.393,6.693l-0.116,0.129
		c-0.768,0.754-1.771,1.151-2.785,1.182C40.697,52.798,39.672,52.463,38.859,51.757z M47.717,42.821l0.115-0.128
		c0.229-0.225,0.354-0.537,0.344-0.857l-0.773-25.27c-0.016-0.513-0.446-0.917-0.959-0.902l-11.726,0.359
		c-0.512,0.016-0.917,0.446-0.902,0.959l0.773,25.27c0.01,0.32,0.154,0.624,0.395,0.833l5.896,6.452
		c0.433,0.333,1.051,0.313,1.461-0.045L47.717,42.821z"/>
</g>
</svg>
