<svg width="241" height="331" viewBox="0 0 241 331" fill="none" xmlns="http://www.w3.org/2000/svg">
<path d="M208.829 2.05444L2.03662 22.1323L26.7269 329.891L239.195 313.521C239.195 313.521 211.305 56.8389 208.829 2.05444Z" fill="black" stroke="black" stroke-width="2" stroke-miterlimit="10"/>
<path d="M214.719 10.9963L7.19141 21.0466L16.9703 329.676C16.9703 329.676 171.262 329.483 206.896 324.984C226.872 320.202 230.512 307.371 230.512 307.371C230.512 307.371 214.538 65.8373 214.719 10.9963Z" fill="white" stroke="black" stroke-width="2" stroke-miterlimit="10"/>
<path d="M206.919 324.939C226.895 320.168 230.524 307.336 230.524 307.336C222.497 312.989 210.175 308.772 210.175 308.772C210.175 308.772 211.565 317.952 206.919 324.939Z" fill="white" stroke="black" stroke-width="2" stroke-miterlimit="10"/>
<path d="M104.441 8.0377L14.1311 18.0081L26.2092 127.41L116.52 117.439L104.441 8.0377Z" fill="white" stroke="black" stroke-width="2" stroke-miterlimit="10"/>
<path d="M113.643 91.3741L23.3328 101.344L26.2096 127.403L116.52 117.432L113.643 91.3741Z" fill="white" stroke="black" stroke-width="2" stroke-miterlimit="10"/>
<path d="M97.893 16.665L22.4041 24.999L30.0769 94.4987L105.566 86.1647L97.893 16.665Z" fill="white" stroke="black" stroke-width="2" stroke-miterlimit="10"/>
<path d="M30.0503 49.2756L22.9959 42.3116C22.5096 41.9118 22.1081 41.4188 21.8149 40.8616C21.5218 40.3044 21.3429 39.6943 21.2889 39.067L18.9487 10.5895C18.8517 9.41578 19.2247 8.25157 19.9858 7.35275C20.7468 6.45393 21.8336 5.89405 23.0072 5.79616L36.2229 4.66565C36.8049 4.61768 37.3908 4.6849 37.9468 4.86354C38.5028 5.04219 39.0182 5.32873 39.4634 5.70673C39.9086 6.08474 40.2749 6.54683 40.5413 7.06653C40.8078 7.58624 40.9692 8.15333 41.0163 8.73546L43.3112 37.3034C43.3626 37.9298 43.2891 38.5601 43.095 39.1578C42.9009 39.7555 42.5902 40.3087 42.1807 40.7854L36.5281 48.699L36.4038 48.8572C35.6007 49.7212 34.5036 50.2537 33.3279 50.3499C32.1523 50.4461 30.9832 50.0992 30.0503 49.3773V49.2756ZM39.524 38.6714L39.6483 38.5131C39.7719 38.3829 39.8661 38.2278 39.9246 38.0581C39.9831 37.8884 40.0046 37.7082 39.9875 37.5296L37.5795 9.04072C37.5564 8.7636 37.4245 8.50693 37.2127 8.32683C37.0008 8.14674 36.7262 8.05792 36.449 8.07981L23.2333 9.21032C23.0956 9.22027 22.9612 9.25751 22.838 9.31996C22.7148 9.38242 22.6053 9.46878 22.5158 9.57402C22.4264 9.67926 22.3588 9.80132 22.317 9.93297C22.2752 10.0646 22.26 10.2033 22.2724 10.3408L24.6126 38.8296C24.6298 39.0078 24.6827 39.1808 24.7682 39.3381C24.8536 39.4954 24.9699 39.6339 25.11 39.7453L32.1418 46.6867C32.3905 46.8573 32.6905 46.9371 32.9912 46.9124C33.2918 46.8876 33.5747 46.76 33.7923 46.551L39.524 38.6714Z" fill="white" stroke="black" stroke-width="2" stroke-miterlimit="10"/>
<path d="M64.9152 86.7407C61.9832 87.0243 59.0584 86.1323 56.7838 84.2604C54.5092 82.3886 53.0709 79.6902 52.7849 76.7584L49.3933 41.5543C49.1893 38.6628 50.122 35.8058 51.9928 33.5916C53.8637 31.3774 56.5249 29.981 59.4099 29.6996C62.295 29.4181 65.1759 30.274 67.4394 32.0848C69.7029 33.8957 71.1701 36.5185 71.5287 39.395L74.9203 74.5991C75.2007 77.5353 74.3047 80.4628 72.4289 82.7392C70.5532 85.0155 67.8509 86.4546 64.9152 86.7407Z" fill="#89F798" stroke="#1D1D1B" stroke-linecap="round" stroke-linejoin="round"/>
<path d="M61.7049 64.9895C61.6759 64.6926 61.5888 64.4043 61.4484 64.1411C61.308 63.8778 61.1172 63.6448 60.8868 63.4553C60.6563 63.2658 60.3908 63.1236 60.1054 63.0367C59.82 62.9498 59.5203 62.92 59.2234 62.949C58.9265 62.9779 58.6382 63.0651 58.3749 63.2054C58.1117 63.3458 57.8787 63.5367 57.6892 63.7671C57.4997 63.9975 57.3575 64.263 57.2706 64.5484C57.1837 64.8338 57.1539 65.1335 57.1828 65.4304C57.3298 66.8549 58.5508 68.0419 59.6587 67.4653C61.2075 66.6966 61.784 66.414 61.7049 64.9895Z" fill="white" stroke="#1D1D1B" stroke-linecap="round" stroke-linejoin="round"/>
<path d="M59.9979 67.2167C60.9219 67.2167 61.671 66.4676 61.671 65.5435C61.671 64.6195 60.9219 63.8704 59.9979 63.8704C59.0738 63.8704 58.3247 64.6195 58.3247 65.5435C58.3247 66.4676 59.0738 67.2167 59.9979 67.2167Z" fill="#1D1D1B"/>
<path d="M64.7119 64.6956C64.6829 64.3986 64.7127 64.0989 64.7996 63.8135C64.8865 63.5281 65.0288 63.2627 65.2183 63.0322C65.4077 62.8018 65.6407 62.6109 65.904 62.4706C66.1672 62.3302 66.4555 62.243 66.7525 62.2141C67.0494 62.1851 67.3491 62.215 67.6345 62.3019C67.9199 62.3887 68.1854 62.531 68.4158 62.7205C68.6463 62.91 68.8371 63.143 68.9775 63.4062C69.1178 63.6695 69.205 63.9578 69.2339 64.2547C69.3696 65.6792 68.4086 67.081 67.199 66.7305C65.458 66.2444 64.8476 66.12 64.7119 64.6956Z" fill="white" stroke="#1D1D1B" stroke-linecap="round" stroke-linejoin="round"/>
<path d="M66.4078 66.5951C67.3318 66.5951 68.0809 65.846 68.0809 64.9219C68.0809 63.9979 67.3318 63.2488 66.4078 63.2488C65.4837 63.2488 64.7346 63.9979 64.7346 64.9219C64.7346 65.846 65.4837 66.5951 66.4078 66.5951Z" fill="#1D1D1B"/>
</svg>
