<?xml version="1.0" encoding="iso-8859-1"?>
<!-- Generator: Adobe Illustrator 25.4.0, SVG Export Plug-In . SVG Version: 6.00 Build 0)  -->
<svg version="1.1" id="Calque_1" xmlns="http://www.w3.org/2000/svg" xmlns:xlink="http://www.w3.org/1999/xlink" x="0px" y="0px"
	 width="213.395px" height="292.165px" viewBox="0 0 213.395 292.165" enable-background="new 0 0 213.395 292.165"
	 xml:space="preserve">
<g>
	<path stroke="#000000" stroke-width="2" stroke-miterlimit="10" d="M185.433,1.097L2.513,18.865l21.842,272.226l187.935-14.479
		C212.29,276.613,187.622,49.561,185.433,1.097z"/>
	<path fill="#FFFFFF" stroke="#000000" stroke-width="2" stroke-miterlimit="10" d="M190.639,9.008L7.074,17.905l8.645,272.964
		c0,0,136.479-0.165,168.021-4.151c17.666-4.228,20.887-15.579,20.887-15.579S190.482,57.521,190.639,9.008z"/>
	<path fill="#FFFFFF" stroke="#000000" stroke-width="2" stroke-miterlimit="10" d="M183.744,286.715
		c17.663-4.225,20.881-15.578,20.881-15.578c-7.103,5.001-18.016,1.275-18.016,1.275S187.849,280.527,183.744,286.715z"/>
	<g>
		
			<rect x="4.628" y="18.3" fill="#FFFFFF" stroke="#000000" stroke-width="2" stroke-miterlimit="10" width="99.088" height="117.895"/>
		
			<rect x="11.652" y="25.237" fill="#FFFFFF" stroke="#000000" stroke-width="2" stroke-miterlimit="10" width="85.039" height="83.29"/>
	</g>
	<g>
		
			<path fill="#89F798" stroke="#1D1D1B" stroke-width="2" stroke-linecap="round" stroke-linejoin="round" stroke-miterlimit="10" d="
			M58.408,98.968c-9.296,0.534-17.294-6.594-17.828-15.891l-3.082-42.095c-0.534-9.296,6.594-17.294,15.891-17.828
			s17.294,6.594,17.828,15.891l3.082,42.095C74.833,90.437,67.704,98.434,58.408,98.968z"/>
		<g>
			
				<path fill="#FFFFFF" stroke="#1D1D1B" stroke-width="2" stroke-linecap="round" stroke-linejoin="round" stroke-miterlimit="10" d="
				M54.756,71.643c-0.125-2.168-1.763-3.837-3.66-3.728c-1.897,0.109-3.334,1.955-3.209,4.123c0.125,2.168,1.909,4.046,3.633,3.246
				C53.981,74.141,54.88,73.811,54.756,71.643z"/>
			<circle fill="#1D1D1B" cx="52.213" cy="72.386" r="2.538"/>
			
				<path fill="#FFFFFF" stroke="#1D1D1B" stroke-width="2" stroke-linecap="round" stroke-linejoin="round" stroke-miterlimit="10" d="
				M59.412,71.375c-0.125-2.168,1.312-4.014,3.209-4.123s3.536,1.56,3.66,3.728c0.125,2.168-1.433,4.238-3.237,3.641
				C60.468,73.769,59.537,73.543,59.412,71.375z"/>
			<circle fill="#1D1D1B" cx="61.978" cy="71.825" r="2.538"/>
		</g>
	</g>
	<path fill="#FFFFFF" stroke="#000000" stroke-width="2" stroke-miterlimit="10" d="M40.608,85.821l-5.953,6.438
		c-0.681,0.886-1.703,1.466-2.817,1.594L6.722,96.745c-2.153,0.248-4.107-1.303-4.354-3.455L1.026,81.635
		c-0.248-2.153,1.302-4.107,3.455-4.354l25.116-2.892c1.113-0.128,2.24,0.204,3.106,0.913l7.122,4.812l0.138,0.105
		c0.816,0.702,1.296,1.668,1.412,2.676C41.491,83.902,41.243,84.952,40.608,85.821z M30.96,77.745l-0.137-0.104
		c-0.243-0.209-0.565-0.308-0.882-0.271L4.824,80.261c-0.51,0.059-0.877,0.522-0.818,1.031l1.342,11.654
		c0.059,0.509,0.521,0.877,1.031,0.818l25.116-2.892c0.318-0.037,0.608-0.206,0.797-0.463l5.934-6.417
		c0.295-0.46,0.223-1.074-0.167-1.452L30.96,77.745z"/>
</g>
</svg>
