<?xml version="1.0" encoding="iso-8859-1"?>
<!-- Generator: Adobe Illustrator 25.4.0, SVG Export Plug-In . SVG Version: 6.00 Build 0)  -->
<svg version="1.1" id="Calque_1" xmlns="http://www.w3.org/2000/svg" xmlns:xlink="http://www.w3.org/1999/xlink" x="0px" y="0px"
	 width="214.097px" height="292.165px" viewBox="0 0 214.097 292.165" enable-background="new 0 0 214.097 292.165"
	 xml:space="preserve">
<g>
	<g>
		<path stroke="#000000" stroke-width="2" stroke-miterlimit="10" d="M186.134,1.097L3.214,18.865l21.842,272.226l187.935-14.479
			C212.991,276.613,188.324,49.561,186.134,1.097z"/>
		<path fill="#FFFFFF" stroke="#000000" stroke-width="2" stroke-miterlimit="10" d="M191.341,9.008L7.775,17.905l8.645,272.964
			c0,0,136.479-0.165,168.021-4.151c17.666-4.228,20.887-15.579,20.887-15.579S191.183,57.521,191.341,9.008z"/>
		<path fill="#FFFFFF" stroke="#000000" stroke-width="2" stroke-miterlimit="10" d="M184.445,286.715
			c17.663-4.225,20.881-15.578,20.881-15.578c-7.103,5.001-18.016,1.275-18.016,1.275S188.551,280.527,184.445,286.715z"/>
	</g>
	<g>
		
			<rect x="5.33" y="18.3" fill="#FFFFFF" stroke="#000000" stroke-width="2" stroke-miterlimit="10" width="99.088" height="117.895"/>
		
			<rect x="12.354" y="25.237" fill="#FFFFFF" stroke="#000000" stroke-width="2" stroke-miterlimit="10" width="85.039" height="83.29"/>
	</g>
	<g>
		<g>
			
				<path fill="#FFABE5" stroke="#1D1D1B" stroke-width="2" stroke-linecap="round" stroke-linejoin="round" stroke-miterlimit="10" d="
				M86.455,89.429l-63.164,0c-3.534,0-6.409-3.215-6.409-7.168l0-28.553c0-3.952,2.875-7.167,6.409-7.167l63.164,0
				c3.534,0,6.409,3.215,6.409,7.167v28.553C92.864,86.214,89.989,89.429,86.455,89.429z"/>
		</g>
		<g>
			<g>
				
					<circle fill="#FFFFFF" stroke="#1D1D1B" stroke-width="2" stroke-linecap="round" stroke-linejoin="round" stroke-miterlimit="10" cx="53.578" cy="72.306" r="4.737"/>
				<circle fill="#1D1D1B" cx="54.677" cy="70.944" r="2.922"/>
			</g>
			<g>
				
					<circle fill="#FFFFFF" stroke="#1D1D1B" stroke-width="2" stroke-linecap="round" stroke-linejoin="round" stroke-miterlimit="10" cx="70.206" cy="72.306" r="4.737"/>
				<circle fill="#1D1D1B" cx="71.304" cy="70.944" r="2.922"/>
			</g>
		</g>
	</g>
	<path fill="#FFFFFF" stroke="#000000" stroke-width="2" stroke-miterlimit="10" d="M40.424,45.748l-6.174,6.226
		c-0.712,0.862-1.753,1.406-2.871,1.495L6.177,55.479c-2.161,0.172-4.059-1.445-4.231-3.606L1.013,40.18
		c-0.172-2.16,1.445-4.058,3.606-4.231l25.202-2.011c1.117-0.089,2.231,0.282,3.072,1.021l6.949,5.058l0.134,0.11
		c0.791,0.73,1.237,1.713,1.318,2.724C41.374,43.861,41.089,44.901,40.424,45.748z M31.064,37.339l-0.133-0.109
		c-0.236-0.217-0.554-0.327-0.872-0.302L4.857,38.939c-0.512,0.041-0.894,0.491-0.854,1.002l0.933,11.694
		c0.041,0.511,0.49,0.895,1.002,0.854l25.202-2.011c0.319-0.025,0.615-0.184,0.813-0.435l6.155-6.206
		c0.311-0.449,0.261-1.065-0.116-1.457L31.064,37.339z"/>
</g>
</svg>
