<?xml version="1.0" encoding="iso-8859-1"?>
<!-- Generator: Adobe Illustrator 25.4.0, SVG Export Plug-In . SVG Version: 6.00 Build 0)  -->
<svg version="1.1" id="Calque_1" xmlns="http://www.w3.org/2000/svg" xmlns:xlink="http://www.w3.org/1999/xlink" x="0px" y="0px"
	 width="211.958px" height="292.165px" viewBox="0 0 211.958 292.165" enable-background="new 0 0 211.958 292.165"
	 xml:space="preserve">
<g>
	<g>
		<path stroke="#000000" stroke-width="2" stroke-miterlimit="10" d="M183.996,1.097L1.075,18.865l21.842,272.226l187.935-14.479
			C210.852,276.613,186.185,49.561,183.996,1.097z"/>
		<path fill="#FFFFFF" stroke="#000000" stroke-width="2" stroke-miterlimit="10" d="M189.202,9.008L5.637,17.905l8.645,272.964
			c0,0,136.479-0.165,168.021-4.151c17.666-4.228,20.887-15.579,20.887-15.579S189.044,57.521,189.202,9.008z"/>
		<path fill="#FFFFFF" stroke="#000000" stroke-width="2" stroke-miterlimit="10" d="M182.306,286.715
			c17.663-4.225,20.881-15.578,20.881-15.578c-7.103,5.001-18.016,1.275-18.016,1.275S186.412,280.527,182.306,286.715z"/>
	</g>
	<g>
		
			<rect x="3.191" y="18.3" fill="#FFFFFF" stroke="#000000" stroke-width="2" stroke-miterlimit="10" width="99.088" height="117.895"/>
		
			<rect x="10.215" y="25.237" fill="#FFFFFF" stroke="#000000" stroke-width="2" stroke-miterlimit="10" width="85.039" height="83.29"/>
	</g>
	<g>
		
			<path fill="#76C8FF" stroke="#1D1D1B" stroke-width="2" stroke-linecap="round" stroke-linejoin="round" stroke-miterlimit="10" d="
			M87.131,85.96l-68.506,0c-1.037,0-2.031-0.502-2.726-1.378c-0.695-0.875-1.033-2.049-0.929-3.221
			c0.949-10.62,5.313-20.439,12.289-27.65c7.023-7.26,16.122-11.259,25.619-11.259s18.596,3.998,25.619,11.259
			c6.975,7.211,11.339,17.03,12.289,27.65c0.105,1.172-0.234,2.346-0.929,3.221C89.162,85.458,88.168,85.96,87.131,85.96z"/>
		<g>
			<g>
				
					<path fill="#FFFFFF" stroke="#1D1D1B" stroke-width="2" stroke-linecap="round" stroke-linejoin="round" stroke-miterlimit="10" d="
					M58.485,67.897c0,2.316-1.877,4.193-4.193,4.193s-4.193-1.877-4.193-4.193c0-2.316,1.877-2.479,4.193-2.479
					S58.485,65.581,58.485,67.897z"/>
				<circle fill="#1D1D1B" cx="54.209" cy="67.805" r="2.587"/>
			</g>
			<g>
				
					<path fill="#FFFFFF" stroke="#1D1D1B" stroke-width="2" stroke-linecap="round" stroke-linejoin="round" stroke-miterlimit="10" d="
					M72.851,67.897c0,2.316-1.877,4.193-4.193,4.193s-4.193-1.877-4.193-4.193s1.877-2.479,4.193-2.479S72.851,65.581,72.851,67.897
					z"/>
				<circle fill="#1D1D1B" cx="68.574" cy="67.805" r="2.587"/>
			</g>
		</g>
	</g>
	<path fill="#FFFFFF" stroke="#000000" stroke-width="2" stroke-miterlimit="10" d="M25.231,52.531l-6.242-6.158
		c-0.864-0.71-1.41-1.749-1.502-2.867L15.41,18.309c-0.178-2.16,1.435-4.062,3.594-4.24l11.692-0.964
		c2.16-0.178,4.062,1.434,4.24,3.594l2.077,25.197c0.092,1.117-0.277,2.232-1.013,3.075l-5.04,6.962l-0.109,0.134
		c-0.728,0.793-1.709,1.241-2.721,1.325C27.121,53.476,26.08,53.194,25.231,52.531z M33.616,43.149l0.109-0.133
		c0.217-0.236,0.326-0.555,0.299-0.873l-2.077-25.197c-0.042-0.511-0.493-0.893-1.004-0.851l-11.692,0.964
		c-0.511,0.042-0.893,0.493-0.851,1.004l2.077,25.197c0.026,0.319,0.186,0.615,0.437,0.812l6.222,6.139
		c0.45,0.31,1.066,0.258,1.457-0.12L33.616,43.149z"/>
</g>
</svg>
