<svg width="240" height="331" viewBox="0 0 240 331" fill="none" xmlns="http://www.w3.org/2000/svg">
<path d="M208.07 2.05444L1.27734 22.1323L25.979 329.891L238.436 313.521C238.436 313.521 210.546 56.8389 208.07 2.05444Z" fill="black" stroke="black" stroke-width="2" stroke-miterlimit="10"/>
<path d="M213.96 10.9963L6.48889 21.0466L16.2678 329.676C16.2678 329.676 170.56 329.483 206.193 324.984C226.169 320.202 229.81 307.371 229.81 307.371C229.81 307.371 213.779 65.8373 213.96 10.9963Z" fill="white" stroke="black" stroke-width="2" stroke-miterlimit="10"/>
<path d="M206.159 324.939C226.136 320.168 229.776 307.336 229.776 307.336C221.738 312.989 209.427 308.772 209.427 308.772C209.427 308.772 210.806 317.952 206.159 324.939Z" fill="white" stroke="black" stroke-width="2" stroke-miterlimit="10"/>
<path d="M107.874 18.2337L17.6484 7.51929L4.66906 116.818L94.8942 127.532L107.874 18.2337Z" fill="white" stroke="black" stroke-width="2" stroke-miterlimit="10"/>
<path d="M97.9871 101.493L7.76196 90.7783L4.67042 116.812L94.8955 127.526L97.9871 101.493Z" fill="white" stroke="black" stroke-width="2" stroke-miterlimit="10"/>
<path d="M99.5404 25.1674L24.1227 16.2114L15.8773 85.6455L91.295 94.6015L99.5404 25.1674Z" fill="white" stroke="black" stroke-width="2" stroke-miterlimit="10"/>
<path d="M72.9857 82.4492L34.3784 78.777C33.5662 78.6973 32.8186 78.2991 32.2992 77.6695C31.7798 77.04 31.531 76.2303 31.6071 75.4177L35.2793 36.8105C35.3562 35.9958 35.7537 35.245 36.3841 34.7232C37.0145 34.2014 37.8264 33.9514 38.6411 34.0281L77.2483 37.7003C78.0606 37.78 78.8082 38.1782 79.3275 38.8078C79.8469 39.4373 80.0958 40.247 80.0197 41.0596L76.3475 79.6668C76.2705 80.4815 75.8731 81.2323 75.2427 81.7541C74.6123 82.2758 73.8004 82.5259 72.9857 82.4492Z" fill="#FF2E3F" stroke="black" stroke-miterlimit="10"/>
<path d="M50.3242 63.5853C50.3103 63.1583 50.3875 62.7332 50.5507 62.3383C50.7139 61.9435 50.9594 61.5879 51.2708 61.2953C51.5822 61.0028 51.9523 60.78 52.3566 60.6418C52.7609 60.5035 53.19 60.4529 53.6153 60.4935C54.0406 60.5341 54.4524 60.6648 54.8233 60.877C55.1941 61.0892 55.5155 61.378 55.7659 61.7242C56.0164 62.0703 56.1903 62.4659 56.2759 62.8845C56.3615 63.303 56.357 63.735 56.2625 64.1517C56.0829 66.025 54.4776 67.5904 53.0067 66.8775C50.9067 65.7748 50.1446 65.4585 50.3242 63.5853Z" fill="white" stroke="#1D1D1B" stroke-linecap="round" stroke-linejoin="round"/>
<path d="M53.5378 65.0395C54.7542 65.322 55.9692 64.5649 56.2516 63.3485C56.534 62.1321 55.7769 60.9171 54.5606 60.6347C53.3442 60.3523 52.1292 61.1094 51.8468 62.3257C51.5643 63.5421 52.3214 64.7571 53.5378 65.0395Z" fill="#1D1D1B"/>
<path d="M66.2328 65.097C66.3272 64.6804 66.3317 64.2484 66.2461 63.8298C66.1605 63.4112 65.9866 63.0156 65.7362 62.6695C65.4857 62.3234 65.1643 62.0346 64.7935 61.8224C64.4227 61.6102 64.0108 61.4794 63.5855 61.4388C63.1602 61.3982 62.7311 61.4488 62.3268 61.5871C61.9226 61.7253 61.5524 61.9481 61.241 62.2407C60.9296 62.5332 60.6841 62.8888 60.5209 63.2836C60.3577 63.6785 60.2805 64.1036 60.2944 64.5306C60.1148 66.4039 61.3884 68.2664 63.0176 67.7975C65.214 67.1353 66.0531 66.9703 66.2328 65.097Z" fill="white" stroke="#1D1D1B" stroke-linecap="round" stroke-linejoin="round"/>
<path d="M63.2803 65.9668C64.4967 66.2492 65.7117 65.4921 65.9942 64.2758C66.2766 63.0594 65.5195 61.8444 64.3031 61.5619C63.0868 61.2795 61.8717 62.0366 61.5893 63.253C61.3069 64.4693 62.064 65.6843 63.2803 65.9668Z" fill="#1D1D1B"/>
<path d="M85.6076 52.6752L78.4071 45.8625C77.9121 45.4742 77.5006 44.9899 77.1974 44.4386C76.8943 43.8874 76.7056 43.2806 76.6429 42.6546L73.6878 14.2334C73.566 13.0619 73.9142 11.8901 74.656 10.9753C75.3978 10.0606 76.4724 9.47776 77.6438 9.355L90.8325 7.9444C91.4134 7.88409 92.0005 7.93887 92.5602 8.10568C93.1199 8.27248 93.6412 8.54803 94.0943 8.91651C94.5474 9.28498 94.9234 9.7392 95.2009 10.2531C95.4783 10.7671 95.6517 11.3306 95.7111 11.9116L98.668 40.4233C98.7352 41.0485 98.6763 41.6808 98.4949 42.2829C98.3134 42.8849 98.0131 43.4445 97.6116 43.9285L92.1282 51.9602L92.0072 52.121C91.2227 53.0018 90.1371 53.5574 88.9638 53.6786C87.7904 53.7997 86.6142 53.4777 85.6662 52.7757L85.6076 52.6752ZM94.8542 41.8725L94.9751 41.7116C95.0959 41.5788 95.1868 41.4217 95.2417 41.2508C95.2966 41.0799 95.3142 40.8993 95.2934 40.7211L92.3494 12.2883C92.3176 12.0129 92.1796 11.7608 91.9646 11.5858C91.7496 11.4108 91.4748 11.3268 91.1987 11.3516L78.01 12.7622C77.7335 12.7911 77.4796 12.9284 77.3041 13.144C77.1285 13.3597 77.0456 13.6361 77.0733 13.9128L80.0286 42.3453C80.0449 42.5231 80.0983 42.6956 80.1853 42.8515C80.2724 43.0074 80.3912 43.1433 80.534 43.2505L87.7114 50.0411C87.9638 50.2065 88.2654 50.2798 88.5654 50.2487C88.8655 50.2176 89.1457 50.084 89.3587 49.8704L94.8542 41.8725Z" fill="white" stroke="black" stroke-width="2" stroke-miterlimit="10"/>
</svg>
