<?xml version="1.0" encoding="iso-8859-1"?>
<!-- Generator: Adobe Illustrator 25.4.0, SVG Export Plug-In . SVG Version: 6.00 Build 0)  -->
<svg version="1.1" id="Calque_1" xmlns="http://www.w3.org/2000/svg" xmlns:xlink="http://www.w3.org/1999/xlink" x="0px" y="0px"
	 width="215.426px" height="292.165px" viewBox="0 0 215.426 292.165" enable-background="new 0 0 215.426 292.165"
	 xml:space="preserve">
<g>
	<path stroke="#000000" stroke-width="2" stroke-miterlimit="10" d="M187.464,1.097L4.544,18.865l21.842,272.226l187.935-14.479
		C214.321,276.613,189.653,49.561,187.464,1.097z"/>
	<path fill="#FFFFFF" stroke="#000000" stroke-width="2" stroke-miterlimit="10" d="M192.67,9.008L9.105,17.905l8.645,272.964
		c0,0,136.479-0.165,168.021-4.151c17.666-4.228,20.887-15.579,20.887-15.579S192.512,57.521,192.67,9.008z"/>
	<path fill="#FFFFFF" stroke="#000000" stroke-width="2" stroke-miterlimit="10" d="M185.774,286.715
		c17.663-4.225,20.881-15.578,20.881-15.578c-7.103,5.001-18.016,1.275-18.016,1.275S189.88,280.527,185.774,286.715z"/>
	<g>
		
			<rect x="6.659" y="18.3" fill="#FFFFFF" stroke="#000000" stroke-width="2" stroke-miterlimit="10" width="99.088" height="117.895"/>
		
			<rect x="13.683" y="25.237" fill="#FFFFFF" stroke="#000000" stroke-width="2" stroke-miterlimit="10" width="85.039" height="83.29"/>
	</g>
	<g>
		<g>
			<path fill="#FF2E3F" stroke="#000000" stroke-width="2" stroke-miterlimit="10" d="M83.463,97.824l-54.206,0.272
				c-2.378,0.012-4.322-1.913-4.334-4.291l-0.272-54.206c-0.012-2.378,1.913-4.322,4.291-4.334l54.206-0.272
				c2.378-0.012,4.322,1.913,4.334,4.291l0.272,54.206C87.766,95.868,85.841,97.812,83.463,97.824z"/>
		</g>
		<g>
			
				<path fill="#FFFFFF" stroke="#1D1D1B" stroke-width="2" stroke-linecap="round" stroke-linejoin="round" stroke-miterlimit="10" d="
				M49.27,74.718c-0.013-2.636,1.846-4.783,4.153-4.795c2.307-0.012,4.188,2.116,4.201,4.753c0.013,2.636-2.007,5.047-4.156,4.208
				C50.398,77.687,49.283,77.354,49.27,74.718z"/>
			<circle fill="#1D1D1B" cx="54.358" cy="73.16" r="3.159"/>
			
				<path fill="#FFFFFF" stroke="#1D1D1B" stroke-width="2" stroke-linecap="round" stroke-linejoin="round" stroke-miterlimit="10" d="
				M71.638,74.606c-0.013-2.636-1.894-4.764-4.201-4.753c-2.307,0.012-4.166,2.158-4.153,4.795c0.013,2.636,2.057,5.026,4.198,4.167
				C70.539,77.586,71.651,77.242,71.638,74.606z"/>
			<circle fill="#1D1D1B" cx="68.056" cy="73.091" r="3.159"/>
		</g>
	</g>
	<path fill="#FFFFFF" stroke="#000000" stroke-width="2" stroke-miterlimit="10" d="M40.765,48.669l-5.691,6.671
		c-0.645,0.913-1.643,1.533-2.751,1.706L7.343,60.939c-2.142,0.334-4.155-1.137-4.489-3.278L1.047,46.069
		c-0.334-2.141,1.137-4.155,3.278-4.489l24.981-3.893c1.107-0.173,2.246,0.114,3.14,0.788l7.309,4.523l0.142,0.099
		c0.844,0.669,1.362,1.615,1.518,2.618C41.571,46.716,41.365,47.775,40.765,48.669z M30.802,40.985l-0.141-0.099
		c-0.251-0.199-0.577-0.285-0.893-0.235L4.788,44.544c-0.507,0.079-0.855,0.556-0.776,1.063l1.807,11.592
		c0.079,0.507,0.556,0.855,1.063,0.776l24.981-3.893c0.316-0.049,0.6-0.23,0.778-0.495l5.673-6.649
		c0.276-0.471,0.18-1.082-0.225-1.444L30.802,40.985z"/>
</g>
</svg>
