<?xml version="1.0" encoding="iso-8859-1"?>
<!-- Generator: Adobe Illustrator 25.4.0, SVG Export Plug-In . SVG Version: 6.00 Build 0)  -->
<svg version="1.1" id="Calque_1" xmlns="http://www.w3.org/2000/svg" xmlns:xlink="http://www.w3.org/1999/xlink" x="0px" y="0px"
	 width="211.958px" height="292.165px" viewBox="0 0 211.958 292.165" enable-background="new 0 0 211.958 292.165"
	 xml:space="preserve">
<g>
	<path stroke="#000000" stroke-width="2" stroke-miterlimit="10" d="M183.996,1.097L1.075,18.865l21.842,272.226l187.935-14.479
		C210.852,276.613,186.185,49.561,183.996,1.097z"/>
	<path fill="#FFFFFF" stroke="#000000" stroke-width="2" stroke-miterlimit="10" d="M189.202,9.008L5.637,17.905l8.645,272.964
		c0,0,136.479-0.165,168.021-4.151c17.666-4.228,20.887-15.579,20.887-15.579S189.044,57.521,189.202,9.008z"/>
	<path fill="#FFFFFF" stroke="#000000" stroke-width="2" stroke-miterlimit="10" d="M182.306,286.715
		c17.663-4.225,20.881-15.578,20.881-15.578c-7.103,5.001-18.016,1.275-18.016,1.275S186.412,280.527,182.306,286.715z"/>
</g>
<g>
	
		<rect x="3.191" y="18.3" fill="#FFFFFF" stroke="#000000" stroke-width="2" stroke-miterlimit="10" width="99.088" height="117.895"/>
	
		<rect x="10.215" y="25.237" fill="#FFFFFF" stroke="#000000" stroke-width="2" stroke-miterlimit="10" width="85.039" height="83.29"/>
</g>
<g>
	<path fill="#7352FF" stroke="#000000" stroke-width="2" stroke-miterlimit="10" d="M85.759,102.018l-65.549,0
		c-2.131,0-4.042-1.099-5.113-2.941c-1.071-1.842-1.081-4.047-0.028-5.898l32.775-57.603c1.065-1.872,2.987-2.99,5.14-2.99
		c2.154,0,4.076,1.118,5.141,2.99L90.9,93.179c1.053,1.851,1.043,4.056-0.028,5.898C89.801,100.919,87.89,102.018,85.759,102.018z"
		/>
	<g>
		<g>
			
				<path fill="#FFFFFF" stroke="#1D1D1B" stroke-width="2" stroke-linecap="round" stroke-linejoin="round" stroke-miterlimit="10" d="
				M42.809,81.567c-0.045,0-0.09-0.001-0.136-0.001c-2.069-0.034-3.89-0.835-5.128-2.255c-0.845-0.97-0.744-2.441,0.225-3.287
				c0.97-0.845,2.441-0.744,3.286,0.225c0.461,0.529,1.175,0.65,1.693,0.658c1.17,0.025,2.254-0.479,2.7-0.958
				c0.877-0.942,2.35-0.994,3.292-0.118c0.941,0.877,0.994,2.35,0.118,3.292C47.47,80.617,45.108,81.567,42.809,81.567z"/>
			<circle fill="#1D1D1B" cx="47.014" cy="77.709" r="2.478"/>
		</g>
		<g>
			
				<path fill="#FFFFFF" stroke="#1D1D1B" stroke-width="2" stroke-linecap="round" stroke-linejoin="round" stroke-miterlimit="10" d="
				M62.759,81.567c-0.045,0-0.09-0.001-0.136-0.001c-2.069-0.034-3.89-0.835-5.128-2.255c-0.845-0.97-0.744-2.441,0.225-3.287
				c0.97-0.845,2.441-0.744,3.286,0.225c0.461,0.529,1.175,0.65,1.693,0.658c1.17,0.025,2.254-0.479,2.7-0.958
				c0.877-0.942,2.35-0.994,3.292-0.118c0.941,0.877,0.994,2.35,0.118,3.292C67.42,80.617,65.057,81.567,62.759,81.567z"/>
			<circle fill="#1D1D1B" cx="67.175" cy="77.709" r="2.478"/>
		</g>
	</g>
</g>
<path fill="#FFFFFF" stroke="#000000" stroke-width="2" stroke-miterlimit="10" d="M58.484,48.849l-6.899-5.412
	c-0.939-0.607-1.599-1.579-1.817-2.679l-4.915-24.8c-0.421-2.126,0.966-4.199,3.091-4.62l11.508-2.281
	c2.126-0.421,4.198,0.965,4.62,3.091l4.915,24.8c0.218,1.099-0.022,2.249-0.658,3.169l-4.219,7.488l-0.094,0.146
	c-0.634,0.87-1.558,1.427-2.553,1.624C60.468,49.573,59.402,49.411,58.484,48.849z M65.753,38.578l0.093-0.145
	c0.189-0.259,0.261-0.588,0.199-0.902l-4.915-24.8c-0.1-0.503-0.591-0.832-1.094-0.732l-11.508,2.281
	c-0.503,0.1-0.832,0.59-0.732,1.094l4.915,24.8c0.062,0.314,0.254,0.59,0.526,0.757l6.876,5.395
	c0.482,0.257,1.088,0.136,1.434-0.284L65.753,38.578z"/>
</svg>
