<svg width="256" height="335" viewBox="0 0 256 335" fill="none" xmlns="http://www.w3.org/2000/svg">
<path d="M223.552 6.05444L16.7592 26.1436L41.4495 333.891L253.917 317.521C253.917 317.521 226.028 60.8389 223.552 6.05444Z" fill="black" stroke="black" stroke-width="2" stroke-miterlimit="10"/>
<path d="M229.442 14.9963L21.9142 25.0805L31.6931 333.71C31.6931 333.71 185.974 333.529 221.619 329.018C241.583 324.236 245.224 311.405 245.224 311.405C245.224 311.405 229.261 69.8373 229.442 14.9963Z" fill="white" stroke="black" stroke-width="2" stroke-miterlimit="10"/>
<path d="M221.698 328.951C241.663 324.169 245.303 311.338 245.303 311.338C237.276 316.99 224.954 312.773 224.954 312.773C224.954 312.773 226.288 321.953 221.698 328.951Z" fill="white" stroke="black" stroke-width="2" stroke-miterlimit="10"/>
<path d="M119.672 12.4185L29.4478 1.70068L16.4642 110.999L106.689 121.716L119.672 12.4185Z" fill="white" stroke="black" stroke-width="2" stroke-miterlimit="10"/>
<path d="M109.77 95.6864L19.5458 84.9685L14.7483 125.354L104.973 136.072L109.77 95.6864Z" fill="white" stroke="black" stroke-width="2" stroke-miterlimit="10"/>
<path d="M111.339 19.3522L35.9219 10.3933L27.6738 79.8272L103.091 88.7861L111.339 19.3522Z" fill="white" stroke="black" stroke-width="2" stroke-miterlimit="10"/>
<path d="M46.0945 48.7259L38.2725 54.828C37.8155 55.2577 37.2766 55.5909 36.688 55.8077C36.0993 56.0245 35.473 56.1204 34.8465 56.0898L6.29341 54.7242C5.12258 54.6476 4.02742 54.119 3.23912 53.25C2.45082 52.3809 2.03113 51.2394 2.06877 50.0667L2.66293 36.8161C2.7191 35.6397 3.24006 34.5338 4.1113 33.7413C4.98254 32.9489 6.1328 32.5348 7.30924 32.59L35.8623 33.9556C36.4881 33.9867 37.1015 34.1415 37.6671 34.4112C38.2326 34.681 38.739 35.0602 39.1569 35.527L46.27 42.1588L46.3995 42.3012C47.1546 43.2077 47.5405 44.3655 47.4801 45.5438C47.4513 46.7447 46.9541 47.8867 46.0945 48.7259ZM36.8095 37.9562L36.6799 37.8138C36.5621 37.6769 36.4179 37.5652 36.256 37.4852C36.0941 37.4053 35.9178 37.3587 35.7375 37.3484L7.19561 35.9842C7.05772 35.9762 6.91966 35.9957 6.78941 36.0417C6.65915 36.0876 6.53935 36.159 6.437 36.2518C6.33464 36.3445 6.25177 36.4567 6.19324 36.5818C6.13472 36.7069 6.1017 36.8424 6.09611 36.9804L5.50196 50.231C5.49395 50.3694 5.51338 50.5079 5.5591 50.6387C5.60482 50.7696 5.67593 50.89 5.76837 50.9932C5.86082 51.0965 5.97278 51.1804 6.09777 51.2402C6.22277 51.3 6.35835 51.3345 6.49673 51.3418L35.0498 52.7074C35.2289 52.7148 35.4076 52.6854 35.5748 52.621C35.7421 52.5566 35.8944 52.4586 36.0223 52.333L43.8175 46.2616C44.019 46.0371 44.137 45.75 44.1515 45.4486C44.166 45.1473 44.0762 44.8502 43.8972 44.6074L36.8095 37.9562Z" fill="white" stroke="black" stroke-width="2" stroke-miterlimit="10"/>
<path d="M84.8304 73.4078L43.624 64.7019C42.9735 64.5644 42.3705 64.2586 41.8752 63.8151C41.3799 63.3715 41.0097 62.8057 40.8017 62.1742C40.5936 61.5427 40.5549 60.8677 40.6895 60.2166C40.8241 59.5655 41.1272 58.9611 41.5686 58.4639L69.818 26.5938C70.2638 26.091 70.835 25.7155 71.4734 25.5056C72.1117 25.2957 72.7943 25.2589 73.4515 25.3989C74.1087 25.5389 74.7171 25.8508 75.2144 26.3027C75.7118 26.7545 76.0803 27.3303 76.2825 27.9711L89.2329 68.5326C89.4357 69.1659 89.4688 69.8414 89.3287 70.4915C89.1886 71.1416 88.8803 71.7436 88.4346 72.2371C87.9889 72.7307 87.4214 73.0986 86.7889 73.304C86.1564 73.5095 85.4811 73.5453 84.8304 73.4078Z" fill="#7352FF" stroke="black" stroke-miterlimit="10"/>
<path d="M60.5442 54.8378L60.4702 54.8098C59.8611 54.6877 59.285 54.4375 58.7799 54.076C58.2747 53.7144 57.8521 53.2498 57.5401 52.7127C57.4266 52.5406 57.3499 52.3469 57.3149 52.1438C57.28 51.9406 57.2875 51.7324 57.337 51.5323C57.3865 51.3322 57.477 51.1446 57.6026 50.9812C57.7282 50.8178 57.8864 50.6821 58.067 50.5829C58.2477 50.4836 58.447 50.4229 58.6523 50.4044C58.8576 50.386 59.0644 50.4104 59.2599 50.4759C59.4553 50.5414 59.6351 50.6467 59.7878 50.7851C59.9406 50.9235 60.0629 51.0921 60.1473 51.2802C60.2567 51.4466 60.3994 51.5887 60.5662 51.6974C60.7331 51.8062 60.9206 51.8793 61.1171 51.9122C61.7325 52.0661 62.3836 51.9791 62.9369 51.6689C63.2619 51.4406 63.6642 51.3508 64.0554 51.4191C64.4465 51.4875 64.7945 51.7084 65.0228 52.0334C65.251 52.3583 65.3409 52.7607 65.2725 53.1518C65.2041 53.543 64.9831 53.891 64.6582 54.1192C63.4363 54.8944 61.9566 55.1529 60.5442 54.8378Z" fill="white" stroke="#1D1D1B" stroke-linecap="round" stroke-linejoin="round"/>
<path d="M63.1384 54.464C63.962 54.775 64.8817 54.3594 65.1927 53.5358C65.5037 52.7122 65.0881 51.7924 64.2645 51.4815C63.4409 51.1705 62.5211 51.5861 62.2102 52.4097C61.8992 53.2333 62.3148 54.1531 63.1384 54.464Z" fill="#1D1D1B"/>
<path d="M73.087 57.4951L73.0024 57.4632C72.3954 57.3408 71.8212 57.091 71.3179 56.7301C70.8146 56.3693 70.3937 55.9057 70.0829 55.3701C69.9523 55.198 69.8603 54.9997 69.8131 54.7889C69.766 54.578 69.7649 54.3595 69.8099 54.1482C69.8548 53.9369 69.9448 53.7377 70.0736 53.5643C70.2025 53.3909 70.3672 53.2473 70.5565 53.1432C70.7459 53.0392 70.9555 52.9772 71.1709 52.9614C71.3864 52.9457 71.6027 52.9765 71.8052 53.0519C72.0077 53.1273 72.1915 53.2454 72.3442 53.3983C72.4969 53.5511 72.6149 53.7351 72.6901 53.9376C72.797 54.1065 72.9382 54.2509 73.1046 54.3616C73.271 54.4723 73.4588 54.5468 73.6559 54.5802C74.2769 54.7325 74.9327 54.6432 75.4904 54.3302C75.6513 54.2172 75.8328 54.137 76.0247 54.0941C76.2166 54.0513 76.4151 54.0467 76.6087 54.0805C76.8024 54.1144 76.9876 54.186 77.1536 54.2914C77.3196 54.3968 77.4631 54.5339 77.5762 54.6948C77.6892 54.8557 77.7694 55.0373 77.8122 55.2292C77.8551 55.4211 77.8597 55.6195 77.8259 55.8132C77.792 56.0069 77.7204 56.192 77.615 56.358C77.5096 56.524 77.3725 56.6676 77.2116 56.7806C75.9845 57.5525 74.5023 57.8093 73.087 57.4951Z" fill="white" stroke="#1D1D1B" stroke-linecap="round" stroke-linejoin="round"/>
<path d="M75.8055 57.144C76.6291 57.4549 77.5489 57.0393 77.8598 56.2157C78.1708 55.3921 77.7552 54.4724 76.9316 54.1614C76.108 53.8505 75.1882 54.2661 74.8773 55.0897C74.5663 55.9133 74.9819 56.833 75.8055 57.144Z" fill="#1D1D1B"/>
</svg>
