<svg width="255" height="23" viewBox="0 0 255 23" fill="none" xmlns="http://www.w3.org/2000/svg">
<path d="M13.5638 11.62L8.91379 0.699997L0.0337901 0.699999L0.0337938 22L7.38379 22L7.38379 12.01L11.2238 22L15.5438 22L19.3838 12.01L19.3838 22L26.7338 22L26.7338 0.699994L18.3938 0.699995L13.5638 11.62ZM44.3797 22L52.3297 22L45.0996 0.699991L34.8696 0.699993L27.6397 22L35.6197 22L36.5797 18.76L43.4197 18.76L44.3797 22ZM39.9997 7.26999L41.8297 13.39L38.1697 13.39L39.9997 7.26999ZM81.8628 12.67L74.1528 12.67C73.9428 14.47 72.4728 15.4 70.3728 15.4C68.0328 15.4 66.4728 13.93 66.4728 11.35C66.4728 8.85999 68.0328 7.38999 70.3728 7.38999C72.4428 7.38999 73.8828 8.43999 74.1528 10.06L81.8628 10.06C81.3528 4.20998 77.0328 0.579985 70.3728 0.579986C63.7428 0.579987 58.7928 4.62999 58.7928 11.35C58.7928 18.67 63.7428 22.21 70.3728 22.21C77.1828 22.21 81.3828 19.12 81.8628 12.67ZM96.8269 0.699982L96.8269 8.10998L90.7669 8.10998L90.7669 0.699983L83.2669 0.699984L83.2669 22L90.7669 22L90.7669 15.01L96.8269 15.01L96.8269 22L104.327 22L104.327 0.69998L96.8269 0.699982ZM106.177 22L124.777 22L124.777 15.4L113.677 15.4L113.677 13.39L124.297 13.39L124.297 9.18998L113.677 9.18998L113.677 7.29998L124.777 7.29998L124.777 0.699977L106.177 0.69998L106.177 22ZM149.216 12.67L141.506 12.67C141.296 14.47 139.826 15.4 137.726 15.4C135.386 15.4 133.826 13.93 133.826 11.35C133.826 8.85998 135.386 7.38998 137.726 7.38998C139.796 7.38997 141.236 8.43997 141.506 10.06L149.216 10.06C148.706 4.20997 144.386 0.579973 137.726 0.579974C131.096 0.579976 126.146 4.62998 126.146 11.35C126.146 18.67 131.096 22.21 137.726 22.21C144.536 22.21 148.736 19.12 149.216 12.67ZM165.32 10.75L174.41 0.699968L165.26 0.69997L158.81 8.25997L158.12 8.25997L158.12 0.699971L150.59 0.699972L150.59 22L158.12 22L158.12 14.44L158.72 14.44L165.17 22L174.83 22L165.32 10.75ZM181.733 22L199.253 22L199.253 15.1L189.233 15.1L189.233 0.699966L181.733 0.699967L181.733 22ZM208.13 0.699962L200.63 0.699964L200.63 22L208.13 22L208.13 0.699962ZM219.846 0.399961C213.486 0.399962 209.586 3.27996 209.586 7.44996C209.586 11.86 212.166 13.96 220.056 14.56C221.826 14.68 223.026 14.74 223.026 15.37C223.026 16.18 222.576 16.42 220.026 16.42C217.776 16.42 216.906 15.94 216.846 15.04L209.346 15.04C209.586 19.66 213.246 22.3 220.026 22.3C226.926 22.3 230.676 20.05 230.676 15.46C230.676 10.99 228.756 8.76996 220.056 8.16996C217.986 8.01996 217.056 7.98996 217.056 7.32996C217.056 6.57996 217.806 6.27996 219.846 6.27996C221.556 6.27996 222.786 6.66996 222.876 7.62996L230.406 7.62996C230.226 3.12996 226.836 0.399959 219.846 0.399961ZM231.882 7.65996L239.322 7.65996L239.322 22L246.822 22L246.822 7.65996L254.262 7.65995L254.262 0.699954L231.882 0.699958L231.882 7.65996Z" fill="#165E46"/>
</svg>
