<svg width="86" height="18" viewBox="0 0 86 18" fill="none" xmlns="http://www.w3.org/2000/svg">
<path d="M15.024 0.921999C15.024 1.02467 14.98 1.11267 14.892 1.186C14.8187 1.24467 14.7453 1.274 14.672 1.274C14.54 1.274 14.3273 1.28867 14.034 1.318C13.7553 1.34733 13.4473 1.384 13.11 1.428C12.7873 1.45733 12.4647 1.494 12.142 1.538C11.834 1.56733 11.5847 1.59667 11.394 1.626C11.3353 1.626 11.2107 1.63333 11.02 1.648C10.844 1.66267 10.6387 1.68467 10.404 1.714C10.184 1.72867 9.95667 1.75067 9.722 1.78C9.502 1.80933 9.326 1.83133 9.194 1.846C9.03267 1.87533 8.798 1.92667 8.49 2C8.182 2.07333 7.90333 2.14667 7.654 2.22C7.566 2.24933 7.48533 2.27133 7.412 2.286C7.33867 2.30067 7.28 2.31533 7.236 2.33C7.17733 2.34467 7.126 2.35933 7.082 2.374L8.27 6.576C8.314 6.708 8.38733 6.92067 8.49 7.214C8.59267 7.50733 8.71 7.83 8.842 8.182C8.98867 8.534 9.13533 8.90067 9.282 9.282C9.44333 9.66333 9.58267 10.0153 9.7 10.338C9.77333 10.5287 9.854 10.7633 9.942 11.042C10.03 11.3207 10.1107 11.6067 10.184 11.9C10.2573 12.1787 10.316 12.4353 10.36 12.67C10.4187 12.9047 10.448 13.066 10.448 13.154C10.448 13.3593 10.3893 13.572 10.272 13.792C10.1547 14.0267 10.0007 14.144 9.81 14.144C9.634 14.144 9.546 14.0193 9.546 13.77V13.616C9.546 13.572 9.546 13.5207 9.546 13.462C9.56067 13.4033 9.568 13.3373 9.568 13.264C9.568 13.1467 9.524 12.9487 9.436 12.67C9.348 12.3767 9.238 12.054 9.106 11.702C8.974 11.3353 8.82733 10.954 8.666 10.558C8.51933 10.1473 8.37267 9.766 8.226 9.414C8.094 9.04733 7.97667 8.73933 7.874 8.49C7.77133 8.226 7.70533 8.05 7.676 7.962C7.632 7.84467 7.57333 7.676 7.5 7.456C7.44133 7.236 7.368 6.98667 7.28 6.708C7.192 6.42933 7.09667 6.136 6.994 5.828C6.906 5.50533 6.818 5.19 6.73 4.882C6.51 4.16333 6.268 3.37867 6.004 2.528C5.93067 2.54267 5.68867 2.57933 5.278 2.638C4.882 2.682 4.43467 2.73333 3.936 2.792C3.43733 2.85067 2.96067 2.90933 2.506 2.968C2.05133 3.012 1.74333 3.034 1.582 3.034C1.21533 3.034 0.980667 2.97533 0.878 2.858C0.775333 2.74067 0.716667 2.594 0.702 2.418C0.702 2.30067 0.731333 2.18333 0.79 2.066C0.848667 1.934 0.929333 1.868 1.032 1.868C1.14933 1.868 1.24467 1.89 1.318 1.934C1.37667 1.96333 1.45733 1.978 1.56 1.978C1.58933 1.978 1.736 1.96333 2 1.934C2.27867 1.90467 2.60133 1.868 2.968 1.824C3.34933 1.78 3.738 1.736 4.134 1.692C4.54467 1.648 4.904 1.61133 5.212 1.582C5.28533 1.582 5.35867 1.582 5.432 1.582C5.52 1.56733 5.60067 1.55267 5.674 1.538C5.74733 1.52333 5.82067 1.516 5.894 1.516C5.894 1.472 5.916 1.37667 5.96 1.23C6.01867 1.06867 6.07733 0.988 6.136 0.988C6.28267 0.988 6.4 1.04667 6.488 1.164C6.59067 1.26667 6.67867 1.34 6.752 1.384C6.85467 1.36933 7.00867 1.34 7.214 1.296C7.434 1.23733 7.66133 1.186 7.896 1.142C8.14533 1.098 8.38 1.06133 8.6 1.032C8.83467 0.987999 9.03267 0.958665 9.194 0.943999L11.768 0.79C11.988 0.775332 12.2373 0.760665 12.516 0.745999C12.8093 0.716666 13.0953 0.687332 13.374 0.657999C13.6527 0.628666 13.8947 0.606666 14.1 0.591999C14.3053 0.562666 14.4447 0.547999 14.518 0.547999C14.65 0.562666 14.7673 0.606666 14.87 0.68C14.9727 0.753333 15.024 0.833999 15.024 0.921999ZM13.9627 6.4C13.9627 6.664 13.904 6.906 13.7867 7.126C13.684 7.346 13.5593 7.53667 13.4127 7.698C13.266 7.84467 13.1267 7.962 12.9947 8.05C12.8627 8.138 12.7673 8.182 12.7087 8.182C12.6647 8.182 12.606 8.15267 12.5327 8.094C12.474 8.02067 12.4447 7.94 12.4447 7.852C12.4447 7.83733 12.474 7.786 12.5327 7.698C12.5913 7.61 12.6573 7.50733 12.7307 7.39C12.8187 7.258 12.892 7.11133 12.9507 6.95C13.0093 6.774 13.0387 6.59067 13.0387 6.4C13.0387 6.01867 13.002 5.68133 12.9287 5.388C12.8553 5.08 12.76 4.77933 12.6427 4.486C12.628 4.442 12.606 4.39067 12.5767 4.332C12.562 4.27333 12.5547 4.22933 12.5547 4.2C12.5547 4.09733 12.584 4.03133 12.6427 4.002C12.716 3.97267 12.7893 3.958 12.8627 3.958C12.9653 3.958 13.0827 4.05333 13.2147 4.244C13.3467 4.42 13.464 4.63267 13.5667 4.882C13.684 5.13133 13.7793 5.40267 13.8527 5.696C13.926 5.97467 13.9627 6.20933 13.9627 6.4ZM21.7577 10.69C21.7724 10.7193 21.7797 10.7633 21.7797 10.822C21.7797 10.91 21.7137 11.042 21.5817 11.218C21.5377 11.2767 21.4424 11.372 21.2957 11.504C21.1491 11.636 20.9511 11.768 20.7017 11.9C20.4524 12.032 20.1444 12.1493 19.7777 12.252C19.4257 12.3547 19.0077 12.406 18.5237 12.406C18.1864 12.406 17.8564 12.3327 17.5337 12.186C17.2111 12.0247 16.9251 11.7973 16.6757 11.504C16.4264 11.196 16.2211 10.822 16.0597 10.382C15.8984 9.92733 15.8177 9.39933 15.8177 8.798C15.8177 8.226 15.8911 7.69067 16.0377 7.192C16.1844 6.69333 16.3677 6.25333 16.5877 5.872C16.8224 5.49067 17.0791 5.19 17.3577 4.97C17.6364 4.75 17.9077 4.64 18.1717 4.64C18.4064 4.64 18.6411 4.69133 18.8757 4.794C19.1251 4.882 19.3451 4.99933 19.5357 5.146C19.7411 5.29267 19.9024 5.46133 20.0197 5.652C20.1371 5.828 20.1957 6.01133 20.1957 6.202C20.1957 6.422 20.0931 6.64933 19.8877 6.884C19.6971 7.11867 19.4624 7.33867 19.1837 7.544C18.9051 7.73467 18.6264 7.896 18.3477 8.028C18.0691 8.14533 17.8491 8.204 17.6877 8.204C17.5997 8.204 17.5191 8.16733 17.4457 8.094C17.3871 8.006 17.3577 7.90333 17.3577 7.786C17.3577 7.58067 17.4457 7.41933 17.6217 7.302C17.8124 7.18467 18.0177 7.082 18.2377 6.994C18.4577 6.89133 18.6557 6.774 18.8317 6.642C19.0224 6.51 19.1177 6.32667 19.1177 6.092C19.1177 6.06267 19.0811 5.98933 19.0077 5.872C18.9344 5.75467 18.7364 5.696 18.4137 5.696C18.2671 5.696 18.0984 5.784 17.9077 5.96C17.7171 6.12133 17.5337 6.34867 17.3577 6.642C17.1817 6.92067 17.0351 7.258 16.9177 7.654C16.8004 8.03533 16.7417 8.45333 16.7417 8.908C16.7417 9.28933 16.8077 9.634 16.9397 9.942C17.0864 10.25 17.2697 10.514 17.4897 10.734C17.7097 10.9393 17.9664 11.1007 18.2597 11.218C18.5531 11.3353 18.8537 11.394 19.1617 11.394C19.3817 11.394 19.6164 11.35 19.8657 11.262C20.1297 11.1593 20.3717 11.0567 20.5917 10.954C20.8264 10.8367 21.0244 10.734 21.1857 10.646C21.3617 10.5433 21.4717 10.492 21.5157 10.492C21.5597 10.492 21.6037 10.514 21.6477 10.558C21.7064 10.602 21.7431 10.646 21.7577 10.69ZM28.2616 10.096C28.2616 10.3453 28.1736 10.5653 27.9976 10.756C27.8363 10.932 27.6236 11.086 27.3596 11.218C27.1103 11.3353 26.8316 11.4307 26.5236 11.504C26.2156 11.5773 25.9223 11.636 25.6436 11.68C25.365 11.7093 25.1156 11.7313 24.8956 11.746C24.6903 11.746 24.5583 11.746 24.4996 11.746C24.177 11.746 23.9276 11.6947 23.7516 11.592C23.5756 11.4893 23.4876 11.306 23.4876 11.042C23.4876 10.954 23.495 10.8807 23.5096 10.822C23.5243 10.7487 23.583 10.712 23.6856 10.712C23.7296 10.712 23.803 10.7267 23.9056 10.756C24.0083 10.7707 24.089 10.778 24.1476 10.778C24.2063 10.778 24.3896 10.7707 24.6976 10.756C25.0203 10.7267 25.3576 10.6827 25.7096 10.624C26.0763 10.5653 26.399 10.4847 26.6776 10.382C26.971 10.2647 27.1176 10.118 27.1176 9.942C27.1176 9.91267 26.9636 9.82467 26.6556 9.678C26.3623 9.51667 25.915 9.25267 25.3136 8.886C24.8443 8.59267 24.5143 8.29933 24.3236 8.006C24.133 7.698 24.0376 7.28733 24.0376 6.774C24.0376 6.45133 24.1036 6.18733 24.2356 5.982C24.3823 5.77667 24.573 5.61533 24.8076 5.498C25.057 5.38067 25.3356 5.3 25.6436 5.256C25.9663 5.19733 26.3036 5.168 26.6556 5.168C26.685 5.168 26.773 5.18267 26.9196 5.212C27.081 5.24133 27.2496 5.29267 27.4256 5.366C27.6016 5.42467 27.7556 5.50533 27.8876 5.608C28.0343 5.696 28.1076 5.79867 28.1076 5.916C28.1076 5.94533 28.0783 5.98933 28.0196 6.048C27.9756 6.10667 27.895 6.21667 27.7776 6.378C27.7336 6.36333 27.653 6.34133 27.5356 6.312C27.433 6.28267 27.3083 6.25333 27.1616 6.224C27.0296 6.18 26.8903 6.15067 26.7436 6.136C26.597 6.10667 26.4796 6.092 26.3916 6.092C26.0103 6.092 25.7023 6.16533 25.4676 6.312C25.233 6.444 25.1156 6.708 25.1156 7.104C25.1156 7.29467 25.189 7.47067 25.3356 7.632C25.497 7.79333 25.695 7.94733 25.9296 8.094C26.1643 8.226 26.4136 8.36533 26.6776 8.512C26.9563 8.644 27.213 8.79067 27.4476 8.952C27.6823 9.11333 27.873 9.28933 28.0196 9.48C28.181 9.656 28.2616 9.86133 28.2616 10.096ZM46.315 6.642C46.315 7.02333 46.205 7.39 45.985 7.742C45.7797 8.094 45.523 8.424 45.215 8.732C44.907 9.02533 44.5697 9.304 44.203 9.568C43.8364 9.81733 43.499 10.0373 43.191 10.228C42.8977 10.4333 42.6557 10.602 42.465 10.734C42.2744 10.866 42.179 10.9687 42.179 11.042C42.179 11.2327 42.201 11.504 42.245 11.856C42.289 12.1933 42.3404 12.5673 42.399 12.978C42.4724 13.374 42.5384 13.7847 42.597 14.21C42.6704 14.6353 42.7217 15.024 42.751 15.376C42.751 15.3907 42.7584 15.4567 42.773 15.574C42.8024 15.6913 42.8317 15.8233 42.861 15.97C42.905 16.1167 42.9344 16.2487 42.949 16.366C42.9784 16.498 42.993 16.5787 42.993 16.608C42.993 16.7107 42.9857 16.8207 42.971 16.938C42.971 17.07 42.949 17.1873 42.905 17.29C42.8757 17.4073 42.8244 17.5027 42.751 17.576C42.6777 17.6493 42.5824 17.686 42.465 17.686C42.3037 17.686 42.1864 17.6127 42.113 17.466C42.0397 17.334 42.003 17.202 42.003 17.07C42.003 17.0407 42.003 17.0113 42.003 16.982C42.0177 16.9527 42.025 16.916 42.025 16.872C42.025 16.7107 41.9664 16.278 41.849 15.574C41.7317 14.87 41.5997 14.0267 41.453 13.044C41.3064 12.076 41.1744 11.0347 41.057 9.92C40.9397 8.79067 40.881 7.72733 40.881 6.73C40.881 6.65667 40.8884 6.576 40.903 6.488C40.9177 6.38533 40.925 6.29733 40.925 6.224C40.7784 6.23867 40.5584 6.30467 40.265 6.422C39.9864 6.53933 39.7077 6.686 39.429 6.862C39.1504 7.02333 38.901 7.19933 38.681 7.39C38.4757 7.566 38.373 7.72733 38.373 7.874H38.219C38.175 7.874 38.1237 7.84467 38.065 7.786C37.9917 7.72733 37.933 7.66133 37.889 7.588C37.8304 7.51467 37.779 7.44133 37.735 7.368C37.691 7.29467 37.669 7.24333 37.669 7.214C37.669 6.906 37.8524 6.62 38.219 6.356C38.5857 6.07733 39.0404 5.83533 39.583 5.63C40.1404 5.41 40.749 5.24133 41.409 5.124C42.069 4.992 42.6924 4.926 43.279 4.926C43.851 4.926 44.3277 4.992 44.709 5.124C45.105 5.256 45.4204 5.41733 45.655 5.608C45.8897 5.784 46.0584 5.96733 46.161 6.158C46.2637 6.34867 46.315 6.51 46.315 6.642ZM45.237 6.576C45.237 6.42933 45.0537 6.28267 44.687 6.136C44.3204 5.97467 43.8877 5.894 43.389 5.894C42.949 5.894 42.6264 5.90867 42.421 5.938C42.2157 5.96733 42.0764 5.99667 42.003 6.026C41.9737 6.26067 41.9517 6.53933 41.937 6.862C41.9224 7.18467 41.915 7.51467 41.915 7.852C41.915 8.204 41.9224 8.54867 41.937 8.886C41.9664 9.20867 41.9957 9.48 42.025 9.7C42.2304 9.568 42.509 9.392 42.861 9.172C43.2277 8.93733 43.587 8.68067 43.939 8.402C44.291 8.10867 44.5917 7.808 44.841 7.5C45.105 7.17733 45.237 6.86933 45.237 6.576ZM52.738 6.29C52.738 6.39267 52.694 6.48067 52.606 6.554C52.518 6.61267 52.4153 6.664 52.298 6.708C52.1807 6.752 52.0633 6.78867 51.946 6.818C51.8287 6.83267 51.7333 6.84 51.66 6.84C51.44 6.84 51.2933 6.82533 51.22 6.796C51.1467 6.76667 51.088 6.752 51.044 6.752C50.6773 6.752 50.384 6.78133 50.164 6.84C49.944 6.89867 49.768 6.994 49.636 7.126C49.5187 7.258 49.438 7.42667 49.394 7.632C49.3647 7.82267 49.35 8.05733 49.35 8.336C49.35 8.80533 49.3647 9.17933 49.394 9.458C49.438 9.73667 49.4747 9.964 49.504 10.14C49.548 10.316 49.5847 10.4553 49.614 10.558C49.658 10.646 49.68 10.734 49.68 10.822C49.68 10.9393 49.614 11.064 49.482 11.196C49.3647 11.328 49.2547 11.394 49.152 11.394C48.976 11.394 48.8147 11.24 48.668 10.932C48.536 10.6093 48.4187 10.2353 48.316 9.81C48.228 9.37 48.1547 8.93733 48.096 8.512C48.0373 8.08667 48.008 7.764 48.008 7.544C48.008 7.29467 48.03 7.06 48.074 6.84C48.118 6.60533 48.1767 6.40733 48.25 6.246C48.3233 6.07 48.404 5.93067 48.492 5.828C48.58 5.72533 48.668 5.674 48.756 5.674C48.8293 5.674 48.888 5.70333 48.932 5.762C48.976 5.806 49.0127 5.86467 49.042 5.938C49.0713 5.99667 49.1007 6.05533 49.13 6.114C49.174 6.158 49.2253 6.18 49.284 6.18C49.416 6.18 49.6287 6.114 49.922 5.982C50.2153 5.85 50.5747 5.784 51 5.784C51.396 5.784 51.6893 5.79867 51.88 5.828C52.0853 5.84267 52.2833 5.88667 52.474 5.96C52.518 5.97467 52.5693 6.01133 52.628 6.07C52.7013 6.114 52.738 6.18733 52.738 6.29ZM60.623 10.69C60.6376 10.7193 60.6449 10.7633 60.6449 10.822C60.6449 10.91 60.5789 11.042 60.4469 11.218C60.4029 11.2767 60.3076 11.372 60.161 11.504C60.0143 11.636 59.8163 11.768 59.5669 11.9C59.3176 12.032 59.0096 12.1493 58.643 12.252C58.291 12.3547 57.8729 12.406 57.3889 12.406C57.0516 12.406 56.7216 12.3327 56.3989 12.186C56.0763 12.0247 55.7903 11.7973 55.541 11.504C55.2916 11.196 55.0863 10.822 54.925 10.382C54.7636 9.92733 54.6829 9.39933 54.6829 8.798C54.6829 8.226 54.7563 7.69067 54.903 7.192C55.0496 6.69333 55.233 6.25333 55.453 5.872C55.6876 5.49067 55.9443 5.19 56.223 4.97C56.5016 4.75 56.773 4.64 57.0369 4.64C57.2716 4.64 57.5063 4.69133 57.7409 4.794C57.9903 4.882 58.2103 4.99933 58.4009 5.146C58.6063 5.29267 58.7676 5.46133 58.8849 5.652C59.0023 5.828 59.0609 6.01133 59.0609 6.202C59.0609 6.422 58.9583 6.64933 58.7529 6.884C58.5623 7.11867 58.3276 7.33867 58.0489 7.544C57.7703 7.73467 57.4916 7.896 57.2129 8.028C56.9343 8.14533 56.7143 8.204 56.5529 8.204C56.4649 8.204 56.3843 8.16733 56.311 8.094C56.2523 8.006 56.223 7.90333 56.223 7.786C56.223 7.58067 56.311 7.41933 56.487 7.302C56.6776 7.18467 56.883 7.082 57.103 6.994C57.3229 6.89133 57.5209 6.774 57.6969 6.642C57.8876 6.51 57.983 6.32667 57.983 6.092C57.983 6.06267 57.9463 5.98933 57.8729 5.872C57.7996 5.75467 57.6016 5.696 57.279 5.696C57.1323 5.696 56.9636 5.784 56.773 5.96C56.5823 6.12133 56.399 6.34867 56.223 6.642C56.047 6.92067 55.9003 7.258 55.783 7.654C55.6656 8.03533 55.607 8.45333 55.607 8.908C55.607 9.28933 55.673 9.634 55.805 9.942C55.9516 10.25 56.135 10.514 56.355 10.734C56.575 10.9393 56.8316 11.1007 57.125 11.218C57.4183 11.3353 57.7189 11.394 58.0269 11.394C58.2469 11.394 58.4816 11.35 58.7309 11.262C58.9949 11.1593 59.2369 11.0567 59.457 10.954C59.6916 10.8367 59.8896 10.734 60.051 10.646C60.227 10.5433 60.337 10.492 60.3809 10.492C60.4249 10.492 60.4689 10.514 60.513 10.558C60.5716 10.602 60.6083 10.646 60.623 10.69ZM60.403 4.156C60.3736 4.17067 60.315 4.2 60.2269 4.244C60.1536 4.27333 60.0803 4.288 60.007 4.288C59.8456 4.288 59.6916 4.25867 59.545 4.2C59.3983 4.14133 59.2663 4.07533 59.149 4.002C58.8996 3.87 58.6796 3.70867 58.489 3.518C58.3129 3.31267 58.1516 3.10733 58.005 2.902C57.8583 2.69667 57.7263 2.49867 57.609 2.308C57.4916 2.11733 57.389 1.97067 57.301 1.868C57.0956 2.11733 56.8683 2.352 56.619 2.572C56.3696 2.792 56.0689 3.012 55.717 3.232C55.5996 3.29067 55.519 3.32 55.475 3.32C55.3723 3.32 55.2916 3.28333 55.233 3.21C55.189 3.122 55.1669 3.04867 55.1669 2.99C55.1669 2.902 55.2036 2.82133 55.277 2.748C55.453 2.572 55.629 2.36667 55.805 2.132C55.981 1.89733 56.157 1.67 56.3329 1.45C56.5089 1.23 56.6776 1.04667 56.839 0.899999C57.0003 0.753333 57.1469 0.68 57.279 0.68C57.543 0.68 57.7703 0.79 57.961 1.01C58.1663 1.21533 58.3643 1.472 58.5549 1.78C58.7603 2.07333 58.9729 2.38133 59.193 2.704C59.4129 3.012 59.6843 3.276 60.007 3.496C60.1536 3.496 60.2929 3.52533 60.4249 3.584C60.557 3.64267 60.623 3.72333 60.623 3.826C60.623 3.89933 60.5936 3.96533 60.5349 4.024C60.4763 4.08267 60.4323 4.12667 60.403 4.156ZM68.0069 3.056C67.8162 3.276 67.5449 3.496 67.1929 3.716C66.8409 3.92133 66.4889 4.112 66.1369 4.288C65.7849 4.464 65.4769 4.618 65.2129 4.75C64.9489 4.86733 64.8169 4.948 64.8169 4.992C64.8169 5.036 64.8462 5.168 64.9049 5.388C64.9635 5.608 65.0295 5.872 65.1029 6.18C65.1909 6.47333 65.2789 6.78133 65.3669 7.104C65.4549 7.42667 65.5282 7.71267 65.5869 7.962C65.6162 8.10867 65.6529 8.29933 65.6969 8.534C65.7409 8.76867 65.7775 9.00333 65.8069 9.238C65.8509 9.47267 65.8875 9.68533 65.9169 9.876C65.9462 10.052 65.9609 10.1473 65.9609 10.162C65.9609 10.382 65.9242 10.6093 65.8509 10.844C65.7775 11.0787 65.6602 11.196 65.4989 11.196C65.4109 11.196 65.3302 11.1593 65.2569 11.086C65.1835 11.0127 65.1175 10.932 65.0589 10.844C65.0002 10.7413 64.9562 10.646 64.9269 10.558C64.8975 10.47 64.8829 10.404 64.8829 10.36C64.8829 10.3307 64.8829 10.2867 64.8829 10.228C64.8975 10.1693 64.9049 10.1033 64.9049 10.03C64.9049 9.75133 64.8609 9.348 64.7729 8.82C64.7435 8.65867 64.6849 8.40933 64.5969 8.072C64.5089 7.73467 64.4209 7.39 64.3329 7.038C64.2302 6.62733 64.1129 6.18 63.9809 5.696C63.9222 5.49067 63.8855 5.388 63.8709 5.388C63.7682 5.388 63.5922 5.454 63.3429 5.586C63.1082 5.70333 62.8369 5.85733 62.5289 6.048C62.2209 6.224 61.8982 6.422 61.5609 6.642C61.2235 6.84733 60.9082 7.04533 60.6149 7.236C60.3215 7.412 60.0722 7.566 59.8669 7.698C59.6469 7.81533 59.5149 7.874 59.4709 7.874C59.2802 7.874 59.1262 7.808 59.0089 7.676C58.8915 7.544 58.8329 7.39733 58.8329 7.236C58.8329 7.148 58.9575 7.02333 59.2069 6.862C59.4415 6.686 59.7422 6.49533 60.1089 6.29C60.4609 6.08467 60.8495 5.872 61.2749 5.652C61.6855 5.432 62.0669 5.234 62.4189 5.058C62.7855 4.882 63.0862 4.73533 63.3209 4.618C63.5702 4.50067 63.6949 4.442 63.6949 4.442C63.5629 3.76733 63.4529 3.166 63.3649 2.638C63.2915 2.18333 63.2182 1.76533 63.1449 1.384C63.0862 1.00267 63.0569 0.797332 63.0569 0.767999C63.0569 0.577333 63.0935 0.437999 63.1669 0.349999C63.2549 0.247332 63.3502 0.195999 63.4529 0.195999C63.6142 0.195999 63.7169 0.305999 63.7609 0.525999C63.9222 1.318 64.0689 2.022 64.2009 2.638C64.3475 3.254 64.4869 3.75267 64.6189 4.134C64.7509 4.10467 64.9782 4.024 65.3009 3.892C65.6235 3.74533 65.9609 3.59133 66.3129 3.43C66.6649 3.26867 66.9802 3.12933 67.2589 3.012C67.5522 2.88 67.7209 2.814 67.7649 2.814C67.8529 2.814 67.9042 2.84333 67.9189 2.902C67.9482 2.96067 67.9775 3.012 68.0069 3.056ZM85.1756 3.496C85.1756 3.76 85.0656 4.03867 84.8456 4.332C84.6256 4.61067 84.3543 4.904 84.0316 5.212C83.709 5.50533 83.357 5.806 82.9756 6.114C82.5943 6.422 82.2423 6.73 81.9196 7.038C81.597 7.33133 81.3256 7.61733 81.1056 7.896C80.8856 8.17467 80.7756 8.43133 80.7756 8.666C80.7756 8.82733 80.7903 9.00333 80.8196 9.194C80.8636 9.37 80.9223 9.51667 80.9956 9.634C80.9223 9.766 80.849 9.86867 80.7756 9.942C80.7023 10.0153 80.607 10.052 80.4896 10.052C80.387 10.052 80.2916 10.008 80.2036 9.92C80.1303 9.832 80.0643 9.722 80.0056 9.59C79.947 9.458 79.8956 9.31867 79.8516 9.172C79.8223 9.02533 79.8076 8.89333 79.8076 8.776C79.8076 8.43867 79.8516 8.16 79.9396 7.94C80.0276 7.70533 80.1596 7.49267 80.3356 7.302C80.5263 7.09667 80.7536 6.89133 81.0176 6.686C81.2816 6.48067 81.5896 6.246 81.9416 5.982C82.2056 5.77667 82.4696 5.55667 82.7336 5.322C83.0123 5.08733 83.2543 4.86 83.4596 4.64C83.6796 4.40533 83.8556 4.18533 83.9876 3.98C84.1343 3.76 84.2076 3.562 84.2076 3.386C84.2076 3.23933 84.1416 3.09267 84.0096 2.946C83.8923 2.79933 83.731 2.67467 83.5256 2.572C83.3203 2.45467 83.0783 2.36667 82.7996 2.308C82.521 2.23467 82.2276 2.198 81.9196 2.198C81.2303 2.198 80.6876 2.24933 80.2916 2.352C79.9103 2.45467 79.6023 2.506 79.3676 2.506C79.2503 2.506 79.133 2.47667 79.0156 2.418C78.8983 2.34467 78.8396 2.242 78.8396 2.11C78.8396 1.934 78.9716 1.78733 79.2356 1.67C79.4996 1.55267 79.8003 1.46467 80.1376 1.406C80.4896 1.34733 80.8196 1.31067 81.1276 1.296C81.4503 1.26667 81.663 1.252 81.7656 1.252C82.2203 1.252 82.653 1.318 83.0636 1.45C83.4743 1.582 83.8336 1.75067 84.1416 1.956C84.4643 2.16133 84.7136 2.40333 84.8896 2.682C85.0803 2.946 85.1756 3.21733 85.1756 3.496ZM82.2936 12.868C82.2936 13.044 82.2056 13.176 82.0296 13.264C81.8536 13.3667 81.6923 13.418 81.5456 13.418C81.4136 13.418 81.2596 13.3447 81.0836 13.198C80.9076 13.066 80.8196 12.934 80.8196 12.802C80.8196 12.758 80.8196 12.6993 80.8196 12.626C80.8343 12.538 80.8563 12.45 80.8856 12.362C80.9296 12.274 80.981 12.2007 81.0396 12.142C81.0983 12.0687 81.179 12.032 81.2816 12.032C81.3256 12.032 81.399 12.0687 81.5016 12.142C81.619 12.2007 81.7363 12.274 81.8536 12.362C81.971 12.45 82.0736 12.5453 82.1616 12.648C82.2496 12.736 82.2936 12.8093 82.2936 12.868Z" fill="#0F4E39"/>
</svg>
